<svg width="24" height="24" viewBox="0 0 24 24" fill="none" xmlns="http://www.w3.org/2000/svg">
<path d="M15.4521 12.3836C15.2329 12.1644 15.2329 11.8356 15.4521 11.6164L23.6712 3.39726C23.8904 3.17808 24 2.84932 24 2.63014C24 2.41096 23.8904 2.08219 23.6712 1.86301L22.137 0.328767C21.9178 0.109589 21.589 0 21.3699 0C21.0411 0 20.8219 0.109589 20.6027 0.328767L12.3836 8.54795C12.1644 8.76712 11.8356 8.76712 11.6164 8.54795L3.39726 0.328767C3.17808 0.109589 2.84932 0 2.63014 0C2.41096 0 2.08219 0.109589 1.86301 0.328767L0.328767 1.86301C0.109589 2.08219 0 2.41096 0 2.63014C0 2.84932 0.109589 3.17808 0.328767 3.39726L8.54795 11.6164C8.76712 11.8356 8.76712 12.1644 8.54795 12.3836L0.328767 20.6027C0.109589 20.8219 0 21.1507 0 21.3699C0 21.589 0.109589 21.9178 0.328767 22.137L1.86301 23.6712C2.08219 23.8904 2.41096 24 2.63014 24C2.84932 24 3.17808 23.8904 3.39726 23.6712L11.6164 15.4521C11.8356 15.2329 12.1644 15.2329 12.3836 15.4521L20.6027 23.6712C20.8219 23.8904 21.1507 24 21.3699 24C21.589 24 21.9178 23.8904 22.137 23.6712L23.6712 22.137C23.8904 21.9178 24 21.589 24 21.3699C24 21.1507 23.8904 20.8219 23.6712 20.6027L15.4521 12.3836Z" fill="#B0B0B0"/>
</svg>
