<svg width="12" height="12" viewBox="0 0 12 12" fill="none" xmlns="http://www.w3.org/2000/svg">
<path d="M5.997 0C2.682 0 0 2.68501 0 6C0 9.31499 2.682 12 5.997 12C9.31201 12 12 9.31499 12 6C12 2.68501 9.31198 0 5.997 0ZM5.99999 10.8C3.348 10.8 1.19998 8.65202 1.19998 6C1.19998 3.34798 3.348 1.20001 5.99999 1.20001C8.65197 1.20001 10.8 3.34801 10.8 6C10.8 8.65199 8.652 10.8 5.99999 10.8Z" fill="#D80027"/>
<path d="M6.59991 7.80029H5.3999V9.0003H6.59991V7.80029Z" fill="#D80027"/>
<path d="M6.59991 3H5.3999V6.60001H6.59991V3Z" fill="#D80027"/>
</svg>
