<svg width="16" height="16" viewBox="0 0 16 16" fill="none" xmlns="http://www.w3.org/2000/svg">
<g clip-path="url(#clip0_257_6061)">
<path d="M8.66663 4.66666C8.66663 5.03485 8.36816 5.33333 7.99997 5.33333C7.63178 5.33333 7.3333 5.03485 7.3333 4.66666C7.3333 4.29847 7.63178 4 7.99997 4C8.36816 4 8.66663 4.29847 8.66663 4.66666Z" fill="#8E9AAC"/>
<path fill-rule="evenodd" clip-rule="evenodd" d="M7.99997 2.03333C4.70467 2.03333 2.0333 4.7047 2.0333 8C2.0333 11.2953 4.70467 13.9667 7.99997 13.9667C11.2953 13.9667 13.9666 11.2953 13.9666 8C13.9666 4.7047 11.2953 2.03333 7.99997 2.03333ZM0.633301 8C0.633301 3.9315 3.93147 0.633331 7.99997 0.633331C12.0685 0.633331 15.3666 3.9315 15.3666 8C15.3666 12.0685 12.0685 15.3667 7.99997 15.3667C3.93147 15.3667 0.633301 12.0685 0.633301 8ZM6.6333 6.66666C6.6333 6.28007 6.9467 5.96666 7.3333 5.96666H7.99997C8.38657 5.96666 8.69997 6.28007 8.69997 6.66666V11.3333C8.69997 11.7199 8.38657 12.0333 7.99997 12.0333C7.61337 12.0333 7.29997 11.7199 7.29997 11.3333V7.36588C6.92885 7.34849 6.6333 7.04209 6.6333 6.66666Z" fill="#8E9AAC"/>
</g>
<defs>
<clipPath id="clip0_257_6061">
<rect width="16" height="16" fill="white"/>
</clipPath>
</defs>
</svg>
