<svg width="147" height="50" viewBox="0 0 147 50" fill="none" xmlns="http://www.w3.org/2000/svg">
<path d="M140.833 1.0016C143.341 1.0016 145.382 3.35629 145.382 6.25003V43.75C145.382 46.6438 143.341 48.9985 140.833 48.9985H5.41666C2.90873 48.9985 0.868002 46.6438 0.868002 43.75V6.25003C0.868002 3.35629 2.90873 1.0016 5.41666 1.0016H140.833ZM140.833 4.57764e-05H5.41666C2.43882 4.57764e-05 0 2.81409 0 6.25003V43.75C0 47.186 2.43882 50 5.41666 50H140.833C143.811 50 146.25 47.186 146.25 43.75V6.25003C146.25 2.81409 143.811 4.57764e-05 140.833 4.57764e-05Z" fill="#8E9AAC"/>
<path d="M35.333 24.95C35.3032 21.6954 38.0476 20.112 38.1731 20.0383C36.6188 17.8137 34.2097 17.5098 33.3631 17.4855C31.3397 17.2765 29.377 18.6741 28.3463 18.6741C27.295 18.6741 25.7078 17.5057 23.9971 17.5401C21.7958 17.5734 19.7364 18.8245 18.6069 20.7674C16.276 24.7289 18.0144 30.5504 20.2477 33.7525C21.3648 35.3217 22.6702 37.0717 24.3788 37.0101C26.0503 36.9435 26.6747 35.965 28.692 35.965C30.6906 35.965 31.277 37.0101 33.0195 36.9707C34.8135 36.9435 35.943 35.3955 37.021 33.8131C38.312 32.0166 38.8305 30.2454 38.851 30.1546C38.8099 30.1404 35.368 28.8499 35.333 24.95ZM32.0413 15.3791C32.9403 14.2754 33.5555 12.7738 33.3847 11.25C32.0835 11.3065 30.4561 12.1336 29.519 13.2131C28.6899 14.1643 27.9493 15.7234 28.1406 17.1897C29.6023 17.2967 31.1031 16.4656 32.0413 15.3791Z" fill="#8E9AAC"/>
<path d="M59.5492 36.7878H57.2131L55.9335 32.8405H51.4855L50.2666 36.7878H47.9922L52.4 23.3493H55.1219L59.5492 36.7878ZM55.5477 31.1844L54.3905 27.6753C54.2681 27.3168 54.0376 26.4726 53.7002 25.1437H53.6591C53.5233 25.7153 53.3063 26.5595 53.009 27.6753L51.8713 31.1844H55.5477ZM70.8625 31.8236C70.8625 33.4716 70.4068 34.7743 69.4943 35.7305C68.6776 36.5818 67.6623 37.0069 66.4515 37.0069C65.1441 37.0069 64.2039 36.5495 63.633 35.6326V40.717H61.4399V30.2826C61.4399 29.2476 61.4121 28.1863 61.3586 27.0977H63.2874L63.4098 28.6336H63.4509C64.1823 27.4764 65.2922 26.8978 66.7817 26.8978C67.9462 26.8978 68.9183 27.3492 69.6959 28.2529C70.4726 29.1587 70.8625 30.3483 70.8625 31.8236ZM68.6282 31.9024C68.6282 30.9592 68.4122 30.1817 67.9781 29.5687C67.5039 28.9315 66.8671 28.6124 66.0689 28.6124C65.5278 28.6124 65.0361 28.7902 64.5969 29.1406C64.1566 29.494 63.8686 29.9555 63.7338 30.527C63.6737 30.7408 63.6395 30.9607 63.632 31.1824V32.7991C63.632 33.5029 63.8521 34.0977 64.2924 34.5844C64.7326 35.0691 65.3046 35.3125 66.0082 35.3125C66.8342 35.3125 67.4771 34.9984 67.9369 34.3754C68.3978 33.7503 68.6282 32.9263 68.6282 31.9024ZM82.2158 31.8236C82.2158 33.4716 81.7601 34.7743 80.8477 35.7305C80.0299 36.5818 79.0156 37.0069 77.8039 37.0069C76.4964 37.0069 75.5562 36.5495 74.9853 35.6326V40.717H72.7922V30.2826C72.7922 29.2476 72.7644 28.1863 72.711 27.0977H74.6397L74.7621 28.6336H74.8033C75.5336 27.4764 76.6435 26.8978 78.1341 26.8978C79.2975 26.8978 80.2696 27.3492 81.0493 28.2529C81.8249 29.1587 82.2158 30.3483 82.2158 31.8236ZM79.9805 31.9024C79.9805 30.9592 79.7635 30.1817 79.3294 29.5687C78.8552 28.9315 78.2205 28.6124 77.4222 28.6124C76.8812 28.6124 76.3895 28.7902 75.9482 29.1406C75.5079 29.494 75.2209 29.9555 75.0861 30.527C75.0193 30.7936 74.9833 31.0107 74.9833 31.1824V32.7991C74.9833 33.5029 75.2044 34.0977 75.6426 34.5844C76.0829 35.0681 76.6549 35.3125 77.3605 35.3125C78.1876 35.3125 78.8305 34.9984 79.2893 34.3754C79.7501 33.7503 79.9805 32.9263 79.9805 31.9024ZM94.9095 33.0182C94.9095 34.1623 94.5022 35.0923 93.6926 35.8103C92.8018 36.5939 91.5581 36.9867 89.9637 36.9867C88.4907 36.9867 87.3097 36.708 86.4189 36.1496L86.9261 34.3552C87.8879 34.9146 88.9443 35.1933 90.0943 35.1933C90.9214 35.1933 91.5643 35.0095 92.0231 34.645C92.4829 34.2795 92.7154 33.7907 92.7154 33.1808C92.7154 32.6345 92.523 32.177 92.1455 31.8044C91.7659 31.4328 91.1384 31.0864 90.2569 30.7684C87.8601 29.8908 86.6607 28.6074 86.6607 26.919C86.6607 25.8163 87.0845 24.9135 87.93 24.2077C88.7756 23.5028 89.8968 23.1504 91.2917 23.1504C92.5374 23.1504 93.5753 23.3635 94.3993 23.7886L93.849 25.5436C93.0733 25.1316 92.198 24.9256 91.2187 24.9256C90.4451 24.9256 89.8382 25.1124 89.4041 25.484C89.0389 25.8163 88.8538 26.2212 88.8538 26.7019C88.8538 27.232 89.0646 27.6723 89.4843 28.0177C89.8485 28.3357 90.513 28.6821 91.4738 29.0537C92.6526 29.5202 93.5188 30.0635 94.0732 30.6876C94.6318 31.3116 94.9095 32.0902 94.9095 33.0182ZM102.179 28.7134H99.7617V33.4181C99.7617 34.6147 100.188 35.2115 101.041 35.2115C101.433 35.2115 101.758 35.1792 102.016 35.1115L102.076 36.7464C101.644 36.9049 101.075 36.9847 100.371 36.9847C99.5045 36.9847 98.8277 36.7252 98.3391 36.2062C97.8525 35.6871 97.6077 34.8177 97.6077 33.5938V28.7094H96.1676V27.0937H97.6077V25.3195L99.7617 24.6813V27.0937H102.179V28.7134ZM113.064 31.863C113.064 33.3525 112.63 34.5753 111.764 35.5316C110.858 36.5162 109.652 37.0069 108.149 37.0069C106.699 37.0069 105.546 36.5354 104.686 35.5932C103.826 34.649 103.396 33.4595 103.396 32.0246C103.396 30.523 103.84 29.293 104.726 28.3367C105.614 27.3795 106.809 26.9008 108.312 26.9008C109.76 26.9008 110.924 27.3734 111.804 28.3166C112.646 29.2314 113.064 30.4129 113.064 31.863ZM110.791 31.9125C110.791 31.0249 110.596 30.2635 110.204 29.6263C109.744 28.8568 109.086 28.4721 108.233 28.4721C107.354 28.4721 106.68 28.8568 106.222 29.6263C105.829 30.2635 105.633 31.038 105.633 31.9529C105.633 32.8415 105.829 33.6049 106.222 34.2401C106.696 35.0095 107.357 35.3943 108.214 35.3943C109.053 35.3943 109.71 35.0015 110.185 34.2209C110.588 33.5685 110.791 32.8021 110.791 31.9125ZM120.196 28.9911C119.968 28.9507 119.737 28.9307 119.505 28.9315C118.733 28.9315 118.137 29.2163 117.717 29.7899C117.353 30.2948 117.17 30.933 117.17 31.7034V36.7878H114.977V30.1493C114.979 29.1321 114.957 28.115 114.913 27.0987H116.823L116.903 28.9527H116.964C117.197 28.3155 117.561 27.8016 118.061 27.4168C118.518 27.0806 119.074 26.8986 119.646 26.8978C119.848 26.8978 120.032 26.9119 120.194 26.9372L120.196 28.9911ZM130.004 31.4843C130.01 31.8116 129.983 32.1386 129.924 32.4608H123.345C123.37 33.4181 123.688 34.1512 124.299 34.6561C124.854 35.1065 125.571 35.3327 126.451 35.3327C127.426 35.3327 128.314 35.1812 129.114 34.8752L129.457 36.3687C128.523 36.7686 127.42 36.9676 126.148 36.9676C124.617 36.9676 123.416 36.5253 122.541 35.6427C121.669 34.7591 121.232 33.5716 121.232 32.0841C121.232 30.624 121.638 29.4071 122.452 28.4367C123.304 27.4007 124.455 26.8826 125.903 26.8826C127.326 26.8826 128.403 27.4007 129.134 28.4367C129.713 29.2577 130.004 30.2756 130.004 31.4843ZM127.913 30.9259C127.929 30.2867 127.785 29.7363 127.487 29.2708C127.108 28.671 126.523 28.3721 125.741 28.3721C125.024 28.3721 124.439 28.6639 123.995 29.2496C123.63 29.7151 123.413 30.2746 123.346 30.9239L127.913 30.9259Z" fill="#8E9AAC"/>
<path d="M50.8465 18.5939C50.2365 18.5939 49.7088 18.5646 49.2695 18.5152V12.0181C49.8839 11.9249 50.5047 11.879 51.1263 11.8807C53.6413 11.8807 54.7996 13.0955 54.7996 15.0758C54.7996 17.3599 53.4315 18.5939 50.8465 18.5939ZM51.2147 12.7138C50.8753 12.7138 50.5862 12.734 50.3465 12.7825V17.7214C50.4761 17.7416 50.7251 17.7507 51.0748 17.7507C52.7228 17.7507 53.6609 16.8298 53.6609 15.105C53.6609 13.5671 52.8122 12.7138 51.2147 12.7138ZM58.4092 18.6434C56.9917 18.6434 56.0731 17.6043 56.0731 16.1936C56.0731 14.7233 57.0112 13.6752 58.4894 13.6752C59.8864 13.6752 60.8255 14.6648 60.8255 16.1159C60.8255 17.6043 59.8576 18.6434 58.4092 18.6434ZM58.4503 14.4487C57.6716 14.4487 57.1727 15.1636 57.1727 16.1633C57.1727 17.1438 57.6819 17.8588 58.4401 17.8588C59.1982 17.8588 59.7074 17.0944 59.7074 16.1431C59.7074 15.1737 59.2085 14.4487 58.4503 14.4487ZM68.9088 13.7731L67.3915 18.5354H66.4029L65.7744 16.4673C65.6182 15.9614 65.488 15.4481 65.3846 14.9293H65.364C65.2848 15.4484 65.1346 15.9684 64.9752 16.4673L64.3065 18.5354H63.3077L61.8799 13.7731H62.9878L63.5371 16.0371C63.6667 16.5763 63.7757 17.0853 63.8663 17.5659H63.8868C63.966 17.165 64.0957 16.6642 64.286 16.0472L64.9752 13.7741H65.8536L66.513 15.9987C66.6725 16.538 66.8021 17.0671 66.9029 17.5669H66.9317C67.0016 17.0772 67.1117 16.5571 67.2608 15.9987L67.8503 13.7741L68.9088 13.7731ZM74.4944 18.5354H73.4164V15.8008C73.4164 14.9586 73.0872 14.5365 72.4381 14.5365C71.7993 14.5365 71.3601 15.0758 71.3601 15.7028V18.5354H70.282V15.1343C70.282 14.7132 70.2717 14.2619 70.2419 13.7721H71.1903L71.2407 14.5072H71.2706C71.5607 13.9983 72.149 13.6752 72.8084 13.6752C73.8268 13.6752 74.4954 14.4396 74.4954 15.6837L74.4944 18.5354ZM77.4672 18.5354H76.3882V11.5879H77.4672V18.5354ZM81.3978 18.6434C79.9813 18.6434 79.0617 17.6043 79.0617 16.1936C79.0617 14.7233 79.9998 13.6752 81.477 13.6752C82.8749 13.6752 83.8131 14.6648 83.8131 16.1159C83.8141 17.6043 82.8451 18.6434 81.3978 18.6434ZM81.4379 14.4487C80.6592 14.4487 80.1603 15.1636 80.1603 16.1633C80.1603 17.1438 80.6705 17.8588 81.4266 17.8588C82.1857 17.8588 82.6939 17.0944 82.6939 16.1431C82.6949 15.1737 82.197 14.4487 81.4379 14.4487ZM88.0635 18.5354L87.9853 17.987H87.9565C87.6273 18.4283 87.147 18.6434 86.538 18.6434C85.6688 18.6434 85.0516 18.0456 85.0516 17.2418C85.0516 16.0664 86.0895 15.4585 87.8866 15.4585V15.3706C87.8866 14.7435 87.5481 14.4295 86.8795 14.4295C86.4012 14.4295 85.9815 14.5476 85.6122 14.7829L85.3931 14.0872C85.8416 13.8125 86.4012 13.6752 87.0585 13.6752C88.3258 13.6752 88.9656 14.3315 88.9656 15.6453V17.3993C88.9656 17.88 88.9872 18.2526 89.0356 18.5364L88.0635 18.5354ZM87.9154 16.1633C86.718 16.1633 86.1173 16.4481 86.1173 17.1236C86.1173 17.6235 86.4269 17.8679 86.8569 17.8679C87.4052 17.8679 87.9154 17.4569 87.9154 16.8985V16.1633ZM94.2005 18.5354L94.1501 17.7709H94.1203C93.8106 18.3485 93.2901 18.6434 92.5629 18.6434C91.3933 18.6434 90.5271 17.6336 90.5271 16.2128C90.5271 14.7233 91.4252 13.6741 92.6513 13.6741C93.3004 13.6741 93.7602 13.8892 94.0195 14.3214H94.0411V11.5879H95.1201V17.2519C95.1201 17.7124 95.1314 18.1435 95.1602 18.5354H94.2005ZM94.0411 15.7331C94.0411 15.0667 93.5915 14.4981 92.9054 14.4981C92.1061 14.4981 91.6175 15.1939 91.6175 16.1734C91.6175 17.1337 92.1247 17.7911 92.8838 17.7911C93.5617 17.7911 94.0411 17.2125 94.0411 16.5268V15.7331ZM101.962 18.6434C100.545 18.6434 99.6267 17.6043 99.6267 16.1936C99.6267 14.7233 100.565 13.6752 102.042 13.6752C103.44 13.6752 104.378 14.6648 104.378 16.1159C104.379 17.6043 103.411 18.6434 101.962 18.6434ZM102.002 14.4487C101.224 14.4487 100.725 15.1636 100.725 16.1633C100.725 17.1438 101.234 17.8588 101.992 17.8588C102.751 17.8588 103.259 17.0944 103.259 16.1431C103.261 15.1737 102.762 14.4487 102.002 14.4487ZM110.176 18.5354H109.097V15.8008C109.097 14.9586 108.767 14.5365 108.118 14.5365C107.48 14.5365 107.041 15.0758 107.041 15.7028V18.5354H105.962V15.1343C105.962 14.7132 105.952 14.2619 105.922 13.7721H106.871L106.921 14.5072H106.951C107.24 13.9983 107.829 13.6741 108.488 13.6741C109.506 13.6741 110.176 14.4386 110.176 15.6827V18.5354ZM117.429 14.5668H116.243V16.8793C116.243 17.468 116.45 17.7618 116.87 17.7618C117.06 17.7618 117.22 17.7416 117.349 17.7124L117.378 18.5162C117.17 18.5949 116.89 18.6343 116.542 18.6343C115.692 18.6343 115.184 18.1738 115.184 16.9681V14.5668H114.476V13.7731H115.184V12.9006L116.243 12.5866V13.7721H117.429V14.5668ZM123.136 18.5354H122.059V15.821C122.059 14.9687 121.731 14.5375 121.08 14.5375C120.522 14.5375 120.001 14.9101 120.001 15.6645V18.5354H118.924V11.5879H120.001V14.4487H120.023C120.362 13.9296 120.854 13.6741 121.482 13.6741C122.508 13.6741 123.136 14.4578 123.136 15.7028V18.5354ZM128.983 16.4087H125.748C125.768 17.3105 126.376 17.8194 127.276 17.8194C127.754 17.8194 128.195 17.7406 128.584 17.5942L128.751 18.3294C128.292 18.5253 127.752 18.6232 127.124 18.6232C125.607 18.6232 124.709 17.6821 124.709 16.2229C124.709 14.7627 125.628 13.6651 127.003 13.6651C128.242 13.6651 129.02 14.5668 129.02 15.929C129.027 16.0898 129.014 16.2508 128.983 16.4087ZM127.994 15.6544C127.994 14.9192 127.617 14.4002 126.927 14.4002C126.308 14.4002 125.819 14.9293 125.749 15.6544H127.994Z" fill="#8E9AAC"/>
</svg>
