<svg width="171" height="50" viewBox="0 0 171 50" fill="none" xmlns="http://www.w3.org/2000/svg">
<path d="M164.413 1.00155C167.341 1.00155 169.723 3.35624 169.723 6.24998V43.75C169.723 46.6437 167.341 48.9985 164.413 48.9985H6.32357C3.39573 48.9985 1.01333 46.6437 1.01333 43.75V6.24998C1.01333 3.35624 3.39573 1.00155 6.32357 1.00155H164.413ZM164.413 0H6.32357C2.84715 0 0 2.81405 0 6.24998V43.75C0 47.1859 2.84715 50 6.32357 50H164.413C167.889 50 170.737 47.1859 170.737 43.75V6.24998C170.737 2.81405 167.889 0 164.413 0Z" fill="#8E9AAC"/>
<path d="M56.2424 8.45707C55.1214 8.45707 54.1514 8.84959 53.365 9.62164C52.576 10.3933 52.1777 11.3618 52.1777 12.5016C52.1777 13.6414 52.5753 14.6076 53.3637 15.3853V15.3865H53.365C54.1515 16.1526 55.121 16.5461 56.2424 16.5461C57.412 16.5461 58.3843 16.1602 59.1236 15.3979L59.1249 15.3966C59.7716 14.7486 60.0991 13.8737 60.0991 12.8053V12.7398L60.0916 12.7346C60.0884 12.566 60.0799 12.3935 60.0399 12.2115L60.0172 12.1121H56.1164V13.2666H58.8148C58.7414 13.8071 58.5861 14.2615 58.2728 14.5723C57.7343 15.1045 57.0603 15.3727 56.2424 15.3727C55.4758 15.3727 54.8219 15.106 54.2561 14.5774L54.2548 14.5761C53.6998 14.0433 53.4229 13.3564 53.4229 12.5003C53.4229 11.6435 53.6998 10.964 54.256 10.4308C54.8216 9.89633 55.4749 9.63548 56.2424 9.63548C57.0984 9.63548 57.7446 9.91127 58.2287 10.4761L58.3169 10.5795L59.1563 9.74261L59.0819 9.65438C58.7759 9.28949 58.3562 8.99766 57.8481 8.78347C57.3393 8.57166 56.8033 8.45703 56.2424 8.45703L56.2424 8.45707Z" fill="#8E9AAC"/>
<path d="M61.2402 8.62793V16.3728H65.9199V15.2007H62.4691V13.0783H65.5796V11.9238H62.4691V9.80006H65.9199V9.67403V8.62793H61.2402Z" fill="#8E9AAC"/>
<path d="M66.6895 8.62793V9.80006H68.8069V16.3728H70.0357V16.2468V9.80006H72.1531V8.62793H66.6895Z" fill="#8E9AAC"/>
<path d="M75.6738 8.62793V16.3728H75.7986H76.9002V8.62793H75.6738Z" fill="#8E9AAC"/>
<path d="M77.8809 8.62793V9.80006H80.0058V16.3728H81.2271V16.2468V9.80006H83.3508V8.62793H77.8809Z" fill="#8E9AAC"/>
<path d="M90.3184 8.45703C89.1785 8.45703 88.2131 8.85058 87.4436 9.63042C86.6759 10.4084 86.2891 11.3747 86.2891 12.5015C86.2891 13.6283 86.6759 14.5946 87.4436 15.3726C88.2131 16.1525 89.1785 16.546 90.3184 16.546C91.4522 16.546 92.4175 16.1525 93.187 15.3726C93.9547 14.5946 94.3415 13.6283 94.3415 12.5015C94.3415 11.3812 93.9537 10.4204 93.1807 9.63673C92.4111 8.85042 91.446 8.45703 90.3184 8.45703ZM90.3184 9.62916C91.0987 9.62916 91.7512 9.89563 92.2858 10.4345C92.8239 10.9725 93.095 11.6554 93.095 12.5015C93.095 13.3476 92.824 14.0293 92.2858 14.5672C91.7512 15.1061 91.0987 15.3726 90.3184 15.3726C89.5316 15.3726 88.8863 15.1058 88.3447 14.566C87.8072 14.0282 87.5356 13.3472 87.5356 12.5015C87.5356 11.6558 87.807 10.9736 88.3447 10.4358C88.8863 9.8961 89.5316 9.62916 90.3184 9.62916Z" fill="#8E9AAC"/>
<path d="M95.459 8.62793V16.3728H95.5838H96.679V11.5772L96.6475 10.5172L100.344 16.3728H101.558V8.62793H100.332V13.1425L100.363 14.1987L96.8391 8.62793H95.459Z" fill="#8E9AAC"/>
<path d="M86.1718 27.1914C83.2013 27.1914 80.7746 29.4258 80.7746 32.5086C80.7746 35.5664 83.2013 37.8242 86.1718 37.8242C89.1486 37.8242 91.5753 35.5664 91.5753 32.5086C91.5753 29.4258 89.1486 27.1914 86.1718 27.1914ZM86.1718 35.7305C84.5419 35.7305 83.1396 34.4008 83.1396 32.5086C83.1396 30.5914 84.5419 29.2851 86.1718 29.2851C87.8017 29.2851 89.2102 30.5914 89.2102 32.5086C89.2102 34.4008 87.8017 35.7305 86.1718 35.7305ZM74.3957 27.1914C71.4189 27.1914 68.9985 29.4258 68.9985 32.5086C68.9985 35.5664 71.4189 37.8242 74.3957 37.8242C77.3709 37.8242 79.7928 35.5664 79.7928 32.5086C79.7928 29.4258 77.3709 27.1914 74.3957 27.1914ZM74.3957 35.7305C72.7642 35.7305 71.3572 34.4008 71.3572 32.5086C71.3572 30.5914 72.7642 29.2851 74.3957 29.2851C76.0256 29.2851 77.4278 30.5914 77.4278 32.5086C77.4278 34.4008 76.0256 35.7305 74.3957 35.7305ZM60.3827 28.8211V31.0804H65.8415C65.6817 32.343 65.2549 33.2711 64.6005 33.9179C63.8037 34.6992 62.5627 35.5664 60.3827 35.5664C57.0233 35.5664 54.3927 32.8867 54.3927 29.5664C54.3927 26.2461 57.0233 23.5664 60.3827 23.5664C62.1991 23.5664 63.5207 24.2679 64.4961 25.1773L66.1071 23.5851C64.7428 22.2976 62.9279 21.3086 60.3827 21.3086C55.7759 21.3086 51.9043 25.0133 51.9043 29.5664C51.9043 34.1195 55.7759 37.8242 60.3827 37.8242C62.8725 37.8242 64.7427 37.0179 66.213 35.5055C67.7196 34.0164 68.1891 31.9226 68.1891 30.232C68.1891 29.707 68.1462 29.2242 68.0656 28.8211H60.3827ZM117.684 30.5726C117.239 29.3836 115.869 27.1914 113.077 27.1914C110.31 27.1914 108.007 29.3461 108.007 32.5086C108.007 35.4867 110.287 37.8242 113.343 37.8242C115.814 37.8242 117.24 36.3352 117.826 35.468L115.992 34.2602C115.38 35.1445 114.547 35.7305 113.343 35.7305C112.146 35.7305 111.287 35.1883 110.737 34.1195L117.932 31.1773L117.684 30.5726ZM110.348 32.343C110.287 30.2929 111.959 29.2429 113.158 29.2429C114.097 29.2429 114.893 29.7069 115.159 30.3711L110.348 32.343ZM104.501 37.5008H106.866V21.8758H104.501V37.5008ZM100.627 28.3758H100.548C100.017 27.7539 99.0038 27.1914 97.7201 27.1914C95.0262 27.1914 92.5632 29.5289 92.5632 32.5258C92.5632 35.5055 95.0262 37.8242 97.7201 37.8242C99.0038 37.8242 100.017 37.257 100.548 36.6164H100.627V37.3789C100.627 39.4117 99.5287 40.5039 97.7566 40.5039C96.3116 40.5039 95.4153 39.4726 95.0453 38.6055L92.9886 39.4539C93.5814 40.8633 95.1512 42.5977 97.7566 42.5977C100.529 42.5977 102.869 40.9851 102.869 37.0617V27.5149H100.627V28.3758ZM97.9226 35.7305C96.2926 35.7305 94.9283 34.382 94.9283 32.5258C94.9283 30.6523 96.2926 29.2851 97.9226 29.2851C99.5287 29.2851 100.795 30.6523 100.795 32.5258C100.795 34.382 99.5287 35.7305 97.9226 35.7305ZM128.756 21.8758H123.1V37.5008H125.459V31.5805H128.756C131.376 31.5805 133.945 29.707 133.945 26.7273C133.945 23.7492 131.37 21.8758 128.756 21.8758ZM128.818 29.407H125.458V24.0492H128.818C130.579 24.0492 131.584 25.4945 131.584 26.7273C131.584 27.9367 130.579 29.407 128.818 29.407ZM143.398 27.1617C141.694 27.1617 139.922 27.9055 139.193 29.5539L141.286 30.4211C141.737 29.5539 142.565 29.2727 143.441 29.2727C144.665 29.2727 145.906 29.9992 145.925 31.282V31.446C145.498 31.2024 144.584 30.8413 143.46 30.8413C141.206 30.8413 138.909 32.0679 138.909 34.3569C138.909 36.4507 140.755 37.7992 142.831 37.7992C144.418 37.7992 145.294 37.0913 145.844 36.2679H145.925V37.4757H148.203V31.482C148.203 28.7117 146.11 27.1616 143.398 27.1616L143.398 27.1617ZM143.114 35.7242C142.342 35.7242 141.267 35.3461 141.267 34.4008C141.267 33.1914 142.608 32.7273 143.768 32.7273C144.807 32.7273 145.294 32.9538 145.925 33.2524C145.74 34.6992 144.48 35.7242 143.114 35.7242ZM156.502 27.5039L153.791 34.2773H153.71L150.908 27.5039H148.364L152.575 36.9695L150.172 42.2367H152.637L159.127 27.5039H156.502ZM135.241 37.5008H137.606V21.8758H135.241V37.5008Z" fill="#8E9AAC"/>
<path d="M13.1939 9.42168C12.8224 9.80606 12.6074 10.4045 12.6074 11.1795V38.8233C12.6074 39.5983 12.8224 40.1967 13.1939 40.5811L13.2856 40.6655L28.9586 25.1811V24.8154L13.2856 9.33105L13.1939 9.42168Z" fill="#8E9AAC"/>
<path d="M13.2796 40.868L29.1453 24.9852L13.2929 9.13086C12.8694 9.37769 12.6074 9.94921 12.6074 10.6973V39.3168C12.6131 40.0649 12.8656 40.5946 13.2796 40.868Z" fill="#8E9AAC"/>
<path d="M29.7175 24.5496L34.4434 19.818L15.1979 9.25346C14.8739 9.06496 14.5058 8.96539 14.1309 8.96484L29.7156 24.5477L29.7175 24.5496Z" fill="#8E9AAC"/>
<path d="M29.7161 25.4248L14.082 41.076C14.4744 41.0826 14.8609 40.98 15.1985 40.7798L34.4819 30.1868L29.7161 25.4248Z" fill="#8E9AAC"/>
<path d="M41.4157 23.6491L35.0113 20.127L30.1562 24.9877L35.0474 29.8788L41.4138 26.3662C42.7676 25.62 42.7676 24.3915 41.4157 23.6491H41.4157Z" fill="#8E9AAC"/>
</svg>
