<svg width="21" height="22" viewBox="0 0 21 22" fill="none" xmlns="http://www.w3.org/2000/svg">
<path d="M17.291 18.073H14.284V13.364C14.284 12.241 14.264 10.796 12.72 10.796C11.154 10.796 10.914 12.019 10.914 13.283V18.073H7.908V8.389H10.795V9.712H10.835C11.424 8.706 12.518 8.105 13.683 8.148C16.731 8.148 17.292 10.153 17.292 12.76L17.291 18.073ZM4.515 7.065C3.551 7.065 2.77 6.284 2.77 5.32C2.77 4.356 3.551 3.575 4.515 3.575C5.479 3.575 6.26 4.356 6.26 5.32C6.26 6.284 5.479 7.065 4.515 7.065ZM6.018 18.073H3.008V8.389H6.018V18.073ZM18.79 0.783001H1.497C0.68 0.774001 0.01 1.429 0 2.246V19.61C0.01 20.428 0.68 21.083 1.497 21.074H18.79C19.609 21.084 20.282 20.429 20.293 19.61V2.245C20.281 1.426 19.608 0.771001 18.79 0.782001" fill="#8E9AAC"/>
</svg>
