<svg width="24" height="24" viewBox="0 0 24 24" xmlns="http://www.w3.org/2000/svg">
<path d="M12.0001 15.75C7.0501 15.75 7.0501 8.25 12.0001 8.25C16.8938 8.25 17.1053 15.75 12.0001 15.75ZM12.0001 9.75C9.0001 9.75 9.0001 14.25 12.0001 14.25C15.0001 14.25 15.0001 9.75 12.0001 9.75Z" />
<path d="M11.9999 18.75C8.28812 18.75 4.73387 16.7782 2.24987 13.3395C1.96748 12.95 1.81543 12.4811 1.81543 12C1.81543 11.5189 1.96748 11.05 2.24987 10.6605C4.73387 7.22175 8.28812 5.25 11.9999 5.25C15.7116 5.25 19.2659 7.22175 21.7499 10.6605C22.0323 11.05 22.1843 11.5189 22.1843 12C22.1843 12.4811 22.0323 12.95 21.7499 13.3395C19.2659 16.7782 15.7116 18.75 11.9999 18.75ZM3.46262 12.4605C5.69612 15.549 8.72762 17.25 11.9999 17.25C15.2721 17.25 18.3036 15.549 20.5371 12.4605C20.6343 12.3265 20.6866 12.1652 20.6866 11.9996C20.6866 11.8341 20.6343 11.6728 20.5371 11.5388C18.3036 8.451 15.2721 6.75 11.9999 6.75C8.72762 6.75 5.69612 8.451 3.46262 11.5395C3.36546 11.6735 3.31315 11.8348 3.31315 12.0004C3.31315 12.1659 3.36546 12.3265 3.46262 12.4605Z" />
</svg>
