<svg width="24" height="18" viewBox="0 0 24 18" fill="none" xmlns="http://www.w3.org/2000/svg">
<path d="M23.498 3.186C23.222 2.147 22.409 1.328 21.376 1.05C19.505 0.546 12 0.546 12 0.546C12 0.546 4.495 0.546 2.623 1.05C1.591 1.328 0.778 2.146 0.502 3.186C0 5.07 0 9 0 9C0 9 0 12.93 0.502 14.814C0.778 15.853 1.591 16.672 2.624 16.95C4.495 17.454 12 17.454 12 17.454C12 17.454 19.505 17.454 21.377 16.95C22.409 16.672 23.222 15.854 23.499 14.814C24 12.93 24 9 24 9C24 9 24 5.07 23.498 3.186ZM9.546 12.569V5.431L15.818 9L9.546 12.569Z" fill="#8E9AAC"/>
</svg>
