<svg width="137" height="40" viewBox="0 0 137 40" fill="none" xmlns="http://www.w3.org/2000/svg">
    <path
        d="M131.53 0.801241C133.873 0.801241 135.779 2.685 135.779 4.99998V35C135.779 37.315 133.873 39.1988 131.53 39.1988H5.05885C2.71659 39.1988 0.810665 37.315 0.810665 35V4.99998C0.810665 2.685 2.71659 0.801241 5.05885 0.801241H131.53ZM131.53 0H5.05885C2.27772 0 0 2.25124 0 4.99998V35C0 37.7487 2.27772 40 5.05885 40H131.53C134.311 40 136.589 37.7487 136.589 35V4.99998C136.589 2.25124 134.311 0 131.53 0Z"
        fill="#6D788A"/>
    <path
        d="M44.991 6.76468C44.0942 6.76468 43.3182 7.0787 42.6891 7.69634C42.0578 8.31365 41.7393 9.08843 41.7393 10.0003C41.7393 10.9121 42.0573 11.6851 42.6881 12.3072V12.3083H42.6891C43.3183 12.9211 44.0939 13.2359 44.991 13.2359C45.9267 13.2359 46.7045 12.9271 47.2959 12.3173L47.297 12.3163C47.8144 11.7979 48.0764 11.098 48.0764 10.2433V10.1908L48.0703 10.1867C48.0678 10.0518 48.061 9.91384 48.029 9.76826L48.0108 9.68871H44.8902V10.6123H47.0489C46.9902 11.0447 46.8659 11.4082 46.6153 11.6569C46.1845 12.0826 45.6453 12.2971 44.991 12.2971C44.3777 12.2971 43.8546 12.0838 43.4019 11.6609L43.4009 11.6599C42.9569 11.2337 42.7354 10.6842 42.7354 9.99924C42.7354 9.31379 42.9569 8.77024 43.4019 8.34363C43.8544 7.91609 44.377 7.7074 44.991 7.7074C45.6758 7.7074 46.1928 7.92804 46.58 8.37993L46.6506 8.46261L47.3221 7.79311L47.2626 7.72253C47.0178 7.43061 46.682 7.19715 46.2755 7.0258C45.8685 6.85635 45.4397 6.76465 44.991 6.76465L44.991 6.76468Z"
        fill="#6D788A"/>
    <path
        d="M48.9951 6.90234V13.0983H52.7389V12.1606H49.9782V10.4626H52.4666V9.53901H49.9782V7.84005H52.7389V7.73922V6.90234H48.9951Z"
        fill="#6D788A"/>
    <path d="M53.3535 6.90234V7.84005H55.0474V13.0983H56.0305V12.9974V7.84005H57.7244V6.90234H53.3535Z" fill="#6D788A"/>
    <path d="M60.541 6.90234V13.0983H60.6408H61.5221V6.90234H60.541Z" fill="#6D788A"/>
    <path d="M62.3047 6.90234V7.84005H64.0047V13.0983H64.9817V12.9974V7.84005H66.6807V6.90234H62.3047Z" fill="#6D788A"/>
    <path
        d="M72.2518 6.76465C71.3399 6.76465 70.5676 7.07948 69.9519 7.70336C69.3378 8.32578 69.0283 9.0988 69.0283 10.0002C69.0283 10.9017 69.3378 11.6747 69.9519 12.2971C70.5676 12.921 71.3399 13.2358 72.2518 13.2358C73.1588 13.2358 73.931 12.921 74.5467 12.2971C75.1608 11.6747 75.4703 10.9017 75.4703 10.0002C75.4703 9.10397 75.1601 8.33536 74.5416 7.7084C73.926 7.07936 73.1539 6.76465 72.2518 6.76465ZM72.2518 7.70235C72.8761 7.70235 73.3981 7.91553 73.8257 8.34665C74.2562 8.77698 74.4731 9.32336 74.4731 10.0002C74.4731 10.6771 74.2563 11.2225 73.8257 11.6528C73.3981 12.0839 72.876 12.2971 72.2518 12.2971C71.6224 12.2971 71.1061 12.0836 70.6728 11.6518C70.2428 11.2216 70.0255 10.6768 70.0255 10.0002C70.0255 9.32368 70.2427 8.77789 70.6728 8.34766C71.1061 7.9159 71.6224 7.70235 72.2518 7.70235Z"
        fill="#6D788A"/>
    <path
        d="M76.3652 6.90234V13.0983H76.4651H77.3413V9.26173L77.3161 8.41377L80.2734 13.0983H81.2443V6.90234H80.2633V10.514L80.2885 11.359L77.4693 6.90234H76.3652Z"
        fill="#6D788A"/>
    <path
        d="M68.9374 21.7521C66.561 21.7521 64.6197 23.5396 64.6197 26.0059C64.6197 28.4522 66.561 30.2584 68.9374 30.2584C71.3189 30.2584 73.2602 28.4522 73.2602 26.0059C73.2602 23.5396 71.3189 21.7521 68.9374 21.7521ZM68.9374 28.5834C67.6335 28.5834 66.5117 27.5196 66.5117 26.0059C66.5117 24.4722 67.6335 23.4271 68.9374 23.4271C70.2413 23.4271 71.3682 24.4722 71.3682 26.0059C71.3682 27.5196 70.2413 28.5834 68.9374 28.5834ZM59.5165 21.7521C57.1351 21.7521 55.1988 23.5396 55.1988 26.0059C55.1988 28.4522 57.1351 30.2584 59.5165 30.2584C61.8967 30.2584 63.8343 28.4522 63.8343 26.0059C63.8343 23.5396 61.8967 21.7521 59.5165 21.7521ZM59.5165 28.5834C58.2113 28.5834 57.0858 27.5196 57.0858 26.0059C57.0858 24.4722 58.2113 23.4271 59.5165 23.4271C60.8205 23.4271 61.9423 24.4722 61.9423 26.0059C61.9423 27.5196 60.8205 28.5834 59.5165 28.5834ZM48.3061 23.0559V24.8634H52.6732C52.5454 25.8734 52.204 26.6159 51.6804 27.1334C51.043 27.7584 50.0501 28.4522 48.3061 28.4522C45.6186 28.4522 43.5141 26.3084 43.5141 23.6521C43.5141 20.9959 45.6186 18.8521 48.3061 18.8521C49.7593 18.8521 50.8166 19.4134 51.5969 20.1409L52.8856 18.8671C51.7942 17.8371 50.3423 17.0459 48.3061 17.0459C44.6208 17.0459 41.5234 20.0096 41.5234 23.6521C41.5234 27.2946 44.6208 30.2584 48.3061 30.2584C50.298 30.2584 51.7942 29.6134 52.9704 28.4034C54.1756 27.2121 54.5513 25.5371 54.5513 24.1846C54.5513 23.7646 54.5169 23.3784 54.4525 23.0559H48.3061ZM94.147 24.4571C93.7914 23.5059 92.6951 21.7521 90.4616 21.7521C88.2483 21.7521 86.4057 23.4759 86.4057 26.0059C86.4057 28.3884 88.2294 30.2584 90.6741 30.2584C92.6508 30.2584 93.7916 29.0672 94.2608 28.3734L92.7937 27.4071C92.3043 28.1147 91.6378 28.5834 90.6741 28.5834C89.7167 28.5834 89.0299 28.1496 88.5898 27.2946L94.3455 24.9409L94.147 24.4571ZM88.2787 25.8734C88.2295 24.2334 89.5675 23.3934 90.5261 23.3934C91.2773 23.3934 91.9148 23.7646 92.1272 24.2959L88.2787 25.8734ZM83.6005 29.9996H85.4925V17.4996H83.6005V29.9996ZM80.502 22.6996H80.4386C80.0137 22.2021 79.203 21.7521 78.1761 21.7521C76.021 21.7521 74.0506 23.6221 74.0506 26.0196C74.0506 28.4034 76.021 30.2584 78.1761 30.2584C79.203 30.2584 80.0137 29.8047 80.4386 29.2922H80.502V29.9021C80.502 31.5284 79.623 32.4021 78.2052 32.4021C77.0493 32.4021 76.3322 31.5771 76.0362 30.8834L74.3908 31.5621C74.8652 32.6896 76.121 34.0772 78.2052 34.0772C80.4236 34.0772 82.2953 32.7871 82.2953 29.6484V22.0109H80.502V22.6996ZM78.338 28.5834C77.0341 28.5834 75.9427 27.5047 75.9427 26.0196C75.9427 24.5209 77.0341 23.4271 78.338 23.4271C79.623 23.4271 80.636 24.5209 80.636 26.0196C80.636 27.5047 79.623 28.5834 78.338 28.5834ZM103.005 17.4996H98.4799V29.9996H100.367V25.2634H103.005C105.101 25.2634 107.156 23.7646 107.156 21.3809C107.156 18.9984 105.096 17.4996 103.005 17.4996ZM103.054 23.5247H100.367V19.2384H103.054C104.463 19.2384 105.268 20.3946 105.268 21.3809C105.268 22.3484 104.463 23.5247 103.054 23.5247ZM114.719 21.7284C113.355 21.7284 111.938 22.3234 111.355 23.6422L113.029 24.3359C113.39 23.6422 114.052 23.4172 114.753 23.4172C115.732 23.4172 116.725 23.9984 116.74 25.0246V25.1559C116.398 24.9609 115.667 24.6721 114.768 24.6721C112.965 24.6721 111.127 25.6534 111.127 27.4846C111.127 29.1596 112.604 30.2384 114.265 30.2384C115.534 30.2384 116.235 29.6721 116.675 29.0134H116.74V29.9796H118.562V25.1846C118.562 22.9684 116.888 21.7283 114.719 21.7283L114.719 21.7284ZM114.491 28.5784C113.874 28.5784 113.014 28.2759 113.014 27.5197C113.014 26.5522 114.086 26.1809 115.015 26.1809C115.845 26.1809 116.235 26.3621 116.74 26.6009C116.592 27.7584 115.584 28.5784 114.491 28.5784ZM125.202 22.0021L123.033 27.4209H122.968L120.726 22.0021H118.691L122.06 29.5746L120.138 33.7884H122.11L127.301 22.0021H125.202ZM108.193 29.9996H110.085V17.4996H108.193V29.9996Z"
        fill="#6D788A"/>
    <path
        d="M10.5571 7.53881C10.2599 7.84631 10.0879 8.32506 10.0879 8.94506V31.0601C10.0879 31.6801 10.2599 32.1588 10.5571 32.4663L10.6305 32.5338L23.1688 20.1463V19.8538L10.6305 7.46631L10.5571 7.53881Z"
        fill="#6D788A"/>
    <path
        d="M10.6256 32.6954L23.3182 19.9892L10.6362 7.30566C10.2975 7.50313 10.0879 7.96035 10.0879 8.55883V31.4544C10.0924 32.0529 10.2945 32.4767 10.6256 32.6954Z"
        fill="#6D788A"/>
    <path
        d="M23.774 19.6382L27.5547 15.8529L12.1584 7.4013C11.8991 7.2505 11.6046 7.17085 11.3047 7.17041L23.7725 19.6367L23.774 19.6382Z"
        fill="#6D788A"/>
    <path
        d="M23.7739 20.3413L11.2666 32.8623C11.5805 32.8675 11.8897 32.7855 12.1598 32.6253L27.5865 24.1509L23.7739 20.3413Z"
        fill="#6D788A"/>
    <path
        d="M33.1316 18.9193L28.0081 16.1016L24.124 19.9902L28.0369 23.903L33.1301 21.0929C34.2131 20.496 34.2131 19.5132 33.1316 18.9193H33.1316Z"
        fill="#6D788A"/>
</svg>
