<svg width="117" height="40" viewBox="0 0 117 40" fill="none" xmlns="http://www.w3.org/2000/svg">
    <path
        d="M112.667 0.801241C114.673 0.801241 116.306 2.685 116.306 4.99998V35C116.306 37.315 114.673 39.1988 112.667 39.1988H4.33333C2.32698 39.1988 0.694402 37.315 0.694402 35V4.99998C0.694402 2.685 2.32698 0.801241 4.33333 0.801241H112.667ZM112.667 0H4.33333C1.95106 0 0 2.25124 0 4.99998V35C0 37.7487 1.95106 40 4.33333 40H112.667C115.049 40 117 37.7487 117 35V4.99998C117 2.25124 115.049 0 112.667 0Z"
        fill="#6D788A"/>
    <path
        d="M28.2664 19.96C28.2425 17.3563 30.4381 16.0896 30.5385 16.0307C29.2951 14.251 27.3678 14.0078 26.6905 13.9884C25.0718 13.8212 23.5016 14.9393 22.6771 14.9393C21.836 14.9393 20.5662 14.0046 19.1977 14.0321C17.4366 14.0587 15.7891 15.0596 14.8856 16.6139C13.0208 19.7831 14.4115 24.4403 16.1981 27.002C17.0918 28.2574 18.1361 29.6574 19.503 29.6081C20.8403 29.5548 21.3398 28.772 22.9536 28.772C24.5525 28.772 25.0216 29.6081 26.4156 29.5766C27.8508 29.5548 28.7544 28.3164 29.6168 27.0505C30.6496 25.6133 31.0644 24.1964 31.0808 24.1237C31.0479 24.1123 28.2944 23.0799 28.2664 19.96ZM25.633 12.3033C26.3523 11.4203 26.8444 10.219 26.7078 9C25.6668 9.04524 24.3649 9.70686 23.6152 10.5704C22.9519 11.3314 22.3594 12.5787 22.5125 13.7517C23.6819 13.8374 24.8825 13.1725 25.633 12.3033Z"
        fill="#6D788A"/>
    <path
        d="M47.6353 29.4285H45.7664L44.7427 26.2706H41.1843L40.2091 29.4285H38.3896L41.9159 18.6777H44.0934L47.6353 29.4285ZM44.4341 24.9458L43.5083 22.1385C43.4103 21.8517 43.226 21.1764 42.9561 20.1132H42.9232C42.8145 20.5705 42.6409 21.2458 42.4031 22.1385L41.4929 24.9458H44.4341ZM56.6859 25.4571C56.6859 26.7755 56.3213 27.8176 55.5914 28.5827C54.938 29.2637 54.1257 29.6038 53.1571 29.6038C52.1112 29.6038 51.359 29.2378 50.9023 28.5043V32.5718H49.1478V24.2244C49.1478 23.3963 49.1256 22.5473 49.0828 21.6764H50.6258L50.7237 22.9051H50.7566C51.3417 21.9794 52.2297 21.5165 53.4213 21.5165C54.3529 21.5165 55.1305 21.8776 55.7527 22.6006C56.374 23.3252 56.6859 24.2769 56.6859 25.4571ZM54.8985 25.5201C54.8985 24.7656 54.7256 24.1436 54.3784 23.6532C53.999 23.1435 53.4896 22.8882 52.851 22.8882C52.4181 22.8882 52.0248 23.0304 51.6734 23.3107C51.3212 23.5934 51.0908 23.9626 50.983 24.4199C50.9348 24.5909 50.9075 24.7668 50.9015 24.9441V26.2375C50.9015 26.8006 51.0776 27.2764 51.4298 27.6658C51.782 28.0535 52.2396 28.2482 52.8025 28.2482C53.4633 28.2482 53.9776 27.997 54.3454 27.4985C54.7141 26.9985 54.8985 26.3393 54.8985 25.5201ZM65.7685 25.4571C65.7685 26.7755 65.404 27.8176 64.674 28.5827C64.0198 29.2637 63.2084 29.6038 62.239 29.6038C61.1931 29.6038 60.4409 29.2378 59.9842 28.5043V32.5718H58.2297V24.2244C58.2297 23.3963 58.2075 22.5473 58.1647 21.6764H59.7077L59.8056 22.9051H59.8385C60.4228 21.9794 61.3107 21.5165 62.5032 21.5165C63.4339 21.5165 64.2116 21.8776 64.8353 22.6006C65.4558 23.3252 65.7685 24.2769 65.7685 25.4571ZM63.9803 25.5201C63.9803 24.7656 63.8067 24.1436 63.4594 23.6532C63.08 23.1435 62.5723 22.8882 61.9337 22.8882C61.5008 22.8882 61.1075 23.0304 60.7544 23.3107C60.4022 23.5934 60.1726 23.9626 60.0648 24.4199C60.0113 24.6331 59.9825 24.8068 59.9825 24.9441V26.2375C59.9825 26.8006 60.1594 27.2764 60.51 27.6658C60.8622 28.0527 61.3198 28.2482 61.8843 28.2482C62.5459 28.2482 63.0603 27.997 63.4273 27.4985C63.796 26.9985 63.9803 26.3393 63.9803 25.5201ZM75.9235 26.4128C75.9235 27.3281 75.5976 28.0721 74.95 28.6465C74.2373 29.2734 73.2424 29.5876 71.9669 29.5876C70.7884 29.5876 69.8437 29.3647 69.131 28.9179L69.5367 27.4824C70.3062 27.9299 71.1513 28.1529 72.0714 28.1529C72.733 28.1529 73.2473 28.0059 73.6144 27.7142C73.9822 27.4218 74.1682 27.0308 74.1682 26.5429C74.1682 26.1058 74.0143 25.7399 73.7123 25.4418C73.4086 25.1445 72.9066 24.8674 72.2014 24.6129C70.284 23.9109 69.3244 22.8841 69.3244 21.5334C69.3244 20.6513 69.6635 19.929 70.3399 19.3644C71.0164 18.8005 71.9134 18.5186 73.0293 18.5186C74.0258 18.5186 74.8562 18.689 75.5153 19.0291L75.0751 20.4331C74.4546 20.1035 73.7543 19.9387 72.9708 19.9387C72.352 19.9387 71.8665 20.0882 71.5192 20.3855C71.227 20.6513 71.0789 20.9752 71.0789 21.3597C71.0789 21.7839 71.2476 22.1361 71.5834 22.4124C71.8747 22.6668 72.4063 22.9439 73.1749 23.2412C74.118 23.6144 74.8109 24.0491 75.2545 24.5483C75.7013 25.0475 75.9235 25.6704 75.9235 26.4128ZM81.7392 22.969H79.8053V26.7327C79.8053 27.69 80.146 28.1674 80.829 28.1674C81.1425 28.1674 81.4026 28.1416 81.6083 28.0875L81.6569 29.3954C81.3112 29.5222 80.8561 29.586 80.2924 29.586C79.5995 29.586 79.058 29.3784 78.6672 28.9632C78.2779 28.5479 78.0821 27.8524 78.0821 26.8733V22.9657H76.9299V21.6732H78.0821V20.2538L79.8053 19.7432V21.6732H81.7392V22.969ZM90.4474 25.4886C90.4474 26.6802 90.1001 27.6585 89.4072 28.4235C88.6822 29.2112 87.7177 29.6038 86.5154 29.6038C85.3551 29.6038 84.4326 29.2265 83.7446 28.4728C83.0567 27.7175 82.7127 26.7658 82.7127 25.6179C82.7127 24.4166 83.0682 23.4327 83.7767 22.6676C84.4869 21.9018 85.4432 21.5189 86.6455 21.5189C87.8041 21.5189 88.7349 21.897 89.4393 22.6515C90.1125 23.3834 90.4474 24.3286 90.4474 25.4886ZM88.6287 25.5282C88.6287 24.8181 88.4724 24.209 88.1588 23.6993C87.791 23.0837 87.2643 22.7759 86.5821 22.7759C85.8793 22.7759 85.3403 23.0837 84.9733 23.6993C84.6589 24.209 84.5025 24.8286 84.5025 25.5605C84.5025 26.2714 84.6589 26.8822 84.9733 27.3903C85.3526 28.0059 85.8818 28.3137 86.5673 28.3137C87.238 28.3137 87.7638 27.9994 88.144 27.3749C88.4666 26.8531 88.6287 26.2399 88.6287 25.5282ZM96.1528 23.1911C95.9703 23.1588 95.7852 23.1428 95.5998 23.1435C94.9826 23.1435 94.5053 23.3713 94.1695 23.8301C93.8782 24.2341 93.7317 24.7446 93.7317 25.361V29.4285H91.9772V24.1177C91.9788 23.304 91.9618 22.4902 91.9262 21.6772H93.4544L93.5186 23.1604H93.5671C93.7531 22.6507 94.0444 22.2395 94.4444 21.9317C94.8105 21.6627 95.2553 21.5171 95.7125 21.5165C95.8746 21.5165 96.0211 21.5278 96.1511 21.548L96.1528 23.1911ZM103.999 25.1857C104.004 25.4475 103.982 25.7091 103.935 25.9669H98.6718C98.6915 26.7327 98.9466 27.3192 99.4354 27.7231C99.879 28.0834 100.453 28.2644 101.157 28.2644C101.936 28.2644 102.647 28.1432 103.287 27.8984L103.562 29.0932C102.814 29.4131 101.932 29.5723 100.914 29.5723C99.6897 29.5723 98.7286 29.2184 98.0291 28.5124C97.3312 27.8055 96.9815 26.8555 96.9815 25.6656C96.9815 24.4974 97.3065 23.524 97.9575 22.7476C98.6389 21.9188 99.5597 21.5043 100.718 21.5043C101.857 21.5043 102.718 21.9188 103.303 22.7476C103.767 23.4044 103.999 24.2187 103.999 25.1857ZM102.326 24.739C102.339 24.2276 102.224 23.7873 101.986 23.4149C101.682 22.935 101.215 22.6959 100.588 22.6959C100.015 22.6959 99.5474 22.9294 99.1919 23.3979C98.8997 23.7703 98.7261 24.2179 98.6726 24.7373L102.326 24.739Z"
        fill="#6D788A"/>
    <path
        d="M40.6785 14.8758C40.1905 14.8758 39.7684 14.8524 39.417 14.8128V9.61514C39.9085 9.54061 40.4051 9.50388 40.9024 9.50527C42.9144 9.50527 43.8411 10.4771 43.8411 12.0613C43.8411 13.8886 42.7466 14.8758 40.6785 14.8758ZM40.9732 10.1717C40.7016 10.1717 40.4703 10.1879 40.2786 10.2267V14.1778C40.3823 14.194 40.5814 14.2013 40.8612 14.2013C42.1796 14.2013 42.9301 13.4645 42.9301 12.0847C42.9301 10.8544 42.2512 10.1717 40.9732 10.1717ZM46.7287 14.9154C45.5947 14.9154 44.8599 14.0841 44.8599 12.9556C44.8599 11.7794 45.6104 10.9408 46.7929 10.9408C47.9105 10.9408 48.6618 11.7325 48.6618 12.8934C48.6618 14.0841 47.8874 14.9154 46.7287 14.9154ZM46.7616 11.5596C46.1387 11.5596 45.7396 12.1316 45.7396 12.9313C45.7396 13.7158 46.1469 14.2877 46.7534 14.2877C47.3599 14.2877 47.7673 13.6762 47.7673 12.9152C47.7673 12.1397 47.3681 11.5596 46.7616 11.5596ZM55.1284 11.0192L53.9146 14.829H53.1237L52.6209 13.1745C52.4959 12.7698 52.3918 12.3592 52.309 11.9442H52.2926C52.2292 12.3594 52.109 12.7754 51.9815 13.1745L51.4466 14.829H50.6475L49.5053 11.0192H50.3916L50.831 12.8304C50.9347 13.2617 51.022 13.6689 51.0944 14.0534H51.1108C51.1742 13.7327 51.2779 13.332 51.4301 12.8384L51.9815 11.02H52.6843L53.2118 12.7997C53.3393 13.231 53.443 13.6544 53.5237 14.0542H53.5467C53.6027 13.6624 53.6907 13.2464 53.81 12.7997L54.2816 11.02L55.1284 11.0192ZM59.5969 14.829H58.7345V12.6413C58.7345 11.9676 58.4711 11.6299 57.9518 11.6299C57.4408 11.6299 57.0894 12.0613 57.0894 12.563V14.829H56.227V12.1081C56.227 11.7713 56.2188 11.4102 56.1949 11.0184H56.9536L56.994 11.6065H57.0178C57.2499 11.1993 57.7206 10.9408 58.2481 10.9408C59.0628 10.9408 59.5977 11.5523 59.5977 12.5476L59.5969 14.829ZM61.9752 14.829H61.1119V9.271H61.9752V14.829ZM65.1196 14.9154C63.9864 14.9154 63.2507 14.0841 63.2507 12.9556C63.2507 11.7794 64.0012 10.9408 65.1829 10.9408C66.3013 10.9408 67.0518 11.7325 67.0518 12.8934C67.0526 14.0841 66.2774 14.9154 65.1196 14.9154ZM65.1517 11.5596C64.5287 11.5596 64.1296 12.1316 64.1296 12.9313C64.1296 13.7158 64.5378 14.2877 65.1426 14.2877C65.7499 14.2877 66.1565 13.6762 66.1565 12.9152C66.1573 12.1397 65.759 11.5596 65.1517 11.5596ZM70.4522 14.829L70.3896 14.3903H70.3666C70.1032 14.7433 69.7189 14.9154 69.2318 14.9154C68.5364 14.9154 68.0426 14.4372 68.0426 13.7941C68.0426 12.8538 68.873 12.3675 70.3106 12.3675V12.2972C70.3106 11.7955 70.0399 11.5443 69.505 11.5443C69.1223 11.5443 68.7866 11.6388 68.4911 11.827L68.3158 11.2704C68.6746 11.0507 69.1223 10.9408 69.6482 10.9408C70.662 10.9408 71.1739 11.4659 71.1739 12.5169V13.9201C71.1739 14.3047 71.1912 14.6028 71.2298 14.8298L70.4522 14.829ZM70.3337 12.9313C69.3758 12.9313 68.8952 13.1591 68.8952 13.6996C68.8952 14.0995 69.1429 14.295 69.4869 14.295C69.9255 14.295 70.3337 13.9662 70.3337 13.5194V12.9313ZM75.3618 14.829L75.3214 14.2174H75.2976C75.0499 14.6795 74.6335 14.9154 74.0517 14.9154C73.116 14.9154 72.4231 14.1076 72.4231 12.9709C72.4231 11.7794 73.1415 10.94 74.1224 10.94C74.6417 10.94 75.0096 11.1121 75.2169 11.4578H75.2342V9.271H76.0975V13.8022C76.0975 14.1706 76.1065 14.5155 76.1296 14.829H75.3618ZM75.2342 12.5872C75.2342 12.054 74.8746 11.5992 74.3257 11.5992C73.6863 11.5992 73.2954 12.1558 73.2954 12.9394C73.2954 13.7077 73.7011 14.2336 74.3084 14.2336C74.8507 14.2336 75.2342 13.7707 75.2342 13.2222V12.5872ZM81.5708 14.9154C80.4376 14.9154 79.7027 14.0841 79.7027 12.9556C79.7027 11.7794 80.4532 10.9408 81.635 10.9408C82.7533 10.9408 83.5038 11.7325 83.5038 12.8934C83.5047 14.0841 82.7303 14.9154 81.5708 14.9154ZM81.6029 11.5596C80.9807 11.5596 80.5816 12.1316 80.5816 12.9313C80.5816 13.7158 80.989 14.2877 81.5946 14.2877C82.202 14.2877 82.6085 13.6762 82.6085 12.9152C82.6101 12.1397 82.211 11.5596 81.6029 11.5596ZM88.1419 14.829H87.2786V12.6413C87.2786 11.9676 87.0153 11.6299 86.496 11.6299C85.985 11.6299 85.6344 12.0613 85.6344 12.563V14.829H84.7712V12.1081C84.7712 11.7713 84.7629 11.4102 84.7391 11.0184H85.4978L85.5381 11.6065H85.562C85.7932 11.1993 86.2648 10.94 86.7914 10.94C87.6061 10.94 88.1419 11.5515 88.1419 12.5468V14.829ZM93.9444 11.6541H92.9955V13.5041C92.9955 13.9751 93.1617 14.2102 93.4975 14.2102C93.6497 14.2102 93.7773 14.194 93.8802 14.1706L93.904 14.8136C93.737 14.8766 93.5131 14.9081 93.235 14.9081C92.5552 14.9081 92.1487 14.5398 92.1487 13.5752V11.6541H91.5825V11.0192H92.1487V10.3212L92.9955 10.07V11.0184H93.9444V11.6541ZM98.51 14.829H97.6484V12.6575C97.6484 11.9757 97.3859 11.6307 96.8658 11.6307C96.4189 11.6307 96.0025 11.9288 96.0025 12.5323V14.829H95.1409V9.271H96.0025V11.5596H96.0198C96.2914 11.1444 96.6847 10.94 97.1867 10.94C98.008 10.94 98.51 11.5669 98.51 12.563V14.829ZM103.188 13.1276H100.599C100.616 13.849 101.102 14.2562 101.822 14.2562C102.205 14.2562 102.557 14.1932 102.868 14.0761L103.002 14.6642C102.635 14.8209 102.203 14.8992 101.7 14.8992C100.487 14.8992 99.7682 14.1463 99.7682 12.979C99.7682 11.8109 100.504 10.9327 101.603 10.9327C102.595 10.9327 103.217 11.6541 103.217 12.7439C103.223 12.8725 103.213 13.0013 103.188 13.1276ZM102.397 12.5242C102.397 11.9361 102.095 11.5208 101.543 11.5208C101.048 11.5208 100.656 11.9442 100.6 12.5242H102.397Z"
        fill="#6D788A"/>
</svg>
