<svg width="15" height="15" viewBox="0 0 15 15" fill="none" xmlns="http://www.w3.org/2000/svg">
<path d="M14.6802 3.9273L5.98833 12.6192C5.78318 12.8238 5.50521 12.9388 5.21542 12.9388C4.92562 12.9388 4.64765 12.8238 4.44251 12.6192L0.319468 8.49624C0.115636 8.29101 0.00146055 8.01335 0.00195472 7.7241C0.00244889 7.43485 0.117573 7.15758 0.322105 6.95305C0.526637 6.74852 0.8039 6.6334 1.09315 6.6329C1.3824 6.63241 1.66006 6.74658 1.86529 6.95042L4.99068 10.0759C5.05029 10.1355 5.13112 10.169 5.21542 10.169C5.29971 10.169 5.38055 10.1355 5.44015 10.0759L13.1344 2.38148C13.3397 2.17765 13.6173 2.06347 13.9066 2.06397C14.1958 2.06446 14.4731 2.17958 14.6776 2.38412C14.8821 2.58865 14.9973 2.86591 14.9978 3.15516C14.9982 3.44442 14.8841 3.72207 14.6802 3.9273Z" fill="#3498DB"/>
</svg>
