<svg width="16" height="16" viewBox="0 0 16 16" fill="none" xmlns="http://www.w3.org/2000/svg">
<g clip-path="url(#clip0_18186_31709)">
<path d="M11.0333 6.95667L7.13467 4.82133C6.76 4.61067 6.316 4.61533 5.946 4.83067C5.57533 5.04733 5.354 5.43333 5.354 5.86267V10.1367C5.354 10.566 5.57533 10.952 5.946 11.1687C6.13467 11.2787 6.34267 11.334 6.54933 11.334C6.75 11.334 6.94933 11.2827 7.13133 11.1807L11.036 9.042C11.4173 8.82733 11.6453 8.438 11.6453 8.00067C11.6453 7.56333 11.4173 7.17333 11.0327 6.95733L11.0333 6.95667ZM10.7133 8.45867L6.80867 10.5973C6.64267 10.69 6.44667 10.6887 6.28333 10.5933C6.11933 10.4973 6.02133 10.3267 6.02133 10.1367V5.86267C6.02133 5.67267 6.11867 5.502 6.28333 5.406C6.366 5.358 6.45733 5.33333 6.54867 5.33333C6.638 5.33333 6.72867 5.35667 6.812 5.40333L10.7107 7.53867C10.8793 7.63333 10.98 7.80533 10.98 7.99867C10.98 8.192 10.8793 8.364 10.714 8.45733L10.7133 8.45867ZM8 0C3.58867 0 0 3.58867 0 8C0 12.4113 3.58867 16 8 16C12.4113 16 16 12.4113 16 8C16 3.58867 12.4113 0 8 0ZM8 15.3333C3.95667 15.3333 0.666667 12.0433 0.666667 8C0.666667 3.95667 3.95667 0.666667 8 0.666667C12.0433 0.666667 15.3333 3.95667 15.3333 8C15.3333 12.0433 12.0433 15.3333 8 15.3333Z" fill="#8E9AAC"/>
</g>
<defs>
<clipPath id="clip0_18186_31709">
<rect width="16" height="16" fill="white"/>
</clipPath>
</defs>
</svg>
