<svg width="67" height="41" viewBox="0 0 67 41" fill="none" xmlns="http://www.w3.org/2000/svg">
<g clip-path="url(#clip0_821_687)">
<path d="M56.1464 16.0425C57.3172 17.2136 57.9718 18.8004 57.9718 20.4543C57.9718 22.1083 57.3172 23.695 56.1464 24.862C54.9798 26.0332 53.3935 26.688 51.7401 26.688H47.1744V23.7076H51.7905C52.6843 23.758 53.5614 23.439 54.216 22.8219C54.8665 22.2048 55.2358 21.3443 55.2358 20.4501C55.2358 19.5518 54.8665 18.6955 54.216 18.0784C53.5614 17.4613 52.6843 17.1381 51.7905 17.1885H46.6078V26.688H43.6577V14.2164H51.7401C53.3935 14.2164 54.9798 14.8755 56.1464 16.0425Z" fill="#E50012"/>
<path d="M28.4202 14.2164V18.3932C28.4202 18.5066 28.4412 18.6157 28.4832 18.7207C28.5251 18.8256 28.5881 18.9179 28.6636 18.9977C28.7433 19.0775 28.8399 19.1404 28.9406 19.1866C29.0455 19.2286 29.1546 19.2496 29.2679 19.2496H31.4417V21.9404H28.735C28.3027 21.9404 27.8789 21.8564 27.4802 21.6927C27.0857 21.529 26.7249 21.2897 26.4185 20.9875C26.1164 20.6852 25.873 20.3242 25.7093 19.9254C25.5456 19.5308 25.4575 19.1027 25.4575 18.6745V14.2164H28.4202Z" fill="#E50012"/>
<path d="M41.5552 14.2164V18.6745C41.5552 19.1027 41.4712 19.5266 41.3076 19.9254C41.1439 20.32 40.9005 20.681 40.5984 20.9833C40.2962 21.2855 39.9353 21.529 39.5409 21.6927C39.1464 21.8564 38.7184 21.9404 38.2903 21.9404H34.9877V26.688H32.0376V19.2496H37.7448C37.8581 19.2496 37.9714 19.2286 38.0763 19.1866C38.177 19.1446 38.2735 19.0775 38.3533 18.9977C38.433 18.9179 38.496 18.8256 38.5379 18.7207C38.5841 18.6157 38.6051 18.5066 38.6051 18.3932V14.2164H41.5552Z" fill="#E50012"/>
<path fill-rule="evenodd" clip-rule="evenodd" d="M23.6698 18.0574C23.6698 18.2729 23.6516 18.4856 23.6153 18.6955C23.5817 18.9054 23.5299 19.111 23.46 19.3125C23.3901 19.5168 23.3047 19.7127 23.204 19.9002C23.1005 20.0877 22.983 20.2654 22.8515 20.4333C23.2963 21.0042 23.5733 21.6843 23.6488 22.4021C23.7244 23.1241 23.5985 23.8461 23.2796 24.4968C22.9648 25.1475 22.4738 25.6932 21.8612 26.0794C21.2527 26.4614 20.5435 26.6671 19.8217 26.6713H12.8891V23.7202L19.6916 23.6866C19.9602 23.6866 20.2161 23.5817 20.405 23.3928C20.5938 23.2039 20.6987 22.9436 20.6987 22.6792C20.6987 22.4105 20.5938 22.1544 20.405 21.9613C20.2161 21.7724 19.9602 21.6675 19.6916 21.6381H12.2932V26.688H9.33472V14.2164H19.8217C20.3294 14.2164 20.833 14.3172 21.303 14.5103C21.773 14.7034 22.1969 14.9846 22.5578 15.3456C22.9187 15.7024 23.204 16.1306 23.3971 16.6008C23.5901 17.0667 23.6908 17.5705 23.6908 18.0784M19.6916 19.2202C19.9602 19.2202 20.2161 19.1152 20.405 18.9263C20.5938 18.7374 20.6987 18.4772 20.6987 18.2085C20.6987 17.9441 20.5938 17.6838 20.405 17.4949C20.2161 17.306 19.9602 17.2011 19.6916 17.1675H12.2932V19.2328H19.6286L19.6916 19.2202Z" fill="#E50012"/>
<path fill-rule="evenodd" clip-rule="evenodd" d="M33.0615 40.0621C14.9958 40.0621 0.39209 31.2972 0.39209 20.4543C0.39209 9.61141 14.9958 0.846436 33.0615 0.846436C51.1315 0.846436 65.7352 9.61141 65.7352 20.4543C65.7352 31.2972 51.1315 40.0621 33.0615 40.0621ZM63.6621 20.4795C63.6621 11.2989 49.9859 3.87723 33.0615 3.87723C16.1414 3.87723 2.46514 11.2989 2.46514 20.4795C2.46514 29.66 16.1414 37.0817 33.0615 37.0817C49.9859 37.0817 63.6621 29.66 63.6621 20.4795Z" fill="#E50012"/>
</g>
<defs>
<clipPath id="clip0_821_687">
<rect width="66.1272" height="40" fill="white" transform="translate(0 0.454224)"/>
</clipPath>
</defs>
</svg>
