<svg width="160" height="27" viewBox="0 0 160 27" fill="none" xmlns="http://www.w3.org/2000/svg">
<path d="M32.085 1.16862V6.05574H5.52457C5.20584 6.05574 5.20584 6.05574 5.20584 6.37446V20.1859C5.20584 20.5046 5.20584 20.5046 5.52457 20.5046H26.7729C27.0916 20.5046 27.0916 20.5046 27.0916 20.1859V15.6175H10.4117V11.1553C10.4117 10.9429 10.5179 10.8366 10.7304 10.8366H32.085C32.2975 10.8366 32.4037 10.8366 32.4037 11.1553V25.2855H4.24967C2.23108 25.2855 0.63745 23.9043 0.212483 21.992C0 21.7795 0 21.4608 0 21.2483V5.2058C0 3.08097 1.59363 1.3811 3.71846 1.16862H32.085ZM102.311 5.9495H77.5564V10.5179C77.5564 10.8366 77.5564 10.8366 77.8752 10.8366H101.461C101.886 10.8366 101.886 10.8366 101.886 11.2616V15.6175H77.4502V20.1859C77.4502 20.5046 77.4502 20.5046 77.7689 20.5046H102.311V25.2855H76.2815C74.2629 25.2855 72.6693 23.9043 72.3506 21.8857V1.06238H102.205C102.311 2.76225 102.311 4.35587 102.311 5.9495ZM37.2908 1.16862H67.1448V5.9495H42.7092C42.2842 5.9495 42.3904 5.9495 42.3904 6.26822V10.4116C42.3904 10.7304 42.3904 10.7304 42.7092 10.7304H66.6135C66.7198 10.7304 66.826 10.7304 66.826 10.9429V15.6175H42.8154C42.3904 15.6175 42.3904 15.5112 42.3904 16.0425V20.0796C42.3904 20.3984 42.3904 20.3984 42.7092 20.3984H66.826C67.251 20.3984 67.251 20.2921 67.251 20.8233V25.1792H41.1155C39.0969 25.1792 37.5033 23.6919 37.2908 21.7795V1.16862ZM124.303 1.16862H130.89C131.102 1.16862 131.208 1.16862 131.315 1.3811C134.821 4.88708 138.327 8.4993 141.939 12.0053C142.045 12.1115 142.045 12.2178 142.151 12.324L142.364 12.1115L152.882 1.59359C152.988 1.48734 153.201 1.3811 153.413 1.3811H159.894C159.788 1.48734 159.788 1.59359 159.681 1.59359L149.482 11.7928L144.807 16.4674C144.701 16.5737 144.595 16.6799 144.595 16.8924V25.073C144.595 25.3917 144.595 25.3917 144.276 25.3917H139.495V16.7861C139.495 16.5737 139.389 16.4674 139.283 16.3612C134.29 11.3678 129.296 6.4807 124.409 1.48734C124.409 1.27486 124.303 1.27486 124.303 1.16862ZM134.396 20.5046V25.2855H111.66C109.641 25.2855 107.835 23.6919 107.623 21.7795C107.517 21.4608 107.517 21.0358 107.517 20.6108V1.06238H112.616V20.0796C112.616 20.3984 112.616 20.3984 112.935 20.3984H134.077C134.183 20.5046 134.29 20.5046 134.396 20.5046Z" fill="#5A666E"/>
</svg>
