<svg width="40" height="41" viewBox="0 0 40 41" fill="none" xmlns="http://www.w3.org/2000/svg">
<g clip-path="url(#clip0_821_696)">
<path d="M35.8308 4.6336C32.057 0.87438 26.6309 0.454224 20 0.454224C13.3608 0.454224 7.92641 0.879224 4.15422 4.6486C0.382578 8.41641 0 13.842 0 20.4737C0 27.1064 0.382578 32.5337 4.15578 36.3028C7.92773 40.0727 13.3615 40.4543 20 40.4543C26.6386 40.4543 32.0714 40.0727 35.8434 36.3028C39.6163 32.533 40 27.1064 40 20.4737C40 13.8335 39.6122 8.40204 35.8308 4.6336Z" fill="#FF6900"/>
<path d="M31.6057 12.8452C31.7431 12.8452 31.8575 12.9559 31.8575 13.0922V27.8879C31.8575 28.0219 31.7431 28.1332 31.6057 28.1332H28.3638C28.2246 28.1332 28.1116 28.0219 28.1116 27.8879V13.0922C28.1116 12.956 28.2246 12.8452 28.3638 12.8452H31.6057ZM17.5371 12.8452C19.9826 12.8452 22.5396 12.9573 23.8008 14.2194C25.0407 15.4613 25.175 17.9341 25.1802 20.3354V27.8879C25.1802 28.0219 25.0672 28.1331 24.9287 28.1331H21.6873C21.5485 28.1331 21.435 28.0219 21.435 27.8879V20.2055C21.4316 18.8644 21.3545 17.486 20.6629 16.7921C20.0675 16.1951 18.9567 16.0584 17.8015 16.0301H11.9257C11.7879 16.0301 11.6751 16.1409 11.6751 16.2751V27.8879C11.6751 28.0219 11.5609 28.1332 11.4222 28.1332H8.17879C8.0402 28.1332 7.92871 28.0219 7.92871 27.8879V13.0922C7.92871 12.956 8.04012 12.8452 8.17879 12.8452H17.5371ZM18.2626 18.7379C18.4006 18.7379 18.5127 18.8483 18.5127 18.9835V27.8879C18.5127 28.0219 18.4005 28.1332 18.2626 28.1332H14.8576C14.7176 28.1332 14.6054 28.0219 14.6054 27.8879V18.9835C14.6054 18.8483 14.7176 18.7379 14.8576 18.7379H18.2626Z" fill="white"/>
</g>
<defs>
<clipPath id="clip0_821_696">
<rect width="40" height="40" fill="white" transform="translate(0 0.454224)"/>
</clipPath>
</defs>
</svg>
