<svg width="120" height="41" viewBox="0 0 120 41" fill="none" xmlns="http://www.w3.org/2000/svg">
<g clip-path="url(#clip0_821_704)">
<path d="M0 0.454163V40.4541H119.996V0.454163H0Z" fill="#E42022"/>
<mask id="mask0_821_704" style="mask-type:luminance" maskUnits="userSpaceOnUse" x="-1" y="0" width="121" height="41">
<path d="M-0.00415039 0.454163V40.4541H119.996V0.454163H-0.00415039Z" fill="white"/>
</mask>
<g mask="url(#mask0_821_704)">
<path d="M52.2739 13.935C50.502 13.935 48.4862 14.7567 47.2539 16.4014L47.2551 16.3985L47.2539 16.3997L47.2551 14.193H43.0273V29.5883H47.2539V20.8288C47.2539 19.2519 48.4762 17.576 50.7394 17.576C52.4889 17.576 54.2985 18.7924 54.2985 20.8288V29.5883H58.5263V20.0448C58.5263 16.5045 55.9933 13.935 52.2739 13.935Z" fill="white"/>
<path d="M88.5719 14.194L84.7501 24.6812L80.9282 14.194H76.0996L82.4338 29.5834H87.0657L93.4005 14.194H88.5719Z" fill="white"/>
<path d="M30.4067 18.8319C31.1265 17.8653 32.2734 17.298 33.6583 17.298C35.1822 17.298 36.338 18.1681 36.9347 19.4516L29.5496 22.516C29.3475 20.9438 29.7499 19.7138 30.4067 18.8319ZM38.5287 24.8552C36.7491 26.1717 35.7324 26.4863 34.1101 26.4863C32.6498 26.4863 31.507 26.0333 30.7006 25.238L41.5082 20.7541C41.2726 19.0835 40.6388 17.5914 39.6627 16.4562C38.2424 14.8069 36.1406 13.9344 33.5823 13.9344C28.9334 13.9344 25.4285 17.364 25.4285 21.8927C25.4285 26.5393 28.9417 29.8504 34.0477 29.8504C36.9082 29.8504 39.8335 28.4944 41.2013 26.9104L38.5287 24.8552Z" fill="white"/>
<path d="M25.0255 25.7068H15.4172V9.58936H11.1323V29.5882H25.0255V25.7068Z" fill="white"/>
<path d="M100.991 17.557C98.6304 17.557 96.9168 19.346 96.9168 21.8914C96.9168 24.3213 98.7323 26.2257 101.048 26.2257C103.409 26.2257 105.123 24.3873 105.123 21.8914C105.123 19.4609 103.308 17.557 100.991 17.557ZM100.991 29.8479C96.3678 29.8479 92.7456 26.4036 92.7456 21.8914C92.7456 17.4298 96.3931 13.9343 101.048 13.9343C105.671 13.9343 109.293 17.3785 109.293 21.8914C109.293 26.3524 105.647 29.8479 100.991 29.8479Z" fill="white"/>
<path d="M68.4439 17.557C66.0829 17.557 64.3693 19.346 64.3693 21.8914C64.3693 24.3213 66.1848 26.2257 68.501 26.2257C70.862 26.2257 72.5762 24.3873 72.5762 21.8914C72.5762 19.4609 70.7607 17.557 68.4439 17.557ZM68.4439 29.8479C63.8203 29.8479 60.1987 26.4036 60.1987 21.8914C60.1987 17.4298 63.8456 13.9343 68.501 13.9343C73.124 13.9343 76.7462 17.3785 76.7462 21.8914C76.7462 26.3524 73.0993 29.8479 68.4439 29.8479Z" fill="white"/>
</g>
</g>
<defs>
<clipPath id="clip0_821_704">
<rect width="119.996" height="40" fill="white" transform="translate(0 0.454163)"/>
</clipPath>
</defs>
</svg>
