<svg width="66" height="25" viewBox="0 0 66 25" fill="none" xmlns="http://www.w3.org/2000/svg">
    <g clip-path="url(#clip0_222:252)">
        <path d="M0 0V24.5794H66V0H0Z" fill="#FF9900"/>
        <path d="M58.5531 10.9798C58.5082 10.8076 58.4409 10.6133 58.3886 10.5161C58.3886 10.5161 58.4184 10.486 58.4784 10.5235C58.538 10.561 58.9196 10.8226 58.9196 10.8226C59.1142 11.107 59.2338 12.2741 59.2411 12.6932C59.0616 12.6107 58.8074 12.4688 58.6426 12.3114L58.5531 10.9798ZM57.4007 9.89475C57.0862 9.55072 56.8246 9.2288 56.57 8.84759C56.7348 8.53304 56.8547 7.70262 56.7798 7.38103C56.7498 7.28355 56.4803 6.92445 56.4353 6.87219C56.368 6.80486 56.1513 6.55798 56.0464 6.55798C56.024 6.55798 56.0016 6.5657 55.9939 6.57304L56.0239 6.84974C55.7322 7.03666 55.3507 7.29124 55.0063 7.54549C55.0063 7.64264 55.0137 7.79205 55.0214 7.84498C55.0736 7.88953 55.1336 7.92704 55.2009 7.94982C55.3356 7.92704 55.7547 7.82219 55.8665 7.83727L55.4556 8.45833L54.9839 8.79499L54.3929 8.60807C54.3554 8.60037 54.3179 8.60807 54.2954 8.63787L53.8617 9.10953C53.8392 9.13164 53.8241 9.15408 53.8241 9.20634L53.8091 9.73795C53.8091 9.73795 53.8017 9.82003 53.8017 9.9098C53.8017 10.2913 53.9736 10.4709 53.9736 10.4709L54.2583 10.0592C54.2205 9.99958 54.1532 9.8351 54.138 9.7604C54.138 9.74531 54.1457 9.30382 54.1457 9.30382L54.4227 9.10149L55.156 9.61804C55.156 9.61804 55.358 9.99221 55.5527 10.2166C55.6796 10.3738 56.3154 10.8002 56.6222 10.9797C56.6524 11.1446 56.7197 11.4136 56.7719 11.5555L57.6701 12.4761L57.1387 13.1417C56.9519 13.2616 56.7719 13.4787 56.7871 13.6807H57.4007L57.468 13.329L58.2014 12.5136C58.2389 12.4687 58.2389 12.446 58.2164 12.3787L58.0067 11.6755C58.1116 11.5555 58.3356 11.2568 58.3356 10.8973C58.3356 10.2465 57.6252 10.082 57.4007 9.89473V9.89475ZM54.0934 8.55549C54.0711 8.56318 53.525 8.71259 53.525 8.71259C53.525 8.71259 53.2704 8.81007 53.1582 8.88478C53.046 8.95981 52.9186 9.08677 52.9113 9.15409L53.3973 9.26632C53.4724 9.18391 53.5548 9.09447 53.6295 9.03418L53.7418 8.98226L54.1457 8.57056C54.1457 8.57056 54.1307 8.54809 54.0934 8.5555V8.55549ZM56.3905 12.7605L57.0789 12.1022L57.3632 12.3864L56.6222 13.0148C56.5626 13.0894 56.5178 13.2094 56.4803 13.2841H55.9341C55.9643 13.0821 56.2484 12.8279 56.3905 12.7605ZM60.0495 14.1521H52.7391V13.9126H60.0495V14.1521ZM39.5626 10.7252C39.5626 10.2766 39.4201 9.92456 39.0316 9.92456C38.6421 9.92456 38.4849 10.2766 38.4849 10.7252V13.6807H38.9418V14.1521H36.4425V13.6807H36.9062V9.61068H36.4425V9.15409H38.4102V9.91718H38.4326C38.6196 9.49845 39.0537 9.05729 39.7498 9.05729C40.483 9.05729 40.9317 9.50583 41.074 10.0967C41.1266 10.3289 41.1417 10.7104 41.1417 10.9047V13.6807H41.7399V14.1521H39.5626V10.7252ZM29.4089 10.7252C29.4089 10.2766 29.2668 9.92456 28.8779 9.92456C28.4887 9.92456 28.3316 10.2766 28.3316 10.7252V13.6807H28.7881V14.1521H26.2888V13.6807H26.7528V9.61068H26.2888V9.15409H28.2569V9.91718H28.2791C28.4663 9.49845 28.9004 9.05729 29.5961 9.05729C30.3294 9.05729 30.7783 9.50583 30.9203 10.0967C30.973 10.3289 30.988 10.7104 30.988 10.9047V13.6807H31.5866V14.1521H29.4089V10.7252ZM43.8574 9.61068V13.3066C43.8574 13.5611 44.0222 13.6211 44.1789 13.6211C44.3287 13.6211 44.4714 13.5688 44.4714 13.5688V14.0247C44.4714 14.0247 44.1716 14.2121 43.506 14.2121C42.7278 14.2121 42.2713 13.8301 42.2713 13.0221V9.61068H41.7399V9.27369C42.3309 8.8027 43.0196 8.26338 43.5656 7.80747H43.8574V9.15409H44.6208V9.61068H43.8574ZM12.6708 6.55798C12.6708 6.55798 13.8757 7.76224 14.4292 8.3833V8.85496C13.9132 8.30861 12.843 7.85202 11.8477 7.85202C9.59566 7.85202 8.18135 9.55072 8.18135 11.6531C8.18135 13.7477 9.52061 15.4465 11.8477 15.4465C13.0075 15.4465 13.9353 14.9001 14.4516 14.3393V14.7879C13.7481 15.7533 12.4614 16.3817 10.8602 16.3817C7.99411 16.3817 6.01904 14.3018 6.01904 11.6531C6.01904 9.00469 8.21151 6.93182 10.8602 6.93182C11.5338 6.93182 12.1399 7.04404 12.6708 7.2313V6.55798ZM35.6868 12.8205C35.462 13.0821 35.1106 13.2841 34.5867 13.2841C34.1302 13.2841 33.427 13.0295 33.3972 11.8702H36.0684C36.0757 11.7804 36.0831 11.6005 36.0831 11.5107C36.0831 10.1044 35.5072 9.05729 34.0033 9.05729C32.4917 9.05729 31.721 10.2167 31.721 11.6608C31.721 13.1046 32.4917 14.2419 34.0033 14.2419C34.976 14.2419 35.5893 13.7855 35.9488 13.0671L35.6868 12.8205ZM33.3972 11.3838C33.3972 10.0669 33.5021 9.57316 33.9506 9.57316C34.4075 9.57316 34.4973 10.0518 34.5117 11.3838H33.3972ZM11.3691 11.638C11.3691 10.1118 11.5111 9.43849 12.0273 9.43849C12.5435 9.43849 12.6859 10.1118 12.6859 11.638C12.6859 13.1645 12.5435 13.8374 12.0273 13.8374C11.5111 13.8374 11.3691 13.1645 11.3691 11.638ZM9.51325 11.6531C9.51325 13.1645 10.4408 14.3916 12.0273 14.3916C13.6135 14.3916 14.5414 13.1645 14.5414 11.6531C14.5414 10.1416 13.6135 8.91493 12.0273 8.91493C10.4408 8.91493 9.51325 10.1416 9.51325 11.6531ZM18.0804 10.7252C18.0804 10.2766 17.9384 9.92458 17.5495 9.92458C17.1606 9.92458 17.0031 10.2766 17.0031 10.7252V13.6807H17.4597V14.1521H14.9604V13.6807H15.4244V9.61069H14.9604V9.1541H16.9285V9.91721H16.9508C17.1378 9.49848 17.5719 9.0573 18.2677 9.0573C19.001 9.0573 19.4502 9.50585 19.5919 10.0967C19.6441 10.3289 19.6593 10.7104 19.6593 10.9047V13.6807H20.2582V14.1521H18.0804V10.7252ZM23.6699 7.82959C23.6699 8.2711 24.0666 8.5632 24.6353 8.5632C25.2038 8.5632 25.6005 8.2711 25.6005 7.82959C25.6005 7.38875 25.2038 7.09664 24.6353 7.09664C24.0666 7.09664 23.6699 7.38875 23.6699 7.82959ZM22.3755 9.61069V13.3066C22.3755 13.5611 22.5401 13.6211 22.6975 13.6211C22.8469 13.6211 22.989 13.5688 22.989 13.5688V14.0248C22.989 14.0248 22.6902 14.2121 22.0242 14.2121C21.2461 14.2121 20.7895 13.8301 20.7895 13.0221V9.61069H20.2582V9.2737C20.8495 8.80271 21.5377 8.26339 22.0835 7.80748H22.3755V9.1541H22.989V9.61069H22.3755ZM51.5646 13.6807H52.1781V14.1521H49.9856V7.76225H49.4396V7.30634H51.5646V13.6807ZM47.3442 11.6755C47.2994 11.6306 47.2019 11.5707 46.9999 11.5707C46.5289 11.5707 46.4241 12.0349 46.4241 12.5136C46.4241 12.985 46.5661 13.3666 46.9701 13.3666C47.1646 13.3666 47.2846 13.2841 47.3442 13.2168V11.6755ZM47.4118 13.5535H47.3891C47.0973 13.9648 46.7084 14.2419 46.1098 14.2419C45.2941 14.2419 44.7852 13.5461 44.7852 12.7157C44.7852 11.7131 45.4961 11.0769 46.6334 11.0769C47.0973 11.0769 47.3442 11.1821 47.3442 11.1821V10.8672C47.3442 10.2616 46.9701 9.93965 46.4241 9.93965C45.668 9.93965 45.2794 10.5235 45.2794 10.5235L45.0024 10.1869C45.5035 9.40836 46.2739 9.0573 46.9925 9.0573C48.2052 9.0573 48.923 9.77516 48.923 10.8672V13.6807H49.4315V14.1521H47.4118V13.5535ZM23.3782 14.1521V13.6807H23.8348V9.61069H23.3782V9.1541H25.4135V13.6807H25.8776V14.1521" fill="black"/>
    </g>
    <defs>
        <clipPath id="clip0_222:252">
            <rect width="66" height="24.5794" fill="white"/>
        </clipPath>
    </defs>
</svg>
