<?xml version="1.0" encoding="UTF-8"?>
<svg width="512px" height="512px" viewBox="0 0 512 512" version="1.1" xmlns="http://www.w3.org/2000/svg" xmlns:xlink="http://www.w3.org/1999/xlink">
    <!-- Generator: Sketch 48.1 (47250) - http://www.bohemiancoding.com/sketch -->
    <title>#AA</title>
    <desc>Created with Sketch.</desc>
    <defs></defs>
    <g id="Компании-BIG" stroke="none" stroke-width="1" fill="none" fill-rule="evenodd">
        <g id="#AA">
            <g id="Group" transform="translate(4.000000, 2.000000)">
                <path d="M480.029277,29.1752658 C499.331243,48.6314093 509,72.1247573 509,99.6453659 L509,409.356623 C509,436.889164 499.331243,460.384501 480.029277,479.824734 C460.709537,499.278889 437.378922,509 410.051256,509 L98.9467689,509 C71.6052789,509 48.2766388,499.278889 28.9707229,479.824734 C9.6549328,460.384501 0,436.889164 0,409.356623 L0,99.6453659 C0,72.1247573 9.6549328,48.6314093 28.9707229,29.1752658 C48.2766388,9.73304368 71.6052789,0 98.9467689,0 L410.051256,0 C437.378922,0 460.709537,9.73304368 480.029277,29.1752658 Z" id="Fill-1" fill="#004E8F"></path>
                <path d="M253.500984,322.666667 L151.300551,204.916431 L356.581437,204.916431 L253.500984,322.666667 Z M253.500984,62 L34,322.666667 L144.195424,453 L253.500984,326.262975 L363.69444,453 L473,322.666667 L253.500984,62 Z" id="Fill-4" fill="#FFFFFE"></path>
            </g>
        </g>
    </g>
</svg>