<svg width="160" height="26" viewBox="0 0 160 26" fill="none" xmlns="http://www.w3.org/2000/svg">
<path d="M143.001 18.4926L145.79 23.1283C146.655 24.5177 148.08 25.1482 149.855 25.1482H157.032L148.63 14.9662L147.438 14.2874L144.292 15.3138L142.698 17.6205L143.001 18.4926Z" fill="#EB2023"/>
<path d="M148.63 14.9662L146.876 12.84L142.24 15.3335L142.731 17.8505L143.001 18.4926C142.895 16.7868 145.824 14.8062 148.63 14.9662Z" fill="#6C221F"/>
<path d="M143.001 18.4927L140.492 14.3454C140.19 13.8749 140.107 13.4632 140.107 12.9836C140.107 12.4561 140.332 12.1668 141.196 11.7088C142.202 11.2271 144.228 11.0176 146.316 11.0176C149.709 11.0176 150.522 12.1066 150.869 13.2816C150.869 13.2816 150.39 13.0912 149.263 13.0912C145.688 13.0912 142.831 14.8264 142.831 17.4538C142.831 18.0051 143.001 18.4927 143.001 18.4927Z" fill="#E7EBEE"/>
<path d="M132.227 0.849121H135.601C137.024 0.849121 137.608 1.43118 138.183 2.00225C138.842 2.60114 140.84 5.30538 145.064 10.5834H140.492C138.623 10.5834 138.032 10.265 137.309 9.16238L132.227 0.849121Z" fill="#05AEE9"/>
<path d="M159.134 24.0524L159.379 24.9297H159.383L159.631 24.0524H159.839L160 25.1509H159.834L159.719 24.2546H159.716L159.46 25.1509H159.282L159.033 24.2582H159.03L158.916 25.1509H158.758L158.918 24.0524H159.134ZM158.617 24.0524V24.1935H158.294V25.1509H158.134V24.1935H157.81V24.0524H158.617Z" fill="#334357"/>
<path d="M79.4399 10.5923H79.4022L77.482 16.0201H81.3646L79.4399 10.5923ZM82.8766 20.2964L81.9363 17.6301H76.9094L75.9673 20.2964H73.8215L78.3243 8.42846H80.7155L85.1491 20.2964H82.8766ZM101.09 7.95293H103.189V9.93693H101.09V7.95293ZM101.114 11.2565H103.165V20.2964H101.114V11.2565ZM85.9663 7.95205H88.0662V9.93693H85.9663V7.95205ZM85.9906 11.2565H88.0419V20.2964H85.9906V11.2565ZM98.8743 7.96373H96.8229V20.2964H98.8743V7.96373ZM92.3353 15.888V20.2964H90.2776V13.5795C90.2776 12.934 90.2039 11.7051 90.1788 11.2584H91.8355C92.0144 11.2584 92.0656 11.3339 92.071 11.5101C92.0746 11.7771 92.089 12.6301 92.089 12.6301H92.1358C92.2976 12.2391 92.881 11.0687 94.5854 11.0687C95.1562 11.0687 95.5787 11.253 95.6479 11.2809C95.6479 11.6701 95.6075 12.5241 95.5868 12.7497C95.5742 12.898 95.5095 12.9466 95.4358 12.9466C95.3657 12.9466 95.3333 12.9304 95.2946 12.9151C95.167 12.8612 94.8685 12.7704 94.4541 12.7704C93.3592 12.7704 92.3353 13.5606 92.3353 15.888ZM111.019 20.2964V14.4586C111.019 13.3439 110.51 12.6643 109.556 12.6643C108.293 12.6643 107.456 14.0074 107.456 15.8196V20.2964H105.403V13.6558C105.403 12.925 105.337 11.8598 105.303 11.2584H106.951C107.137 11.2584 107.19 11.3348 107.192 11.502C107.198 11.6952 107.214 12.6301 107.214 12.6301H107.261C107.508 12.2049 108.14 11.0678 110.031 11.0678C111.981 11.0678 113.07 12.4009 113.07 13.8977V20.2964H111.019ZM116.697 14.8478H120.494C120.572 13.3906 119.807 12.5744 118.653 12.5744C117.445 12.5744 116.752 13.4482 116.697 14.8478ZM121.759 18.3115C121.873 18.3115 121.906 18.4113 121.915 18.5137C121.95 18.8994 121.983 19.7714 121.978 19.9934C121.759 20.0635 120.656 20.469 119.174 20.469C116.297 20.469 114.565 18.9803 114.565 15.7756C114.565 13.0239 116.041 11.0687 118.695 11.0687C121.3 11.0687 122.539 12.8108 122.539 14.9737C122.539 15.2281 122.511 15.6578 122.466 16.2286H116.671C116.671 17.7721 117.654 18.8797 119.472 18.8797C120.473 18.8797 121.27 18.5209 121.586 18.3681C121.649 18.3376 121.686 18.3115 121.759 18.3115ZM126.565 20.469C129.235 20.469 130.514 19.3767 130.514 17.7532C130.514 16.1549 129.378 15.4825 128.175 15.0852C127.83 14.9737 127.492 14.8604 127.177 14.7543C126.353 14.482 125.926 14.1242 125.926 13.5902C125.926 13.0266 126.44 12.632 127.508 12.632C128.458 12.632 129.233 13.0194 129.541 13.1677C129.592 13.1911 129.638 13.2244 129.72 13.2244C129.785 13.2244 129.865 13.1839 129.875 13.0239C129.896 12.7209 129.932 12.1717 129.932 11.644C129.683 11.5299 128.785 11.0687 127.34 11.0687C125.133 11.0687 123.777 12.2166 123.777 13.7313C123.777 15.2002 124.781 15.8709 125.886 16.2367C126.14 16.323 126.612 16.4777 126.888 16.5712C128.041 16.9541 128.371 17.302 128.371 17.8413C128.371 18.5452 127.621 18.8931 126.331 18.8931C125.273 18.8931 124.545 18.5048 124.253 18.3681C124.194 18.3421 124.159 18.3115 124.077 18.3115C123.925 18.3115 123.923 18.5138 123.921 18.547C123.914 18.6441 123.866 19.5808 123.866 19.8927C124.108 19.997 125.156 20.469 126.565 20.469ZM5.61842 10.5923H5.58066L3.65961 16.0201H7.53946L5.61842 10.5923ZM9.0542 20.2964L8.11299 17.6301H3.08608L2.14489 20.2964H0L4.50283 8.42758H6.89222L11.3258 20.2964H9.0542ZM42.584 7.95205H44.6822V9.936H42.584V7.95205ZM42.6083 11.2565H44.6579V20.2964H42.6083V11.2565ZM38.2034 15.888V20.2964H36.1493V13.5795C36.1493 12.9331 36.0756 11.7042 36.0487 11.2565H37.7063C37.8852 11.2565 37.9382 11.3339 37.9391 11.5092C37.9445 11.7752 37.9607 12.6301 37.9607 12.6301H38.0066C38.1693 12.2391 38.7509 11.0687 40.4562 11.0687C41.0252 11.0687 41.4513 11.2521 41.5215 11.2799C41.5215 11.6692 41.4792 12.5232 41.4594 12.7497C41.4459 12.8971 41.3803 12.9448 41.3075 12.9448C41.2383 12.9448 41.2032 12.9304 41.1655 12.9151C41.036 12.8603 40.7385 12.7695 40.3276 12.7695C39.2318 12.7695 38.2034 13.5606 38.2034 15.888ZM23.0499 20.2964V14.5125C23.0499 13.4707 22.6094 12.6625 21.546 12.6625C20.3486 12.6625 19.6582 13.9732 19.6582 15.8088V20.2964H17.6077V14.4945C17.6077 13.5471 17.2121 12.6625 16.1118 12.6625C14.8974 12.6625 14.2177 13.9705 14.2177 15.8736V20.2964H12.1627V13.7125C12.1627 12.8621 12.0872 11.6593 12.063 11.2565H13.7053C13.8905 11.2565 13.9517 11.3177 13.9553 11.5092C13.9597 11.7492 13.9741 12.6301 13.9741 12.6301H14.0209C14.1458 12.3722 14.8209 11.0678 16.7051 11.0678C18.4608 11.0678 19.1323 12.3272 19.2986 12.7156C19.4604 12.374 20.2398 11.0678 22.008 11.0678C23.8473 11.0678 25.1022 12.0548 25.1022 14.0379V20.2964H23.0499ZM28.7258 14.8461H32.5239C32.6021 13.3916 31.8398 12.5735 30.6829 12.5735C29.4747 12.5735 28.7834 13.4482 28.7258 14.8461ZM33.7905 18.3115C33.9029 18.3115 33.937 18.4113 33.946 18.5137C33.9811 18.8994 34.0144 19.7723 34.009 19.9934C33.7905 20.0635 32.6875 20.469 31.206 20.469C28.3276 20.469 26.5962 18.9785 26.5962 15.7738C26.5962 13.0257 28.0714 11.0687 30.7278 11.0687C33.3302 11.0687 34.5717 12.8099 34.5717 14.9737C34.5717 15.2281 34.5429 15.6578 34.4971 16.2268H28.7016C28.7016 17.7721 29.6859 18.8797 31.5009 18.8797C32.5032 18.8797 33.3015 18.5209 33.617 18.3663C33.6799 18.3357 33.7159 18.3115 33.7905 18.3115ZM59.5292 15.71H59.1804C56.6022 15.71 56.0952 16.6062 56.0952 17.5168C56.0952 18.2611 56.586 18.966 57.5497 18.966C58.8298 18.966 59.5292 17.7299 59.5292 16.4291V15.71ZM60.0236 20.2964C59.8582 20.2964 59.7206 20.2415 59.7027 20.0015C59.6829 19.7067 59.6424 19.1358 59.6424 19.1358H59.6146C59.4932 19.3021 58.7453 20.469 56.8674 20.469C55.0686 20.469 54.0366 19.0828 54.0366 17.5609C54.0366 15.451 56.0853 14.3912 59.1246 14.3912H59.5292V14.0595C59.5292 13.1129 58.8559 12.6059 57.5973 12.6059C56.4647 12.6059 55.5243 13.0032 55.1585 13.1893C55.1342 13.201 55.0677 13.2396 55.0066 13.2396C54.9095 13.2396 54.8546 13.1794 54.8492 13.0724C54.8331 12.7326 54.798 12.0791 54.7926 11.6647C55.163 11.5236 56.3909 11.0678 57.7421 11.0678C60.4281 11.0678 61.5815 12.3146 61.5815 14.3058V17.8306C61.5815 19.1161 61.701 19.9575 61.7433 20.2964H60.0236ZM52.9318 18.3115C52.9857 18.3115 53.0621 18.3475 53.0801 18.5057C53.1197 18.9363 53.1358 19.641 53.1376 19.8622C52.7277 20.0644 51.8396 20.469 50.75 20.469C48.0119 20.469 46.3326 18.8796 46.3326 15.7702C46.3326 12.8567 47.8258 11.0687 50.75 11.0687C51.72 11.0687 52.6127 11.4067 53.1376 11.6764C53.1376 11.9982 53.1062 12.7272 53.0801 13.0338C53.0675 13.1623 53.0055 13.2244 52.9318 13.2244C52.85 13.2244 52.8221 13.2028 52.7736 13.1812C52.1128 12.8576 51.4917 12.7011 50.9325 12.7011C49.1895 12.7011 48.4721 13.8419 48.4721 15.7702C48.4721 17.4889 49.0456 18.8365 50.9325 18.8365C51.6535 18.8365 52.3106 18.5794 52.7178 18.3834C52.8275 18.3322 52.8464 18.3115 52.9318 18.3115ZM68.9735 20.2964V14.4586C68.9735 13.343 68.4647 12.6634 67.5118 12.6634C66.2488 12.6634 65.4092 14.0056 65.4092 15.8196V20.2964H63.3587V13.6558C63.3587 12.925 63.2922 11.8597 63.2598 11.2565H64.9058C65.0936 11.2565 65.1476 11.3348 65.1485 11.502C65.153 11.6934 65.1683 12.6301 65.1683 12.6301H65.2132C65.4631 12.204 66.0942 11.0669 67.9856 11.0669C69.9381 11.0669 71.0276 12.4009 71.0276 13.8959V20.2964H68.9735Z" fill="#334357"/>
</svg>
