<?xml version="1.0" encoding="UTF-8"?>
<svg width="512px" height="512px" viewBox="0 0 512 512" version="1.1" xmlns="http://www.w3.org/2000/svg" xmlns:xlink="http://www.w3.org/1999/xlink">
    <!-- Generator: Sketch 48.1 (47250) - http://www.bohemiancoding.com/sketch -->
    <title>AAPL</title>
    <desc>Created with Sketch.</desc>
    <defs></defs>
    <g id="Компании-BIG" stroke="none" stroke-width="1" fill="none" fill-rule="evenodd">
        <g id="AAPL" fill="#999999" fill-rule="nonzero">
            <g id="apple" transform="translate(43.000000, -1.000000)">
                <path d="M230.45836,44.5554928 C264.121896,0.216162227 310.922256,0 310.922256,0 C310.922256,0 317.88373,41.6865069 284.440713,81.8438974 C248.731913,124.723082 208.143938,117.706641 208.143938,117.706641 C208.143938,117.706641 200.522593,83.9836512 230.45836,44.5554928 Z M212.425526,146.907887 C229.74378,146.907887 261.885572,123.118266 303.722589,123.118266 C375.737776,123.118266 404.068474,174.326845 404.068474,174.326845 C404.068474,174.326845 348.658645,202.637368 348.658645,271.331537 C348.658645,348.824434 417.684211,375.530983 417.684211,375.530983 C417.684211,375.530983 369.432807,511.248058 304.258735,511.248058 C274.32465,511.248058 251.052404,491.089459 219.512409,491.089459 C187.370618,491.089459 155.474595,512 134.700433,512 C75.1866088,512.001682 0,383.259834 0,279.772798 C0,177.956184 63.6405447,124.544769 123.332804,124.544769 C162.138116,124.544769 192.251477,146.907887 212.425526,146.907887 Z" id="Shape"></path>
            </g>
        </g>
    </g>
</svg>