<svg width="66" height="12" viewBox="0 0 66 12" fill="none" xmlns="http://www.w3.org/2000/svg">
    <g clip-path="url(#clip0_102:42)">
        <path d="M65.78 11.1225C65.78 10.4236 65.3767 10.1809 64.7049 10.1809H59.6515C57.2792 10.1809 56.4432 8.712 56.3339 7.7H63.3497C65.3965 7.7 66 6.22603 66 5.2771C66 4.26437 65.3437 2.85487 63.3497 2.85487H59.5599C56.1103 2.85487 54.9751 5.20376 54.9751 7.10896C54.9751 9.20189 56.2672 11.363 59.5511 11.363H65.78V11.1225ZM59.6603 4.037H63.1767C64.3896 4.037 64.6815 4.79237 64.6815 5.2771C64.6815 5.71123 64.416 6.51715 63.1767 6.51715H56.3339C56.4168 5.67382 57.1245 4.037 59.6603 4.037ZM45.3552 10.8255C44.9929 11.3197 44.7443 11.4921 44.4275 11.4921C43.9875 11.4921 43.8189 11.2545 43.5057 10.8262C42.7431 9.7878 37.6691 2.85487 37.6691 2.85487H38.4545C39.3008 2.85487 39.5435 3.15406 39.8955 3.64393C40.0488 3.85953 44.4613 10.0789 44.4613 10.0789C44.4613 10.0789 48.8679 3.86764 49.0497 3.6117C49.3731 3.1519 49.6247 2.85487 50.4753 2.85487H51.1647C51.1647 2.85487 45.9727 9.97922 45.3552 10.8255ZM12.0824 11.363C11.5507 11.363 11.2171 11.1005 11.1129 10.5329L10.9384 9.60889C10.6524 10.1413 9.5854 11.363 7.27906 11.363H4.62733C1.01786 11.363 0 8.91736 0 7.10896C0 5.07249 1.2232 2.85487 4.62733 2.85487H7.27906C9.8604 2.85487 11.2985 4.35893 11.6431 6.19153C11.9321 7.72199 12.6097 11.363 12.6097 11.363H12.0824ZM6.9872 4.037H4.72046C2.17433 4.037 1.30754 5.65696 1.30754 7.10896C1.30754 8.57635 2.17433 10.1809 4.72046 10.1809H6.9872C9.64627 10.1809 10.4214 8.49275 10.4214 7.10896C10.4214 5.87476 9.72913 4.037 6.9872 4.037ZM52.8667 1.87957C53.2437 1.87957 53.5355 1.64634 53.5355 1.20268V0.92253C53.5355 0.474463 53.24 0.245683 52.8667 0.245683C52.4957 0.245683 52.1965 0.470797 52.1965 0.92253V1.20268C52.1965 1.64928 52.4883 1.87957 52.8667 1.87957ZM52.2119 2.85415H52.5235C53.1307 2.85415 53.5201 3.12696 53.5201 3.95196V11.363H53.1945C52.5287 11.363 52.2119 11.0029 52.2119 10.2872V2.85415ZM14.6051 3.96002C15.1683 3.42688 16.1656 2.85487 17.7474 2.85487H20.3984C24.0071 2.85487 25.0272 5.30056 25.0272 7.10896C25.0272 9.14469 23.8033 11.363 20.3984 11.363H17.7474C15.1639 11.363 13.2975 9.69394 13.2975 7.10967V0H13.7023C14.2802 0 14.6051 0.296281 14.6051 0.839681V3.96002ZM18.04 10.1809H20.3053C22.8521 10.1809 23.7189 8.56022 23.7189 7.10896C23.7189 5.64156 22.8521 4.037 20.3053 4.037H18.04C15.3795 4.037 14.6051 5.72369 14.6051 7.10896C14.6051 8.34315 15.2959 10.1809 18.04 10.1809ZM27.6584 3.96002C28.2231 3.42688 29.2175 2.85487 30.8 2.85487H33.4525C37.0605 2.85487 38.0813 5.30056 38.0813 7.10896C38.0813 9.14469 36.8559 11.363 33.4525 11.363H30.8C28.2179 11.363 26.3509 9.69394 26.3509 7.10967V0H26.7557C27.3328 0 27.6584 0.296281 27.6584 0.839681V3.96002ZM31.0919 10.1809H33.3593C35.904 10.1809 36.7715 8.56022 36.7715 7.10896C36.7715 5.64156 35.9055 4.037 33.3593 4.037H31.0919C28.4328 4.037 27.6584 5.72369 27.6584 7.10896C27.6584 8.34315 28.3499 10.1809 31.0919 10.1809Z" fill="#00003A"/>
    </g>
    <defs>
        <clipPath id="clip0_102:42">
            <rect width="66" height="11.4921" fill="white"/>
        </clipPath>
    </defs>
</svg>
