<svg width="130" height="40" viewBox="0 0 130 40" fill="none" xmlns="http://www.w3.org/2000/svg">
<g clip-path="url(#clip0_111_2997)">
<path d="M68.4635 10.0501C68.4635 11.4915 67.3023 12.6527 65.8609 12.6527C64.4194 12.6527 63.2583 11.4915 63.2583 10.0501C63.2583 8.60861 64.3794 7.44745 65.8609 7.44745C67.3424 7.48749 68.4635 8.64865 68.4635 10.0501ZM57.7327 15.2953C57.7327 15.5355 57.7327 15.9359 57.7327 15.9359C57.7327 15.9359 56.4915 14.3343 53.8489 14.3343C49.4845 14.3343 46.0811 17.6577 46.0811 22.2623C46.0811 26.8268 49.4445 30.1902 53.8489 30.1902C56.5315 30.1902 57.7327 28.5485 57.7327 28.5485V29.2292C57.7327 29.5495 57.973 29.7898 58.2933 29.7898H61.5366V14.7347C61.5366 14.7347 58.5736 14.7347 58.2933 14.7347C57.973 14.7347 57.7327 15.015 57.7327 15.2953ZM57.7327 24.9449C57.1321 25.8258 55.9309 26.5866 54.4895 26.5866C51.9269 26.5866 49.965 24.985 49.965 22.2623C49.965 19.5395 51.9269 17.9379 54.4895 17.9379C55.8909 17.9379 57.1722 18.7387 57.7327 19.5796V24.9449ZM63.939 14.7347H67.7828V29.7898H63.939V14.7347ZM121.356 14.3343C118.714 14.3343 117.472 15.9359 117.472 15.9359V7.48749H113.629V29.7898C113.629 29.7898 116.592 29.7898 116.872 29.7898C117.192 29.7898 117.432 29.5095 117.432 29.2292V28.5485C117.432 28.5485 118.674 30.1902 121.316 30.1902C125.681 30.1902 129.084 26.8268 129.084 22.2623C129.084 17.6977 125.681 14.3343 121.356 14.3343ZM120.716 26.5465C119.234 26.5465 118.073 25.7858 117.472 24.9049V19.5395C118.073 18.7387 119.354 17.8979 120.716 17.8979C123.278 17.8979 125.24 19.4995 125.24 22.2222C125.24 24.9449 123.278 26.5465 120.716 26.5465ZM111.627 20.8609V29.8298H107.783V21.3013C107.783 18.8188 106.982 17.8178 104.82 17.8178C103.659 17.8178 102.457 18.4184 101.697 19.2993V29.7898H97.8529V14.7347H100.896C101.216 14.7347 101.456 15.015 101.456 15.2953V15.9359C102.578 14.7748 104.059 14.3343 105.541 14.3343C107.222 14.3343 108.624 14.8148 109.745 15.7758C111.106 16.8969 111.627 18.3383 111.627 20.8609ZM88.5235 14.3343C85.8809 14.3343 84.6397 15.9359 84.6397 15.9359V7.48749H80.7958V29.7898C80.7958 29.7898 83.7588 29.7898 84.0391 29.7898C84.3594 29.7898 84.5996 29.5095 84.5996 29.2292V28.5485C84.5996 28.5485 85.8409 30.1902 88.4835 30.1902C92.8479 30.1902 96.2513 26.8268 96.2513 22.2623C96.2913 17.6977 92.8879 14.3343 88.5235 14.3343ZM87.8829 26.5465C86.4014 26.5465 85.2403 25.7858 84.6397 24.9049V19.5395C85.2403 18.7387 86.5215 17.8979 87.8829 17.8979C90.4455 17.8979 92.4074 19.4995 92.4074 22.2222C92.4074 24.9449 90.4455 26.5465 87.8829 26.5465ZM77.4725 14.3343C78.6336 14.3343 79.2343 14.5345 79.2343 14.5345V18.0981C79.2343 18.0981 76.0311 17.017 74.029 19.2993V29.8298H70.1852V14.7347C70.1852 14.7347 73.1482 14.7347 73.4284 14.7347C73.7488 14.7347 73.989 15.015 73.989 15.2953V15.9359C74.7097 15.0951 76.2713 14.3343 77.4725 14.3343ZM37.5526 28.4284C37.3524 27.9479 37.1522 27.4274 36.952 26.987C36.6316 26.2663 36.3113 25.5856 36.031 24.9449L35.991 24.9049C33.2282 18.8989 30.2653 12.8128 27.1422 6.80681L27.022 6.56657C26.7017 5.96597 26.3814 5.32533 26.0611 4.68468C25.6607 3.96396 25.2603 3.2032 24.6196 2.48248C23.3384 0.880881 21.4965 0 19.5346 0C17.5326 0 15.7308 0.880881 14.4094 2.4024C13.8088 3.12312 13.3684 3.88388 12.968 4.6046C12.6477 5.24525 12.3273 5.88589 12.007 6.48649L11.8869 6.72673C8.80382 12.7327 5.80082 18.8188 3.03806 24.8248L2.99802 24.9049C2.71774 25.5455 2.39742 26.2262 2.0771 26.9469C1.8769 27.3874 1.6767 27.8679 1.47649 28.3884C0.955974 29.8699 0.795814 31.2713 0.996014 32.7127C1.43645 35.7157 3.43846 38.2382 6.20122 39.3594C7.24226 39.7998 8.32334 40 9.44446 40C9.76478 40 10.1652 39.96 10.4855 39.9199C11.8068 39.7598 13.1682 39.3193 14.4895 38.5586C16.1312 37.6376 17.6927 36.3163 19.4545 34.3944C21.2162 36.3163 22.8178 37.6376 24.4194 38.5586C25.7408 39.3193 27.1021 39.7598 28.4234 39.9199C28.7438 39.96 29.1442 40 29.4645 40C30.5856 40 31.7067 39.7998 32.7077 39.3594C35.5105 38.2382 37.4725 35.6757 37.9129 32.7127C38.2333 31.3113 38.0731 29.9099 37.5526 28.4284ZM19.4945 30.5105C17.3324 27.7878 15.9309 25.2252 15.4505 23.0631C15.2503 22.1421 15.2102 21.3413 15.3303 20.6206C15.4104 19.98 15.6507 19.4194 15.971 18.9389C16.7318 17.8579 18.013 17.1772 19.4945 17.1772C20.976 17.1772 22.2973 17.8178 23.018 18.9389C23.3384 19.4194 23.5786 19.98 23.6587 20.6206C23.7788 21.3413 23.7388 22.1822 23.5386 23.0631C23.0581 25.1852 21.6567 27.7477 19.4945 30.5105ZM35.4705 32.3924C35.1902 34.4745 33.7888 36.2763 31.8268 37.0771C30.8659 37.4775 29.8248 37.5976 28.7838 37.4775C27.7828 37.3574 26.7818 37.037 25.7408 36.4364C24.2993 35.6356 22.8579 34.3944 21.1762 32.5526C23.8188 29.3093 25.4204 26.3463 26.021 23.7037C26.3013 22.4625 26.3414 21.3413 26.2212 20.3003C26.0611 19.2993 25.7007 18.3784 25.1402 17.5776C23.8989 15.7758 21.8168 14.7347 19.4945 14.7347C17.1722 14.7347 15.0901 15.8158 13.8489 17.5776C13.2883 18.3784 12.9279 19.2993 12.7678 20.3003C12.6076 21.3413 12.6477 22.5025 12.968 23.7037C13.5686 26.3463 15.2102 29.3493 17.8128 32.5926C16.1712 34.4344 14.6897 35.6757 13.2483 36.4765C12.2072 37.0771 11.2062 37.3974 10.2052 37.5175C9.12414 37.6376 8.0831 37.4775 7.16218 37.1171C5.20022 36.3163 3.79882 34.5145 3.51854 32.4324C3.39842 31.4314 3.4785 30.4304 3.8789 29.3093C3.99902 28.9089 4.19922 28.5085 4.39942 28.028C4.6797 27.3874 5.00002 26.7067 5.32034 26.026L5.36038 25.9459C8.12314 19.98 11.0861 13.8939 14.1692 7.96797L14.2893 7.72773C14.6096 7.12713 14.9299 6.48649 15.2503 5.88589C15.5706 5.24525 15.9309 4.64464 16.3714 4.12412C17.2122 3.16316 18.3334 2.64264 19.5746 2.64264C20.8158 2.64264 21.937 3.16316 22.7778 4.12412C23.2182 4.64464 23.5786 5.24525 23.8989 5.88589C24.2192 6.48649 24.5396 7.12713 24.8599 7.72773L24.98 7.96797C28.023 13.9339 30.986 20.02 33.7488 25.986V26.026C34.0691 26.6667 34.3494 27.3874 34.6697 28.028C34.8699 28.5085 35.0701 28.9089 35.1902 29.3093C35.5105 30.3503 35.6306 31.3514 35.4705 32.3924Z" fill="#FF5A5F"/>
</g>
<defs>
<clipPath id="clip0_111_2997">
<rect width="128.168" height="40" fill="white" transform="translate(0.916016)"/>
</clipPath>
</defs>
</svg>
