<svg width="486" height="122" viewBox="0 0 486 122" fill="none" xmlns="http://www.w3.org/2000/svg">
    <path d="M131.693 0H0.000557606V20.2381H125.118V20.2564C128.74 20.2564 131.632 23.1609 131.632 26.7669V94.727L131.616 94.7845C131.593 98.3745 128.672 101.26 125.089 101.26H26.7636C23.164 101.26 20.2179 98.3512 20.2179 94.7264V67.2716C20.2179 63.6656 23.164 60.7384 26.7636 60.7384H111.357V40.5273H20.1792C9.03453 40.5273 0 49.5454 0 60.6823V101.317C0 112.461 9.03453 121.492 20.1792 121.492H131.692C142.846 121.492 151.868 112.461 151.868 101.317V20.1824C151.868 9.0392 142.846 0.000446085 131.692 0.000446085" fill="#159BD7"/>
    <path d="M206.679 63.0633H220.375L213.591 42.7367H213.403L206.679 63.0633ZM226.629 28.6914L242.406 75.884C244.279 81.6418 245.604 82.9741 248.892 82.9741H252.1V91.282H217.651V82.9741H220.476C223.308 82.9741 225.663 82.5981 225.663 81.5717C225.663 80.6019 225.569 79.5649 225.19 78.1456L223.22 71.3644H203.961L202.81 75.1424C201.78 78.4375 201.397 79.8366 201.397 81.1622C201.397 82.6855 204.712 82.9741 207.279 82.9741H209.994V91.282H182.242V82.9741H185.457C188.761 82.9741 190.06 81.6418 191.976 75.884L207.74 28.6914H226.629Z" fill="black"/>
    <path d="M273.264 69.1735C273.264 78.82 275.428 84.568 280.709 84.568C286.024 84.568 288.172 78.82 288.172 69.1735C288.172 59.5536 286.024 53.7992 280.709 53.7992C275.428 53.7992 273.264 59.5536 273.264 69.1735ZM257.578 40.3075C257.578 37.6403 256.92 36.2408 254.182 36.2408H249.844V28.6914H273.264V52.1855C276.75 48.2193 281.196 45.6726 285.423 45.6726C299.59 45.6726 304.868 56.7385 304.868 69.1735C304.868 81.6418 299.59 92.681 285.423 92.681C279.478 92.681 274.186 90.6076 270.894 85.4135L268.167 91.2888H257.578V40.3075Z" fill="black"/>
    <path d="M326.22 69.1735C326.22 78.82 328.411 84.568 333.685 84.568C338.976 84.568 341.137 78.82 341.137 69.1735C341.137 59.5536 338.976 53.7992 333.685 53.7992C328.411 53.7992 326.22 59.5536 326.22 69.1735ZM310.54 40.3075C310.54 37.6403 309.875 36.2408 307.164 36.2408H302.812V28.6914H326.22V52.1855C329.723 48.2193 334.152 45.6726 338.399 45.6726C352.565 45.6726 357.857 56.7385 357.857 69.1735C357.857 81.6418 352.565 92.681 338.399 92.681C332.453 92.681 327.162 90.6076 323.864 85.4135L321.116 91.2888H310.54V40.3075Z" fill="black"/>
    <path d="M379.097 69.1761C379.097 80.3125 381.076 85.1305 386.744 85.1305C392.401 85.1305 394.377 80.3125 394.377 69.1761C394.377 58.0396 392.401 53.228 386.744 53.228C381.076 53.228 379.097 58.0396 379.097 69.1761ZM411.1 69.1761C411.1 84.2883 400.802 92.6803 386.744 92.6803C372.654 92.6803 362.381 84.2883 362.381 69.1761C362.381 54.0735 372.655 45.6719 386.744 45.6719C400.802 45.6719 411.1 54.0735 411.1 69.1761Z" fill="black"/>
    <path d="M478.409 69.943V77.3047C478.409 81.6431 477.473 84.2102 473.883 84.2102C471.715 84.2102 470.685 82.5931 470.685 80.6033V54.6465H482.274V47.0904H470.685V29.5547H461.321C460.556 37.3762 458.11 47.0899 448.672 47.0899H433.949V29.5547H424.611C423.849 37.3762 421.389 47.0899 411.961 47.0899V54.6461H418.282V78.3378C418.282 87.9708 423.661 92.6819 433.368 92.6819C444.722 92.6819 449.226 87.5985 449.226 78.3378V69.9425H441.698V77.3043C441.698 81.6426 440.746 84.2096 437.169 84.2096C434.978 84.2096 433.948 82.5925 433.948 80.6027V54.6461H455.026V78.3378C455.026 87.9708 460.381 92.6819 470.108 92.6819C481.432 92.6819 485.976 87.5985 485.976 78.3378V69.9425H478.409V69.943Z" fill="black"/>
</svg>
