<svg width="39" height="25" viewBox="0 0 39 25" fill="none" xmlns="http://www.w3.org/2000/svg">
<g id="ACM -  Milan Fan Token" clip-path="url(#clip0_502_968)">
<path id="Vector" d="M37.9692 25H1.07751C0.713704 25 0.418701 24.7054 0.418701 24.3421V0.657924C0.418701 0.294605 0.713704 0 1.07751 0H37.9693C38.3331 0 38.6281 0.294605 38.6281 0.657924V24.3421C38.628 24.7055 38.333 25 37.9692 25Z" fill="#C1C1C1"/>
<g id="ACM -  Milan Fan Token_2">
<circle id="Ellipse 24" cx="19.4187" cy="12" r="10" fill="black"/>
<path id="Ellipse 22 (Stroke)" fill-rule="evenodd" clip-rule="evenodd" d="M19.4187 21C24.3893 21 28.4187 16.9706 28.4187 12C28.4187 7.02944 24.3893 3 19.4187 3C14.4481 3 10.4187 7.02944 10.4187 12C10.4187 16.9706 14.4481 21 19.4187 21ZM19.4187 22C24.9415 22 29.4187 17.5228 29.4187 12C29.4187 6.47715 24.9415 2 19.4187 2C13.8959 2 9.4187 6.47715 9.4187 12C9.4187 17.5228 13.8959 22 19.4187 22Z" fill="#E4002B"/>
<g id="Logo_of_AC_Milan 1">
<g id="g858">
<g id="svg_1">
<path id="svg_2" fill-rule="evenodd" clip-rule="evenodd" d="M22.9985 6.28567C22.0951 4.88125 20.8417 4.00958 19.4375 4C16.6291 4.01416 14.4187 7.4938 14.4187 11.7522C14.4187 13.8788 14.9723 15.8149 15.8762 17.2187C16.7799 18.6225 18.0333 19.4948 19.4375 19.5C20.8417 19.4948 22.0951 18.6225 22.9985 17.2187C23.9025 15.8149 24.4563 13.8788 24.4563 11.7522C24.4563 9.62494 23.9025 7.68944 22.9985 6.28567Z" fill="#101820"/>
<path id="svg_3" fill-rule="evenodd" clip-rule="evenodd" d="M23.9098 8.78825C23.6619 7.87386 23.3023 7.05283 22.8601 6.36768C22.4132 5.68149 21.8885 5.12667 21.3104 4.74399C20.7322 4.3667 20.1031 4.15674 19.4374 4.15674C18.7717 4.15674 18.1426 4.3667 17.5644 4.74399C16.9863 5.12667 16.4616 5.68149 16.0148 6.36768C15.5725 7.05283 15.213 7.87386 14.965 8.78825C14.7173 9.69763 14.5812 10.7005 14.5812 11.7547C14.5812 13.8536 15.1306 15.7612 16.0148 17.1326C16.4616 17.8185 16.9863 18.373 17.5644 18.7557C18.1426 19.1337 18.7717 19.3432 19.4374 19.3432C20.1031 19.3432 20.7322 19.1337 21.3104 18.7557C21.8885 18.373 22.4132 17.8185 22.8601 17.1326C23.7442 15.7612 24.2936 13.8536 24.2936 11.7547C24.2936 10.7005 24.1575 9.69763 23.9098 8.78825Z" fill="#E4002B"/>
<path id="svg_4" fill-rule="evenodd" clip-rule="evenodd" d="M19.4375 18.9098C16.9549 18.8953 15.0139 15.6775 15.0139 11.7547C15.0139 7.82739 16.9549 4.60889 19.4375 4.59509C21.9202 4.60889 23.8612 7.82739 23.8612 11.7547C23.8612 15.6775 21.9202 18.8953 19.4375 18.9098Z" fill="#101820"/>
<path id="svg_5" fill-rule="evenodd" clip-rule="evenodd" d="M19.4375 7.54281C21.104 7.54281 22.549 8.43373 23.2926 9.74416C23.0933 8.67666 22.7484 7.71991 22.2866 6.94565C21.5533 5.71887 20.5453 4.9734 19.4375 4.96838C18.3296 4.9734 17.3216 5.71887 16.5884 6.94565C16.1265 7.71991 15.7817 8.67666 15.5824 9.74416C16.326 8.43373 17.7709 7.54281 19.4375 7.54281Z" fill="white"/>
<path id="svg_6" fill-rule="evenodd" clip-rule="evenodd" d="M19.4375 15.9618C17.771 15.9618 16.3307 15.0713 15.5874 13.7605C15.7817 14.8284 16.1265 15.7844 16.5884 16.5546C16.9575 17.1652 17.3898 17.6646 17.8757 18.0049C18.3566 18.3499 18.8837 18.5366 19.4375 18.5366C19.9913 18.5366 20.5184 18.3499 20.9993 18.0049C21.4852 17.6646 21.9175 17.1652 22.2866 16.5546C22.7485 15.7844 23.0933 14.8284 23.2876 13.7605C22.5443 15.0713 21.104 15.9618 19.4375 15.9618Z" fill="white"/>
<path id="svg_7" fill-rule="evenodd" clip-rule="evenodd" d="M20.8929 15.9979C20.6216 16.0874 20.4696 16.2911 20.5764 16.5889C20.6483 16.7913 20.8643 16.9155 21.1302 16.8285C21.223 16.7969 21.3242 16.7419 21.3566 16.6386L21.362 16.6413C21.4511 16.8968 21.362 17.0014 21.2547 17.0544C21.1486 17.1036 21.0509 17.0784 20.9876 17.005L20.9869 17.0038L20.8082 17.1225C20.9118 17.2714 21.1059 17.317 21.32 17.2461C21.5706 17.1634 21.7695 16.9281 21.6023 16.4605C21.5419 16.2895 21.373 15.8397 20.8929 15.9979ZM21.1204 16.619C21.0168 16.6527 20.8776 16.6532 20.8131 16.472C20.7514 16.2992 20.8906 16.2174 20.9601 16.1963C21.1015 16.1503 21.1992 16.212 21.2493 16.3485C21.3004 16.4931 21.2156 16.5872 21.1204 16.619Z" fill="#101820"/>
<path id="svg_8" fill-rule="evenodd" clip-rule="evenodd" d="M19.515 7.22978C19.7988 7.22978 20.0549 7.11312 20.2318 6.92652L20.022 6.74216C19.8963 6.87339 19.7158 6.95645 19.515 6.95645C19.1345 6.95645 18.8257 6.6608 18.8257 6.29529C18.8257 5.92759 19.1345 5.63142 19.515 5.63142C19.7158 5.63142 19.8963 5.71486 20.022 5.84598L20.2313 5.66058C20.0531 5.47486 19.7988 5.35803 19.515 5.35803C18.9776 5.35803 18.5416 5.77741 18.5416 6.29529C18.5416 6.81084 18.9776 7.22978 19.515 7.22978Z" fill="#101820"/>
<path id="svg_9" fill-rule="evenodd" clip-rule="evenodd" d="M20.8546 6.47272L21.0625 7.51667C21.1121 7.53693 21.1602 7.55602 21.2096 7.57801L21.5042 6.88276L21.8128 7.88886C21.9336 7.96373 22.0521 8.04611 22.1648 8.13264L21.6293 6.39456L21.4622 6.26774L21.2206 6.84099L21.0198 5.92359L20.7875 5.77478L20.3025 7.3023C20.3933 7.31963 20.4832 7.33897 20.5728 7.36181L20.8546 6.47272Z" fill="#101820"/>
<path id="svg_10" fill-rule="evenodd" clip-rule="evenodd" d="M17.3543 7.34154L18.2 7.01856L18.3075 7.36156C18.3952 7.33869 18.4852 7.31963 18.5751 7.3023L18.0966 5.77478L17.7466 5.99099L16.6438 8.18588C16.7824 8.07571 16.9299 7.97323 17.0819 7.87892L17.3543 7.34154ZM17.9375 6.1849L18.1195 6.76327L17.533 6.98715L17.9375 6.1849Z" fill="#101820"/>
<path id="svg_11" fill-rule="evenodd" clip-rule="evenodd" d="M19.8006 16.204C19.5152 16.2278 19.3163 16.3886 19.3433 16.7025C19.3625 16.9135 19.5402 17.0868 19.8202 17.0633C19.919 17.056 20.0294 17.026 20.0881 16.9354L20.0923 16.9382C20.1131 17.207 19.999 17.2881 19.8824 17.311C19.7672 17.3362 19.6793 17.2896 19.637 17.2033V17.2013L19.4336 17.2755C19.4948 17.4408 19.6729 17.5305 19.8976 17.5131C20.1606 17.492 20.4137 17.311 20.3711 16.8188C20.3569 16.6381 20.3071 16.1643 19.8006 16.204ZM19.8647 16.8576C19.755 16.8673 19.6195 16.8366 19.6025 16.6449C19.5878 16.4607 19.7427 16.4162 19.8171 16.4115C19.9641 16.3995 20.0447 16.481 20.0574 16.6267C20.0709 16.7794 19.9641 16.851 19.8647 16.8576Z" fill="#101820"/>
<path id="svg_12" fill-rule="evenodd" clip-rule="evenodd" d="M18.7087 16.1578C18.4564 16.1141 18.2356 16.2119 18.1969 16.4295C18.1749 16.5465 18.2209 16.6369 18.3259 16.7073C18.0902 16.7579 18.0601 16.9268 18.0481 16.9905C18.016 17.1645 18.1057 17.3994 18.4776 17.4643C18.8593 17.5281 19.022 17.2972 19.0522 17.1369C19.0816 16.9725 19.0191 16.8795 18.8918 16.7941C19.0176 16.7623 19.085 16.6761 19.1052 16.5667C19.1364 16.391 19.0066 16.2088 18.7087 16.1578ZM18.7702 17.1005C18.7542 17.1884 18.6641 17.2896 18.5161 17.2632C18.3864 17.2415 18.2996 17.1443 18.3224 17.0203C18.3471 16.884 18.4785 16.845 18.5826 16.8645C18.7408 16.8888 18.7875 17.0106 18.7702 17.1005ZM18.8386 16.5489C18.8218 16.639 18.735 16.694 18.6228 16.6752C18.5003 16.6531 18.4416 16.5587 18.4547 16.4851C18.4719 16.3903 18.5623 16.3393 18.6903 16.3603C18.7812 16.3765 18.8561 16.4517 18.8386 16.5489Z" fill="#101820"/>
<path id="svg_13" fill-rule="evenodd" clip-rule="evenodd" d="M17.3363 16.0335L17.2975 16.0206L17.2425 16.1722L17.2443 16.1727L17.2172 16.246L17.2702 16.265C17.4103 16.3132 17.5058 16.3132 17.5697 16.2877L17.2812 17.1005L17.5563 17.19L17.9809 15.9961L17.7309 15.9124C17.7116 15.9678 17.5446 16.1006 17.3363 16.0335Z" fill="#101820"/>
<path id="svg_14" fill-rule="evenodd" clip-rule="evenodd" d="M22.1754 12.3518V14.6885C22.8654 14.0961 23.3466 13.2753 23.4924 12.3518H22.1754Z" fill="white"/>
<path id="svg_15" fill-rule="evenodd" clip-rule="evenodd" d="M19.6636 15.6822C20.0037 15.6634 20.3336 15.6028 20.6447 15.5142V12.3518H19.6636V15.6822Z" fill="white"/>
<path id="svg_16" fill-rule="evenodd" clip-rule="evenodd" d="M23.4728 11.0225C23.3031 10.1521 22.8389 9.38435 22.1754 8.82043V11.0225H23.4728Z" fill="white"/>
<path id="svg_17" fill-rule="evenodd" clip-rule="evenodd" d="M19.6636 11.0224H20.6447V7.99069C20.3287 7.90227 20.0037 7.84169 19.6636 7.82288V11.0224Z" fill="white"/>
<path id="svg_18" fill-rule="evenodd" clip-rule="evenodd" d="M22.1757 8.81628H22.1705C22.1723 8.81777 22.174 8.81931 22.1757 8.82079V8.81628Z" fill="white"/>
<path id="svg_19" fill-rule="evenodd" clip-rule="evenodd" d="M15.8347 13.6435V9.86072C15.519 10.4256 15.3345 11.0691 15.3345 11.7547C15.3345 12.4357 15.519 13.0793 15.8347 13.6435Z" fill="#E4002B"/>
<path id="svg_20" fill-rule="evenodd" clip-rule="evenodd" d="M20.8586 8.06055V11.2322H19.6631V12.1418L20.8586 12.1467V15.4441C21.2563 15.3046 21.626 15.1033 21.9567 14.8566V12.1467H23.5256C23.5401 12.0157 23.545 11.8855 23.545 11.7546C23.545 11.5776 23.5303 11.4002 23.506 11.2322H21.9567V8.64812C21.626 8.40097 21.2563 8.20046 20.8586 8.06055Z" fill="#E4002B"/>
<path id="svg_21" fill-rule="evenodd" clip-rule="evenodd" d="M18.1329 15.4861C18.3809 15.5654 18.6335 15.6215 18.9006 15.6588V7.84595C18.6335 7.87856 18.3809 7.93955 18.1329 8.01891V15.4861Z" fill="#E4002B"/>
<path id="svg_22" fill-rule="evenodd" clip-rule="evenodd" d="M16.6024 14.5951C16.8357 14.8098 17.0884 14.9915 17.3651 15.1507V8.35449C17.0884 8.5084 16.8357 8.69464 16.6024 8.90964V14.5951Z" fill="#E4002B"/>
</g>
</g>
</g>
</g>
</g>
<defs>
<clipPath id="clip0_502_968">
<rect width="38.2094" height="25" fill="white" transform="translate(0.418701)"/>
</clipPath>
</defs>
</svg>
