<svg width="152" height="40" viewBox="0 0 152 40" fill="none" xmlns="http://www.w3.org/2000/svg">
    <path d="M88.4651 11.1628L97.2093 7.90698L88.4651 4.55814V0L103.442 6.04651V9.76744L88.4651 15.814V11.1628Z" fill="#A100FF"/>
    <path d="M5.76744 40C2.60465 40 0 38.4186 0 34.8837V34.6976C0 30.4186 3.72093 28.9302 8.27907 28.9302H10.4186V28.093C10.4186 26.3255 9.67442 25.3023 7.81395 25.3023C6.13954 25.3023 5.30233 26.2325 5.2093 27.5348H0.55814C0.930233 23.6279 4 21.7674 8.09302 21.7674C12.2791 21.7674 15.3488 23.5348 15.3488 27.9069V39.6279H10.6047V37.5813C9.67442 38.8837 8.09302 40 5.76744 40ZM10.4186 33.8604V32.186H8.46512C6.04651 32.186 4.83721 32.8372 4.83721 34.4186V34.6046C4.83721 35.8139 5.5814 36.6511 7.25582 36.6511C8.93023 36.5581 10.4186 35.6279 10.4186 33.8604ZM26.4186 40C21.5814 40 18.0465 37.0232 18.0465 31.0697V30.7906C18.0465 24.8372 21.7674 21.6744 26.4186 21.6744C30.4186 21.6744 33.6744 23.7209 34.0465 28.279H29.3954C29.1163 26.6046 28.1861 25.4883 26.5116 25.4883C24.4651 25.4883 22.9767 27.1627 22.9767 30.6046V31.1627C22.9767 34.6976 24.2791 36.279 26.5116 36.279C28.1861 36.279 29.3954 35.0697 29.6744 33.1162H34.1395C33.8605 37.2093 31.1628 40 26.4186 40ZM44.6512 40C39.814 40 36.2791 37.0232 36.2791 31.0697V30.7906C36.2791 24.8372 40 21.6744 44.6512 21.6744C48.6512 21.6744 51.907 23.7209 52.2791 28.279H47.6279C47.3488 26.6046 46.4186 25.4883 44.7442 25.4883C42.6977 25.4883 41.2093 27.1627 41.2093 30.6046V31.1627C41.2093 34.6976 42.5116 36.279 44.7442 36.279C46.4186 36.279 47.6279 35.0697 47.907 33.1162H52.3721C52.093 37.2093 49.3954 40 44.6512 40ZM62.9767 40C57.9535 40 54.5116 37.0232 54.5116 31.1627V30.7906C54.5116 24.9302 58.1395 21.6744 62.8837 21.6744C67.2558 21.6744 70.8837 24.093 70.8837 29.9534V32.093H59.4419C59.6279 35.2558 61.0233 36.4651 63.0698 36.4651C64.9302 36.4651 65.9535 35.4418 66.3256 34.2325H70.8837C70.3256 37.4883 67.5349 40 62.9767 40ZM59.5349 28.8372H66.0465C65.9535 26.2325 64.7442 25.1162 62.7907 25.1162C61.3023 25.2093 59.907 26.0465 59.5349 28.8372ZM73.8605 22.1395H78.7907V24.7441C79.6279 23.0697 81.3954 21.7674 84.093 21.7674C87.2558 21.7674 89.3954 23.7209 89.3954 27.9069V39.6279H84.4651V28.6511C84.4651 26.6046 83.6279 25.6744 81.8605 25.6744C80.1861 25.6744 78.7907 26.6976 78.7907 28.9302V39.6279H73.8605V22.1395ZM98.4186 16.8372V22.1395H101.767V25.7674H98.4186V34.0465C98.4186 35.3488 98.9768 36 100.186 36C100.93 36 101.395 35.9069 101.86 35.7209V39.5348C101.302 39.7209 100.279 39.9069 99.0698 39.9069C95.2558 39.9069 93.4884 38.1395 93.4884 34.6046V25.7674H91.4419V22.1395H93.4884V18.8837L98.4186 16.8372ZM120.186 39.6279H115.349V37.0232C114.512 38.6976 112.837 40 110.233 40C107.07 40 104.744 38.0465 104.744 33.9534V22.1395H109.674V33.3023C109.674 35.3488 110.512 36.279 112.186 36.279C113.86 36.279 115.256 35.1627 115.256 33.0232V22.1395H120.186V39.6279ZM123.814 22.1395H128.744V25.3953C129.767 23.0697 131.442 21.9534 134.047 21.9534V26.7906C130.698 26.7906 128.744 27.8139 128.744 30.6976V39.7209H123.814V22.1395ZM144 40C138.977 40 135.535 37.0232 135.535 31.1627V30.7906C135.535 24.9302 139.163 21.6744 143.907 21.6744C148.279 21.6744 151.907 24.093 151.907 29.9534V32.093H140.558C140.744 35.2558 142.14 36.4651 144.186 36.4651C146.047 36.4651 147.07 35.4418 147.442 34.2325H152C151.256 37.4883 148.558 40 144 40ZM140.465 28.8372H147.07C146.977 26.2325 145.767 25.1162 143.814 25.1162C142.326 25.2093 140.93 26.0465 140.465 28.8372Z" fill="black"/>
</svg>
