<svg width="152" height="40" viewBox="0 0 152 40" fill="none" xmlns="http://www.w3.org/2000/svg">
<g clip-path="url(#clip0_111_3010)">
<path d="M16.819 0H0.0932617V40L16.819 0Z" fill="#FA0C00"/>
<path d="M28.5869 0H45.2908V40L28.5869 0Z" fill="#FA0C00"/>
<path d="M22.703 14.7426L33.3486 40H26.3641L23.1824 31.9586H15.3916L22.703 14.7426Z" fill="#FA0C00"/>
<path d="M72.5774 25.4375L74.5496 31.0926C74.6149 31.2342 74.713 31.2996 74.8873 31.2996H78.6792C78.8863 31.2996 78.919 31.2016 78.8863 30.9945L71.0519 9.2348C71.0192 9.06046 70.9865 9.02777 70.8122 9.02777H66.105C65.9742 9.02777 65.898 9.12584 65.898 9.26749C65.8326 10.4116 65.7345 10.7603 65.5929 11.0981L58.6084 30.9618C58.5757 31.2016 58.652 31.2996 58.8481 31.2996H62.2368C62.4439 31.2996 62.5419 31.2342 62.6182 31.0272L64.4815 25.4375H72.5774ZM65.5602 21.7437C66.5844 18.6491 67.9356 14.6829 68.4804 12.4165H68.5131C69.1886 14.7919 70.7795 19.499 71.4986 21.7437H65.5602Z" fill="#FA0C00"/>
<path d="M88.9578 31.6374C90.9954 31.6374 93.1638 31.2669 95.3648 30.3189C95.5391 30.2536 95.5718 30.1773 95.5718 30.0139C95.5064 29.4037 95.4302 28.5211 95.4302 27.8455V7.36062C95.4302 7.22987 95.4302 7.16449 95.2667 7.16449H91.5729C91.4313 7.16449 91.3659 7.22987 91.3659 7.40421V14.3451C90.7884 14.2797 90.3852 14.247 89.9058 14.247C83.9456 14.247 80.2844 18.1806 80.2844 23.0948C80.2844 28.7935 84.0436 31.6374 88.9578 31.6374ZM91.3659 27.8455C90.7557 28.0416 90.0801 28.1179 89.3937 28.1179C86.6914 28.1179 84.4795 26.5924 84.4795 22.8877C84.4795 19.608 86.7568 17.6684 89.775 17.6684C90.3852 17.6684 90.9191 17.7338 91.3659 17.9082V27.8455Z" fill="#FA0C00"/>
<path d="M107.356 14.247C102.267 14.247 99.1184 18.1479 99.1184 22.964C99.1184 27.268 101.625 31.6374 107.28 31.6374C112.063 31.6374 115.419 28.1179 115.419 22.855C115.419 18.2132 112.575 14.247 107.356 14.247ZM107.149 17.6684C110.026 17.6684 111.246 20.1419 111.246 22.964C111.246 26.4508 109.448 28.1833 107.356 28.1833C104.774 28.1833 103.248 26.0149 103.248 22.8877C103.248 19.6733 104.872 17.6684 107.149 17.6684Z" fill="#FA0C00"/>
<path d="M119.238 7.16449C119.096 7.16449 118.998 7.22987 118.998 7.40421V30.5914C118.998 30.6894 119.096 30.8638 119.238 30.8964C120.862 31.3977 122.561 31.6374 124.316 31.6374C129.339 31.6374 134.22 28.5211 134.22 22.2449C134.22 17.7011 131.104 14.247 126.222 14.247C125.1 14.247 124.054 14.4214 123.139 14.7265L123.095 7.43689C123.095 7.19718 123.03 7.16449 122.79 7.16449H119.238ZM130.047 22.6589C130.047 26.4181 127.476 28.1833 124.697 28.1833C124.12 28.1833 123.607 28.1506 123.139 28.0089V18.1152C123.673 17.9082 124.316 17.7338 125.503 17.7338C128.184 17.7338 130.047 19.4336 130.047 22.6589Z" fill="#FA0C00"/>
<path d="M148.006 23.8793C149.662 23.8793 151.024 23.8466 151.492 23.7376C151.667 23.7049 151.732 23.6395 151.765 23.4979C151.863 23.1274 151.906 22.3538 151.906 21.4058C151.906 18.1805 149.967 14.247 144.955 14.247C139.833 14.247 136.99 18.4203 136.99 23.1274C136.99 27.3007 139.191 31.6374 145.358 31.6374C147.668 31.6374 149.161 31.2669 150.446 30.6567C150.577 30.5913 150.642 30.4824 150.642 30.2862V27.4641C150.642 27.3007 150.544 27.268 150.446 27.3334C149.161 27.8782 147.766 28.1506 146.24 28.1506C142.786 28.1506 141.217 26.2437 141.119 23.8793H148.006ZM141.119 20.9591C141.392 19.3029 142.438 17.505 144.78 17.505C147.363 17.505 148.038 19.6733 148.038 20.654C148.038 20.6867 148.038 20.8283 148.038 20.9264C147.897 20.9591 147.461 20.9591 146.175 20.9591H141.119Z" fill="#FA0C00"/>
</g>
<defs>
<clipPath id="clip0_111_3010">
<rect width="151.813" height="40" fill="white" transform="translate(0.0932617)"/>
</clipPath>
</defs>
</svg>
