<svg width="100" height="40" viewBox="0 0 100 40" fill="none" xmlns="http://www.w3.org/2000/svg">
<g clip-path="url(#clip0_111_3048)">
<path d="M2.4753 35.7068L1.73895 37.978H3.1493L2.4753 35.7068ZM3.73549 39.9561L3.35063 38.674H1.50469L1.09436 39.9561H0.215088L2.02479 34.6153H2.92208L4.62552 39.9561H3.73549Z" fill="#231F20"/>
<path d="M8.18613 39.9561V37.6373H6.01021V39.9561H5.18628V34.6153H6.01021V36.9413H8.18613V34.6153H9.0103V39.9561H8.18613Z" fill="#231F20"/>
<path d="M10.0542 39.9561V34.6153H13.296V35.3112H10.8784V36.9413H12.6586V37.6373H10.8784V39.2602H13.296V39.9561H10.0542Z" fill="#231F20"/>
<path d="M15.853 35.7068L15.1167 37.978H16.527L15.853 35.7068ZM17.1132 39.9561L16.7284 38.674H14.8824L14.4721 39.9561H13.5928L15.4023 34.6153H16.2998L18.003 39.9561H17.1132Z" fill="#231F20"/>
<path d="M20.7027 39.2602C20.8687 39.2602 21.003 39.2375 21.1056 39.1923C21.2081 39.1471 21.2913 39.0795 21.3548 38.989C21.3914 38.9403 21.4219 38.8817 21.4463 38.8132C21.4707 38.7449 21.4913 38.6483 21.5087 38.5238C21.5258 38.3993 21.5379 38.238 21.5451 38.0404C21.5525 37.8426 21.5561 37.591 21.5561 37.2858C21.5561 36.9804 21.5525 36.729 21.5451 36.531C21.5379 36.3334 21.5258 36.172 21.5087 36.0476C21.4913 35.9231 21.4707 35.8265 21.4463 35.7582C21.4219 35.6899 21.3914 35.6313 21.3548 35.5823C21.2913 35.4921 21.2081 35.4243 21.1056 35.379C21.003 35.3338 20.8687 35.3112 20.7027 35.3112H19.3876V39.2602H20.7027ZM18.5635 39.9561V34.6153H20.6882C20.8368 34.6153 20.9732 34.6258 21.0963 34.6464C21.2198 34.6673 21.3322 34.6971 21.4333 34.7362C21.5348 34.7753 21.627 34.8216 21.71 34.8754C21.793 34.9292 21.87 34.9902 21.941 35.0585C22.0288 35.1441 22.1026 35.2497 22.1622 35.3753C22.2222 35.5011 22.2698 35.6539 22.3054 35.8333C22.3407 36.0129 22.3662 36.2221 22.3822 36.4614C22.398 36.7009 22.4062 36.9756 22.4062 37.2858C22.4062 37.5958 22.398 37.8707 22.3822 38.11C22.3662 38.3493 22.3407 38.5585 22.3054 38.7381C22.2698 38.9175 22.2222 39.0709 22.1622 39.1978C22.1026 39.3247 22.0288 39.4299 21.941 39.5129C21.87 39.5814 21.793 39.6428 21.71 39.6977C21.627 39.7528 21.5348 39.7991 21.4333 39.8371C21.3322 39.8749 21.2198 39.9043 21.0963 39.9249C20.9732 39.9458 20.8368 39.9561 20.6882 39.9561H18.5635Z" fill="#231F20"/>
<path d="M28.2009 38.9596C28.2377 38.9108 28.2698 38.8516 28.2981 38.782C28.3262 38.7124 28.3486 38.616 28.3659 38.4926C28.3829 38.3694 28.3958 38.2112 28.4044 38.0182C28.4129 37.8254 28.4171 37.5813 28.4171 37.2858C28.4171 36.9903 28.4129 36.7452 28.4044 36.5512C28.3958 36.3571 28.3829 36.199 28.3659 36.0767C28.3486 35.9547 28.3262 35.8589 28.2981 35.7893C28.2698 35.7198 28.2377 35.6605 28.2009 35.6117C28.1154 35.4993 27.9971 35.4137 27.8456 35.3553C27.6941 35.2967 27.488 35.2673 27.2265 35.2673C26.9626 35.2673 26.7558 35.2967 26.6056 35.3553C26.4557 35.4137 26.3376 35.4993 26.2522 35.6117C26.2155 35.6605 26.183 35.7198 26.1551 35.7893C26.127 35.8589 26.1037 35.9547 26.0858 36.0767C26.0673 36.199 26.0537 36.3571 26.0453 36.5512C26.0368 36.7452 26.0324 36.9903 26.0324 37.2858C26.0324 37.5813 26.0368 37.8254 26.0453 38.0182C26.0537 38.2112 26.0673 38.3694 26.0858 38.4926C26.1037 38.616 26.127 38.7124 26.1551 38.782C26.183 38.8516 26.2155 38.9108 26.2522 38.9596C26.3376 39.072 26.4557 39.1576 26.6056 39.2162C26.7558 39.2746 26.9626 39.304 27.2265 39.304C27.488 39.304 27.6941 39.2746 27.8456 39.2162C27.9971 39.1576 28.1154 39.072 28.2009 38.9596ZM28.8092 39.5128C28.7359 39.5886 28.6522 39.6564 28.558 39.7161C28.4641 39.7761 28.3541 39.8272 28.2285 39.87C28.1027 39.9126 27.9573 39.9451 27.7927 39.9671C27.6276 39.989 27.4393 40 27.2265 40C27.0115 40 26.8225 39.989 26.659 39.9671C26.4952 39.9451 26.3505 39.9126 26.2247 39.87C26.0987 39.8272 25.9891 39.7761 25.8952 39.7161C25.801 39.6564 25.7173 39.5886 25.644 39.5128C25.5589 39.4274 25.487 39.3212 25.4298 39.1941C25.3724 39.0672 25.3254 38.9139 25.2886 38.7343C25.2522 38.555 25.2258 38.3462 25.21 38.108C25.194 37.87 25.1863 37.5958 25.1863 37.2858C25.1863 36.9756 25.194 36.7013 25.21 36.4634C25.2258 36.2251 25.2522 36.0164 25.2886 35.837C25.3254 35.6574 25.3724 35.5042 25.4298 35.377C25.487 35.2502 25.5589 35.1441 25.644 35.0585C25.7173 34.983 25.801 34.9151 25.8952 34.8552C25.9891 34.7955 26.0987 34.7448 26.2247 34.7033C26.3505 34.6618 26.4952 34.6293 26.659 34.6062C26.8225 34.583 27.0115 34.5713 27.2265 34.5713C27.4393 34.5713 27.6276 34.583 27.7927 34.6062C27.9573 34.6293 28.1027 34.6618 28.2285 34.7033C28.3541 34.7448 28.4641 34.7955 28.558 34.8552C28.6522 34.9151 28.7359 34.983 28.8092 35.0585C28.8919 35.1441 28.9626 35.2502 29.0215 35.377C29.0803 35.5042 29.1278 35.6574 29.1644 35.837C29.2008 36.0164 29.2272 36.2251 29.2432 36.4634C29.2588 36.7013 29.2667 36.9756 29.2667 37.2858C29.2667 37.5958 29.2588 37.87 29.2432 38.108C29.2272 38.3462 29.2008 38.555 29.1644 38.7343C29.1278 38.9139 29.0803 39.0672 29.0215 39.1941C28.9626 39.3212 28.8919 39.4274 28.8092 39.5128Z" fill="#231F20"/>
<path d="M30.2415 39.9561V34.6153H33.4835V35.3112H31.0656V36.9413H32.8459V37.6373H31.0656V39.9561H30.2415Z" fill="#231F20"/>
<path d="M39.7691 39.9561L38.8607 36.8059L37.9085 39.9561H37.0147L35.6338 34.6153H36.5051L37.4722 38.8241L38.4797 35.6043H39.282L40.2121 38.7765L41.2306 34.6153H42.1024L40.6444 39.9561H39.7691Z" fill="#231F20"/>
<path d="M45.7069 39.9561V37.6373H43.531V39.9561H42.7068V34.6153H43.531V36.9413H45.7069V34.6153H46.531V39.9561H45.7069Z" fill="#231F20"/>
<path d="M49.3552 35.7068L48.6191 37.978H50.0292L49.3552 35.7068ZM50.6154 39.9561L50.2307 38.674H48.3846L47.9745 39.9561H47.095L48.9047 34.6153H49.802L51.5054 39.9561H50.6154Z" fill="#231F20"/>
<path d="M52.5533 39.9561V35.3112H51.1943V34.6153H54.7362V35.3112H53.3775V39.9561H52.5533Z" fill="#231F20"/>
<path d="M55.2129 36.0181C55.2934 36.0133 55.3589 36.0023 55.4087 35.9854C55.4588 35.9683 55.4978 35.9419 55.5259 35.9066C55.5538 35.871 55.5727 35.824 55.5828 35.7654C55.5927 35.7068 55.5973 35.6337 55.5973 35.5457V35.3883H55.2531V34.6152H55.9857V35.4614C55.9857 35.6128 55.9741 35.7393 55.951 35.8405C55.9277 35.9419 55.8897 36.0256 55.8373 36.0915C55.7848 36.1575 55.7163 36.21 55.6322 36.2491C55.5479 36.2879 55.4436 36.3187 55.3189 36.3406L55.2129 36.0181Z" fill="#231F20"/>
<path d="M59.4395 35.9266C59.435 35.8559 59.4221 35.7814 59.4013 35.7033C59.3811 35.6251 59.3372 35.5536 59.2715 35.489C59.2051 35.4242 59.109 35.3711 58.982 35.3296C58.855 35.2881 58.6802 35.2673 58.4582 35.2673C58.1114 35.2673 57.8461 35.3272 57.6612 35.4469C57.4769 35.5665 57.3847 35.7571 57.3847 36.0181C57.3847 36.1525 57.4173 36.2594 57.4819 36.3389C57.5466 36.4181 57.6343 36.4805 57.7439 36.5257C57.854 36.5707 57.9805 36.6043 58.1249 36.6263C58.2688 36.6482 58.4205 36.668 58.579 36.6849C58.7032 36.6996 58.8342 36.7178 58.9713 36.7398C59.1079 36.7619 59.2411 36.7935 59.3721 36.835C59.5025 36.8768 59.6272 36.9316 59.7458 36.9999C59.8638 37.0684 59.9678 37.1576 60.0572 37.2673C60.146 37.3771 60.2168 37.5115 60.2696 37.6704C60.3219 37.8291 60.3483 38.0182 60.3483 38.2379C60.3483 38.5262 60.3039 38.7802 60.2146 39C60.1258 39.2197 59.9982 39.4035 59.8318 39.5513C59.6654 39.699 59.4637 39.8108 59.2259 39.8865C58.9876 39.962 58.7195 40 58.4217 40C58.1187 40 57.8624 39.9629 57.6522 39.8883C57.442 39.8138 57.2684 39.7199 57.1307 39.6061C56.9924 39.4926 56.8845 39.3681 56.8058 39.2327C56.7277 39.097 56.6704 38.9664 56.6338 38.8406C56.5973 38.7148 56.5748 38.6037 56.5664 38.5073C56.558 38.4109 56.5535 38.3455 56.5535 38.3113H57.3701C57.3701 38.4285 57.3875 38.5457 57.4218 38.663C57.4555 38.7802 57.5129 38.8865 57.5938 38.9818C57.6742 39.0768 57.7815 39.1543 57.9164 39.2142C58.0502 39.2742 58.2188 39.304 58.4217 39.304C58.5875 39.304 58.737 39.2832 58.8702 39.2417C59.0034 39.2002 59.1169 39.1379 59.2108 39.0549C59.3052 38.9719 59.3771 38.868 59.4271 38.7435C59.4772 38.6191 59.5019 38.4748 59.5019 38.3113C59.5019 38.1405 59.4732 38.0048 59.4142 37.9047C59.3558 37.8046 59.2687 37.7266 59.154 37.6704C59.0393 37.6142 58.896 37.5714 58.724 37.5422C58.5515 37.5128 58.3509 37.4823 58.121 37.4504C57.9231 37.4212 57.7309 37.3835 57.5443 37.3369C57.3572 37.2906 57.1914 37.2197 57.0464 37.1244C56.9008 37.0293 56.7833 36.9016 56.6945 36.7417C56.6052 36.5817 56.5608 36.3747 56.5608 36.1209C56.5608 36.0695 56.5664 35.9951 56.5771 35.8974C56.5883 35.7997 56.6136 35.6934 56.6541 35.5786C56.6945 35.4638 56.7535 35.3467 56.8317 35.2269C56.9098 35.1074 57.0171 34.9994 57.1543 34.9028C57.2909 34.8064 57.4612 34.727 57.6652 34.6646C57.8692 34.6025 58.1165 34.5713 58.4071 34.5713C58.6583 34.5713 58.8685 34.5847 59.0371 34.6117C59.2051 34.6385 59.3457 34.6745 59.4581 34.7197C59.5705 34.765 59.661 34.8157 59.7295 34.8717C59.7975 34.9279 59.8588 34.9854 59.9122 35.0438C60.0297 35.1685 60.1134 35.307 60.1634 35.4596C60.2134 35.6124 60.2382 35.7678 60.2382 35.9266H59.4395Z" fill="#231F20"/>
<path d="M64.8649 37.3554C64.9723 37.3554 65.0847 37.3383 65.2021 37.304C65.319 37.2698 65.4264 37.2133 65.5242 37.1352C65.622 37.0568 65.7029 36.9523 65.7659 36.8212C65.8299 36.6904 65.8614 36.5284 65.8614 36.3352C65.8614 36.1958 65.8423 36.0642 65.8046 35.9406C65.7664 35.817 65.7119 35.7084 65.64 35.6142C65.5674 35.5198 65.4792 35.4458 65.3741 35.392C65.269 35.3382 65.1493 35.3112 65.015 35.3112H63.9016V37.3554H64.8649ZM63.0776 39.9561V34.6153H65.1178C65.3668 34.6153 65.5894 34.6556 65.7861 34.7362C65.9828 34.8168 66.1492 34.9321 66.2863 35.0822C66.4229 35.2326 66.5274 35.4133 66.5993 35.6245C66.6713 35.8357 66.7078 36.0719 66.7078 36.3334C66.7078 36.5947 66.6674 36.8309 66.5864 37.0421C66.5061 37.2533 66.3948 37.4335 66.2537 37.5824C66.1115 37.7315 65.944 37.8467 65.7496 37.9286C65.5556 38.0105 65.3449 38.0511 65.1178 38.0511H63.9016V39.9561H63.0776Z" fill="#231F20"/>
<path d="M70.4143 38.9596C70.4514 38.9108 70.4835 38.8516 70.5116 38.782C70.5397 38.7124 70.5621 38.616 70.5796 38.4926C70.5964 38.3694 70.6094 38.2112 70.6178 38.0182C70.6262 37.8254 70.6307 37.5813 70.6307 37.2858C70.6307 36.9903 70.6262 36.7452 70.6178 36.5512C70.6094 36.3571 70.5964 36.199 70.5796 36.0767C70.5621 35.9547 70.5397 35.8589 70.5116 35.7893C70.4835 35.7198 70.4514 35.6605 70.4143 35.6117C70.3289 35.4993 70.2109 35.4137 70.0591 35.3553C69.9074 35.2967 69.7017 35.2673 69.4398 35.2673C69.1762 35.2673 68.9693 35.2967 68.8193 35.3553C68.6692 35.4137 68.5512 35.4993 68.4658 35.6117C68.4292 35.6605 68.3966 35.7198 68.3685 35.7893C68.3404 35.8589 68.3174 35.9547 68.2994 36.0767C68.2809 36.199 68.2674 36.3571 68.2589 36.5512C68.2505 36.7452 68.246 36.9903 68.246 37.2858C68.246 37.5813 68.2505 37.8254 68.2589 38.0182C68.2674 38.2112 68.2809 38.3694 68.2994 38.4926C68.3174 38.616 68.3404 38.7124 68.3685 38.782C68.3966 38.8516 68.4292 38.9108 68.4658 38.9596C68.5512 39.072 68.6692 39.1576 68.8193 39.2162C68.9693 39.2746 69.1762 39.304 69.4398 39.304C69.7017 39.304 69.9074 39.2746 70.0591 39.2162C70.2109 39.1576 70.3289 39.072 70.4143 38.9596ZM71.0225 39.5128C70.9494 39.5886 70.8657 39.6564 70.7718 39.7161C70.6779 39.7761 70.5678 39.8272 70.4419 39.87C70.3165 39.9126 70.171 39.9451 70.0063 39.9671C69.8411 39.989 69.6528 40 69.4398 40C69.2251 40 69.0362 39.989 68.8727 39.9671C68.7086 39.9451 68.5641 39.9126 68.4382 39.87C68.3123 39.8272 68.2027 39.7761 68.1089 39.7161C68.0144 39.6564 67.9307 39.5886 67.8576 39.5128C67.7722 39.4274 67.7008 39.3212 67.6435 39.1941C67.5862 39.0672 67.539 38.9139 67.5024 38.7343C67.4659 38.555 67.4395 38.3462 67.4238 38.108C67.4075 37.87 67.4001 37.5958 67.4001 37.2858C67.4001 36.9756 67.4075 36.7013 67.4238 36.4634C67.4395 36.2251 67.4659 36.0164 67.5024 35.837C67.539 35.6574 67.5862 35.5042 67.6435 35.377C67.7008 35.2502 67.7722 35.1441 67.8576 35.0585C67.9307 34.983 68.0144 34.9151 68.1089 34.8552C68.2027 34.7955 68.3123 34.7448 68.4382 34.7033C68.5641 34.6618 68.7086 34.6293 68.8727 34.6062C69.0362 34.583 69.2251 34.5713 69.4398 34.5713C69.6528 34.5713 69.8411 34.583 70.0063 34.6062C70.171 34.6293 70.3165 34.6618 70.4419 34.7033C70.5678 34.7448 70.6779 34.7955 70.7718 34.8552C70.8657 34.9151 70.9494 34.983 71.0225 35.0585C71.1056 35.1441 71.1765 35.2502 71.2349 35.377C71.2939 35.5042 71.3411 35.6574 71.3782 35.837C71.4148 36.0164 71.4412 36.2251 71.4569 36.4634C71.4726 36.7013 71.4805 36.9756 71.4805 37.2858C71.4805 37.5958 71.4726 37.87 71.4569 38.108C71.4412 38.3462 71.4148 38.555 71.3782 38.7343C71.3411 38.9139 71.2939 39.0672 71.2349 39.1941C71.1765 39.3212 71.1056 39.4274 71.0225 39.5128Z" fill="#231F20"/>
<path d="M75.1539 35.9266C75.1494 35.8559 75.1364 35.7814 75.1157 35.7033C75.0949 35.6251 75.0516 35.5536 74.9858 35.489C74.9195 35.4242 74.8234 35.3711 74.6964 35.3296C74.5694 35.2881 74.3946 35.2673 74.1726 35.2673C73.8258 35.2673 73.5605 35.3272 73.3756 35.4469C73.1912 35.5665 73.0991 35.7571 73.0991 36.0181C73.0991 36.1525 73.1317 36.2594 73.1963 36.3389C73.2609 36.4181 73.3486 36.4805 73.4582 36.5257C73.5684 36.5707 73.6948 36.6043 73.8393 36.6263C73.9831 36.6482 74.1343 36.668 74.2934 36.6849C74.4176 36.6996 74.5486 36.7178 74.6851 36.7398C74.8223 36.7619 74.9555 36.7935 75.0864 36.835C75.2168 36.8768 75.3416 36.9316 75.4602 36.9999C75.5782 37.0684 75.6822 37.1576 75.7715 37.2673C75.8603 37.3771 75.9312 37.5115 75.984 37.6704C76.0363 37.8291 76.0627 38.0182 76.0627 38.2379C76.0627 38.5262 76.0183 38.7802 75.9289 39C75.8401 39.2197 75.7125 39.4035 75.5462 39.5513C75.3798 39.699 75.178 39.8108 74.9403 39.8865C74.702 39.962 74.4339 40 74.136 40C73.8331 40 73.5768 39.9629 73.3666 39.8883C73.1564 39.8138 72.9827 39.7199 72.845 39.6061C72.7068 39.4926 72.5989 39.3681 72.5202 39.2327C72.4421 39.097 72.3847 38.9664 72.3482 38.8406C72.3117 38.7148 72.2892 38.6037 72.2807 38.5073C72.2723 38.4109 72.2678 38.3455 72.2678 38.3113H73.0845C73.0845 38.4285 73.1019 38.5457 73.1362 38.663C73.1699 38.7802 73.2272 38.8865 73.3081 38.9818C73.3885 39.0768 73.4959 39.1543 73.6308 39.2142C73.7645 39.2742 73.9331 39.304 74.136 39.304C74.3018 39.304 74.4513 39.2832 74.5845 39.2417C74.7177 39.2002 74.8313 39.1379 74.9251 39.0549C75.0195 38.9719 75.0915 38.868 75.1415 38.7435C75.1915 38.6191 75.2163 38.4748 75.2163 38.3113C75.2163 38.1405 75.1876 38.0048 75.1286 37.9047C75.0701 37.8046 74.983 37.7266 74.8684 37.6704C74.7537 37.6142 74.6104 37.5714 74.4384 37.5422C74.2659 37.5128 74.0646 37.4823 73.8353 37.4504C73.6375 37.4212 73.4453 37.3835 73.2587 37.3369C73.0715 37.2906 72.9057 37.2197 72.7607 37.1244C72.6152 37.0293 72.4977 36.9016 72.4089 36.7417C72.3195 36.5817 72.2751 36.3747 72.2751 36.1209C72.2751 36.0695 72.2808 35.9951 72.2914 35.8974C72.3027 35.7997 72.328 35.6934 72.3684 35.5786C72.4089 35.4638 72.4679 35.3467 72.546 35.2269C72.6241 35.1074 72.7315 34.9994 72.8686 34.9028C73.0052 34.8064 73.1755 34.727 73.3795 34.6646C73.5835 34.6025 73.8303 34.5713 74.1214 34.5713C74.3726 34.5713 74.5828 34.5847 74.7514 34.6117C74.9195 34.6385 75.06 34.6745 75.1724 34.7197C75.2848 34.765 75.3753 34.8157 75.4439 34.8717C75.5119 34.9279 75.5731 34.9854 75.6265 35.0438C75.744 35.1685 75.8277 35.307 75.8778 35.4596C75.9278 35.6124 75.9525 35.7678 75.9525 35.9266H75.1539Z" fill="#231F20"/>
<path d="M79.6159 35.9266C79.6108 35.8559 79.5984 35.7814 79.5776 35.7033C79.5568 35.6251 79.5136 35.5536 79.4472 35.489C79.3815 35.4242 79.2848 35.3711 79.1578 35.3296C79.0308 35.2881 78.8565 35.2673 78.634 35.2673C78.2872 35.2673 78.0219 35.3272 77.8376 35.4469C77.6532 35.5665 77.5611 35.7571 77.5611 36.0181C77.5611 36.1525 77.5931 36.2594 77.6583 36.3389C77.7229 36.4181 77.81 36.4805 77.9196 36.5257C78.0298 36.5707 78.1568 36.6043 78.3007 36.6263C78.4446 36.6482 78.5963 36.668 78.7554 36.6849C78.8796 36.6996 79.01 36.7178 79.1471 36.7398C79.2837 36.7619 79.4175 36.7935 79.5479 36.835C79.6788 36.8768 79.803 36.9316 79.9216 36.9999C80.0402 37.0684 80.1442 37.1576 80.233 37.2673C80.3223 37.3771 80.3932 37.5115 80.4454 37.6704C80.4983 37.8291 80.5247 38.0182 80.5247 38.2379C80.5247 38.5262 80.4797 38.7802 80.3903 39C80.3015 39.2197 80.174 39.4035 80.0082 39.5513C79.8418 39.699 79.6395 39.8108 79.4017 39.8865C79.1634 39.962 78.8953 40 78.5975 40C78.2945 40 78.0382 39.9629 77.8286 39.8883C77.6184 39.8138 77.4442 39.7199 77.3065 39.6061C77.1682 39.4926 77.0603 39.3681 76.9822 39.2327C76.904 39.097 76.8467 38.9664 76.8102 38.8406C76.7731 38.7148 76.7506 38.6037 76.7422 38.5073C76.7337 38.4109 76.7292 38.3455 76.7292 38.3113H77.5464C77.5464 38.4285 77.5633 38.5457 77.5976 38.663C77.6319 38.7802 77.6892 38.8865 77.7696 38.9818C77.8505 39.0768 77.9579 39.1543 78.0922 39.2142C78.2265 39.2742 78.3951 39.304 78.5975 39.304C78.7638 39.304 78.9133 39.2832 79.0465 39.2417C79.1797 39.2002 79.2927 39.1379 79.3871 39.0549C79.481 38.9719 79.5529 38.868 79.6029 38.7435C79.653 38.6191 79.6782 38.4748 79.6782 38.3113C79.6782 38.1405 79.649 38.0048 79.5906 37.9047C79.5316 37.8046 79.445 37.7266 79.3303 37.6704C79.2157 37.6142 79.0718 37.5714 78.8998 37.5422C78.7278 37.5128 78.5266 37.4823 78.2973 37.4504C78.0995 37.4212 77.9073 37.3835 77.7201 37.3369C77.5335 37.2906 77.3672 37.2197 77.2222 37.1244C77.0766 37.0293 76.9597 36.9016 76.8703 36.7417C76.781 36.5817 76.7366 36.3747 76.7366 36.1209C76.7366 36.0695 76.7422 35.9951 76.7534 35.8974C76.7641 35.7997 76.7899 35.6934 76.8299 35.5786C76.8703 35.4638 76.9299 35.3467 77.008 35.2269C77.0856 35.1074 77.1935 34.9994 77.3301 34.9028C77.4672 34.8064 77.6369 34.727 77.841 34.6646C78.045 34.6025 78.2923 34.5713 78.5828 34.5713C78.8346 34.5713 79.0443 34.5847 79.2129 34.6117C79.3815 34.6385 79.522 34.6745 79.6344 34.7197C79.7462 34.765 79.8367 34.8157 79.9053 34.8717C79.9739 34.9279 80.0346 34.9854 80.0885 35.0438C80.2054 35.1685 80.2892 35.307 80.3398 35.4596C80.3892 35.6124 80.4145 35.7678 80.4145 35.9266H79.6159Z" fill="#231F20"/>
<path d="M81.3926 39.9561H82.217V34.6153H81.3926V39.9561Z" fill="#231F20"/>
<path d="M85.4297 39.2602C85.5561 39.2602 85.6685 39.2345 85.7663 39.1831C85.8641 39.1319 85.9462 39.0661 86.0119 38.9853C86.0777 38.9047 86.1272 38.8156 86.1598 38.7179C86.1935 38.6202 86.2098 38.5251 86.2098 38.4323C86.2098 38.3078 86.1918 38.1967 86.1564 38.099C86.121 38.0013 86.0709 37.9181 86.0063 37.8498C85.9417 37.7815 85.8641 37.7288 85.7736 37.6924C85.6832 37.6557 85.5831 37.6373 85.4735 37.6373H84.0993V39.2602H85.4297ZM85.2498 36.9413C85.4111 36.9413 85.5477 36.9145 85.6601 36.8608C85.7725 36.8072 85.8636 36.7398 85.9333 36.6594C86.0024 36.5786 86.0535 36.4915 86.085 36.3973C86.1165 36.3033 86.1328 36.2173 86.1328 36.1391C86.1328 35.8484 86.0502 35.6379 85.8855 35.5073C85.7208 35.3766 85.4831 35.3112 85.1728 35.3112H84.0993V36.9413H85.2498ZM83.2754 39.9561V34.6153H85.4443C85.6786 34.6153 85.8787 34.6447 86.0445 34.7033C86.2109 34.7619 86.3514 34.8363 86.4661 34.9266C86.5807 35.017 86.6718 35.1178 86.7386 35.2289C86.8061 35.34 86.8578 35.448 86.8949 35.5529C86.9314 35.6581 86.955 35.7534 86.9663 35.8388C86.977 35.9242 86.9826 35.9865 86.9826 36.0256C86.9826 36.1185 86.9736 36.2186 86.955 36.3259C86.9365 36.4335 86.9022 36.5409 86.8522 36.6482C86.8027 36.7558 86.7347 36.859 86.6493 36.9578C86.5639 37.0568 86.4548 37.1429 86.3233 37.2162C86.565 37.331 86.7471 37.4902 86.8707 37.6941C86.9938 37.8981 87.0556 38.1319 87.0556 38.3956C87.0556 38.4542 87.0506 38.5337 87.041 38.6338C87.0315 38.7339 87.0079 38.8413 86.9713 38.9561C86.9348 39.0709 86.882 39.1881 86.8123 39.3078C86.7426 39.4275 86.6482 39.5348 86.5284 39.6301C86.4087 39.7252 86.2604 39.8035 86.0833 39.8646C85.9063 39.9256 85.6933 39.9561 85.4443 39.9561H83.2754Z" fill="#231F20"/>
<path d="M87.9094 39.9561V34.6153H88.7334V39.2602H90.814V39.9561H87.9094Z" fill="#231F20"/>
<path d="M91.4624 39.9561V34.6153H94.7042V35.3112H92.2863V36.9413H94.0669V37.6373H92.2863V39.2602H94.7042V39.9561H91.4624Z" fill="#231F20"/>
<path d="M96.124 37.1754V34.9439H95.4714V34.6095H97.1733V34.9439H96.5202V37.1754H96.124Z" fill="#231F20"/>
<path d="M99.4086 37.1754V35.2976L98.7785 36.5982H98.4598L97.8478 35.3151V37.1754H97.4729V34.6095H97.913L98.6307 36.116L99.3507 34.6095H99.7834V37.1754H99.4086Z" fill="#231F20"/>
<path d="M0.504395 0.279357H26.7718V26.6881H0.504395V0.279357ZM5.91047 4.3903V23.3377L22.3805 13.6531L5.91047 4.3903ZM35.6127 26.4078H31.08V14.638H35.6401C39.0191 14.638 41.0459 17.3125 41.0459 20.7189C41.0459 24.1265 39.2449 26.4078 35.6127 26.4078ZM39.6381 11.9648L38.7388 9.3461H34.4019L33.613 11.9648H31.2486L35.2182 0.167791H37.6112L42.0596 11.9648H39.6381ZM35.4155 16.6376H33.5571V24.5768H35.5569C38.2028 24.5768 38.5974 22.324 38.5688 20.6072C38.5688 19.2552 37.9212 16.6376 35.4155 16.6376ZM37.9212 6.98049L36.4289 2.6449L35.1066 6.95329L35.021 7.68394H37.9498C37.9498 7.29074 37.9783 7.20621 37.9212 6.98049ZM41.8919 26.4078V14.638H50.563V16.6093H44.2553V19.1149H49.8299V21.2549H44.2838V24.4082H50.7602V26.4078H41.8919ZM50.0556 11.9648L44.8755 3.99581V11.9648H42.511V0.167791H44.9326L49.9142 8.02245V0.167791H52.2798V11.9648H50.0556ZM57.4599 26.3792H55.2075L51.3235 15.2582V14.638H53.6867L56.3337 23.2531L58.924 14.6665H61.2323V15.2857L57.4599 26.3792ZM61.2053 11.9648L60.3033 9.3461H55.968L55.1803 11.9648H52.8147L56.7844 0.167791H59.1781L63.6255 11.9648H61.2053ZM59.5147 7.03625L58.0231 2.58915L56.5298 7.03625V7.68394H59.5715C59.5715 7.29074 59.5715 7.23363 59.5147 7.03625ZM61.9647 14.6665H64.4702V26.3792H61.9647V14.6665ZM64.1319 11.9648V0.167791H66.4699V9.96518H71.7334V11.9648H64.1319ZM70.6925 26.6881C64.2459 26.8295 63.1179 14.3851 70.72 14.4694C74.9437 14.4694 75.6755 17.9887 75.8441 18.5233H73.5072C73.1413 17.7926 72.1836 16.3847 71.0027 16.2991C66.8358 16.0187 66.8358 24.8299 71.0027 24.8299C73.0013 24.8299 73.4802 22.8314 73.5915 22.6068H75.8728C75.8728 22.6343 75.5901 26.6324 70.6925 26.6881ZM77.1677 12.1609C69.5937 12.1609 69.8764 -0.058089 77.252 -0.00104249C84.3752 0.0547113 84.5725 12.1609 77.1677 12.1609ZM77.0834 10.1909C81.4465 10.2181 81.4465 2.05325 77.1677 1.9975C72.917 1.96895 72.7754 10.1623 77.0834 10.1909ZM76.2948 26.4078V14.638H84.6557V16.7792H78.5475V19.1992H83.952V21.3106H78.5745V24.4082H84.9384V26.4078H76.2948ZM92.174 11.682V10.5569C91.9211 10.7813 90.7937 12.2178 88.6821 12.1609C81.4762 11.992 81.4465 0.167793 89.021 0.0264418C90.8493 0.0264418 92.3702 1.1812 92.962 1.9975C93.6662 2.9266 93.7224 3.71541 93.7505 3.9128H91.7514C91.3006 3.17951 90.5964 1.94152 88.9367 1.94152C84.5438 1.88576 84.2634 10.1909 88.908 10.2741C90.9634 10.3299 92.0043 8.19128 92.0043 8.16386V7.54365H89.1896V5.71395H94.031V11.682H92.174ZM89.977 26.7167C84.994 26.7167 85.0502 22.8874 85.0502 22.8874H87.3029C87.3029 22.8874 87.1331 24.7456 89.6409 24.9145C90.2603 24.9428 92.287 24.6899 92.287 23.2817C92.287 21.6494 90.2305 21.7324 88.9367 21.3677C87.6401 21.0289 85.1913 20.4658 85.1913 18.1858C85.1913 16.1873 86.824 14.4694 89.977 14.4694C94.2013 14.4979 94.1726 17.7641 94.2013 17.9612H92.0341C91.8913 17.4813 91.7514 16.3276 89.8657 16.2718C88.9367 16.2718 87.5282 16.5818 87.5282 17.6785C87.5282 19.0592 89.1042 19.2552 90.7661 19.5081C93.2722 19.9883 94.7082 20.7488 94.6228 23.056C94.5672 25.0831 92.7647 26.7167 89.977 26.7167Z" fill="#231F20"/>
</g>
<defs>
<clipPath id="clip0_111_3048">
<rect width="99.57" height="40" fill="white" transform="translate(0.215088)"/>
</clipPath>
</defs>
</svg>
