<svg width="31" height="36" viewBox="0 0 31 36" fill="none" xmlns="http://www.w3.org/2000/svg">
    <g clip-path="url(#clip0_722_250)">
        <path d="M6.66317 25.3807C6.6872 24.9207 7.01062 23.638 7.69134 21.7346C8.96426 18.1639 11.6685 12.9673 16.6761 11.3436L16.6837 12.7466C16.6837 12.7466 11.8433 14.2948 8.15352 21.916C7.41271 23.4489 6.90573 25.0278 6.69813 25.3906L6.66317 25.3807ZM13.5424 24.1766C18.8078 22.895 19.931 16.8024 19.9267 11.8331C19.9245 8.13019 19.2995 5.05005 19.2995 5.05005C7.55476 9.59651 4.91058 13.908 4.88763 16.8505C4.88763 17.9399 5.19685 18.8227 5.44706 19.1953L5.46564 19.1833C5.33817 18.726 5.26699 18.2549 5.25367 17.7803C5.22963 15.1657 7.48155 11.3425 18.0069 7.26701C18.0069 7.26701 18.5674 10.0052 18.5718 13.2929C18.5794 17.5269 17.7283 22.6579 13.5107 24.1515L13.5424 24.1766Z" fill="#00A94F"/>
        <path d="M19.79 4.14434C15.3135 5.85102 11.9067 7.55225 9.43409 9.28297C6.93962 11.0268 5.37279 12.7969 4.64073 14.6958C4.42312 15.2529 4.29123 15.8398 4.24957 16.4364L3.29461 15.6399C2.50136 14.9788 1.66003 14.2195 1.66003 13.0056C1.66003 11.7905 2.50136 11.0312 3.29461 10.3723L15.4053 0.279713C15.6413 0.0808545 15.7877 0 15.9888 0C16.1887 0 16.333 0.0808545 16.5701 0.279713L28.6829 10.3723C29.4751 11.0312 30.3153 11.7905 30.3153 13.0056C30.3153 14.2195 29.474 14.9788 28.6829 15.6399L16.5701 25.7292C16.333 25.9292 16.1887 26.0111 15.9888 26.0111C15.7877 26.0111 15.6413 25.9292 15.4053 25.7292C15.248 25.5992 14.9639 25.3599 14.1674 24.6978C16.6028 23.9591 18.3445 22.1312 19.3716 19.5384C20.1867 17.4875 20.5986 14.8947 20.5986 11.8343C20.5986 8.03191 19.9605 4.85018 19.79 4.14434Z" fill="#004B91"/>
        <path d="M5.13789 31.9573C4.19166 31.9573 3.36017 32.5593 3.36017 33.0727C3.36017 33.5087 3.86278 33.6966 4.33589 33.6966C5.24387 33.6966 6.10596 33.1285 6.10596 32.5658C6.10596 32.2129 5.71152 31.9573 5.13789 31.9573Z" fill="#00A94F"/>
        <path d="M25.5602 34.6157L22.2845 27.3388H20.3942V36.0001H21.7043V28.7942H21.7316L24.9767 36.0001H26.1557L29.4041 28.7942H29.4314V36.0001H30.7414V27.3388H28.8501L25.5656 34.6157H25.5602ZM10.3847 27.3388H13.8406C16.971 27.3388 18.9421 28.9537 18.9421 31.6722C18.9421 34.2573 17.0726 36.0001 13.8406 36.0001H10.3847V27.3388ZM11.7679 35.0276H13.8483C16.3755 35.0276 17.56 33.6061 17.56 31.6798C17.56 29.618 16.2772 28.3101 13.8778 28.3101H11.7679V35.0276ZM4.84066 28.3822H4.81881L1.45679 36.0001H0.00250244L4.0649 27.3388H5.64702L9.70832 36.0001H8.15242L4.84066 28.3822ZM21.2115 25.2792C21.0947 25.2798 20.979 25.2571 20.871 25.2126C20.763 25.1681 20.6649 25.1025 20.5825 25.0198C20.5 24.937 20.4349 24.8387 20.3907 24.7306C20.3466 24.6224 20.3244 24.5066 20.3254 24.3898C20.3254 23.8773 20.7351 23.5015 21.2137 23.5015C21.7272 23.5015 22.1086 23.9068 22.1042 24.3941C22.1051 24.5113 22.0825 24.6274 22.0379 24.7357C21.9933 24.8439 21.9274 24.9422 21.8442 25.0247C21.7611 25.1071 21.6623 25.1721 21.5536 25.2158C21.4449 25.2595 21.3286 25.2811 21.2115 25.2792ZM21.2181 23.6085C21.1149 23.6075 21.0126 23.627 20.9171 23.6658C20.8215 23.7047 20.7347 23.7621 20.6615 23.8348C20.5883 23.9074 20.5303 23.9939 20.4908 24.0892C20.4513 24.1845 20.4311 24.2866 20.4314 24.3898C20.4314 24.829 20.7832 25.1721 21.2137 25.1721C21.3167 25.1733 21.4189 25.1539 21.5143 25.1152C21.6097 25.0764 21.6965 25.0191 21.7695 24.9465C21.8425 24.8738 21.9003 24.7874 21.9396 24.6922C21.9789 24.597 21.9988 24.4949 21.9982 24.392C21.9997 24.2889 21.9805 24.1867 21.9419 24.0912C21.9032 23.9957 21.8459 23.9089 21.7732 23.8359C21.7005 23.7629 21.6139 23.7052 21.5186 23.6661C21.4233 23.6271 21.3211 23.6075 21.2181 23.6085ZM21.1984 23.8872C21.3262 23.8872 21.3863 23.8872 21.4541 23.9101C21.5655 23.9494 21.6213 24.0412 21.6213 24.1363C21.6213 24.275 21.5109 24.3559 21.3743 24.3778C21.4923 24.4182 21.5306 24.4761 21.5513 24.5974C21.5765 24.7427 21.5841 24.7984 21.6333 24.888H21.4475C21.4235 24.8421 21.4147 24.7984 21.4038 24.7503C21.3984 24.7274 21.3809 24.6159 21.3765 24.5908C21.3448 24.4422 21.2552 24.4258 21.099 24.4236H21.0181V24.8891H20.8586V23.8893H21.1984V23.8872ZM21.0214 24.3045H21.2071C21.276 24.3045 21.4585 24.3067 21.4585 24.1461C21.4588 24.125 21.4543 24.1042 21.4454 24.0851C21.4365 24.0659 21.4234 24.0491 21.4071 24.0358C21.3612 23.9975 21.3066 23.9975 21.1733 23.9975H21.0203V24.3045H21.0214Z" fill="#004B91"/>
    </g>
    <defs>
        <clipPath id="clip0_722_250">
            <rect width="30.744" height="36" fill="white"/>
        </clipPath>
    </defs>
</svg>
