<svg width="66" height="30" viewBox="0 0 66 30" fill="none" xmlns="http://www.w3.org/2000/svg">
    <g clip-path="url(#clip0_102:100)">
        <path d="M57.6731 27.3503V26.6498H58.1874C58.5296 26.6498 58.6222 26.7554 58.6222 26.9602C58.6222 27.1699 58.5296 27.3389 58.1265 27.3503H57.6731ZM58.034 27.7779C58.1817 27.7909 58.324 27.7779 58.4313 27.89C58.554 28.0201 58.554 28.2378 58.5849 28.4735C58.6043 28.6345 58.6474 28.8083 58.6783 28.9628H59.2243C59.1309 28.7157 59.1 28.4297 59.0627 28.1696C59.0188 27.8721 58.9765 27.7047 58.5979 27.6299V27.6169C58.9643 27.5422 59.1561 27.2951 59.1561 26.9781C59.1561 26.3588 58.6344 26.2223 58.1329 26.2223H57.2456V28.9628H57.6731V27.7779H58.034ZM58.1697 29.9608C59.4609 29.9608 60.4953 28.9205 60.4953 27.6234C60.4953 26.3393 59.4609 25.2974 58.1697 25.2974C56.8735 25.2974 55.8317 26.3393 55.8317 27.6234C55.8317 28.9205 56.8735 29.9608 58.1697 29.9608ZM58.1697 29.5528C57.1034 29.5528 56.2421 28.6897 56.2421 27.6234C56.2421 26.5701 57.1034 25.707 58.1697 25.707C59.2309 25.707 60.0873 26.5701 60.0873 27.6234C60.0873 28.6897 59.2309 29.5528 58.1697 29.5528Z" fill="#EE2722"/>
        <path d="M54.2277 6.42209H50.4824V10.1639H54.2277C55.1167 10.1639 55.8318 10.888 55.8318 11.7719C55.8318 12.6619 55.1167 13.377 54.2277 13.377H50.4824V17.1221H54.2277C57.1832 17.1221 59.5772 14.7254 59.5772 11.7719C59.5772 8.81759 57.1832 6.42209 54.2277 6.42209ZM32.8837 26.2223C37.3669 26.2223 41.2307 23.5963 43.0357 19.796H47.8098V26.2223H50.4824V19.796H54.2277C58.6622 19.796 62.2547 16.2029 62.2547 11.7719C62.2547 7.3397 58.6622 3.74536 54.2277 3.74536H47.8098V13.377H44.0009C43.2241 7.93377 38.5427 3.74536 32.8837 3.74536H19.7127L6.61143 26.2223H9.73679L13.4813 19.796H26.945V26.2223H32.8837ZM66 11.7719C66 18.2721 60.7286 23.541 54.2277 23.541V29.9608H44.066V24.9527C41.3169 28.0265 37.3294 29.9608 32.8837 29.9608H23.1998V23.541H15.6311L11.8866 29.9608H0L17.4721 0.000291824H32.8837C37.3294 0.000291824 41.3169 1.93991 44.066 5.01403V0.000291824H54.2277C60.7286 0.000291824 66 5.27334 66 11.7719ZM23.1998 6.42209V13.377H17.2258L15.0439 17.1221H26.945V6.42209H23.1998ZM41.4453 14.9806C41.4453 19.709 37.6106 23.541 32.8837 23.541H29.6193V19.796H32.8837C35.545 19.796 37.7015 17.643 37.7015 14.9806C37.7015 12.3237 35.545 10.1639 32.8837 10.1639H29.6193V6.42209H32.8837C37.6106 6.42209 41.4453 10.2541 41.4453 14.9806Z" fill="#EE2722"/>
        <path d="M54.2277 6.42209H50.4824V10.1639H54.2277C55.1167 10.1639 55.8318 10.888 55.8318 11.7719C55.8318 12.6619 55.1167 13.377 54.2277 13.377H50.4824V17.1221H54.2277C57.1832 17.1221 59.5772 14.7254 59.5772 11.7719C59.5772 8.81759 57.1832 6.42209 54.2277 6.42209ZM32.8837 26.2223C37.3669 26.2223 41.2307 23.5963 43.0357 19.796H47.8098V26.2223H50.4824V19.796H54.2277C58.6622 19.796 62.2547 16.2029 62.2547 11.7719C62.2547 7.3397 58.6622 3.74536 54.2277 3.74536H47.8098V13.377H44.0009C43.2241 7.93377 38.5427 3.74536 32.8837 3.74536H19.7127L6.61143 26.2223H9.73679L13.4813 19.796H26.945V26.2223H32.8837ZM66 11.7719C66 18.2721 60.7286 23.541 54.2277 23.541V29.9608H44.066V24.9527C41.3169 28.0265 37.3294 29.9608 32.8837 29.9608H23.1998V23.541H15.6311L11.8866 29.9608H0L17.4721 0.000291824H32.8837C37.3294 0.000291824 41.3169 1.93991 44.066 5.01403V0.000291824H54.2277C60.7286 0.000291824 66 5.27334 66 11.7719ZM23.1998 6.42209V13.377H17.2258L15.0439 17.1221H26.945V6.42209H23.1998ZM41.4453 14.9806C41.4453 19.709 37.6106 23.541 32.8837 23.541H29.6193V19.796H32.8837C35.545 19.796 37.7015 17.643 37.7015 14.9806C37.7015 12.3237 35.545 10.1639 32.8837 10.1639H29.6193V6.42209H32.8837C37.6106 6.42209 41.4453 10.2541 41.4453 14.9806Z" fill="#EE2722"/>
        <path d="M54.2277 6.42209H50.4824V10.1639H54.2277C55.1167 10.1639 55.8318 10.888 55.8318 11.7719C55.8318 12.6619 55.1167 13.377 54.2277 13.377H50.4824V17.1221H54.2277C57.1832 17.1221 59.5772 14.7254 59.5772 11.7719C59.5772 8.81759 57.1832 6.42209 54.2277 6.42209ZM32.8837 26.2223C37.3669 26.2223 41.2307 23.5963 43.0357 19.796H47.8098V26.2223H50.4824V19.796H54.2277C58.6622 19.796 62.2547 16.2029 62.2547 11.7719C62.2547 7.3397 58.6622 3.74536 54.2277 3.74536H47.8098V13.377H44.0009C43.2241 7.93377 38.5427 3.74536 32.8837 3.74536H19.7127L6.61143 26.2223H9.73679L13.4813 19.796H26.945V26.2223H32.8837ZM66 11.7719C66 18.2721 60.7286 23.541 54.2277 23.541V29.9608H44.066V24.9527C41.3169 28.0265 37.3294 29.9608 32.8837 29.9608H23.1998V23.541H15.6311L11.8866 29.9608H0L17.4721 0.000291824H32.8837C37.3294 0.000291824 41.3169 1.93991 44.066 5.01403V0.000291824H54.2277C60.7286 0.000291824 66 5.27334 66 11.7719ZM23.1998 6.42209V13.377H17.2258L15.0439 17.1221H26.945V6.42209H23.1998ZM41.4453 14.9806C41.4453 19.709 37.6106 23.541 32.8837 23.541H29.6193V19.796H32.8837C35.545 19.796 37.7015 17.643 37.7015 14.9806C37.7015 12.3237 35.545 10.1639 32.8837 10.1639H29.6193V6.42209H32.8837C37.6106 6.42209 41.4453 10.2541 41.4453 14.9806Z" fill="#EE2722"/>
    </g>
    <defs>
        <clipPath id="clip0_102:100">
            <rect width="66" height="29.9605" fill="white"/>
        </clipPath>
    </defs>
</svg>
