<svg width="54" height="36" viewBox="0 0 54 36" fill="none" xmlns="http://www.w3.org/2000/svg">
    <g clip-path="url(#clip0_222:347)">
        <path d="M49.1887 35.9842C46.6974 35.9842 45.2199 34.7094 45.1068 32.8731H47.4888C47.4888 33.4852 47.8281 34.3 49.3017 34.3507C50.3232 34.3507 50.8885 33.7386 50.8885 33.2786C50.7754 32.5651 49.867 32.5144 48.9626 32.3584C47.9412 32.2104 47.1497 32.0037 46.5805 31.7503C45.7891 31.3409 45.3329 30.4716 45.3329 29.5553C45.3329 27.9218 46.6974 26.647 49.0756 26.647C51.3447 26.647 52.8183 27.8205 52.9275 29.6061H50.6624C50.6624 29.1499 50.5493 28.3818 49.1887 28.3818C48.2804 28.3818 47.7151 28.5339 47.602 29.1966C47.602 30.1168 49.5278 30.0661 51.0016 30.4208C52.3622 30.7796 53.2705 31.6451 53.2705 32.8731C53.2705 35.1187 51.4577 35.9842 49.1887 35.9842Z" fill="black"/>
        <path d="M5.78186 20.918L13.6025 16.3761L17.7975 23.573H7.25554" fill="black"/>
        <path fill-rule="evenodd" clip-rule="evenodd" d="M23.3717 26.6296V35.7134H21.0833V26.6296H23.3717Z" fill="black"/>
        <path d="M2.15205 31.306C2.15205 32.7328 3.39961 33.9063 4.75633 33.9063C6.23392 33.9063 7.36451 32.7328 7.36451 31.306C7.36451 29.9297 6.23392 28.7055 4.75633 28.7055C3.39961 28.7055 2.15205 29.9297 2.15205 31.306ZM4.64327 35.9999C2.15205 35.9999 0 33.9063 0 31.306C0 28.7056 2.15205 26.6627 4.64327 26.6627C5.66472 26.6627 6.57309 26.9199 7.36451 27.4774V26.7641H9.63352V35.7933H7.36451V35.2318C6.68615 35.7426 5.66472 35.9999 4.64327 35.9999Z" fill="black"/>
        <path d="M34.9131 23.571L24.0321 4.59256L31.8528 0L45.4549 23.571" fill="black"/>
        <path d="M12.5808 31.306C12.5808 32.7329 13.7152 33.9063 15.1889 33.9063C16.5456 33.9063 17.7971 32.7329 17.7971 31.306C17.7971 29.9297 16.5456 28.7056 15.1889 28.7056C13.7152 28.7056 12.5808 29.9297 12.5808 31.306ZM15.0759 36C12.4676 36 10.4287 33.9063 10.4287 31.306C10.4287 28.7056 12.4676 26.6627 15.0759 26.6627C16.0934 26.6627 17.0018 26.9199 17.7971 27.4774V23.653H20.0622V35.7933H17.7971V35.2318C17.0018 35.7426 16.0934 36 15.0759 36Z" fill="black"/>
        <path d="M14.9641 12.8062L22.8979 8.31885L31.6269 23.5703H23.3501V25.8159H21.085V23.5703" fill="black"/>
        <path d="M51.8008 25.8867C51.2316 25.8867 50.6663 25.3761 50.6663 24.7639C50.6663 24.1519 51.2316 23.6411 51.8008 23.6411C52.4791 23.6411 52.9353 24.1519 52.9353 24.7639C52.9353 25.3761 52.4791 25.8867 51.8008 25.8867ZM51.8008 23.7971C51.2316 23.7971 50.8924 24.2532 50.8924 24.7639C50.8924 25.2746 51.2316 25.7347 51.8008 25.7347C52.366 25.7347 52.7052 25.2746 52.7052 24.7639C52.7052 24.2532 52.366 23.7971 51.8008 23.7971Z" fill="black"/>
        <path d="M52.0347 25.38L51.8086 24.8694H51.5825V25.38H51.4109V24.1559H51.9217C52.0347 24.1559 52.2608 24.3119 52.2608 24.5145C52.2608 24.7172 52.1478 24.8187 52.0347 24.8694L52.2608 25.38H52.0347ZM51.8086 24.3119H51.5825V24.7172H51.8086C52.0347 24.7172 52.0347 24.6666 52.0347 24.5145C52.0347 24.4092 52.0347 24.3119 51.8086 24.3119Z" fill="black"/>
        <path d="M36.8301 31.306C36.8301 32.7328 37.9647 33.9063 39.4383 33.9063C40.7989 33.9063 42.0426 32.7328 42.0426 31.306C42.0426 29.9297 40.7989 28.7055 39.4383 28.7055C37.9647 28.7055 36.8301 29.9297 36.8301 31.306ZM39.3214 35.9999C36.7171 35.9999 34.6781 33.9063 34.6781 31.306C34.6781 28.7056 36.7171 26.6627 39.3214 26.6627C40.3428 26.6627 41.2512 26.9199 42.0426 27.4774V26.7641H44.1986V35.7933H42.0426V35.2318C41.2512 35.7426 40.3428 35.9999 39.3214 35.9999Z" fill="black"/>
        <path d="M26.4091 31.3059C26.4091 32.7327 27.6566 33.9062 29.0173 33.9062C30.491 33.9062 31.6254 32.7327 31.6254 31.3059C31.6254 29.9296 30.491 28.7054 29.0173 28.7054C27.6566 28.7054 26.4091 29.9296 26.4091 31.3059ZM31.6254 23.6528H33.8905V35.7932H31.6254V35.2318C30.9432 35.7425 30.0348 35.9998 29.0173 35.9998C26.4091 35.9998 24.2571 33.9062 24.2571 31.3059C24.2571 28.7054 26.4091 26.6626 29.0173 26.6626C30.0348 26.6626 30.9432 26.9199 31.6254 27.4774V23.6528Z" fill="black"/>
    </g>
    <defs>
        <clipPath id="clip0_222:347">
            <rect width="53.2706" height="36" fill="white"/>
        </clipPath>
    </defs>
</svg>
