<svg width="160" height="18" viewBox="0 0 160 18" fill="none" xmlns="http://www.w3.org/2000/svg">
<g clip-path="url(#clip0_111_3086)">
<path d="M87.2066 0.865601C81.5655 0.865601 78.6435 4.33564 78.6435 9.00864C78.6435 13.7002 81.5655 17.1888 87.2066 17.1888C92.8662 17.1888 95.7883 13.7002 95.7883 9.00864C95.7969 4.33564 92.8662 0.865601 87.2066 0.865601ZM136.107 0.865601C131.336 0.865601 128.941 2.76258 128.941 6.1218C128.941 8.85144 130.532 10.1373 133.823 10.4887L137.486 10.8782C138.882 11.0353 139.52 11.5716 139.52 12.2748C139.52 13.0705 138.587 13.7835 136.339 13.7835C133.741 13.7835 132.695 13.126 132.52 11.8027H128.719C128.895 15.3747 131.216 17.198 136.2 17.198C140.75 17.198 143.293 15.1987 143.293 12.1913C143.293 9.57276 141.786 7.99985 138.938 7.67604L135.331 7.26893C133.223 7.03771 132.696 6.50991 132.696 5.79723C132.696 5.00147 133.777 4.28937 135.895 4.28937C137.93 4.28937 138.993 5.04862 139.187 6.18672H143.063C142.868 2.90156 140.121 0.865601 136.107 0.865601ZM47.6089 1.23561V11.2853C47.6089 15.7636 51.6033 17.1609 54.9507 17.1609C58.28 17.1609 62.2563 15.7636 62.2563 11.2853V1.23561H58.2984V10.8318H58.317C58.317 12.8492 57.0785 13.663 54.9609 13.663C52.9079 13.663 51.5668 12.8122 51.5668 10.8318V1.23561H47.6089ZM14.4006 1.29125L0.557129 9.89611V16.8086H0.676769L14.5573 8.1666H21.7609C21.9831 8.1666 22.1866 8.34204 22.1866 8.59226C22.1866 8.79548 22.0942 8.87915 21.9835 8.94372L15.1675 13.0333C14.7236 13.3016 14.5666 13.8289 14.5666 14.2268L14.5566 16.8086H23.2218V1.82818C23.2218 1.54141 23.0001 1.29125 22.6672 1.29125L14.4006 1.29125ZM36.0495 1.29125L30.1024 16.8095H34.1902L35.226 13.9032H41.8658L42.8831 16.8095H47.109L41.0887 1.29125L36.0495 1.29125ZM64.0693 1.29125V4.6501H69.0723V16.8095H73.021V4.6501H78.0055V1.29125L64.0693 1.29125ZM97.9425 1.29125V16.8095H105.193C110.751 16.8095 112.286 14.7361 112.286 8.93445C112.286 3.4842 110.816 1.29125 105.193 1.29125H97.9425ZM114.497 1.29125V16.8095H126.981V13.4497H118.454V10.6371H125.316V7.26894H118.454V4.6501H126.981V1.29125L114.497 1.29125ZM145.309 1.29125L145.327 16.8095H149.267V10.9153L154.613 16.8095H159.616L152.402 9.14774L159.616 1.29125H154.909L149.267 7.59258V1.29125L145.309 1.29125ZM87.2066 4.35429C90.1565 4.35429 91.7385 6.1584 91.7385 9.00864C91.7472 11.9234 90.1565 13.7001 87.2066 13.7001C84.2842 13.7001 82.6756 11.914 82.6756 9.00864C82.6756 6.1584 84.2842 4.35429 87.2066 4.35429ZM38.5737 4.52121L40.7094 10.6H36.4L38.5737 4.52121ZM101.892 4.65011H105.036C107.514 4.65011 108.254 5.32548 108.254 8.93445C108.254 12.2286 107.422 13.4497 105.036 13.4497H101.892V4.65011Z" fill="black"/>
</g>
<defs>
<clipPath id="clip0_111_3086">
<rect width="160" height="17.6" fill="white" transform="translate(0 0.200012)"/>
</clipPath>
</defs>
</svg>
