<svg width="78" height="40" viewBox="0 0 78 40" fill="none" xmlns="http://www.w3.org/2000/svg">
<g clip-path="url(#clip0_111_3093)">
<path d="M19.0272 14.3379H16.0137L19.7975 6.48651H22.9461L24.6893 14.3379H21.6758L21.5407 13.3649H19.392L19.0272 14.3379ZM21.2975 11.5L21.1488 10.1216C21.1083 9.78381 21.1083 9.44597 21.0948 9.10813H20.9866L20.1488 11.5H21.2975Z" fill="#C22823"/>
<path d="M26.8785 6.48651H29.8109L30.3379 10.6081H30.4055C30.5001 10.2568 30.6082 9.90543 30.7433 9.5676L32.0406 6.48651H34.946L35.1758 14.3379H32.4055L32.5947 10.0406H32.5406C32.4595 10.3108 32.3649 10.5676 32.2433 10.8244L30.6352 14.3379H29.0001L28.4325 11.0135C28.392 10.6892 28.3785 10.3649 28.392 10.0406H28.2974C28.2298 10.3514 28.1758 10.6757 28.0947 10.9865L27.3109 14.3379H24.5541L26.8785 6.48651ZM36.9866 6.48651H42.2568L41.9731 8.63516H39.5677L39.4731 9.39192H41.6622L41.392 11.4325H39.1893L39.0812 12.2027H41.5676L41.2839 14.3514H35.919L36.9866 6.48651ZM43.1758 6.48651H46.6217C48.392 6.48651 49.7839 7.22976 49.5271 9.21624C49.3649 10.4054 48.8379 10.9054 47.7298 11.2568L47.7163 11.3244C47.8785 11.446 48.0271 11.6081 48.1352 11.7973L49.5001 14.3514H46.2163L45.3109 11.8379H45.2568L44.919 14.3514H42.1352L43.1758 6.48651ZM45.5001 9.973H45.7028C46.1758 9.973 46.6487 9.90543 46.7298 9.31084C46.8109 8.70273 46.392 8.63516 45.9055 8.63516H45.6893L45.5001 9.973ZM51.0676 6.48651H53.919L52.8649 14.3379H50.0136L51.0676 6.48651ZM60.2568 9.6757C59.8514 9.25678 59.3379 8.87841 58.6893 8.87841C57.8109 8.89192 57.0676 9.54057 56.9325 10.4054C56.8109 11.2703 57.4595 11.9325 58.3244 11.9325C58.9731 11.9325 59.5406 11.6487 60.0541 11.2027L59.5812 14.1352C59.0947 14.3514 58.0136 14.446 57.5136 14.446C55.2704 14.446 53.7568 12.7027 54.0676 10.473C54.3785 8.18922 56.419 6.35138 58.7298 6.35138C59.3649 6.35138 60.0001 6.45949 60.5947 6.6757L60.2568 9.6757ZM62.8514 14.3379H59.8379L63.6217 6.48651H66.7704L68.5136 14.3379H65.5001L65.365 13.3649H63.2163L62.8514 14.3379ZM65.1217 11.5L64.9731 10.1217C64.9325 9.78381 64.9325 9.44597 64.919 9.10814H64.8109L63.9731 11.5H65.1217ZM70.0406 6.48651H72.7839L74.7568 10.8379H74.8379C74.7839 10.1757 74.7974 9.50003 74.8649 8.83787L75.1758 6.48651H77.919L76.8649 14.3379H74.1352L72.1758 10.2162H72.0947C72.1217 10.7433 72.1217 11.2703 72.0541 11.7838L71.7028 14.3379H68.9866L70.0406 6.48651ZM16.0947 16.0135H21.3785L21.0947 18.1622H18.6893L18.5812 18.9054H20.7839L20.5136 20.946H18.3109L18.2028 21.7162H20.6893L20.4055 23.8649H15.0406L16.0947 16.0135ZM22.2298 16.0135H25.0812L24.3649 21.3379H26.7568L26.419 23.8514H21.1758L22.2298 16.0135ZM28.2298 16.0135H33.5136L33.2298 18.1622H30.8244L30.7163 18.9054H32.919L32.6487 20.946H30.446L30.3379 21.7162H32.8244L32.5406 23.8649H27.1758L28.2298 16.0135ZM39.6352 19.2027C39.2298 18.7703 38.7163 18.4054 38.0676 18.4054C37.1893 18.4189 36.446 19.0676 36.3109 19.9325C36.1893 20.7973 36.8514 21.4595 37.7028 21.4595C38.3649 21.4595 38.919 21.1757 39.4325 20.7298L38.9595 23.6622C38.4731 23.8784 37.392 23.973 36.892 23.973C34.6487 23.973 33.1352 22.2298 33.446 20C33.7568 17.7162 35.7974 15.8784 38.1082 15.8784C38.7433 15.8784 39.3785 15.9865 39.9866 16.2027L39.6352 19.2027ZM40.6352 16.0135H46.6352L46.2974 18.5676L44.7298 18.5L44.0001 23.8649H41.1487L41.8785 18.5L40.2974 18.5676L40.6352 16.0135ZM47.2568 16.0135H50.7028C52.4731 16.0135 53.8649 16.7703 53.6082 18.7433C53.446 19.9325 52.919 20.4325 51.8109 20.7838L51.7974 20.8514C51.9595 20.973 52.1082 21.1352 52.2163 21.3244L53.5812 23.8784H50.2974L49.392 21.3649H49.3379L49.0001 23.8784H46.2163L47.2568 16.0135ZM49.5812 19.4865H49.7839C50.2568 19.4865 50.7298 19.4189 50.8109 18.8244C50.892 18.2298 50.4731 18.1487 49.9866 18.1487H49.7704L49.5812 19.4865ZM55.1352 16.0135H57.9866L56.9325 23.8649H54.0812L55.1352 16.0135ZM64.3379 19.2027C63.9325 18.7703 63.419 18.4054 62.7704 18.4054C61.892 18.4189 61.1487 19.0676 61.0136 19.9325C60.9055 20.7973 61.5541 21.4595 62.4055 21.4595C63.0676 21.4595 63.6217 21.1757 64.1352 20.7298L63.6622 23.6622C63.1758 23.8784 62.1082 23.973 61.5947 23.973C59.3514 23.973 57.8379 22.2298 58.1487 20C58.4595 17.7162 60.5001 15.8784 62.8109 15.8784C63.446 15.8784 64.0812 15.9865 64.6758 16.2027L64.3379 19.2027ZM14.8244 25.5406H18.4325C20.2704 25.5406 21.4866 26.473 21.2298 28.4189C21.0136 30.0271 19.8785 31.0135 18.2839 31.0135H16.8244L16.5001 33.3784H13.7568L14.8244 25.5406ZM17.0947 29.0541H17.3785C17.8785 29.0541 18.4325 28.973 18.5136 28.3379C18.5947 27.7298 18.0136 27.6892 17.5541 27.6892H17.2839L17.0947 29.0541ZM30.0541 29.4865C29.7163 32 27.5676 33.5135 25.1758 33.5135C22.7839 33.5135 21.0406 32.0135 21.3785 29.4865C21.7163 27.0271 23.8785 25.4189 26.2704 25.4189C28.6622 25.4189 30.392 27.0271 30.0541 29.4865ZM24.2433 29.5271C24.1217 30.4189 24.6487 31.0406 25.5136 31.0406C26.3785 31.0406 27.0676 30.4325 27.1893 29.5271C27.2974 28.6892 26.8379 28 25.9325 28C25.0271 28 24.3514 28.7027 24.2433 29.5271ZM32.9731 25.5406L33.3379 30.2162H33.4055C33.5136 29.7298 33.6622 29.2433 33.8379 28.7703L35.0947 25.5406H37.2839L37.7298 30.2162H37.7974C37.892 29.7433 38.0271 29.2838 38.1758 28.8379L39.4055 25.5406H42.3785L38.5541 33.3919H36.0676L35.7433 29.1217H35.6487C35.5812 29.5271 35.4731 29.9189 35.3379 30.3108L34.1352 33.3919H31.7163L30.0271 25.5406H32.9731ZM42.8379 25.5406H48.1082L47.8244 27.6892H45.419L45.3109 28.4325H47.5136L47.2433 30.473H45.0406L44.9325 31.2433H47.419L47.1352 33.3919H41.7704L42.8379 25.5406ZM49.0406 25.5406H52.4866C54.2568 25.5406 55.6487 26.2838 55.392 28.2703C55.2298 29.4595 54.7028 29.9595 53.5947 30.3108L53.5812 30.3784C53.7433 30.5 53.892 30.6622 54.0001 30.8514L55.365 33.4054H52.0812L51.1758 30.8919H51.1217L50.7839 33.4054H48.0001L49.0406 25.5406ZM51.3649 29.0271H51.5676C52.0406 29.0271 52.5136 28.9595 52.5947 28.3649C52.6758 27.7703 52.2568 27.6892 51.7704 27.6892H51.5541L51.3649 29.0271Z" fill="#C22823"/>
<path d="M39.6892 35.4459L39.3649 37.8514H2.43248L7.2568 2.04054H44.1892L43.8649 4.43243H45.9055L46.5 0H5.47302L0.108154 39.8784H41.1487L41.7433 35.4459H39.6892Z" fill="#C22823"/>
</g>
<defs>
<clipPath id="clip0_111_3093">
<rect width="77.8378" height="40" fill="white" transform="translate(0.0810547)"/>
</clipPath>
</defs>
</svg>
