<svg width="92" height="40" viewBox="0 0 92 40" fill="none" xmlns="http://www.w3.org/2000/svg">
    <path fill-rule="evenodd" clip-rule="evenodd" d="M6.46699 22.5869H3.14567L2.67587 23.7112C2.34057 24.4993 2.40733 24.9364 3.43078 25.1704V25.4228H0.410645V25.1704C1.31664 25.0363 1.76939 24.2478 2.17243 23.258L4.85629 16.7996H5.86267L8.71467 23.5265C9.2181 24.7181 9.63772 25.1202 10.4428 25.1704V25.4228H6.1312V25.1704C7.28867 24.9696 7.33935 24.684 7.00357 23.8789L6.46699 22.5869ZM4.78952 18.5779L3.43078 21.9835H6.21552L4.78952 18.5779Z" fill="#1B3771"/>
    <path fill-rule="evenodd" clip-rule="evenodd" d="M18.8311 24.2483C18.9149 24.8024 19.2171 25.1202 19.9048 25.2381V25.4228H16.3987V25.2381C17.1873 25.0534 17.3042 24.6508 17.1873 23.8282L16.6 20.1881H16.5669L14.2685 25.4223H14.017L11.7523 20.1881H11.7192L11.0983 23.9461C10.9808 24.684 11.1485 25.1874 11.937 25.2376V25.4223H9.37012V25.2376C10.1416 25.2045 10.4603 24.8014 10.6285 23.8277L11.3327 19.6681C11.0642 19.3996 10.6616 19.2315 10.3092 19.2315V19.0477H12.8591L14.7042 23.258L16.583 19.0477H18.9817V19.2315C18.2604 19.3494 18.0928 19.6681 18.1766 20.2549L18.8311 24.2483ZM25.0883 23.2248H24.8534C24.7695 22.6546 24.4508 22.4022 23.8635 22.4022H22.6222V24.2809C22.6222 24.8511 22.8908 25.0529 23.5955 25.0529H23.998C24.8704 25.0529 25.2564 24.4827 25.4908 23.8784H25.6921L25.5581 25.4223H20.1733V25.2376C20.9618 25.086 21.0622 24.8682 21.0622 24.2142V20.1038C21.0622 19.5497 20.9111 19.365 20.1733 19.231V19.0472H25.4742V20.4562H25.273C25.0381 19.6335 24.7861 19.3996 23.998 19.3996H22.6222V22.0333H23.8635C24.4337 22.0333 24.7023 21.8144 24.8534 21.2442H25.0883V23.2248ZM27.3028 20.1048C27.3028 19.5677 27.1688 19.366 26.4134 19.2319V19.0482H29.7688C31.7314 19.0482 32.5199 19.7524 32.5199 20.6419C32.5199 21.2959 32.1008 21.9002 31.0939 22.1687V22.1848C31.8825 22.3525 32.6374 24.3828 33.2748 24.9701C33.4595 25.1206 33.6277 25.1879 33.9293 25.2386V25.4233H31.8829C31.111 24.6006 30.5915 23.1581 30.0544 22.6717C29.7357 22.3871 29.5008 22.3871 28.8633 22.3871V24.3497C28.8633 24.9028 29.1153 25.1548 29.7693 25.2386V25.4233H26.4139V25.2386C26.9841 25.1879 27.3033 24.9369 27.3033 24.4159L27.3028 20.1048ZM28.8628 22.0167C30.205 22.1005 30.8254 21.7311 30.8254 20.6745C30.8254 19.8528 30.3224 19.4001 29.3492 19.4001H28.8623L28.8628 22.0167Z" fill="#1B3771"/>
    <path fill-rule="evenodd" clip-rule="evenodd" d="M36.2615 24.3492C36.2615 24.9024 36.4291 25.0705 37.167 25.2381V25.4229H33.812V25.2381C34.6844 25.0364 34.7014 24.8185 34.7014 24.1976V20.1219C34.7014 19.5507 34.5504 19.3831 33.812 19.232V19.0483H37.1674V19.232C36.3121 19.4006 36.2619 19.6345 36.2619 20.2554L36.2615 24.3492ZM44.0455 24.2815C43.3242 25.1704 42.4182 25.5905 41.1769 25.5905C39.0131 25.5905 37.5198 24.2483 37.5198 22.3189C37.5198 20.3563 39.1641 18.8796 41.3446 18.8796C42.4016 18.8796 42.9889 19.2661 43.3412 19.2661C43.5255 19.2661 43.66 19.1652 43.7774 18.9303H43.9787V21.2623H43.7774C43.4587 19.9869 42.5698 19.232 41.3787 19.232C40.0531 19.232 39.2143 20.3227 39.2143 22.0002C39.2143 24.1474 40.4225 24.9701 41.7642 24.9701C42.6365 24.9701 43.3076 24.6514 44.0455 23.9467V24.2815ZM48.4409 23.2751H45.9242L45.5719 24.1309C45.3204 24.7181 45.3706 25.0534 46.1421 25.2377V25.4224H43.8608V25.2377C44.5484 25.1197 44.8842 24.5334 45.1859 23.7775L47.2328 18.8792H48.1894L50.3528 23.9793C50.7383 24.8853 51.057 25.1875 51.6618 25.2377V25.4224H48.1894V25.2377C49.0784 25.0861 49.112 24.8682 48.8605 24.2478L48.4409 23.2751ZM47.1826 20.2389L46.1426 22.8223H48.2562L47.1826 20.2389Z" fill="#1B3771"/>
    <path fill-rule="evenodd" clip-rule="evenodd" d="M56.5771 19.0481V19.2318C57.332 19.3834 57.4821 19.6685 57.4821 20.457V23.309L53.3386 19.0486H51.2084V19.2323C51.494 19.283 51.611 19.3663 52.148 19.8537V24.1312C52.1641 24.7516 51.9804 25.12 51.2255 25.238V25.4227H53.6574V25.238C52.8523 25.12 52.6169 24.9192 52.6169 24.2145V20.3225L57.6332 25.4227H57.9519V20.2723C57.9519 19.7021 58.1698 19.2664 58.9754 19.2318V19.0481H56.5771ZM41.2937 32.9547H41.0422C41.0422 32.1998 40.7235 31.8982 39.8848 31.8982H38.526L38.0391 34.5484C37.8881 35.3033 38.1064 35.5889 38.8949 35.7229L38.8443 35.9744H35.0024L35.0531 35.7229C35.9927 35.5713 36.2442 35.2536 36.4119 34.3305L37.4353 28.8278C37.5693 28.1236 37.3851 27.9053 36.5464 27.6704L36.5971 27.4189H42.5189L42.4014 29.0296H42.1495C41.9648 28.1909 41.5622 27.9053 40.7737 27.9053H39.2639L38.6098 31.4118H39.9691C40.7912 31.4118 41.1602 31.1091 41.5291 30.3211H41.7806L41.2937 32.9547ZM44.9513 32.8709C44.8504 33.4582 44.9683 33.6258 45.6224 33.7935L45.5887 33.9782H42.418L42.4516 33.7935C43.324 33.5927 43.3913 33.3748 43.5082 32.7198L44.2797 28.5262C44.3972 27.9559 44.2797 27.7883 43.6086 27.6211L43.6423 27.4194H46.8125L46.7793 27.6211C45.9406 27.7888 45.8568 28.0398 45.7393 28.6607L44.9513 32.8709ZM52.8362 34.0615H52.6174L48.7926 28.7274L48.0548 32.754C47.9207 33.4747 48.0879 33.6765 48.8428 33.7935L48.8097 33.9782H46.4938L46.5279 33.7935C47.2657 33.6765 47.5177 33.3071 47.6176 32.6531L48.4403 28.2571C48.0206 27.7537 47.9368 27.6699 47.6683 27.6202L47.7024 27.4184H49.7147L52.8016 31.8143L53.3557 28.8615C53.5063 28.0724 53.4225 27.7708 52.7353 27.6202L52.786 27.4184H55.0332L55 27.6202C54.2281 27.6533 53.9434 28.1065 53.8255 28.6938L52.8362 34.0615ZM58.1708 31.7802H55.7881L55.4026 32.6531C55.117 33.2735 55.1341 33.6088 55.8558 33.7935L55.8388 33.9782H53.6915V33.7935C54.3626 33.6765 54.7149 33.0556 55.0507 32.3012L57.2989 27.2517H58.2214L59.916 32.502C60.2176 33.4416 60.4862 33.7433 61.0734 33.7935L61.0564 33.9782H57.7857V33.7935C58.6406 33.6429 58.6908 33.408 58.49 32.7876L58.1708 31.7802ZM57.1644 28.6436L56.023 31.3109H58.0192L57.1644 28.6436Z" fill="#1B3771"/>
    <path fill-rule="evenodd" clip-rule="evenodd" d="M66.6928 34.0616H66.4749L62.6502 28.7275L61.8953 32.7541C61.7612 33.4749 61.9459 33.6766 62.6833 33.7936L62.6502 33.9783H60.3513L60.3854 33.7936C61.1233 33.6766 61.3582 33.3072 61.4752 32.6532L62.2978 28.2572C61.8782 27.7538 61.7773 27.67 61.5258 27.6203L61.559 27.4185H63.5722L66.6591 31.8144L67.2133 28.8616C67.3473 28.0725 67.28 27.7709 66.5929 27.6203L66.626 27.4185H68.8902L68.8571 27.6203C68.0851 27.6534 67.7996 28.1066 67.6826 28.6939L66.6928 34.0616ZM74.2926 32.8203C73.4368 33.7263 72.4972 34.1455 71.3226 34.1455C69.2762 34.1455 68.1358 32.7872 68.5052 30.79C68.8737 28.7777 70.7193 27.2509 72.7657 27.2509C73.7726 27.2509 74.2589 27.6534 74.5782 27.6534C74.7629 27.6534 74.8969 27.5525 75.0645 27.3176H75.2492L74.796 29.7174H74.6113C74.5436 28.3913 73.8564 27.6203 72.7325 27.6203C71.4742 27.6203 70.4844 28.727 70.1652 30.4723C69.7465 32.6863 70.7363 33.5085 72.0108 33.5085C72.8159 33.5085 73.5206 33.2058 74.3428 32.468L74.2926 32.8203ZM77.6144 32.871C77.4964 33.4583 77.6144 33.6259 78.2855 33.7936L78.2513 33.9783H75.0806L75.1147 33.7936C75.9705 33.5928 76.0373 33.3749 76.1543 32.7199L76.9433 28.5263C77.0432 27.9561 76.9262 27.7884 76.2551 27.6212L76.3058 27.4195H79.4595L79.4264 27.6212C78.6037 27.7889 78.5038 28.0399 78.3859 28.6608L77.6144 32.871ZM83.4694 31.7803H81.0868L80.7013 32.6532C80.4157 33.2736 80.4488 33.6089 81.1706 33.7936L81.1535 33.9783H78.9902L79.0072 33.7936C79.6613 33.6766 80.0307 33.0557 80.3655 32.3013L82.6136 27.2518H83.5362L85.2142 32.5021C85.5158 33.4417 85.8005 33.7434 86.3716 33.7936V33.9783H83.083L83.1 33.7936C83.9388 33.643 83.989 33.4081 83.7872 32.7877L83.4694 31.7803ZM82.4791 28.6437L81.3217 31.311H83.3179L82.4791 28.6437Z" fill="#1B3771"/>
    <path fill-rule="evenodd" clip-rule="evenodd" d="M88.4847 32.9041C88.3848 33.4412 88.5856 33.6083 89.4082 33.6083C90.2299 33.6083 90.6656 33.3744 91.4044 32.2832H91.5891L91.0857 33.9778H85.9695L86.0026 33.793C86.8077 33.6083 86.9252 33.4407 87.0592 32.7194L87.8312 28.5257C87.932 27.9555 87.8141 27.7879 87.1601 27.6207L87.1932 27.4189H90.3639L90.3308 27.6207C89.6266 27.7884 89.4248 27.9224 89.3074 28.4926L88.4847 32.9041ZM42.2334 38.9268H42.2168C42.0828 39.2295 41.898 39.363 41.5121 39.363C40.7908 39.363 40.5388 38.8269 40.5388 37.6695C40.5388 36.511 40.8741 35.974 41.629 35.974C42.4341 35.974 42.5852 36.6119 42.5852 36.9136V36.9813H42.0823V36.8975C42.0823 36.6626 41.9814 36.3604 41.629 36.3604C41.2601 36.3604 41.0588 36.6119 41.0588 37.6519C41.0588 38.7085 41.243 38.977 41.5959 38.977C41.9819 38.977 42.133 38.6924 42.133 37.9711H41.5793V37.5847H42.6193V39.2963H42.2334V38.9268ZM43.9108 37.4848V36.4272H44.3641C44.6994 36.4272 44.8504 36.6119 44.8504 36.9643C44.8504 37.283 44.6662 37.4848 44.3304 37.4848H43.9108ZM43.3908 39.2958H43.9108V37.8868H44.3299C44.6994 37.8868 44.7998 38.0374 44.8168 38.3893C44.8168 38.6242 44.8168 38.8089 44.8339 39.0097C44.8504 39.1437 44.867 39.2446 44.9177 39.2953H45.505C45.4377 39.2446 45.3709 39.1783 45.3539 39.0097C45.3539 38.826 45.3368 38.5574 45.3368 38.3557C45.3202 37.9024 45.1526 37.7177 44.8339 37.6846C45.1862 37.6178 45.3709 37.2991 45.3709 36.8795C45.3709 36.2591 45.002 36.0407 44.5488 36.0407H43.3913L43.3908 39.2958ZM47.1659 38.977C46.8632 38.977 46.6117 38.7762 46.6117 37.6519C46.6117 36.5612 46.8632 36.3604 47.1659 36.3604C47.4836 36.3604 47.719 36.5612 47.719 37.6519C47.719 38.7762 47.4841 38.977 47.1659 38.977ZM47.1659 39.3625C47.9208 39.3625 48.2385 38.8264 48.2385 37.669C48.2385 36.5105 47.9208 35.9735 47.1659 35.9735C46.41 35.9735 46.0917 36.5105 46.0917 37.669C46.0917 38.8269 46.4105 39.3625 47.1659 39.3625ZM49.4974 36.0417V38.3737C49.4974 38.7923 49.666 38.977 49.9837 38.977C50.3025 38.977 50.454 38.7923 50.454 38.3737V36.0417H50.9736V38.3396C50.9736 39.0955 50.6041 39.363 49.9837 39.363C49.3633 39.363 48.9778 39.0955 48.9778 38.3396V36.0417H49.4974ZM52.3157 36.4272H52.6515C53.0702 36.4272 53.2047 36.645 53.2047 36.9984C53.2047 37.4009 52.9698 37.5515 52.6851 37.5515H52.3157V36.4272ZM51.7957 39.2958H52.3152V37.9536H52.7685C53.3889 37.9536 53.7252 37.5681 53.7252 36.9808C53.7252 36.4267 53.4566 36.0412 52.8362 36.0412H51.7957V39.2958ZM53.7417 38.6924H54.2622V39.2958C54.2622 39.6652 54.1443 39.9162 53.7417 40V39.7315C53.8757 39.6983 53.9596 39.5638 53.9596 39.362V39.2953H53.7417V38.6924ZM56.3593 39.2958H56.8788V36.0417H56.3593V39.2958ZM57.7176 36.0417H58.355L59.2946 38.4736H59.3117V36.0417H59.7981V39.2958H59.1606L58.221 36.7966H58.2039V39.2958H57.7176V36.0417ZM62.6662 38.1212V38.2051C62.6662 38.7923 62.4322 39.3625 61.6602 39.3625C60.8376 39.3625 60.5866 38.8264 60.5866 37.669C60.5866 36.5105 60.8381 35.9735 61.6602 35.9735C62.5828 35.9735 62.6501 36.6616 62.6501 36.9979V37.0476H62.1296V36.9979C62.1296 36.6952 62.0297 36.3599 61.6602 36.3599C61.2748 36.3599 61.1061 36.6114 61.1061 37.6514C61.1061 38.708 61.2748 38.9765 61.6602 38.9765C62.0964 38.9765 62.1466 38.4902 62.1466 38.1885V38.1208L62.6662 38.1212ZM63.287 39.2958H63.8075V38.6924H63.287V39.2958Z" fill="#1B3771"/>
    <path fill-rule="evenodd" clip-rule="evenodd" d="M72.9129 15.1837C69.0056 14.8803 72.2901 13.0617 66.8332 12.3376C53.5948 10.5855 44.938 15.6891 47.4314 10.973C48.2226 9.50807 48.4921 9.17096 49.3846 7.41935C50.7991 4.62362 50.8666 2.02947 46.539 0.968723C30.7745 -2.95528 3.11906 6.27395 1.35081 6.81314C1.35081 6.81314 0.912907 6.96481 0.66044 7.0656C-0.0132944 7.36895 0.946667 7.21728 0.946667 7.21728C7.86896 5.44903 25.1825 1.47366 36.6184 1.75988C47.5659 2.01284 51.0349 3.34318 46.8418 10.4509C43.8606 15.5032 46.8247 14.7624 48.02 14.5941C58.5805 13.0274 68.2648 13.0274 68.8211 14.6783C69.2414 15.9582 72.3581 16.2112 72.4584 16.2278C74.5476 16.4808 76.0125 17.0361 75.0692 18.5519C70.6226 17.8953 64.7953 19.529 62.303 21.7351C62.1508 21.8701 62.303 21.8701 62.4042 21.8197C66.4961 19.5461 75.1367 18.7711 75.4733 20.051C78.0161 16.8849 77.1236 15.5032 72.9129 15.1837ZM64.1891 22.2572C64.1558 22.0717 64.037 22.0042 63.8691 22.0042C63.717 22.0042 63.5663 22.0551 63.5663 22.2234C63.5663 22.3751 63.785 22.4088 63.9866 22.4426C64.1891 22.493 64.4078 22.56 64.4078 22.8125C64.4078 23.0992 64.1382 23.2005 63.9024 23.2005C63.5995 23.2005 63.3632 23.0659 63.3632 22.7455H63.5315C63.5315 22.9642 63.7008 23.0654 63.9024 23.0654C64.0546 23.0654 64.2224 23.0146 64.2224 22.8296C64.2224 22.6447 64.0208 22.6109 63.8182 22.5771C63.6167 22.5263 63.397 22.4587 63.397 22.2229C63.397 21.9704 63.6328 21.8525 63.8691 21.8525C64.1387 21.8525 64.3403 21.9704 64.3403 22.2567L64.1891 22.2572ZM64.6099 21.8868H64.8457L65.2499 22.9647L65.6716 21.8868H65.9065V23.1834H65.7382V22.1055L65.334 23.1834H65.1833L64.7787 22.1055V23.1834H64.6099V21.8868Z" fill="#B01842"/>
</svg>
