<svg width="92" height="40" viewBox="0 0 92 40" fill="none" xmlns="http://www.w3.org/2000/svg">
    <path d="M44.4338 7.00787V14.0154L45.166 15.1041C45.5685 15.7021 46.5806 17.2087 47.4163 18.4545C48.2519 19.7004 49.4671 21.5136 50.1188 22.4835C50.7705 23.4533 51.5794 24.6647 51.9206 25.1746L52.5416 26.1022L57.479 26.1061C60.1931 26.1061 62.4127 26.0946 62.4127 26.0831C62.4127 26.0677 62.0907 25.5886 61.6958 25.0174C61.301 24.4462 60.2775 22.9588 59.4226 21.7168C56.7354 17.8143 54.2436 14.1956 53.6533 13.3407C53.3389 12.8884 52.7217 11.9913 52.2809 11.3473C51.8362 10.7033 51.2075 9.79095 50.8817 9.3156C50.552 8.84025 49.4901 7.29537 48.5165 5.88467C47.5428 4.47013 46.2356 2.56874 45.6069 1.65638C44.9782 0.747853 44.4568 0.000331187 44.4492 0.000331187C44.4415 0.000331187 44.4338 3.15525 44.4338 7.00787Z" fill="#D21241"/>
    <path d="M43.3027 1.66757C42.6702 2.58376 41.3592 4.48898 40.3855 5.90353C39.4118 7.31423 38.3499 8.85911 38.0203 9.33446C37.6944 9.8098 37.0657 10.7222 36.621 11.3662C36.1802 12.0102 35.563 12.9072 35.2487 13.3596C34.6583 14.2144 32.1666 17.8332 29.4793 21.7356C28.6245 22.9777 27.601 24.4651 27.2061 25.0362C26.8113 25.6074 26.4893 26.0866 26.4893 26.1019C26.4893 26.1134 28.7088 26.1249 31.4267 26.1249L36.3604 26.1211L36.9814 25.1934C37.6177 24.2389 39.385 21.6053 41.8729 17.9022C42.6511 16.7407 43.5519 15.3951 43.8778 14.9121L44.4681 14.0304L44.4604 7.01522L44.4489 2.22479e-05L43.3027 1.66757Z" fill="black"/>
    <path d="M90.4387 35.214C89.396 35.7315 89.7679 37.2994 90.9294 37.2917C91.5159 37.2917 91.953 36.8777 91.9951 36.2835C92.022 35.9155 91.93 35.6702 91.6808 35.421C91.3358 35.0722 90.8719 34.9955 90.4387 35.214ZM91.3933 35.421C91.8801 35.766 91.9185 36.502 91.4738 36.9045C90.9486 37.3799 90.1244 37.0195 90.0592 36.2874C90.0209 35.8925 90.2279 35.513 90.5652 35.3558C90.8068 35.2447 91.1863 35.2753 91.3933 35.421Z" fill="black"/>
    <path d="M90.6343 35.582L90.5078 35.5973V36.2107C90.5078 36.7205 90.5155 36.8279 90.5653 36.8432C90.6305 36.87 90.7417 36.7934 90.734 36.7282C90.7302 36.7052 90.7302 36.6017 90.734 36.502L90.7378 36.318L90.8797 36.3295C91.0407 36.341 91.102 36.4253 91.1403 36.6745C91.1595 36.7895 91.1825 36.824 91.2592 36.8432C91.3128 36.8585 91.3627 36.8585 91.3742 36.8509C91.4087 36.8164 91.309 36.4138 91.2438 36.3257C91.1787 36.2337 91.1787 36.2298 91.2668 36.1417C91.3895 36.019 91.3742 35.766 91.2362 35.6663C91.1365 35.5935 90.8528 35.5552 90.6343 35.582ZM91.0828 35.8235C91.1748 35.9155 91.1748 35.9347 91.0982 36.0458C91.056 36.1072 91.0023 36.1302 90.8912 36.1302C90.7263 36.1302 90.711 36.111 90.7302 35.8963C90.7455 35.7545 90.7532 35.7468 90.8758 35.7468C90.9563 35.7468 91.0368 35.7775 91.0828 35.8235Z" fill="black"/>
    <path d="M35.0571 35.3328C33.0982 35.5245 31.8179 36.4637 31.8179 37.6981C31.8217 38.8289 32.7724 39.6225 34.4629 39.9061C34.9766 39.9943 36.0653 40.0211 36.6787 39.9675C37.1349 39.9253 37.5834 39.8448 37.6255 39.8026C37.6447 39.7835 37.3994 38.8979 37.3649 38.8673C37.3534 38.8558 37.246 38.8673 37.1195 38.8903C36.9969 38.9133 36.6135 38.9439 36.2647 38.9554C35.728 38.9708 35.5785 38.9631 35.2641 38.8979C34.3748 38.7139 33.9224 38.2808 33.9186 37.6214C33.9148 37.0004 34.4054 36.5404 35.245 36.3794C35.7472 36.2835 36.7783 36.318 37.3419 36.4484C37.3649 36.4522 37.4684 36.2414 37.5719 35.9807C37.7175 35.6242 37.752 35.4977 37.7175 35.4747C37.6524 35.4363 37.2844 35.3712 36.8205 35.3252C36.3988 35.2792 35.5363 35.283 35.0571 35.3328Z" fill="black"/>
    <path d="M62.8496 35.3137C62.5813 35.3443 62.1021 35.4517 61.8146 35.5437C60.6837 35.9079 59.9899 36.6439 59.9285 37.5524C59.8864 38.1236 60.078 38.6028 60.5266 39.0436C61.0057 39.519 61.6728 39.8103 62.6004 39.9521C63.187 40.0403 64.268 40.002 64.843 39.8755C66.3381 39.542 67.1622 38.7369 67.1622 37.6061C67.1622 37.0617 66.9591 36.6209 66.5336 36.2145C66.1809 35.8849 65.8819 35.7124 65.3682 35.5437C64.8085 35.3597 64.2488 35.283 63.5396 35.2945C63.2253 35.2983 62.9148 35.306 62.8496 35.3137ZM64.0955 36.3449C64.3332 36.41 64.6552 36.6132 64.774 36.7742C64.9963 37.0771 65.0347 37.1997 65.0347 37.6444C65.0347 38.0354 65.027 38.0814 64.9235 38.2884C64.7855 38.5568 64.5823 38.7484 64.291 38.8826C63.9843 39.0283 63.3365 39.0513 62.957 38.9324C62.6004 38.8251 62.3551 38.6258 62.1826 38.3153C62.0484 38.0738 62.0446 38.0546 62.0446 37.6636C62.0446 37.1882 62.1098 37.0081 62.3858 36.7129C62.7691 36.3065 63.4285 36.1647 64.0955 36.3449Z" fill="black"/>
    <path d="M23.3077 35.3635C23.0854 35.3788 22.8324 35.3942 22.7442 35.398L22.5793 35.4018V37.6636V39.9253H23.5722H24.5651L24.5689 39.0781V38.2271L24.9446 38.2347C25.5503 38.2462 25.7266 38.3651 25.9528 38.9171C26.1368 39.3733 26.2863 39.6876 26.3745 39.8141L26.455 39.9253H27.467H28.479L28.387 39.7605C28.3372 39.6723 28.1992 39.3656 28.0803 39.0819C27.743 38.2846 27.5283 38.0201 27.0951 37.8514L26.9341 37.7901L27.145 37.7211C27.5858 37.5792 28.0075 37.2572 28.1302 36.9735C28.3142 36.5327 28.065 35.9807 27.559 35.7277C26.961 35.4248 26.4933 35.3558 24.9561 35.3443C24.2699 35.3405 23.53 35.3482 23.3077 35.3635ZM25.8684 36.3372C26.2249 36.4905 26.3246 36.7895 26.0984 37.0272C25.8991 37.2342 25.6998 37.2879 25.1018 37.3109L24.5727 37.3301V36.7819V36.2375L25.1401 36.2529C25.5656 36.2644 25.7419 36.2874 25.8684 36.3372Z" fill="black"/>
    <path d="M83.8186 35.3712C83.5234 35.3865 83.2589 35.4095 83.232 35.421C83.1937 35.4363 83.186 35.8963 83.186 37.6252C83.186 38.8251 83.1975 39.8371 83.209 39.8678C83.2282 39.9176 83.3739 39.9253 84.2057 39.9253H85.1794V39.0819V38.2386H85.5283C86.1608 38.2386 86.3486 38.3574 86.5633 38.8979C86.6361 39.0743 86.7703 39.3694 86.8661 39.5611L87.0386 39.9061L88.066 39.9176L89.0934 39.9253L88.9975 39.7451C88.9477 39.6416 88.8327 39.3886 88.7445 39.1778C88.3842 38.3229 88.1427 38.0086 87.7478 37.8667L87.5677 37.8016L87.859 37.6827C88.3343 37.4911 88.5912 37.2917 88.7292 36.9927C88.894 36.6439 88.8174 36.2759 88.5184 35.9768C88.204 35.6625 87.5983 35.4517 86.7741 35.3673C86.295 35.3175 84.6159 35.3213 83.8186 35.3712ZM86.4521 36.318C86.8278 36.4369 86.9581 36.801 86.7128 37.0464C86.5288 37.2265 86.2988 37.2879 85.7084 37.3071L85.1794 37.3262V36.8125C85.1794 36.5289 85.1909 36.2835 85.2101 36.2682C85.2523 36.2222 86.2911 36.2644 86.4521 36.318Z" fill="black"/>
    <path d="M2.07797 35.467C2.0588 35.5283 1.74829 36.1954 1.39178 36.9544C0.349087 39.1663 0.184249 39.5113 0.0922468 39.7221L0.000244141 39.9253H1.02761H2.05497L2.25814 39.4078L2.45748 38.8903L3.41584 38.8979L4.3742 38.9094L4.59654 39.4078L4.81888 39.9061L5.89608 39.9176L6.97328 39.9253L6.69344 39.3426C6.5401 39.0206 6.04558 37.9932 5.59707 37.0579L4.78055 35.3635H3.44651H2.1163L2.07797 35.467ZM3.73402 37.1154C3.91419 37.5639 4.06369 37.9396 4.06369 37.9511C4.06369 37.9626 3.77235 37.9702 3.41201 37.9702C3.0555 37.9702 2.76032 37.9549 2.76032 37.9396C2.76032 37.9089 3.24717 36.5864 3.33917 36.364C3.35834 36.3142 3.38134 36.2797 3.38901 36.2874C3.39667 36.295 3.55385 36.6707 3.73402 37.1154Z" fill="black"/>
    <path d="M7.92012 35.5053C7.90862 35.5858 7.85495 36.1072 7.80128 36.6669C7.74761 37.2265 7.69778 37.7517 7.68628 37.8361C7.67861 37.9204 7.63261 38.3421 7.59044 38.7753C7.54828 39.2084 7.50227 39.6416 7.49077 39.7413L7.46777 39.9253H8.39163H9.31549L9.31933 39.7413C9.31933 39.6416 9.32699 39.5189 9.33466 39.4653C9.35766 39.3196 9.465 37.7556 9.49183 37.146C9.50717 36.8509 9.53017 36.5825 9.54933 36.5519C9.57617 36.502 9.58 36.5059 9.58383 36.5595C9.58383 36.686 9.99401 37.8859 10.3697 38.8596L10.7492 39.8486H11.5236H12.2979L12.8768 38.5913C13.1949 37.9012 13.5284 37.1499 13.6204 36.9237C13.7163 36.6975 13.8006 36.4982 13.816 36.4867C13.8275 36.4714 13.839 36.7627 13.839 37.1307C13.8428 37.4987 13.8505 37.9281 13.8581 38.0852C13.8965 38.6756 13.954 39.7451 13.954 39.8333V39.9253H14.9238H15.8937L15.8285 39.1279C15.7212 37.8667 15.5257 35.4593 15.5257 35.4095C15.5257 35.375 15.196 35.3635 14.2146 35.3635L12.8998 35.3673L12.5739 36.0842C12.3976 36.479 12.1292 37.1154 11.9759 37.5026C11.8264 37.8859 11.6961 38.2117 11.6846 38.2194C11.6731 38.2309 11.6002 38.0354 11.5236 37.7901C11.4431 37.5409 11.2054 36.893 10.9945 36.3487L10.6074 35.3635H9.27333H7.94312L7.92012 35.5053Z" fill="black"/>
    <path d="M16.8291 37.6444V39.9253H19.3017H21.7742V39.4269V38.9286H20.2984H18.8225V38.5069V38.0852H20.145H21.4676V37.5869V37.0885H20.145H18.8225V36.7244V36.3602H20.2217H21.6209V35.8618V35.3635H19.225H16.8291V37.6444Z" fill="black"/>
    <path d="M29.0576 37.6444V39.9253H30.0543H31.051V37.6444V35.3635H30.0543H29.0576V37.6444Z" fill="black"/>
    <path d="M40.0635 35.6012C40.0021 35.7353 39.615 36.5672 39.1971 37.4527C38.7793 38.3382 38.4151 39.1164 38.3882 39.1854C38.3576 39.2544 38.2656 39.4499 38.1851 39.6186L38.0317 39.9253L39.0706 39.9176L40.1056 39.9061L40.305 39.3963L40.5005 38.8903H41.4588H42.4172L42.6434 39.4078L42.8695 39.9253H43.9352C44.5256 39.9253 45.0048 39.9176 45.0048 39.91C45.0048 39.9023 44.5179 38.8788 43.9199 37.6367L42.835 35.3827L41.5048 35.3712L40.1708 35.3635L40.0635 35.6012ZM41.7387 37.0119C41.8843 37.3799 42.0377 37.7479 42.0684 37.8246L42.1297 37.9702H41.4588C41.0908 37.9702 40.788 37.9626 40.788 37.9511C40.788 37.9434 40.8915 37.6674 41.018 37.3416C41.1445 37.0119 41.248 36.7359 41.248 36.7282C41.248 36.6515 41.4167 36.2835 41.4358 36.3104C41.4512 36.3257 41.5892 36.6439 41.7387 37.0119Z" fill="black"/>
    <path d="M45.6565 37.6444V39.9253H46.5804H47.508L47.4812 38.5529C47.4697 37.8016 47.4467 37.0924 47.4352 36.9812C47.4237 36.8739 47.4199 36.7819 47.4352 36.7819C47.4467 36.7819 47.5272 36.8892 47.6154 37.0195C47.9106 37.4566 48.2594 37.9012 49.0989 38.9171L49.9308 39.9253H50.9773H52.02V37.6444V35.3635H51.1153H50.2106L50.2298 36.502C50.2451 37.1307 50.2758 37.8054 50.3065 37.9971C50.3333 38.1926 50.3525 38.3497 50.3486 38.3421C50.3448 38.3382 50.2068 38.1351 50.0458 37.8936C49.7008 37.3799 49.6931 37.3722 48.7462 36.2337L48.0179 35.3635H46.8372H45.6565V37.6444Z" fill="black"/>
    <path d="M54.1284 35.881V36.3985H55.0676H56.0068V38.1619V39.9253H57.0035H58.0002V38.1619V36.3985H58.9586H59.9169V35.881V35.3635H57.0227H54.1284V35.881Z" fill="black"/>
    <path d="M67.3154 35.3903C67.3154 35.4095 67.6873 36.433 68.1473 37.6712L68.983 39.9253H70.0832H71.1834L71.3559 39.3771C71.4479 39.0781 71.5974 38.6066 71.6817 38.3344C71.8351 37.8437 71.9999 37.2074 72.0536 36.9237C72.0651 36.8432 72.0842 36.7857 72.0919 36.7895C72.0996 36.7972 72.1494 37.0195 72.2031 37.2802C72.3142 37.8131 72.8663 39.8525 72.9084 39.8985C72.9238 39.9138 73.4183 39.9215 74.0048 39.9176L75.0782 39.9061L75.9675 37.6636C76.4582 36.4292 76.8607 35.4095 76.8607 35.3903C76.8607 35.375 76.4122 35.3635 75.8678 35.3635H74.875L74.8136 35.5628C74.7791 35.674 74.6143 36.3334 74.4418 37.031C74.2693 37.7249 74.1121 38.3651 74.0891 38.4494C74.0546 38.5989 74.047 38.5798 73.9205 37.9894C73.8514 37.6521 73.6751 36.9275 73.5294 36.3794L73.2688 35.3827H72.1992H71.1335L70.892 36.226C70.7617 36.6899 70.5662 37.3952 70.4589 37.7977C70.3515 38.1964 70.2518 38.5529 70.2403 38.5836C70.2288 38.6143 70.1368 38.2884 70.0372 37.8552C69.88 37.1805 69.5848 35.9845 69.4583 35.5053L69.42 35.3635H68.3696C67.7908 35.3635 67.3154 35.375 67.3154 35.3903Z" fill="black"/>
    <path d="M77.4358 37.6444V39.9253H79.9084H82.3809V39.4269V38.9286H80.9051H79.4292V38.5069V38.0852H80.7517H82.0743V37.5869V37.0885H80.7517H79.4292V36.7244V36.3602H80.8284H82.2276V35.8618V35.3635H79.8317H77.4358V37.6444Z" fill="black"/>
</svg>
