<svg width="430" height="498" viewBox="0 0 430 498" fill="none" xmlns="http://www.w3.org/2000/svg">
    <path d="M0 0.109375V497.711L429.801 249.394L0 0.109375Z" fill="white"/>
    <path d="M96.0604 293.018C31.4829 220.705 3.86821 18.8057 1.5043 0.968976L0 0.109375V497.711L266.047 344.057C214.363 363.398 162.357 367.267 96.0604 293.018Z" fill="black"/>
    <path d="M215.115 124.855C230.481 149.569 240.044 185.887 224.786 236.496C192.873 341.69 30.4084 473.424 0 497.385V497.707L429.801 249.39L215.115 124.855Z" fill="#BABBBD"/>
    <path d="M117.658 189.759C217.049 180.518 349.213 219.63 423.139 245.526L0 0.109375V309.996C4.72781 281.521 26.3253 198.247 117.658 189.759Z" fill="#3665B0"/>
    <path d="M52.758 213.611C19.0187 126.039 1.82665 13.2164 0.10745 0.107451L0 0L0.32235 305.803C4.40546 284.206 16.8697 241.011 52.758 213.611Z" fill="#AAB9DF"/>
    <path d="M160.745 344.807C98.3169 419.592 15.5803 485.459 0 497.601V497.708L266.047 344.055C232.415 356.626 198.568 362.644 160.745 344.807Z" fill="#646568"/>
    <path d="M429.585 248.853L216.297 125.5C225.538 143.229 234.349 166.438 232.307 195.557C304.728 206.625 381.34 231.983 429.585 248.853Z" fill="#818386"/>
</svg>
