<svg width="66" height="29" viewBox="0 0 66 29" fill="none" xmlns="http://www.w3.org/2000/svg">
    <path d="M40.2585 22.1653C38.7115 22.1653 37.4566 20.9113 37.4566 19.3628C37.4566 17.8158 38.7115 16.5614 40.2585 16.5614C41.806 16.5614 43.0609 17.8158 43.0609 19.3628C43.0609 20.9113 41.806 22.1653 40.2585 22.1653ZM40.259 14.3784C37.4791 14.3784 35.2257 16.6059 35.2257 19.3555C35.2257 22.1051 37.4791 24.3336 40.259 24.3336C43.0383 24.3336 45.2917 22.1051 45.2917 19.3555C45.2917 16.6059 43.0383 14.3784 40.259 14.3784Z" fill="#455560"/>
    <path d="M60.7833 22.1651C59.2358 22.1651 57.9819 20.9113 57.9819 19.3628C57.9819 17.8158 59.2358 16.5614 60.7833 16.5614C62.3307 16.5614 63.5851 17.8158 63.5851 19.3628C63.5851 20.9113 62.3307 22.1651 60.7833 22.1651ZM55.8693 27.6305C57.0014 27.6305 58.1027 27.3619 58.1027 25.6241V23.2826C58.7172 23.9308 59.6888 24.3335 60.7833 24.3335C63.5632 24.3335 65.8166 22.1431 65.8166 19.3628C65.8166 16.5839 63.5632 14.3784 60.7833 14.3784C59.6154 14.3784 58.588 14.8363 57.9833 15.5623V14.6509H55.8693V27.6305Z" fill="#455560"/>
    <path d="M24.7721 22.1654C23.2251 22.1654 21.9702 20.9115 21.9702 19.3631C21.9702 17.8161 23.2251 16.5617 24.7721 16.5617C26.3195 16.5617 27.5739 17.8161 27.5739 19.3631C27.5739 20.9115 26.3195 22.1654 24.7721 22.1654ZM27.5715 14.6512V15.5627C26.9678 14.8365 25.9399 14.3787 24.7721 14.3787C21.9927 14.3787 19.7393 16.5841 19.7393 19.3631C19.7393 22.1433 21.9927 24.3337 24.7721 24.3337C25.8548 24.3337 26.8176 23.9385 27.4335 23.3025C27.4248 25.0548 26.3831 25.9184 24.7569 25.9184C23.9912 25.9184 22.8219 25.8284 21.8959 25.116C21.6727 26.9165 23.0445 27.8768 24.8856 27.8768C27.3984 27.8768 29.6861 26.8108 29.6861 22.4452V14.6512H27.5715Z" fill="#455560"/>
    <path d="M52.4497 14.3784V19.8021C52.366 21.4416 51.685 22.2563 50.3445 22.2563C48.9096 22.2563 48.231 21.3227 48.231 19.446V16.3848C48.231 14.6451 47.1301 14.3784 45.9976 14.3784V20.0689C45.9976 23.0679 47.3127 24.3336 49.8205 24.3336C51.3695 24.3336 52.1816 23.5087 52.5069 22.9485C52.7452 24.1309 53.7011 24.3336 54.6826 24.3336V16.3848C54.6826 14.6451 53.5823 14.3784 52.4497 14.3784Z" fill="#455560"/>
    <path d="M30.8718 22.3264C30.8718 24.0642 31.9717 24.3333 33.1047 24.3333L33.1058 19.2329C33.1058 16.7794 34.4732 16.6272 35.4292 16.6272V14.3787C33.8832 14.3787 33.2559 15.342 32.9873 15.8929V14.6512H30.8734L30.8718 22.3264Z" fill="#455560"/>
    <path d="M20.3692 10.2698C20.3692 13.1284 17.4714 13.4366 16.2253 13.4366C13.6931 13.4366 12.4596 12.1426 12.4058 10.078H14.5844C14.6651 11.1059 15.15 11.5888 16.3751 11.5888C17.1666 11.5888 18.013 11.3652 18.013 10.5682C18.013 8.87251 12.3809 9.8461 12.3809 6.34901C12.3809 4.36905 14.3251 3.48254 16.2522 3.48254C17.9655 3.48254 20.0439 4.31915 20.1113 6.49969H17.8217C17.8159 6.21643 17.7238 5.97523 17.5428 5.78638C17.1641 5.38814 16.398 5.32844 16.0482 5.32844C15.4146 5.32844 14.7371 5.50996 14.7371 6.1856C14.7371 7.81624 20.3692 6.79226 20.3692 10.2698Z" fill="#5D9732"/>
    <path d="M49.7686 11.2361C48.2212 11.2361 46.9663 9.98267 46.9663 8.43422C46.9663 6.88772 48.2212 5.6338 49.7686 5.6338C51.3161 5.6338 52.57 6.88772 52.57 8.43422C52.57 9.98267 51.3161 11.2361 49.7686 11.2361ZM54.6825 3.72234H52.5686V4.6333C51.9639 3.90874 50.936 3.44983 49.7681 3.44983C46.9888 3.44983 44.7354 5.65581 44.7354 8.43422C44.7354 11.2151 46.9888 13.4044 49.7681 13.4044C50.9262 13.4044 51.9462 12.9534 52.5525 12.2381C52.8504 13.2557 53.7554 13.4367 54.6825 13.4367V3.72234Z" fill="#5D9732"/>
    <path d="M60.4855 11.2362C58.938 11.2362 57.6841 9.98273 57.6841 8.43428C57.6841 6.88778 58.938 5.63385 60.4855 5.63385C62.033 5.63385 63.2879 6.88778 63.2879 8.43428C63.2879 9.98273 62.033 11.2362 60.4855 11.2362ZM65.3999 0.184204C64.2669 0.184204 63.1675 0.451819 63.1675 2.19108V4.4998C62.552 3.85254 61.5799 3.44988 60.4855 3.44988C57.7057 3.44988 55.4526 5.65587 55.4526 8.43428C55.4526 11.2151 57.7057 13.4045 60.4855 13.4045C61.6435 13.4045 62.6642 12.9534 63.2703 12.2381C63.5682 13.2557 64.4723 13.4367 65.3999 13.4367V0.184204Z" fill="#5D9732"/>
    <path d="M34.3701 3.76643H33.1059V0.183716C31.9728 0.183716 30.873 0.45182 30.873 2.18863V3.76643H29.9625V5.48073H30.873V11.4304C30.873 13.1686 31.9728 13.4367 33.1059 13.4367V5.48073H34.3701V3.76643Z" fill="#5D9732"/>
    <path d="M4.51325 8.67522L6.44331 3.51178L8.38118 8.67522H4.51325ZM7.61357 0.183472C6.48978 0.183472 5.23488 0.309207 4.502 2.13651L0.183472 13.1786H2.72801L3.72704 10.6581H9.17034L9.72171 12.0422C10.1914 13.0838 10.8807 13.1786 12.7022 13.1786L7.61357 0.183472Z" fill="#5D9732"/>
    <path d="M25.8636 3.48071C24.3993 3.48071 23.593 4.218 23.2344 4.77182V0.184204C22.1018 0.184204 21.0015 0.451818 21.0015 2.19155V11.4309C21.0015 13.1691 22.1018 13.4367 23.2344 13.4367V8.01157C23.318 6.37311 23.9991 5.55754 25.3397 5.55754C26.774 5.55754 27.4536 6.48955 27.4536 8.36872V11.4309C27.4536 13.1691 28.554 13.4367 29.6865 13.4367V7.74493C29.6865 4.74588 28.3714 3.48071 25.8636 3.48071Z" fill="#5D9732"/>
    <path d="M39.1285 5.56769C40.6281 5.56769 41.4925 6.56868 41.8002 7.73649H36.4636C36.786 6.56868 37.6774 5.56769 39.1285 5.56769ZM44.1619 8.7458C44.1619 5.99627 42.2543 3.48254 39.129 3.48254C36.1232 3.48254 34.0952 5.71006 34.0952 8.4591C34.0952 11.2081 36.3486 13.4366 39.129 13.4366C41.153 13.4366 42.8972 12.2551 43.696 10.5506H41.1501C40.6589 10.9733 40.1961 11.3769 39.1285 11.3769C37.8305 11.3769 36.7396 10.6015 36.4211 9.44932H44.1105C44.1432 9.21986 44.1619 8.98553 44.1619 8.7458Z" fill="#5D9732"/>
</svg>
