<svg width="66" height="13" viewBox="0 0 66 13" fill="none" xmlns="http://www.w3.org/2000/svg">
    <g clip-path="url(#clip0_229:49)">
        <path d="M30.4216 4.17538C30.4216 1.94512 28.9584 0.25 25.943 0.25H19.8765V11.9726H22.7314V2.78349H25.9609C27.1564 2.78349 27.5844 3.46174 27.5844 4.24668C27.5844 5.04966 27.1384 5.70987 25.9428 5.70987H23.1773L27.1026 11.9726H30.3501C30.3501 11.9726 27.6735 7.76164 27.6916 7.76164C29.3511 7.36925 30.4216 6.20946 30.4216 4.17538" fill="#00205B"/>
        <path d="M17.9496 0.25H15.0947V11.9727H17.9496V0.25Z" fill="#00205B"/>
        <path d="M7.79717 7.54759H5.39469L7.17252 3.94346H7.20842L11.2051 11.9726H14.4881L8.51082 0.25H5.97732L0 11.9726H3.21157L4.17981 10.0099H8.99253L7.79717 7.54759Z" fill="#00205B"/>
        <path d="M40.8422 5.88836C41.7524 5.38861 42.2341 4.5858 42.2341 3.40814C42.2341 1.51683 40.8245 0.25 38.4515 0.25H31.7779V11.9726H38.7191C41.1456 11.9726 42.7337 10.67 42.7337 8.68952C42.7335 7.31582 41.9664 6.28092 40.8422 5.88836ZM34.6331 2.73006H38.4515C39.0225 2.73006 39.4685 3.17604 39.4685 3.76496C39.4685 4.35387 39.0225 4.79986 38.4335 4.79986H34.633V2.73006H34.6331ZM38.5226 9.51019H34.633V7.1193H38.5226C39.2186 7.1193 39.7539 7.61905 39.7539 8.29696C39.754 8.99274 39.2186 9.51019 38.5226 9.51019" fill="#00205B"/>
        <path d="M51.7441 6.7982C51.7441 8.57752 50.9233 9.56379 49.2998 9.56379C47.694 9.56379 46.8732 8.57752 46.8732 6.7982V0.25H43.9471V6.58415C43.9471 10.2063 45.8563 12.2225 49.2998 12.2225C52.7433 12.2225 54.6704 10.2063 54.6704 6.58415V0.25H51.7441V6.7982Z" fill="#00205B"/>
        <path d="M62.289 4.90685C59.5788 4.24697 58.9883 4.18394 58.9883 3.40793C58.9883 2.8076 59.6662 2.51579 60.8081 2.51579C62.3247 2.51579 63.9398 2.89627 64.8584 3.46153L65.7684 1.07063C64.5909 0.44615 62.8601 0 60.8438 0C57.8283 0 56.1332 1.49892 56.1332 3.51496C56.1332 5.68435 57.3994 6.56574 60.3084 7.19055C62.573 7.6898 63.0559 8.0013 63.0559 8.63571C63.0559 9.32487 62.4316 9.63504 61.2005 9.63504C59.4162 9.63504 57.8013 9.20163 56.5079 8.49311L55.6336 10.991C57.0432 11.7404 59.1486 12.2223 61.2718 12.2223C64.2338 12.2223 66 10.8483 66 8.54654C66.0003 6.6999 64.8056 5.51363 62.289 4.90685" fill="#00205B"/>
    </g>
    <defs>
        <clipPath id="clip0_229:49">
            <rect width="66" height="12.2225" fill="white"/>
        </clipPath>
    </defs>
</svg>
