<svg width="100" height="40" viewBox="0 0 100 40" fill="none" xmlns="http://www.w3.org/2000/svg">
<g clip-path="url(#clip0_109_2959)">
<path d="M21.2209 39.1121C12.9796 36.6076 6.98993 29.0012 6.98993 19.9999C6.98993 10.9031 13.1074 3.23345 21.4738 0.793474C22.3306 0.539254 22.1086 -0.000120886 21.0622 -0.000120886C9.937 -0.000120886 0.904785 8.97022 0.904785 19.9999C0.904785 31.0295 9.937 39.9999 21.0622 39.9999C22.1086 39.9999 22.1719 39.3973 21.2209 39.1121Z" fill="#0099CC"/>
<path d="M10.8248 24.6593C10.7615 24.12 10.7293 23.5819 10.7293 23.0426C10.7293 14.2632 17.8299 7.16388 26.6093 7.16388C34.9125 7.16388 37.3847 10.8723 37.7022 10.618C38.0505 10.3652 34.6905 3.01162 24.9602 3.01162C16.1809 3.01162 9.08154 10.111 9.08154 18.8903C9.08154 20.9187 9.4622 22.8529 10.159 24.6271C10.4441 25.3884 10.888 25.3884 10.8248 24.6593Z" fill="#0099CC"/>
<path d="M17.4809 13.2173C21.6009 11.4108 26.7996 11.3476 31.9015 13.1541C35.3247 14.3579 37.3222 16.0702 37.4809 15.9747C37.7661 15.8483 35.4834 12.2663 31.3944 10.7127C26.4499 8.84307 21.1261 9.82633 17.259 12.8689C16.8151 13.2173 16.9738 13.4392 17.4809 13.2173Z" fill="#0099CC"/>
<path d="M99.0953 20.6972C99.0953 21.8378 98.1443 22.7888 97.0037 22.7888C95.8617 22.7888 94.9121 21.8701 94.9121 20.6972C94.9121 19.5566 95.8308 18.6056 97.0037 18.6056C98.1766 18.6056 99.0953 19.5243 99.0953 20.6972Z" fill="#FF9933"/>
<path d="M31.0146 32.3928L31.2674 35.1825H35.6739L34.1836 18.9864H27.6236L19.3191 35.1825H23.8197L25.2146 32.3928H31.0146ZM30.7927 29.2547H26.7668L30.2223 22.2509H30.2533L30.7927 29.2547Z" fill="#FF9933"/>
<path d="M41.7907 28.1138H42.4565L45.5946 23.8351H49.6823L45.3403 29.2868L48.0036 35.1823H43.6604L41.9171 30.586H41.2836L40.3017 35.1823H36.5933L40.0152 18.9861H43.7236L41.7907 28.1138Z" fill="#FF9933"/>
<mask id="mask0_109_2959" style="mask-type:luminance" maskUnits="userSpaceOnUse" x="-676" y="-52" width="824" height="1067">
<path d="M-675.768 1014.19H147.421V-51.1172H-675.768V1014.19Z" fill="white"/>
</mask>
<g mask="url(#mask0_109_2959)">
<path d="M55.4831 35.1819H59.1915L60.6805 28.1135C61.505 24.2154 60.016 23.7406 56.2121 23.7406C53.5502 23.7406 50.9824 23.7083 50.2534 27.2257H53.9618C54.1837 26.2115 54.8173 25.9909 55.7373 25.9909C57.3527 25.9909 57.2895 26.6554 57.0676 27.7019L56.6869 29.5083H56.5296C56.4018 28.209 54.754 28.2412 53.7076 28.2412C51.0147 28.2412 49.4289 29.0967 48.8586 31.8218C48.2573 34.7057 49.6199 35.3406 52.2186 35.3406C53.5179 35.3406 55.2611 35.0864 55.8637 33.5341H55.9902L55.4831 35.1819ZM54.4366 30.4916C55.6418 30.4916 56.4341 30.5857 56.2431 31.5367C55.9902 32.7096 55.4831 32.9315 53.9295 32.9315C53.3592 32.9315 52.3141 32.9315 52.5669 31.6954C52.7889 30.6489 53.5179 30.4916 54.4366 30.4916Z" fill="#FF9933"/>
<path d="M66.7031 23.835L66.3547 25.4195H66.5134C67.2425 24.0879 68.7315 23.7086 69.9999 23.7086C71.5844 23.7086 73.1689 23.9938 72.9469 25.9266H73.1057C73.6437 24.3098 75.2928 23.7086 76.7185 23.7086C79.3495 23.7086 80.4592 24.786 79.8876 27.417L78.2398 35.1821H74.5314L75.9263 28.6208C76.1159 27.4479 76.307 26.5602 74.8798 26.5602C73.4218 26.5602 72.9469 27.5111 72.6927 28.7473L71.3302 35.1821H67.6218L69.0798 28.3034C69.2708 27.2583 69.3341 26.5602 68.0347 26.5602C66.5134 26.5602 66.0373 27.3847 65.7521 28.7473L64.3895 35.1821H60.6812L63.0902 23.835H66.7031Z" fill="#FF9933"/>
<path d="M86.766 35.1819H90.4744L91.9957 28.1135C92.8202 24.2154 91.3299 23.7406 87.5274 23.7406C84.8641 23.7406 82.2963 23.7083 81.5687 27.2257H85.277C85.4976 26.2115 86.1325 25.9909 87.0512 25.9909C88.668 25.9909 88.6048 26.6554 88.3828 27.7019L88.0022 29.5083H87.8435C87.717 28.209 86.0693 28.2412 85.0228 28.2412C82.3286 28.2412 80.7441 29.0967 80.1738 31.8218C79.5712 34.7057 80.9338 35.3406 83.5325 35.3406C84.8332 35.3406 86.5764 35.0864 87.1776 33.5341H87.3054L86.766 35.1819ZM85.7519 30.4916C86.9557 30.4916 87.7479 30.5857 87.5583 31.5367C87.3054 32.7096 86.7983 32.9315 85.2448 32.9315C84.6744 32.9315 83.628 32.9315 83.8822 31.6954C84.1041 30.6489 84.8332 30.4916 85.7519 30.4916Z" fill="#FF9933"/>
</g>
<path d="M95.8625 35.1819H92.1541L94.5308 23.8348H98.2714L95.8625 35.1819Z" fill="#FF9933"/>
</g>
<defs>
<clipPath id="clip0_109_2959">
<rect width="98.1905" height="40" fill="white" transform="translate(0.904785)"/>
</clipPath>
</defs>
</svg>
