<svg width="160" height="40" viewBox="0 0 160 40" fill="none" xmlns="http://www.w3.org/2000/svg">
    <path d="M0.514145 28.4362L1.09886 27.176C1.11902 27.7305 1.48195 28.4362 2.45983 28.4362H8.81104C9.1538 28.4362 9.56714 28.043 9.48649 27.428C9.44616 27.1155 8.56909 25.4219 8.56909 25.4219C8.56909 25.4219 6.86535 22.2765 6.42178 21.4599C5.9782 20.6433 5.73625 19.8368 5.73625 19.2824C5.73625 18.7279 5.79674 18.0524 6.1395 17.3871L11.0289 26.8937C11.0289 26.8937 11.6136 27.9119 11.1499 28.6479C10.5349 29.6056 9.73852 29.4443 9.73852 29.4443H0L0.514145 28.4362ZM0.514145 28.4362L1.09886 27.176C1.11902 27.7305 1.48195 28.4362 2.45983 28.4362H8.81104C9.1538 28.4362 9.56714 28.043 9.48649 27.428C9.44616 27.1155 8.56909 25.4219 8.56909 25.4219C8.56909 25.4219 6.86535 22.2765 6.42178 21.4599C5.9782 20.6433 5.73625 19.8368 5.73625 19.2824C5.73625 18.7279 5.79674 18.0524 6.1395 17.3871L11.0289 26.8937C11.0289 26.8937 11.6136 27.9119 11.1499 28.6479C10.5349 29.6056 9.73852 29.4443 9.73852 29.4443H0L0.514145 28.4362ZM13.64 29.4342H11.5935C11.5935 29.4342 12.0875 29.0511 12.2689 28.4362C12.4403 27.8716 12.0875 27.055 12.0875 27.055L6.60324 16.389L7.57104 14.5643L13.7811 26.4502C13.7811 26.4502 14.5271 27.8414 14.3154 28.4362C14.1037 29.031 13.64 29.4342 13.64 29.4342ZM16.372 29.4342H15.1522C15.1522 29.4342 15.7167 28.5571 15.4546 27.8212C15.0211 26.561 14.3356 25.3715 14.3356 25.3715L8.07511 13.5461L9.71836 10.4612L19.4367 29.4342C19.4367 29.4342 16.3619 29.4342 16.372 29.4342Z" fill="#106253"/>
    <path fill-rule="evenodd" clip-rule="evenodd" d="M34.2561 24.6154C34.0444 24.1415 33.9234 23.829 33.3387 23.829H28.7316C28.3283 23.829 27.9553 23.829 27.7436 24.2625L26.4028 27.1458C26.3423 27.2869 26.2617 27.5994 26.2617 27.8615C26.2617 29.3032 27.7436 28.6882 27.7436 29.2225C27.7436 29.5955 27.4513 29.5249 27.1791 29.5249C26.5944 29.5249 26.0096 29.4443 25.4148 29.4443C24.8503 29.4443 24.2857 29.5249 23.7413 29.5249C23.6204 29.5249 23.5498 29.4241 23.5498 29.3032C23.5498 28.8697 24.5378 29.2225 25.0822 28.043L30.0926 17.5585C31.3225 14.9575 31.393 14.6349 31.6652 14.6349C31.887 14.6349 32.0382 15.2297 32.0987 15.391L36.4538 25.9864C36.7764 26.7526 37.0184 27.6196 37.5023 28.3353C38.1374 29.283 39.3472 28.8293 39.3472 29.3435C39.3472 29.5249 39.206 29.5249 39.0548 29.5249C38.1979 29.5249 37.341 29.4443 36.474 29.4443C35.9095 29.4443 35.3449 29.5249 34.7804 29.5249C34.6594 29.5249 34.3166 29.5249 34.3166 29.3233C34.3166 28.8293 35.5768 29.031 35.5768 28.2547C35.5768 27.801 35.1433 26.8534 34.9316 26.2989L34.2561 24.6154ZM28.6005 22.5487C28.4594 22.8411 28.6005 22.9217 28.8727 22.9217H33.0262C33.4799 22.9217 33.4597 22.7806 33.3589 22.5084L31.3023 17.5484C31.2015 17.3064 31.1007 17.3064 30.9696 17.5484L28.6005 22.5487ZM45.1036 27.0046C45.1036 28.2144 44.9322 28.7084 46.6964 28.7084C51.5354 28.7084 52.2411 26.5913 52.5133 26.5913C52.6645 26.5913 52.6847 26.7929 52.6847 26.8332C52.6847 27.5793 52.1403 28.295 51.6363 28.8293C50.9709 29.5753 50.5071 29.535 49.5898 29.535C47.9969 29.535 46.4041 29.404 44.8112 29.4443C43.9745 29.4645 43.0873 29.535 42.2506 29.535C42.0691 29.535 41.9381 29.4846 41.9381 29.3233C41.9784 29.0814 42.1901 29.1217 42.8655 28.789C43.4099 28.5471 43.4503 27.9623 43.4503 27.0046V16.5705C43.4503 15.5019 41.686 15.643 41.686 15.2297C41.686 15.0079 41.8372 14.9676 42.1094 14.9676C42.5429 14.9676 43.1982 15.0482 44.2265 15.0482C45.4161 15.0482 45.9202 14.9676 46.2327 14.9676C46.5049 14.9676 46.6359 15.0079 46.6359 15.2498C46.6359 15.7237 45.1036 15.2095 45.1036 17.004V27.0046ZM57.2818 17.0242C57.2818 15.4616 55.4167 15.6632 55.4167 15.2498C55.4167 14.9474 55.7393 14.9676 55.9914 14.9676C56.4047 14.9676 56.8281 15.0482 57.6649 15.0482C58.5016 15.0482 59.3384 14.9676 61.0118 14.9676C64.7016 14.9676 65.619 16.9334 65.619 18.4557C65.619 20.5627 63.6531 21.2381 63.6531 21.3793C63.6531 21.6918 66.9396 21.7523 66.9396 25.1698C66.9396 26.5308 65.9416 29.535 61.8587 29.535C61.1026 29.535 59.8424 29.4443 59.1266 29.4443C58.1689 29.4443 57.181 29.535 56.2232 29.535C56.1123 29.535 55.699 29.4947 55.699 29.3032C55.699 29.1015 55.951 29.041 56.3241 28.91C56.5559 28.8495 57.2818 28.7487 57.2818 27.1458V17.0242ZM58.9452 20.5828C58.9452 21.2381 58.6931 21.3389 60.5784 21.3389C64.0161 21.3389 64.1774 20.0889 64.1774 19.1211C64.1774 16.8931 62.272 15.643 60.1549 15.643C58.8343 15.643 58.9452 15.9959 58.9452 17.1855V20.5828ZM58.9452 27.0651C58.9452 28.5471 58.8343 28.9705 61.8083 28.9705C64.6008 28.9705 65.3569 27.1659 65.3569 25.9259C65.3569 24.6154 65.2661 21.9741 60.4473 21.9741C58.8343 21.9741 58.9452 22.2664 58.9452 22.4479V27.0651ZM72.9279 20.9559C72.9279 21.6615 72.8876 21.6615 73.7243 21.6615H75.9926C78.1702 21.6615 77.6056 20.0082 78.0996 20.0082C78.271 20.0082 78.3315 20.2401 78.3315 20.4014C78.3315 21.1272 78.2912 21.8228 78.2912 22.4781C78.2912 23.0124 78.3315 23.5467 78.3315 24.1113C78.3315 24.2928 78.2508 24.3734 78.0996 24.3734C77.4544 24.3734 78.1702 22.5588 76.406 22.5588H73.311C72.8674 22.5588 72.9279 22.9116 72.9279 23.2241V27.0046C72.9279 28.2245 72.7666 28.7184 74.5208 28.7184C79.3598 28.7184 80.0756 26.6014 80.3477 26.6014C80.4889 26.6014 80.509 26.803 80.509 26.8433C80.509 27.5793 79.9646 28.3051 79.4606 28.8394C78.7952 29.5753 78.3315 29.535 77.4141 29.535C75.8213 29.535 74.2284 29.414 72.6356 29.4544C71.7988 29.4745 70.9117 29.535 70.0749 29.535C69.8934 29.535 69.7624 29.4947 69.7624 29.3334C69.8027 29.0914 70.0144 29.1318 70.6899 28.7991C71.2343 28.5471 71.2746 27.9724 71.2746 27.0046V17.629C71.2746 16.7016 71.2746 15.7136 70.1455 15.5422C69.9741 15.5019 69.5104 15.4616 69.5104 15.2196C69.5104 15.0482 69.6414 14.9676 70.2463 14.9676C74.2082 14.9676 75.297 15.0482 76.1741 15.0482C76.5975 15.0482 78.523 14.9676 79.1682 14.9676C79.3396 14.9676 79.3799 15.1793 79.3799 15.4212C79.3799 17.7097 79.0876 17.871 78.9565 17.871C78.4625 17.871 78.7952 16.883 78.4625 16.4092C77.9081 15.7136 75.7305 15.8346 74.8938 15.8346C72.8876 15.8346 72.9279 15.7539 72.9279 17.135V20.9559ZM98.6251 27.6498C98.7259 29.3737 100.278 28.6176 100.278 29.3334C100.278 29.535 100.006 29.535 99.7744 29.535C99.3711 29.535 98.6453 29.4544 97.8085 29.4544C97.1532 29.4544 96.4879 29.535 95.9636 29.535C95.7721 29.535 95.7318 29.4342 95.7318 29.3536C95.7318 28.7386 97.0524 29.1923 97.0323 27.67L96.8206 19.6856C96.8206 19.1715 96.7097 18.8791 96.5887 18.8791C96.4375 18.8791 96.256 19.0606 96.0443 19.4941L91.7093 28.174C91.5984 28.3656 91.2658 29.2023 91.0541 29.2023C90.8524 29.2023 90.7012 28.7588 90.6407 28.6075L86.1747 19.4336C86.1142 19.2723 86.0134 19.2118 85.9227 19.2118C85.8622 19.2118 85.8017 19.3126 85.7816 19.5142L85.5295 26.7425C85.4287 29.4745 87.4147 28.5672 87.4147 29.3132C87.4147 29.5149 87.1829 29.535 86.8905 29.535C86.6183 29.535 85.6807 29.4544 85.0456 29.4544C83.9568 29.4544 83.604 29.535 83.2209 29.535C83.0798 29.535 83.0193 29.4342 83.0193 29.2931C83.0193 28.5874 84.3601 29.4342 84.5012 27.297C84.7533 23.9399 85.0053 21.7624 85.0053 19.5747C85.0053 14.7458 83.0193 15.895 83.0193 15.1994C83.0193 15.0079 83.1806 14.9676 83.3721 14.9676C83.7451 14.9676 84.1282 15.0482 84.5214 15.0482C84.9045 15.0482 85.2775 14.9676 85.6505 14.9676C85.9529 14.9676 85.9933 15.3204 86.0941 15.5422L91.0843 25.9965C91.3061 26.43 91.3968 26.6114 91.538 26.6114C91.6489 26.6114 91.8505 26.178 92.1932 25.5025L97.1734 15.6632C97.3045 15.4414 97.4658 14.9474 97.7178 14.9676C97.9295 14.9676 98.5949 15.0482 98.7057 15.0482C99.1897 15.0482 99.3711 14.9676 99.7139 14.9676C99.8349 14.9676 99.9155 15.0885 99.9155 15.2095C99.9155 15.8749 98.242 14.9877 98.3327 17.4375L98.6251 27.6498ZM112.568 24.6254C112.356 24.1516 112.225 23.8391 111.64 23.8391H107.033C106.64 23.8391 106.257 23.8391 106.045 24.2726L104.714 27.1458C104.644 27.297 104.563 27.5994 104.563 27.8716C104.563 29.3132 106.045 28.6882 106.045 29.2326C106.045 29.5955 105.753 29.535 105.48 29.535C104.896 29.535 104.311 29.4544 103.726 29.4544C103.162 29.4544 102.597 29.535 102.053 29.535C101.922 29.535 101.861 29.4342 101.861 29.3132C101.861 28.8797 102.849 29.2326 103.394 28.0531L108.394 17.5585C109.634 14.9676 109.694 14.6349 109.967 14.6349C110.198 14.6349 110.34 15.2398 110.41 15.4011L114.765 25.9965C115.078 26.7627 115.33 27.6196 115.814 28.3454C116.439 29.2931 117.648 28.8394 117.648 29.3536C117.648 29.535 117.507 29.535 117.366 29.535C116.499 29.535 115.642 29.4544 114.785 29.4544C114.221 29.4544 113.656 29.535 113.092 29.535C112.961 29.535 112.628 29.535 112.628 29.3334C112.628 28.8394 113.888 29.041 113.888 28.2648C113.888 27.8111 113.445 26.8635 113.233 26.309L112.568 24.6254ZM106.912 22.5588C106.761 22.8511 106.912 22.9318 107.184 22.9318H111.328C111.791 22.9318 111.771 22.7906 111.66 22.5184L109.614 17.5585C109.503 17.3165 109.402 17.3165 109.281 17.5585C109.271 17.5585 106.912 22.5588 106.912 22.5588ZM130.976 27.297C132.478 29.5552 133.506 28.7991 133.506 29.2931C133.506 29.535 132.337 29.535 132.145 29.535C130.613 29.535 129.796 28.4866 129 27.3171L126.681 23.7181C125.925 22.5588 126.238 22.6193 123.889 22.6193C123.223 22.6193 123.344 22.9923 123.344 23.204V27.5389C123.344 29.3132 125.522 28.668 125.522 29.3737C125.522 29.5753 125.34 29.535 125.169 29.535C124.978 29.535 124.504 29.4544 122.76 29.4544C121.963 29.4544 121.167 29.535 120.37 29.535C120.249 29.535 120.159 29.4342 120.159 29.3132C120.159 28.7991 121.691 29.0814 121.691 27.5188V17.0443C121.691 15.0684 119.887 15.9152 119.887 15.2196C119.887 15.0885 120.058 14.9676 120.31 14.9676C120.683 14.9676 120.582 15.0482 121.651 15.0482C122.871 15.0482 124.06 14.9676 125.149 14.9676C125.482 14.9676 130.109 14.5542 130.109 18.5263C130.109 20.1292 128.94 21.5103 127.478 22.085L130.976 27.297ZM123.344 21.6313C123.344 22.0245 124.645 21.9237 125.633 21.9237C126.53 21.9237 128.546 21.5506 128.546 19.0001C128.546 16.4898 126.591 15.6531 124.544 15.6531C123.788 15.6531 123.344 15.6027 123.344 16.4092V21.6313ZM139.061 27.0046C139.061 28.2144 138.89 28.7084 140.654 28.7084C145.493 28.7084 146.199 26.5913 146.471 26.5913C146.622 26.5913 146.642 26.7929 146.642 26.8433C146.642 27.5793 146.098 28.295 145.594 28.8293C144.928 29.5753 144.465 29.535 143.537 29.535C141.944 29.535 140.362 29.414 138.769 29.4544C137.922 29.4745 137.045 29.535 136.208 29.535C136.017 29.535 135.896 29.4947 135.896 29.3233C135.936 29.0814 136.148 29.1217 136.813 28.789C137.357 28.5471 137.398 27.9724 137.398 27.0046V16.5705C137.398 15.5019 135.644 15.643 135.644 15.2297C135.644 15.0079 135.785 14.9676 136.057 14.9676C136.5 14.9676 137.156 15.0482 138.174 15.0482C139.374 15.0482 139.878 14.9676 140.19 14.9676C140.462 14.9676 140.583 15.0079 140.583 15.2498C140.583 15.7237 139.061 15.2095 139.061 17.004V27.0046ZM152.409 20.9559C152.409 21.6515 152.368 21.6515 153.205 21.6515H155.473C157.651 21.6515 157.086 20.0082 157.591 20.0082C157.752 20.0082 157.812 20.23 157.812 20.4014C157.812 21.1172 157.772 21.8228 157.772 22.4781C157.772 23.0124 157.812 23.5467 157.812 24.1012C157.812 24.2827 157.732 24.3734 157.591 24.3734C156.935 24.3734 157.651 22.5588 155.887 22.5588H152.792C152.348 22.5588 152.409 22.9116 152.409 23.2141V27.0046C152.409 28.2144 152.247 28.7084 154.002 28.7084C158.841 28.7084 159.556 26.5913 159.829 26.5913C159.97 26.5913 160 26.7929 160 26.8433C160 27.5793 159.445 28.295 158.951 28.8293C158.276 29.5753 157.822 29.535 156.895 29.535C155.302 29.535 153.709 29.414 152.116 29.4544C151.28 29.4745 150.403 29.535 149.566 29.535C149.374 29.535 149.253 29.4947 149.253 29.3233C149.294 29.0814 149.505 29.1217 150.171 28.789C150.715 28.5471 150.755 27.9724 150.755 27.0046V17.6189C150.755 16.6915 150.755 15.7035 149.626 15.5422C149.465 15.5019 149.001 15.4616 149.001 15.2095C149.001 15.0482 149.122 14.9676 149.737 14.9676C153.689 14.9676 154.778 15.0482 155.665 15.0482C156.078 15.0482 158.004 14.9676 158.659 14.9676C158.82 14.9676 158.871 15.1692 158.871 15.4212C158.871 17.6996 158.568 17.871 158.447 17.871C157.943 17.871 158.276 16.883 157.943 16.4092C157.399 15.7035 155.221 15.8346 154.385 15.8346C152.368 15.8346 152.419 15.7438 152.419 17.125C152.409 17.125 152.409 20.9559 152.409 20.9559Z" fill="#131312"/>
</svg>
