<svg width="90" height="40" viewBox="0 0 90 40" fill="none" xmlns="http://www.w3.org/2000/svg">
<g clip-path="url(#clip0_111_3101)">
<path d="M39.4396 2.01958e-05C38.8511 2.11901e-05 38.2759 0.1746 37.7866 0.501663C37.2974 0.828726 36.9162 1.29357 36.6912 1.83737C36.4663 2.38117 36.4077 2.97949 36.5229 3.55659C36.6381 4.1337 36.9219 4.66366 37.3384 5.07941C37.7549 5.49515 38.2854 5.77799 38.8627 5.89214C39.44 6.00629 40.0383 5.9466 40.5816 5.72065C41.125 5.49469 41.5892 5.11262 41.9153 4.62278C42.2415 4.13294 42.415 3.55735 42.4139 2.96886C42.4147 2.57832 42.3382 2.19149 42.1889 1.83061C42.0396 1.46973 41.8205 1.14192 41.5441 0.866024C41.2677 0.590126 40.9394 0.371585 40.5783 0.222965C40.2171 0.0743455 39.8302 -0.00142157 39.4396 2.01958e-05Z" fill="#009ACE"/>
<path d="M71.6595 9.79226H76.2248L76.2959 11.6949C76.9295 10.9168 77.7293 10.2904 78.6366 9.86184C79.544 9.43325 80.5358 9.21331 81.5392 9.21818C86.5529 9.21818 89.2866 12.3182 89.2866 17.7201V30.2953H84.5518V17.8896C84.5518 15.1121 82.8514 13.5156 80.4676 13.5156C78.0838 13.5156 76.3943 15.1121 76.3943 17.8896V30.3062H71.6595V9.79226ZM31.6868 30.3062H26.9575V0.486633H31.6978L31.6868 30.3062ZM41.818 30.3062H37.0723V9.79226H41.818V30.3062ZM16.8809 9.79226H21.5665V30.3062H16.8809L16.8044 28.1575C15.123 29.8607 12.844 30.8414 10.4512 30.8912C4.85796 30.8858 0.713623 26.386 0.713623 20.0766C0.713623 13.3516 5.20241 9.21818 10.4512 9.21818C11.6454 9.18361 12.8327 9.41036 13.9301 9.88256C15.0275 10.3548 16.0084 11.061 16.8044 11.9519L16.8809 9.79226ZM5.5578 20.0766C5.5578 24.0131 7.96895 26.6375 11.326 26.6375C14.3823 26.6375 17.116 24.3959 17.116 20.0766C17.116 15.8612 14.4971 13.5156 11.3424 13.5156C7.82133 13.5156 5.5578 16.2767 5.5578 20.0766ZM61.8016 20.0766C61.8016 15.801 59.1062 13.5156 56.0389 13.5156C52.3757 13.5156 50.2598 16.4954 50.2598 20.0766C50.2598 23.8546 52.5398 26.6375 56.0389 26.6375C59.2593 26.6375 61.8016 24.2428 61.8016 20.0766ZM66.2686 28.2778C66.2686 37.0804 61.1182 40 55.0548 40C52.5136 40.0427 49.9986 39.4805 47.7174 38.3598L48.893 34.292C50.7618 35.3446 52.8716 35.8946 55.0165 35.8885C58.543 35.8885 61.5392 33.625 61.5392 29.5517V28.1411C60.7288 29.03 59.7366 29.7342 58.63 30.2059C57.5235 30.6776 56.3284 30.9057 55.1259 30.8748C49.6037 30.8748 45.4266 26.4298 45.4266 20.0383C45.4266 13.9147 49.3577 9.20725 55.1477 9.20725C56.3442 9.1673 57.5348 9.39156 58.6348 9.86406C59.7348 10.3366 60.7171 11.0457 61.5119 11.941L61.572 9.78133H66.2686V28.2778Z" fill="#3D3935"/>
</g>
<defs>
<clipPath id="clip0_111_3101">
<rect width="88.573" height="40" fill="white" transform="translate(0.713623)"/>
</clipPath>
</defs>
</svg>
