<svg width="160" height="40" viewBox="0 0 160 40" fill="none" xmlns="http://www.w3.org/2000/svg">
    <path fill-rule="evenodd" clip-rule="evenodd" d="M157.412 36.3965C155.973 36.3965 154.814 35.1647 154.814 33.643C154.814 32.1214 155.973 30.8896 157.412 30.8896C158.841 30.8896 160 32.1214 160 33.643C160 35.1647 158.841 36.3965 157.412 36.3965ZM159.638 33.643C159.638 32.3077 158.644 31.2208 157.412 31.2208C156.18 31.2208 155.187 32.3077 155.187 33.643C155.187 34.9887 156.18 36.0756 157.412 36.0756C158.644 36.0756 159.638 34.9887 159.638 33.643ZM158.178 35.1233L157.298 33.819H157.008V35.0715H156.501V32.0282H157.391C158.013 32.0282 158.427 32.3491 158.427 32.9184C158.427 33.3532 158.199 33.643 157.826 33.7569L158.675 34.999L158.178 35.1233ZM157.402 32.5147H157.019V33.4049H157.381C157.712 33.4049 157.919 33.2704 157.919 32.9598C157.919 32.6596 157.733 32.5147 157.402 32.5147ZM29.8531 3.10669V36.4068H23.3939L23.3836 27.8256H11.904C11.7384 28.1154 6.8008 36.3965 6.8008 36.3965H0L20.0091 3.11704C20.0091 3.10669 29.8531 3.10669 29.8531 3.10669ZM23.3732 8.67569C23.3732 8.67569 15.9721 21.1283 15.4855 21.9357H23.3732V8.67569ZM40.7013 3.11704V36.4068H34.4284V3.10669L40.7013 3.11704ZM45.2662 3.11704H51.5391V36.4172H45.2662V3.11704ZM73.8047 29.0263C73.8358 31.2312 73.2251 33.0012 71.9726 34.3159C70.3785 35.9928 67.7906 36.8416 64.2816 36.8416C60.669 36.8416 57.2427 35.6512 55.2345 34.5022L55.0482 34.3987L55.9177 28.8193L56.3007 29.0781C58.8782 30.8275 61.8387 31.8315 64.4782 31.8315C66.9936 31.8315 67.9459 31.2105 67.9666 29.5646C67.9873 27.7428 67.242 27.1735 63.5363 26.2315C57.9362 24.7409 55.5658 23.2917 55.4622 18.1575C55.4312 16.2528 56.073 14.5449 57.3151 13.2199C58.8885 11.5637 61.3211 10.6528 64.1884 10.6528C67.1696 10.6528 69.9644 11.2428 72.3038 12.34L72.5108 12.4436L71.6517 18.0022L71.2894 17.7848C69.0121 16.4599 66.3622 15.6732 64.1884 15.6732C62.439 15.6732 61.3832 16.4392 61.3107 17.7745C61.2176 19.2444 61.9318 19.7619 65.3477 20.6832C71.041 22.2048 73.7219 23.5091 73.8047 29.0263ZM89.8596 36.3654L89.5801 36.4275C88.6589 36.6345 87.6134 36.8312 85.9158 36.8312C80.6573 36.8312 78.1005 34.3573 78.1005 29.3058V16.5427H74.8813V11.1186H78.1005V3.11704H84.2803V11.1186H88.9591L88.8762 16.5427H84.2803V28.3225C84.2803 30.2064 85.1394 31.0655 87.0027 31.0655C87.7479 31.0655 88.2966 31.0034 88.721 30.8896L89.0522 30.7964L89.8596 36.3654ZM111.556 19.0787V36.4068H106.132C106.132 36.4068 105.821 34.3573 105.697 33.6223C103.513 35.8168 101.143 36.8933 98.2959 36.8933C94.1657 36.8933 91.5158 34.1502 91.5158 29.9062C91.5158 24.1612 96.029 20.8902 105.293 19.9068V19.2547C105.293 16.9671 104.124 15.9112 101.66 15.9112C99.3414 15.9112 96.9606 16.5116 94.1451 17.8055L93.7931 17.9608L92.9857 12.6195L93.2134 12.5264C95.5528 11.5844 98.5029 10.601 102.405 10.601C108.647 10.601 111.556 13.3027 111.556 19.0787ZM105.293 29.4404V23.9646C100.345 24.6477 97.737 26.4799 97.737 29.2748C97.737 30.8482 98.6893 31.8315 100.242 31.8315C102.012 31.8315 103.761 30.9931 105.293 29.4404ZM128.46 36.3654L128.19 36.4275C127.311 36.6242 126.224 36.8312 124.526 36.8312C119.268 36.8312 116.69 34.3573 116.69 29.3058V16.5427H113.492V11.1186H116.69V3.11704H122.88V11.1186H127.569L127.487 16.5427H122.88V28.3225C122.88 30.2064 123.75 31.0655 125.623 31.0655C126.348 31.0655 126.907 31.0034 127.331 30.8896L127.652 30.7964L128.46 36.3654ZM149.556 28.5605L150.322 33.8397L150.166 33.9536C147.434 35.8893 144.307 36.8933 140.85 36.8933C133.791 36.8933 129.381 31.8937 129.381 23.83C129.381 19.3686 130.571 15.7767 132.817 13.4683C134.66 11.5533 137.113 10.5803 140.094 10.5907C146.895 10.601 150.342 14.9589 150.342 23.5298L150.27 25.2585H135.654C136.006 29.3679 138.107 31.728 141.471 31.728C144.069 31.728 146.357 30.8585 149.173 28.84L149.556 28.5605ZM144.183 20.9834C144.059 18.3024 143.2 15.2798 139.95 15.2798C137.548 15.2798 136.016 17.3604 135.737 20.9834H144.183Z" fill="#0033A0"/>
</svg>
