<svg width="66" height="17" viewBox="0 0 66 17" fill="none" xmlns="http://www.w3.org/2000/svg">
    <g clip-path="url(#clip0_248_36)">
        <path d="M6.01456 8.6647H3.76096L4.96123 4.74855L6.01456 8.6647ZM2.59206 12.9804L3.36142 10.4015H6.39759L7.11742 12.9738H9.9241L7.13558 3.1669C6.97048 2.58741 6.62377 2.31995 6.01456 2.31995H2.03402V3.24615H2.36422C2.78027 3.24615 3.0048 3.41125 3.0048 3.72659C3.0048 3.93627 2.95858 4.11127 2.79348 4.58841L0 12.9804H2.59206Z" fill="#003781"/>
        <path d="M13.1715 12.9804V3.13719C13.1715 2.62373 12.8711 2.31995 12.3741 2.31995H9.90588V3.24615H10.071C10.4854 3.24615 10.662 3.42281 10.662 3.84216V12.9804H13.1715Z" fill="#003781"/>
        <path d="M17.4378 12.9804V3.13719C17.4378 2.62373 17.1323 2.31995 16.6387 2.31995H14.1787V3.24615H14.3438C14.7599 3.24615 14.9365 3.42281 14.9365 3.84216V12.9804H17.4378Z" fill="#003781"/>
        <path d="M21.8146 3.29229C21.8146 2.57741 21.2846 2.1366 20.3766 2.1366C19.4685 2.1366 18.9352 2.56916 18.9352 3.29229C18.9352 4.01542 19.4817 4.44798 20.3766 4.44798C21.2714 4.44798 21.8146 4.01873 21.8146 3.29229ZM21.7667 12.9803V5.8051C21.7667 5.29329 21.4629 4.99116 20.966 4.99116H18.5374V5.8992H18.681C19.0954 5.8992 19.272 6.09072 19.272 6.50677V12.9803H21.7667Z" fill="#003781"/>
        <path d="M27.2612 9.14354V10.6971C26.8435 11.128 26.335 11.3922 25.9041 11.3922C25.4732 11.3922 25.2965 11.171 25.2965 10.5667C25.2965 9.96243 25.422 9.70653 25.8711 9.53318C26.3182 9.35114 26.7846 9.22043 27.2612 9.14354ZM23.8866 7.27792C24.6535 6.89745 25.4926 6.6847 26.3482 6.65385C27.0218 6.65385 27.2612 6.89324 27.2612 7.59161V7.76992C26.2392 7.93502 25.9189 7.99776 25.3427 8.12488C25.02 8.19597 24.704 8.29485 24.3984 8.42041C23.3896 8.8249 22.9125 9.60417 22.9125 10.8011C22.9125 12.32 23.5729 13.0531 24.925 13.0531C25.385 13.055 25.8411 12.9692 26.2689 12.8005C26.657 12.6238 27.0179 12.3926 27.3404 12.1137V12.2259C27.3404 12.7212 27.5947 12.9738 28.0916 12.9738H30.3783V12.1203H30.266C29.8351 12.1203 29.6766 11.9271 29.6766 11.417V7.61142C29.6766 5.58236 28.9716 4.87573 26.9392 4.87573C26.2949 4.87895 25.653 4.95482 25.0257 5.10192C24.4331 5.23409 23.8622 5.44977 23.3302 5.7425L23.8866 7.27792Z" fill="#003781"/>
        <path d="M34.0186 12.9804V7.57837C34.4363 7.11444 34.8656 6.90476 35.3609 6.90476C35.8909 6.90476 36.0213 7.11444 36.0213 7.91847V12.9804H38.5143V7.54865C38.5143 6.28399 38.4235 5.88445 38.019 5.45519C37.6888 5.08372 37.172 4.89551 36.5133 4.89551C35.5376 4.89551 34.8507 5.19764 33.9278 6.06111V5.74247C33.9278 5.24717 33.6686 4.99127 33.1585 4.99127H30.7893V5.89931H30.9329C31.3473 5.89931 31.5256 6.09082 31.5256 6.50687V12.9804H34.0186Z" fill="#003781"/>
        <path d="M45.9091 11.303H42.4305L45.7572 6.63891V4.98792H40.5401C39.949 4.98792 39.6766 5.25868 39.6766 5.85138V7.30426H40.6028V7.16227C40.6028 6.7941 40.7943 6.61909 41.1922 6.61909H42.9852L39.6238 11.336V12.987H45.8975L45.9091 11.303Z" fill="#003781"/>
        <path d="M58.9965 12.7773V3.74469C58.9965 3.02486 58.7406 2.78216 58.0422 2.78216H55.9273V3.79752H56.0544C56.5365 3.79752 56.6306 3.90649 56.6306 4.48764V12.7773H58.9965ZM60.0399 12.7773H62.3876V5.74239C62.3876 5.03577 62.1152 4.78151 61.4268 4.78151H60.0399V12.7773ZM55.5938 12.7773V4.78812H54.202C53.5136 4.78812 53.2445 5.04237 53.2445 5.74899V12.7773H55.5938ZM64.6099 8.18586C64.6099 12.1664 61.7471 15.0606 57.8161 15.0606C53.885 15.0606 51.0156 12.1664 51.0156 8.18586C51.0156 4.20532 53.8834 1.31113 57.8161 1.31113C61.7487 1.31113 64.6099 4.22183 64.6099 8.18586ZM66 8.18586C66 3.5053 62.4983 0.000244141 57.8161 0.000244141C53.1338 0.000244141 49.6288 3.5053 49.6288 8.18586C49.6288 12.8664 53.1305 16.3698 57.8161 16.3698C62.5016 16.3698 66 12.878 66 8.18586Z" fill="#003781"/>
    </g>
    <defs>
        <clipPath id="clip0_248_36">
            <rect width="66" height="16.3701" fill="white"/>
        </clipPath>
    </defs>
</svg>
