<svg width="158" height="40" viewBox="0 0 158 40" fill="none" xmlns="http://www.w3.org/2000/svg">
<g clip-path="url(#clip0_111_3110)">
<path d="M26.0131 11.1675H2.98415L0.255859 13.9062L0.257351 25.9178C0.257351 32.9134 5.59039 38.7034 12.522 39.5667L15.1208 36.9173H14.326C8.10882 36.9173 3.07197 31.9757 3.07197 25.9178V13.9062H5.89254L5.8851 25.9178C5.8851 30.4575 9.66273 34.1488 14.326 34.1488H17.8595L20.5759 31.4101H14.326C11.2181 31.4101 8.71163 28.9393 8.71163 25.9178V13.9062H11.5024L11.5069 25.9178C11.5143 27.4211 12.7706 28.6565 14.326 28.6565H23.2908L26.0042 25.9178H14.326V13.9062H26.0131V39.6709H28.8337L28.8322 13.9062C28.8233 12.388 27.5671 11.1675 26.0131 11.1675ZM40.0818 39.6709L40.0803 13.9062C40.0803 6.33006 33.7813 0.153076 26.0131 0.153076H13.8631L11.1422 2.90667H26.0131C32.2244 2.90667 37.2627 7.84826 37.2627 13.9062V39.6709H40.0818ZM26.0131 5.67515L8.42139 5.66026L5.70053 8.39898L26.0131 8.41386C29.118 8.41386 31.626 10.8847 31.626 13.9062V39.6709H34.4421L34.451 13.9062C34.451 9.36645 30.6719 5.67515 26.0131 5.67515Z" fill="#0E91C8"/>
<path d="M119.826 34.64L122.297 29.1179L124.767 34.64H119.826ZM123.205 26.7811L123.13 26.6322H122.981H121.657H121.508L121.448 26.7811L115.753 39.3434L115.599 39.6858H115.974H117.415H117.578L117.638 39.5518L119.052 36.3963H125.526L126.926 39.5518L127 39.6858H127.149H128.667H129.039L128.89 39.3434L123.205 26.7811ZM75.0598 26.7215H74.8202V26.9746V28.2695V28.5077H75.0598H79.0101V39.4476V39.6858H79.2497H80.6801H80.9242V39.4476V28.5077H84.8715H85.1126V28.2695V26.9746V26.7215H84.8715H75.0598ZM86.0757 7.9971H90.0632C92.7661 7.9971 94.3171 9.2325 94.3171 11.3907V11.4354C94.3171 13.5192 92.6099 14.8736 89.9679 14.8736H86.0757V7.9971ZM96.712 11.361V11.3163C96.712 7.95245 94.1578 5.76446 90.2075 5.76446H83.9457H83.7031V6.00261V22.7474V22.9856H83.9457H85.833H86.0757V22.7474V17.0765H89.8965C93.2886 17.0765 96.712 15.3053 96.712 11.361ZM112.186 26.7215H111.943V26.9746V39.4476V39.6858H112.186H113.592H113.836V39.4476V26.9746V26.7215H113.592H112.186ZM88.9275 37.9294V34.0446H95.4944H95.7385V33.7916V32.5115V32.2734H95.4944H88.9275V28.4928H96.2982H96.5393V28.2546V26.9746V26.7215H96.2982H87.2768H87.0357V26.9746V39.4476V39.6858H87.2768H96.389H96.6286V39.4476V38.1676V37.9294H96.389H88.9275ZM100.891 33.092V28.5077H104.502C106.378 28.5077 107.452 29.3263 107.452 30.7254V30.7701C107.452 32.1841 106.289 33.092 104.485 33.092H100.891ZM106.144 34.4912C108.159 34 109.362 32.6157 109.362 30.7105V30.6808C109.362 29.6389 108.994 28.716 108.328 28.0463C107.478 27.1978 106.156 26.7215 104.608 26.7215H99.2408H99.0012V26.9746V39.4476V39.6858H99.2408H100.65H100.891V39.4476V34.8335H104.095L107.643 39.5965L107.716 39.6858H107.836H109.566H110.05L109.758 39.2988L106.144 34.4912ZM109 22.9856V22.7474V20.9911V20.7529H108.761H101.436V6.00261V5.76446H101.197H99.3078H99.0652V6.00261V22.7474V22.9856H99.3078H108.761H109ZM67.6236 34.64L70.1018 29.1179L72.5652 34.64H67.6236ZM71.0023 26.7811L70.9368 26.6322H70.782H69.4603H69.3055L69.2415 26.7811L63.5527 39.3434L63.3994 39.6858H63.7745H65.2168H65.3716L65.4371 39.5518L66.8526 36.3963H73.3347L74.7323 39.5518L74.7963 39.6858H74.9511H76.4678H76.8429L76.6881 39.3434L71.0023 26.7811ZM135.752 7.9971H139.428C143.373 7.9971 146.126 10.6167 146.126 14.3825V14.4271C146.126 18.1482 143.373 20.7529 139.428 20.7529H135.752V7.9971ZM139.428 22.9856C144.727 22.9856 148.567 19.3687 148.567 14.3825V14.3229C148.567 9.36646 144.727 5.76446 139.428 5.76446H133.624H133.385V6.00261V22.7474V22.9856H133.624H139.428ZM144.415 32.2883C141.706 31.7078 141.215 31.0975 141.215 30.1003V30.0705C141.215 29.0286 142.212 28.2993 143.626 28.2993C144.891 28.2993 145.992 28.716 147.079 29.5942L147.272 29.7579L147.421 29.5644L148.24 28.463L148.389 28.2844L148.195 28.1356C146.811 27.0192 145.457 26.5429 143.67 26.5429C141.155 26.5429 139.324 28.0909 139.324 30.1896V30.2342C139.324 32.6306 141.066 33.4939 143.7 34.0744C146.275 34.6102 146.751 35.2205 146.751 36.2028V36.2326C146.751 37.3638 145.739 38.1229 144.221 38.1229C142.629 38.1229 141.438 37.6317 140.098 36.4112L139.92 36.2475L139.756 36.441L138.878 37.4829L138.729 37.6466L138.907 37.8104C140.47 39.2095 142.152 39.8644 144.162 39.8644C146.811 39.8644 148.672 38.3164 148.672 36.0987V36.054C148.672 34.0744 147.392 32.9432 144.415 32.2883ZM114.061 22.9856V22.7474V6.00261V5.76446H113.823H111.933H111.69V6.00261V22.7474V22.9856H111.933H113.823H114.061ZM70.6421 7.9971H74.6326C77.3356 7.9971 78.8851 9.2325 78.8851 11.3907V11.4354C78.8851 13.5192 77.1793 14.8736 74.5359 14.8736H70.6421V7.9971ZM70.4025 22.9856H70.6421V22.7474V17.0765H74.4659C77.858 17.0765 81.2799 15.3053 81.2799 11.361V11.3163C81.2799 7.95245 78.7273 5.76446 74.7755 5.76446H68.5137H68.2726V6.00261V22.7474V22.9856H68.5137H70.4025ZM57.1614 8.68178L60.5908 16.377H53.7083L57.1614 8.68178ZM50.7671 22.9856L50.8311 22.8367L52.7497 18.565H61.5448L63.4411 22.8367L63.5051 22.9856H63.6629H65.6931H66.0667L65.9119 22.6433L58.2882 5.79423L58.2257 5.64539H58.0694H56.3011H56.1448L56.0808 5.79423L48.4541 22.6433L48.2993 22.9856H48.6759H50.6109H50.7671ZM132.626 37.9145V26.9746V26.7215H132.388H130.989H130.751V26.9746V39.4476V39.6858H130.989H137.315H137.553V39.4476V38.1527V37.9145H137.315H132.626ZM60.0281 26.7215H59.8987L59.8287 26.8406L55.481 33.3451L51.1363 26.8406L51.0633 26.7215H50.9353H49.5079H49.2668V26.9746V39.4476V39.6858H49.5079H50.8817H51.1229V39.4476V30.1449L55.2294 36.1582L55.2994 36.2624H55.4289H55.5003H55.6269L55.6983 36.1582L59.8049 30.1301V39.4476V39.6858H60.046H61.4555H61.6967V39.4476V26.9746V26.7215H61.4555H60.0281ZM120.138 20.7827V15.4095H129.024H129.277V15.1713V13.4448V13.2066H129.024H120.138V7.96734H130.111H130.349V7.72919V6.00261V5.76446H130.111H118.01H117.772V6.00261V22.7474V22.9856H118.01H130.23H130.468V22.7474V21.0209V20.7827H130.23H120.138Z" fill="#0E91C8"/>
<path d="M154.863 36.7089C155.31 36.7089 155.608 36.5154 155.608 36.1582V36.1433C155.608 35.8158 155.34 35.6075 154.893 35.6075H153.985V36.7089H154.863ZM153.524 35.1907H154.908C155.31 35.1907 155.623 35.3247 155.831 35.5182C155.98 35.667 156.084 35.8754 156.084 36.1135V36.1433C156.084 36.6345 155.742 36.9322 155.28 37.0512L156.248 38.2866H155.667L154.774 37.1257H154.759H153.985V38.2866H153.524V35.1907ZM157.468 36.828V36.8131C157.468 35.3098 156.277 34.0744 154.715 34.0744C153.152 34.0744 151.961 35.3247 151.961 36.828V36.8429C151.961 38.3611 153.137 39.5964 154.7 39.5964C156.277 39.5964 157.468 38.3462 157.468 36.828ZM151.693 36.8429V36.828C151.693 35.1907 153.018 33.8065 154.715 33.8065C156.411 33.8065 157.736 35.1609 157.736 36.8131V36.828C157.736 38.4801 156.397 39.8495 154.7 39.8495C153.003 39.8495 151.693 38.495 151.693 36.8429Z" fill="#0E91C8"/>
</g>
<defs>
<clipPath id="clip0_111_3110">
<rect width="157.778" height="40" fill="white" transform="translate(0.111084)"/>
</clipPath>
</defs>
</svg>
