<svg width="66" height="16" viewBox="0 0 66 16" fill="none" xmlns="http://www.w3.org/2000/svg">
    <g clip-path="url(#clip0_8_198)">
        <path d="M15.5008 14.6951H11.8404L10.7206 11.9942H4.62025L3.60005 14.6951H0L5.50003 1.05402H9.44031L15.5008 14.6951ZM7.52029 4.31359L5.52024 9.61372H9.72056L7.52029 4.31359Z" fill="black"/>
        <path d="M28.7971 1.05402H31.7572V14.6951H28.3566V6.17446L24.6765 10.4543H24.1567L20.4767 6.17446V14.6949H17.0762V1.05402H20.0363L24.4164 6.11424L28.7971 1.05402Z" fill="black"/>
        <path d="M40.3734 1.05402C45.3535 1.05402 47.9132 4.15379 47.9132 7.89401C47.9132 11.8142 45.4334 14.6951 39.9932 14.6951H34.3528V1.05402H40.3734ZM37.7531 12.1949H39.9728C43.393 12.1949 44.4132 9.87426 44.4132 7.8738C44.4132 5.53344 43.1529 3.55385 39.9328 3.55385H37.753V12.1949H37.7531Z" fill="black"/>
        <path d="M54.6784 4.28843L50.3907 0H66V15.6098L61.7123 11.3219V4.28843H54.6784Z" fill="black"/>
        <path d="M54.6734 5.14777L50.259 9.56201V15.7412H56.4374L60.8515 11.3269H54.6734V5.14777Z" fill="black"/>
    </g>
    <defs>
        <clipPath id="clip0_8_198">
            <rect width="66" height="15.7412" fill="white"/>
        </clipPath>
    </defs>
</svg>
