<?xml version="1.0" encoding="UTF-8"?>
<svg width="512px" height="512px" viewBox="0 0 512 512" version="1.1" xmlns="http://www.w3.org/2000/svg" xmlns:xlink="http://www.w3.org/1999/xlink">
    <!-- Generator: Sketch 49 (51002) - http://www.bohemiancoding.com/sketch -->
    <title>#AMGN</title>
    <desc>Created with Sketch.</desc>
    <defs></defs>
    <g id="#AMGN" stroke="none" stroke-width="1" fill="none" fill-rule="evenodd">
        <rect id="Rectangle" fill="#E8E8E8" x="0" y="0" width="512" height="512"></rect>
        <g id="amgen-1" transform="translate(22.000000, 195.000000)" fill="#387DB7" fill-rule="nonzero">
            <path d="M290.112069,40.2725743 C284.435747,32.3326377 276.629913,27.5516006 266.0607,27.5516006 C248.419231,27.5516006 234.125154,41.9800875 234.125154,59.7737984 C234.125154,77.5675093 248.419231,91.981767 266.0607,91.981767 C278.412933,91.9581494 289.641299,84.8130155 294.883883,73.6402289 C294.883883,73.6402289 262.04383,73.6544582 262.04383,73.6402289 L262.04383,47.2591493 L322.204301,47.2591493 L322.204301,6.35709249 L375.840919,6.35709249 L375.840919,32.7239428 L347.744191,32.7239428 C347.744191,32.7239428 347.644482,47.2591493 347.744191,47.2591493 L375.840919,47.2591493 L375.840919,73.6331142 L347.744191,73.6331142 L347.744191,87.2647616 L375.840919,87.2647616 L375.840919,112.969951 C376.745427,113.026868 322.175813,112.927263 322.175813,112.969951 L322.175813,73.8607827 C315.830012,103.009457 292.391144,118 266.0607,118 C239.958163,118 218.28558,102.596808 211.968267,75.3263982 L211.961145,112.969951 L185.573724,112.969951 L185.573724,50.6670611 C185.573724,50.6670611 170.318162,64.0994986 170.318162,112.969951 L143.21853,112.969951 C143.21853,64.0994986 127.97009,50.6670611 127.97009,50.6670611 L127.97009,112.969951 L101.582669,112.969951 L101.582669,4.72784027 C131.979839,4.72784027 152.049947,38.8354173 156.764785,58.9698443 L156.779029,58.9698443 C161.486745,38.8354173 181.556853,4.72784027 211.961145,4.72784027 L211.961145,40.7421404 L211.968267,40.6923379 C217.081943,16.7871525 241.168922,0.580006016 266.0607,0.580006016 C291.60059,0.580006016 314.106461,19.8535617 318.849787,40.2725743 L290.112069,40.2725743 Z M433.708071,112.969951 C429.840764,83.5509203 410.383157,62.5983099 410.383157,62.5983099 L410.383157,112.962836 L382.379017,112.962836 L382.379017,6.37132176 C388.59662,6.37132176 410.867461,18.3879462 433.693826,51.1864297 L433.693826,6.35709249 L461,6.35709249 L461,112.969951 L433.708071,112.969951 Z M34.6205815,86.2402537 C33.8870041,89.3066629 29.1935329,105.691675 27.3132956,113.211848 L0,113.211848 C3.60378816,99.7509522 10.8113645,76.6995234 18.1400167,61.3247896 C25.4473026,45.9998583 34.6633142,29.1310504 49.7693116,17.761858 C56.7561025,12.5041402 70.2952354,2.15945577 95.3650661,4.50728647 L95.3650661,113.07667 L68.8494469,113.07667 L68.8494469,86.2402537 L34.6205815,86.2402537 Z M68.8708132,61.4386238 L68.8708132,36.2172303 C60.381257,42.1294949 51.2791991,53.1144968 45.7809294,61.4386238 L68.8708132,61.4386238 Z" id="Shape"></path>
        </g>
    </g>
</svg>