<svg width="106" height="40" viewBox="0 0 106 40" fill="none" xmlns="http://www.w3.org/2000/svg">
    <path d="M83.2667 18.6052C83.2667 18.9125 83.2609 19.2197 83.2609 19.5258V39.14H75.8391V5.62143C75.9287 5.62143 76.0183 5.6098 76.1068 5.6098C78.0853 5.6098 80.0732 5.6098 82.0563 5.6098C82.1385 5.60338 82.221 5.61821 82.2958 5.65286C82.3706 5.68751 82.4352 5.74081 82.4835 5.80765C87.7006 12.2848 92.9212 18.76 98.1452 25.2333C98.1964 25.2973 98.2523 25.3566 98.3571 25.4754V5.62842H105.779V39.1586H105.527C103.749 39.1586 101.971 39.1586 100.192 39.1586C100.116 39.1644 100.039 39.1503 99.9695 39.1177C99.9 39.085 99.8401 39.035 99.7956 38.9724C95.8579 34.0912 91.9199 29.2105 87.9814 24.3301C86.4335 22.4121 84.8817 20.4957 83.3261 18.5808L83.2691 18.5284L83.2667 18.6052Z" fill="#EB0017"/>
    <path d="M54.4698 40C50.4266 39.8836 46.2275 38.2088 42.8198 34.7499C39.383 31.2584 37.6605 27.0244 37.7303 22.1153C37.799 17.3587 39.5645 13.2783 42.9187 9.92291C45.9389 6.90159 49.605 5.18377 53.8693 4.8672C59.3731 4.45986 64.111 6.22773 67.9633 10.1801C71.2756 13.575 72.9131 17.7113 72.905 22.4423C72.8899 32.0684 65.1201 39.9546 54.4698 40ZM65.4448 23.1953C65.4448 19.577 64.4474 17.1957 62.5026 15.2312C60.5578 13.2666 58.1336 12.2622 55.3566 12.2413C52.5797 12.2203 50.1543 13.2142 48.1897 15.1811C45.8877 17.4844 44.874 20.302 45.2254 23.5445C45.4511 25.7871 46.4531 27.8803 48.0582 29.4626C50.3289 31.7402 53.0825 32.7935 56.3005 32.5002C61.1281 32.0603 65.5228 27.8903 65.4448 23.1953Z" fill="#EB0017"/>
    <path d="M40.4853 39.1586H40.1816C37.6677 39.1586 35.1538 39.1586 32.6399 39.1586C32.5611 39.1705 32.4807 39.1535 32.4135 39.1107C32.3463 39.0679 32.2969 39.0022 32.2745 38.9258C30.2959 34.1587 28.3128 29.394 26.3249 24.6315C25.8163 23.4165 25.2926 22.2038 24.7805 20.9841C24.3072 19.8598 23.837 18.7347 23.3699 17.6089C22.3993 15.2595 21.4294 12.9093 20.4603 10.5584C20.4289 10.4839 20.3859 10.4141 20.3253 10.2977C18.206 15.3976 16.1053 20.4394 13.9859 25.523H14.3246C16.9626 25.523 19.5975 25.523 22.2294 25.523C22.3133 25.5112 22.3987 25.5303 22.4695 25.5768C22.5404 25.6232 22.592 25.6939 22.6146 25.7756C23.5387 27.9031 24.4698 30.0286 25.4078 32.1523C25.4439 32.2349 25.4742 32.3198 25.5242 32.4467H25.1692C20.5915 32.4467 16.0106 32.444 11.4266 32.4386C11.1589 32.4386 11.0612 32.5363 10.9704 32.7551C10.1196 34.8139 9.25956 36.8681 8.40996 38.9235C8.34828 39.0724 8.29358 39.1632 8.10271 39.1632C5.51433 39.1555 2.92595 39.1555 0.337575 39.1632C0.309643 39.1632 0.281711 39.1632 0.221191 39.1527C0.243147 39.0739 0.269175 38.9962 0.29917 38.92C2.95583 32.7982 5.61326 26.6768 8.27146 20.5558C11.202 13.8055 14.1298 7.05213 17.055 0.295665C17.1492 0.0768631 17.2551 -0.00227797 17.4995 4.97104e-05C19.3989 0.0116881 21.2999 0.0116881 23.2023 4.97104e-05C23.4514 4.97104e-05 23.5515 0.0850097 23.6458 0.30032C26.3187 6.47565 28.9955 12.6494 31.6763 18.8216C34.5727 25.4943 37.4687 32.1701 40.3643 38.849C40.3969 38.9409 40.4341 39.0329 40.4853 39.1586Z" fill="#EB0017"/>
</svg>
