<svg width="160" height="40" viewBox="0 0 160 40" fill="none" xmlns="http://www.w3.org/2000/svg">
    <path d="M33.2867 36.8538C31.4212 36.4647 29.6436 35.2009 28.9488 33.7696C28.3824 32.6027 28.2277 31.7234 28.3058 30.1131C28.3444 29.3191 28.4083 28.5341 28.448 28.3687C28.5026 28.1408 28.4625 28.1714 28.2825 28.495C27.7616 29.4318 26.639 30.2169 25.364 30.5362L24.8072 30.6756L25.9956 33.6385C26.6492 35.2681 27.184 36.6178 27.184 36.638C27.184 36.6581 26.061 36.6599 24.6884 36.642L22.1929 36.6095L20.8688 32.8571C20.1405 30.7933 19.5171 29.0784 19.4833 29.0463C19.4496 29.0141 19.0712 30.7162 18.6425 32.8288L17.863 36.6697H15.5458C13.6246 36.6697 13.2287 36.6405 13.2287 36.4989C13.2287 36.4049 13.5532 34.7402 13.9499 32.7995C14.3466 30.8588 14.6983 29.1356 14.7314 28.9702C14.7655 28.8002 14.6558 28.9309 14.4791 29.271C14.1035 29.9936 13.2279 30.9295 12.567 31.3145C11.4946 31.9394 11.0445 32.0201 8.23606 32.0912L5.58936 32.1583L5.25799 33.7824C5.07573 34.6756 4.86889 35.6907 4.79832 36.0381L4.67002 36.6697H2.33261C1.04704 36.6697 -0.00263331 36.6291 4.96247e-06 36.5794C0.00263963 36.5298 0.670109 33.2139 1.48326 29.2108L2.96171 21.9324H7.34329H11.7249L12.5217 22.3099C12.96 22.5176 13.5414 22.8888 13.8138 23.1349C14.4745 23.7319 15.0506 24.9207 15.1425 25.8768L15.2143 26.6243L15.7024 24.2783L16.1904 21.9324H20.815C25.4078 21.9324 25.4448 21.9344 26.2022 22.2218C27.829 22.839 28.8957 24.3273 28.911 26.0011L28.9186 26.8335L29.1228 26.3528C29.5232 25.41 30.3425 24.2725 31.1791 23.498C32.7035 22.0866 34.6016 21.391 36.9286 21.391C39.9075 21.391 41.987 22.5172 43.0184 24.689C43.9667 26.6859 44.0231 28.806 43.1923 31.2273C42.7141 32.621 42.1911 33.4472 41.0791 34.5651C40.0282 35.6217 39.0499 36.2117 37.5903 36.6694C36.5087 37.0085 34.4515 37.0966 33.2867 36.8538ZM36.7945 32.9036C38.5251 31.7583 39.5631 27.8278 38.5999 26.0675C37.8888 24.7679 35.9708 24.6629 34.7755 25.8583C33.8209 26.8128 33.1748 28.6735 33.1517 30.5342C33.135 31.8807 33.4687 32.62 34.2819 33.0382C35.0346 33.4252 36.0917 33.3686 36.7945 32.9036ZM23.1892 28.206C24.0379 27.7565 24.3408 26.5455 23.7611 25.92C23.4693 25.6052 23.4477 25.6017 21.7929 25.6017H20.1198L19.8622 26.8949C19.7205 27.6062 19.6047 28.2622 19.6047 28.3525C19.6048 28.6126 22.6571 28.4878 23.1892 28.206ZM9.68456 28.1779C10.2466 27.9111 10.5074 27.4615 10.5077 26.7583C10.5079 26.2661 10.4542 26.1241 10.1774 25.8861C9.86883 25.6207 9.74866 25.6017 8.37788 25.6017H6.90901L6.64018 26.8387C6.49232 27.519 6.37134 28.1416 6.37134 28.2222C6.37134 28.4587 9.17159 28.4213 9.68456 28.1779ZM63.2151 36.8606C60.8712 36.4028 59.4131 35.3381 58.7527 33.6019C58.3247 32.477 58.4305 31.4578 59.4707 26.6844C59.9825 24.3355 60.4313 22.2918 60.4679 22.1429C60.534 21.8738 60.5479 21.8722 62.8673 21.8722C64.1504 21.8722 65.2005 21.9128 65.2009 21.9625C65.2013 22.0121 64.7574 24.2076 64.2144 26.8415C63.2629 31.4568 63.2335 31.6481 63.4016 32.124C63.6787 32.9083 64.0723 33.1207 65.2484 33.1207C66.1235 33.1207 66.2981 33.0826 66.7284 32.7978C67.0232 32.6026 67.3139 32.2695 67.4632 31.9557C67.6499 31.5633 69.6514 22.4197 69.6514 21.9593C69.6514 21.9114 70.7342 21.8722 72.0575 21.8722C73.9022 21.8722 74.4636 21.9073 74.4635 22.0226C74.4634 22.3204 72.3068 32.1697 72.1369 32.648C71.3895 34.7535 69.9057 36.1421 67.7791 36.7263C66.7943 36.9969 64.29 37.0706 63.2151 36.8606ZM78.3291 36.8535C75.1012 36.118 73.0774 33.327 73.3058 29.9264C73.4574 27.6689 74.4374 25.3171 75.8504 23.8198C77.2592 22.3269 78.6741 21.6453 80.8733 21.4001C83.7466 21.0797 86.4829 22.0873 87.5858 23.8718C87.724 24.0954 87.8777 24.2783 87.9274 24.2783C87.9771 24.2783 88.1171 23.737 88.2385 23.0753L88.4592 21.8722H94.7701H101.081L101.016 22.2031C100.98 22.385 100.911 22.7505 100.862 23.0151L100.774 23.4963L101.323 22.9926C102.499 21.9128 104.159 21.375 106.344 21.3667C107.968 21.3605 109.064 21.5845 110.094 22.1332C111.384 22.8209 112.181 24.0364 112.32 25.5297L112.394 26.3235H110.233H108.071L107.899 25.7521C107.682 25.0288 107.212 24.7599 106.164 24.7599C105.28 24.7599 104.65 25.0448 104.485 25.5178C104.248 26.2021 104.685 26.4729 107.033 27.0974C108.9 27.5937 109.823 28.0309 110.519 28.7494C111.328 29.5837 111.578 30.2629 111.575 31.6169C111.573 32.6035 111.529 32.8553 111.248 33.4582C110.809 34.4008 109.663 35.575 108.717 36.0517C105.982 37.429 101.721 37.1247 99.7567 35.4118C98.8396 34.612 98.2883 33.3358 98.2853 32.0053L98.2839 31.3712L100.66 31.4038L103.036 31.4364L103.07 31.8575C103.158 32.9297 103.64 33.3256 104.886 33.3474C105.789 33.3632 106.367 33.1669 106.639 32.7519C107.115 32.025 106.714 31.5248 105.332 31.1242C104.863 30.9881 104.102 30.7674 103.64 30.6336C102.028 30.1663 100.841 29.3521 100.329 28.3621C100.03 27.785 99.8236 26.5773 99.9201 25.9739L99.9989 25.4814H98.3063C97.3754 25.4814 96.588 25.5231 96.5565 25.574C96.525 25.625 95.994 28.1421 95.3765 31.1676L94.2537 36.6684L91.8777 36.669C90.0549 36.6695 89.5025 36.6347 89.5051 36.5193C89.507 36.4366 90.0111 33.9451 90.6253 30.9826C91.2394 28.0201 91.716 25.5704 91.6845 25.5388C91.6529 25.5072 90.8996 25.4814 90.0106 25.4814H88.3942L88.4244 26.2333C88.441 26.6468 88.4465 27.1341 88.4367 27.316L88.4189 27.6468H86.1331H83.8473V27.003C83.8473 26.2922 83.5695 25.7589 82.9663 25.312C82.6944 25.1105 82.4546 25.061 81.7633 25.0639C80.1157 25.0707 79.236 25.8759 78.4813 28.0679C78.2016 28.8802 78.1486 29.2368 78.1414 30.3537C78.1338 31.5344 78.1636 31.7306 78.4178 32.1742C78.8188 32.874 79.4664 33.2109 80.4105 33.2109C81.7469 33.2109 82.4413 32.7393 83.0153 31.4417L83.2571 30.8951H85.6575C86.9778 30.8951 88.058 30.9165 88.058 30.9428C88.058 31.0964 87.3169 32.7722 87.0326 33.2616C86.5374 34.1138 84.9975 35.5884 84.1257 36.0451C82.5829 36.8534 79.9436 37.2215 78.3291 36.8535ZM42.7465 36.3934C42.8367 36.0339 45.7109 22.0104 45.7109 21.9296C45.7109 21.8981 47.4887 21.8722 49.6617 21.8722C53.2193 21.8722 53.7061 21.8962 54.5537 22.113C57.5048 22.8677 58.9961 25.2685 58.5897 28.6105C58.185 31.9389 56.5518 34.5244 54.1229 35.6819C52.2855 36.5574 52.0854 36.5848 47.1091 36.6394L42.6725 36.6881L42.7465 36.3934ZM51.7897 32.4521C53.0331 31.8124 53.8268 30.0518 53.8297 27.9267C53.8312 26.8767 53.7962 26.6555 53.5834 26.3702C53.0327 25.6318 52.7943 25.5448 51.2064 25.5026L49.7411 25.4637L49.0285 28.9914C48.6366 30.9317 48.2902 32.5926 48.2588 32.6824C48.2122 32.8156 48.4766 32.8378 49.6966 32.8027C51.0153 32.7648 51.2621 32.7235 51.7897 32.4521ZM117.079 36.399C117.374 35.9419 122.477 27.0327 122.546 26.853C122.601 26.7111 122.123 26.6844 119.53 26.6844C117.836 26.6844 116.45 26.6623 116.45 26.6354C116.45 26.6084 117.694 24.4294 119.216 21.7931L121.981 16.9999L125.14 16.9398L128.298 16.8796L132.281 9.96211L136.265 3.04461L139.531 3.0126C141.327 2.995 142.796 3.00365 142.796 3.03183C142.796 3.10769 134.856 16.8541 134.711 17.03C134.617 17.1432 133.821 17.1804 131.49 17.1804H128.394L127.301 19.0752L126.209 20.97L129.315 21.0301L132.421 21.0903L129.682 25.8423L126.943 30.5943L143.06 30.6248C152.958 30.6436 159.162 30.6986 159.138 30.7675C159.116 30.8292 158.367 32.1824 157.475 33.7747L155.852 36.6697H136.378H116.903L117.079 36.399ZM133.93 26.5942C133.957 26.5446 134.696 25.2723 135.572 23.767L137.163 21.0301L142.957 21.0302L148.752 21.0302L150.255 23.5752C151.082 24.9749 151.829 26.2471 151.913 26.4022L152.068 26.6844H142.974C137.972 26.6844 133.902 26.6438 133.93 26.5942ZM156.141 25.8251C155.858 25.3383 155.121 24.0824 154.504 23.0342C153.888 21.986 153.383 21.1063 153.383 21.0793C153.383 21.0522 154.872 21.0301 156.692 21.0301C158.511 21.0301 160 21.0527 160 21.0803C160 21.1779 156.961 26.3861 156.81 26.547C156.684 26.6818 156.567 26.556 156.141 25.8251ZM74.8245 20.099C74.8245 20.0501 76.8138 16.6936 79.2451 12.6401L83.6657 5.27024H85.9139C87.9511 5.27024 88.1679 5.29 88.2244 5.48078C88.2586 5.59657 88.838 8.64177 89.5118 12.2479C90.1856 15.854 90.7725 18.8446 90.816 18.8937C90.8596 18.9428 91.5055 15.9923 92.2515 12.3371C92.9974 8.68193 93.6349 5.59657 93.6681 5.48078C93.723 5.28956 93.943 5.27024 96.0663 5.27024C97.3521 5.27024 98.4041 5.31085 98.4039 5.36047C98.4037 5.44577 95.5884 19.3422 95.4548 19.9173L95.392 20.188H90.9522H86.5124L86.3018 18.9849L86.0912 17.7819L83.5557 17.7836L81.0202 17.7854L80.3585 18.9849L79.6968 20.1845L77.2607 20.1862C75.9208 20.1872 74.8245 20.1479 74.8245 20.099ZM85.608 14.2028C85.575 14.087 85.4278 13.2479 85.2809 12.3381C85.1341 11.4283 84.9816 10.6853 84.942 10.6869C84.8809 10.6894 83.0221 13.9917 82.905 14.3059C82.8828 14.3652 83.4935 14.4134 84.2665 14.4134C85.5441 14.4134 85.6628 14.3947 85.608 14.2028ZM96.9605 20.0367C96.9605 19.9117 99.7076 6.40953 99.9097 5.54093L99.9727 5.27024L104.091 5.27234C108.423 5.27454 109.219 5.3484 110.363 5.85418C111.124 6.19108 111.939 6.98942 112.327 7.77945C112.619 8.37507 112.659 8.59108 112.651 9.54105C112.644 10.3622 112.577 10.7909 112.372 11.3151C111.853 12.6423 110.469 13.7891 109.127 14.0037C108.854 14.0475 108.63 14.118 108.63 14.1606C108.63 14.2031 109.144 15.5222 109.773 17.092C110.402 18.6617 110.916 20.0016 110.916 20.0695C110.916 20.1509 110.072 20.1818 108.436 20.1603L105.957 20.1278L104.619 16.312C103.883 14.2133 103.246 12.5351 103.204 12.5826C103.163 12.6301 102.784 14.3607 102.364 16.4285L101.599 20.188H99.2797C97.4974 20.188 96.9605 20.153 96.9605 20.0367ZM106.948 11.6452C107.843 11.1888 108.092 10.0071 107.433 9.3478L107.078 8.99261L105.478 9.02622L103.878 9.05983L103.612 10.323C103.465 11.0178 103.343 11.6539 103.341 11.7366C103.338 11.8494 103.728 11.887 104.905 11.887C106.239 11.887 106.545 11.8508 106.948 11.6452ZM139.428 17.1053C139.428 16.964 142.847 11.0449 142.928 11.0449C143.001 11.0449 146.526 17.0062 146.526 17.1296C146.526 17.1575 144.929 17.1804 142.977 17.1804C141.025 17.1804 139.428 17.1466 139.428 17.1053Z" fill="#009539"/>
</svg>
