<svg width="66" height="19" viewBox="0 0 66 19" fill="none" xmlns="http://www.w3.org/2000/svg">
    <g clip-path="url(#clip0_222:2)">
        <path d="M44.155 18.0582L46.4387 7.05725L47.3082 18.0582H52.2358L49.9521 0.596313H44.682L42.2226 11.0734L39.7634 0.596313H34.4932L32.2095 18.0582H37.1282L38.0067 7.05725L40.2904 18.0582H44.155Z" fill="#0F238C"/>
        <path d="M59.438 0.596313H54.6951V18.0582H65.9379V14.3912H59.438V0.596313Z" fill="#0F238C"/>
        <path d="M11.305 0.596313H5.33221L0.0621948 18.0582H5.33228L6.03492 14.9152H10.6023L11.305 18.0582H16.575L11.305 0.596313ZM8.31864 4.43793L9.89966 11.5973L6.73762 11.5974L8.31864 4.43793Z" fill="#0F238C"/>
        <path d="M29.223 5.48588C24.8583 1.69097 18.0471 3.23385 17.9802 6.70826C16.99 0.261927 24.8321 -1.08389 29.2227 0.945769C29.3008 1.98081 29.3791 3.09519 29.223 5.48588Z" fill="#0F238C"/>
        <path d="M25.6017 7.54214C24.502 7.1155 22.902 6.72733 22.8997 5.48446C22.8988 4.97679 23.1089 4.42559 24.1287 4.08911C20.6152 4.43834 19.4436 8.68665 23.3295 10.7982C24.0067 11.1662 25.1826 11.5566 25.1826 12.82C25.1826 14.2957 23.5516 14.8293 22.4785 14.8067C20.6962 14.7694 19.2631 14.1505 17.629 12.9945V17.1854C19.5628 18.013 22.713 18.9674 25.871 18.0021C28.4231 17.2218 30.6284 15.0922 30.6284 12.8198C30.6285 9.12241 27.4002 8.24004 25.6017 7.54214Z" fill="#0F238C"/>
    </g>
    <defs>
        <clipPath id="clip0_222:2">
            <rect width="66" height="18.5798" fill="white"/>
        </clipPath>
    </defs>
</svg>
