<svg width="138" height="40" viewBox="0 0 138 40" fill="none" xmlns="http://www.w3.org/2000/svg">
    <path d="M12.2907 24.3877L8.10564 22.9339L0.537354 20.0705L7.34793 16.7665L2.77524 10.9075L10.2114 10.7665L8.66951 3.94714L15.2422 6.39648L19.0396 0L22.8722 6.01762L20.8017 7.22467L17.2951 20.0793H20.8017V25.4537L15.9647 26.3084L12.2907 24.3877Z" fill="#006C4E"/>
    <path d="M37.3744 31.6652L27.63 29.9383L29.2335 38.4229L20.8018 32.9339L17.5771 40L15.0837 32.2467L8.65198 36.2115L10.4934 28.4229L2.80176 29.348L8.10572 22.9339L12.2907 24.3877L15.9648 26.3084L20.8018 25.4538V20.0793H17.2952L20.8018 7.22469L22.8722 6.01764L29.7709 2.01764L28.8899 10.282L37.8766 9.25993L32.5198 16.5375L41.0661 20.0793L31.6916 23.6388L37.3744 31.6652Z" fill="#231916"/>
    <path d="M20.8016 20.0969H31.5769C31.1364 30.6608 20.8016 31.3304 20.8016 31.3304V27.4361C20.6136 27.489 20.4227 27.5272 20.2289 27.5507C15.5769 28.1674 12.2817 24.3965 12.2817 24.3965L13.6209 23.2335C14.4139 24.1498 15.4271 24.8458 16.5637 25.2511C17.7002 25.6652 18.9249 25.7797 20.1231 25.5859C20.3522 25.5565 20.5784 25.5125 20.8016 25.4538V20.0969Z" fill="#FAEF88"/>
    <path d="M31.5771 20.0793H20.8018H17.2952L20.8018 7.22467C31.7797 11.1806 31.5771 20.0793 31.5771 20.0793Z" fill="#F08300"/>
    <path d="M22.0969 15.4097C21.8502 15.163 21.7092 14.837 21.7092 14.4846C21.7092 14.2291 21.7885 13.9736 21.9295 13.7533C22.0793 13.5418 22.2819 13.3656 22.5286 13.2687C22.7665 13.1718 23.0308 13.1454 23.2863 13.1894C23.5506 13.2423 23.7797 13.3744 23.9647 13.5506C24.1498 13.7357 24.2819 13.9736 24.326 14.2291C24.3788 14.4846 24.3524 14.7489 24.2467 14.9956C24.1498 15.2335 23.9735 15.4361 23.7621 15.5771C23.5418 15.7269 23.2863 15.7973 23.022 15.7973C22.6696 15.7973 22.3436 15.6564 22.0969 15.4097Z" fill="#231916"/>
    <path d="M15.9998 13.1718C16.2553 13.1718 16.5108 13.2423 16.7311 13.3833C16.9513 13.533 17.1187 13.7357 17.2245 13.9736C17.3214 14.2115 17.3566 14.4758 17.3038 14.7313C17.2509 14.9868 17.1275 15.2247 16.9425 15.4097C16.7575 15.5947 16.5284 15.7181 16.2729 15.7709C16.0086 15.8238 15.7443 15.7974 15.5064 15.7004C15.2597 15.6035 15.0571 15.4361 14.9073 15.2159C14.7663 15.0044 14.687 14.7489 14.687 14.4846C14.687 14.3172 14.7223 14.141 14.7839 13.9824C14.8456 13.8238 14.9425 13.6828 15.0659 13.5595C15.1892 13.4361 15.3302 13.3392 15.4976 13.2687C15.6562 13.2071 15.8236 13.1718 15.9998 13.1718Z" fill="#FAEF88"/>
    <path d="M25.0837 22.0969L26.6344 22.9163C26.6344 22.9163 25.5683 26.5375 20.8018 27.4185V25.4538C24.4405 24.6432 25.0837 22.0969 25.0837 22.0969Z" fill="#231916"/>
    <path fill-rule="evenodd" clip-rule="evenodd" d="M52.3875 24.3436L51.5064 21.5066H47.806L46.9161 24.3436H45.0835L48.5989 13.8766H50.7046L54.2113 24.3436H52.3875ZM49.6562 15.5595H49.6209L48.2112 20.1586H51.0747L49.6562 15.5595Z" fill="#231916"/>
    <path d="M57.5858 24.511C56.6254 24.4934 55.6651 24.3436 54.74 24.0705V22.2379C55.6475 22.8282 56.5461 23.2511 57.6475 23.2511C58.5726 23.2511 59.4536 22.8546 59.4536 21.7798C59.4536 19.5066 54.5461 19.3745 54.5461 16.3965C54.5461 14.3789 56.3787 13.6917 58.0968 13.6917C58.9426 13.7093 59.7796 13.8062 60.6078 13.9912V15.63C59.7444 15.2776 58.9867 14.9604 58.0351 14.9604C57.2157 14.9604 56.4845 15.3216 56.4845 16.2467C56.4845 18.1057 61.3831 18.3701 61.3831 21.5419C61.3743 23.7445 59.4713 24.511 57.5858 24.511Z" fill="#231916"/>
    <path d="M62.7312 24.3436V13.8766H68.74V15.2247H64.4757V18.2379H68.5109V19.5859H64.4757V22.9956H68.8545V24.3436H62.7312Z" fill="#231916"/>
    <path d="M80.0089 24.3436V19.5683H76.326V24.3436H74.5815V13.8766H76.326V18.2203H80.0089V13.8766H81.7533V24.3436H80.0089Z" fill="#231916"/>
    <path fill-rule="evenodd" clip-rule="evenodd" d="M87.5419 24.511C84.2379 24.511 83.3833 22.0264 83.3833 19.1101C83.3833 16.1938 84.2379 13.7092 87.5419 13.7092C90.8547 13.7092 91.7005 16.2026 91.7005 19.1189C91.7005 22.0352 90.837 24.511 87.5419 24.511ZM87.5419 14.9691C85.4714 14.9691 85.304 17.5683 85.304 19.1101C85.304 20.6608 85.4802 23.2511 87.5419 23.2511C89.6036 23.2511 89.7798 20.6431 89.7798 19.1101C89.7798 17.5771 89.5859 14.9691 87.5419 14.9691Z" fill="#231916"/>
    <path d="M93.3391 24.3436V13.8766H95.0748V22.9956H99.11V24.3436H93.3391Z" fill="#231916"/>
    <path fill-rule="evenodd" clip-rule="evenodd" d="M104.643 24.1145C103.991 24.3084 103.313 24.3877 102.643 24.3612H100.097V13.8766H102.643C106.22 13.8766 107.163 15.6652 107.163 19.0837C107.154 21.1013 106.784 23.4097 104.643 24.1145ZM102.643 15.1542H101.833V23.0925H102.643C103.145 23.1189 103.656 23.0044 104.097 22.7665C105.189 22.0881 105.233 20.2203 105.233 19.0837C105.233 17.0837 105.084 15.1366 102.643 15.1366V15.1542Z" fill="#231916"/>
    <path d="M108.722 13.8766H110.467V24.3436H108.722V13.8766Z" fill="#231916"/>
    <path d="M118.255 24.3436L114.106 16.2555H114.07V24.3436H112.476V13.8766H114.625L118.59 21.5859H118.617V13.8766H120.211V24.3436H118.255Z" fill="#231916"/>
    <path d="M126.22 24.511C123.031 24.511 121.833 22.0088 121.833 19.1013C121.833 16.185 122.661 13.7092 125.903 13.7092C127.815 13.7092 129.33 14.511 129.33 16.652H127.392C127.392 15.7092 126.872 14.978 125.903 14.978C123.877 14.978 123.762 17.6035 123.762 19.1013C123.762 20.8017 124.053 23.2599 126.22 23.2599C126.634 23.2599 127.401 23.1806 127.709 22.8458V19.5066H125.771V18.2379H129.454V23.5594C128.634 24.1938 127.233 24.511 126.22 24.511Z" fill="#231916"/>
    <path d="M133.665 24.511C132.705 24.4934 131.744 24.3436 130.819 24.0705V22.2379C131.727 22.8282 132.625 23.2511 133.727 23.2511C134.652 23.2511 135.533 22.8546 135.533 21.7798C135.533 19.5066 130.625 19.3745 130.625 16.3965C130.625 14.3789 132.458 13.6917 134.167 13.6917C135.022 13.7093 135.859 13.8062 136.687 13.9912V15.63C135.824 15.2776 135.066 14.9604 134.114 14.9604C133.295 14.9604 132.564 15.3216 132.564 16.2467C132.564 18.1057 137.462 18.3701 137.462 21.5419C137.454 23.7445 135.542 24.511 133.665 24.511Z" fill="#231916"/>
</svg>
