<?xml version="1.0" encoding="UTF-8"?>
<svg width="512px" height="512px" viewBox="0 0 512 512" version="1.1" xmlns="http://www.w3.org/2000/svg" xmlns:xlink="http://www.w3.org/1999/xlink">
    <!-- Generator: Sketch 49 (51002) - http://www.bohemiancoding.com/sketch -->
    <title>ASX200</title>
    <desc>Created with Sketch.</desc>
    <defs></defs>
    <g id="ASX200" stroke="none" stroke-width="1" fill="none" fill-rule="evenodd">
        <path d="M184.482922,189.632974 L184.482922,515 L184.939672,515 L250.818866,423.751765 L250.818866,97 L184.482922,189.632974 Z M26,408.542949 L26,515 L91.8838546,515 L91.8838546,317.751631 L26,408.542949 Z M104.323301,299.778 L104.323301,515 L171.582066,515 L171.582066,206.683446 L104.323301,299.778 Z M330.055667,189.632974 L330.055667,515 L263.258312,423.751765 L263.258312,97 L330.055667,189.632974 Z M489,408.542949 L489,515 L423.120806,515 L423.120806,317.751631 L489,408.542949 Z M409.758539,299.778 L409.758539,515 L342.961184,515 L342.961184,206.683446 L409.758539,299.778 Z" id="Shape" fill="#000000" fill-rule="nonzero"></path>
        <path d="M490,1 L490,113.476721 L421.749669,204.287251 L421.749669,1 L490,1 Z M408.373929,221.341331 L408.373929,1 L341.509226,1 L341.509226,184.924784 L387.622171,249 L408.373929,221.341331 Z M328.590697,2.84204588 L268.182926,83.5096653 L328.590697,167.409026 L328.590697,2.84204588 Z M21,1 L21,113.476721 L89.7122067,204.287251 L89.7122067,1 L21,1 Z M102.630736,220.879654 L102.630736,1 L169.957315,1 L169.957315,184.924784 L123.839705,249 L102.630736,220.879654 Z M182.409303,2.84204588 L242.817074,83.5096653 L182.409303,167.409026 L182.409303,2.84204588 Z" id="Shape" fill="#A6A8AA" fill-rule="nonzero"></path>
    </g>
</svg>