<svg width="39" height="25" viewBox="0 0 39 25" fill="none" xmlns="http://www.w3.org/2000/svg">
<g id="ATM - Atletico Madrid Fan Token" clip-path="url(#clip0_502_970)">
<path id="Vector" d="M38.3412 25H1.44946C1.08565 25 0.790649 24.7054 0.790649 24.3421V0.657924C0.790649 0.294605 1.08565 0 1.44946 0H38.3412C38.705 0 39 0.294605 39 0.657924V24.3421C39 24.7055 38.705 25 38.3412 25Z" fill="#C1C1C1"/>
<g id="ATM - Atletico Madrid Fan Token_2">
<circle id="Ellipse 24" cx="19.7906" cy="12" r="10" fill="white"/>
<path id="Ellipse 22 (Stroke)" fill-rule="evenodd" clip-rule="evenodd" d="M19.7906 21C24.7612 21 28.7906 16.9706 28.7906 12C28.7906 7.02944 24.7612 3 19.7906 3C14.8201 3 10.7906 7.02944 10.7906 12C10.7906 16.9706 14.8201 21 19.7906 21ZM19.7906 22C25.3135 22 29.7906 17.5228 29.7906 12C29.7906 6.47715 25.3135 2 19.7906 2C14.2678 2 9.79065 6.47715 9.79065 12C9.79065 17.5228 14.2678 22 19.7906 22Z" fill="#262F61"/>
<g id="Atletico_Madrid_2017_logo 1" clip-path="url(#clip1_502_970)">
<g id="layer1">
<path id="path260" d="M24.6702 7.43417C24.6702 6.91835 24.3258 6.76182 23.8327 6.63183C23.1114 6.44157 21.6271 6.12207 19.7907 6.12207C17.9542 6.12207 16.4696 6.44119 15.7482 6.63145C15.2555 6.76182 14.9111 6.91797 14.9111 7.43417V14.6534V14.656V14.6587C14.9175 15.259 15.1993 15.829 15.6651 16.1842L19.4969 19.1225L19.7907 19.3477L20.0848 19.1225L23.9178 16.1834C24.3884 15.8245 24.6702 15.2522 24.6702 14.6534V7.43417Z" fill="white"/>
<path id="path280" d="M19.7909 6.12158C17.9544 6.12158 16.4698 6.44107 15.7485 6.63133C15.2557 6.76133 14.9114 6.91747 14.9114 7.43367V14.6529V14.6555V14.6582C14.9174 15.2585 15.1991 15.8286 15.6653 16.1837L19.4971 19.1221L19.7909 19.3472L20.085 19.1221L23.918 16.1829C24.3886 15.824 24.6704 15.2517 24.6704 14.6533V7.43367C24.6704 6.91785 24.3261 6.76133 23.8329 6.63133C23.1116 6.44107 21.6274 6.12158 19.7909 6.12158ZM19.6841 6.49413L19.7999 6.8561H20.1761L19.8718 7.07969L19.988 7.44128L19.6841 7.21765L19.3795 7.44128L19.4956 7.07969L19.1914 6.8561H19.5676L19.6841 6.49413ZM15.6203 7.0217L15.7365 7.38366H16.1127L15.8084 7.60726L15.9246 7.96884L15.6203 7.74522L15.3161 7.96884L15.4322 7.60726L15.128 7.38366H15.5042L15.6203 7.0217ZM23.6609 7.0217L23.7771 7.38366H24.1533L23.849 7.60726L23.9652 7.96884L23.6609 7.74522L23.3567 7.96884L23.4728 7.60726L23.1686 7.38366H23.5448L23.6609 7.0217ZM21.8882 7.62887C21.9238 7.6338 21.959 7.63871 21.9938 7.64402C22.098 7.6588 22.1988 7.67472 22.2963 7.69064C22.3944 7.70694 22.4896 7.72363 22.5803 7.74068L20.0172 9.70882V8.36073C20.4208 8.60291 20.6932 8.57826 20.869 8.46531C20.9694 8.40088 21.0383 8.30727 21.0814 8.21858C21.5187 8.34858 22.004 8.0742 21.8882 7.62887ZM17.1926 7.70617C17.196 7.74407 17.2035 7.7801 17.214 7.81459C17.2144 7.81611 17.2147 7.81761 17.2151 7.81912C17.2155 7.82064 17.2162 7.82179 17.2166 7.82331C17.3286 8.16782 17.7843 8.34632 18.204 8.22125C18.2823 8.38194 18.47 8.52293 18.7319 8.5597C18.9081 8.58433 19.1179 8.5612 19.3502 8.46493V10.2212L17.7461 11.4534C17.7513 11.4143 17.7547 11.3726 17.7547 11.3275V11.3135V11.2885V11.2771C17.9301 11.1676 18.0848 10.9542 18.1624 10.6844C18.1968 10.5646 18.2111 10.446 18.21 10.3346C18.1777 10.349 18.1436 10.3588 18.1114 10.3652C18.0264 10.3819 17.9533 10.377 17.9529 10.377C18.0935 10.366 18.1953 10.3118 18.2617 10.2618C18.2812 10.2451 18.3025 10.225 18.325 10.2019C18.4636 10.0586 18.5551 9.89226 18.6094 9.69934L18.8732 8.76624C18.7353 8.75335 18.6023 8.8197 18.5281 8.93795L18.4007 9.14107L18.2759 9.3408C18.2478 9.38856 18.1976 9.43177 18.1407 9.46285C18.053 9.39349 17.9848 9.33891 17.9308 9.29608C17.9226 9.28964 17.9147 9.28319 17.9072 9.27713L17.824 8.92391L17.9451 8.70561C17.9799 8.64232 17.9912 8.56991 17.9795 8.50056C17.972 8.45811 17.9559 8.41644 17.9312 8.37892C17.9113 8.34936 17.8701 8.34254 17.8401 8.36187L17.5362 8.55817C17.5276 8.54946 17.5194 8.54263 17.5108 8.53732C17.4917 8.52519 17.4722 8.52218 17.4512 8.52559C17.4204 8.5309 17.3864 8.55098 17.3463 8.57827L17.2687 8.6355L17.1533 8.72076L17.0648 8.71737L17.0034 8.71471C16.9434 8.71471 16.9195 8.82385 16.9749 8.9042C17.021 8.9709 17.0574 9.05732 17.0821 9.16155C17.0824 9.16306 17.0832 9.16459 17.0836 9.16611C17.0851 9.17369 17.0866 9.18125 17.0884 9.18883C17.0896 9.1949 17.0911 9.20058 17.0922 9.20665C17.1117 9.30367 17.1218 9.41473 17.1218 9.53828C17.1218 9.81419 16.9749 10.4043 16.7857 10.789C16.7767 10.8057 16.7673 10.8223 16.7583 10.8394L16.6159 11.0793C16.5931 11.1142 16.5983 11.1668 16.6253 11.2047C16.6448 11.232 16.6759 11.2517 16.7164 11.2517C16.7164 11.2517 16.8307 11.3973 16.8666 11.6773C16.8831 11.8047 16.8835 11.9601 16.8494 12.142L16.5796 12.3493L16.2933 12.5691L16.2937 7.89037C16.4312 7.8574 16.5875 7.82217 16.7602 7.7873C16.8944 7.76002 17.039 7.7327 17.1926 7.70617ZM24.0749 8.47317L23.9525 8.5679L23.6922 8.76934L24.0749 8.47317ZM23.1323 9.20281V16.2677L21.7951 17.2929V10.238L21.7952 10.2379L23.1322 9.20287L23.1323 9.20281ZM21.072 9.38327L21.1882 9.74482H21.5644L21.2601 9.96845L21.3763 10.3304L21.072 10.1068L20.7678 10.3304L20.8839 9.96845L20.5797 9.74482H20.9559L21.072 9.38327ZM15.6203 10.1018L15.7365 10.4634H16.1127L15.8084 10.687L15.9246 11.049L15.6203 10.8254L15.3161 11.0486L15.4322 10.687L15.128 10.4634H15.5042L15.6203 10.1018ZM20.4578 11.273V18.3182L19.7909 18.8295L19.1206 18.3156V12.3081L17.7833 13.3432V17.2901L18.6542 17.958L15.8871 15.8365C15.8871 15.8364 15.8869 15.8363 15.8869 15.8362L16.4459 16.2647V14.3784L17.7832 13.3431L19.1205 12.308L20.4578 11.273ZM18.4445 11.3014L18.5611 11.6633H18.9369L18.6326 11.887L18.7488 12.2485L18.4445 12.0253L18.1403 12.2485L18.2568 11.887L17.9522 11.6633H18.3284L18.4445 11.3014ZM15.6203 13.356L15.7365 13.7179H16.1127L15.8084 13.9415L15.9246 14.3031L15.6203 14.0798L15.3161 14.3031L15.4322 13.9415L15.128 13.7179H15.5042L15.6203 13.356ZM16.3508 14.452L15.9456 14.7657L15.4813 15.1249L15.9456 14.7654L16.3508 14.452ZM15.4166 15.1751C15.4798 15.3589 15.578 15.528 15.7069 15.6704C15.578 15.5281 15.4797 15.359 15.4165 15.1751L15.4166 15.1751ZM23.9674 15.5597C23.9626 15.566 23.9581 15.5725 23.9532 15.5788C23.948 15.5855 23.9426 15.5921 23.9373 15.5987C23.9426 15.592 23.9481 15.5854 23.9533 15.5787C23.9581 15.5724 23.9627 15.566 23.9674 15.5597ZM23.8335 15.7148C23.7907 15.7577 23.7449 15.798 23.6962 15.8354C23.6954 15.8357 23.6951 15.8361 23.6947 15.8365L23.1868 16.2259L23.6963 15.8352C23.7448 15.7979 23.7906 15.7577 23.8335 15.7148Z" fill="#262F61"/>
<path id="path276" d="M24.2563 13.8997V8.33252L23.9524 8.56788L23.1321 9.2027V16.2677L23.6961 15.8352C23.7931 15.7606 23.8793 15.6741 23.9531 15.5786C24.1465 15.3292 24.2563 15.0177 24.2563 14.6952V13.8997ZM21.795 10.2378L20.4576 11.2729V18.3181L21.795 17.2929V10.2378ZM17.7831 13.3431V17.29L19.1204 18.3156V12.3081L17.7831 13.3431ZM16.4457 14.3783L15.9455 14.7657L15.4164 15.175C15.5063 15.4365 15.6671 15.6681 15.8859 15.8356L16.4457 16.2646V14.3783Z" fill="#CE3524"/>
</g>
</g>
</g>
</g>
<defs>
<clipPath id="clip0_502_970">
<rect width="38.2094" height="25" fill="white" transform="translate(0.790649)"/>
</clipPath>
<clipPath id="clip1_502_970">
<rect width="10" height="13.5" fill="white" transform="translate(14.7906 6)"/>
</clipPath>
</defs>
</svg>
