<svg width="134" height="40" viewBox="0 0 134 40" fill="none" xmlns="http://www.w3.org/2000/svg">
<path fill-rule="evenodd" clip-rule="evenodd" d="M88.3467 11.7009C87.4289 12.0876 87.1712 13.4771 87.8917 14.1542C88.8334 15.0389 90.4007 14.4125 90.4007 13.1513C90.4007 12.0695 89.3062 11.2966 88.3467 11.7009ZM112.837 11.766C111.108 12.7539 112.482 15.32 114.25 14.4054C114.779 14.1319 114.987 13.7065 114.965 12.9416C114.938 11.9951 113.666 11.2924 112.837 11.766ZM44.483 13.78C43.9669 15.0331 41.6029 20.6226 40.9266 22.1885C40.5406 23.0822 39.7903 24.837 39.2594 26.0881C38.7284 27.3392 37.9819 29.094 37.6006 29.9877C36.4891 32.5926 35.6531 34.6615 35.6531 34.8078C35.6531 34.8823 36.2397 34.9434 36.9568 34.9434C38.2298 34.9434 38.2644 34.9329 38.4288 34.4966C38.5214 34.2509 39.117 32.825 39.7522 31.3282L40.9074 28.6066H46.304H51.7008L52.3521 30.1096C52.7104 30.9361 53.3169 32.3621 53.7 33.278L54.3966 34.9434H55.7469C56.4896 34.9434 57.0972 34.9161 57.0972 34.8827C57.0972 34.8494 56.8126 34.1729 56.4646 33.3797C56.1168 32.5865 55.3396 30.7676 54.7376 29.3378C54.1357 27.9079 53.2222 25.7509 52.7078 24.5445C49.0094 15.8703 47.9997 13.4646 47.9997 13.3273C47.9997 13.2371 47.3064 13.1707 46.3669 13.1707H44.734L44.483 13.78ZM45.8337 16.7859C45.364 17.9392 44.611 19.7506 43.0619 23.4536C42.4717 24.8643 41.9888 26.0891 41.9888 26.1752C41.9888 26.2719 43.6672 26.3318 46.3727 26.3318H50.7567L50.4398 25.5275C50.2653 25.0851 50.0038 24.4452 49.8582 24.1058C49.7126 23.7662 49.1228 22.355 48.5472 20.9699C47.3499 18.0889 46.3415 15.7704 46.2855 15.7704C46.2645 15.7704 46.0611 16.2275 45.8337 16.7859ZM83.4963 18.4355C81.764 18.9848 80.3692 20.1165 79.6711 21.5386L79.2724 22.351L79.2266 20.4418L79.181 18.5326H77.9676H76.7544V26.738V34.9434H77.9557H79.1571L79.231 30.5158C79.2869 27.1735 79.3647 25.9089 79.5488 25.3569C80.4951 22.5188 82.2446 20.8974 84.5906 20.6847L85.527 20.5997V19.4037V18.2077L84.8365 18.2185C84.4569 18.2246 83.8537 18.3222 83.4963 18.4355ZM99.8231 18.4782C98.9203 18.7929 98.3404 19.1811 97.3456 20.1358L96.574 20.8764V19.7045V18.5326H95.3556H94.1371V26.7452V34.9577L95.3149 34.91L96.4927 34.8622L96.574 29.3378C96.6526 23.9945 96.6672 23.7907 97.0219 23.1272C97.9393 21.41 99.4928 20.4865 101.468 20.484C103.206 20.4818 104.43 21.075 105.285 22.3331C106.054 23.4659 106.159 24.3656 106.159 29.8593V34.9434H107.377H108.596L108.593 29.7034C108.591 24.0614 108.496 23.1857 107.718 21.6518C106.971 20.1766 105.483 18.9411 103.88 18.465C102.784 18.1396 100.775 18.1461 99.8231 18.4782ZM123.249 18.5248C121.898 18.9366 121.015 19.4705 120.017 20.4787C118.479 22.034 117.697 24.1151 117.697 26.6568C117.697 28.4149 117.955 29.5594 118.668 30.9613C120.008 33.5955 122.527 35.111 125.549 35.102C127.895 35.0949 129.298 34.5709 130.649 33.1967L131.502 32.3292V33.6363V34.9434H132.72H133.939V26.738V18.5326H132.72H131.502V19.7621V20.9915L130.691 20.1586C130.173 19.6266 129.483 19.1439 128.782 18.8223C127.818 18.3802 127.477 18.3126 125.978 18.2658C124.645 18.2242 124.049 18.2808 123.249 18.5248ZM113.429 18.4995L112.332 18.5474V26.7455V34.9434H113.551H114.769V26.7476C114.769 22.2398 114.714 18.5292 114.647 18.5016C114.58 18.474 114.032 18.473 113.429 18.4995ZM58.3988 23.854C58.4008 29.4923 58.4614 30.0675 59.216 31.6267C59.7379 32.7051 61.132 34.062 62.2458 34.5757C63.0915 34.9659 63.383 35.0117 65.0576 35.0179C66.7801 35.0242 66.9906 34.9906 67.7559 34.5866C68.2126 34.3457 68.9986 33.7716 69.5023 33.3111L70.4186 32.4735V33.7086V34.9434H71.637H72.8554V26.738V18.5326H71.637H70.4186V23.7303C70.4186 29.5126 70.37 29.8316 69.2796 31.2086C67.5725 33.3644 63.5336 33.4288 61.93 31.3259C60.9325 30.0179 60.9278 29.9851 60.8685 24.0164L60.8141 18.5326H59.6055H58.3969L58.3988 23.854ZM87.6781 26.6974L87.7201 34.8622H88.9386H90.157L90.199 26.6974L90.2411 18.5326H88.9386H87.636L87.6781 26.6974ZM123.46 20.9455C122.285 21.5035 121.237 22.5932 120.651 23.8661C120.034 25.206 119.95 27.3612 120.453 28.9262C120.881 30.2573 122.093 31.7243 123.235 32.2951C124.786 33.0698 127.318 33.057 128.665 32.2677C132.111 30.248 132.69 24.818 129.771 21.8986C128.733 20.8595 127.688 20.4824 125.85 20.4826C124.631 20.4826 124.3 20.5468 123.46 20.9455Z" fill="black"/>
<path d="M23.4083 6.85714C20.6654 3.2 17.9117 0.761905 16.8777 0C15.8981 0.816326 13.2858 3.33061 10.6736 6.85714C8.06135 10.3837 6.31985 14.4218 5.77563 16L16.8777 40L28.143 15.0204C27.7076 13.8231 26.1511 10.5143 23.4083 6.85714Z" fill="#DA7039"/>
<path d="M0.0612793 3.26532L16.8776 40C18.1293 36.1905 19.6531 26.6776 15.7347 19.1021C11.8164 11.5265 3.65312 5.38777 0.0612793 3.26532Z" fill="#518EC1"/>
<path d="M33.3672 3.42859L16.8774 40C14.6461 35.3742 10.2789 25.9592 15.8978 16.3265C20.4692 8.48977 29.4489 4.4626 33.3672 3.42859Z" fill="#6B378A"/>
<path d="M8.64288 9.9572C5.37692 6.80202 2.03142 4.4295 0.0612793 3.26532L5.82564 15.8574C6.24461 14.6834 7.21844 12.4005 8.64288 9.9572Z" fill="#56BCEA"/>
<path d="M15.0682 17.8947C11.5528 25.2772 13.5586 32.3838 15.5649 37.1325L16.8775 39.9999L16.8777 39.9994C18.1294 36.1895 19.6529 26.6772 15.7347 19.1021C15.5243 18.6953 15.3017 18.2927 15.0682 17.8947Z" fill="#2F337F"/>
<path d="M28.142 15.0177C27.7444 13.9254 26.4187 11.0864 24.1157 7.82858C27.6815 5.40946 31.258 3.98526 33.3675 3.42859L28.142 15.0177Z" fill="#8460A1"/>
</svg>
