<svg width="160" height="40" viewBox="0 0 160 40" fill="none" xmlns="http://www.w3.org/2000/svg">
<g id="AVB - AvalonBay Communities Inc">
<g id="Group 11">
<rect id="Rectangle 1719" x="60" width="40" height="40" fill="#20376A"/>
<path id="Vector" d="M82.5742 28.6255C82.5742 27.225 82.5752 25.8245 82.5715 24.424C82.571 24.3258 82.5961 24.3049 82.6922 24.3054C83.3867 24.3112 84.0817 24.3096 84.7762 24.3112C84.9266 24.3117 85.0739 24.3352 85.2206 24.3686C85.5668 24.4485 85.7679 24.6668 85.8493 25.0078C85.9099 25.2616 85.9282 25.5201 85.9313 25.7791C85.9376 26.3347 85.9554 26.8903 85.9136 27.4449C85.9073 27.5248 85.8984 27.6052 85.8838 27.684C85.8024 28.1148 85.5997 28.2992 85.1632 28.3456C85.1319 28.3488 85.0781 28.3227 85.0734 28.3764C85.0676 28.4422 85.1313 28.4156 85.1642 28.4234C85.2384 28.4417 85.3167 28.4443 85.3898 28.4647C85.6984 28.5509 85.8958 28.7911 85.9115 29.1331C85.9512 30.0167 85.9585 30.9013 85.9084 31.7848C85.9016 31.9044 85.8802 32.0245 85.853 32.1409C85.7433 32.6146 85.5099 32.8313 85.0321 32.9112C84.8441 32.9425 84.6551 32.9576 84.465 32.9576C83.8765 32.9571 83.2875 32.9545 82.699 32.9597C82.6008 32.9608 82.5726 32.9378 82.5731 32.8365C82.5752 31.4339 82.5742 30.0297 82.5742 28.6255ZM83.6708 30.3801L83.6713 30.884C83.6713 31.1947 83.6708 31.5049 83.6718 31.8156C83.6718 31.8553 83.6535 31.906 83.7292 31.9028C83.9992 31.8924 84.2697 31.9216 84.5392 31.8835C84.6974 31.861 84.7642 31.7958 84.7903 31.6412C84.8018 31.5728 84.8097 31.5039 84.8138 31.4349C84.8488 30.8657 84.8431 30.296 84.8316 29.7268C84.8274 29.5237 84.8206 29.318 84.7533 29.1216C84.7073 28.989 84.6222 28.9065 84.4791 28.8887C84.2426 28.859 84.0044 28.8851 83.7679 28.872C83.6791 28.8668 83.6687 28.9002 83.6692 28.977C83.6723 29.4449 83.6708 29.9127 83.6708 30.3801ZM83.6708 26.6375C83.6708 27.0391 83.6702 27.4412 83.6718 27.8428C83.6718 27.8798 83.6467 27.9373 83.7245 27.9347C83.9616 27.9279 84.1992 27.9498 84.4352 27.9138C84.6337 27.8835 84.7094 27.8156 84.7527 27.6229C84.8097 27.3686 84.8097 27.1086 84.8138 26.8501C84.8211 26.4266 84.8159 26.0031 84.7527 25.5832C84.7256 25.4052 84.6514 25.3446 84.4728 25.3399C84.2394 25.3336 84.0055 25.3368 83.7721 25.3289C83.6901 25.3263 83.6681 25.3493 83.6692 25.4318C83.6734 25.8344 83.6708 26.236 83.6708 26.6375Z" fill="white"/>
<path id="Vector_2" d="M64.4792 24.3071C64.6839 24.3071 64.8886 24.3086 65.0933 24.306C65.1518 24.3055 65.1721 24.3232 65.1815 24.3843C65.392 25.7661 65.605 27.1478 65.8186 28.529C66.0123 29.7807 66.2082 31.0319 66.4024 32.2836C66.4327 32.4783 66.4609 32.6731 66.4933 32.8674C66.5053 32.9389 66.486 32.9608 66.4108 32.9598C66.1037 32.9556 65.7967 32.953 65.4896 32.9608C65.3925 32.9635 65.3868 32.9159 65.3768 32.8444C65.3142 32.3781 65.2463 31.9118 65.1847 31.4449C65.1763 31.3796 65.1559 31.3614 65.0901 31.3619C64.7136 31.365 64.3371 31.3661 63.9606 31.3614C63.8828 31.3603 63.8646 31.387 63.8562 31.4585C63.8024 31.9227 63.7413 32.3859 63.6875 32.8501C63.6781 32.929 63.6588 32.9624 63.5706 32.9603C63.2672 32.9546 62.9638 32.9567 62.6604 32.9593C62.5967 32.9598 62.5747 32.9504 62.5857 32.8752C62.7037 32.0554 62.8176 31.2345 62.9324 30.4136C63.039 29.6507 63.1445 28.8877 63.2515 28.1253C63.3559 27.3807 63.4614 26.636 63.5659 25.8914C63.6358 25.3927 63.7074 24.894 63.7737 24.3948C63.7831 24.3243 63.8066 24.3039 63.8755 24.305C64.0766 24.3091 64.2776 24.3065 64.4787 24.3065V24.3071H64.4792ZM64.5053 30.3196C64.6552 30.3196 64.805 30.3175 64.9549 30.3206C65.0134 30.3217 65.0291 30.306 65.0202 30.2449C64.9199 29.5624 64.8254 28.8794 64.7246 28.1969C64.6181 27.4778 64.5163 26.7588 64.5246 26.0287C64.5251 25.9943 64.5559 25.9358 64.476 25.9332C64.3925 25.93 64.416 25.989 64.416 26.0308C64.4249 26.9577 64.2964 27.8731 64.1784 28.789C64.1163 29.2705 64.0593 29.753 63.9977 30.2345C63.9888 30.3039 64.0087 30.3232 64.0776 30.3206C64.2197 30.3159 64.3627 30.3196 64.5053 30.3196Z" fill="white"/>
<path id="Vector_3" d="M88.4024 32.4376C88.2995 32.5712 88.2175 32.695 88.1079 32.7974C87.699 33.1786 86.9251 33.0992 86.664 32.6444C86.5595 32.4621 86.5282 32.26 86.5272 32.0532C86.5256 31.5744 86.535 31.0955 86.5246 30.6167C86.5141 30.1431 86.7126 29.7974 87.111 29.5535C87.4253 29.3613 87.7366 29.1639 88.0488 28.9692C88.0734 28.9535 88.0969 28.9368 88.1219 28.9216C88.37 28.7733 88.5037 28.5775 88.4661 28.2668C88.4374 28.0292 88.4624 27.7848 88.4603 27.5436C88.4567 27.1592 88.1575 26.9676 87.805 27.1248C87.6525 27.1927 87.6024 27.3274 87.6018 27.483C87.6003 27.79 87.6003 28.0971 87.6029 28.4041C87.6034 28.4689 87.5956 28.5013 87.5162 28.4997C87.2384 28.4945 86.9606 28.4981 86.6828 28.4971C86.6468 28.4971 86.5951 28.5159 86.5966 28.4475C86.6055 28.0642 86.5611 27.6783 86.6285 27.2987C86.7287 26.731 87.0253 26.4355 87.5909 26.3227C87.9324 26.2543 88.275 26.2642 88.6112 26.3556C89.0828 26.484 89.3721 26.8334 89.4212 27.3201C89.4347 27.4548 89.4421 27.5895 89.4421 27.7248C89.441 29.1431 89.4415 30.5613 89.4415 31.9796C89.4415 32.2919 89.465 32.6 89.5909 32.8914C89.6144 32.9451 89.6013 32.9598 89.5439 32.9592C89.2405 32.9572 88.9371 32.9566 88.6337 32.9598C88.5768 32.9603 88.5611 32.9316 88.5428 32.8872C88.4854 32.7488 88.4441 32.6052 88.4024 32.4376ZM88.4614 29.6997C88.2457 29.8658 88.041 30.0041 87.8363 30.1425C87.6081 30.2971 87.4958 30.5128 87.5021 30.7921C87.5079 31.0402 87.5037 31.2887 87.5042 31.5368C87.5042 31.6679 87.5037 31.7994 87.534 31.9284C87.5689 32.0788 87.6316 32.2088 87.7971 32.2438C87.9736 32.2814 88.1313 32.237 88.2499 32.0934C88.3627 31.9572 88.4092 31.7927 88.4363 31.6219C88.4849 31.3096 88.4567 30.9953 88.4614 30.682C88.465 30.3624 88.4614 30.0417 88.4614 29.6997Z" fill="white"/>
<path id="Vector_4" d="M72.9272 32.9582C72.5867 32.9582 72.2588 32.9572 71.9303 32.9592C71.8802 32.9598 71.8708 32.9274 71.8562 32.895C71.7925 32.753 71.7549 32.6021 71.7115 32.4381C71.5956 32.5921 71.499 32.742 71.3538 32.8527C70.9789 33.1389 70.3235 33.0888 70.0436 32.7462C69.888 32.5556 69.8389 32.3243 69.8374 32.0893C69.8337 31.5337 69.8165 30.978 69.8478 30.423C69.8661 30.0971 70.0191 29.8454 70.2776 29.6585C70.606 29.4209 70.9606 29.223 71.3026 29.0073C71.4483 28.9154 71.5857 28.8141 71.7037 28.6877C71.7512 28.6365 71.7731 28.5827 71.7721 28.5112C71.769 28.1932 71.7684 27.8752 71.7716 27.5572C71.7752 27.1284 71.5011 27.036 71.1679 27.1091C70.9925 27.1478 70.9089 27.2872 70.9079 27.5149C70.9063 27.8109 70.9063 28.107 70.9089 28.4031C70.9094 28.4679 70.9021 28.5013 70.8222 28.4997C70.5444 28.4945 70.2666 28.4982 69.9888 28.4982C69.9491 28.4982 69.9047 28.5081 69.9063 28.4433C69.9141 28.071 69.8765 27.6961 69.9361 27.3269C70.0311 26.7389 70.3366 26.4256 70.9183 26.3201C71.3115 26.2485 71.7052 26.2611 72.0812 26.4136C72.4703 26.5713 72.6645 26.8799 72.7256 27.2841C72.7439 27.4036 72.7481 27.5237 72.7481 27.6449C72.7475 29.0454 72.7475 30.4454 72.7475 31.8459C72.7481 32.2219 72.7616 32.5963 72.9272 32.9582ZM71.7726 29.6992C71.5533 29.87 71.3402 30.0104 71.1308 30.1556C70.9146 30.3055 70.8092 30.5133 70.8139 30.7801C70.8191 31.0611 70.8149 31.3425 70.8149 31.6235C70.8149 31.7368 70.8201 31.8491 70.852 31.9593C70.9434 32.2757 71.2823 32.366 71.5204 32.1347C71.6974 31.9629 71.7402 31.7363 71.7606 31.506C71.7898 31.1676 71.7684 30.8271 71.7721 30.4882C71.7752 30.2329 71.7726 29.978 71.7726 29.6992Z" fill="white"/>
<path id="Vector_5" d="M79.8319 26.823C79.953 26.6788 80.0543 26.5582 80.1859 26.471C80.5301 26.2433 80.8987 26.2167 81.2705 26.3791C81.6 26.5232 81.7113 26.8251 81.7645 27.1551C81.7885 27.3039 81.7901 27.4533 81.7906 27.6031C81.7912 29.3509 81.7906 31.0987 81.7932 32.8465C81.7932 32.9363 81.7734 32.964 81.6805 32.9613C81.4246 32.9546 81.1687 32.9535 80.9128 32.9619C80.8084 32.9655 80.7885 32.9305 80.7885 32.8339C80.7912 31.141 80.7906 29.448 80.7896 27.7551C80.7896 27.6788 80.7865 27.601 80.7744 27.5258C80.7327 27.2668 80.5369 27.141 80.257 27.1895C80.0209 27.2303 79.8862 27.3848 79.857 27.6559C79.846 27.7572 79.8397 27.86 79.8397 27.9619C79.8387 29.5854 79.8376 31.2089 79.8418 32.8324C79.8423 32.9425 79.8105 32.964 79.7087 32.9608C79.4674 32.953 79.2261 32.9535 78.9849 32.9608C78.8893 32.9634 78.8637 32.9399 78.8643 32.8412C78.8679 31.1446 78.8669 29.448 78.8669 27.7514C78.8669 27.3384 78.869 26.9248 78.8653 26.5117C78.8648 26.435 78.8768 26.4021 78.965 26.4042C79.2209 26.4104 79.4768 26.4094 79.7327 26.4036C79.8162 26.4021 79.8402 26.4277 79.834 26.5091C79.8261 26.6036 79.8319 26.6982 79.8319 26.823Z" fill="white"/>
<path id="Vector_6" d="M78.1865 29.6376C78.1865 30.2883 78.1881 30.9384 78.1855 31.5891C78.1844 31.7901 78.1625 31.9885 78.104 32.1833C77.9813 32.5927 77.7176 32.8643 77.3103 32.987C76.9317 33.1008 76.5452 33.105 76.163 33.0089C75.6392 32.8773 75.3844 32.5055 75.2941 31.9969C75.2554 31.7802 75.2471 31.5614 75.2471 31.3421C75.2476 30.1912 75.2481 29.0397 75.2512 27.8888C75.2518 27.6543 75.2841 27.4235 75.3541 27.1985C75.4982 26.7374 75.8016 26.4465 76.2758 26.3452C76.6648 26.2622 77.0539 26.2674 77.4309 26.4032C77.9045 26.5744 78.117 26.9447 78.1661 27.4241C78.2079 27.8324 78.1808 28.2418 78.1855 28.6507C78.1896 28.9797 78.1865 29.3086 78.1865 29.6376ZM77.2215 29.659C77.2215 28.9906 77.222 28.3217 77.2204 27.6533C77.2204 27.5771 77.2142 27.4998 77.2001 27.4246C77.1687 27.2585 77.0727 27.1515 76.9029 27.1149C76.8011 27.0925 76.7003 27.093 76.5985 27.1113C76.4178 27.1431 76.3061 27.2496 76.258 27.4246C76.2267 27.5384 76.2194 27.6549 76.2194 27.7718C76.2189 29.0836 76.2189 30.3953 76.2199 31.7071C76.2199 31.787 76.2272 31.8679 76.2398 31.9468C76.257 32.0512 76.3056 32.14 76.398 32.1985C76.7301 32.4089 77.1489 32.2241 77.2074 31.8402C77.2163 31.7828 77.221 31.7243 77.221 31.6658C77.222 30.9964 77.2215 30.3274 77.2215 29.659Z" fill="white"/>
<path id="Vector_7" d="M93.1087 26.4178C92.9719 27.2167 92.8372 28.0042 92.7024 28.7917C92.5228 29.8418 92.3437 30.8919 92.1635 31.9421C92.0554 32.5713 91.951 33.2011 91.8356 33.8293C91.7327 34.3891 91.3729 34.6904 90.8022 34.7107C90.6048 34.7175 90.4079 34.7133 90.2105 34.6966C90.1473 34.6914 90.1338 34.669 90.1343 34.6105C90.1369 34.3473 90.1374 34.0841 90.1343 33.8209C90.1338 33.7567 90.1546 33.74 90.2163 33.7441C90.3035 33.7504 90.3912 33.7441 90.4784 33.729C90.7479 33.6831 90.8972 33.5201 90.9155 33.2481C90.9364 32.9311 90.8622 32.6235 90.8157 32.3133C90.6763 31.375 90.5317 30.4376 90.3881 29.4998C90.2674 28.7097 90.1453 27.9201 90.0241 27.13C89.9922 26.9243 89.963 26.7186 89.9291 26.5133C89.9165 26.4376 89.9254 26.4021 90.0178 26.4042C90.2883 26.4105 90.5588 26.4089 90.8293 26.4052C90.8936 26.4042 90.916 26.4209 90.9233 26.4878C90.9761 26.9885 91.033 27.4893 91.0889 27.9901C91.1682 28.705 91.2502 29.4193 91.3259 30.1342C91.375 30.599 91.4147 31.0648 91.4596 31.53C91.4633 31.5682 91.4439 31.6225 91.5197 31.6188C91.5943 31.6152 91.5729 31.5619 91.5729 31.5238C91.5745 30.6564 91.669 29.7969 91.7844 28.9384C91.8909 28.1462 91.9839 27.352 92.0768 26.5577C92.0899 26.4455 92.1228 26.4094 92.2408 26.4141C92.528 26.4251 92.8163 26.4178 93.1087 26.4178Z" fill="white"/>
<path id="Vector_8" d="M67.8752 32.9587C67.7107 32.9587 67.5457 32.954 67.3817 32.9608C67.3054 32.9639 67.284 32.9368 67.2741 32.8668C67.2073 32.3937 67.1363 31.9211 67.0658 31.448C66.9587 30.7263 66.8506 30.0047 66.7441 29.2825C66.6459 28.6146 66.5493 27.9462 66.4517 27.2783C66.4135 27.0183 66.377 26.7582 66.3342 26.4987C66.3227 26.4287 66.3279 26.4021 66.4083 26.4036C66.6825 26.4083 66.9566 26.4068 67.2308 26.4047C67.2945 26.4042 67.3232 26.4146 67.3326 26.4914C67.4365 27.376 67.5436 28.26 67.6548 29.1436C67.7566 29.9525 67.824 30.7629 67.8454 31.578C67.8464 31.6188 67.8193 31.682 67.9034 31.6788C67.9791 31.6757 67.9524 31.6172 67.953 31.5807C67.9603 30.6809 68.0642 29.7895 68.1786 28.8981C68.2814 28.0981 68.3744 27.2966 68.4678 26.4955C68.4762 26.425 68.496 26.4036 68.566 26.4047C68.8402 26.4083 69.1143 26.4089 69.3885 26.4047C69.4647 26.4036 69.4757 26.4229 69.4637 26.4976C69.3232 27.3843 69.1869 28.2715 69.0496 29.1582C68.9075 30.0778 68.7655 30.9974 68.6235 31.9169C68.5733 32.2412 68.5195 32.5655 68.4731 32.8903C68.4647 32.9509 68.4396 32.9592 68.3895 32.9587C68.2188 32.9577 68.047 32.9587 67.8752 32.9587Z" fill="white"/>
<path id="Vector_9" d="M74.5029 32.954C74.1995 32.9556 73.8961 32.954 73.5927 32.9603C73.5123 32.9618 73.5165 32.9195 73.5165 32.8652C73.517 32.3169 73.517 31.7681 73.517 31.2198C73.517 28.9566 73.5175 26.6934 73.5149 24.4302C73.5149 24.3315 73.5389 24.3023 73.6392 24.3049C73.8987 24.3122 74.1582 24.308 74.4178 24.3065C74.47 24.306 74.5138 24.307 74.5076 24.377C74.506 24.4281 74.5039 24.4793 74.5039 24.53C74.5034 27.3383 74.5029 30.1462 74.5029 32.954Z" fill="white"/>
<path id="Vector_10" d="M70.7901 35.3613C70.7248 35.5342 70.6595 35.7065 70.5942 35.8793C70.4501 36.2611 70.3039 36.6423 70.1645 37.0261C70.1363 37.1039 70.1018 37.1321 70.0177 37.13C69.7953 37.1248 69.7947 37.1295 69.7159 36.9211C69.5357 36.4438 69.3561 35.9665 69.176 35.4892C69.165 35.46 69.154 35.4308 69.1258 35.4062C69.1258 35.5937 69.1237 35.7806 69.1263 35.9681C69.1316 36.3227 69.1384 36.6767 69.1488 37.0313C69.1509 37.107 69.1305 37.1347 69.0522 37.1295C68.9436 37.1216 68.8005 37.165 68.7342 37.1107C68.6647 37.0537 68.7133 36.9054 68.7133 36.7968C68.7112 36.0767 68.7138 35.3561 68.7102 34.636C68.7096 34.554 68.73 34.5284 68.8125 34.5342C68.9216 34.5415 69.0318 34.5399 69.1415 34.5347C69.2115 34.531 69.2397 34.5561 69.2642 34.6224C69.4804 35.2109 69.7018 35.7968 69.9216 36.3838C69.9305 36.4067 69.941 36.4292 69.954 36.4605C70.0073 36.3932 70.0224 36.3174 70.0485 36.248C70.2538 35.706 70.4585 35.1644 70.6595 34.6208C70.684 34.555 70.7128 34.5305 70.7833 34.5342C70.8997 34.5404 71.0172 34.5383 71.1342 34.5352C71.1885 34.5336 71.2104 34.5456 71.2104 34.6067C71.2083 35.4224 71.2083 36.2376 71.2109 37.0527C71.2109 37.1195 71.1854 37.1326 71.1274 37.1295C71.0543 37.1253 70.9812 37.1284 70.9081 37.1284C70.7697 37.1284 70.7713 37.1284 70.7744 36.9848C70.788 36.4443 70.8005 35.9044 70.8135 35.3639C70.8057 35.3624 70.7979 35.3618 70.7901 35.3613Z" fill="white"/>
<path id="Vector_11" d="M73.0368 36.4757C73.1606 36.1478 73.2744 35.846 73.3883 35.5441C73.5052 35.2339 73.6232 34.9243 73.7366 34.6131C73.759 34.5509 73.7914 34.5311 73.8551 34.5342C73.9648 34.5394 74.0749 34.541 74.1841 34.5337C74.265 34.5285 74.2875 34.5514 74.2869 34.635C74.2833 35.3259 74.2849 36.0167 74.2849 36.7076C74.2849 36.8245 74.2828 36.9415 74.2859 37.0585C74.287 37.1086 74.2744 37.1306 74.2196 37.1285C74.1172 37.1248 74.0149 37.1248 73.9125 37.129C73.8546 37.1316 73.8488 37.105 73.8499 37.0574C73.8593 36.6559 73.8682 36.2543 73.8749 35.8522C73.8781 35.6846 73.8755 35.517 73.8755 35.3347C73.7977 35.54 73.7235 35.7347 73.6499 35.9306C73.5089 36.3055 73.3674 36.6809 73.2279 37.0569C73.2091 37.1076 73.1846 37.1285 73.1266 37.1295C72.8682 37.1337 72.8687 37.1358 72.7778 36.893C72.6003 36.4188 72.4227 35.9447 72.2447 35.471C72.2353 35.446 72.2332 35.4151 72.1982 35.3948C72.1982 35.5332 72.1966 35.6658 72.1987 35.7984C72.205 36.211 72.2112 36.624 72.2212 37.0366C72.2227 37.105 72.2097 37.1347 72.1339 37.129C72.0431 37.1222 71.9512 37.1248 71.8598 37.1285C71.8013 37.1311 71.7862 37.1081 71.7862 37.0522C71.7877 36.2371 71.7877 35.4219 71.7856 34.6068C71.7856 34.5467 71.806 34.5321 71.8614 34.5342C71.9674 34.5379 72.0739 34.5431 72.1789 34.5332C72.2749 34.5243 72.3172 34.5582 72.3501 34.6486C72.5611 35.2266 72.7783 35.8026 72.994 36.3791C73.0034 36.4026 73.0144 36.4245 73.0368 36.4757Z" fill="white"/>
<path id="Vector_12" d="M65.613 35.7885C65.6266 35.2955 65.8083 34.8642 66.3008 34.6156C66.9128 34.3065 67.6856 34.4992 68.0214 35.0386C68.3446 35.5571 68.2861 36.3801 67.8814 36.7999C67.4914 37.2046 67.0052 37.2783 66.4877 37.1279C65.9833 36.9817 65.7227 36.6104 65.6355 36.1044C65.6193 36.0104 65.6177 35.9159 65.613 35.7885ZM66.0788 35.8234C66.0747 35.9937 66.1039 36.1577 66.1634 36.3164C66.2867 36.6449 66.5504 36.8245 66.9138 36.8276C67.283 36.8313 67.5483 36.6626 67.6731 36.3326C67.7921 36.0187 67.7989 35.6966 67.6929 35.3785C67.5901 35.0699 67.3692 34.8913 67.0449 34.8532C66.7358 34.8167 66.4621 34.8908 66.2679 35.1519C66.1217 35.3498 66.082 35.5827 66.0788 35.8234Z" fill="white"/>
<path id="Vector_13" d="M77.8866 35.271C77.8866 35.8621 77.884 36.4501 77.8898 37.0386C77.8908 37.1169 77.8736 37.1326 77.8036 37.1289C77.7195 37.1242 77.6355 37.1247 77.5514 37.1284C77.4945 37.131 77.4736 37.1117 77.4757 37.0537C77.4793 36.9587 77.4762 36.8636 77.4767 36.7686C77.4767 36.0631 77.4788 35.3571 77.4746 34.6516C77.4741 34.554 77.5039 34.5404 77.5958 34.5305C77.7926 34.5096 77.908 34.5791 78.0167 34.7493C78.3566 35.2809 78.718 35.7989 79.0715 36.3221C79.0845 36.3415 79.1007 36.3592 79.1326 36.3989C79.1326 36.1848 79.1336 35.9963 79.1326 35.8083C79.13 35.4172 79.1284 35.026 79.12 34.6349C79.118 34.5493 79.1446 34.5263 79.2245 34.5347C79.3216 34.5446 79.4501 34.495 79.5091 34.5535C79.5686 34.6125 79.5263 34.7404 79.5268 34.8381C79.5284 35.5655 79.5263 36.2934 79.5294 37.0208C79.53 37.1044 79.5086 37.1211 79.424 37.1326C79.2161 37.1608 79.0992 37.0783 78.9874 36.9039C78.6516 36.378 78.2945 35.8657 77.9451 35.3488C77.9258 35.3195 77.9159 35.2814 77.8866 35.271Z" fill="white"/>
<path id="Vector_14" d="M87.5043 37.1938C87.1947 37.1933 86.9534 37.1473 86.7377 37.0079C86.4887 36.8471 86.3753 36.6079 86.3492 36.3196C86.344 36.2601 86.3623 36.234 86.4234 36.2283C86.5289 36.2183 86.6333 36.2027 86.7383 36.1865C86.7894 36.1787 86.8056 36.1912 86.8109 36.2465C86.8589 36.7646 87.4396 37.0251 87.8709 36.7243C88.0046 36.6314 88.049 36.4961 88.0343 36.3416C88.0203 36.1917 87.9189 36.1134 87.7842 36.07C87.5962 36.0095 87.3994 35.9886 87.2088 35.9395C87.085 35.9076 86.9639 35.869 86.8495 35.8105C86.3868 35.5734 86.3263 35.0042 86.7362 34.6836C87.0469 34.4403 87.4046 34.4366 87.7691 34.5139C88.0281 34.5687 88.2286 34.7108 88.3555 34.9489C88.4093 35.0502 88.4333 35.1604 88.4552 35.2711C88.4657 35.3233 88.4584 35.3505 88.3926 35.3499C88.2907 35.3494 88.1884 35.3609 88.0866 35.3703C88.0359 35.375 88.0213 35.3599 88.0166 35.3055C87.9915 35.0215 87.8276 34.8622 87.5435 34.8434C87.3868 34.833 87.2296 34.8309 87.084 34.9082C86.9696 34.9687 86.9137 35.058 86.9169 35.1907C86.92 35.3155 86.9905 35.387 87.0934 35.4293C87.3064 35.5176 87.5351 35.5515 87.7571 35.6105C87.8803 35.6434 88.0056 35.6706 88.1189 35.7322C88.3597 35.8638 88.4913 36.0669 88.4996 36.3416C88.5085 36.6403 88.38 36.8706 88.1289 37.0293C87.9216 37.1599 87.6887 37.1959 87.5043 37.1938Z" fill="white"/>
<path id="Vector_15" d="M84.2235 35.8224C84.2235 35.4276 84.2256 35.0329 84.2219 34.6381C84.2214 34.5618 84.2319 34.5321 84.3201 34.5326C84.8611 34.5373 85.4021 34.5368 85.9436 34.5331C86.024 34.5326 86.0559 34.5504 86.0454 34.6344C86.0334 34.731 86.0867 34.8611 86.0235 34.9169C85.9697 34.965 85.8428 34.9326 85.7483 34.9326C85.4157 34.9336 85.083 34.9352 84.7504 34.9316C84.6752 34.9305 84.647 34.9504 84.6501 35.0287C84.6559 35.1822 84.6559 35.3357 84.6501 35.4893C84.647 35.5728 84.6689 35.6026 84.7588 35.601C85.095 35.5958 85.4313 35.601 85.7676 35.5974C85.8423 35.5963 85.8757 35.6141 85.8663 35.6934C85.8548 35.79 85.9076 35.9148 85.8444 35.977C85.7864 36.0344 85.6632 35.9927 85.5692 35.9932C85.295 35.9953 85.0209 35.9974 84.7467 35.9927C84.6674 35.9911 84.6481 36.0177 84.6496 36.0924C84.6543 36.2752 84.6559 36.4579 84.6496 36.6407C84.647 36.7227 84.6778 36.7347 84.7504 36.7342C85.1635 36.731 85.5765 36.7342 85.9896 36.731C86.0627 36.7305 86.0971 36.7446 86.0893 36.8256C86.0825 36.8981 86.083 36.9723 86.0893 37.0449C86.0956 37.1148 86.0684 37.1295 86.0031 37.1289C85.4366 37.1269 84.87 37.1263 84.3029 37.1295C84.2282 37.13 84.2219 37.1007 84.2225 37.0396C84.2246 36.6344 84.2235 36.2282 84.2235 35.8224Z" fill="white"/>
<path id="Vector_16" d="M62.761 35.8323C62.762 35.3728 62.9004 34.9759 63.2884 34.7002C63.7469 34.3744 64.4863 34.3973 64.9082 34.7451C65.0764 34.8835 65.1787 35.0673 65.255 35.2678C65.2717 35.3122 65.2586 35.3279 65.22 35.3373C65.1845 35.3457 65.149 35.354 65.1135 35.3613C65.0315 35.3785 64.9448 35.4188 64.868 35.4052C64.7787 35.389 64.796 35.2705 64.7521 35.2036C64.5756 34.9357 64.3229 34.8261 64.0127 34.8443C63.7004 34.8626 63.4498 35.0041 63.3307 35.2976C63.1662 35.7034 63.1699 36.1164 63.4174 36.4919C63.6153 36.7926 63.9213 36.8621 64.2581 36.7926C64.5787 36.7263 64.7636 36.5128 64.8242 36.1984C64.844 36.094 64.8759 36.0668 64.9767 36.0903C65.0612 36.1101 65.15 36.1117 65.2378 36.1195C65.2952 36.1248 65.3229 36.141 65.3035 36.2083C65.1709 36.6783 64.8921 37.0167 64.4116 37.142C63.9229 37.2699 63.4644 37.201 63.1035 36.8109C62.8519 36.5373 62.7605 36.1989 62.761 35.8323Z" fill="white"/>
<path id="Vector_17" d="M74.8735 35.5138C74.8735 35.2214 74.8771 34.929 74.8714 34.6371C74.8698 34.5483 74.8986 34.5238 74.9821 34.53C75.0871 34.5379 75.2286 34.4961 75.2892 34.5499C75.3591 34.6115 75.3111 34.7556 75.3116 34.8642C75.3142 35.3206 75.3121 35.7775 75.3127 36.2345C75.3132 36.7013 75.6792 36.9415 76.1132 36.7587C76.3095 36.6762 76.4009 36.5191 76.4134 36.3144C76.4359 35.9347 76.4192 35.5551 76.4234 35.1749C76.4254 34.9885 76.427 34.8021 76.4223 34.6162C76.4207 34.5478 76.4427 34.5264 76.5095 34.5305C76.6223 34.5368 76.7696 34.4945 76.8385 34.5504C76.9111 34.6094 76.861 34.7624 76.8615 34.8741C76.8641 35.3311 76.8651 35.7875 76.862 36.2444C76.8583 36.7807 76.5168 37.1467 75.9811 37.1864C75.6286 37.2125 75.3043 37.1483 75.0604 36.8606C74.945 36.7248 74.8803 36.5681 74.8777 36.3911C74.8735 36.0987 74.8766 35.8068 74.8766 35.5144H74.8735V35.5138Z" fill="white"/>
<path id="Vector_18" d="M81.6572 36.0271C81.6572 35.6908 81.6551 35.3545 81.6587 35.0182C81.6598 34.9462 81.6399 34.9263 81.5684 34.9284C81.3747 34.9336 81.1809 34.9279 80.9872 34.9315C80.9271 34.9326 80.9026 34.918 80.9063 34.8537C80.9125 34.7519 80.8734 34.6208 80.923 34.5556C80.9768 34.4856 81.1141 34.5341 81.2144 34.5336C81.7224 34.531 82.2305 34.5341 82.7386 34.5305C82.8196 34.53 82.8514 34.5482 82.841 34.6323C82.829 34.7289 82.8817 34.859 82.8191 34.9148C82.7653 34.9629 82.6384 34.9294 82.5444 34.9305C82.4274 34.9315 82.3099 34.9368 82.1935 34.9289C82.1099 34.9232 82.0916 34.9493 82.0922 35.0308C82.0958 35.6887 82.0922 36.3467 82.0963 37.0046C82.0969 37.1012 82.0765 37.1415 81.9736 37.1305C81.8728 37.1195 81.7392 37.1618 81.677 37.1106C81.6117 37.0569 81.6582 36.919 81.6572 36.8177C81.6556 36.5535 81.6572 36.2903 81.6572 36.0271Z" fill="white"/>
<path id="Vector_19" d="M80.563 35.8418C80.563 36.2361 80.561 36.6303 80.5646 37.0246C80.5651 37.1013 80.5531 37.1379 80.4649 37.129C80.3745 37.1201 80.2821 37.1228 80.1912 37.128C80.1301 37.1316 80.1192 37.1076 80.1192 37.0528C80.1207 36.2387 80.1207 35.4251 80.1187 34.611C80.1187 34.5457 80.1422 34.5316 80.2006 34.5342C80.2915 34.5384 80.3834 34.5405 80.4743 34.5337C80.5495 34.528 80.5641 34.5572 80.5636 34.6262C80.562 35.0314 80.563 35.4366 80.563 35.8418Z" fill="white"/>
<path id="Vector_20" d="M83.6303 35.8307C83.6303 36.2328 83.6287 36.6344 83.6318 37.036C83.6324 37.1044 83.6183 37.1341 83.5431 37.1289C83.4308 37.1211 83.2825 37.1655 83.2146 37.1091C83.1436 37.0501 83.1937 36.8965 83.1932 36.7848C83.1911 36.0689 83.1937 35.3529 83.1906 34.637C83.1901 34.5587 83.2037 34.5253 83.2903 34.5331C83.3984 34.543 83.5452 34.4976 83.6073 34.5529C83.6783 34.6161 83.6282 34.7655 83.6292 34.8772C83.6324 35.1947 83.6308 35.5127 83.6303 35.8307Z" fill="white"/>
<path id="Vector_21" d="M74.5032 32.9541C74.5032 30.1462 74.5037 27.3384 74.5042 24.5306C74.5042 24.4794 74.5068 24.4282 74.5079 24.3776C74.5387 24.4246 74.5262 24.4768 74.5262 24.5274C74.5267 27.2423 74.5267 29.9572 74.5272 32.6721C74.5272 32.741 74.5194 32.811 74.5408 32.8789C74.5512 32.9133 74.5465 32.9441 74.5032 32.9541Z" fill="#20376A"/>
<path id="Vector_22" d="M83.671 30.3801C83.671 29.9122 83.6726 29.4449 83.6695 28.9775C83.6689 28.9007 83.6794 28.8673 83.7681 28.8725C84.0047 28.8856 84.2428 28.86 84.4794 28.8892C84.623 28.907 84.7081 28.9895 84.7535 29.1221C84.8214 29.3185 84.8282 29.5242 84.8319 29.7274C84.8428 30.2966 84.8491 30.8668 84.8141 31.4355C84.8099 31.5044 84.8021 31.5738 84.7906 31.6417C84.7645 31.7958 84.6977 31.8611 84.5394 31.884C84.2705 31.9221 83.9995 31.8934 83.7295 31.9033C83.6538 31.906 83.6721 31.8553 83.6721 31.8161C83.671 31.5054 83.6715 31.1953 83.6715 30.8845L83.671 30.3801Z" fill="#20376A"/>
<path id="Vector_23" d="M83.6711 26.6375C83.6711 26.2359 83.6737 25.8339 83.669 25.4323C83.6679 25.3498 83.6899 25.3268 83.7719 25.3294C84.0053 25.3373 84.2392 25.3341 84.4726 25.3404C84.6512 25.3451 84.7259 25.4051 84.7525 25.5837C84.8157 26.0036 84.8209 26.4271 84.8136 26.8506C84.8089 27.1091 84.8089 27.3686 84.7525 27.6234C84.7092 27.8161 84.6335 27.884 84.435 27.9143C84.199 27.9503 83.9614 27.9284 83.7243 27.9352C83.6465 27.9373 83.6721 27.8798 83.6716 27.8433C83.6705 27.4412 83.6711 27.0396 83.6711 26.6375Z" fill="#20376A"/>
<path id="Vector_24" d="M64.5052 30.3196C64.3626 30.3196 64.22 30.3159 64.0775 30.3211C64.0086 30.3237 63.9887 30.3044 63.9976 30.235C64.0592 29.7535 64.1161 29.271 64.1783 28.7895C64.2963 27.8736 64.4247 26.9582 64.4159 26.0313C64.4153 25.9895 64.3918 25.9305 64.4759 25.9337C64.5558 25.9363 64.525 25.9953 64.5245 26.0292C64.5156 26.7587 64.618 27.4783 64.7245 28.1974C64.8253 28.8799 64.9203 29.5629 65.02 30.2454C65.0289 30.3065 65.0133 30.3222 64.9548 30.3211C64.8049 30.318 64.655 30.3196 64.5052 30.3196Z" fill="#20376A"/>
<path id="Vector_25" d="M88.4613 29.6998C88.4613 30.0418 88.4644 30.3624 88.4603 30.6825C88.4561 30.9959 88.4843 31.3107 88.4352 31.6225C88.4086 31.7932 88.3621 31.9577 88.2488 32.094C88.1302 32.2376 87.9725 32.282 87.796 32.2444C87.631 32.2094 87.5678 32.0794 87.5328 31.929C87.5031 31.7995 87.5036 31.6684 87.5031 31.5374C87.5025 31.2893 87.5067 31.0408 87.501 30.7927C87.4947 30.5133 87.6065 30.2977 87.8352 30.1431C88.0415 30.0042 88.2461 29.8658 88.4613 29.6998Z" fill="#20376A"/>
<path id="Vector_26" d="M71.7731 29.6992C71.7731 29.9781 71.7752 30.2329 71.7726 30.4877C71.7689 30.8272 71.7903 31.1671 71.7611 31.5055C71.7413 31.7358 71.6979 31.9624 71.5209 32.1342C71.2828 32.3655 70.9439 32.2757 70.8525 31.9587C70.8206 31.8486 70.8154 31.7363 70.8154 31.623C70.8154 31.342 70.8191 31.0606 70.8144 30.7796C70.8097 30.5133 70.9151 30.305 71.1313 30.1551C71.3407 30.0104 71.5538 29.87 71.7731 29.6992Z" fill="#20376A"/>
<path id="Vector_27" d="M77.2214 29.659C77.2214 30.3279 77.2219 30.9963 77.2209 31.6647C77.2209 31.7227 77.2157 31.7817 77.2073 31.8391C77.1494 32.2229 76.73 32.4083 76.3979 32.1974C76.3055 32.1389 76.2569 32.0501 76.2397 31.9457C76.2266 31.8668 76.2199 31.7859 76.2199 31.706C76.2188 30.3942 76.2188 29.0825 76.2193 27.7707C76.2193 27.6537 76.2261 27.5373 76.258 27.4235C76.3065 27.2485 76.4183 27.142 76.5984 27.1101C76.7003 27.0919 76.8011 27.0919 76.9029 27.1138C77.0726 27.1509 77.1692 27.2574 77.2 27.4235C77.2141 27.4981 77.2204 27.5759 77.2204 27.6522C77.2219 28.3216 77.2214 28.99 77.2214 29.659Z" fill="#20376A"/>
<path id="Vector_28" d="M66.079 35.8235C66.0827 35.5827 66.1218 35.3498 66.2691 35.1519C66.4633 34.8908 66.737 34.8172 67.0461 34.8532C67.3704 34.8913 67.5913 35.0699 67.6941 35.3786C67.8002 35.6966 67.7928 36.0188 67.6743 36.3326C67.5495 36.6621 67.2837 36.8308 66.915 36.8276C66.5516 36.8245 66.2879 36.6444 66.1646 36.3164C66.1041 36.1571 66.0748 35.9932 66.079 35.8235Z" fill="#20376A"/>
</g>
</g>
</svg>
