<svg width="311" height="310" viewBox="0 0 311 310" fill="none" xmlns="http://www.w3.org/2000/svg">
    <path d="M155.001 309.984C240.606 309.984 310.002 240.591 310.002 154.992C310.002 69.3922 240.606 0 155.001 0C69.3964 0 0 69.3922 0 154.992C0 240.591 69.3964 309.984 155.001 309.984Z" fill="#CC092F"/>
    <path d="M291.577 196.852C273.849 189.788 257.62 192.155 241.352 202.017C241.352 202.017 235.424 205.635 233.648 206.752C226.068 211.506 218.918 216.012 212.044 216.012C205.486 216.012 199.033 214.256 196.302 201.568C192.044 181.778 181.658 133.148 177.123 109.062C174.46 94.9046 172.999 87.2769 171.481 82.0931C168.808 72.9857 163.92 68.031 156.98 67.2387C156.98 67.2387 155.892 67.0859 155.004 67.0859C154.125 67.0859 152.923 67.2578 152.923 67.2578C146.049 68.0788 141.19 73.0334 138.536 82.0931C137.018 87.2769 135.557 94.9046 132.894 109.062C128.359 133.148 117.973 181.778 113.715 201.568C110.985 214.256 104.531 216.012 97.9726 216.012C91.0991 216.012 83.9487 211.506 76.3687 206.752C74.5931 205.635 68.6551 202.017 68.6551 202.017C52.3973 192.155 36.1586 189.788 18.4402 196.852C14.612 198.38 10.8415 200.09 7.25195 201.818C9.70542 209.513 12.7597 217.086 16.3205 224.198C20.2442 222.269 24.359 220.356 28.5595 219.115C34.6121 217.33 40.8173 217.234 46.8317 219.249C52.6741 221.206 57.877 224.671 63.0608 227.926C72.8269 234.065 83.8914 241.024 97.9726 241.024C118.841 241.024 133.486 228.566 138.164 206.838C141.791 189.998 149.83 152.404 154.994 126.475C154.994 126.475 168.226 189.998 171.844 206.838C176.522 228.566 191.176 241.024 212.044 241.024C226.126 241.024 237.19 234.065 246.956 227.926C252.14 224.671 257.343 221.206 263.185 219.249C269.19 217.234 275.405 217.33 281.458 219.115C285.658 220.356 289.767 222.271 293.69 224.2C297.261 217.088 300.307 209.511 302.76 201.817C299.171 200.089 295.405 198.38 291.577 196.852Z" fill="white"/>
</svg>
