<?xml version="1.0" encoding="UTF-8"?>
<svg width="512px" height="512px" viewBox="0 0 512 512" version="1.1" xmlns="http://www.w3.org/2000/svg" xmlns:xlink="http://www.w3.org/1999/xlink">
    <!-- Generator: Sketch 49 (51002) - http://www.bohemiancoding.com/sketch -->
    <title>#AXP</title>
    <desc>Created with Sketch.</desc>
    <defs></defs>
    <g id="#AXP" stroke="none" stroke-width="1" fill="none" fill-rule="evenodd">
        <path d="M62.5002444,276 L37.1247382,247.089456 L88.0942521,247.089456 L62.5002444,276 Z M62.5002444,212 L8,276 L35.360595,308 L62.5002444,276.882981 L89.8603506,308 L117,276 L62.5002444,212 Z" id="Fill-4" fill="#FFFFFE"></path>
        <path d="M516.932635,0 L0,0 L0,512 L516.932635,512 L516.932635,343.026936 C518.986101,340.09751 520,336.350233 520,331.76882 C520,326.525166 518.986101,323.277284 516.932635,320.541464" id="Shape" fill="#2F8FCA" fill-rule="nonzero"></path>
        <path d="M45.8985011,219.780731 L36.1029681,195.840089 L26.36342,219.780731 L45.8985011,219.780731 Z M261.692792,210.247584 C259.7261,211.444888 257.400022,211.484738 254.613424,211.484738 L237.227437,211.484738 L237.227437,198.14594 L254.850005,198.14594 C257.344037,198.14594 259.946427,198.258244 261.636807,199.229129 C263.493335,200.104012 264.641926,201.966082 264.641926,204.538202 C264.641926,207.162852 263.54932,209.274888 261.692792,210.247584 Z M385.722587,219.780731 L375.818697,195.840089 L365.968985,219.780731 L385.722587,219.780731 Z M154.523449,245.693936 L139.851821,245.693936 L139.797642,198.660364 L119.045343,245.693936 L106.479466,245.693936 L85.6729881,198.618703 L85.6729881,245.693936 L56.5645073,245.693936 L51.0653557,232.298986 L21.2669978,232.298986 L15.7118615,245.693936 L0.167954381,245.693936 L25.7963482,185.640364 L47.059734,185.640364 L71.4004776,242.498711 L71.4004776,185.640364 L94.7587783,185.640364 L113.488401,226.379487 L130.693792,185.640364 L154.521643,185.640364 L154.521643,245.693936 L154.523449,245.693936 Z M212.998663,245.693936 L165.189455,245.693936 L165.189455,185.640364 L212.998663,185.640364 L212.998663,198.14594 L179.501696,198.14594 L179.501696,208.970581 L212.19501,208.970581 L212.19501,221.280531 L179.501696,221.280531 L179.501696,233.273494 L212.998663,233.273494 L212.998663,245.693936 Z M280.407966,201.813928 C280.407966,211.388736 274.036536,216.335539 270.32348,217.820848 C273.455016,219.01634 276.129644,221.128377 277.402847,222.878143 C279.423717,225.865063 279.772268,228.533185 279.772268,233.896599 L279.772268,245.693936 L265.337221,245.693936 L265.283042,238.120672 C265.283042,234.507025 265.627981,229.310255 263.023785,226.421148 C260.932482,224.309112 257.744961,223.85084 252.592554,223.85084 L237.229243,223.85084 L237.229243,245.693936 L222.918807,245.693936 L222.918807,185.640364 L255.83606,185.640364 C263.150202,185.640364 268.53919,185.834179 273.166062,188.516792 C277.693607,191.199404 280.407966,195.115548 280.407966,201.813928 Z M303.311165,245.693936 L288.708163,245.693936 L288.708163,185.640364 L303.311165,185.640364 L303.311165,245.693936 Z M472.724763,245.693936 L452.44382,245.693936 L425.316478,200.620247 L425.316478,245.693936 L396.170072,245.693936 L390.600488,232.298986 L360.870757,232.298986 L355.467321,245.693936 L338.720644,245.693936 C331.764082,245.693936 322.95641,244.150664 317.968345,239.051707 C312.938743,233.952751 310.321906,227.046065 310.321906,216.125422 C310.321906,207.219003 311.885868,199.076975 318.036972,192.643052 C322.663844,187.850214 329.90936,185.640364 339.771713,185.640364 L353.627047,185.640364 L353.627047,198.508211 L340.062473,198.508211 C334.839633,198.508211 331.890499,199.287092 329.049722,202.065706 C326.609869,204.594354 324.935743,209.374513 324.935743,215.668962 C324.935743,222.102885 326.210751,226.741758 328.870932,229.77215 C331.074205,232.148644 335.07802,232.869562 338.845255,232.869562 L345.272671,232.869562 L365.44345,185.642176 L386.887432,185.642176 L411.118012,242.44437 L411.118012,185.642176 L432.908738,185.642176 L458.065776,227.466299 L458.065776,185.642176 L472.724763,185.642176 L472.724763,245.693936 Z M0.00180596109,257.489462 L24.4545191,257.489462 L29.9681183,244.150664 L42.3118623,244.150664 L47.8110139,257.489462 L95.9236232,257.489462 L95.9236232,247.291549 L100.218199,257.532934 L125.194641,257.532934 L129.489216,247.139395 L129.489216,257.489462 L249.058288,257.489462 L249.002303,235.593836 L251.315739,235.593836 C252.935686,235.649988 253.408848,235.80033 253.408848,238.482943 L253.408848,257.489462 L315.250374,257.489462 L315.250374,252.392317 C320.238438,255.073118 327.996847,257.489462 338.205945,257.489462 L364.22262,257.489462 L369.790398,244.150664 L382.134142,244.150664 L387.579115,257.489462 L437.714401,257.489462 L437.714401,244.819053 L445.306661,257.489462 L485.482072,257.489462 L485.482072,173.732535 L445.722032,173.732535 L445.722032,183.624329 L440.154254,173.732535 L399.355787,173.732535 L399.355787,183.624329 L394.243112,173.732535 L339.134209,173.732535 C329.90936,173.732535 321.800594,175.024029 315.250374,178.623186 L315.250374,173.732535 L277.220445,173.732535 L277.220445,178.623186 C273.052287,174.913537 267.372539,173.732535 261.057093,173.732535 L122.119089,173.732535 L112.796718,195.365515 L103.223318,173.732535 L59.4612688,173.732535 L59.4612688,183.624329 L54.6538004,173.732535 L17.3318086,173.732535 L0,213.555114 L0,257.489462 L0.00180596109,257.489462 Z" id="Shape" fill="#FFFFFF" fill-rule="nonzero"></path>
        <path d="M511.920319,304.73161 L485.899401,304.73161 C483.301452,304.73161 481.575493,304.829358 480.121578,305.815884 C478.615417,306.787928 478.035293,308.230609 478.035293,310.134876 C478.035293,312.39936 479.307242,313.939789 481.157515,314.60592 C482.663676,315.132671 484.281538,315.286532 486.659688,315.286532 L494.397681,315.494698 C502.205939,315.688383 507.418049,317.036937 510.596122,320.32596 C511.174445,320.783926 511.522159,321.298005 511.920319,321.812085 L511.920319,304.73161 Z M511.920319,344.306686 C508.452184,349.402228 501.694276,351.985297 492.545608,351.985297 L464.973487,351.985297 L464.973487,339.113396 L492.433907,339.113396 C495.157969,339.113396 497.064091,338.753178 498.211729,337.627272 C499.206227,336.69867 499.899854,335.350117 499.899854,333.71194 C499.899854,331.963346 499.206227,330.574969 498.155878,329.742305 C497.119942,328.826374 495.611979,328.410042 493.125732,328.410042 C479.719815,327.952077 462.995299,328.826374 462.995299,309.830773 C462.995299,301.124003 468.497472,291.959267 483.479814,291.959267 L511.918517,291.959267 L511.920319,280.015968 L485.495836,280.015968 C477.521829,280.015968 471.729594,281.934716 467.627286,284.917825 L467.627286,280.015968 L428.544562,280.015968 C422.294713,280.015968 414.958483,281.572688 411.488547,284.917825 L411.488547,280.015968 L341.697068,280.015968 L341.697068,284.917825 C336.142648,280.892075 326.770577,280.015968 322.444867,280.015968 L276.40966,280.015968 L276.40966,284.917825 C272.015488,280.642276 262.243456,280.015968 256.287273,280.015968 L204.766107,280.015968 L192.976251,292.835375 L181.934071,280.015968 L104.972112,280.015968 L104.972112,363.774734 L180.485562,363.774734 L192.633942,350.752592 L204.077885,363.774734 L250.624755,363.816367 L250.624755,344.113001 L255.200891,344.113001 C261.376873,344.208938 268.660856,343.959139 275.087265,341.167904 L275.087265,363.772924 L313.479965,363.772924 L313.479965,341.942644 L315.332039,341.942644 C317.695775,341.942644 317.928185,342.040391 317.928185,344.413484 L317.928185,363.771114 L434.558398,363.771114 C441.96309,363.771114 449.702885,361.866847 453.988959,358.411291 L453.988959,363.771114 L490.983596,363.771114 C498.681954,363.771114 506.200149,362.68684 511.920319,359.910087 L511.920319,344.306686 Z M454.969045,320.32596 C457.748958,323.216753 459.238904,326.865994 459.238904,333.043999 C459.238904,345.957533 451.209047,351.985297 436.810433,351.985297 L409.0023,351.985297 L409.0023,339.113396 L436.698732,339.113396 C439.406579,339.113396 441.327115,338.753178 442.530603,337.627272 C443.51249,336.69867 444.216927,335.350117 444.216927,333.71194 C444.216927,331.963346 443.454838,330.574969 442.474753,329.742305 C441.382966,328.826374 439.876804,328.410042 437.390557,328.410042 C424.03869,327.952077 407.317777,328.826374 407.317777,309.830773 C407.317777,301.124003 412.762298,291.959267 427.730226,291.959267 L456.352696,291.959267 L456.352696,304.73523 L430.162424,304.73523 C427.566278,304.73523 425.878152,304.832978 424.442254,305.819504 C422.878441,306.791549 422.298317,308.23423 422.298317,310.138496 C422.298317,312.402981 423.626117,313.943409 425.42234,314.60954 C426.928502,315.136291 428.546364,315.290153 430.978562,315.290153 L438.664309,315.498319 C446.414914,315.688383 451.735122,317.035127 454.969045,320.32596 Z M326.138205,316.618795 C324.228479,317.757373 321.866545,317.85512 319.088434,317.85512 L301.744158,317.85512 L301.744158,304.373203 L319.324447,304.373203 C321.866545,304.373203 324.410444,304.427507 326.138205,305.457476 C327.988478,306.429521 329.094678,308.288534 329.094678,310.857122 C329.094678,313.425709 327.988478,315.494698 326.138205,316.618795 Z M334.760799,324.08924 C337.938871,325.267641 340.536819,327.380073 341.75472,329.128668 C343.770742,332.059283 344.062606,334.794404 344.120258,340.085441 L344.120258,351.985297 L329.786503,351.985297 L329.786503,344.475029 C329.786503,340.863801 330.132416,335.516649 327.478617,332.725415 C325.392331,330.574969 322.212457,330.060889 317.00395,330.060889 L301.745959,330.060889 L301.745959,351.985297 L287.399593,351.985297 L287.399593,291.957457 L320.362185,291.957457 C327.590318,291.957457 332.854676,292.277852 337.540711,294.790325 C342.046584,297.525446 344.880545,301.272434 344.880545,308.120191 C344.878744,317.701258 338.518995,322.590445 334.760799,324.08924 Z M352.7969,291.957457 L400.448168,291.957457 L400.448168,304.371392 L367.015351,304.371392 L367.015351,315.284722 L399.632031,315.284722 L399.632031,327.532125 L367.015351,327.532125 L367.015351,339.475424 L400.448168,339.529728 L400.448168,351.985297 L352.7969,351.985297 L352.7969,291.957457 Z M256.469237,319.659829 L238.018762,319.659829 L238.018762,304.373203 L256.634987,304.373203 C261.789446,304.373203 265.36748,306.483825 265.36748,311.733229 C265.36748,316.924709 261.955196,319.659829 256.469237,319.659829 Z M223.798509,346.525917 L201.878097,322.074555 L223.798509,298.399743 L223.798509,346.525917 Z M167.189545,339.475424 L132.086618,339.475424 L132.086618,327.532125 L163.431348,327.532125 L163.431348,315.284722 L132.086618,315.284722 L132.086618,304.371392 L167.88137,304.371392 L183.497885,321.864579 L167.189545,339.475424 Z M280.695734,311.733229 C280.695734,328.408232 268.313142,331.851117 255.833263,331.851117 L238.018762,331.851117 L238.018762,351.985297 L210.26828,351.985297 L192.687991,332.113587 L174.417678,351.985297 L117.864564,351.985297 L117.864564,291.957457 L175.287864,291.957457 L192.853741,311.633671 L211.014154,291.957457 L256.634987,291.957457 C267.965428,291.957457 280.695734,295.10891 280.695734,311.733229 Z" id="Shape" fill="#FFFFFF" fill-rule="nonzero"></path>
    </g>
</svg>