<svg width="160" height="40" viewBox="0 0 160 40" fill="none" xmlns="http://www.w3.org/2000/svg">
    <path d="M159.471 17.0095L159.473 17.0072C159.473 17.0072 158.893 15.7078 158.049 14.9519C157.347 14.3245 152.099 13.581 149.097 18.015C149.054 17.8717 147.761 14.9223 144.403 15.5868H138.791L136.441 19.5515C136.599 17.9113 135.935 14.1788 131.788 14.0231C130.613 13.9787 129.455 14.4925 129.455 14.4925L131.175 11.5826L130.425 10.4117L115.866 11.5826L111.811 16.0067L112.559 17.1776H117.7L110.262 22.4392C110.333 22.2687 110.402 22.0933 110.468 21.918C111.221 19.9146 111.165 18.1978 110.473 16.9652C110.473 16.9652 109.931 15.7202 109.086 14.9618C108.384 14.3369 103.653 15.2755 102.279 16.0685L102.566 15.5794H102.564L101.312 15.3447L100.738 14.6135L101.213 13.8082L100.463 12.6373L94.2481 13.8082L93.2152 15.5547H82.653C82.6811 14.9124 82.5258 14.3294 82.2257 13.8181L82.2233 13.8057C82.2233 13.8057 81.5746 12.5039 80.992 12.0099C80.412 11.5183 78.1225 11.5233 76.6725 11.5233C75.3344 11.5233 72.4039 11.7802 70.3459 13.8057L71.6586 11.5875L70.9107 10.4166L0.747888 11.5875L0 28.0046L0.747888 29.1779H75.0674L76.2223 27.2314C76.3369 27.3895 76.4589 27.5401 76.5785 27.681C77.1127 28.4072 78.4432 29.5806 81.5136 29.5806C82.8466 29.5806 86.0188 29.2817 87.8454 26.7373C88.0794 27.2067 88.5017 27.7007 88.7942 28.0144C88.8782 28.1108 88.9697 28.2022 89.0664 28.2936L89.1121 28.338H89.1145C89.6411 28.8073 90.3712 29.1828 91.3786 29.1828H94.7823L96.3137 26.5891C96.6393 27.3721 97.6213 28.2812 97.6722 28.3256C98.4735 29.126 99.6411 29.499 100.857 29.5632C102.411 29.6472 103.836 29.3261 105.105 28.6641L105.436 29.1828H120.771L121.992 27.1226C122.427 27.7649 123.063 28.3602 123.063 28.3602C123.648 29.0049 124.599 29.5138 126.245 29.6299C127.685 29.7312 129.206 29.3952 130.468 28.7703L130.73 29.1853H143.572L145.269 26.3124C145.597 27.2264 146.759 28.3355 146.759 28.3355H146.762C147.433 29.0494 148.466 29.5533 149.911 29.6324C154.309 29.872 157.123 26.6755 158.352 24.1683C160.115 20.5568 160.142 18.3533 159.471 17.0095Z" fill="#211E1E"/>
    <path d="M158.713 13.9118C159.405 13.9118 160 13.3881 160 12.6693C160 11.9604 159.405 11.4391 158.713 11.4391C158.008 11.4391 157.415 11.9604 157.415 12.6693C157.415 13.3881 158.008 13.9118 158.713 13.9118ZM157.677 12.6693C157.677 12.0839 158.123 11.6442 158.713 11.6442C159.283 11.6442 159.74 12.0839 159.74 12.6693C159.74 13.2671 159.283 13.7019 158.713 13.7019C158.123 13.7019 157.677 13.2671 157.677 12.6693ZM158.438 12.7657H158.695L159.084 13.3882H159.333L158.914 12.7558C159.13 12.7361 159.298 12.6199 159.298 12.368C159.298 12.0839 159.125 11.9604 158.776 11.9604H158.222V13.3882H158.438V12.7657ZM158.438 12.5878V12.1457H158.743C158.901 12.1457 159.064 12.1754 159.064 12.3556C159.064 12.573 158.893 12.5878 158.703 12.5878H158.438Z" fill="#211E1E"/>
    <path d="M0 10.4165V28.0044H60.5062L70.9107 10.4165H0Z" fill="white"/>
    <path d="M105.886 13.7636C104.309 13.7217 102.92 14.0946 101.529 14.8975L101.819 14.4084H99.4147L100.463 12.6372H93.4977L92.4674 14.3812H81.9027C82.0095 11.9431 79.5597 10.3523 75.9245 10.3523C74.2939 10.3523 70.3051 10.7302 68.4023 14.2206L60.2466 28.0044H74.3193L75.5226 25.9789C75.6447 26.2679 76.6165 28.4071 80.7655 28.4071C82.1265 28.4071 85.4208 28.1032 87.2219 25.3959C87.3567 25.8257 88.1937 28.0119 90.6307 28.0119H94.0319L95.8991 24.8549C96.1331 27.3103 98.0563 28.2836 100.109 28.3923C104.536 28.6294 107.896 25.5935 109.72 20.7445C111.229 16.7304 109.486 13.8575 105.886 13.7636Z" fill="white"/>
    <path d="M155.07 13.8032C152.551 13.6747 150.191 14.7912 148.349 16.844C148.306 16.7007 147.484 13.692 143.655 14.4158H138.041L135.691 18.3805C135.851 16.7403 135.083 13.8032 131.155 13.8032C129.98 13.8032 129.155 13.9563 128.067 14.4009L130.425 10.4116H115.118L111.809 16.0066H116.952L108.117 22.2538L104.688 28.0094H120.023L121.465 25.5737C121.847 26.8261 122.592 28.2539 125.495 28.4565C127.237 28.58 129.107 28.0687 130.478 27.172L129.982 28.0094L142.824 28.014L145.077 24.1902C144.841 26.1886 146.07 28.2907 149.16 28.4612C153.561 28.7008 156.375 25.5043 157.601 22.9946C161.475 15.0701 156.988 13.902 155.07 13.8032Z" fill="white"/>
    <path d="M43.0783 11.3527L33.7804 27.0658H40.2597L49.5627 11.3527H43.0783ZM34.4393 11.3527L25.1312 27.0658H33.002L42.3024 11.3527H34.4393ZM50.5065 11.3527L41.2086 27.0658H46.103L55.4085 11.3527H50.5065ZM0.933838 11.3527V27.0658H24.5004L33.7957 11.3527H0.933838ZM65.2025 11.3527L55.9046 27.0658H57.0417L66.3396 11.3527H65.2025ZM68.5629 11.3527L59.265 27.0658H59.8145L69.1099 11.3527H68.5629ZM63.1725 11.3527H61.2416L51.9412 27.0658H53.8695L57.2223 21.4189L63.1725 11.3527ZM56.5431 11.3527L47.2401 27.0658H50.3564L59.667 11.3527H56.5431Z" fill="#F58226"/>
    <path d="M87.6262 15.3445L83.1133 23.1331C82.747 23.7779 82.3628 23.9607 81.7778 23.8495C81.0477 23.7087 81.3529 23.1677 81.5641 22.7947L86.0108 15.3445H81.5895L76.5654 23.8396C75.6699 25.4354 76.8452 27.0336 79.7579 27.3868C81.4114 27.5869 84.8838 27.3939 86.517 24.677L86.5267 24.67L92.024 15.3449L87.6262 15.3445Z" fill="#E32123"/>
    <path d="M95.7562 18.7115H98.1678L100.155 15.3446H97.7481L98.7961 13.5734H94.0569L88.3764 23.1801C87.8574 24.099 87.9058 25.1316 88.6613 26.0604C89.2006 26.7372 89.7653 27.0756 90.7854 27.0756H93.4743L95.3365 23.9236H93.309C93.1513 23.9236 92.9757 23.9484 92.9096 23.8051C92.874 23.7162 92.8562 23.6247 92.8969 23.5432L95.7562 18.7115Z" fill="#E32123"/>
    <path d="M77.0693 11.3551C75.141 11.1205 71.0454 11.3552 69.2469 14.6727L61.9128 27.0682H66.6928L68.7406 23.6074H71.0657L69.0179 27.0682H73.7623L80.5188 15.683C81.6432 13.6747 80.562 11.7776 77.0693 11.3551ZM75.2021 16.6192L73.2891 19.8576H70.9614L73.0576 16.308C73.3323 15.8386 73.8666 15.4236 74.7086 15.5002C75.4107 15.5669 75.6371 15.9152 75.2021 16.6192Z" fill="#E32123"/>
    <path d="M105.978 14.7048C102.345 14.517 98.9363 17.3108 97.3718 21.6115C96.25 24.6919 96.7231 27.2782 100.16 27.4585C103.632 27.6388 106.955 25.5342 108.809 20.4332C109.931 17.3529 109.13 14.8678 105.978 14.7048ZM104.342 20.616C103.261 22.6391 102.526 23.647 101.615 23.474C100.954 23.3481 101.2 22.4366 101.852 21.2138C102.762 19.5093 103.739 18.2668 104.553 18.4027C105.314 18.5311 104.993 19.3957 104.342 20.616Z" fill="#E32123"/>
    <path d="M145.695 15.3544C143.569 14.8505 142.172 16.1498 142.172 16.1498L142.638 15.3519H138.6L131.648 27.0756H136.087L140.262 20.0157C140.554 19.5143 140.953 18.9412 141.549 19.0647C142.08 19.1733 142.238 19.6477 142.063 19.9638L137.86 27.0781H142.264L147.306 18.5286C148.003 17.2886 146.858 15.6286 145.695 15.3544Z" fill="#E32123"/>
    <path d="M126.199 15.683L128.761 11.3478H115.677L113.474 15.0704H119.913L108.85 22.896L106.359 27.0732H119.465L121.655 23.3753H115.504L126.199 15.683Z" fill="#E32123"/>
    <path d="M155.016 14.7369C151.386 14.5492 148.194 17.3504 146.629 21.6658C145.507 24.7536 145.762 27.3473 149.196 27.5252C152.088 27.6759 154.658 26.2358 156.581 22.7923H152.149C151.544 23.6964 150.974 24.2522 150.422 24.1484C149.911 24.0496 150.081 23.1109 150.488 22.1228H156.932C157.181 21.614 157.415 21.068 157.629 20.4801C158.751 17.3924 158.168 14.9024 155.016 14.7369ZM153.218 20.4332C152.966 20.4332 151.969 20.4332 151.175 20.4332C151.908 19.1685 152.661 18.3335 153.304 18.4472C153.983 18.5682 153.76 19.334 153.218 20.4332Z" fill="#E32123"/>
    <path d="M131.429 14.7369C127.797 14.5492 124.388 17.3504 122.821 21.6658C121.702 24.7536 122.175 27.3473 125.609 27.5252C129.081 27.7055 132.404 25.596 134.261 20.4801C135.383 17.3924 134.581 14.9024 131.429 14.7369ZM129.791 20.6654C128.712 22.6934 127.975 23.7038 127.067 23.5308C126.403 23.4049 126.652 22.4909 127.303 21.2657C128.214 19.5563 129.191 18.3088 130.005 18.4472C130.765 18.5756 130.442 19.4426 129.791 20.6654Z" fill="#E32123"/>
</svg>
