<?xml version="1.0" encoding="UTF-8"?>
<svg width="512px" height="512px" viewBox="0 0 512 512" version="1.1" xmlns="http://www.w3.org/2000/svg" xmlns:xlink="http://www.w3.org/1999/xlink">
    <!-- Generator: Sketch 48.1 (47250) - http://www.bohemiancoding.com/sketch -->
    <title>#BA</title>
    <desc>Created with Sketch.</desc>
    <defs></defs>
    <g id="Компании-BIG" stroke="none" stroke-width="1" fill="none" fill-rule="evenodd">
        <g id="#BA" fill="#1F5595">
            <g id="Page-1" transform="translate(2.000000, 38.000000)">
                <g id="Group-27">
                    <path d="M147.57576,322.868928 C75.7969134,322.868928 17.6079263,265.36227 17.6079263,194.425075 C17.6079263,123.487045 75.7969134,65.9812207 147.57576,65.9812207 C219.354606,65.9812207 277.542759,123.487045 277.542759,194.425075 C277.542759,265.36227 219.354606,322.868928 147.57576,322.868928 M147.57576,46.8493151 C66.0716392,46.8493151 0,112.920954 0,194.425075 C0,275.928361 66.0716392,342 147.57576,342 C229.079046,342 295.150685,275.928361 295.150685,194.425075 C295.150685,112.920954 229.079046,46.8493151 147.57576,46.8493151" id="Fill-21"></path>
                    <path d="M512.95705,298.82155 C405.257823,301.6264 307.009207,305.78047 256.368526,309.205479 L202.623288,208.479452 C301.464759,303.786151 516.487461,287.159061 512.95705,298.82155" id="Fill-23"></path>
                    <path d="M56.9964998,383.786795 C38.737839,367.545353 51.3805632,314.418253 93.9707874,243.887879 C182.742039,96.8785847 304.520548,0 304.520548,0 C211.292838,56.1710666 158.132467,112.125959 112.878689,167.932284 C19.6409911,282.914413 -10.860861,391.214339 28.519781,418.968934 C45.1353621,430.679899 101.837427,417.877213 147.094534,349.39173 C121.443679,372.287831 77.0555564,401.629094 56.9964998,383.786795" id="Fill-25"></path>
                </g>
            </g>
        </g>
    </g>
</svg>