<?xml version="1.0" encoding="UTF-8"?>
<svg width="512px" height="512px" viewBox="0 0 512 512" version="1.1" xmlns="http://www.w3.org/2000/svg" xmlns:xlink="http://www.w3.org/1999/xlink">
    <!-- Generator: Sketch 49 (51002) - http://www.bohemiancoding.com/sketch -->
    <title>#BABA</title>
    <desc>Created with Sketch.</desc>
    <defs></defs>
    <g id="#BABA" stroke="none" stroke-width="1" fill="none" fill-rule="evenodd">
        <g id="Shape" transform="translate(0.000000, 110.000000)" fill-rule="nonzero">
            <path d="M53.3079329,226.507875 C51.1149329,226.013375 47.9490579,224.314875 45.5141829,222.36375 C23.3530579,201.180875 51.5986829,176.343 84.2303079,161.981 L84.2303079,121.071875 C92.0240579,125.69975 95.9155579,126.1835 96.4046829,126.9145 L121.242558,102.076625 L112.959683,81.135625 C186.011308,55.814 215.471683,46.0745 274.881558,36.08775 L264.174558,26.34825 L281.707808,16.125 C321.644058,29.5195 358.898183,32.92725 352.571808,66.289875 C354.270308,43.886875 326.261183,35.12025 282.927933,22.945875 L274.886933,28.0575 L290.716308,41.20475 C219.615808,53.626375 175.788058,67.26275 123.919308,85.27975 L130.740183,103.7805 L104.924058,129.349375 C109.310058,130.5695 154.599808,145.90975 202.082558,112.794375 C202.324433,112.5525 203.055433,112.30525 203.055433,111.816125 C201.351558,109.38125 198.427558,107.18825 194.536058,103.53325 C208.172433,104.5115 217.180933,116.6805 215.477058,129.344 L209.145308,129.344 C209.876308,125.447125 208.903433,120.824625 207.199558,117.900625 C170.918308,144.68425 128.305308,148.581125 92.0240579,135.923 L92.0240579,167.576375 C74.2435579,173.660875 42.8374329,193.14525 43.0793079,211.89325 C44.2940579,220.90175 48.9219329,224.073 53.3079329,226.507875 Z" fill="#000000"></path>
            <path d="M205.730534,215.510586 C166.525284,235.720586 129.023909,251.549961 70.5869089,253.742961 C-4.65771608,252.275586 -16.3429661,202.116086 19.4491589,149.763586 C53.0482839,96.9273363 106.626284,48.9554613 192.088784,19.0059613 C216.437534,10.4812113 253.213284,0.257961268 288.032534,0.0107112684 C338.433909,-0.473038732 387.373284,15.3509613 384.218159,63.3228363 C382.508909,100.335086 329.188909,152.687586 301.179784,190.188961 C289.000034,206.507461 287.059659,216.972586 307.511534,216.236211 C381.783284,211.377211 449.717909,185.561086 512.057159,158.777461 C470.169784,187.264961 250.541909,296.103336 249.321784,221.842336 C249.563659,212.591961 254.191534,202.605211 261.248909,192.134711 C268.311659,181.664211 278.056534,170.462711 288.037909,159.019336 C302.894409,141.975211 339.895909,101.066086 352.317534,76.4754613 C373.258534,30.2128363 326.259534,27.7725863 285.844909,13.4105863 L268.311659,23.6338363 L278.776784,33.3733363 C219.608784,43.3547113 190.143034,53.0942113 117.091409,78.4212113 L125.374284,99.3622113 L100.536409,124.200086 C100.047284,123.469086 96.1557839,122.985336 88.3620339,118.357461 L88.3620339,159.266586 C55.7357839,173.628586 27.4847839,198.466461 49.6459089,219.649336 C52.0807839,221.600461 55.2466589,223.304336 57.4396589,223.793461 L57.1924089,223.793461 C97.3759089,246.438336 205.972409,215.510586 205.730534,215.510586 Z" fill="#D9783E"></path>
        </g>
    </g>
</svg>