<?xml version="1.0" encoding="UTF-8"?>
<svg width="512px" height="512px" viewBox="0 0 512 512" version="1.1" xmlns="http://www.w3.org/2000/svg" xmlns:xlink="http://www.w3.org/1999/xlink">
    <!-- Generator: Sketch 48.1 (47250) - http://www.bohemiancoding.com/sketch -->
    <title>#BAC</title>
    <desc>Created with Sketch.</desc>
    <defs></defs>
    <g id="Компании-BIG" stroke="none" stroke-width="1" fill="none" fill-rule="evenodd">
        <g id="#BAC" fill-rule="nonzero">
            <g id="bank-of-america-4" transform="translate(0.000000, 65.000000)">
                <path d="M190.533528,144.611285 C205.156621,150.454545 219.779714,156.717868 234,163.808777 C188.457757,182.576104 144.444906,205.044394 102.379959,231 C88.1596724,223.482759 73.5365796,215.978056 58.9134869,209.294671 C101.159333,184.260188 145.034715,162.561129 190.533528,144.611285 Z M136.093633,125 C89.0075142,140.462271 43.4421418,160.441656 0,184.673981 C13.8113769,190.103448 27.6227537,195.526646 41.0313242,201.369906 C82.9338255,175.87712 127.151873,154.633846 173.060275,137.940439 C160.87233,133.344828 148.690488,128.755486 136.093633,125 Z" id="Shape" fill="#2267AD"></path>
                <path d="M473.965687,214.081025 C474.776601,216.506201 476.813032,217.314592 478.837269,217.314592 C480.050592,217.314592 481.276109,217.314592 482.087024,216.506201 C482.59418,215.951622 482.882307,215.232465 482.897938,214.482182 C482.897938,212.865399 481.684615,212.057007 480.050592,212.057007 L477.215441,211.248615 C476.404527,210.84138 475.17901,210.84138 474.368095,210.032989 C473.557181,209.224597 473.154773,208.015048 473.154773,206.799422 C473.154773,203.565855 476.002118,202.356306 478.837269,202.356306 C481.276109,202.356306 483.708852,203.565855 484.519766,206.398265 L482.495529,206.799422 C482.495529,205.17656 480.459098,203.967011 478.434861,203.967011 C477.221538,203.967011 475.185107,204.775403 475.185107,206.392187 C475.185107,208.416205 476.410624,208.817362 478.032452,209.224597 L480.459098,209.625754 C481.684615,210.02691 482.897938,210.434145 483.708852,210.835302 C484.519766,212.050929 484.922175,212.865399 484.922175,214.482182 C484.922175,215.691731 484.519766,217.314592 483.300346,218.122984 C482.087024,218.937454 480.453001,219.338611 478.837269,219.338611 C475.587515,219.338611 473.563278,217.715749 472.349955,214.482182 L473.965687,214.081025 Z M489.793758,218.937454 L488.178026,218.937454 L488.178026,202.757463 L491.007081,202.757463 L496.299363,215.697809 L500.750246,202.757463 L504,202.757463 L504,218.937454 L501.975763,218.937454 L501.975763,204.775403 L496.689577,218.937454 L495.067749,218.937454 L489.793758,204.775403 L489.793758,218.937454 Z M284.851945,142.067301 C247.58272,124.31353 209.059946,109.302986 169.592372,97.1559727 C155.386129,101.197931 141.588393,105.647125 128.193065,110.102397 C168.819436,122.271363 208.440724,137.55483 246.702392,155.816038 C259.286806,150.95961 271.859025,146.516494 284.851945,142.067301 Z M345.32298,124.264448 C307.575836,107.677222 268.206863,93.9224058 228.026976,83 C215.040153,85.4251752 202.461836,88.2575854 189.88352,91.4911524 C229.654901,103.228028 268.609271,117.791236 305.954007,135.594089 C318.934732,131.546052 332.33006,127.504093 345.32298,124.264448 Z M442.718051,156.630508 C347.34112,188.595412 258.055192,234.309053 177.299106,291.358414 C197.590254,303.897603 217.070487,316.844027 236.142215,331 C312.981228,270.300965 397.774302,220.345322 488.171929,182.517279 C473.33788,173.346189 458.176725,164.711648 442.718051,156.630508 Z M376.973024,125.881231 C277.943931,151.77408 185.011937,193.852997 101,249.680653 C119.669319,258.986275 138.338639,268.699132 156.599452,279.214303 C238.989561,222.572178 330.305823,178.068085 427.700894,148.935591 C411.068006,140.851674 394.422924,132.761678 376.973024,125.881231 Z" id="Shape" fill="#CD2E29"></path>
            </g>
        </g>
    </g>
</svg>