<svg width="66" height="11" viewBox="0 0 66 11" fill="none" xmlns="http://www.w3.org/2000/svg">
    <g clip-path="url(#clip0_222:96)">
        <path d="M0 0.0233154H65.9767V10.2398H0V0.0233154Z" fill="#FF0033"/>
        <path d="M25.6925 2.57861C25.2038 2.57861 24.6779 2.67086 24.2776 2.95097C23.8819 3.23117 23.6464 3.70686 23.6464 4.18905C23.6464 5.36197 24.7449 5.61331 25.6757 5.79018C25.8992 5.83337 26.2809 5.89258 26.2809 6.19418C26.2809 6.46694 25.8917 6.49394 25.699 6.49394C25.2606 6.49394 24.9292 6.33569 24.7997 5.89724L23.3941 6.15044L23.4203 6.24911L23.4523 6.34221L23.4872 6.43529L23.525 6.52261L23.5658 6.60694L23.6094 6.68551L23.6588 6.76408L23.7084 6.83678L23.7637 6.9066L23.8189 6.97353L23.9408 7.09548L24.0749 7.20625L24.1447 7.25568L24.2174 7.30222L24.2902 7.34589L24.3687 7.38665L24.4473 7.42446L24.5287 7.45936L24.6101 7.49138L24.6945 7.51754L24.7818 7.54369L24.8692 7.56697L24.9565 7.58736L25.0496 7.60486L25.1397 7.61938L25.2328 7.63102L25.3288 7.63975L25.5177 7.65138H25.6136C26.6376 7.65138 27.8105 7.17849 27.8105 5.9944C27.8105 5.45542 27.5592 4.98904 27.0769 4.7377C26.6468 4.51521 26.1498 4.43888 25.6805 4.34487C25.4944 4.30168 25.137 4.25178 25.137 3.993C25.137 3.7342 25.4218 3.67556 25.6228 3.67556C26.0036 3.67556 26.2773 3.80401 26.4197 4.16986L27.6671 3.79192C27.3656 2.93736 26.5407 2.58176 25.6843 2.58176L25.6925 2.57861ZM36.677 2.57861C36.1892 2.57861 35.6623 2.67086 35.2621 2.95097C34.8673 3.23117 34.6309 3.70686 34.6309 4.18905C34.6309 5.36197 35.7294 5.61331 36.6603 5.79018C36.8827 5.83337 37.2626 5.89258 37.2626 6.19418C37.2626 6.46694 36.8753 6.49394 36.6808 6.49394C36.2432 6.49394 35.9136 6.33569 35.7852 5.89724L34.3795 6.15044L34.4085 6.24911L34.4377 6.34221L34.4726 6.43529L34.5104 6.52261L34.5511 6.60694L34.5948 6.68551L34.6442 6.76408L34.6936 6.83678L34.7489 6.9066L34.8042 6.97353L34.9262 7.09548L35.0603 7.20625L35.1301 7.25568L35.2027 7.30222L35.2754 7.34589L35.354 7.38665L35.4325 7.42446L35.5141 7.45936L35.5955 7.49138L35.6798 7.51754L35.7671 7.54369L35.8544 7.56697L35.9446 7.58736L36.0348 7.60486L36.125 7.61938L36.2182 7.63102L36.314 7.63975L36.503 7.65138H36.6016C37.6164 7.65138 38.7985 7.17849 38.7985 5.9944C38.7985 5.45542 38.5463 4.98904 38.065 4.7377C37.6349 4.51521 37.1378 4.43888 36.6687 4.34487C36.4825 4.30168 36.1213 4.25178 36.1213 3.993C36.1213 3.7342 36.4089 3.67556 36.61 3.67556C36.9908 3.67556 37.2645 3.80401 37.4069 4.16986L38.6543 3.79192C38.3527 2.93736 37.5279 2.58176 36.6716 2.58176L36.677 2.57861ZM60.0424 2.57861C59.5536 2.57861 59.0276 2.67086 58.6273 2.95097C58.2326 3.23117 57.9962 3.70686 57.9962 4.18905C57.9962 5.36197 59.0946 5.61331 60.0255 5.79018C60.249 5.83337 60.6306 5.89258 60.6306 6.19418C60.6306 6.46694 60.2434 6.49394 60.0488 6.49394C59.6113 6.49394 59.2789 6.33569 59.1496 5.89724L57.7532 6.15044L57.7794 6.24911L57.8085 6.34221L57.8434 6.43529L57.8812 6.52261L57.922 6.60694L57.9656 6.68551L58.015 6.76408L58.0644 6.83678L58.1197 6.9066L58.175 6.97353L58.297 7.09548L58.4311 7.20625L58.5009 7.25568L58.5735 7.30222L58.6491 7.34589L58.7248 7.38665L58.8033 7.42446L58.8848 7.45936L58.9662 7.49138L59.0535 7.51754L59.1378 7.54369L59.2251 7.56697L59.3153 7.58736L59.4056 7.60486L59.4958 7.61938L59.5889 7.63102L59.6847 7.63975L59.7807 7.64556L59.8737 7.65138H59.9724C60.9964 7.65138 62.1693 7.17849 62.1693 5.9944C62.1693 5.45542 61.9198 4.98904 61.4394 4.7377C61.0076 4.51521 60.5095 4.43888 60.0432 4.34487C59.856 4.30168 59.4995 4.25178 59.4995 3.993C59.4995 3.7342 59.7871 3.67556 59.9882 3.67556C60.3689 3.67556 60.6407 3.80401 60.7851 4.16986L62.0325 3.79192C61.7308 2.93736 60.9061 2.58176 60.0496 2.58176L60.0424 2.57861ZM4.18896 2.65132V7.57573H6.44171C6.88667 7.57573 7.41914 7.56967 7.80081 7.29645C8.15269 7.04605 8.30442 6.57129 8.30442 6.15146C8.30442 5.56221 7.91811 5.12748 7.35492 5.03439C7.8576 4.90501 8.18713 4.46655 8.18713 3.94525C8.18713 3.54311 7.9935 3.14096 7.66396 2.90266C7.35492 2.68017 6.97604 2.65225 6.60276 2.65225H4.19175L4.18896 2.65132ZM11.2172 2.65132L9.69051 7.57573H10.9193L11.2218 6.6076H12.5344L12.8136 7.57573H14.3589L12.8136 2.65132H11.2218H11.2172ZM15.9554 2.65132V7.57573H19.6604V6.3935H17.4448V5.59665H19.2414V4.4982H17.4448V3.77956H19.6604V2.64388H15.9554V2.65132ZM28.8947 2.65132L30.5518 5.49053V7.57573H32.0132V5.49053L33.5585 2.65132H32.2367L31.41 4.27106L30.549 2.65132H28.892H28.8947ZM40.2516 2.65132V3.83355H41.2849V7.57573H42.7184V3.83355H43.7331V2.65132H40.2516ZM45.3901 2.65132V7.57573H49.0858V6.3935H46.8702V5.59665H48.6669V4.4982H46.8702V3.77956H49.0858V2.64388H45.3901V2.65132ZM50.9475 2.65132V7.57573H52.0832V4.05696L53.0234 7.57573H53.9822L54.8815 4.05696L54.8931 7.57573H56.2988V2.65132H54.3066L53.6317 5.26712L52.9159 2.65132H50.9424H50.9475ZM5.61322 3.70322H6.20061C6.48825 3.70322 6.79079 3.75582 6.79079 4.12213C6.79079 4.23662 6.74137 4.3595 6.64837 4.44514C6.54039 4.54568 6.36724 4.53823 6.22389 4.53823H5.61322V3.70322ZM11.906 4.09885L12.3073 5.53242H11.5011L11.9051 4.09885H11.906ZM5.61322 5.58827H6.20993C6.34583 5.58827 6.51991 5.5906 6.6493 5.65521C6.79266 5.72698 6.88482 5.87676 6.88482 6.04245C6.88482 6.17837 6.81211 6.30682 6.70422 6.38595C6.58228 6.48648 6.41844 6.47904 6.26763 6.47904H5.61322V5.58911V5.58827Z" fill="white"/>
    </g>
    <defs>
        <clipPath id="clip0_222:96">
            <rect width="66" height="10.2513" fill="white"/>
        </clipPath>
    </defs>
</svg>
