<svg width="160" height="40" viewBox="0 0 160 40" fill="none" xmlns="http://www.w3.org/2000/svg">
    <path d="M5.82043 12.7843C6.09288 12.71 6.5387 12.6192 6.81115 12.5779C7.08359 12.5284 7.90093 12.5119 8.62745 12.5366C9.35397 12.5614 10.0392 12.5944 10.1548 12.6109C10.2704 12.6192 10.419 12.6522 10.485 12.677C10.5511 12.7018 10.8153 12.7678 11.063 12.8256C11.3106 12.8751 11.7895 13.032 12.1115 13.1558C12.4417 13.2879 12.7306 13.3705 12.7554 13.3375C12.7802 13.2962 12.7967 13.321 12.7967 13.3787C12.7967 13.4283 12.8462 13.4778 12.8958 13.4778C12.9536 13.4778 13.0526 13.5521 13.1022 13.6429C13.16 13.7338 13.1847 13.8246 13.1434 13.8411C13.1104 13.8576 13.0114 14.1961 12.9205 14.5924C12.7967 15.1538 12.7141 15.3354 12.5903 15.3767C12.4995 15.4097 12.4087 15.4015 12.3839 15.3602C12.3591 15.3189 12.3179 15.2859 12.2766 15.2859C12.2436 15.2941 12.1115 15.2363 11.9711 15.1703C11.8308 15.1042 11.7234 15.0712 11.7234 15.1125C11.7317 15.1455 11.6739 15.1125 11.5996 15.0464C11.5253 14.9804 11.4757 14.9639 11.4757 15.0052C11.4757 15.0464 11.4262 15.0299 11.3519 14.9639C11.2776 14.8978 11.2281 14.8813 11.2281 14.9226C11.2281 14.9639 11.1785 14.9474 11.1042 14.8813C11.0299 14.8153 10.9804 14.7988 10.9804 14.84C10.9886 14.8896 10.9474 14.8896 10.8813 14.8318C10.8235 14.7823 10.6089 14.6997 10.4025 14.6584C10.1961 14.6089 9.97317 14.5676 9.90712 14.5593C9.84107 14.5593 9.57688 14.5181 9.32921 14.4768C9.08153 14.4355 8.58617 14.3942 8.23117 14.3942C7.88442 14.386 7.3065 14.4438 6.95975 14.5098C6.60475 14.5841 6.27451 14.6667 6.23323 14.7162C6.19195 14.7575 6.10114 14.774 6.0516 14.7492C5.99381 14.7327 5.94427 14.7575 5.94427 14.7988C5.94427 14.84 5.91951 14.8731 5.88648 14.8648C5.8452 14.8483 5.68834 14.8978 5.53148 14.9556C5.37461 15.0217 5.0031 15.2281 4.70588 15.4262C4.40867 15.6161 4.02064 15.9298 3.83901 16.1115C3.65738 16.3013 3.5418 16.45 3.57482 16.45C3.6161 16.45 3.5418 16.5573 3.4097 16.6811C3.28586 16.805 3.03818 17.193 2.87306 17.5315C2.70795 17.8617 2.5098 18.3818 2.4355 18.6791C2.3612 18.9763 2.27864 19.5129 2.25387 19.8762C2.2291 20.2394 2.25387 20.8091 2.30341 21.1311C2.35294 21.4613 2.47678 21.9732 2.58411 22.2704C2.68318 22.5676 2.79051 22.807 2.83179 22.807C2.86481 22.807 2.87306 22.84 2.8483 22.8896C2.82353 22.9391 2.85655 23.0217 2.91434 23.0795C2.96388 23.1373 3.08772 23.3106 3.17028 23.4675C3.26109 23.6244 3.42621 23.8803 3.5418 24.0372C3.65738 24.194 3.99587 24.516 4.29309 24.7554C4.5903 25.0031 4.85449 25.1765 4.89577 25.16C4.92879 25.1352 4.95356 25.1517 4.95356 25.2012C4.95356 25.2508 5.15996 25.3746 5.40764 25.4902C5.65531 25.6058 5.92776 25.7131 6.01032 25.7214C6.08462 25.7379 6.24974 25.7957 6.38184 25.8452C6.50568 25.903 6.87719 25.9856 7.19917 26.0351C7.53767 26.0929 8.16512 26.1094 8.62745 26.0846C9.08153 26.0599 9.73375 25.9773 10.0722 25.903C10.4107 25.837 10.7822 25.7461 10.8978 25.7049C11.0134 25.6636 11.1785 25.6058 11.2694 25.5645C11.3602 25.5315 11.4675 25.4985 11.517 25.4819C11.5666 25.4737 11.8308 25.3746 12.1115 25.2673C12.4527 25.1407 12.6508 25.1049 12.7059 25.16C12.7554 25.2095 12.8545 25.5397 12.9288 25.903C13.0031 26.2663 13.1022 26.613 13.16 26.6708C13.226 26.7534 13.2095 26.8029 13.0857 26.8937C12.9948 26.9598 12.7967 27.0588 12.6481 27.1166C12.4995 27.1744 12.3839 27.257 12.3839 27.3065C12.3839 27.356 12.3591 27.3643 12.3261 27.3313C12.2848 27.2983 12.0537 27.3478 11.806 27.4386C11.5583 27.5294 11.0877 27.6615 10.774 27.7276C10.4603 27.7936 9.88235 27.8927 9.49432 27.9422C9.1063 27.9918 8.52838 28.033 8.21465 28.033C7.90093 28.0248 7.33953 27.9835 6.97626 27.934C6.613 27.8844 6.0516 27.7688 5.73787 27.6863C5.42415 27.5955 5.13519 27.5377 5.09391 27.5624C5.06089 27.579 5.03612 27.5624 5.03612 27.5129C5.03612 27.4634 4.98658 27.4303 4.92879 27.4303C4.87926 27.4303 4.59856 27.323 4.3096 27.1827C4.0289 27.0506 3.75645 26.935 3.71517 26.935C3.67389 26.935 3.62436 26.9102 3.60784 26.8689C3.59959 26.8359 3.36017 26.6378 3.07121 26.4231C2.79051 26.2002 2.53457 26.0268 2.49329 26.0268C2.46027 26.0186 2.21259 25.7461 1.94014 25.4076C1.6677 25.0692 1.42002 24.7884 1.37874 24.7884C1.34572 24.7884 1.33746 24.7554 1.36223 24.7059C1.387 24.6564 1.35397 24.6068 1.29618 24.5821C1.24665 24.5655 1.17234 24.45 1.13106 24.3344C1.09804 24.2188 1.03199 24.128 0.990712 24.128C0.941176 24.128 0.924665 24.095 0.949432 24.0454C0.9742 23.9959 0.932921 23.9051 0.866873 23.839C0.800826 23.773 0.759546 23.7152 0.784314 23.7152C0.809082 23.7152 0.776058 23.6161 0.71001 23.484C0.652219 23.3602 0.536636 23.0547 0.470588 22.807C0.396285 22.5593 0.297214 22.0888 0.247678 21.775C0.198142 21.4613 0.115583 21.065 0.0743034 20.9082C0.0330237 20.7513 0 20.4789 0 20.3055C0 20.1404 0.0330237 19.8431 0.0743034 19.645C0.115583 19.4551 0.198142 19.0341 0.247678 18.7203C0.297214 18.4066 0.346749 18.0846 0.363261 18.0186C0.371517 17.9525 0.462332 17.6718 0.569659 17.3994C0.676987 17.1269 0.850361 16.7307 0.957688 16.5077C1.06502 16.2931 1.14757 16.1032 1.13106 16.0784C1.12281 16.0619 1.18885 15.9876 1.27967 15.9216C1.37049 15.8473 1.42002 15.7895 1.37874 15.7895C1.34572 15.7895 1.44479 15.6491 1.60165 15.4758C1.75851 15.3106 1.8741 15.1538 1.85759 15.129C1.83282 15.1042 2.06398 14.8896 2.35294 14.6502C2.65015 14.419 2.88958 14.1796 2.88958 14.1383C2.88958 14.097 2.91434 14.064 2.94737 14.0722C2.98865 14.0888 3.17853 13.9814 3.38493 13.8411C3.59133 13.7007 3.95459 13.4861 4.18576 13.3622C4.42518 13.2467 4.64809 13.1476 4.68111 13.1393C4.72239 13.1311 4.82147 13.0898 4.91228 13.0403C5.0031 12.9907 5.13519 12.9412 5.20124 12.9329C5.26729 12.9247 5.54799 12.8586 5.82043 12.7843Z" fill="black"/>
    <path d="M150.299 13.1806C150.39 13.0072 150.596 12.7761 150.753 12.6687L151.042 12.4789L153.478 12.5119C155.69 12.5366 155.971 12.5614 156.533 12.7265C156.871 12.8256 157.333 12.999 157.564 13.1228C157.787 13.2384 158.101 13.42 158.241 13.5274C158.39 13.6347 158.539 13.7255 158.572 13.7255C158.613 13.7255 158.712 13.8246 158.803 13.9402C158.894 14.0557 159.034 14.2209 159.108 14.3117C159.191 14.3942 159.232 14.4685 159.191 14.4685C159.158 14.4685 159.207 14.5263 159.298 14.6006C159.389 14.6667 159.455 14.7492 159.447 14.7823C159.43 14.8153 159.439 14.9061 159.463 14.9804C159.488 15.063 159.546 15.129 159.587 15.129C159.628 15.129 159.653 15.1538 159.637 15.1868C159.62 15.2281 159.645 15.3437 159.695 15.4592C159.736 15.5748 159.794 15.8142 159.81 15.9959C159.827 16.1775 159.884 16.3591 159.926 16.4087C159.967 16.45 160 16.7637 160 17.0857C160 17.4407 159.959 17.7131 159.909 17.7461C159.86 17.7874 159.827 17.9113 159.843 18.0351C159.86 18.1589 159.851 18.2663 159.81 18.2663C159.777 18.2663 159.736 18.3901 159.711 18.5305C159.686 18.6791 159.579 19.001 159.463 19.2322C159.348 19.4716 159.265 19.678 159.273 19.6945C159.29 19.7028 159.018 20 158.679 20.3633C158.341 20.7183 157.837 21.1393 157.564 21.3044C157.292 21.4696 157.053 21.6347 157.028 21.676C157.003 21.7172 156.945 21.7503 156.904 21.7503C156.863 21.7585 156.722 21.7915 156.59 21.8246C156.466 21.8658 156.367 21.9319 156.367 21.9814C156.367 22.0227 156.343 22.0557 156.301 22.0557C156.268 22.0475 156.12 22.0722 155.963 22.1135C155.814 22.1548 155.674 22.2126 155.657 22.2456C155.641 22.2869 155.542 22.2869 155.434 22.2621C155.335 22.2291 155.195 22.1466 155.121 22.0722C155.046 21.9979 154.964 21.8576 154.939 21.7503C154.906 21.6512 154.84 21.5686 154.799 21.5686C154.757 21.5686 154.716 21.5108 154.716 21.4448C154.716 21.3787 154.675 21.321 154.634 21.321C154.592 21.321 154.559 21.2962 154.568 21.2549C154.576 21.2219 154.543 21.1146 154.485 21.0072C154.411 20.8669 154.411 20.8008 154.485 20.7183C154.543 20.6522 154.642 20.6192 154.691 20.6357C154.749 20.6522 154.799 20.6192 154.799 20.5779C154.799 20.5284 154.84 20.5119 154.881 20.5366C154.923 20.5614 155.286 20.4128 155.682 20.2147C156.087 20.0083 156.582 19.6863 156.805 19.4881C157.02 19.29 157.168 19.1001 157.135 19.0671C157.094 19.0341 157.119 19.0093 157.168 19.0093C157.226 19.0093 157.375 18.7946 157.49 18.5305C157.655 18.192 157.721 17.8782 157.754 17.3994C157.779 16.904 157.754 16.6151 157.639 16.2436C157.523 15.872 157.391 15.6491 157.094 15.3519C156.871 15.1373 156.656 14.9804 156.615 15.0052C156.574 15.0299 156.533 15.0052 156.533 14.9639C156.533 14.9144 156.491 14.8978 156.45 14.9226C156.409 14.9474 156.359 14.9309 156.343 14.8813C156.334 14.84 156.252 14.7905 156.161 14.774C156.07 14.7657 155.938 14.7245 155.872 14.6832C155.806 14.6419 155.583 14.5924 155.377 14.5676C155.17 14.5428 154.576 14.5098 154.056 14.4933C153.536 14.4768 153.049 14.485 152.982 14.5181C152.916 14.5511 152.834 14.5676 152.793 14.5676C152.76 14.5593 152.735 14.6171 152.735 14.6914C152.735 14.7988 152.718 14.807 152.669 14.7327C152.627 14.6502 152.57 14.6749 152.462 14.8318C152.33 15.0299 152.322 15.4923 152.322 28.0083H150.175L150.151 20.7513C150.134 13.6347 150.134 13.4943 150.299 13.1806Z" fill="black"/>
    <path d="M112.396 14.2209C112.459 14.1508 113.172 13.5521 113.981 12.7348C114.799 11.9257 115.509 11.257 115.567 11.2487C115.616 11.2487 116.021 11.6037 116.45 12.033C116.945 12.5284 117.21 12.8504 117.177 12.9164C117.127 12.9825 117.16 12.999 117.3 12.9577C117.399 12.9247 117.482 12.9329 117.482 12.9825C117.482 13.032 118.192 13.7833 119.051 14.6502C119.918 15.5253 120.727 16.3509 120.859 16.4912C120.983 16.6316 121.156 16.7967 121.222 16.8628C121.296 16.9288 121.494 17.1187 121.66 17.2755C121.833 17.4324 122.237 17.837 122.576 18.1589C122.906 18.4892 123.179 18.7781 123.179 18.8029C123.179 18.8277 123.104 18.8607 123.013 18.8855C122.923 18.9102 122.832 18.902 122.815 18.8607C122.799 18.8277 122.378 18.8112 121.882 18.8194C121.395 18.8277 121.04 18.8194 121.098 18.7946C121.148 18.7781 121.197 18.7203 121.197 18.6791C121.197 18.6378 121.131 18.5965 121.057 18.5965C120.974 18.6048 120.85 18.5387 120.784 18.4644C120.685 18.3571 120.57 18.3406 119.835 18.4149L118.142 16.7389C116.83 15.4427 116.376 15.0464 116.12 14.9639C115.93 14.9061 115.616 14.8813 115.377 14.9061C115.096 14.9391 114.848 15.0299 114.617 15.2033C114.419 15.3437 114.246 15.418 114.221 15.3767C114.196 15.3354 114.229 15.2776 114.287 15.2611C114.337 15.2363 114.287 15.2198 114.163 15.2198C114.031 15.2116 113.932 15.162 113.932 15.1042C113.932 15.0299 113.849 15.0217 113.602 15.063C113.42 15.1042 113.271 15.1125 113.271 15.0877C113.271 15.063 113.329 14.9887 113.395 14.9226C113.461 14.8566 113.519 14.7492 113.519 14.6997C113.519 14.6171 113.379 14.6089 112.916 14.6584C112.594 14.6997 112.256 14.7657 112.182 14.807C112.083 14.8566 112.017 14.8483 111.992 14.7988C111.967 14.7575 111.992 14.6997 112.033 14.6749C112.083 14.6502 112.033 14.6667 112.074 14.5511L112.074 14.5511C112.116 14.5098 112.322 14.3034 112.396 14.2209Z" fill="#A66EA0"/>
    <path d="M110.423 16.2023C110.374 16.2023 110.745 15.7977 111.24 15.2941C111.736 14.7988 112.165 14.4107 112.19 14.4273C112.322 14.3034 112.57 14.3117 112.487 14.386C112.413 14.4685 112.372 14.5181 112.405 14.5511C112.446 14.5841 112.132 14.84 112.198 14.7988C112.264 14.7575 112.594 14.6997 112.916 14.6584C113.379 14.6089 113.519 14.6171 113.519 14.6997C113.519 14.7492 113.461 14.8566 113.395 14.9226C113.329 14.9887 113.271 15.063 113.271 15.0877C113.271 15.1125 113.42 15.0795 113.602 15.0464C113.849 14.9969 113.932 15.0299 113.932 15.1125C113.932 15.162 114.031 15.2116 114.155 15.2198C114.287 15.2198 114.444 15.1868 114.386 15.2116C114.336 15.2281 114.402 15.2363 114.427 15.2941C114.452 15.3437 113.75 16.0124 113.106 16.6564C112.198 17.5645 111.95 17.7709 111.95 17.6306C111.95 17.5067 112.025 17.3994 112.157 17.3416C112.305 17.2673 112.363 17.1682 112.363 17.0114C112.363 16.8793 112.305 16.7637 112.239 16.7389C112.173 16.7141 112.008 16.6976 111.868 16.6976C111.728 16.6976 111.62 16.6564 111.62 16.6151C111.62 16.5738 111.488 16.5325 111.331 16.5325C111.174 16.5325 111.026 16.5738 111.001 16.6151C110.974 16.6701 110.905 16.6701 110.795 16.6151C110.704 16.5738 110.63 16.4912 110.63 16.45C110.63 16.4087 110.696 16.3591 110.77 16.3509C110.869 16.3344 110.918 16.2353 110.952 15.7482L110.729 15.9711C110.605 16.0949 110.464 16.2023 110.423 16.2023Z" fill="#9584A4"/>
    <path d="M120.116 18.7038C119.926 18.5304 119.711 18.3075 119.794 18.2663C119.851 18.2332 120.215 18.3488 120.372 18.3488C120.537 18.3406 120.859 18.3313 120.925 18.4056C120.991 18.4799 120.974 18.6048 121.049 18.5965C121.131 18.5965 121.197 18.6378 121.197 18.6791C121.197 18.7286 121.47 18.8029 121.321 18.8442C121.181 18.8937 120.594 18.9267 120.512 18.9267C120.438 18.9267 120.256 18.8277 120.116 18.7038Z" fill="#9584A4"/>
    <path d="M107.616 18.9267L108.425 18.1177L108.425 18.1176C108.871 17.6718 109.383 17.16 109.474 17.1517C109.573 17.1435 109.697 17.3003 109.721 17.3994C109.754 17.5232 109.705 17.6058 109.911 17.6058C110.06 17.6058 110.258 17.6718 110.365 17.7709C110.465 17.8617 110.605 17.936 110.671 17.936C110.737 17.936 110.844 18.0103 110.902 18.1011C110.952 18.192 111.051 18.2663 111.108 18.2663C111.158 18.2663 111.208 18.291 111.208 18.3241C111.216 18.3653 111.141 18.4644 111.051 18.5552C110.952 18.646 111.001 18.6791 110.919 18.7781C110.943 18.8194 110.902 18.8607 110.836 18.8855C110.77 18.9102 110.019 18.9267 107.616 18.9267Z" fill="#899BAF"/>
    <path fill-rule="evenodd" clip-rule="evenodd" d="M115.583 11.001C115.608 11.001 117.391 12.7678 119.546 14.9226C121.701 17.0857 123.484 18.8689 123.509 18.8937C123.533 18.9102 123.401 18.9267 123.22 18.9185C123.038 18.9102 122.888 18.8951 122.962 18.8786C123.045 18.8621 123.178 18.8277 123.178 18.8029C123.178 18.7781 122.906 18.4892 122.576 18.1589C122.237 17.837 121.833 17.4324 121.659 17.2755C121.494 17.1187 121.296 16.9288 121.222 16.8628C121.156 16.7967 120.982 16.6316 120.859 16.4912C120.726 16.3509 119.917 15.5253 119.05 14.6502C118.192 13.7833 117.482 13.0237 117.482 12.9825C117.482 12.9329 117.399 12.9247 117.292 12.9577C117.16 12.999 117.127 12.9825 117.168 12.9164C117.209 12.8504 116.945 12.5284 116.45 12.033C116.021 11.6037 115.624 11.2487 115.575 11.2487C115.525 11.2487 114.815 11.9174 113.998 12.7348C113.18 13.5521 112.47 14.2209 112.413 14.2209C112.363 14.2209 113.048 13.4943 113.932 12.6109C114.815 11.7276 115.558 11.001 115.583 11.001ZM122.369 18.7946C122.576 18.8029 122.931 18.8442 122.972 18.8855C123.005 18.9185 122.411 18.9267 121.816 18.9102C120.537 18.9267 120.099 18.8937 120.66 18.8442C120.991 18.7203 122.155 18.7946 122.369 18.7946Z" fill="#9C6E97"/>
    <path d="M110.423 16.2023C110.464 16.2023 110.597 16.1115 110.704 15.9959C110.811 15.8803 111.034 15.6656 111.042 15.6656C111.051 15.6656 110.935 15.9133 110.927 16.0619C110.919 16.2436 110.869 16.3344 110.77 16.3509C110.696 16.3591 110.63 16.4087 110.63 16.45C110.63 16.4912 110.704 16.5738 110.795 16.6151C110.905 16.6701 110.974 16.6701 111.001 16.6151C111.026 16.5738 111.174 16.5325 111.331 16.5325C111.488 16.5325 111.62 16.5738 111.62 16.6151C111.62 16.6564 111.728 16.6976 111.868 16.6976C112 16.6976 112.173 16.7142 112.239 16.7389C112.305 16.7637 112.363 16.8793 112.363 17.0114C112.363 17.1682 112.305 17.2673 112.157 17.3416C112.025 17.3994 112.074 17.4489 112.074 17.5645C112.074 17.6884 111.769 17.9938 111.455 18.3075C111.183 18.58 110.943 18.7864 110.919 18.7616C110.894 18.7369 110.952 18.646 111.042 18.5552C111.133 18.4644 111.216 18.3653 111.207 18.3323C111.207 18.291 111.158 18.2663 111.1 18.2663C111.051 18.2663 110.952 18.192 110.894 18.1012C110.844 18.0103 110.737 17.936 110.671 17.936C110.605 17.936 110.464 17.8617 110.357 17.7709C110.258 17.6718 110.06 17.6058 109.903 17.6058C109.697 17.6058 109.631 17.5645 109.606 17.4242C109.581 17.2838 109.532 17.2508 109.441 17.3003C109.366 17.3333 109.309 17.3333 109.309 17.3003C109.309 17.259 109.54 17.0031 109.82 16.7224C110.101 16.4335 110.374 16.2023 110.423 16.2023Z" fill="#948DAC"/>
    <path fill-rule="evenodd" clip-rule="evenodd" d="M23.8349 12.4624C25.2796 12.4789 26.163 12.5201 26.5841 12.6027C26.9226 12.6688 27.3684 12.7761 27.5748 12.8339C27.7812 12.8917 27.9628 12.9577 27.9876 12.9907C28.0124 13.0155 28.2105 13.1228 28.4417 13.2384C28.6646 13.3457 29.0361 13.6264 29.2673 13.8576C29.4902 14.0888 29.7626 14.386 29.8699 14.5181C29.9773 14.6502 30.1341 14.9556 30.225 15.1951C30.3075 15.4262 30.4231 15.7812 30.4644 15.9794C30.5139 16.1693 30.5552 16.6564 30.5552 17.0692C30.5634 17.482 30.5387 17.87 30.5057 17.936C30.4726 18.0021 30.4726 18.1259 30.4974 18.2085C30.5222 18.2828 30.5139 18.3571 30.4726 18.3736C30.4231 18.3819 30.3818 18.4809 30.3653 18.5965C30.3488 18.7121 30.291 18.8772 30.2332 18.968C30.1837 19.0588 30.1672 19.1579 30.2002 19.1992C30.2332 19.2322 30.2084 19.257 30.1589 19.257C30.1011 19.257 30.0681 19.2983 30.0929 19.3395C30.1176 19.3808 30.1094 19.4304 30.0763 19.4469C30.0351 19.4551 29.8617 19.6863 29.6801 19.9587C29.4984 20.2312 29.292 20.5201 29.226 20.5944C29.1599 20.677 29.0774 20.7431 29.0444 20.7431C29.0031 20.7431 28.8214 20.8669 28.6316 21.0155C28.4334 21.1559 28.26 21.3045 28.2353 21.3292C28.2105 21.354 28.1197 21.4035 28.0289 21.4366C27.9381 21.4696 27.8968 21.5191 27.9463 21.5521C27.9959 21.5852 28.0784 21.6842 28.1362 21.775C28.1857 21.8659 28.2766 22.0227 28.3178 22.1301C28.3674 22.2291 28.6233 22.6749 28.904 23.1208C29.1847 23.5583 29.4406 23.9298 29.4819 23.9464C29.5232 23.9546 29.5562 24.0207 29.5562 24.0867C29.5562 24.1528 29.5975 24.2105 29.6388 24.2105C29.6883 24.2105 29.7131 24.2436 29.7048 24.2848C29.6883 24.3261 29.8699 24.6481 30.1011 25.0031C30.3323 25.3664 30.5965 25.7792 30.679 25.9278C30.7616 26.0764 30.8689 26.192 30.9102 26.192C30.9515 26.192 30.9597 26.2167 30.935 26.258C30.9019 26.291 30.9597 26.4231 31.0588 26.5635C31.1579 26.7038 31.2817 26.8359 31.3312 26.869C31.3725 26.902 31.389 26.935 31.356 26.935C31.3147 26.935 31.3725 27.0588 31.4716 27.2075C31.5707 27.3478 31.6945 27.4964 31.744 27.5294C31.7853 27.5625 31.8018 27.5955 31.7688 27.5955C31.7275 27.5955 31.7688 27.6945 31.9917 28.0165L29.4406 27.967L28.8792 27.0588C28.5738 26.5552 28.26 26.0846 28.194 26.0103C28.1279 25.9278 28.0702 25.8287 28.0702 25.7792C28.0702 25.7296 28.0371 25.6966 27.9876 25.6966C27.9463 25.6966 27.9215 25.6718 27.9463 25.6388C27.9628 25.5975 27.9133 25.4902 27.8225 25.3911C27.7317 25.2838 27.6574 25.1682 27.6574 25.1187C27.6574 25.0692 27.6243 25.0361 27.5748 25.0361C27.5335 25.0361 27.5087 25.0114 27.5335 24.9783C27.55 24.9371 27.5005 24.8297 27.4097 24.7307C27.3189 24.6233 27.2446 24.5078 27.2446 24.4582C27.2446 24.4087 27.2115 24.3757 27.162 24.3757C27.1207 24.3757 27.096 24.3509 27.1207 24.3179C27.1372 24.2766 27.0877 24.1693 26.9969 24.0702C26.9061 23.9629 26.8483 23.8803 26.873 23.8803C26.8978 23.8803 26.8318 23.7565 26.7327 23.6161C26.6336 23.4675 26.5098 23.3189 26.4602 23.2859C26.419 23.2529 26.4025 23.2198 26.4437 23.2198C26.4768 23.2198 26.4025 23.063 26.2786 22.8731C26.1465 22.6749 26.0227 22.5098 25.9897 22.5016C25.9484 22.4851 25.9236 22.419 25.9236 22.353C25.9236 22.2869 25.8906 22.2291 25.8411 22.2291C25.7998 22.2291 25.7585 22.1796 25.7585 22.1301C25.7585 22.0723 25.5934 21.775 25.387 21.4696C25.1806 21.1559 25.0155 20.8834 25.0155 20.8504C25.0155 20.8091 25.1723 20.71 25.3622 20.6275C25.5603 20.5449 25.7337 20.4624 25.7585 20.4624C25.7833 20.4541 25.9401 20.4046 26.1135 20.3468C26.2786 20.289 26.419 20.2147 26.419 20.1651C26.419 20.1239 26.5098 20.0661 26.6254 20.0413C26.7409 20.0165 26.8318 19.967 26.8318 19.9175C26.8318 19.8762 26.8896 19.8349 26.9556 19.8349C27.0216 19.8349 27.0794 19.8019 27.0794 19.7523C27.0794 19.7111 27.129 19.6698 27.1868 19.6698C27.2363 19.6698 27.4014 19.5542 27.5335 19.4138C27.6656 19.2735 27.8225 19.0919 27.8638 19.0093C27.9133 18.935 28.0371 18.7038 28.1445 18.5057C28.3096 18.2085 28.3591 17.9938 28.3839 17.3581C28.4004 16.8463 28.3756 16.4912 28.3096 16.3261C28.2518 16.194 28.194 16.0537 28.1775 16.0207C28.1692 15.9794 28.1527 15.9216 28.1527 15.8721C28.1527 15.8308 28.0041 15.6244 27.8225 15.418C27.6408 15.2116 27.4592 15.063 27.4097 15.0877C27.3684 15.1125 27.3271 15.096 27.3271 15.0465C27.3271 15.0052 27.2446 14.9391 27.1455 14.9061C27.0382 14.8731 26.9391 14.8401 26.9143 14.8401C26.8896 14.8318 26.774 14.7823 26.6501 14.7327C26.518 14.6749 26.1465 14.5924 25.8245 14.5428C25.4943 14.4933 24.8173 14.4685 23.4386 14.5098L22.9432 15.0877L22.9515 28.0083H20.8049L20.8462 13.1889L21.0361 12.999C21.1352 12.8999 21.2177 12.7843 21.2177 12.7348C21.2177 12.6935 21.2425 12.6688 21.2838 12.6853C21.3168 12.71 21.4241 12.6605 21.5232 12.5862C21.6883 12.4624 21.9608 12.4458 23.8349 12.4624ZM97.42 12.5449C97.8988 12.6027 98.4933 12.6935 98.741 12.7431C98.9886 12.8008 99.2528 12.8504 99.3189 12.8586C99.3849 12.8669 99.5418 12.9164 99.6739 12.9742C99.7977 13.0238 99.9215 13.065 99.9628 13.065C99.9958 13.065 100.277 13.1889 100.582 13.3375C100.912 13.4943 101.143 13.6512 101.135 13.7255C101.135 13.7916 101.053 14.2044 100.954 14.6419C100.764 15.4262 100.764 15.4427 100.557 15.3767C100.442 15.3354 100.12 15.2116 99.839 15.096C99.55 14.9804 98.9226 14.7823 98.4355 14.6584C97.6842 14.4768 97.354 14.4355 96.3467 14.4355C95.3478 14.4273 95.034 14.4603 94.4726 14.6172C94.0929 14.7162 93.7874 14.8401 93.7874 14.8813C93.7874 14.9309 93.7626 14.9556 93.7296 14.9474C93.6883 14.9309 93.5397 14.9804 93.3911 15.0465C93.2425 15.1125 93.1269 15.2116 93.1269 15.2529C93.1269 15.3024 93.1021 15.3106 93.0691 15.2776C93.0278 15.2446 92.8957 15.2941 92.7554 15.3932C92.615 15.484 92.2353 15.839 91.9133 16.1693C91.5831 16.5078 91.3106 16.8215 91.3106 16.8628C91.3106 16.9123 91.2363 17.0279 91.1455 17.1352C91.0547 17.2343 91.0051 17.3416 91.0217 17.3829C91.0464 17.4159 91.0299 17.4407 90.9804 17.4407C90.9391 17.4407 90.9061 17.4654 90.9143 17.5067C90.9226 17.5398 90.8648 17.6884 90.7905 17.837C90.7162 17.9773 90.6749 18.1012 90.7162 18.1012C90.7492 18.0929 90.7327 18.1424 90.6749 18.2002C90.6254 18.258 90.518 18.547 90.4437 18.8442C90.3364 19.2652 90.3116 19.6202 90.3447 20.4954C90.3777 21.387 90.419 21.7255 90.5758 22.1713C90.6832 22.4768 90.7987 22.7245 90.84 22.7245C90.873 22.7245 90.8813 22.7575 90.8565 22.807C90.8318 22.8566 90.8565 22.8896 90.8978 22.8896C90.9473 22.8896 90.9804 22.9474 90.9804 23.0134C90.9804 23.0795 91.0712 23.2776 91.1703 23.451C91.2776 23.6161 91.6078 24.0124 91.8968 24.3179C92.1857 24.6316 92.615 24.9949 92.838 25.1352C93.0691 25.2756 93.3003 25.3994 93.3581 25.3994C93.4076 25.4077 93.4572 25.4242 93.4572 25.4489C93.4572 25.4737 93.548 25.5398 93.6636 25.5975C93.7791 25.6471 94.1589 25.7709 94.5139 25.87C94.8607 25.9608 95.4881 26.0599 95.8927 26.0846C96.3055 26.1094 96.9494 26.0846 97.3374 26.0351C97.7255 25.9773 98.3364 25.8617 98.6997 25.7627C99.0629 25.6718 99.4344 25.548 99.5253 25.5067C99.6161 25.4572 99.7647 25.3994 99.8555 25.3911C99.9463 25.3746 100.037 25.3334 100.062 25.3003C100.087 25.2673 100.161 25.226 100.227 25.2095C100.293 25.193 100.442 25.16 100.557 25.1352C100.755 25.1022 100.772 25.1352 100.954 25.8535C101.053 26.2663 101.135 26.6708 101.135 26.7534C101.143 26.8524 100.962 26.9763 100.557 27.1662C100.244 27.3065 99.9215 27.4304 99.8555 27.4304C99.7895 27.4304 99.7317 27.4551 99.7317 27.4964C99.7317 27.5294 99.6408 27.5625 99.5253 27.579C99.4097 27.5872 99.2693 27.6202 99.2198 27.6533C99.162 27.6863 99.0547 27.7193 98.9886 27.7276C98.9226 27.7358 98.5346 27.7854 98.1217 27.8349C97.7172 27.8927 97.1971 27.9753 96.9659 28.0248C96.743 28.0661 96.3467 28.0908 96.0991 28.0661C95.8514 28.0413 95.3478 27.9753 94.9845 27.9257C94.6212 27.8844 94.0433 27.7606 93.7048 27.6698C93.3663 27.5707 93.0526 27.4882 93.0031 27.4799C92.9618 27.4716 92.6893 27.3395 92.4086 27.1992C92.1197 27.0506 91.8885 26.9598 91.8885 27.0011C91.8885 27.0341 91.8555 27.0176 91.8225 26.968C91.7895 26.9185 91.5583 26.7451 91.3106 26.5883C91.0629 26.4231 90.6088 26.0351 90.3034 25.7214C89.9897 25.4159 89.5934 24.9453 89.4117 24.6894C89.2301 24.4252 89.0815 24.1775 89.0815 24.128C89.0815 24.0785 89.032 23.9959 88.9824 23.9464C88.9246 23.8886 88.8091 23.6574 88.7182 23.4262C88.6357 23.2033 88.4953 22.7327 88.4045 22.3942C88.2972 21.9897 88.2311 21.3705 88.1981 20.5779C88.1651 19.645 88.1816 19.2157 88.2972 18.6378C88.3715 18.2333 88.5284 17.6636 88.6357 17.3829C88.743 17.0939 88.8091 16.8628 88.776 16.8628C88.7348 16.8628 88.7513 16.8297 88.8008 16.7967C88.8421 16.7637 89.032 16.483 89.2053 16.161C89.3787 15.8473 89.8163 15.2859 90.163 14.9226C90.5098 14.5594 90.9556 14.1548 91.1537 14.0227C91.3519 13.8824 91.5583 13.7338 91.5996 13.6842C91.6491 13.6347 91.8472 13.5274 92.0536 13.4366C92.26 13.3457 92.4417 13.2549 92.4664 13.2302C92.4912 13.2054 92.8957 13.065 93.3746 12.9164C93.8534 12.7678 94.4314 12.6275 94.6543 12.6027C94.8854 12.5779 95.4055 12.5284 95.8101 12.5036C96.2559 12.4706 96.8999 12.4871 97.42 12.5449ZM47.7193 12.4871V14.4685H45.226C43.129 14.4685 42.6914 14.4851 42.5428 14.5924C42.4355 14.6584 42.3529 14.6997 42.3529 14.6749C42.3529 14.6502 42.2786 14.6749 42.1878 14.7162C42.097 14.7658 41.9484 14.9226 41.8658 15.0712C41.775 15.2116 41.7172 15.3602 41.742 15.4015C41.7585 15.4345 41.742 15.4593 41.6924 15.4593C41.6429 15.4593 41.6099 16.1032 41.6099 19.0093H46.9762L47.0175 19.1992C47.0423 19.2983 47.0588 19.678 47.0588 20.0413C47.0588 20.4046 47.0423 20.7843 46.9762 21.0733H41.6099V22.9969C41.6099 24.0454 41.6347 24.9453 41.6677 24.9783C41.6677 25.0671 41.6759 25.1187 41.6924 25.16C41.7007 25.2013 41.7337 25.2425 41.775 25.2838C41.775 25.3334 41.8988 25.482 42.0474 25.6141C42.1878 25.7544 42.4437 25.903 42.6006 25.9443C42.7575 25.9938 43.9793 26.0269 47.7193 26.0269V28.0083L40.1568 27.967L39.8927 27.678C39.7523 27.5212 39.5954 27.257 39.5459 27.1001C39.4964 26.9102 39.4716 24.4335 39.4881 20.0826C39.5046 13.7503 39.5129 13.3375 39.6532 13.1063C39.7358 12.9742 39.9257 12.7761 40.066 12.677C40.3302 12.4954 40.3632 12.4954 47.7193 12.4871ZM60.3096 12.5119C63.6615 12.5449 63.7028 12.5449 64.355 12.7596C64.7182 12.8751 65.1145 13.0072 65.2466 13.0568C65.3705 13.1063 65.4695 13.1228 65.4695 13.0898C65.4695 13.0485 65.5026 13.065 65.5356 13.1063C65.5686 13.1559 65.7337 13.2632 65.8988 13.354C66.064 13.4448 66.2291 13.5026 66.2704 13.4943C66.3034 13.4778 66.3529 13.4943 66.3777 13.5356C66.4025 13.5769 66.6914 13.8081 67.0299 14.0557C67.3684 14.3034 67.8472 14.7492 68.0949 15.0465C68.3343 15.3437 68.582 15.6409 68.6398 15.7069C68.6894 15.773 68.7884 15.9546 68.8545 16.1032C68.9205 16.2518 69.0031 16.3757 69.0444 16.3674C69.0774 16.3674 69.0856 16.4087 69.0609 16.45C69.0361 16.4995 69.0609 16.5325 69.1021 16.5325C69.1517 16.5325 69.2012 16.6316 69.2177 16.7637C69.2342 16.8875 69.3251 17.193 69.4159 17.4407C69.5067 17.6884 69.647 18.3076 69.7213 18.8029C69.8287 19.4882 69.8534 19.9422 69.8122 20.6605C69.7791 21.1806 69.7048 21.8493 69.6388 22.1466C69.581 22.4438 69.5232 22.6997 69.5067 22.7245C69.4984 22.7492 69.4737 22.8235 69.4571 22.8896C69.4324 22.9556 69.3663 23.1455 69.3003 23.3024C69.2425 23.4593 69.2177 23.6161 69.2508 23.6574C69.2838 23.6904 69.259 23.7152 69.2095 23.7152C69.1517 23.7152 69.1187 23.7482 69.1434 23.7977C69.1682 23.8473 69.1517 23.8803 69.1021 23.8803C69.0609 23.8803 69.0361 23.9133 69.0609 23.9629C69.0856 24.0124 69.0526 24.0454 69.0031 24.0454C68.9453 24.0454 68.9205 24.0619 68.9618 24.0867C68.9948 24.1115 68.9618 24.1858 68.8957 24.2518C68.8297 24.3179 68.7884 24.4087 68.8132 24.4582C68.838 24.5078 68.7967 24.5573 68.7306 24.5821C68.6646 24.6068 68.6233 24.6564 68.6481 24.7059C68.6728 24.7554 68.6646 24.7967 68.6233 24.8132C68.5903 24.8215 68.4169 25.0114 68.2353 25.2425C68.0536 25.4654 67.7564 25.7957 67.5748 25.9691C67.3932 26.1424 67.0134 26.4396 66.7244 26.6295C66.4437 26.8194 66.2126 27.0011 66.2126 27.0423C66.2126 27.0754 66.1878 27.1001 66.1548 27.0919C66.1135 27.0836 66.0062 27.1084 65.9071 27.1331C65.7998 27.1579 65.7172 27.2075 65.7172 27.2487C65.7172 27.2818 65.6677 27.3148 65.6181 27.3148C65.5603 27.323 65.2301 27.4221 64.8916 27.5377C64.5531 27.6533 63.9422 27.8101 63.5294 27.8844C62.935 27.9835 62.1837 28.0165 59.8555 28.0083C57.2053 28 56.8999 27.9918 56.677 27.8597C56.5449 27.7771 56.3467 27.579 56.0495 27.1414L56.0578 20.2477C56.0578 13.5026 56.066 13.3457 56.2229 13.0815C56.3137 12.9412 56.5118 12.7431 56.6604 12.6522C56.9164 12.4871 57.0155 12.4789 60.3096 12.5119ZM58.6336 14.8318C58.5263 14.9226 58.3859 15.1043 58.3199 15.2363C58.2538 15.3602 58.2291 15.4593 58.2621 15.4593C58.2951 15.4593 58.2704 15.5005 58.2043 15.5583C58.1052 15.6409 58.0887 16.4004 58.1052 20.2642C58.1135 23.2694 58.1465 24.871 58.2043 24.871C58.2456 24.871 58.2704 24.9206 58.2538 24.9783C58.2373 25.0279 58.2704 25.1682 58.3282 25.2838C58.3859 25.3994 58.5593 25.5975 58.7079 25.7214C58.8648 25.8535 59.0382 25.936 59.096 25.9113C59.1455 25.8865 59.2115 25.8948 59.2363 25.9443C59.2611 25.9938 59.806 26.0269 60.6233 26.0269C61.3581 26.0269 62.2993 25.9856 62.7038 25.936C63.1166 25.8865 63.6863 25.7627 63.9835 25.6636C64.2807 25.5645 64.7595 25.3499 65.0567 25.1847C65.354 25.0279 65.8163 24.6729 66.0887 24.4004C66.4025 24.095 66.7162 23.6739 66.9308 23.2529C67.1207 22.8979 67.3519 22.3034 67.4427 21.9402C67.5665 21.4613 67.6161 21.0072 67.6161 20.3137C67.6161 19.7771 67.5748 19.1414 67.5253 18.9102C67.4757 18.6708 67.3932 18.4231 67.3354 18.3653C67.2858 18.2993 67.2776 18.258 67.3271 18.2663C67.3767 18.2663 67.3519 18.2167 67.2858 18.1424C67.2198 18.0681 67.1868 18.0103 67.228 18.0186C67.2611 18.0186 67.2528 17.9113 67.2033 17.7709C67.162 17.6306 67.0877 17.5232 67.0382 17.5232C66.9969 17.5232 66.9721 17.4902 66.9969 17.4407C67.0216 17.3994 66.9969 17.3581 66.9556 17.3581C66.9143 17.3581 66.8896 17.3251 66.9143 17.2756C66.9391 17.2343 66.9143 17.193 66.873 17.193C66.8318 17.193 66.7905 17.1352 66.7905 17.0692C66.7905 17.0031 66.7162 16.871 66.6254 16.7802C66.5345 16.6894 66.4602 16.5903 66.4602 16.5573C66.4602 16.516 66.2208 16.2601 65.9236 15.9794C65.6264 15.6904 65.3457 15.4758 65.3044 15.5005C65.2631 15.5253 65.2219 15.517 65.2219 15.484C65.2219 15.4427 65.1145 15.3519 64.9742 15.2776C64.8421 15.1951 64.7265 15.1455 64.7265 15.1703C64.7265 15.1951 64.6687 15.1538 64.6027 15.0877C64.5366 15.0217 64.4128 14.9556 64.3385 14.9556C64.2559 14.9474 64.1651 14.9474 64.1321 14.9556C64.0908 14.9556 64.066 14.9309 64.066 14.8813C64.066 14.8401 64.0082 14.8153 63.9422 14.8401C63.8761 14.8648 63.8018 14.8566 63.7853 14.8235C63.7688 14.7823 63.5376 14.7162 63.2735 14.6584C63.001 14.6006 62.7286 14.5511 62.6625 14.5428C62.5965 14.5346 61.8122 14.5181 60.9288 14.5016C59.9298 14.4851 59.2281 14.5098 59.0712 14.5676C58.9391 14.6172 58.7327 14.7327 58.6336 14.8318ZM79.3808 12.4954C79.9174 12.4789 80.0495 12.4954 80.1073 12.6027C80.1403 12.677 80.1651 16.0537 80.1651 20.0991C80.1651 24.1528 80.1403 27.5955 80.0413 28.0083H78.0186V20.7018C78.0186 15.5418 78.0433 13.3375 78.1094 13.2054C78.1589 13.1063 78.3158 12.9082 78.4644 12.7678C78.7038 12.5284 78.7616 12.5119 79.3808 12.4954ZM132.384 12.4706L134.861 12.5036C137.296 12.5367 137.346 12.5449 137.981 12.7596C138.328 12.8834 138.617 12.9577 138.617 12.9247C138.617 12.8834 138.65 12.8917 138.683 12.9412C138.716 12.9907 138.865 13.0898 139.013 13.1724C139.154 13.2467 139.278 13.2962 139.278 13.2714C139.278 13.2467 139.377 13.3127 139.5 13.42C139.624 13.5191 139.922 13.7998 140.161 14.0392C140.4 14.2704 140.599 14.5098 140.599 14.5511C140.599 14.5924 140.64 14.6337 140.681 14.6337C140.722 14.6337 140.764 14.6997 140.764 14.7823C140.764 14.8566 140.805 14.9722 140.863 15.0299C140.921 15.0877 140.978 15.1868 140.987 15.2363C140.987 15.2941 141.053 15.5583 141.127 15.8308C141.209 16.128 141.259 16.6399 141.251 17.1104C141.251 17.6223 141.193 18.0929 141.086 18.4727C140.995 18.7864 140.912 19.1001 140.904 19.1579C140.896 19.2074 140.871 19.257 140.846 19.257C140.821 19.257 140.714 19.4304 140.599 19.6368C140.483 19.8514 140.153 20.2642 139.855 20.5532C139.558 20.8504 139.162 21.1724 138.617 21.4861L138.766 21.7338C138.84 21.8741 138.931 21.9814 138.972 21.9814C139.005 21.9814 139.046 22.064 139.071 22.1631C139.088 22.2704 139.179 22.4273 139.261 22.5181C139.344 22.6089 139.443 22.7658 139.467 22.8648C139.5 22.9722 139.567 23.0547 139.608 23.0547C139.649 23.0547 139.69 23.1125 139.69 23.1786C139.69 23.2446 139.732 23.3024 139.773 23.3024C139.814 23.3024 139.872 23.385 139.897 23.484C139.913 23.5914 139.996 23.7482 140.087 23.839C140.169 23.9298 140.235 24.0289 140.235 24.0702C140.227 24.1032 140.326 24.2518 140.442 24.4004C140.557 24.5408 140.714 24.805 140.788 24.9701C140.871 25.1435 140.97 25.2838 141.011 25.2838C141.053 25.2838 141.094 25.3416 141.094 25.4077C141.094 25.4737 141.135 25.5315 141.176 25.5315C141.218 25.5315 141.242 25.5563 141.218 25.5893C141.201 25.6306 141.251 25.7296 141.333 25.8205C141.416 25.9113 141.507 26.0599 141.531 26.1507C141.556 26.2415 141.655 26.3901 141.754 26.4809C141.845 26.5717 141.919 26.6791 141.919 26.7286C141.919 26.7781 142.002 26.9433 142.109 27.1001C142.217 27.257 142.382 27.5294 142.663 28.0083H140.144L139.979 27.7193C139.889 27.5542 139.781 27.4304 139.74 27.4304C139.699 27.4304 139.69 27.4056 139.715 27.3643C139.748 27.3313 139.69 27.1992 139.591 27.0588C139.492 26.9185 139.377 26.7947 139.335 26.7699C139.294 26.7451 139.269 26.6956 139.269 26.646C139.278 26.5965 139.063 26.2167 138.799 25.7957C138.543 25.3829 138.303 25.0361 138.27 25.0361C138.229 25.0361 138.221 25.0114 138.246 24.9701C138.262 24.9371 138.213 24.838 138.13 24.7472C138.047 24.6564 137.957 24.5078 137.932 24.4169C137.907 24.3261 137.808 24.1775 137.709 24.0867C137.618 23.9959 137.536 23.8721 137.544 23.8143C137.544 23.7647 137.503 23.7152 137.461 23.7152C137.42 23.7152 137.395 23.6822 137.42 23.6326C137.445 23.5831 137.403 23.5005 137.329 23.4427C137.263 23.3932 137.131 23.1868 137.04 22.9887C136.958 22.7988 136.842 22.6419 136.801 22.6419C136.76 22.6419 136.718 22.5924 136.718 22.5346C136.718 22.4851 136.495 22.0805 136.223 21.6512C135.95 21.2219 135.728 20.8504 135.728 20.8256C135.728 20.8008 135.901 20.7018 136.116 20.6027C136.338 20.5036 136.611 20.4046 136.743 20.3798C136.867 20.355 136.966 20.289 136.966 20.2477C136.966 20.2064 136.991 20.1817 137.032 20.1982C137.065 20.2147 137.354 20.0578 137.668 19.8514C138.097 19.5625 138.336 19.3313 138.601 18.9267C138.79 18.6295 138.931 18.3736 138.906 18.3488C138.881 18.3241 138.914 18.258 138.972 18.192C139.03 18.1177 139.079 17.7709 139.096 17.3003C139.104 16.8545 139.071 16.4417 139.013 16.3014C138.964 16.1775 138.923 16.0537 138.931 16.0124C138.939 15.9794 138.906 15.9546 138.865 15.9546C138.824 15.9546 138.799 15.9133 138.824 15.8721C138.848 15.8308 138.716 15.6244 138.535 15.418C138.353 15.2116 138.13 15.0465 138.039 15.0465C137.948 15.0465 137.874 15.0052 137.874 14.9639C137.874 14.9226 137.626 14.807 137.321 14.7162C137.007 14.6254 136.685 14.5511 136.594 14.5428C136.504 14.5346 135.917 14.5263 134.151 14.5098L133.655 15.0877L133.664 28.0083H131.517L131.476 13.4943L131.649 13.1724C131.748 12.999 131.955 12.7761 132.103 12.6688L132.384 12.4706Z" fill="black"/>
    <path d="M115.583 28.999C115.517 28.999 113.709 27.257 111.579 25.1269L107.699 21.2549L107.988 21.1558C108.582 21.1806 110.109 21.2714 110.299 21.2879C110.497 21.3127 110.687 21.4861 110.547 21.4861C110.547 21.5356 110.481 21.6016 110.398 21.6429C110.324 21.6842 110.275 21.742 110.299 21.775C110.324 21.7998 110.497 21.8328 110.687 21.8411C110.96 21.8576 111.042 21.8906 111.042 22.0062C111.042 22.1135 111.067 22.0722 111.249 22.064C111.406 22.0475 111.554 22.1548 111.612 22.2539C111.662 22.3282 111.703 22.4437 111.703 22.5015C111.703 22.5511 111.777 22.6501 111.868 22.7079C111.967 22.7657 112.033 22.774 112.033 22.7245C112.033 22.6749 112.083 22.5015 112.198 22.5181C112.339 22.5263 112.801 23.0464 113.585 23.839C114.213 24.4747 114.832 25.0444 114.947 25.1022C115.071 25.1517 115.484 25.2012 115.872 25.2012C116.5 25.2012 116.59 25.1847 116.714 25.0196C116.797 24.9123 116.937 24.8215 117.028 24.8132C117.16 24.8049 117.193 24.8462 117.193 25.0444C117.193 25.2508 117.226 25.2838 117.416 25.2838C117.548 25.2838 117.738 25.3168 117.854 25.3664C117.969 25.4159 118.06 25.5067 118.06 25.5727C118.06 25.6388 118.118 25.7131 118.184 25.7379C118.275 25.7709 118.564 25.8865 118.555 26.1094C118.266 26.3983 118.167 26.5304 116.987 27.711C116.285 28.421 115.649 28.999 115.583 28.999Z" fill="#76B7BD"/>
    <path d="M120.083 21.4035C120.198 21.3127 120.355 21.2054 120.495 21.1641C120.636 21.1228 121.346 21.0815 122.081 21.0815C123.104 21.0733 123.426 21.098 123.426 21.1806C123.426 21.2301 123.162 21.5439 122.848 21.8576C122.526 22.1796 122.064 22.6089 122.064 22.5593C122.064 22.5098 122.089 22.2869 122.147 22.2291C122.237 22.1465 122.452 22.0392 122.353 21.9814C122.254 21.9236 122.138 21.8823 122.229 21.775C122.312 21.6677 122.411 21.6429 122.312 21.6099C122.246 21.5851 122.147 21.5686 122.105 21.5686C122.064 21.5686 122.023 21.6182 122.023 21.6759C122.023 21.7255 121.924 21.8246 121.792 21.8823C121.602 21.9732 121.552 21.9649 121.47 21.8411C121.387 21.7255 121.387 21.6677 121.47 21.5851C121.519 21.5273 121.346 21.4943 121.527 21.4861C121.709 21.4695 121.94 21.4283 121.585 21.42C121.239 21.4118 120.925 21.4943 120.826 21.4448C120.685 21.3705 120.57 21.2384 120.562 21.3127C120.545 21.3622 120.462 21.4035 120.372 21.4035C120.281 21.4035 120.207 21.4448 120.207 21.4861C120.207 21.5356 120.041 21.7337 119.752 21.7337L120.083 21.4035Z" fill="#9584A4"/>
    <path d="M119.133 22.3529C119.207 22.3694 119.257 22.3942 119.298 22.3942C119.29 22.3529 119.405 22.4355 119.678 22.4603C119.942 22.485 120.173 22.5346 120.19 22.5676C120.198 22.6089 120.454 22.6171 120.66 22.7245C120.892 22.84 120.949 23.0712 120.949 23.162C120.949 23.2363 120.991 23.3024 121.032 23.3024C121.081 23.3024 121.139 23.2528 121.114 23.3024C121.09 23.3519 121.225 23.1868 121.175 23.162C121.28 23.096 121.238 23.2116 121.238 23.2611C121.238 23.3106 121.337 23.3189 121.238 23.4262C121.131 23.5253 120.759 23.9298 120.371 24.3178C119.983 24.7141 119.661 25.0196 119.653 24.9948C119.637 24.9701 119.686 24.8627 119.752 24.7472C119.868 24.549 119.868 24.5408 119.653 24.4912C119.521 24.4582 119.315 24.3426 119.191 24.2188C119.059 24.1032 118.943 24.0124 118.918 24.0289C118.902 24.0371 118.844 24.0454 118.803 24.0454C118.761 24.0454 118.662 23.9876 118.596 23.9216C118.514 23.839 118.376 23.8115 118.184 23.839C117.969 23.872 117.903 23.9216 117.919 24.0206C117.928 24.128 117.853 24.161 117.193 24.2105L118.06 23.3519C118.646 22.774 119.035 22.419 119.133 22.3529Z" fill="#899BAF"/>
    <path d="M107.905 21.2467C107.814 21.2136 107.839 21.1889 107.988 21.1476C108.103 21.1146 108.4 21.1063 108.648 21.1228C108.896 21.1393 109.515 21.1724 110.01 21.1889C110.861 21.2301 110.935 21.2467 111.166 21.4613C111.307 21.5852 111.629 21.8906 111.893 22.1466C112.149 22.3942 112.363 22.6254 112.363 22.6584C112.363 22.6997 112.289 22.708 112.198 22.6832C112.107 22.6584 112.033 22.6749 112.033 22.7245C112.033 22.774 111.967 22.7657 111.868 22.6997C111.777 22.6502 111.703 22.5511 111.703 22.4933C111.703 22.4438 111.662 22.3282 111.612 22.2456C111.554 22.1548 111.439 22.1135 111.282 22.1218C111.1 22.1383 111.042 22.1135 111.042 21.9979C111.042 21.8906 110.96 21.8576 110.687 21.8411C110.497 21.8328 110.324 21.7998 110.299 21.775C110.275 21.742 110.324 21.6842 110.398 21.6429C110.481 21.6017 110.547 21.5356 110.547 21.4861C110.547 21.4365 110.423 21.387 110.283 21.3622C110.134 21.3457 109.565 21.321 109.02 21.3127C108.475 21.2962 107.971 21.2714 107.905 21.2467Z" fill="#7FAAB3"/>
    <path d="M117.895 23.806C117.878 23.7152 117.961 23.872 118.085 23.8473C118.184 23.8308 118.332 23.8143 118.415 23.806C118.489 23.806 118.638 23.7895 118.638 23.839C118.638 23.8886 118.679 23.9381 118.762 23.9629C118.836 23.9876 118.968 23.9629 119.009 23.9629C119.051 23.9711 119.1 24.1362 119.216 24.2436C119.331 24.3509 119.521 24.4582 119.876 24.5408L119.876 24.7885C119.752 24.9123 119.315 25.3664 118.968 25.7131C118.63 26.0599 118.324 26.3323 118.291 26.3158C118.25 26.291 118.25 26.1755 118.275 26.0434C118.308 25.8865 118.283 25.8039 118.192 25.7544C118.118 25.7214 118.06 25.6388 118.06 25.5728C118.06 25.5067 117.969 25.4159 117.853 25.3664C117.738 25.3168 117.548 25.2838 117.424 25.2838C117.226 25.2838 117.193 25.2508 117.193 25.0444C117.193 24.8462 117.16 24.805 117.028 24.8132C116.937 24.8215 116.797 24.9123 116.722 25.0114C116.615 25.1435 116.508 25.2921 116.326 25.2838C116.054 25.2838 115.872 25.2838 116.244 25.0939C116.351 25.0444 116.615 24.8215 116.821 24.6068C117.143 24.2601 117.302 24.0372 117.624 24.0207C117.921 23.9959 117.903 23.9133 117.895 23.806Z" fill="#7FAAB3"/>
    <path d="M120.371 21.4035C120.462 21.4035 120.545 21.3622 120.553 21.3127C120.561 21.2549 120.611 21.2467 120.693 21.2879C120.768 21.321 121.139 21.3788 121.527 21.4035C121.915 21.4366 122.08 21.4613 121.899 21.4696C121.717 21.4778 121.519 21.5274 121.47 21.5852C121.387 21.6677 121.387 21.7255 121.47 21.8411C121.552 21.9649 121.602 21.9732 121.792 21.8824C121.924 21.8246 122.023 21.7255 122.023 21.6677C122.023 21.6182 122.056 21.5686 122.105 21.5686C122.147 21.5686 122.246 21.5852 122.312 21.6099C122.411 21.643 122.419 21.676 122.328 21.7833C122.246 21.8824 122.254 21.9237 122.336 21.9649C122.419 22.0145 122.419 22.064 122.336 22.2374C122.279 22.3612 121.965 22.7162 121.651 23.0382C121.337 23.3519 121.024 23.5996 120.966 23.5831C120.916 23.5666 120.867 23.517 120.867 23.4675C120.867 23.418 120.908 23.4015 120.949 23.4262C120.991 23.451 121.048 23.4345 121.073 23.385C121.098 23.3354 121.073 23.3024 121.032 23.3024C120.991 23.3024 120.949 23.2363 120.949 23.1538C120.949 23.0712 120.809 22.9474 120.578 22.8235C120.371 22.7245 120.198 22.6089 120.182 22.5676C120.173 22.5346 119.95 22.4851 119.694 22.4685C119.43 22.452 119.216 22.4603 119.216 22.4933C119.216 22.5346 119.174 22.5594 119.133 22.5594C119.092 22.5594 119.051 22.5263 119.051 22.4768C119.051 22.4273 119.24 22.2044 119.48 21.9814C119.719 21.7503 119.959 21.4861 120.041 21.4861C120.124 21.4861 120.206 21.5356 120.206 21.4861C120.206 21.4366 120.281 21.4035 120.371 21.4035Z" fill="#948DAC"/>
    <path d="M133.721 24.5408C133.713 26.2002 133.705 24.8627 133.705 21.5686C133.705 18.2745 133.713 16.9205 133.721 18.5552C133.738 20.1899 133.738 22.8813 133.721 24.5408Z" fill="black" fill-opacity="0.3"/>
</svg>
