<svg width="66" height="18" viewBox="0 0 66 18" fill="none" xmlns="http://www.w3.org/2000/svg">
    <g clip-path="url(#clip0_222:218)">
        <path d="M21.4527 12.5309H18.874C19.2077 12.2273 19.2993 11.1352 19.4204 9.16311L19.4499 8.70832L19.571 6.12962C19.571 5.614 19.5101 5.28029 19.3583 5.15862H22.2406C22.9376 5.15862 24.3037 5.18815 24.3037 6.61512C24.3037 7.58612 23.4178 8.16258 22.6045 8.3752C23.7574 8.46616 24.6126 9.04262 24.6126 10.2257C24.6421 11.4996 23.4296 12.5315 21.4574 12.5315L21.4527 12.5309ZM21.3665 8.95225H20.8509L20.7599 10.0449L20.6991 11.4105C20.6991 11.4713 20.9117 11.6231 21.396 11.6231C22.4279 11.6231 23.0953 11.1075 23.0953 10.2575C23.1248 9.31726 22.3062 8.95816 21.3659 8.95816L21.3665 8.95225ZM21.5785 6.04634C21.4267 6.04634 21.2448 6.04634 21.0629 6.07587C20.9719 6.59149 20.9418 7.07699 20.9111 7.65286L20.8816 8.07812H21.0635C22.0038 8.07812 22.8531 7.74441 22.8531 6.89508C22.8826 6.40958 22.4586 6.04575 21.5791 6.04575L21.5785 6.04634ZM30.6749 12.5988C30.037 12.5988 29.9779 12.5693 29.4918 10.8387L29.3099 10.2008C29.0063 10.3526 28.4606 10.4135 27.6107 10.4135H26.7247L26.5729 10.7472C26.4211 11.0809 26.0573 11.779 26.0573 12.2037C26.0547 12.3157 26.0648 12.4276 26.0874 12.5374H24.3273C24.8128 12.0519 25.4802 10.8689 26.3603 8.9936L26.8759 7.90093L27.8469 5.62522C27.8469 5.47343 27.8174 5.35235 27.7559 5.19996H29.3637L30.1527 8.11178L30.4563 9.2647C31.0027 11.2374 31.3659 12.1765 31.7911 12.5415L30.6689 12.6024L30.6749 12.5988ZM28.3631 6.89862L27.1494 9.47732H29.0914L28.3631 6.89862ZM37.6479 12.8451C37.1015 12.8451 36.9804 12.7542 36.7985 12.5114L34.7053 9.65865C34.5535 9.42239 34.4017 9.26411 34.159 9.26411H34.1295L34.0999 9.84056L34.009 11.6609C34.009 12.1464 34.0698 12.45 34.2216 12.5705H32.2135C32.517 12.3342 32.608 11.4778 32.7899 9.20268L32.8194 8.74789L32.9405 6.16919C32.9405 5.65357 32.8797 5.31986 32.7279 5.19819H35.4283C36.3378 5.19819 37.5215 5.34999 37.5215 6.77518C37.5215 7.95822 36.7324 8.59551 35.7614 8.89909C35.8902 9.03425 36.0116 9.1762 36.1252 9.32435L37.6118 11.2971C38.5521 12.5409 38.6129 12.5965 38.9467 12.7536C38.516 12.8129 38.0819 12.8433 37.6473 12.8445L37.6479 12.8451ZM34.9776 6.07882C34.7957 6.07882 34.5831 6.07883 34.4012 6.10836C34.3403 6.41194 34.3102 6.95769 34.2494 7.83773L34.2198 8.35335C34.3108 8.38288 34.4561 8.38288 34.5535 8.38288C35.4631 8.38288 36.101 7.80642 36.101 6.98722C36.0715 6.41076 35.6757 6.07764 34.9788 6.07764L34.9776 6.07882ZM41.5679 12.6827C39.6566 12.6827 38.5645 11.1057 38.5645 9.37514C38.5645 6.95355 39.8993 5.03636 42.4178 5.03636C43.2069 5.03636 43.5707 5.18815 44.2381 5.18815L44.0562 7.06932C43.6924 6.4019 43.0852 5.97665 42.2961 5.97665C40.7191 5.97665 40.0813 7.67589 40.0813 9.1318C40.0813 10.7088 40.9908 11.5888 42.1443 11.5888C42.7822 11.5888 43.3581 11.437 44.2984 10.7696C43.9038 11.9225 43.0244 12.6809 41.5679 12.6809V12.6827ZM54.5529 12.59C53.9151 12.59 53.8855 12.5604 53.3699 10.8299L53.188 10.192C52.8844 10.3438 52.3387 10.4046 51.4887 10.4046H50.5792L50.4274 10.7383C50.1911 11.2238 49.9117 11.8003 49.9117 12.1948C49.9117 12.2858 49.9413 12.4075 49.9413 12.5285H44.723C45.0266 12.1948 45.1176 11.1027 45.2694 9.16074L45.2989 8.70596L45.42 6.12726C45.42 5.64176 45.3592 5.30805 45.2381 5.15626H47.271C46.9674 5.36889 46.8765 6.55192 46.7554 8.52404L46.7259 8.97883L46.5741 11.163C46.5741 11.4967 46.6952 11.5882 47.0596 11.5882C48.3035 11.5882 48.5763 11.5587 49.1528 11.1937C49.5166 10.5558 49.881 9.76791 50.275 8.9493L50.7906 7.85663L51.7616 5.58092C51.7616 5.42913 51.7321 5.30805 51.6706 5.15567H53.2724L54.0615 8.06748L54.3651 9.2204C54.9114 11.1931 55.2511 12.1322 55.7307 12.4972C55.3382 12.5489 54.9433 12.5793 54.5476 12.5882L54.5529 12.59ZM52.2418 6.88445L51.0588 9.46315H52.97L52.2418 6.88445ZM59.1593 8.55298L58.6437 9.52398C58.5226 10.0703 58.4919 10.798 58.4919 11.5871C58.4919 11.9208 58.5527 12.3761 58.7045 12.5273H56.6963C57.0602 12.1936 57.1818 10.1607 57.1818 9.49327C56.909 8.5837 56.544 7.67294 55.9988 6.58145C55.635 5.91404 55.2404 5.28206 54.967 5.15567L56.2664 5.09483C56.7519 5.09483 56.9042 5.15567 57.2066 5.82308L58.2385 8.31082L59.5379 6.21762C59.6288 6.03571 59.7505 5.79237 59.7505 5.57974C59.7505 5.42795 59.721 5.21591 59.6595 5.15449H61.6322C61.207 5.24544 59.5083 7.94581 59.1445 8.55239L59.1593 8.55298ZM65.8186 6.88386C65.5151 6.33752 64.8476 5.91286 64.1194 5.91286C63.4815 5.91286 62.9364 6.14911 62.9364 6.82243C62.9364 7.39889 63.6333 7.76272 64.3621 8.24822C65.1512 8.73372 65.9698 9.34089 65.9698 10.4023C65.9698 11.7678 64.635 12.6467 63.058 12.6467C62.4202 12.6467 61.7586 12.5256 60.995 12.2521L61.116 10.4318C61.4799 11.16 62.1479 11.7312 63.149 11.7312C63.9074 11.7312 64.5145 11.3673 64.5145 10.6993C64.5145 10.153 64.0597 9.78977 63.4827 9.45547C62.2689 8.72722 61.51 8.15608 61.51 7.08881C61.51 5.51182 62.8094 4.99561 64.2104 4.99561C64.9994 4.99561 65.5098 5.1474 66 5.1474L65.8186 6.88386Z" fill="#00AEEF"/>
        <path d="M15.9551 3.82434C15.7933 3.44634 15.524 3.01518 15.0385 2.6921C14.8229 2.53027 14.553 2.36844 14.2837 2.26094C14.0681 2.20188 13.8525 2.15285 13.5826 2.15285H13.5235C13.1998 2.15285 12.6068 2.21192 12.2832 2.6921C12.1213 2.85393 12.0676 3.1776 12.1213 3.44693C12.1804 3.66251 12.3369 3.87809 12.5525 3.93243C12.5979 3.96987 12.6556 3.98903 12.7143 3.98618C12.7143 4.04524 12.6553 4.14801 12.6553 4.14801C12.4934 4.30984 12.2241 4.57917 11.415 4.57917H11.3559C10.9247 4.52011 10.6011 4.41734 10.1156 3.93184C9.84564 3.60817 9.6844 3.01518 9.6844 2.09852C9.6844 1.61302 9.62534 1.23619 9.52256 0.917252C9.4635 0.701671 9.25265 0.48609 9.0914 0.378004C8.93016 0.269919 8.82149 0.216171 8.55216 0.108085L7.6355 0C7.31183 0 7.09625 0.0590631 6.98816 0.215581H6.6645C6.50266 0.215581 6.28649 0.274644 6.12525 0.274644C5.80158 0.333707 5.586 0.490225 5.37042 0.652649C5.31136 0.711712 5.1005 0.922567 5.04675 1.13815C5.04675 1.29998 5.10582 1.46182 5.10582 1.51615L5.16488 1.57522C5.27297 1.46713 5.48855 1.41338 5.75788 1.41338C6.13588 1.41338 6.67454 1.57522 6.78262 1.84454C7.05254 2.27571 6.94446 2.59937 6.94446 2.97679C6.78262 4.00153 6.40521 4.48703 5.59604 4.59512C5.43421 4.65418 5.27238 4.65418 5.16488 4.65418C4.57189 4.65418 4.14013 4.49235 3.92455 4.11493V4.00685C3.92455 4.00685 3.98362 4.00685 4.03264 3.94779C4.24822 3.8397 4.41064 3.67787 4.4638 3.46229C4.52286 3.19237 4.4638 2.92304 4.30197 2.70746C3.9783 2.38379 3.54714 2.16821 3.06164 2.16821C2.73797 2.16821 2.52239 2.22727 2.30681 2.2763C1.65948 2.43813 1.06648 2.97738 0.635322 3.84029C0.311656 4.48762 0.096075 5.24245 0.0423275 6.10537C-0.01142 6.96828 -0.0167357 7.66936 0.0423275 8.3161C0.101391 9.3946 0.312246 10.0419 0.581575 10.7377C0.850903 11.4335 1.17221 12.0861 1.55021 12.6809C1.6583 12.8427 1.71204 13.0045 1.82013 13.112L1.87919 13.053C1.93826 12.9939 1.98728 12.9449 2.04103 12.8374C2.25661 12.6756 2.63402 12.1363 2.74211 11.9751C2.85019 11.8138 3.01203 11.5439 3.12011 11.274L3.17918 11.1659L3.28726 11.225C3.39535 11.3331 3.44909 11.4949 3.44909 11.6561C3.44909 11.8174 3.39003 11.9798 3.28726 12.3035C3.17918 12.6815 2.96359 13.1126 2.74801 13.5438C2.80708 13.6029 2.80708 13.7056 2.74801 13.7056C2.58618 13.9755 2.58618 14.0836 2.58618 14.1911H2.64524C2.70431 14.1911 2.91516 14.1321 3.07641 13.9755C3.23824 13.8675 3.6694 13.49 4.20865 12.7352C4.63981 12.196 4.90973 11.603 5.23339 10.9556L5.29246 10.8476L5.40054 10.9066C5.45961 10.9657 5.50863 10.9657 5.56238 11.0147C5.62144 11.1228 5.62144 11.2846 5.62144 11.4459C5.56238 11.877 5.29777 12.4706 5.13594 12.9018C4.81227 13.6566 4.21928 14.4658 3.78753 15.0588C3.77553 15.0967 3.75456 15.1313 3.72639 15.1595C3.69822 15.1876 3.66368 15.2086 3.62569 15.2206C3.68476 15.2797 3.73378 15.3287 3.84127 15.3824L4.00311 15.5443C4.57068 16.0187 5.18493 16.4342 5.83643 16.7846C6.37568 17.1083 7.45476 17.6469 8.209 17.8631C8.96383 17.7012 10.0423 17.1083 10.5816 16.7846C11.2331 16.4342 11.8473 16.0187 12.4149 15.5443L12.5767 15.3824C12.6848 15.3234 12.7386 15.2206 12.7923 15.2206C12.8514 15.1125 12.8514 15.0588 12.8514 15.005L12.7923 14.9459C12.3611 14.4067 11.7676 13.5438 11.4439 12.789C11.2821 12.3578 11.0127 11.7642 10.9584 11.3331C10.8993 11.1712 10.9584 11.0094 11.0175 10.9019L11.1255 10.7938C11.1846 10.7347 11.2874 10.7347 11.2874 10.7347L11.3464 10.8428C11.6701 11.4902 11.9938 12.0832 12.3712 12.6224C12.9104 13.3772 13.3416 13.7546 13.5034 13.8627C13.6653 14.0246 13.8271 14.0783 13.9346 14.0783H13.9937C14.0527 14.0192 13.9937 13.9165 13.8318 13.6471C13.7728 13.5881 13.7728 13.5391 13.7728 13.4853C13.5572 13.0542 13.3416 12.623 13.2335 12.245C13.1254 11.9213 13.0717 11.7057 13.0717 11.5977C13.0717 11.4358 13.1307 11.274 13.2335 11.1665L13.3416 11.1074L13.4007 11.2155C13.5087 11.4854 13.7243 11.8085 13.8318 11.9703C13.9393 12.1322 14.3711 12.6177 14.4792 12.7795C14.5872 12.8876 14.641 12.9413 14.641 12.9951L14.7 13.0542C14.7591 12.9951 14.8081 12.8923 14.9156 12.6762L14.9747 12.6171C15.2984 12.0778 15.622 11.3768 15.8914 10.6757C16.1613 10.0283 16.3225 9.32726 16.4306 8.25409C16.4897 7.60675 16.5387 6.90567 16.4306 6.04335C16.4897 5.23418 16.2688 4.42502 15.9994 3.83261L15.9551 3.82434Z" fill="#00AEEF"/>
    </g>
    <defs>
        <clipPath id="clip0_222:218">
            <rect width="66" height="17.8631" fill="white"/>
        </clipPath>
    </defs>
</svg>
