<svg width="39" height="25" viewBox="0 0 39 25" fill="none" xmlns="http://www.w3.org/2000/svg">
<g id="BAR - FC Barcelona Fan Token" clip-path="url(#clip0_502_893)">
<path id="Vector" d="M37.9223 25H1.03064C0.666829 25 0.371826 24.7054 0.371826 24.3421V0.657924C0.371826 0.294605 0.666829 0 1.03064 0H37.9224C38.2862 0 38.5812 0.294605 38.5812 0.657924V24.3421C38.5811 24.7055 38.2861 25 37.9223 25Z" fill="#C1C1C1"/>
<g id="BAR - FC Barcelona Fan Token_2">
<circle id="Ellipse 21" cx="19.3718" cy="12" r="10" fill="#154284"/>
<path id="Ellipse 22 (Stroke)" fill-rule="evenodd" clip-rule="evenodd" d="M19.3718 21C24.3424 21 28.3718 16.9706 28.3718 12C28.3718 7.02944 24.3424 3 19.3718 3C14.4013 3 10.3718 7.02944 10.3718 12C10.3718 16.9706 14.4013 21 19.3718 21ZM19.3718 22C24.8947 22 29.3718 17.5228 29.3718 12C29.3718 6.47715 24.8947 2 19.3718 2C13.849 2 9.37183 6.47715 9.37183 12C9.37183 17.5228 13.849 22 19.3718 22Z" fill="#FDC52C"/>
<g id="layer1">
<g id="g2427">
<g id="g2263">
<g id="g2279">
<path id="path2239" fill-rule="evenodd" clip-rule="evenodd" d="M14.8906 7.34815C15.6861 7.69247 16.9917 7.6517 17.8673 7C19.0918 7.88469 20.2702 7.79387 21.3939 7C22.143 7.53397 23.2964 7.76196 24.3786 7.35936L24.8638 8.02408C23.5987 9.69128 24.067 11.2849 25.3718 12.6874L24.8239 13.2352C24.948 16.8311 22.1238 17.6896 20.502 17.7787L19.6301 18.4822L18.7646 17.7892C15.8693 17.5427 14.3406 16.0364 14.4352 13.2445L13.8718 12.6832C14.9726 11.5091 15.7998 9.90467 14.3857 8.02372L14.8906 7.34815Z" fill="black"/>
<path id="path2239 (Stroke)" fill-rule="evenodd" clip-rule="evenodd" d="M17.8669 6.94128L17.8951 6.96161C18.5006 7.39911 19.0915 7.59323 19.6675 7.58211C20.2439 7.57099 20.8104 7.35428 21.3666 6.96131L21.394 6.94194L21.4213 6.96143C22.1582 7.48668 23.2952 7.71186 24.3621 7.31497L24.3957 7.30247L24.9227 8.02459L24.9014 8.05264C24.2756 8.87746 24.081 9.67995 24.2008 10.4477C24.3209 11.2171 24.7577 11.9578 25.4065 12.6551L25.4376 12.6885L24.8719 13.2542C24.9286 15.0547 24.2489 16.1773 23.3462 16.8597C22.4483 17.5384 21.3348 17.7781 20.5199 17.8251L19.6302 18.5429L18.7463 17.8351C17.2988 17.7096 16.1852 17.2691 15.4447 16.5042C14.7048 15.74 14.3439 14.6585 14.3872 13.2634L13.8059 12.6843L13.8373 12.6508C14.3851 12.0665 14.8605 11.3794 15.0256 10.6086C15.1901 9.84024 15.0475 8.9827 14.3479 8.05211L14.3266 8.02376L14.8751 7.28984L14.9094 7.30469C15.2987 7.47318 15.8158 7.54845 16.3446 7.50042C16.8732 7.45241 17.4097 7.28156 17.8391 6.962L17.8669 6.94128ZM17.8677 7.0584C17.4263 7.37729 16.8839 7.54647 16.3532 7.59467C15.8267 7.64249 15.308 7.57156 14.9064 7.40611L14.4448 8.02369C15.141 8.96327 15.2872 9.8387 15.1181 10.6284C14.9511 11.4084 14.4777 12.0991 13.9376 12.6819L14.4832 13.2254L14.4825 13.246C14.4355 14.633 14.7917 15.6937 15.5127 16.4384C16.2343 17.1838 17.3278 17.6193 18.7686 17.742L18.783 17.7433L19.6299 18.4215L20.4842 17.7323L20.4994 17.7315C21.3049 17.6872 22.406 17.4518 23.2891 16.7842C24.1695 16.1187 24.8382 15.0201 24.7766 13.2368L24.7759 13.2163L25.3062 12.686C24.6669 11.9904 24.2294 11.2445 24.1073 10.4623C23.9844 9.67463 24.1823 8.85627 24.8048 8.02359L24.3614 7.416C23.2867 7.8025 22.1478 7.58112 21.3938 7.05778C20.835 7.44671 20.2596 7.66534 19.6693 7.67673C19.0782 7.68814 18.477 7.49158 17.8677 7.0584Z" fill="black"/>
<path id="path5105" fill-rule="evenodd" clip-rule="evenodd" d="M14.9567 13.1721H24.273C24.5179 15.7143 22.88 17.0875 20.3894 17.2225L18.8067 17.2264C16.4238 17.0575 14.6485 15.8169 14.9567 13.1721Z" fill="#004D98"/>
<path id="rect6076" d="M20.2923 13.2026H18.9727V17.265H20.2923V13.2026Z" fill="#A50044"/>
<g id="g6100">
<path id="rect6088" d="M17.6656 13.2026H16.3459V16.8332H17.6656V13.2026Z" fill="#A50044"/>
<path id="rect6092" d="M17.6655 16.6472H16.8059V17.0212H17.6655V16.6472Z" fill="#A50044"/>
</g>
<g id="g6096">
<path id="rect6090" d="M22.9044 13.2026H21.5847V16.8332H22.9044V13.2026Z" fill="#A50044"/>
<path id="rect6094" d="M22.4443 16.6472H21.5847V17.0212H22.4443V16.6472Z" fill="#A50044"/>
</g>
<path id="path4130" fill-rule="evenodd" clip-rule="evenodd" d="M19.5896 8.18807V11.7964L15.1424 11.8281L15.6008 10.0913L15.0298 8.0136L17.8445 7.65674L19.5896 8.18807Z" fill="white"/>
<path id="path2187" fill-rule="evenodd" clip-rule="evenodd" d="M19.6538 8.18807V11.7964L24.101 11.8281L23.6426 10.0913L24.2136 8.0136L21.3989 7.65674L19.6538 8.18807Z" fill="#FFED02"/>
<path id="rect2169" d="M18.2951 7.75964H17.02V11.7741H18.2951V7.75964Z" fill="#DB0030"/>
<path id="rect3143" d="M19.5898 10.5143V9.25696H15.6222V10.5143H19.5898Z" fill="#DB0030"/>
<g id="g2174">
<path id="rect4118" d="M20.5246 8.04431H20.053V11.7481H20.5246V8.04431Z" fill="#DB0030"/>
<path id="rect4120" d="M21.4198 7.77893H20.9482V11.7567H21.4198V7.77893Z" fill="#DB0030"/>
<path id="rect4122" d="M22.321 8.00317H21.8494V11.7651H22.321V8.00317Z" fill="#DB0030"/>
<path id="rect4124" d="M23.2135 8.14099H22.7419V11.7617H23.2135V8.14099Z" fill="#DB0030"/>
</g>
<path id="path4181" fill-rule="evenodd" clip-rule="evenodd" d="M17.8599 7.28577C17.0386 7.87937 15.739 7.94183 14.993 7.64503L14.6942 8.02436C15.9761 9.80303 15.2396 11.5925 14.2231 12.6884L14.6912 13.1769C14.5013 15.8578 16.0878 17.4083 18.877 17.5679L19.6329 18.1904L20.3874 17.5581C22.0116 17.5304 24.8596 16.6322 24.5528 13.173L25.0233 12.6923C23.8296 11.3869 23.4182 9.59888 24.5716 8.02436L24.2912 7.64748C23.2706 7.97822 22.103 7.79489 21.4004 7.29409C20.3466 8.03865 19.0083 8.1155 17.8599 7.28577ZM21.4099 7.79529C22.0435 8.18325 22.7437 8.29364 23.9507 8.18931C23.3463 9.22055 23.281 10.449 23.8162 11.6351L15.4397 11.6302C15.8902 10.5704 15.9936 9.35081 15.2873 8.16582C16.1579 8.29046 17.0084 8.26059 17.8565 7.80557C19.0068 8.47148 20.1902 8.48366 21.4099 7.79529ZM15.1424 13.2122H24.1249C24.361 15.6632 22.7818 16.9869 20.3804 17.1171L18.8541 17.121C16.5567 16.9581 14.8453 15.7621 15.1424 13.2122Z" fill="#EDBB00" stroke="#DEB405" stroke-width="0.177515"/>
<path id="path7096 (Stroke)" fill-rule="evenodd" clip-rule="evenodd" d="M21.4042 7.58875L21.4991 7.64687C22.0828 8.00426 22.735 8.11645 23.9246 8.01363L24.2893 7.9821L24.1042 8.2979C23.5323 9.2737 23.4675 10.4373 23.9787 11.5702L24.0993 11.8375L15.1438 11.8322L15.2557 11.5691C15.6893 10.5491 15.7825 9.39564 15.115 8.27566L14.9121 7.93523L15.3044 7.99139C16.1527 8.11284 16.9575 8.08046 17.757 7.65152L17.85 7.60163L17.9413 7.65449C19.0324 8.28609 20.1447 8.29958 21.3072 7.64345L21.4042 7.58875ZM17.8427 8.03348C17.0993 8.40666 16.3566 8.47522 15.6155 8.40892C16.1155 9.45546 16.0485 10.5134 15.7077 11.454L23.523 11.4586C23.1306 10.4182 23.1718 9.3532 23.6145 8.4154C22.6413 8.46976 21.9886 8.36007 21.3971 8.02603C20.1855 8.67556 18.9938 8.66571 17.8427 8.03348Z" fill="black"/>
<path id="path4112 (Stroke)" fill-rule="evenodd" clip-rule="evenodd" d="M14.974 13.0229H24.2968L24.3132 13.1941C24.4357 14.466 24.0874 15.4697 23.3743 16.1702C22.6659 16.866 21.6209 17.2397 20.3906 17.3064L20.3857 17.3066L18.848 17.3105L18.8411 17.31C17.6671 17.2268 16.6166 16.8782 15.8958 16.1997C15.1674 15.5141 14.8001 14.5149 14.9545 13.1903L14.974 13.0229ZM15.3138 13.4015C15.2197 14.5396 15.5566 15.3606 16.1552 15.924C16.789 16.5205 17.7405 16.8514 18.861 16.9319L20.375 16.9281C21.5438 16.8639 22.4874 16.5107 23.109 15.9001C23.6965 15.323 24.0176 14.4954 23.95 13.4015H15.3138Z" fill="black"/>
<path id="path4134 (Stroke)" fill-rule="evenodd" clip-rule="evenodd" d="M19.4355 11.6495V8.30261H19.8141V11.6495H19.4355Z" fill="black"/>
<g id="g6097">
<path id="path2185" d="M20.8636 15.1222C20.8636 15.2804 20.832 15.437 20.7707 15.5831C20.7093 15.7293 20.6194 15.862 20.506 15.9739C20.3926 16.0857 20.2579 16.1745 20.1097 16.235C19.9616 16.2955 19.8027 16.3267 19.6424 16.3267C19.482 16.3267 19.3231 16.2955 19.175 16.235C19.0268 16.1745 18.8922 16.0857 18.7787 15.9739C18.6653 15.862 18.5754 15.7293 18.514 15.5831C18.4527 15.437 18.4211 15.2804 18.4211 15.1222C18.4211 14.964 18.4527 14.8074 18.514 14.6613C18.5754 14.5152 18.6653 14.3824 18.7787 14.2705C18.8922 14.1587 19.0268 14.0699 19.175 14.0094C19.3231 13.9489 19.482 13.9177 19.6424 13.9177C19.8027 13.9177 19.9616 13.9489 20.1097 14.0094C20.2579 14.0699 20.3926 14.1587 20.506 14.2705C20.6194 14.3824 20.7093 14.5152 20.7707 14.6613C20.832 14.8074 20.8636 14.964 20.8636 15.1222Z" fill="#EDBB00" stroke="black" stroke-width="0.5"/>
<g id="g4131">
<path id="path3158 (Stroke)" fill-rule="evenodd" clip-rule="evenodd" d="M18.655 14.8809C18.642 14.6307 18.7071 14.3532 18.7784 14.097L19.0975 14.1858C19.0262 14.442 18.9758 14.6728 18.9858 14.8636C18.9952 15.044 19.0564 15.172 19.2023 15.2579C19.2436 15.2823 19.2697 15.2824 19.2863 15.2794C19.3064 15.2758 19.3322 15.2636 19.3628 15.2361C19.4272 15.1783 19.4775 15.0848 19.5 15.0289L19.8073 15.1525C19.7759 15.2304 19.7021 15.3766 19.5841 15.4826C19.5235 15.537 19.4435 15.5878 19.3447 15.6055C19.2423 15.6238 19.1364 15.6036 19.0341 15.5433C18.7687 15.3868 18.6686 15.1414 18.655 14.8809Z" fill="black"/>
<path id="path3160 (Stroke)" fill-rule="evenodd" clip-rule="evenodd" d="M18.8709 15.7116C18.7583 15.7606 18.6371 15.7681 18.5195 15.7734L18.5046 15.4425C18.6278 15.4369 18.6898 15.4292 18.7388 15.4079C18.7806 15.3897 18.8284 15.3542 18.8951 15.2543L19.1706 15.4382C19.0829 15.5696 18.9907 15.6595 18.8709 15.7116Z" fill="black"/>
</g>
<path id="path4141 (Stroke)" fill-rule="evenodd" clip-rule="evenodd" d="M19.9044 15.2026C19.8775 15.19 19.8245 15.1835 19.7293 15.2412L19.5576 14.9579C19.7041 14.8692 19.8792 14.8249 20.0451 14.9028C20.1647 14.9589 20.2499 15.0652 20.3085 15.1999C20.42 15.195 20.5244 15.2273 20.611 15.2789C20.7368 15.3539 20.8353 15.4752 20.8779 15.6058L20.5631 15.7086C20.5467 15.6584 20.5023 15.5997 20.4413 15.5634C20.384 15.5292 20.3224 15.5201 20.2607 15.5445L20.0886 15.6128L20.0399 15.4341C19.9955 15.271 19.9368 15.2178 19.9044 15.2026Z" fill="black"/>
<path id="path4143 (Stroke)" fill-rule="evenodd" clip-rule="evenodd" d="M18.8816 15.9122C19.5309 15.8484 19.9118 15.6603 20.052 15.3265L20.3574 15.4548C20.1407 15.9709 19.5827 16.1761 18.914 16.2419L18.8816 15.9122Z" fill="black"/>
<path id="path2191 (Stroke)" fill-rule="evenodd" clip-rule="evenodd" d="M19.6456 14.1676C19.6473 14.2021 19.6674 14.2558 19.7291 14.3329L19.8141 14.4392L19.7263 14.5432C19.576 14.7212 19.591 14.7982 19.599 14.8227C19.6055 14.8427 19.6199 14.866 19.6482 14.8961C19.67 14.9192 19.6919 14.9384 19.7184 14.9618C19.7296 14.9717 19.7416 14.9823 19.7548 14.9942L19.5328 15.24C19.5261 15.2339 19.5181 15.2269 19.5094 15.2192C19.4796 15.193 19.4404 15.1585 19.4071 15.1231C19.3613 15.0745 19.3116 15.0098 19.2841 14.9255C19.2337 14.7709 19.273 14.6075 19.3949 14.4313C19.351 14.3568 19.3192 14.2738 19.3148 14.1838C19.3076 14.0366 19.3746 13.9072 19.4948 13.8007L19.7145 14.0485C19.6504 14.1054 19.6445 14.1437 19.6456 14.1676Z" fill="black"/>
<path id="path2193 (Stroke)" fill-rule="evenodd" clip-rule="evenodd" d="M20.4463 14.4853C20.6889 14.6623 20.8839 14.9068 21.0016 15.112L20.7143 15.2768C20.6151 15.1039 20.4492 14.8975 20.251 14.7528C20.0524 14.6078 19.8431 14.5396 19.6412 14.5919L19.5581 14.2713C19.8928 14.1845 20.2042 14.3086 20.4463 14.4853Z" fill="black"/>
</g>
</g>
<path id="rect2194" d="M17.9348 11.8501V11.8545H17.7129V12.2794V12.5202V12.9925H17.9526V12.5202H18.2946V12.2794H17.9526V12.0948H18.5428V11.8501H17.9348Z" fill="black"/>
<path id="path3176" fill-rule="evenodd" clip-rule="evenodd" d="M19.7495 12.2066L19.9647 12.0958C19.8273 11.7963 19.2704 11.7111 19.0872 12.0958C18.8982 12.5546 19.0991 12.9808 19.465 13.0224C19.6974 13.0557 19.8817 12.9435 19.9599 12.7441L19.7471 12.6239C19.6904 12.7632 19.4743 12.859 19.3096 12.6263C19.2588 12.5223 19.2458 12.3622 19.3024 12.2066C19.4375 12.0235 19.6351 12.0433 19.7495 12.2066Z" fill="black"/>
<path id="path5116" fill-rule="evenodd" clip-rule="evenodd" d="M20.5725 11.853L20.577 13.0013L21.2108 12.9989C21.4171 12.9704 21.6874 12.6375 21.3706 12.3787C21.5381 12.2332 21.5171 11.9218 21.182 11.8555L20.5725 11.853ZM20.8162 12.0792H21.1319C21.2707 12.1186 21.2295 12.2502 21.1364 12.2725H20.8162V12.0792ZM20.8187 12.4967L21.1508 12.5011C21.315 12.5493 21.2779 12.7339 21.1557 12.7654L20.8212 12.7629L20.8187 12.4967Z" fill="black"/>
</g>
</g>
</g>
</g>
</g>
<defs>
<clipPath id="clip0_502_893">
<rect width="38.2094" height="25" fill="white" transform="translate(0.371826)"/>
</clipPath>
</defs>
</svg>
