<svg width="66" height="23" viewBox="0 0 66 23" fill="none" xmlns="http://www.w3.org/2000/svg">
    <g clip-path="url(#clip0_222:236)">
        <path d="M58.5371 9.61219C58.9588 11.9419 57.4176 14.4165 54.5395 16.6061C54.512 16.6271 54.5413 16.6685 54.5702 16.6496C56.8648 15.1498 59.2947 13.4687 60.9408 11.2367C61.5301 10.4375 62.0273 9.47836 62.1146 8.47384C62.2775 6.59864 61.0249 4.97642 59.4543 4.09525C58.4086 3.50828 57.2598 3.13985 56.0942 2.87615C54.0642 2.41392 51.9744 2.26729 49.8965 2.29476C48.8405 2.30849 47.785 2.36551 46.7335 2.46536C45.7185 2.56171 44.7033 2.68902 43.699 2.86428C42.7024 3.03837 41.7107 3.23062 40.7274 3.46941C40.6208 3.49548 40.5142 3.52154 40.4076 3.54831C40.3757 3.55646 40.3838 3.6044 40.4171 3.60114C49.9493 2.69903 57.7271 5.13748 58.5371 9.61219Z" fill="#24336B"/>
        <path d="M50.0097 1.15864C49.9766 1.16004 49.9701 1.11233 50.0024 1.10558C50.7363 0.957321 51.4741 0.826287 52.2133 0.707589C53.3893 0.518136 54.5714 0.360803 55.7572 0.246526C57.7975 0.0493927 59.9219 -0.0683756 61.9671 0.223251C62.4265 0.289117 62.8827 0.380119 63.3293 0.506266C64.4432 0.821167 65.5853 1.42118 65.8934 2.61841C66.0948 3.40112 65.9723 4.23527 65.7289 4.99331C65.2555 6.46704 64.3324 7.7818 63.3547 8.96251C63.2939 9.03605 63.2325 9.1089 63.171 9.18152C63.1515 9.20433 63.1147 9.18315 63.1254 9.15475C63.5309 8.08693 63.708 6.8748 63.4997 5.7453C63.1922 4.0791 61.8628 2.8565 60.3695 2.19761C58.5569 1.3979 56.5621 1.2024 54.6024 1.1228C53.0723 1.06019 51.539 1.08998 50.0097 1.15864Z" fill="#24336B"/>
        <path d="M27.5609 16.6824L29.6381 19.4236H22.1436L19.7712 22.5547H16.332L26.8689 8.64786L37.4059 22.5547H33.9664L26.8689 13.187L24.2206 16.6824H27.5609ZM41.6486 13.7377H44.3898V22.5549H41.6486V13.7377ZM34.8129 9.43383H51.2255V12.1751H34.8129V9.43383ZM15.435 18.5892C15.435 20.7758 13.6559 22.5547 11.4693 22.5547L0.0192871 22.5549V22.5547V18.9248H2.76053V19.8135H11.4693C12.1454 19.8135 12.6935 19.2656 12.6935 18.5892C12.6935 17.9131 12.1454 17.3652 11.4693 17.3652H0.0192871V14.6238L9.22263 14.6235C9.89851 14.6235 10.4466 14.0757 10.4466 13.3995C10.4466 12.7232 9.89851 12.1753 9.22263 12.1753H2.76053V13.0639H0.0192871V9.43383H9.22263C11.4092 9.43383 13.1881 11.2129 13.1881 13.3995C13.1881 13.9267 13.0838 14.4297 12.8962 14.8903C14.3797 15.4647 15.435 16.9056 15.435 18.5892Z" fill="#24336B"/>
    </g>
    <defs>
        <clipPath id="clip0_222:236">
            <rect width="66" height="22.5665" fill="white"/>
        </clipPath>
    </defs>
</svg>
