<svg width="160" height="40" viewBox="0 0 160 40" fill="none" xmlns="http://www.w3.org/2000/svg">
    <path fill-rule="evenodd" clip-rule="evenodd" d="M94.6552 10.4175C97.6887 9.90382 101.047 10.079 104.201 9.71845C104.18 11.0274 103.587 12.3032 103.284 13.6068L103.576 13.798L111.241 13.7463L110.391 16.9911L102.449 17.117C101.361 20.3515 100.528 23.7098 99.6003 27.019C99.6152 27.8682 100.284 28.3578 100.982 28.7245C103.4 28.7245 106.237 29.0983 108.358 28.2577L107.356 31.9571L94.159 32.0626C92.3609 31.7811 90.5234 30.1218 90.166 28.4429L90.2412 26.0587C91.783 20.8946 93.1661 15.6226 94.6552 10.4175ZM64.0427 14.1419C66.4371 17.5101 68.6369 20.9262 70.6281 24.4697C66.9107 27.1291 63.1362 29.6534 59.3788 32.1673L59.3871 32.3628L65.5716 32.2581L72.5707 27.5391C73.6231 29.0178 74.632 30.5332 75.1973 32.2167L87.081 32.0924C86.8246 32.0275 86.6166 31.7225 86.4086 31.5731L80.6217 22.0763L92.3609 14.0572L92.35 13.8664L85.2686 14.097C83.5047 16.2764 80.8195 17.357 78.5989 18.9655C77.6251 17.3706 76.2864 15.9319 76.0465 14.057L64.0427 14.1419ZM140.823 13.652L140.962 14.5673L136.706 30.293L135.671 31.8468H146.904L146.669 30.5886L149.423 19.9598C149.536 19.3416 150.054 18.7214 150.662 18.4458C153 18.481 156.471 17.6955 158.619 18.9655L160 13.6873C156.485 14.2362 151.736 12.0928 149.711 15.8118C149.375 15.201 149.562 14.3917 149.515 13.6574L140.823 13.652ZM29.9878 7.32828L7.36748 7.42436L7.40554 9.19237L1.59819 29.7377L0 32.6717L24.174 32.6577C26.361 32.707 28.2341 32.0219 29.2305 30.2868C29.9559 27.7376 31.2595 25.3401 30.9651 22.4993C30.6123 21.3943 29.7795 20.3751 28.7406 19.7057C29.7645 19.4199 30.7848 19.0501 31.5881 18.2708C33.303 16.0971 33.8273 13.3624 33.8961 10.6771C33.508 9.03383 31.7604 7.61013 29.9878 7.32828ZM17.7445 11.5235L23.6758 11.5727C24.5 12.0235 24.2016 13.1778 24.0102 13.7916C23.4902 15.0321 23.5262 16.6818 22.3111 17.5063L15.5091 17.536L17.7445 11.5235ZM14.3148 21.6999L20.6182 21.6741C21.491 22.0449 21.2701 23.2357 21.0326 23.8949C20.2338 25.3298 21.1525 27.5389 19.4496 28.338L12.5903 28.3286C12.883 26.1336 13.7423 23.8987 14.3148 21.6999ZM56.7524 14.2526L36.9099 14.3174L35.5093 17.6717C40.2927 16.9809 45.4612 17.4419 50.2487 17.3156C50.665 17.5063 50.8792 17.9215 50.9277 18.3415C50.7349 18.9162 50.7892 19.6857 50.0935 20.0048L37.0356 20.2965L34.7605 21.3592C32.9064 23.275 32.5021 25.7398 32.3426 28.3086C32.4538 29.8037 33.5076 31.1738 34.8745 31.9573C37.9167 32.8627 42.1767 32.4179 45.7746 32.3138C46.6006 32.1066 47.1415 31.2879 47.5323 30.6287C47.8308 31.1674 48.0598 31.7719 48.2368 32.3466L57.5749 32.3881L57.2739 31.1283L60.0305 20.9563C60.4615 19.6411 60.8782 17.7964 59.9441 16.6211C59.3136 15.4411 57.9953 14.6912 56.7524 14.2526ZM49.3849 23.5837L47.9969 28.5171L47.3976 28.988L42.6839 29.063C40.6545 27.948 42.6204 25.689 42.7995 24.0741L43.5645 23.6003L49.3849 23.5837ZM134.357 13.8366L116.447 13.7463C115.094 13.9965 113.877 14.7821 113.045 15.9417C111.806 19.8002 110.644 23.7004 109.947 27.7729C110.264 29.6536 111.769 31.5021 113.835 31.9337L133.497 31.882L135.03 28.0888L134.049 28.4985L120.572 28.5986L119.867 28.2679C118.785 27.0192 120.072 25.7344 120.211 24.4599L136.429 24.201C136.872 21.6213 138.666 19.0603 137.347 16.2766C136.793 15.1718 135.554 14.1575 134.357 13.8366ZM122.9 17.1662L127.246 17.097C127.652 17.2013 128.11 17.576 128.249 18.001C128.217 18.9162 128.037 19.8062 127.673 20.6546L121.283 20.7613C121.838 19.5602 121.641 17.9161 122.9 17.1662Z" fill="#252969"/>
</svg>
