<svg width="36" height="36" viewBox="0 0 36 36" fill="none" xmlns="http://www.w3.org/2000/svg">
    <g clip-path="url(#clip0_222:374)">
        <path d="M35.9526 16.8631C35.3842 7.48421 27.5684 0 18 0C8.43161 0 0.615784 7.48421 0.0473633 16.8631C0.0473633 17.2421 0.0947315 17.621 0.1421 18C0.521048 21.1264 1.70526 24.0158 3.50526 26.4316C6.77368 30.8842 12.0316 33.7736 18 33.7736C9.66314 33.7736 2.8421 27.2842 2.27368 19.1369C2.22631 18.7579 2.22631 18.379 2.22631 18C2.22631 17.621 2.22631 17.2421 2.27368 16.8631C2.8421 8.71576 9.66314 2.22631 18 2.22631C23.9684 2.22631 29.2263 5.11579 32.4947 9.56839C34.2947 11.9842 35.4789 14.8736 35.8579 18C35.9053 18.379 35.9526 18.7579 35.9526 19.0895C35.9526 18.7105 36 18.3316 36 17.9526C36 17.621 36 17.2421 35.9526 16.8631Z" fill="#89D329"/>
        <path d="M0.0473684 19.1369C0.61579 28.5158 8.43161 36 18 36C27.5684 36 35.3842 28.5158 35.9526 19.1369C35.9526 18.7579 35.9053 18.379 35.8579 18C35.479 14.8737 34.2947 11.9842 32.4947 9.5684C29.2264 5.11579 23.9684 2.22632 18 2.22632C26.3369 2.22632 33.1579 8.71577 33.7263 16.8631C33.7737 17.2421 33.7737 17.621 33.7737 18C33.7737 18.379 33.7737 18.7579 33.7263 19.1369C33.1579 27.3316 26.3369 33.7737 18 33.7737C12.0316 33.7737 6.77369 30.8842 3.50526 26.4316C1.70526 24.0158 0.521053 21.1264 0.142105 18C0.0947365 17.621 0.0473684 17.2421 0.0473684 16.9105C0.0473684 17.2895 0 17.6684 0 18.0474C0 18.379 4.48905e-09 18.7579 0.0473684 19.1369Z" fill="#00BCFF"/>
        <path d="M15.7737 3.45801V8.43169H19.2316C20.0843 8.43169 20.7474 7.76855 20.7474 6.91591C20.7474 6.48959 20.5579 6.11062 20.2737 5.82642C20.4632 5.58957 20.6053 5.25799 20.6526 4.92642C20.6526 4.12115 19.9895 3.45801 19.1843 3.45801H15.7737ZM16.9105 4.50011H18.9948C19.2315 4.50011 19.4211 4.68957 19.4211 4.92642C19.4211 5.16326 19.2315 5.35271 18.9948 5.35271H16.9105V4.50011ZM16.9105 6.39482H19.0421C19.3264 6.39482 19.5159 6.58431 19.5159 6.86851C19.5159 7.15272 19.3264 7.34221 19.0421 7.34221H16.9105V6.39482Z" fill="#10384F"/>
        <path d="M17.4316 9.37903L14.9684 14.3527H16.2474L16.6263 13.5001H19.4211L19.8 14.3527H21.0789L18.5684 9.37903H17.4316ZM18 10.658L18.8526 12.458H17.1474L18 10.658Z" fill="#10384F"/>
        <path d="M19.7053 15.4421H21.1264L18.6158 18.6632V20.4158H17.4316V18.6632L14.921 15.4421H16.3421L18.0474 17.7159L19.7053 15.4421Z" fill="#10384F"/>
        <path d="M27.8526 15.4421V20.4158H29.0368V18.5211H29.9368L31.3579 20.4158H32.7789L31.3105 18.4737C31.9262 18.2842 32.4 17.7159 32.4 17.0053C32.4 16.1527 31.7368 15.4421 30.8842 15.4421H27.8526ZM29.0842 16.4843H30.7895C31.0263 16.4843 31.2632 16.7211 31.2632 16.958C31.2632 17.1948 31.0737 17.4316 30.7895 17.4316H29.0842V16.4843Z" fill="#10384F"/>
        <path d="M3.6474 15.4421V20.4158H7.1053C7.95791 20.4158 8.62112 19.7527 8.62112 18.9001C8.62112 18.4737 8.43163 18.0948 8.1474 17.8106C8.33689 17.5737 8.47893 17.2421 8.5263 16.9106C8.5263 16.1053 7.86316 15.4421 7.0579 15.4421H3.6474ZM4.78421 16.4843H6.86841C7.10525 16.4843 7.29479 16.6737 7.29479 16.9106C7.29479 17.1474 7.10525 17.3369 6.86841 17.3369H4.78421V16.4843ZM4.78421 18.379H6.9158C7.20001 18.379 7.3895 18.5685 7.3895 18.8526C7.3895 19.1369 7.20001 19.3264 6.9158 19.3264H4.78421V18.379Z" fill="#10384F"/>
        <path d="M11.7947 15.4421L9.3316 20.4158H10.6106L10.9895 19.5632H13.7843L14.1632 20.4158H15.4421L12.9316 15.4421H11.7947ZM12.3632 16.7211L13.2158 18.5211H11.5106L12.3632 16.7211Z" fill="#10384F"/>
        <path d="M26.2895 15.4421V16.5113H22.9737V17.3479H26.1947V18.4171H22.9737V19.3468H26.2895V20.4158H21.7895V15.4421H26.2895Z" fill="#10384F"/>
        <path d="M15.7263 27.6632V32.6369H16.9105V30.7422H17.8105L19.2316 32.6369H20.6526L19.1842 30.6948C19.8 30.5053 20.2737 29.9369 20.2737 29.2264C20.2737 28.3738 19.6105 27.6632 18.7579 27.6632H15.7263ZM16.9579 28.7053H18.6632C18.9 28.7053 19.1368 28.9422 19.1368 29.1791C19.1368 29.4158 18.9474 29.6527 18.6632 29.6527H16.9579V28.7053Z" fill="#10384F"/>
        <path d="M20.2737 21.4943V22.5633H16.9579V23.4001H20.179V24.4692H16.9579V25.3988H20.2737V26.4679H15.7737V21.4943H20.2737Z" fill="#10384F"/>
    </g>
    <defs>
        <clipPath id="clip0_222:374">
            <rect width="36" height="36" fill="white"/>
        </clipPath>
    </defs>
</svg>
