<svg width="66" height="12" viewBox="0 0 66 12" fill="none" xmlns="http://www.w3.org/2000/svg">
    <g clip-path="url(#clip0_723_418)">
        <path d="M32.1448 7.20164C32.0819 7.34158 31.7532 7.9755 30.9299 7.9755C29.9764 7.9755 29.6046 7.18469 29.6046 6.59704C29.6046 5.62548 30.2589 4.75248 31.2221 4.75248C32.2589 4.75248 32.506 5.52461 32.5299 5.66456H34.0546C34.146 5.09444 33.6937 3.35132 31.2807 3.35132C29.5158 3.35132 28.1037 4.7611 28.1037 6.64531C28.1037 8.18699 29.0672 9.3758 30.8529 9.3758C33.0785 9.3758 33.6793 7.63009 33.7529 7.20164H32.1448Z" fill="black"/>
        <path d="M20.4427 7.62638C20.4427 7.5373 20.4663 7.36891 20.5447 7.01488C20.6206 6.65999 21.6979 1.69702 21.6979 1.69702H20.2669L19.0795 7.17178C19.0295 7.40196 19.0079 7.62897 19.0079 7.82954C19.0079 9.03013 19.9367 9.38301 20.6801 9.38301C20.9462 9.38301 21.193 9.33875 21.2548 9.33071C21.2784 9.21059 21.5028 8.17984 21.5137 8.13472C21.4815 8.13702 21.3238 8.1488 21.1407 8.1488C20.6088 8.14909 20.4427 7.92322 20.4427 7.62638Z" fill="black"/>
        <path d="M38.7704 3.37037L36.2066 5.67902L37.0707 1.6853H35.6293L33.9928 9.26209H35.433L35.831 7.42098L36.7172 6.71552L37.9425 9.26209H39.546L37.8072 5.85143L40.7667 3.37037H38.7704Z" fill="black"/>
        <path d="M12.5762 6.92002C12.6961 6.37691 13.7113 1.6875 13.7113 1.6875C13.7113 1.6875 15.4608 1.6875 16.4381 1.6875C18.4165 1.6875 18.9033 2.78722 18.9033 3.45447C18.9033 4.93063 17.5091 5.32144 17.3384 5.37489C17.4973 5.42719 18.4022 5.78581 18.4022 6.94502C18.4022 8.20623 17.2395 9.26285 15.4369 9.26285C15.4369 9.26285 14.7903 9.26285 14.6148 9.26285C13.101 9.26314 12.288 8.22376 12.5762 6.92002ZM16.8455 6.8272C16.8455 6.47116 16.6162 6.01943 15.5981 6.01943H14.276L13.88 7.85192H15.3768C16.3455 7.85192 16.8455 7.41542 16.8455 6.8272ZM17.3361 3.7743C17.3361 3.40591 17.0556 3.08895 16.3688 3.08895H14.9099L14.5791 4.61856H16.0993C16.918 4.61827 17.3361 4.22315 17.3361 3.7743Z" fill="black"/>
        <path d="M40.1101 6.92002C40.2302 6.37691 41.2452 1.6875 41.2452 1.6875C41.2452 1.6875 42.9946 1.6875 43.973 1.6875C45.9515 1.6875 46.4386 2.78722 46.4386 3.45447C46.4386 4.93063 45.0443 5.32144 44.8733 5.37489C45.0299 5.42719 45.9374 5.78581 45.9374 6.94502C45.9374 8.20623 44.7733 9.26285 42.9707 9.26285C42.9707 9.26285 42.3248 9.26285 42.1492 9.26285C40.6348 9.26314 39.8216 8.22376 40.1101 6.92002ZM44.3794 6.8272C44.3794 6.47116 44.1498 6.01943 43.1322 6.01943H41.8092L41.4135 7.85192H42.911C43.8794 7.85192 44.3794 7.41542 44.3794 6.8272ZM44.8696 3.7743C44.8696 3.40591 44.5903 3.08895 43.9018 3.08895H42.4434L42.1133 4.61856H43.6337C44.4518 4.61827 44.8696 4.22315 44.8696 3.7743Z" fill="black"/>
        <path d="M56.3335 3.37378C54.8065 3.37378 53.768 4.27752 53.418 5.97351C53.2674 6.70254 52.7137 9.26521 52.7137 9.26521H54.1439C54.1439 9.26521 54.6709 6.82841 54.8375 6.06259C55.0559 5.05885 55.5867 4.71804 56.3002 4.71804C56.531 4.71804 56.6778 4.74419 56.7528 4.75483C56.7922 4.55281 56.9916 3.64677 57.0393 3.42464C56.8844 3.40481 56.6399 3.37378 56.3335 3.37378Z" fill="black"/>
        <path d="M61.1999 11.5192L66 3.37374H64.4551L62.2494 7.20711L61.7341 3.36914C61.7341 3.36914 60.9479 3.36914 60.0813 3.36914C58.1881 3.36914 57.2071 4.23495 56.8591 5.89158C56.6847 6.71831 56.1301 9.26517 56.1301 9.26517H57.5608C57.5608 9.26517 58.0858 6.84618 58.2947 5.87002C58.4968 4.92232 59.1996 4.63266 59.9577 4.79415L60.2591 3.40362C60.4824 4.72433 61.1652 8.94362 61.1652 8.94362L59.6675 11.5192H61.1999Z" fill="black"/>
        <path d="M24.5741 6.75259C24.889 6.70604 25.8106 6.5638 25.9361 6.54598C25.9126 6.64426 25.8755 6.80145 25.8482 6.91754C25.6818 7.6299 24.9562 8.08738 24.156 8.08738C23.6453 8.08738 23.347 7.81266 23.347 7.48622C23.3473 7.21668 23.5945 6.89742 24.5741 6.75259ZM24.0387 5.21839C24.0741 5.16005 24.4422 4.59252 25.3591 4.59252C25.9292 4.59252 26.2215 4.80057 26.2215 5.05229C26.2215 5.40747 25.6468 5.5 24.6514 5.64253C22.9413 5.88966 21.8605 6.42041 21.8605 7.65548C21.8605 8.53077 22.5873 9.38365 23.8781 9.38365C24.9505 9.38365 25.5111 8.73623 25.5609 8.68652C25.5657 8.84198 25.5859 9.07474 25.6025 9.26239C25.72 9.26239 26.7117 9.26239 27.0813 9.26239C27.0301 9.00693 26.9244 8.5164 27.0999 7.73163C27.1928 7.3184 27.4537 6.13075 27.5867 5.47528C27.8399 4.23533 27.1594 3.35889 25.4157 3.35889C23.1738 3.35889 22.5278 4.9704 22.4232 5.21867H24.0387V5.21839Z" fill="black"/>
        <path d="M50.6094 7.49724C50.5571 7.61247 50.2091 8.09811 49.4312 8.09811C48.3111 8.09811 48.0562 7.14839 48.082 6.88804C48.6797 6.88804 52.1329 6.88804 52.4453 6.88804C52.4703 6.78143 52.5689 6.39292 52.5689 5.99407C52.5689 4.61389 51.6332 3.35181 49.7461 3.35181C48.0205 3.35181 46.636 4.80297 46.636 6.52626C46.636 8.19351 47.6372 9.37628 49.4076 9.37628C51.5953 9.37628 52.1847 7.66276 52.2413 7.49753C51.8513 7.49724 50.6094 7.49724 50.6094 7.49724ZM49.7614 4.66015C50.7246 4.66015 51.0927 5.24809 51.0533 5.71964C50.4999 5.71964 48.8539 5.71964 48.2981 5.71964C48.3694 5.42022 48.8289 4.66015 49.7614 4.66015Z" fill="black"/>
        <path d="M3.52506 0.822996C3.52506 0.459774 3.30265 0 2.36787 0C1.98424 0 0.928486 0 0.928486 0L0.519287 1.89312C0.519287 1.89312 1.29717 1.89312 2.01988 1.89312C3.19144 1.89312 3.52506 1.33852 3.52506 0.822996Z" fill="black"/>
        <path d="M7.40237 0.822996C7.40237 0.459774 7.18053 0 6.24604 0C5.86213 0 4.80637 0 4.80637 0L4.39746 1.89283C4.39746 1.89283 5.17505 1.89283 5.89719 1.89283C7.06932 1.89312 7.40237 1.33852 7.40237 0.822996Z" fill="black"/>
        <path d="M3.00577 3.67205C3.00577 3.30882 2.78336 2.8479 1.84858 2.8479C1.46496 2.8479 0.409199 2.8479 0.409199 2.8479L0 4.74217C0 4.74217 0.777881 4.74217 1.50001 4.74217C2.67186 4.74217 3.00577 4.18613 3.00577 3.67205Z" fill="black"/>
        <path d="M6.88309 3.67205C6.88309 3.30882 6.66039 2.8479 5.72647 2.8479C5.34227 2.8479 4.28709 2.8479 4.28709 2.8479L3.87732 4.74217C3.87732 4.74217 4.6552 4.74217 5.37791 4.74217C6.55004 4.74217 6.88309 4.18613 6.88309 3.67205Z" fill="black"/>
        <path d="M10.9397 2.51677C10.9397 2.15326 10.717 1.69263 9.78311 1.69263C9.39892 1.69263 8.34373 1.69263 8.34373 1.69263L7.93396 3.58661C7.93396 3.58661 8.71241 3.58661 9.43397 3.58661C10.6061 3.58661 10.9397 3.03201 10.9397 2.51677Z" fill="black"/>
        <path d="M10.3806 5.48315C10.3806 5.11964 10.1584 4.66016 9.22395 4.66016C8.84032 4.66016 7.78457 4.66016 7.78457 4.66016L7.37537 6.55328C7.37537 6.55328 8.15267 6.55328 8.87538 6.55328C10.0472 6.55328 10.3806 5.99724 10.3806 5.48315Z" fill="black"/>
        <path d="M6.32594 6.63881C6.32594 6.27387 6.1041 5.81323 5.17018 5.81323C4.7857 5.81323 3.72994 5.81323 3.72994 5.81323L3.32074 7.70722C3.32074 7.70722 4.09862 7.70722 4.82075 7.70722C5.99289 7.7075 6.32594 7.1529 6.32594 6.63881Z" fill="black"/>
    </g>
    <defs>
        <clipPath id="clip0_723_418">
            <rect width="66" height="11.5194" fill="white"/>
        </clipPath>
    </defs>
</svg>
