<svg width="70" height="40" viewBox="0 0 70 40" fill="none" xmlns="http://www.w3.org/2000/svg">
    <path d="M0.781738 0.495575V17.7635H9.82296C13.3815 17.7635 16.6701 16.5145 16.6701 12.8458C16.6701 10.3656 14.8833 9.23345 12.9182 8.64082C14.1155 8.16055 15.4737 7.15161 15.4737 5.03655C15.4737 2.32947 12.7877 0.495575 9.17134 0.495575H0.781738ZM6.3205 4.51729H8.35681C9.18576 4.51729 9.81787 5.16661 9.81787 5.82562C9.81787 6.4379 9.16105 7.09322 8.35681 7.09322H6.3205V4.51729ZM6.3205 10.6771H9.00843C9.94679 10.6771 10.7342 11.3898 10.7342 12.2044C10.7342 13.0693 9.99775 13.7876 8.84553 13.7876H6.3205V10.6771Z" fill="#1C252C"/>
    <path d="M5.26172 19.647V36.9149H14.3029C17.8615 36.9149 21.15 35.666 21.15 31.9973C21.15 29.5171 19.3633 28.3849 17.3981 27.7923C18.5955 27.312 19.9537 26.3031 19.9537 24.188C19.9537 21.4809 17.2677 19.647 13.6513 19.647H5.26172ZM10.8005 23.6687H12.8368C13.6657 23.6687 14.2978 24.3181 14.2978 24.9771C14.2978 25.5894 13.641 26.2447 12.8368 26.2447H10.8005V23.6687ZM10.8005 29.8286H13.4884C14.4268 29.8286 15.2142 30.5413 15.2142 31.3558C15.2142 32.2208 14.4777 32.9391 13.3255 32.9391H10.8005V29.8286Z" fill="#1C252C"/>
    <path d="M17.1047 17.7614V0.493469H31.0331V4.66383H22.6272V6.92821H29.4529V10.8379H22.6272V13.6073H31.0331V17.7614H17.1047Z" fill="#1C252C"/>
    <path d="M38.5784 18.2557C42.4989 18.2557 45.6349 16.0193 45.6349 12.3953C45.6349 6.54668 38.0263 7.44669 38.0263 5.62568C38.0263 4.92228 38.7661 4.549 39.5247 4.549C40.8321 4.549 41.7768 5.41035 41.7768 5.41035L45.0501 2.29353C43.7409 1.04754 41.6731 0 38.8877 0C34.7043 0 31.9675 2.48289 31.9675 5.47798C31.9675 11.401 39.4664 10.5414 39.4664 12.3998C39.4664 13.0513 38.8396 13.7067 37.7028 13.7067C36.4122 13.7067 35.3898 12.9276 34.5941 12.2665L31.3015 15.4056C32.6273 16.697 34.7558 18.2557 38.5784 18.2557Z" fill="#1C252C"/>
    <path d="M49.8975 17.7614V4.64754H45.3362V0.493469H59.9976V4.64754H55.4363V17.7614H49.8975Z" fill="#1C252C"/>
    <path d="M21.3403 19.6348H26.8628V29.9793C26.8628 31.0297 27.9082 31.9977 28.9982 31.9977C30.0264 31.9977 31.0658 31.1236 31.0658 29.924V19.6348H36.5719V29.8536C36.5719 33.9085 33.2054 37.143 28.8523 37.143C24.4744 37.143 21.3403 33.6229 21.3403 29.6327V19.6348Z" fill="#1C252C"/>
    <path d="M43.3814 36.9027V30.7324L36.8906 19.6348H42.4781L46.1508 25.5808L49.8362 19.6348H55.4364L48.9202 30.7958V36.9027H43.3814Z" fill="#1C252C"/>
    <path d="M55.4363 29.0854L52.1782 32.3435V36.7419L55.4363 40H69.2181V29.0854H55.4363Z" fill="#FFED31"/>
    <path d="M54.9012 34.5406C54.9012 34.9455 54.573 35.2737 54.1681 35.2737C53.7633 35.2737 53.4351 34.9455 53.4351 34.5406C53.4351 34.1357 53.7633 33.8075 54.1681 33.8075C54.573 33.8075 54.9012 34.1357 54.9012 34.5406Z" fill="#1C252C"/>
</svg>
