<svg width="106" height="40" viewBox="0 0 106 40" fill="none" xmlns="http://www.w3.org/2000/svg">
    <path d="M40.6673 20.0005C40.6673 31.0459 31.5869 40 20.3836 40C9.18125 40 0.098877 31.0459 0.098877 20.0005C0.098877 8.95415 9.18125 0 20.3836 0C31.5869 0 40.6673 8.95415 40.6673 20.0005Z" fill="white"/>
    <path d="M89.9554 9.57404H85.2854V30.5675H89.9554C97.0804 30.5675 101.053 26.414 101.053 20.0708C101.053 13.6802 97.148 9.57404 89.9554 9.57404ZM90.2679 34.948H82.8382C81.4794 34.948 80.392 33.9376 80.392 32.5361V7.56298C80.392 6.22227 81.4794 5.1955 82.8382 5.1955H90.2679C100.34 5.1955 105.901 11.8517 105.901 20.0708C105.901 28.2927 100.28 34.948 90.2679 34.948ZM66.2517 21.4115H57.331V30.526H66.2517C69.8255 30.526 71.4664 28.2473 71.4664 25.9687C71.4664 23.6911 69.848 21.4115 66.2517 21.4115ZM65.1437 9.57404H57.331V17.0793H65.1437C68.2424 17.0793 69.7011 15.3802 69.7011 13.3247C69.7011 11.2267 68.3325 9.57404 65.1437 9.57404ZM66.0763 34.948H54.8828C53.524 34.948 52.4817 33.8758 52.4817 32.5361V7.56298C52.4817 6.22227 53.524 5.1955 54.8828 5.1955H65.3514C71.1039 5.1955 74.5474 8.49607 74.5474 12.7848C74.5474 17.1208 71.8602 18.6663 70.9237 18.9996C72.3765 19.3608 76.3147 21.0048 76.3147 26.4275C76.3147 31.0746 72.5136 34.948 66.0763 34.948Z" fill="#04589C"/>
    <path d="M26.9541 14.5356C26.9884 14.5356 27.0208 14.5298 27.057 14.5212C27.1412 14.4999 38.8216 11.6533 38.8216 11.6533C37.2111 8.20109 34.6346 5.27916 31.4321 3.22463C31.4321 3.22463 26.8895 14.271 26.8659 14.326C26.8474 14.3724 26.8424 14.4014 26.8424 14.4246C26.8424 14.4883 26.8924 14.5356 26.9541 14.5356ZM22.7083 11.7992C22.7259 11.8929 22.7818 11.9238 22.8327 11.9238C22.8827 11.9238 22.9228 11.891 22.9787 11.8339C23.2491 11.5529 31.3057 3.14446 31.3057 3.14446C28.1718 1.16624 24.4511 0.0148551 20.4571 0.000366211C20.4571 0.000366211 22.6025 11.2476 22.7083 11.7992ZM29.0084 18.9509C29.076 18.9731 40.4684 22.8049 40.4684 22.8049C40.5997 21.8883 40.6673 20.9523 40.6673 19.9999C40.6673 17.0751 40.0305 14.2971 38.8863 11.7924C38.8863 11.7924 29.0251 18.6505 28.9644 18.693C28.9046 18.7355 28.8772 18.7732 28.8772 18.8176C28.8772 18.8958 28.9398 18.9287 29.0084 18.9509ZM13.9228 14.4246C13.9228 14.4014 13.9191 14.3724 13.8993 14.326C13.8767 14.271 9.33407 3.22463 9.33407 3.22463C6.13158 5.27916 3.55412 8.20109 1.94357 11.6533C1.94357 11.6533 13.624 14.4999 13.7092 14.5212C13.7454 14.5298 13.7768 14.5356 13.8121 14.5356C13.8728 14.5356 13.9228 14.4883 13.9228 14.4246ZM20.3091 0.000366211C16.3151 0.0148551 12.5934 1.16624 9.46045 3.14446C9.46045 3.14446 17.5161 11.5529 17.7875 11.8339C17.8433 11.891 17.8835 11.9238 17.9335 11.9238C17.9844 11.9238 18.0393 11.8928 18.0579 11.7992C18.1637 11.2476 20.3091 0.000366211 20.3091 0.000366211ZM11.7568 18.9509C11.6892 18.9731 0.296772 22.8049 0.296772 22.8049C0.166473 21.8883 0.098877 20.9523 0.098877 19.9999C0.098877 17.0751 0.735654 14.2971 1.87989 11.7924C1.87989 11.7924 11.7411 18.6505 11.8008 18.693C11.8616 18.7355 11.888 18.7732 11.888 18.8176C11.888 18.8958 11.8254 18.9287 11.7568 18.9509Z" fill="#F26925"/>
    <path d="M20.3831 39.9998C30.549 39.9998 38.9671 32.6269 40.4386 23.0101L32.8786 24.0494C32.762 24.0649 32.714 24.1258 32.6856 24.2069C31.1867 28.513 27.4102 31.7894 22.7264 32.6298C24.5104 31.773 25.7399 29.9677 25.7399 27.8793C25.7399 24.9622 23.3417 22.5977 20.3831 22.5977C17.4255 22.5977 15.0264 24.9622 15.0264 27.8793C15.0264 29.9677 16.2558 31.773 18.0398 32.6298C13.356 31.7894 9.57851 28.513 8.07964 24.2069C8.0512 24.1258 8.0042 24.0649 7.88762 24.0494L0.32666 23.0101C1.79908 32.6269 10.2172 39.9998 20.3831 39.9998Z" fill="#F26925"/>
</svg>
