<svg width="160" height="40" viewBox="0 0 160 40" fill="none" xmlns="http://www.w3.org/2000/svg">
    <path d="M18.9352 26.4456C16.6901 26.4456 15.1824 25.3698 15.1824 22.7734V7.35335H18.5163V22.2242C18.5163 23.009 18.6983 23.5337 19.8365 23.5337C20.1265 23.5337 20.2032 23.5084 20.3909 23.5084V26.2625C19.7322 26.3902 19.5967 26.4456 18.9352 26.4456Z" fill="#233444"/>
    <path d="M30.1376 16.0461C29.6941 15.5786 28.952 15.1825 28.0527 15.1825C27.1562 15.1825 26.4113 15.5786 25.9649 16.0461C25.1698 16.9144 24.986 18.1957 24.986 19.4742C24.986 20.7584 25.1698 22.0416 25.9649 22.9024C26.4113 23.3783 27.1562 23.766 28.0527 23.766C28.952 23.766 29.6941 23.3783 30.1376 22.9024C30.9318 22.0416 31.1194 20.7584 31.1194 19.4742C31.1194 18.1957 30.9318 16.9144 30.1376 16.0461ZM32.8622 24.5028C31.9117 25.6556 30.1376 26.6234 28.0527 26.6234C25.9649 26.6234 24.1946 25.6556 23.2432 24.5028C22.2111 23.2196 21.6321 21.7797 21.6321 19.4742C21.6321 17.1744 22.2111 15.7316 23.2432 14.4503C24.1946 13.3004 25.9649 12.3307 28.0527 12.3307C30.1376 12.3307 31.9117 13.3004 32.8622 14.4503C33.8933 15.7316 34.4752 17.1744 34.4752 19.4742C34.4752 21.7797 33.8933 23.2196 32.8622 24.5028Z" fill="#233444"/>
    <path d="M44.6771 16.0461C44.2279 15.5786 43.4887 15.1825 42.5921 15.1825C41.6909 15.1825 40.9488 15.5786 40.5015 16.0461C39.7074 16.9144 39.5235 18.1957 39.5235 19.4742C39.5235 20.7584 39.7074 22.0416 40.5015 22.9024C40.9488 23.3783 41.6909 23.766 42.5921 23.766C43.4887 23.766 44.2279 23.3783 44.6771 22.9024C45.4712 22.0416 45.6532 20.7584 45.6532 19.4742C45.6532 18.1957 45.4712 16.9144 44.6771 16.0461ZM47.3998 24.5028C46.4473 25.6556 44.6771 26.6234 42.5921 26.6234C40.5015 26.6234 38.7313 25.6556 37.7769 24.5028C36.7487 23.2196 36.1687 21.7797 36.1687 19.4742C36.1687 17.1744 36.7487 15.7316 37.7769 14.4503C38.7313 13.3004 40.5015 12.3307 42.5921 12.3307C44.6771 12.3307 46.4473 13.3004 47.3998 14.4503C48.4309 15.7316 49.0099 17.1744 49.0099 19.4742C49.0099 21.7797 48.4309 23.2196 47.3998 24.5028Z" fill="#233444"/>
    <path d="M67.4214 26.2842V17.8294C67.4214 16.1528 66.9722 15.1822 65.309 15.1822C63.4335 15.1822 62.6109 17.1441 62.6109 18.846V26.2842H59.3348V17.8294C59.3348 16.1528 58.8856 15.1822 57.2195 15.1822C55.3412 15.1822 54.4978 17.1441 54.4978 18.846V26.2842H51.2188V12.6693H53.9718L54.2352 14.4698C55 13.2185 56.3211 12.3305 58.1464 12.3305C60.0749 12.3305 61.395 13.1668 62.0821 14.5542C62.9038 13.1424 64.3822 12.3305 66.2358 12.3305C69.167 12.3305 70.7004 14.2642 70.7004 17.0972V26.2842H67.4214Z" fill="#233444"/>
    <path d="M82.2783 15.7316C81.8282 15.2623 81.1392 14.9497 80.1905 14.9497C79.1869 14.9497 78.3681 15.3655 77.8905 15.9973C77.4157 16.6009 77.2063 17.2261 77.1759 18.1131H83.1255C83.0971 17.0975 82.8081 16.3108 82.2783 15.7316ZM86.3989 20.4984H77.2063C77.1759 21.545 77.5455 22.5419 78.208 23.1727C78.6818 23.6102 79.3414 24.0035 80.2436 24.0035C81.1923 24.0035 81.7789 23.8204 82.2508 23.353C82.5399 23.0638 82.7796 22.6968 82.9123 22.2002H86.0871C86.0018 23.0085 85.4502 24.088 84.9205 24.7113C83.7567 26.0742 82.0414 26.6234 80.2948 26.6234C78.4174 26.6234 77.0442 25.971 75.9629 24.9487C74.5869 23.643 73.8477 21.7252 73.8477 19.5043C73.8477 17.3274 74.5063 15.3928 75.8302 14.057C76.8585 13.0113 78.3397 12.3298 80.218 12.3298C82.2508 12.3298 84.1017 13.1427 85.2379 14.8408C86.2444 16.3352 86.4785 17.8784 86.4282 19.5784C86.4282 19.5784 86.3989 20.2092 86.3989 20.4984Z" fill="#76B96A"/>
    <path d="M97.3968 26.2842V17.9307C97.3968 16.335 96.8699 15.3662 95.1214 15.3662C93.9577 15.3662 93.1938 16.1003 92.7465 17.0972C92.2698 18.1682 92.2945 19.5782 92.2945 20.7365V26.2842H88.9937V12.6693H91.7656L92.0054 14.4228C92.8242 12.9838 94.4599 12.3305 96.0483 12.3305C98.9833 12.3305 100.701 14.3721 100.701 17.2014V26.2842H97.3968Z" fill="#76B96A"/>
    <path d="M111.564 15.7316C111.115 15.2623 110.428 14.9497 109.476 14.9497C108.473 14.9497 107.654 15.3655 107.179 15.9973C106.7 16.6009 106.49 17.2261 106.462 18.1131H112.408C112.386 17.0975 112.094 16.3108 111.564 15.7316ZM115.687 20.4984H106.49C106.462 21.545 106.831 22.5419 107.494 23.1727C107.97 23.6102 108.63 24.0035 109.529 24.0035C110.48 24.0035 111.063 23.8204 111.539 23.353C111.828 23.0638 112.066 22.6968 112.201 22.2002H115.37C115.29 23.0085 114.736 24.088 114.209 24.7113C113.045 26.0742 111.327 26.6234 109.581 26.6234C107.706 26.6234 106.33 25.971 105.246 24.9487C103.873 23.643 103.136 21.7252 103.136 19.5043C103.136 17.3274 103.792 15.3928 105.116 14.057C106.145 13.0113 107.628 12.3298 109.501 12.3298C111.539 12.3298 113.39 13.1427 114.524 14.8408C115.527 16.3352 115.768 17.8784 115.717 19.5784C115.717 19.5784 115.687 20.2092 115.687 20.4984Z" fill="#76B96A"/>
    <path d="M125.15 15.5785C122.822 15.5785 121.609 17.226 121.609 19.4282V26.2844H118.277V12.6695H121.082L121.371 14.7131C122.005 13.1426 123.644 12.4865 125.257 12.4865C125.599 12.4865 125.941 12.5165 126.286 12.5663V15.7071C125.916 15.6274 125.521 15.5785 125.15 15.5785Z" fill="#76B96A"/>
    <path d="M133.026 14.7898C131.52 14.7898 130.594 15.8636 130.594 17.3271C130.594 18.7943 131.52 19.8456 133.026 19.8456C134.535 19.8456 135.459 18.7943 135.459 17.3271C135.459 15.8636 134.535 14.7898 133.026 14.7898ZM133.635 26.4925H131.043C130.332 26.7047 129.803 27.3083 129.803 28.1691C129.803 29.8953 131.97 30.054 133.266 30.054C134.585 30.054 136.912 29.9751 136.912 28.1691C136.912 26.4925 134.877 26.4925 133.635 26.4925ZM133.396 32.6467C131.729 32.6467 129.959 32.5152 128.53 31.524C127.478 30.7862 126.865 29.8193 126.865 28.5351C126.865 27.358 127.45 26.2841 128.504 25.7603C127.632 25.2872 127.129 24.3204 127.129 23.4296C127.129 22.2768 127.659 21.3597 128.771 20.682C127.924 19.8456 127.398 18.7173 127.398 17.3271C127.398 14.0848 129.935 12.3304 133.026 12.3304C134.162 12.3304 135.246 12.6476 136.145 13.1667C136.727 11.9868 137.783 11.4668 138.947 11.4668C139.162 11.4668 139.634 11.4668 139.846 11.5193V14.0566C139.763 14.0566 139.661 14.0294 139.579 14.0294C138.812 14.0294 138.125 14.2406 137.916 14.8986C138.368 15.628 138.627 16.439 138.627 17.3543C138.627 20.4708 135.987 22.3041 133.026 22.3041C132.259 22.3041 131.493 22.1708 130.806 21.938C130.489 22.121 130.119 22.4599 130.119 22.9029C130.119 23.7196 130.938 23.9027 131.625 23.9027H133.895C135.274 23.9027 137.072 23.9261 138.368 24.8207C139.557 25.628 140.031 26.7788 140.031 28.0902C140.031 31.676 136.462 32.6467 133.396 32.6467Z" fill="#76B96A"/>
    <path d="M149.099 28.6145C148.416 30.3952 147.276 32.021 144.872 32.021C143.79 32.021 143.046 31.8624 142.334 31.6765V28.9533C143.205 29.111 143.446 29.188 144.181 29.188C144.792 29.188 145.428 28.9806 145.768 28.1686L146.565 26.263L141.14 12.6697H144.767L148.36 22.5139L151.794 12.6697H155.153L149.099 28.6145Z" fill="#76B96A"/>
    <path d="M6.31825 23.558C4.69675 23.558 3.47518 22.6155 3.33397 20.832H3.33682V18.0403H5.09099H5.09383H5.99509C7.72652 18.0403 9.24945 18.9142 9.24945 20.8123C9.24945 22.5554 7.96723 23.558 6.31825 23.558ZM6.31825 10.3091V10.3063C7.78243 10.3091 8.84953 11.3905 8.84953 12.7075C8.84953 14.4281 7.80991 15.1631 5.99509 15.1631H5.2284V15.1556H3.33682V10.3091H6.31825ZM9.56977 16.5646C11.2462 15.9836 12.2337 14.2949 12.2337 12.6315C12.2337 9.46242 9.67402 7.40479 6.31825 7.40479L0 7.40291V20.8207V20.8291V20.832C0.115618 24.2545 2.88382 26.4585 6.29076 26.4585C9.78205 26.4585 12.6062 24.5389 12.6062 20.8676C12.6062 18.9686 11.486 17.0922 9.56977 16.5646Z" fill="#233444"/>
    <path d="M158.241 13.8492C158.163 13.8191 158.055 13.805 157.915 13.805H157.78V14.4208H157.998C158.128 14.4208 158.231 14.3945 158.305 14.3429C158.379 14.2903 158.415 14.2068 158.415 14.0913C158.415 13.9749 158.357 13.8942 158.241 13.8492ZM157.218 15.5538V13.4296C157.351 13.4296 157.55 13.4314 157.815 13.4314C158.08 13.4333 158.227 13.4343 158.257 13.4352C158.427 13.4474 158.567 13.484 158.679 13.5441C158.87 13.6483 158.966 13.8172 158.966 14.051C158.966 14.2303 158.915 14.3589 158.814 14.4387C158.714 14.5175 158.591 14.5654 158.444 14.5804C158.578 14.6086 158.679 14.6499 158.748 14.7034C158.873 14.8048 158.936 14.9634 158.936 15.1802V15.3699C158.936 15.3905 158.939 15.4121 158.94 15.4318C158.943 15.4525 158.948 15.4731 158.957 15.4947L158.976 15.5538H158.441C158.424 15.4872 158.412 15.3886 158.405 15.26C158.399 15.1324 158.387 15.0451 158.37 15.0009C158.342 14.9258 158.289 14.8742 158.213 14.8451C158.17 14.8273 158.106 14.816 158.021 14.8104L157.897 14.8029H157.78V15.5538H157.218ZM156.929 13.3779C156.621 13.6905 156.468 14.0604 156.468 14.4884C156.468 14.9324 156.623 15.3098 156.937 15.6195C157.248 15.9293 157.624 16.0842 158.066 16.0842C158.505 16.0842 158.88 15.9284 159.192 15.6167C159.503 15.3032 159.659 14.9268 159.659 14.4884C159.659 14.0632 159.504 13.6924 159.195 13.3779C158.881 13.0597 158.505 12.8992 158.066 12.8992C157.62 12.8992 157.242 13.0597 156.929 13.3779ZM159.419 15.8636C159.044 16.2241 158.592 16.4052 158.066 16.4052C157.521 16.4052 157.062 16.2194 156.69 15.8495C156.317 15.4806 156.131 15.0282 156.131 14.4884C156.131 13.928 156.332 13.4634 156.734 13.0926C157.111 12.7452 157.557 12.5725 158.066 12.5725C158.598 12.5725 159.054 12.7593 159.433 13.1348C159.811 13.5084 160 13.9599 160 14.4884C160 15.0329 159.807 15.4909 159.419 15.8636Z" fill="#76B96A"/>
</svg>
