<svg width="118" height="40" viewBox="0 0 118 40" fill="none" xmlns="http://www.w3.org/2000/svg">
<path d="M46.4941 21.433C50.4182 20.5899 49.8825 15.8952 49.7675 14.8694C49.5741 13.2871 47.7144 10.5241 45.1908 10.7449C42.0136 11.0279 41.5498 15.6173 41.5498 15.6173C41.1194 17.7423 42.5767 22.278 46.4941 21.433ZM53.7812 13.5631C55.9473 13.5631 57.6982 11.0669 57.6982 7.98334C57.6982 4.89929 55.9473 2.40714 53.7812 2.40714C51.6141 2.40714 49.8587 4.89929 49.8587 7.98334C49.8587 11.0669 51.6136 13.5631 53.7812 13.5631ZM63.1199 13.9302C66.0197 14.3099 67.8774 11.2168 68.2491 8.87296C68.6288 6.5322 66.7554 3.80967 64.7073 3.34232C62.6501 2.86941 60.082 6.16258 59.8506 8.31093C59.5686 10.9388 60.2232 13.559 63.1199 13.9302ZM74.603 17.8679C74.603 16.7469 73.6749 13.3676 70.2187 13.3676C66.7554 13.3676 66.2977 16.5565 66.2977 18.8097C66.2977 20.96 66.4769 23.9595 70.7777 23.8664C75.0739 23.7712 74.603 18.9965 74.603 17.8679ZM70.2187 27.7089C70.2187 27.7089 65.7362 24.2416 63.1199 20.4927C59.5675 14.9651 54.5275 17.2162 52.8425 20.0233C51.1625 22.8375 48.5508 24.6147 48.1772 25.0866C47.7999 25.5489 42.7635 28.2704 43.881 33.24C45.001 38.2056 48.9286 38.1114 48.9286 38.1114C48.9286 38.1114 51.8232 38.3945 55.1802 37.6436C58.5443 36.8947 61.4384 37.8274 61.4384 37.8274C61.4384 37.8274 69.2855 40.4588 71.4298 35.3955C73.5767 30.3362 70.2187 27.7089 70.2187 27.7089Z" fill="#2319DC"/>
<path d="M54.4773 22.875V26.2107H51.7593C51.7593 26.2107 49.0429 26.436 48.092 29.515C47.7603 31.5707 48.3846 32.7813 48.4935 33.04C48.6034 33.2983 49.4813 34.8021 51.6859 35.2436H56.7861V22.9114L54.4773 22.875ZM54.4363 33.2193H52.3816C52.3816 33.2193 50.9502 33.1448 50.5142 31.4967C50.2894 30.7666 50.5477 29.9231 50.6611 29.5914C50.7649 29.2593 51.2454 28.4917 52.2363 28.196H54.4358L54.4363 33.2193Z" fill="white"/>
<path d="M58.0364 26.5099V33.0031C58.0364 33.0031 58.1427 34.6188 60.4212 35.2076H66.2906V26.5089H63.7574V33.039H61.3402C61.3402 33.039 60.5675 32.9266 60.4222 32.3059V26.4714L58.0364 26.5099Z" fill="white"/>
<path d="M94.2556 22.2466V19.5094H76.2242L76.2009 22.2871H83.9528L83.2257 23.9484H76.6333V37.6846H92.2936C93.9306 37.6846 93.7852 36.0309 93.7852 36.0309V23.9489H87.1832L87.7635 22.2481H94.2551V22.2466H94.2556ZM90.7538 34.7519C90.7538 34.7519 90.564 35.2081 90.2956 35.2081H79.9042V32.0041H90.7554L90.7538 34.7519ZM90.7361 29.358H79.9027V26.3534H90.7361V29.358Z" fill="#E10601"/>
<path d="M114.86 19.5828H107.785V18.197H104.467V19.5145H96.3513V37.6568H99.2713V21.8547H114.86V19.5828ZM112.951 23.3378V22.2877H110.099V23.3378H104.231V22.3251H101.53V23.3378H99.7042L99.7402 25.393H101.53V29.2527H111.399C112.769 29.2527 112.95 27.8077 112.95 27.8077V25.392H115.038V23.3363H112.95L112.951 23.3378ZM110.099 26.796C110.099 26.796 109.844 27.2639 109.519 27.2639H104.2V25.3525H110.098V26.797H110.099V26.796ZM100.103 32.0654L104.646 34.7003C104.286 35.0958 102.735 35.598 102.735 35.598H99.7057V37.6234H103.818C105.045 37.3722 107.317 36.2178 107.317 36.2178C108.257 37.0811 110.064 37.4406 110.064 37.4406H114.751V35.4203H111.218C110.265 35.278 109.41 34.7347 109.41 34.7347L114.752 31.6674V30.0066H100.104V32.0644L100.103 32.0654ZM109.556 32.0315L106.957 33.4021L104.576 32.0315H109.556Z" fill="#E10601"/>
<path d="M36.1038 22.4714H40.0395V19.0041H36.1038V22.4714ZM36.1038 37.5828H40.0395V23.9818H36.1038V37.5828Z" fill="#E10601"/>
<path d="M29.7042 23.9935L21.3073 23.9717V26.8309H28.6703C28.6703 26.8309 30.4227 27.2633 30.4227 28.3752V29.3823H23.7599C23.7599 29.3823 21.1397 29.6243 20.2982 32.754C20.1533 34.2203 20.3463 34.9403 20.445 35.2076C20.5397 35.4724 21.3073 37.2016 23.5923 37.6335H34.2014V27.8902C34.2014 27.8902 33.6961 24.5469 29.7042 23.9935ZM30.4227 34.9418H25.0607C24.3402 34.6512 24.1002 34.1717 24.0495 34.0502C23.9999 33.9322 23.8328 33.5013 24.0273 33.0659C24.4612 32.2264 25.1802 32.0324 25.1802 32.0324H30.4227V34.9418Z" fill="#E10601"/>
<path d="M19.4328 32.8127C19.5488 29.5008 16.5776 28.3555 16.5776 28.3555C19.0926 27.0401 18.7731 23.7246 18.7731 23.7246C18.5007 18.6507 12.3012 18.8877 12.3012 18.8877H2.72192V37.7975H13.5381C19.89 37.7722 19.4328 32.8127 19.4328 32.8127ZM13.3209 34.2826V34.2912H6.84142V30.2112H13.289L13.5072 30.2552C13.5072 30.2552 14.7341 30.4796 15.1786 31.5828C15.1786 31.5828 15.4358 32.6198 14.8804 33.3899C14.8804 33.3899 14.4718 34.1018 13.3209 34.2826ZM14.6946 25.515C14.6946 25.515 14.2591 26.315 13.1037 26.4882H6.84142V22.5747H13.0769C13.0769 22.5747 14.4318 22.5125 14.8804 23.5884C14.8804 23.5884 15.1498 24.7322 14.6946 25.515Z" fill="#E10601"/>
</svg>
