<svg width="116" height="40" viewBox="0 0 116 40" fill="none" xmlns="http://www.w3.org/2000/svg">
<path d="M26.3787 33.6899V11.8588H34.8115C36.0097 11.8288 37.2056 11.979 38.3601 12.3043C39.3537 12.6437 40.2106 13.3009 40.8008 14.1761C41.4956 15.1485 41.8573 16.3232 41.8309 17.5218C41.8541 18.6593 41.4851 19.7697 40.7868 20.663C40.0633 21.567 39.0373 22.1728 37.9019 22.3666C39.4235 22.6338 40.5749 23.2577 41.3562 24.2384C42.1411 25.2252 42.5568 26.4592 42.5307 27.7243C42.5508 28.5069 42.4162 29.2858 42.1344 30.0152C41.8526 30.7446 41.4295 31.4099 40.8896 31.9723C39.7956 33.1192 38.113 33.6918 35.8416 33.6899H26.3787ZM30.0689 21.0245H34.8198C35.2363 21.0539 35.6543 20.9938 36.0461 20.8483C36.438 20.7027 36.7948 20.4748 37.0929 20.1798C37.3909 19.8847 37.6237 19.5293 37.7756 19.1367C37.9275 18.7443 37.9951 18.3237 37.9741 17.9029C37.9741 16.9025 37.6521 16.1628 37.0079 15.6892C36.349 15.2104 35.5538 14.9606 34.7421 14.9775H30.0633L30.0689 21.0245ZM30.0689 30.4115H35.1113C36.1776 30.4115 37.0199 30.1312 37.6381 29.5709C37.9335 29.2719 38.1677 28.9169 38.3269 28.5265C38.4862 28.136 38.5675 27.7177 38.5662 27.2954C38.5649 26.8732 38.481 26.4553 38.3194 26.0658C38.1577 25.6765 37.9215 25.323 37.6242 25.0258C36.935 24.4183 36.0393 24.1039 35.1253 24.1487H30.0633L30.0689 30.4115Z" fill="#0092CC"/>
<path d="M48.1839 15.647H44.5742V11.8586H48.1839V15.647ZM48.1839 33.6926H44.5742V17.5357H48.1839V33.6926Z" fill="#0092CC"/>
<path d="M57.4776 34.0256C55.1099 34.0256 53.3023 33.1673 52.0547 31.4505C50.8103 29.7419 50.154 27.6694 50.1859 25.5492C50.1859 23.1619 50.8755 21.1733 52.2546 19.5835C53.6336 17.9939 55.4533 17.199 57.7136 17.199C58.7076 17.1726 59.6952 17.3666 60.6068 17.7675C61.5184 18.1685 62.3317 18.7663 62.9892 19.5191C64.3683 21.0659 65.0578 23.0759 65.0578 25.5492C65.0578 28.0973 64.3424 30.1522 62.9115 31.7139C62.2216 32.4722 61.3786 33.0722 60.4392 33.4734C59.4998 33.8746 58.4861 34.0677 57.4664 34.0396L57.4776 34.0256ZM57.5913 31.0329C60.0237 31.0329 61.2389 29.2041 61.2372 25.5464C61.2372 23.8932 60.9465 22.5902 60.3653 21.6375C59.784 20.6847 58.8918 20.2074 57.6885 20.2056C56.4409 20.2056 55.5153 20.6988 54.9119 21.6851C54.3084 22.6714 54.0076 23.9792 54.0095 25.6081C54.0095 27.3678 54.3296 28.711 54.9702 29.6375C55.2509 30.0788 55.6395 30.4396 56.0987 30.685C56.5578 30.9304 57.072 31.0522 57.5913 31.0386" fill="#0092CC"/>
<path d="M92.7884 28.5391L96.0541 28.9873C95.6438 30.4324 94.7759 31.702 93.5824 32.6021C92.3553 33.5529 90.8179 34.0274 88.9705 34.0256C86.7491 34.0256 84.9628 33.2783 83.6115 31.7839C82.2602 30.2894 81.5845 28.2532 81.5845 25.6752C81.5845 23.2338 82.2657 21.2134 83.6282 19.6143C84.9906 18.0152 86.8417 17.2148 89.1815 17.2129C91.4639 17.2129 93.228 18.0022 94.4736 19.5807C95.7201 21.1592 96.3452 23.1805 96.3508 25.6445L96.3341 26.0619H85.3386C85.3133 26.9515 85.418 27.84 85.6496 28.6988C85.8739 29.3882 86.3021 29.9916 86.8768 30.4276C87.5361 30.9336 88.3483 31.1939 89.1759 31.1646C90.9605 31.1646 92.1636 30.2894 92.7857 28.5391H92.7884ZM92.5662 23.7222C92.5995 22.6737 92.2283 21.653 91.5306 20.8752C91.2089 20.5326 90.8227 20.2585 90.3944 20.0689C89.9661 19.8793 89.5047 19.7781 89.037 19.7713C88.5695 19.7645 88.1053 19.8523 87.6718 20.0294C87.2383 20.2065 86.8444 20.4693 86.5131 20.8024C85.8523 21.4805 85.4607 22.4538 85.3386 23.7222H92.5662Z" fill="#0092CC"/>
<path d="M111.589 33.6893H107.98V23.6017C107.98 22.5369 107.737 21.7345 107.252 21.1947C107.035 20.939 106.764 20.7344 106.461 20.595C106.156 20.4557 105.825 20.3849 105.491 20.3877C104.552 20.3877 103.728 20.8033 103.021 21.6346C102.314 22.4658 101.957 23.7221 101.952 25.4034V33.7032H98.3416V17.5351H101.626V21.2788C102.78 18.5607 104.396 17.2007 106.477 17.1989C107.807 17.1682 109.097 17.649 110.088 18.5439C111.087 19.4368 111.586 21.0088 111.586 23.2598L111.589 33.6893Z" fill="#0092CC"/>
<path d="M80.2935 31.0476C79.368 30.1958 78.087 29.7698 76.4506 29.7698H71.6747C70.9417 29.7698 70.3974 29.6045 70.0365 29.271C69.8736 29.139 69.7409 28.9729 69.6475 28.7844C69.554 28.5957 69.502 28.389 69.495 28.1782C69.495 27.4609 69.8652 26.9313 70.6057 26.5895C71.5783 26.8453 72.5773 26.9855 73.5823 27.007C75.5463 27.007 77.1244 26.54 78.3166 25.6059C78.8768 25.2005 79.3324 24.6651 79.6446 24.0447C79.9567 23.4244 80.1165 22.7374 80.1102 22.0417C80.0969 21.0417 79.7148 20.0826 79.0384 19.3516L81.3459 19.147L80.8294 16.0284L76.4673 17.5078H76.4506C75.4305 17.2847 74.3899 17.1711 73.3462 17.1688C71.1249 17.1688 69.4645 17.6451 68.3649 18.5978C67.8532 19.011 67.4402 19.535 67.1566 20.1312C66.873 20.7274 66.726 21.3804 66.7267 22.0417C66.7267 23.6389 67.4671 24.8924 68.948 25.802C67.2413 26.6371 66.387 27.7579 66.3851 29.1646C66.3851 30.0986 66.884 30.9925 67.8818 31.8462C66.3213 32.5935 65.541 33.691 65.541 35.1387C65.541 38.0622 68.1326 39.524 73.3157 39.524C76.0757 39.524 78.1582 39.0205 79.5632 38.0137C80.9683 37.0068 81.6717 35.7383 81.6736 34.2083C81.6843 33.6121 81.5665 33.0205 81.3282 32.4748C81.0899 31.929 80.7368 31.442 80.2935 31.0476ZM71.2693 20.2455C71.7932 19.7299 72.5337 19.4721 73.4907 19.4721C74.4477 19.4721 75.1659 19.7187 75.6454 20.2119C75.8879 20.4484 76.079 20.7331 76.2066 21.0481C76.3342 21.3631 76.3956 21.7015 76.3867 22.0417C76.3867 23.9097 75.4001 24.8438 73.4268 24.8438C72.5012 24.8438 71.7793 24.5972 71.261 24.104C71.0029 23.857 70.8001 23.5573 70.6659 23.2248C70.5319 22.8924 70.4697 22.5348 70.4835 22.1762C70.4732 21.8167 70.5378 21.4591 70.6732 21.1266C70.8085 20.794 71.0116 20.4938 71.2693 20.2455ZM74.1376 37.0301C72.2384 37.0301 70.85 36.7499 69.9726 36.1895C69.0952 35.6291 68.6602 34.9752 68.6675 34.228C68.6675 33.7797 68.9285 33.3117 69.4478 32.827C70.2978 33.0703 71.1747 33.2049 72.0579 33.2276H75.9091C76.4899 33.2186 77.0634 33.3594 77.5752 33.6367C77.7999 33.7465 77.9886 33.9193 78.1186 34.1345C78.2486 34.3497 78.3144 34.5981 78.3082 34.85C78.3045 36.3034 76.9143 37.0301 74.1376 37.0301Z" fill="#0092CC"/>
<path d="M14.3279 13.9317C14.0503 14.1698 13.8559 14.3099 13.8559 14.3099C10.6238 16.717 6.48937 17.8827 6.48937 17.8827L5.8313 18.0704C6.87445 19.1146 8.12893 19.919 9.50882 20.4284C10.8886 20.9377 12.3614 21.1402 13.8259 21.0217C15.2906 20.9033 16.7125 20.4669 17.9944 19.7422C19.2764 19.0176 20.3879 18.0219 21.253 16.8234C19.4009 17.4875 16.8242 16.1313 14.3279 13.9317Z" fill="#E3E9B2"/>
<path d="M23.1937 10.1382C23.1937 10.0766 23.1937 10.0149 23.1937 9.95327C23.1827 9.80388 23.1688 9.65532 23.1521 9.50779L23.1271 9.31997C23.1049 9.15189 23.0772 8.98657 23.0466 8.81844C23.0466 8.78762 23.0466 8.75399 23.0271 8.72036C22.9882 8.52141 22.9411 8.32527 22.8911 8.12912C22.8911 8.08429 22.8661 8.03945 22.8522 7.99462C22.8134 7.84611 22.7689 7.6976 22.7189 7.55189C22.7023 7.49304 22.6801 7.4342 22.6606 7.37535C22.6135 7.23525 22.5634 7.09514 22.508 6.96344L22.4496 6.80933C22.3747 6.63279 22.2997 6.45626 22.2163 6.28533C22.1914 6.22929 22.1608 6.17606 22.1331 6.12001C22.0775 6.00793 22.0192 5.89584 21.9581 5.78656C21.9414 5.75293 21.922 5.72211 21.9054 5.69128C21.0418 7.42019 18.6233 8.92772 15.7189 10.0485C15.8733 10.6883 15.8733 11.3563 15.7189 11.9961C15.4746 12.8114 14.7915 13.5231 14.3306 13.9323C16.8296 16.132 19.4036 17.4882 21.2584 16.8241C21.6234 16.3255 21.943 15.7946 22.2135 15.238C22.2358 15.1933 22.2552 15.1456 22.2774 15.0979L22.4024 14.8177C22.4385 14.7309 22.4718 14.6412 22.508 14.5515C22.5441 14.4619 22.5495 14.4451 22.5718 14.389C22.6107 14.2854 22.6468 14.1789 22.6828 14.0723C22.6828 14.0332 22.7107 13.9939 22.7217 13.9547C22.7606 13.837 22.7967 13.7193 22.83 13.6016C22.83 13.5736 22.83 13.5484 22.8494 13.5231C22.9718 13.0939 23.0646 12.6567 23.1271 12.2146C23.1271 12.1838 23.1271 12.1529 23.1271 12.1221C23.1494 11.94 23.1688 11.755 23.1827 11.5617C23.1827 11.5112 23.1827 11.458 23.1827 11.4048C23.1827 11.189 23.2077 10.9705 23.2077 10.7491C23.2077 10.5277 23.2077 10.3456 23.1937 10.1382Z" fill="#B6CB6F"/>
<path d="M21.5668 5.15306C21.5028 5.05218 21.4335 4.95131 21.3641 4.85323C21.2502 4.68791 21.1308 4.52539 21.0058 4.36847L20.8642 4.18633C20.767 4.07145 20.6698 3.95656 20.5699 3.84448L20.5477 3.82766C19.269 2.41196 17.6243 1.38425 15.7987 0.860029C13.973 0.335814 12.0386 0.335884 10.2129 0.860231C10.7682 1.47669 11.1847 1.96146 11.1847 1.96146C11.1847 1.96146 14.0114 5.22871 15.4163 9.01997C15.5455 9.35366 15.6468 9.69766 15.719 10.0484C18.6234 8.92749 21.0419 7.41996 21.8916 5.69106C21.7897 5.50986 21.6814 5.33053 21.5668 5.15306Z" fill="#6BA054"/>
<path d="M15.719 10.0483C15.6467 9.69765 15.5455 9.35365 15.4163 9.02C14.0113 5.22874 11.1846 1.96148 11.1846 1.96148C11.1846 1.96148 10.7626 1.47672 10.2128 0.86026C10.0906 0.896687 9.96844 0.933111 9.849 0.975148L9.79625 0.991958C9.67691 1.03119 9.56025 1.07322 9.4436 1.11805L9.40751 1.13206C9.03913 1.27386 8.67938 1.4376 8.3302 1.62243H8.31354L8.05253 1.77374L7.90536 1.86622L7.68046 2.00072L7.51663 2.10439L7.31948 2.2361L7.13067 2.36779L6.9613 2.49108L6.71694 2.67882L6.61421 2.76009C6.49758 2.85536 6.38374 2.95063 6.27267 3.0403L6.20049 3.10475L5.93947 3.35133L5.90615 3.38215C4.58381 4.67732 3.63422 6.3101 3.15846 8.10668C2.68271 9.90323 2.6986 11.7964 3.20445 13.5846C3.20445 13.5846 3.20445 13.5846 3.20445 13.6015C3.3892 14.2501 3.63659 14.879 3.94304 15.4789L3.97358 15.5377C4.02635 15.6414 4.08465 15.7451 4.14296 15.8487C4.14296 15.8711 4.17073 15.8963 4.18462 15.9216C4.24292 16.0225 4.30123 16.1233 4.36232 16.2242L4.38453 16.2578C4.57752 16.5653 4.78701 16.8617 5.01207 17.1461C5.03984 17.1854 5.0676 17.2217 5.09814 17.2582C5.12868 17.2946 5.21477 17.4011 5.27585 17.4711L5.39247 17.6057L5.56463 17.799L5.70624 17.9447L5.82841 18.0736L6.48371 17.8858C6.48371 17.8858 10.6237 16.7174 13.8558 14.3104C13.8558 14.3104 14.0557 14.1703 14.3278 13.9321C14.7999 13.523 15.483 12.8112 15.7162 11.9958C15.8714 11.3563 15.8723 10.6884 15.719 10.0483Z" fill="#4D759B"/>
<path d="M6.47262 0.849365C6.47262 0.849365 1.78836 2.98737 0.391691 7.71172C-1.00498 12.4361 1.78003 16.771 1.78003 16.771C1.78003 16.771 5.91173 15.5968 9.14379 13.1982C9.14379 13.1982 10.6321 12.1726 11.0153 10.8837C11.3901 9.59189 10.7015 7.91347 10.7015 7.91347C9.2965 4.10822 6.47262 0.849365 6.47262 0.849365Z" fill="#7DAAD5"/>
<path d="M114.458 31.9131C114.635 31.9125 114.808 31.965 114.955 32.0638C115.102 32.1627 115.218 32.3033 115.286 32.4682C115.354 32.633 115.372 32.8145 115.338 32.9897C115.303 33.1649 115.219 33.3259 115.094 33.4524C114.969 33.5789 114.809 33.6651 114.635 33.7002C114.462 33.7351 114.282 33.7175 114.119 33.6493C113.955 33.5811 113.816 33.4654 113.717 33.317C113.619 33.1685 113.567 32.994 113.567 32.8154C113.567 32.5766 113.661 32.3475 113.827 32.1784C113.995 32.0093 114.221 31.9138 114.458 31.9131ZM114.458 33.5551C114.604 33.5557 114.746 33.5125 114.867 33.4312C114.989 33.3498 115.084 33.2338 115.14 33.0981C115.195 32.9623 115.21 32.8127 115.182 32.6684C115.154 32.5242 115.084 32.3916 114.981 32.2875C114.877 32.1835 114.746 32.1127 114.603 32.0842C114.461 32.0556 114.312 32.0706 114.178 32.1271C114.043 32.1837 113.929 32.2792 113.848 32.4018C113.767 32.5243 113.724 32.6683 113.725 32.8154C113.726 33.0114 113.803 33.1991 113.94 33.3377C114.077 33.4763 114.263 33.5544 114.458 33.5551ZM114.283 33.2946H114.08V32.3307H114.524C114.58 32.3307 114.889 32.3307 114.889 32.6109C114.89 32.6675 114.874 32.7233 114.842 32.7698C114.81 32.8163 114.764 32.851 114.71 32.8686L114.889 33.2862H114.677L114.519 32.9023H114.286L114.283 33.2946ZM114.283 32.751H114.494C114.563 32.751 114.677 32.7313 114.677 32.6164C114.677 32.5576 114.638 32.4876 114.514 32.4876H114.283V32.751Z" fill="#0092CC"/>
</svg>
