<svg width="160" height="26" viewBox="0 0 160 26" fill="none" xmlns="http://www.w3.org/2000/svg">
<g clip-path="url(#clip0_112_3912)">
<path d="M121.775 9.86888V24.0153C121.774 24.0355 121.778 24.0557 121.785 24.0747C121.792 24.0937 121.803 24.111 121.817 24.1256C121.831 24.1402 121.848 24.1519 121.867 24.1598C121.885 24.1677 121.905 24.1718 121.926 24.1718H124.03C124.07 24.1702 124.108 24.153 124.136 24.1238C124.164 24.0946 124.18 24.0557 124.18 24.0153V17.2458H128.376V24.0153C128.376 24.0557 128.391 24.0946 128.419 24.1238C128.447 24.153 128.486 24.1702 128.526 24.1718H130.636C130.677 24.1702 130.715 24.153 130.743 24.1238C130.771 24.0946 130.787 24.0557 130.787 24.0153V9.86888C130.787 9.84914 130.783 9.8296 130.775 9.81136C130.768 9.79313 130.757 9.77656 130.743 9.7626C130.729 9.74865 130.712 9.73758 130.694 9.73002C130.676 9.72247 130.656 9.71858 130.636 9.71858H128.526C128.506 9.71858 128.487 9.72247 128.468 9.73002C128.45 9.73758 128.434 9.74865 128.42 9.7626C128.406 9.77656 128.395 9.79313 128.387 9.81136C128.38 9.8296 128.376 9.84914 128.376 9.86888V16.0434H124.18V9.86888C124.18 9.84914 124.176 9.8296 124.169 9.81136C124.161 9.79313 124.15 9.77656 124.136 9.7626C124.122 9.74865 124.105 9.73758 124.087 9.73002C124.069 9.72247 124.049 9.71858 124.03 9.71858H121.926C121.906 9.71858 121.886 9.72247 121.868 9.73002C121.85 9.73758 121.833 9.74865 121.819 9.7626C121.805 9.77656 121.794 9.79313 121.787 9.81136C121.779 9.8296 121.775 9.84914 121.775 9.86888Z" fill="#0CB6F2"/>
<path d="M88.6795 23.8023L89.1993 22.5499C89.2098 22.5269 89.2144 22.5016 89.2126 22.4764C89.2107 22.4512 89.2026 22.4268 89.1888 22.4056C89.1751 22.3844 89.1562 22.367 89.134 22.355C89.1117 22.343 89.0868 22.3368 89.0615 22.337H87.0826C87.0233 22.3374 86.9653 22.3547 86.9154 22.3869C86.8655 22.419 86.8258 22.4647 86.8008 22.5186L86.7006 22.7565C86.6781 22.8109 86.6398 22.8572 86.5907 22.8896C86.5416 22.922 86.4839 22.9389 86.4251 22.9381H84.9284C84.8696 22.9389 84.8119 22.922 84.7628 22.8896C84.7137 22.8572 84.6754 22.8109 84.6529 22.7565L84.5464 22.506C84.4971 22.3957 84.4715 22.2762 84.4713 22.1554V19.6505H88.6858C88.8519 19.6505 89.0111 19.5845 89.1286 19.4671C89.246 19.3496 89.312 19.1903 89.312 19.0242V15.5049C89.3113 15.2618 89.2624 15.0212 89.168 14.7972L88.7046 13.7014C88.6561 13.5934 88.578 13.5014 88.4793 13.436C88.3807 13.3706 88.2655 13.3345 88.1472 13.3319H83.2564C83.1381 13.3345 83.023 13.3706 82.9243 13.436C82.8257 13.5014 82.7476 13.5934 82.6991 13.7014L82.2357 14.7972C82.1382 15.0203 82.0891 15.2615 82.0916 15.5049V21.9925C82.0891 22.236 82.1382 22.4771 82.2357 22.7002L82.6991 23.8023C82.7476 23.9103 82.8257 24.0023 82.9243 24.0677C83.023 24.1331 83.1381 24.1692 83.2564 24.1718H88.1472C88.2612 24.1646 88.3711 24.1264 88.4649 24.0613C88.5587 23.9961 88.6329 23.9066 88.6795 23.8023ZM84.9222 14.5342H86.4189C86.4782 14.5348 86.536 14.553 86.5851 14.5864C86.6341 14.6199 86.6721 14.6671 86.6944 14.7221L86.8008 14.9663C86.8508 15.0787 86.8764 15.2003 86.876 15.3233V18.1475C86.876 18.2273 86.8443 18.3037 86.788 18.3601C86.7316 18.4165 86.6551 18.4481 86.5754 18.4481H84.465V15.317C84.4646 15.1941 84.4902 15.0724 84.5402 14.9601L84.6466 14.7158C84.6703 14.661 84.7097 14.6144 84.7599 14.5821C84.8101 14.5498 84.8687 14.5331 84.9284 14.5342H84.9222Z" fill="#0CB6F2"/>
<path d="M159.393 23.8023L159.912 22.5499C159.923 22.5269 159.927 22.5016 159.926 22.4764C159.924 22.4512 159.916 22.4268 159.902 22.4056C159.888 22.3844 159.869 22.367 159.847 22.355C159.825 22.343 159.8 22.3368 159.775 22.337H157.808C157.749 22.3374 157.691 22.3547 157.641 22.3869C157.591 22.419 157.551 22.4647 157.526 22.5186L157.426 22.7565C157.404 22.8109 157.365 22.8572 157.316 22.8896C157.267 22.922 157.209 22.9389 157.151 22.9381H155.654C155.595 22.9389 155.538 22.922 155.488 22.8896C155.439 22.8572 155.401 22.8109 155.378 22.7565L155.272 22.506C155.223 22.3957 155.197 22.2762 155.197 22.1554V19.6505H159.411C159.577 19.6505 159.737 19.5845 159.854 19.4671C159.972 19.3496 160.038 19.1903 160.038 19.0242V15.5049C160.037 15.2618 159.988 15.0212 159.894 14.7972L159.43 13.7014C159.382 13.5934 159.304 13.5014 159.205 13.436C159.106 13.3706 158.991 13.3345 158.873 13.3319H153.982C153.864 13.3345 153.749 13.3706 153.65 13.436C153.551 13.5014 153.473 13.5934 153.425 13.7014L152.961 14.7972C152.857 15.0189 152.802 15.2601 152.798 15.5049V21.9925C152.796 22.236 152.845 22.4771 152.942 22.7002L153.406 23.8023C153.454 23.9103 153.532 24.0023 153.631 24.0677C153.73 24.1331 153.845 24.1692 153.963 24.1718H158.854C158.969 24.1657 159.08 24.128 159.175 24.0628C159.27 23.9976 159.345 23.9075 159.393 23.8023ZM155.635 14.5342H157.132C157.191 14.5348 157.249 14.553 157.298 14.5864C157.347 14.6199 157.385 14.6671 157.407 14.7221L157.514 14.9663C157.564 15.0787 157.589 15.2003 157.589 15.3233V18.1475C157.589 18.2273 157.557 18.3037 157.501 18.3601C157.445 18.4165 157.368 18.4481 157.288 18.4481H155.178V15.317C155.178 15.1941 155.203 15.0724 155.253 14.9601L155.36 14.7158C155.383 14.661 155.423 14.6144 155.473 14.5821C155.523 14.5498 155.582 14.5331 155.641 14.5342H155.635Z" fill="#0CB6F2"/>
<path d="M65.8098 13.4822V24.0152C65.8098 24.0557 65.8254 24.0946 65.8534 24.1238C65.8815 24.153 65.9197 24.1702 65.9601 24.1718H68.0642C68.0845 24.1718 68.1046 24.1677 68.1232 24.1598C68.1419 24.1519 68.1587 24.1402 68.1728 24.1256C68.1868 24.111 68.1977 24.0936 68.2049 24.0747C68.2121 24.0557 68.2154 24.0355 68.2145 24.0152V14.5342H70.1683C70.2286 14.5344 70.2874 14.5524 70.3375 14.5858C70.3876 14.6192 70.4268 14.6666 70.4501 14.7221L70.5566 14.9663C70.6017 15.0799 70.625 15.201 70.6255 15.3233V24.0152C70.6254 24.0557 70.6411 24.0946 70.6691 24.1238C70.6971 24.153 70.7353 24.1702 70.7758 24.1718H72.8861C72.9266 24.1702 72.9648 24.153 72.9928 24.1238C73.0208 24.0946 73.0365 24.0557 73.0364 24.0152V15.5049C73.0358 15.2618 72.9868 15.0212 72.8924 14.7972L72.4227 13.7014C72.3747 13.5943 72.2976 13.503 72.2001 13.4376C72.1027 13.3723 71.9889 13.3357 71.8717 13.3319H65.9601C65.9203 13.3319 65.882 13.3477 65.8538 13.3759C65.8257 13.4041 65.8098 13.4423 65.8098 13.4822Z" fill="#0CB6F2"/>
<path d="M132.315 13.7014L131.851 14.7972C131.757 15.0212 131.708 15.2618 131.707 15.5049V21.9925C131.708 22.2356 131.757 22.4762 131.851 22.7002L132.315 23.8023C132.363 23.9103 132.441 24.0023 132.54 24.0677C132.639 24.1331 132.754 24.1692 132.872 24.1718H137.769C137.887 24.1692 138.003 24.1331 138.101 24.0677C138.2 24.0023 138.278 23.9103 138.326 23.8023L138.796 22.7002C138.889 22.4758 138.935 22.2352 138.934 21.9925V15.5049C138.935 15.2622 138.889 15.0216 138.796 14.7972L138.326 13.7014C138.278 13.5934 138.2 13.5014 138.101 13.436C138.003 13.3706 137.887 13.3345 137.769 13.3319H132.878C132.759 13.3333 132.642 13.3689 132.543 13.4343C132.443 13.4998 132.364 13.5924 132.315 13.7014ZM136.448 22.5311L136.348 22.7816C136.324 22.8364 136.285 22.883 136.234 22.9153C136.184 22.9477 136.125 22.9643 136.066 22.9632H134.569C134.51 22.9639 134.453 22.947 134.403 22.9146C134.354 22.8823 134.316 22.8359 134.294 22.7816L134.187 22.5311C134.138 22.4207 134.112 22.3013 134.112 22.1804V15.3233C134.112 15.2003 134.137 15.0787 134.187 14.9663L134.294 14.7221C134.316 14.6671 134.354 14.6199 134.403 14.5864C134.452 14.553 134.51 14.5348 134.569 14.5342H136.066C136.126 14.5344 136.185 14.5524 136.235 14.5858C136.285 14.6192 136.324 14.6666 136.348 14.7221L136.448 14.9663C136.498 15.0787 136.523 15.2003 136.523 15.3233V22.1804C136.523 22.3013 136.497 22.4207 136.448 22.5311Z" fill="#0CB6F2"/>
<path d="M104.949 13.7014L104.485 14.7972C104.391 15.0212 104.342 15.2618 104.341 15.5049V21.9925C104.342 22.2356 104.391 22.4762 104.485 22.7002L104.949 23.8023C104.997 23.9103 105.075 24.0023 105.174 24.0677C105.273 24.1331 105.388 24.1692 105.506 24.1718H110.397C110.515 24.1692 110.63 24.1331 110.729 24.0677C110.828 24.0023 110.906 23.9103 110.954 23.8023L111.418 22.7002C111.515 22.4771 111.564 22.236 111.562 21.9925V15.5049C111.564 15.2615 111.515 15.0203 111.418 14.7972L110.954 13.7014C110.906 13.5934 110.828 13.5014 110.729 13.436C110.63 13.3706 110.515 13.3345 110.397 13.3319H105.506C105.388 13.3345 105.273 13.3706 105.174 13.436C105.075 13.5014 104.997 13.5934 104.949 13.7014ZM109.082 22.5311L108.975 22.7816C108.953 22.8359 108.915 22.8823 108.865 22.9146C108.816 22.947 108.759 22.9639 108.7 22.9632H107.203C107.144 22.9639 107.087 22.947 107.038 22.9146C106.988 22.8823 106.95 22.8359 106.928 22.7816L106.821 22.5311C106.772 22.4207 106.746 22.3013 106.746 22.1804V15.3233C106.746 15.2003 106.771 15.0787 106.821 14.9663L106.928 14.7221C106.95 14.6671 106.988 14.6199 107.037 14.5864C107.086 14.553 107.144 14.5348 107.203 14.5342H108.7C108.759 14.5348 108.817 14.553 108.866 14.5864C108.915 14.6199 108.953 14.6671 108.975 14.7221L109.082 14.9663C109.132 15.0787 109.157 15.2003 109.157 15.3233V22.1804C109.157 22.3013 109.131 22.4207 109.082 22.5311Z" fill="#0CB6F2"/>
<path d="M139.836 13.4822V24.0152C139.835 24.0355 139.838 24.0557 139.845 24.0747C139.852 24.0936 139.863 24.111 139.877 24.1256C139.891 24.1402 139.908 24.1519 139.927 24.1598C139.946 24.1677 139.966 24.1718 139.986 24.1718H142.09C142.13 24.1702 142.169 24.153 142.197 24.1238C142.225 24.0946 142.24 24.0557 142.24 24.0152V14.5342H144.657V24.0152C144.657 24.0557 144.673 24.0946 144.701 24.1238C144.729 24.153 144.767 24.1702 144.808 24.1718H146.912C146.932 24.1718 146.952 24.1677 146.971 24.1598C146.99 24.1519 147.006 24.1402 147.02 24.1256C147.034 24.111 147.045 24.0936 147.053 24.0747C147.06 24.0557 147.063 24.0355 147.062 24.0152V14.5342H149.041C149.101 14.5344 149.16 14.5524 149.21 14.5858C149.26 14.6192 149.3 14.6666 149.323 14.7221L149.423 14.9663C149.473 15.0787 149.499 15.2003 149.498 15.3233V24.0152C149.498 24.0557 149.514 24.0946 149.542 24.1238C149.57 24.153 149.608 24.1702 149.648 24.1718H151.753C151.773 24.1718 151.793 24.1677 151.812 24.1598C151.83 24.1519 151.847 24.1402 151.861 24.1256C151.875 24.111 151.886 24.0936 151.893 24.0747C151.9 24.0557 151.904 24.0355 151.903 24.0152V15.5049C151.904 15.2622 151.858 15.0216 151.765 14.7972L151.295 13.7014C151.247 13.5934 151.169 13.5014 151.07 13.436C150.972 13.3706 150.856 13.3345 150.738 13.3319H139.986C139.946 13.3319 139.908 13.3477 139.88 13.3759C139.851 13.4041 139.836 13.4423 139.836 13.4822Z" fill="#0CB6F2"/>
<path d="M112.47 13.9331V24.0152C112.469 24.0355 112.472 24.0557 112.479 24.0747C112.486 24.0936 112.497 24.111 112.511 24.1256C112.525 24.1402 112.542 24.1519 112.561 24.1598C112.58 24.1677 112.6 24.1718 112.62 24.1718H114.724C114.764 24.1702 114.803 24.153 114.831 24.1238C114.859 24.0946 114.874 24.0557 114.874 24.0152V14.8348C114.876 14.7556 114.908 14.6801 114.964 14.624C115.02 14.568 115.096 14.5358 115.175 14.5342H116.534C116.574 14.5342 116.612 14.5184 116.64 14.4902C116.668 14.462 116.684 14.4238 116.684 14.3839V13.4822C116.684 13.4423 116.668 13.4041 116.64 13.3759C116.612 13.3477 116.574 13.3319 116.534 13.3319H113.071C112.913 13.3381 112.764 13.4034 112.653 13.5148C112.541 13.6262 112.476 13.7756 112.47 13.9331Z" fill="#0CB6F2"/>
<path d="M101.479 11.5284H99.3752C99.3552 11.5275 99.3353 11.5308 99.3167 11.538C99.298 11.5452 99.2811 11.5563 99.267 11.5704C99.2528 11.5845 99.2418 11.6015 99.2345 11.6201C99.2273 11.6387 99.224 11.6587 99.2249 11.6787V13.3319H98.4672C98.4273 13.3319 98.3891 13.3477 98.3609 13.3759C98.3327 13.4041 98.3169 13.4423 98.3169 13.4822V14.3839C98.3169 14.4238 98.3327 14.462 98.3609 14.4902C98.3891 14.5184 98.4273 14.5342 98.4672 14.5342H99.2249V23.5644C99.2249 23.7305 99.2909 23.8897 99.4083 24.0072C99.5258 24.1246 99.6851 24.1906 99.8511 24.1906H103.308C103.349 24.1906 103.389 24.1741 103.419 24.1447C103.448 24.1154 103.464 24.0756 103.464 24.034V23.1135C103.463 23.0731 103.446 23.0348 103.416 23.0068C103.387 22.9788 103.348 22.9632 103.308 22.9632H101.955C101.876 22.9632 101.799 22.9315 101.743 22.8752C101.686 22.8188 101.655 22.7423 101.655 22.6626V14.5217H103.308C103.328 14.5226 103.348 14.5193 103.367 14.5121C103.386 14.5049 103.404 14.494 103.418 14.48C103.433 14.4659 103.444 14.4491 103.452 14.4304C103.46 14.4118 103.464 14.3917 103.464 14.3714V13.4822C103.463 13.4418 103.446 13.4035 103.416 13.3755C103.387 13.3475 103.348 13.3319 103.308 13.3319H101.655V11.6787C101.655 11.6566 101.65 11.6348 101.641 11.6147C101.632 11.5946 101.619 11.5768 101.602 11.5624C101.585 11.5481 101.566 11.5376 101.545 11.5317C101.523 11.5258 101.501 11.5247 101.479 11.5284Z" fill="#0CB6F2"/>
<path d="M97.4152 16.1937V15.5049C97.4145 15.2618 97.3655 15.0212 97.2711 14.7972L96.8077 13.7014C96.7592 13.5934 96.6811 13.5014 96.5825 13.436C96.4839 13.3706 96.3687 13.3345 96.2504 13.3319H90.8022C90.6362 13.3319 90.4769 13.3979 90.3594 13.5153C90.242 13.6327 90.176 13.792 90.176 13.9581V15.7679C90.1808 16.2381 90.3696 16.6877 90.7021 17.0203L94.7224 21.0469C94.8906 21.2124 94.9873 21.4372 94.9917 21.6732V22.6501C94.9917 22.7298 94.96 22.8063 94.9036 22.8626C94.8473 22.919 94.7708 22.9507 94.6911 22.9507H93.0567C92.997 22.9518 92.9383 22.9351 92.8881 22.9028C92.8379 22.8705 92.7985 22.8239 92.7748 22.7691L92.6747 22.5186C92.6254 22.4082 92.5998 22.2888 92.5995 22.1679V21.31C92.5995 21.2701 92.5837 21.2319 92.5555 21.2037C92.5273 21.1755 92.4891 21.1597 92.4492 21.1597H90.3451C90.3052 21.1597 90.267 21.1755 90.2388 21.2037C90.2106 21.2319 90.1948 21.2701 90.1948 21.31V21.9925C90.1933 22.2352 90.2402 22.4758 90.3326 22.7002L90.8022 23.8023C90.8507 23.9103 90.9288 24.0023 91.0275 24.0677C91.1261 24.1331 91.2413 24.1692 91.3596 24.1718H96.814C96.9801 24.1718 97.1394 24.1058 97.2568 23.9884C97.3742 23.8709 97.4402 23.7117 97.4402 23.5456V21.7671C97.4342 21.2972 97.2455 20.848 96.9142 20.5147L92.8876 16.4943C92.7222 16.3274 92.6279 16.103 92.6246 15.8681V14.8348C92.6262 14.7556 92.6583 14.6801 92.7144 14.624C92.7704 14.568 92.8459 14.5358 92.9251 14.5342H94.5596C94.6189 14.5348 94.6768 14.553 94.7258 14.5864C94.7748 14.6199 94.8129 14.6671 94.8351 14.7221L94.9416 14.9663C94.9916 15.0787 95.0172 15.2003 95.0167 15.3233V16.1937C95.0167 16.2336 95.0326 16.2718 95.0607 16.3C95.0889 16.3282 95.1272 16.344 95.167 16.344H97.2711C97.3099 16.3424 97.3465 16.3258 97.3734 16.2978C97.4002 16.2698 97.4152 16.2325 97.4152 16.1937Z" fill="#0CB6F2"/>
<path d="M64.7577 9.71858H62.6474C62.5644 9.71858 62.4971 9.78587 62.4971 9.86888V24.0153C62.4971 24.0983 62.5644 24.1656 62.6474 24.1656H64.7577C64.8407 24.1656 64.908 24.0983 64.908 24.0153V9.86888C64.908 9.78587 64.8407 9.71858 64.7577 9.71858Z" fill="#0CB6F2"/>
<path d="M77.5515 21.1847L76.2991 13.5824C76.2873 13.5127 76.2513 13.4494 76.1975 13.4036C76.1437 13.3578 76.0754 13.3324 76.0048 13.3319H74.3265C74.3044 13.3316 74.2826 13.3361 74.2625 13.3452C74.2424 13.3543 74.2246 13.3676 74.2103 13.3844C74.1959 13.4011 74.1854 13.4208 74.1795 13.442C74.1737 13.4632 74.1725 13.4855 74.1762 13.5072L75.9233 23.9151C75.9339 23.987 75.9702 24.0526 76.0255 24.0998C76.0808 24.147 76.1513 24.1726 76.2239 24.1718H78.9042C78.9768 24.1726 79.0473 24.147 79.1026 24.0998C79.1579 24.0526 79.1942 23.987 79.2048 23.9151L80.9519 13.5072C80.9556 13.4855 80.9544 13.4632 80.9486 13.442C80.9427 13.4208 80.9322 13.4011 80.9178 13.3844C80.9035 13.3676 80.8856 13.3543 80.8656 13.3452C80.8455 13.3361 80.8237 13.3316 80.8016 13.3319H79.1296C79.0578 13.3309 78.9881 13.3556 78.933 13.4015C78.8778 13.4475 78.841 13.5116 78.829 13.5824L77.5515 21.1847Z" fill="#0CB6F2"/>
<path d="M19.3128 3.45634L21.874 3.14323C21.8928 3.13959 21.912 3.14006 21.9306 3.14462C21.9491 3.14918 21.9664 3.15771 21.9813 3.16963C21.9962 3.18154 22.0083 3.19655 22.0168 3.21362C22.0253 3.23069 22.03 3.24941 22.0306 3.26847L23.6776 22.6814C23.6793 22.7005 23.677 22.7198 23.6709 22.738C23.6648 22.7562 23.6549 22.7729 23.6419 22.787C23.6289 22.8012 23.6132 22.8124 23.5956 22.8201C23.578 22.8278 23.559 22.8318 23.5398 22.8317H21.6611C21.6247 22.8307 21.5897 22.817 21.5623 22.793C21.5348 22.769 21.5166 22.7362 21.5108 22.7002L19.1938 3.60663C19.1902 3.57103 19.2007 3.53545 19.2229 3.5074C19.2451 3.47935 19.2773 3.46104 19.3128 3.45634Z" fill="#0CB6F2"/>
<path fill-rule="evenodd" clip-rule="evenodd" d="M15.8247 13.7327L18.6928 13.382C18.7114 13.3794 18.7303 13.3806 18.7484 13.3855C18.7665 13.3905 18.7834 13.3991 18.7981 13.4108C18.8127 13.4225 18.8248 13.4372 18.8337 13.4537C18.8425 13.4703 18.8478 13.4885 18.8493 13.5072L20.1018 23.6771C20.1055 23.7134 20.0952 23.7498 20.0732 23.7788C20.0511 23.8079 20.0188 23.8275 19.9828 23.8336L17.8662 24.0904C17.8505 24.0931 17.8345 24.0926 17.819 24.089C17.8036 24.0853 17.789 24.0787 17.7762 24.0693C17.7633 24.06 17.7525 24.0482 17.7443 24.0346C17.7361 24.021 17.7307 24.0059 17.7284 23.9902L15.6994 13.9017C15.694 13.8628 15.7041 13.8232 15.7275 13.7916C15.7509 13.76 15.7858 13.7388 15.8247 13.7327Z" fill="#0CB6F2"/>
<path fill-rule="evenodd" clip-rule="evenodd" d="M24.7296 13.5824H27.5539C27.5905 13.5824 27.6255 13.5969 27.6513 13.6227C27.6772 13.6486 27.6917 13.6836 27.6917 13.7201V23.9902C27.6917 24.0251 27.6778 24.0585 27.6532 24.0832C27.6285 24.1078 27.5951 24.1217 27.5602 24.1217H25.5124C25.4952 24.1225 25.4779 24.12 25.4616 24.1141C25.4453 24.1083 25.4304 24.0993 25.4176 24.0877C25.4048 24.076 25.3944 24.062 25.387 24.0463C25.3797 24.0307 25.3755 24.0137 25.3747 23.9965L24.5919 13.7327C24.5901 13.7135 24.5924 13.6943 24.5985 13.6761C24.6047 13.6579 24.6145 13.6412 24.6275 13.627C24.6405 13.6129 24.6563 13.6016 24.6739 13.5939C24.6915 13.5862 24.7105 13.5823 24.7296 13.5824Z" fill="#0CB6F2"/>
<path fill-rule="evenodd" clip-rule="evenodd" d="M14.9103 8.5538L16.1251 8.40351C16.1433 8.40087 16.1617 8.40186 16.1794 8.40644C16.1972 8.41101 16.2138 8.41907 16.2284 8.43015C16.243 8.44123 16.2552 8.4551 16.2643 8.47096C16.2735 8.48681 16.2794 8.50433 16.2817 8.52249L16.7764 12.1859C16.779 12.2045 16.7778 12.2234 16.7729 12.2415C16.7679 12.2596 16.7593 12.2765 16.7476 12.2912C16.7358 12.3059 16.7212 12.318 16.7047 12.3268C16.6881 12.3356 16.6699 12.3409 16.6512 12.3425L15.6868 12.4614C15.6545 12.4679 15.621 12.4627 15.5923 12.4466C15.5636 12.4305 15.5415 12.4047 15.5302 12.3738L14.8038 8.71662C14.7968 8.6989 14.7941 8.67974 14.796 8.66077C14.7979 8.6418 14.8044 8.62356 14.8148 8.6076C14.8252 8.59164 14.8394 8.57842 14.856 8.56906C14.8726 8.5597 14.8912 8.55447 14.9103 8.5538Z" fill="#0CB6F2"/>
<path fill-rule="evenodd" clip-rule="evenodd" d="M16.8141 8.4536L17.265 12.1295C17.2673 12.1477 17.2732 12.1652 17.2823 12.1811C17.2915 12.1969 17.3037 12.2108 17.3183 12.2219C17.3329 12.233 17.3495 12.241 17.3672 12.2456C17.385 12.2502 17.4034 12.2512 17.4215 12.2485L18.5425 12.1107C18.5604 12.1092 18.5778 12.1041 18.5936 12.0956C18.6094 12.0871 18.6233 12.0754 18.6345 12.0613C18.6456 12.0473 18.6538 12.031 18.6584 12.0137C18.663 11.9963 18.6641 11.9782 18.6615 11.9605L18.2106 8.27826C18.2091 8.26118 18.2041 8.24459 18.1959 8.22952C18.1877 8.21446 18.1765 8.20123 18.163 8.19066C18.1495 8.18009 18.134 8.17241 18.1174 8.16809C18.1008 8.16377 18.0835 8.1629 18.0665 8.16554L16.908 8.30331C16.8772 8.31331 16.8509 8.33386 16.8337 8.36135C16.8165 8.38883 16.8096 8.4215 16.8141 8.4536Z" fill="#0CB6F2"/>
<path fill-rule="evenodd" clip-rule="evenodd" d="M24.191 8.48491L24.479 12.2047C24.4821 12.2357 24.4967 12.2644 24.5199 12.2853C24.543 12.3061 24.5731 12.3176 24.6043 12.3174H25.6C25.6348 12.3174 25.6683 12.3035 25.693 12.2789C25.7176 12.2542 25.7315 12.2208 25.7315 12.1859L25.6751 8.47865C25.6735 8.44321 25.6583 8.40976 25.6326 8.38526C25.6069 8.36076 25.5728 8.34711 25.5373 8.34715H24.3475C24.3277 8.34326 24.3073 8.34398 24.2879 8.34923C24.2684 8.35449 24.2504 8.36415 24.2353 8.37746C24.2202 8.39078 24.2083 8.40739 24.2006 8.42602C24.1929 8.44466 24.1896 8.4648 24.191 8.48491Z" fill="#0CB6F2"/>
<path fill-rule="evenodd" clip-rule="evenodd" d="M26.1448 8.48491L26.2262 12.1859C26.2262 12.2037 26.2298 12.2213 26.2368 12.2377C26.2438 12.2541 26.2541 12.2689 26.2669 12.2812C26.2798 12.2935 26.2951 12.303 26.3117 12.3092C26.3284 12.3155 26.3462 12.3182 26.364 12.3174H27.4223C27.4589 12.3174 27.4939 12.3029 27.5197 12.277C27.5456 12.2512 27.5601 12.2162 27.5601 12.1796V8.47865C27.5609 8.46169 27.5583 8.44472 27.5524 8.4288C27.5465 8.41287 27.5374 8.39832 27.5257 8.38601C27.514 8.37371 27.4999 8.36392 27.4843 8.35724C27.4686 8.35056 27.4518 8.34712 27.4348 8.34715H26.3014C26.2816 8.34326 26.2612 8.34398 26.2417 8.34923C26.2223 8.35449 26.2043 8.36415 26.1892 8.37746C26.174 8.39078 26.1622 8.40739 26.1545 8.42602C26.1468 8.44466 26.1435 8.4648 26.1448 8.48491Z" fill="#0CB6F2"/>
<path fill-rule="evenodd" clip-rule="evenodd" d="M31.5366 25.2677C31.5422 25.3028 31.5584 25.3355 31.583 25.3612C31.6076 25.3869 31.6395 25.4045 31.6744 25.4117C35.3817 25.8747 39.1362 25.062 42.3202 23.1072C43.9609 22.0927 46.2215 19.6505 42.9464 17.7843C40.1852 16.2019 36.9904 15.5436 33.8286 15.9057C33.788 15.9092 33.7477 15.8968 33.7161 15.8711C33.6845 15.8453 33.6642 15.8083 33.6595 15.7679C33.0167 10.7604 32.8177 5.70591 33.0646 0.663384C33.0659 0.6425 33.062 0.621614 33.0532 0.602632C33.0444 0.583651 33.031 0.56718 33.0142 0.554724C32.9973 0.542268 32.9777 0.534224 32.9569 0.531327C32.9362 0.52843 32.9151 0.530772 32.8955 0.538139L28.6309 2.09117C28.5976 2.10137 28.5693 2.12385 28.5519 2.15407C28.5344 2.18429 28.5291 2.22 28.537 2.25399C29.9399 9.86729 30.9412 17.5491 31.5366 25.2677ZM39.9092 20.2579C38.7975 21.2958 37.5505 22.1784 36.202 22.8818C36.1835 22.892 36.1628 22.8978 36.1417 22.8988C36.1206 22.8998 36.0995 22.8959 36.0801 22.8874C36.0608 22.8789 36.0436 22.8661 36.03 22.8499C36.0163 22.8337 36.0066 22.8146 36.0016 22.7941C35.9327 22.4559 35.6321 20.2892 35.463 18.6861C35.4609 18.6653 35.4636 18.6443 35.4708 18.6246C35.478 18.605 35.4896 18.5873 35.5047 18.5728C35.5198 18.5583 35.538 18.5474 35.5579 18.541C35.5778 18.5346 35.5989 18.5328 35.6196 18.5358C37.1022 18.8069 38.533 19.3099 39.8591 20.0262C39.9781 20.0763 39.9718 20.1828 39.9092 20.2391V20.2579Z" fill="#0CB6F2"/>
<path fill-rule="evenodd" clip-rule="evenodd" d="M3.0059 25.2677C3.00967 25.3036 3.02524 25.3372 3.05017 25.3633C3.07511 25.3893 3.108 25.4064 3.14367 25.4117C6.84695 25.8733 10.597 25.0606 13.7769 23.1072C15.4176 22.0928 17.6783 19.6505 14.4032 17.7843C11.642 16.2019 8.44719 15.5436 5.28535 15.9057C5.24408 15.9093 5.20297 15.8971 5.1704 15.8715C5.13782 15.8459 5.11622 15.8089 5.11001 15.7679C4.47196 10.7411 4.27917 5.66776 4.53389 0.607039C4.53408 0.588068 4.53017 0.56928 4.52242 0.551964C4.51467 0.534647 4.50326 0.519213 4.48898 0.50672C4.47471 0.494227 4.4579 0.484971 4.4397 0.479588C4.42151 0.474204 4.40237 0.472821 4.38359 0.475532L0.0939644 2.03483C0.0621304 2.04725 0.0354785 2.07014 0.0184027 2.09974C0.00132698 2.12934 -0.00515308 2.16387 3.09106e-05 2.19765C1.40109 9.83038 2.4044 17.5308 3.0059 25.2677ZM11.3785 20.2579C10.2651 21.2966 9.01589 22.1793 7.665 22.8818C7.64696 22.8921 7.62673 22.898 7.60597 22.899C7.58521 22.9 7.56451 22.8961 7.54556 22.8875C7.52662 22.8789 7.50997 22.866 7.49699 22.8498C7.48401 22.8336 7.47506 22.8145 7.47087 22.7941C7.39573 22.456 7.09514 20.2892 6.92606 18.6861C6.92395 18.6653 6.9266 18.6443 6.93382 18.6246C6.94104 18.605 6.95263 18.5873 6.96771 18.5728C6.9828 18.5583 7.00099 18.5475 7.0209 18.5411C7.0408 18.5346 7.06191 18.5328 7.08261 18.5358C8.56672 18.809 9.99918 19.3118 11.3284 20.0262C11.4474 20.0763 11.4411 20.1828 11.3785 20.2391V20.2579Z" fill="#0CB6F2"/>
<path d="M47.906 3.45634L50.4673 3.14323C50.486 3.13959 50.5053 3.14006 50.5238 3.14462C50.5424 3.14918 50.5597 3.15771 50.5746 3.16963C50.5894 3.18154 50.6016 3.19655 50.6101 3.21362C50.6186 3.23069 50.6233 3.24941 50.6239 3.26847L52.2771 22.6814C52.2779 22.7008 52.2748 22.7202 52.268 22.7384C52.2611 22.7566 52.2506 22.7733 52.2372 22.7873C52.2237 22.8014 52.2076 22.8125 52.1897 22.8202C52.1718 22.8278 52.1525 22.8317 52.1331 22.8317H50.2544C50.2179 22.8307 50.183 22.817 50.1555 22.793C50.1281 22.769 50.1099 22.7362 50.1041 22.7002L47.7871 3.60663C47.7835 3.57103 47.7939 3.53545 47.8161 3.5074C47.8383 3.47935 47.8706 3.46104 47.906 3.45634Z" fill="#0CB6F2"/>
<path fill-rule="evenodd" clip-rule="evenodd" d="M44.4179 13.7327L47.2861 13.382C47.305 13.3794 47.3243 13.3805 47.3427 13.3854C47.3612 13.3903 47.3786 13.3988 47.3937 13.4105C47.4089 13.4221 47.4215 13.4367 47.431 13.4533C47.4405 13.4699 47.4466 13.4883 47.4489 13.5072L48.7013 23.6771C48.704 23.6952 48.703 23.7137 48.6984 23.7314C48.6938 23.7491 48.6857 23.7658 48.6747 23.7803C48.6636 23.7949 48.6497 23.8071 48.6339 23.8163C48.618 23.8254 48.6005 23.8313 48.5823 23.8337L46.4657 24.0904C46.45 24.0931 46.434 24.0926 46.4186 24.089C46.4031 24.0854 46.3885 24.0787 46.3757 24.0693C46.3629 24.06 46.352 24.0482 46.3438 24.0346C46.3356 24.021 46.3302 24.0059 46.3279 23.9902L44.299 13.9018C44.2944 13.8827 44.2939 13.863 44.2976 13.8438C44.3013 13.8245 44.309 13.8063 44.3203 13.7903C44.3315 13.7743 44.3461 13.7609 44.3629 13.751C44.3797 13.741 44.3985 13.7348 44.4179 13.7327Z" fill="#0CB6F2"/>
<path fill-rule="evenodd" clip-rule="evenodd" d="M53.3229 13.5824H56.1409C56.1775 13.5824 56.2125 13.5969 56.2383 13.6227C56.2642 13.6486 56.2787 13.6836 56.2787 13.7201V23.9902C56.2787 24.0251 56.2648 24.0585 56.2402 24.0832C56.2155 24.1078 56.1821 24.1217 56.1472 24.1217H54.1057C54.0884 24.1225 54.0711 24.12 54.0549 24.1141C54.0386 24.1083 54.0236 24.0993 54.0108 24.0877C53.998 24.076 53.9877 24.062 53.9803 24.0463C53.9729 24.0307 53.9687 24.0137 53.9679 23.9965L53.1851 13.7327C53.1834 13.7135 53.1857 13.6943 53.1918 13.6761C53.1979 13.6579 53.2078 13.6412 53.2208 13.627C53.2338 13.6129 53.2495 13.6016 53.2671 13.5939C53.2847 13.5862 53.3037 13.5823 53.3229 13.5824Z" fill="#0CB6F2"/>
<path fill-rule="evenodd" clip-rule="evenodd" d="M43.5037 8.5538L44.7186 8.40351C44.7367 8.40087 44.7552 8.40186 44.7729 8.40644C44.7906 8.41101 44.8073 8.41907 44.8219 8.43015C44.8364 8.44123 44.8487 8.4551 44.8578 8.47096C44.867 8.48681 44.8729 8.50433 44.8752 8.52249L45.3699 12.1859C45.3725 12.204 45.3715 12.2225 45.367 12.2402C45.3624 12.2579 45.3543 12.2746 45.3432 12.2891C45.3322 12.3037 45.3183 12.3159 45.3024 12.3251C45.2866 12.3342 45.2691 12.3401 45.2509 12.3425L44.2803 12.4614C44.2463 12.4669 44.2115 12.4588 44.1834 12.4389C44.1553 12.419 44.1361 12.3889 44.13 12.355L43.3973 8.69784C43.3937 8.68127 43.3936 8.66411 43.3972 8.64753C43.4007 8.63094 43.4077 8.6153 43.4178 8.60166C43.4279 8.58802 43.4408 8.5767 43.4556 8.56844C43.4704 8.56019 43.4868 8.5552 43.5037 8.5538Z" fill="#0CB6F2"/>
<path fill-rule="evenodd" clip-rule="evenodd" d="M45.4074 8.4536L45.8646 12.1295C45.8661 12.1474 45.8712 12.1648 45.8797 12.1806C45.8882 12.1965 45.8999 12.2104 45.914 12.2215C45.9281 12.2327 45.9443 12.2408 45.9616 12.2455C45.979 12.2501 45.9971 12.2511 46.0149 12.2485L47.1421 12.1107C47.1594 12.1084 47.1761 12.1027 47.1912 12.0939C47.2063 12.085 47.2195 12.0733 47.23 12.0593C47.2405 12.0453 47.2481 12.0293 47.2523 12.0124C47.2566 11.9954 47.2574 11.9777 47.2548 11.9605L46.8039 8.27826C46.8024 8.26118 46.7974 8.24459 46.7892 8.22952C46.781 8.21446 46.7698 8.20123 46.7563 8.19066C46.7428 8.18009 46.7273 8.17241 46.7107 8.16809C46.6941 8.16377 46.6768 8.1629 46.6599 8.16554L45.5264 8.30331C45.4909 8.30801 45.4587 8.32632 45.4365 8.35437C45.4143 8.38242 45.4039 8.418 45.4074 8.4536Z" fill="#0CB6F2"/>
<path fill-rule="evenodd" clip-rule="evenodd" d="M52.7843 8.48492L53.0724 12.2047C53.0755 12.2357 53.0901 12.2644 53.1132 12.2853C53.1364 12.3061 53.1665 12.3176 53.1976 12.3174H54.1933C54.2282 12.3174 54.2617 12.3036 54.2863 12.2789C54.311 12.2542 54.3248 12.2208 54.3248 12.1859L54.2434 8.47866C54.2418 8.44322 54.2266 8.40976 54.2009 8.38527C54.1753 8.36077 54.1411 8.34712 54.1057 8.34715H52.9158C52.898 8.34713 52.8804 8.35073 52.864 8.35773C52.8476 8.36472 52.8329 8.37497 52.8206 8.38786C52.8083 8.40074 52.7987 8.41599 52.7925 8.43267C52.7863 8.44936 52.7835 8.46713 52.7843 8.48492Z" fill="#0CB6F2"/>
<path fill-rule="evenodd" clip-rule="evenodd" d="M54.7382 8.48492L54.8196 12.1859C54.8196 12.2037 54.8232 12.2213 54.8302 12.2377C54.8372 12.2541 54.8474 12.2689 54.8603 12.2812C54.8732 12.2935 54.8884 12.303 54.9051 12.3093C54.9218 12.3155 54.9396 12.3183 54.9574 12.3174H56.0157C56.0522 12.3174 56.0873 12.3029 56.1131 12.2771C56.1389 12.2512 56.1534 12.2162 56.1534 12.1796V8.47866C56.1543 8.46169 56.1517 8.44473 56.1458 8.42881C56.1399 8.41288 56.1308 8.39832 56.1191 8.38602C56.1073 8.37372 56.0932 8.36393 56.0776 8.35725C56.062 8.35057 56.0452 8.34713 56.0282 8.34715H54.8697C54.8519 8.34713 54.8343 8.35073 54.8179 8.35773C54.8015 8.36472 54.7867 8.37497 54.7744 8.38786C54.7621 8.40074 54.7526 8.41599 54.7463 8.43267C54.7401 8.44936 54.7373 8.46713 54.7382 8.48492Z" fill="#0CB6F2"/>
</g>
<defs>
<clipPath id="clip0_112_3912">
<rect width="160" height="25.0489" fill="white" transform="translate(0 0.475525)"/>
</clipPath>
</defs>
</svg>
