<svg width="118" height="40" viewBox="0 0 118 40" fill="none" xmlns="http://www.w3.org/2000/svg">
    <path d="M29.4314 11.3282L15.5366 5.89582C12.5504 7.52944 10.1099 9.42029 8.12891 11.3282C10.1099 13.2324 12.5504 15.1223 15.5366 16.7606L29.4314 11.3282Z" fill="#B07E25"/>
    <path d="M0.460938 -1.52588e-05C0.460938 -1.52588e-05 1.93223 4.78217 6.75998 9.93361C8.90048 8.2886 11.4805 6.78978 14.5455 5.50453L0.460938 -1.52588e-05Z" fill="#A7A5A6"/>
    <path d="M0.460938 22.6542C0.460938 22.6542 1.93223 17.8749 6.75998 12.7215C8.90048 14.3665 11.4805 15.8616 14.5455 17.1487L0.460938 22.6542Z" fill="#A49668"/>
    <path d="M71.1552 38.7015H67.2245V34.3967H70.1917V35.6905H71.1865V32.1442H70.1917V33.4209H67.2245V29.3193H71.0014V30.7565H71.9801V27.8528H70.9853V28.3283H64.0645V29.1675H65.326V38.8287H64.0645V39.6773H72.15V37.2131H71.1552V38.7015ZM113.929 28.3283V29.1675H115.21V36.3635L109.341 28.3283H106.397V29.1675H107.616L108.019 29.736V38.8287H106.741V39.6773H110.364V38.8287H109.081V31.1836L115.389 39.8662H116.275V29.1675H117.539V28.3283H113.929ZM99.3111 28.1233C96.1957 28.1233 93.6575 30.7679 93.6575 34.0199C93.6575 37.2596 96.1957 39.8956 99.3111 39.8956C102.405 39.8956 104.918 37.251 104.918 34.0009C104.918 30.7593 102.405 28.1233 99.3111 28.1233ZM99.3111 38.7973C97.2057 38.7973 95.7401 36.8239 95.7401 34.0009C95.7401 31.1846 97.219 29.2216 99.33 29.2216C101.395 29.2216 102.837 31.1846 102.837 34.0009C102.837 36.8239 101.389 38.7973 99.3111 38.7973ZM54.8798 36.4869L51.0582 28.3283H47.8897V29.1675H49.1693V38.8287H47.8897V39.6773H51.5148V38.8287H50.2353V30.9558L54.4678 40L58.4869 31.1551V38.8287H57.2244V39.6773H61.6506V38.8287H60.3815V29.1675H61.6506V28.3283H58.6397L54.8798 36.4869ZM81.7998 38.7015H78.0674V29.1675H79.3356V28.3283H74.9008V29.1675H76.168V38.8287H74.9008V39.6773H82.7965V37.2131H81.7998V38.7015ZM91.5265 38.7015H87.7846V29.1675H89.049V28.3283H84.6199V29.1675H85.89V38.8287H84.6199V39.6773H92.5156V37.2131H91.5265V38.7015ZM37.7805 29.1675H39.2328L36.7943 33.1903L34.1735 29.1675H35.4891V28.3283H30.9062V29.1675H31.9295L35.3809 34.4736V38.8287H34.1165V39.6773H38.5427V38.8287H37.2613V34.374L40.4526 29.1675H41.3724V28.3283H37.7805V29.1675ZM14.5578 33.6858C15.6351 33.3792 16.6404 32.5401 16.6404 31.1978C16.6404 29.4541 15.3466 28.3283 13.339 28.3283H8.12866V29.1675H9.39303V38.8287H8.12866V39.6773H13.637C15.7623 39.6773 17.1814 38.4689 17.1814 36.6663C17.1814 34.8837 15.9019 33.9781 14.5578 33.6858ZM11.2924 29.3193H12.684C13.4225 29.3193 14.6603 29.5737 14.6603 31.2643C14.6603 32.6691 13.6209 33.3004 12.5919 33.3004H11.2924V29.3193ZM12.7466 38.7015H11.2924V34.2809H12.7466C14.2597 34.2809 15.2364 35.1836 15.2364 36.5799C15.2364 38.1433 13.899 38.7015 12.7466 38.7015ZM26.4287 29.1675H27.7149V36.3635L21.8392 28.3283H18.9052V29.1675H20.1183L20.5189 29.736V38.8325H19.2365V39.6773H22.8616V38.8325H21.5849V31.1836L27.8934 39.8662H28.7752V29.1675H30.0405V28.3283H26.4287V29.1675Z" fill="#4F4C4D"/>
</svg>
