<svg width="66" height="16" viewBox="0 0 66 16" fill="none" xmlns="http://www.w3.org/2000/svg">
    <g clip-path="url(#clip0_722_46)">
        <path d="M16.9001 0.359863H19.0757C20.2669 0.359863 21.0942 0.889286 21.0942 1.8985C21.0962 2.14693 21.034 2.39167 20.9137 2.60904C20.7935 2.82642 20.6191 3.00907 20.4076 3.13933C20.6875 3.22768 20.9303 3.4063 21.0979 3.64727C21.2655 3.88825 21.3486 4.17798 21.3341 4.47116C21.3341 5.76163 20.2587 6.23315 19.0882 6.23315H16.9001V0.359863ZM19.0923 2.64714C19.1639 2.65109 19.2356 2.63948 19.3023 2.61309C19.369 2.58669 19.4292 2.54616 19.4787 2.49426C19.5282 2.44237 19.5659 2.38036 19.5892 2.3125C19.6124 2.24463 19.6207 2.17254 19.6134 2.10117C19.6172 2.03047 19.6052 1.95983 19.5784 1.89429C19.5517 1.82876 19.5107 1.76997 19.4585 1.72213C19.4063 1.67429 19.3442 1.6386 19.2766 1.6176C19.209 1.59661 19.1376 1.59083 19.0675 1.6007H18.3478V2.64714H19.0923ZM19.2164 5.02954C19.3006 5.03754 19.3855 5.02712 19.4653 4.999C19.5451 4.97089 19.6178 4.92575 19.6784 4.86673C19.739 4.8077 19.7861 4.7362 19.8163 4.65718C19.8465 4.57816 19.8591 4.49352 19.8533 4.40912C19.8591 4.32727 19.8469 4.24516 19.8178 4.16845C19.7887 4.09175 19.7433 4.02228 19.6846 3.96486C19.626 3.90744 19.5557 3.86342 19.4784 3.83587C19.4011 3.80831 19.3188 3.79786 19.237 3.80525H18.3478V5.04608L19.2164 5.02954Z" fill="black"/>
        <path d="M26.6862 0.244119C27.0911 0.23007 27.4945 0.298414 27.8721 0.445003C28.2498 0.591592 28.5937 0.813371 28.883 1.09688C29.1723 1.3804 29.401 1.71973 29.5552 2.0943C29.7094 2.46887 29.7859 2.87086 29.7801 3.27589C29.7801 4.09862 29.4532 4.88764 28.8715 5.4694C28.2897 6.05115 27.5007 6.37798 26.678 6.37798C25.8552 6.37798 25.0662 6.05115 24.4845 5.4694C23.9027 4.88764 23.5759 4.09862 23.5759 3.27589C23.5699 2.86942 23.6469 2.466 23.8021 2.09028C23.9574 1.71457 24.1876 1.37444 24.4787 1.09069C24.7698 0.806941 25.1157 0.585523 25.4952 0.439966C25.8748 0.294409 26.2801 0.22777 26.6862 0.244119ZM26.6862 5.0296C26.9087 5.02237 27.1274 4.97032 27.3293 4.87659C27.5311 4.78285 27.712 4.64935 27.8611 4.48407C28.0101 4.31879 28.1243 4.12513 28.1968 3.9147C28.2692 3.70426 28.2985 3.48136 28.2828 3.25935C28.2938 3.04313 28.2607 2.82692 28.1856 2.62389C28.1104 2.42085 27.9947 2.23522 27.8456 2.07828C27.6965 1.92135 27.5169 1.79638 27.318 1.71099C27.119 1.6256 26.9048 1.58157 26.6883 1.58157C26.4718 1.58157 26.2576 1.6256 26.0586 1.71099C25.8597 1.79638 25.6802 1.92135 25.531 2.07828C25.3819 2.23522 25.2662 2.42085 25.1911 2.62389C25.1159 2.82692 25.0828 3.04313 25.0938 3.25935C25.0758 3.48235 25.1032 3.70669 25.1743 3.9188C25.2455 4.13092 25.3589 4.3264 25.5078 4.49342C25.6566 4.66045 25.8378 4.79555 26.0404 4.89055C26.2429 4.98555 26.4626 5.03849 26.6862 5.04615V5.0296Z" fill="black"/>
        <path d="M35.1032 0.244036C35.5063 0.230633 35.9079 0.298901 36.2839 0.444733C36.6599 0.590566 37.0026 0.81095 37.2912 1.09263C37.5798 1.37431 37.8085 1.71146 37.9635 2.0838C38.1184 2.45614 38.1965 2.85598 38.1929 3.25926C38.1929 4.08199 37.8661 4.87102 37.2843 5.45277C36.7026 6.03453 35.9135 6.36135 35.0908 6.36135C34.2681 6.36135 33.479 6.03453 32.8973 5.45277C32.3155 4.87102 31.9887 4.08199 31.9887 3.25926C31.985 2.85381 32.0638 2.45184 32.2203 2.07778C32.3767 1.70372 32.6077 1.3654 32.899 1.08336C33.1903 0.801334 33.5359 0.581493 33.9148 0.437204C34.2938 0.292916 34.6981 0.227194 35.1032 0.244036ZM35.1032 5.02952C35.3253 5.02174 35.5436 4.9693 35.7449 4.87532C35.9463 4.78134 36.1267 4.64776 36.2753 4.48254C36.4239 4.31732 36.5378 4.12385 36.61 3.91368C36.6822 3.70351 36.7113 3.48094 36.6956 3.25926C36.7066 3.04304 36.6736 2.82684 36.5984 2.6238C36.5232 2.42077 36.4076 2.23514 36.2584 2.0782C36.1093 1.92126 35.9298 1.7963 35.7308 1.71091C35.5319 1.62552 35.3176 1.58149 35.1011 1.58149C34.8846 1.58149 34.6704 1.62552 34.4715 1.71091C34.2725 1.7963 34.093 1.92126 33.9439 2.0782C33.7947 2.23514 33.679 2.42077 33.6039 2.6238C33.5287 2.82684 33.4957 3.04304 33.5067 3.25926C33.4886 3.4826 33.5161 3.70728 33.5875 3.91966C33.6589 4.13204 33.7727 4.32771 33.922 4.4948C34.0713 4.66188 34.253 4.7969 34.456 4.89166C34.6591 4.98642 34.8793 5.03895 35.1032 5.04607V5.02952Z" fill="black"/>
        <path d="M40.8317 0.359863H42.2794V2.63886H42.8708L44.1117 0.359863H45.6668L44.0703 3.18483L45.7578 6.25383H44.1365L42.8956 3.85488H42.3042V6.25383H40.8565L40.8317 0.359863Z" fill="black"/>
        <path d="M48.2023 0.359863H49.6334V6.27037H48.1857L48.2023 0.359863Z" fill="black"/>
        <path d="M52.6941 0.359863H54.1541L55.8086 3.11865C55.9918 3.44602 56.1575 3.7829 56.3049 4.12787C56.3049 4.12787 56.2511 3.4909 56.2511 3.13933V0.359863H57.6988V6.27037H56.2511L54.5967 3.51572C54.4135 3.18835 54.2478 2.85147 54.1004 2.50651C54.1004 2.50651 54.1665 3.14347 54.1665 3.51572V6.27037H52.6941V0.359863Z" fill="black"/>
        <path d="M63.4315 0.244105C64.2608 0.207723 65.0728 0.488746 65.7022 1.02997L65.0073 2.11363C64.6036 1.77601 64.0982 1.58375 63.5721 1.56766C62.3313 1.56766 61.8267 2.35766 61.8267 3.22211C61.8107 3.45358 61.8428 3.68585 61.921 3.90429C61.9992 4.12272 62.1219 4.32257 62.2812 4.49123C62.4406 4.65989 62.6331 4.79371 62.8468 4.88423C63.0604 4.97475 63.2905 5.02002 63.5225 5.01718C63.955 5.01094 64.374 4.86595 64.7178 4.60357V4.1486H63.8906V2.90776H66.0083V6.24975H64.8005V6.0843C64.8005 5.96022 64.8005 5.83613 64.8005 5.83613C64.3576 6.17991 63.81 6.36099 63.2495 6.34901C62.8542 6.34972 62.463 6.26949 62.0999 6.11324C61.7368 5.957 61.4095 5.72806 61.1383 5.44054C60.867 5.15301 60.6575 4.81298 60.5227 4.44141C60.3878 4.06984 60.3305 3.67459 60.3542 3.28001C60.3485 2.87624 60.4245 2.47547 60.5776 2.10183C60.7308 1.72818 60.9579 1.38936 61.2454 1.10576C61.5328 0.822156 61.8747 0.599625 62.2504 0.451548C62.6261 0.303472 63.0278 0.232909 63.4315 0.244105Z" fill="black"/>
        <path d="M16.9788 10.0466H17.5082V12.4993H20.6351V10.0466H21.1645V15.4236H20.6351V12.9419H17.5082V15.4236H16.9788V10.0466Z" fill="#00AEEF"/>
        <path d="M26.6325 9.95553C26.9936 9.95441 27.3513 10.0251 27.6848 10.1633C28.0184 10.3016 28.3211 10.5048 28.5755 10.7611C28.8299 11.0174 29.0308 11.3217 29.1666 11.6563C29.3023 11.9909 29.3703 12.3491 29.3664 12.7102C29.3664 13.4386 29.0771 14.1371 28.5621 14.6522C28.047 15.1672 27.3485 15.4566 26.6201 15.4566C25.8917 15.4566 25.1931 15.1672 24.6781 14.6522C24.163 14.1371 23.8737 13.4386 23.8737 12.7102C23.8698 12.347 23.9385 11.9867 24.0759 11.6505C24.2132 11.3142 24.4163 11.0088 24.6733 10.7522C24.9303 10.4956 25.236 10.2929 25.5725 10.1561C25.9089 10.0193 26.2693 9.9511 26.6325 9.95553ZM26.6325 15.0388C26.9303 15.0324 27.2239 14.9669 27.4961 14.8459C27.7684 14.725 28.0138 14.5511 28.2182 14.3344C28.4226 14.1177 28.5819 13.8625 28.6867 13.5836C28.7915 13.3048 28.8398 13.0079 28.8288 12.7102C28.8416 12.414 28.7944 12.1183 28.6899 11.8409C28.5854 11.5635 28.4259 11.3101 28.2209 11.096C28.0159 10.8818 27.7696 10.7114 27.497 10.595C27.2244 10.4786 26.931 10.4186 26.6345 10.4186C26.3381 10.4186 26.0447 10.4786 25.7721 10.595C25.4995 10.7114 25.2532 10.8818 25.0482 11.096C24.8432 11.3101 24.6836 11.5635 24.5792 11.8409C24.4747 12.1183 24.4275 12.414 24.4403 12.7102C24.4282 13.0078 24.4755 13.3049 24.5797 13.5839C24.6838 13.863 24.8427 14.1185 25.0468 14.3354C25.251 14.5523 25.4964 14.7262 25.7687 14.847C26.041 14.9678 26.3347 15.033 26.6325 15.0388Z" fill="#00AEEF"/>
        <path d="M32.0963 10.0466H32.6298V14.9645H35.1115V15.4401H32.0963V10.0466Z" fill="#00AEEF"/>
        <path d="M37.5973 10.0466H39.3386C40.9558 10.0466 42.0477 11.0352 42.0477 12.7392C42.0477 14.4433 40.9475 15.4401 39.3386 15.4401H37.5973V10.0466ZM39.2931 14.9645C40.6208 14.9645 41.5018 14.1827 41.5018 12.7392C41.5018 11.2957 40.6042 10.5223 39.2931 10.5223H38.135V14.9645H39.2931Z" fill="#00AEEF"/>
        <path d="M44.7983 10.0466H45.3277V15.4236H44.7983V10.0466Z" fill="#00AEEF"/>
        <path d="M48.4174 10.0466H48.9302L51.7014 13.9263C51.8834 14.1952 52.144 14.6584 52.144 14.6584C52.144 14.6584 52.0985 14.2117 52.0985 13.9263V10.0466H52.6279V15.4236H52.115L49.3604 11.5398C49.1743 11.2709 48.9137 10.8118 48.9137 10.8118C48.9137 10.8118 48.9592 11.2585 48.9592 11.5398V15.4236H48.4298L48.4174 10.0466Z" fill="#00AEEF"/>
        <path d="M58.0711 9.95571C58.7595 9.93466 59.4333 10.1573 59.9737 10.5844L59.6883 10.998C59.2255 10.6471 58.6601 10.4582 58.0793 10.4603C57.7826 10.457 57.4884 10.5147 57.2148 10.6298C56.9413 10.7449 56.6943 10.9149 56.4892 11.1293C56.2841 11.3438 56.1252 11.5981 56.0223 11.8764C55.9195 12.1548 55.8749 12.4513 55.8913 12.7476C55.8728 13.0416 55.9143 13.3363 56.0133 13.6138C56.1122 13.8912 56.2666 14.1457 56.4671 14.3616C56.6675 14.5775 56.9098 14.7503 57.1791 14.8696C57.4485 14.989 57.7393 15.0522 58.0339 15.0555C58.3555 15.0465 58.6718 14.9718 58.9635 14.836C59.2551 14.7001 59.5159 14.506 59.7297 14.2655V13.3556H58.8073V12.8634H60.2343V15.4402H59.7421V15.0266C59.7421 14.9108 59.7421 14.795 59.7421 14.795C59.5175 15.0324 59.2469 15.2215 58.9468 15.3509C58.6467 15.4804 58.3234 15.5473 57.9966 15.5477C57.6379 15.5442 57.2835 15.4685 56.9546 15.325C56.6258 15.1816 56.3292 14.9734 56.0825 14.7128C55.8359 14.4523 55.6442 14.1447 55.519 13.8085C55.3938 13.4723 55.3375 13.1143 55.3537 12.7559C55.3408 12.3917 55.4017 12.0286 55.5327 11.6886C55.6637 11.3485 55.862 11.0384 56.1158 10.7768C56.3696 10.5153 56.6736 10.3078 57.0096 10.1667C57.3456 10.0256 57.7067 9.95382 58.0711 9.95571Z" fill="#00AEEF"/>
        <path d="M62.9682 14.4349C63.3491 14.8022 63.8538 15.0132 64.3828 15.0264C64.5158 15.0401 64.6501 15.0262 64.7775 14.9856C64.9049 14.945 65.0226 14.8786 65.1231 14.7905C65.2236 14.7024 65.3049 14.5945 65.3619 14.4735C65.4188 14.3525 65.4502 14.2211 65.454 14.0875C65.454 12.7308 62.7614 13.0783 62.7614 11.4032C62.7614 10.6297 63.4439 9.95551 64.4407 9.95551C64.9705 9.93976 65.4866 10.1261 65.8842 10.4767L65.6236 10.9192C65.296 10.6311 64.8769 10.4685 64.4407 10.4601C64.3034 10.4459 64.1646 10.4594 64.0327 10.4999C63.9007 10.5404 63.7782 10.607 63.6725 10.6957C63.5668 10.7845 63.48 10.8935 63.4173 11.0165C63.3546 11.1394 63.3172 11.2737 63.3074 11.4114C63.3074 12.6895 66 12.3214 66 14.0958C66 14.8982 65.3796 15.5517 64.3662 15.5517C64.0492 15.5563 63.7344 15.4976 63.4404 15.3789C63.1464 15.2603 62.879 15.0842 62.6539 14.8609L62.9682 14.4349Z" fill="#00AEEF"/>
        <path d="M0.409475 6.43589C0.635623 6.43589 0.818951 6.25257 0.818951 6.02642C0.818951 5.80027 0.635623 5.61694 0.409475 5.61694C0.183328 5.61694 0 5.80027 0 6.02642C0 6.25257 0.183328 6.43589 0.409475 6.43589Z" fill="#002E6D"/>
        <path d="M0.409475 4.56211C0.635623 4.56211 0.818951 4.37879 0.818951 4.15264C0.818951 3.92649 0.635623 3.74316 0.409475 3.74316C0.183328 3.74316 0 3.92649 0 4.15264C0 4.37879 0.183328 4.56211 0.409475 4.56211Z" fill="#002E6D"/>
        <path d="M0.409475 2.69273C0.635623 2.69273 0.818951 2.5094 0.818951 2.28325C0.818951 2.05711 0.635623 1.87378 0.409475 1.87378C0.183328 1.87378 0 2.05711 0 2.28325C0 2.5094 0.183328 2.69273 0.409475 2.69273Z" fill="black"/>
        <path d="M0.409475 0.818951C0.635623 0.818951 0.818951 0.635623 0.818951 0.409475C0.818951 0.183328 0.635623 0 0.409475 0C0.183328 0 0 0.183328 0 0.409475C0 0.635623 0.183328 0.818951 0.409475 0.818951Z" fill="black"/>
        <path d="M1.86541 6.43589C2.09156 6.43589 2.27488 6.25257 2.27488 6.02642C2.27488 5.80027 2.09156 5.61694 1.86541 5.61694C1.63926 5.61694 1.45593 5.80027 1.45593 6.02642C1.45593 6.25257 1.63926 6.43589 1.86541 6.43589Z" fill="#002E6D"/>
        <path d="M1.86541 4.56211C2.09156 4.56211 2.27488 4.37879 2.27488 4.15264C2.27488 3.92649 2.09156 3.74316 1.86541 3.74316C1.63926 3.74316 1.45593 3.92649 1.45593 4.15264C1.45593 4.37879 1.63926 4.56211 1.86541 4.56211Z" fill="#002E6D"/>
        <path d="M1.86541 2.69273C2.09156 2.69273 2.27488 2.5094 2.27488 2.28325C2.27488 2.05711 2.09156 1.87378 1.86541 1.87378C1.63926 1.87378 1.45593 2.05711 1.45593 2.28325C1.45593 2.5094 1.63926 2.69273 1.86541 2.69273Z" fill="black"/>
        <path d="M1.86541 0.818951C2.09156 0.818951 2.27488 0.635623 2.27488 0.409475C2.27488 0.183328 2.09156 0 1.86541 0C1.63926 0 1.45593 0.183328 1.45593 0.409475C1.45593 0.635623 1.63926 0.818951 1.86541 0.818951Z" fill="black"/>
        <path d="M3.32128 6.43589C3.54743 6.43589 3.73076 6.25257 3.73076 6.02642C3.73076 5.80027 3.54743 5.61694 3.32128 5.61694C3.09513 5.61694 2.9118 5.80027 2.9118 6.02642C2.9118 6.25257 3.09513 6.43589 3.32128 6.43589Z" fill="#002E6D"/>
        <path d="M3.32128 4.56211C3.54743 4.56211 3.73076 4.37879 3.73076 4.15264C3.73076 3.92649 3.54743 3.74316 3.32128 3.74316C3.09513 3.74316 2.9118 3.92649 2.9118 4.15264C2.9118 4.37879 3.09513 4.56211 3.32128 4.56211Z" fill="#002E6D"/>
        <path d="M3.32128 2.69273C3.54743 2.69273 3.73076 2.5094 3.73076 2.28325C3.73076 2.05711 3.54743 1.87378 3.32128 1.87378C3.09513 1.87378 2.9118 2.05711 2.9118 2.28325C2.9118 2.5094 3.09513 2.69273 3.32128 2.69273Z" fill="black"/>
        <path d="M3.32128 0.818951C3.54743 0.818951 3.73076 0.635623 3.73076 0.409475C3.73076 0.183328 3.54743 0 3.32128 0C3.09513 0 2.9118 0.183328 2.9118 0.409475C2.9118 0.635623 3.09513 0.818951 3.32128 0.818951Z" fill="black"/>
        <path d="M4.77721 6.43589C5.00336 6.43589 5.18669 6.25257 5.18669 6.02642C5.18669 5.80027 5.00336 5.61694 4.77721 5.61694C4.55107 5.61694 4.36774 5.80027 4.36774 6.02642C4.36774 6.25257 4.55107 6.43589 4.77721 6.43589Z" fill="#002E6D"/>
        <path d="M6.23314 6.43589C6.45929 6.43589 6.64262 6.25257 6.64262 6.02642C6.64262 5.80027 6.45929 5.61694 6.23314 5.61694C6.007 5.61694 5.82367 5.80027 5.82367 6.02642C5.82367 6.25257 6.007 6.43589 6.23314 6.43589Z" fill="#002E6D"/>
        <path d="M6.23314 4.56211C6.45929 4.56211 6.64262 4.37879 6.64262 4.15264C6.64262 3.92649 6.45929 3.74316 6.23314 3.74316C6.007 3.74316 5.82367 3.92649 5.82367 4.15264C5.82367 4.37879 6.007 4.56211 6.23314 4.56211Z" fill="#002E6D"/>
        <path d="M6.23314 2.69273C6.45929 2.69273 6.64262 2.5094 6.64262 2.28325C6.64262 2.05711 6.45929 1.87378 6.23314 1.87378C6.007 1.87378 5.82367 2.05711 5.82367 2.28325C5.82367 2.5094 6.007 2.69273 6.23314 2.69273Z" fill="black"/>
        <path d="M6.23314 0.818951C6.45929 0.818951 6.64262 0.635623 6.64262 0.409475C6.64262 0.183328 6.45929 0 6.23314 0C6.007 0 5.82367 0.183328 5.82367 0.409475C5.82367 0.635623 6.007 0.818951 6.23314 0.818951Z" fill="black"/>
        <path d="M7.68902 6.43589C7.91516 6.43589 8.09849 6.25257 8.09849 6.02642C8.09849 5.80027 7.91516 5.61694 7.68902 5.61694C7.46287 5.61694 7.27954 5.80027 7.27954 6.02642C7.27954 6.25257 7.46287 6.43589 7.68902 6.43589Z" fill="#002E6D"/>
        <path d="M7.68902 4.56211C7.91516 4.56211 8.09849 4.37879 8.09849 4.15264C8.09849 3.92649 7.91516 3.74316 7.68902 3.74316C7.46287 3.74316 7.27954 3.92649 7.27954 4.15264C7.27954 4.37879 7.46287 4.56211 7.68902 4.56211Z" fill="#002E6D"/>
        <path d="M7.68902 2.69273C7.91516 2.69273 8.09849 2.5094 8.09849 2.28325C8.09849 2.05711 7.91516 1.87378 7.68902 1.87378C7.46287 1.87378 7.27954 2.05711 7.27954 2.28325C7.27954 2.5094 7.46287 2.69273 7.68902 2.69273Z" fill="black"/>
        <path d="M7.68902 0.818951C7.91516 0.818951 8.09849 0.635623 8.09849 0.409475C8.09849 0.183328 7.91516 0 7.68902 0C7.46287 0 7.27954 0.183328 7.27954 0.409475C7.27954 0.635623 7.46287 0.818951 7.68902 0.818951Z" fill="black"/>
        <path d="M9.14495 6.43589C9.3711 6.43589 9.55442 6.25257 9.55442 6.02642C9.55442 5.80027 9.3711 5.61694 9.14495 5.61694C8.9188 5.61694 8.73547 5.80027 8.73547 6.02642C8.73547 6.25257 8.9188 6.43589 9.14495 6.43589Z" fill="#002E6D"/>
        <path d="M9.14495 4.56211C9.3711 4.56211 9.55442 4.37879 9.55442 4.15264C9.55442 3.92649 9.3711 3.74316 9.14495 3.74316C8.9188 3.74316 8.73547 3.92649 8.73547 4.15264C8.73547 4.37879 8.9188 4.56211 9.14495 4.56211Z" fill="#002E6D"/>
        <path d="M9.14495 2.69273C9.3711 2.69273 9.55442 2.5094 9.55442 2.28325C9.55442 2.05711 9.3711 1.87378 9.14495 1.87378C8.9188 1.87378 8.73547 2.05711 8.73547 2.28325C8.73547 2.5094 8.9188 2.69273 9.14495 2.69273Z" fill="black"/>
        <path d="M9.14495 0.818951C9.3711 0.818951 9.55442 0.635623 9.55442 0.409475C9.55442 0.183328 9.3711 0 9.14495 0C8.9188 0 8.73547 0.183328 8.73547 0.409475C8.73547 0.635623 8.9188 0.818951 9.14495 0.818951Z" fill="black"/>
        <path d="M10.6009 6.43589C10.827 6.43589 11.0104 6.25257 11.0104 6.02642C11.0104 5.80027 10.827 5.61694 10.6009 5.61694C10.3747 5.61694 10.1914 5.80027 10.1914 6.02642C10.1914 6.25257 10.3747 6.43589 10.6009 6.43589Z" fill="#002E6D"/>
        <path d="M10.6009 4.56211C10.827 4.56211 11.0104 4.37879 11.0104 4.15264C11.0104 3.92649 10.827 3.74316 10.6009 3.74316C10.3747 3.74316 10.1914 3.92649 10.1914 4.15264C10.1914 4.37879 10.3747 4.56211 10.6009 4.56211Z" fill="#002E6D"/>
        <path d="M10.6009 2.69273C10.827 2.69273 11.0104 2.5094 11.0104 2.28325C11.0104 2.05711 10.827 1.87378 10.6009 1.87378C10.3747 1.87378 10.1914 2.05711 10.1914 2.28325C10.1914 2.5094 10.3747 2.69273 10.6009 2.69273Z" fill="black"/>
        <path d="M4.77721 4.56211C5.00336 4.56211 5.18669 4.37879 5.18669 4.15264C5.18669 3.92649 5.00336 3.74316 4.77721 3.74316C4.55107 3.74316 4.36774 3.92649 4.36774 4.15264C4.36774 4.37879 4.55107 4.56211 4.77721 4.56211Z" fill="#002E6D"/>
        <path d="M4.77721 2.69273C5.00336 2.69273 5.18669 2.5094 5.18669 2.28325C5.18669 2.05711 5.00336 1.87378 4.77721 1.87378C4.55107 1.87378 4.36774 2.05711 4.36774 2.28325C4.36774 2.5094 4.55107 2.69273 4.77721 2.69273Z" fill="black"/>
        <path d="M4.77721 0.818951C5.00336 0.818951 5.18669 0.635623 5.18669 0.409475C5.18669 0.183328 5.00336 0 4.77721 0C4.55107 0 4.36774 0.183328 4.36774 0.409475C4.36774 0.635623 4.55107 0.818951 4.77721 0.818951Z" fill="black"/>
        <path d="M0.409475 8.30528C0.635623 8.30528 0.818951 8.12195 0.818951 7.8958C0.818951 7.66966 0.635623 7.48633 0.409475 7.48633C0.183328 7.48633 0 7.66966 0 7.8958C0 8.12195 0.183328 8.30528 0.409475 8.30528Z" fill="#076AB1"/>
        <path d="M0.409475 10.1791C0.635623 10.1791 0.818951 9.99573 0.818951 9.76958C0.818951 9.54344 0.635623 9.36011 0.409475 9.36011C0.183328 9.36011 0 9.54344 0 9.76958C0 9.99573 0.183328 10.1791 0.409475 10.1791Z" fill="#076AB1"/>
        <path d="M0.409475 12.0526C0.635623 12.0526 0.818951 11.8693 0.818951 11.6431C0.818951 11.417 0.635623 11.2336 0.409475 11.2336C0.183328 11.2336 0 11.417 0 11.6431C0 11.8693 0.183328 12.0526 0.409475 12.0526Z" fill="#00AEEF"/>
        <path d="M0.409475 13.9222C0.635623 13.9222 0.818951 13.7389 0.818951 13.5127C0.818951 13.2866 0.635623 13.1033 0.409475 13.1033C0.183328 13.1033 0 13.2866 0 13.5127C0 13.7389 0.183328 13.9222 0.409475 13.9222Z" fill="#00AEEF"/>
        <path d="M0.409475 15.7958C0.635623 15.7958 0.818951 15.6124 0.818951 15.3863C0.818951 15.1601 0.635623 14.9768 0.409475 14.9768C0.183328 14.9768 0 15.1601 0 15.3863C0 15.6124 0.183328 15.7958 0.409475 15.7958Z" fill="#00AEEF"/>
        <path d="M1.86541 8.30528C2.09156 8.30528 2.27488 8.12195 2.27488 7.8958C2.27488 7.66966 2.09156 7.48633 1.86541 7.48633C1.63926 7.48633 1.45593 7.66966 1.45593 7.8958C1.45593 8.12195 1.63926 8.30528 1.86541 8.30528Z" fill="#076AB1"/>
        <path d="M1.86541 10.1791C2.09156 10.1791 2.27488 9.99573 2.27488 9.76958C2.27488 9.54344 2.09156 9.36011 1.86541 9.36011C1.63926 9.36011 1.45593 9.54344 1.45593 9.76958C1.45593 9.99573 1.63926 10.1791 1.86541 10.1791Z" fill="#076AB1"/>
        <path d="M1.86541 12.0526C2.09156 12.0526 2.27488 11.8693 2.27488 11.6431C2.27488 11.417 2.09156 11.2336 1.86541 11.2336C1.63926 11.2336 1.45593 11.417 1.45593 11.6431C1.45593 11.8693 1.63926 12.0526 1.86541 12.0526Z" fill="#00AEEF"/>
        <path d="M1.86541 13.9222C2.09156 13.9222 2.27488 13.7389 2.27488 13.5127C2.27488 13.2866 2.09156 13.1033 1.86541 13.1033C1.63926 13.1033 1.45593 13.2866 1.45593 13.5127C1.45593 13.7389 1.63926 13.9222 1.86541 13.9222Z" fill="#00AEEF"/>
        <path d="M1.86541 15.7958C2.09156 15.7958 2.27488 15.6124 2.27488 15.3863C2.27488 15.1601 2.09156 14.9768 1.86541 14.9768C1.63926 14.9768 1.45593 15.1601 1.45593 15.3863C1.45593 15.6124 1.63926 15.7958 1.86541 15.7958Z" fill="#00AEEF"/>
        <path d="M3.32128 8.30528C3.54743 8.30528 3.73076 8.12195 3.73076 7.8958C3.73076 7.66966 3.54743 7.48633 3.32128 7.48633C3.09513 7.48633 2.9118 7.66966 2.9118 7.8958C2.9118 8.12195 3.09513 8.30528 3.32128 8.30528Z" fill="#076AB1"/>
        <path d="M3.32128 10.1791C3.54743 10.1791 3.73076 9.99573 3.73076 9.76958C3.73076 9.54344 3.54743 9.36011 3.32128 9.36011C3.09513 9.36011 2.9118 9.54344 2.9118 9.76958C2.9118 9.99573 3.09513 10.1791 3.32128 10.1791Z" fill="#076AB1"/>
        <path d="M3.32128 12.0526C3.54743 12.0526 3.73076 11.8693 3.73076 11.6431C3.73076 11.417 3.54743 11.2336 3.32128 11.2336C3.09513 11.2336 2.9118 11.417 2.9118 11.6431C2.9118 11.8693 3.09513 12.0526 3.32128 12.0526Z" fill="#00AEEF"/>
        <path d="M3.32128 13.9222C3.54743 13.9222 3.73076 13.7389 3.73076 13.5127C3.73076 13.2866 3.54743 13.1033 3.32128 13.1033C3.09513 13.1033 2.9118 13.2866 2.9118 13.5127C2.9118 13.7389 3.09513 13.9222 3.32128 13.9222Z" fill="#00AEEF"/>
        <path d="M3.32128 15.7958C3.54743 15.7958 3.73076 15.6124 3.73076 15.3863C3.73076 15.1601 3.54743 14.9768 3.32128 14.9768C3.09513 14.9768 2.9118 15.1601 2.9118 15.3863C2.9118 15.6124 3.09513 15.7958 3.32128 15.7958Z" fill="#00AEEF"/>
        <path d="M4.77721 8.30528C5.00336 8.30528 5.18669 8.12195 5.18669 7.8958C5.18669 7.66966 5.00336 7.48633 4.77721 7.48633C4.55107 7.48633 4.36774 7.66966 4.36774 7.8958C4.36774 8.12195 4.55107 8.30528 4.77721 8.30528Z" fill="#076AB1"/>
        <path d="M4.77721 10.1791C5.00336 10.1791 5.18669 9.99573 5.18669 9.76958C5.18669 9.54344 5.00336 9.36011 4.77721 9.36011C4.55107 9.36011 4.36774 9.54344 4.36774 9.76958C4.36774 9.99573 4.55107 10.1791 4.77721 10.1791Z" fill="#076AB1"/>
        <path d="M6.23314 10.1791C6.45929 10.1791 6.64262 9.99573 6.64262 9.76958C6.64262 9.54344 6.45929 9.36011 6.23314 9.36011C6.007 9.36011 5.82367 9.54344 5.82367 9.76958C5.82367 9.99573 6.007 10.1791 6.23314 10.1791Z" fill="#076AB1"/>
        <path d="M6.23314 12.0526C6.45929 12.0526 6.64262 11.8693 6.64262 11.6431C6.64262 11.417 6.45929 11.2336 6.23314 11.2336C6.007 11.2336 5.82367 11.417 5.82367 11.6431C5.82367 11.8693 6.007 12.0526 6.23314 12.0526Z" fill="#00AEEF"/>
        <path d="M6.23314 13.9222C6.45929 13.9222 6.64262 13.7389 6.64262 13.5127C6.64262 13.2866 6.45929 13.1033 6.23314 13.1033C6.007 13.1033 5.82367 13.2866 5.82367 13.5127C5.82367 13.7389 6.007 13.9222 6.23314 13.9222Z" fill="#00AEEF"/>
        <path d="M6.23314 15.7958C6.45929 15.7958 6.64262 15.6124 6.64262 15.3863C6.64262 15.1601 6.45929 14.9768 6.23314 14.9768C6.007 14.9768 5.82367 15.1601 5.82367 15.3863C5.82367 15.6124 6.007 15.7958 6.23314 15.7958Z" fill="#00AEEF"/>
        <path d="M7.68902 10.1791C7.91516 10.1791 8.09849 9.99573 8.09849 9.76958C8.09849 9.54344 7.91516 9.36011 7.68902 9.36011C7.46287 9.36011 7.27954 9.54344 7.27954 9.76958C7.27954 9.99573 7.46287 10.1791 7.68902 10.1791Z" fill="#076AB1"/>
        <path d="M7.68902 12.0526C7.91516 12.0526 8.09849 11.8693 8.09849 11.6431C8.09849 11.417 7.91516 11.2336 7.68902 11.2336C7.46287 11.2336 7.27954 11.417 7.27954 11.6431C7.27954 11.8693 7.46287 12.0526 7.68902 12.0526Z" fill="#00AEEF"/>
        <path d="M7.68902 13.9222C7.91516 13.9222 8.09849 13.7389 8.09849 13.5127C8.09849 13.2866 7.91516 13.1033 7.68902 13.1033C7.46287 13.1033 7.27954 13.2866 7.27954 13.5127C7.27954 13.7389 7.46287 13.9222 7.68902 13.9222Z" fill="#00AEEF"/>
        <path d="M7.68902 15.7958C7.91516 15.7958 8.09849 15.6124 8.09849 15.3863C8.09849 15.1601 7.91516 14.9768 7.68902 14.9768C7.46287 14.9768 7.27954 15.1601 7.27954 15.3863C7.27954 15.6124 7.46287 15.7958 7.68902 15.7958Z" fill="#00AEEF"/>
        <path d="M9.14495 10.1791C9.3711 10.1791 9.55442 9.99573 9.55442 9.76958C9.55442 9.54344 9.3711 9.36011 9.14495 9.36011C8.9188 9.36011 8.73547 9.54344 8.73547 9.76958C8.73547 9.99573 8.9188 10.1791 9.14495 10.1791Z" fill="#076AB1"/>
        <path d="M9.14495 12.0526C9.3711 12.0526 9.55442 11.8693 9.55442 11.6431C9.55442 11.417 9.3711 11.2336 9.14495 11.2336C8.9188 11.2336 8.73547 11.417 8.73547 11.6431C8.73547 11.8693 8.9188 12.0526 9.14495 12.0526Z" fill="#00AEEF"/>
        <path d="M9.14495 13.9222C9.3711 13.9222 9.55442 13.7389 9.55442 13.5127C9.55442 13.2866 9.3711 13.1033 9.14495 13.1033C8.9188 13.1033 8.73547 13.2866 8.73547 13.5127C8.73547 13.7389 8.9188 13.9222 9.14495 13.9222Z" fill="#00AEEF"/>
        <path d="M9.14495 15.7958C9.3711 15.7958 9.55442 15.6124 9.55442 15.3863C9.55442 15.1601 9.3711 14.9768 9.14495 14.9768C8.9188 14.9768 8.73547 15.1601 8.73547 15.3863C8.73547 15.6124 8.9188 15.7958 9.14495 15.7958Z" fill="#00AEEF"/>
        <path d="M10.6009 10.1791C10.827 10.1791 11.0104 9.99573 11.0104 9.76958C11.0104 9.54344 10.827 9.36011 10.6009 9.36011C10.3747 9.36011 10.1914 9.54344 10.1914 9.76958C10.1914 9.99573 10.3747 10.1791 10.6009 10.1791Z" fill="#076AB1"/>
        <path d="M10.6009 12.0526C10.827 12.0526 11.0104 11.8693 11.0104 11.6431C11.0104 11.417 10.827 11.2336 10.6009 11.2336C10.3747 11.2336 10.1914 11.417 10.1914 11.6431C10.1914 11.8693 10.3747 12.0526 10.6009 12.0526Z" fill="#00AEEF"/>
        <path d="M6.23314 8.30528C6.45929 8.30528 6.64262 8.12195 6.64262 7.8958C6.64262 7.66966 6.45929 7.48633 6.23314 7.48633C6.007 7.48633 5.82367 7.66966 5.82367 7.8958C5.82367 8.12195 6.007 8.30528 6.23314 8.30528Z" fill="#076AB1"/>
        <path d="M7.68902 8.30528C7.91516 8.30528 8.09849 8.12195 8.09849 7.8958C8.09849 7.66966 7.91516 7.48633 7.68902 7.48633C7.46287 7.48633 7.27954 7.66966 7.27954 7.8958C7.27954 8.12195 7.46287 8.30528 7.68902 8.30528Z" fill="#076AB1"/>
        <path d="M9.14495 8.30528C9.3711 8.30528 9.55442 8.12195 9.55442 7.8958C9.55442 7.66966 9.3711 7.48633 9.14495 7.48633C8.9188 7.48633 8.73547 7.66966 8.73547 7.8958C8.73547 8.12195 8.9188 8.30528 9.14495 8.30528Z" fill="#076AB1"/>
        <path d="M10.6009 13.9222C10.827 13.9222 11.0104 13.7389 11.0104 13.5127C11.0104 13.2866 10.827 13.1033 10.6009 13.1033C10.3747 13.1033 10.1914 13.2866 10.1914 13.5127C10.1914 13.7389 10.3747 13.9222 10.6009 13.9222Z" fill="#00AEEF"/>
        <path d="M4.77721 12.0526C5.00336 12.0526 5.18669 11.8693 5.18669 11.6431C5.18669 11.417 5.00336 11.2336 4.77721 11.2336C4.55107 11.2336 4.36774 11.417 4.36774 11.6431C4.36774 11.8693 4.55107 12.0526 4.77721 12.0526Z" fill="#00AEEF"/>
        <path d="M4.77721 13.9222C5.00336 13.9222 5.18669 13.7389 5.18669 13.5127C5.18669 13.2866 5.00336 13.1033 4.77721 13.1033C4.55107 13.1033 4.36774 13.2866 4.36774 13.5127C4.36774 13.7389 4.55107 13.9222 4.77721 13.9222Z" fill="#00AEEF"/>
        <path d="M4.77721 15.7958C5.00336 15.7958 5.18669 15.6124 5.18669 15.3863C5.18669 15.1601 5.00336 14.9768 4.77721 14.9768C4.55107 14.9768 4.36774 15.1601 4.36774 15.3863C4.36774 15.6124 4.55107 15.7958 4.77721 15.7958Z" fill="#00AEEF"/>
    </g>
    <defs>
        <clipPath id="clip0_722_46">
            <rect width="66" height="15.7958" fill="white"/>
        </clipPath>
    </defs>
</svg>
