<svg width="160" height="36" viewBox="0 0 160 36" fill="none" xmlns="http://www.w3.org/2000/svg">
<g clip-path="url(#clip0_112_3959)">
<path fill-rule="evenodd" clip-rule="evenodd" d="M154.138 3.40114C154.138 2.13373 155.163 1.10492 156.432 1.10492C157.701 1.10492 158.728 2.13373 158.728 3.40114C158.728 4.66685 157.701 5.69398 156.432 5.69398C155.163 5.69398 154.138 4.66685 154.138 3.40114ZM153.682 3.40114C153.682 1.8816 154.916 0.648041 156.432 0.648041C157.952 0.648041 159.187 1.8816 159.187 3.40114C159.187 4.91898 157.952 6.15254 156.432 6.15254C154.916 6.15254 153.682 4.91898 153.682 3.40114ZM156.058 3.51959H156.126L157.073 4.92575H157.649L156.667 3.49759C156.908 3.48067 157.094 3.39606 157.222 3.24039C157.341 3.08809 157.434 2.89858 157.449 2.64983L157.381 2.2471L157.17 1.95606L156.845 1.80377L156.402 1.78685H155.688L155.468 4.93252H155.948L156.05 3.52466L156.058 3.51959ZM156.126 3.12194L156.193 2.22003H156.278C156.508 2.22003 156.676 2.23695 156.782 2.30464L156.935 2.68537L156.743 3.04071C156.642 3.1084 156.457 3.12532 156.234 3.1084H156.15L156.126 3.12194Z" fill="#00789E"/>
<path d="M31.1889 0.549896L20.5691 35.4501H29.7743L31.441 28.8982H29.4849L34.426 9.67556L35.2788 23.3954H37.0995L36.7509 35.4501H44.1726L38.262 0.549896H31.1889Z" fill="#00789E"/>
<path d="M49.9294 0.549896L47.623 35.4501H61.6914L62.1263 28.8982H54.9077L57.0398 0.549896H49.9294Z" fill="#00789E"/>
<path d="M67.7002 0.549896L65.3938 35.4501H79.4605L79.8954 28.8982H72.6784L74.8139 0.549896H67.7002Z" fill="#00789E"/>
<path d="M92.4474 0.549896L81.8276 35.4501H91.0328L92.6979 28.8982H90.7435L95.6811 9.67556L96.5356 23.3954H98.3581L98.0078 35.4501H105.431L99.5206 0.549896H92.4474Z" fill="#00789E"/>
<path fill-rule="evenodd" clip-rule="evenodd" d="M138.137 35.4501C150.775 35.4501 153.173 23.7846 153.61 16.9433C153.841 13.2849 153.418 6.01886 148.35 2.65998C146.156 1.20644 143.546 0.549896 138.688 0.549896H134.71L132.443 35.4501H138.137ZM139.387 28.9033L140.844 6.77017C146.376 6.80401 147.036 12.9025 146.79 17.2123C146.541 21.5848 144.988 29.2061 139.387 28.9033Z" fill="#00789E"/>
<path fill-rule="evenodd" clip-rule="evenodd" d="M115.642 35.4501L116.713 19.2276L121.767 35.4501H128.779L123.82 19.5204C128.373 17.2529 129.184 12.0513 129.184 9.92769C129.184 3.80048 124.754 0.549896 118.405 0.549896H111.401L109.093 35.4501H115.642ZM117.555 6.44021H118.334C120.699 6.44021 122.479 7.34719 122.479 9.92769C122.479 12.8957 121.036 15.4694 117.791 15.4694H116.961L117.555 6.44021Z" fill="#00789E"/>
<path fill-rule="evenodd" clip-rule="evenodd" d="M7.23693 35.4501C13.9005 35.4501 19.6386 32.1048 19.6386 24.81C19.6386 22.2701 18.295 18.8672 15.9768 17.6015C19.7655 14.7604 20.1039 11.4489 20.1039 9.05624C20.1039 4.46041 16.9007 0.549896 9.69898 0.549896H2.47019L0.163818 35.4501H7.23693ZM8.06269 15.043L8.63124 6.40129C11.3826 6.38437 13.7279 7.0426 13.7279 10.1798C13.7279 13.5488 11.2947 15.1581 8.06269 15.043ZM12.9496 25.1399C12.9496 28.2382 9.95957 29.707 7.09817 29.597L7.72426 20.1194C11.2236 20.2209 12.9496 21.6795 12.9496 25.1399Z" fill="#00789E"/>
</g>
<defs>
<clipPath id="clip0_112_3959">
<rect width="160" height="35.1445" fill="white" transform="translate(0 0.42775)"/>
</clipPath>
</defs>
</svg>
