<svg width="160" height="40" viewBox="0 0 160 40" fill="none" xmlns="http://www.w3.org/2000/svg">
    <path d="M20.3631 30.9077V8.65971H25.4307V30.9077H20.3631ZM118.872 22.5956C118.872 17.219 114.701 13.8818 109.818 13.8818C104.905 13.8818 100.765 17.2499 100.765 22.5956C100.765 27.9722 104.936 31.3403 109.818 31.3403C114.701 31.3403 118.872 27.9413 118.872 22.5956ZM113.866 22.5956C113.866 25.4075 111.981 26.9834 109.788 26.9834C107.594 26.9834 105.709 25.4075 105.709 22.5956C105.709 19.7528 107.594 18.2387 109.788 18.2387C111.981 18.2387 113.866 19.7528 113.866 22.5956ZM18.3237 24.5114C18.3237 22.0085 17.0259 20.0927 14.7084 19.2275C16.9023 18.0224 17.6748 16.4465 17.6748 14.5925C17.6748 11.348 15.3264 8.65971 10.0734 8.69061H0V30.9386H10.506C15.7899 30.9077 18.3237 28.2812 18.3237 24.5114ZM12.2982 15.2414C12.2982 16.7555 11.3403 17.6207 9.48629 17.6207H5.28389V12.9857H9.48629C11.1858 12.9857 12.2982 13.7273 12.2982 15.2414ZM12.7617 24.1715C12.7617 25.6238 11.742 26.5817 9.85709 26.5817H5.28389V21.7613H9.85709C11.6802 21.7613 12.7617 22.6883 12.7617 24.1715ZM62.4488 18.4241C61.0583 15.5195 58.4627 13.9127 54.5384 13.9127C49.9034 13.9127 45.7628 16.8173 45.7628 22.5956C45.7628 28.2194 49.409 31.3403 54.4766 31.3403C58.0301 31.3403 61.0274 29.9189 62.4488 26.8598L58.37 24.7586C57.6284 26.1182 56.4851 26.9834 54.662 26.9834C52.3136 26.9834 50.7995 25.3148 50.7995 22.5956C50.7995 19.8764 52.5299 18.2387 54.6311 18.2387C56.2688 18.2387 57.5048 18.9803 58.2773 20.5871L62.4488 18.4241ZM137.134 18.4241C135.744 15.5195 133.148 13.9127 129.224 13.9127C124.589 13.9127 120.448 16.8173 120.448 22.5956C120.448 28.2194 124.094 31.3403 129.162 31.3403C132.715 31.3403 135.713 29.9189 137.134 26.8598L133.055 24.7586C132.314 26.1182 131.17 26.9834 129.347 26.9834C126.999 26.9834 125.485 25.3148 125.485 22.5956C125.485 19.8764 127.215 18.2387 129.316 18.2387C130.954 18.2387 132.19 18.9803 132.963 20.5871L137.134 18.4241ZM94.6466 30.9077L90.4133 23.4299H87.1688V30.9077H81.9467V8.65971H91.3712C96.4697 8.65971 100.023 11.1008 100.023 15.8903C100.023 18.9494 98.5091 21.1124 95.8208 22.4411L100.703 30.9077H94.6466ZM87.1997 19.0112H91.0931C93.5033 19.0112 94.6775 17.6516 94.6775 16.0448C94.6775 14.129 93.5651 13.0784 91.0931 13.0784H87.1997V19.0112ZM44.9285 30.6296V27.1379C44.7122 27.1997 44.4032 27.2615 44.0633 27.2615C43.4144 27.2615 43.0745 26.9216 43.0745 26.3345V20.5562C43.0745 16.2302 40.1699 13.9436 35.3805 13.9436C32.2596 13.9436 29.6022 15.0869 27.9336 16.5701L30.7455 19.7219C31.8579 18.7331 33.3411 18.1151 34.7934 18.1151C37.0182 18.1151 38.0688 19.2275 38.0688 21.0506V21.5759C37.0182 21.3287 35.6895 21.0815 34.0827 21.0815C30.0348 21.0815 27.4083 23.0282 27.4083 26.2418C27.4083 29.5481 29.6022 31.2785 33.0012 31.2785C35.3187 31.2785 37.389 30.3206 38.4705 29.0846C39.1194 30.7223 40.5407 31.1549 41.9312 31.1549C42.8891 31.1858 44.0015 31.0313 44.9285 30.6296ZM38.0997 25.4075C38.0997 26.9216 36.6474 27.9104 34.9788 27.9104C33.4029 27.9104 32.6304 27.107 32.6304 25.9946C32.6304 24.8204 33.4956 23.9552 35.2569 23.9552C36.3384 23.9552 37.2963 24.1406 38.0997 24.326V25.4075ZM155.241 30.9077L149.278 20.5562L154.871 14.4689H149.247L143.345 21.0197V8.69061H138.308V30.9386H143.345V26.9216L145.755 24.3569L149.525 30.9386H155.241V30.9077ZM80.618 30.9077L74.6543 20.5562L80.2472 14.4689H74.5616L68.7215 21.0197V8.69061H63.6848V30.9386H68.7215V26.9216L71.1317 24.3569L74.9015 30.9386H80.618V30.9077ZM158.331 27.8177C159.382 27.8177 160 28.4666 160 29.4554C160 30.4442 159.382 31.0931 158.331 31.0931C157.281 31.0931 156.663 30.4442 156.663 29.4554C156.663 28.4666 157.281 27.8177 158.331 27.8177ZM158.331 30.8768C159.166 30.8768 159.722 30.3824 159.722 29.4554C159.722 28.5284 159.135 28.034 158.331 28.034C157.497 28.034 156.941 28.5284 156.941 29.4554C156.91 30.4133 157.497 30.8768 158.331 30.8768ZM157.682 28.6211H158.362C158.764 28.6211 158.98 28.8374 158.98 29.1464C158.98 29.4245 158.857 29.579 158.64 29.6717L158.949 30.2588H158.64L158.362 29.7335H157.992V30.2588H157.682V28.6211ZM157.992 28.8683V29.4554H158.331C158.548 29.4554 158.671 29.3936 158.671 29.1773C158.671 28.9919 158.579 28.8992 158.362 28.8992H157.992V28.8683Z" fill="black"/>
</svg>
