<svg width="66" height="31" viewBox="0 0 66 31" fill="none" xmlns="http://www.w3.org/2000/svg">
    <g clip-path="url(#clip0_222:178)">
        <path d="M20.8774 25.0082C19.8978 25.3077 18.6515 25.7811 16.5686 26.4574C17.0227 24.7184 17.2758 22.222 17.1193 19.5614C16.3157 19.4554 15.5256 19.265 14.762 18.9933C14.9552 23.0896 14.0992 27.1414 13.8268 27.2901C11.5534 27.9981 9.17422 28.3054 6.79554 28.1983C4.58897 28.0688 2.17372 27.4255 0.127525 25.9454L0 28.3703C0.637626 28.9306 3.68083 30.7836 6.93465 30.7836C10.8454 30.8474 14.1457 29.8175 17.3396 28.749C19.6582 27.9761 20.8774 27.5181 20.8774 27.5181V25.0082Z" fill="#007FAB"/>
        <path d="M1.74859 21.0183C1.30667 21.3838 0.948248 21.8398 0.697477 22.3554C0.320698 23.1283 0.212495 24.1698 0.18158 24.7455C2.49756 26.2294 5.19074 27.0173 7.94129 27.0159C6.20231 26.2295 3.63635 24.4577 1.75825 21.0261" fill="#007FAB"/>
        <path d="M9.60302 26.9269C10.5902 26.8273 11.5695 26.6608 12.5342 26.4284C9.66098 25.8681 5.53574 23.362 3.23642 20.228H3.2113C2.85277 20.3307 2.51107 20.485 2.1969 20.6859C3.18232 22.3109 5.18987 24.8846 9.60302 26.9211" fill="#007FAB"/>
        <path d="M18.0506 23.8665C18.1009 23.8665 19.1037 22.9525 20.0949 21.2908C19.5994 20.6536 18.945 20.1579 18.1975 19.8533C18.3101 21.192 18.2609 22.5395 18.0506 23.8665Z" fill="#007FAB"/>
        <path d="M17.9443 24.8111C18.5413 24.6179 19.8571 24.1716 20.8773 23.8605V23.3273C20.8731 23.0366 20.8236 22.7485 20.7305 22.4732C20.6703 22.2854 20.5939 22.103 20.5025 21.9283C19.8321 23.0368 18.9652 24.0137 17.9443 24.8111Z" fill="#007FAB"/>
        <path d="M13.2626 25.1976C13.3107 25.056 13.3494 24.9114 13.3786 24.7648C13.423 24.5716 13.4578 24.3571 13.4887 24.1504C13.5254 23.901 13.5583 23.6498 13.5853 23.3986C13.6181 23.1166 13.6452 22.8345 13.6704 22.5524C13.6955 22.2703 13.7167 21.9514 13.7341 21.6501C13.7515 21.3486 13.767 21.0434 13.7785 20.738C13.7901 20.4328 13.794 20.1584 13.7959 19.8589C13.7979 19.5594 13.7959 19.3199 13.7862 19.0513C13.765 18.4388 13.6626 17.8262 13.8423 17.2234C13.9495 16.8567 14.123 16.5129 14.3543 16.209C14.5823 15.9152 14.9204 15.6293 15.3088 15.6062C16.4082 15.5405 17.6604 15.9617 17.9405 15.413C18.025 15.2564 18.0717 15.0821 18.0768 14.9043C18.0818 14.7265 18.045 14.55 17.9694 14.3888C17.8342 14.0604 18.2014 13.8536 18.2014 13.8536C18.4892 13.6121 18.1453 13.3532 18.1453 13.3532C18.7462 13.1754 18.4255 12.8219 18.4255 12.8219C18.3392 12.6495 18.293 12.4599 18.2902 12.2673C18.4753 12.1308 18.6689 12.0062 18.8699 11.8943C19.0631 11.7804 19.1424 11.5273 18.8177 11.2027C17.925 10.2366 17.699 9.75545 17.699 9.75545C17.6838 9.7325 17.6733 9.70679 17.6681 9.67979C17.6629 9.65277 17.6631 9.62501 17.6687 9.59807C17.6742 9.57114 17.685 9.54557 17.7006 9.52283C17.7161 9.50011 17.7358 9.48065 17.7588 9.46561C17.8593 9.40571 17.8845 9.39605 17.8922 9.3149C17.9965 8.00294 17.3357 6.78566 16.8585 6.17894C16.9491 6.11006 17.0595 6.07213 17.1734 6.07074C16.7547 5.62619 16.2506 5.27066 15.6914 5.02542C17.0053 4.14047 17.2507 2.47106 17.2507 2.47106C17.4903 1.27117 18.6438 0.401674 18.6438 0.401674C15.6122 0.0133021 14.165 0.629673 14.165 0.629673C14.1445 0.521391 14.1456 0.410104 14.1685 0.302294C14.1914 0.194485 14.2355 0.0923059 14.2983 0.00170898C11.0135 0.47703 10.2407 1.6209 10.1982 1.66726C10.0638 1.49507 9.96467 1.2981 9.90641 1.08761C8.61957 2.52709 8.16742 3.59946 7.94909 4.24289C7.80613 4.14445 7.67627 4.02823 7.56265 3.89702C6.83614 5.79444 6.82648 7.00786 6.86706 7.67639C6.68321 7.64296 6.50665 7.57756 6.34536 7.48317C6.45936 9.27626 6.79943 10.3757 7.09506 11.0152C6.9433 11.0362 6.7887 11.0197 6.64485 10.9669C6.81489 11.3824 6.99844 11.792 7.1994 12.1938C7.35977 12.5127 7.53367 12.8257 7.72495 13.1271C7.87055 13.3608 8.03127 13.5848 8.20608 13.7976C8.26018 13.8633 8.31621 13.929 8.37417 13.9908C8.48624 14.1107 8.61183 14.2111 8.72969 14.3251C8.95396 14.5769 9.07895 14.9018 9.08136 15.239C9.27458 17.7509 6.58882 19.1034 4.68561 19.7835C8.53068 23.8412 12.8394 25.155 13.2607 25.1937" fill="#007FAB"/>
        <path d="M35.5235 26.2312C36.6481 26.2312 37.023 25.5917 36.9669 24.1059C36.6346 24.3126 36.0241 24.3571 35.5081 24.4923C34.9922 24.6275 34.542 24.8401 34.542 25.4101C34.542 25.9801 34.998 26.2293 35.5274 26.2293L35.5235 26.2312ZM32.461 22.4944C32.4606 22.1016 32.5645 21.7157 32.762 21.3763C32.9596 21.0368 33.2438 20.7558 33.5856 20.5622C34.2232 20.2008 35.0579 20.0618 35.8772 20.0618C37.5853 20.0618 39.2372 20.4482 39.2372 22.4789V25.6323C39.2372 26.2429 39.2372 26.9075 39.5135 27.4775H37.1486C37.0741 27.2574 37.0274 27.029 37.0095 26.7974C36.3988 27.435 35.4965 27.6862 34.6347 27.6862C33.259 27.6862 32.177 26.9925 32.177 25.5067C32.177 23.1591 34.7333 23.3407 36.3699 23.0065C36.7737 22.9233 36.9959 22.7842 36.9959 22.3398C36.9959 21.7988 36.3428 21.5901 35.8559 21.5901C35.2048 21.5901 34.7874 21.8819 34.6753 22.4924L32.461 22.4944Z" fill="#007FAB"/>
        <path d="M40.2592 20.2723H42.5489V21.2558H42.576C43.0069 20.5197 43.9787 20.0636 44.8405 20.0636C47.2422 20.0636 47.4374 21.8026 47.4374 22.8537V27.4775H45.0762V23.9996C45.0762 23.0122 45.1883 22.0132 43.8975 22.0132C43.0069 22.0132 42.6185 22.7629 42.6185 23.559V27.4891H40.2592V20.2723Z" fill="#007FAB"/>
        <path d="M50.6025 23.8007C50.6025 24.7861 50.9637 25.8836 52.0458 25.8836C53.2051 25.8836 53.4504 24.7861 53.4504 23.8702C53.4504 22.8288 53.0756 21.8705 52.0458 21.8705C50.9637 21.8705 50.6025 22.8829 50.6025 23.8027V23.8007ZM55.7285 27.4738H53.4775V26.6468H53.4504C53.2355 26.9751 52.9401 27.2431 52.5925 27.4254C52.245 27.6077 51.8566 27.6981 51.4642 27.6882C49.1997 27.6882 48.2432 25.7445 48.2432 23.7176C48.2432 21.8414 49.2422 20.0658 51.2825 20.0658C51.6798 20.0474 52.0753 20.1277 52.434 20.2993C52.7927 20.4709 53.1034 20.7286 53.3384 21.0492H53.3674V17.5713H55.7285V27.4738Z" fill="#007FAB"/>
        <path d="M26.8151 13.6315H28.8845C29.7037 13.6315 30.2737 13.3397 30.2737 12.5204C30.2737 11.6451 29.6612 11.3612 28.8845 11.3612H26.8151V13.6315ZM26.8151 9.68788H28.8148C29.2592 9.68788 29.8699 9.45214 29.8699 8.74496C29.8699 8.03777 29.356 7.77886 28.8148 7.77886H26.8151V9.68788ZM24.2317 5.78483H28.869C30.5789 5.75778 32.461 6.20219 32.461 8.27157C32.4555 8.69426 32.3299 9.10668 32.099 9.46075C31.8681 9.81483 31.5413 10.096 31.1567 10.2714C31.6592 10.4188 32.0982 10.7295 32.4043 11.1543C32.7105 11.579 32.8664 12.0938 32.8474 12.6171C32.8474 14.9783 31.1084 15.7086 28.983 15.7086H24.2317V5.78483Z" fill="#007FAB"/>
        <path d="M33.574 8.50331H35.8637V9.76697H35.8926C36.2404 8.85111 37.052 8.3642 38.0586 8.3642C38.2449 8.36294 38.4307 8.38107 38.6132 8.4183V10.563C38.3205 10.4744 38.0167 10.4276 37.7108 10.4239C36.5516 10.4239 35.9332 11.2297 35.9332 12.132V15.6988H33.574V8.50331Z" fill="#007FAB"/>
        <path d="M39.3666 8.50341H41.7355V15.7105H39.3666V8.50341ZM41.7355 7.59141H39.3685V5.78674H41.7355V7.59141Z" fill="#007FAB"/>
        <path d="M47.4761 10.0202H46.0192V13.3049C46.0192 13.8846 46.3515 13.9966 46.8655 13.9966C47.0587 13.9966 47.2674 13.9696 47.4761 13.9696V15.7086C47.0452 15.7221 46.6143 15.7781 46.1853 15.7781C44.172 15.7781 43.6581 15.1985 43.6581 13.2353V10.0202H42.4639V8.50339H43.6678V6.31421H46.0289V8.50339H47.4858L47.4761 10.0202Z" fill="#007FAB"/>
        <path d="M48.2141 8.50341H50.5733V15.7105H48.2141V8.50341ZM50.5733 7.60108H48.2122V5.78674H50.5733V7.60108Z" fill="#007FAB"/>
        <path d="M53.5606 13.3338C53.5554 13.4894 53.5879 13.6438 53.6551 13.7841C53.7224 13.9244 53.8225 14.0463 53.9471 14.1396C54.2055 14.3124 54.5117 14.3996 54.8224 14.3889C55.2804 14.3889 55.9315 14.1956 55.9315 13.6159C55.9315 13.0363 55.1972 12.9494 54.7721 12.8431C53.2863 12.4682 51.4256 12.4258 51.4256 10.48C51.4256 8.74103 53.2998 8.27344 54.7103 8.27344C56.2947 8.27344 57.9467 8.73137 58.0299 10.6055H55.8657C55.8757 10.4835 55.8524 10.361 55.7983 10.2512C55.7441 10.1413 55.6614 10.0481 55.5585 9.98149C55.3314 9.85193 55.0721 9.78962 54.8108 9.80181C54.4243 9.80181 53.7964 9.84238 53.7964 10.3428C53.7964 11.023 55.3788 11.1485 56.4609 11.3842C57.9216 11.676 58.2945 12.7368 58.2945 13.3281C58.2945 15.2602 56.4609 15.8979 54.8378 15.8979C53.1297 15.8979 51.3791 15.3182 51.3116 13.3146L53.5606 13.3338Z" fill="#007FAB"/>
        <path d="M58.8201 5.78479H61.1832V9.47916H61.2082C61.5696 8.74492 62.5415 8.28506 63.4032 8.28506C65.8049 8.28506 66.0001 10.0337 66.0001 11.077V15.7008H63.639V12.2229C63.639 11.2375 63.7491 10.2385 62.4584 10.2385C61.5696 10.2385 61.1832 10.9882 61.1832 11.7843V15.7008H58.8201V5.78479Z" fill="#007FAB"/>
        <path d="M24.2335 17.5653H26.815V25.2574H31.4406V27.4795H24.2335V17.5653Z" fill="#007FAB"/>
    </g>
    <defs>
        <clipPath id="clip0_222:178">
            <rect width="66" height="30.8139" fill="white"/>
        </clipPath>
    </defs>
</svg>
