<svg width="160" height="28" viewBox="0 0 160 28" fill="none" xmlns="http://www.w3.org/2000/svg">
<path d="M146.094 18.8851C146.434 22.017 148.579 22.8596 151.064 22.8596C152.698 22.8596 154.094 23.0468 155.277 21.3617C155.634 20.8511 156.808 20.2383 157.779 20.8426C158.868 21.5234 158.783 22.7745 158.119 23.6851C156.511 25.8894 154.017 26.4511 151.064 26.4511C146.468 26.4511 142.247 23.2681 142.247 17.9149C142.247 12.5277 145.242 8.29788 151.2 8.29788C156.655 8.29788 159.574 11.9489 159.574 17.4383V17.6426C159.574 18.2043 159.191 18.8851 158.638 18.8851H146.094ZM156.008 15.6766C155.464 12.9106 153.762 11.8894 151.2 11.8894C148.579 11.8894 146.638 12.9447 146.094 15.6766H156.008ZM135.83 21.1234C135.83 22.2894 136.664 22.8255 137.957 22.8255C138.153 22.8255 138.366 22.8681 138.596 22.8255C139.413 22.6809 140.204 23.3702 140.383 24.1872C140.579 25.0128 140.094 25.8128 139.285 26.0596C138.732 26.2298 138.085 26.4596 137.26 26.4511C134.477 26.4255 131.983 24.417 131.983 21.634V3.16596C132.009 2.66498 132.219 2.19118 132.572 1.83488C132.925 1.47858 133.397 1.26471 133.898 1.23405C134.399 1.2625 134.872 1.47428 135.226 1.82901C135.581 2.18374 135.793 2.6566 135.821 3.15745V21.1234H135.83ZM120.477 26.4511C119.373 26.4953 118.274 26.2849 117.264 25.8363C116.255 25.3876 115.362 24.7127 114.655 23.8638V24.1702C114.655 25.1489 113.702 25.9404 112.723 25.9404C111.753 25.9404 110.8 25.1489 110.8 24.1702V3.16596C110.826 2.6636 111.037 2.18867 111.392 1.83217C111.747 1.47568 112.221 1.2627 112.723 1.23405C113.227 1.26067 113.703 1.47275 114.06 1.82945C114.417 2.18615 114.629 2.66222 114.655 3.16596V11.1064C115.37 10.2686 116.264 9.60361 117.273 9.1614C118.281 8.71918 119.376 8.51124 120.477 8.5532C124.902 8.5532 128.766 12.1702 128.766 17.4894C128.766 22.834 124.911 26.4511 120.477 26.4511ZM120.119 12.4681C117.532 12.4681 114.655 13.7787 114.655 17.6C114.655 21.4213 117.532 22.7319 120.119 22.7319C122.996 22.7319 125.242 20.7745 125.242 17.6C125.274 16.9185 125.163 16.2378 124.917 15.6015C124.67 14.9653 124.294 14.3873 123.812 13.9044C123.33 13.4216 122.753 13.0445 122.117 12.7972C121.481 12.5499 120.801 12.4378 120.119 12.4681ZM106.306 24.3319C106.276 24.833 106.064 25.3059 105.71 25.6616C105.356 26.0174 104.884 26.2315 104.383 26.2638C103.882 26.2315 103.41 26.0174 103.056 25.6616C102.702 25.3059 102.49 24.833 102.459 24.3319V16.2128C102.459 13.7192 100.791 12.3319 98.6127 12.3319C95.8467 12.3319 94.7574 14.0936 94.7574 17.8809V24.3319C94.7273 24.833 94.5152 25.3059 94.161 25.6616C93.8069 26.0174 93.3349 26.2315 92.834 26.2638C92.333 26.2315 91.8611 26.0174 91.5069 25.6616C91.1527 25.3059 90.9406 24.833 90.9106 24.3319V16.2128C90.9106 13.7192 89.5659 12.1532 87.3872 12.1532C84.6638 12.1532 83.2084 14.0936 83.2084 17.8809V24.3319C83.1784 24.833 82.9663 25.3059 82.6121 25.6616C82.2579 26.0174 81.786 26.2315 81.285 26.2638C80.7841 26.2315 80.3121 26.0174 79.958 25.6616C79.6038 25.3059 79.3917 24.833 79.3616 24.3319V10.8596C79.3937 10.36 79.6066 9.88917 79.9606 9.53518C80.3146 9.18119 80.7854 8.96825 81.285 8.93617C81.7846 8.96825 82.2554 9.18119 82.6094 9.53518C82.9634 9.88917 83.1764 10.36 83.2084 10.8596C84.434 9.36171 85.8893 8.58724 88.3148 8.58724C90.7233 8.58724 92.3744 9.6 93.4638 11.566C94.8255 9.66809 96.7999 8.6383 99.5914 8.6383C103.098 8.6383 106.315 11.5064 106.315 15.4894V24.3404L106.306 24.3319ZM71.0127 24.5021C69.5914 25.983 68.6808 26.4596 65.5999 26.4596C61.5148 26.4596 58.8255 23.8128 58.8255 19.5489V10.8596C58.8539 10.3587 59.0657 9.88586 59.4204 9.53114C59.7751 9.17641 60.248 8.96463 60.7489 8.93617C61.2497 8.96463 61.7226 9.17641 62.0773 9.53114C62.432 9.88586 62.6438 10.3587 62.6723 10.8596V18.834C62.6723 21.6 63.9659 23.0553 66.4169 23.0553C68.4595 23.0553 70.1276 22.7149 71.0127 20.2298C70.9957 20.2298 71.0127 18.5702 71.0127 17.166V10.8511C71.0413 10.3488 71.2543 9.87483 71.6108 9.51991C71.9673 9.16498 72.4422 8.9541 72.9446 8.92766C73.4455 8.95612 73.9183 9.1679 74.273 9.52263C74.6278 9.87735 74.8396 10.3502 74.868 10.8511V24.4851C74.868 25.4638 73.9233 26.2553 72.9446 26.2553C71.9659 26.2553 71.0127 25.4638 71.0127 24.4851V24.5021ZM47.3276 26.4596C46.2217 26.5041 45.1205 26.2931 44.1094 25.8429C43.0983 25.3927 42.2047 24.7155 41.4978 23.8638V24.1702C41.4978 25.1489 40.5531 25.9404 39.5744 25.9404C38.5957 25.9404 37.651 25.1489 37.651 24.1702V3.16596C37.6774 2.6636 37.8883 2.18867 38.2432 1.83217C38.5982 1.47568 39.0722 1.2627 39.5744 1.23405C40.0766 1.2627 40.5506 1.47568 40.9056 1.83217C41.2605 2.18867 41.4714 2.6636 41.4978 3.16596V11.1064C42.213 10.2674 43.1093 9.60177 44.1191 9.15951C45.129 8.71724 46.226 8.50993 47.3276 8.5532C51.7531 8.5532 55.6169 12.1702 55.6169 17.4894C55.6169 22.834 51.7531 26.4511 47.3276 26.4511V26.4596ZM46.9701 12.4681C44.3744 12.4681 41.4978 13.7787 41.4978 17.6C41.4978 21.4213 44.3744 22.7319 46.9701 22.7319C49.8467 22.7319 52.085 20.7745 52.085 17.6C52.1164 16.9192 52.0056 16.2393 51.7599 15.6036C51.5142 14.968 51.1388 14.3904 50.6577 13.9077C50.1766 13.425 49.6003 13.0477 48.9654 12.7998C48.3305 12.552 47.651 12.439 46.9701 12.4681ZM28.8425 13.1319C29.1744 13.7106 29.1744 14.4255 28.8425 15.0043L22.502 25.966C22.3381 26.2499 22.1024 26.4859 21.8187 26.6502C21.5349 26.8145 21.2129 26.9013 20.885 26.9021H8.20418C7.87627 26.9013 7.55432 26.8145 7.27054 26.6502C6.98676 26.4859 6.75111 26.2499 6.58716 25.966L0.255241 15.0043C0.0909084 14.7196 0.00439453 14.3968 0.00439453 14.0681C0.00439453 13.7394 0.0909084 13.4166 0.255241 13.1319L6.58716 2.17022C6.75111 1.88624 6.98676 1.6503 7.27054 1.48601C7.55432 1.32172 7.87627 1.23483 8.20418 1.23405H20.885C21.5489 1.23405 22.1616 1.59149 22.502 2.17022L28.8425 13.1319ZM20.9446 15.6766C21.8212 15.6766 22.5361 14.9532 22.5361 14.0681C22.5361 13.183 21.8212 12.4681 20.9446 12.4681H8.15311C7.72764 12.4681 7.31959 12.6371 7.01873 12.938C6.71788 13.2388 6.54886 13.6469 6.54886 14.0723C6.54886 14.4978 6.71788 14.9059 7.01873 15.2067C7.31959 15.5076 7.72764 15.6766 8.15311 15.6766H20.9361H20.9446ZM16.485 21.1234C17.3531 21.1234 18.0595 20.4085 18.0595 19.5234C18.0595 18.6383 17.3531 17.9149 16.485 17.9149H12.5957C11.7276 17.9149 11.0212 18.6383 11.0212 19.5234C11.0212 20.4085 11.7276 21.1234 12.5957 21.1234H16.4765H16.485ZM11.0212 7.02128C10.1446 7.02128 9.42971 7.73618 9.42971 8.62128C9.42971 9.50639 10.1446 10.2298 11.0212 10.2298H18.068C18.9446 10.2298 19.6595 9.50639 19.6595 8.62128C19.6595 7.73618 18.9446 7.02128 18.068 7.02128H11.0212Z" fill="#FFC629"/>
</svg>
