<svg width="160" height="24" viewBox="0 0 160 24" fill="none" xmlns="http://www.w3.org/2000/svg">
<g clip-path="url(#clip0_112_4012)">
<path d="M91.345 5.18242L94.807 13.0652H87.8829L91.345 5.18242ZM91.345 0.335552L81.4915 22.9188H83.6219L87.084 15.036H95.7125L99.1745 22.9188H101.252L91.345 0.335552Z" fill="#003595"/>
<path d="M129.268 0.814913H127.35V22.9188H129.268V0.814913Z" fill="#003595"/>
<path d="M67.2702 10.5619L57.2036 0.388815V22.8655H59.1211V5.0759L67.2702 13.2783L75.5259 5.02264V22.8655H77.4433V0.388815L67.2702 10.5619Z" fill="#003595"/>
<path d="M137.097 3.47803V22.8655H139.015V5.76831L153.768 23.3449V0.814914H151.851V18.0186L137.097 0.442078V3.47803Z" fill="#003595"/>
<mask id="mask0_112_4012" style="mask-type:luminance" maskUnits="userSpaceOnUse" x="0" y="0" width="160" height="24">
<path d="M160 0.335552H0V23.6644H160V0.335552Z" fill="white"/>
</mask>
<g mask="url(#mask0_112_4012)">
<path d="M107.377 2.73236H114.727C116.858 2.73236 118.615 4.43675 118.669 6.56724V6.94008C118.615 9.07057 116.858 10.775 114.727 10.775H107.377V2.73236ZM119.308 22.9188H121.491L116.218 12.5859C118.615 11.9467 120.373 9.92277 120.586 7.36618V7.25965C120.586 7.15313 120.586 7.0466 120.586 6.88682V6.67377C120.586 6.56724 120.586 6.46072 120.586 6.30093C120.373 3.21172 117.87 0.814913 114.727 0.814913H105.459V22.9188H107.377V12.7457H114.141L119.308 22.9188Z" fill="#003595"/>
</g>
<mask id="mask1_112_4012" style="mask-type:luminance" maskUnits="userSpaceOnUse" x="0" y="0" width="160" height="24">
<path d="M160 0.335552H0V23.6644H160V0.335552Z" fill="white"/>
</mask>
<g mask="url(#mask1_112_4012)">
<path d="M13.6884 16.9001C13.6884 19.1372 11.8242 20.9481 9.58722 20.9481H1.91744V12.7457L9.85353 12.7989C11.2383 12.7989 12.4634 13.4913 13.1558 14.5566C13.4754 15.1957 13.6884 15.7816 13.6884 16.5273V16.9001ZM9.26764 2.73236C11.3981 2.73236 13.1558 4.43675 13.2091 6.62051V6.94008C13.1558 9.07057 11.4514 10.8282 9.26764 10.8282H1.91744V2.73236H9.26764ZM15.5526 16.3675C15.4993 15.3023 15.233 14.3435 14.7537 13.4913C14.2743 12.6924 13.5819 12.0533 12.783 11.5739C14.1145 10.6152 14.9667 9.07057 15.1265 7.36618V7.25965C15.1265 7.15313 15.1265 7.0466 15.1265 6.88682V6.67377C15.1265 6.56724 15.1265 6.46072 15.1265 6.30093C14.9134 3.26498 12.4101 0.814913 9.26764 0.814913H0V22.9188H9.64048C12.8895 22.9188 15.5526 20.3089 15.6059 17.0599L15.5526 16.3675Z" fill="#003595"/>
</g>
<mask id="mask2_112_4012" style="mask-type:luminance" maskUnits="userSpaceOnUse" x="0" y="0" width="160" height="24">
<path d="M160 0.335552H0V23.6644H160V0.335552Z" fill="white"/>
</mask>
<g mask="url(#mask2_112_4012)">
<path d="M41.012 21.3209C36.2716 21.3209 32.3302 17.8589 31.6378 13.2783C31.5846 12.7989 31.5313 12.3728 31.5313 11.8935C31.5313 11.4674 31.5313 11.0945 31.5846 10.6684C32.1705 5.98136 36.1651 2.35952 41.012 2.35952C45.8589 2.35952 49.8535 5.98136 50.3862 10.6684C50.4394 11.0945 50.4394 11.4674 50.4394 11.8935C50.4394 12.3728 50.3862 12.8522 50.3329 13.3316C49.6938 17.8589 45.7523 21.3209 41.012 21.3209ZM29.6671 13.2783C30.4128 18.9241 35.2064 23.2383 41.012 23.2383C46.8176 23.2383 51.6112 18.8708 52.3569 13.2783C52.4101 12.7989 52.4634 12.3728 52.4634 11.8935C52.4634 11.4674 52.4634 11.0945 52.4101 10.6684C51.771 4.86285 46.9241 0.442078 41.012 0.442078C35.0999 0.442078 30.253 4.91611 29.6671 10.6684C29.6139 11.0945 29.6139 11.4674 29.6139 11.8935C29.5606 12.3728 29.6139 12.7989 29.6671 13.2783Z" fill="#003595"/>
</g>
<mask id="mask3_112_4012" style="mask-type:luminance" maskUnits="userSpaceOnUse" x="0" y="0" width="160" height="24">
<path d="M160 0.335552H0V23.6644H160V0.335552Z" fill="white"/>
</mask>
<g mask="url(#mask3_112_4012)">
<path d="M158.402 1.8269C158.669 1.8269 158.988 1.88016 158.988 1.50732C158.988 1.24101 158.775 1.18775 158.562 1.18775H158.083V1.8269H158.402ZM159.201 2.78562H158.935L158.455 1.98668H158.083V2.78562H157.87V1.08123H158.615C159.095 1.08123 159.201 1.24101 159.201 1.56059C159.201 1.88016 158.988 2.03995 158.669 2.03995L159.201 2.78562ZM159.734 1.93342C159.734 1.18775 159.201 0.601864 158.455 0.601864C157.71 0.601864 157.124 1.18775 157.124 1.93342C157.124 2.67909 157.657 3.26498 158.455 3.26498C159.201 3.26498 159.734 2.67909 159.734 1.93342ZM156.911 1.93342C156.911 1.08123 157.603 0.388815 158.455 0.388815C159.308 0.388815 160 1.08123 160 1.93342C160 2.78562 159.308 3.47803 158.455 3.47803C157.603 3.47803 156.911 2.78562 156.911 1.93342Z" fill="#003595"/>
</g>
<path d="M22.3168 0.655126L21.944 0.708388L21.6777 0.76165L21.2516 0.921437L20.8255 1.13449L20.4526 1.4008L20.3461 1.66711L20.1863 1.88016L20.1331 1.98668V2.03995V2.14647L20.2928 2.51931L20.5592 2.67909L20.8255 2.99867L21.0385 3.21172L21.3581 3.3715L21.6244 3.42477H22.0505L22.3168 3.47803L22.6364 3.53129H23.0092L23.3821 3.58455L23.8614 3.53129L24.2343 3.42477L24.7136 3.26498L24.8734 3.05193L25.0865 2.83888L25.2995 2.51931L25.2462 2.253L25.193 1.8269L24.7136 1.13449L24.2875 0.814913L24.1277 0.708388L23.9679 0.655126H23.8082L23.3288 0.708388L22.8494 0.601863L22.6364 0.548601L22.3168 0.655126Z" fill="#FF4438"/>
<path d="M20.6659 7.95206L22.9561 8.00533L23.2757 7.95206H23.7551L24.1812 8.00533L24.5007 8.11185L24.7671 8.27164L24.8736 8.37816L24.9268 8.48469V8.64447V8.80426L24.8203 8.91079L24.6073 9.07057L24.341 9.12384H23.9149L22.6366 9.01731L20.7191 8.80426L20.6126 8.751L20.5593 8.69774V8.43143L20.6659 7.95206Z" fill="#EB0045"/>
<path d="M21.3048 10.0826L21.5179 10.2423L21.6244 10.2956L21.7842 10.3489L21.8907 10.2956L21.9972 10.2423L22.1038 10.1891H22.2103L22.4233 10.2423L22.6364 10.2956L22.7962 10.2423L23.0092 10.1891L23.2223 10.2956L23.3288 10.3489H23.4353L24.0745 10.2423L24.6071 10.3489H24.6604V10.4554L24.6071 10.5087V10.5619L24.7669 10.6684L24.9267 10.7217H24.9799V10.8282L25.0332 10.8815L24.9799 11.0413L24.9267 11.0945L24.8734 11.1478L24.5538 11.2011L23.6484 11.2543L22.3168 11.0945L21.1983 10.8815L21.0385 10.775L20.8787 10.6684L20.8255 10.4554L20.7722 10.2956L21.3048 10.0826Z" fill="#D50057"/>
<path d="M20.9854 11.3609L21.3583 11.4674L21.518 11.5206H21.6778L23.2757 11.4674L23.8616 11.5206L24.3942 11.6272L24.6073 11.6804L24.7138 11.7337L24.8203 11.8402L24.9268 12V12.213V12.3728L24.8203 12.4794V12.5859H23.2757H22.7963L22.2637 12.5326L21.7844 12.4261L21.305 12.3728L20.9854 12.3196L20.8256 12.2663L20.7724 12.213L20.6126 11.9467L20.5593 11.6272L20.9854 11.3609Z" fill="#D50057"/>
<path d="M21.0919 13.1718L21.7844 13.2783H22.0507L22.2105 13.225H22.4768L22.9029 13.2783H23.542L24.1279 13.225H24.341L24.554 13.2783L24.8736 13.5446L24.9268 13.7044L25.0334 13.8642V14.024L24.9801 14.1838L24.8203 14.7164L24.7138 14.9294L24.554 15.0892L24.4475 15.1425H24.341L24.0746 15.0892L23.8083 15.036H23.5953H23.4355L23.2757 15.1425L23.1159 15.1957H22.9561L22.4768 15.0892L22.1572 15.036L21.8376 15.0892H21.7844H21.6778L21.6246 15.036L21.518 14.9827H21.305H21.2517L21.1985 14.9294L20.9854 14.5566L20.7191 14.2903L20.6126 14.1305L20.5593 13.9707L20.6126 13.7577L20.7724 13.5979L21.0919 13.1718Z" fill="#C017A2"/>
<path d="M21.8908 16.7403L22.1571 16.6871L22.4235 16.7403L23.9148 16.9001L24.2876 16.9534L24.7137 17.0599L24.8735 17.1664L25.0333 17.3262L25.1931 17.5393L25.2996 17.8589L25.3529 18.3915V18.6578L25.2464 18.9241L25.0866 19.0839L24.9268 19.2437L24.4474 19.4567L23.1691 19.6165L22.7963 19.5632L22.3702 19.4567L21.9974 19.3502L21.6245 19.2969L21.0919 19.2437L20.7191 19.0306L20.4528 18.7643L20.293 18.4447V18.0719L20.3462 17.8056L20.506 17.5393L20.7723 17.3262L21.2517 17.0599L21.5713 16.9534L21.6778 16.9001L21.7311 16.8469L21.7843 16.7936L21.8908 16.7403Z" fill="#60269E"/>
<path d="M22.5833 21.0013L22.0506 21.1611L21.5713 21.3209L21.0919 21.5872L20.8256 21.8003L20.7191 22.0666L20.6125 22.3862L20.6658 22.7057L20.7723 23.0253L20.8256 23.1851L20.9854 23.2916L21.3582 23.5047L21.8376 23.6112L22.4235 23.6644H23.0626L23.6485 23.5579L24.1279 23.3981L24.554 23.1318L24.7137 22.972L24.8203 22.759L24.8735 22.4927V22.1198L24.767 21.534L24.6605 21.4807L24.554 21.4274L24.2876 21.3742L24.1811 21.2676L24.0213 21.1079L23.4887 20.9481L23.0094 20.8948L22.5833 21.0013Z" fill="#051C2C"/>
</g>
<defs>
<clipPath id="clip0_112_4012">
<rect width="160" height="23.3289" fill="white" transform="translate(0 0.335552)"/>
</clipPath>
</defs>
</svg>
