<svg width="36" height="36" viewBox="0 0 36 36" fill="none" xmlns="http://www.w3.org/2000/svg">
    <path d="M28.6667 18C28.6667 23.8949 23.8949 28.6667 18 28.6667V18H28.6667ZM18 7.33333V18H7.33337C7.33337 12.1051 12.1051 7.33333 18 7.33333Z" fill="#0166B1"/>
    <path d="M18 7.33334C23.8949 7.33334 28.6667 12.1051 28.6667 18H18V7.33334ZM7.33337 18H18V28.6667C12.1051 28.6667 7.33337 23.8949 7.33337 18Z" fill="white"/>
    <path d="M18 7.33333V7.91817C23.5586 7.91817 28.0818 12.4403 28.0818 18H28.6667C28.6667 12.1093 23.8907 7.33333 18 7.33333ZM18 28.0818C12.4414 28.0818 7.91817 23.5597 7.91817 18H7.33333C7.33333 23.8907 12.1093 28.6667 18 28.6667V28.0818ZM18 0C8.05915 0 0 8.05915 0 18C0 27.9409 8.05915 36 18 36C27.9409 36 36 27.9409 36 18C36 8.05915 27.9409 0 18 0ZM34.8295 18C34.8295 27.2942 27.2953 34.8295 18 34.8295C8.70473 34.8295 1.17051 27.2942 1.17051 18C1.17051 8.70579 8.70579 1.17051 18 1.17051C27.2942 1.17051 34.8295 8.70579 34.8295 18Z" fill="#6F6F6F"/>
    <path d="M10.3078 9.31644C10.883 8.71476 11.2087 8.01962 10.6335 7.35598C10.3205 6.99581 9.795 6.91705 9.35937 7.09451L9.31602 7.11132L9.32977 7.07351C9.39427 6.90235 9.4355 6.35632 8.9671 5.97935C8.73871 5.79559 8.45217 5.72733 8.16246 5.75674C7.62215 5.81134 7.20661 6.17781 6.07525 7.43053C5.73373 7.80856 5.23677 8.40499 4.9386 8.79141L8.04615 11.719C9.076 10.587 9.49577 10.1659 10.3078 9.31644ZM6.25288 8.6003C6.87883 7.84006 7.54391 7.15017 7.84525 6.87715C7.94041 6.79105 8.04403 6.70494 8.16986 6.67134C8.37393 6.61569 8.58434 6.75955 8.63192 6.96746C8.6795 7.17642 8.54733 7.37488 8.40036 7.53869C8.06941 7.90936 6.85557 9.17049 6.85557 9.17049L6.25288 8.6003ZM7.46989 9.74697C7.46989 9.74697 8.65201 8.5058 9.03794 8.10887C9.19126 7.95137 9.28959 7.85581 9.39532 7.80436C9.53172 7.7382 9.68081 7.72455 9.81403 7.81276C9.94515 7.89991 10.0054 8.05007 9.97264 8.19918C9.93352 8.37664 9.7876 8.5457 9.66706 8.67486C9.50423 8.84812 8.10219 10.3382 8.10007 10.3403L7.46989 9.74697ZM18.3553 5.82499L19.3503 3.61146L19.4137 3.4151L19.3957 3.61986L19.5004 6.57788C19.8493 6.61044 20.2099 6.65874 20.5652 6.71754L20.4034 2.33669C19.9064 2.28208 19.4116 2.24323 18.9168 2.22223L17.9366 4.63842L17.9017 4.81798L17.8668 4.63842L16.8877 2.22223C16.3929 2.24323 15.898 2.28208 15.4011 2.33669L15.2393 6.71754C15.5946 6.65874 15.9551 6.61149 16.304 6.57788L16.4087 3.61986L16.3907 3.4151L16.4542 3.61146L17.4492 5.82499H18.3553H18.3553ZM26.6185 10.4043C26.8627 10.6647 27.2148 11.0847 27.4126 11.3399L31.0541 9.04448C30.8722 8.80822 30.5825 8.44909 30.3657 8.19603L28.0597 9.71022L27.9021 9.84463L28.0195 9.67452L29.0377 7.6563L28.3176 6.94121L26.2844 7.95241L26.1131 8.06897L26.2495 7.91251L27.7752 5.62338C27.5067 5.39657 27.2487 5.18865 26.9198 4.93664L24.6085 8.5499C24.9013 8.77356 25.2873 9.10223 25.5336 9.3259L27.7097 8.20443L27.8492 8.10257L27.7467 8.24118L26.6185 10.4043Z" fill="#6F6F6F"/>
</svg>
