<svg width="160" height="40" viewBox="0 0 160 40" fill="none" xmlns="http://www.w3.org/2000/svg">
    <path d="M6.23259 30.6714C6.06359 31.0202 5.70439 31.2448 5.31759 31.2448C5.16299 31.2448 5.01399 31.2106 4.87459 31.1424C1.685 29.5964 0 26.872 0 23.2628V19.1864C0 18.6256 0.455799 18.1698 1.0164 18.1698C1.5768 18.1698 2.033 18.6256 2.033 19.1864V23.2626C2.033 26.0778 3.2872 28.1134 5.76179 29.3138C6.26559 29.5586 6.47719 30.1676 6.23259 30.6714ZM3.2248 21.2236C3.2248 21.8 3.692 22.2668 4.2678 22.2668C4.84399 22.2668 5.31119 21.8 5.31119 21.2236V12.9052C5.31119 12.3286 4.84419 11.862 4.2678 11.862C3.692 11.862 3.2248 12.3286 3.2248 12.9052V21.2236ZM6.45219 20.9818C6.45219 21.5578 6.91919 22.0248 7.49499 22.0248C8.07119 22.0248 8.53819 21.5578 8.53819 20.9818V9.79761C8.53819 9.22141 8.07119 8.75521 7.49499 8.75521C6.91919 8.75521 6.45219 9.22141 6.45219 9.79761V20.9818ZM9.67939 21.7514C9.67939 22.3276 10.1464 22.7942 10.7222 22.7942C11.2986 22.7942 11.7656 22.3276 11.7656 21.7514V11.7114C11.7656 11.1352 11.2986 10.6682 10.7222 10.6682C10.1464 10.6682 9.67939 11.1352 9.67939 11.7114V21.7514ZM12.9066 23.0802C12.9066 23.6392 13.3596 24.092 13.9182 24.092C14.477 24.092 14.93 23.6392 14.93 23.0802V16.2948C14.93 15.7358 14.477 15.2828 13.9182 15.2828C13.3596 15.2828 12.9066 15.7358 12.9066 16.2948V23.0802Z" fill="#BE2BBB"/>
    <path d="M25.7316 21.1638L25.7334 21.1012C27.0462 20.65 27.86 19.8604 27.86 18.451V18.2346C27.86 16.6164 26.5442 15.2852 23.861 15.2852H20.1494V27.9148H24.1304C26.7382 27.9148 28.5284 26.6038 28.5284 24.505V24.3792C28.5286 22.7418 27.5644 21.5426 25.7316 21.1638ZM21.7734 16.7106H23.6292C25.3982 16.7106 26.3002 17.3804 26.3002 18.5802V18.707C26.3002 20.1554 25.0482 20.6194 23.4032 20.6194H21.7734V16.7106ZM26.8648 24.3602C26.8648 25.9228 25.6338 26.5072 23.8376 26.5072H21.7734V21.9546H23.8668C25.635 21.9546 26.8648 22.5422 26.8648 24.1616V24.3602ZM33.836 18.3524H34.305V19.8318H33.9262C32.4102 19.8318 31.4178 20.5894 31.4178 22.5928V27.9146H29.903V18.3524H31.4178V20.0666H31.4902C31.7608 19.201 32.4648 18.3524 33.836 18.3524ZM35.6534 18.3524H37.1694V27.915H35.6534V18.3524ZM37.3356 16.2072C37.3356 16.9458 36.9994 17.2918 36.411 17.2918C35.8224 17.2918 35.4858 16.9458 35.4858 16.2072C35.4858 15.4688 35.8224 15.1016 36.411 15.1016C36.9996 15.1016 37.3356 15.4686 37.3356 16.2072ZM45.5762 25.2806C45.5762 27.1212 44.2046 28.095 42.2022 28.095C40.1814 28.095 38.8462 27.229 38.738 25.2806H40.2538C40.3078 26.4536 41.1736 26.8326 42.2022 26.8326C43.2304 26.8326 44.0604 26.3814 44.0604 25.3884C44.0604 23.0614 38.8462 24.6676 38.8462 20.897C38.8462 19.3262 40.001 18.1718 42.1118 18.1718C44.0428 18.1718 45.3238 19.1282 45.4682 20.9866H43.9524C43.8622 19.8678 43.0864 19.4348 42.1118 19.4348C41.0112 19.4348 40.3258 19.94 40.3258 20.8972C40.3256 23.1518 45.5762 21.7624 45.5762 25.2806ZM49.0726 18.3524H51.1296V19.6876H49.0726V24.9736C49.0726 26.363 49.434 26.6516 50.3538 26.6516C50.6062 26.6516 50.895 26.6154 51.1296 26.5974V27.897C50.8412 27.951 50.462 27.9868 50.1916 27.9868C48.3152 27.9868 47.5576 27.247 47.5576 25.2076V19.6876H45.9516V18.3524H47.5576V15.2854H49.0726V18.3524ZM55.6066 18.1718C53.2426 18.1718 51.9798 19.796 51.9798 22.43V23.8374C51.9798 26.4714 53.2424 28.0952 55.6066 28.0952C57.9696 28.0952 59.2324 26.4714 59.2324 23.8374V22.43C59.2324 19.796 57.9698 18.1718 55.6066 18.1718ZM57.6994 23.747C57.6994 26.0204 56.9054 26.76 55.6066 26.76C54.3072 26.76 53.514 26.0204 53.514 23.747V22.52C53.514 20.2466 54.3074 19.507 55.6066 19.507C56.9054 19.507 57.6994 20.2466 57.6994 22.52V23.747ZM60.8344 15.2854H62.3504V27.9144H60.8344V15.2854ZM76.9687 15.2854H79.5409V27.915H77.9351V17.0358H77.8451L74.6151 25.824H72.6483L69.4558 17.0358H69.3656V27.915H67.778V15.2854H70.4758L73.6593 24.058H73.75L76.9687 15.2854ZM86.9111 18.3524H88.4447L84.2049 30.9818H82.6353L83.6999 27.9864L80.5959 18.352H82.2021L84.4933 25.804H84.5655L86.9111 18.3524ZM92.5163 18.1718C90.1533 18.1718 88.8901 19.8676 88.8901 22.43V23.8374C88.8901 26.4714 90.1531 28.0952 92.5163 28.0952C94.4111 28.0952 95.5291 27.0488 95.9081 25.2628H94.3567C94.0861 26.3632 93.4725 26.7602 92.5163 26.7602C91.2179 26.7602 90.4237 26.0206 90.4237 23.7472V23.621H95.9621V22.43C95.9623 19.8678 94.8805 18.1718 92.5163 18.1718ZM92.5163 19.5072C93.7443 19.5072 94.4091 20.23 94.4275 22.43H90.4263C90.4471 20.23 91.2357 19.5072 92.5163 19.5072ZM101.582 18.3524H102.05V19.8318H101.672C100.156 19.8318 99.1639 20.5894 99.1639 22.5928V27.9146H97.6483V18.3524H99.1639V20.0666H99.2361C99.5063 19.201 100.211 18.3524 101.582 18.3524ZM109.7 25.2806C109.7 27.1212 108.33 28.095 106.326 28.095C104.305 28.095 102.971 27.229 102.862 25.2806H104.378C104.432 26.4536 105.299 26.8326 106.326 26.8326C107.355 26.8326 108.185 26.3814 108.185 25.3884C108.185 23.0614 102.971 24.6676 102.971 20.897C102.971 19.3262 104.126 18.1718 106.236 18.1718C108.166 18.1718 109.449 19.1282 109.592 20.9866H108.076C107.987 19.8678 107.211 19.4348 106.236 19.4348C105.136 19.4348 104.45 19.94 104.45 20.8972C104.45 23.1518 109.7 21.7624 109.7 25.2806ZM121.746 24.5766C121.746 26.8322 120.194 28.0952 117.812 28.0952C115.575 28.0952 113.735 27.0128 113.501 24.5952H115.178C115.377 26.0206 116.387 26.6878 117.794 26.6878C119.4 26.6878 120.122 25.7316 120.122 24.6676C120.122 21.0764 113.699 23.1518 113.699 18.4428C113.699 16.4222 115.305 15.1052 117.542 15.1052C119.706 15.1052 121.511 16.1694 121.62 18.6594H119.941C119.797 17.1258 118.823 16.5124 117.524 16.5124C115.99 16.5124 115.323 17.4148 115.323 18.3704C115.323 21.546 121.746 19.6694 121.746 24.5766ZM128.593 19.5072H128.519C128.11 18.6632 127.332 18.172 126.338 18.172C123.974 18.172 122.892 19.7962 122.892 22.4304V23.8374C122.892 26.4718 123.974 28.0952 126.338 28.0952C127.332 28.0952 128.11 27.6042 128.519 26.7604H128.593V27.915V30.9822H130.109V18.3524H128.593V19.5072ZM126.518 26.7602C125.22 26.7602 124.425 26.0206 124.425 23.7472V22.5202C124.425 20.2468 125.22 19.5072 126.518 19.5072C127.817 19.5072 128.612 20.2468 128.612 22.5202V23.7472C128.612 26.0206 127.817 26.7602 126.518 26.7602ZM137.069 18.3524H138.585V27.915H137.069V26.6876H136.998C136.636 27.4634 135.861 28.095 134.652 28.095C132.866 28.095 131.765 27.0842 131.765 24.829V18.3524H133.299V24.6132C133.299 26.1468 133.931 26.8144 135.067 26.8144C136.167 26.8144 137.069 26.0746 137.069 24.2164V18.3524ZM140.531 18.3524H142.046V27.915H140.531V18.3524ZM147.85 18.1718C146.842 18.1718 146.073 18.663 145.667 19.507H145.595V18.3524V15.2854H144.08V27.915H145.595V26.7604H145.667C146.073 27.6042 146.842 28.0952 147.85 28.0952C150.213 28.0952 151.296 26.4718 151.296 23.8374V22.4304C151.296 19.796 150.214 18.1718 147.85 18.1718ZM149.763 23.747C149.763 26.0204 148.969 26.76 147.67 26.76C146.371 26.76 145.577 26.0204 145.577 23.747V22.52C145.577 20.2466 146.371 19.507 147.67 19.507C148.969 19.507 149.763 20.2466 149.763 22.52V23.747ZM156.554 18.1718C155.545 18.1718 154.776 18.663 154.371 19.507H154.299V18.3524V15.2854H152.784V27.915H154.299V26.7604H154.371C154.776 27.6042 155.545 28.0952 156.554 28.0952C158.917 28.0952 160 26.4718 160 23.8374V22.4304C160 19.796 158.917 18.1718 156.554 18.1718ZM158.467 23.747C158.467 26.0204 157.673 26.76 156.373 26.76C155.075 26.76 154.28 26.0204 154.28 23.747V22.52C154.28 20.2466 155.075 19.507 156.373 19.507C157.673 19.507 158.467 20.2466 158.467 22.52V23.747ZM142.214 16.2072C142.214 16.9458 141.877 17.2918 141.289 17.2918C140.701 17.2918 140.364 16.9458 140.364 16.2072C140.364 15.4688 140.701 15.1016 141.289 15.1016C141.877 15.1016 142.214 15.4686 142.214 16.2072Z" fill="#595454"/>
</svg>
