<svg width="66" height="15" viewBox="0 0 66 15" fill="none" xmlns="http://www.w3.org/2000/svg">
<path d="M0.342773 13.8231H13.8223V0.342932H0.342773V13.8231Z" fill="#00A870"/>
<path d="M10.8639 3.88846C10.0287 4.37846 9.77337 4.41683 8.87146 4.95924C9.39585 4.38846 9.5781 4.14647 9.90522 3.66814C9.07141 3.71154 7.85907 3.81202 6.99121 4.00328C7.74658 3.6034 9.24197 3.1521 10.0297 3.04762C9.84614 2.79494 8.36677 1.99385 7.99893 1.84064C9.16954 1.9321 10.6012 2.36669 11.2931 2.79361C11.5725 2.70782 11.8519 2.70281 12.3576 2.65742C12.2287 2.88039 12.2274 3.0099 11.7277 3.33869C11.8656 3.7082 11.5371 5.73933 11.2654 6.28174C11.2537 5.4289 11.1776 4.35376 10.8639 3.88846Z" fill="white"/>
<path d="M4.76992 11.1775C4.29059 10.9989 3.94479 10.7929 3.5666 10.4388C3.67942 10.1267 3.80826 9.87834 4.02256 9.56959C3.63102 9.625 3.34864 9.66706 3.01151 9.73282C2.73913 9.25249 2.6163 8.79453 2.47711 8.15598C2.401 8.83325 2.37463 9.31791 2.47143 9.85831C2.16434 9.94143 1.94604 10.0172 1.69336 10.131C2.04584 10.349 2.33224 10.5172 2.73045 10.7001C2.94241 11.1544 3.16204 11.4659 3.51686 11.8157C3.43408 11.5166 3.41372 11.2779 3.44476 10.9655C3.88804 11.095 4.26656 11.1611 4.76992 11.1775Z" fill="white"/>
<path d="M6.01433 4.41983C5.86412 4.61143 5.69021 4.97159 5.64582 5.14049C6.87618 5.30905 7.86721 5.94092 7.86788 5.94092C6.78439 5.74966 6.22095 5.77336 5.81906 5.80874C5.41684 5.84846 5.33639 5.89618 5.33639 5.89618C5.04533 6.52905 4.87309 7.62522 4.87309 7.62522C4.67616 7.15357 4.3941 6.20628 4.3941 6.20628C3.84835 6.49735 2.59997 7.6723 2.59997 7.6723H2.59863C3.28624 6.29708 3.9822 5.66586 3.9822 5.66586H3.9832C3.74287 5.42553 3.11401 5.30704 2.65638 5.28601C2.89437 5.18821 3.50722 5.07239 3.9782 5.0517C4.44784 5.03635 4.7329 5.06671 4.73457 5.06671C5.15515 4.73326 5.79135 4.45421 6.01433 4.41983Z" fill="white"/>
<path d="M7.31989 10.3249C7.10058 10.6187 6.91633 10.8507 6.67366 11.1217C6.25876 11.2352 5.92797 11.2776 5.52441 11.2786C5.77309 11.4051 6.01409 11.4845 6.27144 11.5366C6.01409 11.7719 5.79245 11.9388 5.54278 12.0984C5.96335 11.9996 6.52045 11.8187 6.93269 11.5763C7.14431 11.584 7.34692 11.57 7.49412 11.543C7.45907 11.4158 7.43537 11.323 7.40066 11.1598C7.79019 10.858 8.07325 10.5863 8.39336 10.2609C8.05089 10.4999 7.75381 10.6801 7.35927 10.8663C7.34058 10.6841 7.32823 10.5299 7.31989 10.3249Z" fill="white"/>
<path d="M18.8873 9.64231C19.8036 9.64531 20.1454 9.83491 20.1454 10.3349C20.1454 10.4691 20.103 10.5843 20.0229 10.6841C19.8473 10.8927 19.4988 11.0015 19.0646 10.9798H19.0422L18.7909 11.643H19.0459C19.5509 11.6277 19.9892 11.7856 20.2131 12.0606C20.3179 12.1878 20.3697 12.3327 20.3697 12.4879C20.3697 13.0139 19.9124 13.2806 19.0092 13.2806C18.8579 13.2806 18.6119 13.2806 18.4557 13.2713C18.4223 12.5803 18.4203 11.6397 18.4203 11.3613C18.4203 11.0332 18.4347 10.2985 18.4577 9.67201C18.5575 9.65432 18.7308 9.64031 18.8873 9.64231ZM17.1937 9.16265C17.2307 9.65966 17.2567 10.905 17.2567 11.3613C17.2567 11.7779 17.2511 13.1802 17.1866 13.7857L17.1816 13.8354L19.3757 13.8367C20.4455 13.8367 21.5894 13.4976 21.5894 12.542C21.5894 11.9428 21.1568 11.5005 20.346 11.2565C20.9395 11.0983 21.3457 10.6847 21.3457 10.2101C21.3457 9.43035 20.4491 9.13627 19.6116 9.11758L17.1903 9.11459L17.1937 9.16265Z" fill="black"/>
<path d="M26.6459 9.11463H25.5824L25.6281 10.3016C25.6472 10.8944 25.6645 11.4979 25.7062 12.0847C25.6331 11.9035 25.5737 11.8063 25.2556 11.336C25.2443 11.3203 24.1398 9.61164 23.7539 9.12798L23.7439 9.11463H22.5022L22.5052 9.16035C22.5416 9.65736 22.5669 10.9021 22.5669 11.3614C22.5669 11.777 22.5626 13.1802 22.4988 13.7857L22.4932 13.8341H23.595L23.5927 13.789C23.5269 12.6328 23.5269 11.4715 23.5269 10.3486V10.346C23.5656 10.4795 23.6177 10.604 23.7906 10.8604C23.8096 10.8887 25.7019 13.6529 25.798 13.8171L25.8087 13.8341H26.6939L26.6893 13.7857C26.6245 13.1792 26.6192 11.777 26.6192 11.3614C26.6192 10.9021 26.6459 9.6567 26.6816 9.16035L26.6853 9.11463H26.6459Z" fill="black"/>
<path d="M29.5375 9.68206C30.1507 9.67105 30.5847 9.79822 30.7916 10.0542C30.8857 10.1711 30.9335 10.3149 30.9335 10.4832C30.9335 11.1664 30.1691 11.3106 29.5272 11.3106L29.2662 11.3023C29.2662 11.3023 29.2031 11.2923 29.163 11.2873C29.1584 11.1294 29.1574 10.9261 29.1574 10.6901C29.1574 10.389 29.1614 10.0435 29.172 9.71376C29.2538 9.69974 29.396 9.68573 29.5375 9.68206ZM27.928 9.16C27.9637 9.65969 27.9894 10.9021 27.9894 11.3614C27.9894 11.7769 27.9864 13.1792 27.9207 13.7854L27.917 13.8328H29.2301L29.2235 13.7854C29.1787 13.3524 29.163 12.5233 29.1574 11.8844C29.2124 11.8871 29.397 11.8981 29.397 11.8981L29.5826 11.9054C31.3137 11.9054 32.1548 11.4425 32.1548 10.4832C32.1548 9.39065 30.9752 9.13664 29.9875 9.11461L27.9257 9.11294L27.928 9.16Z" fill="black"/>
<path d="M36.2733 9.68206C36.8864 9.67105 37.3204 9.79822 37.528 10.0542C37.6211 10.1711 37.6692 10.3149 37.6692 10.4832C37.6692 11.1664 36.9058 11.3106 36.2622 11.3106L36.0019 11.3023C36.0019 11.3023 35.9375 11.2923 35.8997 11.2873C35.8957 11.1294 35.8917 10.9214 35.8917 10.6878C35.8917 10.3864 35.8964 10.0435 35.9078 9.71376C35.9895 9.69974 36.1321 9.68573 36.2733 9.68206ZM34.6634 9.16C34.7001 9.65969 34.7268 10.9021 34.7268 11.3614C34.7268 11.7769 34.7211 13.1792 34.6567 13.7854L34.6514 13.8328H35.9652L35.9602 13.7854C35.9154 13.3524 35.8987 12.5233 35.8924 11.8844C35.9475 11.8871 36.1334 11.8981 36.1334 11.8981L36.3193 11.9054C38.049 11.9054 38.8912 11.4425 38.8912 10.4832C38.8912 9.39065 37.7112 9.13664 36.7222 9.11461L34.6617 9.11294L34.6634 9.16Z" fill="black"/>
<path d="M40.9694 10.5065C41.0752 10.7285 41.3435 11.3613 41.648 12.1067C41.6019 12.107 41.5478 12.109 41.5478 12.109L40.9694 12.118C40.9694 12.118 40.3715 12.107 40.2781 12.1053C40.5234 11.5045 40.7621 10.9655 40.9694 10.5065ZM40.6499 9.11758H40.6279L40.6196 9.14262C40.3742 9.81421 38.8034 13.2469 38.5577 13.7723L38.5273 13.8367H39.6549L39.6612 13.809C39.761 13.4876 39.8862 13.1221 40.0344 12.7262C40.0751 12.7252 40.965 12.7125 40.965 12.7125L41.7321 12.7225C41.7321 12.7225 41.8673 12.7252 41.9 12.7252C42.1043 13.2353 42.2541 13.6208 42.3202 13.8104L42.3292 13.8367H43.633L41.5308 9.11758H40.6499Z" fill="black"/>
<path d="M44.154 9.1603C44.1887 9.65732 44.2167 10.902 44.2167 11.3613C44.2167 11.7769 44.2124 13.1792 44.1443 13.7853L44.1406 13.8341H45.4544L45.4494 13.7857C45.384 13.1778 45.379 11.7769 45.379 11.3613C45.379 11.0332 45.393 10.2972 45.4164 9.71174C45.5252 9.69973 45.6727 9.6857 45.7732 9.68403C46.3854 9.67202 46.82 9.80153 47.0266 10.0559C47.1204 10.171 47.1701 10.3152 47.1701 10.4831C47.1701 11.0282 46.6574 11.3033 46.1814 11.3293C46.0225 11.336 45.9017 11.3146 45.9017 11.3146L45.8106 11.2996L45.869 11.3847C46.3296 12.0666 47.0293 13.2523 47.3243 13.817L47.3337 13.8367H48.7416L48.6992 13.766C48.6502 13.6909 47.7286 12.339 47.3367 11.7612C47.3367 11.7612 47.3243 11.7412 47.3117 11.7252C48.0276 11.5075 48.3791 11.102 48.3791 10.4831C48.3791 9.39063 47.1995 9.13661 46.2108 9.11591L44.1493 9.11459L44.154 9.1603Z" fill="black"/>
<path d="M50.6069 9.11194H49.3479L49.3535 9.15833C49.3886 9.65735 49.4153 10.9021 49.4153 11.3587C49.4153 11.7746 49.4096 13.1765 49.3455 13.783L49.3398 13.8321H50.6523L50.6473 13.783C50.5829 13.1765 50.5772 11.7746 50.5772 11.3587C50.5772 10.9021 50.6049 9.65668 50.6403 9.15833L50.6436 9.11194H50.6069Z" fill="black"/>
<path d="M53.531 9.64231C54.4459 9.64531 54.787 9.83491 54.787 10.3349C54.787 10.4691 54.7453 10.5843 54.6642 10.6841C54.4913 10.8927 54.1398 11.0015 53.7072 10.9798H53.6845L53.4332 11.643H53.6905C54.1955 11.6277 54.6298 11.7856 54.8554 12.0606C54.9596 12.1878 55.0113 12.3327 55.0113 12.4879C55.0113 13.0139 54.554 13.2806 53.6515 13.2806C53.4999 13.2806 53.2522 13.2806 53.0954 13.2713C53.0643 12.5803 53.0633 11.6397 53.0633 11.3613C53.0633 11.0315 53.0773 10.2972 53.0994 9.67201C53.2002 9.65432 53.3724 9.64031 53.531 9.64231ZM51.8366 9.16265C51.8713 9.65966 51.8984 10.905 51.8984 11.3613C51.8984 11.7779 51.8944 13.1802 51.8283 13.7857L51.8223 13.8354L54.0173 13.8367C55.0888 13.8367 56.2323 13.4976 56.2323 12.542C56.2323 11.9428 55.7987 11.5005 54.9856 11.2565C55.5818 11.0983 55.9877 10.6847 55.9877 10.2101C55.9877 9.43035 55.0921 9.13627 54.2529 9.11758L51.8333 9.11459L51.8366 9.16265Z" fill="black"/>
<path d="M58.9212 10.5012C59.026 10.7235 59.2927 11.3567 59.5988 12.0997C59.5524 12.101 59.4997 12.1054 59.4997 12.1054L58.9206 12.1131C58.9206 12.1131 58.3247 12.101 58.2299 12.0997C58.4716 11.5006 58.7123 10.9615 58.9212 10.5012ZM59.4626 9.11194H58.5784L58.5697 9.13664C58.3104 9.85062 56.6464 13.4703 56.5086 13.7683L56.4775 13.8321H57.6054L57.6131 13.8041C57.7106 13.483 57.8371 13.1191 57.9856 12.7226C58.0253 12.7199 58.9152 12.7079 58.9152 12.7079L59.6839 12.7186C59.6839 12.7186 59.8181 12.7199 59.8522 12.7226C60.0554 13.2306 60.2057 13.6155 60.2714 13.8064L60.2804 13.8321H61.5839L59.4827 9.11194H59.4626Z" fill="black"/>
<path d="M61.9512 10.3356C61.9512 11.1664 62.7863 11.5016 63.5223 11.8013C64.0948 12.032 64.6856 12.273 64.6856 12.6678C64.6856 12.7873 64.6569 12.8841 64.5945 12.9572C64.4586 13.1198 64.1759 13.1879 63.732 13.1675C63.3 13.1468 62.8033 13.006 62.2549 12.7509L62.0239 12.6448L62.0249 12.8274V13.6762L62.1752 13.7089L62.2676 13.7273C62.543 13.7937 63.0667 13.9182 63.5954 13.9182C64.981 13.9182 65.8081 13.3695 65.8081 12.4535C65.8081 11.602 64.9546 11.2619 64.2009 10.9615C63.6442 10.7405 63.0704 10.5115 63.0704 10.1497C63.0704 10.0436 63.0704 9.72646 63.7824 9.72646C64.3154 9.72646 64.8361 9.94343 65.1189 10.0593L65.3879 10.1711L65.3859 9.99316V9.13631L65.1189 9.08724C64.8508 9.0365 64.4042 8.94907 63.9399 8.94907C62.7493 8.94907 61.9512 9.50683 61.9512 10.3356Z" fill="black"/>
</svg>
