<svg width="160" height="20" viewBox="0 0 160 20" fill="none" xmlns="http://www.w3.org/2000/svg">
<g clip-path="url(#clip0_112_4078)">
<path d="M157.239 0.991135V8.4732L139.146 8.45679V18.5769H141.817V11.1154H157.238V18.5769H159.923V0.991135H157.239ZM117.412 3.15037C115.815 4.57869 115.002 6.8385 115.002 9.86799C114.971 11.2314 115.17 12.5902 115.591 13.8875C115.939 14.9222 116.556 15.846 117.377 16.565C118.275 17.3015 119.33 17.8206 120.461 18.082C121.945 18.4225 123.466 18.5801 124.988 18.5514H135.775V15.9252H125.108C122.547 15.9252 120.653 15.4231 119.481 14.4341C118.309 13.4444 117.7 11.8921 117.7 9.83831C117.7 7.78489 118.305 6.24587 119.494 5.21147C120.683 4.17708 122.575 3.64557 125.138 3.64557H135.789V0.991484H125.017C121.574 0.991484 119.014 1.71821 117.41 3.15072" fill="#3C9673"/>
<path d="M90.8296 15.9249H111.639V18.5671H90.8296V15.9249ZM90.8296 8.45679H111.639V11.1018H90.8296V8.45679ZM96.8673 0.991135H111.639V3.63614H96.8673V0.991135Z" fill="#3C9673"/>
<path d="M72.7232 3.63614H81.776V18.5685H84.4472V3.63614H93.5001V0.991135H72.7214L72.7232 3.63614Z" fill="#BECD32"/>
<path d="M72.7257 14.7805L57.3841 0.990433H54.5903V18.5681H57.2608V4.60417L72.8186 18.5671H75.3976V7.00053H72.7271L72.7257 14.7805Z" fill="#BECD32"/>
<path d="M41.2071 0.991135H40.2223C36.7779 0.991135 34.2157 1.71786 32.6204 3.15037C31.0252 4.58288 30.2056 6.8385 30.2056 9.86799C30.1751 11.2311 30.3739 12.5896 30.7937 13.8868C31.1429 14.9216 31.7593 15.8453 32.5806 16.5647C33.4787 17.3037 34.5357 17.8246 35.6688 18.0866C37.1534 18.427 38.674 18.5847 40.1968 18.5559H41.242C42.76 18.5827 44.2757 18.4251 45.7557 18.0866C46.8913 17.8262 47.9514 17.3071 48.8533 16.5695C49.6734 15.8482 50.2879 14.9226 50.6343 13.8868C51.0543 12.588 51.2532 11.2278 51.2228 9.8631C51.2228 6.83361 50.4066 4.57345 48.7981 3.14548C47.1896 1.71752 44.6312 0.991135 41.2061 0.991135M46.7395 14.4501C45.5671 15.4279 43.6775 15.9252 41.1118 15.9252H40.3086C37.7481 15.9252 35.8532 15.4234 34.6809 14.4341C33.5085 13.4447 32.8998 11.8945 32.8998 9.83831C32.8998 7.78209 33.5026 6.24657 34.691 5.20274C35.8794 4.15892 37.7722 3.63614 40.3351 3.63614H41.2029C43.7047 3.65534 45.5664 4.19908 46.7384 5.2471C47.9104 6.29511 48.516 7.85683 48.516 9.86869C48.5181 11.9232 47.9177 13.4657 46.7349 14.4505M24.2004 0.990436H26.8733V18.5765H24.2004V0.990436ZM19.6333 2.25951C19.1915 1.84724 18.668 1.53243 18.0967 1.33547C17.3796 1.09321 16.6261 0.976605 15.8693 0.990786H0.0283203V3.63579H15.8697C16.1742 3.62008 16.4789 3.66462 16.7661 3.76686C17.0534 3.86909 17.3177 4.02701 17.5439 4.23156C17.7644 4.47223 17.9334 4.75555 18.0402 5.06403C18.1471 5.37251 18.1896 5.69961 18.1651 6.02516C18.1876 6.35419 18.1447 6.68442 18.0389 6.99677C17.933 7.30912 17.7663 7.5974 17.5484 7.84495C17.326 8.0583 17.0624 8.22407 16.7738 8.33215C16.4852 8.44023 16.1775 8.48834 15.8697 8.47355H2.70161V8.45714H0.0283203V18.5776H15.8697C16.6357 18.5942 17.3989 18.4782 18.1253 18.2346C18.696 18.0367 19.2192 17.7222 19.6619 17.3113C20.0567 16.9333 20.359 16.4694 20.5454 15.9556C20.741 15.4098 20.8388 14.8336 20.8342 14.2535V12.7361C20.8342 10.959 18.7424 9.8411 17.9353 9.8411C17.9196 9.84038 17.9047 9.83358 17.8938 9.82212C17.8829 9.81066 17.8769 9.79543 17.877 9.77964C17.877 9.74751 17.9032 9.72132 17.9353 9.72097C18.7424 9.72097 20.8339 8.60346 20.8339 6.82243V5.31484C20.8371 4.74 20.7347 4.16945 20.5318 3.6316C20.3374 3.11302 20.0297 2.64437 19.6312 2.25986M18.1644 13.5362C18.1897 13.8618 18.1476 14.189 18.0407 14.4976C17.9338 14.8061 17.7644 15.0893 17.5432 15.3295C17.3169 15.5339 17.0526 15.6917 16.7654 15.7939C16.4781 15.8961 16.1735 15.9408 15.869 15.9252H3.75102V15.9396H2.70161V11.1021H3.75207V11.1165H16.1791C17.4995 11.2457 18.1655 12.0594 18.1655 13.5366" fill="#3C9673"/>
</g>
<defs>
<clipPath id="clip0_112_4078">
<rect width="160" height="18.1595" fill="white" transform="translate(0 0.920242)"/>
</clipPath>
</defs>
</svg>
