<svg width="97" height="41" viewBox="0 0 97 41" fill="none" xmlns="http://www.w3.org/2000/svg">
<path d="M1.74846e-06 40.4542L0 0.454164L40.2152 0.454163L40.2152 40.4542L1.74846e-06 40.4542ZM6.26014 32.2218H35.1131L20.3656 7.14129L6.26014 32.2218Z" fill="#231F20"/>
<path d="M44.9832 18.1929V4.90305H50.3043C51.282 4.90305 52.0975 5.04798 52.7508 5.33783C53.404 5.62768 53.895 6.03001 54.2238 6.54482C54.5526 7.0553 54.717 7.64365 54.717 8.30988C54.717 8.82901 54.6132 9.28542 54.4055 9.6791C54.1979 10.0684 53.9123 10.3886 53.5489 10.6395C53.1899 10.8861 52.7789 11.0613 52.316 11.1651V11.2949C52.8221 11.3165 53.2959 11.4593 53.7371 11.7232C54.1827 11.9871 54.5439 12.357 54.8208 12.8328C55.0977 13.3044 55.2361 13.8668 55.2361 14.52C55.2361 15.2252 55.0609 15.8546 54.7105 16.4084C54.3644 16.9578 53.8518 17.3926 53.1726 17.7127C52.4934 18.0329 51.6563 18.1929 50.6612 18.1929H44.9832ZM47.793 15.8957H50.0837C50.8667 15.8957 51.4378 15.7465 51.7968 15.448C52.1559 15.1452 52.3355 14.7428 52.3355 14.241C52.3355 13.8733 52.2468 13.5488 52.0694 13.2676C51.892 12.9864 51.639 12.7658 51.3102 12.6057C50.9857 12.4457 50.5985 12.3656 50.1486 12.3656H47.793V15.8957ZM47.793 10.4643H49.8761C50.2611 10.4643 50.6028 10.3972 50.9013 10.2631C51.2042 10.1247 51.4421 9.93001 51.6152 9.6791C51.7925 9.42818 51.8812 9.12751 51.8812 8.7771C51.8812 8.2969 51.7103 7.90971 51.3686 7.61553C51.0311 7.32136 50.5509 7.17427 49.928 7.17427H47.793V10.4643Z" fill="#231F20"/>
<path d="M68.1807 11.548C68.1807 12.9972 67.906 14.2302 67.3566 15.2468C66.8115 16.2635 66.0674 17.04 65.1243 17.5764C64.1855 18.1086 63.1299 18.3746 61.9576 18.3746C60.7765 18.3746 59.7166 18.1064 58.7779 17.57C57.8391 17.0335 57.0972 16.257 56.5521 15.2403C56.007 14.2237 55.7344 12.9929 55.7344 11.548C55.7344 10.0987 56.007 8.86578 56.5521 7.84914C57.0972 6.8325 57.8391 6.05813 58.7779 5.52601C59.7166 4.98957 60.7765 4.72135 61.9576 4.72135C63.1299 4.72135 64.1855 4.98957 65.1243 5.52601C66.0674 6.05813 66.8115 6.8325 67.3566 7.84914C67.906 8.86578 68.1807 10.0987 68.1807 11.548ZM65.3319 11.548C65.3319 10.6092 65.1913 9.81753 64.9101 9.17294C64.6333 8.52835 64.2418 8.03949 63.7356 7.70638C63.2294 7.37327 62.6368 7.20671 61.9576 7.20671C61.2784 7.20671 60.6857 7.37327 60.1795 7.70638C59.6734 8.03949 59.2797 8.52835 58.9985 9.17294C58.7216 9.81753 58.5832 10.6092 58.5832 11.548C58.5832 12.4868 58.7216 13.2784 58.9985 13.923C59.2797 14.5676 59.6734 15.0565 60.1795 15.3896C60.6857 15.7227 61.2784 15.8893 61.9576 15.8893C62.6368 15.8893 63.2294 15.7227 63.7356 15.3896C64.2418 15.0565 64.6333 14.5676 64.9101 13.923C65.1913 13.2784 65.3319 12.4868 65.3319 11.548Z" fill="#231F20"/>
<path d="M81.3784 11.548C81.3784 12.9972 81.1036 14.2302 80.5542 15.2468C80.0091 16.2635 79.265 17.04 78.3219 17.5764C77.3832 18.1086 76.3276 18.3746 75.1552 18.3746C73.9742 18.3746 72.9143 18.1064 71.9755 17.57C71.0367 17.0335 70.2948 16.257 69.7497 15.2403C69.2046 14.2237 68.9321 12.9929 68.9321 11.548C68.9321 10.0987 69.2046 8.86578 69.7497 7.84914C70.2948 6.8325 71.0367 6.05813 71.9755 5.52601C72.9143 4.98957 73.9742 4.72135 75.1552 4.72135C76.3276 4.72135 77.3832 4.98957 78.3219 5.52601C79.265 6.05813 80.0091 6.8325 80.5542 7.84914C81.1036 8.86578 81.3784 10.0987 81.3784 11.548ZM78.5296 11.548C78.5296 10.6092 78.389 9.81753 78.1078 9.17294C77.8309 8.52835 77.4394 8.03949 76.9333 7.70638C76.4271 7.37327 75.8344 7.20671 75.1552 7.20671C74.476 7.20671 73.8833 7.37327 73.3772 7.70638C72.871 8.03949 72.4773 8.52835 72.1961 9.17294C71.9193 9.81753 71.7808 10.6092 71.7808 11.548C71.7808 12.4868 71.9193 13.2784 72.1961 13.923C72.4773 14.5676 72.871 15.0565 73.3772 15.3896C73.8833 15.7227 74.476 15.8893 75.1552 15.8893C75.8344 15.8893 76.4271 15.7227 76.9333 15.3896C77.4394 15.0565 77.8309 14.5676 78.1078 13.923C78.389 13.2784 78.5296 12.4868 78.5296 11.548Z" fill="#231F20"/>
<path d="M82.3633 4.90305H85.8286L89.4885 13.8322H89.6442L93.3041 4.90305H96.7694V18.1929H94.0439V9.54282H93.9336L90.4943 18.128H88.6384L85.1991 9.51038H85.0888V18.1929H82.3633V4.90305Z" fill="#231F20"/>
<path d="M49.7592 36.6482C48.8421 36.6482 48.0245 36.4795 47.3063 36.142C46.5925 35.8046 46.0258 35.3395 45.6062 34.7468C45.1865 34.1542 44.9681 33.475 44.9508 32.7092H47.6762C47.7065 33.2241 47.9228 33.6415 48.3251 33.9617C48.7275 34.2818 49.2055 34.4419 49.7592 34.4419C50.2005 34.4419 50.5899 34.3445 50.9273 34.1498C51.2691 33.9508 51.5351 33.6761 51.7255 33.3257C51.9201 32.971 52.0175 32.5643 52.0175 32.1057C52.0175 31.6385 51.918 31.2275 51.719 30.8728C51.5243 30.5181 51.2539 30.2412 50.9078 30.0422C50.5617 29.8432 50.1659 29.7415 49.7203 29.7372C49.331 29.7372 48.9524 29.8172 48.5847 29.9773C48.2213 30.1374 47.9379 30.3558 47.7346 30.6327L45.2363 30.1849L45.8657 23.1766H53.9902V25.4738H48.1824L47.8384 28.8027H47.9163C48.1499 28.474 48.5025 28.2014 48.9741 27.9851C49.4456 27.7688 49.9734 27.6606 50.5574 27.6606C51.3577 27.6606 52.0716 27.8488 52.6988 28.2252C53.3261 28.6016 53.8215 29.1186 54.1849 29.7761C54.5483 30.4294 54.7278 31.1821 54.7235 32.0344C54.7278 32.9299 54.5202 33.7259 54.1005 34.4224C53.6852 35.1146 53.1033 35.6597 52.3549 36.0577C51.6108 36.4513 50.7456 36.6482 49.7592 36.6482Z" fill="#231F20"/>
<path d="M60.7976 36.7585C59.6815 36.7542 58.7211 36.4795 57.9164 35.9344C57.1161 35.3893 56.4996 34.5998 56.067 33.5658C55.6387 32.5319 55.4267 31.2881 55.4311 29.8345C55.4311 28.3853 55.6452 27.1502 56.0735 26.1292C56.5061 25.1082 57.1226 24.3317 57.9229 23.7996C58.7276 23.2631 59.6858 22.9949 60.7976 22.9949C61.9094 22.9949 62.8655 23.2631 63.6658 23.7996C64.4705 24.336 65.0891 25.1147 65.5218 26.1357C65.9544 27.1523 66.1685 28.3853 66.1642 29.8345C66.1642 31.2924 65.9479 32.5384 65.5153 33.5723C65.087 34.6062 64.4727 35.3958 63.6723 35.9409C62.872 36.486 61.9138 36.7585 60.7976 36.7585ZM60.7976 34.4289C61.559 34.4289 62.1668 34.046 62.6211 33.2803C63.0753 32.5146 63.3003 31.366 63.296 29.8345C63.296 28.8265 63.1921 27.9873 62.9845 27.3167C62.7812 26.6462 62.4913 26.1422 62.1149 25.8047C61.7429 25.4673 61.3038 25.2986 60.7976 25.2986C60.0405 25.2986 59.4349 25.6771 58.9806 26.4342C58.5264 27.1913 58.2971 28.3247 58.2928 29.8345C58.2928 30.8555 58.3945 31.7077 58.5978 32.3913C58.8054 33.0705 59.0975 33.581 59.4738 33.9227C59.8502 34.2602 60.2915 34.4289 60.7976 34.4289Z" fill="#231F20"/>
<path d="M72.2821 36.7585C71.166 36.7542 70.2056 36.4795 69.4009 35.9344C68.6006 35.3893 67.9841 34.5998 67.5515 33.5658C67.1232 32.5319 66.9112 31.2881 66.9156 29.8345C66.9156 28.3853 67.1297 27.1502 67.558 26.1292C67.9906 25.1082 68.6071 24.3317 69.4074 23.7996C70.2121 23.2631 71.1703 22.9949 72.2821 22.9949C73.3939 22.9949 74.35 23.2631 75.1504 23.7996C75.955 24.336 76.5737 25.1147 77.0063 26.1357C77.4389 27.1523 77.653 28.3853 77.6487 29.8345C77.6487 31.2924 77.4324 32.5384 76.9998 33.5723C76.5715 34.6062 75.9572 35.3958 75.1568 35.9409C74.3565 36.486 73.3983 36.7585 72.2821 36.7585ZM72.2821 34.4289C73.0435 34.4289 73.6514 34.046 74.1056 33.2803C74.5598 32.5146 74.7848 31.366 74.7805 29.8345C74.7805 28.8265 74.6766 27.9873 74.469 27.3167C74.2657 26.6462 73.9758 26.1422 73.5994 25.8047C73.2274 25.4673 72.7883 25.2986 72.2821 25.2986C71.5251 25.2986 70.9194 25.6771 70.4652 26.4342C70.0109 27.1913 69.7816 28.3247 69.7773 29.8345C69.7773 30.8555 69.879 31.7077 70.0823 32.3913C70.2899 33.0705 70.582 33.581 70.9583 33.9227C71.3347 34.2602 71.776 34.4289 72.2821 34.4289Z" fill="#231F20"/>
</svg>
