<svg width="97" height="41" viewBox="0 0 97 41" fill="none" xmlns="http://www.w3.org/2000/svg">
<path d="M1.74846e-06 40.4542L0 0.454164L40.2152 0.454163L40.2152 40.4542L1.74846e-06 40.4542ZM6.26014 32.2218H35.1131L20.3656 7.14129L6.26014 32.2218Z" fill="#231F20"/>
<path d="M44.9832 18.1929V4.90305H50.3043C51.282 4.90305 52.0975 5.04798 52.7508 5.33783C53.404 5.62768 53.895 6.03001 54.2238 6.54482C54.5526 7.0553 54.717 7.64365 54.717 8.30988C54.717 8.82901 54.6132 9.28542 54.4055 9.6791C54.1979 10.0684 53.9123 10.3886 53.5489 10.6395C53.1899 10.8861 52.7789 11.0613 52.316 11.1651V11.2949C52.8221 11.3165 53.2959 11.4593 53.7371 11.7232C54.1827 11.9871 54.5439 12.357 54.8208 12.8328C55.0977 13.3044 55.2361 13.8668 55.2361 14.52C55.2361 15.2252 55.0609 15.8546 54.7105 16.4084C54.3644 16.9578 53.8518 17.3926 53.1726 17.7127C52.4934 18.0329 51.6563 18.1929 50.6612 18.1929H44.9832ZM47.793 15.8957H50.0837C50.8667 15.8957 51.4378 15.7465 51.7968 15.448C52.1559 15.1452 52.3355 14.7428 52.3355 14.241C52.3355 13.8733 52.2468 13.5488 52.0694 13.2676C51.892 12.9864 51.639 12.7658 51.3102 12.6057C50.9857 12.4457 50.5985 12.3656 50.1486 12.3656H47.793V15.8957ZM47.793 10.4643H49.8761C50.2611 10.4643 50.6028 10.3972 50.9013 10.2631C51.2042 10.1247 51.4421 9.93001 51.6152 9.6791C51.7925 9.42818 51.8812 9.12751 51.8812 8.7771C51.8812 8.2969 51.7103 7.90971 51.3686 7.61553C51.0311 7.32136 50.5509 7.17427 49.928 7.17427H47.793V10.4643Z" fill="#231F20"/>
<path d="M68.1807 11.548C68.1807 12.9972 67.906 14.2302 67.3566 15.2468C66.8115 16.2635 66.0674 17.04 65.1243 17.5764C64.1855 18.1086 63.1299 18.3746 61.9576 18.3746C60.7765 18.3746 59.7166 18.1064 58.7779 17.57C57.8391 17.0335 57.0972 16.257 56.5521 15.2403C56.007 14.2237 55.7344 12.9929 55.7344 11.548C55.7344 10.0987 56.007 8.86578 56.5521 7.84914C57.0972 6.8325 57.8391 6.05813 58.7779 5.52601C59.7166 4.98957 60.7765 4.72135 61.9576 4.72135C63.1299 4.72135 64.1855 4.98957 65.1243 5.52601C66.0674 6.05813 66.8115 6.8325 67.3566 7.84914C67.906 8.86578 68.1807 10.0987 68.1807 11.548ZM65.3319 11.548C65.3319 10.6092 65.1913 9.81753 64.9101 9.17294C64.6333 8.52835 64.2418 8.03949 63.7356 7.70638C63.2294 7.37327 62.6368 7.20671 61.9576 7.20671C61.2784 7.20671 60.6857 7.37327 60.1795 7.70638C59.6734 8.03949 59.2797 8.52835 58.9985 9.17294C58.7216 9.81753 58.5832 10.6092 58.5832 11.548C58.5832 12.4868 58.7216 13.2784 58.9985 13.923C59.2797 14.5676 59.6734 15.0565 60.1795 15.3896C60.6857 15.7227 61.2784 15.8893 61.9576 15.8893C62.6368 15.8893 63.2294 15.7227 63.7356 15.3896C64.2418 15.0565 64.6333 14.5676 64.9101 13.923C65.1913 13.2784 65.3319 12.4868 65.3319 11.548Z" fill="#231F20"/>
<path d="M81.3784 11.548C81.3784 12.9972 81.1036 14.2302 80.5542 15.2468C80.0091 16.2635 79.265 17.04 78.3219 17.5764C77.3832 18.1086 76.3276 18.3746 75.1552 18.3746C73.9742 18.3746 72.9143 18.1064 71.9755 17.57C71.0367 17.0335 70.2948 16.257 69.7497 15.2403C69.2046 14.2237 68.9321 12.9929 68.9321 11.548C68.9321 10.0987 69.2046 8.86578 69.7497 7.84914C70.2948 6.8325 71.0367 6.05813 71.9755 5.52601C72.9143 4.98957 73.9742 4.72135 75.1552 4.72135C76.3276 4.72135 77.3832 4.98957 78.3219 5.52601C79.265 6.05813 80.0091 6.8325 80.5542 7.84914C81.1036 8.86578 81.3784 10.0987 81.3784 11.548ZM78.5296 11.548C78.5296 10.6092 78.389 9.81753 78.1078 9.17294C77.8309 8.52835 77.4394 8.03949 76.9333 7.70638C76.4271 7.37327 75.8344 7.20671 75.1552 7.20671C74.476 7.20671 73.8833 7.37327 73.3772 7.70638C72.871 8.03949 72.4773 8.52835 72.1961 9.17294C71.9193 9.81753 71.7808 10.6092 71.7808 11.548C71.7808 12.4868 71.9193 13.2784 72.1961 13.923C72.4773 14.5676 72.871 15.0565 73.3772 15.3896C73.8833 15.7227 74.476 15.8893 75.1552 15.8893C75.8344 15.8893 76.4271 15.7227 76.9333 15.3896C77.4394 15.0565 77.8309 14.5676 78.1078 13.923C78.389 13.2784 78.5296 12.4868 78.5296 11.548Z" fill="#231F20"/>
<path d="M82.3633 4.90305H85.8286L89.4885 13.8322H89.6442L93.3041 4.90305H96.7694V18.1929H94.0439V9.54282H93.9336L90.4943 18.128H88.6384L85.1991 9.51038H85.0888V18.1929H82.3633V4.90305Z" fill="#231F20"/>
<path d="M50.6872 23.1766V36.4665H47.8774V25.8437H47.7995L44.7561 27.7515V25.2596L48.0461 23.1766H50.6872Z" fill="#231F20"/>
<path d="M57.9602 36.7585C56.8441 36.7542 55.8837 36.4795 55.079 35.9344C54.2787 35.3893 53.6622 34.5998 53.2296 33.5658C52.8013 32.5319 52.5893 31.2881 52.5937 29.8345C52.5937 28.3853 52.8078 27.1502 53.2361 26.1292C53.6687 25.1082 54.2852 24.3317 55.0855 23.7996C55.8902 23.2631 56.8484 22.9949 57.9602 22.9949C59.072 22.9949 60.0281 23.2631 60.8284 23.7996C61.6331 24.336 62.2517 25.1147 62.6844 26.1357C63.117 27.1523 63.3311 28.3853 63.3268 29.8345C63.3268 31.2924 63.1105 32.5384 62.6779 33.5723C62.2496 34.6062 61.6353 35.3958 60.8349 35.9409C60.0346 36.486 59.0764 36.7585 57.9602 36.7585ZM57.9602 34.4289C58.7216 34.4289 59.3294 34.046 59.7837 33.2803C60.2379 32.5146 60.4629 31.366 60.4586 29.8345C60.4586 28.8265 60.3547 27.9873 60.1471 27.3167C59.9438 26.6462 59.6539 26.1422 59.2775 25.8047C58.9055 25.4673 58.4664 25.2986 57.9602 25.2986C57.2031 25.2986 56.5975 25.6771 56.1432 26.4342C55.689 27.1913 55.4597 28.3247 55.4554 29.8345C55.4554 30.8555 55.5571 31.7077 55.7604 32.3913C55.968 33.0705 56.2601 33.581 56.6364 33.9227C57.0128 34.2602 57.4541 34.4289 57.9602 34.4289Z" fill="#231F20"/>
<path d="M69.4447 36.7585C68.3286 36.7542 67.3682 36.4795 66.5635 35.9344C65.7632 35.3893 65.1467 34.5998 64.7141 33.5658C64.2858 32.5319 64.0738 31.2881 64.0782 29.8345C64.0782 28.3853 64.2923 27.1502 64.7206 26.1292C65.1532 25.1082 65.7697 24.3317 66.57 23.7996C67.3747 23.2631 68.3329 22.9949 69.4447 22.9949C70.5565 22.9949 71.5126 23.2631 72.313 23.7996C73.1176 24.336 73.7363 25.1147 74.1689 26.1357C74.6015 27.1523 74.8156 28.3853 74.8113 29.8345C74.8113 31.2924 74.595 32.5384 74.1624 33.5723C73.7341 34.6062 73.1198 35.3958 72.3194 35.9409C71.5191 36.486 70.5609 36.7585 69.4447 36.7585ZM69.4447 34.4289C70.2061 34.4289 70.8139 34.046 71.2682 33.2803C71.7224 32.5146 71.9474 31.366 71.9431 29.8345C71.9431 28.8265 71.8392 27.9873 71.6316 27.3167C71.4283 26.6462 71.1384 26.1422 70.762 25.8047C70.39 25.4673 69.9509 25.2986 69.4447 25.2986C68.6877 25.2986 68.082 25.6771 67.6278 26.4342C67.1735 27.1913 66.9442 28.3247 66.9399 29.8345C66.9399 30.8555 67.0416 31.7077 67.2449 32.3913C67.4526 33.0705 67.7446 33.581 68.1209 33.9227C68.4973 34.2602 68.9386 34.4289 69.4447 34.4289Z" fill="#231F20"/>
<path d="M80.9292 36.7585C79.8131 36.7542 78.8527 36.4795 78.048 35.9344C77.2477 35.3893 76.6312 34.5998 76.1986 33.5658C75.7703 32.5319 75.5583 31.2881 75.5627 29.8345C75.5627 28.3853 75.7768 27.1502 76.2051 26.1292C76.6377 25.1082 77.2542 24.3317 78.0545 23.7996C78.8592 23.2631 79.8174 22.9949 80.9292 22.9949C82.0411 22.9949 82.9971 23.2631 83.7975 23.7996C84.6021 24.336 85.2208 25.1147 85.6534 26.1357C86.086 27.1523 86.3001 28.3853 86.2958 29.8345C86.2958 31.2924 86.0795 32.5384 85.6469 33.5723C85.2186 34.6062 84.6043 35.3958 83.8039 35.9409C83.0036 36.486 82.0454 36.7585 80.9292 36.7585ZM80.9292 34.4289C81.6906 34.4289 82.2985 34.046 82.7527 33.2803C83.2069 32.5146 83.4319 31.366 83.4276 29.8345C83.4276 28.8265 83.3238 27.9873 83.1161 27.3167C82.9128 26.6462 82.6229 26.1422 82.2465 25.8047C81.8745 25.4673 81.4354 25.2986 80.9292 25.2986C80.1722 25.2986 79.5665 25.6771 79.1123 26.4342C78.658 27.1913 78.4287 28.3247 78.4244 29.8345C78.4244 30.8555 78.5261 31.7077 78.7294 32.3913C78.9371 33.0705 79.2291 33.581 79.6054 33.9227C79.9818 34.2602 80.4231 34.4289 80.9292 34.4289Z" fill="#231F20"/>
</svg>
