<svg width="66" height="11" viewBox="0 0 66 11" fill="none" xmlns="http://www.w3.org/2000/svg">
    <path d="M48.6989 9.27872L46.7117 5.79247C47.592 5.371 48.1525 4.48232 48.1534 3.50644C48.1534 2.10365 47.0118 0.962309 45.6088 0.962309H41.3589V9.27839H43.2488V6.05056H44.7531L46.5929 9.27872H48.6989ZM43.2178 4.4452V2.57167H45.2547L45.2469 2.57486C45.8669 2.60815 46.2619 2.96753 46.2619 3.51027C46.2619 4.0471 45.8388 4.42327 45.2079 4.44568H43.2178V4.4452ZM33.6404 9.27872V0.962309H39.8539V2.54911H35.5815V4.21287H39.3276V5.83503H35.5815V7.60903H40.0654V9.27872H33.6404ZM24.7782 9.27872L22.791 5.79247C23.6712 5.371 24.2316 4.48216 24.2324 3.50644C24.2324 2.10365 23.0911 0.962309 21.6883 0.962309H17.438V9.27839H19.3282V6.05056H20.8329L22.6724 9.27872H24.7782ZM19.2966 4.4452V2.57167H21.3339L21.3259 2.57486C21.9459 2.60815 22.3413 2.96753 22.3413 3.51027C22.3413 4.0471 21.9179 4.42327 21.2869 4.44568H19.2966V4.4452ZM12.4013 9.48368C14.6751 9.48368 16.0332 8.17626 16.0332 5.98671V0.968394H14.0923V5.85695C14.0923 7.04085 13.4759 7.71992 12.4015 7.71992H12.4003C11.3259 7.71992 10.7099 7.041 10.7099 5.85695V0.968394H8.76814V5.98704C8.76814 8.17642 10.1262 9.48384 12.4003 9.48384H12.4013V9.48368ZM6.22962 4.67273C7.34967 5.05467 7.89562 6.00751 7.89562 6.92628C7.89562 8.22075 6.84453 9.27455 5.55118 9.27872H0.960083V0.96167H5.18861C6.28931 0.971913 7.17671 1.86652 7.17799 2.96736C7.17943 3.6618 6.82037 4.30728 6.22962 4.67242V4.67273ZM2.86546 7.72696H4.98748C5.65455 7.72696 6.00353 7.2295 6.00353 6.73763C6.00353 6.34145 5.68848 5.78367 4.98748 5.78367H2.86546V7.72696ZM4.41929 4.23239C4.90796 4.23239 5.29133 3.85493 5.29133 3.37299C5.29133 2.90705 4.89132 2.51359 4.41897 2.51359H2.86546V4.23239H4.41929Z" fill="black"/>
    <path d="M30.9323 4.67105C32.0523 5.05267 32.5982 6.00583 32.5982 6.92461C32.5982 8.21923 31.5471 9.27256 30.2538 9.27704L25.6628 9.27672V0.959991L29.8908 0.959839C30.9918 0.970235 31.8791 1.865 31.8804 2.96601C31.8817 3.66044 31.5228 4.30575 30.9321 4.67074L30.9323 4.67105ZM27.5681 7.72528H29.6899C30.3569 7.72528 30.7059 7.22782 30.7059 6.73595C30.7059 6.33994 30.3906 5.78199 29.6899 5.78199H27.5681V7.72528ZM29.1215 4.23071C29.6107 4.23071 29.9941 3.85325 29.9941 3.37131C29.9941 2.90537 29.594 2.51191 29.1215 2.51191H27.5681V4.23071H29.1215Z" fill="black"/>
    <path d="M56.9236 9.27856L54.9366 5.79231C55.8166 5.37085 56.3769 4.48201 56.3777 3.50628C56.3777 2.10349 55.2365 0.962158 53.8338 0.962158H49.5836V9.27824H51.4738V6.05041H52.9783L54.8178 9.27856H56.9238H56.9236ZM51.4421 4.44504V2.57151H53.4793L53.4713 2.57471C54.0914 2.608 54.4869 2.96738 54.4869 3.51012C54.4869 4.04694 54.0635 4.42312 53.4323 4.44553H51.4421V4.44504ZM59.6854 9.27856V5.88975L56.3862 0.962158H58.8099L60.709 3.82133L62.6162 0.962158H65.0399L61.7327 5.88975V9.27856H59.6854Z" fill="black"/>
</svg>
