<svg width="36" height="36" viewBox="0 0 36 36" fill="none" xmlns="http://www.w3.org/2000/svg">
    <g clip-path="url(#clip0_222:224)">
        <path d="M18 -0.00146484C8.05766 -0.00146484 0 8.0562 0 17.9985C0 27.9409 8.05766 35.9985 18 35.9985C27.9423 35.9985 36 27.9372 36 17.9985C36 8.0598 27.9387 -0.00146484 18 -0.00146484ZM17.9928 2.21836C26.7207 2.21836 33.7946 9.29223 33.7946 18.0201C33.7946 26.7481 26.7207 33.822 17.9928 33.822C9.26487 33.822 2.19099 26.7445 2.19099 18.0201C2.19099 9.29583 9.26487 2.21836 17.9928 2.21836Z" fill="#5514B4"/>
        <path d="M9.02704 11.8472V24.1031H14.0144C16.2811 24.1031 18.0217 22.6868 18.0217 20.4453C18.0217 18.4706 16.4793 17.7138 16.4793 17.7138C16.4793 17.7138 17.6649 16.9571 17.6649 15.2778C17.6649 13.3246 16.1225 11.8472 13.8487 11.8472H9.02704ZM11.7874 14.24H13.2612C14.31 14.24 14.764 14.7769 14.764 15.4436C14.764 16.1642 14.2451 16.6219 13.3297 16.6219H11.7874V14.24ZM11.7874 19.076H13.2612C14.31 19.076 14.764 19.6129 14.764 20.2796C14.764 21.0003 14.2451 21.4579 13.3297 21.4579H11.7874V19.076Z" fill="#5514B4"/>
        <path d="M21.7225 24.0634V14.658H18.9658V11.8256H27.5424V14.658H24.6667V24.0634H21.7225Z" fill="#5514B4"/>
    </g>
    <defs>
        <clipPath id="clip0_222:224">
            <rect width="36" height="36" fill="white"/>
        </clipPath>
    </defs>
</svg>
