<svg width="104" height="40" viewBox="0 0 104 40" fill="none" xmlns="http://www.w3.org/2000/svg">
    <path d="M1.37476 39.5H102.625V0.5H1.37476V39.5Z" fill="black" stroke="white"/>
    <path d="M11.6494 20.5025C14.0257 20.5025 16.3653 21.3019 16.3653 23.6635C16.3653 25.5117 14.5464 26.5679 13.4756 26.8319C15.5879 27.0886 17.6928 28.1374 17.6928 30.2423C17.6928 32.868 15.5879 34.1808 12.9549 34.1808H6.12671V33.6674H7.1755C7.96026 33.4107 7.96027 33.4107 7.96027 32.6113V29.9856V24.7196V22.094C7.96027 21.3019 7.96026 21.3019 7.1755 21.3019C6.1267 21.0452 6.12671 21.0452 6.12671 21.0452V20.5025H11.6494ZM10.0652 21.3019V26.8319H11.3927C13.2189 26.8319 14.2824 26.0325 14.2824 23.9276C14.2824 22.3507 13.2189 21.0452 11.3927 21.0452C10.85 21.0452 10.0652 21.3019 10.0652 21.3019ZM10.0652 27.3453V32.0979C10.0652 33.4107 10.85 33.6674 12.4342 33.6674C14.5464 33.6674 15.5879 32.3546 15.5879 30.2423C15.5879 28.1374 13.4756 27.3453 11.3927 27.3453H10.0652ZM21.888 29.9856V32.6113C21.888 33.4107 22.152 33.4107 22.6947 33.6674H23.4795V34.1808H18.7416V33.6674H19.2623C20.0618 33.4107 20.0618 33.4107 20.0618 32.6113V29.9856V21.8153C20.0618 21.0452 19.8051 20.7592 18.9983 20.7592H18.2135V20.2458C19.519 20.2458 20.8465 19.9891 21.888 19.7324V23.6635V29.9856ZM29.2589 33.1247C28.4815 33.6674 27.6747 34.1808 26.6332 34.1808C25.3057 34.1808 24.521 33.1247 24.521 32.0979C24.521 29.9856 26.8973 29.4503 29.2589 29.1936V26.8319C29.2589 26.0325 28.7455 25.5118 27.9387 25.5118C27.154 25.5118 26.8973 25.7758 26.6332 26.2892C26.3692 27.0886 26.1125 27.3453 25.5844 27.3453C25.049 27.3453 24.785 27.0886 24.785 26.8319C24.785 25.7758 26.8973 24.9764 28.1954 24.9764C30.3077 24.9764 31.0851 25.5118 31.0851 27.0886V32.0979C31.0851 32.6113 31.3712 32.868 31.8919 32.868C32.4126 32.868 32.6766 32.6113 32.9333 32.6113L33.1974 32.868C32.4126 33.6674 31.6352 34.1808 30.5644 34.1808C29.787 34.1808 29.5229 33.6674 29.2589 33.1247ZM29.2589 29.707C27.6747 29.707 26.1125 30.2423 26.1125 31.5552C26.1125 32.3546 26.8973 33.1247 27.6747 33.1247C28.4815 33.1247 29.0022 32.868 29.2589 32.6113V29.707ZM41.089 26.2892C41.089 26.8319 40.825 27.0886 40.3116 27.0886C39.7615 27.0886 39.5048 26.5679 39.2408 26.2892C38.9841 25.7758 38.456 25.5118 37.9353 25.5118C36.3511 25.5118 35.3023 26.8319 35.3023 28.9368C35.3023 31.2985 36.6078 32.868 38.7201 32.868C39.7615 32.868 40.5683 32.6113 41.089 32.0979L41.3531 32.3546C40.3116 33.6674 38.9841 34.1808 37.6786 34.1808C35.3023 34.1808 33.7181 32.0979 33.7181 29.707C33.7181 27.0886 35.3023 24.9764 38.1993 24.9764C39.7615 24.9764 41.089 25.5118 41.089 26.2892ZM45.2842 29.9856V32.6113C45.2842 33.4107 45.5482 33.4107 46.091 33.6674H46.8757V34.1808H41.8738V33.6674H42.6512C43.458 33.4107 43.458 33.4107 43.458 32.6113V29.9856V21.8153C43.458 21.0452 43.2013 20.7592 42.3945 20.7592H41.6098V20.2458C42.9373 20.2458 44.2427 19.9891 45.2842 19.7324V23.6635V29.4502L48.724 26.2892C48.9807 26.0325 48.724 25.7758 48.4379 25.5118H47.6605V24.9764H51.6136V25.5118C50.5502 25.5118 50.2862 25.7758 49.7654 26.2892L46.8757 28.9368C50.5502 32.868 50.5502 32.868 50.5502 32.868C51.0709 33.4107 51.3349 33.6674 52.1344 33.6674V34.1808H47.6605V33.6674H48.4379C48.724 33.6674 48.724 33.4107 48.4379 33.1247C47.1324 31.5552 47.1324 31.5552 47.1324 31.5552C46.091 30.5064 45.5482 29.707 45.2842 29.707V29.9856ZM53.9606 33.9241C53.9606 33.9241 53.6966 33.9241 53.4399 34.1808H53.1832V31.0418H53.4399C53.9606 32.868 54.7674 33.6674 56.0729 33.6674C57.393 33.6674 57.9211 33.1247 57.9211 32.3546C57.9211 31.5552 57.6571 31.0418 55.8088 30.5064C54.5033 29.9856 53.4399 29.1935 53.4399 27.624C53.4399 25.7758 55.0314 24.9764 56.5936 24.9764C57.6571 24.9764 58.1778 25.233 58.4418 25.233L58.9626 24.9764H59.2192V27.8807H58.6985C58.4418 26.2892 57.9211 25.5118 56.5936 25.5118C55.5448 25.5118 54.7674 26.0325 54.7674 26.8319C54.7674 27.8807 55.2881 28.1374 56.8503 28.6581C58.4418 29.4502 59.4833 29.9856 59.4833 31.2985C59.4833 33.4107 57.9211 34.1808 56.0729 34.1808C55.0314 34.1808 54.5033 33.9241 53.9606 33.9241ZM61.8522 32.3546V26.0325H60.8108V25.7758C61.8522 24.9763 62.637 24.2063 63.4364 22.8714H63.7005V25.233H66.5975V26.0325H63.7005V31.8192C63.7005 32.868 64.2212 33.1247 65.006 33.1247C65.5267 33.1247 65.7907 33.1247 66.5975 32.6113V32.868C65.7907 33.9241 65.006 34.1808 63.9645 34.1808C62.637 34.1808 61.8522 33.4107 61.8522 32.3546ZM67.3749 29.707C67.3749 26.8319 69.7439 24.9764 72.1202 24.9764C74.4598 24.9764 76.8361 26.8319 76.8361 29.707C76.8361 32.3546 74.4598 34.1808 72.1202 34.1808C69.7439 34.1808 67.3749 32.6113 67.3749 29.707ZM74.7458 29.707C74.7458 27.3453 73.6824 25.5118 71.8561 25.5118C70.2646 25.5118 69.4872 27.3453 69.4872 29.4502C69.4872 31.8192 70.2646 33.6674 72.1202 33.6674C73.9464 33.6674 74.7458 31.8192 74.7458 29.707ZM84.9844 28.1374C84.9844 26.8319 84.4637 26.0325 83.4222 26.0325C82.0947 26.0325 81.574 26.5679 81.0533 26.8319V29.9856V32.6113C81.0533 33.4107 81.3173 33.4107 81.8307 33.6674H82.6155V34.1808H77.6355V33.6674H78.4203C79.2051 33.4107 79.205 33.4107 79.205 32.6113V29.9856V27.624C79.205 26.5679 78.941 26.0325 78.1563 26.0325H77.6355V25.5118C78.941 25.5118 79.9825 25.233 81.0533 24.7196V26.2892C82.0947 25.5118 83.1362 24.9764 84.4637 24.9764C86.0259 24.9764 87.0967 26.0325 87.0967 27.624V29.9856V32.6113C87.0967 33.4107 87.0967 33.4107 87.8741 33.6674H88.4022V34.1808H83.6789V33.6674H84.207C84.9844 33.4107 84.9844 33.4107 84.9844 32.6113V29.9856V28.1374ZM89.1796 29.707C89.1796 27.3453 90.7711 24.9764 93.3968 24.9764C95.5091 24.9764 96.8146 26.5679 97.0713 28.6581H90.7712C90.7712 31.0418 91.8126 32.868 94.1816 32.868C95.5091 32.868 96.5505 32.3546 96.8146 32.0979L97.0713 32.3546C96.0298 33.4107 94.7023 34.1808 93.1401 34.1808C90.7711 34.1808 89.1796 32.0979 89.1796 29.707ZM91.0279 28.1374H95.2524C95.2524 26.8319 94.4456 25.5118 93.1401 25.5118C91.8126 25.5118 91.0279 26.8319 91.0279 28.1374Z" fill="white"/>
</svg>
