<svg width="160" height="32" viewBox="0 0 160 32" fill="none" xmlns="http://www.w3.org/2000/svg">
<path d="M68.6569 16.6154C68.6464 15.6896 68.8163 14.7708 69.1568 13.9124C69.4973 13.0539 70.0017 12.2728 70.6407 11.6143C71.2796 10.9558 72.0406 10.4331 72.8793 10.0763C73.7181 9.71946 74.618 9.53574 75.5269 9.53574C76.4359 9.53574 77.3358 9.71946 78.1746 10.0763C79.0133 10.4331 79.7742 10.9558 80.4132 11.6143C81.0522 12.2728 81.5565 13.0539 81.8971 13.9124C82.2376 14.7708 82.4075 15.6896 82.3969 16.6154C82.4075 17.5412 82.2376 18.4599 81.8971 19.3184C81.5565 20.1769 81.0522 20.9579 80.4132 21.6164C79.7742 22.2749 79.0133 22.7977 78.1746 23.1545C77.3358 23.5113 76.4359 23.695 75.5269 23.695C74.618 23.695 73.7181 23.5113 72.8793 23.1545C72.0406 22.7977 71.2796 22.2749 70.6407 21.6164C70.0017 20.9579 69.4973 20.1769 69.1568 19.3184C68.8163 18.4599 68.6464 17.5412 68.6569 16.6154ZM72.5748 16.6154C72.5535 17.0237 72.6141 17.4322 72.7528 17.8159C72.8915 18.1996 73.1055 18.5506 73.3818 18.8473C73.658 19.144 73.9907 19.3803 74.3595 19.5418C74.7283 19.7033 75.1255 19.7866 75.5269 19.7866C75.9284 19.7866 76.3256 19.7033 76.6944 19.5418C77.0632 19.3803 77.3959 19.144 77.6721 18.8473C77.9483 18.5506 78.1623 18.1996 78.301 17.8159C78.4398 17.4322 78.5003 17.0237 78.479 16.6154C78.5003 16.207 78.4398 15.7986 78.301 15.4148C78.1623 15.0311 77.9483 14.6802 77.6721 14.3835C77.3959 14.0868 77.0632 13.8505 76.6944 13.689C76.3256 13.5275 75.9284 13.4442 75.5269 13.4442C75.1255 13.4442 74.7283 13.5275 74.3595 13.689C73.9907 13.8505 73.658 14.0868 73.3818 14.3835C73.1055 14.6802 72.8915 15.0311 72.7528 15.4148C72.6141 15.7986 72.5535 16.207 72.5748 16.6154ZM150.242 23.4533V13.3917H147.097V9.77743H156.974V13.3917H153.917V23.4533H150.242ZM145.072 23.4533L144.577 21.8236H140.75L140.254 23.4533H136.428L140.879 9.77743H144.485L148.918 23.4543L145.072 23.4533ZM141.799 18.3754H143.528L142.681 15.5443L141.799 18.3754ZM127.156 23.4533V9.77743H135.123V13.3738H130.986V14.779H135.123V18.3763H130.986V19.8749H135.123V23.4524L127.156 23.4533ZM121.93 23.4533V16.0718L119.207 19.8183L116.393 15.9784V23.4533H112.55V9.77743H116.431L119.21 13.7107L122.095 9.77743H125.778V23.4533H121.93ZM96.1749 23.4533V9.77743H100.553C101.45 9.75344 102.342 9.91258 103.177 10.2455C104.012 10.5783 104.773 11.0782 105.416 11.7156C106.058 12.353 106.569 13.1149 106.917 13.9566C107.266 14.7982 107.445 15.7024 107.445 16.6159C107.445 17.5293 107.266 18.4335 106.917 19.2751C106.569 20.1168 106.058 20.8787 105.416 21.5161C104.773 22.1535 104.012 22.6534 103.177 22.9863C102.342 23.3191 101.45 23.4783 100.553 23.4543L96.1749 23.4533ZM100.003 19.7805H100.559C100.961 19.7834 101.36 19.7024 101.73 19.5424C102.101 19.3825 102.435 19.1469 102.713 18.8503C102.991 18.5537 103.206 18.2023 103.345 17.8178C103.485 17.4332 103.545 17.0237 103.523 16.6144C103.54 16.2063 103.477 15.7988 103.335 15.4164C103.194 15.034 102.979 14.6845 102.702 14.3888C102.425 14.0932 102.093 13.8574 101.725 13.6956C101.356 13.5339 100.96 13.4495 100.559 13.4474H100.003V19.7805ZM91.4297 23.4533L87.1458 16.5786V23.4543H83.3187V9.77743H87.2552L91.2462 16.1662V9.77743H95.0724V23.4533H91.4297ZM62.1256 23.4533V17.1589L58.0242 9.77743H62.1441L64.0581 13.3181L65.9517 9.77743H70.0355L65.9879 17.1203V23.4543L62.1256 23.4533ZM49.413 23.4533V9.77743H57.3804V13.3738H53.2383V14.779H57.3776V18.3763H53.2383V19.8749H57.3776V23.4524L49.413 23.4533ZM38.23 23.4533V9.77743H43.1234C46.617 9.77743 48.1799 11.0505 48.1799 13.7107C48.2088 14.2134 48.1187 14.7158 47.9171 15.1757C47.7156 15.6355 47.4086 16.0393 47.0219 16.353C47.5033 16.641 47.8962 17.0602 48.1563 17.5634C48.4164 18.0666 48.5334 18.6338 48.494 19.2011C48.494 22.1992 46.4901 23.4543 43.028 23.4543L38.23 23.4533ZM41.9079 20.0806H43.1596C44.1703 20.0806 44.5214 19.7437 44.5214 19.1058C44.5214 18.4886 44.1897 18.264 43.2513 18.264H41.9079V20.0806ZM41.9079 14.8158H43.3995C44.098 14.8158 44.4102 14.4383 44.4102 13.9363C44.4102 13.4342 44.0795 13.1313 43.3634 13.1313H41.9079V14.8158ZM157.973 10.7787C157.973 10.5746 158.033 10.3751 158.144 10.2055C158.255 10.0358 158.414 9.90366 158.599 9.82564C158.784 9.74761 158.988 9.72725 159.184 9.76711C159.381 9.80698 159.561 9.90529 159.703 10.0496C159.845 10.1939 159.941 10.3778 159.98 10.578C160.02 10.7782 160 10.9857 159.923 11.1743C159.846 11.3629 159.717 11.5241 159.55 11.6376C159.384 11.7511 159.188 11.8118 158.987 11.812C158.854 11.8123 158.722 11.7857 158.599 11.7339C158.476 11.682 158.364 11.6059 158.269 11.5099C158.175 11.4139 158.1 11.2999 158.05 11.1744C157.999 11.0489 157.973 10.9144 157.973 10.7787ZM158.176 10.7787C158.176 10.9977 158.261 11.2077 158.413 11.3626C158.565 11.5174 158.771 11.6044 158.986 11.6044C159.201 11.6044 159.408 11.5174 159.56 11.3626C159.712 11.2077 159.797 10.9977 159.797 10.7787C159.797 10.5597 159.712 10.3497 159.56 10.1948C159.408 10.0399 159.201 9.95295 158.986 9.95295C158.771 9.95295 158.565 10.0399 158.413 10.1948C158.261 10.3497 158.176 10.5597 158.176 10.7787ZM159.18 11.2713L158.894 10.7881H158.986C159.014 10.7909 159.042 10.7877 159.068 10.779C159.095 10.7702 159.119 10.756 159.14 10.7372C159.16 10.7184 159.177 10.6955 159.189 10.6698C159.2 10.6441 159.206 10.6163 159.207 10.5881C159.207 10.4644 159.109 10.4154 158.989 10.4154H158.819V11.2713H158.623V10.2417H159.015C159.063 10.2363 159.112 10.2408 159.158 10.2551C159.204 10.2693 159.247 10.2931 159.284 10.3248C159.321 10.3564 159.351 10.3955 159.373 10.4394C159.394 10.4834 159.407 10.5314 159.41 10.5805C159.414 10.6547 159.395 10.7283 159.354 10.7897C159.312 10.8511 159.252 10.8967 159.183 10.9193L159.406 11.2722L159.18 11.2713Z" fill="black"/>
<path d="M25.9791 16.1763L25.9247 16.1813C25.7724 16.1954 25.619 16.2061 25.4652 16.2131C25.4574 16.2135 25.4495 16.2138 25.4413 16.2142C25.3732 16.217 25.3051 16.2195 25.2372 16.2212C25.1596 16.2229 25.0817 16.2239 25.0029 16.2239C25.0002 16.2239 24.9975 16.2237 24.9948 16.2237C24.9068 16.2237 24.818 16.222 24.7286 16.2192C24.7105 16.2187 24.6926 16.2175 24.6745 16.2168C24.5963 16.2138 24.518 16.21 24.4394 16.2049C24.4265 16.2041 24.4136 16.2029 24.4005 16.2021C24.2119 16.1888 24.0218 16.1699 23.8314 16.1444L23.8133 16.1419L23.798 16.1409C22.8307 16.0095 21.9251 15.7355 21.0577 15.4175C21.0544 15.4162 21.051 15.4148 21.0477 15.4135C20.9382 15.3702 20.8289 15.3258 20.7186 15.2809C20.4871 15.1857 20.256 15.0886 20.025 14.9917C19.2317 14.6583 18.4113 14.3136 17.5679 14.0479C16.9333 13.8477 16.2836 13.7411 15.6366 13.7285C15.6202 13.728 15.6036 13.728 15.587 13.7273C15.5816 13.7273 15.5763 13.7268 15.5709 13.7268H15.566C15.2562 13.7176 14.9444 13.7339 14.6293 13.7816C14.2692 13.8267 13.9047 13.9008 13.5381 14.0029C13.6472 13.8651 13.755 13.7257 13.8601 13.5845C14.0594 13.3176 14.2157 12.98 14.3376 12.5527C14.3808 12.4018 14.4811 12.0504 14.358 11.7025C14.3815 11.6812 14.4044 11.6594 14.4281 11.6383C14.6276 11.5099 14.8063 11.3624 14.9642 11.1949C15.5607 10.7391 16.2145 10.3582 16.9149 10.0682C17.9925 9.62241 19.2941 9.33406 20.7655 9.48226C24.6719 9.87605 26.1776 10.7054 28.9318 7.65997C26.1581 3.25799 21.2549 0.332603 15.6675 0.332603C9.39961 0.332603 3.99226 4.01372 1.48717 9.33154C2.17803 9.9991 3.56595 10.6618 6.27272 10.0538C6.81237 9.76172 7.42963 9.59558 8.08629 9.59558C8.74211 9.59558 9.35938 9.76088 9.89902 10.0538C14.5835 11.1061 15.3231 8.35368 15.3231 8.35368C15.3231 10.3014 14.5459 11.16 13.3677 11.5178C13.4688 11.5572 13.5531 11.5974 13.6215 11.6415C13.8728 11.8021 13.9171 12.0118 13.8056 12.4008C13.7205 12.699 13.6001 13.0083 13.4169 13.2537C12.9692 13.8544 12.475 14.421 11.9991 15.0009C11.9967 15.0054 11.9942 15.0031 11.9957 15.0165C12.0058 15.1134 12.0881 15.1617 12.1765 15.1204C12.2023 15.1084 12.2278 15.0961 12.2531 15.0839C13.0544 14.6965 13.872 14.4341 14.703 14.3303C14.9882 14.2943 15.2754 14.2772 15.5645 14.2806C16.1701 14.2861 16.7831 14.381 17.4017 14.5761C18.4602 14.9096 19.4795 15.3704 20.5083 15.7932C20.6205 15.8388 20.7325 15.8846 20.8446 15.9287C21.785 16.3045 22.7405 16.6249 23.7583 16.6933C24.1623 16.7473 24.5767 16.7778 25.003 16.7778C25.338 16.7778 25.7325 16.7618 26.0458 16.7327C26.0493 17.4435 26.0485 18.1541 26.0458 18.8631V25.8538C26.0617 26.2649 25.7276 26.6072 25.3117 26.5968C24.9346 26.5878 24.6351 26.2724 24.6143 25.8961L24.5672 25.0525C24.3851 23.6839 24.0094 22.3851 23.391 21.0643C23.1585 21.8012 22.9328 22.5165 22.7107 23.223C22.4879 23.9288 22.2686 24.6248 22.0493 25.3217L21.8044 26.1457C21.7005 26.4946 21.3186 26.7019 20.9449 26.5561C20.6869 26.4545 20.5325 26.1879 20.5548 25.9118C20.5548 25.9118 20.9781 22.4259 20.7809 20.5881C18.9965 21.7189 17.0542 22.1601 14.9764 22.1947C14.9225 23.4486 14.8698 24.5982 14.8152 25.8652V25.9435C14.8152 26.3314 14.4837 26.6394 14.0921 26.6047C13.7773 26.5765 13.5317 26.3177 13.491 26.005L13.3372 24.9051C13.205 24.0569 13.0744 23.2161 12.9436 22.3767H12.8542C12.7401 23.1913 12.6259 24.0071 12.5091 24.8379L12.3706 25.9784C12.3243 26.361 11.9659 26.6344 11.5743 26.5636C11.2573 26.5068 11.0304 26.2233 11.0182 25.9014L10.9641 24.5668C10.9203 23.6597 10.8767 22.7658 10.8276 21.8725C10.8221 21.7776 10.7418 21.6837 10.6844 21.5964C10.6816 21.5922 10.6789 21.5878 10.676 21.5836C10.1433 20.7776 9.73289 19.8971 9.45644 18.9714C9.25577 18.2993 9.02476 17.5219 8.87153 16.9959C9.38284 16.7979 9.8618 16.416 9.92819 16.3054C9.99525 16.1944 9.8603 16.0733 9.72819 16.1523C9.57731 16.2472 9.16072 16.4172 8.96357 16.4339C8.49383 16.474 8.0184 16.4581 7.54581 16.452C6.96744 16.4443 6.60549 16.07 6.58471 15.4914C6.57649 15.252 6.59376 14.9932 6.50994 14.7781C6.16409 13.8911 5.91715 12.9853 5.90038 12.0284C5.89703 11.8422 5.83752 11.7614 5.70676 11.7364C5.34616 11.7488 4.99259 11.7565 4.65228 11.7515C3.05162 11.7278 1.7222 11.4309 1.15054 10.099C0.409388 11.9205 0 13.9124 0 16.0001C0 24.6528 7.01454 31.6674 15.6675 31.6674C24.3202 31.6674 31.3348 24.6528 31.3348 16.0001C31.3348 15.309 31.2897 14.6287 31.2028 13.9614C30.0639 14.9141 28.3261 15.9456 25.9791 16.1763Z" fill="#6BC746"/>
</svg>
