<svg width="179" height="179" viewBox="0 0 179 179" fill="none" xmlns="http://www.w3.org/2000/svg">
<g clip-path="url(#clip0_758_480)">
<path d="M179 0H0V179H179V0Z" fill="#1A4E8A"/>
<path d="M43.5651 96.1887L30.2842 109.47V149.312H70.127L83.4079 136.032H43.5651V96.1887ZM136.532 136.032H96.6889L109.97 149.312H149.813V109.47L136.532 96.1887V136.032ZM109.97 29.7841L96.6889 43.065H136.532V82.9078L149.813 69.6269V29.7841H109.97ZM43.5651 43.065H83.4079L70.127 29.7841H30.2842V69.6269L43.5651 82.9078V43.065ZM56.3078 75.7291L67.0797 86.5009C68.4441 76.1385 76.6386 67.944 87.0011 66.5795L76.2292 55.8077C67.2085 59.507 60.0071 66.7084 56.3078 75.7291ZM123.789 103.367L113.017 92.5956C111.653 102.958 103.458 111.153 93.0957 112.517L103.868 123.289C112.888 119.59 120.09 112.388 123.789 103.367ZM67.0721 92.6032L56.3003 103.375C59.9995 112.396 67.2009 119.597 76.2217 123.296L86.9935 112.525C76.631 111.16 68.4365 102.966 67.0721 92.6032ZM123.789 75.7291C120.09 66.7084 112.888 59.507 103.868 55.8077L93.0957 66.5795C103.458 67.944 111.653 76.1385 113.017 86.5009L123.789 75.7291Z" fill="white"/>
</g>
<defs>
<clipPath id="clip0_758_480">
<rect width="179" height="179" fill="white"/>
</clipPath>
</defs>
</svg>
