<svg width="56" height="36" viewBox="0 0 56 36" fill="none" xmlns="http://www.w3.org/2000/svg">
    <path d="M17.0235 29.028L16.9208 29.1274C15.3089 30.7698 13.4436 31.6375 11.5222 31.6375C7.50932 31.6375 4.5983 28.627 4.5983 24.4746C4.5983 20.3286 7.50932 17.3133 11.5222 17.3133C13.4436 17.3133 15.3089 18.1858 16.9208 19.8346L17.0235 19.9324L19.6041 16.8113L19.5351 16.7279C17.3892 14.1922 14.8134 12.9588 11.6473 12.9588C8.47325 12.9588 5.56704 14.0286 3.47559 15.9548C1.19809 18.0431 0 20.9878 0 24.4746C0 27.9614 1.19809 30.9125 3.47559 33.0008C5.56704 34.9382 8.47325 36 11.6473 36C14.8134 36 17.3892 34.765 19.5351 32.2277L19.6041 32.1507L17.0235 29.028Z" fill="#004685"/>
    <path d="M22.2106 35.5742H26.7687V13.3189H22.2106V35.5742Z" fill="#004685"/>
    <path d="M44.6271 30.7362C43.4097 31.4772 42.279 31.8509 41.2621 31.8509C39.7882 31.8509 39.121 31.0714 39.121 29.3393V17.5299H43.7674V13.3406H39.121V6.41513L34.6542 8.8081V13.3406H30.7985V17.5299H34.6542V30.0915C34.6542 33.5125 36.6815 35.8542 39.7096 35.9151C41.7641 35.9552 43.0023 35.3425 43.7529 34.8935L43.8011 34.863L44.8965 30.571L44.6271 30.7362Z" fill="#004685"/>
    <path d="M48.4001 35.5742H52.9648V13.3189H48.4001V35.5742Z" fill="#004685"/>
    <path d="M55.6235 9.41782C51.4583 3.51878 44.5424 -0.000119209 37.5062 -0.000119209C30.4716 -0.000119209 23.5541 3.51878 19.3969 9.41782L19.1819 9.72095H24.4266L24.4843 9.6584C28.053 5.9727 32.7138 4.0256 37.5062 4.0256C42.2985 4.0256 46.9562 5.9727 50.5328 9.6584L50.5906 9.72095H55.832L55.6235 9.41782Z" fill="#EE1C25"/>
</svg>
