<?xml version="1.0" encoding="UTF-8"?>
<svg width="512px" height="512px" viewBox="0 0 512 512" version="1.1" xmlns="http://www.w3.org/2000/svg" xmlns:xlink="http://www.w3.org/1999/xlink">
    <!-- Generator: Sketch 48.1 (47250) - http://www.bohemiancoding.com/sketch -->
    <title>CAC</title>
    <desc>Created with Sketch.</desc>
    <defs></defs>
    <g id="Компании-BIG" stroke="none" stroke-width="1" fill="none" fill-rule="evenodd">
        <g id="CAC" fill-rule="nonzero">
            <g id="Group-4" transform="translate(42.000000, 0.000000)">
                <g id="euronext-1">
                    <polygon id="Shape" fill="#A1DAF8" points="0 171.636364 46.5454545 171.636364 46.5454545 305.454545 3.70685212e-14 305.454545"></polygon>
                    <polygon id="Shape" fill="#41C0F0" points="0 305.454545 46.5454545 305.454545 46.5454545 410.181818 3.70685212e-14 410.181818"></polygon>
                    <polygon id="Shape" fill="#5BC5F2" points="46.5454545 72.7272727 93.0909091 72.7272727 93.0909091 221.090909 46.5454545 221.090909"></polygon>
                    <polygon id="Shape" fill="#009FE3" points="46.5454545 218.181818 93.0909091 218.181818 93.0909091 386.909091 46.5454545 386.909091"></polygon>
                    <polygon id="Shape" fill="#4BBBBD" points="93.0909091 96 139.636364 96 139.636364 256 93.0909091 256"></polygon>
                    <polygon id="Shape" fill="#00A2A5" points="93.0909091 256 139.636364 256 139.636364 442.181818 93.0909091 442.181818"></polygon>
                    <polygon id="Shape" fill="#97D2D0" points="142.545455 0 215.272727 0 215.272727 171.636364 142.545455 171.636364"></polygon>
                    <polygon id="Shape" fill="#00878A" points="142.545455 168.727273 215.272727 168.727273 215.272727 480 142.545455 480"></polygon>
                    <polygon id="Shape" fill="#009B3E" points="212.363636 84.3636364 258.909091 84.3636364 258.909091 305.454545 212.363636 305.454545"></polygon>
                    <polygon id="Shape" fill="#006262" points="212.363636 305.454545 258.909091 305.454545 258.909091 512 212.363636 512"></polygon>
                    <polygon id="Shape" fill="#88B822" points="261.818182 40.7272727 334.545455 40.7272727 334.545455 235.636364 261.818182 235.636364"></polygon>
                    <polygon id="Shape" fill="#00786C" points="261.818182 235.636364 334.545455 235.636364 334.545455 448 261.818182 448"></polygon>
                    <polygon id="Shape" fill="#B8D15D" points="331.636364 171.636364 378.181818 171.636364 378.181818 276.363636 331.636364 276.363636"></polygon>
                    <polygon id="Shape" fill="#00963C" points="331.636364 276.363636 378.181818 276.363636 378.181818 389.818182 331.636364 389.818182"></polygon>
                    <polygon id="Shape" fill="#CCE0A6" points="378.181818 139.636364 424.727273 139.636364 424.727273 235.636364 378.181818 235.636364"></polygon>
                    <polygon id="Shape" fill="#7CBB4B" points="378.181818 235.636364 424.727273 235.636364 424.727273 349.090909 378.181818 349.090909"></polygon>
                </g>
            </g>
        </g>
    </g>
</svg>