<svg width="122" height="40" viewBox="0 0 122 40" fill="none" xmlns="http://www.w3.org/2000/svg">
    <path d="M32.1102 13.988C32.6119 13.6367 33.129 13.3231 33.6632 12.9863C34.0598 13.3957 34.4342 13.7923 34.7864 14.218C34.2641 14.4975 33.7598 14.8146 33.2777 15.1052C32.9136 14.73 32.5221 14.3479 32.1102 13.988ZM30.0331 12.2837C30.5118 11.8905 31.0383 11.4982 31.6144 11.1109C32.0452 11.4793 32.4623 11.8383 32.8564 12.205C32.2982 12.5521 31.77 12.8923 31.2793 13.2649C30.8844 12.9205 30.4673 12.6128 30.0331 12.2837ZM67.997 8.25094L67.9004 8.17316C55.2082 8.68857 43.3006 12.6581 35.2933 17.5968C34.9573 17.078 34.5778 16.5891 34.1564 16.0796C41.3432 11.6435 51.3703 7.93981 59.9093 6.82265L59.7939 6.75854C50.654 7.67569 41.7133 10.4536 35.3548 13.8992C35.1001 13.447 34.7907 12.9863 34.4368 12.5427C39.9995 9.34075 47.159 6.76367 53.9944 5.5106L53.8961 5.44136C45.9179 6.64913 38.7037 8.87833 33.7214 11.7041C33.3607 11.3024 32.9666 10.9238 32.5341 10.5331C33.0555 10.2169 33.5974 9.91344 34.1667 9.61171C34.4137 9.86557 34.6556 10.1263 34.8847 10.3921L35.1659 10.1246C35.0086 9.85873 34.8394 9.60829 34.659 9.35528C38.7567 7.27567 43.8382 5.62086 47.7923 4.84475L47.6855 4.77807C43.6416 5.49692 38.2601 6.7235 34.1411 8.69285C30.7571 4.68063 23.8849 1.94115 13.8988 0L13.8116 0.0581231C22.8412 2.10611 29.4579 5.1781 33.5299 8.99287C32.9376 9.29545 32.3785 9.61513 31.8554 9.95532C27.0637 6.0149 18.5914 2.47964 7.41973 0.830821L7.32486 0.88467C17.1725 2.67367 25.4115 6.22774 30.9579 10.5844C30.4066 11.0041 29.9169 11.4349 29.504 11.9016C23.3464 7.53978 13.5928 3.86947 0.546659 2.18048L0.456055 2.24116C11.2456 3.96435 22.4839 7.76715 30.1117 14.1821C29.1066 15.0428 28.2937 15.9471 27.727 16.8686L28.0484 17.2071C28.8749 16.4027 29.8237 15.6181 30.875 14.8479C31.2725 15.1864 31.6571 15.5548 32.0332 15.9224C29.41 17.7208 27.5295 19.6619 26.6859 21.5313L27.0312 21.8167C28.4886 20.1312 30.5229 18.4584 32.9393 16.8557C33.3778 17.3395 33.7949 17.7994 34.1915 18.3011C29.2681 21.5441 26.02 25.1246 25.2935 28.4163L25.6756 28.6778C27.7509 25.1768 31.0819 22.115 35.0676 19.4303C35.6882 20.2996 36.2574 21.1876 36.76 22.1433L37.1096 21.9176C36.9293 20.8953 36.5617 19.8653 36.0215 18.8413C46.0384 12.488 59.6905 8.7561 67.997 8.25094Z" fill="#F04E44"/>
    <path d="M60.6537 31.5423H62.6547V39.8282H60.6537V31.5423ZM60.623 28.0292H62.6863V29.9764H60.623V28.0292ZM81.1918 27.7668H83.197V39.8282H81.1918V27.7668ZM85.3775 27.7668H86.3878V32.9227H90.8077V27.7668H91.8215V39.8291H90.8077V33.8065H86.3878V39.8291H85.3775V27.7668ZM98.4125 35.1228C98.4125 33.3424 97.6894 32.3013 96.5696 32.3013C95.3029 32.3013 94.7114 33.4954 94.7114 35.1228H98.4125ZM94.7114 36.0015C94.7114 39.0675 96.7218 39.1009 97.0902 39.1009C97.6312 39.1009 98.4091 38.835 98.8835 38.4171L98.9356 39.4701C98.539 39.6906 97.9928 39.9419 96.9927 39.9419C93.7353 39.9419 93.6336 36.5195 93.6336 35.6878C93.6336 32.8577 94.7054 31.4311 96.5551 31.4311C98.6031 31.4311 99.492 33.056 99.492 36.0015H94.7114ZM108.535 27.7668H109.516V39.8282H108.535V27.7668ZM113.064 29.6071V31.5397H114.763V32.3568H113.064V37.8196C113.064 38.4863 113.148 39.1188 114.021 39.1188C114.416 39.1188 114.609 39.0299 114.763 38.9846V39.8265C114.666 39.8761 114.406 39.9436 113.807 39.9436C112.376 39.9436 112.079 39.0051 112.079 38.0769V32.3577H110.829V31.5406H112.079V29.8832L113.064 29.6071ZM42.8791 35.7818H42.15C41.1995 35.7818 39.9764 36.0656 39.9764 37.3401C39.9764 38.0948 40.4721 38.6111 41.2508 38.6111C42.3176 38.6111 42.8791 37.7384 42.8791 36.6793V35.7818ZM38.9455 32.0372C39.5114 31.7765 40.2858 31.4226 41.4448 31.4226C43.9313 31.4226 44.751 32.6492 44.751 34.5476V38.3735C44.751 38.9692 44.816 39.5111 44.8596 39.8291H43.0586C42.9603 39.5111 42.9424 39.1137 42.9424 38.8906H42.9142C42.6466 39.1855 41.9329 39.965 40.6089 39.965C39.1481 39.965 38.107 39.0812 38.107 37.5375C38.107 35.2981 40.0884 34.7219 42.1124 34.7219H42.8791V34.4108C42.8791 33.592 42.4765 32.8406 41.332 32.8406C40.332 32.8406 39.4439 33.3193 39.0575 33.6432L38.9455 32.0372ZM77.3505 35.7818H76.6197C75.6675 35.7818 74.4563 36.0656 74.4563 37.3401C74.4563 38.0948 74.9521 38.6111 75.7205 38.6111C76.7958 38.6111 77.3514 37.7384 77.3514 36.6793L77.3505 35.7818ZM73.4178 32.0372C73.9768 31.7765 74.7614 31.4226 75.9171 31.4226C78.4087 31.4226 79.2113 32.6492 79.2113 34.5476V38.3735C79.2113 38.9692 79.2797 39.5111 79.3318 39.8291H77.5368C77.4368 39.5111 77.4197 39.1137 77.4197 38.8906H77.3864C77.1214 39.1855 76.4077 39.965 75.0863 39.965C73.6255 39.965 72.5758 39.0812 72.5758 37.5375C72.5758 35.2981 74.57 34.7219 76.5804 34.7219H77.3514V34.4108C77.3514 33.592 76.9505 32.8406 75.8017 32.8406C74.8059 32.8406 73.9178 33.3193 73.5332 33.6432L73.4178 32.0372ZM46.7204 32.9227C46.7204 32.4004 46.7007 31.9226 46.6529 31.5431H48.459C48.4726 32.0526 48.5154 32.1902 48.5154 32.6919H48.547C48.7043 32.3346 49.0898 31.4235 50.6676 31.4235C50.7941 31.4235 50.8924 31.4491 51.007 31.4679V33.3202C50.9215 33.3005 50.7147 33.2552 50.4403 33.2552C49.6206 33.2552 48.7171 33.7603 48.7171 35.3057V39.83H46.7204V32.9227ZM55.0525 38.5C56.2312 38.5 56.6364 37.2264 56.6364 35.6639C56.6364 34.0595 56.1782 32.8885 55.0867 32.8885C53.9696 32.8885 53.5806 33.9595 53.5806 35.616C53.5815 37.5375 53.8935 38.5 55.0525 38.5ZM58.6288 27.7668V38.4171C58.6288 39.0145 58.6468 39.5274 58.6981 39.8282H56.821C56.7911 39.5966 56.7603 39.1624 56.7603 38.7555H56.7142C56.5996 38.9863 56.074 39.9642 54.5012 39.9642C52.4353 39.9642 51.5822 37.9965 51.5822 35.6998C51.5822 32.9962 52.6011 31.4217 54.6602 31.4217C56.0004 31.4217 56.4766 32.2244 56.5979 32.3902H56.6364V27.7668H58.6288ZM37.03 39.5975C36.8164 39.6795 36.1838 40.0001 34.5948 40.0001C31.175 40.0001 29.4167 37.5025 29.4167 34.2176C29.4167 30.9337 31.175 28.4369 34.5307 28.4369C36.0009 28.4369 36.7736 28.7541 37.0318 28.8566L36.9215 30.726C36.7275 30.6055 36.1155 30.1439 34.788 30.1439C33.0828 30.1439 31.6143 31.314 31.6143 34.2176C31.6143 37.1332 33.0828 38.2931 34.788 38.2931C35.7889 38.2931 36.4514 38.0487 36.9172 37.7136L37.03 39.5975ZM64.6856 32.9227C64.6856 32.4004 64.6685 31.9226 64.6206 31.5431H66.4985C66.5131 31.8055 66.555 32.3868 66.555 32.5936H66.5849C66.7541 32.3389 67.2798 31.4235 68.7577 31.4235C70.4851 31.4235 71.2552 32.5252 71.2552 34.1501V39.83H69.2534V34.4681C69.2534 33.4484 68.65 33.0612 67.9696 33.0612C67.3054 33.0612 66.6866 33.427 66.6866 34.4681V39.83H64.6856V32.9227ZM116.121 27.7668H117.109V32.3013H117.126C117.359 32.0098 117.866 31.4337 119.128 31.4337C120.684 31.4337 121.544 32.7039 121.544 33.8595V39.8282H120.545V34.0852C120.545 32.9859 119.901 32.2432 118.849 32.2432C117.795 32.2432 117.109 32.9492 117.109 34.0852V39.8282H116.122V27.7668M104.58 35.6588C102.837 35.6588 101.771 36.1759 101.771 37.4777C101.771 38.3017 102.287 39.0701 103.384 39.0701C103.826 39.0701 105.367 38.8923 105.367 36.6332V35.6579L104.58 35.6588ZM105.367 34.1706C105.367 33.0287 104.958 32.3039 103.561 32.3039C102.441 32.3039 101.652 33.086 101.555 33.1697L101.406 32.1688C101.875 31.8765 102.563 31.4346 103.644 31.4346C105.96 31.4346 106.357 33.115 106.357 33.9886V37.9794C106.357 38.6017 106.403 39.2162 106.452 39.8291H105.496L105.445 38.829H105.412C105.199 39.1051 104.746 39.9428 103.166 39.9428C101.608 39.9428 100.731 38.9709 100.731 37.4982C100.731 35.3878 102.526 34.8433 104.66 34.8433H105.366L105.367 34.1706Z" fill="black"/>
</svg>
