<?xml version="1.0" encoding="UTF-8"?>
<svg width="512px" height="512px" viewBox="0 0 512 512" version="1.1" xmlns="http://www.w3.org/2000/svg" xmlns:xlink="http://www.w3.org/1999/xlink">
    <!-- Generator: Sketch 48.1 (47250) - http://www.bohemiancoding.com/sketch -->
    <title>#CAT</title>
    <desc>Created with Sketch.</desc>
    <defs></defs>
    <g id="Компании-BIG" stroke="none" stroke-width="1" fill="none" fill-rule="evenodd">
        <g id="#CAT" fill-rule="nonzero">
            <g id="cat" transform="translate(2.000000, 114.000000)">
                <path d="M146.590237,259.645292 C158.278324,249.868027 160.296707,237.734297 160.296707,226.892488 L160.296707,181.199795 L96.7588246,181.199795 L96.7588246,243.191375 C96.7588246,252.048791 89.5915043,259.242212 80.7765241,259.242212 C71.9409481,259.242212 65.3812024,252.059127 65.3812024,243.191375 L65.3812024,67.5726821 C65.3812024,58.7152657 71.9409481,51.53218 80.7765241,51.53218 C89.5812064,51.53218 96.7588246,58.7049303 96.7588246,67.5726821 L96.7588246,129.946671 L160.224622,129.946671 L160.224622,65.2472227 C160.214325,29.4971604 136.941129,0.0826830004 80.2307367,0 C22.0065568,0 0,29.5591726 0,65.3092349 L0,248.648453 C0,284.088454 28.0308132,310.908752 63.8674149,310.898417 L83.5569501,310.898417 L146.590237,259.645292 M397.116917,266.838713 L397.116917,65.3609118 L353.278867,65.3609118 L353.278867,6.0048529 L512,6.0048529 L512,65.3609118 L467.914801,65.3609118 L467.914801,310.55735 L449.121181,310.55735 L397.116917,266.838713" id="Shape" fill="#000000"></path>
                <polyline id="Shape" fill="#F6D33C" points="426.474041 310.89842 271.516003 181.453725 110.952596 310.89842 426.474041 310.89842"></polyline>
                <path d="M316.080786,5.77878104 L227.359974,5.77878104 L175.674944,238.578122 L271.916391,160.608934 L372.263755,245.020316 L316.080786,5.77878104 Z M254.749946,145.684173 L271.916391,57.6995488 L288.948724,145.684173 L254.749946,145.684173 Z" id="Shape" fill="#000000"></path>
            </g>
        </g>
    </g>
</svg>