<svg width="160" height="40" viewBox="0 0 160 40" fill="none" xmlns="http://www.w3.org/2000/svg">
    <path d="M35.666 18.4472V11.5106H32.4658V28.4804H35.666V21.4265H52.7575V28.4804H55.9577V11.5106H52.7575V18.4427L35.666 18.4472ZM23.1313 14.5439V11.5151H4.3405C1.45585 11.5151 0 12.9934 0 15.3913V24.6041C0 27.002 1.45585 28.4804 4.3405 28.4804H23.1313V25.4515H3.27226V14.5439H23.1313Z" fill="black"/>
    <path d="M87.0443 11.5106V25.4515H70.1916V11.5106H66.9915V24.5816C66.9915 26.9795 68.4428 28.4579 71.3319 28.4579H85.9039C88.7886 28.4579 90.2444 26.9795 90.2444 24.5816V11.5106H87.0443Z" fill="black"/>
    <path d="M122.296 25.6003H104.474V21.3499H122.296V25.6003ZM104.474 14.3952H122.296V18.5149H104.474V14.3952ZM120.961 28.4804C124.116 28.4804 125.568 27.1733 125.568 24.9197V22.932C125.578 22.6738 125.52 22.4174 125.401 22.1882C125.281 21.959 125.104 21.7649 124.887 21.6249L122.85 19.8761L124.887 18.1317C125.104 17.9918 125.281 17.7976 125.401 17.5684C125.52 17.3392 125.578 17.0829 125.568 16.8246V15.0758C125.568 12.8222 124.112 11.5151 120.961 11.5151H101.274V28.4849L120.961 28.4804Z" fill="black"/>
    <path d="M156.726 25.6003H138.904V21.3499H156.726V25.6003ZM138.904 14.3997H156.726V18.5194H138.904V14.3997ZM155.392 28.4849C158.547 28.4849 159.998 27.1778 159.998 24.9242V22.9365C160.008 22.6788 159.951 22.4229 159.833 22.1938C159.714 21.9647 159.538 21.7702 159.322 21.6294L157.285 19.8806L159.322 18.1363C159.539 17.9957 159.715 17.8013 159.833 17.5722C159.952 17.343 160.009 17.0869 159.998 16.8291V15.0803C159.998 12.8267 158.547 11.5196 155.392 11.5196H135.704V28.4894L155.392 28.4849Z" fill="black"/>
</svg>
