<svg width="118" height="40" viewBox="0 0 118 40" fill="none" xmlns="http://www.w3.org/2000/svg">
<g clip-path="url(#clip0_112_4106)">
<path d="M54.2587 35.5625C54.1899 35.5663 54.1174 35.5662 54.0437 35.5662C49.7712 35.5662 47.1199 32.1038 47.1199 26.5238C47.1199 20.9425 49.7949 17.48 54.0974 17.48C54.2537 17.48 54.4049 17.485 54.5562 17.495C58.5599 17.7338 61.0262 21.1475 61.0262 26.5238C61.0262 32.0063 58.4387 35.4487 54.2587 35.5612M54.6249 13.2913C54.6249 13.2913 54.4199 13.2813 54.3174 13.2863C54.2249 13.2813 54.1362 13.2813 54.0437 13.2813C51.1237 13.2813 48.5512 14.0913 46.5049 15.65V3.6575H41.6274V39.2775H45.8799L46.1874 37.27C48.2437 38.9313 50.9437 39.7663 54.0974 39.7663H54.1899C57.7787 39.7463 60.8262 38.5063 63.0187 36.1763C65.2399 33.8088 66.4212 30.4688 66.4212 26.5238C66.4212 18.6863 61.8124 13.555 54.6249 13.2913ZM80.0787 35.5662C75.8112 35.5662 73.1549 32.1038 73.1549 26.5238C73.1549 20.9425 75.8299 17.48 80.1324 17.48C84.4049 17.48 87.0612 20.9425 87.0612 26.5238C87.0612 32.105 84.3862 35.5662 80.0787 35.5662ZM80.0787 13.2813C76.4612 13.2813 73.3749 14.5263 71.1624 16.89C68.9374 19.2625 67.7599 22.5975 67.7599 26.5238C67.7599 34.57 71.6762 39.765 80.1324 39.765C83.7612 39.765 86.8412 38.525 89.0487 36.1775C91.2799 33.8087 92.4524 30.4688 92.4524 26.5238C92.4524 18.4763 87.5987 13.2813 80.0787 13.2813ZM105.665 17.2075C101.236 17.2075 99.2874 20.8637 99.0249 23.955H111.784C111.784 20.5025 110.04 17.2075 105.665 17.2075ZM99.0249 27.7588C99.0787 32.8763 101.705 35.5713 106.437 35.5713C111.109 35.5713 113.839 32.9888 114.117 32.715L116.241 36.1525C116.241 36.1525 112.881 39.7275 105.841 39.7275C98.7999 39.7275 93.7949 34.8825 93.7949 26.5775C93.7949 18.2175 99.0199 13.32 105.841 13.32C112.662 13.32 116.681 18.4375 116.681 25.6988L116.627 27.73L99.0249 27.7588Z" fill="#1D2953"/>
<path d="M32.3249 15.645L29.1274 12.4463L32.3249 9.2475L35.5237 12.4463L32.3249 15.645ZM32.3299 6.40125L29.1312 3.2025L32.3312 0.00500488L35.5287 3.2025L32.3299 6.40125ZM36.9499 11.025L33.7499 7.8275L35.5287 6.055L36.9487 4.63L40.1474 7.8275L36.9499 11.025Z" fill="#33B540"/>
<path d="M18.2338 34.8438C11.09 34.8438 6.44625 29.0963 6.44625 20.6788C6.44625 12.2613 11.3237 6.50876 18.4037 6.50876C23.6 6.50876 25.9087 9.14126 27.7112 11.0213L30.9038 7.81751C29.195 6.07376 25.7975 1.80626 18.2338 1.80626C8.88375 1.80626 0.875 8.83251 0.875 20.7375C0.875 32.6375 8.0725 39.7213 18 39.7213C25.3775 39.7213 29.3863 35.81 30.9575 33.8038L27.6425 30.4838C26.2025 32.1675 23.13 34.8438 18.2338 34.8438Z" fill="#1D2953"/>
</g>
<defs>
<clipPath id="clip0_112_4106">
<rect width="117.5" height="40" fill="white" transform="translate(0.25)"/>
</clipPath>
</defs>
</svg>
