<svg width="150" height="40" viewBox="0 0 150 40" fill="none" xmlns="http://www.w3.org/2000/svg">
    <path d="M66.1833 31.0207C66.4139 30.8023 66.6854 30.6315 66.9822 30.5182C67.2789 30.4049 67.5951 30.3514 67.9127 30.3606C68.2302 30.3698 68.5428 30.4417 68.8324 30.572C69.1221 30.7023 69.3832 30.8886 69.6007 31.1201C70.0406 31.5885 70.2771 32.212 70.2585 32.8543C70.2399 33.4965 69.9677 34.1053 69.5014 34.5474C65.8128 38.0548 60.9153 40.0074 55.8253 40C50.7838 40.0054 45.9295 38.0899 42.25 34.6432C41.7806 34.2042 41.5043 33.5971 41.4814 32.9548C41.4585 32.3124 41.691 31.6872 42.128 31.2159C42.3437 30.9827 42.6034 30.7946 42.8921 30.6622C43.1808 30.5298 43.4928 30.4558 43.8102 30.4444C44.1277 30.4331 44.4442 30.4846 44.7416 30.5961C45.039 30.7075 45.3115 30.8767 45.5433 31.0938C48.3304 33.7038 52.007 35.1542 55.8253 35.1499C59.6803 35.1546 63.3892 33.6765 66.1833 31.0207ZM55.5834 4.85081C47.4691 4.85081 40.8443 11.2173 40.5037 19.3429L40.4945 19.4813L40.2249 22.2026C39.6905 27.0672 37.3896 31.5667 33.7583 34.8476C30.1038 38.1576 25.3485 39.9894 20.4179 39.9865C17.7285 39.9865 15.1172 39.4593 12.6599 38.4162C10.2921 37.4108 8.14182 35.9558 6.32812 34.1316C4.50706 32.3091 3.05682 30.1506 2.05777 27.7758C1.01851 25.3131 0.485427 22.6665 0.490267 19.9936C0.490267 17.295 1.0175 14.6773 2.05777 12.2107C3.05682 9.83592 4.50706 7.67743 6.32812 5.85489C8.17469 3.99788 10.3704 2.52453 12.7888 1.51969C15.2072 0.514845 17.8005 -0.00162999 20.4193 3.86438e-06C25.6675 3.86438e-06 30.624 2.03087 34.37 5.71936C34.8281 6.17 35.0891 6.7838 35.0958 7.42641C35.1024 8.06903 34.8542 8.6881 34.4054 9.14813C34.1836 9.37581 33.9188 9.55735 33.6265 9.6823C33.3342 9.80726 33.02 9.87315 32.7021 9.87618C32.3842 9.87921 32.0689 9.81933 31.7742 9.69998C31.4795 9.58063 31.2114 9.40418 30.9852 9.18077C28.173 6.39904 24.3748 4.84229 20.4193 4.8501C12.0964 4.8501 5.32617 11.6431 5.32617 19.9929C5.32617 28.3434 12.0964 35.1364 20.4193 35.1364C28.1241 35.1364 34.5715 29.3546 35.418 21.6824L35.6778 19.069C35.9014 13.9552 38.0849 9.12376 41.7753 5.57673C45.5071 1.9812 50.4104 3.86438e-06 55.5841 3.86438e-06C60.8351 3.86438e-06 65.7888 2.03087 69.5376 5.71936C70.4892 6.65673 70.5679 8.22565 69.6327 9.18219C68.872 9.96132 67.6756 10.0933 66.7432 9.61007C66.5254 9.49798 66.3261 9.3532 66.1521 9.18077C63.3391 6.39892 59.5403 4.84219 55.5841 4.8501L55.5834 4.85081Z" fill="#5A6771"/>
    <path d="M86.1862 14.3949C86.1848 14.3935 86.1831 14.3923 86.1813 14.3916C86.1795 14.3908 86.1775 14.3904 86.1755 14.3904C86.1736 14.3904 86.1716 14.3908 86.1698 14.3916C86.1679 14.3923 86.1663 14.3935 86.1649 14.3949C85.0657 15.4274 84.0638 16.066 82.458 16.066C80.0318 16.066 78.2032 14.0876 78.2032 11.4628V11.4259C78.2032 8.85578 80.0723 6.84194 82.458 6.84194C83.7636 6.84194 84.877 7.34008 86.0719 8.45769C86.0755 8.46124 86.079 8.46337 86.0833 8.46337L86.0946 8.45769L87.555 6.76176C87.5564 6.76037 87.5575 6.75871 87.5583 6.75689C87.5591 6.75506 87.5595 6.7531 87.5595 6.75111C87.5595 6.74913 87.5591 6.74717 87.5583 6.74534C87.5575 6.74351 87.5564 6.74186 87.555 6.74047C86.509 5.73497 85.0884 4.70605 82.4771 4.70605C80.6045 4.70605 78.8937 5.4121 77.659 6.69293C76.4505 7.94395 75.7863 9.63775 75.7863 11.4628V11.5012C75.7863 13.3262 76.4548 15.02 77.6689 16.2675C78.8922 17.5271 80.5662 18.221 82.3856 18.221C83.5422 18.221 84.5357 18.0174 85.4191 17.5966C86.1904 17.229 86.8986 16.6926 87.6472 15.9063C87.6487 15.9049 87.6498 15.9033 87.6506 15.9015C87.6513 15.8996 87.6517 15.8977 87.6517 15.8957C87.6517 15.8937 87.6513 15.8917 87.6506 15.8899C87.6498 15.8881 87.6487 15.8864 87.6472 15.885L86.1862 14.3949ZM109.372 4.70605C107.477 4.70605 105.738 5.41565 104.478 6.7057C103.248 7.9631 102.571 9.65336 102.571 11.4643V11.5012C102.571 13.312 103.241 14.9945 104.458 16.2406C105.707 17.5171 107.441 18.2203 109.335 18.2203C111.232 18.2203 112.969 17.5107 114.231 16.2214C115.46 14.964 116.138 13.2737 116.138 11.4643V11.4259C116.138 9.61647 115.466 7.93259 114.248 6.68583C112.999 5.40927 111.267 4.70605 109.372 4.70605ZM104.988 11.4259C104.988 8.8132 106.857 6.84194 109.335 6.84194C111.795 6.84194 113.721 8.87281 113.721 11.4643V11.5012C113.721 14.104 111.85 16.0674 109.372 16.0674C106.872 16.0674 104.988 14.0869 104.988 11.4643V11.4259ZM149.494 4.92958C149.504 4.92958 149.51 4.93667 149.51 4.94519V17.9826C149.51 17.9868 149.508 17.9907 149.505 17.9937C149.502 17.9966 149.498 17.9982 149.494 17.9982H147.59C147.585 17.9982 147.58 17.9961 147.578 17.9925L140.469 8.7536V17.9826C140.469 17.9904 140.462 17.9982 140.452 17.9982H138.217C138.207 17.9982 138.2 17.9911 138.2 17.9826V4.9459C138.2 4.93809 138.207 4.93029 138.217 4.93029H140.324C140.328 4.93029 140.333 4.93242 140.336 4.93596L147.242 13.9131V4.9459C147.242 4.93809 147.248 4.93029 147.257 4.93029L149.494 4.92958ZM97.6696 13.0559C99.643 12.4754 100.729 11.069 100.729 9.09846V9.06014C100.729 7.94324 100.358 6.96683 99.6508 6.23807C98.7822 5.3823 97.4879 4.93029 95.9055 4.93029H90.1365C90.1273 4.93029 90.1216 4.93596 90.1216 4.9459V17.9812C90.1216 17.9911 90.1273 17.9975 90.1365 17.9975H92.4101C92.42 17.9975 92.4278 17.9911 92.4278 17.9819V13.454H95.2506L98.4253 17.9911C98.4289 17.9954 98.4324 17.9975 98.4388 17.9975H101.14C101.147 17.9975 101.155 17.9911 101.155 17.9819C101.155 17.9776 101.153 17.972 101.149 17.9706L97.6696 13.0559ZM92.4278 7.04701H95.7203C97.4156 7.04701 98.3856 7.82757 98.3856 9.19071V9.22973C98.3856 10.5425 97.3467 11.3926 95.7395 11.3926H92.4278V7.04701ZM136.116 4.92958C136.122 4.92958 136.126 4.93171 136.13 4.93525C136.132 4.94093 136.133 4.94519 136.132 4.95087L131.638 18.0812C131.636 18.0869 131.631 18.0905 131.622 18.0905H129.645C129.638 18.0905 129.632 18.0869 129.63 18.0812L126.465 8.75572L123.3 18.0812C123.298 18.0869 123.29 18.0905 123.285 18.0905H121.324C121.318 18.0905 121.313 18.0869 121.308 18.0812L116.798 4.95087C116.796 4.94519 116.796 4.94093 116.8 4.93525C116.801 4.93337 116.803 4.93188 116.806 4.93089C116.808 4.92991 116.811 4.92946 116.813 4.92958H119.272C119.278 4.92958 119.285 4.93313 119.287 4.94093L122.36 14.5602L125.526 4.90261C125.528 4.89694 125.533 4.89268 125.541 4.89268H127.463C127.469 4.89268 127.476 4.89694 127.478 4.90261L130.643 14.5602L133.717 4.94093C133.719 4.93384 133.724 4.92958 133.73 4.92958H136.116ZM96.5917 22.5673C96.5896 22.5616 96.5846 22.5574 96.5761 22.5574H94.4473C94.4444 22.5575 94.4417 22.5586 94.4394 22.5604C94.4371 22.5621 94.4354 22.5646 94.4345 22.5673L88.6811 35.8297C88.6791 35.8347 88.6791 35.8403 88.6811 35.8453C88.6847 35.8517 88.6882 35.8531 88.6946 35.8531H91.0483C91.054 35.8531 91.0611 35.8496 91.0632 35.8439L92.4037 32.6734H98.5658L99.8885 35.8439C99.8895 35.8466 99.8914 35.849 99.8938 35.8506C99.8962 35.8523 99.8991 35.8531 99.902 35.8531H102.332C102.339 35.8531 102.347 35.846 102.347 35.8382C102.347 35.8339 102.345 35.8304 102.343 35.8261L96.5917 22.5673ZM97.7122 30.5907H93.2566L95.4748 25.3802L97.7122 30.5907ZM112.548 29.5512C113.263 30.1699 113.61 30.9888 113.61 32.056V32.0929C113.61 34.4921 111.77 36.0419 108.924 36.0419C106.885 36.0419 104.995 35.311 103.46 33.9308C103.453 33.9251 103.453 33.9152 103.458 33.9081L104.84 32.2526C104.842 32.2484 104.846 32.2469 104.852 32.2469C104.856 32.2469 104.859 32.2484 104.863 32.2505C106.217 33.4327 107.488 33.9599 108.979 33.9599C110.356 33.9599 111.281 33.3 111.281 32.3193V32.281C111.281 31.3912 110.84 30.8639 108.341 30.2835C106.74 29.8953 105.776 29.5008 105.115 28.9707C104.338 28.347 103.978 27.509 103.978 26.336V26.2998C103.978 25.2056 104.426 24.2228 105.241 23.531C106.051 22.8426 107.192 22.4637 108.458 22.4637C110.275 22.4637 111.831 23.0058 113.211 24.1228C113.217 24.1291 113.218 24.1384 113.215 24.144L111.981 25.8939C111.981 25.8956 111.979 25.897 111.978 25.898C111.976 25.899 111.974 25.8996 111.972 25.8996C111.967 25.9017 111.963 25.8996 111.959 25.8975C110.749 24.9885 109.592 24.5464 108.42 24.5464C107.782 24.5464 107.242 24.7039 106.86 24.9998C106.503 25.2766 106.307 25.6654 106.307 26.0919V26.1288C106.307 27.1591 106.975 27.6012 109.412 28.1838C110.894 28.5471 111.89 28.9821 112.548 29.5512ZM125.697 22.6518C125.707 22.6518 125.713 22.6596 125.713 22.6674V24.8132C125.713 24.8203 125.707 24.8288 125.697 24.8288H121.567V35.8382C121.567 35.8453 121.56 35.8538 121.551 35.8538H119.236C119.226 35.8538 119.219 35.846 119.219 35.8382V24.8288H115.087C115.08 24.8288 115.072 24.821 115.072 24.8132V22.6674C115.072 22.6603 115.08 22.6518 115.087 22.6518H125.697ZM149.476 33.752C149.485 33.752 149.49 33.7591 149.49 33.7669V35.8382C149.49 35.8453 149.485 35.8531 149.476 35.8531H139.688C139.686 35.8532 139.684 35.8529 139.682 35.8522C139.681 35.8515 139.679 35.8504 139.677 35.849C139.676 35.8476 139.675 35.8459 139.674 35.8441C139.673 35.8422 139.673 35.8402 139.673 35.8382V22.6674C139.673 22.6596 139.678 22.6518 139.688 22.6518H149.381C149.391 22.6518 149.397 22.6589 149.397 22.6674V24.738C149.397 24.7451 149.391 24.7536 149.382 24.7536H142V28.1455H148.542C148.549 28.1455 148.557 28.1526 148.557 28.1604V30.231C148.557 30.2388 148.55 30.2466 148.542 30.2466H142V33.752H149.476ZM137.297 33.7144C137.307 33.7144 137.313 33.7215 137.313 33.73V35.8375C137.313 35.8467 137.307 35.8524 137.297 35.8524H128.125C128.123 35.8525 128.121 35.8522 128.119 35.8514C128.117 35.8507 128.115 35.8495 128.114 35.848C128.112 35.8466 128.111 35.8448 128.11 35.8429C128.109 35.8409 128.109 35.8389 128.109 35.8368V22.6681C128.109 22.6589 128.117 22.6511 128.125 22.6511H130.423C130.432 22.6511 130.439 22.6581 130.439 22.6681V33.7144H137.297ZM86.2898 32.2136C86.2884 32.2122 86.2867 32.211 86.2849 32.2103C86.2831 32.2095 86.2811 32.2091 86.2791 32.2091C86.2772 32.2091 86.2752 32.2095 86.2734 32.2103C86.2715 32.211 86.2699 32.2122 86.2685 32.2136C85.158 33.256 84.1468 33.9024 82.524 33.9024C80.0744 33.9024 78.2245 31.9042 78.2245 29.2524V29.2141C78.2245 26.6184 80.1149 24.584 82.524 24.584C83.8431 24.584 84.9671 25.0878 86.1755 26.2161C86.1777 26.2189 86.1812 26.2203 86.1869 26.2203C86.1904 26.2203 86.194 26.2189 86.1982 26.2146L87.6742 24.5038C87.6778 24.496 87.6778 24.4861 87.6721 24.4804C86.6162 23.4657 85.1814 22.4268 82.5424 22.4268C80.6527 22.4268 78.9235 23.1385 77.6746 24.4321C76.4569 25.6974 75.7849 27.4089 75.7849 29.2524V29.2893C75.7849 31.135 76.459 32.8444 77.6845 34.1054C78.9213 35.3784 80.613 36.078 82.4494 36.078C83.6196 36.078 84.6215 35.8723 85.5149 35.4479C86.294 35.0768 87.01 34.5347 87.7657 33.7406C87.7672 33.7392 87.7683 33.7376 87.7691 33.7358C87.7698 33.7339 87.7702 33.732 87.7702 33.73C87.7702 33.728 87.7698 33.726 87.7691 33.7242C87.7683 33.7224 87.7672 33.7207 87.7657 33.7193L86.2898 32.2136Z" fill="#481776"/>
</svg>
