<svg width="160" height="32" viewBox="0 0 160 32" fill="none" xmlns="http://www.w3.org/2000/svg">
<g clip-path="url(#clip0_112_4130)">
<path d="M21.9177 4.23677H34.1576V0.868683H21.9177V4.23677Z" fill="#D21C2E"/>
<path d="M11.713 30.4226C11.0609 30.7697 9.8946 31.1187 8.33151 31.1187C3.31896 31.1187 -0.0129395 27.4066 -0.0129395 20.4636C-0.0129395 14.1396 3.48611 9.39156 9.08091 9.39156C10.3281 9.39156 11.1381 9.69463 11.713 10.005V13.6786C11.2556 13.4912 10.1903 13.2065 9.17275 13.2065C6.15861 13.2065 4.6047 16.487 4.6047 20.3718C4.6047 24.69 6.34963 27.3203 9.17642 27.3203C10.0287 27.3203 11.0389 27.1531 11.713 26.8188V30.4226Z" fill="#231F20"/>
<path d="M29.594 27.412L29.5958 19.9657C27.7958 19.9896 24.5282 20.4874 24.5282 24.1627C24.5282 26.5487 25.7992 27.4101 26.8168 27.4101L29.594 27.412ZM34.1528 25.7295C34.1528 27.3679 34.2539 29.4563 34.4779 30.8559H25.4208C22.3938 30.8559 20.1089 28.3432 20.1089 24.6403C20.1089 19.2126 24.6953 16.9222 29.4727 16.8781V16.5052C29.4727 14.3048 28.6113 12.7582 26.3172 12.7582C24.8073 12.7582 23.0808 13.1991 21.9383 13.9301V10.7708C22.9761 10.1114 24.7504 9.26102 27.3237 9.26102C32.7606 9.26102 34.1528 12.795 34.1528 17.2895V25.7295Z" fill="#231F20"/>
<path d="M54.5167 27.3806H51.8203C49.8788 27.3806 48.7547 24.451 48.7547 20.2338C48.7547 16.4574 49.5923 13.1255 51.9342 13.1255C53.3007 13.1255 54.2503 14.6279 54.4487 16.3251C54.5167 16.7531 54.5167 17.2233 54.5167 17.6255V27.3806ZM59.1288 25.7257L59.1196 3.02322H54.5167V11.4981H54.4285C53.7526 10.0397 52.4742 9.20395 50.7329 9.20395C47.322 9.20395 44.1389 12.7599 44.1389 20.1713C44.1389 26.5339 46.4312 30.8411 50.5162 30.8411L59.4539 30.8484C59.2317 29.447 59.1288 27.3641 59.1288 25.7257Z" fill="#231F20"/>
<path d="M79.3413 18.2234C79.3762 14.8346 78.265 12.8215 76.6229 12.8215C74.6117 12.8215 73.7061 15.7475 73.6143 18.2234H79.3413ZM73.5941 21.5186C73.6437 26.2391 75.8349 27.5212 78.2999 27.5212C79.8428 27.5212 81.4775 27.174 82.4161 26.7718V30.1018C81.0991 30.7227 79.3909 31.0955 77.4605 31.0955C72.0163 31.0955 69.094 27.1465 69.094 20.6094C69.094 13.6242 72.4424 9.37204 76.9517 9.37204C81.393 9.37204 83.6302 13.3854 83.6302 19.0463C83.6302 20.2512 83.5824 20.9308 83.509 21.5094L73.5941 21.5186Z" fill="#231F20"/>
<path d="M98.2517 13.2999V30.8668H93.623V15.7006C93.623 13.3146 93.5036 11.4466 93.4338 9.57676H102.559C106.076 9.57676 108.172 12.1372 108.172 17.034V30.8668H103.543V17.4749C103.543 15.3644 103.095 13.3036 101.08 13.3036L98.2517 13.2999Z" fill="#231F20"/>
<path d="M129.737 30.4226C129.085 30.7697 127.917 31.1187 126.356 31.1187C121.343 31.1187 118.008 27.4066 118.008 20.4636C118.008 14.1396 121.509 9.39156 127.103 9.39156C128.353 9.39156 129.161 9.69463 129.737 10.005V13.6786C129.278 13.4912 128.213 13.2065 127.195 13.2065C124.181 13.2065 122.627 16.487 122.627 20.3718C122.627 24.69 124.37 27.3203 127.201 27.3203C128.055 27.3203 129.061 27.1531 129.737 26.8188V30.4226Z" fill="#231F20"/>
<path d="M142.47 18.2234C142.563 15.7475 143.469 12.8215 145.476 12.8215C147.122 12.8215 148.233 14.8346 148.197 18.2234H142.47ZM152.484 19.0463C152.484 13.3835 150.248 9.37204 145.807 9.37204C141.3 9.37204 137.948 13.6242 137.948 20.6094C137.948 27.1465 140.87 31.0955 146.314 31.0955C148.248 31.0955 149.956 30.7227 151.271 30.1018V26.7718C150.329 27.174 148.698 27.5212 147.155 27.5212C144.688 27.5212 142.501 26.2391 142.451 21.5186L152.364 21.5094C152.438 20.9308 152.484 20.2512 152.484 19.0463Z" fill="#231F20"/>
<path d="M157.209 1.75931C158.741 1.75931 159.988 3.18281 159.988 4.93325C159.988 6.68002 158.741 8.10352 157.209 8.10352C155.673 8.10352 154.432 6.68002 154.432 4.93325C154.432 3.18281 155.673 1.75931 157.209 1.75931ZM157.218 7.62963C158.496 7.62963 159.457 6.45226 159.457 4.93325C159.457 3.41057 158.496 2.23504 157.218 2.23504C155.925 2.23504 154.962 3.41057 154.962 4.93325C154.962 6.45226 155.925 7.62963 157.218 7.62963ZM156.145 3.06893H157.394C158.14 3.06893 158.511 3.41057 158.511 4.11405C158.511 4.71284 158.179 5.14081 157.668 5.14081L158.594 6.78471H158.034L157.123 5.14081H156.676V6.78471H156.145V3.06893ZM156.676 4.66692H157.306C157.718 4.66692 157.978 4.57141 157.978 4.08834C157.978 3.66588 157.648 3.54282 157.306 3.54282H156.676V4.66692Z" fill="#231F20"/>
</g>
<defs>
<clipPath id="clip0_112_4130">
<rect width="160" height="30.2376" fill="white" transform="translate(0 0.881226)"/>
</clipPath>
</defs>
</svg>
