<svg width="86" height="40" viewBox="0 0 86 40" fill="none" xmlns="http://www.w3.org/2000/svg">
<path d="M41.8076 4.35378C36.1811 4.35378 31.6137 8.90713 31.5996 14.536C31.585 20.174 36.1432 24.7561 41.7813 24.772C47.4187 24.7855 52.0014 20.2272 52.0167 14.5898C52.0185 13.765 51.9207 12.964 51.7379 12.1954C50.6789 12.6828 49.4101 12.6717 48.3236 12.0548L45.3147 16.0469C45.6908 16.4846 45.8987 17.0325 45.9201 17.595C45.939 18.0945 45.8125 18.6051 45.5202 19.0576C44.7669 20.2242 43.2053 20.5586 42.0399 19.8029C41.6376 19.5431 41.3361 19.1866 41.1423 18.7849C40.8036 18.0811 40.7975 17.2373 41.1827 16.5103L38.7614 14.6876L38.0093 15.6867L35.2395 13.6017L37.3245 10.8313L40.0943 12.9163L39.3429 13.9148L41.791 15.7577C42.5547 15.1181 43.6461 14.9787 44.5566 15.447L47.552 11.4709C46.356 10.2994 46.0534 8.42716 46.9351 6.91569C47.1093 6.6167 47.3196 6.355 47.555 6.12449C45.925 5.01229 43.9561 4.35989 41.8345 4.35378H41.8076Z" fill="#D91470"/>
<path d="M56.8982 6.22023C55.5744 7.8656 53.166 8.12852 51.5212 6.80415C49.8765 5.47795 49.6142 3.07378 50.9385 1.42597C52.2623 -0.218184 54.6683 -0.479878 56.3149 0.846325C57.9615 2.16641 58.2207 4.57608 56.8982 6.22023Z" fill="black"/>
<path d="M0.179932 35.6941V35.6702C0.179932 33.2892 1.97406 31.3386 4.54692 31.3386C6.12632 31.3386 7.0711 31.8653 7.84888 32.6307L6.67697 33.983C6.03089 33.397 5.37241 33.0373 4.53546 33.0373C3.12402 33.0373 2.10576 34.2101 2.10576 35.6464V35.6702C2.10576 37.1056 3.10016 38.3023 4.53546 38.3023C5.4917 38.3023 6.07861 37.9186 6.73613 37.3203L7.909 38.5055C7.04724 39.4274 6.09101 40 4.47439 40C2.00937 40 0.179932 38.099 0.179932 35.6941Z" fill="black"/>
<path d="M9.37866 31.4817H11.2215V34.7961H14.6208V31.4817H16.4636V39.8578H14.6208V36.4957H11.2215V39.8578H9.37866V31.4817Z" fill="black"/>
<path d="M18.6948 31.4817H25.0124V33.1222H20.5243V34.8209H24.4733V36.4595H20.5243V38.2183H25.0716V39.8578H18.6948V31.4817Z" fill="black"/>
<path d="M26.3408 35.6941V35.6702C26.3408 33.2892 28.1359 31.3386 30.7069 31.3386C32.2853 31.3386 33.2329 31.8653 34.0088 32.6307L32.8369 33.983C32.1908 33.397 31.5323 33.0373 30.6944 33.0373C29.283 33.0373 28.2666 34.2101 28.2666 35.6464V35.6702C28.2666 37.1056 29.2582 38.3023 30.6944 38.3023C31.6516 38.3023 32.2376 37.9186 32.897 37.3203L34.0689 38.5055C33.2072 39.4274 32.2509 40 30.6353 40C28.1712 40 26.3408 38.099 26.3408 35.6941Z" fill="black"/>
<path d="M35.4336 31.4817H37.2773V35.1435L40.6738 31.4817H42.9002L39.4895 35.0356L43.0567 39.8578H40.8427L38.246 36.2915L37.2773 37.2974V39.8578H35.4336V31.4817Z" fill="black"/>
<path d="M50.4316 35.7056C51.3525 35.7056 51.8898 35.1549 51.8898 34.4382V34.4143C51.8898 33.5889 51.3163 33.1451 50.3954 33.1451H48.9715V35.7055L50.4316 35.7056ZM47.1306 31.4817H50.55C52.5483 31.4817 53.7574 32.667 53.7574 34.3781V34.401C53.7574 36.3402 52.2506 37.3441 50.3705 37.3441H48.9715V39.8578H47.1306V31.4817Z" fill="#D91470"/>
<path d="M61.9304 35.6941V35.6702C61.9304 34.234 60.8749 33.0373 59.3929 33.0373C57.9089 33.0373 56.8801 34.2101 56.8801 35.6464V35.6702C56.8801 37.1055 57.9328 38.3023 59.4167 38.3023C60.9026 38.3023 61.9304 37.1294 61.9304 35.6941ZM54.9534 35.6941V35.6702C54.9534 33.2892 56.8324 31.3386 59.4167 31.3386C62.0001 31.3386 63.8553 33.2653 63.8553 35.6464V35.6702C63.8553 38.0513 61.9772 40 59.3929 40C56.8095 40 54.9534 38.0751 54.9534 35.6941Z" fill="#D91470"/>
<path d="M65.6494 31.4817H67.4903V39.8578H65.6494V31.4817Z" fill="#D91470"/>
<path d="M69.8054 31.4817H71.5051L75.4302 36.6379V31.4817H77.2472V39.8578H75.6821L71.6244 34.5327V39.8578H69.8054V31.4817Z" fill="#D91470"/>
<path d="M81.4282 33.1814H78.8801V31.4817H85.82V33.1814H83.2738V39.8578H81.4282V33.1814Z" fill="#D91470"/>
</svg>
