<svg width="124" height="40" viewBox="0 0 124 40" fill="none" xmlns="http://www.w3.org/2000/svg">
    <path d="M7.08773 20.9513H0.904495C0.888901 20.6316 0.881104 20.3197 0.881104 20C0.881104 19.6881 0.888901 19.3684 0.904495 19.0565H6.72906C6.80703 19.6959 6.92399 20.3353 7.08773 20.9513ZM7.08773 13.3489H2.01951C2.24563 12.694 2.50294 12.0624 2.79923 11.4542H7.71151C7.4698 12.0624 7.25147 12.694 7.08773 13.3489ZM1.08383 17.1462C1.1774 16.5068 1.29436 15.8674 1.4503 15.2515H6.72906C6.65108 15.8674 6.6121 16.5068 6.6121 17.1462H1.08383ZM8.64718 24.7485H1.4503C1.29956 24.13 1.1774 23.4984 1.08383 22.8538H7.71151C7.97662 23.5088 8.28851 24.1404 8.64718 24.7485ZM11.7583 28.5536H2.79923C2.50294 27.9298 2.24563 27.306 2.01951 26.6511H9.93373C10.4873 27.3372 11.0955 27.9688 11.7583 28.5536ZM40.7252 20.9513H34.4795C34.6407 21.5699 34.7602 22.204 34.8382 22.8538H40.5458C40.46 23.4932 40.3353 24.1248 40.1793 24.7485H34.963V24.7719C34.963 25.4113 34.9162 26.0351 34.846 26.6511H39.6179C39.3918 27.306 39.1267 27.9298 38.8304 28.5536H34.4873C34.3236 29.2008 34.1131 29.8402 33.8636 30.4639H37.8012C37.3957 31.1189 36.9513 31.7505 36.4678 32.3587H32.9435C32.5614 33.0214 32.1248 33.6608 31.6413 34.2612H34.768C34.0663 34.9474 33.3177 35.5789 32.5224 36.1559H29.8402C29.0189 36.8837 28.1274 37.5153 27.1657 38.0507H29.31C26.7369 39.2749 23.8597 39.9532 20.8187 39.9532C17.7778 39.9532 14.8928 39.2749 12.3119 38.0507H16.9591V36.1559H9.11502C8.3197 35.5789 7.57116 34.9474 6.86941 34.2612H16.9591V32.3587H5.16181C4.67837 31.7505 4.23393 31.1189 3.82847 30.4639H24.6472V20.9513H16.9669V11.4542H38.8304C39.1267 12.0624 39.3918 12.694 39.6179 13.3489H29.7934C30.4587 13.9311 31.0643 14.5653 31.6101 15.2515H40.1793C40.3353 15.8674 40.46 16.5068 40.5458 17.1462H32.9201C33.271 17.7544 33.5829 18.3938 33.848 19.0565H40.7252C40.7407 19.3684 40.7485 19.6881 40.7485 20C40.7563 20.3197 40.7407 20.6316 40.7252 20.9513ZM24.6472 3.84405H32.5224C33.3177 4.42105 34.0663 5.05263 34.768 5.73879H24.6472V3.84405ZM8.63939 9.55166H3.82847C4.23393 8.88889 4.67837 8.25731 5.16181 7.64912H9.93373C9.4659 8.24172 9.02145 8.88109 8.63939 9.55166ZM24.6472 7.64912H36.4756C36.9539 8.25731 37.3957 8.89149 37.8012 9.55166H24.6472V7.64912ZM11.7583 5.73879H6.86941C7.56596 5.05263 8.3119 4.42105 9.10722 3.84405H14.4406C13.4737 4.38207 12.577 5.02144 11.7583 5.73879ZM29.31 1.94152H12.3197C14.8928 0.725146 17.7778 0.0467834 20.8187 0.0467834C23.8597 0.0467834 26.7369 0.725146 29.31 1.94152Z" fill="#3363A8"/>
    <path fill-rule="evenodd" clip-rule="evenodd" d="M122.191 32.8343H121.177V30.0819C121.177 29.6608 121.021 29.3489 120.569 29.3489C120.195 29.3489 119.867 29.5984 119.688 29.7388V32.8343H118.69V30.0819C118.69 29.6608 118.557 29.3489 118.082 29.3489C117.739 29.3489 117.38 29.614 117.209 29.7466V32.8343H116.187V28.9279L117.154 28.6706L117.185 29.115C117.388 28.9357 117.856 28.577 118.487 28.577C119.049 28.577 119.345 28.7719 119.555 29.1306C119.774 28.9357 120.242 28.577 120.959 28.577C121.786 28.577 122.191 29.115 122.191 29.8401V32.8343ZM113.053 32.9201C111.805 32.9201 110.791 31.9532 110.791 30.7446C110.791 29.5438 111.805 28.5692 113.053 28.5692C114.308 28.5692 115.322 29.5438 115.322 30.7446C115.322 31.9532 114.308 32.9201 113.053 32.9201ZM111.883 30.7446C111.883 31.6101 112.335 32.2495 113.053 32.2495C113.708 32.2495 114.214 31.6101 114.214 30.7446C114.214 29.8791 113.708 29.2398 113.053 29.2398C112.288 29.2398 111.883 29.8713 111.883 30.7446ZM109.006 28.5692C109.817 28.5692 110.199 28.7329 110.425 28.8343L110.207 29.4659C109.988 29.3723 109.723 29.2631 109.138 29.2631C108.585 29.2631 107.883 29.7466 107.883 30.7446C107.883 31.6803 108.585 32.2261 109.138 32.2261C109.723 32.2261 109.996 32.1169 110.222 32.039L110.464 32.655C110.246 32.7719 109.848 32.9201 108.99 32.9201C107.657 32.9201 106.799 32.0312 106.799 30.7446C106.799 29.4269 107.867 28.5692 109.006 28.5692ZM104.655 32.2261C105.302 32.2261 105.606 32.1014 105.793 32.0156L106.019 32.577C105.778 32.6784 105.372 32.9201 104.359 32.9201C103.072 32.9201 102.261 32.1169 102.261 30.7836C102.261 29.5127 103.15 28.5692 104.281 28.5692C105.294 28.5692 106.175 29.2553 106.175 30.846H103.337C103.337 31.7037 103.774 32.2261 104.655 32.2261ZM104.249 29.2554C103.704 29.2554 103.423 29.692 103.361 30.2222H105.107C105.053 29.5984 104.756 29.2554 104.249 29.2554ZM100.366 26.7914L101.388 26.5263V32.8343H100.366V26.7914ZM97.996 32.2183C98.6432 32.2183 98.9473 32.0936 99.1344 32.0078L99.3606 32.5692C99.1188 32.6784 98.7212 32.9201 97.6919 32.9201C96.4132 32.9201 95.6101 32.1091 95.6101 30.7758C95.6101 29.5127 96.4912 28.5692 97.6218 28.5692C98.6354 28.5692 99.5321 29.2476 99.5321 30.846H96.6783C96.6783 31.6959 97.1227 32.2183 97.996 32.2183ZM97.5906 29.2476C97.0448 29.2476 96.7641 29.6842 96.7017 30.2144H98.4483C98.4015 29.5906 98.0896 29.2476 97.5906 29.2476ZM91.4775 26.5185H96.5769V27.3216H94.5808V32.8265H93.4892V27.3216H91.4775V26.5185ZM62.7602 28.6628V31.4152C62.7602 31.8284 62.9083 32.1325 63.3917 32.1325C63.8518 32.1325 64.2183 31.8596 64.3976 31.7271V28.6628H65.4034V32.5614L64.4444 32.8265L64.4132 32.3899C64.2261 32.538 63.7348 32.9201 62.9551 32.9201C62.1442 32.9201 61.7465 32.421 61.7465 31.6413V28.6628H62.7602ZM87.8128 32.9201C87.0253 32.9201 86.534 32.46 86.534 31.7583C86.534 31.0487 87.0954 30.4249 88.1481 30.3704L89.0214 30.3236V29.9805C89.0214 29.614 88.9044 29.2398 88.265 29.2398C87.688 29.2398 87.2982 29.4269 87.0954 29.5127L86.8615 28.9746C87.1188 28.8499 87.7036 28.5692 88.5691 28.5692C89.5126 28.5692 90.0272 29.0682 90.0272 29.8012V32.1715C90.035 32.3899 90.113 32.7017 90.1754 32.8265H89.1227C89.0604 32.7095 89.0214 32.5458 89.037 32.46C88.8186 32.616 88.4132 32.9201 87.8128 32.9201ZM89.0214 30.9084L88.4366 30.9552C87.8908 31.0097 87.4697 31.1969 87.4697 31.6569C87.4697 32.078 87.805 32.2183 88.1637 32.2183C88.5379 32.2183 88.842 31.9922 89.0214 31.8596V30.9084ZM82.6198 28.6628H83.5555L84.46 31.3918L85.4112 28.6628H86.2611L84.6471 32.8967H84.0935L83.345 30.7602L82.5262 32.8967H81.9804L80.4834 28.6628H81.4658L82.4015 31.4776L83.0331 29.8401L82.6198 28.6628ZM72.6627 31.2437C72.4054 31.2437 71.9454 31.3216 71.9454 31.6569C71.9454 32.0312 72.3742 32.0624 72.6549 32.0624H73.8401C74.7524 32.0624 75.4073 32.5926 75.306 33.5127C75.189 34.4483 74.1286 35.0955 73.1383 35.0955C72.0545 35.0955 70.8693 34.8304 70.8693 33.9025C70.8693 33.2787 71.3606 32.9279 71.6257 32.7953C71.4385 32.6861 71.1032 32.4522 71.1032 31.8908C71.1032 31.384 71.4853 30.9552 71.844 30.8382C71.6257 30.7056 71.3372 30.4327 71.3372 29.9025C71.3372 29.2787 71.8518 28.5692 72.8966 28.5692C73.3489 28.5692 73.5672 28.6238 73.7231 28.6628H75.3294V29.2008H74.4327C74.5107 29.2865 74.7212 29.5361 74.7212 29.9025C74.7212 30.7914 73.9181 31.2437 73.076 31.2437H72.6627ZM71.7192 33.7934C71.7426 34.269 72.4678 34.4405 73.0526 34.4405C73.7075 34.4405 74.3391 34.0429 74.3937 33.6062C74.4717 33.1306 74.1286 32.9201 73.7153 32.9201H72.3586C72.1481 33.0448 71.7114 33.3801 71.7192 33.7934ZM72.2572 29.9103C72.2572 30.308 72.5301 30.6199 73.0214 30.6199C73.5204 30.6199 73.7699 30.308 73.7699 29.9103C73.7699 29.5594 73.5438 29.1696 73.0214 29.1696C72.5301 29.1696 72.2572 29.5594 72.2572 29.9103ZM69.2475 32.8265V30.0741C69.2475 29.653 69.076 29.3567 68.5769 29.3567C68.1091 29.3567 67.7114 29.6374 67.5243 29.7622V32.8265H66.5107V28.9201L67.4775 28.6628L67.5087 29.0994C67.6958 28.9435 68.1403 28.5692 68.9824 28.5692C69.8011 28.5692 70.2533 29.0838 70.2533 29.8479V32.8265H69.2475ZM78.8693 32.8265V30.0741C78.8693 29.653 78.6978 29.3567 78.1988 29.3567C77.7387 29.3567 77.3255 29.6374 77.1461 29.7622V32.8265H76.1325V26.7992L77.1461 26.5185V29.0994C77.3333 28.9435 77.7465 28.5692 78.6432 28.5692C79.4619 28.5692 79.8752 29.0916 79.8752 29.8479V32.8265H78.8693ZM59.6802 32.8265V30.0741C59.6802 29.653 59.5087 29.3567 59.0175 29.3567C58.5574 29.3567 58.1442 29.6374 57.9648 29.7622V32.8265H56.9512V26.7992L57.9648 26.5185V29.0994C58.152 28.9435 58.573 28.5692 59.4619 28.5692C60.2728 28.5692 60.7017 29.0916 60.7017 29.8479V32.8265H59.6802ZM56.1637 32.4288C55.7426 32.6784 55.1266 32.9435 53.9492 32.9435C52.0311 32.9435 50.7134 31.4464 50.7134 29.6842C50.7134 27.8908 52.0311 26.386 53.9492 26.386C55.2124 26.386 55.7972 26.7056 56.0701 26.8694L55.7582 27.6257C55.5477 27.5244 55.0253 27.2359 54.035 27.2359C52.9044 27.2359 51.883 28.2573 51.883 29.6842C51.883 31.0643 52.9278 32.1014 54.0896 32.1014C55.0721 32.1014 55.5165 31.8596 55.8206 31.7037L56.1637 32.4288ZM121.396 7.93761C121.637 7.93761 121.786 8.02338 121.895 8.13254C122.019 8.26509 122.082 8.40545 122.082 8.63936C122.082 8.86548 122.027 9.02143 121.902 9.14619C121.793 9.27094 121.622 9.34892 121.388 9.34892H112.928C112.694 9.34892 112.53 9.26314 112.405 9.14619C112.288 9.02143 112.226 8.88108 112.226 8.64716C112.226 8.40545 112.288 8.26509 112.405 8.14034C112.53 8.01558 112.694 7.93761 112.928 7.93761H121.396ZM122.433 10.1598C122.659 10.1598 122.823 10.2534 122.94 10.3626C123.056 10.4873 123.119 10.69 123.119 10.8616C123.119 11.0331 123.056 11.2437 122.94 11.3684C122.823 11.4854 122.667 11.5633 122.433 11.5633H111.899C111.649 11.5633 111.509 11.4932 111.376 11.3684C111.259 11.2437 111.189 11.0409 111.189 10.8694C111.189 10.69 111.259 10.4873 111.376 10.3626C111.509 10.23 111.649 10.1598 111.899 10.1598H122.433ZM121.396 12.4132C121.606 12.4132 121.786 12.5068 121.902 12.6394C122.027 12.7563 122.082 12.9435 122.082 13.115C122.082 13.2865 122.019 13.4815 121.902 13.6062C121.77 13.731 121.606 13.8245 121.388 13.8245H112.928C112.694 13.8245 112.538 13.7466 112.405 13.614C112.281 13.4971 112.226 13.2865 112.226 13.115C112.226 12.9435 112.288 12.7407 112.405 12.616C112.546 12.4756 112.694 12.4132 112.928 12.4132H121.396ZM121.396 14.6355C121.63 14.6355 121.793 14.7056 121.902 14.8226C122.027 14.9474 122.082 15.1501 122.082 15.3294C122.082 15.5166 122.027 15.7115 121.902 15.8362C121.801 15.9532 121.622 16.039 121.396 16.039H112.936C112.725 16.039 112.538 15.9766 112.413 15.8362C112.281 15.7037 112.226 15.4932 112.226 15.3294C112.226 15.1735 112.288 14.963 112.413 14.8382C112.538 14.7134 112.717 14.6355 112.936 14.6355H121.396ZM112.998 16.9902H121.146C121.481 16.9902 121.754 17.076 121.965 17.2865C122.168 17.4893 122.261 17.6686 122.261 17.9415V21.0838C122.261 21.3723 122.129 21.6296 121.902 21.8635C121.684 22.0741 121.435 22.2066 121.146 22.2066H112.998C112.709 22.2066 112.499 22.0975 112.32 21.8713C112.117 21.6452 112.047 21.3801 112.047 21.0838V17.9415C112.047 17.692 112.156 17.4503 112.32 17.2709C112.491 17.1072 112.741 16.9902 112.998 16.9902ZM113.949 18.4015C113.739 18.4015 113.669 18.4561 113.614 18.4951C113.567 18.5575 113.505 18.6589 113.505 18.807V20.3509C113.505 20.5224 113.559 20.616 113.606 20.6784C113.692 20.7563 113.809 20.7953 113.973 20.7953H120.327C120.507 20.7953 120.639 20.7485 120.694 20.6861C120.772 20.616 120.795 20.5146 120.795 20.3587V18.8538C120.795 18.6978 120.772 18.5965 120.709 18.5263C120.624 18.4405 120.507 18.4015 120.343 18.4015H113.949ZM110.612 7.54775C110.838 7.59453 110.986 7.72708 111.072 7.83624C111.173 7.98439 111.212 8.21831 111.166 8.45223C110.908 9.69979 110.612 10.7914 110.277 11.6491V21.6608C110.277 21.8895 110.204 22.0767 110.058 22.2222C109.926 22.3548 109.747 22.4327 109.544 22.4483C109.341 22.4483 109.17 22.3782 109.014 22.2456C108.889 22.0975 108.811 21.9025 108.811 21.6608V14.4561C108.452 14.9785 108.218 15.0487 108.047 15.0721C107.899 15.0955 107.68 15.0565 107.532 14.9162C107.384 14.7992 107.275 14.5965 107.267 14.4327C107.251 14.269 107.337 14.0273 107.478 13.8401C108.67 12.1014 109.435 10.2066 109.731 8.20272C109.762 7.961 109.895 7.75827 110.043 7.6647C110.16 7.58673 110.425 7.49316 110.612 7.54775ZM80.7017 15.2281V15.0331H78.4171V16.3899H84.1715C84.3664 16.3899 84.5224 16.4366 84.6471 16.5614C84.7797 16.6861 84.8264 16.9201 84.8264 17.0526C84.8264 17.193 84.7641 17.3957 84.6471 17.5283C84.5146 17.653 84.3742 17.731 84.1715 17.731H78.4171V18.8382H84.5769C84.7797 18.8382 84.9434 18.9006 85.0526 19.0253C85.1695 19.1423 85.2475 19.345 85.2475 19.5166C85.2475 19.6881 85.1617 19.8752 85.0526 20.0078C84.9434 20.1481 84.7797 20.1871 84.5769 20.1871H78.4171V21.6608C78.4171 21.8869 78.3625 22.0819 78.2144 22.23C78.0818 22.3626 77.8947 22.4483 77.6841 22.4483C77.4814 22.4483 77.2943 22.3704 77.1617 22.2222C77.0136 22.0819 76.959 21.8947 76.959 21.6608V20.1871H70.7992C70.5964 20.1871 70.4405 20.1247 70.3157 20C70.191 19.8752 70.1286 19.6335 70.1286 19.5166C70.1286 19.384 70.191 19.1579 70.3157 19.0331C70.4327 18.9162 70.5964 18.8382 70.8069 18.8382H76.959V17.731H71.2124C71.0045 17.731 70.8381 17.6686 70.7134 17.5438C70.5808 17.4269 70.5496 17.2008 70.5496 17.0682C70.5496 16.9357 70.5964 16.7095 70.7212 16.577C70.8381 16.4678 71.0019 16.3899 71.2202 16.3899H73.2163V15.0331H70.3703C70.1676 15.0331 70.0038 14.963 69.8791 14.846C69.7543 14.7212 69.6997 14.5185 69.6997 14.3548C69.6997 14.1832 69.7621 14.0117 69.8791 13.8791C69.996 13.7544 70.1676 13.6842 70.3703 13.6842H73.2163V13.5283C73.2163 13.3021 73.2709 13.0994 73.4112 12.9591C73.5594 12.8187 73.7309 12.7485 73.9415 12.7485C74.152 12.7485 74.3391 12.8265 74.4639 12.9591C74.612 13.0994 74.6822 13.3021 74.6822 13.5283V13.6842H76.959V12.2651H71.2124C71.0019 12.2651 70.8459 12.1871 70.729 12.078C70.6042 11.9532 70.5418 11.7115 70.5418 11.5867C70.5418 11.462 70.612 11.2281 70.7212 11.1111C70.8459 11.0019 71.0019 10.924 71.2124 10.924H84.1637C84.3664 10.924 84.5223 10.9785 84.6393 11.0955C84.7641 11.2203 84.8264 11.4308 84.8264 11.5867C84.8264 11.7505 84.7563 11.9298 84.6471 12.0546C84.5301 12.1949 84.3664 12.2651 84.1637 12.2651H82.1598V13.6842H85.0058C85.2319 13.6842 85.3645 13.7388 85.4736 13.8557C85.614 13.9961 85.6685 14.1832 85.6685 14.3548C85.6685 14.5341 85.6218 14.6822 85.4814 14.8226C85.3645 14.9552 85.2319 15.0331 85.0058 15.0331H82.1598V15.2281C82.152 15.4386 82.0896 15.6179 81.9571 15.7505C81.8245 15.8908 81.6374 15.9688 81.4268 15.9688C81.2163 15.9688 81.0448 15.8908 80.9044 15.7505C80.7641 15.6179 80.7095 15.4386 80.7017 15.2281ZM78.4171 13.6842H80.7017V12.2651H78.4171V13.6842ZM74.6822 16.3899H76.959V15.0253H74.6822V16.3899ZM85.2475 9.08381C85.2475 9.24755 85.1695 9.43469 85.0682 9.55164C84.9356 9.6764 84.7797 9.75437 84.5769 9.75437H81.2397V9.80895C81.2397 10.0429 81.1773 10.23 81.037 10.3782C80.8966 10.5185 80.7173 10.5887 80.5068 10.5887C80.2962 10.5887 80.1169 10.5185 79.9765 10.3782C79.8362 10.23 79.7816 10.0429 79.7816 9.80895V9.75437H75.5945V9.80895C75.5945 10.0429 75.5321 10.23 75.3839 10.3782C75.2514 10.5185 75.0643 10.5965 74.8615 10.5965C74.651 10.5965 74.4639 10.5185 74.3313 10.3782C74.191 10.23 74.1286 10.0429 74.1286 9.80895V9.75437H70.7992C70.5808 9.75437 70.4249 9.6764 70.3079 9.56724C70.1832 9.45028 70.1208 9.24755 70.1208 9.08381C70.1208 8.91227 70.1988 8.71734 70.3079 8.60817C70.4171 8.48342 70.5808 8.41324 70.7992 8.41324H74.1208V8.08576C74.1208 7.84404 74.191 7.65691 74.3313 7.50876C74.4639 7.37621 74.651 7.29044 74.8615 7.29044C75.0643 7.29044 75.2514 7.384 75.3762 7.50876C75.5321 7.65691 75.5867 7.85184 75.5867 8.08576V8.41324H79.7816V8.08576C79.7816 7.85184 79.8284 7.65691 79.9765 7.50876C80.1169 7.37621 80.2962 7.29823 80.5068 7.29823C80.7173 7.29823 80.8966 7.384 81.037 7.50876C81.1773 7.65691 81.2397 7.85184 81.2397 8.08576V8.41324H84.5769C84.7797 8.41324 84.9434 8.49901 85.0604 8.60817C85.1695 8.72513 85.2475 8.92007 85.2475 9.08381ZM97.3255 11.1345V13.77C97.3255 14.0117 97.2319 14.1988 97.1149 14.3236C97.0136 14.4483 96.7953 14.5263 96.6237 14.5263C96.46 14.5263 96.2494 14.4561 96.1325 14.3314C95.9999 14.2144 95.922 14.0117 95.922 13.77V11.1345H90.534C90.4483 11.1345 90.3547 11.1813 90.3001 11.2359C90.2455 11.2904 90.2144 11.384 90.2066 11.4854V13.6452C90.2066 13.8791 90.1052 14.1053 89.9882 14.2144C89.8635 14.347 89.6608 14.4015 89.4892 14.4015C89.3411 14.4015 89.0993 14.2924 89.0058 14.191C88.8888 14.0897 88.803 13.8479 88.803 13.6452V11.0799C88.7875 10.7758 88.9122 10.4795 89.1305 10.2534C89.3411 10.0429 89.653 9.90252 89.9414 9.91812H95.922V9.16178H90.8303C90.6354 9.16178 90.4873 9.09161 90.3859 8.99024C90.2845 8.88888 90.2066 8.72513 90.2066 8.5458C90.2066 8.37426 90.2611 8.22611 90.3859 8.11695C90.4951 7.99999 90.651 7.94541 90.8303 7.94541H102.44C102.612 7.94541 102.768 7.99999 102.869 8.10135C102.971 8.20272 103.041 8.41324 103.041 8.5458C103.041 8.68615 102.971 8.87328 102.869 8.97465C102.768 9.06821 102.62 9.16178 102.44 9.16178H97.3255V9.91812H103.306C103.602 9.91032 103.906 10.0429 104.117 10.2534C104.335 10.4795 104.468 10.7758 104.452 11.0799V13.6452C104.452 13.8479 104.359 14.0897 104.242 14.191C104.148 14.2924 103.906 14.4015 103.758 14.4015C103.587 14.4015 103.384 14.347 103.267 14.2144C103.142 14.1053 103.041 13.8791 103.041 13.6452V11.4854C103.041 11.384 103.002 11.2904 102.955 11.2359C102.901 11.1813 102.799 11.1345 102.713 11.1345H97.3255ZM103.75 21.6062C103.75 21.9415 103.485 22.2144 103.142 22.2144H97.536C97.2085 22.2144 96.7952 22.1286 96.4912 21.8791C96.2183 21.653 95.8908 21.2086 95.8908 20.6316V20.1014H90.9083C90.6588 20.078 90.4639 19.9766 90.3079 19.8051C90.1442 19.5945 90.0584 19.3606 90.074 19.1033V15.7505C90.0506 15.5244 90.1364 15.3216 90.3079 15.1345C90.4717 14.9707 90.6744 14.8928 90.9161 14.8928H102.183C102.456 14.8928 102.706 14.9785 102.916 15.1501C103.08 15.306 103.173 15.501 103.173 15.7505V19.1033C103.173 19.3684 103.056 19.5945 102.854 19.8051C102.651 20.0078 102.417 20.1014 102.175 20.1014H97.3567C97.3567 20.4366 97.3333 20.7017 97.4658 20.8343C97.5984 20.9591 97.8089 20.998 97.996 20.998H103.142C103.485 20.998 103.75 21.2631 103.75 21.6062ZM97.3567 18.0819V18.9396H101.388C101.52 18.9396 101.614 18.9006 101.676 18.8382C101.731 18.7836 101.77 18.6822 101.77 18.5575V18.0819H97.3567ZM97.3567 16.0468V16.9123H101.77V16.4444C101.77 16.3197 101.754 16.2261 101.692 16.1637C101.63 16.0858 101.531 16.0468 101.396 16.0468H97.3567ZM91.4697 18.0819V18.5653C91.4697 18.6978 91.5087 18.7836 91.5633 18.8382C91.6257 18.9006 91.7192 18.9396 91.8518 18.9396H95.8908V18.0819H91.4697ZM91.4697 16.9123H95.8908V16.0468H91.844C91.7114 16.0468 91.6179 16.078 91.5633 16.1403C91.5009 16.2183 91.4775 16.3041 91.4775 16.4054C91.4697 16.421 91.4697 16.9123 91.4697 16.9123ZM101.863 13.2865C102.027 13.2865 102.136 13.3255 102.238 13.4191C102.324 13.5127 102.37 13.6374 102.37 13.7934C102.37 13.9415 102.324 14.0585 102.238 14.1598C102.136 14.2612 102.027 14.3158 101.863 14.3158H99.2748C99.111 14.3158 98.9785 14.2612 98.8927 14.1598C98.7992 14.0663 98.7446 13.9493 98.7446 13.7934C98.7446 13.6452 98.7992 13.5283 98.8927 13.4191C98.9785 13.3255 99.111 13.2865 99.2748 13.2865H101.863ZM100.967 11.7115C101.123 11.7115 101.247 11.7505 101.341 11.844C101.427 11.9454 101.481 12.0702 101.481 12.2183C101.481 12.3587 101.427 12.4834 101.341 12.5926C101.247 12.6861 101.123 12.7407 100.967 12.7407H98.3781C98.2222 12.7407 98.0896 12.6861 98.0038 12.5926C97.9051 12.499 97.8557 12.3743 97.8557 12.2183C97.8557 12.078 97.9051 11.9532 98.0038 11.844C98.0896 11.7505 98.2222 11.7115 98.3781 11.7115H100.967ZM94.8693 13.2865C95.0253 13.2865 95.1422 13.3255 95.2358 13.4191C95.3294 13.5127 95.3762 13.6374 95.3762 13.7934C95.3762 13.9415 95.3294 14.0585 95.2358 14.1598C95.1422 14.2612 95.0253 14.3158 94.8693 14.3158H92.2806C92.1169 14.3158 91.9843 14.2612 91.8908 14.1598C91.805 14.0663 91.7582 13.9493 91.7582 13.7934C91.7582 13.6452 91.805 13.5283 91.8908 13.4191C91.9843 13.3255 92.1169 13.2865 92.2806 13.2865H94.8693ZM93.9804 11.7115C94.1364 11.7115 94.2533 11.7505 94.3547 11.844C94.4405 11.9454 94.4873 12.0702 94.4873 12.2183C94.4873 12.3587 94.4405 12.4834 94.3547 12.5926C94.2533 12.6861 94.1364 12.7407 93.9804 12.7407H91.3839C91.228 12.7407 91.0954 12.6861 91.0097 12.5926C90.9161 12.499 90.8693 12.3743 90.8693 12.2183C90.8693 12.078 90.9161 11.9532 91.0097 11.844C91.0954 11.7505 91.228 11.7115 91.3839 11.7115H93.9804ZM58.3001 7.29044C58.5029 7.29044 58.7524 7.384 58.8849 7.50876C59.0175 7.64131 59.0954 7.85184 59.0954 8.09355V9.22416H64.4678C64.8966 9.22416 65.2475 9.36451 65.5126 9.6686C65.7543 9.94151 65.8947 10.269 65.8947 10.6589V18.3002C65.8947 18.6667 65.6997 19.0799 65.4892 19.2904C65.2709 19.5088 64.881 19.7271 64.4756 19.7271H59.0954V21.5828C59.0954 21.8713 58.9785 22.113 58.8615 22.23C58.7524 22.3314 58.573 22.4483 58.3001 22.4483C58.0272 22.4483 57.8323 22.3314 57.7309 22.23C57.5984 22.113 57.5126 21.8713 57.5126 21.5828V19.7271H52.1481C51.7738 19.7271 51.4385 19.5789 51.1422 19.306C50.8537 19.0253 50.7134 18.6978 50.7134 18.3392V10.6199C50.7134 10.2378 50.8537 9.91032 51.1344 9.62182C51.4073 9.36451 51.7504 9.22416 52.1481 9.22416H57.5126V8.09355C57.5126 7.85184 57.575 7.64131 57.7075 7.50876C57.8557 7.37621 58.0974 7.29044 58.3001 7.29044ZM52.7329 18.1988H57.5126V10.7602H52.7173C52.6003 10.7602 52.4834 10.7992 52.382 10.9006C52.2884 11.0175 52.2416 11.1033 52.2416 11.2437V17.7388C52.2416 17.8713 52.2884 17.9727 52.3742 18.0585C52.4756 18.152 52.5925 18.1988 52.7329 18.1988ZM59.0954 10.7602V18.1988H63.9064C64.0623 18.1988 64.1559 18.1286 64.2183 18.0585C64.2884 18.0039 64.3586 17.8713 64.3586 17.7388V11.2437C64.3586 11.1033 64.3118 11.0019 64.2183 10.9084C64.1247 10.807 63.9999 10.7602 63.8674 10.7602H59.0954Z" fill="#1E1917"/>
</svg>
