<svg width="126" height="40" viewBox="0 0 126 40" fill="none" xmlns="http://www.w3.org/2000/svg">
<g clip-path="url(#clip0_112_4781)">
<mask id="mask0_112_4781" style="mask-type:luminance" maskUnits="userSpaceOnUse" x="0" y="0" width="126" height="40">
<path d="M0.79541 39.6032H125.204V0.396281H0.79541V39.6032Z" fill="white"/>
</mask>
<g mask="url(#mask0_112_4781)">
<path d="M34.2262 8.00032C31.7816 8.00032 29.7159 8.81729 28.1201 10.3634V0.396829H24.4734V29.6351H28.1201V17.5256C28.1201 14.0313 30.5763 11.4957 33.9595 11.4957C37.2581 11.4957 39.2285 13.6355 39.2285 17.2219V29.6351H42.8742V16.879C42.8742 11.5687 39.3989 8.00032 34.2262 8.00032Z" fill="#1B619A"/>
<path d="M48.1857 22.9263C48.1857 20.65 50.2408 19.2923 53.6833 19.2923C56.0242 19.2923 57.9004 19.633 59.3693 19.9801V21.4797C59.3693 24.3761 56.5977 26.5593 52.9224 26.5593C50.5678 26.5593 48.1857 25.338 48.1857 23.0014V22.9263ZM53.9489 8.15318C50.8853 8.15318 48.5603 9.04105 46.6894 9.90881L45.9126 10.2707L47.2989 13.5852L48.1561 13.1481C50.1075 12.1502 51.9129 11.6856 53.8357 11.6856C56.2781 11.6856 59.1714 12.5248 59.3195 16.4234C57.8623 16.0932 56.1395 15.8339 53.7965 15.8339C48.1032 15.8339 44.4258 18.6637 44.4258 23.0395V23.1157C44.4258 27.6471 48.7445 30.0917 52.8081 30.0917C55.8316 30.0917 57.9332 28.971 59.3322 27.7741V29.6356H62.9409V16.6509C62.9409 11.329 59.5788 8.15318 53.9489 8.15318Z" fill="#1B619A"/>
<path d="M68.6958 11.7549V8.45743H65.0491V29.6361H68.6958V20.7955C68.6958 14.7127 72.4684 11.9899 76.2083 11.9899H77.2887V8.15901H76.4326C73.4918 8.15901 70.6684 9.39716 68.6958 11.7549Z" fill="#1B619A"/>
<path d="M87.5652 26.4451C85.4995 26.4451 84.5788 25.5604 84.5788 23.573V11.9905H91.3833V8.15864H84.5788V2.25892H80.9321V8.15864H78.4717V11.9905H80.9321V23.7625C80.9321 27.5965 83.3555 29.9786 87.2604 29.9786C88.5536 29.9786 89.6425 29.7416 90.7897 29.2124L91.3093 28.9722V25.2747L90.0521 25.8388C89.0658 26.2811 88.3917 26.4451 87.5652 26.4451Z" fill="#1B619A"/>
<path d="M101.167 11.4957C104.901 11.4957 106.653 14.3138 107.124 17.243H95.0587C95.6936 13.8672 98.1318 11.4957 101.167 11.4957ZM101.242 8.00031C95.5825 8.00031 91.1484 12.8354 91.1484 19.0082V19.0844C91.1484 25.3587 95.6185 30.0923 101.546 30.0923C105.998 30.0923 108.523 27.9885 110.224 26.1566L110.846 25.4857L108.217 23.1682L107.626 23.801C105.869 25.6825 103.962 26.5588 101.623 26.5588C98.8334 26.5588 95.7201 24.7164 95.0259 20.6993H110.948L110.987 19.9151L111.032 19.1225V19.0473C111.032 12.5434 107.007 8.00031 101.242 8.00031Z" fill="#1B619A"/>
<path d="M124.348 8.15296C121.389 8.03549 118.581 9.39745 116.611 11.7552V8.45667H112.964V29.6353H116.611V20.7948C116.611 14.713 120.384 11.9902 124.122 11.9902H125.204V8.18682L124.348 8.15296Z" fill="#1B619A"/>
<path d="M20.012 24.1203C18.0786 25.7277 16.1738 26.4431 13.8329 26.4431C8.61471 26.4431 4.5267 21.6069 4.5267 15.431C4.5267 9.19583 8.52793 4.49616 13.8329 4.49616C16.0743 4.49616 17.9061 5.15862 19.7739 6.6444L20.3962 7.14072L23.0883 4.44854L22.3444 3.82311C20.8184 2.53735 18.2797 0.827221 13.8689 0.827221C6.41567 0.827221 0.796387 7.13966 0.796387 15.5093C0.796387 23.8345 6.36911 30.1121 13.761 30.1121C18.2638 30.1121 20.8925 28.1998 22.4777 26.7606L23.1709 26.132L20.6374 23.6007L20.012 24.1203Z" fill="#1B619A"/>
<path d="M2.97412 36.767V36.7511C2.97412 35.1839 4.14772 33.8991 5.81869 33.8991C6.8346 33.8991 7.44944 34.2537 7.97645 34.7584L7.3542 35.4749C6.91291 35.0653 6.44093 34.7902 5.81022 34.7902C4.76256 34.7902 3.99004 35.6558 3.99004 36.7352V36.7511C3.99004 37.8305 4.75409 38.7046 5.81022 38.7046C6.4875 38.7046 6.92138 38.4369 7.39336 37.9956L8.01666 38.6263C7.44098 39.2253 6.81132 39.6031 5.77847 39.6031C4.17206 39.6031 2.97412 38.3512 2.97412 36.767Z" fill="#8F8B8D"/>
<path d="M16.2192 36.767V36.7511C16.2192 35.6802 15.4393 34.7902 14.344 34.7902C13.2487 34.7902 12.4847 35.6643 12.4847 36.7352V36.7511C12.4847 37.8231 13.2646 38.7046 14.3599 38.7046C15.4552 38.7046 16.2192 37.839 16.2192 36.767ZM11.4688 36.767V36.7511C11.4688 35.1997 12.6667 33.8991 14.3599 33.8991C16.0541 33.8991 17.2351 35.1839 17.2351 36.7352V36.7511C17.2351 38.3036 16.0383 39.6031 14.344 39.6031C12.6508 39.6031 11.4688 38.3194 11.4688 36.767Z" fill="#8F8B8D"/>
<path d="M21.2478 33.9942H22.2796L23.958 36.6017L25.6363 33.9942H26.6681V39.5087H25.6988V35.5541L23.958 38.1542H23.9262L22.2013 35.5699V39.5087H21.2478V33.9942Z" fill="#8F8B8D"/>
<path d="M30.9167 33.9942H31.9485L33.6269 36.6017L35.3053 33.9942H36.3371V39.5087H35.3677V35.5541L33.6269 38.1542H33.5952L31.8702 35.5699V39.5087H30.9167V33.9942Z" fill="#8F8B8D"/>
<path d="M40.4988 37.1687V33.994H41.4681V37.1296C41.4681 38.1539 41.9951 38.6979 42.8618 38.6979C43.7211 38.6979 44.2492 38.1857 44.2492 37.1687V33.994H45.2175V37.1222C45.2175 38.7677 44.2884 39.5953 42.846 39.5953C41.4131 39.5953 40.4988 38.7677 40.4988 37.1687Z" fill="#8F8B8D"/>
<path d="M49.3794 33.9942H50.2778L53.2314 37.8071V33.9942H54.1849V39.5087H53.3732L50.3329 35.5858V39.5087H49.3794V33.9942Z" fill="#8F8B8D"/>
<path d="M58.4963 33.9945H59.4657V39.5091H58.4963V33.9945Z" fill="#8F8B8D"/>
<path d="M63.5317 36.767V36.7511C63.5317 35.1839 64.7053 33.8991 66.3752 33.8991C67.3922 33.8991 68.0071 34.2537 68.5341 34.7584L67.9118 35.4749C67.4705 35.0653 66.9986 34.7902 66.3678 34.7902C65.3202 34.7902 64.5487 35.6558 64.5487 36.7352V36.7511C64.5487 37.8305 65.3128 38.7046 66.3678 38.7046C67.0462 38.7046 67.479 38.4369 67.952 37.9956L68.5743 38.6263C67.9986 39.2253 67.3689 39.6031 66.3361 39.6031C64.7297 39.6031 63.5317 38.3512 63.5317 36.767Z" fill="#8F8B8D"/>
<path d="M75.7687 37.3188L74.8152 35.1134L73.8702 37.3188H75.7687ZM74.3824 33.9546H75.2798L77.7063 39.5083H76.683L76.1232 38.177H73.5157L72.9484 39.5083H71.9558L74.3824 33.9546Z" fill="#8F8B8D"/>
<path d="M82.1362 34.8922H80.387V33.9937H84.8623V34.8922H83.113V39.5082H82.1362V34.8922Z" fill="#8F8B8D"/>
<path d="M88.7717 33.9945H89.7411V39.5091H88.7717V33.9945Z" fill="#8F8B8D"/>
<path d="M98.5573 36.767V36.7511C98.5573 35.6802 97.7774 34.7902 96.6821 34.7902C95.5869 34.7902 94.8228 35.6643 94.8228 36.7352V36.7511C94.8228 37.8231 95.6027 38.7046 96.698 38.7046C97.7933 38.7046 98.5573 37.839 98.5573 36.767ZM93.8069 36.767V36.7511C93.8069 35.1997 95.0048 33.8991 96.698 33.8991C98.3923 33.8991 99.5733 35.1839 99.5733 36.7352V36.7511C99.5733 38.3036 98.3764 39.6031 96.6821 39.6031C94.9889 39.6031 93.8069 38.3194 93.8069 36.767Z" fill="#8F8B8D"/>
<path d="M103.585 33.9942H104.484L107.439 37.8071V33.9942H108.391V39.5087H107.579L104.539 35.5858V39.5087H103.585V33.9942Z" fill="#8F8B8D"/>
<path d="M112.27 38.7051L112.853 38.0119C113.381 38.4691 113.916 38.7284 114.593 38.7284C115.192 38.7284 115.57 38.4458 115.57 38.0352V38.0204C115.57 37.6257 115.35 37.413 114.326 37.177C113.152 36.8934 112.49 36.5463 112.49 35.5304V35.5145C112.49 34.5684 113.278 33.9155 114.373 33.9155C115.177 33.9155 115.815 34.1599 116.374 34.6086L115.854 35.3409C115.357 34.9706 114.861 34.7737 114.357 34.7737C113.79 34.7737 113.459 35.0658 113.459 35.4277V35.4436C113.459 35.869 113.711 36.0584 114.774 36.3103C115.941 36.5939 116.54 37.0119 116.54 37.9252V37.941C116.54 38.9728 115.728 39.5877 114.57 39.5877C113.727 39.5877 112.931 39.2956 112.27 38.7051Z" fill="#8F8B8D"/>
</g>
</g>
<defs>
<clipPath id="clip0_112_4781">
<rect width="125.201" height="40" fill="white" transform="translate(0.399658)"/>
</clipPath>
</defs>
</svg>
