<svg width="84" height="40" viewBox="0 0 84 40" fill="none" xmlns="http://www.w3.org/2000/svg">
    <g clip-path="url(#clip0_36_826)">
        <g clip-path="url(#clip1_36_826)">
            <path d="M20.9739 0.304319C20.3116 0.399784 19.6493 0.602648 19.1422 0.853245C18.8617 0.996443 18.635 1.13964 18.641 1.16947C18.6529 1.24107 19.0825 1.33057 20.2997 1.5215C21.5646 1.71243 21.6422 1.73033 21.6422 1.78403C21.6422 1.80193 21.4035 2.01076 21.1052 2.23749C20.8128 2.46422 20.5801 2.64919 20.5861 2.65515C20.5921 2.66112 20.962 2.64322 21.4035 2.61936C22.8116 2.54776 22.9429 2.47019 23.1875 1.55134C23.283 1.20527 23.3725 0.769713 23.3964 0.578782L23.4381 0.238687L22.3761 0.244653C21.7913 0.25062 21.1649 0.274486 20.9739 0.304319Z" fill="#404041"/>
            <path d="M23.82 0.369932C23.7484 0.596662 23.4321 2.04058 23.4321 2.14201C23.4321 2.47017 23.8498 2.95346 24.1899 3.0191C24.345 3.04893 24.4226 3.00716 24.7507 2.7148C25.1684 2.33294 25.419 2.20764 25.7114 2.20764C26.0515 2.20764 26.0753 2.24941 26.0216 2.81027C25.956 3.53819 25.9858 3.64559 26.2066 3.38306C26.2842 3.29356 26.3677 3.22196 26.3975 3.22196C26.4214 3.22196 26.5288 3.30549 26.6362 3.41289C26.7436 3.51432 26.845 3.58592 26.8629 3.56802C26.8808 3.55012 26.9106 3.35919 26.9345 3.13843C26.9882 2.54774 27.0658 2.4821 27.6565 2.47614C28.0801 2.47614 28.1517 2.45824 28.2889 2.33294C28.4679 2.15991 28.4858 2.02864 28.3426 1.86158C28.1398 1.62888 27.2925 1.22315 26.5348 1.00239C25.9142 0.823392 23.9453 0.298333 23.8916 0.298333C23.8677 0.298333 23.8379 0.334132 23.82 0.369932ZM24.4106 0.835325C24.6791 0.936758 24.5837 1.31265 24.2973 1.31265C24.0467 1.31265 23.9453 1.05012 24.1243 0.871125C24.2317 0.75776 24.2197 0.75776 24.4106 0.835325Z" fill="#404041"/>
            <path d="M22.9548 2.71481C22.8712 2.79237 22.6982 2.89381 22.567 2.93557L22.3283 3.01314L22.2567 3.49047C22.0658 4.76731 22.0956 5.7876 22.3581 7.24942C22.4476 7.75657 22.728 9.23629 22.7459 9.28999C22.7519 9.32579 23.9631 9.04536 24.2973 8.93199C25.0431 8.66946 25.2459 8.49643 25.234 8.1086C25.228 7.86397 24.876 7.13605 24.5359 6.65276C24.3868 6.44393 24.1899 6.10383 24.1004 5.895C23.9631 5.5549 23.9452 5.44751 23.9452 4.77328C23.9512 4.26016 23.981 3.93796 24.0407 3.74106C24.0944 3.58593 24.1123 3.46063 24.0884 3.46063C23.981 3.46063 23.4142 2.95944 23.3008 2.76851C23.2352 2.65514 23.1636 2.56564 23.1397 2.56564C23.1218 2.56564 23.0323 2.63128 22.9548 2.71481Z" fill="#404041"/>
            <path d="M16.5408 2.94752C16.7377 3.12652 16.9167 3.27568 16.9406 3.28165C16.9644 3.28165 17.0599 3.41888 17.1434 3.59191C17.2866 3.87234 17.2985 3.94991 17.2687 4.3258L17.2329 4.74943L17.5253 5.00003C17.8594 5.28642 18.0623 5.63248 18.0623 5.90695C18.0623 6.34848 17.5074 6.84967 16.4394 7.36279C15.5503 7.78642 15.5861 7.69692 15.5861 9.5764C15.5861 10.7697 15.61 11.3067 15.6935 11.9034C15.8427 12.9535 16.1351 14.0633 16.4811 14.8867C16.5945 15.1611 17.0539 15.889 17.0897 15.8532C17.1016 15.8413 17.1374 15.5072 17.1732 15.1194C17.4358 12.1898 18.82 10.3521 21.4036 9.51077C21.7795 9.38547 22.0957 9.27807 22.1076 9.2721C22.1315 9.26017 21.1828 7.66709 20.8188 7.10026C20.2162 6.16351 19.9119 5.73392 19.3988 5.10742C19.0885 4.72556 18.8081 4.42723 18.7723 4.44513C18.7425 4.469 18.7246 4.45707 18.7305 4.42723C18.7484 4.3616 18.5396 4.1468 18.0205 3.72318C17.5849 3.35921 17.0897 3.04299 16.5647 2.79836L16.1828 2.61936L16.5408 2.94752Z" fill="#404041"/>
            <path d="M29.715 2.84608C29.7389 2.97138 29.8284 3.32938 29.9238 3.63964C30.1207 4.29 30.1267 4.27806 29.536 4.29C29.2496 4.29596 29.0408 4.3974 29.0408 4.52866C29.0408 4.62413 29.8343 4.84489 30.3176 4.88665C30.9799 4.95229 31.2365 5.10742 31.8272 5.82341C32.5909 6.74226 32.9847 7.47019 33.2233 8.38308C33.4023 9.0573 33.3367 9.68976 33.0384 10.1671C32.8355 10.5012 32.8117 10.6742 32.8654 11.3664C32.8952 11.7303 32.937 12.2136 32.9549 12.4523L32.9907 12.8759L33.4143 12.5895C33.8856 12.2793 34.0288 12.1361 34.2198 11.8019C34.6374 11.0621 34.6315 10.1253 34.1959 8.74107C33.6171 6.88546 32.6864 5.35802 31.2603 3.89023C30.8367 3.44871 30.5742 3.22794 30.5265 3.25778C30.4847 3.28164 30.4668 3.27568 30.4907 3.23988C30.5384 3.16828 30.2759 2.90575 30.2162 2.96541C30.1923 2.98331 30.1744 2.97138 30.1744 2.93558C30.1744 2.86398 29.8343 2.62532 29.7329 2.62532C29.7031 2.62532 29.6971 2.72675 29.715 2.84608ZM30.8427 3.80074C30.9799 3.92603 30.9799 4.01553 30.8307 4.1468C30.5802 4.37353 30.2222 4.06327 30.4489 3.81267C30.5742 3.67544 30.6995 3.66947 30.8427 3.80074Z" fill="#404041"/>
            <path d="M15.1207 3.46661C14.8701 3.69931 14.6792 3.92007 14.703 3.9499C14.7209 3.9857 14.715 3.99763 14.6792 3.97973C14.6135 3.93797 14.0408 4.51076 13.6231 5.02985C13.3725 5.34608 13.3486 5.39978 13.3486 5.70408C13.3486 6.04417 13.5157 6.42604 13.7603 6.6468C13.8677 6.74226 13.8737 6.74226 13.9155 6.58117C13.993 6.2709 14.1959 6.01434 14.4644 5.89501L14.7329 5.77568L14.9596 5.93678C15.3594 6.21124 15.4011 6.6647 15.0551 6.8974C14.9715 6.95109 14.7508 7.05253 14.5658 7.13009L14.2377 7.26136L14.3928 7.38666C14.6911 7.61935 14.8522 7.61339 15.5026 7.31506C16.3439 6.93916 16.7138 6.70646 17.1195 6.3067C17.4238 6.00837 17.4656 5.93678 17.4656 5.72794C17.4656 5.51315 17.4298 5.45348 17.1076 5.14322L16.7496 4.79119L16.8152 4.45109C16.9346 3.88427 16.7496 3.51434 16.1828 3.15635C15.8367 2.94155 15.6398 3.00121 15.1207 3.46661ZM16.0575 3.40694C16.5109 3.72317 16.6422 4.08117 16.4095 4.37353L16.2902 4.52269L15.9083 4.2363C15.6995 4.0752 15.4608 3.8962 15.3773 3.83057L15.2281 3.71124L15.4668 3.49644C15.7472 3.24584 15.8128 3.23988 16.0575 3.40694ZM15.0789 4.71959C15.0789 5.26255 15.0909 5.25062 14.6553 4.97615L14.3988 4.81506L14.703 4.52866C14.8761 4.36756 15.0252 4.2363 15.0431 4.2363C15.061 4.2363 15.0789 4.45109 15.0789 4.71959Z" fill="#404041"/>
            <path d="M26.6838 8.46062L25.8485 8.56206L25.4666 8.84845C24.685 9.42721 23.9272 9.68377 22.543 9.821C22.0716 9.86277 21.4988 9.95824 21.2602 10.0298C19.6253 10.5191 18.4976 11.7124 17.889 13.5979C17.6981 14.1885 17.6146 14.7017 17.5549 15.6623C17.4893 16.7363 17.3043 17.0406 16.4213 17.5418C15.7649 17.9117 15.3413 18.0788 15.0489 18.0788C14.7745 18.0788 14.4165 17.9535 14.1898 17.7745C14.1122 17.7148 13.9809 17.6611 13.8974 17.6611C13.6647 17.6611 13.1098 17.852 13.1098 17.9356C13.1098 17.9773 13.0919 18.0549 13.074 18.1086C13.0382 18.1921 13.0919 18.1802 13.3365 18.0549C13.5036 17.9714 13.6707 17.8998 13.7005 17.8998C13.7303 17.8998 13.6945 18.0131 13.617 18.1504C13.438 18.4666 13.426 18.759 13.5931 19.0274C13.7244 19.2482 13.6886 19.2482 14.512 19.0692C14.7447 19.0155 15.1921 18.9737 15.5084 18.9737C16.8509 18.9737 17.4236 18.7112 19.0466 17.3807C19.8342 16.7303 20.5263 16.3783 21.6719 16.0382C23.1456 15.6026 23.8139 15.1134 24.8938 13.6754C25.2697 13.1802 25.4368 13.0072 25.6874 12.8699C26.2781 12.5418 26.9225 12.673 27.5668 13.2399C27.722 13.3831 27.8473 13.4726 27.8532 13.4427C27.8532 13.4189 27.8711 13.4368 27.895 13.4905C27.9666 13.6575 29.0824 14.6062 29.6552 14.9881C29.9594 15.1909 30.4606 15.4833 30.7828 15.6384C31.7733 16.1337 32.0358 16.6169 31.8389 17.5477C31.6838 18.2757 31.3318 18.8186 30.7232 19.2721C30.4964 19.4451 30.2458 19.6659 30.1683 19.7673C30.0967 19.8747 29.9654 20.0477 29.8878 20.1551C29.6432 20.4773 29.8461 20.3699 30.3771 19.8926C30.6575 19.642 30.9141 19.457 30.9439 19.4809C30.9797 19.4988 30.7291 19.9284 30.3831 20.4535C30.037 20.9666 29.7029 21.4797 29.6373 21.5871L29.5179 21.778L29.8878 21.5334C31.5167 20.4296 32.9726 18.6277 33.3127 17.2971C33.432 16.8317 33.4022 16.2291 33.247 15.901C33.1814 15.7697 32.9964 15.543 32.8294 15.3938C31.4511 14.1527 31.2602 13.6396 31.2482 11.1575C31.2423 10.5191 31.2423 9.97017 31.2423 9.94034C31.2542 9.83294 31.5585 10.179 31.6957 10.4475C31.8747 10.7936 31.9941 11.6348 31.9404 12.1659C31.9046 12.5418 31.9881 13.4308 32.0776 13.5919C32.1492 13.7232 32.4893 12.8759 32.5668 12.3568C32.6683 11.7005 32.5788 11.1038 32.2864 10.5012C31.8568 9.61814 30.8186 8.80669 29.7268 8.50239C29.2017 8.35919 27.7279 8.33533 26.6838 8.46062Z" fill="#404041"/>
            <path d="M14.6911 13.4248C14.166 13.7053 13.5932 13.8902 13.0502 13.9618C12.7221 14.0036 12.3939 14.0871 12.2627 14.1587C12.0001 14.3019 11.845 14.5943 11.8689 14.8926L11.8868 15.1014L12.2269 14.7971C12.5789 14.4869 12.6684 14.4988 12.4894 14.8449C12.3343 15.1492 12.1553 15.7697 12.1553 16.0143C12.1612 16.247 12.3164 16.7184 12.3283 16.5275C12.3402 16.3425 12.6863 15.6981 12.907 15.4535C13.0323 15.3162 13.2949 15.1193 13.4918 15.0179C13.808 14.8568 13.9333 14.8329 14.4226 14.8091C14.9655 14.7852 15.0013 14.7912 15.3474 14.9761C15.5443 15.0835 15.8008 15.2446 15.9142 15.3341C16.2603 15.5967 16.2662 15.5907 16.1171 15.173C16.0335 14.9463 15.8844 14.5167 15.7889 14.2184C15.6934 13.9141 15.5502 13.5979 15.4786 13.5143C15.2937 13.2995 14.9894 13.2637 14.6911 13.4248Z" fill="#404041"/>
            <path d="M25.8487 13.4964C25.5921 13.6337 24.6136 14.6122 24.6613 14.6898C24.6792 14.7136 24.6673 14.7375 24.6375 14.7375C24.6076 14.7375 24.4167 14.9403 24.2138 15.185C23.5635 15.9666 22.758 16.438 21.7616 16.617C20.974 16.7542 20.6637 16.8556 20.3057 17.0704C19.9239 17.3031 19.2616 17.7983 19.2556 17.852C19.2556 17.8759 19.3988 17.9415 19.5718 18.0072C19.7389 18.0728 20.0671 18.21 20.2878 18.3115C20.7055 18.4964 20.8666 18.5382 20.8666 18.4487C20.8666 18.3353 21.6721 17.5835 21.9048 17.4761C22.215 17.333 22.4119 17.333 22.9549 17.4761C23.1995 17.5418 23.4203 17.5776 23.4442 17.5656C23.5695 17.4881 24.2616 16.6289 24.2377 16.5871C24.2198 16.5573 24.2496 16.5454 24.3033 16.5513C24.4286 16.5692 24.5002 16.7065 24.8702 17.6014C25.1685 18.3353 25.4251 18.8485 25.5325 18.9201C25.5683 18.938 25.5802 18.9678 25.5742 18.9797C25.5623 18.9917 25.6637 19.2065 25.801 19.4511C25.9382 19.6957 26.0814 20.0119 26.1172 20.1492C26.1888 20.3819 26.1828 20.4236 26.0396 20.716C25.7771 21.247 25.1088 22.0824 24.7807 22.2793C24.4644 22.4761 24.5659 22.4702 22.8952 22.4284L22.0301 22.4046L21.6303 22.5955C21.4036 22.7029 21.2246 22.8162 21.2246 22.8461C21.2246 22.8878 21.6124 22.9117 22.394 22.9117C23.474 22.9117 23.5575 22.9177 23.5396 23.0131C23.5217 23.1265 23.5516 23.1205 21.4633 23.3473C20.8427 23.4129 20.7771 23.4308 20.7592 23.5442C20.7413 23.6635 20.7711 23.6695 21.5587 23.7053C22.7938 23.7649 24.1661 23.753 24.6434 23.6814C25.8845 23.4905 26.8749 22.7566 27.4537 21.605C27.8535 20.7936 27.8535 20.7637 27.4955 20.0298C27.1255 19.2721 27.048 18.926 27.0838 18.2518C27.1315 17.4284 27.4418 16.8437 28.3606 15.8652C28.6411 15.5668 28.8618 15.2983 28.8499 15.2745C28.8201 15.179 28.301 14.5943 27.8773 14.1647C27.3045 13.5859 26.9107 13.3652 26.4454 13.3711C26.2007 13.3711 26.0098 13.4129 25.8487 13.4964Z" fill="#404041"/>
        </g>
        <g clip-path="url(#clip2_36_826)">
            <path fill-rule="evenodd" clip-rule="evenodd" d="M5.50565 28.1178C5.1127 28.1572 4.79365 28.2178 4.33687 28.3397C4.02717 28.4224 3.14425 28.824 3.14425 28.8822C3.14425 28.9044 3.11963 28.9226 3.08953 28.9226C3.05943 28.9226 2.93602 29.0009 2.81523 29.0966C1.95234 29.7805 1.34014 30.8027 1.01799 32.0977C0.904833 32.5526 0.889662 32.7142 0.876543 33.6055C0.868434 34.1547 0.878786 34.8072 0.899537 35.0556C0.934219 35.4707 1.08936 36.23 1.1861 36.4581C1.20828 36.5104 1.25375 36.6281 1.28714 36.7196C1.53053 37.3865 2.05963 38.1805 2.55104 38.6163C2.81962 38.8545 3.29528 39.1716 3.64515 39.3457C4.14052 39.5922 5.10431 39.8701 5.60106 39.9097C6.11866 39.9509 7.90679 39.9205 8.22483 39.865C9.80759 39.5891 10.4216 39.4049 10.527 39.1742C10.5617 39.0985 10.56 38.9962 10.5217 38.8318C10.4432 38.4955 10.4322 38.4862 10.1701 38.5297C9.81537 38.5886 9.03806 38.7116 8.48721 38.7961C7.8056 38.9006 6.78181 38.9313 6.41619 38.8581C5.84302 38.7435 5.55941 38.6261 5.19557 38.353C4.62449 37.9244 4.28392 37.4226 4.05465 36.672C3.929 36.2607 3.87223 35.9855 3.72014 35.0501C3.65345 34.64 3.65426 32.8692 3.72139 32.3481C3.91492 30.8456 4.39002 29.7741 5.04992 29.3521C5.49582 29.0669 5.73005 29.0054 6.38819 29.0002C7.29545 28.9931 7.77999 29.1531 8.16244 29.5861C8.37449 29.8261 8.4397 29.9623 8.53349 30.3608L8.59784 30.6341H9.87829H11.1587V30.4727C11.1587 30.2912 11.0189 29.8103 10.8658 29.4655C10.665 29.0129 10.0353 28.5461 9.44131 28.4093C8.20132 28.1237 6.61689 28.0063 5.50565 28.1178ZM11.9228 28.1611C11.7054 28.3778 11.8871 28.5886 12.3513 28.6584C12.9537 28.749 13.3152 28.9821 13.3791 29.321C13.4321 29.6026 13.4524 30.8848 13.4748 35.3603C13.4908 38.5373 13.5125 39.8434 13.5503 39.8888C13.5923 39.9392 13.875 39.9525 14.9043 39.9525C16.0466 39.9525 16.2087 39.9433 16.2342 39.8773C16.2501 39.8359 16.2631 38.5522 16.2631 37.0247V34.2474H18.6278H20.9925L20.9676 35.0199C20.954 35.4449 20.9438 35.8353 20.9451 35.8876C20.9464 35.9399 20.9615 36.8705 20.9786 37.9557L21.0098 39.9287L22.4041 39.9413L23.7983 39.9539L23.8244 39.8462C23.8388 39.787 23.8447 37.1284 23.8374 33.9383L23.8244 28.1382L22.4102 28.1256L20.9959 28.113L20.9652 28.7911C20.9483 29.1642 20.9407 30.3358 20.9483 31.3948L20.9621 33.3203H18.6245H16.287L16.2752 30.753C16.2687 29.341 16.2536 28.1598 16.2416 28.1281C16.225 28.0843 15.7182 28.0699 14.1195 28.0678C12.0747 28.0652 12.0165 28.0677 11.9228 28.1611ZM33.0672 28.1012L31.6719 28.1158V28.2543C31.6719 28.4432 31.8406 28.5651 32.2345 28.6605C32.8031 28.7984 32.8553 28.8146 33.0775 28.9218C33.3008 29.0296 33.4047 29.1693 33.5021 29.4931C33.535 29.6024 33.561 31.4235 33.5781 34.7941L33.6039 39.9287H34.0333H34.4626L34.4748 35.0675C34.4816 32.3083 34.5051 30.2063 34.5289 30.2063C34.552 30.2063 34.6011 30.2544 34.6381 30.3132C34.6988 30.41 34.7646 30.5511 35.1088 31.3235C35.167 31.4542 35.2762 31.6955 35.3514 31.8595C35.4267 32.0236 35.4883 32.1656 35.4883 32.1751C35.4883 32.1845 35.5823 32.3926 35.6973 32.6374C35.9761 33.2315 36.1561 33.6284 36.1561 33.6491C36.1561 33.6584 36.2502 33.8664 36.3651 34.1112C36.6618 34.7431 36.824 35.1025 36.824 35.1276C36.824 35.1395 36.9313 35.3766 37.0625 35.6545C37.1937 35.9324 37.301 36.1674 37.301 36.1768C37.301 36.203 37.5227 36.6864 37.8115 37.2901C37.9554 37.5908 38.2128 38.147 38.3836 38.5262C38.5544 38.9053 38.7457 39.3285 38.8086 39.4666C38.8715 39.6046 38.923 39.7448 38.923 39.778C38.923 39.9307 39.037 39.9525 39.8353 39.9525H40.6331L40.8561 39.3701C40.9787 39.0497 41.0963 38.7449 41.1174 38.6926C41.2347 38.4027 41.4179 37.9232 41.5717 37.504C41.6676 37.2425 41.7638 36.9858 41.7854 36.9335C41.807 36.8812 41.9574 36.4854 42.1196 36.054C42.2817 35.6225 42.5607 34.8844 42.7394 34.4138C42.9182 33.9431 43.1971 33.205 43.3592 32.7735C43.5214 32.3421 43.6718 31.9463 43.6933 31.894C43.7148 31.8417 43.7855 31.6607 43.8503 31.4918C43.9152 31.3229 43.9922 31.1767 44.0217 31.1669C44.0609 31.1539 44.0752 32.3048 44.0752 35.4938C44.0752 38.8095 44.0887 39.8519 44.1324 39.8954C44.2075 39.9703 46.8685 39.9777 46.9147 39.9032C46.9315 39.8761 46.9439 38.1592 46.9423 36.0879C46.9407 34.0166 46.9389 31.3752 46.9384 30.2181L46.9375 28.1144H45.5493H44.1611L44.0305 28.2538C43.9586 28.3305 43.8624 28.4963 43.8168 28.6223C43.7711 28.7482 43.7158 28.8941 43.6937 28.9464C43.6715 28.9987 43.5963 29.2019 43.5266 29.398C43.4568 29.5941 43.3816 29.7974 43.3596 29.8497C43.3375 29.902 43.2624 30.1052 43.1926 30.3013C43.1228 30.4974 43.047 30.7007 43.0241 30.753C43.0012 30.8053 42.8722 31.1476 42.7375 31.5137C42.3146 32.6624 42.1597 33.0795 42.1196 33.1777C42.0531 33.3404 41.3097 35.3253 40.989 36.1966C40.8021 36.7043 40.7604 36.8099 40.6784 36.9842C40.6218 37.1043 40.6185 37.1014 40.4564 36.7821C40.3658 36.6039 40.1964 36.2442 40.0799 35.9827C39.7867 35.3247 39.7022 35.1387 39.4896 34.6824C39.3879 34.4641 39.3047 34.2782 39.3047 34.2692C39.3047 34.2603 39.2164 34.0645 39.1086 33.8342C39.0008 33.6038 38.8272 33.2228 38.7228 32.9875C38.6184 32.7522 38.4841 32.4526 38.4243 32.3219C38.1625 31.7495 38.1115 31.6332 37.944 31.2284C37.8466 30.9931 37.6836 30.6219 37.5817 30.4036C37.4798 30.1853 37.3965 29.9995 37.3965 29.9909C37.3965 29.9734 37.2064 29.5575 36.8895 28.8815C36.7748 28.6367 36.6809 28.4214 36.6809 28.4032C36.6809 28.3848 36.6151 28.307 36.5348 28.2302L36.3886 28.0906L35.4256 28.0886C34.896 28.0874 33.8347 28.0931 33.0672 28.1012ZM51.9823 28.1028L48.6548 28.115V28.3032C48.6548 28.5329 48.7091 28.5678 49.1788 28.6404C49.7936 28.7355 50.0487 28.9907 50.135 29.5971C50.1661 29.8158 50.1825 31.7576 50.1801 34.9347L50.1763 39.9287L52.5045 39.9525C53.785 39.9655 55.4874 39.9655 56.2877 39.9525L57.7427 39.9287L57.7565 39.4813C57.7641 39.2352 57.7519 39.0155 57.7293 38.9931C57.7067 38.9706 56.656 38.9497 55.3943 38.9465L53.1002 38.9408L53.0692 38.3651C53.0521 38.0484 53.0447 36.9763 53.0528 35.9827L53.0676 34.1761L54.9042 34.1683L56.7408 34.1606L56.7358 33.775C56.733 33.5629 56.7203 33.3791 56.7076 33.3664C56.695 33.3538 55.8708 33.3383 54.8761 33.3319L53.0676 33.3203L53.0534 31.2523C53.0456 30.115 53.0518 29.1345 53.0672 29.0736L53.0951 28.9627L54.6697 28.9889C56.3864 29.0175 56.5453 29.0394 56.7851 29.2799C56.9561 29.4514 56.9923 29.5215 57.2383 30.1599C57.354 30.4599 57.4798 30.5681 57.6239 30.4912C57.6755 30.4637 57.7293 30.3937 57.7437 30.3356C57.7579 30.2776 57.7635 29.7487 57.7561 29.1603L57.7427 28.0906H56.5262C55.8571 28.0906 53.8123 28.0961 51.9823 28.1028ZM59.6389 28.0972C59.6062 28.111 59.5793 28.2035 59.5793 28.3027C59.5793 28.5254 59.6261 28.5647 59.9774 28.6365C60.4577 28.7347 60.667 28.8611 60.8108 29.1399C60.9306 29.3722 60.9594 30.273 60.9899 34.7466C61.0246 39.8177 61.0255 39.8883 61.0594 39.9219C61.0901 39.9524 63.7281 39.9825 63.7357 39.9525C63.7696 39.8198 63.78 39.3895 63.7954 37.4947C63.8123 35.4181 63.8184 35.2898 63.9066 35.1413C63.9671 35.0395 64.0299 34.9896 64.0854 34.9996C64.2579 35.0305 64.4739 35.2172 64.6658 35.5013C65.1233 36.1785 65.8287 37.2499 65.8287 37.2675C65.8287 37.2779 65.9611 37.4745 66.1229 37.7043C66.2847 37.9341 66.4794 38.2397 66.5556 38.3836C66.6318 38.5274 66.7306 38.6878 66.7751 38.7401C66.8937 38.8795 67.069 39.1358 67.069 39.17C67.069 39.1862 67.1396 39.2887 67.2259 39.3977C67.3122 39.5067 67.4188 39.6754 67.4629 39.7726L67.543 39.9493L68.7491 39.9628C69.4124 39.9702 70.0908 39.9698 70.2566 39.962L70.558 39.9478L70.5254 39.7956C70.5074 39.7119 70.4235 39.5579 70.3388 39.4533C70.1546 39.2258 67.4322 34.9968 67.3761 34.851C67.3489 34.7804 67.5747 34.6556 68.1662 34.414C68.7483 34.1763 69.0963 33.9925 69.3471 33.7904C69.6798 33.5225 69.7957 33.3791 70.0193 32.9593C70.407 32.2318 70.5639 31.4005 70.4371 30.748C70.3473 30.2866 70.301 30.1285 70.1936 29.9182C70.0545 29.6455 69.7767 29.2079 69.7427 29.2079C69.7251 29.2079 69.6691 29.1704 69.6182 29.1247C69.0887 28.6485 68.0486 28.2113 67.236 28.1233C66.7966 28.0758 59.7473 28.0515 59.6389 28.0972ZM74.1174 28.0989C74.015 28.1265 73.9548 28.3393 74.0201 28.4427C74.0513 28.492 74.2577 28.5562 74.6104 28.6264C75.4794 28.7994 75.7036 28.9613 75.7036 29.4163C75.7036 29.65 75.6647 29.7729 75.3509 30.5303C75.2825 30.6955 75.2264 30.8666 75.2263 30.9106C75.2263 30.9547 75.1832 31.0609 75.1307 31.1468C75.0782 31.2326 74.9498 31.5575 74.8454 31.8688C74.741 32.18 74.6049 32.5484 74.5428 32.6873C74.4808 32.8263 74.3814 33.0683 74.322 33.2252C74.2624 33.3821 74.1761 33.596 74.13 33.7006C74.084 33.8052 74.0315 33.9443 74.0133 34.0097C73.9951 34.075 73.9616 34.1713 73.9389 34.2236C73.9162 34.2759 73.8554 34.4363 73.8038 34.5802C73.7016 34.8652 72.8471 37.0517 72.6983 37.4089C72.6765 37.4612 72.5903 37.6752 72.5065 37.8844C72.4229 38.0936 72.3268 38.3289 72.2932 38.4073C72.1277 38.7925 71.7441 39.8261 71.7441 39.8866C71.7441 39.9895 72.9818 39.9615 73.0334 39.8574C73.0913 39.7406 73.1602 39.5629 73.2455 39.3106C73.2896 39.1799 73.3439 39.0301 73.3661 38.9778C73.3882 38.9256 73.4439 38.7758 73.4897 38.6451C73.5355 38.5143 73.5987 38.3752 73.6301 38.336C73.6614 38.2968 73.7 38.1807 73.7158 38.0779C73.7414 37.9111 73.9297 37.3746 74.1758 36.7671C74.2266 36.6418 74.3268 36.5089 74.4177 36.4462C74.5723 36.3396 74.5792 36.3392 76.4997 36.3392C78.9393 36.3392 78.7089 36.2576 79.0871 37.2567C79.194 37.539 79.2815 37.8246 79.2815 37.8912C79.2815 37.9578 79.3215 38.0691 79.3704 38.1385C79.4193 38.2079 79.5248 38.4466 79.6049 38.6688C79.936 39.5884 80.0495 39.8811 80.0907 39.9222C80.14 39.9713 83.0796 39.9391 83.1299 39.8888C83.1475 39.8713 83.0914 39.6592 83.0053 39.4174C82.9192 39.1756 82.827 38.8816 82.8004 38.7639C82.7738 38.6462 82.7148 38.4965 82.6692 38.4311C82.6237 38.3657 82.3784 37.7881 82.1242 37.1475C81.87 36.5068 81.6121 35.865 81.5511 35.7212C81.4901 35.5774 81.3168 35.1388 81.166 34.7466C80.9227 34.1139 80.8522 33.9288 80.7133 33.558C80.6937 33.5057 80.6544 33.4094 80.6259 33.3441C80.5975 33.2787 80.4643 32.9471 80.33 32.6071C80.1957 32.2672 80.067 31.9463 80.044 31.894C80.021 31.8417 79.8803 31.4887 79.7314 31.1096C79.4746 30.4555 79.4056 30.287 79.2519 29.9376C79.2157 29.8552 79.1861 29.764 79.1861 29.7349C79.1861 29.7058 79.1664 29.6448 79.1424 29.5994C79.0727 29.4679 78.9632 29.2067 78.8485 28.8988C78.7217 28.5585 78.5852 28.347 78.397 28.1994L78.2582 28.0906L76.2296 28.0835C75.1138 28.0796 74.1633 28.0865 74.1174 28.0989ZM26.0268 28.1461C26.0093 28.1635 25.995 28.2455 25.995 28.3282C25.995 28.5064 26.0766 28.5577 26.4959 28.6427C27.023 28.7495 27.3783 29.0049 27.4731 29.3452C27.5038 29.4551 27.5211 31.3737 27.5212 34.6776C27.5215 38.6278 27.5349 39.8517 27.5788 39.8954C27.6604 39.9768 30.2449 39.9768 30.3266 39.8954C30.3705 39.8517 30.3838 38.4723 30.3838 33.9764V28.1144H28.2212C27.0317 28.1144 26.0442 28.1286 26.0268 28.1461ZM64.3498 29.0152L63.8489 29.0415V31.4899V33.9383L64.3736 33.9714C64.97 34.009 65.8104 33.9219 66.1027 33.7922C66.8089 33.4789 67.1381 33.1997 67.3741 32.7141C67.7367 31.9682 67.7292 30.8857 67.3566 30.1605C67.1438 29.7465 66.441 29.2079 66.1136 29.2079C66.0618 29.2079 66.0195 29.1865 66.0195 29.1603C66.0195 29.1342 65.939 29.1126 65.8406 29.1125C65.7422 29.1123 65.5865 29.093 65.4947 29.0694C65.2345 29.0027 64.8942 28.9866 64.3498 29.0152ZM76.473 30.8872C76.439 30.9703 76.3936 31.081 76.3723 31.1333C76.3509 31.1856 76.3065 31.3033 76.2737 31.3948C76.2409 31.4863 76.1829 31.6361 76.1448 31.7276C76.1067 31.8191 76.0585 31.9368 76.0376 31.9891C76.0168 32.0414 75.9438 32.2078 75.8755 32.3588C75.8072 32.5099 75.7513 32.6638 75.7513 32.7007C75.7513 32.7377 75.7324 32.7796 75.7093 32.7938C75.6862 32.8081 75.6562 32.8682 75.6427 32.9273C75.5968 33.1285 75.1421 34.3175 75.017 34.5633C74.9486 34.6978 74.8926 34.8288 74.8926 34.8544C74.8926 34.88 74.8486 35.0001 74.7947 35.1214C74.7409 35.2427 74.7099 35.3631 74.726 35.389C74.7634 35.4493 78.311 35.4533 78.3484 35.393C78.3736 35.3523 78.1343 34.6874 77.9418 34.2638C77.8925 34.1552 77.7643 33.8343 77.6569 33.5507C77.5495 33.2671 77.4421 32.9922 77.4182 32.9399C77.3943 32.8876 77.3076 32.6523 77.2254 32.417C77.1433 32.1816 77.0335 31.8928 76.9814 31.7752C76.834 31.4422 76.8136 31.3909 76.7013 31.0724C76.6435 30.9082 76.5823 30.7654 76.5655 30.7549C76.5486 30.7446 76.507 30.8041 76.473 30.8872Z" fill="#131E46"/>
        </g>
    </g>
    <defs>
        <clipPath id="clip0_36_826">
            <rect width="82.2912" height="40" fill="white" transform="translate(0.854492)"/>
        </clipPath>
        <clipPath id="clip1_36_826">
            <rect width="23.8663" height="23.8663" fill="white" transform="translate(11.2603)"/>
        </clipPath>
        <clipPath id="clip2_36_826">
            <rect width="82.2912" height="11.9332" fill="white" transform="translate(0.854492 28.0668)"/>
        </clipPath>
    </defs>
</svg>
