<svg width="39" height="25" viewBox="0 0 39 25" fill="none" xmlns="http://www.w3.org/2000/svg">
<g id="CITY - Manchester City FC" clip-path="url(#clip0_502_895)">
<path id="Vector" d="M38.1317 25H1.23999C0.87618 25 0.581177 24.7054 0.581177 24.3421V0.657924C0.581177 0.294605 0.87618 0 1.23999 0H38.1318C38.4956 0 38.7906 0.294605 38.7906 0.657924V24.3421C38.7905 24.7055 38.4955 25 38.1317 25Z" fill="#C1C1C1"/>
<g id="CITY - Manchester City FC_2">
<g id="Group">
<path id="Vector_2" d="M19.5836 2C14.0696 2 9.58118 6.4884 9.58118 12.0024C9.58118 17.5165 14.0696 22.0049 19.5836 22.0049C25.0977 22.0049 29.5861 17.5165 29.5861 12.0024C29.5812 6.4884 25.0977 2 19.5836 2Z" fill="#00285E"/>
<path id="Vector_3" d="M28.5409 12.0024C28.5409 7.05493 24.5311 3.04517 19.5787 3.04517C14.6312 3.04517 10.6166 7.05493 10.6166 12.0024C10.6166 16.9499 14.6312 20.9646 19.5787 20.9646C24.5311 20.9597 28.5409 16.9499 28.5409 12.0024Z" fill="white"/>
<path id="Vector_4" d="M25.2882 12.0025C25.2882 8.85231 22.7339 6.29797 19.5837 6.29797C16.4335 6.29797 13.8792 8.85231 13.8792 12.0025C13.8792 15.1527 16.4335 17.707 19.5837 17.707C22.7339 17.707 25.2882 15.1527 25.2882 12.0025Z" fill="#6CADDF"/>
<path id="Vector_5" d="M19.5837 18.1563C16.1893 18.1563 13.4298 15.392 13.4298 11.9976C13.4298 8.60321 16.1893 5.84375 19.5837 5.84375C22.978 5.84375 25.7424 8.60321 25.7424 11.9976C25.7375 15.3969 22.978 18.1563 19.5837 18.1563ZM19.5837 6.19051C16.3797 6.19051 13.7717 8.79857 13.7717 12.0025C13.7717 15.2064 16.3797 17.8144 19.5837 17.8144C22.7876 17.8144 25.3956 15.2064 25.3956 12.0025C25.3956 8.79857 22.7876 6.19051 19.5837 6.19051Z" fill="#00285E"/>
<path id="Vector_6" d="M19.5836 21.5947C14.2943 21.5947 9.99146 17.2918 9.99146 12.0025C9.99146 6.71309 14.2943 2.41028 19.5836 2.41028C24.873 2.41028 29.1758 6.71309 29.1758 12.0025C29.1709 17.2918 24.873 21.5947 19.5836 21.5947ZM19.5836 2.61541C14.4066 2.61541 10.2015 6.82542 10.2015 12.0025C10.2015 17.1746 14.4115 21.3846 19.5836 21.3846C24.7558 21.3846 28.9658 17.1746 28.9658 12.0025C28.9658 6.82542 24.7558 2.61541 19.5836 2.61541Z" fill="#6CADDF"/>
<g id="Group_2">
<path id="Vector_7" d="M11.5788 11.7826L11.4176 11.8217L11.3737 11.6557L11.6423 11.5775H11.779V12.5152H11.5788V11.7826Z" fill="#6CADDF"/>
<path id="Vector_8" d="M12.0134 12.2564C12.0134 12.1392 12.0672 12.0757 12.1648 12.0317C12.0916 11.9878 12.0476 11.9292 12.0476 11.8266V11.8217C12.0476 11.6801 12.1795 11.5677 12.3748 11.5677C12.5702 11.5677 12.7021 11.6801 12.7021 11.8217V11.8266C12.7021 11.9243 12.6581 11.9878 12.5849 12.0317C12.6777 12.0806 12.7363 12.1392 12.7363 12.2515V12.2564C12.7363 12.4273 12.5849 12.5299 12.3797 12.5299C12.1746 12.5299 12.0134 12.4176 12.0134 12.2564ZM12.5311 12.2417C12.5311 12.1685 12.4628 12.1245 12.37 12.1245C12.2772 12.1245 12.2088 12.1685 12.2088 12.2369C12.2088 12.3004 12.2674 12.3541 12.37 12.3541C12.4725 12.3541 12.5311 12.3052 12.5311 12.2417ZM12.5067 11.851C12.5067 11.7924 12.4579 11.7387 12.3748 11.7387C12.2918 11.7387 12.243 11.7875 12.243 11.8461V11.851C12.243 11.9145 12.2967 11.9634 12.3748 11.9634C12.453 11.9634 12.5067 11.9145 12.5067 11.851Z" fill="#6CADDF"/>
</g>
<g id="Group_3">
<path id="Vector_9" d="M26.7582 12.1294C26.7093 12.1685 26.6507 12.1929 26.5677 12.1929C26.3675 12.1929 26.2356 12.0806 26.2356 11.895V11.8901C26.2356 11.7045 26.3821 11.5629 26.5921 11.5629C26.7191 11.5629 26.7875 11.5922 26.8607 11.6654C26.9291 11.7338 26.9682 11.8315 26.9682 12.0171V12.022C26.9682 12.3248 26.8266 12.5299 26.5628 12.5299C26.4261 12.5299 26.3382 12.4859 26.2551 12.4176L26.3626 12.2613C26.431 12.315 26.4896 12.3394 26.5677 12.3394C26.7093 12.3394 26.7484 12.2076 26.7582 12.1294ZM26.7631 11.8852C26.7631 11.8022 26.7045 11.7387 26.6019 11.7387C26.4993 11.7387 26.4456 11.7973 26.4456 11.8803V11.8852C26.4456 11.9682 26.5091 12.0268 26.6068 12.0268C26.7045 12.022 26.7631 11.9634 26.7631 11.8852Z" fill="#6CADDF"/>
<path id="Vector_10" d="M27.6227 12.3101H27.1685L27.1343 12.1636L27.6422 11.5726H27.8132V12.1441H27.9401V12.3101H27.8132V12.5104H27.6178V12.3101H27.6227ZM27.6227 12.1441V11.8559L27.3736 12.1441H27.6227Z" fill="#6CADDF"/>
</g>
<path id="Vector_11" d="M19.5836 17.8144C16.3797 17.8144 13.7716 15.2063 13.7716 12.0024C13.7716 8.79849 16.3797 6.19043 19.5836 6.19043C22.7875 6.19043 25.3955 8.79849 25.3955 12.0024C25.3955 15.2063 22.7875 17.8144 19.5836 17.8144ZM19.5836 6.40533C16.4969 6.40533 13.9865 8.9157 13.9865 12.0024C13.9865 15.0891 16.4969 17.5995 19.5836 17.5995C22.6703 17.5995 25.1806 15.0891 25.1806 12.0024C25.1806 8.9157 22.6703 6.40533 19.5836 6.40533Z" fill="white"/>
<path id="Vector_12" fill-rule="evenodd" clip-rule="evenodd" d="M19.4762 6.99634C16.6093 6.99634 14.9536 7.37241 14.9536 7.37241C14.9536 7.37241 14.2943 9.88767 14.6704 13.1062C14.8266 14.4591 15.9255 17.3651 19.569 18.3614C23.2125 17.37 24.3114 14.4591 24.4677 13.1062C24.8437 9.88278 24.1844 7.37241 24.1844 7.37241C24.1844 7.37241 22.5287 6.99634 19.6618 6.99634H19.4762Z" fill="#00285E"/>
<path id="Vector_13" fill-rule="evenodd" clip-rule="evenodd" d="M23.9646 12.359C23.9304 13.3358 23.779 16.2564 19.5641 17.8633C15.3834 16.3004 15.1636 13.2772 15.1636 12.359H23.9646Z" fill="#97C1E7"/>
<path id="Vector_14" fill-rule="evenodd" clip-rule="evenodd" d="M23.8376 12.1978C23.9499 9.77533 23.5397 7.81196 23.5397 7.81196C23.5397 7.81196 21.967 7.50916 19.569 7.50916C17.166 7.50916 15.569 7.84127 15.569 7.84127C15.569 7.84127 15.1343 9.81441 15.2515 12.1929H23.8376V12.1978Z" fill="white"/>
<g id="Group_4">
<path id="Vector_15" d="M19.696 17.7754L15.2467 12.3981C15.0855 13.5067 15.9842 16.7741 19.696 17.7754Z" fill="#6CADDF"/>
<path id="Vector_16" d="M16.5751 12.3639L20.6923 17.3309C21.1074 17.1307 21.4151 16.9353 21.7082 16.7009L18.1135 12.3639H16.5751Z" fill="#6CADDF"/>
<path id="Vector_17" d="M19.4323 12.3688L22.475 16.0367C22.7729 15.6997 23.0269 15.392 23.2076 15.0696L20.9707 12.3688H19.4323Z" fill="#6CADDF"/>
<path id="Vector_18" d="M23.8914 12.3688L22.3724 12.3639L23.6472 13.9024C23.8669 13.4286 23.8914 12.6325 23.8914 12.3688Z" fill="#6CADDF"/>
</g>
<path id="Vector_19" d="M21.3614 14.3809C21.3516 14.3467 21.3223 14.3174 21.2881 14.3028L21.0341 14.2149C21.0097 14.2051 20.9902 14.21 20.9657 14.2149C20.9462 14.127 20.8974 14.0488 20.8241 13.9951C20.8143 13.9902 20.8046 13.9804 20.7948 13.9756C20.7802 13.9658 20.7606 13.956 20.7411 13.9463C20.7069 13.9316 20.6727 13.9218 20.6434 13.9121C20.5701 13.8877 20.4969 13.8632 20.4041 13.7997C20.3162 13.7362 20.2771 13.6776 20.238 13.6239C20.2283 13.6093 20.2185 13.5995 20.2087 13.5848C20.1843 13.5458 20.1501 13.5116 20.1159 13.4823C20.0524 13.4383 19.9743 13.4139 19.8962 13.4139C19.8766 13.4139 19.862 13.4188 19.8424 13.4188C19.8424 13.4188 19.8424 13.4188 19.8424 13.4139C19.8473 13.3846 19.8375 13.3504 19.8229 13.326L19.6666 13.116C19.6422 13.0867 19.608 13.0671 19.5689 13.0671C19.5299 13.0671 19.4957 13.0818 19.4761 13.1111L19.3101 13.3211C19.2905 13.3455 19.2808 13.3797 19.2857 13.4139C19.271 13.4139 19.2612 13.409 19.2466 13.409C19.1684 13.409 19.0903 13.4334 19.0268 13.4774C19.017 13.4823 19.0073 13.492 19.0024 13.4969C18.9877 13.5116 18.9731 13.5214 18.9584 13.5409C18.934 13.5702 18.9145 13.5946 18.8949 13.6239C18.8461 13.6874 18.807 13.746 18.7093 13.8144C18.6214 13.8779 18.5531 13.8974 18.4896 13.917C18.4749 13.9218 18.4603 13.9267 18.4456 13.9316C18.4016 13.9414 18.3577 13.9609 18.3186 13.9902C18.2405 14.0439 18.1916 14.127 18.1721 14.2198C18.1477 14.21 18.1184 14.21 18.0891 14.2149L17.84 14.2979C17.8058 14.3077 17.7765 14.337 17.7618 14.3712C17.7521 14.4054 17.757 14.4444 17.7765 14.4737L17.9279 14.6935C17.9474 14.7179 17.9719 14.7326 18.0012 14.7424C17.9621 14.8254 17.9523 14.9279 17.9816 15.0159C17.9865 15.0256 17.9914 15.0354 17.9914 15.0452C17.9963 15.0647 18.006 15.0842 18.0207 15.1038C18.0402 15.1331 18.0598 15.1624 18.0793 15.1868C18.1281 15.2503 18.1721 15.3089 18.2063 15.4212C18.2405 15.5238 18.2356 15.5922 18.2356 15.6605C18.2356 15.6752 18.2356 15.6947 18.2356 15.7094C18.2307 15.7582 18.2356 15.8022 18.2551 15.8461C18.2844 15.934 18.3479 16.0073 18.4212 16.0513C18.4114 16.0708 18.4016 16.0903 18.4065 16.1099V16.3736C18.4065 16.4127 18.4261 16.4469 18.4554 16.4664C18.4847 16.4859 18.5237 16.4957 18.5579 16.4859L18.8168 16.4127C18.8412 16.4078 18.8559 16.3883 18.8705 16.3736C18.9487 16.4469 19.0561 16.4811 19.1587 16.4762C19.1782 16.4762 19.1977 16.4713 19.2222 16.4664C19.2563 16.4566 19.2905 16.4469 19.3198 16.4371C19.3931 16.4127 19.4664 16.3883 19.5836 16.3883C19.691 16.3883 19.7545 16.4127 19.8229 16.4322C19.8375 16.4371 19.8522 16.442 19.8668 16.4469C19.9108 16.4664 19.9596 16.4713 20.0036 16.4713C20.0964 16.4713 20.1892 16.4322 20.2576 16.3687C20.2722 16.3883 20.2869 16.398 20.3113 16.4078L20.5653 16.4859C20.5994 16.4957 20.6385 16.4908 20.6727 16.4713C20.702 16.4518 20.7215 16.4176 20.7215 16.3785L20.7264 16.1148C20.7264 16.0952 20.7215 16.0757 20.7118 16.0561C20.7899 16.0122 20.8534 15.9389 20.8778 15.851C20.8827 15.8413 20.8827 15.8315 20.8876 15.8168C20.8925 15.7973 20.8974 15.7778 20.8974 15.7533C20.9023 15.7192 20.9023 15.685 20.9023 15.6508C20.9023 15.5726 20.9023 15.4994 20.9364 15.387C20.9706 15.2845 21.0097 15.2308 21.0537 15.177C21.0634 15.1624 21.0732 15.1526 21.083 15.138C21.1123 15.1038 21.1367 15.0598 21.1513 15.0159C21.1806 14.9231 21.1709 14.8205 21.1269 14.7326C21.1513 14.7228 21.1709 14.713 21.1855 14.6935L21.3418 14.4786C21.3662 14.4542 21.376 14.42 21.3614 14.3809Z" fill="#00285E"/>
<path id="Vector_20" d="M19.4274 14.9524C19.4274 14.8694 19.4957 14.8059 19.5788 14.8059C19.6618 14.8059 19.7302 14.8743 19.7302 14.9524C19.7302 15.0355 19.6618 15.0989 19.5788 15.0989C19.4957 15.0989 19.4274 15.0306 19.4274 14.9524Z" fill="#FFC758"/>
<path id="Vector_21" d="M19.5739 13.6924C19.5495 13.5996 19.4908 13.5214 19.4176 13.4775L19.5739 13.2772L19.7204 13.4775C19.6471 13.5263 19.5983 13.5996 19.5739 13.6924ZM18.3773 14.5617C18.2992 14.508 18.2454 14.4396 18.2161 14.3566L17.9817 14.4347L18.1233 14.6399C18.1917 14.591 18.2845 14.5617 18.3773 14.5617ZM18.8413 15.9439C18.768 16.0025 18.685 16.0318 18.5922 16.0318V16.2809L18.8364 16.2076C18.8071 16.1295 18.8071 16.0367 18.8413 15.9439ZM20.3065 15.9488C20.3407 16.0367 20.3407 16.1246 20.3114 16.2076L20.5507 16.2809L20.5556 16.0318C20.4725 16.0367 20.3846 16.0074 20.3065 15.9488ZM20.7607 14.5666C20.8584 14.5617 20.9414 14.5861 21.0098 14.6399L21.1563 14.4396L20.917 14.3566C20.8974 14.4347 20.8388 14.5129 20.7607 14.5666ZM19.2711 15.9537C19.1587 15.9537 19.0708 15.8657 19.0708 15.7534C19.0708 15.7388 19.0562 15.7339 19.0464 15.7436C18.9731 15.8316 18.9194 15.9097 18.9145 16.0025C18.9097 16.1392 19.0269 16.2516 19.1685 16.2516C19.1783 16.2516 19.188 16.2516 19.1929 16.2516C19.2076 16.2516 19.2173 16.2516 19.2369 16.2467C19.3346 16.2223 19.4225 16.1734 19.5885 16.1734C19.7302 16.1734 19.8034 16.2125 19.8767 16.232C19.906 16.2418 19.9402 16.2516 19.9744 16.2516C20.116 16.2516 20.2283 16.1392 20.2283 16.0025C20.2283 15.9048 20.1697 15.8316 20.0965 15.7436C20.0916 15.7339 20.0769 15.7436 20.0769 15.7534C20.0769 15.8609 19.9841 15.9537 19.8767 15.9537C19.7937 15.9537 19.6862 15.8804 19.5788 15.8804C19.486 15.8804 19.3541 15.9537 19.2711 15.9537ZM19.1392 15.6802C19.1392 15.7729 19.2125 15.8462 19.3053 15.8462C19.315 15.8462 19.3248 15.8462 19.3394 15.8413C19.3443 15.8413 19.3492 15.8413 19.3541 15.8364H19.359C19.4176 15.8169 19.4713 15.7925 19.5739 15.7925C19.6764 15.7925 19.7253 15.8218 19.7839 15.8364C19.8034 15.8413 19.823 15.8462 19.8425 15.8462C19.9353 15.8462 20.0086 15.7729 20.0086 15.6802C20.0086 15.6557 20.0037 15.6313 19.9939 15.6118C19.989 15.602 19.9841 15.5922 19.9792 15.5874C19.9792 15.5874 19.696 15.2015 19.6862 15.1918C19.6716 15.1722 19.652 15.182 19.6423 15.1869C19.6276 15.1918 19.5934 15.2015 19.569 15.2015C19.5446 15.2015 19.5153 15.1966 19.5006 15.1869C19.4811 15.1771 19.4664 15.1722 19.4567 15.1918C19.4469 15.2064 19.2418 15.4848 19.1783 15.5727C19.1539 15.602 19.1392 15.6362 19.1392 15.6802ZM20.4432 15.5532C20.409 15.6606 20.2967 15.7143 20.1893 15.6802C20.1746 15.6753 20.1648 15.685 20.1746 15.6997C20.2381 15.7925 20.2918 15.8706 20.3846 15.9048C20.5165 15.9488 20.663 15.8755 20.7021 15.7436C20.707 15.7339 20.707 15.729 20.707 15.7192C20.7118 15.7095 20.7118 15.6948 20.7167 15.6802C20.7265 15.5776 20.7021 15.4848 20.7558 15.3236C20.7998 15.1918 20.8584 15.1331 20.9023 15.0697C20.9219 15.0452 20.9414 15.0159 20.9512 14.9866C20.9951 14.8548 20.9219 14.7082 20.79 14.6692C20.6972 14.6399 20.6044 14.674 20.497 14.7131C20.4872 14.718 20.4872 14.7278 20.5018 14.7327C20.6093 14.7668 20.6679 14.8792 20.6337 14.9866C20.6093 15.0648 20.5067 15.1429 20.4725 15.2455C20.4432 15.3285 20.4725 15.4701 20.4432 15.5532ZM20.1404 15.5922C20.2283 15.6215 20.326 15.5727 20.3553 15.4848C20.3602 15.475 20.3602 15.4653 20.3602 15.4506C20.3602 15.4457 20.3602 15.4408 20.3602 15.436V15.4311C20.3602 15.3725 20.3504 15.309 20.3797 15.2162C20.4139 15.1185 20.453 15.0794 20.4872 15.0306C20.497 15.0159 20.5067 14.9964 20.5165 14.9769C20.5458 14.8889 20.497 14.7961 20.409 14.7668C20.3846 14.762 20.3602 14.7571 20.3407 14.762C20.3309 14.762 20.3211 14.762 20.3114 14.7668C20.3114 14.7668 19.8523 14.9134 19.8376 14.9182C19.8181 14.928 19.8181 14.9476 19.8181 14.9573C19.8181 14.972 19.8132 15.0062 19.8083 15.0306C19.8034 15.0501 19.7888 15.0794 19.7741 15.0941C19.7595 15.1087 19.7497 15.1234 19.7644 15.138C19.779 15.1527 19.9744 15.4311 20.0427 15.519C20.0672 15.5532 20.1013 15.5776 20.1404 15.5922ZM20.4139 14.3126C20.5067 14.3761 20.5263 14.5031 20.4579 14.591C20.4481 14.6008 20.4579 14.6154 20.4725 14.6106C20.5849 14.5813 20.6728 14.5519 20.7314 14.4738C20.8144 14.3615 20.79 14.2052 20.6777 14.1222C20.6728 14.1173 20.663 14.1124 20.6532 14.1075C20.6435 14.0977 20.6337 14.0929 20.6142 14.088C20.5214 14.0489 20.4237 14.0391 20.2869 13.9414C20.1746 13.8584 20.1355 13.7852 20.0867 13.7217C20.072 13.6972 20.0476 13.6728 20.0183 13.6484C19.906 13.5654 19.7448 13.5898 19.6667 13.7021C19.6129 13.7803 19.6129 13.878 19.6178 13.9903C19.6178 14.0001 19.6325 14.0049 19.6374 13.9903C19.7009 13.9024 19.8278 13.8828 19.9206 13.9463C19.989 13.9952 20.033 14.1173 20.1209 14.1759C20.199 14.2491 20.3455 14.2638 20.4139 14.3126ZM20.3602 14.6154C20.4139 14.5422 20.3993 14.4347 20.3211 14.381C20.3162 14.3761 20.3065 14.3664 20.2918 14.3615C20.2869 14.3615 20.2821 14.3566 20.2772 14.3566H20.2723C20.2137 14.3371 20.1551 14.3273 20.072 14.2687C19.989 14.2101 19.9646 14.1563 19.9304 14.1124C19.9206 14.0977 19.906 14.0831 19.8913 14.0684C19.8181 14.0147 19.7106 14.0294 19.6569 14.1075C19.6423 14.127 19.6325 14.1466 19.6276 14.171C19.6276 14.1808 19.6227 14.1905 19.6227 14.2003C19.6227 14.2003 19.6227 14.6789 19.6227 14.6936C19.6227 14.718 19.6423 14.718 19.6569 14.7229C19.6716 14.7278 19.7057 14.7424 19.7204 14.7522C19.7399 14.7668 19.7595 14.7864 19.7692 14.801C19.779 14.8157 19.7888 14.8303 19.8083 14.8206C19.8278 14.8108 20.1551 14.7082 20.2576 14.674C20.3016 14.6692 20.3358 14.6447 20.3602 14.6154ZM19.2222 13.961C19.3101 13.8975 19.4371 13.917 19.5055 14.0049C19.5153 14.0147 19.5299 14.0147 19.5299 14.0001C19.5348 13.8877 19.5348 13.79 19.4811 13.7119C19.4029 13.5996 19.2418 13.5751 19.1294 13.6582C19.1197 13.6631 19.1148 13.6679 19.1099 13.6728C19.1001 13.6777 19.0904 13.6875 19.0806 13.7021C19.0122 13.7803 18.9731 13.8682 18.8364 13.9659C18.7241 14.0489 18.641 14.0635 18.5678 14.0831C18.5385 14.0929 18.5043 14.1026 18.4799 14.1222C18.3675 14.2052 18.3382 14.3615 18.4261 14.4738C18.4847 14.5519 18.5775 14.5813 18.685 14.6106C18.6948 14.6154 18.6996 14.6008 18.6948 14.591C18.6313 14.5031 18.6508 14.3761 18.7387 14.3126C18.8071 14.2638 18.9341 14.2589 19.022 14.1954C19.0904 14.1466 19.1539 14.0098 19.2222 13.961ZM19.4957 14.1075C19.442 14.0342 19.3346 14.0147 19.2613 14.0684C19.2515 14.0733 19.2466 14.0782 19.2369 14.088C19.232 14.0929 19.232 14.0929 19.2271 14.0977L19.2222 14.1026C19.188 14.1515 19.1587 14.2052 19.0757 14.2638C18.9927 14.3224 18.9341 14.3273 18.8803 14.3517C18.8608 14.3566 18.8413 14.3664 18.8266 14.3761C18.7534 14.4298 18.7338 14.5324 18.7876 14.6106C18.8022 14.6301 18.8217 14.6447 18.8413 14.6545C18.851 14.6594 18.8559 14.6643 18.8657 14.6643C18.8657 14.6643 19.3248 14.8108 19.3394 14.8157C19.3639 14.8206 19.3736 14.8059 19.3785 14.7961C19.3883 14.7864 19.4078 14.7571 19.4274 14.7424C19.4469 14.7278 19.4713 14.718 19.4908 14.7131C19.5104 14.7082 19.525 14.7034 19.525 14.6838C19.525 14.6643 19.525 14.3224 19.525 14.215C19.5299 14.1808 19.5202 14.1417 19.4957 14.1075ZM18.5189 14.9817C18.4847 14.8743 18.5434 14.762 18.6459 14.7278C18.6606 14.7229 18.6606 14.7082 18.6508 14.7034C18.5433 14.6643 18.4506 14.6301 18.3626 14.6594C18.2308 14.6985 18.1575 14.845 18.2015 14.9769C18.2015 14.9866 18.2064 14.9915 18.2112 15.0013C18.2161 15.011 18.221 15.0257 18.2308 15.0403C18.2845 15.1283 18.3578 15.1918 18.4115 15.3529C18.4554 15.4848 18.4408 15.5678 18.4408 15.646C18.4359 15.6753 18.4408 15.7095 18.4506 15.7436C18.4945 15.8755 18.6361 15.9488 18.768 15.9048C18.8608 15.8755 18.9145 15.7974 18.978 15.6997C18.9829 15.6899 18.9731 15.6802 18.9634 15.685C18.8559 15.7192 18.7436 15.6606 18.7094 15.5581C18.685 15.4799 18.7192 15.3578 18.685 15.2552C18.6557 15.1624 18.5434 15.0599 18.5189 14.9817ZM18.7387 14.7717C18.6508 14.801 18.602 14.8938 18.6313 14.9817C18.6313 14.9915 18.6361 15.0013 18.6459 15.011C18.6508 15.0159 18.6508 15.0208 18.6557 15.0208C18.6557 15.0208 18.6557 15.0257 18.6606 15.0257C18.6948 15.0745 18.7387 15.1185 18.7729 15.2113C18.8071 15.309 18.7924 15.3627 18.7973 15.4213C18.7973 15.4408 18.7973 15.4604 18.8071 15.4799C18.8364 15.5678 18.9292 15.6167 19.0171 15.5874C19.0415 15.5825 19.0611 15.5678 19.0757 15.5532C19.0806 15.5483 19.0904 15.5385 19.0952 15.5336C19.0952 15.5336 19.3785 15.1478 19.3834 15.1331C19.3981 15.1136 19.3834 15.099 19.3736 15.0892C19.3639 15.0794 19.3443 15.0501 19.3394 15.0257C19.3346 15.0062 19.3297 14.9769 19.3297 14.9573C19.3297 14.9378 19.3297 14.9231 19.3101 14.9182C19.2906 14.9134 18.9634 14.8059 18.8608 14.7717C18.8217 14.762 18.7827 14.7571 18.7387 14.7717Z" fill="#EE3124"/>
<path id="Vector_22" d="M20.9805 9.78512L22.011 9.42859C22.011 9.42859 21.9231 9.85838 21.9475 10.1905C21.9768 10.6203 22.2259 10.9475 22.2259 10.9475L20.9561 11.3871L20.9805 9.78512Z" fill="#FFC758"/>
<g id="Group_5">
<path id="Vector_23" d="M22.2258 10.9476C22.2258 10.9476 22.0012 10.6252 21.9621 10.2491C21.9328 9.96587 21.9621 9.72167 22.0109 9.42863C21.967 9.62399 21.8009 10.1759 21.3369 10.6887C21.1514 10.8938 21.0683 11.0745 21.0341 11.2015L21.0146 8.77417C21.0146 8.77417 20.7704 8.86208 20.746 8.86697C20.7167 8.87673 20.702 8.89627 20.702 8.90115C20.702 8.91581 20.6923 8.92557 20.6727 8.93046C20.6532 8.93534 20.5115 8.98907 20.4139 9.01837C20.3943 9.02325 20.4041 9.04279 20.4139 9.04279C20.5311 9.03791 20.6971 9.02325 20.7118 9.02325C20.7362 9.01837 20.746 9.0086 20.746 8.99395C20.746 8.99395 20.746 8.99395 20.746 8.98907C20.7509 8.96953 20.7655 8.95488 20.7851 8.95488C20.7997 8.95488 20.8876 8.94511 20.9413 8.93534L20.9169 11.5483H21.0341V11.3627L22.2258 10.9476Z" fill="#D4A11E"/>
</g>
<g id="Group_6">
<path id="Vector_24" d="M17.6593 11.4554C17.6593 11.4554 17.4688 11.3138 17.4151 11.0451C17.3614 10.7716 17.4981 10.6153 17.4981 10.6153L18.7484 10.1855C18.7484 10.1855 18.6703 10.4346 18.7435 10.7179C18.8363 11.0744 19.0268 11.3138 19.0268 11.3138C19.0268 11.3138 18.5677 11.2258 18.1233 11.2844C17.7033 11.3382 17.6593 11.4554 17.6593 11.4554Z" fill="#FFC758"/>
</g>
<path id="Vector_25" d="M16.2234 11.1429C16.2234 11.1429 16.3797 10.718 16.8339 10.254C17.1807 9.90237 17.4053 9.7998 17.4053 9.7998C17.4053 9.7998 17.2051 10.088 17.122 10.5617C17.0683 10.8548 17.1269 11.2259 17.1269 11.2259C17.1269 11.2259 16.8925 11.1771 16.6239 11.1478C16.3992 11.1234 16.2234 11.1429 16.2234 11.1429Z" fill="#FFC758"/>
<path id="Vector_26" d="M17.4053 9.7998C17.4053 9.7998 17.21 10.088 17.127 10.5617C17.0732 10.8548 17.1318 11.2259 17.1318 11.2259C17.1318 11.2259 17.0732 11.2113 16.9365 11.182C16.3797 11.055 17.4053 9.7998 17.4053 9.7998Z" fill="#D4A11E"/>
<path id="Vector_27" d="M18.1379 10.1416L18.1281 9.01831C18.1037 9.02808 17.8839 9.10134 17.8595 9.11111C17.8302 9.12088 17.8155 9.14041 17.8155 9.15018C17.8155 9.16483 17.8058 9.1746 17.7862 9.17948C17.7667 9.18437 17.6251 9.23321 17.5274 9.2674C17.5079 9.27228 17.5176 9.29182 17.5274 9.29182C17.6397 9.28693 17.8107 9.27228 17.8253 9.27228C17.8497 9.26739 17.8595 9.25763 17.8644 9.24298C17.8644 9.24298 17.8644 9.24297 17.8644 9.23809C17.8693 9.21855 17.8839 9.2039 17.9035 9.2039C17.9181 9.2039 18.0011 9.19413 18.0597 9.18925L18.05 10.1465H18.1379V10.1416Z" fill="#D4A11E"/>
<path id="Vector_28" d="M19.5934 9.12575H19.6813V8.04639C19.6813 8.04639 19.4371 8.1343 19.4127 8.13918C19.3834 8.14895 19.3688 8.16849 19.3688 8.17337C19.3688 8.18802 19.359 8.19779 19.3395 8.20267C19.3199 8.20756 19.1783 8.2564 19.0806 8.29059C19.0611 8.29547 19.0708 8.31501 19.0806 8.31501C19.1978 8.31012 19.3639 8.29547 19.3785 8.29547C19.403 8.29059 19.4127 8.28082 19.4176 8.26617C19.4225 8.24663 19.4371 8.23198 19.4567 8.23198C19.4713 8.23198 19.5495 8.22221 19.6081 8.21733L19.5934 9.12575Z" fill="#D4A11E"/>
<path id="Vector_29" d="M19.3737 8.30033H19.3785C19.403 8.29545 19.4127 8.28568 19.4127 8.27103C19.4127 8.25637 19.4225 8.24661 19.4372 8.24172L19.4079 8.14893C19.3785 8.15869 19.3688 8.17823 19.3688 8.18311C19.3688 8.19777 19.359 8.20265 19.3444 8.20753L19.3737 8.30033Z" fill="#FFC758"/>
<path id="Vector_30" d="M17.8204 9.26737H17.8253C17.8497 9.26249 17.8595 9.25272 17.8595 9.23807C17.8644 9.22341 17.8693 9.21365 17.8839 9.20876L17.8546 9.11597C17.8253 9.12573 17.8156 9.14527 17.8156 9.15015C17.8156 9.16481 17.8058 9.16969 17.7911 9.17457L17.8204 9.26737Z" fill="#FFC758"/>
<path id="Vector_31" d="M20.702 9.02323H20.7069C20.7313 9.01835 20.7411 9.00858 20.7411 8.99393C20.746 8.97927 20.7509 8.96951 20.7655 8.96462L20.7362 8.87183C20.7069 8.88159 20.6971 8.90113 20.6971 8.90601C20.6971 8.92067 20.6874 8.92555 20.6727 8.93043L20.702 9.02323Z" fill="#FFC758"/>
<path id="Vector_32" d="M19.0268 11.3138C19.0268 11.3138 18.8266 11.0207 18.7484 10.7081C18.68 10.4395 18.7484 10.1855 18.7484 10.1855C18.7484 10.1855 18.6165 10.6446 18.2991 10.8937C18.0793 11.0696 17.5372 11.2307 17.6642 11.4554C17.6837 11.4261 17.7374 11.3675 17.9572 11.3138C17.9816 11.3089 18.0109 11.304 18.0402 11.2991V11.6703H18.1575V11.2844C18.5628 11.2405 19.0268 11.3138 19.0268 11.3138Z" fill="#D4A11E"/>
<g id="Group_7">
<path id="Vector_33" d="M17.5275 10.5373C17.5275 10.5373 17.3809 10.4494 17.4005 10.1661C17.42 9.87304 17.5665 9.74605 17.5665 9.73629L18.5384 9.40417C18.5384 9.40417 18.4652 9.55069 18.5189 9.77048C18.5775 10.0342 18.7485 10.1856 18.7485 10.1856C18.7485 10.1856 18.2601 10.1905 17.8205 10.3419C17.6056 10.4152 17.5275 10.5373 17.5275 10.5373Z" fill="#FFC758"/>
</g>
<g id="Group_8">
<path id="Vector_34" d="M18.1038 9.92676C18.3822 9.69721 18.5336 9.40417 18.5336 9.40417C18.5336 9.40417 18.4945 9.58977 18.5238 9.75582C18.5776 10.0391 18.7436 10.1856 18.7436 10.1856C18.7436 10.1856 18.348 10.1905 17.9231 10.3126C17.6398 10.3907 17.5519 10.5031 17.5275 10.5421C17.4347 10.3273 17.8205 10.1612 18.1038 9.92676Z" fill="#D4A11E"/>
</g>
<g id="Group_9">
<path id="Vector_35" d="M19.2125 11.5287C19.2125 11.5287 18.9439 11.3285 18.8804 10.9524C18.8266 10.6545 19.0269 10.4396 19.0269 10.4396L20.5458 9.91699C20.5458 9.91699 20.4628 10.254 20.5409 10.5763C20.6288 10.9377 20.961 11.3871 20.961 11.3871C20.961 11.3871 20.3309 11.2064 19.7839 11.2747C19.2613 11.3431 19.2125 11.5287 19.2125 11.5287Z" fill="#FFC758"/>
</g>
<g id="Group_10">
<path id="Vector_36" d="M18.9047 9.12092C18.895 8.89138 19.0561 8.70578 19.061 8.69602L20.1501 8.31506C20.1501 8.31506 20.0769 8.486 20.0964 8.63252C20.1306 8.91091 20.2869 9.05743 20.2869 9.05743C20.2869 9.05743 19.8571 9.03301 19.3541 9.20884C19.0757 9.30652 19.0464 9.43838 19.0464 9.43838C19.0464 9.43838 18.9145 9.4042 18.9047 9.12092Z" fill="#FFC758"/>
</g>
<g id="Group_11">
<path id="Vector_37" d="M19.7643 8.82788C19.9596 8.65694 20.1501 8.31995 20.1501 8.31995C20.1501 8.31995 20.0769 8.49089 20.0964 8.63741C20.1306 8.91579 20.2869 9.06232 20.2869 9.06232C20.2869 9.06232 19.8229 9.05743 19.3784 9.21372C19.188 9.2821 19.0659 9.38466 19.0512 9.44327C18.9877 9.22837 19.4957 9.06232 19.7643 8.82788Z" fill="#D4A11E"/>
</g>
<g id="Group_12">
<path id="Vector_38" d="M19.061 10.3761C19.061 10.3761 18.9047 10.1953 18.8754 9.91207C18.8461 9.61903 19.0171 9.50182 19.0317 9.49205L20.2918 9.05737C20.2918 9.05737 20.2576 9.15017 20.2869 9.40414C20.3162 9.61903 20.5262 9.91207 20.5262 9.91207C20.5262 9.91207 19.8522 9.93161 19.4371 10.0928C19.1734 10.1953 19.061 10.3761 19.061 10.3761Z" fill="#FFC758"/>
</g>
<g id="Group_13">
<path id="Vector_39" d="M19.8962 9.64834C20.1697 9.4139 20.2918 9.06226 20.2918 9.06226C20.2918 9.06226 20.2576 9.2625 20.2918 9.41879C20.3553 9.69229 20.5507 9.92184 20.5507 9.92184C20.5507 9.92184 19.9646 9.93161 19.5397 10.0732C19.2613 10.166 19.0904 10.3321 19.0659 10.3809C19.0024 10.1416 19.6227 9.88277 19.8962 9.64834Z" fill="#D4A11E"/>
</g>
<g id="Group_14">
<path id="Vector_40" d="M20.9854 11.4115C20.9854 11.4115 20.6435 10.9671 20.5409 10.5763C20.4774 10.3175 20.5263 10.0244 20.5458 9.92188C20.5068 10.0586 20.37 10.5031 20.033 10.8156C19.7107 11.1136 19.0757 11.2552 19.2125 11.5336C19.2369 11.4896 19.3102 11.3822 19.569 11.3187L19.5641 11.6752H19.6862V11.2943C20.2479 11.2064 20.9854 11.4115 20.9854 11.4115Z" fill="#D4A11E"/>
</g>
<path id="Vector_41" fill-rule="evenodd" clip-rule="evenodd" d="M21.5715 12.2467C21.6496 12.232 21.7277 12.2125 21.845 12.1832C21.8401 12.1783 21.8303 12.1734 21.8254 12.1685C21.6984 12.0269 21.718 11.8755 21.7961 11.8022C22.0794 11.5385 22.0745 11.3431 22.0745 11.3431C22.0745 11.3431 21.3859 11.4848 20.4774 11.5336C20.4188 11.5385 20.2088 11.6313 20.1453 11.6313C20.0183 11.6362 19.8914 11.6411 19.7595 11.6411C18.0452 11.6557 17.5666 11.5336 17.0049 11.4311C16.4335 11.3236 16.1844 11.2113 16.1844 11.2113L16.1649 11.2699C16.1649 11.2699 16.6142 11.4457 16.9365 11.602C17.0049 11.6362 17.2735 12.0367 17.3614 12.1734H15.3248C15.2125 9.83887 15.6618 7.92922 15.6618 7.92922C15.6618 7.92922 17.2198 7.59711 19.5641 7.59711V7.34802C17.0782 7.34802 15.4225 7.69967 15.4225 7.69967C15.4225 7.69967 14.6997 10.2491 15.0806 13.287C15.2418 14.5519 16.287 16.9207 19.5544 18.0196L19.696 17.8193L19.5544 17.6191C16.4774 16.5886 15.5788 14.5031 15.4225 13.3163C15.3883 13.0525 15.3639 12.7888 15.3444 12.5348H19.569V12.1783H17.4005C17.4494 12.022 17.6008 11.9829 17.7912 12.0269C17.9866 12.0757 18.182 12.1246 18.3676 12.1148C18.8315 12.0904 18.7632 11.9683 18.8071 11.9683C19.2857 11.9976 19.4665 12.1148 19.8816 12.105C20.2625 12.1002 20.3944 11.9976 20.4286 11.9976C20.8926 11.9927 21.0684 12.2076 21.5324 12.2467C21.547 12.2467 21.5617 12.2467 21.5715 12.2467Z" fill="#FFC758"/>
<path id="Vector_42" fill-rule="evenodd" clip-rule="evenodd" d="M23.7009 7.69967C23.7009 7.69967 22.0501 7.34802 19.5641 7.34802V7.59711C21.9084 7.59711 23.4616 7.92922 23.4616 7.92922C23.4616 7.92922 23.9158 9.83887 23.7986 12.1734H21.757C21.5959 12.0171 21.6887 11.812 21.7424 11.7632C21.9817 11.5483 21.9817 11.4017 21.9817 11.4017C21.9817 11.4017 21.4298 11.5385 20.5214 11.5776C20.4628 11.5776 20.2088 11.6948 20.1453 11.6948C20.0183 11.6997 19.8425 11.7046 19.7106 11.7046C18.5287 11.7046 17.9475 11.6801 16.9219 11.4604C16.9414 11.4848 16.9512 11.4945 16.9707 11.5238C16.9756 11.5336 17.42 11.6459 17.4249 11.6557C17.4933 11.7485 17.5812 11.812 17.6887 11.8706C17.8547 11.9585 18.0989 12.0318 18.2992 12.0464C18.7631 12.0757 18.6752 11.8999 18.7192 11.8999C19.1929 11.8901 19.5006 12.0611 19.9158 12.0562C20.2967 12.0513 20.3065 11.9292 20.3456 11.9292C20.7216 11.9097 21.1026 12.0709 21.4298 12.1783H19.5641V12.5348H23.7741C23.7546 12.7937 23.7302 13.0525 23.696 13.3163C23.5397 14.508 22.641 16.5886 19.5641 17.6191V18.0196C22.8315 16.9207 23.8816 14.5568 24.0379 13.287C24.4237 10.2491 23.7009 7.69967 23.7009 7.69967Z" fill="#D4A11E"/>
<g id="Group_15">
<path id="Vector_43" d="M11.9353 8.79843L12.1062 8.4712L12.8779 8.41748L12.4872 7.74837L12.6581 7.42603L14.0305 8.14886L13.8743 8.44678L12.9756 7.97792L13.3614 8.67145L13.3565 8.67633L12.5751 8.75447L13.464 9.22334L13.3077 9.52126L11.9353 8.79843Z" fill="#00285E"/>
<path id="Vector_44" d="M13.5031 6.3565L13.7179 6.12695L15.3101 6.71303L15.0659 6.97189L14.7143 6.83513L14.265 7.31377L14.4212 7.65565L14.1819 7.90962L13.5031 6.3565ZM14.4164 6.7228L13.9084 6.52744L14.1331 7.02073L14.4164 6.7228Z" fill="#00285E"/>
<path id="Vector_45" d="M14.7339 5.22832L15.0025 5.06715L16.1209 5.50671L15.6277 4.69108L15.9158 4.51526L16.7168 5.83882L16.4677 5.99023L15.3151 5.53602L15.8279 6.38095L15.5397 6.55677L14.7339 5.22832Z" fill="#00285E"/>
<path id="Vector_46" d="M16.8193 4.95962C16.6972 4.52983 16.9121 4.09027 17.3712 3.9584C17.6496 3.87537 17.8498 3.92421 18.0256 4.01701L17.884 4.31981C17.7375 4.24655 17.6056 4.21725 17.4542 4.26121C17.2051 4.33447 17.083 4.59332 17.1563 4.85217V4.85705C17.2295 5.11102 17.4688 5.27219 17.7228 5.19893C17.8938 5.15009 17.9768 5.05241 18.0647 4.91078L18.3333 5.06218C18.2259 5.27219 18.0842 5.4236 17.801 5.50663C17.3663 5.63361 16.9414 5.38941 16.8193 4.95962Z" fill="#00285E"/>
<path id="Vector_47" d="M18.6801 3.71424L19.017 3.70447L19.0366 4.31986L19.6617 4.30521L19.6471 3.68982L19.989 3.68005L20.028 5.23317L19.6862 5.24294L19.6715 4.61778L19.0415 4.63732L19.061 5.25759L18.7191 5.26736L18.6801 3.71424Z" fill="#00285E"/>
<path id="Vector_48" d="M21.9963 5.44319L22.2796 5.30644C22.3578 5.46761 22.4603 5.59948 22.6215 5.67274C22.7485 5.73135 22.8462 5.7167 22.8852 5.63367V5.62878C22.9243 5.55064 22.8901 5.48715 22.685 5.32109C22.4359 5.11596 22.2894 4.95479 22.4164 4.6764V4.67152C22.5336 4.41755 22.8169 4.34429 23.105 4.47616C23.3101 4.56895 23.4567 4.71547 23.5446 4.89618L23.2759 5.05735C23.1929 4.91083 23.0904 4.80339 22.9731 4.74966C22.8559 4.69594 22.768 4.72036 22.7338 4.78873V4.79362C22.6899 4.88641 22.7387 4.94502 22.9536 5.12085C23.2027 5.32597 23.3199 5.50668 23.2027 5.75088V5.75577C23.0757 6.03416 22.7875 6.09276 22.4847 5.95601C22.2796 5.84856 22.0989 5.67274 21.9963 5.44319Z" fill="#00285E"/>
<path id="Vector_49" d="M24.2625 5.53602L23.8864 5.24786L24.0769 4.99878L25.0977 5.77534L24.9072 6.0293L24.5311 5.74115L23.7839 6.72283L23.5104 6.51771L24.2625 5.53602Z" fill="#00285E"/>
<path id="Vector_50" d="M26.7143 7.73865L27.0318 8.37357C27.1197 8.54939 27.1392 8.71056 27.0953 8.84732C27.0562 8.96453 26.9683 9.05733 26.8364 9.1257H26.8315C26.6069 9.23804 26.4066 9.1892 26.2503 9.04268L25.9231 9.62876L25.7424 9.27222L26.0355 8.74964L25.9134 8.51032L25.4689 8.73498L25.3175 8.43218L26.7143 7.73865ZM26.348 8.69103C26.4213 8.83755 26.5434 8.88639 26.6606 8.82778H26.6655C26.7974 8.76429 26.8169 8.6373 26.7436 8.49078L26.5922 8.18798L26.1966 8.38822L26.348 8.69103Z" fill="#00285E"/>
<path id="Vector_51" d="M20.9609 4.75451L21.5324 4.87661L21.6935 4.60311L21.0293 4.45659L21.0928 4.14889L21.9035 4.32472L21.9719 4.03168L20.8242 3.78259L20.4969 5.29663L21.6545 5.5506L21.7179 5.25268L20.8926 5.07197L20.9609 4.75451Z" fill="#00285E"/>
<path id="Vector_52" d="M25.5666 6.23926L24.3749 7.23559L25.1368 8.13914L25.3663 7.94378L24.8291 7.29909L25.0782 7.08907L25.4591 7.54329L25.7668 7.44072L25.3126 6.89371L25.5519 6.69347L26.0843 7.32839L26.3187 7.13303L25.5666 6.23926Z" fill="#00285E"/>
<g id="Group_16">
<path id="Vector_53" d="M16.9512 19.4652C16.9512 19.011 17.2882 18.6447 17.7766 18.6447C18.0745 18.6447 18.2503 18.7423 18.4017 18.8889L18.1819 19.1428C18.0598 19.0305 17.9377 18.967 17.7766 18.967C17.5079 18.967 17.3175 19.1868 17.3175 19.4603V19.4652C17.3175 19.7338 17.5031 19.9633 17.7766 19.9633C17.9573 19.9633 18.0696 19.8901 18.1917 19.7777L18.4115 20.0024C18.2503 20.1782 18.0696 20.2857 17.7619 20.2857C17.2979 20.2759 16.9512 19.9145 16.9512 19.4652Z" fill="#00285E"/>
<path id="Vector_54" d="M18.7485 18.6691H19.0953V20.2466H18.7485V18.6691Z" fill="#00285E"/>
<path id="Vector_55" d="M19.9011 18.9914H19.4225V18.6691H20.7314V18.9914H20.2528V20.2515H19.906V18.9914H19.9011Z" fill="#00285E"/>
<path id="Vector_56" d="M21.4835 19.6263L20.8779 18.6691H21.2833L21.6594 19.304L22.0403 18.6691H22.4359L21.8303 19.6166V20.2466H21.4835V19.6263Z" fill="#00285E"/>
</g>
</g>
</g>
</g>
</g>
<defs>
<clipPath id="clip0_502_895">
<rect width="38.2094" height="25" fill="white" transform="translate(0.581177)"/>
</clipPath>
</defs>
</svg>
