<svg width="66" height="20" viewBox="0 0 66 20" fill="none" xmlns="http://www.w3.org/2000/svg">
    <g clip-path="url(#clip0_102:3)">
        <path d="M27.0756 1.99841L24.7828 3.70872L28.642 6.4487H33.3588L27.0756 1.99841Z" fill="#005CB9"/>
        <path d="M24.2665 0L15.183 6.44855H15.323L24.9053 0.453755L24.2665 0Z" fill="#00833E"/>
        <path d="M24.9753 0.497314L16.6793 6.44848H16.8193L25.6053 0.951069L24.9753 0.497314Z" fill="#00833E"/>
        <path d="M25.6754 0.994751L18.1846 6.44853H18.3158L26.3142 1.44851L25.6754 0.994751Z" fill="#00833E"/>
        <path d="M26.3755 1.49207L19.681 6.44846H19.821L27.0144 1.94582L26.3755 1.49207Z" fill="#00833E"/>
        <path d="M21.4574 17.0856L23.759 15.3666L19.8998 12.6266H15.183L21.4574 17.0856Z" fill="#005CB9"/>
        <path d="M24.2665 19.0751L33.3588 12.6266H33.2188L23.6277 18.6214L24.2665 19.0751Z" fill="#00833E"/>
        <path d="M23.5664 18.5778L31.8536 12.6266H31.7136L22.9276 18.124L23.5664 18.5778Z" fill="#00833E"/>
        <path d="M22.8664 18.0804L30.3572 12.6266H30.2172L22.2275 17.6266L22.8664 18.0804Z" fill="#00833E"/>
        <path d="M22.1663 17.583L28.8608 12.6266H28.7208L21.5275 17.1292L22.1663 17.583Z" fill="#00833E"/>
        <path d="M14.5791 11.8151C13.9315 11.8151 13.4152 11.5708 13.0389 11.1432C12.6889 10.7331 12.4963 10.1921 12.4963 9.53761C12.4963 9.01405 12.6101 8.56902 12.8201 8.20253C13.1877 7.56552 13.844 7.17285 14.6053 7.17285C15.0691 7.17285 15.5154 7.29502 15.8217 7.52189L15.4892 7.94074C15.2179 7.7575 14.9466 7.67896 14.6141 7.67896C14.124 7.67896 13.7477 7.90584 13.5115 8.32469C13.3539 8.61265 13.2752 8.98787 13.2752 9.52889C13.2752 10.035 13.3277 10.323 13.4589 10.5847C13.6865 11.0821 14.1503 11.3177 14.6753 11.3177C15.0604 11.3177 15.3229 11.2217 15.5854 11.0385L15.9267 11.4486C15.5329 11.6929 15.0866 11.8151 14.5791 11.8151Z" fill="#005CB9"/>
        <path d="M18.9633 11.7539H16.4868V7.26001H17.1956V11.2304H19.0771L18.9633 11.7539Z" fill="#005CB9"/>
        <path d="M21.0985 11.8238C19.7334 11.8238 19.0508 10.8377 19.0508 9.49392C19.0508 8.01049 19.8471 7.18152 21.0635 7.18152C22.5249 7.18152 23.1025 8.281 23.1025 9.53755C23.1025 10.9075 22.3587 11.8238 21.0985 11.8238ZM21.0635 7.67018C20.1884 7.67018 19.8384 8.26355 19.8384 9.41539C19.8384 10.5585 20.1359 11.3438 21.1073 11.3438C21.8774 11.3438 22.3149 10.8377 22.3149 9.58991C22.3061 8.37699 21.9999 7.67018 21.0635 7.67018Z" fill="#005CB9"/>
        <path d="M26.3228 11.7539C26.1828 11.5009 26.1128 11.3962 25.9115 11.0907C25.5265 10.5148 25.404 10.3316 25.0539 9.96509C24.9227 9.83419 24.8177 9.77311 24.6076 9.76439V11.7539H23.8988V7.26001H25.299C25.8853 7.26001 26.2353 7.38217 26.4716 7.58287C26.6904 7.77485 26.9091 8.07153 26.9091 8.50784C26.9091 9.19719 26.4278 9.75566 25.614 9.73821C25.9115 9.91273 26.2616 10.4363 26.4541 10.7068C26.6729 11.0122 27.0492 11.6056 27.1542 11.7452H26.3228V11.7539ZM25.7278 7.86211C25.5877 7.80975 25.3865 7.77485 25.1239 7.77485H24.6076V9.33681H25.0889C25.5265 9.33681 25.7715 9.27573 25.9465 9.11866C26.0953 8.98777 26.1916 8.76962 26.1916 8.50784C26.1916 8.20242 26.0078 7.95809 25.7278 7.86211Z" fill="#005CB9"/>
        <path d="M29.5695 11.8238C28.2043 11.8238 27.5305 10.8377 27.5305 9.49392C27.5305 8.01049 28.3181 7.18152 29.5345 7.18152C30.9959 7.18152 31.5735 8.281 31.5735 9.53755C31.5735 10.9075 30.8296 11.8238 29.5695 11.8238ZM29.5345 7.67018C28.6594 7.67018 28.3094 8.26355 28.3094 9.41539C28.3094 10.5585 28.6069 11.3438 29.5782 11.3438C30.3483 11.3438 30.7859 10.8377 30.7859 9.58991C30.7771 8.37699 30.4709 7.67018 29.5345 7.67018Z" fill="#005CB9"/>
        <path d="M34.6801 11.7539L33.5687 9.82547L32.5011 11.7539H31.661L33.1574 9.33681L31.836 7.26001H32.6761L33.5687 8.78707L34.4176 7.26001H35.2402L33.9888 9.29318L35.5289 11.7539H34.6801Z" fill="#005CB9"/>
        <path d="M3.25537 7.77503H1.96897V11.7454H1.2864V7.77503H0V7.25146H3.32538L3.25537 7.77503Z" fill="#005CB9"/>
        <path d="M6.44946 11.7453V9.61617H4.5505V11.7453H3.86792V7.26013H4.5505V9.10133H6.44071V7.26013H7.14079V11.754H6.44946V11.7453Z" fill="#005CB9"/>
        <path d="M8.00708 11.7453V7.26013H10.7024L10.6061 7.77497H8.69841V9.14496H10.2911V9.67725H8.70716V11.213H10.7811V11.754H8.00708V11.7453Z" fill="#005CB9"/>
        <path d="M39.2832 11.8151C38.6356 11.8151 38.1193 11.5708 37.743 11.1432C37.393 10.7331 37.2004 10.1921 37.2004 9.53761C37.2004 9.01405 37.3142 8.56902 37.5242 8.20253C37.8918 7.56552 38.5481 7.17285 39.3094 7.17285C39.7732 7.17285 40.2195 7.29502 40.5258 7.52189L40.1845 7.93202C39.9132 7.74877 39.642 7.67024 39.3094 7.67024C38.8194 7.67024 38.4431 7.89711 38.2068 8.31596C38.0493 8.60392 37.9705 8.97914 37.9705 9.52016C37.9705 10.0263 38.023 10.3142 38.1543 10.576C38.3818 11.0734 38.8456 11.309 39.3707 11.309C39.7557 11.309 40.0183 11.213 40.2808 11.0298L40.6221 11.4399C40.237 11.6929 39.782 11.8151 39.2832 11.8151Z" fill="#005CB9"/>
        <path d="M42.8099 11.8238C41.4447 11.8238 40.7709 10.8377 40.7709 9.49392C40.7709 8.01049 41.5585 7.18152 42.7748 7.18152C44.2363 7.18152 44.8138 8.281 44.8138 9.53755C44.8138 10.9075 44.07 11.8238 42.8099 11.8238ZM42.7748 7.67018C41.8998 7.67018 41.5497 8.26355 41.5497 9.41539C41.5497 10.5585 41.8472 11.3438 42.8186 11.3438C43.5887 11.3438 44.0262 10.8377 44.0262 9.58991C44.0175 8.36826 43.7112 7.67018 42.7748 7.67018Z" fill="#005CB9"/>
        <path d="M49.5218 11.7452L49.2593 8.69108C49.233 8.44675 49.233 8.10644 49.2243 7.98427H49.2068C49.1805 8.11516 49.1018 8.3944 49.023 8.63873L48.0429 11.7452H47.4478L46.5377 8.76962C46.4327 8.42057 46.3452 8.08898 46.3189 7.96682H46.3014C46.2927 8.12389 46.2752 8.53401 46.2489 8.76962L45.9952 11.7452H45.3301L45.7764 7.26001H46.7477L47.5791 10.0087C47.6841 10.3752 47.7453 10.6457 47.7629 10.7504H47.7804C47.7979 10.637 47.8591 10.349 47.9554 10.0436L48.8217 7.26001H49.8018L50.2306 11.7452H49.5218Z" fill="#005CB9"/>
        <path d="M53.6522 9.71203C53.3984 9.88655 53.1359 9.98254 52.6108 9.98254H51.7882V11.7452H51.0969V7.26001H52.4183C53.0571 7.26001 53.3284 7.32109 53.5997 7.46944C54.0285 7.71376 54.256 8.08898 54.256 8.56892C54.256 9.0663 54.0897 9.40662 53.6522 9.71203ZM53.2409 7.993C53.0659 7.84466 52.8209 7.77485 52.4358 7.77485H51.7882V9.48515H52.5671C52.9084 9.48515 53.1184 9.41534 53.2759 9.2321C53.4159 9.07503 53.4859 8.89178 53.4859 8.63873C53.4859 8.34204 53.4072 8.13261 53.2409 7.993Z" fill="#005CB9"/>
        <path d="M57.249 11.7454L56.8114 10.4714H55.0962L54.6674 11.7454H53.9498L55.5688 7.25146H56.4351L58.0278 11.7454H57.249ZM55.9976 7.87974H55.9538C55.8838 8.1328 55.3587 9.74711 55.2712 9.95654H56.6626C56.5751 9.74711 56.0588 8.1328 55.9976 7.87974Z" fill="#005CB9"/>
        <path d="M61.0294 11.7452L59.7255 9.36299C59.4717 8.90051 59.2179 8.3944 59.1217 8.13261L59.0779 8.14134C59.1129 8.52529 59.1304 8.97904 59.1392 9.38917L59.1654 11.7452H58.4653V7.26001H59.2704L60.6531 9.73821C60.8631 10.1134 61.1081 10.6893 61.1431 10.8115L61.1869 10.8028C61.1694 10.6719 61.1169 9.96509 61.1169 9.4677L61.0994 7.26001H61.7645V11.7539H61.0294V11.7452Z" fill="#005CB9"/>
        <path d="M64.4248 9.96509V11.7539H63.7072V9.94763L62.132 7.26001H62.9809L63.8035 8.78707C63.9085 8.97904 63.996 9.16229 64.0747 9.37171C64.1622 9.18847 64.2585 9.00522 64.3635 8.7958L65.1949 7.26001H66L64.4248 9.96509Z" fill="#005CB9"/>
    </g>
    <defs>
        <clipPath id="clip0_102:3">
            <rect width="66" height="19.0751" fill="white"/>
        </clipPath>
    </defs>
</svg>
