<svg width="124" height="40" viewBox="0 0 124 40" fill="none" xmlns="http://www.w3.org/2000/svg">
    <g clip-path="url(#clip0_34_1895)">
        <path d="M24.7097 15.9286C31.0091 11.2891 48.6305 5.41536 69.2739 13.8004L78.042 11.885C53.1848 2.64872 32.1158 9.41634 24.7097 15.9286Z" fill="#002F6C"/>
        <path d="M24.7097 15.9286C33.6906 7.41587 60.8888 -0.671228 91.9603 14.0132L100.941 12.0553C65.6134 -3.52299 34.8399 5.5005 24.7097 15.9286Z" fill="#3E87CB"/>
        <path d="M24.7097 15.9286C35.0101 4.86204 65.1452 -4.37428 100.686 8.35226L109.369 6.47946C69.6995 -7.18348 36.1593 3.07437 24.7097 15.9286Z" fill="#9ADBE8"/>
        <path d="M60.3355 34.231V34.8694H53.1423V34.231C54.632 34.0607 55.2279 33.6351 55.2279 32.0602V25.0372C55.2705 21.8024 54.7171 20.9937 52.6741 20.9937C51.2269 20.9937 49.9075 21.7598 49.2264 23.0367V32.0602C49.1839 33.6351 49.8223 34.1033 51.3121 34.231V34.8694H44.0337V34.231C45.566 34.0607 46.1618 33.6351 46.2044 32.0602V24.9095C46.2044 23.1219 46.0767 20.9937 43.906 20.9937C42.4162 21.0363 40.9691 21.7598 40.0752 22.9516V32.0602C40.1178 33.6351 40.7137 34.1033 42.246 34.231V34.8694H34.925V34.1884C36.585 34.0182 37.0532 33.4648 37.0107 32.0177V23.7178C37.0107 21.845 36.7978 21.547 34.925 21.547V20.7809L40.0327 18.9506V21.7173C41.7352 19.8445 43.6932 18.9932 45.268 18.9932C46.928 19.0358 48.3752 20.2275 48.7157 21.845C49.95 20.3978 52.0356 18.9932 53.9084 18.9932C57.9945 18.9932 58.2499 22.5685 58.2499 25.5906V32.0602C58.2499 33.6351 58.8033 34.1033 60.3355 34.231ZM73.1472 29.0808C72.1257 30.8685 70.2954 32.7413 68.0396 32.7413C64.3791 32.7413 62.7617 28.6126 62.6766 25.3777H73.1472C73.0621 21.8024 70.9765 18.9932 67.1457 18.9932C62.9319 18.9932 60.2504 22.526 60.2504 27.4208C60.2504 31.5495 62.8042 35.21 66.7201 35.1674C70.2529 35.21 72.8067 32.3156 73.8708 29.251L73.1472 29.0808ZM66.4222 20.3552C68.5078 20.3552 69.4442 22.1855 69.5293 24.1008H62.8042C63.1448 22.0578 64.1663 20.3552 66.4222 20.3552ZM27.1784 18.9932C24.4544 18.9081 21.9431 20.4404 20.7939 22.9091L20.5811 15.9712H19.7724C19.2616 17.2906 18.6657 17.3758 17.4739 16.9927C16.9206 16.8224 16.2396 16.5245 15.4309 16.3117C14.4519 16.0563 13.4729 15.9286 12.4514 15.9286C5.64123 15.9286 0.874104 20.9937 0.874104 27.889C0.788977 35.4228 5.85405 39.7217 12.4514 39.7643C15.7288 39.7217 18.836 38.1894 20.8365 35.593L20.198 34.7843C17.857 37.1253 16.0693 38.0192 12.7494 38.0617C7.30122 38.0617 4.87509 32.9541 4.87509 28.1444C4.87509 21.9727 7.30122 17.2055 12.494 17.4609C18.1975 17.7588 19.7298 21.9727 19.8149 27.2931C19.8149 31.5069 22.7944 35.21 27.1359 35.1674C31.8605 35.21 34.7548 31.0813 34.7548 26.5695C34.7548 22.0578 31.6476 19.0358 27.1784 18.9932ZM31.3923 28.6126C31.1369 31.5495 29.6897 34.231 27.1784 34.0182C24.0713 33.7628 22.7944 29.9321 23.22 25.1224C23.518 22.1429 24.9651 19.9722 27.3913 20.1424C31.0943 20.4829 31.6476 25.5054 31.3923 28.6126ZM90.3855 32.0602L90.3429 18.6527L85.3204 20.6957C85.1502 19.6317 84.1712 18.9932 83.0645 18.9932C81.4471 18.9932 80.0425 20.6957 79.3189 21.845V18.9506L73.7857 20.8234V21.547C76.3821 20.7809 76.2969 22.1003 76.2969 24.5265V32.0602C76.2969 33.4648 75.8287 34.0607 73.7857 34.231V34.8694H81.8302V34.231C80.1702 34.1033 79.3189 33.8479 79.3189 32.0602V23.8455C79.3189 22.9091 80.383 21.2916 81.3194 21.2491C82.8092 21.1639 82.4261 22.6111 83.9158 22.6537C84.7671 22.6962 85.3204 21.9301 86.2994 21.8875C87.406 21.8024 87.3635 23.0793 87.3635 24.0157V32.1028C87.3209 33.5074 86.8527 34.1459 84.7671 34.2736V34.9546H92.8542V34.3161C91.2793 34.1033 90.3855 33.8479 90.3855 32.0602ZM119.499 35.1248L111.327 15.886H110.518L105.07 28.9105C104.134 31.209 102.644 32.571 100.047 32.571C96.6424 32.6561 94.8972 29.1233 94.8972 25.9736C94.8972 23.1644 96.3018 20.0999 99.1536 20.0573C100.899 20.0573 101.665 21.0363 101.665 22.3557C101.707 23.207 102.431 23.888 103.282 23.9306C104.176 23.9306 104.857 23.2496 104.9 22.3557C104.729 19.9722 101.707 18.9081 99.7921 18.9081C94.727 18.9081 92.1732 22.8665 92.1732 27.3357C92.1732 31.6346 94.8547 35.1248 98.5152 35.0823C100.516 35.0823 102.388 34.1884 103.58 32.571C103.069 33.933 102.474 35.2525 101.75 36.5294C101.197 37.4658 100.516 38.232 99.3239 38.3171V39.2535H106.091V38.4448C105.283 38.4448 103.836 38.3171 103.793 37.0402C103.75 35.7633 105.155 33.1669 105.581 31.8474H114.306L115.498 34.6992C116.605 37.2956 117.158 38.2745 113.966 38.4448V39.2535H122.734V38.4448C120.733 38.4874 120.138 36.4869 119.499 35.1248ZM106.304 30.3151L110.007 21.1214L113.796 30.3151H106.304Z" fill="#002F6C"/>
    </g>
    <defs>
        <clipPath id="clip0_34_1895">
            <rect width="123.158" height="40" fill="white" transform="translate(0.421143)"/>
        </clipPath>
    </defs>
</svg>
