<svg width="114" height="40" viewBox="0 0 114 40" fill="none" xmlns="http://www.w3.org/2000/svg">
<g clip-path="url(#clip0_112_4864)">
<path d="M56.9904 2.0095C57.4077 1.32809 58.1001 0.615113 58.8456 0.313559C60.1289 -0.270314 61.8489 -0.0192259 62.896 0.904673C63.9091 1.82257 64.4231 3.08061 64.1806 4.48711C64.4291 4.44129 64.6799 4.28219 64.943 4.19167C66.5157 3.74777 68.1791 4.22912 69.1875 5.57757C69.945 6.54017 70.1429 8.03572 69.6882 9.1986C69.4626 9.78349 69.0778 10.3094 68.5774 10.7582L68.6279 10.8089C70.091 10.8799 71.529 12.0162 71.9728 13.4094C72.454 14.8146 72.0307 16.3163 71.0031 17.3441C70.1635 18.1739 69.0839 18.4611 67.8838 18.4369H46.0961C44.3071 18.4755 42.9248 17.683 42.1806 16.0921C41.5967 14.7266 41.885 12.9801 42.9754 11.9392C43.6629 11.2202 44.5242 10.9258 45.453 10.7775C44.4012 9.80171 43.8945 8.4665 44.1901 7.03465C44.4012 5.87438 45.3903 4.6995 46.5265 4.29419C47.5276 3.89611 48.8835 3.96604 49.8002 4.50635L49.8328 4.46652C49.5566 2.88758 50.2563 1.46309 51.566 0.589766C52.7337 -0.200158 54.6009 -0.179791 55.7443 0.659922C56.2583 0.974602 56.6816 1.51502 56.9904 2.0095Z" fill="white"/>
<path d="M63.159 2.59935C63.6271 3.54384 63.3521 4.7814 62.8635 5.62938L59.0833 14.1343L59.0506 14.1742L57.6841 5.54621C57.5745 4.7177 58.4597 4.36421 58.9808 3.96613C58.9543 3.84438 58.8203 3.85038 58.736 3.79369L57.4587 3.78033L57.4199 3.74175C57.4272 2.67064 58.0038 1.68156 58.9808 1.16174C60.0014 0.571979 61.439 0.732317 62.3243 1.48864C62.6838 1.80931 62.9866 2.18193 63.159 2.59935Z" fill="#645FAA"/>
<path d="M56.1943 2.30379C56.5032 2.87556 56.6817 3.52461 56.5731 4.24336L55.0316 14.1222C55.04 14.1342 55.0256 14.1476 55.0134 14.1535L54.6142 13.3587L50.7507 4.73071C50.3912 3.61977 50.7242 2.45825 51.5335 1.66199C52.3489 0.834608 53.6902 0.610225 54.7565 1.05899C55.3211 1.30272 55.8602 1.75149 56.1943 2.30379Z" fill="#C9234A"/>
<path d="M68.7509 6.46276C69.2707 7.3492 69.1538 8.69064 68.5759 9.51326C68.2178 10.091 67.6266 10.3793 67.126 10.7581L59.1206 16.2534H59.1023L59.1917 15.9905L63.4352 6.41218C64.0709 5.28313 65.2843 4.71137 66.5677 4.88381C67.447 5.04438 68.3263 5.61603 68.7509 6.46276Z" fill="#0089CF"/>
<path d="M50.565 6.41218L54.981 16.2523H54.9099L46.007 10.1164C45.101 9.35292 44.7296 8.20939 45.0371 7.05387C45.2675 6.18779 45.9864 5.37852 46.8416 5.0575C48.2419 4.54492 49.8195 5.09009 50.565 6.41218Z" fill="#F36F21"/>
<path d="M71.0741 13.4093C71.5179 14.3465 71.3431 15.6299 70.7086 16.4271C70.0792 17.1907 69.2371 17.608 68.2491 17.5814L58.7563 17.5876L66.7087 12.0548C67.4857 11.5542 68.6666 11.4636 69.5145 11.8689C70.1694 12.1259 70.7858 12.7676 71.0741 13.4093Z" fill="#0DB14B"/>
<path d="M42.9633 13.4093C42.5208 14.3465 42.6944 15.6299 43.3301 16.4271C43.9597 17.1907 44.7992 17.608 45.7883 17.5814L55.2811 17.5876L47.3287 12.0548C46.5519 11.5542 45.3711 11.4636 44.5243 11.8689C43.8691 12.1259 43.2529 12.7676 42.9633 13.4093Z" fill="#FDB913"/>
<path d="M25.9174 23.27C21.3049 23.27 17.5562 27.0213 17.5562 31.6339C17.5562 36.2452 21.3049 39.9988 25.9174 39.9988C30.53 39.9988 34.2813 36.2452 34.2813 31.6339C34.2813 27.0214 30.53 23.27 25.9174 23.27ZM25.9174 38.3511C22.2132 38.3511 19.1989 35.3371 19.1989 31.634C19.1989 27.9319 22.2132 24.9178 25.9174 24.9178C29.6217 24.9178 32.636 27.9321 32.636 31.634C32.636 35.3371 29.6217 38.3511 25.9174 38.3511Z" fill="black"/>
<path d="M98.0291 31.74C97.5804 31.5047 94.8508 30.0995 94.4587 29.8957C93.027 29.1635 92.5192 28.5169 92.5192 27.4217C92.5192 25.8996 93.7689 24.9165 95.707 24.9165C96.8447 24.9165 97.9445 25.4171 98.59 25.7801C98.7071 25.844 98.8458 25.8802 98.9904 25.8802C99.4416 25.8802 99.8119 25.51 99.8119 25.0589C99.8119 24.7549 99.6452 24.4882 99.4006 24.3459C98.5877 23.8922 97.2016 23.2711 95.707 23.2711C92.8593 23.2711 90.8727 24.9766 90.8727 27.4217C90.8727 29.6159 92.3153 30.6508 93.7266 31.3721C94.1221 31.5736 96.8832 32.9968 97.2968 33.2151C98.3873 33.7856 98.9904 34.6421 98.9904 35.6276C98.9904 36.9484 97.8712 38.3524 95.8002 38.3524C93.7857 38.3524 92.2213 37.0014 91.7895 36.5852L91.6603 36.4621L90.4434 37.5718L90.5856 37.7142C91.1259 38.25 93.1018 39.9987 95.8002 39.9987C98.8253 39.9987 100.633 37.7757 100.633 35.6276C100.633 34.0234 99.6853 32.6059 98.0291 31.74Z" fill="black"/>
<path d="M8.77017 24.9176C10.5661 24.9176 12.2536 25.6174 13.5201 26.8826C13.8217 27.1829 14.3886 27.1829 14.6853 26.8826C14.8421 26.7294 14.9253 26.5232 14.9253 26.3024C14.9253 26.084 14.8421 25.8754 14.6853 25.7222L14.584 25.6184C13.0183 24.1034 10.9521 23.27 8.77017 23.27C4.15996 23.27 0.408691 27.0225 0.408691 31.6326C0.408691 36.2453 4.15996 39.9989 8.77017 39.9989C11.2041 39.9989 13.397 38.9546 14.9253 37.2897L13.7613 36.1246C12.5309 37.49 10.7506 38.3512 8.77006 38.3512C5.067 38.3512 2.0527 35.3359 2.0527 31.6327C2.05281 27.9332 5.06711 24.9176 8.77017 24.9176Z" fill="black"/>
<path d="M65.4654 24.9176C67.2591 24.9176 68.9489 25.6174 70.2153 26.8826C70.5156 27.1829 71.0827 27.1829 71.3794 26.8826C71.5362 26.7294 71.623 26.5232 71.623 26.3024C71.623 26.084 71.5361 25.8754 71.3794 25.7222L71.2792 25.6184C69.71 24.1034 67.6462 23.27 65.4654 23.27C60.8542 23.27 57.1016 27.0224 57.1016 31.6325C57.1016 36.2452 60.8542 39.9988 65.4654 39.9988C67.8982 39.9988 70.0911 38.9545 71.6218 37.2896L70.4565 36.1245C69.2262 37.4899 67.4433 38.3511 65.4654 38.3511C61.7611 38.3511 58.7456 35.3358 58.7456 31.6326C58.7456 27.9332 61.7611 24.9176 65.4654 24.9176Z" fill="black"/>
<path d="M51.2986 23.27C50.9898 23.27 50.7461 23.4691 50.6133 23.7259C50.4782 23.9828 45.6921 35.8217 45.6909 35.8217C45.6909 35.8217 40.9048 23.9827 40.7708 23.7259C40.6369 23.4689 40.3934 23.27 40.0846 23.27C39.7239 23.27 39.4525 23.5354 39.3573 23.8696C39.262 24.206 36.5614 39.1061 36.5614 39.1061C36.5516 39.1545 36.5469 39.2052 36.5469 39.2569C36.5469 39.6669 36.881 39.9988 37.2887 39.9988C37.6506 39.9988 37.9521 39.7408 38.0172 39.3994L40.356 26.651C40.356 26.651 44.8684 37.7987 44.9999 38.0639C45.1326 38.3282 45.3786 38.5344 45.6923 38.5344C46.0058 38.5344 46.2508 38.3282 46.3822 38.0639C46.5149 37.7986 51.0272 26.651 51.0272 26.651L53.4577 39.9071H54.968C54.968 39.9071 52.1226 24.2059 52.0273 23.8696C51.9305 23.5354 51.6591 23.27 51.2986 23.27Z" fill="black"/>
<path d="M81.0337 23.2712C80.7213 23.27 80.479 23.4738 80.3426 23.7392C80.2074 24.0034 74.1488 38.9676 74.1488 38.9676C74.1126 39.0555 74.092 39.1534 74.092 39.257C74.092 39.667 74.4238 40 74.8339 40C75.1463 40 75.4141 39.8046 75.524 39.5284L77.8759 33.7424H84.1927L86.7018 39.9071H88.3047C88.3047 39.9071 81.8564 24.0033 81.7238 23.739C81.5921 23.4738 81.3472 23.27 81.0337 23.2712ZM78.5464 32.0957L81.0336 25.9802L83.5232 32.0957H78.5464Z" fill="black"/>
<path d="M112.766 23.3592H103.455C103.001 23.3592 102.633 23.7284 102.633 24.1831C102.633 24.6353 103.001 25.0044 103.455 25.0044H107.358V39.9059H108.866V25.0046H112.766C113.22 25.0046 113.591 24.6355 113.591 24.1832C113.591 23.7284 113.22 23.3592 112.766 23.3592Z" fill="black"/>
</g>
<defs>
<clipPath id="clip0_112_4864">
<rect width="113.183" height="40" fill="white" transform="translate(0.408691)"/>
</clipPath>
</defs>
</svg>
