<svg width="160" height="26" viewBox="0 0 160 26" fill="none" xmlns="http://www.w3.org/2000/svg">
<path d="M26 11.2286C26 6.14291 29.7714 2.02863 35.1429 2.02863C38.4 2.02863 40.4 3.17148 42.0571 4.77148L40.0571 7.0572C38.6286 5.74291 37.1429 4.82863 35.0857 4.82863C31.7143 4.82863 29.2571 7.62863 29.2571 11.0572V11.1143C29.2571 14.6001 31.7143 17.4001 35.0857 17.4001C37.2571 17.4001 38.6286 16.5429 40.1714 15.1143L42.1714 17.1143C40.3429 19.0572 38.2857 20.2572 34.9714 20.2572C29.8286 20.3143 26 16.3143 26 11.2286ZM44.9143 2.31434H48.2286L53.6 10.7143L59.0286 2.31434H62.3429V20.0286H59.2V7.34291L53.6 15.6858H53.5429L48 7.40005V20.0286H44.9143V2.31434ZM65.6571 2.31434H78.8V5.11434H68.8V9.68577H77.6571V12.4858H68.8V17.2286H78.9143V20.0286H65.6571V2.31434ZM85.3714 11.2286C85.3714 6.20005 89.1429 2.02863 94.5143 2.02863C97.6 2.02863 99.4857 2.88577 101.314 4.42863L99.3143 6.77148C97.9429 5.62863 96.6286 4.88577 94.3429 4.88577C91.0857 4.88577 88.6286 7.74291 88.6286 11.1143V11.1715C88.6286 14.8286 91.0286 17.5143 94.6286 17.5143C96.2857 17.5143 97.8286 17.0001 98.9143 16.2001V12.8858H94.4V10.2001H101.943V17.6286C100.171 19.1143 97.7143 20.3715 94.5714 20.3715C89.0286 20.3143 85.3714 16.3715 85.3714 11.2286ZM105.143 6.6572H108.229V9.68577C109.086 7.68577 110.629 6.31434 112.971 6.42863V9.68577H112.8C110.114 9.68577 108.229 11.4572 108.229 15.0001V20.0858H105.143V6.6572ZM114.171 13.4001C114.171 9.51434 117.2 6.37148 121.314 6.37148C125.429 6.37148 128.4 9.4572 128.4 13.2858V13.3429C128.4 17.1143 125.371 20.3143 121.257 20.3143C117.2 20.3143 114.171 17.2286 114.171 13.4001ZM125.371 13.4001C125.371 11.0001 123.657 9.0572 121.257 9.0572C118.8 9.0572 117.257 11.0001 117.257 13.2858V13.3429C117.257 15.6858 118.971 17.6286 121.314 17.6286C123.829 17.6858 125.371 15.7429 125.371 13.4001ZM130.857 15.1715V6.6572H133.943V14.2572C133.943 16.3143 134.971 17.5143 136.8 17.5143C138.571 17.5143 139.829 16.2572 139.829 14.2001V6.6572H142.914V20.0286H139.829V17.9715C138.971 19.2286 137.714 20.3143 135.657 20.3143C132.629 20.3143 130.857 18.2572 130.857 15.1715ZM146 6.6572H149.086V8.88577C150.057 7.51434 151.486 6.37148 153.6 6.37148C156.743 6.37148 159.829 8.88577 159.829 13.2858V13.3429C159.829 17.7429 156.8 20.2572 153.6 20.2572C151.371 20.2572 150 19.1715 149.086 17.9143V24.8286H146V6.6572ZM156.686 13.4001C156.686 10.7715 154.914 9.0572 152.857 9.0572C150.8 9.0572 148.971 10.7715 148.971 13.3429V13.4001C148.971 15.9715 150.8 17.6858 152.857 17.6858C154.971 17.6286 156.686 16.0286 156.686 13.4001Z" fill="black"/>
<path d="M16.3428 11.0572H11.0856V6.14289H15.4856C15.9999 7.6286 16.2856 9.28575 16.3428 11.0572ZM5.1999 6.14289H1.37133L0.399902 7.11432V11.0572H4.3999C4.3999 9.28575 4.68562 7.6286 5.1999 6.14289ZM4.3999 11.8H0.399902V15.8L1.31419 16.7143H5.1999C4.68562 15.2286 4.3999 13.5715 4.3999 11.8ZM11.0856 17.4572V21.8H11.9428C13.3142 20.7143 14.3999 19.2857 15.1999 17.4572H11.0856ZM8.34276 1.11432H6.34276L2.11419 5.40003H5.48562C6.17133 3.68575 7.14276 2.25718 8.34276 1.11432ZM16.1713 16.7143H20.057L21.0285 15.7429V11.7429H17.0285C16.9713 13.5715 16.6856 15.2286 16.1713 16.7143ZM19.3142 5.40003L15.0285 1.11432H13.0856C14.2856 2.25718 15.257 3.68575 15.9428 5.40003H19.3142ZM16.3428 11.8H11.0856V16.7143H15.4285C15.9999 15.2286 16.2856 13.5715 16.3428 11.8ZM20.057 6.14289H16.2285C16.7428 7.6286 17.0285 9.28575 17.0285 11.0572H21.0285V7.11432L20.057 6.14289ZM5.94276 16.7143H10.3428V11.8H5.08562C5.14276 13.5715 5.42847 15.2286 5.94276 16.7143ZM6.22847 5.40003H10.3428V1.11432H9.42847C8.05705 2.14289 6.97133 3.6286 6.22847 5.40003ZM11.9999 1.11432H11.0856V5.40003H15.1999C14.457 3.6286 13.3713 2.14289 11.9999 1.11432ZM2.05705 17.4572L6.3999 21.8H8.3999C7.1999 20.6572 6.17133 19.1715 5.48562 17.4572H2.05705ZM9.48562 21.8H10.3428V17.4572H6.22847C7.02847 19.2286 8.11419 20.7143 9.48562 21.8ZM13.0285 21.8H15.0285L19.3713 17.4572H15.9428C15.257 19.1715 14.2285 20.6572 13.0285 21.8ZM5.08562 11.0572H10.3428V6.14289H5.94276C5.42847 7.6286 5.14276 9.28575 5.08562 11.0572Z" fill="#0071BA"/>
</svg>
