<svg width="44" height="40" viewBox="0 0 44 40" fill="none" xmlns="http://www.w3.org/2000/svg">
    <path d="M15.7416 17.5704L14.1793 15.3382C13.905 14.9798 13.5329 14.6412 13.0834 14.9559C12.3713 15.4542 13.0076 16.1713 13.0381 16.2168L14.565 18.3953L13.134 19.3969L11.1577 16.5753C10.9203 16.2351 10.7553 16.0148 10.4321 15.6344L11.8479 14.6428L12.3125 15.259L12.3278 15.2494C12.2285 14.5406 12.5921 13.9936 13.1594 13.5946C13.619 13.2729 14.3075 13.1517 14.789 13.502C14.7284 12.869 15.0735 12.2444 15.6324 11.8303C16.4455 11.2613 17.4186 11.3689 18.0044 12.2073L19.7805 14.7426L18.3495 15.7442L16.7906 13.5187C16.5163 13.1603 16.1459 12.8234 15.6981 13.1364C14.9843 13.6364 15.619 14.3502 15.6476 14.3906L17.1728 16.5691L15.7416 17.5704ZM11.2821 20.6932L10.9656 20.2891C10.9034 20.8968 10.629 21.3143 10.1441 21.6543C9.331 22.2234 8.35796 22.1158 7.7738 21.284L5.99438 18.7419L7.42533 17.7402L8.98757 19.9709C9.26196 20.3311 9.63402 20.6695 10.0835 20.3546C10.7956 19.8546 10.161 19.1391 10.1288 19.0936L8.60194 16.9152L10.0329 15.9136L12.0093 18.735C12.2466 19.0753 12.4116 19.2957 12.7348 19.6761L11.2821 20.6932ZM6.31927 24.1595C4.82604 25.1999 2.77727 24.8379 1.73858 23.3447C0.698205 21.8514 1.06688 19.7993 2.56011 18.7589L4.51124 17.3936L5.58866 18.9408L3.85132 20.1478C3.20992 20.5954 3.05168 21.4778 3.49782 22.1192C3.94562 22.7623 4.82775 22.9205 5.47083 22.4728L7.21153 21.2523L8.28389 22.7926L6.31927 24.1595ZM19.0344 9.61101L19.4991 10.2272L19.5144 10.2176C19.4151 9.51054 19.7787 8.96345 20.3477 8.56451C20.8056 8.24288 21.4958 8.12163 21.9756 8.47189C21.915 7.83893 22.2601 7.21432 22.819 6.8002C23.6321 6.23119 24.6051 6.3388 25.191 7.17724L26.967 9.71251L25.5361 10.7142L23.9772 8.48864C23.7045 8.12835 23.3324 7.79332 22.8846 8.10636C22.1709 8.60637 22.8055 9.32011 22.8342 9.36053L24.3594 11.539L22.9284 12.5407L21.3662 10.3084C21.0918 9.94815 20.7197 9.61144 20.2719 9.92615C19.5581 10.4245 20.1945 11.14 20.2247 11.1854L21.7516 13.3655L20.3207 14.3671L18.3443 11.544C18.1069 11.2056 17.9419 10.985 17.6187 10.6045L19.0344 9.61101ZM25.0478 2.92775L25.7565 3.93944L24.3104 4.95128L23.6017 3.93944L25.0478 2.92775ZM28.8591 8.38539L27.4282 9.38718L24.7717 5.59424L26.2026 4.59259L28.8591 8.38539ZM28.0729 3.28294L28.3894 3.68707C28.4517 3.07935 28.7244 2.66184 29.2109 2.32178C30.0241 1.75277 30.9971 1.86036 31.5796 2.69212L33.359 5.2341L31.9297 6.23589L30.3658 4.00352C30.0914 3.64514 29.7193 3.30653 29.2715 3.62124C28.5578 4.12125 29.1941 4.83682 29.2262 4.88225L30.7514 7.06059L29.3205 8.06223L27.3458 5.24079C27.1084 4.90055 26.9417 4.6802 26.6202 4.29973L28.0729 3.28294ZM22.8374 14.7287H40.1972V0.00189319H35.2394L34.0846 0.816694C33.9937 0.688804 33.8926 0.590919 33.7732 0.565628C33.6385 0.536996 33.4802 0.567283 33.2833 0.705433C33.0711 0.853842 33.0274 1.06385 33.1806 1.2846C33.3758 1.56234 33.9482 1.13997 35.0442 0.789607C35.5963 0.616383 36.1014 0.678472 36.5357 1.2964C37.2377 2.30143 36.4734 3.21886 35.6048 3.82658C34.6755 4.4781 33.6368 4.9242 32.8355 3.76265L34.194 2.81154C34.2512 2.94134 34.3792 3.04199 34.5307 3.08255C34.6839 3.12073 34.8573 3.11597 34.9936 3.01862C35.2731 2.82154 35.4044 2.57439 35.2344 2.33183C34.7647 1.66012 32.8001 3.63144 31.8372 2.25596C31.248 1.41589 31.8505 0.548781 32.5274 0L20.9654 0.00174756C20.9654 0.00174756 11.7047 -0.269286 5.81426 6.24069C5.81426 6.24069 0.311035 11.1244 0.311035 20.0383C0.311035 20.4692 0.324399 20.8766 0.349691 21.2907C0.353055 21.4286 0.440601 22.3428 0.502876 22.8277C1.49106 29.9908 5.96906 34.0278 5.96906 34.0278C12.208 40.2667 20.8492 39.9957 20.8492 39.9957H40.1972V25.2687H22.7599C22.7599 25.2687 16.947 25.2306 16.947 19.9995C16.947 14.8448 22.8374 14.7287 22.8374 14.7287Z" fill="black"/>
    <path d="M42.2562 38.7444V38.3254H42.5357C42.6771 38.3254 42.8303 38.3588 42.8303 38.5239C42.8303 38.7324 42.6754 38.7444 42.502 38.7444H42.2562ZM42.2562 38.9175H42.4919L42.8488 39.5034H43.0778L42.6939 38.9091C42.8909 38.8852 43.0441 38.7779 43.0441 38.5369C43.0441 38.2692 42.8859 38.1514 42.566 38.1514H42.0509V39.5031H42.2563L42.2562 38.9175ZM42.5037 40C43.1434 40 43.6889 39.5034 43.6889 38.8249C43.6889 38.1515 43.1434 37.6567 42.5037 37.6567C41.8589 37.6567 41.3135 38.1515 41.3135 38.8249C41.3135 39.5034 41.8589 40 42.5037 40ZM41.5492 38.8249C41.5492 38.2694 41.9683 37.852 42.5037 37.852C43.034 37.852 43.4532 38.2695 43.4532 38.8249C43.4532 39.3889 43.034 39.8047 42.5037 39.8047C41.9684 39.8047 41.5492 39.3891 41.5492 38.8249Z" fill="#231F20"/>
</svg>
