<svg width="160" height="40" viewBox="0 0 160 40" fill="none" xmlns="http://www.w3.org/2000/svg">
    <path d="M68.0161 28.7358H75.1013V21.6911H68.0161V28.7358Z" fill="#98958C"/>
    <path d="M75.092 22.7472H75.1016V6.88935L81.1783 6.90984L81.1688 1.39414L61.9038 1.37848L61.9048 6.88937H68.0162V28.7369H68.0181C68.2876 27.3378 68.9607 26.0325 69.981 24.945C71.3847 23.4293 72.9955 22.7472 75.0913 22.7472" fill="#084168"/>
    <path d="M10.7906 23.5815C2.9701 23.2314 0 18.4146 0 11.7778C0 4.72463 4.1797 -0.0584543 10.5175 0.221841C16.8194 0.500928 20.4889 4.12193 21.1871 9.54019H14.6349C14.314 7.61662 12.3032 5.98536 10.5283 5.98536C7.53065 5.98536 6.81447 9.11193 6.81447 11.9979C6.81447 14.8827 7.8109 17.9214 10.7211 17.9214C12.5834 17.9214 14.5032 16.5945 14.6781 14.5422L21.2314 14.5867C21.2314 20.1974 16.1619 23.8233 10.7906 23.5815Z" fill="#084168"/>
    <path d="M22.0023 22.9139L22.2035 1.36115H39.3714L39.3259 6.23205H28.9521L28.9748 9.69906L37.7557 9.6545V14.4821L28.9316 14.5254L28.9748 18.0802H39.3617V23.1184L22.0023 22.9139Z" fill="#084168"/>
    <path d="M53.8765 22.9872L47.2681 11.6021L47.2238 23.0991L40.759 22.9872L40.8896 1.3779L47.2681 1.33459L54.7389 12.9194L54.6071 1.33459L61.2036 1.3779V23.0991L53.8765 22.9872Z" fill="#084168"/>
    <path d="M81.9299 23.02L82.1311 1.466H99.3003L99.2535 6.33691H88.8797L88.9036 9.80392L97.6834 9.75935V14.5869L88.8593 14.6302L88.9037 18.1851H99.2907V23.2232L81.9299 23.02Z" fill="#084168"/>
    <path d="M114.346 23.1857L106.719 11.7898L106.622 23.1857H100.369V1.49579H107.334L114.307 13.4174V1.49579H120.707L120.708 23.1857H114.346Z" fill="#084168"/>
    <path d="M139.147 22.8338V18.4212H128.76L128.717 14.8664L137.541 14.8231V9.99549L128.76 10.0401L128.738 6.57305H139.111L139.157 1.70215H121.989L121.788 23.2549L138.235 23.4474C138.443 23.1153 138.786 22.8759 139.147 22.8338Z" fill="#084168"/>
    <path d="M145.319 4.08126C145.319 5.36004 144.288 6.39701 143.013 6.39701C141.74 6.39701 140.708 5.36004 140.708 4.08126C140.708 2.80248 141.74 1.7655 143.013 1.7655C144.288 1.7655 145.319 2.80248 145.319 4.08126Z" stroke="#084168" stroke-width="0.876956"/>
    <path d="M141.809 5.55086V2.48926H143.162C143.433 2.48926 143.64 2.51574 143.782 2.57104C143.923 2.62633 144.037 2.72382 144.12 2.86217C144.204 3.00291 144.247 3.1569 144.247 3.32532C144.247 3.54185 144.178 3.72591 144.037 3.87388C143.898 4.02425 143.681 4.11809 143.389 4.15899C143.495 4.2108 143.576 4.26124 143.632 4.31056C143.749 4.42004 143.861 4.55477 143.966 4.71838L144.493 5.55084H143.989L143.586 4.91447C143.468 4.7304 143.371 4.58965 143.295 4.49221C143.219 4.39477 143.15 4.32741 143.091 4.28771C143.031 4.24923 142.968 4.22149 142.906 4.20709C142.861 4.19742 142.786 4.19143 142.682 4.19143H142.214V5.5508L141.809 5.55086ZM142.214 3.84141H143.081C143.265 3.84141 143.409 3.82218 143.514 3.7837C143.617 3.74523 143.697 3.68506 143.75 3.59964C143.804 3.51544 143.832 3.424 143.832 3.32537C143.832 3.181 143.779 3.06191 143.675 2.96808C143.57 2.87537 143.404 2.82853 143.178 2.82853H142.214V3.84141Z" fill="#084168"/>
    <path d="M67.886 30.1171C67.886 32.0298 68.5962 33.6214 69.9124 34.6644C70.9699 35.5161 72.1998 35.8758 73.9843 35.8758C75.1795 35.8758 75.8717 35.7627 76.8765 35.3465L77.2227 33.5841H76.8765C76.4777 34.4743 75.5256 34.9483 74.1052 34.9483C71.316 34.9483 69.3411 32.9212 69.3411 30.0593C69.3411 29.6058 69.3842 29.1402 69.4621 28.712L68.0309 28.6735C67.9447 29.1259 67.886 29.6491 67.886 30.1171Z" fill="#98958C"/>
    <path d="M69.4622 28.7368H75.1018V23.6951C74.9904 23.6864 74.8814 23.6747 74.764 23.6747C72.17 23.6747 69.9843 25.8593 69.4622 28.7368Z" fill="#084168"/>
    <path d="M86.7785 30.7147C86.7785 33.5369 84.6659 35.9248 82.1712 35.9248C80.0394 35.9248 78.6023 34.3525 78.6023 31.9839C78.6023 29.0474 80.6814 26.8303 83.4539 26.8303C85.3581 26.8303 86.7785 28.4784 86.7785 30.7147ZM79.867 32.192C79.867 33.8978 80.8191 35.0154 82.2754 35.0154C84.1114 35.0154 85.515 33.0834 85.515 30.5631C85.515 28.8392 84.6479 27.7397 83.2802 27.7397C81.3389 27.7397 79.867 29.6537 79.867 32.192Z" fill="#98958C"/>
    <path d="M94.142 28.6679H93.8294C93.7085 28.0989 93.4318 27.8523 92.912 27.8523C92.5647 27.8523 92.2018 27.9858 91.8378 28.2697C91.5958 28.4406 91.3875 28.6679 91.2306 28.9146C90.9719 29.3115 90.8845 29.5581 90.694 30.5626L89.6725 35.792H88.373L89.7599 28.6679L89.845 28.307C89.863 28.2132 89.8809 28.0797 89.8809 27.9858C89.8809 27.5876 89.724 27.4553 89.2569 27.4553H89.1348L89.2223 27.0764L91.4223 26.8298L91.0582 28.6679C91.6127 27.5119 92.5481 26.8298 93.5708 26.8298C93.9002 26.8298 94.2116 26.9056 94.5744 27.0764L94.142 28.6679Z" fill="#98958C"/>
    <path d="M95.649 38.4449C95.5975 38.7288 95.5627 38.8803 95.5627 38.9561C95.5627 39.2785 95.6322 39.3351 96.134 39.4866L96.0657 39.7898H93.4321L93.4836 39.4866C93.6572 39.4674 93.7267 39.4482 93.8477 39.3916C94.1243 39.2593 94.2117 39.127 94.298 38.6722L96.2381 28.6682L96.3076 28.3073C96.3424 28.1942 96.3424 28.0799 96.3424 27.9861C96.3424 27.5879 96.2034 27.4556 95.7364 27.4556H95.6142L95.6837 27.0766L97.9017 26.83L97.6238 28.2135C97.9017 27.8718 98.0226 27.7587 98.2478 27.5687C98.8358 27.1139 99.7029 26.83 100.448 26.83C102.198 26.83 103.462 28.2315 103.462 30.1839C103.462 33.4994 100.811 35.9246 97.1388 35.9246C96.74 35.9246 96.5855 35.9053 96.1519 35.8488L95.649 38.4449ZM96.4634 34.9959C96.7232 34.9959 96.9484 35.0152 97.1388 35.0152C100.188 35.0152 102.077 33.2155 102.077 30.3355C102.077 28.7247 101.244 27.7395 99.9281 27.7395C99.0095 27.7395 98.1784 28.2507 97.4334 29.236L96.3077 34.9959L96.4634 34.9959Z" fill="#98958C"/>
    <path d="M113.111 30.7147C113.111 33.5369 110.997 35.9248 108.503 35.9248C106.372 35.9248 104.934 34.3525 104.934 31.9839C104.934 29.0474 107.013 26.8303 109.784 26.8303C111.691 26.8303 113.111 28.4784 113.111 30.7147ZM106.198 32.192C106.198 33.8978 107.152 35.0154 108.607 35.0154C110.443 35.0154 111.845 33.0834 111.845 30.5631C111.845 28.8392 110.979 27.7397 109.61 27.7397C107.67 27.7397 106.198 29.6537 106.198 32.192Z" fill="#98958C"/>
    <path d="M122.6 27.5316C123.57 27.0384 124.523 26.8303 125.649 26.8303C127.433 26.8303 128.42 27.4751 128.42 28.6492C128.42 28.8765 128.385 29.1039 128.334 29.3698L127.52 33.632C127.451 34.0109 127.415 34.1444 127.415 34.3525C127.415 34.7507 127.64 35.0346 127.97 35.0346C128.23 35.0346 128.42 34.9396 128.888 34.5607L129.183 34.8831C128.524 35.5652 127.918 35.9248 127.364 35.9248C126.549 35.9248 126.081 35.3751 126.048 34.4283C125.199 35.4136 124.107 35.9248 122.878 35.9248C121.543 35.9248 120.59 35.0346 120.59 33.8028C120.59 31.5099 123.05 29.8991 126.982 29.6344C127.069 29.217 127.069 29.1232 127.069 28.9716C127.069 28.1944 126.341 27.7024 125.164 27.7024C124.712 27.7024 124.262 27.777 123.864 27.9478C123.293 28.1752 123.05 28.3845 122.6 28.9523H122.288L122.6 27.5316ZM125.112 30.7147C123.103 31.226 121.959 32.2485 121.959 33.5369C121.959 34.2768 122.565 34.8446 123.345 34.8446C124.419 34.8446 125.51 34.2768 126.273 33.3288L126.826 30.4296C125.857 30.5631 125.597 30.6004 125.112 30.7147Z" fill="#98958C"/>
    <path d="M120.471 28.6679H120.161C120.039 28.0989 119.762 27.8523 119.242 27.8523C118.895 27.8523 118.532 27.9858 118.168 28.2697C117.926 28.4406 117.718 28.6679 117.562 28.9146C117.302 29.3115 117.215 29.5581 117.026 30.5626L116.003 35.792H114.703L116.089 28.6679L116.176 28.307C116.193 28.2132 116.21 28.0797 116.21 27.9858C116.21 27.5876 116.054 27.4553 115.587 27.4553H115.465L115.553 27.0764L117.753 26.8298L117.389 28.6679C117.943 27.5119 118.878 26.8298 119.9 26.8298C120.229 26.8298 120.542 26.9056 120.905 27.0764L120.471 28.6679Z" fill="#98958C"/>
    <path d="M133.773 26.9616H135.523L135.401 27.5871H133.652L132.56 33.1762C132.474 33.5936 132.439 34.0099 132.439 34.2372C132.439 34.7305 132.768 35.0517 133.287 35.0517C133.947 35.0517 134.379 34.787 134.691 34.1615H134.969L134.691 35.6014C134.015 35.8481 133.634 35.9238 132.977 35.9238C131.712 35.9238 131.105 35.4126 131.105 34.3888C131.105 34.0857 131.14 33.8018 131.244 33.2713L132.353 27.5871H131.33L131.452 26.9616C131.919 26.9616 131.989 26.9244 132.232 26.8292C132.525 26.6969 132.734 26.2987 132.873 25.5974L133.115 24.3848L134.345 24.0624L133.773 26.9616Z" fill="#98958C"/>
    <path d="M149.4 30.7147C149.4 33.5369 147.286 35.9248 144.791 35.9248C142.661 35.9248 141.222 34.3525 141.222 31.9839C141.222 29.0474 143.301 26.8303 146.073 26.8303C147.978 26.8303 149.4 28.4784 149.4 30.7147ZM142.487 32.192C142.487 33.8978 143.44 35.0154 144.895 35.0154C146.731 35.0154 148.135 33.0834 148.135 30.5631C148.135 28.8392 147.269 27.7397 145.899 27.7397C143.959 27.7397 142.487 29.6537 142.487 32.192Z" fill="#98958C"/>
    <path d="M138.225 33.1763L138.086 33.8584C138.051 33.9907 138.051 34.1242 138.051 34.2373C138.051 34.7305 138.26 35.0337 138.606 35.0337C138.814 35.0337 139.056 34.9194 139.506 34.5789L139.733 34.8629C139.177 35.5077 138.45 35.9239 137.861 35.9239C137.169 35.9239 136.7 35.3934 136.7 34.5789C136.7 34.3323 136.718 34.1615 136.874 33.4036L137.793 28.6675L137.861 28.3066C137.897 28.1935 137.897 28.0792 137.897 27.9854C137.897 27.5872 137.757 27.4548 137.29 27.4548H137.169L137.238 27.0759L139.455 26.8293L138.225 33.1763ZM140.165 24.2717C140.165 24.9538 139.576 25.5782 138.952 25.5782C138.485 25.5782 138.155 25.2185 138.155 24.7265C138.155 24.0444 138.763 23.4188 139.385 23.4188C139.854 23.4188 140.165 23.7785 140.165 24.2717Z" fill="#98958C"/>
    <path d="M153.764 28.1371C154.734 27.2456 155.721 26.8294 156.847 26.8294C158.267 26.8294 159.22 27.6631 159.22 28.8757C159.22 29.1223 159.151 29.577 159.013 30.2591L158.424 33.3099C158.303 33.897 158.25 34.2759 158.25 34.4455C158.25 34.7679 158.51 35.0145 158.822 35.0145C159.083 35.0145 159.325 34.9003 159.74 34.5598L160 34.9003C159.74 35.2046 159.636 35.2984 159.429 35.45C159.03 35.7351 158.492 35.924 158.06 35.924C157.384 35.924 156.917 35.4127 156.917 34.6729C156.917 34.484 156.969 34.1051 157.038 33.7634L157.747 30.0883C157.835 29.6528 157.869 29.3304 157.869 29.1223C157.869 28.3067 157.212 27.7016 156.292 27.7016C155.739 27.7016 155.115 27.947 154.526 28.4017C154.162 28.6868 153.953 28.8949 153.503 29.4435L152.274 35.7917H150.958L152.36 28.6676L152.429 28.3067C152.447 28.2128 152.465 28.0793 152.465 27.9855C152.465 27.5873 152.308 27.455 151.857 27.455H151.737L151.806 27.076L154.023 26.8294L153.764 28.1371Z" fill="#98958C"/>
    <path d="M77.1271 26.172L78.6684 24.6382C77.8385 23.3137 76.7331 22.7459 75.0576 22.7435V23.6914C76.2912 23.7925 77.1271 24.4349 77.1271 25.3395C77.1271 25.5657 77.0756 25.6992 76.884 25.9073L77.1271 26.172Z" fill="#98958C"/>
</svg>
