<svg width="39" height="25" viewBox="0 0 39 25" fill="none" xmlns="http://www.w3.org/2000/svg">
<g id="COCOA - Cocoa USD  ">
<path id="Vector" d="M37.5505 25H0.658812C0.295003 25 0 24.7054 0 24.3421V0.657924C0 0.294605 0.295003 0 0.658812 0H37.5506C37.9144 0 38.2094 0.294605 38.2094 0.657924V24.3421C38.2093 24.7055 37.9143 25 37.5505 25Z" fill="#CC6449"/>
<g id="Group">
<path id="Vector_2" fill-rule="evenodd" clip-rule="evenodd" d="M21.9141 7.66789C17.7183 7.83898 15.0908 10.4247 14.6765 14.9055C14.6408 15.2916 14.5518 15.611 14.4753 15.8851C14.3381 16.3775 14.2415 16.7241 14.5671 17.0497C14.9117 17.3943 15.3691 17.2846 15.9163 17.1535C16.174 17.0917 16.4516 17.0251 16.7467 16.999C21.0515 16.6176 23.7918 13.7219 23.9453 9.69906C23.9605 9.29915 24.0538 8.96727 24.1342 8.6814C24.2629 8.2231 24.3585 7.8831 24.0461 7.57068C23.7593 7.28394 23.4771 7.36861 23.0816 7.48728C22.7773 7.57855 22.4061 7.68995 21.9141 7.66789ZM21.9378 8.84656C21.9311 8.8464 21.9245 8.84622 21.9178 8.84602C20.86 8.89409 19.9497 9.11317 19.1808 9.47648L20.2443 10.54L21.9378 8.84656ZM17.7079 10.5047C17.8472 10.3659 17.995 10.2348 18.1511 10.1116L19.4119 11.3724L18.3181 12.4662L17.0926 11.2407C17.2807 10.9703 17.4864 10.7252 17.7079 10.5047ZM16.4996 12.3125C16.179 13.0523 15.9577 13.9216 15.857 14.9273L17.4857 13.2986L16.4996 12.3125ZM18.3181 14.131L16.6208 15.8284C16.6281 15.8277 16.6355 15.827 16.6429 15.8264C17.6545 15.7368 18.5475 15.4934 19.3155 15.1284L18.3181 14.131ZM20.3574 14.5055C20.6116 14.3171 20.8459 14.1122 21.0598 13.8929C21.2035 13.7454 21.3393 13.5901 21.4667 13.4272L20.2443 12.2048L19.1505 13.2986L20.3574 14.5055ZM22.7679 9.68129C22.7256 10.698 22.495 11.6114 22.1073 12.403L21.0767 11.3724L22.7679 9.68129Z" fill="white"/>
<path id="Vector_3" fill-rule="evenodd" clip-rule="evenodd" d="M12.3401 19.1412C12.8567 19.6718 13.5301 19.5235 14.3357 19.346C14.7321 19.2588 15.1605 19.1644 15.618 19.1405C22.0962 18.8005 26.1369 14.675 26.1484 8.61003C26.1496 8.02074 26.2642 7.53479 26.364 7.1115C26.5301 6.4074 26.6552 5.87666 26.1492 5.33208C25.698 4.84674 25.3026 4.98376 24.7455 5.17678C24.3017 5.33052 23.7554 5.51982 22.9968 5.45838C16.6717 5.48686 12.8464 9.24661 12.4664 15.9888C12.4319 16.6009 12.293 17.0899 12.1756 17.5029C11.9817 18.1857 11.8467 18.6609 12.3401 19.1412ZM22.9564 6.63585C20.053 6.65783 17.8531 7.52677 16.3327 9.04026C14.7973 10.5686 13.8202 12.8885 13.6417 16.055C13.5988 16.8171 13.4043 17.4956 13.2866 17.9062C13.162 18.3411 13.0637 18.3841 13.5575 18.3033C14.2273 18.1935 14.874 18.0006 15.5564 17.9649C18.5579 17.8074 20.8932 16.7816 22.4734 15.1921C24.0493 13.6071 24.9661 11.3702 24.9712 8.60781C24.973 7.67205 25.2306 6.82865 25.2986 6.4824C25.3498 6.22212 25.3659 6.20713 25.1372 6.28741C24.6994 6.44116 23.949 6.70466 22.9564 6.63585Z" fill="white"/>
</g>
</g>
</svg>
