<svg width="112" height="40" viewBox="0 0 112 40" fill="none" xmlns="http://www.w3.org/2000/svg">
    <path d="M75.9055 28.9256H75.8789C71.1343 32.2841 65.5368 35.8025 59.4862 39.5075L59.2463 39.6408C59.2202 39.6516 59.1968 39.6681 59.178 39.6892C59.1592 39.7103 59.1454 39.7353 59.1377 39.7625C59.13 39.7897 59.1286 39.8183 59.1335 39.8461C59.1385 39.874 59.1497 39.9003 59.1663 39.9232C59.1829 39.946 59.2045 39.9648 59.2295 39.9781C59.2544 39.9914 59.2821 39.9988 59.3103 39.9999C59.3385 40.0009 59.3667 39.9955 59.3925 39.9841C59.4184 39.9727 59.4413 39.9556 59.4596 39.934L59.6462 39.8274C64.7905 37.1619 70.6812 33.99 76.5985 30.7115L76.7052 30.6582C76.3559 30.1226 76.0865 29.5389 75.9055 28.9256ZM107.038 3.71029C99.5749 -4.52601 51.4365 2.884 30.9924 7.36199L30.5126 7.4686C30.4657 7.48069 30.4243 7.5084 30.3952 7.54716C30.3661 7.58591 30.3511 7.63342 30.3526 7.68184C30.3552 7.70592 30.3633 7.72909 30.3761 7.7496C30.389 7.77012 30.4064 7.78745 30.4269 7.80028C30.4474 7.81312 30.4706 7.82112 30.4947 7.82369C30.5188 7.82626 30.5431 7.82333 30.5659 7.81511L31.0457 7.73515C47.9981 4.72317 83.2622 0.538384 90.8321 8.05501C93.1511 10.3473 92.618 13.306 89.9259 16.7977C91.412 17.7686 92.4631 19.2785 92.8579 21.0092C103.333 14.0523 110.37 7.38864 107.038 3.71029Z" fill="#CC2427"/>
    <path d="M35.7369 22.4752C35.1523 22.477 34.5832 22.6636 34.111 23.0083C33.6271 23.4118 33.313 23.9829 33.2314 24.6076C33.0714 25.4339 33.1514 25.9936 33.4712 26.3668C33.6575 26.5479 33.8791 26.6886 34.1221 26.7803C34.3652 26.8721 34.6245 26.9128 34.8839 26.8999C35.2878 26.9081 35.6885 26.8261 36.0568 26.66C36.4122 26.4956 36.7163 26.2376 36.9364 25.9137C37.1856 25.543 37.3579 25.1261 37.4428 24.6876C37.5761 23.9412 37.4694 23.4081 37.1229 23.035C36.9461 22.8471 36.7306 22.6997 36.4913 22.6031C36.252 22.5065 35.9946 22.4628 35.7369 22.4752ZM27.4473 32.8172L29.6596 20.3428H33.6578L33.338 21.9421C33.7758 21.3945 34.3572 20.9792 35.0172 20.7427C35.8388 20.4071 36.7154 20.2263 37.6027 20.2096C38.6423 20.2096 39.282 20.2629 40.055 20.6627C40.7878 21.0304 41.3578 21.6574 41.6542 22.4219C41.9683 23.2277 42.0424 24.1072 41.8675 24.9541C41.7565 25.6813 41.5013 26.379 41.1168 27.0061C40.7323 27.6332 40.2263 28.1771 39.6285 28.6058C38.4024 29.4854 37.3095 29.7253 35.7369 29.7253C35.261 29.734 34.7861 29.6803 34.3242 29.5654C34.0064 29.4962 33.7008 29.3794 33.4179 29.2189C33.1415 29.0195 32.8909 28.7867 32.6716 28.5258L31.9253 32.8172H27.4473ZM73.5866 29.592H68.9486L71.2943 16.6378L75.7989 16.7445L73.5866 29.592ZM50.4503 20.2362L50.7701 18.3437L55.5147 17.3309L55.0082 20.2362H57.3539L56.9007 22.1287H54.6351L53.2757 29.592H48.6644L50.0505 22.1287H48.3179L48.6644 20.2629H50.4503V20.2362ZM13.5069 26.2602C12.2647 26.5381 10.9947 26.6722 9.72192 26.66C7.56289 26.66 5.83033 25.5938 5.93695 23.5947C5.99026 22.2886 7.56289 19.5165 11.5078 19.5165C12.7573 19.4877 13.9885 19.8209 15.0529 20.4761L15.6126 17.2509C14.1902 16.6859 12.6634 16.4315 11.1346 16.5046C5.93695 16.5579 0.952522 18.9035 0.339464 23.7013C-0.273594 28.4992 5.6704 29.8053 8.30922 29.8053C9.82853 29.8053 11.4278 29.7253 12.8938 29.592L13.5069 26.2602ZM64.0708 25.3273L63.2978 25.5405L61.512 25.8604C61.0896 25.8949 60.68 26.0224 60.3125 26.2335C60.2052 26.2939 60.1133 26.3782 60.044 26.4799C59.9746 26.5817 59.9297 26.698 59.9127 26.8199C59.8808 26.9383 59.8868 27.0636 59.9299 27.1783C59.9729 27.2931 60.0508 27.3914 60.1526 27.4596C60.3925 27.6196 60.7657 27.6729 61.2987 27.6729C61.6952 27.674 62.0899 27.6202 62.4716 27.5129C62.8222 27.4103 63.1485 27.2381 63.4311 27.0065C63.6179 26.8426 63.7562 26.6305 63.8309 26.3935C63.9433 26.0461 64.0236 25.6892 64.0708 25.3273ZM68.9753 22.262C68.9486 22.7151 68.8687 23.1416 68.7621 23.808L67.9358 28.4725C67.8918 28.6601 67.9127 28.8571 67.9949 29.0314C68.0772 29.2056 68.2161 29.3468 68.3889 29.4321V29.592H63.6177V28.3926C62.8998 28.8197 62.1292 29.1512 61.3254 29.3788C60.5768 29.5704 59.8057 29.6601 59.0331 29.6453C57.5138 29.6453 56.6342 29.4854 56.0211 28.9523C55.4081 28.4192 55.1149 28.046 55.1415 27.2997C55.192 26.7889 55.3965 26.3056 55.7279 25.9137C56.0765 25.5327 56.504 25.2325 56.9807 25.0341C57.5822 24.7652 58.2198 24.5856 58.8732 24.501C59.7261 24.3677 60.8989 24.2344 62.4716 24.1012C62.9992 24.0502 63.5186 23.9338 64.0175 23.7546C64.3374 23.6214 64.4707 23.4881 64.524 23.2215C64.5773 22.955 64.4707 22.4752 63.8309 22.3419C62.125 21.9954 58.9265 22.5552 57.2739 22.955L58.1535 20.5561C60.2609 20.2209 62.3902 20.0427 64.524 20.023C67.9091 20.0496 69.002 21.0359 68.9753 22.262ZM41.7342 29.592L43.3868 20.2895H47.9447L46.2922 29.592H41.7342ZM43.6533 18.1572C43.7866 17.3842 44.9861 16.7711 46.3455 16.7711C47.7049 16.7711 48.6644 17.3842 48.5311 18.1572C48.3979 18.9301 47.1984 19.5432 45.839 19.5432C44.4796 19.5432 43.5201 18.9035 43.6533 18.1572ZM23.0759 25.3006C22.8274 25.4014 22.568 25.4729 22.3029 25.5138L20.5437 25.8337C20.1122 25.8644 19.6931 25.9919 19.3176 26.2069C19.2096 26.273 19.1178 26.3623 19.0486 26.4683C18.9794 26.5744 18.9348 26.6945 18.9178 26.8199C18.8904 26.9372 18.9015 27.0602 18.9495 27.1706C18.9975 27.2811 19.0799 27.3731 19.1843 27.433C19.525 27.6234 19.9151 27.707 20.3038 27.6729C20.7015 27.665 21.0962 27.6022 21.4766 27.4863C21.8273 27.3837 22.1536 27.2114 22.4362 26.9799C22.623 26.8159 22.7613 26.6039 22.836 26.3668C22.9654 26.0244 23.0462 25.6655 23.0759 25.3006ZM27.9804 22.262C27.9537 22.7151 27.8738 23.1149 27.7671 23.808L26.9408 28.4459C26.8969 28.6335 26.9177 28.8305 27 29.0047C27.0823 29.1789 27.2212 29.3202 27.394 29.4054V29.592H22.6228V28.4192C21.8985 28.8269 21.1292 29.1489 20.3305 29.3788C19.592 29.5783 18.8298 29.6769 18.0648 29.672C16.5189 29.672 15.6393 29.5121 15.0529 28.979C14.4665 28.4459 14.1199 28.0727 14.1466 27.2997C14.2038 26.7987 14.4079 26.3258 14.733 25.9403C15.08 25.551 15.5074 25.2418 15.9858 25.0341C16.5997 24.7741 17.2448 24.5949 17.9049 24.501C18.7312 24.3677 19.904 24.2344 21.4766 24.1012C22.0093 24.0851 22.534 23.9675 23.0226 23.7546C23.3691 23.6214 23.4757 23.4881 23.529 23.2215C23.5824 22.955 23.4757 22.4752 22.836 22.3419C21.1301 22.0221 17.9316 22.5552 16.279 22.9817L17.1586 20.5561C19.2661 20.222 21.3953 20.0438 23.529 20.023C26.9142 20.023 28.007 21.0092 27.9804 22.262Z" fill="#013D5B"/>
    <path d="M92.1383 23.5148L93.1779 23.4081C93.5244 23.4081 93.8176 23.4881 93.8442 23.808C93.8709 24.1278 93.4977 25.4072 93.4178 25.7537L92.6981 28.8723C92.4315 30.1518 92.1117 31.4845 91.8451 32.5507H93.6576L94.6705 27.5929C97.8158 24.341 99.0152 23.2749 99.7349 23.2749C99.814 23.2665 99.8939 23.2759 99.9689 23.3024C100.044 23.3289 100.112 23.3718 100.168 23.428C100.224 23.4842 100.267 23.5523 100.294 23.6273C100.32 23.7023 100.33 23.7822 100.321 23.8613C100.348 24.421 99.9748 25.7271 99.8682 26.1003L98.802 29.6986C98.5888 30.5249 98.4022 31.2446 98.4288 31.7777C98.4555 32.3108 98.9353 32.9239 99.6283 32.9239C100.961 32.9239 101.947 31.5378 102.774 30.1784L102.534 29.7253C102.187 30.2584 101.414 31.4579 100.774 31.4579C100.588 31.4579 100.401 31.3246 100.401 31.0047C100.423 30.5062 100.512 30.0129 100.668 29.5387L101.841 25.3006C102.134 24.1278 102.294 23.3815 102.294 22.9817C102.294 22.5818 101.787 21.8355 101.094 21.8355C99.8949 21.8355 98.2956 22.7151 94.9371 26.58H94.8838L95.3102 24.6876C95.5501 23.648 95.7634 22.5818 95.9766 21.8355C94.7137 22.2843 93.4226 22.6493 92.1117 22.9284L92.1383 23.5148ZM109.97 23.6214C109.944 22.875 109.571 22.3686 108.798 22.3686C106.932 22.3686 104.959 26.0203 104.613 27.4863C107.651 27.4863 110.05 25.6738 109.97 23.6214ZM110.37 29.3521L110.717 29.592C109.81 31.4312 107.971 32.9239 105.786 32.9239C104 32.9239 102.56 31.7511 102.48 29.5387C102.32 25.5405 106.079 21.8355 109.117 21.8355C110.423 21.8355 111.65 22.4219 111.703 23.8346C111.809 27.0065 107.358 27.9661 104.426 28.0194C104.33 28.4024 104.294 28.7981 104.32 29.1922C104.373 30.5249 105.172 31.6178 106.798 31.6178C108.424 31.6178 109.65 30.4716 110.37 29.3521ZM78.9443 26.7666C79.0242 29.672 80.8634 32.0443 83.2623 32.0443C87.9002 32.0443 89.8727 26.3402 89.7394 22.5285C89.6328 19.6232 87.767 17.2509 85.368 17.2509C81.3698 17.2509 78.7843 22.9284 78.9443 26.7666ZM76.492 26.6067C76.3054 21.6489 80.197 16.5845 85.8212 16.5845C89.6061 16.5845 92.0584 19.1167 92.1916 22.955C92.3782 28.1793 88.7532 32.9772 82.8625 32.9772C79.0775 32.9772 76.6253 30.4716 76.492 26.6067Z" fill="#013D5B"/>
</svg>
