<svg width="39" height="25" viewBox="0 0 39 25" fill="none" xmlns="http://www.w3.org/2000/svg">
<g id="COFFEE - Coffee USD">
<path id="Vector" d="M37.5505 25H0.658812C0.295003 25 0 24.7054 0 24.3421V0.657924C0 0.294605 0.295003 0 0.658812 0H37.5506C37.9144 0 38.2094 0.294605 38.2094 0.657924V24.3421C38.2093 24.7055 37.9143 25 37.5505 25Z" fill="#733E33"/>
<g id="g375">
<g id="g377">
<g id="Clip path group">
<g id="g379">
<g id="g385">
<path id="path387 (Stroke)" fill-rule="evenodd" clip-rule="evenodd" d="M10 16.4796C10 19.12 12.676 21 15.6135 21C18.551 21 21.227 19.12 21.227 16.4796C21.227 13.8393 18.5511 11.9592 15.6135 11.9592C12.676 11.9592 10 13.8393 10 16.4796ZM15.6135 19.6793C13.0799 19.6793 11.3207 18.1029 11.3207 16.4796C11.3207 14.8563 13.08 13.2799 15.6135 13.2799C18.1471 13.2799 19.9063 14.8563 19.9063 16.4796C19.9063 18.103 18.1471 19.6793 15.6135 19.6793Z" fill="white"/>
</g>
<g id="g389">
<path id="path391 (Stroke)" fill-rule="evenodd" clip-rule="evenodd" d="M13.0754 16.3355C11.9884 16.3355 11.4431 16.1335 10.8896 15.9097L10.3945 17.1341C11.0441 17.3968 11.7633 17.6562 13.0754 17.6562C14.4655 17.6562 15.1906 17.3643 15.8608 17.0917L15.8721 17.0871C16.4657 16.8457 17.0094 16.6245 18.1487 16.6245C19.2358 16.6245 19.7812 16.8266 20.3347 17.0504L20.8298 15.8259C20.1801 15.5633 19.4609 15.3038 18.1487 15.3038C16.7585 15.3038 16.0335 15.5957 15.3632 15.8683L15.3519 15.8729C14.7582 16.1144 14.2146 16.3355 13.0754 16.3355Z" fill="white"/>
</g>
<g id="g393">
<path id="path395 (Stroke)" fill-rule="evenodd" clip-rule="evenodd" d="M20.1797 17.903C22.0552 18.7563 24.5145 18.1009 26.2459 16.3696C28.323 14.2924 28.8858 11.0708 27.0188 9.20382C25.4659 7.65095 22.9477 7.78827 20.9883 9.05672L21.706 10.1654C23.3474 9.1028 25.1247 9.17748 26.0849 10.1377L26.0849 10.1377C27.2328 11.2856 27.1035 13.6442 25.312 15.4357C23.8574 16.8903 21.9699 17.2665 20.7266 16.7008L20.1797 17.903Z" fill="white"/>
</g>
<g id="g397">
<path id="path399 (Stroke)" fill-rule="evenodd" clip-rule="evenodd" d="M21.1528 14.8631C20.7813 15.2345 20.4698 15.4786 20.1953 15.6556L20.9109 16.7656C21.2729 16.5323 21.6566 16.2269 22.0866 15.797L22.0867 15.7969C23.0696 14.8139 23.3759 14.0948 23.6571 13.4281L23.6618 13.4169C23.9108 12.8264 24.1389 12.2856 24.9445 11.48C25.7132 10.7113 26.2417 10.4685 26.7913 10.2354L26.2756 9.01953C25.6305 9.29316 24.9384 9.61828 24.0106 10.5461C23.0276 11.5291 22.7213 12.2482 22.4401 12.9149L22.4354 12.9262C22.1864 13.5167 21.9583 14.0575 21.1528 14.863C21.1528 14.863 21.1528 14.863 21.1528 14.8631Z" fill="white"/>
</g>
<g id="g401">
<path id="path403 (Stroke)" fill-rule="evenodd" clip-rule="evenodd" d="M19.3117 14.1543C20.1987 13.5278 20.9615 12.611 21.4681 11.4882L21.4681 11.4882C22.6763 8.81071 22.0633 5.59828 19.6567 4.51225L19.6567 4.51225C17.25 3.42628 14.4357 5.09211 13.2275 7.76967C12.3775 9.6531 12.4312 11.7235 13.325 13.2018L14.4552 12.5184C13.8252 11.4766 13.7266 9.87437 14.4313 8.31292L14.4313 8.3129C15.4733 6.00355 17.6338 5.04841 19.1134 5.71609L19.3786 5.12843L19.1134 5.71609C20.5931 6.3838 21.3063 8.63567 20.2643 10.945C19.8498 11.8634 19.2352 12.5914 18.5497 13.0755L19.3117 14.1543Z" fill="white"/>
</g>
<g id="g405">
<path id="path407 (Stroke)" fill-rule="evenodd" clip-rule="evenodd" d="M17.0938 12.998C17.189 12.823 17.2836 12.6325 17.378 12.4234L17.378 12.4233C17.9498 11.1562 17.982 10.3752 18.0092 9.65217L18.0096 9.63999C18.0337 8.99956 18.0557 8.41306 18.5243 7.37462L18.5243 7.37462C18.9714 6.38386 19.3798 5.96984 19.8115 5.55747L18.8991 4.60254C18.3924 5.08664 17.8601 5.6355 17.3205 6.83139C16.7487 8.09853 16.7166 8.87947 16.6894 9.60253L16.6889 9.61474C16.6648 10.2552 16.6428 10.8416 16.1742 11.88M17.0938 12.998L15.9336 12.367L17.0938 12.998ZM15.9336 12.367C16.012 12.2228 16.0922 12.0617 16.1742 11.8801L15.9336 12.367Z" fill="white"/>
</g>
</g>
</g>
</g>
</g>
</g>
</svg>
