<svg width="37" height="36" viewBox="0 0 37 36" fill="none" xmlns="http://www.w3.org/2000/svg">
    <g clip-path="url(#clip0_722_183)">
        <path d="M7.43722 31.2556C6.09083 31.2556 5.04898 32.2654 5.04898 33.6278C5.04898 34.9903 6.0748 36.0001 7.43722 36.0001C8.79964 36.0001 9.8415 34.9742 9.8415 33.6278C9.8415 32.2815 8.81567 31.2556 7.43722 31.2556ZM7.45325 35.0223C6.68388 35.0223 6.13891 34.4293 6.13891 33.6278C6.13891 32.8264 6.68388 32.2334 7.45325 32.2334C8.22262 32.2334 8.78361 32.8264 8.78361 33.6278C8.78361 34.4293 8.20659 35.0223 7.45325 35.0223ZM10.13 32.2975H10.7872V35.9199H11.8611V31.3518H10.13V32.2975ZM2.37222 32.2334C2.93321 32.2334 3.38201 32.57 3.5423 33.0829H4.66429C4.45592 31.9929 3.55833 31.2396 2.37222 31.2396C1.04185 31.2556 0 32.2654 0 33.6278C0 34.9903 1.02582 36.0001 2.38825 36.0001C3.5423 36.0001 4.45592 35.2628 4.66429 34.1568H3.5423C3.38201 34.6697 2.93321 35.0223 2.38825 35.0223C1.61888 35.0223 1.07391 34.4293 1.07391 33.6278C1.07391 32.8264 1.60285 32.2334 2.37222 32.2334ZM30.3419 33.1951L29.5565 33.0829C29.1879 33.0348 28.9154 32.9066 28.9154 32.6181C28.9154 32.2975 29.268 32.1372 29.7329 32.1372C30.2458 32.1372 30.5824 32.3616 30.6465 32.7142H31.6723C31.5601 31.8006 30.8548 31.2556 29.7649 31.2556C28.6429 31.2556 27.8896 31.8327 27.8896 32.6501C27.8896 33.4195 28.3704 33.8843 29.3642 34.0125L30.1496 34.1247C30.5343 34.1728 30.7427 34.3331 30.7427 34.6056C30.7427 34.9742 30.374 35.1185 29.8611 35.1185C29.236 35.1185 28.8833 34.862 28.8192 34.4774H27.7774C27.8736 35.375 28.5788 36.0001 29.8451 36.0001C30.9991 36.0001 31.7845 35.4711 31.7845 34.5575C31.7845 33.74 31.2235 33.3233 30.3419 33.1951ZM11.3321 29.4604C10.9475 29.4604 10.6429 29.749 10.6429 30.1336C10.6429 30.5183 10.9314 30.8068 11.3321 30.8068C11.7168 30.8068 12.0214 30.5183 12.0214 30.1336C12.0214 29.749 11.7168 29.4604 11.3321 29.4604ZM26.9439 32.9066C26.9439 31.9128 26.3348 31.2556 25.0686 31.2556C23.8664 31.2556 23.1932 31.8647 23.049 32.7944H24.1069C24.1549 32.4257 24.4435 32.1372 25.0525 32.1372C25.5975 32.1372 25.854 32.3776 25.854 32.6661C25.854 33.0508 25.3731 33.147 24.764 33.2111C23.9466 33.3073 22.9368 33.5798 22.9368 34.6376C22.9368 35.4551 23.5459 35.984 24.5236 35.984C25.293 35.984 25.7578 35.6635 25.9982 35.1666C26.0303 35.6154 26.3669 35.9039 26.8477 35.9039H27.4728V34.9582H26.9439V32.9066ZM25.886 34.0606C25.886 34.6697 25.3571 35.1185 24.6999 35.1185C24.2992 35.1185 23.9626 34.9582 23.9626 34.5896C23.9626 34.1408 24.5076 34.0125 25.0044 33.9644C25.4853 33.9164 25.7418 33.8202 25.886 33.6118V34.0606ZM20.244 31.2556C19.6509 31.2556 19.1541 31.4961 18.8014 31.9128V29.4124H17.7435V35.9039H18.7854V35.3108C19.138 35.7436 19.6509 36.0001 20.244 36.0001C21.5263 36.0001 22.488 34.9903 22.488 33.6278C22.488 32.2654 21.5102 31.2556 20.244 31.2556ZM20.0837 35.0223C19.3143 35.0223 18.7694 34.4293 18.7694 33.6278C18.7694 32.8264 19.3304 32.2334 20.0997 32.2334C20.8691 32.2334 21.4141 32.8264 21.4141 33.6278C21.4141 34.4293 20.8531 35.0223 20.0837 35.0223ZM15.195 31.2556C14.5058 31.2556 14.057 31.5441 13.7845 31.9288V31.3358H12.7266V35.9039H13.7845V33.4195C13.7845 32.7142 14.2333 32.2334 14.8905 32.2334C15.4996 32.2334 15.8842 32.6661 15.8842 33.2912V35.9039H16.9421V33.2111C16.9421 32.0731 16.3491 31.2556 15.195 31.2556ZM36.8495 33.4836C36.8495 32.1693 35.8878 31.2556 34.6055 31.2556C33.2431 31.2556 32.2333 32.2815 32.2333 33.6278C32.2333 35.0544 33.3072 36.0001 34.6215 36.0001C35.7275 36.0001 36.5931 35.3429 36.8174 34.4132H35.7115C35.5512 34.814 35.1665 35.0544 34.6376 35.0544C33.9483 35.0544 33.4354 34.6376 33.3232 33.8843H36.8495V33.4836ZM33.3874 33.131C33.5637 32.4898 34.0285 32.1853 34.5895 32.1853C35.1986 32.1853 35.6474 32.5219 35.7596 33.131H33.3874Z" fill="#0052FF"/>
        <path d="M18.4167 0C26.0944 0 32.3134 6.21905 32.3134 13.8967C32.3134 21.5744 26.0944 27.7934 18.4167 27.7934C10.7391 27.7934 4.52002 21.5744 4.52002 13.8967C4.52002 6.21905 10.7391 0 18.4167 0Z" fill="#0052FF"/>
        <path d="M18.4328 18.7855C15.74 18.7855 13.5441 16.6056 13.5441 13.8968C13.5441 11.188 15.7239 9.00808 18.4328 9.00808C20.8531 9.00808 22.8566 10.7712 23.2413 13.0793H28.162C27.7453 8.0624 23.5458 4.11938 18.4167 4.11938C13.0151 4.11938 8.63934 8.49516 8.63934 13.8968C8.63934 19.2984 13.0151 23.6742 18.4167 23.6742C23.5458 23.6742 27.7453 19.7311 28.162 14.7142H23.2413C22.8566 17.0223 20.8531 18.7855 18.4328 18.7855Z" fill="white"/>
    </g>
    <defs>
        <clipPath id="clip0_722_183">
            <rect width="36.8495" height="36" fill="white"/>
        </clipPath>
    </defs>
</svg>
