<svg width="39" height="25" viewBox="0 0 39 25" fill="none" xmlns="http://www.w3.org/2000/svg">
<g id="CORN - Corn USD">
<path id="Vector" d="M37.5505 25H0.658812C0.295003 25 0 24.7054 0 24.3421V0.657924C0 0.294605 0.295003 0 0.658812 0H37.5506C37.9144 0 38.2094 0.294605 38.2094 0.657924V24.3421C38.2093 24.7055 37.9143 25 37.5505 25Z" fill="#E1C04B"/>
<g id="corn 1" clip-path="url(#clip0_17999_31443)">
<path id="Vector_2" d="M22.7284 16.5368L22.4491 16.2575C22.2592 16.0703 22.055 15.8984 21.8383 15.743C21.8551 15.7271 21.8742 15.7154 21.8907 15.6989C24.5877 13.0018 28.5637 7.84924 26.3591 5.64477C24.1546 3.4403 19.0021 7.41619 16.3049 10.1133C16.2886 10.1298 16.2767 10.1489 16.2608 10.1655C16.1055 9.94885 15.9335 9.74461 15.7465 9.5547L15.4672 9.2754C15.313 9.12107 15.0628 9.12107 14.9086 9.2754L13.7915 10.3926C12.1138 12.0762 11.8092 14.6905 13.0552 16.7146L12.1157 17.6539C12.0417 17.7279 12 17.8284 12 17.9332C12 18.0379 12.0417 18.1384 12.1157 18.2125L13.7915 19.8881C13.8654 19.9623 13.966 20.004 14.0707 20.004C14.1755 20.004 14.2759 19.9623 14.35 19.8881L15.2893 18.9488C17.3134 20.1946 19.9278 19.8902 21.6114 18.2125L22.7284 17.0954C22.8026 17.0213 22.8443 16.9208 22.8443 16.8161C22.8443 16.7112 22.8026 16.6109 22.7284 16.5368ZM19.4386 14.7979C19.9025 14.3326 20.3488 13.8834 20.7677 13.4588L21.881 14.5723C21.6951 14.77 21.5111 14.9612 21.3321 15.1403C21.2687 15.2 21.202 15.256 21.1322 15.3078C20.6015 15.0409 20.0284 14.8684 19.4386 14.7979ZM19.1024 11.7937L20.2098 12.901C19.55 13.5701 18.9115 14.2095 18.3422 14.7788C17.8332 14.8257 17.3341 14.9484 16.8614 15.1426C17.0555 14.6698 17.1781 14.1706 17.2251 13.6618C17.7945 13.0925 18.4338 12.4539 19.1024 11.7937ZM19.2297 8.56955L20.2424 9.58218C19.8831 9.92715 19.5053 10.294 19.1087 10.6828L18.0158 9.58985C18.4017 9.24676 18.8091 8.90353 19.2297 8.56955ZM21.1821 7.17044L21.974 7.96235C21.6136 8.2875 21.2245 8.64968 20.8147 9.03732L19.8611 8.08356C20.298 7.75739 20.7412 7.45003 21.1821 7.17044ZM25.7844 6.19166C25.8718 6.5696 25.1191 7.59713 24.0043 8.87561L23.1201 7.99142C24.3895 6.87422 25.4049 6.11427 25.7697 6.1811C25.7741 6.18515 25.7799 6.18732 25.7844 6.19166ZM23.4791 9.46763C23.1402 9.84326 22.7812 10.2319 22.4066 10.6292L21.3717 9.59448C21.7683 9.21913 22.156 8.85898 22.5304 8.51878L23.4791 9.46763ZM22.4141 13.9882L21.3212 12.8952C21.709 12.4994 22.0758 12.1215 22.4218 11.7615L23.4344 12.7743C23.1003 13.1947 22.7571 13.6023 22.4141 13.9882ZM23.9204 12.143L22.9667 11.1894C23.3543 10.7795 23.7165 10.3904 24.0416 10.0301L24.8335 10.822C24.5538 11.2626 24.2464 11.7059 23.9204 12.143ZM20.7997 10.1395L21.8626 11.2024C21.5 11.5814 21.1315 11.9618 20.7636 12.3377L19.6655 11.2398C20.0413 10.8715 20.4214 10.5025 20.7997 10.1395ZM25.2516 10.1228L24.5658 9.43711C25.1792 8.76467 25.7277 8.03568 26.2042 7.25997C26.2295 8.05058 25.8528 9.05598 25.2516 10.1228ZM24.744 5.79982C23.9683 6.27613 23.2395 6.8246 22.5669 7.43803L21.8813 6.75243C22.9479 6.15116 23.9534 5.77451 24.7439 5.79982H24.744ZM16.8635 10.6719C17.0428 10.4927 17.234 10.3087 17.4317 10.1228L18.5451 11.2363C18.1206 11.655 17.6714 12.1014 17.2061 12.5653C17.1355 11.9754 16.9631 11.4023 16.6961 10.8715C16.7478 10.8016 16.8038 10.735 16.8635 10.6719ZM14.35 10.9512L15.1879 10.1133C16.8818 11.8111 16.8818 14.5597 15.1879 16.2575L14.35 17.0954C12.6559 15.3976 12.6559 12.649 14.35 10.9512ZM14.6293 18.4918L14.0707 19.0504L12.9536 17.9332L13.5122 17.3746L14.6293 18.4918ZM21.0528 17.6539C19.355 19.3479 16.6064 19.3479 14.9086 17.6539L15.7465 16.8161C17.4443 15.1221 20.1929 15.1221 21.8907 16.8161L21.0528 17.6539Z" fill="white"/>
</g>
</g>
<defs>
<clipPath id="clip0_17999_31443">
<rect width="15" height="15" fill="white" transform="translate(12 5)"/>
</clipPath>
</defs>
</svg>
