<svg width="136" height="40" viewBox="0 0 136 40" fill="none" xmlns="http://www.w3.org/2000/svg">
<path d="M132.953 9.1307C130.671 6.36427 126.646 4.77785 121.911 4.77785C116.901 4.77785 112.391 6.48143 109.267 9.24643L109.776 6.05429L108.422 5.65141C106.505 5.07998 104.376 4.77785 102.266 4.77785C98.6385 4.77785 95.1699 5.89928 92.3678 7.74714L93.1742 5.09H71.4857L71.2285 5.93856C69.3014 5.16356 67.1814 4.77785 64.7928 4.77785C60.3278 4.77785 55.495 6.51071 52.9857 9.84714C52.8214 9.60286 52.6492 9.36213 52.4578 9.1307C50.1757 6.36427 46.1507 4.77785 41.415 4.77785C36.5535 4.77785 32.1571 6.38071 29.0471 9.00357L30.2578 1.64284L28.8821 1.245C26.5328 0.565714 23.9221 0.206421 21.3314 0.206421C11.8271 0.206421 3.17638 6.24785 1.63781 13.9593C0.982805 17.24 1.74781 20.4178 3.78995 22.9086C5.53066 25.0307 8.10137 26.5436 11.1557 27.3164H1.73923V39.3607H49.7042L49.7785 39.2136L49.7878 39.3607H55.5614L56.3442 38.0843L56.1021 39.3607H69.1557L69.3471 38.3543C70.4942 39.0971 71.9835 39.5007 73.6985 39.5007C75.2314 39.5007 76.6535 39.1829 77.8792 38.6179L77.7385 39.3607H96.0407L96.0721 39.1971C96.9207 39.3886 97.8121 39.5014 98.6635 39.5014C99.1807 39.5014 99.7135 39.455 100.244 39.3614H107.221L107.739 38.2621H108.204L108.346 39.3614H129.868L130.938 33.7257H130.545L130.692 32.9514H130.974L132.045 27.3164H131.449C131.935 26.8771 132.289 26.3128 132.411 25.6707C132.555 24.9078 132.357 24.1314 131.868 23.5414C131.741 23.3886 131.595 23.2543 131.438 23.1336C133.145 21.38 134.329 19.2579 134.789 16.8721C135.351 13.9457 134.717 11.2686 132.953 9.1307ZM120.501 33.3043H119.841L120.838 28.0643C121.065 28.035 121.291 28.0021 121.516 27.9664L120.501 33.3043ZM105.099 16.2586C105.03 16.6086 104.983 16.9543 104.948 17.295C103.496 18.2664 102.135 18.7257 100.679 18.7257C99.6942 18.7257 98.8414 18.4043 98.3978 17.8657C98.145 17.56 98.0599 17.2179 98.1385 16.82C98.3978 15.4779 100.219 14.3007 102.034 14.3007C103.169 14.3007 104.236 14.7021 105.283 15.5236C105.218 15.7671 105.146 16.0093 105.099 16.2586ZM106.569 27.3157L105.86 28.4836L105.271 28.1536C104.883 27.9357 104.466 27.7678 104.037 27.6221C104.351 27.5471 104.645 27.4628 104.901 27.37L105.727 27.07L106.539 23.5093C106.649 23.6621 106.754 23.8186 106.875 23.9657C108.101 25.4507 109.866 26.5864 111.999 27.315L106.569 27.3157ZM113.756 27.8086L113.474 29.2907L113.082 27.6443C113.304 27.7021 113.527 27.7586 113.756 27.8086ZM120.662 14.4564C121.546 14.4564 122.227 14.6914 122.58 15.1179C122.904 15.5107 122.892 16.0114 122.823 16.3636C122.541 17.8157 121.051 18.83 119.193 18.83C118.289 18.83 117.575 18.5914 117.232 18.1757C116.995 17.8879 116.924 17.4843 117.023 16.975C117.264 15.7236 118.591 14.4564 120.662 14.4564ZM79.8171 28.3978C79.5628 28.2257 79.2864 28.0736 78.9978 27.9364H79.9057L79.8171 28.3978ZM74.8235 33.3028C74.7064 33.4071 74.5157 33.4771 74.2949 33.49C74.4078 33.3928 74.585 33.3128 74.8235 33.3028ZM73.4042 14.5921L72.3271 18.1379C72.2578 17.1907 71.9628 16.33 71.4457 15.5643C71.2321 15.2507 70.9778 14.965 70.6978 14.6936L73.4042 14.5921ZM42.3264 16.3628C42.0457 17.8157 40.5528 18.83 38.6964 18.83C37.7935 18.83 37.0785 18.5914 36.7357 18.1757C36.4978 17.8879 36.4278 17.4843 36.5264 16.975C36.7685 15.7229 38.0964 14.4564 40.1664 14.4564C41.0507 14.4564 41.7321 14.6914 42.0842 15.1179C42.4071 15.5107 42.3942 16.0121 42.3264 16.3628ZM54.7742 27.8921L54.7392 27.9664L54.7321 27.8857C54.7464 27.8871 54.76 27.89 54.7742 27.8921ZM70.8007 23.1714L69.5428 27.3157H64.7121C67.1814 26.5007 69.3957 25.1343 70.8007 23.1714ZM71.3249 27.9364H71.5942C71.4942 27.9786 71.3971 28.0214 71.3007 28.0664L71.3249 27.9364ZM19.3535 17.0657C17.975 17.0657 16.7807 16.6128 16.1585 15.855C15.7985 15.4164 15.6778 14.9307 15.7892 14.3707C16.1492 12.5671 18.5542 11.0436 21.0407 11.0436C22.7192 11.0436 24.2742 11.6736 25.7928 12.96C25.3914 13.71 25.0721 14.4957 24.8399 15.315C22.9849 16.5021 21.2328 17.0657 19.3535 17.0657ZM47.7678 25.605L49.3371 26.3114C50.2042 26.7014 51.1678 27.035 52.1764 27.3164H49.2571L48.9442 27.9428L48.9042 27.3164H43.8571C45.2685 26.8829 46.5792 26.3064 47.7678 25.605ZM86.015 33.3043L87.1535 27.3157H81.6278L85.4999 14.555L86.6807 14.6C86.4628 15.1829 86.2792 15.7764 86.16 16.3886C85.6092 19.2364 86.2785 21.985 88.0471 24.1271C89.2121 25.5393 90.8121 26.6121 92.6842 27.315H87.8149L86.6757 33.3036L86.015 33.3043ZM24.4671 26.8678L25.2992 26.575L26.0264 23.485C26.1428 23.6471 26.2514 23.8114 26.3799 23.9664C27.6049 25.4514 29.3707 26.5871 31.5021 27.3157H22.6892C23.3557 27.1907 23.9685 27.0428 24.4671 26.8678ZM124.354 27.3157C125.069 27.095 125.759 26.8393 126.421 26.5486C126.518 26.7814 126.636 27.0064 126.799 27.2043C126.834 27.2457 126.88 27.2771 126.916 27.3157H124.354Z" fill="white"/>
<path d="M47.3907 28.9286L47.7236 34.1922H47.8078C47.98 33.6543 48.1714 33.0929 48.44 32.5664L50.2543 28.9286H53.2021L53.6479 34.1922H53.7321C53.8857 33.6772 54.0586 33.1386 54.2943 32.6365L56.0657 28.9286H60.0664L54.6564 37.7479H51.3014L51.0057 32.9522H50.8793C50.7507 33.4093 50.6378 33.8529 50.4293 34.2857L48.7043 37.7479H45.4329L43.4036 28.9286H47.3907Z" fill="#005DAA"/>
<path d="M59.7858 28.9286H63.4915L62.9273 31.8993H65.2851L65.8501 28.9286H69.5558L67.8801 37.7479H64.1744L64.7566 34.6836H62.398L61.8158 37.7479H58.1101L59.7858 28.9286Z" fill="#005DAA"/>
<path d="M80.4094 33.3614C79.8716 36.1921 76.9237 37.8878 73.6966 37.8878C70.4673 37.8878 68.1637 36.1914 68.7023 33.3614C69.2287 30.5893 72.2108 28.7878 75.4251 28.7878C78.6394 28.7878 80.9351 30.5893 80.4094 33.3614ZM72.568 33.4078C72.3758 34.4135 73.0594 35.1043 74.2244 35.1043C75.3901 35.1043 76.3351 34.4135 76.5273 33.4078C76.7044 32.4714 76.0958 31.6886 74.8744 31.6886C73.6516 31.6893 72.7451 32.4721 72.568 33.4078ZM81.2523 28.9285H85.0987L83.9601 34.9171H87.1894L86.6508 37.7471H79.5758L81.2523 28.9285ZM96.2887 34.5893L96.4601 34.7185C97.063 35.1628 97.8223 35.5257 98.7073 35.5257C99.0866 35.5257 99.7144 35.3964 99.7901 34.9993C99.8659 34.6021 99.3673 34.5671 99.0287 34.5078L98.278 34.3914C96.8173 34.1686 95.6959 33.4314 95.9566 32.0521C96.3559 29.9585 98.8651 28.7885 101.167 28.7885C102.374 28.7885 103.438 29.035 104.376 29.5607L102.908 31.8185C102.319 31.4443 101.631 31.1514 100.802 31.1514C100.466 31.1514 99.9537 31.2557 99.8866 31.6185C99.8237 31.9457 100.292 31.9928 100.576 32.0514L101.416 32.215C102.985 32.52 104.027 33.2443 103.744 34.7414C103.342 36.8471 100.842 37.8878 98.5544 37.8878C97.2216 37.8878 95.7344 37.5835 94.6373 37.0807L96.2887 34.5893Z" fill="#005DAA"/>
<path d="M109.503 34.5543L109.349 32.9986C109.308 32.6243 109.311 32.2386 109.313 31.8636H109.172L107.96 34.5543H109.503ZM106.154 37.7479H102.083L107.438 28.9286H111.691L113.791 37.7479H109.72L109.578 36.6486H106.673L106.154 37.7479Z" fill="#005DAA"/>
<path d="M115.146 28.9286H118.992L117.854 34.9172H121.083L120.544 37.7472H113.47L115.146 28.9286ZM122.935 28.9286H130.053L129.594 31.3386H126.351L126.191 32.1807H129.152L128.717 34.4736H125.755L125.591 35.3386H128.947L128.488 37.7479H121.259L122.935 28.9286Z" fill="#005DAA"/>
<path d="M70.7486 13.0785L75.605 12.8964L71.53 26.3243H80.2436L84.3172 12.8964L89.0643 13.0785L90.9986 6.70284H72.6814L70.7486 13.0785ZM52.7065 16.565C51.4879 22.8614 44.8122 26.6357 37.4979 26.6357C30.1843 26.6357 24.9679 22.8621 26.1865 16.565C27.3793 10.3971 34.1329 6.39069 41.415 6.39069C48.6965 6.39069 53.8993 10.3978 52.7065 16.565ZM34.9422 16.6693C34.51 18.9071 36.0579 20.4428 38.6957 20.4428C41.335 20.4428 43.4765 18.9078 43.9093 16.6693C44.3122 14.5878 42.9322 12.845 40.1658 12.845C37.3993 12.8436 35.345 14.5878 34.9422 16.6693Z" fill="#E31837"/>
<path d="M49.9987 24.84C52.4852 25.9578 55.8523 26.6357 58.873 26.6357C64.0566 26.6357 69.7194 24.32 70.6251 19.6357C71.2694 16.305 68.9116 14.6914 65.353 14.015L63.4516 13.6507C62.8087 13.52 61.748 13.4164 61.8887 12.6871C62.0444 11.8807 63.203 11.6457 63.9666 11.6457C65.8416 11.6457 67.4023 12.2964 68.7351 13.1293L72.0594 8.10713C69.9323 6.93641 67.5266 6.39069 64.7916 6.39069C59.5766 6.39069 53.8894 8.99283 52.9887 13.6507C52.3944 16.7214 54.9394 18.3607 58.2459 18.8557L59.9444 19.115C60.7144 19.2464 61.8444 19.3235 61.673 20.2078C61.5016 21.0921 60.0794 21.3785 59.2202 21.3785C57.2166 21.3785 55.4966 20.5721 54.1301 19.5835L53.7409 19.2971L49.9987 24.84ZM107.959 7.19711C106.217 6.6764 104.236 6.39069 102.264 6.39069C95.2366 6.39069 88.8494 10.9707 87.7416 16.6957C86.6587 22.2907 91.1609 26.6364 97.998 26.6364C99.5552 26.6364 102.844 26.4021 104.35 25.8557L106.024 18.5178C104.407 19.6364 102.683 20.3393 100.679 20.3393C98.073 20.3393 96.1366 18.6736 96.5552 16.515C96.968 14.3807 99.4266 12.69 102.034 12.69C104.005 12.69 105.577 13.6007 106.772 14.6686L107.959 7.19711ZM121.911 6.39069C114.629 6.39069 107.876 10.3971 106.682 16.565C105.464 22.8614 110.681 26.6357 117.995 26.6357C125.308 26.6357 131.985 22.8621 133.203 16.565C134.394 10.3978 129.192 6.39069 121.911 6.39069ZM120.662 12.8435C123.429 12.8435 124.809 14.5864 124.405 16.6678C123.973 18.9057 121.831 20.4414 119.192 20.4414C116.552 20.4414 115.005 18.9064 115.438 16.6678C115.841 14.5878 117.896 12.8435 120.662 12.8435ZM28.433 2.79356C26.258 2.16427 23.7894 1.81854 21.3301 1.81854C12.5651 1.81854 4.59871 7.35427 3.218 14.2743C1.86871 21.0371 7.483 26.2893 16.0094 26.2893C17.953 26.2893 22.0551 26.0064 23.9316 25.3464L26.0194 16.4757C24.0044 17.8286 21.8523 18.6778 19.353 18.6778C16.1009 18.6778 13.6873 16.6643 14.208 14.0528C14.723 11.4743 17.7887 9.42856 21.0401 9.42856C23.4987 9.42856 25.4601 10.53 26.948 11.8193L28.433 2.79356Z" fill="#E31837"/>
<path d="M127.841 25.37C127.972 24.685 128.735 24.1328 129.567 24.1328C130.392 24.1328 130.951 24.685 130.821 25.37C130.689 26.0592 129.922 26.6114 129.095 26.6114C128.264 26.6114 127.711 26.0585 127.841 25.37ZM130.432 25.37C130.537 24.8185 130.141 24.4564 129.504 24.4564C128.857 24.4564 128.334 24.8185 128.23 25.37C128.125 25.9221 128.509 26.2878 129.157 26.2878C129.794 26.2878 130.327 25.9228 130.432 25.37ZM129.902 26.0178H129.517L129.274 25.4685H129.022L128.918 26.0178H128.591L128.837 24.7207H129.592C129.925 24.7207 130.105 24.8128 130.048 25.1178C130.004 25.34 129.831 25.4542 129.63 25.4699L129.902 26.0178ZM129.424 25.2207C129.588 25.2207 129.729 25.2207 129.756 25.0821C129.777 24.9678 129.636 24.9678 129.472 24.9678H129.118L129.072 25.2207H129.424Z" fill="#E31837"/>
<path d="M3.82715 37.7622H44.6079L44.605 37.7479H44.5714L44.0557 35.505H3.82715V37.7622ZM3.82715 34.5564H43.8371L43.3171 32.3H3.82715V34.5564ZM3.82715 31.3372H43.0829L42.9064 30.515L42.5457 28.9457H3.82715V31.3372ZM89.0422 28.9286H96.1593L95.7014 31.3386H92.4586L92.2979 32.1807H95.2593L94.8243 34.4736H91.8629L91.6986 35.3386H95.0536L94.5957 37.7479H87.365L89.0422 28.9286Z" fill="#005DAA"/>
</svg>
