<svg width="66" height="25" viewBox="0 0 66 25" fill="none" xmlns="http://www.w3.org/2000/svg">
    <path fill-rule="evenodd" clip-rule="evenodd" d="M25.1612 0C30.057 0 33.5886 3.65261 33.5886 8.17436C33.5886 12.6851 30.057 16.3377 25.1612 16.3377C20.2654 16.3377 16.7448 12.6851 16.7448 8.17436C16.7338 3.64161 20.2654 0 25.1612 0ZM8.51542 0C10.8698 0 12.9492 0.891148 14.3794 2.27738L12.3551 4.40073C11.4089 3.45458 10.0447 2.79447 8.49341 2.79447C5.51192 2.79447 3.19053 5.19287 3.19053 8.17436C3.19053 11.2109 5.61093 13.5543 8.62544 13.5543C10.2537 13.5543 11.5629 12.9272 12.4871 12.058L14.4784 14.1594C13.0372 15.4796 10.9688 16.3377 8.55943 16.3377C3.6196 16.3377 0 12.7291 0 8.17436C0 3.6086 3.56459 0 8.51542 0ZM35.1729 0.385064H48.287V3.0145H43.3142V15.9417H40.1567V3.0145H35.1729V0.385064ZM50.0363 0.385064H53.854L58.0677 6.84314L62.2264 0.385064H66L59.5859 9.84664V15.9527H56.4394V9.87965L50.0363 0.385064ZM25.1612 2.78346C22.2127 2.78346 19.9353 5.21487 19.9353 8.16336C19.9353 11.1119 22.2237 13.5433 25.1612 13.5433C28.1097 13.5433 30.3981 11.1119 30.3981 8.16336C30.3981 5.21487 28.1097 2.78346 25.1612 2.78346ZM18.164 20.2104C18.5491 20.2104 18.9011 20.3094 19.2532 20.5734L18.8681 21.0795C18.7141 20.9475 18.4721 20.8265 18.219 20.8265C17.944 20.8265 17.6359 20.9475 17.6359 21.2445C17.6359 21.8496 19.3742 21.6846 19.3742 22.9608C19.3742 23.6319 18.7801 24.094 18.098 24.094C17.5919 24.094 17.1189 23.885 16.7338 23.5329L17.2069 23.0598C17.4159 23.3019 17.746 23.4669 18.098 23.4669C18.4281 23.4669 18.6481 23.2689 18.6481 22.9938C18.6481 22.2347 16.9098 22.4657 16.9098 21.2665C16.9098 20.5954 17.5369 20.2104 18.164 20.2104ZM28.7588 20.2104C29.3199 20.2104 29.804 20.3864 30.134 20.7275L29.6719 21.2115C29.4519 20.9915 29.1329 20.8265 28.7588 20.8265C28.0437 20.8265 27.5156 21.4316 27.5156 22.1467C27.5156 22.8838 28.0657 23.4779 28.7918 23.4779C29.1879 23.4779 29.4959 23.3239 29.716 23.1149L30.178 23.5769C29.837 23.885 29.3529 24.094 28.7808 24.094C27.6036 24.094 26.7675 23.2359 26.7675 22.1577C26.7675 21.0685 27.5926 20.2104 28.7588 20.2104ZM43.3252 20.2434C44.2714 20.2434 44.6344 21.1015 44.6344 22.1577C44.6344 23.2139 44.2714 24.072 43.3252 24.072C42.3791 24.072 42.016 23.2139 42.016 22.1577C42.016 21.1015 42.3791 20.2434 43.3252 20.2434ZM39.7936 20.2544C40.4867 20.2544 41.1469 20.7385 41.1469 21.5196C41.1469 21.8826 40.9818 22.2127 40.7838 22.5318L39.9147 24.006H39.1335L39.8266 22.8288H39.7826C39.0785 22.8288 38.4844 22.3007 38.4844 21.5526C38.4734 20.8265 39.0785 20.2544 39.7936 20.2544ZM47.1869 20.2984H47.6819V22.5758H48.298V23.1589H47.6819V24.006H46.9668V23.1589H45.2505V22.7408L47.1869 20.2984ZM20.5404 20.2984H21.2665V23.995H20.5404V20.2984ZM22.7078 20.2984H23.2029L25.0842 22.6748V20.2984H25.7663V23.995H25.2712L23.3899 21.6186V23.995H22.7078V20.2984ZM31.1022 20.2984H33.3356V20.9035H31.8173V21.7726H33.1045V22.3667H31.8173V23.3789H33.3796V23.984H31.1022V20.2984ZM36.8341 20.2984H37.3402V23.995H36.6251V21.1125L35.932 21.4976V20.8265L36.8341 20.2984ZM43.3252 20.8705C42.8962 20.8705 42.7421 21.4536 42.7421 22.1467C42.7421 22.8508 42.8962 23.4229 43.3252 23.4229C43.7543 23.4229 43.8973 22.8398 43.8973 22.1467C43.9083 21.4536 43.7543 20.8705 43.3252 20.8705ZM39.8046 20.8815C39.4416 20.8815 39.1775 21.1785 39.1775 21.5306C39.1775 21.8826 39.4416 22.1907 39.8376 22.1907C39.9697 22.1907 40.0907 22.1687 40.2337 22.1027C40.3327 21.9707 40.4537 21.7616 40.4537 21.5196C40.4537 21.1675 40.1567 20.8815 39.8046 20.8815ZM46.9668 21.5856L46.1857 22.5758H46.9668V21.5856Z" fill="#002554"/>
</svg>
