<svg width="160" height="40" viewBox="0 0 160 40" fill="none" xmlns="http://www.w3.org/2000/svg">
    <path d="M82.841 18.526C82.841 19.5718 82.1408 23.225 77.8486 23.2394C73.5555 23.225 72.8552 19.5718 72.8552 18.526V11.1476C72.8552 10.1018 73.5555 6.45127 77.8486 6.43506C82.1408 6.45127 82.841 10.1018 82.841 11.1476V18.526ZM86.7309 6.45486C85.6635 4.39561 83.4503 2.06725 78.889 2.04834V2.04655H78.8602H78.8368V2.04834C75.828 2.06005 73.8372 3.29038 72.5294 4.57201V2.82597C72.5294 2.65226 72.389 2.51096 72.2144 2.51096H68.1283C67.9546 2.51096 67.8142 2.65226 67.8142 2.82597V37.0575C67.8142 37.2312 67.9546 37.3725 68.1283 37.3725H72.533C72.7067 37.3725 72.8471 37.2312 72.8471 37.0575V25.3986C74.1594 26.5344 76.0593 27.6144 78.8368 27.6234H78.8602H78.889C83.4503 27.6072 85.6635 25.278 86.7309 23.2187C87.8505 21.0578 87.8964 18.7789 87.8964 18.3181V11.351C87.8964 10.8938 87.8505 8.61402 86.7309 6.45486Z" fill="#E94B22"/>
    <path d="M25.5744 18.505C25.5744 19.5508 26.2773 23.2004 30.5695 23.2184C34.8608 23.2004 35.5655 19.5508 35.5655 18.505V11.1275C35.5655 10.0826 34.8608 6.42665 30.5695 6.41135C26.2773 6.42665 25.5744 10.0826 25.5744 11.1275V18.505ZM20.5378 11.3516C20.5378 10.8935 20.5882 8.61461 21.8249 6.45366C23.0111 4.3953 25.4727 2.06694 30.5398 2.04894V2.04714H30.5695H30.5938V2.04894C35.6627 2.06694 38.1234 4.3953 39.306 6.45366C40.5472 8.61461 40.5976 10.8935 40.5976 11.3516V18.3178C40.5976 18.7795 40.5472 21.0583 39.306 23.2184C38.1234 25.2777 35.6627 27.6069 30.5938 27.624H30.5695H30.5398C25.4727 27.6069 23.0111 25.2777 21.8249 23.2184C20.5882 21.0583 20.5378 18.7795 20.5378 18.3178V11.3516Z" fill="#894F24"/>
    <path d="M63.9958 2.82576C63.9958 2.65566 63.8617 2.51075 63.6808 2.51075H59.2833C59.1024 2.51075 58.9683 2.65566 58.9683 2.82576L58.9503 18.5258C58.9503 19.5698 58.2573 23.2212 53.9669 23.2392C49.6674 23.2212 48.9663 19.5698 48.9663 18.5258V2.82576C48.9663 2.65566 48.8223 2.51075 48.6504 2.51075H44.225C44.0549 2.51075 43.9109 2.65566 43.9109 2.82576V18.3188C43.9109 18.7787 43.955 21.063 45.08 23.2212C46.1411 25.2814 48.3633 27.6106 52.9228 27.6196H52.9507H52.9687C54.4799 27.6196 55.721 27.3046 56.7641 26.8375C57.7983 26.3695 58.6263 25.7494 59.2833 25.1014V26.8411C59.2833 27.0148 59.4237 27.1552 59.5974 27.1552H63.6844C63.8581 27.1552 63.9985 27.0148 63.9985 26.8411L63.9958 2.82576Z" fill="#894F24"/>
    <path d="M105.215 18.9312C105.215 19.9123 104.532 23.3477 100.353 23.3639C96.1727 23.3477 95.4905 19.9123 95.4905 18.9312V18.5316C95.4905 17.5488 96.1727 14.1152 100.353 14.1008C104.532 14.1152 105.215 17.5488 105.215 18.5316V18.9312ZM109.881 11.1109C109.878 9.14797 108.898 4.54975 104.439 2.7209C100.133 0.955053 94.4635 2.8928 92.6185 3.64162L92.281 3.77753C92.1199 3.84323 92.0425 4.02773 92.1082 4.18884L93.3655 7.75564C93.4213 7.90954 93.5851 7.99594 93.7399 7.95364C93.7912 7.94014 93.8659 7.90054 93.8875 7.88884C95.5958 7.02482 100.016 5.57038 102.734 6.80971C105.407 8.02834 105.174 10.8733 105.189 11.1775V11.8759C103.892 10.9318 102.084 10.0327 99.5298 10.0237H99.5055H99.4839C94.9162 10.0408 92.7067 12.2396 91.6348 14.1872C90.5196 16.2267 90.4719 18.3795 90.4719 18.816V18.8241C90.4719 19.2543 90.5196 21.4108 91.6348 23.4503C92.7067 25.3961 94.9162 27.594 99.4839 27.6138H99.5055H99.5298C102.189 27.6039 104.042 26.6471 105.346 25.6373V26.8406C105.346 27.0135 105.486 27.1557 105.66 27.1557H109.566C109.74 27.1557 109.881 27.0135 109.881 26.8406L109.885 11.2783C109.885 11.2216 109.885 11.1667 109.881 11.1109Z" fill="#FAC000"/>
    <path d="M152.19 11.186C152.19 12.1454 151.489 15.6348 147.196 15.6501C142.9 15.6348 142.202 12.1454 142.202 11.186V10.8718C142.202 9.90972 142.9 6.41943 147.196 6.40503C151.489 6.41943 152.19 9.90972 152.19 10.8718V11.186ZM159.666 2.16681C157.081 2.09391 155.405 3.16134 154.327 4.33857C152.877 3.07674 150.643 2.05971 147.227 2.04891V2.04711H147.196H147.169V2.04891C142.103 2.06691 139.642 4.28277 138.454 6.24842C137.219 8.31128 137.164 10.4821 137.164 10.9186V11.1563C137.164 11.5964 137.219 13.769 138.459 15.8256C138.987 16.7076 139.777 17.6355 140.941 18.3979C139.034 19.4941 137.35 21.4309 137.35 24.9275L137.349 26.8104C137.349 26.985 137.49 27.1254 137.664 27.1254L152.179 27.1245C153.922 27.1245 154.8 28.2729 155.047 29.3529C155.354 30.7066 154.834 32.5372 152.571 33.7793L152.42 33.8666C152.272 33.9521 152.219 34.1402 152.301 34.2905L154.242 37.8366C154.326 37.9914 154.521 38.0463 154.674 37.959C154.674 37.959 155.676 37.3461 156 37.1283C156.327 36.9086 156.614 36.6557 156.885 36.4028C159.374 34.0799 159.895 30.883 159.335 28.389C158.575 25.004 155.701 22.9691 152.179 22.9691H142.167C142.718 19.9441 146.247 20.0008 146.67 20.0179C146.67 20.0179 147.216 20.026 147.227 20.026C152.292 20.0107 154.75 17.7921 155.935 15.8256C157.173 13.769 157.229 11.5964 157.229 11.1563V10.9186C157.229 10.5451 157.186 8.9377 156.423 7.20245C157.087 6.74254 158.119 6.31682 159.635 6.39783L159.674 6.39873C159.849 6.40143 159.992 6.26283 159.995 6.08912L160 2.53762V2.53582V2.51962C160 2.33152 159.877 2.16681 159.666 2.16681Z" fill="#3DACDC"/>
    <path d="M18.878 22.3142L14.9791 20.3629C14.8234 20.2855 14.6344 20.3485 14.557 20.5042L14.53 20.5573L14.5282 20.5582C13.9243 21.8507 12.6471 23.207 10.0326 23.2187C5.74125 23.1989 5.03744 19.5511 5.03744 18.5053V11.1269C5.03744 10.0828 5.74125 6.42784 10.0326 6.41164C12.684 6.42244 13.9585 7.81748 14.5525 9.13062C14.6029 9.26112 14.7289 9.35742 14.8819 9.35742C14.9377 9.35742 14.9872 9.34032 15.0394 9.31512C15.043 9.31692 18.8609 7.32337 18.8609 7.32337C19.0148 7.24327 19.0751 7.05336 18.9941 6.89856L18.9905 6.89136L18.9896 6.88776C18.9212 6.74375 18.8519 6.59975 18.7691 6.45484C17.5856 4.39559 15.1249 2.06723 10.056 2.04833V2.04653H10.0281H10.0011V2.04833C4.93663 2.06723 2.47417 4.39559 1.29244 6.45484C0.0504021 8.614 0 10.8938 0 11.351V18.3181C0 18.7789 0.0504021 21.0577 1.29244 23.2187C2.47417 25.278 4.93663 27.6072 10.0011 27.6234H10.056C15.1249 27.6072 17.5856 25.278 18.7691 23.2187C18.7745 23.2106 19.0166 22.7372 19.0166 22.7372C19.0949 22.5815 19.0328 22.3925 18.878 22.3142Z" fill="#894F24"/>
    <path d="M132.707 6.43804C131.636 4.37789 129.422 2.05132 124.859 2.03513V2.03152C124.851 2.03152 124.848 2.03513 124.83 2.03513C124.828 2.03513 124.82 2.03152 124.808 2.03152V2.03513C121.808 2.04322 119.828 3.26636 118.518 4.53719L118.52 2.82535C118.52 2.65254 118.38 2.51124 118.206 2.51124H114.12C113.946 2.51124 113.805 2.65254 113.805 2.82535V26.8398C113.805 27.0135 113.946 27.1557 114.12 27.1557H118.521C118.696 27.1557 118.836 27.0135 118.836 26.8398V10.8752C118.942 9.59533 119.823 6.43174 123.818 6.41644C128.114 6.43264 128.813 10.0858 128.813 11.1317V26.8398C128.813 27.0135 128.954 27.1557 129.128 27.1557H133.551C133.725 27.1557 133.866 27.0135 133.866 26.8398V11.3378C133.866 10.8779 133.823 8.599 132.707 6.43804Z" fill="#80BC27"/>
</svg>
