<svg width="103" height="41" viewBox="0 0 103 41" fill="none" xmlns="http://www.w3.org/2000/svg">
<path d="M40.2152 0.454163V40.4542H4.76995e-07L0 0.454163L40.2152 0.454163ZM33.9551 8.68652L5.10207 8.68652L19.8496 33.767L33.9551 8.68652Z" fill="#231F20"/>
<path d="M56.7091 9.55581H53.8668C53.8149 9.18809 53.7089 8.86147 53.5488 8.57595C53.3888 8.28609 53.1833 8.03951 52.9324 7.83618C52.6814 7.63285 52.3916 7.47711 52.0628 7.36896C51.7383 7.2608 51.3858 7.20673 51.0051 7.20673C50.3172 7.20673 49.718 7.37761 49.2076 7.71937C48.6971 8.05681 48.3012 8.54999 48.02 9.19891C47.7388 9.8435 47.5982 10.6265 47.5982 11.548C47.5982 12.4954 47.7388 13.2914 48.02 13.936C48.3056 14.5806 48.7036 15.0673 49.214 15.3961C49.7245 15.7249 50.315 15.8893 50.9856 15.8893C51.362 15.8893 51.7102 15.8395 52.0304 15.74C52.3548 15.6405 52.6425 15.4956 52.8934 15.3052C53.1443 15.1106 53.352 14.8748 53.5164 14.5979C53.6851 14.321 53.8019 14.0052 53.8668 13.6505L56.7091 13.6635C56.6355 14.2735 56.4517 14.8618 56.1575 15.4285C55.8676 15.9909 55.4761 16.4949 54.9829 16.9405C54.4941 17.3818 53.9101 17.7322 53.2309 17.9918C52.556 18.247 51.7924 18.3746 50.9402 18.3746C49.7548 18.3746 48.6949 18.1064 47.7605 17.57C46.8303 17.0335 46.0949 16.257 45.5541 15.2403C45.0177 14.2237 44.7495 12.9929 44.7495 11.548C44.7495 10.0987 45.022 8.8658 45.5671 7.84916C46.1122 6.83252 46.852 6.05814 47.7864 5.52603C48.7209 4.98958 49.7721 4.72136 50.9402 4.72136C51.7102 4.72136 52.424 4.82952 53.0816 5.04582C53.7435 5.26213 54.3297 5.57794 54.8402 5.99325C55.3507 6.40423 55.766 6.90822 56.0861 7.50523C56.4106 8.10223 56.6182 8.78576 56.7091 9.55581Z" fill="#231F20"/>
<path d="M57.6275 18.1929V4.90306H62.8708C63.8745 4.90306 64.731 5.0826 65.4405 5.44167C66.1543 5.79641 66.6973 6.3004 67.0693 6.95365C67.4457 7.60257 67.6339 8.36613 67.6339 9.24433C67.6339 10.1269 67.4435 10.8861 67.0628 11.522C66.6821 12.1537 66.1305 12.6382 65.4081 12.9756C64.6899 13.3131 63.8204 13.4818 62.7994 13.4818H59.2888V11.2235H62.3452C62.8816 11.2235 63.3272 11.15 63.682 11.0029C64.0367 10.8558 64.3006 10.6352 64.4736 10.341C64.651 10.0468 64.7397 9.68127 64.7397 9.24433C64.7397 8.80307 64.651 8.43102 64.4736 8.12819C64.3006 7.82536 64.0345 7.59608 63.6755 7.44034C63.3207 7.28027 62.873 7.20024 62.3322 7.20024H60.4374V18.1929H57.6275ZM64.8046 12.145L68.1076 18.1929H65.0058L61.7741 12.145H64.8046Z" fill="#231F20"/>
<path d="M70.8138 18.1929H67.8029L72.3907 4.90306H76.0117L80.5931 18.1929H77.5821L74.2531 7.94H74.1493L70.8138 18.1929ZM70.6256 12.9691H77.7378V15.1625H70.6256V12.9691Z" fill="#231F20"/>
<path d="M88.0023 8.7252C87.9504 8.20174 87.7276 7.79508 87.334 7.50523C86.9403 7.21538 86.406 7.07045 85.7311 7.07045C85.2726 7.07045 84.8854 7.13534 84.5696 7.26513C84.2538 7.39059 84.0115 7.56579 83.8428 7.79075C83.6784 8.01571 83.5962 8.27095 83.5962 8.55648C83.5875 8.79442 83.6373 9.00207 83.7454 9.17944C83.8579 9.35681 84.0115 9.51039 84.2062 9.64017C84.4008 9.76563 84.6258 9.87595 84.881 9.97112C85.1363 10.062 85.4088 10.1398 85.6987 10.2047L86.8927 10.4903C87.4724 10.62 88.0045 10.7931 88.489 11.0094C88.9736 11.2257 89.3932 11.4918 89.7479 11.8076C90.1027 12.1234 90.3774 12.4954 90.5721 12.9237C90.7711 13.352 90.8727 13.843 90.8771 14.3968C90.8727 15.2101 90.6651 15.9152 90.2541 16.5122C89.8474 17.1049 89.2591 17.5656 88.489 17.8944C87.7233 18.2189 86.7997 18.3811 85.7182 18.3811C84.6453 18.3811 83.7108 18.2167 82.9148 17.8879C82.1231 17.5592 81.5045 17.0725 81.0589 16.4279C80.6177 15.7789 80.3862 14.9765 80.3646 14.0204H83.0835C83.1138 14.466 83.2414 14.838 83.4664 15.1365C83.6957 15.4307 84.0007 15.6535 84.3814 15.8049C84.7664 15.952 85.2012 16.0255 85.6857 16.0255C86.1616 16.0255 86.5747 15.9563 86.9251 15.8179C87.2799 15.6794 87.5546 15.4869 87.7493 15.2403C87.9439 14.9938 88.0413 14.7104 88.0413 14.3903C88.0413 14.0918 87.9526 13.8408 87.7752 13.6375C87.6022 13.4342 87.3469 13.2611 87.0095 13.1184C86.6764 12.9756 86.2676 12.8458 85.783 12.729L84.336 12.3656C83.2155 12.0931 82.3308 11.667 81.6819 11.0873C81.033 10.5076 80.7107 9.7267 80.715 8.74466C80.7107 7.94 80.9248 7.23701 81.3574 6.63568C81.7944 6.03435 82.3935 5.56496 83.1549 5.22752C83.9163 4.89008 84.7815 4.72136 85.7506 4.72136C86.737 4.72136 87.5979 4.89008 88.3333 5.22752C89.0731 5.56496 89.6484 6.03435 90.0594 6.63568C90.4704 7.23701 90.6824 7.93352 90.6954 8.7252H88.0023Z" fill="#231F20"/>
<path d="M91.6706 18.1929V4.90306H94.4804V10.3864H100.184V4.90306H102.988V18.1929H100.184V12.7031H94.4804V18.1929H91.6706Z" fill="#231F20"/>
<path d="M50.6871 23.1766V36.4665H47.8773V25.8437H47.7994L44.756 27.7515V25.2597L48.046 23.1766H50.6871Z" fill="#231F20"/>
<path d="M57.9601 36.7585C56.844 36.7542 55.8836 36.4795 55.0789 35.9344C54.2786 35.3893 53.6621 34.5998 53.2295 33.5658C52.8012 32.5319 52.5892 31.2881 52.5935 29.8345C52.5935 28.3853 52.8077 27.1502 53.236 26.1292C53.6686 25.1082 54.2851 24.3317 55.0854 23.7996C55.8901 23.2632 56.8483 22.9949 57.9601 22.9949C59.0719 22.9949 60.028 23.2632 60.8283 23.7996C61.633 24.336 62.2516 25.1147 62.6842 26.1357C63.1169 27.1523 63.331 28.3853 63.3267 29.8345C63.3267 31.2924 63.1104 32.5384 62.6778 33.5723C62.2495 34.6063 61.6352 35.3958 60.8348 35.9409C60.0345 36.486 59.0762 36.7585 57.9601 36.7585ZM57.9601 34.4289C58.7215 34.4289 59.3293 34.046 59.7836 33.2803C60.2378 32.5146 60.4628 31.366 60.4584 29.8345C60.4584 28.8266 60.3546 27.9873 60.147 27.3167C59.9436 26.6462 59.6538 26.1422 59.2774 25.8048C58.9054 25.4673 58.4663 25.2986 57.9601 25.2986C57.203 25.2986 56.5974 25.6771 56.1431 26.4342C55.6889 27.1913 55.4596 28.3247 55.4553 29.8345C55.4553 30.8555 55.5569 31.7078 55.7603 32.3913C55.9679 33.0705 56.2599 33.581 56.6363 33.9227C57.0127 34.2602 57.454 34.4289 57.9601 34.4289Z" fill="#231F20"/>
<path d="M69.4446 36.7585C68.3285 36.7542 67.3681 36.4795 66.5634 35.9344C65.7631 35.3893 65.1466 34.5998 64.714 33.5658C64.2857 32.5319 64.0737 31.2881 64.0781 29.8345C64.0781 28.3853 64.2922 27.1502 64.7205 26.1292C65.1531 25.1082 65.7696 24.3317 66.5699 23.7996C67.3746 23.2632 68.3328 22.9949 69.4446 22.9949C70.5564 22.9949 71.5125 23.2632 72.3128 23.7996C73.1175 24.336 73.7361 25.1147 74.1688 26.1357C74.6014 27.1523 74.8155 28.3853 74.8112 29.8345C74.8112 31.2924 74.5949 32.5384 74.1623 33.5723C73.734 34.6063 73.1197 35.3958 72.3193 35.9409C71.519 36.486 70.5608 36.7585 69.4446 36.7585ZM69.4446 34.4289C70.206 34.4289 70.8138 34.046 71.2681 33.2803C71.7223 32.5146 71.9473 31.366 71.943 29.8345C71.943 28.8266 71.8391 27.9873 71.6315 27.3167C71.4281 26.6462 71.1383 26.1422 70.7619 25.8048C70.3899 25.4673 69.9508 25.2986 69.4446 25.2986C68.6876 25.2986 68.0819 25.6771 67.6276 26.4342C67.1734 27.1913 66.9441 28.3247 66.9398 29.8345C66.9398 30.8555 67.0415 31.7078 67.2448 32.3913C67.4524 33.0705 67.7445 33.581 68.1208 33.9227C68.4972 34.2602 68.9385 34.4289 69.4446 34.4289Z" fill="#231F20"/>
<path d="M80.9291 36.7585C79.813 36.7542 78.8526 36.4795 78.0479 35.9344C77.2476 35.3893 76.6311 34.5998 76.1985 33.5658C75.7702 32.5319 75.5582 31.2881 75.5626 29.8345C75.5626 28.3853 75.7767 27.1502 76.205 26.1292C76.6376 25.1082 77.2541 24.3317 78.0544 23.7996C78.8591 23.2632 79.8173 22.9949 80.9291 22.9949C82.0409 22.9949 82.997 23.2632 83.7974 23.7996C84.602 24.336 85.2206 25.1147 85.6533 26.1357C86.0859 27.1523 86.3 28.3853 86.2957 29.8345C86.2957 31.2924 86.0794 32.5384 85.6468 33.5723C85.2185 34.6063 84.6042 35.3958 83.8038 35.9409C83.0035 36.486 82.0453 36.7585 80.9291 36.7585ZM80.9291 34.4289C81.6905 34.4289 82.2984 34.046 82.7526 33.2803C83.2068 32.5146 83.4318 31.366 83.4275 29.8345C83.4275 28.8266 83.3236 27.9873 83.116 27.3167C82.9127 26.6462 82.6228 26.1422 82.2464 25.8048C81.8744 25.4673 81.4353 25.2986 80.9291 25.2986C80.1721 25.2986 79.5664 25.6771 79.1122 26.4342C78.6579 27.1913 78.4286 28.3247 78.4243 29.8345C78.4243 30.8555 78.526 31.7078 78.7293 32.3913C78.9369 33.0705 79.229 33.581 79.6053 33.9227C79.9817 34.2602 80.423 34.4289 80.9291 34.4289Z" fill="#231F20"/>
</svg>
