<svg width="103" height="41" viewBox="0 0 103 41" fill="none" xmlns="http://www.w3.org/2000/svg">
<path d="M40.2152 0.454163V40.4542H4.76995e-07L0 0.454163L40.2152 0.454163ZM33.9551 8.68652L5.10207 8.68652L19.8496 33.767L33.9551 8.68652Z" fill="#231F20"/>
<path d="M56.7091 9.55581H53.8668C53.8149 9.18809 53.7089 8.86147 53.5488 8.57595C53.3888 8.28609 53.1833 8.03951 52.9324 7.83618C52.6814 7.63285 52.3916 7.47711 52.0628 7.36896C51.7383 7.2608 51.3858 7.20673 51.0051 7.20673C50.3172 7.20673 49.718 7.37761 49.2076 7.71937C48.6971 8.05681 48.3012 8.54999 48.02 9.19891C47.7388 9.8435 47.5982 10.6265 47.5982 11.548C47.5982 12.4954 47.7388 13.2914 48.02 13.936C48.3056 14.5806 48.7036 15.0673 49.214 15.3961C49.7245 15.7249 50.315 15.8893 50.9856 15.8893C51.362 15.8893 51.7102 15.8395 52.0304 15.74C52.3548 15.6405 52.6425 15.4956 52.8934 15.3052C53.1443 15.1106 53.352 14.8748 53.5164 14.5979C53.6851 14.321 53.8019 14.0052 53.8668 13.6505L56.7091 13.6635C56.6355 14.2735 56.4517 14.8618 56.1575 15.4285C55.8676 15.9909 55.4761 16.4949 54.9829 16.9405C54.4941 17.3818 53.9101 17.7322 53.2309 17.9918C52.556 18.247 51.7924 18.3746 50.9402 18.3746C49.7548 18.3746 48.6949 18.1064 47.7605 17.57C46.8303 17.0335 46.0949 16.257 45.5541 15.2403C45.0177 14.2237 44.7495 12.9929 44.7495 11.548C44.7495 10.0987 45.022 8.8658 45.5671 7.84916C46.1122 6.83252 46.852 6.05814 47.7864 5.52603C48.7209 4.98958 49.7721 4.72136 50.9402 4.72136C51.7102 4.72136 52.424 4.82952 53.0816 5.04582C53.7435 5.26213 54.3297 5.57794 54.8402 5.99325C55.3507 6.40423 55.766 6.90822 56.0861 7.50523C56.4106 8.10223 56.6182 8.78576 56.7091 9.55581Z" fill="#231F20"/>
<path d="M57.6275 18.1929V4.90306H62.8708C63.8745 4.90306 64.731 5.0826 65.4405 5.44167C66.1543 5.79641 66.6973 6.3004 67.0693 6.95365C67.4457 7.60257 67.6339 8.36613 67.6339 9.24433C67.6339 10.1269 67.4435 10.8861 67.0628 11.522C66.6821 12.1537 66.1305 12.6382 65.4081 12.9756C64.6899 13.3131 63.8204 13.4818 62.7994 13.4818H59.2888V11.2235H62.3452C62.8816 11.2235 63.3272 11.15 63.682 11.0029C64.0367 10.8558 64.3006 10.6352 64.4736 10.341C64.651 10.0468 64.7397 9.68127 64.7397 9.24433C64.7397 8.80307 64.651 8.43102 64.4736 8.12819C64.3006 7.82536 64.0345 7.59608 63.6755 7.44034C63.3207 7.28027 62.873 7.20024 62.3322 7.20024H60.4374V18.1929H57.6275ZM64.8046 12.145L68.1076 18.1929H65.0058L61.7741 12.145H64.8046Z" fill="#231F20"/>
<path d="M70.8138 18.1929H67.8029L72.3907 4.90306H76.0117L80.5931 18.1929H77.5821L74.2531 7.94H74.1493L70.8138 18.1929ZM70.6256 12.9691H77.7378V15.1625H70.6256V12.9691Z" fill="#231F20"/>
<path d="M88.0023 8.7252C87.9504 8.20174 87.7276 7.79508 87.334 7.50523C86.9403 7.21538 86.406 7.07045 85.7311 7.07045C85.2726 7.07045 84.8854 7.13534 84.5696 7.26513C84.2538 7.39059 84.0115 7.56579 83.8428 7.79075C83.6784 8.01571 83.5962 8.27095 83.5962 8.55648C83.5875 8.79442 83.6373 9.00207 83.7454 9.17944C83.8579 9.35681 84.0115 9.51039 84.2062 9.64017C84.4008 9.76563 84.6258 9.87595 84.881 9.97112C85.1363 10.062 85.4088 10.1398 85.6987 10.2047L86.8927 10.4903C87.4724 10.62 88.0045 10.7931 88.489 11.0094C88.9736 11.2257 89.3932 11.4918 89.7479 11.8076C90.1027 12.1234 90.3774 12.4954 90.5721 12.9237C90.7711 13.352 90.8727 13.843 90.8771 14.3968C90.8727 15.2101 90.6651 15.9152 90.2541 16.5122C89.8474 17.1049 89.2591 17.5656 88.489 17.8944C87.7233 18.2189 86.7997 18.3811 85.7182 18.3811C84.6453 18.3811 83.7108 18.2167 82.9148 17.8879C82.1231 17.5592 81.5045 17.0725 81.0589 16.4279C80.6177 15.7789 80.3862 14.9765 80.3646 14.0204H83.0835C83.1138 14.466 83.2414 14.838 83.4664 15.1365C83.6957 15.4307 84.0007 15.6535 84.3814 15.8049C84.7664 15.952 85.2012 16.0255 85.6857 16.0255C86.1616 16.0255 86.5747 15.9563 86.9251 15.8179C87.2799 15.6794 87.5546 15.4869 87.7493 15.2403C87.9439 14.9938 88.0413 14.7104 88.0413 14.3903C88.0413 14.0918 87.9526 13.8408 87.7752 13.6375C87.6022 13.4342 87.3469 13.2611 87.0095 13.1184C86.6764 12.9756 86.2676 12.8458 85.783 12.729L84.336 12.3656C83.2155 12.0931 82.3308 11.667 81.6819 11.0873C81.033 10.5076 80.7107 9.7267 80.715 8.74466C80.7107 7.94 80.9248 7.23701 81.3574 6.63568C81.7944 6.03435 82.3935 5.56496 83.1549 5.22752C83.9163 4.89008 84.7815 4.72136 85.7506 4.72136C86.737 4.72136 87.5979 4.89008 88.3333 5.22752C89.0731 5.56496 89.6484 6.03435 90.0594 6.63568C90.4704 7.23701 90.6824 7.93352 90.6954 8.7252H88.0023Z" fill="#231F20"/>
<path d="M91.6706 18.1929V4.90306H94.4804V10.3864H100.184V4.90306H102.988V18.1929H100.184V12.7031H94.4804V18.1929H91.6706Z" fill="#231F20"/>
<path d="M49.7591 36.6482C48.842 36.6482 48.0244 36.4795 47.3062 36.142C46.5924 35.8046 46.0257 35.3395 45.6061 34.7469C45.1864 34.1542 44.9679 33.475 44.9506 32.7093H47.6761C47.7064 33.2241 47.9227 33.6415 48.325 33.9617C48.7274 34.2818 49.2054 34.4419 49.7591 34.4419C50.2004 34.4419 50.5898 34.3445 50.9272 34.1499C51.269 33.9509 51.535 33.6761 51.7254 33.3257C51.92 32.971 52.0174 32.5643 52.0174 32.1058C52.0174 31.6385 51.9179 31.2276 51.7189 30.8728C51.5242 30.5181 51.2538 30.2412 50.9077 30.0422C50.5616 29.8432 50.1658 29.7415 49.7202 29.7372C49.3308 29.7372 48.9523 29.8172 48.5846 29.9773C48.2212 30.1374 47.9378 30.3558 47.7345 30.6327L45.2362 30.185L45.8656 23.1766H53.9901V25.4738H48.1823L47.8383 28.8028H47.9162C48.1498 28.474 48.5024 28.2014 48.9739 27.9851C49.4455 27.7688 49.9733 27.6607 50.5573 27.6607C51.3576 27.6607 52.0714 27.8489 52.6987 28.2252C53.326 28.6016 53.8214 29.1186 54.1848 29.7761C54.5482 30.4294 54.7277 31.1821 54.7234 32.0344C54.7277 32.9299 54.52 33.7259 54.1004 34.4224C53.6851 35.1146 53.1032 35.6597 52.3548 36.0577C51.6107 36.4514 50.7455 36.6482 49.7591 36.6482Z" fill="#231F20"/>
<path d="M60.7975 36.7585C59.6814 36.7542 58.721 36.4795 57.9163 35.9344C57.116 35.3893 56.4995 34.5998 56.0669 33.5658C55.6386 32.5319 55.4266 31.2881 55.4309 29.8345C55.4309 28.3853 55.6451 27.1502 56.0734 26.1292C56.506 25.1082 57.1225 24.3317 57.9228 23.7996C58.7275 23.2632 59.6857 22.9949 60.7975 22.9949C61.9093 22.9949 62.8654 23.2632 63.6657 23.7996C64.4704 24.336 65.089 25.1147 65.5216 26.1357C65.9543 27.1523 66.1684 28.3853 66.1641 29.8345C66.1641 31.2924 65.9478 32.5384 65.5152 33.5723C65.0869 34.6063 64.4726 35.3958 63.6722 35.9409C62.8719 36.486 61.9137 36.7585 60.7975 36.7585ZM60.7975 34.4289C61.5589 34.4289 62.1667 34.046 62.621 33.2803C63.0752 32.5146 63.3002 31.366 63.2958 29.8345C63.2958 28.8266 63.192 27.9873 62.9844 27.3167C62.781 26.6462 62.4912 26.1422 62.1148 25.8048C61.7428 25.4673 61.3037 25.2986 60.7975 25.2986C60.0404 25.2986 59.4348 25.6771 58.9805 26.4342C58.5263 27.1913 58.297 28.3247 58.2927 29.8345C58.2927 30.8555 58.3943 31.7078 58.5977 32.3913C58.8053 33.0705 59.0973 33.581 59.4737 33.9227C59.8501 34.2602 60.2914 34.4289 60.7975 34.4289Z" fill="#231F20"/>
<path d="M72.282 36.7585C71.1659 36.7542 70.2055 36.4795 69.4008 35.9344C68.6005 35.3893 67.984 34.5998 67.5514 33.5658C67.1231 32.5319 66.9111 31.2881 66.9155 29.8345C66.9155 28.3853 67.1296 27.1502 67.5579 26.1292C67.9905 25.1082 68.607 24.3317 69.4073 23.7996C70.212 23.2632 71.1702 22.9949 72.282 22.9949C73.3938 22.9949 74.3499 23.2632 75.1502 23.7996C75.9549 24.336 76.5735 25.1147 77.0062 26.1357C77.4388 27.1523 77.6529 28.3853 77.6486 29.8345C77.6486 31.2924 77.4323 32.5384 76.9997 33.5723C76.5714 34.6063 75.9571 35.3958 75.1567 35.9409C74.3564 36.486 73.3982 36.7585 72.282 36.7585ZM72.282 34.4289C73.0434 34.4289 73.6512 34.046 74.1055 33.2803C74.5597 32.5146 74.7847 31.366 74.7804 29.8345C74.7804 28.8266 74.6765 27.9873 74.4689 27.3167C74.2655 26.6462 73.9757 26.1422 73.5993 25.8048C73.2273 25.4673 72.7882 25.2986 72.282 25.2986C71.5249 25.2986 70.9193 25.6771 70.465 26.4342C70.0108 27.1913 69.7815 28.3247 69.7772 29.8345C69.7772 30.8555 69.8789 31.7078 70.0822 32.3913C70.2898 33.0705 70.5818 33.581 70.9582 33.9227C71.3346 34.2602 71.7759 34.4289 72.282 34.4289Z" fill="#231F20"/>
</svg>
