<svg width="58" height="40" viewBox="0 0 58 40" fill="none" xmlns="http://www.w3.org/2000/svg">
    <path fill-rule="evenodd" clip-rule="evenodd" d="M24.2188 4.39457C26.0576 2.48043 28.6168 1.29509 31.444 1.29509C35.2136 1.29509 38.4806 3.38933 40.2398 6.50975C41.8013 5.81169 43.4927 5.45129 45.2031 5.45216C51.9885 5.45216 57.4963 11.0019 57.4963 17.8501C57.4963 24.6982 51.9885 30.248 45.2031 30.248C44.3738 30.248 43.5654 30.1646 42.7738 30.0071C41.2346 32.7506 38.2921 34.6145 34.9414 34.6145C33.5771 34.6172 32.2304 34.3077 31.0042 33.7098C29.444 37.3747 25.8105 39.9506 21.5801 39.9506C17.1613 39.9506 13.4126 37.1653 11.9675 33.249C11.3244 33.3848 10.6688 33.453 10.0115 33.4526C4.75497 33.4526 0.503662 29.1384 0.503662 23.84C0.503662 20.2798 2.4178 17.1803 5.25759 15.5049C4.65513 14.1171 4.34502 12.62 4.34659 11.107C4.34659 4.99185 9.30995 0.0494385 15.4251 0.0494385C19.0063 0.0494385 22.2105 1.75624 24.2209 4.40546" fill="#00A1E0"/>
    <path fill-rule="evenodd" clip-rule="evenodd" d="M8.80519 20.7296C8.76938 20.823 8.81796 20.8425 8.82948 20.8591C8.9365 20.9365 9.04519 20.9927 9.15409 21.0557C9.73629 21.3636 10.285 21.4536 10.8588 21.4536C12.0274 21.4536 12.7541 20.8316 12.7541 19.8306V19.8109C12.7541 18.8852 11.9331 18.5481 11.1667 18.3072L11.0663 18.2748C10.4862 18.0867 9.98571 17.9229 9.98571 17.5418V17.5223C9.98571 17.1956 10.2789 16.9548 10.7313 16.9548C11.2339 16.9548 11.8328 17.1221 12.2161 17.3338C12.2161 17.3338 12.3296 17.4071 12.3708 17.2976C12.3933 17.2383 12.5886 16.7154 12.6096 16.6568C12.6318 16.5954 12.5928 16.5491 12.5528 16.5252C12.113 16.2572 11.5057 16.075 10.8774 16.075L10.7608 16.0754C9.69063 16.0754 8.94299 16.7225 8.94299 17.6482V17.6681C8.94299 18.644 9.76812 18.9623 10.5388 19.1822L10.6628 19.2207C11.224 19.3933 11.7099 19.5433 11.7099 19.937V19.9567C11.7099 20.319 11.3937 20.5891 10.8869 20.5891C10.6898 20.5891 10.0617 20.5858 9.3811 20.1556C9.2988 20.1076 9.25189 20.0731 9.18843 20.0344C9.15493 20.014 9.07116 19.9774 9.03472 20.0871L8.80435 20.728M25.9143 20.728C25.8785 20.8214 25.9271 20.8408 25.939 20.8574C26.0456 20.9349 26.1547 20.991 26.2636 21.054C26.8458 21.3619 27.3945 21.4519 27.9683 21.4519C29.1369 21.4519 29.8636 20.83 29.8636 19.8289V19.8092C29.8636 18.8836 29.0448 18.5464 28.2762 18.3056L28.1759 18.2731C27.5958 18.085 27.0952 17.9213 27.0952 17.5401V17.5206C27.0952 17.1939 27.3884 16.9531 27.8408 16.9531C28.3434 16.9531 28.9403 17.1204 29.3256 17.3322C29.3256 17.3322 29.4391 17.4054 29.4806 17.2959C29.5028 17.2367 29.6984 16.7137 29.7172 16.6551C29.7396 16.5937 29.7005 16.5474 29.6607 16.5236C29.2209 16.2555 28.6136 16.0733 27.9853 16.0733L27.8684 16.0737C26.7983 16.0737 26.0506 16.7208 26.0506 17.6465V17.6664C26.0506 18.6423 26.8758 18.9606 27.6464 19.1805L27.7702 19.2191C28.3336 19.3916 28.8173 19.5416 28.8173 19.9353V19.955C28.8173 20.3173 28.5011 20.5874 27.9943 20.5874C27.7968 20.5874 27.1671 20.5841 26.4885 20.1539C26.4062 20.106 26.3581 20.0729 26.2957 20.0327C26.2745 20.0193 26.1759 19.9807 26.1422 20.0854L25.9118 20.7263M37.5977 18.7661C37.5977 19.3315 37.4921 19.7776 37.2856 20.0938C37.0795 20.4059 36.7683 20.5587 36.3348 20.5587C35.9013 20.5587 35.5914 20.4071 35.3882 20.0959C35.1836 19.7818 35.0804 19.3336 35.0804 18.7682C35.0804 18.2027 35.1842 17.7587 35.3882 17.4467C35.5909 17.1368 35.8992 16.9881 36.3348 16.9881C36.7704 16.9881 37.0804 17.1382 37.2856 17.4467C37.4934 17.7587 37.5977 18.2027 37.5977 18.7682M38.5736 17.719C38.4774 17.3944 38.3285 17.1095 38.1296 16.8708C37.9304 16.632 37.6793 16.4394 37.3798 16.3012C37.0825 16.1619 36.7306 16.0917 36.3327 16.0917C35.9348 16.0917 35.5851 16.1623 35.2856 16.3012C34.9882 16.4402 34.7348 16.632 34.5359 16.8708C34.3373 17.1095 34.1882 17.3944 34.0919 17.719C33.9966 18.0415 33.9482 18.3933 33.9482 18.7682C33.9482 19.143 33.9966 19.4949 34.0919 19.8174C34.1876 20.142 34.3369 20.4268 34.5359 20.6656C34.735 20.9043 34.9882 21.0949 35.2856 21.231C35.5851 21.3667 35.9369 21.4358 36.3327 21.4358C36.7285 21.4358 37.0804 21.3667 37.3778 21.231C37.6751 21.0953 37.9285 20.9043 38.1275 20.6656C38.3262 20.4268 38.4751 20.142 38.5715 19.8174C38.6665 19.4949 38.7149 19.143 38.7149 18.7682C38.7149 18.3954 38.6665 18.0415 38.5715 17.719M46.5924 20.3996C46.5604 20.3047 46.4678 20.3405 46.4678 20.3405C46.326 20.3948 46.1746 20.445 46.0134 20.4702C45.8508 20.4957 45.6699 20.5085 45.4793 20.5085C45.0081 20.5085 44.6312 20.368 44.3631 20.0896C44.0929 19.8111 43.9422 19.3629 43.9442 18.7556C43.9457 18.2027 44.0793 17.7881 44.3191 17.4697C44.5558 17.1556 44.9202 16.9923 45.4018 16.9923C45.8039 16.9923 46.1118 17.039 46.4343 17.1399C46.4343 17.1399 46.5107 17.1732 46.5474 17.0725C46.633 16.8358 46.6963 16.6662 46.7882 16.4065C46.8142 16.3322 46.7505 16.3007 46.7273 16.2917C46.6008 16.2423 46.3022 16.1613 46.076 16.1271C45.8645 16.0949 45.6194 16.0781 45.343 16.0781C44.9325 16.0781 44.5681 16.1483 44.2561 16.2873C43.944 16.4262 43.6802 16.6182 43.4707 16.857C43.2613 17.0957 43.1022 17.3805 42.9953 17.7051C42.8896 18.0276 42.8362 18.3816 42.8362 18.7564C42.8362 19.5648 43.054 20.2203 43.4854 20.6999C43.9168 21.1816 44.566 21.4245 45.4121 21.4245C45.9126 21.4245 46.4257 21.3234 46.7943 21.1774C46.7943 21.1774 46.8647 21.1435 46.8341 21.0614L46.5933 20.3996M48.3001 18.2216C48.3468 17.9074 48.4328 17.6457 48.5681 17.4425C48.7706 17.1326 49.0791 16.9629 49.5126 16.9629C49.9461 16.9629 50.233 17.1334 50.4383 17.4425C50.5744 17.6467 50.6339 17.9179 50.6561 18.2216L48.2896 18.2212L48.3001 18.2216ZM51.588 17.5305C51.5049 17.2184 51.299 16.9022 51.165 16.7577C50.9514 16.5294 50.744 16.3682 50.5367 16.2802C50.2374 16.1529 49.9154 16.0876 49.5901 16.0882C49.1775 16.0882 48.8027 16.1579 48.499 16.2997C48.1953 16.4425 47.9398 16.6369 47.7388 16.8798C47.538 17.1227 47.387 17.4096 47.2906 17.7384C47.1943 18.063 47.1457 18.4191 47.1457 18.7918C47.1457 19.173 47.1962 19.5269 47.2954 19.8473C47.3958 20.1698 47.5572 20.4526 47.775 20.6871C47.9928 20.9238 48.2714 21.1081 48.6064 21.2379C48.9394 21.3667 49.3436 21.4335 49.8064 21.432C50.7614 21.4289 51.264 21.2163 51.4693 21.1012C51.5059 21.0806 51.5405 21.0452 51.4973 20.9433L51.2816 20.338C51.2485 20.2478 51.1572 20.2804 51.1572 20.2804C50.9206 20.3688 50.5855 20.5275 49.8002 20.5254C49.2871 20.5246 48.908 20.3732 48.6693 20.1359C48.4263 19.893 48.3049 19.5391 48.286 19.0364L51.5949 19.039C51.5949 19.039 51.682 19.0381 51.6911 18.9531C51.6946 18.9179 51.8044 18.2746 51.5924 17.5311L51.588 17.5305ZM21.8498 18.2216C21.8965 17.9074 21.9828 17.6457 22.1179 17.4425C22.3206 17.1326 22.6289 16.9629 23.0624 16.9629C23.4959 16.9629 23.7828 17.1334 23.988 17.4425C24.1239 17.6467 24.1834 17.9179 24.2058 18.2216L21.8393 18.2212L21.8498 18.2216ZM25.1378 17.5305C25.0548 17.2184 24.8487 16.9022 24.7147 16.7577C24.5011 16.5294 24.2938 16.3682 24.0864 16.2802C23.7871 16.1529 23.4651 16.0876 23.1398 16.0882C22.7273 16.0882 22.3524 16.1579 22.0487 16.2997C21.7451 16.4425 21.4896 16.6369 21.2885 16.8798C21.0881 17.1227 20.9367 17.4096 20.8404 17.7384C20.7442 18.063 20.6959 18.4191 20.6959 18.7918C20.6959 19.173 20.7459 19.5269 20.8458 19.8473C20.9459 20.1698 21.1076 20.4526 21.3233 20.6871C21.5411 20.9238 21.8196 21.1081 22.1547 21.2379C22.4877 21.3667 22.8898 21.4335 23.3547 21.432C24.3097 21.4289 24.8123 21.2163 25.0175 21.1012C25.054 21.0806 25.0887 21.0452 25.0454 20.9433L24.8297 20.338C24.7964 20.2478 24.7051 20.2804 24.7051 20.2804C24.4684 20.3688 24.1334 20.5275 23.348 20.5254C22.837 20.5246 22.4559 20.3732 22.2171 20.1359C21.9742 19.893 21.8527 19.5391 21.8339 19.0364L25.1428 19.039C25.1428 19.039 25.2299 19.0381 25.2389 18.9531C25.2425 18.9179 25.3522 18.2746 25.1401 17.5311L25.1378 17.5305ZM14.7084 20.3786C14.5788 20.2752 14.5608 20.2498 14.5179 20.1826C14.4523 20.0815 14.4188 19.9376 14.4188 19.7533C14.4188 19.4643 14.5151 19.2549 14.7141 19.1146C14.712 19.115 14.9989 18.8674 15.6733 18.8758C15.9734 18.8812 16.2729 18.9067 16.5696 18.9523V20.4538H16.57C16.57 20.4538 16.1512 20.5441 15.6779 20.5726C15.0056 20.613 14.7082 20.3791 14.7103 20.3797L14.7084 20.3786ZM16.0236 18.054C15.8896 18.0442 15.7158 18.0394 15.5084 18.0394C15.2257 18.0394 14.9514 18.0746 14.6959 18.1437C14.4383 18.2132 14.2058 18.3208 14.0069 18.4641C13.8074 18.6064 13.6433 18.7927 13.5273 19.0086C13.4102 19.2264 13.3505 19.4819 13.3505 19.7709C13.3505 20.0641 13.4014 20.3175 13.5019 20.5248C13.6004 20.7305 13.7487 20.9083 13.9334 21.0421C14.117 21.1757 14.3438 21.2746 14.6056 21.3332C14.8653 21.3925 15.1585 21.4224 15.481 21.4224C15.8203 21.4224 16.1574 21.3939 16.4841 21.3389C16.7624 21.2909 17.0396 21.237 17.3156 21.1772C17.4257 21.1518 17.548 21.1185 17.548 21.1185C17.6297 21.0978 17.6234 21.0105 17.6234 21.0105L17.6215 17.9948C17.6215 17.333 17.4448 16.8408 17.0959 16.5372C16.7482 16.2335 16.2393 16.0806 15.5796 16.0806C15.3325 16.0806 14.9325 16.1141 14.6938 16.1621C14.6938 16.1621 13.9734 16.302 13.676 16.5349C13.676 16.5349 13.6106 16.5751 13.6462 16.6662L13.8808 17.2945C13.9099 17.3759 13.9893 17.3481 13.9893 17.3481C13.9893 17.3481 14.0142 17.3382 14.0435 17.3208C14.6781 16.9753 15.4823 16.9858 15.4823 16.9858C15.8383 16.9858 16.1147 17.058 16.299 17.1994C16.4793 17.3378 16.5713 17.547 16.5713 17.9868V18.1265C16.2885 18.0854 16.0268 18.0618 16.0268 18.0618L16.0236 18.054ZM42.6205 16.3514C42.6252 16.3404 42.6277 16.3285 42.6278 16.3165C42.6279 16.3044 42.6255 16.2925 42.6209 16.2814C42.6163 16.2703 42.6094 16.2603 42.6008 16.2519C42.5922 16.2434 42.582 16.2368 42.5708 16.2325C42.5145 16.2111 42.2337 16.1518 42.018 16.1384C41.6033 16.1125 41.3729 16.1824 41.1656 16.2754C40.9608 16.3678 40.7342 16.5162 40.6085 16.688L40.6081 16.2859C40.6081 16.2306 40.569 16.186 40.5133 16.186H39.6672C39.6123 16.186 39.5725 16.2306 39.5725 16.2859V21.2073C39.5726 21.2339 39.5832 21.2594 39.602 21.2782C39.6208 21.297 39.6462 21.3076 39.6728 21.3076H40.5398C40.5664 21.3076 40.5919 21.297 40.6106 21.2782C40.6294 21.2594 40.64 21.2339 40.64 21.2073V18.7361C40.64 18.4052 40.6764 18.0764 40.7491 17.8691C40.8207 17.6641 40.9181 17.5005 41.0381 17.3833C41.1525 17.27 41.2926 17.1859 41.4464 17.1382C41.5908 17.0968 41.7402 17.0758 41.8904 17.0758C42.0632 17.0758 42.2527 17.1202 42.2527 17.1202C42.3164 17.1273 42.3518 17.0884 42.3734 17.031C42.4301 16.88 42.5912 16.4279 42.6226 16.3378" fill="#FFFFFE"/>
    <path fill-rule="evenodd" clip-rule="evenodd" d="M34.5227 14.08C34.4156 14.0476 34.3065 14.0217 34.1963 14.0025C34.0479 13.9777 33.8976 13.9661 33.7472 13.9677C33.1498 13.9677 32.6788 14.1365 32.3481 14.4699C32.0197 14.8008 31.7963 15.3049 31.6842 15.9682L31.6438 16.192H30.8938C30.8938 16.192 30.8023 16.1883 30.7831 16.2882L30.6599 16.9751C30.6513 17.0408 30.6796 17.0819 30.7676 17.0815H31.4976L30.7569 21.2161C30.6989 21.5491 30.6325 21.823 30.559 22.0306C30.4865 22.2354 30.4157 22.3889 30.3286 22.5003C30.2442 22.6082 30.1642 22.6875 30.0262 22.7338C29.9123 22.7721 29.7812 22.7897 29.6375 22.7897C29.5575 22.7897 29.4511 22.7763 29.3726 22.7606C29.2941 22.7451 29.2532 22.7275 29.1944 22.7028C29.1944 22.7028 29.1087 22.6701 29.075 22.756C29.0476 22.8262 28.853 23.3612 28.83 23.4274C28.8065 23.4928 28.8394 23.5443 28.8809 23.5592C28.978 23.5939 29.0503 23.6161 29.1826 23.6473C29.3665 23.6907 29.5215 23.6934 29.6666 23.6934C29.9707 23.6934 30.2478 23.6507 30.4775 23.5677C30.7087 23.4842 30.91 23.3386 31.088 23.1416C31.2804 22.929 31.4015 22.7064 31.5173 22.4027C31.6319 22.1018 31.7294 21.7282 31.8076 21.2928L32.5519 17.0815H33.64C33.64 17.0815 33.7317 17.0848 33.7508 16.9853L33.8739 16.2984C33.8825 16.2327 33.8545 16.1916 33.7661 16.192H32.71C32.7152 16.1682 32.7632 15.7966 32.8844 15.4469C32.9361 15.2976 33.0335 15.1772 33.116 15.0944C33.1931 15.0157 33.288 14.9566 33.3927 14.9223C33.5075 14.8868 33.6271 14.8696 33.7472 14.8712C33.8467 14.8712 33.9443 14.8831 34.0187 14.8986C34.1211 14.9204 34.1609 14.9319 34.1877 14.9399C34.2953 14.9728 34.3098 14.9409 34.3309 14.8888L34.5835 14.1952C34.6094 14.1206 34.5462 14.0892 34.5227 14.08ZM19.7638 21.2249C19.7638 21.2802 19.7244 21.3252 19.6691 21.3252H18.7931C18.7376 21.3252 18.6982 21.2802 18.6982 21.2249V14.174C18.6982 14.1189 18.7376 14.0743 18.7931 14.0743H19.6691C19.7244 14.0743 19.7638 14.1189 19.7638 14.174V21.2249Z" fill="#FFFFFE"/>
</svg>
