<svg width="130" height="40" viewBox="0 0 130 40" fill="none" xmlns="http://www.w3.org/2000/svg">
<g clip-path="url(#clip0_112_4917)">
<path fill-rule="evenodd" clip-rule="evenodd" d="M4.29413 1.91594C6.07564 0.596613 8.33615 0.0251845 10.5378 0.0756047C13.1009 0.100815 15.7059 1.01678 17.521 2.85712C18.6219 3.90754 19.4202 5.25207 19.916 6.68065C19.0588 6.67224 18.2017 6.68905 17.3446 6.67224C16.5882 4.73947 14.874 3.21846 12.8488 2.73107C10.5126 2.15123 7.87396 2.40334 5.85716 3.78989C4.05043 5.01678 2.9748 7.10081 2.66388 9.22686C2.31094 11.5966 2.68069 14.1512 4.05043 16.1596C5.17648 17.8487 7.07564 18.9496 9.07564 19.2269C10.9076 19.4874 12.8656 19.2941 14.4958 18.3781C15.7983 17.6554 16.7815 16.4538 17.353 15.0924C18.2017 15.0924 19.0588 15.084 19.916 15.0924C19.2185 17.1596 17.8235 19 15.9664 20.1596C13.4958 21.7227 10.3698 22.042 7.56304 21.3697C5.03363 20.7647 2.81514 19.042 1.56304 16.7647C0.151274 14.2353 -0.176457 11.1933 0.344551 8.36972C0.823543 5.83191 2.17648 3.42855 4.29413 1.91594ZM51.8992 0.168042C54.4706 -0.159689 57.1849 0.302496 59.3866 1.71426C61.3446 2.93275 62.8151 4.86552 63.563 7.04199C64.3362 9.3109 64.4034 11.8235 63.7479 14.126C63.1009 16.4454 61.6471 18.5546 59.6303 19.8907C57.2437 21.5294 54.1933 22 51.3782 21.521C49.0672 21.1344 46.8992 19.958 45.3614 18.1848C41.874 14.1848 41.8656 7.62182 45.3446 3.61342C46.9916 1.68905 49.395 0.478966 51.8992 0.168042ZM51.7815 2.58821C49.9748 2.89073 48.2689 3.8151 47.1009 5.23527C45.5462 7.10081 44.958 9.65544 45.2437 12.0504C45.4622 14.0084 46.3277 15.9243 47.7983 17.2605C49.5378 18.8907 52.042 19.521 54.3782 19.2941C56.4454 19.126 58.4874 18.1764 59.8151 16.5546C61.5126 14.5546 62.0588 11.7563 61.6219 9.20165C61.2857 7.18485 60.2269 5.25207 58.563 4.03359C56.6471 2.58821 54.1093 2.18485 51.7815 2.58821ZM114.21 2.42855C115.303 1.15123 116.966 0.512579 118.588 0.252075C121.176 -0.109269 123.983 -0.00842887 126.311 1.3109C128.05 2.27729 129.235 4.14283 129.319 6.14283C128.485 6.14283 127.653 6.14283 126.824 6.14283C126.689 4.94955 125.966 3.85712 124.933 3.26048C123.42 2.37813 121.605 2.26048 119.899 2.37813C118.597 2.48737 117.219 2.78989 116.244 3.71426C115.437 4.52098 115.059 5.87392 115.622 6.92434C116.151 7.8151 117.16 8.25207 118.084 8.60502C120.891 9.57981 123.916 9.85712 126.63 11.126C127.95 11.7395 129.227 12.7395 129.655 14.1933C130.059 15.7059 129.84 17.4033 128.992 18.7227C128.235 19.8907 126.992 20.647 125.697 21.0924C123.992 21.6554 122.168 21.7563 120.395 21.6722C118.277 21.5462 116.05 21.0588 114.42 19.6134C113.126 18.4874 112.479 16.7815 112.345 15.1008C113.185 15.0756 114.034 15.0924 114.882 15.0924C114.899 16.4201 115.689 17.6638 116.832 18.3193C118.504 19.3109 120.521 19.4454 122.42 19.3781C123.731 19.2941 125.109 19.042 126.185 18.2437C127.252 17.4706 127.74 15.9327 127.21 14.7143C126.748 13.7647 125.756 13.2689 124.832 12.8907C121.95 11.7983 118.79 11.5546 115.992 10.2101C114.731 9.59661 113.538 8.60502 113.16 7.20165C112.74 5.5714 113.101 3.71426 114.21 2.42855ZM23.437 0.344512C26.9832 0.344512 30.521 0.344512 34.0672 0.344512C35.8824 0.411739 37.7563 1.04199 39.0168 2.40334C40.1849 3.63863 40.7059 5.37813 40.6471 7.05039C40.6723 8.5546 40.1849 10.1344 39.0756 11.1933C38.1345 12.1428 36.8572 12.6302 35.5882 12.9496C37.437 15.7647 39.2605 18.605 41.1177 21.4201C40.1513 21.4285 39.1849 21.4201 38.2185 21.4285C36.521 18.7395 34.8319 16.0504 33.1345 13.3613C30.7087 13.3613 28.2829 13.3613 25.8572 13.3613C25.8572 16.0504 25.8572 18.7367 25.8572 21.4201C25.0504 21.4201 24.2437 21.4201 23.437 21.4201C23.437 14.3949 23.437 7.36972 23.437 0.344512ZM25.8572 2.61342C25.8572 5.42574 25.8572 8.24087 25.8572 11.0588C28.3277 11.0588 30.8011 11.0588 33.2773 11.0588C34.7311 11.0252 36.3025 10.6554 37.3193 9.54619C38.7143 7.92434 38.4958 5.17644 36.8572 3.79829C35.8488 2.91594 34.4706 2.63863 33.1597 2.61342C30.7311 2.60502 28.2941 2.61342 25.8572 2.61342ZM67.3446 0.344512C68.2773 0.344512 69.2101 0.344512 70.1429 0.344512C74.4874 6.21846 78.7899 12.126 83.1261 18C83.1345 12.1176 83.1261 6.22686 83.1345 0.344512C83.9412 0.344512 84.7451 0.344512 85.5462 0.344512C85.5462 7.36972 85.5462 14.3949 85.5462 21.4201C84.6135 21.4285 83.6723 21.4201 82.7311 21.4201C78.4034 15.521 74.0925 9.61342 69.7647 3.71426C69.7647 9.61902 69.7647 15.521 69.7647 21.4201C68.958 21.4201 68.1513 21.4285 67.3446 21.4201C67.3446 14.3949 67.3446 7.36972 67.3446 0.344512ZM25.8319 32.6386C27.7143 31.4622 30.5546 32.2185 31.4118 34.3193C31.0812 34.3249 30.7479 34.3277 30.4118 34.3277C29.5294 32.7479 27.1429 32.5378 25.8824 33.7479C24.5798 35.0336 24.6807 37.4958 26.1849 38.5798C27.3277 39.3781 29.0672 39.2521 30.0084 38.2017C30.4118 37.7647 30.5882 37.168 30.6219 36.5882C29.6891 36.5966 28.7563 36.5882 27.8151 36.5882C27.8151 36.3193 27.8151 36.0504 27.8151 35.7815C29.0168 35.7815 30.2269 35.7815 31.4286 35.7815C31.4286 37.154 31.4286 38.5238 31.4286 39.8907C31.1597 39.8907 30.8908 39.8907 30.6219 39.8907C30.6219 39.4538 30.6219 39.0168 30.6303 38.5798C29.4118 40.3865 26.5378 40.4201 25.1093 38.8739C23.5126 37.1344 23.7563 33.8991 25.8319 32.6386ZM63.9328 32.2101C65.2773 31.8823 66.8151 32.2101 67.7899 33.2269C69.2353 34.7143 69.2437 37.3361 67.8151 38.8319C66.2521 40.4706 63.2269 40.3613 61.8572 38.5294C60.8488 37.2185 60.7815 35.2857 61.6303 33.8739C62.1261 33.042 62.9832 32.4369 63.9328 32.2101ZM64.353 33.0336C63.8151 33.1344 63.2857 33.3697 62.8992 33.7479C61.5042 35.0336 61.6723 37.6302 63.3025 38.647C64.437 39.3361 66.0336 39.2437 67.0336 38.3361C68.2857 37.1428 68.2941 34.8655 66.9832 33.7059C66.2857 33.0756 65.2689 32.8655 64.353 33.0336ZM86.437 32.1764C86.7395 32.1764 87.0448 32.1764 87.353 32.1764C87.3614 33.6302 87.353 35.0924 87.3614 36.5462C87.3698 37.4874 87.0588 38.4538 86.3782 39.1176C85.3782 40.0756 83.7815 40.2185 82.5546 39.6638C81.4286 39.1596 80.8067 37.9159 80.7899 36.7227C80.7815 35.2101 80.7899 33.689 80.7899 32.1764C81.0925 32.1764 81.3978 32.1764 81.7059 32.1764C81.7059 33.689 81.7059 35.2017 81.7059 36.7143C81.7059 37.3109 81.8992 37.9327 82.3025 38.3865C83.2437 39.3949 85.1177 39.3361 85.958 38.2185C86.3193 37.7563 86.4538 37.1428 86.437 36.563C86.4314 35.1008 86.4314 33.6386 86.437 32.1764ZM99.7647 32.1764C100.975 32.1764 102.193 32.1596 103.403 32.1848C104.336 32.2101 105.336 32.6722 105.689 33.5882C106.017 34.4622 105.966 35.5462 105.37 36.3025C104.882 36.8907 104.092 37.1428 103.345 37.1596C102.445 37.1764 101.546 37.1596 100.647 37.168C100.647 38.0756 100.647 38.9832 100.647 39.8907C100.353 39.8907 100.059 39.8907 99.7647 39.8907C99.7647 37.3193 99.7647 34.7479 99.7647 32.1764ZM100.647 33.0588C100.647 34.1456 100.647 35.2325 100.647 36.3193C101.445 36.3193 102.252 36.3193 103.05 36.3193C103.521 36.3109 104.034 36.2521 104.42 35.9496C105.059 35.4453 105.143 34.4453 104.748 33.7731C104.462 33.2857 103.882 33.0672 103.345 33.0588C102.445 33.0504 101.546 33.0588 100.647 33.0588ZM43.6051 39.8907C43.6051 37.3193 43.6051 34.7479 43.6051 32.1764C44.8824 32.1764 46.1597 32.168 47.4454 32.1848C48.2269 32.2017 49.0504 32.5294 49.5042 33.2017C49.9748 33.9748 50.042 35.0168 49.5967 35.8067C49.2773 36.3697 48.6555 36.6386 48.0672 36.8067C48.7395 37.8319 49.4034 38.8655 50.0841 39.8907C49.7143 39.8907 49.353 39.8907 48.9832 39.8907C48.353 38.9075 47.7479 37.9159 47.1177 36.9327C46.2381 36.9327 45.3614 36.9327 44.4874 36.9327C44.4874 37.9243 44.4874 38.9075 44.4874 39.8907C44.1905 39.8907 43.8964 39.8907 43.6051 39.8907ZM44.4874 33.0588C44.4874 34.0672 44.4874 35.0784 44.4874 36.0924C45.3614 36.0924 46.2437 36.0924 47.1177 36.0924C47.6471 36.0924 48.2101 35.9664 48.5967 35.5966C49.1345 35.0504 49.0925 34.0924 48.5798 33.5546C48.2269 33.2101 47.7311 33.0504 47.2521 33.0588C46.3333 33.0588 45.4118 33.0588 44.4874 33.0588Z" fill="black"/>
<path fill-rule="evenodd" clip-rule="evenodd" d="M97.8319 0.176453C100.513 -0.168085 103.353 0.34452 105.597 1.89074C107.882 3.40334 109.412 5.90755 109.924 8.57981C110.403 11.126 110.092 13.8571 108.882 16.168C107.975 17.9664 106.496 19.4622 104.723 20.4202C102.403 21.6723 99.647 21.9664 97.0756 21.479C94.7142 21.0168 92.5126 19.7311 91.0252 17.8319C87.7983 13.7731 87.9159 7.42015 91.3613 3.5378C92.9999 1.65544 95.3697 0.478974 97.8319 0.176453ZM97.731 2.57981C95.8235 2.91595 94.0168 3.93276 92.8487 5.49578C91.3781 7.40334 90.8823 9.94956 91.2268 12.3025C91.5126 14.3865 92.5546 16.4033 94.2521 17.6807C96.2268 19.2101 98.9075 19.6302 101.319 19.1512C103.176 18.7899 104.908 17.7479 106.034 16.2185C107.555 14.1765 108.008 11.4538 107.529 8.98318C107.134 6.90755 105.95 4.94956 104.16 3.7899C102.294 2.5378 99.9159 2.21847 97.731 2.57981Z" fill="#8CC63F"/>
</g>
<defs>
<clipPath id="clip0_112_4917">
<rect width="129.832" height="40" fill="white" transform="translate(0.0839844)"/>
</clipPath>
</defs>
</svg>
