<?xml version="1.0" encoding="UTF-8"?>
<svg width="512px" height="512px" viewBox="0 0 512 512" version="1.1" xmlns="http://www.w3.org/2000/svg" xmlns:xlink="http://www.w3.org/1999/xlink">
    <!-- Generator: Sketch 48.1 (47250) - http://www.bohemiancoding.com/sketch -->
    <title>#CSCO</title>
    <desc>Created with Sketch.</desc>
    <defs></defs>
    <g id="Компании-BIG" stroke="none" stroke-width="1" fill="none" fill-rule="evenodd">
        <g id="#CSCO" fill-rule="nonzero">
            <g id="cisco-2" transform="translate(1.000000, 116.000000)">
                <polygon id="Shape" fill="#C4122E" points="166.453556 269.139191 143.602789 269.139191 143.602789 180.782892 166.453556 180.782892 166.453556 269.139191"></polygon>
                <g id="Group" transform="translate(256.000000, 137.080800) scale(-1, 1) rotate(-180.000000) translate(-256.000000, -137.080800) translate(0.000000, 1.047327)">
                    <g id="Clipped" transform="translate(-0.000000, 0.000000)">
                        <g id="Group" transform="translate(0.007556, 0.877921)">
                            <path d="M347.49979,65.3825762 C346.577776,65.8516251 339.371886,70.1299198 328.662345,70.1299198 C314.186733,70.1299198 304.143879,60.0382613 304.143879,46.4145223 C304.143879,33.2029778 313.754096,22.6778044 328.662345,22.6778044 C339.187484,22.6778044 346.513945,26.8708175 347.49979,27.3967208 L347.49979,3.53208047 C344.691195,2.75033228 337.038483,0.369553692 327.094922,0.369553692 C301.909769,0.369553692 279.802723,17.7670044 279.802723,46.4216291 C279.802723,72.9655337 299.803323,92.4381705 327.094922,92.4381705 C337.591691,92.4381705 345.379159,89.8797219 347.49979,89.2472165 L347.49979,65.3825762 Z M113.783556,65.3825762 C112.88282,65.8516251 105.684023,70.1299198 94.9744813,70.1299198 C80.4704999,70.1299198 70.4347378,60.0382613 70.4347378,46.4145223 C70.4347378,33.2029778 80.0520477,22.6778044 94.9744813,22.6778044 C105.49962,22.6778044 112.818988,26.8708175 113.783556,27.3967208 L113.783556,3.53208047 C111.003331,2.75033228 103.357712,0.369553692 93.3574115,0.369553692 C68.1935358,0.369553692 46.114859,17.7670044 46.114859,46.4216291 C46.114859,72.9655337 66.1154592,92.4381705 93.3645039,92.4381705 C103.903827,92.4381705 111.67711,89.8797219 113.783556,89.2472165 L113.783556,65.3825762 Z M417.934528,69.7959001 C404.650441,69.7959001 394.784897,59.3204743 394.784897,46.4145223 C394.784897,33.4801431 404.650441,23.0118241 417.934528,23.0118241 C431.204429,23.0118241 441.098343,33.4801431 441.098343,46.4145223 C441.098343,59.3204743 431.204429,69.7959001 417.934528,69.7959001 Z M464.822459,46.4145223 C464.822459,20.9792788 445.226127,0.369553692 417.94162,0.369553692 C390.642928,0.369553692 371.074965,20.9792788 371.074965,46.4216291 C371.074965,71.807125 390.650021,92.4381705 417.934528,92.4381705 C445.226127,92.4381705 464.822459,71.807125 464.822459,46.4145223 Z M251.865714,70.6487163 C251.532371,70.7553183 242.106556,73.3635146 234.361643,73.3635146 C225.389742,73.3635146 220.510163,70.3502306 220.510163,66.0790428 C220.510163,60.6636598 227.091921,58.7732506 230.772883,57.6077351 L236.950373,55.639151 C251.489816,51.0055162 258.107036,41.0346734 258.107036,30.2039075 C258.107036,7.86722955 238.503611,0.36244689 221.368345,0.36244689 C209.460186,0.36244689 198.303823,2.56555544 197.204499,2.79297309 L197.204499,23.2605622 C199.17619,22.763086 208.566543,19.9487925 218.346978,19.9487925 C229.489156,19.9487925 234.609877,23.2179213 234.609877,28.249537 C234.609877,32.7552493 230.17712,35.3563388 224.623762,37.104612 C223.276204,37.5594473 221.233589,38.1990595 219.843477,38.6538948 C207.375017,42.6052765 196.977542,49.9537096 196.977542,64.6647892 C196.977542,81.2947053 209.403447,92.4594909 230.042364,92.4594909 C240.943401,92.4594909 251.199028,89.8086538 251.865714,89.6309838 L251.865714,70.6558231 L251.865714,70.6487163 Z" id="Shape" fill="#C4122E"></path>
                            <path d="M22.3694656,186.41141 C22.3694656,192.537473 17.376408,197.505128 11.2556569,197.505128 C5.13490587,197.505128 0.134755817,192.537473 0.134755817,186.418517 L0.134755817,163.072673 C0.287087528,157.029852 5.21960177,152.210601 11.2521107,152.210601 C17.2846197,152.210601 22.2171339,157.029852 22.3694656,163.072673 L22.3694656,186.41141 Z M83.4280355,217.041726 C83.4280355,223.194129 78.4506262,228.181638 72.3106806,228.181638 C66.170735,228.181638 61.1933257,223.194129 61.1933257,217.041726 L61.1933257,163.072673 C61.1933257,156.92027 66.170735,151.932761 72.3106806,151.932761 C78.4506262,151.932761 83.4280355,156.92027 83.4280355,163.072673 L83.4280355,217.048833 L83.4280355,217.041726 Z M144.493698,258.957643 C144.493698,265.083706 139.50064,270.058467 133.379889,270.058467 C127.252046,270.058467 122.258988,265.083706 122.258988,258.957643 L122.258988,140.892345 C122.41132,134.849524 127.343834,130.030272 133.376343,130.030272 C139.408852,130.030272 144.341366,134.849524 144.493698,140.892345 L144.493698,258.957643 Z M205.552268,217.041726 C205.552268,223.194129 200.574858,228.181638 194.434913,228.181638 C188.294967,228.181638 183.317558,223.194129 183.317558,217.041726 L183.317558,163.072673 C183.317558,156.92027 188.294967,151.932761 194.434913,151.932761 C200.574858,151.932761 205.552268,156.92027 205.552268,163.072673 L205.552268,217.048833 L205.552268,217.041726 Z M266.547006,186.41141 C266.550926,192.531604 261.604827,197.497283 255.497029,197.505128 C249.376772,197.509089 244.406668,192.551148 244.38322,186.418517 L244.38322,163.072673 C244.38322,156.939895 249.344753,151.968295 255.465113,151.968295 C261.585473,151.968295 266.547006,156.939895 266.547006,163.072673 L266.547006,186.41141 Z M327.633945,217.041726 C327.481861,223.065097 322.565151,227.868713 316.552053,227.868713 C310.538954,227.868713 305.622244,223.065097 305.47016,217.041726 L305.47016,163.072673 C305.47016,156.939895 310.431692,151.968295 316.552053,151.968295 C322.672413,151.968295 327.633945,156.939895 327.633945,163.072673 L327.633945,217.048833 L327.633945,217.041726 Z M388.73507,258.957643 C388.73507,265.090421 383.773537,270.06202 377.653177,270.06202 C371.532816,270.06202 366.571284,265.090421 366.571284,258.957643 L366.571284,140.892345 C366.392683,136.80906 368.464949,132.956978 371.967253,130.861917 C375.469557,128.766855 379.836797,128.766855 383.339101,130.861917 C386.841405,132.956978 388.913671,136.80906 388.73507,140.892345 L388.73507,258.957643 Z M449.822009,217.041726 C449.822009,223.174896 444.864414,228.156764 438.601814,228.156764 C432.482265,228.15284 427.523467,223.180799 427.523468,217.048833 L427.523468,163.072673 C427.523468,156.911076 432.488156,151.943422 438.601814,151.943422 C444.864414,151.943422 449.822009,156.911076 449.822009,163.072673 L449.822009,217.048833 L449.822009,217.041726 Z M510.79547,186.41141 C510.79547,192.550076 505.829175,197.526448 499.702939,197.526448 C493.576703,197.526448 488.610407,192.550076 488.610407,186.41141 L488.610407,163.072673 C488.610407,156.911076 493.582188,151.936315 499.702939,151.936315 C505.816597,151.936315 510.788378,156.911076 510.788378,163.072673 L510.788378,186.41141 L510.79547,186.41141 Z" id="Shape" fill="#15495D"></path>
                        </g>
                    </g>
                </g>
            </g>
        </g>
    </g>
</svg>