<svg width="27" height="26" viewBox="0 0 27 26" fill="none" xmlns="http://www.w3.org/2000/svg">
<g id="CSI - Shanghai Shenzhen CSI 300 Index" clip-path="url(#clip0_513_1381)">
<g id="Group 4672">
<path id="Fill-1" fill-rule="evenodd" clip-rule="evenodd" d="M0.209473 10.3236H7.68768V9.05542H0.209473V10.3236Z" fill="#595857"/>
<path id="Fill-2" fill-rule="evenodd" clip-rule="evenodd" d="M0.209473 12.606H5.48728V11.338H0.209473V12.606Z" fill="#595857"/>
<path id="Fill-3" fill-rule="evenodd" clip-rule="evenodd" d="M8.82581 10.3234H26.2093V9.05542H8.82581V10.3234Z" fill="#595857"/>
<path id="Fill-4" fill-rule="evenodd" clip-rule="evenodd" d="M8.82581 12.606H13.5074V11.338H8.82581V12.606Z" fill="#595857"/>
<path id="Fill-5" fill-rule="evenodd" clip-rule="evenodd" d="M0.209473 14.8888H5.48728V13.6207H0.209473V14.8888Z" fill="#595857"/>
<path id="Fill-6" fill-rule="evenodd" clip-rule="evenodd" d="M8.82581 8.04098H26.2093V6.77295H8.82581V8.04098Z" fill="#595857"/>
<path id="Fill-7" fill-rule="evenodd" clip-rule="evenodd" d="M7.68756 6.77295H1.39207C0.738822 6.77295 0.209351 7.30227 0.209351 7.95514V8.04098H7.68756V6.77295Z" fill="#595857"/>
<path id="Fill-9" fill-rule="evenodd" clip-rule="evenodd" d="M13.5073 19.4539H18.1889V18.1857H13.5073V19.4539Z" fill="#595857"/>
<path id="Fill-11" fill-rule="evenodd" clip-rule="evenodd" d="M8.82581 17.1713H18.189V15.9031H8.82581V17.1713Z" fill="#595857"/>
<path id="Fill-12" fill-rule="evenodd" clip-rule="evenodd" d="M8.82581 14.8885H18.189V13.6205H8.82581V14.8885Z" fill="#595857"/>
<path id="Fill-13" fill-rule="evenodd" clip-rule="evenodd" d="M0.209473 21.7363H18.189V20.4683H0.209473V21.7363Z" fill="#595857"/>
<path id="Fill-14" fill-rule="evenodd" clip-rule="evenodd" d="M0.209595 19.4539H5.48721V18.1857H0.209595V19.4539Z" fill="#595857"/>
<path id="Fill-15" fill-rule="evenodd" clip-rule="evenodd" d="M5.48709 17.1161V15.9031H0.209473V17.1713H5.48709V17.1161Z" fill="#595857"/>
<path id="Fill-16" fill-rule="evenodd" clip-rule="evenodd" d="M1.39312 24.0189H17.0054C17.659 24.0189 18.189 23.4891 18.189 22.8356V22.7507H0.209473V22.8356C0.209473 23.4891 0.739316 24.0189 1.39312 24.0189Z" fill="#595857"/>
<path id="Fill-17" fill-rule="evenodd" clip-rule="evenodd" d="M21.5276 24.0214H26.2092V10.3234H21.5296L21.5276 24.0214Z" fill="#BC1E22"/>
<path id="Fill-18" fill-rule="evenodd" clip-rule="evenodd" d="M21.5302 6.77295V6.77462L26.2094 10.3234V6.77295H21.5302Z" fill="#BC1E22"/>
<path id="Fill-19" fill-rule="evenodd" clip-rule="evenodd" d="M21.5276 2.072V5.75235H26.1373C26.2053 5.75235 26.2352 5.6667 26.1819 5.62434L21.6443 2.0157C21.5973 1.97836 21.5276 2.0118 21.5276 2.072Z" fill="#BC1E22"/>
</g>
</g>
<defs>
<clipPath id="clip0_513_1381">
<rect width="26" height="26" fill="white" transform="translate(0.209351)"/>
</clipPath>
</defs>
</svg>
