<svg width="108" height="40" viewBox="0 0 108 40" fill="none" xmlns="http://www.w3.org/2000/svg">
    <path d="M39.8448 25.7743V39.185H47.2545V37.4613C47.2545 37.4698 49.4931 40.2149 54.4045 39.9042C62.5845 39.385 65.9723 33.5117 66.1723 28.0385C66.3426 23.3356 64.3848 21.1438 62.4994 19.535C61.4652 18.654 59.8905 17.5219 56.6559 16.4579C54.179 15.645 52.1446 14.9215 51.3785 14.581C50.7231 14.2874 50.1017 13.9128 49.6719 13.2276C48.8207 11.8742 49.2803 9.85263 50.2081 8.92057C51.5445 7.58418 54.396 7.66505 55.3451 9.04825C55.9452 9.91647 56.6389 10.3463 56.6304 15.1726H64.8572L64.87 0.889503H57.7157V2.31526C57.7157 2.32803 55.6558 0 51.5488 0C48.2461 0 43.8284 1.43427 41.245 5.85625C39.2574 9.26105 38.9467 13.632 41.1684 17.3389C43.1815 20.1436 44.4242 20.7778 45.9181 21.6545C48.6334 23.1867 48.7696 22.7355 53.132 24.506C54.9067 25.2253 55.775 25.8935 56.1665 26.5234C57.1582 28.1279 56.4602 30.5112 54.6982 31.3922C52.634 32.4264 50.5443 31.7327 49.574 30.5325C49.0633 29.6685 48.4419 29.5834 48.5015 24.9699H29.8091C29.8219 24.9699 27.1874 30.5708 20.812 30.558C15.892 30.5495 10.572 26.6808 10.572 19.7734C10.572 14.8832 13.9172 9.5845 20.6375 9.5845C25.2722 9.5845 28.2429 12.2317 29.8687 14.9896H38.9851V0.889503H31.0774V4.3326C31.0774 4.37942 27.4556 0.0680959 20.348 0.0680959C8.03546 0.0723519 1.02157 10.3463 0.944966 19.8883C0.864102 29.443 8.57171 39.8361 20.4842 39.9978C35.41 40.2021 39.8448 25.8211 39.8448 25.7743Z" fill="black"/>
    <path d="M80.3787 32.0433L85.5029 26.468L90.5548 32.0433L85.7838 32.0603V39.1849H107.055V31.4815H100.944L91.1081 20.0031L100.999 8.78429H106.719L106.732 0.893677H85.3327V8.18845L90.0058 8.20548L85.5029 13.4574L81.098 8.20548L84.3155 8.18845V0.893677L65.7551 0.906445V8.78429H70.2026L79.7701 20.0031L69.6238 31.4815H66.0956V39.1849H84.8262V32.0603L80.3787 32.0433Z" fill="black"/>
</svg>
