<svg width="124" height="40" viewBox="0 0 124 40" fill="none" xmlns="http://www.w3.org/2000/svg">
<g clip-path="url(#clip0_112_4952)">
<path d="M116.897 36.1733C116.897 34.368 118.361 33.0369 120.09 33.0369C121.806 33.0369 123.268 34.3674 123.268 36.1733C123.268 37.9968 121.806 39.3273 120.09 39.3273C118.361 39.3273 116.897 37.9968 116.897 36.1733ZM120.09 38.8C121.514 38.8 122.636 37.6881 122.636 36.1733C122.636 34.6842 121.514 33.5609 120.09 33.5609C118.652 33.5609 117.526 34.6842 117.526 36.1733C117.526 37.6881 118.652 38.8 120.09 38.8ZM119.426 37.9968H118.876V34.3681H120.257C121.115 34.3681 121.541 34.6842 121.541 35.3999C121.541 36.0476 121.13 36.3287 120.6 36.3967L121.633 37.9968H121.015L120.059 36.4216H119.426V37.9968ZM120.085 35.9561C120.55 35.9561 120.963 35.9246 120.963 35.3662C120.963 34.9163 120.559 34.8335 120.173 34.8335H119.426V35.9561H120.085Z" fill="#022169"/>
<path d="M22.542 20.0797C20.1455 18.4311 18.8399 17.5082 15.6658 17.5082C11.807 17.5082 8.67592 20.9332 8.67592 25.1573C8.67592 29.3826 11.807 32.8049 15.6658 32.8049C18.702 32.8049 19.456 32.5117 22.6765 30.3391V37.9343C20.6123 38.9721 18.1586 39.5641 15.6658 39.5641C7.41819 39.5641 0.731689 33.1123 0.731689 25.1573C0.731689 17.1995 7.41819 10.7538 15.6658 10.7538C18.1384 10.7538 20.4878 11.3322 22.542 12.3553V20.0797Z" fill="#022169"/>
<path d="M32.5271 11.1654H25.0388V39.0132H32.5271V11.1654Z" fill="#022169"/>
<path d="M28.7838 9.70722C31.1252 9.70722 33.0193 7.80908 33.0193 5.46768C33.0193 3.12966 31.1252 1.2309 28.7838 1.2309C26.4438 1.2309 24.5449 3.12898 24.5449 5.46768C24.5443 7.80908 26.4438 9.70722 28.7838 9.70722Z" fill="#022169"/>
<path d="M111.268 21.9939C110.272 21.5897 107.502 20.7657 107.046 20.5787C103.427 19.0963 104.745 16.3338 107.425 16.3338C109.408 16.3338 110.944 17.1564 112.291 18.0564V11.4372C109.672 10.6401 108.322 10.3422 106.15 10.3422C100.317 10.3422 97.3196 14.6065 97.3055 18.9079C97.2978 21.932 99.6435 25.2527 102.382 26.2624C104.794 27.1495 105.156 27.2961 106.6 27.7926C109.479 28.7867 109.489 32.887 105.551 32.887C104.278 32.887 101.118 32.5123 99.2452 28.4652L88.1525 0.336243L74.0147 37.6935V17.6071H79.8604V11.1654H55.7518V27.769L42.9424 11.1789V11.1662H35.4548V39.0139H42.9417V22.1097L55.9582 39.0132H63.2427V17.6078H66.5264V39.0132H81.4841L83.2121 33.5892H91.574L89.5824 27.7489H85.0819L88.1518 18.686L92.2917 30.1898C94.9122 37.2315 99.8573 39.6637 105.399 39.6637C110.943 39.6637 116.559 36.4088 116.559 29.7432C116.56 24.9757 113.765 23.0049 111.268 21.9939Z" fill="#022169"/>
</g>
<defs>
<clipPath id="clip0_112_4952">
<rect width="123.21" height="40" fill="white" transform="translate(0.395264)"/>
</clipPath>
</defs>
</svg>
