<svg width="160" height="30" viewBox="0 0 160 30" fill="none" xmlns="http://www.w3.org/2000/svg">
<g clip-path="url(#clip0_112_5037)">
<path d="M103.304 7.64444H105.712V22.0301H103.304V7.64444ZM94.5159 7.31897C92.9536 7.31897 91.5216 7.83972 90.3499 8.81612V7.64444H87.9414V22.0301H90.3499V13.8934C90.3499 11.55 92.2376 9.72743 94.5159 9.72743C96.7942 9.72743 98.6819 11.6151 98.6819 13.8934V22.0301H101.09V13.8934C101.09 10.2482 98.1611 7.31897 94.5159 7.31897ZM83.1245 7.57934H85.533V21.4443C85.4679 25.5452 82.1481 28.8649 78.0472 28.93C74.7925 28.9951 71.7982 26.847 70.8869 23.7225H73.4907C74.3369 25.4801 76.0944 26.5867 78.0472 26.5216C80.8462 26.4565 83.0594 24.1782 83.1896 21.3792V20.2075C80.1302 23.0065 75.3784 22.8763 72.5793 19.8169C69.7803 16.7575 69.9105 12.0057 72.9699 9.20668C75.834 6.53785 80.3255 6.53785 83.1896 9.20668L83.1245 7.57934ZM83.1245 14.8047C83.1245 12.0057 80.8462 9.66234 78.0472 9.66234C75.2482 9.66234 72.9048 11.9406 72.9048 14.7396C72.9048 17.5387 75.1831 19.882 78.0472 19.882C80.8462 19.882 83.1245 17.6038 83.1245 14.8047ZM46.0212 9.66234C47.974 9.66234 49.7966 10.834 50.6428 12.5915H53.1815C52.0098 8.62084 47.7787 6.34257 43.808 7.57934C39.8373 8.75103 37.559 12.9821 38.7958 16.9528C40.0326 20.9235 44.1986 23.2018 48.1693 21.965C50.5777 21.249 52.4654 19.3613 53.1815 16.9528H50.6428C49.4711 19.4915 46.4117 20.5981 43.8731 19.4264C41.3344 18.2547 40.2278 15.1953 41.3995 12.6566C42.2457 10.834 44.0033 9.66234 46.0212 9.66234ZM69.3898 14.8047C69.3898 18.9707 66.0049 22.2905 61.904 22.2905C57.738 22.2905 54.4182 18.9056 54.4182 14.8047C54.4182 10.7038 57.6729 7.31897 61.8389 7.31897C66.0049 7.31897 69.3898 10.6387 69.3898 14.8047ZM66.9813 14.8047C66.9813 12.0057 64.703 9.66234 61.904 9.66234C59.105 9.66234 56.7616 11.9406 56.7616 14.7396C56.7616 17.5387 59.0399 19.882 61.8389 19.882C64.703 19.882 66.9813 17.6038 66.9813 14.8047ZM145.419 7.31897C143.857 7.31897 142.425 7.83972 141.253 8.81612V7.64444H138.845V22.0301H141.253V13.8934C141.253 11.55 143.141 9.66234 145.419 9.66234C147.762 9.66234 149.65 11.5501 149.65 13.8283V21.965H152.059V13.8934C151.994 10.2482 149.064 7.31897 145.419 7.31897ZM134.028 7.64444H136.436V22.0301H134.028V20.3377C130.968 23.1367 126.216 23.0065 123.417 19.9471C120.618 16.8877 120.749 12.1359 123.808 9.33687C125.175 8.035 126.998 7.31897 128.885 7.31897C130.773 7.31897 132.596 8.035 134.028 9.33687V7.64444ZM134.028 14.8047C134.028 12.0057 131.749 9.72743 128.885 9.72743C126.086 9.72743 123.808 12.0057 123.808 14.8698C123.808 17.6688 126.086 19.9471 128.885 19.9471C131.749 19.882 134.028 17.6038 134.028 14.8047ZM160 9.98781V7.57934H156.42V3.67373H154.011V17.2132C154.011 19.882 156.159 22.0301 158.828 22.0301H160V19.6217H158.828C157.526 19.6217 156.42 18.5151 156.42 17.2132V9.98781H160ZM104.475 2.43695C103.564 2.43695 102.913 3.15298 102.913 3.9992C102.913 4.91051 103.629 5.56144 104.475 5.56144C105.387 5.56144 106.037 4.84541 106.037 3.9992C106.103 3.15298 105.387 2.43695 104.475 2.43695C104.54 2.43695 104.54 2.43695 104.475 2.43695ZM120.098 7.64444H108.12V10.0529H116.973L108.12 19.6217V22.0301H120.098V19.6217H111.18L120.033 10.0529L120.098 7.64444Z" fill="#000048"/>
<path d="M0 15L9.95932 29.3206L20.2441 23.1367L14.4508 15H0Z" fill="#3995CF"/>
<path d="M9.95923 29.3206H24.1496L33.9137 15L9.95923 29.3206Z" fill="#1C6889"/>
<path d="M9.95932 0.679443L0 15H14.4508L20.2441 6.86333L9.95932 0.679443Z" fill="#205B9B"/>
<path d="M9.95923 0.679443L33.9137 15L24.1496 0.679443H9.95923Z" fill="#6AA4D7"/>
</g>
<defs>
<clipPath id="clip0_112_5037">
<rect width="160" height="28.6412" fill="white" transform="translate(0 0.679443)"/>
</clipPath>
</defs>
</svg>
