<svg width="114" height="40" viewBox="0 0 114 40" fill="none" xmlns="http://www.w3.org/2000/svg">
<path d="M78.2271 13.7188C78.2271 11.8014 78.4358 10.8232 78.9706 10.2232C79.5575 9.58405 80.6271 9.271 82.2836 9.271H87.4764V10.9145H82.5184C80.6402 10.9145 80.2619 11.3971 80.2619 13.8101C80.2619 15.1536 80.4706 15.8188 80.9793 16.0927C81.3315 16.2884 81.8141 16.3797 82.5184 16.3797H87.5518V17.971H82.0749C80.6141 17.971 79.688 17.7362 79.1402 17.2275C78.4749 16.6145 78.2271 15.6623 78.2271 13.7188ZM76.9723 17.971H74.7457L73.7446 16.1014H68.136L67.1349 17.971H64.9083L70.9399 6.8697L70.9403 6.98651L70.9407 6.8697L76.9723 17.971ZM72.9919 14.6956L70.9403 10.8638L68.8886 14.6956H72.9919ZM103.522 13.3333C103.522 13.2419 103.518 13.1507 103.511 13.0597C103.509 13.0293 103.504 12.999 103.501 12.9687C103.495 12.9081 103.489 12.8475 103.48 12.7871C103.474 12.7513 103.466 12.7156 103.459 12.6798C103.449 12.6254 103.44 12.5707 103.427 12.5164C103.418 12.4775 103.406 12.4388 103.396 12.4001C103.383 12.349 103.37 12.2978 103.355 12.2471C103.342 12.2071 103.327 12.1672 103.313 12.1274C103.296 12.0778 103.28 12.0283 103.261 11.9788C103.246 11.9385 103.227 11.8984 103.21 11.8581C103.19 11.8096 103.17 11.7609 103.148 11.7125C103.129 11.6716 103.108 11.631 103.087 11.5903C103.063 11.5427 103.041 11.4951 103.015 11.4477C102.992 11.4065 102.968 11.3655 102.944 11.3245C102.917 11.2777 102.891 11.231 102.862 11.1846C102.836 11.1432 102.808 11.102 102.781 11.0604C102.751 11.0148 102.721 10.969 102.69 10.9233C102.661 10.8817 102.629 10.8404 102.599 10.799C102.566 10.7538 102.533 10.7087 102.498 10.6636C102.466 10.6223 102.431 10.5813 102.398 10.5401C102.361 10.4952 102.325 10.4503 102.287 10.4056C102.252 10.3645 102.214 10.3235 102.178 10.2826C102.138 10.2384 102.099 10.194 102.057 10.1498C102.019 10.1087 101.978 10.0677 101.938 10.0267C101.895 9.98289 101.853 9.93926 101.809 9.89579C101.767 9.85492 101.724 9.81419 101.681 9.77347C101.635 9.73013 101.589 9.68666 101.542 9.64347C101.497 9.60303 101.451 9.56245 101.405 9.52202C101.356 9.47912 101.307 9.43622 101.257 9.39361C101.209 9.35303 101.159 9.31274 101.11 9.27231C101.058 9.23013 101.007 9.18782 100.953 9.14564C100.902 9.10535 100.85 9.06535 100.797 9.02506C100.743 8.98318 100.688 8.94144 100.632 8.89984C100.578 8.85999 100.523 8.82013 100.467 8.78042C100.41 8.73897 100.352 8.69753 100.293 8.65622C100.236 8.61651 100.178 8.57695 100.119 8.53738C100.059 8.49651 99.9984 8.45564 99.9365 8.41477C99.8764 8.37535 99.8149 8.33593 99.7535 8.29651C99.6906 8.25637 99.6275 8.21608 99.5633 8.17622C99.4999 8.1368 99.4352 8.09738 99.3704 8.05811C99.3051 8.0184 99.2393 7.97883 99.1725 7.93941C99.1061 7.90028 99.0389 7.86129 98.9712 7.82245C98.9029 7.78318 98.8344 7.74419 98.7647 7.70506C98.6955 7.66622 98.6254 7.62767 98.5548 7.58897C98.4839 7.55042 98.4126 7.51158 98.3403 7.47303C98.2684 7.43492 98.1957 7.39666 98.1225 7.35839C98.0484 7.31999 97.9739 7.28158 97.8987 7.24332C97.8244 7.20564 97.7493 7.16796 97.6736 7.13042C97.597 7.09231 97.5196 7.05448 97.4415 7.01651C97.3644 6.97912 97.2865 6.94173 97.2081 6.90477C97.1287 6.86709 97.0487 6.82955 96.9678 6.79216C96.8883 6.75521 96.808 6.71839 96.7271 6.68173C96.6448 6.64463 96.5619 6.60753 96.4784 6.57042C96.396 6.5339 96.3131 6.49753 96.2293 6.46115C96.1451 6.42463 96.0602 6.38825 95.9746 6.35202C95.889 6.31564 95.8031 6.27941 95.7162 6.24347C95.6294 6.20738 95.5418 6.17144 95.4536 6.13564C95.3657 6.09984 95.2773 6.06419 95.1881 6.02868C95.0993 5.99332 95.0094 5.95796 94.9194 5.92289C94.8278 5.88724 94.7361 5.85158 94.6433 5.81608C94.5525 5.78144 94.4609 5.74695 94.3688 5.71245C94.2749 5.67738 94.1807 5.64231 94.0857 5.60724C93.9923 5.57303 93.8981 5.53912 93.8036 5.50506C93.7068 5.47028 93.6097 5.4355 93.5116 5.40086C93.4164 5.36724 93.3202 5.33405 93.2238 5.30057C93.1244 5.26637 93.0249 5.23202 92.9244 5.19782C92.8264 5.16477 92.7273 5.13173 92.628 5.09883C92.5267 5.06506 92.4255 5.03144 92.3229 4.99796C92.2216 4.96506 92.119 4.93231 92.0165 4.89955C91.9138 4.86666 91.8113 4.8339 91.7074 4.80144C91.6041 4.76883 91.4994 4.7368 91.3948 4.70463C91.2887 4.67202 91.1829 4.63941 91.0757 4.60709C90.9713 4.57564 90.8658 4.54448 90.7606 4.51332C90.6509 4.48086 90.5415 4.44825 90.4306 4.41622C90.3248 4.3855 90.2177 4.35506 90.1109 4.32463C89.9987 4.29274 89.887 4.26071 89.7738 4.22912C89.6644 4.19854 89.5536 4.1684 89.4432 4.13811C89.3303 4.10709 89.2177 4.07608 89.1038 4.04535C88.9919 4.01521 88.8784 3.9855 88.7655 3.95564C88.6502 3.92521 88.5354 3.89463 88.419 3.86448C88.3057 3.83521 88.1909 3.80622 88.0765 3.77709C87.9583 3.74695 87.8404 3.7168 87.7212 3.68709C87.6073 3.65869 87.4917 3.63071 87.3768 3.60245C87.2549 3.57274 87.1335 3.54274 87.0104 3.51318C86.8951 3.4855 86.7783 3.45825 86.6619 3.43086C86.5377 3.40158 86.4139 3.37216 86.2886 3.34303C86.171 3.31593 86.052 3.28926 85.9336 3.26245C85.8068 3.23361 85.6807 3.20463 85.5529 3.17622C85.4345 3.14984 85.3146 3.12419 85.1954 3.09811C85.0659 3.06984 84.937 3.04129 84.8064 3.01332C84.686 2.98753 84.5641 2.96231 84.4426 2.93695C84.3109 2.90912 84.1797 2.88129 84.0468 2.8539C83.9261 2.82912 83.8036 2.80477 83.682 2.78013C83.547 2.75289 83.4125 2.72535 83.2764 2.6984C83.1535 2.67405 83.029 2.65028 82.9054 2.62622C82.7684 2.59955 82.6322 2.57289 82.4941 2.54651C82.3694 2.52289 82.2432 2.4997 82.1177 2.47637C81.9789 2.45042 81.8406 2.42434 81.7006 2.39869C81.5787 2.37622 81.4552 2.35463 81.3325 2.33274C81.1868 2.30651 81.0419 2.28013 80.8951 2.25448C80.801 2.23782 80.7055 2.22187 80.611 2.20564C80.2707 2.1468 79.9277 2.08897 79.5819 2.03231C79.4755 2.01477 79.37 1.99709 79.2632 1.97984C79.1119 1.9555 78.9589 1.93173 78.8067 1.90782C78.6793 1.88767 78.5528 1.86738 78.4247 1.84753C78.2844 1.82593 78.1423 1.80477 78.001 1.78347C77.8593 1.76202 77.7183 1.74028 77.5755 1.71926C77.4357 1.69869 77.2942 1.67854 77.1533 1.65811C77.0084 1.63724 76.8639 1.61593 76.718 1.5955C76.5735 1.57506 76.4275 1.55521 76.2823 1.53521C76.1387 1.51535 75.9958 1.49535 75.8513 1.47593C75.7013 1.45564 75.5499 1.43608 75.399 1.41622C75.2577 1.39767 75.117 1.37883 74.9749 1.36071C74.8241 1.34129 74.6718 1.32245 74.52 1.30347C74.3755 1.28535 74.2315 1.26695 74.0862 1.24926C73.937 1.231 73.7867 1.21332 73.6367 1.1955C73.4874 1.17782 73.3387 1.15984 73.1887 1.14245C73.0415 1.12535 72.8932 1.10869 72.7452 1.09202C72.5904 1.07448 72.436 1.0568 72.2803 1.0397C72.1325 1.02347 71.9838 1.00782 71.8354 0.991874C71.6796 0.975207 71.5241 0.958395 71.3675 0.942163C71.2167 0.926511 71.0648 0.911149 70.9132 0.895932C70.7565 0.879989 70.6002 0.864047 70.4428 0.84854C70.2909 0.833758 70.1381 0.819265 69.9855 0.804772C69.8638 0.793178 69.7426 0.781149 69.6204 0.769845L69.6202 0.770134C69.2315 0.733903 68.8415 0.69854 68.4486 0.664917L68.3768 0.801439L60.001 16.3768L56.1957 9.26955H53.969L60.0006 20.3709L60.001 20.254L60.0015 20.3709L69.6825 2.51984C87.4468 4.19955 100.043 8.40738 100.043 13.3333C100.043 20.0568 78.7607 25.5072 52.5073 25.5072C49.0894 25.5072 45.7568 25.414 42.5435 25.2385L41.9241 26.3785C45.3387 26.5669 48.8783 26.6667 52.5073 26.6667C80.6818 26.6667 103.522 20.6972 103.522 13.3333Z" fill="#00A0B4"/>
<path d="M28.2627 9.271V14.7493C28.2627 16.4058 28.0018 17.084 27.167 17.5536C26.4235 17.984 25.6801 18.0623 22.6018 18.0623C19.5888 18.0623 18.6757 17.8797 18.0366 17.1623C17.5931 16.6536 17.4627 16.0536 17.4627 14.4493V9.271H19.4714V13.8232C19.4714 14.984 19.4714 14.984 19.5366 15.3493C19.6801 16.2754 20.1888 16.4449 22.7975 16.4449C23.9714 16.4449 25.054 16.3927 25.354 16.3145C25.8627 16.184 26.1366 15.871 26.2148 15.3232C26.2409 15.1667 26.2409 15.1667 26.254 13.9536V9.271H28.2627ZM40.9918 16.2493V17.971H38.9701V16.6667C38.9701 15.5058 38.6831 15.258 37.3527 15.258H32.5135V17.971H30.5179V9.271H37.8875C39.4135 9.271 40.1048 9.45361 40.5744 9.96231C40.9527 10.3797 41.1353 11.058 41.1353 12.0493C41.1353 12.8971 40.9788 13.471 40.6527 13.8362C40.3788 14.1623 39.9483 14.3058 38.8918 14.4362C39.7266 14.4884 39.9222 14.5275 40.1831 14.6449C40.744 14.9188 40.9918 15.4014 40.9918 16.2493ZM39.1135 12.3493C39.1135 11.1493 38.8135 10.9014 37.3266 10.9014H32.5135V13.6536H37.2875C38.7483 13.6536 39.1135 13.3927 39.1135 12.3493ZM52.6018 10.9145L51.7089 9.271H47.3327C45.6762 9.271 44.6066 9.58405 44.0196 10.2232C43.4848 10.8232 43.2762 11.8014 43.2762 13.7188C43.2762 15.6623 43.524 16.6145 44.1892 17.2275C44.737 17.7362 45.6631 17.971 47.124 17.971H52.6008V16.3797H47.5675C46.8631 16.3797 46.3805 16.2884 46.0283 16.0927C45.5759 15.849 45.3611 15.2942 45.3192 14.229H52.1718V12.858H45.3415C45.4591 11.2684 45.9698 10.9145 47.5675 10.9145H52.6018ZM20.0434 3.04767C8.71354 5.49332 1.49268 9.19274 1.49268 13.3332C1.49268 17.4736 8.71354 21.1733 20.0434 23.6188V21.3782C10.7693 19.3681 4.97094 16.5078 4.97094 13.3332C4.97094 10.1587 10.7693 7.29839 20.0434 5.28825V3.04767Z" fill="#FF6E32"/>
<path d="M45.9134 35.3598C45.6111 35.5866 45.2923 35.7001 44.9586 35.7001C44.1863 35.7001 43.465 35.3274 42.7921 34.5836C42.5066 34.2672 42.2982 33.9624 42.164 33.6672C41.8295 33.6879 41.5069 33.7898 41.1975 33.9735C40.8657 34.1708 40.6159 34.2792 40.4475 34.3008C40.3484 34.1453 40.2998 34.0146 40.2998 33.9056C40.2998 33.8339 40.3194 33.7745 40.3573 33.725C40.5407 33.4853 40.9295 33.3624 41.5247 33.3549C41.7817 33.3521 41.9685 33.3521 42.0847 33.3549C41.9697 32.8688 41.8565 32.3116 41.7444 31.6826C41.7198 31.545 41.7076 31.374 41.7076 31.1691C41.7076 31.029 41.7182 30.8832 41.7398 30.7352C41.7778 30.4497 41.9062 30.2781 42.124 30.2214C42.2786 30.4658 42.3559 30.8037 42.3559 31.2381C42.3559 31.3552 42.3469 31.5298 42.3285 31.7621C42.3105 31.9952 42.3011 32.1694 42.3011 32.2862C42.3011 32.6539 42.3384 32.9672 42.4123 33.2288C42.7956 33.2288 43.3166 33.1787 43.9756 33.0808C44.7318 32.9681 45.2495 32.9 45.5281 32.8749C45.6194 32.9481 45.6652 33.0116 45.6652 33.0649C45.6652 33.1385 45.5778 33.1898 45.4015 33.2181C45.0949 33.2678 44.8011 33.2917 44.5192 33.2917C44.3368 33.3246 44.0262 33.3771 43.5898 33.4503L42.6656 33.6037C42.9755 34.1881 43.3224 34.6055 43.7057 34.855C44.1146 35.1265 44.637 35.2619 45.2746 35.2619C45.3344 35.2337 45.457 35.1945 45.6443 35.1455C45.6827 35.1353 45.7144 35.1303 45.7391 35.1303C45.8552 35.1304 45.9134 35.2068 45.9134 35.3598ZM52.1636 34.9984C52.1526 34.9381 52.1468 34.8421 52.1468 34.7082C52.0563 34.6448 51.9713 34.5821 51.8946 34.5182C51.573 34.4998 51.3428 34.3726 51.2021 34.1324L50.8011 33.2826C50.4733 32.885 50.1542 32.6861 49.8443 32.6861C49.6897 32.6861 49.5369 32.7378 49.3853 32.8379C48.931 33.1434 48.5088 33.4806 48.1179 33.8479C47.6989 34.0966 47.3942 34.222 47.2046 34.222C47.084 34.222 47.0099 34.1707 46.9821 34.0685C46.8905 33.7352 46.8533 33.2629 46.8713 32.652C46.8818 32.2906 46.9994 31.7497 47.2244 31.0298C47.4449 30.3295 47.5553 29.7888 47.5553 29.4069C47.5553 29.3161 47.5526 29.224 47.5455 29.1324C47.381 28.9288 47.2427 28.8269 47.1304 28.8269C46.9518 28.8269 46.8414 29.0303 46.7995 29.434C46.6875 30.753 46.6155 31.6843 46.5842 32.2291C46.5239 32.7953 46.4753 33.1871 46.4385 33.4056C46.4139 33.5701 46.401 33.7424 46.401 33.9214C46.401 34.1262 46.4201 34.3155 46.4594 34.492C46.6595 34.7619 46.8666 34.8969 47.0773 34.8969C47.1726 34.8969 47.2692 34.8711 47.3679 34.8178C47.6143 34.6846 47.9484 34.4419 48.3713 34.0898C48.815 33.7201 49.1479 33.4682 49.3691 33.3343C49.5097 33.249 49.655 33.2071 49.8023 33.2071C50.0137 33.2071 50.2288 33.2991 50.4465 33.4827C50.4891 33.5846 50.5573 33.7765 50.6528 34.0584C50.9059 34.8107 51.2086 35.2653 51.5611 35.4201C51.5999 35.4374 51.6347 35.4468 51.666 35.4468C51.8256 35.4468 51.9908 35.2968 52.1636 34.9984ZM106.832 32.2917C106.86 32.1633 106.831 32.1198 106.831 32.0736C106.831 32.0168 106.785 31.9197 106.722 31.8414C106.659 31.7616 106.35 31.6111 106.133 31.6252C105.995 31.6353 105.858 31.6753 105.795 31.7016C105.422 31.8543 105.026 32.0916 104.512 32.5887C104.24 32.8498 104.109 33.0633 104.023 33.2345C103.939 33.4072 103.854 33.7682 103.854 33.9833C103.854 34.1204 103.867 34.1839 103.916 34.2974C104.042 34.5934 104.254 34.8295 104.55 35.0062C105.07 35.3168 105.774 35.4914 106.657 35.531C106.657 35.4456 106.661 35.3829 106.667 35.3403L105.278 34.7536C104.782 34.4897 104.299 33.9387 104.275 33.7013C104.252 33.4648 104.381 33.0249 104.716 32.7362C105.026 32.4687 105.623 32.2153 105.776 32.291C106.08 32.4152 106.026 32.8056 105.907 32.9423C105.678 33.1984 105.281 33.4561 105.046 33.6919C105.014 33.7374 104.997 33.7816 104.997 33.8227C104.997 33.8865 105.031 33.95 105.099 34.0134C105.454 33.9606 106.005 33.7585 106.372 33.3955C106.692 33.0782 106.805 32.4198 106.832 32.2917ZM67.1357 34.3481C67.055 34.3481 66.9928 34.3446 66.9513 34.3379C66.813 34.5048 66.591 34.5874 66.285 34.5874C65.9114 34.5874 65.5131 34.5082 65.0905 34.3488C64.6573 34.1862 64.3072 33.9814 64.0394 33.7336C63.8834 33.5887 63.8063 33.4488 63.8063 33.3133C63.8063 33.2397 63.8294 33.1672 63.876 33.0963L65.882 31.9191C65.9908 31.701 66.0457 31.5063 66.0457 31.3363C66.0457 31.0524 65.902 30.8355 65.6118 30.6823C65.1473 30.4352 64.5642 30.282 63.8636 30.2213C63.501 30.193 63.1184 30.1798 62.7172 30.1798C62.3788 30.1798 62.0668 30.19 61.782 30.2116C61.133 30.2606 60.7147 30.2926 60.524 30.3071C60.1124 30.412 59.8915 30.4743 59.8633 30.4919C59.6942 30.5832 59.6095 30.7739 59.6095 31.0629C59.6942 31.1188 59.8433 31.1478 60.0584 31.1478C60.8652 30.9708 61.7282 30.8121 62.6514 30.6704C62.947 30.625 63.2404 30.6019 63.533 30.6019C64.1447 30.6019 64.7415 30.704 65.322 30.9077C65.4105 31.0608 65.454 31.1994 65.454 31.3259C65.454 31.5033 65.3675 31.6581 65.1968 31.7911C64.9771 31.9614 64.6352 32.1777 64.1684 32.4424C63.6898 32.7061 63.3452 32.9191 63.1344 33.0823C62.972 33.2049 62.8913 33.3478 62.8913 33.5095C62.8913 33.6365 62.9421 33.7739 63.0447 33.9219C63.9455 34.6668 64.9994 35.0377 66.2072 35.0377C66.4704 35.0377 66.7433 35.0204 67.0246 34.9852C67.0489 34.9245 67.0865 34.8269 67.1357 34.6923V34.3481ZM61.6702 34.9892C61.4685 33.5919 61.3021 32.5388 61.1682 31.83C61.0624 31.7492 60.9363 31.7082 60.7872 31.7082C60.7628 31.8417 60.7511 31.9988 60.7511 32.179C60.7511 32.5388 60.8001 32.9885 60.8988 33.5281C61.0468 34.34 61.216 34.9043 61.4059 35.2211C61.4618 35.2211 61.525 35.2129 61.595 35.1945L61.6702 34.9892ZM73.052 33.28C73.052 32.7375 72.9399 32.1246 72.7147 31.4408C72.5447 30.9301 72.2589 30.472 71.8582 30.0669C71.8081 30.0775 71.7411 30.0821 71.6565 30.0821C71.5895 30.2795 71.5562 30.4788 71.5562 30.6806C71.5562 30.9578 71.6227 31.2426 71.7563 31.5308C71.9815 32.0133 72.146 32.4688 72.2475 32.8945C72.2588 33.1063 72.2636 33.3061 72.2636 33.4972C72.2636 33.8488 72.2459 34.1697 72.2111 34.4587C72.1578 34.8953 71.7305 35.1143 70.9273 35.1143C70.4817 34.9663 70.1382 34.7145 69.8981 34.3585C69.7602 34.1549 69.6013 33.784 69.4218 33.2462C69.2424 32.7097 69.0726 32.3082 68.9108 32.0408H68.7459L68.3343 33.2885C68.1401 33.874 68.0053 34.2895 67.9286 34.5362C67.7802 34.8408 67.6765 35.0536 67.6165 35.1762C67.5875 35.2326 67.5742 35.2965 67.5742 35.3674C67.5742 35.479 67.6184 35.6055 67.7062 35.7429C68.0681 35.7429 68.3265 35.3419 68.4769 34.541C68.5411 34.1708 68.5869 33.8924 68.6147 33.7049C68.6856 33.3207 68.7721 33.0674 68.874 32.9436C69.0573 33.32 69.2242 33.6865 69.3753 34.0417C69.6357 34.4639 69.953 34.8739 70.3257 35.2726C70.583 35.5436 70.885 35.6791 71.2297 35.6791C71.3921 35.6791 71.5644 35.649 71.7482 35.5903C72.2017 35.2155 72.5421 34.843 72.7669 34.469C72.9581 34.1526 73.052 33.7562 73.052 33.28ZM80.7898 34.65C80.7898 34.3355 80.4284 33.6971 79.7078 32.7317C79.0314 31.8485 78.5607 31.2372 78.2968 30.9C78.0081 30.6637 77.8081 30.5452 77.6956 30.5452C77.5817 30.5452 77.4253 30.6133 77.2253 30.7472C77.0353 30.9794 76.7307 31.2897 76.3117 31.6769C75.2665 32.6434 74.5379 33.4706 74.1256 34.1621C73.9811 34.4049 73.9086 34.6179 73.9086 34.8017C73.9086 34.929 73.9431 35.0453 74.0144 35.1507C74.3098 35.1229 74.7488 34.6924 75.3288 33.8598C75.8713 33.0606 76.244 32.5052 76.4434 32.1942L77.4518 31.1101C77.6708 31.1101 78.0068 31.3961 78.4607 31.9658C78.9047 32.5227 79.1272 32.9134 79.1272 33.1384C79.0488 33.1563 78.7857 33.2003 78.3342 33.2707C77.1824 33.4497 76.3466 33.6988 75.825 34.0159C75.6633 34.1139 75.583 34.2216 75.583 34.3375C75.583 34.4323 75.6363 34.5321 75.7413 34.6379H75.9421C77.3359 34.0188 78.5539 33.709 79.5957 33.709C79.7555 33.9236 79.9134 34.1398 80.0712 34.3582C80.2615 34.5524 80.5011 34.65 80.7898 34.65ZM101.18 33.7282C101.18 32.7613 100.64 32.2777 99.5605 32.2777C98.3499 32.6619 97.7262 33.22 97.6869 33.95C97.6481 34.6792 97.831 35.5133 98.236 36.4513C98.321 37.3646 98.3715 37.9019 98.3892 38.0648C98.4663 38.7407 98.6465 39.2208 98.9289 39.5029C99.153 39.464 99.2662 39.3317 99.2662 39.1065C99.2662 38.9268 99.2591 38.7007 99.2457 38.4297C99.1682 38.1375 98.9743 37.5748 98.663 36.7437C98.4076 36.0565 98.2385 35.4839 98.1585 35.0261C98.1173 34.7863 98.0955 34.5682 98.0955 34.3708C98.0955 34.0191 98.1566 33.6926 98.2795 33.3933C98.4695 32.9316 98.9684 32.6997 99.777 32.6997C100.061 32.7768 100.244 32.8387 100.325 32.8853C100.471 32.9624 100.601 33.1016 100.715 33.3032C100.641 33.9752 100.485 34.3108 100.245 34.3108C100.205 34.3108 100.161 34.3007 100.111 34.2791C99.8059 34.1491 99.4534 34.0288 99.0556 33.92C99.0126 33.9623 98.9741 33.9952 98.9389 34.0214C98.9946 34.3626 99.1375 34.5732 99.3678 34.6548C99.4881 34.6962 99.6075 34.7171 99.7281 34.7171C99.8413 34.7171 99.963 34.6991 100.094 34.6591C100.333 34.5894 100.556 34.4762 100.762 34.3207C101.005 34.1336 101.144 33.9358 101.18 33.7282ZM92.8046 32.7955C92.8113 32.7591 92.8046 32.6103 92.8046 32.564C92.8046 32.5084 92.6711 32.2778 92.6394 32.1998C92.471 32.0381 92.1318 31.9806 91.914 31.9806C91.847 31.9806 91.7801 31.9879 91.7134 32.0024C91.2199 32.105 90.8714 32.2985 90.3576 32.7955C90.0866 33.0563 89.9033 33.2874 89.8614 33.4566C89.742 33.7253 89.6633 34.0017 89.6633 34.2179C89.6633 34.355 89.7459 34.601 89.7953 34.7137C89.923 35.0103 90.0953 35.1656 90.3914 35.3416C90.9115 35.6521 91.4155 35.4074 92.2324 35.3662C92.1471 35.3701 92.2347 35.2185 92.2418 35.1759L91.1182 35.143C90.7211 35.0436 90.2915 34.6139 90.1924 34.0856C90.1286 33.7461 90.3769 33.2937 90.7114 33.0055C91.0211 32.7379 92.0115 32.4043 92.0115 32.7627C92.0115 32.6629 91.9121 33.1265 91.5475 33.2919C91.235 33.434 91.1007 33.5488 90.8653 33.7842C90.8336 33.83 90.8179 33.8742 90.8179 33.9158C90.8179 33.9795 90.9527 34.0888 91.0197 34.1511C91.3749 34.0978 91.8099 33.953 92.1766 33.5895C92.4968 33.2717 92.7388 33.1935 92.8046 32.7955ZM96.7462 33.3263C96.7857 33.1748 96.8042 33.0319 96.8042 32.894C96.8042 32.5745 96.7027 32.3042 96.4991 32.0821C96.2053 31.7621 95.7856 31.6024 95.236 31.6024C95.236 31.6475 95.245 31.6977 95.2623 31.7501C95.4247 31.8417 95.6476 31.9471 95.9308 32.0669C96.3155 32.3798 96.5097 32.681 96.5097 32.97C96.5097 33.0514 96.4908 33.1337 96.4563 33.2182C96.3141 33.5601 96.0717 33.8304 95.7256 34.0308C95.3975 34.222 95.0407 34.3168 94.6572 34.3168C94.607 34.3168 94.5578 34.3129 94.5084 34.3058C94.1097 34.2784 93.9107 34.0759 93.9107 33.7003C93.956 33.4856 94.202 33.3294 94.6466 33.23C95.0931 33.129 95.3347 32.9872 95.3734 32.805C95.3597 32.6719 95.2807 32.531 95.1357 32.3836C94.6149 32.3836 94.1763 32.5348 93.8207 32.8363C93.4439 33.1536 93.2547 33.5675 93.2547 34.081C93.3578 34.4566 93.5708 34.6994 93.8947 34.8082C94.0741 34.8674 94.2499 34.8968 94.4223 34.8968C94.8918 34.8968 95.3517 34.744 95.8031 34.439C96.2566 34.1327 96.5711 33.7621 96.7462 33.3263ZM88.7633 33.9101C88.9936 33.2666 88.8733 32.2829 87.1905 32.2829C85.9808 32.6671 85.4105 33.4061 85.2699 34.1303C85.2453 34.2611 85.3021 35.4821 85.3815 35.812C85.5927 36.7037 85.6001 37.6343 85.6137 37.7639C85.676 38.3055 85.8189 38.6885 86.0449 38.9145C86.2246 38.8836 86.3147 38.7778 86.3147 38.5977C86.3147 38.4535 86.3088 38.2735 86.2984 38.0556C86.2365 37.8219 86.3888 37.895 86.0786 37.0629C85.8221 36.3768 85.7885 35.7156 85.7085 35.2582C85.6666 35.0185 85.6749 34.7608 85.6749 34.5639C85.6749 34.211 85.7399 33.873 85.8633 33.5739C86.0517 33.1121 86.5521 32.8811 87.3597 32.8811C87.6447 32.9587 87.8265 33.021 87.9075 33.0672C88.0556 33.144 88.4104 33.6845 88.2984 33.4843C88.303 33.4342 88.2215 34.2003 87.8268 34.4932C87.7962 34.5159 87.6462 34.5923 87.593 34.5965C87.4011 34.6142 87.3427 34.6239 86.7995 34.2001C86.7517 34.1633 86.5568 34.1771 86.5214 34.2021C86.5786 34.5433 86.7207 34.7552 86.9507 34.8358C87.0705 34.8781 87.1908 34.8984 87.3114 34.8984C87.4239 34.8984 87.5456 34.8804 87.6772 34.8411C87.9169 34.7707 88.5489 34.3472 88.3441 34.502C88.2889 34.5437 88.6504 34.2219 88.7633 33.9101ZM103.35 28.1043C103.35 27.9669 103.306 27.8984 103.218 27.8984C103.165 27.8984 103.092 27.9269 102.996 27.9833C102.754 28.1306 102.619 28.2132 102.595 28.2316C102.387 28.5598 102.284 28.9698 102.284 29.4624C102.284 29.643 102.296 29.8278 102.32 30.0185C102.419 30.7798 102.485 31.3598 102.515 31.7582C102.509 31.9627 102.496 32.2 102.476 32.4719L102.466 32.6198C102.41 33.322 102.381 33.9013 102.381 34.3591C102.381 34.5181 102.387 34.6763 102.396 34.8353C102.41 35.16 102.46 35.373 102.548 35.4749C102.621 35.4749 102.709 35.4666 102.81 35.4482C102.862 35.3284 102.888 35.1901 102.888 35.0307C102.888 34.9704 102.883 34.9003 102.871 34.8192C102.827 34.5027 102.804 34.2643 102.804 34.1056C102.801 33.0091 102.777 31.9994 102.731 31.0759C102.725 30.9388 102.722 30.8245 102.722 30.7317C102.722 29.7808 102.931 28.9048 103.35 28.1043ZM55.9552 32.3916C55.9807 32.3634 55.9927 32.3269 55.9927 32.28C55.9927 32.2243 55.977 32.1562 55.9449 32.0791C55.776 31.9174 55.5823 31.8363 55.3637 31.8363C55.2972 31.8363 55.2298 31.843 55.164 31.8575C54.6705 31.9601 54.1669 32.2601 53.6523 32.7575C53.3817 33.0187 53.225 33.2326 53.1827 33.4037C53.0633 33.6713 53.0033 33.9133 53.0033 34.1282C53.0033 34.2661 53.0276 34.391 53.0769 34.5037C53.2042 34.801 53.4157 35.0359 53.7114 35.213C54.2323 35.524 54.9075 35.5298 55.7914 35.5674C55.7914 35.4836 55.7949 35.4201 55.8015 35.3778L54.4398 34.96C53.9433 34.6956 53.6088 34.3466 53.4368 33.9092C53.4368 33.5639 53.604 33.2462 53.9376 32.9572C54.2478 32.6901 54.5802 32.5366 54.9359 32.4982C54.9566 32.6949 54.9081 32.862 54.7879 32.9991C54.5592 33.2556 54.3269 33.5011 54.0904 33.7358C54.0598 33.782 54.0434 33.8262 54.0434 33.8685C54.0434 33.9311 54.077 33.9946 54.144 34.0585C54.4997 34.0049 54.8599 33.7965 55.2265 33.4339C55.547 33.1153 55.7902 32.7679 55.9552 32.3916ZM109.72 31.7736V30.7753H110.054L110.814 31.7736H111.264L110.433 30.6813C110.62 30.5853 110.753 30.4807 110.832 30.3695C110.912 30.2571 110.952 30.1174 110.952 29.9497C110.952 29.7061 110.836 29.5365 110.603 29.4401C110.495 29.3939 110.3 29.3708 110.021 29.3708H109.348V31.7734H109.72V31.7736ZM109.72 29.6462H109.946C110.18 29.6462 110.342 29.6717 110.429 29.7242C110.516 29.775 110.56 29.871 110.56 30.0104C110.56 30.1608 110.502 30.2794 110.386 30.3675C110.27 30.4556 110.113 30.4995 109.914 30.4995H109.72V29.6462H109.72ZM107.933 30.6136C107.933 29.3529 108.959 28.3272 110.22 28.3272C111.481 28.3272 112.507 29.3529 112.507 30.6136C112.507 31.875 111.481 32.9011 110.22 32.9011C108.959 32.9011 107.933 31.875 107.933 30.6136ZM108.29 30.6136C108.29 31.6788 109.156 32.5443 110.22 32.5443C111.284 32.5443 112.151 31.6788 112.151 30.6136C112.151 29.5495 111.284 28.6833 110.22 28.6833C109.156 28.6832 108.29 29.5495 108.29 30.6136Z" fill="#6E7378"/>
</svg>
