<svg width="160" height="40" viewBox="0 0 160 40" fill="none" xmlns="http://www.w3.org/2000/svg">
    <path d="M34.6754 10.2426H35.4623C37.1934 10.2951 38.977 10.6623 40.4983 11.6065C41.7573 12.3934 42.7016 13.5475 43.2262 14.9115C43.5934 15.8033 43.8033 16.8 43.8557 17.7443C41.9672 17.7443 40.0787 17.7443 38.1901 17.7443C38.1377 16.9574 37.8754 16.118 37.2459 15.5934C36.6164 15.0164 35.7246 14.859 34.8852 14.9115C34.1508 14.9115 33.4164 15.1738 32.8918 15.6984C32.2623 16.3279 31.9475 17.1672 31.7901 18.0065C31.5803 19.0033 31.5803 20.0525 31.6852 21.0492C31.7901 22.0459 32 23.0951 32.6295 23.882C33.1016 24.5115 33.7836 24.8787 34.5705 24.9836C35.3574 25.0885 36.1967 25.0361 36.9311 24.6688C37.5082 24.3541 37.9278 23.8295 38.1377 23.2525C38.2951 22.8852 38.3475 22.4656 38.4 22.0459C40.2885 22.0459 42.1246 22.0459 44.0131 22.0459C43.9082 23.6721 43.436 25.2984 42.4918 26.6098C41.6 27.8164 40.341 28.6557 38.9246 29.1803C37.8754 29.5475 36.7213 29.7049 35.6196 29.7574H34.7278C33.2065 29.7049 31.6852 29.3902 30.3213 28.7082C28.9573 28.0262 27.8557 26.977 27.0688 25.6656C26.1246 24.0918 25.7049 22.2033 25.6524 20.4197C25.5475 18.4262 25.8623 16.4852 26.7541 14.8065C27.436 13.4426 28.4852 12.2885 29.7967 11.5541C31.2655 10.6623 32.9442 10.2426 34.6754 10.2426Z" fill="#CC0000"/>
    <path d="M67.6722 10.2426H68.5115C70.1902 10.2951 71.9214 10.6098 73.3378 11.5541C74.0722 12.0262 74.7017 12.6557 75.1214 13.3902C75.5935 14.2295 75.8558 15.1213 75.9607 16.0656C74.0722 16.0656 72.2361 16.0656 70.3476 16.0656C70.2952 15.6459 70.0853 15.2787 69.823 15.0164C69.4558 14.6492 68.8788 14.5443 68.3542 14.4918C67.882 14.4393 67.3574 14.4918 66.8853 14.5967C66.5706 14.7016 66.2558 14.9115 66.1509 15.2787C66.046 15.5934 66.046 16.0131 66.2558 16.2754C66.4132 16.5377 66.7279 16.6951 67.0427 16.8C67.5673 17.0098 68.0919 17.1147 68.6165 17.2721C69.7181 17.5869 70.8197 17.7967 71.9214 18.1115C72.6558 18.3213 73.3378 18.5836 73.9673 18.9508C74.6492 19.3705 75.2788 19.9475 75.7509 20.6295C76.223 21.3115 76.4329 22.1508 76.4853 22.9902C76.5378 23.9869 76.3804 25.0361 75.9607 25.9803C75.646 26.7147 75.1214 27.3967 74.4919 27.9213C73.2853 28.8656 71.8165 29.3377 70.2952 29.5475C69.7181 29.6 69.1935 29.6525 68.6165 29.6525H67.7771C66.4132 29.6 65.0492 29.3902 63.7902 28.8131C62.5837 28.2885 61.482 27.3443 60.8525 26.1902C60.3804 25.3508 60.1181 24.3541 60.0132 23.4098C61.9542 23.4098 63.8427 23.4098 65.7837 23.4098C65.8886 23.8295 66.046 24.3016 66.3607 24.6164C66.623 24.8787 66.9378 25.0885 67.305 25.141C67.7771 25.2459 68.3017 25.2984 68.7738 25.2459C69.246 25.1934 69.7706 25.141 70.1902 24.8787C70.4525 24.7213 70.6624 24.4065 70.7148 24.0918C70.7673 23.777 70.7148 23.4098 70.4525 23.1475C70.2427 22.8852 69.8755 22.7803 69.5607 22.6754C68.9837 22.518 68.4591 22.3606 67.882 22.2033C66.8329 21.941 65.8361 21.6787 64.787 21.3115C64.0525 21.0492 63.3181 20.8393 62.6361 20.4197C61.9017 19.9475 61.2722 19.318 60.8525 18.5311C60.4329 17.6918 60.2755 16.6951 60.2755 15.7508C60.3279 14.859 60.5378 14.0197 60.9574 13.2328C61.3771 12.4984 62.0066 11.8688 62.7411 11.3967C64.2099 10.5574 65.9411 10.2951 67.6722 10.2426Z" fill="#CC0000"/>
    <path d="M4.66885 11.0295C5.14098 10.5574 5.82295 10.2426 6.55738 10.2426C7.2918 10.2426 8.02623 10.5049 8.55082 11.0295C9.6 12.0787 10.7016 13.1803 11.7508 14.2295C12.8 13.1803 13.9016 12.0787 14.9508 11.0295C15.423 10.5574 16.1574 10.2426 16.8393 10.2426C17.5738 10.2426 18.2557 10.5049 18.7803 11.0295C20.0918 12.341 21.4033 13.6525 22.7148 14.9639C23.2393 15.4885 23.5541 16.2754 23.5016 17.0098C23.4492 17.6918 23.1869 18.3213 22.7148 18.7934C19.0426 22.4131 15.423 26.0852 11.7508 29.7049C8.07869 26.0852 4.45902 22.4131 0.786885 18.7934C0.314754 18.3213 0.052459 17.6918 0 17.0623V16.6426C0.052459 16.0131 0.314754 15.3836 0.786885 14.9115C2.09836 13.6525 3.35738 12.341 4.66885 11.0295Z" fill="#CC0000"/>
    <path d="M42.6492 10.7147C44.6426 10.7147 46.6885 10.7147 48.682 10.7147C49.7311 14.7016 50.7279 18.636 51.777 22.6229C52.8787 18.636 53.9803 14.7016 55.082 10.7147C57.0229 10.7147 58.9639 10.7147 60.9049 10.7147C58.859 16.8524 56.7606 22.9901 54.6623 29.1278C52.6688 29.1278 50.7279 29.1278 48.7344 29.1278C46.7934 23.0426 44.7475 16.9049 42.6492 10.7147Z" fill="#CC0000"/>
    <path d="M78.1641 12.4459C78.1641 11.8688 78.1641 11.2918 78.1641 10.7147C80.105 10.7147 82.046 10.7147 84.0395 10.7147C84.0395 11.2918 84.0395 11.8688 84.0395 12.4459C83.41 12.4459 82.8329 12.4459 82.2034 12.4459C82.2034 14.4393 82.2034 16.4328 82.2034 18.4262C85.2985 18.4262 88.3936 18.4262 91.4887 18.4262C91.4887 16.4328 91.4887 14.4393 91.4887 12.4459C90.8591 12.4459 90.2296 12.4459 89.6526 12.4459C89.6526 11.8688 89.6526 11.2918 89.6526 10.7147C91.5936 10.7147 93.5346 10.7147 95.528 10.7147C95.528 11.2918 95.528 11.8688 95.528 12.4459C94.8985 12.4459 94.269 12.4459 93.6919 12.4459C93.6919 17.4295 93.6919 22.4655 93.6919 27.4492C94.3214 27.4492 94.951 27.4492 95.528 27.4492C95.528 28.0262 95.528 28.6032 95.528 29.1803C93.587 29.1803 91.646 29.1803 89.6526 29.1803C89.6526 28.6032 89.6526 28.0262 89.6526 27.4492C90.2821 27.4492 90.9116 27.4492 91.4887 27.4492C91.4887 24.9836 91.4887 22.5705 91.4887 20.1049C88.3936 20.1049 85.2985 20.1049 82.2034 20.1049C82.2034 22.5705 82.2034 24.9836 82.2034 27.4492C82.8329 27.4492 83.4624 27.4492 84.0395 27.4492C84.0395 28.0262 84.0395 28.6032 84.0395 29.1803C82.0985 29.1803 80.1575 29.1803 78.1641 29.1803C78.1641 28.6032 78.1641 28.0262 78.1641 27.4492C78.7936 27.4492 79.4231 27.4492 80.0001 27.4492C80.0001 22.4655 80.0001 17.4295 80.0001 12.4459C79.3706 12.4459 78.7411 12.4459 78.1641 12.4459Z" fill="black"/>
    <path d="M126.374 10.7147C127.633 10.7147 128.892 10.7147 130.203 10.7147C130.203 15.3836 130.203 20.1049 130.203 24.7737C130.203 25.1934 130.203 25.6131 130.203 26.0852C130.256 26.4524 130.308 26.9246 130.518 27.2393C130.728 27.5016 131.043 27.6065 131.357 27.6065C131.725 27.6065 132.039 27.6065 132.407 27.5016C132.407 28.0787 132.407 28.6032 132.407 29.1803C131.777 29.3901 131.095 29.3901 130.466 29.2852C129.941 29.1803 129.364 28.9705 128.997 28.6032C128.577 28.236 128.367 27.659 128.262 27.1344C128.105 26.4524 128.157 25.718 128.157 25.036C128.157 20.8393 128.157 16.5901 128.157 12.3934C127.58 12.3934 127.003 12.3934 126.426 12.3934C126.374 11.8688 126.374 11.2918 126.374 10.7147Z" fill="black"/>
    <path d="M140.118 10.7147C141.377 10.7147 142.636 10.7147 143.895 10.7147C143.895 13.0754 143.895 15.4885 143.895 17.8491C144.472 17.0623 145.364 16.5377 146.308 16.2754C147.253 16.0131 148.249 16.0131 149.246 16.2229C150.243 16.4328 151.135 16.9573 151.817 17.6918C152.656 18.5836 153.076 19.7377 153.233 20.9442C153.285 21.5213 153.285 22.0983 153.285 22.6229C153.285 24.2491 153.285 25.8754 153.285 27.5016C153.862 27.5016 154.439 27.5016 155.017 27.5016C155.017 28.0787 155.017 28.6032 155.017 29.1803C153.18 29.1803 151.344 29.1803 149.456 29.1803C149.456 28.6032 149.456 28.0787 149.456 27.5016C150.033 27.5016 150.61 27.5016 151.187 27.5016C151.187 25.5606 151.187 23.6196 151.187 21.6262C151.187 20.6295 150.925 19.6328 150.295 18.8459C149.718 18.2164 148.879 17.8491 148.039 17.7967C147.148 17.7442 146.203 17.8491 145.417 18.3213C144.839 18.6885 144.42 19.2655 144.157 19.8951C143.948 20.4721 143.895 21.0491 143.895 21.6787C143.895 23.6196 143.895 25.5082 143.895 27.4492C144.472 27.4492 145.049 27.4492 145.626 27.4492C145.626 28.0262 145.626 28.5508 145.626 29.1278C143.79 29.1278 141.954 29.1278 140.118 29.1278C140.118 28.5508 140.118 28.0262 140.118 27.4492C140.695 27.4492 141.272 27.4492 141.849 27.4492C141.849 22.4131 141.849 17.377 141.849 12.341C141.272 12.341 140.695 12.341 140.118 12.341C140.118 11.8688 140.118 11.2918 140.118 10.7147Z" fill="black"/>
    <path d="M134.295 13.1803C134.977 13.1803 135.659 13.1803 136.394 13.1803C136.394 14.2819 136.394 15.3311 136.394 16.4328C137.233 16.4328 138.125 16.4328 138.964 16.4328C138.964 17.0098 138.964 17.5344 138.964 18.1114C138.125 18.1114 137.233 18.1114 136.394 18.1114C136.394 20.7344 136.394 23.3049 136.394 25.9278C136.394 26.3475 136.446 26.7672 136.656 27.1344C136.866 27.3967 137.18 27.5541 137.495 27.5541C137.967 27.6065 138.492 27.5541 138.964 27.5016C138.964 28.0787 138.964 28.6032 138.964 29.1803C138.282 29.3901 137.6 29.3901 136.918 29.2852C136.236 29.1803 135.554 28.9705 135.082 28.4459C134.4 27.7639 134.295 26.7147 134.295 25.7705C134.295 23.2 134.295 20.6295 134.295 18.059C133.613 18.059 132.984 18.059 132.302 18.059C132.302 17.4819 132.302 16.9573 132.302 16.3803C132.984 16.3803 133.613 16.3803 134.295 16.3803C134.295 15.3836 134.295 14.2819 134.295 13.1803Z" fill="black"/>
    <path d="M101.036 16.3279C102.19 16.0131 103.449 16.0131 104.603 16.223C105.967 16.4853 107.226 17.2197 108.066 18.2689C108.695 19.0558 109.062 19.9476 109.272 20.8918C109.482 21.7312 109.43 22.623 109.43 23.4623C105.757 23.4623 102.085 23.4623 98.4656 23.4623C98.5181 24.5115 98.8853 25.5607 99.5672 26.3476C100.144 27.0295 100.984 27.5017 101.875 27.659C102.82 27.8689 103.816 27.8164 104.708 27.5541C105.705 27.2918 106.597 26.6099 107.069 25.718C107.751 25.718 108.433 25.718 109.167 25.718C108.59 27.0295 107.593 28.1312 106.282 28.7607C105.338 29.2328 104.289 29.4426 103.239 29.4951C101.613 29.5476 99.9869 29.0754 98.7279 28.0787C97.5213 27.1344 96.7345 25.6656 96.4722 24.1443C96.1574 22.3082 96.4722 20.3148 97.5213 18.7935C98.2558 17.5869 99.5672 16.6951 101.036 16.3279ZM101.928 17.9017C101.036 18.059 100.144 18.4787 99.5148 19.1607C98.8328 19.8951 98.4656 20.8918 98.3607 21.8361C101.351 21.8361 104.289 21.8361 107.279 21.8361C107.174 20.8918 106.859 19.9476 106.23 19.2131C105.81 18.6885 105.18 18.2689 104.551 18.0066C103.764 17.7443 102.82 17.7443 101.928 17.9017Z" fill="black"/>
    <path d="M114.308 16.8C115.672 16.0655 117.298 15.9082 118.82 16.2754C120.026 16.5901 121.128 17.3246 121.915 18.3213C121.915 17.6918 121.915 17.0623 121.915 16.4327C123.174 16.4327 124.433 16.4327 125.692 16.4327C125.692 17.0098 125.692 17.5344 125.692 18.1114C125.115 18.1114 124.538 18.1114 123.961 18.1114C123.961 21.259 123.961 24.3541 123.961 27.5016C124.538 27.5016 125.115 27.5016 125.692 27.5016C125.692 28.0787 125.692 28.6032 125.692 29.1803C124.433 29.1803 123.174 29.1803 121.915 29.1803C121.915 28.5508 121.915 27.9213 121.915 27.2918C121.128 28.3409 119.974 29.0754 118.662 29.3901C116.931 29.8098 114.99 29.4426 113.574 28.3934C112.315 27.4491 111.423 26.0327 111.108 24.5114C110.741 22.8852 110.898 21.1541 111.633 19.6852C112.157 18.4262 113.102 17.4295 114.308 16.8ZM116.983 17.8491C115.777 17.9541 114.623 18.636 113.941 19.6852C113.049 20.9967 112.839 22.6754 113.154 24.1967C113.416 25.4557 114.203 26.6623 115.41 27.2918C116.826 28.0262 118.662 27.9737 119.921 27.0295C120.603 26.5573 121.075 25.9278 121.443 25.1409C121.967 23.8819 122.072 22.4131 121.705 21.1016C121.39 19.895 120.551 18.7409 119.397 18.1639C118.662 17.9016 117.823 17.7442 116.983 17.8491Z" fill="black"/>
    <path d="M156.905 25.9279C157.587 25.2984 158.793 25.3508 159.423 26.0328C159.738 26.3475 159.895 26.7672 160 27.1869V27.6066C159.947 28.0262 159.79 28.4459 159.475 28.7607C158.951 29.3377 158.111 29.4951 157.377 29.2328C156.852 29.0229 156.433 28.6033 156.328 28.0787C156.118 27.2393 156.328 26.4 156.905 25.9279ZM157.849 25.823C157.587 25.8754 157.377 25.9803 157.167 26.1902C156.538 26.7672 156.538 27.8689 157.115 28.4984C157.587 29.023 158.531 29.0754 159.056 28.6033C159.79 27.9738 159.79 26.7148 159.056 26.1377C158.688 25.8754 158.216 25.7705 157.849 25.823Z" fill="black"/>
    <path d="M157.429 26.3475C157.744 26.3475 158.111 26.3475 158.426 26.3475C158.636 26.3475 158.898 26.4525 158.951 26.7147C159.003 26.9246 159.003 27.1344 158.898 27.3443C158.793 27.5016 158.636 27.5541 158.479 27.5541C158.688 27.8688 158.898 28.1836 159.056 28.4459C158.951 28.4459 158.793 28.4459 158.688 28.4459C158.479 28.1311 158.321 27.8688 158.164 27.5541C158.059 27.5541 157.954 27.5541 157.849 27.5541C157.849 27.8688 157.849 28.1311 157.849 28.4459C157.744 28.4459 157.639 28.4459 157.482 28.4459C157.429 27.7639 157.429 27.082 157.429 26.3475ZM157.744 26.6623C157.744 26.8721 157.744 27.082 157.744 27.2918C157.954 27.2918 158.216 27.2918 158.426 27.2393C158.688 27.1869 158.688 26.7672 158.426 26.7147C158.216 26.6098 158.006 26.6623 157.744 26.6623Z" fill="black"/>
</svg>
