<svg width="33" height="36" viewBox="0 0 33 36" fill="none" xmlns="http://www.w3.org/2000/svg">
    <g clip-path="url(#clip0_724_2)">
        <path d="M4.65664 6.14021C4.41243 6.25939 3.91925 6.4062 3.18779 6.4062C1.16231 6.4062 -6.10352e-05 5.01308 -6.10352e-05 3.23567C-6.10352e-05 1.1197 1.48106 0 3.32232 0C4.03616 0 4.41332 0.136609 4.65625 0.265696L4.43124 1.53112C4.16079 1.41134 3.87371 1.30225 3.37796 1.30225C2.50108 1.30225 1.57095 1.82374 1.57095 3.21231C1.57095 4.45446 2.3126 5.11148 3.38528 5.11148C3.81016 5.11148 4.09852 5.02812 4.43134 4.87538L4.65664 6.14021Z" fill="#0056A2"/>
        <path d="M8.01993 1.56927C7.47428 1.56927 6.94626 1.81665 6.67739 2.21401H6.66086V0.0222168L5.28833 0.497381V6.21568H6.66086V3.54457C6.66086 3.15889 6.91161 2.74401 7.39251 2.74401C7.90698 2.74401 8.10516 3.14899 8.10516 3.7381V6.21578H9.47888V3.54863C9.47888 2.18708 8.89492 1.56927 8.01993 1.56927Z" fill="#0056A2"/>
        <path d="M11.5495 4.41175C11.5999 4.99096 12.0803 5.29873 12.8227 5.30536C13.27 5.30882 13.7901 5.17875 14.1366 4.97463L14.3437 6.04285C13.8222 6.30479 13.2265 6.40626 12.6201 6.40626C10.9863 6.40626 10.1106 5.42366 10.1106 3.91828C10.1106 2.4621 11.0522 1.52246 12.4632 1.52246C13.9174 1.52246 14.5693 2.59316 14.5693 3.93471C14.5693 4.07607 14.5519 4.30633 14.5362 4.41175H11.5495ZM13.1985 3.435C13.1985 3.09862 13.0343 2.51041 12.3989 2.51041C11.8418 2.51041 11.579 2.99002 11.54 3.435H13.1985Z" fill="#0056A2"/>
        <path d="M16.1827 6.21556L14.6661 1.71338H16.1804L17.0043 4.89807H17.0321L17.8561 1.71338H19.3709L17.8545 6.21556H16.1827Z" fill="#0056A2"/>
        <path d="M19.7601 3.19404C19.7601 2.53168 19.7393 2.09958 19.7111 1.71331H21.0041L21.0433 2.55019H21.078C21.3043 1.88783 21.7386 1.63619 22.1853 1.61085C22.3976 1.59848 22.5125 1.61353 22.644 1.63897V2.95537C22.5182 2.93072 22.2685 2.90172 22.093 2.91785C21.5648 2.96646 21.2451 3.35065 21.1555 3.79294C21.1374 3.88461 21.1281 3.98638 21.1281 4.10546V6.21549H19.7606V3.19404H19.7601Z" fill="#0056A2"/>
        <path d="M27.4675 3.96416C27.4675 5.43975 26.5785 6.40601 25.1378 6.40601C23.6969 6.40601 22.8073 5.43975 22.8073 3.96416C22.8073 2.48838 23.6969 1.52222 25.1378 1.52222C26.5785 1.52222 27.4675 2.48848 27.4675 3.96416ZM26.0445 3.96416C26.0445 3.23152 25.7927 2.59381 25.1378 2.59381C24.4821 2.59381 24.2316 3.23142 24.2316 3.96416C24.2316 4.6975 24.4821 5.33422 25.1378 5.33422C25.7929 5.33422 26.0445 4.6975 26.0445 3.96416Z" fill="#0056A2"/>
        <path d="M28.0779 3.14896C28.0779 2.58708 28.0573 2.10736 28.0283 1.71357H29.3214L29.351 2.34346H29.3787C29.5578 2.05054 30.0316 1.56934 30.771 1.56934C31.6759 1.56934 32.2666 2.18715 32.2666 3.51246V6.21584H30.8952V3.71935C30.8952 3.14005 30.6965 2.74398 30.2002 2.74398C29.8197 2.74398 29.5834 3.01156 29.4957 3.26805C29.4632 3.36199 29.4499 3.48959 29.4499 3.61848V6.21574H28.0779V3.14896Z" fill="#0056A2"/>
        <path d="M0.0490112 18.1506V7.41284L16.1597 12.782L0.0490112 18.1506Z" fill="#2083BE"/>
        <path d="M0.0530396 18.1515L16.1596 23.5201L32.2653 18.1515V7.41431L16.1596 12.7822L0.0530396 18.1515Z" fill="#2FA1D3"/>
        <path d="M0.0499699 30.632L0.048584 19.8909L16.1581 25.2597L0.0499699 30.632Z" fill="#AD1A35"/>
        <path d="M32.2661 19.8909L16.1551 25.258L0.0517578 30.6301L16.1581 36L32.2661 30.6284V19.8909Z" fill="#E6192F"/>
    </g>
    <defs>
        <clipPath id="clip0_724_2">
            <rect width="32.2666" height="36" fill="white"/>
        </clipPath>
    </defs>
</svg>
