<svg width="148" height="40" viewBox="0 0 148 40" fill="none" xmlns="http://www.w3.org/2000/svg">
    <path d="M53.1189 0.00292408L67.8509 0L67.7593 0.119792L34.2685 39.9213L19.7979 39.9466L53.1189 0.00292408ZM87.9908 32.0208V24.1952L96.7275 24.209L105.464 24.2228L105.814 24.3401C106.568 24.5928 107.161 25.0806 107.5 25.7273C107.86 26.4139 107.839 25.9418 107.839 33.2575V39.8464H105.864H103.889V34.2782C103.889 28.2868 103.899 28.5115 103.637 28.1443C103.58 28.0638 103.427 27.9359 103.299 27.8602L103.064 27.7225L101.427 27.7075L99.7897 27.6925V33.7695V39.8464H97.8655H95.9413L95.9282 34.1805L95.9151 28.5146L95.7638 28.2699C95.6701 28.1183 95.5194 27.9676 95.3679 27.8739L95.1233 27.7226L93.5319 27.7075L91.9405 27.6924V33.7695V39.8465H89.9657H87.9908L87.9908 32.0208ZM53.7129 39.4476C52.5501 39.1427 51.667 38.2877 51.3108 37.1217C51.2245 36.8394 51.2191 36.5291 51.2191 31.8721V26.9226L51.3603 26.5231C51.5581 25.9634 51.8023 25.5807 52.229 25.1621C52.498 24.898 52.7066 24.7475 53.0077 24.6001C53.8342 24.1955 53.2128 24.227 60.7058 24.2098L67.3926 24.1944V25.9209V27.6475H61.559C55.7384 27.6475 55.7248 27.6477 55.5088 27.7523C55.3585 27.8251 55.2505 27.9282 55.1556 28.0898L55.0188 28.3224V31.9721C55.0188 35.5765 55.0202 35.6242 55.1232 35.8217C55.1806 35.9317 55.3232 36.0892 55.44 36.1717L55.6523 36.3217L61.5225 36.335L67.3926 36.3483V37.9474V39.5464L60.7308 39.5435C54.393 39.5406 54.0516 39.5364 53.7129 39.4476ZM71.3613 39.4476C70.8948 39.3253 70.3839 39.0624 70.0424 38.7689C69.6025 38.3908 69.3836 38.1025 69.1385 37.5787C68.8406 36.9423 68.8442 37.012 68.8442 31.8971C68.8442 26.6258 68.8298 26.8477 69.2245 26.0483C69.5373 25.4145 70.0265 24.9186 70.6436 24.6097C71.4778 24.192 70.8232 24.2228 78.8666 24.2228H86.0159L86.0291 25.9346L86.0423 27.6464L79.651 27.6595L73.2598 27.6725L73.0786 27.7966C72.979 27.8649 72.8457 28.0111 72.7823 28.1216L72.6672 28.3225V31.9721C72.6672 35.5765 72.6687 35.6243 72.7716 35.8218C72.8291 35.9318 72.9716 36.0892 73.0884 36.1717L73.3007 36.3217L79.6708 36.335L86.041 36.3482V37.9473V39.5464L78.8791 39.5435C72.0533 39.5406 71.7005 39.5364 71.3613 39.4476ZM112.339 39.4687C111.857 39.3652 111.262 39.0509 110.872 38.693C110.365 38.2283 110.043 37.7068 109.856 37.0458C109.769 36.7414 109.764 36.4288 109.764 31.8971C109.764 26.5068 109.743 26.8418 110.122 26.0492C110.375 25.5218 111.054 24.8441 111.589 24.5858C112.391 24.1983 111.721 24.2291 119.75 24.2107L126.937 24.1943V25.9209V27.6475H120.611C114.501 27.6475 114.278 27.6504 114.099 27.7422C113.87 27.8591 113.765 27.9727 113.665 28.2102C113.599 28.37 113.588 28.8679 113.588 31.9971C113.588 34.91 113.601 35.6309 113.656 35.7616C113.745 35.9753 114.039 36.2284 114.274 36.2937C114.402 36.329 116.502 36.3462 120.7 36.3464L126.937 36.3467V37.9465V39.5464L119.8 39.5427C113.892 39.5391 112.608 39.5264 112.339 39.4687ZM128.688 37.6591L128.688 35.8218L128.81 35.5599C129.045 35.0551 129.234 34.9116 131.732 33.347C133.027 32.5358 134.086 31.8609 134.086 31.8471C134.086 31.8228 130.972 29.8173 129.865 29.1287C129.205 28.7185 129.026 28.5576 128.861 28.227L128.737 27.9778V26.0878V24.1978H130.662H132.587L132.589 25.3602L132.591 26.5226L135.299 28.2207C136.788 29.1546 138.041 29.9187 138.084 29.9187C138.126 29.9187 139.392 29.1433 140.897 28.1957L143.632 26.4726L143.634 25.3352L143.636 24.1978H145.561H147.486V25.9958C147.486 27.7137 147.481 27.8066 147.378 28.0831C147.191 28.5847 146.914 28.7969 144.386 30.3718C143.135 31.1512 142.113 31.8077 142.116 31.8305C142.12 31.8696 145.833 34.2756 146.536 34.695C146.932 34.9313 147.197 35.1981 147.332 35.4968C147.428 35.71 147.434 35.82 147.435 37.6091L147.435 39.4964L146.448 39.4963C145.905 39.4962 145.039 39.4814 144.523 39.4634L143.586 39.4306V38.2952V37.1597L140.868 35.4533C139.373 34.5148 138.121 33.7469 138.086 33.7469C138.05 33.7469 136.788 34.5287 135.28 35.4843L132.538 37.2216L132.537 38.359L132.537 39.4964H130.612H128.687L128.688 37.6591ZM76.2918 31.9971V30.4473H81.1664H86.0409V31.9971V33.547H81.1664H76.2918V31.9971ZM117.188 31.9971V30.4473H122.063H126.937V31.9971V33.547H122.063H117.188V31.9971Z" fill="#293064"/>
    <path d="M0.520925 39.9125L33.7761 0.0536499H48.5259L48.3987 0.191143L14.8947 40H7.67039C0.794879 40 0.449663 39.9956 0.520925 39.9125Z" fill="#DF343D"/>
</svg>
