<svg width="114" height="40" viewBox="0 0 114 40" fill="none" xmlns="http://www.w3.org/2000/svg">
    <path d="M27.2402 3.22482C23.0747 0.219717 17.6006 -0.87016 12.3099 0.747608L0.237793 4.43814V11.4794L27.2402 3.22482Z" fill="#2C6CBE"/>
    <path d="M33.1592 10.9218C32.2938 8.6574 30.9853 6.67281 29.3652 5.03976L0.238281 13.9445V20.987L33.1592 10.9218Z" fill="#2C6CBE"/>
    <path d="M33.9918 20.174C34.4221 17.9131 34.3974 15.537 33.8484 13.175L0.238525 23.4519V30.4932L33.9918 20.174Z" fill="#2C6CBE"/>
    <path d="M22.2533 33.2691C27.544 31.6513 31.4732 27.6869 33.245 22.8665L0.238281 32.9575V40L22.2533 33.2691Z" fill="#2C6CBE"/>
    <path d="M46.836 14.5987C48.7348 14.5987 49.7953 13.3889 49.7953 11.4725C49.7953 9.53616 48.7348 8.32636 46.836 8.32636H45.6074V14.5987H46.836ZM42.667 5.75745H46.9842C50.5771 5.75745 52.7545 7.99129 52.7545 11.4725C52.7545 14.9526 50.5771 17.1865 46.9842 17.1865H42.667V5.75745Z" fill="#231F20"/>
    <path d="M57.851 11.0254C56.9563 11.0254 56.4543 11.8449 56.4543 12.9983C56.4543 14.1516 56.9563 14.9523 57.851 14.9523C58.7622 14.9523 59.2642 14.1516 59.2642 12.9983C59.2642 11.8449 58.7622 11.0254 57.851 11.0254ZM57.851 17.373C55.3185 17.373 53.5691 15.5848 53.5691 12.9983C53.5691 10.4105 55.3185 8.62464 57.851 8.62464C60.4011 8.62464 62.1317 10.4105 62.1317 12.9983C62.1317 15.5848 60.4011 17.373 57.851 17.373Z" fill="#231F20"/>
    <path d="M73.2431 8.6243C74.9926 8.6243 76.0719 9.81529 76.0719 11.6964V17.187H73.1503V12.403C73.1503 11.6964 72.8528 11.1932 72.2003 11.1932C71.6983 11.1932 71.2691 11.5095 71.121 12.0867V17.187H68.217V12.403C68.217 11.6964 67.9195 11.1932 67.2682 11.1932C66.7662 11.1932 66.3194 11.5095 66.1877 12.0867V17.187H63.2661V8.81124H66.1877V9.49902C66.6169 8.97819 67.4187 8.6243 68.3475 8.6243C69.408 8.6243 70.1546 9.03345 70.6554 9.62953C71.1598 9.10869 72.0133 8.6243 73.2431 8.6243Z" fill="#231F20"/>
    <path d="M80.5801 17.1865H77.6584V8.81082H80.5801V17.1865Z" fill="#231F20"/>
    <path d="M82.1621 8.81069H85.0849V9.5361C85.5493 9.01526 86.3688 8.62375 87.3364 8.62375C89.1987 8.62375 90.2968 9.83355 90.2968 11.6959V17.1864H87.3916V12.4025C87.3916 11.7135 87.0389 11.2115 86.2935 11.2115C85.7163 11.2115 85.2342 11.5466 85.0849 12.1238V17.1864H82.1621V8.81069Z" fill="#231F20"/>
    <path d="M94.7954 17.1865H91.8738V8.81082H94.7954V17.1865Z" fill="#231F20"/>
    <path d="M100.212 11.0254C99.3188 11.0254 98.8168 11.8449 98.8168 12.9983C98.8168 14.1516 99.3188 14.9523 100.212 14.9523C101.125 14.9523 101.627 14.1516 101.627 12.9983C101.627 11.8449 101.125 11.0254 100.212 11.0254ZM100.212 17.373C97.681 17.373 95.9304 15.5848 95.9304 12.9983C95.9304 10.4105 97.681 8.62464 100.212 8.62464C102.762 8.62464 104.493 10.4105 104.493 12.9983C104.493 15.5848 102.762 17.373 100.212 17.373Z" fill="#231F20"/>
    <path d="M105.629 8.81069H108.553V9.5361C109.016 9.01526 109.834 8.62375 110.803 8.62375C112.664 8.62375 113.762 9.83355 113.762 11.6959V17.1864H110.858V12.4025C110.858 11.7135 110.504 11.2115 109.761 11.2115C109.183 11.2115 108.7 11.5466 108.553 12.1238V17.1864H105.629V8.81069Z" fill="#231F20"/>
    <path d="M94.7954 7.84088H91.8738V5.75757H94.7954V7.84088Z" fill="#231F20"/>
    <path d="M80.5801 7.84088H77.6584V5.75757H80.5801V7.84088Z" fill="#231F20"/>
    <path d="M52.3428 22.4969H55.2656V23.2223C55.7312 22.7015 56.5483 22.31 57.517 22.31C59.3794 22.31 60.4763 23.5198 60.4763 25.3821V30.8715H57.5735V26.0887C57.5735 25.3997 57.2196 24.8977 56.4754 24.8977C55.8981 24.8977 55.4149 25.2328 55.2656 25.8089V30.8715H52.3428V22.4969Z" fill="#231F20"/>
    <path d="M76.8605 25.0626C76.4596 24.891 76.1539 24.8145 75.7024 24.8145C75.0017 24.8145 74.2728 25.2049 74.1611 25.9585V30.8718H71.2383V22.4972H74.1611V23.2414C74.5702 22.683 75.2216 22.3103 76.0598 22.3103C76.4314 22.3103 76.7288 22.3855 76.8605 22.4596V25.0626Z" fill="#231F20"/>
    <path d="M88.7904 34.0859L90.1025 30.6458L86.9763 22.4747H90.0108L91.6109 27.2398L93.1746 22.4747H96.0786L91.6744 34.0859H88.7904Z" fill="#231F20"/>
    <path d="M81.8754 28.3376C80.7232 28.3376 80.2259 27.4629 80.2259 26.4013C80.2259 25.3396 80.6844 24.5048 81.7707 24.5048C82.3292 24.5048 82.9382 24.9316 83.1616 25.3043V27.5193C82.9382 27.892 82.4503 28.3376 81.8754 28.3376ZM86.0468 22.4744H83.1616V23.1069C82.7889 22.6602 82.0999 22.2875 81.1888 22.2875C78.8244 22.2875 77.4841 24.0933 77.4841 26.4013C77.4841 28.7092 78.8244 30.5339 81.1888 30.5339C82.0106 30.5339 82.6513 30.2164 83.0405 29.839C83.0405 29.839 83.0969 29.7826 83.1158 29.7614L83.1181 30.3975C83.0734 31.5097 82.127 32.0211 81.0359 32.0211C79.8826 32.0211 78.9702 31.7225 78.1155 30.9971V33.5342C78.9197 34.0857 79.9578 34.2408 81.1312 34.2408C83.8106 34.2408 86.0374 32.9064 86.0374 29.8167L86.0468 22.4744Z" fill="#231F20"/>
    <path d="M45.6076 26.3131H50.0471V23.8006H45.6076V22.0123H50.8372V19.4434H42.666V30.8724H50.8372V28.2847H45.6076V26.3131Z" fill="#231F20"/>
    <path d="M64.4297 25.7923C64.5355 24.813 65.2456 24.3686 65.8794 24.3686C66.5119 24.3686 67.2679 24.8059 67.3878 25.7923H64.4297ZM65.8629 22.2617C63.3669 22.2617 61.6045 24.2145 61.6045 26.6776C61.6045 29.7274 63.4245 31.1053 66.218 31.1053C67.463 31.1053 68.4659 30.8467 69.2395 30.4775V28.4095C68.2801 28.9244 67.396 29.0596 66.72 29.0596C65.3973 29.0596 64.505 28.4553 64.4497 27.3901H70.1072C70.1213 27.1879 70.1213 27.068 70.1213 26.8799C70.1213 24.4003 68.781 22.2617 65.8629 22.2617Z" fill="#231F20"/>
    <path d="M98.8995 21.6155C97.9672 21.6155 97.2124 22.3726 97.2124 23.305C97.2124 24.2373 97.9672 24.9933 98.8995 24.9933C99.8342 24.9933 100.591 24.2373 100.591 23.305C100.591 22.3726 99.8342 21.6155 98.8995 21.6155ZM98.9019 24.7852C98.0836 24.7852 97.4205 24.1221 97.4205 23.305C97.4205 22.4879 98.0836 21.8236 98.9019 21.8236C99.7202 21.8236 100.383 22.4879 100.383 23.305C100.383 24.1221 99.7202 24.7852 98.9019 24.7852Z" fill="#231F20"/>
    <path d="M99.609 22.9103C99.609 22.6364 99.462 22.4753 99.0247 22.4753H98.304V24.1225H98.4909V23.3606H98.8765L99.348 24.1225H99.5902L99.0905 23.3606C99.3833 23.3536 99.609 23.2337 99.609 22.9103ZM98.8142 23.1737H98.4909V22.6599H98.9765C99.181 22.6599 99.422 22.6905 99.422 22.9045C99.422 23.2125 99.047 23.1737 98.8142 23.1737Z" fill="#231F20"/>
</svg>
