<svg width="160" height="40" viewBox="0 0 160 40" fill="none" xmlns="http://www.w3.org/2000/svg">
    <g clip-path="url(#clip0_36_1285)">
        <path d="M29.7121 29.6961L15.4241 22.8161V7.68005L29.7121 29.6961ZM30.8481 32.3201L15.4241 25.8081V32.3201H30.8481Z" fill="#98002E"/>
        <path d="M1.13599 29.6961L15.424 7.68005V22.8161L1.13599 29.6961Z" fill="#E31837"/>
        <path d="M0 32.3201H15.424V25.8081L0 32.3201Z" fill="#E31837"/>
        <path d="M32.0959 27.8081C32.6559 27.8081 33.1199 28.2561 33.1199 28.8161C33.1199 29.3761 32.6719 29.8401 32.1119 29.8401C31.5519 29.8401 31.0879 29.3921 31.0879 28.8321C31.0879 28.2561 31.5359 27.8081 32.0959 27.8081ZM32.0959 29.6801C32.5759 29.6801 32.9599 29.2961 32.9599 28.8161C32.9599 28.3361 32.5759 27.9521 32.0959 27.9521C31.6159 27.9521 31.2319 28.3361 31.2319 28.8161C31.2319 29.2961 31.6159 29.6801 32.0959 29.6801ZM31.8719 29.4081H31.7279V28.2401H32.1759C32.4479 28.2401 32.5439 28.3521 32.5439 28.5601C32.5599 28.7361 32.4159 28.8801 32.2559 28.8961L32.6079 29.4081H32.4479L32.0959 28.8961H31.8879L31.8719 29.4081ZM31.8719 28.7521H32.0639C32.2239 28.7521 32.3999 28.7361 32.3999 28.5441C32.3999 28.4001 32.2559 28.3521 32.1439 28.3521H31.8879V28.7521H31.8719Z" fill="#98002E"/>
        <path d="M42.896 29.696H49.824C56.96 29.696 61.2 26 61.2 19.872C61.2 13.744 56.96 10.064 49.824 10.064H42.896V29.696ZM47.28 13.472H49.824C54.448 13.472 56.768 15.76 56.768 19.872C56.768 23.984 54.448 26.272 49.824 26.272H47.28V13.472Z" fill="#003D79"/>
        <path d="M76.1119 21.184H84.4479V17.776H76.1119V13.472H85.5359V10.064H71.7119V29.696H85.8399V26.288H76.1119V21.184Z" fill="#003D79"/>
        <path d="M110.832 26.288H102.368V10.064H97.968V29.696H110.832V26.288Z" fill="#003D79"/>
        <path d="M134.512 10.064H116.896V13.472H123.488V29.696H127.904V13.472H134.512V10.064Z" fill="#003D79"/>
        <path d="M160 29.696H155.408L153.488 24.784H145.504L143.584 29.696H139.296L147.504 9.98401H151.936L160 29.696ZM152.24 21.488L149.504 14.512L146.752 21.488H152.24Z" fill="#003D79"/>
    </g>
    <defs>
        <clipPath id="clip0_36_1285">
            <rect width="160" height="24.64" fill="white" transform="translate(0 7.68005)"/>
        </clipPath>
    </defs>
</svg>
