<svg width="160" height="40" viewBox="0 0 160 40" fill="none" xmlns="http://www.w3.org/2000/svg">
    <path d="M46.4128 15.9979V24.1694H48.4502C48.9701 24.1616 49.4832 24.0497 49.9592 23.8402C50.4351 23.6307 50.8642 23.3279 51.2211 22.9496C51.9535 22.1742 52.3543 21.1434 52.338 20.0769C52.3535 19.5471 52.2642 19.0195 52.0752 18.5244C51.8862 18.0293 51.6012 17.5764 51.2367 17.1917C50.8783 16.8129 50.4462 16.5115 49.967 16.306C49.4878 16.1006 48.9716 15.9953 48.4502 15.9969H46.4138L46.4128 15.9979ZM48.4502 13.4359C52.2476 13.4359 55.1203 16.3782 55.1203 20.0769C55.1203 23.7756 52.2476 26.7346 48.4502 26.7346H43.9567C43.9138 26.734 43.8715 26.725 43.8321 26.7081C43.7927 26.6912 43.7571 26.6668 43.7272 26.6361C43.6973 26.6054 43.6737 26.5691 43.6578 26.5293C43.6419 26.4895 43.634 26.447 43.6346 26.4042V13.7798C43.6346 13.5969 43.779 13.4483 43.9567 13.4483L48.4502 13.4359ZM64.9083 24.454C66.633 24.4592 68.1904 23.3985 68.8543 21.7662C69.1795 20.9688 69.2664 20.0941 69.1045 19.2482C68.9426 18.4023 68.5388 17.6215 67.9421 17.0005C67.3558 16.3897 66.598 15.9711 65.7688 15.8001C64.9396 15.6291 64.0781 15.7136 63.298 16.0426C61.7042 16.7159 60.6631 18.3086 60.66 20.0769C60.66 22.4873 62.5582 24.4426 64.9083 24.454ZM64.9094 13.1346C68.9063 13.1346 71.9619 16.2847 71.9619 20.0769C71.9619 23.8691 68.9063 27.0192 64.9083 27.0192C60.9115 27.0192 57.8818 23.8847 57.8818 20.0769C57.8818 16.2691 60.9385 13.1346 64.9094 13.1346ZM81.6709 24.454C84.0221 24.4478 85.9245 22.4904 85.9224 20.08C85.9193 17.6675 84.0128 15.7143 81.6626 15.7133C79.3104 15.7133 77.4029 17.6655 77.3998 20.0769C77.3998 21.2385 77.8496 22.3522 78.6507 23.173C79.0428 23.5775 79.512 23.8993 80.0305 24.1193C80.5491 24.3393 81.1076 24.4532 81.6709 24.454ZM81.6699 13.1346C85.6543 13.1346 88.7099 16.2691 88.7099 20.0769C88.7099 23.8847 85.6419 27.0192 81.6699 27.0192C77.699 27.0192 74.6174 23.8847 74.6174 20.0769C74.6174 16.2691 77.673 13.1346 81.6699 13.1346ZM98.0294 15.9979H95.1566V19.5148H98.0294C98.2564 19.5249 98.483 19.4883 98.6953 19.4074C98.9076 19.3264 99.101 19.2028 99.2637 19.0442C99.5961 18.7221 99.7852 18.2753 99.7894 17.8057C99.7978 17.5675 99.7579 17.33 99.6722 17.1075C99.5865 16.8851 99.4567 16.6822 99.2907 16.5112C99.1277 16.3428 98.9312 16.2105 98.714 16.1226C98.4968 16.0348 98.2636 15.9934 98.0294 16.001V15.9979ZM92.3774 13.7798C92.3774 13.5969 92.5229 13.4483 92.7005 13.4483H98.1094C100.688 13.4483 102.554 15.386 102.554 17.8192C102.574 19.4649 101.675 20.9766 100.24 21.7133L102.735 26.2359C102.769 26.2878 102.789 26.3484 102.791 26.4107C102.793 26.4731 102.778 26.5348 102.747 26.5891C102.717 26.6425 102.673 26.6862 102.618 26.715C102.564 26.7437 102.503 26.7563 102.442 26.7512H100.253C100.192 26.752 100.132 26.7357 100.08 26.7041C100.029 26.6725 99.9868 26.6269 99.9598 26.5725L97.5556 22.0966H95.1463V26.3938C95.1469 26.4367 95.1392 26.4793 95.1233 26.5193C95.1075 26.5592 95.084 26.5956 95.054 26.6264C95.0241 26.6571 94.9884 26.6817 94.949 26.6987C94.9095 26.7157 94.8671 26.7247 94.8242 26.7252H92.7151C92.6722 26.7247 92.6298 26.7157 92.5903 26.6987C92.5509 26.6817 92.5152 26.6571 92.4853 26.6264C92.4553 26.5956 92.4318 26.5592 92.4159 26.5193C92.4001 26.4793 92.3923 26.4367 92.393 26.3938L92.3785 13.7808L92.3774 13.7798ZM109.798 16.0603V24.2327H111.834C112.354 24.2257 112.867 24.1145 113.343 23.9057C113.819 23.6969 114.249 23.3948 114.606 23.0172C115.339 22.2426 115.74 21.2126 115.725 20.1465C115.742 19.6161 115.653 19.0877 115.465 18.5916C115.276 18.0955 114.991 17.6417 114.627 17.2561C114.268 16.8767 113.835 16.5749 113.355 16.3694C112.875 16.1639 112.357 16.0591 111.835 16.0613L109.798 16.0603ZM111.834 13.4951C115.631 13.4951 118.504 16.4405 118.504 20.1465C118.504 23.8525 115.631 26.7979 111.834 26.7979H107.354C107.311 26.7974 107.269 26.7884 107.229 26.7714C107.19 26.7545 107.154 26.7299 107.124 26.6991C107.094 26.6683 107.071 26.6319 107.055 26.592C107.039 26.5521 107.031 26.5094 107.032 26.4665V13.8431C107.032 13.6592 107.176 13.5107 107.354 13.5107L111.834 13.4951ZM126.978 16.7449L125.402 21.1148H128.551L126.978 16.7449ZM124.477 23.5844L123.445 26.4935C123.425 26.562 123.382 26.6216 123.324 26.663C123.265 26.7043 123.195 26.7251 123.123 26.7221H120.885C120.828 26.7274 120.771 26.7173 120.719 26.6928C120.668 26.6683 120.623 26.6303 120.591 26.5829C120.559 26.5349 120.539 26.4792 120.534 26.4214C120.529 26.3635 120.539 26.3053 120.563 26.2525L125.399 13.6405C125.421 13.574 125.465 13.5167 125.523 13.4773C125.581 13.4379 125.651 13.4186 125.721 13.4223H128.225C128.295 13.4184 128.365 13.4376 128.423 13.477C128.481 13.5164 128.525 13.5738 128.548 13.6405L133.383 26.2525C133.407 26.3054 133.417 26.3636 133.412 26.4215C133.407 26.4794 133.387 26.535 133.354 26.5829C133.322 26.6301 133.278 26.6679 133.226 26.6922C133.174 26.7165 133.117 26.7265 133.06 26.721H130.823C130.752 26.7241 130.681 26.7033 130.623 26.6619C130.565 26.6205 130.522 26.5609 130.501 26.4925L129.469 23.5834H124.477V23.5844ZM135.977 17.0286C135.977 14.9403 137.737 13.1346 140.517 13.1346C142.013 13.1011 143.462 13.661 144.548 14.692C144.581 14.7232 144.607 14.7609 144.625 14.8027C144.643 14.8445 144.653 14.8896 144.653 14.9351C144.653 14.9806 144.643 15.0256 144.625 15.0674C144.607 15.1092 144.581 15.1469 144.548 15.1782L143.308 16.4405C143.279 16.4712 143.243 16.4956 143.204 16.5122C143.165 16.5289 143.122 16.5375 143.08 16.5375C143.037 16.5375 142.995 16.5289 142.956 16.5122C142.916 16.4956 142.881 16.4712 142.851 16.4405C142.267 15.8933 141.501 15.5833 140.701 15.5709C139.589 15.5709 138.767 16.2327 138.767 16.9964C138.767 19.4649 145.336 18.0405 145.336 22.7907C145.333 25.1979 143.56 27.0192 140.424 27.0192C139.553 27.0281 138.69 26.8618 137.885 26.5302C137.08 26.1986 136.349 25.7084 135.737 25.0888C135.704 25.0576 135.678 25.0199 135.66 24.9781C135.642 24.9363 135.633 24.8912 135.633 24.8457C135.633 24.8002 135.642 24.7552 135.66 24.7134C135.678 24.6716 135.704 24.6339 135.737 24.6026L136.936 23.3725C136.966 23.3403 137.002 23.3147 137.043 23.2971C137.083 23.2796 137.126 23.2705 137.17 23.2705C137.214 23.2705 137.257 23.2796 137.298 23.2971C137.338 23.3147 137.374 23.3403 137.404 23.3725C138.159 24.1204 139.175 24.5453 140.237 24.5569C141.626 24.5569 142.542 23.7964 142.542 22.8436C142.542 20.374 135.975 21.7995 135.975 17.0483M157.249 13.7631V18.7543H151.689V13.7631C151.689 13.7203 151.681 13.6778 151.665 13.638C151.649 13.5982 151.626 13.5619 151.596 13.5312C151.566 13.5005 151.53 13.4761 151.491 13.4592C151.452 13.4423 151.409 13.4333 151.367 13.4327H149.257C149.215 13.4333 149.172 13.4423 149.133 13.4592C149.094 13.4761 149.058 13.5005 149.028 13.5312C148.998 13.5619 148.974 13.5982 148.959 13.638C148.943 13.6778 148.935 13.7203 148.935 13.7631V26.373C148.935 26.5559 149.081 26.7044 149.257 26.7044H151.367C151.543 26.7044 151.689 26.5559 151.689 26.373V21.3029H157.245V26.373C157.245 26.5559 157.39 26.7044 157.567 26.7044H159.676C159.854 26.7044 159.998 26.5559 159.998 26.373V13.7631C159.999 13.7203 159.991 13.6778 159.975 13.638C159.959 13.5982 159.936 13.5619 159.906 13.5312C159.876 13.5005 159.84 13.4761 159.801 13.4592C159.761 13.4423 159.719 13.4333 159.676 13.4327H157.567C157.481 13.4349 157.4 13.4708 157.34 13.5327C157.281 13.5945 157.248 13.6773 157.249 13.7631ZM31.7956 15.1159C30.3328 12.4042 27.4704 10.7159 24.3577 10.7262H0.806529C0.647482 10.7269 0.492141 10.7743 0.359861 10.8626C0.227582 10.9509 0.124212 11.0762 0.0626333 11.2229C0.00195427 11.3686 -0.0138492 11.5291 0.0172469 11.6838C0.0483431 11.8386 0.124923 11.9805 0.237179 12.0914L5.36757 17.1823C5.82056 17.6333 6.4377 17.8857 7.07978 17.8857H23.6824C24.8657 17.8733 25.833 18.8104 25.8455 19.9772C25.858 21.1439 24.9094 22.0998 23.726 22.1112H12.2798C12.1206 22.1112 11.965 22.1582 11.8323 22.2461C11.6997 22.3341 11.5958 22.4591 11.5338 22.6057C11.4725 22.7516 11.4563 22.9125 11.4872 23.0676C11.5182 23.2228 11.5948 23.3651 11.7073 23.4764L16.8408 28.5714C17.2966 29.0221 17.912 29.2745 18.553 29.2738H23.7302C30.4657 29.2738 35.5587 22.1673 31.7956 15.1127" fill="#FF3008"/>
</svg>
