<svg width="66" height="13" viewBox="0 0 66 13" fill="none" xmlns="http://www.w3.org/2000/svg">
    <g clip-path="url(#clip0_102:110)">
        <path d="M7.656 2.42343L3.828 4.84685L7.656 7.27028L3.828 9.6937L0 7.25718L3.828 4.83375L0 2.42343L3.828 0L7.656 2.42343ZM3.8082 10.4731L7.6362 8.0497L11.4642 10.4731L7.6362 12.8966L3.8082 10.4731ZM7.656 7.25718L11.484 4.83375L7.656 2.42343L11.4642 0L15.2922 2.42343L11.4642 4.84685L15.2922 7.27028L11.4642 9.6937L7.656 7.25718Z" fill="#0061FF"/>
        <path d="M18.2952 2.4235H21.3906C23.364 2.4235 24.9942 3.55661 24.9942 6.14378V6.68741C24.9942 9.29423 23.4696 10.4666 21.45 10.4666H18.2952V2.4235ZM20.0244 3.8841V8.99949H21.351C22.473 8.99949 23.2254 8.27246 23.2254 6.65466V6.22893C23.2254 4.61113 22.4334 3.8841 21.2916 3.8841H20.0244ZM25.9116 3.9627H27.2976L27.522 5.4757C27.786 4.44738 28.4592 3.8972 29.6802 3.8972H30.1092V5.6329H29.3964C27.9906 5.6329 27.6474 6.11758 27.6474 7.49304V10.4863H25.938V3.9627H25.9116ZM30.4524 7.35549V7.1721C30.4524 4.99102 31.8582 3.79895 33.7722 3.79895C35.7258 3.79895 37.092 4.99102 37.092 7.1721V7.35549C37.092 9.49728 35.7654 10.65 33.7722 10.65C31.6536 10.6304 30.4524 9.50383 30.4524 7.35549ZM35.343 7.33584V7.1721C35.343 5.96039 34.7292 5.23336 33.7524 5.23336C32.7954 5.23336 32.1618 5.90144 32.1618 7.1721V7.33584C32.1618 8.50826 32.7756 9.17634 33.7524 9.17634C34.7292 9.15669 35.343 8.50826 35.343 7.33584ZM37.9896 3.9627H39.4152L39.5802 5.19406C39.9234 4.36879 40.656 3.79895 41.7384 3.79895C43.4082 3.79895 44.5104 4.99102 44.5104 7.1983V7.38169C44.5104 9.52348 43.2894 10.6566 41.7384 10.6566C40.7022 10.6566 39.9894 10.1916 39.6396 9.44488V12.7394H37.9698L37.9896 3.9627ZM42.7746 7.33584V7.19175C42.7746 5.89489 42.1014 5.25301 41.2038 5.25301C40.2468 5.25301 39.6132 5.98004 39.6132 7.19175V7.3162C39.6132 8.46896 40.227 9.19599 41.184 9.19599C42.1674 9.17634 42.7746 8.55411 42.7746 7.33584ZM47.0382 9.28113L46.893 10.4732H45.4278V1.78162H47.0976V5.11546C47.4672 4.26399 48.1998 3.79895 49.236 3.79895C50.8068 3.8186 51.9684 4.89277 51.9684 7.0542V7.25725C51.9684 9.41868 50.8662 10.6566 49.1964 10.6566C48.0942 10.6304 47.3814 10.1261 47.0382 9.28113ZM50.2128 7.25725V7.0935C50.2128 5.90144 49.5594 5.23336 48.642 5.23336C47.7048 5.23336 47.0514 5.98004 47.0514 7.11315V7.25725C47.0514 8.46896 47.685 9.17634 48.6222 9.17634C49.6254 9.17634 50.2128 8.55411 50.2128 7.25725ZM52.701 7.35549V7.1721C52.701 4.99102 54.1068 3.79895 56.0208 3.79895C57.9744 3.79895 59.3406 4.99102 59.3406 7.1721V7.35549C59.3406 9.49728 57.9942 10.65 56.0208 10.65C53.9022 10.6304 52.701 9.50383 52.701 7.35549ZM57.6048 7.33584V7.1721C57.6048 5.96039 56.991 5.23336 56.0142 5.23336C55.0572 5.23336 54.4236 5.90144 54.4236 7.1721V7.33584C54.4236 8.50826 55.0374 9.17634 56.0142 9.17634C56.9976 9.15669 57.6048 8.50826 57.6048 7.33584ZM61.578 7.0935L59.2746 3.9627H61.248L62.5746 5.92109L63.921 3.9627H65.8746L63.5382 7.07385L66 10.4732H64.0662L62.5614 8.31176L61.0962 10.4732H59.0766L61.578 7.0935Z" fill="black"/>
    </g>
    <defs>
        <clipPath id="clip0_102:110">
            <rect width="66" height="12.8966" fill="white"/>
        </clipPath>
    </defs>
</svg>
