<svg width="40" height="40" viewBox="0 0 40 40" fill="none" xmlns="http://www.w3.org/2000/svg">
<g clip-path="url(#clip0_112_5243)">
<path fill-rule="evenodd" clip-rule="evenodd" d="M2.60433 39.9445H0.0124512V33.9777H2.60433C4.47166 33.9777 5.40658 34.9182 5.40658 36.7985C5.40658 38.8947 4.47166 39.9445 2.60433 39.9445ZM1.12076 38.9841H2.43694C3.67766 38.9841 4.29727 38.2556 4.29727 36.7975C4.29727 35.5563 3.67766 34.9357 2.43694 34.9357H1.12076V38.9841ZM6.56785 39.9445H5.43007L7.96798 33.9777H9.15923L11.7526 39.9445H10.5604L9.80783 38.317H7.89253L8.27329 37.3581H9.51551L8.53662 35.1165L6.56785 39.9445ZM11.126 33.9777H15.6632V34.9372H13.9487V39.9445H12.8409V34.9372H11.1255L11.126 33.9777ZM16.2328 39.9445H15.095L17.6334 33.9777H18.8247L21.4176 39.9445H20.2253L19.4728 38.317H17.5575L17.9372 37.3581H19.1795L18.2006 35.1165L16.2328 39.9445ZM24.7445 39.9445H22.1526V33.9777H24.7445C26.6128 33.9777 27.5467 34.9182 27.5467 36.7985C27.5467 38.8947 26.6128 39.9445 24.7445 39.9445ZM23.2604 38.9841H24.5776C25.8173 38.9841 26.4384 38.2556 26.4384 36.7975C26.4384 35.5563 25.8173 34.9357 24.5776 34.9357H23.2604V38.9841ZM28.2968 36.9694C28.2968 34.9461 29.2986 33.9348 31.2999 33.9348C33.2707 33.9348 34.2555 34.9461 34.2555 36.9694C34.2555 38.9806 33.2707 39.9875 31.2999 39.9875C29.3871 39.987 28.3872 38.9806 28.2968 36.9694ZM31.2999 39.0256C32.5036 39.0256 33.1058 38.332 33.1058 36.9439C33.1058 35.5773 32.5036 34.8932 31.2999 34.8932C30.0647 34.8932 29.4476 35.5773 29.4476 36.9439C29.4481 38.332 30.0652 39.0256 31.2999 39.0256ZM38.8792 37.53V38.9267C38.6233 38.9936 38.394 39.0261 38.1936 39.0261C36.8379 39.0261 36.1614 38.31 36.1614 36.8774C36.1614 35.5548 36.8799 34.8937 38.3145 34.8937C38.9141 34.8937 39.4713 35.0051 39.987 35.228V34.2261C39.4718 34.0317 38.8867 33.9338 38.2311 33.9338C36.0849 33.9338 35.0111 34.9142 35.0111 36.8769C35.0111 38.9486 36.0664 39.9865 38.1766 39.9865C38.9026 39.9865 39.5058 39.8806 39.9875 39.6687V36.5471H38.1981L37.8238 37.529H38.8792V37.53Z" fill="#632CA6"/>
<path fill-rule="evenodd" clip-rule="evenodd" d="M29.9997 22.5224L27.3623 20.7825L25.1622 24.4577L22.6033 23.7097L20.3502 27.1485L20.4656 28.2309L32.7165 25.9733L32.0049 18.3186L29.9997 22.5224ZM18.5753 19.2225L20.5411 18.9522C20.8589 19.0951 21.0802 19.1495 21.4615 19.2465C22.0556 19.4009 22.7427 19.5493 23.7606 19.0366C23.9974 18.9192 24.4911 18.468 24.6905 18.2106L32.7435 16.75L33.5649 26.6928L19.7681 29.1793L18.5753 19.2225ZM33.534 15.6397L32.739 15.7911L31.2119 0.0130005L5.19067 3.03011L8.39667 29.0449L11.4428 28.6026C11.1994 28.2553 10.8207 27.8351 10.1741 27.2974C9.27712 26.5524 9.59392 25.2862 10.1236 24.4867C10.8237 23.136 14.4309 21.4196 14.2265 19.261C14.1531 18.476 14.0287 17.4546 13.2996 16.754C13.2721 17.0449 13.3216 17.3242 13.3216 17.3242C13.3216 17.3242 13.0223 16.9424 12.8734 16.4222C12.7255 16.2224 12.609 16.1589 12.4516 15.8921C12.3392 16.2004 12.3542 16.5582 12.3542 16.5582C12.3542 16.5582 12.1094 15.98 12.0699 15.4918C11.925 15.7102 11.8885 16.1249 11.8885 16.1249C11.8885 16.1249 11.5707 15.2135 11.6431 14.7223C11.4982 14.2951 11.068 13.4471 11.1894 11.5203C11.9834 12.0765 13.7318 11.9445 14.4129 10.9407C14.6388 10.6079 14.7942 9.70045 14.3 7.91156C13.9827 6.76478 13.1972 5.05685 12.8909 4.40875L12.8544 4.43524C13.0158 4.95741 13.3486 6.05123 13.4765 6.58239C13.8633 8.19139 13.9667 8.75204 13.7853 9.49407C13.6309 10.1392 13.2606 10.5609 12.3222 11.0326C11.3838 11.5058 10.1381 10.354 10.0596 10.2906C9.1477 9.56403 8.44214 8.37927 8.36369 7.80313C8.28174 7.17303 8.72696 6.79476 8.95132 6.27958C8.63002 6.37103 8.27225 6.53442 8.27225 6.53442C8.27225 6.53442 8.69948 6.0922 9.22615 5.70994C9.44452 5.56553 9.57244 5.47359 9.80229 5.28271C9.4695 5.27721 9.19917 5.2867 9.19917 5.2867C9.19917 5.2867 9.75432 4.98689 10.3295 4.76853C9.90873 4.75004 9.50548 4.76553 9.50548 4.76553C9.50548 4.76553 10.7442 4.21138 11.7221 3.80513C12.3947 3.5293 13.0518 3.61075 13.421 4.14492C13.9057 4.84448 14.4149 5.22424 15.4937 5.4596C16.1563 5.16578 16.3572 5.01537 17.1897 4.78802C17.9222 3.98202 18.4974 3.87808 18.4974 3.87808C18.4974 3.87808 18.212 4.13992 18.1356 4.55116C18.5508 4.22387 19.006 3.95054 19.006 3.95054C19.006 3.95054 18.8297 4.1679 18.6653 4.51369L18.7032 4.57065C19.1879 4.27983 19.7576 4.05098 19.7576 4.05098C19.7576 4.05098 19.5947 4.25685 19.4038 4.52318C19.7696 4.52018 20.5106 4.53867 20.7984 4.57115C22.4969 4.60863 22.8491 2.75779 23.5007 2.52543C24.3167 2.23411 24.6815 2.05772 26.0721 3.42387C27.2649 4.59713 28.1973 6.69582 27.7341 7.16603C27.3458 7.55629 26.5803 7.01362 25.7318 5.95629C25.2836 5.39614 24.9443 4.73405 24.7854 3.89258C24.6515 3.18252 24.1298 2.77078 24.1298 2.77078C24.1298 2.77078 24.4321 3.44535 24.4321 4.03948C24.4321 4.36428 24.4726 5.57802 24.9933 6.2596C24.9418 6.35903 24.9178 6.75229 24.8609 6.82774C24.2553 6.0957 22.9546 5.57203 22.7422 5.41762C23.4603 6.00575 25.1102 7.35691 25.7438 8.6526C26.3435 9.87734 25.9902 11.0001 26.2935 11.2905C26.3799 11.3734 27.5827 12.8725 27.814 13.6255C28.2178 14.9377 27.838 16.3173 27.3098 17.1728L25.8343 17.4026C25.6184 17.3427 25.473 17.3127 25.2796 17.2008C25.3866 17.0119 25.5984 16.5412 25.6004 16.4437L25.517 16.2978C25.0578 16.9484 24.2887 17.58 23.6496 17.9428C22.8132 18.417 21.8493 18.3435 21.2217 18.1497C19.4408 17.6005 17.7563 16.3968 17.3501 16.0805C17.3501 16.0805 17.3376 16.3328 17.414 16.3898C17.8628 16.8964 18.8916 17.8124 19.8865 18.4515L17.7663 18.6848L18.7687 26.4885C18.3245 26.5519 18.255 26.5834 17.7688 26.6523C17.3401 25.1378 16.5201 24.1489 15.6237 23.5728C14.8331 23.0646 13.7428 22.9502 12.6995 23.157L12.6325 23.235C13.3581 23.1595 14.2145 23.2645 15.0945 23.8216C15.9579 24.3678 16.654 25.7784 16.9103 26.6274C17.2386 27.7127 17.4655 28.874 16.5821 30.1047C15.9539 30.9796 14.1201 31.4628 12.638 30.417C13.0338 31.0536 13.5684 31.5738 14.289 31.6717C15.3583 31.8171 16.3732 31.6312 17.0717 30.9142C17.6679 30.3011 17.9847 29.0189 17.9012 27.6687L18.8451 27.5318L19.1859 29.9553L34.8087 28.074L33.534 15.6397ZM24.0289 9.05835C23.9854 9.15778 23.9165 9.22324 24.0194 9.54704L24.0254 9.56553L24.0419 9.6075L24.0849 9.70444C24.2702 10.0837 24.4736 10.441 24.8144 10.6239C24.9024 10.6089 24.9938 10.5989 25.0882 10.5944C25.408 10.5804 25.6099 10.6309 25.7373 10.6998C25.7488 10.6359 25.7513 10.5429 25.7443 10.4055C25.7193 9.92531 25.8393 9.10882 24.9163 8.67908C24.5681 8.51769 24.0794 8.56715 23.9165 8.76903C23.946 8.77303 23.9724 8.77902 23.9934 8.78602C24.2403 8.87146 24.0734 8.95641 24.0289 9.05835ZM26.6163 13.5385C26.4954 13.4716 25.9297 13.4981 25.532 13.5455C24.7744 13.635 23.9564 13.8973 23.7776 14.0372C23.4518 14.2891 23.5997 14.7278 23.8405 14.9082C24.5156 15.4124 25.1072 15.7507 25.7313 15.6682C26.1146 15.6177 26.4529 15.0106 26.6922 14.46C26.8561 14.0807 26.8561 13.6715 26.6163 13.5385ZM19.91 9.65248C20.1233 9.4496 18.8461 9.18327 17.8548 9.85935C17.1237 10.358 17.1002 11.4274 17.8003 12.0335C17.8702 12.0935 17.9282 12.1359 17.9817 12.1709C18.1861 12.0745 18.4189 11.9775 18.6872 11.8906C19.14 11.7437 19.5167 11.6677 19.826 11.6272C19.9739 11.4618 20.1463 11.1705 20.1034 10.6429C20.0444 9.9268 19.5027 10.0402 19.91 9.65248Z" fill="#632CA6"/>
</g>
<defs>
<clipPath id="clip0_112_5243">
<rect width="40" height="40" fill="white"/>
</clipPath>
</defs>
</svg>
