<svg width="160" height="40" viewBox="0 0 160 40" fill="none" xmlns="http://www.w3.org/2000/svg">
    <path fill-rule="evenodd" clip-rule="evenodd" d="M92.128 26.864V15.872H89.6V23.28L82.992 15.872H80.48V26.864H83.008V19.376L89.584 26.864H92.128ZM144.432 20.592C144.96 20.592 145.84 20.432 145.84 19.344C145.84 18.56 145.328 18.128 144.432 18.128H139.808V20.592H144.432ZM148.752 26.864H145.696L142.64 22.848H139.664V26.864H137.136V15.872H144.288C146.752 15.872 148.224 17.184 148.224 19.392C148.224 20.72 147.488 22.208 145.568 22.672L148.752 26.864ZM104.544 13.136C109.392 13.136 112.288 15.744 112.288 20.096C112.288 23.216 110.256 26.864 104.544 26.864H98.432V13.136H104.544ZM100.976 15.408V24.592H104.56C106.496 24.592 109.76 23.984 109.76 19.952C109.76 17.056 107.856 15.408 104.56 15.408H100.976ZM152.448 24.608V22.48H158.288V20.24H152.448V18.128H160V15.872H149.92V26.864H160V24.624H152.448V24.608ZM127.904 24.608V22.48H133.744V20.24H127.904V18.128H135.456V15.872H125.376V26.864H135.456V24.624H127.904V24.608ZM116.128 24.608V22.48H121.968V20.24H116.128V18.128H123.68V15.872H113.6V26.864H123.68V24.624C123.68 24.608 116.128 24.608 116.128 24.608ZM75.888 15.872V20.24H69.296V15.872H66.768V26.864H69.296V22.496H75.888V26.864H78.416V15.872H75.888ZM58.768 24.88C57.28 24.88 54.8 24.416 54.8 21.344C54.8 19.136 56.256 17.872 58.768 17.872C61.296 17.872 62.736 19.136 62.736 21.344C62.736 24.416 60.24 24.88 58.768 24.88ZM52.272 21.456C52.272 24.064 53.968 27.12 58.768 27.12C63.568 27.12 65.264 24.064 65.264 21.456C65.264 17.792 62.832 15.616 58.768 15.616C54.688 15.616 52.272 17.792 52.272 21.456ZM41.136 24.256C41.136 24.256 42.576 24.768 44.176 24.768C45.888 24.768 46.96 24.528 47.552 23.92C48.048 23.424 48.24 22.592 48.224 21.344V13.152H50.752V21.712C50.72 25.504 48.88 27.12 44.624 27.12C42.56 27.12 41.12 26.784 41.12 26.784V24.256H41.136ZM30.576 8.27204C26.368 6.20804 21.52 5.04004 16.464 5.04004C11.392 5.04004 6.544 6.20804 2.32 8.28804C0.784 12 0 15.984 0 20C0 24.144 0.832 28.08 2.32 31.712C6.544 33.792 11.392 34.96 16.464 34.96C21.52 34.96 26.368 33.792 30.592 31.728C32.128 28.016 32.928 24.032 32.928 20C32.912 15.856 32.08 11.904 30.576 8.27204Z" fill="#367C2B"/>
    <path fill-rule="evenodd" clip-rule="evenodd" d="M11.9679 16.6081C11.2479 18.0481 10.7839 19.6001 10.6239 21.2001C10.5599 21.2001 10.2239 21.2321 10.2239 21.2321C8.79992 21.3601 7.34392 21.4721 5.91992 22.0161L6.01592 22.5921C8.33592 25.4721 11.8559 27.2161 11.8879 27.2321L11.9679 27.1521L11.2159 25.9361C11.0399 25.7921 10.5599 25.6961 10.5439 25.6961C8.95992 25.1681 7.85592 23.1041 7.66392 22.7521C8.97592 22.7521 10.1119 23.1201 11.2159 23.4881C11.9519 23.7281 12.6399 23.9521 13.3439 24.0801C14.5919 24.2881 15.9039 24.0481 17.0879 23.9041C18.0479 23.7921 18.9759 23.7921 19.9039 23.8561C20.0159 23.9841 20.9919 25.1681 21.9199 25.6641C23.0879 26.2721 26.4799 27.2961 26.6559 27.3441C26.7199 27.4081 28.0319 28.7201 28.8319 30.2561C25.0239 32.0001 20.7519 32.9281 16.4479 32.9281C12.1439 32.9281 7.83992 32.0001 4.03192 30.2241C2.76792 26.9761 2.12792 23.5041 2.12792 20.0161C2.12792 16.5121 2.76792 13.0721 4.03192 9.8081C7.85592 8.0321 12.1439 7.1041 16.4479 7.1041C20.7519 7.1041 25.0399 8.0321 28.8479 9.7921C30.1119 13.0561 30.7519 16.5121 30.7519 20.0161C30.7519 23.2321 30.2239 26.3841 29.1679 29.3761C27.9519 27.2801 27.4719 26.6401 27.4719 26.6401C27.4559 26.6241 25.7599 25.7441 25.3439 25.3761C25.0079 25.0881 24.8479 24.4961 24.6719 23.8081C24.4159 22.8641 24.0959 21.6961 23.1679 20.7201L24.1919 20.3041C23.9039 18.3201 21.5679 17.0401 21.5519 17.0401L21.4239 17.1041C22.3199 18.2241 22.5759 19.1681 22.5759 19.7441C22.5759 20.0321 22.5279 20.2401 22.5119 20.3201C22.2399 20.2241 20.5279 19.6641 16.6079 19.8081C16.0319 19.8241 15.2159 19.8081 14.7199 19.3281C14.4479 19.0561 14.3039 18.6721 14.3039 18.1761C14.3039 16.8161 14.8799 14.9921 14.9599 14.7361L15.9839 14.8641C17.1999 14.1921 17.6799 13.6001 17.7439 13.5201L17.6799 13.4561C16.6399 13.5841 15.2799 13.8561 15.2799 13.8561C15.3759 13.6161 15.6479 12.8321 15.6479 11.9521C15.6479 10.9921 15.3279 9.9201 14.1119 9.2961L13.9839 9.3601C13.9999 9.3761 14.6879 10.1281 14.6879 11.1681C14.6879 11.4561 14.6239 11.7601 14.4959 12.0961C14.0959 11.9361 13.9359 11.9201 13.4559 11.9041C13.2319 11.0881 12.5119 10.4001 11.5359 10.0481L11.4239 10.1121C11.4399 10.1121 12.4639 10.8481 12.5119 11.9201C11.9999 11.9681 11.7759 12.0161 11.1359 12.2081C10.8639 11.7601 10.2559 11.4401 9.48792 11.3441L9.39192 11.4241C9.40792 11.4241 10.3039 11.7441 10.4959 12.4321C9.93591 12.6881 9.35992 13.0881 8.95992 13.4081L8.99192 13.5521C11.3279 12.6401 13.5039 12.3841 14.0639 13.0401C14.1599 13.1521 14.2079 13.2961 14.2079 13.4401C14.2079 13.6321 14.1279 13.8561 13.9839 14.1121C12.8319 14.3681 11.1039 14.8481 9.67992 15.3921L9.87192 15.9841C9.87192 15.9841 11.2959 16.2721 11.8399 16.3841C11.8719 16.3841 12.0639 16.4001 11.9679 16.6081ZM29.5679 9.1521C25.6319 7.2961 21.1359 6.2561 16.4479 6.2561C11.7599 6.2561 7.26392 7.2961 3.31192 9.1681C1.96792 12.6241 1.26392 16.3041 1.26392 20.0161C1.26392 23.8241 1.98392 27.4721 3.31192 30.8321C7.26392 32.7041 11.7599 33.7441 16.4479 33.7441C21.1199 33.7441 25.6319 32.7041 29.5679 30.8481C30.9279 27.4081 31.6319 23.7281 31.6319 20.0161C31.6479 16.1921 30.9119 12.5281 29.5679 9.1521Z" fill="#FFDE00"/>
</svg>
