<svg width="160" height="40" viewBox="0 0 160 40" fill="none" xmlns="http://www.w3.org/2000/svg">
    <path d="M62.4888 11.6911V11.0444L62.2111 10.86H51.1444L50.96 11.0444V11.6911L51.1444 11.8755H55.8555L56.04 12.06V25.5266L56.2244 25.7111H57.0555L57.24 25.5266V12.1489L57.4244 11.9644H62.2244L62.5022 11.6889L62.4888 11.6911ZM64.9777 14.9133C62.0222 14.9133 60.2666 17.0333 60.2666 20.0689V20.5333C60.2666 23.4889 61.7444 26.0666 65.1555 26.0666C68.1111 26.0666 69.2222 24.1289 69.4 22.8444L69.2177 22.6622H68.3844L68.2022 22.8444C67.74 24.1355 66.9066 24.9666 65.2466 24.9666C62.4688 24.9666 61.6466 22.3889 61.6466 21.1L61.8333 20.9177H69.5L69.6866 20.7311V20.0844C69.6866 17.04 68.0266 14.9289 64.9755 14.9289L64.9777 14.9133ZM64.9777 16.02C66.2688 16.02 67.12 16.5511 67.6444 17.2666C68.1755 17.9822 68.3822 18.88 68.3822 19.6222L68.2 19.8089H61.7333L61.5466 19.6222C61.5466 18.8844 61.754 17.9844 62.2844 17.2666C62.8155 16.5511 63.6711 16.02 64.9733 16.02H64.9777ZM71.8 20.4422C71.8 17.4866 73.2755 15.9311 75.4 15.9311C77.5222 15.9311 78.3555 17.2222 78.6222 18.5089L78.8066 18.6933H79.7289L79.9133 18.5089C79.7289 16.3866 77.9755 14.9089 75.4022 14.9089C72.6244 14.9089 70.5133 16.6622 70.5133 20.4422C70.5133 24.3089 72.6355 25.9755 75.4022 25.9755C77.98 25.9755 79.6466 24.5 79.9133 22.3755L79.7289 22.1911H78.8977L78.7133 22.3755C78.5288 23.6666 77.6066 24.9533 75.4911 24.9533C73.3688 24.9533 71.8 23.4777 71.8 20.4422ZM90.2444 25.62V19.1533C90.2444 16.3755 88.7688 14.9089 86.3777 14.9089C84.9022 14.9089 83.6 15.5555 82.9555 16.6622H82.7711V11.1289L82.4933 10.8533H81.6622L81.4777 11.0377V25.6155L81.6622 25.8H82.4933L82.6777 25.6155V19.7933C82.6777 17.3933 83.7844 15.9266 86.1 15.9266C87.8533 15.9266 88.8777 17.0333 88.8777 19.1489V25.6155L89.0622 25.8H89.8933L90.2622 25.6155L90.2444 25.62ZM101.133 25.62V19.1533C101.133 16.3755 99.6577 14.9089 97.2666 14.9089C95.7911 14.9089 94.4888 15.5555 93.8444 16.6622H93.66L93.4755 15.3711L93.2911 15.1866H92.6444L92.46 15.3711V25.6155L92.6444 25.8H93.4755L93.66 25.6155V19.7933C93.66 17.3933 94.7666 15.9266 97.0822 15.9266C98.8355 15.9266 99.86 17.0333 99.86 19.1489V25.6155L100.044 25.8H100.967L101.151 25.6155L101.133 25.62ZM107.311 14.9977C104.533 14.9977 102.422 16.9377 102.422 20.5311C102.422 24.1311 104.547 26.0644 107.311 26.0644C110.076 26.0644 112.2 24.1289 112.2 20.5311C112.2 16.9311 110.076 14.9977 107.311 14.9977ZM107.311 16.0133C108.373 16.0133 109.271 16.4533 109.911 17.2377C110.544 18.0222 110.913 19.1533 110.913 20.5266C110.913 21.9111 110.544 23.0377 109.911 23.8155C109.278 24.6 108.378 25.0355 107.311 25.0355C106.249 25.0355 105.351 24.6 104.711 23.8155C104.078 23.0311 103.709 21.9 103.709 20.5266C103.709 19.0955 104.078 17.9711 104.711 17.1933C105.344 16.42 106.244 16.0044 107.311 16.0044V16.0133ZM115.067 25.6133V11.0355L114.789 10.8511H113.958L113.773 11.0355V25.6133L113.958 25.7977H114.789L115.067 25.6133ZM121.444 14.9911C118.667 14.9911 116.556 16.9311 116.556 20.5244C116.556 24.1244 118.68 26.0577 121.444 26.0577C124.209 26.0577 126.333 24.1222 126.333 20.5244C126.333 16.9244 124.213 14.9911 121.444 14.9911ZM121.444 16.0066C122.507 16.0066 123.402 16.4466 124.044 17.2311C124.678 18.0155 125.051 19.1466 125.051 20.52C125.051 21.9044 124.678 23.0311 124.044 23.8089C123.411 24.5933 122.513 25.0289 121.444 25.0289C120.382 25.0289 119.484 24.5933 118.844 23.8089C118.207 23.0244 117.833 21.8933 117.833 20.52C117.833 19.0889 118.207 17.9644 118.84 17.1866C119.473 16.4133 120.373 15.9977 121.44 15.9977L121.444 16.0066ZM131.956 14.9C129 14.9 127.422 17.3 127.422 20.4333C127.422 23.6555 128.9 25.9666 131.956 25.9666C133.893 25.9666 134.911 25.1355 135.378 24.2133V24.3044C135.378 27.0822 134.733 29.1933 132.156 29.1933C130.218 29.1933 129.578 28.3644 129.378 27.2577L129.191 27.0711H128.362L128.176 27.2577C128.36 29.0111 129.656 30.2133 132.242 30.2133C135.02 30.2133 136.776 28.46 136.776 24.2133V15.3466L136.589 15.1644H135.942L135.76 15.3466L135.573 16.64H135.391C134.929 15.8089 133.913 14.8866 131.969 14.8866L131.956 14.9ZM131.956 15.9155C133.018 15.9155 133.871 16.2822 134.467 17.0311C135.056 17.78 135.378 18.9111 135.378 20.4311C135.378 21.9533 135.056 23.0755 134.467 23.8311C133.878 24.58 133.024 24.9511 131.956 24.9511C130.893 24.9511 130.04 24.58 129.444 23.8311C128.856 23.0822 128.538 21.9511 128.538 20.4311C128.538 18.9555 128.858 17.8311 129.444 17.0533C130.033 16.2911 130.887 15.9022 131.956 15.9022V15.9155ZM140.067 13.2489V11.9577L139.882 11.7733H139.051L138.773 11.9577V13.2489L138.958 13.4333H139.789L140.067 13.2489ZM140.067 25.6044V15.36L139.882 15.1755H139.051L138.773 15.36V25.6044L138.958 25.7889H139.789L140.067 25.6044ZM146.244 14.8933C143.289 14.8933 141.533 17.0133 141.533 20.0489V20.5133C141.533 23.4689 143.011 26.0466 146.422 26.0466C149.378 26.0466 150.489 24.1089 150.667 22.8244L150.48 22.6422H149.651L149.464 22.8244C149.002 24.1155 148.173 24.9466 146.509 24.9466C143.731 24.9466 142.909 22.3689 142.909 21.08L143.096 20.8977H150.762L150.949 20.7111V20.0644C150.949 17.1089 149.193 14.9089 146.238 14.9089L146.244 14.8933ZM146.244 16C147.536 16 148.391 16.5311 148.933 17.2466C149.464 17.9622 149.671 18.86 149.671 19.6022L149.484 19.7889H143.018L142.835 19.6022C142.835 18.8644 143.043 17.9644 143.573 17.2466C144.104 16.5311 144.956 16 146.24 16H146.244ZM160 23.0222C160 21.0844 158.893 20.2444 156.778 19.8C154.656 19.3377 153.355 19.1533 153.355 17.6777C153.355 16.5711 154.187 15.9244 155.756 15.9244C157.693 15.9244 158.333 16.7555 158.333 17.8622L158.518 18.0466H159.349L159.534 17.8622C159.534 15.74 157.78 14.9066 155.667 14.9066C153.267 14.9066 152.067 16.1977 152.067 17.6844C152.067 19.4377 153.358 20.2622 155.489 20.64C157.611 21.1022 158.711 21.2866 158.711 23.04C158.711 24.1466 158.065 24.9777 155.934 24.9777C153.996 24.9777 153.156 23.8711 153.156 22.5777L152.971 22.3933H152.14L151.955 22.5777C151.955 24.5155 153.431 26 156.022 26C158.689 26.0933 160 24.8 160 23.0444L160 23.0222Z" fill="#808080"/>
    <path d="M50.9333 22.6533V25.6977H41.3333V10.6311H44.8222V22.6311H50.9333V22.6533ZM21.8222 9.78662L13.3111 16.3422C12.4378 13.0755 9.6 10.6755 6.11111 10.6755H0V25.7422H6.11111C9.6 25.7422 12.6667 23.3422 13.3111 20.0755L21.8222 26.6311L30.3333 20.0755V25.7422H39.9333V22.6755H33.6V10.6755H30.1111V16.3422L22.0444 22.8977L20.3 21.3688L24.2333 18.3022L28.3889 15.0355L25.9889 13.0733L17.9222 19.4066L16.1778 17.8777L24.2444 11.7666L21.8444 9.8044H21.8402L21.8222 9.78662ZM3.26667 13.72H5.88889C6.43333 13.72 6.96889 13.8422 7.46 14.0666C7.95111 14.2911 8.40222 14.62 8.78444 15.0311C9.16667 15.44 9.47778 15.9288 9.69556 16.48C9.91378 17.0333 10.0333 17.6488 10.0333 18.3022C10.0333 18.9022 9.92645 19.4866 9.72444 20.0288C9.52311 20.5711 9.22889 21.0688 8.86 21.4911C8.49111 21.9133 8.05111 22.26 7.54889 22.5022C7.04667 22.7444 6.48667 22.88 5.88667 22.88H3.26444V13.7244L3.26667 13.72Z" fill="#007DB8"/>
</svg>
