<svg width="160" height="40" viewBox="0 0 160 40" fill="none" xmlns="http://www.w3.org/2000/svg">
    <path d="M12.9961 26.3087C11.482 27.6966 9.46326 28.3275 6.18274 28.3275H4.92101V11.6726H6.30892C9.46326 11.6726 11.482 12.3035 13.1223 13.6914C14.8887 15.2054 15.8981 17.6027 15.8981 20C15.7719 22.3973 14.7625 24.7946 12.9961 26.3087ZM7.19213 7.38269H0.000244141V32.7436H7.19213C10.9773 32.7436 13.7532 31.8603 16.2766 29.8416C19.1786 27.4443 20.8189 23.7852 20.8189 20.1262C20.8189 12.5558 15.2672 7.38269 7.19213 7.38269Z" fill="#201D1C"/>
    <path d="M23.0898 32.6174H28.0106V7.38269H23.0898V32.6174Z" fill="#201D1C"/>
    <path d="M40.1236 17.098C37.2216 15.9625 36.3384 15.3316 36.3384 13.9437C36.3384 12.3034 37.8525 11.1679 39.9974 11.1679C41.5115 11.1679 42.6471 11.7987 44.035 13.1867L46.5585 9.77997C44.4135 7.88736 41.89 7.00415 39.1142 7.00415C34.572 7.00415 31.1653 10.1585 31.1653 14.3222C31.1653 17.8551 32.8056 19.6215 37.3478 21.2618C39.2404 21.8926 40.2498 22.3973 40.7545 22.6497C41.7639 23.2805 42.2686 24.1637 42.2686 25.2993C42.2686 27.3181 40.6283 28.8322 38.4834 28.8322C36.0861 28.8322 34.1935 27.6966 33.0579 25.4255L29.9036 28.4536C32.1747 31.7342 34.9505 33.2482 38.6095 33.2482C43.7826 33.2482 47.3155 29.8416 47.3155 24.9208C47.4417 20.8832 45.8014 19.1168 40.1236 17.098Z" fill="#201D1C"/>
    <path d="M48.9553 20C48.9553 27.4443 54.7593 33.2483 62.3297 33.2483C64.4747 33.2483 66.2411 32.8697 68.5122 31.7342V25.9302C66.4934 27.949 64.727 28.706 62.5821 28.706C57.6613 28.706 54.1284 25.047 54.1284 20C54.1284 15.0793 57.7875 11.2941 62.4559 11.2941C64.8532 11.2941 66.6196 12.1773 68.6384 14.1961V8.26591C66.3673 7.25653 64.6008 6.75183 62.4559 6.75183C55.0116 6.75183 48.9553 12.682 48.9553 20Z" fill="#201D1C"/>
    <path d="M107.753 24.2899L100.939 7.38269H95.5139L106.365 33.2483H109.014L119.865 7.38269H114.566L107.753 24.2899Z" fill="#201D1C"/>
    <path d="M122.136 32.6174H136.141V28.3275H127.057V21.5141H135.763V17.2242H127.057V11.6726H136.141V7.38269H122.136V32.6174Z" fill="#201D1C"/>
    <path d="M145.857 18.9907H144.469V11.2941H145.983C149.011 11.2941 150.777 12.5558 150.777 15.0793C150.651 17.6027 149.011 18.9907 145.857 18.9907ZM155.698 14.8269C155.698 10.0323 152.418 7.38269 146.74 7.38269H139.422V32.7436H144.343V22.5235H144.974L151.787 32.7436H157.843L149.894 22.0188C153.679 21.2618 155.698 18.7383 155.698 14.8269Z" fill="#201D1C"/>
    <path d="M157.969 8.6444L157.843 8.01353H157.969C158.222 8.01353 158.348 8.1397 158.348 8.26588C158.348 8.51822 158.222 8.6444 157.969 8.6444ZM158.853 8.26588C158.853 7.76118 158.6 7.63501 157.969 7.63501H157.212V9.90613H157.717V9.02292L158.348 9.90613H158.979L158.222 9.02292C158.726 8.77057 158.853 8.6444 158.853 8.26588Z" fill="#201D1C"/>
    <path d="M158.095 10.2847C157.212 10.2847 156.581 9.52765 156.581 8.64443C156.581 7.76122 157.212 7.00418 158.095 7.00418C158.978 7.00418 159.609 7.76122 159.609 8.64443C159.609 9.52765 158.978 10.2847 158.095 10.2847ZM158.095 6.75183C156.96 6.75183 156.203 7.63505 156.203 8.64443C156.203 9.77999 157.086 10.537 158.095 10.537C159.105 10.537 159.988 9.65382 159.988 8.64443C160.114 7.63505 159.231 6.75183 158.095 6.75183Z" fill="#201D1C"/>
    <path d="M83.5269 33.2482C90.7043 33.2482 96.5227 27.3733 96.5227 20.1262C96.5227 12.8791 90.7043 7.00415 83.5269 7.00415C76.3494 7.00415 70.531 12.8791 70.531 20.1262C70.531 27.3733 76.3494 33.2482 83.5269 33.2482Z" fill="#EA5B1A"/>
</svg>
