<svg width="160" height="40" viewBox="0 0 160 40" fill="none" xmlns="http://www.w3.org/2000/svg">
    <path d="M156.741 5.82395C158.559 5.82395 160 7.25554 160 9.09477V30.9024C160 32.7538 158.559 34.1761 156.741 34.1761H156.526C131.037 32.6352 105.515 31.8631 79.9994 31.8631C54.4797 31.8631 28.9618 32.6352 3.47149 34.1761H3.25531C1.44834 34.1761 0 32.7538 0 30.9024V9.09477C0 7.25554 1.44834 5.82395 3.25531 5.82395C3.33449 5.82395 3.39692 5.83316 3.47149 5.83316C28.961 7.36529 54.4806 8.12823 79.9994 8.12823C105.516 8.12823 131.037 7.36529 156.526 5.83316C156.598 5.83316 156.671 5.82395 156.741 5.82395Z" fill="#CACBCC"/>
    <path d="M156.741 6.98027C156.696 6.98027 156.644 6.98026 156.598 6.98948C131.201 8.51826 105.43 9.28746 79.9993 9.28746C54.5617 9.28746 28.7958 8.51826 3.40686 6.98948C3.35365 6.98026 3.30505 6.98027 3.25478 6.98027C2.07834 6.98027 1.1604 7.91326 1.1604 9.09598V30.9036C1.1604 32.083 2.07834 33.0165 3.25478 33.0165C3.30505 33.0165 3.35365 33.0164 3.39639 33.0072C28.7954 31.4843 54.5613 30.7092 79.9988 30.7092C105.436 30.7092 131.201 31.4843 156.589 33.0072C156.644 33.0164 156.695 33.0165 156.741 33.0165C157.917 33.0165 158.844 32.083 158.844 30.9036V9.09598C158.844 8.51824 158.622 7.98661 158.227 7.59112C157.835 7.20232 157.31 6.98027 156.741 6.98027Z" fill="#FFEE00"/>
    <path d="M83.9262 14.0188C80.4216 14.0188 78.3946 16.2076 78.3946 20.0047C78.3946 23.3635 79.8924 25.9866 83.6224 25.9866C84.7653 25.9866 85.9062 25.6586 86.6297 25.1814L87.012 25.768H88.8934V19.8462H84.5166V21.6831H85.7604V23.2725C85.4076 23.4367 84.8632 23.5605 84.383 23.5605C82.6288 23.5605 81.7842 22.2872 81.7842 19.8829C81.7842 17.7005 82.5716 16.4422 83.748 16.4422C84.6752 16.4422 85.1183 17.0437 85.3584 18.1469L88.6721 17.5826C88.1949 15.2511 86.5225 14.0188 83.9262 14.0188ZM26.0549 14.0201C22.5742 14.0201 20.6765 16.4783 20.6765 20.0047C20.6765 23.5428 22.5742 25.9866 26.0549 25.9866C29.5369 25.9866 31.4333 23.5428 31.4333 20.0047C31.4333 16.4783 29.5368 14.0201 26.0549 14.0201ZM8.45193 14.2349V16.4789H9.62106V25.7678H13.4663C17.1837 25.7678 19.9196 24.488 19.9196 20.117C19.9196 15.3355 17.4947 14.2346 13.1217 14.2346L8.45193 14.2349ZM32.6497 14.2349V25.768H40.5395L40.6848 23.5278H35.8354V14.235L32.6497 14.2349ZM41.6838 14.2349V25.768H49.5743L49.7196 23.5278H44.8701V14.235L41.6838 14.2349ZM53.8269 14.2349L53.201 16.4789L50.1715 25.7678H53.2874L53.9067 23.6559H57.7493L58.4419 25.7678H61.7792L57.621 14.2347L53.8269 14.2349ZM62.7282 14.2349L62.7335 25.768H65.9162V21.9384H66.7738L68.0503 24.0018C68.5061 24.7316 68.8887 25.1479 69.3085 25.4551C69.7828 25.786 70.3674 25.9683 71.1453 25.9683C71.7625 25.9683 72.4945 25.7687 72.8775 25.5467L73.0752 23.4545C72.8594 23.5974 72.5344 23.7281 72.1665 23.7281C71.6923 23.7281 71.4185 23.561 71.072 23.0173L70.1451 21.5391C71.4372 21.0074 72.3119 19.8256 72.3119 17.9897C72.3119 16.5913 71.7472 15.5123 70.6164 14.8738C69.82 14.4179 68.6521 14.2349 67.05 14.2349L62.7282 14.2349ZM90.3413 14.2349V25.768H98.3357L98.481 23.5278H93.5295V21.0259H97.2438V18.8014H93.5295V16.4789H98.0673V14.2348L90.3413 14.2349ZM99.5778 14.2349V25.768H102.199V19.4822C102.293 19.7194 102.491 20.0049 102.698 20.2416L107.357 25.7679H109.363V14.2348H106.758V20.5703C106.648 20.318 106.449 20.0288 106.23 19.7703L101.523 14.2348L99.5778 14.2349ZM111.038 14.2349V25.768H119.036L119.186 23.5278H114.231V21.0259H117.939V18.8014H114.231V16.4789H118.763V14.2348L111.038 14.2349ZM120.28 14.2349V25.768H123.468V21.9384H124.319L125.599 24.0018C126.055 24.7316 126.438 25.1479 126.855 25.4551C127.332 25.786 127.912 25.9683 128.702 25.9683C129.319 25.9683 130.046 25.7687 130.429 25.5467L130.633 23.4545C130.411 23.5974 130.083 23.7281 129.718 23.7281C129.244 23.7281 128.97 23.561 128.624 23.0173L127.697 21.5391C128.989 21.0074 129.864 19.8256 129.864 17.9897C129.864 16.5912 129.302 15.5123 128.168 14.8738C127.365 14.4179 126.201 14.2349 124.596 14.2349L120.28 14.2349ZM134.748 14.2349L134.125 16.4789L131.098 25.7678H134.214L134.831 23.6559H138.683L139.375 25.7678H142.707L138.554 14.2347L134.748 14.2349ZM143.512 14.2349V25.768H151.403L151.543 23.5278H146.704V14.235L143.512 14.2349ZM26.0495 16.4631C27.3261 16.4631 28.0383 17.521 28.0383 20.0046C28.0383 22.5062 27.3261 23.5435 26.0495 23.5435C24.7742 23.5435 24.0621 22.5062 24.0621 20.0046C24.0621 17.521 24.7742 16.4631 26.0495 16.4631ZM12.8064 16.4788H13.4964C15.4479 16.4788 16.56 17.0291 16.56 19.8985C16.56 22.1756 16.1606 23.5435 13.77 23.5435H12.8064V16.4788ZM65.911 16.4788H66.8235C67.6991 16.4788 68.2672 16.5611 68.5923 16.8925C68.8659 17.1719 69.0113 17.5815 69.0113 18.1651C69.0113 19.4081 68.5223 19.9535 67.2608 19.9535H65.911V16.4788ZM123.463 16.4788H124.369C125.247 16.4788 125.813 16.5611 126.141 16.8925C126.415 17.1719 126.56 17.5815 126.56 18.1651C126.56 19.4081 126.068 19.9535 124.81 19.9535H123.463V16.4788ZM55.6783 17.011H55.7111C55.7324 17.4731 55.9303 18.0932 56.1431 18.7497L57.0399 21.5188H54.5065L55.313 18.738C55.5045 18.045 55.6569 17.4182 55.6783 17.011ZM136.601 17.011H136.638C136.662 17.4731 136.861 18.0932 137.076 18.7497L137.969 21.5188H135.44L136.237 18.738C136.441 18.045 136.583 17.4182 136.601 17.011Z" fill="#1C1B1B"/>
</svg>
