<svg width="120" height="40" viewBox="0 0 120 40" fill="none" xmlns="http://www.w3.org/2000/svg">
    <path d="M8.2389 5.91216C8.71187 6.01351 8.64431 6.35135 8.64431 6.35135C8.64431 6.35135 8.61052 18.3108 8.64431 19.9662C8.40782 21.554 5.87404 21.4189 5.87404 21.4189V5.91216C5.87404 5.91216 7.42809 5.91216 8.2389 5.91216ZM6.21187 5.13513H0.705117C0.705117 5.13513 0.164579 5.23648 0.232146 5.54054C0.299714 5.84459 0.5362 5.94594 1.07674 5.94594V21.2162L0.840255 21.4527C0.840255 21.4527 0.265929 21.4527 0.130794 21.7905C-0.00434142 22.1284 0.434846 22.2297 0.772684 22.2297C1.07674 22.2297 8.61053 22.2297 8.61053 22.2297C8.61053 22.2297 13.374 22.027 13.374 18.8851C13.374 15.7432 13.374 8.20946 13.374 8.20946C13.374 8.20946 12.7321 5.23648 9.59025 5.13513C6.44836 5.13513 6.21187 5.13513 6.21187 5.13513Z" fill="#00205B"/>
    <path d="M16.4823 14.527C17.1917 14.527 17.7661 13.9865 17.7661 13.3108C17.7661 12.6351 17.1917 12.0946 16.4823 12.0946C15.7728 12.0946 15.1985 12.6351 15.1985 13.3108C15.1985 13.9865 15.7728 14.527 16.4823 14.527Z" fill="#00205B"/>
    <path d="M34.5228 14.527C35.2323 14.527 35.8066 13.9865 35.8066 13.3108C35.8066 12.6351 35.2323 12.0946 34.5228 12.0946C33.8133 12.0946 33.239 12.6351 33.239 13.3108C33.2728 13.9865 33.8471 14.527 34.5228 14.527Z" fill="#00205B"/>
    <path d="M28.6444 5.20269C29.5228 5.20269 31.1106 6.68917 31.2457 7.87161C31.3471 8.64863 31.3809 9.62836 31.3809 10.304C31.3809 12.8716 28.9822 13.4797 28.9822 13.4797C29.3876 13.6148 30.2998 13.6486 31.1106 14.1554C31.9214 14.6284 32.1241 15.7432 32.1241 15.7432V21.25L32.3606 21.4527C32.3606 21.4527 33.07 21.4527 33.1714 21.4527C33.3065 21.4527 33.3741 21.4189 33.4079 21.7567C33.4417 22.2297 33.0025 22.1959 33.0025 22.1959C33.0025 22.1959 28.543 22.1959 28.0025 22.1959C27.4619 22.1959 27.0565 21.25 27.0565 21.25C27.0565 21.25 27.0565 15.2365 27.0565 14.7635C27.0565 14.2567 26.0768 14.1892 26.0768 14.1892H24.4552V21.2162L24.5903 21.3851C24.5903 21.3851 25.0971 21.3851 25.1984 21.3851C25.2998 21.3851 25.5025 21.2838 25.5025 21.723C25.5363 22.2297 25.2998 22.0946 25.2998 22.0946C25.2998 22.0946 19.0836 22.0946 18.9146 22.0946C18.7457 22.0946 18.6106 22.0608 18.6106 21.7905C18.6106 21.554 18.9146 21.3851 18.9146 21.3851H19.3538L19.6917 21.0473V6.11485L19.4552 5.91215C19.4552 5.91215 19.3201 5.91215 18.9484 5.91215C18.5768 5.91215 18.7457 5.77701 18.7457 5.43917C18.7119 5.13512 19.0498 5.20269 19.0498 5.20269H28.6444ZM25.6038 5.91215H24.489V13.277H26.5498C26.5498 13.277 27.0565 13.2432 27.0565 12.6013C27.0565 11.9594 27.0565 6.38512 27.0565 6.38512C27.0565 6.38512 26.9214 5.87836 26.3809 5.87836C25.8741 5.91215 25.6038 5.91215 25.6038 5.91215Z" fill="#00205B"/>
    <path d="M76.1106 5.20269C76.989 5.20269 78.5768 6.68917 78.712 7.87161C78.8133 8.64863 78.8471 9.62836 78.8471 10.304C78.8471 12.8716 76.4822 13.4797 76.4822 13.4797C76.8876 13.6148 77.7998 13.6486 78.6106 14.1554C79.4214 14.6284 79.6241 15.7432 79.6241 15.7432V21.25L79.8606 21.4527C79.8606 21.4527 80.5701 21.4527 80.6714 21.4527C80.8065 21.4527 80.8741 21.4189 80.9079 21.7567C80.9417 22.2297 80.5025 22.1959 80.5025 22.1959C80.5025 22.1959 76.043 22.1959 75.5363 22.1959C74.9957 22.1959 74.5903 21.25 74.5903 21.25C74.5903 21.25 74.5903 15.2365 74.5903 14.7635C74.5903 14.2567 73.5768 14.1892 73.5768 14.1892H71.9552V21.2162L72.0903 21.3851C72.0903 21.3851 72.5971 21.3851 72.6984 21.3851C72.7998 21.3851 73.0025 21.2838 73.0025 21.723C73.0363 22.2297 72.7998 22.0946 72.7998 22.0946C72.7998 22.0946 66.6174 22.0946 66.4147 22.0946C66.2457 22.0946 66.1106 22.0608 66.1106 21.7905C66.1106 21.554 66.4147 21.3851 66.4147 21.3851H66.8538L67.1917 21.0473V6.11485L66.9552 5.91215C66.9552 5.91215 66.8201 5.91215 66.4484 5.91215C66.0768 5.91215 66.2457 5.77701 66.212 5.43917C66.1782 5.13512 66.516 5.20269 66.516 5.20269H76.1106ZM73.0701 5.91215H71.9552V13.277H74.016C74.016 13.277 74.5228 13.2432 74.5228 12.6013C74.5228 11.9594 74.5228 6.38512 74.5228 6.38512C74.5228 6.38512 74.3876 5.87836 73.8471 5.87836C73.3065 5.91215 73.0701 5.91215 73.0701 5.91215Z" fill="#00205B"/>
    <path d="M44.2187 14.2568H45.2998L45.5363 14.4595C45.5363 14.4595 45.5025 21.6554 45.5363 21.9257C45.57 22.1959 45.7727 22.2297 45.7727 22.2297C45.7727 22.2297 50.7052 22.2297 51.0092 22.2297C51.3133 22.2297 51.4484 22.027 51.4484 21.9257C51.4484 21.8243 51.4146 21.4527 50.8741 21.4527C50.3336 21.4527 50.4011 21.0811 50.4011 21.0811C50.4011 21.0811 50.3673 6.38513 50.4011 6.14865C50.4349 5.91216 50.4011 5.87837 50.8403 5.87837C51.2795 5.87837 51.3471 5.77702 51.3471 5.54054C51.3471 5.30405 51.0092 5.13513 51.0092 5.13513C51.0092 5.13513 45.8741 5.13513 45.7052 5.13513C45.5363 5.13513 45.5025 5.43918 45.5025 5.43918V12.6013L45.266 12.8378H44.1849H42.8336L42.5971 12.6013V5.43918C42.5971 5.43918 42.5633 5.13513 42.3944 5.13513C42.2254 5.13513 37.0903 5.13513 37.0903 5.13513C37.0903 5.13513 36.7525 5.30405 36.7525 5.54054C36.7525 5.77702 36.82 5.87837 37.2592 5.87837C37.6984 5.87837 37.6646 5.91216 37.6984 6.14865C37.7322 6.38513 37.6984 21.0811 37.6984 21.0811C37.6984 21.0811 37.7322 21.4527 37.2254 21.4527C36.7187 21.4527 36.6511 21.8243 36.6511 21.9257C36.6511 22.027 36.7863 22.2297 37.0903 22.2297C37.3944 22.2297 42.3268 22.2297 42.3268 22.2297C42.3268 22.2297 42.5295 22.1959 42.5633 21.9257C42.5971 21.6554 42.5633 14.4595 42.5633 14.4595L42.7998 14.2568H44.2187Z" fill="#00205B"/>
    <path d="M58.7794 22.2973C55.8065 22.2973 54.9281 21.8581 53.8808 20.8784C52.8673 19.8987 52.6984 18.0068 52.6308 17.196C52.5632 16.419 52.5632 15.8784 52.5632 13.1081C52.5632 10.9122 52.7321 9.79733 53.1038 8.27706C53.5767 6.28382 54.4213 5.91219 55.4686 5.43922C56.4821 4.96625 58.8808 4.93247 58.8808 4.93247L59.2186 4.89868C59.2186 4.89868 61.3808 4.96625 62.3943 5.43922C63.4416 5.91219 64.2862 6.3176 64.7592 8.27706C65.1308 9.79733 65.2997 10.9122 65.2997 13.1081C65.2997 15.8784 65.2997 16.3852 65.2322 17.196C65.1646 17.973 65.0294 19.8649 63.9821 20.8784C62.9686 21.8581 62.1578 22.2973 59.1848 22.2973H58.7794ZM58.9822 21.7906C60.7727 21.7906 60.5024 20.8446 60.5024 20.8446C60.5024 20.8446 60.5024 7.12841 60.5024 6.75679C60.5024 5.47301 59.4551 5.40544 59.0497 5.40544H58.8132C58.4416 5.40544 57.2592 5.47301 57.2592 6.75679C57.2592 7.12841 57.2592 20.8446 57.2592 20.8446C57.2592 20.8446 56.9551 21.7906 58.7457 21.7906H58.9822Z" fill="#00205B"/>
    <path d="M96.5497 22.2973C93.5767 22.2973 92.6984 21.8581 91.6511 20.8784C90.6375 19.8987 90.4686 18.0068 90.4011 17.196C90.3335 16.419 90.3335 15.8784 90.3335 13.1081C90.3335 10.9122 90.5024 9.79733 90.874 8.27706C91.347 6.28382 92.1916 5.91219 93.2389 5.43922C94.2524 4.96625 96.6511 4.93247 96.6511 4.93247L96.9889 4.89868C96.9889 4.89868 99.1511 4.96625 100.165 5.43922C101.212 5.91219 102.056 6.3176 102.529 8.27706C102.901 9.79733 103.07 10.9122 103.07 13.1081C103.07 15.8784 103.07 16.3852 103.002 17.196C102.935 17.973 102.766 19.8649 101.752 20.8784C100.739 21.8581 99.9281 22.2973 96.9213 22.2973H96.5497ZM96.7862 21.7906C98.5429 21.7906 98.3065 20.8446 98.3065 20.8446C98.3065 20.8446 98.3065 7.12841 98.3065 6.75679C98.3065 5.47301 97.2254 5.40544 96.8538 5.40544H96.6173C96.2456 5.40544 95.0632 5.47301 95.0632 6.75679C95.0632 7.12841 95.0632 20.8446 95.0632 20.8446C95.0632 20.8446 94.7592 21.7906 96.5497 21.7906H96.7862Z" fill="#00205B"/>
    <path d="M85.1308 5.16895H90.9753C90.9753 5.16895 91.2118 5.37165 91.2118 5.54057C91.2118 5.70949 91.2118 7.33111 91.2118 7.33111C91.2118 7.33111 91.178 7.73651 90.8402 7.73651C90.5024 7.7703 90.4348 7.60138 90.4348 7.26354C90.401 6.89192 90.4348 6.723 90.4348 6.723H87.6645C87.6645 6.723 87.3267 6.68922 87.3267 6.99327C87.3267 7.29732 87.3267 21.1149 87.3267 21.1149C87.3267 21.1149 87.2929 21.4527 87.901 21.4527C88.2389 21.4527 88.2389 21.5879 88.2389 21.8243C88.2389 22.0608 88.1375 22.196 87.8672 22.196C87.597 22.196 85.1308 22.196 85.1308 22.196C85.1308 22.196 82.124 22.196 81.8537 22.196C81.5834 22.196 81.4821 22.0608 81.4821 21.8243C81.4821 21.5879 81.4483 21.4527 81.7862 21.4527C82.3943 21.4527 82.3605 21.1149 82.3605 21.1149C82.3605 21.1149 82.3605 7.26354 82.3605 6.99327C82.3605 6.68922 82.0226 6.723 82.0226 6.723H79.2524C79.2524 6.723 79.2862 6.9257 79.2524 7.26354C79.2186 7.63516 79.151 7.80408 78.847 7.73651C78.5091 7.70273 78.4753 7.33111 78.4753 7.33111C78.4753 7.33111 78.4753 5.6757 78.4753 5.54057C78.4753 5.37165 78.7118 5.16895 78.7118 5.16895H85.1308Z" fill="#00205B"/>
    <path d="M111.381 22.2298H115.232V6.11495C115.232 6.11495 115.131 5.87847 115.638 5.87847C116.144 5.87847 116.144 5.57441 116.144 5.43928C116.144 5.30414 115.942 5.10144 115.705 5.10144C115.435 5.10144 113.509 5.10144 113.509 5.10144C113.509 5.10144 113.171 5.10144 113.171 5.47306C113.171 5.77712 113.273 5.91225 113.442 5.91225C113.611 5.91225 113.915 5.87847 113.948 6.14874C113.982 6.52036 113.948 15.9798 113.948 15.9798L109.861 6.04739C109.861 6.04739 109.962 5.87847 110.266 5.87847C110.57 5.87847 110.739 5.70955 110.739 5.43928C110.739 5.16901 110.57 5.10144 110.435 5.10144C110.3 5.10144 104.219 5.10144 104.219 5.10144C104.219 5.10144 103.881 5.23658 103.881 5.47306C103.881 5.70955 103.881 5.84469 104.151 5.84469C104.421 5.84469 104.725 5.91225 104.725 6.04739C104.725 6.18252 104.725 21.2163 104.725 21.2163C104.725 21.2163 104.827 21.4528 104.32 21.4528C103.813 21.4528 103.813 21.7568 103.813 21.892C103.813 22.0271 104.016 22.2298 104.252 22.2298C104.523 22.2298 106.448 22.2298 106.448 22.2298C106.448 22.2298 106.786 22.2298 106.786 21.8582C106.786 21.5541 106.685 21.419 106.516 21.419C106.347 21.419 106.043 21.4528 106.009 21.1825C105.975 20.8447 106.009 8.75009 106.009 8.75009L111.381 22.2298Z" fill="#00205B"/>
    <path d="M118.61 7.93915C117.935 7.93915 117.327 7.46618 117.327 6.65537C117.327 5.84456 117.935 5.37158 118.61 5.37158C119.286 5.37158 119.894 5.84456 119.894 6.65537C119.894 7.46618 119.286 7.93915 118.61 7.93915ZM118.61 5.64185C118.104 5.64185 117.698 6.04726 117.698 6.62158C117.698 7.22969 118.104 7.60131 118.61 7.60131C119.117 7.60131 119.523 7.19591 119.523 6.62158C119.523 6.04726 119.117 5.64185 118.61 5.64185ZM118.374 7.33104H118.07V5.94591H118.577C118.948 5.94591 119.151 6.04726 119.151 6.35131C119.151 6.62158 119.016 6.68915 118.813 6.72293L119.151 7.33104H118.813L118.509 6.75672H118.374V7.33104ZM118.644 6.52023C118.779 6.52023 118.847 6.48645 118.847 6.35131C118.847 6.21618 118.678 6.18239 118.577 6.18239H118.374V6.52023H118.644Z" fill="#00205B"/>
    <path d="M116.55 0H0.130859V1.18243H116.55V0Z" fill="#00205B"/>
    <path d="M16.0768 35.7094C16.0092 35.7094 15.9754 35.777 15.9416 35.8784C15.8403 36.1486 15.6714 36.4189 15.4349 36.723C15.1984 36.9932 14.9619 37.2635 14.6917 37.5C14.4214 37.7365 14.1511 37.9054 13.8808 38.0405C13.8133 37.6351 13.7795 37.2297 13.7795 36.7905C13.8133 35.7432 13.9146 34.5946 14.0835 33.3446L14.1173 33.0067V32.9392L15.0633 32.8378L16.043 32.7365H16.2119C16.4484 32.7027 16.5498 32.6351 16.4822 32.5C16.4484 32.3986 16.3133 32.3311 16.1444 32.2973C15.9079 32.2635 15.2998 32.2635 14.32 32.2973H14.2187L14.2525 32.2297L14.4552 31.0135C14.5565 30.4054 14.7254 29.6621 14.9281 28.7162C14.9957 28.4121 14.9957 28.1757 14.9281 28.0067C14.8268 27.7703 14.6579 27.5676 14.3876 27.3648C14.1173 27.1621 13.9146 27.0608 13.7119 27.0608C13.6106 27.0608 13.5092 27.1284 13.3403 27.2297L13.1714 27.3648C12.9687 27.5338 12.6646 27.7365 12.3268 28.0405C11.9552 28.3446 11.5498 28.6824 11.1106 29.0878L9.32003 30.6419L7.293 32.4662C7.25922 32.4662 7.22544 32.5 7.15787 32.5675H7.05652C6.58354 32.6013 6.043 32.6351 5.53624 32.6351C5.02949 32.6351 4.65787 32.6351 4.45516 32.6351C4.25246 32.6013 4.04976 32.6351 3.81327 32.5338C3.98219 32.8378 4.11733 33.0743 4.21868 33.2432C4.32003 33.4121 4.42138 33.4797 4.52273 33.5811C4.62408 33.6824 4.75922 33.75 4.92814 33.8175C5.06327 33.8851 5.23219 33.8851 5.36733 33.8851C5.43489 33.8851 5.53625 33.8851 5.73895 33.8513L6.07679 33.8175H6.14435L6.11057 33.8513C5.87408 34.1216 5.60381 34.3919 5.33354 34.6284C5.23219 34.7297 5.09706 34.8648 4.89435 35.0338C4.72544 35.2027 4.45516 35.4392 4.18489 35.7432C3.98219 35.9459 3.77949 36.1486 3.61057 36.2838C3.44165 36.4527 3.30651 36.554 3.23895 36.6554C1.44841 38.3446 0.806514 37.973 0.367325 38.6486C0.23219 38.8851 0.502463 39.3581 0.840301 39.6284C1.17814 39.8986 1.75246 40 2.02273 40C2.22544 40 2.42814 39.9324 2.66462 39.7973C2.83354 39.6621 3.10381 39.4257 3.40787 39.0878C3.77949 38.6824 6.043 36.0135 5.19841 36.9932C4.96192 37.2973 5.46868 36.7567 6.58354 35.304L7.293 34.4257L8.00246 33.5473L9.28625 33.4121L10.57 33.277L11.4822 33.1757L12.3943 33.0743L12.2254 34.1892L12.0565 35.304C11.8876 36.3851 11.8538 37.1621 11.9552 37.7027C11.9889 37.9054 12.0227 38.0743 12.0903 38.1757C12.1916 38.4121 12.3606 38.6486 12.5633 38.8851C12.7998 39.1554 13.0362 39.3581 13.2727 39.527C13.543 39.6959 13.7457 39.7635 13.9146 39.7635C14.0835 39.7635 14.2187 39.6621 14.3876 39.527C15.2322 38.5811 15.8403 37.5 16.2119 36.25C16.2457 36.0811 16.2795 35.9797 16.2457 35.9121C16.2457 35.7432 16.1781 35.7094 16.0768 35.7094ZM13.3065 29.1892C13.2052 29.6284 13.1038 30.0675 13.0025 30.5405L12.8335 31.4189L12.6308 32.2635L11.4146 32.2973L10.1984 32.3311L9.45517 32.3648L8.71192 32.3986L8.7457 32.3311C9.48895 31.4527 10.5025 30.473 11.7525 29.3243C12.0903 29.0202 12.3944 28.75 12.6646 28.5473C12.9349 28.3446 13.2727 28.1419 13.6444 27.9054C13.5092 28.3446 13.4079 28.75 13.3065 29.1892Z" fill="#00205B"/>
    <path d="M39.0496 34.054C39.1172 33.8513 39.2861 33.6148 39.5564 33.2432L39.9618 32.7364C40.0631 32.5675 40.0969 32.4324 40.0631 32.2973C39.9956 32.1283 39.8942 31.9932 39.7253 31.8581C39.5564 31.7567 39.3874 31.6891 39.2523 31.6891C39.0834 31.6891 38.8807 31.7567 38.678 31.8919C38.4753 32.027 38.1037 32.331 37.6307 32.7702L36.5496 33.7162C36.3807 33.8513 36.2118 34.0202 36.0091 34.2229C35.8064 34.4256 35.5361 34.6959 35.232 35C35.4348 34.4932 35.6712 34.0878 35.9077 33.7837L36.5834 32.8378C36.7185 32.6689 36.7185 32.5 36.651 32.331C36.5834 32.1621 36.4821 31.9932 36.3131 31.8919C36.178 31.7905 36.0091 31.7229 35.8402 31.7229C35.7388 31.7229 35.6712 31.7229 35.6375 31.7567C35.6037 31.7905 35.5361 31.8581 35.4348 32.027L35.2996 32.2973C35.0293 32.7027 34.5226 33.3783 33.3739 34.2567C33.0699 34.4932 31.6847 35.5743 30.9753 35.8783C30.0631 36.25 29.5902 36.25 29.0496 36.1824C28.8469 36.1486 28.5766 35.9797 28.4753 35.8446C28.3402 35.6756 28.3064 35.5405 28.4077 35.2702C28.5091 35 28.678 34.6283 28.8131 34.6621C29.2185 34.7973 29.5902 35 30.2996 35.0337C30.9415 35.0675 31.2118 34.9324 31.5496 34.7297C31.8875 34.5608 32.2591 34.2567 32.5293 33.8851C32.8334 33.4459 33.0023 33.0743 32.901 32.6689C32.8672 32.5337 32.7996 32.3648 32.6645 32.2297C32.4956 32.0946 32.3266 31.9594 32.1239 31.8919C31.8875 31.8243 31.651 31.8243 31.5158 31.8243C31.2118 31.8243 30.9077 31.8581 30.3672 32.0946C29.8266 32.331 29.3537 32.6013 28.9145 32.9392C28.3739 33.3446 27.9685 33.7837 27.6983 34.2567C27.5969 34.2567 27.4618 34.2905 27.3266 34.3243C26.5158 34.4594 25.8402 34.7297 25.2658 35.1351C25.5699 34.3243 25.9753 33.5473 26.5496 32.7364C26.651 32.6013 26.651 32.4662 26.5834 32.331C26.5158 32.1621 26.4145 32.027 26.2456 31.8919C26.1104 31.7905 25.9415 31.7229 25.7726 31.7229C25.6712 31.7229 25.5361 31.7905 25.3672 31.8919C25.0969 32.0946 24.6577 32.4324 24.0834 32.9392L22.9685 33.8851C22.5631 34.2567 22.1915 34.6283 21.8537 35C21.9212 34.831 22.0226 34.5946 22.1239 34.3581C22.1915 34.1892 22.2591 34.054 22.3266 33.9527C22.3942 33.8513 22.4618 33.7162 22.5293 33.6148C22.5969 33.4797 22.7996 33.1756 23.0699 32.7364C23.205 32.5337 23.2388 32.3648 23.205 32.2297C23.1375 32.0946 23.0361 31.9594 22.901 31.8581C22.732 31.7567 22.5969 31.6891 22.428 31.6891C22.2929 31.6891 22.1239 31.7567 21.9212 31.8919C21.482 32.1959 20.8739 32.7027 20.0969 33.3783C19.4888 33.8851 18.8807 34.4594 18.3064 35.0675C18.5766 34.4932 18.8131 34.0878 19.0496 33.6824L19.2185 33.3446C19.3875 32.9729 19.3537 32.9054 19.455 32.5675C19.4888 32.5 19.5564 32.1621 19.4888 31.8919C19.455 31.7567 19.3875 31.6216 19.2523 31.4864C19.1848 31.4527 19.1172 31.3851 18.982 31.3513C18.8807 31.3175 18.6442 31.25 18.6104 31.4189C18.5766 31.5202 19.3199 31.5202 18.7456 32.3648L17.9348 33.3783C17.4956 33.9527 17.1239 34.5946 16.7861 35.3378C16.5158 35.9459 16.4483 36.3851 16.5496 36.6216C16.6172 36.7567 16.7523 36.9256 16.9212 37.0608C17.1239 37.1959 17.2929 37.2635 17.428 37.2635C17.5294 37.2635 17.5969 37.2635 17.6307 37.2297C17.6645 37.1959 17.732 37.0946 17.7996 36.9594C18.1712 36.2162 18.6104 35.5405 19.1172 34.9324C19.6239 34.3581 20.1645 33.9189 20.6712 33.6824C20.8064 33.6148 20.8739 33.6148 20.9077 33.6148C20.9415 33.6148 20.9753 33.6148 21.0091 33.6486C21.0091 33.6824 21.0091 33.7162 20.9753 33.7837L20.9077 33.8851L20.8402 33.9864C20.3334 34.9324 20.0631 35.7094 19.9956 36.2837C19.9956 36.4189 19.9956 36.5202 20.0293 36.5878C20.0969 36.7229 20.2321 36.8919 20.4685 37.0608C20.6712 37.1959 20.8064 37.2635 20.9753 37.2635C21.0766 37.2635 21.178 37.1959 21.2456 37.0608C21.482 36.3851 21.8875 35.7432 22.4956 35.0337C23.1037 34.3581 23.6442 33.8851 24.151 33.6824C24.3199 33.6148 24.3875 33.581 24.455 33.581C24.5226 33.581 24.5564 33.6148 24.5564 33.6486C24.5564 33.6824 24.5564 33.7162 24.5226 33.75L24.455 33.8513C24.3199 34.0878 24.151 34.4256 23.9821 34.8648C23.8131 35.304 23.678 35.6419 23.6442 35.8783C23.5766 36.1824 23.5766 36.4189 23.6442 36.5878C23.7118 36.7229 23.8469 36.8919 24.0496 37.027C24.2523 37.1621 24.455 37.2297 24.6239 37.2297C24.6915 37.2297 24.7591 37.2297 24.7929 37.1959C24.8266 37.1621 24.8604 37.0946 24.8942 37.027C24.8942 36.9932 24.928 36.9594 24.9618 36.8919C24.9956 36.8243 25.0293 36.7567 25.0631 36.6554C25.3334 36.0473 25.6037 35.6419 25.9077 35.3716C26.178 35.1351 26.5158 34.9324 26.8875 34.7973C27.0564 34.7297 27.2591 34.6621 27.428 34.6283C27.2253 35.1351 27.1577 35.6419 27.3266 35.9797C27.4618 36.2837 27.6645 36.6891 28.2388 36.9594C28.6442 37.1283 29.4212 37.1283 30.0631 36.9932C31.0091 36.7905 31.5496 36.3175 31.955 35.9797C32.3942 35.6419 33.2388 34.8648 33.5429 34.5946C33.8131 34.3919 34.1848 33.9527 34.5902 33.6486C34.1172 34.4256 33.7456 35.2027 33.4077 36.0473C33.3402 36.25 33.3064 36.4189 33.3739 36.554C33.4415 36.6892 33.5766 36.8243 33.7793 36.9932C33.9821 37.1621 34.1848 37.2297 34.3199 37.2297C34.455 37.2297 34.5902 37.0946 34.7591 36.7905C35.232 35.8446 35.8064 35.0675 36.4483 34.4594C36.8875 34.054 37.428 33.7162 38.0699 33.4459C37.901 33.75 37.8672 33.9527 37.901 34.054C37.9685 34.2229 38.1375 34.3581 38.3739 34.4932C38.6442 34.6283 38.9145 34.7297 39.2523 34.7635C39.1847 34.6959 39.151 34.5946 39.1172 34.527C38.982 34.4256 38.9821 34.2567 39.0496 34.054ZM30.6037 33.1419C31.1104 32.9054 31.4821 32.7702 31.7523 32.7702C31.8537 32.7702 31.9212 32.804 31.955 32.8716C31.9888 32.9729 31.955 33.1756 31.7861 33.4459C31.6172 33.7162 31.3469 34.2567 30.6712 34.4932C30.0631 34.6959 29.2185 34.5946 28.982 34.3919C29.3199 34.0878 30.0969 33.4121 30.6037 33.1419Z" fill="#00205B"/>
    <path d="M116.178 32.1959C116.11 32.027 116.009 31.8918 115.84 31.7567C115.671 31.6554 115.502 31.5878 115.367 31.5878C115.198 31.5878 114.996 31.6554 114.793 31.7905C114.59 31.9256 114.219 32.2297 113.746 32.6689L112.664 33.6148C112.496 33.75 112.327 33.9189 112.124 34.1216C111.921 34.3243 111.651 34.5945 111.347 34.8986C111.55 34.3918 111.786 33.9864 112.023 33.6824L112.698 32.7364C112.833 32.5675 112.833 32.3986 112.766 32.2297C112.698 32.0608 112.563 31.8918 112.428 31.7905C112.293 31.6891 112.124 31.6216 111.955 31.6216C111.854 31.6216 111.786 31.6216 111.752 31.6554C111.719 31.6891 111.651 31.7567 111.55 31.9256L111.414 32.1959C111.144 32.6013 110.637 33.277 109.489 34.1554C109.185 34.3918 107.8 35.4729 107.09 35.777C106.178 36.1486 105.705 36.1486 105.164 36.081C104.962 36.0472 104.691 35.8783 104.59 35.7432C104.455 35.5743 104.421 35.4391 104.523 35.1689C104.624 34.8986 104.793 34.527 104.928 34.5608C105.333 34.6959 105.705 34.8986 106.414 34.9324C107.056 34.9662 107.327 34.831 107.664 34.6283C108.002 34.4594 108.374 34.1554 108.644 33.7837C108.948 33.3445 109.117 32.9729 109.016 32.5675C108.982 32.4324 108.914 32.2635 108.779 32.1283C108.61 31.9932 108.441 31.8581 108.239 31.7905C108.002 31.7229 107.766 31.7229 107.631 31.7229C107.327 31.7229 107.023 31.7905 106.482 31.9932C105.941 32.2297 105.469 32.5 105.029 32.8378C104.523 33.2094 104.117 33.6486 103.847 34.0878C103.746 34.0878 103.61 34.1216 103.441 34.1554C103.137 34.1891 102.901 34.2567 102.732 34.2905C102.191 34.4256 101.651 34.6621 101.077 34.9662C101.178 34.6283 101.313 34.3581 101.414 34.1216C101.55 33.8851 101.719 33.581 101.955 33.2432C102.563 32.331 103.948 31.1824 104.556 30.5405L105.874 29.054C106.043 28.8851 106.246 28.6148 106.144 28.4459C106.009 28.2094 105.806 28.1756 105.637 28.1756C105.502 28.1756 105.232 28.3783 105.063 28.5473C104.421 29.0878 103.644 29.7972 103.644 29.7972C103.104 30.3378 101.516 31.7567 101.178 32.2297L101.144 32.2635C101.043 32.0608 100.874 31.8918 100.671 31.7905C100.469 31.6891 100.232 31.6216 99.9618 31.6216C99.7928 31.6216 99.5901 31.6554 99.3537 31.7229C98.8469 31.8918 98.3401 32.1621 97.7996 32.5C97.3942 32.7364 97.0226 33.0067 96.651 33.3108C95.9753 33.6148 95.2996 33.9527 95.232 34.0202C94.7591 34.2567 93.8807 34.6959 93.3064 34.9662C93.4753 34.4256 93.7793 33.8513 94.1847 33.2432C94.3536 32.9729 94.5564 32.6689 94.7928 32.3986C95.0293 32.0945 95.232 31.8243 95.4685 31.554C95.6712 31.2837 95.8739 31.081 96.0428 30.9121L96.955 29.9662C97.1239 29.7972 97.3604 29.5945 97.2928 29.4256C97.259 29.3581 97.2253 29.3243 97.1915 29.2567C97.0564 29.1216 96.955 29.1216 96.8199 29.1216C96.6847 29.1216 96.5496 29.2229 96.3807 29.3581C96.1442 29.5608 95.2996 30.1689 93.3064 32.4662C93.1712 32.6351 93.0361 32.804 92.9347 32.9729C92.4955 33.3108 91.8874 33.7837 91.178 34.2229C90.2658 34.831 89.455 35.4054 89.4888 35.3378C89.6239 34.831 90.1307 33.8851 90.3672 33.4797L90.4347 33.3783C90.705 33.0067 90.8401 32.804 90.8739 32.7364C90.9753 32.6013 91.0428 32.5 91.0428 32.4324C91.0428 32.3648 91.0428 32.2972 91.0091 32.1621C90.9415 32.027 90.8401 31.8918 90.7388 31.7567C90.6037 31.6554 90.4685 31.5878 90.3672 31.5878C90.2658 31.5878 90.1307 31.6554 90.0293 31.7905L89.3537 32.8378C88.9145 33.1418 88.205 33.6824 87.4955 34.1891C86.5834 34.831 86.3469 35.0337 85.8064 35.304C85.8064 35.304 85.5699 35.5067 85.8401 34.9999C85.8739 34.9324 86.2793 34.0878 86.5834 33.6486C86.6172 33.581 86.6847 33.5135 86.7185 33.4459C86.7523 33.3783 86.8199 33.277 86.8874 33.2094C86.955 33.1081 86.9888 33.0405 87.0226 33.0067C87.2253 32.6689 87.3604 32.5 87.3604 32.5C87.3942 32.3986 87.3942 32.2972 87.3604 32.2297C87.3266 32.0945 87.1915 31.9594 86.9888 31.8243C86.7861 31.6891 86.6172 31.6216 86.4482 31.6216C86.3131 31.6216 86.2118 31.6891 86.1104 31.8581C85.8064 32.2972 85.6037 32.6351 85.4347 32.8716C85.2658 33.1081 85.0631 33.3783 84.8266 33.6486C84.5901 33.9189 84.4212 34.1216 84.2861 34.2567C84.151 34.3918 83.9482 34.5945 83.6442 34.8648C83.4753 35 83.2726 35.1689 83.0361 35.3716C82.7996 35.5743 82.5969 35.7094 82.428 35.777C82.3604 35.8108 82.2928 35.8445 82.2253 35.8445C82.1577 35.8445 82.0901 35.8108 82.0901 35.7432C82.0564 35.6418 82.1239 35.3716 82.2928 34.9662C82.4955 34.5608 82.732 34.1216 83.0699 33.6486C83.2388 33.4121 83.3739 33.1756 83.5091 32.9729C83.6442 32.7702 83.7118 32.6351 83.7455 32.5675C83.7793 32.5 83.7793 32.4324 83.7793 32.3986C83.7793 32.3648 83.7793 32.2972 83.7455 32.2297C83.678 32.0608 83.5766 31.9256 83.4077 31.8243C83.2388 31.6891 83.1037 31.6554 82.9685 31.6554C82.8334 31.6554 82.6982 31.7229 82.5631 31.8918L81.7523 33.3108C81.482 33.6824 81.2793 34.054 81.1104 34.4256C80.8401 34.2905 80.4685 34.1554 79.9618 34.054C79.9618 33.9189 80.232 33.277 79.5226 32.5337C78.3739 31.3513 76.3469 31.554 76.3469 31.554C80.0293 29.8648 77.6645 27.8378 75.4347 27.7702C71.2793 27.6689 68.7118 30.8108 68.7118 30.8108C75.4685 26.1486 76.4145 29.4256 76.4145 29.4256C76.6172 29.9662 76.1442 30.8445 75.0293 31.2837C74.5226 31.4864 74.3536 31.5202 73.8807 31.6554C73.6104 31.7229 73.0023 31.8581 72.8672 31.8918C72.2591 31.9932 71.8537 32.0608 71.651 32.0945H71.5834L71.6172 32.0608C71.6847 31.9932 71.7523 31.8918 71.8199 31.7567C71.9212 31.6216 71.9888 31.5202 72.0226 31.4527C72.3604 30.9797 72.5969 30.6756 72.6982 30.5743C72.8334 30.4054 72.8672 30.2364 72.8334 30.1351C72.7996 30 72.5969 29.831 72.2253 29.6621C72.0564 29.5608 71.9212 29.527 71.8199 29.527C71.6847 29.527 71.5496 29.6283 71.3807 29.7972C70.9077 30.3716 70.5023 30.9121 70.1307 31.4864C69.7928 32.027 69.455 32.5675 69.1509 33.1081C68.8469 33.6486 68.5766 34.1554 68.3739 34.6283L68.3401 34.6959C67.4955 34.8986 66.8537 35.1351 66.3469 35.4391C65.8064 35.777 65.6036 36.1824 65.8064 36.6554C65.9415 36.9932 66.178 37.3648 66.5158 37.7364C66.8537 38.1081 67.2253 38.4121 67.5969 38.6486C68.1037 38.9189 68.5766 39.0878 69.0834 39.0878C70.4685 39.0878 72.1577 38.7837 74.151 38.1418C75.1307 37.8378 75.9415 37.5337 76.6172 37.2297C77.2591 36.9256 77.8672 36.5878 78.3739 36.1824C78.7455 35.9121 79.0496 35.6081 79.3537 35.2702C79.6577 34.9324 79.8266 34.6621 79.8604 34.4594H79.928C80.3334 34.527 80.6712 34.5945 80.8739 34.6621H80.9077C80.8401 34.7972 80.8064 34.8986 80.7388 34.9999C80.5699 35.4054 80.4685 35.6756 80.4347 35.8445C80.401 36.0135 80.4009 36.1486 80.4685 36.2837C80.5699 36.4864 80.7388 36.6891 80.9753 36.8918C81.2118 37.0945 81.4482 37.1959 81.6509 37.1959C81.7861 37.1959 81.955 37.1283 82.1239 36.9932C82.6307 36.5878 83.1712 36.0472 83.7455 35.4054L84.5226 34.5608C84.5563 34.527 84.6239 34.4594 84.7591 34.3581C84.5226 34.8648 84.3199 35.3378 84.2185 35.7432C84.0834 36.1486 84.0834 36.4189 84.1172 36.554C84.1172 36.554 84.3537 36.8581 84.5901 37.027C84.8266 37.1959 84.9955 37.2635 85.1307 37.2635C85.1982 37.2635 85.2658 37.2297 85.2996 37.1959C85.3334 37.1621 85.5023 37.0608 85.6037 36.8918C85.9415 36.4527 86.2118 36.1486 86.3131 36.0135C86.5834 35.6756 86.6847 35.5405 86.955 35.304C87.6645 34.5608 88.2388 34.1891 88.7455 33.8175C88.4753 34.2905 88.3064 34.6283 88.1712 34.8986C88.0023 35.2364 87.9009 35.6418 87.7996 36.081C87.7658 36.3175 87.7658 36.4864 87.7996 36.5878C87.8672 36.7229 88.0023 36.8581 88.2726 37.027C88.5091 37.1621 88.678 37.2635 88.8131 37.2635C88.8807 37.2635 88.9482 37.2297 88.982 37.1959C89.0158 37.1621 89.1509 37.0608 89.2861 36.8918C89.6239 36.4527 89.8942 36.1486 89.9955 36.0135C90.2658 35.6756 90.3672 35.5405 90.6374 35.2702C91.3131 34.5608 91.8537 34.1891 92.3604 33.8513C92.2928 34.0202 92.1915 34.1891 92.1239 34.3243C91.8199 34.8986 91.6172 35.4729 91.482 36.0472C91.4145 36.25 91.4482 36.4189 91.482 36.554C91.5496 36.6891 91.6847 36.8581 91.955 36.9932C92.1915 37.1283 92.3604 37.2297 92.4955 37.2297C92.5631 37.2297 92.6307 37.1959 92.6645 37.1621C92.6982 37.1283 92.7996 37.0608 92.901 36.8918C93.2388 36.4527 93.4415 36.1486 93.5428 36.0135C93.8131 35.7094 94.1847 35.3716 94.455 35.1351C94.5901 35.0337 94.928 34.7972 95.3672 34.527C94.928 35.1013 94.7928 35.6081 94.9618 36.0472C95.0969 36.3513 95.2658 36.6216 95.5361 36.8581C95.8064 37.0945 96.0766 37.2297 96.2793 37.2297C96.4145 37.2297 96.5158 37.1959 96.651 37.1283C96.7861 37.0608 96.9888 36.9256 97.2591 36.7229C98.1037 36.1148 98.9482 35.2702 99.8604 34.2229L99.928 34.1554L99.8942 34.2229C99.5564 34.7972 99.3536 35.4054 99.2185 36.0472C99.1847 36.2837 99.1847 36.4527 99.2185 36.554C99.2861 36.6891 99.4212 36.8581 99.6915 36.9932C99.928 37.1283 100.097 37.2297 100.232 37.2297C100.3 37.2297 100.367 37.1959 100.401 37.1621C100.435 37.1283 100.502 37.027 100.604 36.8581C100.908 36.3175 101.144 35.9797 101.313 35.7432C101.482 35.5405 101.719 35.3378 101.989 35.1351C102.394 34.8648 102.901 34.6621 103.509 34.527C103.273 35.0675 103.205 35.5743 103.374 35.9459C103.509 36.25 103.712 36.6554 104.286 36.9256C104.691 37.0945 105.469 37.0945 106.11 36.9594C107.056 36.7567 107.597 36.2837 108.002 35.9459C108.441 35.6081 109.286 34.831 109.59 34.5608C109.86 34.3581 110.232 33.9189 110.637 33.6148C110.164 34.3918 109.793 35.1689 109.455 36.0135C109.387 36.2162 109.354 36.3851 109.421 36.5202C109.489 36.6554 109.624 36.7905 109.827 36.9594C110.029 37.1283 110.232 37.1959 110.367 37.1959C110.502 37.1959 110.637 37.0608 110.806 36.7567C111.279 35.8108 111.854 35.0337 112.496 34.4256C112.935 34.0202 113.475 33.6824 114.117 33.3783C113.948 33.6824 113.914 33.8851 113.948 33.9864C114.016 34.1554 114.185 34.2905 114.421 34.4256C114.691 34.5608 114.962 34.6621 115.3 34.6959C115.232 34.6283 115.198 34.527 115.164 34.4594C115.097 34.2905 115.097 34.1216 115.164 33.9189C115.232 33.7162 115.401 33.4797 115.671 33.1081L116.077 32.6013C116.178 32.4662 116.212 32.331 116.178 32.1959ZM106.719 33.0067C107.225 32.7702 107.597 32.6351 107.901 32.6351C108.002 32.6351 108.07 32.6689 108.104 32.7364C108.137 32.8378 108.104 33.0405 107.935 33.3108C107.766 33.581 107.496 34.1216 106.82 34.3581C106.212 34.5608 105.367 34.4594 105.131 34.2567C105.469 33.9189 106.246 33.2432 106.719 33.0067ZM74.2523 36.554C73.3401 36.8918 72.2928 37.1959 71.178 37.4324C70.0631 37.6689 69.1509 37.804 68.5091 37.804C67.5293 37.804 66.9888 37.6013 66.8537 37.2297C66.7861 37.027 66.8199 36.7905 67.0226 36.554C67.2253 36.3175 67.4955 36.081 67.901 35.9121V35.9797C67.8334 36.3175 67.8334 36.6554 67.9685 36.9256C68.0699 37.1621 68.205 37.3648 68.4415 37.5L68.5428 37.331L69.4888 35.5743L69.5226 35.5067L69.5564 35.4391C70.2658 35.1689 71.0428 34.9662 71.955 34.7635C72.8334 34.5608 73.7793 34.4256 74.7591 34.3243C75.7388 34.2229 76.7523 34.1554 77.732 34.1554C77.9347 34.1554 78.1037 34.1554 78.205 34.1554C77.3942 35.1013 76.0766 35.8783 74.2523 36.554ZM78.4415 33.7162H78.3401C77.732 33.6824 77.1239 33.6486 76.4482 33.6486C75.705 33.6486 74.9618 33.6824 74.2523 33.7162C73.5428 33.7499 72.8334 33.8175 72.1915 33.9189C71.5158 34.0202 70.9077 34.1216 70.3334 34.2567L70.232 34.2905L70.1307 34.3243L70.1645 34.2567L70.4009 33.8513C70.4685 33.75 70.5699 33.581 70.705 33.3783L71.0091 32.9054L71.1104 32.8716L71.2793 32.804C71.6172 32.7027 72.0564 32.5675 72.6645 32.4662C73.2726 32.331 73.8469 32.2635 74.4212 32.1959C74.9955 32.1283 75.4685 32.0945 75.9077 32.0945C76.6172 32.0945 77.1915 32.1621 77.6645 32.331C78.1374 32.5 78.4077 32.7027 78.5091 32.9729C78.5766 33.1756 78.5766 33.4459 78.4415 33.7162ZM100.198 32.9391C100.131 33.1418 99.928 33.4459 99.5226 33.8513C98.8807 34.4932 98.1374 35 97.2928 35.3716C96.8874 35.5405 96.6172 35.6418 96.4482 35.6418C96.3469 35.6418 96.2793 35.6081 96.2793 35.5405C96.2793 35.5067 96.2793 35.4391 96.3131 35.3378C96.482 34.9662 96.7861 34.5945 97.2253 34.1891C97.6645 33.7837 98.1374 33.4797 98.678 33.2094C98.8807 33.1081 99.1172 33.0067 99.4212 32.9054C99.7253 32.804 99.928 32.7702 100.029 32.7702C100.131 32.7702 100.164 32.804 100.198 32.8378C100.232 32.8716 100.232 32.9054 100.198 32.9391Z" fill="#00205B"/>
    <path d="M56.6511 34.1554C56.516 34.1554 56.2457 34.1892 55.9079 34.2568C55.1309 34.3919 54.489 34.5946 53.9822 34.8649C54.1173 34.527 54.2525 34.2906 54.32 34.1892L54.6917 33.5473C54.7592 33.4122 54.793 33.3108 54.7254 33.2095C54.6917 33.1419 54.6241 33.0406 54.4552 32.973C54.6241 32.7365 54.6579 32.5338 54.5903 32.3649C54.5227 32.1622 54.3876 31.9933 54.1849 31.8919C53.9822 31.7568 53.7457 31.6892 53.5092 31.6892C53.1376 31.6892 52.5971 31.8243 51.9214 32.1284C51.2457 32.3987 50.6376 32.7365 50.0971 33.1419C49.6579 33.446 49.2863 33.75 48.9822 34.0541C48.2727 34.7973 47.4957 35.4392 46.5498 35.7095C46.1444 35.8446 44.9957 36.1825 44.7592 35.6419C44.6579 35.4392 44.793 35.1689 44.9957 34.7297C45.7052 33.1757 47.293 32.7365 47.4282 32.6689C47.4619 32.6689 47.5633 32.6352 47.5971 32.6689C47.6646 32.7365 47.2255 33.2433 47.3268 33.446C47.5971 33.0743 47.9011 32.8041 48.239 32.6014C48.4417 32.4662 48.543 32.3311 48.4754 32.196C48.4079 32.0608 48.3065 31.9595 48.1376 31.8581C47.9687 31.7568 47.7998 31.723 47.5971 31.723C47.4619 31.723 47.293 31.7568 47.0565 31.8243C46.7187 31.9257 46.4146 32.0608 46.1444 32.196C45.8741 32.3311 45.6038 32.5 45.2998 32.7027C45.1309 32.8041 44.9957 32.9392 44.8606 33.0406C44.489 33.277 43.6781 33.7162 42.7998 34.3581C41.8876 35 41.6511 35.2027 41.1106 35.473C41.3471 34.8987 41.7525 34.0203 41.989 33.6149L42.0565 33.5135C42.3268 33.1419 42.4619 32.9392 42.4957 32.8716C42.5971 32.7365 42.6646 32.6352 42.6646 32.5676C42.6646 32.5 42.6646 32.4325 42.6308 32.2973C42.5633 32.1284 42.4619 32.027 42.3268 31.8919C42.1917 31.7906 42.0565 31.723 41.9552 31.723C41.8538 31.723 41.7187 31.7906 41.6173 31.9257L40.739 33.3446L40.7052 33.3784C40.2998 34.0879 40.0295 34.5946 39.8606 34.9325C39.6917 35.2703 39.5903 35.6757 39.489 36.1149C39.4552 36.3514 39.4552 36.5203 39.489 36.6216C39.5565 36.7568 39.6917 36.8919 39.9619 37.0608C40.1984 37.196 40.3673 37.2973 40.5025 37.2973C40.57 37.2973 40.6376 37.2635 40.6714 37.2298C40.7052 37.196 40.8403 37.0946 40.9754 36.9257C41.3133 36.4865 41.5836 36.1825 41.6849 36.0473C41.9552 35.7095 42.0565 35.5743 42.3268 35.3379C42.9687 34.696 43.4755 34.2906 43.9484 33.9865C43.8133 34.1892 43.6782 34.3919 43.6106 34.5946C43.4417 35.0338 43.4079 35.4392 43.543 35.777C43.6782 36.1149 43.9146 36.6216 44.4552 36.8919C45.266 37.2635 45.9079 37.0946 46.043 37.0608C46.6511 36.9595 47.293 36.6892 48.07 35.9122C48.07 36.0135 48.1038 36.0811 48.1376 36.1487C48.239 36.4189 48.4417 36.6892 48.7457 36.9257C49.0498 37.1622 49.2863 37.2973 49.5227 37.2973C49.6917 37.2973 49.9619 37.1622 50.2998 36.8919C51.043 36.3176 51.82 35.5406 52.6984 34.5946L52.9011 34.3919L52.7998 34.6284C52.5633 35.2027 52.3944 35.6419 52.293 35.946C52.1917 36.2838 52.1917 36.4865 52.2255 36.6216C52.293 36.7906 52.4957 36.9595 52.7998 37.1284C53.0025 37.2298 53.1376 37.2973 53.2727 37.2973C53.3741 37.2973 53.4417 37.2635 53.4754 37.2298C53.5092 37.196 53.543 37.1284 53.5768 37.027C53.7119 36.6216 53.8471 36.25 54.0498 35.9798C54.2187 35.7095 54.4214 35.473 54.6917 35.2703C54.9282 35.0676 55.2322 34.9325 55.57 34.7973C55.9079 34.6622 56.3133 34.5946 56.7187 34.527C56.9552 34.4933 57.0565 34.4257 57.0227 34.3243C56.8876 34.223 56.7863 34.1554 56.6511 34.1554ZM53.3065 33.1419C53.239 33.3446 53.0025 33.6487 52.6309 34.0541C51.989 34.696 51.2457 35.2027 50.4011 35.5406C49.9957 35.7095 49.6917 35.8108 49.5565 35.8108C49.4552 35.8108 49.3876 35.777 49.3876 35.7095C49.3538 35.6081 49.4552 35.4392 49.6579 35.1352C49.793 34.9325 49.9957 34.7298 50.2322 34.4933C50.4687 34.2568 50.739 34.0541 51.0092 33.8514C51.2795 33.6487 51.5498 33.5135 51.82 33.3784C52.0565 33.2433 52.293 33.1419 52.5633 33.0406C52.8336 32.9392 53.0363 32.9054 53.1714 32.9054C53.2727 32.9054 53.3065 32.9392 53.3403 32.973C53.3065 33.0406 53.3065 33.0743 53.3065 33.1419Z" fill="#00205B"/>
    <path d="M59.0835 30.5405C59.1848 30.3716 59.2524 30.2365 59.2524 30.0675C59.2524 29.9324 59.2186 29.8311 59.1173 29.7297C59.0159 29.6284 58.8808 29.5946 58.7456 29.5608C58.5092 29.5608 58.2389 29.6621 57.9348 29.8648C57.4956 30.1689 57.3267 30.777 56.82 31.3851C56.3808 31.8919 55.874 32.1284 55.874 32.2635C55.874 32.3648 55.9416 32.4324 56.0429 32.4324C56.2119 32.4324 56.5497 32.2973 57.0902 31.9932C57.6308 31.6892 58.07 31.4189 58.4416 31.1148C58.7456 30.8784 58.9483 30.6757 59.0835 30.5405Z" fill="#00205B"/>
    <path d="M62.1915 32.3986C62.0902 32.331 61.9888 32.2972 61.8537 32.2972C61.5496 32.2972 61.0767 32.3986 60.4348 32.5675C59.9618 32.7026 59.5226 32.8716 59.0496 33.0743C58.6104 33.277 58.2726 33.5135 58.0361 33.7162C57.8672 33.8851 57.7996 34.054 57.8672 34.2229C57.9348 34.4256 58.1037 34.5608 58.374 34.6621C58.5429 34.7297 58.9821 34.7635 59.624 34.7635C60.0969 34.7635 60.4348 34.7972 60.705 34.831C60.2659 34.9999 59.928 35.1013 59.7253 35.2026C59.0496 35.4729 58.4077 35.777 57.8334 36.0472C57.4956 36.2162 57.2591 36.3851 57.1915 36.4526C57.0902 36.554 57.0902 36.6553 57.124 36.7567C57.1578 36.8581 57.2591 36.9932 57.4618 37.0945C57.5969 37.1959 57.7321 37.2297 57.7996 37.2297C57.8672 37.2297 57.9348 37.1959 58.0023 37.1283C58.3064 36.8918 58.9145 36.5878 59.7591 36.1148C60.5023 35.7432 60.9077 35.5405 61.5834 35.2702C61.5834 35.2702 62.124 35.1013 61.7523 34.7297C61.6848 34.6621 61.5496 34.5945 61.3807 34.527C61.2118 34.4932 60.9078 34.4594 60.5023 34.4256C60.2996 34.4256 60.0969 34.3918 59.8604 34.3581C59.624 34.3243 59.455 34.2905 59.3875 34.2567C59.3199 34.2229 59.2523 34.1891 59.2186 34.1216C59.1848 34.054 59.2186 34.0202 59.3199 33.9526C59.6915 33.6486 60.1983 33.4121 60.8402 33.3108L61.8537 33.1081C62.2591 33.0405 62.3267 32.9391 62.3942 32.8716C62.428 32.804 62.4618 32.7702 62.3942 32.6351C62.3942 32.5675 62.2929 32.4662 62.1915 32.3986Z" fill="#00205B"/>
    <path d="M91.6173 30.7433C91.7524 30.8446 91.8537 30.8784 91.9889 30.8784C92.0564 30.8784 92.1578 30.8446 92.2592 30.7771C92.3605 30.7095 92.4956 30.6082 92.6983 30.4392C92.8673 30.3041 92.9686 30.2028 93.07 30.1352C93.2389 30 93.3064 29.8649 93.2389 29.7636C93.1713 29.6284 93.07 29.4933 92.901 29.3919C92.7321 29.2906 92.597 29.223 92.4281 29.223C92.2592 29.223 92.0227 29.3919 91.7186 29.7636C91.4483 30.1014 91.347 30.3379 91.4146 30.5068C91.4146 30.5744 91.5159 30.6757 91.6173 30.7433Z" fill="#00205B"/>
    <path d="M43.2389 30.9121C43.3741 30.9797 43.4754 31.0472 43.5768 31.0472C43.6443 31.0472 43.7457 31.0135 43.847 30.9459C43.9484 30.8783 44.0835 30.777 44.2862 30.6081C44.4552 30.4729 44.5565 30.3716 44.6579 30.304C44.8268 30.1689 44.8943 30.0337 44.8268 29.9324C44.7592 29.7972 44.6579 29.6621 44.4889 29.5608C44.32 29.4594 44.1849 29.3918 44.016 29.3918C43.847 29.3918 43.6106 29.5608 43.3065 29.9324C43.0362 30.2702 42.9349 30.5067 43.0024 30.6756C43.0362 30.7432 43.1038 30.8108 43.2389 30.9121Z" fill="#00205B"/>
</svg>
