<svg width="160" height="40" viewBox="0 0 160 40" fill="none" xmlns="http://www.w3.org/2000/svg">
    <path d="M41.4801 12.7725C40.0329 7.95318 30.4448 6.56778 20.0642 9.68983C19.5724 9.83034 19.0947 9.99052 18.617 10.1535C27.8988 8.00095 35.9639 9.42006 37.2397 13.6746C38.6447 18.3394 31.3665 24.6481 20.9859 27.7645C20.7442 27.8348 20.5138 27.9022 20.2778 27.9697L25.114 11.2579L25.0915 11.2608L25.1028 11.2579L23.8354 11.345C21.4636 11.581 18.9402 12.0756 16.3577 12.8484C5.97706 15.9705 -1.26744 22.4028 0.185392 27.2306C1.63261 32.05 11.2236 33.4298 21.607 30.3105C22.0959 30.1644 22.5793 30.007 23.0542 29.8497C13.7695 31.9966 5.70448 30.5831 4.42587 26.3286C3.02362 21.6582 10.3018 15.3522 20.6852 12.233C20.9044 12.1684 21.1236 12.1037 21.34 12.0419L16.5684 28.7369L17.8358 28.6554C20.2075 28.4193 22.731 27.9219 25.3107 27.1491C35.6913 24.0299 42.9302 17.5919 41.4801 12.7725Z" fill="#145199"/>
    <path d="M50.4977 24.859C50.8406 24.8955 51.2649 24.9096 51.7679 24.9096C53.3388 24.9096 54.727 24.5752 55.615 23.9457C56.5395 23.3022 57.0228 22.4254 57.0228 21.3772C57.0228 20.0565 55.8566 19.3371 53.4989 19.3371C52.9341 19.3371 52.5126 19.3624 52.2091 19.3989L50.4977 24.859ZM49.6744 18.1034C50.8406 17.9799 52.0686 17.9181 53.3388 17.9181C55.5335 17.9181 57.2448 18.1766 58.352 18.7583C59.5014 19.3147 60.1646 20.1409 60.1646 21.3155C60.1646 22.9454 59.0574 24.4151 57.3853 25.2441C55.8145 26.0225 53.8221 26.3541 50.8827 26.3541C49.25 26.3541 47.8394 26.267 47.1565 26.194L49.6744 18.1034Z" fill="#211E1E"/>
    <path d="M72.0036 22.7711L71.7423 20.9811C71.6833 20.523 71.6215 19.857 71.5625 19.3512H71.5007C71.1578 19.857 70.7757 20.5006 70.4132 20.9811L69.084 22.7711H72.0036ZM68.2184 24.1312L66.6279 26.2922H63.5283L70.1518 17.9686H73.878L75.4489 26.2922H72.4083L72.1245 24.1312H68.2184Z" fill="#211E1E"/>
    <path d="M81.3472 26.2922L83.9241 17.9658H87.3271L89.12 21.1413C89.6651 22.2035 90.0248 23.069 90.348 23.9823H90.4098C90.4688 23.1308 90.6711 22.2175 91.0336 20.9951L91.961 17.9658H94.6784L92.1015 26.2922H89.1003L87.2063 22.9706C86.6049 21.8326 86.2424 21.0794 85.8799 20.0678H85.8181C85.6776 20.8827 85.3544 22.0545 84.9526 23.3781L84.0449 26.2922H81.3472Z" fill="#211E1E"/>
    <path d="M106.72 22.7711L106.458 20.9811C106.397 20.523 106.338 19.857 106.276 19.3512H106.217C105.874 19.857 105.492 20.5006 105.129 20.9811L103.8 22.7711H106.72ZM102.935 24.1312L101.344 26.2922H98.2417L104.868 17.9686H108.591L110.162 26.2922H107.122L106.841 24.1312H102.935Z" fill="#211E1E"/>
    <path d="M121.54 17.9686L120.532 21.2031H125.447L126.452 17.9686H129.372L126.795 26.2922H123.895L124.963 22.7852H120.029L118.964 26.2922H116.063L118.64 17.9686H121.54Z" fill="#211E1E"/>
    <path d="M142.723 22.7487H137.91L137.286 24.7748H142.704L142.22 26.2922H133.902L136.482 17.9686H144.516L144.033 19.4861H138.918L138.354 21.2537H143.207L142.723 22.7487Z" fill="#211E1E"/>
    <path d="M153.073 21.6723H154.261C155.832 21.6723 156.979 21.0934 156.979 20.2785C156.979 19.6097 156.074 19.3146 154.905 19.3146C154.363 19.3146 154.02 19.3399 153.778 19.3764L153.073 21.6723ZM151.302 18.1287C152.207 17.991 153.576 17.918 154.927 17.918C156.215 17.918 157.544 18.0304 158.491 18.3985C159.376 18.7217 160 19.2387 160 20.0171C160 21.2536 158.671 22.0179 156.92 22.3664V22.4001C157.724 22.6249 158.086 23.1673 158.207 23.9204C158.39 24.859 158.491 25.9465 158.732 26.2921H155.751C155.63 26.0701 155.49 25.3536 155.369 24.3279C155.228 23.3162 154.663 23.0071 153.517 23.0071H152.632L151.623 26.2921H148.765L151.302 18.1287Z" fill="#211E1E"/>
</svg>
