<?xml version="1.0" encoding="UTF-8"?>
<svg width="512px" height="512px" viewBox="0 0 512 512" version="1.1" xmlns="http://www.w3.org/2000/svg" xmlns:xlink="http://www.w3.org/1999/xlink">
    <!-- Generator: Sketch 48.1 (47250) - http://www.bohemiancoding.com/sketch -->
    <title>#DIS</title>
    <desc>Created with Sketch.</desc>
    <defs></defs>
    <g id="Компании-BIG" stroke="none" stroke-width="1" fill="none" fill-rule="evenodd">
        <g id="#DIS" fill="#000000" fill-rule="nonzero">
            <g id="disney" transform="translate(0.000000, 51.000000)">
                <path d="M420.205054,109.863831 C462.925051,144.634629 518.349032,203.903944 511.406781,272.1231 C503.069372,326.062586 445.666682,366.624063 397.05751,379.534542 C349.836788,393.360041 290.58283,391.977491 242.429767,380.917092 C239.19005,389.679921 235.950333,400.272791 225.768365,403.96627 C219.28893,406.27052 210.951522,404.88797 205.860538,400.74032 C191.513219,387.368992 203.083637,361.554713 182.250177,353.266093 C141.508889,336.207964 97.527884,302.552557 76.7011308,261.06938 C73.9242304,252.77408 77.1639476,244.47878 82.2549317,238.02688 C114.202701,212.673452 154.474465,202.534752 194.752936,194.693624 C197.06702,195.615324 196.141386,192.389374 197.992653,191.467674 C200.306737,163.809996 201.23237,135.684789 210.025888,110.79221 C212.031427,107.299101 216.968139,106.18371 220.214564,108.48796 C245.676192,127.84366 233.636249,164.270846 244.750558,190.539295 C293.359731,192.843545 341.968903,195.147795 380.3894,222.351302 C393.354976,232.950851 396.514203,253.194856 392.422635,264.762858 C388.337774,276.310824 374.835599,284.586087 362.332839,285.494429 C353.995431,285.494429 338.259662,286.302586 339.185295,279.970908 C340.110929,273.632551 367.504313,263.260087 359.093122,254.610801 C346.99952,242.181209 286.491262,234.787572 248.989691,230.179073 C244.361524,229.257373 240.115684,230.639923 240.115684,235.709272 C239.19005,270.74055 236.41315,309.458628 242.429767,343.120714 C242.892584,345.431643 245.669484,348.196743 247.990276,348.644235 C314.186484,359.250463 384.091933,353.252735 435.940823,315.456357 C460.014001,296.107336 467.888593,268.890471 463.716535,238.935222 C442.883074,155.501338 355.390588,105.248653 283.633872,72.9824745 C213.73513,42.5596965 136.417905,26.884118 53.5535865,31.0384469 C40.3599558,32.0002207 19.4527128,36.5352518 19.2984406,41.1838255 C19.1441683,45.8323993 42.982584,44.3697015 40.1251937,53.1659252 C37.2745109,61.9554698 13.0470609,56.7391823 5.87004774,54.5484751 C-1.30696542,52.3577679 -0.60938657,42.0988465 1.24188037,35.6469467 C19.2984406,3.84161871 69.6850974,1.27020937 92.4436073,0.154818825 C218.35659,-3.07781006 340.117636,44.6702559 420.205054,109.863831 Z M193.364486,233.405022 C161.416716,233.865872 127.624387,237.091822 97.9974082,248.152222 C91.9807906,250.456472 84.5690153,256.908372 89.1971827,264.7495 C101.230418,280.87925 118.441834,294.123678 134.566638,303.467578 C150.691441,312.798121 172.068208,324.673357 191.513219,327.445135 C196.141386,297.476528 196.141386,267.97545 195.678569,237.091822 C193.820595,236.170122 195.671862,234.326722 193.364486,233.405022 Z" id="Shape"></path>
            </g>
        </g>
    </g>
</svg>