<svg width="39" height="25" viewBox="0 0 39 25" fill="none" xmlns="http://www.w3.org/2000/svg">
<g id="DKNG - DraftKings stock" clip-path="url(#clip0_508_995)">
<path id="Vector" d="M37.5505 25H0.658812C0.295003 25 0 24.7054 0 24.3421V0.657924C0 0.294605 0.295003 0 0.658812 0H37.5506C37.9144 0 38.2094 0.294605 38.2094 0.657924V24.3421C38.2093 24.7055 37.9143 25 37.5505 25Z" fill="black"/>
<g id="DKNG - DraftKings stock_2">
<circle id="Ellipse 25" cx="19.5" cy="12.5" r="12.5" fill="black"/>
<path id="Vector_2" d="M27.1967 5.36277C26.9145 5.49081 26.6729 5.69316 26.4982 5.94788C26.3234 6.2026 26.2222 6.49999 26.2054 6.8078L26.2039 6.80828C25.9736 6.64644 25.7063 6.54422 25.4261 6.51088C25.146 6.47755 24.8619 6.51414 24.5996 6.61736C24.621 6.68786 24.647 6.75691 24.6774 6.82407C24.7769 7.0416 24.9218 7.23559 25.1026 7.39314C25.2834 7.55069 25.4959 7.66819 25.7259 7.73783C25.4706 8.13133 25.134 8.46644 24.7385 8.72099C24.5664 8.83086 24.3691 8.89566 24.165 8.90934C23.908 8.93961 23.6478 8.89253 23.418 8.77419C23.1882 8.65585 22.9995 8.4717 22.8762 8.24559C22.7211 8.5214 22.4689 8.73062 22.1681 8.83314C21.8673 8.93566 21.539 8.92427 21.2461 8.80115C21.1682 8.75607 21.0914 8.70842 21.0178 8.65707C20.3895 8.2229 19.9317 7.58613 19.7221 6.85481C19.7317 6.85433 19.7409 6.85336 19.7507 6.8524C20.0112 6.82359 20.2614 6.73516 20.4817 6.59403C20.702 6.45291 20.8863 6.26295 21.0202 6.03908C21.0494 5.99086 21.0761 5.94115 21.1001 5.89017C20.8886 5.7344 20.6436 5.6297 20.3843 5.58438C20.1251 5.53906 19.8587 5.55435 19.6065 5.62905C19.5546 5.6445 19.5029 5.66269 19.452 5.68298C19.4695 5.09118 19.0225 4.20092 18.4743 3.87701C18.4044 3.83734 18.3323 3.80155 18.2585 3.7698L18.2102 3.75L18.1768 3.79234C18.1337 3.84787 18.0941 3.90599 18.0582 3.96636C17.7349 4.51291 17.824 5.49396 18.1264 6.00447C18.0723 6.01075 18.018 6.01992 17.9649 6.03135C17.7357 6.0806 17.5194 6.17657 17.3295 6.31319C17.1396 6.44981 16.9803 6.62409 16.8617 6.82502C16.833 6.87365 16.8068 6.92373 16.7833 6.97506C16.8291 7.00822 16.8766 7.03901 16.9256 7.06731C17.1513 7.19944 17.4048 7.27768 17.6662 7.29587C17.9276 7.31405 18.1896 7.27169 18.4317 7.17211C18.4409 7.16826 18.4497 7.16487 18.4583 7.16101C18.6156 7.84163 18.5508 8.55436 18.273 9.1959C18.2721 9.193 18.2716 9.18962 18.2706 9.18672C18.2662 9.20298 18.2604 9.2194 18.2555 9.2363C18.2367 9.27752 18.2173 9.31889 18.197 9.35978C18.1481 9.45867 18.094 9.55497 18.035 9.64827C17.8363 9.89651 17.552 10.0628 17.2372 10.1151C16.9223 10.1673 16.5991 10.1019 16.3299 9.93129C16.329 10.1885 16.2504 10.4395 16.1043 10.6517C15.9581 10.864 15.7512 11.0278 15.5103 11.122C15.3955 11.1669 15.2748 11.1951 15.1519 11.2057C14.6184 11.1967 14.0949 11.0605 13.6253 10.8087C13.7933 10.6376 13.9226 10.4329 14.0046 10.2083C14.0866 9.98365 14.1194 9.74421 14.1009 9.50596C14.0951 9.43142 14.0841 9.29442 14.0695 9.22374C13.4836 9.29683 12.9997 9.81586 12.7558 10.0947H12.7544C12.4308 9.81586 11.8361 9.3184 11.1849 9.36751C11.0348 9.39131 10.8886 9.43478 10.75 9.49678C11.477 10.039 12.1694 10.6256 12.8231 11.2532C13.2823 11.6903 13.7231 12.1565 14.144 12.6338C14.729 13.2985 15.7281 14.6412 15.7291 14.6407C15.9895 14.8814 16.3349 15.0103 16.6904 14.9994C16.7123 14.9961 16.7323 14.9855 16.7471 14.9693C16.7619 14.9531 16.7707 14.9322 16.7718 14.9103C16.776 14.8752 16.7151 14.8541 16.6836 14.8401C16.5649 14.7978 16.4586 14.7269 16.3742 14.6338C16.2898 14.5407 16.2299 14.4283 16.1998 14.3066C16.0117 13.7211 17.7746 12.6641 20.3515 12.0142C22.9288 11.3647 24.9987 11.4436 25.1183 12.0478C25.1509 12.1689 25.1528 12.2962 25.1239 12.4182C25.095 12.5403 25.0362 12.6533 24.9527 12.7473C24.9319 12.7747 24.8884 12.8228 24.9102 12.8516C24.9218 12.8704 24.9395 12.8846 24.9603 12.8919C24.9812 12.8992 25.004 12.899 25.0248 12.8915C25.3414 12.7314 25.5818 12.4538 25.694 12.119C25.694 12.119 25.9708 10.4548 26.1608 9.59242C26.2978 8.9723 26.4616 8.36054 26.6525 7.75716C26.9235 6.89873 27.2484 6.05797 27.625 5.23979C27.4774 5.26176 27.3334 5.30311 27.1967 5.36277Z" fill="white"/>
<path id="Vector_3" d="M17.9906 13.7339C19.3539 13.1223 20.7897 12.7073 22.259 12.5C22.259 12.5 25.125 12.7961 25.125 16.3275C25.125 19.859 22.732 21.875 19.4746 21.875C16.2176 21.875 14.5 20.3679 14.5 18.7624C14.5 17.1568 15.5995 16.9011 16.1109 16.9011C16.6219 16.9011 17.5465 17.3858 17.5465 18.644C17.5465 18.644 16.6262 18.4067 16.6262 19.2425C16.6262 20.0783 17.7143 20.5988 19.2063 20.5988C20.6979 20.5988 22.8045 19.9127 22.8045 16.8554C22.8045 13.5936 21.3666 13.4478 20.3669 13.4478V19.043C20.3752 19.1807 20.4346 19.3094 20.5324 19.4014C20.6302 19.4935 20.7586 19.5415 20.8898 19.5351C20.8898 19.5351 20.3641 20.0008 19.0631 20.0008C17.7622 20.0008 17.3916 19.5624 17.3916 19.5624C17.3916 19.5624 18.0073 19.5649 18.0073 18.9947C18.0073 18.425 17.9906 13.7339 17.9906 13.7339Z" fill="white"/>
</g>
</g>
<defs>
<clipPath id="clip0_508_995">
<rect width="38.2094" height="25" fill="white"/>
</clipPath>
</defs>
</svg>
