<svg width="160" height="18" viewBox="0 0 160 18" fill="none" xmlns="http://www.w3.org/2000/svg">
<g clip-path="url(#clip0_112_5254)">
<path d="M7.55925 10.9867V15.3093C7.55925 16.3753 7.52051 16.3947 7.50112 16.4335L7.3848 16.5692C7.34607 16.6079 7.26849 16.6854 7.19096 16.7048L7.05531 16.7824L6.99712 16.8018L6.95838 16.8212V16.8599H10.2342V16.8212H10.176L10.0403 16.7242L9.8465 16.5692L9.74958 16.3753C9.73018 16.3753 9.69145 16.3559 9.69145 14.7083V6.41229L6.88086 9.22288C7.0747 9.14536 7.32667 9.18409 7.46233 9.3392C7.57864 9.49425 7.57864 9.78501 7.57864 11.0061" fill="black"/>
<path fill-rule="evenodd" clip-rule="evenodd" d="M0.252197 8.91234L0.290964 8.07884L7.55971 0.810108C8.22435 0.742597 8.89468 0.755616 9.5562 0.848876L0.329731 10.0753C0.290964 9.6877 0.252197 9.30002 0.252197 8.91234ZM3.08217 15.0569C2.717 14.7443 2.37974 14.4006 2.07423 14.0296L6.51304 9.59078C6.70688 9.51326 7.03638 9.55199 7.15269 9.70704C7.24961 9.84275 7.24961 9.93967 7.24961 10.8701L3.08217 15.0569ZM13.5104 2.59337C13.8981 2.88413 14.247 3.23303 14.5571 3.60131L10.0795 8.0595V6.06301L13.5104 2.59337ZM11.9404 1.58544C12.3862 1.79866 12.8126 2.07003 13.2197 2.3608L1.84163 13.7388C1.55088 13.3511 1.27951 12.9053 1.0663 12.4595L11.9404 1.58544ZM10.0214 0.945791C10.5448 1.04271 11.0681 1.21716 11.5721 1.41099L0.911231 12.0718C0.698017 11.5873 0.523564 11.0639 0.426647 10.5211L10.0214 0.945791ZM0.387881 7.43918C0.686621 5.8168 1.47121 4.32339 2.63774 3.15688C3.80425 1.99038 5.29764 1.20576 6.92006 0.907023L0.387881 7.43918Z" fill="#6FBE4A"/>
<path fill-rule="evenodd" clip-rule="evenodd" d="M14.7508 13.8939C14.4601 14.2816 14.1112 14.6304 13.7623 14.96L10.0601 11.2771V9.20311L14.7508 13.8939ZM15.7782 12.382C15.5649 12.8278 15.3517 13.2155 15.061 13.6225L10.0795 8.62164L11.0486 7.65243L15.7782 12.382ZM16.4178 10.463C16.3015 10.9864 16.1464 11.5098 15.9332 12.0137L11.3006 7.38107L12.3279 6.37318L16.4178 10.463ZM13.8786 4.80311L14.809 3.89209C15.5843 4.88064 16.1658 6.04363 16.4178 7.34233L13.8786 4.80311ZM13.6072 5.07448L16.5147 7.98199C16.5908 8.6522 16.5843 9.32921 16.4953 9.99782L12.5993 6.10182L13.6072 5.07448Z" fill="#00954C"/>
<path d="M116.455 6.76131L114.361 16.86H109.961L112.035 6.7807H107.965L108.701 3.29167H121.223L120.506 6.76131H116.455ZM150.763 13.6036H156.578L155.919 16.8406H145.646L148.456 3.27227H158.536L157.877 6.50934H152.236L151.849 8.33138H157.082L156.423 11.5684H151.19L150.763 13.6036ZM138.493 13.6036H144.328L143.669 16.86H133.396L136.206 3.29167L146.285 3.27227L145.626 6.50934H139.986L139.598 8.33138H144.832L144.154 11.5684H138.92L138.493 13.6036ZM125.739 8.69961H127.445C127.836 8.71049 128.217 8.56908 128.506 8.30514C128.795 8.04119 128.971 7.67538 128.996 7.28465C128.996 7.05207 128.918 6.89696 128.802 6.76131C128.705 6.64499 128.608 6.52868 128.026 6.52868H126.204L125.739 8.69961ZM125.08 11.956L124.053 16.86H119.633L122.463 3.29167H128.937C131.128 3.29167 131.767 3.56303 132.31 3.97011C133.008 4.49345 133.396 5.30755 133.396 6.25731C133.394 7.08775 133.146 7.89898 132.684 8.58888C132.221 9.27878 131.565 9.81639 130.798 10.134C131.535 10.5992 131.922 11.3358 131.903 12.2662V12.5375L131.748 14.6697V15.0186C131.753 15.474 131.798 15.928 131.884 16.3755L131.98 16.86H127.445L127.367 16.5305C127.309 16.2979 127.251 16.0653 127.251 15.6583C127.251 15.4644 127.251 15.2318 127.29 14.9217L127.484 12.7895V12.6345C127.484 12.1693 127.29 11.956 126.65 11.956H125.08ZM53.3617 13.4098H58.8275L58.1104 16.86H48.2251L51.0357 3.29167H55.4357L53.3617 13.4098ZM64.5069 13.3904H69.9924L69.2753 16.8794H59.3898L62.2007 3.27227H66.6007L64.5069 13.3904ZM40.5105 13.8362C41.5378 13.8362 43.0304 13.0609 43.6506 10.0177C43.7669 9.43619 43.8251 8.93224 43.8251 8.50583C43.8251 6.80004 42.9916 6.37363 42.1775 6.37363C41.092 6.37363 39.6189 7.14899 38.9792 10.2116C38.8436 10.8124 38.7854 11.3358 38.7854 11.7622C38.7854 13.4098 39.5607 13.8362 40.5299 13.8362H40.5105ZM39.9484 17.2283H39.8902C39.454 17.2507 39.0169 17.2116 38.5916 17.112L38.514 17.0926C37.2913 16.941 36.1773 16.3144 35.4127 15.3481C34.699 14.3796 34.3367 13.1969 34.3854 11.9948C34.3854 11.3745 34.4629 10.6961 34.618 9.94019C35.5096 5.63705 38.6691 2.98157 42.6427 2.98157C44.833 2.98157 46.1317 3.62122 47.0427 4.6679C47.7793 5.52079 48.2445 6.66439 48.2445 8.21506C48.2445 8.85472 48.167 9.5525 48.0119 10.3278C47.6723 12.1169 46.785 13.7561 45.4726 15.0186C44.7563 15.7455 43.8977 16.317 42.9505 16.6971C42.0033 17.0773 40.988 17.2582 39.9678 17.2283H39.9484ZM24.2673 13.623H25.1977C26.3607 13.6036 27.1942 13.216 27.8532 12.5181C28.7362 11.5552 29.2271 10.2968 29.2294 8.99037C29.2294 7.38157 28.3184 6.56747 26.8065 6.56747H25.721L24.2673 13.623ZM19.1694 16.8794L21.98 3.31106L28.4153 3.29167C30.3924 3.29167 32.04 4.14456 32.8347 5.26876C33.3387 5.98594 33.6682 7.03268 33.6682 8.33138C33.6682 8.87411 33.6101 9.47498 33.4744 10.1146C33.1338 12.0881 32.1201 13.8826 30.6056 15.1931C29.2295 16.3311 27.4867 16.9303 25.7016 16.8794H19.1694ZM93.2718 8.68027H94.9582C95.3513 8.6961 95.734 8.55636 96.0246 8.29144C96.3147 8.02652 96.4891 7.65777 96.5092 7.26525C96.5092 7.07141 96.4511 6.87762 96.3348 6.76131C96.2376 6.64499 96.1409 6.52868 95.559 6.52868H93.7179L93.2718 8.68027ZM92.6128 11.9367L91.5855 16.86H87.1855L89.9769 3.27227H96.4701C98.6606 3.27227 99.281 3.56303 99.8428 3.97011C100.521 4.47406 100.909 5.28816 100.909 6.25731C100.91 7.08833 100.663 7.9007 100.201 8.59106C99.738 9.28142 99.0802 9.81852 98.3118 10.134C99.0485 10.5992 99.4359 11.3358 99.4359 12.2662V12.5375L99.281 14.6697V15.0186C99.281 15.3093 99.281 15.697 99.4163 16.3561L99.494 16.86H94.9777L94.9 16.5305C94.8419 16.2785 94.7838 16.0653 94.7838 15.6389C94.7838 15.445 94.7838 15.2124 94.8229 14.9217L94.9973 12.7895V12.6345C94.9973 12.1693 94.8229 11.9367 94.1829 11.9367H92.6128ZM78.2307 11.0257H80.3625L79.9751 7.74986C79.5291 8.68027 78.9674 9.72695 78.2307 11.0257ZM76.37 14.2627L74.877 16.86H70.477L78.7343 3.29167L83.3674 3.27227L85.9256 16.8406H81.3317L80.9052 14.2627H76.37ZM158.013 15.1931H158.265C158.536 15.1931 158.652 15.1156 158.652 14.9217C158.652 14.7279 158.516 14.6503 158.245 14.6503H158.013V15.1931ZM158.303 14.4177C158.807 14.4177 159.04 14.5922 159.04 14.8829C159.04 15.1349 158.904 15.3093 158.652 15.3675L159.04 16.1428H158.632L158.284 15.4257H158.013V16.1428H157.644V14.3983L158.303 14.4177ZM157.354 14.3596C157.107 14.6066 156.969 14.9412 156.969 15.29C156.969 15.6388 157.107 15.9733 157.354 16.2204C157.586 16.4724 157.935 16.608 158.245 16.608C158.632 16.608 158.943 16.4917 159.214 16.2204C159.447 16.0072 159.602 15.6776 159.602 15.3287C159.609 15.0652 159.537 14.8056 159.395 14.5834C159.253 14.3612 159.048 14.1866 158.806 14.0823C158.564 13.9779 158.296 13.9486 158.037 13.998C157.778 14.0475 157.54 14.1734 157.354 14.3596ZM159.389 14.2239C159.66 14.5146 159.815 14.9023 159.815 15.3093C159.815 15.7358 159.66 16.1234 159.369 16.3948C159.078 16.6848 158.685 16.8477 158.274 16.8477C157.863 16.8477 157.47 16.6848 157.179 16.3948C156.889 16.1042 156.726 15.7103 156.726 15.2997C156.726 14.8891 156.889 14.4952 157.179 14.2045C157.32 14.0598 157.489 13.9455 157.675 13.8689C157.862 13.7922 158.063 13.7547 158.265 13.7587C158.691 13.7587 159.078 13.9138 159.389 14.2239Z" fill="#00954C"/>
</g>
<defs>
<clipPath id="clip0_112_5254">
<rect width="160" height="16.6906" fill="white" transform="translate(0 0.654663)"/>
</clipPath>
</defs>
</svg>
