<svg width="512" height="115" viewBox="0 0 512 115" fill="none" xmlns="http://www.w3.org/2000/svg">
    <path d="M35.4058 76.5736C52.6676 76.5736 59.4008 66.0328 59.4008 47.9981C59.4008 29.9675 51.5265 17.3954 35.9116 17.3954H18.411V76.5736H35.4058ZM0 1.65092H38.1978C62.4437 1.65092 78.0586 21.2071 78.0586 47.9981C78.0586 62.7269 73.1059 75.6834 63.5847 83.6831C56.8556 89.2671 48.0952 92.4435 36.6723 92.4435H0V1.65092ZM130.641 59.939C130.641 47.2374 124.677 38.6024 114.14 38.6024C103.474 38.6024 97.6309 47.2374 97.6309 59.939C97.6309 72.6365 103.474 81.142 114.14 81.142C124.677 81.142 130.641 72.6365 130.641 59.939ZM80.1142 59.939C80.1142 40.5083 93.9528 25.5245 114.14 25.5245C134.323 25.5245 148.162 40.5083 148.162 59.939C148.162 79.3616 134.323 94.3493 114.14 94.3493C93.9487 94.3493 80.1101 79.3656 80.1101 59.939H80.1142ZM151.015 59.939C151.015 40.5083 163.712 25.5245 183.515 25.5245C200.405 25.5245 210.812 35.3046 213.098 49.3982H196.213C195.072 43.6847 190.629 39.3631 184.28 39.3631C173.869 39.3631 168.54 47.3669 168.54 59.939C168.54 72.2561 173.488 80.5107 184.025 80.5107C191.009 80.5107 195.962 76.8285 197.103 69.4641H213.734C212.593 83.3027 201.797 94.3493 184.405 94.3493C163.842 94.3493 151.015 79.3656 151.015 59.939ZM258.689 92.4475V84.8282H258.308C253.866 90.7966 248.787 94.2239 239.647 94.2239C225.173 94.2239 217.048 84.9577 217.048 70.7306V27.3009H234.184V67.8092C234.184 75.4285 237.615 79.6205 244.976 79.6205C253.101 79.6205 258.054 73.5267 258.054 64.8917V27.3009H275.319V92.4475H258.689ZM359.44 92.4475H376.701V27.3009H359.44V92.4475ZM359.44 18.1966H376.701V2.05151H359.44V18.1966ZM429.442 57.0134C429.442 47.4923 424.364 39.3672 413.952 39.3672C405.192 39.3672 399.353 46.2217 399.353 57.1429C399.353 68.1895 405.192 74.6678 414.082 74.6678C424.999 74.6678 429.442 66.6681 429.442 57.0175V57.0134ZM383.863 94.3493H400.996C402.396 98.4119 406.074 101.588 414.074 101.588C423.85 101.588 428.548 96.8904 428.548 88.0006V80.887H428.167C424.356 85.2045 419.407 88.5064 411.152 88.5064C396.682 88.5064 382.463 77.0794 382.463 57.3978C382.463 37.9671 394.141 25.5245 410.646 25.5245C418.772 25.5245 424.736 28.6969 428.673 34.1595H428.928V27.3009H445.559V87.4907C445.559 96.6355 442.637 102.855 437.814 107.302C432.351 112.38 423.975 114.666 414.329 114.666C396.553 114.666 385.636 107.047 383.859 94.3493H383.863ZM469.853 36.1908H470.233C474.676 29.2067 480.645 25.5245 489.53 25.5245C502.989 25.5245 512 35.6809 512 49.9039V92.4435H494.734V52.4451C494.734 45.461 490.672 40.5083 483.437 40.5083C475.817 40.5083 470.233 46.6021 470.233 55.492V92.4435H452.967V27.3009H469.853V36.1908ZM320.093 37.7122C306.634 34.7988 300.286 32.6381 300.286 25.2696C300.286 18.7954 306.76 14.6034 316.665 14.6034C325.701 14.6034 332.608 18.844 334.024 27.3009H351.731C349.931 9.67084 336.849 0 316.791 0C296.607 0 282.004 9.27025 282.004 27.1755C282.004 46.0963 296.858 50.4138 313.109 54.096C326.947 57.2724 335.582 59.0488 335.582 67.9346C335.582 76.3187 327.327 79.6205 317.936 79.6205C304.987 79.6205 298.764 75.303 297.494 64.3819H279.467C280.102 83.5576 294.066 94.4748 318.697 94.4748C339.135 94.4748 353.989 84.1929 353.989 65.7779C353.989 46.2217 338.754 41.7788 320.093 37.7122Z" fill="black"/>
</svg>
