<svg width="118" height="40" viewBox="0 0 118 40" fill="none" xmlns="http://www.w3.org/2000/svg">
    <path d="M90.6613 37.7294C90.2221 37.7294 89.8185 37.6553 89.4507 37.507C89.0828 37.3588 88.7617 37.1502 88.4872 36.8812C88.2181 36.6067 88.0095 36.2855 87.8613 35.9176C87.713 35.5498 87.6389 35.1463 87.6389 34.707C87.6389 34.2678 87.713 33.8643 87.8613 33.4965C88.0095 33.1286 88.2181 32.8102 88.4872 32.5412C88.7617 32.2667 89.0828 32.0553 89.4507 31.907C89.8185 31.7588 90.2221 31.6847 90.6613 31.6847C91.0785 31.6847 91.4683 31.7588 91.8307 31.907C92.1985 32.0553 92.5197 32.2667 92.7942 32.5412C93.0742 32.8102 93.2911 33.1286 93.4448 33.4965C93.604 33.8643 93.6836 34.2678 93.6836 34.707C93.6836 35.1463 93.6095 35.5498 93.4613 35.9176C93.313 36.2855 93.1017 36.6067 92.8271 36.8812C92.5581 37.1502 92.2397 37.3588 91.8719 37.507C91.504 37.6553 91.1005 37.7294 90.6613 37.7294ZM90.6613 37.2929C91.0126 37.2929 91.342 37.2298 91.6495 37.1035C91.957 36.9772 92.2287 36.7988 92.4648 36.5682C92.7009 36.3321 92.8848 36.0576 93.0166 35.7447C93.1483 35.4318 93.2142 35.0859 93.2142 34.707C93.2142 34.3502 93.1511 34.0153 93.0248 33.7023C92.8985 33.3894 92.7201 33.1149 92.4895 32.8788C92.2644 32.6427 91.9954 32.4588 91.6824 32.327C91.375 32.1898 91.0346 32.1212 90.6613 32.1212C90.1672 32.1212 89.7252 32.2337 89.3354 32.4588C88.9511 32.6784 88.6491 32.9831 88.4295 33.3729C88.2099 33.7572 88.1001 34.2019 88.1001 34.707C88.1001 35.0639 88.1632 35.3988 88.2895 35.7118C88.4158 36.0247 88.5915 36.2992 88.8166 36.5353C89.0472 36.7714 89.3189 36.958 89.6319 37.0953C89.9448 37.227 90.2879 37.2929 90.6613 37.2929ZM89.533 36.5106V32.9118H90.5871C91.0373 32.9118 91.3668 32.9996 91.5754 33.1753C91.784 33.351 91.8883 33.6172 91.8883 33.9741C91.8883 34.2321 91.8224 34.438 91.6907 34.5918C91.5589 34.74 91.4107 34.847 91.246 34.9129L92.2013 36.5106H91.493L90.6695 35.0859H90.1589V36.5106H89.533ZM90.5707 34.5753C90.7848 34.5753 90.9522 34.5204 91.073 34.4106C91.1938 34.3008 91.2542 34.1608 91.2542 33.9906C91.2542 33.7984 91.1993 33.6584 91.0895 33.5706C90.9797 33.4827 90.804 33.4388 90.5624 33.4388H90.1589V34.5753H90.5707Z" fill="#EB192E"/>
    <path d="M0.176514 20L59 0L117.824 20L59 40" fill="#EB192E"/>
    <path d="M30.5977 26.6H30.5518C30.5518 26.9118 29.8001 27.1588 28.8718 27.1683V28.0435C28.8718 28.0435 38.1742 28.0435 40.9754 28.0435C43.5812 28.0435 47.6142 24.8377 47.6142 20.0824C47.6142 15.6859 44.0448 11.8706 40.9754 11.8706C38.1977 11.8706 28.8718 11.8706 28.8718 11.8706V12.6553C28.8753 12.6553 28.8789 12.6553 28.8871 12.6553C29.7824 12.6553 30.4954 12.8847 30.5859 13.1718H30.5977V13.1941C30.6012 13.2071 30.6153 13.2153 30.6153 13.2306C30.6153 13.2365 30.6012 13.2435 30.5977 13.2577V26.6ZM34.3024 15.2835C34.3024 15.2835 37.8589 15.2835 40.6354 15.2835C41.8777 15.2835 44.1777 16.9459 44.1824 20.0153C44.1871 22.9718 42.2071 24.4871 40.6354 24.4871C37.8389 24.4871 34.3024 24.4871 34.3024 24.4871V15.2835ZM67.2683 21.4035C67.2683 17.3906 63.8859 14.1365 58.7295 14.1365C53.5424 14.1365 50.1883 17.4024 50.1883 21.4035C50.1883 25.5318 53.1024 28.2518 57.6354 28.6271H59.8248C64.3577 28.2518 67.2683 25.5318 67.2683 21.4035ZM53.9342 21.5977C53.9342 19.3435 55.8295 17.5259 58.7424 17.5259C61.6577 17.5259 63.5495 19.3435 63.5495 21.5977C63.5495 23.8471 61.6577 25.6694 58.7424 25.6694C55.8306 25.6694 53.9342 23.8471 53.9342 21.5977ZM86.9059 26.7518C86.9059 26.7518 91.5106 16.4494 91.5201 16.4388C91.6612 16.2447 91.9012 16.0706 92.2612 15.9953C92.3801 15.973 92.9095 15.9753 92.9095 15.9753V14.9706L86.4542 14.9965V15.9718C86.4859 15.9718 86.6401 15.9718 86.6636 15.9741C87.4577 15.9883 87.5624 16.2236 87.5624 16.5118L85.0448 23.113L82.193 15.4071L80.0624 15.4188H77.8259L75.1871 22.8094L73.0424 16.4836H73.0742C73.0742 15.9883 73.3918 15.9471 73.8801 15.9471V15.0012H67.5906V15.9471C68.5859 15.9471 68.5212 16.173 68.6906 16.4836C68.6954 16.4883 68.6824 16.4965 68.6824 16.5012L72.5142 26.4094C72.5518 26.5047 72.5518 26.6035 72.5518 26.7141C72.5518 27.2624 72.0777 27.3577 71.5153 27.3718V28.2988L78.3883 28.3247V27.4059C78.3847 27.4059 78.3847 27.4059 78.3847 27.4059C77.66 27.4059 77.3882 27.2706 77.3882 26.7494C77.3882 26.6671 77.4023 26.5929 77.4635 26.5259L80.0623 20.8624C80.0623 20.8624 82.2835 26.5377 82.2835 26.7353C82.2835 27.2306 82.1129 27.4059 81.4953 27.4059V28.3247L87.867 28.2765V27.3765C86.8988 27.3765 86.8906 27.1706 86.9059 26.7518Z" fill="white"/>
</svg>
