<svg width="118" height="40" viewBox="0 0 118 40" fill="none" xmlns="http://www.w3.org/2000/svg">
    <path d="M78.6298 9.73409H67.4148V40H52.8563V9.73409H41.6188V0.0224392H78.6298V9.73409ZM117.18 9.57702V0H84.1768V30.3916C84.1768 35.6378 88.4313 39.8878 93.6731 39.8878H99.8528H117.35V30.2659H100.409C99.1842 30.2659 98.1878 29.2696 98.1878 28.0444V24.0952H116.418V15.2317H98.1878V9.57702H117.18ZM25.2966 39.9686H0.649414V0.0628296H25.2157C31.7096 0.0628296 36.9694 5.32705 36.9694 11.8164V28.2958C36.9694 34.7403 31.7455 39.9686 25.2966 39.9686ZM23.5104 27.3533V12.5076C23.5104 10.8157 22.1371 9.44687 20.4497 9.44687H15.0598V30.414H20.4497C22.1371 30.414 23.5104 29.0453 23.5104 27.3533Z" fill="#1E3575"/>
</svg>
