<svg width="126" height="40" viewBox="0 0 126 40" fill="none" xmlns="http://www.w3.org/2000/svg">
    <path d="M47.6131 2.2131H44.0875V18.6699H47.5529C53.2671 18.6699 56.8217 15.4817 56.8217 10.3518C56.8217 5.41131 53.2069 2.2131 47.6131 2.2131ZM46.5133 4.46062H46.9986C50.3751 4.46062 54.3959 5.45025 54.3959 10.4018C54.3959 15.3526 50.3751 16.3422 46.9986 16.3422H46.5133V4.46062ZM67.9506 11.8769C67.9506 15.1243 66.7629 16.6993 64.2969 16.6993C61.8314 16.6993 60.6335 15.1343 60.6335 11.8769V2.2131H58.2077V12.5604C58.2077 16.4121 60.6435 19.006 64.2869 19.006C67.9317 19.006 70.3675 16.4221 70.3675 12.5604V2.2131H67.9506V11.8769ZM77.2583 9.63938L84.6849 2.20312H81.4664L74.9716 8.84675V2.20312H72.545V18.6699H74.9716V11.8769L75.5362 11.3325L81.4764 18.6988H84.7837L77.2583 9.63938ZM94.6861 16.4121H88.0811V10.7781H94.5077V8.52064H88.0811V4.46062H94.6861V2.20312H85.6655V18.6699H94.6861V16.4121ZM44.0875 39.6609H53.0981V37.4034H46.5133V31.7694H52.9297V29.5216H46.5133V25.4526H53.0981V23.2041H44.0875V39.6609ZM71.6243 39.6609H80.6648V37.4034H74.0501V31.7694H80.4768V29.5216H74.0501V25.4526H80.6648V23.2041H71.6243V39.6609ZM71.6243 39.6609H80.6648V37.4034H74.0501V31.7694H80.4768V29.5216H74.0501V25.4526H80.6648V23.2041H71.6243V39.6609ZM67.0891 23.2041V34.7304L56.5545 23.2041H55.0784V39.6609H57.5042V28.0265L67.9506 39.6609H69.4957V23.2041H67.0891ZM91.9731 27.9876C91.9751 26.3675 91.1294 24.8652 89.7445 24.0267C88.3885 23.4024 86.8952 23.137 85.4073 23.2541H82.8034V39.6609H85.2292V32.8782H85.7744L90.4869 39.6609H93.4582L88.2894 32.6709C90.51 32.2408 92.0781 30.2461 91.9731 27.9876ZM89.6753 28.0767C89.6753 29.9579 88.4275 30.7997 85.6353 30.7997H85.21V25.4127H85.5264C88.3583 25.4127 89.6753 26.2642 89.6753 28.0668V28.0767ZM102.607 33.4036H106.746C106.518 35.8694 103.915 37.7405 101.716 37.7405C98.3385 37.5766 95.6826 34.7944 95.6757 31.413C95.5937 28.73 97.2728 26.3073 99.8146 25.4416C102.356 24.577 105.165 25.4737 106.736 27.6505L106.885 27.8485L108.548 26.2053L108.429 26.0462C105.941 22.9741 101.673 22.0044 98.1015 23.6996C94.5298 25.3947 92.5825 29.3146 93.389 33.1853C94.1957 37.0552 97.5471 39.8712 101.498 39.9983C105.716 40.0864 109.208 36.7399 109.3 32.5218V31.1558H102.607V33.4036ZM119.51 23.2041L115.697 29.839L111.895 23.2041H109.102L114.489 32.5318V39.6609H116.915V32.5318L122.302 23.2041H119.51ZM120.37 37.2753C120.365 35.8914 121.482 34.7655 122.866 34.7596C124.249 34.7545 125.376 35.8712 125.381 37.2553C125.386 38.6382 124.269 39.7652 122.886 39.77C122.227 39.7752 121.592 39.519 121.123 39.0566C120.653 38.5942 120.385 37.9637 120.38 37.3043C120.38 37.3043 120.37 37.2853 120.37 37.2753ZM120.777 37.2753C120.772 38.434 121.706 39.3788 122.866 39.3837C124.025 39.3899 124.97 38.454 124.975 37.2943C124.981 36.1355 124.045 35.1907 122.886 35.1859C122.332 35.1828 121.8 35.4008 121.405 35.7902C121.012 36.1804 120.79 36.7109 120.787 37.2653L120.777 37.2753ZM124.024 38.7012H123.559L122.846 37.4034H122.322V38.6912H121.916V35.8883H123.093C123.599 35.8883 124.084 36.0374 124.084 36.6318C124.1 36.8208 124.041 37.0081 123.918 37.1531C123.795 37.2984 123.62 37.3883 123.431 37.4034H123.342L124.024 38.7012ZM122.322 36.2946V36.9981H122.757C123.134 36.9981 123.658 37.057 123.658 36.681C123.658 36.3046 123.362 36.3046 123.024 36.3046L122.322 36.2946ZM25.1458 35.1456C24.2401 36.1084 23.0363 36.7358 21.7293 36.9279C19.749 37.0471 17.8186 35.8292 17.234 31.403L9.23335 29.0464C12.729 41.4934 22.4028 41.0571 25.7304 35.6411C25.9573 35.2848 25.8884 35.1067 25.7304 35.0176C25.571 34.9287 25.374 34.9287 25.1458 35.1456ZM25.1458 2.47031C21.9276 -3.96556 10.5212 2.39116 8.54089 19.006C8.37667 19.7687 8.7361 20.5472 9.42139 20.9174C10.4341 21.469 11.538 21.834 12.6798 21.9962C13.5544 22.2014 14.4552 22.2775 15.3528 22.2245C16.1573 22.1894 16.8238 21.5861 16.9368 20.7883C18.6402 2.96553 22.7099 -1.07426 24.6014 2.75751C24.8186 3.20275 25.374 2.96553 25.1358 2.47031H25.1458Z" fill="#005984"/>
    <path d="M23.1755 8.09436C22.375 7.9673 21.5734 8.31954 21.1261 8.99587C20.6537 9.84564 20.3455 10.7751 20.2143 11.7388C20.0032 12.7136 19.9392 13.7153 20.0263 14.709C20.1802 15.2393 20.6626 15.6057 21.2152 15.6098C24.8587 15.8378 35.5523 17.3629 37.0574 20.4722C38.0483 22.6108 35.0771 23.1552 32.8796 23.7196C32.1479 23.8515 31.5756 24.4241 31.4434 25.1555C31.1934 26.2614 31.4086 27.4202 32.038 28.3639C32.3162 28.8333 32.9236 28.9883 33.394 28.7101L33.5231 28.6212C34.6557 27.8746 35.6594 26.9488 36.493 25.8782C43.6424 15.907 28.6515 8.20323 23.1755 8.09436Z" fill="#54B948"/>
    <path d="M26.8493 24.422C8.91739 26.4023 -5.23297 18.2044 5.48093 16.2141C5.48093 16.2141 6.84768 15.897 7.10489 15.1243C7.3621 14.3527 7.44126 14.1347 7.73843 12.9957C7.92647 12.2932 8.09478 11.8969 8.27386 11.3525C8.56001 10.5109 8.02561 10.0057 6.83769 10.5901C-2.95523 15.3725 -0.0931347 24.3039 7.89752 28.7792C13.1293 31.8373 19.3018 32.8702 25.2451 31.6802C26.2319 31.4932 27.0914 30.8958 27.6117 30.0371C28.4174 28.8271 28.7686 27.3712 28.6016 25.9271C28.6165 25.4798 28.4264 25.0504 28.0841 24.7612C27.7429 24.472 27.2876 24.3539 26.8493 24.442V24.422Z" fill="#26BCD7"/>
</svg>
