<svg width="66" height="30" viewBox="0 0 66 30" fill="none" xmlns="http://www.w3.org/2000/svg">
    <g clip-path="url(#clip0_723_623)">
        <path d="M5.93041 27.2564C4.28914 27.2564 3.30242 25.8398 3.30242 23.6424C3.30242 21.7523 4.04816 20.0283 6.11147 20.0283C8.09858 20.0283 8.957 21.6474 8.957 23.5375C8.957 25.7043 8.18846 27.2564 5.93041 27.2564ZM11.4567 13.9009H7.24799V15.7388H8.8365V20.0739H8.79154C8.27245 18.9302 7.0682 18.1154 5.38915 18.1154C2.52735 18.1154 0.562378 20.1032 0.562378 23.7465C0.562378 26.6683 2.076 29.168 5.26801 29.168C7.05192 29.168 8.17476 28.4828 8.98693 27.0532H9.03189V28.882H13.038V27.0447H11.4567V13.9009Z" fill="#4F4C4D"/>
        <path d="M15.5293 22.6257C15.5293 21.045 16.613 19.9535 18.2165 19.9535C19.9255 19.9535 20.8139 20.9929 20.8517 22.6257H15.5293ZM23.3019 22.0656C22.8381 19.5998 20.9872 18.1155 18.3513 18.1155C15.0095 18.1155 12.7892 20.2166 12.7892 23.5525C12.7892 27.0226 14.8141 29.168 18.3969 29.168C20.7312 29.168 22.9971 28.1748 23.3514 25.6289C23.3514 25.6289 20.8367 25.6289 20.8367 25.6294C20.4713 26.6669 19.5999 27.257 18.3188 27.3149L18.2393 27.3129C16.5108 27.2347 15.5293 26.1874 15.5293 24.3872H23.4718C23.4718 23.633 23.4477 22.8443 23.3019 22.0653" fill="#4F4C4D"/>
        <path d="M35.8986 18.4021H30.4994V20.24H32.1791L29.6345 26.6684L27.166 20.24H28.8431V18.4021H23.2126V20.24H24.3869L27.9411 28.8821H31.1025L34.723 20.24H35.8986V18.4021Z" fill="#4F4C4D"/>
        <path d="M41.0302 27.2565C38.9747 27.2565 38.1775 25.4641 38.1775 23.6424C38.1775 21.8201 38.9747 20.0284 41.0302 20.0284C43.0857 20.0284 43.8542 21.8201 43.8542 23.6424C43.8542 25.4641 43.0857 27.2565 41.0302 27.2565ZM41.0302 18.1155C37.7027 18.1155 35.4368 20.1717 35.4368 23.6424C35.4368 27.1125 37.7027 29.168 41.0302 29.168C44.357 29.168 46.5942 27.1125 46.5942 23.6424C46.5942 20.1717 44.357 18.1155 41.0302 18.1155Z" fill="#4F4C4D"/>
        <path d="M57.9535 27.0448V22.1359C57.9535 19.5392 56.944 18.1155 54.2203 18.1155C52.6982 18.1155 51.3207 18.8775 50.674 20.2166H50.6284V18.4021H46.6157V20.24H48.1899V27.0448H46.6157V28.8821H52.3081V27.0448H50.8088V23.0028C50.8088 21.4899 51.5623 20.0284 53.3078 20.0284C54.7231 20.0284 55.3334 21.0678 55.3334 22.3405V27.0448H53.8354V28.8821H59.5271V27.0448H57.9535Z" fill="#4F4C4D"/>
        <path d="M65.5184 10.7454H46.6164V7.98975H65.5184V10.7454Z" fill="#F1471D"/>
        <path d="M65.5183 3.51467H53.072V0.759033H65.5183V3.51467Z" fill="#F1471D"/>
        <path d="M65.5184 7.12949H41.21V4.37451H65.5184V7.12949Z" fill="#F1471D"/>
    </g>
    <defs>
        <clipPath id="clip0_723_623">
            <rect width="66" height="29.4491" fill="white"/>
        </clipPath>
    </defs>
</svg>
