<svg width="160" height="38" viewBox="0 0 160 38" fill="none" xmlns="http://www.w3.org/2000/svg">
<path d="M42.5668 30.6314C40.8959 30.6314 39.5588 31.9012 39.5588 33.5732C39.5588 35.3114 40.8959 36.5812 42.5668 36.5812C44.2376 36.5812 45.5085 35.244 45.5085 33.5732C45.5759 31.9686 44.305 30.6314 42.5668 30.6314ZM42.5668 35.9126C41.3633 35.9126 40.4273 34.9103 40.4273 33.6394C40.4273 32.3686 41.3633 31.4337 42.5668 31.4337C43.7702 31.4337 44.7062 32.3697 44.7062 33.6394C44.7062 34.9092 43.7702 35.9126 42.5668 35.9126ZM37.6868 30.7652H38.489V34.5092C38.489 35.7789 37.553 36.6486 36.2159 36.6486C34.8788 36.6486 33.9428 35.78 33.9428 34.5092V30.7652H34.745V34.5092C34.745 35.3777 35.3462 35.9126 36.2159 35.9126C37.0856 35.9126 37.6868 35.3777 37.6868 34.5092V30.7652ZM62.6205 33.6394H64.2913V36.5812H63.5565V35.98C63.5565 35.98 62.9553 36.7149 61.7519 36.7149C60.2148 36.7149 58.8776 35.5114 58.8776 33.7069C58.8776 32.036 60.1473 30.6989 61.8193 30.6989C63.2228 30.6989 63.9588 31.3674 63.9588 31.3674L63.625 31.9686C63.625 31.9686 62.9565 31.4337 62.0205 31.4337C60.6833 31.4337 59.8148 32.436 59.8148 33.6394C59.8148 34.9766 60.7508 35.9126 61.9542 35.9126C62.9565 35.9126 63.625 35.1777 63.625 35.1777V34.3092H62.689V33.6406L62.6205 33.6394ZM50.4548 30.7652H51.257V34.5092C51.257 35.7789 50.321 36.6486 48.9839 36.6486C47.6468 36.6486 46.7108 35.78 46.7108 34.5092V30.7652H47.513V34.5092C47.513 35.3777 48.1142 35.9126 48.9839 35.9126C49.8536 35.9126 50.4548 35.3777 50.4548 34.5092V30.7652ZM58.9439 15.8577L58.6765 16.1252C58.5428 16.2589 55.1336 19.668 53.9302 23.0772H47.9805C49.3176 17.9972 55.8685 12.7823 55.9348 12.716L56.2685 12.4486L55.9348 12.1812C55.8673 12.1137 50.1862 7.36858 48.0468 2.02001H54.0628C55.4662 6.23144 58.4742 8.70459 58.6079 8.77201L58.8079 8.97201L59.0079 8.77201C59.1416 8.6383 62.217 6.16516 63.6868 2.02001H69.7028C67.4296 7.36744 61.7485 12.1137 61.681 12.1812L61.3473 12.4486L61.681 12.716C61.7485 12.7834 68.2993 17.9297 69.769 23.0772H63.8193C62.6833 19.7343 59.1405 16.2589 59.0068 16.1252L58.9393 15.8577H58.9439ZM56.0696 35.0429C56.0696 35.9114 55.401 36.6474 54.1976 36.6474C52.9942 36.6474 52.2593 35.9126 52.2593 35.9126L52.7268 35.3114C52.7268 35.3114 53.3279 35.9126 54.1976 35.9126C54.7325 35.9126 55.1999 35.5789 55.1999 35.044C55.1999 33.7743 52.3919 34.0417 52.3919 32.3034C52.3919 31.4349 53.1942 30.6989 54.2639 30.6989C55.3336 30.6989 55.9348 31.3 55.9348 31.3L55.5336 31.9686C55.5336 31.9686 54.9988 31.5012 54.2639 31.5012C53.6628 31.5012 53.1942 31.9023 53.1942 32.3697C53.2616 33.4394 56.0685 33.1046 56.0685 35.044L56.0696 35.0429ZM25.4536 30.7652H26.2559V36.5812H25.4536V30.7652ZM18.1679 30.7652H18.9702V36.5812H18.1679L15.561 32.8372C15.361 32.436 15.0936 31.9686 15.0936 31.9686C15.0936 31.9686 15.161 32.5034 15.161 32.8372V36.5812H14.3588V30.7652H15.161L17.7679 34.5092C17.9679 34.8429 18.2353 35.3777 18.2353 35.3777C18.2353 35.3777 18.1679 34.8429 18.1679 34.5092V30.7652ZM36.4833 23.4783C40.9622 23.4783 43.8365 21.6063 44.8388 20.804C44.1702 20.4703 41.8308 19.3332 41.4959 19.1332C41.0285 19.668 39.4902 20.2029 36.9508 20.2029C33.809 20.2029 32.4719 18.8657 32.4719 14.3206V13.9869H32.8056C37.953 13.9869 41.8296 13.0509 45.1725 10.9114C45.2399 10.644 45.4399 9.77544 45.4399 9.03944C45.4399 5.56287 43.1005 1.55258 36.5496 1.55258C29.5976 1.55258 26.1885 5.16287 26.1885 12.5149C26.1885 20.2017 29.2639 23.4772 36.4833 23.4772V23.4783ZM32.473 10.9789C32.473 7.76973 32.9405 4.62801 36.6845 4.62801C38.6228 4.62801 39.9599 5.56401 39.9599 7.97087C39.9599 8.70573 39.5588 9.50801 39.5588 9.57544L39.4913 9.70916L39.2913 9.84287C37.4193 10.8452 36.417 11.38 32.8068 11.38H32.473V10.9789ZM66.3645 35.8452H68.9713V36.58H65.5622V30.764H66.3645V35.8452ZM21.777 12.3149C21.777 4.89544 18.033 1.28516 10.4136 1.28516H2.12447V23.4783H10.4136C18.0342 23.412 21.777 19.8017 21.777 12.3149ZM8.2079 4.6943H10.6148C11.1496 4.6943 11.6845 4.76058 12.2856 4.96173C14.2239 5.96401 15.1599 7.90344 15.1599 12.3812C15.1599 17.3274 14.0239 19.3332 11.617 20.068L10.6148 20.1343H8.2079V4.69316V4.6943ZM10.2125 30.6314C8.54162 30.6314 7.20447 31.9012 7.20447 33.5732C7.20447 35.3114 8.54162 36.5812 10.2125 36.5812C11.8833 36.5812 13.1542 35.244 13.1542 33.5732C13.1542 31.9686 11.8845 30.6314 10.2125 30.6314ZM10.2125 35.9126C9.00904 35.9126 8.07304 34.9103 8.07304 33.6394C8.07304 32.3686 9.00904 31.4337 10.2125 31.4337C11.4159 31.4337 12.3519 32.3697 12.3519 33.6394C12.3519 34.9092 11.3496 35.9126 10.2125 35.9126ZM31.6708 30.7652H32.473V36.5812H31.6708L29.0639 32.8372C28.8639 32.5034 28.5965 31.9686 28.5965 31.9686C28.5965 31.9686 28.6628 32.5034 28.6628 32.8372V36.5812H27.8605V30.7652H28.6628L31.2696 34.5092C31.4696 34.8429 31.737 35.3777 31.737 35.3777C31.737 35.3777 31.6708 34.8429 31.6708 34.5092V30.7652ZM6.06847 35.1766L6.5359 35.7777C6.5359 35.7777 5.73362 36.7137 4.26276 36.7137C2.52447 36.6474 1.32104 35.3103 1.32104 33.6383C1.32104 31.9 2.59076 30.6303 4.26276 30.6303C5.66619 30.6303 6.40219 31.3652 6.40219 31.3652L6.00104 32.0337C6.00104 32.0337 5.33247 31.4326 4.33019 31.4326C3.06047 31.4326 2.19076 32.4349 2.19076 33.6383C2.19076 34.908 3.05933 35.9114 4.33019 35.9114C5.3999 35.9114 6.06847 35.1766 6.06847 35.1766ZM19.8388 30.7652H24.6513V31.5H22.6456V36.58H21.8433V31.5H19.8376L19.8388 30.7652ZM145.176 30.7652H145.978V36.5812H145.176L142.569 32.8372C142.369 32.5034 142.102 31.9686 142.102 31.9686C142.102 31.9686 142.168 32.5034 142.168 32.8372V36.5812H141.366V30.7652H142.168L144.775 34.5092C144.975 34.8429 145.242 35.3777 145.242 35.3777C145.242 35.3777 145.176 34.8429 145.176 34.5092V30.7652ZM138.96 30.7652H139.762V36.5812H138.96V30.7652ZM129.535 30.6314C127.864 30.6314 126.527 31.9012 126.527 33.5732C126.527 35.3114 127.864 36.5812 129.535 36.5812C131.206 36.5812 132.476 35.244 132.476 33.5732C132.543 31.9686 131.207 30.6314 129.535 30.6314ZM129.535 35.9126C128.331 35.9126 127.395 34.9103 127.395 33.6394C127.395 32.3686 128.331 31.4337 129.535 31.4337C130.738 31.4337 131.674 32.3697 131.674 33.6394C131.674 34.9092 130.738 35.9126 129.535 35.9126ZM136.487 34.0406C137.088 33.8406 137.556 33.172 137.556 32.436C137.556 31.7 137.155 31.0989 136.554 30.8989C136.354 30.8326 136.087 30.7652 135.484 30.7652H133.68V36.5812H134.482V34.2417H135.752L136.955 36.5812H137.891L136.688 34.308C136.554 34.108 136.487 34.0406 136.487 34.0406ZM135.684 33.5057H134.548V31.4337H135.484C135.952 31.4337 136.153 31.5 136.287 31.5674C136.554 31.7012 136.754 32.0349 136.754 32.436C136.688 33.1046 136.287 33.5057 135.684 33.5057ZM121.446 30.7652H126.258V31.5H124.252V36.58H123.45V31.5H121.444L121.446 30.7652ZM150.858 33.6394H152.529V36.5812H151.794V35.98C151.794 35.98 151.193 36.7149 149.99 36.7149C148.452 36.7149 147.115 35.5114 147.115 33.7069C147.115 32.036 148.385 30.6989 150.057 30.6989C151.46 30.6989 152.196 31.3674 152.196 31.3674L151.795 31.9686C151.795 31.9686 151.127 31.4337 150.191 31.4337C148.854 31.4337 147.985 32.436 147.985 33.6394C147.985 34.9766 148.921 35.9126 150.124 35.9126C151.127 35.9126 151.795 35.1777 151.795 35.1777V34.3092H150.859V33.6406L150.858 33.6394ZM158.345 2.75601C158.145 2.35487 157.81 2.02116 157.409 1.82001C157.008 1.61887 156.607 1.4863 156.206 1.4863C155.804 1.4863 155.403 1.62001 155.002 1.82001C154.601 2.02001 154.267 2.35487 154.066 2.75601C153.866 3.15716 153.732 3.5583 153.732 4.02573C153.732 4.42687 153.866 4.8943 154.066 5.22916C154.266 5.6303 154.601 5.89773 155.002 6.16516C155.403 6.36516 155.804 6.49887 156.206 6.49887C156.607 6.49887 157.074 6.36516 157.409 6.16516C157.81 5.96516 158.078 5.6303 158.345 5.22916C158.545 4.82801 158.679 4.42687 158.679 4.02573C158.679 3.5583 158.611 3.15716 158.345 2.75601ZM158.011 5.02916C157.811 5.36287 157.544 5.6303 157.276 5.76401C156.943 5.96401 156.608 6.03144 156.274 6.03144C155.94 6.03144 155.539 5.96401 155.272 5.76401C154.938 5.56401 154.671 5.29659 154.47 5.02916C154.27 4.69544 154.202 4.36058 154.202 4.02687C154.202 3.69316 154.27 3.29201 154.47 2.95716C154.67 2.62344 154.937 2.35601 155.272 2.2223C155.606 2.0223 155.94 1.95487 156.274 1.95487C156.608 1.95487 156.943 2.02116 157.276 2.2223C157.61 2.4223 157.878 2.68973 158.079 2.95716C158.279 3.29087 158.346 3.62573 158.346 4.02687C158.279 4.36058 158.212 4.69544 158.012 5.02916H158.011ZM156.674 4.2943C156.607 4.22801 156.54 4.16058 156.474 4.16058C156.674 4.16058 156.875 4.0943 157.009 3.89316C157.143 3.75944 157.209 3.55944 157.209 3.3583C157.209 3.22458 157.142 3.09087 157.075 2.95716C157.009 2.82344 156.875 2.75716 156.742 2.68973C156.608 2.62344 156.408 2.62344 156.073 2.62344H155.137V5.29773H155.538V4.22801H155.806C155.939 4.22801 156.073 4.22801 156.139 4.2943C156.273 4.36058 156.407 4.56173 156.607 4.89544L156.874 5.29658H157.409L157.075 4.82916C156.875 4.62916 156.742 4.42801 156.674 4.2943ZM156.072 3.89316H155.537V3.09087H156.004C156.204 3.09087 156.338 3.09087 156.406 3.15716C156.473 3.15716 156.539 3.22344 156.606 3.29087C156.672 3.3583 156.673 3.42458 156.673 3.49087C156.673 3.55716 156.606 3.69087 156.539 3.7583C156.539 3.82458 156.339 3.89201 156.072 3.89201V3.89316ZM119.775 30.7652H120.577V36.5812H119.775V30.7652ZM146.513 23.0109V7.56973C146.513 5.36401 146.246 4.69544 144.641 4.69544C141.833 4.69544 140.697 6.63373 140.631 6.70116L140.564 6.76859V23.012H134.615V7.57087C134.615 5.36516 134.347 4.69658 132.743 4.69658C129.935 4.69658 128.799 6.63487 128.732 6.7023L128.666 6.76973V23.0132H122.784V6.30116C122.784 4.89773 121.38 3.56058 119.842 2.7583C121.046 2.42458 124.387 1.42116 124.588 1.35487C125.257 1.6223 126.862 2.35716 127.329 3.02573L127.529 3.29316L127.796 3.09316C127.796 3.09316 130.471 1.4223 133.946 1.4223C136.487 1.4223 138.291 1.88973 139.361 2.89316L139.561 3.02687L139.761 2.96058C141.967 1.9583 143.972 1.42344 145.777 1.42344C150.59 1.42344 152.328 3.36173 152.328 5.16744V23.0154H146.512L146.513 23.0109ZM91.6993 35.0429C91.6993 35.9114 91.0308 36.6474 89.8273 36.6474C88.6239 36.6474 87.889 35.9126 87.889 35.9126L88.3565 35.3114C88.3565 35.3114 88.9576 35.9126 89.8273 35.9126C90.3622 35.9126 90.8296 35.5789 90.8296 35.044C90.8296 33.7743 88.0216 34.0417 88.0216 32.3034C88.0216 31.4349 88.8239 30.6989 89.8936 30.6989C90.9633 30.6989 91.5645 31.3 91.5645 31.3L91.1633 31.9686C91.1633 31.9686 90.6285 31.5012 89.8936 31.5012C89.2925 31.5012 88.8239 31.9023 88.8239 32.3697C88.8902 33.4394 91.6982 33.1046 91.6982 35.044L91.6993 35.0429ZM73.4502 30.7652H74.2525V34.5092C74.2525 35.7789 73.3165 36.6486 71.9793 36.6486C70.6422 36.6486 69.7062 35.78 69.7062 34.5092V30.7652H70.5085V34.5092C70.5085 35.3777 71.1096 35.9126 71.9793 35.9126C72.849 35.9126 73.4502 35.3777 73.4502 34.5092V30.7652ZM84.2788 30.6314C82.6079 30.6314 81.2708 31.9012 81.2708 33.5732C81.2708 35.3114 82.6079 36.5812 84.2788 36.5812C85.9496 36.5812 87.2205 35.244 87.2205 33.5732C87.2205 31.9686 85.9508 30.6314 84.2788 30.6314ZM84.2788 35.9126C83.0753 35.9126 82.1393 34.9103 82.1393 33.6394C82.1393 32.3686 83.0753 31.4337 84.2788 31.4337C85.4822 31.4337 86.4182 32.3697 86.4182 33.6394C86.4182 34.9092 85.4159 35.9126 84.2788 35.9126ZM80.201 35.1766L80.6685 35.7777C80.6685 35.7777 79.8662 36.7137 78.3953 36.7137C76.657 36.7137 75.4536 35.3766 75.4536 33.7057C75.4536 32.0349 76.7233 30.764 78.3953 30.764C79.7988 30.764 80.5348 31.4989 80.5348 31.4989L80.1336 32.1C80.1336 32.1 79.465 31.4989 78.4628 31.4989C77.193 31.4989 76.3233 32.5012 76.3233 33.7046C76.3233 34.9743 77.1919 35.9777 78.4628 35.9777C79.465 35.9114 80.201 35.1766 80.201 35.1766ZM79.5999 12.516C79.5999 18.1309 81.137 20.2029 84.4125 20.2029C86.8856 20.2029 88.1553 19.7354 88.6239 19.2006C89.025 19.4006 91.3645 20.604 92.033 20.9389C91.1645 21.6737 88.4902 23.5457 84.2788 23.5457C76.9919 23.5457 73.1828 19.7354 73.1828 12.5834C73.1828 5.36401 76.993 1.62116 84.2788 1.62116C88.4902 1.62116 91.1645 3.49316 92.033 4.22801C91.3645 4.56173 89.025 5.76516 88.6239 5.9663C88.1565 5.43144 86.953 4.96401 84.4799 4.96401C81.137 4.8303 79.5999 6.83601 79.5999 12.5172V12.516ZM105.47 1.4863C98.8513 1.4863 94.841 5.56401 94.841 12.4486C94.841 19.3332 98.785 23.412 105.47 23.412C112.088 23.412 115.964 19.3343 115.964 12.4497C116.031 5.63144 112.088 1.48744 105.47 1.48744V1.4863ZM105.47 19.9354C102.595 19.9354 101.326 18.1309 101.326 12.516C101.326 6.90116 102.595 5.09659 105.47 5.09659C108.278 5.09659 109.48 6.83487 109.48 12.516C109.546 18.1983 108.344 19.9354 105.47 19.9354ZM93.705 35.8452H96.3793V36.58H92.9039V30.764H96.2468V31.4989H93.7062V33.3034H95.7782V33.972H93.7062V35.844L93.705 35.8452ZM117.368 30.7652H118.17V36.5812H117.368L114.761 32.8372C114.561 32.5034 114.294 31.9686 114.294 31.9686C114.294 31.9686 114.36 32.5034 114.36 32.8372V36.5812H113.558V30.7652H114.36L116.967 34.5092C117.167 34.8429 117.434 35.3777 117.434 35.3777C117.434 35.3777 117.368 34.8429 117.368 34.5092V30.7652ZM109.414 30.6314C107.743 30.6314 106.406 31.9012 106.406 33.5732C106.406 35.3114 107.743 36.5812 109.414 36.5812C111.084 36.5812 112.355 35.244 112.355 33.5732C112.355 31.9686 111.086 30.6314 109.414 30.6314ZM109.414 35.9126C108.21 35.9126 107.274 34.9103 107.274 33.6394C107.274 32.3686 108.21 31.4337 109.414 31.4337C110.617 31.4337 111.553 32.3697 111.553 33.6394C111.553 34.9092 110.617 35.9126 109.414 35.9126ZM104.935 30.7652L105.402 36.5812H104.6L104.332 32.9046V32.036C104.332 32.036 104.132 32.5709 103.999 32.9046L102.863 35.5114H102.128L100.992 32.9046C100.858 32.5709 100.658 32.036 100.658 32.036V32.9046L100.391 36.5812H99.5885L100.056 30.7652H100.924L102.262 33.9069C102.395 34.2406 102.529 34.7092 102.529 34.7092C102.529 34.7092 102.663 34.2417 102.796 33.9069L104.134 30.7652H104.935Z" fill="#63A844"/>
</svg>
