<svg width="160" height="24" viewBox="0 0 160 24" fill="none" xmlns="http://www.w3.org/2000/svg">
<g clip-path="url(#clip0_112_5269)">
<path fill-rule="evenodd" clip-rule="evenodd" d="M153.833 11.9237C153.833 11.3115 154.487 10.9852 155.202 10.9852C156.407 10.9852 157.305 11.6789 157.468 12.7396H159.837C159.612 10.5568 157.754 9.02698 155.242 9.02698C153.017 9.02698 151.302 10.1897 151.302 12.1478C151.302 14.3306 153.384 14.9017 155.12 15.3507C156.365 15.6769 157.427 15.9422 157.427 16.6766C157.427 17.2681 156.753 17.676 155.814 17.676C154.548 17.676 153.589 16.9621 153.445 15.9014H151.077C151.302 18.084 153.221 19.6344 155.814 19.6344C158.162 19.6344 160 18.39 160 16.4316C160 14.3102 157.918 13.7391 156.182 13.2903C154.916 12.9638 153.833 12.6784 153.833 11.9237ZM140.932 9.25115H138.338V19.4305H140.932V14.045C140.932 12.6578 142.157 11.2095 144.24 11.5359V9.06778C142.667 8.88399 141.544 9.7611 140.932 11.0872V9.25115ZM132.247 14.2082L130.266 10.0469L128.347 14.2082H132.247ZM130.368 4.53906L137.719 19.4305H134.738L133.288 16.3908H127.326L125.917 19.4305H123.017L130.368 4.53906ZM116.178 13.2495H118.812C118.322 10.7812 116.198 9.04718 113.666 9.04718C110.726 9.04718 108.336 11.2707 108.336 14.351C108.336 17.4109 110.726 19.6344 113.666 19.6344C116.198 19.6344 118.322 17.982 118.812 15.5137H116.178C115.769 16.6154 114.81 17.3089 113.666 17.3089C112.134 17.3089 110.909 16.1054 110.909 14.3918C110.909 12.6376 112.134 11.4543 113.666 11.4543C114.81 11.4543 115.769 12.1478 116.178 13.2495ZM104.594 19.4305H107.187V9.25136H104.594V19.4305ZM104.227 6.31387C104.227 7.23177 104.982 7.98649 105.881 7.98649C106.8 7.98649 107.555 7.23177 107.555 6.31387C107.555 5.39597 106.8 4.64105 105.881 4.64105C104.982 4.64105 104.227 5.39597 104.227 6.31387ZM96.3104 10.5158V9.25115H93.7171V19.4305H96.3104V13.2697C96.3104 12.0869 97.2292 11.1484 98.4341 11.1484C99.6794 11.1484 100.558 12.0459 100.558 13.3717V19.4305H103.151V13.1677C103.151 10.7812 101.783 9.02698 99.353 9.02698C98.046 9.02698 96.923 9.59792 96.3104 10.5158ZM87.1664 11.4339C85.5942 11.4339 84.3485 12.617 84.3485 14.3714C84.3485 16.0848 85.5942 17.2885 87.1664 17.2885C88.7388 17.2885 89.9842 16.0848 89.9842 14.3714C89.9842 12.617 88.7388 11.4339 87.1664 11.4339ZM87.1664 19.6344C84.1849 19.6344 81.7757 17.4109 81.7757 14.351C81.7757 11.2707 84.1849 9.04718 87.1664 9.04718C90.1477 9.04718 92.5573 11.2707 92.5573 14.351C92.5573 17.4109 90.1477 19.6344 87.1664 19.6344ZM78.3783 9.25115H75.7848V19.4305H78.3783V14.045C78.3783 12.6578 79.6034 11.2095 81.6863 11.5359V9.06778C80.1139 8.88399 78.9909 9.7611 78.3783 11.0872V9.25115ZM147.679 6.27308L145.127 7.08899V16.7989C145.127 18.3696 146.23 19.4305 148.108 19.4305H150.64V17.1253H148.843C148.047 17.1253 147.679 16.7581 147.679 16.0848V11.4543H150.64V9.25115H147.679V6.27308ZM71.8348 6.27308L69.2825 7.08899V16.7989C69.2825 18.3696 70.3851 19.4305 72.2634 19.4305H74.7959V17.1253H72.9989C72.2026 17.1253 71.8348 16.7581 71.8348 16.0848V11.4543H74.7959V9.25115H71.8348V6.27308ZM65.8167 13.2495H68.4507C67.9606 10.7812 65.8371 9.04718 63.305 9.04718C60.3648 9.04718 57.9756 11.2707 57.9756 14.351C57.9756 17.4109 60.3648 19.6344 63.305 19.6344C65.8371 19.6344 67.9606 17.982 68.4507 15.5137H65.8167C65.4083 16.6154 64.4484 17.3089 63.305 17.3089C61.7736 17.3089 60.5485 16.1054 60.5485 14.3918C60.5485 12.6376 61.7736 11.4543 63.305 11.4543C64.4484 11.4543 65.4083 12.1478 65.8167 13.2495ZM54.2848 13.3311C54.0602 12.1276 52.9982 11.2911 51.7933 11.2911C50.5886 11.2911 49.5881 12.0869 49.241 13.3311H54.2848ZM57.0823 15.1873H49.2208C49.5677 16.4726 50.7111 17.3293 52.0996 17.3293C52.8961 17.3293 53.631 17.0233 54.0602 16.3908H56.9392C56.1635 18.3492 54.3254 19.6344 52.0589 19.6344C48.9958 19.6344 46.5049 17.3905 46.5049 14.3306C46.5049 11.2503 48.8735 9.02698 51.7933 9.02698C54.3254 9.02698 57.1025 10.8832 57.1025 14.7998C57.1025 14.9221 57.0823 15.0447 57.0823 15.1873ZM42.7632 19.4305H45.3566V4.33508L42.7632 5.1512V19.4305ZM31.2107 5.1512H41.5843V7.66013H34.0697V11.0056H40.1546V13.4737H34.0697V16.9621H41.5843V19.4305H31.2107V5.1512Z" fill="#FF4747"/>
<path fill-rule="evenodd" clip-rule="evenodd" d="M11.7515 23.7515C5.27167 23.7515 0 18.4798 0 12C0 5.5201 5.27167 0.248413 11.7515 0.248413C18.2313 0.248413 23.5031 5.52013 23.5031 12C23.5031 18.4798 18.2313 23.7515 11.7515 23.7515ZM13.7405 7.45457H7.09919L6.09151 9.07395H12.7252L13.7405 7.45457ZM15.0978 7.47002L11.0378 13.9348H6.53428L7.57328 12.3141H10.2725L11.3036 10.6941H5.06346L4.0326 12.3141H5.51085L3.45984 15.55H12.0194L15.1809 10.5641L16.3337 12.3141H15.2942L14.3099 13.9348H17.3879L18.4567 15.55H20.4202L15.0978 7.47002Z" fill="#FF4747"/>
</g>
<defs>
<clipPath id="clip0_112_5269">
<rect width="160" height="23.5031" fill="white" transform="translate(0 0.248413)"/>
</clipPath>
</defs>
</svg>
