<svg width="160" height="31" viewBox="0 0 160 31" fill="none" xmlns="http://www.w3.org/2000/svg">
    <g clip-path="url(#clip0_24_8392)">
        <path fill-rule="evenodd" clip-rule="evenodd" d="M60.205 11.6529C59.5997 11.5935 59.2148 11.7532 58.7737 11.8567C55.7133 10.0466 52.3305 8.0114 49.2686 6.54205C51.9685 8.68067 54.8661 10.62 57.3424 12.9823C57.0473 13.0279 57.1021 13.4218 56.8313 13.4933C53.8318 11.9266 50.7227 9.9249 47.8372 8.58636C50.7121 10.7889 53.6401 12.9366 56.4237 15.2304C56.3552 15.8099 56.5165 16.1598 56.6275 16.5598C54.9452 19.7495 52.8187 23.0411 51.4148 26.1684C53.4987 23.4472 55.4198 20.5648 57.7516 18.0931C57.7972 18.3881 58.1911 18.3334 58.2626 18.6041C56.8146 21.6873 54.6927 24.6428 53.4591 27.5982C55.5597 24.6565 57.8078 21.8623 60.0012 19.0118C60.6081 19.0741 61.0203 18.9418 61.431 18.808C64.4914 20.5861 67.8651 22.5954 70.9377 24.0207C68.1907 21.9976 65.4695 19.9503 62.8623 17.7858C63.1331 17.6824 63.1392 17.3127 63.3734 17.1728C66.4034 18.6756 69.4607 20.6941 72.369 21.9763C69.4927 19.8438 66.662 17.6656 63.8845 15.4342C63.8404 14.9353 63.6746 14.555 63.6807 14.0044C65.3919 10.8771 67.4484 7.55053 68.8934 4.49774C66.7974 7.20524 64.7956 10.0086 62.5566 12.5731C62.3756 12.3784 62.1231 12.2552 61.9421 12.062C63.5407 9.09441 65.4816 5.92451 66.8491 3.06642C64.6405 5.93515 62.4988 8.8693 60.205 11.6529ZM59.1829 -5.34058e-05H61.0234C66.5433 0.527758 70.4008 3.09685 72.8801 6.95123C75.4051 10.8802 76.3268 16.788 74.0042 21.7725C71.7074 26.7023 67.6279 29.8965 61.0234 30.6647H59.1829C54.784 30.3574 51.506 28.3526 49.0632 25.8611C46.6052 23.3529 44.7708 19.7297 44.7708 15.3323C44.7708 6.47058 51.1532 0.968868 59.1829 -5.34058e-05Z" fill="#2C6BCC"/>
        <path fill-rule="evenodd" clip-rule="evenodd" d="M108.86 18.8081H114.278C113.321 15.5393 112.641 11.9953 111.517 8.8938C110.586 12.1535 109.763 15.5196 108.86 18.8081ZM104.669 0.81846H118.672C121.632 10.6004 124.749 20.2273 127.77 29.95H117.139C116.896 28.5582 116.494 27.3231 116.117 26.0652H107.019C106.607 27.2881 106.25 28.5658 105.997 29.95H95.3679C98.5044 20.2744 101.381 10.3403 104.669 0.81846Z" fill="#2C6BCC"/>
        <path fill-rule="evenodd" clip-rule="evenodd" d="M0 0.920237C7.292 0.988688 14.8548 0.783344 21.9764 1.02215C21.9079 3.71445 22.1133 6.67748 21.8745 9.19941H9.71051V11.6529H20.3412C20.2728 14.1398 20.4766 16.8991 20.2393 19.2172H9.71051V21.5672C13.7657 21.6357 18.0916 21.4319 21.9764 21.6707C21.9079 24.3964 22.1133 27.3944 21.8745 29.9498H0V0.920237Z" fill="#2C6BCC"/>
        <path fill-rule="evenodd" clip-rule="evenodd" d="M44.3616 0.920189V9.19936C39.2188 8.91188 34.9385 9.33474 33.4251 12.675C32.0059 15.8054 33.3992 19.2765 35.877 20.6485C37.8818 21.7573 41.0122 21.6189 44.3616 21.5672V29.9498C34.9051 30.5126 28.328 29.2227 24.9406 23.9187C22.2194 19.6567 22.0216 13.1663 24.1222 8.58637C27.099 2.09901 34.0274 0.0699139 44.3616 0.920189Z" fill="#2C6BCC"/>
        <path fill-rule="evenodd" clip-rule="evenodd" d="M76.764 0.920233H86.3726V21.4653C89.6778 21.7041 93.4258 21.5003 96.8999 21.5672C95.9736 24.3553 95.0974 27.1937 94.1407 29.9498H76.6621V1.2275C76.653 1.08148 76.6454 0.936968 76.764 0.920233Z" fill="#2C6BCC"/>
        <path fill-rule="evenodd" clip-rule="evenodd" d="M143.511 22.6923C144.411 21.7919 144.351 19.9255 143.613 19.0129C142.607 17.7671 140.095 18.3329 138.093 18.1945C137.856 19.7278 138.062 23.3373 137.991 23.4072C140.148 23.2825 142.455 23.748 143.511 22.6923ZM142.898 11.2432C144.002 10.2758 143.71 8.18285 142.591 7.56377C141.438 6.92645 138.744 7.25804 137.991 7.25804V11.7558C139.737 11.7558 141.911 12.1087 142.898 11.2432ZM128.588 0.919754C129.748 0.939518 144.583 -0.648466 149.44 2.14726C152.321 3.80522 154.4 8.45208 152.097 12.3688C151.402 13.5477 150.341 14.2747 148.826 14.8208C151.416 15.9479 153.739 17.653 153.936 21.1591C154.604 32.9732 139.135 29.3972 128.486 29.9493V1.22702C128.477 1.08252 128.469 0.938009 128.588 0.919754Z" fill="#2C6BCC"/>
        <path d="M157.334 1.2972C157.782 1.29721 158.219 1.41204 158.646 1.6419C159.073 1.87168 159.405 2.20046 159.643 2.62823C159.881 3.05601 160 3.50204 160 3.96635C160 4.42594 159.883 4.86785 159.648 5.29208C159.414 5.71632 159.085 6.0457 158.662 6.28021C158.239 6.51471 157.796 6.63196 157.334 6.63196C156.872 6.63196 156.43 6.51469 156.007 6.28021C155.584 6.0457 155.254 5.71632 155.019 5.29208C154.783 4.86785 154.665 4.42594 154.665 3.96635C154.665 3.50204 154.785 3.05601 155.024 2.62823C155.263 2.20046 155.596 1.87168 156.023 1.6419C156.449 1.4121 156.887 1.29721 157.334 1.2972ZM157.334 1.73912C156.96 1.73912 156.595 1.83524 156.24 2.02724C155.886 2.21932 155.608 2.49389 155.408 2.85096C155.207 3.20804 155.107 3.57983 155.107 3.96635C155.107 4.35053 155.206 4.71878 155.402 5.07114C155.599 5.4235 155.874 5.69807 156.228 5.89486C156.581 6.09165 156.95 6.19004 157.334 6.19004C157.719 6.19004 158.087 6.09164 158.441 5.89486C158.794 5.69807 159.069 5.4235 159.265 5.07114C159.46 4.71878 159.558 4.35053 159.558 3.96635C159.558 3.57983 159.458 3.20804 159.259 2.85096C159.06 2.49389 158.783 2.21932 158.427 2.02724C158.071 1.83516 157.707 1.73912 157.334 1.73912ZM156.164 5.44057V2.56991H157.151C157.488 2.56992 157.732 2.59637 157.882 2.64945C158.033 2.70251 158.153 2.79503 158.243 2.92698C158.333 3.05901 158.377 3.1992 158.377 3.34767C158.377 3.55744 158.302 3.7401 158.153 3.89565C158.003 4.0512 157.805 4.1384 157.557 4.15726C157.658 4.19972 157.74 4.25035 157.801 4.30922C157.917 4.42239 158.058 4.61208 158.225 4.8784L158.575 5.44051H158.01L157.755 4.988C157.555 4.63211 157.393 4.40938 157.271 4.31982C157.186 4.25381 157.062 4.22079 156.9 4.22079H156.627V5.44048L156.164 5.44057ZM156.627 3.82494H157.189C157.458 3.82494 157.641 3.78493 157.739 3.70478C157.837 3.62462 157.886 3.51859 157.886 3.3866C157.886 3.30172 157.862 3.22575 157.815 3.15857C157.768 3.09134 157.703 3.04131 157.619 3.00829C157.535 2.97529 157.38 2.95887 157.154 2.95887H156.627L156.627 3.82494Z" fill="#2C6BCC"/>
    </g>
    <defs>
        <clipPath id="clip0_24_8392">
            <rect width="160" height="30.6647" fill="white"/>
        </clipPath>
    </defs>
</svg>
