<svg width="160" height="34" viewBox="0 0 160 34" fill="none" xmlns="http://www.w3.org/2000/svg">
    <path d="M55.7916 21.1259C55.6704 22.4543 54.6322 26.1507 49.9207 26.1507C45.0893 26.1507 43.9802 22.4543 43.9802 19.7497C43.9802 15.5928 45.791 12.6212 50.1387 12.6212C52.1688 12.6212 55.5028 13.5382 55.8162 17.5493H52.3854C52.2396 16.7032 51.7097 15.3762 50.1387 15.4715C48.0132 15.4715 47.4559 17.5971 47.4559 19.1912C47.4559 20.5932 47.505 23.3713 50.0665 23.3713C51.7832 23.3713 52.3609 21.7295 52.3609 21.1259H55.7916Z" fill="#0099D8"/>
    <path d="M66.3502 19.3854C66.3502 21.0285 65.8665 23.3012 63.256 23.3012C60.6495 23.3012 60.1645 21.0285 60.1645 19.3854C60.1645 17.7422 60.6495 15.4723 63.256 15.4723C65.8665 15.4723 66.3502 17.7422 66.3502 19.3854ZM69.8273 19.3854C69.8273 14.7474 66.7113 12.6206 63.256 12.6206C59.8021 12.6206 56.686 14.7474 56.686 19.3854C56.686 24.0246 59.8021 26.1515 63.256 26.1515C66.7113 26.1515 69.8273 24.0246 69.8273 19.3854Z" fill="#0099D8"/>
    <path d="M83.091 25.8122H79.7107V18.0092C79.7107 17.0664 79.6603 15.4723 77.5116 15.4723C76.0115 15.4723 74.8534 16.486 74.8534 18.4425V25.8122H71.4717V12.9585H74.709V14.8442H74.7567C75.2159 14.0703 76.1832 12.6206 78.6234 12.6206C81.1345 12.6206 83.091 14.0962 83.091 16.922V25.8122Z" fill="#0099D8"/>
    <path d="M98.5314 11.5334H89.3237V15.1808H97.7793V18.2505H89.3237V22.7426H98.9401V25.8123H85.7744V8.46509H98.5314V11.5334Z" fill="#0099D8"/>
    <path d="M103.626 19.483C103.626 17.4529 104.351 15.5441 106.501 15.5441C108.822 15.5441 109.401 17.6219 109.401 19.6765C109.401 21.584 108.556 23.3716 106.405 23.3716C104.231 23.3716 103.626 21.0049 103.626 19.483ZM112.638 8.4646H109.258V14.6257H109.209C108.679 13.8042 107.662 12.6215 105.488 12.6215C102.662 12.6215 100.149 14.796 100.149 19.2418C100.149 22.768 101.742 26.151 105.56 26.151C106.962 26.151 108.458 25.6415 109.281 24.1932H109.33V25.8118H112.638V8.4646Z" fill="#0099D8"/>
    <path d="M118.411 8.29712H115.031V11.4376H118.411V8.29712ZM115.031 25.8119H118.411V12.9582H115.031V25.8119Z" fill="#0099D8"/>
    <path d="M128.194 16.8729C128.053 16.0527 127.761 15.1807 125.926 15.1807C124.089 15.1807 123.849 15.8824 123.849 16.4396C123.849 18.4684 131.892 16.9942 131.892 21.7289C131.892 25.473 128.268 26.1515 126.266 26.1515C123.341 26.1515 120.177 25.1364 120.079 21.7057H123.559C123.559 22.7929 124.235 23.59 126.362 23.59C128.1 23.59 128.51 22.7425 128.51 22.2602C128.51 20.1116 120.539 21.7288 120.539 16.922C120.539 15.0376 121.723 12.6206 125.734 12.6206C128.246 12.6206 131.24 13.2487 131.507 16.8729H128.194Z" fill="#0099D8"/>
    <path d="M142.548 19.3854C142.548 21.0285 142.066 23.3012 139.455 23.3012C136.846 23.3012 136.364 21.0285 136.364 19.3854C136.364 17.7422 136.846 15.4723 139.455 15.4723C142.066 15.4723 142.548 17.7422 142.548 19.3854ZM146.027 19.3854C146.027 14.7474 142.911 12.6206 139.455 12.6206C136.001 12.6206 132.885 14.7474 132.885 19.3854C132.885 24.0246 136.001 26.1515 139.455 26.1515C142.911 26.1515 146.027 24.0246 146.027 19.3854Z" fill="#0099D8"/>
    <path d="M159.289 25.8122H155.908V18.0092C155.908 17.0664 155.859 15.4723 153.709 15.4723C152.211 15.4723 151.052 16.486 151.052 18.4425V25.8122H147.67V12.9585H150.907V14.8442H150.956C151.413 14.0703 152.38 12.6206 154.822 12.6206C157.333 12.6206 159.289 14.0962 159.289 16.922V25.8122Z" fill="#0099D8"/>
    <path d="M37.7046 28.395H16.661C10.4439 28.395 5.38757 23.3374 5.38757 17.1217C5.38757 10.9047 10.4439 5.84846 16.661 5.84846H37.7046V1.92725H16.661C8.28025 1.92725 1.46362 8.74243 1.46362 17.1217C1.46362 25.5011 8.28025 32.3189 16.661 32.3189H37.7046V28.395Z" fill="#0099D8"/>
    <path d="M8.25244 17.1537C8.25244 21.9701 12.171 25.89 16.9874 25.89H37.6755V21.9674H16.9874C14.3346 21.9674 12.1752 19.8092 12.1752 17.1537C12.1752 14.4995 14.3346 12.34 16.9874 12.34H37.6755V8.41736H16.9874C12.171 8.41736 8.25244 12.3373 8.25244 17.1537Z" fill="#0099D8"/>
    <path d="M37.7046 15.1786H16.8571C15.7754 15.1786 14.8965 16.056 14.8965 17.1378C14.8965 18.2224 15.7754 19.1012 16.8571 19.1012H37.7046V15.1786Z" fill="#0099D8"/>
</svg>
