<svg width="66" height="26" viewBox="0 0 66 26" fill="none" xmlns="http://www.w3.org/2000/svg">
    <path fill-rule="evenodd" clip-rule="evenodd" d="M13.6125 6.0499H11.275C11.5021 5.57665 11.8368 4.80184 11.9625 4.26252H8.6625C7.99422 5.65526 8.73071 5.50002 6.1875 5.50002C5.65287 5.50002 5.775 5.14729 5.775 4.26252H2.61254C2.61254 5.09888 2.74996 5.26549 2.74996 6.0499C0.486716 6.0499 0 5.62506 0 7.97486H4.81246C4.66841 8.27529 4.62538 8.8351 4.5375 9.21236H0.4125C0.4125 10.8768 -0.470316 11.1576 1.08695 11.1487C2.14566 11.1425 3.20321 11.1374 4.26254 11.1374L3.20143 17.089C2.83391 19.2835 2.26502 18.8374 6.04996 18.8374C6.60439 18.8374 6.44833 18.269 6.65798 17.108L7.69996 11.1374C8.75945 11.1374 9.81572 11.1391 10.8746 11.1495C11.7058 11.1576 11.702 11.2802 11.8573 10.6197C11.9521 10.2165 11.9951 9.66221 12.1 9.21236H7.97504C8.11912 8.91206 8.16215 8.35228 8.25 7.97486H13.2C13.2 9.00594 12.8425 10.531 12.6891 11.4514C12.4887 12.6531 12.2862 13.7166 12.0991 14.849C11.9135 15.9725 11.6621 17.1423 11.5114 18.2836C11.4082 19.0651 11.7465 18.8517 12.7849 18.8397C13.4723 18.8317 14.1622 18.8374 14.85 18.8374L16.9117 6.46158C17.044 5.98981 16.9159 6.09521 17.4489 6.03627C17.6753 6.01126 18.2897 6.0499 18.5625 6.0499C18.0451 8.2709 16.6359 17.3431 16.1463 20.2713C15.9722 21.3132 15.4001 24.343 15.4001 25.1623C19.5176 25.1623 18.5555 26.012 19.4463 20.6838L21.489 8.56388C21.5949 7.92889 21.8625 6.77811 21.8625 6.0499H25.1625C24.7482 6.91338 24.4272 7.82771 24.0156 8.7529C23.7996 9.23849 23.6429 9.60536 23.4334 10.0968C22.7356 11.734 22.0319 11.2749 30.6626 11.2749C30.6466 11.9904 29.4452 17.9345 29.4251 18.8374C34.4663 18.8374 33.7177 19.245 34.0413 17.2662L35.0625 11.2749H42.2126C42.274 10.5372 42.6067 9.89361 42.6251 9.07495H35.475C35.475 7.59856 36.3552 7.25949 34.6591 7.28024C33.5564 7.29374 32.4529 7.2874 31.35 7.2874C31.3018 7.86768 31.0887 8.46319 31.0751 9.07495H28.05C28.2155 8.36479 28.6987 7.43844 28.9855 6.7104C29.1271 6.35099 29.1303 6.0499 29.5625 6.0499H44.6876L41.828 17.9844L41.6269 16.948C41.5428 16.5102 41.461 15.9626 41.3536 15.4338L40.8375 12.5124H36.8501L37.95 18.8374H46.2C46.213 18.2529 46.5 17.2621 46.6398 16.6646L48.125 10.1749H55.55C55.55 11.1688 55.3851 11.7699 55.2675 12.6424C54.6217 17.4365 55.0452 16.6374 50.6 16.6374C50.5344 17.426 50.325 17.8711 50.325 18.8374H56.6501C59.2686 18.8374 59.1861 15.9967 59.4984 14.1234L60.3049 9.28998C60.4157 8.66766 60.7277 7.97486 60.0875 7.97486H48.675C48.6861 7.47837 48.9258 6.38706 49.0875 6.0499H62.0126C62.0668 5.39736 62.2836 4.4566 62.4251 3.85002H54.45C54.6111 1.91451 55.8433 2.20002 50.8751 2.20002C50.2834 2.20002 50.325 3.32384 50.325 3.85002H30.2501C30.3824 3.28176 30.6426 3.01331 30.8 2.3374H26.8125C26.6506 2.64354 26.5475 2.87854 26.4265 3.18887C26.2863 3.54844 26.2821 3.85002 25.85 3.85002H17.4626C17.4626 1.68618 18.6448 2.20002 20.7626 2.20002C21.2058 2.20002 22.9415 2.26464 23.2385 2.20098C23.7644 2.08796 23.7875 1.65173 23.7875 0.274902H16.2251C14.8021 0.274902 14.438 1.11614 14.2196 2.39456C14.1039 3.07162 14.0016 3.57134 13.9055 4.14283C13.8059 4.7338 13.625 5.48603 13.6125 6.0499Z" fill="#016A60"/>
    <path fill-rule="evenodd" clip-rule="evenodd" d="M5.775 1.65C4.76404 1.65 3.75246 1.65927 2.74183 1.64188C1.97465 1.62875 1.51245 1.22892 1.51245 3.43758H13.0625C13.1108 2.8573 13.3239 2.26179 13.3375 1.65H9.34995C9.36391 1.02184 9.57617 0.586938 9.62504 0H7.2332C5.29788 0.025344 6.45318 0.236478 5.775 1.65Z" fill="#016A60"/>
    <path fill-rule="evenodd" clip-rule="evenodd" d="M21.5875 18.8375H25.5749C25.6719 18.4209 26.0178 17.7225 26.2155 17.278L28.1875 12.5125H24.0625C23.8294 13.5128 23.2011 14.6969 22.8054 15.6554C22.5153 16.3583 21.6525 18.0567 21.5875 18.8375Z" fill="#016A60"/>
    <path fill-rule="evenodd" clip-rule="evenodd" d="M51.7001 25.1623C53.4592 25.1623 53.2976 25.3325 53.5258 24.1007C53.5952 23.7263 53.7519 23.1687 53.7626 22.6873C54.3592 23.087 54.8486 23.7026 55.3791 24.2334C56.3644 25.2192 55.7434 25.1623 57.6125 25.1623C57.7411 23.6166 58.3118 21.8618 58.4375 20.3499H56.375C56.375 21.265 56.0323 21.9859 55.9625 22.8249C55.5405 22.5423 55.042 21.8371 54.4158 21.2091C53.4367 20.2272 53.9234 20.3499 52.1126 20.3499L51.4359 24.2269C51.333 24.7777 51.1412 25.1623 51.7001 25.1623Z" fill="#F39802"/>
    <path fill-rule="evenodd" clip-rule="evenodd" d="M31.35 23.9248H30.9375C30.9375 23.4587 31.1009 21.5849 31.4887 21.5639C34.024 21.4265 33.0876 23.9248 31.35 23.9248ZM28.6001 25.1623C30.887 25.1623 34.1981 25.4601 34.9459 23.3948C36.213 19.8959 31.8598 20.3498 29.7 20.3498C29.1217 20.3498 29.2226 21.2604 28.977 22.5145C28.8442 23.194 28.6001 24.3411 28.6001 25.1623Z" fill="#F39802"/>
    <path fill-rule="evenodd" clip-rule="evenodd" d="M22.9624 22.6874C22.8843 22.794 21.8727 23.7267 21.6845 23.8844C21.2127 24.2792 20.6576 24.5254 20.4874 25.1624C23.8954 25.1624 22.1629 25.2436 24.3375 23.7875C25.2276 25.4696 25.3925 25.1624 27.225 25.1624C27.8488 25.1624 27.5389 24.8364 27.1754 24.3965C27.0169 24.2048 27.0002 24.1965 26.848 24.027C26.4479 23.5812 25.9859 23.1328 25.8499 22.55C26.9893 21.787 26.9457 21.5445 27.6209 21.0208C27.9701 20.7499 28.0547 20.8475 28.1875 20.3499C27.6136 20.3499 26.3831 20.2331 25.9176 20.4176C25.3882 20.6273 25.2992 21.2665 24.6124 21.4499C24.216 21.1845 24.0156 20.7812 23.7874 20.3499H21.45C21.6353 21.0437 22.7492 21.8885 22.9624 22.6874Z" fill="#F39802"/>
    <path fill-rule="evenodd" clip-rule="evenodd" d="M44.4125 22.6874C44.4125 24.5146 45.7469 25.1965 47.1563 25.3H47.9608C49.0533 25.2241 50.0442 24.8583 50.325 24.475C50.1794 23.9293 49.8167 23.848 49.5 23.375C46.5443 25.3542 45.0345 21.4499 48.4001 21.4499C49.0083 21.4499 49.8714 22.5362 50.8751 21.0374C50.5184 20.7987 50.1936 20.585 49.7238 20.4011C48.3804 19.8757 46.6986 20.0802 45.6167 20.7292C44.9799 21.1111 44.4125 21.7158 44.4125 22.6874Z" fill="#F39802"/>
    <path fill-rule="evenodd" clip-rule="evenodd" d="M35.75 25.1623H37.8125C37.8564 24.6353 38.0438 24.1768 38.0876 23.6499H40.8375L40.9985 22.5538L38.3625 22.5499L38.5001 21.4498C42.1343 21.4498 41.3475 21.7023 41.6625 20.3499H36.575C36.3407 20.8384 35.75 24.3251 35.75 25.1623Z" fill="#F39802"/>
    <path fill-rule="evenodd" clip-rule="evenodd" d="M41.8001 25.1622C43.046 25.1622 43.1464 25.3009 43.319 24.4574C43.5145 23.5023 43.4423 23.6498 41.9375 23.6498C41.4875 23.6498 41.5105 23.9415 41.4363 24.4168C41.3686 24.8508 41.321 25.1622 41.8001 25.1622Z" fill="#F39802"/>
    <path fill-rule="evenodd" clip-rule="evenodd" d="M63.7999 2.3374C64.4239 2.17095 64.2124 1.91467 64.2124 1.0999C64.3057 1.20709 64.2894 1.15138 64.3859 1.33912C64.8529 2.2484 64.3217 1.91385 64.9 2.3374C65.357 2.00252 65.1185 2.16039 65.4006 1.46303C65.4166 1.42324 65.4704 1.30615 65.4861 1.27352L65.5875 1.0999C65.5875 1.91467 65.3762 2.17095 66 2.3374C66 1.44729 65.8624 0.970806 65.8624 0.274902C65.3135 0.320706 65.1238 0.613186 65.0374 1.64995C64.6972 1.40066 64.7594 1.3076 64.5916 0.858243C64.4325 0.431784 64.475 0.319716 63.9375 0.274902C63.9375 1.1894 63.7999 1.46515 63.7999 2.3374Z" fill="#016A60"/>
    <path fill-rule="evenodd" clip-rule="evenodd" d="M61.875 0.687402H62.5625C62.5625 2.30265 62.4382 2.19415 62.975 2.3374V0.687402C63.785 0.687402 63.6799 0.724758 63.8 0.274902H61.875V0.687402Z" fill="#016A60"/>
</svg>
