<svg width="68" height="41" viewBox="0 0 68 41" fill="none" xmlns="http://www.w3.org/2000/svg">
    <g clip-path="url(#clip0_24_8686)">
        <path d="M22.3893 18.7826C22.6725 18.7826 22.9911 18.7826 23.2743 18.7118C23.2035 19.5967 23.2035 20.5171 23.1327 22.641V25.3313C23.1327 26.995 23.2743 28.0215 23.4159 28.4463C23.9823 29.756 25.1504 30.995 27.2035 30.9242C29.0088 30.8534 30.2478 30.287 30.9911 28.8003C31.4867 27.7737 31.5575 27.0658 31.6283 24.4463V22.7826C31.5575 21.3313 31.4867 20.3755 31.4159 18.7118C31.6283 18.7472 31.8407 18.7826 32.0531 18.7826C32.2655 18.7826 32.4778 18.7826 32.6902 18.7118C32.6194 19.2782 32.5486 22.4286 32.5486 22.4286V24.4109C32.5486 27.0304 32.407 27.5967 32.1239 28.4817C31.9469 29.1543 31.5575 29.756 31.0265 30.2162C30.1416 31.2428 28.6902 31.7383 26.9557 31.7383C25.3628 31.7383 23.8407 31.3136 22.9557 30.4994C22 29.5436 21.646 28.6941 21.646 26.7118V22.287C21.646 20.9773 21.5044 19.4552 21.4336 18.7118C21.7522 18.7826 22.0708 18.818 22.3893 18.7826Z" fill="#003471"/>
        <path d="M14.9557 18.287C14.9557 18.287 15.4512 19.5967 15.9114 20.6233C16.6548 22.0746 17.7875 24.7649 18.2477 25.8622C18.6725 26.8888 19.8406 29.3666 19.8406 29.3666L20.8672 31.5613C20.5132 31.5613 20.23 31.4905 19.8406 31.4905C19.4866 31.4905 19.1681 31.4905 18.8141 31.5613L18.0707 29.6852C17.9291 29.1896 17.7167 28.6941 17.4689 28.2339C17.2565 27.5967 16.9734 26.995 16.6548 26.4286H11.8052C11.7344 26.641 11.3804 27.5259 11.1327 28.1631C10.6371 29.2958 10.2123 30.464 9.89372 31.6675C9.68133 31.5967 9.46894 31.5259 9.22115 31.5259C9.00876 31.5259 8.79637 31.5259 8.54858 31.5967C8.54858 31.5967 8.90257 30.641 9.36274 29.7914C9.92911 28.4817 10.7433 26.7472 11.4158 25.2958C11.9114 24.1277 14.4601 18.4994 14.4601 18.3578H14.9557V18.287ZM13.8583 21.756C13.5751 22.3578 12.1238 25.6144 12.1238 25.6144H16.407C16.407 25.6144 15.6636 23.9153 15.2388 22.8534C14.6017 21.402 14.2831 20.8003 14.2831 20.9065C14.1769 21.1896 14.0353 21.5082 13.8583 21.756Z" fill="#003471"/>
        <path d="M36.3363 18.8534H37.2921L38.7434 18.7826L39.9824 18.7118H40.3363C42.8142 18.7118 43.9116 18.995 45.1505 20.1631C46.3894 21.3313 47.062 22.9596 47.0266 24.6941C47.0266 26.7826 46.1062 28.7649 44.4779 30.0746C43.1682 31.172 41.7169 31.5259 38.4248 31.4552H35.8762C35.5222 31.4552 35.2036 31.4906 34.8496 31.526C34.9204 31.2428 34.9912 28.4817 34.9912 27.8091V24.6233C34.9912 23.8799 34.9912 21.933 34.9204 20.8357C34.9204 20.1985 34.8496 18.7826 34.8496 18.7826C35.3806 18.8534 35.8408 18.8888 36.3363 18.8534ZM38.8142 30.818C39.4868 30.8534 40.1593 30.818 40.8673 30.7472C41.8939 30.641 42.8496 30.1454 43.5576 29.3667C44.6549 28.3401 45.1505 26.7472 45.1505 24.9065C45.0797 23.0304 44.6549 21.2605 43.3452 20.3047C42.3186 19.5967 41.7523 19.4198 39.6992 19.349C38.708 19.349 37.7169 19.4198 36.7257 19.5613L36.5841 19.6321C36.5841 19.9861 36.5133 21.8268 36.5133 23.2074V28.7295C36.5841 29.6144 36.5841 30.11 36.6549 30.7118C37.3629 30.818 38.1062 30.8534 38.8142 30.818Z" fill="#003471"/>
        <path d="M49.0088 18.7118C50.7433 18.7826 51.4866 18.7826 52.3008 18.7826H55.4866C55.4866 18.9242 55.4158 19.1366 55.4158 19.2782C55.4158 19.4198 55.4158 19.7737 55.4866 19.7737C55.0619 19.7029 54.6017 19.7029 53.9645 19.6321C52.23 19.5613 51.7698 19.5613 51.2035 19.5613H50.4955V21.8268C50.4247 22.2162 50.3893 22.6056 50.4247 22.995C50.4247 23.6321 50.4955 24.3047 50.4955 24.3047H53.6105C54.1061 24.2693 54.5663 24.2339 55.0619 24.2339C54.9911 24.2339 54.9911 24.4463 54.9911 24.7295C54.9911 24.9419 55.0619 25.2251 54.9911 25.2251C54.3185 25.1543 52.8672 25.0835 51.7344 25.0835H50.4601V27.7737C50.4601 28.4817 50.5309 29.0127 50.5309 29.0835C50.5309 29.579 50.5309 30.11 50.6017 30.6056C50.7787 30.6764 50.9911 30.6764 51.1681 30.6764C52.6548 30.641 54.1415 30.4994 55.5928 30.3224C55.5574 30.4994 55.522 30.6764 55.522 30.818V31.3844H50.4601C49.8937 31.349 49.292 31.3844 48.7256 31.4551C48.7964 31.4551 48.938 29.933 48.938 28.9065V27.3136L49.0088 24.9773C49.0088 24.9773 48.8672 19.3844 48.7964 18.641H49.0088V18.7118Z" fill="#003471"/>
        <path d="M3.52206 30.7118H4.47781C4.97338 30.7472 5.50436 30.7118 5.99993 30.641C7.02648 30.641 7.73445 30.4994 7.94684 30.4994V31.526H7.52206C7.02648 31.526 6.49551 31.4906 5.99993 31.4552H2.49551C1.46896 31.4552 0.973384 31.526 0.902588 31.526C0.973384 30.8888 1.11498 27.5967 1.11498 25.1897C1.11498 22.7826 0.902588 18.7118 0.902588 18.7118C1.18577 18.7118 1.57515 18.7826 1.85834 18.7826C2.14153 18.7826 2.81409 18.7118 2.81409 18.7118C2.6371 20.5879 2.5663 22.4286 2.6017 24.3047C2.6017 24.3047 2.6017 28.9773 2.6725 30.3578L2.7433 30.641C2.7079 30.7118 3.06188 30.7118 3.52206 30.7118Z" fill="#003471"/>
        <path d="M59.4159 25.3313V27.5967L59.4867 29.4021L59.5575 31.3844V31.526C59.2389 31.4906 58.9203 31.4552 58.6018 31.4552C58.3186 31.4552 58 31.4552 57.7168 31.526L57.7876 29.5437C57.8584 28.0923 57.8584 26.7826 57.8584 24.5171C57.8584 23.0658 57.8584 22.3224 57.7876 20.6587C57.7876 20.0215 57.7168 18.7826 57.7168 18.7826C58.177 18.8534 58.6371 18.8534 59.0973 18.8534C59.4513 18.8534 60.0531 18.7826 60.5487 18.7826C61.4336 18.7118 62 18.7118 62.1416 18.7118C65.1858 18.7118 66.0708 20.1631 66.0708 21.6144C66.0708 23.349 64.5487 24.6587 62 25.1897V25.2605L63.3805 26.9242L64.6195 28.4463L66 30.1808C66.5664 30.9242 66.7433 31.2074 67.0973 31.5613H65.0442L62.8495 28.5525C62.2832 27.7383 60.3009 25.3667 60.2301 25.3667L59.4159 25.3313ZM60.4425 24.6941C61.8938 24.6941 62.4248 24.4817 63.0619 24.0923C63.9115 23.6321 64.4071 22.7118 64.3717 21.756C64.3009 20.3755 63.4867 19.349 61.3274 19.349C60.6902 19.349 60.0531 19.4198 59.4159 19.5613V24.5879C59.7345 24.6941 60.0885 24.6941 60.4425 24.6941Z" fill="#003471"/>
        <path d="M13.3628 2.78255C11.7345 2.85335 10.8141 3.7383 10.8141 5.11883C10.8141 6.07459 11.3805 6.92414 12.2654 7.31353C12.6902 7.45512 13.3628 7.8091 14 8.05689C16.1238 8.72945 16.9734 9.7206 16.9734 11.2427C16.9734 13.6498 14.9203 15.3843 12.3716 15.3843C11.2035 15.4197 10.0707 15.0303 9.18579 14.287C9.18579 14.287 9.39818 13.2604 9.46898 12.8356C9.46898 12.8356 10.7787 14.8887 12.6548 14.7826C14.2123 14.8533 15.5221 13.6144 15.5575 12.0569C15.5575 12.0215 15.5575 11.9861 15.5575 11.9507C15.5575 10.641 14.7433 9.8268 12.8672 9.18963C10.9911 8.55246 10.1769 7.8091 9.82296 7.20733C9.53977 6.71176 9.39818 6.18078 9.39818 5.61441C9.39818 3.56131 11.0619 2.10999 13.469 2.10999C15.4159 2.10999 16.3716 3.06574 16.3716 3.06574C16.1592 3.52591 15.9823 4.02149 15.8761 4.51707C15.9115 4.51707 15.1681 2.78255 13.3628 2.78255Z" fill="#003471"/>
        <path d="M23.3097 3.34895L23.2389 5.47284L23.1681 8.02151C23.1327 8.87107 23.1327 9.72063 23.1681 10.5702C23.1327 12.1277 23.2035 13.6852 23.3097 15.2428C23.3097 15.2428 22.7433 15.172 22.3539 15.172C22.0708 15.172 21.7522 15.2074 21.469 15.2428C21.5398 14.2162 21.6106 13.1189 21.6106 10.641V5.47284C21.6106 5.47284 21.5398 3.87992 21.5398 3.34895L19.5221 3.41974C18.8495 3.41974 18.1416 3.45514 17.469 3.56133C17.469 3.34894 17.5044 3.17195 17.5398 2.95956C17.5398 2.78257 17.5044 2.60558 17.469 2.46399C17.646 2.53479 22.1416 2.53479 22.1416 2.53479H22.7433C24.3363 2.53479 27.2389 2.46399 27.2389 2.46399V2.99496C27.2389 3.20735 27.2743 3.38434 27.3097 3.59673C26.4247 3.45514 25.9292 3.45514 25.0442 3.38434H23.3097V3.34895Z" fill="#003471"/>
        <path d="M1.18577 2.49939C2.92029 2.57018 3.59285 2.57018 4.44241 2.57018C4.93799 2.57018 7.06188 2.57018 7.41586 2.49939H7.62825C7.62825 2.64098 7.55746 2.85337 7.55746 2.99496V3.49054C7.06188 3.49054 6.6017 3.49054 6.10613 3.41974C4.40701 3.34894 3.87604 3.34895 3.38046 3.34895H2.6371V3.56133L2.5663 5.61443V8.02151C2.5663 8.05691 2.6017 8.09231 2.6371 8.09231H4.37161C4.584 8.09231 4.93799 8.09231 5.75215 8.02151H7.13268V8.97726C6.38931 8.97726 5.00878 8.90647 3.76984 8.83567C3.38046 8.83567 2.99108 8.83567 2.6017 8.90647H2.5663V10.1454L2.6371 11.5967V12.9065C2.6371 13.1897 2.7079 13.8622 2.7079 14.3578L2.77869 14.4286H3.38046C4.90259 14.4286 7.09728 14.2162 7.80524 14.1454C7.76984 14.3224 7.73445 14.4994 7.73445 14.641V15.2074H6.14153L4.90259 15.1366L2.5663 15.2074H0.902588C0.902588 15.2074 1.04418 13.756 1.04418 12.7295L1.11498 11.1366V8.80027C1.11498 8.80027 1.04418 3.20735 0.973384 2.46399H1.18577V2.49939Z" fill="#003471"/>
        <path d="M28.938 1.04805H35.6991V0.233887H28.938V1.04805Z" fill="#003471"/>
        <path d="M29.2212 2.49939C30.9557 2.57018 31.6991 2.57018 32.5132 2.57018C33.0088 2.57018 35.2035 2.57018 35.4867 2.49939H35.7698C35.6991 2.67638 35.6991 2.85337 35.6991 2.99496V3.49054C35.2035 3.49054 34.6725 3.49054 34.1769 3.41974C32.5132 3.34894 31.9822 3.34895 31.4159 3.34895H30.7079V8.09231H32.5132C32.7256 8.09231 33.0088 8.09231 33.8937 8.02151H35.2389C35.2389 8.1631 35.2035 8.3047 35.1681 8.44629C35.1681 8.62328 35.2035 8.80027 35.2389 8.94186C34.4955 8.94186 33.115 8.87107 31.876 8.80027C31.4513 8.80027 31.0619 8.80027 30.6371 8.87107V10.1454L30.7079 11.5967V12.9065C30.7079 13.1897 30.7787 13.8622 30.7787 14.3578V14.4286H31.4159C32.8672 14.4286 35.1327 14.2162 35.7698 14.1454C35.7344 14.3224 35.6991 14.4994 35.6991 14.641C35.6991 14.8534 35.6991 15.0304 35.7698 15.2074H34.1769L32.938 15.1366L30.6017 15.2074H28.938C28.938 15.2074 29.0796 13.756 29.0796 12.7295V11.1366L29.1504 8.80027C29.1504 8.80027 29.0796 3.20735 28.938 2.46399L29.2212 2.49939Z" fill="#003471"/>
        <path d="M38.1062 2.49939C39.8407 2.57018 40.5841 2.57018 41.3628 2.57018C41.8584 2.57018 44.0531 2.57018 44.3363 2.49939H44.6195C44.5487 2.67638 44.5487 2.85337 44.5487 2.99496V3.49054C44.0531 3.49054 43.5221 3.49054 43.0265 3.41974C41.3628 3.34894 40.8318 3.34895 40.2655 3.34895H39.5575V8.09231H41.3628C41.5752 8.09231 41.8584 8.09231 42.7433 8.02151H44.1239C44.1239 8.1631 44.0885 8.3047 44.0531 8.44629C44.0531 8.62328 44.0885 8.80027 44.1239 8.94186C43.3805 8.94186 42 8.87107 40.761 8.80027C40.3363 8.80027 39.9469 8.80027 39.5221 8.87107V10.1454L39.5929 11.5967V12.9065C39.5929 13.1897 39.6637 13.8622 39.6637 14.3578V14.4286H40.3009C41.7522 14.4286 44.0177 14.2162 44.6549 14.1454C44.6195 14.3224 44.5841 14.4994 44.5841 14.641C44.5841 14.8534 44.5841 15.0304 44.6549 15.2074H43.0619L41.823 15.1366L39.4867 15.2074H37.823C37.823 15.2074 37.9646 13.756 37.9646 12.7295V11.1366L38.0354 8.80027C38.0354 8.80027 37.9646 3.20735 37.823 2.46399L38.1062 2.49939Z" fill="#003471"/>
        <path d="M5.43356 38.9596L5.29197 39.4551C4.79639 39.7737 4.19463 39.9153 3.62825 39.8799C1.96454 39.8799 0.937988 38.8534 0.937988 37.1896C0.937988 36.4463 1.22117 35.7029 1.75215 35.1365C2.35392 34.6764 3.09728 34.4286 3.87604 34.4994C4.44241 34.464 4.97339 34.5702 5.46896 34.7826C5.39816 34.9596 5.32737 35.1719 5.32737 35.3489H5.25657C4.86719 34.9596 4.33622 34.7472 3.76985 34.7826C3.16808 34.7472 2.56631 35.0303 2.17693 35.4905C1.82294 35.9861 1.64595 36.5525 1.68135 37.1542C1.64595 37.7914 1.85834 38.3932 2.24772 38.8888C2.6017 39.3135 3.13268 39.5613 3.69905 39.5259C4.33622 39.5259 4.90259 39.3135 5.36277 38.8888L5.43356 38.9596Z" fill="#003471"/>
        <path d="M14.6725 37.1897C14.6725 38.8534 13.5752 39.8799 11.8406 39.8799C10.0353 39.8799 8.93799 38.8534 8.93799 37.1897C8.93799 35.5259 10.0353 34.4994 11.8406 34.4994C13.5752 34.4994 14.6725 35.5259 14.6725 37.1897ZM10.1415 35.5259C9.82294 36.0215 9.68135 36.6233 9.71675 37.1897C9.68135 37.756 9.82294 38.3224 10.1415 38.818C10.4955 39.3843 11.1327 39.7029 11.8052 39.7029C12.4424 39.7029 13.0442 39.3843 13.3982 38.818C13.7167 38.3578 13.8583 37.7914 13.8229 37.2251C13.8583 36.6233 13.6814 36.0569 13.3982 35.5613C13.0442 35.0304 12.4424 34.7472 11.8052 34.7472C11.1681 34.7118 10.5309 35.0304 10.1415 35.5259Z" fill="#003471"/>
        <path d="M19.3806 34.4994C19.4514 34.641 19.4514 34.641 19.593 34.9242C19.7345 35.1366 19.8053 35.3489 19.9469 35.5613L20.0885 35.9153C20.5841 36.8003 20.4425 36.6587 20.7965 37.2251C21.0089 37.6852 21.2567 38.11 21.5399 38.5348C21.7169 38.2162 21.9292 37.8976 22.1416 37.579C22.2832 37.2251 22.4602 36.8711 22.6372 36.5525L22.7788 36.1985L22.9912 35.9153L23.2036 35.5613C23.3452 35.2428 23.5222 34.9242 23.6992 34.6056L23.7699 34.464H23.9115C23.9823 34.6056 23.9823 34.5348 23.9823 34.8888C24.0177 35.2428 24.0531 35.6321 24.1239 35.9861V36.2693L24.1947 36.5525V37.1189C24.2655 37.3666 24.3009 37.6498 24.3363 37.933V38.2162L24.4071 38.818C24.4779 39.2428 24.4779 39.4551 24.5487 39.7737C24.4425 39.7383 24.3009 39.7029 24.1947 39.7029C24.0885 39.7029 23.9469 39.7383 23.8407 39.7737C23.8407 39.4197 23.8407 39.0304 23.7699 38.6764C23.6992 37.5082 23.6992 37.5082 23.4868 35.8445C23.3098 36.0569 23.1682 36.3047 23.062 36.5879C22.9912 36.7295 23.062 36.5879 22.7788 37.1543C22.6372 37.4728 22.4602 37.756 22.2832 38.0392C21.7876 39.0658 21.6461 39.2782 21.4691 39.6321H21.3983C21.3275 39.4905 21.3275 39.4905 21.1151 38.995C21.0443 38.8534 21.2567 39.2074 20.5133 37.8268C20.3717 37.5082 20.2301 37.2251 20.0177 36.9419L19.8761 36.6587L19.7346 36.3755L19.593 36.0923L19.5222 36.0215V35.9861C19.3806 36.6587 19.2744 37.3312 19.239 38.0392C19.1682 39.0658 19.1682 39.3489 19.0974 39.8445C18.9558 39.7383 18.7434 39.7383 18.6018 39.8445C18.6726 39.5613 18.6726 39.3489 18.7434 38.9596C18.9558 37.6498 18.885 38.0038 18.885 37.7914C18.9558 37.6144 18.9558 37.4728 18.9558 37.2958L19.0266 37.0127C19.1682 36.1277 19.0974 36.5879 19.239 35.7029C19.3098 34.9596 19.3098 34.9596 19.3806 34.5348V34.4994Z" fill="#003471"/>
        <path d="M29.5044 37.579V39.3843C29.5751 39.5259 29.5751 39.6675 29.5751 39.8091C29.469 39.7737 29.3274 39.7383 29.2212 39.7383C29.0796 39.7383 28.938 39.7737 28.7964 39.8091C28.8672 39.4905 28.8672 39.172 28.8672 38.8534C28.8672 38.3578 28.938 37.4728 28.938 37.1189C28.938 36.4109 28.8672 35.8799 28.8672 35.3844C28.8672 35.1012 28.8318 34.8534 28.7964 34.5702C29.0088 34.641 29.2212 34.641 29.4336 34.641C29.6459 34.641 29.8229 34.6056 30.0353 34.5702H30.4601C31.6282 34.5702 32.1946 34.995 32.1946 35.8799C32.1592 36.3755 31.9468 36.8357 31.5574 37.1189C31.0973 37.3313 30.5663 37.4374 30.0353 37.402H29.5397V37.579H29.5044ZM29.5044 37.1189H29.8583C30.9557 37.1189 31.4513 36.6941 31.4513 35.8799C31.4513 35.2428 31.0265 34.8534 30.1415 34.8534C29.9291 34.8534 29.7521 34.8534 29.5397 34.9242C29.5044 35.1012 29.469 35.2782 29.469 35.4197L29.5044 37.1189Z" fill="#003471"/>
        <path d="M37.4334 34.4994C37.5042 34.7118 37.4334 34.4994 37.6458 35.1012C37.752 35.3843 37.8582 35.6321 37.9998 35.9153C38.7432 37.579 38.4954 37.0835 38.7432 37.6498L38.8848 38.0746C39.3095 38.8888 39.168 38.641 39.2388 38.8888C39.4511 39.3843 39.5219 39.3843 39.6635 39.8445C39.5573 39.7737 39.4157 39.7737 39.3095 39.7737C39.168 39.7737 39.0264 39.7737 38.8848 39.8445C38.814 39.4905 38.7078 39.1366 38.5308 38.818C38.4246 38.464 38.283 38.11 38.106 37.7914H36.2299C35.8759 38.6764 35.8759 38.6056 35.4157 39.8445C35.3449 39.7737 35.2741 39.7737 35.2034 39.7737C35.0972 39.7737 34.991 39.8091 34.9202 39.8445C35.0618 39.4905 35.2034 39.2074 35.4865 38.5348C35.6989 38.11 35.8405 37.6498 36.0883 37.2251C36.3715 36.5879 36.5839 36.1277 36.6547 35.9153C36.8317 35.6675 36.9379 35.3843 37.0087 35.1012C37.1149 34.9596 37.1857 34.818 37.2211 34.6764L37.2918 34.6056V34.5348L37.4334 34.4994ZM36.3361 37.4374H37.9998C37.929 37.3312 37.8582 37.1897 37.7874 37.0835C37.4334 36.1277 37.575 36.4463 37.4334 36.1985C37.3626 35.9861 37.2565 35.7383 37.1503 35.5613L36.3361 37.4374Z" fill="#003471"/>
        <path d="M43.4158 34.4994L43.4866 34.5702C43.7343 34.7826 43.9467 34.995 44.1237 35.2074C44.3361 35.4905 44.5839 35.7737 44.8671 36.0215L45.0795 36.3047L45.3627 36.5171L45.575 36.8003C45.8582 37.0481 46.1414 37.3666 46.3892 37.6852L47.2034 38.4994V38.4286C47.2742 38.287 47.2034 38.4994 47.2742 37.7914V36.8357C47.2742 36.2339 47.2742 35.6321 47.2034 35.0304V34.5702C47.2742 34.6056 47.3804 34.641 47.4866 34.641C47.5574 34.641 47.6281 34.641 47.6989 34.5702V35.2074C47.6281 35.6675 47.6281 36.1277 47.6281 36.5879C47.5574 37.1543 47.5574 37.756 47.5574 38.3224V39.4197C47.5574 39.5613 47.5927 39.7029 47.6281 39.8445H47.4866C47.168 39.4197 46.8494 39.0304 46.46 38.6764C46.106 38.3224 45.7166 37.7914 45.3627 37.5082C45.2211 37.2958 45.4335 37.579 44.6193 36.6941L44.1237 36.1985C43.6281 35.5967 43.7697 35.7737 43.6989 35.7737L43.6281 35.7029V37.6852C43.6281 38.2162 43.6281 38.7472 43.6989 39.2782V39.7737C43.6281 39.7029 43.5574 39.7029 43.4158 39.7029C43.345 39.7029 43.2742 39.7029 43.2034 39.7737C43.2034 39.4551 43.2034 39.1366 43.2742 38.818V37.0835L43.345 36.8003V34.4994H43.4158Z" fill="#003471"/>
        <path d="M52.5132 34.641C52.6194 34.641 52.7609 34.641 52.8671 34.5702C52.8671 34.8534 52.8671 35.172 52.7963 35.4551V38.8888C52.7963 39.2428 52.8671 39.4551 52.8671 39.8445C52.7609 39.8091 52.6194 39.7737 52.5132 39.7737C52.407 39.7737 52.2654 39.7737 52.1592 39.8445V38.8888C52.1592 38.6056 52.1946 38.287 52.23 38.0038V36.8357C52.23 36.3755 52.23 35.9153 52.1592 35.4551V34.5702C52.2654 34.641 52.3716 34.641 52.5132 34.641Z" fill="#003471"/>
        <path d="M58.4601 39.7383H57.646C57.469 39.7029 57.292 39.7383 57.1504 39.8091C57.1504 39.4551 57.2212 39.0658 57.2212 38.3578V35.4551C57.2566 35.172 57.2212 34.8534 57.1504 34.5702C57.3628 34.5702 57.4336 34.641 57.7168 34.641H59.3805C59.6637 34.641 59.6637 34.5702 59.8053 34.5702V34.995H59.2389C59.0973 34.995 58.8849 34.9242 58.5663 34.9242H57.8584V36.1631C57.7876 36.5879 57.7876 36.4463 57.8584 36.4463C57.7876 36.5879 57.7876 36.5879 57.7876 36.6587C57.7876 36.7295 57.7876 36.8003 57.8584 36.8003C57.9292 36.8711 58.0353 36.8711 58.1415 36.8711C58.3185 36.8711 58.4955 36.8357 58.6371 36.8003H59.6637V37.2251C59.2389 37.1543 58.7787 37.1189 58.3539 37.1543H57.7876C57.823 37.1897 57.8584 37.2605 57.8584 37.2959L57.7876 37.8976C57.7876 38.1454 57.823 38.3578 57.8584 38.6056V39.349C57.9292 39.3843 58.0353 39.4197 58.1415 39.4197C58.3539 39.4197 58.5663 39.3843 58.8141 39.349C59.1681 39.3843 59.5575 39.349 59.9115 39.2782V39.7737H59.8407V39.7029L58.4601 39.7383Z" fill="#003471"/>
        <path d="M65.752 35.4552C65.6104 35.0658 65.2211 34.818 64.7963 34.818C64.3361 34.7826 63.9113 35.1012 63.8405 35.5968C63.8405 35.6321 63.8405 35.6675 63.8405 35.7029C63.8051 35.9861 63.9113 36.2693 64.1237 36.4463C64.4069 36.6233 64.6901 36.7649 65.0087 36.8711C65.3273 36.9773 65.6458 37.1543 65.8936 37.3667C66.106 37.5791 66.2476 37.8622 66.2476 38.1808C66.2476 39.2074 65.4335 39.9153 64.3361 39.9153C63.8759 39.9153 63.4512 39.7737 63.0972 39.4906C63.168 39.2782 63.2034 39.0658 63.2388 38.8534H63.3096C63.5219 39.2782 63.9821 39.5614 64.4777 39.5967C65.0441 39.6321 65.5396 39.2074 65.575 38.641C65.575 38.6056 65.575 38.5702 65.575 38.5702C65.575 38.3224 65.5043 38.0392 65.3627 37.8268C65.0795 37.6498 64.7963 37.5083 64.4777 37.4021C63.5219 37.0481 63.2388 36.6941 63.2388 35.9507C63.2388 35.5614 63.3804 35.2074 63.6635 34.9242C64.0175 34.6764 64.4069 34.5702 64.8317 34.5702C65.2565 34.5348 65.6812 34.6764 65.9998 34.9242C65.8582 35.1012 65.7874 35.2782 65.7874 35.526L65.752 35.4552Z" fill="#003471"/>
    </g>
    <defs>
        <clipPath id="clip0_24_8686">
            <rect width="66.1947" height="40" fill="white" transform="translate(0.902588 0.233887)"/>
        </clipPath>
    </defs>
</svg>
