<svg width="160" height="18" viewBox="0 0 160 18" fill="none" xmlns="http://www.w3.org/2000/svg">
    <g clip-path="url(#clip0_30_8734)">
        <path d="M138.323 0.55188H149.583L153.203 12.5482H153.262V0.55188H159.719V17.5723H148.657L144.837 5.23302H144.781V17.5723H138.323L138.323 0.55188Z" fill="#ED1B2F"/>
        <path d="M120.371 17.5582L123.104 11.1101V4.61122H126.389V11.1101L129.35 17.5582H137.133L130.141 0.54834H119.781L112.904 17.5582H120.371Z" fill="#ED1B2F"/>
        <path d="M83.5916 0.55188H94.7101L97.2668 9.86644H97.3232L99.8501 0.55188H110.94V17.5723H104.145V4.20858H104.032L100.187 17.5723H93.9244L90.0917 4.20858H90.0784L90.0917 17.5723H83.5916L83.5916 0.55188Z" fill="#ED1B2F"/>
        <path d="M82.2127 5.57245H75.7447V17.5705H68.2193V5.57245H61.7502V0.549683H82.2126L82.2127 5.57245Z" fill="#ED1B2F"/>
        <path d="M60.3184 5.21004C58.6346 4.69849 56.6403 4.35708 54.5067 4.35708C53.3267 4.35708 51.2771 4.38139 51.2771 5.47858C51.2771 7.69717 61.5826 5.60121 61.5826 12.1587C61.5826 16.7196 56.3874 17.8653 52.0364 17.8653C49.1438 17.8653 46.7573 17.6211 43.9498 17.0599V12.647C45.9705 13.3784 48.4422 13.7695 50.6885 13.7695C52.4574 13.7695 54.0572 13.4513 54.0572 12.5994C54.0572 10.3057 43.7527 12.3796 43.7527 5.77128C43.7527 1.08995 49.3677 0.260132 53.8327 0.260132C55.9386 0.260132 58.2688 0.480008 60.3183 0.845722L60.3184 5.21004Z" fill="#ED1B2F"/>
        <path d="M0.283691 0.55188H17.2705V4.64875H7.64041V7.06181H16.8507V11.1587H7.64041V13.4745H17.4685V17.5725H0.284555L0.283691 0.55188Z" fill="#ED1B2F"/>
        <path d="M26.2263 17.5935L28.962 11.1454V4.64537H32.2446V11.1454L35.2057 17.5935H42.9895L35.9989 0.582764H25.6378L18.7588 17.5935H26.2263Z" fill="#ED1B2F"/>
    </g>
    <defs>
        <clipPath id="clip0_30_8734">
            <rect width="160" height="17.6512" fill="white" transform="translate(0 0.233887)"/>
        </clipPath>
    </defs>
</svg>
