<svg width="96" height="41" viewBox="0 0 96 41" fill="none" xmlns="http://www.w3.org/2000/svg">
    <path d="M43.9239 34.3987V31.324H44.8887C46.2474 31.324 47.7351 31.3722 47.7351 32.7655C47.7351 34.2388 46.2999 34.3987 44.6035 34.3987H43.9239ZM43.9239 36.0808H45.177L48.9392 40.6113H52.8799L48.2838 35.6974C49.2501 35.392 51.2607 34.7995 51.2607 32.7329C51.2607 29.7227 47.1871 29.642 45.1766 29.642H40.9475C40.5029 29.642 40.3979 29.6901 40.3979 29.98V40.6172C40.3979 40.6172 40.5029 40.6148 40.9475 40.6148H43.3756L43.9232 40.6172V36.0808H43.9239Z" fill="#004685"/>
    <path d="M71.1454 39.204C69.1874 39.204 68.3527 37.6337 68.3527 35.1352C68.3527 32.6375 69.1878 31.0521 71.1454 31.0521C73.1039 31.0521 73.9398 32.6208 73.9398 35.1352C73.9398 37.6333 73.1039 39.204 71.1454 39.204ZM77.6479 35.1348C77.6479 31.2593 75.1669 29.3696 71.1454 29.3696C67.124 29.3696 64.6438 31.2438 64.6438 35.1348C64.6438 39.0119 67.0973 40.8853 71.1454 40.8853C75.1928 40.8853 77.6479 39.0119 77.6479 35.1348Z" fill="#004685"/>
    <path d="M32.4389 35.7444H37.3781V34.0146H32.4389V31.3722H37.9496L38.6991 29.6416H29.4624H29.4175C29.0548 29.644 28.9355 29.6889 28.9141 29.8933V40.6105L38.5751 40.6137L38.5759 40.2765V39.2203L38.5775 38.8823H32.4389V35.7444Z" fill="#004685"/>
    <path d="M90.9225 29.6415H89.0153L88.4666 29.6392C88.4666 29.6392 88.533 36.2657 88.533 36.7766L82.6437 29.8503C82.4878 29.6742 82.4354 29.6415 82.0437 29.6415H79.9023L79.8415 29.6423C79.5007 29.6447 79.3802 29.6897 79.3547 29.8785V40.6168C79.3547 40.6168 79.4589 40.6144 79.9023 40.6144H81.8091C82.2524 40.6144 82.3578 40.6168 82.3578 40.6168V34.5112C82.3578 33.774 82.3352 33.2872 82.3352 33.0777C82.3352 33.0777 88.3552 40.1205 88.5986 40.3885C88.8392 40.6589 89.1987 40.6144 89.1987 40.6144H90.9221L91.4693 40.6208V29.6392L90.9225 29.6415Z" fill="#004685"/>
    <path d="M3.80709 35.7444H8.74476V34.0146H3.80709V31.3722H9.31738L10.0674 29.6416H0.829461H0.788503C0.395621 29.6444 0.288652 29.6973 0.281494 29.9514V40.6113L9.9425 40.6145V40.2773V39.2211L9.94568 38.8831H3.80709V35.7444Z" fill="#004685"/>
    <path d="M19.277 36.4653L15.0833 29.9351C14.927 29.7597 14.8749 29.7283 14.4833 29.7283H12.3415L11.7927 29.7307V40.7035C11.7927 40.7035 11.8977 40.6995 12.3415 40.6995H14.2486C14.6916 40.6995 14.795 40.7035 14.795 40.7035V34.5975C14.795 33.8603 14.7751 33.5716 14.7751 33.3628C14.7751 33.3628 18.9119 39.9877 19.3211 40.4538L19.3434 40.453C19.7565 39.9854 23.6786 33.3628 23.6786 33.3628C23.6786 33.5716 23.6563 33.8607 23.6563 34.5975V40.7035C23.6563 40.7035 23.7613 40.6995 24.2043 40.6995H26.1099C26.5552 40.6995 26.6594 40.7035 26.6594 40.7035V29.7307L26.1099 29.7283H23.9697C23.5772 29.7283 23.5259 29.7593 23.3696 29.9351L19.3887 36.4653H19.277Z" fill="#004685"/>
    <path d="M61.7309 34.7006C59.5573 33.6599 56.5963 33.5657 56.5963 32.3497C56.5963 31.3881 57.5595 31.0999 58.696 31.0999C60.4735 31.0999 62.0044 31.8041 62.1524 31.8041C62.251 31.8041 62.35 31.7405 62.4244 31.6434L62.5914 31.4267L63.4758 30.3006C63.4758 30.2998 63.4766 30.2998 63.4766 30.2998C63.4766 30.2998 63.4726 30.2982 63.4515 30.2898C63.3962 30.2636 63.2435 30.1936 63.0288 30.1089C62.8546 30.0413 62.7469 30.0039 62.6916 29.9868C61.8104 29.6941 60.1868 29.3693 58.5973 29.3693C55.7322 29.3693 53.1646 30.33 53.1646 32.6368C53.1646 33.9665 53.7714 34.806 55.0809 35.3202C57.5996 36.3127 60.1283 36.2566 60.1283 37.6818C60.1283 38.6744 59.5112 39.1551 58.1277 39.1551C56.0034 39.1551 54.1754 38.4501 54.0295 38.4501C53.9297 38.4501 53.8056 38.5153 53.7567 38.6107L53.4859 39.1142L53.0127 39.9918L53.3996 40.1377C54.1866 40.4491 56.2444 40.8849 58.2263 40.8849C61.3388 40.8849 63.6185 39.8657 63.5601 37.5057C63.5318 36.2896 62.9898 35.309 61.7309 34.7006Z" fill="#004685"/>
    <path d="M93.4825 39.3567V40.6244H93.2777V39.3567H92.7981V39.2374H93.9644V39.3567H93.4825Z" fill="#004685"/>
    <path d="M95.53 40.6244V39.3531L95.0373 40.6244H94.85L94.3509 39.3646V40.6244H94.1875V39.2366H94.4861L94.9681 40.424L95.4286 39.2366H95.7185V40.6244H95.53Z" fill="#004685"/>
    <path d="M44.6842 3.20596C44.6711 3.233 44.6544 3.28669 44.6711 3.36304C44.753 3.573 50.6673 10.8234 50.6673 10.8234L53.6533 12.0661C54.612 12.4785 54.8049 12.3703 54.8697 12.2967L54.884 12.2721C54.9421 12.1619 54.7774 11.9281 54.5385 11.6299L46.6947 2.02453C45.9638 1.1485 46.0275 0.973931 46.0637 0.885254L44.6842 3.20596Z" fill="#96989A"/>
    <path d="M40.7686 9.82256L40.7611 9.83728C40.6975 9.94703 40.8498 10.1983 41.0899 10.4954L41.661 11.1965L46.5267 13.2185L44.9627 11.3038L41.9759 10.0612C41.4303 9.82574 41.1337 9.76013 40.9683 9.76013C40.9667 9.76013 40.9659 9.76013 40.9643 9.76013C40.8486 9.76013 40.7973 9.79353 40.7686 9.82256Z" fill="#96989A"/>
    <path d="M42.1648 7.48708C42.1581 7.49106 42.1283 7.52049 42.1227 7.53083L40.7563 9.83801C40.7603 9.83284 40.7631 9.82807 40.7687 9.82251C40.8383 9.75053 41.0431 9.65867 41.9756 10.0611L52.7727 14.5506C52.9357 14.6095 53.3099 14.7276 53.4646 14.6405C53.4805 14.6305 53.5226 14.58 53.5302 14.5637L54.8758 12.2896C54.8735 12.2919 54.8715 12.2939 54.8691 12.2971C54.8047 12.3707 54.6118 12.4788 53.6527 12.0665L42.8492 7.57497C42.7251 7.53043 42.4921 7.45607 42.3167 7.45607C42.2579 7.45567 42.2042 7.46482 42.1648 7.48708Z" fill="#004685"/>
    <path d="M38.8095 13.129L38.8028 13.1413C38.7399 13.2506 38.8922 13.5024 39.1324 13.7986L39.7034 14.4997L44.4483 16.4736L44.4805 16.486L44.5703 16.5225L43.0056 14.6086L40.018 13.366C39.4724 13.1302 39.1766 13.0634 39.0111 13.0634C38.891 13.0634 38.8385 13.0983 38.8095 13.129Z" fill="#96989A"/>
    <path d="M36.8517 16.4323L36.845 16.4446C36.7813 16.554 36.9352 16.8057 37.1746 17.1019L45.0164 26.7092C45.7158 27.5463 45.7242 27.7165 45.6645 27.8215L47.0277 25.5286C47.0277 25.5286 47.0774 25.4626 47.0476 25.3501C47.0014 25.2236 46.8722 25.0494 46.708 24.845L41.047 17.9116L38.0594 16.6689C37.5154 16.4331 37.218 16.3671 37.0525 16.3671C36.9329 16.3671 36.88 16.4017 36.8517 16.4323Z" fill="#96989A"/>
    <path d="M38.2491 14.0945C38.2431 14.0977 38.234 14.11 38.2332 14.1108C38.224 14.1208 38.2125 14.1291 38.2077 14.1383C38.2077 14.1383 36.8477 16.4379 36.8513 16.4327C36.9197 16.3599 37.1197 16.2633 38.059 16.6693L48.8553 21.158C49.0191 21.2169 49.3937 21.335 49.5488 21.2475C49.5647 21.2392 49.6069 21.1855 49.6144 21.1708L50.9601 18.897C50.9593 18.8994 50.9565 18.9025 50.9541 18.9041C50.8905 18.9769 50.6988 19.0878 49.7369 18.6735L39.7021 14.5005L38.9334 14.1824C38.8086 14.1371 38.5763 14.0639 38.4026 14.0639C38.3421 14.0631 38.2884 14.0722 38.2491 14.0945Z" fill="#004685"/>
    <path d="M47.145 12.2112L48.709 14.1267L51.6962 15.3693C52.6569 15.7825 52.8478 15.6728 52.9122 15.6L52.9269 15.5761C52.9858 15.4648 52.8207 15.2314 52.5813 14.9339L52.0119 14.2344L47.145 12.2112Z" fill="#96989A"/>
    <path d="M40.2063 10.7904C40.2019 10.794 40.1713 10.8238 40.1657 10.8345L38.7986 13.1409C38.8018 13.1369 38.8057 13.1326 38.8093 13.1286C38.8781 13.0558 39.0769 12.9592 40.017 13.3652L50.8145 17.8531C50.9783 17.9128 51.3525 18.0301 51.506 17.943C51.5239 17.9346 51.5641 17.8817 51.5728 17.8662L52.9193 15.5921C52.9177 15.5952 52.9145 15.5976 52.9113 15.6C52.8469 15.6728 52.656 15.7821 51.6953 15.3694L48.7081 14.1267L41.6601 11.1964L40.8914 10.8775C40.7674 10.8333 40.5343 10.7598 40.3598 10.7598C40.2997 10.7598 40.246 10.7681 40.2063 10.7904Z" fill="#004685"/>
    <path d="M43.2285 18.8186L46.9748 23.4055C47.6751 24.245 47.6818 24.4128 47.623 24.5186L48.9929 22.2142C49.006 22.1879 49.0275 22.1295 49.0044 22.044C48.9575 21.9195 48.0954 20.8427 48.0954 20.8427L43.2285 18.8186Z" fill="#96989A"/>
    <path d="M45.1863 15.5145L46.751 17.43L49.7378 18.6727C50.6997 19.087 50.891 18.9761 50.955 18.9033L50.9686 18.8803C51.0266 18.7685 50.8628 18.5355 50.623 18.2381L50.0536 17.5386L45.1863 15.5145Z" fill="#96989A"/>
    <path d="M42.7266 6.50934C42.7134 6.53439 42.696 6.58768 42.7127 6.66323C42.7516 6.79366 42.8781 6.98135 43.0475 7.19211L43.6185 7.89317L48.485 9.91524L44.7379 5.32751C44.0054 4.45148 44.0691 4.2777 44.1052 4.18823L42.7266 6.50934Z" fill="#96989A"/>
</svg>
