<svg width="156" height="41" viewBox="0 0 156 41" fill="none" xmlns="http://www.w3.org/2000/svg">
    <path d="M32.0591 32.6217C32.7038 29.2676 31.0555 26.9017 27.632 26.9017C24.6673 26.9017 22.0485 28.8441 21.5144 31.8794C20.9649 34.9853 22.9614 36.6794 25.9261 36.6794C28.0779 36.6794 30.5426 35.9229 31.5826 33.6264H28.0696C27.7096 34.1747 27.1344 34.437 26.5485 34.437C25.5791 34.437 24.8602 33.7147 25.0532 32.6217H32.0591ZM25.3826 30.75C25.5579 29.7617 26.2849 29.1429 27.3779 29.1429C28.2426 29.1429 28.8685 29.9029 28.7191 30.75" fill="#373535"/>
    <path d="M33.3508 31.8994C32.7943 35.0559 34.8014 36.6794 37.7661 36.6794C40.7308 36.6794 43.3049 35.0923 43.9026 31.7041C44.4108 28.8264 42.7379 26.9017 39.472 26.9017C36.3496 26.9017 33.9167 28.6853 33.3508 31.8994ZM39.0896 29.3747C40.052 29.3206 40.4708 30.3464 40.232 31.7041C39.9249 33.4523 39.1908 34.2088 38.2026 34.2088C37.2661 34.2088 36.7473 33.4523 37.0555 31.7041C37.2391 30.6617 37.8379 29.3747 39.0896 29.3747Z" fill="#373535"/>
    <path d="M44.699 36.8912C44.6355 38.2523 45.7825 39.5559 49.0473 39.5559C53.6002 39.5559 54.3002 37.3853 54.7896 34.6147L56.1025 27.17H52.872L52.6578 28.3864C52.1637 27.4853 51.2249 26.9017 50.1131 26.9017C47.0778 26.9017 45.5578 29.3206 45.1555 31.597C44.739 33.9629 45.8496 35.9735 48.4096 35.9735C49.7308 35.9735 50.6096 35.4994 51.232 34.9676L51.099 35.7253C50.8661 37.0523 50.3578 37.5264 49.299 37.5264C48.9284 37.5264 48.6778 37.4382 48.5449 37.297C48.412 37.1558 48.3684 36.9959 48.3873 36.8912H44.699ZM50.6378 29.5323C51.8025 29.5323 52.0202 30.5017 51.8402 31.5264C51.6649 32.5147 51.0696 33.4853 49.9508 33.4323C48.9649 33.4147 48.659 32.5511 48.819 31.6335C49.0308 30.4335 49.5284 29.5135 50.6378 29.5323Z" fill="#373535"/>
    <path d="M60.5813 27.0735H63.9166L63.5872 28.9453H63.6224C64.3895 27.497 65.4107 26.8076 66.8401 26.8076C66.9989 26.8076 67.1507 26.8453 67.3072 26.8617L66.6601 30.5323C66.4189 30.4958 66.1672 30.4253 65.9201 30.4253C64.4189 30.4253 63.5366 31.1311 63.1836 33.1276L62.6213 36.3206H58.9507" fill="#373535"/>
    <path d="M77.4471 32.5253C78.0907 29.1747 76.4424 26.8112 73.0189 26.8112C70.0554 26.8112 67.4354 28.7512 66.9012 31.7865C66.353 34.8923 68.3483 36.5865 71.313 36.5865C73.466 36.5865 75.9283 35.8265 76.9695 33.5335H73.4577C73.0965 34.0817 72.5189 34.3441 71.9389 34.3441C70.9671 34.3441 70.2471 33.6217 70.4401 32.5253H77.4471ZM70.7707 30.657C70.9448 29.6688 71.6707 29.05 72.7648 29.05C73.6295 29.05 74.2554 29.81 74.106 30.657" fill="#373535"/>
    <path d="M81.9085 33.4429C81.8438 33.8135 81.9343 34.0982 82.1485 34.29C82.3461 34.4688 82.6449 34.5759 82.9979 34.5759C83.5626 34.5759 84.1932 34.3982 84.3108 33.7429C84.5708 32.2606 78.6991 33.4429 79.3296 29.8629C79.7461 27.497 82.3202 26.8076 84.2438 26.8076C86.2555 26.8076 88.5391 27.2688 88.3179 29.7194H84.9826C85.0002 29.4194 84.9143 29.2076 84.7485 29.05C84.5826 28.8923 84.3296 28.8217 84.0485 28.8217C83.412 28.8217 82.972 29.0135 82.8908 29.4735C82.6638 30.7606 88.6579 29.897 88.0473 33.3559C87.7085 35.2782 85.8908 36.5864 82.5014 36.5864C80.3838 36.5864 78.1696 35.9312 78.4143 33.4429" fill="#373535"/>
    <path d="M89.5201 31.8029C88.9624 34.9629 90.9707 36.5865 93.9365 36.5865C96.9001 36.5865 99.4754 34.9994 100.073 31.6076C100.581 28.7335 98.906 26.8112 95.6424 26.8112C92.5189 26.8112 90.0871 28.5923 89.5201 31.8029ZM95.2589 29.2782C96.2224 29.2276 96.6424 30.25 96.4013 31.6076C96.093 33.3559 95.3589 34.1159 94.3718 34.1159C93.4365 34.1159 92.9165 33.3559 93.226 31.6076C93.4095 30.5665 94.006 29.2782 95.2589 29.2782Z" fill="#373535"/>
    <path d="M110.783 36.3206H107.377L107.618 34.9629C106.475 36.2335 105.513 36.5864 103.995 36.5864C101.983 36.5864 100.894 35.3488 101.361 32.7041L102.355 27.0735H106.026L105.145 32.0688C104.92 33.3394 105.29 33.7429 106.172 33.7429C107.231 33.7429 107.706 32.9488 107.959 31.5205L108.744 27.0735H112.414" fill="#373535"/>
    <path d="M114.195 27.0735H117.53L117.201 28.9453H117.237C118.003 27.497 119.024 26.8076 120.454 26.8076C120.612 26.8076 120.766 26.8453 120.921 26.8617L120.273 30.5323C120.033 30.4958 119.781 30.4253 119.534 30.4253C118.033 30.4253 117.148 31.1311 116.8 33.1276L116.234 36.3206H112.564" fill="#373535"/>
    <path d="M127.358 30.6029C127.413 30.1994 127.327 29.8806 127.137 29.6488C126.953 29.4029 126.658 29.2817 126.251 29.2817C124.874 29.2817 124.392 30.71 124.199 31.8029C123.954 33.1982 124.321 34.1159 125.398 34.1159C126.351 34.1159 126.837 33.4606 127.071 32.7406H130.776C129.964 35.5441 127.521 36.5865 124.963 36.5865C121.979 36.5865 119.981 34.9088 120.532 31.7865C121.09 28.6265 123.634 26.8112 126.686 26.8112C129.158 26.8112 131.3 27.8665 131.081 30.6029" fill="#373535"/>
    <path d="M142.832 32.5253C143.476 29.1747 141.827 26.8112 138.403 26.8112C135.44 26.8112 132.821 28.7512 132.286 31.7865C131.739 34.8923 133.734 36.5865 136.698 36.5865C138.851 36.5865 141.316 35.8265 142.354 33.5335H138.841C138.48 34.0817 137.905 34.3441 137.323 34.3441C136.351 34.3441 135.631 33.6217 135.826 32.5253H142.832ZM136.156 30.657C136.331 29.6688 137.054 29.05 138.151 29.05C139.017 29.05 139.641 29.81 139.49 30.657" fill="#373535"/>
    <path d="M147.293 33.4429C147.227 33.8135 147.319 34.0982 147.531 34.29C147.73 34.4688 148.028 34.5759 148.381 34.5759C148.946 34.5759 149.578 34.3982 149.693 33.7429C149.954 32.2606 144.081 33.4429 144.713 29.8629C145.13 27.497 147.704 26.8076 149.628 26.8076C151.639 26.8076 153.924 27.2688 153.703 29.7194H150.368C150.385 29.4194 150.299 29.2076 150.132 29.05C149.966 28.8923 149.714 28.8217 149.432 28.8217C148.797 28.8217 148.355 29.0135 148.275 29.4735C148.048 30.7606 154.041 29.897 153.433 33.3559C153.092 35.2782 151.274 36.5864 147.886 36.5864C145.768 36.5864 143.553 35.9312 143.799 33.4429" fill="#373535"/>
    <path d="M17.4943 15.9005C16.9731 14.7464 16.4131 12.7841 16.8225 10.4088C17.3872 7.12758 19.179 4.26523 21.7072 2.40405C16.8072 2.99111 12.4931 7.29228 11.6707 12.5064C11.3613 14.4782 11.206 17.5382 14.3802 20.7264C16.2955 22.6488 18.2366 24.7499 17.6778 28.4911C17.1049 32.3229 13.699 35.417 10.0566 35.4029C6.4131 35.3864 3.99428 32.277 4.48604 28.4346C5.11663 23.5099 10.4013 21.9935 10.899 18.9499C11.0884 17.7864 10.806 16.5841 10.5308 15.5793C10.1119 14.2146 9.34016 11.9817 10.2931 9.25464C10.2931 9.25464 7.46722 11.4429 6.77781 16.0452C6.62957 17.0441 6.35428 18.4735 4.97663 19.8993C3.60016 21.3276 2.10604 23.7641 1.70604 26.7088C0.946045 32.317 4.51898 36.8593 9.83663 36.8829C15.1555 36.9052 20.1072 32.3841 20.9637 26.7935C21.7072 21.9488 18.6284 18.4111 17.4943 15.9005Z" fill="#E43539"/>
    <path d="M10.065 33.4911H10.0838C12.7485 33.4911 15.3591 31.077 15.7873 28.2088C16.1944 25.4899 14.9862 23.9841 13.025 22.0735C11.052 20.1499 11.1073 19.2323 10.9556 17.9594C10.9979 20.7146 11.125 22.4288 9.60028 23.8711C8.10145 25.2888 6.65086 26.5911 6.38263 28.677C6.20028 30.1064 6.53675 31.3935 7.33204 32.2994C8.00969 33.0735 8.95439 33.4852 10.065 33.4911Z" fill="#373535"/>
</svg>
