<svg width="160" height="34" viewBox="0 0 160 34" fill="none" xmlns="http://www.w3.org/2000/svg">
    <g clip-path="url(#clip0_30_9035)">
        <path d="M37.0186 9.50558C37.0186 7.72237 36.9844 7.46517 35.9727 7.34515L35.6984 7.31086C35.5955 7.24227 35.6298 6.93364 35.7327 6.8822C36.47 6.91649 37.0529 6.93364 37.7559 6.93364H40.9794C42.0768 6.93364 43.0884 6.93364 43.2942 6.8822C43.397 7.17369 43.4999 8.40822 43.5685 9.16265C43.4999 9.26553 43.2256 9.29982 43.1398 9.19694C42.8827 8.39107 42.7283 7.79095 41.8367 7.56805C41.4767 7.48232 40.928 7.46517 40.1736 7.46517H38.939C38.4246 7.46517 38.4246 7.49947 38.4246 8.15102V11.5803C38.4246 12.0604 38.4761 12.0604 38.9905 12.0604H39.9849C40.7051 12.0604 41.2366 12.0261 41.4424 11.9575C41.6481 11.8889 41.7681 11.786 41.8539 11.3574L41.9911 10.6544C42.0768 10.5515 42.3683 10.5515 42.4369 10.6715C42.4369 11.083 42.3683 11.7517 42.3683 12.4033C42.3683 13.0206 42.4369 13.6721 42.4369 14.0493C42.3683 14.1693 42.0768 14.1693 41.9911 14.0665L41.8367 13.3978C41.7681 13.0891 41.6481 12.8319 41.3052 12.7462C41.0652 12.6776 40.6536 12.6605 39.9849 12.6605H38.9905C38.4761 12.6605 38.4246 12.6776 38.4246 13.1234V15.541C38.4246 16.4498 38.4761 17.0328 38.7504 17.3243C38.9562 17.53 39.3162 17.7186 40.8251 17.7186C42.1454 17.7186 42.6426 17.65 43.0198 17.4614C43.3285 17.29 43.7914 16.6898 44.2372 15.7982C44.3572 15.7125 44.5973 15.7639 44.6659 15.9183C44.5458 16.5184 44.1172 17.8386 43.8943 18.3016C42.3511 18.2673 40.8251 18.2501 39.2991 18.2501H37.7559C37.0186 18.2501 36.4357 18.2673 35.424 18.3016C35.3212 18.2502 35.2869 17.9758 35.3898 17.8729L35.9556 17.8215C36.9329 17.7358 37.0186 17.4786 37.0186 15.6782V9.50558Z" fill="#001648"/>
        <path d="M46.4149 13.3291C46.4149 12.6604 46.4149 12.5747 45.952 12.2661L45.7977 12.1632C45.7291 12.0946 45.7291 11.906 45.8148 11.8546C46.2092 11.7174 47.1865 11.2716 47.5294 11.0144C47.598 11.0144 47.6837 11.0487 47.718 11.1344C47.6837 11.5288 47.6837 11.786 47.6837 11.9403C47.6837 12.0432 47.7523 12.1289 47.8724 12.1289C48.5925 11.6831 49.3984 11.2545 50.2728 11.2545C51.696 11.2545 52.2789 12.2318 52.2789 13.3806V16.3297C52.2789 17.5643 52.3132 17.7357 52.9305 17.8215L53.3077 17.8729C53.4277 17.9586 53.3934 18.2501 53.2734 18.3016C52.759 18.2673 52.2618 18.2501 51.6617 18.2501C51.0444 18.2501 50.53 18.2673 50.0671 18.3016C49.947 18.2501 49.9128 17.9586 50.0328 17.8729L50.3586 17.8215C50.993 17.7186 51.0101 17.5643 51.0101 16.3297V13.7749C51.0101 12.7976 50.5643 12.0775 49.3984 12.0775C48.7468 12.0775 48.181 12.3518 47.9409 12.6776C47.718 12.9691 47.6837 13.2091 47.6837 13.7064V16.3297C47.6837 17.5643 47.718 17.7186 48.3353 17.8215L48.6439 17.8729C48.764 17.9586 48.7297 18.2501 48.6096 18.3016C48.1467 18.2673 47.6495 18.2501 47.0493 18.2501C46.4321 18.2501 45.9177 18.2673 45.4376 18.3016C45.3176 18.2501 45.2833 17.9586 45.4033 17.8729L45.7634 17.8215C46.3978 17.7357 46.4149 17.5643 46.4149 16.3297V13.3291Z" fill="#001648"/>
        <path d="M56.3425 12.2146C56.051 12.2146 56.0339 12.266 56.0339 12.6261V15.8324C56.0339 16.8269 56.1539 17.7357 57.2855 17.7357C57.457 17.7357 57.6113 17.7014 57.7485 17.6499C57.9028 17.5985 58.1257 17.4099 58.1771 17.4099C58.3143 17.4099 58.3829 17.5985 58.3486 17.7014C58.04 18.0614 57.4227 18.4901 56.5482 18.4901C55.0737 18.4901 54.765 17.6671 54.765 16.6383V12.7118C54.765 12.2489 54.7479 12.2146 54.405 12.2146H53.9249C53.822 12.146 53.8048 11.9574 53.8734 11.8545C54.3707 11.7002 54.7993 11.4773 54.9708 11.323C55.1937 11.1172 55.5195 10.6543 55.6909 10.3114C55.7767 10.2771 55.9824 10.2771 56.051 10.3971V11.1687C56.051 11.4773 56.0681 11.4944 56.3596 11.4944H58.2629C58.4686 11.6488 58.4343 12.1117 58.28 12.2146H56.3425Z" fill="#001648"/>
        <path d="M60.749 13.8606C60.3032 13.8606 60.2861 13.8949 60.2861 14.3236C60.2861 16.0553 61.2977 17.5299 63.1323 17.5299C63.6982 17.5299 64.1783 17.3584 64.7098 16.6897C64.8813 16.6383 65.0013 16.7412 65.0184 16.8955C64.4526 18.0614 63.2181 18.4901 62.3265 18.4901C61.212 18.4901 60.3375 18.01 59.8403 17.3585C59.3259 16.6897 59.1201 15.8839 59.1201 15.1294C59.1201 13.0205 60.509 11.2544 62.5665 11.2544C64.0411 11.2544 65.0013 12.266 65.0013 13.2948C65.0013 13.5348 64.967 13.672 64.9327 13.7406C64.8812 13.8435 64.6412 13.8606 63.9211 13.8606H60.749ZM61.8121 13.3462C63.0809 13.3462 63.4581 13.2776 63.5953 13.1748C63.6467 13.1405 63.6982 13.0719 63.6982 12.849C63.6982 12.3689 63.3724 11.7688 62.3779 11.7688C61.3663 11.7688 60.4918 12.6947 60.4747 13.2605C60.4747 13.2948 60.4747 13.3462 60.5947 13.3462H61.8121Z" fill="#001648"/>
        <path d="M66.9903 13.3291C66.9903 12.6604 66.9902 12.5747 66.5273 12.2661L66.373 12.1632C66.3044 12.0946 66.3044 11.906 66.3901 11.8546C66.7845 11.7174 67.6932 11.2716 68.1219 11.0144C68.2076 11.0316 68.2591 11.0658 68.2591 11.1344V12.1289C68.2591 12.2146 68.2762 12.2661 68.3105 12.2832C68.9106 11.786 69.5622 11.2545 70.1966 11.2545C70.6252 11.2545 70.9682 11.5288 70.9682 11.9403C70.9682 12.5061 70.5052 12.729 70.2309 12.729C70.0594 12.729 69.9737 12.6776 69.8537 12.609C69.5965 12.4375 69.3393 12.3347 69.0992 12.3347C68.8249 12.3347 68.6191 12.489 68.482 12.6776C68.3105 12.9176 68.2591 13.4149 68.2591 13.9978V16.3297C68.2591 17.5643 68.2934 17.77 68.9449 17.8215L69.5622 17.8729C69.6822 17.9586 69.6479 18.2501 69.5279 18.3016C68.722 18.2673 68.2248 18.2501 67.6247 18.2501C67.0074 18.2501 66.493 18.2673 66.0472 18.3016C65.9272 18.2501 65.8929 17.9586 66.0129 17.8729L66.3387 17.8215C66.9731 17.7186 66.9903 17.5643 66.9903 16.3297V13.3291Z" fill="#001648"/>
        <path d="M72.3229 13.3292C72.3229 12.6605 72.3229 12.5747 71.8599 12.2661L71.7056 12.1632C71.637 12.0947 71.637 11.906 71.7228 11.8546C72.1686 11.666 72.9744 11.2545 73.4202 10.9287C73.5231 10.9287 73.5917 10.963 73.626 11.0487C73.5917 11.3574 73.5574 11.6146 73.5574 11.8375C73.5574 11.9575 73.5917 12.0604 73.7117 12.0604C73.9346 11.9575 75.0148 11.2545 76.1122 11.2545C77.844 11.2545 78.9585 12.6605 78.9585 14.3922C78.9585 16.7756 77.2096 18.4902 74.7748 18.4902C74.4662 18.4902 73.9861 18.4559 73.8318 18.4216C73.6774 18.4559 73.5917 18.5416 73.5917 18.9017V20.7021C73.5917 21.9194 73.626 22.0738 74.2433 22.1595L74.912 22.2452C75.032 22.331 74.9977 22.6224 74.8777 22.6739C74.0546 22.6396 73.5574 22.6224 72.9573 22.6224C72.34 22.6224 71.8256 22.6396 71.3455 22.6739C71.2255 22.6224 71.1912 22.331 71.3113 22.2452L71.6713 22.1938C72.3057 22.108 72.3229 21.9366 72.3229 20.7021V13.3292ZM73.5917 16.5184C73.5917 17.0671 73.7632 17.2728 74.1061 17.5472C74.449 17.8043 74.9805 17.9244 75.3406 17.9244C76.7466 17.9244 77.5696 16.6213 77.5696 14.838C77.5696 13.4664 76.798 12.0775 75.2549 12.0775C74.5176 12.0775 73.9861 12.3518 73.7975 12.5576C73.6431 12.7462 73.5917 13.0034 73.5917 13.5692V16.5184Z" fill="#001648"/>
        <path d="M80.9302 13.3291C80.9302 12.6604 80.9302 12.5747 80.4672 12.2661L80.3129 12.1632C80.2443 12.0946 80.2443 11.906 80.3301 11.8546C80.7244 11.7174 81.6332 11.2716 82.0618 11.0144C82.1476 11.0316 82.199 11.0658 82.199 11.1344V12.1289C82.199 12.2146 82.2162 12.2661 82.2505 12.2832C82.8506 11.786 83.5021 11.2545 84.1365 11.2545C84.5652 11.2545 84.9081 11.5288 84.9081 11.9403C84.9081 12.5061 84.4452 12.729 84.1708 12.729C83.9994 12.729 83.9136 12.6776 83.7936 12.609C83.5364 12.4375 83.2792 12.3347 83.0392 12.3347C82.7648 12.3347 82.5591 12.489 82.4219 12.6776C82.2504 12.9176 82.199 13.4149 82.199 13.9978V16.3297C82.199 17.5643 82.2333 17.77 82.8849 17.8215L83.5021 17.8729C83.6221 17.9586 83.5879 18.2501 83.4678 18.3016C82.662 18.2673 82.1647 18.2501 81.5646 18.2501C80.9473 18.2501 80.433 18.2673 79.9872 18.3016C79.8671 18.2501 79.8328 17.9586 79.9529 17.8729L80.2786 17.8215C80.913 17.7186 80.9302 17.5643 80.9302 16.3297V13.3291Z" fill="#001648"/>
        <path d="M86.6227 13.3292C86.6227 12.6605 86.6227 12.5747 86.1597 12.2661L86.0054 12.1632C85.9368 12.0947 85.9368 11.906 86.0226 11.8546C86.4169 11.7174 87.3943 11.2716 87.7886 11.0144C87.8744 11.0144 87.9429 11.0487 87.9601 11.1173C87.9258 11.7174 87.8915 12.5405 87.8915 13.2434V16.3298C87.8915 17.5643 87.9258 17.7358 88.5431 17.8215L88.9031 17.8729C89.0232 17.9587 88.9889 18.2501 88.8688 18.3016C88.3545 18.2673 87.8572 18.2501 87.2571 18.2501C86.6398 18.2501 86.1254 18.2673 85.6454 18.3016C85.5253 18.2501 85.491 17.9587 85.6111 17.8729L85.9711 17.8215C86.6055 17.7358 86.6227 17.5643 86.6227 16.3298V13.3292ZM88.0458 8.44251C88.0458 9.05977 87.6172 9.33411 87.1371 9.33411C86.6055 9.33411 86.2626 8.93975 86.2626 8.4768C86.2626 7.91097 86.6741 7.5509 87.1885 7.5509C87.7029 7.5509 88.0458 7.96241 88.0458 8.44251Z" fill="#001648"/>
        <path d="M94.047 11.563C94.2013 11.9402 94.3214 12.4889 94.3214 12.9519C94.2528 13.0719 93.9956 13.1062 93.9098 13.0033C93.6184 12.2489 93.104 11.7516 92.401 11.7516C91.7323 11.7516 91.3036 12.1803 91.3036 12.7976C91.3036 13.5006 92.0238 13.8778 92.6239 14.2207C93.5326 14.7351 94.3728 15.318 94.3728 16.5354C94.3728 17.8385 93.1726 18.4901 91.9037 18.4901C91.0979 18.4901 90.4977 18.3186 90.0691 17.9757C89.9319 17.6499 89.829 16.8098 89.8633 16.2439C89.9491 16.1411 90.172 16.1239 90.2577 16.2268C90.5492 17.1698 91.0979 17.9929 92.0752 17.9929C92.6925 17.9929 93.224 17.6328 93.224 16.8955C93.224 16.1068 92.5381 15.6781 91.9037 15.318C90.9093 14.7522 90.2063 14.1521 90.2063 13.2091C90.2063 11.9574 91.235 11.2544 92.5381 11.2544C93.2583 11.2544 93.8927 11.4259 94.047 11.563Z" fill="#001648"/>
        <path d="M97.1162 13.8606C96.6704 13.8606 96.6532 13.8949 96.6532 14.3236C96.6532 16.0553 97.6649 17.5299 99.4995 17.5299C100.065 17.5299 100.545 17.3584 101.077 16.6897C101.248 16.6383 101.368 16.7412 101.386 16.8955C100.82 18.0614 99.5853 18.4901 98.6937 18.4901C97.5791 18.4901 96.7047 18.01 96.2074 17.3585C95.6931 16.6897 95.4873 15.8839 95.4873 15.1294C95.4873 13.0205 96.8762 11.2544 98.9337 11.2544C100.408 11.2544 101.368 12.266 101.368 13.2948C101.368 13.5348 101.334 13.672 101.3 13.7406C101.248 13.8435 101.008 13.8606 100.288 13.8606H97.1162ZM98.1793 13.3462C99.4481 13.3462 99.8253 13.2776 99.9625 13.1748C100.014 13.1405 100.065 13.0719 100.065 12.849C100.065 12.3689 99.7396 11.7688 98.7451 11.7688C97.7335 11.7688 96.859 12.6947 96.8419 13.2605C96.8419 13.2948 96.8419 13.3462 96.9619 13.3462H98.1793Z" fill="#001648"/>
        <path d="M108.047 15.9097C108.047 17.71 108.081 17.9329 109.178 18.0529L109.641 18.1044C109.744 18.1901 109.71 18.4816 109.607 18.533C108.63 18.4987 108.064 18.4816 107.378 18.4816C106.658 18.4816 106.041 18.4987 105.286 18.533C105.183 18.4816 105.149 18.2073 105.252 18.1044L105.612 18.0529C106.607 17.9158 106.641 17.71 106.641 15.9097V9.5827C106.641 8.12528 106.607 7.83379 105.835 7.74806L105.218 7.67947C105.098 7.5766 105.115 7.3194 105.252 7.25082C106.161 7.13079 107.224 7.11365 108.647 7.11365C110.07 7.11365 111.133 7.30226 111.939 7.7995C112.728 8.29674 113.311 9.18834 113.311 10.3714C113.311 11.9489 112.333 12.7376 111.596 13.0977C110.842 13.4578 109.933 13.6121 109.23 13.6121C109.11 13.5606 109.11 13.3034 109.213 13.2691C111.065 12.9262 111.733 11.8803 111.733 10.3886C111.733 8.72539 110.756 7.64518 108.973 7.64518C108.064 7.64518 108.047 7.71377 108.047 8.26244V15.9097Z" fill="#001648"/>
        <path d="M114.391 13.5606C114.391 12.8919 114.391 12.8062 113.928 12.4975L113.774 12.3946C113.705 12.3261 113.705 12.1375 113.791 12.086C114.185 11.9488 115.094 11.503 115.523 11.2458C115.609 11.263 115.66 11.2973 115.66 11.3659V12.3604C115.66 12.4461 115.677 12.4975 115.711 12.5147C116.312 12.0174 116.963 11.4859 117.597 11.4859C118.026 11.4859 118.369 11.7602 118.369 12.1717C118.369 12.7376 117.906 12.9605 117.632 12.9605C117.46 12.9605 117.375 12.909 117.255 12.8404C116.997 12.669 116.74 12.5661 116.5 12.5661C116.226 12.5661 116.02 12.7204 115.883 12.909C115.711 13.1491 115.66 13.6463 115.66 14.2293V16.5612C115.66 17.7957 115.694 18.0015 116.346 18.0529L116.963 18.1043C117.083 18.1901 117.049 18.4816 116.929 18.533C116.123 18.4987 115.626 18.4816 115.026 18.4816C114.408 18.4816 113.894 18.4987 113.448 18.533C113.328 18.4816 113.294 18.1901 113.414 18.1043L113.74 18.0529C114.374 17.95 114.391 17.7957 114.391 16.5612V13.5606Z" fill="#001648"/>
        <path d="M125.776 15.0352C125.776 17.1785 124.302 18.7217 122.158 18.7217C120.186 18.7217 118.643 17.3328 118.643 15.1895C118.643 13.0291 120.272 11.486 122.295 11.486C124.216 11.486 125.776 12.9262 125.776 15.0352ZM122.09 12.0003C120.958 12.0003 120.118 13.0806 120.118 14.9666C120.118 16.527 120.821 18.2073 122.33 18.2073C123.839 18.2073 124.302 16.6298 124.302 15.3096C124.302 13.8521 123.719 12.0003 122.09 12.0003Z" fill="#001648"/>
        <path d="M133.303 15.9782C133.303 17.3328 133.321 17.9672 133.801 17.9672C133.989 17.9672 134.281 17.8815 134.538 17.7957C134.658 17.83 134.675 18.2587 134.521 18.3444C133.801 18.4473 132.738 18.7045 132.258 18.8931C132.155 18.8931 132.069 18.8417 132.069 18.7559V18.4644C132.069 18.2073 132.069 18.0015 132.035 17.9329H131.966C131.212 18.4473 130.629 18.7216 129.806 18.7216C127.902 18.7216 126.634 17.2299 126.634 15.4296C126.634 13.0291 128.451 11.4859 130.783 11.4859C131.366 11.4859 131.743 11.5717 131.932 11.6403C132.017 11.6403 132.035 11.5374 132.035 11.4002V8.81113C132.035 7.7995 132.017 7.69662 131.503 7.38799L131.332 7.28511C131.246 7.23367 131.246 6.99363 131.332 6.94219C131.76 6.80502 132.566 6.54782 133.183 6.22205C133.252 6.22205 133.321 6.25634 133.355 6.32492C133.338 6.83931 133.303 7.69662 133.303 8.45106V15.9782ZM132.035 13.4063C132.035 13.0634 131.966 12.9091 131.846 12.7376C131.589 12.3775 131.074 12.0175 130.406 12.0175C128.845 12.0175 128.04 13.372 128.04 14.8637C128.04 16.424 128.914 17.8986 130.594 17.8986C131.057 17.8986 131.64 17.6929 131.915 17.4185C132.017 17.3157 132.035 17.0585 132.035 16.7841V13.4063Z" fill="#001648"/>
        <path d="M137.11 15.9611C137.11 17.1442 137.401 17.9329 138.704 17.9329C139.167 17.9329 139.716 17.7443 140.093 17.4186C140.316 17.2128 140.436 16.9556 140.436 16.4241V13.6121C140.436 12.4976 140.316 12.4633 139.802 12.2575L139.579 12.1718C139.459 12.1032 139.459 11.8632 139.596 11.7946C140.282 11.7774 141.225 11.6574 141.602 11.486C141.688 11.5031 141.739 11.5374 141.756 11.606C141.722 11.9318 141.705 12.4633 141.705 13.0977V15.9783C141.705 17.3328 141.756 17.8472 142.236 17.8472C142.442 17.8472 142.665 17.8129 142.905 17.7615C143.008 17.8472 143.025 18.1901 142.888 18.2587C142.219 18.3959 141.225 18.5674 140.642 18.8931C140.556 18.8931 140.47 18.8417 140.436 18.7731V18.0701C140.436 17.9158 140.385 17.8301 140.282 17.8301C139.767 18.1558 138.927 18.7217 137.916 18.7217C136.407 18.7217 135.841 17.9672 135.841 16.5784V13.715C135.841 12.6348 135.841 12.4804 135.327 12.2575L135.121 12.1718C135.018 12.0861 135.035 11.846 135.155 11.7946C135.944 11.7774 136.612 11.6231 136.99 11.486C137.093 11.5031 137.144 11.5374 137.161 11.606C137.127 11.8975 137.11 12.2575 137.11 13.0977V15.9611Z" fill="#001648"/>
        <path d="M149.146 11.7774C149.284 11.8975 149.404 12.1718 149.404 12.4633C149.404 12.7719 149.232 13.0977 149.026 13.0977C148.941 13.0977 148.855 13.0634 148.786 12.9777C148.409 12.5147 147.775 12.0689 147.072 12.0689C145.871 12.0689 144.705 13.012 144.705 14.8295C144.705 16.1669 145.631 17.7615 147.466 17.7615C148.46 17.7615 148.975 17.3157 149.369 16.7327C149.506 16.6984 149.661 16.8184 149.678 16.9728C149.095 18.2416 147.809 18.7217 146.814 18.7217C145.906 18.7217 145.066 18.4302 144.465 17.8472C143.865 17.2642 143.471 16.4241 143.471 15.3096C143.471 13.4578 144.774 11.486 147.62 11.486C148.015 11.486 148.683 11.5717 149.146 11.7774Z" fill="#001648"/>
        <path d="M152.799 12.4462C152.507 12.4462 152.49 12.4976 152.49 12.8577V16.064C152.49 17.0585 152.61 17.9672 153.742 17.9672C153.913 17.9672 154.067 17.9329 154.205 17.8815C154.359 17.8301 154.582 17.6415 154.633 17.6415C154.77 17.6415 154.839 17.8301 154.805 17.9329C154.496 18.293 153.879 18.7217 153.004 18.7217C151.53 18.7217 151.221 17.8987 151.221 16.8699V12.9434C151.221 12.4804 151.204 12.4462 150.861 12.4462H150.381C150.278 12.3776 150.261 12.189 150.329 12.0861C150.827 11.9318 151.255 11.7089 151.427 11.5545C151.65 11.3488 151.976 10.8858 152.147 10.5429C152.233 10.5086 152.438 10.5086 152.507 10.6287V11.4002C152.507 11.7089 152.524 11.726 152.816 11.726H154.719C154.925 11.8803 154.89 12.3433 154.736 12.4462H152.799Z" fill="#001648"/>
        <path d="M159.674 11.7946C159.829 12.1718 159.949 12.7205 159.949 13.1834C159.88 13.3035 159.623 13.3378 159.537 13.2349C159.246 12.4804 158.731 11.9832 158.028 11.9832C157.359 11.9832 156.931 12.4119 156.931 13.0291C156.931 13.7321 157.651 14.1093 158.251 14.4523C159.16 14.9666 160 15.5496 160 16.767C160 18.0701 158.8 18.7217 157.531 18.7217C156.725 18.7217 156.125 18.5502 155.696 18.2073C155.559 17.8815 155.456 17.0413 155.491 16.4755C155.576 16.3726 155.799 16.3555 155.885 16.4584C156.176 17.4014 156.725 18.2244 157.702 18.2244C158.32 18.2244 158.851 17.8644 158.851 17.1271C158.851 16.3383 158.165 15.9097 157.531 15.5496C156.536 14.9838 155.833 14.3837 155.833 13.4406C155.833 12.189 156.862 11.486 158.165 11.486C158.885 11.486 159.52 11.6574 159.674 11.7946Z" fill="#001648"/>
        <path d="M0 0.885254H31.0089V8.66107L20.6698 12.3989V8.63535L10.0048 14.2207L18.7237 11.8374V15.8539L31.0089 11.6745V19.8275L20.6698 23.5654V19.8018L10.0048 25.3872L18.7237 23.0039V27.0161L31.0089 22.841V33.6646H0V0.885254Z" fill="#001648"/>
        <path d="M38.7204 30.994C38.7204 32.7944 38.7547 33.0173 39.8521 33.1373L40.315 33.1887C40.4179 33.2745 40.3836 33.5659 40.2807 33.6174C39.3034 33.5831 38.7376 33.5659 38.0517 33.5659C37.3316 33.5659 36.7143 33.5831 35.9599 33.6174C35.857 33.5659 35.8227 33.2916 35.9256 33.1887L36.2857 33.1373C37.2801 33.0001 37.3144 32.7944 37.3144 30.994V24.6671C37.3144 23.2096 37.2801 22.9181 36.5086 22.8324L35.8913 22.7638C35.7713 22.6609 35.7884 22.4038 35.9256 22.3352C36.8343 22.2151 37.8974 22.198 39.3205 22.198C40.7437 22.198 41.8067 22.3866 42.6126 22.8838C43.4013 23.3811 43.9843 24.2727 43.9843 25.4558C43.9843 27.0332 43.007 27.822 42.2697 28.182C41.5153 28.5421 40.6065 28.6964 39.9035 28.6964C39.7835 28.645 39.7835 28.3878 39.8864 28.3535C41.7382 28.0106 42.4069 26.9646 42.4069 25.4729C42.4069 23.8097 41.4295 22.7295 39.6463 22.7295C38.7376 22.7295 38.7204 22.7981 38.7204 23.3468V30.994Z" fill="#001648"/>
        <path d="M47.6022 30.0167C47.8594 29.931 47.8937 29.7767 47.8937 29.5195L47.9108 28.7307C47.928 28.0963 47.7222 27.239 46.6592 27.239C46.1791 27.239 45.5961 27.4791 45.5618 28.0106C45.5447 28.2849 45.5275 28.4907 45.3903 28.5936C45.1332 28.7993 44.6702 28.9193 44.413 28.9193C44.2587 28.9193 44.173 28.8336 44.173 28.6793C44.173 27.7877 46.1105 26.5703 47.3622 26.5703C48.5967 26.5703 49.1968 27.2905 49.1454 28.5764L49.0425 31.5599C49.0082 32.3486 49.1625 33.0516 49.8312 33.0516C50.0027 33.0516 50.157 33.0001 50.2599 32.9487C50.3456 32.8973 50.4313 32.8287 50.4828 32.8287C50.5514 32.8287 50.6028 32.9316 50.6028 33.0516C50.6028 33.1373 50.0027 33.806 49.1625 33.806C48.751 33.806 48.3395 33.6517 48.048 33.2745C47.9794 33.1716 47.8765 33.0344 47.7737 33.0344C47.6536 33.0344 47.4479 33.1888 47.105 33.3774C46.7278 33.5831 46.3505 33.806 45.8704 33.806C45.3732 33.806 44.9617 33.6688 44.6702 33.4117C44.3444 33.1202 44.1387 32.6915 44.1387 32.2114C44.1387 31.5427 44.4645 31.1484 45.5618 30.754L47.6022 30.0167ZM46.5391 33.0344C46.8821 33.0344 47.4136 32.7772 47.5851 32.6058C47.7908 32.4 47.7908 32.16 47.808 31.7999L47.8423 30.7883C47.8423 30.5997 47.7737 30.5654 47.6708 30.5654C47.5679 30.5654 47.2764 30.634 46.9678 30.7368C45.9562 31.0798 45.4589 31.337 45.4589 32.0057C45.4589 32.2972 45.6647 33.0344 46.5391 33.0344Z" fill="#001648"/>
        <path d="M51.8716 28.6451C51.8716 27.9764 51.8716 27.8906 51.4087 27.582L51.2543 27.4791C51.1857 27.4105 51.1858 27.2219 51.2715 27.1705C51.6658 27.0333 52.5746 26.5875 53.0033 26.3303C53.089 26.3475 53.1404 26.3818 53.1404 26.4503V27.4448C53.1404 27.5306 53.1576 27.582 53.1919 27.5991C53.792 27.1019 54.4435 26.5704 55.0779 26.5704C55.5066 26.5704 55.8495 26.8447 55.8495 27.2562C55.8495 27.822 55.3866 28.0449 55.1122 28.0449C54.9408 28.0449 54.855 27.9935 54.735 27.9249C54.4778 27.7535 54.2206 27.6506 53.9806 27.6506C53.7062 27.6506 53.5005 27.8049 53.3633 27.9935C53.1919 28.2336 53.1404 28.7308 53.1404 29.3138V31.6457C53.1404 32.8802 53.1747 33.0859 53.8263 33.1374L54.4435 33.1888C54.5636 33.2745 54.5293 33.566 54.4092 33.6175C53.6034 33.5832 53.1061 33.566 52.506 33.566C51.8887 33.566 51.3744 33.5832 50.9286 33.6175C50.8085 33.566 50.7742 33.2745 50.8943 33.1888L51.22 33.1374C51.8545 33.0345 51.8716 32.8802 51.8716 31.6457V28.6451Z" fill="#001648"/>
        <path d="M58.833 27.5304C58.5415 27.5304 58.5243 27.5818 58.5243 27.9419V31.1482C58.5243 32.1427 58.6443 33.0515 59.776 33.0515C59.9475 33.0515 60.1018 33.0172 60.2389 32.9657C60.3933 32.9143 60.6162 32.7257 60.6676 32.7257C60.8048 32.7257 60.8734 32.9143 60.8391 33.0172C60.5304 33.3772 59.9132 33.8059 59.0387 33.8059C57.5641 33.8059 57.2555 32.9829 57.2555 31.9541V28.0276C57.2555 27.5647 57.2384 27.5304 56.8954 27.5304H56.4153C56.3125 27.4618 56.2953 27.2732 56.3639 27.1703C56.8611 27.016 57.2898 26.7931 57.4613 26.6388C57.6842 26.433 58.0099 25.9701 58.1814 25.6272C58.2671 25.5929 58.4729 25.5929 58.5415 25.7129V26.4845C58.5415 26.7931 58.5586 26.8102 58.8501 26.8102H60.7533C60.9591 26.9646 60.9248 27.4275 60.7705 27.5304H58.833Z" fill="#001648"/>
        <path d="M62.4164 28.6451C62.4164 27.9764 62.4164 27.8906 61.9534 27.582L61.7991 27.4791C61.7305 27.4105 61.7305 27.2219 61.8163 27.1705C62.2106 27.0333 63.188 26.5875 63.5309 26.3303C63.5995 26.3303 63.6852 26.3646 63.7195 26.4503C63.6852 26.8447 63.6852 27.1019 63.6852 27.2562C63.6852 27.3591 63.7538 27.4448 63.8738 27.4448C64.594 26.999 65.3998 26.5704 66.2743 26.5704C67.6974 26.5704 68.2804 27.5477 68.2804 28.6965V31.6457C68.2804 32.8802 68.3147 33.0516 68.932 33.1374L69.3092 33.1888C69.4292 33.2745 69.3949 33.566 69.2749 33.6175C68.7605 33.5832 68.2633 33.566 67.6631 33.566C67.0459 33.566 66.5315 33.5832 66.0685 33.6175C65.9485 33.566 65.9142 33.2745 66.0342 33.1888L66.36 33.1374C66.9944 33.0345 67.0116 32.8802 67.0116 31.6457V29.0909C67.0116 28.1135 66.5658 27.3934 65.3998 27.3934C64.7483 27.3934 64.1824 27.6677 63.9424 27.9935C63.7195 28.285 63.6852 28.525 63.6852 29.0223V31.6457C63.6852 32.8802 63.7195 33.0345 64.3368 33.1374L64.6454 33.1888C64.7654 33.2745 64.7311 33.566 64.6111 33.6175C64.1482 33.5832 63.6509 33.566 63.0508 33.566C62.4335 33.566 61.9191 33.5832 61.4391 33.6175C61.319 33.566 61.2847 33.2745 61.4048 33.1888L61.7648 33.1374C62.3992 33.0516 62.4164 32.8802 62.4164 31.6457V28.6451Z" fill="#001648"/>
        <path d="M71.6926 29.1765C71.2468 29.1765 71.2297 29.2108 71.2297 29.6395C71.2297 31.3713 72.2413 32.8458 74.0759 32.8458C74.6418 32.8458 75.1219 32.6744 75.6534 32.0057C75.8249 31.9542 75.9449 32.0571 75.962 32.2114C75.3962 33.3774 74.1617 33.806 73.2701 33.806C72.1556 33.806 71.2811 33.3259 70.7839 32.6744C70.2695 32.0057 70.0637 31.1998 70.0637 30.4454C70.0637 28.3364 71.4526 26.5703 73.5101 26.5703C74.9847 26.5703 75.9449 27.5819 75.9449 28.6107C75.9449 28.8508 75.9106 28.9879 75.8763 29.0565C75.8249 29.1594 75.5848 29.1765 74.8647 29.1765H71.6926ZM72.7514 28.6622C74.0202 28.6622 74.3974 28.5936 74.5346 28.4907C74.586 28.4564 74.6375 28.3878 74.6375 28.1649C74.6375 27.6848 74.3117 27.0847 73.3172 27.0847C72.3056 27.0847 71.4311 28.0106 71.414 28.5764C71.414 28.6107 71.414 28.6622 71.534 28.6622H72.7514Z" fill="#001648"/>
        <path d="M77.6594 28.6451C77.6594 27.9764 77.6594 27.8906 77.1965 27.582L77.0422 27.4791C76.9736 27.4105 76.9736 27.2219 77.0593 27.1705C77.4537 27.0333 78.3624 26.5875 78.7911 26.3303C78.8768 26.3475 78.9283 26.3818 78.9283 26.4503V27.4448C78.9283 27.5306 78.9454 27.582 78.9797 27.5991C79.5798 27.1019 80.2314 26.5704 80.8658 26.5704C81.2944 26.5704 81.6374 26.8447 81.6374 27.2562C81.6374 27.822 81.1744 28.0449 80.9001 28.0449C80.7286 28.0449 80.6429 27.9935 80.5229 27.9249C80.2657 27.7535 80.0085 27.6506 79.7684 27.6506C79.4941 27.6506 79.2883 27.8049 79.1512 27.9935C78.9797 28.2336 78.9283 28.7308 78.9283 29.3138V31.6457C78.9283 32.8802 78.9626 33.0859 79.6141 33.1374L80.2314 33.1888C80.3514 33.2745 80.3171 33.566 80.1971 33.6175C79.3912 33.5832 78.894 33.566 78.2938 33.566C77.6766 33.566 77.1622 33.5832 76.7164 33.6175C76.5964 33.566 76.5621 33.2745 76.6821 33.1888L77.0079 33.1374C77.6423 33.0345 77.6594 32.8802 77.6594 31.6457V28.6451Z" fill="#001648"/>
        <path d="M86.0912 26.8789C86.2455 27.2562 86.3655 27.8048 86.3655 28.2678C86.297 28.3878 86.0398 28.4221 85.954 28.3192C85.6625 27.5648 85.1482 27.0676 84.4452 27.0676C83.7765 27.0676 83.3478 27.4962 83.3478 28.1135C83.3478 28.8165 84.068 29.1937 84.6681 29.5366C85.5768 30.051 86.417 30.634 86.417 31.8513C86.417 33.1545 85.2167 33.806 83.9479 33.806C83.1421 33.806 82.5419 33.6346 82.1133 33.2916C81.9761 32.9659 81.8732 32.1257 81.9075 31.5599C81.9933 31.457 82.2162 31.4398 82.3019 31.5427C82.5934 32.4858 83.1421 33.3088 84.1194 33.3088C84.7367 33.3088 85.2682 32.9487 85.2682 32.2114C85.2682 31.4227 84.5823 30.994 83.9479 30.634C82.9534 30.0681 82.2505 29.468 82.2505 28.525C82.2505 27.2733 83.2792 26.5703 84.5823 26.5703C85.3025 26.5703 85.9369 26.7418 86.0912 26.8789Z" fill="#001648"/>
        <path d="M92.8638 24.8214C92.8638 23.021 92.8295 22.7467 91.7493 22.6609L91.3207 22.6267C91.2178 22.5581 91.2521 22.2494 91.355 22.198C92.3151 22.2323 92.8981 22.2494 93.584 22.2494C94.2527 22.2494 94.8356 22.2323 95.693 22.198C95.7958 22.2494 95.8301 22.5581 95.7272 22.6267L95.3157 22.6609C94.3041 22.7467 94.2698 23.021 94.2698 24.8214V30.7883C94.2698 31.8685 94.3213 32.3143 94.6299 32.64C94.8185 32.8287 95.1443 33.0344 96.4988 33.0344C97.9563 33.0344 98.3163 32.9658 98.5907 32.8115C98.9336 32.6058 99.3794 31.9885 99.7223 31.114C99.8252 31.0283 100.151 31.0969 100.151 31.2169C100.151 31.4055 99.6709 33.1544 99.4308 33.6174C98.5564 33.5831 96.9275 33.5659 95.1614 33.5659H93.584C92.8638 33.5659 92.3151 33.5831 91.355 33.6174C91.2521 33.5659 91.2178 33.2916 91.3207 33.1887L91.8351 33.1373C92.8295 33.0344 92.8638 32.7944 92.8638 30.994V24.8214Z" fill="#001648"/>
        <path d="M101.06 32.8629C101.06 32.28 101.471 31.8513 102.02 31.8513C102.603 31.8513 102.98 32.3143 102.98 32.8629C102.98 33.4116 102.603 33.806 102.02 33.806C101.527 33.806 101.06 33.4459 101.06 32.8629Z" fill="#001648"/>
        <path d="M107.49 30.994C107.49 32.7944 107.524 33.0173 108.621 33.1373L109.084 33.1887C109.187 33.2745 109.153 33.5659 109.05 33.6174C108.073 33.5831 107.507 33.5659 106.821 33.5659C106.101 33.5659 105.484 33.5831 104.729 33.6174C104.626 33.5659 104.592 33.2916 104.695 33.1887L105.055 33.1373C106.049 33.0001 106.084 32.7944 106.084 30.994V24.6671C106.084 23.2096 106.049 22.9181 105.278 22.8324L104.661 22.7638C104.541 22.6609 104.558 22.4038 104.695 22.3352C105.604 22.2151 106.667 22.198 108.09 22.198C109.513 22.198 110.576 22.3866 111.382 22.8838C112.171 23.3811 112.754 24.2727 112.754 25.4558C112.754 27.0332 111.776 27.822 111.039 28.182C110.285 28.5421 109.376 28.6964 108.673 28.6964C108.553 28.645 108.553 28.3878 108.656 28.3535C110.507 28.0106 111.176 26.9646 111.176 25.4729C111.176 23.8097 110.199 22.7295 108.416 22.7295C107.507 22.7295 107.49 22.7981 107.49 23.3468V30.994Z" fill="#001648"/>
        <path d="M111.125 32.8629C111.125 32.28 111.536 31.8513 112.085 31.8513C112.668 31.8513 113.045 32.3143 113.045 32.8629C113.045 33.4116 112.668 33.806 112.085 33.806C111.588 33.806 111.125 33.4459 111.125 32.8629Z" fill="#001648"/>
    </g>
    <defs>
        <clipPath id="clip0_30_9035">
            <rect width="160" height="32.9208" fill="white" transform="translate(0 0.885254)"/>
        </clipPath>
    </defs>
</svg>
