<svg width="84" height="40" viewBox="0 0 84 40" fill="none" xmlns="http://www.w3.org/2000/svg">
<g clip-path="url(#clip0_112_5285)">
<path d="M57.5441 5.42252V15.463L55.2492 16.2521V4.63269L48.3646 2.21913V18.6675L46.0924 19.4566V1.4293L42.6501 0.210083L39.2078 1.4293V19.4566L36.9129 18.6675V2.21913L30.0509 4.63269V16.2521L27.756 15.463V5.42252L25.4612 6.21159V17.0887L32.3232 19.4796V6.25869L34.618 5.44607V20.293L41.5026 22.6839V3.05135L42.6508 2.64475L43.7982 3.05135V22.6839L50.6602 20.293V5.44607L52.9551 6.25869V19.4796L59.8397 17.0887V6.21159L57.5441 5.42252Z" fill="#EC1E27"/>
<path d="M1.86755 35.5346H5.93161V34.4348H1.86755V32.0439H7.94009V30.9202H0.624023V39.3592H8.15488V38.2833H1.86755V35.5346Z" fill="black"/>
<path d="M34.0489 36.0057C34.0489 37.5118 33.045 38.5153 31.5618 38.5153C30.1271 38.5153 29.218 37.4872 29.218 36.0057V30.9374H27.9988V36.0528C27.9988 38.3476 29.6723 39.6157 31.5617 39.6157C34.3351 39.6157 35.2432 37.7033 35.2432 36.0528V30.9374H34.0481L34.0489 36.0057Z" fill="black"/>
<path d="M42.0564 39.3594H43.2519V30.9204H42.0564V39.3594Z" fill="black"/>
<path d="M57.7136 37.5318L51.7371 30.9091H50.5413V39.3481H51.7371V32.7009L57.7381 39.3481H58.9332V30.9091H57.7139L57.7136 37.5318Z" fill="black"/>
<path d="M66.2864 39.3594H67.5058V30.9204H66.2864V39.3594Z" fill="black"/>
<path d="M79.2679 34.781L82.7818 30.9072H81.2996L78.5017 33.9444L75.7998 30.9072H74.1981L77.5933 34.781L73.3616 39.3481H74.9158L78.3826 35.5949L81.7062 39.3481H83.3797L79.2679 34.781Z" fill="black"/>
<path d="M20.615 35.139C20.615 36.3344 20.2084 37.1003 19.5152 37.7692C18.8697 37.0041 18.8697 37.004 18.8697 37.004H17.4593C18.6067 38.319 18.6067 38.319 18.6067 38.319C18.3203 38.4624 17.8174 38.5581 17.4116 38.582C15.6186 38.582 14.1841 37.1237 14.1841 35.1397V35.1158C14.1841 33.0828 15.5227 31.6735 17.34 31.649C19.1572 31.649 20.6146 33.0838 20.6146 35.0913L20.615 35.139ZM17.363 30.5718C14.8514 30.596 12.9146 32.4842 12.9146 35.1616V35.1855C12.9146 37.8157 14.9004 39.681 17.3856 39.6565C18.0311 39.6565 18.796 39.4891 19.3696 39.2022L20.0394 39.9911H21.4498L20.2547 38.6044C21.2352 37.8632 21.8564 36.6204 21.8564 35.0905V35.0665C21.8564 32.4363 19.8724 30.5484 17.3628 30.571" fill="black"/>
<path d="M63.9123 14.7188V14.1218H64.3432C64.5821 14.1218 64.7257 14.2412 64.7257 14.4324C64.7257 14.5995 64.582 14.7188 64.3432 14.7188H63.9123ZM63.387 15.8186H63.9123V15.1497H64.2237C64.7014 15.8186 64.7014 15.8186 64.7014 15.8186H65.3235C64.7731 15.0536 64.7731 15.0536 64.7731 15.0536C65.0605 14.9584 65.2517 14.7429 65.2517 14.3848C65.2517 13.9062 64.8926 13.6675 64.3907 13.6675H63.3868L63.387 15.8186ZM64.2237 16.6553C63.1957 16.6553 62.4065 15.8186 62.4065 14.8147V14.7905C62.4065 13.7867 63.1956 12.9499 64.2237 12.9499C65.2751 12.9499 66.0643 13.7625 66.0643 14.7905C66.0643 15.7951 65.2751 16.6553 64.2237 16.6553ZM64.2237 16.8706C65.3945 16.8706 66.3038 15.9144 66.3038 14.7905C66.3038 13.6431 65.3953 12.7104 64.2237 12.7104C63.0755 12.7104 62.1663 13.6666 62.1663 14.7905V14.8147C62.1663 15.9388 63.0748 16.8703 64.2237 16.8703" fill="#EC1E27"/>
</g>
<defs>
<clipPath id="clip0_112_5285">
<rect width="82.7508" height="40" fill="white" transform="translate(0.624512)"/>
</clipPath>
</defs>
</svg>
