<svg width="160" height="23" viewBox="0 0 160 23" fill="none" xmlns="http://www.w3.org/2000/svg">
    <path d="M0.52417 13.3648H13.8374V8.30103H0.52417V13.3648Z" fill="#676465"/>
    <path d="M15.1963 13.3669H22.7461V8.30103H15.1963V13.3669Z" fill="#B3B2B2"/>
    <path d="M0.52417 1.73527C0.52417 1.51393 0.668062 1.32137 0.963401 1.32069C1.08194 1.31875 13.8374 1.32069 13.8374 1.32069V6.38449H0.52417C0.52417 6.38449 0.52417 1.86888 0.52417 1.73527Z" fill="#676465"/>
    <path d="M15.1963 1.32007C15.1963 1.32007 21.7539 1.32007 22.1815 1.32007C22.7694 1.32007 22.7461 1.63735 22.7461 2.17181C22.7461 2.70423 22.7461 6.38868 22.7461 6.38868H15.1963V1.32007Z" fill="#B3B2B2"/>
    <path d="M18.971 20.3712C21.1576 20.3712 22.9303 19.194 22.9303 17.7447C22.9303 16.2982 21.1576 15.1196 18.971 15.1196C16.7886 15.1196 15.0132 16.2982 15.0132 17.7447C15.0132 19.194 16.7886 20.3712 18.971 20.3712Z" fill="#B3B2B2"/>
    <path d="M13.8292 20.2824C13.8292 20.2824 1.5445 20.2824 1.1176 20.2824C0.528992 20.2824 0.513916 20.133 0.513916 19.5985C0.513916 19.0668 0.513916 15.2124 0.513916 15.2124H13.8292V20.2824Z" fill="#676465"/>
    <path d="M30.8467 17.4338V3.94238H39.2345V5.23058H32.2898V9.98745H38.2108V11.2756H32.2898V16.1456H39.2345V17.4338H30.8467Z" fill="#676465"/>
    <path d="M44.2067 9.2097C42.1763 9.2097 41.8529 10.9522 41.8529 12.7715C41.8529 14.5915 42.1763 16.3347 44.2067 16.3347C46.237 16.3347 46.5412 14.5915 46.5412 12.7715C46.5412 10.9522 46.237 9.2097 44.2067 9.2097ZM46.5412 21.602V16.3347C45.7813 17.3002 44.9275 17.5468 43.9031 17.5468C42.9534 17.5468 42.1195 17.2255 41.6254 16.7321C40.6764 15.7845 40.4866 14.231 40.4866 12.7715C40.4866 11.3126 40.6764 9.75924 41.6254 8.81225C42.1195 8.31889 42.9534 7.99756 43.9031 7.99756C44.9275 7.99756 45.8005 8.22436 46.5597 9.2097V8.1106H47.9076V21.602H46.5412Z" fill="#676465"/>
    <path d="M55.9802 17.4338V16.3916C55.3155 17.1487 54.3857 17.5475 53.3421 17.5475C52.3362 17.5475 51.5009 17.244 50.9315 16.6753C50.2675 16.0312 49.9824 15.141 49.9824 14.0604V8.11133H51.3494V13.8521C51.3494 15.5015 52.2224 16.3354 53.6264 16.3354C55.0305 16.3354 55.9603 15.4816 55.9603 13.8521V8.11133H57.3273V17.4338H55.9802Z" fill="#676465"/>
    <path d="M61.0398 17.4337H59.6721V8.11121H61.0398V17.4337ZM61.1336 5.458H59.5967V3.9231H61.1336V5.458Z" fill="#676465"/>
    <path d="M66.151 17.4337C64.5565 17.4337 63.7595 16.3161 63.7595 14.9327V9.21037H62.583V8.16811H63.7595V5.24976H65.1259V8.16811H66.7286L67.1192 9.21037H65.1259V14.8943C65.1259 15.7474 65.5247 16.2586 66.3977 16.2586H67.1192V17.4337H66.151Z" fill="#676465"/>
    <path d="M71.558 19.7416C71.3675 20.2542 71.1592 20.5948 70.8933 20.8415C70.4 21.3142 69.7353 21.4862 69.0713 21.4862H68.4827V20.2727H68.9014C69.8497 20.2727 70.1348 19.9698 70.4383 19.116L71.1023 17.2974L67.7427 8.16406H69.2234L71.7855 15.6488L74.3284 8.16406H75.8085L71.558 19.7416Z" fill="#676465"/>
    <path d="M83.9948 5.22985H80.3899V10.1758H83.9948C85.5695 10.1758 86.6905 9.36108 86.6905 7.71311C86.6905 6.06445 85.5695 5.22985 83.9948 5.22985ZM86.709 17.433L83.6351 11.4449H80.3899V17.433H78.9468V3.94165H84.1264C86.4808 3.94165 88.1315 5.36348 88.1315 7.69325C88.1315 9.66394 86.9372 10.9522 85.1899 11.3126L88.3974 17.433H86.709Z" fill="#676465"/>
    <path d="M95.0161 10.5548C94.6557 9.70307 93.8224 9.15286 92.8343 9.15286C91.8469 9.15286 91.0116 9.70307 90.6519 10.5548C90.4422 11.0667 90.4052 11.3511 90.3668 12.1089H95.3018C95.262 11.3511 95.2257 11.0667 95.0161 10.5548ZM90.3668 13.132C90.3668 15.178 91.335 16.3532 93.1187 16.3532C94.2013 16.3532 94.8263 16.0311 95.567 15.2925L96.4968 16.1072C95.5478 17.0549 94.6755 17.5469 93.0817 17.5469C90.6135 17.5469 89.0005 16.0688 89.0005 12.7722C89.0005 9.75929 90.4628 7.99756 92.8343 7.99756C95.2443 7.99756 96.6688 9.74079 96.6688 12.5064V13.132H90.3668Z" fill="#676465"/>
    <path d="M101.441 17.5469C99.866 17.5469 98.6333 17.1872 97.6089 16.2018L98.5189 15.2925C99.2596 16.0689 100.266 16.3724 101.424 16.3724C102.96 16.3724 103.909 15.8222 103.909 14.7231C103.909 13.909 103.434 13.454 102.353 13.3595L100.816 13.2272C98.9937 13.0751 98.0255 12.2597 98.0255 10.7255C98.0255 9.01992 99.4672 7.99756 101.462 7.99756C102.79 7.99756 103.984 8.31894 104.82 9.00075L103.927 9.89156C103.263 9.38037 102.411 9.15286 101.441 9.15286C100.076 9.15286 99.3541 9.7408 99.3541 10.6878C99.3541 11.484 99.8105 11.9568 100.986 12.0514L102.486 12.1843C104.118 12.3363 105.237 12.9613 105.237 14.7045C105.237 16.5039 103.701 17.5469 101.441 17.5469Z" fill="#676465"/>
    <path d="M108.264 17.4337H106.898V8.11121H108.264V17.4337ZM108.36 5.458H106.822V3.9231H108.36V5.458Z" fill="#676465"/>
    <path d="M113.775 9.20966C111.746 9.20966 111.423 10.9522 111.423 12.7715C111.423 14.5914 111.746 16.3346 113.775 16.3346C115.807 16.3346 116.109 14.5914 116.109 12.7715C116.109 10.9522 115.807 9.20966 113.775 9.20966ZM116.129 17.4331V16.3154C115.37 17.3001 114.498 17.5468 113.472 17.5468C112.524 17.5468 111.689 17.2254 111.195 16.7321C110.247 15.7844 110.056 14.231 110.056 12.7715C110.056 11.3126 110.247 9.7592 111.195 8.81222C111.689 8.31885 112.524 7.99752 113.472 7.99752C114.498 7.99752 115.351 8.2243 116.109 9.19046V3.94165H117.476V17.4331H116.129Z" fill="#676465"/>
    <path d="M125.366 10.5548C125.006 9.70307 124.172 9.15286 123.184 9.15286C122.198 9.15286 121.362 9.70307 121.002 10.5548C120.792 11.0667 120.755 11.3511 120.717 12.1089H125.651C125.612 11.3511 125.576 11.0667 125.366 10.5548ZM120.717 13.132C120.717 15.178 121.685 16.3532 123.469 16.3532C124.551 16.3532 125.176 16.0311 125.918 15.2925L126.847 16.1072C125.896 17.0549 125.024 17.5469 123.432 17.5469C120.963 17.5469 119.352 16.0688 119.352 12.7722C119.352 9.75929 120.813 7.99756 123.184 7.99756C125.594 7.99756 127.017 9.74079 127.017 12.5064V13.132H120.717Z" fill="#676465"/>
    <path d="M134.811 17.4338V11.6923C134.811 10.0437 133.919 9.21041 132.515 9.21041C131.11 9.21041 130.2 10.0622 130.2 11.6923V17.4338H128.834V8.11131H130.2V9.13436C130.863 8.37649 131.774 7.99756 132.819 7.99756C133.823 7.99756 134.641 8.30043 135.209 8.86916C135.873 9.51327 136.176 10.3849 136.176 11.4655V17.4338H134.811Z" fill="#676465"/>
    <path d="M141.027 17.4337C139.433 17.4337 138.636 16.3161 138.636 14.9327V9.21037H137.459V8.16811H138.636V5.24976H140.002V8.16811H141.996V9.21037H140.002V14.8943C140.002 15.7474 140.401 16.2586 141.274 16.2586H141.996V17.4337H141.027Z" fill="#676465"/>
    <path d="M144.987 17.4337H143.621V8.11121H144.987V17.4337ZM145.081 5.458H143.544V3.9231H145.081V5.458Z" fill="#676465"/>
    <path d="M152.566 13.1319H149.947C148.544 13.1319 147.861 13.7007 147.861 14.7799C147.861 15.8605 148.524 16.3724 150.005 16.3724C150.801 16.3724 151.505 16.3155 152.093 15.7468C152.415 15.4439 152.566 14.9128 152.566 14.1365V13.1319ZM152.566 17.4331V16.543C151.808 17.3001 151.124 17.5468 149.871 17.5468C148.581 17.5468 147.822 17.3002 147.234 16.6944C146.779 16.2394 146.532 15.5384 146.532 14.7998C146.532 13.1696 147.67 12.1089 149.759 12.1089H152.566V11.2181C152.566 9.85314 151.883 9.17129 150.177 9.17129C148.98 9.17129 148.373 9.45571 147.822 10.2328L146.892 9.3803C147.727 8.2997 148.676 7.99756 150.195 7.99756C152.7 7.99756 153.933 9.07745 153.933 11.1044V17.4331H152.566Z" fill="#676465"/>
    <path d="M158.499 17.4338C156.868 17.4338 156.127 16.373 156.127 14.9512V3.94238H157.493V14.8944C157.493 15.8036 157.797 16.2586 158.746 16.2586H159.486V17.4338H158.499Z" fill="#676465"/>
</svg>
