<svg width="152" height="41" viewBox="0 0 152 41" fill="none" xmlns="http://www.w3.org/2000/svg">
    <g clip-path="url(#clip0_30_9157)">
        <path d="M52.3445 29.4437C52.2605 32.8891 50.4958 36.0824 47.5546 37.9311C44.9495 39.4437 42.0924 40.2 39.0672 40.0319C36.4621 40.116 33.9411 39.6118 31.5042 38.6874C30.7479 38.3513 30.6638 38.0992 30.6638 36.7546C30.6638 34.2336 30.9159 32.1328 30.9159 31.3765C31 30.7882 31.084 30.5361 31.3361 30.5361C31.5882 30.5361 31.7563 30.7042 31.7563 31.1244C31.7563 31.7966 31.7563 32.3849 31.9243 32.9731C32.7647 36.7546 36.4621 38.1832 40.2437 38.1832C45.6218 38.1832 48.2268 34.6538 48.2268 31.3765C48.2268 27.8471 46.6302 25.8303 41.7563 22.2168L39.2353 20.3681C33.2689 15.9143 31.9243 12.805 31.9243 9.27563C32.0924 3.81345 36.5462 0.115967 43.689 0.115967C45.4537 0.115967 47.2184 0.284034 48.8991 0.620169C49.5714 0.788236 50.2437 0.872269 50.8319 0.872269C51.2521 0.872269 51.4201 0.956303 51.4201 1.2084C51.4201 1.4605 51.168 3.14118 51.168 6.58656C51.168 7.42689 51.084 7.76303 50.7479 7.76303C50.4958 7.76303 50.3277 7.51092 50.3277 7.09076C50.2437 6.25042 49.9916 5.32605 49.5714 4.56975C49.2352 3.98151 47.7226 1.88067 42.5966 1.88067C38.731 1.88067 35.7058 4.06555 35.7058 7.76303C35.7058 10.7042 37.3025 12.3849 42.5966 16.3345L44.1932 17.4269C50.7479 22.2168 52.3445 25.4101 52.3445 29.4437ZM71.084 17.5109L69.4874 16.4185C64.1932 12.4689 62.6806 10.7882 62.6806 7.84706C62.6806 4.14958 65.7058 1.96471 69.5714 1.96471C74.7815 1.96471 76.2941 4.06555 76.6302 4.65378C76.9663 5.41008 77.2184 6.33445 77.3865 7.17479C77.4705 7.59496 77.5546 7.84706 77.8067 7.84706C78.0588 7.84706 78.2269 7.51092 78.2269 6.67059C78.2269 3.22521 78.4789 1.54454 78.4789 1.29244C78.4789 1.04034 78.3949 0.956303 77.8907 0.956303C77.2184 0.956303 76.5462 0.872269 75.9579 0.704202C74.2773 0.368068 72.5126 0.2 70.7479 0.2C63.605 0.2 59.1512 3.89748 59.1512 9.35966C59.1512 12.8891 60.4958 15.9983 66.4621 20.4521L68.9832 22.3008C73.8571 25.9143 75.4537 27.9311 75.4537 31.4605C75.4537 34.7378 72.8487 38.2672 67.4705 38.2672C63.689 38.2672 59.9916 36.8387 59.1512 33.0571C58.9831 32.4689 58.9832 31.7966 58.9832 31.2084C58.9832 30.7882 58.8991 30.6202 58.563 30.6202C58.3109 30.6202 58.1428 30.8723 58.1428 31.4605C58.0588 32.3008 57.8907 34.3176 57.8907 36.8387C57.8907 38.1832 57.9747 38.4353 58.731 38.7714C61.084 39.7798 63.689 40.2 66.2941 40.116C69.2352 40.2 72.1764 39.4437 74.7815 38.0151C77.7226 36.1664 79.4874 32.9731 79.5714 29.5277C79.2353 25.4101 77.7226 22.2168 71.084 17.5109ZM24.7815 32.5529C24.5294 32.5529 24.3613 32.721 24.2773 33.3092C23.8571 35.4101 23.1848 36.4185 21.7563 37.0067C20.3277 37.595 17.8067 37.595 16.3781 37.595C10.9159 37.595 9.99155 36.9227 9.82348 33.3933C9.73945 32.3008 9.82348 26.4185 9.82348 24.6538V20.2C9.82348 20.0319 9.90752 19.8639 10.2437 19.8639C11.168 19.8639 16.7983 19.9479 18.2268 20.116C20.4117 20.284 20.9159 21.2084 21.168 21.8807C21.3361 22.3849 21.4201 22.9731 21.4201 23.5613C21.4201 23.8134 21.4201 23.9815 21.8403 23.9815C22.2605 23.9815 22.2605 23.3933 22.2605 23.0571C22.2605 22.721 22.3445 20.7882 22.5126 19.7798C22.6806 18.0992 22.9327 17.2588 22.9327 16.9227C22.9327 16.5866 22.8487 16.5025 22.6806 16.5025C22.5126 16.5025 22.3445 16.6706 21.8403 17.1748C21.2521 17.595 20.4117 17.763 19.0672 17.8471C17.8067 17.9311 10.8319 17.9311 10.1596 17.9311C9.90752 17.9311 9.82348 17.763 9.82348 17.4269V3.30924C9.82348 2.97311 9.90752 2.80504 10.1596 2.80504C10.7479 2.80504 16.8823 2.88908 17.8907 2.97311C20.9159 3.30924 21.5042 3.89748 21.9243 4.73782C22.1764 5.32605 22.2605 5.91429 22.2605 6.58656C22.2605 7.00672 22.5126 7.25882 22.6806 7.25882C22.8487 7.25882 23.0168 6.92269 23.1008 6.67059C23.1848 6.08235 23.3529 3.81345 23.3529 3.30924C23.521 1.88067 23.7731 1.12437 23.7731 0.872269C23.7731 0.620168 23.8571 0.452101 23.521 0.452101C23.2689 0.452101 23.0168 0.620168 22.7647 0.704202C22.0084 0.872269 21.168 0.956303 20.3277 0.956303H7.47054C7.21844 0.956303 3.68903 0.872269 1.16802 0.872269C0.495753 0.872269 0.243652 1.04034 0.243652 1.2084C0.243652 1.37647 0.495753 1.54454 0.66382 1.54454C1.33609 1.54454 1.92432 1.62857 2.59659 1.71261C4.44533 2.04874 4.8655 2.97311 5.03357 4.56975C5.1176 6.25042 5.1176 7.67899 5.1176 15.6622V24.6538C5.1176 29.5277 5.1176 33.5613 4.8655 35.7462C4.6134 37.2588 4.3613 38.3513 3.26886 38.5193C2.68063 38.6034 2.17643 38.6874 1.58819 38.6874C1.25206 38.6874 1.16802 38.8555 1.16802 39.0235C1.16802 39.3597 1.42012 39.4437 2.09239 39.4437C3.77306 39.4437 7.30248 39.2756 7.63861 39.2756C9.23525 39.2756 13.0168 39.6118 21.5042 39.6118C23.689 39.6118 24.1092 39.6118 24.5294 38.2672C24.8655 36.6706 25.1176 34.9899 25.2857 33.3092C25.1176 32.9731 25.0336 32.5529 24.7815 32.5529ZM108.395 32.5529C108.143 32.5529 107.975 32.721 107.891 33.3092C107.471 35.4101 106.798 36.4185 105.37 37.0067C103.941 37.595 101.42 37.595 99.9915 37.595C94.5294 37.595 93.689 36.9227 93.4369 33.3933C93.3529 32.3008 93.4369 26.4185 93.4369 24.6538V20.2C93.4369 20.0319 93.521 19.8639 93.8571 19.8639C94.7815 19.8639 100.412 19.9479 101.924 20.116C104.109 20.284 104.613 21.2084 104.866 21.8807C105.034 22.3849 105.118 22.9731 105.118 23.5613C105.118 23.8134 105.118 23.9815 105.538 23.9815C105.958 23.9815 105.958 23.3933 105.958 23.0571C105.958 22.721 106.042 20.7882 106.21 19.7798C106.378 18.0992 106.63 17.2588 106.63 16.9227C106.63 16.5866 106.546 16.5025 106.378 16.5025C106.126 16.5025 105.958 16.7546 105.538 17.1748C105.034 17.679 104.193 17.763 102.933 17.9311C101.672 18.0151 94.6974 18.0151 94.0252 18.0151C93.7731 18.0151 93.689 17.8471 93.689 17.5109V3.30924C93.689 2.97311 93.7731 2.80504 94.0252 2.80504C94.6134 2.80504 100.748 2.88908 101.756 2.97311C104.781 3.30924 105.37 3.89748 105.706 4.73782C105.958 5.32605 106.042 5.91429 106.042 6.58656C106.042 7.00672 106.294 7.25882 106.462 7.25882C106.714 7.25882 106.798 6.92269 106.882 6.67059C106.966 6.08235 107.134 3.81345 107.134 3.30924C107.302 1.88067 107.555 1.12437 107.555 0.872269C107.555 0.620168 107.639 0.452101 107.302 0.452101C107.05 0.452101 106.798 0.620168 106.546 0.704202C105.79 0.872269 104.95 0.956303 104.109 0.956303H91.084C90.7479 0.956303 87.3025 0.788236 84.7815 0.788236C84.1932 0.788236 83.8571 0.956303 83.8571 1.2084C83.8571 1.4605 84.1092 1.54454 84.2773 1.54454C84.9495 1.54454 85.5378 1.62857 86.21 1.71261C88.0588 2.13277 88.563 2.97311 88.647 4.65378C88.731 6.25042 88.731 7.67899 88.731 15.6622V24.6538C88.731 29.5277 88.731 33.5613 88.479 35.7462C88.2268 37.2588 87.9747 38.3513 86.8823 38.5193C86.2941 38.6034 85.7899 38.6874 85.2016 38.6874C84.8655 38.6874 84.7815 38.8555 84.7815 39.0235C84.7815 39.3597 85.0336 39.4437 85.7058 39.4437C87.3865 39.4437 90.9159 39.2756 91.168 39.2756C92.7647 39.2756 96.5462 39.6118 105.034 39.6118C107.218 39.6118 107.639 39.6118 108.059 38.2672C108.395 36.6706 108.647 34.9899 108.815 33.3092C108.731 32.9731 108.647 32.5529 108.395 32.5529ZM151.252 38.6874C150.58 38.6874 149.908 38.5193 149.319 38.3513C147.975 38.0151 146.798 37.1748 146.042 36.0824C144.866 34.7378 135.286 19.8639 134.193 18.2672L143.269 5.91429C144.865 3.72941 145.958 2.21681 147.555 1.79664C148.143 1.62857 148.815 1.54454 149.403 1.54454C149.823 1.54454 149.992 1.37647 149.992 1.2084C149.992 1.04034 149.739 0.872269 149.067 0.872269C147.134 0.872269 144.866 1.04034 144.361 1.04034C143.857 1.04034 141.504 0.872269 139.403 0.872269C138.731 0.872269 138.479 0.956303 138.479 1.2084C138.479 1.4605 138.647 1.54454 138.983 1.54454C139.571 1.54454 140.076 1.54454 140.664 1.71261C141.252 1.88067 141.588 2.30084 141.588 2.63698C141.588 3.30924 141.336 3.89748 141 4.48571C140.412 5.57815 134.445 14.3176 132.765 16.5025C129.823 12.1328 127.555 8.35126 125.202 4.31765C124.866 3.81345 124.697 3.22521 124.613 2.63698C124.613 2.21681 124.866 1.88067 125.286 1.79664C125.79 1.71261 126.294 1.62857 126.798 1.62857C127.134 1.62857 127.302 1.54454 127.302 1.29244C127.302 1.04034 127.134 0.956303 126.378 0.956303C124.445 0.956303 121.504 1.12437 121.084 1.12437C120.664 1.12437 116.126 0.956303 114.529 0.956303C113.773 0.956303 113.605 1.12437 113.605 1.29244C113.605 1.4605 113.773 1.62857 114.109 1.62857C114.866 1.62857 115.706 1.79664 116.462 1.96471C118.395 2.55294 119.571 4.06555 120.832 5.99832L129.908 19.6958L119.739 34.3176C117.891 36.9227 116.798 38.0151 115.118 38.4353C114.445 38.6034 113.689 38.6874 113.017 38.6874C112.765 38.6874 112.597 38.8555 112.597 39.0235C112.597 39.1916 112.681 39.3597 113.185 39.3597C115.034 39.3597 117.807 39.1916 118.311 39.1916C118.815 39.1916 122.344 39.3597 123.689 39.3597C124.109 39.3597 124.361 39.1916 124.361 39.0235C124.361 38.8555 124.193 38.6874 123.941 38.6874C123.605 38.6874 123.269 38.6034 122.849 38.6034C122.344 38.5193 122.008 38.0992 121.924 37.679C122.008 36.8387 122.26 36.0824 122.681 35.4101L131.42 21.8807C134.781 27.0067 138.059 32.0487 141.084 37.0908L142.176 39.2756C145.034 39.3597 147.723 39.3597 151.168 39.3597C151.672 39.3597 151.924 39.1916 151.924 38.9395C151.924 38.6874 151.588 38.6874 151.252 38.6874Z" fill="black"/>
    </g>
    <defs>
        <clipPath id="clip0_30_9157">
            <rect width="151.513" height="40" fill="white" transform="translate(0.243652 0.115967)"/>
        </clipPath>
    </defs>
</svg>
