<svg width="146" height="41" viewBox="0 0 146 41" fill="none" xmlns="http://www.w3.org/2000/svg">
    <g clip-path="url(#clip0_30_9161)">
        <path d="M47.4179 7.90753L50.9332 20.5553H43.6513L47.4179 7.90753ZM41.0257 29.4148L37.8269 39.9064H56.5284L53.5206 29.4148H41.0257ZM89.8373 0.325439H53.9355V11.5922H65.2623V39.9064H83.4888C82.3643 39.2131 74.6294 33.0721 74.6294 21.6143C74.6294 12.0889 80.4101 2.77094 89.8373 0.325439ZM96.0602 29.7696C100.296 29.7696 103.697 26.2542 103.697 21.8109C103.697 17.3947 100.509 13.399 96.2185 13.399C91.9061 13.399 88.5163 17.3947 88.5163 21.8109C88.5163 26.2542 91.6987 29.7696 96.0602 29.7696ZM133.714 25.2061L126.427 0.325439H107.769V39.9064H119.423V15.0967H119.505L126.727 39.9064H145.543V0.325439H133.785V25.2061H133.714ZM23.0394 39.9064L26.4074 28.8088H13.9234V25.4518H27.4281L30.6379 14.8128H13.9234V11.5922H31.5658L34.972 0.325439H0.456787V39.9064H23.0394Z" fill="#1175C7"/>
    </g>
    <defs>
        <clipPath id="clip0_30_9161">
            <rect width="145.505" height="40" fill="white" transform="translate(0.247314 0.115967)"/>
        </clipPath>
    </defs>
</svg>
