<svg width="30" height="41" viewBox="0 0 30 41" fill="none" xmlns="http://www.w3.org/2000/svg">
    <g clip-path="url(#clip0_30_9165)">
        <path d="M0.21875 29.728H29.8102V0.136076H0.21875V29.728Z" fill="#827A71"/>
        <path d="M7.56177 25.0801V24.1509H9.20205C9.33573 24.1295 9.53679 24.0057 9.55542 23.8463V5.90837C9.55323 5.71662 9.33573 5.56212 9.15165 5.55116H7.56177V4.61926H20.6216L20.9919 9.63489H20.2458L19.9132 7.88942C19.6283 6.5395 18.4099 5.55171 17.0145 5.55171L12.3172 5.55116V14.1114H15.2679C16.2119 13.9586 16.5883 13.2255 16.7778 12.3199L17.0676 10.872H17.7541V18.5748H17.1169L16.7756 16.8315C16.5647 15.801 16.0514 15.0455 14.9869 15.0455H12.3172V23.3165C12.3172 23.7691 12.6831 24.14 13.1302 24.1509H17.2062C18.7189 24.0775 20.037 22.9906 20.4013 21.5119L20.8867 18.7299H21.6757L21.119 25.0801H7.56177Z" fill="white"/>
        <path fill-rule="evenodd" clip-rule="evenodd" d="M10.1174 25.1819C12.4379 28.1072 16.0233 29.9839 20.047 29.9839C27.0456 29.9839 32.7143 24.309 32.7143 17.3139C32.7143 14.2742 31.6436 11.484 29.8583 9.30063C29.9909 8.73968 30.061 8.15464 30.061 7.55325C30.061 6.62658 29.8947 5.73888 29.5902 4.91833H29.7693V4.54852H29.4417C28.2788 1.86027 25.6029 -0.0200539 22.4877 -0.0200539C19.3725 -0.0200539 16.6975 1.86029 15.5351 4.54852H12.2787L12.2798 0.127089L11.91 0.126999L11.9089 4.54852H7.74845V0.127043H7.37865V4.54852H0.189941V4.91833H7.37865V24.8121H0.189941V25.1819H7.37865V29.7026H7.74845V25.1819H10.1174ZM9.83488 24.8121H7.74845V20.3646C8.15136 21.9941 8.86966 23.4995 9.83488 24.8121ZM7.74845 17.3139C7.74845 20.1357 8.69911 22.7362 10.2977 24.8121H20.7264L21.2274 19.0865H20.9899V18.7167H21.2597L21.5787 15.0715C17.8249 14.6223 14.9161 11.4271 14.9161 7.55325C14.9161 7.04526 14.966 6.54897 15.0613 6.06904C10.753 7.98205 7.74845 12.2981 7.74845 17.3139ZM7.74845 14.2637V4.91833H15.3867C15.3016 5.14779 15.2273 5.38251 15.1644 5.62186C11.505 7.15181 8.71644 10.3494 7.74845 14.2637ZM15.5975 5.45014C15.6524 5.26976 15.7142 5.09239 15.7826 4.91833H17.4249C16.7974 5.05041 16.187 5.22894 15.5975 5.45014ZM22.4994 4.54852H15.94C17.0784 2.07008 19.5817 0.349749 22.4877 0.349749C22.6146 0.349749 22.7407 0.353027 22.8659 0.359503L22.4994 4.54852ZM23.2346 0.387991C25.8182 0.654064 27.9968 2.28519 29.0368 4.54852H22.8706L23.2346 0.387991ZM22.8382 4.91833H29.1943C29.515 5.73436 29.6912 6.62318 29.6912 7.55325C29.6912 8.02945 29.645 8.49487 29.5568 8.94526C27.8226 6.97604 25.4863 5.54967 22.8351 4.95432L22.8382 4.91833ZM22.8026 5.32622C25.4463 5.93129 27.7647 7.3883 29.4541 9.39266C28.641 12.4791 25.8302 14.7557 22.4877 14.7557C22.3167 14.7557 22.1471 14.7497 21.9791 14.738L22.8026 5.32622ZM21.6109 14.7028C18.0464 14.2702 15.2859 11.2338 15.2859 7.55325C15.2859 6.9819 15.3523 6.42612 15.4779 5.89322C16.8905 5.32759 18.4324 5.0164 20.047 5.0164C20.8652 5.0164 21.6647 5.09627 22.4381 5.24864L21.6109 14.7028ZM21.9468 15.1064C22.1255 15.119 22.3059 15.1255 22.4877 15.1255C25.9084 15.1255 28.7995 12.8575 29.7392 9.74378C31.3717 11.8311 32.3445 14.4592 32.3445 17.3139C32.3445 20.1515 31.3837 22.7653 29.7693 24.8469V24.8121H21.0976L21.5986 19.0865H29.7693V18.7167H21.6309L21.9468 15.1064ZM21.0653 25.1819H29.5C27.3704 27.739 24.223 29.4188 20.6788 29.5981L21.0653 25.1819ZM20.3065 29.6114C20.2202 29.6132 20.1337 29.6141 20.047 29.6141C16.2471 29.6141 12.8499 27.89 10.5939 25.1819H20.694L20.3065 29.6114Z" fill="white"/>
        <path d="M7.53076 25.0581V24.1284H9.16831C9.30198 24.1081 9.50414 23.9843 9.52222 23.8243V5.89571C9.52113 5.70286 9.30308 5.54892 9.1179 5.53796H7.53076V4.60605H20.5824L20.9538 9.62004H20.2087L19.874 7.87566C19.5913 6.52739 18.3729 5.53851 16.9797 5.53851L12.2829 5.53796V14.0949H15.2331C16.1749 13.9421 16.5523 13.2085 16.7413 12.304L17.0312 10.8566H17.716V18.555H17.081L16.7402 16.8134C16.5299 15.7823 16.0154 15.0279 14.9515 15.0279H12.2829V23.2951C12.2829 23.7476 12.6488 24.1174 13.097 24.1284H17.1692C18.6813 24.0555 19.9994 22.9691 20.3632 21.491L20.8497 18.7101H21.6364L21.0798 25.0581H7.53076Z" fill="white"/>
        <path d="M3.28613 35.1926L3.3442 34.7669H3.45487V37.1955H3.35899L3.28613 36.68C3.20778 36.2981 2.87085 36.0083 2.46653 36.0083H1.62776V38.8583C1.62776 39.0676 1.7839 39.2281 1.98058 39.2308H3.35132C3.91014 39.2023 4.37362 38.8062 4.50237 38.2803L4.62618 37.4086H4.76479L4.60646 39.2116L4.59057 39.3826H0.190186V39.2308H0.660247C0.750095 39.2182 0.821865 39.1464 0.834466 39.0566V33.0203C0.83337 32.9135 0.750095 32.8269 0.648742 32.8192H0.190186V32.6653H4.42348L4.43663 32.8357L4.53688 34.1911H4.41252L4.33911 33.6723C4.23775 33.1874 3.80823 32.8214 3.29434 32.8192H1.62776V35.8566H2.56734C2.91687 35.8045 3.21436 35.535 3.28613 35.1926Z" fill="black"/>
        <path d="M8.21564 38.7284V39.3989H9.43463V39.2554H8.93224V32.4214C8.67365 32.5973 8.42109 32.6652 8.12799 32.6652H7.71381V32.8121H8.20688V36.1759C7.96418 35.5661 7.55 35.2374 7.05693 35.2374C6.2461 35.2374 5.4917 36.1682 5.4917 37.3648C5.4917 38.6681 6.18583 39.5222 7.13527 39.5222C7.57465 39.5222 7.92035 39.2554 8.21564 38.7284ZM6.27787 37.9553V36.7873C6.27787 35.8784 6.55728 35.4253 7.10843 35.4253C7.57465 35.4253 7.98171 35.8209 8.20688 36.543V38.3619C7.97294 39.0226 7.59164 39.3683 7.09035 39.3683C6.49592 39.3683 6.27787 38.9196 6.27787 37.9553Z" fill="black"/>
        <path d="M9.8335 35.4916H10.1885L11.6748 39.5227L11.7433 39.4707L12.6522 36.8875L13.6181 39.5227L13.6893 39.4707L14.8048 36.3013C14.9938 35.7567 15.099 35.4916 15.3827 35.4916H15.4353V35.3508H14.2333V35.4916C14.6294 35.5025 14.7932 35.5239 14.7932 35.7469C14.7932 35.84 14.7598 35.9414 14.7171 36.0641L13.9222 38.3514L12.9026 35.4916H13.4893V35.3508H11.5877V35.4916H12.1416L12.575 36.6536L11.9778 38.3514L10.9473 35.4916H11.442V35.3508H9.8335V35.4916Z" fill="black"/>
        <path d="M17.8017 38.6568C17.6297 39.0623 17.301 39.2989 16.9723 39.2989C16.5932 39.2989 16.3696 38.973 16.3696 38.3911C16.3696 37.6296 16.7466 37.2735 17.5426 37.2735C17.6209 37.2735 17.7097 37.2735 17.8017 37.285V38.6568ZM19.2716 38.9626L19.1791 38.8612C19.013 39.1149 18.8903 39.2474 18.7358 39.2474C18.5638 39.2474 18.48 39.0442 18.48 38.6059V36.5646C18.48 36.1022 18.4504 35.8683 18.1228 35.5845C17.8456 35.3511 17.536 35.2267 17.1542 35.2267C16.3768 35.2267 15.8689 35.7466 15.8689 36.3175C15.8689 36.6013 16.0228 36.7991 16.265 36.7991C16.4891 36.7991 16.6354 36.6117 16.6354 36.3175C16.6354 36.0359 16.3932 35.9532 16.3932 35.8683C16.3932 35.717 16.671 35.3708 17.1383 35.3708C17.6209 35.3708 17.8017 35.6047 17.8017 36.1022V37.1305H17.7601C16.3592 37.1305 15.6174 37.6482 15.6174 38.504C15.6174 39.0738 16.0311 39.5225 16.6107 39.5225C17.2057 39.5225 17.6111 39.2989 17.839 38.8508C17.9162 39.2557 18.1655 39.4901 18.5293 39.4901C18.8125 39.4901 19.0322 39.3176 19.2716 38.9626Z" fill="black"/>
        <path d="M19.5918 39.3989H21.2847V39.2554H20.8108V36.8755C20.9828 35.9255 21.3296 35.4034 21.6408 35.4034C21.6753 35.4034 21.7087 35.4166 21.7438 35.4253C21.6408 35.5667 21.58 35.6877 21.58 35.8214C21.58 36.0559 21.7619 36.246 21.9662 36.246C22.176 36.246 22.3141 36.0641 22.3141 35.7573C22.3141 35.4533 22.0971 35.227 21.7619 35.227C21.3553 35.227 21.0502 35.5754 20.8108 36.2887V35.227C20.636 35.3125 20.3708 35.3508 20.006 35.3508H19.5918V35.4916H20.0838V39.2554H19.5918V39.3989Z" fill="black"/>
        <path d="M25.4812 38.7284V39.3989H26.7002V39.2554H26.2V32.4214C25.9403 32.5973 25.6889 32.6652 25.3936 32.6652H24.9805V32.8121H25.4725V36.1759C25.2297 35.5661 24.8167 35.2374 24.3269 35.2374C23.5111 35.2374 22.76 36.1682 22.76 37.3648C22.76 38.6681 23.4514 39.5222 24.4003 39.5222C24.8413 39.5222 25.1903 39.2554 25.4812 38.7284ZM23.5462 37.9553V36.7873C23.5462 35.8784 23.8239 35.4253 24.3762 35.4253C24.8413 35.4253 25.2489 35.8209 25.4725 36.543V38.3619C25.2418 39.0226 24.8594 39.3683 24.3565 39.3683C23.7609 39.3683 23.5462 38.9196 23.5462 37.9553Z" fill="black"/>
        <path d="M27.3784 39.4304H27.4984C27.4984 39.2282 27.5422 39.1449 27.6458 39.1449C27.7499 39.1449 28.0101 39.5295 28.6133 39.5295C29.263 39.5295 29.7035 38.9625 29.7035 38.0876C29.7035 37.4148 29.3748 36.959 28.7864 36.8565C28.3717 36.7875 28.0172 36.8357 27.8014 36.5815C27.7049 36.4604 27.6458 36.301 27.6458 36.1137C27.6458 35.6989 27.9318 35.3708 28.3531 35.3708C28.8637 35.3708 29.1683 35.717 29.2959 36.4221H29.3912V35.2267H29.2532C29.263 35.2694 29.263 35.3034 29.263 35.3297C29.263 35.4431 29.2285 35.5028 29.1557 35.5028C29.097 35.5028 28.8297 35.2376 28.3372 35.2376C27.7827 35.2376 27.3784 35.7817 27.3784 36.4785C27.3784 37.1924 27.7827 37.6383 28.4911 37.6383C29.0368 37.6383 29.3315 37.9238 29.3315 38.4125C29.3315 38.9937 29.0368 39.3509 28.553 39.3509C27.9915 39.3509 27.6699 38.9307 27.4617 38.0043H27.3784V39.4304Z" fill="black"/>
    </g>
    <defs>
        <clipPath id="clip0_30_9165">
            <rect width="29.6202" height="40" fill="white" transform="translate(0.189941 0.115967)"/>
        </clipPath>
    </defs>
</svg>
