<svg width="158" height="41" viewBox="0 0 158 41" fill="none" xmlns="http://www.w3.org/2000/svg">
    <g clip-path="url(#clip0_30_9278)">
        <path fill-rule="evenodd" clip-rule="evenodd" d="M105.351 5.36442C104.558 5.41012 104.4 5.47813 104.319 5.81067C104.266 6.02648 104.246 12.1471 104.273 19.412L104.324 32.621L106.242 32.6717L108.161 32.7224V18.9626V5.20288L107.224 5.25679C106.709 5.28624 105.866 5.33479 105.351 5.36442ZM151.031 9.25466C150.726 9.46814 150.638 9.68056 150.679 10.1025C150.724 10.5665 150.867 10.7294 151.489 11.0286C152.547 11.5366 152.723 11.7399 152.42 12.1049C152.238 12.3241 151.981 12.3772 151.41 12.3129C150.865 12.2515 150.644 12.2918 150.644 12.4534C150.644 13.0105 152.259 13.0672 152.797 12.5289C153.424 11.9024 153.201 11.2765 152.162 10.743C151.556 10.4322 151.269 10.1738 151.269 9.93974C151.269 9.65593 151.396 9.59452 151.983 9.59452C152.723 9.59452 153.105 9.34801 152.732 9.11114C152.368 8.87927 151.457 8.95603 151.031 9.25466ZM153.857 10.9333C153.857 12.5596 153.903 12.8968 154.125 12.8968C154.34 12.8968 154.394 12.6226 154.396 11.5134L154.399 10.13L154.936 11.1041C155.491 12.1099 155.814 12.4391 156.034 12.2197C156.103 12.1501 156.404 11.6514 156.701 11.1116L157.242 10.13L157.246 11.5134C157.247 12.3145 157.324 12.8968 157.427 12.8968C157.536 12.8968 157.606 12.1233 157.606 10.9333C157.606 9.75999 157.535 8.96977 157.43 8.96977C157.333 8.96977 156.97 9.53205 156.624 10.2193C156.278 10.9065 155.925 11.4688 155.841 11.4688C155.756 11.4688 155.391 10.9065 155.03 10.2193C154.072 8.39571 153.857 8.52638 153.857 10.9333ZM53.8973 13.1652C50.4654 13.9414 48.1458 16.3154 47.1832 20.0368C46.7828 21.5851 46.7889 24.5619 47.1959 26.1058C48.3838 30.6129 51.8206 33.0714 56.9247 33.065C59.441 33.0618 63.3574 32.2196 63.358 31.6816C63.358 31.6091 63.2287 30.8987 63.0708 30.1026L62.7834 28.6551L61.4298 29.085C55.721 30.8978 51.7071 29.2256 50.9577 24.7224L50.8314 23.9638H57.2522H63.6732L63.7808 23.5622C63.9817 22.8126 63.8892 20.131 63.6236 19.0049C62.7773 15.4151 60.1776 13.2377 56.4466 12.9937C55.5518 12.9353 54.6447 12.9964 53.8973 13.1652ZM91.3075 13.0858C86.7583 13.8475 83.8784 17.6827 83.8884 22.966C83.8962 27.0791 85.5523 30.2943 88.4729 31.8663C91.2281 33.3493 95.99 33.4743 99.5132 32.1561L100.448 31.8064L100.191 30.6072C100.049 29.9476 99.8977 29.2351 99.8536 29.0237L99.7738 28.6396L98.5275 29.0612C95.81 29.9807 92.8143 30.0044 90.9363 29.1215C89.4304 28.4138 88.248 26.6438 87.938 24.6332L87.8348 23.9638H94.3388H100.843V21.8625C100.843 18.5224 100.178 16.6821 98.3535 14.9758C96.5672 13.305 94.0427 12.6278 91.3075 13.0858ZM118.797 13.0747C114.677 13.8161 112.096 16.8179 111.574 21.4748C111.169 25.0933 112.094 28.392 114.112 30.526C115.778 32.2871 117.733 33.0673 120.481 33.0673C124.946 33.0673 127.976 30.6959 129.148 26.2843C129.562 24.7249 129.569 21.4355 129.161 19.8583C128.303 16.5398 126.335 14.2969 123.509 13.4173C122.223 13.0174 120.01 12.8564 118.797 13.0747ZM139.577 13.0092C137.814 13.2307 135.822 13.6845 134.477 14.1714L132.973 14.7155V23.713V32.7103H134.936H136.9V24.9584V17.2065L137.926 16.8156C139.167 16.3429 141.807 16.1501 142.916 16.4509C143.795 16.6895 144.642 17.3527 145.073 18.1391C145.342 18.6313 145.389 19.53 145.468 25.6595L145.557 32.621L147.476 32.6717L149.395 32.7224V25.7736C149.395 19.2981 149.37 18.7452 149.033 17.6533C148.138 14.7571 145.703 13.1827 141.844 13.006C140.941 12.9646 139.921 12.9662 139.577 13.0092ZM65.9582 13.8339C66.5322 15.6716 68.0236 18.149 70.0994 20.7133L71.5863 22.5502L70.6213 23.6585C69.1712 25.3241 68.1459 26.7909 67.3375 28.3565C66.6663 29.656 65.6783 32.1487 65.6783 32.5425C65.6783 32.6366 66.4958 32.7103 67.5383 32.7103H69.3981L69.7003 31.7732C70.3166 29.8623 73.1887 25.0348 73.7094 25.0348C74.0951 25.0348 77.022 29.3586 78.1535 31.6002L78.714 32.7103H80.7762C83.2013 32.7103 83.1233 32.9136 81.7271 30.2347C80.6304 28.1305 79.2525 26.0619 77.741 24.2501L76.5652 22.8408L77.377 21.9296C79.6884 19.3356 81.2976 16.6931 81.9848 14.3637L82.2629 13.4207L80.2821 13.4712L78.3013 13.5215L78.0882 14.2355C77.6432 15.7262 76.2261 18.2047 74.8207 19.9506C74.4261 20.4405 74.4052 20.4457 74.1599 20.1128C72.3681 17.6813 71.4492 16.297 70.762 14.9942L69.938 13.4323H67.8855C65.8386 13.4323 65.8331 13.4333 65.9582 13.8339ZM54.7395 16.2961C52.7399 16.792 51.4584 18.3441 50.9504 20.8847L50.8344 21.4648H55.4897H60.1448V20.7792C60.1448 19.8601 59.7334 18.5461 59.1871 17.7206C58.4169 16.5569 56.3531 15.8959 54.7395 16.2961ZM91.5499 16.3436C90.5175 16.6344 89.7071 17.2109 89.0442 18.1259C88.5119 18.8608 87.9908 20.3076 87.9908 21.051V21.4648H92.5665H97.1423L97.056 20.2585C96.9283 18.4753 96.2416 17.3084 94.9209 16.631C94.0529 16.1858 92.5613 16.0587 91.5499 16.3436ZM118.412 16.7133C116.56 17.576 115.662 19.3446 115.522 22.4076C115.416 24.7128 115.657 26.0308 116.443 27.4508C117.47 29.3047 119.375 30.1593 121.491 29.7154C123.515 29.2909 124.694 27.9959 125.223 25.6163C125.633 23.7756 125.502 20.8961 124.941 19.412C124.447 18.1042 123.222 16.8286 122.152 16.508C120.958 16.1505 119.442 16.2337 118.412 16.7133Z" fill="#7408BE"/>
        <path fill-rule="evenodd" clip-rule="evenodd" d="M12.9224 0.313208C12.1694 0.696626 11.872 1.27854 11.324 3.44178C10.8342 5.37529 9.85278 8.17079 9.22678 9.416C8.60096 10.6607 7.85715 11.4404 6.23654 12.5503C0.0347333 16.7981 -1.39648 22.61 2.7474 26.718C3.60063 27.5638 4.3423 28.0561 6.12855 28.9618C7.61849 29.7172 8.62648 30.3537 9.01776 30.786C9.75282 31.5982 10.5511 33.1553 10.9604 34.5752C11.6694 37.0355 12.984 38.82 14.7166 39.6739C15.4837 40.0522 15.8598 40.1143 17.3941 40.1159C19.0907 40.1179 19.2485 40.0848 20.5821 39.4481C22.1538 38.6977 22.8683 38.1813 24.7913 36.4058C26.0588 35.2355 27.7119 34.2398 29.3425 33.6645C29.7368 33.5253 31.1455 33.2924 32.4732 33.1467C36.3163 32.7253 38.2257 31.9991 39.6468 30.4185C40.5291 29.4371 40.8668 28.5569 40.8668 27.2382C40.8668 25.488 40.4945 24.5061 37.96 19.5734C36.7622 17.242 36.5405 16.1342 36.8047 13.7982C37.1431 10.8051 36.7224 8.25897 35.5921 6.45968C34.9519 5.44063 33.4451 4.20415 32.3349 3.787C31.0543 3.30594 29.1367 3.15564 27.7471 3.4275C23.6103 4.23646 22.6504 4.06475 17.7511 1.63964C14.6657 0.112395 13.7894 -0.128223 12.9224 0.313208ZM13.252 0.768562C12.8248 0.932603 12.1283 2.13373 12.1283 2.706C12.1283 3.04712 12.1547 3.04997 12.7977 2.78097C13.7125 2.39827 15.0678 2.55249 17.8267 3.35271C19.0464 3.7065 20.4521 4.03511 20.9505 4.08295L21.8566 4.16988L20.6071 3.65366C19.9198 3.36967 18.3133 2.60926 17.0371 1.96398C14.6146 0.739109 13.9088 0.516162 13.252 0.768562ZM13.1101 3.23865C12.5219 3.49997 11.9552 4.2245 11.5924 5.17877L11.2504 6.07876L12.23 5.489C13.512 4.71699 14.8645 4.50011 17.7511 4.60346C19.0273 4.64916 19.9912 4.64719 19.8931 4.59918C19.7949 4.55116 18.7507 4.2279 17.5726 3.88053C15.2952 3.20937 13.6945 2.97911 13.1101 3.23865ZM29.5604 4.20505C31.0718 4.78803 32.2363 5.66429 33.2181 6.95734C34.2539 8.3218 34.737 9.59058 35.1648 12.0728C35.3492 13.1413 35.5964 14.306 35.7146 14.6611L35.9292 15.3065L36.0823 14.771C36.1666 14.4765 36.2842 13.4323 36.344 12.4505C36.6519 7.39163 34.1593 4.11972 29.7998 3.86072L28.4611 3.78111L29.5604 4.20505ZM26.3016 4.47904C26.3719 4.59275 26.5759 4.68575 26.7551 4.68575C27.5277 4.68575 30.0536 6.17962 31.1257 7.27061C32.1278 8.2902 32.4645 8.78947 33.9373 11.4407C34.2286 11.9653 34.5083 12.3532 34.5588 12.3029C34.6091 12.2524 34.5549 11.7428 34.4381 11.1705C33.8264 8.174 31.9773 5.7323 29.6615 4.86246C28.5307 4.43781 26.105 4.16096 26.3016 4.47904ZM24.1801 5.03971C23.8979 5.14021 23.9704 5.19287 24.5371 5.29836C26.5898 5.68053 28.915 6.78741 30.8587 8.30734C31.7842 9.03134 31.9341 9.1047 31.6323 8.68594C30.6091 7.26704 28.4768 5.76425 26.8546 5.31853C25.6747 4.99455 24.6167 4.88424 24.1801 5.03971ZM14.7813 5.21893C12.7243 5.48347 11.6715 6.32188 10.5202 8.61275L9.93703 9.773L10.7224 9.0499C12.3755 7.52783 14.2853 6.41024 16.3784 5.74033C18.2232 5.14967 17.4024 4.88192 14.7813 5.21893ZM19.568 5.58824C13.4867 6.29511 8.41371 10.8119 6.84916 16.913C6.38988 18.7041 6.42736 21.9717 6.92877 23.8745C8.67664 30.5053 14.4768 35.0283 21.2318 35.0283C28.3443 35.0283 34.4558 29.9933 35.7733 23.0486C36.1214 21.2138 36.1223 19.1527 35.776 17.3964C35.4442 15.7131 33.7397 12.1571 32.621 10.814C30.2143 7.92463 26.7159 6.05306 22.843 5.58325C22.0111 5.48239 21.2079 5.41028 21.058 5.42313C20.9082 5.43616 20.2376 5.51042 19.568 5.58824ZM6.59586 13.038C5.22837 13.9612 3.15295 15.9675 2.43163 17.0637C0.651273 19.769 0.592368 22.6202 2.26384 25.166C2.60139 25.68 3.21114 26.3628 3.61866 26.6832L4.35997 27.266L3.9496 26.6413C1.43471 22.8123 2.33774 18.2564 6.4793 13.8785C7.47212 12.8289 7.8484 12.3313 7.62117 12.3686C7.59654 12.3725 7.13529 12.6738 6.59586 13.038ZM5.92363 15.4995C2.52588 19.4745 2.314 24.1708 5.39081 27.3062C5.89418 27.8192 6.33561 28.2096 6.37149 28.1735C6.40755 28.1376 6.19799 27.7178 5.90596 27.2409C4.93456 25.6542 4.56275 24.2644 4.55186 22.1788C4.53972 19.8536 4.91939 18.2701 5.98593 16.1974C6.41487 15.3638 6.73349 14.6818 6.69422 14.6818C6.65477 14.6818 6.30812 15.0496 5.92363 15.4995ZM5.59573 18.6534C5.14466 20.0669 5.05701 23.1377 5.43079 24.4236C5.87044 25.9362 6.62496 27.3301 7.57672 28.3888C8.46208 29.3734 8.9983 29.6547 8.41442 28.8279C7.75076 27.8885 6.77365 25.7547 6.37435 24.3727C6.03912 23.2121 5.97236 22.5465 5.97129 20.3491C5.97058 18.9011 5.95309 17.7163 5.93238 17.7163C5.91167 17.7163 5.76013 18.1379 5.59573 18.6534ZM36.6005 20.5351C36.5539 24.4388 35.1266 27.9584 32.4056 30.8792L31.1386 32.2392L32.2978 31.627C34.6804 30.3684 36.5216 27.9956 37.1214 25.4103C37.3968 24.2238 37.2576 21.0073 36.8813 19.8583L36.6182 19.055L36.6005 20.5351ZM37.867 23.1605C37.8543 26.7873 36.6608 29.2841 34.0083 31.233C33.4118 31.6714 32.8839 32.0687 32.8354 32.1162C32.7868 32.1635 33.2286 32.0236 33.8171 31.8049C36.1205 30.9494 37.6986 29.5401 38.3846 27.7264C38.7048 26.8794 38.7471 26.4771 38.6666 25.0348C38.6142 24.0944 38.4166 22.8619 38.2229 22.268L37.8739 21.197L37.867 23.1605ZM39.3456 24.6778C39.4417 25.9544 39.1074 27.8708 38.6261 28.8015C38.1808 29.6629 36.5926 31.1782 35.5872 31.7012C34.458 32.2885 34.9817 32.304 36.5102 31.7287C38.9924 30.7944 40.3267 29.2331 40.3303 27.2589C40.3315 26.597 39.9054 24.915 39.5324 24.1096C39.2594 23.5198 39.2587 23.5222 39.3456 24.6778ZM10.9593 32.621C11.0341 32.8174 11.3261 33.651 11.6083 34.4733C12.4862 37.0334 13.5477 38.4034 15.228 39.1449C16.3966 39.6607 18.2819 39.6604 19.6301 39.144C20.621 38.7645 21.8473 38.1076 21.1426 38.3337C20.1978 38.6368 18.7307 38.8053 17.8887 38.7072C15.4247 38.4203 13.5243 37.0064 12.2275 34.4953C11.5314 33.1472 10.6798 31.8888 10.9593 32.621ZM12.8666 34.2959C14.545 37.4803 17.3962 38.7402 20.6351 37.7286C21.307 37.5187 22.0574 37.2294 22.3028 37.0855C22.7416 36.8281 22.7387 36.826 22.1243 36.9536C21.7807 37.0252 20.616 37.0835 19.5361 37.0835C17.6907 37.0835 17.4987 37.0485 16.3468 36.503C15.4895 36.097 14.6917 35.5067 13.6936 34.5395L12.2661 33.1565L12.8666 34.2959ZM14.8058 34.6925C16.8805 36.6217 20.2301 37.1462 22.9899 35.9738L23.7392 35.6555L21.1913 35.637C18.9786 35.6209 18.4365 35.5561 17.0688 35.1432C16.2026 34.8817 15.1583 34.5055 14.7483 34.3068L14.0026 33.9457L14.8058 34.6925Z" fill="#16DDA4"/>
    </g>
    <defs>
        <clipPath id="clip0_30_9278">
            <rect width="157.212" height="40" fill="white" transform="translate(0.394287 0.115967)"/>
        </clipPath>
    </defs>
</svg>
