<svg width="46" height="36" viewBox="0 0 46 36" fill="none" xmlns="http://www.w3.org/2000/svg">
    <g clip-path="url(#clip0_722_131)">
        <path d="M29.4351 12.2991C29.4351 9.70983 27.0619 5.98777 22.4766 5.98777C18.3231 5.98777 15.5182 9.54804 15.5182 13.2162C15.5182 17.5854 18.5388 20.7139 23.7173 20.7139H33.5349C31.215 24.3281 27.1697 26.6477 22.5305 26.6477C15.1943 26.6477 9.2608 20.66 9.2608 13.324C9.2608 5.98777 15.1943 5.34058e-05 22.5305 5.34058e-05C29.8665 5.34058e-05 35.8542 5.98777 35.8542 13.324C35.8542 14.7804 35.5846 16.1829 35.2071 17.4775H20.3727V16.0211L25.6051 15.8593C28.2483 15.7515 29.4351 14.4029 29.4351 12.2991Z" fill="#000099"/>
        <path d="M2.89432 32.4939C2.89432 32.1226 2.55379 31.5885 1.89585 31.5885C1.30016 31.5885 0.897695 32.0992 0.897695 32.6255C0.897695 33.2523 1.33098 33.7013 2.07397 33.7013H3.48261C3.14979 34.2197 2.5692 34.5525 1.90387 34.5525C0.851162 34.5525 0 33.6936 0 32.6409C0 31.5885 0.851162 30.7294 1.90387 30.7294C2.95626 30.7294 3.81544 31.5885 3.81544 32.6409C3.81544 32.8499 3.77661 33.0511 3.72237 33.2369H1.59416V33.028L2.34485 33.0046C2.7239 32.9892 2.89432 32.7956 2.89432 32.4939Z" fill="#000099"/>
        <path d="M5.40162 31.9136L6.12921 30.8454H7.13507L5.89685 32.5715L7.23584 34.4365H6.16773L5.37049 33.2757L4.56586 34.4365H3.55969L4.87527 32.6177L3.59852 30.8454H4.66633L5.40162 31.9136Z" fill="#000099"/>
        <path d="M8.34234 31.5499C8.60552 30.9927 9.07763 30.7449 9.55745 30.7449C10.424 30.7449 11.2135 31.4802 11.2135 32.6411C11.2135 33.802 10.424 34.5373 9.55745 34.5373C9.07763 34.5373 8.60552 34.2895 8.34234 33.7323C8.32693 33.7015 8.30351 33.7092 8.30351 33.74V35.9148H7.375V30.8457H8.30351V31.5422C8.30351 31.573 8.32693 31.5807 8.34234 31.5499ZM9.30198 33.7712C9.84373 33.7712 10.3158 33.299 10.3158 32.6411C10.3158 31.9832 9.84373 31.511 9.30198 31.511C8.76792 31.511 8.2881 31.9832 8.2881 32.6411C8.2881 33.299 8.76792 33.7712 9.30198 33.7712Z" fill="#000099"/>
        <path d="M14.4095 32.4939C14.4095 32.1226 14.069 31.5885 13.411 31.5885C12.8154 31.5885 12.4129 32.0992 12.4129 32.6255C12.4129 33.2523 12.8462 33.7013 13.5892 33.7013H14.9978C14.665 34.2197 14.0844 34.5525 13.4191 34.5525C12.3664 34.5525 11.5152 33.6936 11.5152 32.6409C11.5152 31.5885 12.3664 30.7294 13.4191 30.7294C14.4715 30.7294 15.3306 31.5885 15.3306 32.6409C15.3306 32.8499 15.2918 33.0511 15.2376 33.2369H13.1094V33.028L13.86 33.0046C14.2394 32.9892 14.4095 32.7956 14.4095 32.4939Z" fill="#000099"/>
        <path d="M18.5032 33.7322C18.2401 34.2893 17.7679 34.5371 17.2881 34.5371C16.4212 34.5371 15.632 33.8018 15.632 32.6409C15.632 31.4801 16.4212 30.7448 17.2881 30.7448C17.7679 30.7448 18.2401 30.9925 18.5032 31.5497C18.5186 31.5805 18.5418 31.5728 18.5418 31.542V29.2899H19.4706V34.4363H18.5418V33.7399C18.5418 33.7091 18.5186 33.7014 18.5032 33.7322ZM17.5436 31.5109C17.0018 31.5109 16.5297 31.983 16.5297 32.6409C16.5297 33.2989 17.0018 33.771 17.5436 33.771C18.0777 33.771 18.5575 33.2989 18.5575 32.6409C18.5575 31.983 18.0777 31.5109 17.5436 31.5109Z" fill="#000099"/>
        <path d="M20.0585 29.8007C20.0585 29.5067 20.3063 29.2589 20.6003 29.2589C20.8943 29.2589 21.1421 29.5067 21.1421 29.8007C21.1421 30.0947 20.8943 30.3425 20.6003 30.3425C20.3063 30.3425 20.0585 30.0947 20.0585 29.8007ZM21.0647 34.4365H20.1359V30.8454H21.0647V34.4365Z" fill="#000099"/>
        <path d="M24.4 33.7322C24.1369 34.2893 23.6647 34.5371 23.1849 34.5371C22.3183 34.5371 21.5288 33.8018 21.5288 32.641C21.5288 31.4801 22.3183 30.7448 23.1849 30.7448C23.6647 30.7448 24.1369 30.9926 24.4 31.5497C24.4155 31.5806 24.4386 31.5729 24.4386 31.542V30.8456H25.3674V34.4363H24.4386V33.7399C24.4386 33.7091 24.4155 33.7014 24.4 33.7322ZM23.4404 31.5109C22.8986 31.5109 22.4265 31.983 22.4265 32.641C22.4265 33.2989 22.8986 33.771 23.4404 33.771C23.9745 33.771 24.4543 33.2989 24.4543 32.641C24.4543 31.983 23.9745 31.5109 23.4404 31.5109Z" fill="#000099"/>
        <path d="M29.9874 33.7091C29.9874 33.6783 29.9639 33.6702 29.9485 33.7014C29.6857 34.2585 29.2213 34.5063 28.7491 34.5063C27.89 34.5063 27.1085 33.7787 27.1085 32.6256C27.1085 31.4724 27.89 30.7451 28.7491 30.7451C29.2213 30.7451 29.6857 30.9926 29.9485 31.5497C29.9639 31.5809 29.9874 31.5732 29.9874 31.542V30.8456H30.9159V34.2277C30.9159 35.2259 30.2271 36 29.0354 36C28.3698 36 27.7895 35.7676 27.3636 35.3729L27.9211 34.7692C28.2924 35.0635 28.5864 35.2182 29.02 35.2182C29.7011 35.2182 29.9874 34.7384 29.9874 34.1424V33.7091ZM29.0043 31.5112C28.4706 31.5112 28.0062 31.9756 28.0062 32.6256C28.0062 33.2758 28.4706 33.7399 29.0043 33.7399C29.5307 33.7399 30.0028 33.2758 30.0028 32.6256C30.0028 31.9756 29.5307 31.5112 29.0043 31.5112Z" fill="#000099"/>
        <path d="M32.5101 30.8457V31.6272C32.5101 31.6429 32.5255 31.6506 32.5332 31.6272C32.6571 30.985 32.9357 30.7449 33.4155 30.7449H33.5009V31.7203H33.0827C32.7037 31.7203 32.5101 32.0143 32.5101 32.4321V34.4368H31.5813V30.8457H32.5101Z" fill="#000099"/>
        <path d="M35.4742 30.7296C36.5189 30.7296 37.378 31.5888 37.378 32.6412C37.378 33.6936 36.5189 34.5527 35.4742 34.5527C34.4141 34.5527 33.5549 33.6936 33.5549 32.6412C33.5549 31.5888 34.4141 30.7296 35.4742 30.7296ZM35.4665 31.5731C34.9093 31.5731 34.4526 32.0375 34.4526 32.6412C34.4526 33.2449 34.9093 33.7093 35.4665 33.7093C36.0236 33.7093 36.4803 33.2449 36.4803 32.6412C36.4803 32.0375 36.0236 31.5731 35.4665 31.5731Z" fill="#000099"/>
        <path d="M39.3048 34.5527C38.3994 34.5527 37.8188 34.0033 37.8188 33.1983V30.8458H38.7476V33.1287C38.7476 33.4846 38.9797 33.717 39.3279 33.717C39.6453 33.717 39.8854 33.4769 39.8854 33.1364V30.8458H40.8139V33.1983C40.8139 34.0033 40.1871 34.5527 39.3048 34.5527Z" fill="#000099"/>
        <path d="M42.4235 31.5499C42.6866 30.9927 43.1588 30.7449 43.6386 30.7449C44.5055 30.7449 45.2947 31.4802 45.2947 32.6411C45.2947 33.802 44.5055 34.5373 43.6386 34.5373C43.1588 34.5373 42.6866 34.2895 42.4235 33.7323C42.4081 33.7015 42.3849 33.7092 42.3849 33.74V35.9148H41.4561V30.8457H42.3849V31.5422C42.3849 31.573 42.4081 31.5807 42.4235 31.5499ZM43.3831 33.7712C43.9249 33.7712 44.397 33.299 44.397 32.6411C44.397 31.9832 43.9249 31.511 43.3831 31.511C42.8491 31.511 42.3692 31.9832 42.3692 32.6411C42.3692 33.299 42.8491 33.7712 43.3831 33.7712Z" fill="#000099"/>
    </g>
    <defs>
        <clipPath id="clip0_722_131">
            <rect width="45.3489" height="36" fill="white"/>
        </clipPath>
    </defs>
</svg>
