<svg width="531" height="192" viewBox="0 0 531 192" fill="none" xmlns="http://www.w3.org/2000/svg">
    <path d="M265.503 0C118.815 0 0 42.7116 0 95.5601C0 148.39 118.815 191.115 265.503 191.115C412.204 191.115 531 148.39 531 95.5601C531 42.7116 412.204 0 265.503 0Z" fill="#2D4185"/>
    <path d="M373.634 115.94C373.601 115.86 373.582 115.774 373.578 115.68C373.582 115.705 373.582 115.712 373.582 115.727C373.667 116.619 373.902 118.297 374.093 119.552C374.39 118.989 374.685 118.391 374.997 117.758C375.232 117.277 375.115 117.128 374.909 117.051C374.318 116.841 373.714 116.398 373.634 115.94L373.634 115.94Z" fill="url(#paint0_linear)"/>
    <path d="M383.897 102.425C383.982 103.382 384.715 103.498 385.314 102.658C385.472 102.425 385.652 102.141 385.866 101.819C385.696 101.594 385.524 101.375 385.343 101.151C384.507 100.17 382.518 98.052 380.594 96.3906C382.508 98.1973 383.677 100.403 383.897 102.425Z" fill="url(#paint1_linear)"/>
    <path d="M345.51 36.5312C345.598 36.6543 345.675 36.7856 345.753 36.9263C345.676 36.7753 345.598 36.6365 345.51 36.5312Z" fill="url(#paint2_linear)"/>
    <path d="M266.861 182.735C125.604 182.735 11.0977 143.276 11.0977 94.5996C11.0977 45.9147 125.605 6.46094 266.861 6.46094C408.103 6.46094 522.606 45.9147 522.606 94.5996C522.606 143.276 408.103 182.735 266.861 182.735ZM266.861 14.0941C130.567 14.0941 20.0914 50.1301 20.0914 94.5987C20.0914 139.067 130.567 175.109 266.861 175.109C403.153 175.109 513.621 139.067 513.621 94.5987C513.621 50.1301 403.153 14.0941 266.861 14.0941Z" fill="white"/>
    <path d="M426.108 65.7585C426.461 65.1454 426.089 64.6953 425.306 64.6953C421.222 64.6953 415.864 64.7047 411.609 64.7047C410.594 64.7047 410.07 64.8268 409.592 65.7585C408.023 68.7393 388.879 97.143 385.316 102.659C384.716 103.5 383.983 103.383 383.898 102.426C383.538 99.15 380.68 95.3847 376.179 93.5835C372.748 92.2045 369.393 91.9548 365.906 92.4132C359.611 93.25 354.002 96.541 349.07 100.248C341.637 105.844 335.226 113.094 326.947 118.452C322.427 121.368 316.241 123.911 312.1 120.115C308.353 116.676 308.775 109.033 314.508 103.125C315.113 102.506 315.837 103.023 315.723 103.58C315.183 106.253 315.848 108.911 317.896 110.774C320.397 112.993 323.976 113.245 327.04 111.765C330.656 109.99 332.781 106.565 333.4 102.678C334.36 96.6463 329.671 91.3268 323.804 90.9009C319.038 90.5701 314.469 92.211 310.016 95.8515C307.784 97.6843 306.514 99.0401 304.585 101.759C304.114 102.427 303.391 102.496 303.414 101.507C303.638 93.7857 300.411 89.4417 293.963 89.2992C288.96 89.1826 283.613 91.8691 279.446 95.1592C274.878 98.7913 270.884 103.605 266.604 108.128C266.072 108.685 265.606 108.659 265.457 107.578C265.328 102.463 264.029 97.5063 261.637 93.9889C260.791 92.7645 259.012 92.1579 257.516 92.9863C256.825 93.3608 254.418 94.4548 252.671 95.8506C251.801 96.5587 251.465 97.5828 251.846 98.8975C254.156 106.539 253.647 115.229 250.517 122.569C247.642 129.29 242.053 135.354 235.485 137.405C231.158 138.762 226.658 138.098 223.875 134.3C220.052 129.057 221.596 119.941 227.293 112.37C232.324 105.706 239.597 101.471 246.853 98.7447C247.708 98.4186 247.883 97.8763 247.642 97.1579C247.247 95.9745 246.62 94.3681 246.361 93.6329C245.696 91.8802 243.832 91.5942 241.558 91.8402C236.286 92.4477 231.53 94.2367 226.832 96.7265C214.532 103.249 208.364 115.874 205.659 122.627C204.359 125.87 203.245 127.896 201.806 129.69C199.867 132.104 197.434 134.3 192.981 138.171C192.579 138.526 192.279 139.267 192.617 139.955C193.072 140.887 195.387 144.123 196.04 144.412C196.765 144.765 197.607 144.272 197.942 144.031C201.058 141.94 204.784 138.628 206.609 136.381C207.248 135.611 207.905 135.934 208.243 137.103C209.946 143.115 214.404 148.024 220.566 150.077C231.845 153.844 243.546 148.391 252.376 138.901C257.99 132.87 260.015 128.99 262.164 126.353C265.809 121.879 273.002 111.874 281.566 105.449C284.708 103.081 288.426 101.275 290.295 102.474C291.795 103.434 292.279 105.673 289.872 110.008C281.14 125.797 268.29 144.349 265.933 148.849C265.503 149.63 265.878 150.243 266.703 150.243C271.272 150.221 275.803 150.231 279.951 150.231C280.642 150.199 280.952 149.888 281.297 149.405C287.998 139.017 294.306 129.129 301.067 118.909C301.445 118.307 301.794 118.773 301.809 119.036C301.949 121.408 302.537 124.652 303.958 126.782C306.513 130.721 310.135 132.413 314.152 132.438C317.347 132.474 318.963 131.994 322.409 130.72C325.214 129.69 327.466 128.337 329.193 127.115C330.202 126.421 330.379 127.582 330.353 127.76C328.804 136.007 330.717 145.777 338.996 149.829C348.9 154.664 359.784 147.868 366.045 141.733C366.657 141.141 367.316 141.203 367.378 142.477C367.511 144.82 368.58 147.6 370.537 149.546C375.785 154.76 386.373 152.694 396.999 144.55C403.822 139.336 410.96 131.969 417.41 124.167C417.649 123.867 417.827 123.379 417.365 122.89C416.384 121.872 414.961 120.708 413.989 119.81C413.544 119.438 412.894 119.545 412.518 119.825C405.909 126.05 399.959 133.147 391.359 139.018C388.459 141.022 383.838 142.638 381.761 139.857C380.953 138.778 381.044 137.281 381.842 135.322C384.352 129.128 424.047 69.289 426.108 65.7585V65.7585ZM373.636 115.942C373.717 116.4 374.32 116.843 374.911 117.053C375.117 117.13 375.235 117.279 375 117.76C373.31 121.341 371.76 123.407 369.644 126.518C367.7 129.394 365.507 131.638 362.852 133.795C358.849 137.076 353.289 140.647 348.692 138.246C346.65 137.196 345.768 134.368 345.809 132.077C345.915 125.636 348.8 119.024 354.142 112.526C360.656 104.586 367.857 100.468 372.583 102.719C377.472 105.029 375.912 110.633 373.725 115.034C373.561 115.374 373.549 115.663 373.636 115.942Z" fill="white"/>
    <path d="M138.169 150.006C123.367 150.111 110.328 141.053 108.832 125.374C108 116.686 110.481 108.941 115.445 102.563C119.851 96.8795 127.306 92.1572 133.617 91.0036C135.671 90.6309 138.431 90.8686 139.57 92.2141C141.36 94.2761 140.844 96.5404 139.057 97.4442C134.243 99.879 128.449 104.045 125.583 109.734C123.256 114.378 122.787 119.976 126.339 125.306C132.283 134.193 148.852 134.437 164.257 120.265C168.071 116.798 171.486 113.466 174.956 109.519C181.741 101.838 183.998 99.0385 193.017 86.6503C193.125 86.5087 193.154 86.3196 193.107 86.2282C193.033 86.0698 192.907 86.0261 192.644 86.0102C186.624 86.1743 181.374 87.9521 176.273 91.7286C174.804 92.788 172.69 92.639 171.764 91.2432C170.734 89.6656 171.471 87.6073 173.168 86.4481C181.375 80.7959 190.341 79.771 199.498 78.24C199.49 78.24 200.135 78.2708 200.658 77.5813C204.416 72.8059 207.256 68.4964 211.261 63.666C215.297 58.7648 220.516 54.2652 224.5 50.8847C230.062 46.1484 233.627 44.556 237.252 42.6011C238.207 42.1091 237.129 41.5164 236.84 41.5164C216.601 37.7511 195.565 32.8779 175.463 40.2464C161.545 45.3908 155.446 56.3207 158.38 63.6241C160.466 68.8038 167.348 69.6462 173.79 66.5247C179.142 63.9278 184.091 59.7459 187.602 54.3584C189.568 51.3682 193.705 53.5253 191.471 58.7191C185.589 72.408 174.352 83.2661 160.664 83.7227C149.017 84.0973 141.5 75.6133 141.525 65.1447C141.568 44.4982 164.787 30.8978 189.182 28.8647C218.563 26.4606 246.389 34.2084 275.561 37.7129C297.912 40.3918 319.34 40.4495 341.804 35.3378C344.459 34.7675 346.324 36.4448 346.15 39.1003C345.93 42.9402 342.928 46.6366 335.529 50.6331C327.115 55.2026 318.312 56.5881 309.119 56.6627C286.886 56.8452 266.177 48.2654 244.747 43.6549C244.778 44.583 245.019 45.6927 244.232 46.277C232.363 54.9472 221.633 63.7498 214.446 76.1137C214.203 76.3998 214.335 76.6728 214.754 76.643C220.993 76.315 226.605 76.1556 232.43 75.6944C233.447 75.6106 233.485 75.3599 233.395 74.6229C232.882 70.3608 234.138 65.5016 237.924 62.1583C241.799 58.7172 246.653 58.3259 249.867 60.8044C253.527 63.6268 253.203 68.7013 251.202 72.5068C249.165 76.369 245.804 78.432 242.574 79.4355C242.574 79.4355 241.899 79.5828 241.997 80.1912C242.126 81.1668 246.523 83.5801 246.899 84.2221C247.262 84.8334 247.076 85.7819 246.407 86.5078C245.938 87.0352 245.212 87.5328 244.278 87.5141C243.523 87.4992 243.064 87.2411 242.102 86.724C240.126 85.6645 237.661 83.9249 236.018 81.874C235.455 81.1807 235.173 81.1658 233.771 81.2404C227.468 81.601 217.638 82.5412 210.978 83.3658C209.366 83.5643 209.128 83.8625 208.796 84.4159C198.18 101.752 186.843 120.446 174.397 132.962C161.046 146.383 149.948 149.915 138.169 150.006H138.169ZM239.344 72.9773C239.511 73.8672 239.862 74.0386 240.268 73.9641C242.289 73.5634 244.504 71.9151 245.811 70.0077C247.008 68.2774 247.567 65.7783 246.383 64.7776C245.322 63.8784 243.602 64.1337 242.328 65.2491C239.789 67.4695 239.014 70.6236 239.344 72.9773Z" fill="white"/>
    <defs>
        <linearGradient id="paint0_linear" x1="374.353" y1="162.891" x2="374.353" y2="19.2266" gradientUnits="userSpaceOnUse">
            <stop stop-color="#00053E"/>
            <stop offset="0.1748" stop-color="#00073F"/>
            <stop offset="0.3297" stop-color="#001046"/>
            <stop offset="0.4771" stop-color="#001950"/>
            <stop offset="0.6198" stop-color="#00245D"/>
            <stop offset="0.758" stop-color="#002F6D"/>
            <stop offset="0.809" stop-color="#003475"/>
            <stop offset="0.9226" stop-color="#005693"/>
            <stop offset="1" stop-color="#006CA9"/>
        </linearGradient>
        <linearGradient id="paint1_linear" x1="383.23" y1="162.769" x2="383.23" y2="19.4761" gradientUnits="userSpaceOnUse">
            <stop stop-color="#00053E"/>
            <stop offset="0.1748" stop-color="#00073F"/>
            <stop offset="0.3297" stop-color="#001046"/>
            <stop offset="0.4771" stop-color="#001950"/>
            <stop offset="0.6198" stop-color="#00245D"/>
            <stop offset="0.758" stop-color="#002F6D"/>
            <stop offset="0.809" stop-color="#003475"/>
            <stop offset="0.9226" stop-color="#005693"/>
            <stop offset="1" stop-color="#006CA9"/>
        </linearGradient>
        <linearGradient id="paint2_linear" x1="345.631" y1="160.97" x2="345.631" y2="19.6795" gradientUnits="userSpaceOnUse">
            <stop stop-color="#00053E"/>
            <stop offset="0.1748" stop-color="#00073F"/>
            <stop offset="0.3297" stop-color="#001046"/>
            <stop offset="0.4771" stop-color="#001950"/>
            <stop offset="0.6198" stop-color="#00245D"/>
            <stop offset="0.758" stop-color="#002F6D"/>
            <stop offset="0.809" stop-color="#003475"/>
            <stop offset="0.9226" stop-color="#005693"/>
            <stop offset="1" stop-color="#006CA9"/>
        </linearGradient>
    </defs>
</svg>
