<svg width="160" height="34" viewBox="0 0 160 34" fill="none" xmlns="http://www.w3.org/2000/svg">
<g clip-path="url(#clip0_112_5301)">
<path d="M130.673 23.8261H126.292L131.563 13.0986H131.648L130.673 23.8261ZM35.0652 23.8261H30.6849L35.952 13.0986H36.037L35.0652 23.8261ZM145.887 27.8764L151.368 8.77167H143.81L137.58 30.48L137.44 8.77167H128.336L115.958 30.0333L122.059 8.77167H114.885L111.795 22.1026H111.664L109.594 8.77167H101.794L96.3099 27.8764H85.5223L86.999 22.7294H96.4464L97.81 17.9723H88.3625L89.6393 13.5287H99.3867L100.753 8.77167H84.4055H83.4455H64.8207L64.2103 10.9018C63.1069 9.23496 60.7268 8.22491 57.0498 8.22491C51.1827 8.22491 46.8722 10.5118 45.5888 14.9888C44.9888 17.0855 45.3857 18.5425 46.4157 19.7492C47.4858 20.956 49.1992 21.876 51.246 22.8593C52.9828 23.7495 55.023 24.5096 54.4463 26.5097C54.1033 27.7131 52.9828 28.8899 51.206 28.8899C48.8158 28.8899 48.5592 27.6797 48.9526 26.3129L49.4355 24.6262L42.4315 24.6357L41.9449 26.3292L41.8315 8.77124H32.7276L27.5071 17.7386L28.9139 12.8316H16.373L17.9898 7.20448H31.6174L33.4476 0.823853H9.75912L0.63501 32.6264H10.6925L14.5428 19.2121H26.6471L18.8364 32.6297H26.437L28.6606 28.026H34.5877L34.3411 32.6297H41.985L41.9756 30.3162C42.9223 31.9963 45.3757 33.1764 49.8261 33.1764C56.1032 33.1764 60.2701 30.6361 61.5803 26.0625C62.41 23.1756 61.8337 21.5888 60.4203 20.3853C59.0036 19.1786 56.7899 18.352 54.3331 17.0218C53.013 16.2583 52.2263 15.5284 52.8497 14.1016C53.3269 13.0549 54.4165 12.418 55.9499 12.5148C58.4301 12.6414 57.7967 14.545 57.4834 15.9417H64.4439C64.7539 15.0847 64.9135 14.2783 64.9305 13.5283H69.3876L63.9038 32.6297H71.4643L76.9448 13.5283H82.0818L76.6015 32.6297H94.9494H95.3161H102.143L105.27 19.332L105.373 19.2659L107.477 32.6269H114.447H115.214H122.051L124.274 28.0233H130.201L129.951 32.6269H136.965H137.595H153.756L155.123 27.8732L145.887 27.8764Z" fill="#1A64B7"/>
<path d="M156.9 10.7659V10.043H157.38C157.627 10.043 157.89 10.0997 157.89 10.3861C157.89 10.7461 157.624 10.7659 157.323 10.7659H156.9ZM157.653 11.0493C157.996 11.0021 158.257 10.8263 158.257 10.4058C158.257 9.94563 157.987 9.74255 157.434 9.74255H156.548V12.0726H156.901V11.0659H157.307L157.924 12.0726H158.318L157.653 11.0493Z" fill="#1A64B7"/>
<path d="M157.328 12.5898C156.401 12.5898 155.675 11.8764 155.675 10.9064C155.675 9.94632 156.401 9.22631 157.328 9.22631C158.242 9.22631 158.962 9.94632 158.962 10.9064C158.962 11.8765 158.242 12.5898 157.328 12.5898ZM157.328 8.89294C156.215 8.89294 155.271 9.74334 155.271 10.9064C155.271 12.0731 156.214 12.9233 157.328 12.9233C158.428 12.9233 159.365 12.0727 159.365 10.9064C159.365 9.74297 158.429 8.89294 157.328 8.89294Z" fill="#1A64B7"/>
</g>
<defs>
<clipPath id="clip0_112_5301">
<rect width="160" height="33.6223" fill="white" transform="translate(0 0.188843)"/>
</clipPath>
</defs>
</svg>
