<?xml version="1.0" encoding="UTF-8"?>
<svg width="512px" height="512px" viewBox="0 0 512 512" version="1.1" xmlns="http://www.w3.org/2000/svg" xmlns:xlink="http://www.w3.org/1999/xlink">
    <!-- Generator: Sketch 48.1 (47250) - http://www.bohemiancoding.com/sketch -->
    <title>FDAX</title>
    <desc>Created with Sketch.</desc>
    <defs></defs>
    <g id="Компании-BIG" stroke="none" stroke-width="1" fill="none" fill-rule="evenodd">
        <g id="FDAX" fill-rule="nonzero">
            <g id="eintracht-frankfurt">
                <path d="M257.087281,2.37878652 C116.638202,2.37878652 2.37591011,116.638202 2.37591011,257.084404 C2.37591011,397.533483 116.638202,511.798652 257.087281,511.798652 C397.539236,511.798652 511.795775,397.533483 511.795775,257.084404 C511.798652,116.638202 397.539236,2.37878652 257.087281,2.37878652 Z" id="Shape" fill="#B6422D"></path>
                <path d="M257.087281,10.0587865 C120.875146,10.0587865 10.0587865,120.87227 10.0587865,257.084404 C10.0587865,393.296539 120.875146,504.118652 257.087281,504.118652 C393.302292,504.118652 504.115775,393.299416 504.115775,257.084404 C504.118652,120.87227 393.302292,10.0587865 257.087281,10.0587865 Z" id="Shape" fill="#FFFFFF"></path>
                <path d="M494.045483,257.084404 C494.045483,387.955056 387.955056,494.045483 257.090157,494.045483 C126.222382,494.045483 20.1348315,387.955056 20.1348315,257.084404 C20.1319551,126.219506 126.219506,20.1348315 257.087281,20.1348315 C387.955056,20.1348315 494.045483,126.219506 494.045483,257.084404 Z" id="Shape" fill="#B6422D"></path>
                <path d="M450.816,257.084404 C450.816,364.078022 364.080899,450.810247 257.090157,450.810247 C150.096539,450.810247 63.3614382,364.080899 63.3614382,257.084404 C63.3614382,150.093663 150.096539,63.3585618 257.090157,63.3585618 C364.078022,63.3585618 450.816,150.093663 450.816,257.084404 Z" id="Shape" fill="#FFFFFF"></path>
                <path d="M357.26382,378.560719 C356.90427,378.903011 356.90427,379.79182 356.90427,379.79182 C356.90427,379.79182 357.056719,379.325843 357.26382,378.560719 Z M156.910742,378.560719 C157.114966,379.325843 157.270292,379.79182 157.270292,379.79182 C157.270292,379.79182 157.267416,378.905888 156.910742,378.560719 Z" id="Shape" fill="#B6422D"></path>
                <path d="M445.319191,266.944719 C436.011146,266.944719 373.656449,247.399551 369.005303,244.603685 C364.348404,241.813573 369.005303,239.949663 369.005303,239.949663 C369.005303,239.949663 388.550472,244.603685 410.888629,238.088629 C433.226787,231.573573 428.567011,217.611506 428.567011,217.611506 C428.567011,217.611506 380.174382,219.472539 370.863461,219.472539 C361.552539,219.472539 366.212315,217.611506 369.931506,215.750472 C373.656449,213.889438 399.003326,190.107326 402.509663,185.96818 C407.632539,179.916225 402.509663,164.561978 402.509663,164.561978 C374.588404,189.690247 354.117034,196.671281 354.117034,196.671281 L354.117034,186.900135 C369.005303,181.314157 366.212315,158.978876 368.073348,152.46382 C369.934382,145.948764 356.90427,128.264629 355.04036,135.71164 C353.182202,143.158652 346.670022,158.976 338.293933,163.630022 C329.917843,168.284045 321.541753,176.660135 321.541753,176.660135 L321.541753,191.554157 L311.304629,191.554157 L288.034517,212.028404 L282.451416,207.837483 L280.593258,176.194157 C280.593258,176.194157 286.17636,178.055191 293.620494,174.799101 C301.064629,171.543011 297.805663,162.698067 297.805663,162.698067 C284.778427,167.35209 283.377618,159.441978 282.451416,154.321978 C281.519461,149.201978 285.244404,145.013933 292.688539,140.35991 C300.138427,135.705888 297.345438,127.329798 297.345438,127.329798 C297.345438,129.659685 292.228315,132.912899 288.969348,133.378876 C285.710382,133.844854 265.699236,132.449798 265.699236,132.449798 C266.159461,124.073708 250.344989,127.795775 250.344989,127.795775 C250.344989,127.795775 225.67982,130.122787 214.510742,134.773933 C203.341663,139.425079 207.066607,145.47991 207.066607,145.47991 C208.92764,140.35991 220.55982,136.634966 226.145798,138.498876 C229.413393,139.589034 232.824809,146.572944 234.173843,152.645034 C197.321348,158.184989 197.292584,145.011056 197.292584,145.011056 C197.292584,145.011056 188.916494,167.815191 232.657978,155.251056 L234.363685,153.545348 C235.111551,157.477393 234.921708,160.868674 233.123955,161.766112 C228.469933,164.090247 213.112809,161.766112 213.112809,161.766112 C214.973843,169.676225 222.886831,169.676225 222.886831,169.676225 L241.034067,169.676225 C242.782921,172.903551 243.67173,177.025438 244.060045,181.253753 C239.325483,181.489618 232.655101,180.379326 232.655101,180.379326 C232.655101,180.379326 235.899685,192.88018 244.229753,183.698697 C244.692854,193.32027 242.895101,202.717483 242.895101,202.717483 L235.44809,212.022652 L226.142921,212.022652 L202.878562,191.548404 L192.638562,191.548404 L192.638562,176.654382 C192.638562,176.654382 184.259596,168.278292 175.883506,163.62427 C167.507416,158.970247 160.99236,143.152899 159.131326,135.705888 C157.273169,128.258876 144.24018,145.943011 146.101213,152.458067 C147.962247,158.973124 145.172135,181.308404 160.063281,186.894382 L160.063281,196.665528 C160.063281,196.665528 139.589034,189.684494 111.667775,164.556225 C111.667775,164.556225 107.013753,179.447371 111.667775,185.962427 C114.820315,190.377708 140.520989,213.883685 144.243056,215.744719 C147.965124,217.602876 152.622022,219.466787 143.313978,219.466787 C134.005933,219.466787 85.610427,217.605753 85.610427,217.605753 C85.610427,217.605753 80.9564045,231.56782 103.291685,238.082876 C125.629843,244.597933 145.175011,239.94391 145.175011,239.94391 C145.175011,239.94391 149.829034,241.804944 145.175011,244.597933 C140.520989,247.390921 78.1634157,266.938966 68.8582472,266.938966 C68.8582472,266.938966 61.4083596,300.443326 161.927191,266.007011 C161.927191,266.007011 168.442247,264.148854 165.649258,268.794247 C162.85627,273.451146 97.4871011,318.288539 92.8330787,318.288539 C92.8330787,318.288539 100.501573,350.699865 185.197303,289.277124 C185.197303,289.277124 191.479371,287.643326 187.987416,293.92827 C184.498337,300.210337 174.025348,312.075506 167.047191,314.865618 C160.066157,317.658607 173.329258,321.147685 173.329258,321.147685 C173.329258,321.147685 171.934202,331.620674 156.577079,342.786876 C141.219955,353.955955 144.012944,339.993888 144.012944,339.993888 C144.012944,339.993888 119.580764,331.617798 117.486742,345.576989 C117.486742,345.576989 125.865708,341.39182 130.053753,344.179056 C134.241798,346.977798 133.542831,350.466876 141.219955,351.859056 C148.897079,353.256989 140.520989,357.442157 135.636854,356.746067 C130.752719,356.049978 118.884674,371.404225 123.771685,376.987326 C123.771685,376.987326 129.357663,366.52009 132.843865,367.915146 C136.33582,369.313079 142.617888,369.313079 146.106966,365.818247 C149.598921,362.329169 141.918921,378.385258 146.106966,381.874337 C150.295011,385.363416 148.899955,393.043416 155.182022,395.137438 C155.182022,395.137438 151.690067,384.664449 154.483056,380.479281 C155.869483,378.39964 156.568449,378.215551 156.919371,378.55209 C156.243416,376.029483 154.969169,370.106966 156.577079,365.815371 C158.673978,360.23227 165.652135,371.398472 165.652135,371.398472 L168.445124,370.702382 C168.445124,370.702382 176.821213,376.984449 177.52018,381.175371 C177.52018,381.175371 178.91236,371.401348 174.727191,367.91227 L176.821213,365.119281 C176.821213,365.119281 174.028225,356.743191 163.560989,355.351011 C153.090876,353.953079 167.050067,347.671011 167.050067,347.671011 L181.708225,329.518022 C181.708225,329.518022 194.27236,341.388944 192.178337,331.614921 C190.084315,321.846652 208.234427,305.085843 208.234427,305.085843 C208.234427,305.085843 227.779596,295.317573 224.290517,319.050787 C224.290517,319.050787 199.858337,352.555146 192.178337,355.348135 C184.501213,358.141124 187.291326,381.871461 187.291326,381.871461 C187.291326,381.871461 190.783281,367.909393 194.968449,375.589393 C199.159371,383.269393 198.457528,391.645483 202.648449,393.736629 C202.648449,393.736629 200.551551,374.893303 204.742472,376.28836 C208.930517,377.686292 212.419596,381.175371 213.118562,384.664449 C213.118562,384.664449 214.516494,367.21618 216.60764,364.423191 C218.701663,361.630202 222.193618,350.461124 229.870742,346.974921 C237.550742,343.48009 244.528899,344.17618 241.03982,361.633079 C237.550742,379.081348 218.310472,402.673618 238.246831,418.867775 C238.246831,418.867775 238.942921,394.435596 245.224989,398.626517 C251.509933,402.817438 255.697978,408.400539 257.093034,415.378697 C258.485213,408.400539 262.679011,402.817438 268.958202,398.626517 C275.237393,394.435596 275.93636,418.867775 275.93636,418.867775 C295.869843,402.670742 276.632449,379.081348 273.143371,361.633079 C269.654292,344.179056 276.632449,343.48009 284.312449,346.974921 C291.992449,350.464 295.481528,361.633079 297.575551,364.423191 C299.669573,367.213303 301.064629,384.664449 301.064629,384.664449 C301.760719,381.175371 305.249798,377.686292 309.440719,376.28836 C313.63164,374.89618 311.537618,393.736629 311.537618,393.736629 C315.728539,391.645483 315.026697,383.269393 319.217618,375.589393 C323.402787,367.909393 326.897618,381.871461 326.897618,381.871461 C326.897618,381.871461 329.690607,358.141124 322.010607,355.348135 C314.330607,352.555146 289.898427,319.050787 289.898427,319.050787 C286.409348,295.314697 305.954517,305.085843 305.954517,305.085843 C305.954517,305.085843 324.101753,321.843775 322.010607,331.614921 C319.913708,341.388944 332.477843,329.518022 332.477843,329.518022 L347.141753,347.671011 C347.141753,347.671011 361.098067,353.953079 350.630831,355.351011 C340.157843,356.743191 337.36773,365.119281 337.36773,365.119281 L339.464629,367.91227 C335.279461,371.401348 336.67164,381.175371 336.67164,381.175371 C337.36773,376.984449 345.749573,370.702382 345.749573,370.702382 L348.536809,371.398472 C348.536809,371.398472 355.520719,360.229393 357.614742,365.815371 C359.222652,370.106966 357.951281,376.029483 357.272449,378.55209 C357.626247,378.215551 358.322337,378.39964 359.705888,380.479281 C362.504629,384.664449 359.009798,395.137438 359.009798,395.137438 C365.291865,393.040539 363.896809,385.363416 368.081978,381.874337 C372.272899,378.385258 364.592899,362.329169 368.081978,365.818247 C371.576809,369.313079 377.856,369.313079 381.345079,367.915146 C384.834157,366.522966 390.423011,376.987326 390.423011,376.987326 C395.30427,371.404225 383.439101,356.049978 378.55209,356.746067 C373.665079,357.442157 365.288989,353.256989 372.968989,351.859056 C380.643236,350.466876 379.947146,346.977798 384.138067,344.179056 C388.323236,341.39182 396.699326,345.576989 396.699326,345.576989 C394.60818,331.614921 370.176,339.993888 370.176,339.993888 C370.176,339.993888 372.968989,353.955955 357.614742,342.786876 C342.254742,331.617798 340.862562,321.147685 340.862562,321.147685 C340.862562,321.147685 354.125663,317.658607 347.144629,314.865618 C340.163596,312.072629 329.69636,300.207461 326.201528,293.92827 C322.712449,287.640449 328.994517,289.277124 328.994517,289.277124 C413.684494,350.699865 421.352989,318.288539 421.352989,318.288539 C416.701843,318.288539 351.329798,273.451146 348.539685,268.794247 C345.752449,264.148854 352.264629,266.007011 352.264629,266.007011 C452.769079,300.449079 445.319191,266.944719 445.319191,266.944719 Z M257.087281,115.234517 L281.05636,115.234517 L281.05636,104.997393 C281.05636,104.997393 288.500494,93.3623371 293.15164,90.5722247 C297.808539,87.779236 275.933483,94.2942921 272.208539,99.4142921 C272.208539,99.4142921 261.977169,87.1090337 257.090157,85.5816629 C252.203146,87.1090337 241.966022,99.4142921 241.966022,99.4142921 C238.243955,94.2942921 216.371775,87.779236 221.025798,90.5722247 C225.67982,93.3623371 233.123955,104.997393 233.123955,104.997393 L233.123955,115.234517 L257.087281,115.234517 Z" id="Shape" fill="#B6422D"></path>
                <path d="M244.290157,146.414742 C244.290157,146.414742 238.241079,134.313708 254.996135,137.572674 C254.996135,137.572674 250.339236,147.34382 244.290157,146.414742 Z M281.516584,229.712539 C281.516584,229.712539 282.914517,294.195775 257.090157,309.420584 C231.262921,294.195775 232.657978,229.712539 232.657978,229.712539 L281.516584,229.712539 Z M225.20809,248.558742 C202.539146,248.558742 187.426517,221.097708 184.403416,215.11191 C190.394966,213.783011 201.495011,210.437753 198.618607,204.325393 C196.107506,198.995416 187.251056,208.234427 183.051506,213.098427 C182.705338,212.857904 182.293703,212.729394 181.87218,212.730247 C181.547146,206.491326 180.221124,193.067146 174.853753,195.828494 C168.522787,199.090337 176.386876,209.384989 180.166472,213.771506 C179.968002,214.084295 179.858607,214.445296 179.850067,214.81564 C173.847011,215.045753 161.743101,216.325753 163.560989,222.996135 C165.131506,228.757573 175.702292,220.910742 180.600809,216.892404 C183.793618,223.352809 199.726022,252.746787 225.20809,252.746787 C225.982401,252.787385 226.715916,252.397384 227.115269,251.732761 C227.514621,251.068139 227.514621,250.237389 227.115269,249.572767 C226.715916,248.908144 225.982401,248.518143 225.20809,248.558742 Z M334.37627,214.812764 C334.368304,214.442739 334.259933,214.081834 334.062742,213.768629 C337.836584,209.382112 345.703551,199.087461 339.366831,195.825618 C334.002337,193.06427 332.682067,206.488449 332.351281,212.727371 C331.931124,212.726673 331.521094,212.856314 331.177708,213.098427 C326.975281,208.237303 318.121708,198.995416 315.604854,204.325393 C312.734202,210.437753 323.84,213.783011 329.822921,215.11191 C326.79982,221.097708 311.681438,248.558742 289.012494,248.558742 C288.457389,248.558741 287.925062,248.779452 287.532813,249.172241 C287.140564,249.565029 286.920585,250.097659 286.921348,250.652764 C286.921348,251.811955 287.853303,252.749663 289.012494,252.749663 C314.500315,252.749663 330.432719,223.352809 333.625528,216.892404 C338.524045,220.910742 349.091955,228.757573 350.665348,222.996135 C352.483236,216.322876 340.382202,215.042876 334.37627,214.812764 Z" id="Shape" fill="#FFFFFF"></path>
                <polygon id="Shape" fill="#B6422D" points="244.554787 279.034247 244.554787 239.325483 267.813393 239.325483 267.813393 243.726382 252.410247 243.726382 252.410247 256.488989 266.708854 256.488989 266.708854 260.887011 252.410247 260.887011 252.410247 274.636225 268.141303 274.636225 268.141303 279.034247 244.554787 279.034247"></polygon>
            </g>
        </g>
    </g>
</svg>