<svg width="110" height="41" viewBox="0 0 110 41" fill="none" xmlns="http://www.w3.org/2000/svg">
    <g clip-path="url(#clip0_30_9282)">
        <path d="M63.6387 25.211L70.7273 17.2462L63.6387 9.28027H71.1179L74.6287 13.1496L78.0095 9.28027H85.2278L78.1728 17.2133L85.3246 25.211H77.8147L74.3357 21.3099L70.8895 25.211H63.6387Z" fill="#FF6600"/>
        <path d="M63.6387 5.7093H55.6103V9.28039H63.6387V14.6623H55.6103V19.6023H63.6387V25.2111H49.7095V0.115967H63.6387V5.7093Z" fill="#FF6600"/>
        <path d="M43.8334 0.115967V10.3861H43.7687C42.4678 8.89087 40.8425 8.37126 38.9566 8.37126C35.0936 8.37126 32.1836 10.9974 31.1622 14.4694C29.9973 10.6437 26.9931 8.29957 22.5384 8.29957C18.9208 8.29957 16.064 9.92343 14.5732 12.5695V9.28076H7.09549V5.71004H15.2558V0.115967H0.429688V25.2115H7.09549V14.6623H13.7395C13.5414 15.4373 13.4357 16.267 13.4357 17.1425C13.4357 22.3773 17.4348 26.0504 22.5384 26.0504C26.8301 26.0504 29.6584 24.0355 31.1544 20.3621H25.4421C24.6693 21.4656 24.0832 21.7934 22.5384 21.7934C20.7471 21.7934 19.2027 20.2305 19.2027 18.3779H30.8344C31.3388 22.5359 34.5777 26.1217 39.0224 26.1217C40.9397 26.1217 42.6951 25.1786 43.7687 23.5862H43.8334V25.2108H49.7094V0.115967H43.8334ZM19.3883 14.7373C19.7589 13.1434 20.9951 12.1016 22.5384 12.1016C24.2373 12.1016 25.4107 13.1113 25.7192 14.7373C25.8493 14.7373 19.3883 14.7373 19.3883 14.7373ZM40.2674 21.3902C38.1014 21.3902 36.7555 19.372 36.7555 17.2648C36.7555 15.0123 37.9263 12.8463 40.2674 12.8463C42.6951 12.8463 43.6623 15.0123 43.6623 17.2648C43.6619 19.4009 42.6371 21.3902 40.2674 21.3902Z" fill="#652C8F"/>
        <path d="M52.9449 37.2348C53.8522 37.2348 54.833 36.7008 55.02 35.7447H55.9136C55.5914 37.1232 54.3981 37.9052 52.9209 37.9052C50.1884 37.9052 49.083 35.7942 49.083 33.2616C49.083 30.7286 50.1884 28.6169 52.9209 28.6169C54.3984 28.6169 55.5914 29.3986 55.9136 30.7781H55.02C54.8334 29.821 53.8522 29.2888 52.9449 29.2888C50.6969 29.2888 49.9397 31.3373 49.9397 33.2623C49.9397 35.1856 50.6973 37.2348 52.9449 37.2348Z" fill="#652C8F"/>
        <path d="M59.6395 37.9051C57.7259 37.9051 56.6963 36.4276 56.6963 34.6146C56.6963 32.8019 57.7259 31.324 59.6395 31.324C61.5512 31.324 62.5827 32.8019 62.5827 34.6146C62.5827 36.4276 61.5512 37.9051 59.6395 37.9051ZM59.6395 37.3338C61.1421 37.3338 61.7752 35.9686 61.7752 34.6146C61.7752 33.2616 61.1421 31.8949 59.6395 31.8949C58.1365 31.8949 57.5027 33.2616 57.5027 34.6146C57.5027 35.9683 58.1361 37.3338 59.6395 37.3338Z" fill="#652C8F"/>
        <path d="M66.53 32.0557C65.2768 32.0557 64.8422 33.1123 64.8422 34.204V37.7573H64.0846V33.3233C64.0846 32.7158 64.072 32.093 64.0476 31.4725H64.7915L64.8422 32.3783C65.2158 31.6592 65.8352 31.3232 66.6671 31.3232C66.779 31.3232 66.9036 31.3358 67.0159 31.3476V32.106C66.8408 32.082 66.7048 32.0557 66.53 32.0557Z" fill="#652C8F"/>
        <path d="M68.6254 40.1159H67.8674V33.3477C67.8674 32.7268 67.8674 32.093 67.8293 31.4733H68.5748L68.5999 32.4179C69.0711 31.671 69.6927 31.324 70.6247 31.324C72.5612 31.324 73.3935 32.9268 73.3935 34.6146C73.3935 36.3042 72.5612 37.9051 70.6247 37.9051C69.7548 37.9051 69.0722 37.5718 68.6254 36.8504V40.1159ZM72.5867 34.6142C72.5867 33.2738 72.0272 31.9567 70.5371 31.9567C69.1346 31.9567 68.6254 33.1127 68.6254 34.6142C68.6254 36.1176 69.1346 37.2713 70.5371 37.2713C72.0272 37.2717 72.5867 35.9564 72.5867 34.6142Z" fill="#652C8F"/>
        <path d="M77.2944 37.9051C75.3808 37.9051 74.3508 36.4276 74.3508 34.6146C74.3508 32.8019 75.3808 31.324 77.2944 31.324C79.2058 31.324 80.2376 32.8019 80.2376 34.6146C80.2372 36.4276 79.2054 37.9051 77.2944 37.9051ZM77.2944 37.3338C78.7963 37.3338 79.4301 35.9686 79.4301 34.6146C79.4301 33.2616 78.7963 31.8949 77.2944 31.8949C75.7907 31.8949 75.1576 33.2616 75.1576 34.6146C75.1572 35.9683 75.7903 37.3338 77.2944 37.3338Z" fill="#652C8F"/>
        <path d="M84.187 32.0557C82.9319 32.0557 82.4981 33.1123 82.4981 34.204V37.7573H81.7401V33.3233C81.7401 32.7158 81.7279 32.093 81.7017 31.4725H82.4482L82.4981 32.3783C82.8702 31.6592 83.4915 31.3232 84.323 31.3232C84.4361 31.3232 84.5588 31.3358 84.6704 31.3476V32.106C84.4978 32.082 84.3592 32.0557 84.187 32.0557Z" fill="#652C8F"/>
        <path d="M89.1332 37.7573C89.0825 37.4576 89.0589 37.2473 89.0345 36.9121C88.5492 37.6439 87.9169 37.9052 86.9339 37.9052C85.7916 37.9052 84.7483 37.3224 84.7483 36.0555C84.7483 34.2299 86.6733 33.9567 88.214 33.9567C88.5115 33.9567 88.7606 33.9689 88.9458 33.9804V33.5085C88.9458 32.4419 88.5108 31.8942 87.4054 31.8942C86.5994 31.8942 86.0281 32.205 85.9287 33.0986H85.1703C85.1829 31.746 86.3625 31.3232 87.4054 31.3232C88.9587 31.3232 89.7045 31.746 89.7045 33.2978V35.4335C89.7045 36.4033 89.7411 36.9742 89.8538 37.7573H89.1332ZM88.9473 34.5521C88.7359 34.5403 88.5625 34.5288 88.3512 34.5288C87.3079 34.5288 85.5569 34.5898 85.5569 36.0304C85.5569 36.8999 86.2768 37.3331 87.0732 37.3331C88.3397 37.3331 88.9473 36.5891 88.9473 35.1368V34.5521Z" fill="#652C8F"/>
        <path d="M92.9833 37.9051C92.0772 37.9051 91.6544 37.3722 91.6544 36.4653V32.0442H90.6348V31.4729H91.6544V30.1935L92.4116 29.8586V31.4729H93.8034V32.0442H92.4116V36.1309C92.4116 37.0119 92.5602 37.2721 93.1933 37.2721C93.4309 37.2721 93.7276 37.1863 93.8647 37.1106V37.7577C93.6038 37.8312 93.3806 37.9051 92.9833 37.9051Z" fill="#652C8F"/>
        <path d="M94.8057 29.7211V28.7769H95.7118V29.7211H94.8057ZM94.8799 37.7572V31.4728H95.6375V37.7576L94.8799 37.7572Z" fill="#652C8F"/>
        <path d="M100.084 37.9051C98.1716 37.9051 97.1409 36.4276 97.1409 34.6146C97.1409 32.8019 98.1716 31.324 100.084 31.324C101.997 31.324 103.028 32.8019 103.028 34.6146C103.027 36.4276 101.997 37.9051 100.084 37.9051ZM100.084 37.3338C101.587 37.3338 102.22 35.9686 102.22 34.6146C102.22 33.2616 101.587 31.8949 100.084 31.8949C98.5822 31.8949 97.9484 33.2616 97.9484 34.6146C97.948 35.9683 98.5818 37.3338 100.084 37.3338Z" fill="#652C8F"/>
        <path d="M105.236 31.473L105.261 32.4176C105.697 31.6837 106.378 31.3237 107.298 31.3237C108.975 31.3237 109.534 32.2421 109.534 33.8201V37.7578H108.776V34.1173C108.776 32.9505 108.503 31.9561 107.174 31.9561C105.759 31.9561 105.287 33.2111 105.287 34.4525V37.7571H104.529V33.3478C104.529 32.727 104.517 32.0932 104.492 31.4734L105.236 31.473Z" fill="#652C8F"/>
    </g>
    <defs>
        <clipPath id="clip0_30_9282">
            <rect width="109.141" height="40" fill="white" transform="translate(0.429688 0.115967)"/>
        </clipPath>
    </defs>
</svg>
