<svg width="66" height="28" viewBox="0 0 66 28" fill="none" xmlns="http://www.w3.org/2000/svg">
    <g clip-path="url(#clip0_723_458)">
        <path d="M65.2045 10.0736C65.2045 9.26786 64.5523 8.6145 63.7466 8.6145H46.9139C43.8446 8.6145 41.3496 10.9798 41.3496 14.0497C41.3496 17.1195 43.8446 19.4842 46.9139 19.4842H60.4334C61.749 19.4842 62.8183 20.6868 62.8183 22.0013C62.8183 23.3169 61.749 24.5195 60.4334 24.5195H43.6019C42.7974 24.5195 42.144 25.1729 42.144 25.9768C42.144 26.7831 42.7974 27.4346 43.6019 27.4346H60.4334C63.5026 27.4346 66 25.0705 66 22.0013C66 18.9314 63.5026 16.5679 60.4334 16.5679H46.9139C45.6006 16.5679 44.5301 15.3641 44.5301 14.0497C44.5301 12.7346 45.6006 11.5326 46.9139 11.5326H63.7466C64.5523 11.5326 65.2045 10.8793 65.2045 10.0736Z" fill="#8DC63F"/>
        <path d="M35.5178 2.12074C35.5178 0.95029 34.5687 0 33.397 0C32.2253 0 31.2762 0.95029 31.2762 2.12074C31.2762 3.29299 32.2253 4.24149 33.397 4.24149C34.5687 4.24149 35.5178 3.29299 35.5178 2.12074Z" fill="#8DC63F"/>
        <path d="M26.638 4.24149C25.4663 4.24149 24.5172 3.2924 24.5172 2.12075C24.5172 0.95029 25.4663 0 26.638 0C27.8096 0 28.7587 0.95029 28.7587 2.12075C28.7587 3.2924 27.8096 4.24149 26.638 4.24149Z" fill="#A3CF62"/>
        <path d="M19.878 4.24149C18.7058 4.24149 17.7573 3.2924 17.7573 2.12075C17.7573 0.95029 18.7058 0 19.878 0C21.0491 0 21.9988 0.95029 21.9988 2.12075C21.9988 3.2924 21.0491 4.24149 19.878 4.24149Z" fill="#B9D989"/>
        <path d="M13.1189 4.24149C11.9479 4.24149 10.9982 3.2924 10.9982 2.12075C10.9982 0.95029 11.9479 0 13.1189 0C14.2906 0 15.2397 0.95029 15.2397 2.12075C15.2397 3.2924 14.2906 4.24149 13.1189 4.24149Z" fill="#CFE5AE"/>
        <path d="M6.36102 4.24149C5.18877 4.24149 4.23907 3.2924 4.23907 2.12075C4.23907 0.95029 5.18877 0 6.36102 0C7.53146 0 8.48056 0.95029 8.48056 2.12075C8.48056 3.2924 7.53146 4.24149 6.36102 4.24149Z" fill="#E5F1D4"/>
        <path d="M23.9875 8.61548C23.9417 8.61548 23.8983 8.625 23.8548 8.62857V8.61548H9.54038C3.85353 8.61548 0 12.3381 0 18.025V25.9778C0 26.8549 0.710486 27.5671 1.58878 27.5671C2.46826 27.5671 3.17933 26.8549 3.17933 25.9778V18.025C3.17933 14.0822 5.56428 11.5312 9.54038 11.5312H23.8548V11.5181C23.8983 11.5223 23.9417 11.5312 23.9875 11.5312C24.792 11.5312 25.4454 10.8778 25.4454 10.0733C25.4454 9.26884 24.792 8.61548 23.9875 8.61548Z" fill="#8DC63F"/>
        <path d="M4.7702 18.0251C4.7702 18.8308 5.42356 19.4842 6.22806 19.4842H20.8061C21.613 19.4842 22.264 18.8308 22.264 18.0251C22.264 17.22 21.613 16.5667 20.8061 16.5667H6.22806C5.42356 16.5667 4.7702 17.22 4.7702 18.0251Z" fill="#8DC63F"/>
        <path d="M31.8065 10.0735V25.9767C31.8065 26.855 32.5187 27.5685 33.397 27.5685C34.2753 27.5685 34.9882 26.855 34.9882 25.9767V10.0735C34.9882 9.19521 34.2753 8.48413 33.397 8.48413C32.5187 8.48413 31.8065 9.19521 31.8065 10.0735Z" fill="#8DC63F"/>
    </g>
    <defs>
        <clipPath id="clip0_723_458">
            <rect width="66" height="27.5685" fill="white"/>
        </clipPath>
    </defs>
</svg>
