<svg width="160" height="24" viewBox="0 0 160 24" fill="none" xmlns="http://www.w3.org/2000/svg">
<path d="M38.9334 12.1481C38.9334 13.037 38.1038 13.2741 37.0964 13.2741H34.5483V15.6444C35.4371 15.8222 35.852 16.1778 35.852 16.4148V16.4741H32.8297V8.7111C32.2964 8.53332 31.8816 8.17777 31.8816 7.94073V7.88147H39.7631V10.0148H39.7038C39.4668 10.0148 39.1112 9.59999 38.9334 9.06665H34.5483V11.9704H38.9334V12.1481Z" fill="#1B459C"/>
<path d="M43.4965 16.4741H40.3557V16.4149C40.3557 16.1778 40.7113 15.8223 41.1261 15.6445V10.0741C40.7113 9.95562 40.3557 9.5408 40.3557 9.30377V9.24451H43.4965V9.30377C43.4965 9.5408 43.1409 9.89636 42.7261 10.0741V15.6445C43.1409 15.763 43.4965 16.1778 43.4965 16.4149V16.4741Z" fill="#1B459C"/>
<path d="M50.9632 12.563C50.9632 13.4519 50.1335 13.689 49.1261 13.689H46.815V15.6445C47.4076 15.763 47.8817 16.1778 47.8817 16.4149V16.4741H45.2743V10.0741C44.8595 9.95562 44.5039 9.5408 44.5039 9.30377V9.24451H52.0891V11.2001H52.0298C51.7928 11.2001 51.4372 10.8445 51.2595 10.4297H46.815V12.563H50.9632Z" fill="#1B459C"/>
<path d="M60.0299 9.24451V11.2001H59.9706C59.7336 11.2001 59.378 10.8445 59.2002 10.4297H57.1262V15.6445C57.7187 15.763 58.1928 16.1778 58.1928 16.4149V16.4741H54.5187V16.4149C54.5187 16.1778 54.9928 15.8223 55.5854 15.6445V10.4297H53.5706C53.4521 10.8445 53.0373 11.2001 52.8002 11.2001H52.741V9.24451H60.0299Z" fill="#1B459C"/>
<path d="M63.1705 12.2075C63.8816 12.0297 64.652 11.9704 65.3631 12.0297C66.1335 12.0297 66.8446 12.089 67.6149 12.2075V10.0741C67.2001 9.95562 66.8446 9.5408 66.8446 9.30377V9.24451H69.9853V9.30377C69.9853 9.5408 69.6297 9.89636 69.2149 10.0741V15.6445C69.6297 15.763 69.9853 16.1778 69.9853 16.4149V16.4741H67.6742V13.5112C66.9631 13.3927 66.1927 13.2741 65.4223 13.3334C64.7112 13.3334 63.9409 13.3927 63.2297 13.5112V15.6445C63.6446 15.763 64.0001 16.1778 64.0001 16.4149V16.4741H61.6297V10.0741C61.2149 9.95562 60.8594 9.5408 60.8594 9.30377V9.24451H64.0001V9.30377C64.0001 9.5408 63.6446 9.89636 63.2297 10.0741L63.1705 12.2075Z" fill="#1B459C"/>
<path d="M83.5558 7.88147V10.0148C83.3188 10.0148 82.9039 9.59999 82.7262 9.06665H80.1188V15.5852C80.6521 15.763 81.0669 16.1185 81.0669 16.3555H77.5114C77.5114 16.1185 77.9262 15.7037 78.4595 15.5852V9.12591H75.8521C75.6743 9.65925 75.3188 10.0741 75.0817 10.0741H75.0225V7.94073H83.5558V7.88147Z" fill="#1B459C"/>
<path d="M86.6963 12.2075C87.4074 12.0297 88.1778 11.9704 88.8889 12.0297C89.6593 12.0297 90.3704 12.089 91.1407 12.2075V10.0741C90.7259 9.95562 90.3704 9.5408 90.3704 9.30377V9.24451H93.5111V9.30377C93.5111 9.5408 93.1556 9.89636 92.7407 10.0741V15.6445C93.1556 15.763 93.5111 16.1778 93.5111 16.4149V16.4741H91.1407V13.5112C90.4296 13.3927 89.6593 13.2741 88.8889 13.3334C88.1778 13.3334 87.4074 13.3927 86.6963 13.5112V15.6445C87.1111 15.763 87.4667 16.1778 87.4667 16.4149V16.4741H85.0963V10.0741C84.6815 9.95562 84.3259 9.5408 84.3259 9.30377V9.24451H87.4667V9.30377C87.4667 9.5408 87.1111 9.89636 86.6963 10.0741V12.2075Z" fill="#1B459C"/>
<path d="M97.5409 16.4741H94.4001V16.4149C94.4001 16.1778 94.7557 15.8223 95.1705 15.6445V10.0741C94.7557 9.95562 94.4001 9.5408 94.4001 9.30377V9.24451H97.5409V9.30377C97.5409 9.5408 97.1853 9.89636 96.7705 10.0741V15.6445C97.1853 15.763 97.5409 16.1778 97.5409 16.4149V16.4741Z" fill="#1B459C"/>
<path d="M101.63 16.4741H99.3187V10.0741C98.9039 9.95562 98.5483 9.5408 98.5483 9.30377V9.24451H103.645C105.422 9.24451 106.548 9.8371 106.548 11.3778C106.548 12.563 105.778 13.2149 104.593 13.3927L106.134 15.6445C106.548 15.7038 107.022 16.1186 107.022 16.4149V16.4741H104.83L102.874 13.5112H100.919V15.6445C101.334 15.763 101.689 16.1778 101.689 16.4149L101.63 16.4741ZM103.408 12.4445C104.711 12.4445 105.008 12.0297 105.008 11.4371C105.008 10.8445 104.771 10.4297 103.408 10.4297H100.919V12.4445H103.408Z" fill="#1B459C"/>
<path d="M108.267 10.0741C107.852 9.95562 107.496 9.5408 107.496 9.30377V9.24451H112.533C114.548 9.24451 116.089 10.4297 116.089 12.8593C116.089 15.289 114.548 16.4741 112.533 16.4741H108.267V10.0741ZM111.941 15.289C113.659 15.289 114.489 14.7556 114.489 12.8593C114.489 10.963 113.659 10.4297 111.941 10.4297H109.807V15.289H111.941Z" fill="#1B459C"/>
<path d="M24.9483 7.76298C24.889 4.26669 22.1038 1.42224 18.6075 1.42224H1.1853V16.2371C1.1853 19.7334 4.02975 22.5185 7.52604 22.5778H24.9483V7.76298Z" fill="#00AE64"/>
<path d="M18.6076 2.54822H2.31128V16.2371C2.31128 19.0815 4.62239 21.3927 7.46684 21.3927H23.7631V7.70377C23.7631 4.85933 21.452 2.54822 18.6076 2.54822Z" fill="white"/>
<path d="M18.5482 3.31848H3.08154V16.237C3.08154 18.7259 5.09636 20.6814 7.52599 20.6814H23.0519V7.76293C23.0519 5.3333 21.0371 3.31848 18.5482 3.31848Z" fill="#1B459C"/>
<path d="M11.8519 18.6074L15.4075 5.09631H14.5779L11.0223 18.6667L11.8519 18.6074ZM19.0816 13.9852C19.6741 13.8667 20.2075 13.6296 20.6223 13.1556C20.9778 12.6815 21.1556 12.0889 20.9779 11.4963C20.8593 10.963 20.5038 10.4889 20.0297 10.1334C19.6149 9.83705 19.1408 9.65928 18.6667 9.65928H14.8741C15.8223 9.95557 16.5334 10.6667 16.8297 11.6148C16.8297 11.6148 17.4223 13.4519 14.9334 13.9852C15.4075 14.163 15.8223 14.4593 16.2371 14.8741C16.5334 15.1704 16.7112 15.5852 16.8297 15.9408C17.2445 17.8963 14.8741 18.3704 14.8741 18.3704H18.5482C19.8519 18.3704 20.3853 17.6593 20.5038 17.5408C20.9186 17.1259 21.0964 16.5333 20.9779 15.9408C20.8593 15.4667 20.6223 14.9926 20.2075 14.6963C19.9112 14.4 19.4964 14.163 19.0816 13.9852ZM11.2593 13.1556C11.6149 12.8 11.7334 12.0296 11.5556 11.3778C11.3779 10.7852 11.0223 10.2519 10.5482 9.89631C10.1334 9.60002 9.65933 9.36298 9.126 9.30372H5.09637C6.10378 9.60002 6.87415 10.3704 7.2297 11.3778C7.64452 13.4519 5.27415 13.8667 5.27415 13.8667H9.71859C10.2519 13.8667 10.8445 13.6296 11.2593 13.1556ZM10.8445 5.45187L10.7853 8.47409H5.03711V5.45187H10.8445Z" fill="white"/>
<path d="M127.17 15.1112C128.652 15.1112 129.185 14.6964 129.185 13.926C129.185 13.1556 128.652 12.6815 127.17 12.6815H123.852V15.1112H127.17ZM127.111 11.3186C128.178 11.3186 128.948 11.0815 128.948 10.1926C128.948 9.36302 128.178 9.2445 127.111 9.2445H123.852V11.3186H127.111ZM127.289 7.9408C129.304 7.9408 130.608 8.47413 130.608 10.0741C130.608 11.0815 129.896 11.7334 128.711 12.0297C130.074 12.2667 130.845 12.9778 130.845 14.1038C130.845 15.4667 129.659 16.5334 127.645 16.5334H122.074V8.82968C121.541 8.65191 121.185 8.29635 121.185 8.05931V7.9408H127.289Z" fill="#1B459C"/>
<path d="M140.978 10.0741C140.563 9.95562 140.208 9.5408 140.208 9.30377V9.24451H142.459L147.2 14.163V10.0741C146.785 9.95562 146.43 9.5408 146.43 9.30377V9.24451H149.393V9.30377C149.393 9.5408 149.037 9.89636 148.622 10.0741V15.6445C149.037 15.763 149.393 16.1778 149.393 16.4149V16.4741H147.319L142.4 11.4371V15.6445C142.815 15.763 143.17 16.1778 143.17 16.4149V16.4741H140.978V10.0741Z" fill="#1B459C"/>
<path d="M155.852 9.95562C155.674 9.77784 155.497 9.60006 155.497 9.30377V9.24451H158.459V9.30377C158.459 9.65932 157.985 10.0149 157.63 10.0741L155.022 12.2667L157.926 15.6445C158.282 15.763 158.815 16.0593 158.815 16.4149V16.4741H156.622L153.897 13.1556L152.771 14.0445V15.6445C153.185 15.763 153.541 16.1778 153.541 16.4149V16.4741H151.23V10.0741C150.815 9.95562 150.459 9.5408 150.459 9.30377V9.24451H153.541V9.30377C153.541 9.5408 153.185 9.89636 152.771 10.0741V12.563L155.852 9.95562Z" fill="#1B459C"/>
<path d="M135.23 11.0222L134.104 13.5111C134.933 13.4519 135.763 13.4519 136.533 13.5111L135.348 10.963H135.23V11.0222ZM133.867 16.4148V16.4741H130.844V16.4148C130.844 16.0593 131.319 15.7037 131.674 15.6445L134.282 10.0148C133.985 9.8963 133.689 9.60001 133.689 9.36297V9.30371H137.126V9.36297C137.126 9.60001 136.77 9.8963 136.533 10.0148L139.319 15.6445C139.674 15.7037 140.148 16.0593 140.148 16.4148V16.4741H136.889V16.4148C136.889 16.0593 137.304 15.763 137.6 15.7037L137.185 14.8148C136 14.637 134.756 14.637 133.57 14.8148L133.156 15.7037C133.57 15.7037 133.867 16 133.867 16.4148Z" fill="#1B459C"/>
</svg>
