<svg width="160" height="37" viewBox="0 0 160 37" fill="none" xmlns="http://www.w3.org/2000/svg">
    <g clip-path="url(#clip0_30_9318)">
        <path fill-rule="evenodd" clip-rule="evenodd" d="M139.648 0.881203C138.457 0.881203 130.339 24.8135 130.339 24.8135H131.204C131.204 24.8135 132.395 21.754 134.452 21.6438C136.508 21.5337 141.597 32.4629 141.597 32.4629C141.597 32.4629 142.138 35.8498 146.253 35.8498H160V34.8672C160 34.8672 157.077 35.0861 155.669 32.0266C154.262 28.9657 140.623 0.881203 139.648 0.881203ZM128.281 12.0278V3.28411C128.281 3.28411 124.059 0.115967 118.214 0.115967C112.368 0.115967 105.223 2.95657 105.223 12.1364C105.223 20.8801 118.863 22.6279 118.863 27.4367C118.863 29.9498 116.81 30.1671 115.399 30.1671C110.745 30.1671 106.198 23.1743 106.198 23.1743V32.6817C106.198 32.6817 110.852 36.7253 116.699 36.7253C122.544 36.7253 129.906 33.2281 129.906 24.0482C129.906 13.1205 115.941 12.9017 115.941 8.09289C115.941 5.57982 117.452 5.90735 118.863 5.90735C123.519 5.90735 128.281 12.0278 128.281 12.0278ZM78.1598 4.59573C80.4525 9.35985 82.5979 16.0713 86.171 16.0713C89.0935 16.0713 91.4755 1.20874 91.4755 1.20874H103.274V32.0266C103.274 34.6484 106.305 35.3035 106.305 35.3035H90.825V13.4481C90.825 13.4481 81.8401 36.9426 80.9752 36.9426C80.1087 36.9426 67.8753 13.4481 67.8753 13.4481V32.3527C67.8753 34.102 70.5819 35.4136 70.5819 35.4136H63.6531V4.48705C63.6531 2.41019 60.2973 0.989885 60.2973 0.989885H72.3134C72.3134 0.989885 76.3197 0.771032 78.1598 4.59573ZM45.4676 33.7745C45.4676 33.7745 54.8857 34.6484 59.4324 27.9831L57.5923 35.4136H33.1255V4.48705C33.1255 2.41019 29.7698 0.989885 29.7698 0.989885H57.5923L59.4324 8.42042C54.8857 1.75512 45.4676 2.62904 45.4676 2.62904V17.0539H53.1541C55.5348 17.0539 56.8344 13.0104 56.8344 13.0104C56.8344 13.0104 59.3237 24.4859 59.215 24.3758C57.2662 20.7699 51.3126 18.9119 51.3126 18.9119H45.4676V33.7745ZM27.8225 0.989885H0C0 0.989885 3.35572 2.41019 3.35572 4.48705V35.4136H18.9448C18.9448 35.4136 15.6978 34.3209 15.6978 31.8063V18.9119H21.5428C21.5428 18.9119 27.4964 20.7699 29.4452 24.3758C29.5539 24.4859 27.0647 13.0104 27.0647 13.0104C27.0647 13.0104 25.765 17.0539 23.3829 17.0539H15.6978V2.62904C15.6978 2.62904 25.1159 1.75512 29.6626 8.42042L27.8225 0.989885Z" fill="#9B2C39"/>
    </g>
    <defs>
        <clipPath id="clip0_30_9318">
            <rect width="160" height="36.8267" fill="white" transform="translate(0 0.115967)"/>
        </clipPath>
    </defs>
</svg>
