<svg width="94" height="40" viewBox="0 0 94 40" fill="none" xmlns="http://www.w3.org/2000/svg">
<g clip-path="url(#clip0_112_5383)">
<path d="M11.8349 10.9305V16.1298H22.8244V27.0015H11.8349V39.8814H0.549805V0H24.5378L25.306 10.9305H11.8349Z" fill="#003998"/>
<path d="M57.5237 6.13043C61.2675 9.95194 63.1405 14.5651 63.1405 19.9689C63.1405 25.4119 61.2673 30.0439 57.5237 33.8659C53.7792 37.6872 49.263 39.5979 43.9749 39.5979C38.6479 39.5979 34.1116 37.6872 30.368 33.8659C26.6233 30.044 24.7515 25.4119 24.7515 19.9689C24.7515 14.5649 26.6233 9.95194 30.368 6.13043C34.1116 2.30891 38.6479 0.398071 43.9749 0.398071C49.2629 0.398071 53.7792 2.30891 57.5237 6.13043ZM40.7323 27.9593C40.7323 28.848 41.0599 29.6196 41.7167 30.2756C42.3725 30.9323 43.1643 31.2601 44.0906 31.2601C45.0171 31.2601 45.7987 30.9323 46.4357 30.2756C47.0728 29.6196 47.3912 28.848 47.3912 27.9593V11.8048C47.3912 10.8784 47.0728 10.0876 46.4357 9.43085C45.7989 8.77506 45.0172 8.44651 44.0906 8.44651C43.1643 8.44651 42.3726 8.77506 41.7167 9.43085C41.0597 10.0876 40.7323 10.8784 40.7323 11.8048V27.9593Z" fill="#003998"/>
<path d="M80.7469 40L75.0752 29.8963L69.5804 40H57.1729L68.9897 19.3204L57.8227 0H70.5849L75.2527 8.62623L79.9792 0H92.3275L81.397 19.2021L93.4501 39.9998H80.7469V40Z" fill="#003998"/>
</g>
<defs>
<clipPath id="clip0_112_5383">
<rect width="92.9003" height="40" fill="white" transform="translate(0.549805)"/>
</clipPath>
</defs>
</svg>
