<svg width="46" height="40" viewBox="0 0 46 40" fill="none" xmlns="http://www.w3.org/2000/svg">
<g clip-path="url(#clip0_112_5414)">
<path d="M12.8588 0.248859C12.1651 0.297869 11.4865 0.4072 10.872 0.569311C10.5968 0.640942 10.0765 0.806823 9.93703 0.863373C9.89556 0.882224 9.74476 0.942544 9.59773 0.999094C9.10009 1.19891 8.04448 1.77195 7.70141 2.03585C6.6835 2.81248 6.00866 3.46846 5.45447 4.22247C4.5195 5.4892 3.93892 6.79363 3.64486 8.2941C3.51668 8.93877 3.47144 9.4515 3.47144 10.198C3.47144 12.2602 4.02186 14.0886 5.15287 15.7776C5.30367 16.0038 5.46955 16.2375 5.51479 16.2903C5.5638 16.3469 5.65428 16.4562 5.7146 16.5354C6.24618 17.214 7.08689 17.9793 7.90122 18.5146C9.16418 19.3478 10.3932 19.8191 11.9729 20.083C12.5685 20.181 14.314 20.181 14.9135 20.083C16.2028 19.8681 17.4394 19.4345 18.4384 18.8389C18.7589 18.6504 19.4564 18.1829 19.4941 18.1376C19.5054 18.1226 19.6222 18.0283 19.7542 17.9265C20.2179 17.5721 20.9832 16.7729 21.4092 16.1961C21.5186 16.049 21.6241 15.9058 21.6467 15.8794C21.7335 15.7738 22.1783 15.0161 22.3367 14.7069C23.2603 12.886 23.5958 10.7484 23.2792 8.6711C23.068 7.27619 22.5214 5.8662 21.7297 4.68618C21.085 3.72106 20.5233 3.12162 19.4752 2.26959C19.1774 2.02454 18.3706 1.53821 17.8277 1.26677C16.987 0.852063 16.429 0.659792 15.3433 0.41851C14.8155 0.297869 13.462 0.207388 12.8588 0.248859Z" fill="#EC1515"/>
<path d="M0.624961 20.3242C0.790842 20.5278 1.65795 21.3873 1.88038 21.5721C2.01233 21.6814 2.18198 21.8284 2.25738 21.8963C2.44588 22.0584 3.34315 22.7144 3.65606 22.9104C4.33467 23.3364 5.89546 24.1658 6.02741 24.1658C6.04249 24.1658 6.09527 24.1885 6.14805 24.2148C6.40818 24.3506 7.43363 24.7238 8.01422 24.8934C10.5364 25.6437 12.9907 25.8397 15.9878 25.5381C18.1744 25.3195 20.1914 24.95 23.0943 24.2412C24.3988 23.9246 24.5571 23.8869 24.9228 23.8077C25.0774 23.7738 25.2734 23.7323 25.3563 23.7134C27.1999 23.3025 29.6617 22.9406 31.5203 22.8049C32.64 22.7257 34.2951 22.835 35.7805 23.0951C36.7984 23.2723 38.5326 23.7436 39.2678 24.0414C40.3234 24.475 41.0661 24.818 41.5675 25.1008C41.7145 25.18 41.9256 25.3006 42.0387 25.3609C42.3629 25.5419 43.0906 26.0207 43.4072 26.2657C43.494 26.3336 43.5694 26.3788 43.5807 26.3675C43.6184 26.3298 42.5137 25.2968 42.0086 24.901C41.9558 24.8595 41.8427 24.7653 41.756 24.6936C41.6693 24.622 41.5599 24.5353 41.5109 24.5051C41.4657 24.475 41.3413 24.3807 41.2319 24.2978C40.6702 23.868 39.6334 23.2346 38.7965 22.8124C36.7607 21.7832 34.6759 21.1611 32.7079 20.9952C31.7164 20.9123 29.8201 21.0443 28.1273 21.3195C28.0745 21.327 27.7616 21.3798 27.4299 21.4326C27.0981 21.4853 26.7437 21.5457 26.6382 21.5645C26.5364 21.5871 26.2725 21.6361 26.0538 21.6776C25.0246 21.8699 22.51 22.3939 21.6994 22.5787C18.0161 23.4269 16.3799 23.6984 14.1405 23.8228C11.6711 23.9623 8.98688 23.5098 5.80875 22.4241C4.87378 22.1036 4.20272 21.8548 3.77293 21.6663C3.67868 21.6248 3.50149 21.5532 3.37708 21.508C3.25267 21.459 3.05663 21.3798 2.94353 21.327C2.83043 21.2742 2.48359 21.1197 2.17067 20.9802C1.86153 20.8444 1.40913 20.6295 1.17162 20.5127C0.934103 20.392 0.696592 20.2789 0.643811 20.2639L0.549561 20.2337L0.624961 20.3242Z" fill="#EC1515"/>
<path d="M0.568359 24.9048C0.568359 24.95 1.17533 25.5796 1.60889 25.9755C2.18947 26.5108 3.24508 27.3327 3.61077 27.5325C3.65601 27.5589 3.87844 27.6908 4.10465 27.8303C4.32708 27.9661 4.77571 28.2111 5.09616 28.3695C5.41285 28.5278 5.71068 28.6748 5.75215 28.6974C5.87279 28.7653 6.50238 29.0179 7.09051 29.2328C8.64376 29.8021 10.4534 30.1791 12.1876 30.2922C12.7531 30.3299 14.3591 30.3223 14.9887 30.2733C16.1763 30.1904 17.4769 30.0283 18.7022 29.8209C20.4402 29.5231 21.0095 29.4024 23.0566 28.8973C26.1706 28.1319 28.7719 27.6758 31.1169 27.4835C31.9614 27.4156 33.575 27.4458 34.3855 27.5438C35.7653 27.7097 36.9529 27.9547 38.1932 28.3242C38.8002 28.5052 39.9802 28.9651 40.6362 29.278C40.8323 29.3685 40.9944 29.4439 41.0019 29.4439C41.0132 29.4439 41.9143 29.9416 42.3478 30.1904C42.5062 30.2809 43.0528 30.6503 43.2451 30.8011C43.6032 31.0801 43.5542 30.9934 43.0943 30.5334C42.8153 30.2545 42.5024 29.9566 42.3968 29.8699C42.295 29.7832 42.1593 29.6701 42.0952 29.6136C41.8087 29.361 40.9454 28.7238 40.4967 28.4373C39.2639 27.6418 37.6127 26.8501 36.2894 26.4128C35.3883 26.1112 34.4835 25.8925 33.4619 25.7229C32.8775 25.6286 30.9095 25.6286 30.0123 25.7267C29.0208 25.8322 27.705 26.0283 26.4119 26.2582C25.6164 26.4015 22.902 26.9557 22.0952 27.1442C19.6183 27.7172 17.8426 28.0754 16.7606 28.2187C16.5118 28.2526 16.2668 28.2865 16.214 28.2941C16.1612 28.3016 16.0104 28.3167 15.8747 28.3318C15.739 28.3468 15.5882 28.3619 15.5354 28.3695C14.7512 28.4826 12.4251 28.5203 11.6711 28.4335C9.81247 28.2187 8.28561 27.8793 6.23094 27.2158C5.40531 26.9482 3.71256 26.3186 3.15083 26.0697C3.09051 26.0396 2.78514 25.9039 2.47222 25.7681C1.70691 25.4288 1.20549 25.1951 0.59852 24.8935C0.579669 24.8859 0.568359 24.8897 0.568359 24.9048Z" fill="#EC1515"/>
<path d="M33.5938 36.4184V39.6984H34.1404H34.6871V36.4184V33.1385H34.1404H33.5938V36.4184Z" fill="#404040"/>
<path d="M6.07251 33.7983V34.2695H6.69456H7.31662V33.7983V33.327H6.69456H6.07251V33.7983Z" fill="#404040"/>
<path d="M23.9237 33.542C23.1396 33.6438 22.4421 34.0547 22.1857 34.5599C22.0877 34.7597 22.0764 34.8125 22.0764 35.1555C22.0764 35.4911 22.0877 35.5552 22.182 35.7474C22.4082 36.2074 22.8267 36.4788 23.9803 36.9086C24.3234 37.0368 24.7041 37.1951 24.8285 37.263C25.1301 37.4213 25.3526 37.6513 25.4091 37.8662C25.5411 38.394 25.1301 38.8125 24.312 38.9746C24.0519 39.0236 23.9426 39.0274 23.5693 38.9897C23.2037 38.952 22.7475 38.8577 22.3365 38.7371C22.2611 38.7144 22.2536 38.7295 22.2121 39.0462C22.1857 39.2272 22.1594 39.4232 22.148 39.476C22.1292 39.5702 22.1367 39.574 22.5175 39.6532C23.2187 39.8002 23.4449 39.8228 24.0557 39.8002C25.7484 39.7323 26.657 39.1065 26.6608 38.0019C26.6608 37.1273 26.1971 36.6749 24.7154 36.1169C23.8069 35.7738 23.5241 35.6192 23.3771 35.3855C23.2715 35.2083 23.2753 34.9256 23.3884 34.7559C23.607 34.4317 23.9426 34.3261 24.7343 34.3299C25.2357 34.3337 25.3714 34.345 25.6768 34.4279C25.8728 34.4807 26.0613 34.5335 26.0877 34.5372C26.1292 34.5486 26.1631 34.4543 26.2234 34.1376L26.3064 33.7229L26.133 33.6777C25.6504 33.5457 24.444 33.4741 23.9237 33.542Z" fill="#404040"/>
<path d="M1.39771 36.6446V39.6984H1.98206H2.56641V38.3223V36.9462H4.03672H5.50704V36.5504V36.1545H4.03672H2.56641V35.2874V34.4203H4.09328H5.62014V34.0056V33.5909H3.50892H1.39771V36.6446Z" fill="#404040"/>
<path d="M16.968 34.0962L16.4967 34.2168L16.4854 34.7333L16.4741 35.2498H15.8369H15.196V35.5891V35.9284H15.8369H16.4779V37.2404C16.4779 38.8615 16.5005 39.0161 16.787 39.3441C17.164 39.7701 18.1367 39.9284 19.1093 39.7173C19.1885 39.6984 19.1923 39.6796 19.1923 39.3365C19.1923 38.9784 19.1923 38.9746 19.1093 39.001C18.5288 39.1857 18.1027 39.1443 17.8238 38.8766C17.59 38.6541 17.59 38.6692 17.5787 37.2366L17.5636 35.9284H18.3402H19.1169V35.5891V35.2498H18.344H17.5712V34.6089C17.5712 34.0208 17.5674 33.968 17.5071 33.9718C17.4694 33.9718 17.2281 34.0283 16.968 34.0962Z" fill="#404040"/>
<path d="M10.2045 35.1932C9.88408 35.2761 9.57117 35.4571 9.35251 35.6871L9.16401 35.8869V35.5664V35.2497H8.6362H8.1084V37.474V39.6984H8.67013H9.23564L9.24695 38.4279C9.26203 36.999 9.26957 36.9538 9.53724 36.5391C9.8313 36.0829 10.2988 35.8642 10.8907 35.9019C11.0716 35.9133 11.2564 35.9321 11.3054 35.9472C11.3883 35.9736 11.3883 35.9698 11.3883 35.5966C11.3883 35.3704 11.3732 35.2083 11.3469 35.1932C11.2564 35.1366 10.427 35.1366 10.2045 35.1932Z" fill="#404040"/>
<path d="M12.9151 35.1932C12.5683 35.2611 12.1461 35.4458 11.9425 35.6268C11.6409 35.8907 11.4901 36.3318 11.5768 36.7088C11.6107 36.8596 11.6635 36.9576 11.803 37.1084C12.0292 37.3534 12.2026 37.4515 13.0132 37.7757C13.9255 38.1376 14.0499 38.2432 14.0311 38.6013C14.0235 38.7483 13.7709 38.967 13.5184 39.0424C13.0923 39.1668 12.3119 39.0914 11.8181 38.8728L11.656 38.7974L11.6371 38.918C11.6258 38.9859 11.6107 39.1593 11.5994 39.3063L11.5768 39.5702L11.7012 39.6155C12.1725 39.7851 13.164 39.8643 13.7144 39.7738C14.3892 39.6682 14.8906 39.3591 15.1018 38.9255C15.1809 38.7634 15.1998 38.6692 15.2036 38.4392C15.2036 37.7945 14.8718 37.5005 13.6352 37.0594C13.1074 36.8671 12.8661 36.7201 12.7719 36.5203C12.5834 36.1395 12.983 35.8492 13.688 35.853C13.9594 35.853 14.4609 35.9321 14.7662 36.0226C14.8567 36.049 14.8718 36.0038 14.917 35.5476L14.9397 35.3025L14.5702 35.2347C14.065 35.1404 13.3035 35.1216 12.9151 35.1932Z" fill="#404040"/>
<path d="M29.3488 35.1932C28.1499 35.4043 27.3356 36.1131 27.1622 37.0971C26.9812 38.1338 27.5656 39.0989 28.6513 39.5438C29.1452 39.7474 29.4091 39.7926 30.1066 39.7889C30.8643 39.7851 31.1396 39.7285 31.7051 39.4495C32.3761 39.1178 32.8662 38.5108 32.9944 37.8586C33.0887 37.3572 32.968 36.7427 32.689 36.3091C32.3874 35.8341 31.7465 35.4156 31.0679 35.2497C30.6457 35.1442 29.7823 35.1178 29.3488 35.1932ZM30.4308 35.8718C30.8455 35.917 31.3318 36.2186 31.5807 36.5843C32.0067 37.2139 31.9313 38.0659 31.3997 38.6126C30.7814 39.246 29.4958 39.2874 28.8398 38.6918C28.5382 38.4203 28.3761 38.1074 28.3158 37.6889C28.2065 36.9538 28.674 36.2111 29.4091 35.9472C29.5863 35.8831 30.0161 35.819 30.1443 35.8379C30.1857 35.8454 30.3139 35.8605 30.4308 35.8718Z" fill="#404040"/>
<path d="M37.115 35.1895C36.7794 35.2422 36.3496 35.3667 36.0744 35.4835L35.8972 35.5589L35.9161 35.7512C35.9576 36.1923 35.9764 36.2752 36.0179 36.2526C36.0443 36.2451 36.1988 36.1772 36.3647 36.1018C36.7606 35.9284 37.1791 35.8492 37.6692 35.8492C38.5627 35.8492 38.9585 36.1094 39.0452 36.7503L39.0716 36.9463H38.2837C37.4392 36.9463 36.9642 36.9991 36.5155 37.1386C35.705 37.3874 35.3016 37.7757 35.2601 38.345C35.196 39.2649 35.9538 39.804 37.3185 39.8115C37.9934 39.8115 38.5325 39.6532 38.9736 39.3176L39.1734 39.1668V39.4345V39.6984H39.6748H40.1725L40.1611 38.2017C40.1498 36.5504 40.1272 36.328 39.9312 35.9849C39.7238 35.6193 39.3732 35.3855 38.8416 35.246C38.4646 35.1442 37.5561 35.1178 37.115 35.1895ZM39.0603 37.8398C39.0603 38.1603 39.0075 38.3525 38.8643 38.5599C38.4646 39.1442 37.1904 39.3063 36.655 38.8464C36.4741 38.6918 36.4062 38.5373 36.4326 38.345C36.4967 37.8473 37.1715 37.5985 38.4684 37.591L39.0603 37.5872V37.8398Z" fill="#404040"/>
<path d="M43.1056 35.1894C42.7964 35.2648 42.4911 35.4345 42.2573 35.6644L42.0387 35.8756V35.5626V35.2497H41.5297H41.0208V37.474V39.6984H41.5674H42.1141V38.556C42.1141 37.2969 42.1405 37.0744 42.3327 36.6937C42.4835 36.3996 42.721 36.1696 43.0189 36.0264C43.2413 35.9208 43.2978 35.9095 43.6409 35.9095C43.8483 35.9095 44.0745 35.9208 44.1423 35.9359L44.263 35.9623V35.574V35.1856L44.033 35.1593C43.6899 35.1253 43.328 35.1366 43.1056 35.1894Z" fill="#404040"/>
<path d="M6.14795 37.474V39.6984H6.6946H7.24126V37.474V35.2497H6.6946H6.14795V37.474Z" fill="#404040"/>
<path d="M44.2253 38.0509C44.0405 38.1112 43.7616 38.4015 43.705 38.59C43.6032 38.9293 43.6673 39.2686 43.8822 39.5137C44.0556 39.721 44.2592 39.8115 44.557 39.8115C44.9868 39.8115 45.2997 39.5816 45.4166 39.1782C45.59 38.5863 45.1602 37.9944 44.5683 38.0057C44.4515 38.0094 44.2969 38.0283 44.2253 38.0509ZM44.7229 38.1904C45.0283 38.2771 45.2432 38.575 45.2432 38.9067C45.2432 39.1442 45.1753 39.3063 45.0132 39.4571C44.557 39.8832 43.8747 39.5514 43.8709 38.9067C43.8671 38.5636 44.0745 38.2884 44.4062 38.1904C44.5457 38.1489 44.5646 38.1489 44.7229 38.1904Z" fill="#404040"/>
<path d="M44.2744 38.4015C44.2367 38.4165 44.2253 38.5598 44.2253 38.9293V39.4344H44.3196C44.4101 39.4344 44.4138 39.4231 44.4138 39.2233C44.4138 39.0197 44.4138 39.016 44.5156 39.0273C44.625 39.0386 44.6928 39.1366 44.7343 39.3289C44.7494 39.4156 44.7758 39.4344 44.8625 39.4344H44.9718L44.9228 39.2497C44.8964 39.1517 44.8587 39.0348 44.8361 38.9971C44.8097 38.9481 44.8097 38.918 44.8512 38.8878C44.8776 38.8689 44.9115 38.7973 44.9266 38.7332C44.9416 38.6427 44.9266 38.5937 44.8587 38.5146C44.7871 38.4279 44.7343 38.409 44.5458 38.3939C44.4214 38.3864 44.297 38.3902 44.2744 38.4015ZM44.6702 38.6164C44.7871 38.7068 44.674 38.8689 44.493 38.8689C44.4252 38.8689 44.4138 38.8463 44.4138 38.7219C44.4138 38.5372 44.5119 38.4957 44.6702 38.6164Z" fill="#404040"/>
</g>
<defs>
<clipPath id="clip0_112_5414">
<rect width="45.2403" height="40" fill="white" transform="translate(0.379883)"/>
</clipPath>
</defs>
</svg>
