<svg width="66" height="12" viewBox="0 0 66 12" fill="none" xmlns="http://www.w3.org/2000/svg">
    <g clip-path="url(#clip0_723_616)">
        <path d="M41.905 0.528337C41.905 0.640424 41.8588 0.74792 41.7766 0.827178C41.6943 0.906435 41.5828 0.950962 41.4665 0.950962C41.4089 0.950962 41.3519 0.94003 41.2987 0.918792C41.2455 0.897553 41.1972 0.866422 41.1565 0.827178C41.1157 0.787934 41.0834 0.741344 41.0614 0.690069C41.0394 0.638794 41.028 0.583837 41.028 0.528337C41.028 0.472837 41.0394 0.417881 41.0614 0.366606C41.0834 0.315331 41.1157 0.268741 41.1565 0.229497C41.1972 0.190252 41.2455 0.159122 41.2987 0.137883C41.3519 0.116644 41.4089 0.105713 41.4665 0.105713C41.5828 0.105713 41.6943 0.150239 41.7766 0.229497C41.8588 0.308754 41.905 0.41625 41.905 0.528337ZM23.3131 1.35246C21.9318 1.35246 21.0329 2.09205 21.0329 3.212C21.0329 4.16291 21.4714 5.30399 23.5542 5.30399C24.212 5.30399 24.7601 5.17721 25.2863 4.92363L25.374 4.88137L25.2643 4.24743L25.1109 4.33196C24.6066 4.54327 24.1243 4.64893 23.5981 4.64893C22.5457 4.64893 21.9537 4.31083 21.8441 3.63463H25.4617L25.5055 3.42331C25.5274 3.35992 25.5274 3.25426 25.5274 3.19087C25.5274 2.09205 24.6285 1.35245 23.3131 1.35245L23.3131 1.35246ZM21.8222 2.91617C21.9318 2.34562 22.458 2.02865 23.3131 2.02865C24.1243 2.02865 24.6724 2.36675 24.7601 2.91617H21.8222ZM49.1401 1.16227H52.7576L52.7357 0.40155H48.3289L48.3069 5.2406H49.1401V3.16974H52.1657L52.1437 2.43015H49.1401L49.1401 1.16227ZM65.7588 4.2263L65.6054 4.2897C65.123 4.50101 64.5968 4.60666 64.0926 4.60666C62.514 4.60666 61.8344 4.07838 61.8344 2.81051C61.8344 1.60603 62.514 1.05662 64.0487 1.05662C64.5749 1.05662 65.1669 1.16227 65.6054 1.31019L65.7588 1.37359L65.8685 0.655125L65.7808 0.612862C65.408 0.464944 64.7065 0.317025 64.0487 0.317025C61.5055 0.317025 60.9793 1.66942 60.9793 2.78938C60.9793 4.43761 62.0317 5.32512 64.0268 5.32512C64.7284 5.32512 65.408 5.13494 65.8027 4.94476L65.8904 4.9025L65.7588 4.2263ZM60.2996 5.2406V0.40155H59.4446L56.9452 4.2897L54.4677 0.40155H53.5908V5.2406H54.3581V1.71169V1.64829L56.6602 5.2406H57.2302L59.4884 1.66942L59.5323 1.62716V5.2406H60.2996ZM45.2595 1.35246C44.5798 1.35246 44.0098 1.5215 43.5713 1.83847L43.4616 1.41585L42.8697 1.47924V6.17037H43.6809V5.11381V4.88137C44.0536 5.17721 44.5798 5.32512 45.2156 5.32512C46.6845 5.32512 47.5177 4.62779 47.5177 3.33879C47.4958 2.04979 46.7284 1.35246 45.2595 1.35246ZM46.7065 3.35992C46.7065 4.2263 46.1803 4.64893 45.0841 4.64893C44.2729 4.64893 43.8563 4.35309 43.659 4.14178V2.55693C44.0098 2.21884 44.4921 2.04979 45.1498 2.04979C46.2022 2.07092 46.7065 2.49354 46.7065 3.35992ZM41.8392 5.02929V1.41585L41.0719 1.45811V5.2406H41.8392V5.02929ZM38.1559 1.35246C37.542 1.35246 36.9501 1.54264 36.5554 1.83847L36.4677 1.39472L35.8539 1.45811V5.2406H36.6212V2.55693C36.9282 2.21884 37.542 2.04979 38.0025 2.04979C38.9452 2.04979 39.3618 2.38788 39.3618 3.08522V5.21947H40.1291V3.08522C40.1511 1.96526 39.4495 1.35246 38.1559 1.35246ZM32.9817 1.35246C32.3898 1.35246 31.8636 1.5215 31.447 1.81734V1.5849V0.126844L30.6797 0.190238V5.21947H31.447V2.55693C31.6882 2.30336 32.2144 2.04979 32.8283 2.04979C33.7491 2.04979 34.1876 2.38788 34.1876 3.08522V5.21947H34.9549V3.08522C34.9769 1.96526 34.2534 1.35246 32.9817 1.35246ZM29.6273 4.33196C29.3204 4.52214 28.8599 4.62779 28.3776 4.62779C27.2814 4.62779 26.7333 4.18404 26.7333 3.31766C26.7333 2.45128 27.2595 2.04979 28.3776 2.04979C28.7942 2.04979 29.2327 2.13431 29.5835 2.28223L29.7369 2.34562L29.8027 1.64829L29.715 1.60603C29.2765 1.43698 28.7722 1.33132 28.268 1.33132C26.7771 1.33132 25.9221 2.04979 25.9221 3.29653C25.9221 4.5644 26.7771 5.28286 28.2461 5.28286C28.8161 5.28286 29.3861 5.13494 29.7808 4.9025L29.8465 4.86024L29.7588 4.18404L29.6273 4.33196ZM18.5335 5.2406H19.3666V1.14114H21.5591L21.5372 0.40155H16.3849L16.3411 1.14114H18.5335L18.5335 5.2406Z" fill="#512D6D"/>
        <path d="M7.02313 7.45947V11.4533C7.02313 11.7069 7.33007 11.8336 7.5274 11.6435L12.7893 6.55083C12.9647 6.38178 12.9647 6.1282 12.7893 5.95915L10.6626 3.90942L7.02313 7.45947Z" fill="#CB2C30"/>
        <path d="M13.6224 0.401611H7.02313L10.6845 3.93053L13.8197 0.88763C14.017 0.71858 13.8855 0.401611 13.6224 0.401611Z" fill="#00A3E0"/>
        <path d="M7.02314 7.45944V0.401611H0.401946C0.138852 0.401611 0.00730485 0.697448 0.204625 0.88763L7.02314 7.45944Z" fill="#00A3E0"/>
        <path d="M7.02313 0.401611V7.45944L10.6626 3.93053L7.02313 0.401611Z" fill="#512D6D"/>
    </g>
    <defs>
        <clipPath id="clip0_723_616">
            <rect width="66" height="11.8405" fill="white"/>
        </clipPath>
    </defs>
</svg>
