<svg width="160" height="20" viewBox="0 0 160 20" fill="none" xmlns="http://www.w3.org/2000/svg">
<g clip-path="url(#clip0_112_5437)">
<path d="M103.624 18.9415H99.2483V1.08508L113.32 1.09667C113.32 1.09667 115.897 1.00057 117.535 2.61975C117.535 2.61975 119.208 4.01667 119.208 7.43103V18.9387H114.844V7.1336C114.844 7.1336 114.898 5.92949 114.488 5.50693C114.488 5.50693 114.125 5.04796 113.435 5.04796H103.613L103.622 18.9351L103.624 18.9415ZM122.249 18.9384V2.22047V1.09842H139.808V5.06662L126.598 5.0656V8.09944H135.775V11.9312H126.598V14.9753H139.89V18.9446H122.239L122.249 18.9384ZM91.6237 18.9384V2.22047V1.09842H95.9806V18.9446H91.6237V18.9384ZM146.08 18.9384V5.06149H141.967V1.09329H158.326V5.06149H150.44V18.9384H146.083H146.08ZM77.2339 18.9384V5.06149H73.1211V1.09329H89.4801V5.06149H81.594V18.9384H77.237H77.2339ZM64.0955 8.08713C65.1601 8.07893 65.797 8.08816 66.0534 7.93206C66.0534 7.93206 66.5008 7.68467 66.506 7.1538L66.507 5.98662C66.507 5.45329 66.0545 5.20837 66.0545 5.20837C65.7148 5.02375 65.1391 5.05842 63.7724 5.05708H55.2842V8.08683H64.2904L64.0955 8.08713ZM66.4432 18.9384V12.8482C66.4432 12.3007 65.9855 12.0712 65.9855 12.0712C65.7792 11.943 65.1611 11.92 64.2512 11.92H64.4627H55.2842V18.9374H50.9273V2.21944V1.09739H64.5273C66.876 1.10457 68.4975 1.45001 69.6145 2.53431C70.7119 3.65226 70.8575 5.11483 70.8637 6.63688V7.90765C70.8778 9.20098 70.1983 10.3805 69.3878 11.0676L69.5507 11.1485C69.8814 11.3087 70.0623 11.5356 70.0623 11.5356C70.6789 12.3228 70.6713 13.0003 70.6699 13.8331V18.9418H66.4433L66.4432 18.9384ZM0.556006 1.09226V2.21534V18.9333H4.91293V11.922H18.1129V8.08816H4.91293V5.05637H20.2565V1.08816H0.553955L0.556006 1.09226Z" fill="#231F20"/>
<path d="M156.854 15.7826V16.6019H157.617C157.824 16.6019 158.024 16.5455 158.054 16.239C158.098 15.8326 157.804 15.7826 157.617 15.7826H156.854ZM156.548 15.5134H157.611C157.98 15.5134 158.336 15.5826 158.367 16.1197C158.38 16.4274 158.286 16.539 158.054 16.7146C158.299 16.871 158.305 16.9082 158.343 17.3209C158.367 17.6338 158.323 17.6838 158.455 17.8902H158.093L158.043 17.5902C157.993 17.3081 158.13 16.871 157.636 16.871H156.854V17.8903H156.548L156.548 15.5134ZM157.348 14.8569C156.298 14.8569 155.441 15.7134 155.449 16.7708C155.449 17.821 156.299 18.6775 157.355 18.6723C158.407 18.6723 159.263 17.821 159.263 16.7646C159.263 15.7134 158.405 14.8569 157.348 14.8569ZM157.355 18.9205C156.161 18.9205 155.197 17.9577 155.197 16.7646C155.192 15.5759 156.161 14.6067 157.355 14.6067C158.544 14.6067 159.513 15.5759 159.513 16.7646C159.513 17.9585 158.544 18.9164 157.355 18.9205Z" fill="#231F20"/>
<path d="M44.9363 19.1159C46.3517 18.6351 47.4532 17.0051 47.7179 14.9559V14.3636H40.4614V19.1164H44.9353L44.9363 19.1159ZM47.7189 5.64921V5.11331C47.4407 2.97485 46.2573 1.28972 44.7486 0.893823H40.4625V5.6487L47.7189 5.64921ZM22.1804 14.3641V14.9513C22.4432 17.0025 23.5445 18.6354 24.964 19.1164H29.4153V14.3636L22.1804 14.3641ZM25.1497 0.897413C23.643 1.29352 22.4563 2.97946 22.1804 5.121V5.65311H29.4153V0.898234L25.1497 0.897413ZM47.724 7.63177H40.4676V12.3866H47.724V7.63177ZM31.3958 19.119H38.4943V14.3661H31.3958V19.119ZM38.4943 0.893311H31.3958V5.64818H38.4943V0.893311ZM22.1866 12.3805H29.4214V7.62562H22.1866V12.3805Z" fill="#EE2E24"/>
</g>
<defs>
<clipPath id="clip0_112_5437">
<rect width="160" height="19.375" fill="white" transform="translate(0 0.3125)"/>
</clipPath>
</defs>
</svg>
