<?xml version="1.0" encoding="UTF-8"?>
<svg width="512px" height="512px" viewBox="0 0 512 512" version="1.1" xmlns="http://www.w3.org/2000/svg" xmlns:xlink="http://www.w3.org/1999/xlink">
    <!-- Generator: Sketch 48.1 (47250) - http://www.bohemiancoding.com/sketch -->
    <title>FTSE</title>
    <desc>Created with Sketch.</desc>
    <defs></defs>
    <g id="Компании-BIG" stroke="none" stroke-width="1" fill="none" fill-rule="evenodd">
        <g id="FTSE" fill="#2B2B2D" fill-rule="nonzero">
            <g id="london-stock-exchange-1">
                <path d="M235.543596,63.4522712 L243.523179,63.4522712 L244.525385,54.5032258 L252.504968,54.5032258 L242.520974,71.402765 C242.520974,73.3872284 245.514904,72.4013167 247.519314,72.4013167 L248.521519,71.402765 L248.521519,79.3532587 C240.541936,82.3362739 231.560148,79.3532587 231.560148,79.3532587 L231.560148,71.402765 C232.562353,72.4013167 236.558488,73.3872284 237.548007,71.402765 L227.564013,54.5032258 L235.543596,54.5032258 L235.543596,63.4522712 Z M65.8791348,202.668071 C67.870859,205.651086 68.8730642,208.634101 69.8625833,211.617117 C72.8565128,218.581698 75.8504423,224.547729 79.846577,231.499671 L66.88134,242.44582 C73.8714041,251.394865 81.8509874,259.345359 88.8283654,268.307044 C109.785872,253.379329 130.743378,237.478341 153.705295,225.54628 C163.689289,220.578802 177.656731,224.547729 188.630244,219.58025 C179.648455,226.544832 174.662801,236.479789 166.670532,243.444371 C171.668872,249.410402 173.660596,257.373535 177.656731,264.338117 C167.672737,264.338117 156.699224,265.324029 147.717436,262.341014 C149.70916,267.308492 149.70916,280.239105 150.711365,286.217775 C141.729577,282.248848 131.745583,280.239105 123.766,273.287163 C124.755519,286.217775 119.769865,296.178012 115.773731,307.111521 C108.796353,301.132851 102.808494,295.16682 98.8123591,288.202238 C94.8162244,297.163924 85.8471221,304.128506 79.846577,313.064911 L66.88134,331.974194 C69.8752695,323.99842 70.8774747,314.076103 70.8774747,305.114417 C45.9238336,301.14549 17.9889492,289.21343 7.99226938,263.339566 C6.04021204,258.262449 5.02590944,252.875411 4.9983399,247.438578 C11.9757179,261.367742 26.9453653,269.305596 40.9254937,271.315339 C18.9657821,258.384727 2.00441042,235.506517 0,209.657933 C6.99006417,223.587097 21.9597116,237.503621 35.9271538,243.469651 L35.9271538,242.471099 C12.9779231,220.604082 -1.00220521,193.744305 2.00441042,161.917051 C6.28682094,181.509044 18.1114038,198.645737 34.9376347,209.645293 C15.9718526,184.78262 2.00441042,153.966557 12.9906093,121.15339 C13.9801283,154.939829 36.9420451,184.76998 65.8791348,202.668071 Z M477.062365,210.618565 C495.025942,199.685056 505.999455,180.788413 510.997795,162.890323 C512.989519,194.717577 499.022077,221.564714 476.072846,243.431731 C491.042494,237.465701 505.022622,224.535089 512,210.618565 C510.997795,227.518104 503.018212,242.44582 491.042494,255.363792 C485.054635,261.342462 478.06457,267.283213 471.087192,271.290059 C477.662814,270.208045 484.049373,268.194781 490.052975,265.311389 C497.444116,260.929929 503.61906,254.777495 508.016551,247.413298 C507.014346,268.294404 491.05518,288.176959 472.089398,296.140092 C462.105404,300.109019 452.134096,303.104674 441.147898,305.076498 C441.147898,314.038183 442.150103,323.9605 445.144032,331.936274 C437.164449,319.005662 427.167769,306.062409 417.196462,294.142989 C415.521557,292.402629 414.172508,290.37787 413.213013,288.164319 C409.216879,295.128901 403.22902,301.094931 396.251642,307.073601 C392.268193,296.140092 387.269853,286.192495 388.272058,273.249243 C380.292475,281.199737 370.308481,282.210928 361.326693,286.179855 C361.326693,278.229361 361.326693,270.253588 364.320622,263.289006 C353.34711,265.286109 342.373597,264.300197 334.381328,264.300197 C337.375257,257.335616 340.369187,249.372482 345.35484,243.406452 C336.373052,236.44187 331.387398,226.506912 323.395129,219.54233 C332.376917,223.511257 346.357046,221.526794 356.341039,224.509809 C367.338193,230.556367 377.99757,237.193664 388.272058,244.392363 L415.217424,263.276366 L422.207488,268.269124 L423.209693,268.269124 L445.169405,242.4079 L433.193687,232.460303 C438.17934,223.511257 442.175475,213.56366 445.169405,203.628703 C474.106494,184.732061 498.05793,155.900461 499.060135,121.090191 C509.99559,153.941277 496.028147,185.768532 477.062365,210.618565 Z" id="Shape"></path>
                <path d="M64.6535689,196.244032 C56.6372075,192.219047 49.6149258,184.181854 44.5935484,177.141325 C45.6003728,158.051396 50.6090056,140.954793 58.6381117,123.870968 C54.6235587,148.991985 58.6381117,174.125781 64.6535689,196.244032 Z M470.709677,178.137988 C465.6883,185.178517 458.678763,192.219047 450.662401,196.244032 C456.677859,174.125781 460.692412,148.991985 456.677859,124.867631 C464.958007,141.468469 469.734751,159.602885 470.709677,178.137988 Z M82.6999407,171.110236 C84.7008449,165.079148 86.7144937,159.048059 90.7290467,153.01697 C90.7290467,160.0575 89.7222223,168.094692 93.7367754,174.125781 C104.760865,172.119677 117.798604,170.100796 129.829519,172.119677 C123.814062,174.125781 116.79178,179.160206 113.784051,185.178517 C112.777227,184.169077 112.777227,182.162973 111.783147,181.16631 C108.775418,181.16631 105.76769,182.175751 102.759961,182.175751 L111.783147,191.222384 C110.776323,196.25681 109.782243,203.284561 111.783147,208.306209 C112.789971,195.234591 119.799509,183.172414 130.836343,177.141325 C136.8518,174.125781 143.874082,172.119677 149.889539,176.131884 C152.884523,179.147429 153.891348,183.172414 152.884523,187.197399 C152.884523,185.178517 150.883619,183.172414 148.882715,182.162973 C139.859529,179.147429 132.837247,186.17518 127.828615,193.21571 C126.82179,194.22515 124.820886,196.231254 124.820886,198.250135 C128.822694,201.26568 133.844072,200.256239 138.852705,199.246798 C142.867258,198.250135 145.874986,197.240695 149.889539,194.22515 C142.867258,204.268446 131.830423,208.293431 122.819982,212.318416 L125.814966,217.352842 C123.814062,219.358946 121.813157,221.377827 119.799509,222.387268 L113.784051,214.350076 C106.774514,219.371724 99.7522326,223.396709 93.7367754,228.431134 L98.7454082,235.458886 C96.744504,237.46499 94.7435998,239.483871 92.7299509,239.483871 C75.6904036,217.36562 62.6526647,185.191295 75.6904036,157.054733 L79.7049567,151.023645 C79.692212,158.051396 79.692212,165.079148 82.6999407,171.110236 Z M426.587828,234.436668 L422.586019,239.471093 C420.585115,239.471093 418.571466,237.452212 416.570562,236.455549 C417.577387,233.440005 420.585115,231.421123 421.59194,228.418357 C415.576482,223.383931 408.554201,219.371724 401.544664,214.337298 L395.516462,222.37449 L394.522382,222.37449 C392.521478,220.355609 390.507829,219.358946 388.506925,218.349505 C389.513749,216.343402 391.514653,214.337298 392.521478,212.318416 C388.506925,210.312313 384.492372,209.302872 380.490563,206.287328 C374.475106,204.281224 368.459649,200.256239 365.45192,194.237928 C371.467378,199.259576 381.484643,201.26568 390.507829,199.259576 C390.507829,197.253473 388.506925,196.25681 388.506925,194.237928 C383.485547,187.197399 375.469186,181.16631 366.446,182.175751 C364.445096,182.175751 363.438271,184.181854 362.444192,186.187958 L362.444192,187.197399 C361.437367,185.178517 361.437367,180.156869 363.451016,178.150766 C366.458745,174.138559 371.467378,174.138559 376.47601,175.135221 C387.512845,177.141325 398.536935,187.197399 401.544664,198.262913 C402.538744,201.278458 402.538744,205.303443 403.545568,209.31565 C405.546472,203.284561 404.539648,195.234591 403.545568,191.222384 C406.553297,188.20684 409.561025,185.191295 412.568754,183.185192 C409.561025,182.175751 406.553297,182.175751 403.545568,181.179088 C403.545568,182.188529 402.538744,184.194632 401.544664,185.191295 C398.536935,180.169647 392.521478,174.138559 385.499196,173.129118 C396.523286,170.113573 410.555105,172.119677 421.59194,175.135221 C425.593748,169.104133 424.599668,161.054163 423.592844,154.026411 C428.614221,159.048059 430.615126,165.079148 432.61603,172.119677 C435.623758,165.079148 436.617838,159.048059 435.623758,151.010867 C453.657385,177.141325 442.633295,212.318416 426.587828,234.436668 Z" id="Shape"></path>
                <path d="M243.070985,7.94316133 L253.096598,7.94316133 L253.096598,0 L262.115828,0 L262.115828,7.94316133 L271.135058,7.94316133 L271.135058,0 L280.154288,0 L280.154288,30.7513817 L274.141468,35.7190096 L274.141468,57.543791 L291.173545,57.543791 C292.179928,55.5516966 294.179955,53.5722103 297.199104,54.5682575 L314.231181,54.5682575 C313.224798,59.5358854 311.224771,65.4743441 306.218334,68.4624858 C304.847831,69.7022372 303.068237,70.4058677 301.211897,70.441972 C305.211951,73.4175055 306.218334,78.3725251 305.211951,83.3275448 C304.205568,85.3196393 303.211924,87.2991255 301.211897,88.2951727 C305.211951,94.2462396 306.218334,102.189401 301.211897,108.12786 C310.231127,113.095488 301.211897,120.029993 302.21828,126.977108 C305.22469,128.956594 308.2311,130.93608 309.237483,134.907661 C309.237483,138.879241 308.2311,142.838214 305.22469,144.830308 C304.218307,145.826356 302.21828,145.826356 301.224636,145.826356 C301.224636,148.801889 304.231046,151.777422 307.237456,153.756909 C313.250276,157.715881 323.275889,156.732442 330.295092,153.756909 C333.301502,151.777422 337.314295,147.805842 338.307939,143.834261 C339.314322,141.854775 338.307939,139.875289 337.301556,137.883194 C334.295146,133.911614 329.288709,132.915566 325.275916,133.911614 C322.017626,134.971505 319.202005,137.06264 317.263069,139.86268 C314.256659,128.956594 315.263042,115.062366 325.275916,108.115251 C330.295092,106.135765 337.301556,106.135765 342.320732,109.111299 C343.327115,109.111299 344.320759,111.103393 346.320786,112.086832 C345.314403,96.2131177 347.327169,79.3559642 362.359219,70.4293638 C371.378449,65.4617359 384.397734,66.4577832 393.416964,72.4088501 L399.442523,77.3764779 C410.674596,78.3023366 421.360551,72.4266655 426.500213,62.4988107 C428.512979,60.5067162 429.506623,56.5477438 429.506623,53.5722103 C441.368037,62.2195365 446.561987,77.2443793 442.538646,91.2707062 C441.532263,92.2541452 442.538646,93.2501924 443.545029,94.2336314 C454.577025,96.2257259 462.589872,89.2786117 470.602719,82.3314976 C471.609102,99.1886511 465.583543,116.058413 449.557849,123.988966 C440.538619,127.947938 428.512979,125.968452 420.500132,120.029993 C412.487285,114.078927 407.468109,106.135765 403.468055,98.2052121 C400.461645,94.2336314 394.448825,95.2296786 388.436005,96.2257259 C380.423158,97.2217731 372.397572,103.17284 368.384778,110.119954 C367.391135,113.095488 366.384751,115.074974 366.384751,118.050507 C367.391135,118.050507 369.391162,117.05446 370.397545,116.058413 C377.416748,113.082879 386.435978,115.062366 391.442415,120.029993 C396.461591,124.997621 397.455235,132.915566 395.442469,138.879241 C393.442442,145.826356 386.423239,152.760861 380.410419,154.752956 C379.404036,147.805842 375.391243,144.830308 371.391189,144.830308 C361.365575,142.838214 357.352782,152.760861 350.346318,157.715881 C343.327115,164.662995 331.301475,169.618015 332.295119,180.53671 C332.295119,185.491729 335.301529,190.459357 339.314322,193.422283 C341.314349,194.41833 343.327115,195.401769 345.327142,195.401769 C332.295119,200.369397 314.256659,201.352836 303.237402,191.442796 C300.230992,195.401769 304.243785,203.34493 305.237429,204.328369 C308.243839,210.279436 312.256632,215.247064 312.256632,222.194178 C306.243812,216.243111 299.237348,214.263625 290.218118,216.243111 C290.218118,216.243111 285.198942,216.243111 262.154045,230.137339 C256.141225,234.096312 251.134788,236.088406 251.134788,236.088406 C251.134788,236.088406 249.134761,235.092359 248.128378,235.092359 C241.109175,230.137339 233.096328,226.165759 226.077125,223.190225 C223.490425,220.523571 222.055551,216.964181 222.077071,213.267578 C223.028369,209.342879 226.124493,206.278553 230.089918,205.337025 L230.089918,203.34493 L225.083481,195.414377 C221.370824,194.555595 217.691047,193.563091 214.051485,192.438844 C201.019462,198.38991 182.981002,200.369397 168.955334,195.414377 C173.961771,194.430938 178.980948,191.455405 180.980975,186.487777 C182.981002,181.532757 182.981002,174.585643 178.980948,170.614062 C171.961744,162.683509 162.942514,157.728489 156.942433,148.801889 C152.92964,145.826356 146.91682,143.834261 141.910383,144.842916 C137.821251,146.519483 135.083943,150.38906 134.89118,154.765564 C126.878333,151.790031 118.852747,141.867383 118.852747,132.940783 C118.852747,125.993669 121.859157,121.038649 126.878333,117.067068 C133.884797,114.091535 142.916766,114.091535 147.923203,118.063115 C147.923203,111.116001 143.923149,105.164934 138.903973,101.193354 C131.88477,96.2383341 120.865513,93.2628006 112.852666,97.2343813 C106.839846,106.160982 101.833409,115.087582 92.8141791,121.038649 C84.7885931,125.993669 72.775692,126.989716 63.743723,122.034696 C49.7180559,114.104143 43.7052359,98.2304285 44.6988799,82.356714 C49.7180559,86.3282947 55.7181369,91.2833144 61.730957,93.2754088 C64.737367,94.2588478 70.750187,95.254895 73.756597,92.2793616 C71.75657,89.3038281 70.750187,83.3527612 70.750187,81.373275 C71.75657,70.4671884 76.763007,59.5611018 85.7822371,52.6139877 C85.7822371,62.5366353 94.8014671,72.4466746 103.820697,75.4222081 C107.83349,76.4182553 111.833544,77.4143025 115.846337,77.4143025 C123.859184,69.4837494 133.884797,65.5121687 144.904054,67.4916549 C153.923284,69.4837494 162.942514,77.4143025 165.948924,85.3574638 C168.955334,93.288017 168.955334,103.210665 168.955334,112.137265 C172.955388,107.169637 178.980948,105.190151 185.987412,107.169637 C193.006615,108.165684 197.006669,116.096237 198.013052,122.047304 C199.019435,127.998371 199.019435,134.932877 198.013052,139.900505 C195.006642,135.928924 191.006588,132.953391 184.981029,133.949438 C181.974619,133.949438 178.968209,134.945485 176.968182,137.921019 C174.955415,140.896552 175.961798,145.851572 177.974565,148.827105 C184.981029,157.753706 198.013052,158.749753 208.038665,156.757658 C211.045075,155.761611 213.057841,154.778172 216.051512,153.782125 C214.051485,156.757658 214.051485,161.712678 217.057895,164.688212 C227.083508,174.610859 244.115585,173.614812 257.134869,170.639279 C267.221962,167.703013 276.966466,163.717609 286.205325,158.749753 C279.186122,167.676353 288.218091,177.586393 290.218118,186.512993 C293.211789,181.557973 297.237321,176.590345 299.237348,170.639279 C300.230992,180.561926 306.243812,189.488526 316.269425,192.46406 C320.269479,193.460107 325.288655,193.460107 330.295092,192.46406 C326.295038,187.50904 324.282272,181.557973 326.295038,175.606906 C327.288682,167.676353 335.314268,163.704773 336.320651,156.757658 C328.307804,161.712678 316.282164,163.692164 307.250195,159.733192 C301.237375,157.753706 296.230938,151.802639 293.211789,145.851572 C277.186095,158.749753 257.134869,165.684259 234.089972,163.704773 C236.089999,158.749753 239.109148,154.778172 241.109175,149.823153 L233.096328,149.823153 L226.077125,162.721334 C223.338672,161.142959 221.21971,158.694744 220.064305,155.774219 C220.064305,152.798686 221.057949,148.827105 223.057976,146.847619 C222.064332,145.851572 220.064305,145.851572 219.057922,145.851572 C214.741181,144.541581 211.362276,141.197378 210.038692,136.924972 C210.038692,131.969952 213.045102,127.014932 218.064278,127.014932 C218.064278,125.035446 217.057895,121.063865 218.064278,119.084379 C219.118005,116.134047 221.92195,114.149641 225.083481,114.116751 C225.083481,114.116751 225.083481,113.120704 226.077125,113.120704 L226.077125,106.17359 L214.051485,103.198056 L202.025845,72.4466746 C202.025845,72.4466746 211.045075,66.4956077 215.057868,63.5200743 C212.051458,61.540588 216.064251,59.5611018 216.064251,56.5729602 L221.070688,50.6218933 C220.077044,45.6542654 221.070688,40.6992457 219.070661,36.727665 C224.089837,38.7071513 228.089891,42.6787319 233.109067,42.6787319 L240.12827,41.6826847 L240.12827,35.7316178 L235.109094,30.7639899 L235.109094,3.58346386e-13 L243.121941,3.58346386e-13 L243.121941,7.94316133 L243.070985,7.94316133 Z M257.096652,22.8082204 C250.090188,25.7837538 251.083832,32.730868 251.083832,39.6653739 L263.109472,39.6653739 C263.109472,35.7064014 264.103116,32.7182598 263.109472,28.7592873 C262.115828,26.7798011 260.103062,22.8082204 257.096652,22.8082204 Z M225.032525,45.629049 L226.026169,52.5761631 C224.026142,55.5516966 221.006993,57.543791 221.006993,61.5027635 L226.026169,68.4498776 C226.026169,71.425411 224.026142,74.4009445 223.019759,77.3764779 L229.045318,89.2786117 L235.058138,89.2786117 L241.070958,96.2257259 L247.083778,89.2786117 L252.090215,89.2786117 L259.109418,77.3764779 C257.096652,74.4009445 255.096625,71.425411 255.096625,68.4498776 L261.122184,61.5027635 C260.115801,57.543791 258.115774,55.5516966 256.103008,52.5761631 L256.103008,45.629049 L250.090188,48.6045824 C243.899368,46.6255128 237.236165,46.6255128 231.045345,48.6045824 L225.032525,45.629049 Z M296.179982,59.510669 C295.186338,60.4941081 294.179955,61.4901553 292.179928,62.4862025 C287.160752,63.4822497 279.147905,61.4901553 274.141468,63.4822497 C272.128702,64.4782969 271.135058,66.4577832 270.128675,68.4498776 C270.128675,70.4293638 269.122292,73.4048973 271.135058,74.4009445 C275.147851,80.3520114 284.167081,78.3725251 290.179901,78.3725251 L292.179928,80.3520114 C292.179928,81.3480586 291.173545,82.3314976 290.179901,82.3314976 L262.115828,82.3314976 C260.115801,86.3030783 257.096652,89.2786117 257.096652,94.2336314 L249.083805,94.2336314 L241.070958,104.156279 L233.058111,94.2336314 L224.038881,94.2336314 L224.038881,91.2707062 L217.019678,77.3764779 C218.135844,74.77669 219.138902,72.1307437 220.026088,69.4459248 L218.026061,67.4538304 L209.006831,74.4009445 L218.026061,99.2012593 L226.038908,101.180746 L226.038908,99.2012593 L231.058084,99.2012593 L230.051701,116.058413 C230.051701,119.033946 227.05803,117.05446 225.045264,118.050507 C222.038854,120.029993 224.038881,124.997621 223.032498,126.977108 C227.391199,123.853255 233.045364,123.10932 238.077287,124.997621 L244.090107,108.12786 C256.115747,109.123907 269.14777,106.148373 278.167,97.2217731 C281.17341,103.17284 285.186203,108.12786 290.19264,113.095488 L290.19264,116.071021 C290.19264,119.046554 287.18623,116.071021 285.173464,118.063115 C283.173437,118.063115 283.173437,122.022088 283.173437,124.014182 L287.173491,126.989716 C290.179901,125.01023 294.192694,125.01023 297.199104,125.01023 L300.192775,113.108096 L295.186338,107.157029 C297.186365,106.160982 298.180009,104.181495 299.186392,102.202009 C300.180036,97.2343813 299.186392,92.2793616 295.186338,88.3077809 C299.186392,86.3282947 300.192775,83.340153 300.192775,79.3811806 C299.199131,69.458533 287.173491,73.4301137 280.154288,72.4340664 C276.154234,72.4340664 276.154234,67.4664386 280.154288,67.4664386 C287.173491,67.4664386 296.192721,68.4624858 302.205541,65.4869523 C305.211951,64.4909051 307.211978,61.5279798 307.211978,59.5358854 L296.179982,59.5358854 L296.179982,59.510669 Z M82.724871,64.4656887 L81.731227,65.4617359 C75.7184069,74.3883363 75.7184069,87.2865173 81.731227,96.2131177 C79.7312,97.2091649 78.724817,98.1926039 76.7120509,99.1886511 C68.6992039,102.164185 58.6735908,100.184698 51.6543878,95.2296786 C53.6544148,103.160232 58.6735908,112.086832 66.6864379,117.041852 C73.7056409,120.017385 81.7184879,120.017385 87.731308,116.045805 C101.769714,108.115251 103.769741,94.2210232 111.782588,83.3149366 C99.756948,83.3149366 87.731308,75.3843835 82.724871,64.4656887 Z M431.481172,64.4656887 C427.468379,76.3678225 415.442739,83.3149366 403.417099,83.3149366 C410.423563,93.2375842 412.436329,105.139718 423.455586,114.066318 C429.468406,118.037899 436.47487,121.013432 444.500456,118.037899 C454.526069,115.062366 461.532533,105.139718 463.545299,95.2170705 C460.538889,97.1965567 456.538835,99.1760429 452.526042,100.17209 C445.506839,101.168137 438.487636,100.17209 433.481199,96.2131177 C434.487582,95.2170705 434.487582,94.2210232 435.493965,93.2375842 C439.494019,84.3109839 438.487636,72.4088501 431.481172,64.4656887 Z M276.141495,104.143671 L269.122292,109.09869 C269.122292,111.090785 271.122319,112.074224 272.128702,113.070271 C272.128702,114.066318 272.128702,117.029244 271.122319,117.029244 C270.115936,118.025291 267.122265,117.029244 266.115882,118.025291 C264.103116,118.025291 263.109472,120.004777 263.109472,121.984263 C266.115882,121.984263 269.122292,121.984263 271.122319,124.959797 C273.135085,123.96375 275.135112,121.984263 278.141522,122.967702 C278.141522,119.992169 278.141522,118.012683 280.141549,115.037149 C280.141549,114.041102 282.154315,113.057663 283.147959,113.057663 C280.502813,110.337974 278.154376,107.350169 276.141495,104.143671 Z M266.128621,126.964499 C264.115855,125.968452 260.115801,125.968452 258.115774,127.947938 C263.13495,130.923472 264.128594,137.870586 270.141414,138.866633 C272.141441,139.86268 274.154207,138.866633 275.16059,137.870586 C272.128702,134.895053 270.128675,129.927425 266.128621,126.964499 Z M250.090188,126.964499 C247.083778,125.968452 245.071012,126.964499 243.070985,128.943986 L251.083832,136.874539 C254.090242,138.866633 258.103035,139.850072 261.109445,137.870586 C257.096652,133.899005 254.102981,128.943986 250.090188,126.964499 Z M274.141468,127.947938 C277.147878,131.919519 279.147905,135.878492 283.160698,139.850072 C285.392167,140.846337 287.948432,140.846337 290.179901,139.850072 C287.173491,135.878492 285.160725,131.919519 282.167054,128.943986 C280.154288,126.964499 276.141495,126.964499 274.141468,127.947938 Z M236.051782,128.943986 C233.045372,127.947938 230.038962,127.947938 228.038935,129.927425 C232.051728,132.902958 235.058138,136.874539 239.070931,139.850072 C241.070958,140.846119 245.083751,139.850072 247.083778,138.854025 C243.070985,134.895053 240.064575,130.923472 236.051782,128.943986 Z M289.173518,130.923472 C292.179928,133.899005 294.192694,138.854025 298.192748,140.846119 C300.192775,141.842167 302.205541,141.842167 303.211924,139.850072 C304.218307,138.854025 304.218307,136.874539 304.218307,134.882444 C301.199158,129.927425 294.179955,128.943986 289.173518,130.923472 Z M222.026115,131.919519 C221.019732,130.923472 219.019705,131.919519 217.006939,131.919519 C216.000556,132.915566 216.000556,134.895053 216.000556,136.874539 C217.006939,138.866633 218.013322,140.846119 220.013349,140.846119 C224.013403,141.842167 229.032579,141.842167 232.038989,139.850072 C229.045318,136.874539 226.038908,132.915566 222.026115,131.919519 Z M178.929991,157.703273 C185.949194,166.629873 191.949275,177.53596 186.942838,188.454655 C185.949194,190.434141 184.942811,191.430188 183.949167,192.413627 C194.968425,193.409674 203.987655,191.41758 212.013241,186.46256 C217.019678,188.454655 223.032498,189.438094 229.045318,189.438094 C235.058138,201.340227 241.070958,212.246314 245.071012,225.144495 C246.077395,216.217895 245.071012,206.295247 243.070985,197.368647 C242.064602,194.405722 241.070958,191.41758 240.064575,189.438094 C248.077422,188.442046 256.103008,185.466513 263.122211,182.49098 C268.128648,179.515446 274.141468,176.539913 278.154261,170.588846 C265.134977,178.519399 250.090188,182.49098 233.058111,183.487027 C223.032498,183.487027 212.013241,183.487027 207.006804,173.564379 C205.006777,169.592799 208.013187,164.637779 209.006831,161.662245 C198.981218,164.650387 186.942838,162.670901 178.929991,157.703273 Z M146.865864,223.177617 L118.801791,242.026865 L91.744101,260.863505 L90.750457,260.863505 L76.7120509,244.006351 C78.7120779,242.026865 81.731227,240.034771 83.731254,238.055284 L91.744101,246.981885 C96.763277,244.006351 101.769714,240.034771 106.78889,236.075798 C105.782507,234.096312 102.776097,231.10817 101.769714,229.128684 L111.795327,221.198131 L117.808147,229.128684 C122.827323,225.169711 128.827404,222.194178 133.833841,219.206036 L131.833814,215.247064 C134.840224,213.254969 137.846634,211.275483 141.859427,210.279436 L146.865864,223.177617 Z M383.378611,215.234456 L381.378584,219.193428 L397.417018,229.116076 C399.429784,227.13659 401.429811,224.161056 403.429838,222.18157 L413.455451,229.116076 L408.436275,236.06319 L423.468325,247.965324 C426.474735,244.98979 428.487501,242.014257 431.481172,239.038723 C433.481199,240.022162 436.487609,242.014257 438.487636,243.993743 L438.487636,244.98979 L423.455586,260.850897 L387.378665,236.06319 L368.333822,224.161056 L373.352998,210.266828 C377.365791,211.275483 380.372201,213.254969 383.378611,215.234456 Z M202.981272,274.745125 L215.006912,255.908485 L227.045291,274.745125 L202.981272,274.745125 Z M311.224771,274.745125 L288.179874,274.745125 C291.47277,268.255782 295.152339,261.965818 299.199131,255.908485 C303.199185,261.87216 307.211978,268.794058 311.224771,274.745125 Z M221.019732,315.431762 C219.019705,319.390735 218.026061,325.329193 217.019678,331.292869 C219.019705,332.276308 222.038854,331.292869 224.038881,330.30943 L225.045264,330.30943 L225.045264,336.247888 C223.032498,335.264449 221.032471,335.264449 218.026061,335.264449 C218.026061,338.239983 219.019705,341.228124 218.026061,345.187097 L212.013241,345.187097 C212.013241,341.228124 212.013241,338.239983 213.019624,335.264449 C210.013214,335.264449 207.006804,335.264449 205.006777,336.247888 L205.006777,330.30943 C207.006804,331.292869 210.013214,332.276308 213.019624,331.292869 C213.019624,325.329193 211.019597,320.386782 209.006831,315.431762 C211.019597,312.456229 214.026007,308.484648 215.019651,305.509115 C216.013295,308.484648 219.019705,312.443621 221.019732,315.431762 Z" id="Shape"></path>
                <path d="M312.920309,231.208738 L324.868929,231.208738 C328.843364,237.168116 333.830394,243.127495 338.804767,247.104623 C332.830457,256.04369 329.843302,266.965009 322.881712,275.916703 L333.830394,275.916703 C334.817674,285.853209 335.817612,295.789715 340.791985,303.731344 L275.074574,303.731344 L275.074574,351.393746 L335.817612,351.393746 C332.830457,395.091647 298.971814,437.804735 258.138924,453.713245 C217.318692,437.804735 184.459986,395.091647 181.472831,351.393746 L241.215932,351.393746 L241.215932,303.731344 L176.485801,303.731344 C181.472831,295.789715 182.460111,285.853209 182.460111,275.916703 L193.408794,275.916703 L193.408794,274.93189 C186.434546,266.965009 184.447329,257.041129 178.473019,248.102061 C178.473019,248.102061 177.473081,247.104623 178.473019,247.104623 C183.316678,242.25948 187.65117,236.933172 191.408919,231.208738 L226.267499,231.208738 C235.228964,235.17324 243.190492,239.150367 251.152019,245.122372 C263.100639,239.162993 274.061979,232.218802 285.997942,225.261985 C291.972252,223.279734 299.946437,221.284858 305.90809,225.261985 C307.945937,227.23161 310.933092,229.213861 312.920309,231.208738 Z M316.907402,252.066563 L200.395699,252.066563 L200.395699,256.031065 L212.344319,256.031065 L198.395824,278.896392 C199.395761,281.876081 201.382979,285.853209 204.370134,287.822834 C209.357164,291.787336 216.318754,292.810026 222.293064,290.802523 C227.280094,288.832898 232.254467,284.830519 234.241684,278.896392 L221.305784,256.031065 L251.177334,256.031065 L251.177334,264.982758 L257.151644,264.982758 L249.190117,274.919264 L258.151582,283.845706 L267.113047,274.919264 L259.151519,264.982758 L265.125829,264.982758 L266.125767,256.031065 L295.997317,256.031065 C295.997317,256.031065 287.035852,271.939575 282.048822,278.896392 C283.048759,280.866017 285.035977,283.858332 286.023257,285.853209 C291.010287,291.799961 298.959157,292.810026 305.933404,290.815149 C310.920434,289.830336 316.894744,283.858332 317.882024,278.909018 L303.933529,256.04369 L316.882087,256.04369 L316.882087,252.066563 L316.907402,252.066563 Z M241.228589,378.223576 L194.434046,378.223576 C201.395636,401.063651 219.331224,423.891101 241.228589,437.804735 L241.228589,378.223576 Z M275.087232,378.223576 L275.087232,437.804735 C289.035727,428.878293 300.971689,416.94691 310.933092,403.058528 C315.920122,395.091647 319.894557,387.150018 322.881712,378.223576 L275.087232,378.223576 Z M429.419355,431.857982 C428.432023,439.105556 428.432023,446.453045 429.419355,453.700619 L424.444982,453.700619 C426.4322,448.713428 425.44492,441.769237 425.44492,435.822484 C423.457702,440.784424 422.457765,445.75899 421.470485,450.72093 L417.470735,450.72093 C417.470735,445.75899 416.470797,441.769237 414.48358,437.804735 L414.48358,452.728433 L415.483517,453.713245 C413.4963,454.698058 411.496425,454.698058 410.496487,454.698058 L411.496425,452.728433 C411.496425,446.756428 411.496425,439.812237 410.496487,433.840233 C412.496362,432.85542 414.48358,432.85542 417.470735,432.85542 C417.470735,435.83511 419.457952,439.812237 419.457952,442.791927 C420.45789,439.812237 422.445107,435.83511 422.445107,431.870608 L429.419355,431.870608 L429.419355,431.857982 Z M111.780986,436.807296 L111.780986,453.700619 L112.780924,455.670245 C110.793706,455.670245 108.806488,454.685432 106.806613,454.685432 L107.806551,452.715807 C107.806551,445.75899 108.806488,438.802173 106.806613,432.842795 L112.780924,433.827607 L111.780986,436.807296 Z M405.534772,436.807296 C404.534835,443.764113 407.52199,452.715807 401.560337,456.680309 C398.573182,457.665121 395.57337,458.649934 393.586152,456.680309 L392.598872,454.685432 L392.598872,439.786986 L391.598935,438.802173 C392.598872,437.792109 395.57337,436.807296 397.573245,436.807296 L395.57337,438.802173 L396.573307,453.700619 C398.560525,456.680309 400.547742,453.700619 401.560337,452.715807 L401.560337,437.792109 L400.5604,435.822484 C402.547617,434.837671 404.534835,434.837671 406.53471,433.827607 L405.534772,436.807296 Z M101.819584,435.822484 C103.806801,440.784424 103.806801,445.75899 100.819646,449.736118 C97.832491,454.698058 91.858181,453.700619 85.883871,453.700619 C89.858306,448.713428 87.8710885,440.784424 87.8710885,433.827607 C87.8710885,432.842795 86.871151,432.842795 86.871151,431.857982 C92.8581185,431.857982 98.8324285,430.847918 101.819584,435.822484 Z M92.8581185,434.837671 L91.858181,450.72093 C93.8453985,450.72093 95.8452735,450.72093 96.845211,448.726053 C98.8324285,445.771616 98.8324285,440.784424 97.8451485,436.819922 C96.845211,434.837671 94.8579934,434.837671 92.8581185,434.837671 Z M129.703916,438.802173 L129.703916,443.764113 C127.704041,442.779301 126.716761,439.799612 123.729606,440.784424 C119.755171,443.764113 120.742451,447.741241 121.742389,451.705743 C121.742389,453.700619 122.742326,455.670245 124.729544,456.692934 C126.716761,456.692934 127.704041,456.692934 129.703916,455.68287 L129.703916,460.670062 C124.729544,460.670062 120.742451,459.68525 117.755296,454.698058 C115.755421,450.733556 115.755421,443.776739 118.742576,440.784424 C120.729794,437.804735 123.729606,436.819922 126.716761,437.804735 C127.704041,437.792109 128.716636,438.802173 129.703916,438.802173 Z M389.59906,442.779301 L389.59906,443.764113 C387.611842,442.779301 386.611905,442.779301 384.61203,443.764113 L383.612092,444.748926 C384.61203,449.736118 383.612092,456.680309 385.611967,461.642249 L379.637657,464.621938 C381.624875,458.649934 379.637657,451.705743 380.637595,445.75899 C378.650377,445.75899 376.650502,448.713428 375.650565,450.72093 C374.650627,448.726053 375.650565,446.756428 375.650565,444.748926 C379.637657,442.779301 383.612092,441.769237 388.599122,438.802173 C389.59906,439.799612 389.59906,441.769237 389.59906,442.779301 Z M145.639629,451.705743 C144.639691,449.736118 142.652474,447.741241 140.652599,447.741241 C139.652661,453.713245 139.652661,460.657436 140.652599,465.619376 L135.665569,463.649751 C136.665506,457.677747 135.665569,451.718369 136.665506,444.761552 C134.665631,444.761552 133.678351,443.776739 131.678476,444.761552 L131.678476,440.79705 L145.626971,446.769054 L145.626971,451.705743 L145.639629,451.705743 Z M372.66341,451.705743 C372.66341,450.72093 370.676192,450.72093 369.676255,450.72093 C367.283754,452.245488 365.797262,454.84743 365.70182,457.677747 C365.70182,460.657436 365.70182,464.634564 368.676317,465.619376 C370.676192,466.629441 372.66341,464.634564 373.663347,462.639687 L373.663347,467.626879 C371.67613,468.611692 368.676317,470.606568 366.6891,469.596504 C363.521031,468.255161 361.52941,465.08359 361.70207,461.654875 C360.71479,455.68287 362.702007,450.733556 368.676317,447.741241 C369.676255,446.756428 371.663472,447.741241 372.66341,446.756428 L372.66341,451.705743 Z M153.601156,450.72093 L152.601219,452.715807 L152.601219,467.614253 C152.601219,468.599066 154.588436,469.583878 155.588374,470.593942 C156.588311,470.593942 158.575529,469.583878 158.575529,468.599066 C157.575591,463.637126 159.562809,457.677747 157.575591,452.715807 L162.562621,455.670245 C160.575404,458.649934 161.562684,462.627061 161.562684,466.616815 C161.562684,476.528069 153.601156,473.54838 151.613939,471.578755 C149.614064,469.583878 148.626784,468.599066 148.626784,465.606751 C147.626846,459.659998 149.626721,452.715807 147.626846,447.728615 L153.601156,450.72093 Z M173.523961,459.672624 C173.523961,463.637126 174.523899,466.629441 175.511179,470.593942 C177.511054,467.614253 178.498334,464.621938 179.498271,461.642249 C180.498209,461.642249 183.472706,461.642249 185.472581,462.627061 L184.472644,465.606751 L185.472581,481.515261 L185.472581,483.484886 C184.472644,484.469699 181.485489,483.484886 180.485551,483.484886 C179.485614,482.500074 181.485489,481.515261 181.485489,481.515261 L181.485489,465.606751 C179.498271,470.593942 177.511054,474.558444 176.498459,478.522946 L173.511304,477.512882 C173.511304,472.550942 171.524086,467.601627 170.524149,462.614436 C169.522203,468.201197 169.522203,473.920998 170.524149,479.507759 C168.524274,479.507759 167.536994,478.522946 166.537056,478.522946 L165.537119,478.522946 L166.537056,477.512882 C167.536994,471.566129 166.537056,464.621938 166.537056,458.649934 L165.537119,456.680309 L173.523961,459.672624 Z M355.740417,455.670245 C356.740354,461.642249 358.727572,466.616815 360.727447,471.578755 L361.714727,473.54838 C359.72751,473.54838 357.740292,475.543257 355.740417,475.543257 C356.740354,473.54838 355.740417,472.563568 355.740417,470.581317 C353.753199,470.581317 351.765982,471.566129 349.766107,472.550942 C349.766107,474.545818 349.766107,476.515444 350.766044,478.522946 C348.76617,479.507759 346.778952,480.492571 344.791734,480.492571 C347.778889,473.535754 348.76617,466.604189 349.766107,459.659998 L349.766107,457.665121 C351.765982,456.680309 353.753199,455.670245 355.740417,455.670245 Z M354.74048,467.614253 L352.753262,459.672624 L350.766044,468.599066 L354.74048,467.614253 Z M343.791797,463.637126 C344.791734,465.606751 344.791734,469.583878 342.791859,471.578755 C341.791922,473.54838 338.804767,473.54838 335.817612,474.558444 C335.817612,477.512882 335.817612,480.505197 336.817549,482.500074 C334.817674,483.484886 332.830457,482.500074 330.843239,483.484886 C332.830457,477.512882 331.843177,470.593942 331.843177,463.637126 L330.843239,461.642249 C335.830269,462.627061 340.804642,458.66256 343.791797,463.637126 Z M335.830269,463.637126 L335.830269,471.578755 C336.830207,471.578755 338.817424,471.578755 338.817424,470.593942 C339.817362,468.599066 339.817362,466.629441 339.817362,465.606751 C339.804704,463.637126 336.817549,463.637126 335.830269,463.637126 Z" id="Shape"></path>
                <path d="M172.423362,271.828438 C173.422538,282.799392 170.437658,292.781057 163.468723,301.748068 C164.467899,303.752011 166.453603,305.730588 167.452778,306.732559 C171.424186,306.732559 174.421714,307.747214 176.407418,305.743271 C179.392298,303.764694 181.378002,305.743271 182.377178,307.747214 C184.362882,307.747214 185.34941,307.747214 187.347762,306.732559 C187.347762,307.747214 186.361234,309.72579 185.362058,309.72579 C184.37553,310.740445 184.37553,310.740445 183.376354,310.740445 C181.39065,312.719022 180.391474,314.722965 177.406594,313.70831 C176.407418,311.729733 174.421714,312.719022 172.423362,312.719022 C175.408242,315.712253 178.393122,318.718167 182.377178,319.707456 L188.346938,319.707456 C190.332642,320.696744 189.346114,323.689975 191.331818,324.691947 L194.30405,324.691947 C193.317522,327.685178 189.333466,326.69589 187.335114,328.699833 C182.36453,329.689121 180.378826,324.691947 177.393946,323.689975 L172.410715,319.707456 C172.410715,324.691947 174.409066,328.699833 177.393946,332.682353 C179.37965,333.671641 181.365354,333.671641 182.377178,334.660929 C184.362882,335.650217 182.377178,338.643449 185.34941,338.643449 L188.33429,338.643449 C186.348586,341.63668 182.36453,340.647392 180.378826,342.625968 C178.393122,343.640623 176.407418,342.625968 174.409066,341.63668 C173.409891,339.658103 173.409891,337.65416 173.409891,335.637534 C168.439307,330.653043 166.440955,323.677292 164.455251,317.703513 C163.456075,318.692801 162.469547,319.682089 163.456075,320.671378 C163.456075,321.686032 165.441779,323.664609 163.456075,325.681235 C162.456899,326.670524 163.456075,328.674467 163.456075,329.663755 C162.456899,328.674467 161.470371,327.659812 159.484667,326.670524 C158.485491,326.670524 155.513259,324.666581 158.485491,319.682089 C158.485491,316.688858 160.483843,313.682944 161.470371,310.715079 C161.470371,309.700424 159.484667,307.721847 158.485491,306.707193 C146.545971,317.703513 131.621572,322.688004 117.6837,328.674467 C114.711468,330.653043 110.727412,334.648246 109.728236,338.630766 C109.728236,340.634709 110.727412,341.623997 112.713116,343.640623 C124.652636,346.633854 134.606452,335.637534 146.545971,342.625968 C154.501435,347.635826 150.530027,360.610723 161.470371,363.578588 C156.487139,365.582531 150.530027,368.588445 148.544323,374.549541 C147.545147,380.548687 147.545147,389.541064 151.516555,394.512872 C160.471195,404.494538 179.37965,394.512872 183.363706,410.468317 C183.363706,413.461548 183.363706,416.467463 180.378826,418.471406 C180.402112,422.127024 178.516626,425.528469 175.408242,427.438417 L172.423362,428.427705 C173.422538,426.449128 174.421714,424.445185 173.422538,422.453925 C172.644711,420.673211 171.226876,419.25141 169.45113,418.471406 C169.45113,420.449982 168.451954,423.455897 167.465426,425.45984 C165.467074,428.427705 162.482195,428.427705 159.509962,429.44236 C161.495666,426.449128 161.495666,424.432502 160.509138,421.439271 C160.509138,420.449982 159.509962,418.471406 158.510787,418.471406 C156.525083,422.453925 152.541027,426.449128 147.570443,427.438417 C148.569619,425.45984 149.556147,423.455897 148.569619,420.449982 C148.569619,416.467463 142.599859,417.456751 141.600683,413.461548 C137.616627,407.462402 131.646867,403.479883 124.677932,404.494538 C128.661987,398.495392 134.631747,392.508929 131.646867,384.531207 C130.647691,380.548687 126.676283,376.553484 122.692228,375.564196 L116.722468,375.564196 C114.736764,369.56505 110.752708,362.589299 104.782948,361.587328 C103.783772,361.587328 103.783772,360.598039 102.797244,361.587328 C108.767004,369.56505 109.76618,383.529235 104.782948,393.523584 C100.81154,405.483826 86.8736686,408.48974 79.9047328,418.471406 C112.738412,416.467463 138.615803,430.431648 164.480546,443.419228 C169.463778,445.397804 175.433538,447.401747 181.39065,448.403719 C182.389826,445.410488 181.39065,442.404573 184.37553,441.415285 C194.316698,438.422053 206.256217,441.415285 214.224329,448.403719 C218.208385,451.39695 216.222681,457.396096 217.209209,461.378616 C221.180617,463.357192 226.163849,463.357192 231.14708,465.361135 C250.055536,467.339712 271.948871,467.339712 289.858151,463.357192 C290.844679,462.367904 292.84303,462.367904 293.829559,461.378616 C293.829559,457.396096 292.84303,453.375527 294.828734,450.407662 C303.783374,442.404573 315.722894,438.422053 326.675885,441.415285 C329.648118,443.419228 328.661589,445.397804 328.661589,448.403719 C346.570869,446.399776 360.496093,435.428822 376.419668,429.455043 C393.329772,422.466609 411.239051,417.469434 431.146682,418.484089 C423.191219,408.502424 408.254171,404.507221 404.282763,390.543036 C401.297883,381.550659 402.297059,369.590417 408.254171,361.612694 C404.072847,361.52969 400.211837,363.849822 398.313003,367.586474 C396.327299,370.579705 395.328123,373.585619 394.328948,375.589562 C389.358364,375.589562 383.388604,376.578851 380.391076,381.563342 C377.406196,385.545861 377.406196,392.534296 380.391076,397.544153 L385.374308,404.532587 C378.405372,403.517932 372.435612,408.515107 368.464204,414.488886 C366.4785,418.496772 360.50874,417.482117 361.495269,422.491975 C361.495269,424.470552 361.495269,425.485206 363.480973,426.474495 C360.496093,426.474495 357.511213,425.485206 355.525509,422.491975 C353.527157,421.47732 353.527157,418.509455 351.541453,418.509455 C348.556573,420.488032 349.555749,424.483235 350.542277,427.476466 L350.542277,428.465754 C348.556573,429.480409 346.558221,428.465754 344.572517,427.476466 C342.7077,424.85304 341.668172,421.73015 341.587637,418.509455 C339.601933,418.509455 338.602757,419.498744 337.603581,421.47732 C336.604405,422.491975 336.604405,424.470552 336.604405,426.487178 L337.603581,428.465754 C334.618701,427.476466 330.647293,424.483235 329.648118,421.47732 L329.648118,418.509455 C327.662414,416.505512 326.675885,412.51031 327.662414,409.517078 C332.645645,391.55769 360.496093,407.513135 362.494444,385.558545 C363.480973,378.57011 362.494444,371.581676 355.525509,366.609868 C353.527157,365.62058 351.541453,364.631292 348.556573,363.616637 C359.496917,360.648772 355.525509,346.671904 366.465852,341.67473 C377.406196,336.690239 387.360012,347.673875 398.313003,342.664018 C401.285235,341.67473 401.285235,339.696153 401.285235,336.690239 C394.328948,326.708573 382.389428,325.719285 372.435612,319.720139 C365.466677,315.737619 358.497741,312.731705 352.540629,306.745242 C350.554925,307.759897 349.555749,309.738474 349.555749,310.753128 C349.555749,313.720993 351.541453,316.726908 352.540629,320.709427 C354.526333,322.71337 353.539805,325.719285 351.541453,325.719285 C350.542277,327.697861 348.556573,328.712516 346.558221,329.701804 C347.557397,328.712516 347.557397,327.697861 347.557397,326.708573 C345.559045,325.719285 345.559045,323.715342 346.558221,321.724082 C347.557397,320.709427 346.558221,319.720139 346.558221,318.730851 L346.558221,317.741562 C344.59405,324.493931 341.571413,330.890053 337.603581,336.690239 C337.603581,338.668815 337.603581,340.672758 335.617877,341.67473 C333.632173,342.676701 331.633822,342.664018 329.648118,342.664018 C327.662414,340.685441 323.678358,341.67473 321.692654,338.681498 C323.678358,338.681498 325.664062,338.681498 326.675885,337.69221 C326.675885,335.688267 328.661589,334.698979 329.648118,333.70969 C330.647293,332.720402 331.633822,333.70969 332.632997,332.720402 C335.617877,328.737882 337.603581,324.717313 338.602757,320.734794 L337.603581,320.734794 C334.618701,323.728025 330.647293,324.717313 326.663238,327.723228 C324.664886,328.737882 322.679182,328.737882 320.68083,326.733939 C319.694302,327.723228 316.709422,326.733939 315.710246,324.729996 C316.709422,324.729996 318.695126,325.744651 319.694302,323.740708 C319.694302,322.75142 320.68083,320.747477 321.680006,319.758189 C323.66571,318.7689 325.651414,319.758189 326.663238,320.747477 C327.649766,320.747477 329.63547,320.747477 330.634646,318.7689 C332.62035,317.779612 335.60523,314.786381 337.590934,312.769754 C334.606054,310.791178 331.621174,315.762986 328.636294,312.769754 L327.637118,310.791178 C325.545759,310.81677 323.618311,309.659027 322.653886,307.797946 L322.653886,306.783292 C323.653062,306.783292 325.638766,307.797946 327.637118,307.797946 C328.636294,305.794004 329.622822,305.794004 331.608526,305.794004 C332.607702,305.794004 334.593406,305.794004 335.592582,306.783292 C338.577462,306.783292 341.562342,308.787235 343.548046,305.794004 L347.532101,301.811484 C340.563166,293.833761 336.57911,282.862808 338.577462,271.891854 C344.547222,271.891854 349.530453,271.891854 355.500213,270.877199 C354.501037,278.880288 354.501037,287.847299 353.501861,295.825021 C353.501861,295.825021 366.440557,292.857156 382.364132,285.868722 C383.363308,297.828964 389.333068,307.81063 393.304476,317.804978 C399.274236,311.805832 406.230524,307.823313 412.212931,300.834879 C424.152451,313.784409 437.091147,327.761277 442.061731,344.731377 C444.060082,354.713042 444.060082,366.673284 455.000426,371.657775 C456.98613,372.67243 458.984482,372.67243 460.970186,372.67243 C462.95589,372.67243 463.955066,370.668487 463.955066,369.679199 C464.954242,360.712188 458.984482,354.713042 455.999602,346.73532 C452.028194,339.746886 451.029018,327.761277 455.999602,321.787498 C462.968538,312.795121 476.893761,319.783555 483.862697,311.805832 C484.861873,309.801889 485.861049,307.823313 486.847577,305.806687 C487.846753,309.789206 485.848401,313.784409 485.848401,317.792295 C487.834105,316.77764 490.818985,315.788352 492.817337,314.799064 L498.787097,308.799918 C493.803865,319.770872 495.802217,335.726317 480.877817,338.719548 C476.893761,338.719548 472.922353,338.719548 468.938298,337.73026 C466.952594,337.73026 465.966066,338.719548 464.96689,339.734203 L464.96689,342.702068 C468.938298,354.687676 480.890465,366.660601 472.922353,379.635498 C468.938298,384.619989 462.968538,385.609277 457.997954,384.619989 C453.02737,382.641412 449.043314,379.635498 445.071906,375.652978 L444.07273,378.620843 C443.073554,393.612366 445.071906,411.571754 458.99713,419.549476 C459.983658,419.549476 461.969362,420.538765 462.968538,420.538765 L460.982834,422.542708 L460.982834,423.531996 C467.95177,424.521284 475.907233,424.521284 482.863521,423.531996 L483.862697,467.428494 C472.922353,469.432437 460.982834,467.428494 451.029018,465.449917 C443.060907,470.434409 440.076027,479.426786 432.120563,482.394651 C430.122211,483.409305 430.122211,485.387882 431.121387,487.404508 C431.121387,488.393796 432.120563,489.383085 433.107091,490.397739 C429.135683,490.397739 425.151627,487.404508 424.152451,484.398594 C423.153275,483.409305 423.153275,482.394651 423.153275,480.416074 C420.168395,481.405362 419.181867,484.398594 419.181867,487.404508 L419.181867,489.383085 C415.197811,488.393796 412.212931,483.409305 412.212931,479.426786 C410.227227,479.426786 408.228876,482.394651 408.228876,484.411277 L407.2297,486.41522 C404.24482,482.407334 403.258292,472.438352 406.230524,466.451889 L408.216228,464.473312 C402.246468,464.473312 397.275884,466.451889 392.292652,467.441177 C365.428733,474.429611 343.548046,498.375462 313.699246,491.399711 L313.699246,480.428757 C310.714367,479.439469 308.716015,481.418046 306.730311,482.407334 L306.730311,499.377433 C296.776495,508.36981 282.851271,508.36981 270.911752,510.348387 L240.987066,510.348387 C228.33927,509.460564 216.336511,507.000027 206.230922,501.381376 L204.245218,500.392088 L204.245218,482.407334 C202.259514,480.428757 200.261162,480.428757 197.276282,479.439469 L197.276282,491.399711 L196.277106,492.388999 C184.337586,494.392942 172.398067,491.399711 161.457723,487.404508 L129.610572,471.423697 C121.655108,468.455832 112.700469,465.449917 102.746653,464.460629 C107.729885,469.44512 107.729885,479.426786 103.745829,485.387882 L103.745829,486.402537 C102.746653,483.409305 101.760125,480.403391 98.7752448,478.399448 C97.7760689,481.392679 97.7760689,484.398594 95.7903649,486.402537 C94.791189,487.391825 93.8046609,488.381113 91.8189569,489.370402 C91.8189569,486.402537 91.8189569,482.381967 88.834077,480.403391 C87.8475489,484.38591 83.8508453,489.370402 78.8929091,490.385056 L77.8937332,490.385056 C79.8794372,488.381113 80.8786132,485.375199 79.8794372,483.396622 C71.9239734,479.414103 67.9399176,469.419754 59.9844538,465.437234 C50.0306381,467.415811 39.0902943,469.419754 28.1373028,467.415811 L28.1373028,423.519313 C35.1062385,424.508601 43.0617024,424.508601 50.0306381,422.530024 L48.0322863,420.526082 C56.0003979,419.536793 61.9701578,411.559071 64.9550377,404.570637 C67.9399176,395.57826 67.9399176,385.596594 65.9542136,375.640295 L59.9844538,381.614075 C55.001222,384.607306 47.058406,385.596594 41.0759984,382.628729 C37.0645726,379.62491 35.1269697,374.579951 36.0927666,369.653832 C37.0919425,359.672167 43.0617024,351.694445 47.0457582,341.712779 C47.0457582,339.734203 46.0465823,338.719548 45.0600542,337.73026 C36.1054144,338.719548 27.1381269,339.734203 21.1683671,332.745768 C15.1986072,325.757334 16.1977831,315.775669 13.2129032,308.787235 C16.1977831,313.771726 21.1683671,315.775669 25.1524229,317.779612 C25.1524229,313.771726 23.1667189,309.776523 24.153247,305.794004 C26.138951,309.776523 30.1230068,313.771726 34.1070626,314.786381 C42.0625265,316.764957 51.0171662,314.786381 56.0003979,322.764103 C64.9550377,338.719548 49.0314622,351.694445 47.0457582,366.660601 C47.0457582,368.664544 47.0457582,369.653832 48.0322863,371.645092 C50.0306381,372.659747 52.0163421,373.649035 54.0146939,372.659747 C70.9247975,367.649889 64.9550377,347.711925 71.9239734,335.726317 C78.8929091,323.766075 88.834077,311.793149 98.7878926,300.822196 C104.757652,306.795975 110.727412,311.793149 117.6837,317.792295 C121.667756,307.81063 127.637516,297.828964 128.636692,285.856039 C137.591332,289.838559 147.545147,292.844473 156.499787,295.812338 C156.499787,287.834616 156.499787,278.867605 155.513259,270.864516 C160.483843,271.828438 166.453603,270.813783 172.423362,271.828438 Z M76.9072051,425.485206 C73.9223252,431.458986 74.9215011,439.436708 75.9080292,446.412459 C76.9072051,450.420345 79.8794372,455.404836 83.8634931,456.394124 C102.771948,456.394124 120.681228,460.376644 135.605628,467.365078 C153.514907,475.342801 169.438482,488.317697 191.331818,486.339121 L191.331818,454.402865 C181.378002,455.392153 171.424186,453.38821 162.469547,449.393007 C135.605628,435.441505 109.740884,421.47732 76.9072051,425.485206 Z M381.364956,433.462929 L349.530453,448.429085 C340.575814,452.411605 330.621998,455.417519 319.681654,454.428231 L319.681654,486.364487 C328.636294,487.353775 336.591758,485.349832 344.547222,482.356601 L375.395197,467.390445 C388.321244,462.405953 401.25994,458.423434 415.185164,457.434146 C419.169219,456.419491 425.138979,458.423434 429.123035,455.430203 C432.847601,453.516074 435.162871,449.644854 435.092795,445.448537 C436.091971,439.449391 437.091147,431.471669 434.106267,425.510573 C416.134718,423.484024 397.94758,426.226288 381.364956,433.462929 Z M54.0146939,428.465754 C47.0457582,429.480409 41.0759984,430.469697 34.1070626,430.469697 L34.1070626,462.405953 C39.0902943,462.405953 45.0600542,462.405953 51.0171662,460.40201 C56.0003979,452.424288 57.9861019,441.453334 56.0003979,431.471669 L54.0146939,428.465754 Z M456.98613,428.465754 C452.015546,438.44742 454.00125,452.424288 459.97101,461.416665 C465.953418,462.405953 471.91053,462.405953 477.892937,462.405953 L477.892937,430.469697 C469.924826,430.469697 463.955066,429.480409 456.98613,428.465754 Z M210.240273,465.399185 L210.240273,497.335441 C212.225977,499.314017 216.210033,500.328672 219.194913,501.31796 C237.11684,505.30048 257.998352,506.302452 276.906807,503.296537 C284.862271,502.307249 293.816911,501.31796 300.785847,496.308103 L300.785847,465.386502 C294.816087,468.379733 287.859799,469.369021 280.890863,470.370993 C257.985704,473.376907 231.121785,473.376907 210.240273,465.399185 Z" id="Shape"></path>
            </g>
        </g>
    </g>
</svg>