<svg width="160" height="33" viewBox="0 0 160 33" fill="none" xmlns="http://www.w3.org/2000/svg">
    <g clip-path="url(#clip0_30_9324)">
        <path d="M66.146 7.15479C60.7545 7.15479 56.3849 11.5255 56.3849 16.9164C56.3849 22.3073 60.7545 26.677 66.146 26.677C71.5368 26.677 75.9065 22.3073 75.9065 16.9164C75.9065 11.5255 71.5374 7.15479 66.146 7.15479ZM66.146 22.6785C62.8209 22.6785 60.666 20.0991 60.666 16.9164C60.666 13.7343 62.8459 11.1538 66.146 11.1538C69.445 11.1538 71.626 13.7343 71.626 16.9164C71.626 20.0991 69.4705 22.6785 66.146 22.6785ZM40.697 26.2384H44.746V18.7366H52.9326V14.8854H44.746V11.4092H54.5897V7.57816H40.697V26.2384ZM150.04 22.4176V18.7366H158.461V14.8854H150.04V11.4092H159.884V7.57816H145.991V26.2389H159.982V22.4182H150.04V22.4176ZM117.007 26.2384H121.056V7.57817H117.007V26.2384ZM133.549 18.0958L128.546 7.57762H124.049L133.524 26.4878L142.998 7.57762H138.568L133.549 18.0958ZM97.0418 11.4092H103.051V26.2389H107.084V11.4092H113.093V7.57816H97.0423V11.4092H97.0418ZM94.4298 13.1571C94.4298 10.076 91.9319 7.57762 88.8497 7.57762H79.2599V26.2384H83.3094V18.7366H84.8366L90.084 26.2389H95.0581L89.5498 18.6915C92.3009 18.3474 94.4298 16.0012 94.4298 13.1571ZM83.3094 14.8854V11.4092H88.5872C89.5508 11.4092 90.3319 12.1935 90.3319 13.1571C90.3319 14.1207 89.5508 14.8854 88.5872 14.8854H83.3094Z" fill="black"/>
        <path d="M19.2139 16.3549L9.90767 21.7279V26.6394L19.2139 21.2654V16.3549ZM15.7958 0.942627C7.08206 0.942627 0.0183105 8.00637 0.0183105 16.7191C0.0183105 21.667 2.29608 26.0829 5.86029 28.9764L9.90821 26.6394C6.52824 24.6285 4.26297 20.9393 4.26297 16.7191C4.26297 10.3504 9.42668 5.18675 15.7964 5.18675C17.947 5.18675 19.9584 5.77643 21.6818 6.80146L9.90767 13.5989V18.5099L21.6829 11.7108V6.80254C25.0629 8.81346 27.3287 12.5016 27.3287 16.7191C27.3287 23.0899 22.1656 28.2536 15.7953 28.2536C13.6442 28.2536 11.6311 27.6644 9.90767 26.6394V31.3613C11.7273 32.0939 13.7143 32.4972 15.7953 32.4972C24.5096 32.4972 31.5728 25.4339 31.5728 16.7191C31.5734 8.00583 24.5096 0.942627 15.7958 0.942627Z" fill="#64BE49"/>
    </g>
    <defs>
        <clipPath id="clip0_30_9324">
            <rect width="160" height="31.5545" fill="white" transform="translate(0 0.942627)"/>
        </clipPath>
    </defs>
</svg>
