<svg width="450" height="159" viewBox="0 0 450 159" fill="none" xmlns="http://www.w3.org/2000/svg">
    <path fill-rule="evenodd" clip-rule="evenodd" d="M0 77.8754C0 114.681 7.43567 158.73 64.2369 158.73C108.793 158.73 203.171 158.73 203.171 158.73V60.1338H94.3713V100.908H161.215V119.947C161.215 119.947 92.4 119.947 73.387 119.947C40.4146 119.947 45.2176 87.9566 45.2176 78.5496C45.2176 55.1125 49.5839 42.3923 71.4286 42.3923H203.164V0H72.09C20.3293 0 0 30.5581 0 77.8754Z" fill="#215094"/>
    <path fill-rule="evenodd" clip-rule="evenodd" d="M376.915 0H245.859V42.3923V158.737C245.859 158.737 340.231 158.737 384.793 158.737C438.095 158.737 449.004 125.199 449.004 77.8818C449.004 30.5646 428.688 0 376.915 0ZM375.598 119.94C356.585 119.94 287.783 119.94 287.783 119.94V42.3858H377.563C402.034 42.3858 403.774 57.7388 403.774 78.5432C403.781 97.5947 404.217 119.94 375.598 119.94Z" fill="#215094"/>
</svg>
