<?xml version="1.0" encoding="UTF-8"?>
<svg width="512px" height="512px" viewBox="0 0 512 512" version="1.1" xmlns="http://www.w3.org/2000/svg" xmlns:xlink="http://www.w3.org/1999/xlink">
    <!-- Generator: Sketch 48.1 (47250) - http://www.bohemiancoding.com/sketch -->
    <title>#GE</title>
    <desc>Created with Sketch.</desc>
    <defs></defs>
    <g id="Компании-BIG" stroke="none" stroke-width="1" fill="none" fill-rule="evenodd">
        <g id="#GE" fill-rule="nonzero">
            <g id="general-electric">
                <g id="Group" transform="translate(12.800000, 12.800000)" fill="#FEFFFE">
                    <path d="M225.280948,0.962700422 C271.831577,-2.84151899 319.436832,7.49974684 360.322528,30.0921519 C430.04239,67.7616878 479.444069,141.237468 486.459417,220.536034 C491.738738,269.400844 481.333412,319.754734 457.623704,362.73465 C433.898509,406.026667 396.77756,441.879494 352.594805,463.804219 C317.920711,481.334684 278.894933,490.185316 240.056541,489.329755 C186.860689,488.87946 134.191376,469.796253 92.5483931,436.676253 C56.7112691,408.169451 28.9905778,369.537215 13.8138864,326.231224 C-9.84936296,259.634093 -2.88047407,182.649114 33.2183704,121.812658 C57.4546173,79.6401688 94.8233481,45.324557 138.526025,24.2072574 C165.689205,11.1797468 195.237294,3.12101266 225.280948,0.962700422 Z M182.151269,24.2072574 C140.167585,35.5733333 100.971457,60.3395781 76.0692938,96.518481 C59.2975012,120.306498 49.6494617,148.473249 44.6938074,176.981603 C42.3398716,194.776034 41.3642272,214.185316 50.2379457,230.442532 C54.3418469,238.516793 61.5120593,244.619072 65.042963,253.002329 C68.403516,260.441519 66.0186074,270.503291 58.7864494,274.740726 C52.0033975,279.61789 42.4173037,277.753046 36.2846815,272.675578 C27.4419358,265.720844 23.6942222,254.370295 21.804879,243.656371 C18.0726519,219.526751 22.9199012,195.117637 29.0525235,171.826498 C24.2517333,173.829536 24.9486222,180.490802 23.1367111,184.714262 C12.6524049,225.473755 12.729837,269.043713 24.2207605,309.585823 C35.0767407,348.311224 57.2378074,384.274295 89.2327506,408.928743 C113.32962,428.044557 142.862222,438.913755 172.751012,444.79865 C190.777205,447.842025 210.383012,449.053165 227.278696,440.823629 C235.656849,436.615696 241.928849,429.285198 250.135103,424.828827 C257.043595,421.228017 266.041205,422.406549 271.444417,428.120641 C277.686993,434.364219 277.795398,445.061063 272.714303,452.048405 C267.233659,459.532624 258.404851,463.693975 249.687546,466.100726 C230.453412,470.929755 210.335004,468.755916 191.086933,465.246717 C184.040612,464.128743 177.365965,460.992203 170.16478,461.009283 C174.020899,464.82903 179.673442,465.496709 184.644583,466.987342 C222.41596,476.319325 262.510301,476.381435 300.342076,467.313418 C343.875951,456.816878 385.069827,432.252489 410.9306,395.033249 C427.686906,371.928439 436.916812,344.320675 442.617363,316.588692 C445.651153,296.108017 447.184308,272.955072 434.779686,255.098532 C429.003251,246.573975 419.725337,238.375494 421.585256,226.99389 C422.375064,216.357603 434.253148,209.634228 444.008043,213.096844 C456.751818,217.242667 462.715639,230.937857 465.318906,243.080304 C470.273011,268.234734 465.349879,294.089451 458.720142,318.45043 C460.454621,318.186464 461.523184,317.208236 461.924282,315.531274 C473.354809,279.756084 475.335522,241.17043 468.738307,204.246211 C461.165448,160.971274 441.218939,118.76773 408.03309,89.3743122 C388.117555,71.1606414 363.570031,58.3194599 337.614791,51.2234262 C315.997298,44.7795443 292.595769,40.3216203 270.279838,45.8664641 C259.299966,48.2732152 250.766949,55.990346 241.972211,62.4652827 C234.523243,68.2259578 222.5987,68.6141435 215.877594,61.4870549 C209.822404,55.0276456 210.379915,44.3447764 215.598839,37.5437637 C222.535206,28.3825823 234.012192,24.1435949 244.945604,22.1716118 C262.398799,19.5630042 280.239155,21.2710211 297.460053,24.7181097 C304.289564,25.8981941 310.668421,29.0502616 317.623372,29.5626667 C316.183135,28.3515274 314.773871,27.0006414 312.946473,26.4261266 C270.826509,12.7945992 224.738923,12.2821941 182.151269,24.2072574 Z" id="Shape"></path>
                    <path d="M187.912217,110.772658 C197.32796,105.803882 209.360909,104.313249 218.962489,109.561519 C226.643753,113.971308 229.648119,123.520675 228.889284,131.952068 C227.526479,148.690633 219.458054,164.124895 209.314449,177.198987 C198.350064,190.490464 184.83042,202.260253 168.631625,208.564388 C169.870538,213.750549 173.773116,219.276759 179.626983,219.247257 C189.878993,219.619916 198.768198,213.129451 206.139733,206.670042 C211.436089,202.632911 211.714844,195.567932 214.192672,189.869367 C217.801007,180.956624 222.710202,171.45384 231.661353,166.950886 C235.858173,164.714937 242.269551,164.280169 245.165511,168.767595 C248.324741,174.823291 245.459753,181.764051 242.424415,187.245232 C238.274054,195.195274 231.707812,201.421772 226.488889,208.579916 C224.522114,215.225654 224.165926,222.212996 224.042035,229.107173 C231.289679,225.892996 237.793975,221.312405 244.623486,217.337384 C256.50157,209.635781 268.82876,202.46211 279.855091,193.549367 C281.123429,189.24827 279.390499,184.558987 279.591822,180.087089 C278.91042,158.441857 286.374874,136.253165 301.086973,120.244388 C310.239447,110.570802 324.023909,103.754262 337.495546,107.154768 C345.581005,108.629873 351.914951,115.213502 354.189906,122.961688 C357.07038,134.65384 353.074884,146.873924 346.940713,156.827004 C336.380523,173.394768 321.017995,186.04962 305.46963,197.69519 C307.54481,202.88135 310.502716,208.766245 316.091765,210.691646 C324.098244,209.15443 332.245649,206.965063 340.437965,208.595443 C345.920158,209.744473 352.501886,211.39038 355.181037,216.871561 C357.658864,222.212996 352.921568,227.67865 348.057284,229.340084 C337.712356,232.725063 326.763457,230.81519 316.201719,230.007764 C303.628294,233.020084 292.693333,241.358312 284.857205,251.514802 C272.686428,267.554633 268.923228,288.780624 271.569857,308.453873 C274.095692,324.773198 282.270973,341.216743 296.643919,350.082903 C312.825679,360.470751 336.149776,358.267409 349.561015,344.244591 C362.21342,331.153418 366.208917,310.315612 359.161047,293.499409 C356.172168,286.108354 349.745304,279.805772 341.693914,278.548051 C332.293657,276.419241 321.1264,282.552574 319.765144,292.567764 C318.40079,300.269367 323.791613,306.651139 328.343072,312.163376 C331.860038,315.813873 332.278171,322.551224 327.911,325.703291 C321.143435,330.345992 311.758665,327.086785 306.369391,321.697215 C293.066556,308.531511 293.484689,284.759021 306.230013,271.31227 C322.427259,252.679359 354.685472,252.322228 371.257489,270.675646 C388.972405,290.348895 391.202449,321.883544 377.575949,344.43092 C367.353363,362.130633 348.926072,374.911257 328.669835,377.799359 C306.63266,381.074093 282.828484,374.072776 267.342064,357.689789 C237.050627,326.759156 237.530706,272.368135 266.428365,240.676658 C274.15454,231.406785 284.36164,224.807629 294.598163,218.689823 C292.383605,215.69303 290.060642,212.773873 287.705158,209.870245 C267.820595,224.326278 247.023881,237.462481 225.621649,249.527291 C221.997827,250.86265 222.648257,255.241384 222.121719,258.331342 C220.216889,284.743494 217.971358,312.272068 204.869847,335.875308 C196.011615,352.550211 182.615862,367.830751 164.651615,374.693873 C150.404109,380.08189 133.167723,380.561688 120.097185,371.881857 C107.584158,364.009451 101.900642,348.297249 102.8608,333.979409 C104.843062,315.765738 115.172504,299.322194 128.304988,286.963916 C146.33118,270.456709 168.182519,259.045603 189.63121,247.710582 C193.99838,245.272776 198.752711,243.425013 202.655289,240.272945 C204.095526,236.328979 204.312336,232.088439 204.714983,227.959696 C193.595733,234.698599 179.549551,240.117671 166.757768,234.947038 C156.304435,230.909907 149.800138,220.87919 146.470558,210.600034 C136.605709,209.544169 126.678914,205.600203 120.391427,197.619105 C109.427042,184.436321 108.730153,164.390414 116.6592,149.530667 C119.307378,144.173705 125.254163,141.301131 131.077057,141.658262 C132.207565,143.956321 134.329205,146.238852 133.554884,149.033789 C131.820405,158.676321 128.444365,168.691511 131.634568,178.458262 C133.214183,185.135055 138.727348,190.460962 145.572346,191.37708 C147.028069,175.57016 150.09438,159.701131 157.512375,145.493536 C164.496751,131.672574 174.036385,118.272405 187.912217,110.772658 Z M197.188583,126.237975 C187.834785,132.619747 182.135783,142.821266 177.211101,152.743291 C171.914746,163.938565 167.640494,175.972321 167.160415,188.456371 C170.737778,186.872574 174.113817,184.807426 177.009778,182.152236 C188.717511,171.93519 198.954035,159.761688 205.814519,145.724895 C208.2304,140.647426 210.321067,134.886751 208.942775,129.203713 C207.161837,124.592068 200.951783,123.380928 197.188583,126.237975 Z M318.245926,131.113586 C307.310965,143.877131 301.305331,160.802025 301.48962,177.618228 C313.818359,167.416709 325.185391,155.460591 332.84962,141.284051 C335.048691,136.750042 337.961687,129.34346 332.385027,126.036118 C327.305481,123.411983 321.575506,127.262785 318.245926,131.113586 Z M152.463802,294.229198 C141.717776,303.901232 131.231921,315.175696 127.330892,329.474903 C125.457035,337.145451 125.023415,346.836118 131.45028,352.548658 C138.233331,358.759629 148.454368,356.911865 156.290497,353.961654 C171.405242,348.123342 180.526744,333.449924 186.674852,319.195747 C193.845065,301.494481 198.289667,282.644186 200.101578,263.623089 C182.941077,271.574684 166.912632,282.041722 152.463802,294.229198 Z" id="Shape"></path>
                </g>
                <g id="Group" fill="#3A73B8">
                    <path d="M237.453535,1.05450067 C287.957462,-2.80683266 339.497764,9.02528514 383.334864,34.4418527 C418.40145,54.7099759 448.719275,83.3055529 470.667215,117.437258 C497.923867,159.167572 512.340302,209.116787 511.921112,258.988466 C511.597825,311.108712 495.046767,363.04287 464.806284,405.488073 C434.132689,449.015689 389.537644,482.542608 339.203867,499.693751 C294.502091,515.201114 245.512508,517.63577 199.386103,507.278402 C151.016798,496.46977 106.08145,470.960159 71.7109366,435.184673 C35.283142,397.360664 10.6267069,348.124787 3.09365559,296.035556 C-4.31564955,249.637526 1.80978852,201.239047 19.8922054,157.94249 C36.675287,117.669869 64.0077341,81.9719197 98.223565,55.0356305 C137.88423,23.679743 187.042417,4.55916466 237.453535,1.05450067 Z M237.391662,13.3673467 C207.383202,15.5228701 177.869728,23.5711914 150.736822,36.5818688 C107.085341,57.6718822 69.7603867,91.9431539 45.5525317,134.061151 C9.49752266,194.818999 2.53679758,271.704503 26.1723263,338.215582 C41.3312387,381.467168 69.0194562,420.049486 104.813051,448.519454 C146.407251,481.596659 199.014864,500.655207 252.148399,501.104921 C290.94284,501.959377 329.9229,493.12018 364.554828,475.612367 C408.685825,453.715971 445.763287,417.90947 469.460689,374.673392 C493.144169,331.749012 503.535758,281.460185 498.262622,232.658515 C491.255492,153.462413 441.910139,80.0815722 372.273498,42.46071 C331.438792,19.8959465 283.887758,9.56804284 237.391662,13.3673467 Z" id="Shape"></path>
                    <path d="M194.312508,36.5818688 C236.850272,24.6722142 282.883867,25.1839572 324.957583,38.7994217 C326.78284,39.3731941 328.190453,40.7223347 329.629003,41.931909 C322.683746,41.420166 316.312363,38.2721714 309.489305,37.0936118 C292.28858,33.6509772 274.467577,31.9451673 257.036375,34.5504043 C246.11577,36.5198394 234.653776,40.7533494 227.723988,49.9026934 C222.511178,56.6949183 221.95432,67.3639839 228.002417,73.8150469 C234.71565,80.9329264 246.626224,80.5452423 254.066465,74.7920107 C262.852447,68.3254404 271.373921,60.6182811 282.340931,58.2146399 C304.630719,52.6785114 328.004834,57.1291245 349.597003,63.5646801 C375.521837,70.6515448 400.039057,83.4761339 419.93281,101.66627 C453.081329,131.021708 473.004471,173.17072 480.566912,216.38974 C487.156399,253.266249 485.176459,291.802046 473.76087,327.531009 C473.358695,329.205805 472.292931,330.182768 470.560483,330.446394 C477.180906,306.116892 482.099819,280.295582 477.151517,255.173655 C474.551299,243.046897 468.596012,229.369403 455.865619,225.228937 C446.120604,221.770795 434.256435,228.485483 433.4691,239.108027 C431.61136,250.474924 440.876858,258.662811 446.648073,267.176353 C459.038163,285.009821 457.506804,308.131299 454.476568,328.587061 C448.782695,356.28166 439.563601,383.855302 422.826924,406.930258 C396.996447,444.101406 355.850828,468.634054 312.367952,479.117031 C274.578949,488.173331 234.533124,488.111302 196.805994,478.791377 C191.840677,477.30267 186.194755,476.635853 182.343154,472.821042 C189.535903,472.803984 196.202731,475.938022 203.240798,477.053001 C222.467867,480.557665 242.56116,482.728696 261.772761,477.905906 C270.479855,475.502265 279.29832,471.347843 284.772544,463.871743 C289.846139,456.89343 289.739408,446.208857 283.504145,439.974897 C278.107263,434.268187 269.120193,433.091179 262.219795,436.687336 C254.023154,441.137949 247.756955,448.458975 239.390163,452.66147 C222.514272,460.880373 202.931432,459.670798 184.926356,456.631355 C155.07258,450.754065 125.574574,439.898911 101.505934,420.807797 C69.5453776,396.182104 47.4102719,360.267052 36.5670091,321.591689 C25.0895468,281.101965 25.0122054,237.588305 35.4842296,196.881478 C37.2940181,192.663475 36.5979456,186.010817 41.3931118,184.010367 C35.2676737,207.271411 30.4261027,231.648985 34.1539577,255.747427 C36.0410876,266.447507 39.7844109,277.78339 48.6167976,284.729137 C54.7422356,289.801596 64.3170997,291.662479 71.0922054,286.791617 C78.3158912,282.559657 80.698006,272.510886 77.3413897,265.081309 C73.8146224,256.708884 66.6528097,250.612939 62.553716,242.550661 C53.6903927,226.314452 54.6648943,206.930249 57.0160725,189.158811 C61.9659215,160.687293 71.6026586,132.556937 88.3548036,108.799657 C113.227795,72.667502 152.378006,47.9332584 194.312508,36.5818688 Z M200.066707,123.035416 C186.20713,130.525473 176.678671,143.908327 169.702477,157.70988 C162.293172,171.899116 159.230453,187.747641 157.776435,203.534137 C150.939456,202.619202 145.432749,197.300177 143.854985,190.632011 C140.66852,180.87788 144.040604,170.875631 145.773051,161.245558 C146.546465,158.454233 144.427311,156.174651 143.298127,153.879561 C137.482054,153.522892 131.542236,156.391754 128.89716,161.741794 C120.977402,176.58234 121.673474,196.602345 132.625015,209.768096 C138.906683,217.738881 148.820302,221.677751 158.673595,222.732252 C161.999275,232.998126 168.495952,243.015882 178.937039,247.047797 C191.713837,252.211748 205.743565,246.799679 216.849789,240.069483 C216.447613,244.194442 216.231057,248.427952 214.792508,252.366822 C210.894502,255.514817 206.14574,257.360193 201.783686,259.794849 C180.360121,271.115224 158.534381,282.511584 140.529305,298.997462 C127.412205,311.339772 117.094864,327.762069 115.114924,345.952206 C114.155891,360.251545 119.832749,375.943445 132.331118,383.805678 C145.384798,392.474294 162.602538,391.993566 176.833353,386.614062 C194.776556,379.759807 208.156616,364.499012 217.004471,347.845655 C230.090634,324.272912 232.333535,296.778358 234.236133,270.401885 C234.762054,267.31592 234.112387,262.942843 237.731964,261.60921 C259.109124,249.558439 279.883021,236.44076 299.742743,222.003406 C302.095468,224.903282 304.41571,227.818667 306.627674,230.811588 C296.403142,236.921489 286.208,243.512118 278.490876,252.770013 C249.627069,284.420541 249.147553,338.741282 279.403505,369.631949 C294.871782,385.993767 318.646526,392.987588 340.659432,389.715534 C360.89194,386.831165 379.297644,374.067054 389.508254,356.390212 C403.118792,333.87197 400.89136,302.378067 383.197196,282.730238 C366.644592,264.400535 334.424169,264.757205 318.245897,283.36604 C305.515505,296.795416 305.097861,320.537189 318.385112,333.685882 C323.768073,339.068487 333.141849,342.323483 339.901486,337.686781 C344.263541,334.540337 343.845897,327.810142 340.333051,324.164361 C335.786924,318.659247 330.402417,312.285721 331.765172,304.594069 C333.124834,294.59182 344.279009,288.466412 353.668254,290.592471 C361.710211,291.848568 368.131094,298.143006 371.114924,305.524511 C378.154538,322.318985 374.163722,343.129866 361.526139,356.204123 C348.13061,370.207272 324.833837,372.409317 308.671033,362.034892 C294.314924,353.180187 286.147674,336.75789 283.626344,320.459652 C280.982816,300.811823 284.741607,279.613258 296.898127,263.594153 C304.726622,253.450787 315.647227,245.124884 328.205921,242.114904 C338.755287,242.921287 349.692906,244.828693 360.024169,241.448088 C364.882755,239.7888 369.612955,234.330208 367.139577,228.995676 C364.465112,223.521576 357.891094,221.877796 352.413776,220.730251 C344.231057,219.101978 336.093196,221.288516 328.096097,222.823745 C322.513595,220.900832 319.557607,215.023542 317.486405,209.844082 C333.016556,198.21356 348.361088,185.57506 358.908906,169.028704 C365.035891,159.088484 369.026707,146.88419 366.149607,135.207145 C363.87577,127.468971 357.549245,120.89385 349.474804,119.42065 C336.018949,116.024538 322.250634,122.83227 313.108882,132.493357 C298.414018,148.481448 290.958308,170.641469 291.638912,192.258733 C291.437825,196.724854 293.168725,201.408077 291.901873,205.703617 C280.888459,214.604843 268.57571,221.769244 256.711541,229.460896 C249.89003,233.432332 243.393353,238.005453 236.154199,241.215477 C236.277946,234.330208 236.633716,227.351895 238.598187,220.714744 C243.810997,213.56585 250.369547,207.347397 254.515045,199.407627 C257.546828,193.933528 260.408459,187.001737 257.252931,180.953866 C254.360363,176.472238 247.956495,176.906444 243.764592,179.139504 C234.823927,183.636639 229.920483,193.127145 226.316375,202.028372 C223.84145,207.719574 223.563021,214.775424 218.27287,218.807338 C210.90997,225.258401 202.031178,231.740479 191.791178,231.368302 C185.944169,231.399317 182.046163,225.878696 180.808701,220.699236 C196.98852,214.401696 210.492326,202.647115 221.443867,189.374364 C231.575589,176.317164 239.634562,160.902846 240.99577,144.185908 C241.753716,135.76541 238.75287,126.228382 231.080604,121.824291 C221.490272,116.584353 209.47142,118.07306 200.066707,123.035416 Z" id="Shape"></path>
                    <path d="M209.332205,138.48075 C213.090997,135.627395 219.293776,136.836969 221.072628,141.442656 C222.449305,147.118351 220.361088,152.871582 217.948036,157.94249 C211.095589,171.961146 200.871057,184.118918 189.177039,194.322763 C186.284471,196.974522 182.912387,199.037001 179.339215,200.618752 C179.818731,188.150833 184.087976,176.132627 189.378127,164.951818 C194.297039,155.042613 199.989366,144.854276 209.332205,138.48075 Z M330.247734,143.350062 C333.573414,139.504236 339.296677,135.65841 344.370272,138.279154 C349.940399,141.582222 347.030816,148.979234 344.83432,153.507384 C337.179069,167.665606 325.825353,179.606276 313.511057,189.794613 C313.326985,173.000139 319.325583,156.097114 330.247734,143.350062 Z M164.659819,306.254908 C179.091722,294.081628 195.10139,283.629665 212.240242,275.689896 C210.430453,294.686415 205.991057,313.512353 198.829245,331.190747 C192.688338,345.426506 183.577523,360.080964 168.480483,365.911732 C160.653535,368.85658 150.444471,370.703507 143.669366,364.500562 C137.25003,358.793853 137.683142,349.117258 139.554804,341.456621 C143.45281,327.17434 153.924834,315.915995 164.659819,306.254908 Z" id="Shape"></path>
                </g>
            </g>
        </g>
    </g>
</svg>