<svg width="140" height="40" viewBox="0 0 140 40" fill="none" xmlns="http://www.w3.org/2000/svg">
<g clip-path="url(#clip0_112_5576)">
<path d="M18.1434 0.00891113H18.7981C19.9102 0.206221 20.7622 1.0403 21.3631 1.9551C22.6995 4.08066 23.1927 6.62775 23.2824 9.10308C23.3273 11.9999 22.825 15.0224 21.2017 17.4708C21.3093 16.1614 21.0672 14.852 20.5739 13.6233C19.2824 10.4035 16.8968 7.71295 14.0896 5.72192C14.3945 4.38559 14.843 3.06721 15.6053 1.92819C16.2062 1.0403 17.0313 0.188283 18.1434 0.00891113ZM24.9057 18.7712C27.1479 17.408 29.0672 15.5515 30.5739 13.399C32.3497 13.8206 34.1524 14.4842 35.4528 15.8116C36.1703 16.547 36.5649 17.686 36.1434 18.6816C35.5694 20.0538 34.1972 20.8609 32.8878 21.4349C30.1972 22.547 27.1927 22.7892 24.3228 22.4304C22.3856 22.1614 20.4304 21.6233 18.8161 20.4932C20.9685 20.7174 23.0761 19.8564 24.9057 18.7712Z" fill="#1A97D3"/>
<path d="M6.41257 4.81612C7.59643 4.17935 9.0314 4.43047 10.2601 4.82509C12.5202 5.58742 14.4933 7.0224 16.1614 8.69056C18.0359 10.6367 19.6502 12.9776 20.1794 15.6681C19.2736 14.5381 18.009 13.7668 16.6906 13.2287C13.5695 11.982 10.0987 11.7937 6.82512 12.3587C5.85651 10.7982 5.0314 9.01343 5.09418 7.13899C5.11212 6.21522 5.55158 5.23764 6.41257 4.81612ZM16.7982 19.9282C18.3049 21.7578 20.6458 22.6637 22.9148 23.1569C25.3005 23.6592 27.7668 23.6412 30.1614 23.2287C31.1031 24.8161 31.9552 26.5829 31.8834 28.4663C31.8475 29.4529 31.3363 30.4574 30.4036 30.8699C29.2108 31.3632 27.8655 31.148 26.6906 30.7533C24.3767 29.9731 22.3767 28.5022 20.6727 26.7713C18.861 24.861 17.3094 22.556 16.7982 19.9282Z" fill="#08B1A0"/>
<path d="M23.9283 6.14343C25.4978 5.17482 27.2826 4.35867 29.166 4.43042C30.0628 4.44836 30.9866 4.85195 31.444 5.65015C32.027 6.6367 31.9104 7.85643 31.6593 8.90576C31.2646 10.5201 30.4485 11.9999 29.4799 13.3093C28.2512 14.9775 26.7355 16.4304 25.0225 17.5874C23.6772 18.4663 22.2153 19.1928 20.6189 19.4708C21.7489 18.5829 22.5023 17.3183 23.0494 16.0089C24.296 12.9058 24.5113 9.43491 23.9283 6.14343Z" fill="#2466B1"/>
<path fill-rule="evenodd" clip-rule="evenodd" d="M53.713 6.39451C54.7534 6.14339 55.8116 6.09855 56.861 6.11649C61.8116 6.11649 66.7623 6.11649 71.713 6.11649C71.0583 7.83846 69.9013 9.50662 68.1704 10.2869C66.9955 10.8429 65.6771 10.6815 64.4305 10.6905C65.1838 12.1165 65.7489 13.7039 65.5785 15.3452C65.4708 16.8429 64.9327 18.3048 64 19.4887C62.4305 21.4797 60.0448 22.834 57.5067 23.1479C56.5112 23.2914 55.4977 23.2017 54.5022 23.2645C53.7758 23.7129 52.9417 24.1703 52.574 24.9864C52.9417 25.1658 53.3363 25.2376 53.7399 25.2196C55.7758 25.1927 57.8117 24.816 59.8655 24.8968C61.4439 24.9595 63.0583 25.0582 64.565 25.5694C65.6682 25.9371 66.6726 26.6725 67.2287 27.7129C67.9462 29.0582 67.9193 30.6546 67.6592 32.1165C67.3453 33.8295 66.3677 35.39 65.0314 36.5021C62.6906 38.5649 59.6143 39.7398 56.5112 39.9102H54.5919C52.861 39.7846 51.139 39.3721 49.5874 38.5918C48.6368 38.1434 47.722 37.5156 47.1121 36.6456C46.3318 35.5963 46.0986 34.1613 46.4484 32.8878C46.7444 31.8026 47.5067 30.9147 48.3229 30.1524C49.991 30.7264 51.7847 30.8429 53.5426 30.8429C52.8251 31.5425 52.1794 32.3497 51.7937 33.2824C51.5785 33.7398 51.8565 34.251 52.269 34.4842C52.9238 34.8788 53.713 34.9685 54.4574 35.0403C56.296 35.1299 58.1794 35.0672 59.9103 34.3855C61.0045 33.9461 62.1166 33.1927 62.4753 32.0089C62.6009 31.4528 62.8072 30.7981 62.4395 30.2959C62.0179 29.8474 61.3632 29.7577 60.7713 29.7039C57.2108 29.4528 53.6233 30.1255 50.0807 29.5066C49.0852 29.3362 48.0179 29.0403 47.3184 28.269C46.5202 27.3272 46.5112 25.9371 47.0224 24.8878C47.7399 23.4349 49.0314 22.3855 50.269 21.4169C48.7623 20.3497 47.5067 18.8429 46.9955 17.0313C46.3318 14.6905 46.6726 11.9999 48.1525 10.0178C49.5157 8.22411 51.5067 6.88779 53.713 6.39451ZM55.2377 10.6187C53.6233 11.0044 52.3498 12.4035 51.9462 13.982C51.3273 16.4842 53.6592 19.1658 56.2152 18.9864C58.5022 18.8878 60.3318 16.547 60.009 14.3048C59.8475 13.0761 59.0852 11.9999 58.1255 11.2465C57.3184 10.6456 56.2332 10.4035 55.2377 10.6187ZM72.3856 10.0537C74.3677 7.76671 77.2466 6.23308 80.278 6.09855C82.4933 6.00886 84.8072 6.30483 86.6995 7.48868C88.1704 8.41245 89.2108 9.89227 89.8117 11.4977C90.6637 13.7039 90.852 16.1075 90.8879 18.4663C85.713 18.4663 80.5471 18.4663 75.3901 18.4663C75.5516 20.2779 76.574 21.9909 78.1435 22.9237C79.7668 23.982 81.8206 24.0985 83.6682 23.6591C85.3363 23.2645 87.0762 22.5739 88.8072 23.0851C89.9193 23.3811 90.7264 24.4932 90.7085 25.6322C87.1749 28.6456 82.0717 29.7129 77.6412 28.2241C75.1838 27.39 72.843 25.8474 71.5067 23.5515C70.1794 21.2824 69.9103 18.5649 70.1166 15.9909C70.3049 13.8564 70.9955 11.7219 72.3856 10.0537ZM77.8655 11.3811C76.8789 12.2331 76.4395 13.5066 75.9641 14.6546C78.9178 14.6546 81.8744 14.6546 84.8341 14.6546C84.6906 13.7936 84.4394 12.9326 83.9551 12.1972C83.4439 11.4259 82.6099 10.8698 81.704 10.6815C80.4125 10.3855 78.9327 10.529 77.8655 11.3811ZM122.108 6.72635C124.404 6.39451 126.834 6.6546 128.915 7.7129C130.861 8.69048 132.493 10.269 133.587 12.1434C134.924 14.4214 135.3 17.1748 134.888 19.7667C134.332 23.39 131.776 26.6098 128.43 28.1075C126.135 29.0851 123.498 29.2286 121.067 28.6277C118.771 28.0716 116.762 26.6456 115.3 24.816C112.027 20.816 112.09 14.5111 115.444 10.5918C117.112 8.55595 119.498 7.09407 122.108 6.72635ZM122.96 11.2017C121.525 11.4977 120.287 12.4663 119.444 13.6322C118.215 15.3003 117.919 17.5246 118.377 19.5156C118.753 21.1389 119.776 22.5739 121.139 23.5066C122.341 24.3317 123.91 24.5918 125.318 24.1972C126.762 23.7846 127.937 22.7174 128.709 21.4618C129.659 19.9551 129.901 18.0985 129.605 16.3586C129.282 14.4842 128.126 12.7533 126.484 11.7936C125.435 11.1658 124.161 10.9685 122.96 11.2017ZM135.202 7.69496C135.964 6.83398 137.354 6.67254 138.305 7.28241C138.879 7.63218 139.238 8.26895 139.327 8.90572V9.57837C139.256 10.0537 139.076 10.5021 138.744 10.8519C137.955 11.7577 136.448 11.8654 135.507 11.121C134.466 10.3317 134.305 8.64563 135.202 7.69496ZM136.287 7.50662C135.408 7.8564 134.933 8.92366 135.211 9.81155C135.48 10.7802 136.592 11.399 137.543 11.0761C138.565 10.7802 139.076 9.53353 138.7 8.57389C138.377 7.62321 137.202 7.07613 136.287 7.50662ZM107.157 7.21066C109.04 7.22859 110.915 7.21066 112.807 7.22859C110.332 13.3542 107.883 19.4977 105.408 25.6501C105.121 26.3766 104.852 27.1658 104.224 27.677C103.569 28.2331 102.691 28.3676 101.865 28.4304C101.193 28.4573 100.52 28.4842 99.8655 28.4573C97.0314 21.3721 94.1794 14.3048 91.3542 7.21066C93.2377 7.21066 95.1121 7.22859 96.9865 7.21066C98.6726 11.7577 100.359 16.3138 102.054 20.8609C103.74 16.3138 105.471 11.7577 107.157 7.21066Z" fill="#314D8A"/>
<path fill-rule="evenodd" clip-rule="evenodd" d="M136.108 8.0717C136.646 8.01789 137.283 7.88336 137.758 8.22417C138.126 8.5291 138.009 9.15691 137.561 9.3004C137.91 9.62327 137.919 10.1345 138.072 10.565C137.955 10.565 137.704 10.565 137.587 10.565C137.516 10.3139 137.444 10.0358 137.354 9.77574C137.238 9.46184 136.843 9.55152 136.574 9.50668C136.574 9.85945 136.574 10.2122 136.574 10.565H136.126C136.126 9.73987 136.126 8.90578 136.108 8.0717ZM136.574 8.39457C136.574 8.65167 136.574 8.89981 136.574 9.13897C136.897 9.13897 137.498 9.20175 137.48 8.73538C137.399 8.32283 136.888 8.38561 136.574 8.39457Z" fill="#314D8A"/>
<path d="M2.83404 14.7891C5.11207 13.4439 7.80265 13.0044 10.4125 13.0044C13.1031 13.0492 15.9013 13.5604 18.1704 15.0941C16.7982 14.9326 15.408 15.2555 14.1255 15.7667C10.9775 17.0761 8.34077 19.417 6.39458 22.1793C4.88785 21.8295 3.38113 21.3004 2.15243 20.3497C1.43494 19.8116 0.798168 19.0492 0.672607 18.1434V17.4977C0.843011 16.2869 1.83853 15.408 2.83404 14.7891ZM13.9641 22.8071C14.2601 21.1389 14.8161 19.4977 15.7847 18.0986C15.5336 20.4663 16.565 22.7533 17.8206 24.6995C19.1569 26.7264 20.8968 28.4842 22.8879 29.8564C22.4215 31.7488 21.713 33.7129 20.1793 34.9685C19.3542 35.6681 18.1166 35.8026 17.1928 35.2286C15.8834 34.4394 15.1569 33.0223 14.6278 31.6412C13.6143 28.825 13.4439 25.7309 13.9641 22.8071Z" fill="#4FBA56"/>
<path d="M11.0135 18.6636C12.592 17.4708 14.3946 16.4753 16.3588 16.1075C15.2287 17.0134 14.4395 18.269 13.8924 19.6053C12.6547 22.7174 12.4933 26.1703 13.0314 29.4618C11.3184 30.4753 9.35428 31.399 7.31841 31.1031C6.25114 30.9685 5.35428 30.1075 5.18388 29.0403C4.88792 27.3542 5.51572 25.6591 6.27805 24.1793C7.435 22.0358 9.09419 20.1703 11.0135 18.6636Z" fill="#A4CE48"/>
</g>
<defs>
<clipPath id="clip0_112_5576">
<rect width="138.834" height="40" fill="white" transform="translate(0.583008)"/>
</clipPath>
</defs>
</svg>
