<svg width="60" height="41" viewBox="0 0 60 41" fill="none" xmlns="http://www.w3.org/2000/svg">
    <g clip-path="url(#clip0_30_9330)">
        <path d="M27.9359 33.0366H0.270996V40.2259H27.9359V33.0366Z" fill="#1C3361"/>
        <path d="M8.25865 37.8865C7.83578 37.9873 7.38599 38.0451 6.8225 38.0451C5.92989 38.0451 4.85676 37.6567 4.85676 36.7616C4.85676 35.8665 5.74987 35.4431 6.72226 35.4431C7.57498 35.4431 8.58777 35.6849 8.58777 35.84C8.58777 35.8844 8.57331 35.9143 8.56782 35.9333L8.6875 35.9901L9.35072 34.8971L9.23104 34.8656C9.19663 34.8971 9.15126 34.933 9.08244 34.933C9.00216 34.933 8.67304 34.7913 8.33844 34.716C7.64031 34.5574 7.34559 34.5176 6.66791 34.5176C4.95699 34.5176 3.34082 35.2451 3.34082 36.7441C3.34082 38.2436 4.95699 38.9721 6.66791 38.9721C7.92953 38.9721 9.04255 38.7642 9.96907 38.3498V38.2526H9.91421C9.81448 38.2526 9.79503 38.1868 9.79503 38.112V36.7356C9.79503 36.6434 9.83393 36.6035 9.9551 36.5955V36.4983H6.93769C6.82249 36.4983 6.78759 36.4539 6.7826 36.3482H6.66242V37.508H6.7826C6.78759 37.4068 6.82249 37.3405 6.93769 37.3405H8.25865" fill="white"/>
        <path d="M13.2162 36.1228C12.1092 36.1228 11.1812 36.6195 11.1812 37.5375C11.1812 38.4605 12.1092 38.9527 13.2162 38.9527C14.3232 38.9527 15.2428 38.4605 15.2428 37.5375C15.2428 36.6195 14.3232 36.1228 13.2162 36.1228ZM13.2162 36.7646C13.7812 36.7646 14.2848 37.0453 14.2848 37.5375C14.2848 38.0352 13.7812 38.3114 13.2162 38.3114C12.6512 38.3114 12.1481 38.0352 12.1481 37.5375C12.1481 37.0453 12.6512 36.7646 13.2162 36.7646Z" fill="white"/>
        <path d="M17.5108 36.3123C17.5108 36.2644 17.5302 36.2275 17.6898 36.218V36.1582H16.3489V36.218C16.5084 36.228 16.5279 36.2649 16.5279 36.3123V38.7642C16.5279 38.8116 16.5084 38.8485 16.3489 38.859V38.9228H19.7478C19.8141 38.9228 19.8455 38.9512 19.865 39.0579H19.9432V38.1334H19.865C19.8455 38.2546 19.8141 38.2815 19.7478 38.2815H17.5108" fill="white"/>
        <path d="M22.1056 36.7746H22.9368C23.623 36.7746 23.9082 37.0932 23.9082 37.538C23.9082 37.9878 23.623 38.3014 22.9368 38.3014H22.1056V36.7746ZM21.1322 38.7637C21.1322 38.8111 21.1122 38.8485 20.9521 38.859V38.9228H23.0381C24.2463 38.9228 24.8662 38.2611 24.8662 37.538C24.8662 36.7546 24.3047 36.1577 23.1119 36.1577H20.9521V36.2176C21.1122 36.2275 21.1322 36.2644 21.1322 36.3118" fill="white"/>
        <path d="M35.6977 34.4602H35.5691C35.5436 34.6502 35.5027 34.6896 35.3885 34.6896H30.1421V34.7908C30.3969 34.8088 30.4313 34.8651 30.4313 34.9409V38.7991C30.4313 38.8739 30.3969 38.9312 30.1421 38.9492V39.0454H32.2968V38.9492C32.042 38.9312 32.0076 38.8744 32.0076 38.7991V37.4148H34.282C34.3962 37.4148 34.4366 37.4542 34.462 37.6392H34.5912V36.2459H34.462C34.4366 36.396 34.3962 36.4359 34.282 36.4359H32.0076V35.6999H35.3885C35.5027 35.6999 35.5436 35.7433 35.5691 35.9014H35.6977" fill="#1C3361"/>
        <path d="M38.2348 39.0466V38.9823C38.0747 38.9718 38.0553 38.9389 38.0553 38.887V36.4351C38.0553 36.3922 38.0747 36.3533 38.2348 36.3404V36.281H36.9019V36.3404C37.0614 36.3533 37.0804 36.3922 37.0804 36.4351V38.887C37.0804 38.9389 37.0614 38.9723 36.9019 38.9823V39.0466" fill="#1C3361"/>
        <path d="M42.2555 37.2159H42.1782C42.1582 37.2837 42.1163 37.3371 41.9837 37.3371H40.7744V36.9018H42.8599C42.9342 36.9018 42.9571 36.9252 42.977 37.0469H43.0548V36.1318H42.977C42.9571 36.2535 42.9342 36.2814 42.8599 36.2814H39.6125V36.3408C39.7811 36.3532 39.8005 36.3926 39.8005 36.435V38.8869C39.8005 38.9388 39.7811 38.9717 39.6125 38.9817V39.046H42.8599C42.9342 39.046 42.9571 39.073 42.977 39.1602H43.0548V38.2447H42.977C42.9571 38.3773 42.9342 38.4037 42.8599 38.4037H40.7744V37.914H41.9837C42.1163 37.914 42.1582 37.9684 42.1782 38.0357H42.2555" fill="#1C3361"/>
        <path d="M45.3702 36.4356C45.3702 36.3927 45.3901 36.3553 45.5577 36.3413V36.282H44.2173V36.3413C44.3764 36.3553 44.3958 36.3932 44.3958 36.4356V38.8875C44.3958 38.9394 44.3764 38.9728 44.2173 38.9828V39.0471H47.6162C47.682 39.0471 47.7134 39.074 47.7339 39.1852H47.8117V38.2602H47.7339C47.7134 38.3779 47.682 38.4048 47.6162 38.4048H45.3702" fill="#1C3361"/>
        <path d="M49.9539 36.9024H50.7857C51.4714 36.9024 51.7466 37.216 51.7466 37.6613C51.7466 38.1111 51.4714 38.4248 50.7857 38.4248H49.9539V36.9024ZM48.9805 38.887C48.9805 38.9379 48.9606 38.9723 48.8015 38.9818V39.0466H50.8864C52.0947 39.0466 52.7145 38.3844 52.7145 37.6613C52.7145 36.8779 52.1525 36.281 50.9607 36.281H48.8015V36.3404C48.9606 36.3528 48.9805 36.3887 48.9805 36.4346" fill="#1C3361"/>
        <path d="M53.4924 38.887L53.5707 38.9045C53.6091 38.8741 53.648 38.8372 53.7034 38.8372C53.847 38.8372 54.3302 39.0785 55.4183 39.0785C56.8335 39.0785 57.2499 38.5804 57.2499 38.1286C57.2499 36.9148 54.5606 37.4893 54.5606 37.0195C54.5606 36.9018 54.756 36.7727 55.321 36.7727C55.9284 36.7727 56.6779 36.9223 56.6779 37.0534V37.1118L56.7552 37.1407L57.2035 36.4117L57.1297 36.3882C57.0868 36.4321 57.0354 36.469 56.9537 36.469C56.7781 36.469 56.1353 36.2456 55.2427 36.2456C54.2873 36.2456 53.6645 36.6111 53.6645 37.1377C53.6645 38.1505 56.3468 37.7226 56.3468 38.1106C56.3468 38.3395 56.0451 38.4682 55.3988 38.4682C54.7201 38.4682 54.022 38.2323 54.022 38.0907C54.022 38.0428 54.022 38.0059 54.038 37.978L53.9766 37.951" fill="#1C3361"/>
        <path d="M59.4554 33.0371H27.9358V33.7427H59.4554V33.0371Z" fill="#1C3361"/>
        <path d="M0.270996 15.4418C0.270996 7.65913 6.80998 1.35254 14.8764 1.35254C22.9423 1.35254 29.4818 7.65863 29.4818 15.4418C29.4818 23.2204 22.9423 29.5271 14.8764 29.5271C6.80998 29.5271 0.270996 23.2204 0.270996 15.4418Z" fill="#1C3361"/>
        <path d="M1.72168 14.4364C1.72168 7.00179 7.96944 0.970947 15.6843 0.970947C23.3996 0.970947 29.6469 7.00179 29.6469 14.4364C29.6469 21.8769 23.3996 27.9018 15.6843 27.9018C7.96944 27.9018 1.72168 21.8769 1.72168 14.4364Z" fill="white"/>
        <path d="M15.6413 14.5322L15.6364 15.1117H15.5566L15.1945 14.5437H14.1927L14.9282 11.3033L15.4424 11.057L12.1407 10.6162L11.674 11.0789L11.8475 11.1398C11.8475 11.1398 13.1749 12.361 13.8985 12.0633C13.9913 12.0893 14.0845 12.1491 14.1628 12.2573L13.7718 12.539L13.353 14.2844C12.8099 14.4021 12.0963 14.7052 11.5872 15.0837L11.3788 15.7155L10.2518 12.3755L12.5416 8.93867H18.6398L20.9406 12.3755L20.5731 12.4932L19.6965 15.0837C19.1983 14.7052 18.4847 14.4026 17.9417 14.2844L17.5737 14.5442L17.0186 12.2573C17.1084 12.1491 17.1892 12.0893 17.2834 12.0633C18.0175 12.3615 19.3444 11.1398 19.3444 11.1398L19.6137 11.056L19.1539 10.6162L15.8523 11.057L16.5693 14.2435H15.8313L15.6413 14.5322ZM12.3417 6.56554C12.9291 6.56554 13.1989 7.08515 13.1989 7.08515C13.1989 7.08515 13.7659 8.02213 14.0676 8.24902L13.5195 8.02562C12.4963 7.76532 12.1661 7.19686 11.9497 6.94703L11.1913 6.54311C11.1913 6.54311 11.7547 6.56554 12.3417 6.56554ZM17.6549 15.156C17.6549 15.156 19.3733 15.715 19.3554 16.4371L19.0298 16.5438C18.9998 17.0919 18.367 17.6449 18.0434 17.8947L16.4417 16.9093L16.0039 17.0445V15.8921L17.5996 15.6342L17.6549 15.156ZM15.581 17.2589L17.6724 18.6417L17.1643 18.7853C16.8187 19.1783 16.1599 19.8285 15.6319 19.8285C15.0933 19.8285 14.4351 19.1783 14.088 18.7853L13.4781 18.6417L15.581 17.2589ZM16.872 20.4538L16.6217 21.0961C16.6432 21.5848 17.059 22.0456 17.0341 22.7083C17.0137 23.1586 16.6751 23.5052 16.3983 23.737L15.8024 24.1046C16.5699 23.2977 14.7038 21.4262 16.872 20.4538ZM18.6563 18.725L18.386 19.274C18.393 20.4439 18.9734 20.6842 18.9864 21.8995C19.0033 22.5058 18.6064 23.0873 18.2907 23.3022L17.5288 23.7605C19.0477 22.2435 15.8588 19.839 18.6563 18.725ZM19.7129 17.408L19.7847 18.1321C20.6454 19.4226 21.729 20.8089 20.2834 22.2949L19.689 22.9801C20.8778 20.0993 18.2658 19.8514 19.7129 17.408ZM20.5582 15.4876L20.6205 16.3408C20.8479 16.9392 23.0325 18.0752 22.2063 19.7078L21.9085 20.7765C22.1574 19.5348 20.0346 17.8114 20.2056 16.4376C20.2605 15.9539 20.5582 15.4876 20.5582 15.4876ZM22.7184 13.2387C22.9627 13.6431 23.0345 14.9341 23.035 14.9675L22.6406 14.1876C22.4257 13.9996 22.107 13.8545 21.9993 13.662C21.9071 13.5109 21.8841 13.2023 21.8607 12.932L21.4857 12.2448C21.4857 12.2448 22.471 12.8318 22.7184 13.2387ZM20.0061 6.54311L19.3275 6.94703C19.1215 7.19686 18.7814 7.76532 17.7686 8.02562L17.1303 8.24902C17.4315 8.02213 17.9995 7.08515 17.9995 7.08515C17.9995 7.08515 18.2688 6.56554 18.8547 6.56554C19.4427 6.56554 20.0061 6.54311 20.0061 6.54311ZM17.7816 6.56554L17.2096 6.954C17.0595 7.2153 16.6142 7.89298 16.2986 7.95431L15.8388 8.24902C16.1739 7.76482 15.7884 6.56554 16.7663 6.56554H17.7816ZM23.2305 7.78676C23.2869 8.74719 23.1856 9.0439 23.1831 9.05537L22.9622 8.40063C22.7378 8.19069 22.4187 7.95683 22.0576 7.90397C21.3615 7.78928 20.6006 8.01167 19.5269 8.33032L19.1215 8.30636C19.8176 7.61023 20.451 6.23242 21.5056 6.23242C22.5005 6.23242 23.1592 6.69618 23.2305 7.78676ZM19.4427 9.02943C20.042 9.3027 21.2159 8.61255 21.9779 8.87634C23.2056 9.30469 23.0375 10.4511 23.0355 10.4756L22.5419 9.85873C22.1948 9.61239 20.5307 9.83628 20.1064 9.44333L19.4427 9.02943ZM20.5013 10.4147C21.1232 10.8695 22.7343 10.5813 23.035 11.4699C23.2116 11.994 23.0615 12.7265 23.0585 12.741L22.7832 12.0663C22.6416 11.8424 21.4174 11.1757 21.3087 11.0056L20.5013 10.4147ZM21.0982 13.8426C21.0982 13.8426 22.5713 15.0837 22.8346 15.8317C23.1866 16.8619 23.0375 17.5626 23.0355 17.577L22.7458 16.8056C22.3209 16.2112 21.4094 15.7759 21.3216 15.1555C21.2962 14.9656 21.3176 14.7641 21.3391 14.585L21.0982 13.8426ZM8.31496 8.40014L8.01377 9.05488C8.01377 9.05588 7.89808 8.76913 7.9659 7.78676C8.0382 6.69618 8.68597 6.23242 9.69177 6.23242C10.7459 6.23242 11.3798 7.61073 12.0759 8.30636L11.7503 8.33032C10.6776 8.01117 9.91517 7.78878 9.21954 7.90397C8.85801 7.95683 8.53886 8.1902 8.31496 8.40014ZM8.50445 12.0668L8.13993 12.7415C8.13943 12.7415 7.97338 12.0035 8.16287 11.4704C8.46456 10.5813 10.0777 10.871 10.6986 10.4078L9.9785 11.0061C9.85883 11.1762 8.6361 11.8429 8.50445 12.0668ZM8.6366 14.1876L8.16686 14.9556C8.16287 14.9675 8.23268 13.6511 8.47902 13.2392C8.72586 12.8323 9.71222 12.2453 9.71222 12.2453L9.41701 12.9325C9.39208 13.2028 9.37013 13.5114 9.28885 13.6625C9.17067 13.8545 8.85152 13.9996 8.6366 14.1876ZM8.53138 16.8061L8.16337 17.5776C8.16287 17.578 7.99731 16.8759 8.36234 15.8322C8.62663 15.0842 10.0887 13.843 10.0887 13.843L9.93761 14.5861C9.95906 14.7646 9.9795 14.9665 9.95557 15.1565C9.88027 15.7759 8.95724 16.2112 8.53138 16.8061ZM9.07143 19.7078L9.27539 20.7525L9.28985 20.7765C9.28985 20.7765 8.60668 20.1113 8.50246 19.2012C8.28404 17.3731 10.3829 16.851 10.6283 15.4881L10.6682 16.3414C10.554 17.7451 9.14823 18.9409 9.07143 19.7078ZM10.9938 22.2949L11.5079 22.9796C8.2646 21.145 10.3326 19.1259 11.4845 17.408L11.5029 18.1321C11.9472 19.9228 10.351 20.0993 10.9938 22.2949ZM13.0094 23.3017L13.6681 23.76C12.4913 23.4927 11.8824 22.8983 11.8251 21.9005C11.7308 20.4439 12.4663 20.3157 12.5416 18.7255L12.9141 19.2745C14.1149 20.3038 12.413 21.7743 13.0094 23.3017ZM14.8789 23.737L15.394 24.1046C15.3945 24.1046 14.0656 24.0497 13.8681 22.6754C13.8142 21.887 14.3822 21.2288 14.3144 20.4538L14.656 21.0961C15.5586 21.699 14.5094 22.9202 14.8789 23.737ZM8.73533 9.85873L8.16387 10.4741C8.16287 10.4756 7.97387 9.31267 9.21954 8.87634C9.98 8.61255 11.1444 9.3022 11.7547 9.02943L11.1823 9.44333C10.7459 9.83628 9.09387 9.61239 8.73533 9.85873ZM13.4043 6.56554H14.4311C15.3985 6.56554 15.0235 7.76482 15.3476 8.24902L14.9791 7.95431C14.6734 7.89298 14.2186 7.2158 14.0671 6.954L13.4043 6.56554ZM13.2094 17.8947L13.1495 18.2752C13.1495 18.2752 11.7961 17.4125 11.7961 16.4371C11.7767 15.715 13.4946 15.156 13.4946 15.156L13.2278 15.741L13.2582 16.0192L13.5514 15.6348L15.1462 15.8926L14.821 16.269V16.9098" fill="#1C3361"/>
        <path d="M14.6555 21.0962C15.5581 21.6996 14.5089 22.9208 14.8784 23.7376C14.6021 23.5053 14.263 23.1597 14.254 22.7089C14.2291 22.0467 14.634 21.5859 14.6555 21.0962ZM16.6207 21.0962C15.7291 21.6996 16.7673 22.9208 16.3983 23.7376C16.6751 23.5053 17.0132 23.1597 17.0336 22.7089C17.059 22.0467 16.6431 21.5859 16.6207 21.0962ZM20.1348 20.1223C20.3831 20.6469 20.598 21.2378 20.2834 22.295C21.0149 21.5455 21.0942 20.8209 20.8923 20.1223H20.1348ZM17.9476 20.1223C17.8933 21.0379 18.7375 22.1529 18.2902 23.3023C18.6059 23.0869 19.0033 22.506 18.9859 21.8991C18.9774 21.0469 18.6852 20.6718 18.5121 20.1223H17.9476ZM13.3515 20.1223C13.4053 21.0379 12.5616 22.1529 13.0089 23.3023C12.6932 23.0869 12.2963 22.506 12.3127 21.8991C12.3217 21.0469 12.6139 20.6718 12.7865 20.1223H13.3515ZM11.1424 20.1223C10.893 20.6469 10.6896 21.2378 10.9933 22.295C10.2722 21.5455 10.182 20.8209 10.3949 20.1223" fill="#BD9D53"/>
        <path d="M14.9791 7.95418C14.6729 7.89285 14.2181 7.21616 14.0665 6.95436H14.4999C14.9791 6.95436 14.8061 7.51137 14.9791 7.95418ZM11.1818 9.44369C10.7454 9.83714 9.09287 9.61326 8.73532 9.8596C8.90687 9.63221 9.04899 9.35044 9.44044 9.22178C9.88774 9.07667 10.3799 9.38734 11.1818 9.44369ZM10.6676 16.3407C10.5535 17.7455 9.14772 18.9413 9.07093 19.7082C8.24464 18.0756 10.4288 16.9396 10.6676 16.3407ZM9.93661 14.5859C9.95855 14.7649 9.97949 14.9664 9.95556 15.1569C9.87976 15.7767 8.95673 16.2121 8.53087 16.8065C8.5583 16.5801 8.61066 16.3098 8.72884 16.0131C8.89839 15.5828 9.47085 15.0547 9.93661 14.5859ZM8.82159 13.4744C8.90537 13.3218 9.16717 13.1164 9.4165 12.9324C9.39157 13.2026 9.36963 13.5113 9.28884 13.6624C9.17066 13.8549 8.85102 14 8.63609 14.188C8.63609 14.188 8.73283 13.6045 8.82159 13.4744ZM9.97849 11.0065C9.85882 11.1761 8.63559 11.8433 8.50394 12.0672C8.50694 11.932 8.48898 11.767 8.53736 11.59C8.65554 11.1865 9.68378 11.1073 9.97849 11.0065ZM13.519 8.02549C12.4958 7.76519 12.1656 7.19673 11.9487 6.9469C12.0948 6.95388 12.2464 6.95436 12.4105 6.95436C12.591 6.95436 12.7406 7.00624 12.8324 7.12492C12.8648 7.18127 13.3275 7.81157 13.519 8.02549ZM11.7498 8.33119C10.6761 8.01105 9.91467 7.78915 9.21903 7.90384C8.858 7.9567 8.53835 8.19154 8.31445 8.40098C8.3344 7.17078 8.68446 6.70502 9.58954 6.62973C10.346 6.57388 11.09 7.67794 11.7498 8.33119ZM20.62 16.3407C20.7232 17.7455 22.128 18.9413 22.2062 19.7082C23.0325 18.0756 20.8479 16.9396 20.62 16.3407ZM21.3386 14.5859C21.3176 14.7649 21.2962 14.9664 21.3206 15.1569C21.4089 15.7767 22.3204 16.2121 22.7453 16.8065C22.7184 16.5801 22.665 16.3098 22.5473 16.0131C22.3783 15.5828 21.8048 15.0547 21.3386 14.5859ZM22.4655 13.4744C22.3708 13.3218 22.121 13.1164 21.8597 12.9324C21.8841 13.2026 21.9065 13.5113 21.9983 13.6624C22.1065 13.8549 22.4252 14 22.6401 14.188C22.6401 14.188 22.5423 13.6045 22.4655 13.4744ZM21.3086 11.0065C21.4174 11.1761 22.6406 11.8433 22.7827 12.0672C22.7697 11.932 22.7877 11.767 22.7383 11.59C22.6211 11.1865 21.6034 11.1073 21.3086 11.0065ZM20.1059 9.44369C20.5302 9.83714 22.1943 9.61326 22.5413 9.8596C22.3683 9.63221 22.2277 9.35044 21.8357 9.22178C21.3884 9.07667 20.8958 9.38734 20.1059 9.44369ZM17.7681 8.02549C18.7804 7.76519 19.1215 7.19673 19.3275 6.9469C19.1818 6.95388 19.0297 6.95436 18.8762 6.95436C18.6852 6.95436 18.5361 7.00624 18.4438 7.12492C18.4104 7.18127 17.9486 7.81157 17.7681 8.02549ZM16.2976 7.95418C16.6137 7.89285 17.059 7.21616 17.2091 6.95436H16.7868C16.2971 6.95436 16.4706 7.51137 16.2976 7.95418ZM19.5264 8.33119C20.5995 8.01105 21.361 7.78915 22.0571 7.90384C22.4187 7.9567 22.7378 8.19154 22.9617 8.40098C22.9423 7.17078 22.5922 6.70502 21.6856 6.62973C20.9411 6.57388 20.1871 7.67794 19.5264 8.33119ZM19.0297 16.4973C19.0297 16.5113 19.0297 16.5297 19.0293 16.5447C18.9993 17.0927 18.3665 17.6457 18.0429 17.8956L16.4417 16.9107V16.2694L17.9935 16.0191L18.0234 15.7413C18.4603 15.9313 19.0327 16.2385 19.0297 16.4973ZM17.1637 18.7852C16.8182 19.1791 16.1589 19.8289 15.6309 19.8289C15.0928 19.8289 14.4341 19.1791 14.0875 18.7852L15.6319 17.7684L17.1637 18.7852ZM13.2577 16.0191L14.821 16.2694V16.9107L13.2088 17.8956C12.8797 17.6363 12.2225 17.0643 12.2225 16.4973C12.2195 16.2385 12.791 15.9313 13.2278 15.7413L13.2577 16.0191ZM15.6413 14.5326L15.4633 14.2439H14.7253L15.4419 11.0569L12.1402 10.6171L11.673 11.0793L12.8069 9.3729H18.4867L19.6132 11.0564L19.1539 10.6171L15.8518 11.0569L16.5688 14.2439H15.8313L15.6413 14.5326ZM19.7658 11.2828L20.5726 12.4935L19.696 15.0836C19.1978 14.7056 18.4842 14.4029 17.9412 14.2847L17.5233 12.5369C18.4154 12.5628 19.6466 11.389 19.7658 11.2828ZM11.4875 11.3401C11.6066 11.4429 12.8608 12.6237 13.7713 12.5394L13.3525 14.2847C12.8099 14.4024 12.0958 14.7056 11.5872 15.0836L10.721 12.4935L11.4875 11.3401ZM20.8923 20.1221C20.6818 19.4349 20.2066 18.7717 19.7837 18.1324C19.5469 19.0589 19.8645 19.5546 20.1343 20.1216L20.8923 20.1221ZM18.5121 20.1221C18.4383 19.8872 18.3875 19.6244 18.3855 19.2749C18.0888 19.5337 17.9681 19.8159 17.9471 20.1216L18.5121 20.1221ZM12.7865 20.1221C12.8603 19.8872 12.9116 19.6244 12.9136 19.2749C13.2213 19.5337 13.3305 19.8159 13.352 20.1216L12.7865 20.1221ZM10.3949 20.1221C10.5948 19.4349 11.0701 18.7717 11.5034 18.1324C11.7303 19.0589 11.4122 19.5546 11.1424 20.1216" fill="#BD9D53"/>
        <path d="M1.50513 14.4364C1.50513 6.88567 7.85013 0.768066 15.6846 0.768066C23.5077 0.768066 29.8637 6.88616 29.8637 14.4364C29.8637 21.9867 23.5077 28.1043 15.6846 28.1043C7.85013 28.1043 1.50513 21.9862 1.50513 14.4364ZM1.99581 14.4364C1.99581 21.7259 8.12041 27.6371 15.6846 27.6371C23.2374 27.6371 29.3725 21.7259 29.3725 14.4364C29.3725 7.14746 23.2374 1.24028 15.6846 1.24028C8.12041 1.24028 1.99581 7.14746 1.99581 14.4364Z" fill="#BD9D53"/>
        <path d="M21.1497 21.6904C20.8958 22.1278 20.4301 22.5566 19.6891 22.98L20.284 22.2948C20.48 22.0928 20.6296 21.8909 20.7447 21.6904H21.1497ZM19.3764 21.6904C19.3759 21.7602 19.3744 21.829 19.3719 21.9014C19.3041 22.8987 18.7057 23.4926 17.5284 23.7604L18.2903 23.3031C18.6065 23.0872 19.0034 22.5057 18.9865 21.8999C18.986 21.8231 18.984 21.7592 18.9815 21.6909L19.3764 21.6904ZM17.1419 21.6904C17.2576 22.0101 17.3548 22.3292 17.3294 22.6758C17.1319 24.0501 15.8025 24.105 15.8025 24.105L16.3984 23.738C16.6752 23.5056 17.0137 23.16 17.0342 22.7092C17.0422 22.3178 16.9095 21.9946 16.7873 21.6909L17.1419 21.6904ZM15.0246 21.6904C15.0974 22.3197 14.6082 23.1365 14.879 23.7374L15.3946 24.1045C14.8944 23.5724 15.5178 22.5865 15.3946 21.6899L15.0246 21.6904ZM13.012 21.6904C12.8808 22.21 12.7906 22.7541 13.0095 23.3026L13.6687 23.7599C13.0763 23.1605 13.203 22.4324 13.4049 21.6909L13.012 21.6904ZM10.8662 21.6904C10.8901 21.8779 10.936 22.0789 10.9934 22.2948L11.508 22.98C11.3055 22.4808 11.2108 22.0579 11.1888 21.6904" fill="#DCCCA7"/>
        <path d="M16.7879 21.6905C16.6996 21.4886 16.6263 21.2961 16.6213 21.0966L16.8716 20.4543C16.8417 20.8926 17.0093 21.2866 17.1424 21.6905H16.7879ZM15.3951 21.6905C15.3377 21.2263 15.0665 20.7874 14.3145 20.4543L14.6556 21.0966C14.8989 21.2597 14.9987 21.4631 15.0246 21.6905H15.3951ZM22.6886 19.2825C22.5464 20.1491 21.9086 20.777 21.9086 20.777L22.2064 19.7083C22.2797 19.5637 22.328 19.4216 22.3664 19.2825H22.6886ZM20.9741 19.2825C21.4145 20.0748 21.6334 20.8926 21.1497 21.6905H20.7448C21.1966 20.8572 20.9507 20.0529 20.5239 19.2825H20.9741ZM18.7122 19.2825C18.9007 20.3122 19.3939 20.6009 19.3764 21.6905H18.9815C18.9042 20.6578 18.3941 20.375 18.3861 19.2825H18.7122ZM14.0432 19.2825C14.4571 19.6869 15.0286 20.1342 15.5811 20.1342C16.1217 20.1342 16.6926 19.6869 17.1065 19.2825H16.6742C16.351 19.5702 15.9616 19.8295 15.6315 19.8295C15.2914 19.8295 14.9029 19.5702 14.5793 19.2825H14.0432ZM12.9282 19.2825C13.6887 19.9372 13.2573 20.776 13.012 21.6905H13.4054C13.6508 20.8248 14.0113 19.9477 13.4064 19.2825H12.9282ZM11.506 19.2825C11.2896 20.0399 10.7161 20.5301 10.8662 21.691L11.1889 21.6905C11.137 20.6448 11.682 20.0389 11.8745 19.2834L11.506 19.2825ZM9.21615 19.2825C9.12888 19.4371 9.07851 19.5787 9.07153 19.7083L9.28945 20.777C9.1947 20.3277 9.41611 19.817 9.7188 19.2825" fill="#DCCCA7"/>
        <path d="M8.16276 10.4762C9.04689 9.67231 11.3547 10.6642 11.7546 9.02953L11.1822 9.44343C10.7458 9.83638 9.09327 9.61297 8.73573 9.85931L8.16276 10.4762ZM8.01416 9.05598C8.35425 8.60669 8.94966 8.26011 9.30071 8.20176C10.1105 8.07111 11.6589 8.63012 11.6768 8.6366C11.802 8.53039 12.0758 8.30747 12.0758 8.30747L11.7497 8.33042C10.6765 8.01127 9.91507 7.78937 9.21943 7.90456C8.8584 7.95692 8.53876 8.19179 8.31486 8.40173L8.01416 9.05598ZM9.9784 11.0068C9.85872 11.1763 8.636 11.843 8.50435 12.0674L8.13883 12.7421C8.87186 11.8774 10.4975 11.283 10.698 10.4083L9.9784 11.0068ZM8.16276 14.9676C8.50983 14.4126 9.44233 14.0581 9.55902 13.6512C9.66524 13.2388 9.71211 12.2449 9.71211 12.2449L9.4169 12.9321C9.39197 13.2024 9.37003 13.511 9.28924 13.6621C9.17056 13.8551 8.85142 14.0002 8.63649 14.1877L8.16276 14.9676ZM8.16276 17.5787C9.10274 16.2702 10.127 16.2123 10.2053 15.0978C10.2512 14.5163 10.0886 13.8431 10.0886 13.8431L9.93801 14.5857C9.95895 14.7642 9.9794 14.9666 9.95596 15.1566C9.88016 15.776 8.95713 16.2118 8.53078 16.8062L8.16276 17.5787ZM11.1916 6.54321C11.8035 7.25082 12.3181 8.42614 14.0674 8.25061L13.5189 8.02721C12.4962 7.76542 12.166 7.19745 11.9501 6.94762L11.1916 6.54321ZM13.4042 6.56564C14.0151 7.45077 14.409 8.42415 15.3475 8.25061L14.979 7.95441C14.6733 7.89307 14.2185 7.21639 14.0669 6.95459L13.4042 6.56564ZM21.3086 11.0068C21.4173 11.1763 22.6415 11.843 22.7831 12.0674L23.0589 12.7421C22.3263 11.8774 20.7002 11.283 20.4992 10.4083L21.3086 11.0068ZM23.0354 10.4762C22.1513 9.67231 19.8425 10.6642 19.4425 9.02953L20.1063 9.44343C20.5306 9.83638 22.1942 9.61297 22.5417 9.85931L23.0354 10.4762ZM23.183 9.05598C22.8429 8.60669 22.247 8.26011 21.887 8.20176C21.0752 8.07111 19.5268 8.63012 19.5198 8.6366C19.3957 8.53039 19.1214 8.30747 19.1214 8.30747L19.5268 8.33042C20.5999 8.01127 21.3614 7.78937 22.0575 7.90456C22.4186 7.95692 22.7377 8.19179 22.9621 8.40173L23.183 9.05598ZM20.006 6.54321C19.3942 7.25082 18.8781 8.42614 17.1188 8.25061L17.7685 8.02721C18.7808 7.76542 19.1214 7.19745 19.3279 6.94762L20.006 6.54321ZM17.781 6.56564C17.1826 7.45077 16.7892 8.42415 15.8387 8.25061L16.298 7.95441C16.6141 7.89307 17.0594 7.21639 17.2095 6.95459L17.781 6.56564ZM23.0354 14.9676C22.6879 14.4126 21.7549 14.0581 21.6377 13.6512C21.532 13.2388 21.4856 12.2449 21.4856 12.2449L21.8606 12.9321C21.884 13.2024 21.9069 13.511 21.9992 13.6621C22.1069 13.8551 22.4261 14.0002 22.6405 14.1877L23.0354 14.9676ZM23.0354 17.5787C22.0835 16.2702 21.0707 16.2123 20.9929 15.0978C20.946 14.5163 21.0976 13.8431 21.0976 13.8431L21.339 14.5857C21.3185 14.7642 21.2961 14.9666 21.321 15.1566C21.4093 15.776 22.3208 16.2118 22.7457 16.8062L23.0354 17.5787ZM14.8209 16.2701V16.9104L13.2092 17.8953L13.1494 18.2758L15.1461 17.0451V15.8926L14.8209 16.2701ZM13.2581 16.0193L13.2282 15.7416L13.4945 15.1566L13.5513 15.6349L13.2581 16.0193ZM11.5871 15.0848C12.0962 14.7058 12.8098 14.4026 13.3529 14.285L13.7717 12.5396L14.1627 12.2634L13.6181 14.5443C12.929 14.6131 11.7013 15.1806 11.3786 15.7156L11.5871 15.0848ZM17.9416 14.2845C18.4846 14.4022 19.1982 14.7058 19.6964 15.0843L20.5735 12.4933L20.9405 12.3751L19.8146 15.7151C19.4904 15.1806 18.2637 14.6126 17.5736 14.5438L17.9416 14.2845ZM14.9281 11.304L12.0284 10.916C12.0284 10.928 11.8474 11.1404 11.8474 11.1404L11.6739 11.0796L12.1406 10.6178L15.4423 11.0576L14.9281 11.304ZM15.6362 15.1122L15.9868 14.5438H16.9881L16.2536 11.3034L19.1533 10.9155C19.1538 10.9275 19.3443 11.1399 19.3443 11.1399L19.6136 11.0561L19.1538 10.6173L15.8522 11.0571L16.5692 14.2436H15.8312L15.6417 14.5323L15.6362 15.1122ZM16.0043 17.0446L18.0009 18.2753C18.0009 18.2753 19.3543 17.4131 19.3543 16.4372L19.0297 16.5439C19.0002 17.092 18.3669 17.645 18.0428 17.8948L16.4416 16.9099L16.0043 17.0446ZM22.3662 19.2826C22.6614 17.8813 20.8253 16.889 20.6204 16.3419L20.5576 15.4882C20.8024 16.8511 22.9138 17.3737 22.6948 19.2013C22.6928 19.2322 22.6903 19.2566 22.6884 19.2816L22.3662 19.2826ZM20.5237 19.2826C20.3027 18.8911 20.0325 18.5037 19.7846 18.1327L19.7128 17.4091C20.1083 18.0025 20.6209 18.6333 20.9739 19.2826H20.5237ZM18.3859 19.2826V19.2741L18.6562 18.7256C18.6606 18.936 18.6841 19.1175 18.712 19.2821H18.3859V19.2826ZM17.1068 19.2826C17.4374 18.949 17.6723 18.6428 17.6723 18.6428L17.1642 18.7859C17.039 18.9295 16.8674 19.114 16.674 19.2826H17.1068ZM14.5791 19.2826C14.3851 19.114 14.2141 18.9295 14.0879 18.7859L13.4775 18.6428C13.4775 18.6428 13.7129 18.949 14.043 19.2826H14.5791ZM13.4062 19.2826C13.2262 19.0722 12.9509 18.8831 12.5415 18.7261L12.914 19.2746C12.915 19.2811 12.927 19.2821 12.928 19.2831L13.4062 19.2826ZM11.8743 19.2826C11.9985 18.7829 11.9681 18.2154 11.4849 17.4091L11.5028 18.1327C11.6245 18.6069 11.5991 18.9649 11.5058 19.2826H11.8743ZM9.71859 19.2826C10.2746 18.3356 11.0954 17.3148 10.9917 16.4377C10.9368 15.9545 10.6282 15.4882 10.6282 15.4882L10.6681 16.3419C10.5748 17.5088 9.58894 18.5346 9.21594 19.2826" fill="#DCCCA7"/>
    </g>
    <defs>
        <clipPath id="clip0_30_9330">
            <rect width="60" height="40" fill="white" transform="translate(0 0.49707)"/>
        </clipPath>
    </defs>
</svg>
