<svg width="385" height="512" viewBox="0 0 385 512" fill="none" xmlns="http://www.w3.org/2000/svg">
    <path d="M382.898 0C63.5409 30.3931 23.1392 250.674 127.541 321.102C109.544 400.62 126.072 398.783 126.072 398.783C129.286 375.001 133.968 351.495 140.029 328.264C180.798 173.268 281.618 38.3816 383.357 3.03013V2.66284C384 2.57102 384.826 2.29555 384.826 1.56098C384.826 0.734577 384.184 0.0918221 383.357 0.0918221C383.357 0.0918221 383.357 0.0918221 383.265 0.0918221L382.898 0ZM366.37 50.594C365.819 50.594 365.176 51.1449 364.901 51.6958C338.456 103.484 331.019 177.492 310.91 234.33C287.862 299.156 246.91 343.047 183.736 338.824V496.574C183.736 496.574 15.0588 419.994 15.0588 297.412V67.5811L152.792 54.726H153.159C153.894 54.726 154.261 54.3587 154.261 53.6241C154.261 52.7059 153.894 52.155 153.159 52.155H0V297.412C0 435.237 183.736 512 183.736 512C183.736 512 367.839 434.043 367.839 297.32V52.0631C367.839 51.4204 367.105 50.594 366.37 50.594Z" fill="#C6093B"/>
</svg>
