<svg width="70" height="41" viewBox="0 0 70 41" fill="none" xmlns="http://www.w3.org/2000/svg">
    <g clip-path="url(#clip0_30_9378)">
        <mask id="mask0_30_9378" style="mask-type:luminance" maskUnits="userSpaceOnUse" x="0" y="4" width="28" height="37">
            <path d="M0.876465 4.41895H27.7733V40.5024H0.876465V4.41895Z" fill="white"/>
        </mask>
        <g mask="url(#mask0_30_9378)">
            <path d="M13.6358 4.44434H14.7454C15.8482 4.53624 16.9521 4.84351 17.8751 5.47215C18.9829 6.20058 19.7711 7.36878 20.101 8.64975C20.5131 10.2447 20.34 11.9598 19.7582 13.4894C19.5687 14.0301 19.372 14.5691 19.1797 15.1087C20.075 14.8741 20.9506 14.462 21.5888 13.7753C22.2795 13.0705 22.6308 12.1177 22.8563 11.1745C24.4828 11.166 26.1089 11.1728 27.7349 11.1705C26.8942 13.4043 26.2746 15.7638 26.3175 18.1679C26.3327 20.9423 27.3447 23.5759 27.6204 26.3188C27.8245 28.1743 27.7659 30.0827 27.2336 31.8824C26.746 33.5642 25.8551 35.1322 24.6373 36.39C23.4167 37.667 21.8916 38.6317 20.2509 39.2682C18.1468 40.0891 15.8691 40.4003 13.6206 40.3541C10.9392 40.2983 8.21993 39.6883 5.91623 38.2742C3.92657 37.0688 2.28477 35.2331 1.46782 33.0371C0.645231 30.8568 0.702175 28.3411 1.69278 26.2258C2.46068 24.571 3.83974 23.2331 5.47364 22.4432C7.49093 21.4701 9.79633 21.2248 12.0053 21.4526C12.3137 20.6509 12.6165 19.8463 12.9311 19.0468C11.0717 18.2508 9.37968 16.9315 8.40655 15.1267C6.91698 12.4171 7.25414 8.74898 9.39095 6.47628C10.4763 5.27989 12.0352 4.56443 13.6358 4.44434ZM12.4163 10.1269C12.0465 10.9472 12.0053 11.9305 12.405 12.7475C12.838 13.6507 13.5248 14.4902 14.4539 14.9018C14.6428 14.4705 14.799 14.0245 14.9704 13.5864C15.2314 12.8873 15.5505 12.1966 15.6379 11.4479C15.7281 10.8266 15.6328 10.141 15.2263 9.6426C14.8035 9.13856 14.0632 8.94011 13.443 9.14815C12.9734 9.29756 12.617 9.68827 12.4163 10.1269ZM17.5001 19.6321C17.1348 20.643 16.7384 21.6432 16.3838 22.6591C17.5047 23.1863 18.665 23.7309 19.5456 24.6302C18.9925 26.038 18.4406 27.4458 17.866 28.8452C16.9967 27.9854 15.9835 27.2547 14.8401 26.8104C14.2199 28.455 13.6127 30.103 13.0027 31.7516C11.4099 31.7556 9.81719 31.7538 8.22444 31.7528C8.93596 29.8482 9.64354 27.9414 10.3517 26.0347C8.78768 25.9873 7.21749 26.7806 6.37179 28.1083C6.01208 28.6631 5.79389 29.3335 5.88466 29.9993C5.97149 31.4066 6.69879 32.7309 7.78299 33.6178C9.2641 34.8441 11.207 35.3447 13.0895 35.4857C14.6456 35.5923 16.24 35.4998 17.7268 34.9969C19.0658 34.5639 20.3045 33.7655 21.175 32.6475C22.3145 31.207 22.7599 29.3025 22.6296 27.4904C22.5028 26.1012 22.1684 24.7419 21.9158 23.3724C21.6221 21.8304 21.378 20.2675 21.378 18.6928C20.1331 19.1743 18.8273 19.4917 17.5001 19.6321Z" fill="#234291"/>
        </g>
        <path d="M25.2987 9.40012C27.7558 7.5328 29.0023 6.49089 29.7973 5.11014C30.9159 3.1684 30.2382 1.52097 28.8208 0.877666C27.4919 0.273269 25.9144 0.840453 25.2987 2.1434C24.6825 0.840453 23.105 0.273269 21.7761 0.877666C20.3587 1.52097 19.681 3.1684 20.8001 5.11014C21.5951 6.49089 22.8411 7.5328 25.2987 9.40012Z" fill="#E32123"/>
        <path d="M31.832 14.7107V14.691C31.832 12.7351 33.356 11.1328 35.4398 11.1328C36.6779 11.1328 37.425 11.4666 38.1421 12.0766L37.1893 13.2268C36.6582 12.7842 36.1869 12.5282 35.3908 12.5282C34.2897 12.5282 33.4152 13.5019 33.4152 14.6712V14.691C33.4152 15.9494 34.2801 16.8729 35.4984 16.8729C36.0487 16.8729 36.5404 16.7353 36.9237 16.4607V15.4775H35.4003V14.17H38.3879V17.1582C37.6809 17.7575 36.7072 18.2491 35.4494 18.2491C33.3069 18.2491 31.832 16.7455 31.832 14.7107Z" fill="#234291"/>
        <path d="M39.4299 15.5265V15.5067C39.4299 14.0025 40.5017 12.7644 42.0347 12.7644C43.7943 12.7644 44.6006 14.1305 44.6006 15.6246C44.6006 15.7424 44.5904 15.8805 44.5808 16.0181H40.9139C41.0616 16.6964 41.5335 17.0499 42.2016 17.0499C42.7034 17.0499 43.067 16.8931 43.4797 16.5092L44.335 17.2664C43.8434 17.8758 43.1353 18.2491 42.1824 18.2491C40.5998 18.2491 39.4299 17.1384 39.4299 15.5265ZM43.1454 15.0839C43.0569 14.4158 42.6639 13.9636 42.0347 13.9636C41.4157 13.9636 41.0125 14.4062 40.8941 15.0839H43.1454Z" fill="#234291"/>
        <path d="M45.7107 12.8625H47.2048V13.6095C47.5487 13.167 47.9913 12.7644 48.7479 12.7644C49.8783 12.7644 50.5369 13.5114 50.5369 14.7202V18.1313H49.0428V15.1921C49.0428 14.4846 48.709 14.1209 48.1384 14.1209C47.5684 14.1209 47.2048 14.4846 47.2048 15.1921V18.1313H45.7107V12.8625Z" fill="#234291"/>
        <path d="M51.5781 15.5265V15.5067C51.5781 14.0025 52.6499 12.7644 54.1829 12.7644C55.9425 12.7644 56.7488 14.1305 56.7488 15.6246C56.7488 15.7424 56.7386 15.8805 56.7285 16.0181H53.0621C53.2098 16.6964 53.6817 17.0499 54.3503 17.0499C54.8516 17.0499 55.2152 16.8931 55.6279 16.5092L56.4832 17.2664C55.9916 17.8758 55.284 18.2491 54.3306 18.2491C52.748 18.2491 51.5781 17.1384 51.5781 15.5265ZM55.2936 15.0839C55.2056 14.4158 54.8121 13.9636 54.1829 13.9636C53.5638 13.9636 53.1607 14.4062 53.0429 15.0839H55.2936Z" fill="#234291"/>
        <path d="M57.8589 12.8624H59.353V13.924C59.658 13.1967 60.1491 12.7248 61.0337 12.7643V14.3271H60.9553C59.9624 14.3271 59.353 14.927 59.353 16.1849V18.1311H57.8589V12.8624Z" fill="#234291"/>
        <path d="M61.4075 16.6173V16.5975C61.4075 15.4474 62.2819 14.9163 63.5302 14.9163C64.0613 14.9163 64.4447 15.0054 64.8185 15.1333V15.0443C64.8185 14.4252 64.4345 14.0813 63.6875 14.0813C63.1175 14.0813 62.7144 14.1895 62.2329 14.3666L61.8591 13.2266C62.4392 12.9706 63.0092 12.8037 63.9034 12.8037C64.7198 12.8037 65.3096 13.0196 65.6834 13.3934C66.0763 13.7864 66.2528 14.3666 66.2528 15.0741V18.1311H64.8083V17.5611C64.4447 17.9636 63.9435 18.2292 63.2156 18.2292C62.2227 18.2292 61.4075 17.6592 61.4075 16.6173ZM64.8377 16.2734V16.0078C64.5817 15.89 64.2479 15.8116 63.8843 15.8116C63.2455 15.8116 62.8519 16.067 62.8519 16.5383V16.5586C62.8519 16.9612 63.1863 17.1969 63.6678 17.1969C64.3657 17.1969 64.8377 16.814 64.8377 16.2734Z" fill="#234291"/>
        <path d="M67.6094 18.1311H69.1035V10.9556H67.6094V18.1311Z" fill="#234291"/>
        <path d="M32.1372 20.7354H33.7683L35.5776 23.6446L37.3857 20.7354H39.0173V27.616H37.5137V23.1242L35.5776 26.0627H35.5381L33.6211 23.1535V27.616H32.1372L32.1372 20.7354Z" fill="#234291"/>
        <path d="M40.5405 20.4412H42.1135V21.7678H40.5405V20.4412ZM40.58 22.3474H42.0735V27.6161H40.58V22.3474Z" fill="#234291"/>
        <path d="M43.5486 27.6167H45.0427V20.4412H43.5486V27.6167Z" fill="#234291"/>
        <path d="M46.5168 27.6167H48.0109V20.4412H46.5168V27.6167Z" fill="#234291"/>
        <path d="M49.0034 26.9182L49.6416 25.9354C50.2122 26.3481 50.8115 26.5646 51.3032 26.5646C51.7356 26.5646 51.9324 26.4068 51.9324 26.1711V26.1514C51.9324 25.8272 51.4216 25.719 50.8414 25.5419C50.104 25.326 49.2684 24.9821 49.2684 23.9599V23.9396C49.2684 22.8684 50.1333 22.269 51.1949 22.269C51.863 22.269 52.5909 22.4951 53.1609 22.8785L52.5909 23.9108C52.0699 23.6058 51.549 23.4192 51.1656 23.4192C50.802 23.4192 50.6153 23.5765 50.6153 23.7829V23.8021C50.6153 24.0975 51.116 24.2345 51.6866 24.4313C52.4235 24.6771 53.2793 25.0311 53.2793 25.9941V26.0138C53.2793 27.1837 52.4043 27.7143 51.2637 27.7143C50.5268 27.7143 49.7008 27.4684 49.0034 26.9182Z" fill="#234291"/>
    </g>
    <defs>
        <clipPath id="clip0_30_9378">
            <rect width="68.4844" height="40" fill="white" transform="translate(0.757812 0.49707)"/>
        </clipPath>
    </defs>
</svg>
