<svg width="160" height="24" viewBox="0 0 160 24" fill="none" xmlns="http://www.w3.org/2000/svg">
    <g clip-path="url(#clip0_30_9420)">
        <path d="M18.7054 17.0653C18.0097 19.3615 16.9811 22.3964 11.7733 22.3964C6.84094 22.3964 3.56843 18.2186 3.52832 12.3422C3.48997 6.10867 6.57245 2.0511 11.9877 2.0511C16.5644 2.0511 17.9208 4.84382 18.4107 7.81948H19.5353V2.19918C18.273 1.47268 14.8366 0.49707 11.9162 0.49707C4.79234 0.49707 -0.0894196 5.3177 0.00124184 12.4764C0.0953903 19.405 4.3896 23.9574 11.4542 23.9574C15.4538 23.9574 17.6506 22.8999 19.7358 21.8371C19.7515 21.8358 20.2501 15.8318 20.2501 15.8318H19.0715L18.7054 17.0653Z" fill="#005ED1"/>
        <path d="M35.1556 22.3964C30.0664 22.3964 26.9124 18.4869 26.9124 12.1889C26.9124 5.9327 30.0664 2.0511 35.1556 2.0511C40.407 2.0511 43.5453 5.86126 43.5453 12.2551C43.5453 18.6071 40.407 22.3964 35.1556 22.3964ZM47.0654 11.8718C47.0654 4.85254 42.7189 0.49707 35.717 0.49707C28.2288 0.49707 23.3801 5.15395 23.3801 12.3649C23.3801 19.6176 27.6395 23.9539 34.7668 23.9539C42.3527 23.9539 47.0654 19.3197 47.0654 11.8718Z" fill="#005ED1"/>
        <path d="M85.7634 1.9443L90.6329 2.78751L91.1751 17.5665L77.5934 0.986084H70.7467V1.93385L74.4185 2.7701L74.2773 21.6676L70.9978 22.4568C70.072 22.192 68.604 21.8035 66.6513 19.3714C66.6513 19.3714 61.5707 13.0891 60.9326 12.2981C62.9464 11.7424 66.1997 10.258 66.1997 6.4496C66.1997 3.9513 64.845 0.986084 58.3837 0.986084H48.2993V1.93385L51.9624 2.7701L51.9602 21.6624L48.3006 22.5126V23.4656H58.3064V22.5213L55.0671 21.6694V2.65338C56.0329 2.49483 56.9884 2.39031 57.6352 2.39031C61.2198 2.39031 62.9615 3.73004 62.9615 6.47921C62.9615 10.7476 59.5182 11.3608 58.1077 11.549C57.6282 11.61 57.0633 11.6378 56.5595 11.6378V12.5839L57.813 12.9828L63.1063 19.8505C64.8742 22.145 66.1591 23.4656 72.1515 23.4656H81.0014V22.5074L76.5939 21.6519L76.0499 3.91296L92.2434 23.9377H92.6775L92.9495 2.76486L95.9169 1.92166V0.986084H85.7629V1.9443" fill="#005ED1"/>
        <path d="M108.439 22.5153L104.774 21.6669L104.77 2.77109L108.443 1.93484V0.985352H98.0083V1.93484L101.664 2.77109V21.6669L98.0083 22.5153V23.4648L108.44 23.459V22.5147" fill="#005ED1"/>
        <path d="M120.796 22.5108L116.385 21.6607L115.841 3.9182L132.031 23.9377H132.46L132.74 2.76661L135.704 1.92166V0.986084H125.557L125.554 1.9443L130.415 2.78751L130.96 17.5665L117.391 0.986084H110.541V1.93385L114.197 2.7701L114.061 21.6676L110.541 22.5126V23.4603H120.796L120.796 22.5108Z" fill="#005ED1"/>
        <path d="M157.104 14.7525L160 13.9145V12.9789L149.703 12.9776V13.9271L154.002 14.7685V20.6014C152.491 21.7965 150.81 22.4969 148.19 22.4115C143.496 22.2617 140.183 18.2425 140.183 12.3643C140.187 5.87466 143.235 2.06452 148.779 2.06452C153.655 2.06452 155.017 5.22135 155.502 7.80501H156.539V2.25093C155.085 1.43036 151.936 0.512207 148.306 0.512207C141.181 0.512207 136.623 5.19347 136.662 12.5054C136.691 19.293 141.134 23.861 147.989 23.969C152.693 24.0474 155.158 22.7286 157.097 21.5753C157.087 21.5962 157.104 14.7525 157.104 14.7525Z" fill="#005ED1"/>
    </g>
    <defs>
        <clipPath id="clip0_30_9420">
            <rect width="160" height="23.4752" fill="white" transform="translate(0 0.49707)"/>
        </clipPath>
    </defs>
</svg>
