<svg width="160" height="44" viewBox="0 0 160 44" fill="none" xmlns="http://www.w3.org/2000/svg">
    <g clip-path="url(#clip0_30_9436)">
        <path d="M82.9182 18.3501H81.3764C80.4033 18.3501 79.6724 19.1626 79.6724 20.0552V24.359C79.6724 25.3338 80.4033 26.1464 81.3764 26.1464H84.2979V24.9281H81.9451C81.5386 24.9281 81.2142 24.6025 81.2142 24.1968V23.7099C81.2142 23.3853 81.3764 23.2219 81.7818 23.0597L83.0804 22.7351C84.1357 22.4105 84.7033 21.9236 84.7033 21.2734V20.7054V20.0552C84.7033 19.1626 83.8913 18.3501 82.9182 18.3501ZM83.0804 20.9489C83.0804 21.2734 82.9182 21.5168 82.5938 21.6791L81.2142 22.0859V20.2175C81.2142 19.8118 81.5386 19.4872 81.9451 19.4872H82.3506C82.756 19.4872 83.0804 19.8118 83.0804 20.2175V20.7054V20.9489Z" fill="#0372CF"/>
        <path d="M99.2265 20.0552C99.2265 19.1626 98.4145 18.3501 97.4414 18.3501H94.601V19.4872H96.8738C97.2792 19.4872 97.6036 19.8118 97.6036 20.2175V20.6243C97.6036 21.03 97.5225 21.1923 97.0359 21.2734L95.7374 21.6791C94.6821 21.9236 94.1956 22.4917 94.1956 23.1408V24.359C94.1956 25.3338 94.9265 26.1464 95.8996 26.1464H99.2265V20.0552ZM95.7374 24.1968V23.4665C95.7374 23.0597 95.9807 22.8162 96.305 22.7351L97.6036 22.3294V24.9281H96.4672C96.0618 24.9281 95.7374 24.6025 95.7374 24.1968Z" fill="#0372CF"/>
        <path d="M105.474 24.928C104.581 24.928 104.337 24.4401 104.337 23.7098V15.5078H102.714V23.6286C102.714 25.0903 103.689 26.1463 105.067 26.1463H105.474V24.928Z" fill="#0372CF"/>
        <path d="M74.3992 18.3501H71.0723V26.1464H72.6952V19.4872H73.8316C74.237 19.4872 74.5614 19.8118 74.5614 20.2175V26.1464H76.1032V20.0552C76.1032 19.1626 75.3723 18.3501 74.3992 18.3501Z" fill="#0372CF"/>
        <path d="M120.157 18.3501H113.421V26.1464H114.967V19.4872H116.827V26.1464H118.459V19.4872H119.594C119.995 19.4872 120.319 19.8118 120.319 20.2175V26.1464H121.865V20.0552C121.865 19.1626 121.13 18.3501 120.157 18.3501Z" fill="#0372CF"/>
        <path d="M128.763 18.3501H127.217C126.244 18.3501 125.433 19.1626 125.433 20.0552V24.359C125.433 25.3338 126.244 26.1464 127.217 26.1464H128.763C129.736 26.1464 130.461 25.3338 130.461 24.359V20.0552C130.461 19.1626 129.736 18.3501 128.763 18.3501ZM128.925 24.1968C128.925 24.6025 128.601 24.9281 128.19 24.9281H127.79C127.379 24.9281 127.055 24.6025 127.055 24.1968V20.2175C127.055 19.8118 127.379 19.4872 127.79 19.4872H128.19C128.601 19.4872 128.925 19.8118 128.925 20.2175V24.1968Z" fill="#0372CF"/>
        <path d="M91.3562 18.3501C90.7075 18.3501 90.0577 18.5124 89.6522 18.7558H89.5711V18.3501H88.0293V26.1464H89.5711V20.8677C89.6522 20.1363 90.4632 19.6495 91.2752 19.5683C91.3562 19.5683 91.5184 19.4872 91.6806 19.4872C91.7617 19.4872 92.005 19.4872 92.005 19.4872V18.3501H91.3562Z" fill="#0372CF"/>
        <path d="M157.318 19.4872H159.676V18.3501H156.67C155.772 18.3501 154.961 19.1626 154.961 20.0552V20.9489C154.961 21.6791 155.21 22.1671 156.345 22.4917L157.881 22.8974C158.205 22.9785 158.454 23.2219 158.454 23.6287V24.1968C158.454 24.6025 158.043 24.9281 157.643 24.9281H154.961V26.1464H158.292C159.265 26.1464 160 25.3338 160 24.359V23.3042C160 22.654 159.427 22.1671 158.367 21.8425L157.07 21.4357C156.67 21.3546 156.583 21.1923 156.583 20.8677V20.2175C156.583 19.8118 156.908 19.4872 157.318 19.4872Z" fill="#0372CF"/>
        <path d="M137.359 24.9282H137.111C136.224 24.9282 135.975 24.4403 135.975 23.71V19.4873H137.359V18.3502H135.975V16.3206H134.44V18.3502H133.056V19.4873H134.44V23.6289C134.44 25.0905 135.327 26.1465 136.786 26.1465H137.359V24.9282Z" fill="#0372CF"/>
        <path d="M65.9614 18.3501H64.4196C63.4465 18.3501 62.7156 19.1626 62.7156 20.0552V24.359C62.7156 25.3338 63.4465 26.1464 64.4196 26.1464H67.3411V24.9281H64.9883C64.5818 24.9281 64.2574 24.6025 64.2574 24.1968V23.7099C64.2574 23.3853 64.4196 23.2219 64.825 23.0597L66.1236 22.7351C67.1789 22.4105 67.7465 21.9236 67.7465 21.2734V20.7054V20.0552C67.7465 19.1626 66.9345 18.3501 65.9614 18.3501ZM66.1236 20.9489C66.1236 21.2734 65.9614 21.5168 65.556 21.6791L64.2574 22.0859V20.2175C64.2574 19.8118 64.5818 19.4872 64.9883 19.4872H65.3938C65.7992 19.4872 66.1236 19.8118 66.1236 20.2175V20.7054V20.9489Z" fill="#0372CF"/>
        <path d="M152.129 18.3501C151.48 18.3501 150.831 18.5124 150.42 18.7558H150.345V18.3501H148.799V26.1464H150.345V20.8677C150.42 20.1363 151.231 19.6495 152.042 19.5683C152.129 19.5683 152.291 19.4872 152.453 19.4872C152.529 19.4872 152.778 19.4872 152.778 19.4872V18.3501H152.129Z" fill="#0372CF"/>
        <path d="M143.522 18.3501H141.987C141.014 18.3501 140.203 19.1626 140.203 20.0552V24.359C140.203 25.3338 141.014 26.1464 141.987 26.1464H143.522C144.495 26.1464 145.23 25.3338 145.23 24.359V20.0552C145.23 19.1626 144.495 18.3501 143.522 18.3501ZM143.684 24.1968C143.684 24.6025 143.36 24.9281 142.96 24.9281H142.549C142.149 24.9281 141.824 24.6025 141.824 24.1968V20.2175C141.824 19.8118 142.149 19.4872 142.549 19.4872H142.96C143.36 19.4872 143.684 19.8118 143.684 20.2175V24.1968Z" fill="#0372CF"/>
        <path d="M55.8195 18.3501C54.8464 18.3501 54.1155 19.1626 54.1155 20.0552V24.359C54.1155 25.3338 54.8464 26.1464 55.8195 26.1464H57.5235V26.4709C57.5235 27.2012 57.037 27.7703 55.9817 27.7703H55.1708V28.9074H55.9817C57.929 28.9074 59.1464 28.0137 59.1464 26.2275V18.3501H55.8195ZM57.5235 24.9281H56.3871C55.9817 24.9281 55.6573 24.6025 55.6573 24.1968V20.2175C55.6573 19.8118 55.9817 19.4872 56.3871 19.4872H57.5235V24.9281Z" fill="#0372CF"/>
        <path d="M17.038 11.9344H11.3583C9.24914 11.9344 7.86993 13.396 7.86993 15.4268V23.3042C7.86993 25.3339 9.24914 26.7144 11.3583 26.7144H13.9554V27.3635C13.8743 28.9074 13.0623 29.7189 10.9528 29.8H9.65482V32.4799H10.9528C14.7663 32.4799 16.9569 30.6936 17.038 27.3635V14.5331V11.9344ZM13.9554 24.0345H12.2514C11.4394 24.0345 10.9528 23.5476 10.9528 22.8162V15.9136C10.9528 15.1833 11.4394 14.6954 12.1703 14.6954H13.9554V24.0345ZM34.6436 15.4268V26.7144H31.561V15.9136C31.561 15.1833 31.0745 14.6954 30.3436 14.6954H28.5585V26.7144H25.4759V14.6954H22.4744V26.7144H19.3907V11.9344H31.1556C33.3461 11.9344 34.6436 13.3149 34.6436 15.4268ZM34.6436 32.4799H19.3907V29.8H34.6436V32.4799ZM42.5949 6.98136C42.5949 3.32667 40.1611 0.972412 36.5098 0.972412H6.00384C2.35286 0.972412 0 3.32667 0 6.98136V37.5148C0 41.1691 2.35286 43.6052 6.00384 43.6052H36.5098C40.1611 43.6052 42.5949 41.1691 42.5949 37.5148V6.98136ZM36.1854 40.8443H6.32842C3.89436 40.8443 2.67744 39.6261 2.67744 37.19V7.30593C2.67744 4.86947 3.89436 3.65232 6.32842 3.65232H36.1854C38.6193 3.65232 39.8367 4.86947 39.8367 7.30593V37.19C39.8367 39.6261 38.6193 40.8443 36.1854 40.8443Z" fill="#0372CF"/>
    </g>
    <defs>
        <clipPath id="clip0_30_9436">
            <rect width="160" height="42.6328" fill="white" transform="translate(0 0.972412)"/>
        </clipPath>
    </defs>
</svg>
