<svg width="160" height="40" viewBox="0 0 160 40" fill="none" xmlns="http://www.w3.org/2000/svg">
<g clip-path="url(#clip0_138_1892)">
<path d="M149.371 24.5347V13.8677H145.801V10.3814H149.371V4.15464H153.189V10.3814H158.17V13.8677H153.189V24.2439C153.189 26.5272 154.144 27.5649 155.929 27.5649C156.634 27.5649 157.132 27.4816 157.672 27.2325L159 30.5118C158.128 30.8853 157.215 31.0517 155.929 31.0517C151.653 31.0517 149.371 28.6857 149.371 24.5347ZM124.757 20.55C124.757 14.7804 128.743 9.71715 134.72 9.71715C140.779 9.71715 144.681 13.9919 144.681 20.55C144.681 20.8408 144.64 21.2558 144.64 21.2558H128.577C128.784 25.5727 131.897 27.8966 135.051 27.8966C137.293 27.8966 139.534 26.9838 140.614 24.4103L144.017 25.8213C142.814 28.7267 139.825 31.3834 135.135 31.3834C128.909 31.3834 124.757 26.693 124.757 20.55ZM134.636 13.2034C131.814 13.2034 129.573 15.1128 128.825 18.1013H140.614C140.489 16.3163 138.994 13.2034 134.636 13.2034ZM106.04 27.8966H105.874V30.7187H102.222V1.00005H106.04V10.3808L105.874 13.2034H106.04C107.202 11.3357 109.735 9.71661 112.972 9.71661C118.118 9.71661 122.643 14.3237 122.643 20.55C122.643 26.7763 118.118 31.3834 112.972 31.3834C109.735 31.3834 107.202 29.7643 106.04 27.8966ZM118.824 20.55C118.824 15.9839 115.753 13.2034 112.349 13.2034C108.946 13.2034 105.874 15.9013 105.874 20.55C105.874 25.1988 108.946 27.8966 112.349 27.8966C115.753 27.8966 118.824 25.1161 118.824 20.55ZM80.2246 24.5756C80.2246 19.969 84.3751 17.4782 89.1487 17.4782C91.8881 17.4782 93.8801 18.2667 94.6691 18.7239V18.1429C94.6691 15.0711 92.2199 13.2034 89.3557 13.2034C87.2393 13.2034 85.2052 14.241 84.4999 16.1503L81.0136 14.6561C81.7189 12.7883 84.1676 9.71655 89.273 9.71655C94.2541 9.71655 98.3214 12.7057 98.3214 18.4336V30.7192H94.6691V27.8971H94.5027C93.3824 29.5983 91.3072 31.3834 87.8203 31.3834C83.6693 31.3834 80.2246 28.8099 80.2246 24.5756ZM94.6691 21.961C94.6691 21.961 93.0506 20.6326 89.8123 20.6326C85.7861 20.6326 84.2092 22.7917 84.2092 24.6588C84.2092 26.8178 86.4503 27.8971 88.4429 27.8971C91.4731 27.8971 94.6691 25.2814 94.6691 21.961ZM62.9174 10.3807L62.7515 13.2028H62.9174C63.9967 11.3351 66.5702 9.71655 69.3512 9.71655C74.5393 9.71655 77.1128 13.2445 77.1128 18.2672V30.7192H73.2942V18.8482C73.2942 14.6144 71.1773 13.2028 68.272 13.2028C64.951 13.2028 62.9174 16.3579 62.9174 19.4707V30.7192H59.0988V1.00054H62.9174V10.3807ZM39.6336 27.8965H39.4677L39.6336 30.7186V39.6849H35.815V10.3807H39.4677V13.2034H39.6336C40.7961 11.3357 43.328 9.71655 46.5657 9.71655C51.7122 9.71655 56.2367 14.3237 56.2367 20.55C56.2367 26.7762 51.7122 31.3834 46.5657 31.3834C43.328 31.3834 40.7961 29.7642 39.6336 27.8965ZM52.418 20.55C52.418 15.9839 49.3462 13.2034 45.9431 13.2034C42.539 13.2034 39.4677 15.9012 39.4677 20.55C39.4677 25.1987 42.539 27.8965 45.9431 27.8965C49.3462 27.8965 52.418 25.116 52.418 20.55ZM27.9296 30.7192H31.7483V1.00054H27.9296V30.7192ZM10.2074 1L-1 30.7192H3.23425L6.13905 22.6668H18.6332L21.4974 30.7192H25.7306L14.5238 1H10.2074ZM12.2821 5.69037H12.4485L17.3048 19.0967H7.42634L12.2821 5.69037Z" fill="#ED1C24"/>
</g>
<defs>
<clipPath id="clip0_138_1892">
<rect width="160" height="40" fill="white"/>
</clipPath>
</defs>
</svg>
