<svg width="66" height="10" viewBox="0 0 66 10" fill="none" xmlns="http://www.w3.org/2000/svg">
    <g clip-path="url(#clip0_723_471)">
        <path fill-rule="evenodd" clip-rule="evenodd" d="M7.10701 7.60527H5.79315V0H7.10701V7.60527ZM5.14071 1.72576C5.14071 2.10234 4.83158 2.40752 4.45013 2.40752C4.06867 2.40752 3.75953 2.10234 3.75953 1.72576C3.75953 1.34918 4.06867 1.04422 4.45013 1.04422C4.83158 1.04422 5.14071 1.34918 5.14071 1.72576ZM2.59902 4.77245C3.13766 4.77245 3.49699 4.42852 3.49699 3.8963C3.49699 3.36432 3.12717 2.99945 2.56731 2.99945C2.06014 2.99945 1.70104 3.35396 1.70104 3.91725C1.70104 4.4596 2.03916 4.77245 2.59902 4.77245ZM1.42651 8.04751C1.42651 8.40203 1.82782 8.65271 2.50403 8.65271C3.42323 8.65271 3.94089 8.36059 3.94089 7.97457C3.94089 7.67208 3.69791 7.55719 3.20147 7.53647L1.98638 7.47385C1.60606 7.65113 1.42651 7.81801 1.42651 8.04751ZM0.412122 6.36819C0.412122 5.98213 0.697299 5.60693 1.23617 5.33552C0.72924 5.03327 0.465048 4.54295 0.465048 3.90666C0.465048 2.79067 1.31009 2.00868 2.56739 2.00868C3.08322 2.00868 3.59678 2.17287 3.99147 2.50553C4.25224 2.72513 4.45734 3.01297 4.56958 3.33325C4.64579 3.55014 4.66973 3.78258 4.66973 4.01119C4.66973 5.06458 3.8879 5.75309 2.5991 5.75309C2.36663 5.75309 2.16586 5.73214 1.9968 5.69024C1.75383 5.78417 1.63771 5.90938 1.63771 6.05535C1.63771 6.36605 2.005 6.38984 2.70036 6.43485H2.70047L2.70084 6.43488H2.70091C2.8225 6.44275 2.95412 6.45127 3.09554 6.46209C4.52188 6.56639 5.12398 6.83756 5.12398 7.88059C5.12398 8.95493 4.226 9.57023 2.52518 9.57023C0.972212 9.57023 0.179871 9.09027 0.179871 8.2038C0.179871 7.69276 0.486038 7.41122 1.14104 7.20263C0.644599 6.963 0.412122 6.74363 0.412122 6.36819ZM10.2117 6.60123C10.9217 6.60123 11.2608 6.0258 11.2608 4.86474C11.2608 3.70347 10.9217 3.1386 10.2117 3.1386C9.51248 3.1386 9.16272 3.70347 9.16272 4.86474C9.16272 6.0258 9.51248 6.60123 10.2117 6.60123ZM10.2118 2.01893C11.6954 2.01893 12.5854 3.06534 12.5854 4.86466C12.5854 6.66381 11.6846 7.71022 10.2118 7.71022C8.73886 7.71022 7.83815 6.65345 7.83815 4.86466C7.83815 3.06534 8.72839 2.01893 10.2118 2.01893ZM16.7605 4.86462C16.7605 6.00473 16.3154 6.6221 15.5842 6.6221C15.224 6.6221 14.9272 6.46512 14.5986 6.15135V3.54638C14.9379 3.243 15.2345 3.08602 15.5947 3.08602C16.3047 3.08602 16.7605 3.71373 16.7605 4.86462ZM13.3165 0.000363012V6.32925C13.3165 6.59075 13.2952 7.01979 13.2528 7.60539H14.2701L14.4081 7.01979C14.8637 7.5009 15.3193 7.71014 15.9127 7.71014C17.1737 7.71014 18.0744 6.57003 18.0744 4.86458C18.0744 3.09679 17.1524 2.01908 15.9552 2.01908C15.3935 2.01908 14.9908 2.20737 14.6093 2.64701V0.000363012H13.3165ZM19.7589 6.09905C19.7589 6.46528 19.9709 6.68511 20.3524 6.68511C20.7658 6.68511 21.1684 6.49659 21.5711 6.10941V4.93776C20.3419 5.10514 19.7589 5.45041 19.7589 6.09905ZM21.6028 7.12424C21.0943 7.49023 20.5431 7.66816 19.9497 7.66816C19.0173 7.66816 18.4663 7.11365 18.4663 6.20354C18.4663 4.97962 19.4941 4.33098 21.6134 4.06948V3.64066C21.6134 3.24313 21.338 3.01295 20.8292 3.01295C20.3207 3.01295 19.9073 3.23255 19.6107 3.64066L18.7205 3.08615C19.1868 2.37466 19.8968 2.01902 20.8507 2.01902C22.1538 2.01902 22.885 2.63637 22.885 3.64066V6.86277C22.885 7.05129 22.917 7.30217 22.9699 7.60535H21.7194L21.6028 7.12424ZM25.3113 7.60527H23.9974V0H25.3113V7.60527ZM27.2141 6.14069C27.7651 6.83123 28.2631 7.1765 28.8777 7.1765C29.7892 7.1765 30.3294 6.37088 30.3294 4.87491C30.3294 3.37896 29.7892 2.57355 28.8777 2.57355C28.2631 2.57355 27.7651 2.90824 27.2141 3.59856V6.14069ZM26.557 2.13412H27.0446L27.2141 2.84539H27.267C27.7863 2.30147 28.3372 2.02939 28.9306 2.02939C30.1387 2.02939 30.9864 3.06499 30.9864 4.86455C30.9864 6.66389 30.1387 7.69948 28.9306 7.69948C28.3372 7.69948 27.7863 7.43801 27.267 6.89385H27.2141V9.59299H26.557V2.13412ZM32.0672 6.21405C32.0672 5.28295 32.9254 4.93768 34.7905 4.52983V6.21405C34.1442 6.8625 33.5932 7.18705 32.9891 7.18705C32.4169 7.18705 32.0672 6.82083 32.0672 6.21405ZM32.9044 7.70976C33.5825 7.70976 34.1864 7.43816 34.7905 6.88342C34.8012 7.1138 34.8434 7.35436 34.8966 7.60527H35.5429C35.4793 7.26023 35.4475 7.00908 35.4475 6.87283V3.47324C35.4475 2.65724 34.7163 2.03967 33.6673 2.03967C32.7135 2.03967 32.1308 2.40589 31.6962 3.15927L32.2049 3.4523C32.5335 2.86625 32.9784 2.57323 33.5825 2.57323C34.3454 2.57323 34.8012 2.93945 34.8012 3.47324V4.00658C32.4803 4.41448 31.4101 4.97955 31.4101 6.24513C31.4101 7.09289 31.993 7.70976 32.9044 7.70976ZM36.0299 2.13418H36.6869L38.3188 6.7894L39.94 2.13418H40.5654L38.4776 8.03446C38.0962 9.12208 37.651 9.57188 36.6974 9.57188C36.5279 9.57188 36.3372 9.56175 36.1252 9.53021V9.00723C36.2947 9.03855 36.4538 9.0491 36.5916 9.0491C37.3862 9.0491 37.7464 8.6097 37.9584 7.57388L36.0299 2.13418ZM41.8264 2.13416H41.222V7.60539H41.8578V3.61953C42.4088 2.9398 42.9495 2.60489 43.4579 2.60489C44.2419 2.60489 44.4115 3.06525 44.4115 4.02765V7.60539H45.0473V3.61953C45.588 2.9398 46.139 2.60489 46.6474 2.60489C47.4317 2.60489 47.6014 3.06525 47.6014 4.02765V7.60539H48.2264V3.79746C48.2264 2.62583 47.7602 2.04001 46.8278 2.04001C46.2345 2.04001 45.6517 2.35376 45.0473 2.98147H44.9736C44.7192 2.35376 44.2741 2.04001 43.649 2.04001C43.0662 2.04001 42.4514 2.35376 41.8686 2.98147H41.8264V2.13416ZM51.3208 2.56298C50.4516 2.56298 49.8369 3.21164 49.7314 4.38328H52.7728C52.7405 3.20105 52.1895 2.56298 51.3208 2.56298ZM53.4189 6.28715C52.9312 7.27048 52.3062 7.69955 51.3311 7.69955C49.9539 7.69955 49.0741 6.62183 49.0741 4.90606C49.0741 3.09657 49.9854 2.02945 51.31 2.02945C52.6454 2.02945 53.3871 2.93959 53.3871 4.6761V4.85403H49.731C49.7417 6.37069 50.3246 7.17635 51.3737 7.17635C52.0836 7.17635 52.5395 6.83131 52.9312 6.02565L53.4189 6.28715ZM54.902 2.13416H54.2451V7.60539H54.902V3.61953C55.4956 2.9398 56.0777 2.60489 56.6292 2.60489C57.4768 2.60489 57.6679 3.06525 57.6679 4.02765V7.60539H58.3145V3.79746C58.3145 2.62583 57.816 2.04001 56.8202 2.04001C56.2051 2.04001 55.559 2.35376 54.902 2.99205V2.13416ZM61.0159 7.19734C61.1644 7.19734 61.3554 7.15544 61.5987 7.09258V7.61579C61.3554 7.67887 61.101 7.72031 60.8566 7.72031C60.0938 7.72031 59.7653 7.34373 59.7653 6.54866V2.66778H58.9392V2.13421H59.7653V0.512574H60.4119V2.13421H61.5669V2.66778H60.4119V6.5802C60.4119 6.99846 60.603 7.19734 61.0159 7.19734ZM65.0749 6.18267C65.0749 6.7579 64.619 7.18698 63.9302 7.18698C63.2836 7.18698 62.7326 6.86266 62.256 6.2347L61.7683 6.62187C62.3194 7.35432 62.9866 7.69936 63.8562 7.69936C65 7.69936 65.7421 7.04059 65.7421 6.13044C65.7421 5.26197 65.1808 4.92725 64.0783 4.51916C63.9897 4.486 63.9045 4.45477 63.8232 4.42488C63.0576 4.1438 62.616 3.98176 62.616 3.45225C62.616 2.91868 63.0081 2.55269 63.6121 2.55269C64.2268 2.55269 64.6827 2.81418 65.1063 3.36846L65.5725 3.03377C65.0852 2.37476 64.4494 2.02948 63.7284 2.02948C62.6267 2.02948 61.9379 2.64661 61.9379 3.48355C61.9379 4.32028 62.5208 4.63447 63.644 5.04236C63.6996 5.06285 63.7541 5.08261 63.8067 5.10184C64.6171 5.39684 65.0749 5.56357 65.0749 6.18267Z" fill="#003C71"/>
    </g>
    <defs>
        <clipPath id="clip0_723_471">
            <rect width="66" height="9.59302" fill="white"/>
        </clipPath>
    </defs>
</svg>
