<svg width="132" height="40" viewBox="0 0 132 40" fill="none" xmlns="http://www.w3.org/2000/svg">
<g clip-path="url(#clip0_112_5614)">
<mask id="mask0_112_5614" style="mask-type:luminance" maskUnits="userSpaceOnUse" x="0" y="0" width="132" height="40">
<path d="M131.339 0H0.661133V40H131.339V0Z" fill="white"/>
</mask>
<g mask="url(#mask0_112_5614)">
<path d="M48.1189 15.0847H41.1697C37.9494 15.0847 36.4239 14.5762 36.4239 13.3898V7.96605C36.4239 6.9491 37.9494 6.27113 41.1697 6.27113H48.1189C51.3392 6.27113 52.8646 6.77961 52.8646 7.96605V13.3898C52.8646 14.5762 51.3392 15.0847 48.1189 15.0847ZM48.1189 17.6271C53.8816 17.6271 56.7629 16.1016 56.7629 13.2203V8.13554C56.7629 5.08469 53.8816 3.72876 48.1189 3.72876H41.1697C35.407 3.72876 32.5256 5.25418 32.5256 8.13554V13.2203C32.5256 16.2711 35.407 17.6271 41.1697 17.6271H48.1189Z" fill="black"/>
</g>
<mask id="mask1_112_5614" style="mask-type:luminance" maskUnits="userSpaceOnUse" x="0" y="0" width="132" height="40">
<path d="M131.339 0H0.661133V40H131.339V0Z" fill="white"/>
</mask>
<g mask="url(#mask1_112_5614)">
<path d="M122.695 15.0847H115.746C112.526 15.0847 111 14.5762 111 13.3898V7.96605C111 6.9491 112.526 6.27113 115.746 6.27113H122.695C125.915 6.27113 127.441 6.77961 127.441 7.96605V13.3898C127.441 14.5762 125.915 15.0847 122.695 15.0847ZM122.695 17.6271C128.458 17.6271 131.339 16.1016 131.339 13.2203V8.13554C131.339 5.08469 128.458 3.72876 122.695 3.72876H115.746C109.983 3.72876 107.102 5.25418 107.102 8.13554V13.2203C107.102 16.2711 109.983 17.6271 115.746 17.6271H122.695Z" fill="black"/>
</g>
<mask id="mask2_112_5614" style="mask-type:luminance" maskUnits="userSpaceOnUse" x="0" y="0" width="132" height="40">
<path d="M131.339 0H0.661133V40H131.339V0Z" fill="white"/>
</mask>
<g mask="url(#mask2_112_5614)">
<path d="M28.6272 13.2203V9.66102C28.6272 8.98305 28.1188 8.64407 27.1018 8.64407H18.6272C17.7798 8.64407 17.2713 9.32203 17.2713 10C17.2713 10.678 17.9493 11.3559 18.6272 11.3559H24.3899V13.2203C24.3899 13.7288 23.712 14.4068 22.356 14.5763C21.3391 14.9153 20.4916 14.9153 19.6442 14.9153H10.3221C6.59334 14.9153 4.72893 14.2373 4.72893 13.0508V4.40678C4.72893 3.22034 6.93232 2.71186 11.3391 2.71186H13.8815C14.8984 2.71186 15.4069 2.20339 15.4069 1.35593C15.5764 0.508475 15.0679 0 14.051 0H10.3221C8.11876 0 6.08486 0.169492 4.22045 0.847458C2.01706 1.52542 0.661133 2.71186 0.661133 4.40678V13.2203C0.661133 14.9153 1.84757 16.1017 4.05096 16.7797C5.74588 17.2881 7.77978 17.6271 10.3221 17.6271H19.6442C21.8476 17.6271 23.8815 17.2881 25.4069 16.7797C27.4408 15.9322 28.6272 14.7458 28.6272 13.2203Z" fill="black"/>
</g>
<mask id="mask3_112_5614" style="mask-type:luminance" maskUnits="userSpaceOnUse" x="0" y="0" width="132" height="40">
<path d="M131.339 0H0.661133V40H131.339V0Z" fill="white"/>
</mask>
<g mask="url(#mask3_112_5614)">
<path d="M85.0678 6.94915C85.0678 8.30508 83.2034 8.81356 79.6441 8.81356H65.0678V2.54237H79.6441C83.2034 2.54237 85.0678 2.88136 85.0678 4.40678V6.94915ZM85.5763 0.677966C83.8814 0.338983 82.0169 0 79.6441 0H62.1864C61.5085 0 61 0.508475 61 1.18644V16.6102C61 17.4576 61.5085 17.7966 62.5254 17.7966H63.7119C64.7288 17.7966 65.2373 17.4576 65.2373 16.6102V11.3559H79.8136C82.3559 11.3559 84.2203 11.0169 85.9153 10.5085C88.1186 9.66102 89.3051 8.47458 89.3051 6.61017V3.8983C89.1356 2.54237 87.9492 1.52542 85.5763 0.677966Z" fill="black"/>
</g>
<mask id="mask4_112_5614" style="mask-type:luminance" maskUnits="userSpaceOnUse" x="0" y="0" width="132" height="40">
<path d="M131.339 0H0.661133V40H131.339V0Z" fill="white"/>
</mask>
<g mask="url(#mask4_112_5614)">
<path d="M102.865 3.72876C99.3052 3.72876 97.7798 3.72876 95.5764 4.57622C93.5425 5.42367 92.6951 6.77961 92.6951 8.13554V16.6101C92.6951 17.2881 93.2035 17.7966 94.051 17.7966H95.2374C96.0849 17.7966 96.5934 17.4576 96.5934 16.6101V8.13554C96.5934 6.9491 98.1188 6.44062 101.17 6.44062H102.865C103.882 6.44062 104.39 5.93215 104.39 5.08469C104.22 4.23723 103.712 3.72876 102.865 3.72876Z" fill="black"/>
</g>
<path d="M28.9662 22.0339H0.661133V40H28.9662V22.0339Z" fill="#109DD9"/>
<path d="M63.0341 22.0339H34.729V40H63.0341V22.0339Z" fill="#109DD9"/>
<path d="M97.1017 22.0339H68.7966V40H97.1017V22.0339Z" fill="#075DAA"/>
<path d="M131.17 22.0339H102.865V40H131.17V22.0339Z" fill="#E8E8EA"/>
</g>
<defs>
<clipPath id="clip0_112_5614">
<rect width="130.678" height="40" fill="white" transform="translate(0.661133)"/>
</clipPath>
</defs>
</svg>
