<svg width="160" height="26" viewBox="0 0 160 26" fill="none" xmlns="http://www.w3.org/2000/svg">
<g clip-path="url(#clip0_112_5651)">
<path d="M79.6655 25.4754C85.0668 25.4754 88.665 21.9751 88.665 16.0679V0.957275H82.7578V15.8313C82.7578 18.5809 81.7705 19.9435 79.6981 19.9435C77.6991 19.9435 76.8424 18.5483 76.8424 15.8313V0.957275H70.9026V16.0679C70.9107 22.1057 74.1989 25.4754 79.6655 25.4754Z" fill="#53A318"/>
<path d="M104.494 2.27905C102.862 1.12862 100.928 0.957275 98.3826 0.957275H90.3704V25.1001H96.2776V17.3244H97.9747C100.488 17.3244 102.389 17.1531 103.923 16.2393C106.33 14.7788 107.757 12.2005 107.757 9.07558C107.757 6.04855 106.64 3.77217 104.494 2.27905ZM97.4361 12.0945H96.351V6.3586H97.9094C100.528 6.3586 101.785 7.17451 101.785 9.17349C101.777 11.3438 100.357 12.0945 97.4361 12.0945Z" fill="#53A318"/>
<path d="M140.426 11.6539L149.426 25.1001H154.615V0.957275H148.716V14.3708L139.847 0.957275H134.519V25.1001H140.426V11.6539Z" fill="#53A318"/>
<path d="M65.6401 4.08213C63.2984 1.7731 60.2469 0.516602 57.0159 0.516602C53.5891 0.516602 50.5947 1.70783 48.2204 4.04949C45.8461 6.39116 44.5488 9.45082 44.5488 12.7797C44.5488 16.3453 45.7074 19.3315 47.9757 21.7466C50.35 24.2596 53.4096 25.5487 56.9751 25.5487C60.3367 25.5487 63.5269 24.227 65.8686 21.7792C68.145 19.4376 69.3688 16.3453 69.3688 12.8858C69.377 9.58136 68.0878 6.48906 65.6401 4.08213ZM56.9833 19.5681C53.6544 19.5681 50.6355 16.6471 50.6355 12.845C50.6355 9.31211 53.4504 6.49722 57.0567 6.49722C60.4509 6.49722 63.274 9.31211 63.274 12.845C63.2658 16.7777 60.4509 19.5681 56.9833 19.5681Z" fill="#53A318"/>
<path d="M129.624 4.08213C127.282 1.7731 124.222 0.516602 121 0.516602C117.565 0.516602 114.578 1.70783 112.204 4.04949C109.83 6.39116 108.532 9.45082 108.532 12.7797C108.532 16.3453 109.691 19.3315 111.959 21.7466C114.342 24.2596 117.393 25.5487 120.959 25.5487C124.32 25.5487 127.511 24.227 129.852 21.7792C132.129 19.4376 133.352 16.3453 133.352 12.8858C133.361 9.58136 132.071 6.48906 129.624 4.08213ZM120.967 19.5681C117.638 19.5681 114.619 16.6471 114.619 12.845C114.619 9.31211 117.442 6.49722 121.04 6.49722C124.435 6.49722 127.258 9.31211 127.258 12.845C127.249 16.7777 124.426 19.5681 120.967 19.5681Z" fill="#53A318"/>
<path d="M3.43506 21.7384C5.80936 24.2514 8.83639 25.5732 12.4019 25.5732C16.5141 25.5732 20.3815 23.5334 22.6905 20.1719C24.0858 18.1321 24.763 15.8231 24.763 13.1061C24.763 12.6002 24.7303 12.0536 24.6977 11.5069H10.9414V16.3289H17.8359C16.6447 18.434 14.6457 19.5926 12.4019 19.5926C9.073 19.5926 6.08677 16.639 6.08677 12.7961C6.08677 9.32844 8.86903 6.44827 12.4019 6.44827C14.303 6.44827 15.8614 7.23155 17.3627 8.78994H24.0858C22.152 3.62522 17.6319 0.467651 12.4753 0.467651C9.04853 0.467651 6.0623 1.69152 3.67984 4.03318C1.30554 6.37484 0.0164005 9.43451 0.0164005 12.7634C0.00824141 16.3371 1.15867 19.3233 3.43506 21.7384Z" fill="#53A318"/>
<path d="M38.1682 16.8104C41.5951 15.8558 43.6348 12.943 43.6348 9.03479C43.6348 6.04855 42.5171 3.77217 40.3712 2.27905C38.7394 1.12862 36.8057 0.957275 34.26 0.957275H26.2478V25.1001H32.155V17.3244L36.773 25.1001H44.0754L38.1682 16.8104ZM33.3136 12.0945H32.1632V6.3586H33.795C36.4059 6.3586 37.6624 7.17451 37.6624 9.17349C37.6624 11.3438 36.2345 12.0945 33.3136 12.0945Z" fill="#53A318"/>
<path d="M158.164 4.01689C158.67 4.01689 159.103 3.83739 159.453 3.47839C159.812 3.11939 159.984 2.68696 159.984 2.18925C159.984 1.68339 159.804 1.25911 159.453 0.908271C159.103 0.55743 158.67 0.37793 158.164 0.37793C157.667 0.37793 157.234 0.55743 156.883 0.908271C156.524 1.26727 156.353 1.69154 156.353 2.18925C156.353 2.69511 156.533 3.12755 156.883 3.47839C157.234 3.83739 157.658 4.01689 158.164 4.01689ZM157.063 1.07961C157.373 0.769566 157.74 0.614543 158.173 0.614543C158.605 0.614543 158.98 0.769566 159.282 1.07961C159.584 1.3815 159.739 1.75682 159.739 2.18925C159.739 2.62168 159.584 2.997 159.282 3.30705C158.98 3.61709 158.613 3.77212 158.173 3.77212C157.74 3.77212 157.365 3.61709 157.063 3.30705C156.761 2.997 156.606 2.62984 156.606 2.18925C156.606 1.75682 156.753 1.38966 157.063 1.07961Z" fill="#53A318"/>
<path d="M158.972 3.15199C158.964 3.13568 158.956 3.10304 158.956 3.04593C158.956 2.99697 158.948 2.93986 158.948 2.89906V2.7522C158.948 2.65429 158.915 2.54822 158.842 2.44215C158.768 2.33608 158.654 2.27081 158.499 2.24633C158.621 2.23001 158.719 2.19738 158.784 2.14842C158.915 2.06683 158.98 1.92813 158.98 1.75679C158.98 1.50385 158.874 1.33251 158.67 1.25092C158.556 1.20197 158.376 1.17749 158.124 1.17749H157.422V3.17647H157.773V2.3932H158.05C158.238 2.3932 158.368 2.41767 158.442 2.45847C158.572 2.5319 158.629 2.68692 158.629 2.91538V3.0704L158.638 3.13568C158.638 3.14383 158.638 3.15199 158.638 3.16015C158.638 3.16831 158.638 3.17647 158.646 3.17647H158.972V3.15199ZM158.442 2.09947C158.368 2.13211 158.254 2.14026 158.107 2.14026H157.789V1.4141H158.091C158.287 1.4141 158.425 1.43858 158.515 1.48754C158.605 1.53649 158.646 1.6344 158.646 1.78126C158.646 1.94445 158.572 2.05051 158.442 2.09947Z" fill="#53A318"/>
</g>
<defs>
<clipPath id="clip0_112_5651">
<rect width="160" height="25.2932" fill="white" transform="translate(0 0.353394)"/>
</clipPath>
</defs>
</svg>
