<svg width="92" height="41" viewBox="0 0 92 41" fill="none" xmlns="http://www.w3.org/2000/svg">
    <path d="M8.62451 10.7714H13.9773V19.5391C12.1899 19.9012 10.8211 20.0847 9.32065 20.0847C3.45047 20.0847 1.38086 16.7216 1.38086 11.1853C1.38086 5.23519 4.2501 1.87207 9.96976 1.87207C10.6941 1.87207 12.0629 1.92381 13.7703 2.18251V7.79399H12.5286L11.8277 5.64912C11.1551 3.60772 10.3555 2.59644 9.08547 2.59644C6.88885 2.59644 5.72235 5.56915 5.72235 11.1336C5.72235 16.7216 6.18801 19.3603 9.05725 19.3603C9.44765 19.3603 9.90861 19.3086 10.3508 19.1816V12.6576L8.61981 11.4676V10.7714H8.62451ZM13.8738 34.3086C13.8738 37.8269 11.4702 39.8448 7.22752 39.8448C6.06571 39.8448 4.35828 39.666 2.75433 39.4026V32.5259H3.9961L4.5135 34.1534C5.67531 37.9022 6.50315 39.1439 7.98011 39.1439C9.53232 39.1439 10.6424 37.7752 10.6424 35.9643C10.6424 34.492 9.94624 33.4572 8.44577 32.6529L5.85875 31.2559C3.8644 30.1976 2.77785 28.5419 2.77785 26.524C2.77785 23.4713 5.2849 21.6369 9.40061 21.6369C10.3319 21.6369 11.4185 21.7168 13.1494 21.9473V27.5588H11.9077L11.2115 25.4139C10.5107 23.1374 9.7628 22.3095 8.39403 22.3095C6.86534 22.3095 5.96223 23.2926 5.96223 24.7131C5.96223 25.9784 6.66308 26.8862 8.03185 27.6623L10.6424 29.1345C12.839 30.3763 13.8738 32.032 13.8738 34.3086ZM25.3084 38.3725L25.8258 39.1486V39.5391H21.87L21.6866 38.0386C21.2727 39.1769 20.1861 39.8495 18.7891 39.8495C16.7195 39.8495 15.426 38.556 15.426 36.4346C15.426 34.365 16.5878 32.9962 20.1579 31.5993L21.6819 31.0066V29.0687C21.6819 27.3612 21.3715 26.6651 20.4166 26.6651C19.6405 26.6651 19.2031 27.079 18.4505 28.9652L17.5991 31.0772H16.4373V26.858C17.9613 26.3923 19.49 26.0819 20.807 26.0819C23.728 26.0819 25.3084 27.4788 25.3084 30.0141V38.3725ZM26.8042 13.2032C26.8042 17.6011 24.4524 20.0847 21.4232 20.0847C18.3987 20.0847 16.0469 17.6011 16.0469 13.2032C16.0469 8.80528 18.3987 6.32174 21.4279 6.32174C24.4524 6.32174 26.8042 8.80528 26.8042 13.2032ZM21.6866 36.1994V31.7263L21.1974 31.9332C19.6687 32.5541 19.0996 33.9511 19.0996 35.9925C19.0996 37.5212 19.4618 38.3961 20.3131 38.3961C21.1645 38.3961 21.6866 37.5682 21.6866 36.1994ZM23.0036 13.2032C23.0036 8.23613 22.5897 6.91911 21.4279 6.91911C20.2661 6.91911 19.8522 8.23613 19.8522 13.2032C19.8522 18.1703 20.2661 19.4873 21.4279 19.4873C22.5897 19.4873 23.0036 18.1703 23.0036 13.2032ZM35.9905 36.3264L36.4561 36.5616C35.6283 38.9417 34.57 39.8448 32.5239 39.8448C29.189 39.8448 27.3263 37.3377 27.3263 32.9633C27.3263 28.5936 29.4994 26.0819 33.0413 26.0819C33.9961 26.0819 35.2661 26.2371 36.3526 26.6745V31.0724H35.1391L34.6499 29.4168C34.0008 27.2201 33.6433 26.651 32.9942 26.651C31.9594 26.651 31.1316 27.9962 31.1316 33.1185C31.1316 37.2295 31.7525 38.73 33.3282 38.73C34.3865 38.7347 35.2896 38.0621 35.9905 36.3264ZM33.1165 19.7742H28.4599V19.3885L28.9773 18.6124V4.17687L28.4599 3.40076V3.01036L32.5991 2.69992V18.6077L33.1165 19.3838V19.7742ZM39.4806 20.0847C36.6349 20.0847 34.9274 17.4977 34.9274 13.0762C34.9274 8.67828 36.7101 6.32644 39.4524 6.32644C40.8493 6.32644 41.6255 6.86737 41.9594 7.95391V4.17687L41.442 3.40076V3.01036L45.5812 2.69992V18.6077L46.0986 19.3838V19.7695H42.4251L42.1429 17.8034C41.7336 19.4873 40.9575 20.0847 39.4806 20.0847ZM48.5587 38.3725L49.0761 39.1486V39.5391H44.4194V39.1486L44.9368 38.3725V29.0593C44.9368 27.9492 44.6029 27.2766 43.7985 27.2766C42.839 27.2766 42.1429 28.0809 42.1429 29.6566V38.3725L42.6603 39.1486V39.5391H38.0036V39.1486L38.521 38.3725V23.937L38.0036 23.1609V22.7752L42.1429 22.4647V27.8175C42.6085 26.7074 43.6668 26.0866 45.1673 26.0866C47.2887 26.0866 48.554 27.4318 48.554 30.0423V38.3725H48.5587ZM38.7327 13.1232C38.7327 17.7799 39.1466 19.2004 40.2849 19.2004C41.7054 19.2004 41.9641 17.159 41.9641 13.0715C41.9641 9.11572 41.6819 7.14959 40.3084 7.14959C39.1466 7.14959 38.7327 8.54658 38.7327 13.1232ZM64.7016 18.6077L65.2191 19.3838V19.7695H60.5624V19.3838L61.0798 18.6077V9.01224C61.0798 8.08091 60.7694 7.51177 60.045 7.51177C59.1419 7.51177 58.4175 8.3161 58.4175 9.8636V18.6077L58.9349 19.3838V19.7695H54.2783V19.3838L54.7957 18.6077V9.01224C54.7957 8.08091 54.4853 7.51177 53.7609 7.51177C52.8578 7.51177 52.1334 8.3161 52.1334 9.8636V18.6077L52.6508 19.3838V19.7695H47.9942V19.3838L48.5116 18.6077V8.08091L47.9942 7.46003V7.07433L51.7195 6.63218H52.03L52.1334 8.08091C52.5709 6.94263 53.6574 6.32174 55.1344 6.32174C56.7101 6.32174 57.7449 7.09785 58.2106 8.49484C58.5963 7.14959 59.8145 6.32174 61.3667 6.32174C63.4081 6.32174 64.7016 7.66699 64.7016 10.2775V18.6077ZM59.8663 35.7338C59.8663 37.9821 58.4175 39.8448 54.9274 39.8448C54.0243 39.8448 52.8061 39.7413 50.9199 39.4026V34.5955H51.9782L52.3122 35.6303C53.14 38.2691 53.9397 39.2521 55.2096 39.2521C56.3997 39.2521 57.1758 38.3961 57.1758 37.079C57.1758 35.9925 56.6302 35.2446 55.3413 34.5438L53.1165 33.3537C51.696 32.5776 50.9199 31.3641 50.9199 29.8636C50.9199 27.5118 52.759 26.0866 55.807 26.0866C56.6866 26.0866 57.8249 26.2136 59.0667 26.4723V30.2493H58.0083L57.4627 28.8758C56.8418 27.2201 56.2492 26.6792 55.2661 26.6792C54.2078 26.6792 53.5869 27.3001 53.5869 28.3349C53.5869 29.2145 54.1043 29.8072 55.3696 30.5315L57.5662 31.7733C59.062 32.6294 59.8663 33.8429 59.8663 35.7338ZM76.6019 18.6077L77.1193 19.3838V19.7695H73.1635L72.9848 18.2691C72.5709 19.4073 71.4843 20.08 70.0873 20.08C68.0177 20.08 66.7242 18.7865 66.7242 16.6651C66.7242 14.5955 67.886 13.2267 71.4561 11.8297L72.9801 11.2371V9.29916C72.9801 7.59173 72.6697 6.89559 71.7148 6.89559C70.9387 6.89559 70.5013 7.30951 69.7487 9.19568L68.8973 11.317H67.7308V7.10255C69.2595 6.63689 70.7835 6.32644 72.1005 6.32644C75.0215 6.32644 76.6019 7.72343 76.6019 10.2587V18.6077ZM72.9801 16.4346V11.9614L72.4909 12.1684C70.9669 12.7893 70.3978 14.1863 70.3978 16.2277C70.3978 17.7564 70.76 18.6359 71.6113 18.6359C72.4627 18.6359 72.9801 17.8081 72.9801 16.4346ZM89.8945 19.3838V19.7695H85.2379V19.3838L85.7553 18.6077V9.29446C85.7553 8.17969 85.4213 7.51177 84.617 7.51177C83.6574 7.51177 82.9613 8.3161 82.9613 9.89182V18.6077L83.4787 19.3838V19.7695H78.8221V19.3838L79.3395 18.6077V8.08091L78.8221 7.46003V7.07433L82.5474 6.63218H82.8578L82.9613 8.08091C83.3987 6.94263 84.4618 6.32174 85.9857 6.32174C88.1071 6.32174 89.3724 7.66699 89.3724 10.2775V18.6077L89.8945 19.3838Z" fill="black"/>
</svg>
