<svg width="160" height="30" viewBox="0 0 160 30" fill="none" xmlns="http://www.w3.org/2000/svg">
<g clip-path="url(#clip0_112_5709)">
<path fill-rule="evenodd" clip-rule="evenodd" d="M78.2094 7.3645L78.1494 7.54813L79.5433 9.85176L79.7258 9.91176L84.0918 7.3645L84.1524 7.18329C83.7288 6.15178 84.0918 5.00027 84.2736 3.96936C82.0906 5.12148 80.0894 6.33481 78.2094 7.3645Z" fill="black"/>
<path fill-rule="evenodd" clip-rule="evenodd" d="M14.2932 7.91067C10.412 6.75976 6.04533 7.72946 3.31686 10.4573C1.01202 12.7622 0.102931 16.3409 0.951413 19.6137C1.31505 21.1918 3.13443 22.7688 5.19685 22.7688H15.5059L15.7483 22.6476L17.7495 14.8246C15.6277 14.7634 13.3829 14.8246 11.0786 14.8246C11.0786 14.8246 9.44108 20.7064 9.44108 20.8276C8.77381 20.9488 7.98593 21.0706 7.31866 20.8276C6.95563 20.6458 6.77321 20.2221 6.89442 19.7973L9.19926 10.8834C9.25987 10.5798 9.74471 10.0949 10.109 9.91187C11.2005 9.42703 12.5956 9.60945 13.5047 10.1549C13.5047 10.1549 14.0502 10.4573 14.5356 10.761C14.8992 10.0949 15.2635 9.36581 15.5671 8.63854C15.1417 8.27552 14.7174 8.2143 14.2932 7.91067Z" fill="black"/>
<path fill-rule="evenodd" clip-rule="evenodd" d="M93.1267 7.72937L93.1885 7.91058L95.614 16.1572L93.9158 22.8287H101.132L102.952 16.219L109.985 7.78998L109.925 7.72998H106.65C105.195 9.36633 103.678 11.1863 102.163 12.8839C101.921 13.0663 101.921 13.1263 101.799 12.7027C101.313 11.0651 100.828 9.36633 100.282 7.72998H93.1267V7.72937Z" fill="black"/>
<path fill-rule="evenodd" clip-rule="evenodd" d="M111.441 7.72937C110.169 12.7021 108.955 17.6142 107.561 22.5869L107.5 22.8281H119.932C120.173 22.0402 120.478 21.1917 120.538 20.3414H115.443L115.08 20.2814L115.99 16.7639L116.293 16.5227H119.689L119.87 16.339C120.052 15.5505 120.295 14.7009 120.416 13.913L116.839 13.853V13.6712C117.203 12.579 117.384 11.3675 117.809 10.336C119.568 10.2142 121.69 10.396 123.327 10.2748C123.569 9.48754 123.752 8.57724 123.935 7.72876L111.441 7.72937Z" fill="black"/>
<path fill-rule="evenodd" clip-rule="evenodd" d="M81.4233 10.1549C82.4549 10.2149 83.4258 10.3973 84.4561 10.2761C84.5167 9.67005 84.6385 8.88096 84.7597 8.27551C83.6064 8.76097 82.5155 9.48824 81.4233 10.1549Z" fill="black"/>
<path fill-rule="evenodd" clip-rule="evenodd" d="M80.2718 11.0033C80.3318 11.7306 80.21 12.5797 80.0894 13.3081C81.2415 12.8221 82.4542 12.0954 83.6663 11.4281L80.2718 11.0033Z" fill="black"/>
<path fill-rule="evenodd" clip-rule="evenodd" d="M80.4529 14.3996C81.3026 16.3408 82.3941 18.2196 83.3044 20.0996H83.4856C85.4256 18.2808 87.6692 16.8263 89.7916 15.4911L88.5177 13.3087C87.9728 13.7936 87.4262 14.8251 86.6377 15.1269C85.7286 14.2796 85.1213 13.3087 84.8189 12.1554C83.3044 12.8833 81.848 13.5505 80.4529 14.3996Z" fill="black"/>
<path fill-rule="evenodd" clip-rule="evenodd" d="M79.4827 15.1276C78.2088 17.4924 77.2378 20.0397 76.45 22.6475C75.7839 23.9809 74.6312 25.0724 73.6615 26.2239C73.3573 26.5887 73.0554 27.0124 73.236 27.5596C73.2979 27.7396 73.4191 27.9833 73.6615 27.9239C77.2991 26.8324 79.9075 23.6184 82.5754 20.8875C81.7269 18.9488 80.6354 17.1288 79.7251 15.2482L79.4827 15.1276Z" fill="black"/>
<path fill-rule="evenodd" clip-rule="evenodd" d="M90.2771 16.2797L87.3668 18.1597C83.0607 20.9493 80.2717 25.679 75.7226 27.9833C75.1165 28.2863 74.4505 28.4693 73.9038 28.8948C74.085 29.136 74.085 29.5008 74.4505 29.4396C76.2693 28.7111 77.9662 27.6802 79.4826 26.4063C82.9395 23.1324 86.5765 19.1912 90.7619 16.8857C90.6407 16.6439 90.4595 16.4015 90.2771 16.2797Z" fill="black"/>
<path fill-rule="evenodd" clip-rule="evenodd" d="M106.832 0.754883C106.832 1.78639 106.104 2.63488 105.317 3.24093C102.647 4.75729 99.0092 4.27245 95.9165 3.96942C95.8553 4.03002 95.7947 4.03002 95.7341 4.15123C95.9777 4.63669 96.6444 4.75729 97.2504 4.93972C96.5226 5.7282 95.4917 5.84941 94.4002 5.7888C94.582 6.03183 94.8856 6.21304 95.3105 6.27426C95.4917 6.51668 94.7032 6.75971 94.4002 6.81971C93.5505 7.18334 92.5814 6.94031 91.8523 6.69789C91.4899 7.12213 91.9147 7.7294 91.6717 8.33485C91.5499 8.76031 91.3686 9.36576 91.065 9.66939C90.6396 9.60939 90.2165 8.76031 90.0941 9.30576C90.1553 10.033 89.8517 10.5797 89.6087 11.1258C89.0638 11.2458 88.5784 9.60939 88.3359 10.8833C88.0935 11.7918 87.6075 12.6409 87.062 13.3082C86.6372 13.2482 86.3941 12.7621 86.2135 12.3985C85.5456 11.1258 85.7281 9.42697 85.9093 8.09183C85.0008 6.94031 84.8796 5.06032 85.4844 3.72699C87.0626 0.634277 90.8226 1.05791 93.8547 1.05791C98.0995 1.48336 102.769 1.66579 106.832 0.754883ZM91.0656 2.39245C90.8238 2.63488 90.6402 2.8779 90.3377 3.06033C89.9735 3.24093 89.4281 2.81669 89.1862 3.24093C88.9426 3.96942 88.2153 4.03002 87.6699 4.09063C87.7911 4.45366 88.2759 4.51487 88.6402 4.57608C89.1862 4.63669 89.6711 4.39366 89.9741 4.03002C90.6408 4.21184 91.1862 3.78699 91.5511 3.24093C91.9753 3.24093 92.3396 3.18093 92.6432 2.93851C92.7044 2.81669 92.885 2.57427 92.6432 2.51427C92.0959 2.63488 91.5505 2.45306 91.0656 2.39245ZM86.3353 6.09062C86.0317 6.75971 87.1844 6.63668 87.1244 7.36455C87.2444 7.66819 87.6087 7.91061 87.9129 7.8494V7.66819C87.8517 7.60819 87.6699 6.69789 87.6087 6.33426C87.1244 6.33426 86.7602 6.15183 86.3353 6.09062Z" fill="black"/>
<path fill-rule="evenodd" clip-rule="evenodd" d="M70.0832 7.60815H60.5626L56.6814 22.8287H67.1729C68.2026 22.8287 69.4165 22.2226 70.3856 21.616C73.5395 19.4936 75.6014 15.3099 74.6929 11.3069C74.2074 9.42693 72.3874 7.60815 70.0832 7.60815ZM136.729 7.72936H130.543C127.511 12.7021 124.358 17.796 121.327 22.7075L121.265 22.8287H124.177C124.661 22.162 125.025 21.3136 125.692 20.5245H131.21V20.7063C131.27 21.556 131.27 22.1014 131.331 22.8287C133.575 22.8287 135.697 22.7687 138.062 22.8287L136.85 8.09239L136.729 7.72936ZM34.2439 8.39603C31.3936 6.75967 27.5124 6.94088 24.9658 8.39603C21.6913 10.276 19.6294 13.9748 19.9931 17.796C20.1749 20.0996 21.9943 22.1014 24.0555 22.7687C27.7549 23.739 31.7579 22.9499 34.2439 20.0996C36.4882 17.6148 37.7609 12.8833 36.2451 10.5184C35.8209 9.79178 35.2748 9.0033 34.2439 8.39603ZM55.3463 10.5184C56.8638 12.8833 55.5899 17.6148 53.3469 20.0996C50.7984 22.9499 46.8572 23.739 43.1584 22.7687C41.036 22.1008 39.2166 20.0996 39.096 17.796C38.7318 13.9748 40.793 10.276 44.0075 8.39603C46.6148 6.94088 50.496 6.75967 53.2863 8.39603C54.3766 9.0033 54.9232 9.79178 55.3463 10.5184ZM46.0087 21.2523C46.7372 21.2523 47.4027 20.8275 47.6463 20.0396L49.9511 10.9433C50.0711 10.2148 49.5251 9.54935 48.7984 9.54935C48.0711 9.54935 47.3427 10.1548 47.2209 10.8833L44.9172 19.9796C44.7348 20.4651 45.2809 21.2523 46.0087 21.2523ZM26.9058 21.2523C26.1785 21.2523 25.6931 20.4645 25.8143 19.979L28.1185 10.8827C28.2409 10.1542 28.9682 9.54875 29.6955 9.54875C30.4846 9.54875 30.9694 10.2142 30.787 10.8827L28.4827 19.9796C28.3015 20.8275 27.6343 21.2523 26.9058 21.2523ZM130.542 13.5506L130.967 17.9772L130.846 18.0996C129.754 18.0384 128.3 18.0996 127.086 18.0384C127.934 16.3402 129.208 14.5202 130.24 12.8827C130.542 13.0057 130.362 13.3687 130.542 13.5506ZM68.8093 10.3372C68.9917 10.8221 68.8717 11.4281 68.8717 11.4281L66.6268 19.736C66.505 20.342 65.9602 20.7063 65.4747 20.7063H63.7165V20.5851C63.6553 20.7675 66.4444 9.85178 66.4444 9.85178C67.1729 9.85178 68.3862 9.54935 68.8093 10.3372ZM143.884 7.72936C142.671 12.5796 141.217 17.4924 139.883 22.8287C141.883 22.8899 143.945 22.8287 146.309 22.8287H146.796L147.888 18.6451L148.008 18.3427C148.25 18.3427 148.736 18.2808 148.797 18.4627L149.888 22.8287H150.131C152.98 22.7075 154.8 22.8287 156.983 22.8287C156.559 21.0099 156.074 19.3111 155.77 17.4311C156.68 16.8263 157.893 15.9154 158.5 14.9451C159.348 13.5506 159.713 11.6706 158.923 10.1548C158.379 9.0033 156.801 7.72936 154.74 7.72936C151.344 7.66815 148.433 7.66815 143.884 7.72936ZM152.496 10.2148C152.678 10.7009 152.557 11.3681 152.557 11.3681L151.587 15.1275C151.404 15.6736 150.919 16.0372 150.373 16.0372H148.614V15.9154C148.554 16.0978 150.131 9.79178 150.131 9.79178C150.858 9.79178 152.071 9.48814 152.496 10.2148Z" fill="black"/>
</g>
<defs>
<clipPath id="clip0_112_5709">
<rect width="160" height="28.889" fill="white" transform="translate(0 0.555542)"/>
</clipPath>
</defs>
</svg>
