<svg width="160" height="41" viewBox="0 0 160 41" fill="none" xmlns="http://www.w3.org/2000/svg">
    <path fill-rule="evenodd" clip-rule="evenodd" d="M152.599 29.7925L151.043 39.3851H30.3367L31.8824 29.7925H152.6H152.599ZM30.6168 29.7925L29.0699 39.3851H24.2997L25.8466 29.7925H30.6168ZM23.6658 29.7925L22.1188 39.3851H18.2248L19.7705 29.7925H23.6658ZM16.7159 29.7925L15.1689 39.3851H12.1499L13.6956 29.7925H16.7159ZM9.76714 29.7925L8.22021 39.3851H6.07493L7.62067 29.7925H9.76714ZM2.81724 29.7925L1.27031 39.3851H0L1.54693 29.7925H2.81724Z" fill="#C8102E"/>
    <path fill-rule="evenodd" clip-rule="evenodd" d="M24.9883 3.47702H35.6328C38.0903 3.64916 40.7425 5.06669 41.4928 7.59187C42.2764 10.2845 41.1901 12.8927 39.2348 14.689C38.4571 15.3704 37.6332 15.9605 36.7013 16.2561L36.3867 16.344L38.621 20.1964H40.6179L39.8331 24.9963H34.4907L30.2262 17.327L29.7668 20.1964H30.9766L30.1918 24.9963H21.5074L22.2791 20.1964H23.8818L25.849 8.02401H24.2653L24.9883 3.47702ZM76.0429 3.47108L75.3222 8.01689H73.7373L71.7559 20.1893H73.3467L72.5786 24.9832L63.354 24.9951L64.1245 20.1893H65.7225L67.6814 8.01689H66.0965L66.8325 3.46989H76.0429V3.47108ZM4.32855 6.69078C7.42715 3.18259 12.3659 1.86242 16.7206 3.49126C17.1878 3.65844 17.6225 3.90549 18.0052 4.2214L18.3613 4.66541L18.556 3.47583H22.9724L21.8018 10.7712H16.7776C16.4986 9.5935 15.2971 8.48584 14.1266 8.23415C11.9753 7.75689 9.85262 8.42885 8.48614 10.1681C6.97958 12.273 6.47739 15.6684 7.89966 17.968C8.87792 19.5114 10.5519 20.1846 12.3101 19.9068C13.679 19.6539 15.0181 18.5569 15.6034 17.2676L10.0058 17.2628L10.7062 12.8975H22.5011L20.5446 24.9927H15.9988L16.3027 23.1858C14.4032 24.7316 11.8364 25.0105 9.4644 24.9251C6.2257 24.3635 2.8208 21.8704 1.76181 18.5854C0.503373 14.4052 1.64784 9.88793 4.32855 6.6896V6.69078ZM112.357 3.49126C112.713 3.62661 113.071 3.79756 113.399 4.03263L113.64 4.2214L113.998 4.66541L114.191 3.47583H118.609L117.437 10.7712H112.413C112.134 9.5935 110.932 8.48465 109.763 8.23415C107.611 7.75689 105.489 8.42885 104.121 10.1681C102.615 12.273 102.115 15.6684 103.535 17.968C104.513 19.5114 106.187 20.1846 107.945 19.9068C109.235 19.6693 110.497 18.6839 111.13 17.4932L111.241 17.2676L105.641 17.2628L106.342 12.8975H118.136L116.18 24.9927H111.634L111.94 23.1858C110.041 24.7316 107.472 25.0105 105.1 24.9251C101.861 24.3635 98.4573 21.8704 97.3948 18.5854C96.1387 14.4052 97.2844 9.88793 99.9651 6.6896C103.061 3.18259 108.002 1.86361 112.357 3.49126ZM84.1657 3.47583L89.7219 14.1654L90.7167 8.02164H89.1342L89.862 3.47583H98.7731L98.0418 8.02283H96.4486L93.7014 24.9927H88.9098L82.8384 12.9426L81.6821 20.1964H83.2718L82.5048 24.9927H73.5284L74.2941 20.1964H75.8779L77.8569 8.02045H76.2661L76.9879 3.47464H84.1646L84.1657 3.47583ZM137.186 3.47583L136.102 10.212H130.796L131.143 8.02283H127.157L126.657 11.1784H131.325L130.489 16.3558H125.831L125.201 20.1952H129.43L129.852 17.4789H135.311L134.091 24.9939H117.132L117.912 20.1952H119.522L121.503 8.02283H119.918L120.654 3.47583H137.186ZM149.174 3.47464C151.631 3.64441 154.284 5.06194 155.034 7.58712C155.818 10.2797 154.731 12.8892 152.776 14.6842C151.997 15.3669 151.175 15.9569 150.243 16.2513L149.927 16.3392L152.162 20.1929H154.16L153.376 24.9916H148.033L143.766 17.3222L143.309 20.1929H144.519L143.734 24.9916H135.049L135.821 20.1929H137.424L139.39 8.02045H137.806L138.529 3.47346L149.174 3.47464ZM58.7465 3.47583L61.5756 20.1952H63.1736L62.396 24.9916H53.1749L53.9466 20.1952H55.5339L55.3095 18.418H49.7558L48.958 20.1952H50.5666L49.7783 24.9916H40.8102L41.5961 20.1952H43.1692L49.3664 8.02164H47.7731L48.5021 3.47583H58.7465ZM157.711 20.3793C158.014 20.3764 158.314 20.4341 158.594 20.5492C158.874 20.6642 159.128 20.8342 159.342 21.0491C159.555 21.264 159.723 21.5195 159.836 21.8004C159.949 22.0813 160.005 22.382 160 22.6848C160.001 22.986 159.943 23.2845 159.828 23.5628C159.712 23.8412 159.543 24.0939 159.329 24.3061C159.116 24.5184 158.862 24.686 158.583 24.7992C158.304 24.9124 158.005 24.9689 157.704 24.9654C157.403 24.9659 157.105 24.9068 156.828 24.7915C156.55 24.6762 156.299 24.5069 156.087 24.2936C155.875 24.0803 155.708 23.8271 155.595 23.5487C155.482 23.2703 155.425 22.9723 155.428 22.6718C155.428 21.3504 156.48 20.3793 157.711 20.3793ZM157.723 20.5846C156.544 20.5846 155.634 21.5249 155.634 22.6718C155.634 23.8435 156.57 24.7589 157.711 24.7589C158.886 24.7589 159.787 23.8388 159.795 22.6777C159.8 22.4034 159.75 22.1309 159.648 21.8763C159.545 21.6217 159.393 21.39 159.2 21.195C159.007 21 158.777 20.8456 158.524 20.7408C158.27 20.636 157.997 20.5829 157.723 20.5846ZM157.673 21.2293C158.005 21.2293 158.165 21.2293 158.338 21.2922C158.468 21.3436 158.58 21.4337 158.659 21.5503C158.737 21.667 158.778 21.8047 158.776 21.9452C158.776 22.3429 158.487 22.5744 158.135 22.6326C158.443 22.7489 158.538 22.9175 158.595 23.2642C158.651 23.6251 158.674 23.7889 158.758 23.9907L158.807 24.0964H158.326C158.263 23.967 158.238 23.8388 158.211 23.7034C158.199 23.6381 158.154 23.3176 158.142 23.2452C158.066 22.8617 157.872 22.7822 157.535 22.7655L157.416 22.762H157.211V24.0964H156.795V21.2293H157.673ZM157.744 21.5498H157.218V22.426H157.752C157.96 22.4236 158.354 22.3916 158.354 21.9772C158.355 21.9177 158.344 21.8585 158.32 21.8037C158.297 21.7489 158.263 21.6996 158.219 21.6591C158.131 21.5819 158.034 21.5593 157.859 21.5522L157.744 21.5498ZM54.3348 8.82419L52.1563 13.8876H54.78L54.3348 8.823V8.82419ZM31.8563 8.29588L31.6829 8.29351L30.9208 13.0067C32.324 12.9426 33.9315 13.3154 34.9644 12.3621C35.831 11.6865 36.1931 10.7059 36.0554 9.66711C35.4879 7.91004 33.4317 8.29945 31.8563 8.29588ZM145.398 8.29114L145.225 8.28876L144.462 13.002C145.865 12.9379 147.473 13.3106 148.506 12.3573C149.372 11.683 149.734 10.7012 149.597 9.66354C149.028 7.90648 146.974 8.2947 145.398 8.29114ZM113.998 4.66541V4.67491L114.003 4.67135L113.998 4.66541ZM18.3613 4.66541V4.67491L18.3673 4.67135L18.3613 4.66541Z" fill="black"/>
</svg>
