<svg width="160" height="41" viewBox="0 0 160 41" fill="none" xmlns="http://www.w3.org/2000/svg">
    <path fill-rule="evenodd" clip-rule="evenodd" d="M0.592773 25.8135H4.02199V21.5914H11.2174V25.8135H14.607V14.6636H11.2174V18.6478H4.02199V14.6636H0.592773V25.8135Z" fill="#BC271A"/>
    <path fill-rule="evenodd" clip-rule="evenodd" d="M15.8262 25.8135H19.6716L20.6727 23.8412H27.6005L28.6411 25.8135H32.447L26.3219 14.6636H21.8917L15.8361 25.8135H15.8262ZM24.1019 17.2603L26.3219 21.413H21.9214L24.1019 17.2603Z" fill="#BC271A"/>
    <path fill-rule="evenodd" clip-rule="evenodd" d="M33.6462 25.8135H44.7565V22.9393H37.0755V14.6636H33.6462V25.8135Z" fill="#BC271A"/>
    <path fill-rule="evenodd" clip-rule="evenodd" d="M46.1836 25.8135H57.2938V22.9393H49.6029V14.6636H46.1836V25.8135Z" fill="#BC271A"/>
    <path fill-rule="evenodd" clip-rule="evenodd" d="M58.9192 25.8135H62.3484V14.6636H58.9192V25.8135Z" fill="#BC271A"/>
    <path fill-rule="evenodd" clip-rule="evenodd" d="M64.8362 25.8137H75.7086C77.6511 25.8137 79.0981 25.2983 79.0981 22.8404C79.0981 21.1753 78.5431 20.3824 77.0565 20.1743V20.1446C77.9881 19.8671 78.6819 19.4904 78.6819 17.5875C78.6819 15.4071 77.3637 14.6836 74.6679 14.6836H64.8362V25.8335V25.8137ZM68.2257 21.3834H74.3508C75.0743 21.3834 75.5995 21.5519 75.5995 22.3151C75.5995 22.9395 75.0842 23.108 74.3508 23.108H68.2257V21.3735V21.3834ZM68.2257 17.3298H74.2814C74.9058 17.3298 75.2824 17.5677 75.2824 18.2317C75.2824 18.8561 74.9058 19.0643 74.2814 19.0643H68.2257V17.3298Z" fill="#BC271A"/>
    <path fill-rule="evenodd" clip-rule="evenodd" d="M81.1794 21.8292C81.1794 24.5944 82.5967 25.9126 85.7484 25.9126H90.6246C93.7763 25.9126 95.1936 24.5944 95.1936 21.8292V14.6636H91.7644V21.1057C91.7644 22.523 91.2788 23.078 89.8615 23.078H86.4719C85.0844 23.078 84.569 22.523 84.569 21.1057V14.6636H81.1794V21.8292Z" fill="#BC271A"/>
    <path fill-rule="evenodd" clip-rule="evenodd" d="M100.902 17.4388H106.234C107.305 17.4388 107.83 17.6072 107.83 18.6182V18.9651C107.83 19.7579 107.483 20.1445 106.552 20.1445H100.912V17.4487L100.902 17.4388ZM97.473 25.8136H100.902V22.9096H106.264C107.335 22.9096 107.681 23.2863 107.681 24.4657V25.8136H111.071V23.9107C111.071 22.0771 110.238 21.6212 109.237 21.4527V21.423C110.793 21.0464 111.14 20.1742 111.14 18.6875V17.964C111.14 15.9917 110.417 14.6736 107.781 14.6736H97.4631V25.8235L97.473 25.8136Z" fill="#BC271A"/>
    <path fill-rule="evenodd" clip-rule="evenodd" d="M112.637 17.4387H117.414V25.8135H120.843V17.4387H125.66V14.6636H112.637V17.4387Z" fill="#BC271A"/>
    <path fill-rule="evenodd" clip-rule="evenodd" d="M126.899 21.8987C126.899 25.1495 128.732 25.9127 131.775 25.9127H137.276C140.358 25.9127 142.152 25.1495 142.152 21.8987V18.5785C142.152 15.3277 140.348 14.5249 137.276 14.5249H131.775C128.732 14.5249 126.899 15.3178 126.899 18.5785V21.8987ZM130.398 19.6192C130.398 18.2316 130.744 17.3991 132.548 17.3991H136.532C138.336 17.3991 138.683 18.2316 138.683 19.6192V20.8283C138.683 22.4537 138.336 23.0781 136.741 23.0781H132.34C130.744 23.0781 130.398 22.4537 130.398 20.8283V19.6192Z" fill="#BC271A"/>
    <path fill-rule="evenodd" clip-rule="evenodd" d="M144.243 25.8135H147.672V17.7162H147.702L154.105 25.8135H159.407V14.6636H155.978V22.7708H155.948L149.536 14.6636H144.243V25.8135Z" fill="#BC271A"/>
</svg>
