<svg width="160" height="32" viewBox="0 0 160 32" fill="none" xmlns="http://www.w3.org/2000/svg">
<g clip-path="url(#clip0_112_5726)">
<path d="M93.9208 24.2655C93.9208 24.4702 93.7673 24.6302 93.5561 24.6302H88.9628C88.7581 24.6302 88.5981 24.4766 88.5981 24.2655V8.27831C88.5981 8.07359 88.7517 7.91365 88.9628 7.91365H93.5817C93.7864 7.91365 93.9464 8.06719 93.9464 8.27831L93.9208 24.2655ZM48.6141 1.50342H43.6561C43.4514 1.50342 43.2914 1.65696 43.2914 1.86807V10.172H39.293V1.86807C39.293 1.66335 39.1395 1.50342 38.9284 1.50342H33.9704C33.7656 1.50342 33.6057 1.65696 33.6057 1.86807V24.2911C33.6057 24.4958 33.7593 24.6558 33.9704 24.6558H38.9284C39.1331 24.6558 39.293 24.5022 39.293 24.2911V15.2067H43.2914V24.2911C43.2914 24.4958 43.445 24.6558 43.6561 24.6558H48.6141C48.8188 24.6558 48.9788 24.5022 48.9788 24.2911V1.86807C48.9724 1.66335 48.8188 1.50342 48.6141 1.50342ZM95.7121 24.2655C95.7121 24.4702 95.8656 24.6302 96.0767 24.6302H100.568C100.772 24.6302 100.932 24.4766 100.932 24.2655V11.6817H102.129C102.724 11.6817 103.216 12.1743 103.216 12.7693V24.2655C103.216 24.4702 103.37 24.6302 103.581 24.6302H108.098C108.302 24.6302 108.462 24.4766 108.462 24.2655V11.7073C108.462 9.62817 106.773 7.94564 104.7 7.94564H96.3454C96.0319 7.94564 95.776 8.20794 95.776 8.51501V24.2655H95.7121ZM147.224 24.2655C147.224 24.4702 147.378 24.6302 147.589 24.6302H152.08C152.285 24.6302 152.445 24.4766 152.445 24.2655V11.6817H153.641C154.236 11.6817 154.728 12.1743 154.728 12.7693V24.2655C154.728 24.4702 154.882 24.6302 155.093 24.6302H159.61C159.814 24.6302 159.974 24.4766 159.974 24.2655V11.7073C159.974 9.62817 158.285 7.94564 156.213 7.94564H147.858C147.544 7.94564 147.288 8.20794 147.288 8.51501V24.2655H147.224ZM65.3242 24.2655C65.3242 24.4702 65.4778 24.6302 65.6889 24.6302H70.1799C70.3846 24.6302 70.5445 24.4766 70.5445 24.2655V11.6817H71.7409C72.3358 11.6817 72.8284 12.1743 72.8284 12.7693V24.2655C72.8284 24.4702 72.982 24.6302 73.1931 24.6302H77.7097C77.9144 24.6302 78.0743 24.4766 78.0743 24.2655V11.7073C78.0743 9.62817 76.3854 7.94564 74.3126 7.94564H65.9576C65.6441 7.94564 65.3882 8.20794 65.3882 8.51501V24.2655H65.3242ZM63.4818 8.27831C63.4818 8.07359 63.3282 7.91365 63.1171 7.91365H58.6261C58.4214 7.91365 58.2615 8.06719 58.2615 8.27831V20.8621H57.0651C56.4702 20.8621 55.9776 20.3695 55.9776 19.7745V8.27831C55.9776 8.07359 55.824 7.91365 55.6129 7.91365H51.0963C50.8916 7.91365 50.7317 8.06719 50.7317 8.27831V20.8365C50.7317 22.9157 52.4206 24.5982 54.4934 24.5982H62.8484C63.1619 24.5982 63.4178 24.3359 63.4178 24.0288V8.27831H63.4818ZM86.6021 20.8941H85.7193C85.1243 20.8941 84.6317 20.4015 84.6317 19.8065V12.4302H86.6021C86.8068 12.4302 86.9668 12.2767 86.9668 12.0656V8.27831C86.9668 8.07359 86.8132 7.91365 86.6021 7.91365H84.6317V4.85568C84.6317 4.65096 84.4782 4.49102 84.267 4.49102H79.9872C79.7824 4.49102 79.6225 4.64456 79.6225 4.85568V20.8429C79.6225 22.9221 81.3114 24.6046 83.3842 24.6046H86.6021C86.8068 24.6046 86.9668 24.451 86.9668 24.2399V21.2587C86.9668 21.0476 86.7876 20.8941 86.6021 20.8941ZM131.295 20.8941H130.412C129.817 20.8941 129.324 20.4015 129.324 19.8065V12.4302H131.295C131.499 12.4302 131.659 12.2767 131.659 12.0656V8.27831C131.659 8.07359 131.506 7.91365 131.295 7.91365H129.324V4.85568C129.324 4.65096 129.171 4.49102 128.96 4.49102H124.68C124.475 4.49102 124.315 4.64456 124.315 4.85568V20.8429C124.315 22.9221 126.004 24.6046 128.077 24.6046H131.295C131.499 24.6046 131.659 24.451 131.659 24.2399V21.2587C131.653 21.0476 131.499 20.8941 131.295 20.8941ZM122.313 7.91365H113.746C111.667 7.91365 109.985 9.60258 109.985 11.6753V20.8365C109.985 22.9157 111.674 24.5982 113.746 24.5982H117.457V26.8053C117.457 27.2979 117.067 27.6881 116.574 27.6881H116.056C115.563 27.6881 115.173 27.2979 115.173 26.8053V26.1016C115.173 25.8969 115.02 25.7369 114.808 25.7369H110.317C110.113 25.7369 109.953 25.8905 109.953 26.1016V27.4258C109.953 30.0232 111.303 30.9061 113.638 31.4242C114.054 31.5266 115.167 31.6865 116.312 31.6865C117.451 31.6865 118.57 31.5074 118.986 31.4242C121.321 30.9061 122.671 30.0232 122.671 27.4258V8.27831C122.677 8.09918 122.524 7.91365 122.313 7.91365ZM117.463 20.8941H116.267C115.672 20.8941 115.179 20.4015 115.179 19.8065V12.7693C115.179 12.1743 115.672 11.6817 116.267 11.6817H117.463V20.8941ZM141.959 7.91365C141.543 7.8113 140.43 7.65136 139.285 7.65136C138.146 7.65136 137.027 7.83049 136.611 7.91365C134.276 8.43185 132.926 9.31469 132.926 11.9121V20.6318C132.926 23.2291 134.276 24.112 136.611 24.6302C137.027 24.7325 138.14 24.8925 139.285 24.8925C140.424 24.8925 141.543 24.7133 141.959 24.6302C144.294 24.112 145.644 23.2291 145.644 20.6318V11.9376C145.619 9.31469 144.269 8.46383 141.959 7.91365ZM140.584 19.7745C140.584 20.3695 140.091 20.8621 139.496 20.8621H139.055C138.46 20.8621 137.967 20.3695 137.967 19.7745V12.7693C137.967 12.1743 138.46 11.6817 139.055 11.6817H139.496C140.091 11.6817 140.584 12.1743 140.584 12.7693V19.7745Z" fill="#776F67"/>
<path d="M13.3195 10.0184V0.262329L9.78808 2.30951V12.0656L13.3195 10.0184ZM14.6437 21.9816V31.7377L18.2007 29.6906V19.9345L14.6437 21.9816ZM9.78808 19.154V29.6906L13.3195 31.7377V21.2779L19.5186 17.6954V28.9037L23.0756 26.8821V5.11159L19.5186 3.09V13.5242L9.78808 19.154ZM8.43822 3.09L4.90683 5.13718V26.8821L8.43822 28.9037V18.4758L18.1943 12.8461V2.30951L14.6373 0.262329V10.7221L8.43822 14.3047V3.09ZM3.58896 5.89208L0.575765 7.63218C0.28788 7.81131 0.0319824 8.17596 0.0319824 8.48944V23.517C0.0319824 23.8049 0.268688 24.1888 0.575765 24.3743L3.58896 26.1144V5.89208ZM24.3998 26.108L27.413 24.3679C27.7009 24.1888 27.9568 23.8241 27.9568 23.5106V8.48944C27.9568 8.20155 27.7201 7.81771 27.413 7.63218L24.3998 5.89208V26.108Z" fill="#66BD29"/>
</g>
<defs>
<clipPath id="clip0_112_5726">
<rect width="160" height="31.5394" fill="white" transform="translate(0 0.230347)"/>
</clipPath>
</defs>
</svg>
