<svg width="87" height="40" viewBox="0 0 87 40" fill="none" xmlns="http://www.w3.org/2000/svg">
    <path d="M0.319241 1.58126V22.0298C0.318999 22.288 0.444282 22.3923 0.666047 22.378H4.16682C4.50878 22.3946 4.5551 22.2166 4.54308 22.0002V13.9608C4.52515 13.6355 4.69609 13.6378 4.86535 13.6371H13.8512C14.0535 13.6355 14.2016 13.706 14.1956 13.9829V21.9641C14.1942 22.2796 14.368 22.3754 14.6123 22.3826H17.9867C18.2297 22.3906 18.3941 22.2979 18.3849 21.9828V1.5944C18.4046 1.23845 18.217 1.14768 17.9502 1.15795H14.5448C14.2485 1.16007 14.1457 1.30987 14.1574 1.54702V9.38744C14.176 9.70284 14.0161 9.73352 13.8276 9.71858H4.80809C4.58653 9.73165 4.51294 9.61959 4.52543 9.43474V1.50241C4.50341 1.22019 4.34761 1.18985 4.18908 1.16466H0.67259C0.443436 1.17992 0.31408 1.30594 0.319241 1.58126ZM37.6434 8.69093L40.5487 7.10078C40.758 6.99525 40.7656 6.84753 40.6796 6.68025C37.2903 -0.884528 26.8999 -0.4824 23.047 4.38765C19.1547 9.54171 20.0701 15.4329 23.047 19.1649C27.5847 24.4175 36.9649 24.3538 40.7035 16.8816C40.8223 16.6621 40.788 16.4583 40.6109 16.3379L37.5756 14.9069C37.3271 14.7703 37.1479 14.8252 37.0389 15.0741C34.7311 19.163 30.6257 19.5297 27.5259 17.6203C24.1602 15.3209 23.45 8.98651 27.5259 5.94881C30.3478 4.06112 34.6994 4.32012 37.1037 8.52286C37.2202 8.76086 37.4048 8.80327 37.6434 8.69093ZM41.2685 22.3715H44.9198C45.1211 22.3759 45.2326 22.2125 45.3124 21.9904L46.8851 17.7132C46.9648 17.4913 47.1265 17.4092 47.3293 17.3973H50.1054C52.139 17.3859 53.3096 16.2192 53.5664 13.8289C53.5877 13.6063 53.47 13.5511 53.3073 13.5502H48.8099C48.5506 13.572 48.4778 13.4586 48.5323 13.2528L51.3085 5.85588C51.3595 5.65787 51.6265 5.6465 51.6971 5.85588L57.7492 22.1086C57.8433 22.3041 57.9852 22.3901 58.1656 22.3874H61.8579C62.2028 22.3471 62.2147 22.1257 62.1263 21.807L54.2639 1.51555C54.1667 1.23943 54.0077 1.1392 53.8059 1.16073H49.3171C49.1293 1.16822 48.9727 1.26321 48.8721 1.51555L41.0088 21.7184C40.8579 22.0923 40.9138 22.3302 41.2685 22.3715Z" fill="#092240"/>
    <path d="M73.6522 1.11434V6.99312C73.5801 9.50866 71.7194 10.6096 70.0368 10.6236H64.1753C64.0146 10.6069 63.849 10.5989 63.8902 10.2276C64.1584 8.39396 65.3424 7.82814 66.883 7.75576H69.2852C70.1259 7.74642 70.9039 7.0371 70.865 6.16934V3.38703C70.9114 1.94675 72.0503 0.98944 73.283 0.802106C73.5233 0.762336 73.6316 0.884521 73.6522 1.11434ZM64.1965 12.594H70.0508C72.5559 12.6665 73.6523 14.5349 73.6662 16.2245V22.1106C73.6496 22.2719 73.6416 22.4382 73.2718 22.3968C71.4458 22.1276 70.8824 20.9386 70.8103 19.3916V16.9793C70.801 16.1351 70.0946 15.3538 69.2305 15.3929H66.4597C65.0255 15.3463 64.0721 14.2026 63.8856 12.9648C63.846 12.7235 63.9677 12.6147 64.1965 12.594ZM75.5815 22.1186V16.2398C75.6536 13.7242 77.5143 12.6233 79.1969 12.6093H85.0584C85.2191 12.626 85.3847 12.634 85.3435 13.0053C85.0754 14.8389 83.8913 15.4048 82.3507 15.4771H79.9485C79.1078 15.4865 78.3298 16.1958 78.3687 17.0636V19.8459C78.3223 21.2862 77.1834 22.2435 75.9507 22.4308C75.7104 22.4706 75.6021 22.3484 75.5815 22.1186ZM84.9766 10.6076H79.1223C76.6173 10.5352 75.5209 8.66674 75.507 6.97713V1.09106C75.5236 0.929759 75.5315 0.763471 75.9013 0.804842C77.7273 1.07407 78.2908 2.26308 78.3629 3.81007V6.22234C78.3722 7.06655 79.0785 7.8478 79.9427 7.80876H82.7134C84.1477 7.85538 85.101 8.99899 85.2876 10.2368C85.3272 10.4781 85.2055 10.5869 84.9766 10.6076Z" fill="#E75925"/>
    <path d="M13.6859 38.9344H8.23479V38.2746C8.38287 38.2622 8.59573 38.2436 8.87337 38.2188C9.15719 38.194 9.35154 38.1568 9.45643 38.1073C9.64152 38.033 9.77726 37.9215 9.86364 37.7728C9.95002 37.6179 9.99321 37.4196 9.99321 37.178V32.4848H3.82026V37.0757C3.82026 37.2926 3.8542 37.4754 3.92206 37.6241C3.9961 37.7728 4.138 37.9029 4.34778 38.0144C4.45267 38.0701 4.63776 38.1259 4.90307 38.1816C5.17454 38.2374 5.3874 38.2684 5.54165 38.2746V38.9345H0.0905762V38.2746C0.238653 38.2623 0.451514 38.2437 0.729159 38.2189C1.01297 38.1941 1.20732 38.1569 1.31221 38.1074C1.4973 38.033 1.63304 37.9215 1.71942 37.7728C1.8058 37.6179 1.84899 37.4197 1.84899 37.178V27.6615C1.84899 27.4633 1.80889 27.2836 1.72868 27.1225C1.64847 26.9552 1.50965 26.8251 1.31222 26.7322C1.14563 26.6516 0.942022 26.5804 0.701398 26.5184C0.466943 26.4564 0.26334 26.4192 0.090583 26.4069V25.7471H5.54165V26.4069C5.3689 26.4129 5.15604 26.4408 4.90307 26.4905C4.65628 26.5401 4.47118 26.5865 4.34778 26.6299C4.13801 26.7043 3.9961 26.8282 3.92206 27.0017C3.8542 27.1751 3.82027 27.3641 3.82027 27.5686V31.6577H9.99321V27.6615C9.99321 27.4632 9.95311 27.2835 9.8729 27.1225C9.79269 26.9552 9.65387 26.8251 9.45643 26.7322C9.28985 26.6516 9.08624 26.5803 8.84562 26.5184C8.61116 26.4564 8.40756 26.4192 8.2348 26.4069V25.7471H13.6859V26.4069C13.5131 26.4129 13.3003 26.4408 13.0473 26.4905C12.8005 26.54 12.6154 26.5865 12.492 26.6299C12.2822 26.7042 12.1403 26.8281 12.0663 27.0016C11.9984 27.1751 11.9645 27.3641 11.9645 27.5685V37.0757C11.9645 37.2926 11.9984 37.4754 12.0663 37.6241C12.1403 37.7728 12.2822 37.9029 12.492 38.0144C12.5969 38.0702 12.782 38.1259 13.0473 38.1817C13.3188 38.2374 13.5316 38.2684 13.6859 38.2746L13.6859 38.9344Z" fill="#092240"/>
    <path d="M21.4564 36.8325C21.0731 37.5651 20.56 38.1487 19.917 38.5833C19.274 39.0179 18.5352 39.2352 17.7005 39.2352C16.9648 39.2352 16.3187 39.1048 15.7623 38.8441C15.212 38.5833 14.7576 38.2294 14.399 37.7824C14.0404 37.3354 13.7715 36.8139 13.5922 36.2179C13.4191 35.6219 13.3325 34.9917 13.3325 34.3274C13.3325 33.7314 13.4253 33.1478 13.6107 32.5767C13.8024 31.9993 14.0806 31.4809 14.4454 31.0215C14.7978 30.5807 15.2337 30.2268 15.753 29.9598C16.2785 29.6866 16.8659 29.55 17.515 29.55C18.1828 29.55 18.7546 29.6556 19.2307 29.8667C19.7068 30.0778 20.0932 30.3665 20.3899 30.7328C20.6743 31.0804 20.8845 31.4902 21.0206 31.962C21.1628 32.4339 21.2339 32.9461 21.2339 33.4986V34.1133H15.178C15.178 34.7155 15.2337 35.2618 15.345 35.7523C15.4624 36.2427 15.6448 36.6742 15.8921 37.0467C16.1332 37.4068 16.4485 37.6924 16.8381 37.9035C17.2276 38.1084 17.6912 38.2108 18.2291 38.2108C18.7794 38.2108 19.2524 38.0835 19.648 37.829C20.0499 37.5682 20.4363 37.1026 20.8073 36.4321L21.4564 36.8325ZM19.4069 33.331C19.4069 32.9833 19.376 32.6108 19.3142 32.2135C19.2585 31.8162 19.1658 31.484 19.0359 31.217C18.8937 30.9314 18.699 30.6986 18.4517 30.5186C18.2044 30.3385 17.886 30.2485 17.4965 30.2485C16.8473 30.2485 16.3063 30.5217 15.8736 31.068C15.447 31.6082 15.2151 32.3625 15.178 33.331H19.4069Z" fill="#092240"/>
    <path d="M30.6937 38.7591C30.4039 38.8644 30.148 38.948 29.926 39.0099C29.7102 39.0779 29.4635 39.112 29.186 39.112C28.705 39.112 28.3197 39.0005 28.0298 38.7776C27.7462 38.5485 27.5643 38.2172 27.4841 37.7838H27.4286C27.0278 38.2296 26.5962 38.5702 26.1337 38.8055C25.6774 39.0407 25.1255 39.1584 24.478 39.1584C23.7936 39.1584 23.2293 38.9479 22.7854 38.5268C22.3476 38.1057 22.1287 37.5547 22.1287 36.8735C22.1287 36.5206 22.178 36.2048 22.2766 35.9261C22.3753 35.6475 22.5233 35.3967 22.7206 35.1738C22.8748 34.988 23.0783 34.8239 23.3311 34.6815C23.5839 34.5329 23.8213 34.4153 24.0433 34.3286C24.3208 34.2234 24.8819 34.0283 25.7267 33.7434C26.5777 33.4586 27.1511 33.2357 27.4471 33.0747V32.1552C27.4471 32.0746 27.4286 31.9198 27.3916 31.6908C27.3608 31.4617 27.2899 31.2449 27.1789 31.0406C27.0555 30.8115 26.8798 30.6133 26.6516 30.4461C26.4297 30.2727 26.1121 30.186 25.6989 30.186C25.4153 30.186 25.1501 30.2356 24.9035 30.3347C24.663 30.4276 24.4934 30.5266 24.3948 30.6319C24.3948 30.7557 24.4225 30.9384 24.478 31.1799C24.5397 31.4214 24.5705 31.6443 24.5705 31.8487C24.5705 32.0654 24.4719 32.2635 24.2745 32.4431C24.0834 32.6227 23.8151 32.7124 23.4698 32.7124C23.1615 32.7124 22.9334 32.6041 22.7854 32.3874C22.6435 32.1645 22.5726 31.9168 22.5726 31.6443C22.5726 31.3595 22.6713 31.087 22.8686 30.827C23.0721 30.5669 23.3342 30.3347 23.6548 30.1303C23.9323 29.957 24.2684 29.8115 24.663 29.6938C25.0577 29.57 25.4431 29.5081 25.8192 29.5081C26.3372 29.5081 26.7873 29.5452 27.1696 29.6195C27.5581 29.6875 27.9096 29.8393 28.2241 30.0746C28.5385 30.3037 28.776 30.6164 28.9363 31.0127C29.1028 31.4028 29.186 31.9075 29.186 32.5267C29.186 33.4122 29.1768 34.1985 29.1583 34.8859C29.1398 35.567 29.1305 36.3131 29.1305 37.1243C29.1305 37.3658 29.1706 37.5578 29.2508 37.7002C29.3371 37.8426 29.4666 37.9633 29.6392 38.0624C29.7317 38.1181 29.8767 38.1491 30.074 38.1553C30.2775 38.1613 30.484 38.1643 30.6937 38.1643V38.7591ZM27.4656 33.8549C26.9415 34.0097 26.4821 34.1615 26.0874 34.3101C25.6928 34.4587 25.3259 34.6444 24.9868 34.8674C24.6784 35.0779 24.4349 35.3287 24.256 35.6197C24.0772 35.9045 23.9878 36.2451 23.9878 36.6414C23.9878 37.1554 24.1204 37.5331 24.3855 37.7745C24.6569 38.016 24.9991 38.1368 25.4122 38.1368C25.85 38.1368 26.2354 38.0315 26.5684 37.821C26.9014 37.6043 27.182 37.3504 27.4101 37.0594L27.4656 33.8549Z" fill="#092240"/>
    <path d="M43.9865 26.9131V37.401C43.9865 37.6244 43.943 37.8077 43.8565 37.9504C43.77 38.0869 43.6402 38.1832 43.4672 38.239C43.3621 38.2701 43.2323 38.2949 43.0778 38.3135C42.9233 38.3259 42.7751 38.3382 42.633 38.3506V38.9649H47.1195V38.3506C46.9465 38.3382 46.7857 38.3166 46.6374 38.2856C46.4953 38.2546 46.3563 38.208 46.2203 38.1459C46.0473 38.0714 45.9175 37.9659 45.831 37.8294C45.7506 37.6929 45.7105 37.5192 45.7105 37.3082V32.0302C45.7722 31.9247 45.8589 31.7943 45.9701 31.6392C46.0813 31.4841 46.2421 31.3289 46.4522 31.1738C46.6685 31.0248 46.9126 30.9008 47.1845 30.8015C47.4626 30.696 47.7624 30.6434 48.0837 30.6434C48.5225 30.6434 48.8931 30.8201 49.1959 31.1738C49.5049 31.5275 49.6594 32.0303 49.6594 32.6819V37.4011C49.6594 37.6245 49.6162 37.8077 49.5297 37.9504C49.4494 38.0869 49.3226 38.1832 49.1495 38.239C49.0383 38.2763 48.8963 38.3011 48.7233 38.3135C48.5502 38.3259 48.3925 38.3382 48.2503 38.3506V38.9649H52.7369V38.3506C52.5515 38.3382 52.4003 38.3196 52.2828 38.2948C52.1716 38.2638 52.0448 38.2204 51.9027 38.1646C51.7234 38.0901 51.5937 37.9876 51.5133 37.8573C51.4392 37.7207 51.4022 37.5438 51.4022 37.3266V32.5516C51.4022 31.5774 51.1829 30.8324 50.7441 30.3174C50.3053 29.7961 49.6778 29.5357 48.8621 29.5357C48.4666 29.5357 48.1082 29.5853 47.7868 29.6846C47.4717 29.7839 47.1969 29.908 46.9621 30.0569C46.6902 30.2307 46.4708 30.3981 46.3039 30.5594C46.1371 30.7146 45.9516 30.8945 45.7477 31.0993H45.7104V26.9131L43.9865 26.9131ZM37.3958 26.9666V29.8241H35.7087V30.7178H37.3586V36.9356C37.3586 37.6431 37.5131 38.1925 37.822 38.5834C38.1372 38.9682 38.6781 39.1604 39.4444 39.1604C39.9635 39.1604 40.4023 39.1015 40.7607 38.9836C41.1191 38.8719 41.499 38.7323 41.9007 38.5647V37.8851C41.7771 37.9286 41.5639 37.9659 41.2611 37.997C40.9645 38.0218 40.7388 38.0341 40.5843 38.0341C40.2506 38.0341 39.9851 37.9877 39.7874 37.8946C39.5896 37.8015 39.4411 37.6649 39.3422 37.485C39.2371 37.2926 39.1693 37.0693 39.1384 36.8149C39.1136 36.5542 39.1014 36.2314 39.1014 35.8467V30.7178H41.706V29.8241H39.0828V26.9666L37.3958 26.9666Z" fill="#092240"/>
    <path d="M57.1321 39.2652C55.7859 39.2652 54.7322 38.8167 53.9711 37.9197C53.2099 37.0227 52.8293 35.8194 52.8293 34.3096C52.8293 33.6527 52.93 33.04 53.1313 32.4714C53.3389 31.8966 53.6377 31.3755 54.0277 30.908C54.3988 30.4595 54.8643 30.0994 55.4242 29.8278C55.9841 29.5499 56.5942 29.4109 57.2548 29.4109C58.1669 29.4109 58.9092 29.632 59.4816 30.0742C60.0541 30.51 60.3403 31.107 60.3403 31.865C60.3403 32.1808 60.2648 32.4619 60.1138 32.7083C59.9629 32.9483 59.7144 33.0684 59.3684 33.0684C58.9973 33.0684 58.7079 32.9736 58.5003 32.7841C58.299 32.5946 58.1983 32.383 58.1983 32.1493C58.1983 31.865 58.2361 31.5744 58.3116 31.2775C58.387 30.9743 58.4311 30.7532 58.4438 30.6143C58.3305 30.4184 58.1607 30.289 57.9342 30.2258C57.7141 30.1564 57.475 30.1216 57.2171 30.1216C56.9151 30.1216 56.6258 30.188 56.349 30.3206C56.0785 30.4469 55.8143 30.6838 55.5564 31.0313C55.3236 31.3471 55.1349 31.7735 54.9902 32.3104C54.8455 32.8474 54.7732 33.4885 54.7732 34.2339C54.7732 35.4088 55.0311 36.369 55.547 37.1144C56.0691 37.8535 56.7516 38.223 57.5945 38.223C58.2047 38.223 58.7142 38.0746 59.1231 37.7777C59.5383 37.4808 59.922 37.0354 60.2743 36.4416L60.8782 36.8396C60.463 37.585 59.9157 38.1756 59.2364 38.6115C58.557 39.0474 57.8555 39.2652 57.1321 39.2652ZM69.9326 38.8483C69.637 38.9557 69.3759 39.041 69.1494 39.1041C68.9293 39.1736 68.6777 39.2083 68.3946 39.2083C67.9039 39.2083 67.5108 39.0946 67.2151 38.8672C66.9257 38.6334 66.7402 38.2955 66.6584 37.8533H66.6018C66.1929 38.3081 65.7526 38.6556 65.2807 38.8956C64.8153 39.1356 64.2523 39.2557 63.5917 39.2557C62.8935 39.2557 62.3179 39.0409 61.865 38.6113C61.4184 38.1818 61.195 37.6196 61.195 36.9247C61.195 36.5647 61.2454 36.2425 61.346 35.9583C61.4467 35.674 61.5977 35.4182 61.799 35.1908C61.9562 35.0013 62.1638 34.8339 62.4217 34.6886C62.6797 34.537 62.9218 34.4169 63.1483 34.3285C63.4314 34.2211 64.0038 34.0221 64.8656 33.7316C65.7337 33.441 66.3187 33.2136 66.6207 33.0493V32.1113C66.6207 32.0292 66.6018 31.8712 66.5641 31.6375C66.5327 31.4038 66.4603 31.1827 66.3471 30.9743C66.2212 30.7405 66.042 30.5384 65.8092 30.3679C65.5828 30.191 65.2588 30.1025 64.8373 30.1025C64.548 30.1025 64.2775 30.1531 64.0259 30.2542C63.7805 30.3489 63.6075 30.45 63.5069 30.5574C63.5069 30.6837 63.5352 30.8701 63.5918 31.1164C63.6547 31.3628 63.6862 31.5902 63.6862 31.7986C63.6862 32.0197 63.5855 32.2219 63.3842 32.4051C63.1892 32.5883 62.9156 32.6798 62.5633 32.6798C62.2488 32.6798 62.016 32.5693 61.8651 32.3482C61.7204 32.1208 61.648 31.8681 61.648 31.5902C61.648 31.2996 61.7487 31.0217 61.95 30.7564C62.1576 30.4911 62.4249 30.2542 62.752 30.0457C63.0351 29.8688 63.378 29.7204 63.7806 29.6004C64.1832 29.4741 64.5763 29.4109 64.96 29.4109C65.4885 29.4109 65.9477 29.4488 66.3377 29.5246C66.734 29.594 67.0925 29.7487 67.4134 29.9888C67.7342 30.2226 67.9764 30.5416 68.1399 30.9458C68.3098 31.3438 68.3947 31.8586 68.3947 32.4903C68.3947 33.3936 68.3853 34.1959 68.3664 34.897C68.3475 35.5919 68.3381 36.3531 68.3381 37.1806C68.3381 37.427 68.379 37.6228 68.4608 37.7681C68.5489 37.9134 68.681 38.0365 68.8571 38.1376C68.9514 38.1945 69.0993 38.226 69.3006 38.2324C69.5082 38.2385 69.7189 38.2416 69.9328 38.2416L69.9326 38.8483ZM66.6395 33.8453C66.1048 34.0033 65.6362 34.158 65.2336 34.3096C64.831 34.4612 64.4567 34.6507 64.1107 34.8782C63.7962 35.0929 63.5477 35.3488 63.3653 35.6456C63.1828 35.9362 63.0916 36.2837 63.0916 36.6879C63.0916 37.2122 63.2269 37.5976 63.4974 37.8439C63.7742 38.0903 64.1233 38.2135 64.5447 38.2135C64.9914 38.2135 65.3845 38.1061 65.7242 37.8913C66.0639 37.6702 66.3501 37.4112 66.5829 37.1143L66.6395 33.8453Z" fill="#092240"/>
    <path d="M77.4669 30.9959C77.4669 31.3118 77.3898 31.5937 77.2356 31.8415C77.0813 32.0832 76.8438 32.204 76.523 32.204C76.1775 32.204 75.9121 32.1141 75.727 31.9345C75.5481 31.7548 75.4587 31.5565 75.4587 31.3397C75.4587 31.2034 75.4679 31.0795 75.4864 30.968C75.5112 30.8565 75.5328 30.745 75.5513 30.6334C75.2613 30.6334 74.922 30.7511 74.5333 30.9866C74.1446 31.222 73.8145 31.5566 73.543 31.9902V37.3246C73.543 37.5414 73.5831 37.718 73.6633 37.8543C73.7498 37.9906 73.8824 38.0928 74.0613 38.161C74.2155 38.2229 74.413 38.2694 74.6536 38.3003C74.9004 38.3313 75.1132 38.353 75.2921 38.3654V38.9788H70.4798V38.3654C70.6217 38.3531 70.7667 38.3407 70.9148 38.3282C71.069 38.3159 71.2016 38.2911 71.3127 38.2539C71.4854 38.1982 71.6119 38.1021 71.6921 37.9658C71.7785 37.8233 71.8216 37.6406 71.8216 37.4175V31.7579C71.8216 31.5659 71.7754 31.3769 71.6828 31.1911C71.5964 31.0052 71.473 30.8565 71.3126 30.745C71.1954 30.6706 71.0566 30.6179 70.8962 30.5869C70.7358 30.5497 70.563 30.525 70.3779 30.5126V29.9086L73.4134 29.7041L73.5429 29.8343V31.1261H73.5891C73.9716 30.6242 74.3974 30.2432 74.8663 29.983C75.3352 29.7228 75.7639 29.5927 76.1526 29.5927C76.5413 29.5927 76.856 29.7197 77.0966 29.9737C77.3434 30.2277 77.4669 30.5684 77.4669 30.9959ZM85.6609 36.8227C85.2784 37.5538 84.7663 38.1362 84.1247 38.5698C83.483 39.0035 82.7457 39.2204 81.9128 39.2204C81.1786 39.2204 80.5339 39.0903 79.9786 38.8301C79.4295 38.5699 78.976 38.2167 78.6182 37.7706C78.2604 37.3246 77.992 36.8041 77.813 36.2094C77.6403 35.6146 77.5539 34.9858 77.5539 34.3228C77.5539 33.7281 77.6465 33.1457 77.8315 32.5757C78.0228 31.9995 78.3005 31.4822 78.6645 31.0237C79.0162 30.5839 79.4511 30.2307 79.9694 29.9643C80.4938 29.6917 81.0799 29.5554 81.7277 29.5554C82.3941 29.5554 82.9648 29.6608 83.4398 29.8714C83.9149 30.082 84.3005 30.3701 84.5966 30.7357C84.8805 31.0826 85.0902 31.4915 85.226 31.9624C85.3679 32.4332 85.4388 32.9443 85.4388 33.4957V34.1091H79.3956C79.3956 34.7101 79.4511 35.2553 79.5621 35.7447C79.6794 36.2342 79.8614 36.6648 80.1081 37.0365C80.3488 37.3958 80.6634 37.6808 81.0521 37.8915C81.4408 38.0959 81.9035 38.1981 82.4403 38.1981C82.9894 38.1981 83.4614 38.0711 83.8563 37.8171C84.2573 37.5569 84.6429 37.0922 85.0131 36.4231L85.6609 36.8227ZM83.6157 33.3285C83.6157 32.9815 83.5848 32.6098 83.5231 32.2133C83.4675 31.8168 83.375 31.4853 83.2454 31.2189C83.1035 30.9339 82.9092 30.7016 82.6624 30.5219C82.4156 30.3422 82.0979 30.2524 81.7092 30.2524C81.0614 30.2524 80.5215 30.525 80.0896 31.0702C79.6639 31.6092 79.4326 32.362 79.3955 33.3285H83.6157Z" fill="#092240"/>
    <path d="M32.6146 27.5493V37.3951C32.6146 37.6161 32.5717 37.7974 32.4861 37.9387C32.4005 38.0738 32.272 38.1689 32.1007 38.2241C31.9968 38.2548 31.8655 38.2793 31.7065 38.2977C31.5476 38.31 31.3977 38.3222 31.2571 38.3345V38.9425H35.6686V38.3345C35.5035 38.3223 35.354 38.3008 35.2195 38.2701C35.0911 38.2394 34.9595 38.1933 34.825 38.1319C34.6476 38.0582 34.5191 37.9539 34.4396 37.8188C34.3602 37.6776 34.3205 37.4996 34.3205 37.2847V27.5493L32.6146 27.5493Z" fill="#092240"/>
    <path d="M45.5842 25.5823L42.2006 25.7964V26.3921C42.3737 26.4045 42.5993 26.4293 42.8774 26.4666C43.1617 26.4976 43.3593 26.5535 43.4706 26.6342C43.6251 26.7397 43.7489 26.8981 43.8416 27.1091C43.9405 27.32 43.9899 27.5308 43.9899 27.7418V29.2459H45.7138V25.722L45.5842 25.5823ZM37.3992 27.9933V29.2459H39.0862V27.9933H37.3992Z" fill="#092240"/>
    <path d="M34.1896 25.5786L30.7869 25.7905V26.3801C30.9642 26.3924 31.1996 26.4291 31.4931 26.4905C31.7866 26.5519 31.9885 26.6195 32.0986 26.6932C32.2515 26.8037 32.3736 26.9572 32.4653 27.1537C32.5631 27.344 32.6122 27.5496 32.6122 27.7706V36.643H34.3181V25.7169L34.1896 25.5786Z" fill="#092240"/>
    <path d="M72.7571 11.2798C73.3507 10.8423 73.8834 10.3697 74.2366 9.79415C74.4793 9.48412 74.7221 9.48841 74.9649 9.79415C75.3361 10.3514 75.7751 10.8551 76.3871 11.2223C76.8042 11.5237 76.7255 11.7848 76.3871 12.025C75.8401 12.4187 75.3871 12.8724 75.0301 13.3876C74.758 13.7161 74.4858 13.7457 74.2137 13.3876C73.8047 12.8659 73.3799 12.3543 72.784 11.9519C72.532 11.776 72.4012 11.5761 72.7571 11.2798Z" fill="#E75925"/>
</svg>
