<?xml version="1.0" encoding="UTF-8"?>
<svg width="512px" height="512px" viewBox="0 0 512 512" version="1.1" xmlns="http://www.w3.org/2000/svg" xmlns:xlink="http://www.w3.org/1999/xlink">
    <!-- Generator: Sketch 48.1 (47250) - http://www.bohemiancoding.com/sketch -->
    <title>#HD</title>
    <desc>Created with Sketch.</desc>
    <defs></defs>
    <g id="Компании-BIG" stroke="none" stroke-width="1" fill="none" fill-rule="evenodd">
        <g id="#HD" fill-rule="nonzero">
            <g id="the-home-depot">
                <polygon id="Shape" fill="#EE7125" points="0 0 512 0 512 512 0 512"></polygon>
                <path d="M113.582266,405.29886 L100.294877,418.583335 L91.5550902,409.820243 L104.813346,396.541594 L70.483465,362.226279 C64.9133077,356.641555 64.150033,355.589867 57.1989895,359.193573 C54.6527983,360.562806 51.9055921,360.542413 49.8109566,358.424471 C45.4294103,354.045838 50.1081093,348.7874 50.7169811,348.166875 L93.3991852,305.490498 C94.0022305,304.887452 99.2664952,300.21458 103.650955,304.578647 C105.77181,306.708241 105.789289,309.423402 104.425883,311.981246 C100.795958,318.926463 101.862212,319.678085 107.449849,325.265721 L186.652707,404.47732 C192.234518,410.082436 192.994879,411.145777 199.945923,407.501286 C202.51542,406.158272 205.218927,406.169925 207.345608,408.279127 C211.715502,412.6665 207.057196,417.945331 206.459977,418.554203 L163.76612,461.22184 C163.154335,461.824886 157.87259,466.494845 153.493957,462.130778 C151.390582,460.004097 151.384755,457.286023 152.724856,454.719439 C156.36352,447.780049 155.297267,447.022601 149.70963,441.429137 L113.582266,405.29886 Z M113.00544,512 L95.5928716,512 L95.7297949,511.726153 C99.3364135,504.812982 98.2876391,504.038054 92.7029155,498.450418 L13.4854906,419.250472 C7.88037417,413.642443 7.13749232,412.584928 0.195188565,416.200287 C0.131096798,416.235246 0.0640917678,416.261465 0,416.299338 L0,398.880943 L36.3895578,362.497212 C36.992603,361.911646 42.2685208,357.218381 46.6384141,361.588274 C48.7534424,363.714956 48.7738353,366.424289 47.4162551,368.990873 C43.7834172,375.95357 44.8438446,376.696452 50.4518743,382.298655 L129.657646,461.492774 C135.25111,467.103717 135.996905,468.158318 142.947948,464.534219 C145.511619,463.170813 148.232606,463.170813 150.347634,465.297494 C154.720441,469.68778 150.047568,474.954958 149.450349,475.558004 L113.00544,512 Z M330.477547,68.4092223 L370.275622,28.5994947 L483.35972,141.631154 L443.544166,181.467101 C442.938207,182.070146 437.64481,186.745932 433.274916,182.370212 C431.154061,180.246444 431.154061,177.516717 432.511642,174.967613 C436.124087,168.022396 435.084052,167.262034 429.481849,161.662744 L350.258598,82.4569725 C344.665134,76.8809887 343.919339,75.8118215 336.968296,79.4417461 C334.398798,80.796413 331.680725,80.796413 329.574436,78.6755582 C325.189977,74.3056649 329.874502,69.0035278 330.477547,68.4092223 Z M398.880943,0 L422.562851,0 L441.394178,18.8429797 C442.157453,19.5946014 444.887179,22.6360471 440.354143,27.1370371 C437.781733,29.7123609 435.518128,28.957826 432.502902,27.457496 C416.34595,19.1022601 401.243599,19.4168924 385.844095,30.5659467 L377.069349,21.8086806 L398.880943,0 Z M512,87.3395999 L512,113.00544 L490.135967,134.851993 L481.387441,126.09764 C492.102419,112.358695 493.113321,94.6985001 485.10185,78.5444614 C483.889933,75.2146027 482.36921,71.8818308 485.084371,69.18415 C489.917473,64.3510481 493.990213,69.3443795 494.593259,69.9590778 L512,87.3395999 Z M427.573662,72.2867742 C432.246535,64.2927828 429.210916,55.5355168 424.82063,48.4242438 C423.040626,45.1206045 421.50825,41.7761795 424.666227,38.6094636 C429.339099,33.9569839 434.055671,40.1360129 435.261761,41.3450167 L467.893211,73.9852061 C469.105128,75.1912966 475.29581,79.8933018 470.631677,84.563261 C467.453308,87.7445433 464.138016,86.2005144 460.793591,84.3942918 C453.691058,80.0214853 444.939618,77.006259 436.942713,81.6499989 L427.573662,72.2867742 Z M287.253477,493.331816 L268.579466,512 L258.651069,512 C258.913262,511.408608 259.230808,510.799736 259.542527,510.152992 C260.667046,508.04379 258.193686,505.899629 256.926417,504.629447 L212.382639,460.091495 C211.100803,458.821312 208.985775,456.359606 206.862007,457.472472 C204.56927,458.576598 202.698955,459.937092 200.563534,457.816237 C198.361108,455.607984 200.228509,453.213283 201.929854,451.535244 L223.686096,429.776088 L287.253477,493.331816 Z M429.665385,223.77932 L450.489383,202.958236 L504.539136,257.005075 C507.673806,260.151399 508.116622,260.745704 512,258.718074 L512,268.594032 L491.624644,288.954822 C491.289619,289.29276 488.312265,291.938002 485.850559,289.461729 C484.661948,288.284771 484.656121,286.752395 485.425222,285.307417 C487.470333,281.400733 486.867287,280.984136 483.73553,277.840726 L429.665385,223.77932 Z M486.36038,206.690124 C486.695405,207.039716 488.568632,209.411111 486.010788,211.957303 C483.63648,214.328698 480.999977,212.560348 478.887862,210.926008 C473.609031,207.205772 466.809477,202.789266 459.255388,204.068189 L454.323236,199.141862 L466.556023,186.891595 L486.36038,206.690124 Z M413.62205,239.837221 L425.854838,227.604434 L430.78699,232.524933 C429.502242,240.099415 433.921661,246.887316 437.665202,252.154494 C439.27915,254.281175 441.050413,256.917678 438.679018,259.289073 C436.13574,261.841091 433.761431,259.982429 433.408926,259.629925 L413.62205,239.837221 Z M154.196053,257.683866 C149.668844,267.335503 153.607574,272.468671 157.391902,276.247172 L235.68291,354.544006 C239.461411,358.328334 244.606232,362.255411 254.254956,357.734028 L263.020962,366.5146 C228.17252,395.60935 187.404329,384.702096 157.316157,354.628491 C127.245465,324.537406 116.326558,283.757562 145.430048,248.91786 L154.196053,257.683866 Z M261.05451,350.963607 C265.572979,341.314883 261.640076,336.152582 257.838268,332.382821 L179.56474,254.077247 C175.7775,250.307486 170.632679,246.380408 160.992694,250.904704 L152.220862,242.144525 C187.057651,213.03521 227.846234,223.93955 257.91984,254.016068 C287.996358,284.101327 298.915265,324.866604 269.805949,359.7267 L261.05451,350.963607 Z M427.719325,187.917063 C425.592644,185.822428 422.88331,185.793295 420.3109,187.165441 C413.362769,190.777887 412.622801,189.726199 407.020598,184.126909 L327.811913,104.926964 C322.206796,99.3335002 321.143455,98.5847919 324.785033,91.6250085 C326.116394,89.0700776 326.116394,86.3432642 324.010105,84.2253226 C319.628559,79.8466896 314.355555,84.5283019 313.755423,85.1284339 L273.931129,124.941075 L306.454788,185.222296 L306.143068,185.510709 L243.627376,155.265221 L205.332544,193.554225 C203.529235,195.357535 198.981633,199.881831 203.660332,204.575096 C207.28443,208.210847 211.671803,204.438173 213.623688,202.76596 C216.350502,200.365432 218.780163,201.571523 222.383868,202.486287 C225.55641,203.243735 228.577463,204.758632 231.604343,206.288094 L356.664861,268.311446 L361.034754,263.947379 L299.862075,150.880761 L370.060041,221.075813 C375.653504,226.678016 376.711018,227.444204 373.08692,234.369028 C371.714773,236.950179 371.73808,239.656599 373.876414,241.774541 C378.237567,246.147347 383.522225,241.489041 384.131097,240.874343 L426.83952,198.183399 C427.442565,197.571614 432.089219,192.292783 427.719325,187.917063 Z M309.569065,267.653049 L283.574026,241.660924 L250.196782,225.16312 L249.893802,225.469012 L300.817625,276.407402 C317.297949,297.709174 301.764435,301.473109 308.272663,307.981337 C312.951362,312.654209 318.827412,306.163461 320.479232,304.499989 L337.676218,287.323395 C339.325125,285.659922 345.801306,279.798439 341.113868,275.11974 C334.61438,268.608599 330.870838,284.142113 309.569065,267.653049 Z M227.502469,425.939322 C241.774541,411.314746 263.865808,409.278376 286.822314,430.201425 C307.722057,449.222113 305.181692,475.397774 291.072763,489.506703 L286.14935,484.577463 C290.656167,478.701413 286.064866,473.603205 282.819492,470.386963 L246.628036,434.175114 C243.394315,430.953046 238.296106,426.364658 232.440449,430.865649 L227.502469,425.939322 Z M259.195849,394.25177 L281.622141,371.822564 L345.186608,435.389945 L322.760316,457.81915 C322.419464,458.148349 319.439197,460.790678 316.97749,458.328971 C315.794706,457.14036 315.78888,455.605071 316.552154,454.165919 C318.600178,450.262148 318.002959,449.836812 314.868289,446.684662 L270.339076,402.15545 C267.192753,399.02078 266.758677,398.423561 262.863646,400.448278 C261.412841,401.234859 259.886292,401.229032 258.686028,400.031682 C256.215581,397.581628 258.854997,394.586795 259.195849,394.25177 Z M285.447254,367.991624 L304.395111,349.049594 L321.64745,366.284453 C322.072786,366.712702 323.613902,368.408221 321.058971,370.966065 C319.608166,372.411043 318.346724,371.991533 316.639552,371.137948 C307.535608,366.465075 299.052188,366.636957 290.367754,372.909211 L285.447254,367.991624 Z M344.082482,426.632679 C350.112934,418.906707 350.71598,408.957917 346.20625,399.851059 C345.539113,397.983658 344.670961,396.124997 346.19751,394.592621 C348.93015,391.871634 351.225801,394.671279 351.560826,395.017958 L368.56845,412.022669 L349.023374,431.567745 L344.082482,426.632679 Z M313.831167,396.375538 C316.464756,391.880374 314.769238,386.962788 312.310445,382.962879 C311.27915,381.083825 310.428477,379.207684 312.223047,377.421854 C314.859549,374.799918 317.501878,378.287093 318.180668,378.96297 L336.542959,397.328174 C337.210096,397.995311 340.703098,400.63764 338.057856,403.271229 C336.289505,405.059972 334.413365,404.206386 332.537224,403.180918 C328.548968,400.727951 323.622642,399.02078 319.118738,401.663109 L313.831167,396.375538 Z M337.19553,316.255001 C345.271093,308.176525 350.876209,304.255275 357.174682,302.571409 C367.205044,300.010652 375.280606,303.162801 382.426838,310.285727 C389.549764,317.417393 392.696088,325.507522 390.146983,335.534971 C388.439812,341.83053 384.53604,347.4473 376.457564,355.511209 L371.531238,350.593623 C375.609805,344.624348 372.393564,340.89246 368.230512,336.714842 L355.397592,323.884835 C351.572479,320.071375 347.316203,317.347475 342.12477,321.175501 L337.19553,316.255001 Z M322.064046,350.427567 C318.92355,347.281244 318.4953,346.689851 314.582789,348.717482 C313.143637,349.495323 311.614175,349.477843 310.422651,348.283406 C307.963857,345.827526 310.60036,342.850172 310.935385,342.50932 L333.370417,320.088854 L387.431823,374.147347 C390.560666,377.276191 390.994742,377.887976 394.901427,375.837039 C396.352232,375.076678 397.875868,375.067938 399.073218,376.259462 C401.549491,378.726995 398.907163,381.704349 398.566311,382.033548 L374.514418,406.091267 C374.179393,406.443772 371.869176,408.401484 369.39873,405.942691 C368.215946,404.748253 368.003277,403.416892 368.766552,401.971914 C370.808749,398.068143 369.739582,398.108929 366.599085,394.956779 L322.064046,350.427567 Z" id="Shape" fill="#FFFFFF"></path>
                <path d="M391.263349,269.827232 C388.708077,275.2697 390.910798,278.15135 393.031936,280.277588 L437.065955,324.345249 C439.190007,326.471487 442.086177,328.685224 447.517224,326.127322 L452.447122,331.059377 C432.817851,347.491782 409.867016,341.369734 392.956181,324.432749 C376.030778,307.501597 369.917937,284.530063 386.318882,264.871844 L391.263349,269.827232 Z M451.345762,322.309428 C453.895207,316.866959 451.686659,313.982393 449.559693,311.841572 L405.537329,267.779744 C403.410364,265.644756 400.522935,263.439769 395.083147,265.980171 L390.161989,261.056866 C409.800002,244.627378 432.745009,250.764009 449.647103,267.692244 C466.569592,284.623396 472.699916,307.580346 456.287315,327.250232 L451.345762,322.309428 Z M61.5108137,193.901006 L81.0818124,174.309869 L131.890071,225.170408 C134.847428,228.130807 135.246598,228.690804 138.920713,226.771648 C140.278475,226.048319 141.714905,226.048319 142.833747,227.171229 C145.150101,229.487049 142.673497,232.287033 142.355909,232.604948 L119.748885,255.243983 C119.428383,255.556065 116.634191,258.04105 114.317838,255.716481 C113.196082,254.599404 113.196082,253.161495 113.918668,251.796503 C115.832937,248.118608 115.276429,247.721944 112.319073,244.761544 L61.5108137,193.901006 Z M114.795677,177.827349 C115.116178,178.14818 116.870197,180.382334 114.475175,182.785653 C112.234577,185.02564 109.757973,183.339817 107.765035,181.826076 C102.811827,178.305679 96.4192752,174.14362 89.309965,175.34528 L84.6772587,170.707807 L96.1832694,159.19579 L114.795677,177.827349 Z M46.4093567,209.015085 L57.9153674,197.497235 L62.5451601,202.137625 C61.3476492,209.25425 65.4996029,215.65338 69.0163806,220.614601 C70.5343931,222.615422 72.2126565,225.091658 69.9778857,227.328728 C67.5770366,229.732048 65.3422657,227.970391 65.021764,227.646643 L46.4093567,209.015085 Z M173.430004,183.587732 C176.390275,186.548132 176.786531,187.102295 180.46356,185.186056 C181.818408,184.46856 183.257752,184.46856 184.379508,185.585637 C186.690033,187.904374 184.213429,190.704357 183.895841,191.025189 L161.291731,213.652558 C160.97123,213.976306 158.174124,216.455458 155.857771,214.136722 C154.744756,213.013811 154.738928,211.572986 155.461514,210.210911 C157.378697,206.535932 156.819276,206.139268 153.864833,203.175952 L111.998571,161.275361 C109.044128,158.312045 108.642044,157.754965 104.967929,159.674121 C103.607254,160.391617 102.170824,160.391617 101.054895,159.271623 C98.738542,156.952887 101.215146,154.152903 101.532734,153.834988 L124.142672,131.201786 C124.463173,130.889704 127.257365,128.404719 129.573718,130.723455 C130.695474,131.846365 130.695474,133.28719 129.969975,134.643433 C128.055706,138.321328 128.615127,138.720909 131.572483,141.678392 L173.430004,183.587732 Z M164.962932,153.837905 L157.932291,160.878697 L153.299584,156.235391 L160.330226,149.200431 L142.195658,131.044287 C139.238301,128.086804 138.839131,127.523891 135.165016,129.445963 C133.807254,130.166375 132.370824,130.166375 131.249068,129.043465 C128.932715,126.724728 131.412233,123.927661 131.729821,123.603913 L154.336844,100.976544 C154.657346,100.65863 157.454452,98.1794773 159.770805,100.498214 C160.886734,101.618207 160.886734,103.056116 160.169975,104.415274 C158.252792,108.09317 158.812214,108.495668 161.766656,111.45315 L203.627091,153.356657 C206.584448,156.317057 206.980704,156.87122 210.657733,154.957898 C212.015494,154.237486 213.451925,154.237486 214.570767,155.357479 C216.890034,157.676216 214.410516,160.476199 214.095842,160.791198 L191.485904,183.427316 C191.168316,183.748148 188.374124,186.224383 186.051944,183.905647 C184.936015,182.791487 184.936015,181.350662 185.652773,179.988586 C187.569956,176.307774 187.010535,175.91111 184.056092,172.95071 L164.962932,153.837905 Z M161.865721,93.4428381 L182.957646,72.3321272 L242.713729,132.14678 L221.624718,153.257491 C221.30713,153.572489 218.512938,156.054558 216.190757,153.735822 C215.074829,152.618745 215.074829,151.17792 215.791587,149.821678 C217.70877,146.137949 217.152262,145.741285 214.194906,142.780885 L172.331558,100.874462 C169.377115,97.9169788 168.975031,97.3540654 165.300916,99.273221 C163.943154,99.9965501 162.506724,99.9965501 161.387882,98.8765566 C159.071529,96.5578201 161.548133,93.7578363 161.865721,93.4428381 Z M186.558919,68.7300647 L204.370072,50.9005848 L220.584544,67.1317407 C220.980801,67.5342383 222.417231,69.1296458 220.028037,71.5271319 C218.667361,72.8892073 217.472764,72.4867096 215.876083,71.6875476 C207.321601,67.2950731 199.332368,67.4496555 191.188712,73.3675379 L186.558919,68.7300647 Z M241.676469,123.907245 C247.343522,116.63312 247.90877,107.273591 243.675234,98.7161409 C243.031317,96.9544844 242.232977,95.1957446 243.675234,93.7578363 C246.227593,91.1999345 248.386609,93.8365858 248.707111,94.160334 L264.682663,110.149408 L246.309175,128.544718 L241.676469,123.907245 Z M213.236314,95.4349099 C215.712918,91.1999345 214.113324,86.5624613 211.79697,82.8028998 C210.841293,81.04416 210.040038,79.2854202 211.718302,77.60543 C214.197819,75.1262777 216.674423,78.4016753 217.312513,79.0462549 L234.567159,96.3186548 C235.208162,96.9574011 238.480193,99.43947 236.009416,101.915706 C234.328239,103.592779 232.568394,102.796534 230.811462,101.834039 C227.055765,99.5211362 222.423058,97.9198955 218.189522,100.401964 L213.236314,95.4349099 Z M478.302868,491.56553 C478.302868,483.293911 484.666283,477.198113 492.189332,477.198113 C499.645367,477.198113 506.011696,483.293911 506.011696,491.56553 C506.011696,499.915898 499.636626,506.011696 492.189332,506.011696 C484.672111,506.011696 478.302868,499.915898 478.302868,491.56553 Z M492.189332,503.60546 C498.383756,503.60546 503.26995,498.501323 503.26995,491.55678 C503.26995,484.734736 498.383756,479.595599 492.189332,479.595599 C485.936635,479.595599 481.053355,484.734736 481.059182,491.55678 C481.059182,498.501323 485.936635,503.60546 492.189332,503.60546 Z M489.304817,499.915898 L486.92145,499.915898 L486.915622,483.293911 L492.923572,483.293911 C496.650133,483.293911 498.488647,484.740569 498.488647,488.0218 C498.488647,490.993866 496.720061,492.294692 494.409535,492.59219 L498.893645,499.915898 L496.213085,499.915898 L492.049477,492.711773 L489.304817,492.711773 L489.304817,499.915898 Z M492.154368,490.573869 C494.185183,490.573869 495.988734,490.419286 495.988734,487.867218 C495.988734,485.81098 494.220147,485.428899 492.547711,485.428899 L489.293162,485.428899 L489.296076,490.573869 L492.154368,490.573869 Z" id="Shape" fill="#FFFFFF"></path>
            </g>
        </g>
    </g>
</svg>