<svg width="68" height="40" viewBox="0 0 68 40" fill="none" xmlns="http://www.w3.org/2000/svg">
    <g clip-path="url(#clip0_38_57)">
        <path d="M2.92851 28.6828V11.3167C2.92851 7.91457 3.04528 7.33357 8.23227 5.89624C17.996 3.19308 26.6206 2.66006 33.524 2.65329V0H0V40H33.5238V37.5802C26.6204 37.5725 17.996 36.8074 8.23211 34.1038C3.04528 32.6664 2.92851 32.0854 2.92851 28.6828Z" fill="#00704A"/>
        <path d="M65.0721 28.6828V11.3167C65.0721 7.91457 64.9553 7.33357 59.7679 5.89624C50.0035 3.19308 41.3792 2.66006 34.4763 2.65329V0H68.0001V40H34.4763V37.5802C41.3792 37.5725 50.0035 36.8074 59.7679 34.1038C64.9553 32.6664 65.0721 32.0854 65.0721 28.6828Z" fill="#00704A"/>
        <path d="M16.2549 12.7563V18.1669H9.98521V12.7563H6.17944V27.208H9.98521V21.7812H16.2549V27.208H20.0621V12.7563H16.2549Z" fill="#00704A"/>
        <path d="M33.2854 16.3725V12.7563C33.2854 12.7563 26.0811 12.7563 24.1451 12.7563C22.2085 12.7563 21.5586 13.1799 21.5586 15.7081V24.2545C21.5586 26.7835 22.2087 27.208 24.1451 27.208C26.0811 27.208 33.2854 27.208 33.2854 27.208V23.5832H25.2919V21.7812H33.2854V18.1668H25.2919V16.3725H33.2854Z" fill="#00704A"/>
        <path d="M45.0435 18.1669H38.44V16.3726H47.3251V12.7563C47.3251 12.7563 39.3934 12.7563 37.3385 12.7563C35.2821 12.7563 34.7068 13.2266 34.7068 15.724V18.9429C34.7068 21.8416 35.2767 21.7812 37.3385 21.7812C39.3985 21.7812 43.9406 21.7812 43.9406 21.7812V23.5832H34.7056V27.208C34.7056 27.208 42.9886 27.208 45.0435 27.208C47.0994 27.208 47.6741 26.7372 47.6741 24.2408V21.0959C47.6741 18.1962 47.1051 18.1669 45.0435 18.1669Z" fill="#00704A"/>
        <path d="M59.1875 18.1669H52.5843V16.3726H61.4694V12.7563C61.4694 12.7563 53.5377 12.7563 51.4815 12.7563C49.4256 12.7563 48.8513 13.2266 48.8513 15.724V18.9429C48.8513 21.8416 49.4207 21.7812 51.4815 21.7812C53.5425 21.7812 58.0846 21.7812 58.0846 21.7812V23.5832H48.8499V27.208C48.8499 27.208 57.1321 27.208 59.1875 27.208C61.2428 27.208 61.8186 26.7372 61.8186 24.2408V21.0959C61.8186 18.1962 61.2483 18.1669 59.1875 18.1669Z" fill="#00704A"/>
    </g>
    <defs>
        <clipPath id="clip0_38_57">
            <rect width="68" height="40" fill="white"/>
        </clipPath>
    </defs>
</svg>
