<svg width="66" height="19" viewBox="0 0 66 19" fill="none" xmlns="http://www.w3.org/2000/svg">
    <path d="M7.00459 5.47884C5.80248 5.47884 4.83155 5.87185 4.13803 6.6116V0.231201H0.231201V17.5692H4.13803V11.1426C4.13803 10.4722 4.29985 9.94049 4.6235 9.57062C4.92402 9.20073 5.34013 9.01579 5.87183 9.01579C6.91211 9.01579 7.39758 9.61684 7.39758 10.8883V17.5923H11.3044V10.0561C11.3044 8.57658 10.8883 7.44383 10.0561 6.65784C9.20073 5.87184 8.18357 5.47884 7.00459 5.47884" fill="#FF5C57"/>
    <path d="M16.6907 6.17236H12.9226V17.5692H16.6907V6.17236Z" fill="#FF5C57"/>
    <path d="M16.9451 2.51979C16.9451 3.69878 15.9973 4.66971 14.7952 4.66971C13.6162 4.66971 12.6453 3.7219 12.6453 2.51979C12.6453 1.34081 13.5931 0.369873 14.7952 0.369873C15.9973 0.369873 16.9451 1.34081 16.9451 2.51979Z" fill="#FF5C57"/>
    <path d="M29.4746 6.1724H25.013L22.2389 9.87117V0.762939H18.4708V17.5692H22.2389V13.5468L24.9667 17.5692H29.7289L25.0592 11.6281L29.4746 6.1724Z" fill="#FF5C57"/>
    <path d="M45.8185 6.9583C45.0094 6.21855 44.0385 5.82556 42.9289 5.82556C42.2122 5.82556 41.5418 5.98739 40.987 6.31103C40.5016 6.56532 40.1317 6.9352 39.8543 7.37442C39.5537 6.9352 39.1607 6.56532 38.6753 6.31103C38.0973 5.98739 37.4732 5.82556 36.8028 5.82556C35.6469 5.82556 34.6991 6.21855 34.0056 7.02766V6.14921H30.4686V17.5692H34.2368V11.3044C34.2368 10.634 34.3755 10.1254 34.6297 9.80175C34.884 9.47811 35.2308 9.31628 35.67 9.31628C36.7797 9.31628 36.8952 10.2872 36.8952 11.0038V17.5692H40.6634V11.1888C40.6634 10.5877 40.8021 10.1023 41.0564 9.77863C41.3107 9.45499 41.6343 9.29316 42.0966 9.29316C43.1832 9.29316 43.2988 10.2641 43.2988 10.9807V17.5692H47.0669V10.2641C47.0438 8.83083 46.6276 7.72118 45.8185 6.9583Z" fill="#FF5C57"/>
    <path d="M56.5913 16.7601V17.6155H60.2901V6.05681H56.3601V6.77346C55.6666 6.14929 54.6957 5.84875 53.586 5.84875C52.0603 5.84875 50.812 6.42669 49.8179 7.53632C48.847 8.64595 48.3615 10.1023 48.3615 11.8592C48.3615 13.6393 48.8701 15.0957 49.841 16.2053C50.812 17.315 52.0603 17.8698 53.6091 17.8698C54.7881 17.8929 55.8978 17.4999 56.5913 16.7601V16.7601ZM52.8232 13.9398C52.3839 13.4081 52.1759 12.7146 52.1759 11.8592C52.1759 11.027 52.3839 10.3566 52.8232 9.84806C53.2393 9.33948 53.771 9.08518 54.4183 9.08518C55.0887 9.08518 55.6204 9.33948 56.0365 9.84806C56.4757 10.3566 56.6838 11.027 56.6838 11.8592C56.6838 12.7146 56.4757 13.4081 56.0365 13.9398C55.6204 14.4484 55.0887 14.7027 54.4183 14.7027C53.771 14.7027 53.2624 14.4715 52.8232 13.9398Z" fill="#FF5C57"/>
    <path d="M65.7688 15.7198C65.7688 16.8988 64.821 17.8698 63.6189 17.8698C62.4399 17.8698 61.469 16.9219 61.469 15.7198C61.469 14.5409 62.4168 13.5699 63.6189 13.5699C64.7979 13.5931 65.7688 14.5409 65.7688 15.7198Z" fill="#FF5C57"/>
</svg>
