<?xml version="1.0" encoding="UTF-8"?>
<svg width="512px" height="512px" viewBox="0 0 512 512" version="1.1" xmlns="http://www.w3.org/2000/svg" xmlns:xlink="http://www.w3.org/1999/xlink">
    <!-- Generator: Sketch 49 (51002) - http://www.bohemiancoding.com/sketch -->
    <title>HK50</title>
    <desc>Created with Sketch.</desc>
    <defs></defs>
    <g id="HK50" stroke="none" stroke-width="1" fill="none" fill-rule="evenodd">
        <g id="Hong_Kong_Exchanges_and_Clearing_Ltd_logo">
            <path d="M462.117904,449.280403 C420.618023,484.176062 304.495439,414.386783 202.847139,293.3612 C101.14582,172.394748 52.3863656,46.0289911 93.90256,11.1353712 L40.5834414,61.4031449 C2.25248674,99.7590079 61.7585562,221.40649 173.531514,333.195347 C285.239217,444.9108 406.953304,504.403066 445.320964,466.075749 L462.117904,449.280403" id="Shape" fill="#BCBEC0"></path>
            <path d="M417.021602,22.3334777 C375.467446,-12.5840522 259.455211,57.5246945 157.940936,178.861886 C56.400145,300.217459 7.81117444,426.850693 49.3938855,461.711035 L108.162839,505.545852 C63.716434,474.398663 101.174936,344.033894 191.88509,214.349256 C282.538134,84.7013822 392.051987,4.80935472 436.50655,35.9769674 L417.021602,22.3334777" id="Shape" fill="#BCBEC0"></path>
            <path d="M255.01836,0 C395.8416,0 510,114.186442 510,255.019379 C510,395.831917 395.8416,510 255.01836,510 C114.16656,510 0,395.831917 0,255.019379 C0,114.186442 114.16656,0 255.01836,0" id="Shape" fill="#005D98" fill-rule="nonzero"></path>
            <path d="M222.531963,285.065502 L222.843215,284.181937 L213.137463,280.939477 L190.117073,240.736236 L229.629713,211.454108 L242.403223,207.981064 L242.751092,207.117904 C231.928498,207.448476 221.179139,207.448476 210.498947,207.117904 L210.151078,207.981064 L218.703369,210.754193 L176.436256,244.868383 L192.82679,280.939477 L182.736552,284.181937 L182.360203,285.065502 C195.931166,284.73493 209.235633,284.73493 222.531963,285.065502 M174.330733,285.065502 L174.678602,284.181937 L159.815844,280.415051 C163.762429,268.787904 167.910412,257.360731 172.296411,245.751949 C176.582728,234.400278 180.960589,223.138391 185.647667,211.89487 L203.338133,207.981064 L203.667693,207.117904 C187.743019,207.521936 171.946507,207.521936 156.326981,207.117904 L155.979112,207.981064 L170.64861,211.89487 C167.131267,222.807819 163.432869,233.828919 159.293023,244.868383 C154.807343,256.681223 149.861905,268.565482 144.861541,280.415051 L127.272792,284.181937 L126.943231,285.065502 C142.912661,284.622699 158.753928,284.622699 174.330733,285.065502" id="Shape" fill="#FFFFFF" fill-rule="nonzero"></path>
            <path d="M406.176004,238.359461 C455.798791,142.585218 470.06853,60.0628215 435.890516,36.1151776 L416.40452,22.4774741 C446.184312,47.3989481 429.774623,119.299044 380.857673,202.576823 C372.034711,190.850031 362.648711,179.051784 352.824113,167.306618 C251.11015,46.2025866 134.959169,-23.6926851 93.4269872,11.2100362 L40.0873362,61.5409199 C78.4697714,23.1552761 200.202169,82.7406074 312.026328,194.616732 C327.693461,210.31234 342.328358,226.236605 355.81882,241.997543 C341.559282,262.895078 325.51679,284.160096 307.848426,305.243414 C208.531453,423.832228 95.3098991,493.464137 51.4908873,463.798049 L107.494767,505.482874 C151.927816,536.655642 261.493705,456.795456 352.154996,327.222982 C363.789066,310.590292 374.5133,294.010683 384.303218,277.58215 C447.165548,361.372363 473.887393,437.794542 444.980717,466.723622 L461.784125,449.907191 C495.180822,421.82128 470.160329,334.501188 406.176004,238.359461" id="Shape" fill="#C4161C"></path>
            <path d="M101.931589,207.117904 L101.58156,207.981064 L116.384524,211.89487 C113.23223,221.814064 109.715661,231.827123 105.979306,241.911603 L58.8597259,241.911603 C62.6693422,231.808758 66.73741,221.871199 70.9682819,211.89487 L88.665089,207.981064 L88.9947673,207.117904 C73.0379292,207.521936 57.23779,207.521936 41.6533662,207.117904 L41.3053724,207.981064 L55.9618127,211.89487 C52.4167532,222.807819 48.7434854,233.828919 44.5838403,244.868383 C40.1311478,256.681223 35.1676574,268.565482 30.12887,280.415051 L12.5785866,284.181937 L12.2489083,285.065502 C28.2057465,284.622699 44.0343764,284.622699 59.6432207,285.065502 L59.9728991,284.181937 L45.1516196,280.415051 C48.7984317,269.467412 52.5897325,258.462637 56.7127467,247.533363 L103.889309,247.533363 C99.6930326,258.481002 95.1507979,269.430682 90.5698971,280.415051 L72.8629147,284.181937 L72.5617271,285.065502 C88.4921096,284.622699 104.312599,284.622699 119.838007,285.065502 L120.175825,284.181937 L105.456298,280.415051 C109.451104,268.896054 113.362473,257.562747 117.648291,246.174346 C121.991091,234.730849 126.49873,223.248582 131.26075,211.89487 L148.86598,207.981064 L149.213974,207.117904 C133.350748,207.523977 117.558749,207.523977 101.931589,207.117904" id="Shape" fill="#FFFFFF" fill-rule="nonzero"></path>
            <path d="M286.629705,207.450508 L285.672895,207.450508 C274.444686,207.468872 263.273723,207.377049 252.202938,207.119944 L251.935113,207.983081 L266.669581,211.896785 C263.079498,222.809449 259.370836,233.83026 255.193992,244.869436 C250.749322,256.681966 245.781269,268.565914 240.727349,280.415173 L223.08565,284.18196 L222.707424,285.065502 C246.707413,284.622711 270.652201,284.845127 294.44161,285.065502 L303.240993,261.826099 L302.404806,261.826099 L291.342199,279.186784 L256.206003,279.186784 C259.722485,268.659777 263.384124,258.151135 267.413767,247.534346 L292.483012,247.534346 L291.231798,261.697547 L292.133408,261.697547 L304.933811,227.914813 L304.005623,227.914813 L294.635834,241.910692 L269.474589,241.910692 C273.230273,232.230498 277.159737,222.603357 281.199602,213.051716 L313.021719,213.051716 L312.543314,226.682343 L313.260922,226.682343 L320.69869,207.117904 C309.333502,207.266861 297.986715,207.413778 286.629705,207.450508" id="Shape" fill="#FFFFFF" fill-rule="nonzero"></path>
        </g>
    </g>
</svg>