<svg width="160" height="41" viewBox="0 0 160 41" fill="none" xmlns="http://www.w3.org/2000/svg">
    <g clip-path="url(#clip0_38_72)">
        <path d="M37.4094 6.96802H40.9608V11.8446H47.5071V6.96802H51.085V19.663H47.5336V14.1769H40.9608V19.663H37.4094V6.96802ZM53.9473 19.663H66.2448V17.3042H57.4987V14.2034H65.3437V12.0301H57.4987V9.30029H66.0592V6.96802H53.9473V19.663ZM71.9429 9.14127H75.8389C77.4556 9.14127 78.2772 9.67133 78.2772 10.8905C78.2772 12.1626 77.4291 12.6927 75.8389 12.6927H71.9429V9.14127ZM68.3915 19.663H71.9429V14.7069H75.4943C77.2965 14.7069 77.9326 15.29 78.1976 16.6151C78.3832 17.6222 78.3567 18.8679 78.7542 19.663H82.3056C81.643 18.9739 81.6961 17.4632 81.6165 16.6681C81.5105 15.3695 81.007 14.0708 79.2578 13.6998V13.6733C81.06 13.1167 81.8286 11.9771 81.8286 10.4929C81.8286 8.58471 79.9999 6.99452 77.0845 6.99452H68.3385V19.663H68.3915ZM88.0568 17.4897V14.0178H91.9262C93.4634 14.0178 94.497 14.5214 94.497 15.82C94.497 17.1452 93.2514 17.4897 91.8732 17.4897H88.0568ZM88.0568 12.1096V9.14127H91.3962C92.6683 9.14127 93.8345 9.4063 93.8345 10.5989C93.8345 11.6591 92.9333 12.1096 91.6612 12.1096H88.0568ZM84.4789 19.663H92.3238C95.2656 19.663 98.0484 18.5499 98.0484 15.9791C98.0484 14.3889 97.0678 13.1962 95.0801 12.7722C96.5113 12.2156 97.2799 11.394 97.2799 10.1219C97.2799 7.76311 95.1861 6.96802 92.1118 6.96802H84.4789V19.663ZM103.826 14.7599L105.946 10.0954H105.999L108.04 14.7599H103.826ZM98.0219 19.663H101.626L102.899 16.8272H108.968L110.187 19.663H113.897L107.828 6.96802H104.171L98.0219 19.663ZM115.01 19.663H126.46V17.3042H118.562V6.96802H114.984V19.663H115.01ZM127.732 19.663H131.283V6.96802H127.732V19.663ZM134.172 19.663H137.724V14.4154H144.508V12.2686H137.724V9.32679H145.542V6.96802H134.146V19.663H134.172ZM147.344 19.663H159.642V17.3042H150.896V14.2034H158.74V12.0301H150.896V9.30029H159.456V6.96802H147.344V19.663Z" fill="black"/>
        <path d="M16.8169 5.08643C7.85887 5.08643 0.623535 12.3483 0.623535 21.2798C0.623535 30.2113 7.88537 37.4732 16.8169 37.4732C25.7484 37.4732 33.0103 30.2113 33.0103 21.2798C33.0103 12.3483 25.7749 5.08643 16.8169 5.08643ZM16.8169 36.4926C8.41544 36.4926 1.60415 29.6813 1.60415 21.2798C1.60415 12.8783 8.38893 6.06704 16.8169 6.06704C25.2184 6.06704 32.0297 12.8783 32.0297 21.2798C32.0297 29.6813 25.2184 36.4926 16.8169 36.4926ZM2.8763 21.1738C8.41544 22.923 13.61 28.3031 15.2002 35.1939C7.40832 34.1868 2.8763 27.7996 2.8763 21.1738ZM30.7045 21.1738C30.678 27.7996 26.146 34.1868 18.3806 35.1939C19.9178 28.3031 25.1919 22.923 30.7045 21.1738ZM16.8169 35.1939C10.9332 26.1034 12.2054 13.6204 16.8169 6.88864C21.2164 13.6204 22.5946 26.1034 16.8169 35.1939ZM37.4098 22.5784H40.9612L47.7195 31.0859H47.7725V22.5784H51.1119V35.2734H47.534L40.7757 26.7924H40.7227V35.2999H37.4098V22.5784ZM67.7558 30.4764C67.7558 33.8953 65.1585 35.565 60.8385 35.565C56.4655 35.565 53.9477 33.9218 53.9477 30.4764V22.5784H57.4991V30.4764C57.4991 31.8545 57.9497 33.2327 60.8385 33.2327C63.3828 33.2327 64.2044 32.3846 64.2044 30.4764V22.5784H67.7558V30.4764ZM74.3551 24.9372H69.505V22.5784H82.783V24.9372H77.933V35.2734H74.3816V24.9372H74.3551ZM88.1102 28.3296H92.0061C93.6228 28.3296 94.4444 27.7996 94.4444 26.5274C94.4444 25.3083 93.5963 24.7782 92.0061 24.7782H88.1102V28.3296ZM84.5587 22.5784H93.3048C96.2201 22.5784 98.0488 24.1686 98.0488 26.0769C98.0488 27.561 97.3067 28.7007 95.478 29.2572V29.2837C97.2272 29.6548 97.7308 30.9534 97.8368 32.2521C97.9163 33.0472 97.8633 34.5578 98.5259 35.2469H94.9744C94.5769 34.4518 94.5769 33.2062 94.4179 32.1991C94.1794 30.8739 93.5168 30.2908 91.7146 30.2908H88.1632V35.2469H84.6117V22.5784H84.5587ZM101.388 22.5784H104.94V35.2734H101.388V22.5784ZM111.883 24.9372H107.033V22.5784H120.311V24.9372H115.461V35.2734H111.91V24.9372H111.883ZM122.405 22.5784H125.957V35.2734H122.405V22.5784ZM135.895 33.2327C139.102 33.2327 140.295 31.0859 140.295 28.9922C140.295 26.7659 139.102 24.6457 135.895 24.6457C132.688 24.6457 131.496 26.7924 131.496 28.9922C131.496 31.1124 132.715 33.2327 135.895 33.2327ZM135.895 22.2869C140.878 22.2869 143.873 25.2288 143.873 28.9922C143.873 32.6496 140.904 35.5915 135.895 35.5915C130.913 35.5915 127.918 32.6496 127.918 28.9922C127.944 25.2288 130.913 22.2869 135.895 22.2869ZM145.966 22.5784H149.518L156.276 31.0859H156.329V22.5784H159.668V35.2734H156.117L149.385 26.7659H149.332V35.2734H145.993V22.5784H145.966Z" fill="#7AC143"/>
    </g>
    <defs>
        <clipPath id="clip0_38_72">
            <rect width="160" height="33.6" fill="white" transform="translate(0 4)"/>
        </clipPath>
    </defs>
</svg>
