<svg width="107" height="40" viewBox="0 0 107 40" fill="none" xmlns="http://www.w3.org/2000/svg">
    <g clip-path="url(#clip0_38_81)">
        <path d="M0 20V40H53.3333H106.667V20V0H53.3333H0V20ZM104.884 20V38.1991L53.3615 38.1801L1.82938 38.1517L1.80123 19.9716L1.78247 1.80095H53.3333H104.884V20Z" fill="black"/>
        <path d="M9.19385 9.70614V10.218L9.59725 10.2843C9.81302 10.3128 10.132 10.3696 10.3009 10.3981L10.6011 10.4455L10.5823 19.9905L10.5542 29.526L9.87869 29.6019L9.19385 29.6872V30.2464V30.8057H12.7588H16.3237V30.2464V29.6872L15.6483 29.6019L14.9634 29.526L14.9353 25.1848L14.9165 20.8531H19.6072H24.2979V25.1564C24.2979 28.7488 24.2792 29.4692 24.1666 29.5071C24.0915 29.5355 23.735 29.5924 23.3692 29.6303L22.7031 29.6967V30.2464V30.8057H26.3618H30.0206V30.2464V29.6872L29.392 29.6208C29.0543 29.5829 28.7166 29.5355 28.6415 29.5071C28.5383 29.4692 28.5196 27.763 28.5196 19.9526V10.4455L28.8948 10.3886C29.1012 10.3602 29.4389 10.3033 29.6453 10.2749L30.0206 10.218V9.70614V9.19429H26.3618H22.7031V9.70614V10.218L23.1534 10.2749C23.3973 10.3128 23.7538 10.3602 23.9508 10.3886L24.2979 10.4455V14.5118V18.5782H19.6072H14.9165V14.5118V10.4455L15.3199 10.3791C16.4269 10.2085 16.3237 10.2749 16.3237 9.70614V9.19429H12.7588H9.19385V9.70614Z" fill="black"/>
        <path d="M35.5462 9.45972C33.5948 10.4834 34.3735 13.4597 36.5875 13.4597C37.2536 13.4597 37.7696 13.2133 38.2011 12.7109C38.9047 11.8768 38.9047 10.7773 38.1917 9.94313C37.535 9.1564 36.4749 8.96683 35.5462 9.45972Z" fill="black"/>
        <path d="M42.873 9.65875V10.1232L43.511 10.199L44.1395 10.2843L44.1677 19.9715L44.1864 29.6493L43.9331 29.7061C43.783 29.7346 43.4922 29.782 43.2764 29.8104L42.873 29.8768V30.3412V30.8057H46.2034H49.5339V30.3412V29.8768L49.1398 29.8104C48.9147 29.782 48.6239 29.7346 48.4831 29.7061L48.2205 29.6493V19.4218V9.19429H45.5467H42.873V9.65875Z" fill="black"/>
        <path d="M55.7538 11.6018L53.8494 12.18V13.8104V15.4502H52.3953H50.9412V16.1611V16.872H52.339H53.7462L53.7743 22.6255C53.8119 29.0331 53.8119 28.9668 54.4592 29.8767C55.4442 31.2416 58.39 31.3838 61.8987 30.2274L62.4803 30.0284V29.507V28.9857L62.1989 29.0521C62.0394 29.09 61.3733 29.1184 60.7166 29.1184C59.0092 29.1279 58.4651 28.9194 58.0523 28.0758L57.8365 27.6303L57.8084 22.2464L57.7802 16.872H59.5721H61.3545V16.1611V15.4502H59.5721H57.7896V13.2227C57.7896 11.9999 57.7614 10.9952 57.7239 11.0047C57.677 11.0142 56.7952 11.2796 55.7538 11.6018Z" fill="black"/>
        <path d="M70.1729 15.0331C68.7657 15.2227 67.0114 15.9336 66.0263 16.7203C64.8724 17.6492 63.9436 19.1279 63.5121 20.7108C63.2213 21.7724 63.1462 24.1326 63.362 25.3933C63.6716 27.1563 64.1782 28.2463 65.2008 29.289C66.4203 30.5307 68.0996 31.1373 70.642 31.2416C73.3251 31.3648 75.5203 30.6445 77.1151 29.1279C78.6256 27.6966 79.3292 26.0378 79.4324 23.6966C79.498 22.2084 79.3573 21.0805 78.9539 19.8862C78.5411 18.6445 78.1471 18.0094 77.2559 17.1089C76.6461 16.4833 76.3365 16.2653 75.6141 15.8956C74.3852 15.289 73.4376 15.071 71.8146 15.0236C71.0923 15.0046 70.3511 15.0141 70.1729 15.0331ZM71.8616 16.2084C72.9592 16.417 73.7097 17.052 74.2538 18.2463C74.8448 19.5354 75.0512 20.7866 75.0512 23.1658C75.0512 27.9146 73.9067 30.0568 71.3456 30.0663C70.4168 30.0757 69.7414 29.8103 69.1691 29.2037C67.9777 27.9715 67.396 25.1089 67.6399 21.7535C67.8838 18.3885 68.8876 16.5686 70.6701 16.2084C71.2236 16.1042 71.3081 16.1042 71.8616 16.2084Z" fill="black"/>
        <path d="M91.1123 15.1753C89.9396 15.327 88.4949 15.981 87.2659 16.9194C86.8907 17.2038 86.5342 17.4407 86.4873 17.4407C86.4404 17.4407 86.4028 16.9952 86.4028 16.4455V15.4502H83.7291H81.0554V15.9621V16.4739L81.5057 16.5308C81.7496 16.5687 82.0592 16.6161 82.2093 16.6445L82.4626 16.7014V23.1753V29.6493L81.9279 29.7061C81.0554 29.8104 81.0554 29.8104 81.0554 30.3412V30.8057H84.4327H87.81V30.3317C87.81 30.0663 87.7819 29.8578 87.7444 29.8483C87.6975 29.8388 87.3973 29.7914 87.0595 29.7251L86.4497 29.6208V24.1232V18.6256L86.9188 18.3128C87.1815 18.1422 87.7256 17.8673 88.1384 17.7061C88.7857 17.4407 89.0015 17.4028 89.7332 17.3933C90.662 17.3933 91.0935 17.5545 91.5814 18.0758C92.3225 18.8625 92.4257 19.7441 92.3882 25.308L92.36 29.6208L91.7502 29.7251C91.4125 29.7914 91.1123 29.8388 91.0748 29.8483C91.0279 29.8578 90.9997 30.0663 90.9997 30.3317V30.8057H94.377H97.7543V30.3412C97.7543 29.8104 97.7543 29.8104 96.8912 29.7156L96.3565 29.6493L96.3284 24.1327C96.3002 18.673 96.2908 18.6161 96.0751 17.9621C95.7842 17.0616 95.5028 16.5971 94.9399 16.0853C94.3864 15.5829 93.6828 15.2891 92.7447 15.1659C91.9941 15.0616 91.9285 15.0616 91.1123 15.1753Z" fill="black"/>
        <path d="M33.2102 15.9147V16.3791L33.6605 16.436C33.9044 16.4739 34.214 16.5213 34.3641 16.5497L34.6174 16.6066L34.5987 23.109L34.5705 29.6208L33.9607 29.7251C33.623 29.7914 33.3228 29.8388 33.2853 29.8483C33.2383 29.8578 33.2102 30.0663 33.2102 30.3317V30.8057H36.5969H39.9742L39.9461 30.3696C39.9085 29.8483 39.8429 29.7914 39.1017 29.7156L38.5576 29.6587V22.5497V15.4502H35.8839H33.2102V15.9147Z" fill="black"/>
    </g>
    <defs>
        <clipPath id="clip0_38_81">
            <rect width="106.667" height="40" fill="white"/>
        </clipPath>
    </defs>
</svg>
