<svg width="160" height="35" viewBox="0 0 160 35" fill="none" xmlns="http://www.w3.org/2000/svg">
    <g clip-path="url(#clip0_38_2226)">
        <path d="M94.802 18.1842H99.5674V17.3589H94.802V18.1842Z" fill="#F26A2B"/>
        <path d="M54.0433 15.1226V17.2523H49.7571V15.1226H48.4526V20.5535H49.7571V18.3439H54.0433V20.5535H55.3478V15.1226H54.0433ZM59.421 15.1226L56.4393 20.5535H57.9036L58.4892 19.462H61.9768L62.5625 20.5535H64.0267L61.045 15.1226H59.421ZM60.2197 16.2141L61.4177 18.4503H58.9951L60.2197 16.2141ZM66.2363 16.2673H68.659C69.1382 16.2673 69.7505 16.2673 69.7505 17.0394C69.7505 17.8114 69.1115 17.8114 68.659 17.8114H66.2363V16.2673ZM71.0816 17.0926C71.0816 15.9745 70.2563 15.2291 69.0317 15.2291H64.9585V20.5003H66.263V18.9828H68.5525L69.5109 20.5003H71.0283L69.9368 18.7964C70.629 18.5036 71.0816 17.8913 71.0816 17.0926ZM73.9302 15.2291H72.5991V20.5003H78.0034V19.4088H73.9302V15.2291ZM79.3079 20.4736H84.8453V19.4088H80.5858V18.2107H83.807V17.2523H80.5858V16.1875H84.8453V15.1758H79.3079V20.4736ZM89.451 17.5718L87.3478 15.2291H85.7505L88.812 18.6633V20.5003H90.1165V18.6367L93.1515 15.2024H91.5541L89.451 17.5718ZM107.155 17.838C107.155 19.1692 106.516 19.4354 105.398 19.4354H103.401V16.2673H105.398C106.569 16.2673 107.155 16.5069 107.155 17.838ZM105.904 15.2291H102.123V20.5003H105.904C107.794 20.5003 108.486 19.0627 108.486 17.838C108.486 16.64 107.82 15.2291 105.904 15.2291ZM119.348 19.3289L117.271 15.2291H115.78L118.709 20.5003H120.226L123.181 15.2291H121.691L119.348 19.3289ZM124.406 20.4736H125.737V15.2024H124.406V20.4736ZM138.436 15.1492C136.919 15.1492 135.348 15.3089 135.348 16.6667C135.348 17.6517 135.854 18.1841 138.516 18.3439C140.273 18.4503 140.566 18.5036 140.566 18.9296C140.566 19.2756 140.273 19.5152 138.702 19.5152C136.998 19.5152 136.572 19.249 136.493 18.7964H135.161C135.188 19.7548 135.694 20.5535 138.596 20.5535C140.273 20.5535 141.817 20.3405 141.817 18.8497C141.817 17.4919 140.433 17.3855 138.489 17.279C136.919 17.1725 136.626 17.066 136.626 16.6933C136.626 16.3472 136.865 16.1875 138.303 16.1875C139.687 16.1875 140.246 16.3206 140.3 16.7998H141.604C141.498 15.6816 140.486 15.1492 138.436 15.1492ZM148.18 17.838C148.18 18.9562 147.567 19.4354 146.183 19.4354C144.745 19.4354 144.186 18.9562 144.186 17.838C144.186 16.7199 144.772 16.2407 146.183 16.2407C147.594 16.2407 148.18 16.7199 148.18 17.838ZM146.183 15.1492C144 15.1492 142.882 16.0543 142.882 17.838C142.882 19.6484 144 20.5535 146.183 20.5535C148.366 20.5535 149.484 19.6484 149.484 17.838C149.484 16.0543 148.366 15.1492 146.183 15.1492ZM156.246 15.2291V19.1425L152.439 15.2291H150.815V20.5003H152.12V16.6134L155.927 20.447V20.4736H157.551V15.2024H156.246V15.2291ZM132.659 17.838C132.659 19.1692 132.02 19.4354 130.902 19.4354H128.905V16.2673H130.902C132.02 16.2673 132.659 16.5069 132.659 17.838ZM131.354 15.2291H127.574V20.5003H131.354C133.245 20.5003 133.937 19.0627 133.937 17.838C133.937 16.64 133.271 15.2291 131.354 15.2291ZM113.864 18.4503H111.494L112.692 16.2673L113.864 18.4503ZM111.867 15.2291L108.938 20.5003H110.376L110.962 19.4354H114.423L115.008 20.5003H116.446L113.491 15.2291C113.464 15.2291 111.867 15.2291 111.867 15.2291ZM159.228 15.7881H159.334C159.361 15.7881 159.441 15.7881 159.468 15.7615C159.494 15.7349 159.494 15.6816 159.494 15.655C159.494 15.6284 159.494 15.5751 159.468 15.5485C159.441 15.5219 159.388 15.5219 159.334 15.5219H159.201V15.7881H159.228ZM159.175 16.1608V15.442H159.388C159.468 15.442 159.521 15.442 159.547 15.4687C159.574 15.4953 159.627 15.5485 159.627 15.6018C159.627 15.6816 159.627 15.7083 159.601 15.7349C159.574 15.7615 159.521 15.8147 159.494 15.8147L159.707 16.1076H159.601L159.441 15.8147H159.308V16.1076H159.201V16.1608H159.175ZM159.361 16.3472C159.441 16.3472 159.494 16.3472 159.574 16.3206C159.654 16.2939 159.707 16.2407 159.734 16.2141C159.76 16.1875 159.84 16.1076 159.84 16.0543C159.867 15.9745 159.867 15.9212 159.867 15.8414C159.867 15.7615 159.867 15.7083 159.84 15.6284C159.814 15.5485 159.76 15.4953 159.734 15.4687C159.707 15.442 159.627 15.3622 159.574 15.3622C159.494 15.3355 159.441 15.3355 159.361 15.3355C159.281 15.3355 159.228 15.3355 159.148 15.3622C159.068 15.3888 159.015 15.442 158.988 15.4687C158.962 15.4953 158.882 15.5751 158.882 15.6284C158.855 15.7083 158.855 15.7615 158.855 15.8414C158.855 15.9212 158.855 15.9745 158.882 16.0543C158.909 16.1342 158.962 16.1875 158.988 16.2141C159.015 16.2407 159.095 16.3206 159.148 16.3206C159.201 16.3472 159.308 16.3472 159.361 16.3472ZM159.361 16.4004C159.255 16.4004 159.201 16.4004 159.122 16.3738C159.042 16.3472 158.988 16.2939 158.909 16.2407C158.829 16.1608 158.802 16.1342 158.775 16.0277C158.749 15.9479 158.749 15.8946 158.749 15.7881C158.749 15.6816 158.749 15.6284 158.775 15.5485C158.802 15.4687 158.855 15.4154 158.909 15.3355C158.988 15.2557 159.042 15.2291 159.122 15.2024C159.201 15.1758 159.281 15.1758 159.361 15.1758C159.468 15.1758 159.521 15.1758 159.601 15.2024C159.681 15.2291 159.734 15.2823 159.814 15.3355C159.894 15.4154 159.92 15.442 159.947 15.5485C159.973 15.6284 159.973 15.6816 159.973 15.7881C159.973 15.868 159.973 15.9479 159.947 16.0277C159.92 16.1076 159.867 16.1608 159.814 16.2407C159.76 16.3206 159.681 16.3472 159.601 16.3738C159.547 16.4004 159.468 16.4004 159.361 16.4004Z" fill="black"/>
        <path fill-rule="evenodd" clip-rule="evenodd" d="M32.5856 12.4071H41.6638V23.1891H32.5856C33.118 25.0527 35.7004 25.5319 35.7004 25.5319C28.2994 33.2257 20.9516 34.4504 20.9516 34.4504C20.9516 34.4504 13.6039 33.2257 6.2029 25.5319C6.2029 25.5319 8.81188 25.0527 9.31771 23.1891H0.239502V12.4071H9.37095C9.31771 10.9695 7.45414 10.2773 7.45414 10.2773V6.55019C17.5972 5.99112 20.9783 0.879639 20.9783 0.879639C20.9783 0.879639 24.3327 5.99112 34.5024 6.55019V10.2773C34.5024 10.2773 32.6388 10.9695 32.5856 12.4071ZM39.1348 20.6867H2.82202V14.9629H39.1348V20.6867ZM20.9784 31.6285C27.1282 30.0844 31.8137 25.7982 31.8137 25.7982C30.4027 24.9729 29.9235 23.8814 29.7904 23.2158H12.1664C12.0067 23.8814 11.5275 24.9729 10.1432 25.7982C10.1432 25.7982 14.8287 30.0844 20.9784 31.6285ZM20.9784 4.79321C15.3611 8.94629 10.0899 8.68007 10.0899 8.68007C11.7937 10.4371 12.0866 11.8215 12.1132 12.4072H29.8437C29.8703 11.8215 30.1631 10.4105 31.8669 8.68007C31.8669 8.68007 26.5691 8.97291 20.9784 4.79321Z" fill="#0A0B09"/>
        <path d="M36.9517 26.0645C36.6322 26.0645 36.366 25.7983 36.366 25.4788C36.366 25.1593 36.6322 24.8931 36.9517 24.8931C37.2712 24.8931 37.5374 25.1593 37.5374 25.4788C37.5374 25.8249 37.2712 26.0645 36.9517 26.0645ZM36.9517 24.8398C36.579 24.8398 36.2861 25.1327 36.2861 25.5054C36.2861 25.8781 36.579 26.171 36.9517 26.171C37.3244 26.171 37.6172 25.8781 37.6172 25.5054C37.6172 25.1327 37.3244 24.8398 36.9517 24.8398Z" fill="#0A0B09"/>
        <path d="M36.9784 25.4787H36.792V25.2125H36.9784C37.0849 25.2125 37.1648 25.2125 37.1648 25.3456C37.1381 25.4521 37.0849 25.4787 36.9784 25.4787ZM37.2446 25.665C37.2446 25.6118 37.2446 25.5852 37.218 25.5585C37.218 25.5319 37.1914 25.5319 37.1381 25.5053C37.218 25.4787 37.2446 25.3988 37.2446 25.3189C37.2446 25.2657 37.2446 25.2391 37.218 25.2125C37.1648 25.106 37.0583 25.106 36.9784 25.106H36.6589V25.9046H36.7654V25.5585H36.9518C37.0316 25.5585 37.0583 25.5585 37.0849 25.5852C37.1115 25.6118 37.1115 25.6384 37.1115 25.6917V25.7981C37.1115 25.8248 37.1115 25.878 37.1381 25.9046H37.2712C37.2446 25.878 37.2446 25.8248 37.2446 25.7981V25.665Z" fill="#0A0B09"/>
    </g>
    <defs>
        <clipPath id="clip0_38_2226">
            <rect width="160" height="33.8103" fill="white" transform="translate(0 0.799805)"/>
        </clipPath>
    </defs>
</svg>
