<svg width="160" height="30" viewBox="0 0 160 30" fill="none" xmlns="http://www.w3.org/2000/svg">
<g clip-path="url(#clip0_112_5740)">
<path fill-rule="evenodd" clip-rule="evenodd" d="M144.983 22.4614H151.062V0.829346H144.983V22.4614Z" fill="#DE1E34"/>
<path fill-rule="evenodd" clip-rule="evenodd" d="M160 0.829346V22.4614H153.922V0.829346H160Z" fill="#DE1E34"/>
<path fill-rule="evenodd" clip-rule="evenodd" d="M12.9603 9.23124H8.04439V0.829346H0V22.4614H8.04439V11.7351H12.9603V22.4614H21.0055V0.829346H12.9603V9.23124Z" fill="#DE1E34"/>
<path fill-rule="evenodd" clip-rule="evenodd" d="M50.7262 8.87379L50.2342 7.44401H43.6196V22.4614H50.2342V13.4331C50.2342 11.4662 51.4862 10.3939 52.5586 10.3939C53.4522 10.3939 54.6139 10.5726 54.6139 12.5394V22.4614H61.2286V12.7183C61.2286 7.26538 55.1067 5.12059 50.7262 8.87379Z" fill="#DE1E34"/>
<path fill-rule="evenodd" clip-rule="evenodd" d="M118.66 16.1591L115.576 7.44397H111.062L107.978 16.5166L104.76 7.44397H98.4583H98.4131H95.911L92.7373 15.0859L88.2682 7.44397H80.7148L89.6087 22.64L88.447 25.4996C88.0443 26.3942 87.0813 26.4384 86.8928 25.589C86.8928 24.0532 85.6474 22.8088 84.1116 22.8088C82.5755 22.8088 81.3304 24.0532 81.3304 25.589C81.3412 27.1984 82.9499 29.2989 86.1227 29.1645C89.2964 29.0308 90.6368 26.3942 91.0837 25.2767L98.4341 7.50252L103.732 22.4614H108.559L111.509 13.8348L114.548 22.4614H119.106L124.246 7.44397H121.609L118.66 16.1591Z" fill="#DE1E34"/>
<path fill-rule="evenodd" clip-rule="evenodd" d="M32.4015 6.68054C27.3403 6.68054 23.238 10.4439 23.238 15.0859C23.238 19.7295 27.3403 23.4929 32.4015 23.4929C37.4636 23.4929 41.5668 19.7295 41.5668 15.0859C41.5668 10.4439 37.4636 6.68054 32.4015 6.68054ZM34.6816 19.0187C34.6816 20.2781 33.6609 21.2988 32.4015 21.2988C31.1438 21.2988 30.1231 20.2781 30.1231 19.0187V11.1538C30.1231 9.8953 31.1438 8.87558 32.4015 8.87558C33.6609 8.87558 34.6816 9.8953 34.6816 11.1538V19.0187Z" fill="#DE1E34"/>
<path fill-rule="evenodd" clip-rule="evenodd" d="M81.4492 16.2928C81.4976 15.941 81.5224 15.4501 81.5224 15.0859C81.5224 10.4439 77.4193 6.68054 72.3582 6.68054C67.2961 6.68054 63.1929 10.4439 63.1929 15.0859C63.1929 19.7295 67.2961 23.4929 72.3582 23.4929C75.8358 23.4929 78.8609 21.7155 80.4142 19.0973L78.3897 18.3481C77.1663 20.2179 74.9229 21.47 72.3582 21.47C71.0987 21.47 70.0781 20.2781 70.0781 19.0187V16.2935L81.4492 16.2928ZM70.0781 11.1538C70.0781 9.8953 71.0987 8.87558 72.3582 8.87558C73.6167 8.87558 74.6373 9.8953 74.6373 11.1538V14.148H70.0781V11.1538Z" fill="#DE1E34"/>
<path fill-rule="evenodd" clip-rule="evenodd" d="M142.678 16.2928C142.727 15.941 142.752 15.4501 142.752 15.0859C142.752 10.4439 138.649 6.68054 133.587 6.68054C128.525 6.68054 124.422 10.4439 124.422 15.0859C124.422 19.7295 128.525 23.4929 133.587 23.4929C137.065 23.4929 140.09 21.7155 141.644 19.0973L139.619 18.3481C138.396 20.2179 136.152 21.47 133.587 21.47C132.328 21.47 131.308 20.2781 131.308 19.0187V16.2935L142.678 16.2928ZM131.308 11.1538C131.308 9.8953 132.328 8.87558 133.587 8.87558C134.846 8.87558 135.867 9.8953 135.867 11.1538V14.148H131.308V11.1538Z" fill="#DE1E34"/>
</g>
<defs>
<clipPath id="clip0_112_5740">
<rect width="160" height="28.3414" fill="white" transform="translate(0 0.829346)"/>
</clipPath>
</defs>
</svg>
