<svg width="95" height="40" viewBox="0 0 95 40" fill="none" xmlns="http://www.w3.org/2000/svg">
    <g clip-path="url(#clip0_38_105)">
        <path d="M30.2918 7.39133H2.06515V2.07742H30.2918V7.39133ZM32.3086 0.0256348H0.0473633V9.43793H32.3086V0.0256348Z" fill="#00B188"/>
        <path d="M2.06523 25.0005H0.048584V15.5856H2.06523V19.3048H5.66835V15.5856H7.685V25.0005H5.66835V21.1001H2.06523V25.0005Z" fill="#040404"/>
        <path d="M10.7582 20.8449H13.1602C13.1155 20.1527 12.8343 19.6703 12.0481 19.6703C11.4549 19.6703 10.9359 19.9268 10.7582 20.8449ZM12.2852 25.1218C10.2391 25.1218 8.8457 23.8115 8.8457 21.6591C8.8457 19.5651 10.2097 18.1197 12.0186 18.1197C13.9906 18.1197 14.9692 19.4599 14.9692 21.463V22.2162H10.7582C10.9959 23.2544 11.7962 23.5252 12.5971 23.5252C13.2938 23.5252 13.7975 23.3752 14.4201 22.983H14.4949V24.5342C13.9611 24.9264 13.2043 25.1218 12.2852 25.1218Z" fill="#040404"/>
        <path d="M20.218 21.0526L19.18 24.9978H17.4158L15.3992 18.3749V18.2996H17.327L18.4238 22.2603L19.4619 18.2996H21.0336L22.0864 22.2603L23.1986 18.2996H25.0522V18.3749L23.0356 24.9978H21.2708L20.218 21.0526Z" fill="#040404"/>
        <path d="M28.2975 25.1042C26.6963 25.1042 26.0437 24.4569 26.0437 22.9362V15.5407H28.0009V22.7999C28.0009 23.2667 28.1786 23.4323 28.564 23.4323C28.6976 23.4323 28.8907 23.3875 29.0089 23.342H29.039V24.9835C28.876 25.0432 28.5941 25.1036 28.2975 25.1036" fill="#040404"/>
        <path d="M31.5191 20.8449H33.9212C33.8765 20.1527 33.5952 19.6703 32.809 19.6703C32.2165 19.6703 31.6968 19.9268 31.5191 20.8449ZM33.0462 25.1218C31.0001 25.1218 29.6067 23.8115 29.6067 21.6591C29.6067 19.5651 30.9707 18.1197 32.7796 18.1197C34.7515 18.1197 35.7301 19.4599 35.7301 21.463V22.2162H31.5191C31.7563 23.2544 32.5572 23.5252 33.3575 23.5252C34.0548 23.5252 34.5585 23.3752 35.1817 22.983H35.2559V24.5342C34.7221 24.9264 33.966 25.1218 33.0462 25.1218Z" fill="#040404"/>
        <path d="M43.7915 18.2997H45.2444V19.8957H43.7915V22.6214C43.7915 23.2091 44.0139 23.4805 44.6071 23.4805C44.7701 23.4805 44.9778 23.4649 45.2002 23.3896H45.2444V24.9557C44.9925 25.0466 44.6071 25.1511 44.044 25.1511C42.4568 25.1511 41.8343 24.4135 41.8343 22.7117V19.8957H39.3286V22.6214C39.3286 23.2091 39.5511 23.4805 40.1436 23.4805C40.3072 23.4805 40.515 23.4649 40.7374 23.3896H40.7815V24.9557C40.5297 25.0466 40.1436 25.1511 39.5811 25.1511C37.994 25.1511 37.3714 24.4135 37.3714 22.7117V19.8957H36.3628V18.2997H37.3714V16.4628H39.3286V18.2997H41.8343V16.4628H43.7915V18.2997Z" fill="#040404"/>
        <path d="M51.8199 20.1696C52.8438 20.1696 53.3322 19.5827 53.3322 18.7392C53.3322 17.8653 52.8438 17.2783 51.8199 17.2783H50.5447V20.1696H51.8199ZM55.3789 18.7392C55.3789 20.7878 54.0295 21.9013 51.9828 21.9013H50.5447V24.9583H48.5293V15.5434H51.9828C54.0295 15.5434 55.3789 16.6576 55.3789 18.736" fill="#040404"/>
        <path d="M59.6947 22.8708V22.2988C59.3981 22.1338 59.0133 22.0735 58.6125 22.0735C57.9752 22.0735 57.5898 22.3137 57.5898 22.8559C57.5898 23.4136 57.9752 23.6545 58.5531 23.6545C59.1015 23.6545 59.517 23.3682 59.6947 22.8708ZM59.7541 24.3168C59.3239 24.844 58.6873 25.0999 58.004 25.0999C56.7148 25.0999 55.6614 24.3025 55.6614 22.8857C55.6614 21.5761 56.7148 20.7028 58.2265 20.7028C58.7007 20.7028 59.191 20.7781 59.6947 20.9281V20.8086C59.6947 20.0853 59.2945 19.7697 58.2424 19.7697C57.5745 19.7697 56.9372 19.9645 56.3881 20.2814H56.3146V18.6847C56.8183 18.3841 57.7087 18.1276 58.5825 18.1276C60.5697 18.1276 61.6519 19.0912 61.6519 20.7781V24.9791H59.7541V24.3168Z" fill="#040404"/>
        <path d="M62.6094 21.6242C62.6094 19.4704 64.1076 18.1153 66.0648 18.1153C66.7616 18.1153 67.4135 18.266 67.9032 18.627V20.3288H67.8284C67.3982 19.9977 66.8945 19.8016 66.3167 19.8016C65.3381 19.8016 64.5966 20.4801 64.5966 21.6242C64.5966 22.7683 65.3381 23.4312 66.3167 23.4312C66.8945 23.4312 67.3982 23.2351 67.8284 22.9033H67.9032V24.6051C67.4135 24.9668 66.7616 25.1174 66.0648 25.1174C64.1076 25.1174 62.6094 23.7779 62.6094 21.6242Z" fill="#040404"/>
        <path d="M71.0977 21.9357V24.9771H69.1411V15.5622H71.0977V20.9228L73.0702 18.2723H75.294V18.3477L72.9219 21.3896L75.294 24.8985V24.9738H73.0549L71.0977 21.9325" fill="#040404"/>
        <path d="M79.6884 22.8708V22.2988C79.3925 22.1338 79.0064 22.0735 78.6063 22.0735C77.969 22.0735 77.5836 22.3137 77.5836 22.8559C77.5836 23.4136 77.969 23.6545 78.5462 23.6545C79.0959 23.6545 79.5107 23.3682 79.6884 22.8708ZM79.7479 24.3168C79.3177 24.844 78.6798 25.0999 77.9984 25.0999C76.7079 25.0999 75.6558 24.3025 75.6558 22.8857C75.6558 21.5761 76.7079 20.7028 78.2215 20.7028C78.6958 20.7028 79.1841 20.7781 79.6884 20.9281V20.8086C79.6884 20.0853 79.2883 19.7697 78.2355 19.7697C77.5689 19.7697 76.9303 19.9645 76.3819 20.2814H76.3077V18.6847C76.8121 18.3841 77.7018 18.1276 78.5762 18.1276C80.5641 18.1276 81.6463 19.0912 81.6463 20.7781V24.9791H79.7479V24.3168Z" fill="#040404"/>
        <path d="M84.9554 19.3384C85.3108 18.6002 85.8304 18.1788 86.5572 18.1788C86.8237 18.1788 87.0903 18.2392 87.1932 18.2996V20.1968H87.1197C86.8972 20.1059 86.6307 20.0462 86.26 20.0462C85.6521 20.0462 85.1778 20.4078 85.0142 21.1V24.9556H83.0576V18.2548H84.9554V19.3391" fill="#040404"/>
        <path d="M92.37 22.7149V20.5612C92.044 20.0794 91.6145 19.869 91.1242 19.869C90.2652 19.869 89.6867 20.5021 89.6867 21.6462C89.6867 22.7902 90.2652 23.4077 91.1242 23.4077C91.6145 23.4077 92.044 23.1967 92.37 22.7149ZM92.4288 24.2966C92.014 24.8388 91.3614 25.1394 90.4723 25.1394C88.7816 25.1394 87.6995 23.5739 87.6995 21.6462C87.6995 19.7184 88.7816 18.1373 90.4723 18.1373C91.332 18.1373 91.9546 18.4087 92.37 18.9054V15.5778H94.3272V24.9862H92.4288V24.294" fill="#040404"/>
        <path d="M0.0708008 28.0651H5.79412V29.2091H1.36069V32.0849H5.37864V33.1998H1.36069V36.332H5.79412V37.4761H0.0708008V28.0677" fill="#040404"/>
        <path d="M10.5023 30.7144C11.9699 30.7144 12.7855 31.6935 12.7855 33.3038V37.4756H11.5551V33.3343C11.5551 32.476 11.1249 31.8585 10.1911 31.8585C9.42019 31.8585 8.76758 32.3558 8.54514 33.0629V37.4756H7.3147V30.8527H8.54514V31.8163C8.93057 31.1988 9.58319 30.717 10.5023 30.717" fill="#040404"/>
        <path d="M16.0761 30.8182H17.7514V31.8876H16.0761V35.4561C16.0761 36.2087 16.4615 36.4651 17.1582 36.4651C17.3506 36.4651 17.5584 36.4353 17.7067 36.3749H17.7514V37.4436C17.5737 37.519 17.3212 37.5793 16.9805 37.5793C15.4529 37.5793 14.8456 36.871 14.8456 35.5769V31.8876H13.7188V30.8182H14.8456V29.0572H16.0761V30.8182Z" fill="#040404"/>
        <path d="M19.8091 33.5193H23.0562C23.0121 32.5408 22.5372 31.7882 21.5292 31.7882C20.5953 31.7882 19.9868 32.496 19.8091 33.5193ZM21.7516 37.6157C19.8385 37.6157 18.5339 36.3204 18.5339 34.2426C18.5339 32.1642 19.7497 30.7188 21.5145 30.7188C23.3087 30.7188 24.2426 32.0291 24.2426 33.9712V34.5439H19.7644C19.898 35.884 20.7436 36.5314 21.9146 36.5314C22.6414 36.5314 23.1598 36.3658 23.7382 35.9288H23.783V37.0288C23.2492 37.4502 22.5519 37.6157 21.7516 37.6157Z" fill="#040404"/>
        <path d="M26.968 31.8572C27.2499 31.1495 27.8731 30.7281 28.5839 30.7281C28.8664 30.7281 29.1182 30.7729 29.2218 30.8332V32.0676H29.1777C28.9993 31.978 28.7028 31.9325 28.4062 31.9325C27.7395 31.9325 27.1757 32.3838 26.968 33.137V37.4587H25.7375V30.8358H26.968V31.8598" fill="#040404"/>
        <path d="M33.1553 36.4802C34.371 36.4802 35.0831 35.5017 35.0831 34.1609C35.0831 32.8363 34.371 31.8429 33.1553 31.8429C32.488 31.8429 31.8654 32.2493 31.5394 32.896V35.4419C31.8654 36.0886 32.488 36.4802 33.1553 36.4802ZM33.363 30.7131C35.3049 30.7131 36.343 32.3246 36.343 34.1609C36.343 35.999 35.3049 37.61 33.363 37.61C32.5621 37.61 31.8801 37.1886 31.5394 36.736V40.0195H30.3083V30.8514H31.5394V31.6039C31.8801 31.1371 32.5621 30.7157 33.363 30.7157" fill="#040404"/>
        <path d="M39.0359 31.8572C39.3171 31.1495 39.9403 30.7281 40.6517 30.7281C40.9336 30.7281 41.1855 30.7729 41.289 30.8332V32.0676H41.2449C41.0672 31.978 40.7706 31.9325 40.474 31.9325C39.8067 31.9325 39.2436 32.3838 39.0359 33.137V37.4587H37.8054V30.8358H39.0359V31.8598" fill="#040404"/>
        <path d="M43.0755 28.169C43.5057 28.169 43.8611 28.5151 43.8611 28.952C43.8611 29.389 43.5057 29.7351 43.0755 29.7351C42.6607 29.7351 42.2893 29.389 42.2893 28.952C42.2893 28.5151 42.6607 28.169 43.0755 28.169Z" fill="#040404"/>
        <path d="M42.4619 37.4672H43.6933V30.8391H42.4619V37.4672Z" fill="#040404"/>
        <path d="M48.0869 33.5714C49.0208 33.872 50.0582 34.2635 50.0582 35.5284C50.0582 36.8841 48.9613 37.5769 47.5532 37.5769C46.6928 37.5769 45.8331 37.3659 45.3435 36.9744V35.7848H45.403C45.952 36.2965 46.767 36.5224 47.5378 36.5224C48.2346 36.5224 48.8578 36.251 48.8578 35.679C48.8578 35.092 48.3394 34.9563 47.3154 34.6102C46.3963 34.309 45.3735 33.9622 45.3735 32.713C45.3735 31.4325 46.411 30.68 47.7309 30.68C48.5017 30.68 49.1838 30.8456 49.7322 31.2222V32.4273H49.6881C49.155 31.9903 48.5312 31.7338 47.7603 31.7338C46.9894 31.7338 46.5592 32.0806 46.5592 32.5474C46.5592 33.0746 47.0335 33.2246 48.0869 33.5714Z" fill="#040404"/>
        <path d="M52.3821 33.5193H55.6286C55.5845 32.5408 55.1102 31.7882 54.1015 31.7882C53.1677 31.7882 52.5598 32.496 52.3821 33.5193ZM54.324 37.6157C52.4115 37.6157 51.1069 36.3204 51.1069 34.2426C51.1069 32.1642 52.3227 30.7188 54.0868 30.7188C55.8817 30.7188 56.8149 32.0291 56.8149 33.9712V34.5439H52.3374C52.471 35.884 53.316 36.5314 54.487 36.5314C55.2144 36.5314 55.7328 36.3658 56.3106 35.9288H56.3553V37.0288C55.8222 37.4502 55.1249 37.6157 54.324 37.6157Z" fill="#040404"/>
    </g>
    <defs>
        <clipPath id="clip0_38_105">
            <rect width="94.2857" height="40" fill="white"/>
        </clipPath>
    </defs>
</svg>
