<?xml version="1.0" encoding="UTF-8"?>
<svg width="512px" height="512px" viewBox="0 0 512 512" version="1.1" xmlns="http://www.w3.org/2000/svg" xmlns:xlink="http://www.w3.org/1999/xlink">
    <!-- Generator: Sketch 48.1 (47250) - http://www.bohemiancoding.com/sketch -->
    <title>#HPQ</title>
    <desc>Created with Sketch.</desc>
    <defs></defs>
    <g id="Компании-BIG" stroke="none" stroke-width="1" fill="none" fill-rule="evenodd">
        <g id="#HPQ" fill="#015294" fill-rule="nonzero">
            <g id="hp-hewlett-packard" transform="translate(0.000000, 1.000000)">
                <path d="M255.272727,1.67272727 C262.850909,1.62909091 270.4,-0.0872727273 277.92,1.51272727 C311.214545,4.46545455 344.042182,13.6145455 373.658182,29.2072727 C411.970909,48.8290909 444.930909,78.6618182 468.842182,114.414545 C493.234909,150.778182 507.677091,193.6 510.935273,237.236364 C510.398545,248.785455 510.062545,260.407273 511.182545,271.927273 C508.798545,305.105455 500.491636,338.007273 485.685818,367.883636 C468.8,402.603636 443.793455,433.323636 413.351273,457.061818 C375.416727,486.807273 328.871273,505.410909 280.842182,509.819636 C273.527273,510.343273 266.222545,511.696 258.865455,511.128727 C253.991273,510.807273 249.002182,512.365091 244.32,510.370909 C262.256,459.914182 280.174545,409.44 298.269091,359.025455 C317.962182,358.661818 337.672727,359.156364 357.365818,358.792727 C369.934545,358.356364 382.356364,350.704 386.487273,338.487273 C403.141818,291.592727 420.218182,244.829091 436.349091,197.730909 C438.996364,190.618182 440.465455,182.690909 438.356364,175.243636 C435.505455,165.803636 426.866909,159.127273 417.585455,156.625455 C409.528727,154.123636 401.016727,155.04 392.727273,154.894545 C367.447273,154.821818 342.167273,155.025455 316.901818,154.778182 C316.494545,155.621818 315.664,157.294545 315.258182,158.123636 C274.325818,273.090909 233.469091,388.088727 192.378182,502.996364 C150.167273,492.043636 110.836364,470.109091 79.4763636,439.796364 C41.7018182,403.649455 15.4763636,355.578182 5.77454545,304.189091 C2.73454545,288.756364 1.62909091,273.047273 0.785454545,257.381818 C1.46909091,224.756364 6.82181818,191.985455 19.1127273,161.643636 C49.0909091,85.0036364 118.458182,24.6545455 199.098182,7.40363636 C157.818182,121.861818 117.498182,236.669091 76.2327273,351.141818 C78.8654545,351.941818 81.6290909,351.636364 84.3345455,351.664 C99.3745455,351.591273 114.429091,351.694545 129.469091,351.634909 C131.52,351.620364 131.301818,348.769455 132.16,347.460364 C150.283636,296.289455 168.625455,245.191273 186.807273,194.049455 C187.898182,190.878545 188.916364,187.678545 190.370909,184.667636 C199.796364,184.827636 209.221818,184.624 218.647273,184.769455 C198.88,240.202182 179.287273,295.722182 159.229091,351.051636 C161.323636,351.895273 163.607273,351.633455 165.803636,351.678545 C181.6,351.531636 197.396364,351.778909 213.192727,351.562182 C231.04,301.191273 249.105455,250.907636 266.997818,200.565818 C270.821818,190.267636 271.156364,178.093091 265.077818,168.594909 C259.768727,160.187636 249.688727,156.173091 240.074182,155.780364 C226.925091,155.387636 213.761455,155.809455 200.597818,155.576727 C218.690909,104.232727 237.323636,53.0763636 255.272727,1.67272727 Z" id="Shape"></path>
                <path d="M360.074182,185.323636 C361.643636,183.549091 364.437818,184.625455 366.530909,184.32 C373.832727,184.450909 381.133091,184.261818 388.437818,184.421818 C371.432727,232.96 353.629091,281.221818 336.901818,329.861818 C327.447273,330.530909 317.92,330.123636 308.450909,330.065455 C325.716364,281.847273 342.807273,233.556364 360.074182,185.323636 Z" id="Shape"></path>
            </g>
        </g>
    </g>
</svg>