<svg width="40" height="41" viewBox="0 0 40 41" fill="none" xmlns="http://www.w3.org/2000/svg">
    <path d="M0 0.610352H40V40.6104H0V0.610352ZM6.928 24.2504H5.144V21.7464H3V28.6744H5.144V26.1704H6.928V28.6744H9.144V21.7464H6.928V24.2504ZM15.712 27.2504C15.928 26.8184 16 26.3223 16 25.8904V24.8184H14.496V25.8184L12.856 24.0343C12.712 23.8183 12.568 23.6744 12.568 23.4664C12.568 23.1784 12.784 23.0343 13.072 23.0343C13.36 23.0343 13.576 23.2504 13.576 23.5304V23.8904H15.216V23.4584C15.216 22.3864 14.288 21.6744 13 21.6744C11.64 21.6744 10.712 22.3864 10.712 23.4584C10.712 23.7464 10.784 24.2424 11.28 24.6744C10.64 24.9624 9.992 25.6024 9.992 26.6024C9.992 27.9624 11.064 28.8904 12.992 28.8904C13.632 28.8904 14.28 28.6744 14.704 28.3864L14.992 28.7464H16.92L15.712 27.2504ZM13.072 27.3944C12.568 27.3944 11.928 27.1064 11.928 26.4664C11.928 26.1064 12.144 25.8263 12.432 25.6824C12.432 25.6824 13.576 26.9704 13.792 27.1784C13.64 27.3224 13.36 27.3944 13.072 27.3944ZM19.712 26.8984H20.352L21.424 28.6824H23.928L22.568 26.4664C23.28 26.0344 23.784 25.2504 23.784 24.2504C23.784 22.7464 22.856 21.6824 21.072 21.6824H17.568V28.6104H19.712V26.8984ZM19.712 23.4664H20.784C21.288 23.4664 21.568 23.8264 21.568 24.3224C21.568 24.8264 21.28 25.1784 20.784 25.1784H19.712V23.4664ZM7.712 33.9704C8.28 33.6824 8.64 33.1143 8.64 32.4023C8.64 31.3303 7.856 30.6184 6.568 30.6184H3V37.5464H6.64C8.208 37.5464 9.072 36.7624 9.072 35.5464C9.072 34.7544 8.568 34.1784 7.712 33.9704ZM5.072 32.2504H6.072C6.36 32.2504 6.576 32.4663 6.576 32.7543C6.576 33.1143 6.36 33.3223 6.072 33.3223H5.072V32.2504ZM6.504 35.9704H5.072V34.8264H6.504C6.864 34.8264 7.072 35.1143 7.072 35.3943C7.072 35.6823 6.856 35.9704 6.504 35.9704ZM12.144 30.6104H10V37.5383H14.928V35.7543H12.144V30.6104ZM18.856 30.4664C16.712 30.4664 15.568 31.7544 15.568 33.6104V34.4664C15.568 36.3223 16.712 37.6104 18.856 37.6104C21 37.6104 22.144 36.3223 22.144 34.4664V33.6104C22.144 31.7544 21 30.4664 18.856 30.4664ZM20 34.6824C20 35.4664 19.568 35.8983 18.856 35.8983C18.144 35.8983 17.712 35.4664 17.712 34.6824V33.5384C17.712 32.7544 18.144 32.3223 18.856 32.3223C19.568 32.3223 20 32.7544 20 33.5384V34.6824ZM26.144 32.3223C26.928 32.3223 27.216 32.8264 27.216 33.3223H29.288C29.216 31.7543 28.144 30.4664 26.216 30.4664C24 30.4664 22.928 31.7544 22.928 33.6104V34.5384C22.928 36.3944 24 37.6824 26.216 37.6824C28.144 37.6824 29.288 36.3944 29.288 34.8264H27.216C27.144 35.3304 26.928 35.8264 26.144 35.8264C25.432 35.8264 25.072 35.3224 25.072 34.6104V33.5384C25.072 32.7544 25.432 32.3223 26.144 32.3223ZM36.64 30.6104H34.208L32.776 33.0424H32.64V30.6104H30.496V37.5383H32.64V34.6824H32.784L34.216 37.5383H36.784L34.784 33.7543L36.64 30.6104ZM37.64 30.8264H37.424V31.3304H37.568V31.1864L37.64 31.3304H37.856L37.784 31.1864C37.784 31.1144 37.856 31.0424 37.856 30.9704C37.856 30.8264 37.784 30.8264 37.64 30.8264ZM37.64 31.0424C37.64 30.9704 37.64 30.9704 37.64 31.0424V31.0424ZM37.568 30.4664C37.208 30.4664 37 30.7543 37 31.0343C37 31.3223 37.216 31.6024 37.568 31.6024C37.92 31.6024 38.136 31.3144 38.136 31.0343C38.216 30.7543 37.928 30.4664 37.568 30.4664ZM37.568 31.4664C37.28 31.4664 37.136 31.2503 37.136 31.0343C37.136 30.7463 37.28 30.6024 37.568 30.6024C37.856 30.6024 38 30.8183 38 31.0343C38.072 31.3223 37.856 31.4664 37.568 31.4664Z" fill="#02AD4E"/>
</svg>
