<svg width="66" height="18" viewBox="0 0 66 18" fill="none" xmlns="http://www.w3.org/2000/svg">
    <g clip-path="url(#clip0_222:264)">
        <path d="M35.5385 8.90029L26.6591 0V17.7797L35.5385 8.90029Z" fill="#DB0011"/>
        <path d="M17.7797 8.90029L26.6591 0H8.90033L17.7797 8.90029Z" fill="#DB0011"/>
        <path d="M0 8.90029L8.90029 17.7797V0L0 8.90029Z" fill="#DB0011"/>
        <path d="M17.7797 8.90027L8.90033 17.7797H26.6591L17.7797 8.90027Z" fill="#DB0011"/>
        <path d="M43.3315 9.42252H40.114V12.5982H38.5052V5.1604H40.114V8.21074H43.3315V5.1604H44.9402V12.5982H43.3315V9.42252Z" fill="black"/>
        <path d="M48.8262 12.7446C47.2175 12.7446 45.9012 12.0969 45.8804 10.321H47.4891C47.51 11.1149 47.9696 11.5954 48.8471 11.5954C49.4948 11.5954 50.2469 11.2612 50.2469 10.53C50.2469 9.94494 49.7455 9.7778 48.9098 9.52709L48.3665 9.38084C47.1966 9.04655 46.0266 8.58691 46.0266 7.24979C46.0266 5.59926 47.5726 5.03516 48.9725 5.03516C50.414 5.03516 51.6676 5.53659 51.6885 7.18711H50.0797C50.0171 6.51854 49.6201 6.12157 48.868 6.12157C48.2622 6.12157 47.6771 6.43497 47.6771 7.10354C47.6771 7.64674 48.1785 7.81389 49.2231 8.14817L49.8499 8.3362C51.1244 8.73316 51.9392 9.17191 51.9392 10.4255C51.9184 12.0969 50.2887 12.7446 48.8262 12.7446Z" fill="black"/>
        <path d="M52.8376 5.18137H55.4282C55.9088 5.16047 56.4103 5.18137 56.8908 5.26493C57.7892 5.47386 58.4786 6.05886 58.4786 7.06171C58.4786 8.02277 57.8727 8.5033 56.9952 8.73312C57.9981 8.92115 58.7503 9.42258 58.7503 10.5299C58.7503 12.2222 57.0788 12.5982 55.7835 12.5982H52.8585L52.8376 5.18137ZM55.4282 8.27348C56.1387 8.27348 56.8699 8.12724 56.8699 7.27063C56.8699 6.49761 56.2013 6.28868 55.5327 6.28868H54.4045V8.27348H55.4282ZM55.5745 11.491C56.3267 11.491 57.0579 11.3238 57.0579 10.4046C57.0579 9.48526 56.4311 9.31812 55.6581 9.31812H54.3836V11.491H55.5745Z" fill="black"/>
        <path d="M62.9288 12.7446C60.5262 12.7446 59.4606 11.2194 59.4606 8.9421C59.4606 6.6648 60.6515 5.01428 63.0124 5.01428C64.4958 5.01428 65.9374 5.68285 65.9792 7.35426H64.3077C64.2242 6.60212 63.7227 6.22605 63.0124 6.22605C61.5499 6.22605 61.1111 7.793 61.1111 8.98389C61.1111 10.1748 61.5499 11.5537 62.9497 11.5537C63.6809 11.5537 64.2242 11.1567 64.3286 10.4046H66C65.8329 12.1178 64.4748 12.7446 62.9288 12.7446Z" fill="black"/>
    </g>
    <defs>
        <clipPath id="clip0_222:264">
            <rect width="66" height="17.8459" fill="white"/>
        </clipPath>
    </defs>
</svg>
