<svg width="56" height="40" viewBox="0 0 56 40" fill="none" xmlns="http://www.w3.org/2000/svg">
<g clip-path="url(#clip0_112_5777)">
<path d="M1.03836 37.7596V38.791C1.03836 39.0434 1.00263 39.4603 1.28845 39.5698V39.5865H0.209473V39.5698C0.490528 39.4603 0.45718 39.0434 0.45718 38.791V36.6378C0.45718 36.3805 0.497674 35.9661 0.209473 35.8565V35.8398H1.28845V35.8565C1.00263 35.9661 1.03836 36.3805 1.03836 36.6425V37.3499H3.0939V36.6425C3.0939 36.3805 3.13201 35.9661 2.84381 35.8565V35.8398H3.92994V35.8565C3.63935 35.9661 3.67269 36.3805 3.67269 36.6378V38.791C3.67269 39.0434 3.63935 39.4603 3.92994 39.5698V39.5865H2.84381V39.5698C3.13201 39.4603 3.0939 39.0434 3.0939 38.791V37.7596" fill="#00427A"/>
<path d="M5.14689 37.65C5.14689 38.448 5.71139 39.2673 6.60221 39.2673C7.4692 39.2673 8.02418 38.6361 8.02418 37.7858C8.02418 36.9569 7.49302 36.1518 6.59506 36.1518C5.71139 36.1518 5.14689 36.7926 5.14689 37.65ZM8.67204 37.6738C8.67204 38.8338 7.71215 39.677 6.576 39.677C5.44938 39.677 4.49902 38.8672 4.49902 37.7001C4.49902 36.6187 5.4351 35.7136 6.63317 35.7445C7.83125 35.7374 8.67204 36.6496 8.67204 37.6738Z" fill="#00427A"/>
<path d="M10.6229 38.8482C10.6229 39.1721 10.6181 39.3912 10.9206 39.5699V39.5865H9.79161V39.5699C10.0774 39.4603 10.0417 39.0435 10.0417 38.7862V36.2519H9.54151C9.29856 36.2519 9.04132 36.3139 8.86268 36.4758H8.84839L9.04847 35.8018H9.06276C9.13421 35.828 9.20567 35.828 9.27951 35.8399H11.547C11.6447 35.8399 11.7328 35.8327 11.809 35.8018H11.8257L11.6447 36.4758H11.6256C11.5518 36.2781 11.3255 36.2519 11.135 36.2519H10.6229" fill="#00427A"/>
<path d="M13.231 39.1101L13.9551 39.1744C14.3291 39.2101 14.7221 39.091 15.0079 38.8409H15.0246L14.7674 39.5865H12.395V39.5698C12.6832 39.4674 12.6499 39.0434 12.6499 38.7909V36.6425C12.6499 36.3805 12.6832 35.966 12.395 35.8565V35.8398H14.2171C14.3124 35.8398 14.4101 35.8517 14.4815 35.8136H14.5006V36.4758H14.4815C14.3053 36.2709 14.0742 36.2519 13.8122 36.2519C13.6121 36.2519 13.4121 36.2566 13.231 36.29V37.3499H13.9075C14.0004 37.3499 14.0909 37.3499 14.16 37.3142H14.1743V37.9192H14.16C14.0671 37.7524 13.8265 37.7596 13.6503 37.7596H13.231" fill="#00427A"/>
<path d="M17.2205 39.1744C17.6063 39.1983 17.9446 39.0673 18.2256 38.8291H18.2447L17.9493 39.5865H15.6104V39.5698C15.8986 39.4674 15.8652 39.0434 15.8652 38.7862V36.6425C15.8652 36.3805 15.8986 35.9661 15.6104 35.8565V35.8398H16.6965V35.8565C16.4083 35.9661 16.4464 36.3877 16.4464 36.6425V39.1244" fill="#00427A"/>
<path d="M21.0125 36.5187C20.791 36.29 20.4361 36.159 20.1169 36.159C19.793 36.159 19.3857 36.2829 19.3857 36.6759C19.3857 37.4571 21.3412 37.4452 21.3412 38.498C21.3412 39.1101 20.7028 39.677 19.8168 39.677C19.469 39.677 19.1237 39.627 18.7973 39.5079L18.6306 38.7933C18.9688 39.0863 19.4357 39.2673 19.8787 39.2673C20.2026 39.2673 20.6933 39.072 20.6933 38.6743C20.6933 37.7858 18.7354 37.9478 18.7354 36.7378C18.7354 36.0209 19.469 35.7517 20.1645 35.7517C20.448 35.7517 20.7409 35.7898 21.0125 35.8756" fill="#00427A"/>
<path d="M25.0545 36.471C25.0545 36.2567 24.8711 36.1257 24.6615 36.1257C24.4566 36.1257 24.2851 36.2328 24.2851 36.4496C24.2851 36.6759 24.5305 36.9045 24.6805 37.0427C24.8663 36.9117 25.0545 36.7068 25.0545 36.471ZM24.5852 37.6953C24.3066 37.8954 24.0755 38.186 24.0755 38.5385C24.0755 39.0053 24.4328 39.284 24.8711 39.284C25.2188 39.284 25.5094 39.0553 25.7095 38.7933L24.5852 37.6953ZM27.1481 39.5865C26.9504 39.5865 26.767 39.5722 26.6146 39.4936C26.4097 39.3864 26.1096 39.1649 25.9358 38.9934C25.6475 39.4603 25.2974 39.6603 24.752 39.6603C24.1065 39.6603 23.4634 39.2792 23.4634 38.5718C23.4634 38.0073 23.8373 37.6739 24.2494 37.3428C24.0422 37.126 23.7945 36.8569 23.7945 36.5401C23.7945 36.0661 24.2375 35.7517 24.6805 35.7517C25.1402 35.7517 25.5046 36.0637 25.5046 36.533C25.5046 36.9117 25.2712 37.1427 25.0068 37.3761C25.8548 38.1907 26.6956 39.072 27.7698 39.5674V39.5865" fill="#00427A"/>
<path d="M30.49 35.8398C31.2522 35.8398 31.6666 36.2376 31.6666 36.7569C31.6666 37.2571 31.2284 37.6501 30.7615 37.7596L31.5833 38.7862C31.8214 39.0863 32.1787 39.3793 32.5074 39.5865H31.9786C31.6785 39.5865 31.4904 39.5103 31.3212 39.3031L30.6281 38.4432L30.1041 37.6382C30.5567 37.5691 31.0854 37.3618 31.0854 36.8259C31.0854 36.4139 30.7353 36.1757 30.3542 36.1947C30.2232 36.1971 30.097 36.2138 29.966 36.2376V38.7862C29.966 39.0482 29.9302 39.4674 30.2232 39.5698V39.5865H29.1323V39.5698C29.4253 39.4674 29.3872 39.0434 29.3872 38.7862V36.6425C29.3872 36.3805 29.4253 35.9661 29.1323 35.8565V35.8398" fill="#00427A"/>
<path d="M33.7127 39.1101L34.4368 39.1744C34.8107 39.2101 35.2037 39.091 35.4872 38.8409H35.5038L35.249 39.5865H32.8743V39.5698C33.1649 39.4674 33.1315 39.0434 33.1315 38.7909V36.6425C33.1315 36.3805 33.1649 35.966 32.8743 35.8565V35.8398H34.6988C34.794 35.8398 34.8917 35.8517 34.9632 35.8136H34.9798V36.4758H34.9632C34.7869 36.2709 34.5559 36.2519 34.2939 36.2519C34.0938 36.2519 33.8937 36.2566 33.7127 36.29V37.3499H34.3891C34.4796 37.3499 34.5725 37.3499 34.6416 37.3142H34.6559V37.9192H34.6416C34.5487 37.7524 34.3081 37.7596 34.1319 37.7596H33.7127" fill="#00427A"/>
<path d="M38.4525 36.5187C38.231 36.29 37.8808 36.159 37.5593 36.159C37.233 36.159 36.8257 36.2829 36.8257 36.6759C36.8257 37.4571 38.7812 37.4452 38.7812 38.498C38.7812 39.1101 38.1452 39.677 37.2568 39.677C36.909 39.677 36.5637 39.627 36.2397 39.5079L36.073 38.7933C36.4088 39.0863 36.8757 39.2673 37.3211 39.2673C37.645 39.2673 38.1357 39.072 38.1357 38.6743C38.1357 37.7858 36.1778 37.9478 36.1778 36.7378C36.1778 36.0209 36.909 35.7517 37.6069 35.7517C37.8904 35.7517 38.1809 35.7898 38.4525 35.8756" fill="#00427A"/>
<path d="M40.1793 37.65C40.1793 38.448 40.7414 39.2673 41.6346 39.2673C42.5016 39.2673 43.0518 38.6361 43.0518 37.7858C43.0518 36.9569 42.5207 36.1518 41.6227 36.1518C40.7414 36.1518 40.1793 36.7926 40.1793 37.65ZM43.7021 37.6738C43.7021 38.8338 42.7398 39.677 41.6084 39.677C40.4794 39.677 39.5291 38.8672 39.5291 37.7001C39.5291 36.6187 40.4675 35.7136 41.6632 35.7445C42.8589 35.7374 43.7021 36.6496 43.7021 37.6738Z" fill="#00427A"/>
<path d="M45.722 35.8398C46.4842 35.8398 46.8987 36.2376 46.8987 36.7569C46.8987 37.2571 46.4604 37.6501 45.9936 37.7596L46.8153 38.7862C47.0535 39.0863 47.4108 39.3793 47.7371 39.5865H47.2131C46.9106 39.5865 46.7224 39.5103 46.5533 39.3031L45.8602 38.4432L45.3362 37.6382C45.7911 37.5691 46.3223 37.3618 46.3223 36.8259C46.3223 36.4139 45.9674 36.1757 45.5863 36.1947C45.4553 36.1971 45.329 36.2138 45.198 36.2376V38.7862C45.198 39.0482 45.1623 39.4674 45.4553 39.5698V39.5865H44.3691V39.5698C44.6574 39.4674 44.6169 39.0434 44.6169 38.7862V36.6425C44.6169 36.3805 44.6574 35.9661 44.3691 35.8565V35.8398" fill="#00427A"/>
<path d="M49.3186 38.8482C49.3186 39.1721 49.3138 39.3912 49.614 39.5699V39.5865H48.4897V39.5699C48.7755 39.4603 48.7374 39.0435 48.7374 38.7862V36.2519H48.2372C47.9943 36.2519 47.7371 36.3139 47.5608 36.4758H47.5417L47.7418 35.8018H47.7585C47.8276 35.828 47.9014 35.828 47.9752 35.8399H50.2428C50.338 35.8399 50.4286 35.8327 50.5048 35.8018H50.5191L50.338 36.4758H50.3238C50.2475 36.2781 50.0189 36.2519 49.8307 36.2519H49.3186" fill="#00427A"/>
<path d="M53.3392 36.5187C53.1153 36.29 52.7628 36.159 52.446 36.159C52.1197 36.159 51.71 36.2829 51.71 36.6759C51.71 37.4571 53.6679 37.4452 53.6679 38.498C53.6679 39.1101 53.0319 39.677 52.1435 39.677C51.7958 39.677 51.448 39.627 51.1241 39.5079L50.9597 38.7933C51.2932 39.0863 51.76 39.2673 52.2054 39.2673C52.5294 39.2673 53.02 39.072 53.02 38.6743C53.02 37.7858 51.0621 37.9478 51.0621 36.7378C51.0621 36.0209 51.7958 35.7517 52.4913 35.7517C52.7771 35.7517 53.0653 35.7898 53.3392 35.8756" fill="#00427A"/>
<path d="M3.18192 26.996V30.7022C3.18192 31.6216 3.06045 33.115 4.08464 33.5056V33.5652H0.195068V33.5056C1.21926 33.115 1.09779 31.6216 1.09779 30.7022V22.9659C1.09779 22.0465 1.2407 20.5555 0.195068 20.1648V20.1029H4.08464V20.1648C3.06045 20.5555 3.18192 22.0465 3.18192 22.9873V25.524H10.5704V22.9873C10.5704 22.0465 10.7157 20.5555 9.6701 20.1648V20.1029H13.5787V20.1648C12.5331 20.5555 12.6593 22.0465 12.6593 22.9659V30.7022C12.6593 31.6216 12.5331 33.115 13.5787 33.5056V33.5652H9.6701V33.5056C10.7157 33.115 10.5704 31.6216 10.5704 30.7022V26.996" fill="#00427A"/>
<path d="M17.5493 26.6101C17.5493 29.4731 19.5739 32.4195 22.7846 32.4195C25.893 32.4195 27.8794 30.1496 27.8794 27.1008C27.8794 24.1115 25.9763 21.2271 22.7441 21.2271C19.5739 21.2271 17.5493 23.5185 17.5493 26.6101ZM30.2137 26.6911C30.2137 30.8641 26.7528 33.8938 22.6798 33.8938C18.6307 33.8938 15.2151 30.988 15.2151 26.7959C15.2151 22.9063 18.5902 19.6527 22.8871 19.7527C27.1863 19.7361 30.2137 23.0087 30.2137 26.6911Z" fill="#00427A"/>
<path d="M40.5652 22.5371C39.7673 21.7178 38.5001 21.2485 37.3521 21.2485C36.185 21.2485 34.7154 21.6987 34.7154 23.1112C34.7154 25.9146 41.7538 25.8717 41.7538 29.6589C41.7538 31.8478 39.4624 33.8938 36.2707 33.8938C35.0226 33.8938 33.7722 33.7104 32.6074 33.2793L32.012 30.7212C33.222 31.7668 34.8988 32.4195 36.4946 32.4195C37.6594 32.4195 39.4196 31.7263 39.4196 30.2925C39.4196 27.1008 32.3812 27.6724 32.3812 23.3351C32.3812 20.7555 35.0226 19.7742 37.5164 19.7742C38.5406 19.7742 39.5839 19.9195 40.5652 20.2243" fill="#00427A"/>
<path d="M49.3853 30.907C49.3853 32.0741 49.3639 32.872 50.4476 33.5056V33.5675H46.3985V33.5056C47.4203 33.115 47.2988 31.6215 47.2988 30.7022V21.5749H45.4958C44.6169 21.5749 43.6951 21.8011 43.0615 22.3942H43.002L43.7165 19.96H43.7784C44.0214 20.0624 44.2905 20.0624 44.5549 20.1053H52.6985C53.0463 20.1053 53.3749 20.0838 53.6393 19.96H53.7013L53.0463 22.3942H52.9843C52.7199 21.6773 51.9006 21.5749 51.2241 21.5749H49.3853" fill="#00427A"/>
<path d="M19.593 16.261L25.4286 13.5147V10.0943L19.593 9.26782" fill="#A6996E"/>
<path d="M25.4286 0L19.593 2.7439V9.25591L25.4286 6.97409" fill="#A6996E"/>
<path d="M33.8959 0L28.0627 2.7439V6.33814L33.8959 7.07651" fill="#00427A"/>
<path d="M28.0627 9.69412V16.2609L33.8959 13.5146V7.0979" fill="#00427A"/>
<path d="M19.5691 9.26783L19.5929 9.27021V9.2583" fill="white"/>
<path d="M33.9365 7.08131L33.896 7.07654V7.10036" fill="white"/>
<path d="M54.6849 36.4806C54.804 36.4806 54.9374 36.4663 54.9374 36.3091C54.9374 36.1733 54.8088 36.1614 54.6992 36.1614H54.4396V36.4806H54.6849ZM55.0565 37.0165H54.8993L54.6444 36.5854H54.4396V37.0165H54.3062V36.0614H54.7325C54.9136 36.0614 55.0708 36.1018 55.0708 36.3234C55.0708 36.4996 54.9517 36.5782 54.785 36.5854L55.0565 37.0165ZM55.3161 36.5425C55.3161 36.1614 55.0017 35.8541 54.6254 35.8541C54.2562 35.8541 53.9489 36.1662 53.9489 36.5401C53.9489 36.9212 54.2443 37.238 54.6254 37.238C55.0088 37.238 55.3161 36.9331 55.3161 36.5425ZM53.8394 36.5425C53.8394 36.0947 54.1966 35.7469 54.6349 35.7469C55.0708 35.7469 55.4209 36.109 55.4209 36.5449C55.4209 36.9927 55.066 37.3499 54.6254 37.3499C54.1847 37.3499 53.8394 36.9831 53.8394 36.5425Z" fill="#00427A"/>
<path d="M54.6849 36.4806C54.804 36.4806 54.9374 36.4663 54.9374 36.3091C54.9374 36.1733 54.8088 36.1614 54.6992 36.1614H54.4396V36.4806H54.6849ZM55.0565 37.0165H54.8993L54.6444 36.5854H54.4396V37.0165H54.3062V36.0614H54.7325C54.9136 36.0614 55.0708 36.1018 55.0708 36.3234C55.0708 36.4996 54.9517 36.5782 54.785 36.5854L55.0565 37.0165ZM55.3161 36.5425C55.3161 36.1614 55.0017 35.8541 54.6254 35.8541C54.2562 35.8541 53.9489 36.1662 53.9489 36.5401C53.9489 36.9212 54.2443 37.238 54.6254 37.238C55.0089 37.238 55.3161 36.9331 55.3161 36.5425ZM53.8394 36.5425C53.8394 36.0947 54.1966 35.7469 54.6349 35.7469C55.0708 35.7469 55.4209 36.109 55.4209 36.5449C55.4209 36.9927 55.066 37.3499 54.6254 37.3499C54.1847 37.3499 53.8394 36.9831 53.8394 36.5425Z" stroke="#00427A" stroke-width="0.328125"/>
</g>
<defs>
<clipPath id="clip0_112_5777">
<rect width="55.6098" height="40" fill="white" transform="translate(0.195068)"/>
</clipPath>
</defs>
</svg>
