<svg width="113" height="41" viewBox="0 0 113 41" fill="none" xmlns="http://www.w3.org/2000/svg">
    <path d="M93.3967 0.401232L89.7275 21.1723L89.7288 30.7816L84.4781 30.7842L84.4845 21.2383L80.8 0.401232H86.0418C86.0418 0.401232 87.2632 8.79468 87.6809 11.653C88.077 8.79087 89.2395 0.401232 89.2395 0.401232H93.3967Z" fill="#3E000F"/>
    <path d="M39.3019 25.3531V18.1489C39.3019 16.4215 38.5469 15.1155 37.1825 14.2816C38.6146 13.4858 39.4054 12.0439 39.4054 9.99919V5.49594C39.4054 2.40028 37.6462 0.401232 34.9263 0.401232H27.2266L27.233 30.7842H32.2563L32.2524 16.4761H33.0931C33.3882 16.4761 34.2901 16.4761 34.2901 17.8532L34.2927 27.0996C34.2927 28.2533 34.3617 29.5759 34.874 30.6039L34.9634 30.7842H41.3269C41.3269 30.7842 39.3019 29.8361 39.3019 25.3531ZM34.5648 11.2595C34.5648 12.426 33.544 12.5504 33.1071 12.5504C33.1071 12.5504 32.5475 12.5491 32.4952 12.5491V4.95398H33.0662C34.0589 4.95398 34.5648 5.36267 34.5648 6.17117V11.2595Z" fill="#3E000F"/>
    <path d="M41.4423 5.57066V8.51528C41.4423 10.956 42.0261 12.2646 43.1069 13.8245C43.8441 14.8856 44.7332 15.8299 45.5905 16.7387L47.3228 18.6996C47.9693 19.5513 48.3985 20.1973 48.3985 21.3764L48.4024 25.9089C48.4024 26.4229 47.9603 26.7935 47.3535 26.7935C46.7249 26.7935 46.3033 26.3899 46.3033 25.7896V19.9435H41.2417V26.0193C41.2417 29.2762 43.5489 31.2993 47.2589 31.2993C50.2382 31.2968 53.4448 29.662 53.4448 26.0751V21.1657C53.4436 19.3698 53.22 18.131 51.9999 16.3503C51.2538 15.2651 50.09 13.9743 49.0654 12.8358L47.8108 11.4231C46.9102 10.3607 46.4822 9.54336 46.4822 7.77785L46.4809 5.53639C46.4809 4.80404 47.0073 4.54258 47.4557 4.54258C48.0395 4.54258 48.3909 4.91573 48.3909 5.53639V10.0168H53.2621V5.45008C53.2621 1.83403 51.296 -1.52588e-05 47.4174 -1.52588e-05C43.5643 -1.52588e-05 41.4423 1.97618 41.4423 5.57066Z" fill="#3E000F"/>
    <path d="M62.7806 0.4007V11.9952H60.5909V0.4007H55.4104V30.7849H60.5909V16.3563H62.7806V30.7849H67.9163V0.4007H62.7806Z" fill="#3E000F"/>
    <path d="M8.37017 0.4007V11.9952H6.17918V0.4007H1V30.7849H6.17918V16.3563H8.37017V30.7849H13.5072V0.4007H8.37017Z" fill="#3E000F"/>
    <path d="M21.1769 26.3764V16.5512H24.9418V12.1508H21.1769V4.83872H25.2242V0.400211H15.9172V30.7844H25.5372V26.3764H21.1769Z" fill="#3E000F"/>
    <path d="M75.5849 26.3764V16.5512H79.3485V12.1508H75.5849V4.83872H79.4954V0.400211H70.3252V30.7844H79.9451V26.3764H75.5849Z" fill="#3E000F"/>
    <path d="M98.9241 13.1248C98.9241 11.372 100.179 9.93515 102.206 9.22184C104.593 8.39303 110.45 8.04656 112.393 5.62231V9.73592C110.598 11.9596 104.549 11.9913 102.206 12.81C100.402 13.4395 99.7149 14.5095 99.3354 15.0451C99.1668 15.2749 99.1349 15.318 99.039 15.318C98.9547 15.318 98.9241 15.2444 98.9241 15.1707V13.1248Z" fill="#A8A9AD"/>
    <path d="M94.4963 30.7825C92.1865 30.7825 90.6253 27.6551 93.303 24.487C94.2024 23.4247 95.2551 22.469 96.1903 21.4663C97.9776 19.5498 98.5295 18.0457 98.8655 16.6216C98.8846 16.5366 98.9383 16.4363 99.0597 16.4363C99.1798 16.4363 99.2334 16.5366 99.2526 16.6216C99.5886 18.0457 100.14 19.5498 101.926 21.4663C102.863 22.469 103.917 23.4247 104.814 24.487C107.493 27.6551 105.93 30.7825 103.622 30.7825H94.4963Z" fill="#3E000F"/>
    <path d="M2.71584 39.9936C2.64015 39.9623 2.55873 39.8943 2.53492 39.8424C2.50412 39.7753 2.49162 39.0936 2.49162 37.4819C2.49162 35.4723 2.48485 35.2091 2.43177 35.1564C2.38314 35.1081 2.27341 35.0969 1.84705 35.0969C1.29892 35.0969 1.10596 35.0602 1.04339 34.944C1.02288 34.906 1.0061 34.7211 1.0061 34.5331C1.0061 34.2184 1.01287 34.1875 1.09181 34.1427C1.15839 34.105 1.59089 34.0941 3.03042 34.0941C5.21014 34.0941 5.04367 34.0591 5.04367 34.5174C5.04367 34.671 5.01989 34.8532 4.99082 34.9223C4.9257 35.0771 4.84463 35.0969 4.27588 35.0969C3.99926 35.0969 3.81628 35.1152 3.72833 35.1518L3.59624 35.2066V37.514V39.8214L3.49763 39.9379C3.40403 40.0484 3.38513 40.0542 3.12625 40.0523C2.97479 40.0523 2.79227 40.0251 2.71584 39.9936Z" fill="#3E000F"/>
    <path d="M6.23961 39.9255L6.11011 39.7969V37.0516V34.3064L6.20211 34.2002C6.29076 34.0979 6.30718 34.0941 6.65141 34.0941C6.92932 34.0941 7.03158 34.1088 7.11171 34.1611L7.21472 34.2282V35.3613C7.21472 36.4477 7.2178 36.496 7.28933 36.534C7.33832 36.5601 7.81885 36.5703 8.68914 36.5638L10.0144 36.5538L10.0334 35.3743C10.0439 34.7255 10.0639 34.1834 10.078 34.1694C10.1282 34.1196 10.3999 34.0768 10.6714 34.076C11.1448 34.0735 11.0999 33.7642 11.0999 37.0406C11.0999 39.8303 11.0992 39.8556 11.021 39.9545C10.9497 40.0445 10.9173 40.0541 10.6877 40.0537C10.5478 40.0535 10.3683 40.0427 10.2888 40.0297C10.043 39.9894 10.0334 39.9415 10.0334 38.759C10.0334 37.8843 10.0243 37.7119 9.97411 37.6408C9.91489 37.5568 9.91312 37.5567 8.6716 37.5567H7.42839L7.32156 37.6584L7.21472 37.76V38.7909V39.8217L7.07273 39.938C6.94263 40.0445 6.90721 40.0543 6.64993 40.0543C6.38137 40.0543 6.36347 40.0487 6.23961 39.9255Z" fill="#3E000F"/>
    <path d="M13.1537 40.0057C13.0055 39.8927 13.0046 39.8741 13.0052 37.0199C13.0054 35.4939 13.0184 34.2267 13.0338 34.2038C13.1144 34.0838 13.2369 34.0751 14.8613 34.0751C16.8208 34.0751 16.6765 34.0358 16.6554 34.5642C16.646 34.7973 16.6227 34.9219 16.5747 34.9946L16.5072 35.0969H15.3451C14.4164 35.0969 14.1564 35.1079 14.0509 35.1517L13.9188 35.2065V35.8505C13.9188 36.4484 13.924 36.4972 13.9924 36.5335C14.0373 36.5573 14.4359 36.5734 15.0114 36.5744C15.9813 36.5769 16.2651 36.6014 16.3225 36.6915C16.3406 36.7198 16.3556 36.8673 16.356 37.0192C16.3567 37.3304 16.2925 37.4966 16.1581 37.5324C16.1101 37.5452 15.6663 37.5559 15.1719 37.5562C14.263 37.5562 14.0634 37.5807 13.9664 37.7012C13.9325 37.7433 13.9188 37.9448 13.9188 38.3984V39.0364L14.0509 39.0912C14.1564 39.135 14.4158 39.1461 15.34 39.1461C16.695 39.1461 16.6222 39.1235 16.6497 39.5519C16.6632 39.7636 16.6525 39.8298 16.5881 39.9313L16.51 40.0543L14.8621 40.0518C13.6267 40.0518 13.199 40.039 13.1537 40.0045V40.0057Z" fill="#3E000F"/>
    <path d="M20.6016 40.0282C20.5567 40.0194 20.4881 39.9774 20.4493 39.9348C20.382 39.861 20.3781 39.7231 20.3684 37.0659C20.3563 33.7813 20.3081 34.0957 20.8239 34.0948C21.1975 34.0948 21.3255 34.1528 21.3637 34.3423C21.3771 34.4088 21.388 34.9275 21.388 35.495C21.388 36.4011 21.3954 36.5297 21.4483 36.5499C21.4814 36.5624 22.1038 36.5729 22.8313 36.5729C23.8307 36.5729 24.1694 36.5614 24.2167 36.5256C24.2717 36.484 24.2806 36.3455 24.2906 35.3724C24.3018 34.2801 24.303 34.2655 24.3885 34.1806C24.4606 34.109 24.5247 34.0925 24.775 34.0812C25.2844 34.0581 25.2351 33.7413 25.2351 37.0408C25.2351 39.8306 25.2344 39.8559 25.1562 39.9547C25.0845 40.0453 25.053 40.0544 24.814 40.0544C24.577 40.0544 24.5383 40.0434 24.4263 39.9441L24.3019 39.8337L24.2829 38.7703L24.2639 37.7069L24.1496 37.6321C24.0417 37.5615 23.9661 37.5573 22.7945 37.5571L21.5537 37.5568L21.4709 37.6444C21.3901 37.7299 21.388 37.7568 21.388 38.7524C21.388 39.8844 21.3852 39.8985 21.1367 40.0017C21.0164 40.0516 20.7818 40.0632 20.6016 40.0282Z" fill="#3E000F"/>
    <path d="M27.3007 40.029C27.2741 40.0182 27.227 39.961 27.196 39.9014C27.1478 39.8088 27.1396 39.3927 27.1396 37.0127V34.2321L27.24 34.1536C27.3379 34.0771 27.3792 34.0752 28.9445 34.0754C29.9298 34.0756 30.6033 34.0907 30.6903 34.1147C30.9271 34.1801 30.958 34.2362 30.9426 34.573C30.9306 34.8363 30.9176 34.8802 30.8238 34.9734L30.7185 35.0781L29.4909 35.0968C28.5906 35.1106 28.2405 35.1287 28.1776 35.1644C28.0939 35.2119 28.0919 35.2282 28.0919 35.874C28.0919 36.2375 28.0962 36.5377 28.1014 36.5411C28.1067 36.5446 28.608 36.5576 29.2156 36.57C30.0013 36.5861 30.3449 36.6066 30.4059 36.6408C30.4846 36.685 30.4916 36.716 30.4916 37.0231C30.4916 37.3038 30.479 37.3731 30.4127 37.4569L30.3337 37.5566H29.3411C28.402 37.5566 28.3416 37.5608 28.2202 37.6354L28.0919 37.7141V38.3723V39.0305L28.2043 39.0883C28.2978 39.1363 28.512 39.146 29.4822 39.146C30.7725 39.146 30.8284 39.155 30.9065 39.3775C30.9663 39.5481 30.9588 39.7582 30.8892 39.8568C30.7512 40.0526 30.7331 40.0544 28.9794 40.0512C28.0828 40.0487 27.3274 40.0395 27.3007 40.029Z" fill="#3E000F"/>
    <path d="M32.5391 39.9975C32.3033 39.8702 32.3142 40.0148 32.3184 37.0754C32.3204 35.6021 32.3338 34.3542 32.348 34.3022C32.3632 34.2468 32.4287 34.1802 32.5061 34.1414C32.6229 34.0829 32.7671 34.0752 33.743 34.0752C34.8802 34.0752 35.2811 34.1122 35.478 34.2353C35.5293 34.2675 35.6399 34.3152 35.7237 34.3415C35.8075 34.3678 35.9434 34.4463 36.0257 34.516C36.108 34.5857 36.1876 34.6427 36.2024 34.6427C36.2173 34.6427 36.267 34.7219 36.3128 34.8188C36.3586 34.9156 36.4283 35.022 36.4678 35.0553C36.5948 35.1624 36.6694 35.4332 36.6851 35.8438C36.6978 36.1777 36.6863 36.275 36.6026 36.5479C36.511 36.8464 36.4882 36.8818 36.2068 37.1633C35.8786 37.4915 35.7159 37.6323 35.6646 37.6323C35.6462 37.6323 35.614 37.664 35.5931 37.7028C35.5638 37.7573 35.5792 37.811 35.661 37.9393C35.7192 38.0306 35.7855 38.1586 35.8083 38.2237C35.8311 38.2888 35.9028 38.4148 35.9676 38.5037C36.0325 38.5926 36.0855 38.681 36.0855 38.7001C36.0855 38.7191 36.1262 38.789 36.176 38.8552C36.2258 38.9215 36.2879 39.0438 36.314 39.1271C36.3402 39.2103 36.3931 39.313 36.4317 39.3552C36.4703 39.3974 36.5274 39.5036 36.5585 39.5913C36.6233 39.7737 36.5837 39.954 36.4649 40.0172C36.3537 40.0763 35.969 40.0598 35.7617 39.987C35.6063 39.9325 35.5573 39.8923 35.4951 39.7689C35.4532 39.6857 35.3718 39.5502 35.3142 39.4677C35.2566 39.3851 35.2094 39.3034 35.2094 39.286C35.2094 39.2687 35.1687 39.2003 35.1189 39.134C35.0692 39.0677 35.0164 38.9454 35.0017 38.8622C34.987 38.7789 34.9353 38.6682 34.8869 38.6162C34.8385 38.5642 34.772 38.4278 34.7392 38.3133C34.6697 38.0707 34.4605 37.8416 34.2553 37.7831C34.1833 37.7626 33.9667 37.7458 33.7739 37.7458C33.2799 37.7458 33.305 37.6862 33.3048 38.8611C33.3046 39.7385 33.2991 39.8173 33.2292 39.9312C33.1558 40.0508 33.1465 40.0542 32.896 40.0527C32.7487 40.0527 32.5958 40.0281 32.5391 39.9975ZM35.0716 36.8396C35.2291 36.8033 35.4454 36.6186 35.6147 36.3758C35.6958 36.2595 35.7146 36.1884 35.7165 35.9895C35.7185 35.7817 35.7029 35.7229 35.6118 35.5923C35.4754 35.3967 35.2064 35.1772 35.0476 35.132C34.8578 35.0779 33.4066 35.0867 33.3506 35.1422C33.2859 35.2065 33.2859 36.7657 33.3506 36.8301C33.4059 36.8849 34.8403 36.8929 35.0716 36.8396Z" fill="#3E000F"/>
    <path d="M38.9802 40.0675C38.9069 40.0347 38.752 39.9784 38.636 39.9424C38.4209 39.8756 38.0916 39.6547 37.9919 39.5102C37.9615 39.4661 37.9057 39.4077 37.868 39.3805C37.7811 39.3179 37.7801 39.1923 37.8657 39.0983C37.9021 39.0584 37.975 38.9463 38.0276 38.8494C38.1166 38.6854 38.1349 38.6723 38.2903 38.6612C38.4305 38.6512 38.4765 38.6667 38.576 38.7579C38.7968 38.96 38.9984 39.0674 39.2583 39.1216C39.4007 39.1512 39.5477 39.2029 39.585 39.2365C39.6678 39.3109 39.6948 39.3117 39.8258 39.2438C39.8823 39.2145 40.0473 39.1533 40.1923 39.1078C40.444 39.0289 40.4585 39.0179 40.5086 38.868C40.5374 38.7816 40.5591 38.612 40.5568 38.491C40.5526 38.2753 40.5486 38.2675 40.3421 38.0748C39.9807 37.7374 39.9533 37.7173 39.7896 37.6686C39.7018 37.6424 39.5936 37.5874 39.5491 37.5463C39.5047 37.5051 39.3894 37.4479 39.293 37.4191C39.1965 37.3902 39.0824 37.3356 39.0394 37.2977C38.9964 37.2598 38.8841 37.2006 38.7898 37.1662C38.6781 37.1253 38.5157 37.0047 38.3232 36.8196C38.1609 36.6634 38.028 36.5293 38.028 36.5216C38.028 36.3972 37.9326 36.0847 37.8666 35.9927C37.7351 35.8095 37.7504 35.4764 37.9028 35.2069C37.9664 35.0944 38.0289 34.9578 38.0418 34.9033C38.0763 34.7566 38.3932 34.3932 38.534 34.3388C38.6014 34.3128 38.7165 34.2529 38.7898 34.2057C38.9212 34.1211 39.4394 34.0218 39.7421 34.0232C40.0874 34.0257 40.5413 34.1115 40.6827 34.2029C40.7624 34.2545 40.8987 34.3151 40.9855 34.3376C41.1452 34.3792 41.4181 34.6272 41.4181 34.7308C41.4181 34.8798 41.2835 35.1442 41.144 35.2694C41.0142 35.386 40.9717 35.4038 40.8709 35.3841C40.8052 35.3714 40.7037 35.326 40.6453 35.2835C40.5869 35.2409 40.4752 35.1837 40.397 35.1563C40.3189 35.1289 40.1952 35.0704 40.1223 35.0262C40.0183 34.9632 39.928 34.9459 39.7037 34.9458C39.4332 34.9456 39.4048 34.954 39.1796 35.1002C39.0486 35.1852 38.9227 35.2895 38.8998 35.332C38.8762 35.3759 38.8647 35.5257 38.8733 35.6789C38.8879 35.9398 38.8938 35.9537 39.0562 36.1123C39.1485 36.2025 39.2934 36.3112 39.3783 36.354C39.4632 36.3968 39.571 36.4616 39.6179 36.498C39.6648 36.5344 39.7792 36.5754 39.8723 36.5893C39.9653 36.6031 40.0844 36.6481 40.1369 36.6891C40.1894 36.7301 40.3058 36.7894 40.3956 36.8209C40.4854 36.8524 40.5936 36.9097 40.6361 36.9482C40.6786 36.9868 40.782 37.053 40.8658 37.0952C40.9496 37.1375 41.0456 37.2049 41.0792 37.2449C41.1128 37.2849 41.1728 37.3417 41.2126 37.371C41.3654 37.4838 41.5625 37.8395 41.6237 38.1129C41.7032 38.4677 41.7007 38.6554 41.6123 38.9721C41.5455 39.2113 41.5149 39.2565 41.2219 39.5492C40.9784 39.7924 40.8559 39.8846 40.6989 39.9429C40.5862 39.9849 40.4581 40.0441 40.4143 40.0746C40.2961 40.1568 39.1676 40.1511 38.9802 40.0675Z" fill="#3E000F"/>
    <path d="M43.1205 39.9426L43.0178 39.8213V37.0267V34.2319L43.1182 34.1535C43.1956 34.093 43.2718 34.0755 43.4515 34.0767C43.7346 34.0792 43.9987 34.1262 44.0588 34.186C44.09 34.2169 44.1091 34.5783 44.1224 35.392L44.1415 36.5538L45.4701 36.5638C46.419 36.5708 46.8137 36.5613 46.8509 36.5308C46.8929 36.4962 46.903 36.2678 46.903 35.3581V34.2283L47.0031 34.1631C47.0717 34.1185 47.2062 34.0932 47.4316 34.0827C47.7247 34.0689 47.7713 34.0762 47.8648 34.1497L47.9695 34.232V37.0267V39.8214L47.8709 39.9378C47.7786 40.0468 47.7557 40.0543 47.5137 40.0543C47.2285 40.0543 47.0034 39.9807 46.9425 39.8676C46.9181 39.8223 46.903 39.4059 46.903 38.7752C46.903 37.8015 46.8995 37.7516 46.8241 37.6564L46.7451 37.5566H45.4968C44.3359 37.5566 44.2441 37.5614 44.1855 37.6259C44.1302 37.6866 44.1224 37.8179 44.1224 38.6987C44.1224 39.7498 44.1023 39.9083 43.9589 39.9845C43.9152 40.0078 43.7318 40.0351 43.5514 40.0453L43.2232 40.0639L43.1205 39.9426Z" fill="#3E000F"/>
    <path d="M49.9063 39.969C49.8507 39.9223 49.7864 39.8469 49.7635 39.8014C49.7175 39.7103 49.7019 34.7219 49.7466 34.3982C49.7668 34.2512 49.7928 34.2055 49.8894 34.1464C50.0016 34.0779 50.0917 34.0748 51.689 34.0842C53.6767 34.096 53.5308 34.0607 53.5308 34.5296C53.5308 34.7705 53.5157 34.8432 53.4436 34.9495L53.3564 35.0781L52.0852 35.0881C51.2119 35.0949 50.7977 35.1114 50.7622 35.1407C50.7214 35.1744 50.7126 35.3279 50.7208 35.8687L50.7312 36.554L51.8168 36.5728C53.1677 36.5963 53.1262 36.583 53.142 36.9965C53.1525 37.2722 53.1473 37.2936 53.0404 37.4124L52.9278 37.5377L51.8567 37.5568C50.9604 37.5726 50.7796 37.585 50.7494 37.6325C50.6941 37.7194 50.7017 39.045 50.7578 39.1008C50.7915 39.1342 51.1325 39.1462 52.0554 39.1462C52.7991 39.1462 53.3356 39.1612 53.3769 39.1832C53.4694 39.2324 53.5308 39.4174 53.5308 39.6467C53.5308 39.8023 53.5124 39.8514 53.4195 39.9438L53.3081 40.0544L51.6578 40.0542L50.0075 40.054L49.9063 39.969Z" fill="#3E000F"/>
    <path d="M56.3013 40.0069C56.1733 39.9104 56.159 39.7578 56.159 38.4907V37.2347L56.0257 37.0484C55.9523 36.946 55.8923 36.8459 55.8923 36.8261C55.8923 36.8063 55.8366 36.7268 55.7685 36.6495C55.5668 36.4204 55.5058 36.3406 55.4228 36.1976C55.3796 36.1229 55.2961 36.0027 55.2373 35.9303C55.1786 35.8579 55.1305 35.7796 55.1305 35.7564C55.1305 35.7331 55.094 35.6817 55.0494 35.642C55.0048 35.6023 54.9383 35.5009 54.9016 35.4165C54.865 35.3322 54.7858 35.2106 54.7256 35.1464C54.6655 35.0822 54.579 34.9809 54.5333 34.9214C54.4877 34.8618 54.3891 34.7391 54.3143 34.6487C54.1538 34.4547 54.1333 34.2787 54.258 34.1665C54.325 34.1063 54.3982 34.0949 54.7154 34.0949H55.0932L55.2429 34.2577C55.3253 34.3472 55.4374 34.4917 55.4919 34.5789C55.5465 34.6661 55.6334 34.797 55.6849 34.8698C55.781 35.0056 55.8244 35.0604 56.0812 35.3702C56.1627 35.4685 56.2416 35.5877 56.2564 35.6351C56.2713 35.6825 56.3283 35.7754 56.3831 35.8416C56.4379 35.9078 56.5084 35.9958 56.5399 36.0373C56.629 36.155 56.8325 36.1071 56.8972 35.9533C56.9246 35.8881 56.9767 35.8104 57.0129 35.7806C57.0491 35.7508 57.1141 35.6571 57.1573 35.5724C57.2344 35.4213 57.3509 35.2618 57.5205 35.0746C57.5676 35.0227 57.6342 34.9256 57.6687 34.8588C57.7539 34.6937 57.8939 34.5208 58.119 34.3027C58.2819 34.1448 58.3355 34.1163 58.5094 34.0947C58.7376 34.0664 59.1251 34.1032 59.1967 34.1601C59.2229 34.1809 59.2443 34.2262 59.2443 34.2608C59.2443 34.3339 59.0311 34.6861 58.8871 34.8509C58.7567 35.0001 58.6176 35.1972 58.5249 35.3643C58.4837 35.4386 58.4217 35.5226 58.3872 35.551C58.3528 35.5794 58.2916 35.6668 58.2514 35.7451C58.2112 35.8234 58.1558 35.9012 58.1284 35.9179C58.101 35.9347 58.0452 36.001 58.0043 36.0655C57.8168 36.3616 57.6812 36.5615 57.6089 36.6484C57.133 37.2211 57.1705 37.067 57.1582 38.5027C57.1524 39.1791 57.1392 39.7707 57.1288 39.8173C57.0872 40.0044 56.4819 40.1432 56.3013 40.0069Z" fill="#3E000F"/>
    <path d="M64.1839 40.0738C64.1433 40.0429 63.9927 39.9821 63.8493 39.9387C63.706 39.8953 63.4831 39.8021 63.3542 39.7315C63.0956 39.59 62.5139 39.061 62.4748 38.9316C62.4611 38.8865 62.4122 38.802 62.3662 38.7439C62.2243 38.5647 62.0377 38.1615 61.9937 37.9389C61.9687 37.8125 61.9569 37.4205 61.9644 36.9676L61.9769 36.2081L62.1007 35.9736C62.1688 35.8447 62.2245 35.7158 62.2245 35.6872C62.2245 35.5254 62.9854 34.6834 63.253 34.5492C63.3263 34.5125 63.412 34.4609 63.4434 34.4347C63.4748 34.4084 63.5434 34.3741 63.5958 34.3585C63.6481 34.343 63.7938 34.2831 63.9195 34.2257C64.2505 34.0746 64.9281 33.9707 65.2004 34.0293C65.313 34.0536 65.5201 34.0836 65.6607 34.0961C65.8241 34.1106 65.9489 34.1443 66.0066 34.1894C66.0563 34.2282 66.1812 34.2921 66.2842 34.3315C66.4537 34.3963 66.6089 34.4853 66.8659 34.6652C66.9152 34.6997 66.9801 34.7863 67.0101 34.8575C67.0855 35.037 67.0285 35.2186 66.8384 35.4037C66.7151 35.5237 66.66 35.5509 66.5412 35.5502C66.4555 35.5502 66.3562 35.5189 66.3002 35.4754C66.2478 35.4347 66.1859 35.401 66.1625 35.4006C66.1392 35.4006 66.0777 35.3576 66.0258 35.306C65.9679 35.2485 65.8519 35.196 65.7254 35.1701C65.6121 35.1468 65.3768 35.0845 65.2025 35.0315L64.8858 34.9351L64.7756 35.0161C64.7141 35.0612 64.6084 35.097 64.5366 35.097C64.3198 35.097 64.0743 35.192 63.8638 35.3572C63.6016 35.5631 63.3569 35.8395 63.2901 36.0052C63.2607 36.078 63.1979 36.1947 63.1506 36.2645C63.0308 36.441 63.0139 36.5704 63.0301 37.1904C63.0439 37.7217 63.0468 37.7375 63.1771 37.9946C63.3297 38.2956 63.7962 38.7876 63.9898 38.8518C64.0559 38.8739 64.1443 38.9223 64.1862 38.9596C64.2281 38.997 64.3069 39.0443 64.3614 39.0648C64.5412 39.1325 65.0522 39.1546 65.386 39.1093C65.6502 39.0733 65.7449 39.0413 65.9006 38.9354C66.0055 38.864 66.1072 38.8055 66.1266 38.8055C66.1461 38.8055 66.2006 38.7695 66.2477 38.7255C66.2986 38.678 66.4044 38.6375 66.5077 38.6259C66.6758 38.6071 66.6886 38.6131 66.872 38.7952C67.1169 39.0385 67.1308 39.187 66.9287 39.3999C66.8553 39.4771 66.7953 39.554 66.7953 39.5708C66.7953 39.5876 66.7054 39.6438 66.5954 39.6959C66.4854 39.7479 66.3525 39.8137 66.3002 39.8421C66.2478 39.8704 66.0918 39.9468 65.9535 40.0118L65.7021 40.13H64.98C64.3998 40.13 64.2433 40.119 64.1839 40.0738Z" fill="#3E000F"/>
    <path d="M70.2996 40.1031C70.2682 40.0916 70.2168 40.0611 70.1853 40.0353C70.1539 40.0095 70.0417 39.9604 69.936 39.9263C69.8303 39.8921 69.7025 39.8345 69.6519 39.7984C69.6013 39.7622 69.4962 39.6986 69.4184 39.6569C69.1141 39.4943 68.8595 39.2993 68.7759 39.1649C68.7278 39.0875 68.6482 38.9811 68.5989 38.9283C68.5497 38.8755 68.5094 38.8126 68.5094 38.7884C68.5094 38.7644 68.4661 38.6863 68.4133 38.6152C68.3605 38.544 68.2994 38.4173 68.2777 38.3335C68.2559 38.2497 68.2073 38.1383 68.1697 38.0859C68.0707 37.9481 68.0142 37.5615 68.0144 37.0238C68.0146 36.5297 68.054 36.3091 68.1673 36.1659C68.205 36.1183 68.2476 35.9939 68.2621 35.8893C68.2775 35.7784 68.3243 35.6566 68.3746 35.5968C68.4221 35.5404 68.4962 35.4262 68.5394 35.3429C68.6354 35.1578 69.1644 34.6371 69.3473 34.5476C69.4207 34.5117 69.5064 34.4608 69.5378 34.4346C69.5692 34.4084 69.6378 34.3747 69.6902 34.3599C69.7425 34.3451 69.8884 34.2839 70.0144 34.2242C70.249 34.1128 70.7134 34.0269 71.0805 34.0269C71.3909 34.0268 71.8582 34.1049 72.0274 34.185C72.1141 34.2261 72.2708 34.2919 72.3755 34.3313C72.4803 34.3708 72.6345 34.4466 72.7183 34.4999C72.9852 34.6695 73.5232 35.1852 73.6176 35.3618C73.6677 35.4555 73.7365 35.5662 73.7706 35.6078C73.8046 35.6494 73.8608 35.7703 73.8955 35.8763C73.9301 35.9824 73.9923 36.135 74.0336 36.2155C74.1009 36.3466 74.1086 36.4402 74.1086 37.1215C74.1086 37.8028 74.1009 37.8964 74.0336 38.0276C73.9923 38.108 73.9302 38.2606 73.8956 38.3667C73.861 38.4727 73.7946 38.6021 73.7482 38.6541C73.7017 38.7062 73.6425 38.8023 73.6166 38.8678C73.5589 39.0135 72.9452 39.6165 72.8136 39.6569C72.7612 39.6729 72.662 39.7349 72.5932 39.7945C72.5094 39.8672 72.4263 39.9029 72.3415 39.9029C72.2718 39.9029 72.1185 39.954 72.0007 40.0165L71.7866 40.13L71.0717 40.127C70.6784 40.1245 70.331 40.1147 70.2996 40.1031ZM71.6466 39.0927C71.7694 39.064 71.9154 39.0071 71.9711 38.9662C72.0267 38.9253 72.111 38.8796 72.1583 38.8647C72.2701 38.8295 72.7497 38.3593 72.8287 38.2076C72.8623 38.143 72.9156 38.0759 72.9472 38.0583C73.0281 38.0134 73.1187 37.5043 73.1163 37.1087C73.1134 36.6332 73.0399 36.2845 72.8996 36.0808C72.7795 35.9065 72.2688 35.4029 72.0744 35.2672C71.8981 35.1442 71.643 35.0984 71.1376 35.0991C70.5224 35.0991 70.2022 35.1607 70.009 35.3134C69.779 35.4952 69.3093 35.991 69.3093 36.052C69.3093 36.0822 69.276 36.1369 69.2352 36.1735C69.1294 36.2686 69.0426 36.6958 69.0426 37.1215C69.0426 37.5282 69.1346 38.0047 69.2193 38.037C69.2496 38.0485 69.3064 38.1198 69.3454 38.1952C69.4536 38.4041 69.8416 38.8091 69.9933 38.8713C70.0675 38.9017 70.1539 38.9491 70.1853 38.9766C70.3589 39.1287 71.2051 39.1959 71.6466 39.0927Z" fill="#3E000F"/>
    <path d="M78.1969 40.0828C78.0903 39.9145 77.8829 39.4735 77.8607 39.3675C77.846 39.2978 77.7923 39.1687 77.7414 39.0807C77.6904 38.9927 77.6309 38.8224 77.6091 38.7023C77.5872 38.5822 77.5294 38.4243 77.4805 38.3515C77.4316 38.2786 77.3797 38.1594 77.3653 38.0866C77.3508 38.0137 77.3088 37.9019 77.2719 37.8382C77.2351 37.7744 77.1654 37.6041 77.117 37.4597C77.0687 37.3154 76.9891 37.1224 76.9402 37.0308C76.8912 36.9392 76.8512 36.8361 76.8512 36.8015C76.8512 36.767 76.8282 36.7075 76.8 36.6692C76.7512 36.6029 76.7461 36.6038 76.6858 36.6893C76.6441 36.7484 76.6226 36.8556 76.6226 37.0045C76.6226 37.1465 76.5959 37.287 76.5504 37.3839C76.4773 37.5399 76.4508 37.7042 76.3945 38.3514C76.3532 38.8259 76.2838 39.2167 76.2184 39.3429C76.1893 39.3991 76.165 39.5268 76.1643 39.6267C76.1628 39.8549 76.1119 39.9212 75.8777 40.0002C75.6602 40.0736 75.2699 40.0511 75.1781 39.9599C75.0847 39.8671 75.1263 39.4343 75.2548 39.1625C75.2948 39.0779 75.3282 38.9417 75.3289 38.8598C75.3315 38.5825 75.4272 37.9793 75.4783 37.9181C75.5082 37.8824 75.5502 37.6467 75.5799 37.3482C75.6078 37.0683 75.6581 36.7751 75.6918 36.6966C75.7488 36.5636 75.7789 36.4119 75.8629 35.8349C75.92 35.4427 75.9626 35.233 76.0074 35.1235C76.0312 35.0653 76.0657 34.8563 76.0839 34.6591C76.1205 34.2641 76.1694 34.1723 76.3719 34.1187C76.6097 34.0557 76.8646 34.2466 76.909 34.521C76.9215 34.5984 76.9551 34.7214 76.9836 34.7942C77.1241 35.1536 77.2455 35.4242 77.2891 35.4754C77.3157 35.5066 77.3668 35.6341 77.4027 35.7587C77.4386 35.8833 77.5073 36.0536 77.5553 36.1371C77.6033 36.2207 77.6537 36.3523 77.6674 36.4298C77.681 36.5072 77.7319 36.6179 77.7804 36.6758C77.8289 36.7336 77.89 36.8746 77.9163 36.9891C77.9426 37.1035 78.004 37.2568 78.0527 37.3296C78.1015 37.4025 78.1525 37.5132 78.166 37.5756C78.1794 37.6381 78.2075 37.7317 78.2283 37.7838C78.2753 37.9014 78.4832 38.0706 78.525 38.0253C78.542 38.007 78.5858 37.8982 78.6224 37.7838C78.6589 37.6693 78.7201 37.524 78.7583 37.4609C78.7965 37.3978 78.8465 37.2633 78.8693 37.162C78.8922 37.0607 78.9452 36.9299 78.9872 36.8714C79.0291 36.8128 79.0956 36.6749 79.1348 36.5648C79.174 36.4547 79.2403 36.2963 79.2822 36.2126C79.3241 36.129 79.3701 35.998 79.3846 35.9215C79.399 35.8451 79.4513 35.7281 79.5007 35.6615C79.5501 35.5949 79.6019 35.4656 79.6157 35.3741C79.6295 35.2826 79.6815 35.1482 79.7313 35.0753C79.7811 35.0024 79.8415 34.8625 79.8656 34.7644C79.9096 34.5851 79.9562 34.4738 80.0185 34.3992C80.0369 34.3772 80.0909 34.2994 80.1383 34.2266C80.2098 34.117 80.2507 34.0922 80.3757 34.083C80.4589 34.077 80.5578 34.0943 80.5956 34.1218C80.6677 34.1743 80.7337 34.3932 80.7357 34.5861C80.7362 34.6485 80.7649 34.7507 80.7991 34.8131C80.8613 34.9266 80.9584 35.5679 80.9626 35.8939C80.9639 35.9887 80.9901 36.0995 81.0208 36.1398C81.0516 36.1802 81.0773 36.2666 81.078 36.3317C81.0787 36.3968 81.1049 36.5112 81.1363 36.5859C81.1677 36.6606 81.1934 36.8117 81.1934 36.9216C81.1935 37.1543 81.2876 37.6757 81.3508 37.7929C81.3914 37.8683 81.4109 37.9874 81.4953 38.6731C81.5132 38.8188 81.5534 38.9976 81.5845 39.0704C81.6654 39.2596 81.7057 39.8001 81.6473 39.9104C81.5795 40.0381 81.5414 40.0531 81.2823 40.0537C81.0413 40.0537 80.7375 39.9569 80.6741 39.8587C80.6561 39.831 80.6292 39.6636 80.6141 39.4867C80.5626 38.8814 80.5374 38.7107 80.4688 38.5028C80.431 38.3883 80.3882 38.1158 80.3737 37.8973C80.3562 37.6358 80.3217 37.4417 80.2726 37.3296C80.2316 37.236 80.1883 37.0742 80.1764 36.9702C80.1556 36.7883 80.0709 36.6316 80.0127 36.6674C79.9974 36.6769 79.9648 36.7854 79.9404 36.9088C79.916 37.0322 79.8706 37.154 79.8397 37.1796C79.8087 37.2051 79.7559 37.3217 79.7224 37.4387C79.6888 37.5556 79.6206 37.7333 79.5708 37.8335C79.5209 37.9336 79.4525 38.1124 79.4187 38.2308C79.3849 38.3492 79.3332 38.4839 79.3038 38.5302C79.2744 38.5764 79.2247 38.7127 79.1933 38.8329C79.1619 38.9531 79.1023 39.0972 79.0609 39.153C79.0195 39.2089 78.9687 39.3296 78.9481 39.4212C78.9129 39.5772 78.7244 39.9738 78.6342 40.0818C78.5819 40.1444 78.2365 40.1451 78.1969 40.0818V40.0828Z" fill="#3E000F"/>
    <path d="M83.2474 39.9567L83.155 39.859V37.0442C83.155 34.3934 83.159 34.2254 83.223 34.1617C83.284 34.101 83.39 34.093 84.2678 34.0828C85.2466 34.0716 85.7077 34.1064 85.8594 34.2032C85.9013 34.2301 85.9927 34.2714 86.0624 34.2951C86.253 34.36 86.709 34.6735 86.7361 34.7582C86.7491 34.7991 86.8017 34.882 86.8529 34.9424C86.9041 35.0028 86.9719 35.1253 87.0036 35.2147C87.0353 35.304 87.0892 35.4077 87.1233 35.4451C87.1711 35.4976 87.1894 35.6212 87.2036 35.9863C87.2216 36.4497 87.2199 36.4624 87.1216 36.6033C87.0663 36.6825 87.0212 36.767 87.0212 36.7912C87.0212 36.8585 86.8968 37.1027 86.8625 37.1027C86.8459 37.1027 86.7988 37.1679 86.7578 37.2477C86.687 37.3855 86.5448 37.5102 86.2022 37.7346C85.9643 37.8904 85.694 37.9389 84.9329 37.962C84.2372 37.9831 84.2347 37.9836 84.1996 38.0752C84.1802 38.1258 84.1644 38.5143 84.1644 38.9387C84.1644 39.4571 84.1495 39.7428 84.1188 39.8097C84.0517 39.9559 83.8282 40.0544 83.5631 40.0544C83.3722 40.0544 83.3263 40.0401 83.2474 39.9567ZM85.4184 36.973C85.4515 36.9433 85.5632 36.8878 85.6667 36.8497C85.8592 36.7787 85.9729 36.646 86.1304 36.3081C86.2144 36.1279 86.1781 35.7762 86.0597 35.6222C85.689 35.1404 85.6632 35.129 84.8881 35.1057C84.0965 35.0819 84.1569 35.0006 84.1718 36.071C84.1807 36.7063 84.1958 36.9167 84.2357 36.9645C84.2798 37.0171 84.3722 37.027 84.8231 37.027C85.233 37.027 85.3723 37.0144 85.4184 36.973Z" fill="#3E000F"/>
    <path d="M87.4974 39.9339C87.4076 39.8279 87.3985 39.793 87.4211 39.6406C87.4352 39.5455 87.4956 39.3941 87.5551 39.3042C87.6147 39.2143 87.6825 39.053 87.7056 38.9456C87.7288 38.8383 87.7793 38.716 87.8178 38.6739C87.8563 38.6317 87.9092 38.5292 87.9353 38.4459C87.9615 38.3627 88.0231 38.2409 88.0723 38.1754C88.1215 38.1099 88.18 37.9754 88.2023 37.8765C88.2247 37.7777 88.2735 37.6525 88.3108 37.5983C88.3482 37.5442 88.4091 37.4187 88.4461 37.3194C88.4832 37.2202 88.5386 37.114 88.5693 37.0835C88.6 37.053 88.6522 36.9469 88.6853 36.8477C88.7184 36.7485 88.7764 36.6332 88.8143 36.5916C88.8521 36.55 88.9005 36.4393 88.9219 36.3456C88.9433 36.252 89.0535 35.9881 89.1668 35.7591C89.2802 35.5302 89.4013 35.2561 89.4361 35.15C89.4708 35.044 89.5416 34.9002 89.5933 34.8305C89.6451 34.7608 89.6875 34.6807 89.6875 34.6525C89.6875 34.5822 89.7944 34.3826 89.882 34.2892C89.9216 34.2468 89.9541 34.2011 89.9541 34.1876C89.9541 34.1314 90.1316 34.089 90.2429 34.1185C90.3861 34.1565 90.4639 34.2404 90.5216 34.4191C90.5457 34.4937 90.6078 34.612 90.6597 34.6818C90.7116 34.7517 90.754 34.8287 90.754 34.8529C90.754 34.8772 90.8031 34.9888 90.8632 35.101C90.9232 35.2132 91.0001 35.4007 91.0342 35.5176C91.0682 35.6346 91.121 35.7509 91.1515 35.776C91.182 35.8011 91.2346 35.9046 91.2685 36.0059C91.3023 36.1071 91.3639 36.2328 91.4054 36.2852C91.4468 36.3375 91.5128 36.4704 91.5521 36.5806C91.5913 36.6907 91.6572 36.849 91.6984 36.9322C91.7397 37.0155 91.785 37.1372 91.7992 37.2026C91.8133 37.2681 91.8573 37.3509 91.897 37.3866C91.9368 37.4223 91.9882 37.5424 92.0115 37.6535C92.0347 37.7646 92.0976 37.9199 92.1514 37.9985C92.2051 38.0772 92.2705 38.2019 92.2967 38.2756C92.3228 38.3494 92.3872 38.4726 92.4397 38.5494C92.4922 38.6263 92.5466 38.7647 92.5605 38.857C92.5745 38.9496 92.6268 39.0721 92.6773 39.1304C92.7275 39.1886 92.7877 39.3138 92.811 39.4087C92.8343 39.5035 92.8763 39.6229 92.9042 39.6739C92.9474 39.7527 92.9462 39.7799 92.8963 39.8556C92.8053 39.9936 92.6481 40.0542 92.3814 40.0542C92.177 40.0542 92.1267 40.0407 92.0641 39.9691C91.9133 39.7965 91.7538 39.5392 91.7065 39.392C91.6303 39.1549 91.5224 38.9629 91.441 38.9197C91.3923 38.8938 90.9288 38.8835 90.101 38.89L88.8354 38.9001L88.7304 39.0704C88.6726 39.164 88.5965 39.3343 88.5612 39.4488C88.4651 39.7609 88.4052 39.856 88.2397 39.9599C88.1196 40.0352 88.0398 40.0543 87.8443 40.0543C87.6158 40.0543 87.5924 40.0462 87.4974 39.9339ZM90.9475 37.8703C90.9906 37.7577 90.9116 37.4881 90.8112 37.4053C90.7821 37.3813 90.7391 37.2703 90.7158 37.1587C90.6925 37.0471 90.6397 36.9132 90.5986 36.8613C90.5575 36.8093 90.498 36.6942 90.4665 36.6055C90.435 36.5167 90.3846 36.417 90.3545 36.384C90.3244 36.351 90.2641 36.2437 90.2204 36.1456C90.1767 36.0475 90.1267 35.9672 90.1093 35.9672C90.0919 35.9672 90.0498 36.0772 90.0159 36.2115C89.9819 36.3459 89.9113 36.5186 89.8589 36.5952C89.8065 36.6719 89.7636 36.7554 89.7636 36.7809C89.7636 36.8063 89.7201 36.8908 89.6669 36.9687C89.6137 37.0465 89.5468 37.1979 89.5181 37.3051C89.4502 37.5592 89.4196 37.6323 89.3812 37.6323C89.3311 37.6323 89.3013 37.7685 89.3282 37.8751L89.3529 37.9729H90.1306H90.9082L90.9475 37.8703Z" fill="#3E000F"/>
    <path d="M98.3439 40.0302C98.3005 39.9754 98.2649 39.9086 98.2649 39.8818C98.2649 39.8549 98.1535 39.7228 98.0174 39.5882C97.8812 39.4536 97.7698 39.3253 97.7698 39.3032C97.7698 39.2812 97.6716 39.1643 97.5515 39.0437C97.4315 38.9231 97.2884 38.7563 97.2337 38.673C97.1789 38.5897 96.9943 38.3727 96.8234 38.1907C96.6526 38.0086 96.5128 37.8388 96.5128 37.8132C96.5128 37.7877 96.412 37.6715 96.2888 37.5551C96.1656 37.4386 96.0384 37.2925 96.0061 37.2306C95.9739 37.1686 95.8682 37.042 95.7713 36.9494C95.6743 36.8567 95.5454 36.7043 95.4847 36.6106C95.4241 36.5169 95.3231 36.3807 95.2603 36.3079C95.0497 36.0632 95.0475 36.0796 95.0354 38.0351C95.0261 39.5232 95.0155 39.8099 94.9673 39.883C94.889 40.0017 94.6245 40.0697 94.3659 40.0376C93.9872 39.9906 94.0192 40.2584 94.0085 37.0513C94.0012 34.8443 94.0095 34.2253 94.0475 34.1508C94.0855 34.0766 94.1299 34.0538 94.2543 34.0447C94.408 34.0335 94.4228 34.0422 94.7486 34.368C94.9333 34.5522 95.1273 34.7617 95.1796 34.8337C95.232 34.9056 95.3885 35.0836 95.5273 35.2293C95.6661 35.375 95.8061 35.5453 95.8383 35.6078C95.8705 35.6702 96.044 35.872 96.2239 36.0563C96.4037 36.2405 96.5509 36.4096 96.5509 36.4321C96.5509 36.4546 96.7216 36.6397 96.9303 36.8435C97.139 37.0474 97.3379 37.27 97.3724 37.3382C97.4068 37.4063 97.5483 37.5769 97.6868 37.7173C97.9334 37.9672 97.9397 37.9707 97.9862 37.8876C98.0222 37.8232 98.034 37.371 98.0351 36.0205C98.0363 34.3637 98.0412 34.234 98.1039 34.1776C98.2008 34.0904 98.6232 34.0579 98.8349 34.1213C98.9888 34.1675 99.0077 34.1863 99.036 34.3214C99.0532 34.4034 99.0624 35.7113 99.0565 37.2279L99.0458 39.9853L98.9559 40.0576C98.8904 40.1103 98.8058 40.1299 98.6444 40.1299C98.4504 40.1299 98.413 40.1177 98.3439 40.0302Z" fill="#3E000F"/>
    <path d="M102.103 39.9502L102.003 39.8461L101.991 38.5784L101.979 37.3107L101.884 37.1673C101.831 37.0884 101.733 36.9548 101.665 36.8704C101.597 36.786 101.541 36.6941 101.541 36.6661C101.541 36.6204 101.405 36.4451 101.139 36.1464C101.088 36.0888 101.046 36.0203 101.046 35.9942C101.046 35.9681 100.997 35.8875 100.937 35.8151C100.877 35.7427 100.816 35.6449 100.801 35.5977C100.786 35.5505 100.725 35.4653 100.666 35.4085C100.607 35.3516 100.479 35.1859 100.383 35.0402C100.286 34.8945 100.183 34.7493 100.153 34.7175C99.9991 34.5551 99.9796 34.2984 100.111 34.1681C100.192 34.0871 100.237 34.0755 100.463 34.0773C100.807 34.0801 100.966 34.1391 101.071 34.3022C101.173 34.4608 101.333 34.6777 101.469 34.8435C101.524 34.91 101.599 35.0241 101.636 35.0969C101.673 35.1698 101.749 35.2823 101.803 35.347C101.858 35.4116 101.937 35.5051 101.979 35.5546C102.021 35.6042 102.098 35.7208 102.15 35.8138C102.203 35.9067 102.299 36.0139 102.365 36.0519L102.485 36.1209L102.605 36.0019C102.671 35.9364 102.759 35.821 102.8 35.7453C102.842 35.6697 102.953 35.5141 103.047 35.3997C103.141 35.2852 103.254 35.1234 103.299 35.0402C103.343 34.9569 103.412 34.8547 103.451 34.8131C103.632 34.6223 103.779 34.4243 103.825 34.3103C103.897 34.1313 103.988 34.0979 104.41 34.0959C104.738 34.0934 104.791 34.1031 104.839 34.1675C104.928 34.2892 104.906 34.5075 104.791 34.644C104.735 34.7102 104.662 34.8119 104.629 34.8699C104.556 34.9979 104.355 35.2671 104.226 35.4098C104.174 35.4674 104.131 35.5371 104.131 35.5647C104.131 35.5924 104.095 35.6471 104.052 35.6863C104.008 35.7255 103.948 35.8156 103.918 35.8865C103.888 35.9573 103.808 36.0803 103.74 36.1596C103.553 36.3783 103.463 36.5028 103.388 36.648C103.351 36.7206 103.275 36.8245 103.221 36.879C103.166 36.9335 103.079 37.0444 103.026 37.1255L102.931 37.2728L102.912 38.5595C102.893 39.8753 102.881 39.9768 102.739 40.0309C102.705 40.0437 102.571 40.0542 102.44 40.0542C102.231 40.0542 102.191 40.042 102.103 39.9502Z" fill="#3E000F"/>
</svg>
