<svg width="40" height="40" viewBox="0 0 40 40" fill="none" xmlns="http://www.w3.org/2000/svg">
<path d="M30.7949 5.22202C30.7949 8.23662 32.0658 11.2217 35.7897 16.9849C37.0901 18.9946 38.4201 21.2408 38.6861 21.9205C38.9816 22.6299 39.3067 23.1914 39.3954 23.1914C40.0456 23.1914 40.1343 17.2213 39.5136 14.916C38.4201 10.7488 35.2873 6.43377 32.0362 4.63092L30.7949 3.95116V5.22202Z" fill="#6B1540"/>
<path d="M5.37784 6.87706C2.95434 9.33012 1.65393 11.4285 0.619503 14.7091C-0.355809 17.7828 0.0284051 23.7825 1.2106 23.7825C1.53571 23.7825 3.60455 21.1521 4.10698 20.0881C4.84586 18.6399 5.7325 15.6253 6.53049 11.9605C6.97381 9.77344 7.62402 7.20217 7.94912 6.25641C8.77666 3.89202 8.24467 4.03979 5.37784 6.87706Z" fill="#6B1540"/>
<path d="M13.2173 10.6397C13.1286 10.817 13.0915 15.6844 13.1211 21.1225L13.2098 31.0234L15.1308 31.112L17.0519 31.2007L16.9632 26.5901L16.8746 22.0091H21.16H25.4455L25.5342 26.5015L25.6228 31.0234H27.5439H29.465V20.8269V10.6305L27.4848 10.5418L25.475 10.4531V14.6204V18.7876L21.2782 18.699L17.0519 18.6103V14.5317V10.4827H15.1899C13.9782 10.4827 13.2173 10.4125 13.2173 10.6397Z" fill="#6B1540"/>
<path d="M35.2874 27.9497C32.7457 29.191 31.0906 30.6687 24.9432 37.1708C23.7314 38.4121 22.6379 39.4466 22.4901 39.4466C22.3423 39.4466 22.2241 39.5943 22.2241 39.7717C22.2241 40.0081 22.7266 40.0672 23.9383 39.9194C29.8197 39.2397 34.9032 35.5453 37.5336 29.989C39.2182 26.4128 38.9226 26.1468 35.2874 27.9497Z" fill="#6B1540"/>
<path d="M1.53564 27.4769C1.53564 27.6838 2.95428 30.6393 3.69315 31.8806C5.31867 34.7474 9.3677 38.028 12.6187 39.1511C14.3329 39.7422 17.85 40.0673 18.2342 39.6831C18.9435 38.9738 15.5742 35.2794 12.5596 33.447C11.5843 32.8559 10.6977 32.3535 10.609 32.3535C10.3135 32.3535 4.01826 28.7478 3.10205 28.0385C2.24496 27.3883 1.53564 27.1223 1.53564 27.4769Z" fill="#6B1540"/>
<path d="M19.0617 0.138531C16.7564 0.49319 13.8896 1.94138 12.3527 3.5669C10.8159 5.16287 9.69276 7.23171 10.1065 7.64548C10.5794 8.11836 13.7122 8.00014 15.19 7.43859C15.9584 7.14305 18.0568 5.84263 19.8892 4.54221C22.9629 2.3847 25.0909 1.37984 26.7755 1.29117C27.869 1.23206 24.2042 0.227196 22.3718 0.0498662C21.3965 -0.0387985 19.9188 -0.00924363 19.0617 0.138531Z" fill="#C1C1C1"/>
</svg>
