<svg width="160" height="41" viewBox="0 0 160 41" fill="none" xmlns="http://www.w3.org/2000/svg">
    <g clip-path="url(#clip0_38_201)">
        <path d="M45.0169 11.6454C44.4746 11.6454 44.0678 12.0639 44.0678 12.6215V31.7251C42.7119 32.0039 41.2203 32.2829 39.7288 32.2829C36.4746 32.2829 35.3898 31.0279 35.3898 27.4024V12.6215C35.3898 12.0638 34.9829 11.6454 34.5763 11.6454H29.6949V27.4024C29.6949 34.7928 33.4916 37.1633 39.5932 37.1633C44.4746 37.1633 49.3559 35.769 49.7627 35.6295V11.6454H45.0169ZM119.729 36.8844C120.136 36.8844 120.678 36.466 120.678 35.9083V16.6653C122.034 16.3865 123.525 16.1076 125.017 16.1076C128.271 16.1076 129.356 17.3626 129.356 20.988V35.9083C129.356 36.4661 129.763 36.8844 130.169 36.8844H135.051V20.988C135.051 13.5976 131.254 11.2271 125.153 11.2271C120.271 11.2271 115.39 12.6215 114.983 12.761V36.8844H119.729ZM100.203 11.2271C93.8305 11.2271 89.8983 14.7132 89.8983 22.3825V26.1474C89.8983 34.5139 94.2373 37.3028 98.8475 37.3028C101.153 37.3028 103.593 35.6295 104.271 34.6534V36.1872C104.271 36.6057 104.678 37.0239 105.085 37.0239C105.085 37.0239 109.831 37.0239 109.966 37.0239V12.6215C110.102 12.6215 105.356 11.2271 100.203 11.2271ZM104.407 30.7491C103.322 31.7251 102.508 32.2829 100.203 32.2829C96.9492 32.4225 95.5932 30.3307 95.5932 26.008V22.5219C95.5932 17.6415 97.3559 16.247 100.203 16.247C102.508 16.247 103.864 16.3867 104.407 16.5258V30.7491ZM149.424 11.2271C143.051 11.2271 139.119 14.7132 139.119 22.3825V26.1474C139.119 34.5139 143.458 37.3028 148.203 37.3028C150.508 37.3028 152.949 35.6295 153.627 34.6534V36.1872C153.627 36.6057 154.034 37.0239 154.441 37.0239C154.441 37.0239 159.186 37.0239 159.322 37.0239V12.6215C159.322 12.6215 154.576 11.2271 149.424 11.2271ZM153.627 30.7491C152.542 31.7251 151.729 32.2829 149.424 32.2829C146.169 32.2829 144.814 30.3307 144.814 26.008V22.5219C144.814 17.502 146.576 16.247 149.424 16.247C151.729 16.247 153.085 16.3867 153.627 16.5258V30.7491ZM0.677979 36.8844C1.49154 36.8844 5.83054 36.8844 5.83054 36.8844C6.23745 36.8844 6.64409 36.466 6.64409 36.0478V22.1036H16.1356C17.7627 22.1036 18.8475 23.3586 18.8475 24.753V36.0478C18.8475 36.4662 19.2544 36.8844 19.661 36.8844C19.661 36.8844 24.5424 36.8844 24.8136 36.8844C24.8136 36.8844 24.8136 3.97617 24.8136 3.69727H19.661C19.2541 3.69727 18.8475 4.11566 18.8475 4.53385V17.0837H9.08477C7.7288 17.0837 6.77965 15.9682 6.77965 14.7132V4.53385C6.64384 4.25505 6.37274 3.69727 5.83054 3.69727H0.677979C0.677979 3.97606 0.677979 36.8844 0.677979 36.8844ZM77.017 11.2271C74.3051 11.2271 71.7288 12.3427 70.5085 13.1793C68.7457 11.7849 66.3051 11.2271 63.322 11.2271C58.8474 11.2271 55.0508 12.6215 54.5085 12.9004V37.0239H59.3898C59.9322 37.0239 60.2034 36.6054 60.2034 36.0478V16.6653C61.4237 16.3865 62.3729 16.2469 63.1864 16.2469C66.5763 16.2469 67.3899 17.6413 67.3899 21.1273V36.0476C67.3899 36.4661 67.661 37.0237 68.2034 37.0237H72.2712C72.8136 37.0237 73.0848 36.6053 73.0848 36.0476V17.3624C74.0339 16.6652 75.2542 16.2469 76.4746 16.2469C79.0509 16.2469 80.1356 17.5019 80.1356 20.7091V36.0476C80.1356 36.4661 80.4067 37.0237 80.9492 37.0237C80.9492 37.0237 85.4237 37.0237 85.8305 37.0237V19.8724C85.9663 13.458 82.0339 11.2271 77.017 11.2271Z" fill="#4E8416"/>
    </g>
    <defs>
        <clipPath id="clip0_38_201">
            <rect width="160" height="35" fill="white" transform="translate(0 3)"/>
        </clipPath>
    </defs>
</svg>
