<svg width="160" height="41" viewBox="0 0 160 41" fill="none" xmlns="http://www.w3.org/2000/svg">
    <g clip-path="url(#clip0_38_205)">
        <path d="M11.5232 6.33476C10.8603 6.77814 3.99542 13.6551 2.93299 14.931C2.84218 15.0395 2.69689 15.2115 2.61517 15.311C2.52436 15.4196 2.45172 15.5463 2.45172 15.5915C2.45172 15.6458 2.42448 15.682 2.37907 15.682C2.29735 15.682 1.54366 16.8855 1.54366 17.0302C1.54366 17.0845 1.49826 17.1298 1.43469 17.1298C1.38021 17.1298 1.36205 17.1569 1.38929 17.1841C1.42561 17.2203 1.37113 17.356 1.27124 17.4917C1.17136 17.6365 1.08963 17.7722 1.08963 17.8084C1.08963 17.8356 0.989744 18.0889 0.862616 18.3604C0.735488 18.6409 0.61744 18.9486 0.599279 19.0571C0.572037 19.1657 0.544795 19.2743 0.535715 19.3015C0.526634 19.3286 0.508473 19.3829 0.499392 19.4372C0.490312 19.4824 0.417667 19.7539 0.335942 20.0253C0.108927 20.7945 0.0635239 21.2288 0.0544434 22.7399C0.0544434 24.1787 0.118007 25.0111 0.281458 25.4364C0.335942 25.5722 0.372264 25.6898 0.372264 25.6988C0.363183 25.7169 0.363183 25.735 0.372264 25.7441C0.372264 25.7622 0.399506 25.8889 0.417667 26.0336C0.508473 26.5947 1.41653 28.712 1.5709 28.712C1.60722 28.712 1.62539 28.7482 1.58906 28.7935C1.56182 28.8387 1.57998 28.9021 1.63447 28.9382C1.68895 28.9744 1.83424 29.2007 1.95229 29.445C2.07941 29.6893 2.2247 29.8884 2.27011 29.8884C2.32459 29.8884 2.36091 29.9426 2.36091 30.006C2.36091 30.0693 2.48804 30.2684 2.63333 30.4403C2.7877 30.6122 3.04196 30.9018 3.20541 31.0918C3.89553 31.9152 4.83083 32.7749 5.5028 33.2002C5.76613 33.3721 6.01131 33.544 6.03855 33.5983C6.07487 33.6526 6.13844 33.6707 6.18384 33.6435C6.22924 33.6073 6.26557 33.6254 6.26557 33.6707C6.26557 33.725 6.60155 33.924 7.01926 34.1231C9.12595 35.1366 9.99769 35.3628 12.286 35.4985C13.4392 35.5619 13.7934 35.5528 14.6924 35.408C16 35.1909 16.7082 35.0099 17.4801 34.6841C17.6345 34.6208 17.7979 34.5575 17.8524 34.5484C18.0976 34.4941 19.496 33.7431 19.6413 33.5892C19.7321 33.4988 19.8592 33.4173 19.9228 33.4173C19.9863 33.4173 20.1679 33.3087 20.3223 33.164C20.4858 33.0282 20.74 32.8201 20.8944 32.6934C21.0488 32.5668 21.3121 32.3405 21.4756 32.1958C21.8388 31.87 23.1464 30.3498 23.2372 30.1598C23.2644 30.0874 23.4551 29.7798 23.6458 29.4812C24 28.9563 24.8354 27.0199 24.9262 26.5585C24.9534 26.4227 24.9897 26.2146 25.0261 26.0879C25.0533 25.9612 25.0896 25.7803 25.1078 25.6807C25.126 25.5812 25.1441 25.4998 25.1532 25.4998C25.2258 25.4998 25.362 24.1877 25.3802 23.3281C25.4074 21.9165 25.2168 20.704 24.7446 19.2562C24.4721 18.4328 23.6821 16.795 23.4279 16.5235C23.328 16.4149 23.2463 16.2973 23.2463 16.2702C23.2463 16.234 23.1918 16.1525 23.1373 16.0892C22.883 15.8087 22.7922 15.691 22.7922 15.6277C22.7922 15.501 21.0215 13.6822 16.6719 9.32081C13.3938 6.03615 13.3393 5.99996 12.4404 5.99996C12.0862 5.99996 11.9137 6.0633 11.5232 6.33476ZM12.3586 8.00875C12.3223 8.12639 12.2134 8.46119 12.1316 8.75979C12.0408 9.0584 11.9137 9.44749 11.8501 9.61941C11.7048 9.99945 11.496 10.7143 11.4869 10.841C11.4869 10.8862 11.4506 10.9767 11.4143 11.031C11.3144 11.1939 10.9148 13.085 10.7151 14.2885C10.6787 14.5509 10.6242 14.8314 10.597 14.9219C10.4245 15.5191 10.3428 18.3061 10.4699 19.5277C10.5607 20.4506 10.706 21.2922 10.8149 21.4912C10.8603 21.5817 10.8785 21.6541 10.8513 21.6541C10.824 21.6541 10.8603 21.7717 10.9421 21.9256C11.0147 22.0703 11.0783 22.2151 11.0783 22.2423C11.0692 22.4142 11.2417 22.8666 11.5141 23.3733C11.6867 23.6991 11.8774 24.052 11.9319 24.1606C11.9863 24.2782 12.059 24.3687 12.1044 24.3687C12.1407 24.3687 12.1679 24.4139 12.1679 24.4682C12.1679 24.7125 13.4211 25.9341 14.2383 26.4861C15.1282 27.0833 16.9716 27.8162 17.8433 27.9339C18.0431 27.9519 18.4517 28.0243 18.7514 28.0877C19.0601 28.151 20.0862 28.1963 21.1305 28.2053C22.1475 28.2144 22.9739 28.2325 22.9739 28.2506C22.9739 28.3591 22.1475 29.6621 21.7843 30.1146C21.521 30.4494 20.1952 31.7614 19.9046 31.9695C19.7321 32.0962 19.5414 32.25 19.4778 32.3134C19.4052 32.3677 19.3144 32.422 19.2599 32.422C19.2054 32.422 19.16 32.4672 19.16 32.5215C19.16 32.5668 19.1328 32.5939 19.0964 32.5758C19.051 32.5487 18.7786 32.5034 18.479 32.4672C17.3711 32.3315 17.0351 32.2772 16.2361 32.0962C15.8819 32.0148 15.555 31.9424 15.4914 31.9243C15.437 31.9152 15.328 31.8791 15.2554 31.8519C15.1827 31.8157 15.0374 31.7795 14.9375 31.7614C14.8376 31.7433 14.6015 31.6619 14.4018 31.5805C14.2111 31.499 14.0022 31.4266 13.9477 31.4266C13.8842 31.4266 13.8025 31.3904 13.7571 31.3542C13.7026 31.309 13.521 31.2185 13.3484 31.1461C13.0034 31.0104 11.8229 30.3589 11.6594 30.2051C11.5959 30.1598 11.4506 30.0422 11.3325 29.9517C10.4971 29.3545 9.38929 28.0062 8.9625 27.0833C8.45399 25.9612 8.16341 25.0111 8.03628 24.0067C7.86375 22.6766 7.9364 20.713 8.21789 18.9395C8.25422 18.7133 8.29054 18.469 8.29962 18.3966C8.3087 18.3151 8.34502 18.2156 8.37226 18.1704C8.39951 18.1161 8.45399 17.8989 8.49939 17.6727C8.53571 17.4465 8.57204 17.2474 8.58112 17.2203C8.5902 17.1931 8.62652 17.0483 8.66284 16.9036C8.69916 16.7497 8.76273 16.5326 8.80813 16.4059C8.85353 16.2792 9.03515 15.691 9.21676 15.0938C9.39837 14.4966 9.62539 13.8361 9.72527 13.628C9.81608 13.4108 9.8978 13.2027 9.8978 13.1484C9.8978 13.0941 9.93412 12.9855 9.97953 12.895C10.143 12.5964 10.4426 11.8816 10.4426 11.8092C10.4426 11.7639 10.5425 11.5377 10.6697 11.3025C10.7877 11.0762 10.8694 10.8862 10.8513 10.8862C10.8331 10.8862 10.933 10.66 11.0874 10.3885C11.2326 10.1171 11.3235 9.89087 11.2871 9.89087C11.2508 9.89087 11.2599 9.85468 11.3144 9.81848C11.3689 9.78229 11.5505 9.44749 11.723 9.07649C11.8865 8.7055 12.0499 8.37975 12.0771 8.3526C12.1044 8.32546 12.177 8.19877 12.2315 8.054C12.3677 7.76444 12.4676 7.72825 12.3586 8.00875ZM11.8865 8.34355C11.7866 8.54262 11.6413 8.75074 11.5686 8.81408C11.496 8.86837 11.4415 8.97696 11.4415 9.0403C11.4415 9.11269 11.4052 9.16698 11.3598 9.16698C11.3144 9.16698 11.2417 9.24842 11.2145 9.34795C11.1691 9.50178 10.7241 10.289 10.3518 10.8862C10.3064 10.9586 10.1157 11.3296 9.92504 11.7006C9.73435 12.0716 9.56182 12.3973 9.53458 12.4245C9.47101 12.4878 8.52663 14.4876 8.21789 15.2296C8.08169 15.5553 7.90007 15.9806 7.80927 16.1797C7.71846 16.3787 7.60041 16.7045 7.53685 16.9036C7.47329 17.1026 7.38248 17.3469 7.33708 17.4465C7.30075 17.546 7.24627 17.7089 7.21903 17.8084C7.20087 17.908 7.10098 18.2066 7.00109 18.4599C6.91029 18.7223 6.84672 18.9395 6.87397 18.9395C6.90121 18.9395 6.87397 18.9938 6.81948 19.0662C6.765 19.1386 6.7196 19.2291 6.72868 19.2653C6.73776 19.3105 6.70144 19.4643 6.64695 19.6001C6.58339 19.7448 6.53798 19.9168 6.53798 19.9982C6.53798 20.0706 6.47442 20.3692 6.40178 20.6497C6.32913 20.9302 6.25649 21.3012 6.22924 21.4731C6.21108 21.645 6.16568 21.9075 6.12936 22.0613C5.98407 22.7128 5.92958 23.681 5.95683 24.7306C5.99315 25.7893 6.01131 26.0517 6.1112 26.4951C6.13844 26.5947 6.18384 26.8571 6.22016 27.0833C6.25649 27.3095 6.34729 27.5991 6.41086 27.7438C6.4835 27.8796 6.51982 27.9881 6.49258 27.9881C6.45626 27.9881 6.46534 28.0424 6.51074 28.0967C6.54707 28.1601 6.58339 28.2596 6.59247 28.3139C6.60155 28.3682 6.7196 28.6487 6.8558 28.9473C7.39156 30.0874 8.39042 31.2457 9.44377 31.9424C9.71619 32.1234 10.0431 32.3405 10.1702 32.422C10.4426 32.6029 11.5686 33.1278 11.8047 33.1821C11.832 33.1911 11.9319 33.2454 12.0317 33.2997C12.3042 33.4445 13.3847 33.7521 14.2837 33.924C14.7196 34.0055 15.0737 34.105 15.0737 34.1322C15.0737 34.2317 14.3927 34.2769 12.849 34.2769C11.269 34.2769 10.8149 34.2317 9.8524 33.9693C9.65263 33.915 9.45285 33.8698 9.39837 33.8607C9.35297 33.8607 9.23492 33.8155 9.14411 33.7612C9.05331 33.7159 8.90802 33.6616 8.82629 33.6435C8.56296 33.5983 6.58339 32.5848 6.44718 32.431C6.41994 32.3948 6.17476 32.2048 5.90234 32.0057C5.62993 31.7976 5.09417 31.3271 4.72187 30.9561C4.0499 30.2865 3.95002 30.1779 3.57771 29.6531C2.71506 28.4315 2.73322 28.4768 2.57885 27.5629C2.38815 26.4046 2.38815 25.3459 2.58793 24.233C2.66965 23.7353 2.75138 23.2829 2.76046 23.2376C2.89667 22.7309 2.96023 22.5137 3.14184 21.9708C3.48691 20.9212 3.79565 20.152 4.08623 19.5729C4.23151 19.2834 4.35864 18.9757 4.35864 18.9033C4.35864 18.8309 4.38588 18.7585 4.43129 18.7404C4.46761 18.7223 4.64922 18.4237 4.83083 18.0799C5.40291 16.9669 5.94775 16.0168 6.42902 15.302C6.69235 14.9129 6.90121 14.56 6.90121 14.5057C6.90121 14.4604 6.93753 14.4152 6.97385 14.4152C7.01018 14.4152 7.11006 14.3066 7.19179 14.1618C7.36432 13.8723 8.95342 11.7096 9.35297 11.2301C9.49826 11.0491 9.62539 10.8591 9.62539 10.8048C9.62539 10.7505 9.66171 10.7052 9.69803 10.7052C9.74343 10.7052 9.88872 10.5424 10.0431 10.3343C10.1884 10.1352 10.37 9.89992 10.4517 9.81848C10.7877 9.47463 11.8955 8.13544 11.8955 8.06305C11.8955 8.02685 11.9319 7.99066 11.9863 7.99066C12.0317 7.99066 11.9863 8.15353 11.8865 8.34355ZM14.1929 9.49273C14.3291 9.73704 14.538 10.0628 14.647 10.2257C14.883 10.5695 15.3008 11.2301 15.6186 11.7549C15.7457 11.963 15.9182 12.2164 16.009 12.3069C16.0908 12.4064 16.1634 12.524 16.1634 12.5783C16.1634 12.6236 16.2905 12.8407 16.4449 13.0488C16.7355 13.456 16.9534 13.8089 17.244 14.3337C17.3439 14.5057 17.4892 14.7047 17.5618 14.7681C17.6435 14.8405 17.7071 14.94 17.7071 15.0033C17.7071 15.0667 17.7888 15.2205 17.8887 15.3472C17.9977 15.4739 18.1248 15.6729 18.1884 15.7906C18.5244 16.3878 18.7332 16.6683 18.8059 16.6231C18.8513 16.5959 18.9512 16.4421 19.0329 16.2883C19.1146 16.1254 19.3416 15.7634 19.5323 15.4829C19.7321 15.1934 19.8865 14.9219 19.8865 14.8676C19.8865 14.8224 19.9319 14.7771 19.9773 14.7771C20.0499 14.7771 20.059 15.0848 19.9863 15.2929C19.9773 15.311 19.9863 15.3291 19.9954 15.3381C20.0045 15.3562 19.9591 15.4558 19.9046 15.5553C19.8501 15.6639 19.7775 15.8811 19.7502 16.053C19.723 16.2159 19.6594 16.3968 19.6231 16.4511C19.5777 16.4964 19.4687 16.7769 19.387 17.0574L19.2236 17.5641L19.4597 17.8537C19.5959 18.0075 19.7048 18.1794 19.7048 18.2337C19.7048 18.279 19.9319 18.659 20.2043 19.0752C20.4767 19.4824 20.7037 19.8625 20.7037 19.9258C20.7037 19.9801 20.7491 20.0253 20.7945 20.0253C20.849 20.0253 20.8853 20.0706 20.8853 20.1249C20.8853 20.2425 21.5482 21.3826 21.6208 21.3826C21.6481 21.3826 21.748 21.2288 21.8569 21.0388C22.3655 20.1068 22.5561 19.7901 22.6742 19.6634C22.7922 19.5458 22.8013 19.5548 22.7559 19.7539C22.7287 19.8806 22.6379 20.3239 22.5652 20.7492C22.4835 21.1745 22.3655 21.6993 22.3019 21.9256C22.1748 22.3418 22.2111 22.5047 22.5017 22.8123C22.5561 22.8757 22.6106 22.9933 22.6106 23.0657C22.6106 23.1381 22.6379 23.1924 22.6833 23.1924C22.7196 23.1924 22.7922 23.2829 22.8467 23.4005C23.0374 23.8077 23.5459 24.6854 23.6186 24.7306C23.7366 24.8121 23.9546 25.3912 23.9273 25.5903C23.9182 25.6898 23.8547 25.9522 23.7911 26.1784C23.7185 26.4046 23.664 26.6127 23.664 26.6489C23.6549 26.6761 23.6277 26.7394 23.5823 26.7756C23.5459 26.8118 23.5187 26.9114 23.5187 27.0018C23.5187 27.0923 23.446 27.3004 23.3643 27.4724L23.2009 27.78L22.656 26.6851C22.3564 26.0789 22.1112 25.5631 22.1112 25.5269C22.1112 25.4998 21.866 24.9749 21.5664 24.3777L21.0215 23.2919L20.5675 23.2829C20.0227 23.2738 17.8978 22.9933 17.8252 22.9209C17.807 22.9119 17.7707 22.8938 17.7344 22.8847C17.0715 22.7399 15.9546 22.2423 15.219 21.7627C14.6833 21.4279 14.7741 21.4007 15.8547 21.5998C16.2542 21.6722 16.7355 21.7536 16.9353 21.7808C17.135 21.817 17.3984 21.8532 17.5255 21.8803C17.7525 21.9165 18.2338 21.9798 19.0056 22.0613C19.2145 22.0794 19.6231 22.1246 19.9137 22.1518C20.2588 22.188 20.4313 22.1789 20.4313 22.1065C20.4313 21.8984 18.2883 17.7632 18.1793 17.7632C18.1157 17.7632 17.9977 17.7179 17.9069 17.6727C17.8252 17.6184 17.4256 17.4646 17.0261 17.3198C16.009 16.9579 15.1555 16.5959 14.8921 16.4059C14.765 16.3244 14.4381 16.1344 14.1657 15.9897C13.5119 15.6458 13.3121 15.4648 13.6753 15.5553C14.4472 15.7272 15.7094 16.0892 16.6447 16.3968C17.2258 16.5959 17.7071 16.7407 17.7071 16.7226C17.7071 16.6683 16.1271 13.5556 16.0817 13.5103C16.0454 13.4832 15.8093 13.0398 15.5459 12.515C14.8013 11.04 14.3655 10.2166 14.2837 10.1171C14.202 10.0176 13.7026 9.03125 13.6027 8.75979C13.4846 8.47023 13.8933 8.97696 14.1929 9.49273Z" fill="#43B02A"/>
        <path d="M123.033 10.7413C123.015 10.7594 122.77 10.8047 122.497 10.8409C122.225 10.8771 121.753 10.9585 121.453 11.0309C121.153 11.1033 120.817 11.1847 120.717 11.2028C120.608 11.23 120.381 11.3023 120.218 11.3747C120.045 11.4471 119.882 11.5105 119.846 11.5105C119.8 11.5195 119.764 11.5195 119.755 11.5286C119.737 11.5286 119.646 11.5467 119.555 11.5648C119.464 11.5829 119.355 11.6371 119.328 11.6824C119.301 11.7367 119.101 11.8181 118.901 11.8724C118.692 11.9267 118.42 12.0534 118.293 12.1529C118.166 12.2615 117.93 12.3791 117.775 12.4334C117.63 12.4877 117.503 12.5692 117.503 12.6144C117.503 12.6596 117.466 12.6958 117.412 12.6958C117.221 12.6958 116.259 13.4921 115.387 14.3698C112.935 16.8401 111.918 20.5953 112.645 24.5043C113.008 26.4407 114.107 28.4857 115.569 29.9425C116.241 30.6031 117.639 31.698 117.821 31.698C117.857 31.698 118.002 31.7794 118.148 31.888C118.293 31.9875 118.411 32.0418 118.411 32.0147C118.411 31.9875 118.52 32.0328 118.665 32.1323C118.801 32.2228 119.119 32.3676 119.364 32.4581C119.619 32.5485 119.9 32.6481 120 32.6933C120.563 32.9105 122.252 33.2815 122.86 33.3177C124.631 33.4082 125.321 33.4082 125.921 33.3267C126.311 33.2724 126.756 33.2091 126.901 33.191C127.591 33.1005 128.763 32.8019 128.926 32.6752C128.981 32.6209 129.035 32.6028 129.035 32.63C129.035 32.6752 129.453 32.5214 130.216 32.1776C130.715 31.9423 132.113 31.0646 132.522 30.7026C134.238 29.2186 135.31 27.6623 135.945 25.6806C136.817 22.9751 136.599 19.4914 135.41 17.0663C134.856 15.9533 134.602 15.5643 133.766 14.6051C133.23 13.9807 131.669 12.6958 131.187 12.4696C131.024 12.3882 130.733 12.2344 130.533 12.1077C130.343 11.99 130.143 11.9177 130.107 11.9358C130.07 11.9629 130.034 11.9448 130.034 11.8996C130.034 11.8543 129.961 11.791 129.88 11.7638C129.789 11.7367 129.435 11.61 129.081 11.4833C128.735 11.3566 128.345 11.239 128.218 11.2119C128.091 11.1938 127.873 11.1304 127.718 11.0761C127.573 11.0309 127.274 10.9675 127.056 10.9404C126.838 10.9133 126.62 10.859 126.565 10.8318C126.456 10.7685 123.096 10.678 123.033 10.7413ZM125.675 16.7134C125.902 16.7768 126.102 16.8401 126.129 16.8401C126.157 16.8401 126.293 16.8854 126.429 16.9396C126.574 16.9939 126.711 17.0392 126.729 17.0392C126.874 17.0392 127.882 17.8174 128.272 18.2246C128.735 18.7222 129.462 20.0433 129.544 20.541C129.743 21.8169 129.743 22.5769 129.525 23.4637C129.498 23.5904 129.462 23.7714 129.444 23.88C129.417 24.0519 129.235 24.4681 128.854 25.183C128.708 25.4635 128.182 26.0426 127.7 26.4588C127.482 26.6398 126.275 27.2641 126.011 27.3184C124.586 27.6261 123.224 27.5266 122.234 27.0379C121.616 26.7303 120.508 25.9249 120.499 25.7802C120.499 25.7349 120.427 25.6354 120.345 25.5539C120.254 25.4725 120.1 25.2463 120 25.0472C119.909 24.8482 119.764 24.6129 119.691 24.5224C119.619 24.441 119.591 24.3686 119.637 24.3686C119.673 24.3686 119.655 24.3052 119.591 24.2328C119.528 24.1605 119.501 24.0971 119.537 24.0971C119.564 24.0971 119.537 23.9523 119.464 23.7804C119.382 23.5994 119.328 23.4366 119.328 23.4185C119.328 23.3913 119.301 23.1199 119.264 22.8032C119.165 22.025 119.228 20.9663 119.401 20.4053C119.41 20.3962 119.401 20.3691 119.392 20.36C119.373 20.3419 119.419 20.2605 119.491 20.1791C119.555 20.0886 119.591 20.0252 119.555 20.0252C119.528 20.0252 119.628 19.799 119.773 19.5276C119.918 19.2561 120.018 19.0299 119.991 19.0299C119.945 19.0299 120.054 18.8761 120.345 18.5684C120.427 18.4779 120.499 18.3784 120.499 18.3603C120.499 18.2969 121.153 17.6726 121.226 17.6726C121.262 17.6726 121.344 17.6183 121.398 17.5459C121.498 17.4283 122.216 17.0482 122.633 16.8944C123.442 16.6048 125.003 16.5053 125.675 16.7134Z" fill="#43B02A"/>
        <path d="M28.967 22.0162V32.965L32.3269 32.9831L35.6867 33.0103V28.8207V24.6403H39.5913H43.496V28.8026V32.965L46.8467 32.9831L50.1884 33.0103L50.1975 22.2152C50.1975 16.2793 50.1702 11.3388 50.1521 11.2392C50.1067 11.0764 49.9886 11.0673 46.8013 11.0673H43.496V14.9582V18.8491H39.5913H35.6867V14.9582V11.0673H32.3269H28.967V22.0162Z" fill="#43B02A"/>
        <path d="M51.4051 11.2662C51.5322 11.5015 52.0226 12.2887 52.404 12.8588C52.5493 13.0669 52.6673 13.266 52.6673 13.2931C52.6673 13.3203 52.7672 13.4741 52.8943 13.637C53.0215 13.7998 53.1213 13.9627 53.1213 13.9899C53.1213 14.026 53.3484 14.397 53.6208 14.8223C53.8932 15.2386 54.1202 15.6096 54.1202 15.6367C54.1202 15.691 54.4199 16.1253 54.6469 16.3968C54.7104 16.4782 54.7649 16.5778 54.7649 16.6321C54.774 16.6773 54.883 16.8854 55.0192 17.0845C55.1554 17.2836 55.3188 17.555 55.3824 17.6907C55.4551 17.8265 55.5822 18.0255 55.6821 18.116C55.7729 18.2156 55.8455 18.3332 55.8455 18.3784C55.8455 18.4146 56.0271 18.7223 56.2541 19.0571C56.4812 19.3919 56.6628 19.6905 56.6628 19.7267C56.6628 19.7538 56.7627 19.9167 56.8898 20.0796C57.0169 20.2425 57.1168 20.3963 57.1168 20.4325C57.1168 20.4868 57.589 21.2288 57.6707 21.2921C57.707 21.3192 57.816 21.5002 57.9159 21.7083C58.0158 21.9074 58.1701 22.1246 58.2428 22.1879C58.3245 22.2603 58.3881 22.3598 58.3881 22.4322C58.3881 22.4956 58.4516 22.6132 58.5334 22.6856C58.606 22.767 58.6514 22.8304 58.6151 22.8304C58.5879 22.8304 58.7422 23.0928 58.9692 23.4095C59.1963 23.7262 59.3597 24.0067 59.3325 24.0338C59.3143 24.0519 59.3506 24.1243 59.4324 24.1877C59.5504 24.2872 59.5686 24.8573 59.5686 28.6305V32.9648H62.9284H66.2882L66.27 28.5763C66.2519 26.1603 66.27 24.1877 66.2973 24.1877C66.3518 24.1877 66.5425 23.8167 66.5243 23.7352C66.5243 23.7081 66.606 23.5905 66.7241 23.4638C66.833 23.3461 66.9238 23.1923 66.9238 23.129C66.9238 23.0656 66.9692 23.0113 67.0146 23.0113C67.0691 23.0113 67.1054 22.9751 67.1054 22.9209C67.1054 22.8485 67.7138 21.835 67.9045 21.6088C67.9409 21.5545 68.1134 21.274 68.2859 20.9754C68.4494 20.6768 68.6855 20.3058 68.8035 20.152C68.9216 19.9981 69.0124 19.8262 69.0124 19.7719C69.0124 19.7086 69.0578 19.6633 69.1123 19.6633C69.1577 19.6633 69.1758 19.6181 69.1486 19.5729C69.1213 19.5186 69.1395 19.4824 69.1849 19.4824C69.2394 19.4824 69.2848 19.4371 69.2848 19.3828C69.2848 19.3285 69.3847 19.1566 69.5118 18.9937C69.6389 18.8309 69.7388 18.6499 69.7388 18.5956C69.7388 18.5323 69.7842 18.487 69.8296 18.487C69.8841 18.487 69.9204 18.4508 69.9204 18.3965C69.9204 18.3513 70.0657 18.0889 70.2383 17.8084C70.4199 17.5369 70.5652 17.2836 70.5652 17.2474C70.5652 17.2021 70.665 17.0483 70.774 16.9035C71.1282 16.442 72.3722 14.4151 72.2995 14.4151C72.2632 14.4151 72.2995 14.3608 72.3904 14.2975C72.4721 14.2342 72.6809 13.9084 72.8625 13.5827C73.0532 13.2569 73.253 12.9312 73.3257 12.8769C73.3983 12.8135 73.4619 12.7321 73.4619 12.6868C73.4619 12.6416 73.6526 12.3159 73.8796 11.963C74.1066 11.601 74.3154 11.2572 74.3427 11.1938C74.379 11.0852 73.7524 11.0671 70.6287 11.0671H66.8694L66.4698 11.8091C66.2519 12.2254 65.9522 12.7864 65.8069 13.0578C65.6616 13.3293 65.4437 13.7184 65.3347 13.9175C65.2167 14.1165 65.026 14.4604 64.9079 14.6866C64.799 14.9128 64.581 15.2929 64.4358 15.5462C64.2905 15.7905 63.9999 16.3244 63.791 16.7225C62.9829 18.2337 62.8921 18.3965 62.8194 18.3965C62.7831 18.3965 62.7558 18.3694 62.7649 18.3242C62.7831 18.2156 62.6378 17.9079 62.4562 17.7088C62.3563 17.6003 62.2746 17.4555 62.2655 17.3921C62.2473 17.3198 62.0566 16.9397 61.8387 16.5416C61.6117 16.1434 61.3574 15.6729 61.2666 15.501C61.1758 15.3291 60.9851 14.9943 60.858 14.759C60.7218 14.5328 60.4312 13.9989 60.2133 13.5827C60.0044 13.1664 59.7865 12.8135 59.7411 12.8045C59.6957 12.7864 59.6594 12.6959 59.6594 12.5964C59.6594 12.5059 59.623 12.4244 59.5867 12.4244C59.5413 12.4244 59.4596 12.2797 59.3869 12.1077C59.3143 11.9358 59.2326 11.791 59.1872 11.791C59.1509 11.791 59.1236 11.7639 59.1327 11.7186C59.1418 11.6825 59.0782 11.5196 58.9965 11.3567L58.833 11.0671H55.0646H51.2961L51.4051 11.2662Z" fill="#43B02A"/>
        <path d="M75.5505 22.0343V33.0103L83.042 32.9831L90.5244 32.965L90.5517 30.0694L90.5789 27.1739H86.4291H82.2702V19.1206V11.0673H78.9104H75.5505V22.0343Z" fill="#43B02A"/>
        <path d="M93.1667 22.0613V33.0554H96.5266H99.8864V22.0613V11.0672H96.5266H93.1667V22.0613Z" fill="#43B02A"/>
        <path d="M103.401 11.1306C103.364 11.1577 103.337 16.1073 103.337 22.1247V33.0554H106.724H110.102V22.0613V11.0672H106.779C104.954 11.0672 103.428 11.0944 103.401 11.1306Z" fill="#43B02A"/>
        <path d="M138.842 22.0343V33.0103L142.202 32.9831L145.562 32.965L145.58 27.5087L145.607 22.0614L146.016 22.6315C146.243 22.9482 146.652 23.5273 146.924 23.9073C147.196 24.2964 147.514 24.7127 147.632 24.8212C147.741 24.9389 147.832 25.0656 147.832 25.1017C147.832 25.147 148.023 25.4365 148.268 25.7532C148.504 26.07 148.822 26.5043 148.967 26.7124C149.122 26.9205 149.33 27.201 149.448 27.3277C149.557 27.4544 149.648 27.5901 149.648 27.6263C149.648 27.6535 149.721 27.762 149.812 27.8616C149.902 27.9521 150.057 28.1783 150.166 28.3502C150.275 28.5312 150.465 28.7664 150.593 28.8841C150.72 29.0017 150.801 29.1374 150.774 29.1827C150.747 29.2189 150.792 29.2822 150.865 29.3094C150.947 29.3365 151.01 29.4179 151.01 29.4903C151.01 29.5537 151.074 29.6442 151.156 29.6894C151.237 29.7346 151.292 29.798 151.292 29.8342C151.283 29.8613 151.446 30.1237 151.655 30.4133C151.864 30.6938 152.164 31.11 152.318 31.3182C152.472 31.5353 152.736 31.8701 152.899 32.0601C153.053 32.2411 153.19 32.4402 153.19 32.4945C153.19 32.5488 153.244 32.6302 153.317 32.6664C153.38 32.7026 153.453 32.7931 153.471 32.8564C153.498 32.9469 154.216 32.9741 156.758 32.9922L160 33.0103V22.0343V11.0673H156.64H153.28L153.262 16.1979L153.235 21.3375L152.835 20.7494C152.608 20.4236 152.381 20.125 152.309 20.0888C152.245 20.0526 152.191 19.9712 152.191 19.9169C152.191 19.8626 152.127 19.754 152.055 19.6726C151.982 19.5911 151.782 19.3378 151.619 19.1115C151.464 18.8763 151.192 18.5143 151.028 18.2972C150.865 18.08 150.656 17.7995 150.574 17.6819C150.493 17.5642 150.275 17.2837 150.102 17.0485C149.921 16.8222 149.703 16.5146 149.612 16.3608C149.512 16.216 149.403 16.0531 149.358 15.9988C149.067 15.6369 148.758 15.2206 148.014 14.1891C147.541 13.5376 147.06 12.9132 146.951 12.7866C146.833 12.6599 146.742 12.5241 146.742 12.4699C146.742 12.4156 146.624 12.2436 146.47 12.0808C146.325 11.9179 146.198 11.755 146.198 11.7369C146.198 11.7098 146.089 11.5469 145.961 11.375L145.725 11.0673H142.284H138.842V22.0343Z" fill="#43B02A"/>
        <path d="M110.102 22.0614C110.102 28.0878 110.111 30.5581 110.12 27.563C110.139 24.5679 110.139 19.6455 110.12 16.6142C110.111 13.5919 110.102 16.035 110.102 22.0614Z" fill="#43B02A"/>
        <path d="M21.9751 14.7139C21.9751 14.732 22.1113 14.8587 22.2748 15.0125L22.5653 15.2749L22.302 14.9763C22.0477 14.7048 21.9751 14.6415 21.9751 14.7139Z" fill="#43B02A"/>
        <path d="M90.5335 30.1146V32.9649L83.0693 32.9921L75.5959 33.0102L83.1147 33.0373L90.6243 33.0554V30.1599C90.6243 28.5673 90.6062 27.2643 90.5789 27.2643C90.5517 27.2643 90.5335 28.5492 90.5335 30.1146Z" fill="#43B02A"/>
        <path d="M46.8105 32.965L43.4507 33.0102L46.7833 33.0373C48.9263 33.0464 50.134 33.0193 50.1703 32.965C50.1976 32.9107 50.2157 32.8835 50.1976 32.8926C50.1794 32.9107 48.6629 32.9378 46.8105 32.965Z" fill="#43B02A"/>
        <path d="M30.6289 33.0282C31.5733 33.0463 33.0807 33.0463 33.9888 33.0282C34.8968 33.0191 34.1341 33.0101 32.2816 33.0101C30.4383 33.0101 29.6936 33.0191 30.6289 33.0282Z" fill="#43B02A"/>
        <path d="M61.2305 33.0282C62.1749 33.0463 63.6823 33.0463 64.5903 33.0282C65.4984 33.0191 64.7356 33.0101 62.8832 33.0101C61.0398 33.0101 60.2952 33.0191 61.2305 33.0282Z" fill="#43B02A"/>
        <path d="M140.595 33.0282C141.539 33.0463 143.047 33.0463 143.955 33.0282C144.863 33.0191 144.1 33.0101 142.247 33.0101C140.404 33.0101 139.659 33.0191 140.595 33.0282Z" fill="#43B02A"/>
        <path d="M155.16 33.0282C156.014 33.0463 157.448 33.0463 158.338 33.0282C159.228 33.0191 158.529 33.0101 156.776 33.0101C155.033 33.001 154.297 33.0191 155.16 33.0282Z" fill="#43B02A"/>
    </g>
    <defs>
        <clipPath id="clip0_38_205">
            <rect width="160" height="29.589" fill="white" transform="translate(0 6)"/>
        </clipPath>
    </defs>
</svg>
