<svg width="114" height="40" viewBox="0 0 114 40" fill="none" xmlns="http://www.w3.org/2000/svg">
<path d="M91.3513 21.4057V38.5508L113.045 2.81274L91.3513 21.4057Z" fill="#CD232D"/>
<path d="M91.3279 21.4094V38.578L100.384 14.3177L107.41 12.0996L113.068 2.78589L91.3279 21.4094Z" fill="#244479"/>
<path d="M0.620361 38.6918L1.01566 37.6267H5.84389L18.9215 2.36086H14.0933L14.4894 1.29419H30.0486L29.6525 2.36086H24.8251L11.7466 37.6267H16.5749L16.1796 38.6918H0.620361Z" fill="#244479"/>
<path d="M80.1192 39.4416C80.3105 38.6408 79.6251 37.7302 78.1223 37.7302C76.4619 37.7302 72.9458 39.5467 68.4368 39.5467C58.6666 39.5467 55.1851 30.571 59.1074 19.9937C63.0313 9.41411 73.1702 0.439209 82.9396 0.439209C86.4243 0.439209 88.0847 2.04313 90.8745 2.04313C91.8407 2.04313 93.1051 1.23921 93.4682 0.54666H94.5427L90.1843 12.302H89.1098C91.8031 5.03529 87.1576 1.50666 82.5435 1.50666C80.1827 1.50666 77.8768 1.93568 75.4196 3.6447C72.2039 5.94195 68.5788 11.2322 65.3302 19.9945C62.08 28.7569 61.7811 34.0471 63.2933 36.3435C64.4823 38.0525 66.4698 38.4816 68.8313 38.4816C75.7553 38.4816 82.2792 33.618 84.8549 26.6729H85.927L81.1913 39.4416H80.1192Z" fill="#244479"/>
<path d="M39.3772 38.6918L39.7725 37.6267H44.709L44.7404 26.8314H32.1835L24.2102 37.6267H29.1466L28.7514 38.6918H18.1294L18.5239 37.6267H23.0847L50.4902 0.331055H51.2431L52.1027 37.6267H55.5467L55.1514 38.6918H39.3772ZM44.9733 9.41419L32.9576 25.7609H44.8141L44.9733 9.41419Z" fill="#244479"/>
<path d="M10.2422 25.76H31.8054L31.0195 26.8306H9.84692L10.2422 25.76ZM63.4712 25.76L63.3434 26.2541L63.203 26.8306H44.7426L44.8171 25.76H63.4712Z" fill="#CD232D"/>
</svg>
