<?xml version="1.0" encoding="UTF-8"?>
<svg width="512px" height="512px" viewBox="0 0 512 512" version="1.1" xmlns="http://www.w3.org/2000/svg" xmlns:xlink="http://www.w3.org/1999/xlink">
    <!-- Generator: Sketch 49 (51002) - http://www.bohemiancoding.com/sketch -->
    <title>IBEX35</title>
    <desc>Created with Sketch.</desc>
    <defs>
        <polygon id="path-1" points="0 361 583.951846 361 583.951846 0.76475 0 0.76475"></polygon>
    </defs>
    <g id="IBEX35" stroke="none" stroke-width="1" fill="none" fill-rule="evenodd">
        <g id="Page-1" transform="translate(-38.000000, 66.000000)">
            <polygon id="Fill-1" fill="#194264" points="269 74.262 319 74.262 319 65 269 65"></polygon>
            <g id="Group-150">
                <path d="M194.8485,91.477425 C194.8485,91.477425 201.553962,98.2423 201.553962,100.708425 C201.553962,103.185862 198.3765,110.301425 196.963038,110.6408 C195.549577,111.0028 200.445808,111.0028 200.445808,111.0028 C200.445808,111.0028 207.253038,107.088675 207.253038,102.473175 C207.253038,97.178925 202.266346,92.1901125 194.8485,91.477425" id="Fill-2" fill="#194264"></path>
                <path d="M241.265446,91.477425 C241.265446,91.477425 247.970908,98.2423 247.970908,100.708425 C247.970908,103.185862 244.793446,110.301425 243.379985,110.6408 C241.966523,111.0028 246.874062,111.0028 246.874062,111.0028 C246.874062,111.0028 253.669985,107.088675 253.669985,102.473175 C253.669985,97.178925 248.671985,92.1901125 241.265446,91.477425" id="Fill-4" fill="#194264"></path>
                <path d="M392.787392,91.477425 C392.787392,91.477425 386.081931,98.2423 386.081931,100.708425 C386.081931,103.185862 389.259392,110.301425 390.672854,110.6408 C392.086315,111.0028 387.178777,111.0028 387.178777,111.0028 C387.178777,111.0028 380.371546,107.088675 380.371546,102.473175 C380.371546,97.178925 385.369546,92.1901125 392.787392,91.477425" id="Fill-6" fill="#194264"></path>
                <path d="M346.3761,91.477425 C346.3761,91.477425 339.659331,98.2423 339.659331,100.708425 C339.659331,103.185862 342.836792,110.301425 344.238946,110.6408 C345.675023,111.0028 340.756177,111.0028 340.756177,111.0028 C340.756177,111.0028 333.948946,107.088675 333.948946,102.473175 C333.948946,97.178925 338.958254,92.1901125 346.3761,91.477425" id="Fill-8" fill="#194264"></path>
                <polygon id="Fill-10" fill="#194264" points="178.863946 176.056462 177.654023 313.525963 168.325177 313.525963 171.1521 176.056462"></polygon>
                <polygon id="Fill-12" fill="#194264" points="235.871677 176.056462 234.650446 313.525963 225.332908 313.525963 228.159831 176.056462"></polygon>
                <polygon id="Fill-14" fill="#194264" points="292.885062 176.056462 291.663831 313.525963 282.346292 313.525963 285.184523 176.056462"></polygon>
                <polygon id="Fill-16" fill="#194264" points="349.887138 176.056462 348.665908 313.525963 339.348369 313.525963 342.1866 176.056462"></polygon>
                <polygon id="Fill-18" fill="#194264" points="406.900523 176.056462 405.679292 313.525963 396.373062 313.525963 399.188677 176.056462"></polygon>
                <mask id="mask-2" fill="white">
                    <use xlink:href="#path-1"></use>
                </mask>
                <g id="Clip-21"></g>
                <polygon id="Fill-20" fill="#194264" mask="url(#mask-2)" points="65.0192308 335.773125 73.5 335.773125 73.5 287.762875 65.0192308 287.762875"></polygon>
                <path d="M40.8354692,256.093531 C43.8433154,254.328781 47.0207769,256.172719 47.0207769,256.172719 C53.0138538,257.518906 51.9848538,273.639219 51.9848538,273.639219 L61.7320846,273.639219 C61.7320846,273.639219 62.7384692,250.097906 49.8137769,250.199719 C41.5591615,250.244969 35.8261615,258.910344 35.7243923,259.261031 C35.3173154,260.923969 38.9018538,257.258719 40.8354692,256.093531" id="Fill-22" fill="#194264" mask="url(#mask-2)"></path>
                <path d="M89.0265923,256.093531 C92.0344385,254.328781 95.2005923,256.172719 95.2005923,256.172719 C101.216285,257.518906 100.175977,273.639219 100.175977,273.639219 L109.923208,273.639219 C109.923208,273.639219 110.918285,250.097906 97.9935923,250.199719 C89.7276692,250.244969 84.0059769,258.910344 83.9155154,259.261031 C83.4971308,260.923969 87.0816692,257.258719 89.0265923,256.093531" id="Fill-23" fill="#194264" mask="url(#mask-2)"></path>
                <path d="M138.414069,256.093531 C141.421915,254.328781 144.588069,256.172719 144.588069,256.172719 C150.592454,257.518906 149.552146,273.639219 149.552146,273.639219 L159.299377,273.639219 C159.299377,273.639219 160.294454,250.097906 147.381069,250.199719 C139.126454,250.244969 133.393454,258.910344 133.291685,259.261031 C132.884608,260.923969 136.469146,257.258719 138.414069,256.093531" id="Fill-24" fill="#194264" mask="url(#mask-2)"></path>
                <path d="M544.812531,256.093531 C541.804685,254.328781 538.627223,256.172719 538.627223,256.172719 C532.622838,257.518906 533.674454,273.639219 533.674454,273.639219 L523.927223,273.639219 C523.927223,273.639219 522.920838,250.097906 535.845531,250.199719 C544.111454,250.244969 549.821838,258.910344 549.923608,259.261031 C550.341992,260.923969 546.757454,257.258719 544.812531,256.093531" id="Fill-25" fill="#194264" mask="url(#mask-2)"></path>
                <path d="M496.622538,256.093531 C493.626,254.328781 490.437231,256.172719 490.437231,256.172719 C484.444154,257.518906 485.495769,273.639219 485.495769,273.639219 L475.737231,273.639219 C475.737231,273.639219 474.742154,250.097906 487.666846,250.199719 C495.921462,250.244969 501.654462,258.910344 501.744923,259.261031 C502.140692,260.923969 498.567462,257.258719 496.622538,256.093531" id="Fill-26" fill="#194264" mask="url(#mask-2)"></path>
                <path d="M447.249762,256.093531 C444.241915,254.328781 441.064454,256.172719 441.064454,256.172719 C435.060069,257.518906 436.100377,273.639219 436.100377,273.639219 L426.353146,273.639219 C426.353146,273.639219 425.346762,250.097906 438.260146,250.199719 C446.526069,250.244969 452.259069,258.910344 452.349531,259.261031 C452.767915,260.923969 449.194685,257.258719 447.249762,256.093531" id="Fill-27" fill="#194264" mask="url(#mask-2)"></path>
                <polygon id="Fill-28" fill="#194264" mask="url(#mask-2)" points="114.852231 335.773125 123.333 335.773125 123.333 287.762875 114.852231 287.762875"></polygon>
                <path d="M62.0328692,219.4942 L75.0480231,219.652575 C75.0480231,219.652575 75.4890231,208.396637 73.1483308,199.425825 C71.6783308,193.803512 67.6188692,191.473137 63.2427923,190.341887 C58.4935615,189.097512 52.8510231,192.717512 52.8510231,192.717512 C52.8510231,192.717512 52.6587923,193.328387 55.1351769,192.446012 C55.1351769,192.446012 58.7197154,189.346387 61.0151769,197.118075 C62.8470231,203.328637 62.0328692,219.4942 62.0328692,219.4942" id="Fill-29" fill="#194264" mask="url(#mask-2)"></path>
                <path d="M101.747746,219.4942 L114.751592,219.652575 C114.751592,219.652575 115.2039,208.396637 112.863208,199.425825 C111.393208,193.803512 107.333746,191.473137 102.957669,190.341887 C98.2084385,189.097512 92.5659,192.717512 92.5659,192.717512 C92.5659,192.717512 92.3623615,193.328387 94.8387462,192.446012 C94.8387462,192.446012 98.4459,189.346387 100.718746,197.118075 C102.5619,203.328637 101.747746,219.4942 101.747746,219.4942" id="Fill-30" fill="#194264" mask="url(#mask-2)"></path>
                <path d="M141.456969,219.4942 L154.472123,219.652575 C154.472123,219.652575 154.913123,208.396637 152.561123,199.425825 C151.102431,193.803512 147.042969,191.473137 142.666892,190.341887 C137.917662,189.097512 132.275123,192.717512 132.275123,192.717512 C132.275123,192.717512 132.082892,193.328387 134.547969,192.446012 C134.547969,192.446012 138.143815,189.346387 140.439277,197.118075 C142.271123,203.328637 141.456969,219.4942 141.456969,219.4942" id="Fill-31" fill="#194264" mask="url(#mask-2)"></path>
                <path d="M525.035377,219.4942 L512.031531,219.652575 C512.031531,219.652575 511.590531,208.396637 513.931223,199.425825 C515.378608,193.803512 519.460685,191.473137 523.825454,190.341887 C528.574685,189.097512 534.217223,192.717512 534.217223,192.717512 C534.217223,192.717512 534.409454,193.328387 531.933069,192.446012 C531.933069,192.446012 528.348531,189.346387 526.053069,197.118075 C524.232531,203.328637 525.035377,219.4942 525.035377,219.4942" id="Fill-32" fill="#194264" mask="url(#mask-2)"></path>
                <path d="M485.314846,219.4942 L472.311,219.652575 C472.311,219.652575 471.858692,208.396637 474.210692,199.425825 C475.669385,193.803512 479.728846,191.473137 484.104923,190.341887 C488.865462,189.097512 494.508,192.717512 494.508,192.717512 C494.508,192.717512 494.700231,193.328387 492.223846,192.446012 C492.223846,192.446012 488.639308,189.346387 486.343846,197.118075 C484.523308,203.328637 485.314846,219.4942 485.314846,219.4942" id="Fill-33" fill="#194264" mask="url(#mask-2)"></path>
                <path d="M445.604492,219.4942 L432.600646,219.652575 C432.600646,219.652575 432.159646,208.396637 434.500338,199.425825 C435.959031,193.803512 440.041108,191.473137 444.405877,190.341887 C449.1438,189.097512 454.786338,192.717512 454.786338,192.717512 C454.786338,192.717512 454.989877,193.328387 452.5248,192.446012 C452.5248,192.446012 448.917646,189.346387 446.633492,197.118075 C444.801646,203.328637 445.604492,219.4942 445.604492,219.4942" id="Fill-34" fill="#194264" mask="url(#mask-2)"></path>
                <polygon id="Fill-35" fill="#194264" mask="url(#mask-2)" points="50.1722308 149.037688 71.1706154 149.037688 71.1706154 135.88125 50.1722308 135.88125"></polygon>
                <polygon id="Fill-36" fill="#194264" mask="url(#mask-2)" points="94.4644615 149.037688 115.474154 149.037688 115.474154 135.88125 94.4644615 135.88125"></polygon>
                <polygon id="Fill-37" fill="#194264" mask="url(#mask-2)" points="512.634231 335.773125 521.092385 335.773125 521.092385 287.762875 512.634231 287.762875"></polygon>
                <polygon id="Fill-38" fill="#194264" mask="url(#mask-2)" points="462.789923 335.773125 471.270692 335.773125 471.270692 287.762875 462.789923 287.762875"></polygon>
                <polygon id="Fill-39" fill="#194264" mask="url(#mask-2)" points="514.941 149.037688 535.939385 149.037688 535.939385 135.88125 514.941 135.88125"></polygon>
                <polygon id="Fill-40" fill="#194264" mask="url(#mask-2)" points="470.648769 149.037688 491.647154 149.037688 491.647154 135.88125 470.648769 135.88125"></polygon>
                <polygon id="Fill-41" fill="#194264" mask="url(#mask-2)" points="171.119308 109.54575 185.943692 109.54575 185.943692 94.70375 171.119308 94.70375"></polygon>
                <polygon id="Fill-42" fill="#194264" mask="url(#mask-2)" points="217.526077 109.54575 232.361769 109.54575 232.361769 94.70375 217.526077 94.70375"></polygon>
                <polygon id="Fill-43" fill="#194264" mask="url(#mask-2)" points="262.349769 109.54575 277.174154 109.54575 277.174154 94.70375 262.349769 94.70375"></polygon>
                <polygon id="Fill-44" fill="#194264" mask="url(#mask-2)" points="402.486 109.54575 417.321692 109.54575 417.321692 94.70375 402.486 94.70375"></polygon>
                <polygon id="Fill-45" fill="#194264" mask="url(#mask-2)" points="356.067923 109.54575 370.903615 109.54575 370.903615 94.70375 356.067923 94.70375"></polygon>
                <polygon id="Fill-46" fill="#194264" mask="url(#mask-2)" points="309.649846 109.54575 324.485538 109.54575 324.485538 94.70375 309.649846 94.70375"></polygon>
                <path d="M293.547692,47.5860563 C300.400154,47.5860563 305.160692,50.0521813 305.160692,54.0681188 C305.160692,58.1066813 300.400154,60.9687438 293.547692,60.9687438 C286.706538,60.9687438 281.957308,58.1066813 281.957308,54.0681188 C281.957308,50.0521813 286.706538,47.5860563 293.547692,47.5860563 L293.547692,42.5972438 C283.913538,42.5972438 276.088615,47.0769938 276.088615,52.5748688 C276.088615,58.1066813 283.913538,62.5864313 293.547692,62.5864313 C303.204462,62.5864313 311.029385,58.1066813 311.029385,52.5748688 C311.029385,47.0769938 303.204462,42.5972438 293.547692,42.5972438 L293.547692,47.5860563 Z" id="Fill-47" fill="#194264" mask="url(#mask-2)"></path>
                <path d="M293.509246,1.88355625 L293.509246,28.2529937" id="Fill-48" fill="#194264" mask="url(#mask-2)"></path>
                <path d="M282.824608,36.7928 L303.890838,36.7928" id="Fill-49" fill="#194264" mask="url(#mask-2)"></path>
                <path d="M293.371292,92.6923875 C298.765062,92.6923875 303.118523,97.0590125 303.118523,102.443763 C303.118523,107.86245 298.765062,112.217763 293.371292,112.217763 C287.977523,112.217763 283.612754,107.86245 283.612754,102.443763 C283.612754,97.0590125 286.778908,92.6923875 293.371292,92.6923875 L293.371292,95.3168875 C288.226292,95.3168875 286.247446,98.518325 286.247446,102.443763 C286.247446,106.391825 289.424908,109.58195 293.371292,109.58195 C297.306369,109.58195 300.495138,106.391825 300.495138,102.443763 C300.495138,98.518325 297.306369,95.3168875 293.371292,95.3168875 L293.371292,92.6923875 Z" id="Fill-50" fill="#194264" mask="url(#mask-2)"></path>
                <polygon id="Fill-51" fill="#194264" mask="url(#mask-2)" points="96.4546154 361 488.266154 361 488.266154 355.332438 96.4546154 355.332438"></polygon>
                <polygon id="Fill-52" fill="#194264" mask="url(#mask-2)" points="121.863 350.377563 461.489538 350.377563 461.489538 344.743938 121.863 344.743938"></polygon>
                <polygon id="Fill-53" fill="#194264" mask="url(#mask-2)" points="135.986308 339.992687 446.846077 339.992687 446.846077 334.325125 135.986308 334.325125"></polygon>
                <polygon id="Fill-54" fill="#194264" mask="url(#mask-2)" points="467.980154 345.445312 583.951846 345.445312 583.951846 341.203125 467.980154 341.203125"></polygon>
                <polygon id="Fill-55" fill="#194264" mask="url(#mask-2)" points="454.919769 284.007125 489.702231 284.007125 489.702231 278.339562 454.919769 278.339562"></polygon>
                <polygon id="Fill-56" fill="#194264" mask="url(#mask-2)" points="504.865846 284.007125 539.659615 284.007125 539.659615 278.339562 504.865846 278.339562"></polygon>
                <polygon id="Fill-57" fill="#194264" mask="url(#mask-2)" points="476.913231 335.9315 479.728846 335.9315 479.728846 287.64975 476.913231 287.64975"></polygon>
                <polygon id="Fill-58" fill="#194264" mask="url(#mask-2)" points="526.814077 335.9315 529.641 335.9315 529.641 287.64975 526.814077 287.64975"></polygon>
                <polygon id="Fill-59" fill="#194264" mask="url(#mask-2)" points="429.850615 226.9695 547.575 226.9695 547.575 225.012437 429.850615 225.012437"></polygon>
                <polygon id="Fill-60" fill="#194264" mask="url(#mask-2)" points="557.941892 238.749206 557.941892 235.740081 429.848354 235.626956 429.848354 238.613456"></polygon>
                <polygon id="Fill-61" fill="#194264" mask="url(#mask-2)" points="429.850615 236.132625 431.614615 236.132625 431.614615 226.437813 429.850615 226.437813"></polygon>
                <polygon id="Fill-62" fill="#194264" mask="url(#mask-2)" points="440.615538 236.132625 442.390846 236.132625 442.390846 226.437813 440.615538 226.437813"></polygon>
                <polygon id="Fill-63" fill="#194264" mask="url(#mask-2)" points="451.380462 236.132625 453.144462 236.132625 453.144462 226.437813 451.380462 226.437813"></polygon>
                <polygon id="Fill-64" fill="#194264" mask="url(#mask-2)" points="462.156692 236.132625 463.909385 236.132625 463.909385 226.437813 462.156692 226.437813"></polygon>
                <polygon id="Fill-65" fill="#194264" mask="url(#mask-2)" points="472.910308 236.132625 474.674308 236.132625 474.674308 226.437813 472.910308 226.437813"></polygon>
                <polygon id="Fill-66" fill="#194264" mask="url(#mask-2)" points="483.686538 236.132625 485.450538 236.132625 485.450538 226.437813 483.686538 226.437813"></polygon>
                <polygon id="Fill-67" fill="#194264" mask="url(#mask-2)" points="494.462769 236.132625 496.226769 236.132625 496.226769 226.437813 494.462769 226.437813"></polygon>
                <polygon id="Fill-68" fill="#194264" mask="url(#mask-2)" points="505.216385 236.132625 506.980385 236.132625 506.980385 226.437813 505.216385 226.437813"></polygon>
                <polygon id="Fill-69" fill="#194264" mask="url(#mask-2)" points="516.003923 236.132625 517.745308 236.132625 517.745308 226.437813 516.003923 226.437813"></polygon>
                <polygon id="Fill-70" fill="#194264" mask="url(#mask-2)" points="526.768846 236.132625 528.510231 236.132625 528.510231 226.437813 526.768846 226.437813"></polygon>
                <polygon id="Fill-71" fill="#194264" mask="url(#mask-2)" points="537.511154 236.132625 539.286462 236.132625 539.286462 226.437813 537.511154 226.437813"></polygon>
                <polygon id="Fill-72" fill="#194264" mask="url(#mask-2)" points="433.389923 177.533875 466.917231 177.533875 466.917231 170.101562 433.389923 170.101562"></polygon>
                <polygon id="Fill-73" fill="#194264" mask="url(#mask-2)" points="433.389923 161.979187 546.342462 161.979187 546.342462 156.33425 433.389923 156.33425"></polygon>
                <polygon id="Fill-74" fill="#194264" mask="url(#mask-2)" points="450.498462 124.014437 549.519923 124.014437 549.519923 118.3695 450.498462 118.3695"></polygon>
                <polygon id="Fill-75" fill="#194264" mask="url(#mask-2)" points="433.389923 184.049875 466.917231 184.049875 466.917231 180.339375 433.389923 180.339375"></polygon>
                <polygon id="Fill-76" fill="#194264" mask="url(#mask-2)" points="433.401231 151.390687 549.135462 151.390687 549.135462 148.573875 433.401231 148.573875"></polygon>
                <polygon id="Fill-77" fill="#194264" mask="url(#mask-2)" points="430.890923 103.188125 549.316385 103.188125 549.316385 100.36 430.890923 100.36"></polygon>
                <polygon id="Fill-78" fill="#194264" mask="url(#mask-2)" points="450.498462 110.247125 549.384231 110.247125 549.384231 108.493688 450.498462 108.493688"></polygon>
                <polygon id="Fill-79" fill="#194264" mask="url(#mask-2)" points="473.260846 177.533875 506.799462 177.533875 506.799462 170.101562 473.260846 170.101562"></polygon>
                <polygon id="Fill-80" fill="#194264" mask="url(#mask-2)" points="473.260846 184.049875 506.799462 184.049875 506.799462 180.339375 473.260846 180.339375"></polygon>
                <polygon id="Fill-81" fill="#194264" mask="url(#mask-2)" points="465.843 130.72275 496.916538 130.72275 496.916538 126.491875 465.843 126.491875"></polygon>
                <polygon id="Fill-82" fill="#194264" mask="url(#mask-2)" points="509.988231 130.72275 541.061769 130.72275 541.061769 126.491875 509.988231 126.491875"></polygon>
                <polygon id="Fill-83" fill="#194264" mask="url(#mask-2)" points="513.154385 177.533875 546.693 177.533875 546.693 170.101562 513.154385 170.101562"></polygon>
                <polygon id="Fill-84" fill="#194264" mask="url(#mask-2)" points="513.154385 184.049875 546.693 184.049875 546.693 180.339375 513.154385 180.339375"></polygon>
                <polygon id="Fill-85" fill="#194264" mask="url(#mask-2)" points="0 345.445312 116.378769 345.445312 116.378769 341.203125 0 341.203125"></polygon>
                <polygon id="Fill-86" fill="#194264" mask="url(#mask-2)" points="95.8553077 284.007125 130.649077 284.007125 130.649077 278.339562 95.8553077 278.339562"></polygon>
                <polygon id="Fill-87" fill="#194264" mask="url(#mask-2)" points="45.9092308 284.007125 80.6916923 284.007125 80.6916923 278.339562 45.9092308 278.339562"></polygon>
                <polygon id="Fill-88" fill="#194264" mask="url(#mask-2)" points="105.817385 335.9315 108.644308 335.9315 108.644308 287.64975 105.817385 287.64975"></polygon>
                <polygon id="Fill-89" fill="#194264" mask="url(#mask-2)" points="55.9278462 335.9315 58.7547692 335.9315 58.7547692 287.64975 55.9278462 287.64975"></polygon>
                <polygon id="Fill-90" fill="#194264" mask="url(#mask-2)" points="37.9938462 226.9695 155.718231 226.9695 155.718231 225.012437 37.9938462 225.012437"></polygon>
                <polygon id="Fill-91" fill="#194264" mask="url(#mask-2)" points="27.6235615 238.749206 27.6235615 235.740081 155.7171 235.626956 155.7171 238.613456"></polygon>
                <polygon id="Fill-92" fill="#194264" mask="url(#mask-2)" points="153.942923 236.132625 155.706923 236.132625 155.706923 226.437813 153.942923 226.437813"></polygon>
                <polygon id="Fill-93" fill="#194264" mask="url(#mask-2)" points="143.178 236.132625 144.953308 236.132625 144.953308 226.437813 143.178 226.437813"></polygon>
                <polygon id="Fill-94" fill="#194264" mask="url(#mask-2)" points="132.413077 236.132625 134.177077 236.132625 134.177077 226.437813 132.413077 226.437813"></polygon>
                <polygon id="Fill-95" fill="#194264" mask="url(#mask-2)" points="121.648154 236.132625 123.412154 236.132625 123.412154 226.437813 121.648154 226.437813"></polygon>
                <polygon id="Fill-96" fill="#194264" mask="url(#mask-2)" points="110.883231 236.132625 112.647231 236.132625 112.647231 226.437813 110.883231 226.437813"></polygon>
                <polygon id="Fill-97" fill="#194264" mask="url(#mask-2)" points="100.107 236.132625 101.882308 236.132625 101.882308 226.437813 100.107 226.437813"></polygon>
                <polygon id="Fill-98" fill="#194264" mask="url(#mask-2)" points="89.3533846 236.132625 91.1173846 236.132625 91.1173846 226.437813 89.3533846 226.437813"></polygon>
                <polygon id="Fill-99" fill="#194264" mask="url(#mask-2)" points="78.5771538 236.132625 80.3411538 236.132625 80.3411538 226.437813 78.5771538 226.437813"></polygon>
                <polygon id="Fill-100" fill="#194264" mask="url(#mask-2)" points="67.8122308 236.132625 69.5762308 236.132625 69.5762308 226.437813 67.8122308 226.437813"></polygon>
                <polygon id="Fill-101" fill="#194264" mask="url(#mask-2)" points="57.0473077 236.132625 58.8113077 236.132625 58.8113077 226.437813 57.0473077 226.437813"></polygon>
                <polygon id="Fill-102" fill="#194264" mask="url(#mask-2)" points="46.2823846 236.132625 48.0576923 236.132625 48.0576923 226.437813 46.2823846 226.437813"></polygon>
                <polygon id="Fill-103" fill="#194264" mask="url(#mask-2)" points="118.651615 177.533875 152.178923 177.533875 152.178923 170.101562 118.651615 170.101562"></polygon>
                <polygon id="Fill-104" fill="#194264" mask="url(#mask-2)" points="39.2263846 161.979187 152.178923 161.979187 152.178923 156.33425 39.2263846 156.33425"></polygon>
                <polygon id="Fill-105" fill="#194264" mask="url(#mask-2)" points="36.0489231 124.014437 135.059077 124.014437 135.059077 118.3695 36.0489231 118.3695"></polygon>
                <polygon id="Fill-106" fill="#194264" mask="url(#mask-2)" points="118.651615 184.049875 152.178923 184.049875 152.178923 180.339375 118.651615 180.339375"></polygon>
                <polygon id="Fill-107" fill="#194264" mask="url(#mask-2)" points="36.4333846 151.390687 152.178923 151.390687 152.178923 148.573875 36.4333846 148.573875"></polygon>
                <polygon id="Fill-108" fill="#194264" mask="url(#mask-2)" points="36.2411538 103.188125 154.655308 103.188125 154.655308 100.36 36.2411538 100.36"></polygon>
                <polygon id="Fill-109" fill="#194264" mask="url(#mask-2)" points="36.1733077 110.247125 135.059077 110.247125 135.059077 108.493688 36.1733077 108.493688"></polygon>
                <polygon id="Fill-110" fill="#194264" mask="url(#mask-2)" points="78.7580769 177.533875 112.285385 177.533875 112.285385 170.101562 78.7580769 170.101562"></polygon>
                <polygon id="Fill-111" fill="#194264" mask="url(#mask-2)" points="78.7580769 184.049875 112.285385 184.049875 112.285385 180.339375 78.7580769 180.339375"></polygon>
                <polygon id="Fill-112" fill="#194264" mask="url(#mask-2)" points="88.641 130.72275 119.714538 130.72275 119.714538 126.491875 88.641 126.491875"></polygon>
                <polygon id="Fill-113" fill="#194264" mask="url(#mask-2)" points="44.5183846 130.72275 75.5806154 130.72275 75.5806154 126.491875 44.5183846 126.491875"></polygon>
                <polygon id="Fill-114" fill="#194264" mask="url(#mask-2)" points="38.8758462 177.533875 72.4144615 177.533875 72.4144615 170.101562 38.8758462 170.101562"></polygon>
                <polygon id="Fill-115" fill="#194264" mask="url(#mask-2)" points="38.8758462 184.049875 72.4144615 184.049875 72.4144615 180.339375 38.8758462 180.339375"></polygon>
                <polygon id="Fill-116" fill="#194264" mask="url(#mask-2)" points="162.095769 330.976625 194.220923 330.976625 194.220923 325.139375 162.095769 325.139375"></polygon>
                <polygon id="Fill-117" fill="#194264" mask="url(#mask-2)" points="167.218154 321.621188 189.516923 321.621188 189.516923 317.209313 167.218154 317.209313"></polygon>
                <polygon id="Fill-118" fill="#194264" mask="url(#mask-2)" points="219.335308 330.976625 251.460462 330.976625 251.460462 325.139375 219.335308 325.139375"></polygon>
                <polygon id="Fill-119" fill="#194264" mask="url(#mask-2)" points="224.457692 321.621188 246.745154 321.621188 246.745154 317.209313 224.457692 317.209313"></polygon>
                <polygon id="Fill-120" fill="#194264" mask="url(#mask-2)" points="276.167769 330.976625 308.292923 330.976625 308.292923 325.139375 276.167769 325.139375"></polygon>
                <polygon id="Fill-121" fill="#194264" mask="url(#mask-2)" points="281.290154 321.621188 303.566308 321.621188 303.566308 317.209313 281.290154 317.209313"></polygon>
                <polygon id="Fill-122" fill="#194264" mask="url(#mask-2)" points="333.169846 330.976625 365.295 330.976625 365.295 325.139375 333.169846 325.139375"></polygon>
                <polygon id="Fill-123" fill="#194264" mask="url(#mask-2)" points="338.292231 321.621188 360.579692 321.621188 360.579692 317.209313 338.292231 317.209313"></polygon>
                <polygon id="Fill-124" fill="#194264" mask="url(#mask-2)" points="390.183231 330.976625 422.319692 330.976625 422.319692 325.139375 390.183231 325.139375"></polygon>
                <polygon id="Fill-125" fill="#194264" mask="url(#mask-2)" points="395.305615 321.621188 417.593077 321.621188 417.593077 317.209313 395.305615 317.209313"></polygon>
                <polygon id="Fill-126" fill="#194264" mask="url(#mask-2)" points="399.184154 171.526937 413.748462 171.526937 413.748462 165.870687 399.184154 165.870687"></polygon>
                <polygon id="Fill-127" fill="#194264" mask="url(#mask-2)" points="395.305615 163.57425 417.287769 163.57425 417.287769 159.694062 395.305615 159.694062"></polygon>
                <polygon id="Fill-128" fill="#194264" mask="url(#mask-2)" points="342.182077 171.526937 356.746385 171.526937 356.746385 165.870687 342.182077 165.870687"></polygon>
                <polygon id="Fill-129" fill="#194264" mask="url(#mask-2)" points="338.292231 163.57425 360.274385 163.57425 360.274385 159.694062 338.292231 159.694062"></polygon>
                <polygon id="Fill-130" fill="#194264" mask="url(#mask-2)" points="285.18 171.526937 299.733 171.526937 299.733 165.870687 285.18 165.870687"></polygon>
                <polygon id="Fill-131" fill="#194264" mask="url(#mask-2)" points="281.278846 163.57425 303.261 163.57425 303.261 159.694062 281.278846 159.694062"></polygon>
                <polygon id="Fill-132" fill="#194264" mask="url(#mask-2)" points="228.155308 171.526937 242.730923 171.526937 242.730923 165.870687 228.155308 165.870687"></polygon>
                <polygon id="Fill-133" fill="#194264" mask="url(#mask-2)" points="224.276769 163.57425 246.258923 163.57425 246.258923 159.694062 224.276769 159.694062"></polygon>
                <polygon id="Fill-134" fill="#194264" mask="url(#mask-2)" points="171.130615 171.526937 185.717538 171.526937 185.717538 165.870687 171.130615 165.870687"></polygon>
                <polygon id="Fill-135" fill="#194264" mask="url(#mask-2)" points="167.274692 163.57425 189.245538 163.57425 189.245538 159.694062 167.274692 159.694062"></polygon>
                <polygon id="Fill-136" fill="#194264" mask="url(#mask-2)" points="163.509231 156.15325 421.550769 156.15325 421.550769 153.155437 163.509231 153.155437"></polygon>
                <polygon id="Fill-137" fill="#194264" mask="url(#mask-2)" points="163.509231 147.680188 421.550769 147.680188 421.550769 144.671063 163.509231 144.671063"></polygon>
                <polygon id="Fill-138" fill="#194264" mask="url(#mask-2)" points="157.866692 139.9085 426.842769 139.9085 426.842769 134.25225 157.866692 134.25225"></polygon>
                <polygon id="Fill-139" fill="#194264" mask="url(#mask-2)" points="152.563385 130.032688 434.792077 130.032688 434.792077 124.376438 152.563385 124.376438"></polygon>
                <polygon id="Fill-140" fill="#194264" mask="url(#mask-2)" points="141.097385 120.13425 443.250231 120.13425 443.250231 114.489312 141.097385 114.489312"></polygon>
                <polygon id="Fill-141" fill="#194264" mask="url(#mask-2)" points="170.915769 89.7715 418.203692 89.7715 418.203692 83.9455625 170.915769 83.9455625"></polygon>
                <polygon id="Fill-142" fill="#194264" mask="url(#mask-2)" points="163.509231 77.938625 421.550769 77.938625 421.550769 72.1126875 163.509231 72.1126875"></polygon>
                <polygon id="Fill-143" fill="#194264" mask="url(#mask-2)" points="187.162662 313.673025 184.527969 175.932025 186.280662 175.932025 189.096277 313.673025"></polygon>
                <polygon id="Fill-144" fill="#194264" mask="url(#mask-2)" points="244.170392 313.673025 241.524392 175.932025 243.288392 175.932025 246.115315 313.673025"></polygon>
                <polygon id="Fill-145" fill="#194264" mask="url(#mask-2)" points="301.178123 313.673025 298.532123 175.932025 300.307431 175.932025 303.123046 313.673025"></polygon>
                <polygon id="Fill-146" fill="#194264" mask="url(#mask-2)" points="358.1802 313.673025 355.545508 175.932025 357.320815 175.932025 360.136431 313.673025"></polygon>
                <polygon id="Fill-147" fill="#194264" mask="url(#mask-2)" points="415.204892 313.673025 412.558892 175.932025 414.311585 175.932025 417.138508 313.673025"></polygon>
                <polygon id="Fill-148" fill="#194264" mask="url(#mask-2)" points="292.710923 29.0120625 294.474923 29.0120625 294.474923 0.76475 292.710923 0.76475"></polygon>
                <polygon id="Fill-149" fill="#194264" mask="url(#mask-2)" points="282.828 39.6231875 304.007308 39.6231875 304.007308 33.97825 282.828 33.97825"></polygon>
            </g>
        </g>
    </g>
</svg>