<?xml version="1.0" encoding="UTF-8"?>
<svg width="512px" height="512px" viewBox="0 0 512 512" version="1.1" xmlns="http://www.w3.org/2000/svg" xmlns:xlink="http://www.w3.org/1999/xlink">
    <!-- Generator: Sketch 48.1 (47250) - http://www.bohemiancoding.com/sketch -->
    <title>#IBM</title>
    <desc>Created with Sketch.</desc>
    <defs></defs>
    <g id="Компании-BIG" stroke="none" stroke-width="1" fill="none" fill-rule="evenodd">
        <g id="#IBM" fill="#1F70C1" fill-rule="nonzero">
            <g id="ibm" transform="translate(1.000000, 154.000000)">
                <path d="M0,0 L0,14.011904 L99.659776,14.011904 L99.659776,0 L0,0 Z M113.779712,0 L113.779712,14.011904 L255.799808,14.011904 C255.799808,14.011904 241.293312,0 222.08,0 L113.779712,0 Z M283.659776,0 L283.659776,14.011904 L369.57952,14.011904 L364.48,0 L283.659776,0 Z M431.179776,0 L426.079744,14.011904 L511.219712,14.011904 L511.219712,0 L431.179776,0 Z M0,27.249664 L0,41.261568 L99.659776,41.261568 L99.659776,27.249664 L0,27.249664 Z M113.779712,27.269632 L113.779712,41.26208 L272.279552,41.26208 C272.279552,41.26208 270.428672,30.477824 267.199488,27.269632 L113.779712,27.269632 Z M283.659776,27.269632 L283.659776,41.26208 L378.999808,41.26208 L374.27968,27.269632 L283.659776,27.269632 Z M420.979712,27.269632 L416.259584,41.26208 L511.219712,41.26208 L511.219712,27.269632 L420.979712,27.269632 Z M28.639744,54.499328 L28.639744,68.5312 L71.799808,68.5312 L71.799808,54.499328 L28.639744,54.499328 Z M142.419968,54.499328 L142.419968,68.5312 L185.580032,68.5312 L185.580032,54.499328 L142.419968,54.499328 Z M227.559936,54.499328 L227.559936,68.5312 L270.72,68.5312 C270.72,68.5312 273.460224,61.121024 273.460224,54.499328 L227.559936,54.499328 Z M312.300032,54.499328 L312.300032,68.5312 L388.819968,68.5312 L383.719936,54.499328 L312.300032,54.499328 Z M411.579904,54.499328 L406.459904,68.5312 L483.359744,68.5312 L483.359744,54.499328 L411.579904,54.499328 Z M28.639744,81.769472 L28.639744,95.781376 L71.799808,95.781376 L71.799808,81.769472 L28.639744,81.769472 Z M142.419968,81.769472 L142.419968,95.781376 L252.659712,95.781376 C252.659712,95.781376 261.881856,88.591872 264.819712,81.769472 L142.419968,81.769472 Z M312.300032,81.769472 L312.300032,95.781376 L355.460096,95.781376 L355.460096,87.981568 L358.20032,95.781376 L437.260288,95.781376 L440.200192,87.981568 L440.200192,95.781376 L483.360256,95.781376 L483.360256,81.769472 L402.33984,81.769472 L398.040064,93.637632 L393.719808,81.769472 L312.300032,81.769472 Z M28.639744,109.019136 L28.639744,123.03104 L71.799808,123.03104 L71.799808,109.019136 L28.639744,109.019136 Z M142.419968,109.019136 L142.419968,123.03104 L264.819712,123.03104 C261.881344,116.231168 252.659712,109.019136 252.659712,109.019136 L142.419968,109.019136 Z M312.300032,109.019136 L312.300032,123.03104 L355.460096,123.03104 L355.460096,109.019136 L312.300032,109.019136 Z M363.29984,109.019136 L368.51968,123.03104 L427.799552,123.03104 L432.759808,109.019136 L363.29984,109.019136 Z M440.19968,109.019136 L440.19968,123.03104 L483.359744,123.03104 L483.359744,109.019136 L440.19968,109.019136 Z M28.639744,136.2688 L28.639744,150.280192 L71.799808,150.280192 L71.799808,136.2688 L28.639744,136.2688 Z M142.419968,136.2688 L142.419968,150.280192 L185.580032,150.280192 L185.580032,136.2688 L142.419968,136.2688 Z M227.559936,136.2688 L227.559936,150.280192 L273.459712,150.280192 C273.459712,143.667712 270.719488,136.2688 270.719488,136.2688 L227.559936,136.2688 Z M312.300032,136.2688 L312.300032,150.280192 L355.460096,150.280192 L355.460096,136.2688 L312.300032,136.2688 Z M373.100032,136.2688 L378.160128,150.280192 L417.900032,150.280192 L423.000064,136.2688 L373.100032,136.2688 Z M440.19968,136.2688 L440.19968,150.280192 L483.359744,150.280192 L483.359744,136.2688 L440.19968,136.2688 Z M0.779776,163.518464 L0.779776,177.550336 L100.439552,177.550336 L100.439552,163.518464 L0.779776,163.518464 Z M113.779712,163.518464 L113.779712,177.550336 L267.199488,177.550336 C270.428672,174.337536 272.279552,163.518464 272.279552,163.518464 L113.779712,163.518464 Z M284.440064,163.518464 L284.440064,177.550336 L355.460096,177.550336 L355.460096,163.518464 L284.440064,163.518464 Z M382.91968,163.518464 L388.119552,177.550336 L408.339456,177.550336 L413.219328,163.518464 L382.91968,163.518464 Z M440.19968,163.518464 L440.19968,177.550336 L512,177.550336 L512,163.518464 L440.19968,163.518464 Z M0.779776,190.788096 L0.779776,204.8 L100.439552,204.8 L100.439552,190.788096 L0.779776,190.788096 Z M113.779712,190.788096 L113.779712,204.780032 L222.08,204.780032 C241.293312,204.780032 255.799808,190.788096 255.799808,190.788096 L113.779712,190.788096 Z M284.440064,190.788096 L284.440064,204.8 L355.460096,204.8 L355.460096,190.788096 L284.440064,190.788096 Z M392.779776,190.788096 L397.779968,204.760576 L398.640128,204.780032 L403.720192,190.788096 L392.779776,190.788096 Z M440.19968,190.788096 L440.19968,204.8 L512,204.8 L512,190.788096 L440.19968,190.788096 Z" id="Shape"></path>
            </g>
        </g>
    </g>
</svg>