<svg width="40" height="40" viewBox="0 0 40 40" fill="none" xmlns="http://www.w3.org/2000/svg">
    <g clip-path="url(#clip0_38_226)">
        <path d="M14.5386 39.5702H16.9321V27.7378H14.5386V39.5702Z" fill="black"/>
        <path d="M25.1648 29.2028C26.3485 29.2028 27.0998 29.4911 27.5212 29.7313L27.685 29.8252L28.2485 27.9056L28.1371 27.851C27.5758 27.5671 26.4577 27.2373 25.1648 27.2373C23.2976 27.2373 21.7011 27.851 20.5502 29.0128C19.4364 30.1353 18.8206 31.734 18.8206 33.5095C18.8206 35.2872 19.3775 36.8006 20.4301 37.8904C21.4893 38.9889 22.97 39.5698 24.7127 39.5698C26.2065 39.5698 27.4688 39.1876 28.0934 38.8601L28.1939 38.8055L27.7724 36.9469L27.6064 37.019C26.9906 37.2898 26.2371 37.5803 25.0927 37.5803C22.7865 37.5803 21.2381 35.9074 21.2381 33.4156C21.2381 32.2363 21.5963 31.1771 22.2471 30.4302C22.9481 29.6265 23.9549 29.2028 25.1648 29.2028Z" fill="black"/>
        <path d="M34.4329 29.0126C35.2212 29.0126 35.8568 29.2528 36.3241 29.7289C37.0688 30.4867 37.1802 31.6223 37.1911 32.1225H31.3863C31.5763 30.8929 32.4018 29.0126 34.4329 29.0126ZM38.5189 29.2026C37.6607 27.901 36.3045 27.213 34.5988 27.213C32.9434 27.213 31.5326 27.8573 30.5215 29.0715C29.5671 30.2181 29.043 31.8189 29.043 33.5813C29.043 35.3481 29.5758 36.8441 30.587 37.9076C31.62 38.9952 33.0985 39.5696 34.8631 39.5696C36.7107 39.5696 38.0014 39.159 38.7592 38.8161L38.8706 38.7659L38.4447 36.9751L38.2831 37.0428C37.5668 37.3464 36.691 37.6281 35.1492 37.6281C34.0725 37.6281 33.1575 37.3158 32.5001 36.7261C31.7816 36.0819 31.395 35.1384 31.3448 33.922H39.4253L39.4515 33.6949C39.4777 33.4743 39.5148 33.1751 39.5148 32.7951C39.5148 32.1683 39.4165 30.5653 38.5189 29.2026Z" fill="black"/>
        <path d="M0.344727 0.345173V39.6555H8.13473V35.1872H4.813V4.81345H35.272V21.5946H39.6551V0.345173H0.344727Z" fill="#73C7E8"/>
    </g>
    <defs>
        <clipPath id="clip0_38_226">
            <rect width="40" height="40" fill="white"/>
        </clipPath>
    </defs>
</svg>
