<svg width="160" height="30" viewBox="0 0 160 30" fill="none" xmlns="http://www.w3.org/2000/svg">
<g clip-path="url(#clip0_112_5889)">
<path d="M0 0.0666504H9.28V29.9333H0V0.0666504ZM55.2533 29.9333H87.2533V22.7867H64.2133V16.7067H55.2533V29.9333ZM36.3733 22.2533H21.9733V17.1333H13.0133V29.9333H37.9733C46.9333 29.9333 52.2667 25.7733 52.2667 18.4133V17.1333H43.3067C43.0933 21.1867 40.2133 22.2533 36.3733 22.2533ZM21.9733 7.53332H36.48C40.2133 7.53332 43.0933 8.59998 43.3067 12.6533H52.2667V11.5867C52.2667 4.22665 46.9333 0.0666504 37.9733 0.0666504H12.9067V12.5467H21.8667V7.53332H21.9733ZM87.2533 6.99998V0.0666504H55.2533V12.5467H64.2133V6.99998H87.2533Z" fill="black"/>
<path d="M67.3066 12.2266H86.8266V17.5599H67.3066V12.2266Z" fill="black"/>
<path d="M148.267 17.1333H132.267L123.52 26.9467L114.667 17.1333H98.7734L87.2534 29.9333H98.9868L106.667 20.6533L114.347 29.9333H132.587L140.267 20.6533L147.947 29.9333H160L148.267 17.1333ZM123.52 3.05332L132.053 12.5467H148.48L159.68 0.0666504H147.947L140.267 9.34665L132.587 0.0666504H114.453L106.667 9.34665L98.9868 0.0666504H87.2534L98.4534 12.5467H114.987L123.52 3.05332Z" fill="black"/>
</g>
<defs>
<clipPath id="clip0_112_5889">
<rect width="160" height="29.8667" fill="white" transform="translate(0 0.0666504)"/>
</clipPath>
</defs>
</svg>
