<svg width="38" height="36" viewBox="0 0 38 36" fill="none" xmlns="http://www.w3.org/2000/svg">
    <path d="M36.9345 12.4868C36.6333 10.2131 35.8234 8.66004 35.5761 7.96893C35.305 7.4005 33.6993 4.70351 33.0384 4.12352C32.4976 3.47545 31.6709 2.56274 31.1429 2.24224C30.9272 2.10479 28.2501 1.01931 27.6495 0.823412C27.3797 0.711653 24.0405 0.0918389 23.6288 0.132304C23.3917 0.211306 22.3403 0.129092 22.3403 0.129092C22.129 0.0706433 20.1019 0.535022 19.802 0.632651C19.3678 0.750832 17.9964 0.815704 17.8674 0.815704C17.629 0.775882 16.78 0.842039 14.6218 1.74639C12.4618 2.6501 9.81494 3.96423 9.04097 4.84996C7.45129 6.66572 4.95405 8.94586 4.49995 9.4186C4.01695 9.90224 3.14535 11.3731 2.66107 12.2723C2.10804 13.3771 1.72781 14.8877 1.52099 15.442C1.2236 16.2339 0.578743 18.8051 0.542774 19.292C0.502309 19.8141 0.350729 20.7191 0.425877 21.6652C0.473406 21.7899 0.504879 22.2966 0.744455 22.3859C0.826026 22.4167 0.844653 22.3872 0.917874 22.4449C0.982104 22.5124 1.17479 23.436 1.32316 23.9396C1.42722 24.5607 1.54283 25.1747 1.53769 25.361C1.55503 25.4664 1.57558 25.5858 1.60063 25.7438C1.6822 26.1985 1.82158 27.74 2.36239 28.3111C2.4915 28.6077 3.59431 30.5456 3.9829 30.8821C4.33423 31.2155 5.34135 31.6837 5.77297 31.8989C6.20589 32.1166 7.52323 32.9291 8.17259 33.2131C8.54641 33.389 9.13089 33.7005 9.57536 33.7429C9.91771 33.7751 10.0179 33.9973 10.2652 33.9497C10.481 33.9921 10.6429 34.0339 10.6062 34.0583C10.4283 34.1745 10.4534 34.0801 10.2048 34.1854C9.79438 34.3595 8.90865 33.9433 8.82516 34.1791C8.74487 34.5496 9.16108 34.5291 9.30432 34.6544C9.74621 35.0423 13.9975 35.4707 14.4298 35.3537C14.6893 35.294 17.965 35.1939 18.2913 34.9581C18.9162 34.7802 19.4076 34.926 20.0127 34.6698C20.5958 34.454 22.5805 34.3364 23.1412 33.8618C24.1471 33.2573 25.8999 32.8469 26.3328 32.5315C26.7207 32.414 29.34 30.2598 29.9881 29.5449C30.6368 28.828 32.1938 26.6032 32.2374 26.4259C32.8207 25.8157 33.989 23.8612 34.226 23.5844C34.5259 22.4353 34.9447 22.3602 35.2896 21.6312C35.5067 20.802 36.4162 17.78 36.1554 15.9096C36.1657 15.1266 35.9885 14.5601 36.1014 14.4632C36.1014 14.4632 36.282 14.3277 36.3834 14.5197C36.4136 14.5736 36.4451 14.749 36.5215 14.7349C36.589 14.6925 36.6969 14.6186 36.8138 14.1812C37.0058 13.6493 36.9159 12.535 36.9345 12.4868Z" fill="#007DC3"/>
    <path d="M11.5716 7.25345L10.7726 7.40054L10.7347 7.43008C10.5503 7.58873 10.341 7.71976 10.1187 7.85913C9.68389 8.13147 9.23428 8.41279 8.987 8.91314L8.98058 8.92342L8.97801 8.93369C8.85854 9.28375 8.68833 9.62737 8.52134 9.96201C8.30424 10.3981 8.07944 10.8484 7.95548 11.3365L7.95163 11.3558L7.95034 11.3738C7.93557 11.9018 8.28625 12.3005 8.67035 12.6533L8.68769 12.6699L8.70889 12.6808C9.86437 13.2641 11.4374 12.8324 12.447 12.0925C12.5722 12.1689 12.704 12.2254 12.8369 12.271C13.0328 12.3385 13.2004 12.4015 13.3071 12.5492C13.2833 13.4272 12.6397 13.9718 11.955 14.5441C11.447 14.9693 10.9216 15.4093 10.682 15.9989L10.6672 16.0355L10.6698 16.0735C10.7552 17.4223 11.5151 18.5777 12.8073 19.3325C13.6995 20.0903 14.205 21.2613 14.205 22.5048C14.205 22.7359 14.1851 22.9717 14.1498 23.2061C14.0026 23.3429 13.8697 23.5009 13.742 23.659C13.492 23.9672 13.2524 24.2563 12.923 24.3668C12.4502 24.2903 12.1111 23.7707 11.8388 23.3475L11.7559 23.2202L11.7424 23.2068C11.1252 22.6101 10.4566 22.8709 9.86437 23.0988L9.43404 23.2537L9.41605 23.2613C8.66521 23.6448 8.40958 24.5048 8.1835 25.2634L8.08971 25.5742L8.09742 25.5531C7.83023 26.1259 8.08393 26.5415 8.30938 26.9083C8.46225 27.1575 8.60676 27.3932 8.59649 27.6707L8.59199 27.8068L8.72045 27.8428C9.09234 27.9462 9.43596 28.1505 9.79887 28.3689C10.4212 28.7407 11.0661 29.119 11.8638 28.9637C12.8126 29.1865 13.7355 29.0812 14.5384 28.6547C16.277 27.8075 18.7068 26.3996 19.6857 23.9858C20.1096 23.2568 20.0004 22.4039 20.0961 21.5766L20.1765 20.9426C20.1854 20.872 20.1879 20.804 20.1879 20.7352C20.1879 20.0943 20.0929 19.5656 19.7981 19.0518C19.6009 18.7113 19.4153 18.3883 19.3126 18.0357L19.3061 18.0183L19.2983 18.0022C19.0735 17.5976 18.7274 17.3702 18.3915 17.148C18.0806 16.9444 17.787 16.7504 17.595 16.4254L17.5874 16.4132L17.5783 16.4023C17.4364 16.2353 17.3812 16.0677 17.3812 15.8956C17.3812 15.6129 17.5314 15.3168 17.6945 14.9931C17.8391 14.7072 17.9868 14.4125 18.037 14.1041C18.037 14.1016 18.0735 13.9841 18.0735 13.9841C18.1853 13.6199 18.3119 13.2133 18.6131 13.0386C19.116 13.2152 19.5868 13.4696 20.0396 13.715C20.5052 13.9673 20.9703 14.0098 21.4899 14.1908L21.5099 14.1973L23.7829 14.4728L23.7694 14.4703C26.819 14.4639 28.6707 13.7702 30.6689 12.2652L30.7402 12.2113L30.7312 11.9333L30.7165 11.9018C29.9939 10.3429 28.516 9.72307 27.0875 9.12446L26.203 8.74165L26.1864 8.73715C25.0244 8.42435 23.8105 8.66522 22.6364 8.89773L21.7622 9.06279L21.752 9.06408C21.3319 9.17455 20.9137 9.31843 20.5072 9.45781C19.9754 9.64215 19.423 9.83227 18.8623 9.94274C18.1847 9.82584 17.8314 9.27604 17.4569 8.69155C17.2842 8.42307 17.1069 8.14432 16.8962 7.91887C15.5083 6.50261 13.3264 6.91818 11.5716 7.25345Z" fill="white"/>
    <path d="M10.1624 8.75698L10.1572 8.76148L10.1521 8.76726C9.27538 9.75511 8.93625 10.7442 9.14114 11.7071C9.23299 12.1156 9.66781 12.4122 10.1007 12.3666C10.7051 12.4328 11.1785 12.167 11.6339 11.9087C11.9389 11.7346 12.2287 11.5747 12.5523 11.506C12.7354 11.6165 12.9422 11.6917 13.1471 11.759C13.6591 11.9248 13.9751 12.05 14.0265 12.517L14.0277 12.5304L14.0316 12.5427C14.0708 12.6911 14.0893 12.8298 14.0893 12.9588C14.0893 13.6468 13.5601 14.0719 12.9602 14.5512C12.3719 15.0225 11.7637 15.5107 11.6428 16.3052C11.6037 16.4536 11.5851 16.5981 11.5851 16.7343C11.5851 17.5892 12.2948 18.1749 12.9333 18.6997C13.23 18.9444 13.5094 19.1756 13.7143 19.4216C14.3226 20.1693 14.8846 21.3151 14.8846 22.5021C14.8846 22.9312 14.8107 23.364 14.6399 23.7866C14.2473 24.5934 13.3963 24.8581 12.747 24.9345C12.3783 24.9107 12.1246 24.6159 11.8574 24.3057C11.702 24.1245 11.5401 23.937 11.3493 23.7938L11.3275 23.7757L11.2993 23.7674C10.6595 23.5606 9.88941 23.7397 9.38392 24.2138L9.36787 24.2293L9.35502 24.2485C8.9947 24.8369 8.81421 25.3911 8.81421 25.8818C8.81421 26.2878 8.93817 26.6507 9.18673 26.9545C9.78986 27.8666 10.8554 28.3829 12.0404 28.3354C12.246 28.3406 12.447 28.3001 12.6417 28.259C12.8793 28.2115 13.1034 28.1652 13.3179 28.2172L13.3521 28.2256L13.3874 28.2191C15.0631 27.9346 16.541 27.1427 17.7807 25.8671L17.787 25.86L17.7922 25.853C18.7242 24.6595 19.6954 23.1482 19.6954 21.4282C19.6954 20.9195 19.6099 20.3895 19.4134 19.8456C19.2078 18.8686 18.475 18.254 17.7665 17.6637C17.4639 17.4106 17.1519 17.1479 16.8923 16.8659C16.7215 16.6013 16.6502 16.3438 16.6502 16.092C16.6502 15.528 17.0015 14.9854 17.3676 14.4207C17.5057 14.2088 17.6489 13.9885 17.7653 13.7727C17.9901 13.361 18.0748 12.9217 18.0748 12.4926C18.0748 11.4302 17.5552 10.4282 17.3432 10.0666C16.5088 8.58741 14.8505 7.9342 13.9346 7.67536L13.9172 7.67022L13.8986 7.66958C12.2749 7.57966 11.0192 7.94512 10.1624 8.75698Z" fill="black"/>
    <path d="M26.426 15.1216L26.442 15.1197C25.5762 15.1845 24.8729 15.1422 23.9666 15.3425C23.6532 15.3811 23.3294 15.3881 22.9858 15.3965C22.1714 15.4158 21.3287 15.435 20.6125 15.8994L20.5785 15.9199L20.5598 15.9527C20.353 16.281 20.2728 16.593 20.2728 16.8931C20.2728 17.4165 20.5175 17.9053 20.7571 18.3812C20.9138 18.6934 21.0731 19.0158 21.1546 19.3369C21.2137 20.5541 21.3023 20.9125 21.2741 21.9414C21.2581 22.4996 20.9754 23.5626 20.933 24.1144L20.9305 24.1291L20.933 24.1439C20.9658 24.4702 20.9343 24.8672 20.9343 25.1928V25.5133C20.933 25.6167 20.933 25.7202 20.933 25.8235C20.933 26.7716 20.9169 27.6373 21.5515 28.4454L21.5368 28.4228C22.1643 29.5616 23.4765 29.9567 24.4959 29.9444H24.5119L24.5292 29.9419C26.9469 29.4313 28.2674 28.4177 28.5648 26.8384C28.5808 26.7754 28.5885 26.7118 28.5885 26.6476C28.5885 26.3669 28.4331 26.0965 28.1646 25.9115C28.0144 25.5152 27.6553 25.4047 27.3328 25.311C27.1536 25.2583 26.9867 25.2056 26.8563 25.1119C26.6353 24.7425 26.5955 24.2852 26.5955 23.8407C26.5955 23.7264 26.5981 23.6134 26.6007 23.5016C26.6007 23.5016 26.6032 23.3533 26.6032 23.3198C26.6135 23.2833 27.8512 18.2117 27.8512 18.2117L27.8537 18.2026C27.8975 17.9092 28.0304 17.6439 28.171 17.3626C28.3516 16.9984 28.5384 16.6245 28.5384 16.1724C28.5384 16.0741 28.5256 15.9688 28.5069 15.8634V15.832C28.5069 15.5288 28.171 15.4645 27.9263 15.3554L27.8852 15.3368L27.8403 15.3413C27.6347 15.3631 27.4285 15.2982 27.2115 15.2314C26.9616 15.153 26.7028 15.0734 26.426 15.1216Z" fill="white"/>
    <path d="M25.0168 15.7434C24.5151 15.8205 23.998 15.9007 23.5125 15.8262L23.472 15.8192L23.4329 15.8326C23.1431 15.9238 22.8606 15.9135 22.5625 15.9019C22.2125 15.8904 21.8503 15.8789 21.4783 16.0375L21.4295 16.0574L21.4012 16.1043C20.9131 16.8776 21.2432 17.7345 21.5342 18.4892C21.6646 18.8277 21.7879 19.1475 21.845 19.4552C22.1348 20.6813 21.9466 21.9075 21.7648 23.0931L21.6979 23.5473C21.6954 23.5536 21.6916 23.598 21.6916 23.598C21.5348 25.1369 21.3402 27.0503 22.3165 28.3226L22.3294 28.3362L22.3428 28.3496C23.2973 29.1371 24.8446 29.3002 25.9532 28.7364C27.0419 28.6059 27.8653 27.5712 28.0895 26.6488L28.1011 26.5974L28.0837 26.5487C27.8968 26.0515 27.3784 26.1035 27.0008 26.142C26.8325 26.1601 26.6732 26.1748 26.548 26.1556C26.3963 26.1228 26.336 25.9885 26.2493 25.7715C26.2153 25.6861 26.178 25.5987 26.1311 25.5197C26.0444 25.0591 26.0072 24.6012 26.0072 24.1458C26.0072 22.7437 26.3572 21.3679 26.6995 20.0255L26.9301 19.107V19.0987C26.9668 18.7859 27.142 18.4706 27.3277 18.1365C27.5447 17.7473 27.7793 17.326 27.7793 16.8867C27.7793 16.5906 27.6739 16.2854 27.3842 15.9745L27.3695 15.9579L27.3496 15.9444C26.6153 15.4974 25.8023 15.6226 25.0168 15.7434Z" fill="black"/>
    <path d="M10.5567 9.28437L10.5163 9.31071L10.4957 9.35245C10.1521 9.96841 9.84765 10.6332 10.2234 11.3789L10.2748 11.4778L10.384 11.49C10.8483 11.542 11.1945 11.287 11.5016 11.0603C11.677 10.9299 11.8439 10.806 12.027 10.7379C12.8035 10.4925 13.6205 10.7687 14.4491 11.5549C14.6058 11.8542 14.69 12.2434 14.69 12.6249C14.69 12.8646 14.6572 13.1002 14.5897 13.3077L14.5832 13.3308L14.582 13.3552C14.5178 14.1401 13.8793 14.7131 13.2634 15.268C12.9647 15.5377 12.6551 15.8166 12.4194 16.1139L12.3783 16.1666L12.3758 16.2327C12.3744 16.279 12.3731 16.3284 12.3731 16.3791C12.3731 16.6933 12.4245 17.0555 12.6853 17.3304L12.6943 17.3407L12.7045 17.349C14.2956 18.667 15.7741 20.1675 15.8255 22.2022C15.7716 23.7327 14.6199 25.2711 13.1407 25.7836C12.0295 25.7823 11.2992 25.4284 10.973 24.7289L10.9505 24.6808L10.9081 24.6487C10.7199 24.5139 10.4726 24.4784 10.2472 24.5537C10.0249 24.6268 9.85215 24.799 9.777 25.0148C9.69286 25.1825 9.65753 25.3508 9.65753 25.5132C9.65753 25.9551 9.90225 26.3521 10.0346 26.5364L10.0525 26.5589L10.075 26.5768C10.6473 27.0201 11.348 27.4703 12.2203 27.4382C13.614 27.383 14.8775 26.873 16.3226 25.7862L16.3399 25.7714L16.7928 25.2415C17.7113 24.1785 18.6567 23.0808 18.6567 21.6055C18.6567 21.5201 18.6528 21.4321 18.6465 21.3447C18.6452 21.3313 18.5777 20.7268 18.5777 20.7268C18.509 19.9952 18.4358 19.2399 17.9392 18.656L17.9207 18.6323L17.7164 18.5038C16.9687 18.0318 16.1973 17.5449 15.9539 16.7382L15.9481 16.7215L15.9417 16.708C15.8248 16.464 15.776 16.2244 15.776 15.9893C15.776 15.2455 16.2751 14.5467 16.762 13.8658L16.9135 13.6507L16.9187 13.6417C17.1081 13.3096 17.1807 12.9616 17.1807 12.6192C17.1807 11.8715 16.8346 11.1477 16.5975 10.6518C16.3656 10.1161 15.9463 9.42246 15.284 9.15719C13.8524 8.31644 11.8638 8.3691 10.5567 9.28437Z" fill="#EE3424"/>
    <path d="M24.7424 16.5673C24.3487 16.6039 23.9737 16.6373 23.6223 16.6187H23.6121L23.5908 16.62L23.1804 16.6399C22.745 16.6489 22.2947 16.6585 22.0172 16.9584L21.933 17.0503C21.933 17.0503 22.682 19.1468 22.6968 19.1892C22.7654 19.6246 22.7931 20.0581 22.7931 20.4873C22.7931 21.3113 22.6943 22.1245 22.596 22.9189C22.5079 23.6275 22.4193 24.3596 22.4025 25.0841L22.4013 25.095L22.4038 25.1086C22.4251 25.3314 22.4289 25.571 22.4302 25.8036C22.4392 26.6199 22.4501 27.5455 23.3596 28.0483L23.3783 28.0593L23.3982 28.0651C24.4181 28.3791 25.5582 28.1505 26.7862 27.3906L26.889 27.327L26.8716 26.8903L26.5583 26.8273C26.1156 26.7413 25.659 26.6519 25.508 26.2441C25.3301 25.6134 25.2595 24.9737 25.2595 24.3307C25.2595 23.1598 25.4926 21.978 25.72 20.8232C25.72 20.8232 25.948 19.6143 25.9545 19.5771C25.9661 19.5475 26.9629 16.7331 26.9629 16.7331L26.7708 16.6643C26.1369 16.4375 25.4284 16.5031 24.7424 16.5673Z" fill="#EE3424"/>
    <path d="M26.2211 10.6929L26.2011 10.6081C25.388 10.3852 24.5299 10.303 23.6872 10.375L23.6794 10.3756L23.1123 10.4694C22.9125 10.5008 22.7122 10.5343 22.5111 10.5689L22.5047 10.6691C22.4115 11.8247 22.655 12.4573 22.6653 12.4837L22.6916 12.5492C23.8631 12.7174 25.0327 12.6558 26.1041 12.3847L26.1188 12.3063C26.1246 12.2793 26.2589 11.56 26.2211 10.6929Z" fill="#A4D7F4"/>
    <path d="M29.631 11.6037C29.5545 11.3121 29.4678 10.982 29.1518 10.8021C28.2462 10.2485 27.266 9.67425 26.1902 9.29851C24.8356 8.91184 23.5799 9.28244 22.3654 9.63956C21.8097 9.80271 21.2336 9.97228 20.6658 10.0622L20.6291 10.068L19.4564 10.8291L19.4378 10.8554C19.3928 10.9158 19.2849 10.971 19.1783 11.0237C19.0016 11.1111 18.7993 11.2106 18.7492 11.4174C18.7138 11.5581 18.7582 11.7103 18.8834 11.8818L18.8982 11.9017L18.9155 11.9166C21.2952 13.7792 24.7174 14.2512 27.6328 13.1169L27.5974 13.126C27.8236 13.0893 28.0053 12.9428 28.1794 12.8009C28.4741 12.5613 28.6412 12.4445 28.9045 12.6371L28.9809 12.693L29.0689 12.6565C29.41 12.5171 29.6124 12.1618 29.6374 11.6545L29.6386 11.6281L29.631 11.6037ZM27.7946 11.6987L27.7709 11.7482L27.7208 11.7758C27.2229 12.0404 26.6758 12.2402 26.1047 12.3841C25.0334 12.6552 23.8644 12.7175 22.6923 12.5485C22.4501 12.5132 22.2105 12.4708 21.9697 12.4168L21.9569 12.4143L21.653 12.305C21.2066 12.1484 20.7448 11.9865 20.3395 11.7116L20.1526 11.5863L20.3234 11.4399C20.9317 10.9177 21.7134 10.7103 22.5111 10.5677C22.7122 10.533 22.9125 10.5002 23.1123 10.4688L23.6794 10.375L23.6872 10.3743C24.5304 10.3037 25.388 10.3866 26.201 10.6088C26.7168 10.7494 27.2159 10.9454 27.6803 11.1984L27.6989 11.208L27.7163 11.2235C27.846 11.3448 27.8492 11.5819 27.7946 11.6987Z" fill="black"/>
</svg>
