<svg width="66" height="23" viewBox="0 0 66 23" fill="none" xmlns="http://www.w3.org/2000/svg">
    <g clip-path="url(#clip0_222:286)">
        <path d="M30.021 12.5811H32.6224C33.9694 12.5811 34.7099 12.8679 34.7099 14.1638C34.7099 15.0233 34.3811 15.393 33.8004 15.5367C34.4069 15.6459 34.8703 16.0582 34.8703 17.0177C34.8703 18.2808 34.2298 18.7441 32.7817 18.7441H30.021V12.5811ZM32.6224 15.1057C33.0933 15.1057 33.4636 15.0309 33.4636 14.3662C33.4636 13.693 33.0852 13.5919 32.6224 13.5919H31.2415V15.1057H32.6224ZM32.7817 17.7152C33.2537 17.7152 33.6234 17.5903 33.6234 16.9171C33.6234 16.2438 33.2537 16.0754 32.7817 16.0754H31.2415V17.7152H32.7817ZM41.1914 18.7441H39.7777L38.456 16.7825H37.2856V18.7441H36.0569V12.5811H38.5147C40.0382 12.5811 40.7873 12.9428 40.7873 14.6692C40.7873 15.8735 40.4079 16.3364 39.6933 16.5129L41.1914 18.7441ZM38.5147 15.7449C39.1793 15.7449 39.5501 15.6292 39.5501 14.6869C39.5501 13.7349 39.1379 13.5999 38.498 13.5999H37.2856V15.7449H38.5147ZM42.8958 18.7441H41.658L44.0491 12.5391H45.1851L47.5762 18.7441H46.2712L45.8584 17.6328H43.308L42.8958 18.7441ZM44.5878 14.1537C44.5878 14.1537 43.6869 16.6135 43.6783 16.6135H45.4881L44.5878 14.1537ZM48.5411 18.7441H49.7277V14.5605L52.6063 18.7441H53.6675V12.5811H52.4798V16.5043L49.7697 12.5811H48.5411V18.7441ZM55.085 12.5811H57.3916C59.2175 12.5811 60.1776 13.0106 60.1776 15.6626C60.1776 18.3142 59.2175 18.7441 57.3916 18.7441H55.085V12.5811ZM57.3835 17.7237C58.4604 17.7237 58.8732 17.2787 58.8732 15.865V15.4608C58.8732 14.0374 58.4604 13.5919 57.3835 13.5919H56.3223V17.7237H57.3835ZM63.3737 18.8108C62.439 18.8108 61.5134 18.6504 61.227 18.5671L61.4207 17.5139C61.6732 17.5726 62.7931 17.7416 63.3818 17.7416C64.2579 17.7416 64.5264 17.6231 64.5264 16.9833C64.5264 16.4112 64.3494 16.3692 63.3398 16.168C61.6564 15.8311 61.2437 15.5706 61.2437 14.2311C61.2437 12.9428 62.0693 12.5052 63.4744 12.5052C64.2235 12.5052 65.2589 12.6318 65.5285 12.7157L65.3348 13.7597C64.9473 13.7011 64.1729 13.5832 63.4662 13.5832C62.7505 13.5832 62.4982 13.743 62.4982 14.2489C62.4982 14.829 62.6914 14.8968 63.6595 15.0906C65.2762 15.4102 65.7981 15.6126 65.7981 17.0096C65.7981 18.39 65.0232 18.8108 63.3737 18.8108Z" fill="#4B3C32"/>
        <path d="M30.0209 11.1667H30.6381V5.11138H30.0209V11.1667ZM35.1188 9.39403L37.0927 6.31685V11.1667H37.702V5.11138H37.1681L34.868 8.58464L32.5771 5.11138H32.0427V11.1667H32.6191V6.31685L34.593 9.39403H35.1188ZM39.0248 5.11138H41.2102C42.603 5.11138 43.2531 5.64523 43.2531 7.00515C43.2531 8.36401 42.5782 8.91455 41.193 8.91455H39.6333V11.1667H39.0248V5.11138ZM41.2102 8.35592C42.061 8.35592 42.6444 8.21435 42.6444 7.02128C42.6444 5.82874 42.0358 5.66999 41.193 5.66999H39.6333V8.35592H41.2102ZM44.2233 11.1667H47.7763V10.6H44.832V8.24778H47.0842V7.68108H44.832V5.67859H47.7763V5.11138H44.2233V11.1667ZM53.239 11.1667H52.5217L51.0375 8.83166H49.4445V11.1667H48.8359V5.11138H50.9368C52.3301 5.11138 52.9807 5.60379 52.9807 6.96316C52.9807 8.06424 52.5217 8.59001 51.7043 8.75631L53.239 11.1667ZM50.9368 8.28113C51.7882 8.28113 52.3715 8.17297 52.3715 6.97985C52.3715 5.78675 51.7629 5.66999 50.9206 5.66999H49.4445V8.28113H50.9368ZM54.3191 11.1667H54.9364V5.11138H54.3191V11.1667ZM56.4131 11.1667H55.8125L58.139 5.06995H58.6809L61.0079 11.1667H60.382L59.824 9.69917H56.9712L56.4131 11.1667ZM58.3973 5.9622L57.1881 9.14003H59.607L58.3973 5.9622ZM61.7909 5.11138H62.3996V10.6H65.593V11.1667H61.7909V5.11138Z" fill="#4B3C32"/>
        <path d="M17.2385 12.3853C16.993 13.1904 16.1417 13.643 15.3378 13.3971C14.5332 13.1511 14.0806 12.2993 14.326 11.4947C14.5725 10.6907 15.4238 10.2381 16.2279 10.4841C17.0318 10.73 17.485 11.5808 17.2385 12.3853Z" fill="#4B3C32"/>
        <path d="M14.2791 14.0469C13.6101 13.5701 13.2055 12.7973 13.1942 11.9756C13.1818 11.8733 13.1172 11.7834 13.0182 11.7425L5.98664 9.59042C5.98664 9.59042 5.7703 9.55595 5.66267 9.55487C5.07608 9.54877 4.53093 9.92515 4.35011 10.515C4.13699 11.2113 4.51263 11.946 5.19125 12.1902L9.65687 13.561L0.976405 18.1767L0.978081 18.1782L0.975335 18.1793C0.260124 18.563 -0.00680374 19.4547 0.377441 20.1688C0.570639 20.5278 0.892995 20.7737 1.25571 20.8814C1.38487 20.9195 1.51995 20.9406 1.65556 20.9422C1.89451 20.9438 2.13829 20.8884 2.36431 20.7651C2.38422 20.7561 10.9538 16.2038 10.9538 16.2038L9.62566 20.5424H9.62673C9.44915 21.2431 9.84846 21.9674 10.547 22.1816L10.561 22.1862C10.6843 22.2217 10.8085 22.2395 10.9319 22.2416C11.5001 22.2476 12.0285 21.895 12.2282 21.3391L12.2303 21.3402L14.3744 14.3301C14.3981 14.2231 14.3593 14.1143 14.2791 14.0465V14.0469ZM24.1904 16.3202C24.3648 15.7498 24.058 15.1486 23.5026 14.9491L23.5032 14.9475L18.1996 13.325C18.0893 13.2975 17.9768 13.3356 17.9068 13.4191C17.4274 14.1084 16.6368 14.5249 15.7956 14.5293L15.7951 14.5304C15.6805 14.538 15.5777 14.6143 15.54 14.73L13.9153 20.0432L13.9207 20.0443C13.7748 20.6137 14.1005 21.2035 14.6692 21.3779L14.6805 21.3794C14.7801 21.4096 14.8818 21.4245 14.9803 21.4256C15.4426 21.4302 15.8726 21.1437 16.0351 20.6916L16.04 20.6921L17.155 17.0461L19.6601 21.7399L19.6629 21.7394L19.664 21.7409C19.8216 22.0342 20.0842 22.2355 20.3791 22.3226C20.4846 22.3539 20.5945 22.3699 20.7047 22.3716C20.9012 22.3747 21.1003 22.328 21.2849 22.2285C21.8671 21.9147 22.0862 21.1893 21.773 20.6065L19.3126 15.9875L22.853 17.0708L22.8525 17.0702C22.9408 17.0935 23.0291 17.1037 23.1157 17.1047C23.5957 17.1108 24.0418 16.8028 24.1904 16.3196V16.3202ZM7.01298 8.62286L7.01129 8.6244L13.361 10.5607C13.4697 10.5876 13.5805 10.5515 13.6505 10.4708C14.116 9.79436 14.8808 9.37784 15.6993 9.35145L15.7004 9.34992C15.8123 9.34229 15.913 9.26863 15.9527 9.15728L17.881 2.83501L17.8756 2.83348C18.0398 2.18606 17.6695 1.51822 17.0232 1.32234L16.9947 1.31472C16.8811 1.28238 16.7671 1.26743 16.654 1.26789C16.1358 1.26942 15.6562 1.59346 15.476 2.10148L14.2086 6.23666L11.3634 0.915938L11.3603 0.91745L11.3592 0.915938C11.1772 0.576899 10.8726 0.348178 10.5299 0.251844C10.4092 0.217369 10.2839 0.201189 10.1574 0.201799C9.94163 0.201799 9.72206 0.25459 9.51864 0.363784C8.85778 0.720579 8.61131 1.54395 8.96811 2.20373L11.7632 7.43946L7.74703 6.21409C7.74703 6.21409 7.53715 6.17594 7.43329 6.17594C6.89405 6.17746 6.3968 6.52737 6.23158 7.06821C6.03354 7.71615 6.38333 8.39747 7.01298 8.62403V8.62286ZM17.2406 9.80042C17.9337 10.2724 18.3563 11.0575 18.3708 11.8944C18.3799 12.0085 18.4558 12.1108 18.5704 12.1484L21.9506 13.1822C21.9506 13.1822 22.091 13.2048 22.1604 13.2043C22.5092 13.2012 22.8305 12.9756 22.9376 12.6242L22.9408 12.615C23.0635 12.198 22.8364 11.7594 22.43 11.6136L19.7355 10.7853L23.2056 8.93244L23.2045 8.93093L23.2066 8.92939C23.4235 8.81361 23.5721 8.61941 23.6366 8.40038C23.7001 8.18403 23.6823 7.94402 23.5672 7.73038C23.4058 7.43115 23.0968 7.26218 22.7793 7.26486C22.6399 7.26541 22.4989 7.29933 22.3676 7.37042L18.952 9.19047L19.7494 6.58419L19.7527 6.57197L19.7521 6.57253C19.8603 6.149 19.6186 5.71202 19.1968 5.58286C19.1145 5.55754 19.0321 5.54625 18.9503 5.54685C18.6129 5.5499 18.3018 5.76105 18.1829 6.09202L18.1812 6.09049L17.142 9.48949C17.107 9.60741 17.1501 9.7295 17.2405 9.80107" fill="#F07300"/>
    </g>
    <defs>
        <clipPath id="clip0_222:286">
            <rect width="66" height="22.6314" fill="white"/>
        </clipPath>
    </defs>
</svg>
