<svg width="60" height="40" viewBox="0 0 60 40" fill="none" xmlns="http://www.w3.org/2000/svg">
<g clip-path="url(#clip0_112_5902)">
<path d="M29.5318 22.0872C28.4398 22.5927 27.8824 22.7178 27.0005 22.7178C25.7634 22.7178 24.5623 21.7667 24.5623 20.2742C24.5623 18.7179 25.7022 17.7827 27.0736 17.7827C27.8265 17.7827 28.5209 17.9159 29.2246 18.2882C29.2951 18.3308 29.3535 18.3414 29.3535 18.258V16.6166C29.0541 16.5061 27.9701 16.2349 26.8288 16.2349C24.1498 16.2349 22.2795 17.9708 22.2795 20.2746C22.2795 22.5746 24.1219 24.3091 26.906 24.3091C28.2388 24.3091 29.2804 24.015 29.6515 23.8383V22.1329C29.6515 22.0492 29.5782 22.0488 29.5318 22.0872Z" fill="#2F63B6"/>
<path d="M47.1716 19.4122C47.1905 18.9068 47.6811 17.6631 48.9315 17.6631C50.4067 17.6631 50.6886 18.956 50.6886 19.4122H47.1716ZM52.39 21.9729C51.4216 22.5116 50.4931 22.7817 49.3106 22.7817C47.6545 22.7817 47.1184 21.6297 47.1184 20.9553H52.8516V20.4365C52.8516 18.0182 51.3977 16.2397 48.9315 16.2397C46.3576 16.2397 44.8345 17.973 44.8345 20.2742C44.8345 22.6127 46.6754 24.3127 49.2135 24.3127C50.9534 24.3127 52.0854 23.8391 52.535 23.6636V22.0181C52.535 21.9344 52.4443 21.9345 52.39 21.9729Z" fill="#2F63B6"/>
<path d="M8.04272 24.0506H10.2165V12.8472H8.04272V24.0506Z" fill="#2F63B6"/>
<path d="M43.6293 22.4649C42.9124 22.7907 42.0451 22.8269 41.7098 22.578C41.4851 22.4117 41.3826 22.1204 41.3826 21.7134V18.1046H43.7197V16.5802C43.7197 16.5802 41.5661 16.5802 41.3826 16.5802V13.8413C41.3826 13.7839 41.3241 13.7655 41.2762 13.7802L39.1253 14.8444C40.5938 21.0218 38.9232 27.7939 34.1038 32.6145C26.7159 40.0011 14.7361 40.0011 7.34687 32.6145C-0.0410092 25.2252 -0.0410092 13.2455 7.34687 5.85755C12.1728 1.03158 18.9555 -0.637759 25.1383 0.841386L25.176 0.701863C18.533 -1.07128 11.1517 0.64606 5.9387 5.85772C-1.83764 13.6341 -1.83764 26.2443 5.9387 34.022C13.7163 41.7996 26.3266 41.7996 34.1043 34.0233C37.0693 31.0582 38.9023 27.391 39.606 23.5573C39.6712 23.6357 39.7444 23.7089 39.8243 23.7756C40.532 24.3649 42.2226 24.4859 43.7298 24.0829V22.492C43.7298 22.4453 43.664 22.4392 43.6293 22.4649Z" fill="#2F63B6"/>
<path d="M54.0182 5.86009C46.2406 -1.91756 33.6316 -1.91756 25.8526 5.86009C22.5857 9.12705 20.6941 13.2494 20.1727 17.5047C19.6832 16.6786 18.7507 16.225 17.3913 16.225C16.4003 16.225 15.3308 16.7864 14.6923 17.3637C14.6923 17.1069 14.6923 16.5802 14.6923 16.5802H12.7063V24.0506H14.8812V19.0357C15.2164 18.6726 16.0757 17.8558 16.9669 17.8558C17.8542 17.8558 18.4049 18.4717 18.4049 19.1115V24.0506H20.6263C19.5502 18.1472 21.2887 11.8327 25.8526 7.26879C33.2419 -0.120449 45.2203 -0.120449 52.6096 7.26879C59.9988 14.6554 59.9988 26.6364 52.6082 34.0243C47.7849 38.8503 41.0023 40.5197 34.8182 39.0419L34.7805 39.1813C41.4235 40.9532 48.8047 39.2372 54.0178 34.0242C61.7941 26.2479 61.7946 13.6377 54.0182 5.86009Z" fill="#2F63B6"/>
<path d="M36.562 16.5803L34.5068 20.6015L32.4969 16.5803H30.2888L33.4494 22.6713L30.5974 28.2528H32.7643L38.7289 16.5803H36.562Z" fill="#2F63B6"/>
</g>
<defs>
<clipPath id="clip0_112_5902">
<rect width="59.8425" height="40" fill="white" transform="translate(0.0788574)"/>
</clipPath>
</defs>
</svg>
