<svg width="561" height="130" viewBox="0 0 561 130" fill="none" xmlns="http://www.w3.org/2000/svg">
    <path d="M7.67177 4.64844H0V123.79H7.67177V4.64844Z" fill="#626263"/>
    <path d="M33.0918 4.64844H42.7865L131.794 113.112H132.138V4.64844H139.81V123.79H130.115L41.1071 15.327H40.7636V123.79H33.0918V4.64844Z" fill="#626263"/>
    <path d="M279.887 4.64844H288.589L337.177 114.103L385.765 4.64844H394.467L341.528 123.79H332.826L279.887 4.64844Z" fill="#626263"/>
    <path d="M416.033 4.64844H408.361V123.79H416.033V4.64844Z" fill="#626263"/>
    <path d="M496.87 1.98047C545.306 1.98047 560.191 40.8427 560.191 64.2211C560.191 87.5994 545.306 126.462 496.87 126.462C448.435 126.462 433.588 87.7139 433.588 64.2211C433.588 40.7283 448.435 1.98047 496.87 1.98047ZM496.87 119.788C532.787 119.788 552.481 92.748 552.481 64.2211C552.481 35.6941 532.787 8.65455 496.87 8.65455C460.954 8.65455 441.26 35.6941 441.26 64.2211C441.26 92.748 460.954 119.788 496.87 119.788Z" fill="#626263"/>
    <path d="M170.115 42.2912L161.183 38.4774C160.788 38.3102 160.343 38.3044 159.943 38.4612C159.544 38.6181 159.222 38.9251 159.046 39.3165C158.952 39.5105 158.9 39.7218 158.892 39.9371C158.884 40.1524 158.92 40.3671 158.999 40.5676C159.078 40.7681 159.197 40.9502 159.35 41.1024C159.502 41.2547 159.685 41.3737 159.886 41.4522L168.817 45.2659L170.115 42.2912Z" fill="#0063A6"/>
    <path d="M210.646 12.8481L211.601 22.535C211.686 22.9266 211.912 23.2734 212.236 23.51C212.56 23.7465 212.959 23.8564 213.358 23.8188C213.757 23.7812 214.129 23.5989 214.403 23.3061C214.677 23.0134 214.834 22.6306 214.845 22.2299L213.738 12.543L210.646 12.8481Z" fill="#5EAF36"/>
    <path d="M223.895 12.855L224.849 3.16804C224.881 2.73485 224.744 2.30602 224.467 1.97173C224.189 1.63743 223.792 1.42374 223.36 1.37558C222.931 1.3438 222.506 1.48192 222.178 1.76016C221.849 2.03839 221.643 2.43445 221.605 2.86294L220.65 12.5499L223.895 12.855Z" fill="#5EAF36"/>
    <path d="M181.492 26.6954L187.943 33.9797C188.26 34.2719 188.675 34.4341 189.107 34.4341C189.538 34.4341 189.954 34.2719 190.271 33.9797C190.572 33.6671 190.74 33.2502 190.74 32.8165C190.74 32.3828 190.572 31.9659 190.271 31.6533L183.935 24.4453L181.492 26.6954Z" fill="#5EAF36"/>
    <path d="M192.214 18.8382L187.252 10.448C187.035 10.0788 186.679 9.81109 186.264 9.70381C185.849 9.59653 185.408 9.65843 185.038 9.87589C184.669 10.0934 184.401 10.4486 184.294 10.8634C184.186 11.2782 184.248 11.7187 184.466 12.0879L189.428 20.4782L192.214 18.8382Z" fill="#5EAF36"/>
    <path d="M242.368 18.8438L237.407 27.234C237.297 27.4163 237.225 27.6186 237.194 27.8291C237.164 28.0396 237.176 28.254 237.229 28.4599C237.282 28.6659 237.376 28.8591 237.505 29.0284C237.634 29.1977 237.795 29.3397 237.979 29.446C238.356 29.6591 238.801 29.7185 239.22 29.6119C239.64 29.5053 240.002 29.2409 240.231 28.8739L245.155 20.4837L242.368 18.8438Z" fill="#5EAF36"/>
    <path d="M253.054 26.6994L259.543 19.3389C259.841 19.0327 260.008 18.6221 260.008 18.1947C260.008 17.7673 259.841 17.3568 259.543 17.0506C259.23 16.75 258.813 16.582 258.378 16.582C257.944 16.582 257.527 16.75 257.214 17.0506L250.611 24.4493L253.054 26.6994Z" fill="#5EAF36"/>
    <path d="M264.466 42.293L255.535 46.1067C255.308 46.1685 255.096 46.2784 254.915 46.4292C254.734 46.5799 254.588 46.7678 254.486 46.9801C254.384 47.1924 254.329 47.4242 254.324 47.6596C254.32 47.8951 254.367 48.1287 254.461 48.3446C254.555 48.5604 254.695 48.7535 254.87 48.9106C255.046 49.0678 255.253 49.1853 255.478 49.2552C255.703 49.3252 255.941 49.3458 256.174 49.3158C256.408 49.2859 256.633 49.2059 256.833 49.0815L265.764 45.2677L264.466 42.293Z" fill="#0063A6"/>
    <path d="M268.548 54.8866L278.052 52.789C278.477 52.6975 278.848 52.4414 279.084 52.0767C279.321 51.7121 279.402 51.2688 279.312 50.844C279.267 50.6347 279.18 50.4365 279.057 50.2612C278.935 50.0858 278.778 49.9369 278.596 49.8231C278.415 49.7093 278.212 49.6331 278.001 49.5988C277.789 49.5645 277.573 49.5729 277.365 49.6236L267.861 51.7211L268.548 54.8866Z" fill="#0063A6"/>
    <path d="M268.547 74.2565L259.043 72.1589C258.623 72.0672 258.184 72.1437 257.82 72.3719C257.457 72.6001 257.197 72.9618 257.097 73.3793C257.006 73.8041 257.088 74.2474 257.324 74.6121C257.56 74.9767 257.931 75.2329 258.356 75.3243L267.86 77.4219L268.547 74.2565Z" fill="#0063A6"/>
    <path d="M264.463 86.8389L273.394 90.6527C273.789 90.82 274.235 90.8258 274.634 90.6689C275.034 90.5121 275.356 90.2051 275.532 89.8137C275.705 89.4381 275.727 89.0101 275.591 88.6191C275.456 88.2281 275.175 87.9045 274.806 87.7161L265.875 83.9023L264.463 86.8389Z" fill="#0063A6"/>
    <path d="M253.05 102.52L246.6 95.3497C246.302 95.0663 245.908 94.9053 245.496 94.8987C245.084 94.892 244.685 95.0401 244.378 95.3137C244.07 95.5873 243.877 95.9664 243.836 96.3757C243.795 96.785 243.91 97.1947 244.157 97.5236L250.608 104.808L253.05 102.52Z" fill="#0063A6"/>
    <path d="M242.367 110.288L247.291 118.679C247.529 119.009 247.882 119.239 248.28 119.324C248.679 119.409 249.095 119.342 249.447 119.138C249.799 118.933 250.063 118.605 250.186 118.217C250.31 117.829 250.285 117.409 250.115 117.039L245.153 108.648L242.367 110.288Z" fill="#0063A6"/>
    <path d="M223.895 116.276L222.979 106.779C222.893 106.388 222.667 106.041 222.344 105.804C222.02 105.568 221.621 105.458 221.221 105.495C220.822 105.533 220.45 105.715 220.176 106.008C219.902 106.301 219.745 106.684 219.734 107.084L220.65 116.771L223.895 116.276Z" fill="#0063A6"/>
    <path d="M210.649 116.277L209.924 125.85C209.881 126.279 210.009 126.708 210.281 127.044C210.552 127.379 210.945 127.594 211.375 127.642C211.59 127.663 211.808 127.641 212.015 127.578C212.222 127.514 212.415 127.41 212.582 127.272C212.748 127.134 212.886 126.964 212.987 126.772C213.088 126.58 213.149 126.371 213.168 126.155L213.741 116.582L210.649 116.277Z" fill="#0063A6"/>
    <path d="M192.218 110.288L197.142 101.898C197.251 101.715 197.323 101.513 197.354 101.303C197.384 101.092 197.373 100.878 197.319 100.672C197.266 100.466 197.172 100.273 197.043 100.103C196.915 99.9341 196.753 99.7921 196.569 99.6857C196.387 99.5762 196.184 99.5041 195.973 99.4736C195.763 99.4431 195.548 99.4548 195.342 99.5081C195.136 99.5613 194.943 99.655 194.773 99.7838C194.604 99.9125 194.462 100.074 194.355 100.258L189.432 108.648L192.218 110.288Z" fill="#0063A6"/>
    <path d="M181.49 102.512L175.04 109.796C174.875 109.952 174.745 110.141 174.657 110.35C174.569 110.559 174.526 110.784 174.53 111.011C174.533 111.238 174.584 111.462 174.679 111.668C174.773 111.874 174.909 112.058 175.079 112.209C175.248 112.36 175.448 112.474 175.663 112.544C175.879 112.614 176.107 112.639 176.333 112.616C176.559 112.594 176.778 112.525 176.976 112.414C177.174 112.302 177.346 112.151 177.483 111.97L183.933 104.686L181.49 102.512Z" fill="#0063A6"/>
    <path d="M170.116 86.833L179.047 83.0193C179.439 82.8438 179.746 82.5219 179.903 82.1226C180.06 81.7234 180.054 81.2786 179.887 80.8836C179.704 80.4987 179.381 80.1978 178.984 80.042C178.587 79.8862 178.146 79.8871 177.75 80.0446L168.818 83.8583L170.116 86.833Z" fill="#0063A6"/>
    <path d="M165.992 74.25L156.488 76.2713C156.063 76.3674 155.693 76.6283 155.461 76.9966C155.228 77.365 155.151 77.8106 155.248 78.2354C155.344 78.6602 155.605 79.0295 155.973 79.2619C156.342 79.4943 156.788 79.5709 157.213 79.4749L166.717 77.3392L165.992 74.25Z" fill="#0063A6"/>
    <path d="M165.994 54.8764L175.536 56.9739C175.951 57.0647 176.385 56.9872 176.743 56.7583C177.101 56.5295 177.353 56.1681 177.445 55.7535C177.536 55.3341 177.46 54.8955 177.231 54.5318C177.003 54.1681 176.641 53.9084 176.223 53.8085L166.719 51.7109L165.994 54.8764Z" fill="#0063A6"/>
    <path d="M200.461 13.8777C198.782 18.6449 198.209 28.2556 189.469 33.2134C198.476 31.154 202.026 24.4037 204.125 16.1278C206.224 7.85192 210.652 1.21598 219.965 1.71176C218.562 1.31134 217.111 1.10601 215.652 1.10156C208.018 1.10156 202.675 7.50869 200.385 13.8777" fill="#5EAF36"/>
    <path d="M165.612 67.1251C169.963 69.7566 179.391 76.2781 179.849 83.9056C180.765 74.1424 174.429 67.1251 167.101 62.8155C161.91 59.7645 154.047 52.2895 155.459 44.7383C152.673 53.3955 157.635 62.3197 165.612 67.1251Z" fill="#0063A6"/>
    <path d="M199.01 111.632C192.75 116.781 184.926 119.755 177.674 113.844C184.277 122.196 194.086 120.06 200.575 115.636C204.773 112.776 210.918 105.377 220.918 106.56C218.664 105.538 216.218 105.005 213.743 104.996C208.178 105.398 202.934 107.748 198.933 111.632" fill="#0063A6"/>
    <path d="M256.64 96.3673C259.579 103.995 259.922 112.309 252.021 117.267C262.06 113.682 263.128 103.69 260.953 96.1003C259.541 91.2187 254.464 83.0572 258.739 73.9805C251.907 81.7987 253.548 88.3965 256.64 96.3673Z" fill="#0063A6"/>
    <path d="M258.741 36.3848C264.734 35.7746 275.497 37.1095 278.818 44.0124C276.031 35.5077 266.337 31.2744 257.062 32.1134C252.024 32.5711 240.726 32.9906 235.955 26.9648C240.993 35.3933 250.23 37.262 258.856 36.3848" fill="#0063A6"/>
    <path d="M230.001 112.999C227.978 120.855 223.36 127.834 214.047 127.3C224.314 130.199 230.993 122.724 233.665 115.287C235.383 110.52 235.993 100.909 244.772 96.0273C235.65 98.0105 232.138 104.723 230.001 112.999Z" fill="#0063A6"/>
    <path d="M267.631 66.8231C274.463 71.209 279.654 77.8068 276.181 86.464C282.211 77.6542 277.211 68.9588 270.99 64.0772C267.173 61.0262 258.051 57.2125 256.181 47.4492C255.188 56.7167 260.456 62.1703 267.631 66.8231Z" fill="#0063A6"/>
    <path d="M230.191 14.5729C226.374 17.929 217.557 24.8701 209.924 22.8869C218.97 26.7007 227.557 22.8869 233.931 17.09C238.55 13.0474 248.092 7.82256 254.809 11.4456C252.071 9.49574 248.782 8.46724 245.42 8.50904C239.774 8.66685 234.366 10.8148 230.153 14.5729" fill="#5EAF36"/>
    <path d="M173.669 33.0639C175.119 37.9455 180.31 46.0307 176.15 55.1837C177.714 53.3913 179.088 53.5438 179.966 51.9039C182.524 46.8316 180.921 40.0431 177.982 32.8351C175.043 25.6271 174.508 16.9317 182.333 11.8594C172.333 15.6731 171.417 25.5889 173.707 33.1402" fill="#5EAF36"/>
    <path d="M177.135 96.6441C182.211 96.2246 193.509 95.8814 198.242 101.945C193.242 93.4787 184.005 91.5337 175.341 92.3346C169.387 92.9066 158.623 91.5337 155.303 84.707C158.051 93.2117 167.707 97.5213 176.982 96.7585" fill="#0063A6"/>
    <path d="M178.973 12.1984C182.677 10.9098 186.656 10.6191 190.509 11.3556C194.362 12.092 197.952 13.8297 200.919 16.3936C207.828 22.6863 210.843 25.4322 220.805 24.555C213.858 24.2499 208.477 17.3089 203.744 13.5714C199.849 10.3813 195 8.58258 189.965 8.46094C185.98 8.48511 182.115 9.82605 178.973 12.2747" fill="#5EAF36"/>
    <path d="M197.862 113.122C198.773 117.53 201.16 121.496 204.629 124.366C208.098 127.236 212.443 128.84 216.946 128.911C213.226 127.711 209.888 125.553 207.269 122.654C204.649 119.755 202.839 116.218 202.023 112.398C200.229 103.283 199.198 99.3928 190.572 94.168C195.992 98.5538 196.221 107.325 197.786 113.237" fill="#0063A6"/>
    <path d="M258.281 93.3943C249.045 92.212 244.999 91.7162 237.365 98.1996C243.243 94.3859 251.64 96.9792 257.632 97.3225C262.101 97.8296 266.609 96.8085 270.421 94.4257C274.234 92.043 277.126 88.4395 278.625 84.2031C276.331 87.3845 273.241 89.9081 269.664 91.5211C266.087 93.1341 262.148 93.7801 258.243 93.3943" fill="#0063A6"/>
    <path d="M277.441 83.6388C275.113 88.673 265.991 93.8597 258.014 93.3639C261.965 93.9656 266.007 93.4233 269.66 91.8012C273.312 90.179 276.423 87.545 278.624 84.2109C281.869 77.6894 277.479 68.3075 270.991 64.0742C277.861 69.8711 279.96 78.1851 277.441 83.6388Z" fill="#0063A6"/>
    <path d="M239.389 96.9015C232.939 100.258 230.878 108.572 230 112.996C231.31 106.933 234.887 101.599 240 98.0838C243.568 96.6355 247.483 96.2643 251.26 97.0159C253.373 97.2877 255.504 97.3898 257.634 97.321C253.092 97.0922 248.855 95.643 244.847 95.643C242.952 95.6045 241.076 96.037 239.389 96.9015Z" fill="#0063A6"/>
    <path d="M216.949 128.902C224.163 129.931 231.682 122.838 233.667 115.287C230.308 123.639 223.094 128.253 217.14 127.605C211.186 126.957 203.972 119.634 201.873 112.121C202.481 116.062 204.217 119.743 206.872 122.721C209.527 125.698 212.987 127.845 216.835 128.902" fill="#0063A6"/>
    <path d="M165.84 61.484C157.939 66.3656 151.985 73.7262 155.458 84.5954C154.16 76.9679 161.145 69.6073 166.259 66.48C173.588 62.0942 181.756 56.4117 181.145 45.1992C180.596 48.7476 178.812 51.9887 176.107 54.3522C172.96 57.1036 169.517 59.4956 165.84 61.484Z" fill="#0063A6"/>
    <path d="M175.572 92.3354C181.908 92.6405 187.214 92.6024 191.679 96.6831C196.145 100.764 195.725 107.476 197.939 113.12C196.145 106.713 197.061 100.001 192.595 95.6915C191.128 94.3751 189.415 93.3607 187.555 92.7063C185.695 92.0519 183.724 91.7703 181.755 91.8778C179.687 91.9264 177.622 92.092 175.572 92.3736" fill="#0063A6"/>
    <path d="M155.458 84.588C157.1 91.6816 166.26 97.326 173.932 96.7539C167.367 96.2582 158.436 91.9105 156.604 84.2829C155 77.4944 160.764 70.8203 166.26 66.4727C158.168 71.7357 153.97 77.9139 155.458 84.588Z" fill="#0063A6"/>
    <path d="M178.891 51.2578C175.991 56.025 170.876 58.0845 165.838 61.4787C171.716 58.3133 176.678 58.9616 178.891 54.8046C180.245 52.3916 180.967 49.6762 180.991 46.9102C180.672 48.2493 180.157 49.5344 179.464 50.7239" fill="#0063A6"/>
    <path d="M178.97 12.2006C172.557 15.6712 170.725 25.8158 173.664 33.0619C171.374 24.3665 174.428 16.3576 179.657 13.3448C184.886 10.3319 194.924 11.7048 201.145 16.5865C199.15 14.6624 196.795 13.1501 194.215 12.1358C191.634 11.1215 188.879 10.6252 186.107 10.6751C183.639 10.5995 181.19 11.123 178.97 12.2006Z" fill="#5EAF36"/>
    <path d="M256.871 32.379C253.627 40.2734 250.459 48.5112 257.634 57.1684C253.245 50.8757 258.283 40.8836 260.192 36.1927C263.665 27.5355 264.008 18.0774 254.81 11.4414C260.344 16.7807 259.161 26.6965 256.871 32.379Z" fill="#5EAF36"/>
    <path d="M218.401 24.4483C225.653 25.4017 230.805 20.1387 234.088 17.0496C228.821 20.5582 224.546 23.7618 218.591 23.1135C212.637 22.4651 208.897 16.8207 203.744 13.6172C209.011 17.6979 212.256 23.6092 218.401 24.4483Z" fill="#5EAF36"/>
    <path d="M232.826 12.5511C238.399 9.11872 248.093 7.28811 254.2 12.5511C259.506 17.0132 258.857 25.823 256.987 32.5734C260.383 23.5347 260.078 16.0598 254.925 11.6358C252.171 9.46696 248.735 8.34526 245.231 8.47038C240.751 8.37519 236.373 9.81527 232.826 12.5511Z" fill="#5EAF36"/>
    <path d="M255.725 51.9002C256.488 59.1464 264.083 64.2949 267.824 66.812C265.152 64.4856 257.557 59.7566 256.87 51.9002C256.841 46.4652 258.041 41.0939 260.381 36.1875C257.557 42.1751 255.267 47.2093 255.725 51.9002Z" fill="#0063A6"/>
    <path d="M217.024 0C220.776 1.14657 224.162 3.2578 226.841 6.12241C229.52 8.98701 231.4 12.5045 232.291 16.3229C234.161 25.3997 235.001 29.4041 243.741 34.5527C238.207 30.5101 237.864 21.5478 236.26 15.789C235.314 11.4088 232.914 7.47687 229.45 4.63143C225.986 1.78599 221.66 0.194169 217.176 0.114413H216.871" fill="#5EAF36"/>
    <path d="M172.936 92.8684C171.085 96.9703 170.685 101.579 171.802 105.939C172.918 110.298 175.485 114.148 179.081 116.857C176.78 113.693 175.354 109.979 174.945 106.09C174.536 102.2 175.16 98.2714 176.753 94.699C180.57 86.2706 182.097 82.5331 178.242 73.2656C180.036 80.016 175.074 87.224 172.936 92.8684Z" fill="#0063A6"/>
    <path d="M213.74 103.966C220.725 104.385 225.992 111.365 230.649 115.178C233.97 118.23 238.232 120.063 242.733 120.375C247.235 120.686 251.708 119.459 255.42 116.895C251.693 118.128 247.708 118.361 243.863 117.572C240.018 116.782 236.448 114.996 233.511 112.394C227.443 106.674 224.427 103.852 216.679 103.852H213.74" fill="#0063A6"/>
    <path d="M254.693 115.713C249.807 118.459 239.235 117.163 233.242 112.205C236.079 115.024 239.668 116.965 243.581 117.797C247.494 118.629 251.564 118.316 255.303 116.896C261.792 113.54 263.853 105.454 261.219 97.293C263.242 106.141 259.922 112.815 254.693 115.713Z" fill="#0063A6"/>
    <path d="M201.486 109.684C203.454 108.01 205.752 106.768 208.231 106.039C210.71 105.31 213.314 105.109 215.876 105.451C221.41 106.099 225.494 111.858 230.57 115.176C225.379 111.019 222.212 105.031 216.067 104.116C215.355 104.06 214.64 104.06 213.929 104.116C209.207 104.382 204.761 106.426 201.486 109.836" fill="#0063A6"/>
    <path d="M179.083 116.852C184.35 121.924 193.548 120.665 199.083 116.585C191.449 120.589 184.464 119.941 179.999 115.86C175.533 111.779 174.045 101.711 176.869 94.4648C175.049 98.0152 174.29 102.014 174.683 105.983C175.075 109.953 176.603 113.726 179.083 116.852Z" fill="#0063A6"/>
    <path d="M177.559 75.8572C178.666 81.3109 174.468 86.9934 172.941 92.8666C175.269 86.612 179.849 81.7304 178.857 75.5902C178.297 73.1294 177.156 70.8382 175.529 68.9076C173.902 66.977 171.837 65.4631 169.506 64.4922C174.43 68.306 176.338 69.9459 177.559 75.9335" fill="#0063A6"/>
    <path d="M201.225 11.8959C202.402 8.73126 204.548 6.01808 207.358 4.14208C210.167 2.26608 213.497 1.32275 216.873 1.4462C222.446 2.01826 230.309 9.07372 232.37 16.7012C231.675 12.7724 229.868 9.12499 227.162 6.19134C224.456 3.25768 220.965 1.16088 217.102 0.149518C216.531 0.111619 215.957 0.111619 215.385 0.149518C212.048 0.288796 208.853 1.53383 206.303 3.6883C203.753 5.84276 201.993 8.78408 201.301 12.0485" fill="#5EAF36"/>
    <path d="M268.165 62.2063C260.875 66.6684 253.929 71.8552 253.891 82.3811C254.883 75.2113 264.31 69.9101 268.623 67.1261C276.486 62.1682 282.402 54.7695 278.853 43.9766C280.188 51.6041 273.28 59.0028 268.165 62.1301" fill="#0063A6"/>
    <path d="M241.755 33.176C243.613 34.6986 245.782 35.7952 248.11 36.3883C250.438 36.9814 252.868 37.0565 255.229 36.6084C252.942 36.791 250.643 36.4915 248.48 35.7294C246.316 34.9673 244.337 33.7595 242.671 32.1844C238.511 28.3707 237.061 22.0398 234.809 16.4336C236.641 22.8789 237.251 28.8665 241.755 33.176Z" fill="#0063A6"/>
    <path d="M255.725 77.1972C254.438 79.6436 253.766 82.366 253.766 85.1299C253.766 87.8937 254.438 90.6161 255.725 93.0625C254.702 90.6138 254.263 87.9611 254.442 85.3137C254.621 82.6663 255.413 80.0966 256.756 77.8074C259.927 73.3776 264.064 69.726 268.855 67.1289C263.015 70.3325 258.206 73.0784 255.84 77.121" fill="#0063A6"/>
    <path d="M279.121 44.1705C278.128 37.2295 269.388 32.1953 261.525 32.1953C270.419 33.1869 276.793 38.5643 277.785 44.2849C278.777 50.0056 273.625 59.0823 266.793 63.0105C275.037 59.1968 280.037 50.1581 279.159 43.9417" fill="#0063A6"/>
    <path d="M177.446 32.2689C168.133 31.5825 159.011 34.0614 155.461 44.8544C158.858 37.9896 168.858 36.0446 174.812 36.5785C183.324 37.3031 192.14 37.7989 198.247 28.3789C193.553 34.4428 182.484 32.6503 177.446 32.1927" fill="#0063A6"/>
    <path d="M155.457 44.8501C154.102 48.334 153.996 52.1796 155.158 55.7327C156.32 59.2857 158.678 62.3267 161.831 64.3384C159.024 62.1436 156.994 59.1078 156.039 55.6761C155.084 52.2444 155.255 48.5973 156.526 45.2696C159.236 38.8625 167.976 36.8412 174.808 36.5742H172.48C164.045 36.5742 157.9 39.2057 155.457 44.9264" fill="#0063A6"/>
    <path d="M193.398 31.0069C188.321 32.9038 182.876 33.6084 177.482 33.0663C182.932 34.1497 188.573 33.7546 193.818 31.9222C196.428 30.7482 198.685 28.9128 200.366 26.5981C202.046 24.2834 203.092 21.5698 203.398 18.7266C202.755 21.3897 201.523 23.8751 199.793 26.0001C198.062 28.1252 195.877 29.836 193.398 31.0069Z" fill="#5EAF36"/>
    <path d="M213.745 12.5465L212.905 2.32563C212.895 2.12653 212.837 1.93274 212.737 1.76024C212.637 1.58774 212.497 1.44147 212.33 1.33346C212.162 1.22546 211.971 1.15882 211.772 1.13903C211.574 1.11924 211.373 1.14687 211.188 1.21964C210.72 1.38511 210.331 1.71965 210.098 2.15732C209.865 2.595 209.804 3.10406 209.928 3.58418L210.806 12.8516L213.745 12.5465Z" fill="#5EAF36"/>
    <path d="M220.647 12.543L219.731 22.2299C219.715 22.4312 219.741 22.6338 219.81 22.8238C219.878 23.0139 219.987 23.1871 220.128 23.3318C220.269 23.4764 220.439 23.589 220.628 23.6621C220.816 23.7352 221.018 23.767 221.22 23.7554C221.416 23.7995 221.619 23.8024 221.817 23.7638C222.014 23.7252 222.201 23.646 222.367 23.5312C222.532 23.4164 222.671 23.2686 222.776 23.0971C222.881 22.9256 222.949 22.7342 222.976 22.535L223.892 12.8481L220.647 12.543Z" fill="#5EAF36"/>
    <path d="M183.932 24.4412L177.482 17.157C177.346 17.009 177.181 16.8909 176.997 16.81C176.813 16.7292 176.614 16.6875 176.413 16.6875C176.212 16.6875 176.013 16.7292 175.829 16.81C175.645 16.8909 175.48 17.009 175.344 17.157C175.178 17.2774 175.038 17.4299 174.933 17.6055C174.827 17.7812 174.758 17.9762 174.73 18.1791C174.701 18.382 174.714 18.5885 174.767 18.7864C174.82 18.9843 174.913 19.1694 175.039 19.3308L181.489 26.6914L183.932 24.4412Z" fill="#5EAF36"/>
    <path d="M189.432 20.4837L194.203 28.6833C194.661 29.446 195.539 29.4079 196.302 28.9502C197.065 28.4926 197.447 27.8061 197.027 27.0433L192.218 18.8438L189.432 20.4837Z" fill="#5EAF36"/>
    <path d="M250.611 104.686L257.062 111.97C257.672 112.618 258.321 112.237 258.894 111.512C259.182 111.164 259.34 110.725 259.34 110.273C259.34 109.82 259.182 109.382 258.894 109.033L253.054 102.512L250.611 104.686Z" fill="#0063A6"/>
    <path d="M245.153 108.647L240 99.875C239.899 99.7052 239.759 99.5617 239.591 99.4561C239.424 99.3505 239.234 99.2859 239.037 99.2673C238.84 99.2487 238.642 99.2768 238.457 99.3492C238.273 99.4217 238.109 99.5365 237.977 99.6843C237.646 99.987 237.426 100.391 237.35 100.833C237.274 101.275 237.347 101.729 237.558 102.125L242.367 110.287L245.153 108.647Z" fill="#0063A6"/>
    <path d="M220.65 116.582L221.605 125.583C221.605 126.498 222.482 126.803 223.284 126.422C223.744 126.29 224.142 125.999 224.408 125.601C224.673 125.203 224.789 124.723 224.734 124.248L223.895 116.277L220.65 116.582Z" fill="#0063A6"/>
    <path d="M213.738 116.59L214.845 106.789C214.845 105.911 214.387 105.378 213.318 105.492C212.892 105.496 212.481 105.652 212.159 105.932C211.838 106.211 211.626 106.596 211.563 107.017L210.646 116.17L213.738 116.59Z" fill="#0063A6"/>
    <path d="M245.153 20.479L250.306 11.6311C250.41 11.4724 250.473 11.2903 250.489 11.1012C250.505 10.9121 250.474 10.7221 250.398 10.5481C250.323 10.374 250.205 10.2216 250.055 10.1044C249.906 9.98722 249.73 9.90899 249.543 9.87675C248.589 9.64792 247.749 9.87675 247.291 10.4488L242.367 18.8391L245.153 20.479Z" fill="#5EAF36"/>
    <path d="M250.607 24.4453L243.851 32.0728C243.729 32.2257 243.643 32.4043 243.599 32.5952C243.555 32.7861 243.556 32.9845 243.6 33.1753C243.644 33.3661 243.73 33.5445 243.853 33.697C243.976 33.8496 244.132 33.9723 244.309 34.056C244.679 34.3261 245.137 34.4449 245.591 34.3882C246.046 34.3315 246.461 34.1035 246.752 33.7509L253.05 26.6954L250.607 24.4453Z" fill="#5EAF36"/>
    <path d="M189.43 108.648L184.659 116.734C184.201 117.496 184.468 118.107 185.499 118.45C185.882 118.629 186.317 118.67 186.727 118.566C187.138 118.462 187.499 118.219 187.751 117.878L192.216 110.25L189.43 108.648Z" fill="#0063A6"/>
    <path d="M183.935 104.692L190.385 97.4077C190.996 96.7213 190.805 96.1492 189.889 95.5771C189.564 95.3004 189.152 95.1484 188.725 95.1484C188.298 95.1484 187.886 95.3004 187.561 95.5771L181.492 102.366L183.935 104.692Z" fill="#0063A6"/>
    <path d="M265.761 45.2641L276.257 40.6876C276.257 40.6876 276.257 40.1155 275.379 39.3147C275.148 38.9289 274.785 38.6394 274.357 38.4993C273.93 38.3592 273.466 38.3778 273.051 38.5519L264.463 42.3657L265.761 45.2641Z" fill="#0063A6"/>
    <path d="M267.86 51.7109L258.699 53.7322C258.504 53.7659 258.319 53.8468 258.162 53.9677C258.005 54.0887 257.879 54.2461 257.797 54.4264C257.714 54.6067 257.676 54.8044 257.687 55.0024C257.698 55.2004 257.758 55.3928 257.86 55.5628C258.014 55.9755 258.309 56.3205 258.693 56.5368C259.077 56.7531 259.526 56.8269 259.959 56.7451L268.547 54.8764L267.86 51.7109Z" fill="#0063A6"/>
    <path d="M168.82 83.9023L158.706 88.2882C158.4 88.517 158.973 89.0128 159.584 89.6611C159.873 89.9884 160.247 90.2293 160.665 90.3572C161.082 90.4851 161.527 90.495 161.95 90.3857L170.118 86.8771L168.82 83.9023Z" fill="#0063A6"/>
    <path d="M166.718 77.4129L175.573 75.4297C175.772 75.3857 175.96 75.3013 176.125 75.1818C176.29 75.0624 176.429 74.9103 176.532 74.7351C176.636 74.56 176.703 74.3654 176.728 74.1634C176.754 73.9614 176.737 73.7564 176.68 73.561C176.653 73.3559 176.584 73.1585 176.477 72.9809C176.371 72.8032 176.23 72.6491 176.062 72.5278C175.894 72.4065 175.703 72.3206 175.501 72.2753C175.299 72.23 175.09 72.2262 174.886 72.2643L165.955 74.2474L166.718 77.4129Z" fill="#0063A6"/>
    <path d="M267.861 77.4154L277.06 79.4749C277.938 79.6655 278.319 78.8647 278.205 77.9875C278.202 77.5402 278.05 77.1066 277.774 76.7546C277.497 76.4026 277.112 76.1522 276.678 76.0425L268.548 74.25L267.861 77.4154Z" fill="#0063A6"/>
    <path d="M265.766 83.9053L257.063 80.0915C256.882 80.0052 256.684 79.9633 256.483 79.9693C256.283 79.9753 256.087 80.029 255.911 80.126C255.736 80.223 255.586 80.3605 255.474 80.5269C255.363 80.6934 255.293 80.8841 255.27 81.0831C255.142 81.5186 255.18 81.9861 255.378 82.3948C255.575 82.8035 255.917 83.1244 256.338 83.2951L264.468 86.8038L265.766 83.9053Z" fill="#0063A6"/>
    <path d="M166.721 51.7176L156.95 49.5819C155.385 49.2386 155.308 49.5819 155.346 50.8785C155.385 52.1752 155.614 52.5947 156.492 52.7854L165.995 54.883L166.721 51.7176Z" fill="#0063A6"/>
    <path d="M168.818 45.2698L177.75 49.0835C178.551 49.4268 179.124 48.8166 179.467 47.9775C179.586 47.5321 179.539 47.0588 179.336 46.6451C179.132 46.2315 178.786 45.9054 178.36 45.7274L170.116 42.2188L168.818 45.2698Z" fill="#0063A6"/>
    <path d="M171.986 33.4917L177.215 32.2713C177.215 32.2713 188.017 33.4917 193.055 31.1653C195.452 30.1218 197.741 28.8444 199.887 27.3516C197.814 30.1555 195.223 32.5374 192.254 34.3689C190.137 35.2672 187.92 35.9074 185.65 36.2758L171.986 33.4917Z" fill="#0063A6"/>
    <path d="M233.629 15.4805H236.148C236.148 15.4805 237.408 19.2942 238.056 21.9639C238.705 24.6335 240.919 32.3373 244.278 35.0451C241.85 33.5239 239.563 31.788 237.446 29.8584C235.855 25.1559 234.579 20.3526 233.629 15.4805Z" fill="#5EAF36"/>
    <path d="M260.499 28.6797V35.0487L258.171 41.9516C256.399 46.9548 256.16 52.3721 257.483 57.5117C255.343 54.6361 253.929 51.2869 253.361 47.7485C253.475 45.1495 253.963 42.5804 254.812 40.121L260.499 28.6797Z" fill="#5EAF36"/>
</svg>
