<?xml version="1.0" encoding="UTF-8"?>
<svg width="512px" height="512px" viewBox="0 0 512 512" version="1.1" xmlns="http://www.w3.org/2000/svg" xmlns:xlink="http://www.w3.org/1999/xlink">
    <!-- Generator: Sketch 48.1 (47250) - http://www.bohemiancoding.com/sketch -->
    <title>#INTC</title>
    <desc>Created with Sketch.</desc>
    <defs></defs>
    <g id="Компании-BIG" stroke="none" stroke-width="1" fill="none" fill-rule="evenodd">
        <g id="#INTC" fill="#0E7DC2" fill-rule="nonzero">
            <g id="intel" transform="translate(-1.000000, 82.000000)">
                <path d="M243.207108,301.009361 C142.033969,310.343467 36.5829211,295.641553 21.8129426,216.568197 C14.5875098,177.587538 32.3679354,136.252451 55.9229543,110.56051 L55.9229543,96.8411805 C13.4908405,134.058041 -9.50505679,181.149295 3.7403715,236.777261 C20.659642,308.126583 111.139356,348.531226 249.281937,335.113954 C303.96169,329.814469 375.471721,312.232224 425.220057,284.904139 L425.220057,246.111367 C380.069642,273.015133 305.407136,295.23881 243.207108,301.009361 Z M509.731014,95.9143324 C485.732833,-21.2595818 258.242265,-28.6878511 111.5978,60.5844299 L111.5978,70.4444393 C258.074169,-4.86668677 465.843566,-4.4091061 484.760213,103.529589 C491.10831,139.235266 470.996114,176.434147 435.06671,197.853237 L435.06671,225.860051 C478.287167,210.005645 522.620474,158.726045 509.731014,95.9143324 Z" id="Shape"></path>
                <path d="M417.887014,78.5276074 L391.356101,78.5276074 L391.356101,197.044822 C391.356101,210.934291 398.050414,223.01307 417.887014,224.94279 L417.887014,78.5276074 Z M101.980349,121.800206 L75.4008878,121.800206 L75.3865031,199.231537 C75.3865031,213.1697 82.1023933,225.235854 101.980349,227.129504 L101.980349,121.800206 Z M75.4008878,82.1327555 L101.897637,82.1327555 L101.897637,107.35707 L75.4008878,107.35707 L75.4008878,82.1327555 Z M260.869142,225.90314 C239.394476,225.90314 230.306896,210.932488 230.306896,196.186368 L230.306896,93.3756236 L256.606754,93.3756236 L256.606754,121.800206 L276.413685,121.800206 L276.413685,143.106469 L256.606754,143.106469 L256.606754,194.556928 C256.606754,200.569716 259.453141,203.919672 265.704223,203.919672 L276.413685,203.919672 L276.413685,225.904042 L260.869142,225.90314 Z M309.264008,182.102124 C309.264008,195.602042 317.679999,205.522962 332.571833,205.522962 C344.24058,205.522962 349.991792,202.274902 356.727461,195.602042 L372.978657,211.129067 C362.559587,221.453064 351.643343,227.730061 332.377639,227.730061 C307.208784,227.730061 283.093614,213.952408 283.093614,173.785395 C283.093614,139.446314 304.165506,120.035504 331.794157,120.035504 C359.880423,120.035504 376.021036,142.759299 376.021036,172.587887 L376.021036,182.104829 L309.264008,182.104829 L309.264008,182.102124 Z M330.641577,141.852151 C321.639407,141.852151 314.723029,146.502413 311.791233,152.774902 C310.08394,156.545068 309.458203,159.48293 309.263109,164.11606 L349.795799,164.11606 C349.283342,152.774902 344.156969,141.852151 330.641577,141.852151 Z M173.411529,143.106469 C181.123564,143.106469 184.32957,146.930739 184.32957,153.137401 L184.32957,226.057338 L210.635721,226.057338 L210.635721,152.984105 C210.635721,138.177569 202.769948,121.828159 179.669803,121.828159 L125.33043,121.800206 L125.33043,226.057338 L151.64647,226.057338 L151.64647,143.106469 L173.411529,143.106469 Z M446.432694,99.7049218 C440.584386,99.7049218 435.916527,94.9744048 435.916527,89.1158137 C435.916527,83.2851765 440.584386,78.5276074 446.432694,78.5276074 C452.252234,78.5276074 457.030675,83.2851765 457.030675,89.1158137 C457.030675,94.9744048 452.251335,99.7049218 446.432694,99.7049218 Z M446.432694,80.2932102 C441.612897,80.2932102 437.736201,84.2888108 437.736201,89.1158137 C437.736201,93.9707706 441.612897,97.8960356 446.432694,97.8960356 C451.251593,97.8960356 455.253257,93.9707706 455.253257,89.1158137 C455.252357,84.2888108 451.252492,80.2932102 446.432694,80.2932102 Z M451.113139,95.462245 L449.140628,95.462245 C448.967029,95.4601611 448.810487,95.3570129 448.739652,95.1980358 L446.071277,90.6487682 C445.987666,90.5513805 445.765601,90.4404667 445.697273,90.4404667 L444.475466,90.4404667 L444.475466,94.9753066 C444.475466,95.1989376 444.321729,95.4631468 444.031337,95.4631468 L442.25212,95.4631468 C441.986901,95.4631468 441.80799,95.1989376 441.80799,94.9753066 L441.80799,83.5367614 C441.80799,82.8676719 442.030055,82.5926418 442.613538,82.5087802 C443.252761,82.4393464 444.919596,82.3554847 445.851909,82.3554847 C449.143325,82.3554847 451.075379,83.3275582 451.075379,86.3889583 L451.075379,86.6125893 C451.075379,88.5035337 450.144865,89.5342201 448.700094,89.9941064 L451.478153,94.7381495 C451.523629,94.8441123 451.547181,94.9582333 451.54738,95.073596 C451.543784,95.2530419 451.447585,95.462245 451.113139,95.462245 Z M448.558044,86.3889583 C448.558044,85.1111957 447.765983,84.7072172 446.070378,84.7072172 L444.390057,84.7072172 L444.390057,88.3358105 C444.654377,88.3358105 445.849212,88.3917182 446.070378,88.3917182 C447.765983,88.3917182 448.558044,87.8245251 448.558044,86.6125893 L448.558044,86.3889583 Z" id="Shape"></path>
            </g>
        </g>
    </g>
</svg>