<svg width="160" height="34" viewBox="0 0 160 34" fill="none" xmlns="http://www.w3.org/2000/svg">
<g clip-path="url(#clip0_112_5913)">
<path d="M82.1387 19.5309C82.1387 27.3601 88.6302 33.0871 96.8773 33.0871C105.124 33.0871 111.623 27.3601 111.623 19.5309V1.54317H103.637V18.6036C103.637 22.8298 100.707 25.6755 96.8558 25.6755C93.0049 25.6755 90.0743 22.844 90.0743 18.6036V1.54317H82.0893L82.1387 19.5309ZM132.958 8.74237H142.486V32.4932H150.471V8.74237H159.999V1.52899H132.957L132.958 8.74237ZM127.797 1.52899H119.812V32.4924H127.797V1.52899ZM49.8791 8.74237H59.4074V32.4932H67.3926V8.74237H76.9137V1.52899H49.8791V8.74237ZM7.98613 1.52899H0.000976562V32.4924H7.98613V1.52899ZM45.6741 14.4623C45.6741 6.63287 39.1826 0.913086 30.9286 0.913086C22.6745 0.913086 16.1831 6.63287 16.1831 14.4623V32.4924H24.1683V15.432C24.1683 11.2058 27.0991 8.36008 30.95 8.36008C34.8009 8.36008 37.7317 11.1916 37.7317 15.432V32.4924H45.7169L45.6673 14.4623H45.6741Z" fill="#236CFF"/>
</g>
<defs>
<clipPath id="clip0_112_5913">
<rect width="160" height="32.174" fill="white" transform="translate(0 0.913086)"/>
</clipPath>
</defs>
</svg>
