<svg width="138" height="40" viewBox="0 0 138 40" fill="none" xmlns="http://www.w3.org/2000/svg">
<g clip-path="url(#clip0_112_5988)">
<path d="M20.8167 33.1105C19.9758 33.3692 19.1348 34.1347 18.7143 35.0296C18.3801 35.7628 18.3908 37.3908 18.7359 38.0377C19.1132 38.7493 19.6846 39.3207 20.3531 39.6442C20.8922 39.9137 21.0863 39.946 21.9919 39.946C22.9084 39.946 23.0809 39.9137 23.6523 39.6226C24.4286 39.2345 25.0431 38.5552 25.345 37.7466C25.5283 37.2614 25.5607 36.9811 25.5283 36.2803C25.4636 35.256 25.1941 34.6091 24.5687 33.9838C23.8679 33.2938 23.2749 33.0566 22.1536 33.0242C21.6253 33.0134 21.0216 33.0458 20.8167 33.1105ZM23.1995 34.566C24.4609 35.4501 24.5256 37.3692 23.3288 38.3611C22.2291 39.2776 20.655 38.9218 20.0081 37.6064C19.566 36.7115 19.6739 35.7412 20.2992 34.9757C21.0108 34.1132 22.3046 33.9299 23.1995 34.566Z" fill="#409640"/>
<path d="M69.8735 33.229C69.8196 33.3692 69.1403 34.8786 68.3641 36.5929C67.5878 38.318 66.9517 39.7519 66.9517 39.8058C66.9517 39.849 67.232 39.8921 67.5878 39.8921H68.2131L68.5689 39.0835L68.9247 38.2641L70.4988 38.2964L72.0622 38.3287L72.3964 39.105L72.7199 39.8921H73.3991C73.7657 39.8921 74.0676 39.8597 74.0676 39.8274C74.0676 39.7843 73.3991 38.2317 72.5905 36.3773L71.1134 32.9918H70.542C70.046 32.9918 69.949 33.0242 69.8735 33.229ZM71.0918 35.9137C71.3614 36.5498 71.5878 37.0996 71.5878 37.132C71.5878 37.1643 71.1026 37.1967 70.5096 37.1967C69.9166 37.1967 69.4314 37.1859 69.4314 37.1643C69.4314 37.1104 70.2832 35.1482 70.4126 34.911C70.4773 34.7924 70.542 34.7169 70.5635 34.7385C70.5743 34.7492 70.8115 35.2883 71.0918 35.9137Z" fill="#409640"/>
<path d="M96.1916 35.5471L96.2239 38.1131L96.5581 38.7061C97.0325 39.5471 97.701 39.8921 98.8546 39.8921C100.343 39.8921 101.151 39.4824 101.701 38.4473C101.917 38.0376 101.938 37.822 101.971 35.4932L102.014 32.9918H101.356H100.698V35.2775C100.698 37.2506 100.677 37.6279 100.504 37.9406C100.213 38.5336 99.8142 38.76 99.1026 38.7492C98.3695 38.7492 97.9705 38.5336 97.6687 37.9406C97.4854 37.574 97.4638 37.2937 97.4638 35.256V32.9918H96.8061H96.1484L96.1916 35.5471Z" fill="#409640"/>
<path d="M122.811 33.1752C122.1 33.4232 121.162 34.3935 120.871 35.1806C120.396 36.4852 120.644 37.9083 121.528 38.8679C122.24 39.6442 122.919 39.9353 124.04 39.9353C125.108 39.9353 125.863 39.6981 126.466 39.159L126.908 38.7601L126.488 38.3504L126.067 37.9407L125.733 38.221C124.159 39.5364 122.003 38.5445 122.013 36.4959C122.013 36.0539 122.078 35.7089 122.24 35.407C122.509 34.8787 123.124 34.3181 123.534 34.221C123.695 34.1887 123.889 34.1348 123.965 34.1132C124.256 34.0269 125.129 34.3073 125.593 34.6307L126.067 34.9757L126.423 34.5445C126.628 34.3181 126.79 34.0701 126.79 34.0162C126.79 33.8544 126.003 33.3369 125.485 33.1536C124.903 32.938 123.426 32.9596 122.811 33.1752Z" fill="#409640"/>
<path d="M132.03 33.1428C131.491 33.3476 130.93 33.8975 130.768 34.3719C130.607 34.8678 130.704 35.7519 130.962 36.0969C131.264 36.5066 131.89 36.8301 132.774 37.0457C133.183 37.1428 133.701 37.3153 133.916 37.4231C134.52 37.725 134.617 38.1778 134.164 38.6091C133.938 38.8139 133.776 38.8678 133.28 38.8678C132.677 38.8678 132.342 38.7384 131.469 38.2209L131.135 38.0161L130.801 38.3934C130.617 38.5983 130.456 38.8139 130.456 38.8678C130.456 39.0403 131.545 39.6657 132.138 39.849C132.806 40.0538 133.744 40.043 134.369 39.8274C135.663 39.3853 136.138 37.7573 135.243 36.7654C134.865 36.3557 134.542 36.2048 133.173 35.8058C132.084 35.4824 131.76 35.0942 132.073 34.5013C132.332 34.0161 133.582 34.0484 134.359 34.5552C134.585 34.7061 134.79 34.8247 134.811 34.8247C134.833 34.8247 135.005 34.6199 135.189 34.3719C135.491 33.9622 135.501 33.9083 135.35 33.7358C134.822 33.1535 132.925 32.8085 132.03 33.1428Z" fill="#409640"/>
<path d="M3.12402 36.5068V39.9031L5.3127 39.8707C7.45826 39.8384 7.50138 39.8384 7.98656 39.5473C8.57955 39.2023 8.83831 38.7279 8.83831 37.9839C8.83831 37.337 8.5472 36.8303 8.02968 36.5823L7.66311 36.4098L8.02968 36.0001C8.67658 35.2777 8.63346 34.275 7.92187 33.6497C7.38278 33.1861 6.95152 33.0998 4.93534 33.0998H3.12402V36.5068ZM6.78979 34.426C7.14559 34.6093 7.30731 35.0621 7.12402 35.4071C6.91917 35.7845 6.53103 35.9139 5.42052 35.9785L4.41782 36.0432V35.1591V34.2858H5.47443C6.09976 34.2858 6.62807 34.3397 6.78979 34.426ZM7.22106 37.2508C7.83561 37.5742 7.74936 38.3721 7.05933 38.6632C6.82214 38.7602 6.30462 38.8141 5.60381 38.8141H4.52564V37.9516V37.0891H5.71162C6.57416 37.0891 6.99464 37.1322 7.22106 37.2508Z" fill="#409640"/>
<path d="M12.9353 36.4959V39.8921H13.5822H14.2291V36.4959V33.0996H13.5822H12.9353V36.4959Z" fill="#409640"/>
<path d="M28.8923 33.6926V34.2856H29.9705H31.0487V37.0889V39.8921H31.6417H32.2347V37.0889V34.2856H33.3128H34.391V33.6926V33.0996H31.6417H28.8923V33.6926Z" fill="#409640"/>
<path d="M38.2722 36.4959V39.8921H38.8652H39.4582V38.4905V37.0889H41.0215H42.5849V38.4905V39.8921H43.2318H43.8787V36.4959V33.0996H43.2318H42.5849V34.5013V35.9029H41.0215H39.4582V34.5013V33.0996H38.8652H38.2722V36.4959Z" fill="#409640"/>
<path d="M48.4072 36.4959V39.8921H50.9409H53.4746V39.353V38.8139H51.5878H49.701V37.9514V37.0889H51.3722H53.0433V36.4959V35.9029H51.3722H49.701V35.0942V34.2856H51.5878H53.4746V33.6926V33.0996H50.9409H48.4072V36.4959Z" fill="#409640"/>
<path d="M57.6794 36.4959V39.8921H58.3263H58.9732V38.7061V37.5201H59.6525H60.321L61.1296 38.7061L61.9382 39.8813L62.736 39.8921C63.3506 39.8921 63.5015 39.8597 63.4261 39.7519C63.0595 39.2883 61.7765 37.4339 61.7765 37.38C61.7765 37.3368 61.9705 37.2075 62.2077 37.0889C62.8654 36.7546 63.1997 36.1616 63.2104 35.3314C63.2212 34.2101 62.7037 33.4878 61.6794 33.2075C61.4638 33.1535 60.4827 33.0996 59.4908 33.0996H57.6794V36.4959ZM61.6255 34.6414C61.7873 34.8355 61.8843 35.0835 61.8843 35.3207C61.8843 36.1832 61.4207 36.442 59.8897 36.442H58.8654V35.353V34.2641L60.1161 34.3072C61.3344 34.3395 61.3668 34.3503 61.6255 34.6414Z" fill="#409640"/>
<path d="M77.949 36.4959V39.8921H78.5959H79.2428V38.8139V37.7358H80.1377C80.6336 37.7358 81.2913 37.6603 81.604 37.5632C83.2104 37.0889 83.7603 35.105 82.6282 33.8544C82.0568 33.229 81.5501 33.0996 79.5986 33.0996H77.949V36.4959ZM81.3775 34.4581C81.5393 34.5875 81.7333 34.8247 81.8196 34.9864C81.949 35.256 81.949 35.3638 81.8196 35.7196C81.604 36.3449 81.1511 36.5498 80.0298 36.5498H79.135V35.353V34.1562L80.1053 34.1994C80.86 34.2317 81.1403 34.2964 81.3775 34.4581Z" fill="#409640"/>
<path d="M87.0054 36.4959V39.8921H89.593H92.1806V39.353V38.8139H90.2399H88.2992V37.9514V37.0889H90.0242H91.7493V36.4959V35.9029H90.0242H88.2992V35.0942V34.2856H90.2399H92.1806V33.6926V33.0996H89.593H87.0054V36.4959Z" fill="#409640"/>
<path d="M105.766 33.6926V34.2856H106.844H107.922V37.0889V39.8921H108.569H109.216V37.0889V34.2856H110.294H111.372V33.6926V33.0996H108.569H105.766V33.6926Z" fill="#409640"/>
<path d="M115.146 36.4959V39.8921H115.793H116.44V36.4959V33.0996H115.793H115.146V36.4959Z" fill="#409640"/>
<path d="M17.6579 9.7683C17.1404 11.5365 17.1296 13.6928 17.6255 15.3101C18.294 17.4556 19.6956 19.3856 21.6687 20.8303C22.6606 21.5635 24.6013 22.275 25.9813 22.4152C27.0487 22.5338 28.5366 22.4691 29.1188 22.3074L29.5932 22.1672L28.7306 22.0918C24.7199 21.7252 20.9139 19.1591 19.2104 15.6767C18.2724 13.7575 17.9921 12.6794 17.9059 10.6308L17.8412 9.13218L17.6579 9.7683Z" fill="#96C140"/>
<path d="M24.0943 0.0862428C23.3288 0.161714 21.9811 0.485165 21.1294 0.77627C18.6927 1.62802 16.3531 3.34231 14.7897 5.44473C14.0674 6.41508 13.1401 8.21562 12.7736 9.38004C12.5256 10.1887 12.1482 12.1833 12.2345 12.2695C12.2453 12.2911 12.4609 11.8922 12.6981 11.3962C14.0027 8.7008 16.4609 6.55525 19.2426 5.68193C20.5795 5.26145 21.6038 5.14285 23.1455 5.20754C24.849 5.28301 25.8841 5.54177 27.3288 6.24258C30.283 7.68732 32.2884 10.1348 33.1833 13.3477C33.4312 14.2749 33.4636 14.5876 33.4744 16.0647C33.4744 17.8976 33.345 18.6307 32.7843 20.1078C31.6846 22.9542 29.0215 25.4879 26.1428 26.4259C25.0215 26.7817 25.0323 26.8679 26.1967 26.7924C29.6253 26.5445 32.6981 25.1968 34.9299 22.9649C38.6172 19.2884 39.8463 14.3396 38.3261 9.38004C37.248 5.86522 34.7358 2.98651 31.318 1.33692C29.1186 0.269531 26.5202 -0.172517 24.0943 0.0862428Z" fill="#15406B"/>
<path d="M64.7198 0.409758C64.6551 0.452884 64.3208 1.28307 63.9866 2.26421C63.6524 3.24534 63.2103 4.52836 62.9947 5.12135C62.6065 6.24264 61.0001 10.8895 59.9974 13.8006C59.6739 14.717 58.8006 17.2399 58.0567 19.4071C55.8357 25.8006 55.8788 25.6604 56.0621 25.7682C56.1807 25.8437 56.6982 25.8114 56.7737 25.7251C56.7844 25.7143 57.3882 23.9677 58.1322 21.8329L59.4906 17.9515L63.0486 17.9192L66.6065 17.8976L66.7251 18.2426C66.7898 18.4367 67.2427 19.8815 67.7386 21.4556C68.2346 23.0297 68.6766 24.4205 68.7198 24.5499C68.7952 24.7871 68.7952 24.7871 67.3074 24.8195L65.8195 24.8518L65.7871 25.3046L65.7548 25.7682H73.3559H80.9677V25.2831V24.7979H79.4044H77.8411V13.7251C77.8411 7.63348 77.8842 2.69547 77.9273 2.76016C78.0243 2.8572 78.4233 3.5041 80.9677 7.60113C81.8195 8.95962 82.8114 10.5661 83.1888 11.1591C83.5553 11.7521 84.0405 12.5284 84.2669 12.8842C84.4826 13.2399 84.7737 13.7036 84.903 13.9084C85.0324 14.1133 85.9597 15.5904 86.9516 17.1968C87.9435 18.7925 89.054 20.5823 89.4206 21.1537C90.0567 22.1564 90.5526 22.965 91.9866 25.2615L92.6443 26.3181L93.0863 26.2858L93.5284 26.2534L93.5607 14.0378L93.5823 1.83294H95.1456H96.709V1.40167V0.970405L93.0756 0.991968L89.4313 1.02431V1.40167V1.77903L90.9947 1.83294L92.558 1.88685L92.5904 9.59574L92.6119 17.2939L92.2777 16.7763C91.9758 16.2912 88.4179 10.4367 84.9354 4.69008C84.1052 3.33159 83.2535 1.95154 83.0378 1.61731L82.6389 1.02431H78.1645H73.6901V1.40167V1.77903L75.2319 1.81138L76.7629 1.84372V13.3693V24.9057H75.5553C74.8869 24.9057 74.2831 24.8626 74.2184 24.8195C74.1537 24.7763 73.9273 24.2157 73.7009 23.5796C73.4853 22.9327 72.806 20.992 72.1915 19.2669C71.5769 17.5311 70.4987 14.5122 69.8087 12.5607C69.1079 10.5984 68.3316 8.39898 68.0621 7.65504C67.7925 6.91111 67.5446 6.18873 67.4906 6.03779C66.8761 4.16178 65.5068 0.474448 65.4098 0.409758C65.2481 0.301941 64.8923 0.301941 64.7198 0.409758ZM63.965 9.59574C65.1834 13.4556 66.1753 16.5391 66.2508 16.7332C66.3262 16.9165 66.1322 16.9273 63.0702 16.9273C60.0082 16.9273 59.8141 16.9165 59.8896 16.7332C59.9866 16.496 61.7332 11.3424 62.4987 9.02431C62.833 8.0324 63.1456 7.25612 63.1888 7.29925C63.2319 7.34237 63.5769 8.37741 63.965 9.59574Z" fill="#15406B"/>
<path d="M105.442 0.582228C99.9651 1.72509 96.0406 7.87064 96.5904 14.4582C96.7198 16 96.8815 16.7979 97.3128 18.1564C98.1646 20.8194 99.9974 23.31 102.175 24.7547C103.652 25.7467 105.183 26.2642 106.962 26.3828C108.148 26.4582 108.698 26.372 111.156 25.7574C113.097 25.2723 113.906 25.2183 114.456 25.5634C114.661 25.682 114.855 25.9084 114.887 26.0485C114.941 26.275 115.016 26.3073 115.426 26.3073H115.9V21.3477V16.3882H115.469C115.232 16.3882 115.038 16.4205 115.038 16.4744C115.038 16.5175 114.984 16.9704 114.93 17.4663C114.477 21.1105 112.256 24.1617 109.259 25.2399C108.31 25.5849 106.402 25.5849 105.496 25.2291C103.706 24.5391 102.822 22.7925 102.348 19.0836C102.078 16.9488 102.078 9.57414 102.348 7.65501C102.855 4.02158 103.76 2.28573 105.496 1.61727C106.423 1.27226 108.051 1.26147 108.914 1.60649C111.642 2.67387 113.917 5.64962 114.337 8.64692L114.402 9.16444H114.833H115.254L115.232 4.81943L115.2 0.485193L114.833 0.452848C114.563 0.420503 114.434 0.474412 114.316 0.636137C114.229 0.765517 113.96 0.970369 113.712 1.08897C113.324 1.29382 113.151 1.31538 112.342 1.26147C111.836 1.22913 110.844 1.04584 110.132 0.862552C108.59 0.452848 106.628 0.33425 105.442 0.582228Z" fill="#15406B"/>
<path d="M36.3315 1.34782V1.83299L38.0674 1.85456L39.8032 1.8869L41.0324 4.90577C41.7008 6.56615 42.4987 8.50685 42.7898 9.21844C43.0809 9.93003 44.1806 12.6254 45.2264 15.2023C48.2345 22.6201 49.7224 26.2535 49.7547 26.2858C49.7763 26.3074 49.9811 26.3505 50.2183 26.3829L50.6496 26.4368L52.3962 21.1214C54.1429 15.7737 55.7062 11.019 57.8302 4.57154C58.4555 2.67396 58.9731 1.05671 58.9731 0.98124C58.9731 0.894987 58.8437 0.862642 58.5741 0.884205L58.1752 0.91655L57.2264 3.8276C56.6981 5.42329 55.4906 9.11062 54.5418 12.0217C53.593 14.9219 52.655 17.7575 52.4609 18.3074L52.1159 19.3101L49.8086 13.5095C48.5472 10.3182 46.9838 6.39364 46.3477 4.79795L45.1941 1.8869L46.9084 1.85456L48.6226 1.83299V1.34782V0.862642H42.4771H36.3315V1.34782Z" fill="#15406B"/>
<path d="M118.024 0.938122C117.981 0.970467 117.949 1.19688 117.949 1.4233V1.833H119.566H121.183L121.162 13.337L121.13 24.8519L119.545 24.8842L117.949 24.9166V25.337V25.7683H127.868C137.237 25.7683 137.787 25.7575 137.798 25.5742C137.83 24.8842 137.841 17.585 137.809 17.3802C137.766 17.1861 137.69 17.143 137.41 17.143C137.054 17.143 137.043 17.143 136.979 17.7575C136.763 19.8707 136.03 21.5958 134.822 22.7926C133.992 23.6443 133.41 23.9893 132.127 24.4314C131.297 24.7225 131.167 24.7333 128.709 24.7764L126.143 24.8195V19.1376V13.4449L126.984 13.4988C129.033 13.6281 130.326 15.0837 130.628 17.6066L130.693 18.2211H131.113H131.534V12.992V7.76292H131.103C130.693 7.76292 130.671 7.7737 130.671 8.10793C130.671 8.302 130.596 8.76562 130.51 9.12141C130.014 11.2454 128.601 12.5069 126.758 12.5069H126.143V7.15915V1.81144L128.386 1.85456C130.305 1.89769 130.704 1.94082 131.232 2.13489C133.431 2.94351 134.768 4.87343 135.124 7.78448L135.243 8.84109H135.706H136.17L136.148 4.87343L136.116 0.916559L127.103 0.884214C122.154 0.873432 118.057 0.894996 118.024 0.938122Z" fill="#15406B"/>
<path d="M0.14826 1.12136C0.115915 1.20762 0.105134 1.3909 0.126697 1.53107C0.159042 1.77904 0.180605 1.77904 1.75473 1.81139L3.33963 1.84373L3.31807 13.3478L3.28573 24.8518L1.72238 24.9057L0.159042 24.9596V25.337V25.7144H5.86255C11.4798 25.7144 11.566 25.7144 11.5984 25.4987C11.6846 24.9381 11.6307 24.9165 9.99193 24.8842L8.46093 24.8518L8.42858 13.337L8.40702 1.83295H9.97036H11.5337L11.5984 1.56341C11.7493 0.938074 12.0404 0.970419 5.87333 0.970419C1.0647 0.970419 0.202169 0.991982 0.14826 1.12136Z" fill="#15406B"/>
<path d="M16.6768 10.8894C16.3749 11.8598 16.2778 12.5822 16.2778 13.7681C16.2778 15.2345 16.515 16.3234 17.0972 17.5633C19.0811 21.7789 22.9948 24.0539 27.3183 23.5148C28.3856 23.3854 28.8169 23.1805 28.0299 23.1805C26.9517 23.1805 24.8708 22.6307 23.6633 22.0269C20.6875 20.5283 18.7253 18.4043 17.6794 15.5471C17.1835 14.1886 17.011 13.3261 16.9355 11.752L16.86 10.2964L16.6768 10.8894Z" fill="#96C16B"/>
<path d="M15.771 11.6658C15.329 12.6901 15.1349 15.3208 15.4152 16.496C16.1592 19.6334 18.9732 22.8248 22.1645 24.151C23.2751 24.6146 24.7629 24.7763 26.2831 24.6038C26.9085 24.5283 27.4691 24.4313 27.5123 24.3882C27.5662 24.3343 27.2104 24.2588 26.7144 24.2264C25.6039 24.151 24.0082 23.7413 23.0163 23.2777C18.6282 21.2399 16.1915 17.6496 15.9651 12.8841C15.9004 11.6119 15.868 11.4178 15.771 11.6658Z" fill="#C1EC96"/>
<path d="M14.7468 12.7224C14.3155 14.1456 14.2077 16.1294 14.488 17.4771C14.8438 19.1483 15.8465 20.9273 17.2374 22.3504C18.639 23.7952 19.922 24.6254 21.5608 25.1429C22.2832 25.3585 22.5743 25.3909 24.2023 25.3909C26.4557 25.3801 27.0703 25.2184 25.5716 25.0243C24.17 24.8518 22.0891 24.2264 21.1296 23.6981C18.8007 22.4259 16.8708 20.3235 15.8897 18.0054C15.3829 16.7979 15.081 15.2884 14.9948 13.5849L14.9301 12.1294L14.7468 12.7224Z" fill="#ECECC1"/>
<path d="M13.8841 13.2615C13.6792 13.7143 13.4636 14.717 13.3773 15.6119C13.1833 17.5095 13.5499 19.3962 14.4663 21.1429C16.0835 24.2372 19.1132 26.1995 22.5849 26.3828C23.8248 26.4475 25.7116 26.2534 25.593 26.0809C25.5606 26.027 25.2587 25.9838 24.9029 25.9838C23.3396 25.9838 20.31 24.8733 18.7682 23.7305C17.3773 22.6954 15.9865 21.0782 15.2641 19.6442C14.8976 18.9326 14.3153 17.1537 14.4016 17.0243C14.4339 16.9704 14.4124 16.9272 14.3585 16.9272C14.2075 16.9272 14.0997 16.1833 14.0242 14.5553C13.9811 13.7574 13.9164 13.1752 13.8841 13.2615Z" fill="#ECECEC"/>
</g>
<defs>
<clipPath id="clip0_112_5988">
<rect width="137.79" height="40" fill="white" transform="translate(0.105225)"/>
</clipPath>
</defs>
</svg>
