<svg width="160" height="26" viewBox="0 0 160 26" fill="none" xmlns="http://www.w3.org/2000/svg">
<g clip-path="url(#clip0_112_6054)">
<path d="M159.813 2.68638H157.189C157.052 2.67591 157.026 2.58725 157.023 2.53558V2.51394C157.024 2.50556 157.025 2.49998 157.025 2.49998L157.023 2.50138V0.925689V0.92499C157.023 0.822365 156.939 0.738589 156.835 0.738589H153.551C153.448 0.738589 153.364 0.822365 153.364 0.925689V2.49998C153.364 2.49998 153.364 2.50068 153.364 2.50138V2.54955C153.358 2.60121 153.327 2.67661 153.203 2.68638H144.665C144.529 2.67591 144.503 2.58725 144.501 2.53558V2.51394C144.501 2.50556 144.502 2.49998 144.502 2.49998L144.501 2.50138V0.925689C144.501 0.822365 144.417 0.738589 144.313 0.738589C144.312 0.738589 144.312 0.738589 144.312 0.738589H141.029C140.925 0.738589 140.841 0.822365 140.841 0.925689V2.49998C140.841 2.49998 140.841 2.50068 140.841 2.50138V2.54955C140.835 2.60121 140.803 2.67661 140.68 2.68638H138.063C137.894 2.68638 137.894 2.83997 137.894 2.83997V5.30299C137.894 5.30368 137.894 5.30368 137.894 5.30368C137.894 5.40701 137.978 5.49078 138.081 5.49078H140.656C140.8 5.49218 140.835 5.57456 140.841 5.62971V5.67719C140.841 5.67788 140.841 5.67858 140.841 5.67858V7.58658C140.841 7.68991 140.925 7.77368 141.029 7.77368H144.312C144.312 7.77368 144.313 7.77368 144.313 7.77368C144.417 7.77368 144.501 7.68991 144.501 7.58658V5.67719L144.502 5.67858C144.502 5.67858 144.501 5.6737 144.501 5.66462V5.64298C144.503 5.58852 144.53 5.49218 144.687 5.49078H153.179C153.323 5.49218 153.357 5.57456 153.364 5.62971V5.67719C153.364 5.67788 153.364 5.67858 153.364 5.67858V7.58658C153.364 7.68991 153.448 7.77368 153.551 7.77368H156.835C156.835 7.77368 156.835 7.77368 156.836 7.77368C156.939 7.77368 157.023 7.68991 157.023 7.58658V5.67719L157.025 5.67858C157.025 5.67858 157.024 5.6737 157.023 5.66462V5.64298C157.026 5.58852 157.053 5.49218 157.21 5.49078H159.813C159.916 5.49078 160 5.40701 160 5.30368V2.87348C160 2.77016 159.916 2.68638 159.813 2.68638Z" fill="#00DC5A"/>
<path d="M88.9507 3.88576C88.9507 3.88576 88.9528 4.15454 89.26 4.15454C91.094 4.15454 100.799 4.00654 102.853 4.00654C104.437 4.00654 107.358 3.85504 108.916 3.59115C109.012 3.57509 109.158 3.47875 109.123 3.22602C109.087 2.9733 108.781 1.2894 108.722 1.10998C108.663 0.929862 108.55 0.877502 108.378 0.899144C106.46 1.18678 104.193 1.29499 102.252 1.29499C102.252 1.29499 89.5909 1.44299 89.2656 1.44299C88.9409 1.44299 88.9507 1.7376 88.9507 1.7376V3.88576Z" fill="#00DC5A"/>
<path d="M108.785 6.5817H106.904C106.904 6.5817 106.832 6.581 106.832 6.5049C106.828 5.67203 106.826 5.14843 106.826 5.14843C106.826 5.14843 106.839 4.96343 106.636 4.96343H103.555C103.362 4.96343 103.355 5.161 103.355 5.161C103.355 5.161 103.355 5.6825 103.355 6.5049C103.355 6.581 103.284 6.5817 103.284 6.5817H100.605C100.605 6.5817 100.534 6.581 100.534 6.5049C100.53 5.67203 100.534 5.14843 100.534 5.14843C100.534 5.14843 100.541 4.96343 100.338 4.96343H97.1221C96.9294 4.96343 96.9231 5.161 96.9231 5.161C96.9231 5.161 96.9231 5.6825 96.9231 6.5049C96.9231 6.581 96.8512 6.5817 96.8512 6.5817H94.0838C94.0838 6.5817 94.0126 6.581 94.0126 6.5049C94.0098 5.67203 94.0063 5.14843 94.0063 5.14843C94.0063 5.14843 94.0196 4.96343 93.8164 4.96343H90.7348C90.5296 4.96343 90.5359 5.161 90.5359 5.161C90.5359 5.161 90.5359 5.6825 90.5359 6.5049C90.5359 6.581 90.4647 6.5817 90.4647 6.5817H87.6756C87.4808 6.5817 87.374 6.69619 87.374 6.86235C87.374 7.66241 87.3747 9.63743 87.374 10.0912C87.374 10.0912 87.3698 10.3041 87.5974 10.3041H90.8417C91.0755 10.3041 91.0623 10.1073 91.0623 10.1073C91.0623 9.86223 91.063 9.58786 91.063 9.35329C91.063 9.35329 91.0644 9.18085 91.2473 9.18085H100.405V9.17736H106.236C106.432 9.17736 106.472 9.27161 106.472 9.4231V10.2406C106.472 10.2406 106.472 10.4473 106.663 10.4473H109.967C110.147 10.4473 110.158 10.2574 110.158 10.2574C110.156 9.73377 110.158 8.8269 110.158 8.3752C110.158 7.35942 109.905 6.5817 108.785 6.5817Z" fill="#00DC5A"/>
<path d="M108.92 11.1124H95.914C95.8345 11.1124 95.847 11.0474 95.847 11.0474C95.8826 10.7856 95.9064 10.5909 95.9308 10.3172C95.9427 10.1832 95.8365 10.1078 95.7444 10.1078H92.3152C92.2474 10.1078 92.2035 10.1371 92.1692 10.1769C92.1302 10.2216 92.1281 10.2837 92.1281 10.2837C92.1085 10.5762 92.0855 10.7898 92.0492 11.083C92.0492 11.0837 92.0485 11.0844 92.0485 11.0858C92.0485 11.0824 92.0492 11.0796 92.0499 11.0768C92.0471 11.0998 92.0219 11.1138 92.0017 11.1124H88.104C88.1033 11.1124 88.1033 11.1124 88.1026 11.1124C87.9993 11.1124 87.9148 11.1961 87.9148 11.2995V13.5949C87.9148 13.6983 87.9993 13.782 88.1026 13.782H91.432C91.432 13.782 91.4886 13.782 91.4767 13.8281C90.6019 16.8406 88.9306 19.8795 86.6533 22.8689C86.529 23.0658 86.6777 23.1524 86.6777 23.1524C86.7322 23.1943 89.1743 24.867 89.2811 24.934C89.4032 25.0101 89.5191 24.9501 89.5638 24.8928C91.5388 22.3488 92.9533 19.8418 94.027 17.3795C94.027 17.3795 94.0577 17.2957 94.1917 17.2957H103.647C103.997 17.2957 103.828 17.5841 103.795 17.6671C103.471 18.4812 102.712 19.5989 101.002 20.5476L100.862 20.6272C100.828 20.6454 100.795 20.6614 100.761 20.6789C99.4291 20.126 98.3638 19.0543 97.9023 18.4414C97.873 18.4058 97.7927 18.3541 97.6342 18.3541H94.1896C93.7589 18.3541 94.0479 18.8156 94.0479 18.8156V18.8149C94.7447 19.8795 95.572 20.852 96.8056 21.7819C95.3667 22.1575 93.6716 22.3251 91.9661 22.3412C91.8223 22.3425 91.7441 22.4403 91.7441 22.5401V25.1456C91.7441 25.3375 91.9228 25.3648 92.0122 25.3662C94.6497 25.3997 97.8849 24.8747 100.708 23.9378C103.05 24.8049 106.052 25.3606 108.878 25.3606C108.985 25.3606 109.075 25.311 109.075 25.177V22.5303C109.075 22.4082 109.019 22.3391 108.88 22.3342C107.058 22.2685 105.902 22.0975 104.769 21.7652C105.569 21.0622 106.443 20.1434 106.888 19.4327C107.558 18.3653 107.885 17.4116 108.02 16.6772C108.091 16.2932 108.094 14.9326 106.672 14.9326H95.0511C94.9555 14.9326 94.9806 14.8634 94.9806 14.8634L94.9799 14.8641C95.0881 14.5262 95.1887 14.1883 95.2801 13.8518C95.2801 13.8518 95.2997 13.782 95.3583 13.782H108.924C109.025 13.7799 109.107 13.6969 109.107 13.5949V11.2995C109.107 11.1961 109.023 11.1124 108.92 11.1124Z" fill="#00DC5A"/>
<path d="M113.842 5.24445H120.567C120.594 5.24515 120.647 5.25283 120.61 5.3017C119.086 6.86343 116.588 7.44776 114.5 7.7689C114.286 7.80172 114.153 7.83593 114.153 8.1075V10.248C114.153 10.5112 114.357 10.4707 114.458 10.4595C116.912 10.1817 119.724 9.38508 121.365 8.27156C122.496 7.50431 123.365 6.81944 124.076 5.86998C126.025 8.61644 129.123 10.0246 133.936 10.4574C134.027 10.4658 134.213 10.4316 134.213 10.2564V8.03908C134.213 7.78775 134.073 7.79334 133.966 7.78147C131.358 7.49943 128.769 6.65259 127.444 5.3024C127.406 5.25283 127.46 5.24515 127.487 5.24445H134.228C134.228 5.24445 134.412 5.24027 134.412 5.06992V2.59643C134.412 2.41143 134.191 2.4205 134.191 2.4205H126.145C126.035 2.41143 126.014 2.34371 126.012 2.30392V2.27948C126.012 2.27739 126.012 2.27459 126.012 2.27459V2.27529V0.800834C126.012 0.631188 125.858 0.632584 125.858 0.632584L122.22 0.631886C122.22 0.631886 122.051 0.62281 122.051 0.822477V2.27529V2.27459V2.27669V2.30741C122.047 2.3472 122.025 2.41143 121.917 2.4205H121.843H113.82C113.65 2.4205 113.651 2.57409 113.651 2.57409V5.07551C113.651 5.07551 113.642 5.24445 113.842 5.24445Z" fill="#00DC5A"/>
<path d="M124.655 17.935V21.2211V21.3119C124.655 21.4787 124.519 21.6149 124.351 21.6149H123.418H117.899C117.731 21.6149 117.595 21.4787 117.595 21.3119V21.2211V17.935V17.8443C117.595 17.6767 117.731 17.5413 117.899 17.5413H123.418H124.048H124.351C124.519 17.5413 124.655 17.6767 124.655 17.8443V17.935ZM126.063 15.1327H124.048H123.418H116.188C115.084 15.1327 114.189 16.0249 114.189 17.1252V17.935V21.2211V22.0303C114.189 23.1312 115.084 24.0234 116.188 24.0234H123.418H124.462H126.063C127.166 24.0234 128.061 23.1312 128.061 22.0303V21.2211V17.935V17.1252C128.061 16.0249 127.166 15.1327 126.063 15.1327Z" fill="#00DC5A"/>
<path d="M135.224 10.904H112.839C112.736 10.904 112.651 10.9878 112.651 11.0911V13.5444C112.651 13.6477 112.735 13.7315 112.838 13.7315H130.031H130.052C130.105 13.7315 130.239 13.7678 130.239 13.9248C130.231 15.6555 130.239 19.0603 130.239 19.794C130.239 21.5282 130.09 22.1335 128.919 22.7088C128.794 22.7702 128.687 22.8966 128.778 23.0292C128.87 23.1618 130.454 25.2416 130.454 25.2416C130.454 25.2416 130.615 25.4852 130.974 25.2918C133.223 24.149 133.713 22.7876 133.833 20.2199C133.866 19.5092 133.844 15.733 133.836 13.922C133.836 13.8585 133.878 13.7315 134.03 13.7315H134.041H135.224C135.327 13.7315 135.411 13.6477 135.411 13.5444V11.0911C135.411 10.9878 135.327 10.904 135.224 10.904Z" fill="#00DC5A"/>
<path d="M158.79 22.3575H156.134H143.755C143.52 22.3575 143.309 22.1934 143.275 21.9631C143.243 21.7536 143.35 21.5658 143.518 21.4772L155.352 15.5668L157.046 14.7087C157.262 14.5929 157.631 14.3715 157.942 14.0727C158.19 13.8354 158.413 13.5324 158.564 13.1631C158.698 12.8224 158.77 12.4489 158.77 12.0614C158.77 10.5583 157.599 9.33521 156.106 9.28216C156.074 9.28146 156.043 9.28006 156.014 9.28006C156.011 9.28006 156.009 9.28006 156.006 9.28006C156.006 9.28006 156.005 9.28006 156.004 9.28006C156.004 9.28006 156.002 9.28006 156 9.28006H139.438C139.335 9.28006 139.252 9.36314 139.251 9.46577L139.25 9.46716V12.0761C139.25 12.178 139.332 12.2604 139.433 12.2625V12.2632H154.043C154.18 12.2632 154.309 12.3756 154.309 12.5131C154.309 12.6116 154.251 12.6883 154.168 12.7372L154.059 12.7966C154.059 12.7966 154.038 12.8084 154 12.828L153.757 12.9578C151.927 13.9324 141.413 19.04 140.424 19.7353C140.309 19.8058 140.201 19.8791 140.096 19.9538C139.888 20.0948 139.699 20.2617 139.533 20.4488C139.533 20.4488 139.531 20.4502 139.531 20.4516C139.497 20.4893 139.465 20.5277 139.433 20.5675C139.43 20.5717 139.426 20.5759 139.424 20.5801C139.394 20.6171 139.366 20.6541 139.339 20.6925C139.335 20.698 139.331 20.7036 139.327 20.7092C139.3 20.7469 139.275 20.786 139.25 20.8244C139.246 20.83 139.243 20.8356 139.239 20.8412C139.213 20.883 139.188 20.9256 139.163 20.9689C139.162 20.9717 139.161 20.9738 139.159 20.9766C139.107 21.0701 139.061 21.1665 139.019 21.2663C139.018 21.2677 139.017 21.2691 139.017 21.2705C138.998 21.3166 138.98 21.3627 138.963 21.4094C138.959 21.4227 138.955 21.4353 138.95 21.4485C138.938 21.4841 138.926 21.5204 138.915 21.5567C138.91 21.5742 138.905 21.5909 138.9 21.6084C138.891 21.6412 138.882 21.674 138.874 21.7075C138.869 21.7271 138.865 21.7466 138.86 21.7655C138.853 21.7976 138.847 21.8304 138.841 21.8625C138.837 21.8828 138.833 21.903 138.83 21.9233C138.825 21.9561 138.82 21.9889 138.816 22.0224C138.813 22.0426 138.81 22.0629 138.808 22.0831C138.804 22.1187 138.802 22.1543 138.799 22.1899C138.797 22.2081 138.795 22.2263 138.795 22.2437C138.792 22.2961 138.79 22.3491 138.79 22.4022C138.79 22.4036 138.79 22.405 138.79 22.4064C138.79 22.4566 138.791 22.5069 138.794 22.5572C138.795 22.5711 138.796 22.5844 138.797 22.5991C138.799 22.634 138.802 22.6696 138.805 22.7052C138.807 22.7233 138.809 22.7408 138.811 22.7589C138.816 22.7896 138.819 22.8204 138.823 22.8504C138.826 22.8706 138.83 22.8902 138.834 22.9097C138.839 22.9383 138.843 22.9663 138.848 22.9942C138.853 23.0144 138.858 23.0347 138.862 23.0549C138.869 23.0822 138.874 23.1087 138.881 23.1352C138.886 23.1562 138.892 23.1764 138.898 23.1974C138.905 23.2225 138.912 23.2483 138.92 23.2735C138.926 23.2944 138.933 23.3146 138.94 23.3356C138.948 23.36 138.957 23.3852 138.965 23.4096C138.973 23.4298 138.98 23.4501 138.988 23.4703C138.998 23.4948 139.007 23.5185 139.017 23.5422C139.025 23.5625 139.034 23.5827 139.043 23.6023C139.054 23.6253 139.063 23.6483 139.075 23.6714C139.084 23.6916 139.094 23.7112 139.104 23.7307C139.115 23.7531 139.126 23.7754 139.138 23.7977C139.149 23.8173 139.16 23.8361 139.17 23.8557C139.183 23.8773 139.195 23.899 139.207 23.9199C139.219 23.9395 139.231 23.9583 139.243 23.9772C139.255 23.9974 139.269 24.0184 139.283 24.0393C139.295 24.0575 139.308 24.0756 139.32 24.0945C139.334 24.114 139.348 24.1342 139.363 24.1538C139.376 24.1719 139.389 24.1901 139.403 24.2076C139.418 24.2264 139.433 24.246 139.448 24.2648C139.463 24.2823 139.477 24.2997 139.491 24.3165C139.507 24.3353 139.523 24.3535 139.539 24.3709C139.554 24.3884 139.57 24.4051 139.585 24.4219C139.601 24.4393 139.618 24.4561 139.635 24.4735C139.651 24.4896 139.667 24.5057 139.683 24.5217C139.7 24.5385 139.717 24.5545 139.734 24.5713C139.751 24.5866 139.769 24.602 139.785 24.6174C139.803 24.6334 139.821 24.6488 139.839 24.6641C139.857 24.6788 139.875 24.6935 139.892 24.7081C139.911 24.7228 139.93 24.7374 139.949 24.7521C139.967 24.7661 139.985 24.78 140.003 24.7933C140.023 24.8073 140.042 24.8212 140.062 24.8345C140.081 24.8477 140.099 24.861 140.119 24.8736C140.139 24.8868 140.158 24.8994 140.178 24.912C140.198 24.9245 140.218 24.9371 140.238 24.949C140.258 24.9608 140.279 24.972 140.299 24.9839C140.32 24.9957 140.34 25.0069 140.361 25.0181C140.382 25.0293 140.403 25.0397 140.424 25.0502C140.445 25.0607 140.466 25.0718 140.488 25.0816C140.509 25.0921 140.53 25.1012 140.552 25.1109C140.574 25.1207 140.595 25.1305 140.617 25.1396C140.639 25.1486 140.661 25.157 140.683 25.1654C140.705 25.1738 140.728 25.1828 140.75 25.1912C140.772 25.1989 140.795 25.2059 140.817 25.2136C140.84 25.2212 140.863 25.2289 140.886 25.2359C140.909 25.2429 140.932 25.2492 140.955 25.2555C140.978 25.2624 141.001 25.2694 141.025 25.275C141.048 25.2806 141.072 25.2862 141.095 25.2911C141.119 25.2966 141.143 25.3022 141.166 25.3071C141.19 25.312 141.214 25.3155 141.238 25.3197C141.262 25.3246 141.286 25.3288 141.31 25.3329C141.334 25.3364 141.359 25.3385 141.383 25.342C141.408 25.3448 141.432 25.3483 141.457 25.3511C141.505 25.356 141.554 25.3595 141.603 25.3623C141.654 25.3651 141.705 25.3665 141.758 25.3665H158.548H158.79C158.893 25.3665 158.978 25.2827 158.978 25.1794V22.7862V22.5446C158.978 22.4413 158.893 22.3575 158.79 22.3575Z" fill="#00DC5A"/>
<path d="M39.5879 25.1461C39.5879 25.2592 39.6877 25.3513 39.8113 25.3513H45.129C45.2518 25.3513 45.3517 25.2592 45.3517 25.1461V1.38579C45.3517 1.27269 45.2518 1.18054 45.129 1.18054H39.8113C39.6877 1.18054 39.5879 1.27269 39.5879 1.38579V25.1461Z" fill="#00DC5A"/>
<path d="M0.494873 25.1461C0.494873 25.2592 0.594706 25.3513 0.718276 25.3513H6.03596C6.15883 25.3513 6.25866 25.2592 6.25866 25.1461V10.1879C6.25866 10.0748 6.15883 9.9833 6.03596 9.9833H0.718276C0.594706 9.9833 0.494873 10.0748 0.494873 10.1879V25.1461Z" fill="#00DC5A"/>
<path d="M23.7106 20.1433C19.8583 20.838 16.1463 18.2151 15.4356 14.2965C14.7249 10.3771 17.2808 6.62327 21.1331 5.92863C24.9847 5.23399 28.6966 7.85687 29.4073 11.7755C30.118 15.6948 27.5629 19.4487 23.7106 20.1433ZM36.0787 21.268L33.4481 19.1618C33.3937 19.1185 33.3588 19.0591 33.3448 18.9949C33.3315 18.9307 33.3392 18.8623 33.372 18.8008C34.6301 16.4432 35.1327 13.6646 34.6196 10.8358C33.4041 4.13512 26.9583 -0.310593 20.222 0.90416C13.485 2.11961 9.00926 8.53616 10.224 15.2361C11.4388 21.9368 17.8853 26.3832 24.6216 25.1678C26.4947 24.8299 28.1919 24.0892 29.6419 23.0531C29.7487 22.9764 29.8932 22.9784 29.9959 23.0608L32.8177 25.32C32.9134 25.3968 33.0551 25.3793 33.134 25.2809L36.1087 21.5843C36.1883 21.4858 36.1743 21.3441 36.0787 21.268Z" fill="#00DC5A"/>
<path d="M79.4757 1.18053H74.158C74.0351 1.18053 73.9346 1.27269 73.9346 1.38578V25.1461C73.9346 25.2592 74.0351 25.3513 74.158 25.3513H79.4757C79.5992 25.3513 79.6991 25.2592 79.6991 25.1461V1.38578C79.6991 1.27269 79.5992 1.18053 79.4757 1.18053Z" fill="#00DC5A"/>
<path d="M3.37687 0.70679C1.51216 0.70679 0 2.21476 0 4.07459C0 5.93441 1.51216 7.44238 3.37687 7.44238C5.24159 7.44238 6.75374 5.93441 6.75374 4.07459C6.75374 2.21476 5.24159 0.70679 3.37687 0.70679Z" fill="#00DC5A"/>
<path d="M71.1197 1.18053H65.4536C65.3559 1.18053 65.2658 1.2301 65.2197 1.30899L59.9551 10.6465C59.9551 10.6465 59.9174 10.7149 59.8651 10.7163C59.8127 10.7149 59.775 10.6465 59.775 10.6465L54.5097 1.30899C54.4636 1.2301 54.3742 1.18053 54.2765 1.18053H48.6104C48.4589 1.18053 48.2844 1.33622 48.4094 1.5687L56.831 15.7017C56.9113 15.8378 56.9538 15.9935 56.9538 16.152V25.1049C56.9538 25.241 57.0641 25.3513 57.2003 25.3513H59.8651H62.5291C62.666 25.3513 62.7763 25.241 62.7763 25.1049V16.152C62.7763 15.9935 62.8189 15.8378 62.8991 15.7017L71.3207 1.5687C71.445 1.33622 71.2712 1.18053 71.1197 1.18053Z" fill="#00DC5A"/>
</g>
<defs>
<clipPath id="clip0_112_6054">
<rect width="160" height="24.7362" fill="white" transform="translate(0 0.631836)"/>
</clipPath>
</defs>
</svg>
