<svg width="102" height="40" viewBox="0 0 102 40" fill="none" xmlns="http://www.w3.org/2000/svg">
<path d="M56.4331 33.5234H57.1267V39.5923H56.4331V33.5234Z" fill="#82888F"/>
<path d="M77.2986 33.4656H77.9921V38.8987H80.8242V39.5923H77.2986V33.4656Z" fill="#82888F"/>
<path d="M32.5624 39.6499C31.1174 39.6499 30.4238 38.9564 30.4238 37.4536V33.4077H31.1174V37.4536C31.1174 38.5518 31.5798 39.0142 32.5624 39.0142C33.545 39.0142 34.0073 38.494 34.0073 37.4536V33.4077H34.7009V37.4536C34.7009 38.8986 34.0074 39.6499 32.5624 39.6499Z" fill="#82888F"/>
<path d="M26.2621 34.3902C26.1529 34.1655 25.995 33.9681 25.7997 33.8123C25.5956 33.6489 25.3592 33.5307 25.1061 33.4655L24.3548 33.3499L23.6034 33.4655L22.9098 33.8123C22.7197 33.9501 22.5619 34.1276 22.4474 34.3324C22.3204 34.5826 22.2606 34.8614 22.2739 35.1416C22.2673 35.3843 22.3273 35.6242 22.4474 35.8352C22.5443 36.0188 22.6828 36.1771 22.852 36.2976L23.43 36.5866L24.1236 36.76L24.8172 36.9335L25.3951 37.1069L25.7997 37.3959C25.921 37.5412 25.9829 37.727 25.9732 37.9161C25.9833 38.0968 25.9433 38.2768 25.8576 38.4363L25.5108 38.7831L25.0484 38.9566H23.8924L23.3722 38.7254C23.2241 38.5985 23.1057 38.4407 23.0254 38.263C22.9696 38.1539 22.9307 38.0369 22.9099 37.9162L22.2163 38.0896C22.2532 38.2508 22.3115 38.4063 22.3898 38.552C22.5133 38.8003 22.691 39.0176 22.9099 39.1878C23.1315 39.3705 23.3868 39.508 23.6613 39.5924L24.5861 39.7079L25.3953 39.5924L26.1467 39.3033C26.3616 39.1526 26.5395 38.955 26.6669 38.7254C26.7979 38.488 26.8714 38.2231 26.8814 37.952C26.8915 37.681 26.8378 37.4114 26.7247 37.1648C26.6246 36.9835 26.4867 36.8258 26.3202 36.7024L25.7422 36.4134L24.8752 36.1244L24.1816 35.951L23.6036 35.7776L23.199 35.4886C23.1407 35.427 23.0954 35.3543 23.0656 35.2749C23.0358 35.1955 23.0222 35.1109 23.0256 35.0262C23.0256 34.8649 23.0653 34.7061 23.1412 34.5638L23.4302 34.2748L23.8348 34.1013H24.2971C24.6473 34.0887 24.9921 34.1901 25.2798 34.3903C25.4932 34.5657 25.6366 34.8118 25.6843 35.0839L26.3779 34.9104C26.3647 34.7324 26.3255 34.5572 26.2621 34.3902Z" fill="#82888F"/>
<path d="M49.7864 36.4711V37.1646H51.4047C51.4082 37.4009 51.3691 37.6359 51.2892 37.8582C51.2166 38.091 51.0988 38.307 50.9424 38.494C50.7998 38.6644 50.6224 38.8023 50.4222 38.8986L49.6708 39.0721C49.3902 39.0912 49.1098 39.031 48.8616 38.8986C48.6332 38.7696 48.4359 38.5921 48.2836 38.3784C48.1268 38.1491 48.0096 37.8951 47.9368 37.627C47.8569 37.3254 47.818 37.0143 47.8213 36.7023C47.826 36.3907 47.8647 36.0806 47.9368 35.7775C48.0077 35.4907 48.1248 35.2174 48.2836 34.9683C48.4292 34.7337 48.627 34.5359 48.8616 34.3903C49.1038 34.2378 49.3846 34.1576 49.6708 34.1591H50.2488L50.7112 34.3903C50.8529 34.5004 50.9709 34.638 51.058 34.7949C51.1383 34.9396 51.1967 35.0954 51.2314 35.2573L51.925 35.0839C51.878 34.8622 51.8002 34.6482 51.6938 34.4481C51.5644 34.2037 51.3875 33.9875 51.1736 33.8123C50.9677 33.6518 50.732 33.5339 50.4801 33.4655L49.6709 33.3499C49.2858 33.3483 48.9071 33.4479 48.5727 33.6389C48.2476 33.8221 47.9703 34.0796 47.7635 34.3903C47.5502 34.7076 47.3937 35.0597 47.3011 35.4307C47.1873 35.845 47.129 36.2725 47.1277 36.7022C47.1267 37.0941 47.1851 37.4838 47.3011 37.8582C47.4131 38.2147 47.5894 38.5477 47.8213 38.8408C48.0437 39.1068 48.3194 39.3234 48.6305 39.4766C48.953 39.6379 49.3104 39.7173 49.6709 39.7078H50.1333L50.5957 39.5343L51.0002 39.2453L51.347 38.8407L51.5205 39.5921H51.9829V36.471L49.7864 36.4711Z" fill="#82888F"/>
<path d="M65.1608 37.5692L65.0452 37.9738C64.9873 38.1834 64.8892 38.3797 64.7562 38.5518L64.2938 38.8986L63.6581 39.0141C63.3776 39.0302 63.0981 38.9703 62.8489 38.8407C62.6181 38.715 62.4201 38.5368 62.2709 38.3205C62.1081 38.0735 61.9907 37.7996 61.9241 37.5113C61.8487 37.1892 61.8099 36.8596 61.8085 36.5287C61.8102 36.217 61.8491 35.9065 61.9241 35.604C61.9969 35.3359 62.1142 35.0819 62.2709 34.8526C62.4201 34.6363 62.6181 34.458 62.8489 34.3324C63.0981 34.2028 63.3776 34.1429 63.6581 34.159C64.0165 34.1537 64.365 34.2767 64.6406 34.5058C64.937 34.7761 65.1224 35.1468 65.1608 35.5461L65.8544 35.4306C65.8263 35.1492 65.748 34.8751 65.6232 34.6214C65.5122 34.3812 65.3551 34.1652 65.1608 33.9856L64.525 33.6388L63.7159 33.5232C63.3553 33.5137 62.998 33.593 62.6755 33.7543C62.3529 33.9156 62.075 34.1539 61.8663 34.448C61.656 34.746 61.4995 35.0786 61.4039 35.4306C61.2911 35.8254 61.2327 36.2337 61.2305 36.6443C61.2355 37.0547 61.2938 37.4628 61.4039 37.8581C61.4971 38.211 61.6538 38.544 61.8663 38.8407C62.0655 39.1068 62.3223 39.3242 62.6177 39.4765C62.9584 39.6449 63.3362 39.7244 63.7159 39.7077C64.0155 39.7247 64.3153 39.6767 64.5946 39.5669C64.874 39.4572 65.1263 39.2884 65.3342 39.0719C65.6672 38.6976 65.8876 38.2367 65.97 37.7425L65.1608 37.5692Z" fill="#82888F"/>
<path d="M73.7727 39.5343H73.0213L72.5011 37.8582H70.3048L69.7846 39.5343H69.0332L70.9406 33.5811H71.8076L73.7149 39.5343H73.7727ZM70.4782 37.2224H72.3278L71.403 34.1013L70.4782 37.2802V37.2224Z" fill="#82888F"/>
<path d="M43.4284 39.5921L42.2725 36.7599C42.533 36.6833 42.771 36.5444 42.966 36.3553C43.1183 36.2047 43.2379 36.0244 43.3175 35.8255C43.397 35.6266 43.4348 35.4134 43.4284 35.1993C43.4593 34.7572 43.3139 34.3208 43.0238 33.9856C42.8362 33.8183 42.6164 33.691 42.3779 33.6115C42.1394 33.532 41.8872 33.502 41.6367 33.5232H39.0935V39.5343H39.7293V36.8755H41.5789L42.7348 39.5921H43.4284ZM39.7871 36.3553V34.0434H41.4633C41.8146 34.0217 42.1622 34.124 42.4458 34.3324C42.5638 34.4426 42.656 34.5774 42.7159 34.7272C42.7759 34.8771 42.8021 35.0382 42.7926 35.1993C42.7995 35.3657 42.7663 35.5313 42.6959 35.6821C42.6255 35.833 42.5199 35.9647 42.388 36.0663C42.113 36.2417 41.7885 36.3229 41.4633 36.2975L39.7871 36.3553Z" fill="#82888F"/>
<path d="M2.44914 22.4837H1.23535V9.479H2.44914V22.4837Z" fill="#82888F"/>
<path d="M16.0319 22.4837H14.9915L12.0438 13.6983L11.8126 12.8314L11.6392 12.0222H11.5812C11.6583 12.8699 11.7161 13.7176 11.7547 14.5653V22.4837H10.6565V9.479H11.6969L14.7024 18.5534C14.8565 19.0158 14.9914 19.4589 15.107 19.8828C15.03 19.3048 14.9915 18.7268 14.9915 18.1488V9.479H16.0318L16.0319 22.4837Z" fill="#82888F"/>
<path d="M28.632 10.5772H26.6668V22.4837H25.453V10.5772H23.5457V9.479H28.632V10.5772Z" fill="#82888F"/>
<path d="M41.8679 18.3799C41.8679 18.9579 41.8485 19.5167 41.8099 20.0561C41.7764 20.5353 41.659 21.0048 41.4631 21.4433C41.2992 21.8302 41.0156 22.1542 40.6539 22.3681C40.1754 22.5716 39.6579 22.6668 39.1383 22.6469C38.6187 22.6269 38.1099 22.4922 37.6484 22.2525C37.294 22.0301 37.0127 21.7085 36.8392 21.3277C36.6496 20.8871 36.5325 20.4186 36.4924 19.9405C36.4538 19.4396 36.4346 18.9002 36.4346 18.3222V9.479H37.6484V18.2644C37.6015 19.0806 37.6794 19.8992 37.8796 20.6919C37.9875 20.9394 38.1652 21.1501 38.3911 21.298C38.617 21.4459 38.8812 21.5247 39.1512 21.5247C39.4212 21.5247 39.6853 21.4459 39.9111 21.298C40.137 21.1501 40.3148 20.9394 40.4227 20.6919C40.6246 19.8995 40.7026 19.0807 40.6539 18.2644V9.479H41.8677L41.8679 18.3799Z" fill="#82888F"/>
<path d="M52.2138 22.4837H51V9.479H52.2138V22.4837Z" fill="#82888F"/>
<path d="M65.5075 10.5772H63.6002V22.4837H62.3864V10.5772H60.479V9.479H65.5653L65.5075 10.5772Z" fill="#82888F"/>
<path d="M74.9865 22.4837H73.7727V9.479H74.9865V22.4837Z" fill="#82888F"/>
<path d="M86.893 22.4838H85.8526L83.2517 9.47912H84.4655L86.1994 18.9581C86.238 19.1123 86.2766 19.3627 86.315 19.7095L86.4306 20.6921H86.4885C86.5655 19.96 86.6233 19.3627 86.6619 18.9003L88.3381 9.42139H89.5518L86.893 22.4838Z" fill="#82888F"/>
<path d="M100.765 10.4039H97.9328V15.0278H100.707V16.126H97.9328V21.2123H100.765V22.3104H96.719V9.30566H100.765V10.4039Z" fill="#82888F"/>
<path d="M51.5202 5.3753C52.9247 5.3753 54.0633 4.23672 54.0633 2.83218C54.0633 1.42764 52.9247 0.289062 51.5202 0.289062C50.1156 0.289062 48.9771 1.42764 48.9771 2.83218C48.9771 4.23672 50.1156 5.3753 51.5202 5.3753Z" fill="#F7A800"/>
<path d="M84.2344 31.2692C84.4492 31.3692 84.63 31.5299 84.7546 31.7315C84.8662 31.9248 84.9249 32.1441 84.9249 32.3673C84.9249 32.5905 84.8662 32.8098 84.7546 33.0031C84.6456 33.1966 84.4857 33.3566 84.2922 33.4655C84.0901 33.5822 83.8608 33.6436 83.6274 33.6436C83.3941 33.6436 83.1649 33.5822 82.9628 33.4655C82.7693 33.3566 82.6093 33.1966 82.5004 33.0031C82.3877 32.8101 82.3279 32.5908 82.327 32.3673C82.3279 32.1438 82.3877 31.9245 82.5004 31.7315C82.6249 31.5299 82.8058 31.3692 83.0206 31.2692C83.2155 31.1611 83.4336 31.1016 83.6564 31.0957L84.2344 31.2692ZM82.7894 31.0379C82.5451 31.171 82.3444 31.3716 82.2114 31.6159C82.0685 31.8511 81.9929 32.1211 81.9929 32.3963C81.9929 32.6714 82.0685 32.9413 82.2114 33.1765C82.3444 33.4208 82.5451 33.6215 82.7894 33.7545C83.0284 33.8861 83.2968 33.955 83.5696 33.955C83.8425 33.955 84.1109 33.8861 84.35 33.7545C84.5943 33.6215 84.7949 33.4208 84.928 33.1765C85.0709 32.9413 85.1464 32.6714 85.1464 32.3963C85.1464 32.1211 85.0709 31.8511 84.928 31.6159C84.7949 31.3716 84.5943 31.171 84.35 31.0379C84.1109 30.9064 83.8425 30.8374 83.5696 30.8374C83.2968 30.8374 83.0284 30.9064 82.7894 31.0379ZM83.1362 33.2343V32.5407H83.5408L83.8298 32.9453L84.0032 33.2343H84.35L84.1188 32.8875L83.8876 32.5407L83.7721 32.4252L84.1189 32.2517C84.1897 32.1716 84.2305 32.0695 84.2344 31.9627C84.2388 31.8816 84.2186 31.801 84.1766 31.7315L83.9453 31.5581H82.905V33.2343L83.1362 33.2343ZM83.1362 31.7893H83.7142L83.8297 31.9049V32.0783C83.8254 32.1143 83.8126 32.1487 83.7926 32.1789C83.7725 32.209 83.7457 32.2339 83.7142 32.2518H83.0784L83.1362 31.7893Z" fill="#82888F"/>
</svg>
