<svg width="66" height="15" viewBox="0 0 66 15" fill="none" xmlns="http://www.w3.org/2000/svg">
    <g clip-path="url(#clip0_222:142)">
        <path d="M1.29173 2.49737C1.88082 2.49737 2.35868 2.01949 2.35868 1.43039C2.35868 0.84131 1.88082 0.364014 1.29173 0.364014C0.702642 0.364014 0.225342 0.84131 0.225342 1.43039C0.225342 2.01949 0.702642 2.49737 1.29173 2.49737Z" fill="#FFC80A"/>
        <path d="M1.29173 2.35357C1.88082 2.35357 2.35868 1.87569 2.35868 1.28659C2.35868 0.697511 1.88082 0.220215 1.29173 0.220215C0.702642 0.220215 0.225342 0.697511 0.225342 1.28659C0.225342 1.87569 0.702642 2.35357 1.29173 2.35357Z" fill="#FFC80A"/>
        <path d="M37.0755 3.69775L37.0744 3.69938V3.69775C35.4826 3.69775 33.9847 4.41194 32.9652 5.65673C32.1786 6.61654 31.7477 7.82077 31.7506 9.04587V13.1214C31.7506 13.7516 32.1948 14.1924 32.8308 14.1924C33.475 14.1924 33.9077 13.7615 33.9077 13.1214V9.0007C33.9126 8.27548 34.166 7.56996 34.6224 7.01388C35.226 6.27652 36.1215 5.85368 37.079 5.85368V5.8531H37.1104C37.3687 5.8531 37.6201 5.76395 37.8176 5.60229C38.0371 5.42215 38.1767 5.17479 38.2121 4.90661C38.2485 4.62105 38.1635 4.34301 37.9665 4.10263C37.6925 3.76784 37.3311 3.69775 37.0756 3.69775" fill="black"/>
        <path d="M8.30118 3.46347C5.58107 3.46347 3.68115 5.27941 3.68115 7.87962V11.3979L3.68231 11.4268C3.66721 11.7819 3.37705 12.0593 3.02198 12.0593C2.67327 12.0593 2.38771 11.79 2.36164 11.4488H2.35868V4.43188C2.35868 3.80167 1.91789 3.36145 1.28767 3.36145C0.657458 3.36145 0.217224 3.80167 0.217224 4.43188V11.3978C0.217224 12.9427 1.47186 14.1996 3.01496 14.1996C4.50187 14.1996 5.73045 13.0377 5.8127 11.5513C5.81845 11.5009 5.82256 11.4501 5.82256 11.3978V8.00349C5.82256 6.52121 6.81884 5.52549 8.30112 5.52549C9.7834 5.52549 10.7791 6.52121 10.7791 8.00349V13.1211C10.7791 13.7519 11.2199 14.1921 11.8501 14.1921C12.4803 14.1921 12.9212 13.7519 12.9212 13.1211V7.87952C12.9212 5.27931 11.0212 3.4634 8.30112 3.4634" fill="black"/>
        <path d="M19.4457 12.0601C18.7668 12.0552 18.0572 11.7781 17.4484 11.2787C16.7041 10.6688 16.2761 9.76515 16.283 8.79899V5.84777H18.4395C19.0147 5.84777 19.4787 5.38494 19.4787 4.80975C19.4787 4.23456 19.0118 3.76888 18.4366 3.76888L16.283 3.76946V1.29088C16.283 0.660658 15.8358 0.219849 15.205 0.219849C14.5748 0.219849 14.1329 0.660658 14.1329 1.29088V8.79899C14.1347 10.4046 14.8378 11.909 16.0913 12.9354C17.0754 13.7417 18.1841 14.15 19.3854 14.15H19.3982C20.0285 14.15 20.4692 13.7058 20.4692 13.0698C20.4692 12.4662 20.0615 12.0613 19.4457 12.0601" fill="black"/>
        <path d="M65.4081 12.2289L61.2862 8.10759L64.4228 5.42049C64.6458 5.21776 64.7946 4.88063 64.7946 4.58058C64.7946 3.94979 64.3538 3.50957 63.7236 3.50957C63.416 3.50957 63.0789 3.64979 62.8217 3.88375L58.9431 7.20629V1.28817C58.9431 0.657964 58.5029 0.217163 57.8721 0.217163C57.2419 0.217163 56.8017 0.657964 56.8017 1.28817V13.1308C56.8017 13.761 57.2419 14.2018 57.8721 14.2018C58.5029 14.2018 58.9431 13.761 58.9431 13.1308V10.2305C58.9443 10.0804 59.0069 9.93162 59.1279 9.82389C59.3544 9.62231 59.6927 9.65127 59.907 9.87019L63.8713 13.8299C64.0741 14.0529 64.4112 14.2017 64.7118 14.2017C65.342 14.2017 65.7828 13.7615 65.7828 13.1313C65.7828 12.8237 65.6426 12.4866 65.4081 12.2289" fill="black"/>
        <path d="M44.2122 12.0601C43.5334 12.0552 42.8238 11.7781 42.2144 11.2787C41.4707 10.6688 41.042 9.76515 41.049 8.79899V5.84777H43.2032C43.7795 5.84777 44.1983 5.41045 44.1983 4.80863C44.1983 4.20621 43.7795 3.76946 43.2032 3.76946H41.049V1.29088C41.049 0.660658 40.6024 0.219849 39.9716 0.219849C39.3414 0.219849 38.8994 0.660658 38.8994 1.29088V8.79899C38.9011 10.4046 39.6044 11.909 40.8578 12.9354C41.842 13.7417 42.9506 14.15 44.152 14.15H44.1651C44.7953 14.15 45.2361 13.7058 45.2361 13.0698C45.2361 12.4662 44.8283 12.0613 44.2126 12.0601" fill="black"/>
        <path d="M53.7498 4.7251C52.7784 3.92981 51.6136 3.50928 50.3816 3.50928C48.7904 3.50928 47.293 4.22348 46.2724 5.46943C44.3847 7.77423 44.7119 11.0585 47.0167 12.9463C47.9783 13.734 49.1866 14.1679 50.4186 14.1679C50.6827 14.1679 50.9486 14.1482 51.2093 14.1088C51.4068 14.0787 51.6883 13.9871 51.9055 13.7213C52.2733 13.2718 52.205 12.5819 51.7555 12.2147C51.5875 12.0767 51.3778 12.0067 51.1328 12.0067C51.0668 12.0067 50.9978 12.0116 50.9289 12.0215C50.7742 12.0481 50.6144 12.0579 50.4539 12.0579C48.576 12.0579 47.1551 10.6133 47.1551 8.83389C47.1551 7.05503 48.5974 5.61272 50.3763 5.61272C51.8255 5.61272 53.0512 6.57021 53.4561 7.88625L50.3716 7.88682C49.8416 7.88682 49.4119 8.31604 49.4119 8.84604C49.4119 9.37606 49.8266 9.80411 50.356 9.80411H54.4594C54.9036 9.80411 55.268 9.61528 55.4724 9.36564C55.6451 9.15478 55.729 8.89239 55.7157 8.60683C55.6404 7.10195 54.9239 5.68686 53.7498 4.72475" fill="black"/>
        <path d="M29.0136 4.7251C28.0422 3.92981 26.8773 3.50928 25.6453 3.50928C24.0541 3.50928 22.5568 4.22348 21.5361 5.46943C19.6484 7.77423 19.9757 11.0585 22.2805 12.9463C23.242 13.734 24.4503 14.1679 25.6824 14.1679C25.9465 14.1679 26.2124 14.1482 26.4736 14.1088C26.6705 14.0787 26.952 13.9871 27.1693 13.7213C27.5377 13.2718 27.4687 12.5819 27.0192 12.2147C26.8512 12.0767 26.6415 12.0067 26.3965 12.0067C26.3305 12.0067 26.2615 12.0116 26.1926 12.0215C26.0379 12.0481 25.8781 12.0579 25.7176 12.0579C23.8397 12.0579 22.4189 10.6133 22.4189 8.83389C22.4189 7.05503 23.8612 5.61272 25.64 5.61272C27.0893 5.61272 28.315 6.57021 28.7198 7.88625L25.6348 7.88682C25.1054 7.88682 24.6756 8.31604 24.6756 8.84604C24.6756 9.37606 25.0903 9.80411 25.6198 9.80411H29.7231C30.1674 9.80411 30.5317 9.61528 30.7362 9.36564C30.9088 9.15478 30.9928 8.89239 30.9795 8.60683C30.9041 7.10195 30.1876 5.68686 29.0135 4.72475" fill="black"/>
    </g>
    <defs>
        <clipPath id="clip0_222:142">
            <rect width="66" height="14.419" fill="white"/>
        </clipPath>
    </defs>
</svg>
