<svg width="121" height="40" viewBox="0 0 121 40" fill="none" xmlns="http://www.w3.org/2000/svg">
    <path d="M13.1547 0.000244141L0 40.0001H2.08963L15.2454 0.000244141H13.1547Z" fill="#414141"/>
    <path d="M16.4746 0L3.44312 39.9999H5.40955L18.5643 0H16.4746Z" fill="#414141"/>
    <path d="M19.794 0L6.76245 39.9999H8.72889L21.8836 0H19.794Z" fill="#414141"/>
    <path d="M23.1138 0L10.0823 39.9999H12.0487L25.2034 0H23.1138Z" fill="#414141"/>
    <path d="M27.1701 0L24.5889 7.83099H37.4972L27.048 39.9999H39.2184L49.7918 7.83099H60.3642L62.9465 0H27.1701Z" fill="#414141"/>
    <path d="M109.296 1.80738H116.919L97.6176 38.0718H89.2559L89.8718 10.1212V8.67485C89.8718 7.71132 89.5023 7.95166 89.3802 8.19306C89.2558 8.31371 88.3959 9.75905 88.1506 10.4822C87.7821 11.0847 85.6914 15.0606 84.8303 16.7472C83.8471 18.4339 81.0195 23.6136 80.2826 25.06C78.6836 27.8309 74.7496 34.8191 74.7496 34.8191L74.0116 36.1426L72.9052 38.0718H64.0529L65.5289 1.80738H73.8895L73.3979 6.98814C73.3979 7.83095 72.9052 13.3739 72.6599 15.4216C72.5368 17.3497 72.1683 20.6024 72.0441 22.1684C71.7987 23.7354 71.5535 25.7821 71.4304 27.1077C71.1841 28.4334 71.1841 29.0358 71.1841 29.2762C71.061 29.6383 71.5536 29.759 71.7989 29.2762C72.0442 28.7944 73.2748 26.3846 74.0117 24.9393C74.8728 23.4929 75.7339 21.8073 75.7339 21.8073L76.4708 20.4817L86.7979 1.80738H96.1418L95.0354 28.4334C95.0354 29.0358 94.9123 29.3969 95.0354 29.5176C95.1585 29.7589 95.4049 29.6382 95.6502 29.2763C95.7733 29.0359 95.8955 28.7945 95.8955 28.7945L109.296 1.80738ZM120.115 0H108.067L99.0914 17.9522C99.0914 17.9522 97.7408 20.9635 97.3713 21.928C97.0018 23.0112 96.6344 23.855 96.6344 23.855C96.6344 23.855 96.8797 22.1684 97.0018 20.9635C97.248 19.7585 97.248 18.4339 97.3713 17.4694V16.5058L98.1082 0H85.5693L77.0855 15.5423C77.0855 15.5423 76.5939 16.2644 76.3486 16.6266C76.3486 16.6266 75.856 17.7108 75.3643 18.5547C74.9959 19.3975 74.7495 19.9999 74.1348 21.2048C73.7652 22.0487 73.2747 23.6136 73.2747 23.6136C73.2747 23.6136 73.7652 21.8073 73.8895 20.8438C74.1348 19.7585 74.2579 18.9157 74.2579 18.9157C74.2579 18.3132 74.3811 17.4694 74.3811 17.4694L75.979 0H63.6844L62.0864 39.9999H74.0115L85.6914 18.795C85.6914 18.795 86.3062 17.7108 86.5515 17.3497C86.5515 17.3497 87.0441 16.5058 87.4126 15.662C87.6588 14.6985 88.1505 13.6142 88.1505 13.6142C88.1505 13.6142 88.0274 14.5777 87.9043 15.4216C87.9043 16.0241 87.7821 16.868 87.7821 16.868V18.4339L87.2894 39.9999H98.7229L120.115 0Z" fill="#414141"/>
</svg>
