<svg width="160" height="41" viewBox="0 0 160 41" fill="none" xmlns="http://www.w3.org/2000/svg">
    <path d="M7.06646 33.5891C4.54701 33.5891 2.84392 33.1598 1.96084 32.3011C1.07776 31.4436 0.63501 29.8305 0.63501 27.4582V22.0756L6.72317 20.9198V28.7135H18.5756V7.64519H24.6274V27.4582C24.6274 29.8305 24.1798 31.4436 23.287 32.3011C22.393 33.1598 20.6911 33.5891 18.1826 33.5891H7.06646Z" fill="#0D4D84"/>
    <path d="M30.9604 33.5891L45.6271 7.64519H51.4423L66.3055 33.5891H59.5368L54.9807 25.1247L40.0593 27.8839L39.2345 29.3757L36.9698 33.5891H30.9604ZM42.5618 23.2326H53.9193L48.3261 12.6773L42.5618 23.2326Z" fill="#0D4D84"/>
    <path d="M74.6548 33.5891V7.64519H96.8701C98.9213 7.64519 100.406 8.04786 101.326 8.85076C102.245 9.65366 102.704 10.932 102.704 12.6858V15.8379C102.704 17.0799 102.32 18.0708 101.554 18.813C100.786 19.5565 99.6843 20.0174 98.2493 20.1969C99.7389 20.3934 100.89 20.9258 101.702 21.7942C102.512 22.6638 102.917 23.793 102.917 25.1865V28.5085C102.917 30.2271 102.284 31.503 101.02 32.3375C99.7547 33.1719 97.832 33.5891 95.2531 33.5891H74.6548ZM94.3458 11.8792H80.5998V18.0368H94.3458C95.3914 18.0368 96.1144 17.8986 96.5147 17.6208C96.915 17.3455 97.1151 16.8652 97.1151 16.18V13.7373C97.1151 13.0702 96.915 12.5924 96.5147 12.3074C96.1144 12.0223 95.3914 11.8792 94.3458 11.8792ZM94.3458 22.3072H80.5998V28.9269H94.3458C95.5018 28.9269 96.2818 28.7559 96.6869 28.4115C97.0909 28.0658 97.2934 27.4582 97.2934 26.5898V24.6214C97.2934 23.7505 97.0909 23.1477 96.6869 22.813C96.2818 22.4758 95.5018 22.3072 94.3458 22.3072Z" fill="#0D4D84"/>
    <path d="M120.608 33.5891H114.556V7.64519H120.608V33.5891Z" fill="#0D4D84"/>
    <path d="M133.844 33.5891V7.64519H139.896V28.7135H159.365V33.5891H133.844Z" fill="#0D4D84"/>
    <path d="M44.5731 19.5405L39.2346 29.3755L77.1222 19.5551L44.5731 19.5405Z" fill="#00875D"/>
</svg>
