<svg width="90" height="40" viewBox="0 0 90 40" fill="none" xmlns="http://www.w3.org/2000/svg">
    <path fill-rule="evenodd" clip-rule="evenodd" d="M15.299 39.5129H15.051C6.67538 38.7017 9.6209 25.7516 17.8415 29.4902L18.0275 29.5529L17.4074 31.1189L17.0973 30.9936C10.4239 27.9336 10.2586 40.1424 17.3454 37.5083L17.5934 37.3831L18.0275 38.8238L17.9035 38.8865C17.5604 39.207 15.9553 39.5306 15.4851 39.5129H15.299Z" fill="#083390"/>
    <path fill-rule="evenodd" clip-rule="evenodd" d="M22.0583 33.1862H21.9343L21.8103 33.2488H21.6242L21.5002 33.3114H21.4382L21.3142 33.3741L21.2522 33.4367L21.1281 33.4994L21.0661 33.562H21.0041L20.9421 33.6873L20.7561 33.8752L20.6941 34.0005L20.57 34.1258V34.2511L20.508 34.3137V34.439L20.446 34.5643V34.6269L20.384 34.7522C20.2931 35.483 20.2941 35.7169 20.384 36.4435L20.446 36.5688V36.6314L20.508 36.7567V36.882L20.57 36.9446V37.0699L20.632 37.1326L20.6941 37.1952L20.7561 37.3205L20.8181 37.3831L20.8801 37.4458L20.9421 37.5084L21.0041 37.5711C21.2025 37.7715 21.4651 37.9396 21.7482 37.9469H22.4304C22.6567 37.925 22.8851 37.8258 23.0505 37.6337L23.1745 37.5711L23.2365 37.5084L23.2985 37.4458L23.3605 37.3831L23.4225 37.3205L23.4846 37.1952V37.1326L23.5466 37.0699L23.6086 36.9446V36.882L23.6706 36.7567V36.6314L23.7326 36.5688V36.4435C23.9011 35.7054 23.867 35.6459 23.7946 34.9401L23.7326 34.7522V34.6269L23.6706 34.5643V34.439L23.6086 34.3137V34.2511L23.5466 34.1258L23.4846 34.0631V34.0005L23.4225 33.8752L23.2365 33.6873L23.1745 33.562H23.0505L22.9265 33.4367L22.8024 33.3741L22.7404 33.3114H22.6164L22.5544 33.2488H22.3063L22.1823 33.1862H22.0583ZM22.0583 39.5129H21.4382L21.2522 39.4503L21.0661 39.3877H20.8801L20.6941 39.325L20.508 39.2624L20.384 39.1371L20.198 39.0745L20.0119 39.0118L19.8879 38.8865L19.7019 38.7612L19.5779 38.636L19.0818 38.1348C18.6694 37.4959 18.3749 36.7651 18.3376 36.005V35.3786C18.4048 33.2916 19.5913 31.9709 21.6242 31.6201H22.3063C27.0347 31.9438 26.9458 39.1381 22.4924 39.5129H22.0583Z" fill="#083390"/>
    <path fill-rule="evenodd" clip-rule="evenodd" d="M31.6701 39.3876V34.1883L31.6081 34.1257V34.0004L31.5461 33.9378V33.8751L31.4841 33.8125V33.7499H31.4221L31.36 33.6872V33.6246L31.298 33.5619L30.6779 33.2487H30.3679C29.9452 33.2268 29.4584 33.2821 29.0656 33.4366L28.8796 33.4993L28.6936 33.5619V33.8751L28.7556 39.3876H26.9573V33.3114L26.8953 33.1234V32.8102L26.8333 32.497V32.3717L27.2053 32.2465C29.3571 31.4227 33.5335 30.9038 33.4684 34.3136V39.3876H31.6701Z" fill="#083390"/>
    <path fill-rule="evenodd" clip-rule="evenodd" d="M37.623 39.6381H37.1269L37.0029 39.5754H36.8169L36.6928 39.5128H36.5688L36.5068 39.4501L36.3828 39.3875H36.3208L36.1968 39.3249L36.0727 39.1996L35.9487 39.1369L35.8867 39.0743L35.8247 39.0117L35.7627 38.949L35.7007 38.8237L35.6387 38.7611L35.5766 38.6985L35.5146 38.5732V38.5105L35.3906 38.26V38.072L35.3286 37.9468V33.3739L34.4604 33.3113V31.8705L35.3286 31.8079V29.7407H37.1269V31.8079H39.2353V33.3739H37.1269V37.6335L37.1889 37.6962V37.8215L37.2509 37.8841H37.313V37.9468H37.375L37.437 38.0094H37.561L37.685 38.072H37.9951L38.1191 38.0094H38.3051L38.4912 37.9468L38.6772 37.8841H38.8012L38.9872 37.8215L39.1113 37.7588L39.6694 39.1996L39.4213 39.3249C38.8333 39.4804 38.3475 39.6109 37.747 39.6381H37.623Z" fill="#083390"/>
    <path fill-rule="evenodd" clip-rule="evenodd" d="M44.5683 33.3739L44.4443 33.3112C43.5079 33.1452 43.3384 33.1421 42.3979 33.3739L42.2119 33.4365H42.2739V39.3875H40.4756V33.6244C40.4404 33.2872 40.4063 32.95 40.3516 32.6222V32.4969L40.7236 32.309L41.1577 32.1211C41.7861 31.8903 42.2398 31.8423 42.832 31.6826H43.08L43.2661 31.6199C43.7105 31.6001 44.3967 31.6398 44.8163 31.7452H44.9404L45.1264 31.8078L44.5683 33.3739Z" fill="#083390"/>
    <path fill-rule="evenodd" clip-rule="evenodd" d="M48.7851 33.1862H48.6611L48.5371 33.2488H48.351L48.227 33.3114H48.103L48.041 33.3741L47.917 33.4367L47.7929 33.562H47.7309L47.6689 33.6873L47.6069 33.7499L47.4829 33.8752L47.4209 34.0005L47.2968 34.1258V34.2511L47.2348 34.3137L47.1728 34.439V34.5643L47.1108 34.6269V34.7522L47.0488 34.9401V36.2556L47.1108 36.4435V36.5688L47.1728 36.6314V36.7567L47.2348 36.882L47.2968 36.9446V37.0699L47.3589 37.1326L47.4209 37.1952L47.4829 37.3205L47.5449 37.3831L47.6069 37.4458L47.6689 37.5084L47.7309 37.5711L47.917 37.759L48.041 37.8216L48.103 37.8843H48.227L48.351 37.9469H49.2192L49.3432 37.8843H49.4672L49.5292 37.8216L49.6533 37.759L49.8393 37.5711L49.9013 37.5084L50.0253 37.4458L50.0873 37.3831L50.1493 37.3205V37.1952L50.2114 37.1326L50.2734 37.0699L50.3354 36.9446V36.882L50.3974 36.7567V36.6314L50.4594 36.5688V36.4435L50.5214 36.2556V34.9401L50.4594 34.7522V34.6269L50.3974 34.5643V34.439L50.3354 34.3137V34.2511L50.2734 34.1258L50.1493 34.0005V33.8752L50.0253 33.7499L49.9013 33.6873L49.8393 33.562H49.7773L49.6533 33.4367L49.5292 33.3741L49.4672 33.3114H49.3432L49.2192 33.2488H49.0332L48.9091 33.1862H48.7851ZM48.7851 39.5129H48.165C46.2964 39.1945 45.0944 37.7162 45.0645 35.8171V35.3786C45.1223 33.2812 46.3253 31.9657 48.351 31.6201H48.9711C53.7284 31.8634 53.6716 39.1413 49.2192 39.5129H48.7851Z" fill="#083390"/>
    <path fill-rule="evenodd" clip-rule="evenodd" d="M55.4201 39.3875V28.2373H53.6218V39.3875H55.4201Z" fill="#083390"/>
    <path fill-rule="evenodd" clip-rule="evenodd" d="M58.9548 39.5129H58.7688C58.2086 39.5338 57.2185 39.3553 56.7224 39.1371L56.4744 39.0118L56.9705 37.6337L57.1565 37.6963L57.4045 37.759L57.6526 37.8843L57.8386 37.9469L58.0866 38.0095H58.3347L58.4587 38.0722H59.0788L59.2028 38.0095H59.2649C59.578 37.9072 59.7847 37.7715 59.885 37.4458V37.1326C59.7723 36.1136 57.511 36.0541 56.9705 34.9401L56.8464 34.8148L56.6604 34.2511V33.3741L56.7224 33.2488L56.7844 33.1862V33.0609L56.9705 32.685L57.0325 32.6224L57.0945 32.4971L57.2185 32.4345L57.2805 32.3718L57.4045 32.3092L57.4665 32.1839L57.7146 32.0586L57.7766 31.996H57.9006L58.2727 31.808H58.3347L58.4587 31.7454H58.5827L58.7068 31.6828H58.9548L59.0788 31.6201H59.6989C60.2043 31.6577 60.6477 31.7934 61.1252 31.8707L61.3732 31.996L61.4352 32.0586L61.5593 32.1212L61.0632 33.4994L60.8771 33.4367L60.6911 33.3741L60.4431 33.3114L60.257 33.2488L60.009 33.1862H59.6369L59.3889 33.1235H59.3269L59.2649 33.1862H58.9548L58.8308 33.2488L58.7688 33.3114H58.7068L58.6447 33.3741V33.4367L58.5207 33.562V33.7499L58.4587 33.8126L58.5207 33.9379V34.0631L58.5827 34.1258L58.6447 34.2511L58.7068 34.3137L58.8308 34.3763L58.8928 34.439L59.1408 34.5643L59.2649 34.6269L59.4509 34.6895L59.5749 34.7522L60.195 35.0028L60.3811 35.0654L60.5051 35.128L60.6911 35.2533C61.3464 35.4997 61.8858 36.3234 61.8693 37.0073L61.9313 37.2578L61.8693 37.4458V37.6963L61.8073 37.8216V37.9469L61.5593 38.448L61.4972 38.5107L61.4352 38.636L61.3112 38.6986L61.2492 38.8239L61.1252 38.8865L61.0012 38.9492L60.9391 39.0118L60.8151 39.0745C60.4947 39.2874 59.6917 39.514 59.3269 39.5129H58.9548Z" fill="#083390"/>
    <path fill-rule="evenodd" clip-rule="evenodd" d="M2.33884 26.6714L2.15281 26.734C1.74664 26.8844 1.32186 26.9721 0.91259 27.1099L0.664547 27.1725L0.354492 25.5438L0.478514 25.4812H0.664547L0.788568 25.4186H0.91259L1.09862 25.3559H1.22264L1.34667 25.2933H1.47069L1.59471 25.2306L1.65672 25.168H1.71873L1.84275 25.1054L1.90476 25.0427H1.96678L2.02879 24.9801L2.0908 24.9174L2.15281 24.8548L2.21482 24.7921V24.7295L2.33884 24.6042V24.5416L2.40085 24.4789V24.4163L2.46286 24.291C2.53004 24.0885 2.61376 23.5665 2.58688 23.3514V15.208H4.44721V22.5997C4.54539 24.1918 4.19607 26.0387 2.52487 26.6088L2.33884 26.6714Z" fill="#083390"/>
    <path fill-rule="evenodd" clip-rule="evenodd" d="M9.34601 19.3423H8.97394L8.84992 19.4049C8.51713 19.4394 8.32386 19.6837 8.04378 19.9061L7.98177 19.9687V20.094L7.91975 20.1566L7.85774 20.2819L7.79573 20.3446V20.4698L7.73372 20.5325V20.6578L7.67171 20.7204V20.8457L7.6097 21.0336V21.2842L7.54769 21.4721V21.9106L7.6097 22.1612C7.62934 22.5725 7.75233 23.011 7.98177 23.3514V23.414L8.04378 23.4766L8.10579 23.5393L8.1678 23.6646L8.29182 23.7272L8.35383 23.7898H8.41584L8.47785 23.8525L8.60187 23.9151L8.66389 23.9778H8.78791L8.84992 24.0404H9.09796L9.22198 24.1031H9.47003L9.59405 24.0404H9.78008L9.9041 23.9778H9.96611L10.0901 23.9151L10.1521 23.8525L10.2762 23.7898H10.3382L10.4622 23.6646L10.5242 23.5393L10.5862 23.4766L10.6482 23.414L10.7102 23.3514L10.7723 23.2261L10.8343 23.1634V23.0381L10.8963 22.9755L10.9583 22.8502V22.7876L11.0203 22.6623V22.537L11.0823 22.3491V21.0963L11.0203 20.8457V20.7831L10.9583 20.6578V20.5325L10.8963 20.4698L10.8343 20.3446V20.2819L10.7723 20.1566L10.7102 20.094L10.6482 20.0314C10.4694 19.7056 10.1284 19.4248 9.78008 19.4049L9.71807 19.3423H9.34601ZM9.34601 25.6064H8.91193C4.38203 25.2525 4.50399 17.8629 9.09796 17.7763L9.34601 17.7136L9.53204 17.7763C14.1539 17.7752 14.3141 25.2765 9.78008 25.6064H9.34601Z" fill="#083390"/>
    <path fill-rule="evenodd" clip-rule="evenodd" d="M19.0197 25.4811V20.4071L18.9577 20.2819V20.0939L18.8957 20.0313L18.7717 19.7807L18.5236 19.5302L18.2756 19.4049H18.1516L18.0275 19.3422C17.4395 19.3026 16.9485 19.408 16.4153 19.6554L16.2292 19.7807L16.0432 19.8434V25.4811H14.2449V14.3936H16.0432V18.2147L16.2912 18.152L16.6013 18.0268C17.5635 17.7323 18.5753 17.6196 19.5158 17.9641L19.5778 18.0268L19.7018 18.0894C20.4553 18.4767 20.8697 19.4592 20.818 20.2819V25.4811H19.0197Z" fill="#083390"/>
    <path fill-rule="evenodd" clip-rule="evenodd" d="M27.0812 25.4812V20.2193L27.0192 20.1567V20.094L26.9572 20.0314V19.9687C26.6337 19.6785 26.8714 19.8038 26.7092 19.6555H26.6472L26.5231 19.5303H26.4611L26.2131 19.405H26.0891L25.965 19.3423H25.655C25.3863 19.3183 24.9171 19.3851 24.6628 19.4676L24.4768 19.5303L24.2907 19.5929L24.1047 19.6555V19.7182L24.1667 19.7808V25.4812H22.3684V19.5303C22.3932 19.2734 22.2744 18.8694 22.2444 18.5906V18.4653L22.6785 18.3401L23.0505 18.2148L23.4846 18.0895C23.8556 17.9778 24.8395 17.7356 25.2209 17.7763H25.655C26.1986 17.7805 26.4219 17.7471 26.9572 17.8389L27.2053 17.9642H27.3293L27.5153 18.0269L27.7634 18.1521L27.8254 18.2148L27.9494 18.2774L28.0734 18.4027L28.1974 18.4653L28.2594 18.5906L28.3835 18.6533L28.5695 19.0291L28.6935 19.1544V19.2797L28.8175 19.5303V19.7182L28.8796 19.9061V20.0314L28.9416 20.2193V25.4812H27.0812Z" fill="#083390"/>
    <path fill-rule="evenodd" clip-rule="evenodd" d="M32.414 25.6064H32.228C31.5438 25.644 30.8906 25.4498 30.2436 25.2306L29.9336 25.168L30.4917 23.7272L30.6777 23.7898L30.9258 23.9151L31.1118 23.9778L31.3598 24.0404C31.9231 24.2221 31.9355 24.1553 32.476 24.1657H32.6621L32.7861 24.1031H32.8481L32.9721 24.0404L33.0341 23.9778H33.0961L33.2202 23.9151L33.2822 23.8525V23.7272L33.3442 23.6646L33.4062 23.5393V23.1008L33.3442 23.0381L33.2202 22.7876L33.0961 22.7249L33.0341 22.6623L32.9101 22.5997L32.5381 22.4117L32.352 22.3491C31.8404 21.9304 31.2441 21.9847 30.8017 21.4095L30.4297 21.0336L30.3677 20.9083L30.2436 20.5325C30.0349 19.5741 30.1269 20.0418 30.2436 19.2797L30.3677 19.0291C30.656 18.5739 30.6105 18.5207 31.1118 18.2774L31.1738 18.1521L31.2978 18.0895H31.4219L31.5459 18.0268L31.6079 17.9642H31.7319L31.98 17.8389H32.104L32.228 17.7763H32.6621L32.9101 17.7136L33.0961 17.7763H33.6542L33.7783 17.8389H34.0883L34.3364 17.9642L34.5844 18.0268H34.7084L35.0805 18.2148L34.5844 19.5929L34.3984 19.5302L34.1503 19.4676L33.9643 19.4049L33.7163 19.3423C33.3194 19.3465 33.4537 19.2358 32.8481 19.2797H32.476L32.414 19.3423H32.352L32.29 19.4049H32.228L32.166 19.4676L32.104 19.5302L32.042 19.5929V19.6555L31.98 19.7808V20.0314L32.042 20.1566V20.2193L32.104 20.3446L32.228 20.4072L32.29 20.4698L32.9101 20.7831L33.0961 20.8457L33.4062 20.971C34.3436 21.3719 34.9575 21.6486 35.3285 22.6623V22.9129L35.3906 23.1008C35.3957 23.9955 35.313 24.387 34.6464 24.98L34.5224 25.0427L34.3984 25.1053L34.3364 25.2306H34.2123L33.7163 25.4812H33.5922L33.4682 25.5438H33.3442C33.0083 25.5856 33.1375 25.6294 32.6621 25.6064H32.414Z" fill="#083390"/>
    <path fill-rule="evenodd" clip-rule="evenodd" d="M39.9795 19.3423H39.6075L39.4834 19.4049H39.4214L39.2974 19.4676H39.1734L39.1114 19.5302L39.0494 19.5929L38.9253 19.6555L38.6153 19.9687L38.5533 20.094L38.4913 20.1566V20.2819L38.4292 20.3446L38.3672 20.4698V20.5325L38.3052 20.6578V20.8457L38.2432 21.0336L38.1812 21.2842V22.1612L38.3052 22.537V22.7876L38.3672 22.8502V22.9755L38.4292 23.0381L38.4913 23.1634V23.2261L38.5533 23.3514L38.6153 23.414L38.6773 23.4766L38.7393 23.5393L38.8013 23.6646L38.9253 23.7898H39.0494L39.1114 23.8525L39.1734 23.9151L39.2974 23.9778H39.4214L39.4834 24.0404H39.7315L39.8555 24.1031H40.0415L40.1656 24.0404H40.4136L40.5376 23.9778H40.5996L40.7237 23.9151L40.8477 23.7898H40.9717L41.0957 23.6646L41.1577 23.5393L41.2197 23.4766L41.2818 23.414L41.3438 23.3514L41.4058 23.2261V23.1634L41.4678 23.0381L41.5298 22.9755V22.8502L41.5918 22.7876V22.6623L41.6538 22.537V22.3491L41.7158 22.1612V21.2842L41.6538 21.0963V20.8457L41.5918 20.7831V20.6578L41.5298 20.5325V20.4698L41.4678 20.3446L41.4058 20.2819V20.1566L41.3438 20.094L41.2818 20.0314L41.2197 19.9061L40.9717 19.6555L40.8477 19.5929L40.7237 19.4676H40.5996L40.5376 19.4049H40.4136L40.2896 19.3423H39.9795ZM39.9795 25.6691L39.7315 25.6064H39.5454C34.9835 25.3079 35.0972 17.8222 39.7315 17.7763L39.9795 17.7136L40.1656 17.7763H40.5996C41.5267 17.9224 41.8512 18.1918 42.584 18.7159L42.708 18.8412L42.832 18.9665L42.894 19.1544L43.0181 19.2797L43.1421 19.4676L43.2041 19.5929L43.3281 19.7808L43.3901 19.9687L43.4521 20.094L43.5762 20.4698V20.6578L43.6382 20.8457L43.7002 21.0963V21.9106C43.7064 22.6101 43.447 23.5309 43.0181 24.1031L42.894 24.2283L42.832 24.4163C42.3194 24.9174 41.5298 25.502 40.7857 25.5438L40.5996 25.6064H40.1656L39.9795 25.6691Z" fill="#083390"/>
    <path fill-rule="evenodd" clip-rule="evenodd" d="M49.6533 25.4812V20.5325L49.5912 20.4072V20.2193L49.5292 20.1566V20.0314L49.4672 19.9687V19.9061H49.4052L49.3432 19.8434V19.7808L49.2192 19.6555H49.1572V19.5929L49.0952 19.5302H49.0331L48.7851 19.4049H48.5991L48.475 19.3423H48.165C47.9004 19.3162 47.2255 19.429 46.9868 19.5302L46.8008 19.5929L46.6767 19.6555V25.4812H44.8784V19.5302C44.9229 18.8902 44.7782 19.122 44.8164 18.5906L44.7544 18.4653L45.6225 18.2148L45.9946 18.0895C46.3656 17.9778 47.3496 17.7355 47.7309 17.7763H47.979L48.165 17.7136L48.351 17.7763H49.1572L49.2812 17.8389H49.4672L49.7153 17.9642H49.9013C50.8666 18.3661 51.3989 19.1794 51.4516 20.2193V25.4812H49.6533Z" fill="#083390"/>
    <path fill-rule="evenodd" clip-rule="evenodd" d="M84.9994 4.62153L84.8754 4.43361L84.6894 4.30832L84.5653 4.1204L84.3793 3.99512L84.0072 4.18304C82.2668 5.09865 80.6008 6.12806 79.2944 7.62832L78.9844 7.87889L79.1084 8.38002C79.6861 13.312 79.5177 17.7303 77.8062 22.4117L77.6821 22.6623L77.8682 22.9755C78.5999 24.2669 80.0499 25.8674 81.2788 26.6713L81.5888 26.9219L81.7748 26.7966C82.1304 26.5377 82.5841 26.4061 82.767 26.1702L82.9531 26.0449L82.705 25.7943C77.5529 19.3297 78.3808 10.254 84.6894 4.8721L84.9994 4.62153Z" fill="#29B683"/>
    <path fill-rule="evenodd" clip-rule="evenodd" d="M81.7749 2.11598L81.4028 1.86541L81.2168 1.80277L81.0307 1.67749L80.5966 1.86541C79.8525 2.30599 79.0639 2.66409 78.3643 3.18089L78.0542 3.36881L78.1162 3.61938C78.2402 4.12051 78.3643 4.62164 78.4883 5.12277L78.5503 5.37334L78.9224 4.93485C79.652 4.04638 80.5243 3.2926 81.3408 2.49183L81.7749 2.11598Z" fill="#00B4C3"/>
    <path fill-rule="evenodd" clip-rule="evenodd" d="M77.6821 28.3L77.9301 28.2374C78.4696 28.1539 78.7115 28.0693 79.2324 27.9242L79.4184 27.8615L79.1084 27.423C78.3766 26.6285 77.6697 25.7996 77.124 24.8548L76.8139 24.4163L76.6279 24.6668C76.4915 25.1742 75.89 25.7839 75.6978 26.1702L75.5117 26.4208L75.7598 26.6714C76.2962 27.2758 76.8284 27.5984 77.4341 28.1121L77.6821 28.3Z" fill="#00B4C3"/>
    <path fill-rule="evenodd" clip-rule="evenodd" d="M88.5961 11.199L88.348 11.4495C85.4562 14.1379 84.9343 18.0071 86.9838 21.4095L87.0458 21.5348L87.2938 21.159C88.7697 18.4163 89.4198 14.6766 88.6581 11.6375L88.5961 11.199Z" fill="#7DBA00"/>
    <path fill-rule="evenodd" clip-rule="evenodd" d="M84.3173 15.6464V15.3959C84.6666 12.791 85.5782 10.1831 87.2318 8.12946L87.4178 7.94154L87.2938 7.75361L87.1698 7.50305L87.0458 7.31512L86.9838 7.1272L86.6117 7.31512C79.9879 11.2219 78.9637 19.027 84.4413 24.4162L84.6273 24.6668L84.8134 24.4789C85.047 24.2158 85.4635 23.8869 85.6195 23.6019L85.7435 23.4766L85.6195 23.2887C84.4858 20.8425 84.0734 18.601 84.2553 15.897L84.3173 15.6464Z" fill="#55B841"/>
    <path fill-rule="evenodd" clip-rule="evenodd" d="M65.28 4.30835L65.0939 4.49627C62.8626 6.72527 61.302 9.97009 61.1252 13.1408L61.0632 13.454L61.2493 13.2661C63.4941 10.9943 64.7312 7.73588 65.28 4.62156V4.30835Z" fill="#01B8E0"/>
    <path fill-rule="evenodd" clip-rule="evenodd" d="M68.0703 2.17847L67.8843 2.30375L67.7603 2.36639L67.5742 2.49167C67.1887 2.85708 66.9076 5.17586 66.5821 5.93695L66.396 6.43809L66.272 6.93922C65.7811 8.16908 65.5145 9.51483 64.7838 10.6351L64.4117 11.512L64.2257 11.8879L63.9776 12.2637C63.559 13.1616 62.9462 13.9321 62.4273 14.7694L62.1793 15.1452L61.9313 15.4585C60.8667 16.8334 61.1354 16.0859 61.4352 17.7135L61.6212 18.4652L62.1173 18.0894C66.7691 15.0179 68.5034 7.98429 68.0703 2.6796V2.17847Z" fill="#0298CD"/>
    <path fill-rule="evenodd" clip-rule="evenodd" d="M79.4183 11.6373V11.2614L79.3563 10.8856C79.3067 8.99172 78.9346 7.29623 78.6122 5.43577L78.4882 5.05993L78.4262 4.74672L78.3641 4.37087C78.1667 3.9543 78.0655 3.15876 77.8681 2.74219L77.744 2.36634L77.682 2.05314L77.0619 0.487099L76.8759 0.424458H76.4418L76.2558 0.361816L76.3798 1.36408C77.2066 10.1172 76.7467 20.1931 70.6748 27.1097L70.1167 27.6735L70.3027 27.7361L70.5508 27.8614L70.7368 27.9241C71.3931 28.1684 71.8261 28.1527 72.4731 28.3625H72.7212L72.9072 28.4252H73.1552L73.4033 28.4878H73.5893L74.3334 27.8614L75.8837 25.9822L76.1938 25.5437L76.4418 25.1052C78.6515 21.5325 79.4979 17.2489 79.4183 13.078V11.6373Z" fill="#083390"/>
    <path fill-rule="evenodd" clip-rule="evenodd" d="M73.9613 0.361816H73.7753L73.5892 0.424458H73.1552L73.2172 1.11351C73.2999 8.93534 71.9108 18.5445 66.0859 24.2282L65.4658 24.792L65.7139 24.9799C66.0518 25.3422 66.8342 25.9101 67.2641 26.1701L67.5122 26.358L68.3183 25.7943C75.7638 20.0166 76.3363 9.62858 74.2094 1.11351L73.9613 0.361816Z" fill="#0655A4"/>
    <path fill-rule="evenodd" clip-rule="evenodd" d="M70.861 0.925781L70.737 0.988423L70.1789 1.17635V1.8654C69.6084 8.60145 67.9744 15.5056 63.0476 20.4073L62.5515 20.8458L62.6755 21.159C62.936 21.6779 63.2956 22.1143 63.6057 22.5997L63.7297 22.8503L64.4118 22.4118C70.7597 17.9705 72.312 8.83949 71.047 1.61484L70.861 0.925781Z" fill="#0475B7"/>
</svg>
