<svg width="160" height="32" viewBox="0 0 160 32" fill="none" xmlns="http://www.w3.org/2000/svg">
<path fill-rule="evenodd" clip-rule="evenodd" d="M160 31.1641V8.5409H156.306C156.183 8.60601 156.192 8.63856 156.135 8.76063C154.898 11.1694 153.482 13.6677 152.228 16.0847C151.561 17.3705 150.878 18.5911 150.21 19.8688L148.705 22.6926C148.542 22.9937 148.347 23.3355 148.208 23.6366C148.094 23.5308 148.005 23.3111 147.924 23.1565C147.842 22.9856 147.753 22.8554 147.671 22.6926L146.166 19.8606C145.515 18.583 144.815 17.3705 144.164 16.101C143.057 13.9363 141.788 11.674 140.64 9.49303C140.486 9.20007 140.266 8.842 140.144 8.5409L136.384 8.55718V31.1641H139.932L139.94 15.9301L143.033 21.4964C144.009 23.3355 145.108 25.2235 146.125 27.0708C146.687 28.0961 147.622 29.8702 148.184 30.7816C148.412 30.4561 148.981 29.3657 149.226 28.9425L152.302 23.3925C153.311 21.5208 154.377 19.6816 155.386 17.8099L156.151 16.4265C156.192 16.3451 156.354 16.0114 156.436 15.9708V31.1641H160ZM120.89 11.4461C124.096 11.1125 127.384 13.033 128.824 15.8731C129.32 16.8415 129.654 17.8506 129.744 19.112C130.077 23.897 126.488 27.5997 122.135 27.9822C120.873 28.0961 119.604 27.8683 118.562 27.4614C116.723 26.7534 115.047 25.313 114.176 23.5552C112.719 20.6012 112.947 17.3216 114.892 14.7419C115.039 14.5385 115.193 14.3757 115.348 14.1804C115.47 14.034 115.714 13.7817 115.869 13.6433C116.031 13.4887 116.227 13.326 116.422 13.1795C117.74 12.146 119.107 11.6333 120.89 11.4461ZM109.692 20.5361C109.993 24.1737 111.71 26.8348 113.557 28.4949C115.592 30.3096 118.489 31.7826 122.346 31.5385C124.12 31.4245 125.569 30.9118 126.952 30.2283C128.36 29.5284 129.426 28.5681 130.281 27.6404C132.014 25.7524 133.601 22.5543 133.3 18.8922C132.893 14.0095 129.784 10.1766 125.78 8.65483C122.55 7.42602 119.124 7.58878 116.039 9.18379C115.356 9.53372 114.778 9.92434 114.225 10.3475C113.606 10.8276 113.199 11.2427 112.703 11.7635C110.994 13.5945 109.399 16.9229 109.692 20.5361ZM64.4862 11.438C65.8534 11.3647 67.7169 11.4298 68.9946 11.674C73.1367 12.4715 75.2119 15.0268 75.2119 19.7874C75.2119 24.5074 73.0798 27.1359 68.9783 27.8846C67.8146 28.0961 65.6336 28.2182 64.4699 28.1043L64.4862 11.438ZM66.2358 31.5466C69.67 31.5466 72.9984 30.7084 75.5211 28.6251C76.6116 27.7218 77.4823 26.3791 78.0276 25.0282C78.6461 23.5308 78.939 21.7079 78.9472 19.8688C78.9553 15.5395 77.5963 11.9344 73.8936 9.79413C72.3148 8.88269 70.2234 8.31304 68.1157 8.11774C66.6916 7.98753 62.3053 7.97125 60.7753 8.01194V31.5547L66.2358 31.5466ZM107.21 13.7573C106.901 13.6515 105.053 11.4543 101.432 11.4543C96.9237 11.4543 93.1803 15.1651 93.1803 19.6328V19.82C93.1803 26.257 100.569 30.2771 106.038 26.5744L107.161 25.6955L109.668 28.1775C109.187 28.7553 107.812 29.683 107.169 30.0492C104.004 31.8721 99.7963 32.0104 96.6063 30.5212C94.4904 29.5365 92.9605 28.2019 91.8294 26.5988C90.6901 24.9875 89.6321 22.6112 89.6321 20.056V19.3805C89.6321 16.8659 90.7063 14.449 91.8212 12.8702C95.5646 7.56436 103.027 6.23789 108.479 10.258C108.707 10.4289 109.545 11.0962 109.651 11.2834C109.545 11.4461 109.22 11.7472 109.065 11.91C108.658 12.3169 107.478 13.4399 107.21 13.7573ZM47.3235 31.5385C49.7893 31.6524 52.6619 31.1885 54.4197 30.1225C55.3393 29.561 56.0147 28.9181 56.5681 28.0148C57.9515 25.7606 57.7562 23.3355 57.7562 20.7314V8.01194L53.9151 8.02008C53.8663 10.2254 53.9151 12.4878 53.9151 14.7013C53.9151 16.9229 53.9151 19.1445 53.9151 21.3743C53.9151 22.4566 53.9314 23.5552 53.7849 24.5887C53.6303 25.6873 53.3129 26.2651 52.6863 26.8104C51.425 27.9171 49.3905 28.088 47.3235 28.1287V31.5385ZM82.0639 28.8286C82.2267 29.9597 83.2846 30.9363 84.6599 30.7491C85.7911 30.5945 86.7595 29.5203 86.5723 28.1612C86.4096 27.022 85.3435 26.0454 83.9926 26.2407C82.8696 26.4035 81.8686 27.4614 82.0639 28.8286Z" fill="#D42927"/>
<path fill-rule="evenodd" clip-rule="evenodd" d="M20.6229 27.6891C20.8182 27.1764 21.0217 26.6718 21.217 26.1592C18.9302 27.2903 18.2385 26.3382 17.9944 24.792C17.5061 26.7614 18.7431 27.982 20.6229 27.6891Z" fill="#A8A7AB"/>
<path fill-rule="evenodd" clip-rule="evenodd" d="M39.4297 1.7132C34.2622 -1.17573 23.8864 0.0368042 17.2866 2.60023C13.9257 3.8209 11.053 5.35896 8.97789 7.40155C7.16315 9.22443 7.15501 11.2508 8.80699 13.448C11.5169 16.6299 16.5542 19.8443 23.3819 21.1871C23.3168 21.4637 23.2435 21.7404 23.1784 22.0171C21.2253 25.3292 19.2804 28.6413 17.3273 31.9616C17.6203 31.9616 17.9132 31.9616 18.2062 31.9616C19.7605 30.0166 21.1277 28.6413 22.1937 28.1693C22.1937 29.5609 22.1775 30.9118 22.0229 31.9616C22.4053 31.9616 22.7959 31.9616 23.1784 31.9616C23.4551 30.5049 23.8295 29.2924 24.3666 28.4786C24.8874 27.6811 25.6361 27.5183 26.0836 28.4786C26.5149 29.4877 26.7998 30.6188 26.9056 31.9616C27.3287 31.9616 27.6624 31.9453 28.0856 31.9453C28.0611 28.5437 28.1181 25.1583 28.0937 21.7567C28.0937 21.4963 28.0937 21.2278 28.0937 20.9673C31.5441 20.2187 34.9864 18.3632 38.4369 13.6189C41.1956 9.46857 42.6279 3.25939 39.4297 1.7132Z" fill="#E4E3E4"/>
<path fill-rule="evenodd" clip-rule="evenodd" d="M38.8761 12.927C39.2098 12.3655 39.519 11.7796 39.7957 11.1855C37.867 12.634 35.0758 13.3258 32.2194 13.1955C28.712 13.0328 25.115 11.6412 22.9015 9.15917C22.1773 8.34539 21.4693 8.89062 22.0796 9.72069C25.4894 13.7977 32.7483 15.6206 38.8761 12.927Z" fill="#231F20"/>
<path fill-rule="evenodd" clip-rule="evenodd" d="M18.9712 31.034C20.2081 29.5855 21.3068 28.5682 22.1938 28.1695C22.2263 27.6324 22.1124 27.2418 21.9171 26.9162C21.8276 26.7291 21.616 26.8511 21.5265 27.0465L18.9712 31.034Z" fill="#A8A7AB"/>
<path fill-rule="evenodd" clip-rule="evenodd" d="M23.2842 31.4327C23.5446 30.212 23.8945 29.1948 24.3665 28.4786C24.8873 27.6811 25.636 27.5184 26.0836 28.4786C26.5149 29.4877 26.7997 30.6189 26.9055 31.9616C27.1171 31.9616 27.3043 31.9535 27.4996 31.9535C27.3612 28.8367 26.7509 26.8022 25.5384 26.729C24.6676 26.786 23.626 28.9751 23.2842 31.4327Z" fill="#A8A7AB"/>
<path fill-rule="evenodd" clip-rule="evenodd" d="M22.8448 6.22155C23.4958 6.22155 24.0248 5.73328 24.0248 5.13922C24.0248 4.54516 23.4958 4.05688 22.8448 4.05688C22.1938 4.05688 21.6648 4.54516 21.6648 5.13922C21.6648 5.73328 22.2019 6.22155 22.8448 6.22155Z" fill="#231F20"/>
<path fill-rule="evenodd" clip-rule="evenodd" d="M35.8899 1.02956C37.7941 0.923769 39.3566 1.55038 39.381 2.20955C39.4705 3.34071 37.8755 3.66622 35.9712 3.78015C34.067 3.88595 32.5045 3.35699 32.4801 2.60017C32.4638 1.84335 33.9856 1.13535 35.8899 1.02956Z" fill="#231F20"/>
<path fill-rule="evenodd" clip-rule="evenodd" d="M23.1785 22.0252C23.2436 21.7485 23.3168 21.4718 23.3819 21.1951C25.2373 21.3905 26.8812 21.3742 28.1019 20.9673C28.1019 21.2277 28.1019 21.4962 28.1019 21.7567C27.0277 22.4565 25.1804 22.3263 23.1785 22.0252Z" fill="#952A22"/>
<path fill-rule="evenodd" clip-rule="evenodd" d="M8.75814 10.3801C8.69303 9.65582 8.49772 8.98038 8.22104 8.32935C7.26891 7.8248 6.31678 7.32026 5.36465 6.81571C4.32301 6.31117 3.23254 7.05171 3.10233 8.15032C2.46758 11.9263 1.08415 12.9028 0.221535 15.4744C-0.217909 16.8008 0.0343644 17.6635 0.644703 18.1029C1.31201 18.5586 1.6538 18.7539 3.33019 18.1029C6.56092 16.7683 8.00132 14.9536 7.11429 10.5266C7.46422 10.73 7.81415 10.9416 8.15593 11.145C8.57097 11.3648 8.8151 11.2183 8.75814 10.3801Z" fill="#E4E3E4"/>
<path fill-rule="evenodd" clip-rule="evenodd" d="M1.44214 18.4935C1.84089 18.5668 2.36172 18.4691 3.32198 18.1029C6.55271 16.7683 7.9931 14.9536 7.10608 10.5266C6.29229 9.87554 5.47851 9.22451 4.66473 8.57349C4.0137 12.4634 3.07785 15.9626 1.44214 18.4935Z" fill="#A8A7AB"/>
</svg>
