<svg width="85" height="40" viewBox="0 0 85 40" fill="none" xmlns="http://www.w3.org/2000/svg">
    <g clip-path="url(#clip0_38_334)">
        <path fill-rule="evenodd" clip-rule="evenodd" d="M5.90383 23.3479C5.65142 24.7922 4.27719 25.9561 2.83284 25.9561C1.38849 25.9561 0.420922 24.7782 0.673332 23.3479C0.925742 21.9035 2.29998 20.7396 3.7303 20.7396C5.18867 20.7256 6.15624 21.9035 5.90383 23.3479Z" fill="#2EAB48"/>
        <path fill-rule="evenodd" clip-rule="evenodd" d="M16.8132 27.008L18.9727 15.916H14.6817L12.5222 27.008H16.8132Z" fill="#2EAB48"/>
        <path fill-rule="evenodd" clip-rule="evenodd" d="M19.6881 12.4942C19.4917 13.6862 18.3419 14.6537 17.1499 14.6537C15.958 14.6537 15.1587 13.6862 15.369 12.4942C15.5794 11.3023 16.7152 10.3347 17.9072 10.3347C19.0991 10.3487 19.8984 11.3023 19.6881 12.4942Z" fill="#2EAB48"/>
        <path d="M28.8311 15.5932C26.938 15.6633 25.1571 16.6589 24.9468 16.7851L25.115 15.9157H20.8241L18.6646 27.0218H22.9555L24.4279 19.5055C25.4095 18.4959 26.5734 18.3837 27.541 18.552C28.2561 18.6782 28.3543 19.155 28.3403 19.5055L26.8819 27.0358H31.1729L32.8276 18.552L32.8416 18.4679C32.8696 18.2996 32.8837 18.1453 32.8837 17.9911C32.8416 16.1401 30.6821 15.5231 28.8311 15.5932Z" fill="#2EAB48"/>
        <path fill-rule="evenodd" clip-rule="evenodd" d="M36.4451 19.8142L39.1515 17.0657L40.091 12.312H35.786L32.9114 27.0079H37.1883L38.2541 21.5811L36.4451 19.8142Z" fill="#2EAB48"/>
        <path fill-rule="evenodd" clip-rule="evenodd" d="M42.6154 19.8142L50.384 12.312H44.8871L37.4971 19.8142L44.8871 27.0079H50.384L42.6154 19.8142Z" fill="#2EAB48"/>
        <path fill-rule="evenodd" clip-rule="evenodd" d="M9.10097 12.3822C9.10097 12.3822 7.86697 18.6223 7.27801 21.5811C6.81526 23.8809 6.11412 26.433 3.32359 26.6153C3.22543 26.6293 3.11324 26.6293 2.98704 26.6293C2.20176 26.6293 1.44453 26.391 0.841553 25.9562C1.41649 26.6574 2.32797 27.064 3.32359 27.2323C5.14655 27.5689 7.30606 27.1622 8.55409 26.405C10.7977 25.0728 11.4568 22.8853 11.9196 20.5154C12.3262 18.4961 13.5322 12.3682 13.5322 12.3682H9.10097" fill="#2EAB48"/>
        <path fill-rule="evenodd" clip-rule="evenodd" d="M57.0868 11.9614C52.8379 11.9614 49.0658 15.411 48.6872 19.6599C48.2946 23.9088 51.4357 27.3584 55.6846 27.3584C59.9335 27.3584 63.6916 23.9088 64.0842 19.6599C64.4769 15.397 61.3498 11.9614 57.0868 11.9614ZM56.0492 23.4461C53.9598 23.4461 52.4173 21.7493 52.6136 19.6599C52.8099 17.5705 54.6609 15.8738 56.7503 15.8738C58.8397 15.8738 60.3822 17.5705 60.1859 19.6599C59.9896 21.7493 58.1245 23.4461 56.0492 23.4461Z" fill="#2EAB48"/>
        <path d="M58.7697 7.78273C58.6435 7.55836 58.4472 7.334 58.2088 7.1517C57.9564 6.96941 57.6759 6.81516 57.3534 6.70297C57.0308 6.59079 56.7083 6.50665 56.3578 6.45056C55.3341 6.29631 54.3805 5.97379 53.4971 5.45494C53.427 5.41287 53.3429 5.32874 53.2587 5.20253C53.1746 5.07633 53.1325 4.95012 53.1325 4.82392C53.1325 4.37519 53.2166 3.92646 53.3569 3.47773C53.5111 3.029 53.7074 2.67843 53.9318 2.42602C54.3104 2.00534 54.9835 1.64075 55.9511 1.33224C56.9327 1.00972 58.0124 0.855469 59.2324 0.855469C59.9616 0.855469 60.5225 0.911562 60.9292 1.02374C61.3218 1.13593 61.5181 1.3042 61.5181 1.54259C61.5181 1.9212 61.462 2.21568 61.3639 2.42602C61.2657 2.63636 61.1535 2.77659 61.0273 2.83268C60.9011 2.9028 60.7048 3.00096 60.3963 3.11314C60.0738 3.22532 59.7933 3.3375 59.569 3.46371C59.3306 3.58991 59.1343 3.7021 58.966 3.81428C58.7977 3.92646 58.6996 3.98255 58.6575 3.98255L58.5874 3.92646C58.5874 3.84232 58.6715 3.7021 58.8538 3.53382C59.0361 3.36555 59.2605 3.2113 59.5129 3.07107C59.7933 2.93084 59.9336 2.83268 59.9336 2.79061C59.9336 2.7205 59.7793 2.69245 59.4708 2.69245C58.5313 2.69245 57.6619 2.77659 56.8766 2.94487C56.0773 3.11314 55.4603 3.32348 54.9975 3.60394C54.5348 3.87037 54.3104 4.15082 54.3104 4.4453C54.3104 4.6276 54.4086 4.73978 54.5909 4.82392C54.7872 4.89403 55.1939 5.02024 55.8529 5.18851C56.498 5.35678 57.0729 5.56713 57.5918 5.77747C58.3209 6.08597 58.8678 6.42252 59.2324 6.75906C59.583 7.09561 59.7653 7.47423 59.7653 7.89491C59.7653 8.17537 59.6952 8.46984 59.555 8.76432C59.4147 9.0588 59.2044 9.32523 58.9379 9.56362C58.6715 9.80201 58.363 9.99833 58.0124 10.1666C57.718 10.2928 57.3394 10.405 56.8906 10.5172C56.4419 10.6294 55.9511 10.7135 55.4182 10.7836C54.8854 10.8397 54.3805 10.8818 53.9038 10.8818C53.0203 10.8818 52.3052 10.7976 51.7723 10.6294C51.2394 10.4611 50.959 10.2087 50.959 9.87212C50.959 9.71787 51.0571 9.49351 51.2394 9.15696C51.4217 8.83444 51.6321 8.62409 51.8845 8.51191C52.0948 8.42777 52.3052 8.38571 52.5155 8.35766C52.7118 8.34364 52.824 8.37168 52.824 8.42777L52.796 8.48387L52.7399 8.52593L52.6838 8.55398C52.5856 8.59605 52.5015 8.62409 52.4314 8.63812L52.2771 8.70823L52.221 8.80639C52.221 8.91857 52.7399 8.96064 53.7916 8.96064C54.7031 8.96064 55.4463 8.9326 56.0352 8.86248C56.6102 8.79237 57.129 8.68018 57.5777 8.51191C57.9984 8.31559 58.4051 8.07721 58.7697 7.78273Z" fill="#7BC252"/>
        <path d="M65.8369 7.55829V8.06312C65.5003 8.37162 65.2339 8.56794 65.0235 8.6661C64.8272 8.76426 64.5327 8.80632 64.1541 8.7923C63.4951 9.57758 62.9201 9.95619 62.4153 9.95619C62.1349 9.95619 61.8824 9.85803 61.6441 9.67574C61.4057 9.49344 61.2234 9.22701 61.0831 8.90448C60.9429 8.58196 60.8728 8.21737 60.8728 7.82473C60.8728 7.5022 60.985 7.13761 61.1953 6.74497C61.4057 6.35233 61.6861 5.97372 62.0367 5.63717C62.3732 5.30063 62.7378 5.02017 63.1305 4.80983C63.5231 4.59949 63.8877 4.4873 64.2102 4.4873C64.4486 4.4873 64.6309 4.52937 64.7711 4.59949C64.9114 4.6696 64.9815 4.76776 64.9815 4.90799C64.9815 5.00615 64.9254 5.11833 64.8132 5.25856C64.9955 5.30063 65.1357 5.35672 65.2058 5.45488C65.276 5.55304 65.304 5.72131 65.304 5.97372C65.304 6.21211 65.2479 6.52061 65.1357 6.89922C65.0235 7.26382 64.8693 7.61438 64.673 7.93691L64.8132 8.07714H64.9254C65.0095 8.07714 65.0937 8.04909 65.1778 8.00702C65.2619 7.96495 65.3321 7.92289 65.4022 7.8668C65.4583 7.83875 65.6125 7.72657 65.8369 7.55829ZM64.2663 5.56706C63.8456 5.81947 63.4951 6.04383 63.1866 6.25417C62.8921 6.46452 62.6397 6.66084 62.4293 6.87118C62.219 7.08152 62.0788 7.29186 62.0086 7.5022C61.8824 8.06312 61.8123 8.37162 61.8123 8.41369C61.8123 8.75023 62.0507 8.9185 62.5135 8.9185C62.7238 8.9185 63.0884 8.73621 63.6072 8.35759C63.5231 8.11921 63.481 7.89484 63.481 7.6845C63.481 7.36198 63.5512 7.03945 63.6774 6.70291C63.8176 6.38038 64.0139 6.00177 64.2663 5.56706Z" fill="#7BC252"/>
        <path d="M69.4405 7.50213V8.06304C68.3748 9.46532 67.5194 10.1665 66.8603 10.1665C66.4957 10.1665 66.2153 9.97014 66.019 9.5775C65.8086 9.18487 65.7104 8.66602 65.7104 8.035C65.7104 7.51615 65.8367 6.89915 66.075 6.19801C66.3275 5.48285 66.65 4.76769 67.0566 4.0385C67.4633 3.30932 67.884 2.67829 68.3187 2.1314C68.7534 1.58452 69.1601 1.2059 69.5387 0.981536C69.6929 0.8974 69.8051 0.841309 69.8892 0.841309C69.9874 0.841309 70.0715 0.883377 70.0996 0.981536C70.1417 1.06567 70.1557 1.23395 70.1557 1.45831C70.1557 2.15945 69.8752 3.02886 69.3003 4.05253C68.7253 5.07619 67.9261 6.1279 66.9164 7.19363C66.8603 7.46006 66.8463 7.65638 66.8463 7.79661C66.8463 8.11913 66.9164 8.38557 67.0566 8.58189C67.1969 8.7782 67.3932 8.89039 67.6456 8.89039C67.7718 8.89039 67.912 8.8343 68.0523 8.73614C68.1925 8.63798 68.3608 8.51177 68.515 8.37154C68.6552 8.23132 68.9778 7.93684 69.4405 7.50213ZM67.1828 6.1279C67.4493 5.87549 67.7017 5.58101 67.9401 5.24446C68.1925 4.90792 68.4168 4.55735 68.6412 4.19275C68.8516 3.81414 69.0338 3.47759 69.146 3.18311C69.2722 2.88863 69.3283 2.66427 69.3283 2.51002C69.3283 2.39784 69.2863 2.32772 69.2021 2.32772C69.1741 2.32772 69.104 2.35577 69.0198 2.41186C68.7113 2.66427 68.3608 3.15507 67.9821 3.89828C67.6176 4.64148 67.3371 5.38469 67.1828 6.1279Z" fill="#7BC252"/>
        <path d="M70.268 6.22614C71.0392 5.525 71.7824 5.00616 72.5116 4.66962C73.2408 4.33307 73.7877 4.16479 74.1944 4.16479C74.3065 4.16479 74.3907 4.20686 74.4888 4.30502C74.573 4.38916 74.6571 4.48732 74.6992 4.61352C74.7553 4.72571 74.7833 4.80984 74.7833 4.87996C74.7833 4.96409 74.7412 5.03421 74.6711 5.07628C74.601 5.11834 74.4748 5.17444 74.3065 5.23053C74.3346 5.31466 74.3907 5.41282 74.4468 5.53903C74.5029 5.66523 74.5449 5.76339 74.573 5.84753C74.601 5.93167 74.615 5.98776 74.615 6.05787C74.615 6.18408 74.4888 6.40844 74.2504 6.73097C74.0121 7.06751 73.8298 7.3059 73.7316 7.46015C73.6334 7.6144 73.5774 7.81072 73.5774 8.03509C73.5774 8.4137 73.7456 8.596 74.0962 8.596C74.4468 8.596 75.0077 8.25945 75.7509 7.60038V8.06313C74.4748 9.47943 73.5633 10.1946 73.0024 10.1946C72.8061 10.1946 72.6659 10.1385 72.5817 9.99828C72.4976 9.87207 72.4555 9.67575 72.4555 9.42334C72.4555 9.01668 72.5958 8.44175 72.8902 7.68452C72.147 8.49784 71.6001 9.08679 71.2496 9.43736C70.885 9.78793 70.5905 9.95621 70.3521 9.95621C70.2399 9.95621 70.0997 9.85805 69.9314 9.66173C69.7632 9.46541 69.6229 9.22702 69.4827 8.91852C69.3565 8.61002 69.2864 8.2875 69.2864 7.96497C69.2864 7.72658 69.3144 7.53026 69.3565 7.36199C69.4126 7.20774 69.4967 7.03947 69.6229 6.87119C69.7632 6.71694 69.9735 6.49258 70.268 6.22614ZM73.8999 5.38478C72.5817 5.98776 71.6422 6.49258 71.0953 6.91326C70.5344 7.33395 70.2539 7.76865 70.2539 8.21738C70.2539 8.37163 70.282 8.51186 70.3381 8.61002C70.3942 8.70818 70.4643 8.76427 70.5625 8.76427C70.6185 8.76427 70.7167 8.73622 70.8569 8.65209C71.3898 8.34359 71.8666 7.9229 72.3153 7.43211C72.75 6.94131 73.2829 6.25419 73.8999 5.38478Z" fill="#7BC252"/>
        <path d="M75.6108 8.16117V7.67037C75.8773 7.34785 76.0876 7.06739 76.2278 6.84303C76.0736 6.78693 75.9474 6.71682 75.8773 6.64671C75.8072 6.56257 75.7651 6.43637 75.7651 6.28211C75.7651 6.09982 75.8352 5.87545 75.9895 5.58098C76.1437 5.30052 76.326 5.04811 76.5504 4.7957C76.7747 4.55731 76.9711 4.40306 77.1533 4.33295L77.3497 4.27686C77.4478 4.27686 77.5039 4.31892 77.5039 4.41708C77.5039 4.50122 77.4198 4.66949 77.2655 4.93593C78.3032 4.78168 78.9623 4.69754 79.2427 4.69754C79.3549 4.69754 79.425 4.71156 79.4671 4.72558C79.5512 4.76765 79.6214 4.87984 79.6774 5.04811C79.7335 5.21638 79.7616 5.38466 79.7616 5.53891C79.7616 5.65109 79.7195 5.76327 79.6214 5.88948C79.5232 6.01568 79.3689 6.19798 79.1446 6.43636C78.8782 6.73084 78.6538 7.03934 78.4715 7.37589C78.2892 7.71244 78.2051 7.96485 78.2051 8.14714C78.2051 8.38553 78.3593 8.49771 78.6398 8.49771C78.9483 8.49771 79.4811 8.18921 80.2524 7.55819V8.06301C79.8317 8.49771 79.4952 8.84828 79.2147 9.10069C78.9483 9.3531 78.6959 9.56345 78.4575 9.70367C78.2331 9.85792 78.0228 9.92804 77.8405 9.92804C77.6301 9.92804 77.4478 9.82988 77.3076 9.63356C77.1674 9.43724 77.0973 9.15679 77.0973 8.79219C77.0973 8.58185 77.1533 8.32944 77.2655 8.04898C77.3777 7.76853 77.546 7.47405 77.7563 7.1375C77.9807 6.81498 78.2191 6.47843 78.4855 6.15591C78.3453 6.18395 78.191 6.22602 78.0087 6.25407C77.8264 6.28211 77.6441 6.32418 77.4478 6.35223C77.2515 6.38027 77.0973 6.42234 76.9851 6.43636C76.6625 7.08141 76.1998 7.65635 75.6108 8.16117Z" fill="#7BC252"/>
        <path d="M0.630859 37.9738L1.43016 34.1736H2.60807C2.81841 34.1736 2.98669 34.1876 3.08485 34.2016C3.25312 34.2297 3.39335 34.2858 3.51955 34.3559C3.63174 34.426 3.7299 34.5242 3.78599 34.6644C3.8561 34.7906 3.88415 34.9308 3.88415 35.0851C3.88415 35.2954 3.82805 35.4777 3.71587 35.632C3.60369 35.7862 3.42139 35.9124 3.18301 35.9965C3.39335 36.0667 3.5476 36.1648 3.64576 36.305C3.74392 36.4453 3.80001 36.5995 3.80001 36.7818C3.80001 36.9922 3.74392 37.1885 3.61771 37.3848C3.49151 37.5811 3.33726 37.7213 3.14094 37.8335C2.94462 37.9317 2.72025 37.9878 2.48187 37.9878H0.630859M1.23384 37.5391H2.10325C2.32762 37.5391 2.48187 37.525 2.566 37.511C2.72025 37.483 2.86048 37.4409 2.95864 37.3708C3.0568 37.3007 3.14094 37.2165 3.19703 37.1043C3.25312 36.9922 3.28117 36.88 3.28117 36.7538C3.28117 36.5715 3.22508 36.4453 3.11289 36.3471C3.00071 36.249 2.79037 36.2069 2.48187 36.2069H1.50027L1.23384 37.5391ZM1.59843 35.7862H2.36969C2.73428 35.7862 3.00071 35.7301 3.16898 35.6039C3.33726 35.4917 3.40737 35.3094 3.40737 35.0851C3.40737 34.9729 3.37933 34.8887 3.33726 34.8046C3.28117 34.7205 3.22508 34.6784 3.14094 34.6363C3.0568 34.6083 2.90255 34.5802 2.66416 34.5802H1.85084L1.59843 35.7862Z" fill="#7BC252"/>
        <path d="M6.00166 37.469C5.66511 37.8476 5.32856 38.0299 4.99202 38.0299C4.78168 38.0299 4.6134 37.9738 4.47317 37.8476C4.34697 37.7214 4.27686 37.5811 4.27686 37.3988C4.27686 37.2867 4.3049 37.0903 4.36099 36.8099L4.69754 35.2253H5.16029L4.7957 36.9782C4.76765 37.1184 4.75363 37.2446 4.75363 37.3147C4.75363 37.4129 4.78168 37.497 4.85179 37.5531C4.9219 37.6092 5.00604 37.6372 5.13225 37.6372C5.25845 37.6372 5.39868 37.6092 5.51086 37.5391C5.63707 37.469 5.74925 37.3848 5.83339 37.2726C5.91752 37.1605 6.00166 37.0343 6.05775 36.894C6.09982 36.7959 6.14189 36.6276 6.18395 36.3892L6.43636 35.1973H6.89912L6.32418 37.9457H5.88948L6.00166 37.469Z" fill="#7BC252"/>
        <path d="M7.05347 37.9739L7.6284 35.2254H8.10518L7.53024 37.9739H7.05347ZM7.74058 34.6925L7.85277 34.1597H8.31552L8.20334 34.6925H7.74058Z" fill="#7BC252"/>
        <path d="M8.21729 37.9739L9.01658 34.1597H9.47934L8.69406 37.9739H8.21729Z" fill="#7BC252"/>
        <path d="M11.3025 37.5671C11.0361 37.8756 10.7556 38.0298 10.4611 38.0298C10.1947 38.0298 9.98437 37.9317 9.80208 37.7353C9.6338 37.539 9.53564 37.2586 9.53564 36.894C9.53564 36.5574 9.60576 36.2489 9.74599 35.9685C9.88621 35.688 10.0545 35.4777 10.2648 35.3515C10.4752 35.2112 10.6715 35.1411 10.8818 35.1411C11.2184 35.1411 11.4848 35.3094 11.6531 35.6319L11.9616 34.1455H12.4243L11.625 37.9457H11.1903L11.3025 37.5671ZM10.0124 36.8098C10.0124 37.0062 10.0264 37.1604 10.0685 37.2586C10.1106 37.3708 10.1667 37.4689 10.2648 37.539C10.363 37.6091 10.4611 37.6512 10.5874 37.6512C10.7977 37.6512 10.994 37.539 11.1623 37.3147C11.4007 37.0202 11.5129 36.6556 11.5129 36.2209C11.5129 35.9965 11.4568 35.8282 11.3446 35.702C11.2324 35.5758 11.0922 35.5197 10.9099 35.5197C10.7977 35.5197 10.6995 35.5478 10.6014 35.5899C10.5032 35.6459 10.4191 35.7301 10.3209 35.8423C10.2368 35.9685 10.1526 36.1227 10.0966 36.305C10.0405 36.5154 10.0124 36.6696 10.0124 36.8098Z" fill="#7BC252"/>
        <path d="M12.3823 37.9739L12.9573 35.2254H13.42L12.8451 37.9739H12.3823ZM13.0694 34.6925L13.1816 34.1597H13.6444L13.5322 34.6925H13.0694Z" fill="#7BC252"/>
        <path d="M13.5745 37.9737L14.1494 35.2253H14.5701L14.4719 35.7021C14.6542 35.5198 14.8225 35.3795 14.9908 35.2954C15.145 35.2113 15.3133 35.1692 15.4816 35.1692C15.7059 35.1692 15.8742 35.2253 16.0144 35.3515C16.1406 35.4777 16.2107 35.6319 16.2107 35.8423C16.2107 35.9404 16.1827 36.1087 16.1406 36.3191L15.7901 37.9878H15.3273L15.6919 36.2349C15.734 36.0666 15.748 35.9404 15.748 35.8563C15.748 35.7581 15.7199 35.688 15.6498 35.6319C15.5797 35.5758 15.4956 35.5478 15.3694 35.5478C15.131 35.5478 14.9207 35.6319 14.7243 35.8002C14.542 35.9685 14.4018 36.263 14.3036 36.6836L14.0372 37.9597H13.5745" fill="#7BC252"/>
        <path d="M16.5044 38.2261L16.9812 38.2682C16.9812 38.3804 16.9952 38.4505 17.0232 38.5066L17.1635 38.6328C17.2476 38.6749 17.3598 38.6889 17.486 38.6889C17.7664 38.6889 17.9768 38.6188 18.103 38.4645C18.1871 38.3664 18.2572 38.156 18.3274 37.8195L18.3694 37.5951C18.131 37.8475 17.8646 37.9597 17.5982 37.9597C17.3177 37.9597 17.0793 37.8615 16.897 37.6512C16.7147 37.4408 16.6166 37.1604 16.6166 36.7818C16.6166 36.4733 16.6867 36.1928 16.8409 35.9264C16.9952 35.66 17.1635 35.4777 17.3738 35.3374C17.5841 35.2112 17.7805 35.1411 18.0048 35.1411C18.3694 35.1411 18.6499 35.3094 18.8462 35.66L18.9444 35.2112H19.3791L18.8182 37.8756C18.7621 38.17 18.6779 38.3944 18.5798 38.5627C18.4816 38.7309 18.3414 38.8572 18.1731 38.9413C18.0048 39.0254 17.7945 39.0815 17.5701 39.0815C17.3458 39.0815 17.1635 39.0535 16.9952 38.9974C16.8409 38.9413 16.7147 38.8572 16.6306 38.745C16.5465 38.6328 16.5044 38.5066 16.5044 38.3664V38.2261ZM17.0934 36.7537C17.0934 36.936 17.1074 37.0763 17.1494 37.1744C17.2055 37.3006 17.2756 37.4128 17.3738 37.4829C17.472 37.553 17.5701 37.5811 17.6963 37.5811C17.8506 37.5811 18.0048 37.525 18.1591 37.4268C18.3133 37.3146 18.4395 37.1464 18.5237 36.922C18.6218 36.6976 18.6639 36.4733 18.6639 36.277C18.6639 36.0526 18.5938 35.8703 18.4816 35.7301C18.3554 35.6039 18.2012 35.5338 18.0189 35.5338C17.9067 35.5338 17.7945 35.5618 17.6823 35.6319C17.5701 35.688 17.472 35.7862 17.3878 35.9124C17.2897 36.0386 17.2196 36.1928 17.1775 36.3611C17.1214 36.5294 17.0934 36.6556 17.0934 36.7537Z" fill="#7BC252"/>
        <path d="M22.9132 37.9739H22.128L22.4365 36.4875L21.3848 34.1597H22.2121L22.6889 35.2394C22.8011 35.4918 22.8712 35.6882 22.9132 35.8003C22.9834 35.6882 23.0535 35.5619 23.1376 35.4357L23.5022 34.9309L24.0351 34.1597H24.9466L23.2077 36.5576L22.9132 37.9739Z" fill="#39B54A"/>
        <path d="M24.4561 36.8238C24.4561 36.319 24.5963 35.9124 24.8908 35.6039C25.1852 35.2954 25.5639 35.1411 26.0266 35.1411C26.4333 35.1411 26.7558 35.2533 26.9802 35.4777C27.2045 35.702 27.3307 35.9965 27.3307 36.3891C27.3307 36.8379 27.1905 37.2165 26.91 37.539C26.6296 37.8615 26.2369 38.0298 25.7602 38.0298C25.4937 38.0298 25.2694 37.9737 25.0731 37.8756C24.8767 37.7774 24.7225 37.6231 24.6243 37.4408C24.5121 37.2445 24.4561 37.0482 24.4561 36.8238ZM26.5735 36.291C26.5735 36.1087 26.5174 35.9685 26.4192 35.8703C26.3211 35.7721 26.1809 35.716 26.0126 35.716C25.8583 35.716 25.7041 35.7721 25.5919 35.8703C25.4657 35.9685 25.3675 36.1087 25.2974 36.305C25.2273 36.5013 25.1993 36.6696 25.1993 36.8238C25.1993 37.0202 25.2554 37.1744 25.3535 37.3006C25.4657 37.4128 25.5919 37.4689 25.7602 37.4689C25.9705 37.4689 26.1388 37.3848 26.279 37.2025C26.4753 36.9501 26.5735 36.6556 26.5735 36.291Z" fill="#39B54A"/>
        <path d="M28.1716 35.2113H28.9148L28.5782 36.8379C28.5361 37.0343 28.5221 37.1605 28.5221 37.2025C28.5221 37.2867 28.5502 37.3568 28.6063 37.4129C28.6624 37.469 28.7325 37.497 28.8306 37.497L29.0269 37.4549L29.2233 37.3428L29.4056 37.1745C29.4616 37.1044 29.5037 37.0202 29.5598 36.908C29.5879 36.8239 29.6299 36.6977 29.672 36.5154L29.9524 35.1973H30.6957L30.1207 37.9457H29.4196L29.4897 37.5671C29.1812 37.8616 28.8587 38.0018 28.4941 38.0018C28.2697 38.0018 28.0874 37.9317 27.9612 37.8055C27.835 37.6793 27.7649 37.497 27.7649 37.2867C27.7649 37.1885 27.7929 37.0062 27.849 36.7258L28.1716 35.2113Z" fill="#39B54A"/>
        <path d="M31.3832 35.2112H32.0843L31.9721 35.7441C32.2386 35.3515 32.519 35.1411 32.8135 35.1411C32.9257 35.1411 33.0379 35.1692 33.1641 35.2253L32.8836 35.8423C32.8135 35.8142 32.7434 35.8002 32.6733 35.8002C32.5471 35.8002 32.4209 35.8423 32.2806 35.9404C32.1544 36.0386 32.0422 36.1648 31.9721 36.3331C31.902 36.5013 31.8179 36.7537 31.7478 37.1043L31.5655 37.9737H30.8223L31.3832 35.2112Z" fill="#39B54A"/>
        <path d="M36.0524 37.9739H35.2671L35.9262 34.8047H34.8184L34.9446 34.1597H37.9454L37.8052 34.8047H36.7114L36.0524 37.9739Z" fill="#39B54A"/>
        <path d="M38.0721 35.2112H38.7733L38.6611 35.7441C38.9135 35.3515 39.208 35.1411 39.5025 35.1411C39.6147 35.1411 39.7268 35.1692 39.853 35.2253L39.5726 35.8423C39.5025 35.8142 39.4324 35.8002 39.3622 35.8002C39.236 35.8002 39.0958 35.8423 38.9696 35.9404C38.8434 36.0386 38.7312 36.1648 38.6611 36.3331C38.591 36.5013 38.5209 36.7537 38.4367 37.1043L38.2544 37.9737H37.5112L38.0721 35.2112Z" fill="#39B54A"/>
        <path d="M40.1754 35.2113H40.9186L40.582 36.8379C40.5399 37.0343 40.5259 37.1605 40.5259 37.2025C40.5259 37.2867 40.554 37.3568 40.6101 37.4129C40.6661 37.469 40.7503 37.497 40.8344 37.497L41.0307 37.4549L41.2271 37.3428L41.4094 37.1745C41.4654 37.1044 41.5215 37.0202 41.5636 36.908C41.5917 36.8239 41.6337 36.6977 41.6758 36.5154L41.9562 35.1973H42.6995L42.1245 37.9457H41.4234L41.5075 37.5671C41.199 37.8616 40.8765 38.0018 40.5119 38.0018C40.2875 38.0018 40.1052 37.9317 39.979 37.8055C39.8528 37.6793 39.7827 37.497 39.7827 37.2867C39.7827 37.1885 39.8108 37.0062 39.8669 36.7258L40.1754 35.2113Z" fill="#39B54A"/>
        <path d="M42.7551 37.2025L43.4703 37.0903C43.5404 37.2445 43.6105 37.3567 43.7087 37.4128C43.8068 37.4829 43.933 37.511 44.1013 37.511C44.2696 37.511 44.4098 37.4689 44.508 37.3988C44.5781 37.3427 44.6202 37.2866 44.6202 37.2025L44.5641 37.0622C44.522 37.0202 44.4238 36.9781 44.2556 36.922C43.8068 36.7678 43.5264 36.6556 43.4142 36.5714C43.2459 36.4312 43.1618 36.2629 43.1618 36.0386C43.1618 35.8142 43.2459 35.6319 43.4002 35.4777C43.6245 35.2533 43.9611 35.1411 44.4098 35.1411C44.7604 35.1411 45.0268 35.2112 45.2091 35.3374C45.3914 35.4636 45.5036 35.6459 45.5597 35.8703L44.8726 35.9965C44.8445 35.8983 44.7744 35.8142 44.7043 35.7721C44.5921 35.702 44.4659 35.674 44.2976 35.674C44.1434 35.674 44.0312 35.702 43.9611 35.7581L43.8629 35.9404L43.9611 36.1087C44.0032 36.1367 44.1434 36.1788 44.3818 36.2489C44.7464 36.3471 44.9847 36.4593 45.111 36.5574C45.2792 36.6976 45.3774 36.8799 45.3774 37.0763C45.3774 37.3427 45.2652 37.5671 45.0549 37.7634C44.8305 37.9597 44.522 38.0579 44.1294 38.0579C43.7367 38.0579 43.4282 37.9877 43.2039 37.8335C42.9795 37.6652 42.8252 37.4689 42.7551 37.2025Z" fill="#39B54A"/>
        <path d="M45.9949 35.772L46.1071 35.2251H46.4717L46.5698 34.7764L47.4252 34.2576L47.2289 35.2111H47.6776L47.5654 35.758H47.1027L46.8643 36.9079C46.8222 37.1182 46.7942 37.2444 46.7942 37.2725L46.8503 37.3987C46.8783 37.4267 46.9484 37.4407 47.0466 37.4407C47.0746 37.4407 47.1588 37.4267 47.285 37.4267L47.1728 37.9736C47.0466 38.0017 46.9064 38.0157 46.7801 38.0157C46.5137 38.0157 46.3314 37.9596 46.2052 37.8614C46.079 37.7633 46.0229 37.623 46.0229 37.4407C46.0229 37.3566 46.051 37.1603 46.1211 36.8518L46.3454 35.744H45.9949" fill="#39B54A"/>
        <path d="M48.9956 37.9739L49.5705 35.2254H50.0473L49.4724 37.9739H48.9956ZM49.6827 34.6925L49.7949 34.1597H50.2577L50.1455 34.6925H49.6827Z" fill="#7BC252"/>
        <path d="M50.2017 37.9737L50.7766 35.2253H51.1973L51.0991 35.7021C51.2814 35.5198 51.4637 35.3795 51.618 35.2954C51.7862 35.2113 51.9405 35.1692 52.1088 35.1692C52.3331 35.1692 52.5014 35.2253 52.6276 35.3515C52.7538 35.4777 52.8239 35.6319 52.8239 35.8423C52.8239 35.9404 52.7959 36.1087 52.7538 36.3191L52.4032 37.9878H51.9265L52.2911 36.2349C52.3331 36.0666 52.3471 35.9404 52.3471 35.8563C52.3471 35.7581 52.3191 35.688 52.249 35.6319C52.1789 35.5758 52.0947 35.5478 51.9685 35.5478C51.7301 35.5478 51.5198 35.6319 51.3235 35.8002C51.1412 35.9685 51.001 36.263 50.9028 36.6836L50.6364 37.9597H50.2017" fill="#7BC252"/>
        <path d="M54.8289 36.7398L55.3197 36.6977V36.8239C55.3197 36.9782 55.3477 37.1044 55.4178 37.2306C55.4879 37.3568 55.6001 37.4409 55.7544 37.5111C55.9086 37.5812 56.0909 37.6092 56.3153 37.6092C56.6238 37.6092 56.8481 37.5391 57.0164 37.4129C57.1847 37.2867 57.2548 37.1324 57.2548 36.9501C57.2548 36.838 57.2127 36.7258 57.1286 36.6276C57.0445 36.5295 56.8061 36.4033 56.4134 36.235C56.119 36.1088 55.9086 36.0106 55.7964 35.9405C55.6282 35.8283 55.502 35.7021 55.4178 35.5759C55.3337 35.4497 55.2916 35.2955 55.2916 35.1272C55.2916 34.9309 55.3477 34.7626 55.4459 34.5943C55.558 34.4401 55.7123 34.3139 55.9226 34.2297C56.133 34.1456 56.3573 34.1035 56.6238 34.1035C56.9323 34.1035 57.1987 34.1596 57.4091 34.2578C57.6194 34.3559 57.7736 34.4962 57.8718 34.6785C57.97 34.8467 58.012 35.015 58.012 35.1692V35.2534L57.5212 35.2955C57.5212 35.1833 57.5072 35.0991 57.4932 35.043C57.4651 34.9309 57.4091 34.8467 57.3389 34.7766C57.2688 34.7065 57.1707 34.6504 57.0445 34.6083C56.9183 34.5663 56.778 34.5382 56.6238 34.5382C56.3433 34.5382 56.133 34.6083 55.9787 34.7205C55.8525 34.8187 55.7964 34.9449 55.7964 35.0991C55.7964 35.1973 55.8245 35.2814 55.8665 35.3515C55.9086 35.4217 56.0068 35.4918 56.133 35.5619C56.2171 35.618 56.4415 35.7161 56.778 35.8564C57.0445 35.9826 57.2408 36.0807 57.3389 36.1368C57.4792 36.221 57.5773 36.3331 57.6615 36.4734C57.7316 36.5996 57.7736 36.7538 57.7736 36.9221C57.7736 37.1324 57.7176 37.3147 57.5913 37.497C57.4651 37.6653 57.2969 37.8055 57.0725 37.9037C56.8481 38.0019 56.5957 38.0439 56.3153 38.0439C55.8806 38.0439 55.53 37.9458 55.2636 37.7635C54.9691 37.5671 54.8289 37.2306 54.8289 36.7398Z" fill="#7BC252"/>
        <path d="M58.2649 36.9219C58.2649 36.389 58.4191 35.9403 58.7417 35.5897C59.0081 35.2953 59.3446 35.155 59.7653 35.155C60.1019 35.155 60.3683 35.2532 60.5646 35.4635C60.775 35.6739 60.8731 35.9543 60.8731 36.3049C60.8731 36.6274 60.803 36.9219 60.6768 37.1883C60.5506 37.4548 60.3683 37.6651 60.1299 37.8194C59.8915 37.9596 59.6391 38.0437 59.3867 38.0437C59.1764 38.0437 58.9801 38.0017 58.7978 37.9035C58.6155 37.8053 58.4893 37.6791 58.3911 37.5109C58.307 37.3426 58.2649 37.1463 58.2649 36.9219ZM58.7276 36.8798C58.7276 37.1463 58.7837 37.3426 58.9099 37.4688C59.0361 37.609 59.1904 37.6651 59.3867 37.6651C59.4849 37.6651 59.583 37.6511 59.6812 37.609C59.7794 37.5669 59.8775 37.5109 59.9476 37.4267C60.0318 37.3426 60.1019 37.2444 60.172 37.1463C60.2281 37.0341 60.2842 36.9219 60.3122 36.7957C60.3683 36.6274 60.3964 36.4592 60.3964 36.3049C60.3964 36.0525 60.3262 35.8562 60.2141 35.73C60.0879 35.5897 59.9336 35.5196 59.7373 35.5196C59.5971 35.5196 59.4568 35.5477 59.3306 35.6178C59.2044 35.6879 59.1063 35.7861 59.0081 35.9263C58.9099 36.0665 58.8398 36.2208 58.7978 36.389C58.7557 36.5854 58.7276 36.7396 58.7276 36.8798Z" fill="#7BC252"/>
        <path d="M61.0974 37.9739L61.8967 34.1597H62.3595L61.5602 37.9739H61.0974Z" fill="#7BC252"/>
        <path d="M64.1683 37.6231C64 37.7634 63.8458 37.8615 63.6915 37.9316C63.5373 38.0018 63.383 38.0298 63.2148 38.0298C62.9624 38.0298 62.752 37.9597 62.5978 37.8054C62.4435 37.6512 62.3594 37.4689 62.3594 37.2305C62.3594 37.0763 62.4014 36.936 62.4716 36.8238C62.5417 36.6976 62.6398 36.6135 62.752 36.5434C62.8642 36.4733 63.0044 36.4172 63.1727 36.3891C63.2849 36.3751 63.4812 36.3471 63.7757 36.3471C64.0702 36.3331 64.2805 36.305 64.4067 36.2489C64.4488 36.1227 64.4628 36.0105 64.4628 35.9264C64.4628 35.8142 64.4207 35.7301 64.3506 35.674C64.2384 35.5898 64.0842 35.5478 63.8738 35.5478C63.6775 35.5478 63.5092 35.5898 63.383 35.674C63.2568 35.7581 63.1727 35.8843 63.1026 36.0526L62.6398 35.9965C62.738 35.7301 62.8922 35.5197 63.1026 35.3655C63.3129 35.2253 63.5794 35.1411 63.9019 35.1411C64.2384 35.1411 64.5189 35.2253 64.7152 35.3795C64.8695 35.5057 64.9396 35.66 64.9396 35.8563C64.9396 36.0105 64.9115 36.1788 64.8695 36.3751L64.7152 37.0622C64.6591 37.2726 64.6451 37.4549 64.6451 37.5951C64.6451 37.6792 64.6591 37.8054 64.7012 37.9737H64.2244C64.1964 37.8756 64.1823 37.7634 64.1683 37.6231ZM64.3506 36.5714C64.2805 36.5995 64.2104 36.6135 64.1403 36.6275C64.0702 36.6416 63.9439 36.6556 63.7617 36.6696C63.4812 36.6976 63.2989 36.7257 63.1867 36.7678C63.0745 36.8098 62.9904 36.8659 62.9343 36.9501C62.8782 37.0342 62.8502 37.1183 62.8502 37.2165C62.8502 37.3427 62.8922 37.4549 62.9904 37.539C63.0745 37.6231 63.2148 37.6652 63.383 37.6652C63.5373 37.6652 63.6915 37.6231 63.8318 37.539C63.972 37.4549 64.0842 37.3427 64.1683 37.2025C64.2384 37.0482 64.2945 36.8519 64.3506 36.5714Z" fill="#7BC252"/>
        <path d="M65.262 37.9736L65.8369 35.2251H66.2576L66.1454 35.7861C66.2856 35.5757 66.4259 35.4215 66.5661 35.3093C66.7063 35.2111 66.8465 35.155 66.9868 35.155C67.0849 35.155 67.1971 35.1831 67.3373 35.2532L67.141 35.6879C67.0569 35.6318 66.9727 35.6038 66.8746 35.6038C66.7063 35.6038 66.538 35.7019 66.3698 35.8842C66.2015 36.0665 66.0613 36.4031 65.9631 36.8798L65.7387 37.9876H65.262" fill="#7BC252"/>
        <rect x="0.761963" y="29.7144" width="83.8095" height="1.52381" rx="0.761905" fill="#2EAB48"/>
    </g>
    <defs>
        <clipPath id="clip0_38_334">
            <rect width="84.5714" height="40" fill="white"/>
        </clipPath>
    </defs>
</svg>
