<?xml version="1.0" encoding="UTF-8"?>
<svg width="512px" height="512px" viewBox="0 0 512 512" version="1.1" xmlns="http://www.w3.org/2000/svg" xmlns:xlink="http://www.w3.org/1999/xlink">
    <!-- Generator: Sketch 49 (51002) - http://www.bohemiancoding.com/sketch -->
    <title>#JNJ</title>
    <desc>Created with Sketch.</desc>
    <defs></defs>
    <g id="#JNJ" stroke="none" stroke-width="1" fill="none" fill-rule="evenodd">
        <g id="johnson-johnson-2" transform="translate(0.000000, 4.000000)" fill="#000000" fill-rule="nonzero">
            <path d="M503.977725,190.142601 C490.593841,198.676403 473.762544,214.695267 456.321001,234.966645 C453.713876,212.044641 450.879905,188.176213 449.132236,160.905775 C445.138477,97.159647 444.895657,43.9424852 455.442374,16.7072181 C461.688613,0.467734565 455.697975,-2.70726193 444.895657,1.96730491 C399.708674,21.2858636 333.46979,77.5661137 332.140667,167.99756 C331.690171,199.568471 339.131342,227.599886 351.080668,250.416376 C335.067293,264.404905 315.635261,262.278649 300.577194,265.162684 C293.190338,240.498109 286.624598,211.728101 261.157198,197.745966 C219.261072,166.683437 165.19197,197.832295 123.164849,225.796564 C120.861249,205.64349 118.535284,184.601544 117.020851,160.905775 C113.020702,97.159647 112.755516,43.9424852 123.308624,16.7072181 C129.564448,0.467734565 123.5802,-2.70726193 112.755516,1.96730491 C67.5845083,21.289061 1.33923469,77.5693111 0.0196968299,167.99756 C-0.948390269,235.609318 33.9123303,287.246975 72.974485,305.299372 C71.8115025,307.256167 70.5239147,309.158607 69.3002271,311.051455 C40.660185,358.580481 32.9474382,383.734255 25.5318272,412.079012 C14.7870189,453.580981 18.090656,497.989366 44.7146488,503.603962 C81.1121677,511.344814 118.564039,446.978395 126.832717,384.946061 C133.574181,333.688892 130.807305,294.418694 126.363051,253.613754 C126.851887,252.977476 127.532423,252.098197 127.998894,251.541853 C131.77558,246.882415 135.366387,242.07512 138.762873,237.13127 C155.530269,221.185945 174.524585,211.421152 192.157828,203.510839 C212.701723,198.564495 234.063539,202.689113 249.664758,215.843126 C257.045224,224.885312 267.735717,235.554962 263.610963,247.068721 C247.188628,242.96009 234.063539,232.27765 215.9798,233.092981 C198.726763,231.449529 181.48331,233.933892 172.451026,249.549887 C166.703208,261.869385 176.54383,273.373551 184.764582,282.412539 C207.771827,308.723764 276.755222,269.27771 280.864001,316.128892 C292.372416,312.004274 291.548104,295.563355 296.478,284.871323 C316.846169,276.884272 335.942725,274.022619 362.675348,269.085867 C374.861105,285.66747 389.634817,298.150034 405.095455,305.302569 C403.942058,307.259365 402.66725,309.161805 401.427587,311.054653 C372.77157,358.583679 365.084383,383.737452 357.659187,412.08221 C346.920769,453.584178 350.233991,497.992563 376.854789,503.607159 C413.229943,511.348011 450.688204,446.981592 458.963272,384.949259 C465.714322,333.69209 462.937861,294.421891 458.490411,253.616952 C458.969662,252.980673 459.637419,252.101394 460.126255,251.545051 C476.519835,231.196936 499.201189,210.775282 506.990616,202.69231 C513.089884,196.217619 515.243319,182.945302 503.977725,190.142601 Z M102.502739,411.861591 C96.492931,474.395912 67.8528889,480.004114 55.3636068,475.396692 C40.65699,469.938767 36.6600363,424.689472 59.3413905,367.322113 C70.1628789,339.914188 83.8343136,315.393495 96.476956,295.563355 C101.640087,338.219577 105.617871,379.331465 102.502739,411.861591 Z M109.806525,24.7102556 C101.531457,43.61955 85.0036861,79.3246717 82.9716617,139.182788 C81.5850287,178.504144 87.8919724,226.503185 93.8059302,273.865947 C88.8632545,280.849021 84.0547691,288.071898 79.2686487,295.3875 C51.5168185,276.030572 37.7016085,234.963447 35.7782144,171.610597 C32.7621278,76.7699665 78.9108079,30.3248517 104.314308,18.3154994 C110.509426,15.3643193 113.771529,15.7224257 109.806525,24.7102556 Z M257.045224,275.020201 C245.559174,279.122437 225.839592,276.650864 214.347152,269.274512 C211.059489,265.981213 202.020815,259.394614 207.775022,252.820804 C226.657513,242.125575 243.089434,253.642531 257.045224,269.274512 L257.045224,275.020201 Z M434.623709,411.861591 C428.620291,474.395912 399.983444,480.004114 387.503747,475.396692 C372.77157,469.938767 368.784202,424.689472 391.452776,367.322113 C402.303019,339.914188 415.945699,315.393495 428.607511,295.563355 C433.764252,338.219577 437.751621,379.331465 434.623709,411.861591 Z M441.91791,24.7102556 C433.642842,43.61955 417.131046,79.3246717 415.086242,139.182788 C413.718779,178.504144 420.009748,226.503185 425.936485,273.865947 C420.948357,280.943166 416.100584,288.11842 411.396009,295.3875 C383.644179,276.030572 369.822579,234.963447 367.90238,171.610597 C364.895878,76.7699665 411.041363,30.3248517 436.444863,18.3154994 C442.643177,15.3643193 445.895694,15.7224257 441.91791,24.7102556 Z" id="Shape"></path>
        </g>
    </g>
</svg>