<?xml version="1.0" encoding="UTF-8"?>
<svg width="512px" height="512px" viewBox="0 0 512 512" version="1.1" xmlns="http://www.w3.org/2000/svg" xmlns:xlink="http://www.w3.org/1999/xlink">
    <!-- Generator: Sketch 48.1 (47250) - http://www.bohemiancoding.com/sketch -->
    <title>#JPM</title>
    <desc>Created with Sketch.</desc>
    <defs></defs>
    <g id="Компании-BIG" stroke="none" stroke-width="1" fill="none" fill-rule="evenodd">
        <g id="#JPM" fill="#0659A5" fill-rule="nonzero">
            <path d="M183.1514,6.82009224e-07 C173.1625,-0.00271220544 165.060425,8.08838747 165.049597,18.0772816 L165.049597,144.755569 L499.739223,144.755569 L347.323125,0.0392351496 L183.1514,6.82009224e-07 M511.999994,183.077835 C512.003927,178.283238 510.098335,173.684457 506.704362,170.297847 C503.31039,166.911236 498.707482,165.015635 493.912904,165.02998 L367.244426,165.029899 L367.244426,499.709797 L511.941142,347.254465 L511.999994,183.077835 M328.863308,511.857769 C338.833374,511.830735 346.901391,503.740782 346.901354,493.770679 L346.901354,367.107105 L12.2264416,367.107105 L164.618018,511.823439 L328.863308,511.857769 M6.66224621e-07,328.799552 C-0.00130021365,333.595246 1.9025342,338.195037 5.29268204,341.587024 C8.68282988,344.979012 13.2815878,346.885341 18.0772816,346.886641 L144.755569,346.886641 L144.755569,12.1823029 L0.0196179,164.598401 L6.66224621e-07,328.799552" id="Shape"></path>
        </g>
    </g>
</svg>