<svg width="39" height="25" viewBox="0 0 39 25" fill="none" xmlns="http://www.w3.org/2000/svg">
<g id="JUV - Juventus Fan Token" clip-path="url(#clip0_502_966)">
<path id="Vector" d="M38.1318 25H1.24011C0.876302 25 0.581299 24.7054 0.581299 24.3421V0.657924C0.581299 0.294605 0.876302 0 1.24011 0H38.1319C38.4957 0 38.7907 0.294605 38.7907 0.657924V24.3421C38.7906 24.7055 38.4956 25 38.1318 25Z" fill="#C1C1C1"/>
<g id="JUV - Juventus Fan Token_2">
<circle id="Ellipse 23" cx="19.5813" cy="12" r="10" fill="white"/>
<path id="Ellipse 22 (Stroke)" fill-rule="evenodd" clip-rule="evenodd" d="M19.5813 21C24.5519 21 28.5813 16.9706 28.5813 12C28.5813 7.02944 24.5519 3 19.5813 3C14.6107 3 10.5813 7.02944 10.5813 12C10.5813 16.9706 14.6107 21 19.5813 21ZM19.5813 22C25.1041 22 29.5813 17.5228 29.5813 12C29.5813 6.47715 25.1041 2 19.5813 2C14.0585 2 9.5813 6.47715 9.5813 12C9.5813 17.5228 14.0585 22 19.5813 22Z" fill="black"/>
<g id="Juventus_FC_2017_logo 1">
<path id="Vector_2" d="M21.6538 12.5917C21.6538 15.3787 20.5143 16.0822 18.2054 17.2665C18.5021 17.4713 18.9019 17.7161 19.5813 18.05C21.3614 17.1774 23.0813 16.0332 23.0813 12.9835V6.55005H21.6538V12.5917ZM20.2994 6.55005H16.0813V7.82783H18.8761V11.9194C18.8761 13.7893 18.7686 13.9629 16.421 15.0582C16.5844 15.4856 16.8209 15.9041 17.1304 16.2825C19.7834 15.0582 20.2994 14.426 20.2994 12.3067V6.55005Z" fill="black"/>
</g>
</g>
</g>
<defs>
<clipPath id="clip0_502_966">
<rect width="38.2094" height="25" fill="white" transform="translate(0.581299)"/>
</clipPath>
</defs>
</svg>
