<svg width="160" height="41" viewBox="0 0 160 41" fill="none" xmlns="http://www.w3.org/2000/svg">
    <g clip-path="url(#clip0_38_373)">
        <path d="M48.3526 20.7262H44.8806V14.2508H48.3526C50.0318 14.2508 51.3694 15.6959 51.3694 17.4745C51.3694 19.281 50.0318 20.7262 48.3526 20.7262ZM50.857 23.0885L50.9139 23.0607C51.2271 22.9214 51.5402 22.727 51.7963 22.5326C53.3616 21.393 54.3006 19.5311 54.3006 17.5023C54.3006 14.1674 51.7679 11.4439 48.6658 11.4439H41.9492V30.0641H44.8522V23.5332H44.9091C44.9091 23.5332 46.4743 23.5332 47.6412 23.5332H47.6696L47.6981 23.561L52.1092 30.0641H55.5812L50.857 23.0885ZM63.8631 27.4238H62.0986V14.1674H63.8631C66.9936 14.1674 69.3558 17.1411 69.3558 20.8095C69.3558 24.4503 66.9936 27.4238 63.8631 27.4238ZM63.9484 11.4716H59.2242V30.0919H63.9484C68.5588 30.0919 72.2017 25.9232 72.2017 20.7818C72.2017 15.6682 68.5304 11.4716 63.9484 11.4716ZM109.996 20.7262H106.524V14.2508H109.996C111.675 14.2508 113.013 15.6959 113.013 17.4745C113.013 19.281 111.675 20.7262 109.996 20.7262ZM112.5 23.0885L112.557 23.0607C112.87 22.9214 113.183 22.727 113.439 22.5326C115.005 21.393 115.944 19.5311 115.944 17.5023C115.944 14.1674 113.411 11.4439 110.309 11.4439H103.593V30.0641H106.495V23.5332H106.552C106.552 23.5332 108.117 23.5332 109.284 23.5332H109.313L109.341 23.561L113.753 30.0641H117.253L112.5 23.0885ZM99.7789 11.4716H87.5982V14.084H92.1803V30.0919H95.1969V14.084H99.7789V11.4716ZM14.3151 30.5918V11.4716H11.4123V23.3385L0 11.0826V30.0919H2.90285V18.4195L3.01671 18.5306L14.3151 30.5918ZM129.149 27.7572C125.222 27.7572 122.034 24.6447 122.034 20.8095C122.034 16.9743 125.222 13.8617 129.149 13.8617C133.076 13.8617 136.264 16.9743 136.264 20.8095C136.264 24.6169 133.076 27.7572 129.149 27.7572ZM129.149 10.9993C123.628 10.9993 119.131 15.3903 119.131 20.7818C119.131 26.1731 123.628 30.564 129.149 30.564C134.67 30.564 139.167 26.1731 139.167 20.7818C139.167 15.3903 134.67 10.9993 129.149 10.9993ZM28.1464 27.7572C24.219 27.7572 21.0316 24.6447 21.0316 20.8095C21.0316 16.9743 24.219 13.8617 28.1464 13.8617C32.0738 13.8617 35.2614 16.9743 35.2614 20.8095C35.2898 24.6169 32.0738 27.7572 28.1464 27.7572ZM28.1464 10.9993C22.6253 10.9993 18.1286 15.3903 18.1286 20.7818C18.1286 26.1731 22.6253 30.564 28.1464 30.564C33.6675 30.564 38.1642 26.1731 38.1642 20.7818C38.1926 15.3903 33.696 10.9993 28.1464 10.9993ZM85.1224 25.1728C85.0653 24.1999 84.6101 22.2548 82.0203 20.2259L79.7435 18.2804C78.7757 17.5301 78.3205 16.7242 78.292 15.7793C78.292 14.6954 79.0319 13.9451 80.142 13.8895C80.1705 13.8895 81.5647 13.7226 82.4185 14.8901L82.447 14.9456L84.7523 13.4171L84.7238 13.3616C84.3255 12.75 82.5325 11.0826 80.1134 11.1937C78.7473 11.2493 77.5237 11.7773 76.6699 12.6111C75.7876 13.5004 75.3606 14.6676 75.4461 16.0294C75.5316 17.6136 76.4706 19.0865 78.4344 20.6427L80.5687 22.477C81.7642 23.4218 82.2765 24.2277 82.3334 25.1728C82.3903 25.8676 82.1341 26.5346 81.6787 27.0346C81.2803 27.4794 80.8249 27.6738 80.1989 27.7294H80.0565C78.2636 27.7294 77.5237 26.4787 77.0967 25.7284L76.9827 25.5339L74.507 26.7013C74.7345 27.3127 76.0722 30.3973 79.9996 30.3973H80.0565C81.4794 30.314 82.7887 29.7582 83.7278 28.8133C84.6954 27.8686 85.2077 26.5624 85.1224 25.1728ZM151.461 22.4215L159.999 11.1104V30.1196H157.096V19.8924L151.433 27.2572L145.827 19.8924V30.1196H142.923V11.0826L151.461 22.4215Z" fill="#231F20"/>
    </g>
    <defs>
        <clipPath id="clip0_38_373">
            <rect width="160" height="19.5918" fill="white" transform="translate(0 11)"/>
        </clipPath>
    </defs>
</svg>
