<svg width="134" height="40" viewBox="0 0 134 40" fill="none" xmlns="http://www.w3.org/2000/svg">
<g clip-path="url(#clip0_112_6201)">
<path d="M34.076 1.1272H24.2964L14.3765 18.2531L24.3062 35.378H34.0849L23.8558 18.2531L34.076 1.1272Z" fill="#443738"/>
<path d="M7.00108 14.1868C7.07302 15.6771 5.93933 16.9438 4.4687 17.0167C2.99808 17.0896 1.74731 15.941 1.67536 14.4507C1.60342 12.9613 2.73756 11.6941 4.20818 11.6212C5.67881 11.5483 6.92913 12.6973 7.00108 14.1868Z" fill="#915040"/>
<path d="M11.2623 15.4553C11.3021 16.2829 10.6724 16.9868 9.85558 17.0271C9.03871 17.0679 8.34384 16.4295 8.30407 15.602C8.26385 14.7744 8.89393 14.0704 9.7108 14.0301C10.5277 13.9898 11.2225 14.6277 11.2623 15.4553Z" fill="#3CC7F3"/>
<path d="M11.9913 7.35319C10.4827 11.5123 11.3885 12.9053 11.3885 12.9053C8.13937 12.4128 2.99374 8.71406 3.07417 5.03392C3.12958 2.48421 4.88978 0.320216 7.40428 0.195266C12.44 -0.0541814 12.6929 5.41827 11.9913 7.35319Z" fill="#7BC142"/>
<path d="M13.2686 25.5601C11.2626 19.6978 12.0214 17.6162 12.0214 17.6162C7.42449 18.7869 0.159385 24.8896 0.786335 30.1624C1.22069 33.8163 4.04888 36.6725 7.67697 36.4923C14.9425 36.1324 14.2298 28.3696 13.2686 25.5601Z" fill="#CD0954"/>
<path d="M118.892 23.9578C115.487 23.9578 113.144 26.435 113.144 30.0124C113.144 33.5549 115.533 35.9281 119.052 35.9281C120.517 35.9281 121.797 35.584 122.834 34.9647L121.213 32.2502C120.597 32.6626 119.895 32.8836 119.235 32.8836C118.001 32.8836 117.132 32.3045 116.835 31.0659H124.434C124.48 30.8228 124.503 30.3135 124.503 29.9431C124.491 26.3889 122.217 23.9578 118.892 23.9578ZM116.847 28.7738C117.121 27.6506 117.795 27.0372 118.904 27.0372C119.944 27.0372 120.641 27.6393 120.926 28.7738H116.847Z" fill="#443738"/>
<path d="M80.7224 23.9148C77.3173 23.9148 74.9744 26.3921 74.9744 29.9694C74.9744 33.512 77.3628 35.8851 80.8823 35.8851C82.3472 35.8851 83.6274 35.541 84.6646 34.9217L83.0434 32.2072C82.4276 32.6197 81.7256 32.8406 81.0651 32.8406C79.8309 32.8406 78.9626 32.2616 78.6655 31.0229H86.2644C86.3104 30.7798 86.3332 30.2705 86.3332 29.9002C86.3215 26.3459 84.0479 23.9148 80.7224 23.9148ZM78.6771 28.7308C78.951 27.6076 79.6253 26.9942 80.734 26.9942C81.7738 26.9942 82.4709 27.5963 82.7565 28.7308H78.6771Z" fill="#443738"/>
<path d="M55.9016 5.49707C52.4965 5.49707 50.1536 7.97434 50.1536 11.5517C50.1536 15.0942 52.542 17.4674 56.0615 17.4674C57.5264 17.4674 58.8066 17.1233 59.8438 16.504L58.2226 13.7895C57.6068 14.2019 56.9048 14.4229 56.2443 14.4229C55.0101 14.4229 54.1418 13.8438 53.8447 12.6052H61.4436C61.4896 12.3621 61.5124 11.8528 61.5124 11.4825C61.5007 7.92817 59.2267 5.49707 55.9016 5.49707ZM53.8563 10.3131C54.1302 9.18989 54.8045 8.57646 55.9132 8.57646C56.953 8.57646 57.6501 9.17857 57.9357 10.3131H53.8563Z" fill="#443738"/>
<path d="M40.3868 1.11426H36.6787V16.9766H40.3868V1.11426Z" fill="#443738"/>
<path d="M67.7583 17.2674C70.658 17.2674 73.0134 15.7028 73.0134 12.2477V5.93359H69.5471V11.9326C69.5471 13.3396 68.7914 13.9807 67.7583 13.9807C66.7139 13.9807 65.9699 13.3396 65.9699 11.9326V5.93359H62.4924V12.2363C62.4924 15.7028 64.8478 17.2674 67.7583 17.2674Z" fill="#443738"/>
<path d="M83.3049 16.9747H86.782V5.93335H83.3049V16.9747Z" fill="#443738"/>
<path d="M56.2568 25.6597V24.388H52.9241V35.4294H56.4011V29.4644C56.4011 28.0908 57.1568 27.472 58.3897 27.472C59.0117 27.472 60.4122 27.4764 60.4122 27.4764L60.4559 24.2531C60.1896 24.1739 59.745 24.0842 59.2342 24.0842C57.9012 24.0842 56.89 24.5909 56.2568 25.6597Z" fill="#443738"/>
<path d="M132.116 24.0843C130.783 24.0843 129.772 24.5909 129.138 25.6597V24.388H125.806V35.4294H129.283V29.4644C129.283 28.0908 130.038 27.472 131.271 27.472C131.893 27.472 133.294 27.4764 133.294 27.4764L133.338 24.2531C133.071 24.1739 132.627 24.0843 132.116 24.0843Z" fill="#443738"/>
<path d="M77.9302 11.0197C77.9302 9.6462 78.6858 9.02733 79.9187 9.02733C80.5407 9.02733 81.9412 9.03187 81.9412 9.03187L81.985 5.80851C81.7187 5.72974 81.274 5.63965 80.7633 5.63965C79.4303 5.63965 78.419 6.14624 77.7858 7.21511V5.94342H74.4531V16.9848H77.9302V11.0197Z" fill="#443738"/>
<path d="M69.12 19.6592H62.4541V35.4165H66.1649V30.0925H69.153C72.9639 30.0925 74.9971 28.0218 74.9971 24.9152C74.9971 21.7525 72.9639 19.6592 69.12 19.6592ZM69.0641 26.7388H66.1649V23.0695H69.0641C70.3975 23.0695 71.2193 23.7106 71.2193 24.9152C71.2193 26.1081 70.3975 26.7388 69.0641 26.7388Z" fill="#443738"/>
<path d="M93.7616 24.3291C92.6176 24.3291 91.5549 24.6786 90.6693 25.2757V24.3748H87.3142V39.9185H90.7805V34.7787C91.6439 35.332 92.6641 35.657 93.7616 35.657C96.8494 35.657 99.3523 33.1213 99.3523 29.9931C99.3523 26.8648 96.8494 24.3291 93.7616 24.3291ZM93.5783 32.6374C92.1368 32.6374 90.9678 31.4535 90.9678 29.9931C90.9678 28.5326 92.1368 27.3483 93.5783 27.3483C95.0199 27.3483 96.1885 28.5326 96.1885 29.9931C96.1885 31.4535 95.0199 32.6374 93.5783 32.6374Z" fill="#443738"/>
<path d="M106.788 24.3291C105.644 24.3291 104.581 24.6786 103.695 25.2757V24.3748H100.34V39.9185H103.807V34.7787C104.67 35.332 105.69 35.657 106.788 35.657C109.875 35.657 112.378 33.1213 112.378 29.9931C112.378 26.8648 109.875 24.3291 106.788 24.3291ZM106.604 32.6374C105.163 32.6374 103.994 31.4535 103.994 29.9931C103.994 28.5326 105.163 27.3483 106.604 27.3483C108.046 27.3483 109.215 28.5326 109.215 29.9931C109.215 31.4535 108.046 32.6374 106.604 32.6374Z" fill="#443738"/>
<path d="M46.4718 16.9732H50.9999L46.2721 9.05831L50.9954 1.11401H46.4673L41.874 9.04382L46.4718 16.9732Z" fill="#443738"/>
<path d="M43.3354 19.6592H36.6812V30.2256H40.3915V23.137H43.2576C46.1462 23.137 47.5346 24.9605 47.5346 27.5378C47.5346 30.0817 46.1462 31.9383 43.2576 31.9383L36.6812 31.9365V35.4165H43.3354C48.2017 35.4165 51.412 32.2878 51.412 27.5378C51.412 22.7879 48.2017 19.6592 43.3354 19.6592Z" fill="#443738"/>
<path d="M96.5604 5.9333V6.66354C95.7136 6.14019 94.722 5.83325 93.6571 5.83325C90.5693 5.83325 88.0664 8.36938 88.0664 11.4972C88.0664 14.6255 90.5693 17.1612 93.6571 17.1612C94.6974 17.1612 95.6676 16.8683 96.5018 16.3671C96.3611 17.9177 95.1018 18.6176 93.772 18.6176C92.893 18.6176 92.0828 18.446 91.3173 18.0969L89.7833 20.7422C90.9996 21.3764 92.5167 21.7019 94.0164 21.7019C97.5824 21.7019 99.9266 19.5411 99.9266 15.9166V5.9333H96.5604ZM93.9033 14.1184C92.4618 14.1184 91.2928 12.9346 91.2928 11.4741C91.2928 10.0137 92.4618 8.82934 93.9033 8.82934C95.3449 8.82934 96.5139 10.0137 96.5139 11.4741C96.5139 12.9346 95.3449 14.1184 93.9033 14.1184Z" fill="#443738"/>
<path d="M86.8232 2.82484C86.8706 3.80542 86.1244 4.63933 85.1565 4.68732C84.1885 4.73531 83.3654 3.97927 83.3181 2.99868C83.2707 2.01809 84.017 1.18419 84.9849 1.1362C85.9528 1.08821 86.7759 1.84425 86.8232 2.82484Z" fill="#443738"/>
</g>
<defs>
<clipPath id="clip0_112_6201">
<rect width="132.899" height="40" fill="white" transform="translate(0.550293)"/>
</clipPath>
</defs>
</svg>
