<svg width="66" height="22" viewBox="0 0 66 22" fill="none" xmlns="http://www.w3.org/2000/svg">
    <g clip-path="url(#clip0_722_2)">
        <path d="M6.94485 6.90143C6.25153 6.90143 5.84176 6.6875 5.30837 5.94935L4.43698 4.74962C4.00257 4.15322 3.57508 3.8965 2.6315 3.8965H0.738274V6.90143H0V0.195777H0.738274V3.20978H2.09811C2.98723 3.20978 3.41515 2.88132 3.93947 2.19718L5.45923 0.195777H6.38465L4.75683 2.32986C4.34923 2.87224 4.07259 3.16699 3.61096 3.40598V3.41549C4.32243 3.55724 4.67816 3.85242 5.10349 4.43067L5.90487 5.5068C6.27876 6.00424 6.54416 6.21816 6.94485 6.21816H7.16788L7.0957 6.9023L6.94485 6.90143ZM12.5934 6.90143V0.195777H18.4174L18.4987 0.882502H13.3317V3.18298H18.2125V3.92114H13.3317V6.16327H18.8631L18.7282 6.90143H12.5934ZM31.8463 6.90143C31.1617 6.90143 30.7523 6.6875 30.2185 5.94935L29.766 5.31015C29.3203 4.68652 28.895 4.42981 27.9696 4.42981H25.6821V6.90143H24.946V0.195777H28.3253C30.0046 0.195777 30.9391 1.07612 30.9391 2.278C30.9391 3.25516 30.2816 3.86064 29.4465 4.11692V4.12685C29.836 4.27768 30.1126 4.57243 30.4053 4.97306L30.8064 5.5068C31.1798 6.01331 31.4457 6.21816 31.8554 6.21816H32.078L31.9972 6.9023L31.8463 6.90143ZM28.3253 0.882502H25.6821V3.73444H28.3253C29.3834 3.73444 30.1398 3.24607 30.1398 2.30523C30.1398 1.37993 29.3653 0.882502 28.3253 0.882502ZM37.5913 0.195777H38.33V6.90143H37.5913V0.195777ZM51.6867 6.90143L45.4888 1.23602H45.4711V6.90143H44.7324V0.195777H45.417L51.6171 5.87069H51.6348V0.195777H52.3731V6.90143H51.6867ZM62.6458 7.09721C59.4195 7.09721 57.9521 5.43376 57.9521 3.53175C57.9521 1.60294 59.4537 0 62.504 0C63.6071 0 64.692 0.213925 65.6715 0.623628V1.38901C64.7193 0.952081 63.6253 0.684562 62.4949 0.684562C59.9689 0.684562 58.7513 1.98326 58.7513 3.5499C58.7513 5.15025 60.0502 6.41307 62.6458 6.41307C63.6879 6.41307 64.6471 6.18099 65.2526 5.9044V4.23404H62.4681L62.558 3.5499H66V6.35905C65.1381 6.79555 63.9628 7.09721 62.6458 7.09721Z" fill="black"/>
        <path d="M32.1389 13.3098C32.1389 13.5104 32.2448 13.3414 32.5037 13.3414C32.7713 13.3414 32.8659 13.5104 32.8659 13.3098C32.8659 13.1097 32.7039 12.9451 32.5037 12.9451C32.3032 12.9451 32.1389 13.1097 32.1389 13.3098Z" fill="black"/>
        <path d="M34.397 13.3098C34.397 13.5104 34.2911 13.3414 34.0321 13.3414C33.7642 13.3414 33.6699 13.5104 33.6699 13.3098C33.6699 13.1097 33.8316 12.9451 34.0321 12.9451C34.2327 12.9451 34.397 13.1097 34.397 13.3098Z" fill="black"/>
        <path d="M33.2667 13.7781C33.3635 13.7781 33.44 13.8273 33.44 13.9712C33.44 14.1156 33.3389 14.3788 33.2667 14.3788C33.1971 14.3788 33.0934 14.1156 33.0934 13.9712C33.0934 13.8273 33.1721 13.7781 33.2667 13.7781Z" fill="black"/>
        <path d="M33.2668 16.1955C33.5621 16.3083 33.8884 16.4004 34.2532 16.4566C34.1538 16.5581 34.0596 16.6593 33.9671 16.763C33.6947 17.0668 33.4626 17.3685 33.2668 17.6701C33.0732 17.3685 32.8415 17.0668 32.5666 16.763C32.4767 16.6593 32.3799 16.5581 32.283 16.4566C32.6479 16.4004 32.9742 16.3083 33.2668 16.1955ZM33.2668 21.7309C32.5869 21.7309 32.6254 20.5398 32.6254 20.5264C32.6301 19.7701 32.8143 19.0004 33.2668 18.2307C33.7215 19.0004 33.9061 19.7701 33.9109 20.5264C33.9109 20.5393 33.9489 21.7309 33.2668 21.7309ZM33.2668 11.6261C33.2668 11.6261 34.4827 11.5721 35.1423 12.2091C35.4484 12.5017 35.5901 12.9002 35.5901 13.3911C35.5901 13.9245 35.2482 14.577 34.6513 15.0434C34.2619 15.3472 33.7916 15.6307 33.2668 15.8398C32.7447 15.6307 32.274 15.3472 31.8845 15.0434C31.288 14.577 30.9457 13.9245 30.9457 13.3911C30.9457 12.9002 31.0879 12.5017 31.3918 12.2091C32.0535 11.5721 33.2668 11.6261 33.2668 11.6261ZM34.9487 16.2068C35.7142 15.5023 36.6617 14.8044 37.7738 14.1224C39.8836 12.8306 42.0133 11.9572 42.7472 11.6711C42.6638 12 42.468 12.5851 42.0379 13.2312C41.4345 14.1362 40.2346 15.336 37.9472 15.9008C36.8916 16.1618 35.8715 16.2608 34.9487 16.2068ZM28.5887 15.9008C26.2991 15.336 25.1018 14.1362 24.4984 13.2312C24.0683 12.5851 23.8725 12 23.789 11.6711C24.5208 11.9572 26.6527 12.8306 28.762 14.1224C29.8742 14.8044 30.8199 15.5023 31.5876 16.2068C30.6643 16.2608 29.6446 16.1618 28.5887 15.9008ZM33.2668 11.3292C33.2668 11.3292 31.9321 11.2843 31.1912 11.9978C30.8199 12.3556 30.6444 12.8081 30.6444 13.3911C30.6444 14.0256 31.0313 14.746 31.709 15.275C31.9342 15.453 32.3034 15.7431 32.8143 15.9976C32.551 16.0763 32.274 16.1372 31.9926 16.1688C31.173 15.3831 30.14 14.6064 28.9042 13.8523C26.2857 12.2476 23.6382 11.2843 23.6114 11.273L23.368 11.1853L23.3996 11.4416C23.4061 11.4801 23.5258 12.3691 24.217 13.4046C24.8519 14.3588 26.108 15.6173 28.4944 16.2068C29.8538 16.5426 30.9772 16.5988 31.8871 16.5063C32.0444 16.6619 32.1931 16.8192 32.3349 16.9743C32.6275 17.301 32.8821 17.6274 33.0957 17.9536C32.6185 18.7934 32.4248 19.624 32.4183 20.4745C32.4183 20.513 32.4473 21.357 32.7741 21.7084C32.9405 21.8882 33.0689 21.94 33.2668 21.94C33.4674 21.94 33.5958 21.8882 33.7622 21.7084C34.0885 21.357 34.1179 20.513 34.1179 20.4745C34.1114 19.624 33.9152 18.7934 33.4402 17.9536C33.6541 17.6274 33.9087 17.301 34.2013 16.9743C34.3409 16.8192 34.4918 16.6619 34.647 16.5063C35.5586 16.5988 36.682 16.5426 38.0397 16.2068C40.4261 15.6173 41.6843 14.3588 42.3193 13.4046C43.0104 12.3691 43.1297 11.4801 43.1341 11.4416L43.1682 11.1853L42.9249 11.273C42.8981 11.2843 40.248 12.2476 37.6299 13.8523C36.3963 14.6064 35.3628 15.3831 34.5437 16.1688C34.2597 16.1372 33.9852 16.0763 33.7194 15.9976C34.2329 15.7431 34.602 15.453 34.8272 15.275C35.505 14.746 35.8918 14.0256 35.8918 13.3911C35.8918 12.8081 35.7163 12.3556 35.345 11.9978C34.6042 11.2843 33.2668 11.3292 33.2668 11.3292Z" fill="black"/>
        <path d="M32.5489 12.4276C31.9973 12.4276 31.7203 12.8282 31.7203 13.2872C31.7203 13.8974 32.2943 14.7121 33.2668 15.0565C34.2415 14.7121 34.816 13.8974 34.816 13.2872C34.816 12.8282 34.5389 12.4276 33.9874 12.4276C33.5257 12.4276 33.2759 12.7336 33.2668 12.74C33.2603 12.7336 33.0079 12.4276 32.5489 12.4276ZM33.2668 12.4587C33.2668 12.4587 33.4674 12.1596 34.0708 12.1799C34.7256 12.1998 35.0567 12.7582 35.0567 13.2716C35.0567 14.0076 34.3474 14.9416 33.2668 15.2389C32.1884 14.9416 31.4795 14.0076 31.4795 13.2716C31.4795 12.7582 31.8102 12.1998 32.4654 12.1799C33.0667 12.1596 33.2668 12.4587 33.2668 12.4587Z" fill="black"/>
    </g>
    <defs>
        <clipPath id="clip0_722_2">
            <rect width="66" height="21.94" fill="white"/>
        </clipPath>
    </defs>
</svg>
