<svg width="160" height="41" viewBox="0 0 160 41" fill="none" xmlns="http://www.w3.org/2000/svg">
    <path d="M10.6936 10.1021L4.94481 16.9184V10.1021H0.4021V27.898H4.94481V22.3878L6.79406 20.3878L11.4976 27.8572H17.1659L9.88954 17.0816L16.3619 10.1021H10.6936Z" fill="black"/>
    <path d="M19.6583 22.4693C19.7387 24.2245 20.7437 25.4081 22.5126 25.4081C23.5176 25.4081 24.4824 24.9183 24.8844 23.9796H28.7839C28.0201 26.9591 25.2864 28.2653 22.4724 28.2653C18.3316 28.2653 15.5176 25.7347 15.5176 21.4081C15.5176 17.4489 18.6131 14.5918 22.392 14.5918C26.9347 14.5918 29.2261 18.0612 29.0251 22.4693H19.6583ZM24.8442 20.102C24.7638 18.6734 23.7588 17.4489 22.3517 17.4489C20.8643 17.4489 19.8995 18.5102 19.6583 20.102H24.8442Z" fill="black"/>
    <path d="M36.8644 29.0409C35.8594 31.898 34.3719 32.2245 31.5579 32.2245H29.588V28.796H31.0353C32.0001 28.796 32.6835 28.2654 32.6835 27.3674C32.6835 26.6735 31.8795 24.6735 31.6383 23.9796L28.3418 15H32.7639L35.176 23.4082H35.2162L37.6282 15H41.8895L36.8644 29.0409ZM42.573 10.1021H50.774C53.789 10.0613 57.0855 10.8368 57.0855 14.5511C57.0855 16.1429 56.1609 17.449 54.7941 18.1429C56.6433 18.6735 57.8091 20.347 57.8091 22.347C57.8091 26.5919 54.7539 27.8572 50.975 27.8572H42.573V10.1021ZM47.1559 17.0817H50.6936C51.4976 17.0817 52.5428 16.6735 52.5428 15.4082C52.5428 14.1021 51.6182 13.6939 50.6936 13.6939H47.1559V17.0817ZM47.1559 24.1837H50.8142C52.2614 24.1837 53.2664 23.6531 53.2664 22.1837C53.2664 20.6327 52.181 20.1021 50.8142 20.1021H47.1559V24.1837ZM59.3368 18.9592C59.4172 17.2858 60.181 16.1837 61.3066 15.4898C62.4323 14.8368 63.9197 14.5919 65.3669 14.5919C68.382 14.5919 71.3167 15.2449 71.3167 18.9184V24.5511C71.3167 25.6531 71.3167 26.8368 71.7991 27.8572H67.6182C67.4574 27.449 67.4172 27.0409 67.377 26.6327C66.2915 27.7756 64.7237 28.2245 63.1961 28.2245C60.784 28.2245 58.8544 27 58.8544 24.3062C58.8544 20.1021 63.3569 20.4286 66.2514 19.8164C66.975 19.6531 67.3368 19.4082 67.3368 18.6327C67.3368 17.6531 66.1709 17.2858 65.3267 17.2858C64.1609 17.2858 63.4373 17.8164 63.2363 18.9184L59.3368 18.9592ZM64.7237 25.6531C66.6936 25.6531 67.377 24.5102 67.2564 21.8572C66.6534 22.2245 65.6081 22.3062 64.6835 22.5511C63.7589 22.7551 62.9549 23.1633 62.9549 24.1837C62.9951 25.2041 63.7991 25.6531 64.7237 25.6531ZM73.3669 14.9592H77.4272V16.7143H77.4674C78.2312 15.4082 79.9599 14.5919 81.4473 14.5919C85.7086 14.5919 86.0302 17.7347 86.0302 19.6123V27.898H81.8493V21.6531C81.8493 19.898 82.0503 18.1021 79.7589 18.1021C78.191 18.1021 77.5076 19.449 77.5076 20.8776V27.9388H73.3267L73.3669 14.9592ZM88.0805 10.1021H92.2614V19.2858L96.0805 14.9592H100.905L96.2413 19.8572L101.508 27.898H96.4825L93.387 22.7143L92.3016 23.7756V27.898H88.1207V10.1021H88.0805Z" fill="black"/>
    <path d="M154.975 15.9796H129.849C129.487 15.2449 128.884 14.5102 128.281 13.9796C127.196 13.0816 125.95 12.7551 124.744 13L124.543 13.0408L124.583 12.7959C124.744 11.4898 124.302 10.2245 123.377 9.16327C122.211 7.81633 120.402 7 118.633 7C116.905 7 115.055 7.81633 113.89 9.16327C112.965 10.1837 112.563 11.6122 112.724 12.7959L112.764 13.0408L112.523 13C111.397 12.7551 109.99 13.1224 108.905 13.9796C107.417 15.1633 106.653 17.0408 106.653 18.8776C106.653 20.7143 107.457 22.5918 108.905 23.7755C109.99 24.6735 111.397 25.0408 112.523 24.7551L112.764 24.7143L112.724 24.9592C112.563 26.1429 113.005 27.5714 113.89 28.5918C115.096 29.9388 116.905 30.7551 118.633 30.7551C120.402 30.7551 122.251 29.898 123.377 28.5918C124.302 27.4898 124.744 26.2653 124.583 24.9592L124.543 24.7143L124.784 24.7551C125.99 25 127.276 24.6735 128.322 23.7755C129.126 23.1224 129.648 22.102 130.05 21.1224H142.874C143.638 21.1224 144.281 21.6531 144.281 22.4694C144.281 23.2449 143.678 23.8571 142.874 23.8571H141.709V30.8367H146.814V25.2041C146.814 24.4286 147.417 23.8163 148.221 23.8163C148.985 23.8163 149.709 24.4286 149.709 25.2041V30.7959H154.774V23.8571H153.648C152.884 23.8571 152.241 23.2857 152.241 22.4694C152.241 21.6939 152.884 21.1224 153.648 21.1224H155.015C156.422 21.1224 157.548 19.9796 157.548 18.551C157.508 17.1633 156.382 15.9796 154.975 15.9796ZM122.774 21.4082C122.251 21.4082 121.729 21.2449 121.286 20.9592L120.482 21.7347C120.764 22.1429 120.965 22.5918 120.965 23.0816C120.965 24.4286 119.879 25.5306 118.553 25.5306C117.226 25.5306 116.141 24.4286 116.141 23.0816C116.141 22.6327 116.261 22.1429 116.583 21.7347L115.779 20.9592C115.297 21.2449 114.814 21.4082 114.372 21.4082C113.729 21.4082 113.126 21.2041 112.683 20.7143C112.241 20.2653 111.96 19.6122 111.96 18.9592C111.96 18.3061 112.201 17.6939 112.683 17.2449C113.126 16.7959 113.769 16.5102 114.372 16.5102C114.935 16.5102 115.417 16.7551 115.779 17.0408L116.583 16.2653C116.342 15.9388 116.141 15.3673 116.141 14.7959C116.141 14.1429 116.382 13.5306 116.864 13.0816C117.307 12.6327 117.95 12.3469 118.553 12.3878C119.196 12.3878 119.839 12.6327 120.281 13.0816C120.724 13.5306 120.965 14.1429 120.965 14.7959C120.965 15.2857 120.804 15.7347 120.482 16.2653L121.286 17.0408C121.769 16.6327 122.251 16.5102 122.774 16.5102C123.417 16.5102 124.02 16.7551 124.462 17.2449C124.905 17.6939 125.186 18.3061 125.186 18.9592C125.186 20.3061 124.101 21.4082 122.774 21.4082ZM157.95 27.898C158.714 27.898 159.236 28.4694 159.236 29.2449C159.236 29.9796 158.673 30.5918 157.95 30.5918C157.226 30.5918 156.663 30.0204 156.663 29.2449C156.663 28.5102 157.226 27.898 157.95 27.898ZM157.95 27.6939C157.065 27.6939 156.422 28.3878 156.422 29.2449C156.422 30.102 157.106 30.7959 157.95 30.7959C158.834 30.7959 159.477 30.102 159.477 29.2449C159.477 28.3878 158.834 27.6939 157.95 27.6939ZM157.628 29.3265H157.99L158.472 30.1429H158.714L158.191 29.3265C158.432 29.2857 158.633 29.1224 158.633 28.8367C158.633 28.5102 158.472 28.3469 158.07 28.3469H157.387V30.1429H157.588C157.628 30.1429 157.628 29.3265 157.628 29.3265ZM157.628 29.1633V28.551H158.03C158.231 28.551 158.432 28.5918 158.432 28.8776C158.432 29.1633 158.151 29.2041 157.91 29.2041L157.628 29.1633Z" fill="#EE3825"/>
</svg>
