<svg width="130" height="41" viewBox="0 0 130 41" fill="none" xmlns="http://www.w3.org/2000/svg">
    <g clip-path="url(#clip0_38_398)">
        <path fill-rule="evenodd" clip-rule="evenodd" d="M0 40.6104H130V0.610352H0V40.6104ZM2.42048 3.10808H127.626V38.4125H2.42048V3.10808Z" fill="#857040"/>
        <path d="M18.5006 19.8517H18.6055C19.3226 19.0619 22.4018 15.8785 23.0129 15.1518C23.6034 14.4458 24.0675 13.9106 24.0675 13.5467C24.0675 13.3121 23.9839 13.1632 23.7735 13.1207C23.5822 13.0775 23.4983 13.0349 23.4983 12.906C23.4983 12.7569 23.6034 12.7136 23.835 12.7136C24.2786 12.7136 25.4383 12.7779 26.0076 12.7779C26.6614 12.7779 27.8211 12.7136 28.4751 12.7136C28.686 12.7136 28.8331 12.7569 28.8331 12.906C28.8331 13.0567 28.7278 13.0992 28.5167 13.0992C28.2227 13.0992 27.6945 13.1838 27.2927 13.3346C26.6408 13.5902 25.9237 14.0387 25.016 14.9368C24.3631 15.5767 21.1779 18.7819 20.4618 19.5539C21.2205 20.5566 25.3536 25.0661 26.1758 25.8578C27.104 26.754 28.0535 27.716 29.1917 28.1649C29.8253 28.422 30.2457 28.4853 30.5004 28.4853C30.6481 28.4853 30.7729 28.5278 30.7729 28.6567C30.7729 28.8056 30.6678 28.8698 30.2679 28.8698H28.433C27.7997 28.8698 27.4203 28.8698 26.9773 28.8265C25.838 28.7217 25.269 28.2496 24.363 27.439C23.4358 26.6041 19.2795 21.6684 18.8369 21.0475L18.6054 20.7289H18.5004V22.6715C18.5004 24.6391 18.5004 26.3262 18.5635 27.245C18.6054 27.8443 18.7949 28.3145 19.3225 28.4004C19.6171 28.4428 20.0811 28.4853 20.3564 28.4853C20.5249 28.4853 20.6299 28.5485 20.6299 28.6567C20.6299 28.8055 20.4617 28.8698 20.2292 28.8698C19.049 28.8698 17.7199 28.8056 17.1927 28.8056C16.7071 28.8056 15.379 28.8698 14.5354 28.8698C14.262 28.8698 14.1143 28.8056 14.1143 28.6567C14.1143 28.5484 14.1979 28.4853 14.45 28.4853C14.7672 28.4853 15.0202 28.4428 15.2106 28.4004C15.6313 28.3146 15.7371 27.8444 15.8219 27.2244C15.9269 26.3263 15.9269 24.6392 15.9269 22.6716V18.912C15.9269 15.6643 15.9269 15.064 15.884 14.3809C15.8431 13.6553 15.6739 13.3122 14.9773 13.1633C14.8089 13.1208 14.45 13.0993 14.1562 13.0993C13.9226 13.0993 13.7979 13.0568 13.7979 12.9061C13.7979 12.757 13.9448 12.7137 14.262 12.7137C15.379 12.7137 16.7071 12.778 17.2132 12.778C17.7199 12.778 19.049 12.7137 19.7651 12.7137C20.0607 12.7137 20.2087 12.757 20.2087 12.9061C20.2087 13.0568 20.0813 13.0993 19.9131 13.0993C19.702 13.0993 19.5763 13.1208 19.3225 13.1633C18.7531 13.2697 18.5839 13.6325 18.543 14.3809C18.5003 15.064 18.5003 15.6643 18.5003 18.912V19.8517H18.5006V19.8517Z" fill="#857040"/>
        <path d="M33.442 18.9119C33.442 15.6641 33.442 15.0639 33.4 14.3808C33.3584 13.6552 33.1473 13.2902 32.6823 13.1838C32.4515 13.1207 32.1772 13.0992 31.9233 13.0992C31.7122 13.0992 31.5867 13.0567 31.5867 12.8851C31.5867 12.7569 31.7551 12.7136 32.0927 12.7136C32.8933 12.7136 34.2233 12.7779 34.8342 12.7779C35.3617 12.7779 36.606 12.7136 37.4076 12.7136C37.6811 12.7136 37.8512 12.7569 37.8512 12.8851C37.8512 13.0567 37.7237 13.0992 37.5119 13.0992C37.3027 13.0992 37.1325 13.1207 36.8801 13.1632C36.311 13.2696 36.1418 13.6324 36.0999 14.3808C36.0573 15.0639 36.0573 15.6641 36.0573 18.9119V22.6715C36.0573 24.7455 36.0573 26.4352 36.1418 27.3507C36.2049 27.9292 36.3529 28.3144 36.9854 28.4013C37.2793 28.4427 37.7452 28.4851 38.0614 28.4851C38.2928 28.4851 38.3981 28.5491 38.3981 28.6565C38.3981 28.8054 38.2297 28.8697 37.9972 28.8697C36.6059 28.8697 35.2779 28.8055 34.7077 28.8055C34.2232 28.8055 32.8933 28.8697 32.0508 28.8697C31.7763 28.8697 31.6293 28.8055 31.6293 28.6565C31.6293 28.5491 31.7121 28.4851 31.9661 28.4851C32.2823 28.4851 32.5369 28.4427 32.7248 28.4013C33.1473 28.3145 33.2734 27.95 33.3369 27.3317C33.4419 26.4352 33.4419 24.7455 33.4419 22.6715V18.9119H33.442Z" fill="#857040"/>
        <path d="M43.7158 25.9637C43.7589 27.6316 44.0323 28.1868 44.4535 28.3376C44.8114 28.4647 45.2132 28.4855 45.5518 28.4855C45.7825 28.4855 45.9081 28.528 45.9081 28.6561C45.9081 28.8268 45.7194 28.8693 45.4246 28.8693C44.0527 28.8693 43.2103 28.8061 42.8082 28.8061C42.6204 28.8061 41.6273 28.8693 40.5315 28.8693C40.258 28.8693 40.0667 28.8486 40.0667 28.6561C40.0667 28.528 40.1932 28.4855 40.4053 28.4855C40.6795 28.4855 41.058 28.4647 41.3529 28.38C41.9026 28.2076 41.9872 27.5873 42.0066 25.729L42.1983 13.0777C42.1983 12.6509 42.2606 12.3511 42.4717 12.3511C42.7033 12.3511 42.8939 12.63 43.2511 13.0138C43.5049 13.2909 46.7108 16.7749 49.7893 19.8744C51.2232 21.327 54.0711 24.4047 54.4298 24.745H54.5351L54.323 15.152C54.3025 13.8468 54.1129 13.4405 53.6069 13.2277C53.2904 13.0995 52.783 13.0995 52.4881 13.0995C52.2358 13.0995 52.1513 13.0353 52.1513 12.9063C52.1513 12.7349 52.3839 12.714 52.6993 12.714C53.7966 12.714 54.8086 12.7782 55.2512 12.7782C55.4827 12.7782 56.2855 12.714 57.3187 12.714C57.5921 12.714 57.8032 12.7349 57.8032 12.9063C57.8032 13.0353 57.6778 13.0995 57.4248 13.0995C57.2126 13.0995 57.0435 13.0995 56.7905 13.1635C56.1999 13.3351 56.0315 13.7827 56.011 14.9788L55.7783 28.4648C55.7783 28.9343 55.6956 29.1265 55.5049 29.1265C55.2717 29.1265 55.0197 28.8908 54.7871 28.6561C53.459 27.3746 50.7601 24.5754 48.5661 22.374C46.2679 20.0659 43.9265 17.3952 43.5479 16.9881H43.4837L43.7158 25.9637Z" fill="#857040"/>
        <path d="M64.5542 20.6001C64.5542 20.8349 64.5973 20.9206 64.7441 20.9838C65.1877 21.1346 65.8192 21.1996 66.3465 21.1996C67.19 21.1996 67.4652 21.112 67.844 20.8349C68.4764 20.3636 69.0883 19.3816 69.0883 17.6288C69.0883 14.595 67.1065 13.7186 65.8619 13.7186C65.3336 13.7186 64.9553 13.7411 64.744 13.8044C64.5972 13.8468 64.5541 13.9333 64.5541 14.103L64.5542 20.6001ZM62.0657 18.9121C62.0657 15.6637 62.0657 15.0645 62.0248 14.381C61.9813 13.6555 61.8138 13.3115 61.1179 13.1634C60.9488 13.1209 60.5896 13.0984 60.294 13.0984C60.0625 13.0984 59.9368 13.057 59.9368 12.9063C59.9368 12.7574 60.0839 12.7139 60.4009 12.7139C61.5179 12.7139 62.8459 12.7781 63.2889 12.7781C64.0049 12.7781 65.6101 12.7139 66.262 12.7139C67.5912 12.7139 69.0038 12.8413 70.1421 13.6327C70.7336 14.039 71.5771 15.1295 71.5771 16.5611C71.5771 18.1433 70.9233 19.5956 68.7935 21.3475C70.6704 23.7413 72.126 25.6432 73.3692 26.9672C74.5514 28.2077 75.4153 28.3566 75.7333 28.4223C75.9623 28.4648 76.1537 28.4856 76.3204 28.4856C76.4913 28.4856 76.5751 28.5488 76.5751 28.6563C76.5751 28.827 76.4289 28.8692 76.1752 28.8692H74.1709C72.9908 28.8692 72.4618 28.7638 71.9129 28.4649C71.008 27.9712 70.2062 26.9674 69.0252 25.3229C68.1817 24.1478 67.2124 22.6927 66.9373 22.3738C66.8313 22.2449 66.7058 22.2242 66.5578 22.2242L64.7239 22.1818C64.6179 22.1818 64.5545 22.2242 64.5545 22.3524V22.652C64.5545 24.6388 64.5545 26.3266 64.6598 27.2248C64.7239 27.8447 64.8494 28.3142 65.482 28.4006C65.7982 28.4432 66.2623 28.4856 66.5152 28.4856C66.6843 28.4856 66.7691 28.5488 66.7691 28.6563C66.7691 28.806 66.6213 28.8692 66.3468 28.8692C65.124 28.8692 63.5642 28.806 63.2479 28.806C62.8461 28.806 61.5181 28.8692 60.6746 28.8692C60.4012 28.8692 60.2524 28.806 60.2524 28.6563C60.2524 28.5488 60.3362 28.4856 60.5899 28.4856C60.9064 28.4856 61.1593 28.4432 61.35 28.4006C61.7721 28.3142 61.8762 27.8447 61.961 27.2248C62.066 26.3266 62.066 24.6388 62.066 22.6719V18.9122H62.0657V18.9121Z" fill="#857040"/>
        <path d="M89.8619 21.199C89.8619 16.4105 87.1415 13.44 83.6829 13.44C81.2593 13.44 78.4961 14.8084 78.4961 20.1296C78.4961 24.5757 80.9216 28.1015 84.9691 28.1015C86.4469 28.1015 89.8619 27.3741 89.8619 21.199ZM75.5869 20.792C75.5869 17.1383 77.9687 12.4148 84.2947 12.4148C89.5477 12.4148 92.8156 15.5143 92.8156 20.4084C92.8156 25.3016 89.4397 29.1692 84.0847 29.1692C78.0303 29.1692 75.5869 24.5757 75.5869 20.792Z" fill="#857040"/>
        <path d="M95.8344 28.6125C95.4951 28.4643 95.4326 28.3569 95.4326 27.8866C95.4326 26.7142 95.5183 25.4288 95.5387 25.0877C95.5592 24.7663 95.6242 24.5325 95.7907 24.5325C95.9823 24.5325 96.0028 24.7238 96.0028 24.8953C96.0028 25.1723 96.0866 25.6219 96.1907 25.9858C96.6565 27.5662 97.901 28.144 99.2084 28.144C101.106 28.144 102.034 26.8407 102.034 25.7077C102.034 24.6599 101.718 23.655 99.9665 22.2885L98.9965 21.5176C96.6768 19.6809 95.8762 18.1853 95.8762 16.4541C95.8762 14.1036 97.8171 12.4148 100.748 12.4148C102.117 12.4148 103.004 12.6295 103.553 12.7784C103.74 12.8227 103.847 12.8851 103.847 13.0358C103.847 13.3119 103.762 13.9339 103.762 15.6C103.762 16.0696 103.699 16.241 103.532 16.241C103.382 16.241 103.32 16.1121 103.32 15.8556C103.32 15.6643 103.216 15.0008 102.772 14.4466C102.454 14.0385 101.844 13.3986 100.473 13.3986C98.9125 13.3986 97.9631 14.3167 97.9631 15.6C97.9631 16.582 98.4493 17.3294 100.199 18.677L100.789 19.1248C103.32 21.1115 104.248 22.5458 104.248 24.5757C104.248 25.8143 103.782 27.2881 102.265 28.2936C101.211 28.977 100.031 29.1692 98.9124 29.1692C97.689 29.1693 96.7403 29.0213 95.8344 28.6125Z" fill="#857040"/>
        <path d="M108.107 28.6125C107.77 28.4643 107.707 28.3569 107.707 27.8866C107.707 26.7142 107.79 25.4288 107.811 25.0877C107.832 24.7663 107.895 24.5325 108.065 24.5325C108.254 24.5325 108.275 24.7238 108.275 24.8953C108.275 25.1723 108.359 25.6219 108.465 25.9858C108.929 27.5662 110.173 28.144 111.482 28.144C113.378 28.144 114.306 26.8407 114.306 25.7077C114.306 24.6599 113.99 23.655 112.24 22.2885L111.271 21.5176C108.949 19.6809 108.149 18.1853 108.149 16.4541C108.149 14.1036 110.088 12.4148 113.02 12.4148C114.392 12.4148 115.276 12.6295 115.824 12.7784C116.015 12.8227 116.119 12.8851 116.119 13.0358C116.119 13.3119 116.036 13.9339 116.036 15.6C116.036 16.0696 115.974 16.241 115.804 16.241C115.655 16.241 115.592 16.1121 115.592 15.8556C115.592 15.6643 115.486 15.0008 115.045 14.4466C114.728 14.0385 114.115 13.3986 112.744 13.3986C111.187 13.3986 110.235 14.3167 110.235 15.6C110.235 16.582 110.721 17.3294 112.471 18.677L113.062 19.1248C115.592 21.1115 116.519 22.5458 116.519 24.5757C116.519 25.8143 116.056 27.2881 114.537 28.2936C113.484 28.977 112.303 29.1692 111.187 29.1692C109.961 29.1692 109.014 29.0213 108.107 28.6125Z" fill="#857040"/>
    </g>
    <defs>
        <clipPath id="clip0_38_398">
            <rect width="130" height="40" fill="white" transform="translate(0 0.610352)"/>
        </clipPath>
    </defs>
</svg>
