<svg width="160" height="28" viewBox="0 0 160 28" fill="none" xmlns="http://www.w3.org/2000/svg">
<g clip-path="url(#clip0_112_6249)">
<path d="M71.1352 13.114C71.132 11.6176 71.132 10.1204 71.1352 8.62319C69.8483 8.6144 68.5645 8.6168 67.2775 8.61999C67.2743 6.9877 67.2711 5.35461 67.2839 3.72552C65.5829 3.73431 63.8787 3.73112 62.1784 3.72872V8.6168H60.0617C60.0585 10.1148 60.0617 11.6128 60.0617 13.114H62.1752V13.1172H62.1784C62.184 14.4841 62.1768 15.8526 62.176 17.2203C62.1752 17.3338 62.1752 17.4473 62.1752 17.5608C62.1752 17.6464 62.1744 17.7327 62.1744 17.8182H62.1752C62.1752 18.6152 62.1776 19.4121 62.188 20.2091C62.2312 22.3642 63.0154 24.6727 64.8299 25.9389C66.427 27.0812 68.4166 27.2946 70.3263 27.269C68.7556 25.6328 67.8131 23.2419 67.4342 21.3218L67.423 21.2659L67.4158 21.2091C67.3647 20.7878 67.3007 20.1108 67.3079 19.3962C67.2959 19.2435 67.2871 19.0916 67.2807 18.9421C67.2751 18.5536 67.2751 18.1651 67.2735 17.7775C67.2663 16.2227 67.2823 14.6695 67.2775 13.1172C68.5613 13.1204 69.8483 13.1204 71.1352 13.114Z" fill="#1D3C6D"/>
<path d="M59.1079 5.12984C59.0983 3.62945 59.0983 2.12985 59.1079 0.629452C56.5891 0.206591 53.6882 0.373656 51.6698 2.11466C49.8641 3.73736 49.5092 6.31769 49.5739 8.62064C49.5571 8.62064 49.5395 8.62064 49.5227 8.62064H47.3677C47.3701 10.1194 47.3701 11.619 47.3677 13.1186H49.231C49.3493 13.1178 49.4676 13.117 49.5859 13.117V13.1186H49.5963V15.5767H49.5883C49.5923 19.2561 49.5939 22.9372 49.5859 26.6166H51.9568C52.8936 26.6166 53.8313 26.6174 54.7681 26.6142C54.7657 22.8796 54.7633 19.1458 54.7689 15.4128V13.1138H58.2254C58.2222 11.6134 58.2222 10.1154 58.2254 8.61744C58.2254 8.61744 54.8345 8.61744 54.7434 8.61744C54.7897 7.60546 54.673 6.39523 55.5059 5.64543C56.5091 4.8029 57.9072 5.07708 59.1079 5.12984Z" fill="#1D3C6D"/>
<path d="M40.3211 26.6162H42.6233C43.0589 26.6162 43.4946 26.6154 43.931 26.6162H45.3859C45.3547 22.7617 45.4162 18.9071 45.3547 15.0518C45.3147 12.7896 44.4562 10.2805 42.2995 9.21891C39.2156 7.68494 35.6017 8.03106 32.3115 8.55864C32.2996 10.1941 32.3084 11.8328 32.306 13.4723C34.4227 13.0127 36.7312 12.5339 38.8271 13.318C39.8023 13.6538 40.1668 14.6817 40.3179 15.6106C38.8519 15.4259 37.3643 15.0766 35.8855 15.3764C34.1325 15.5922 32.3955 16.4507 31.4043 17.9535C29.8056 20.3452 30.262 23.9623 32.6297 25.6913C34.8519 27.3851 38.0805 27.2029 40.3395 25.6697C40.3363 25.9055 40.3275 26.3764 40.3211 26.6162ZM40.1077 22.7217C38.7959 23.1262 37.1948 23.5738 35.991 22.6569C34.8919 21.8824 35.0342 20.0151 36.2252 19.4043C37.441 18.7625 38.8607 18.9871 40.1517 19.2437C40.2684 20.4011 40.2588 21.5674 40.1077 22.7217Z" fill="#1D3C6D"/>
<path d="M13.8305 2.21007C15.8953 2.22206 17.96 2.21327 20.0247 2.21327C17 6.2812 14.0431 10.4011 11 14.4539C13.7098 18.5034 16.3765 22.5769 19.1079 26.6105C16.9664 26.6265 14.8241 26.6049 12.685 26.6233C10.2997 23.003 7.90806 19.3859 5.53396 15.7592C5.52837 19.3795 5.52837 22.9998 5.53716 26.6201C3.69144 26.6105 1.84572 26.6169 0 26.6169C0.00639487 18.4842 0.00639487 10.3515 0 2.21886C1.84572 2.21007 3.68904 2.21886 5.53396 2.21007C5.53076 6.04939 5.52517 9.88871 5.53716 13.728C8.29015 9.87992 11.0711 6.05259 13.8305 2.21007Z" fill="#1D3C6D"/>
<path d="M20.3921 8.67582C22.1299 8.66703 23.8701 8.67582 25.6111 8.66703C25.6047 9.81491 25.6023 10.9628 25.5831 12.1083C26.4265 10.2066 28.2498 8.96918 30.2746 8.64225C30.2778 10.3457 30.2993 12.0523 30.253 13.7557C28.034 14.0211 25.7534 15.6758 25.6727 18.0707C25.6111 20.9164 25.6607 23.7685 25.6575 26.6174C23.9013 26.6174 22.1451 26.6174 20.3921 26.6134C20.3953 20.6326 20.3953 14.6542 20.3921 8.67582Z" fill="#1D3C6D"/>
<path d="M113.044 22.9705C112.316 23.2615 112.17 23.407 111.297 23.6979C110.424 23.9897 109.405 23.9897 108.531 23.6979C105.765 22.5341 107.512 18.3118 107.512 18.3118C118.867 15.5461 117.266 9.43176 114.209 9.14C112.316 9.14 105.474 9.43176 102.271 17.2927C101.835 18.4573 98.7771 26.7555 105.62 27.3374C107.075 27.3374 108.677 27.1919 110.133 26.4645C111.443 25.7363 112.462 24.8626 113.335 23.6979C114.063 22.3878 113.044 22.9705 113.044 22.9705ZM111.443 11.3238C112.316 11.6148 110.133 15.9825 110.133 15.9825C109.259 16.2735 108.385 16.5652 107.803 16.5652C108.094 15.9825 109.696 10.4509 111.443 11.3238Z" fill="#E32726"/>
<path d="M139.539 24.5716C139.394 24.4262 139.103 24.4262 138.957 24.2807C138.084 23.6979 138.811 22.0968 138.957 21.2231L141.578 11.9066C141.723 11.3239 142.742 8.26711 138.666 8.84904C135.172 9.43177 132.697 11.6148 132.697 11.6148C132.989 10.7419 133.28 9.43177 132.697 9.14001C131.969 8.84904 127.747 10.1592 126.728 11.0329C126.437 11.0329 126.001 11.4693 126.437 11.9066C126.873 12.4885 127.02 12.925 126.728 13.9442C126.146 15.6916 124.399 21.8059 123.962 22.9705C123.526 24.1352 122.943 26.319 123.962 27.0464C124.69 27.6292 127.747 26.319 128.184 26.0273C128.621 25.8818 129.057 25.5908 129.203 25.4453C129.786 24.8626 128.912 24.5716 129.786 21.5141C129.786 21.3686 130.805 18.3119 131.532 15.6916C132.115 13.5077 134.152 12.4885 134.881 12.343C136.045 12.1976 135.754 13.2167 135.609 13.9442C134.59 17.1472 133.425 21.9513 132.989 23.116C132.551 24.2807 131.824 26.61 132.989 27.0464C134.007 27.7747 138.666 25.7363 139.103 25.4453C139.976 24.8626 139.976 24.5716 139.539 24.5716Z" fill="#E32726"/>
<path d="M121.779 24.5717C121.488 24.4262 121.342 24.4262 121.196 24.2807C120.323 23.698 120.905 22.0968 121.196 21.2231L123.963 11.9066C124.108 10.8874 124.69 9.57728 123.963 9.14003C123.089 8.84906 118.867 10.1592 117.848 11.0329C117.702 11.0329 117.266 11.4694 117.702 11.9066C118.139 12.4885 118.139 12.925 117.848 13.9442C117.411 15.6916 115.373 21.9514 114.936 23.116C114.5 24.2807 113.917 26.61 115.227 27.0465C116.246 27.7747 120.614 25.8818 121.196 25.4454C122.215 25.0081 122.215 24.5717 121.779 24.5717Z" fill="#E32726"/>
<path d="M120.905 6.95666C121.196 7.53859 123.817 6.37473 125.128 5.64651C125.273 5.50103 125.855 5.06378 126 4.62733C126.292 3.60814 126.438 3.17169 126.583 2.44348C126.729 2.15251 126.729 1.71606 126.292 1.56978C125.709 1.4243 122.215 1.86155 121.342 3.31718C121.051 3.89911 120.032 6.66569 120.905 6.95666Z" fill="#E32726"/>
<path d="M159.921 17.1474C159.484 15.5462 156.863 15.109 155.845 15.9827C155.262 16.5646 154.971 17.7293 155.117 18.0211C157.591 17.2928 158.028 19.4767 157.591 20.3496C156.718 21.6605 156.427 22.097 155.262 22.097H147.547C147.401 21.9515 147.255 21.806 147.547 21.5143C147.983 20.9323 155.553 10.5966 155.845 10.1594C155.99 9.8684 156.427 9.14019 155.408 9.14019H146.964C146.091 9.14019 145.654 9.43115 144.926 10.1594C144.344 10.8876 143.616 13.0706 143.179 14.5271C143.179 14.5271 143.179 15.109 144.053 14.3816C144.198 14.2353 144.489 13.6534 144.926 13.6534H150.021C151.623 13.6534 143.179 21.6605 140.559 25.882C140.122 26.6102 140.85 26.6102 141.287 26.6102H152.351C155.117 26.6102 154.68 27.0466 156.136 25.0083C156.136 25.0083 160.648 19.1857 159.921 17.1474Z" fill="#E32726"/>
<path d="M99.0683 22.097L102.126 10.3049C104.163 3.17137 105.328 2.8804 106.056 2.15219H101.252C99.5055 2.15219 98.1946 4.627 97.9036 6.22892L95.8652 13.6534H91.4983C91.4983 13.6534 94.1186 4.19055 94.4096 3.17137C94.5551 2.73492 94.5551 2.15219 93.6822 2.15219C93.5359 2.15219 84.3648 1.86122 81.4528 2.8804C80.1426 3.31685 78.2506 4.48152 77.6678 6.22892C77.2314 7.2481 76.6486 9.14019 77.9596 12.6342C78.1051 13.0706 78.396 13.3624 78.5415 13.5079C78.978 13.7988 82.7629 13.2169 82.6174 13.2169C82.9092 13.2169 83.0547 13.0706 82.7629 12.4887C82.472 11.7605 81.5991 10.4503 81.4528 9.14019C80.8708 4.04507 84.5103 3.31685 85.0923 3.17137C85.966 3.02589 86.6942 3.02589 87.5671 3.17137C87.8588 3.17137 88.5863 3.31686 88.7317 3.60862C89.0235 4.19055 88.5863 5.20974 88.2953 6.3744C88.0043 7.2481 85.5295 16.2737 84.8013 18.7485C84.3648 20.6414 82.472 24.7173 80.5799 25.3C80.1426 25.4455 79.5607 25.4455 78.978 25.3C78.396 25.1545 77.8133 24.8628 77.3769 24.5718C76.2122 23.4071 75.484 21.0778 75.3385 19.3312C75.193 17.1474 75.6303 15.5462 75.193 15.5462C74.4336 15.5462 71.8964 16.5486 70.8677 17.2873C70.8661 17.2889 70.8645 17.2889 70.8629 17.2904C70.4456 17.5886 70.4184 17.6462 70.4184 17.6462C70.3976 17.6669 70.3809 17.6877 70.3697 17.7069C70.1011 18.1649 70.1195 19.7932 70.2434 20.7868C70.6806 22.9707 71.8453 25.4455 73.5919 26.6102C78.2505 29.8124 86.4032 23.9899 87.2761 23.4071C88.5863 22.2425 89.46 20.6414 89.7509 19.4767C90.1882 18.0211 90.9156 15.5462 90.9156 15.5462H95.2833C95.2833 15.5462 93.5359 22.097 93.0994 23.6981C92.663 25.0083 92.3712 27.1921 93.5359 27.0466C97.9036 27.0466 99.651 25.4455 99.7965 25.3C99.942 25.1545 99.942 24.8628 99.7965 24.7173C99.5055 24.5718 98.4863 23.5526 99.0683 22.097Z" fill="#E32726"/>
</g>
<defs>
<clipPath id="clip0_112_6249">
<rect width="160" height="27.1315" fill="white" transform="translate(0 0.434326)"/>
</clipPath>
</defs>
</svg>
