<svg width="160" height="41" viewBox="0 0 160 41" fill="none" xmlns="http://www.w3.org/2000/svg">
    <g clip-path="url(#clip0_38_410)">
        <path d="M35.9184 39.7236L17.7011 19.8726L6.28751 28.2603V39.7236H0V2H6.28751V21.5331L32.8302 2H41.8916L22.5167 16.2744L43.9858 39.7236H35.9184Z" fill="#48104A"/>
        <path d="M94.7496 39.7236L76.5336 19.8726L65.1162 28.2603V39.7236H58.8274V2H65.1162V21.5331L91.6627 2H100.723L81.3467 16.2744L102.821 39.7236H94.7496Z" fill="#48104A"/>
        <path d="M152.715 39.7236L142.457 25.3411H123.288V39.7236H117.012V2H146.906C154.868 2 159.677 6.58481 159.677 13.879C159.677 20.5439 155.491 24.0925 149.836 25.027L160 39.7248L152.715 39.7236ZM153.244 13.8778C153.244 9.70619 150.67 7.67443 145.395 7.67443H123.288V19.6577H145.96C150.67 19.6577 153.244 17.5751 153.244 13.8778Z" fill="#48104A"/>
    </g>
    <defs>
        <clipPath id="clip0_38_410">
            <rect width="160" height="37.7236" fill="white" transform="translate(0 2)"/>
        </clipPath>
    </defs>
</svg>
