<svg width="160" height="36" viewBox="0 0 160 36" fill="none" xmlns="http://www.w3.org/2000/svg">
<g clip-path="url(#clip0_112_6277)">
<path d="M47.7174 32.664H71.6587V35.672H47.7174C47.712 35.672 47.7014 35.672 47.696 35.672C45.5307 35.6667 43.7867 33.9067 43.792 31.7413V0.264004H46.8107V31.7413C46.8107 31.7467 46.8107 31.752 46.8107 31.7573C46.816 32.2587 47.2214 32.664 47.7174 32.664ZM33.6587 0.264004H29.8294L4.62404 32.4293C4.41604 32.7227 4.03204 32.8347 3.70138 32.696C3.36538 32.5893 3.14138 32.2693 3.15204 31.9173V0.264004H0.133376V31.9173C0.112042 33.5653 1.16271 35.032 2.72538 35.544C3.13604 35.6827 3.56804 35.7573 4.00538 35.7573C5.17871 35.7573 6.28804 35.2187 7.00271 34.2853L19.0347 18.92L32.08 35.6667H35.984L20.9547 16.4827L33.6587 0.264004ZM112.16 35.672H115.499L100 2.51467C99.0987 0.552004 96.7734 -0.30133 94.816 0.600004C93.9734 0.989337 93.2907 1.66667 92.9014 2.51467L77.408 35.6773H80.7574L95.6534 3.81067C95.7974 3.50134 96.112 3.304 96.4534 3.31467C96.7947 3.29867 97.1147 3.496 97.2534 3.81067L112.16 35.672Z" fill="#41007F"/>
<path d="M124.368 0.263916H159.867V35.6719H124.368V0.263916Z" fill="#00A7E1"/>
<path d="M157.205 16.3066H143.787V2.91992H140.448V16.3066H127.029V19.6346H140.448V33.0213H143.787V19.6346H157.205V16.3066Z" fill="white"/>
</g>
<defs>
<clipPath id="clip0_112_6277">
<rect width="160" height="35.5787" fill="white" transform="translate(0 0.210693)"/>
</clipPath>
</defs>
</svg>
