<svg width="160" height="41" viewBox="0 0 160 41" fill="none" xmlns="http://www.w3.org/2000/svg">
    <g clip-path="url(#clip0_38_415)">
        <path d="M145.597 17.8166H145.631C146.542 16.7346 147.604 16.5491 148.785 16.5491L148.565 19.3159C148.312 19.3005 148.059 19.3005 147.823 19.3005C145.479 19.3005 145.395 20.537 145.31 21.9745L145.091 25.205H141.431L141.92 18.775C141.988 18.0021 142.005 17.4766 141.971 16.5337H145.462L145.597 17.8166Z" fill="#0F059E"/>
        <path d="M127.029 25.2052L127.973 12.7778H131.43L130.486 25.2052H127.029Z" fill="#0F059E"/>
        <path d="M121.429 12.4531C124.229 12.4531 127.079 13.566 126.961 16.6883H123.116C123.116 15.8691 122.593 14.9417 121.294 14.9417C119.996 14.9417 118.461 15.8382 118.191 18.4041C117.921 20.9699 118.275 22.9329 120.552 22.9329C122.525 22.9329 122.913 21.3718 122.947 21.0781H126.759C126.759 22.4692 125.511 25.3288 120.333 25.3288C114.869 25.3288 113.907 21.6809 114.346 18.2959C114.734 15.4518 116.943 12.4531 121.429 12.4531Z" fill="#0F059E"/>
        <path d="M109.522 18.2803H114.093L112.626 20.9852H108.055L109.522 18.2803Z" fill="#0F059E"/>
        <path d="M102.422 29.3784H99.1336L101.259 25.3442L97.7844 16.5337H101.815L103.367 21.9127L105.846 16.5337H109.168L102.422 29.3784Z" fill="#0F059E"/>
        <path d="M51.2871 16.5334V17.7082H51.3208C52.3665 16.4407 53.8169 16.3325 54.7107 16.3325C55.9925 16.3325 57.3248 16.9817 57.5778 17.8627C58.303 16.8271 59.6016 16.317 61.0352 16.2861C63.0927 16.2861 64.5263 17.4918 64.3913 19.4084L63.936 25.2048H60.3268L60.7147 20.1195C60.7653 19.3002 60.6979 18.3574 59.5004 18.3574C57.7633 18.3574 57.8308 20.1349 57.8139 20.2431L57.4598 25.2048H53.8169L54.2216 20.1195C54.2385 19.2693 54.1204 18.3574 52.9736 18.3574C51.1353 18.3574 51.1859 20.1349 51.1859 20.2431L50.8149 25.2203H47.0708L47.7285 16.5489L51.2871 16.5334Z" fill="#0F059E"/>
        <path d="M43.647 16.5337H47.02L46.3623 25.205H42.9893L43.647 16.5337Z" fill="#0F059E"/>
        <path d="M38.3009 12.7778L33.5618 18.296L37.7781 25.2052H42.534L37.7949 18.1105L42.787 12.7778H38.3009Z" fill="#0F059E"/>
        <path d="M29.9357 12.7778H33.899L32.9545 25.2052H28.9744L29.9357 12.7778Z" fill="#0F059E"/>
        <path d="M79.5024 21.4333C79.4012 22.6235 79.6879 23.5973 81.0371 23.5973C82.0322 23.5973 82.6562 22.9944 82.6562 22.4225H85.9618C85.8943 23.4736 85.0848 24.2928 84.1403 24.772C83.2802 25.2512 82.2852 25.3439 81.2227 25.3439C77.3774 25.3439 75.8764 23.8755 76.1125 20.5986C76.3149 17.8627 78.7097 16.2398 81.56 16.2861C85.3546 16.348 86.5689 18.3883 86.2148 21.4487H79.5024V21.4333ZM82.926 19.7949C82.9598 19.3311 82.8417 18.8674 82.5887 18.4965C82.3358 18.141 81.9479 17.9091 81.4082 17.94C80.1602 17.9864 79.8397 18.8056 79.6711 19.7794H82.926V19.7949Z" fill="#0F059E"/>
        <path d="M65.6056 12.7778H69.1473L68.7762 17.7241H68.8437C69.552 16.9512 70.5471 16.302 71.8288 16.302C74.7296 16.302 75.8427 18.636 75.6741 20.7382C75.5223 22.8712 74.2911 25.3134 71.0699 25.3134C69.9736 25.3134 68.928 24.757 68.4389 24.1232H68.3715L68.1522 25.1743H64.678L65.6056 12.7778ZM68.4389 20.9855C68.3883 22.0366 68.675 23.5359 69.9736 23.5359C71.6096 23.5359 72.0143 22.0366 72.0818 20.8309C72.1324 19.7644 71.9131 18.1878 70.5133 18.2032C68.7256 18.2032 68.4895 19.8417 68.4389 20.9855Z" fill="#0F059E"/>
        <path d="M93.4331 25.2052L94.3776 12.7778H97.8349L96.8905 25.2052H93.4331Z" fill="#0F059E"/>
        <path d="M90.5156 17.8166H90.5493C91.46 16.7346 92.5225 16.5491 93.6862 16.5491L93.467 19.3159C93.2309 19.3005 92.9779 19.3005 92.7418 19.3005C90.3975 19.3005 90.3132 20.537 90.2288 21.9745L90.0096 25.205H86.3499L86.8389 18.775C86.9064 18.0021 86.9233 17.4766 86.8895 16.5337H90.3806L90.5156 17.8166Z" fill="#0F059E"/>
        <path d="M152.579 20.3825L155.952 16.5337H160L156.357 20.197L159.798 25.205H155.413L152.579 20.3825Z" fill="#0F059E"/>
        <path d="M148.65 25.2052L149.594 12.7778H153.17L152.225 25.2052H148.65Z" fill="#0F059E"/>
        <path d="M137.283 24.1384H137.249C136.49 24.7876 135.765 25.2668 134.382 25.2668C132.139 25.2668 131.211 24.1075 131.211 22.5773C131.211 20.8615 133.134 19.7486 136.557 19.7486H137.687C137.738 18.9913 138.025 17.7392 136.625 17.7392C135.613 17.7392 135.377 18.6203 135.36 19.0376H132.105C132.172 17.9093 132.712 17.1519 133.707 16.7655C134.719 16.3481 135.95 16.2554 136.996 16.2554C138.919 16.2554 141.263 17.1364 141.111 19.2695L140.841 23.4274C140.807 23.7829 140.807 24.1693 140.858 25.205H137.485L137.283 24.1384ZM135.731 23.5511C137.401 23.5511 137.502 22.129 137.586 20.9697C136.827 20.9697 136.119 20.9388 135.613 21.1552C135.073 21.4025 134.669 21.8044 134.618 22.4072C134.584 23.0564 135.056 23.5511 135.731 23.5511Z" fill="#0F059E"/>
        <path d="M43.9843 12.7778H47.3574L47.1887 15.0191H43.8157L43.9843 12.7778Z" fill="#0F059E"/>
        <path d="M8.73617 12.8549V18.1412C8.28081 17.1828 7.26889 16.3327 6.24012 15.7608H1.90577C3.30558 16.7191 5.53178 18.2184 5.53178 19.4241C5.53178 20.0269 4.73912 20.1351 4.28376 20.1351H1.5516V23.0101H5.83535C6.79667 23.0101 8.17962 22.6855 8.73617 21.3408V25.1895H12.7163V21.3408C13.2729 22.701 14.6558 23.0101 15.6172 23.0101H19.9009V20.1351H17.1688C16.7134 20.1351 15.9207 20.0115 15.9207 19.4241C15.9207 18.2184 18.1469 16.7191 19.5467 15.7608H15.2124C14.1836 16.3327 13.1717 17.1828 12.7163 18.1412V12.8549H8.73617ZM10.7263 11C16.6459 11 21.4525 14.787 21.4525 19.455C21.4525 24.123 16.6459 27.91 10.7263 27.91C4.80658 27.91 0 24.123 0 19.455C0 14.7715 4.78971 10.9846 10.7263 11Z" fill="#0F059E"/>
    </g>
    <defs>
        <clipPath id="clip0_38_415">
            <rect width="160" height="18.3784" fill="white" transform="translate(0 11)"/>
        </clipPath>
    </defs>
</svg>
