<svg width="66" height="15" viewBox="0 0 66 15" fill="none" xmlns="http://www.w3.org/2000/svg">
    <g clip-path="url(#clip0_723_473)">
        <path fill-rule="evenodd" clip-rule="evenodd" d="M33.1487 6.92273L28.6364 14.4275L29.6306 12.1187L32.6529 7.1224L33.1487 6.92273Z" fill="black" stroke="black" stroke-width="0.0461725" stroke-miterlimit="10" stroke-linejoin="round"/>
        <path fill-rule="evenodd" clip-rule="evenodd" d="M30.406 9.01353L30.2463 9.39221L28.7564 9.96826L28.9549 9.57122L30.406 9.01353Z" fill="black" stroke="black" stroke-width="0.0461725" stroke-miterlimit="10" stroke-linejoin="round"/>
        <path fill-rule="evenodd" clip-rule="evenodd" d="M31.6974 0.335516L31.1214 3.47971L30.8232 3.57886L31.2802 1.09104L31.6974 0.335516Z" fill="black" stroke="black" stroke-width="0.0461725" stroke-miterlimit="10" stroke-linejoin="round"/>
        <path fill-rule="evenodd" clip-rule="evenodd" d="M33.5456 3.08305L31.4787 7.02362L31.0217 7.20264L33.0701 3.28042L33.5456 3.08305Z" fill="black" stroke="black" stroke-width="0.0461725" stroke-miterlimit="10" stroke-linejoin="round"/>
        <path fill-rule="evenodd" clip-rule="evenodd" d="M30.863 4.774L30.6461 5.1715L28.7177 5.9082L28.8949 5.52952L30.863 4.774Z" fill="black" stroke="black" stroke-width="0.0461725" stroke-miterlimit="10" stroke-linejoin="round"/>
        <path fill-rule="evenodd" clip-rule="evenodd" d="M31.2017 0.234611L31.162 0.375067L31.103 0.395264L31.2017 0.234611Z" fill="#FF2828" stroke="#FF2828" stroke-width="0.0461725" stroke-miterlimit="10" stroke-linejoin="round"/>
        <path fill-rule="evenodd" clip-rule="evenodd" d="M31.1621 0.375086L31.1418 0.574294L31.0033 0.61377L31.103 0.395282L31.1621 0.375086Z" fill="#FF3838" stroke="#FF3838" stroke-width="0.0461725" stroke-miterlimit="10" stroke-linejoin="round"/>
        <path fill-rule="evenodd" clip-rule="evenodd" d="M31.1418 0.574304L31.103 0.774432L30.8833 0.812988L31.0033 0.613779L31.1418 0.574304Z" fill="#FF4444" stroke="#FF4444" stroke-width="0.0461725" stroke-miterlimit="10" stroke-linejoin="round"/>
        <path fill-rule="evenodd" clip-rule="evenodd" d="M31.103 0.77445L31.0614 0.971822L30.7632 1.03149L30.8833 0.813007L31.103 0.77445Z" fill="#FF5454" stroke="#FF5454" stroke-width="0.0461725" stroke-miterlimit="10" stroke-linejoin="round"/>
        <path fill-rule="evenodd" clip-rule="evenodd" d="M31.0614 0.971714L31.0217 1.17092L30.6645 1.25171L30.7633 1.03139L31.0614 0.971714Z" fill="#FF6060" stroke="#FF6060" stroke-width="0.0461725" stroke-miterlimit="10" stroke-linejoin="round"/>
        <path fill-rule="evenodd" clip-rule="evenodd" d="M31.0218 1.17082L31.0033 1.37094L30.5445 1.44897L30.6645 1.2516L31.0218 1.17082Z" fill="#FF7070" stroke="#FF7070" stroke-width="0.0461725" stroke-miterlimit="10" stroke-linejoin="round"/>
        <path fill-rule="evenodd" clip-rule="evenodd" d="M31.0033 1.37108L30.9617 1.56845L30.4263 1.66943L30.5445 1.44911L31.0033 1.37108Z" fill="#FF7C7C" stroke="#FF7C7C" stroke-width="0.0461725" stroke-miterlimit="10" stroke-linejoin="round"/>
        <path fill-rule="evenodd" clip-rule="evenodd" d="M30.9618 1.56841L30.923 1.76762L30.3063 1.88696L30.4263 1.66939L30.9618 1.56841Z" fill="#FF8888" stroke="#FF8888" stroke-width="0.0461725" stroke-miterlimit="10" stroke-linejoin="round"/>
        <path fill-rule="evenodd" clip-rule="evenodd" d="M30.9229 1.76751L30.8832 1.94653L30.2075 2.10718L30.3063 1.88685L30.9229 1.76751Z" fill="#FF9898" stroke="#FF9898" stroke-width="0.0461725" stroke-miterlimit="10" stroke-linejoin="round"/>
        <path fill-rule="evenodd" clip-rule="evenodd" d="M30.8833 1.94666L30.8445 2.14679L30.0875 2.30469L30.2075 2.10732L30.8833 1.94666Z" fill="#FFA4A4" stroke="#FFA4A4" stroke-width="0.0461725" stroke-miterlimit="10" stroke-linejoin="round"/>
        <path fill-rule="evenodd" clip-rule="evenodd" d="M30.8445 2.14668L30.8232 2.34589L29.9703 2.5249L30.0875 2.30458L30.8445 2.14668Z" fill="#FFB4B4" stroke="#FFB4B4" stroke-width="0.0461725" stroke-miterlimit="10" stroke-linejoin="round"/>
        <path fill-rule="evenodd" clip-rule="evenodd" d="M30.8233 2.34591L30.7845 2.54328L29.8503 2.74341L29.9703 2.52492L30.8233 2.34591Z" fill="#FFC0C0" stroke="#FFC0C0" stroke-width="0.0461725" stroke-miterlimit="10" stroke-linejoin="round"/>
        <path fill-rule="evenodd" clip-rule="evenodd" d="M30.7845 2.54329L30.7448 2.74342L29.7506 2.94263L29.8503 2.74342L30.7845 2.54329Z" fill="#FFD0D0" stroke="#FFD0D0" stroke-width="0.0461725" stroke-miterlimit="10" stroke-linejoin="round"/>
        <path fill-rule="evenodd" clip-rule="evenodd" d="M30.7448 2.74344L30.7033 2.94265L29.6306 3.16113L29.7506 2.94265L30.7448 2.74344Z" fill="#FFDCDC" stroke="#FFDCDC" stroke-width="0.0461725" stroke-miterlimit="10" stroke-linejoin="round"/>
        <path fill-rule="evenodd" clip-rule="evenodd" d="M30.7033 2.94278L30.6848 3.14291L29.5106 3.38159L29.6306 3.16127L30.7033 2.94278Z" fill="#FFECEC" stroke="#FFECEC" stroke-width="0.0461725" stroke-miterlimit="10" stroke-linejoin="round"/>
        <path fill-rule="evenodd" clip-rule="evenodd" d="M30.6848 3.1428L30.646 3.34017L29.4118 3.57886L29.5106 3.38148L30.6848 3.1428Z" fill="#FFF8F8" stroke="#FFF8F8" stroke-width="0.0461725" stroke-miterlimit="10" stroke-linejoin="round"/>
        <path fill-rule="evenodd" clip-rule="evenodd" d="M30.646 3.34007L30.6045 3.51908L29.2936 3.79907L29.4118 3.57875L30.646 3.34007ZM33.0489 2.84434L32.9501 3.04171L32.0556 3.22072L33.0489 2.84434Z" fill="#FFFCFC" stroke="#FFFCFC" stroke-width="0.0461725" stroke-miterlimit="10" stroke-linejoin="round"/>
        <path fill-rule="evenodd" clip-rule="evenodd" d="M30.6045 3.51928L30.5648 3.71849L29.1746 4.01685L29.2936 3.79928L30.6045 3.51928ZM32.9501 3.04191L32.8301 3.26224L31.0033 3.63862L32.0556 3.22093L32.9501 3.04191Z" fill="#FFECEC" stroke="#FFECEC" stroke-width="0.0461725" stroke-miterlimit="10" stroke-linejoin="round"/>
        <path fill-rule="evenodd" clip-rule="evenodd" d="M32.8302 3.26206L32.7314 3.45944L29.0546 4.2168L29.1746 4.01667L30.5648 3.71832V3.7991L31.0033 3.63845L32.8302 3.26206Z" fill="#FFE0E0" stroke="#FFE0E0" stroke-width="0.0461725" stroke-miterlimit="10" stroke-linejoin="round"/>
        <path fill-rule="evenodd" clip-rule="evenodd" d="M32.7314 3.45964L32.6132 3.67996L28.9549 4.43457L29.0546 4.217L32.7314 3.45964Z" fill="#FFD0D0" stroke="#FFD0D0" stroke-width="0.0461725" stroke-miterlimit="10" stroke-linejoin="round"/>
        <path fill-rule="evenodd" clip-rule="evenodd" d="M32.6132 3.67986L32.4932 3.89742L28.8348 4.65479L28.9548 4.43446L32.6132 3.67986Z" fill="#FFC4C4" stroke="#FFC4C4" stroke-width="0.0461725" stroke-miterlimit="10" stroke-linejoin="round"/>
        <path fill-rule="evenodd" clip-rule="evenodd" d="M32.4932 3.89732L32.3945 4.09744L28.7177 4.85205L28.8349 4.65468L32.4932 3.89732Z" fill="#FFB4B4" stroke="#FFB4B4" stroke-width="0.0461725" stroke-miterlimit="10" stroke-linejoin="round"/>
        <path fill-rule="evenodd" clip-rule="evenodd" d="M32.3944 4.09758L32.2744 4.31515L31.043 4.57495L31.103 4.49416L30.6848 4.65481L28.6179 5.07251L28.7176 4.85219L32.3944 4.09758Z" fill="#FFA8A8" stroke="#FFA8A8" stroke-width="0.0461725" stroke-miterlimit="10" stroke-linejoin="round"/>
        <path fill-rule="evenodd" clip-rule="evenodd" d="M30.6848 4.65483L29.6306 5.05233L28.4979 5.29102L28.6179 5.07253L30.6848 4.65483ZM32.2744 4.31517L32.1747 4.53549L30.9433 4.79253L31.043 4.57497L32.2744 4.31517Z" fill="#FF9898" stroke="#FF9898" stroke-width="0.0461725" stroke-miterlimit="10" stroke-linejoin="round"/>
        <path fill-rule="evenodd" clip-rule="evenodd" d="M29.6306 5.05222L28.5764 5.46992L28.3779 5.51123L28.4979 5.29091L29.6306 5.05222ZM32.1747 4.53538L32.0557 4.73275L30.8233 4.99255L30.9433 4.79243L32.1747 4.53538Z" fill="#FF8C8C" stroke="#FF8C8C" stroke-width="0.0461725" stroke-miterlimit="10" stroke-linejoin="round"/>
        <path fill-rule="evenodd" clip-rule="evenodd" d="M28.5764 5.46997L28.3594 5.55029L28.3779 5.51128L28.5764 5.46997ZM32.0556 4.7328L31.9375 4.95313L30.7245 5.21292L30.8233 4.9926L32.0556 4.7328Z" fill="#FF8080" stroke="#FF8080" stroke-width="0.0461725" stroke-miterlimit="10" stroke-linejoin="round"/>
        <path fill-rule="evenodd" clip-rule="evenodd" d="M31.9375 4.95308L31.8387 5.17157L30.6045 5.43091L30.7245 5.21288L31.9375 4.95308Z" fill="#FF7070" stroke="#FF7070" stroke-width="0.0461725" stroke-miterlimit="10" stroke-linejoin="round"/>
        <path fill-rule="evenodd" clip-rule="evenodd" d="M31.8387 5.17161L31.7187 5.37128L30.4863 5.63062L30.6045 5.43095L31.8387 5.17161Z" fill="#FF6464" stroke="#FF6464" stroke-width="0.0461725" stroke-miterlimit="10" stroke-linejoin="round"/>
        <path fill-rule="evenodd" clip-rule="evenodd" d="M31.7187 5.37127L31.5987 5.58929L30.3848 5.84863L30.4863 5.6306L31.7187 5.37127Z" fill="#FF5454" stroke="#FF5454" stroke-width="0.0461725" stroke-miterlimit="10" stroke-linejoin="round"/>
        <path fill-rule="evenodd" clip-rule="evenodd" d="M31.5987 5.58928L31.499 5.80961L30.2676 6.06665L30.3848 5.84862L31.5987 5.58928Z" fill="#FF4848" stroke="#FF4848" stroke-width="0.0461725" stroke-miterlimit="10" stroke-linejoin="round"/>
        <path fill-rule="evenodd" clip-rule="evenodd" d="M31.499 5.80965L31.379 6.00702L30.1475 6.26636L30.2675 6.06669L31.499 5.80965Z" fill="#FF3838" stroke="#FF3838" stroke-width="0.0461725" stroke-miterlimit="10" stroke-linejoin="round"/>
        <path fill-rule="evenodd" clip-rule="evenodd" d="M31.379 6.00691L31.2802 6.22723L30.0488 6.48657L30.1475 6.26625L31.379 6.00691Z" fill="#FF2C2C" stroke="#FF2C2C" stroke-width="0.0461725" stroke-miterlimit="10" stroke-linejoin="round"/>
        <path fill-rule="evenodd" clip-rule="evenodd" d="M31.2802 6.22722L31.1621 6.44525L29.9288 6.70459L30.0488 6.48656L31.2802 6.22722Z" fill="#FF1C1C" stroke="#FF1C1C" stroke-width="0.0461725" stroke-miterlimit="10" stroke-linejoin="round"/>
        <path fill-rule="evenodd" clip-rule="evenodd" d="M31.1621 6.44529L31.043 6.64496L29.8291 6.9043L29.9288 6.70463L31.1621 6.44529Z" fill="#FF1010" stroke="#FF1010" stroke-width="0.0461725" stroke-miterlimit="10" stroke-linejoin="round"/>
        <path fill-rule="evenodd" clip-rule="evenodd" d="M31.043 6.64495L30.9433 6.86298L29.7119 7.12231L29.8291 6.90429L31.043 6.64495Z" fill="#FF0000" stroke="#FF0000" stroke-width="0.0461725" stroke-miterlimit="10" stroke-linejoin="round"/>
        <path fill-rule="evenodd" clip-rule="evenodd" d="M30.9433 6.86297L30.8232 7.08329L29.5918 7.34033L29.7118 7.1223L30.9433 6.86297ZM32.6529 6.68395L32.6316 6.70461L32.5716 6.72526L32.6529 6.68395Z" fill="#FF0C0C" stroke="#FF0C0C" stroke-width="0.0461725" stroke-miterlimit="10" stroke-linejoin="round"/>
        <path fill-rule="evenodd" clip-rule="evenodd" d="M30.8233 7.08333L30.7245 7.283L29.4921 7.54004L29.5918 7.34037L30.8233 7.08333ZM32.6317 6.70465L32.5117 6.92268L31.499 7.12234L32.5717 6.7253L32.6317 6.70465Z" fill="#FF1818" stroke="#FF1818" stroke-width="0.0461725" stroke-miterlimit="10" stroke-linejoin="round"/>
        <path fill-rule="evenodd" clip-rule="evenodd" d="M32.5117 6.92281L32.3732 7.14313L29.3721 7.7605L29.4921 7.54017L30.7245 7.28313L30.6248 7.46214L31.499 7.12248L32.5117 6.92281Z" fill="#FF2828" stroke="#FF2828" stroke-width="0.0461725" stroke-miterlimit="10" stroke-linejoin="round"/>
        <path fill-rule="evenodd" clip-rule="evenodd" d="M32.3732 7.14312L32.2532 7.36115L29.2733 7.97852L29.3721 7.76049L32.3732 7.14312Z" fill="#FF3434" stroke="#FF3434" stroke-width="0.0461725" stroke-miterlimit="10" stroke-linejoin="round"/>
        <path fill-rule="evenodd" clip-rule="evenodd" d="M32.2532 7.36119L32.1147 7.56086L29.1533 8.17822L29.2733 7.97856L32.2532 7.36119Z" fill="#FF4444" stroke="#FF4444" stroke-width="0.0461725" stroke-miterlimit="10" stroke-linejoin="round"/>
        <path fill-rule="evenodd" clip-rule="evenodd" d="M32.1148 7.56085L31.9957 7.77888L29.0361 8.39624L29.1534 8.17821L32.1148 7.56085Z" fill="#FF5050" stroke="#FF5050" stroke-width="0.0461725" stroke-miterlimit="10" stroke-linejoin="round"/>
        <path fill-rule="evenodd" clip-rule="evenodd" d="M31.9957 7.77877L31.8572 7.99909L28.9346 8.61646L29.0361 8.39613L31.9957 7.77877Z" fill="#FF6060" stroke="#FF6060" stroke-width="0.0461725" stroke-miterlimit="10" stroke-linejoin="round"/>
        <path fill-rule="evenodd" clip-rule="evenodd" d="M31.8572 7.99898L31.7372 8.21701L28.8164 8.81372L28.9346 8.61635L31.8572 7.99898Z" fill="#FF6C6C" stroke="#FF6C6C" stroke-width="0.0461725" stroke-miterlimit="10" stroke-linejoin="round"/>
        <path fill-rule="evenodd" clip-rule="evenodd" d="M31.7372 8.21715L31.5987 8.43518L28.7177 9.03418L28.8164 8.81386L31.7372 8.21715Z" fill="#FF7C7C" stroke="#FF7C7C" stroke-width="0.0461725" stroke-miterlimit="10" stroke-linejoin="round"/>
        <path fill-rule="evenodd" clip-rule="evenodd" d="M31.5987 8.43516L31.4787 8.65549L30.5648 8.8345L30.6045 8.75417L30.1475 8.91483L28.5976 9.2522L28.7176 9.03417L31.5987 8.43516Z" fill="#FF8888" stroke="#FF8888" stroke-width="0.0461725" stroke-miterlimit="10" stroke-linejoin="round"/>
        <path fill-rule="evenodd" clip-rule="evenodd" d="M30.1475 8.91487L29.0933 9.33256L28.4776 9.4519L28.5976 9.25224L30.1475 8.91487ZM31.4787 8.65553L31.3402 8.87355L30.466 9.05257L30.5648 8.83454L31.4787 8.65553Z" fill="#FF9494" stroke="#FF9494" stroke-width="0.0461725" stroke-miterlimit="10" stroke-linejoin="round"/>
        <path fill-rule="evenodd" clip-rule="evenodd" d="M29.0933 9.33256L28.4176 9.5896L28.4776 9.4519L29.0933 9.33256ZM31.3402 8.87355L31.2017 9.07322L30.3848 9.25223L30.466 9.05256L31.3402 8.87355Z" fill="#FFA4A4" stroke="#FFA4A4" stroke-width="0.0461725" stroke-miterlimit="10" stroke-linejoin="round"/>
        <path fill-rule="evenodd" clip-rule="evenodd" d="M31.2018 9.07317L31.0817 9.2912L30.286 9.47021L30.3848 9.25219L31.2018 9.07317Z" fill="#FFB0B0" stroke="#FFB0B0" stroke-width="0.0461725" stroke-miterlimit="10" stroke-linejoin="round"/>
        <path fill-rule="evenodd" clip-rule="evenodd" d="M31.0818 9.29124L30.9433 9.51156L30.1873 9.66992L30.286 9.47025L31.0818 9.29124Z" fill="#FFC0C0" stroke="#FFC0C0" stroke-width="0.0461725" stroke-miterlimit="10" stroke-linejoin="round"/>
        <path fill-rule="evenodd" clip-rule="evenodd" d="M30.9433 9.5116L30.8233 9.72963L30.1088 9.86963L30.1872 9.66996L30.9433 9.5116Z" fill="#FFCCCC" stroke="#FFCCCC" stroke-width="0.0461725" stroke-miterlimit="10" stroke-linejoin="round"/>
        <path fill-rule="evenodd" clip-rule="evenodd" d="M30.8233 9.72962L30.6848 9.94994L30.0091 10.0876L30.1088 9.86962L30.8233 9.72962Z" fill="#FFDCDC" stroke="#FFDCDC" stroke-width="0.0461725" stroke-miterlimit="10" stroke-linejoin="round"/>
        <path fill-rule="evenodd" clip-rule="evenodd" d="M30.6848 9.94998L30.5648 10.168L29.9288 10.2874L30.0091 10.0877L30.6848 9.94998Z" fill="#FFE8E8" stroke="#FFE8E8" stroke-width="0.0461725" stroke-miterlimit="10" stroke-linejoin="round"/>
        <path fill-rule="evenodd" clip-rule="evenodd" d="M30.5648 10.168L30.4264 10.386L29.8291 10.5054L29.9288 10.2873L30.5648 10.168Z" fill="#FFF8F8" stroke="#FFF8F8" stroke-width="0.0461725" stroke-miterlimit="10" stroke-linejoin="round"/>
        <path fill-rule="evenodd" clip-rule="evenodd" d="M30.4263 10.3858L30.3063 10.5855L29.7506 10.7048L29.8291 10.5052L30.4263 10.3858Z" fill="#FFFCFC" stroke="#FFFCFC" stroke-width="0.0461725" stroke-miterlimit="10" stroke-linejoin="round"/>
        <path fill-rule="evenodd" clip-rule="evenodd" d="M30.3063 10.5856L30.1688 10.8037L29.6519 10.9253L29.7506 10.705L30.3063 10.5856Z" fill="#FFF0F0" stroke="#FFF0F0" stroke-width="0.0461725" stroke-miterlimit="10" stroke-linejoin="round"/>
        <path fill-rule="evenodd" clip-rule="evenodd" d="M30.1688 10.8035L30.0276 11.0239L29.5706 11.1226L29.6519 10.9252L30.1688 10.8035Z" fill="#FFE0E0" stroke="#FFE0E0" stroke-width="0.0461725" stroke-miterlimit="10" stroke-linejoin="round"/>
        <path fill-rule="evenodd" clip-rule="evenodd" d="M30.0275 11.024L29.9103 11.242L29.4718 11.343L29.5706 11.1227L30.0275 11.024Z" fill="#FFD4D4" stroke="#FFD4D4" stroke-width="0.0461725" stroke-miterlimit="10" stroke-linejoin="round"/>
        <path fill-rule="evenodd" clip-rule="evenodd" d="M29.9103 11.2419L29.7691 11.4623L29.3721 11.5403L29.4718 11.3429L29.9103 11.2419Z" fill="#FFC4C4" stroke="#FFC4C4" stroke-width="0.0461725" stroke-miterlimit="10" stroke-linejoin="round"/>
        <path fill-rule="evenodd" clip-rule="evenodd" d="M29.7691 11.4623L29.6518 11.6803L29.2936 11.74L29.3721 11.5403L29.7691 11.4623Z" fill="#FFB8B8" stroke="#FFB8B8" stroke-width="0.0461725" stroke-miterlimit="10" stroke-linejoin="round"/>
        <path fill-rule="evenodd" clip-rule="evenodd" d="M29.6518 11.6805L29.5106 11.8985L29.1931 11.9604L29.2937 11.7401L29.6518 11.6805Z" fill="#FFA8A8" stroke="#FFA8A8" stroke-width="0.0461725" stroke-miterlimit="10" stroke-linejoin="round"/>
        <path fill-rule="evenodd" clip-rule="evenodd" d="M29.5106 11.8984L29.3933 12.098L29.1146 12.1577L29.193 11.9603L29.5106 11.8984Z" fill="#FF9C9C" stroke="#FF9C9C" stroke-width="0.0461725" stroke-miterlimit="10" stroke-linejoin="round"/>
        <path fill-rule="evenodd" clip-rule="evenodd" d="M29.3934 12.0979L29.2531 12.3183L29.0149 12.3779L29.1146 12.1576L29.3934 12.0979Z" fill="#FF8C8C" stroke="#FF8C8C" stroke-width="0.0461725" stroke-miterlimit="10" stroke-linejoin="round"/>
        <path fill-rule="evenodd" clip-rule="evenodd" d="M29.253 12.3184L29.1349 12.5364L28.9346 12.5754L29.0149 12.3781L29.253 12.3184Z" fill="#FF8080" stroke="#FF8080" stroke-width="0.0461725" stroke-miterlimit="10" stroke-linejoin="round"/>
        <path fill-rule="evenodd" clip-rule="evenodd" d="M29.1349 12.5363L28.9945 12.7543L28.8348 12.7957L28.9345 12.5753L29.1349 12.5363Z" fill="#FF7474" stroke="#FF7474" stroke-width="0.0461725" stroke-miterlimit="10" stroke-linejoin="round"/>
        <path fill-rule="evenodd" clip-rule="evenodd" d="M28.9946 12.7545L28.8764 12.9748L28.7361 12.9932L28.8349 12.7958L28.9946 12.7545Z" fill="#FF6464" stroke="#FF6464" stroke-width="0.0461725" stroke-miterlimit="10" stroke-linejoin="round"/>
        <path fill-rule="evenodd" clip-rule="evenodd" d="M28.8764 12.9747L28.7361 13.1927L28.6576 13.2134L28.7361 12.9931L28.8764 12.9747Z" fill="#FF5858" stroke="#FF5858" stroke-width="0.0461725" stroke-miterlimit="10" stroke-linejoin="round"/>
        <path fill-rule="evenodd" clip-rule="evenodd" d="M28.7361 13.1928L28.5976 13.4131H28.5579L28.6576 13.2134L28.7361 13.1928Z" fill="#FF4848" stroke="#FF4848" stroke-width="0.0461725" stroke-miterlimit="10" stroke-linejoin="round"/>
        <path fill-rule="evenodd" clip-rule="evenodd" d="M28.5976 13.4131L28.4776 13.6104V13.6311L28.5579 13.4131H28.5976Z" fill="#FF3C3C" stroke="#FF3C3C" stroke-width="0.0461725" stroke-miterlimit="10" stroke-linejoin="round"/>
        <path fill-rule="evenodd" clip-rule="evenodd" d="M28.4776 13.6105L28.4592 13.6519L28.4776 13.6312V13.6105Z" fill="#FF2C2C" stroke="#FF2C2C" stroke-width="0.0461725" stroke-miterlimit="10" stroke-linejoin="round"/>
        <path fill-rule="evenodd" clip-rule="evenodd" d="M31.103 0.535736L28.4776 5.43104L31.1805 4.39598L28.5191 9.49096L30.6848 8.67622L28.7176 13.1538L32.5329 6.78511L30.526 7.56084L32.9298 2.96388L30.5048 3.87914L31.103 0.535736ZM31.2017 0.234628L30.5648 3.79927L33.0489 2.84454L30.6248 7.46215L32.6529 6.68413L28.4591 13.6519L30.6045 8.75425L28.4176 9.58965L31.103 4.49421L28.3594 5.55039L31.2017 0.234628Z" fill="#FF0000" stroke="#FF0000" stroke-width="0.0461725" stroke-miterlimit="10" stroke-linejoin="round"/>
        <path fill-rule="evenodd" clip-rule="evenodd" d="M0.234558 3.93866H1.80537V5.49057L3.17557 3.93866H5.02551L3.2748 5.72925L5.20312 8.71509H3.33471L2.18136 6.80332L1.80537 7.20266V8.71509H0.234558V3.93866Z" fill="black" stroke="black" stroke-width="0.0461725" stroke-miterlimit="10" stroke-linejoin="round"/>
        <path fill-rule="evenodd" clip-rule="evenodd" d="M5.77979 8.71509H7.35067V3.93912H5.77979V8.71509Z" fill="black" stroke="black" stroke-width="0.0461725" stroke-miterlimit="10" stroke-linejoin="round"/>
        <path fill-rule="evenodd" clip-rule="evenodd" d="M8.3241 3.93866H9.79537L11.505 6.54628L11.445 5.45155V3.93866H12.9349V8.71509H11.4635L9.75383 6.10793L9.81384 7.20266V8.71509H8.3241V3.93866Z" fill="black" stroke="black" stroke-width="0.0461725" stroke-miterlimit="10" stroke-linejoin="round"/>
        <path fill-rule="evenodd" clip-rule="evenodd" d="M15.4006 5.05221V7.5997H15.7376L16.0773 7.58134L16.3533 7.48036L16.573 7.28299L16.7318 7.04201L16.8315 6.72529L16.8702 6.3076L16.8518 5.92892L16.7715 5.63056L16.6718 5.39188L16.513 5.23123L16.2933 5.13208L16.0357 5.07241L15.6988 5.05221H15.4006ZM13.8304 3.93866H15.936L16.4345 3.95702L16.8702 4.03781L17.269 4.17735L17.606 4.37472L17.9041 4.6134L18.1229 4.93287L18.3029 5.2909L18.4017 5.72925L18.4414 6.22727L18.4017 6.78496L18.2817 7.26233L18.1229 7.68003L17.8857 8.0174L17.5857 8.27674L17.2275 8.4764L16.8315 8.6164L16.393 8.69443L15.8973 8.71509H13.8304V3.93866Z" fill="black" stroke="black" stroke-width="0.0461725" stroke-miterlimit="10" stroke-linejoin="round"/>
        <path fill-rule="evenodd" clip-rule="evenodd" d="M19.0774 3.93866H22.9924V5.05221H20.6467V5.72925H22.6139V6.84464H20.6467V7.5997H23.0727V8.71509H19.0774V3.93866Z" fill="black" stroke="black" stroke-width="0.0461725" stroke-miterlimit="10" stroke-linejoin="round"/>
        <path fill-rule="evenodd" clip-rule="evenodd" d="M25.3565 5.05221V6.00695H25.975L26.2335 5.98859L26.4495 5.92892L26.5908 5.84859L26.6895 5.72925L26.708 5.55024L26.6895 5.37122L26.5908 5.23123L26.4707 5.13208L26.2907 5.07241L26.0738 5.05221H25.3565ZM23.7881 3.93866H26.0323L26.5908 3.95702L27.0477 4.0167L27.4253 4.11768L27.7022 4.25538L27.9219 4.45551L28.0604 4.69419L28.1407 4.97143L28.1591 5.2909L28.1407 5.60991L28.0419 5.90826L27.8822 6.14694L27.6634 6.34661L27.3662 6.46596L27.5637 6.54628L27.7419 6.62431L27.8822 6.74365L28.0004 6.88365L28.1019 7.10168L28.1591 7.38167L28.1804 7.7397V8.05871V8.29739L28.2007 8.45575L28.2404 8.55444L28.3392 8.57509V8.71509H26.7495L26.708 8.55444L26.6895 8.27674L26.6692 7.8797L26.6508 7.5997L26.6092 7.38167L26.5308 7.24168L26.372 7.12233L26.1523 7.06266L25.8338 7.04201H25.3565V8.71509H23.7881V3.93866Z" fill="black" stroke="black" stroke-width="0.0461725" stroke-miterlimit="10" stroke-linejoin="round"/>
        <path fill-rule="evenodd" clip-rule="evenodd" d="M33.3674 3.93866H35.2755L36.11 6.92267L36.9658 3.93866H38.8526V8.71509H37.4412V7.26233L37.4624 6.50497L37.5409 5.64892L36.6667 8.71509H35.5728L34.6986 5.64892H34.6801L34.7586 6.34661L34.7798 7.10168V8.71509H33.3674V3.93866Z" fill="black" stroke="black" stroke-width="0.0461725" stroke-miterlimit="10" stroke-linejoin="round"/>
        <path fill-rule="evenodd" clip-rule="evenodd" d="M42.0134 4.97157L41.7365 5.01288L41.5168 5.13222L41.3377 5.31169L41.2177 5.52972L41.1392 5.7684L41.0995 6.02774L41.0792 6.30774L41.0995 6.52576L41.118 6.76445L41.178 7.00313L41.2777 7.22116L41.3977 7.40017L41.5565 7.54017L41.7549 7.64115L42.0134 7.68017L42.2922 7.64115L42.511 7.54017L42.6707 7.38181L42.8092 7.18214L42.8876 6.92281L42.9476 6.62445L42.9679 6.30774L42.9476 6.02774L42.8876 5.75004L42.8092 5.49071L42.6707 5.29104L42.4907 5.11202L42.2719 5.01288L42.0134 4.97157ZM42.0134 3.79926L42.5507 3.83782L43.0279 3.97828L43.4249 4.17749L43.7618 4.43453L44.0406 4.73288L44.2603 5.09366L44.4191 5.47005L44.4976 5.88775L44.5363 6.30774L44.4976 6.82412L44.3794 7.28313L44.2003 7.68017L43.9621 8.03819L43.6437 8.31589L43.3049 8.55458L42.9079 8.71523L42.4694 8.81391L42.0134 8.85522L41.5352 8.81391L41.0995 8.71523L40.7007 8.55458L40.3638 8.31589L40.0665 8.01754L39.8265 7.68017L39.6484 7.26247L39.5496 6.80346L39.5081 6.28708L39.5681 5.75004L39.6881 5.27268L39.9068 4.83387L40.205 4.47584L40.5826 4.19585L41.0008 3.97828L41.478 3.83782L42.0134 3.79926Z" fill="black" stroke="black" stroke-width="0.0461725" stroke-miterlimit="10" stroke-linejoin="round"/>
        <path fill-rule="evenodd" clip-rule="evenodd" d="M46.7648 5.05221V6.00695H47.3805L47.6574 5.98859L47.8559 5.92892L48.0147 5.84859L48.0959 5.72925L48.1347 5.55024L48.0959 5.37122L48.0147 5.23123L47.8771 5.13208L47.699 5.07241L47.4986 5.05221H46.7648ZM45.1945 3.93866H47.4589L48.0147 3.95702L48.4744 4.0167L48.8316 4.11768L49.1289 4.25538L49.3273 4.45551L49.4658 4.69419L49.5471 4.97143L49.5858 5.2909L49.5471 5.60991L49.4658 5.90826L49.307 6.14694L49.0689 6.34661L48.7716 6.46596L48.9904 6.54628L49.1501 6.62431L49.307 6.74365L49.427 6.88365L49.5074 7.10168L49.5655 7.38167L49.5858 7.7397V8.05871V8.29739L49.6071 8.45575L49.6671 8.55444L49.7455 8.57509V8.71509H48.1559L48.1347 8.55444L48.0959 8.27674L48.0747 7.8797V7.5997L48.0359 7.38167L47.9371 7.24168L47.7987 7.12233L47.5586 7.06266L47.2402 7.04201H46.7648V8.71509H45.1945V3.93866Z" fill="black" stroke="black" stroke-width="0.0461725" stroke-miterlimit="10" stroke-linejoin="round"/>
        <path fill-rule="evenodd" clip-rule="evenodd" d="M52.7272 3.79926L53.1426 3.83782L53.5423 3.91861L53.8996 4.05815L54.2181 4.25552L54.495 4.4942L54.7341 4.81367L54.8938 5.17169L54.9926 5.58939H53.5026L53.4011 5.31169L53.2239 5.13222L52.9857 5.01288L52.7069 4.97157L52.4281 5.01288L52.19 5.15334L52.0099 5.35071L51.8927 5.6307L51.8115 5.98873L51.793 6.38577L51.8115 6.66576L51.8512 6.94346L51.9499 7.18214L52.07 7.38181L52.25 7.54017L52.4881 7.64115L52.8057 7.68017L53.0042 7.65951L53.2026 7.58148L53.3826 7.46214L53.5211 7.30149L53.6023 7.12247H52.9054V6.08741H55.0526V8.73588H54.0584L53.9984 8.25622L53.8184 8.43523L53.5811 8.59589L53.3023 8.73588L52.9654 8.81391L52.5481 8.85522L52.1512 8.81391L51.7524 8.73588L51.3942 8.57523L51.0757 8.37556L50.7997 8.09786L50.5597 7.76049L50.3816 7.38181L50.2615 6.90445L50.2228 6.38577L50.2615 5.82807L50.4 5.33235L50.6197 4.89354L50.8985 4.51532L51.2558 4.21696L51.6924 3.99847L52.19 3.85894L52.7272 3.79926Z" fill="black" stroke="black" stroke-width="0.0461725" stroke-miterlimit="10" stroke-linejoin="round"/>
        <path fill-rule="evenodd" clip-rule="evenodd" d="M58.0721 5.37122L57.5967 7.08332H58.589L58.0721 5.37122ZM57.2976 3.93866H58.889L60.5978 8.71509H59.0478L58.8475 8.09772H57.2976L57.1194 8.71509H55.588L57.2976 3.93866Z" fill="black" stroke="black" stroke-width="0.0461725" stroke-miterlimit="10" stroke-linejoin="round"/>
        <path fill-rule="evenodd" clip-rule="evenodd" d="M61.1332 3.93866H62.6046L64.3143 6.54628L64.2543 5.45155V3.93866H65.7654V8.71509H64.293L62.5843 6.10793L62.6443 7.20266V8.71509H61.1332V3.93866Z" fill="black" stroke="black" stroke-width="0.0461725" stroke-miterlimit="10" stroke-linejoin="round"/>
        <path fill-rule="evenodd" clip-rule="evenodd" d="M61.2919 11.0837H61.6103V9.49099H61.2919V11.0837Z" fill="black" stroke="black" stroke-width="0.0461725" stroke-miterlimit="10" stroke-linejoin="round"/>
        <path fill-rule="evenodd" clip-rule="evenodd" d="M62.0286 9.49099H62.3462L63.0016 10.5651V9.49099H63.3016V11.0837H62.9831L62.3259 10.028V11.0837H62.0286V9.49099Z" fill="black" stroke="black" stroke-width="0.0461725" stroke-miterlimit="10" stroke-linejoin="round"/>
        <path fill-rule="evenodd" clip-rule="evenodd" d="M64.4343 9.47018L64.6927 9.51149L64.9115 9.63084L64.9688 9.71116L65.0288 9.80985L65.0685 9.92919L64.7527 10.0095L64.7315 9.92919L64.6927 9.86952L64.6327 9.80985L64.5727 9.77083L64.4943 9.75018L64.413 9.72952L64.3346 9.75018L64.2543 9.77083L64.1943 9.80985L64.1343 9.86952L64.0346 10.0279L64.0161 10.2666L64.0346 10.5259L64.1343 10.7049L64.1758 10.7646L64.2543 10.8036L64.3346 10.8243H64.413H64.4943L64.5727 10.8036L64.6327 10.7439L64.6927 10.6843L64.7315 10.6062L64.7527 10.5052L65.0685 10.5856L64.9688 10.8243L64.8312 10.9849L64.6512 11.0836L64.413 11.1042L64.2146 11.0836L64.0346 11.0033L63.897 10.8839L63.777 10.7256L63.7188 10.5259L63.6773 10.3079L63.7188 10.0485L63.777 9.84886L63.897 9.69051L64.0346 9.57116L64.2146 9.49084L64.4343 9.47018Z" fill="black" stroke="black" stroke-width="0.0461725" stroke-miterlimit="10" stroke-linejoin="round"/>
        <path fill-rule="evenodd" clip-rule="evenodd" d="M65.447 11.0837H65.7653V10.7854H65.447V11.0837Z" fill="black" stroke="black" stroke-width="0.0461725" stroke-miterlimit="10" stroke-linejoin="round"/>
    </g>
    <defs>
        <clipPath id="clip0_723_473">
            <rect width="66" height="14.6034" fill="white"/>
        </clipPath>
    </defs>
</svg>
