<svg width="486" height="159" viewBox="0 0 486 159" fill="none" xmlns="http://www.w3.org/2000/svg">
    <g clip-path="url(#clip0)">
        <path d="M186.629 138.672C168.545 127.039 144.003 124.997 104.423 135.964C62.2276 145.866 48.1591 152.214 29.6832 139.471C22.5852 133.211 20.0403 123.132 21.9406 108.614C26.348 84.9475 38.2587 62.1719 59.4155 36.9084C71.224 23.7663 82.1785 12.4881 96.6424 7.95917C107.728 5.11806 106.692 13.8185 105.35 15.0628C103.935 15.0628 101.557 15.2855 99.7194 16.4831C98.228 17.6382 94.1341 21.3681 93.9142 26.3854C93.597 34.066 101.556 32.4674 104.989 28.2504C108.689 23.4982 114.158 14.3979 109.856 5.91646C108.053 2.89759 104.938 0.811203 101.07 0.100775C87.8252 -0.655155 75.4905 5.65012 64.106 12.6209C39.2094 29.8926 19.2937 53.8252 8.02461 80.0218C1.528 95.8278 -4.34774 118.469 4.45919 136.897C11.2729 149.684 25.4173 156.476 42.2931 155.055C54.129 153.814 68.4411 149.993 78.0669 147.687C87.6934 145.376 136.966 128.461 153.156 157.901C153.156 157.901 158.54 147.464 171.994 147.241C183.056 146.222 199.013 150.439 210.634 158.962C206.762 153.148 195.786 144.579 186.629 138.672Z" fill="#E61A27"/>
        <path d="M109.446 39.8831C100.23 33.8448 81.7075 45.3888 66.8718 65.1904C53.3051 82.9523 47.447 103.596 53.8227 113.142C63.3057 124.375 80.9117 108.036 88.3985 99.2909L89.3645 98.2686C94.4559 92.8073 98.3889 86.2356 102.197 79.9298C102.197 79.9298 105.696 74.1578 105.863 73.8908C108.026 73.4928 110.631 72.871 113.566 72.0271C113.524 72.1593 102.335 90.9411 103.477 100.263C103.832 103.108 103.561 113.497 113.718 116.649C127.255 118.915 138.065 108.435 147.602 99.1107C147.602 99.1107 149.227 97.5582 150.146 96.6718C149.913 97.6013 149.61 98.8419 149.61 98.8419C145.647 112.606 150.989 115.495 154.331 116.56C164.431 119.493 176.496 104.84 176.536 104.84C176.222 109.455 175.308 113.273 180.18 116.338C184.778 117.982 189.432 115.475 192.971 113.121C205.713 104.153 215.978 90.116 224.27 77.9829H218.981C218.918 77.9829 205.93 96.7829 197.496 100.869C197.483 100.869 195.948 101.656 195.064 101.033C193.969 100.101 194.401 98.1612 195.077 96.7877C195.119 96.6985 227.641 40.3685 227.641 40.3685H212.286C212.286 40.3685 210.609 43.0785 210.472 43.2563C210.369 43.1677 210.123 42.7018 209.953 42.4785C200.439 29.3365 178.895 49.5512 162.676 72.9935C156.431 82.0077 148.481 92.1569 140.237 99.4826C140.237 99.4826 128.024 110.663 122.806 102.63C120.899 99.2551 121.485 94.3209 122.561 91.0806C128.637 73.8083 139.106 58.1334 151.02 48.6758C154.382 46.0579 158.038 45.3008 159.851 46.411C161.58 47.4339 161.859 49.9626 160.766 51.6946C157.991 51.6061 155.768 52.4482 153.961 54.3131C150.401 58.043 149.164 61.64 150.296 65.015C155.795 72.8291 166.761 57.3775 166.23 47.9648C166.041 44.5898 164.238 41.3937 161.547 39.8382C157.537 37.4418 151.419 38.0624 147.46 39.9729C142.16 41.9701 133.771 48.9403 128.874 54.358C122.709 61.1523 112.135 68.6994 108.829 67.8543C109.91 64.9677 118.841 46.7198 109.446 39.8831ZM183.477 66.8782C186.464 62.7497 195.158 51.6934 197.277 49.8291C204.406 43.5663 207.255 46.3218 207.501 48.2742C200.849 60.1731 192.997 73.8047 185.614 86.0597C185.63 86.016 183.304 89.5669 183.304 89.5669C180.044 94.5381 176.761 98.8013 171.405 101.775C170.642 101.999 169.383 102.088 168.545 101.464C167.537 100.798 167.139 99.6877 167.253 98.5331C167.574 94.7159 171.466 83.0408 183.477 66.8782ZM99.9422 74.0261C99.9422 74.0261 99.808 74.4271 99.7424 74.5582C99.7254 74.5582 93.0471 85.4348 93.0471 85.4348C89.017 90.8082 83.985 97.5588 77.695 100.799C75.8306 101.42 73.2529 101.821 71.9395 100.179C69.1554 96.8484 70.5903 92.2303 71.7561 88.5016L72.1692 87.1693C75.5116 78.1127 80.8145 70.1191 85.977 62.7042C86.0414 62.6605 86.186 62.6162 86.2383 62.6162C86.251 62.6605 86.2717 62.6605 86.2802 62.7497C89.5194 68.9645 95.5931 71.8493 100.135 73.1834C100.163 73.1834 100.193 73.2277 100.193 73.3169C100.193 73.4492 100.119 73.6281 99.9422 74.0261ZM106.269 61.1959C106.239 61.2845 103.294 68.0333 103.294 68.0333C102.869 68.3882 102.195 68.211 101.424 68.0333L100.102 67.81C95.951 66.5232 92.8199 63.7701 91.8546 60.4849C90.5236 54.0911 95.9929 49.0738 98.4022 47.2543C100.714 45.6545 104.309 44.8112 106.396 46.4547C107.684 47.9648 108.171 49.9177 108.171 52.0502C108.172 54.935 107.28 58.1759 106.269 61.1959ZM300.389 81.7959C298.908 78.5999 295.394 76.5572 291.648 76.7786C279.484 77.8895 267.586 87.8792 261.339 102.219C258.061 109.591 256.271 115.673 255.098 125.352C258.881 121.002 266.596 113.854 275.352 109.946C275.352 109.946 276.543 100.667 282.618 92.4081C284.917 88.9882 289.517 83.4831 294.682 84.9476C299.196 86.4577 297.609 98.9348 291.611 111.009C287.173 119.89 280.381 128.773 273.509 134.898C267.433 140.049 258.444 146.265 250.579 141.47C245.626 138.541 243.099 132.412 243.632 124.509C245.999 102.088 256.22 82.9953 270.845 61.2396C285.926 41.0376 302.55 20.303 324.944 9.24552C329.512 6.93708 333.742 6.40441 337.398 7.82527C337.398 7.82527 316.376 19.3693 306.356 40.7264C303.806 46.1441 300.261 53.468 303.831 59.951C305.697 63.3248 309.009 63.5917 311.677 63.414C323.96 60.5717 331.895 49.1168 338.379 38.6394C342.138 30.6918 345.48 22.7885 345.48 13.9971C345.48 12.9317 345.424 11.5115 345.335 10.4449C351.202 7.3381 363.236 12.8426 363.236 12.8426C372.64 15.9518 392.662 31.2706 399.417 34.1997C402.711 30.3818 408.125 24.6104 411.174 21.7238L406.761 19.015C399.695 14.7081 392.227 10.6227 384.877 6.58278C368.184 -2.5181 354.595 0.677913 347.68 3.16471C344.962 4.14087 342.479 4.98477 342.479 4.98477C337.347 -0.609472 328.929 -0.0780162 322.727 1.43263C300.423 7.82587 279.715 23.4098 257.514 50.4503C241.192 71.6297 231.067 89.9231 225.671 107.993C221.511 120.158 220.247 138.051 230.4 148.664C239.032 157.675 250.478 155.722 258.56 152.483C276.072 143.869 291.812 125.309 299.655 103.951C301.548 97.6031 303.648 88.6345 300.389 81.7959ZM340.659 14.8859C338.34 41.4374 317.674 57.0232 312.56 58.2644C309.461 58.8851 304.173 57.5097 308.894 46.3667C315.845 31.358 327.714 18.6164 340.447 12.089C340.758 13.1993 340.749 13.9079 340.659 14.8859ZM463.251 18.259C452.134 24.5649 440.61 28.6485 426.661 27.2283C422.795 31.5806 419.03 36.0646 415.561 40.6815C435.14 45.6545 455.896 34.5989 467.473 24.0771C479.72 13.465 485.999 0.101562 485.999 0.101562C485.999 0.101562 476.819 10.579 463.251 18.259ZM253.162 40.3697H238.579L230.354 53.7167H244.933L253.162 40.3697Z" fill="#E61A27"/>
        <path d="M426.604 139.905C425.036 140.971 422.833 140.152 423.657 137.71C425.709 131.494 433.865 118.827 433.865 118.827L456.583 78.5876H441.022C440.282 79.801 438.701 82.5869 438.701 82.5869C437.981 81.3893 435.828 78.7265 434.941 78.1508C431.14 75.7514 425.562 76.8859 421.714 79.0608C404.984 88.8303 392.778 108.132 383.151 123.184C383.151 123.184 373.017 139.917 367.392 141.161C363.001 141.517 363.454 135.609 363.644 134.232C365.342 124.285 369.285 114.829 373.258 106.259C381.339 100.665 390.56 93.3392 398.94 85.303C417.128 67.9409 432.46 48.2716 434.701 43.8761C434.701 43.8761 432.276 44.3651 429.411 44.4531C415.419 63.9447 386.787 92.2732 378.106 96.4903C381.952 87.2529 406.797 43.1651 427.939 22.0755L431.267 18.8777C436.412 13.8604 441.742 8.71025 445.896 7.86635C446.335 7.82206 446.9 7.86635 447.387 8.88922C447.573 12.7957 446.116 15.6823 444.446 18.9675L442.104 23.7633C442.104 23.7633 445.421 23.1415 447.599 22.4292C450.126 17.6807 452.925 12.351 451.893 6.00322C451.549 3.96051 450.068 2.40679 448.133 2.05128C441.826 0.852466 434.953 5.51302 429.422 9.28842L429.199 9.42068C400.767 31.6654 376.759 63.7226 355.768 107.502C354.247 108.654 348.37 110.032 347.371 109.365C349.444 105.104 352.054 99.3751 353.359 93.159C353.585 91.382 353.795 89.5632 353.795 87.7874C353.795 83.9659 352.877 80.3707 349.449 77.8857C345.43 75.8873 340.462 76.8203 337.113 78.3286C322.109 84.5447 310.895 99.9084 302.803 112.561C298.451 120.599 294.111 129.209 292.91 139.067C292.064 146.792 293.786 151.765 298.185 154.252C302.707 156.559 308.399 154.161 310.635 153.008C325.836 145.015 336.457 128.988 344.828 114.335C345.161 114.292 349.732 114.159 353.19 113.27C353.235 113.27 353.255 113.27 353.331 113.316C353.133 113.98 351.346 119.31 351.346 119.31C346.04 134.848 343.587 145.416 348.599 151.676C355.76 160.512 367.618 151.367 377.263 139.288C375.193 153.761 382.704 156.027 388.43 154.918C395.007 153.143 402.337 146.126 405.738 142.531C404.646 146.748 404.943 154.298 410.926 155.051C415.027 155.808 418.097 153.581 421.648 151.671C434.386 144.744 449.635 121.661 453.594 114.988H448.403C442.775 123.483 435.613 134.619 426.604 139.905ZM312.262 138.359C311.454 137.16 311.186 135.85 311.159 134.432C311.004 125.726 320.384 110.135 327.004 101.642H327.018C329.792 107.709 336.074 111.608 339.867 113.252C335.157 123.731 319.002 146.174 312.262 138.359ZM342.526 108.567C342.078 108.88 334.155 106.214 332.624 98.8885C331.325 92.5814 335.674 87.6533 339.882 85.1695C341.688 83.7475 344.408 83.2609 346.404 83.9683C348.256 85.2138 348.758 87.4355 348.758 89.8289C348.758 91.2971 348.563 92.8053 348.391 94.1812L348.353 94.4931C347.026 99.4156 345.068 104.146 342.526 108.567ZM406.069 135.563C406.062 135.563 404.565 136.894 404.565 136.894C402.428 138.803 400.229 140.845 397.574 139.823C396.841 139.558 396.325 138.581 396.201 137.824C396.08 132.363 398.542 127.303 400.931 122.375L401.544 121.087C408.413 109.632 416.398 96.1342 428.125 86.7669C430.102 85.3431 432.246 84.1467 434.51 85.0798C435.03 85.5675 435.636 86.4114 435.636 87.2541C435.636 87.5217 435.398 88.2315 435.262 88.4529C431.986 93.739 428.867 99.2877 425.834 104.616C419.906 115.139 413.756 126.015 406.069 135.563Z" fill="#E61A27"/>
    </g>
    <defs>
        <clipPath id="clip0">
            <rect width="486" height="159" fill="white"/>
        </clipPath>
    </defs>
</svg>
