<svg width="40" height="36" viewBox="0 0 40 36" fill="none" xmlns="http://www.w3.org/2000/svg">
    <g clip-path="url(#clip0_722_387)">
        <path fill-rule="evenodd" clip-rule="evenodd" d="M39.779 36V0H0V36H39.779Z" fill="#FAB617"/>
        <path d="M33.3018 4.94946H24.7041C23.9325 4.94946 23.4089 5.30921 22.7751 5.86267L8.47329 18.0388C8.39062 18.1219 8.39062 18.1772 8.39062 18.2879C8.39062 18.3709 8.41818 18.4539 8.47329 18.5369L23.1609 30.8791C23.5743 31.2112 24.1254 31.4326 24.7041 31.4326H33.2742C34.3489 31.4326 35.2032 30.5747 35.2032 29.4955V6.91425C35.2032 5.86267 34.3489 4.94946 33.3018 4.94946Z" fill="#E30613"/>
        <path d="M7.86704 19.2565C7.7017 19.0074 7.42613 18.6476 7.42613 18.2879C7.42613 18.0112 7.5088 17.7344 7.64659 17.513L15.9687 5.94569C16.0513 5.86267 16.0513 5.72431 16.0513 5.58594C16.0513 5.22619 15.7758 4.94946 15.4175 4.94946H6.79233C5.74518 4.94946 4.89093 5.86267 4.89093 6.91425V29.4955C4.89093 30.5747 5.74518 31.4326 6.79233 31.4326C6.79233 31.4326 15.2798 31.4326 15.4175 31.4326C15.7758 31.4326 16.0513 31.1559 16.0513 30.7961C16.0513 30.6578 15.9962 30.5194 15.9411 30.381L7.86704 19.2565Z" fill="#E30613"/>
        <path d="M30.7939 11.812C29.609 11.812 28.9479 12.3939 28.9479 13.4454C28.9479 14.5247 29.609 15.1609 30.7939 15.1609C31.9789 15.1609 32.6399 14.5524 32.6399 13.4454C32.6399 12.3939 31.9789 11.812 30.7939 11.812ZM30.7939 12.5877C31.4277 12.5877 31.7312 12.8643 31.7312 13.4454C31.7312 14.1096 31.4277 14.3865 30.7939 14.3865C30.1601 14.3865 29.8842 14.0819 29.8566 13.4454C29.8566 12.8366 30.1601 12.5877 30.7939 12.5877Z" fill="#FAB617"/>
        <path d="M29.1406 16.5444V19.8101H30.9593C32.0064 19.8101 32.5579 19.2562 32.5579 18.1493C32.5579 17.07 32.0615 16.5444 30.9593 16.5444H29.1406ZM30.0506 17.3475H30.9593C31.4277 17.3475 31.6479 17.5681 31.6479 18.1493C31.6479 18.7304 31.4277 19.0356 30.9593 19.0356H30.0506V17.3475Z" fill="#FAB617"/>
        <path d="M29.1407 7.21875H30.0501V8.54706L31.3728 7.21875H32.6404L31.0146 8.82379L32.7231 10.4288H31.4279L30.0777 9.10052V10.4288H29.1407V7.21875Z" fill="#FAB617"/>
        <path d="M31.3728 29.1634L30.0226 27.8351V29.1634H29.1407V25.9534H30.0501V27.2817L31.3728 25.9534H32.5853L31.0146 27.5584L32.7231 29.1634H31.3728Z" fill="#FAB617"/>
        <path d="M30.2706 21.2209L28.8932 24.4865H29.8566L30.0779 23.9333H31.5386L31.7586 24.4865H32.7506L31.3732 21.2209H30.2706ZM30.7939 22.0787L31.2626 23.2136H30.3526L30.7939 22.0787Z" fill="#FAB617"/>
    </g>
    <defs>
        <clipPath id="clip0_722_387">
            <rect width="39.779" height="36" fill="white"/>
        </clipPath>
    </defs>
</svg>
