<svg width="72" height="40" viewBox="0 0 72 40" fill="none" xmlns="http://www.w3.org/2000/svg">
    <g clip-path="url(#clip0_38_437)">
        <path d="M19.3411 16.697V14.8201H15.9497V26.3288H19.4242V19.9509C20.0196 18.6184 21.0242 17.9519 22.4379 17.9515C22.8504 17.9495 23.2619 17.9906 23.666 18.074V14.7691C23.3679 14.6604 23.0058 14.606 22.5798 14.606C21.4015 14.606 20.3219 15.303 19.3411 16.697Z" fill="#134B97"/>
        <path d="M34.7792 24.8096C35.899 23.6645 36.4589 22.2483 36.4589 20.5611C36.4589 18.8881 35.899 17.4769 34.7792 16.3275C33.6594 15.1782 32.269 14.6035 30.6081 14.6035C28.9472 14.6035 27.5587 15.1809 26.4427 16.3356C25.3266 17.4902 24.7684 18.8988 24.7681 20.5611C24.7681 22.2235 25.3263 23.6336 26.4427 24.7913C27.5591 25.9491 28.9475 26.5281 30.6081 26.5285C32.269 26.53 33.6594 25.9571 34.7792 24.8096ZM28.7717 22.5491C28.2948 22.0094 28.0563 21.3475 28.0563 20.5634C28.0563 19.7928 28.2948 19.136 28.7717 18.5932C29.2487 18.0504 29.861 17.7788 30.6087 17.7784C31.356 17.7784 31.97 18.05 32.4507 18.5932C32.9315 19.1364 33.1716 19.7931 33.1713 20.5634C33.1713 21.341 32.9311 22.0012 32.4507 22.544C31.9704 23.0868 31.3563 23.3582 30.6087 23.3582C29.861 23.3582 29.2487 23.0885 28.7717 22.5491Z" fill="#134B97"/>
        <path d="M56.7125 14.606C55.1025 14.606 53.7392 15.1705 52.6228 16.2996C51.5064 17.4287 50.9482 18.8501 50.9482 20.5636C50.9482 22.3195 51.4827 23.7526 52.5516 24.863C53.6206 25.9735 55.021 26.5294 56.753 26.5309C57.9164 26.5309 58.911 26.3126 59.7365 25.8759C60.5952 25.413 61.365 24.7999 62.0097 24.0654L59.4933 22.6506C58.8439 23.2461 57.9983 23.5438 56.9563 23.5438C55.4613 23.5438 54.5819 22.8774 54.318 21.5444H62.1931C62.1949 21.4506 62.2018 21.3569 62.2136 21.2638C62.2269 21.1451 62.237 21.0363 62.2438 20.9375C62.2507 20.839 62.2541 20.756 62.2541 20.6878C62.2541 19.0014 61.7365 17.5665 60.7014 16.3832C59.6662 15.1999 58.3366 14.6075 56.7125 14.606ZM54.3584 19.4728C54.5274 18.8342 54.8148 18.3414 55.2208 17.9944C55.6148 17.6518 56.1203 17.4665 56.6413 17.474C57.1555 17.474 57.6206 17.6753 58.0368 18.078C58.453 18.4808 58.7017 18.9459 58.783 19.4734L54.3584 19.4728Z" fill="#134B97"/>
        <path d="M70.3459 14.606C69.1687 14.606 68.0897 15.3032 67.1089 16.6976V14.8201H63.7192V26.3288H67.1898V19.9509C67.7852 18.6184 68.7897 17.9519 70.2035 17.9515C70.6159 17.9495 71.0275 17.9906 71.4315 18.074V14.7691C71.1319 14.6604 70.77 14.606 70.3459 14.606Z" fill="#134B97"/>
        <path d="M12.6063 12.6487C12.6578 12.2529 12.6886 11.8546 12.6986 11.4555H12.7031C12.7031 6.95334 16.3485 3.29058 20.8255 3.29058C25.3025 3.29058 28.9479 6.95505 28.9479 11.4555H32.2213C32.2213 5.13885 27.1093 0 20.8255 0C14.6073 0 9.53961 5.03292 9.43367 11.2591H9.42797C9.42554 11.5833 9.4029 11.9071 9.36019 12.2285C9.21039 13.3977 8.77636 15.0833 7.55971 16.4729C6.60792 17.5608 5.30583 18.2972 3.67452 18.6808V11.0352H0.0012207V26.3269H3.67509V22.0424C4.7541 21.8602 5.80379 21.5328 6.79589 21.069L10.1086 26.3264H14.503L9.65524 19.0352C9.77827 18.9087 9.89959 18.7798 10.0169 18.6464C11.7798 16.6321 12.3978 14.2743 12.6063 12.6487Z" fill="#134B97"/>
        <path d="M49.4821 29.6921V14.8201H46.1739V15.7998C45.3959 15.0039 44.4116 14.606 43.2212 14.606C41.7528 14.606 40.4807 15.161 39.4049 16.271C38.3291 17.381 37.7912 18.7577 37.7912 20.401C37.7912 22.0359 38.3418 23.3986 39.4431 24.4892C40.5443 25.5797 41.8027 26.1248 43.2183 26.1244C44.3681 26.1176 45.3661 25.7992 46.2121 25.1694C46.2121 25.1923 46.2121 28.6375 46.2121 29.6927C46.1955 31.5429 45.4526 33.3117 44.1452 34.6142C42.8378 35.9166 41.0716 36.6474 39.2309 36.6474C37.3902 36.6474 35.624 35.9166 34.3166 34.6142C33.0091 33.3117 32.2663 31.5429 32.2497 29.6927H28.9768C28.9768 35.3766 33.5768 39.999 39.2295 39.999C44.7819 39.999 49.3147 35.5393 49.4764 29.9962H49.4804V29.8393C49.4804 29.7895 49.4844 29.7408 49.4844 29.691L49.4821 29.6921ZM45.4893 22.3517C45.0192 22.8732 44.4017 23.1339 43.637 23.1339C42.8859 23.1339 42.2718 22.8732 41.7949 22.3517C41.318 21.8303 41.0795 21.1814 41.0795 20.405C41.0795 19.6293 41.318 18.9804 41.7949 18.4582C42.2718 17.936 42.8859 17.6751 43.637 17.6755C44.3945 17.6755 45.0103 17.9364 45.4842 18.4582C45.9581 18.98 46.1948 19.629 46.1944 20.405C46.1948 21.181 45.9596 21.8299 45.4887 22.3517H45.4893Z" fill="#134B97"/>
        <path d="M52.0384 35.0522C52.0314 35.3828 51.8959 35.6975 51.6608 35.9288C51.4258 36.16 51.11 36.2896 50.7811 36.2896C50.4521 36.2896 50.1363 36.16 49.9013 35.9288C49.6662 35.6975 49.5307 35.3828 49.5237 35.0522C49.5237 34.3697 50.0836 33.8218 50.7848 33.8218C51.4859 33.8218 52.0384 34.3714 52.0384 35.0522ZM49.837 35.0522C49.837 35.5996 50.2402 36.0348 50.7922 36.0348C51.3293 36.0348 51.7252 35.5996 51.7252 35.0614C51.7252 34.5232 51.3299 34.0714 50.7848 34.0714C50.2397 34.0714 49.8375 34.5123 49.8375 35.0522H49.837ZM50.5905 35.6975H50.3057V34.4671C50.4608 34.4397 50.6182 34.4273 50.7757 34.4299C51.0069 34.4299 51.1117 34.4671 51.2011 34.5197C51.2398 34.553 51.2707 34.5945 51.2914 34.6413C51.3121 34.688 51.3221 34.7388 51.3207 34.79C51.3207 34.9251 51.2165 35.0299 51.0673 35.0763V35.0912C51.1863 35.1364 51.2535 35.2263 51.2911 35.3912C51.3287 35.5784 51.3481 35.6534 51.3806 35.6987H51.0747C51.0371 35.6534 51.0177 35.5412 50.9779 35.3986C50.9556 35.2635 50.881 35.2034 50.7238 35.2034H50.5894L50.5905 35.6975ZM50.5979 35.0001H50.7324C50.889 35.0001 51.0172 34.9475 51.0172 34.8203C51.0172 34.7058 50.9351 34.6325 50.7563 34.6325C50.7037 34.6313 50.6511 34.6363 50.5996 34.6474L50.5979 35.0001Z" fill="#134B97"/>
    </g>
    <defs>
        <clipPath id="clip0_38_437">
            <rect width="71.4286" height="40" fill="white"/>
        </clipPath>
    </defs>
</svg>
