<svg width="160" height="41" viewBox="0 0 160 41" fill="none" xmlns="http://www.w3.org/2000/svg">
    <g clip-path="url(#clip0_38_445)">
        <path d="M0 9.00042H11.0481V16.6408H11.1201L19.5447 9.00042H31.9304L21.7686 18.3709L33.5257 31.229H19.5447L11.1201 22.1301H11.0481V31.229H0V9.00042Z" fill="#800033"/>
        <path d="M49.4881 27.3733C54.402 27.3733 54.0775 21.7918 54.0775 19.9487C54.0775 18.1055 54.132 12.9911 49.4881 12.9911C44.8422 12.9911 44.8978 18.1055 44.8978 19.9487C44.8978 21.7918 44.5704 27.3733 49.4881 27.3733ZM49.4881 8.38232C62.0325 8.38232 65.4448 11.0606 65.4448 20.1817C65.4448 29.3038 62.0325 31.9814 49.4881 31.9814C36.9421 31.9814 33.5308 29.3038 33.5308 20.1817C33.5308 11.0606 36.9421 8.38232 49.4881 8.38232Z" fill="#800033"/>
        <path d="M89.2706 22.8816V31.3784H100.613V9.15179H89.2706V16.7912H81.1329V9.15179H69.7883V31.3784H81.1329V22.8816H89.2706Z" fill="#800033"/>
        <path d="M105.976 9.15128H117.582V26.0877C117.582 26.0877 126.845 26.1148 128.076 26.1148C129.308 26.1148 130.036 24.9901 130.036 24.9901V31.3779H105.976V9.15128Z" fill="#800033"/>
        <path d="M157.096 16.5098C154.695 14.5532 152.637 13.8955 150.424 13.8589C148.262 13.8207 146.286 14.5865 146.286 15.9267C146.286 16.9847 147.763 17.423 152.929 18.519C157.173 19.4234 160 21.6304 160 25.7394C160 30.3776 152.422 33 145.643 33C140.885 33 137.232 32.1276 133.963 30.6342V24.4091C135.983 26.5552 140.504 27.695 143.967 27.695C145.889 27.695 146.831 27.4077 146.831 25.8515C146.831 24.8883 145.634 24.01 142.006 23.3337C135.135 22.0517 132.812 20.0487 132.812 16.6242C132.812 11.7059 138.819 8.77852 146.22 8.77852C150.21 8.77852 153.874 8.90404 157.096 10.4295V16.5098Z" fill="#800033"/>
        <path d="M123.575 18.2188L124.37 16.791C121.978 15.5865 121.273 12.5222 122.488 10.7748C123.794 8.89434 127.422 8.08863 129.381 10.9993C131.049 13.4828 129.453 15.5865 128.728 16.1892C128.004 16.791 123.575 18.2188 123.575 18.2188Z" fill="#800033"/>
    </g>
    <defs>
        <clipPath id="clip0_38_445">
            <rect width="160" height="40" fill="white" transform="translate(0 0.610352)"/>
        </clipPath>
    </defs>
</svg>
