<svg width="160" height="41" viewBox="0 0 160 41" fill="none" xmlns="http://www.w3.org/2000/svg">
    <path d="M0 13H3.32372C3.32372 16.7732 3.32372 20.5465 3.32372 24.3197C5.27392 24.3197 7.21363 24.3197 9.15334 24.3197C9.16033 25.2696 9.16033 26.2162 9.15334 27.1595C6.10572 27.1595 3.05461 27.1595 0 27.1595V13Z" fill="#231F20"/>
    <path d="M10.7576 13H14.0813C14.0813 13.714 14.0813 14.4313 14.0813 15.1519C12.9769 15.1519 11.869 15.1519 10.7576 15.1519C10.7576 14.4313 10.7576 13.714 10.7576 13ZM17.2792 13H20.561C20.561 14.0907 20.561 15.1912 20.561 16.2819C21.1062 16.2885 21.6514 16.2885 22.1966 16.2819C22.2071 17.1761 22.2071 18.0703 22.2071 18.9645C21.6549 18.9645 21.1062 18.9645 20.561 18.9645C20.561 21.6961 20.561 24.4278 20.561 27.1595C19.4705 27.1595 18.3766 27.1595 17.2792 27.1595C17.2792 24.4278 17.2792 21.6961 17.2792 18.9645C16.734 18.9645 16.1853 18.9645 15.6331 18.9645C15.6331 18.0736 15.6331 17.1827 15.6331 16.2918C16.1853 16.2852 16.734 16.2819 17.2792 16.2819C17.2792 15.1912 17.2792 14.0907 17.2792 13ZM23.7589 13H27.0407C27.0407 14.6017 27.0511 16.2033 27.0302 17.7952C27.6068 17.1368 28.3093 16.4981 29.2006 16.2525C30.4378 15.9184 31.8742 16.0658 32.9122 16.8125C33.9293 17.5495 34.3591 18.7974 34.3487 19.9766C34.3382 22.3643 34.3382 24.7619 34.3382 27.1595C33.2477 27.1595 32.1538 27.1595 31.0564 27.1595C31.0564 25.2532 31.0564 23.3437 31.0564 21.4308C31.0459 20.8118 31.0145 20.1436 30.6265 19.6228C29.8926 18.6206 28.0262 18.6992 27.3971 19.7604C27.0511 20.3107 27.0616 20.9788 27.0407 21.6077C27.0407 23.455 27.0407 25.3122 27.0407 27.1595C25.9432 27.1595 24.8493 27.1595 23.7589 27.1595C23.7589 22.4429 23.7589 17.7166 23.7589 13ZM36.194 13H39.4863C39.4863 13.714 39.4828 14.4313 39.4758 15.1519C38.3854 15.1519 37.2949 15.1519 36.2045 15.1519C36.1975 14.4313 36.194 13.714 36.194 13ZM57.059 17.7853C57.73 16.9796 58.6527 16.2819 59.7641 16.1444C61.274 15.8791 62.962 16.4588 63.7169 17.7657C64.4823 16.9501 65.4994 16.3016 66.6632 16.1542C67.9004 15.9773 69.2949 16.1444 70.2386 16.9796C71.1088 17.7362 71.4024 18.8957 71.4024 19.9766C71.4024 22.3742 71.4024 24.7619 71.4024 27.1595C70.291 27.1595 69.1901 27.1595 68.0787 27.1595C68.0787 25.096 68.0787 23.0292 68.0787 20.9592C68.0787 20.3991 67.9214 19.8095 67.5125 19.387C66.7261 18.6697 65.2477 18.7778 64.6291 19.6523C64.2936 20.124 64.2412 20.7135 64.2307 21.2638C64.2307 23.229 64.2307 25.1943 64.2307 27.1595C63.1298 27.1595 62.0184 27.1595 60.907 27.1595C60.907 25.096 60.907 23.0227 60.907 20.9592C60.9175 20.3696 60.7392 19.7506 60.2884 19.3379C59.502 18.6893 58.1075 18.7974 57.4889 19.613C57.1324 20.0945 57.0695 20.7037 57.059 21.2638C57.059 23.229 57.0695 25.1943 57.059 27.1595C55.9686 27.1595 54.8747 27.1595 53.7772 27.1595C53.7772 23.5369 53.7772 19.9111 53.7772 16.2819C54.8747 16.2819 55.9686 16.2819 57.059 16.2819C57.066 16.7863 57.066 17.2875 57.059 17.7853ZM10.7576 16.2819C11.869 16.2918 12.9804 16.2819 14.0813 16.2918C14.0813 19.9176 14.0813 23.5336 14.0813 27.1595C12.9699 27.1595 11.862 27.1595 10.7576 27.1595C10.7576 23.5369 10.7576 19.9111 10.7576 16.2819ZM36.2045 16.2819C37.2949 16.2918 38.3854 16.2819 39.4863 16.2918C39.4758 19.9078 39.4863 23.5336 39.4758 27.1595C38.3854 27.1595 37.2949 27.1595 36.2045 27.1595C36.194 23.5336 36.194 19.9078 36.2045 16.2819ZM41.3421 16.2819C42.4325 16.2819 43.5265 16.2819 44.6239 16.2819C44.6239 18.2766 44.6134 20.2714 44.6239 22.2562C44.6449 22.9342 44.7602 23.6909 45.3369 24.1527C46.1337 24.7324 47.4338 24.6735 48.1049 23.9463C48.5662 23.4354 48.6186 22.7377 48.6396 22.0892C48.6396 20.1534 48.6396 18.2275 48.6396 16.2918C49.73 16.2852 50.824 16.2852 51.9214 16.2918C51.9214 19.9176 51.9214 23.5336 51.9214 27.1595C50.824 27.1595 49.73 27.1595 48.6396 27.1595C48.6396 26.6682 48.6396 26.1769 48.6396 25.6856C48.042 26.3243 47.3709 26.9826 46.4588 27.2184C45.1691 27.5525 43.6383 27.3855 42.6003 26.5306C41.7196 25.7937 41.3421 24.644 41.3316 23.5533C41.3421 21.1262 41.3421 18.709 41.3421 16.2819Z" fill="#231F20"/>
    <path fill-rule="evenodd" clip-rule="evenodd" d="M79.5491 13H80.6919C83.0196 17.7166 85.3682 22.4331 87.7064 27.1595C87.273 27.1595 86.8466 27.1595 86.4272 27.1595C85.7841 25.8493 85.148 24.5392 84.5189 23.229C81.5622 23.229 78.6089 23.229 75.6592 23.229C75.0196 24.5359 74.3905 25.8526 73.7404 27.1693C73.335 27.1628 72.9331 27.1595 72.5347 27.1595C74.8623 22.4331 77.2109 17.7166 79.5491 13ZM80.0943 14.2381C78.7732 16.8813 77.4731 19.554 76.1625 22.2169C78.7767 22.2104 81.3909 22.2104 84.0052 22.2169C82.7051 19.554 81.4049 16.8912 80.0943 14.2381Z" fill="#929497"/>
    <path fill-rule="evenodd" clip-rule="evenodd" d="M126.826 13H127.906C127.906 13.4586 127.906 13.9171 127.906 14.3757C127.542 14.3757 127.182 14.3757 126.826 14.3757C126.826 13.9171 126.826 13.4586 126.826 13ZM90.1495 18.5714C90.831 17.5299 91.9424 16.675 93.2845 16.5964C95.004 16.3605 96.776 17.2744 97.4889 18.7581C98.0237 17.8836 98.852 17.1172 99.89 16.8027C101.599 16.2623 103.759 16.6455 104.828 18.0899C105.699 19.1905 105.709 20.6153 105.699 21.932C105.699 23.6712 105.699 25.4203 105.699 27.1595C105.328 27.1595 104.954 27.1595 104.577 27.1595C104.577 25.0862 104.577 23.0227 104.577 20.9494C104.577 20.0355 104.336 19.0529 103.633 18.3749C102.721 17.4512 101.138 17.3137 99.9424 17.8148C98.6737 18.3553 97.9293 19.672 97.9293 20.9494C97.9293 23.0194 97.9293 25.0894 97.9293 27.1595C97.5518 27.1595 97.1744 27.1595 96.7969 27.1595C96.8074 25.0862 96.7969 23.0227 96.8074 20.9494C96.8074 20.0355 96.5663 19.0529 95.8638 18.3847C95.0564 17.5495 93.6934 17.3432 92.582 17.6969C91.0931 18.1784 90.139 19.6621 90.1495 21.1164C90.1495 23.1275 90.1495 25.1419 90.1495 27.1595C89.772 27.1595 89.3981 27.1595 89.0276 27.1595C89.0276 23.7105 89.0276 20.2615 89.0276 16.8125C89.405 16.8125 89.779 16.8125 90.1495 16.8125C90.1495 17.4021 90.1495 17.9819 90.1495 18.5714ZM111.235 16.7143C112.86 16.3311 114.747 16.7241 115.911 17.8934C117.159 19.0627 117.609 20.802 117.505 22.4135C114.464 22.4135 111.423 22.4135 108.383 22.4135C108.498 23.9562 109.431 25.489 110.994 26.1081C112.86 26.8942 115.135 26.2457 116.435 24.811C116.694 25.0207 116.956 25.2303 117.222 25.4399C116.404 26.2948 115.376 27.0023 114.17 27.2577C112.482 27.641 110.585 27.356 109.232 26.2751C107.156 24.6735 106.705 21.706 107.796 19.4656C108.435 18.1391 109.704 17.0582 111.235 16.7143ZM110.354 18.1293C109.169 18.8662 108.519 20.1829 108.393 21.48C111.046 21.48 113.699 21.4898 116.351 21.48C116.215 20.2615 115.743 19.0038 114.684 18.2373C113.468 17.3235 111.612 17.3039 110.354 18.1293ZM120.336 19.6916C121.174 17.9131 123.104 16.5472 125.222 16.6455C125.222 17.0189 125.225 17.3956 125.232 17.7755C123.817 17.7755 122.38 18.3258 121.52 19.3968C120.65 20.4286 120.357 21.7748 120.346 23.0718C120.346 24.4278 120.346 25.7937 120.346 27.1595C119.983 27.1595 119.623 27.1595 119.266 27.1595C119.266 23.7138 119.266 20.2648 119.266 16.8125C119.623 16.8125 119.979 16.8125 120.346 16.8125C120.346 17.7755 120.346 18.7286 120.336 19.6916ZM129.751 22.0794C129.625 19.4754 131.806 16.9599 134.585 16.6259C136.524 16.3212 138.506 17.127 139.785 18.4928C139.533 18.7483 139.271 19.0136 139.009 19.2691C138.296 18.6009 137.499 17.9622 136.503 17.6969C134.868 17.2351 132.98 17.8443 131.953 19.1119C130.464 20.8609 130.6 23.6417 132.32 25.2139C133.379 26.2457 135.035 26.6878 136.514 26.3046C137.541 26.059 138.412 25.4301 139.114 24.7128C139.366 24.9224 139.621 25.1353 139.879 25.3515C138.737 26.678 136.965 27.5427 135.119 27.4051C132.184 27.3855 129.667 24.8209 129.751 22.0794ZM154.558 16.7831C156.362 16.3311 158.291 16.8519 159.832 17.746C159.644 18.0408 159.451 18.3356 159.256 18.6304C158.018 17.9327 156.54 17.3726 155.072 17.6674C154.223 17.8246 153.374 18.4535 153.384 19.328C153.332 19.9078 153.772 20.3893 154.286 20.6447C155.775 21.4112 157.589 21.4603 158.994 22.384C159.497 22.7082 159.843 23.1995 160 23.7498V24.9584C159.727 26.1965 158.532 27.0809 157.243 27.2872C155.282 27.6115 153.248 26.9826 151.686 25.8723C151.909 25.5971 152.129 25.322 152.346 25.0469C153.594 25.9116 155.125 26.5208 156.708 26.3734C157.62 26.3046 158.606 25.8231 158.857 24.9388C159.067 24.3197 158.836 23.6024 158.249 23.2389C156.708 22.2366 154.621 22.3447 153.132 21.2441C152.493 20.802 152.178 20.0454 152.262 19.3182C152.283 18.0899 153.342 17.0779 154.558 16.7831ZM126.826 16.8125C127.182 16.8125 127.542 16.8125 127.906 16.8125C127.906 20.2648 127.906 23.7138 127.906 27.1595C127.542 27.1595 127.182 27.1595 126.826 27.1595C126.826 23.7138 126.826 20.2648 126.826 16.8125ZM141.788 17.5495C143.706 16.6848 146.034 16.2819 148.058 17.068C149.431 17.5986 150.27 18.9448 150.312 20.3008C150.343 22.5903 150.312 24.87 150.322 27.1595C149.959 27.1595 149.599 27.1595 149.243 27.1595C149.243 26.6092 149.243 26.0688 149.243 25.5185C147.607 27.6704 143.948 28.0733 141.83 26.3439C140.236 25.0763 140.551 22.384 142.385 21.4603C144.482 20.3696 147.02 20.6939 149.253 21.1655C149.337 19.9766 148.928 18.6009 147.701 18.0506C145.95 17.2547 143.853 17.6674 142.197 18.4732C142.057 18.1653 141.921 17.8574 141.788 17.5495ZM142.574 22.61C141.746 23.4059 141.788 24.811 142.627 25.5873C144.398 27.0514 147.544 26.5797 148.813 24.7324C149.358 23.966 149.284 23.0129 149.284 22.1383C147.879 21.8141 146.433 21.6077 144.986 21.6961C144.115 21.7649 143.203 22.0008 142.574 22.61Z" fill="#929497"/>
</svg>
