<svg width="160" height="32" viewBox="0 0 160 32" fill="none" xmlns="http://www.w3.org/2000/svg">
<g clip-path="url(#clip0_112_6315)">
<path d="M5.15356 4.94286L5.58115 4.69531V20.606L19.3389 28.5577L18.9114 28.8052L5.15356 20.8461V4.94286Z" fill="#2A8175"/>
<path d="M6.01611 4.44018L6.4437 4.19263V20.1034L20.2015 28.055L19.7739 28.3025L6.01611 20.3509V4.44018Z" fill="#2A8175"/>
<path d="M6.87134 3.94506L7.29893 3.69751V19.6007L21.0567 27.5524L20.6291 27.7999L6.87134 19.8483V3.94506Z" fill="#2A8175"/>
<path d="M7.73413 3.44994L8.16172 3.20239V19.1131L21.9195 27.0647L21.4919 27.3123L7.73413 19.3532V3.44994Z" fill="#2A8175"/>
<path d="M10.3071 1.95727L10.7347 1.70972V17.6204L24.4925 25.5721L24.0649 25.8196L10.3071 17.868V1.95727Z" fill="#345397"/>
<path d="M11.1624 1.46215L11.5899 1.2146V17.1253L25.3477 25.0769L24.9201 25.3245L11.1624 17.3729V1.46215Z" fill="#345397"/>
<path d="M12.0249 0.959464L12.4525 0.711914V16.6226L26.2103 24.5743L25.7827 24.8218L12.0249 16.8702V0.959464Z" fill="#345397"/>
<path d="M12.8877 0.464347L13.3153 0.216797V16.1275L27.0731 24.0791L26.6455 24.3267L12.8877 16.3751V0.464347Z" fill="#345397"/>
<path d="M5.15356 4.94275L18.9114 12.8944V28.8051L21.9195 27.0647V11.154L8.16168 3.20239L5.15356 4.94275Z" fill="#5CB650"/>
<path d="M10.3071 1.95715L24.0649 9.90877V25.8195L27.073 24.0791V8.16841L13.3152 0.216797L10.3071 1.95715Z" fill="#009AC6"/>
<path d="M0 7.92089L0.427587 7.67334V23.5841L14.1854 31.5357L13.7578 31.7832L0 23.8316V7.92089Z" fill="#B32A76"/>
<path d="M0.862793 7.42577L1.29038 7.17822V23.089L15.0482 31.0406L14.6206 31.2881L0.862793 23.3365V7.42577Z" fill="#B32A76"/>
<path d="M1.72534 6.93066L2.15293 6.68311V22.5938L15.9107 30.5455L15.4831 30.793L1.72534 22.8414V6.93066Z" fill="#B32A76"/>
<path d="M2.58057 6.42797L3.00815 6.18042V22.0912L16.7659 30.0428L16.3384 30.2903L2.58057 22.3387V6.42797Z" fill="#B32A76"/>
<path d="M0 7.92077L13.7578 15.8724V31.7831L16.7659 30.0428V14.1395L3.00811 6.18042L0 7.92077Z" fill="#E42657"/>
<path d="M141.861 27.0947V18.7305L141.869 11.8066C141.869 9.90123 141.104 8.07086 139.738 6.72059C138.373 5.37031 136.528 4.61266 134.6 4.61266C132.672 4.61266 130.819 5.37031 129.461 6.72059C128.096 8.07086 127.331 9.90123 127.331 11.8066V27.1022H130.864V19.3306H138.328V27.1022L141.861 27.0947ZM130.864 11.7991C130.864 11.3115 130.962 10.8314 131.149 10.3813C131.434 9.70619 131.907 9.12858 132.522 8.72349C133.137 8.31841 133.857 8.10087 134.6 8.10087C135.343 8.10087 136.063 8.31841 136.678 8.72349C137.293 9.12858 137.773 9.70619 138.051 10.3813C138.238 10.8314 138.336 11.3115 138.336 11.7991V15.8199H130.849L130.864 11.7991ZM122.98 27.0947V11.7991C122.98 10.8539 122.793 9.90873 122.425 9.03106C122.065 8.15338 121.525 7.36572 120.85 6.69058C119.829 5.68538 118.539 5.00274 117.121 4.72518C115.711 4.44762 114.248 4.59766 112.921 5.13776C111.593 5.68538 110.46 6.60806 109.657 7.7933C108.862 8.97855 108.435 10.3663 108.435 11.7916V27.0872H111.968V11.7991C112.005 10.8389 112.41 9.92374 113.108 9.2561C113.806 8.58847 114.736 8.21339 115.711 8.21339C116.686 8.21339 117.616 8.58847 118.314 9.2561C119.004 9.93124 119.409 10.8389 119.439 11.7991V27.0947H122.98ZM96.2297 27.0947V11.7991C96.2297 10.8539 96.0421 9.90873 95.682 9.03106C95.2094 7.89082 94.4518 6.89312 93.4766 6.12797C92.5014 5.36281 91.3462 4.86021 90.1234 4.66517C89.0357 4.48513 87.6404 4.59015 86.4702 5.01024C85.2999 5.43032 84.2647 6.14297 83.4546 7.08066C82.4794 5.97043 81.1891 5.17527 79.7488 4.8152C78.3085 4.45513 76.7932 4.53014 75.4054 5.04775C74.0176 5.56535 72.8174 6.48054 71.9697 7.68828C71.1146 8.89603 70.6645 10.3288 70.6645 11.7991V27.0947H74.1977V11.7991C74.2352 10.8389 74.6478 9.93124 75.3379 9.2711C76.0356 8.61097 76.9657 8.23589 77.9334 8.23589C78.9011 8.23589 79.8313 8.60347 80.5365 9.2711C81.2341 9.93874 81.6467 10.8389 81.6767 11.7991V27.0947H85.2099V11.7991C85.2024 10.9439 85.5025 10.1113 86.0501 9.45114C86.5977 8.79101 87.3629 8.33341 88.2105 8.16838C89.0582 8.00335 89.9434 8.13087 90.7085 8.53596C91.4737 8.94104 92.0663 9.59367 92.4039 10.3888C92.5914 10.8389 92.6889 11.319 92.6889 11.8066V27.1022H96.2297V27.0947ZM62.7804 4.89021V20.1858C62.7954 20.6809 62.7053 21.1685 62.5253 21.6261C62.3453 22.0837 62.0752 22.5038 61.7226 22.8564C61.3701 23.2089 60.9575 23.4865 60.4999 23.6815C60.0423 23.8691 59.5472 23.9741 59.0521 23.9741C58.557 23.9741 58.0619 23.8766 57.6043 23.6815C57.1467 23.4865 56.7266 23.2089 56.3816 22.8564C56.029 22.5038 55.7589 22.0837 55.5789 21.6261C55.3989 21.1685 55.3088 20.6734 55.3238 20.1858V4.89021H51.7906V20.1858C51.7906 21.1385 51.9782 22.0762 52.3382 22.9539C52.6983 23.8316 53.2384 24.6342 53.9211 25.3019C54.7687 26.1345 55.8114 26.7572 56.9517 27.1022C58.0919 27.4473 59.3072 27.5073 60.4849 27.2748C61.6626 27.0422 62.7579 26.5246 63.6805 25.7745C64.6032 25.0243 65.3309 24.0566 65.781 22.9614C66.1485 22.0837 66.3361 21.146 66.3361 20.2008V19.8182L66.3286 4.89772L62.7804 4.89021ZM100.573 4.90522V27.0947H104.106V4.90522H100.573ZM41.2285 4.89021V19.8783C41.2285 20.861 41.6186 21.8062 42.3162 22.4963C43.0138 23.1864 43.9665 23.584 44.9567 23.584H47.4247L49.6677 27.0947H44.9417C43.9815 27.0947 43.0363 26.9072 42.1512 26.5396C41.266 26.172 40.4633 25.6394 39.7882 24.9718C39.1131 24.3042 38.5729 23.509 38.2129 22.6313C37.8453 21.7536 37.6578 20.816 37.6653 19.8708V4.89021H41.2285ZM146.205 27.0947V12.1142C146.205 11.169 146.392 10.2313 146.752 9.35362C147.112 8.47594 147.653 7.68078 148.328 7.01315C149.003 6.34551 149.806 5.8129 150.691 5.44533C151.576 5.08525 152.521 4.89772 153.481 4.89772H159.993L157.75 8.40843H153.489C152.499 8.41593 151.546 8.80601 150.848 9.49615C150.151 10.1938 149.753 11.1315 149.753 12.1142V27.0947H146.205Z" fill="black"/>
</g>
<defs>
<clipPath id="clip0_112_6315">
<rect width="160" height="31.5664" fill="white" transform="translate(0 0.216797)"/>
</clipPath>
</defs>
</svg>
