<svg width="40" height="40" viewBox="0 0 40 40" fill="none" xmlns="http://www.w3.org/2000/svg">
<g clip-path="url(#clip0_112_6362)">
<path fill-rule="evenodd" clip-rule="evenodd" d="M20 40C31.0455 40 40 31.0463 40 20C40 8.95448 31.0455 0 20 0C8.95437 0 0 8.95448 0 20C0 31.0463 8.95437 40 20 40Z" fill="#D45500"/>
<path fill-rule="evenodd" clip-rule="evenodd" d="M9.75928 23.8369H10.4819V26.8993H11.9839V27.5302H9.75928V23.8369Z" fill="white"/>
<path fill-rule="evenodd" clip-rule="evenodd" d="M12.5876 27.5301H13.3102V23.8372H12.5876V27.5301Z" fill="white"/>
<path fill-rule="evenodd" clip-rule="evenodd" d="M15.3636 23.7795C15.031 23.7795 14.5551 23.8253 14.2053 23.877V27.5013C14.561 27.553 15.0485 27.5873 15.3692 27.5873C16.2984 27.5873 16.8546 27.2892 16.8546 26.4806C16.8546 26.0047 16.6653 25.7293 16.2467 25.5973V25.5746C16.5566 25.4599 16.7686 25.2188 16.7686 24.7831C16.7686 24.0663 16.2008 23.7795 15.3636 23.7795ZM15.3577 24.4102C15.7711 24.4102 16.0345 24.485 16.0345 24.8862C16.0345 25.2362 15.8396 25.3565 15.4784 25.3565H14.9279V24.4334C15.0942 24.4162 15.2434 24.4102 15.3577 24.4102ZM14.9279 25.9299H15.5069C15.9028 25.9299 16.1209 26.0676 16.1209 26.446C16.1209 26.8822 15.834 26.9625 15.3808 26.9625C15.2606 26.9625 15.1057 26.9565 14.9279 26.9394V25.9299Z" fill="white"/>
<path fill-rule="evenodd" clip-rule="evenodd" d="M17.6021 23.8369H19.8499V24.4678H18.3246V25.3279H19.6206V25.947H18.3246V26.8993H19.8499V27.5302H17.6021V23.8369Z" fill="white"/>
<path fill-rule="evenodd" clip-rule="evenodd" d="M21.7843 23.7852C21.4059 23.7852 20.8958 23.8428 20.6089 23.8886V27.53H21.3315V26.0847C21.4576 26.1022 21.6123 26.1137 21.7843 26.1137C21.9907 26.5495 22.2547 27.0656 22.5126 27.53H23.3616L23.3672 27.5184C23.0689 27.0138 22.748 26.4519 22.5299 25.9987C22.9314 25.8498 23.2123 25.5284 23.2123 24.9323C23.2123 24.0605 22.6102 23.7852 21.7843 23.7852ZM21.7728 24.4104C22.2204 24.4104 22.4783 24.5308 22.4783 24.978C22.4783 25.4309 22.2204 25.5514 21.7616 25.5514C21.6641 25.5514 21.4691 25.546 21.3315 25.5284V24.4334C21.4576 24.4217 21.6355 24.4104 21.7728 24.4104Z" fill="white"/>
<path fill-rule="evenodd" clip-rule="evenodd" d="M24.7557 24.4677H23.7236V23.8372H26.5106V24.4677H25.4782V27.5301H24.7557V24.4677Z" fill="white"/>
<path fill-rule="evenodd" clip-rule="evenodd" d="M28.2508 26.148C27.7865 25.4083 27.3563 24.657 26.9778 23.8369H27.7634C28.0216 24.4046 28.3085 24.9494 28.6121 25.4715H28.6352C28.9392 24.9494 29.2257 24.4046 29.4836 23.8369H30.2408C29.8624 24.657 29.4379 25.4083 28.9734 26.148V27.5299H28.2508L28.2508 26.148Z" fill="white"/>
<path fill-rule="evenodd" clip-rule="evenodd" d="M12.2993 30.0839C12.2993 29.1979 12.6441 28.6523 13.6348 28.6523C13.8879 28.6523 14.1498 28.6872 14.381 28.7353L14.3112 29.2022C14.1105 29.1673 13.8312 29.1324 13.6348 29.1324C12.9801 29.1324 12.8579 29.5121 12.8579 30.0795C12.8579 30.6251 12.9801 31.0659 13.5387 31.0659C13.6479 31.0659 13.8138 31.0484 13.9316 31.0135V30.0359H14.4814V31.3408C14.2196 31.4674 13.8662 31.5503 13.53 31.5503C12.6397 31.5503 12.2993 30.9611 12.2993 30.0839Z" fill="white"/>
<path fill-rule="evenodd" clip-rule="evenodd" d="M15.1462 28.696H15.6963V31.0266H16.8398V31.5067H15.1462V28.696Z" fill="white"/>
<path fill-rule="evenodd" clip-rule="evenodd" d="M18.4187 28.6523C19.3178 28.6523 19.6451 29.1717 19.6451 30.1016C19.6451 31.031 19.3178 31.5503 18.4187 31.5503C17.5197 31.5503 17.1924 31.031 17.1924 30.1016C17.1924 29.1717 17.5197 28.6523 18.4187 28.6523ZM18.4187 31.0702C18.9599 31.0702 19.0865 30.7298 19.0865 30.1016C19.0865 29.4731 18.9599 29.1324 18.4187 29.1324C17.8775 29.1324 17.7511 29.4731 17.7511 30.1016C17.7511 30.7298 17.8775 31.0702 18.4187 31.0702Z" fill="white"/>
<path fill-rule="evenodd" clip-rule="evenodd" d="M21.1332 28.6523C20.8799 28.6523 20.5177 28.6874 20.2515 28.7266V31.4848C20.5221 31.5241 20.893 31.5504 21.1375 31.5504C21.8444 31.5504 22.2678 31.3235 22.2678 30.708C22.2678 30.3457 22.1239 30.1362 21.8052 30.0359V30.0185C22.041 29.9314 22.2024 29.7478 22.2024 29.4163C22.2024 28.8706 21.7704 28.6523 21.1332 28.6523ZM21.1287 29.1324C21.4431 29.1324 21.6437 29.1893 21.6437 29.4948C21.6437 29.7609 21.4953 29.8525 21.2204 29.8525H20.8014V29.1499C20.928 29.1368 21.0415 29.1324 21.1287 29.1324ZM20.8014 30.2891H21.2422C21.5433 30.2891 21.7092 30.3938 21.7092 30.682C21.7092 31.0136 21.491 31.0748 21.1462 31.0748C21.0545 31.0748 20.9367 31.0704 20.8014 31.0573V30.2891Z" fill="white"/>
<path fill-rule="evenodd" clip-rule="evenodd" d="M23.4663 28.696C23.1608 29.534 22.8508 30.5639 22.6064 31.5067H23.1608L23.3134 30.9044H24.3346L24.4875 31.5067H25.0505C24.8062 30.5639 24.4962 29.534 24.1907 28.696H23.4663ZM23.8154 29.198H23.8329C23.9551 29.5734 24.0858 30.001 24.2038 30.433H23.44C23.5622 30.001 23.6931 29.5734 23.8154 29.198Z" fill="white"/>
<path fill-rule="evenodd" clip-rule="evenodd" d="M25.5374 28.696H26.0871V31.0266H27.2306V31.5067H25.5374V28.696Z" fill="white"/>
<path fill-rule="evenodd" clip-rule="evenodd" d="M22.8373 11.8377C22.6704 11.0029 22.1359 9.91431 21.6719 9.83398C21.9178 10.4896 22.1147 11.1979 22.3135 12.3873C22.3268 12.3678 22.5751 12.0093 22.8373 11.8377Z" fill="white"/>
<path fill-rule="evenodd" clip-rule="evenodd" d="M17.6169 12.3871C17.8156 11.198 18.0125 10.4903 18.2588 9.83398C17.7938 9.91377 17.2603 11.0036 17.093 11.8374C17.3556 12.0096 17.6038 12.3671 17.6169 12.3871Z" fill="white"/>
<path fill-rule="evenodd" clip-rule="evenodd" d="M17.884 12.8564C18.4908 14.3141 18.8549 15.8945 18.949 16.2499C19.0533 16.1035 19.4657 15.726 19.9675 15.726C20.4698 15.726 20.8735 16.1035 20.9782 16.2499C21.0716 15.8945 21.4363 14.3141 22.0431 12.8564C22.0147 12.5826 21.8684 11.7747 21.8054 11.4813C21.6871 10.9334 21.1343 8.44971 19.9675 8.44971C18.8014 8.44971 18.2397 10.9334 18.1223 11.4813C18.0588 11.7747 17.9124 12.5826 17.884 12.8564Z" fill="white"/>
<path fill-rule="evenodd" clip-rule="evenodd" d="M24.5081 15.9555C24.6207 15.5446 24.713 15.1282 24.7817 14.708C24.8836 14.0564 24.9366 13.3407 24.8771 12.6256C24.7117 10.6447 23.9477 9.09942 23.716 9.06762C23.5235 9.04059 23.5606 9.46913 23.5758 10.0469C23.5904 10.5846 23.5936 11.2333 23.5469 11.7768C24.5896 12.1612 24.8291 14.371 24.5081 15.9555Z" fill="white"/>
<path fill-rule="evenodd" clip-rule="evenodd" d="M15.427 15.9555C15.106 14.371 15.3454 12.1612 16.3882 11.7768C16.3414 11.2333 16.3449 10.5846 16.3593 10.0469C16.3746 9.46913 16.4122 9.04059 16.2191 9.06762C15.9874 9.09942 15.2236 10.6447 15.0589 12.6256C14.9987 13.3407 15.0514 14.0564 15.1533 14.708C15.2221 15.1282 15.3143 15.5446 15.427 15.9555Z" fill="white"/>
<path fill-rule="evenodd" clip-rule="evenodd" d="M24.2361 18.6408C24.2361 18.6408 24.1903 18.6698 24.1891 18.6505C24.1882 18.6398 24.2445 18.5937 24.2445 18.5937C25.5153 17.5877 26.0311 15.6772 25.8094 15.5065C25.6922 15.4679 25.4832 15.9307 25.1821 16.4926C24.9519 16.9215 24.7301 17.2005 24.7301 17.2005C24.7301 17.2005 24.7092 17.2276 24.6987 17.2236C24.6894 17.2214 24.7048 17.1921 24.7048 17.1921C25.6172 15.3078 25.7202 13.9797 25.7517 13.3698C25.8217 11.995 25.5748 11.9287 25.4758 12.3762C25.3596 12.8954 25.2235 13.5632 25.1226 14.2214C24.845 16.0366 24.0664 17.8449 23.451 18.8308C23.3587 18.9747 23.2812 18.9641 23.2621 18.9367C23.2457 18.913 23.2569 18.8804 23.3129 18.7756C25.0855 15.5012 24.3324 12.203 23.2842 12.166C22.2779 12.1295 21.3167 16.093 21.2046 16.5275C21.8829 17.6858 22.0438 19.2911 21.9957 19.697C21.9913 19.7303 21.9639 19.7568 21.9287 19.7578C21.8908 19.7586 21.8587 19.7288 21.8568 19.6907V19.6898C21.8568 18.9516 21.2959 16.1381 19.9774 16.1381C18.6577 16.1381 18.0968 18.9516 18.0968 19.6898V19.6907C18.0952 19.7288 18.0634 19.7586 18.0251 19.7578C17.9905 19.7568 17.9625 19.7303 17.9588 19.697C17.9098 19.2911 18.0709 17.6858 18.7496 16.5275C18.6371 16.093 17.6763 12.1295 16.6706 12.166C15.6224 12.203 14.8697 15.5012 16.6409 18.7756C16.6982 18.8804 16.7089 18.9131 16.6921 18.9367C16.6731 18.9641 16.5958 18.9747 16.5039 18.8308C15.8878 17.8449 15.1094 16.0366 14.8322 14.2214C14.7316 13.5632 14.594 12.8954 14.479 12.3762C14.3794 11.9287 14.1327 11.995 14.2024 13.3698C14.2339 13.9797 14.3367 15.3078 15.249 17.1921C15.249 17.1921 15.2642 17.2215 15.2559 17.2236C15.2444 17.2276 15.2237 17.2005 15.2237 17.2005C15.2237 17.2005 15.002 16.9215 14.7719 16.4926C14.4706 15.9307 14.2626 15.4679 14.1449 15.5065C13.9225 15.6772 14.4388 17.5877 15.7094 18.5937C15.7094 18.5937 15.7664 18.6398 15.7657 18.6505C15.7645 18.6698 15.7177 18.6408 15.7177 18.6408C15.2237 18.3364 14.5597 17.6535 14.4508 17.8973C14.3719 18.1795 15.397 19.3802 17.044 19.9817C17.044 19.9817 17.1577 20.02 17.1577 20.0422C17.1577 20.0642 17.0876 20.043 17.0876 20.043C16.8512 19.9702 16.0821 19.6743 15.8838 19.7023C15.6692 19.7315 15.7925 19.8833 15.9953 20.0611C16.1956 20.2371 17.1213 20.7899 18.3964 20.8811C18.4063 20.9968 18.8493 21.3986 19.975 21.3986C21.1011 21.3986 21.5478 20.9968 21.5575 20.8811C22.8326 20.7899 23.758 20.2371 23.9585 20.0611C24.1616 19.8833 24.2857 19.7315 24.0708 19.7023C23.872 19.6743 23.1024 19.9702 22.867 20.043C22.867 20.043 22.7959 20.0642 22.7959 20.0422C22.7967 20.02 22.9098 19.9817 22.9098 19.9817C24.5573 19.3802 25.5823 18.1795 25.5028 17.8973C25.3942 17.6535 24.7301 18.3364 24.2361 18.6408Z" fill="white"/>
</g>
<defs>
<clipPath id="clip0_112_6362">
<rect width="40" height="40" fill="white"/>
</clipPath>
</defs>
</svg>
