<svg width="66" height="4" viewBox="0 0 66 4" fill="none" xmlns="http://www.w3.org/2000/svg">
    <path d="M64.2118 1.93344C64.2118 1.11649 63.8396 0.762481 62.9682 0.762481H55.0893V3.13162H62.9682C63.8306 3.13162 64.2118 2.7413 64.2118 1.93344ZM66 1.93344C66 3.13162 64.938 3.79425 63.9304 3.79425H53.4009V0.0998493H63.9304C64.938 0.0998493 66 0.735251 66 1.93344ZM34.2753 0.762481H43.8427V0.0998493H33.3132C32.3147 0.0998493 31.2436 0.744328 31.2436 1.93344C31.2436 3.12254 32.3056 3.79425 33.3132 3.79425H43.8427V3.13162H34.2844C33.4312 3.13162 33.0408 2.7413 33.0408 1.93344C33.0408 1.12557 33.413 0.762481 34.2753 0.762481ZM2.823 3.12254C2.04236 3.12254 1.68835 2.78669 1.68835 2.04236V0.0907716H0V2.05144C0 3.18608 1.00756 3.79425 1.96067 3.79425H12.1997V3.12254H2.823ZM26.115 0.0998493V3.1407H18.1362C17.3555 3.1407 17.0015 2.80484 17.0015 2.06052V0.0998493H15.3132V2.06052C15.3132 3.19516 16.3207 3.80333 17.2738 3.80333H27.8124V0.0998493H26.115ZM47.8094 3.87595H49.4523V0H47.8094V3.87595Z" fill="black"/>
</svg>
