<svg width="160" height="41" viewBox="0 0 160 41" fill="none" xmlns="http://www.w3.org/2000/svg">
    <g clip-path="url(#clip0_38_462)">
        <path d="M1.04614 12.4702V28.9091H19.6715V26.2219H7.79028V12.4702H1.04614Z" fill="#005DAA"/>
        <path d="M22.2532 12.3652V28.9094H41.1684V26.3277H29.05V22.7449H41.1684V19.1357H29.05V15.5529H41.1684V12.3652H22.2532Z" fill="#005DAA"/>
        <path d="M65.089 12.4443V23.7197L52.2067 12.4443H50.5733H44.119H43.9082V28.9095H50.5733V18.2137L62.5599 28.9095H71.5434V12.4443H65.089Z" fill="#005DAA"/>
        <path d="M95.464 12.4443V23.7197L82.5817 12.4443H80.9483H74.494H74.2832V28.9095H80.9483V18.2137L92.935 28.9095H101.918V12.4443H95.464Z" fill="#005DAA"/>
        <path d="M113.457 12.418L104.658 28.9095H111.218L117.435 17.6605L119.964 22.982H115.907L114.274 25.9326H121.887L123.257 28.9095H129.764L120.807 12.418H113.457Z" fill="#005DAA"/>
        <path d="M156.556 29.5153H148.416L139.801 20.0051H142.146H144.701C145.386 20.0051 146.124 19.7943 146.545 19.5309C147.52 18.9513 147.942 18.4507 147.942 17.6604C147.942 17.1862 147.678 16.7647 147.467 16.5276C146.835 15.7636 145.149 15.5792 144.701 15.5792H142.62H138.431V29.5153H131.924V12.3389H144.701C146.098 12.3389 147.626 12.4706 148.653 12.5496C149.68 12.6287 150.813 12.9448 151.683 13.2609C152.657 13.6297 153.316 14.183 154.027 14.8943C154.501 15.3685 154.949 16.2905 154.949 16.9755C154.949 18.3717 154.475 19.2938 153.527 20.2158C152.605 20.9271 151.445 21.6384 149.838 22.0863L156.556 29.5153Z" fill="#005DAA"/>
        <path d="M159.112 13.8932C159.112 14.7625 158.427 15.4475 157.584 15.4475C156.741 15.4475 156.029 14.7625 156.029 13.8932C156.029 13.0238 156.714 12.3389 157.584 12.3389C158.427 12.3389 159.112 13.0238 159.112 13.8932ZM156.319 13.8932C156.319 14.6308 156.872 15.2104 157.557 15.2104C158.242 15.2104 158.795 14.6308 158.795 13.8932C158.795 13.1555 158.242 12.576 157.557 12.576C156.872 12.576 156.319 13.1555 156.319 13.8932ZM157.004 14.7889V13.0502C157.136 13.0238 157.294 13.0238 157.478 13.0238C157.742 13.0238 157.926 13.0765 158.005 13.1555C158.11 13.2346 158.163 13.3663 158.163 13.5244C158.163 13.7615 158.005 13.8932 157.821 13.9459V13.9722C157.979 13.9986 158.084 14.1303 158.111 14.3937C158.163 14.6572 158.19 14.7625 158.216 14.8152H157.926C157.873 14.7625 157.847 14.6045 157.821 14.3674C157.794 14.1303 157.663 14.0512 157.452 14.0512H157.267V14.7889H157.004ZM157.478 13.8405C157.715 13.8405 157.9 13.7615 157.9 13.5507C157.9 13.3926 157.794 13.2346 157.478 13.2346C157.399 13.2346 157.347 13.2346 157.294 13.2609V13.8405H157.478Z" fill="#005DAA"/>
    </g>
    <defs>
        <clipPath id="clip0_38_462">
            <rect width="160" height="17.6471" fill="white" transform="translate(0 12)"/>
        </clipPath>
    </defs>
</svg>
