<svg width="160" height="38" viewBox="0 0 160 38" fill="none" xmlns="http://www.w3.org/2000/svg">
    <g clip-path="url(#clip0_38_473)">
        <path d="M22.5208 35.8678H12.2938C12.1991 35.8678 12.1044 35.8678 12.0097 35.7731L3.7713 29.618C3.67661 29.5233 3.58192 29.4286 3.58192 29.3339L0.362305 19.391V19.1069L3.58192 8.31175C3.58192 8.21705 3.67661 8.12236 3.7713 8.02766L12.1991 1.87253C12.2938 1.77783 12.3885 1.77783 12.4832 1.77783H22.3314C22.4261 1.77783 22.5208 1.77783 22.6155 1.87253L31.0433 8.02766C31.138 8.12236 31.2327 8.21705 31.2327 8.31175L34.4523 19.0122V19.2963L31.3274 29.3339C31.3274 29.4286 31.2327 29.5233 31.138 29.618L22.8996 35.7731C22.7102 35.8678 22.6155 35.8678 22.5208 35.8678ZM12.7673 34.8262H21.1951C17.8808 31.6066 14.5665 28.7657 11.1575 26.209C11.4416 28.9551 12.0097 31.8907 12.7673 34.8262ZM11.5362 25.1674C15.2293 27.8188 18.6383 30.849 22.2367 34.258C23.089 29.7127 23.5624 25.3567 23.7518 21.1902C19.2065 22.1371 14.9452 23.5576 11.5362 25.1674ZM24.6988 21.6637C24.5094 25.6408 24.0359 29.8074 23.2784 34.0686L30.0964 29.0498C28.4865 26.0196 26.782 23.5575 24.6988 21.6637ZM4.90764 29.1445L11.4416 33.9739C10.7787 31.2278 10.3052 28.4817 10.0211 25.8302C8.03255 26.8719 6.32805 28.0082 4.90764 29.1445ZM1.78272 20.3379L4.33947 28.2923C5.75989 27.1559 7.46439 26.0196 9.45297 24.978C6.89622 23.2735 4.43417 21.6637 1.78272 20.3379ZM25.3616 20.8114C27.3502 22.7053 29.1494 24.978 30.6645 27.8188L33.2213 19.8645C30.6645 19.9592 28.0131 20.3379 25.3616 20.8114ZM10.7787 13.8987C10.4946 17.213 10.4946 20.7167 10.8734 24.2204C14.3771 22.6106 18.5436 21.1902 22.9943 20.2432C20.3428 18.2547 17.5967 17.0236 14.7559 15.6979C13.4301 15.1297 12.1044 14.5616 10.7787 13.8987ZM1.78272 19.1069C4.52886 20.5273 7.1803 22.1371 9.73705 23.9363C9.45297 20.5273 9.45297 17.213 9.64236 13.8987C6.61214 15.3191 3.96069 17.1183 1.78272 19.1069ZM24.32 10.395C24.6988 13.4252 24.7935 16.6449 24.7935 19.7698C27.5396 19.2016 30.2857 18.8228 32.8425 18.6334C30.2857 15.6032 27.5396 12.9518 24.32 10.395ZM11.6309 13.0465C12.7673 13.6146 13.9036 14.0881 15.2293 14.6563C18.0702 15.8873 20.911 17.213 23.7518 19.2963C23.7518 16.0767 23.6571 12.8571 23.1837 9.73216C18.9224 10.5844 15.0399 11.6261 11.6309 13.0465ZM4.33947 9.44808L1.97211 17.4971C3.96069 15.7926 6.42275 14.2775 9.16889 12.9518C7.275 11.9101 5.75989 10.7738 4.33947 9.44808ZM24.9829 9.54277C27.8237 11.7207 30.3804 14.1828 32.6531 16.8342L30.3804 8.97461L24.9829 9.54277ZM12.7673 3.10355C11.915 6.03908 11.2522 9.0693 10.8734 12.1942C14.2824 10.7738 18.0702 9.63747 22.2367 8.97461C19.68 6.98603 16.6497 5.18683 12.7673 3.10355ZM4.90764 8.50114C6.32805 9.92155 7.93786 11.0579 9.83175 12.1942C10.1158 9.35339 10.684 6.51255 11.4416 3.76641L4.90764 8.50114ZM23.1837 3.57703C23.5624 5.18683 23.8465 6.89133 24.1306 8.59583C25.8351 8.31175 27.5396 8.12236 29.2441 8.02766L23.1837 3.57703ZM14.5665 2.81947C17.7861 4.61866 20.5322 6.32316 22.8996 8.02766C22.6155 6.32316 22.3314 4.52397 21.8579 2.81947H14.5665Z" fill="#FF000A"/>
        <path d="M88.8062 10.395L82.7458 27.1559H86.1548L87.1964 24.2203H93.1622L94.1091 27.1559H97.5181L91.363 10.395H88.8062ZM88.0487 21.4742L90.1319 15.4138L92.2152 21.4742H88.0487ZM112.29 15.6031C112.29 12.7623 110.302 10.4896 106.893 10.4896H100.359V27.2506H103.673V20.5273H106.041L109.355 27.2506H113.143L109.355 20.0538C110.775 19.3909 112.29 17.9705 112.29 15.6031ZM106.609 17.7811H103.484V13.3305H106.609C108.029 13.3305 108.976 14.2774 108.976 15.5085C108.976 16.8342 108.029 17.7811 106.609 17.7811ZM128.01 15.6031C128.01 12.7623 126.021 10.4896 122.612 10.4896H116.078V27.2506H119.393V20.5273H121.76L125.074 27.2506H128.862L125.074 20.0538C126.589 19.3909 128.01 17.9705 128.01 15.6031ZM122.328 17.7811H119.203V13.3305H122.328C123.748 13.3305 124.695 14.2774 124.695 15.5085C124.79 16.8342 123.843 17.7811 122.328 17.7811ZM131.797 10.395H135.112V27.1559H131.797V10.395ZM149.032 18.7281C149.884 19.5803 150.358 20.8113 150.358 22.3265C150.358 25.5461 147.611 27.44 144.108 27.44C141.551 27.44 139.657 26.8718 137.953 25.262L140.036 23.1787C141.078 24.2203 142.498 24.5991 144.108 24.5991C146.002 24.5991 147.043 23.8416 147.043 22.5158C147.043 21.9477 146.854 21.4742 146.57 21.0954C146.286 20.8113 145.907 20.622 145.055 20.5273L143.066 20.2432C141.646 20.0538 140.604 19.5803 139.847 18.8228C139.089 18.0652 138.615 16.9289 138.615 15.5085C138.615 12.4782 140.793 10.395 144.487 10.395C146.759 10.395 148.464 10.9631 149.884 12.3835L147.801 14.4668C146.759 13.4252 145.433 13.3305 144.392 13.3305C142.687 13.3305 141.835 14.2774 141.835 15.4138C141.835 15.7925 141.93 16.266 142.309 16.6448C142.593 16.9289 143.161 17.213 143.824 17.3076L145.812 17.5917C147.327 17.5917 148.274 18.0652 149.032 18.7281ZM64.1857 22.3265C64.1857 25.6408 61.7236 27.3453 58.8828 27.3453C56.5154 27.3453 54.2428 26.2089 53.6746 23.6522L56.6101 22.4211C56.6101 23.9363 57.6518 24.5991 58.8828 24.5991C60.2085 24.5991 61.1554 23.7469 61.1554 22.2318C61.1554 20.8113 60.3032 19.9591 58.7881 19.9591H58.6934V17.3076H58.7881C60.3032 17.3076 60.8714 16.3607 60.8714 15.2244C60.8714 13.804 59.9244 13.0464 58.7881 13.0464C57.6518 13.0464 56.7995 13.804 56.7048 15.035L53.7693 13.804C54.3375 11.5313 56.326 10.2056 58.6934 10.2056C61.6289 10.2056 63.8069 12.1941 63.8069 15.035C63.8069 16.8342 62.9546 17.8758 61.913 18.444C63.2387 19.2015 64.1857 20.3379 64.1857 22.3265ZM76.5906 10.395H79.9049V27.1559H76.5906V20.1485H70.909V27.1559H67.5947V10.395H70.909V17.213H76.5906V10.395ZM46.2884 24.315H51.4966V27.2506H42.9741V10.395H46.2884V24.315ZM152.914 10.8684H155.66V11.4366H154.619V14.7509H154.051V11.4366H153.009V10.8684H152.914ZM159.638 10.8684V14.7509H159.069V12.1941L158.217 13.9933H157.744L156.892 12.1941V14.7509H156.323V10.8684H156.892L158.028 13.2358L159.069 10.8684H159.638Z" fill="#283030"/>
    </g>
    <defs>
        <clipPath id="clip0_38_473">
            <rect width="160" height="37" fill="white" transform="translate(0 0.610352)"/>
        </clipPath>
    </defs>
</svg>
