<svg width="98" height="40" viewBox="0 0 98 40" fill="none" xmlns="http://www.w3.org/2000/svg">
<path fill-rule="evenodd" clip-rule="evenodd" d="M76.7332 1.47266L86.4572 19.1481H56.4148L46.7368 1.47266H76.7332ZM48.2514 22.0481C44.8114 22.0481 41.234 21.7257 39.0324 19.8387C37.1974 18.4118 36.1882 16.7548 35.1334 14.8678C34.904 14.4935 32.2554 9.65914 30.212 5.92936L30.211 5.9275C28.9858 3.69116 27.9782 1.85233 27.8408 1.61086H0C1.00036 3.44488 2.00072 5.2866 3.0022 7.13042C5.44442 11.6267 7.89352 16.1357 10.3656 20.5751C13.3926 26.0987 16.2821 31.2545 21.5566 35.0287C24.0798 36.9153 26.7396 38.1587 29.8588 38.9413C32.9318 39.6779 36.0508 39.7697 39.2152 39.7697H63.9834L54.2598 22.0481H48.2514ZM58.021 22.0021L67.745 39.7697H97.7414L87.9714 22.0021H58.021Z" fill="black"/>
</svg>
