<svg width="73" height="40" viewBox="0 0 73 40" fill="none" xmlns="http://www.w3.org/2000/svg">
    <g clip-path="url(#clip0_38_478)">
        <path d="M50.1331 23.4119C50.5462 23.1138 50.9941 22.7669 51.4112 22.435C54.6246 19.8376 57.0789 16.9909 57.5657 15.4164C57.5805 15.3649 57.6234 15.2186 57.6234 15.1034C57.6234 14.9408 57.5469 14.827 57.4008 14.827C55.9255 14.827 51.1926 19.5883 50.0473 23.443V23.4566L50.1331 23.4119ZM38.2693 22.8645C42.7434 19.4501 47.4441 14.4788 47.9457 12.4383C47.9604 12.3719 47.9752 12.3069 47.9739 12.2445C47.9671 12.109 47.8947 11.9898 47.7257 11.9898C46.3095 11.9898 39.7526 18.0992 38.2693 22.8645ZM10.7986 25.8657C9.61707 25.0378 7.79043 24.3143 6.15825 24.3143C4.5757 24.3143 3.5618 24.943 3.5618 25.7356C3.5618 26.6448 4.79029 27.0431 6.1663 27.0431C7.83469 27.0431 9.34884 26.5878 10.7986 25.8657ZM24.5038 15.1549C27.7118 14.1157 30.7535 11.9437 33.0241 9.67557C35.1203 7.57678 36.7994 5.08506 36.7994 3.85071C36.7994 3.56889 36.6009 3.39952 36.3461 3.39952C35.3765 3.39952 33.5337 4.70161 31.0539 7.20959C29.124 9.16476 26.8749 11.834 24.5038 15.1549ZM72.2486 22.9891C69.4939 25.7586 60.9105 33.3706 58.6386 39.7754L55.8249 39.0424C56.7449 36.3894 59.5144 32.2637 62.6004 29.0809C61.9432 29.3302 61.2592 29.4237 60.7094 29.4237C59.8752 29.4237 59.2274 29.169 58.8371 28.6921C58.5582 28.3479 58.416 27.8994 58.416 27.3656C58.416 27.2491 58.4241 27.1325 58.4401 27.0011C55.7297 28.669 53.5503 29.4224 51.4152 29.4224C49.7535 29.4224 48.3547 28.6907 47.707 27.4076C45.0166 28.7557 42.4363 29.4224 40.2797 29.4224C38.272 29.4224 36.6532 28.6189 35.9102 27.1556C33.1904 28.7002 30.8756 29.4224 29.0342 29.4224C27.9747 29.4224 27.1338 29.1256 26.5946 28.5633C26.1977 28.1487 25.9884 27.5919 25.9576 26.9483C24.2141 28.1094 21.6659 29.4224 19.0547 29.4224C16.3832 29.4224 14.5914 28.4956 13.2006 27.577C10.9824 28.8181 8.54147 29.4224 5.96111 29.4224C4.01108 29.4224 0.864751 28.6026 0.864751 25.7776C0.860728 23.4972 3.21578 21.9526 6.36747 21.9526C9.04708 21.9526 11.6288 23.0935 13.2489 24.2777C14.7858 23.0406 16.3992 21.3104 18.3023 18.8647C17.8839 18.8891 17.4748 18.9 17.0725 18.9C13.4286 18.9 10.3855 17.8147 8.72387 15.915C7.82664 14.888 7.4015 13.6835 7.4015 12.3868C7.4015 7.26514 13.8055 3.29112 19.4074 2.70579C19.7776 3.55398 20.1075 4.20706 20.4495 4.98344C14.9159 5.6338 10.3064 8.94255 10.3064 12.1768C10.3064 14.3027 12.6709 16.438 17.6908 16.438C18.5504 16.438 19.4141 16.354 20.2644 16.2362C24.6956 10.0577 31.4845 0.463379 37.3278 0.463379C39.0566 0.463379 39.9605 1.52565 39.9605 2.94562C39.9605 5.86685 37.4727 9.01165 35.8526 10.6525C33.3071 13.2363 28.7016 17.0816 22.2708 18.3553C19.7695 21.8713 17.7136 24.2032 15.6562 25.8873C16.9022 26.5662 18.0717 26.9835 19.4651 26.9835C22.9266 26.9835 26.2848 23.7831 28.9068 21.0692L28.9993 20.9784L31.0432 22.5935L30.9493 22.7073C29.7906 24.0501 28.7217 25.47 28.7217 26.2654C28.7217 26.8683 29.2273 26.9876 29.6605 26.9876C30.9855 26.9876 33.0295 26.1204 35.4341 24.6273V24.6069C35.6997 18.6046 43.8083 9.42491 48.7303 9.42491C50.1197 9.42491 50.9177 10.1241 50.9177 11.3489C50.9177 14.3582 45.7797 20.8091 38.3055 25.7464V25.7505C38.6918 26.5906 39.5823 26.9957 41.0938 26.9957C42.2726 26.9957 44.5794 26.4646 47.3207 25.0175C47.6372 21.9079 49.382 18.568 51.5949 16.1874C53.8145 13.8041 56.3024 12.2554 58.4536 12.2554C59.78 12.2554 60.5632 12.9924 60.5632 14.1509C60.5632 16.7754 57.5469 21.263 50.2806 25.9619C50.6025 26.5906 51.2261 26.9876 52.1971 26.9876C54.3617 26.9876 58.1746 24.6544 61.1439 21.786L63.2763 23.458C62.3657 24.5744 61.4443 25.8006 61.4738 26.5066C61.4819 26.7355 61.6348 26.89 61.9928 26.89C64.1816 26.89 67.627 23.9701 70.21 21.393L72.2486 22.9891ZM32.6298 16.9692C33.5968 16.9692 34.3773 17.7618 34.3773 18.7374C34.3773 19.7143 33.5968 20.5056 32.6298 20.5056C31.6588 20.5056 30.8756 19.7143 30.8756 18.7374C30.8769 17.7618 31.6601 16.9692 32.6298 16.9692Z" fill="#D52B1E"/>
    </g>
    <defs>
        <clipPath id="clip0_38_478">
            <rect width="72.4324" height="40" fill="white"/>
        </clipPath>
    </defs>
</svg>
