<?xml version="1.0" encoding="UTF-8"?>
<svg width="512px" height="512px" viewBox="0 0 512 512" version="1.1" xmlns="http://www.w3.org/2000/svg" xmlns:xlink="http://www.w3.org/1999/xlink">
    <!-- Generator: Sketch 48.1 (47250) - http://www.bohemiancoding.com/sketch -->
    <title>#LMT</title>
    <desc>Created with Sketch.</desc>
    <defs></defs>
    <g id="Компании-BIG" stroke="none" stroke-width="1" fill="none" fill-rule="evenodd">
        <g id="#LMT" fill="#2D509F" fill-rule="nonzero">
            <path d="M511,234.471672 L419.264091,234.471672 C431.301713,189.303393 442.189713,151 442.189713,151 C442.189713,151 400.910225,195.021909 364.215861,234.471672 L0.714408799,234.471672 C-1.5714696,234.471672 -1.5714696,235.618041 0.714408799,235.618041 C1.86403185,235.618041 357.33149,241.903077 357.33149,241.903077 C328.664437,272.201881 313.184628,289.357429 312.623185,289.930613 C311.473562,291.076982 312.623185,291.650167 313.75944,290.503798 C314.334251,289.930613 334.987363,271.055511 364.215861,241.903077 L409.512346,242.476261 C406.638289,255.626182 404.359094,267.629734 400.910225,281.926024 C345.300552,311.658308 254.714265,360.252364 254.714265,360.252364 C253.564642,360.825549 254.139454,361.971918 255.289077,361.398733 C255.863888,360.825549 340.140616,318.516528 399.18579,288.784244 C389.447414,332.806153 383.144538,363.098292 383.144538,363.671477 C382.569727,364.244661 383.71935,364.817846 384.294161,363.671477 C384.294161,363.098292 392.882915,332.806153 405.508717,285.918321 C458.244333,259.058625 511,234.471672 511,234.471672 Z M371.552846,234.252033 C398.794754,207.207681 421.504065,185.341463 421.504065,185.341463 C421.504065,185.341463 417.533906,204.330194 410.725083,234.252033 L371.552846,234.252033 Z M416.646623,242.577236 L471.455285,243.697047 C471.455285,243.697047 444.050954,258.300437 406.934959,277.95935 C410.362997,265.602132 413.211929,254.934454 416.646623,242.577236 Z" id="Shape"></path>
        </g>
    </g>
</svg>