<svg width="88" height="41" viewBox="0 0 88 41" fill="none" xmlns="http://www.w3.org/2000/svg">
    <g clip-path="url(#clip0_38_485)">
        <path d="M43.851 0.977539L21.6997 10.5211H7.88242V14.4145H0.961182V40.5826H86.7313V14.4145H79.8136V10.5211H66.0012L43.851 0.977539Z" fill="#004990"/>
        <path d="M64.3047 17.481L64.3037 21.7114L67.0249 21.7163L67.5919 17.4822L64.3047 17.481Z" fill="white"/>
        <path d="M79.0177 21.1463C79.1931 21.1463 79.3517 21.1331 79.3517 20.918C79.3517 20.7488 79.1955 20.7174 79.0513 20.7174H78.7678V21.1463H79.0177ZM78.7678 21.9221H78.5599V20.5397H79.0837C79.4069 20.5397 79.5679 20.6606 79.5679 20.9337C79.5679 21.1814 79.4153 21.2889 79.2135 21.3143L79.6039 21.9221H79.3709L79.0081 21.3227H78.7678V21.9221ZM79.0201 22.2314C79.5595 22.2314 79.9848 21.8073 79.9848 21.2285C79.9848 20.6606 79.5595 20.2328 79.0201 20.2328C78.4734 20.2328 78.0481 20.6606 78.0481 21.2285C78.0481 21.8073 78.4734 22.2314 79.0201 22.2314ZM77.8079 21.2285C77.8079 20.5398 78.3629 20.0322 79.0201 20.0322C79.67 20.0322 80.2263 20.5398 80.2263 21.2285C80.2263 21.9221 79.67 22.432 79.0201 22.432C78.3629 22.432 77.8079 21.9221 77.8079 21.2285Z" fill="white"/>
        <path d="M14.6428 31.8973V17.4805H10.7227V35.3303H20.7087V31.8973H14.6428Z" fill="white"/>
        <path d="M54.1069 35.3306H63.4382V31.8928H58.0463V29.6525H63.4382V26.3428H58.0463V24.0904H63.4382V20.6382H54.1069V20.6551V35.3306Z" fill="white"/>
        <path d="M29.6686 24.091H26.2206V31.8788H29.6686V24.091ZM33.5959 33.4545C33.5959 34.4901 32.761 35.3311 31.7302 35.3311H24.1578C23.1282 35.3311 22.2932 34.4901 22.2932 33.4545V22.5153C22.2932 21.4785 23.1282 20.6387 24.1578 20.6387H31.7302C32.761 20.6387 33.5959 21.4785 33.5959 22.5153V33.4545Z" fill="white"/>
        <path d="M47.9377 20.6392V31.8974H45.571V20.6392H42.123V31.8974H39.7562V20.6392H35.8289V33.4538C35.8289 34.4906 36.6638 35.3316 37.6946 35.3316H42.3368C43.1189 35.3316 43.847 34.7878 43.847 34.0012C43.847 34.7878 44.575 35.3316 45.3571 35.3316H50.0005C51.0301 35.3316 51.8651 34.4906 51.8651 33.4538V20.6392H47.9377Z" fill="white"/>
        <path d="M77.204 29.7789L77.2049 29.7799L77.1809 29.7292C77.1653 29.6978 77.1497 29.6675 77.1341 29.6362L77.1101 29.5878C76.489 28.3348 75.0977 27.2883 72.8583 26.3869L72.779 26.3568C72.3357 26.1815 70.9866 25.6511 70.8364 24.7883C70.7956 24.5466 70.8929 24.1672 71.1608 23.9364C71.4431 23.6476 71.8756 23.499 72.4463 23.499C73.3593 23.499 74.3973 23.8748 74.9356 24.0983C76.0685 24.5708 77.062 24.9925 77.0716 24.9986L77.1702 25.0396V21.8326L77.1378 21.8121C77.1161 21.7976 74.974 20.4394 72.8103 20.1276C72.5616 20.1059 72.3154 20.0962 72.0787 20.0962C70.0868 20.0962 68.5778 20.8236 67.5951 22.2592C66.7697 23.4385 66.6784 25.3054 67.38 26.6987C68.2823 28.2732 69.7287 28.9305 71.1284 29.5673C71.705 29.8283 72.3021 30.1014 72.8608 30.4349L72.8666 30.4388C73.4985 30.8206 73.8205 31.4042 73.6871 31.9226C73.549 32.4603 72.9374 32.8216 72.1649 32.8216C72.0592 32.8216 71.9523 32.8159 71.8478 32.8012L71.8105 32.7963C70.3244 32.5885 67.3113 31.4599 67.2812 31.4478L67.1851 31.4116V34.9279L67.2344 34.9448C67.2621 34.9545 70.179 35.926 72.768 35.926C74.1809 35.926 75.2487 35.6396 75.9383 35.0765C75.9551 35.0644 77.5373 33.7848 77.607 31.6085C77.6262 31.0067 77.4911 30.3904 77.204 29.7789Z" fill="white"/>
    </g>
    <defs>
        <clipPath id="clip0_38_485">
            <rect width="87.6923" height="40" fill="white" transform="translate(0 0.610352)"/>
        </clipPath>
    </defs>
</svg>
