<svg width="563" height="190" viewBox="0 0 563 190" fill="none" xmlns="http://www.w3.org/2000/svg">
    <path d="M70.0662 91.7326L191.728 188.969L70.0662 109.814L166.402 188.969L70.0662 127.895L141.082 188.969L70.0662 145.989L115.756 188.969H0L108.459 1.14844L216.919 188.969L70.0662 91.7326Z" fill="black"/>
    <path d="M306.001 131.592H226.672V125.797L228.05 125.601C232.032 125.405 236.321 124.634 238.465 119.415C240.303 114.974 239.997 106.473 239.997 101.444V30.3376C239.997 17.5852 241.069 7.35014 228.663 5.9965L226.672 5.80049V0H270.168V5.80049L268.171 5.9965C263.889 6.38262 259.294 6.76824 256.997 12.1767C255.006 16.8134 255.312 25.1252 255.312 30.3376V105.505C255.312 109.18 255.312 115.746 256.838 118.839C258.835 123.28 264.961 124.248 268.478 124.248C288.541 124.248 303.55 108.016 313.965 87.9197L318.253 90.4371L306.001 131.592Z" fill="black"/>
    <path d="M369.216 83.4792C357.576 84.8328 332.465 88.8877 332.465 108.022C332.465 117.872 339.051 123.672 346.402 123.672C354.667 123.672 362.937 117.486 369.216 110.724V83.4792ZM401.526 126.569C397.704 131.206 390.965 133.331 385.904 133.142C378.406 132.946 371.514 128.695 369.216 119.225C360.18 128.113 351.91 133.142 340.423 133.142C329.708 133.142 316.996 125.798 316.996 110.338C316.996 97.1994 323.429 91.0131 332.153 86.1865C340.276 81.5498 349.153 79.4244 357.883 78.2606L369.216 76.7171V62.807C368.91 56.8166 368.144 51.7879 363.856 48.119C359.874 44.8359 354.667 44.0642 350.072 44.0642C345.324 44.0642 335.369 46.9613 335.369 54.3053V56.8166C335.369 63.1868 333.384 68.4053 327.564 68.4053C323.888 68.4053 320.366 64.7364 320.366 59.9037C320.366 51.7879 327.411 44.6399 332.771 41.7427C339.198 38.2637 347.468 36.3343 354.36 36.1383C360.793 35.9487 369.216 38.6496 374.883 42.5145C383.154 48.119 383.919 55.463 383.919 66.2799V104.158C383.919 112.273 384.838 124.444 392.343 124.444C394.64 124.444 396.785 123.09 398.616 121.547L401.526 126.569Z" fill="black"/>
    <path d="M429.222 107.054C429.222 117.681 430.601 124.829 440.097 125.797H441.781V131.597H402.732V125.797C413.141 124.639 414.525 118.067 414.525 107.054V66.8673C414.525 56.0442 412.988 48.8962 403.339 48.1183H400.895V42.324L424.321 38.0732H429.222V51.4014C435.961 42.324 446.376 36.1376 458.016 36.1376C467.818 36.1376 474.704 39.6167 479.145 51.4014C486.803 42.8998 497.524 36.5296 507.173 36.1376C513.759 35.948 520.957 38.8449 525.092 45.803C528.462 51.4014 528.768 57.9736 528.768 64.5458V107.054C528.768 117.491 529.993 124.639 540.408 125.797V131.597H501.506V125.797H502.731C512.533 124.829 514.065 118.453 514.065 107.054V68.7967C514.065 64.5458 514.065 59.9092 512.84 55.6583C511.002 49.8579 506.867 46.1889 501.972 46.1889C493.848 46.1889 485.731 52.3753 478.992 58.9414V107.054C478.992 118.453 480.53 124.829 490.326 125.797H491.551V131.597H451.736V125.797H452.962C462.758 124.829 464.295 118.453 464.295 107.054V68.2148C464.295 57.5878 463.683 46.1889 452.808 46.1889C443.919 46.1889 435.195 52.3753 429.222 58.9414V107.054Z" fill="black"/>
    <path d="M537.754 45.7632C537.754 49.1749 539.077 52.3354 541.454 54.6936C543.868 57.0701 546.986 58.3687 550.368 58.3687C553.762 58.3687 556.929 57.0334 559.239 54.6936C561.622 52.2987 563 49.0279 563 45.7632C563 41.9779 561.218 38.2722 558.32 35.9569C556.059 34.1194 553.204 33.0781 550.405 33.0781C546.582 33.0781 542.992 34.8176 540.578 37.7944C538.746 40.0301 537.754 42.8599 537.754 45.7632ZM550.368 34.3766C556.568 34.3766 561.695 39.4421 561.695 45.7632C561.695 51.8638 556.752 57.0701 550.368 57.0701C544.052 57.0701 539.004 52.0475 539.004 45.7632C539.004 39.4421 544.088 34.3766 550.368 34.3766ZM544.897 38.1987V52.8683H547.568V47.5211H550.184C553.168 47.5211 554.197 49.1381 554.234 52.8683H557.113V52.121C557.113 48.8809 556.2 47.2271 553.499 46.4615C556.059 45.8367 557.334 44.4034 557.334 42.4557C557.334 39.7361 555.257 38.1987 550.993 38.1987H544.897ZM547.568 40.5446H550.405C553.021 40.5446 554.387 41.0591 554.387 42.5659C554.387 44.2932 552.984 45.1813 550.147 45.1813H547.568V40.5446Z" fill="black"/>
    <path d="M300.005 160.806L298.467 161.535C294.571 155.814 290.583 153.119 284.236 153.119C282.888 153.119 280.627 153.175 279.525 154.185C278.324 155.251 278.275 156.88 278.275 158.509V167.146H281.497C286.349 167.146 287.262 165.798 287.838 160.243H289.474V177.026H287.838C287.697 175.28 287.458 173.602 286.594 172.138C285.345 169.896 283.513 169.786 281.399 169.786H278.275V180.952C278.275 182.073 278.373 183.923 278.998 184.878C280.003 186.452 282.361 186.562 283.899 186.562C291.305 186.562 295.674 183.028 300.005 176.242L301.542 177.026L297.168 188.976H269.141V187.291L269.618 187.236C270.917 187.071 272.314 187.016 272.988 185.442C273.564 184.156 273.466 181.681 273.466 180.223V159.514C273.466 155.815 273.803 152.838 269.864 152.501L269.141 152.446V150.762H296.684L300.005 160.807V160.806Z" fill="black"/>
    <path d="M244.912 168.549C247.075 168.549 249.237 168.494 251.112 166.98C252.944 165.517 253.856 163.109 253.856 160.525C253.856 154.185 249.047 152.893 244.575 152.893C243.178 152.893 240.152 153.064 238.902 153.903C237.751 154.687 237.702 155.643 237.702 157.046V168.549H244.912ZM257.747 183.083C259.241 185.497 260.632 186.789 263.181 187.291V188.976H255.149L244.434 170.907H237.702V180.168C237.702 184.039 237.413 186.954 241.451 187.291H242.462V188.976H228.279V187.291L228.904 187.236C230.252 187.126 231.692 187.016 232.415 185.442C232.99 184.094 232.892 181.681 232.892 180.168V159.514C232.892 155.643 233.229 152.783 229.192 152.501L228.279 152.446V150.762H247.412C252.944 150.762 258.898 152.728 258.898 160.58C258.898 166.417 254.671 169.897 250.058 170.405L257.747 183.084V183.083Z" fill="black"/>
    <path d="M336.684 160.919L335.147 161.593C332.408 156.54 328.561 152.62 323.127 152.62C320.101 152.62 316.106 154.47 316.106 158.561C316.106 163.051 320.438 164.172 323.372 165.017L328.273 166.365C333.511 167.822 338.994 169.617 338.994 177.31C338.994 185.444 332.261 189.934 325.963 189.934C322.355 189.934 318.465 188.807 315.671 186.118L314.765 188.979H312.982L309.857 176.128L311.64 175.454C314.14 181.629 319.231 187.129 325.437 187.129C329.664 187.129 334.234 184.324 334.234 178.823C334.234 173.88 330.528 173.041 327.164 172.03L321.834 170.518C319.666 169.844 316.78 168.888 314.954 167.492C312.841 165.973 311.346 163.167 311.346 160.246C311.346 157.104 312.694 154.243 314.856 152.332C317.117 150.427 319.856 149.809 322.6 149.809C325.626 149.809 328.947 150.648 331.446 152.785L332.022 150.764H333.75L336.684 160.919Z" fill="black"/>
    <path d="M377.882 160.806L376.345 161.535C372.448 155.814 368.46 153.119 362.113 153.119C360.765 153.119 358.505 153.175 357.402 154.185C356.195 155.251 356.152 156.88 356.152 158.509V167.146H359.369C364.227 167.146 365.14 165.798 365.716 160.243H367.351V177.026H365.716C365.574 175.28 365.329 173.602 364.472 172.138C363.216 169.896 361.39 169.786 359.277 169.786H356.152V180.952C356.152 182.073 356.245 183.923 356.869 184.878C357.88 186.452 360.239 186.562 361.776 186.562C369.177 186.562 373.551 183.028 377.882 176.242L379.414 177.026L375.046 188.976H347.012V187.291L347.496 187.236C348.794 187.071 350.185 187.016 350.865 185.442C351.441 184.156 351.343 181.681 351.343 180.223V159.514C351.343 155.815 351.68 152.838 347.735 152.501L347.012 152.446V150.762H374.562L377.882 160.807L377.882 160.806Z" fill="black"/>
    <path d="M442.486 168.549C444.649 168.549 446.818 168.494 448.686 166.98C450.512 165.517 451.431 163.109 451.431 160.525C451.431 154.185 446.622 152.893 442.149 152.893C440.759 152.893 437.732 153.064 436.476 153.903C435.325 154.687 435.282 155.643 435.282 157.046V168.549H442.486ZM455.327 183.083C456.816 185.497 458.212 186.789 460.755 187.291V188.976H452.729L442.009 170.907H435.282V180.168C435.282 184.039 434.988 186.954 439.025 187.291H440.036V188.976H425.854V187.291L426.485 187.236C427.826 187.126 429.272 187.016 429.989 185.442C430.565 184.094 430.467 181.681 430.467 180.168V159.514C430.467 155.643 430.81 152.783 426.766 152.501L425.854 152.446V150.762H444.986C450.512 150.762 456.479 152.728 456.479 160.58C456.479 166.417 452.246 169.897 447.632 170.405L455.327 183.084V183.083Z" fill="black"/>
    <path d="M406.248 172.254L400.765 155.588L395.429 172.254H406.248ZM414.035 180.223C415.235 183.702 415.958 187.071 419.757 187.298V188.982H406.248V187.298C407.829 187.071 409.997 186.679 409.997 184.486C409.997 183.537 409.562 182.245 409.275 181.399L407.112 174.778H394.755L393.408 178.986C393.021 180.168 392.305 182.355 392.305 183.653C392.305 186.452 394.229 187.016 396.532 187.298V188.982H383.648V187.298L384.181 187.182C386.485 186.563 387.3 185.895 388.507 183.421C389.609 181.124 390.81 177.363 391.631 174.84L399.656 150.762H404.129L414.035 180.223V180.223Z" fill="black"/>
    <path d="M508.977 159.514C508.977 155.815 509.314 152.838 505.418 152.501L504.701 152.446V150.762H518.252V152.446H517.726C516.384 152.556 514.987 152.722 514.313 154.296C513.731 155.643 513.786 158.057 513.786 159.57V167.257H531.044V159.57C531.044 155.815 531.381 152.838 527.442 152.501L526.719 152.446V150.762H540.178V152.446H539.695C538.396 152.618 537.005 152.783 536.38 154.296C535.755 155.644 535.853 158.057 535.853 159.515V180.224C535.853 183.923 535.516 186.9 539.456 187.237L540.179 187.292V188.976H526.719V187.292H527.197C528.496 187.182 529.844 186.955 530.517 185.442C531.093 184.095 531.044 181.681 531.044 180.223V169.615H513.787V180.223C513.787 183.978 513.493 186.9 517.438 187.237L518.253 187.292V188.976H504.701V187.292H505.179C506.478 187.126 507.82 186.955 508.5 185.442C509.076 184.094 508.978 181.681 508.978 180.223V159.514H508.977Z" fill="black"/>
    <path d="M497.008 164.799H495.47L495.28 164.351C494.172 161.883 492.726 158.569 491.096 156.493C488.983 153.859 486.244 152.622 483.114 152.622C479.413 152.622 476.522 154.582 474.604 158.122C472.73 161.656 472.154 166.091 472.154 170.244C472.154 174.115 472.828 178.66 474.843 181.857C476.963 185.226 480.473 187.131 484.075 187.131C488.983 187.131 493.547 183.596 495.948 178.715L498.013 180.062C494.845 186.518 489.65 189.942 483.31 189.942C473.354 189.942 466.383 181.526 466.383 169.962C466.383 159.243 473.067 149.816 482.538 149.816C486.042 149.816 489.46 151.048 492.107 153.859L493.161 151.274H494.705L497.008 164.798L497.008 164.799Z" fill="black"/>
</svg>
