<svg width="160" height="41" viewBox="0 0 160 41" fill="none" xmlns="http://www.w3.org/2000/svg">
    <g clip-path="url(#clip0_38_509)">
        <mask id="mask0_38_509" style="mask-type:luminance" maskUnits="userSpaceOnUse" x="0" y="10" width="160" height="22">
            <path d="M159.04 10H0V31.7083H159.04V10Z" fill="white"/>
        </mask>
        <g mask="url(#mask0_38_509)">
            <path d="M0 11.5831V29.5809C0 30.6693 0.670327 31.1641 1.96078 31.1641H19.9404C21.1838 31.1641 21.9001 30.6693 21.9001 29.5809C21.9001 28.541 21.1838 27.9977 19.9404 27.9977H4.49463C3.87345 27.9977 3.63398 27.7266 3.63398 27.1834V11.5831C3.63483 11.3633 3.5873 11.1457 3.4944 10.9442C3.4015 10.7428 3.26527 10.5618 3.09439 10.4129C2.92352 10.2639 2.72174 10.1503 2.5019 10.0792C2.28206 10.0081 2.04898 9.98113 1.81751 9.99996C1.58686 9.98501 1.35541 10.0147 1.1373 10.0872C0.919179 10.1597 0.718972 10.2735 0.548886 10.4217C0.378799 10.5698 0.242404 10.7492 0.148032 10.9489C0.0536605 11.1486 0.00329627 11.3644 0 11.5831Z" fill="black"/>
            <path d="M30.8903 23.2751V11.5834C30.8539 11.151 30.6467 10.7475 30.31 10.4533C29.9733 10.159 29.5317 9.99561 29.0733 9.99561C28.615 9.99561 28.1734 10.159 27.8367 10.4533C27.4999 10.7475 27.2927 11.151 27.2563 11.5834V23.5918C27.2563 30.8764 32.0375 31.7056 40.3105 31.7056C48.5834 31.7056 53.3646 30.8744 53.3646 23.5918V11.5834C53.3282 11.151 53.121 10.7475 52.7842 10.4533C52.4475 10.159 52.006 9.99561 51.5476 9.99561C51.0892 9.99561 50.6477 10.159 50.3109 10.4533C49.9742 10.7475 49.767 11.151 49.7306 11.5834V23.2751C49.7306 29.2022 46.3842 28.4047 40.3105 28.4047C34.2367 28.4047 30.8903 29.1111 30.8903 23.2751Z" fill="black"/>
            <path d="M88.7969 15.2938V29.856C88.796 30.0758 88.8436 30.2934 88.9365 30.4949C89.0294 30.6964 89.1656 30.8774 89.3365 31.0263C89.5074 31.1752 89.7092 31.2889 89.929 31.3599C90.1488 31.431 90.3819 31.458 90.6134 31.4392C90.8457 31.462 91.0806 31.4377 91.3023 31.3681C91.524 31.2985 91.7275 31.1851 91.8994 31.0354C92.0713 30.8857 92.2075 30.7031 92.2992 30.4998C92.3908 30.2964 92.4357 30.077 92.4309 29.856V12.352C92.4487 12.0534 92.4027 11.7545 92.2957 11.473C92.1887 11.1916 92.0229 10.9334 91.8082 10.7139C91.5935 10.4944 91.3343 10.3181 91.046 10.1954C90.7577 10.0728 90.4463 10.0063 90.1302 10C88.8753 10 88.3284 10.6719 87.1185 11.7187L77.8416 20.3787H77.7935L68.5167 11.7643C67.3276 10.6056 66.4251 10 65.3606 10C64.7335 10.0528 64.1488 10.3214 63.717 10.7549C63.2853 11.1884 63.0366 11.7566 63.0181 12.352V29.856C63.0172 30.0758 63.0648 30.2934 63.1577 30.4949C63.2506 30.6964 63.3868 30.8774 63.5577 31.0263C63.7286 31.1752 63.9303 31.2889 64.1502 31.3599C64.37 31.431 64.6031 31.458 64.8345 31.4392C65.0669 31.462 65.3017 31.4377 65.5235 31.3681C65.7452 31.2985 65.9487 31.1851 66.1206 31.0354C66.2924 30.8857 66.4287 30.7031 66.5203 30.4998C66.612 30.2964 66.6569 30.077 66.6521 29.856V15.2482H66.8434L75.6895 23.1839C76.4853 23.9221 77.1044 24.496 77.7454 24.496C78.5506 24.496 78.9637 23.9023 79.8495 23.1839L88.6484 15.2938H88.7969Z" fill="black"/>
            <path d="M124.277 11.8997C124.277 10.8597 123.608 10.271 122.316 10.271H104.145C102.855 10.271 102.186 10.8647 102.186 11.8997V13.4769L122.369 13.4383C123.612 13.4383 124.281 12.8951 124.281 11.8997" fill="#0C9ED9"/>
            <path d="M102.182 19.2061V29.5808C102.182 30.6693 102.852 31.164 104.143 31.164H122.504C123.748 31.164 124.417 30.6693 124.417 29.5808C124.417 28.5399 123.748 27.9976 122.504 27.9976H106.679C106.058 27.9976 105.818 27.7255 105.818 27.1833V22.415H117.772C119.064 22.415 119.733 21.8717 119.733 20.8318C119.733 19.8423 119.064 19.2486 117.772 19.2486L102.182 19.2061Z" fill="black"/>
            <path d="M159.04 29.3999V11.5832C159.037 11.3645 158.987 11.1488 158.892 10.9491C158.798 10.7494 158.662 10.57 158.492 10.4218C158.322 10.2736 158.122 10.1598 157.904 10.0873C157.686 10.0148 157.454 9.98509 157.224 10C156.992 9.98107 156.759 10.008 156.539 10.079C156.319 10.15 156.117 10.2636 155.946 10.4126C155.775 10.5615 155.639 10.7425 155.546 10.9441C155.453 11.1456 155.405 11.3633 155.406 11.5832V26.007L137.424 11.7188C136.187 10.7362 135.498 10 134.316 10C133.02 10 132.165 10.8144 132.165 12.3521V29.8561C132.168 30.0747 132.219 30.2905 132.313 30.4902C132.407 30.6899 132.543 30.8693 132.713 31.0175C132.884 31.1657 133.084 31.2795 133.302 31.352C133.52 31.4245 133.751 31.4542 133.982 31.4392C134.213 31.4582 134.447 31.4313 134.666 31.3603C134.886 31.2893 135.088 31.1757 135.259 31.0267C135.43 30.8778 135.567 30.6968 135.66 30.4952C135.753 30.2937 135.8 30.076 135.799 29.8561V15.1127L153.587 29.581C154.779 30.5388 155.605 31.4363 156.839 31.4363C157.126 31.4455 157.412 31.3995 157.68 31.301C157.948 31.2025 158.192 31.0535 158.398 30.8631C158.603 30.6727 158.765 30.4449 158.875 30.1933C158.984 29.9418 159.039 29.6719 159.035 29.3999" fill="black"/>
        </g>
    </g>
    <defs>
        <clipPath id="clip0_38_509">
            <rect width="160" height="21.7687" fill="white" transform="translate(0 10)"/>
        </clipPath>
    </defs>
</svg>
