<svg width="160" height="41" viewBox="0 0 160 41" fill="none" xmlns="http://www.w3.org/2000/svg">
    <g clip-path="url(#clip0_38_523)">
        <path d="M43.981 27.7173C43.3102 27.8637 42.4902 27.9369 41.6702 27.9369C39.2848 27.9369 38.763 27.132 38.763 25.5954V16.7415H34.2903V26.1076C34.2903 30.2784 36.6757 32.1808 41.4465 32.1808C43.7574 32.1808 45.9192 31.7418 48.5283 31.1564V16.7415H43.981V27.7173ZM58.5172 28.1564C56.8772 28.1564 56.6536 27.4247 56.6536 26.1807V20.4733H60.3808V16.7415H56.6536V12.3512H52.1809V16.7415H49.9446V20.4001H52.1809V26.4002C52.1809 29.0344 52.7027 32.1077 57.1754 32.1077C58.5172 32.1077 59.6353 31.815 60.9026 31.4491L60.4553 27.7905C59.7844 28.01 59.1881 28.1564 58.5172 28.1564ZM11.4797 19.8879C10.6598 19.5952 9.69068 19.3026 8.7216 19.0099C6.11255 18.2781 5.29256 17.9123 5.29256 16.7415C5.29256 15.4244 6.26164 14.7659 8.64706 14.7659C10.5852 14.7659 12.2997 15.2781 14.0142 15.8635L14.9833 11.6195C12.9706 10.8878 11.107 10.2292 8.79615 10.2292C3.42896 10.2292 0.447184 13.2293 0.447184 16.8147C0.447184 19.5221 1.63989 21.2782 4.32349 22.3758C5.06893 22.6685 6.03801 22.9612 7.00708 23.2538C9.91431 24.1319 10.8088 24.5709 10.8088 25.6685C10.8088 26.9856 9.69068 27.7173 7.3798 27.7173C5.29256 27.7173 3.35441 27.132 1.34172 26.2539L0.298096 30.6442C2.53442 31.5223 4.69621 32.1077 7.3798 32.1077C12.8961 32.1077 15.7288 29.1076 15.7288 25.449C15.7288 22.5221 14.0142 20.8392 11.4797 19.8879ZM70.2206 16.0098C68.7298 16.0098 67.3134 16.3757 66.3443 16.6684V9.42432H61.8717V32.1077H66.3443V20.766C67.1643 20.4733 68.0589 20.1806 69.177 20.1806C70.8915 20.1806 71.5624 20.8392 71.5624 22.449V32.1077H76.0351V21.9367C76.0351 17.9123 74.1715 16.0098 70.2206 16.0098ZM24.8977 15.9366C20.3505 15.9366 16.6978 19.083 16.6978 23.9856C16.6978 28.8881 20.3505 32.1808 24.8977 32.1808C29.4449 32.1808 33.0976 28.9613 33.0976 23.9856C33.0976 19.0099 29.4449 15.9366 24.8977 15.9366ZM24.8977 27.7905C22.9596 27.7905 21.3941 26.4002 21.3941 23.9124C21.3941 21.4245 22.885 20.1074 24.8977 20.1074C26.9104 20.1074 28.4013 21.4245 28.4013 23.9124C28.4013 26.4734 26.8359 27.7905 24.8977 27.7905ZM125.309 22.7416C124.638 22.5221 123.967 22.3026 123.147 22.0831C121.582 21.6441 120.985 21.4245 120.985 20.766C120.985 20.1074 121.582 19.6684 122.998 19.6684C124.489 19.6684 125.831 19.9611 127.322 20.4001L128.067 16.5952C126.427 16.2293 124.862 15.9366 123.073 15.9366C118.824 15.9366 116.513 18.0586 116.513 20.9855C116.513 23.0343 117.556 24.3514 119.644 25.2295C120.24 25.449 120.911 25.7417 121.731 25.9612C123.371 26.4002 124.191 26.6198 124.191 27.3515C124.191 28.0832 123.222 28.3759 121.88 28.3759C120.24 28.3759 118.749 28.0832 117.184 27.4978L116.513 31.3028C118.451 31.815 120.24 32.1808 122.253 32.1808C126.725 32.1808 128.738 29.9125 128.738 27.0588C128.663 25.0832 127.843 23.6197 125.309 22.7416ZM108.536 15.9366C103.84 15.9366 100.486 19.1562 100.486 24.2783C100.486 29.0344 103.393 32.1808 108.611 32.1808C110.922 32.1808 112.785 31.5223 114.724 30.7174L114.053 27.0588C112.562 27.7173 111.071 28.2296 109.282 28.2296C106.598 28.2296 105.48 27.132 105.331 25.5222H115.394C115.394 25.5222 115.544 23.7661 115.544 23.4002C115.544 19.2294 113.233 15.9366 108.536 15.9366ZM105.406 22.5953C105.704 21.2782 106.375 19.5952 108.313 19.5952C110.251 19.5952 110.847 21.4977 110.847 22.5953H105.406ZM137.534 28.1564C135.894 28.1564 135.671 27.4247 135.671 26.1807V20.4733H139.398V16.7415H135.671V12.3512H131.198V16.7415H128.887V20.4733H131.198V26.4734C131.198 29.1076 131.869 32.1808 136.341 32.1808C137.683 32.1808 138.801 31.8882 140.069 31.5223L139.547 27.8637C138.801 28.01 138.205 28.1564 137.534 28.1564ZM140.516 10.3024C139.398 10.3024 138.578 11.1804 138.503 12.278C138.429 13.3756 139.398 14.2537 140.441 14.2537C141.56 14.2537 142.454 13.3756 142.454 12.278C142.454 11.1804 141.634 10.3024 140.516 10.3024ZM140.516 13.8878C139.621 13.8878 138.95 13.2293 138.95 12.278C138.95 11.3268 139.621 10.6682 140.59 10.6682C141.485 10.6682 142.23 11.3268 142.156 12.278C142.081 13.2293 141.41 13.8878 140.516 13.8878ZM140.74 12.3512C141.112 12.278 141.336 12.1317 141.336 11.7658C141.336 11.4 141.038 11.1073 140.59 11.1073H139.845V13.3756H140.292V12.4244C140.441 12.4244 140.516 12.4975 140.59 12.6439L141.112 13.3756H141.634L141.187 12.6439C140.889 12.4975 140.814 12.4244 140.74 12.3512ZM140.441 12.1317H140.218V11.4731H140.516C140.814 11.4731 140.889 11.6195 140.889 11.7658C140.889 12.0585 140.665 12.1317 140.441 12.1317ZM96.3111 16.7415L93.4785 25.1563L90.6458 16.7415H86.7695L83.8622 25.1563L81.0296 16.7415H76.1842L81.775 32.1077H85.8749L88.7076 23.7661L91.5403 32.1077H95.6402L101.231 16.7415H96.3111Z" fill="#304CB2"/>
        <path d="M154.307 15.8638C152.816 15.8638 151.549 16.376 150.58 16.8882C149.611 16.376 148.418 15.8638 146.852 15.8638C143.796 15.8638 141.858 17.7662 141.858 21.1322C141.858 25.1566 145.809 29.1079 150.58 32.3275C155.35 29.1811 159.301 25.2298 159.301 21.1322C159.301 17.7662 157.289 15.8638 154.307 15.8638Z" fill="#CCCCCC"/>
        <path d="M142.305 21.2055C142.305 25.3031 146.778 29.1813 150.505 31.7423C151.623 31.0106 152.741 30.1325 153.785 29.2544C148.791 25.1568 144.02 21.425 142.38 20.1079C142.38 20.4006 142.305 20.7665 142.305 21.2055Z" fill="#3656CC"/>
        <path d="M158.481 23.1077C154.829 20.1809 152.667 18.6442 150.281 17.254C149.611 16.8881 148.343 16.3027 146.927 16.3027C145.585 16.3027 144.392 16.7418 143.572 17.5467C143.051 18.0589 142.678 18.7174 142.529 19.5223C144.392 20.8394 149.536 24.4248 154.68 28.4493C156.394 26.8395 157.81 25.0102 158.481 23.1077Z" fill="#E61C23"/>
        <path d="M157.512 17.5467C156.692 16.7418 155.574 16.3027 154.232 16.3027C152.816 16.3027 151.772 16.7418 150.952 17.1808C152.369 17.9857 155.425 19.6687 158.63 22.0102C158.705 21.7175 158.705 21.3516 158.705 21.0589C158.78 19.5955 158.332 18.3516 157.512 17.5467Z" fill="#FDBC11"/>
    </g>
    <defs>
        <clipPath id="clip0_38_523">
            <rect width="160" height="23.8961" fill="white" transform="translate(0 9)"/>
        </clipPath>
    </defs>
</svg>
