<svg width="160" height="41" viewBox="0 0 160 41" fill="none" xmlns="http://www.w3.org/2000/svg">
    <g clip-path="url(#clip0_38_534)">
        <g clip-path="url(#clip1_38_534)">
            <path d="M17.7848 4.34991C17.9704 3.38246 18.4759 2.45575 19.2702 1.84473C19.0846 2.77144 19.1877 3.72871 19.394 4.64524C19.7345 5.87746 20.3534 7.01803 21.0755 8.05677C21.385 8.50485 21.7254 8.93256 22.0143 9.38064C22.8086 10.5518 23.2522 11.9469 23.2212 13.3523C23.2728 14.89 22.6332 16.4379 21.5294 17.5276C21.6945 16.2241 21.7048 14.8696 21.3437 13.5967C21.0136 12.3645 20.3018 11.285 19.5488 10.2666C18.8989 9.41119 18.3624 8.4743 18.0427 7.45593C17.7435 6.45793 17.5784 5.38864 17.7848 4.34991Z" fill="#B79859"/>
            <path d="M23.5409 5.48061C24.0051 4.21784 25.0057 3.09764 26.3158 2.66992C25.9857 3.16892 25.7794 3.74939 25.6247 4.31968C25.4802 4.83904 25.3771 5.36859 25.3668 5.90833C25.3358 6.81468 25.439 7.73121 25.635 8.62737C25.831 9.56427 26.1714 10.4604 26.2746 11.4177C26.4293 12.599 26.223 13.8109 25.7691 14.9107C25.2223 16.316 24.0876 17.477 22.7156 18.1389C23.3552 16.9271 23.871 15.6337 23.9844 14.2691C24.1082 12.9249 23.7678 11.601 23.4067 10.3179C22.9735 8.73939 22.9838 7.02853 23.5409 5.48061Z" fill="#B79859"/>
            <path d="M12.1728 7.19108C11.657 5.95886 11.6364 4.48223 12.3482 3.32129C12.4411 3.93231 12.699 4.50259 12.9672 5.04233C13.1529 5.38857 13.3489 5.72464 13.5758 6.04033C14.5352 7.28274 15.7731 8.26037 17.0832 9.10561C17.8363 9.60461 18.5378 10.1647 19.1051 10.8572C19.7241 11.6006 20.1574 12.4764 20.4565 13.3929C20.8073 14.5233 20.766 15.7657 20.3843 16.8859C20.3327 17.0387 20.2812 17.1914 20.1986 17.334C19.8066 15.7556 19.1464 14.2076 18.0117 13.0161C17.4236 12.3746 16.7118 11.8552 16 11.3562C15.216 10.847 14.4423 10.3073 13.7924 9.62498C13.1219 8.91212 12.5442 8.08725 12.1728 7.19108Z" fill="#B79859"/>
            <path d="M30.0915 6.49867C30.8446 5.99967 31.7317 5.69416 32.6395 5.70435C31.9277 6.22372 31.4016 6.95694 30.9374 7.70035C30.401 8.62706 30.0915 9.67598 29.8852 10.7147C29.6582 11.8044 29.6789 12.9246 29.3797 13.9939C29.1424 14.8697 28.7298 15.7047 28.1624 16.4278C27.6363 17.0999 27.0277 17.7211 26.2849 18.159C25.47 18.6478 24.5518 18.9737 23.6028 19.0857C24.4177 18.3525 25.1811 17.5581 25.7691 16.6314C26.254 15.8778 26.6047 15.0326 26.7904 14.1568C26.9555 13.4338 27.038 12.6903 27.1102 11.9469C27.234 10.7554 27.6054 9.58433 28.214 8.55578C28.6885 7.75127 29.3075 7.00786 30.0915 6.49867Z" fill="#B79859"/>
            <path d="M6.38564 6.99798C6.39595 6.98779 6.40627 6.98779 6.41659 6.98779C6.72606 7.49698 7.1387 7.92469 7.57197 8.33204C7.87113 8.59681 8.17029 8.8514 8.5004 9.07545C9.77958 9.89014 11.2238 10.4197 12.6887 10.7863C13.7203 11.0307 14.7312 11.377 15.6287 11.9371C16.3302 12.375 16.9491 12.9249 17.4753 13.5563C18.4346 14.6561 18.9607 16.1327 18.8782 17.5788C18.0323 16.3873 17.0214 15.2773 15.7422 14.5033C14.7828 13.9127 13.6893 13.5766 12.6061 13.2711C11.5436 13.0267 10.4811 12.6805 9.54231 12.1204C8.43851 11.4686 7.3966 10.6132 6.79827 9.46243C6.41659 8.70883 6.2309 7.83304 6.38564 6.99798Z" fill="#B79859"/>
            <path fill-rule="evenodd" clip-rule="evenodd" d="M111.907 8.92242C114.672 8.73911 117.436 8.66783 120.201 8.64746C124.317 8.67801 128.464 8.83077 132.508 9.65564C134.117 9.99171 135.706 10.4398 137.191 11.1425C138.378 11.7127 139.513 12.4562 140.358 13.4847C141.246 14.5438 141.73 15.8881 141.823 17.2527C141.957 18.6784 141.7 20.0939 141.421 21.4789C140.936 23.6989 140.09 25.8681 138.79 27.752C137.975 28.9232 136.965 29.9721 135.768 30.7562C134.138 31.8459 132.147 32.3754 130.187 32.3449C129.341 32.2838 128.619 31.7848 128 31.245C126.876 30.1961 126.009 28.9028 125.359 27.528C125.039 26.7846 124.73 26.0004 124.812 25.1857C124.895 24.1368 125.421 23.1796 126.102 22.3852C127.041 21.3058 128.248 20.4809 129.527 19.8393C131.023 19.0959 132.642 18.5969 134.313 18.4238C135.015 18.3525 135.737 18.3423 136.438 18.4238C136.459 17.6702 136.263 16.9064 135.85 16.2547C135.386 15.5011 134.695 14.9206 133.942 14.4522C132.766 13.7291 131.446 13.2607 130.125 12.8839C128.361 12.4052 126.556 12.1099 124.75 11.8859C121.026 11.4378 117.282 11.3054 113.537 11.2952C112.867 11.2647 112.196 11.3156 111.525 11.2952C108.627 11.336 105.738 11.448 102.85 11.6415C100.333 11.8044 97.8156 12.0284 95.3191 12.3543C94.1637 12.5173 92.998 12.67 91.8736 12.9959C91.234 13.1792 90.5841 13.3625 89.9548 13.5865C89.3153 13.8106 88.6241 13.9328 87.9536 13.8513C87.7988 13.8208 87.6131 13.7698 87.5616 13.6069C87.5306 13.4542 87.5822 13.2607 87.7369 13.1894C87.9432 13.0977 88.1702 13.0366 88.3868 12.9653C90.8214 12.1812 93.3178 11.5498 95.8246 11.0304C101.127 9.9306 106.512 9.26866 111.907 8.92242ZM130.507 21.1734C130.29 21.2345 130.125 21.428 130.094 21.6418C130.012 22.0288 129.97 22.4362 129.929 22.8333C129.836 24.0146 129.795 25.2163 130.012 26.3874C130.084 26.7235 130.166 27.1003 130.445 27.3345C130.785 27.5178 131.157 27.6298 131.518 27.7724C132.622 28.139 133.746 28.4343 134.901 28.5871C135.2 28.6075 135.52 28.6787 135.799 28.5362C136.015 28.414 136.077 28.1492 136.088 27.915C136.16 26.9781 136.201 26.031 136.201 25.0737C136.201 24.3099 136.191 23.536 136.077 22.7722C135.923 22.4158 135.541 22.2325 135.19 22.1103C133.983 21.6724 132.704 21.4076 131.425 21.2141C131.126 21.1937 130.816 21.1021 130.507 21.1734Z" fill="#B79859"/>
            <path d="M67.7549 9.53361C70.5402 9.41141 73.3358 9.57435 76.0696 10.053C77.2765 10.2668 78.4629 10.5418 79.6182 10.9084C80.557 11.2037 81.4751 11.5602 82.321 12.049C82.6511 12.2527 82.9709 12.4665 83.2391 12.7517C83.3629 12.8942 83.4764 13.0979 83.3732 13.2812C83.2391 13.546 82.9812 13.7191 82.744 13.9024C81.0418 15.1754 79.154 16.1632 77.2146 17.039C76.9567 17.1408 76.6369 17.151 76.41 16.9779C76.2965 16.9066 76.2552 16.7335 76.3378 16.6214C76.5854 16.3159 76.8536 16.0002 76.9258 15.6031C76.9774 15.3179 76.7504 15.1143 76.5957 14.9106C75.987 14.2487 75.1721 13.8006 74.3468 13.4441C73.2533 12.9757 72.0773 12.6804 70.9116 12.4665C69.4777 12.2119 68.0335 12.0795 66.5892 12.0184C65.0109 11.9471 63.4325 11.9675 61.8542 12.1304C60.5028 12.273 59.1514 12.4971 57.862 12.9146C57.1502 13.1488 56.4384 13.434 55.8194 13.8617C55.4274 14.1468 55.0457 14.5134 54.9322 15.0022C54.8497 15.3485 54.9735 15.7049 55.2108 15.9595C55.6131 16.4178 56.1701 16.6927 56.7169 16.9371C57.9961 17.4667 59.3474 17.7722 60.6988 18.0472C63.154 18.5258 65.6505 18.8109 68.1469 19.0553C70.9013 19.3099 73.6556 19.4729 76.3997 19.7886C77.7717 19.9617 79.1437 20.1552 80.4641 20.5523C81.341 20.8273 82.2488 21.1939 82.8884 21.8762C83.5073 22.528 83.7137 23.5565 83.332 24.3814C82.9503 25.2368 82.2797 25.9293 81.5783 26.5505C80.1959 27.7522 78.6176 28.6993 76.998 29.5242C74.9967 30.5323 72.9026 31.3572 70.7569 31.9784C68.0438 32.7727 65.2378 33.2717 62.401 33.3023C61.1115 33.2921 59.822 33.2106 58.5325 33.0681C56.036 32.7931 53.5808 32.2432 51.1875 31.51C50.1766 31.2146 49.1759 30.8786 48.1547 30.6036C47.4429 30.4305 46.6898 30.2574 45.9471 30.4101C45.2868 30.5731 44.802 31.0823 44.3584 31.5609C44.1933 31.734 44.0696 31.9581 43.8426 32.0599C43.6466 32.1312 43.4197 32.1719 43.234 32.0701C43.1308 32.009 43.1514 31.8868 43.203 31.8053C43.7704 30.5731 44.5441 29.4325 45.4209 28.3734C46.4113 27.1819 47.5357 26.1024 48.7633 25.1452C49.2482 24.7888 49.7227 24.4221 50.2694 24.1675C50.517 24.0453 50.7749 24.2388 50.94 24.4018C51.3526 24.8193 51.693 25.3081 52.085 25.746C53.0341 26.8459 54.2307 27.7318 55.5409 28.3632C57.7485 29.4223 60.1933 29.85 62.6176 30.0232C65.3719 30.1963 68.1572 30.0944 70.86 29.5242C72.0051 29.2797 73.1295 28.9539 74.1921 28.4752C74.9348 28.1392 75.6466 27.7318 76.2449 27.1717C76.4925 26.9171 76.7401 26.632 76.8433 26.2858C76.967 25.858 76.8742 25.3794 76.5957 25.0433C76.2862 24.6665 75.8529 24.4221 75.4093 24.2286C74.419 23.7908 73.3358 23.5667 72.2733 23.363C69.7149 22.9048 67.1153 22.7011 64.526 22.5382C61.6582 22.3752 58.7801 22.1715 55.9432 21.7337C54.3442 21.4791 52.7349 21.1634 51.2082 20.6134C50.3726 20.2978 49.5267 19.9006 48.8871 19.2692C48.4229 18.8008 48.1443 18.1286 48.2062 17.4769C48.2681 16.8149 48.6292 16.2345 49.0521 15.7457C49.7536 14.9513 50.6305 14.3403 51.5383 13.8108C52.9619 12.9757 54.4783 12.3341 56.036 11.774C58.5531 10.8982 61.163 10.2363 63.8142 9.89004C65.1244 9.71692 66.4448 9.59472 67.7549 9.53361Z" fill="#B79859"/>
            <path d="M33.4134 11.0612C34.6203 10.3891 36.1265 10.1244 37.4572 10.5826C36.5185 10.8881 35.6829 11.4584 34.9298 12.0796C34.1767 12.7721 33.5475 13.597 33.011 14.4626C32.6087 15.1245 32.2889 15.817 31.9176 16.4891C31.3914 17.4362 30.6693 18.2917 29.7822 18.9332C29.0188 19.473 28.1832 19.9312 27.2754 20.1756C26.2438 20.4404 25.1503 20.5015 24.1084 20.2571C24.913 19.9109 25.7074 19.5442 26.4398 19.0656C27.3167 18.4953 28.111 17.7723 28.7093 16.9169C29.2045 16.2142 29.6068 15.4504 29.9885 14.6866C30.7519 13.1896 31.9382 11.8963 33.4134 11.0612Z" fill="#B79859"/>
            <path d="M2.10449 12.2422C2.4965 12.5681 2.9504 12.8125 3.4043 13.0263C3.88915 13.2504 4.39463 13.4439 4.91042 13.5864C6.45781 13.953 8.0671 13.9632 9.64543 13.8207C10.481 13.7494 11.3166 13.7494 12.1419 13.8919C13.1941 14.0549 14.1844 14.452 15.0922 14.9918C16.3198 15.725 17.2895 16.8961 17.7331 18.2506C17.0729 17.8025 16.392 17.3748 15.6596 17.0387C14.8034 16.6415 13.8956 16.3564 12.9672 16.2342C12.2244 16.1323 11.4817 16.1527 10.7389 16.1731C10.1715 16.1935 9.61449 16.2647 9.04711 16.2749C8.15994 16.2953 7.26245 16.1935 6.39592 15.9694C5.44685 15.725 4.51842 15.3584 3.73441 14.7474C2.92977 14.1262 2.27986 13.2504 2.10449 12.2422Z" fill="#B79859"/>
            <path d="M36.539 15.8168C37.8181 15.6538 39.2005 15.8982 40.2114 16.7027C39.2108 16.7027 38.2308 16.9573 37.3023 17.3036C36.2604 17.7517 35.3011 18.3729 34.4345 19.0857C33.6918 19.6866 33.0419 20.3994 32.2579 20.9493C31.4945 21.5094 30.6279 21.9168 29.7098 22.1612C28.7917 22.4056 27.8426 22.538 26.9039 22.4362C25.9239 22.3343 24.9645 22.0288 24.1289 21.5196C25.2637 21.4483 26.3984 21.3058 27.4816 20.9392C28.2862 20.6846 29.0599 20.2976 29.7511 19.8088C30.3081 19.4116 30.8343 18.9635 31.3501 18.4951C31.9793 17.8841 32.6808 17.3239 33.4545 16.8861C34.4139 16.3565 35.4558 15.9593 36.539 15.8168Z" fill="#B79859"/>
            <path d="M7.74726 17.6395C8.67569 17.2321 9.66602 16.9368 10.677 16.8554C11.461 16.7942 12.2553 16.835 13.0187 16.9877C14.5248 17.2525 15.9381 18.0468 16.8872 19.2281C15.7008 18.9023 14.4732 18.668 13.225 18.6986C11.5951 18.6986 10.0477 19.2994 8.57253 19.941C7.01483 20.6131 5.27144 20.8983 3.57963 20.6844C2.42424 20.5317 1.27917 20.053 0.474533 19.1976C0.299162 19.0245 0.185687 18.8004 0 18.6273V18.6069C1.03159 18.9328 2.12508 19.0245 3.20825 18.9532C4.78659 18.7903 6.30303 18.2811 7.74726 17.6395Z" fill="#B79859"/>
            <path fill-rule="evenodd" clip-rule="evenodd" d="M93.4519 18.159C94.6279 18.047 95.8039 18.2608 96.9593 18.5053C97.5061 18.6071 98.0528 18.7802 98.6202 18.7191C99.0947 18.6784 99.5693 18.5562 100.033 18.4849C100.219 18.4747 100.456 18.434 100.56 18.6173C100.663 18.8108 100.601 19.0348 100.601 19.2385C100.487 21.3363 100.364 23.4545 100.425 25.5625C100.456 26.1939 100.487 26.8457 100.663 27.4669C100.745 27.7215 100.848 28.0066 101.096 28.139C101.364 28.2816 101.674 28.1899 101.932 28.0779C102.365 27.8844 102.664 27.5076 103.046 27.2632C103.262 27.0901 103.665 27.3039 103.572 27.5891C103.5 27.7622 103.386 27.915 103.283 28.0677C102.643 29.0148 101.88 29.86 101.044 30.634C100.436 31.1737 99.7756 31.6829 99.0122 31.9986C98.5686 32.1717 98.0734 32.2838 97.6195 32.1208C97.0831 31.9375 96.7014 31.4996 96.4435 31.021C96.0206 30.247 95.8452 29.3712 95.7627 28.5056C95.6492 27.4363 95.6905 26.3569 95.7833 25.2978C95.7936 25.1857 95.8143 25.0839 95.7833 24.9821C95.7008 24.9617 95.6595 25.0432 95.6079 25.1043C94.3597 26.7337 92.9774 28.2816 91.4197 29.636C90.6872 30.2776 89.9032 30.8784 89.0573 31.3774C88.3352 31.7848 87.5512 32.1616 86.695 32.2023C85.7975 32.2125 84.9619 31.6626 84.5286 30.909C83.9716 29.9721 83.9716 28.8519 84.0128 27.8029C84.1057 25.7866 84.8587 23.8109 86.1689 22.2528C86.8703 21.4076 87.7163 20.6846 88.655 20.1041C89.3771 19.6356 90.1095 19.1774 90.8936 18.8311C91.6982 18.4645 92.5647 18.2303 93.4519 18.159ZM91.007 20.3485C90.2127 20.4809 89.635 21.1326 89.2946 21.8048C88.7169 22.9453 88.5828 24.2488 88.5931 25.5014C88.6137 26.143 88.6344 26.7948 88.8613 27.3956C88.9645 27.6807 89.1708 27.9659 89.47 28.0575C89.7382 28.139 90.0064 28.0779 90.2643 28.0168C90.8317 27.8437 91.3371 27.528 91.8117 27.1919C92.5441 26.6522 93.2043 26.0208 93.8233 25.369C94.5041 24.6256 95.1437 23.8415 95.7111 23.0064C95.938 22.6398 96.1959 22.2732 96.3197 21.8557C96.3919 21.6724 96.2372 21.5094 96.1031 21.4076C95.773 21.1632 95.381 21.0308 94.9993 20.8984C94.174 20.6336 93.3178 20.4809 92.4513 20.3892C91.9664 20.3383 91.4816 20.2874 91.007 20.3485Z" fill="#B79859"/>
            <path d="M152.655 18.159C153.976 18.0571 155.337 18.1895 156.585 18.6274C157.163 18.8413 157.761 19.1264 158.153 19.6152C158.319 19.8087 158.133 20.0531 157.968 20.1753C157.029 20.9289 156.039 21.6316 154.997 22.2324C154.801 22.3648 154.502 22.3139 154.378 22.1102C154.388 21.9066 154.687 21.764 154.594 21.54C154.295 21.1326 153.821 20.8984 153.367 20.6947C152.325 20.2568 151.201 20.0226 150.076 19.9819C149.323 19.9819 148.591 20.2466 147.961 20.6336C147.724 20.7965 147.487 20.9697 147.342 21.2141C147.229 21.3974 147.353 21.6112 147.466 21.764C147.838 22.2223 148.395 22.4972 148.921 22.7314C151.046 23.6378 153.398 23.7091 155.605 24.3201C156.173 24.4729 156.73 24.7071 157.204 25.0533C157.555 25.3079 157.854 25.644 157.957 26.0717C158.061 26.4485 157.968 26.8558 157.741 27.1817C157.225 27.9455 156.482 28.526 155.74 29.0657C154.048 30.247 152.16 31.1737 150.179 31.8051C148.859 32.2124 147.456 32.4874 146.063 32.355C144.898 32.2735 143.763 31.968 142.649 31.6116C141.947 31.4079 141.215 31.1533 140.472 31.2959C140.204 31.3468 139.977 31.4894 139.76 31.6422C139.564 31.7949 139.203 31.6523 139.203 31.3876C139.203 31.1126 139.399 30.8987 139.544 30.6849C140.142 29.8702 140.802 29.1064 141.514 28.3936C141.803 28.1288 142.102 27.864 142.432 27.6502C142.628 27.5381 142.845 27.4057 143.082 27.477C143.35 27.5585 143.546 27.7622 143.763 27.9353C144.382 28.4852 145.052 28.9944 145.826 29.3203C146.971 29.8193 148.24 29.9822 149.478 29.972C150.478 29.9415 151.51 29.7989 152.377 29.2694C152.717 29.0555 153.068 28.7194 153.037 28.2917C152.996 27.8538 152.645 27.5381 152.294 27.3243C151.83 27.0595 151.324 26.8966 150.819 26.7642C148.952 26.3365 147.064 25.9495 145.197 25.532C144.485 25.3792 143.742 25.1959 143.164 24.7274C142.814 24.4525 142.566 24.0248 142.597 23.5767C142.597 23.0064 142.968 22.5278 143.35 22.1204C144.01 21.4381 144.825 20.9086 145.651 20.4299C147.415 19.4523 149.333 18.7293 151.314 18.3423C151.761 18.2608 152.208 18.1997 152.655 18.159Z" fill="#B79859"/>
            <path d="M107.213 18.6888C107.554 18.5259 107.894 18.3528 108.266 18.2917C108.647 18.2408 108.988 18.475 109.204 18.7499C109.607 19.2591 109.792 19.9007 109.937 20.5117C110.195 21.7541 110.226 23.0169 110.195 24.2695C110.205 24.4222 110.195 24.5954 110.318 24.6972C110.968 24.0658 111.587 23.4141 112.278 22.8132C113.754 21.5199 115.332 20.3182 117.127 19.4628C117.921 19.1064 118.767 18.7805 119.665 18.811C120.201 18.8212 120.748 19.0758 121.068 19.5137C121.439 20.0331 121.522 20.7052 121.48 21.3264C121.336 23.0373 121.15 24.7481 121.202 26.4692C121.222 26.8663 121.243 27.2737 121.398 27.6403C121.48 27.8338 121.656 27.9967 121.883 28.0171C122.171 28.0578 122.45 27.8949 122.677 27.7421C122.966 27.5486 123.203 27.2737 123.512 27.1209C123.76 26.9885 124.173 27.2431 124.028 27.5283C123.564 28.3226 122.945 29.0151 122.295 29.6668C121.625 30.3186 120.913 30.9296 120.119 31.4184C119.737 31.6425 119.335 31.8461 118.901 31.9582C118.416 32.0804 117.87 31.9989 117.478 31.673C117.158 31.4082 116.972 31.0314 116.848 30.6445C116.529 29.6566 116.487 28.6179 116.456 27.5894C116.425 26.3571 116.487 25.1249 116.56 23.8927C116.549 23.4242 116.529 22.9252 116.291 22.5179C116.157 22.2939 115.899 22.1513 115.641 22.2022C115.249 22.2837 114.919 22.5281 114.6 22.7521C113.929 23.2409 113.31 23.801 112.722 24.3815C110.473 26.5914 108.472 29.0151 106.491 31.449C106.285 31.673 106.058 31.9378 105.728 31.9683C105.573 31.9887 105.408 31.8767 105.398 31.7137C105.326 31.1842 105.377 30.6445 105.398 30.1149C105.46 28.7401 105.532 27.3653 105.573 25.9803C105.594 25.0944 105.604 24.1982 105.501 23.3122C105.429 22.7827 105.356 22.2226 105.088 21.7439C104.985 21.5912 104.82 21.3875 104.614 21.4588C104.273 21.5606 104.026 21.8152 103.716 21.968C103.448 22.1207 103.077 21.7949 103.159 21.5199C103.345 21.2653 103.623 21.082 103.861 20.8783C104.923 20.0738 106.037 19.3202 107.213 18.6888Z" fill="#B79859"/>
            <path d="M9.20183 20.4505C10.1096 19.9617 11.1206 19.6766 12.1419 19.5442C13.5036 19.3507 14.9065 19.6155 16.1238 20.2367C16.2373 20.2876 16.3405 20.3487 16.4333 20.4302C15.5564 20.4913 14.6796 20.5829 13.8234 20.7968C12.8846 21.031 11.9768 21.3976 11.1722 21.917C10.5016 22.3447 9.893 22.8641 9.30499 23.3936C8.60351 24.0759 7.82981 24.6971 6.96328 25.1554C5.77694 25.7766 4.44619 26.2247 3.08449 26.1738C2.11479 26.1432 1.13478 25.8479 0.361084 25.2369C1.16573 25.2572 1.94974 25.0739 2.7028 24.8499C3.43523 24.636 4.10576 24.2694 4.74535 23.8723C5.64284 23.3223 6.44748 22.64 7.22117 21.9272C7.8195 21.3569 8.4694 20.8477 9.20183 20.4505Z" fill="#B79859"/>
            <path fill-rule="evenodd" clip-rule="evenodd" d="M158.556 20.9801C158.999 20.8681 159.505 21.031 159.773 21.4078C160.083 21.8355 160 22.5076 159.577 22.8437C159.175 23.1797 158.535 23.1797 158.133 22.8437C157.731 22.5178 157.627 21.8966 157.906 21.4587C158.05 21.2245 158.288 21.0514 158.556 20.9801ZM158.607 21.143C158.143 21.2652 157.865 21.7846 157.989 22.2429C158.081 22.7011 158.587 23.027 159.051 22.9048C159.557 22.803 159.856 22.2327 159.711 21.754C159.598 21.2958 159.072 21.0004 158.607 21.143Z" fill="#B79859"/>
            <path d="M33.269 21.5604C34.5791 21.1938 35.9821 21.0818 37.3231 21.316C38.6126 21.5502 39.8918 22.2223 40.5727 23.3527C39.8918 23.0981 39.1594 23.0269 38.4373 22.9759C37.9524 22.9658 37.4572 22.9658 36.9724 23.0472C35.7757 23.2102 34.5997 23.5768 33.4856 24.0452C32.7119 24.3711 31.9485 24.7072 31.1336 24.9007C29.7719 25.2367 28.3173 25.1756 26.9659 24.8294C25.6971 24.4831 24.5211 23.7397 23.6958 22.7112C24.9131 23.0472 26.1716 23.2916 27.4302 23.2407C28.4927 23.2305 29.5346 22.9759 30.5249 22.6093C31.4534 22.2835 32.3199 21.815 33.269 21.5604Z" fill="#B79859"/>
            <path fill-rule="evenodd" clip-rule="evenodd" d="M158.432 21.3975C158.669 21.4077 158.917 21.3669 159.164 21.4178C159.381 21.4789 159.433 21.7743 159.329 21.9474C159.268 22.039 159.154 22.0696 159.061 22.1103C159.175 22.2936 159.298 22.4769 159.412 22.6501C159.329 22.6501 159.254 22.6501 159.185 22.6501C159.061 22.4769 158.948 22.3038 158.845 22.1205C158.769 22.1205 158.697 22.1205 158.628 22.1205C158.628 22.297 158.628 22.4735 158.628 22.6501C158.559 22.6501 158.494 22.6501 158.432 22.6501C158.425 22.2359 158.425 21.8184 158.432 21.3975ZM158.628 21.5502C158.628 21.686 158.628 21.8184 158.628 21.9474C158.783 21.9372 158.937 21.9576 159.082 21.9168C159.175 21.8659 159.175 21.7437 159.144 21.6521C159.01 21.5197 158.803 21.5706 158.628 21.5502Z" fill="#B79859"/>
            <path d="M11.9458 22.3138C13.3179 21.5806 14.9684 21.3667 16.4849 21.6824C15.2573 22.2018 14.0503 22.823 13.06 23.7192C12.0903 24.5542 11.4197 25.6643 10.842 26.7845C10.3985 27.7112 9.85172 28.5972 9.13992 29.3406C8.49001 30.0229 7.72664 30.6339 6.87041 31.0514C5.71503 31.6013 4.35333 31.7846 3.12573 31.3773C4.04385 31.0616 4.86912 30.5219 5.60155 29.9108C6.75694 28.8721 7.61316 27.5482 8.30433 26.1633C8.72728 25.2773 9.25339 24.4218 9.97551 23.7294C10.5429 23.1591 11.2237 22.6906 11.9458 22.3138Z" fill="#B79859"/>
            <path d="M12.9259 24.9311C13.9575 23.7803 15.443 23.0471 16.98 22.8638C16.0722 23.6785 15.2263 24.5848 14.6177 25.6439C13.8956 26.866 13.648 28.2917 13.5139 29.6766C13.4314 30.7052 13.1941 31.7134 12.7608 32.6503C12.3791 33.4548 11.9046 34.2287 11.2444 34.85C10.3779 35.6952 9.19152 36.2451 7.95361 36.2451C8.35593 35.9498 8.69636 35.5832 8.99552 35.1962C9.33595 34.7583 9.64543 34.3102 9.89301 33.8112C10.5326 32.4466 10.8214 30.9394 10.9452 29.4424C11.0174 28.6583 11.1825 27.8843 11.4817 27.1511C11.8118 26.3262 12.3172 25.5828 12.9259 24.9311Z" fill="#B79859"/>
            <path d="M22.8601 23.6992C23.7782 24.3306 24.7582 24.9009 25.8105 25.2777C26.6976 25.5934 27.6364 25.7665 28.5751 25.7869C29.8337 25.848 31.1025 25.6137 32.3714 25.6952C33.4339 25.7563 34.4862 25.9905 35.4662 26.3979C36.3121 26.7543 37.0961 27.2737 37.6635 27.9967C38.0658 28.4957 38.3753 29.0864 38.4784 29.7178C38.1689 29.4326 37.7873 29.229 37.4159 29.0355C36.8382 28.7503 36.2502 28.5059 35.6209 28.3532C34.5893 28.1189 33.5371 28.0171 32.4745 28.0476C31.7834 28.0476 31.1025 28.1189 30.4114 28.1597C29.1631 28.2208 27.8943 28.0578 26.7492 27.5792C25.9343 27.233 25.1502 26.8154 24.5003 26.2146C23.7576 25.5323 23.1593 24.6667 22.8601 23.6992Z" fill="#B79859"/>
            <path d="M14.7208 27.2938C15.2366 25.7765 16.4126 24.5035 17.8671 23.811C17.2791 24.9516 16.7737 26.1635 16.6292 27.4364C16.4951 28.4446 16.6292 29.4528 16.8665 30.4304C16.98 30.9905 17.176 31.5303 17.2895 32.0904C17.5783 33.3633 17.5577 34.7177 17.2069 35.9805C16.9593 36.8767 16.4848 37.7321 15.7936 38.3737C15.3501 38.7708 14.8446 39.0967 14.2669 39.28C14.5764 38.8218 14.7724 38.3024 14.9271 37.783C15.0612 37.3146 15.1644 36.8461 15.2056 36.3675C15.2675 35.2982 15.1644 34.2187 14.9168 33.1698C14.7414 32.345 14.4423 31.5506 14.3391 30.7054C14.1637 29.5648 14.3081 28.3733 14.7208 27.2938Z" fill="#B79859"/>
            <path d="M21.7046 24.3608C22.241 25.0839 22.7981 25.8069 23.4789 26.4078C24.1495 27.029 24.9129 27.5483 25.7485 27.9149C26.5015 28.251 27.2958 28.4852 28.0902 28.6991C29.0908 28.9435 30.0708 29.2694 30.958 29.7786C31.7936 30.2572 32.5879 30.8478 33.1965 31.5912C33.9702 32.5383 34.4241 33.7909 34.2075 35.0028C33.6917 34.1779 32.9593 33.5058 32.1753 32.9355C31.2365 32.3143 30.1946 31.856 29.1218 31.5098C28.1933 31.1941 27.2133 31.0413 26.3055 30.6747C25.3564 30.3183 24.4899 29.7684 23.7575 29.0759C23.1592 28.4954 22.6021 27.8437 22.2514 27.0799C21.849 26.2346 21.6633 25.2876 21.7046 24.3608Z" fill="#B79859"/>
            <path d="M17.4648 27.3959C17.6814 26.2757 18.2488 25.2268 19.0534 24.4121C18.9709 25.1453 18.9193 25.8887 18.9606 26.6321C19.0225 27.6505 19.2597 28.6689 19.7136 29.5854C20.1263 30.4307 20.673 31.2046 21.2404 31.9582C21.8284 32.7729 22.3133 33.6793 22.5918 34.6467C22.8806 35.6549 23.0147 36.7344 22.7672 37.7629C22.6124 38.4859 22.2514 39.1581 21.7562 39.708C21.6221 39.8506 21.4673 39.9728 21.3436 40.1255H21.3229C21.4777 39.3617 21.4158 38.5776 21.3023 37.8138C21.1682 36.9788 20.8278 36.1946 20.4564 35.441C20.0231 34.5958 19.4764 33.8218 18.9193 33.0682C18.2385 32.1517 17.702 31.113 17.4957 29.9928C17.341 29.1373 17.31 28.2514 17.4648 27.3959Z" fill="#B79859"/>
            <path d="M20.3741 24.6255C20.5598 25.1652 20.6939 25.7253 20.9208 26.2549C21.2819 27.1714 21.777 28.037 22.4373 28.7804C23.0872 29.5238 23.8918 30.1043 24.6964 30.6644C25.6146 31.2449 26.4914 31.917 27.1826 32.7622C27.8015 33.5056 28.3173 34.3509 28.5959 35.2776C28.926 36.3774 28.8641 37.6402 28.2348 38.628C28.1832 38.18 28.0182 37.7624 27.8428 37.3551C27.5952 36.8255 27.3064 36.3062 26.9556 35.8377C26.3573 35.0943 25.6661 34.4222 24.9131 33.8315C24.3663 33.4038 23.7783 33.027 23.2006 32.64C22.2413 31.9679 21.385 31.1329 20.8177 30.1145C20.4153 29.4016 20.1059 28.6379 19.9717 27.8435C19.7964 26.7641 19.9305 25.6337 20.3741 24.6255Z" fill="#B79859"/>
        </g>
    </g>
    <defs>
        <clipPath id="clip0_38_534">
            <rect width="160" height="40" fill="white" transform="translate(0 0.610352)"/>
        </clipPath>
        <clipPath id="clip1_38_534">
            <rect width="160" height="39.6581" fill="white" transform="translate(0 1)"/>
        </clipPath>
    </defs>
</svg>
