<svg width="160" height="41" viewBox="0 0 160 41" fill="none" xmlns="http://www.w3.org/2000/svg">
    <g clip-path="url(#clip0_40_167)">
        <path d="M28.3808 20.147C28.3808 21.1194 27.5653 21.9177 26.575 21.9177H23.9013C22.9128 21.9177 22.0964 21.1194 22.0964 20.147V13.1467C22.0964 12.1771 22.9128 11.3815 23.9013 11.3815H26.575C27.5653 11.3815 28.3808 12.1771 28.3808 13.1467V20.147ZM26.575 8.76028H23.9013C21.4278 8.76028 19.4209 10.7278 19.4209 13.1467V20.147C19.4209 22.5714 21.4278 24.5371 23.9013 24.5371H26.575C27.7168 24.5371 28.7577 24.1187 29.5498 23.4284C30.4728 22.6254 31.0535 21.4517 31.0535 20.147V13.1467C31.0535 10.7278 29.0494 8.76028 26.575 8.76028Z" fill="#5A7584"/>
        <path d="M1.34011 1.0003C0.385294 1.0003 0 1.3409 0 2.0065V23.5248C0 24.2169 0.385294 24.5337 1.34011 24.5337C2.28931 24.5337 2.6774 24.1894 2.6774 23.5248V2.0065C2.6774 1.31435 2.28931 1.0003 1.34011 1.0003Z" fill="#5A7584"/>
        <path d="M57.8254 21.9134L53.3497 21.918C52.3621 21.918 51.5457 21.1196 51.5457 20.1482V13.147C51.5457 12.1774 52.3621 11.4084 53.3497 11.4084L57.8254 11.4038V21.9134ZM59.1702 1.00033H59.1674H59.1646C58.2145 1.00033 57.8255 1.34092 57.8255 2.00561V8.75598C56.8959 8.75598 53.3497 8.76058 53.3497 8.76058C50.879 8.76058 48.873 10.7281 48.873 13.147V20.1482C48.873 22.5726 50.879 24.5319 53.3497 24.5319C53.3497 24.5319 59.2722 24.5392 59.3227 24.5319C60.1615 24.4971 60.5066 24.1547 60.5066 23.5248V2.00561C60.5066 1.31437 60.1203 1.00033 59.1702 1.00033Z" fill="#5A7584"/>
        <path d="M79.6184 1.0003C78.6673 1.0003 78.2783 1.3409 78.2783 2.0065V23.5248C78.2783 24.2169 78.6673 24.5337 79.6184 24.5337C80.5742 24.5337 80.9595 24.1894 80.9595 23.5248V2.0065C80.9595 1.31435 80.5742 1.0003 79.6184 1.0003Z" fill="#5A7584"/>
        <path d="M157.711 1.0003C156.762 1.0003 156.371 1.3409 156.371 2.0065V23.5248C156.371 24.2169 156.762 24.5337 157.711 24.5337C158.668 24.5337 159.053 24.1894 159.053 23.5248V2.0065C159.053 1.31435 158.668 1.0003 157.711 1.0003Z" fill="#5A7584"/>
        <path d="M151.195 1.0003C150.245 1.0003 149.861 1.3409 149.861 2.0065V23.5248C149.861 24.2169 150.245 24.5337 151.195 24.5337C152.151 24.5337 152.537 24.1894 152.537 23.5248V2.0065C152.537 1.31435 152.151 1.0003 151.195 1.0003Z" fill="#5A7584"/>
        <path d="M86.1554 1.0003C85.2015 1.0003 84.8115 1.3409 84.8115 2.0065V23.5248C84.8115 24.2169 85.2015 24.5337 86.1554 24.5337C87.1092 24.5337 87.4927 24.1894 87.4927 23.5248V2.0065C87.4927 1.31435 87.1092 1.0003 86.1554 1.0003Z" fill="#5A7584"/>
        <path d="M100.312 20.1471C100.312 21.1194 99.497 21.9177 98.5076 21.9177L94.029 21.9131V14.0275V11.4035L98.5076 11.4081C99.497 11.4081 100.312 12.1772 100.312 13.1467V20.1471ZM98.5076 8.76031C98.5076 8.76031 94.9605 8.75571 94.029 8.75571V2.00533C94.029 1.34064 93.6438 1.00006 92.6927 1.00006H92.688C91.7379 1.00006 91.3479 1.31409 91.3479 2.00533V23.5236C91.3479 24.1544 91.6967 24.4913 92.5337 24.5261C92.5814 24.5335 98.5076 24.5371 98.5076 24.5371C100.98 24.5371 102.982 22.5714 102.982 20.147V13.1467C102.982 10.7278 100.98 8.76031 98.5076 8.76031Z" fill="#5A7584"/>
        <path d="M137.841 12.2633C137.841 11.8083 138.247 11.4082 138.74 11.4082H143.218C143.717 11.4082 144.125 11.8083 144.125 12.2633V15.3396H137.841V12.2633ZM145.776 21.9142C145.673 21.9142 138.74 21.9177 138.74 21.9177C138.247 21.9177 137.841 21.5194 137.841 21.0333V17.9598H145.46C146.245 17.9598 146.8 17.4168 146.8 16.6459V12.2632C146.8 10.3552 145.199 8.76027 143.218 8.76027H138.74C136.766 8.76027 135.166 10.3552 135.166 12.2632V21.0333C135.166 22.9706 136.766 24.5371 138.74 24.5371H145.776C146.483 24.5371 146.805 24.1562 146.805 23.2251C146.805 22.2903 146.455 21.9142 145.776 21.9142Z" fill="#5A7584"/>
        <path d="M124.052 11.3817H131.077C131.789 11.3817 132.107 11.0045 132.107 10.0678C132.107 9.13673 131.762 8.75586 131.077 8.75586C131.064 8.75586 124.052 8.76045 124.052 8.76045C122.072 8.76045 120.471 10.3279 120.471 12.2634V14.0276C120.471 15.6509 121.666 17.1625 123.321 17.4445L128.707 18.415C129.113 18.5019 129.43 18.8663 129.43 19.2664V21.0325C129.43 21.5196 129.024 21.9179 128.53 21.9179C128.53 21.9179 121.596 21.9133 121.5 21.9133C120.788 21.9133 120.471 22.2905 120.471 23.2198C120.471 24.1564 120.821 24.5336 121.5 24.5336C121.518 24.5336 128.53 24.5371 128.53 24.5371C130.51 24.5371 132.107 22.9697 132.107 21.0324V19.2663C132.107 17.6439 130.917 16.136 129.256 15.8503L123.878 14.8808C123.468 14.7965 123.151 14.4257 123.151 14.0275V12.2632C123.151 11.7798 123.553 11.3817 124.052 11.3817Z" fill="#5A7584"/>
        <path d="M45.7453 12.2632C45.7453 10.3286 44.1443 8.76027 42.1692 8.76027H37.7029C35.7268 8.76027 34.1268 10.3286 34.1268 12.2632C34.1268 12.2632 34.1221 23.4302 34.1221 23.5245C34.1221 24.2222 34.5111 24.5371 35.4631 24.5371C36.417 24.5371 36.8013 24.1938 36.8013 23.5245V12.2632C36.8013 11.7798 37.2091 11.3815 37.7029 11.3815H42.1692C42.6611 11.3815 43.0679 11.7798 43.0679 12.2632V23.5245C43.0679 24.2222 43.4551 24.5371 44.4052 24.5371H44.408C45.3619 24.5371 45.7491 24.1938 45.7491 23.5245V19.0722L45.7453 12.2632Z" fill="#5A7584"/>
        <path d="M114.691 21.9131L109.314 21.9177C108.819 21.9177 108.407 21.5195 108.407 21.0324V18.8406C108.407 18.3572 108.819 17.9598 109.314 17.9598H114.691V21.9131ZM113.792 8.7603C113.792 8.7603 107.305 8.75571 107.208 8.75571C106.501 8.75571 106.179 9.13108 106.179 10.0677C106.179 11.0006 106.529 11.3815 107.208 11.3815H113.792C114.283 11.3815 114.691 11.7798 114.691 12.2632V15.3395H109.314C107.332 15.3395 105.733 16.9014 105.733 18.8405V21.0324C105.733 22.9697 107.332 24.5371 109.314 24.5371H116.031C116.756 24.5371 117.366 23.9374 117.366 23.2251V12.2632C117.366 10.3277 115.769 8.7603 113.792 8.7603Z" fill="#5A7584"/>
        <path d="M66.2415 12.2633C66.2415 11.8083 66.6492 11.4082 67.143 11.4082H71.6234C72.1172 11.4082 72.5249 11.8083 72.5249 12.2633V15.3396H66.2415V12.2633ZM74.1764 21.9142C74.0736 21.9142 67.143 21.9177 67.143 21.9177C66.6492 21.9177 66.2415 21.5194 66.2415 21.0333V17.9598H73.8622C74.6468 17.9598 75.2004 17.4168 75.2004 16.6459V12.2632C75.2004 10.3552 73.6004 8.76027 71.6234 8.76027H67.143C65.166 8.76027 63.5669 10.3552 63.5669 12.2632V21.0333C63.5669 22.9706 65.166 24.5371 67.143 24.5371H74.1764C74.89 24.5371 75.207 24.1562 75.207 23.2251C75.207 22.2903 74.8563 21.9142 74.1764 21.9142Z" fill="#5A7584"/>
        <path d="M16.9799 8.88789C16.0438 8.67639 15.4865 9.14424 15.2985 9.67435L11.338 20.6198L7.36168 9.65695C7.16996 9.12502 6.51628 8.63702 5.6419 8.87964C4.50192 9.19734 4.6291 10.0516 4.74226 10.3619L9.94836 24.5896L9.27224 26.4757C9.27025 26.4839 9.09268 27.2155 8.09485 27.2155H6.55743C6.07955 27.2155 5.64096 27.3711 5.64096 28.5009C5.64096 29.4155 5.99165 29.7891 6.85201 29.7891H8.00321C9.41438 29.7891 10.9555 29.5117 11.6962 27.47L17.8796 10.3775C17.9927 10.0635 18.0601 9.13234 16.9799 8.88789Z" fill="#5A7584"/>
        <path d="M152.543 30.8264C152.543 30.1315 152.158 29.8156 151.206 29.8156C150.253 29.8156 149.865 30.1589 149.865 30.8264V39.9856C149.865 40.6823 150.253 40.9927 151.206 40.9927C152.158 40.9927 152.543 40.6521 152.543 39.9856V30.8264ZM159.046 30.8264C159.046 30.1315 158.657 29.8156 157.706 29.8156C156.753 29.8156 156.366 30.1589 156.366 30.8264V39.9856C156.366 40.6823 156.753 40.9927 157.706 40.9927C158.657 40.9927 159.046 40.6512 159.046 39.9856V30.8264ZM60.5055 30.8264C60.5055 30.1315 60.1183 29.8156 59.1644 29.8156C58.2134 29.8156 57.8243 30.1589 57.8243 30.8264C57.8243 31.253 57.8263 39.894 57.8263 39.9856C57.8263 40.6823 58.2135 40.9927 59.1646 40.9927C60.1184 40.9927 60.5056 40.6521 60.5056 39.9856L60.5055 30.8264ZM94.0483 30.8264C94.0483 30.1315 93.6602 29.8156 92.7072 29.8156C91.7543 29.8156 91.3681 30.1589 91.3681 30.8264V39.9929C91.3681 40.6905 91.7543 41 92.7072 41C93.6602 41 94.0483 40.6594 94.0483 39.9929V30.8264ZM87.4871 30.8264C87.4871 30.1315 87.1009 29.8156 86.1479 29.8156C85.1959 29.8156 84.8097 30.1589 84.8097 30.8264V39.9856C84.8097 40.6823 85.1959 40.9927 86.1479 40.9927C87.1009 40.9927 87.4871 40.6521 87.4871 39.9856V30.8264ZM80.9456 30.8264C80.9456 30.1315 80.5593 29.8156 79.6064 29.8156C78.6535 29.8156 78.2672 30.1589 78.2672 30.8264V39.9856C78.2672 40.6823 78.6535 40.9927 79.6064 40.9927C80.5593 40.9927 80.9456 40.6521 80.9456 39.9856V30.8264ZM2.67907 39.9856C2.67907 40.6521 2.29284 40.9927 1.33897 40.9927C0.388834 40.9927 0.000732422 40.6823 0.000732422 39.9856V30.8264C0.000732422 30.1589 0.388834 29.8156 1.33897 29.8156C2.29284 29.8156 2.67907 30.1315 2.67907 30.8264V39.9856Z" fill="#009EDB"/>
    </g>
    <defs>
        <clipPath id="clip0_40_167">
            <rect width="160" height="40" fill="white" transform="translate(0 0.610352)"/>
        </clipPath>
    </defs>
</svg>
