<svg width="58" height="40" viewBox="0 0 58 40" fill="none" xmlns="http://www.w3.org/2000/svg">
<path fill-rule="evenodd" clip-rule="evenodd" d="M0.742188 0.698049H9.32433V23.7305C9.32433 27.3755 10.9917 29.5467 12.3101 30.4775C10.9143 31.7182 6.64891 32.804 3.46929 30.1671C1.59469 28.6129 0.742188 26.0571 0.742188 23.6529V0.698049ZM54.3772 19.8306V17.4101H56.9946V8.91846H54.1202C53.0168 3.82028 48.4779 0 43.0496 0C36.7963 0 31.7273 5.06935 31.7273 11.3224V31.153C33.5088 31.4033 35.6312 31.1218 37.437 29.6244C39.3113 28.0698 40.1638 25.5143 40.1638 23.1101V22.3795H44.45V13.8879H40.1638V11.3224H40.1741C40.1741 9.73442 41.4614 8.4471 43.0496 8.4471C44.6376 8.4471 45.9301 9.73442 45.9301 11.3224V19.8306C45.9301 26.0836 51.0045 31.153 57.2576 31.153V22.7058C55.6696 22.7058 54.3772 21.4185 54.3772 19.8306ZM21.8735 8.91846V21.3808C21.8735 22.0883 21.2865 22.6619 20.5622 22.6619C19.8379 22.6619 19.2509 22.0883 19.2509 21.3808V8.91846H10.759V23.5755C10.759 26.2121 11.6532 29.5467 15.7224 30.6325C19.7959 31.7194 22.159 29.4694 22.159 29.4694C21.9437 30.9517 20.5476 32.0374 18.2988 32.2701C16.5972 32.446 14.4211 31.8824 13.3356 31.417V39.1824C16.1015 39.998 19.0271 40.2616 21.8901 39.706C27.0859 38.6979 30.3651 34.3551 30.3651 28.5775V8.91846H21.8735Z" fill="#EA0B8C"/>
</svg>
