<svg width="149" height="40" viewBox="0 0 149 40" fill="none" xmlns="http://www.w3.org/2000/svg">
    <g clip-path="url(#clip0_38_581)">
        <path d="M16.5211 0L12.6434 11.8115H0L10.2069 19.1163L6.37371 30.9867L16.5211 23.6819L26.7131 30.9867L22.8354 19.1163L32.9829 11.8115H20.3989L16.5211 0Z" fill="#E22130"/>
        <path d="M68.4617 10.7657C67.6892 9.99986 66.8572 9.44021 65.8023 9.11621C64.8069 8.73329 63.6332 8.57129 62.3703 8.57129C61.0926 8.57129 59.9337 8.7922 58.76 9.29294C57.6012 9.79367 56.6503 10.5006 55.8777 11.2664L55.8183 11.3253C55.432 11.7672 55.0903 12.209 54.8229 12.695C54.6 13.1368 54.3772 13.5197 54.2732 13.8437C54.1692 13.6228 53.9909 13.2399 53.768 12.857C53.3817 12.1354 53.04 11.5904 52.7726 11.3695C52 10.4859 51.1086 9.88204 49.9497 9.39603C48.7909 8.89529 47.5726 8.67438 46.176 8.67438C45.2846 8.67438 44.0069 8.77747 42.6252 9.44021C41.0206 10.206 39.6834 11.4137 38.7474 13.181V9.23403H37.4697V31.2664H38.7474V18.7333C38.7474 17.3047 38.9109 16.0971 39.2526 14.9925C39.5794 13.8879 40.0846 13.0632 40.7532 12.2384C41.3029 11.4726 42.1349 10.8688 43.0857 10.4859C44.0217 10.044 45.032 9.82313 46.072 9.88204C47.3497 9.94095 48.4492 10.1619 49.4594 10.6037C50.3954 11.0455 51.1829 11.7083 51.8366 12.4741C52.3863 13.2399 52.7726 13.9027 52.9954 14.6685C53.3223 15.5963 53.4412 16.7009 53.4412 18.2473V31.2222H54.7189V18.8069C54.7189 17.2753 54.7783 16.0087 55.0457 14.963C55.328 13.9763 55.7143 13.2105 56.4869 12.209C57.1554 11.3253 57.9874 10.7215 59.1463 10.2797C60.0823 9.95568 61.1372 9.73476 62.1326 9.73476C63.2469 9.73476 64.1829 9.89677 65.0743 10.2355C65.9657 10.5742 66.6194 11.0602 67.2434 11.6641C68.016 12.4299 68.5806 13.3725 68.9074 14.5801C69.2937 15.7878 69.4572 17.1574 69.4572 18.8658V31.2222H70.7349L70.9577 18.8069C70.9577 16.9954 70.7349 15.4049 70.2892 14.0794C69.9029 12.7539 69.3383 11.5904 68.4617 10.7657Z" fill="#231F20"/>
        <path d="M93.6743 14.8304C93.0058 13.2988 91.728 11.7524 90.064 10.6478C88.1178 9.32233 85.8 8.67432 83.3635 8.67432C78.936 8.67432 76.2172 10.6478 74.6572 12.3562C72.7703 14.4475 71.6709 17.3047 71.6709 20.2207C71.6709 23.1368 72.7852 25.9939 74.6572 28.0852C76.1578 29.7347 78.9212 31.7671 83.3635 31.7671C85.6366 31.7671 87.6869 31.2222 89.5143 30.1765C91.2378 29.072 92.6195 27.6434 93.6743 25.7288V31.2811H94.952V9.29287H93.6743V14.8304ZM92.9612 16.097C93.184 16.7008 93.4069 17.3047 93.5109 17.9085C93.6743 18.5712 93.7338 19.2781 93.7338 19.882C93.7932 20.6036 93.7338 21.2516 93.6298 21.8555C93.5258 22.5771 93.3475 23.1809 93.1246 23.7259C92.3966 25.7583 91.1338 27.5108 89.4103 28.6743C87.7463 29.882 85.6366 30.4858 83.4823 30.4858C80.2732 30.4858 77.6138 29.3371 75.6675 27.2457C74.0035 25.3753 72.9486 22.798 72.9486 20.1029C72.9486 17.1868 74.0629 14.6095 75.9349 12.6802C77.8812 10.8098 80.4812 9.71997 83.3635 9.71997C85.4732 9.71997 87.5235 10.3238 89.1875 11.3695C90.9109 12.636 92.2332 14.2266 92.9612 16.097Z" fill="#231F20"/>
        <path d="M99.8399 12.5775C100.999 11.5318 102.173 10.8691 103.331 10.3831C104.49 9.94127 105.768 9.66144 107.328 9.66144H107.432C109.319 9.66144 111.25 10.2064 112.87 11.1489C114.757 12.3566 116.198 14.0061 116.97 16.0974L117.03 16.2005H118.471L118.367 15.9796C117.475 13.5053 115.811 11.4729 113.598 10.1622C111.77 9.05761 109.557 8.5127 107.387 8.5127C104.178 8.5127 101.237 9.72035 99.0674 11.8706C96.8982 14.0208 95.6799 16.981 95.6799 20.1622C95.6799 23.1224 96.8388 25.9796 98.7256 28.0709C100.895 30.4273 103.941 31.6938 107.595 31.6938C109.973 31.6938 112.305 30.9722 114.192 29.6614C116.079 28.3507 117.52 26.5245 118.352 24.3301L118.456 24.1092H117.015L116.955 24.2123C116.406 25.8028 115.232 27.3492 113.687 28.4391C111.919 29.8087 109.646 30.4715 107.313 30.4715C105.931 30.4715 104.594 30.1916 103.317 29.7056C102.039 29.1607 100.984 28.4391 99.9885 27.5554C98.9931 26.5687 98.2651 25.4641 97.7154 24.1533C97.1656 22.8868 96.8834 21.4582 96.8834 20.0296C96.8834 18.6011 97.2102 17.1136 97.7154 15.8028C98.1759 14.5657 98.9485 13.4611 99.8399 12.5775ZM114.801 12.4744C115.797 13.4022 116.629 14.6246 117.178 16.0532C116.629 14.6688 115.797 13.5201 114.801 12.4744Z" fill="#231F20"/>
        <path d="M136.418 9.17529H134.977L134.918 9.27839C134.918 9.38148 132.749 14.3888 130.594 19.4404L126.33 29.3815L122.289 19.4404C119.689 12.8425 118.189 9.32257 118.189 9.27839L118.129 9.17529H116.688L125.558 31.1046L121.561 40H123.002L123.062 39.8969C123.062 39.8969 123.166 39.6171 123.344 39.1753C124.013 37.6436 125.84 33.4021 127.95 28.6304C128.499 27.3638 129.064 26.0531 129.673 24.7276L134.888 12.7983C135.779 10.7659 136.329 9.44039 136.329 9.39621L136.418 9.17529Z" fill="#231F20"/>
        <path d="M146.402 20.5451C145.184 19.6615 143.683 19.2196 142.183 18.8956L142.019 18.8367C140.296 18.336 139.197 17.85 138.469 17.3051C137.637 16.5834 137.191 15.7145 137.131 14.389C137.131 13.7852 137.191 13.1814 137.414 12.6806C137.577 12.1357 137.919 11.6939 138.305 11.252C138.751 10.7513 139.301 10.4273 139.85 10.1475C140.519 9.86766 141.187 9.76456 141.901 9.76456H142.005C142.673 9.76456 143.282 9.86766 143.773 10.0886C144.322 10.3095 144.827 10.6335 145.214 11.0164C145.6 11.3993 145.942 11.9001 146.15 12.445C146.373 12.9899 146.477 13.5937 146.477 14.2565V14.4185H147.754V14.2859C147.754 12.6953 147.145 11.2668 146.15 10.2211C145.095 9.17546 143.654 8.68945 141.886 8.68945C140.341 8.68945 138.84 9.19019 137.726 10.0591C136.448 11.1048 135.839 12.5923 135.839 14.4037C135.898 16.1121 136.507 17.364 137.607 18.3065C138.766 19.2344 140.326 19.7351 141.871 20.118C143.758 20.5599 145.08 21.1637 145.912 21.9295C146.803 22.8132 147.19 23.8588 147.249 25.3316V25.4936C147.249 26.2152 147.145 26.9221 146.863 27.4671C146.581 28.0709 146.254 28.6158 145.749 29.0576C145.303 29.5584 144.694 29.9413 144.085 30.2064C143.416 30.4862 142.703 30.5893 141.975 30.5893C140.37 30.5893 138.929 30.0886 137.934 29.1607C136.938 28.174 136.433 26.8485 136.389 25.2579V25.0959L135.111 25.1548V25.4347C135.111 25.4936 135.111 25.5378 135.111 25.5967C135.111 26.3625 135.274 27.0842 135.557 27.7911C135.839 28.5127 136.225 29.1607 136.775 29.6615C137.443 30.3242 138.216 30.8691 139.107 31.1931C139.999 31.5171 140.935 31.7381 141.99 31.7381C142.926 31.7381 143.817 31.5171 144.649 31.1931C145.481 30.8102 146.194 30.3095 146.818 29.7057C147.368 29.1018 147.873 28.3802 148.155 27.6143C148.482 26.8485 148.601 26.0238 148.542 25.1401C148.453 23.0193 147.725 21.5466 146.402 20.5451Z" fill="#231F20"/>
        <path d="M135.69 7.52599L137.191 6.48033L138.691 7.52599L138.082 5.77341L139.627 4.66884H137.8L137.191 2.96045L136.641 4.66884H134.814L136.255 5.77341L135.69 7.52599Z" fill="#231F20"/>
    </g>
    <defs>
        <clipPath id="clip0_38_581">
            <rect width="148.571" height="40" fill="white"/>
        </clipPath>
    </defs>
</svg>
