<svg width="478" height="372" viewBox="0 0 478 372" fill="none" xmlns="http://www.w3.org/2000/svg">
    <path d="M86.9826 370.809V346.145C86.9826 336.691 81.2385 330.525 71.3913 330.525C66.4677 330.525 61.1339 332.169 57.4412 337.513C54.5691 332.991 50.4661 330.525 44.3116 330.525C40.2086 330.525 36.1057 331.758 32.8233 336.28V331.347H24.207V370.809H32.8233V349.022C32.8233 342.034 36.5159 338.746 42.2601 338.746C48.0043 338.746 50.8764 342.445 50.8764 349.022V370.809H59.4927V349.022C59.4927 342.034 63.5956 338.746 68.9295 338.746C74.6737 338.746 77.5458 342.445 77.5458 349.022V370.809H86.9826ZM214.585 331.347H200.635V319.426H192.019V331.347H184.223V339.157H192.019V357.244C192.019 366.287 195.712 371.631 205.559 371.631C209.251 371.631 213.354 370.398 216.226 368.753L213.765 361.354C211.303 362.998 208.431 363.41 206.379 363.41C202.276 363.41 200.635 360.943 200.635 356.833V339.157H214.585V331.347ZM287.618 330.525C282.695 330.525 279.412 332.991 277.361 336.28V331.347H268.745V370.809H277.361V348.611C277.361 342.034 280.233 338.335 285.567 338.335C287.208 338.335 289.26 338.746 290.901 339.157L293.363 330.936C291.721 330.525 289.259 330.525 287.618 330.525ZM177.248 334.635C173.145 331.758 167.401 330.525 161.247 330.525C151.399 330.525 144.835 335.457 144.835 343.268C144.835 349.845 149.758 353.544 158.374 354.777L162.477 355.188C166.991 356.01 169.452 357.244 169.452 359.299C169.452 362.176 166.17 364.232 160.426 364.232C154.682 364.232 150.169 362.176 147.296 360.121L143.193 366.698C147.707 369.987 153.861 371.631 160.016 371.631C171.504 371.631 178.069 366.287 178.069 358.888C178.069 351.9 172.735 348.2 164.529 346.967L160.426 346.556C156.733 346.145 153.861 345.323 153.861 342.856C153.861 339.979 156.733 338.335 161.247 338.335C166.17 338.335 171.094 340.39 173.555 341.623L177.248 334.635ZM406.195 330.525C401.271 330.525 397.989 332.991 395.937 336.28V331.347H387.321V370.809H395.937V348.611C395.937 342.034 398.809 338.335 404.143 338.335C405.784 338.335 407.836 338.746 409.477 339.157L411.939 330.936C410.297 330.525 407.836 330.525 406.195 330.525ZM296.235 351.078C296.235 362.998 304.441 371.631 317.16 371.631C322.904 371.631 327.007 370.398 331.11 367.109L327.007 360.121C323.725 362.587 320.442 363.821 316.749 363.821C309.774 363.821 304.851 358.888 304.851 351.078C304.851 343.679 309.774 338.746 316.749 338.335C320.442 338.335 323.725 339.568 327.007 342.034L331.11 335.046C327.007 331.758 322.904 330.525 317.16 330.525C304.441 330.525 296.235 339.157 296.235 351.078ZM375.832 351.078V331.347H367.216V336.28C364.344 332.58 360.241 330.525 354.907 330.525C343.829 330.525 335.213 339.157 335.213 351.078C335.213 362.998 343.829 371.631 354.907 371.631C360.651 371.631 364.754 369.575 367.216 365.876V370.809H375.832V351.078ZM344.239 351.078C344.239 344.09 348.753 338.335 356.138 338.335C363.113 338.335 368.037 343.679 368.037 351.078C368.037 358.066 363.113 363.821 356.138 363.821C348.753 363.41 344.239 358.066 344.239 351.078ZM241.255 330.525C229.766 330.525 221.56 338.746 221.56 351.078C221.56 363.41 229.766 371.631 241.665 371.631C247.409 371.631 253.153 369.987 257.667 366.287L253.564 360.121C250.281 362.587 246.178 364.232 242.075 364.232C236.741 364.232 231.407 361.765 230.177 354.777H259.308C259.308 353.544 259.308 352.722 259.308 351.489C259.718 338.746 252.333 330.525 241.255 330.525ZM241.255 337.924C246.589 337.924 250.281 341.212 251.102 347.378H230.587C231.407 342.034 235.1 337.924 241.255 337.924ZM455.02 351.078V315.727H446.404V336.28C443.532 332.58 439.429 330.525 434.095 330.525C423.017 330.525 414.4 339.157 414.4 351.078C414.4 362.998 423.017 371.631 434.095 371.631C439.839 371.631 443.942 369.575 446.404 365.876V370.809H455.02V351.078ZM423.427 351.078C423.427 344.09 427.94 338.335 435.326 338.335C442.301 338.335 447.224 343.679 447.224 351.078C447.224 358.066 442.301 363.821 435.326 363.821C427.94 363.41 423.427 358.066 423.427 351.078ZM135.398 351.078V331.347H126.782V336.28C123.909 332.58 119.806 330.525 114.473 330.525C103.395 330.525 94.7782 339.157 94.7782 351.078C94.7782 362.998 103.395 371.631 114.473 371.631C120.217 371.631 124.32 369.575 126.782 365.876V370.809H135.398V351.078ZM103.395 351.078C103.395 344.09 107.908 338.335 115.293 338.335C122.268 338.335 127.192 343.679 127.192 351.078C127.192 358.066 122.268 363.821 115.293 363.821C107.908 363.41 103.395 358.066 103.395 351.078Z" fill="black"/>
    <path d="M303.619 31.6797H174.375V264.34H303.619V31.6797Z" fill="#FF5F00"/>
    <path d="M182.583 148.013C182.583 100.741 204.739 58.813 238.793 31.683C213.765 11.9521 182.172 0.03125 147.707 0.03125C66.058 0.03125 0 66.2121 0 148.013C0 229.814 66.058 295.995 147.707 295.995C182.172 295.995 213.765 284.074 238.793 264.344C204.739 237.625 182.583 195.285 182.583 148.013Z" fill="#EB001B"/>
    <path d="M477.998 148.013C477.998 229.814 411.94 295.995 330.291 295.995C295.826 295.995 264.233 284.074 239.205 264.344C273.67 237.214 295.416 195.285 295.416 148.013C295.416 100.741 273.26 58.813 239.205 31.683C264.233 11.9521 295.826 0.03125 330.291 0.03125C411.94 0.03125 477.998 66.6231 477.998 148.013Z" fill="#F79E1B"/>
</svg>
