<svg width="39" height="40" viewBox="0 0 39 40" fill="none" xmlns="http://www.w3.org/2000/svg">
    <g clip-path="url(#clip0_40_212)">
        <path fill-rule="evenodd" clip-rule="evenodd" d="M21.1693 37.6089C21.0205 38.055 20.5358 39.1477 19.366 39.1477C18.0374 39.1477 17.5737 37.7083 17.5512 37.6493L17.5132 37.5112C17.5132 37.5112 18.6582 37.6063 19.2887 37.6063C19.9192 37.6063 20.9962 37.5451 21.1727 37.5112L21.1693 37.6089Z" fill="black"/>
        <path fill-rule="evenodd" clip-rule="evenodd" d="M24.6568 36.8989L24.9314 36.9354C24.6055 37.7844 24.0208 38.7363 22.8718 38.7363C21.7598 38.7363 21.2085 38.0919 20.9733 37.6584L20.7811 37.5406C20.7813 37.5404 22.7046 37.477 24.6568 36.8989ZM14.1147 36.8989L13.8406 36.9354C14.1658 37.7844 14.751 38.7363 15.9004 38.7363C17.0121 38.7363 17.6128 38.0558 17.8592 37.6584L17.9904 37.5406C17.9902 37.5404 16.0674 37.477 14.1147 36.8989Z" fill="black"/>
        <path fill-rule="evenodd" clip-rule="evenodd" d="M20.298 37.6969C20.1181 37.9577 19.9979 37.9455 19.7807 37.9455C19.672 37.9455 19.5089 38.0357 19.514 38.1988C19.5175 38.3268 19.6218 38.4337 19.7991 38.4337C20.1915 38.4337 20.4906 37.8852 20.5747 37.6533C20.5747 37.6533 20.807 37.6432 20.8748 37.6366C20.8748 37.6366 20.4586 38.8755 19.3801 38.8755C18.2992 38.8755 17.8591 37.6499 17.8591 37.6499C17.8591 37.6499 18.7685 37.7061 19.2897 37.7061C19.8109 37.7061 20.142 37.7038 20.298 37.6969ZM24.5129 37.1519C23.8077 37.3418 23.3071 37.4953 22.1234 37.6394C22.1234 37.6394 22.1603 37.7617 22.4177 37.748C22.5167 37.7431 22.5293 37.7186 22.566 37.7119C22.639 37.6986 22.7513 37.7753 22.738 37.9041C22.7283 37.9938 22.6513 38.1074 22.3891 38.1074C22.127 38.1074 21.8207 37.8927 21.6668 37.6939C21.6668 37.6939 21.5092 37.73 21.3465 37.7392C21.3465 37.7392 21.8501 38.4448 22.8438 38.4448C23.9374 38.445 24.3409 37.4681 24.5129 37.1519Z" fill="#FFF22D"/>
        <path fill-rule="evenodd" clip-rule="evenodd" d="M23.7795 37.842C23.7795 37.6709 23.7267 37.5125 23.637 37.3813C23.2542 37.4715 22.8165 37.5542 22.1753 37.6338C22.1707 37.6529 22.1665 37.6721 22.1626 37.6913C22.2012 37.7227 22.2762 37.7564 22.4176 37.7489C22.5166 37.7439 22.5293 37.7195 22.566 37.7128C22.639 37.6995 22.7512 37.7761 22.7379 37.9049C22.7283 37.9947 22.6512 38.1082 22.3891 38.1082C22.3217 38.1082 22.2506 38.0941 22.1806 38.0692C22.215 38.1883 22.2757 38.2961 22.3562 38.3858C22.5155 38.4261 22.6792 38.4462 22.8435 38.4457C23.1941 38.4457 23.4734 38.3454 23.6973 38.1984C23.7515 38.0874 23.7796 37.9655 23.7795 37.842Z" fill="#FADE2F"/>
        <path fill-rule="evenodd" clip-rule="evenodd" d="M23.7683 37.8417C23.7686 37.678 23.7187 37.5182 23.6254 37.3838C23.2475 37.4718 22.8158 37.5532 22.1877 37.6315C22.1817 37.6535 22.1768 37.6758 22.1731 37.6983C22.2141 37.7273 22.2879 37.7554 22.418 37.7481C22.517 37.7432 22.5297 37.7187 22.5664 37.712C22.6394 37.6987 22.7516 37.7754 22.7383 37.9042C22.7287 37.9939 22.6516 38.1074 22.3895 38.1074C22.3262 38.1074 22.2598 38.0948 22.1941 38.0731C22.2302 38.1931 22.2931 38.3009 22.3766 38.3902C22.5179 38.4245 22.6739 38.4451 22.8442 38.4451C23.1851 38.4451 23.4588 38.3505 23.6795 38.2098C23.7379 38.0959 23.7683 37.9697 23.7683 37.8417Z" fill="#FBE02F"/>
        <path fill-rule="evenodd" clip-rule="evenodd" d="M23.7571 37.842C23.7571 37.6727 23.7043 37.5155 23.6137 37.3867C23.2414 37.4734 22.8145 37.5535 22.1998 37.6308C22.1932 37.6551 22.1872 37.6802 22.1831 37.7055C22.2258 37.7319 22.298 37.7549 22.418 37.7487C22.5169 37.7437 22.5296 37.7192 22.5663 37.7126C22.6393 37.6993 22.7516 37.7759 22.7382 37.9047C22.7286 37.9945 22.6515 38.108 22.3894 38.108C22.3274 38.1072 22.2659 38.097 22.2069 38.0777C22.2443 38.1982 22.3098 38.3066 22.3961 38.3952C22.5324 38.4266 22.6816 38.4455 22.8439 38.4455C23.1751 38.4455 23.443 38.3557 23.6603 38.222C23.7241 38.1056 23.7574 37.9748 23.7571 37.842Z" fill="#FCE22F"/>
        <path fill-rule="evenodd" clip-rule="evenodd" d="M14.259 37.1519C14.9638 37.3418 15.4646 37.4953 16.6483 37.6394C16.6483 37.6394 16.6114 37.7617 16.354 37.748C16.2548 37.7431 16.2422 37.7186 16.2055 37.7119C16.1327 37.6986 16.0202 37.7753 16.0339 37.9041C16.0434 37.9938 16.1202 38.1074 16.3824 38.1074C16.6445 38.1074 16.9508 37.8927 17.1045 37.6939C17.1045 37.6939 17.2627 37.73 17.4254 37.7392C17.4254 37.7392 16.9216 38.4448 15.9279 38.4448C14.8344 38.445 14.4306 37.4681 14.259 37.1519ZM19.2757 31.3394C23.0434 31.3394 27.2181 29.0267 30.1452 25.6924C30.4618 25.3322 30.9994 24.6489 32.2734 24.6489C33.5473 24.6489 35.2411 25.8099 35.0416 27.924C34.8965 29.4653 32.6933 32.9389 28.9256 35.0803C25.1579 37.2216 21.6884 37.6823 19.2759 37.6823C16.8634 37.6823 13.3939 37.2216 9.62598 35.0803C5.85827 32.9389 3.65531 29.4653 3.50976 27.924C3.31033 25.8099 5.0041 24.6489 6.27817 24.6489C7.55225 24.6489 8.09 25.3324 8.40643 25.6924C11.3335 29.0267 15.508 31.3394 19.2757 31.3394Z" fill="#FFF22D"/>
        <path d="M19.2759 31.2041C21.1015 31.2041 23.026 30.6533 24.8556 29.7027C26.7622 28.7124 28.5637 27.2898 30.0438 25.6038C30.207 25.4185 30.4262 25.1497 30.7767 24.9228C31.1294 24.6944 31.606 24.5137 32.2736 24.5137C32.3428 24.5137 32.4166 24.5175 32.4941 24.5246C33.1083 24.5828 33.7834 24.8797 34.3042 25.3966C34.8254 25.914 35.1936 26.6507 35.1936 27.5869C35.1936 27.6973 35.1882 27.8138 35.1764 27.937C35.0929 28.8221 34.3577 30.3173 33.0583 31.8381C32.0386 33.031 30.6692 34.2452 28.9928 35.1977C27.096 36.2755 25.2743 36.9309 23.6234 37.3163C20.7637 37.9846 17.7883 37.9846 14.9286 37.3163C13.278 36.9309 11.4563 36.2755 9.55941 35.1977C7.88304 34.245 6.51365 33.0308 5.49395 31.8381C4.19455 30.3173 3.45908 28.8221 3.37557 27.937C3.36438 27.8207 3.35865 27.7038 3.3584 27.5869C3.3584 26.6507 3.72656 25.914 4.248 25.3966C4.76858 24.8797 5.44351 24.5828 6.05747 24.5246C6.13539 24.5175 6.20924 24.5137 6.27837 24.5137C6.94557 24.5137 7.42278 24.6944 7.77506 24.9228C8.12583 25.1497 8.34523 25.4185 8.50816 25.6038C9.98833 27.2898 11.7903 28.7122 13.6964 29.7027C15.526 30.6533 17.4501 31.2041 19.2759 31.2041ZM19.2759 31.4751C17.4057 31.4751 15.4386 30.9133 13.5712 29.9434C11.6368 28.9383 9.80779 27.4935 8.30466 25.782C8.15117 25.6072 7.94358 25.3539 7.62779 25.1493C7.31373 24.946 6.88503 24.785 6.27815 24.785C6.21293 24.785 6.14775 24.7879 6.0828 24.7938C5.52637 24.8462 4.91327 25.1171 4.43841 25.5883C3.9642 26.0591 3.62931 26.7308 3.62931 27.5871C3.62931 27.6958 3.63425 27.8039 3.64434 27.9117C3.72334 28.7494 4.43648 30.1851 5.69918 31.6627C6.70084 32.8346 8.04619 34.0275 9.69272 34.9633C11.5638 36.0265 13.361 36.6727 14.99 37.0529C16.395 37.3812 17.833 37.5471 19.2759 37.5473C20.7188 37.5471 22.1568 37.3813 23.5618 37.0529C25.1912 36.6727 26.9882 36.0265 28.8591 34.9633C30.5056 34.0275 31.8512 32.8346 32.8528 31.6622C34.1157 30.1847 34.8289 28.7496 34.9077 27.9117C34.9178 27.8044 34.9227 27.6958 34.9227 27.5871C34.9227 26.731 34.5876 26.0593 34.1134 25.5883C33.6387 25.1171 33.0254 24.8462 32.469 24.7938C32.404 24.7879 32.3389 24.785 32.2736 24.785C31.667 24.785 31.2381 24.946 30.924 25.1493C30.6082 25.3539 30.4004 25.6072 30.2474 25.782C28.7442 27.4935 26.9154 28.9383 24.9808 29.9429C23.1136 30.9133 21.1463 31.4751 19.2759 31.4751Z" fill="black"/>
        <path fill-rule="evenodd" clip-rule="evenodd" d="M7.98319 26.0239L7.93918 25.9741C7.63928 25.6298 7.2284 25.1577 6.24713 25.1577C5.67482 25.1577 5.02672 25.4638 4.59609 25.9372C4.27408 26.2905 3.90893 26.912 3.99866 27.8622C4.12102 29.1603 6.1823 32.527 9.85298 34.6134C12.8116 36.2947 15.9713 37.1476 19.2449 37.1476C22.5184 37.1476 25.6779 36.2947 28.6368 34.6134C32.3072 32.527 34.3687 29.1603 34.4911 27.8622C34.5804 26.912 34.2157 26.2908 33.8932 25.9372C33.463 25.4638 32.8145 25.1577 32.2426 25.1577C31.2616 25.1577 30.8507 25.6298 30.5504 25.9741L30.5068 26.0239C27.3522 29.6167 23.0368 31.8482 19.2449 31.8482C15.4531 31.8482 11.1376 29.6169 7.98319 26.0239Z" fill="#C23227"/>
        <path fill-rule="evenodd" clip-rule="evenodd" d="M31.3796 21.7865C31.3796 19.9787 32.8446 18.5132 34.6525 18.5132C36.4605 18.5132 37.9258 19.9787 37.9258 21.7865C37.9258 23.594 36.4605 25.0594 34.6525 25.0594C32.8446 25.0594 31.3796 23.594 31.3796 21.7865Z" fill="#FFF22D"/>
        <path d="M31.2437 21.7864C31.2437 20.8451 31.6251 19.9928 32.2423 19.3759C32.8586 18.7589 33.7111 18.3774 34.6524 18.3774C35.5938 18.3774 36.446 18.7589 37.063 19.3759C37.68 19.9928 38.0612 20.8451 38.0612 21.7864C38.0612 22.7278 37.6797 23.5798 37.063 24.1966C36.4462 24.8133 35.5938 25.1948 34.6524 25.1948C33.7111 25.1948 32.8591 24.8133 32.2423 24.1966C31.9252 23.8805 31.6737 23.5048 31.5023 23.0912C31.3309 22.6776 31.243 22.2342 31.2437 21.7864ZM31.5148 21.7864C31.5148 22.6526 31.8662 23.437 32.4338 24.0049C33.0014 24.5727 33.786 24.9239 34.6522 24.9239C35.5184 24.9239 36.3028 24.5724 36.8711 24.0049C37.1628 23.7138 37.3942 23.3681 37.5519 22.9873C37.7097 22.6066 37.7906 22.1985 37.7901 21.7864C37.7906 21.3743 37.7097 20.9661 37.552 20.5854C37.3943 20.2047 37.1629 19.8588 36.8711 19.5678C36.303 19 35.5184 18.6488 34.6522 18.6488C33.786 18.6488 33.0016 19 32.4338 19.5678C32.1419 19.8588 31.9105 20.2046 31.7528 20.5854C31.595 20.9661 31.5142 21.3743 31.5148 21.7864Z" fill="black"/>
        <path fill-rule="evenodd" clip-rule="evenodd" d="M0.694824 21.7914C0.694824 19.9841 2.16039 18.5186 3.96814 18.5186C5.77568 18.5186 7.24125 19.9841 7.24125 21.7914C7.24125 23.5994 5.77568 25.0648 3.96814 25.0648C2.16039 25.0648 0.694824 23.5994 0.694824 21.7914Z" fill="#FFF22D"/>
        <path d="M0.559326 21.7917C0.559326 20.8507 0.940798 19.9985 1.55777 19.3815C1.87397 19.0646 2.24969 18.8132 2.66333 18.6419C3.07698 18.4706 3.52039 18.3827 3.9681 18.3833C4.90922 18.3833 5.76147 18.765 6.37822 19.3815C6.69518 19.6977 6.94654 20.0734 7.11785 20.487C7.28915 20.9006 7.37704 21.344 7.37645 21.7917C7.37645 22.733 6.99498 23.5852 6.37822 24.2022C6.06209 24.5192 5.68642 24.7706 5.27281 24.942C4.85921 25.1134 4.41581 25.2014 3.9681 25.2009C3.02677 25.2009 2.17473 24.819 1.55777 24.2022C0.940798 23.5854 0.559326 22.7328 0.559326 21.7917ZM0.830242 21.7917C0.829679 22.2038 0.91058 22.612 1.0683 22.9928C1.22601 23.3736 1.45743 23.7194 1.74925 24.0105C2.04028 24.3023 2.38611 24.5337 2.76686 24.6914C3.1476 24.8491 3.55577 24.93 3.96789 24.9295C4.8343 24.9295 5.6185 24.5781 6.18631 24.0105C6.47813 23.7194 6.70955 23.3736 6.86726 22.9928C7.02498 22.612 7.10588 22.2038 7.10532 21.7917C7.10532 20.9254 6.75412 20.141 6.18631 19.5732C5.6185 19.0054 4.8343 18.6542 3.96789 18.6542C3.55577 18.6537 3.1476 18.7346 2.76686 18.8923C2.38611 19.05 2.04028 19.2814 1.74925 19.5732C1.4575 19.8642 1.22612 20.21 1.06841 20.5907C0.910698 20.9715 0.829759 21.3796 0.830242 21.7917Z" fill="black"/>
        <path fill-rule="evenodd" clip-rule="evenodd" d="M35.5486 12.9827L35.5667 12.1062C35.8342 12.3082 36.3436 12.3161 36.6417 11.9975C36.7789 11.852 36.8556 11.6298 36.8433 11.3975C36.8265 11.1259 36.7107 10.8698 36.5179 10.6777C35.4155 9.60353 34.4411 8.52974 34.4411 8.52974C34.3426 8.37088 34.1803 8.25346 34.0919 8.21396C33.9538 8.15256 33.4773 7.93445 33.1136 8.48745C32.7841 8.98871 32.833 9.69798 32.8923 9.95559L33.9266 11.3608C34.2793 11.808 35.2734 12.7611 35.5486 12.9827ZM13.5098 3.86792C14.8094 3.43235 15.9955 3.07278 17.5945 2.93066L13.5098 3.86792Z" fill="black"/>
        <path fill-rule="evenodd" clip-rule="evenodd" d="M13.5097 3.87171C14.8094 3.4355 15.9954 3.07657 17.5945 2.93424L17.8382 2.79663C16.9441 2.0938 16.057 1.61572 15.1741 1.61572C14.6196 1.61572 13.4926 1.99183 13.2393 3.97969L13.5097 3.87171ZM25.0456 3.87171C23.7457 3.4355 22.5601 3.07657 20.961 2.93424L20.7174 2.79663C21.6112 2.0938 22.4981 1.61572 23.381 1.61572C23.9357 1.61572 25.0632 1.99183 25.3161 3.97969L25.0456 3.87171ZM18.2111 2.73438C18.4753 2.72085 19.0852 2.70733 19.3293 2.70733C19.5729 2.70733 20.2468 2.73953 20.3943 2.75069L18.2111 2.73438Z" fill="black"/>
        <path fill-rule="evenodd" clip-rule="evenodd" d="M17.8083 2.86617C18.462 1.61313 19.061 1.15674 19.3922 1.15674C19.8065 1.15674 20.2917 1.81621 20.6719 2.66481L20.7524 2.85587L20.4216 2.8286C20.1964 2.78825 19.573 2.78138 19.3293 2.78138C19.0852 2.78138 18.5567 2.78138 18.2381 2.80842L17.8083 2.86617Z" fill="black"/>
        <path fill-rule="evenodd" clip-rule="evenodd" d="M16.5293 32.5364L15.9441 34.7197L14.8531 32.0876L14.1741 31.9055L13.3468 34.9927L14.0833 35.1902L14.673 32.9894L15.7814 35.6451L16.443 35.8224L17.2701 32.7348L16.5293 32.5364ZM19.0723 32.9265L18.2331 32.8825L18.0661 36.074L18.905 36.118L19.0723 32.9265ZM19.8258 32.8992L19.8846 33.3198L20.7798 33.1936L21.1655 35.9381L21.9976 35.8211L21.6116 33.077L22.4933 32.9529L22.4347 32.5328L19.8258 32.8992ZM28.4839 31.5981C28.8903 32.3104 28.8085 32.8286 28.1817 33.1905L27.8843 33.3621L26.709 31.3272L27.0302 31.1415C27.7804 30.7085 28.2036 31.0938 28.4839 31.5981ZM26.8492 30.7542L25.7662 31.3794L27.3696 34.1568L28.4446 33.5362C29.5633 32.89 29.6668 31.9152 29.2282 31.1366C28.6986 30.2103 27.8292 30.1886 26.8492 30.7542ZM24.8203 34.6866L24.5013 33.7051L25.4485 33.3973L25.3156 32.989L24.3687 33.2966L24.0962 32.4585L25.0694 32.1427L24.9382 31.7387L23.162 32.316L24.1495 35.3553L26.1084 34.7192L25.9755 34.3109L24.8203 34.6866ZM12.6609 31.1651L11.7144 32.8724C11.4289 33.3872 11.1346 33.7131 10.6531 33.4351C10.1752 33.1706 10.2858 32.7756 10.5781 32.2477L11.5266 30.5361L10.7623 30.1126L9.76045 31.9197C9.20788 32.9168 9.90471 33.531 10.4448 33.8303C11.0264 34.1527 11.8709 34.3925 12.4187 33.4039L13.4249 31.5884L12.6609 31.1651ZM12.1195 12.3918V27.3566L19.2756 31.9566L26.4314 27.3566L26.4407 12.4155C26.2138 12.2124 25.7372 11.7678 25.3619 11.5381H13.1563C12.8444 11.7566 12.2253 12.2768 12.1195 12.3918Z" fill="#FFF22D"/>
        <path d="M12.255 12.3921V27.2832L19.2757 31.7963L26.2963 27.2832L26.3051 12.4157H26.5764L26.5672 27.3569V27.4303L26.5047 27.4706L19.3486 32.0709L19.2757 32.1179L19.2024 32.0709L12.0466 27.4706L11.9839 27.4303V12.3921H12.255Z" fill="black"/>
        <path d="M26.3502 12.5168C26.2856 12.4589 26.3343 12.502 26.2658 12.4402H26.265C26.0209 12.2195 25.6117 11.8498 25.291 11.6536L25.4323 11.4229C25.7785 11.6352 26.1974 12.0134 26.4475 12.239H26.4466L26.5314 12.3146L26.3502 12.5168Z" fill="black"/>
        <path d="M25.3619 11.6737H13.1562V11.4028H25.3619V11.6737Z" fill="black"/>
        <path d="M13.234 11.6496C13.0878 11.7523 12.8815 11.9146 12.6928 12.0698C12.4719 12.2518 12.2724 12.4253 12.2188 12.4839L12.0198 12.3007C12.0795 12.2353 12.2903 12.0513 12.5212 11.8611C12.722 11.6958 12.936 11.5269 13.0781 11.4272L13.234 11.6496Z" fill="black"/>
        <path fill-rule="evenodd" clip-rule="evenodd" d="M19.7813 18.7929C19.7315 18.771 19.5533 18.9146 19.4719 19.0434C19.3906 19.1722 19.3668 19.3382 19.482 19.3992C19.5973 19.4601 19.7424 19.3811 19.7772 19.1791C19.7972 19.0604 19.8358 18.8165 19.7813 18.7929ZM18.4115 19.1789C18.4413 19.382 18.5909 19.4601 18.7062 19.3989C18.8215 19.338 18.7979 19.172 18.7165 19.0432C18.6349 18.9144 18.4673 18.7708 18.4173 18.7927C18.3629 18.8165 18.3945 19.0638 18.4115 19.1789ZM19.1298 21.1696C19.3702 20.775 19.4702 20.365 19.4702 20.365H18.7824C18.7824 20.365 18.8925 20.7851 19.1298 21.1696ZM19.2483 18.2054L19.8038 17.2385L20.2375 18.2054H20.9562C20.5223 18.6122 20.3461 19.2263 20.3461 19.6332V20.0803C20.3461 20.2703 20.2514 20.5818 20.2514 20.5818C20.2514 20.5818 20.8735 21.0573 20.9697 21.1374C21.0103 21.1713 21.0532 21.191 21.0238 21.2732C20.9744 21.4132 20.5539 21.6006 20.509 21.6388C20.4143 21.7202 20.3886 21.7734 20.4163 21.8561C20.4435 21.937 20.5223 21.9507 20.6851 21.8964C20.8478 21.8423 21.1865 21.6663 21.4716 21.5442C21.7558 21.4222 22.1354 21.4491 22.1354 21.4491V20.9074H21.065V19.1725L20.875 18.8696L21.3497 18.0291L21.8235 18.8743L21.6339 19.1723V20.0803H22.1828V19.1723L21.9933 18.8743L22.4675 18.0336L22.9417 18.8743L22.7521 19.1723V20.0803H23.301V19.1723L23.1115 18.8743L23.5857 18.0336L24.0599 18.8743L23.8699 19.1723L23.8757 20.9059L22.7994 20.9064V21.703C23.0434 21.9331 23.274 22.4522 23.274 22.7637C23.274 23.0756 23.0707 23.2111 23.0707 23.2111C23.1381 23.4552 23.1248 23.5565 23.0975 23.7804C23.0698 24.0088 22.7856 24.3628 22.7856 24.3628V28.4952C22.7856 28.7767 22.1354 28.7498 22.1354 28.509V24.4579C21.7694 24.0515 20.7664 23.7396 20.7664 23.7396C20.4004 24.1052 20.1703 24.7426 20.1703 24.7426C20.333 24.8512 20.5771 24.7426 20.6717 24.6339C20.7664 24.5257 20.9564 24.4985 21.065 24.5661C21.1732 24.6339 21.2005 24.6612 21.1597 24.8239C21.1191 24.9862 21.0511 25.2563 21.0511 25.4456C21.0511 25.6356 21.2683 25.5944 21.4306 25.6083C21.756 25.6356 21.8101 26.0012 21.7833 26.2045C21.7561 26.4078 21.6614 26.8418 21.6614 27.1125C21.6614 27.3832 21.6747 27.6546 21.702 27.804C21.7288 27.9528 21.7833 28.1155 21.7694 28.3055C21.7509 28.5624 21.5933 28.6036 21.4306 28.4409C21.2683 28.2782 19.0046 25.8657 19.0046 25.8657C18.8556 26.3532 19.4788 27.1941 19.6823 27.4515C19.8856 27.7093 19.8719 27.8989 19.6961 28.0749C19.5196 28.2509 19.1808 28.3458 19.1132 28.5088C19.0454 28.6715 19.2759 29.159 19.7502 29.7687C20.2244 30.3788 19.2079 30.7854 18.598 30.9075C17.9881 31.0294 17.9881 30.6089 18.0289 30.3788C18.0693 30.1482 18.0693 30.0128 18.056 29.8095C18.0424 29.6066 17.8527 29.3219 17.5951 28.9825C17.3375 28.6442 17.3375 28.3323 17.4461 27.5462C17.5545 26.7605 17.5274 26.2586 17.5274 26.2586C17.5274 26.2586 17.2563 26.2723 16.8632 26.2586C16.4702 26.2453 16.145 26.0162 16.1179 25.0674C16.0909 24.1185 16.0683 21.8557 16.005 21.6204C15.9419 21.3855 15.6888 21.3402 15.5804 21.3134C15.472 21.2861 15.464 21.1234 15.5724 21.0693C15.8547 20.9281 16.1948 20.5814 16.0683 20.3645C15.9419 20.1475 15.4449 20.1926 15.1107 20.3553C14.7764 20.518 14.4239 20.8701 14.3336 20.9699C14.2432 21.0693 14.1708 21.0693 14.1798 20.9607C14.1889 20.8521 14.1167 20.3373 14.0717 20.1565C14.0266 19.9758 13.8636 19.6327 13.8095 19.5423C13.7554 19.452 13.8095 19.4159 13.8999 19.452C13.9903 19.4882 14.1891 19.5696 14.3788 19.6237C14.5686 19.6778 14.7492 19.5876 14.8395 19.4069C14.9299 19.2261 15.1014 18.8378 15.1918 18.6661C15.2822 18.4943 15.4269 18.5304 15.5443 18.5576C15.6619 18.5847 15.7703 18.657 15.8785 18.7021C15.987 18.7474 16.0773 18.7384 16.1134 18.6841C16.1497 18.63 16.195 18.6117 16.2581 18.4761C16.3212 18.3406 16.4026 18.4039 16.4116 18.458C16.7355 20.4019 17.5772 20.4912 17.5772 20.4912C17.4508 20.8162 17.1526 21.3314 17.0805 21.4581C17.0081 21.5843 16.9811 21.7558 16.9631 21.8917C16.945 22.0272 17.0081 23.3096 17.0985 23.7802C17.1891 24.2499 17.4783 24.0696 17.5684 23.9249C17.6586 23.7802 17.939 23.184 17.939 23.184C17.939 23.184 18.0113 23.0213 18.0113 22.8854C18.0113 22.75 17.7762 22.4518 17.7219 22.3614C17.6678 22.2713 17.4691 22.0905 17.4691 21.6386C17.4691 21.1869 17.8756 20.8705 18.0203 20.7531C18.1648 20.6357 18.1648 20.4734 18.1468 20.374C18.0832 20.0243 17.7129 19.2895 17.5324 19.0093C17.3516 18.7294 16.9993 18.1961 16.9993 18.1961H17.7312L18.2011 17.2202L18.7161 18.2006L19.2483 18.2054ZM22.1352 23.1297V22.5742C22.1352 22.5742 21.986 22.3436 21.6199 22.3436C21.2544 22.3436 21.0375 22.4522 21.0375 22.5469C21.0375 22.6963 21.3628 23.1297 22.1352 23.1297ZM12.6799 16.1248H25.8823V17.0253H12.6799V16.1248ZM12.6799 15.6619V12.0752H25.8823V15.6619H12.6799Z" fill="#C23227"/>
        <path fill-rule="evenodd" clip-rule="evenodd" d="M23.2837 15.7687V15.1565H22.3248V14.7617H23.1075V13.0269H22.389L22.1449 12.5527L21.9008 13.0269H21.1827V14.7617H21.965V15.1565H20.0866V14.7617H20.8691V13.0269H20.1508L19.9067 12.5527L19.6629 13.0269H18.9446V14.7617H19.7268V15.1565H17.8118V14.7617H18.5942V13.0269H17.8757L17.6319 12.5527L17.388 13.0269H16.6695V14.7617H17.4518V15.1565L15.9377 15.1606L14.429 14.8081L14.7331 15.7687H23.2837Z" fill="#FFF22D"/>
        <path fill-rule="evenodd" clip-rule="evenodd" d="M14.9499 14.7301L15.9617 14.9787L16.5044 13.4554L16.5046 13.0713L14.9499 14.7301ZM17.3914 2.83381C15.8241 2.97313 14.8596 3.3063 13.5857 3.73329C13.6804 3.18523 13.8079 2.86043 14.0292 2.53778C14.0114 2.82115 14.2428 3.12297 14.7033 3.12297C15.1637 3.12297 15.4201 2.85743 15.4201 2.69792C15.4201 2.53885 15.3232 2.30829 15.0753 2.30829C14.8274 2.30829 14.7743 2.4854 14.7919 2.55624C14.8098 2.6273 14.7565 2.6449 14.6859 2.66272C14.6148 2.68032 14.4201 2.57384 14.491 2.32611C14.5687 2.05369 14.8982 1.90557 15.2876 1.90557C15.2874 1.90514 16.2144 1.86822 17.3914 2.83381ZM24.9809 3.74424C23.707 3.31682 22.6992 2.98387 21.1318 2.84433C21.8534 2.34157 22.5272 1.91459 23.2676 1.91459C23.657 1.91459 23.9868 2.06271 24.0643 2.33513C24.1351 2.58307 23.9402 2.68912 23.8693 2.6713C23.7989 2.65349 23.7457 2.63588 23.7633 2.56504C23.7809 2.49441 23.7277 2.3171 23.4799 2.3171C23.2322 2.3171 23.1354 2.54722 23.1354 2.70673C23.1354 2.86623 23.3915 3.13178 23.852 3.13178C24.3124 3.13178 24.5438 2.82973 24.5262 2.54658C24.7473 2.86945 24.8862 3.19618 24.9809 3.74424ZM18.3572 2.5425C18.3151 2.60969 18.2782 2.65971 18.2331 2.73463C18.5982 2.71917 18.9635 2.71022 19.3288 2.7078C19.5682 2.7078 20.2281 2.73978 20.3728 2.7503C20.1392 2.20954 19.6985 1.46292 19.3906 1.46292C19.3299 1.46292 19.1955 1.43136 18.9426 1.72245C18.9426 1.72245 18.9033 1.85104 19.0639 1.82636C19.2674 1.79523 19.3445 2.00539 19.3295 2.10994C19.2938 2.35316 19.0107 2.58801 18.7271 2.58801C18.4439 2.58801 18.3572 2.5425 18.3572 2.5425Z" fill="#FFF22D"/>
        <path fill-rule="evenodd" clip-rule="evenodd" d="M4.7055 11.3606L5.73979 9.95539C5.79926 9.69779 5.8482 8.98851 5.51847 8.48725C5.15481 7.93426 4.67781 8.15236 4.53978 8.21376C4.45133 8.25326 4.28947 8.37068 4.19051 8.52954C4.19051 8.52954 3.19829 9.62609 2.10046 10.7052C1.94783 10.8551 1.77566 11.1389 1.76171 11.3971C1.74883 11.6294 1.84006 11.861 1.97659 12.0066C2.2752 12.3247 2.79814 12.308 3.0652 12.106L3.08323 12.9825C3.3593 12.7609 4.35301 11.8078 4.7055 11.3606Z" fill="black"/>
        <path fill-rule="evenodd" clip-rule="evenodd" d="M19.2758 9.31293C25.1671 9.31293 28.5218 14.845 29.251 15.8168C30.5523 17.5516 32.1416 18.9584 33.9856 18.4912C36.6958 17.8047 36.5516 13.7886 36.5516 13.7886C35.9013 13.3185 34.7855 12.7266 32.7566 9.84897C30.7687 7.03011 26.269 2.84766 19.2758 2.84766C12.2823 2.84766 7.78252 7.03011 5.79488 9.84897C3.76601 12.7264 2.65058 13.3185 2.00012 13.7886C2.00012 13.7886 1.85565 17.8047 4.56631 18.4912C6.41013 18.9584 7.99977 17.5516 9.3009 15.8168C10.0297 14.845 13.3848 9.31293 19.2758 9.31293Z" fill="#FFF22D"/>
        <path d="M19.2757 9.17768C24.7537 9.17768 28.0547 13.8824 29.1287 15.4133C29.226 15.5519 29.3052 15.6646 29.3588 15.7359C30.0003 16.5916 30.7119 17.3657 31.4875 17.8661C32.2477 18.3568 33.0716 18.5833 33.9524 18.3603C36.3591 17.7506 36.4211 14.3745 36.4166 13.8588C36.3651 13.8221 36.308 13.7828 36.2481 13.7416C35.5663 13.271 34.4704 12.515 32.6457 9.92688C31.5049 8.30869 29.5286 6.23732 26.7216 4.77948C24.6796 3.719 22.1976 2.98332 19.2755 2.98332C16.3534 2.98332 13.8709 3.719 11.8291 4.77948C9.02209 6.23732 7.04625 8.30847 5.90527 9.92688C4.08013 12.5154 2.98444 13.2713 2.30222 13.7418C2.24254 13.783 2.18586 13.8221 2.13413 13.8586C2.12962 14.374 2.19166 17.7502 4.59856 18.3601C5.47958 18.5833 6.30306 18.3566 7.06343 17.8659C7.83882 17.3655 8.55046 16.5914 9.19233 15.7357C9.24578 15.6644 9.325 15.5517 9.42224 15.4133C10.4967 13.8826 13.7979 9.17768 19.2757 9.17768ZM19.2757 9.44881C13.9383 9.44881 10.6978 14.0666 9.64378 15.5691C9.56693 15.6798 9.48857 15.7894 9.40872 15.898C8.74946 16.7771 8.0155 17.5739 7.21005 18.0939C6.38936 18.6235 5.49611 18.8669 4.5333 18.6228C1.71552 17.909 1.86407 13.797 1.8645 13.785L1.86643 13.7186L1.92117 13.6789C1.99524 13.6255 2.06908 13.5744 2.14916 13.5194C2.81571 13.0594 3.88671 12.3209 5.68437 9.77125C6.84425 8.12643 8.85272 6.02093 11.7057 4.53926C13.7827 3.46053 16.3068 2.7124 19.2759 2.7124C22.2448 2.7124 24.7689 3.46053 26.8461 4.53926C29.6989 6.02093 31.7076 8.12621 32.8674 9.77125C34.6649 12.3203 35.7357 13.0594 36.402 13.519C36.4821 13.5742 36.5564 13.6255 36.6304 13.6789L36.6854 13.7186L36.6871 13.785C36.6875 13.7968 36.8359 17.909 34.0183 18.6228C33.0557 18.8667 32.1624 18.6232 31.342 18.0939C30.5361 17.5739 29.8023 16.7771 29.1429 15.898C29.0765 15.8098 29.0012 15.7016 28.9076 15.5691C27.8533 14.0666 24.6131 9.44881 19.2757 9.44881Z" fill="black"/>
        <path fill-rule="evenodd" clip-rule="evenodd" d="M19.2759 8.79096C24.955 8.79096 28.3348 13.6084 29.4464 15.1914C29.5188 15.2965 29.5928 15.4005 29.6681 15.5035C31.1708 17.5069 32.5415 18.3187 33.8572 17.9854C35.7603 17.5032 35.9943 14.8842 36.0207 14.0929L36.0216 14.0631L35.9973 14.0463C35.3282 13.5846 34.2069 12.812 32.3303 10.1496C31.2086 8.55911 26.9525 3.36963 19.2759 3.36963C11.5992 3.36963 7.34332 8.55911 6.22166 10.1496C4.35745 12.7931 3.1877 13.6007 2.55914 14.0347L2.53467 14.0515L2.53553 14.0813C2.56279 14.8756 2.79914 17.5049 4.69427 17.9854C6.01042 18.319 7.38067 17.5069 8.88295 15.5035C8.9379 15.4305 9.0154 15.32 9.10535 15.1916C10.2163 13.6084 13.5963 8.79096 19.2759 8.79096Z" fill="#C23227"/>
        <path fill-rule="evenodd" clip-rule="evenodd" d="M7.05669 11.0102L6.46377 11.7167L7.57555 14.0148L5.1899 13.2351L4.6792 13.8435L7.12775 15.8979L7.49763 15.4572L5.76909 14.0011L8.08755 14.7543L8.3312 14.4641L7.2265 12.2498L8.96513 13.7082L9.50502 13.0647L7.05669 11.0102ZM10.152 10.5292L9.59755 11.1236L9.02953 10.0258L10.152 10.5292ZM8.86037 9.07841L8.31531 9.66275L9.84635 12.7077L10.2201 12.3071L9.80428 11.501L10.5453 10.7063L11.3815 11.0613L11.9982 10.4002L8.86037 9.07841ZM12.5989 6.1855L13.7967 8.1023L11.1275 7.10494L10.5309 7.47761L12.2249 10.1881L12.8715 9.78426L11.6642 7.85178L14.3624 8.85258L14.9431 8.48936L13.2495 5.77912L12.5989 6.1855ZM22.7142 7.75496L23.0502 6.77928L23.9915 7.10365L24.1315 6.69749L23.1901 6.37355L23.4765 5.54019L24.4438 5.87336L24.5823 5.47171L22.8162 4.86397L21.7759 7.8857L23.7232 8.55612L23.8627 8.15039L22.7142 7.75496ZM28.1813 7.55296L27.8932 7.8653L28.5653 8.47025L26.711 10.5302L27.3352 11.0923L29.1896 9.03269L29.8516 9.62819L30.1356 9.31284L28.1813 7.55296ZM29.0988 12.3519L29.889 11.6893L30.5289 12.4516L30.8576 12.1755L30.2181 11.413L30.8928 10.8467L31.5505 11.6304L31.8756 11.3574L30.6755 9.92658L28.227 11.9812L29.5507 13.5586L29.8793 13.2828L29.0988 12.3519ZM32.8023 13.166C33.0249 13.4135 33.0258 13.708 32.7712 13.9371C32.5166 14.1661 32.1963 14.117 31.952 13.8454L31.8082 13.6859L32.6158 12.959L32.8023 13.166ZM32.3766 14.7408C32.3828 14.7477 32.8714 14.9898 33.4109 14.5038C33.8621 14.0974 33.7104 13.5399 33.2398 13.0172L32.3689 12.0505L29.9937 14.1891L30.556 14.8134L31.499 13.9639L31.7775 14.2726L31.1762 15.6184L31.8902 16.1926L32.3766 14.7408ZM20.3558 4.59606L20.3329 5.90148L19.0772 5.8798L19.1002 4.57395L18.2602 4.55957L18.2046 7.75496L19.0444 7.76977L19.07 6.30872L20.3251 6.33083L20.2996 7.79146L21.1402 7.80627L21.1956 4.61045L20.3558 4.59606ZM24.9054 9.3459C25.5011 9.70375 26.1524 9.64644 26.4555 9.14196C26.6786 8.78947 26.6803 8.49816 26.415 7.97693C26.3437 7.8258 26.2561 7.71933 26.196 7.58559C26.0798 7.36447 25.9712 7.18565 26.0741 7.01499C26.184 6.83209 26.4405 6.81899 26.6749 6.95982C26.9209 7.10773 27.0225 7.35267 27.0721 7.5229L27.4591 7.35546C27.3404 7.04053 27.1648 6.75652 26.7677 6.51802C26.0841 6.10736 25.5271 6.21576 25.2957 6.60132C25.0617 6.99052 25.128 7.31188 25.3019 7.64333C25.3019 7.64333 25.4137 7.83503 25.4788 7.96062C25.6314 8.21994 25.81 8.54345 25.6859 8.74997C25.5333 9.00414 25.2671 9.0606 25.0108 8.90131C24.6821 8.69265 24.6053 8.452 24.5361 8.21608L24.1122 8.39919C24.2058 8.71991 24.4249 9.05716 24.9054 9.3459ZM16.1925 4.76351C15.146 4.98634 14.4605 5.75422 14.6866 6.79516C14.8154 7.35696 15.319 8.39576 16.9069 8.05808C17.3461 7.97414 17.5866 7.79596 17.8182 7.57678L17.5258 7.24318C17.4196 7.36469 17.2543 7.54136 16.8891 7.61886C16.1223 7.78201 15.6642 7.15796 15.5502 6.62107C15.3815 5.82742 15.8441 5.27636 16.372 5.1643C16.742 5.08552 16.9702 5.18341 17.1145 5.24201L17.119 5.24115L17.2163 4.83371C16.9636 4.73174 16.6618 4.66412 16.1925 4.76351ZM33.1359 10.0786C33.0919 9.88902 33.0299 9.07949 33.3373 8.65229C33.6211 8.25858 33.8797 8.39189 34.0186 8.4535C34.0811 8.4812 34.2685 8.6027 34.3054 8.84228C34.3252 8.97086 34.2848 9.16106 34.1854 9.3006C33.9909 9.55327 33.5485 9.72093 33.5485 9.72093C33.5485 9.72093 34.1154 10.8316 35.317 11.9346L35.3127 12.6843C33.6676 11.0978 33.1359 10.0786 33.1359 10.0786Z" fill="#FFF22D"/>
        <path fill-rule="evenodd" clip-rule="evenodd" d="M33.961 9.84948C34.1237 10.1298 34.5367 10.8157 35.5706 11.7845C35.7421 11.9453 36.1698 12.0793 36.4113 11.8082C36.504 11.7038 36.563 11.5551 36.5538 11.382C36.5429 11.1832 36.4205 10.9512 36.3026 10.8501C36.0963 10.6732 35.2074 9.77542 34.5702 9.07022C34.5565 9.19881 34.444 9.4137 34.444 9.4137C34.3586 9.53434 34.2517 9.70758 33.961 9.84948ZM3.3185 12.6394L3.31421 11.9314C4.51616 10.8282 5.08375 9.72111 5.08375 9.72111C5.08375 9.72111 4.64131 9.55345 4.44682 9.30078C4.34721 9.16124 4.30664 8.97083 4.3266 8.84246C4.36395 8.60288 4.55093 8.48159 4.61319 8.45369C4.75208 8.39208 5.01076 8.25855 5.29413 8.65247C5.60175 9.07967 5.52125 9.88362 5.47746 10.0732C5.47789 10.0732 4.91759 11.0491 3.3185 12.6394Z" fill="#FFF22D"/>
        <path fill-rule="evenodd" clip-rule="evenodd" d="M4.65067 9.84908C4.48837 10.1294 4.07513 10.8153 3.04127 11.7841C2.86975 11.9449 2.44212 12.0789 2.20104 11.8077C2.10809 11.7034 2.04884 11.5547 2.05807 11.3816C2.06881 11.1828 2.19138 10.9508 2.30924 10.8497C2.51554 10.6728 3.4045 9.77502 4.04121 9.06982C4.05517 9.19841 4.16765 9.4133 4.16765 9.4133C4.25331 9.53394 4.36043 9.70718 4.65067 9.84908Z" fill="#FFF22D"/>
        <path fill-rule="evenodd" clip-rule="evenodd" d="M1.31104 21.8188C1.31104 20.3483 2.50311 19.1562 3.9734 19.1562C5.44411 19.1562 6.63597 20.3483 6.63597 21.8188C6.63597 23.2898 5.4439 24.4812 3.9734 24.4812C2.50311 24.4812 1.31104 23.2895 1.31104 21.8188Z" fill="#C23227"/>
        <path fill-rule="evenodd" clip-rule="evenodd" d="M5.40556 19.8907C5.45128 19.9272 5.56678 20.0221 5.56678 20.0221C5.79755 20.2286 6.00535 20.4701 6.12578 20.759C6.2782 21.1225 5.80871 21.6688 5.67132 21.7972C5.05028 22.3766 4.6643 22.3669 4.44254 22.3989C4.22057 22.4303 4.08082 22.2933 4.08554 22.1271C4.09971 21.6383 4.44619 20.8052 4.54386 20.6513C4.60784 20.5506 4.71796 20.4864 4.71796 20.4864C4.94702 20.4222 5.1692 20.3237 5.28448 20.1932C5.40019 20.0629 5.40556 19.8907 5.40556 19.8907ZM3.17769 19.5393C3.43015 19.4542 3.69464 19.4103 3.96103 19.4092C4.37706 19.4092 4.77335 19.4869 5.11038 19.7003C5.19582 19.7542 5.22158 19.8226 5.22158 19.9192C5.22158 20.2324 4.72762 20.3391 4.39875 20.3391C4.0703 20.3391 3.66693 20.2084 3.38142 20.1195C3.09569 20.03 3.03214 19.8632 3.03214 19.7896C3.03171 19.7164 3.08667 19.5698 3.17769 19.5393ZM2.12451 23.3757C1.78919 23.0444 1.55005 22.4491 1.55005 21.8206C1.55005 21.5769 1.5859 21.3421 1.65288 21.1203C1.65288 21.1203 1.70934 21.0192 1.76429 21.1057C1.80336 21.1669 1.85639 21.2298 1.90404 21.3137C1.95213 21.3977 2.21253 21.5954 2.18827 21.7515C2.0966 22.3401 2.17925 23.1258 2.20673 23.2546C2.23442 23.3828 2.19406 23.4444 2.12451 23.3757ZM2.18848 21.3567C2.06977 21.2912 1.9283 20.989 1.88215 20.8988C1.8493 20.8342 1.85123 20.6538 1.8961 20.5746C2.0921 20.2279 2.37138 19.9122 2.73332 19.7445C2.77475 19.7254 2.83894 19.7235 2.83894 19.8261C2.83894 19.8832 2.86728 19.9733 2.86835 20.0289C2.86964 20.0835 2.89432 20.2017 2.82069 20.2936C2.74749 20.3851 2.42312 20.9531 2.34412 21.2742C2.3263 21.3475 2.3072 21.4226 2.18848 21.3567ZM4.01255 24.2309C3.99538 24.2301 3.9782 24.2314 3.96103 24.2314C3.5173 24.2314 3.03172 24.0633 2.74384 23.9023C2.44652 23.7359 2.3351 22.9749 2.3351 22.5857C2.3351 21.3298 2.85268 20.5748 2.93511 20.428C3.01755 20.2816 3.20088 20.2631 3.33848 20.2996C3.47609 20.3366 3.52911 20.3643 3.68689 20.4119C3.77233 20.4379 3.94343 20.4735 4.0718 20.5012C4.20017 20.5289 4.33735 20.5562 4.25513 20.7947C4.1727 21.0327 3.8962 21.6098 3.86593 22.292C3.83845 22.9079 3.92089 23.5221 4.06064 23.8986C4.15144 24.1429 4.14994 24.2354 4.01255 24.2309ZM4.64476 24.1333C4.50694 24.1777 4.4434 24.0796 4.37921 24.0057C4.13169 23.7232 4.06772 22.9626 4.06772 22.862C4.06772 22.7604 4.10422 22.6507 4.17463 22.649C4.77635 22.634 5.2042 22.4582 5.5964 22.1357C5.98861 21.8133 6.15841 21.449 6.19426 21.3777C6.2299 21.3065 6.30718 21.3191 6.32586 21.4222C6.3411 21.5061 6.37223 21.6583 6.37223 21.8204C6.37201 22.9143 5.63504 23.8121 4.64476 24.1333Z" fill="#FFF22D"/>
        <path fill-rule="evenodd" clip-rule="evenodd" d="M37.3447 21.8188C37.3447 20.3483 36.1527 19.1562 34.6824 19.1562C33.2115 19.1562 32.02 20.3483 32.02 21.8188C32.02 23.2898 33.2117 24.4812 34.6824 24.4812C36.1527 24.4812 37.3447 23.2895 37.3447 21.8188Z" fill="#C23227"/>
        <path fill-rule="evenodd" clip-rule="evenodd" d="M33.3708 20.1929C33.4861 20.3235 33.7083 20.422 33.9373 20.4862C33.9373 20.4862 34.0476 20.5504 34.1114 20.6511C34.2091 20.805 34.5554 21.6381 34.5702 22.1269C34.5747 22.2929 34.4351 22.43 34.2129 22.3987C33.9912 22.3669 33.605 22.3764 32.9844 21.797C32.8468 21.6686 32.3773 21.1223 32.5299 20.7588C32.6499 20.4699 32.8582 20.2284 33.0891 20.0219C33.0891 20.0219 33.204 19.927 33.2501 19.8905C33.2499 19.8907 33.2555 20.0629 33.3708 20.1929ZM35.624 19.7896C35.624 19.8632 35.5602 20.03 35.2747 20.1195C34.9888 20.2084 34.5858 20.3391 34.2572 20.3391C33.9281 20.3391 33.4341 20.2327 33.4341 19.9192C33.4341 19.8226 33.4601 19.7542 33.5453 19.7003C33.8824 19.4869 34.2786 19.4092 34.6947 19.4092C34.9692 19.4092 35.2318 19.4577 35.4782 19.5393C35.5686 19.5698 35.624 19.7164 35.624 19.7896ZM36.4488 23.2544C36.476 23.1256 36.5587 22.3399 36.4672 21.7512C36.443 21.5952 36.7034 21.3975 36.7514 21.3135C36.7993 21.2296 36.8521 21.1667 36.891 21.1055C36.9459 21.0192 37.0026 21.1201 37.0026 21.1201C37.0711 21.3472 37.1058 21.5832 37.1057 21.8204C37.1057 22.4489 36.8663 23.0442 36.5308 23.3755C36.4616 23.4444 36.4211 23.3828 36.4488 23.2544ZM36.3112 21.2745C36.2324 20.9533 35.9078 20.3851 35.8344 20.2938C35.7609 20.202 35.7856 20.0837 35.7865 20.0292C35.7882 19.9736 35.8163 19.8834 35.8163 19.8263C35.8163 19.7237 35.8805 19.7256 35.9215 19.7447C36.2839 19.9122 36.5634 20.2279 36.7592 20.5748C36.804 20.6541 36.8062 20.8344 36.7729 20.899C36.7272 20.9892 36.5855 21.2914 36.4668 21.3569C36.3485 21.4226 36.3292 21.3475 36.3112 21.2745ZM34.5951 23.8988C34.7346 23.5223 34.8172 22.9081 34.7896 22.2922C34.7593 21.61 34.483 21.0332 34.4006 20.7949C34.3179 20.5564 34.4555 20.5291 34.5839 20.5014C34.7123 20.4737 34.8834 20.4381 34.9692 20.4121C35.1264 20.3643 35.1794 20.3366 35.3172 20.2999C35.4544 20.2634 35.6379 20.2818 35.7206 20.4282C35.8032 20.5751 36.3206 21.3301 36.3206 22.5859C36.3206 22.9749 36.2094 23.7359 35.9119 23.9025C35.6242 24.0635 35.1386 24.2316 34.6947 24.2316C34.6775 24.2316 34.6603 24.2303 34.6436 24.2311C34.5058 24.2354 34.504 24.1429 34.5951 23.8988ZM32.2837 21.8204C32.2837 21.6581 32.3148 21.5059 32.3303 21.4222C32.3487 21.3191 32.4258 21.3065 32.4614 21.3777C32.4975 21.449 32.6673 21.8133 33.0593 22.1357C33.4517 22.4582 33.8793 22.6338 34.4811 22.649C34.5511 22.6507 34.588 22.7606 34.588 22.862C34.588 22.9626 34.5242 23.7232 34.2765 24.0057C34.2123 24.0796 34.149 24.1777 34.0107 24.1333C33.0202 23.8121 32.2837 22.9143 32.2837 21.8204Z" fill="#FFF22D"/>
        <path d="M32.0313 21.8045C32.0308 21.453 32.0999 21.1049 32.2344 20.7801C32.369 20.4554 32.5664 20.1604 32.8152 19.9122C33.2995 19.4279 33.9687 19.1284 34.7074 19.1284C35.446 19.1284 36.1154 19.4279 36.5995 19.9122C37.0838 20.3963 37.383 21.0654 37.383 21.8045C37.383 22.5436 37.0836 23.2126 36.5995 23.6966C36.1154 24.1807 35.4465 24.4802 34.7074 24.4802C34.3558 24.4806 34.0077 24.4116 33.6829 24.2771C33.3582 24.1427 33.0632 23.9454 32.8148 23.6966C32.566 23.4484 32.3688 23.1534 32.2343 22.8287C32.0998 22.504 32.0308 22.156 32.0313 21.8045ZM32.0585 21.8045C32.0585 22.5361 32.355 23.1982 32.8341 23.6775C33.3137 24.1571 33.9758 24.4536 34.7076 24.4536C35.4394 24.4536 36.1012 24.1571 36.581 23.678C37.0602 23.1984 37.3566 22.5363 37.3566 21.8045C37.3566 21.0727 37.0602 20.4109 36.5806 19.9313C36.3349 19.685 36.0429 19.4896 35.7215 19.3565C35.4001 19.2233 35.0555 19.155 34.7076 19.1555C34.3596 19.1551 34.0151 19.2234 33.6936 19.3566C33.3722 19.4898 33.0803 19.6852 32.8346 19.9315C32.5882 20.1772 32.3928 20.4691 32.2596 20.7906C32.1264 21.112 32.0581 21.4566 32.0585 21.8045Z" fill="#FDE62F"/>
    </g>
    <defs>
        <clipPath id="clip0_40_212">
            <rect width="38.6207" height="40" fill="white"/>
        </clipPath>
    </defs>
</svg>
