<svg width="160" height="24" viewBox="0 0 160 24" fill="none" xmlns="http://www.w3.org/2000/svg">
<path fill-rule="evenodd" clip-rule="evenodd" d="M38.7559 14.6239L37.0796 12.1115H26.249L24.5832 14.6239H21.1546L30.3103 0.876557H33.0288L42.1845 14.6239H38.7559ZM31.6702 3.97309L28.1458 9.26438H35.1842L31.6702 3.97309ZM58.4863 14.6239L56.264 10.4339H46.5543V14.6239H43.7098V0.876557H57.2695C57.7867 0.877869 58.2973 0.980256 58.7738 1.17978C59.2516 1.37799 59.6848 1.66808 60.0497 2.033C60.4146 2.39923 60.7047 2.8324 60.9029 3.31021C61.1011 3.78801 61.2048 4.29994 61.2061 4.81581V6.49338C61.2048 6.84911 61.1562 7.2009 61.0617 7.54219C60.9659 7.88479 60.8255 8.21164 60.6443 8.51486C60.4619 8.81939 60.24 9.09767 59.9841 9.34183C59.7281 9.58729 59.4393 9.796 59.1282 9.96402L61.5986 14.6239H58.4863ZM58.3616 4.81581C58.3629 4.67274 58.3341 4.53097 58.2802 4.39839C58.2251 4.26581 58.145 4.14636 58.0426 4.04529C57.9416 3.94422 57.8208 3.86414 57.6882 3.81164C57.5557 3.75782 57.4126 3.73025 57.2695 3.73288H46.5543V7.58681H57.2695C57.4139 7.58813 57.557 7.56056 57.6895 7.50674C57.8234 7.45292 57.9442 7.37154 58.0453 7.27047C58.1477 7.16808 58.2277 7.04732 58.2815 6.91343C58.3367 6.78085 58.3629 6.63777 58.3616 6.49338V4.81581ZM80.208 14.6239L78.5318 12.1115H67.7011L66.034 14.6226H62.6067L71.7611 0.876557H74.4809L83.6367 14.6239H80.208ZM73.121 3.97309L69.5979 9.26438H76.6363L73.121 3.97309ZM87.9146 14.6239V3.73288H80.3774V0.876557H98.295V3.73288H90.7578V14.6239H87.9146ZM115.362 14.6239V9.17774H103.141V14.6239H100.298V0.876557H103.141V6.33061H115.362V0.876557H118.214V14.6239H115.362ZM124.615 14.6239C124.098 14.6239 123.586 14.5215 123.108 14.3233C122.63 14.1251 122.197 13.835 121.831 13.4688C121.466 13.1039 121.176 12.6694 120.978 12.1916C120.781 11.7125 120.678 11.2005 120.678 10.6834V4.81581C120.68 4.29863 120.782 3.7867 120.98 3.30889C121.178 2.83109 121.467 2.39792 121.833 2.03169C122.198 1.66546 122.632 1.37536 123.109 1.17715C123.586 0.978943 124.098 0.876557 124.615 0.875244H135.493C136.01 0.876557 136.522 0.978943 136.998 1.17715C137.476 1.37536 137.909 1.66546 138.274 2.03169C138.641 2.3966 138.931 2.83109 139.128 3.30889C139.326 3.7867 139.428 4.29863 139.429 4.81581V10.6834C139.429 11.2005 139.327 11.7125 139.13 12.1916C138.932 12.6694 138.642 13.1039 138.277 13.4688C137.911 13.835 137.478 14.1251 137 14.3233C136.522 14.5215 136.01 14.6239 135.493 14.6239H124.615ZM136.585 10.6834V4.81581C136.586 4.67274 136.557 4.53097 136.504 4.39839C136.448 4.26581 136.368 4.14636 136.266 4.04529C136.165 3.94422 136.044 3.86414 135.912 3.81033C135.779 3.75782 135.636 3.73025 135.493 3.73288H124.615C124.472 3.73025 124.33 3.75782 124.196 3.81164C124.064 3.86414 123.943 3.94422 123.842 4.04529C123.741 4.14636 123.659 4.26581 123.605 4.39839C123.55 4.53097 123.523 4.67274 123.523 4.81581V10.6834C123.521 10.8264 123.549 10.9695 123.603 11.1034C123.657 11.236 123.738 11.3581 123.839 11.4591C123.94 11.5615 124.062 11.6416 124.195 11.6954C124.327 11.7505 124.471 11.7781 124.615 11.7755H135.493C135.637 11.7781 135.78 11.7505 135.913 11.6967C136.047 11.6416 136.168 11.5615 136.27 11.4604C136.371 11.3581 136.451 11.2373 136.506 11.1034C136.56 10.9708 136.588 10.8277 136.586 10.6834H136.585ZM157.368 14.6239L144.756 4.79744V14.6239H141.913V0.876557H144.374L156.976 10.7017V0.876557H159.831V14.6239H157.368ZM9.08874 1.25985H10.1585V2.44123H9.08874V1.25985ZM19.628 0.876557V14.6239H16.7743V5.88037L10.933 12.6103H8.7212L2.87991 5.88037V14.6239H0.0354004V0.876557H2.56356L9.8317 9.44684L15.0731 3.25901V3.94159H16.1442V2.76021H15.4945L17.0906 0.876557H19.628ZM1.77729 5.39732H0.704852V6.5787H1.77729V5.39732ZM13.7224 11.3069H14.7948V12.4882H13.7224V11.3069Z" fill="black"/>
<path fill-rule="evenodd" clip-rule="evenodd" d="M0 23.1247V18.7786H4.51157C4.56539 18.7786 4.6179 18.7812 4.6704 18.7891C4.72422 18.7956 4.77541 18.8061 4.82661 18.8193C4.8778 18.8337 4.929 18.8508 4.97756 18.8718C5.02613 18.8915 5.07339 18.9164 5.11933 18.9426C5.16396 18.9702 5.20728 18.9991 5.24797 19.0306C5.28866 19.0634 5.32804 19.0975 5.36479 19.1343C5.40155 19.171 5.43568 19.2104 5.46718 19.2524C5.49868 19.2931 5.52888 19.3364 5.55513 19.3811C5.58138 19.427 5.60501 19.4743 5.62601 19.5228C5.6457 19.5714 5.66276 19.6213 5.6772 19.6725C5.69033 19.7237 5.70083 19.7762 5.7074 19.8287C5.71396 19.8812 5.71658 19.9337 5.71658 19.9862V21.9197C5.71789 21.9722 5.71396 22.0247 5.7074 22.0773C5.70083 22.1298 5.69033 22.1823 5.6772 22.2335C5.66408 22.2846 5.64701 22.3345 5.62601 22.3831C5.60501 22.4317 5.58138 22.4789 5.55513 22.5249C5.52756 22.5695 5.49868 22.6128 5.46718 22.6535C5.43568 22.6942 5.40155 22.7336 5.36479 22.7703C5.32804 22.8071 5.28866 22.8412 5.24797 22.8727C5.20728 22.9055 5.16396 22.9344 5.11933 22.9607C5.07339 22.9882 5.02613 23.0119 4.97756 23.0329C4.929 23.0539 4.8778 23.0709 4.82661 23.0841C4.77541 23.0985 4.72422 23.109 4.6704 23.1156C4.6179 23.1221 4.56539 23.1261 4.51157 23.1247H0ZM4.51157 22.37C4.57195 22.3713 4.63102 22.3608 4.68616 22.3385C4.74129 22.3162 4.79117 22.282 4.83317 22.24C4.87518 22.198 4.90799 22.1481 4.93031 22.093C4.95262 22.0379 4.96444 21.9788 4.96312 21.9197V19.9862C4.96444 19.9271 4.95262 19.8681 4.93031 19.8129C4.90799 19.7578 4.87386 19.7079 4.83186 19.6659C4.78985 19.6239 4.73997 19.5898 4.68616 19.5675C4.63102 19.5452 4.57195 19.5333 4.51157 19.5333H0.753459V22.3713L4.51157 22.37ZM12.5489 23.1247H11.7955V18.7786H12.5489V23.1247ZM23.1682 23.1247H19.8604C19.8065 23.1261 19.754 23.1221 19.7015 23.1156C19.649 23.109 19.5965 23.0985 19.5453 23.0854C19.4941 23.0709 19.4443 23.0539 19.3957 23.0329C19.3471 23.0119 19.2999 22.9882 19.2539 22.9607C19.2093 22.9344 19.1673 22.9055 19.1266 22.8727C19.0846 22.8412 19.0465 22.8071 19.0098 22.7703C18.973 22.7336 18.9376 22.6942 18.9061 22.6535C18.8746 22.6128 18.8444 22.5695 18.8181 22.5249C18.7906 22.4802 18.7669 22.433 18.7459 22.3831C18.7262 22.3345 18.7092 22.2846 18.6947 22.2335C18.6816 22.1823 18.6711 22.1311 18.6645 22.0786C18.658 22.0261 18.654 21.9722 18.6554 21.9197V19.9862C18.654 19.9337 18.658 19.8799 18.6645 19.8274C18.6711 19.7749 18.6816 19.7237 18.6947 19.6725C18.7092 19.6213 18.7262 19.5714 18.7472 19.5228C18.7669 19.4743 18.7919 19.427 18.8181 19.3811C18.8444 19.3364 18.8746 19.2931 18.9061 19.2524C18.9376 19.2104 18.9717 19.1724 19.0085 19.1343C19.0452 19.0975 19.0846 19.0634 19.1253 19.0319C19.1673 18.9991 19.2093 18.9702 19.2539 18.9426C19.2999 18.9164 19.3471 18.8915 19.3957 18.8718C19.4443 18.8508 19.4941 18.8337 19.5453 18.8193C19.5965 18.8048 19.649 18.7956 19.7015 18.7878C19.754 18.7812 19.8065 18.7786 19.8604 18.7786H23.1682C23.2207 18.7786 23.2746 18.7812 23.3271 18.7891C23.3796 18.7956 23.4308 18.8061 23.4833 18.8193C23.5345 18.8337 23.5844 18.8508 23.6329 18.8718C23.6815 18.8915 23.7287 18.9164 23.7747 18.9426C23.8193 18.9702 23.8626 18.9991 23.9033 19.0306C23.9453 19.0634 23.9834 19.0975 24.0201 19.1343C24.0569 19.171 24.091 19.2104 24.1238 19.2524C24.1554 19.2931 24.1842 19.3364 24.2105 19.3811C24.238 19.427 24.2617 19.4743 24.2814 19.5228C24.3024 19.5714 24.3194 19.6213 24.3326 19.6725C24.347 19.7237 24.3562 19.7762 24.3628 19.8287C24.3693 19.8812 24.3733 19.9337 24.3719 19.9862V20.0886H23.6185V19.9862C23.6198 19.9271 23.608 19.8681 23.5857 19.8129C23.5633 19.7578 23.5305 19.7079 23.4885 19.6659C23.4465 19.6239 23.3966 19.5898 23.3415 19.5675C23.2864 19.5452 23.2273 19.5333 23.1682 19.5333H19.8604C19.8 19.5333 19.7409 19.5452 19.6871 19.5675C19.632 19.5898 19.5821 19.6239 19.5401 19.6659C19.4981 19.7079 19.4639 19.7578 19.4416 19.8129C19.4193 19.8681 19.4075 19.9271 19.4088 19.9862V21.9197C19.4075 21.9788 19.4193 22.0379 19.4416 22.093C19.4639 22.1481 19.4968 22.198 19.5388 22.24C19.5808 22.282 19.6307 22.3162 19.6858 22.3385C19.7409 22.3608 19.8 22.3713 19.8604 22.37H23.1682C23.2273 22.3713 23.2864 22.3608 23.3415 22.3385C23.3966 22.3162 23.4465 22.282 23.4885 22.24C23.5305 22.198 23.5647 22.1481 23.587 22.093C23.6093 22.0379 23.6198 21.9788 23.6185 21.9197V21.3317H21.4119V20.5769H24.3733V21.9197C24.3733 21.9722 24.3706 22.0247 24.3641 22.0773C24.3575 22.1298 24.347 22.1823 24.3339 22.2335C24.3194 22.2846 24.3024 22.3345 24.2827 22.3831C24.2617 22.4317 24.238 22.4789 24.2105 22.5249C24.1842 22.5695 24.1554 22.6128 24.1238 22.6535C24.0923 22.6942 24.0569 22.7336 24.0201 22.7703C23.9834 22.8071 23.9453 22.8412 23.9033 22.8727C23.8626 22.9055 23.8193 22.9344 23.7747 22.9607C23.7301 22.9882 23.6828 23.0119 23.6329 23.0329C23.5844 23.0539 23.5345 23.0709 23.4833 23.0841C23.4321 23.0985 23.3796 23.109 23.3271 23.1156C23.2746 23.1221 23.2207 23.1261 23.1682 23.1247ZM31.1859 23.1247H30.4324V18.7786H31.1859V23.1247ZM40.3823 23.1247H39.6289V19.5333H37.1466V18.7786H42.8645V19.5333H40.3823V23.1247ZM53.8671 23.1247H52.9627L52.4088 22.2978H48.7439L48.1926 23.1247H47.2855L50.1786 18.7786H50.9741L53.8671 23.1247ZM51.91 21.543L50.5776 19.5438L49.2466 21.543H51.91ZM64.5679 23.1247H59.6769V18.7786H60.4304V22.3713H64.5679V23.1247ZM83.3059 23.1247H82.5524V21.3317H78.3415V23.1247H77.588V18.7786H78.3415V20.5769H82.5524V18.7786H83.3059V23.1247ZM90.616 23.1247C90.5635 23.1261 90.5097 23.1221 90.4572 23.1156C90.4047 23.109 90.3535 23.0985 90.3023 23.0854C90.2511 23.0709 90.2012 23.0539 90.1527 23.0329C90.1041 23.0119 90.0569 22.9882 90.0109 22.9607C89.9663 22.9344 89.923 22.9055 89.8823 22.8727C89.8416 22.8412 89.8022 22.8071 89.7654 22.7703C89.7287 22.7336 89.6946 22.6942 89.6631 22.6535C89.6302 22.6128 89.6014 22.5695 89.5738 22.5249C89.5475 22.4802 89.5239 22.433 89.5029 22.3831C89.4819 22.3345 89.4649 22.2846 89.4504 22.2335C89.4373 22.1823 89.4268 22.1311 89.4202 22.0786C89.4137 22.0261 89.411 21.9722 89.411 21.9197V19.9862C89.411 19.9337 89.4137 19.8799 89.4202 19.8274C89.4268 19.7749 89.4373 19.7237 89.4517 19.6725C89.4649 19.6213 89.4819 19.5714 89.5029 19.5228C89.5239 19.4743 89.5475 19.427 89.5738 19.3811C89.6014 19.3364 89.6302 19.2931 89.6617 19.2524C89.6946 19.2104 89.7287 19.1724 89.7654 19.1343C89.8022 19.0975 89.8416 19.0634 89.8823 19.0319C89.923 18.9991 89.9663 18.9702 90.0109 18.9426C90.0569 18.9164 90.1041 18.8915 90.1527 18.8718C90.2012 18.8508 90.2511 18.8337 90.3023 18.8193C90.3535 18.8048 90.4047 18.7956 90.4572 18.7878C90.5097 18.7812 90.5635 18.7786 90.616 18.7786H94.1996C94.2521 18.7786 94.3059 18.7812 94.3584 18.7891C94.4109 18.7956 94.4634 18.8061 94.5146 18.8193C94.5658 18.8337 94.6157 18.8508 94.6656 18.8718C94.7141 18.8915 94.7614 18.9164 94.8073 18.9426C94.852 18.9702 94.8953 18.9991 94.936 19.0306C94.9767 19.0634 95.016 19.0975 95.0528 19.1343C95.0895 19.171 95.1237 19.2104 95.1552 19.2524C95.1867 19.2931 95.2156 19.3364 95.2418 19.3811C95.2694 19.427 95.293 19.4743 95.3127 19.5228C95.3337 19.5714 95.3508 19.6213 95.3639 19.6725C95.3783 19.7237 95.3875 19.7762 95.3941 19.8287C95.4007 19.8812 95.4046 19.9337 95.4033 19.9862V21.9197C95.4046 21.9722 95.4007 22.0247 95.3941 22.0773C95.3875 22.1298 95.3783 22.1823 95.3639 22.2335C95.3508 22.2846 95.3337 22.3345 95.3127 22.3831C95.293 22.4317 95.2694 22.4789 95.2418 22.5249C95.2156 22.5695 95.1867 22.6128 95.1552 22.6535C95.1237 22.6942 95.0895 22.7336 95.0528 22.7703C95.016 22.8071 94.9767 22.8412 94.936 22.8727C94.8953 22.9055 94.852 22.9344 94.8073 22.9607C94.7614 22.9882 94.7141 23.0119 94.6656 23.0329C94.6157 23.0539 94.5658 23.0709 94.5146 23.0841C94.4634 23.0985 94.4109 23.109 94.3584 23.1156C94.3059 23.1221 94.2521 23.1261 94.1996 23.1247H90.616ZM94.1996 22.37C94.2586 22.3713 94.3177 22.3608 94.3728 22.3385C94.428 22.3162 94.4792 22.282 94.5212 22.24C94.5632 22.198 94.596 22.1481 94.6183 22.093C94.6406 22.0379 94.6524 21.9788 94.6511 21.9197V19.9862C94.6511 19.9271 94.6406 19.8681 94.6183 19.8129C94.5947 19.7578 94.5619 19.7079 94.5199 19.6659C94.4779 19.6226 94.428 19.5898 94.3728 19.5675C94.3177 19.5452 94.2586 19.5333 94.1996 19.5333H90.616C90.557 19.5333 90.4979 19.5452 90.4428 19.5675C90.3876 19.5898 90.3378 19.6239 90.2958 19.6659C90.2538 19.7079 90.2209 19.7578 90.1986 19.8129C90.1763 19.8681 90.1645 19.9271 90.1658 19.9862V21.9197C90.1645 21.9788 90.175 22.0379 90.1973 22.093C90.2196 22.1481 90.2538 22.198 90.2958 22.24C90.3378 22.282 90.3876 22.3162 90.4428 22.3385C90.4979 22.3608 90.557 22.3713 90.616 22.37H94.1996ZM106.407 23.1247H101.516V18.7786H102.27V22.3713H106.407V23.1247ZM116.911 23.1247H112.398V18.7786H116.911C116.964 18.7786 117.017 18.7812 117.07 18.7891C117.122 18.7956 117.175 18.8061 117.226 18.8193C117.277 18.8337 117.327 18.8508 117.376 18.8718C117.426 18.8915 117.473 18.9164 117.519 18.9426C117.563 18.9702 117.607 18.9991 117.647 19.0306C117.688 19.0634 117.727 19.0975 117.764 19.1343C117.801 19.171 117.835 19.2104 117.867 19.2524C117.898 19.2931 117.927 19.3364 117.953 19.3811C117.981 19.427 118.004 19.4743 118.025 19.5228C118.045 19.5714 118.062 19.6213 118.077 19.6725C118.09 19.7237 118.1 19.7762 118.107 19.8287C118.113 19.8812 118.116 19.9337 118.116 19.9862V21.9197C118.116 21.9722 118.113 22.0247 118.107 22.0773C118.1 22.1298 118.09 22.1823 118.077 22.2335C118.062 22.2846 118.045 22.3345 118.025 22.3831C118.004 22.4317 117.981 22.4789 117.953 22.5249C117.927 22.5695 117.898 22.6128 117.867 22.6535C117.835 22.6942 117.8 22.7336 117.763 22.7703C117.727 22.8071 117.688 22.8412 117.647 22.8727C117.605 22.9055 117.563 22.9344 117.519 22.9607C117.473 22.9882 117.426 23.0119 117.376 23.0329C117.327 23.0539 117.277 23.0709 117.226 23.0841C117.175 23.0985 117.122 23.109 117.07 23.1156C117.017 23.1221 116.964 23.1261 116.911 23.1247ZM116.911 22.37C116.97 22.3713 117.029 22.3608 117.084 22.3385C117.139 22.3162 117.189 22.282 117.231 22.24C117.273 22.198 117.307 22.1481 117.33 22.093C117.352 22.0379 117.363 21.9788 117.363 21.9197V19.9862C117.363 19.9271 117.351 19.8681 117.328 19.8129C117.306 19.7578 117.273 19.7079 117.231 19.6659C117.189 19.6226 117.139 19.5898 117.084 19.5675C117.029 19.5452 116.97 19.5333 116.911 19.5333H113.152V22.3713L116.911 22.37ZM124.947 23.1247H124.195V18.7786H124.947V23.1247ZM136.804 23.1247H136.118L131.84 19.7919V23.1247H131.088V18.7786H131.774L136.051 22.1127V18.7786H136.804V23.1247ZM147.422 23.1247H144.114C144.062 23.1261 144.009 23.1221 143.957 23.1156C143.904 23.109 143.852 23.0985 143.801 23.0854C143.749 23.0709 143.7 23.0539 143.651 23.0329C143.602 23.0119 143.555 22.9882 143.509 22.9607C143.465 22.9344 143.423 22.9055 143.381 22.8727C143.34 22.8412 143.3 22.8071 143.264 22.7703C143.227 22.7336 143.193 22.6942 143.161 22.6535C143.129 22.6128 143.1 22.5695 143.073 22.5249C143.046 22.4802 143.022 22.433 143.001 22.3831C142.98 22.3345 142.963 22.2846 142.95 22.2335C142.936 22.1823 142.925 22.1311 142.919 22.0786C142.912 22.0261 142.909 21.9722 142.909 21.9197V19.9862C142.909 19.9337 142.912 19.8799 142.919 19.8274C142.925 19.7749 142.936 19.7237 142.95 19.6725C142.963 19.6213 142.98 19.5714 143.001 19.5228C143.022 19.4743 143.046 19.427 143.073 19.3811C143.1 19.3364 143.129 19.2931 143.161 19.2524C143.193 19.2104 143.227 19.1724 143.264 19.1356C143.3 19.0975 143.34 19.0634 143.381 19.0319C143.423 18.9991 143.465 18.9702 143.509 18.9426C143.555 18.9164 143.602 18.8915 143.651 18.8718C143.7 18.8508 143.749 18.8337 143.801 18.8193C143.852 18.8048 143.904 18.7956 143.957 18.7878C144.009 18.7812 144.062 18.7786 144.114 18.7786H147.422C147.476 18.7786 147.529 18.7812 147.581 18.7891C147.634 18.7956 147.686 18.8061 147.737 18.8193C147.788 18.8337 147.84 18.8508 147.888 18.8718C147.937 18.8915 147.984 18.9164 148.03 18.9426C148.075 18.9702 148.118 18.9991 148.159 19.0306C148.201 19.0634 148.239 19.0975 148.275 19.1343C148.312 19.171 148.346 19.2104 148.378 19.2524C148.411 19.2931 148.44 19.3364 148.466 19.3811C148.492 19.427 148.516 19.4743 148.537 19.5228C148.556 19.5714 148.573 19.6213 148.588 19.6725C148.601 19.7237 148.611 19.7762 148.618 19.8287C148.625 19.8812 148.627 19.9337 148.627 19.9862V20.0886H147.874V19.9862C147.875 19.9271 147.863 19.8681 147.841 19.8129C147.819 19.7578 147.785 19.7079 147.742 19.6659C147.7 19.6226 147.651 19.5898 147.595 19.5675C147.54 19.5452 147.481 19.5333 147.422 19.5333H144.114C144.055 19.5333 143.996 19.5452 143.941 19.5675C143.886 19.5898 143.836 19.6239 143.794 19.6659C143.752 19.7079 143.719 19.7578 143.697 19.8129C143.675 19.8681 143.663 19.9271 143.664 19.9862V21.9197C143.663 21.9788 143.673 22.0379 143.696 22.093C143.718 22.1481 143.752 22.198 143.794 22.24C143.836 22.282 143.886 22.3148 143.941 22.3385C143.996 22.3608 144.055 22.3713 144.114 22.37H147.422C147.481 22.3713 147.54 22.3608 147.595 22.3385C147.651 22.3162 147.702 22.282 147.744 22.24C147.786 22.198 147.819 22.1481 147.841 22.093C147.863 22.0379 147.875 21.9788 147.874 21.9197V21.3317H145.667V20.5769H148.627V21.9197C148.627 21.9722 148.625 22.0247 148.618 22.0773C148.611 22.1298 148.601 22.1823 148.588 22.2335C148.575 22.2846 148.558 22.3345 148.537 22.3831C148.516 22.4317 148.492 22.4789 148.466 22.5249C148.44 22.5695 148.411 22.6128 148.378 22.6535C148.346 22.6942 148.312 22.7336 148.275 22.7703C148.239 22.8071 148.199 22.8412 148.159 22.8727C148.118 22.9055 148.075 22.9344 148.03 22.9607C147.984 22.9882 147.937 23.0119 147.888 23.0329C147.84 23.0539 147.788 23.0709 147.737 23.0841C147.686 23.0985 147.635 23.109 147.581 23.1156C147.529 23.1221 147.476 23.1261 147.422 23.1247ZM155.675 23.1247C155.626 23.1261 155.578 23.1234 155.529 23.1169C155.481 23.1103 155.432 23.1011 155.385 23.0893C155.337 23.0762 155.29 23.0604 155.246 23.042C155.2 23.0237 155.156 23.0014 155.114 22.9764C155.072 22.9528 155.033 22.9265 154.995 22.8977C154.957 22.8688 154.921 22.8373 154.887 22.8045C154.853 22.7716 154.822 22.7362 154.791 22.6981C154.763 22.6614 154.735 22.622 154.71 22.5813C154.685 22.5406 154.664 22.4973 154.644 22.4527C154.626 22.408 154.609 22.3634 154.597 22.3162C154.584 22.2702 154.574 22.223 154.568 22.1757C154.562 22.1271 154.558 22.0786 154.558 22.0313V21.9276H155.313V22.0313C155.311 22.0536 155.314 22.0759 155.318 22.0983C155.322 22.1206 155.328 22.1429 155.337 22.1639C155.347 22.1849 155.357 22.2046 155.37 22.223C155.383 22.2413 155.399 22.2584 155.416 22.2741C155.433 22.2899 155.452 22.3043 155.473 22.3162C155.492 22.3293 155.513 22.3398 155.536 22.3477C155.558 22.3555 155.582 22.3621 155.604 22.366C155.628 22.37 155.651 22.3713 155.675 22.37H158.883C158.907 22.3713 158.93 22.37 158.954 22.366C158.977 22.3621 159 22.3555 159.022 22.3477C159.044 22.3398 159.065 22.3293 159.085 22.3162C159.106 22.3043 159.124 22.2899 159.142 22.2741C159.159 22.2584 159.174 22.2413 159.187 22.223C159.201 22.2046 159.211 22.1849 159.22 22.1639C159.229 22.1429 159.236 22.1206 159.24 22.0983C159.245 22.0759 159.247 22.0536 159.247 22.0313V21.6703C159.247 21.648 159.245 21.6257 159.24 21.6034C159.236 21.5811 159.229 21.5588 159.22 21.5378C159.211 21.5167 159.201 21.4971 159.187 21.4787C159.174 21.4603 159.159 21.4432 159.142 21.4275C159.124 21.4117 159.106 21.3973 159.085 21.3855C159.065 21.3724 159.044 21.3619 159.022 21.354C159 21.3461 158.977 21.3395 158.954 21.3356C158.93 21.3317 158.907 21.3304 158.883 21.3317H155.675C155.626 21.3317 155.578 21.329 155.529 21.3238C155.479 21.3172 155.432 21.308 155.385 21.2949C155.337 21.2831 155.29 21.2673 155.246 21.2477C155.2 21.2293 155.156 21.207 155.114 21.182C155.072 21.1584 155.033 21.1321 154.995 21.1033C154.957 21.0744 154.92 21.0429 154.886 21.0101C154.852 20.9759 154.82 20.9405 154.79 20.9037C154.761 20.8657 154.734 20.8263 154.709 20.7856C154.684 20.7449 154.661 20.7016 154.643 20.657C154.623 20.6136 154.608 20.5677 154.596 20.5204C154.583 20.4745 154.574 20.4273 154.567 20.3787C154.56 20.3314 154.558 20.2829 154.558 20.2343V19.8773C154.558 19.8287 154.56 19.7801 154.567 19.7329C154.574 19.6843 154.583 19.637 154.596 19.5911C154.608 19.5438 154.623 19.4979 154.643 19.4546C154.661 19.4099 154.684 19.3666 154.709 19.3259C154.734 19.2839 154.761 19.2446 154.79 19.2078C154.82 19.1697 154.852 19.1343 154.886 19.1015C154.92 19.0673 154.957 19.0358 154.995 19.007C155.033 18.9781 155.072 18.9518 155.114 18.9282C155.156 18.9033 155.2 18.881 155.246 18.8626C155.29 18.8442 155.337 18.8284 155.385 18.8153C155.432 18.8022 155.479 18.793 155.529 18.7878C155.578 18.7812 155.626 18.7786 155.675 18.7786H158.883C158.931 18.7786 158.981 18.7812 159.03 18.7878C159.079 18.793 159.127 18.8022 159.174 18.8153C159.222 18.8284 159.268 18.8442 159.313 18.8626C159.358 18.881 159.403 18.9033 159.445 18.9282C159.485 18.9518 159.526 18.9781 159.563 19.007C159.601 19.0358 159.638 19.0673 159.672 19.1015C159.706 19.1343 159.737 19.1697 159.768 19.2078C159.797 19.2446 159.824 19.2839 159.849 19.3259C159.874 19.3666 159.896 19.4099 159.915 19.4546C159.934 19.4979 159.95 19.5438 159.963 19.5911C159.976 19.637 159.986 19.6843 159.991 19.7329C159.997 19.7801 160 19.8287 160 19.8773V19.977H159.247V19.8773C159.247 19.8549 159.245 19.8313 159.24 19.809C159.236 19.7867 159.229 19.7644 159.22 19.7434C159.211 19.7224 159.201 19.7027 159.187 19.683C159.174 19.6646 159.159 19.6475 159.142 19.6318C159.124 19.616 159.106 19.6016 159.085 19.5885C159.065 19.5767 159.044 19.5662 159.022 19.557C159 19.5491 158.977 19.5425 158.954 19.5386C158.93 19.5346 158.907 19.5333 158.883 19.5333H155.675C155.651 19.5333 155.628 19.5346 155.604 19.5386C155.58 19.5425 155.558 19.5491 155.536 19.557C155.513 19.5662 155.492 19.5767 155.473 19.5885C155.452 19.6016 155.433 19.616 155.416 19.6318C155.399 19.6475 155.383 19.6646 155.37 19.6843C155.357 19.7027 155.347 19.7224 155.337 19.7434C155.328 19.7644 155.322 19.7867 155.318 19.809C155.314 19.8313 155.311 19.8549 155.313 19.8773V20.2343C155.311 20.2579 155.314 20.2802 155.318 20.3025C155.322 20.3249 155.328 20.3472 155.337 20.3682C155.347 20.3892 155.357 20.4089 155.37 20.4273C155.383 20.4456 155.399 20.4627 155.416 20.4784C155.433 20.4942 155.452 20.5086 155.473 20.5218C155.492 20.5349 155.513 20.5454 155.536 20.5533C155.558 20.5611 155.58 20.5677 155.604 20.5716C155.628 20.5756 155.651 20.5769 155.675 20.5769H158.883C158.931 20.5756 158.981 20.5782 159.03 20.5848C159.079 20.5913 159.126 20.6005 159.174 20.6123C159.222 20.6255 159.268 20.6399 159.313 20.6596C159.358 20.678 159.403 20.699 159.445 20.7239C159.485 20.7475 159.526 20.7738 159.563 20.8027C159.601 20.8315 159.638 20.8631 159.672 20.8959C159.706 20.93 159.737 20.9654 159.768 21.0022C159.797 21.0389 159.824 21.0783 159.849 21.119C159.874 21.161 159.896 21.203 159.915 21.2477C159.934 21.2923 159.95 21.3382 159.963 21.3842C159.976 21.4314 159.986 21.4787 159.991 21.5259C159.997 21.5745 160 21.6231 160 21.6703V22.0313C160 22.0786 159.997 22.1271 159.991 22.1744C159.986 22.223 159.975 22.2702 159.963 22.3162C159.95 22.3621 159.934 22.408 159.915 22.4514C159.896 22.496 159.874 22.5393 159.849 22.58C159.824 22.6207 159.797 22.6601 159.766 22.6968C159.737 22.7349 159.706 22.7703 159.672 22.8031C159.638 22.8373 159.601 22.8688 159.563 22.8977C159.525 22.9265 159.485 22.9528 159.445 22.9764C159.403 23.0014 159.358 23.0237 159.313 23.042C159.268 23.0604 159.222 23.0762 159.174 23.0893C159.126 23.1011 159.079 23.1103 159.03 23.1169C158.981 23.1234 158.931 23.1261 158.883 23.1247H155.675Z" fill="black"/>
</svg>
