<svg width="66" height="11" viewBox="0 0 66 11" fill="none" xmlns="http://www.w3.org/2000/svg">
    <g clip-path="url(#clip0_222:398)">
        <path d="M25.217 3.17493C25.217 2.89295 25.217 0.266478 25.217 0.266478C25.217 0.0650624 25.0318 0.000610352 25.1446 0.000610352C25.2493 0.000610352 25.773 0.000610352 25.773 0.000610352C25.91 0.000610352 25.7166 0.0408946 25.7166 0.258423C25.7166 0.4115 25.7166 3.16687 25.7166 3.16687C25.7166 3.48108 25.7166 3.51331 26.2564 3.54553C26.4819 3.56164 27.1104 3.59388 27.6502 2.93323C27.8113 2.73181 27.763 2.87683 27.763 2.87683C27.763 2.87683 27.6743 3.47302 27.6422 3.58582C27.618 3.67444 27.5938 3.65833 27.5133 3.65833C27.4327 3.65833 25.1446 3.65833 25.1446 3.65833C25.0157 3.65833 25.0881 3.6261 25.1768 3.48913C25.2251 3.41662 25.217 3.17493 25.217 3.17493Z" fill="#8D7D7D"/>
        <path d="M28.4478 0.475923C28.4881 0.564547 29.7127 3.62607 29.7127 3.62607C29.7288 3.6583 29.7449 3.6583 29.7449 3.6583C29.7449 3.6583 29.9947 3.6583 30.0269 3.6583C30.0591 3.6583 30.0752 3.63412 30.0833 3.62607C30.0833 3.62607 31.1066 0.919039 31.171 0.757906C31.2355 0.596773 31.4529 0.218112 31.5818 0.0892059C31.6866 -0.00747378 31.5254 0.00863951 31.5254 0.00863951C31.5254 0.00863951 30.9131 0.00863951 30.8245 0.00863951C30.7762 0.00863951 30.7037 -0.0235881 30.8245 0.153658C31.042 0.475923 30.8971 0.830416 30.8971 0.830416L30.0591 3.15878C30.0591 3.15878 29.0521 0.524263 29.0118 0.43564C28.9796 0.347018 28.9796 0.193943 29.036 0.129489C29.1487 -0.00747377 29.1085 0.0166967 29.0198 0.0166967C28.9554 0.0166967 28.3028 0.0166967 28.1981 0.0166967C28.0127 0.000583361 28.2947 0.0650351 28.4478 0.475923Z" fill="#8D7D7D"/>
        <path d="M33.1851 0.540407C33.1932 0.927125 32.9435 2.86877 32.8548 3.13464C32.7823 3.37634 32.6776 3.55359 32.6453 3.59387C32.6051 3.64221 32.597 3.65833 32.6614 3.65833C32.6857 3.65833 33.1449 3.65833 33.1851 3.65833C33.2899 3.65833 33.1771 3.55359 33.1771 3.55359C33.1771 3.55359 33.0885 3.41662 33.1207 3.13464C33.1287 3.02991 33.4188 0.53235 33.4188 0.53235C33.4188 0.53235 34.5468 3.53748 34.587 3.6261C34.6273 3.73084 34.6757 3.73889 34.724 3.6261C34.7401 3.58581 35.9325 0.459841 35.9325 0.459841C35.9325 0.459841 36.1983 2.90906 36.2225 3.11048C36.2386 3.31189 36.2548 3.45691 36.2386 3.50525C36.2063 3.61805 36.1097 3.64221 36.2063 3.64221C36.3352 3.64221 36.859 3.64221 36.8993 3.64221C36.9959 3.64221 36.9799 3.62609 36.9395 3.56164C36.9073 3.5133 36.8187 3.42468 36.7221 3.03797C36.6415 2.7157 36.4803 0.484011 36.4641 0.338992C36.44 0.000612373 36.6656 -0.0155029 36.5528 -0.0155029C36.5206 -0.0155029 35.9002 -0.0155029 35.9002 -0.0155029C35.9002 -0.0155029 35.8196 -0.00744624 35.7875 0.105347C35.7713 0.161743 34.8126 2.86877 34.8126 2.86877L33.7652 -0.0155029C33.7652 -0.0155029 33.2576 -0.0155029 33.1045 -0.0155029C32.8709 0.000610398 33.2013 0.0408956 33.1851 0.540407Z" fill="#8D7D7D"/>
        <path d="M41.6285 0.0489304C41.6688 0.00864717 41.6688 0.000590043 41.5721 0.000590043C41.5319 0.000590043 41.0162 0.000590043 40.9759 0.000590043C40.8389 0.000590043 40.9115 0.0489304 40.9115 0.0489304C40.9115 0.0489304 41.0001 0.153666 41.0082 0.314799V1.69249H39.3001C39.3001 1.69249 39.3001 0.492046 39.3001 0.419536C39.3001 0.185894 39.3726 0.113383 39.3968 0.0730993C39.4532 -0.00746709 39.429 0.000590043 39.3404 0.000590043C39.3162 0.000590043 38.9295 0.000590043 38.7764 0.000590043C38.6717 0.000590043 38.6475 0.00864571 38.72 0.0650422C38.72 0.0650422 38.7925 0.113383 38.7845 0.435649C38.7845 0.435649 38.7845 3.11045 38.7845 3.23936C38.7764 3.45688 38.7683 3.55357 38.72 3.61802C38.6717 3.67441 38.7442 3.66636 38.7442 3.66636C38.7442 3.66636 39.3001 3.66636 39.3485 3.66636C39.3968 3.66636 39.3726 3.63414 39.3726 3.63414C39.3726 3.63414 39.3082 3.61802 39.3001 3.24742V1.85361H41.0082C41.0082 1.85361 41.0162 3.17491 41.0162 3.24742C41.0162 3.473 41.0161 3.56163 40.9598 3.60996C40.9276 3.64219 40.847 3.66636 41.0001 3.66636C41.0806 3.66636 41.5398 3.66636 41.5963 3.66636C41.6768 3.66636 41.701 3.66636 41.6366 3.61802C41.6044 3.5858 41.5479 3.53745 41.5479 3.24742C41.5479 3.1588 41.5479 0.419535 41.5479 0.355082C41.556 0.113383 41.6285 0.0489304 41.6285 0.0489304Z" fill="#8D7D7D"/>
        <path d="M12.6885 10.4777C12.7078 10.4777 12.7272 10.4583 12.7272 10.439L12.6885 10.4777Z" fill="#224A3D"/>
        <path d="M11.1224 7.19702H8.69891C8.67958 7.19702 8.66669 7.21636 8.66669 7.23569V7.42906C8.66669 7.45484 8.68603 7.46773 8.70536 7.46773H9.69149C9.71082 7.46773 9.73017 7.49351 9.73017 7.51284V10.4326V10.439C9.73017 10.4584 9.7495 10.4777 9.76239 10.4777H9.99446C10.0137 10.4777 10.0331 10.4584 10.0331 10.439V7.51929C10.0331 7.49995 10.0589 7.47417 10.0654 7.47417H11.1224C11.1417 7.47417 11.161 7.45484 11.161 7.4355V7.24214C11.161 7.21636 11.1481 7.19702 11.1224 7.19702Z" fill="#224A3D"/>
        <path d="M8.51194 10.2069H7.1842C7.16486 10.2069 7.14553 10.1875 7.14553 10.1683V8.95652H8.51194C8.53127 8.95652 8.55061 8.93718 8.55061 8.91785V8.73093C8.55061 8.71159 8.53127 8.69226 8.51194 8.69226H7.14553V7.51921C7.14553 7.49988 7.16486 7.48054 7.1842 7.48054H8.50549C8.52483 7.48054 8.54416 7.46121 8.54416 7.44187V7.24851C8.54416 7.22918 8.52483 7.20984 8.50549 7.20984H6.86838C6.84905 7.20984 6.82971 7.22918 6.82971 7.24851V10.4518C6.82971 10.4712 6.84905 10.4905 6.86838 10.4905H8.49905C8.51838 10.4905 8.53772 10.4712 8.53772 10.4518V10.252C8.55062 10.2198 8.53127 10.2069 8.51194 10.2069Z" fill="#224A3D"/>
        <path d="M17.0971 10.2069H15.7694C15.75 10.2069 15.7308 10.1875 15.7308 10.1683V8.95652H17.0971C17.1165 8.95652 17.1358 8.93718 17.1358 8.91785V8.73093C17.1358 8.71159 17.1165 8.69226 17.0971 8.69226H15.7308V7.51921C15.7308 7.49988 15.75 7.48054 15.7759 7.48054H17.0971C17.1165 7.48054 17.1358 7.46121 17.1358 7.44187V7.24851C17.1358 7.22918 17.1165 7.20984 17.0971 7.20984H15.4601C15.4407 7.20984 15.4213 7.22918 15.4213 7.24851V10.4518C15.4213 10.4712 15.4407 10.4905 15.4601 10.4905H17.0907C17.1101 10.4905 17.1294 10.4712 17.1294 10.4518V10.252C17.1358 10.2198 17.1165 10.2069 17.0971 10.2069Z" fill="#224A3D"/>
        <path d="M25.8821 10.2069H24.5544C24.535 10.2069 24.5156 10.1875 24.5156 10.1683V8.95652H25.8821C25.9014 8.95652 25.9208 8.93718 25.9208 8.91785V8.73093C25.9208 8.71159 25.9014 8.69226 25.8821 8.69226H24.5156V7.51921C24.5156 7.49988 24.535 7.48054 24.5544 7.48054H25.8757C25.8949 7.48054 25.9143 7.46121 25.9143 7.44187V7.24851C25.9143 7.22918 25.8949 7.20984 25.8757 7.20984H24.2386C24.2192 7.20984 24.1998 7.22918 24.1998 7.24851V10.4518C24.1998 10.4712 24.2192 10.4905 24.2386 10.4905H25.8692C25.8886 10.4905 25.9078 10.4712 25.9078 10.4518V10.252C25.9208 10.2198 25.9014 10.2069 25.8821 10.2069Z" fill="#224A3D"/>
        <path d="M7.3776 7.04878C7.48718 7.04878 7.57741 6.95854 7.57741 6.84898C7.57741 6.7394 7.48718 6.64917 7.3776 6.64917C7.26804 6.64917 7.1778 6.7394 7.1778 6.84898C7.1778 6.95854 7.26804 7.04878 7.3776 7.04878Z" fill="#224A3D"/>
        <path d="M8.02213 7.04878C8.13171 7.04878 8.22194 6.95854 8.22194 6.84898C8.22194 6.7394 8.13171 6.64917 8.02213 6.64917C7.91256 6.64917 7.82233 6.7394 7.82233 6.84898C7.82233 6.95854 7.91256 7.04878 8.02213 7.04878Z" fill="#224A3D"/>
        <path d="M14.9508 7.23569C14.9508 7.21636 14.9314 7.19702 14.9122 7.19702H14.6801C14.6607 7.19702 14.6415 7.21636 14.6415 7.24214V8.6859H12.7272V7.23569C12.7272 7.21636 12.7078 7.19702 12.6885 7.19702H12.4565C12.4371 7.19702 12.4178 7.21636 12.4178 7.24214V10.4455C12.4178 10.4648 12.4371 10.4841 12.4565 10.4841H12.6885C12.7078 10.4841 12.7272 10.4648 12.7272 10.4455V8.96304H14.6415V10.4519C14.6415 10.4712 14.6607 10.4906 14.6801 10.4906H14.9122C14.9314 10.4906 14.9508 10.4712 14.9508 10.4519V7.23569Z" fill="#224A3D"/>
        <path d="M17.8835 7.71265V10.439C17.8835 10.4584 17.8641 10.4777 17.8447 10.4777H17.6128C17.5934 10.4777 17.574 10.4584 17.574 10.439V7.24214C17.574 7.2228 17.5934 7.20347 17.6128 7.19702H17.8835L20.0684 10.0136V7.24214C20.0684 7.2228 20.0813 7.20347 20.1071 7.20347H20.3456C20.3649 7.20347 20.3713 7.2228 20.3713 7.24858V10.439C20.3713 10.4584 20.352 10.4841 20.3262 10.4841H20.1006C20.0877 10.4841 20.0362 10.4777 20.0362 10.4584L17.8835 7.71265Z" fill="#224A3D"/>
        <path d="M21.1255 7.71265V10.439C21.1255 10.4584 21.1061 10.4777 21.0867 10.4777H20.8548C20.8354 10.4777 20.816 10.4584 20.816 10.439V7.24214C20.816 7.2228 20.8354 7.20347 20.8548 7.19702H21.1255L23.3104 10.0136V7.24214C23.3104 7.2228 23.3233 7.20347 23.3491 7.20347H23.5875C23.6069 7.20347 23.6133 7.2228 23.6133 7.24858V10.439C23.6133 10.4584 23.594 10.4841 23.5683 10.4841H23.3426C23.3297 10.4841 23.2782 10.4777 23.2782 10.4584L21.1255 7.71265Z" fill="#224A3D"/>
        <path d="M26.9492 10.579C26.6834 10.579 26.3853 10.4904 26.1114 10.2649L26.3047 10.0312C26.7478 10.4018 27.1829 10.3132 27.4085 10.0875C27.5213 9.97479 27.5858 9.83783 27.5777 9.68475C27.5696 9.53167 27.481 9.37055 27.2634 9.20135L26.5062 8.66962H26.4981C26.2645 8.48431 26.1516 8.25067 26.1516 8.01703C26.1516 7.78338 26.2645 7.58197 26.4256 7.42889C26.7559 7.12274 27.3521 7.05023 27.8355 7.5014L27.618 7.72699C27.2312 7.37249 26.8526 7.45306 26.6351 7.65448C26.5223 7.75922 26.4578 7.88812 26.4578 8.01703C26.4578 8.14593 26.5223 8.28289 26.6914 8.41986L27.4488 8.9516C27.7147 9.16107 27.8596 9.41082 27.8838 9.66058C27.9 9.91034 27.8032 10.144 27.626 10.3132C27.4568 10.4823 27.2151 10.579 26.9492 10.579ZM28.8265 10.579C28.5606 10.579 28.2625 10.4904 27.9885 10.2649L28.182 10.0312C28.6251 10.4018 29.0601 10.3132 29.2857 10.0875C29.3985 9.97479 29.4629 9.83783 29.4548 9.68475C29.4468 9.53167 29.3582 9.37055 29.1407 9.20135L28.3833 8.66962H28.3753C28.1416 8.48431 28.0289 8.25067 28.0289 8.01703C28.0289 7.78338 28.1416 7.58197 28.3028 7.42889C28.6331 7.12274 29.2293 7.05023 29.7127 7.5014L29.5033 7.72699C29.1165 7.37249 28.7298 7.45306 28.5123 7.65448C28.3994 7.75922 28.343 7.88812 28.343 8.01703C28.343 8.14593 28.3994 8.28289 28.5687 8.41986L29.3259 8.9516H29.334C29.5999 9.16107 29.7369 9.41082 29.7611 9.66058C29.7771 9.91034 29.6805 10.144 29.5033 10.3132C29.334 10.4823 29.0924 10.579 28.8265 10.579Z" fill="#224A3D"/>
        <path d="M32.4112 7.27429H32.0181L31.0384 8.52469L30.0651 7.27429H29.6719L30.8837 8.82762V10.4389C30.8837 10.4583 30.903 10.4776 30.9223 10.4776H31.1544C31.1737 10.4776 31.193 10.4583 31.193 10.4389V8.82762H31.1995L32.4112 7.27429Z" fill="#224A3D"/>
        <path d="M33.3135 9.96851C33.2942 9.96851 33.2748 9.98787 33.2748 10.0071C33.2748 10.0265 33.2942 10.0459 33.3135 10.0459V9.96851Z" fill="#224A3D"/>
        <path d="M34.2417 10.0459C34.261 10.0459 34.2803 10.0265 34.2803 10.0071C34.2803 9.98787 34.261 9.96851 34.2417 9.96851V10.0459Z" fill="#224A3D"/>
        <path d="M33.739 10.5936C33.739 10.613 33.7582 10.6323 33.7776 10.6323C33.797 10.6323 33.8162 10.613 33.8162 10.5936H33.739Z" fill="#224A3D"/>
        <path d="M33.8162 9.4658C33.8162 9.44646 33.797 9.42712 33.7776 9.42712C33.7582 9.42712 33.739 9.44646 33.739 9.4658H33.8162Z" fill="#224A3D"/>
        <path d="M33.2812 9.98783L33.7453 9.43994H33.7968L34.2674 9.98783V10.0265L33.7968 10.6195H33.7453L33.2812 10.0265V9.98783Z" fill="#224A3D"/>
        <path d="M36.2397 7.23569C36.2397 7.21636 36.2204 7.19702 36.201 7.19702H35.969C35.9497 7.19702 35.9304 7.21636 35.9304 7.23569V10.439C35.9304 10.4584 35.9497 10.4777 35.969 10.4777H37.5997C37.619 10.4777 37.6383 10.4584 37.6383 10.439V10.2392C37.6383 10.2199 37.619 10.2006 37.5997 10.2006H36.2719C36.2526 10.2006 36.2333 10.1812 36.2333 10.1619V7.24214" fill="#224A3D"/>
        <path d="M44.6637 10.4455V7.24216C44.6637 7.22282 44.6443 7.20349 44.625 7.20349H44.393C44.3736 7.20349 44.3544 7.22282 44.3544 7.24216V10.4455C44.3544 10.4648 44.3736 10.4841 44.393 10.4841H44.625C44.6508 10.4778 44.6637 10.4648 44.6637 10.4455Z" fill="#224A3D"/>
        <path d="M54.4284 10.4455V7.24216C54.4284 7.22282 54.409 7.20349 54.3896 7.20349H54.1576C54.1383 7.20349 54.119 7.22282 54.119 7.24216V10.4455C54.119 10.4648 54.1383 10.4841 54.1576 10.4841H54.3896C54.409 10.4778 54.4284 10.4648 54.4284 10.4455Z" fill="#224A3D"/>
        <path d="M43.7356 7.19702H43.4327V9.25953C43.4327 9.82027 42.975 10.2778 42.4143 10.2778C41.8535 10.2778 41.3959 9.82027 41.3959 9.25953V7.19702H41.0866V9.25953C41.0866 9.99426 41.6795 10.5873 42.4143 10.5873C43.1426 10.5873 43.7356 10.0008 43.742 9.26597L43.7356 7.19702Z" fill="#224A3D"/>
        <path d="M46.0193 10.5628C45.7534 10.5628 45.4554 10.4742 45.1814 10.2486L45.3748 9.99888C45.8179 10.3695 46.253 10.2889 46.4785 10.0714C46.5913 9.95858 46.6557 9.82162 46.6478 9.66854C46.6397 9.52352 46.551 9.34628 46.3416 9.18515H46.3335V9.17709L45.5762 8.65341V8.64535H45.5681C45.3346 8.46006 45.2217 8.22641 45.2217 7.99276C45.2217 7.75913 45.3345 7.55771 45.4956 7.40464C45.8259 7.09848 46.4221 7.03403 46.9056 7.4852L46.6961 7.71078C46.3094 7.35629 45.9227 7.4288 45.7051 7.63021C45.5924 7.73496 45.536 7.86386 45.536 7.99276C45.536 8.12167 45.5923 8.26669 45.7534 8.3956L45.7615 8.40365L46.5189 8.92734L46.5268 8.9354C46.7927 9.14487 46.9297 9.38656 46.9539 9.63632C46.97 9.88607 46.8733 10.1197 46.6961 10.2889C46.5268 10.45 46.2852 10.5547 46.0193 10.5628Z" fill="#224A3D"/>
        <path d="M49.3495 10.0523L50.4323 7.19702H50.7546L49.4848 10.4777H49.2012L47.9314 7.19702H48.2537L49.3495 10.0523Z" fill="#224A3D"/>
        <path d="M57.1548 7.19702H54.7313C54.712 7.19702 54.6991 7.21636 54.6991 7.2357V7.42906C54.6991 7.45484 54.7184 7.46773 54.7377 7.46773H55.7238C55.7432 7.46773 55.7626 7.49351 55.7626 7.51284V10.4326C55.7626 10.4519 55.7819 10.4712 55.7947 10.4712H56.0268C56.0462 10.4712 56.0655 10.4519 56.0655 10.4326V7.51284C56.0655 7.49351 56.0913 7.46773 56.0977 7.46773H57.1548C57.174 7.46773 57.1934 7.44839 57.1934 7.42906V7.2357C57.1934 7.21636 57.174 7.19702 57.1548 7.19702Z" fill="#224A3D"/>
        <path d="M59.7006 7.19702H57.2772C57.2578 7.19702 57.2385 7.21635 57.2385 7.23569V7.42905C57.2385 7.45483 57.2514 7.46772 57.2772 7.46772H58.2633C58.2826 7.46772 58.302 7.4935 58.302 7.51284V10.4326C58.302 10.4519 58.3213 10.4712 58.3407 10.4712H58.5727C58.592 10.4712 58.6113 10.4519 58.6113 10.4326V7.51284C58.6113 7.4935 58.6371 7.46772 58.6436 7.46772H59.7006C59.72 7.46772 59.7393 7.44839 59.7393 7.42905V7.23569C59.7393 7.21635 59.72 7.19702 59.7006 7.19702Z" fill="#224A3D"/>
        <path d="M63.4905 7.71265V10.439C63.4905 10.4584 63.4711 10.4777 63.4518 10.4777H63.2198C63.2004 10.4777 63.181 10.4584 63.181 10.439V7.24214C63.181 7.2228 63.2004 7.20347 63.2198 7.19702H63.4905L65.6754 10.0136V7.23569C65.6754 7.21636 65.6883 7.19702 65.7141 7.19702H65.9525C65.9719 7.19702 65.9783 7.21636 65.9783 7.23569V10.4261C65.9783 10.4455 65.959 10.4712 65.9333 10.4712H65.7076C65.6947 10.4712 65.6432 10.4648 65.6432 10.4455L63.4905 7.71265Z" fill="#224A3D"/>
        <path fill-rule="evenodd" clip-rule="evenodd" d="M65.9756 5.91064H0.0239868V5.38599H65.9756V5.91064Z" fill="#8D7C71"/>
        <path d="M4.83816 7.13904C4.83172 7.13904 4.82527 7.13904 4.82527 7.13904C3.85847 7.1906 3.1366 7.8867 3.14305 8.82771C3.14949 9.75583 3.89715 10.5099 4.82527 10.5099C5.75339 10.5099 6.5075 9.75583 6.5075 8.82771C6.51394 7.92537 5.80497 7.1906 4.83816 7.13904ZM4.83172 10.1812C4.08406 10.1812 3.4782 9.57537 3.4782 8.82771C3.4782 8.09939 4.05183 7.51286 4.84461 7.46775H4.85105C5.63094 7.52575 6.19168 8.10583 6.19168 8.82771C6.18524 9.57537 5.57938 10.1812 4.83172 10.1812Z" fill="#224A3D"/>
        <path d="M39.1594 7.17126C39.1529 7.17126 39.1465 7.17126 39.1465 7.17126C38.1797 7.22284 37.4578 7.91892 37.4643 8.85994C37.4708 9.78807 38.2183 10.5422 39.1465 10.5422C40.0746 10.5422 40.8288 9.78807 40.8288 8.85994C40.8352 7.95759 40.1198 7.22284 39.1594 7.17126ZM39.1529 10.2135C38.4053 10.2135 37.7995 9.60759 37.7995 8.85994C37.7995 8.13162 38.3731 7.5451 39.1658 7.49998H39.1723C39.9522 7.55799 40.513 8.13807 40.513 8.85994C40.5065 9.60759 39.9006 10.2135 39.1529 10.2135Z" fill="#224A3D"/>
        <path d="M61.1573 7.16479C61.1573 7.16479 61.1508 7.16479 61.1573 7.16479C61.1508 7.16479 61.1444 7.16479 61.1444 7.16479C60.1776 7.21636 59.4557 7.91245 59.4686 8.85347C59.475 9.78159 60.2227 10.5357 61.1508 10.5357C62.0789 10.5357 62.833 9.78159 62.833 8.85347C62.8266 7.95112 62.1176 7.21636 61.1573 7.16479ZM61.1444 10.2069C60.3967 10.2069 59.7909 9.60112 59.7909 8.85347C59.7909 8.12514 60.3645 7.53862 61.1573 7.49351H61.1637C61.9436 7.55151 62.5043 8.13159 62.5043 8.85347C62.5043 9.60112 61.8985 10.2069 61.1444 10.2069Z" fill="#224A3D"/>
        <path d="M2.87874 7.19702H2.60804L1.47365 8.58921L0.339282 7.19702H0.0685775C0.0685775 7.19702 0.0299072 7.21636 0.0299072 7.23569V10.4455C0.0299072 10.4648 0.0492415 10.4777 0.0685775 10.4777H0.300607C0.339279 10.4777 0.339282 10.4584 0.339282 10.439V7.66753L1.42209 9.0146C1.43498 9.03394 1.53167 9.03394 1.53811 9.0146L2.61448 7.66753V10.439C2.61448 10.4584 2.61448 10.4777 2.65315 10.4777H2.88518C2.90452 10.4777 2.92385 10.4648 2.92385 10.4455V7.23569C2.91741 7.21636 2.87874 7.19702 2.87874 7.19702Z" fill="#224A3D"/>
        <path d="M53.4938 7.19702H53.1909V9.25953C53.1909 9.82027 52.7333 10.2778 52.1725 10.2778C51.6118 10.2778 51.1542 9.82027 51.1542 9.25953V7.19702H50.8447V9.25953C50.8447 9.99426 51.4377 10.5873 52.1725 10.5873C52.9073 10.5873 53.5002 9.99426 53.5002 9.25953L53.4938 7.19702Z" fill="#224A3D"/>
    </g>
    <defs>
        <clipPath id="clip0_222:398">
            <rect width="66" height="10.6838" fill="white"/>
        </clipPath>
    </defs>
</svg>
