<?xml version="1.0" encoding="UTF-8"?>
<svg width="512px" height="512px" viewBox="0 0 512 512" version="1.1" xmlns="http://www.w3.org/2000/svg" xmlns:xlink="http://www.w3.org/1999/xlink">
    <!-- Generator: Sketch 48.1 (47250) - http://www.bohemiancoding.com/sketch -->
    <title>#MCD</title>
    <desc>Created with Sketch.</desc>
    <defs></defs>
    <g id="Компании-BIG" stroke="none" stroke-width="1" fill="none" fill-rule="evenodd">
        <g id="#MCD" fill="#FFC300" fill-rule="nonzero">
            <g id="mcdonald-s-15" transform="translate(-1.000000, 54.000000)">
                <path d="M336.464462,29.3273744 C376.852036,29.3273744 409.597923,199.993437 409.597923,410.522523 L468.117846,410.522523 C468.117846,183.793554 409.166942,0 336.466193,0 C295.10069,0 258.195579,55.2371252 234.064116,141.612792 C209.937845,55.2371252 173.020618,0 131.658577,0 C58.9578275,0 0,183.793554 0,410.522523 L58.5268467,410.522523 C58.5268467,199.993437 91.2761951,29.3273744 131.658577,29.3273744 C172.053075,29.3273744 204.811077,186.865945 204.811077,381.210762 L263.317154,381.210762 C263.318885,186.865945 296.066502,29.3273744 336.464462,29.3273744 Z M497.408963,381.210762 C505.346626,381.210762 512,387.509945 512,395.797249 C512,404.2164 505.346626,410.519053 497.408963,410.519053 C489.443607,410.519053 482.734846,404.21293 482.734846,395.797249 C482.734846,387.509945 489.443607,381.210762 497.408963,381.210762 Z M497.408963,408.380002 C504.131571,408.380002 509.351805,402.965584 509.351805,395.802453 C509.351805,388.76423 504.12811,383.356752 497.408963,383.356752 C490.603274,383.356752 485.388234,388.76423 485.388234,395.802453 C485.386503,402.963849 490.603274,408.380002 497.408963,408.380002 Z M491.71967,387.286151 L498.312465,387.286151 C502.347069,387.286151 504.249269,388.896078 504.249269,392.178384 C504.249269,395.275064 502.321106,396.56925 499.79407,396.838149 L504.647364,404.414171 L501.79839,404.414171 L497.173568,397.044595 L494.37652,397.044595 L494.37652,404.414171 L491.723132,404.414171 L491.71967,387.286151 Z M494.374789,394.895135 L497.138951,394.895135 C499.46694,394.895135 501.611459,394.778901 501.611459,392.063885 C501.611459,389.786048 499.665987,389.428672 497.878023,389.428672 L494.378251,389.428672 L494.374789,394.895135 Z" id="Shape"></path>
            </g>
        </g>
    </g>
</svg>