<svg width="160" height="38" viewBox="0 0 160 38" fill="none" xmlns="http://www.w3.org/2000/svg">
<g clip-path="url(#clip0_113_6448)">
<mask id="mask0_113_6448" style="mask-type:luminance" maskUnits="userSpaceOnUse" x="0" y="0" width="160" height="38">
<path d="M0.444092 37.4609H159.528V0.447855H0.444092V37.4609Z" fill="white"/>
</mask>
<g mask="url(#mask0_113_6448)">
<path d="M61.0997 25.5098L60.168 13.8395H60.1297L56.5313 23.1576C56.1979 24.0257 55.4612 24.7372 54.4289 24.7372C53.3978 24.7372 52.5806 23.8792 52.3271 23.1576L48.8079 13.9565H48.7702L47.7586 25.5098L44.3257 25.5072L46.079 9.05657C46.1941 8.14816 46.9389 7.11394 47.9518 7.11394C49.5043 7.11394 50.1259 8.02235 50.4354 8.93075L54.41 18.9194H54.4484L58.4223 8.93075C58.7721 8.02235 59.3741 7.11394 60.9072 7.11394C61.92 7.11394 62.6649 8.14816 62.7794 9.26857L64.5169 25.5072L61.0997 25.5098Z" fill="#231F20"/>
<path d="M66.333 11.596H69.5326V25.5083H66.333V11.596Z" fill="#231F20"/>
<path d="M142.013 11.596H145.212V25.5083H142.013V11.596Z" fill="#231F20"/>
<path d="M71.304 16.4765C71.304 12.4026 72.8635 11.4419 75.4836 11.4419H78.9027C83.0428 11.4419 83.5806 11.1727 83.5536 15.112L76.0555 15.0995C74.5224 15.0995 74.2915 16.0727 74.2915 17.8027V19.3011C74.2915 21.3186 74.5796 22.0874 75.9554 22.0874L83.6712 22.0811C83.6712 24.4251 83.6404 25.6619 80.7195 25.6619H75.4836C72.8635 25.6619 71.304 24.7006 71.304 20.6266V16.4765Z" fill="#231F20"/>
<path d="M97.5638 16.611V15.7271C97.5638 13.229 96.9618 11.5953 94.7216 11.5953H85.4243V25.5076H88.3332V21.8947H93.4244C94.3284 21.8947 94.6159 22.376 94.6159 23.8361V25.5076H97.5255V23.1447C97.5255 20.858 96.8045 20.3006 95.9395 20.0691V20.0313C97.2764 19.5696 97.5638 18.4744 97.5638 16.611ZM94.7342 16.9765C94.7342 17.9749 94.4461 18.4366 93.6597 18.4366H88.3332V15.054H93.398C94.3152 15.054 94.7342 15.2855 94.7342 16.5147V16.9765Z" fill="#231F20"/>
<path d="M99.3186 16.4765C99.3186 12.4026 100.877 11.4419 103.498 11.4419H108.162C110.782 11.4419 112.341 12.4026 112.341 16.4765V20.6266C112.341 24.7006 110.782 25.6619 108.162 25.6619H103.498C100.877 25.6619 99.3186 24.7006 99.3186 20.6266V16.4765ZM102.306 19.3011C102.306 21.3186 102.594 22.0874 103.969 22.0874H107.691C109.066 22.0874 109.354 21.3186 109.354 19.3011V17.8027C109.354 16.0727 109.066 15.0158 107.533 15.0158H104.127C102.594 15.0158 102.306 16.0727 102.306 17.8027V19.3011Z" fill="#231F20"/>
<path d="M128.006 11.5955H130.914V16.5534H137.046V11.5955H139.954V25.5078H137.046V20.2423H130.914V25.5078H128.006V11.5955Z" fill="#231F20"/>
<path d="M156.096 11.5955H147.105V25.5078H150.014V22.0107H156.855C158.913 22.0107 159.528 19.6271 159.528 17.553V16.3609C159.528 13.6325 158.86 11.5955 156.096 11.5955ZM156.541 17.0717C156.541 17.8984 156.279 18.5513 155.598 18.5513H150.014V15.0542H155.349C156.227 15.0542 156.541 15.5921 156.541 16.5339V17.0717Z" fill="#231F20"/>
<path d="M113.92 16.4978C113.92 12.4238 115.479 11.4632 118.099 11.4632H121.519C125.659 11.4632 126.178 11.1933 126.152 15.1333L118.671 15.1201C117.138 15.1201 116.907 16.0939 116.907 17.8233V19.3218C116.907 21.3399 117.196 22.108 118.571 22.108L126.287 22.1017C126.287 24.4463 126.257 25.6831 123.335 25.6831H118.099C115.479 25.6831 113.92 24.7219 113.92 20.6472V16.4978Z" fill="#231F20"/>
<path d="M25.4771 1.55097C23.6898 1.03763 21.7956 0.759575 19.831 0.759575C9.15156 0.759575 0.493408 8.92138 0.493408 18.9906C0.493408 29.0591 9.15156 37.2209 19.831 37.2209C29.6448 37.2209 37.7449 30.3274 38.9949 21.3981L25.4771 1.55097Z" fill="white"/>
<path d="M27.8787 2.44284C25.39 1.26834 23.0888 0.685799 20.1271 0.633585C9.45079 0.448004 0.651721 8.51985 0.474318 18.6626C0.444122 20.4191 0.673739 22.122 1.13046 23.7394L6.64946 16.0022L10.3862 21.8509C10.3862 21.8509 11.5092 23.1241 10.6574 24.4119C10.6045 24.4924 5.58756 31.4225 5.58756 31.4225C9.05258 35.0529 13.9274 37.2692 19.4866 37.3661C24.8798 37.4611 29.6942 35.4939 33.2593 32.1717L21.5205 13.6425C21.5205 13.6425 23.3719 11.0444 24.8194 8.98537C26.4135 6.71939 27.8485 8.30155 28.3272 9.05079C31.769 14.4471 38.2272 24.6818 38.2272 24.6818L38.2304 24.6226C38.8922 23.1009 39.2312 22.6397 39.3023 20.448L27.8787 2.44284ZM25.0937 24.6302C25.0937 24.6302 21.969 29.1873 21.6488 29.622C19.737 32.2195 18.331 29.2207 18.331 29.2207L8.38763 13.5903C8.38763 13.5903 10.2384 10.9928 11.6872 8.93379C13.2807 6.66718 14.7156 8.24997 15.1944 8.99921C18.6361 14.3949 25.0937 24.6302 25.0937 24.6302Z" fill="#EE2223"/>
<path d="M30.9316 3.42113C30.9316 2.56494 31.6255 1.93585 32.4446 1.93585C33.2568 1.93585 33.9494 2.56494 33.9494 3.42113C33.9494 4.28298 33.2568 4.91333 32.4446 4.91333C31.6255 4.91333 30.9316 4.28298 30.9316 3.42113ZM32.4446 4.66484C33.1184 4.66484 33.6499 4.13641 33.6499 3.42113C33.6499 2.71592 33.1184 2.18371 32.4446 2.18371C31.7633 2.18371 31.2311 2.71592 31.2311 3.42113C31.2311 4.13641 31.7633 4.66484 32.4446 4.66484ZM32.1301 4.28298H31.8696V2.56494H32.5232C32.929 2.56494 33.1309 2.71592 33.1309 3.05437C33.1309 3.362 32.9372 3.49599 32.6855 3.52745L33.1737 4.28298H32.8818L32.4289 3.53814H32.1301V4.28298ZM32.4415 3.31859C32.6616 3.31859 32.8579 3.30223 32.8579 3.03802C32.8579 2.82664 32.6654 2.78575 32.4836 2.78575H32.1301V3.31859H32.4415Z" fill="#231F20"/>
</g>
</g>
<defs>
<clipPath id="clip0_113_6448">
<rect width="160" height="37.6826" fill="white" transform="translate(0 0.158691)"/>
</clipPath>
</defs>
</svg>
