<svg width="160" height="41" viewBox="0 0 160 41" fill="none" xmlns="http://www.w3.org/2000/svg">
    <g clip-path="url(#clip0_38_629)">
        <path fill-rule="evenodd" clip-rule="evenodd" d="M5.81689 3.55848V20.5055H9.4099V9.1989C9.4099 8.68605 9.36564 7.48999 9.23284 5.5849C9.43245 6.78182 9.69721 7.77051 9.87594 8.56386L12.5552 20.5047H16.2376L18.9846 8.36767C19.1758 7.52097 19.4498 6.60972 19.6494 5.58404C19.5383 6.80505 19.4715 7.97788 19.4715 9.12489V20.5047H23.3309V3.55848H17.1655L15.0617 13.6433C14.9222 14.3127 14.7075 15.3281 14.5956 16.7444C14.5296 15.4993 14.3827 14.4943 14.1747 13.7405L11.3576 3.55762L5.81689 3.55848Z" fill="#0D4BA0"/>
        <path fill-rule="evenodd" clip-rule="evenodd" d="M35.686 3.61613C34.4942 3.19105 33.3943 2.97852 32.3862 2.97852C28.1476 2.97852 25.627 5.45755 25.627 9.39938C25.627 13.2001 28.2386 15.7772 32.0655 15.7772C33.5087 15.7772 34.769 15.5879 35.8005 15.2067L35.7094 12.0195C34.9527 12.4919 34.151 12.7277 33.2573 12.7277C31.1259 12.7277 29.7971 11.3828 29.7971 9.37529C29.7971 7.32134 31.0574 5.99965 33.0736 5.99965C33.8294 5.99965 34.6086 6.21218 35.4104 6.66049L35.686 3.61613Z" fill="#0D4BA0"/>
        <path fill-rule="evenodd" clip-rule="evenodd" d="M38.7253 3.55811V20.5052H43.1101V12.6421L48.2766 20.5052H53.7288L47.0681 11.348L53.1116 3.55811H48.2056L43.1101 10.8842V3.55811H38.7253Z" fill="#0D4BA0"/>
        <path fill-rule="evenodd" clip-rule="evenodd" d="M55.333 3.55811V20.5052H67.0182V17.2328H59.7186V13.3744H66.3542V10.1519H59.7186V6.73326H66.7576V3.55811H55.333Z" fill="#0D4BA0"/>
        <path fill-rule="evenodd" clip-rule="evenodd" d="M82.2112 3.75363C80.7897 3.33888 79.2964 3.14355 77.7078 3.14355C73.2521 3.14355 70.8584 5.07274 70.8584 8.44236C70.8584 10.9575 72.2565 12.3007 75.2198 13.3996C77.2343 14.1568 78.5138 14.3762 78.5138 15.6463C78.5138 16.77 77.4706 17.5023 75.7167 17.5023C74.484 17.5023 73.0149 17.1607 71.4029 16.4035L71.0238 20.1887C72.7301 20.6809 74.3896 20.9012 75.9773 20.9012C80.5993 20.9012 83.0172 18.8455 83.0172 15.1584C83.0172 13.5708 82.4952 12.4238 81.3334 11.4953C80.2677 10.665 78.7268 10.2253 76.8543 9.5911C75.8353 9.24949 75.3375 8.71255 75.3375 8.00352C75.3375 7.00193 76.3331 6.36776 78.1572 6.36776C79.3189 6.36776 80.5508 6.66032 81.8788 7.2463L82.2112 3.75363Z" fill="#0D4BA0"/>
        <path fill-rule="evenodd" clip-rule="evenodd" d="M97.0929 3.75363C95.6714 3.33888 94.1781 3.14355 92.5895 3.14355C88.1338 3.14355 85.7393 5.07274 85.7393 8.44236C85.7393 10.9575 87.1382 12.3007 90.1015 13.3996C92.116 14.1568 93.3955 14.3762 93.3955 15.6463C93.3955 16.77 92.3523 17.5023 90.5984 17.5023C89.3657 17.5023 87.8966 17.1607 86.2846 16.4035L85.9055 20.1887C87.6118 20.6809 89.2705 20.9012 90.859 20.9012C95.481 20.9012 97.8989 18.8455 97.8989 15.1584C97.8989 13.5708 97.3777 12.4238 96.2159 11.4953C95.1494 10.665 93.6085 10.2253 91.7368 9.5911C90.717 9.24949 90.2201 8.71255 90.2201 8.00352C90.2201 7.00193 91.2148 6.36776 93.0405 6.36776C94.2023 6.36776 95.4342 6.66032 96.7613 7.2463L97.0929 3.75363Z" fill="#0D4BA0"/>
        <path fill-rule="evenodd" clip-rule="evenodd" d="M108.707 3.14355C103.611 3.14355 100.53 6.44004 100.53 12.0323C100.53 17.6245 103.587 20.9003 108.707 20.9003C113.803 20.9003 116.86 17.6236 116.86 12.0323C116.86 6.44004 113.803 3.14355 108.707 3.14355ZM108.707 6.44004C110.887 6.44004 112.451 8.5155 112.451 11.9832C112.451 15.475 110.91 17.5505 108.707 17.5505C106.502 17.5505 104.938 15.475 104.938 11.9832C104.938 8.49141 106.526 6.44004 108.707 6.44004Z" fill="#0D4BA0"/>
        <path fill-rule="evenodd" clip-rule="evenodd" d="M119.444 3.55811V20.5052H123.402V11.5683C123.402 10.3223 123.26 8.63749 122.952 6.53707C123.26 7.83123 123.64 8.9791 124.114 9.97983L129.067 20.5043H134.519V3.55811H130.561V13.155C130.561 14.3519 130.704 15.7683 130.963 17.3799C130.442 15.622 130.015 14.401 129.684 13.7169L124.92 3.55811H119.444Z" fill="#0D4BA0"/>
        <path fill-rule="evenodd" clip-rule="evenodd" d="M26.7017 17.6226H35.6708V20.6523H26.7017V17.6226Z" fill="#F15A22"/>
        <path fill-rule="evenodd" clip-rule="evenodd" d="M40.3655 29.6729L38.6116 38.1468H42.8184L42.973 37.4395H39.5478L40.2352 34.0811H43.3279L43.4699 33.3368H40.3889L41.0052 30.369H44.2525L44.4062 29.6729H40.3655Z" fill="#939598"/>
        <path fill-rule="evenodd" clip-rule="evenodd" d="M52.9486 34.2884C52.9962 34.0931 53.0196 33.8849 53.0196 33.6534C53.0196 32.5563 52.4032 31.9204 51.396 31.9204C50.4714 31.9204 49.8433 32.3352 49.3339 33.2636C49.1443 32.3593 48.6582 31.9204 47.8288 31.9204C47.0463 31.9204 46.4424 32.2612 45.8853 32.9822L46.0866 32.0426H45.4109L44.1665 38.1468H44.9015L45.5655 34.9355C45.8853 33.3858 46.6913 32.5795 47.6275 32.5795C48.2798 32.5795 48.6707 33.0063 48.6707 33.7274C48.6707 33.9107 48.6473 34.131 48.588 34.3865L47.8054 38.1477H48.5287L49.2044 34.9011C49.5243 33.3617 50.2233 32.5916 51.1838 32.5916C51.847 32.5916 52.2504 33.0063 52.2504 33.7765C52.2504 33.9597 52.227 34.143 52.1911 34.3375L51.3968 38.1477H52.1551L52.9486 34.2884Z" fill="#939598"/>
        <path fill-rule="evenodd" clip-rule="evenodd" d="M58.8242 34.3369C58.8242 36.2549 57.8052 37.5852 56.6318 37.5852C55.7431 37.5852 55.1151 36.8521 55.1151 35.7162C55.1151 34.9831 55.3281 34.2388 55.6488 33.7259C56.1223 32.9696 56.7387 32.5781 57.3793 32.5781C58.2671 32.5789 58.8242 33.2518 58.8242 34.3369ZM54.771 36.9131C55.0792 37.8175 55.7431 38.271 56.7379 38.271C57.4369 38.271 58.0775 37.9638 58.5987 37.3649C59.2151 36.6576 59.6293 35.5329 59.6293 34.447C59.6293 32.8216 58.8467 31.9189 57.543 31.9189C56.7604 31.9189 56.0614 32.3087 55.5051 33.0789L55.7064 32.017H55.019L53.2275 40.6992H53.9876L54.771 36.9131Z" fill="#939598"/>
        <path fill-rule="evenodd" clip-rule="evenodd" d="M63.5856 31.9204C62.697 31.9204 61.8317 32.3352 61.3223 32.9573C60.6708 33.7524 60.3501 34.655 60.3501 35.6936C60.3501 37.2683 61.3097 38.2948 62.7555 38.2948C63.9172 38.2948 64.9245 37.646 65.5283 36.4749C65.824 35.9001 65.991 35.2298 65.991 34.5208C65.9918 32.8962 65.0556 31.9204 63.5856 31.9204ZM65.1859 34.532C65.1859 35.4733 64.8543 36.3407 64.2972 36.9508C63.9064 37.3775 63.3961 37.6099 62.8515 37.6099C61.8326 37.6099 61.1569 36.8165 61.1569 35.5964C61.1569 34.618 61.5244 33.7395 62.1408 33.1543C62.5433 32.7749 63.0177 32.5675 63.5155 32.5675C64.5344 32.5675 65.1859 33.3118 65.1859 34.532Z" fill="#939598"/>
        <path fill-rule="evenodd" clip-rule="evenodd" d="M66.8896 32.0425L67.4701 38.2345H68.383L71.2034 32.7248L71.7839 38.2345H72.6492L75.8613 32.0425H75.0311L72.3652 37.4626L71.7839 32.0425H70.9069L68.0748 37.4506L67.6129 32.0425H66.8896Z" fill="#939598"/>
        <path fill-rule="evenodd" clip-rule="evenodd" d="M79.9939 34.6307H76.5103C76.7951 33.3228 77.7071 32.5183 78.6317 32.5183C79.4853 32.5183 80.0307 33.1284 80.0307 34.167C80.0298 34.3132 80.0181 34.4716 79.9939 34.6307ZM80.622 35.2778C80.7172 34.8743 80.7648 34.5197 80.7648 34.2022C80.7648 32.7867 79.9229 31.9082 78.6434 31.9082C77.7422 31.9082 76.9839 32.298 76.4034 33.0914C75.8939 33.8004 75.6091 34.6798 75.6091 35.5953C75.6091 37.3163 76.5454 38.3076 78.098 38.3076C78.6192 38.3076 79.1637 38.1966 79.745 37.9513L79.7809 37.1932C79.2472 37.4738 78.7261 37.608 78.1932 37.608C77.044 37.608 76.3675 36.9239 76.3675 35.7898C76.3675 35.6435 76.3917 35.4723 76.4151 35.277H80.622V35.2778Z" fill="#939598"/>
        <path fill-rule="evenodd" clip-rule="evenodd" d="M85.3725 31.9925C85.1712 31.9435 84.9808 31.9082 84.792 31.9082C84.128 31.9082 83.5709 32.2489 83.0139 32.9571L83.2152 32.0424H82.5286L81.2842 38.1467H82.0668L82.7182 34.9724C83.0381 33.4467 83.6428 32.6766 84.6851 32.6766C84.8513 32.6766 85.0167 32.7016 85.2063 32.7627L85.3725 31.9925Z" fill="#939598"/>
        <path fill-rule="evenodd" clip-rule="evenodd" d="M86.7565 29.2461L86.5552 30.2339H87.4196L87.6209 29.2461H86.7565ZM86.2587 32.0426L85.0017 38.1469H85.725L86.9928 32.0426H86.2587Z" fill="#939598"/>
        <path fill-rule="evenodd" clip-rule="evenodd" d="M92.8216 34.7651C92.9051 34.3857 92.9402 34.032 92.9402 33.7386C92.9402 32.6398 92.2295 31.9204 91.1395 31.9204C90.3453 31.9204 89.6587 32.324 89.1367 33.1053L89.3623 32.0176H88.6632L87.3945 38.1468H88.1529L88.8052 35.0095C89.1251 33.4701 89.9544 32.6165 90.9257 32.6165C91.72 32.6165 92.1702 33.0803 92.1702 33.8857C92.1702 34.131 92.1468 34.4115 92.0867 34.704L91.3759 38.1477H92.1334L92.8216 34.7651Z" fill="#939598"/>
        <path fill-rule="evenodd" clip-rule="evenodd" d="M98.9218 32.0665L98.6846 33.3004C98.3772 32.3961 97.7258 31.9443 96.7294 31.9443C95.8408 31.9443 95.0348 32.4451 94.5011 33.3607C94.0635 34.105 93.8254 34.9603 93.8254 35.8397C93.8254 37.3774 94.6314 38.2955 95.9109 38.2955C96.7052 38.2955 97.3925 37.904 97.9496 37.1339C97.6414 39.1878 96.9424 40.1275 95.5075 40.1275C94.892 40.1275 94.2748 39.9442 93.6592 39.5897L93.397 40.3107C94.1211 40.6283 94.8085 40.7995 95.4841 40.7995C97.0844 40.7995 98.0682 39.9562 98.3998 38.3084L99.6559 32.0665H98.9218ZM98.3413 34.4827C98.3413 35.2288 98.1275 35.9731 97.8076 36.4859C97.3341 37.2423 96.7294 37.6338 96.0654 37.6338C95.1885 37.6338 94.6205 36.9618 94.6205 35.8758C94.6205 34.765 94.9997 33.7634 95.5793 33.1765C95.936 32.81 96.3736 32.6155 96.8129 32.6155C97.7133 32.6155 98.3413 33.3486 98.3413 34.4827Z" fill="#939598"/>
        <path fill-rule="evenodd" clip-rule="evenodd" d="M105.188 29.6729L103.446 38.1468H104.229L105.071 34.0561H109.325L108.484 38.1468H109.277L111.02 29.6729H110.237L109.479 33.3488H105.212L105.971 29.6729H105.188Z" fill="#939598"/>
        <path fill-rule="evenodd" clip-rule="evenodd" d="M115.616 34.6307H112.131C112.416 33.3228 113.329 32.5183 114.253 32.5183C115.105 32.5183 115.652 33.1284 115.652 34.167C115.652 34.3132 115.639 34.4716 115.616 34.6307ZM116.244 35.2778C116.338 34.8743 116.386 34.5197 116.386 34.2022C116.386 32.7867 115.545 31.9082 114.264 31.9082C113.364 31.9082 112.606 32.298 112.024 33.0914C111.515 33.8004 111.231 34.6798 111.231 35.5953C111.231 37.3163 112.167 38.3076 113.719 38.3076C114.24 38.3076 114.786 38.1966 115.367 37.9513L115.402 37.1932C114.868 37.4738 114.347 37.608 113.814 37.608C112.665 37.608 111.989 36.9239 111.989 35.7898C111.989 35.6435 112.013 35.4723 112.037 35.277H116.244V35.2778Z" fill="#939598"/>
        <path fill-rule="evenodd" clip-rule="evenodd" d="M121.645 34.6171C121.704 34.2996 121.74 34.007 121.74 33.7265C121.74 32.5907 121.017 31.8945 119.796 31.8945C119.346 31.8945 118.765 32.0055 118.041 32.212L117.959 33.0054C118.694 32.7249 119.286 32.5666 119.736 32.5666C120.565 32.5666 121.028 33.0183 121.028 33.8237C121.028 33.958 121.005 34.1662 120.969 34.4217C120.554 34.3847 120.211 34.3615 119.95 34.3615C117.852 34.3615 116.738 35.1798 116.738 36.5583C116.738 37.5479 117.461 38.2457 118.551 38.2457C119.309 38.2457 119.925 37.9032 120.494 37.1822L120.352 38.1467H121.004C121.051 37.72 121.158 37.1701 121.289 36.4981L121.645 34.6171ZM120.875 34.9974C120.674 36.6934 119.833 37.5969 118.683 37.5969C117.984 37.5969 117.533 37.1701 117.533 36.523C117.533 35.4122 118.41 34.9836 120.26 34.9836C120.461 34.9836 120.662 34.9836 120.875 34.9974Z" fill="#939598"/>
        <path fill-rule="evenodd" clip-rule="evenodd" d="M124.439 29.0518L122.567 38.147H123.325L125.175 29.0518H124.439Z" fill="#939598"/>
        <path fill-rule="evenodd" clip-rule="evenodd" d="M127.506 30.2349L126.7 30.5291L126.392 32.0436H125.195L125.065 32.6907H126.262L125.54 36.1945C125.492 36.4501 125.445 36.6815 125.445 36.9018C125.445 37.7322 125.93 38.2106 126.76 38.2106C126.95 38.2106 127.162 38.1736 127.4 38.0979L127.543 37.4138C127.258 37.4999 127.045 37.5369 126.903 37.5369C126.476 37.5369 126.215 37.2426 126.215 36.7555C126.215 36.5955 126.239 36.3778 126.299 36.0947L126.998 32.6898H128.515L128.657 32.0427H127.14L127.506 30.2349Z" fill="#939598"/>
        <path fill-rule="evenodd" clip-rule="evenodd" d="M130.537 29.0518L128.666 38.147H129.423L130.076 35.0097C130.395 33.4703 131.225 32.6167 132.196 32.6167C132.99 32.6167 133.441 33.0805 133.441 33.8859C133.441 34.1311 133.417 34.4117 133.358 34.7042L132.646 38.1478H133.405L134.091 34.7662C134.175 34.3867 134.211 34.033 134.211 33.7396C134.211 32.6408 133.499 31.9214 132.409 31.9214C131.616 31.9214 130.928 32.325 130.407 33.1063L131.272 29.0526L130.537 29.0518Z" fill="#939598"/>
        <path fill-rule="evenodd" clip-rule="evenodd" d="M140.146 32.2131C139.684 32.0298 139.198 31.9575 138.677 31.9575C137.54 31.9575 136.709 32.238 136.057 32.9453C135.453 33.5924 135.098 34.508 135.098 35.4734C135.098 37.1341 136.07 38.2596 137.54 38.2596C138.025 38.2596 138.534 38.1977 139.045 38.0617L139.128 37.2684C138.559 37.4517 138.098 37.5489 137.729 37.5489C136.603 37.5489 135.893 36.7306 135.893 35.4614C135.893 33.8359 136.994 32.6399 138.5 32.6399C138.903 32.6399 139.388 32.7388 139.945 32.9342L140.146 32.2131Z" fill="#939598"/>
        <path fill-rule="evenodd" clip-rule="evenodd" d="M144.813 34.6171C144.873 34.2996 144.908 34.007 144.908 33.7265C144.908 32.5907 144.185 31.8945 142.964 31.8945C142.514 31.8945 141.934 32.0055 141.21 32.212L141.127 33.0054C141.862 32.7249 142.454 32.5666 142.905 32.5666C143.734 32.5666 144.196 33.0183 144.196 33.8237C144.196 33.958 144.173 34.1662 144.138 34.4217C143.723 34.3847 143.379 34.3615 143.118 34.3615C141.02 34.3615 139.906 35.1798 139.906 36.5583C139.906 37.5479 140.629 38.2457 141.72 38.2457C142.477 38.2457 143.095 37.9032 143.663 37.1822L143.52 38.1467H144.172C144.22 37.72 144.326 37.1701 144.457 36.4981L144.813 34.6171ZM144.043 34.9974C143.842 36.6934 143 37.5969 141.85 37.5969C141.151 37.5969 140.701 37.1701 140.701 36.523C140.701 35.4122 141.578 34.9836 143.427 34.9836C143.628 34.9836 143.83 34.9836 144.043 34.9974Z" fill="#939598"/>
        <path fill-rule="evenodd" clip-rule="evenodd" d="M149.811 31.9925C149.61 31.9435 149.42 31.9082 149.231 31.9082C148.567 31.9082 148.01 32.2489 147.453 32.9571L147.655 32.0424H146.967L145.724 38.1467H146.506L147.158 34.9724C147.478 33.4467 148.081 32.6766 149.125 32.6766C149.29 32.6766 149.456 32.7016 149.646 32.7627L149.811 31.9925Z" fill="#939598"/>
        <path fill-rule="evenodd" clip-rule="evenodd" d="M153.85 34.6307H150.366C150.65 33.3228 151.563 32.5183 152.487 32.5183C153.341 32.5183 153.886 33.1284 153.886 34.167C153.886 34.3132 153.873 34.4716 153.85 34.6307ZM154.478 35.2778C154.573 34.8743 154.621 34.5197 154.621 34.2022C154.621 32.7867 153.779 31.9082 152.5 31.9082C151.598 31.9082 150.841 32.298 150.26 33.0914C149.75 33.8004 149.465 34.6798 149.465 35.5953C149.465 37.3163 150.402 38.3076 151.953 38.3076C152.475 38.3076 153.02 38.1966 153.601 37.9513L153.637 37.1932C153.103 37.4738 152.581 37.608 152.049 37.608C150.899 37.608 150.224 36.9239 150.224 35.7898C150.224 35.6435 150.247 35.4723 150.271 35.277H154.478V35.2778Z" fill="#939598"/>
    </g>
    <defs>
        <clipPath id="clip0_38_629">
            <rect width="160" height="40" fill="white" transform="translate(0 0.610352)"/>
        </clipPath>
    </defs>
</svg>
