<svg width="160" height="41" viewBox="0 0 160 41" fill="none" xmlns="http://www.w3.org/2000/svg">
    <path d="M54.9557 36.2478C49.3606 36.7388 46.6296 31.4515 46.2034 26.3608C45.6208 19.399 49.2251 16.6472 52.7048 16.3419C58.0226 15.8778 60.9393 20.9916 61.3802 26.2729C61.942 33.0417 58.6199 35.9217 54.9557 36.2478ZM41.9176 26.4927C41.9176 32.7388 46.3732 37.7391 53.8809 37.7391C60.7084 37.7391 65.6587 32.8842 65.6587 26.1996C65.6587 20.1416 61.6819 14.8506 53.8809 14.8506C46.8532 14.8506 41.9176 19.9071 41.9176 26.4927ZM146.682 9.07592C146.682 6.50127 144.948 4.32356 142.947 4.32356C141.066 4.32356 140.625 5.60844 140.625 6.36325C140.625 7.28905 141.265 7.69455 141.929 7.74707C142.857 7.80325 144.352 8.63745 144.352 10.5245C144.352 12.5483 142.471 13.9394 140.673 14.7785C140.436 15.1229 140.624 15.6286 141.013 15.8191C144.06 14.8848 146.682 12.4945 146.682 9.07592ZM154.933 25.1517L151.933 23.5651C149.995 22.5257 148.704 21.4313 148.704 19.6665C148.704 17.9785 149.76 16.2808 152.617 16.2808C155.476 16.2808 156.732 18.8139 157.136 20.5458C157.363 20.8878 158.235 20.839 158.399 20.4506C158.427 18.3205 158.091 16.4323 157.703 15.5895C156.061 15.3013 154.893 14.8506 153.192 14.8506C148.315 14.8506 145.577 17.3727 145.577 20.9916C145.577 23.7691 147.576 25.7 149.904 26.9324L152.078 28.0793C154.848 29.5156 155.476 31.1523 155.476 32.7388C155.476 35.0142 153.88 36.3101 151.409 36.3101C148.16 36.3101 146.034 32.7926 145.639 31.0033C145.296 30.5513 144.573 30.6014 144.381 31.1107C144.381 33.7306 144.958 35.515 145.398 36.2039C146.076 36.6936 148.022 37.7391 150.967 37.7391C155.767 37.7391 158.869 35.3135 158.869 31.4515C158.869 28.1294 156.683 26.0445 154.933 25.1517ZM104.391 35.857C100.689 35.857 100.215 34.2692 100.215 31.1107V19.3086C100.215 18.2094 100.215 17.5791 100.495 17.3727C100.89 17.0368 101.813 16.8353 103.416 16.8353C108.884 16.8353 113.049 20.0072 113.049 26.0994C113.049 32.1367 110.197 35.857 104.391 35.857ZM110.68 16.4897C108.404 15.6909 106.025 15.4002 103.312 15.4002C99.3967 15.4002 96.6754 15.4979 93.9591 15.6909C93.528 15.8375 93.473 16.7828 93.9066 16.933L95.3588 17.1284C96.48 17.275 96.524 18.1178 96.524 21.3385V31.8533C96.524 35.2634 96.331 35.4588 94.2486 35.8057L93.324 35.9523C92.9906 36.2039 93.0406 37.0515 93.418 37.192C95.0687 37.1033 96.7213 37.0564 98.3744 37.0515C99.1035 37.0515 100.023 37.0991 100.978 37.1468C102.004 37.253 103.128 37.2982 104.192 37.2982C106.61 37.2982 109.322 36.9135 111.505 35.7556C115.389 33.7306 117.368 30.1129 117.368 26.1996C117.368 21.6378 115.088 18.0213 110.68 16.4897ZM138.184 15.4002C136.811 15.4979 135.794 15.5407 134.721 15.5407C133.616 15.5407 132.506 15.4967 131.056 15.4002C130.565 15.5907 130.518 16.3858 130.95 16.6301L131.969 16.7828C133.144 16.933 133.037 17.3727 132.311 18.7614L130.373 22.3865C129.555 23.962 128.822 25.1517 128.045 26.4927C127.28 25.146 126.555 23.7766 125.872 22.3865L124.072 18.864C123.288 17.3178 123.449 17.0368 124.507 16.7828L125.191 16.6301C125.67 16.3858 125.53 15.5907 125.136 15.4002C122.28 15.5869 119.414 15.5869 116.558 15.4002C116.178 15.5407 116.082 16.3358 116.412 16.6301L117.676 16.8744C118.929 17.1284 119.425 17.5791 120.436 19.5541L123.971 26.2448C125.191 28.5226 125.326 28.9184 125.326 30.4634V32.3321C125.326 35.2634 125.136 35.5639 123.053 35.8057L121.847 35.9523C121.5 36.2039 121.545 37.0515 121.942 37.192C124.122 37.0991 125.631 37.0515 127.182 37.0515C128.672 37.0515 130.278 37.0991 132.403 37.192C132.798 37.0515 132.846 36.2039 132.506 35.9535L131.293 35.8069C129.212 35.5639 129.009 35.2634 129.009 32.3321V29.6585C129.009 28.2283 129.113 27.7349 130.859 24.911L133.861 19.9474C135.364 17.4778 135.604 17.1773 137.114 16.8744L138.272 16.6301C138.668 16.3858 138.561 15.5407 138.184 15.4002ZM80.9832 36.2478C75.3893 36.7388 72.6559 31.4515 72.2309 26.3608C71.6483 19.399 75.2538 16.6472 78.7322 16.3419C84.0513 15.8778 86.9643 20.9916 87.404 26.2729C87.9707 33.0417 84.6498 35.9217 80.9832 36.2478ZM79.9084 14.8494C72.8855 14.8494 67.9451 19.9071 67.9451 26.4927C67.9451 32.7388 72.3982 37.7391 79.9084 37.7391C86.7359 37.7391 91.6861 32.8842 91.6861 26.1996C91.6861 20.1416 87.7142 14.8494 79.9084 14.8494ZM39.7032 35.8057C37.429 35.5639 37.4742 34.268 37.3289 31.802C36.9368 24.6582 36.8892 15.4967 36.7915 10.2411C36.7451 6.7773 37.1335 5.88569 40.1808 5.52661L41.2067 5.43256C41.4535 5.23226 41.4535 4.39318 41.164 4.19531C39.6495 4.29302 38.058 4.33577 36.8452 4.33577C35.8742 4.33577 34.8617 4.33577 33.2067 4.19531C33.109 6.47562 31.757 9.20417 29.5267 13.7049L24.9686 23.1669C23.7606 25.7 22.5454 28.2845 21.2373 30.6014H21.1432C19.9707 28.42 18.9106 26.1434 17.7967 23.8216L12.2712 12.3712C10.775 9.20295 9.55484 6.12508 9.75148 4.19531C8.15026 4.33577 6.84461 4.33577 5.72705 4.33577C4.51789 4.33577 3.35636 4.29424 1.90048 4.19531C1.50842 4.39318 1.46079 5.13577 1.70751 5.43256L2.47697 5.52783C5.43392 6.0286 5.83331 6.66737 5.72583 9.79287C5.58756 13.4763 5.40923 17.1582 5.19087 20.8378C4.90751 25.7501 4.66812 28.4713 4.37255 31.7495C4.07942 35.2109 3.40033 35.5639 1.36796 35.8057L0.301705 35.9523C2.60174e-05 36.2039 0.103843 36.955 0.403079 37.192C2.04627 37.0999 3.69167 37.0531 5.33743 37.0515C7.17926 37.0515 9.07483 37.0991 10.7212 37.192C11.0608 37.0515 11.1121 36.2539 10.775 35.9535L8.93071 35.8069C7.03392 35.6628 6.75056 34.8689 6.75056 31.1999C6.75056 26.9923 6.94232 22.5697 7.08766 19.5541C7.24033 16.679 7.38323 13.8014 7.56766 10.7309H7.66781C8.73285 13.0124 9.75148 15.5907 10.775 17.8662L15.1255 27.4356C16.2419 29.8613 18.5661 34.7248 19.4016 37.3422C19.4932 37.4961 19.7399 37.5437 19.8327 37.5437C20.0318 37.5437 20.2211 37.4961 20.3103 37.3422C21.1896 35.0643 23.3759 30.4146 25.5475 26.0445L29.8614 17.3727C30.8324 15.4466 32.6669 11.4796 33.0125 10.9361H33.109L33.2556 31.5968C33.2556 34.77 33.2556 35.5639 30.8837 35.8057L29.4877 35.9523C29.1896 36.2539 29.2373 36.955 29.5805 37.192C31.5591 37.0991 33.7429 37.0515 35.4333 37.0515C37.1823 37.0515 39.1732 37.0991 41.164 37.192C41.4974 36.9965 41.5438 36.2539 41.2605 35.9535L39.7032 35.8057Z" fill="#0027A0"/>
</svg>
