<svg width="66" height="17" viewBox="0 0 66 17" fill="none" xmlns="http://www.w3.org/2000/svg">
    <g clip-path="url(#clip0_102:72)">
        <path d="M7.3007 10.7631C6.99804 11.0392 6.56101 11.1312 6.28735 11.1664C5.72971 11.2364 5.15304 11.0503 4.78507 10.6044C4.48288 10.2401 4.32785 9.76839 4.03282 9.39123C3.56678 8.79419 2.82181 8.40321 2.0544 8.54137C0.537433 8.81805 -0.150818 10.5964 0.706793 11.83C1.9326 13.5931 4.68924 13.2878 6.10402 12.0664C6.54457 11.6867 6.95587 11.2641 7.3007 10.7631Z" fill="#E51636"/>
        <path d="M58.6995 10.7628C59.0028 11.0394 59.4384 11.1314 59.7131 11.1661C60.2704 11.2366 60.8474 11.0508 61.2152 10.6045C61.5172 10.2398 61.6731 9.76848 61.9675 9.39131C62.4343 8.79403 63.1791 8.40306 63.9463 8.54145C65.4626 8.81777 66.1509 10.5964 65.2927 11.8301C64.0674 13.5928 61.3111 13.2879 59.897 12.0667C59.4562 11.6868 59.044 11.2639 58.6995 10.7628Z" fill="#E51636"/>
        <path d="M53.6484 1.36064C53.6104 1.3593 49.9898 1.3593 49.9563 1.36052C49.5596 1.37257 49.2314 1.74205 49.2126 2.12205C49.1925 2.52578 49.5416 2.92622 49.9563 2.94629C49.9946 2.94763 53.6151 2.94763 53.6484 2.94629C54.0454 2.93414 54.3735 2.56487 54.3921 2.18476C54.4124 1.78067 54.0634 1.38095 53.6484 1.36064Z" fill="#472380"/>
        <path d="M30.5901 9.27055C30.5395 9.05989 30.5126 8.85266 30.4982 8.64353C30.4957 8.3417 30.4957 7.91801 30.4957 7.52809C30.5335 6.18133 30.7836 3.81218 28.9668 3.81218C27.7398 3.81218 27.0128 4.85027 26.8068 5.18965C26.7774 4.24332 26.0349 3.55676 24.9006 3.55676C24.1769 3.55676 23.747 4.13586 23.747 4.13586C23.747 4.13586 24.453 4.38195 24.453 5.33561C24.4606 6.01861 24.4519 9.34342 24.453 9.35747C24.4808 9.94672 24.8903 10.4991 25.6227 10.4991C26.3551 10.4991 26.8096 9.93313 26.8096 9.3564V6.40758C26.9117 5.92556 27.1814 5.43361 27.5882 5.43361C28.1157 5.43361 28.1453 6.02345 28.1478 6.02345L28.1453 8.87792C28.1478 8.97085 28.1596 9.0599 28.1756 9.14728C28.2017 9.29606 28.2465 9.43446 28.3107 9.56152C28.5921 10.1365 29.2147 10.5113 30.0513 10.5113C30.7745 10.5113 31.2045 9.93267 31.2045 9.93267C31.2045 9.93267 30.7801 9.78222 30.5901 9.27055" fill="#472380"/>
        <path d="M48.0545 9.27081C48.0034 9.06015 47.976 8.85291 47.9625 8.64379L47.9646 1.57886C47.9646 0.891723 47.4106 0.334717 46.7272 0.334717C46.0436 0.334717 45.4897 0.891723 45.4897 1.57886L45.4914 7.83573C45.4975 8.39935 45.4424 8.97525 45.7069 9.49305C45.9872 10.0682 46.6788 10.5115 47.5144 10.5115C48.2398 10.5115 48.6688 9.93293 48.6688 9.93293C48.6688 9.93293 48.2453 9.78248 48.0545 9.27081" fill="#472380"/>
        <path d="M20.4025 3.7511C18.5454 3.7511 17.0403 5.26425 17.0403 7.13165C17.0403 8.99869 18.5454 10.5118 20.4025 10.5118C22.2593 10.5118 23.765 8.99869 23.765 7.13165C23.765 5.26425 22.2593 3.7511 20.4025 3.7511ZM20.4272 9.07604V9.0777C20.4245 9.0777 20.4223 9.0767 20.4198 9.0767C20.4172 9.0767 20.415 9.0777 20.4129 9.0777V9.07604C19.7781 9.06446 19.4598 8.33104 19.4598 7.13165C19.4598 5.93402 19.863 5.19965 20.4129 5.18654V5.18631C20.4149 5.18631 20.4173 5.1863 20.4198 5.18654C20.4222 5.1863 20.4244 5.18631 20.4272 5.18631V5.18654C20.9764 5.19966 21.3801 5.93402 21.3801 7.13165C21.3801 8.33104 21.0624 9.06447 20.4272 9.07604Z" fill="#472380"/>
        <path d="M38.1527 9.27081C38.1014 9.06015 38.0741 8.85291 38.0606 8.64379L38.0623 1.57886C38.0623 0.891723 37.5084 0.334717 36.8248 0.334717C36.1414 0.334717 35.5874 0.891723 35.5874 1.57886L35.5825 4.92517C35.2848 4.50856 34.6292 3.80441 33.5963 3.80441C30.7544 3.80441 30.5748 8.89247 32.5236 10.1511C33.0731 10.5055 33.9017 10.5967 34.5286 10.4329C34.9615 10.3194 35.644 9.89183 35.7537 9.38123C35.7693 9.41866 35.786 9.45597 35.805 9.49305C36.0855 10.0682 36.7769 10.5115 37.6127 10.5115C38.3378 10.5115 38.7671 9.93293 38.7671 9.93293C38.7671 9.93293 38.3436 9.78248 38.1527 9.27081H38.1527ZM34.4648 8.85953V8.86053C34.4622 8.86053 34.4602 8.8603 34.458 8.8603C34.4551 8.8603 34.4537 8.86053 34.4504 8.86053V8.85953C33.8154 8.85009 33.4978 8.21005 33.4978 7.16571C33.4978 6.12219 33.9005 5.483 34.4504 5.47131V5.4703C34.4537 5.4703 34.4551 5.47131 34.458 5.47131C34.4602 5.47131 34.4622 5.4703 34.4648 5.4703V5.47131C35.0153 5.48299 35.4181 6.12219 35.4181 7.16571C35.4181 8.21005 35.0997 8.85008 34.4648 8.85953Z" fill="#472380"/>
        <path d="M44.5909 8.42017C44.5909 8.42017 44.228 8.92014 42.8202 8.92014C41.4122 8.92014 41.1101 7.81971 41.1101 7.81971C43.1618 7.81971 44.8829 7.68154 44.8829 6.01123C44.8829 4.34127 43.0054 3.79041 41.8922 3.79041C40.054 3.79041 38.711 5.26434 38.711 7.20979C38.711 9.40087 40.4598 10.5118 41.9116 10.5118C44.4683 10.5118 44.5909 8.42017 44.5909 8.42017ZM40.9771 6.74808C41.049 6.21492 41.1761 5.54302 41.6531 5.23186C42.0492 4.97314 42.6039 5.26765 42.6124 5.76573C42.6214 6.2918 42.2831 6.65007 41.8121 6.74973C41.7621 6.76048 40.9701 6.80027 40.9771 6.74806" fill="#472380"/>
        <path d="M54.4908 8.42017C54.4908 8.42017 54.1279 8.92014 52.7201 8.92014C51.3121 8.92014 51.01 7.81971 51.01 7.81971C53.0617 7.81971 54.7828 7.68154 54.7828 6.01123C54.7828 4.34127 52.9053 3.79041 51.7921 3.79041C49.9539 3.79041 48.6109 5.26434 48.6109 7.20979C48.6109 9.40087 50.3597 10.5118 51.8115 10.5118C54.3682 10.5118 54.4908 8.42017 54.4908 8.42017ZM50.8769 6.74808C50.9489 6.21492 51.076 5.54302 51.553 5.23186C51.9491 4.97314 52.5038 5.26765 52.5123 5.76573C52.5213 6.2918 52.183 6.65007 51.712 6.74973C51.662 6.76048 50.87 6.80027 50.8769 6.74806" fill="#472380"/>
        <path d="M59.1336 8.60044H57.7237C57.8274 8.60044 58.8704 7.71621 59.2163 7.42147C60.1221 6.6486 61.7508 5.53352 61.2761 4.0891L61.2772 4.09925C61.1902 3.75526 60.9267 3.55676 60.9267 3.55676C60.9267 3.55676 60.8282 3.83757 60.4933 3.96321C60.3565 3.99652 60.2197 4.02167 60.0832 4.02982C59.9706 4.03182 56.1422 4.02982 56.1422 4.02982C55.6245 4.02915 55.1905 4.44784 55.1834 4.94167C55.1774 5.43975 55.5869 5.83923 56.1117 5.84631L58.3451 5.86061C57.3098 6.44112 56.0735 7.12861 55.4458 8.17827C55.0873 8.78074 54.7036 9.7096 54.8494 10.4221C55.3456 9.9799 56.6477 9.55183 57.639 9.7599C58.0101 9.83784 58.4046 10.0283 58.7255 10.23C60.5846 11.3992 61.7019 9.11244 60.813 8.10446C60.813 8.10446 60.3062 8.60043 59.1336 8.60043" fill="#472380"/>
        <path d="M17.2224 10.0232C16.0821 8.76607 15.7254 6.67549 15.6552 5.28598C15.5947 4.08553 15.6593 2.00651 16.6002 1.40144C16.2852 1.00338 15.6639 0.843018 15.1918 0.843018C14.131 0.843018 13.6196 1.55342 13.2568 2.06426C13.137 2.233 11.3532 4.70712 11.3532 4.70712C11.3532 4.70712 9.85279 2.3734 9.66839 2.09307C9.41353 1.70622 8.93634 0.995351 8.09764 0.872304C7.73649 0.819287 6.7996 0.771104 6.28964 1.47477C7.16863 2.18187 7.14666 3.98256 6.95581 5.21194C6.38324 8.9021 4.82153 9.24195 4.82153 9.24195C5.62147 11.4141 7.68164 10.5559 8.26383 8.82405C8.64084 7.69834 8.88431 6.27341 8.94045 5.09173L11.2013 8.57867C11.2013 8.57867 13.7614 5.10259 13.7614 5.10566C13.3397 11.2532 15.4396 12.9959 17.2759 12.9959C19.1137 12.9959 19.7391 11.3061 19.7391 11.3061C18.7454 11.2457 17.8757 10.7433 17.2224 10.0232Z" fill="#472380"/>
        <path d="M22.9571 12.0227C22.9792 12.1131 22.9907 12.2019 22.9966 12.2911C22.9968 12.3183 22.9949 15.5073 22.9965 15.5454C23.0045 15.8134 23.251 16.0344 23.5044 16.0471C23.774 16.0608 24.0408 15.8252 24.0543 15.5454C24.0555 15.509 24.0543 12.637 24.0543 12.637C24.0519 12.3959 24.0752 12.1493 23.9621 11.9279C23.842 11.6816 23.546 11.4917 23.1885 11.4917C22.878 11.4917 22.6942 11.7396 22.6942 11.7396C22.6942 11.7396 22.8755 11.8038 22.9571 12.0227Z" fill="#472380"/>
        <path d="M56.4888 15.5157C56.4669 15.4254 56.4552 15.3368 56.4494 15.2472C56.4491 15.2202 56.4509 12.0313 56.4497 11.9934C56.4416 11.7253 56.1951 11.5043 55.9415 11.4914C55.6721 11.4779 55.4053 11.7135 55.3916 11.9934C55.3905 12.0299 55.3916 14.9016 55.3916 14.9016C55.3942 15.1426 55.3708 15.389 55.4838 15.6109C55.6041 15.8571 55.8998 16.0468 56.2576 16.0468C56.5681 16.0468 56.7517 15.7991 56.7517 15.7991C56.7517 15.7991 56.5705 15.7346 56.4888 15.5157" fill="#472380"/>
        <path d="M37.3503 13.1426C36.8003 13.1426 36.4748 13.6076 36.3826 13.7597L36.3794 13.762C36.3793 13.6082 36.3788 13.4865 36.3788 13.4804C36.3707 13.2126 36.1243 13.0124 35.871 13C35.6018 12.9863 35.3347 13.201 35.3213 13.4804C35.3205 13.5167 35.3205 15.5163 35.3213 15.5433C35.3295 15.8108 35.5758 16.0319 35.8294 16.0445C36.0986 16.0579 36.3653 15.8226 36.3788 15.5433C36.3794 15.5227 36.3797 14.8701 36.3795 14.3082L36.3839 14.3051C36.4293 14.0893 36.5502 13.8687 36.7327 13.8687C36.969 13.8687 36.982 14.1331 36.9832 14.1331L36.9808 15.5433C36.989 15.8107 37.2353 16.0318 37.4889 16.0444C37.7581 16.0579 38.0248 15.8225 38.0383 15.5433L38.0369 14.8063C38.0369 14.0485 38.1155 13.1389 37.3503 13.1425" fill="#472380"/>
        <path d="M50.8694 13.1426C50.3195 13.1426 49.9938 13.6076 49.9016 13.7597L49.8985 13.762C49.8984 13.6082 49.8979 13.4865 49.8979 13.4804C49.8897 13.2126 49.6434 13.0124 49.3901 13C49.1209 12.9863 48.8537 13.201 48.8404 13.4804C48.8395 13.5167 48.8395 15.5163 48.8404 15.5433C48.8485 15.8108 49.0949 16.0319 49.3484 16.0445C49.6176 16.0579 49.8844 15.8226 49.8979 15.5433C49.8985 15.5227 49.8989 14.8701 49.8986 14.3082L49.903 14.3051C49.9483 14.0893 50.0693 13.8687 50.2518 13.8687C50.488 13.8687 50.5011 14.1331 50.5022 14.1331L50.5 15.5433C50.5081 15.8107 50.7545 16.0318 51.0079 16.0444C51.2771 16.0579 51.5438 15.8225 51.5575 15.5433L51.5559 14.8063C51.5559 14.0485 51.6346 13.1389 50.8693 13.1425" fill="#472380"/>
        <path d="M26.6122 13.1426C26.0623 13.1426 25.7366 13.6076 25.6444 13.7597L25.6414 13.762C25.6411 13.6082 25.6408 13.4865 25.6408 13.4804C25.6327 13.2126 25.3864 13.0124 25.1328 13C24.8637 12.9863 24.5966 13.201 24.5833 13.4804C24.5823 13.5167 24.5823 15.5163 24.5833 15.5433C24.5915 15.8108 24.8379 16.0319 25.0914 16.0445C25.3604 16.0579 25.6272 15.8226 25.6408 15.5433C25.6414 15.5227 25.6416 14.8701 25.6414 14.3082L25.6458 14.3051C25.6912 14.0893 25.8122 13.8687 25.9947 13.8687C26.231 13.8687 26.244 14.1331 26.2452 14.1331L26.243 15.5433C26.2509 15.8107 26.4973 16.0318 26.7508 16.0444C27.0201 16.0579 27.2868 15.8225 27.3003 15.5433L27.2988 14.8063C27.2988 14.0485 27.3775 13.1389 26.6122 13.1425" fill="#472380"/>
        <path d="M47.0354 13.0087C46.2034 13.0087 45.5289 13.6865 45.5289 14.5231C45.5289 15.3599 46.2034 16.0374 47.0354 16.0374C47.8672 16.0374 48.5418 15.3599 48.5418 14.5231C48.5418 13.6865 47.8672 13.0087 47.0354 13.0087ZM47.0463 15.3942V15.3949C47.0449 15.3949 47.0439 15.3946 47.0428 15.3946C47.0415 15.3946 47.0406 15.3949 47.0401 15.3949V15.3942C46.7553 15.3887 46.6129 15.0605 46.6129 14.5231C46.6129 13.9865 46.7933 13.6577 47.0401 13.6518V13.6516C47.0406 13.6516 47.0415 13.6516 47.0428 13.6518C47.0439 13.6516 47.0449 13.6516 47.0463 13.6516V13.6518C47.2924 13.6576 47.4729 13.9865 47.4729 14.5231C47.4729 15.0605 47.3306 15.3887 47.0463 15.3942Z" fill="#472380"/>
        <path d="M41.4103 13.4433C41.4016 13.163 41.1393 12.9313 40.8741 12.9179C40.5917 12.9039 40.3123 13.1504 40.2981 13.4433C40.2979 13.4636 40.2954 13.5072 40.2954 13.5151C40.1615 13.3283 39.8682 13.0129 39.4053 13.0129C38.132 13.0129 38.0513 15.2926 38.9245 15.8565C39.1709 16.0153 39.5422 16.0559 39.8233 15.9827C39.9819 15.941 40.2158 15.8049 40.3222 15.6311C40.3874 15.855 40.6079 16.0255 40.8346 16.0368C41.1166 16.0509 41.3961 15.8046 41.4103 15.5117C41.4115 15.4735 41.4112 13.4689 41.4103 13.4433H41.4103ZM39.7944 15.278V15.2783C39.7935 15.2783 39.7924 15.2782 39.7914 15.2782C39.79 15.2782 39.7893 15.2783 39.788 15.2783V15.278C39.5034 15.2735 39.3612 14.9866 39.3612 14.5187C39.3612 14.0513 39.5415 13.765 39.788 13.7595V13.7592C39.7893 13.7592 39.79 13.7595 39.7914 13.7595C39.7924 13.7595 39.7936 13.7592 39.7944 13.7592V13.7595C40.0409 13.7649 40.2218 14.0513 40.2218 14.5187C40.2218 14.9866 40.0788 15.2735 39.7944 15.278Z" fill="#472380"/>
        <path d="M54.9183 13.4433C54.9101 13.163 54.6477 12.9313 54.382 12.9179C54.0999 12.9039 53.8206 13.1504 53.8064 13.4433C53.8059 13.4636 53.8032 13.5072 53.8032 13.5151C53.67 13.3283 53.3762 13.0129 52.9134 13.0129C51.6402 13.0129 51.5594 15.2926 52.4327 15.8565C52.6791 16.0153 53.0505 16.0559 53.3311 15.9827C53.49 15.941 53.7242 15.8049 53.8305 15.6311C53.8954 15.855 54.1162 16.0255 54.3427 16.0368C54.6248 16.0509 54.9042 15.8046 54.9183 15.5117C54.9196 15.4735 54.9189 13.4689 54.9183 13.4433H54.9183ZM53.3028 15.278V15.2783C53.3015 15.2783 53.3007 15.2782 53.2997 15.2782C53.2983 15.2782 53.2977 15.2783 53.2961 15.2783V15.278C53.0117 15.2735 52.8693 14.9866 52.8693 14.5187C52.8693 14.0513 53.0498 13.765 53.2961 13.7595V13.7592C53.2977 13.7592 53.2983 13.7595 53.2997 13.7595C53.3006 13.7595 53.3015 13.7592 53.3028 13.7592V13.7595C53.5493 13.7649 53.7298 14.0513 53.7298 14.5187C53.7298 14.9866 53.5871 15.2735 53.3028 15.278Z" fill="#472380"/>
        <path d="M45.1971 13.729C45.1845 13.4649 44.9782 13.2578 44.7179 13.2357C44.7023 13.234 44.688 13.2308 44.6729 13.2308C44.4376 13.2308 44.1411 13.4356 44.1411 13.6944L44.1424 14.675H44.1411C44.1444 14.9808 44.1408 15.5334 44.1411 15.5396C44.1538 15.8038 44.3603 16.011 44.6201 16.033C44.6359 16.035 44.65 16.0378 44.6653 16.0378C44.9007 16.0378 45.1971 15.8331 45.1971 15.5744L45.1961 14.7551H45.1971C45.1936 14.4489 45.1976 13.7351 45.1971 13.729Z" fill="#472380"/>
        <path d="M45.1934 12.4026C45.1934 12.6935 44.9586 12.9291 44.6692 12.9291C44.3794 12.9291 44.145 12.6935 44.145 12.4026C44.145 12.1112 44.3794 11.8751 44.6692 11.8751C44.9586 11.8751 45.1934 12.1112 45.1934 12.4026Z" fill="#472380"/>
        <path d="M34.4791 13.1061C34.1651 13.1191 34.0098 13.3543 33.7961 13.6497C33.7945 13.6521 33.7963 13.5132 33.7962 13.5079C33.788 13.2403 33.5418 13.0193 33.2887 13.0064C33.019 12.993 32.7523 13.2283 32.7389 13.5079V15.5497H32.738C32.7461 15.8175 32.9923 16.0387 33.2458 16.0512C33.5127 16.0645 33.7766 15.8334 33.7945 15.5575H33.7969L33.7967 14.2641C33.8126 14.0745 33.8949 13.8376 34.0466 13.8388C34.2612 13.8408 34.0394 14.3626 34.5318 14.3626C35.2379 14.3626 35.3133 13.0715 34.4792 13.1061" fill="#472380"/>
        <path d="M32.3227 15.0989C32.3227 15.0989 32.1599 15.323 31.5285 15.323C30.8969 15.323 30.761 14.8295 30.761 14.8295C31.6817 14.8295 32.4537 14.7674 32.4537 14.0181C32.4537 13.269 31.6116 13.022 31.1122 13.022C30.2876 13.022 29.6849 13.683 29.6849 14.5557C29.6849 15.5387 30.4695 16.037 31.1209 16.037C32.2677 16.037 32.3227 15.0989 32.3227 15.0989ZM30.7013 14.3485C30.7335 14.1094 30.7907 13.8079 31.0049 13.6685C31.1825 13.5524 31.4314 13.6845 31.4353 13.9078C31.4393 14.1439 31.2875 14.3046 31.0762 14.3494C31.0538 14.3541 30.6982 14.3722 30.7013 14.3487" fill="#472380"/>
        <path d="M29.6207 15.4778C29.6207 15.4778 29.3458 16.0377 28.8375 16.0377C28.4191 16.0377 27.9042 15.6662 27.8827 15.1284C27.8824 15.1235 27.8798 14.3496 27.8778 13.7029H27.7358C27.6616 13.7029 27.5302 13.6584 27.5302 13.464C27.5302 13.2698 27.678 13.2285 27.7511 13.2285H27.8766C27.876 13.0024 27.8758 12.847 27.8762 12.8373C27.8894 12.5584 28.1558 12.3237 28.4244 12.3372C28.6773 12.35 28.9294 12.5702 28.9374 12.8373V13.2283H29.3851C29.4472 13.2283 29.5907 13.269 29.5907 13.4671C29.5907 13.665 29.4472 13.7029 29.3696 13.7029H28.9374V14.8906C28.9374 15.276 29.2675 15.4761 29.6221 15.4772" fill="#472380"/>
        <path d="M43.7703 15.4778C43.7703 15.4778 43.4953 16.0377 42.9872 16.0377C42.5687 16.0377 42.0538 15.6662 42.0324 15.1284C42.032 15.1235 42.0295 14.3496 42.0274 13.7029H41.8854C41.8111 13.7029 41.6799 13.6584 41.6799 13.464C41.6799 13.2698 41.8276 13.2285 41.9008 13.2285H42.0262C42.0255 13.0024 42.0254 12.847 42.0258 12.8373C42.0391 12.5584 42.3054 12.3237 42.574 12.3372C42.8269 12.35 43.0789 12.5702 43.087 12.8373V13.2283H43.5347C43.5966 13.2283 43.7403 13.269 43.7403 13.4671C43.7403 13.665 43.5966 13.7029 43.5191 13.7029H43.087V14.8906C43.087 15.276 43.4171 15.4761 43.7717 15.4772" fill="#472380"/>
    </g>
    <defs>
        <clipPath id="clip0_102:72">
            <rect width="66" height="16.3862" fill="white"/>
        </clipPath>
    </defs>
</svg>
