<svg width="160" height="41" viewBox="0 0 160 41" fill="none" xmlns="http://www.w3.org/2000/svg">
    <path d="M42.0633 22.2003C41.8393 19.4059 40.3863 17.7663 37.4427 17.7663C34.723 17.7663 33.0477 19.4805 32.7493 22.2003H42.0633ZM46.46 23.2431C46.46 24.1383 46.3855 25.0693 46.236 25.8137H32.8236C33.3069 28.0502 35.2077 29.4286 38.7838 29.4286C38.803 29.4286 38.8175 29.427 38.8319 29.427C38.8463 29.427 38.8559 29.4253 38.8703 29.4253C39.0957 29.4253 39.3163 29.4157 39.535 29.4061C39.6518 29.4013 39.7705 29.3916 39.8878 29.382C39.981 29.3724 40.0729 29.3628 40.1642 29.3579C41.6529 29.207 43.0687 28.8069 44.3676 28.1981C44.4695 28.1491 44.5742 28.1015 44.6727 28.0506C44.9356 27.9184 45.1933 27.7723 45.446 27.6233H45.5594V31.3945C43.5959 32.5831 41.295 33.2664 38.833 33.2664V33.2567C38.7431 33.2585 38.6551 33.2664 38.5633 33.2664C31.8181 33.2664 28.1302 29.4292 28.1302 23.8405C28.1302 17.8414 31.9301 13.8923 37.4442 13.8923C42.9583 13.8923 46.46 17.8036 46.46 23.2431ZM0 32.8934H4.58325L5.43951 16.8359L5.62601 12.4765H5.70052L6.67042 16.8359L10.3957 32.8934H16.1336L19.8962 16.8359L20.8271 12.4765H20.9016L21.0881 16.8359L21.9833 32.8934H26.7514L25.1864 7.18614H17.5866L14.158 22.6112L13.4137 26.5229H13.3392L12.5558 22.6112L9.12895 7.18614H1.52754L0 32.8934ZM78.8765 33.2663C74.5917 33.2663 72.1687 31.2909 72.1687 26.8212V18.0278H67.0276V27.3791C67.0276 28.7576 67.5499 29.3173 68.6673 29.3173C68.9283 29.3173 69.2251 29.3173 69.5608 29.2428H69.6728V32.8934C69.2253 33.0054 68.3316 33.1174 67.6618 33.1174C65.1285 33.1174 63.5618 32.1492 62.8921 30.0246C61.5508 32.1119 59.4279 33.2666 56.7828 33.2666C52.0503 33.2666 48.2131 29.5787 48.2131 23.5423C48.2131 17.5805 52.0503 13.8926 56.7828 13.8926C59.1278 13.8926 61.0675 14.7861 62.4071 16.4258V7.18643H67.0276V14.2656H72.1688V9.83154H76.7893V14.2656H81.7456V18.0281H76.7893V26.5977C76.7893 28.4595 77.7202 29.3549 79.5107 29.3549C80.3297 29.3549 80.8876 29.2803 81.6336 29.0938H81.7456V32.8937C80.8503 33.1177 79.7701 33.2663 78.8765 33.2663ZM57.751 29.3549C60.8811 29.3549 62.631 26.9335 62.631 23.5423C62.631 20.1884 60.8811 17.7672 57.751 17.7672C54.5836 17.7672 52.9439 20.1884 52.9439 23.5423C52.9439 26.9335 54.5836 29.3549 57.751 29.3549ZM88.4144 23.132C88.4144 20.1139 89.9795 18.4369 92.9604 18.4369C93.4809 18.4369 94.0405 18.5113 94.5611 18.6622H94.6356V14.3385C94.1523 14.1534 93.5182 14.0419 92.8094 14.0419C90.5746 14.0419 89.0841 15.4204 88.2278 17.6552V14.2657H83.7938V32.8939H88.4144L88.4144 23.132ZM104.511 33.2667C98.6611 33.2667 94.7102 29.0192 94.7102 23.5797C94.7102 18.1402 98.6611 13.8926 104.511 13.8926C110.322 13.8926 114.273 18.1402 114.273 23.5797C114.273 29.0192 110.322 33.2667 104.511 33.2667ZM104.511 29.2804C107.826 29.2804 109.54 26.859 109.54 23.5797C109.54 20.3004 107.826 17.8791 104.511 17.8791C101.269 17.8791 99.4428 20.3004 99.4428 23.5797C99.4428 26.859 101.269 29.2804 104.511 29.2804ZM121.362 22.4996C121.362 19.6306 122.815 17.7672 125.498 17.7672C128.143 17.7672 129.374 19.5187 129.374 22.4996V32.8937H133.993V22.313C133.993 17.8417 131.683 13.8926 126.654 13.8926C123.971 13.8926 122.183 15.2339 121.175 17.2466V14.2657H116.741V32.8937H121.362V22.4996ZM142.152 9.71977C142.152 11.2102 140.96 12.4768 139.396 12.4768C137.906 12.4768 136.675 11.2102 136.675 9.71977C136.675 8.22933 137.906 7 139.396 7C140.96 7 142.152 8.22933 142.152 9.71977ZM144.724 32.8937C144.015 33.0427 143.196 33.1547 142.45 33.1547C138.912 33.1547 137.011 31.2913 137.011 27.8644V14.2656H141.669V27.5287C141.669 28.758 142.264 29.3549 143.532 29.3549C143.829 29.3549 144.202 29.3163 144.612 29.2428H144.724V32.8937ZM145.17 23.5797C145.17 18.1402 149.119 13.8926 155.006 13.8926C156.683 13.8926 158.584 14.3031 160 15.0847V19.1829H159.888C158.435 18.3266 156.982 17.9163 155.342 17.9163C151.802 17.9163 149.903 20.3377 149.903 23.5797C149.903 26.8217 151.802 29.2431 155.342 29.2431C156.982 29.2431 158.435 28.8325 159.888 27.9764H160V32.0746C158.584 32.858 156.683 33.2667 155.006 33.2667C149.119 33.2667 145.17 29.0192 145.17 23.5797Z" fill="#224A87"/>
</svg>
