<svg width="156" height="40" viewBox="0 0 156 40" fill="none" xmlns="http://www.w3.org/2000/svg">
<path d="M88.5942 21.3892H89.4453V38.4105H86.2234V23.456C86.2234 22.9697 87.2568 21.3892 88.5942 21.3892Z" fill="#2D3277"/>
<path d="M106.224 25.1582C104.643 25.1582 103.427 25.8269 102.576 27.1642V21.3892H102.211C100.631 21.3892 99.7798 22.2403 99.3542 22.9698V22.8481V32.6354C99.3542 36.4652 101.36 38.4105 105.372 38.4105C109.385 38.3497 111.33 36.1612 111.33 31.9059C111.33 27.4682 109.628 25.2798 106.224 25.1582ZM105.251 35.6141C103.427 35.6141 102.515 34.2767 102.576 31.7235C102.698 29.2311 103.549 28.0153 105.312 28.0153C107.075 28.0153 107.926 29.2311 108.047 31.7235C108.047 34.3375 107.075 35.6141 105.251 35.6141Z" fill="#2D3277"/>
<path d="M113.214 31.7235C113.336 27.5898 115.342 25.2798 119.658 25.2798H120.631V28.6233H119.111C117.287 28.6233 116.497 29.7783 116.497 31.6628V38.3497H113.214V31.7235Z" fill="#2D3277"/>
<path d="M125.737 35.067C126.284 35.5533 127.014 35.7965 127.987 35.7965C128.655 35.7965 129.263 35.6141 129.749 35.2494C130.236 34.8847 130.54 34.5199 130.661 34.1551H133.701C133.215 35.6749 132.485 36.7084 131.452 37.3771C130.418 38.0458 129.263 38.3497 127.804 38.3497C126.831 38.3497 125.92 38.1674 125.129 37.8634C124.339 37.5595 123.67 37.0731 123.123 36.526C122.576 35.9181 122.151 35.2494 121.847 34.4591C121.543 33.6688 121.421 32.757 121.421 31.7844C121.421 30.8725 121.604 29.9606 121.907 29.1704C122.211 28.3801 122.637 27.6506 123.184 27.1035C123.731 26.4956 124.4 26.0701 125.19 25.7053C125.98 25.3406 126.831 25.219 127.804 25.219C128.838 25.219 129.81 25.4014 130.6 25.8269C131.391 26.2524 132.059 26.7995 132.546 27.4682C133.032 28.1369 133.397 28.9272 133.64 29.839C133.883 30.6901 133.944 31.6627 133.883 32.6354H124.825C124.947 33.7904 125.251 34.5807 125.737 35.067ZM129.628 28.5017C129.202 28.0762 128.594 27.833 127.743 27.833C127.196 27.833 126.71 27.9546 126.345 28.137C125.98 28.3193 125.677 28.5625 125.494 28.8056C125.251 29.1096 125.129 29.3528 125.008 29.6567C124.886 29.9607 124.886 30.2646 124.825 30.5077H130.418C130.357 29.5959 130.053 28.9272 129.628 28.5017Z" fill="#2D3277"/>
<path d="M96.1323 21.3892H92.9104V24.3071H96.1323V21.3892Z" fill="#2D3277"/>
<path d="M96.1323 25.7661H92.9104V38.3497H96.1323V25.7661Z" fill="#2D3277"/>
<path d="M151.695 14.6415C151.148 15.2494 150.418 15.6141 149.506 15.6141C148.594 15.6141 147.865 15.2494 147.318 14.6415C146.771 14.0336 146.588 13.0002 146.588 11.7843C146.588 10.5078 146.831 9.59591 147.318 8.98801C147.865 8.38011 148.594 8.0153 149.506 8.0153C150.418 8.0153 151.148 8.38011 151.695 8.98801C152.242 9.59591 152.424 10.6293 152.424 11.7843C152.424 12.9394 152.242 13.912 151.695 14.6415ZM154.248 7.10345C153.275 5.82685 151.634 5.09741 149.506 5.09741C147.439 5.09741 145.737 5.70527 144.765 7.10345C143.792 8.38005 143.184 9.96065 143.184 11.7236C143.184 13.5473 143.731 15.1278 144.765 16.3436C145.737 17.6202 147.379 18.2889 149.506 18.2889C151.573 18.2889 153.275 17.681 154.248 16.3436C155.221 15.067 155.828 13.4865 155.828 11.7236C155.889 10.0214 155.342 8.44084 154.248 7.10345Z" fill="#2D3277"/>
<path d="M138.442 14.6414C138.017 15.2493 137.287 15.6141 136.376 15.6141C135.464 15.6141 134.734 15.2493 134.37 14.6414C133.944 13.912 133.762 13.0001 133.762 11.7843C133.762 10.6901 133.944 9.83901 134.37 9.17031C134.795 8.44083 135.464 8.07613 136.436 8.07613C137.044 8.07613 137.591 8.25844 138.078 8.62318C138.807 9.23109 139.233 10.447 139.233 12.0275C139.05 13.1217 138.929 14.0335 138.442 14.6414ZM142.212 1.38919C142.212 1.38919 138.929 1.02442 138.929 3.63841V7.10343C138.564 6.55631 138.139 6.13082 137.47 5.70529C136.923 5.34055 136.193 5.27972 135.464 5.27972C133.822 5.27972 132.546 5.88762 131.512 7.10343C130.54 8.25844 130.053 10.0214 130.053 12.2098C130.053 14.0335 130.479 15.6141 131.512 16.6476C132.485 17.8026 134.43 18.2889 136.133 18.2889C142.151 18.2889 142.029 13.1825 142.029 13.1825L142.212 1.38919Z" fill="#2D3277"/>
<path d="M126.041 13.1217C126.041 14.216 125.676 14.9455 125.129 15.371C124.521 15.7358 123.853 15.9789 123.184 15.9789C122.758 15.9789 122.394 15.9181 122.09 15.6141C121.786 15.3102 121.664 15.0063 121.664 14.4592C121.664 13.8513 121.907 13.3649 122.394 13.061C122.637 12.8786 123.184 12.6963 123.853 12.6355L124.582 12.4531C124.947 12.3923 125.19 12.2707 125.494 12.2707C125.676 12.2099 125.92 12.0883 126.102 12.0276L126.041 13.1217ZM127.683 6.0093C126.588 5.46219 125.433 5.21899 124.035 5.21899C121.968 5.21899 120.448 5.76615 119.597 6.86038C119.05 7.58986 118.807 8.44088 118.686 9.47432H121.786C121.847 9.04879 122.029 8.68409 122.211 8.38014C122.576 8.01539 123.123 7.83301 123.853 7.83301C124.582 7.83301 125.008 7.89381 125.433 8.07619C125.798 8.25856 125.98 8.62325 125.98 9.17037C125.98 9.5959 125.737 9.89985 125.251 10.0822C125.008 10.143 124.521 10.2646 123.974 10.3254L122.88 10.3862C121.603 10.5685 120.692 10.8117 120.023 11.1765C118.868 11.7844 118.26 13.0002 118.26 14.4592C118.26 15.6142 118.625 16.526 119.354 17.1947C120.084 17.8026 120.996 18.1066 122.151 18.1674C129.263 18.4105 129.202 14.3984 129.202 13.6081V8.98804C129.263 7.65065 128.777 6.55641 127.683 6.0093Z" fill="#2D3277"/>
<path d="M111.573 8.01531C112.363 8.01531 112.971 8.25851 113.397 8.74484C113.64 9.10958 113.822 9.5351 113.822 10.0214H117.287C117.105 8.2585 116.497 6.9819 115.464 6.374C114.491 5.64451 113.093 5.40137 111.452 5.40137C109.506 5.40137 107.987 5.9485 106.892 7.1643C105.798 8.38011 105.251 10.0214 105.251 12.0883C105.251 14.0336 105.677 15.4926 106.71 16.6476C107.683 17.8026 109.263 18.4105 111.33 18.4105C113.397 18.4105 114.977 17.681 116.072 16.3436C116.68 15.4318 117.044 14.5199 117.166 13.4864H113.701C113.64 14.0943 113.458 14.6415 113.093 15.067C112.728 15.4318 112.181 15.6749 111.33 15.6749C110.236 15.6749 109.385 15.1278 109.081 14.0943C108.898 13.5472 108.716 12.8178 108.716 11.9059C108.716 10.994 108.777 10.143 109.081 9.65669C109.628 8.56247 110.357 8.01531 111.573 8.01531Z" fill="#2D3277"/>
<path d="M104.339 5.27979C97.1052 5.27979 97.5915 11.6628 97.5915 11.6628V18.1066H100.874V12.0883C100.874 11.1157 100.935 10.3254 101.239 9.89991C101.665 9.10964 102.516 8.62325 103.853 8.62325C103.914 8.62325 104.035 8.62325 104.218 8.62325C104.4 8.62325 104.582 8.62331 104.765 8.6841V5.40141C104.582 5.40141 104.522 5.40141 104.522 5.40141C104.461 5.27983 104.461 5.27979 104.339 5.27979Z" fill="#2D3277"/>
<path d="M88.0473 8.62322C88.4728 8.19769 89.1416 7.89377 89.9926 7.89377C90.7221 7.89377 91.3908 8.07614 91.9379 8.50167C92.485 8.9272 92.7282 9.59587 92.7282 10.4469H87.1354C87.3178 9.71745 87.561 9.10955 88.0473 8.62322ZM92.4242 14.6415C92.3634 14.8239 92.181 15.0063 91.9987 15.0671C91.5731 15.4318 90.9044 15.4926 90.1749 15.4926C89.4455 15.4926 88.8984 15.4318 88.4121 15.0671C87.6218 14.6415 87.1354 13.6688 87.1354 12.5138H96.1324C96.1324 11.4196 96.1324 10.5685 96.0717 10.0822C95.8893 9.10956 95.6461 8.25853 95.099 7.52904C94.5519 6.73877 93.8224 6.07007 93.0321 5.70533C92.2419 5.34059 91.2084 5.1582 90.1142 5.1582C88.2905 5.1582 86.8315 5.70533 85.7373 6.92114C84.6431 8.07615 83.9744 9.71748 83.9744 11.8451C83.9744 14.0944 84.5822 15.7965 85.9196 16.7691C87.1962 17.7418 88.6552 18.3497 90.2966 18.3497C92.3027 18.3497 93.8832 17.7418 94.9166 16.526C95.5245 15.9181 95.8893 15.2494 96.0109 14.5807L92.4242 14.6415Z" fill="#2D3277"/>
<path d="M82.576 18.0457H79.5365V10.5686C79.5365 9.83907 79.3541 8.31927 77.348 8.31927C76.0714 8.31927 75.0988 9.23117 75.0988 10.5686V18.0457H72.0593V10.5686C72.0593 9.83907 71.8769 8.31927 69.8709 8.31927C68.5943 8.31927 67.6823 9.23117 67.6823 10.5686V18.0457H64.6428V10.6293C64.6428 7.52903 66.6489 5.1582 69.81 5.1582C71.3906 5.1582 72.6672 5.76612 73.579 6.92114C74.4909 5.82691 75.7675 5.1582 77.348 5.1582C80.6307 5.1582 82.5152 7.40745 82.5152 10.6293L82.576 18.0457Z" fill="#2D3277"/>
<path d="M58.0394 18.9058C58.0394 8.51063 45.091 0 29.1032 0C13.1153 0 0.166992 8.51063 0.166992 18.9058C0.166992 19.1489 0.166992 19.9392 0.166992 20C0.166992 31.0639 11.474 40 29.1032 40C46.7932 40 58.0394 31.0639 58.0394 20C58.0394 19.6353 58.0394 19.4529 58.0394 18.9058Z" fill="#2D3277"/>
<path d="M57.0057 18.9058C57.0057 28.693 44.5437 36.6565 29.2245 36.6565C13.9053 36.6565 1.44336 28.693 1.44336 18.9058C1.44336 9.11853 13.9053 1.15503 29.2245 1.15503C44.5437 1.15503 57.0057 9.11853 57.0057 18.9058Z" fill="#FFE600"/>
<path d="M19.9848 13.313C19.9848 13.313 19.6808 13.6169 19.8632 13.8601C20.2887 14.4072 21.6262 14.7112 23.0243 14.4072C23.8146 14.2248 24.9088 13.3738 25.8815 12.5835C26.9757 11.7324 28.0699 10.8206 29.1642 10.5166C30.3192 10.1519 31.0487 10.3343 31.535 10.4558C32.0821 10.6382 32.69 11.0029 33.7234 11.7324C35.6079 13.1306 43.2675 19.8176 44.6049 20.9726C45.6383 20.4863 50.38 18.4802 56.8238 17.0212C56.2766 13.617 54.2098 10.4559 51.0487 7.90268C46.6718 9.72639 41.2614 10.699 35.9726 8.14586C35.9726 8.14586 33.1156 6.80841 30.2584 6.8692C26.0639 6.99078 24.301 8.75373 22.3557 10.699L19.9848 13.313Z" fill="white"/>
<path d="M44.3006 21.7022C44.2398 21.6414 35.3036 13.8602 33.2975 12.3405C32.1425 11.4894 31.4738 11.2462 30.8051 11.1247C30.4403 11.0639 29.954 11.1247 29.5893 11.2463C28.6774 11.4894 27.4009 12.3405 26.3066 13.1915C25.1516 14.1034 24.1181 14.9545 23.1455 15.1369C21.8689 15.4408 20.3492 15.0761 19.6805 14.5897C19.3765 14.4074 19.1942 14.1642 19.0726 13.9211C18.8294 13.3132 19.3157 12.8268 19.3765 12.766L21.8081 10.0912C22.1121 9.7873 22.3553 9.54412 22.6592 9.24017C21.8689 9.36175 21.1394 9.54415 20.4099 9.72652C19.4981 9.96968 18.6471 10.2128 17.796 10.2128C17.4312 10.2128 15.4859 9.90888 15.1212 9.7873C12.872 9.17939 10.9266 8.57152 8.00869 7.23413C4.54364 9.84812 2.17284 13.07 1.50415 16.6566C1.99047 16.7782 2.84151 17.0213 3.14546 17.0821C11.0482 18.8451 13.4798 20.6688 13.9662 21.0335C14.4525 20.4864 15.1212 20.1824 15.9114 20.1824C16.7625 20.1824 17.5528 20.608 18.0391 21.2767C18.4646 20.9119 19.1334 20.608 19.9237 20.608C20.2884 20.608 20.6531 20.6688 21.0786 20.7903C21.9905 21.0943 22.4161 21.7022 22.6592 22.2493C22.9632 22.1277 23.3279 22.0061 23.7534 22.0061C24.1789 22.0061 24.6045 22.1277 25.0908 22.3101C26.5498 22.918 26.7929 24.377 26.6714 25.4712C26.7929 25.4712 26.8537 25.4712 26.9753 25.4712C28.7382 25.4712 30.1364 26.8694 30.1364 28.6323C30.1364 29.1794 30.0148 29.6658 29.7717 30.0913C30.258 30.3344 31.413 30.9423 32.5072 30.8207C33.3583 30.6992 33.6622 30.456 33.7838 30.2736C33.8446 30.152 33.9662 30.0305 33.8446 29.9089L31.5954 27.4165C31.5954 27.4165 31.2306 27.0517 31.3522 26.9301C31.4738 26.8086 31.717 26.991 31.8993 27.1125C33.0543 28.0852 34.3917 29.4834 34.3917 29.4834C34.3917 29.4834 34.5133 29.6658 34.9996 29.7873C35.4251 29.8481 36.2154 29.7873 36.7625 29.3618C36.8841 29.2402 37.0665 29.1186 37.1273 28.997C37.6744 28.2675 37.0665 27.538 37.0665 27.538L34.4525 24.6202C34.4525 24.6202 34.0878 24.2554 34.2094 24.1338C34.331 24.0122 34.5741 24.1946 34.7564 24.3162C35.6075 24.9849 36.7626 26.2007 37.8568 27.2949C38.1 27.4773 39.0726 28.0852 40.3492 27.2341C41.1395 26.687 41.3218 26.0791 41.261 25.5928C41.2003 24.9849 40.7139 24.4985 40.7139 24.4985L37.1881 20.912C37.1881 20.912 36.8234 20.608 36.9449 20.4256C37.0665 20.304 37.3096 20.4864 37.492 20.608C38.647 21.5807 41.6866 24.377 41.6866 24.377C41.7473 24.377 42.7808 25.1673 44.1182 24.3162C44.6045 24.0123 44.9085 23.5867 44.9085 23.0396C44.9693 22.2493 44.3006 21.7022 44.3006 21.7022Z" fill="white"/>
<path d="M27.097 26.2614C26.5499 26.2614 25.942 26.5654 25.8812 26.5654C25.8204 26.5654 25.8812 26.3222 25.942 26.2006C26.0028 26.079 26.7323 23.8906 24.9694 23.1003C23.632 22.4924 22.7809 23.1611 22.5378 23.4651C22.477 23.5259 22.4162 23.5259 22.4162 23.4651C22.4162 23.1003 22.2338 22.0061 21.018 21.6414C19.3159 21.0942 18.2824 22.3101 17.9785 22.7356C17.8569 21.763 17.0667 21.0334 16.0332 21.0334C14.939 21.0334 14.0879 21.8845 14.0879 22.9787C14.0879 24.0729 14.939 24.924 16.0332 24.924C16.5803 24.924 17.0058 24.7417 17.3706 24.3769C17.3706 24.3769 17.3706 24.3769 17.3706 24.4377C17.3098 24.924 17.1274 26.687 18.9511 27.3557C19.6806 27.6596 20.2886 27.4164 20.8357 27.0517C21.018 26.9301 21.018 26.9909 21.018 27.1125C20.9572 27.538 21.018 28.5106 22.4162 29.0577C23.4496 29.4833 24.0575 29.0578 24.4222 28.693C24.6046 28.5106 24.6654 28.5715 24.6654 28.8146C24.7262 30.0912 25.8204 31.1246 27.097 31.1246C28.4344 31.1246 29.5287 30.0304 29.5287 28.693C29.5287 27.3556 28.4344 26.2614 27.097 26.2614Z" fill="white"/>
<path d="M44.6655 20.7904C41.93 18.4196 35.6078 12.8876 33.8448 11.6111C32.8722 10.8816 32.2035 10.456 31.5956 10.3345C31.3525 10.2737 30.9877 10.1521 30.5014 10.1521C30.0758 10.1521 29.5896 10.2129 29.1032 10.3952C28.009 10.76 26.9148 11.6111 25.8205 12.4621L25.7598 12.5229C24.7871 13.3132 23.7537 14.1035 22.9634 14.2858C22.5987 14.3466 22.2947 14.4074 21.9299 14.4074C21.0789 14.4074 20.2886 14.1642 19.9847 13.7995C19.9239 13.7387 19.9847 13.6171 20.1062 13.4955L22.5379 10.8816C24.4224 8.9971 26.1853 7.23413 30.319 7.11255C30.3798 7.11255 30.4406 7.11255 30.5014 7.11255C33.0546 7.11255 35.6078 8.26755 35.9117 8.38913C38.3433 9.54415 40.7749 10.1521 43.2673 10.1521C45.8813 10.1521 48.5561 9.4834 51.3525 8.20681C51.0485 7.96365 50.6838 7.65966 50.3799 7.4165C47.8875 8.51073 45.5774 8.99704 43.2673 8.99704C40.9573 8.99704 38.6473 8.44995 36.3981 7.35573C36.2765 7.29494 33.4801 5.95752 30.5014 5.95752C30.4406 5.95752 30.3191 5.95752 30.2583 5.95752C26.7932 6.01831 24.8479 7.23413 23.5713 8.32836C22.2947 8.32836 21.2005 8.6931 20.2279 8.93626C19.3768 9.17942 18.5865 9.36184 17.857 9.36184C17.5531 9.36184 17.006 9.36184 16.9452 9.36184C16.0941 9.36184 11.8388 8.32839 8.4953 6.991C8.13055 7.23416 7.82663 7.47729 7.46189 7.72045C10.9877 9.17942 15.3038 10.2737 16.6412 10.3952C17.006 10.3952 17.4315 10.456 17.857 10.456C18.7689 10.456 19.62 10.2129 20.5318 9.96974C21.0789 9.84816 21.626 9.66575 22.1731 9.54416C21.9908 9.72654 21.8691 9.84815 21.6868 10.0305L19.2552 12.7053C19.0728 12.8877 18.6473 13.4348 18.8904 14.0427C19.012 14.2858 19.2552 14.529 19.5591 14.7721C20.167 15.1369 21.2005 15.4409 22.1731 15.4409C22.5379 15.4409 22.9026 15.38 23.2065 15.3192C24.24 15.0761 25.3342 14.2251 26.4284 13.3132C27.3403 12.5837 28.6169 11.6718 29.5895 11.3679C29.8935 11.3071 30.1974 11.2463 30.5014 11.2463C30.5622 11.2463 30.6838 11.2463 30.7445 11.2463C31.4132 11.3071 32.0211 11.5503 33.1762 12.4014C35.1822 13.9211 44.1184 21.7022 44.1792 21.763C44.1792 21.763 44.7263 22.2494 44.7263 23.1004C44.7263 23.526 44.4224 23.9515 43.9969 24.2555C43.6321 24.4986 43.2066 24.6202 42.8418 24.6202C42.2339 24.6202 41.8084 24.3162 41.8084 24.3162C41.8084 24.3162 38.7081 21.5198 37.6139 20.5472C37.4315 20.3648 37.2491 20.2433 37.0668 20.2433C36.9452 20.2433 36.8844 20.3041 36.8236 20.3649C36.6412 20.608 36.8236 20.912 37.0668 21.0943L40.6534 24.681C40.6534 24.681 41.0789 25.1065 41.1397 25.6536C41.1397 26.2615 40.8966 26.7478 40.2887 27.1126C39.8631 27.4165 39.4376 27.5381 39.012 27.5381C38.4649 27.5381 38.1002 27.2949 37.9786 27.2341L37.4315 26.7479C36.5196 25.836 35.547 24.8634 34.8175 24.3162C34.6352 24.1947 34.4528 24.0123 34.2704 24.0123C34.2096 24.0123 34.088 24.0123 34.0272 24.1338C33.9664 24.1946 33.9056 24.377 34.088 24.681C34.1488 24.8026 34.2704 24.8634 34.2704 24.8634L36.8844 27.7813C36.8844 27.7813 37.4315 28.45 36.9452 28.9971L36.8236 29.1187C36.7628 29.1795 36.6412 29.301 36.5804 29.3618C36.1549 29.7265 35.547 29.7874 35.3038 29.7874C35.1822 29.7874 35.0607 29.7874 34.9391 29.7874C34.6959 29.7266 34.5135 29.6658 34.392 29.5442C34.2704 29.3618 32.933 28.0852 31.8388 27.1734C31.7172 27.0518 31.5348 26.9302 31.3524 26.9302C31.2917 26.9302 31.1701 26.991 31.1093 27.0518C30.9269 27.295 31.2309 27.6597 31.3524 27.7813L33.6017 30.2129C33.6017 30.2129 33.6017 30.2737 33.5409 30.3953C33.4801 30.5169 33.1762 30.76 32.3859 30.8816C32.2643 30.8816 32.2036 30.8816 32.082 30.8816C31.2309 30.8816 30.3798 30.456 29.8935 30.2129C30.0758 29.7874 30.1974 29.3011 30.1974 28.8147C30.1974 26.991 28.7385 25.5321 26.9148 25.5321C26.854 25.5321 26.854 25.5321 26.7932 25.5321C26.854 24.681 26.7324 23.1005 25.0911 22.4318C24.6048 22.2494 24.1792 22.1278 23.6929 22.1278C23.3281 22.1278 23.0242 22.1886 22.6595 22.3101C22.2947 21.6414 21.7476 21.1552 21.0181 20.912C20.5926 20.7904 20.2278 20.7296 19.8023 20.7296C19.1336 20.7296 18.5257 20.912 17.9786 21.3375C17.4315 20.6688 16.6412 20.3041 15.7901 20.3041C15.0607 20.3041 14.3312 20.608 13.8449 21.0943C13.1762 20.5472 10.4406 18.8451 3.08494 17.143C2.7202 17.0822 1.92995 16.8391 1.44363 16.6567C1.38284 17.0214 1.32202 17.447 1.26123 17.8725C1.26123 17.8725 2.59866 18.1764 2.90261 18.2372C10.3798 19.8786 12.8722 21.6415 13.2977 21.9454C13.1762 22.3102 13.1153 22.6749 13.1153 23.0397C13.1153 24.6202 14.3919 25.836 15.9117 25.836C16.0941 25.836 16.2764 25.836 16.4588 25.7752C16.702 26.9302 17.4315 27.7813 18.5865 28.2068C18.9512 28.3284 19.2552 28.3892 19.5591 28.3892C19.7415 28.3892 19.9847 28.3892 20.2279 28.3284C20.4102 28.8755 20.8965 29.5442 21.9907 29.9697C22.3555 30.1521 22.7202 30.2129 23.085 30.2129C23.3889 30.2129 23.6929 30.1521 23.9361 30.0306C24.4224 31.2464 25.6382 32.0974 26.9756 32.0974C27.8874 32.0974 28.7385 31.7327 29.3464 31.064C29.8935 31.3679 30.9877 31.915 32.1428 31.915C32.3251 31.915 32.4467 31.915 32.5683 31.915C33.7233 31.7935 34.2096 31.3071 34.4527 31.0032C34.5135 30.9424 34.5136 30.8816 34.5744 30.8208C34.8175 30.8816 35.1215 30.9424 35.4862 30.9424C36.0941 30.9424 36.702 30.76 37.3099 30.2737C37.9178 29.8481 38.3433 29.2402 38.3433 28.6931C38.5257 28.7539 38.7689 28.7539 38.9512 28.7539C39.5591 28.7539 40.2278 28.5715 40.8357 28.146C41.9907 27.4165 42.1732 26.3831 42.1732 25.7752C42.3555 25.836 42.5987 25.836 42.7811 25.836C43.389 25.836 43.9969 25.6536 44.544 25.2889C45.2735 24.8026 45.699 24.1339 45.7598 23.3436C45.8206 22.7965 45.6382 22.2493 45.395 21.763C47.3403 20.9119 51.7172 19.3314 56.9452 18.1156C56.9452 17.6901 56.8844 17.3253 56.7628 16.8998C50.5014 18.2372 45.8206 20.2433 44.6655 20.7904ZM27.0971 30.9424C25.8813 30.9424 24.9087 29.9697 24.8479 28.7539C24.8479 28.6323 24.8479 28.3892 24.6047 28.3892C24.4832 28.3892 24.4224 28.45 24.3008 28.5108C24.0576 28.754 23.6929 28.9971 23.2065 28.9971C22.9634 28.9971 22.7202 28.9363 22.4771 28.8147C21.2005 28.2676 21.1397 27.4166 21.2005 27.0518C21.2005 26.9302 21.2005 26.8694 21.1397 26.8086L21.0789 26.7479H21.0181C20.9573 26.7479 20.8965 26.7478 20.7749 26.8694C20.4102 27.1126 20.0455 27.2341 19.6807 27.2341C19.4984 27.2341 19.2552 27.1734 19.0728 27.1126C17.3707 26.4439 17.4923 24.8633 17.6138 24.377C17.6138 24.2554 17.6139 24.1946 17.5531 24.1338L17.4314 24.0123L17.3099 24.1338C16.9452 24.4378 16.5196 24.6202 16.0941 24.6202C15.1214 24.6202 14.3312 23.8299 14.3312 22.8573C14.3312 21.8846 15.1214 21.0943 16.0941 21.0943C16.9452 21.0943 17.7354 21.763 17.857 22.6141L17.9178 23.1004L18.161 22.6749C18.161 22.6141 18.8905 21.5199 20.2279 21.5807C20.471 21.5807 20.7141 21.6414 21.0181 21.7022C22.0515 22.0062 22.2339 22.9789 22.2339 23.3436C22.2339 23.5868 22.4163 23.5867 22.4163 23.5867C22.4771 23.5867 22.5986 23.526 22.5986 23.4652C22.781 23.2828 23.2066 22.918 23.8753 22.918C24.1792 22.918 24.4832 22.9788 24.8479 23.1612C26.4893 23.8907 25.7598 25.9575 25.7598 26.0183C25.6382 26.3831 25.5774 26.5047 25.7598 26.6262H25.8205H25.8813C25.9421 26.6262 26.0637 26.6263 26.1853 26.5655C26.4284 26.5047 26.7324 26.3831 27.0364 26.3831C28.2522 26.3831 29.2856 27.4165 29.2856 28.6323C29.3464 29.9697 28.3129 30.9424 27.0971 30.9424Z" fill="#2D3277"/>
</svg>
