<svg width="160" height="41" viewBox="0 0 160 41" fill="none" xmlns="http://www.w3.org/2000/svg">
    <g clip-path="url(#clip0_38_668)">
        <mask id="mask0_38_668" style="mask-type:luminance" maskUnits="userSpaceOnUse" x="-14" y="-5" width="191" height="51">
            <path d="M-13.2905 45.9531H176.123V-4.464H-13.2905V45.9531Z" fill="white"/>
        </mask>
        <g mask="url(#mask0_38_668)">
            <path d="M148.222 22.504C148.222 22.1659 148.295 21.824 148.443 21.4742C148.588 21.1257 148.802 20.8058 149.085 20.513C149.365 20.2202 149.722 19.9793 150.151 19.7876C150.577 19.5959 151.073 19.5 151.638 19.5C152.2 19.5 152.685 19.5959 153.091 19.7876C153.497 19.9793 153.835 20.2202 154.106 20.513C154.376 20.8058 154.578 21.1257 154.713 21.4742C154.85 21.824 154.916 22.1659 154.916 22.504H148.222ZM157.183 27.2957C156.821 27.5665 156.246 27.8864 155.458 28.2582C154.668 28.6287 153.644 28.8152 152.381 28.8152C151.095 28.8152 150.087 28.494 149.355 27.8528C148.623 27.2115 148.244 26.4641 148.222 25.6091H159.514V24.7995C159.514 23.4717 159.346 22.2501 159.007 21.1374C158.67 20.0233 158.168 19.0673 157.503 18.2681C156.839 17.4701 156.02 16.8457 155.052 16.3962C154.083 15.9454 152.956 15.7213 151.671 15.7213C150.387 15.7213 149.237 15.9519 148.222 16.413C147.209 16.8742 146.352 17.4869 145.653 18.2512C144.954 19.0168 144.42 19.9106 144.047 20.9353C143.676 21.9587 143.489 23.0222 143.489 24.1233C143.489 25.3837 143.687 26.5366 144.081 27.5833C144.476 28.6287 145.05 29.5238 145.806 30.2661C146.56 31.0084 147.48 31.5887 148.561 32.0045C149.643 32.4204 150.859 32.6289 152.213 32.6289C153.226 32.6289 154.127 32.5318 154.916 32.3413C155.706 32.1496 156.387 31.9307 156.962 31.6833C157.537 31.4358 158.004 31.1832 158.364 30.9242C158.726 30.6651 158.996 30.4798 159.176 30.3671L157.183 27.2957ZM103.296 27.8696C102.981 28.095 102.644 28.2919 102.283 28.4603C101.922 28.6287 101.494 28.7142 100.998 28.7142C100.344 28.7142 99.8652 28.5056 99.5615 28.0885C99.2565 27.6727 99.1047 27.082 99.1047 26.3177V20.0739H103.196V16.2602H99.1047V12.019H94.237V16.2602H91.7272V20.0739H94.237V26.047C94.237 27.038 94.3382 27.937 94.5406 28.7479C94.7444 29.5575 95.0818 30.2493 95.5554 30.8231C96.0278 31.397 96.6481 31.8465 97.4138 32.1729C98.1807 32.4981 99.1281 32.6626 100.254 32.6626C102.057 32.6626 103.726 32.0551 105.258 30.84L103.296 27.8696ZM145.444 10.6252C144.722 10.0176 143.923 9.59015 143.044 9.34273C142.164 9.09531 141.296 8.97095 140.44 8.97095C139.63 8.97095 138.834 9.10049 138.057 9.35957C137.28 9.61865 136.587 10.0125 135.977 10.541C135.368 11.0695 134.879 11.7379 134.508 12.5489C134.135 13.3585 133.948 14.3262 133.948 15.4506V16.2602H131.38V20.0739H133.948V32.0887H138.782V20.0739H142.537V16.2602H138.782V15.3832C138.782 14.5956 138.986 13.9881 139.392 13.5606C139.797 13.1344 140.338 12.9193 141.015 12.9193C141.443 12.9193 141.859 12.9867 142.266 13.1214C142.672 13.2574 143.044 13.4492 143.382 13.6953L145.444 10.6252ZM124.048 32.0887H128.916V16.2602H126.481H124.048V32.0887ZM107.08 32.0887H121.913V27.9201H112.186V9.5785H107.08V32.0887ZM79.2704 22.504C79.2704 22.1659 79.343 21.824 79.4897 21.4742C79.6363 21.1257 79.8504 20.8058 80.132 20.513C80.4136 20.2202 80.7692 19.9793 81.1975 19.7876C81.6257 19.5959 82.1214 19.5 82.6847 19.5C83.2479 19.5 83.7332 19.5959 84.1381 19.7876C84.5443 19.9793 84.883 20.2202 85.1529 20.513C85.4228 20.8058 85.6266 21.1257 85.7616 21.4742C85.8965 21.824 85.964 22.1659 85.964 22.504H79.2704ZM88.2298 27.2957C87.869 27.5665 87.2942 27.8864 86.5051 28.2582C85.7161 28.6287 84.6909 28.8152 83.4282 28.8152C82.1435 28.8152 81.1352 28.494 80.4033 27.8528C79.6701 27.2115 79.2924 26.4641 79.2704 25.6091H90.5618V24.7995C90.5618 23.4717 90.3931 22.2501 90.0557 21.1374C89.717 20.0233 89.2148 19.0673 88.5504 18.2681C87.8859 17.4701 87.0684 16.8457 86.099 16.3962C85.1309 15.9454 84.0031 15.7213 82.7184 15.7213C81.4337 15.7213 80.2852 15.9519 79.2704 16.413C78.2568 16.8742 77.399 17.4869 76.7009 18.2512C76.0014 19.0168 75.4667 19.9106 75.0956 20.9353C74.7232 21.9587 74.5376 23.0222 74.5376 24.1233C74.5376 25.3837 74.7335 26.5366 75.1293 27.5833C75.5225 28.6287 76.0974 29.5238 76.8527 30.2661C77.608 31.0084 78.5268 31.5887 79.6078 32.0045C80.6901 32.4204 81.9073 32.6289 83.2596 32.6289C84.2744 32.6289 85.175 32.5318 85.964 32.3413C86.753 32.1496 87.4356 31.9307 88.0105 31.6833C88.5841 31.4358 89.0526 31.1832 89.412 30.9242C89.7728 30.6651 90.044 30.4798 90.2244 30.3671L88.2298 27.2957ZM49.0452 32.0887H53.9129L54.4878 17.4753L59.4243 26.1493H62.0613L66.7266 17.3742L67.369 32.0887H72.4742L71.4256 9.5785H66.5566L60.8103 20.1412L54.9277 9.5785H50.0924L49.0452 32.0887ZM126.481 14.4505C124.979 14.4505 123.738 13.2121 123.738 11.7107C123.738 10.2094 124.979 8.97095 126.481 8.97095C128.023 8.97095 129.226 10.1718 129.226 11.7107C129.226 13.2121 127.985 14.4505 126.481 14.4505Z" fill="#231F20"/>
            <path d="M19.033 14.5347C22.8625 19.5958 25.1348 25.8993 25.1348 32.7364C25.1348 34.3855 25.0012 36.0034 24.7455 37.5825H35.8332C36.7974 37.5825 37.5787 36.8001 37.5787 35.835V5.23628C37.5787 4.09632 36.5029 3.25301 35.4011 3.54318C28.7801 5.28809 23.0494 9.22612 19.033 14.5347Z" fill="#99D538"/>
            <path d="M13.32 37.582C13.0656 36.0042 12.9306 34.3863 12.9306 32.7359C12.9306 25.9001 15.2043 19.5953 19.0325 14.5342C15.0161 9.22564 9.28535 5.28761 2.66439 3.54399C1.56263 3.25383 0.486816 4.09584 0.486816 5.23579V35.8358C0.486816 36.7996 1.26934 37.582 2.23355 37.582H13.32Z" fill="#239DE0"/>
            <path d="M19.033 14.5347C15.2035 19.5958 12.9312 25.8993 12.9312 32.7364C12.9312 34.3855 13.0648 36.0034 13.3205 37.5825H24.7456C25.0012 36.0034 25.1349 34.3855 25.1349 32.7364C25.1349 25.8993 22.8626 19.5958 19.033 14.5347Z" fill="#1563A9"/>
        </g>
    </g>
    <defs>
        <clipPath id="clip0_38_668">
            <rect width="160" height="35.0685" fill="white" transform="translate(0 3)"/>
        </clipPath>
    </defs>
</svg>
