<svg width="55" height="36" viewBox="0 0 55 36" fill="none" xmlns="http://www.w3.org/2000/svg">
    <g clip-path="url(#clip0_920_11)">
        <path d="M5.85424 23.7412C5.85424 25.8107 6.30848 27.3996 6.9022 28.3608C7.68063 29.6199 8.84167 30.1533 10.0253 30.1533C11.552 30.1533 12.9487 29.7745 15.6402 26.0519C17.7964 23.0683 20.3372 18.8802 22.0467 16.2547L24.9418 11.8065C26.9529 8.71728 29.2806 5.28314 31.9495 2.95539C34.1284 1.0555 36.4787 0 38.8442 0C42.8155 0 46.5983 2.30136 49.4934 6.61759C52.6618 11.3447 54.1998 17.2988 54.1998 23.4433C54.1998 27.0961 53.4798 29.7801 52.2547 31.9005C51.071 33.9512 48.764 36 44.8831 36V30.1533C48.2061 30.1533 49.0354 27.0999 49.0354 23.6054C49.0354 18.6258 47.8743 13.0995 45.3166 9.15079C43.5016 6.34995 41.1493 4.63853 38.5615 4.63853C35.7625 4.63853 33.5102 6.74953 30.9788 10.5135C29.6331 12.5133 28.2515 14.9504 26.7003 17.7003L24.9927 20.7254C21.5623 26.8077 20.6934 28.1931 18.9782 30.4794C15.9719 34.4827 13.4048 36 10.0253 36C6.01633 36 3.48126 34.2641 1.9112 31.648C0.629529 29.5162 0 26.7192 0 23.5319L5.85424 23.7412Z" fill="#0081FB"/>
        <path d="M4.61597 7.03037C7.29995 2.89319 11.1732 0 15.6158 0C18.1885 0 20.7462 0.761466 23.417 2.9422C26.3385 5.32649 29.4522 9.25256 33.3368 15.7231L34.7297 18.0452C38.0922 23.6469 40.0053 26.5288 41.1249 27.8878C42.5649 29.6331 43.5732 30.1533 44.8832 30.1533C48.2061 30.1533 49.0354 27.0999 49.0354 23.6054L54.1998 23.4433C54.1998 27.0961 53.4798 29.7801 52.2547 31.9005C51.071 33.9512 48.764 36 44.8832 36C42.4706 36 40.3332 35.476 37.9697 33.2463C36.1527 31.5349 34.0285 28.4947 32.3944 25.7617L27.5335 17.6419C25.0945 13.5669 22.8572 10.5286 21.5624 9.15267C20.1695 7.67309 18.3789 5.88628 15.5215 5.88628C13.2088 5.88628 11.2449 7.50911 9.60131 9.99141L4.61597 7.03037Z" fill="#0168E5"/>
        <path d="M15.5215 5.88628C13.2088 5.88628 11.2448 7.50911 9.60126 9.99141C7.27728 13.4991 5.85424 18.7238 5.85424 23.7412C5.85424 25.8107 6.30848 27.3996 6.9022 28.3608L1.9112 31.648C0.629529 29.5162 0 26.7192 0 23.5319C0 17.7361 1.59079 11.6953 4.61592 7.03037C7.2999 2.89319 11.1732 0 15.6157 0L15.5215 5.88628Z" fill="#0168E5"/>
    </g>
    <defs>
        <clipPath id="clip0_920_11">
            <rect width="54.1998" height="36" fill="white"/>
        </clipPath>
    </defs>
</svg>
