<svg width="160" height="41" viewBox="0 0 160 41" fill="none" xmlns="http://www.w3.org/2000/svg">
    <g clip-path="url(#clip0_38_684)">
        <g clip-path="url(#clip1_38_684)">
            <path fill-rule="evenodd" clip-rule="evenodd" d="M107.721 1.14303C107.647 1.2217 107.337 1.80116 107.03 2.43079C106.196 4.14596 101.463 13.3475 96.4526 22.9951C94.7421 26.2889 93.9416 27.6227 92.5931 29.426C91.8409 30.4318 90.6087 31.6651 89.8839 32.1373C89.5692 32.3425 89.3116 32.553 89.3116 32.6051C89.3116 32.7286 89.6029 32.7661 91.2782 32.8584C92.5395 32.9278 92.6124 32.9257 92.6759 32.8164C92.7128 32.753 94.3908 29.5532 96.405 25.7058L100.067 18.7106L104.896 18.6954C107.552 18.687 110.096 18.7013 110.549 18.7272L111.373 18.7742L114.725 25.6104C116.569 29.3704 118.122 32.5254 118.175 32.6216L118.272 32.7965L122.456 32.7955C125.008 32.7949 126.678 32.7708 126.736 32.7337C126.885 32.6387 126.758 32.4923 126.159 32.0656C125.115 31.3228 124.108 30.2034 123.283 28.8677C122.793 28.0752 119.126 21.2581 111.029 6.08739C109.62 3.44669 108.409 1.2217 108.338 1.14303C108.17 0.957531 107.893 0.957531 107.721 1.14303ZM34.5739 1.71378C34.2121 1.83772 34.3571 1.99314 35.2669 2.4568C36.0352 2.84834 36.4823 3.2617 36.7466 3.82513C37.1206 4.62233 37.1017 4.00465 37.1017 15.4356C37.1017 25.2892 37.0945 25.9958 36.9882 26.5179C36.5269 28.7828 35.2748 30.8399 33.5266 32.2051C33.2369 32.4312 33 32.6419 33 32.6733C33 32.7048 33.0644 32.746 33.1431 32.7651C33.2218 32.7841 35.3462 32.7918 37.864 32.7822C41.9184 32.7667 42.444 32.7535 42.4606 32.6671C42.4719 32.6085 42.3136 32.4478 42.0642 32.2647C40.4055 31.0468 39.1512 29.0652 38.5767 26.7551C38.4428 26.2169 38.4422 26.1685 38.4282 15.6263L38.4142 5.0381L38.5614 5.35607C38.6423 5.53095 41.4043 11.5691 44.6991 18.7742C47.9939 25.9793 50.7866 32.078 50.9051 32.3268C51.329 33.2172 51.6963 33.3993 52.136 32.9371C52.4241 32.6342 52.3459 32.7959 54.956 27.1049C56.159 24.4817 58.9297 18.4469 61.113 13.6943L65.0827 5.05311L65.1015 15.9836C65.1139 23.1733 65.0976 27.2188 65.0537 27.8044C64.9498 29.194 64.7206 29.9963 64.1901 30.8291C63.8303 31.3937 63.3527 31.7973 62.5012 32.2564C61.7532 32.6597 61.5751 32.8168 61.744 32.9245C61.8034 32.9623 65.6695 32.9917 71.9825 33.0022C86.6354 33.0265 85.8286 33.03 85.9163 32.9422C86.0324 32.8261 85.8916 32.6939 85.3744 32.4335C83.886 31.684 83.1623 30.8373 82.8006 29.4226C82.5589 28.477 82.5393 27.9569 82.5391 22.474L82.539 17.1435L85.4483 17.1695C88.1678 17.1938 88.3992 17.2047 88.9936 17.3369C91.3588 17.8628 92.9443 18.9018 94.0302 20.6373C94.3617 21.1671 94.498 21.2104 94.5693 20.8085C94.6267 20.485 94.6266 12.5742 94.5692 12.1931C94.5009 11.7395 94.3743 11.789 93.9688 12.4281C92.922 14.078 91.3692 15.1095 89.2162 15.5851C88.1407 15.8227 87.2757 15.8803 84.7806 15.8805L82.539 15.8807V9.52141V3.16211L87.1017 3.16268C89.6576 3.16294 91.9849 3.19155 92.3928 3.22767C95.656 3.51645 98.6909 5.15359 100.907 7.8203C101.422 8.44039 101.68 8.62602 101.81 8.46958C101.861 8.40828 101.874 8.28014 101.849 8.10558C101.827 7.9574 101.382 6.46259 100.861 4.78373L99.9142 1.73127L87.2361 1.68707C80.2631 1.66271 74.4487 1.65845 74.3151 1.67747C74.0473 1.71569 73.9585 1.83791 74.0865 1.99213C74.1323 2.04732 74.4545 2.23537 74.8025 2.41C75.8079 2.91454 76.3141 3.49292 76.606 4.47092C76.7112 4.82348 76.7196 5.56694 76.739 16.1987C76.7533 24.0808 76.7384 27.7589 76.6902 28.2333C76.4646 30.4555 75.5832 31.9034 74.2438 32.2523C73.951 32.3285 73.7821 32.3367 73.4852 32.2889C72.038 32.0558 71.1197 30.6811 70.7434 28.1841C70.6611 27.638 70.6479 25.9876 70.6485 16.2941C70.6493 3.98297 70.6313 4.58513 71.0227 3.8098C71.31 3.24058 71.711 2.87963 72.5547 2.43079C73.2715 2.04942 73.4432 1.88154 73.2447 1.75575C73.1976 1.72586 71.3243 1.701 69.0819 1.70042L65.0048 1.69947L59.6759 13.5621C56.7449 20.0866 54.3274 25.4021 54.3037 25.3745C54.2799 25.3468 51.7161 20.022 48.6064 13.5415C44.1877 4.33318 42.9245 1.75302 42.8251 1.73267C42.5413 1.67454 34.7405 1.65667 34.5739 1.71378ZM105.683 7.93992C105.605 8.09273 104.457 10.2889 103.131 12.8203C101.806 15.3517 100.732 17.4337 100.745 17.4471C100.759 17.4604 103.003 17.464 105.732 17.455L110.694 17.4387L108.312 12.6057C107.002 9.94748 105.907 7.74774 105.877 7.71734C105.848 7.68694 105.761 7.7871 105.683 7.93992ZM56.0295 35.1515C55.947 35.2203 55.8396 35.2766 55.791 35.2766C55.7425 35.2766 55.7027 35.3334 55.7027 35.4029C55.7027 35.5244 54.5533 38.0867 54.0401 39.1095C53.7299 39.7276 53.6221 39.8352 53.259 39.8897C53.0745 39.9174 52.9682 39.9655 52.9682 40.0215C52.9682 40.0927 53.1513 40.1096 53.9221 40.1096C54.6929 40.1096 54.876 40.0927 54.876 40.0215C54.876 39.9657 54.7707 39.9175 54.5898 39.8904C54.3992 39.8618 54.3037 39.8161 54.3037 39.7536C54.3037 39.6288 54.7304 38.5267 54.8491 38.3449C54.9388 38.2075 54.9788 38.2019 55.8554 38.2019C56.5082 38.2019 56.787 38.2245 56.834 38.2813C56.9517 38.4237 57.427 39.6809 57.3948 39.7648C57.3776 39.8097 57.2331 39.866 57.0736 39.8899C56.8899 39.9174 56.7838 39.9655 56.7838 40.0215C56.7838 40.0934 56.995 40.1096 57.9285 40.1096C58.8819 40.1096 59.0731 40.0944 59.0731 40.0181C59.0731 39.9579 58.9713 39.9114 58.7751 39.882C58.6046 39.8564 58.4195 39.7797 58.3426 39.7028C58.209 39.5693 57.8601 38.7776 56.8474 36.31C56.5567 35.6017 56.2876 35.0232 56.2493 35.0243C56.211 35.0255 56.1121 35.0827 56.0295 35.1515ZM72.2051 35.1258C71.1766 35.3412 70.3175 35.9463 69.9338 36.7257C69.7564 37.0859 69.7314 37.2011 69.7317 37.6535C69.7321 38.2716 69.9093 38.7247 70.3283 39.1793C70.9435 39.8468 71.7765 40.1712 73 40.2199C73.8249 40.2527 74.8969 40.1234 75.0832 39.9688C75.2 39.8719 75.3861 39.5009 75.4689 39.1999C75.525 38.9958 75.5194 38.9516 75.4329 38.9184C75.3662 38.8929 75.2953 38.9325 75.2303 39.0318C74.834 39.6372 74.3279 39.9176 73.5438 39.9664C71.7698 40.0768 70.5033 38.8951 70.6714 37.2866C70.7459 36.5734 71.1382 35.9536 71.7126 35.6409C72.8916 34.9992 74.571 35.2196 74.9843 36.0702C75.0785 36.2643 75.164 36.3577 75.2473 36.3577C75.3588 36.3577 75.3668 36.3256 75.3306 36.0238C75.3085 35.8401 75.2898 35.6184 75.2889 35.5309C75.2863 35.2562 75.2008 35.2055 74.5828 35.1128C73.8279 34.9994 72.7812 35.0052 72.2051 35.1258ZM84.9643 35.1515C84.8818 35.2203 84.7744 35.2766 84.7259 35.2766C84.6773 35.2766 84.6375 35.3334 84.6375 35.4029C84.6375 35.5244 83.4881 38.0867 82.9749 39.1095C82.6647 39.7276 82.5569 39.8352 82.1938 39.8897C82.0093 39.9174 81.903 39.9655 81.903 40.0215C81.903 40.0927 82.0861 40.1096 82.8569 40.1096C83.6277 40.1096 83.8108 40.0927 83.8108 40.0215C83.8108 39.9657 83.7056 39.9175 83.5246 39.8904C83.3341 39.8618 83.2385 39.8161 83.2385 39.7536C83.2385 39.6288 83.6652 38.5267 83.7839 38.3449C83.8736 38.2075 83.9136 38.2019 84.7902 38.2019C85.443 38.2019 85.7218 38.2245 85.7688 38.2813C85.8865 38.4237 86.3618 39.6809 86.3297 39.7648C86.3124 39.8097 86.1679 39.866 86.0085 39.8899C85.8247 39.9174 85.7186 39.9655 85.7186 40.0215C85.7186 40.0934 85.9299 40.1096 86.8633 40.1096C87.8167 40.1096 88.0079 40.0944 88.0079 40.0181C88.0079 39.9579 87.9061 39.9114 87.7099 39.882C87.5394 39.8564 87.3543 39.7797 87.2774 39.7028C87.1439 39.5693 86.7949 38.7776 85.7822 36.31C85.4915 35.6017 85.2224 35.0232 85.1841 35.0243C85.1458 35.0255 85.0469 35.0827 84.9643 35.1515ZM120.536 35.1258C119.507 35.3412 118.648 35.9463 118.264 36.7257C118.087 37.0859 118.062 37.2011 118.062 37.6535C118.063 38.2716 118.24 38.7247 118.659 39.1793C119.274 39.8468 120.107 40.1712 121.331 40.2199C122.156 40.2527 123.228 40.1234 123.414 39.9688C123.531 39.8719 123.717 39.5009 123.8 39.1999C123.856 38.9958 123.85 38.9516 123.764 38.9184C123.697 38.8929 123.626 38.9325 123.561 39.0318C123.165 39.6372 122.659 39.9176 121.875 39.9664C120.1 40.0768 118.834 38.8951 119.002 37.2866C119.077 36.5734 119.469 35.9536 120.043 35.6409C121.222 34.9992 122.902 35.2196 123.315 36.0702C123.409 36.2643 123.495 36.3577 123.578 36.3577C123.689 36.3577 123.697 36.3256 123.661 36.0238C123.639 35.8401 123.62 35.6184 123.62 35.5309C123.617 35.2562 123.532 35.2055 122.914 35.1128C122.159 34.9994 121.112 35.0052 120.536 35.1258ZM33.4452 35.244C33.4452 35.3054 33.5354 35.3531 33.7019 35.3797C34.1463 35.4508 34.1447 35.4427 34.1447 37.6295C34.1447 39.7395 34.1265 39.8553 33.7954 39.8553C33.7122 39.8553 33.5691 39.8838 33.4773 39.9187C33.1102 40.0583 33.4106 40.1096 34.5936 40.1096C35.5949 40.1096 35.7981 40.0943 35.7981 40.0188C35.7981 39.9565 35.689 39.9144 35.4502 39.8845C35.2589 39.8607 35.0658 39.797 35.021 39.7432C34.9631 39.6735 34.9396 39.3778 34.9396 38.7169V37.7885L35.6073 37.7688C35.9746 37.758 36.3815 37.7804 36.5115 37.8185C36.7101 37.8767 36.7602 37.9283 36.8237 38.1402C36.8762 38.3156 36.935 38.3926 37.0164 38.3926C37.1237 38.3926 37.1335 38.3284 37.1335 37.6295C37.1335 36.9401 37.1226 36.8664 37.0203 36.8664C36.9441 36.8664 36.8764 36.9549 36.8136 37.1367C36.724 37.3959 36.7072 37.4087 36.4022 37.449C35.9459 37.5095 35.081 37.5094 34.9856 37.4489C34.9241 37.4099 34.9086 37.1586 34.922 36.4164L34.9396 35.4356H35.8329C36.8591 35.4356 37.0148 35.4916 37.1837 35.9216C37.2487 36.0871 37.3162 36.1655 37.3827 36.1527C37.438 36.1421 37.4804 36.0979 37.4769 36.0547C37.4735 36.0115 37.4663 35.7901 37.461 35.5627L37.4515 35.1494H35.4483C33.7172 35.1494 33.4452 35.1622 33.4452 35.244ZM39.9105 35.1918C39.8175 35.2847 39.8818 35.3256 40.1837 35.3657C40.7049 35.4348 40.6948 35.3897 40.6948 37.6437C40.6948 39.8703 40.7114 39.8002 40.1627 39.8825C39.9692 39.9115 39.868 39.9581 39.868 40.0181C39.868 40.0945 40.0675 40.1096 41.0763 40.1096C42.0851 40.1096 42.2846 40.0945 42.2846 40.0181C42.2846 39.9586 42.1856 39.9118 42.0013 39.8841C41.4592 39.8029 41.4897 39.9364 41.4897 37.6444C41.4897 36.0294 41.5073 35.5928 41.5758 35.5102C41.6233 35.4531 41.8021 35.3878 41.9733 35.3651C42.1745 35.3384 42.2846 35.293 42.2846 35.2366C42.2846 35.1659 42.064 35.1494 41.1187 35.1494C40.4775 35.1494 39.9337 35.1685 39.9105 35.1918ZM44.5103 35.2409C44.5103 35.3009 44.611 35.3475 44.8024 35.3762C44.963 35.4003 45.1705 35.4854 45.2634 35.5652L45.4324 35.7105L45.4532 37.1629C45.4771 38.835 45.43 39.6261 45.2987 39.7574C45.249 39.8071 45.0787 39.8672 44.9202 39.8909C44.7491 39.9166 44.6417 39.9633 44.6559 40.006C44.6721 40.0546 45.0224 40.0835 45.7397 40.0953C46.6179 40.1097 46.7997 40.0973 46.7997 40.023C46.7997 39.9626 46.6805 39.9154 46.4347 39.8784C45.8979 39.7976 45.8905 39.7723 45.8575 37.9023C45.8425 37.0555 45.8479 36.3165 45.8696 36.26C45.9031 36.1727 45.9408 36.1841 46.1222 36.337C46.4322 36.5982 48.8841 38.8882 49.6403 39.6227C49.996 39.9682 50.3203 40.2398 50.361 40.2262C50.4152 40.2082 50.4334 39.6769 50.4291 38.2319C50.4214 35.5812 50.4446 35.4653 51.0027 35.371C51.1545 35.3453 51.2512 35.2941 51.2512 35.2392C51.2512 35.1654 51.0588 35.1494 50.1701 35.1494C49.2815 35.1494 49.089 35.1654 49.089 35.2392C49.089 35.2958 49.1888 35.3445 49.3593 35.371C49.7947 35.4387 49.8375 35.4621 49.9194 35.6766C50.0139 35.9243 50.0879 38.9014 49.9996 38.9014C49.9037 38.9014 47.849 37.0354 46.8715 36.0607L45.9577 35.1494H45.234C44.6469 35.1494 44.5103 35.1666 44.5103 35.2409ZM60.7266 35.2409C60.7266 35.3009 60.8272 35.3475 61.0186 35.3762C61.1792 35.4003 61.3867 35.4854 61.4796 35.5652L61.6486 35.7105L61.6694 37.1629C61.6933 38.835 61.6462 39.6261 61.5149 39.7574C61.4652 39.8071 61.2949 39.8672 61.1364 39.8909C60.9653 39.9166 60.8579 39.9633 60.8721 40.006C60.8883 40.0546 61.2386 40.0835 61.9559 40.0953C62.8342 40.1097 63.0159 40.0973 63.0159 40.023C63.0159 39.9626 62.8967 39.9154 62.6509 39.8784C62.1141 39.7976 62.1067 39.7723 62.0737 37.9023C62.0587 37.0555 62.0642 36.3165 62.0859 36.26C62.1194 36.1727 62.157 36.1841 62.3384 36.337C62.6485 36.5982 65.1004 38.8882 65.8565 39.6227C66.2122 39.9682 66.5365 40.2398 66.5772 40.2262C66.6314 40.2082 66.6496 39.6769 66.6453 38.2319C66.6376 35.5812 66.6608 35.4653 67.2189 35.371C67.3707 35.3453 67.4674 35.2941 67.4674 35.2392C67.4674 35.1654 67.275 35.1494 66.3863 35.1494C65.4977 35.1494 65.3052 35.1654 65.3052 35.2392C65.3052 35.2958 65.405 35.3445 65.5755 35.371C66.0109 35.4387 66.0537 35.4621 66.1356 35.6766C66.2301 35.9243 66.3042 38.9014 66.2158 38.9014C66.1199 38.9014 64.0652 37.0354 63.0878 36.0607L62.1739 35.1494H61.4502C60.8631 35.1494 60.7266 35.1666 60.7266 35.2409ZM77.7483 35.1918C77.6553 35.2847 77.7196 35.3256 78.0216 35.3657C78.5427 35.4348 78.5326 35.3897 78.5326 37.6437C78.5326 39.8703 78.5493 39.8002 78.0006 39.8825C77.8071 39.9115 77.7059 39.9581 77.7059 40.0181C77.7059 40.0945 77.9054 40.1096 78.9142 40.1096C79.9229 40.1096 80.1224 40.0945 80.1224 40.0181C80.1224 39.9586 80.0235 39.9118 79.8391 39.8841C79.297 39.8029 79.3275 39.9364 79.3275 37.6444C79.3275 36.0294 79.3451 35.5928 79.4137 35.5102C79.4611 35.4531 79.6399 35.3878 79.8111 35.3651C80.0123 35.3384 80.1224 35.293 80.1224 35.2366C80.1224 35.1659 79.9018 35.1494 78.9566 35.1494C78.3153 35.1494 77.7716 35.1685 77.7483 35.1918ZM89.7886 35.2388C89.7886 35.2979 89.8966 35.3431 90.1072 35.372C90.6255 35.4433 90.6154 35.3989 90.6144 37.596C90.6139 38.6462 90.5972 39.5664 90.5772 39.6408C90.5328 39.8061 90.3021 39.9189 90.0081 39.9189C89.8579 39.9189 89.7886 39.9482 89.7886 40.0118C89.7886 40.0911 90.1028 40.1075 91.9348 40.1231C93.3014 40.1348 94.1077 40.1184 94.1542 40.0779C94.2509 39.9937 94.5613 39.1166 94.5118 39.0672C94.4104 38.9657 94.2548 39.0622 94.0811 39.3341C93.8012 39.7722 93.5885 39.8551 92.7456 39.8548C91.8263 39.8545 91.5874 39.7873 91.4651 39.4947C91.3349 39.1831 91.3625 35.6712 91.4963 35.5101C91.5438 35.453 91.7226 35.3878 91.8938 35.3651C92.095 35.3384 92.2051 35.293 92.2051 35.2366C92.2051 35.1658 91.978 35.1494 90.9968 35.1494C90.001 35.1494 89.7886 35.1651 89.7886 35.2388ZM104.394 35.1918C104.301 35.2847 104.365 35.3256 104.667 35.3657C105.188 35.4348 105.178 35.3897 105.178 37.6437C105.178 39.8703 105.195 39.8002 104.646 39.8825C104.453 39.9115 104.351 39.9581 104.351 40.0181C104.351 40.0945 104.551 40.1096 105.56 40.1096C106.568 40.1096 106.768 40.0945 106.768 40.0181C106.768 39.9586 106.669 39.9118 106.485 39.8841C105.943 39.8029 105.973 39.9364 105.973 37.6444C105.973 36.0294 105.991 35.5928 106.059 35.5102C106.107 35.4531 106.285 35.3878 106.457 35.3651C106.658 35.3384 106.768 35.293 106.768 35.2366C106.768 35.1659 106.547 35.1494 105.602 35.1494C104.961 35.1494 104.417 35.1685 104.394 35.1918ZM108.994 35.2409C108.994 35.3009 109.094 35.3475 109.286 35.3762C109.446 35.4003 109.654 35.4854 109.747 35.5652L109.916 35.7105L109.936 37.1629C109.96 38.835 109.913 39.6261 109.782 39.7574C109.732 39.8071 109.562 39.8672 109.403 39.8909C109.232 39.9166 109.125 39.9633 109.139 40.006C109.155 40.0546 109.506 40.0835 110.223 40.0953C111.101 40.1097 111.283 40.0973 111.283 40.023C111.283 39.9626 111.164 39.9154 110.918 39.8784C110.381 39.7976 110.374 39.7723 110.341 37.9023C110.326 37.0555 110.331 36.3165 110.353 36.26C110.386 36.1727 110.424 36.1841 110.606 36.337C110.916 36.5982 113.367 38.8882 114.124 39.6227C114.479 39.9682 114.804 40.2398 114.844 40.2262C114.899 40.2082 114.917 39.6769 114.912 38.2319C114.905 35.5812 114.928 35.4653 115.486 35.371C115.638 35.3453 115.735 35.2941 115.735 35.2392C115.735 35.1654 115.542 35.1494 114.653 35.1494C113.765 35.1494 113.572 35.1654 113.572 35.2392C113.572 35.2958 113.672 35.3445 113.843 35.371C114.278 35.4387 114.321 35.4621 114.403 35.6766C114.497 35.9243 114.571 38.9014 114.483 38.9014C114.387 38.9014 112.332 37.0354 111.355 36.0607L110.441 35.1494H109.717C109.13 35.1494 108.994 35.1666 108.994 35.2409ZM55.7791 36.2084C55.6265 36.5115 55.0668 37.8002 55.0668 37.8485C55.0668 37.907 56.5828 37.8883 56.6192 37.8293C56.6466 37.785 55.9962 36.0614 55.9236 35.9858C55.9119 35.9737 55.8469 36.0738 55.7791 36.2084ZM84.714 36.2084C84.5613 36.5115 84.0016 37.8002 84.0016 37.8485C84.0016 37.907 85.5176 37.8883 85.554 37.8293C85.5814 37.785 84.9311 36.0614 84.8584 35.9858C84.8467 35.9737 84.7818 36.0738 84.714 36.2084ZM96.9071 39.2868C96.7235 39.4704 96.7716 39.5986 97.095 39.7877C97.2487 39.8776 97.406 40.0014 97.4447 40.0627C97.5525 40.2337 97.3733 40.4957 97.0211 40.682C96.8558 40.7694 96.7205 40.8803 96.7204 40.9284C96.7199 41.1504 97.5652 40.7597 97.8157 40.4221C97.9979 40.1766 98.0317 39.783 97.8911 39.5449C97.6764 39.1816 97.1503 39.0436 96.9071 39.2868ZM124.912 39.4082C124.624 39.529 124.553 39.8986 124.777 40.1072C124.945 40.2639 125.312 40.2792 125.514 40.1378C125.691 40.0134 125.706 39.6666 125.54 39.5161C125.394 39.384 125.093 39.3322 124.912 39.4082Z" fill="#A28C5D"/>
        </g>
    </g>
    <defs>
        <clipPath id="clip0_38_684">
            <rect width="160" height="40" fill="white" transform="translate(0 0.610352)"/>
        </clipPath>
        <clipPath id="clip1_38_684">
            <rect width="93.7997" height="40" fill="white" transform="translate(33 1)"/>
        </clipPath>
    </defs>
</svg>
