<svg width="66" height="20" viewBox="0 0 66 20" fill="none" xmlns="http://www.w3.org/2000/svg">
    <path d="M15.9646 6.00444L12.1256 0.00568544L0 18.9867H4.31694L12.1279 6.7504L15.9699 12.7723L19.7884 6.75798L27.563 18.9867H31.8856L19.7888 0L15.9646 6.00444Z" fill="#008ACD"/>
    <path d="M31.8856 18.9867L23.6213 6.01538L21.4668 9.39835L19.7846 12.0403L18.1096 9.40176L15.9642 6.02296L13.8161 9.39722L7.71124 18.9867L12.0172 18.9874L15.9699 12.7722L19.8012 18.8214L23.6304 12.8014L27.5629 18.9867H31.8856Z" fill="#565C60"/>
    <path d="M65.7002 15.3136C65.2722 14.894 64.6385 14.6453 63.9016 14.6453C62.7285 14.6453 61.7778 15.5706 61.7778 16.7092C61.7778 17.857 62.7285 18.7818 63.9016 18.7818C64.6552 18.7818 65.2806 18.5419 65.7002 18.131V15.3136ZM66 14.4312V19.0475H65.7002V18.4907C65.2465 18.8504 64.621 19.0817 63.8762 19.0817C62.5401 19.0817 61.4784 18.0112 61.4784 16.7092C61.4784 15.4163 62.5401 14.3459 63.8762 14.3459C64.5869 14.3459 65.2635 14.5854 65.7002 14.9622V14.4312H66ZM59.5771 14.7139V17.5742C59.5771 18.4479 59.9967 18.7818 60.5963 18.7818C60.9735 18.7818 61.2043 18.739 61.3582 18.6962V18.9789C61.196 19.0218 60.9219 19.0817 60.5364 19.0817C59.8345 19.0817 59.2606 18.6276 59.2606 17.7455V14.7139H58.4127V14.4312H59.2606V12.5901H59.5771V14.4312H61.3757V14.7139H59.5771ZM56.246 14.7139V17.5742C56.246 18.4479 56.6657 18.7818 57.2653 18.7818C57.6425 18.7818 57.8733 18.739 58.0272 18.6962V18.9789C57.8649 19.0218 57.5909 19.0817 57.2054 19.0817C56.5034 19.0817 55.9295 18.6276 55.9295 17.7455V14.7139H55.0816V14.4312H55.9295V12.5901H56.246V14.4312H58.0446V14.7139H56.246ZM50.6968 16.5724H54.6453C54.5855 15.4421 53.8736 14.637 52.7266 14.637C51.5702 14.637 50.7484 15.4845 50.6968 16.5724ZM54.9444 16.8464H50.6968C50.7651 17.9767 51.6733 18.7818 52.7437 18.7818C53.4373 18.7818 54.1052 18.5248 54.5165 18.0025L54.7564 18.1909C54.3281 18.7307 53.5912 19.0817 52.7266 19.0817C51.3393 19.0817 50.3803 18.0196 50.3803 16.7179C50.3803 15.4076 51.3393 14.3459 52.7266 14.3459C54.0969 14.3459 54.9444 15.339 54.9444 16.7437V16.8464ZM49.2155 14.4312H49.5324V19.0472H49.2155V14.4312ZM49.6268 13.2065C49.6268 13.352 49.515 13.4551 49.3694 13.4551C49.2239 13.4551 49.1124 13.352 49.1124 13.2065C49.1124 13.0609 49.2239 12.9582 49.3694 12.9582C49.515 12.9582 49.6268 13.0609 49.6268 13.2065ZM46.1498 15.5361C46.4151 14.8254 46.9633 14.3542 47.7172 14.3459C47.9654 14.3459 48.2395 14.4058 48.5135 14.5426L48.4362 14.8424C48.1709 14.7139 47.9139 14.6711 47.6914 14.6711C46.7749 14.6711 46.1498 15.5274 46.1498 16.6236V19.0475H45.8413V14.4312H46.1498V15.5361ZM44.5658 15.3136C44.1375 14.894 43.5041 14.6453 42.7672 14.6453C41.5941 14.6453 40.6434 15.5706 40.6434 16.7092C40.6434 17.857 41.5941 18.7818 42.7672 18.7818C43.5211 18.7818 44.1462 18.5419 44.5658 18.131V15.3136ZM44.8656 14.4312V19.0475H44.5658V18.4907C44.1121 18.8504 43.487 19.0817 42.7418 19.0817C41.4057 19.0817 40.344 18.0112 40.344 16.7092C40.344 15.4163 41.4057 14.3459 42.7418 14.3459C43.4525 14.3459 44.1291 14.5854 44.5658 14.9622V14.4312H44.8656ZM39.7618 13.0097V19.0475H39.4449V13.7462L36.8416 18.0283L34.2296 13.7462V19.0475H33.9124V13.0097H34.1269L36.8416 17.4457L39.5563 13.0097H39.7618ZM59.1548 9.07034V11.6657H57.9639V9.07034C57.9639 8.35129 57.6133 7.99992 56.9537 7.99992C56.5341 7.99992 56.1911 8.13713 55.9261 8.36835V11.6657H54.7356V7.01516H55.9261V7.30626C56.2684 7.06633 56.6967 6.92949 57.1679 6.92949C58.5294 6.92949 59.1548 7.56326 59.1548 9.07034ZM52.9461 7.01516H54.1363V11.6657H52.9461V7.01516ZM51.1904 7.99992V9.64421C51.1904 10.4751 51.3272 10.715 51.9268 10.715C52.1323 10.715 52.3123 10.6892 52.4746 10.6722V11.5626C52.4238 11.5796 52.0641 11.7339 51.3962 11.7339C50.6161 11.7339 49.9914 11.2457 49.9914 10.2696V7.99992H49.3319V7.01516H49.9914V5.20825H51.1904V7.01516H52.492V7.99992H51.1904ZM47.1569 7.66598C47.4738 7.22932 47.962 6.93783 48.6212 6.92949C48.7072 6.92949 48.8183 6.94655 48.9127 6.98104V8.27396C48.9127 8.27396 48.5871 8.20574 48.3388 8.20574C47.4825 8.20574 47.1569 8.81372 47.1569 9.42171V11.6657H45.958V7.01516H47.1569V7.66598ZM44.2114 8.40246C43.9199 8.15419 43.509 7.99992 43.0636 7.99992C42.2157 7.99992 41.6847 8.63368 41.6847 9.32733C41.6847 10.0297 42.2244 10.6635 43.0636 10.6635C43.5174 10.6635 43.9199 10.5179 44.2114 10.2696V8.40246ZM45.4016 7.01516V11.6657H44.2114V11.323C43.8259 11.5796 43.3631 11.7339 42.8495 11.7339C41.3936 11.7339 40.5373 10.5607 40.5373 9.32733C40.5373 8.08558 41.3936 6.92078 42.8495 6.92078C43.3377 6.92078 43.8172 7.07505 44.2114 7.30626V7.01516H45.4016ZM40.0836 5.62786V11.6657H38.8506V8.32552L36.9838 10.9462L35.1079 8.32552V11.6657H33.8832V5.62786H34.4828L36.9838 9.08777L39.4843 5.62786H40.0836Z" fill="#565C60"/>
    <path d="M53.5347 4.63599L52.9396 5.57336L53.5347 6.51036L54.1298 5.57336L53.5347 4.63599Z" fill="#008ACD"/>
</svg>
