<svg width="160" height="41" viewBox="0 0 160 41" fill="none" xmlns="http://www.w3.org/2000/svg">
    <g clip-path="url(#clip0_38_686)">
        <path d="M28.0933 26.4912V14.7407H30.3815L34.4323 21.0489L38.5296 14.7407H40.756V26.4912H38.6223V17.9875L34.4169 24.4968L30.2269 18.003V26.4912H28.0933Z" fill="#002C77"/>
        <path d="M45.6798 26.7696C44.7521 26.7696 44.0073 26.5146 43.4457 26.0044C42.8837 25.4942 42.603 24.8165 42.603 23.9712C42.603 23.3632 42.7524 22.8348 43.0514 22.3864C43.3502 21.938 43.7728 21.5878 44.3192 21.3351C44.8654 21.0826 45.5044 20.9563 46.2364 20.9563C47.0918 20.9563 47.8753 21.1058 48.5865 21.4046V21.3737C48.5865 20.6214 48.3879 20.0494 47.9912 19.6575C47.5944 19.2659 46.9836 19.07 46.1591 19.07C45.6745 19.07 45.1773 19.1473 44.6671 19.3019C44.1569 19.4565 43.68 19.6834 43.2369 19.9822V18.1423C43.6594 17.9054 44.1387 17.7044 44.6748 17.5393C45.2107 17.3746 45.7776 17.292 46.3756 17.292C47.6948 17.292 48.7102 17.6321 49.4214 18.3124C50.1326 18.9927 50.4882 19.9668 50.4882 21.2345V26.4914H48.6793L48.6483 25.1927C48.401 25.6773 48.0091 26.0611 47.4733 26.3446C46.9373 26.6279 46.3393 26.7696 45.6798 26.7696ZM44.5511 23.8476C44.5511 24.2908 44.6954 24.6336 44.984 24.8757C45.2725 25.118 45.6745 25.239 46.19 25.239C46.9217 25.239 47.4888 25.0304 47.8908 24.6128C48.2928 24.1953 48.5193 23.59 48.5711 22.7961C47.9835 22.5281 47.3133 22.3941 46.5611 22.3941C45.9013 22.3941 45.4015 22.5205 45.0613 22.7729C44.7212 23.0256 44.5511 23.3836 44.5511 23.8476Z" fill="#002C77"/>
        <path d="M52.6997 26.4914V17.5703H54.6942L54.7097 19.4257C54.9466 18.8176 55.3074 18.3332 55.792 17.9723C56.2763 17.6116 56.8226 17.4312 57.4309 17.4312C57.5957 17.4312 57.7915 17.4466 58.0184 17.4775C58.245 17.5085 58.4255 17.5498 58.5595 17.6013V19.5957C58.3945 19.5443 58.1781 19.4979 57.9101 19.4566C57.642 19.4155 57.3947 19.3947 57.168 19.3947C56.395 19.3947 55.8047 19.6447 55.3977 20.1446C54.9904 20.6447 54.787 21.3687 54.787 22.3168V26.4914H52.6997Z" fill="#002C77"/>
        <path d="M62.7586 26.7696C62.439 26.7696 62.0911 26.731 61.715 26.6537C61.3386 26.5764 60.9779 26.4708 60.6327 26.3367C60.2873 26.203 59.9857 26.0534 59.7283 25.8885V24.064C60.6455 24.7134 61.6246 25.038 62.6658 25.038C63.2739 25.038 63.7172 24.9633 63.9955 24.8139C64.2738 24.6645 64.413 24.4299 64.413 24.1103C64.413 23.8321 64.2866 23.6055 64.0341 23.4301C63.7815 23.255 63.2945 23.0539 62.5731 22.827C61.5628 22.5077 60.8492 22.1366 60.4317 21.7139C60.0143 21.2914 59.8055 20.7193 59.8055 19.9977C59.8055 19.1628 60.1094 18.5032 60.7177 18.0187C61.3258 17.5343 62.1556 17.292 63.207 17.292C63.609 17.292 64.0675 17.3616 64.583 17.5007C65.0983 17.6399 65.5467 17.8177 65.9281 18.0341V19.8585C65.5981 19.6111 65.1783 19.4078 64.6681 19.2478C64.1579 19.0881 63.6863 19.0081 63.2534 19.0081C62.2844 19.0081 61.8 19.3019 61.8 19.8894C61.8 20.0649 61.8438 20.2117 61.9315 20.3301C62.0189 20.4487 62.1813 20.5647 62.4185 20.678C62.6554 20.7915 62.9956 20.9203 63.4389 21.0645C64.2016 21.3119 64.8019 21.5723 65.2401 21.8453C65.6782 22.1185 65.9926 22.4304 66.1834 22.7807C66.374 23.1312 66.4695 23.5591 66.4695 24.064C66.4695 24.8888 66.1316 25.5458 65.4566 26.0353C64.7814 26.5247 63.882 26.7696 62.7586 26.7696Z" fill="#002C77"/>
        <path d="M68.2786 26.4912V14.7407H70.3659V18.8534C70.6233 18.3586 70.9944 17.9748 71.4791 17.7015C71.9635 17.4285 72.52 17.2918 73.1489 17.2918C74.1794 17.2918 74.9733 17.6191 75.5299 18.2736C76.0865 18.9283 76.3648 19.8687 76.3648 21.0952V26.4912H74.2775V21.4818C74.2775 19.9255 73.6796 19.1471 72.4841 19.1471C71.8243 19.1471 71.3064 19.3662 70.9302 19.8042C70.5538 20.2425 70.3659 20.8583 70.3659 21.6519V26.4912H68.2786Z" fill="#002C77"/>
        <path d="M78.8538 26.4912V14.7407H81.142L85.1928 21.0489L89.2901 14.7407H91.5165V26.4912H89.3828V17.9875L85.1775 24.4968L80.9874 18.003V26.4912H78.8538Z" fill="#002C77"/>
        <path d="M98.0943 26.7696C97.1357 26.7696 96.3008 26.5788 95.5895 26.1976C94.8783 25.8164 94.3294 25.2726 93.9429 24.5664C93.5564 23.8605 93.363 23.0333 93.363 22.085C93.363 21.1263 93.5615 20.289 93.9584 19.5725C94.355 18.8562 94.9066 18.2969 95.6127 17.895C96.3186 17.493 97.1357 17.292 98.0634 17.292C98.5272 17.292 98.9548 17.3487 99.3465 17.462C99.7382 17.5756 100.109 17.7094 100.46 17.864V19.7967C100.12 19.5906 99.751 19.4333 99.3544 19.3251C98.9575 19.2169 98.5787 19.1628 98.2179 19.1628C97.383 19.1628 96.7155 19.4179 96.2158 19.9281C95.7157 20.4383 95.4659 21.1316 95.4659 22.0076C95.4659 22.9251 95.7157 23.6388 96.2158 24.149C96.7155 24.6593 97.4087 24.9143 98.2952 24.9143C98.656 24.9143 99.0011 24.8707 99.3312 24.7829C99.6609 24.6954 100.037 24.5587 100.46 24.3732V26.2131C100.13 26.3781 99.7665 26.512 99.3698 26.6151C98.9728 26.7179 98.5476 26.7696 98.0943 26.7696Z" fill="#002C77"/>
        <path d="M102.686 26.4912V14.7407H104.851V24.5585H110.262V26.4912H102.686Z" fill="#002C77"/>
        <path d="M116.245 26.7696C115.276 26.7696 114.416 26.5893 113.663 26.2285C112.911 25.8679 112.318 25.3371 111.885 24.6361C111.452 23.9352 111.236 23.0745 111.236 22.0541C111.236 21.1162 111.429 20.2914 111.816 19.5802C112.202 18.869 112.736 18.31 113.416 17.9027C114.096 17.4956 114.874 17.292 115.751 17.292C116.586 17.292 117.315 17.4751 117.938 17.8408C118.562 18.2068 119.044 18.7197 119.384 19.3792C119.724 20.039 119.894 20.812 119.894 21.6983C119.894 21.8221 119.889 21.9434 119.879 22.0617C119.868 22.1804 119.853 22.3581 119.832 22.5952H113.277C113.4 23.3374 113.73 23.9171 114.266 24.3346C114.802 24.752 115.524 24.9607 116.431 24.9607C117.585 24.9607 118.647 24.6001 119.616 23.8785V25.7183C119.152 26.0379 118.624 26.2931 118.031 26.4837C117.438 26.6743 116.843 26.7696 116.245 26.7696ZM115.658 18.8999C114.998 18.8999 114.462 19.1036 114.05 19.5106C113.638 19.918 113.38 20.4874 113.277 21.2191H117.915C117.915 21.0853 117.905 20.9667 117.884 20.8635C117.781 20.2245 117.539 19.7375 117.158 19.4024C116.776 19.0675 116.276 18.8999 115.658 18.8999Z" fill="#002C77"/>
        <path d="M121.765 26.4914V17.5702H123.775L123.79 18.9927C124.038 18.4569 124.411 18.0394 124.911 17.7403C125.411 17.4415 125.986 17.292 126.635 17.292C127.666 17.292 128.46 17.6193 129.016 18.2738C129.573 18.9284 129.851 19.8689 129.851 21.0954V26.4914H127.764V21.482C127.764 19.9256 127.166 19.1473 125.97 19.1473C125.311 19.1473 124.793 19.3664 124.416 19.8044C124.04 20.2426 123.852 20.8585 123.852 21.6521V26.4914H121.765Z" fill="#002C77"/>
        <path d="M132.062 26.4914V17.5702H134.072L134.087 18.9927C134.335 18.4569 134.708 18.0394 135.208 17.7403C135.708 17.4415 136.283 17.292 136.932 17.292C137.963 17.292 138.757 17.6193 139.313 18.2738C139.87 18.9284 140.148 19.8689 140.148 21.0954V26.4914H138.061V21.482C138.061 19.9256 137.463 19.1473 136.267 19.1473C135.608 19.1473 135.09 19.3664 134.713 19.8044C134.337 20.2426 134.149 20.8585 134.149 21.6521V26.4914H132.062Z" fill="#002C77"/>
        <path d="M144.894 26.7696C143.967 26.7696 143.222 26.5146 142.66 26.0044C142.098 25.4942 141.818 24.8165 141.818 23.9712C141.818 23.3632 141.967 22.8348 142.266 22.3864C142.565 21.938 142.987 21.5878 143.534 21.3351C144.08 21.0826 144.719 20.9563 145.451 20.9563C146.307 20.9563 147.09 21.1058 147.801 21.4046V21.3737C147.801 20.6214 147.603 20.0494 147.206 19.6575C146.809 19.2659 146.198 19.07 145.374 19.07C144.889 19.07 144.392 19.1473 143.882 19.3019C143.371 19.4565 142.895 19.6834 142.452 19.9822V18.1423C142.874 17.9054 143.354 17.7044 143.89 17.5393C144.425 17.3746 144.992 17.292 145.59 17.292C146.91 17.292 147.925 17.6321 148.636 18.3124C149.347 18.9927 149.703 19.9668 149.703 21.2345V26.4914H147.894L147.863 25.1927C147.616 25.6773 147.224 26.0611 146.688 26.3446C146.152 26.6279 145.554 26.7696 144.894 26.7696ZM143.766 23.8476C143.766 24.2908 143.91 24.6336 144.199 24.8757C144.487 25.118 144.889 25.239 145.405 25.239C146.136 25.239 146.703 25.0304 147.105 24.6128C147.507 24.1953 147.734 23.59 147.786 22.7961C147.198 22.5281 146.528 22.3941 145.776 22.3941C145.116 22.3941 144.616 22.5205 144.276 22.7729C143.936 23.0256 143.766 23.3836 143.766 23.8476Z" fill="#002C77"/>
        <path d="M151.914 26.4914V17.5702H153.924L153.939 18.9927C154.186 18.4569 154.56 18.0394 155.06 17.7403C155.56 17.4415 156.135 17.292 156.784 17.292C157.815 17.292 158.608 17.6193 159.165 18.2738C159.722 18.9284 160 19.8689 160 21.0954V26.4914H157.913V21.482C157.913 19.9256 157.315 19.1473 156.119 19.1473C155.46 19.1473 154.941 19.3664 154.565 19.8044C154.189 20.2426 154.001 20.8585 154.001 21.6521V26.4914H151.914Z" fill="#002C77"/>
        <path d="M21.616 16.8496L16.9176 14.143C16.5867 13.9523 16.0452 13.9523 15.7144 14.143L2.75269 21.6098L9.92536 16.1145L6.503 14.143C6.1721 13.9523 5.63065 13.9523 5.29975 14.143L0.601386 16.8496C0.270495 17.0402 -0.00023525 17.5086 1.53399e-07 17.89V23.3009C-0.000235232 23.6832 0.270495 24.1516 0.601386 24.3422L5.29975 27.0488C5.63065 27.2394 6.1721 27.2394 6.503 27.0488L19.4647 19.582L12.292 25.0773L15.7144 27.0488C16.0452 27.2394 16.5867 27.2394 16.9176 27.0488L21.616 24.3422C21.9469 24.1516 22.2176 23.6832 22.2176 23.3013V17.8904C22.2176 17.5086 21.9469 17.0402 21.616 16.8496Z" fill="#002C77"/>
    </g>
    <defs>
        <clipPath id="clip0_38_686">
            <rect width="160" height="13.1918" fill="white" transform="translate(0 14)"/>
        </clipPath>
    </defs>
</svg>
