<?xml version="1.0" encoding="UTF-8"?>
<svg width="512px" height="512px" viewBox="0 0 512 512" version="1.1" xmlns="http://www.w3.org/2000/svg" xmlns:xlink="http://www.w3.org/1999/xlink">
    <!-- Generator: Sketch 48.1 (47250) - http://www.bohemiancoding.com/sketch -->
    <title>#MMM</title>
    <desc>Created with Sketch.</desc>
    <defs></defs>
    <g id="Компании-BIG" stroke="none" stroke-width="1" fill="none" fill-rule="evenodd">
        <g id="#MMM" fill="#CC2132" fill-rule="nonzero">
            <g id="3m" transform="translate(-4.000000, 118.000000)">
                <path d="M406.405392,5.33387712 L365.867565,144.238387 L329.605392,5.33387712 L218.670261,5.33387712 L218.670261,45.8567889 C202.667565,23.4620517 183.467565,0 121.602696,0 C59.7378265,0 8.53513058,36.2590444 8.53513058,92.7781971 L84.2702612,92.7781971 C84.8040438,73.582708 99.2026959,62.917649 116.270261,62.917649 C133.337826,62.917649 147.202696,67.1842117 147.202696,81.0485189 C147.202696,94.912826 137.068913,103.443256 130.668913,103.443256 L90.6675653,103.443256 L90.6675653,152.499293 L118.4,152.499293 C136.535131,153.566608 141.867565,167.42822 141.867565,177.028659 C141.867565,186.626404 138.664869,201.55533 113.067565,201.55533 C87.4648694,201.55533 75.7324347,180.227908 76.8,158.900485 L0,158.900485 C0,204.757274 26.6675653,263.40836 113.067565,263.40836 C199.295029,263.40836 209.294019,223.847648 218.875147,221.570172 L218.931761,254.87793 L294.666891,254.87793 L294.666891,120.506811 L329.602696,254.875235 L397.867565,254.875235 L435.2,120.506811 L435.2,254.875235 L512,254.875235 L512,5.33387712 L406.405392,5.33387712 Z M218.670261,144.499825 C215.243808,136.513833 202.182308,127.255689 195.736479,124.770679 C205.870261,122.105088 215.200674,112.507343 218.670261,101.578151 L218.670261,144.499825 Z" id="Shape"></path>
            </g>
        </g>
    </g>
</svg>