<svg width="91" height="40" viewBox="0 0 91 40" fill="none" xmlns="http://www.w3.org/2000/svg">
<path d="M15.4725 39.3235H15.2735L15.2138 38.8129L15.2536 38.4217L15.5189 37.6723V37.1352L15.6648 37.0556V35.8687L15.5189 35.8288L15.3663 35.2917L15.3067 34.9601V34.8076L15.1939 34.6816V34.6418V34.5424L15.1343 34.4164L15.0547 34.3236L14.942 34.2307L14.8226 34.1312L14.7364 34.0318L14.6369 33.7201L14.5905 33.5278V33.4151L14.8955 33.0105L15.0282 32.7851L15.068 32.6657V32.5331L14.9817 32.4867L14.942 32.4469V32.3806V32.2678L14.7894 31.6909V31.1538L14.6966 30.9416V30.8023V30.7294V30.6564L14.8359 30.431L14.8955 30.2917V30.2254V30.1524L14.8491 30.0596L14.7762 29.9403L14.7298 29.8076V29.7148V29.6352L14.8491 29.2174V28.9522V28.8262V28.7135L14.7496 28.4482L14.5971 28.4084L14.5507 27.9111L14.4977 26.8368L14.564 26.2201L14.6966 25.7559L14.6303 25.7161L14.5839 25.6631L14.5242 25.5304L14.4778 25.3912L14.3982 25.2586L14.0666 24.8474L13.9473 24.5689L13.9141 24.4031V24.2241L14.1993 23.6869L14.4114 23.183L14.3982 23.0835V23.0039V22.6922V22.6127V22.5331L14.4645 22.4469L14.5706 22.3607L14.6701 22.2745L14.743 22.1883L14.8425 21.1538H14.942L14.9884 20.2718L15.3266 19.6087L15.4061 19.423L15.4592 19.2307V19.0318L15.4194 18.8328L15.0215 17.5066V17.1617L15.0613 17.1153L14.9552 17.0424L14.8557 16.9628L14.816 16.9164V16.8633V16.7241L14.8491 16.5384L14.9221 16.2135L14.8823 15.9349V15.7625V15.6034L15.0812 14.4495L15.1807 13.9721V13.7201V13.6007L15.1409 13.4946L15.0414 13.3753L14.9022 13.2559L14.7563 13.1432L14.6435 13.0371L14.5971 12.9177V12.7519L14.6369 12.3474L14.7563 11.6843V11.3726V11.24V11.1869L14.7165 11.1471L14.7695 11.1074V11.0676V11.0212L14.5374 10.358L14.3982 9.82089V9.61532L14.4446 9.40975L14.6303 8.84609L14.69 8.52778V8.39516L14.6502 8.2957L14.5573 8.17632L14.4446 8.08349L14.186 7.9376L14.06 7.85803L13.9539 7.76518L13.8809 7.64582V7.48668L13.8412 7.40047V7.28111V7.02912H14.1396L14.1727 6.92965V6.79702V6.75059V6.61134V6.2201L14.239 5.44423L14.0534 5.36466L13.987 5.30498L13.9406 5.21213L14.1926 5.17898V5.09277V4.98005L13.8611 4.68827L13.5892 4.30364L13.2841 3.95882L13.0719 3.85272L12.8332 3.79304H12.7868H12.6873V3.87261L12.6475 3.98535L11.7921 3.70683L11.5998 3.67368H11.381L10.804 3.79968L10.6051 3.85936L10.4857 3.9124L10.4459 3.95219V4.01186V4.21743L10.5255 4.35007L10.6051 4.55564L10.6913 4.83416L10.5454 4.96677L10.4327 5.07951L10.3929 5.14583V5.23202V5.48401L10.4327 5.54369V5.62329L10.4724 5.80896L10.5056 5.99464L10.552 6.14053L10.373 6.17367L10.2802 6.23335L10.2138 6.29967L10.1077 6.36599L9.80932 6.40577L9.4446 6.72406L9.2125 7.13522L9.14619 7.62593L9.18599 8.11664V8.60073L9.07989 9.05166H9.17936H9.28546H9.51092H9.62364L9.66343 9.13123V9.23733V9.46943L9.60375 9.58879V9.72804V9.86731L9.56396 9.99993L9.28546 10.4177L9.01357 10.8421L8.90083 11.4124L8.86768 11.9164L8.92736 11.9761L9.02021 12.0357L9.11304 12.1021L9.17272 12.1816V12.2877V12.3938V12.606V12.805V12.984H9.11304H9.07325V13.0437V13.1034V13.236V13.3952V13.488V13.5941L9.37167 14.0583L9.41807 14.2174V14.5357L9.45786 14.7082L10.0083 15.9747L10.3067 16.3328L10.3863 16.4389L10.4393 16.545V16.6644V16.7904L10.1873 17.2678L9.88891 17.7121L9.82921 17.8647L9.79606 18.0105L9.75628 18.1498L9.6966 18.2891L9.52418 18.5212L9.4446 18.6538L9.39156 18.8262L9.53081 18.9323L9.65681 19.0583L9.74964 19.2108L9.78942 19.3965L9.63028 20.1193L9.58386 20.5769V20.736V20.8156L9.70985 20.9482L9.87563 21.061L10.0282 21.1803L10.0878 21.2466L10.1276 21.3196V21.4323V21.5848L10.0414 21.9628L9.82921 22.5795L9.5706 23.4814L9.32525 24.423L9.1064 25.0862L8.97379 25.7891L9.04672 26.3262L9.22578 26.8965L9.27882 27.4005L9.40482 27.6723L9.4645 27.8315V27.9774L9.16608 28.7864V28.9389L9.2125 29.1246L9.25229 29.3169V29.4761L9.0003 30.0928V30.179V30.2652L9.06 30.4243L9.14619 30.5702L9.20589 30.7095V30.8554V31.0211V31.1869V31.3262L9.00694 32.7121L9.07989 33.3753L9.20589 34.0981V34.5556L9.50428 35.1723V35.2983V35.4177L9.45124 35.6233L9.35839 35.8023L9.27882 35.9482V36.0278V36.0941L9.3385 36.2002L9.42471 36.2997L9.48439 36.4124H9.28546L9.15946 36.1869L9.0401 35.9482V35.8156V35.6962L9.09978 35.484L9.15282 35.2718V35.1525L9.11304 35.0265L9.01357 34.8872L8.86768 34.7281L8.60905 34.37L8.40348 33.5808L8.31066 32.7387L8.05866 31.061L7.87299 30.2519L7.66078 29.4429L7.2629 28.5609V28.4416V28.3355L7.36239 28.1564L7.48836 27.9973L7.53479 27.9177V27.8381V27.7718L7.495 27.679L7.35575 27.4403L7.09712 26.9893V26.8368V26.6909L7.17669 26.4124L7.2629 26.1538V26.0344V25.9151L7.18997 25.7692L7.10376 25.736L6.83187 25.5172L6.57326 25.2851L6.48041 25.1392L6.43399 24.9668L6.55337 24.8806L6.64619 24.7811L6.77883 24.5357L6.9844 23.9986L7.24301 23.5808L7.48174 23.1498L7.52153 22.9774V22.7652V22.2811L7.38228 21.4655L7.43532 20.431L6.88493 20.0861L6.99765 19.6021L7.1369 19.1644V18.6737L7.09712 18.1299L7.14354 17.6723L6.74566 16.0609L6.24831 14.4893L5.87034 13.8262L5.49897 13.1962V13.0901V12.9708L5.55203 12.7121L5.71782 12.2811L5.87034 11.167L6.42073 9.55564V9.46943V9.39648L6.33452 9.26386L6.26821 9.12461V9.0384V8.93894L6.3942 8.55431V8.40178V8.26253L6.15548 7.5994V7.29437L6.06264 7.18163L5.94328 7.08216L5.65814 6.90312L5.39951 6.71081L5.30668 6.59145L5.26026 6.4522L5.35308 6.3461L5.43929 6.20021L5.55867 5.91504L5.48572 5.83547L5.43268 5.74264L5.34647 5.53708L5.26689 5.32487L5.15415 5.14583L4.70323 4.84078L4.10642 4.64848H3.60907L2.21649 4.27713H1.42736L0.671387 4.46943V4.38985L1.10905 4.05165L1.61968 3.77315L2.28281 3.73336L2.38891 3.68694L2.48838 3.62062L2.68067 3.50126L2.94594 3.44822H3.0653L3.17802 3.4018L3.21119 3.36201V3.30895V3.25591V3.21612L3.30401 3.1697H3.41012H3.51622L3.60907 3.12327L4.61702 3.18295L5.1409 3.12991L5.36636 3.07685L5.55203 3.00391L5.94328 2.73203L6.34778 2.46678L6.64619 2.42699L6.72577 2.36732L6.78545 2.301L6.87829 2.13522L6.92472 2.05564L7.10376 1.86333L7.18997 1.81029L7.30932 1.77712L7.39553 1.90975L7.45521 2.04901L7.51489 2.18826L7.6011 2.31425L7.98571 2.59278L8.46316 2.73203L9.74302 2.77181L9.9751 3.03706L10.121 3.14317L10.2934 3.23601L10.3531 3.15644L10.4526 3.06359L10.7377 2.87792L11.0892 2.72539L11.2682 2.67899H11.4472V2.60603V2.56625V2.52646H11.5998V2.41372L11.7722 2.33415L11.8916 2.24132L12.0242 2.15511L12.243 2.10205L12.7006 2.19489H13.2841L13.6091 1.81029L13.7351 1.7307L13.8876 1.67102L14.0666 1.63123H14.2854L14.4579 1.57155H14.6634L15.0746 1.50523L15.552 1.29967L16.0759 1.12727V1.01452L16.2019 0.908421L16.2947 0.822211L16.3478 0.789062H16.4274H16.6794L16.865 1.19356L16.9711 1.3063L17.0971 1.37924L17.8796 1.63787L18.43 2.14185L18.9605 2.34078L19.0799 2.40046L19.1793 2.48004L19.2457 2.58614V2.71877L19.1462 2.78509L19.0865 2.88456V3.00391V3.14317L19.186 3.19623L19.2324 3.23601H19.2788H19.3849L19.9154 3.31559L20.0414 3.34873L20.1475 3.4018L20.2337 3.48801L20.2801 3.62062L20.174 3.66041L20.1077 3.71347L20.0547 3.76651L19.9751 3.81293L19.7231 3.86598L19.4711 3.92565L19.3451 4.0185L19.2258 4.15775L19.0268 4.42964L18.8279 4.50921V5.08613L18.5162 5.42433L18.178 5.73601L18.1449 5.80232V5.86864V6.01453V6.15378V6.21346L18.1051 6.27314L17.9658 6.37261L17.8929 6.43231L17.8531 6.4986V6.64449L17.9128 6.88985L18.0388 7.27447L18.0984 7.40709V7.53972V7.67235L18.052 7.79835L17.9459 8.04371L17.9128 8.16306V8.27581L18.1515 8.68031L18.4101 8.97208V9.02513V9.09144V9.15776L18.304 9.52911L18.1648 9.91374L18.125 10.0861V10.2254L18.4234 11.0742L18.5096 11.5119V11.7241L18.5494 11.9164L18.6091 12.2214V12.3474V12.4535L18.5162 12.6326L18.377 12.7784L18.0852 13.0371L17.9791 13.1896V13.2824V13.3819L18.0255 13.4217L18.0653 13.4814L18.1051 13.6604L18.0719 14.1578L17.7138 15.1259V15.1856V15.2652L17.7669 15.4442L17.926 15.8554V16.24L18.3571 17.3607L18.5427 18.0238L18.5825 18.2625V18.3421V18.3885L18.4831 19.0517L18.3703 19.1976L18.2311 19.3368L17.9327 19.6286L17.8332 19.7811L17.7536 19.9535L17.5878 20.2851L17.5481 20.3647V20.4509V20.8222V21.0145L17.4685 21.2002L17.3756 21.3328L17.2828 21.4456L17.1966 21.5848L17.1502 22.0092L16.7523 22.6724L16.7125 22.858V23.2028V23.2824L16.6794 23.362V23.435V23.5079L16.7324 23.6405L16.7855 23.7466V23.7798L16.9313 23.8129L16.9711 23.9058V24.0052L16.9313 24.2108L16.8451 24.3898L16.7722 24.5026L16.8186 24.622L16.7589 24.7214V24.7944V24.8474V24.8938L16.8385 24.9867L16.9247 25.1259V25.232V25.3381L16.8717 25.5371L16.7921 25.7161L16.739 25.862L16.7921 25.988L16.8252 26.0875V26.1671L16.7722 26.7042L16.8783 27.1684V27.3076V27.4203L16.8385 27.5132L16.7788 27.5861L16.6329 27.7188L16.5733 27.7851L16.5268 27.8647V27.984L16.56 28.1432L16.6263 28.4814L16.5799 29.9403L16.4605 30.4243L16.3876 30.683V30.7758V30.8288L16.487 30.8819H16.5534H16.5931L16.6396 31.3859L16.9711 31.8169L17.2894 32.3474V32.4734V32.5994L17.1833 32.8381L16.938 33.236L16.991 34.1511L16.739 34.6949V34.8209L16.7722 35.0729V35.5371H16.7258H16.686L16.6462 35.6233V35.7227V35.9548V36.3461V36.5384L16.5998 37.6126H16.5268H16.4738L16.4207 37.7718V37.931V38.0835L16.3876 38.1564L16.3345 38.2228L15.9565 38.6538L15.8305 38.9124L15.7974 39.0715L15.4725 39.3235ZM23.5958 6.01453H23.4499V5.84211L22.8332 5.67633L22.3027 5.4177L22.1634 5.50391L21.9645 5.57686L21.5069 5.65643L20.9632 5.46412L20.804 5.29834L20.7178 5.21213L20.6117 5.15909L20.4327 5.1193H20.247H19.8558H19.4977H19.3451L19.2191 5.05298L19.3982 4.95352L19.5573 4.82088L19.8292 4.50921L20.1011 4.23071L20.247 4.13786L20.4194 4.09144H20.499H20.9764H21.1687L21.2947 4.0384L21.4008 3.97208L21.5931 3.82619L21.8054 3.70019L21.9446 3.65379H22.117L22.2165 3.73336L22.316 3.65379L22.442 3.60736L22.568 3.56094L22.6741 3.50126L22.9459 3.05034L23.125 2.53972L23.6621 2.44025L23.8544 2.35404L24.0136 2.24794L24.617 1.77048L24.7032 2.04237L24.7629 2.14185L24.8292 2.21479L24.9817 2.31425L25.1608 2.36068H25.5785L26.0162 2.44025L26.0825 2.48004L26.1555 2.55299L26.3014 2.73867L26.4406 2.9376L26.5666 3.08349L26.6661 3.1498L26.7523 3.18295H26.8916H26.938L26.9778 3.24263V3.35537V3.52779L26.8916 3.6339L26.8385 3.77315L26.7788 4.06493L27.0839 4.17103L27.2165 4.21082H27.3226L27.4419 4.57553L27.495 4.75457V4.94026V5.00656V5.07288L27.4022 5.21213L27.3027 5.35802L27.2364 5.51054L27.5746 5.78907L27.7205 5.96147V6.02779L27.0574 7.10869L27.1037 7.71876L26.9313 7.82486L26.7523 7.97075L26.5998 8.13653L26.5069 8.30232V8.49463L26.4473 8.58084L26.5069 8.7002V8.73998V8.77977L26.434 8.86598L26.308 9.00523V9.15776L26.2616 9.29039L26.1091 9.53575V9.61532V9.69489L26.1555 9.80763V9.93363L26.1223 10.0662L26.003 10.305L25.7311 10.683L25.499 11.0742V11.1737V11.2798L25.552 11.5251L25.6515 12.1153L25.552 12.0822V12.1153L25.6515 12.9243L25.5918 13.0437L25.5123 13.1564L25.4459 13.2891L25.4061 13.4615L25.8438 13.7002L26.0162 13.866L26.0759 13.9655V14.0782L26.0229 14.1379L25.9764 14.2241L25.9035 14.4297L25.8703 14.6418V14.801L25.5388 15.7625V16.3196L25.6979 16.8434L26.3611 17.7718L26.6263 18.3421L26.6661 18.6339V18.7798L26.6263 18.9257L26.5467 19.0185L26.4738 19.118V19.1776V19.2373L26.5467 19.3633L26.613 19.496V19.5689V19.6551L26.1091 20.809L25.6714 21.9562V22.0424V22.1087V22.1617L25.7045 22.2082L25.7908 22.2745L25.8571 22.3408L25.7576 22.7254L25.8438 22.8514L25.9565 22.984L26.0759 23.1233L26.1621 23.2692L26.2218 23.8063L26.0759 24.2904L25.6117 25.0331L25.552 25.1856V25.4774V25.61H25.6382V25.6631V25.6962V25.7426L25.6913 25.8089L25.7642 25.8753L25.8372 25.9416L25.8902 26.0079L25.9698 26.5052V26.9296V27.0623V27.1485L25.877 27.3341L25.6847 27.6326V27.679H25.7775L25.7244 27.7254L25.6648 27.7851L25.7642 27.8249V27.8845V27.9243L25.678 27.9774H25.7377H25.7709V28.0371L25.6714 27.9973V28.0371L25.7311 28.0835V28.1233V28.2692H25.6714V28.2227V28.3421L25.7045 28.415V28.5145V29.2241L25.8571 29.801V29.927L25.8173 30.0464L25.678 30.2784L25.3796 30.6896L25.1475 31.2201L24.9287 31.7705L24.4313 32.6525L24.3982 32.7718V32.9111V33.2227L24.5242 33.7665L24.1794 34.2705H24.0799L24.0136 33.6074L23.9605 33.2758V33.1365V33.0172L23.8279 32.8182L23.7815 32.7188V32.6259L23.934 31.5915V31.2068L24.0401 30.8288V30.61V30.3978L23.7152 29.6485L23.5892 29.2506L23.5428 28.7068L23.735 28.6206L23.8876 28.5145L23.9937 28.3819L24.0666 28.236L24.113 28.0636V27.8713V27.4071L24.1794 27.3076L24.2191 27.2081V27.1087V27.0092L24.1727 26.8169L24.0931 26.6312L23.9207 26.2599L23.8743 26.0808V25.9946V25.9084L24.3717 25.0994V24.1777L24.4711 23.7333V23.3288L24.5706 23.3686L24.5043 23.2095L24.4579 23.0238V22.5994L24.5507 21.8368V21.2997L24.6038 21.2135L24.6767 21.114L24.7231 20.988V20.9151V20.8355L24.6502 20.7625L24.5706 20.6763L24.5242 19.6021L24.1064 18.74L24.0003 18.2758L24.1263 17.7188L24.0732 17.7586V17.7784L24.2722 17.1153L24.4181 16.2732L24.2987 16.1936L24.2125 16.1074L24.0998 15.9151L23.9141 15.4376L23.8279 15.3249L23.7085 15.2055L23.5958 15.0861L23.5096 14.9734V14.549L23.3571 14.2241L23.2974 14.0318V13.9389V13.8527L23.3372 13.7997L23.3969 13.74L23.4565 13.6803L23.4963 13.6206L23.4499 12.9575L23.5825 12.6392L23.629 12.4403V12.3342V12.2214L23.5693 12.1087L23.4897 12.0026L23.304 11.8103L23.1316 11.6113L23.0719 11.4986L23.0388 11.3726L23.6555 10.7891L24.1329 10.1259L23.9605 10.0464L23.8213 9.94025L23.7284 9.801L23.6886 9.62196L23.7549 9.48269L23.8544 9.22408L23.9473 8.96545L23.9804 8.81956L23.8876 8.49463L23.8412 8.31559V8.16306L23.9406 7.62593V7.45351V7.27447V7.10205V6.96944L23.987 6.85006L24.0666 6.74396L24.1396 6.63787L24.1926 6.50524L24.0069 6.43231L23.8809 6.3461L23.8412 6.29303V6.2201V6.00125" fill="#060000"/>
<path d="M15.4725 40H15.2736L14.6038 39.3966L14.5441 38.8859V38.7401L14.5839 38.3488L14.6237 38.1963L14.8492 37.5531V37.1286L14.9951 36.8833V36.134L14.8757 36.0146L14.7033 35.4045L14.6436 35.0199L14.5839 34.9337L14.5441 34.7812L14.3784 34.6419L14.2988 34.5557L14.2126 34.4562L14.0866 34.2308L13.9672 33.8594L13.9009 33.5279V33.3687L13.9075 33.3289L14.0402 32.9973L14.3121 32.6326L14.2922 32.5862L14.2723 32.5199L14.2524 32.3541L14.1197 31.8435L14.0999 31.6777V31.2798L14.0667 31.1936L14.0269 31.0676L13.9938 30.9284L13.9805 30.7692V30.6963L14.0203 30.4775L14.0999 30.2851L14.1463 30.2122L14.1131 30.1459L14.0733 30.0133L14.0335 29.8143V29.7414L14.0534 29.5623L14.0733 29.4629L14.1728 29.0981L14.1861 28.9523L14.1794 28.9191L14.0999 28.7069L13.9075 28.4748L13.8545 27.9443L13.8014 26.8767V26.7639L13.8744 26.1472L13.8943 26.0411L13.9341 25.9085L13.8213 25.6432L13.5163 25.2719L13.4235 25.1194L13.3041 24.8408L13.2643 24.7149L13.2312 24.5491L13.2179 24.443L13.2046 24.2573L13.2842 23.9058L13.5561 23.3952L13.7617 22.9178V22.878V22.7321L13.7816 22.5265L13.8213 22.3873L13.8545 22.3143L13.954 22.1419L14.0269 22.0557L14.1794 21.9164L14.2524 21.1273L14.3585 21.0279L14.3983 20.2653L14.4778 19.9934L14.8028 19.37L14.8558 19.244L14.8823 19.1247L14.8691 19.0451L14.4778 17.7785L14.4513 17.5398L14.4248 17.5199L14.2988 17.3873L14.1728 17.195L14.0999 16.9098L14.0932 16.7639L14.1065 16.6247L14.1463 16.4125L14.1927 16.2069L14.1463 15.8621L14.1396 15.7228L14.1595 15.504L14.3651 14.3302L14.4513 13.9058L14.4579 13.8263L14.2192 13.6406L14.1065 13.5345L13.9473 13.2891L13.9009 13.1698L13.8611 12.9841L13.8412 12.8183L13.8479 12.6923L13.8943 12.2414L14.0004 11.6379L14.007 11.4589L13.9871 11.4058H13.9938L13.9009 11.1804V11.1472L13.9606 10.9151L13.8081 10.4642L13.7749 10.2984L13.7418 9.90053V9.7878L13.7749 9.48939L13.8412 9.21751L14.0136 8.70027L14.0269 8.62732L13.7351 8.46154L13.6357 8.38859L13.5362 8.29576L13.4036 8.14324L13.3306 8.01724L13.251 7.80504L13.2245 7.70557L13.1648 7.50663L13.1516 7.2878V7.03581L13.4434 6.75066L13.4367 6.72414L13.4235 6.59151L13.4367 6.14722L13.4699 5.78912L13.3306 5.61671L13.2842 5.52387L13.4367 5.22546L13.3969 5.19231L13.2975 5.07958L13.0455 4.72812L12.8134 4.47613L12.7471 4.46286L12.4221 4.62202L11.6131 4.35676L11.5203 4.33687H11.4341L11.2152 4.38329L11.2882 4.61538L11.0959 5.32493L11.0097 5.40451L11.0229 5.45756L11.1025 5.80902L11.1357 5.91512L10.6847 6.69761L10.6914 6.71088L10.6715 6.73077V6.7374L10.6516 6.75729L10.6251 6.79045L10.5919 6.79708L10.519 6.8634L10.4129 6.92971L10.1277 7.02918L10.0349 7.04244L9.9155 7.14854L9.80277 7.34748L9.76298 7.63926L9.79614 8.05703L9.82266 8.48806L10.2073 8.7931L10.2471 8.87268L10.3067 9.07162L10.32 9.18435L10.3266 9.29045L10.32 9.52255L10.2537 9.81432L10.2272 9.87401L10.2139 10L10.1874 10.1127L10.1476 10.2454L10.0614 10.4178L9.59057 11.1472L9.51099 11.5517L9.49773 11.6711L9.57731 11.744L9.63699 11.8236L9.74972 12.0557L9.77624 12.1618L9.80277 12.2878L9.81603 12.3939V12.5066L9.76961 12.8979L9.77624 13.0172L9.70993 13.0769V13.2493L9.69004 13.4085L9.9155 13.7533L9.99508 13.9324L10.0481 14.0915L10.068 14.2573L10.0813 14.5093L10.0879 14.5557L10.5786 15.683L10.9168 16.0942L10.9699 16.187L11.0296 16.2931L11.0826 16.4523L11.1158 16.565L11.129 16.7838L11.1158 16.9098L11.0428 17.1618L10.7577 17.7056L10.4924 18.0902L10.4792 18.13L10.4129 18.3753L10.3731 18.4881L10.3134 18.6273L10.2338 18.7533L10.2471 18.7732L10.3333 18.9191L10.4195 19.1313L10.4593 19.3236V19.6088L10.3067 20.2918L10.2736 20.5703L10.446 20.7029L10.5985 20.8422L10.6914 20.9748L10.7378 21.0477L10.8174 21.2931L10.8306 21.4058L10.8373 21.5517L10.8041 21.8037L10.698 22.248L10.4924 22.8515L10.2404 23.7334L9.98845 24.7082L9.78951 25.3117L9.68341 25.8554L9.72983 26.2334L9.89561 26.7507L9.92213 26.8833L9.96192 27.2679L10.0614 27.4867L10.1211 27.6459L10.1609 27.8183L10.1741 27.9642L10.1343 28.2626L9.88898 28.9191L9.95529 29.2109L9.97518 29.3568V29.5159L9.92876 29.7812L9.74309 30.2255L9.80277 30.3382L9.86245 30.4775L9.92213 30.6764L9.9354 30.8223L9.94203 30.935L9.92213 31.2401V31.3395L9.9155 31.4655L9.72983 32.7653L9.78951 33.3554L9.9155 34.0584L9.92213 34.1777V34.4828L10.1542 34.9536L10.2139 35.1127L10.2338 35.2387L10.2471 35.378V35.4973L10.2272 35.6698L10.1675 35.8753L10.0879 36.061L10.141 36.1538L9.54415 37.1552H9.34521L8.75503 36.8103L8.4964 36.3329L8.43672 36.1472L8.4102 36.0146L8.39693 35.8488L8.40357 35.7361L8.43009 35.5769L8.4964 35.3515L8.35715 35.1989L8.09853 34.8409L7.99242 34.6154L7.77359 33.7268L7.68075 32.9045L7.4354 31.2666L7.26298 30.4973L7.06404 29.7546L6.68606 28.9191L6.63301 28.7401L6.61975 28.6207V28.4151L6.63964 28.309L6.70595 28.0968L6.83195 27.8714L6.5667 27.4005L6.49375 27.1883L6.46059 27.0358L6.44733 26.8767L6.46059 26.7308L6.48712 26.5783L6.60648 26.1737L6.40091 26.008L6.14229 25.7692L6.02293 25.63L5.93672 25.4907L5.85715 25.3117L5.8041 25.1393L6.06935 24.3966L6.11577 24.3634L6.18208 24.2374L6.37439 23.7533L6.43407 23.634L6.68606 23.2361L6.8651 22.9045L6.87174 22.8714L6.885 22.7454L6.8651 22.3408L6.73911 21.5716L6.72585 21.4257L6.759 20.7825L6.5468 20.6499L6.24839 19.9271L6.37439 19.3833L6.47386 19.0584L6.46723 18.6936L6.42744 18.1631L6.43407 18.0438L6.46723 17.6989L6.1025 16.2202L5.63168 14.7414L4.92876 13.5411L4.85582 13.3554L4.8293 13.2493L4.80277 13.0902L4.8094 12.9642L4.82266 12.8249L4.90887 12.4668L5.04813 12.1088L5.18739 11.0743L5.22054 10.9416L5.698 9.54244L5.63831 9.42971L5.56537 9.17772L5.55874 9.09814L5.572 8.87931L5.61179 8.72679L5.71789 8.38196L5.51895 7.8183L5.47916 7.57294L5.26033 7.42706L4.99508 7.23475L4.86908 7.10875L4.77624 6.99602L4.67678 6.80371L4.62373 6.66446L4.74972 5.9947L4.78951 5.94164L4.66351 5.61008L4.41152 5.43767L4.00701 5.30504H3.61577L3.44335 5.28515L2.13036 4.93369L1.51365 4.92706L0.843884 5.09284L0.00170898 4.43634V4.3634L0.26033 3.82626L0.697996 3.48806L0.790834 3.42838L1.30144 3.1565L1.58659 3.07029L2.15688 3.0305L2.36908 2.90451L2.59455 2.81167L2.76696 2.77851L3.02558 2.55968L3.11179 2.51326L3.22452 2.47347L3.41683 2.40716L3.76166 2.34085L4.71656 2.40053L5.13433 2.36074L5.27359 2.32759L5.33991 2.30106L5.68473 2.06233L6.08924 1.79708L6.40754 1.68435L6.46059 1.60477L6.59322 1.43236L6.72585 1.313L6.81205 1.25995L6.99773 1.17374L7.11709 1.13395L7.86643 1.41247L7.95927 1.54509L8.01232 1.64456L8.10516 1.85013L8.29083 1.98939L8.57598 2.06897L9.76961 2.10875L10.2537 2.34085L10.2869 2.37401L10.3598 2.32759L10.4659 2.2679L10.9102 2.08223L11.2086 2.01592L11.3545 1.79045L11.4606 1.74403L11.5733 1.65782L11.7126 1.57162L11.9115 1.48541L12.1304 1.43236H12.4221L12.8067 1.51194L13.0123 1.50531L13.1449 1.34615L13.3041 1.21353L13.4235 1.13395L13.5362 1.0809L13.6821 1.02122L13.7882 0.988064L14.0733 0.935013L14.1993 0.928382L14.2922 0.895225L14.4115 0.8687L14.9354 0.789125L15.3863 0.590186L15.6516 0.503979L15.6847 0.431035L15.9765 0.179045L16.0296 0.145889L16.1821 0.0729442L16.2617 0.0464191L16.4142 0.0198939L16.6662 0L17.3359 0.391247L17.4553 0.649867L18.1317 0.875332L18.3704 1.02122L18.828 1.43236L19.3054 1.61804L19.4248 1.67772L19.5243 1.74403L19.6237 1.82361L19.7762 1.98276L19.8426 2.08886L19.9354 2.30769L19.9686 2.44032L19.9221 2.55968L20.1144 2.59284L20.2404 2.62599L20.3797 2.67905L20.4858 2.7321L20.6715 2.87135L20.751 2.95756L20.9036 3.20292L20.95 3.32891L20.9168 3.40186H20.9301L20.9765 3.39523L21.003 3.37533L21.2285 3.20955L21.4407 3.07692L21.5866 3.01061L21.7258 2.97082L21.8518 2.9443L22.0243 2.9244L22.1038 2.9443L22.1768 2.91777L22.3028 2.69894L22.4619 2.25464L22.9792 1.81034L23.4301 1.73077L23.4964 1.70424L23.5892 1.63793L24.1728 1.18037L25.2404 1.51194L25.2736 1.6313L25.6781 1.65782L26.1158 1.7374L26.3412 1.83024L26.4142 1.87003L26.5335 1.96286L26.6662 2.10875L26.8319 2.32095L26.9646 2.51326L27.0044 2.51989L27.2033 2.59947L27.2564 2.62599L27.4884 2.85146L27.5282 2.91114L27.6144 3.1366L27.6542 3.34218L27.6609 3.51459L27.5945 3.73342L27.9792 4.03846L28.1582 4.59549L28.1781 4.70159L28.2046 4.88727L28.198 5.07294L28.1914 5.13926L28.1516 5.30504L28.0985 5.40451L28.2378 5.57029L28.3505 5.75597L28.377 5.82891L28.4235 6.14722V6.18037L28.3041 6.47215L28.3107 6.47878L27.7802 7.36737L27.8067 7.76525L27.4818 8.40186L27.3492 8.48143L27.2166 8.59416L27.2232 8.64058L27.2298 8.68037L27.1768 8.96552L27.1635 9.00531L27.0441 9.19098L26.9977 9.25066L26.9778 9.37003L26.9314 9.49602L26.8452 9.6618L26.8651 9.74801L26.8717 9.87401L26.8452 10.0928L26.8121 10.2188L26.7656 10.3382L26.6463 10.5836L26.5866 10.6698L26.3412 11.0212L26.2219 11.2202L26.255 11.3793L26.3611 11.9695L26.2683 12.0424L26.3611 12.805L26.3014 13.1432L26.3412 13.1764L26.5203 13.3422L26.6463 13.5013L26.6993 13.5942L26.7656 13.7666L26.7922 13.8793L26.6728 14.4164V14.4297L26.6794 14.4363L26.6529 14.4828L26.6197 14.5756L26.6065 14.6485L26.6131 14.7215L26.58 14.9934L26.2749 15.8621L26.2617 16.2003L26.3545 16.5119L26.9447 17.3408L27.0044 17.4536L27.2696 18.0239L27.3293 18.2228L27.3691 18.5146V18.6671L27.3492 18.813L27.3293 18.9324L27.2829 19.0782L27.2431 19.1512L27.2497 19.1645L27.3094 19.3568L27.316 19.4297V19.6419L27.3028 19.7281L27.2564 19.8806L26.7524 21.0345L26.3611 21.9894L26.4937 22.5133L26.4805 22.5729L26.5733 22.679L26.6463 22.7785L26.7258 22.9244L26.8121 23.183L26.8717 23.7202L26.8518 23.992L26.706 24.4828L26.6264 24.6485L26.1953 25.3382V25.4576L26.2219 25.4509L26.2351 25.4841V25.4907H26.2418L26.255 25.5438L26.2351 25.5504L26.3213 25.6499L26.454 25.9615L26.5468 26.5385L26.5667 27.0159L26.5534 27.2215L26.5335 27.3077L26.4805 27.4536L26.3479 27.7188L26.3678 27.7387L26.3147 27.878V27.9178L26.2882 28.0637L26.3479 28.2361L26.3611 28.382L26.2948 28.4615L26.3081 28.561L26.3147 28.687L26.3081 28.8926L26.3147 29.2772L26.4473 29.7745L26.4606 30.0332L26.4473 30.1592L26.4142 30.2984L26.3678 30.4178L26.3081 30.5438L26.1357 30.8223L25.8837 31.1737L25.6847 31.618L25.4327 32.2414L24.9752 33.057L24.9884 33.2626L25.1078 33.7533L25.0017 34.2905L24.6502 34.7944L24.0932 35.0796H23.9938L23.3174 34.4695L23.2577 33.8196L23.198 33.4151V33.3024L23.1184 33.1499L23.0587 32.9973L23.0388 32.9111L23.0256 32.6592L23.1715 31.6645V31.3329L23.1914 31.1538L23.2842 30.8289L23.2908 30.7427L23.2842 30.7096L22.9725 29.9735L22.8532 29.5756L22.82 29.4363L22.7736 28.8926L23.1715 28.2162L23.3306 28.1366L23.3373 28.1233L23.3571 28.057L23.3638 27.9509L23.3704 27.5265L23.4831 27.1552V27.1485L23.4301 27.0292L23.2577 26.6711L23.2113 26.5451L23.1715 26.3594L23.1516 26.2003V26.1141L23.1648 25.9748L23.1847 25.882L23.2709 25.6764L23.6688 25.0265V24.3037L23.6821 24.1512L23.7683 23.7798V23.4549L23.8014 23.4284L23.755 23.1963L23.7219 22.7719L23.7285 22.6393L23.8147 21.9164V21.4191L23.9208 21.0809L23.8147 20.8355L23.7749 19.9005L23.4168 19.1645L23.3638 19.0186L23.2643 18.5477V18.256L23.3107 18.0438L23.2842 17.9775L23.2776 17.9111L23.2975 17.6194L23.4831 16.9562L23.5627 16.5186L23.503 16.439L23.3439 16.1472L23.1914 15.7493L22.9991 15.5504L22.9261 15.4775L22.8465 15.3581L22.7205 14.9668V14.695L22.5945 14.4164L22.5349 14.2241L22.5083 14.0584V13.9721L22.515 13.7931L22.5349 13.7069L22.6476 13.4615L22.7007 13.3886L22.6741 13.0172L22.7272 12.7056L22.8333 12.447L22.6675 12.2745L22.4884 12.0756L22.4089 11.9629L22.3492 11.8568L22.2829 11.7042L22.2497 11.5849L22.4354 10.9019L22.9991 10.3647L23.0786 10.252L23.0322 10.1857L22.9327 9.96684L22.8863 9.7878L22.9394 9.32361L22.9991 9.20424L23.1449 8.81963L23.0521 8.48806L23.0322 8.3687L23.019 8.21618L23.0322 8.04377L23.1317 7.47348L23.0786 7.14191L23.072 7.00928L23.1118 6.73077L23.0985 6.70424L23.0057 6.55172L22.9725 6.43236L22.6542 6.34615L22.5349 6.30637L22.3028 6.187L22.1967 6.22679L22.0707 6.25995L21.6131 6.33952L21.2815 6.30637L20.7312 6.11406L20.4659 5.94164L20.3333 5.80239H20.2471L19.8625 5.82228L19.5044 5.82891L19.3585 5.81565L19.206 5.78249L19.1131 5.74934L19.0136 5.84881L18.8213 6.02785L18.8081 6.16711L18.7418 6.38594L18.6489 6.55836L18.6091 6.61141L18.5495 6.67109L18.6489 6.96286L18.6953 7.06897L18.7484 7.30769L18.755 7.44032L18.7418 7.63926L18.6755 7.85146L18.5826 8.08355L18.6556 8.20292L18.8678 8.44828L18.9871 8.62069L19.0534 8.77984L19.0667 8.85279L19.0866 9.04509L19.08 9.19761L19.0534 9.3634L18.9341 9.77454L18.8014 10.1459L19.08 10.9549L19.1728 11.4523L19.1927 11.6313L19.2922 12.1021L19.2988 12.2679V12.3873L19.2789 12.5265L19.2457 12.6326L19.1861 12.7851L19.0932 12.9642L18.9871 13.1101L18.8081 13.2958L18.6821 13.4085L18.7086 13.5279L18.7219 13.7202L18.6887 14.2175L18.6556 14.37L18.3969 15.2188L18.4036 15.2255L18.5495 15.6034L18.5959 15.8488V16.1074L19.0004 17.1684L19.1993 17.9045L19.2524 18.2361V18.3157L19.2258 18.5212L19.1396 19.1379L19.0136 19.4363L18.9009 19.5889L18.828 19.6684L18.4434 20.0464L18.4102 20.0995L18.3373 20.2454L18.1715 20.5769V20.6233V20.7891L18.1648 20.9019L18.1383 21.0942L18.0919 21.2533L18.019 21.4456L17.946 21.5783L17.7736 21.8103L17.7404 22.0756L17.6476 22.3475L17.3094 22.8979L17.316 23.004L17.3094 23.1963L17.2829 23.3554L17.263 23.4483V23.4549L17.389 23.5676L17.4288 23.6538L17.4884 23.866L17.4951 23.9655L17.4818 24.1777L17.442 24.3833L17.3956 24.5225L17.3028 24.7215L17.3426 24.7878L17.4155 24.9469L17.4487 25.0597L17.4818 25.2387V25.3448L17.4619 25.5305L17.3492 25.8753L17.3558 25.882L17.389 26.0477L17.3956 26.1273V26.2467L17.3492 26.6777L17.4619 27.1817L17.4686 27.4271L17.4553 27.5332L17.389 27.7321L17.3492 27.8183L17.2497 27.9642L17.137 28.0902L17.19 28.3621L17.1967 28.5146L17.1503 29.9735L17.1304 30.1061L17.0044 30.63L17.1436 30.882L17.1768 31.187L17.4354 31.5318L17.7537 32.0623L17.8399 32.3011L17.8598 32.4271L17.8664 32.6127L17.8465 32.7387L17.7935 32.9377L17.641 33.256L17.5083 33.4682L17.5481 34.1777L17.4884 34.4894L17.3094 34.8806L17.3359 35.1127L17.3492 35.5769L17.1701 36.0544L17.1304 36.0942L17.1237 36.1141L17.1171 36.4191L17.0972 36.5782L17.0508 37.626L16.8585 37.9045L16.8253 37.9973L16.8054 38.1366L16.7723 38.2891L16.7192 38.4284L16.6861 38.5013L16.6197 38.6207L16.5335 38.7268L16.2152 39.0915L16.1622 39.2308L16.1489 39.37L15.4725 40Z" fill="#8DC63F"/>
<path d="M43.271 22.7121H44.3585V20.8752H39.6304V25.0729H44.385V23.1829H43.271V22.7121Z" fill="#060000"/>
<path d="M49.9154 22.1485L48.1515 20.8752H46.739V25.0729H48.7815V23.793L50.5388 25.0729H51.9578V20.8752H49.9154V22.1485Z" fill="#060000"/>
<path d="M58.2111 22.7121H59.2986V20.8752H54.5771V25.0729H59.3318V23.1829H58.2111V22.7121Z" fill="#060000"/>
<path d="M66.5933 22.7718V22.1087C66.5933 21.8235 66.4871 20.8818 65.1742 20.8818H61.6794V25.0728H63.7882V24.1511L64.9288 25.0728H68.3903L66.3015 23.5941C66.4975 23.3653 66.6036 23.073 66.5999 22.7718" fill="#060000"/>
<path d="M72.7537 20.8753H70.4858C70.2967 20.842 70.1025 20.8518 69.9178 20.9042C69.733 20.9565 69.5625 21.05 69.419 21.1775C69.2755 21.3051 69.1627 21.4635 69.0891 21.6408C69.0154 21.8181 68.9828 22.0098 68.9938 22.2015V23.7466C68.9828 23.9383 69.0154 24.13 69.0891 24.3073C69.1627 24.4846 69.2755 24.643 69.419 24.7706C69.5625 24.8981 69.733 24.9916 69.9178 25.0439C70.1025 25.0963 70.2967 25.1062 70.4858 25.0729H72.7537C72.9426 25.1049 73.1363 25.0941 73.3205 25.0412C73.5046 24.9884 73.6746 24.8949 73.8178 24.7676C73.961 24.6403 74.0738 24.4825 74.1479 24.3058C74.2219 24.1291 74.2554 23.938 74.2457 23.7466V22.0888C74.1993 21.2997 73.6953 20.9018 72.7537 20.9018" fill="#060000"/>
<path d="M79.7363 20.8752L78.8742 21.6975L78.0188 20.8752H74.9883L77.7535 23.4217V25.0729H79.8822V23.4018L82.6541 20.8752H79.7363Z" fill="#060000"/>
<path d="M39.8493 11.1075C39.4946 10.9407 39.1589 10.7361 38.848 10.4974C38.7183 10.3887 38.5521 10.3337 38.3832 10.3435C38.2143 10.3534 38.0556 10.4274 37.9395 10.5505C37.8479 10.6449 37.7958 10.7705 37.7936 10.902L37.714 10.9616C36.7838 11.8873 35.9669 12.9202 35.2803 14.0386C34.4405 12.7761 33.512 11.5751 32.5018 10.4444L32.3095 10.3118L31.6464 10.6367L30.519 11.1871L30.9435 11.585C31.149 11.764 31.1623 11.8104 31.1888 11.9364L31.2617 12.2083C31.3042 12.5336 31.3197 12.8619 31.3082 13.1897C31.3268 13.9686 31.2758 14.7476 31.1557 15.5173C30.9805 15.726 30.8947 15.9952 30.9169 16.2667C30.93 16.3715 30.9652 16.4724 31.0201 16.5627C31.0749 16.6529 31.1482 16.7306 31.2352 16.7906C31.3454 16.8821 31.4415 16.9893 31.5204 17.1088C31.5401 17.1966 31.5817 17.278 31.6415 17.3453C31.7013 17.4125 31.7772 17.4635 31.8621 17.4933C31.9469 17.5231 32.0381 17.5309 32.1268 17.5158C32.2155 17.5008 32.2989 17.4634 32.3692 17.4073C32.44 17.3515 32.4946 17.2779 32.5272 17.1939C32.5599 17.1099 32.5694 17.0187 32.5549 16.9298C32.5549 16.8436 32.5549 16.3794 32.5549 15.7892C32.5549 15.0001 32.5549 13.9921 32.5549 13.3025L33.1649 14.1447L34.4912 15.9484C34.5466 16.0445 34.6232 16.1267 34.7151 16.1887C34.807 16.2508 34.9118 16.291 35.0217 16.3065C35.1055 16.3078 35.1885 16.2899 35.2643 16.2543C35.3402 16.2187 35.4069 16.1662 35.4594 16.1009H35.5323C35.7285 16.0642 35.9183 15.9995 36.0959 15.9086L36.653 15.6301L36.1623 15.2521C36.0857 15.1799 36.0168 15.0998 35.9567 15.0134C36.5361 14.0217 37.2018 13.083 37.9461 12.2083C37.9461 12.5134 37.9461 12.9577 37.9461 13.581C37.9461 14.5691 37.9461 15.9749 37.9461 17.8847V18.4882C37.944 18.6164 37.9908 18.7405 38.0771 18.8354C38.1633 18.9302 38.2825 18.9887 38.4103 18.9988C38.5219 19.0083 38.6337 18.9836 38.7309 18.9279C38.828 18.8722 38.9059 18.7882 38.9541 18.6871C39.027 18.6274 39.2326 18.5014 39.3586 18.4285L39.7167 18.203C39.8104 18.1512 39.8887 18.0754 39.9435 17.9833C39.9983 17.8913 40.0276 17.7863 40.0283 17.6792C40.0179 17.5133 39.9751 17.3511 39.9023 17.2017L39.8426 17.0558C39.7449 15.8781 39.7162 14.6957 39.7564 13.5147C39.7564 13.1102 39.7564 12.6659 39.7564 12.1884V12.0823C39.8548 12.0648 39.946 12.0191 40.0189 11.9509C40.0919 11.8826 40.1435 11.7947 40.1676 11.6977C40.1709 11.6669 40.1709 11.6357 40.1676 11.6049C40.1627 11.4908 40.1233 11.3809 40.0547 11.2898C39.986 11.1986 39.8913 11.1304 39.783 11.0943" fill="#060000"/>
<path d="M39.8493 11.1075C39.4946 10.9407 39.1589 10.7361 38.848 10.4974C38.7183 10.3887 38.5521 10.3337 38.3832 10.3435C38.2143 10.3534 38.0556 10.4274 37.9395 10.5505C37.8479 10.6449 37.7958 10.7705 37.7936 10.902L37.714 10.9616C36.7838 11.8873 35.9669 12.9202 35.2803 14.0386C34.4405 12.7761 33.512 11.5751 32.5018 10.4444L32.3095 10.3118L31.6464 10.6367L30.519 11.1871L30.9435 11.585C31.149 11.764 31.1623 11.8104 31.1888 11.9364L31.2617 12.2083C31.3042 12.5336 31.3197 12.8619 31.3082 13.1897C31.3268 13.9686 31.2758 14.7476 31.1557 15.5173C30.9805 15.726 30.8947 15.9952 30.9169 16.2667C30.93 16.3715 30.9652 16.4724 31.0201 16.5627C31.0749 16.6529 31.1482 16.7306 31.2352 16.7906C31.3454 16.8821 31.4415 16.9893 31.5204 17.1088C31.5401 17.1966 31.5817 17.278 31.6415 17.3453C31.7013 17.4125 31.7772 17.4635 31.8621 17.4933C31.9469 17.5231 32.0381 17.5309 32.1268 17.5158C32.2155 17.5008 32.2989 17.4634 32.3692 17.4073C32.44 17.3515 32.4946 17.2779 32.5272 17.1939C32.5599 17.1099 32.5694 17.0187 32.5549 16.9298C32.5549 16.8436 32.5549 16.3794 32.5549 15.7892C32.5549 15.0001 32.5549 13.9921 32.5549 13.3025L33.1649 14.1447L34.4912 15.9484C34.5466 16.0445 34.6232 16.1267 34.7151 16.1887C34.807 16.2508 34.9118 16.291 35.0217 16.3065C35.1055 16.3078 35.1885 16.2899 35.2643 16.2543C35.3402 16.2187 35.4069 16.1662 35.4594 16.1009H35.5323C35.7285 16.0642 35.9183 15.9995 36.0959 15.9086L36.653 15.6301L36.1623 15.2521C36.0857 15.1799 36.0168 15.0998 35.9567 15.0134C36.5361 14.0217 37.2018 13.083 37.9461 12.2083C37.9461 12.5134 37.9461 12.9577 37.9461 13.581C37.9461 14.5691 37.9461 15.9749 37.9461 17.8847V18.4882C37.944 18.6164 37.9908 18.7405 38.0771 18.8354C38.1633 18.9302 38.2825 18.9887 38.4103 18.9988C38.5219 19.0083 38.6337 18.9836 38.7309 18.9279C38.828 18.8722 38.9059 18.7882 38.9541 18.6871C39.027 18.6274 39.2326 18.5014 39.3586 18.4285L39.7167 18.203C39.8104 18.1512 39.8887 18.0754 39.9435 17.9833C39.9983 17.8913 40.0276 17.7863 40.0283 17.6792C40.0179 17.5133 39.9751 17.3511 39.9023 17.2017L39.8426 17.0558C39.7449 15.8781 39.7162 14.6957 39.7564 13.5147C39.7564 13.1102 39.7564 12.6659 39.7564 12.1884V12.0823C39.8548 12.0648 39.946 12.0191 40.0189 11.9509C40.0919 11.8826 40.1435 11.7947 40.1676 11.6977C40.1709 11.6669 40.1709 11.6357 40.1676 11.6049C40.1657 11.5007 40.135 11.399 40.0788 11.3112C40.0226 11.2234 39.9431 11.1529 39.8493 11.1075Z" stroke="#060000" stroke-width="0.603" stroke-linecap="round" stroke-linejoin="round"/>
<path d="M49.5441 11.691C49.3588 11.442 49.112 11.2455 48.8279 11.1207C48.7209 11.0681 48.6188 11.0059 48.5229 10.935C48.412 10.8594 48.2833 10.8142 48.1495 10.8037C48.0157 10.7932 47.8815 10.8179 47.7603 10.8753C47.5928 10.9366 47.4142 10.9615 47.2364 10.9483C46.9115 10.9151 46.5733 10.8886 46.2417 10.8687C46.2417 10.5371 46.2881 10.2056 46.3014 9.88065V9.67508C46.3319 9.55272 46.3322 9.42477 46.3021 9.30229C46.2721 9.17981 46.2127 9.06649 46.129 8.97216C46.0448 8.90393 45.9451 8.85736 45.8388 8.83655C45.7324 8.81574 45.6226 8.82133 45.5189 8.8528L45.3929 8.88595C45.3219 8.91081 45.2486 8.92859 45.174 8.93901C45.2602 8.93901 44.7099 8.83953 44.6568 8.90584C44.6165 8.97723 44.5916 9.05631 44.5839 9.13794V9.15784C44.5746 9.3663 44.6302 9.57252 44.743 9.74803L44.8226 9.90054C44.8577 10.0005 44.8735 10.1063 44.869 10.2122C44.863 10.4148 44.8408 10.6166 44.8027 10.8157C44.186 10.8157 43.682 10.8157 43.4366 10.8753L43.3239 10.7958C43.1184 10.6432 42.8067 10.4178 42.5083 10.6366C42.1572 10.9043 41.774 11.127 41.3677 11.2998L40.751 11.4788L41.255 12.0093C41.3544 12.1154 41.381 12.1353 41.381 12.2414C41.381 12.3475 41.381 12.3077 41.381 12.3541C41.381 12.4005 41.381 12.5067 41.381 12.5862C41.3882 13.4742 41.6269 14.3449 42.0734 15.1124C42.52 15.88 43.159 16.5178 43.9274 16.9629C43.9881 16.9888 44.0442 17.0247 44.0932 17.069C44.1384 17.1855 44.2175 17.2857 44.3204 17.3567C44.4233 17.4276 44.5451 17.466 44.6701 17.4669H44.8093C44.8093 17.5928 44.8093 17.6989 44.8093 17.7918C44.816 17.8911 44.816 17.9908 44.8093 18.0902L44.3849 17.9311L44.4711 18.5942C44.4951 18.7373 44.5535 18.8724 44.6413 18.9879C44.7291 19.1034 44.8437 19.1959 44.9751 19.2573L45.1343 19.3435L45.3332 19.2507H45.5653C45.6835 19.2583 45.8014 19.2317 45.9049 19.174C46.0084 19.1164 46.0931 19.0302 46.1489 18.9257C46.2764 18.5996 46.2764 18.2373 46.1489 17.9112C46.1183 17.807 46.0961 17.7006 46.0826 17.5929C46.0826 17.5929 46.0826 17.4602 46.0826 17.2679C46.2298 17.2066 46.3515 17.0966 46.4274 16.9563C46.6926 16.817 46.9645 16.691 47.2231 16.5783C47.8234 16.3682 48.3725 16.0338 48.8345 15.5968C49.0998 15.305 49.1993 14.5624 49.312 13.1035L49.3518 12.6326C49.3721 12.516 49.4173 12.4052 49.4844 12.3077C49.5711 12.1898 49.6219 12.0493 49.6303 11.9032C49.6294 11.809 49.6018 11.717 49.5507 11.6379L49.5441 11.691ZM43.808 14.1645C43.5056 13.6103 43.3269 12.9972 43.2841 12.3674C43.2826 12.2778 43.2938 12.1885 43.3173 12.1021C43.4745 12.1905 43.6563 12.2247 43.8349 12.1995C44.0134 12.1744 44.1787 12.0912 44.3053 11.9629L44.5109 11.8236H44.7165C44.7165 11.9165 44.7165 12.0093 44.7165 12.1021C44.7165 12.4337 44.7165 12.7653 44.6635 13.1565C44.6104 13.5478 44.6038 13.9059 44.6038 14.2639C44.6038 14.3303 44.6038 14.3966 44.6038 14.4629C44.6038 14.7613 44.6038 15.0663 44.6502 15.3714C44.301 15.0185 44.012 14.6108 43.7948 14.1645M47.3226 15.0133C46.9636 15.4026 46.5217 15.7063 46.0295 15.9019V14.8608C46.0324 14.6654 46.0479 14.4705 46.0759 14.2772C46.1219 13.9856 46.1352 13.6898 46.1157 13.3952C46.0775 13.0803 46.0775 12.7619 46.1157 12.447C46.1323 12.2905 46.1323 12.1326 46.1157 11.9761V11.9231C46.5656 11.9505 47.0107 12.0306 47.442 12.1618C47.5472 12.4896 47.5987 12.8322 47.5945 13.1764C47.579 13.7971 47.5012 14.4147 47.3624 15.0199" fill="#060000"/>
<path d="M49.5441 11.691C49.3588 11.442 49.112 11.2455 48.8279 11.1207C48.7209 11.0681 48.6188 11.0059 48.5229 10.935C48.412 10.8594 48.2833 10.8142 48.1495 10.8037C48.0157 10.7932 47.8815 10.8179 47.7603 10.8753C47.5928 10.9366 47.4142 10.9615 47.2364 10.9483C46.9115 10.9151 46.5733 10.8886 46.2417 10.8687C46.2417 10.5371 46.2881 10.2056 46.3014 9.88065V9.67508C46.3319 9.55272 46.3322 9.42477 46.3021 9.30229C46.2721 9.17981 46.2127 9.06649 46.129 8.97216C46.0448 8.90393 45.9451 8.85736 45.8388 8.83655C45.7324 8.81574 45.6226 8.82133 45.5189 8.8528L45.3929 8.88595C45.3219 8.91081 45.2486 8.92859 45.174 8.93901C45.2602 8.93901 44.7099 8.83953 44.6568 8.90584C44.6165 8.97723 44.5916 9.05631 44.5839 9.13794V9.15784C44.5746 9.3663 44.6302 9.57252 44.743 9.74803L44.8226 9.90054C44.8577 10.0005 44.8735 10.1063 44.869 10.2122C44.863 10.4148 44.8408 10.6166 44.8027 10.8157C44.186 10.8157 43.682 10.8157 43.4366 10.8753L43.3239 10.7958C43.1184 10.6432 42.8067 10.4178 42.5083 10.6366C42.1572 10.9043 41.774 11.127 41.3677 11.2998L40.751 11.4788L41.255 12.0093C41.3544 12.1154 41.381 12.1353 41.381 12.2414C41.381 12.3475 41.381 12.3077 41.381 12.3541C41.381 12.4005 41.381 12.5067 41.381 12.5862C41.3882 13.4742 41.6269 14.3449 42.0734 15.1124C42.52 15.88 43.159 16.5178 43.9274 16.9629C43.9881 16.9888 44.0442 17.0247 44.0932 17.069C44.1384 17.1855 44.2175 17.2857 44.3204 17.3567C44.4233 17.4276 44.5451 17.466 44.6701 17.4669H44.8093C44.8093 17.5928 44.8093 17.6989 44.8093 17.7918C44.816 17.8911 44.816 17.9908 44.8093 18.0902L44.3849 17.9311L44.4711 18.5942C44.4951 18.7373 44.5535 18.8724 44.6413 18.9879C44.7291 19.1034 44.8437 19.1959 44.9751 19.2573L45.1343 19.3435L45.3332 19.2507H45.5653C45.6835 19.2583 45.8014 19.2317 45.9049 19.174C46.0084 19.1164 46.0931 19.0302 46.1489 18.9257C46.2764 18.5996 46.2764 18.2373 46.1489 17.9112C46.1183 17.807 46.0961 17.7006 46.0826 17.5929C46.0826 17.5929 46.0826 17.4602 46.0826 17.2679C46.2298 17.2066 46.3515 17.0966 46.4274 16.9563C46.6926 16.817 46.9645 16.691 47.2231 16.5783C47.8234 16.3682 48.3725 16.0338 48.8345 15.5968C49.0998 15.305 49.1993 14.5624 49.312 13.1035L49.3518 12.6326C49.3721 12.516 49.4173 12.4052 49.4844 12.3077C49.5711 12.1898 49.6219 12.0493 49.6303 11.9032C49.6294 11.809 49.6018 11.717 49.5507 11.6379L49.5441 11.691ZM43.808 14.1645C43.5056 13.6103 43.3269 12.9972 43.2841 12.3674C43.2826 12.2778 43.2938 12.1885 43.3173 12.1021C43.4745 12.1905 43.6563 12.2247 43.8349 12.1995C44.0134 12.1744 44.1787 12.0912 44.3053 11.9629L44.5109 11.8236H44.7165C44.7165 11.9165 44.7165 12.0093 44.7165 12.1021C44.7165 12.4337 44.7165 12.7653 44.6635 13.1565C44.6104 13.5478 44.6038 13.9059 44.6038 14.2639C44.6038 14.3303 44.6038 14.3966 44.6038 14.4629C44.6038 14.7613 44.6038 15.0663 44.6502 15.3714C44.3104 15.0165 44.0305 14.6089 43.8213 14.1645H43.808ZM47.3359 15.0133C46.9768 15.4026 46.5349 15.7063 46.0427 15.9019V14.8608C46.0456 14.6654 46.0611 14.4705 46.0892 14.2772C46.1351 13.9856 46.1484 13.6898 46.129 13.3952C46.0907 13.0803 46.0907 12.7619 46.129 12.447C46.1455 12.2905 46.1455 12.1326 46.129 11.9761V11.9231C46.5789 11.9505 47.024 12.0306 47.4552 12.1618C47.5605 12.4896 47.612 12.8322 47.6078 13.1764C47.5835 13.798 47.4969 14.4156 47.3491 15.0199L47.3359 15.0133Z" stroke="#060000" stroke-width="0.603" stroke-linecap="round" stroke-linejoin="round"/>
<path d="M57.4419 9.34365H57.4088C57.2048 9.22268 57.0176 9.07554 56.8518 8.90598H56.812C56.713 8.83557 56.5952 8.79633 56.4738 8.79326C56.3259 8.79138 56.183 8.84704 56.0753 8.9485C55.9677 9.04995 55.9037 9.18925 55.8969 9.33701C55.899 9.41154 55.9165 9.48483 55.9485 9.55219C55.9805 9.61955 56.0261 9.6795 56.0825 9.72825C56.1086 9.74748 56.1299 9.77241 56.1448 9.80115C56.1598 9.82988 56.168 9.86166 56.1687 9.89404V10.272C56.1687 10.272 56.1687 13.5877 56.1687 13.8065C55.9698 13.6474 55.7642 13.4882 55.5719 13.3224L55.1409 12.9643L54.4777 12.4338L51.9048 10.3914L51.6594 10.597C51.4099 10.7948 51.1237 10.9413 50.8173 11.028L50.0149 11.3131L50.7576 11.7376C50.9035 11.8238 50.9167 12.1155 50.9234 12.3211V12.3675C50.9565 12.7986 50.9632 13.2429 50.9632 13.6938V14.463C50.9802 14.8637 50.9647 15.2651 50.9167 15.6633V15.7163C50.8082 15.8976 50.7445 16.1023 50.731 16.3132C50.7406 16.442 50.7768 16.5674 50.8373 16.6815C50.8978 16.7957 50.9813 16.896 51.0825 16.9763C51.15 17.0339 51.2063 17.1036 51.2483 17.1818V17.2216C51.2883 17.3205 51.3571 17.405 51.4458 17.4641C51.5345 17.5233 51.639 17.5543 51.7457 17.5532C51.8141 17.5523 51.8818 17.5379 51.9447 17.5107C52.0075 17.4835 52.0644 17.444 52.1119 17.3947C52.1594 17.3453 52.1966 17.287 52.2214 17.2232C52.2462 17.1593 52.258 17.0912 52.2563 17.0227C52.2563 17.0227 52.2098 13.3158 52.1966 12.6924C53.2841 13.4948 55.9035 15.6169 56.1754 15.9285C56.2058 16.0362 56.217 16.1485 56.2085 16.2601V16.6115V17.0426C56.203 17.1089 56.2113 17.1756 56.2327 17.2385C56.2542 17.3015 56.2884 17.3593 56.3332 17.4085C56.378 17.4576 56.4324 17.497 56.4931 17.5242C56.5538 17.5514 56.6195 17.5658 56.686 17.5665C56.7842 17.5605 56.8795 17.5308 56.9638 17.48C57.0481 17.4292 57.1189 17.3588 57.1701 17.2747C57.2464 17.1393 57.34 17.0145 57.4486 16.9033C57.516 16.8465 57.5701 16.7753 57.6068 16.6951C57.6435 16.6148 57.6619 16.5274 57.6608 16.4391C57.6538 16.2735 57.6132 16.1111 57.5414 15.9617C57.513 15.8982 57.4929 15.8314 57.4817 15.7627C57.4817 15.7627 57.4817 10.3582 57.4817 10.2787C57.5776 10.2516 57.6622 10.1945 57.7231 10.1157C57.784 10.0369 57.8179 9.94058 57.8199 9.841C57.8139 9.74288 57.7827 9.64798 57.7293 9.56549C57.6758 9.48299 57.602 9.41572 57.5149 9.37018" fill="#060000"/>
<path d="M57.4419 9.34365H57.4088C57.2048 9.22268 57.0176 9.07554 56.8518 8.90598H56.812C56.713 8.83557 56.5952 8.79633 56.4738 8.79326C56.3259 8.79138 56.183 8.84704 56.0753 8.9485C55.9677 9.04995 55.9037 9.18925 55.8969 9.33701C55.899 9.41154 55.9165 9.48483 55.9485 9.55219C55.9805 9.61955 56.0261 9.6795 56.0825 9.72825C56.1086 9.74748 56.1299 9.77241 56.1448 9.80115C56.1598 9.82988 56.168 9.86166 56.1687 9.89404V10.272C56.1687 10.272 56.1687 13.5877 56.1687 13.8065C55.9698 13.6474 55.7642 13.4882 55.5719 13.3224L55.1409 12.9643L54.4777 12.4338L51.9048 10.3914L51.6594 10.597C51.4099 10.7948 51.1237 10.9413 50.8173 11.028L50.0149 11.3131L50.7576 11.7376C50.9035 11.8238 50.9167 12.1155 50.9234 12.3211V12.3675C50.9565 12.7986 50.9632 13.2429 50.9632 13.6938V14.463C50.9802 14.8637 50.9647 15.2651 50.9167 15.6633V15.7163C50.8082 15.8976 50.7445 16.1023 50.731 16.3132C50.7406 16.442 50.7768 16.5674 50.8373 16.6815C50.8978 16.7957 50.9813 16.896 51.0825 16.9763C51.15 17.0339 51.2063 17.1036 51.2483 17.1818V17.2216C51.2883 17.3205 51.3571 17.405 51.4458 17.4641C51.5345 17.5233 51.639 17.5543 51.7457 17.5532C51.8141 17.5523 51.8818 17.5379 51.9447 17.5107C52.0075 17.4835 52.0644 17.444 52.1119 17.3947C52.1594 17.3453 52.1966 17.287 52.2214 17.2232C52.2462 17.1593 52.258 17.0912 52.2563 17.0227C52.2563 17.0227 52.2098 13.3158 52.1966 12.6924C53.2841 13.4948 55.9035 15.6169 56.1754 15.9285C56.2058 16.0362 56.217 16.1485 56.2085 16.2601V16.6115V17.0426C56.203 17.1089 56.2113 17.1756 56.2327 17.2385C56.2542 17.3015 56.2884 17.3593 56.3332 17.4085C56.378 17.4576 56.4324 17.497 56.4931 17.5242C56.5538 17.5514 56.6195 17.5658 56.686 17.5665C56.7842 17.5605 56.8795 17.5308 56.9638 17.48C57.0481 17.4292 57.1189 17.3588 57.1701 17.2747C57.2464 17.1393 57.34 17.0145 57.4486 16.9033C57.516 16.8465 57.5701 16.7753 57.6068 16.6951C57.6435 16.6148 57.6619 16.5274 57.6608 16.4391C57.6538 16.2735 57.6132 16.1111 57.5414 15.9617C57.513 15.8982 57.4929 15.8314 57.4817 15.7627C57.4817 15.7627 57.4817 10.3582 57.4817 10.2787C57.5776 10.2516 57.6622 10.1945 57.7231 10.1157C57.784 10.0369 57.8179 9.94058 57.8199 9.841C57.8121 9.73031 57.7722 9.6243 57.7051 9.53596C57.6379 9.44762 57.5465 9.38079 57.4419 9.34365Z" stroke="#060000" stroke-width="0.603" stroke-linecap="round" stroke-linejoin="round"/>
<path d="M65.519 13.1033C65.3164 13.0121 65.1355 12.8787 64.9884 12.7121C64.8795 12.5456 64.7112 12.4268 64.5178 12.38C64.3243 12.3332 64.1204 12.3618 63.9473 12.4601C63.8368 12.5495 63.6981 12.5965 63.5561 12.5927H63.1715C62.7205 12.5927 62.0243 12.5927 61.6662 12.5927C61.5306 12.425 61.4107 12.2452 61.3081 12.0556H61.4805C61.5402 12.0556 61.8187 12.0556 62.0243 12.1086C62.3956 12.1484 62.6542 12.1749 62.7935 12.1749C63.1599 12.1891 63.5264 12.1488 63.881 12.0556L64.133 11.9959C64.3049 11.9874 64.4771 12.0053 64.6436 12.0489H64.7563C64.8596 12.076 64.9681 12.0749 65.0708 12.0457C65.1734 12.0166 65.2663 11.9604 65.3399 11.8831C65.4022 11.8207 65.4459 11.7423 65.4663 11.6565C65.4867 11.5708 65.483 11.481 65.4555 11.3973C65.4281 11.3135 65.3779 11.239 65.3107 11.1819C65.2435 11.1249 65.1618 11.0876 65.0746 11.0742C64.7633 10.9878 64.4709 10.8438 64.2126 10.6497L63.7749 10.3911C63.6099 10.309 63.4261 10.2719 63.2421 10.2836C63.0582 10.2952 62.8805 10.3552 62.7272 10.4574H62.6741C62.34 10.5668 61.9988 10.6532 61.6529 10.7161C61.3525 10.7708 61.0557 10.8439 60.7643 10.9349L60.6251 10.9813H60.5786C60.4737 10.9077 60.3487 10.8682 60.2205 10.8682C60.0924 10.8682 59.9673 10.9077 59.8624 10.9813L59.637 11.1537C59.5687 11.2188 59.4873 11.2685 59.3982 11.2996C59.3137 11.3225 59.2362 11.366 59.1725 11.4262C59.1089 11.4863 59.0611 11.5613 59.0335 11.6444C59.014 11.7241 59.0154 11.8074 59.0375 11.8864C59.0595 11.9654 59.1016 12.0373 59.1595 12.0954C59.2922 12.3473 59.5773 12.7585 59.8227 13.1696L60.2073 13.7665C60.261 13.8602 60.3368 13.9394 60.4281 13.9972C60.5194 14.055 60.6234 14.0896 60.7311 14.098C60.8423 14.1075 60.9541 14.0888 61.0561 14.0435C61.1581 13.9983 61.247 13.9281 61.3147 13.8394C61.4346 13.7398 61.5835 13.6817 61.7391 13.6736C61.832 13.6736 62.2763 13.6736 62.568 13.6736H63.1914C63.2054 13.7076 63.2054 13.7457 63.1914 13.7797C63.0587 14.7147 62.2431 16.724 61.8253 16.9959C61.7275 17.0592 61.6146 17.0956 61.4982 17.1014C61.3818 17.1073 61.2659 17.0823 61.1622 17.029L61.0096 16.9229C60.8041 16.7837 60.4924 16.5649 60.2603 16.3726C60.146 16.2679 60.0053 16.1964 59.8533 16.166C59.7014 16.1356 59.544 16.1474 59.3982 16.2001C59.293 16.2412 59.2001 16.3084 59.1281 16.3954C59.0562 16.4825 59.0076 16.5864 58.9871 16.6975C58.9861 16.7174 58.9861 16.7373 58.9871 16.7572C58.9881 16.845 59.0103 16.9313 59.0519 17.0087C59.0934 17.086 59.1531 17.1522 59.2258 17.2015C59.4447 17.354 59.6502 17.533 59.889 17.7121L60.4526 18.1696L60.5521 18.4548C60.7378 18.7068 61.2152 18.7267 61.4341 18.7267C63.702 18.7267 65.1476 15.3712 65.6913 14.0847V14.0317L65.7444 13.9521C65.8499 13.8269 65.9126 13.6712 65.9235 13.5078C65.9289 13.466 65.9289 13.4237 65.9235 13.3818C65.8974 13.2869 65.8506 13.199 65.7863 13.1245C65.7221 13.0499 65.6421 12.9906 65.5521 12.9508" fill="#060000"/>
<path d="M65.519 13.1033C65.3164 13.0121 65.1355 12.8787 64.9884 12.7121C64.8795 12.5456 64.7112 12.4268 64.5178 12.38C64.3243 12.3332 64.1204 12.3618 63.9473 12.4601C63.8368 12.5495 63.6981 12.5965 63.5561 12.5927H63.1715C62.7205 12.5927 62.0243 12.5927 61.6662 12.5927C61.5306 12.425 61.4107 12.2452 61.3081 12.0556H61.4805C61.5402 12.0556 61.8187 12.0556 62.0243 12.1086C62.3956 12.1484 62.6542 12.1749 62.7935 12.1749C63.1599 12.1891 63.5264 12.1488 63.881 12.0556L64.133 11.9959C64.3049 11.9874 64.4771 12.0053 64.6436 12.0489H64.7563C64.8596 12.076 64.9681 12.0749 65.0708 12.0457C65.1734 12.0166 65.2663 11.9604 65.3399 11.8831C65.4022 11.8207 65.4459 11.7423 65.4663 11.6565C65.4867 11.5708 65.483 11.481 65.4555 11.3973C65.4281 11.3135 65.3779 11.239 65.3107 11.1819C65.2435 11.1249 65.1618 11.0876 65.0746 11.0742C64.7633 10.9878 64.4709 10.8438 64.2126 10.6497L63.7749 10.3911C63.6099 10.309 63.4261 10.2719 63.2421 10.2836C63.0582 10.2952 62.8805 10.3552 62.7272 10.4574H62.6741C62.34 10.5668 61.9988 10.6532 61.6529 10.7161C61.3525 10.7708 61.0557 10.8439 60.7643 10.9349L60.6251 10.9813H60.5786C60.4737 10.9077 60.3487 10.8682 60.2205 10.8682C60.0924 10.8682 59.9673 10.9077 59.8624 10.9813L59.637 11.1537C59.5687 11.2188 59.4873 11.2685 59.3982 11.2996C59.3137 11.3225 59.2362 11.366 59.1725 11.4262C59.1089 11.4863 59.0611 11.5613 59.0335 11.6444C59.014 11.7241 59.0154 11.8074 59.0375 11.8864C59.0595 11.9654 59.1016 12.0373 59.1595 12.0954C59.2922 12.3473 59.5773 12.7585 59.8227 13.1696L60.2073 13.7665C60.261 13.8602 60.3368 13.9394 60.4281 13.9972C60.5194 14.055 60.6234 14.0896 60.7311 14.098C60.8423 14.1075 60.9541 14.0888 61.0561 14.0435C61.1581 13.9983 61.247 13.9281 61.3147 13.8394C61.4346 13.7398 61.5835 13.6817 61.7391 13.6736C61.832 13.6736 62.2763 13.6736 62.568 13.6736H63.1914C63.2054 13.7076 63.2054 13.7457 63.1914 13.7797C63.0587 14.7147 62.2431 16.724 61.8253 16.9959C61.7275 17.0592 61.6146 17.0956 61.4982 17.1014C61.3818 17.1073 61.2659 17.0823 61.1622 17.029L61.0096 16.9229C60.8041 16.7837 60.4924 16.5649 60.2603 16.3726C60.146 16.2679 60.0053 16.1964 59.8533 16.166C59.7014 16.1356 59.544 16.1474 59.3982 16.2001C59.293 16.2412 59.2001 16.3084 59.1281 16.3954C59.0562 16.4825 59.0076 16.5864 58.9871 16.6975C58.9861 16.7174 58.9861 16.7373 58.9871 16.7572C58.9881 16.845 59.0103 16.9313 59.0519 17.0087C59.0934 17.086 59.1531 17.1522 59.2258 17.2015C59.4447 17.354 59.6502 17.533 59.889 17.7121L60.4526 18.1696L60.5521 18.4548C60.7378 18.7068 61.2152 18.7267 61.4341 18.7267C63.702 18.7267 65.1476 15.3712 65.6913 14.0847V14.0317L65.7444 13.9521C65.8499 13.8269 65.9126 13.6712 65.9235 13.5078C65.9289 13.466 65.9289 13.4237 65.9235 13.3818C65.8292 13.2406 65.6845 13.141 65.519 13.1033Z" stroke="#060000" stroke-width="0.603" stroke-linecap="round" stroke-linejoin="round"/>
<path d="M73.9141 11.5982C73.8544 11.2069 73.808 10.9351 73.5626 10.756L73.503 10.7162C73.4145 10.6367 73.3063 10.5824 73.1896 10.559C73.0729 10.5357 72.9521 10.5442 72.8399 10.5836H72.7736L72.5348 10.6565C72.3223 10.7315 72.0954 10.7565 71.8717 10.7295C71.3146 10.7295 70.0149 10.7295 68.9738 10.7295H67.6475C67.5376 10.7341 67.4282 10.7113 67.3292 10.6632C67.2227 10.6077 67.1045 10.5781 66.9844 10.577C66.6713 10.6029 66.3775 10.7392 66.1555 10.9616C66.0066 11.1981 65.899 11.4582 65.8372 11.7308L65.751 11.9961C65.728 12.0575 65.7168 12.1228 65.7178 12.1884C65.7184 12.2836 65.747 12.3765 65.8 12.4555C65.8531 12.5345 65.9283 12.5961 66.0163 12.6327C66.1594 12.6965 66.3205 12.7075 66.4711 12.6638C66.6216 12.6201 66.7518 12.5245 66.8385 12.3939C66.9446 12.1289 67.1489 11.9151 67.4088 11.7971C67.8805 11.7145 68.3629 11.7145 68.8346 11.7971C68.8346 11.9563 68.8346 12.195 68.8346 12.4603C68.8346 13.5677 68.7417 15.3382 68.6887 15.5969L68.6422 15.6963C68.5709 15.8096 68.5241 15.9366 68.5047 16.069C68.4852 16.2015 68.4937 16.3365 68.5295 16.4655C68.5658 16.5521 68.62 16.6299 68.6886 16.6939C68.7572 16.7579 68.8386 16.8067 68.9274 16.8369C69.179 16.9247 69.416 17.0499 69.6303 17.2083C69.6859 17.3098 69.7725 17.3909 69.8775 17.4398C69.9825 17.4887 70.1003 17.5029 70.2138 17.4801C70.3294 17.4704 70.4374 17.4183 70.5169 17.3338C70.5965 17.2494 70.642 17.1385 70.6449 17.0226V16.4523C70.6449 16.1804 70.6449 15.7892 70.6449 15.2852C70.6207 14.1213 70.6583 12.957 70.7576 11.7971C71.3126 11.7026 71.8809 11.7206 72.4287 11.8502C72.694 11.9629 72.7271 12.0292 72.7934 12.1618L72.8597 12.2878C72.9285 12.4112 73.0393 12.5059 73.1719 12.5546C73.3046 12.6032 73.4503 12.6027 73.5826 12.5531C73.7059 12.5146 73.8105 12.4313 73.8755 12.3196C73.9406 12.2079 73.9614 12.0759 73.934 11.9496L73.8677 11.6048" fill="#060000"/>
<path d="M69.6635 17.1884V17.2282M73.9141 11.5982C73.8544 11.2069 73.808 10.9351 73.5626 10.756L73.503 10.7162C73.4145 10.6367 73.3063 10.5824 73.1896 10.559C73.0729 10.5357 72.9521 10.5442 72.8399 10.5836H72.7736L72.5348 10.6565C72.3223 10.7315 72.0954 10.7565 71.8717 10.7295C71.3146 10.7295 70.0149 10.7295 68.9738 10.7295H67.6475C67.5376 10.7341 67.4282 10.7113 67.3292 10.6632C67.2227 10.6077 67.1045 10.5781 66.9844 10.577C66.6713 10.6029 66.3775 10.7392 66.1555 10.9616C66.0066 11.1981 65.899 11.4582 65.8372 11.7308L65.751 11.9961C65.728 12.0575 65.7168 12.1228 65.7178 12.1884C65.7184 12.2836 65.747 12.3765 65.8 12.4555C65.8531 12.5345 65.9283 12.5961 66.0163 12.6327C66.1594 12.6965 66.3205 12.7075 66.4711 12.6638C66.6216 12.6201 66.7518 12.5245 66.8385 12.3939C66.9446 12.1289 67.1489 11.9151 67.4088 11.7971C67.8805 11.7145 68.3629 11.7145 68.8346 11.7971C68.8346 11.9563 68.8346 12.195 68.8346 12.4603C68.8346 13.5677 68.7417 15.3382 68.6887 15.5969L68.6422 15.6963C68.5709 15.8096 68.5241 15.9366 68.5047 16.069C68.4852 16.2015 68.4937 16.3365 68.5295 16.4655C68.5658 16.5521 68.62 16.6299 68.6886 16.6939C68.7572 16.7579 68.8386 16.8067 68.9274 16.8369C69.179 16.9247 69.416 17.0499 69.6303 17.2083C69.6859 17.3098 69.7725 17.3909 69.8775 17.4398C69.9825 17.4887 70.1003 17.5029 70.2138 17.4801C70.3294 17.4704 70.4374 17.4183 70.5169 17.3338C70.5965 17.2494 70.642 17.1385 70.6449 17.0226V16.4523C70.6449 16.1804 70.6449 15.7892 70.6449 15.2852C70.6207 14.1213 70.6583 12.957 70.7576 11.7971C71.3126 11.7026 71.8809 11.7206 72.4287 11.8502C72.694 11.9629 72.7271 12.0292 72.7934 12.1618L72.8597 12.2878C72.9285 12.4112 73.0393 12.5059 73.1719 12.5546C73.3046 12.6032 73.4503 12.6027 73.5826 12.5531C73.7059 12.5146 73.8105 12.4313 73.8755 12.3196C73.9406 12.2079 73.9614 12.0759 73.934 11.9496L73.9141 11.5982Z" stroke="#060000" stroke-width="0.603" stroke-linecap="round" stroke-linejoin="round"/>
<path d="M81.023 15.1261C80.901 15.1085 80.7767 15.134 80.6714 15.1981C80.5661 15.2623 80.4864 15.3611 80.4461 15.4776C80.3599 15.8091 80.2538 15.9418 79.7829 16.081C78.894 16.2773 77.973 16.2773 77.084 16.081C76.9776 15.6879 76.9307 15.2811 76.9448 14.8741C76.9352 14.6288 76.9597 14.3833 77.0177 14.1447C77.4434 14.0796 77.8736 14.0485 78.3042 14.0518C78.3059 14.1867 78.3602 14.3156 78.4556 14.411C78.551 14.5064 78.6799 14.5607 78.8148 14.5624L79.1729 14.4165L79.3188 14.0452C79.3482 13.8872 79.3972 13.7335 79.4647 13.5876C79.51 13.5018 79.5336 13.4062 79.5336 13.3091C79.5336 13.2121 79.51 13.1165 79.4647 13.0306C79.4106 12.9523 79.3383 12.8885 79.2539 12.8445C79.1695 12.8006 79.0757 12.778 78.9806 12.7786C78.8744 12.7714 78.7684 12.7951 78.6754 12.8469C78.5824 12.8987 78.5064 12.9763 78.4567 13.0704C77.9709 13.1006 77.4837 13.1006 76.9978 13.0704C76.9978 13.0041 76.9978 12.9179 76.9978 12.8184C76.9934 12.5236 77.0268 12.2294 77.0973 11.9431C77.7951 11.7792 78.5214 11.7792 79.2193 11.9431C79.5044 12.0359 79.6835 12.3211 79.8824 12.6858C79.9522 12.8062 80.063 12.8973 80.1946 12.9424C80.3263 12.9874 80.4697 12.9835 80.5986 12.9311C80.7199 12.8969 80.8242 12.8191 80.8915 12.7126C80.9589 12.6061 80.9844 12.4784 80.9633 12.3542L80.8838 11.9829C80.8548 11.6675 80.7427 11.3654 80.5588 11.1075C80.3667 10.8963 80.1059 10.76 79.8227 10.7229L79.4779 10.8025C79.3771 10.8515 79.2635 10.8677 79.153 10.8489C78.5598 10.7908 77.9624 10.7908 77.3692 10.8489C77.3692 10.8489 77.3692 10.8025 77.3692 10.7826C77.2976 10.6401 77.1771 10.5281 77.0298 10.4673C76.8824 10.4064 76.718 10.4006 76.5668 10.451C76.4329 10.5136 76.308 10.5939 76.1954 10.6898C75.9681 10.9016 75.6809 11.0382 75.3732 11.081C75.2991 11.0774 75.2251 11.0885 75.1553 11.1136C75.0856 11.1387 75.0215 11.1773 74.9666 11.2272C74.9118 11.277 74.8674 11.3373 74.8359 11.4044C74.8043 11.4714 74.7864 11.5441 74.783 11.6181C74.7949 11.7384 74.8451 11.8517 74.9263 11.9413C75.0075 12.0308 75.1153 12.0919 75.2339 12.1155C75.2339 12.1155 75.2339 12.3476 75.2339 12.3476C75.2339 12.8913 75.2339 13.3489 75.2339 13.7402C75.2592 14.4044 75.2326 15.0695 75.1543 15.7296C74.982 15.8911 74.8757 16.1109 74.8559 16.3463C74.8513 16.3859 74.8513 16.426 74.8559 16.4656C74.8821 16.5713 74.9339 16.669 75.0067 16.75C75.0796 16.8309 75.1713 16.8927 75.2737 16.9298L75.5787 17.0558C75.7734 17.1236 75.962 17.2079 76.1424 17.3078C76.1961 17.4086 76.2798 17.4903 76.382 17.5414C76.4842 17.5925 76.5998 17.6105 76.7126 17.5929C76.7881 17.5799 76.8595 17.5498 76.9215 17.505C76.9836 17.4601 77.0346 17.4018 77.0708 17.3343H77.2432C78.1904 17.3714 79.1391 17.3382 80.0814 17.2348C80.1808 17.3285 80.3097 17.3848 80.4461 17.394C80.9103 17.394 81.2816 16.8701 81.3413 16.5717C81.3981 16.2633 81.4269 15.9503 81.4275 15.6367C81.4308 15.5233 81.3929 15.4126 81.321 15.3249C81.2492 15.2372 81.1481 15.1784 81.0363 15.1592" fill="#060000"/>
<path d="M81.023 15.1261C80.901 15.1085 80.7767 15.134 80.6714 15.1981C80.5661 15.2623 80.4864 15.3611 80.4461 15.4776C80.3599 15.8091 80.2538 15.9418 79.7829 16.081C78.894 16.2773 77.973 16.2773 77.084 16.081C76.9776 15.6879 76.9307 15.2811 76.9448 14.8741C76.9352 14.6288 76.9597 14.3833 77.0177 14.1447C77.4434 14.0796 77.8736 14.0485 78.3042 14.0518C78.3059 14.1867 78.3602 14.3156 78.4556 14.411C78.551 14.5064 78.6799 14.5607 78.8148 14.5624L79.1729 14.4165L79.3188 14.0452C79.3482 13.8872 79.3972 13.7335 79.4647 13.5876C79.51 13.5018 79.5336 13.4062 79.5336 13.3091C79.5336 13.2121 79.51 13.1165 79.4647 13.0306C79.4106 12.9523 79.3383 12.8885 79.2539 12.8445C79.1695 12.8006 79.0757 12.778 78.9806 12.7786C78.8744 12.7714 78.7684 12.7951 78.6754 12.8469C78.5824 12.8987 78.5064 12.9763 78.4567 13.0704C77.9709 13.1006 77.4837 13.1006 76.9978 13.0704C76.9978 13.0041 76.9978 12.9179 76.9978 12.8184C76.9934 12.5236 77.0268 12.2294 77.0973 11.9431C77.7951 11.7792 78.5214 11.7792 79.2193 11.9431C79.5044 12.0359 79.6835 12.3211 79.8824 12.6858C79.9522 12.8062 80.063 12.8973 80.1946 12.9424C80.3263 12.9874 80.4697 12.9835 80.5986 12.9311C80.7199 12.8969 80.8242 12.8191 80.8915 12.7126C80.9589 12.6061 80.9844 12.4784 80.9633 12.3542L80.8838 11.9829C80.8548 11.6675 80.7427 11.3654 80.5588 11.1075C80.3667 10.8963 80.1059 10.76 79.8227 10.7229L79.4779 10.8025C79.3771 10.8515 79.2635 10.8677 79.153 10.8489C78.5598 10.7908 77.9624 10.7908 77.3692 10.8489C77.3692 10.8489 77.3692 10.8025 77.3692 10.7826C77.2976 10.6401 77.1771 10.5281 77.0298 10.4673C76.8824 10.4064 76.718 10.4006 76.5668 10.451C76.4329 10.5136 76.308 10.5939 76.1954 10.6898C75.9681 10.9016 75.6809 11.0382 75.3732 11.081C75.2991 11.0774 75.2251 11.0885 75.1553 11.1136C75.0856 11.1387 75.0215 11.1773 74.9666 11.2272C74.9118 11.277 74.8674 11.3373 74.8359 11.4044C74.8043 11.4714 74.7864 11.5441 74.783 11.6181C74.7949 11.7384 74.8451 11.8517 74.9263 11.9413C75.0075 12.0308 75.1153 12.0919 75.2339 12.1155C75.2339 12.1155 75.2339 12.3476 75.2339 12.3476C75.2339 12.8913 75.2339 13.3489 75.2339 13.7402C75.2592 14.4044 75.2326 15.0695 75.1543 15.7296C74.982 15.8911 74.8757 16.1109 74.8559 16.3463C74.8513 16.3859 74.8513 16.426 74.8559 16.4656C74.8821 16.5713 74.9339 16.669 75.0067 16.75C75.0796 16.8309 75.1713 16.8927 75.2737 16.9298L75.5787 17.0558C75.7734 17.1236 75.962 17.2079 76.1424 17.3078C76.1961 17.4086 76.2798 17.4903 76.382 17.5414C76.4842 17.5925 76.5998 17.6105 76.7126 17.5929C76.7881 17.5799 76.8595 17.5498 76.9215 17.505C76.9836 17.4601 77.0346 17.4018 77.0708 17.3343H77.2432C78.1904 17.3714 79.1391 17.3382 80.0814 17.2348C80.1808 17.3285 80.3097 17.3848 80.4461 17.394C80.9103 17.394 81.2816 16.8701 81.3413 16.5717C81.3981 16.2633 81.4269 15.9503 81.4275 15.6367C81.4389 15.5159 81.4032 15.3953 81.3278 15.3002C81.2525 15.205 81.1432 15.1427 81.023 15.1261Z" stroke="#060000" stroke-width="0.603" stroke-linecap="round" stroke-linejoin="round"/>
<path d="M89.995 17.6061C90.0348 17.2414 89.6833 17.0955 89.3716 16.943C88.7085 16.6645 87.1104 14.4762 86.9777 14.0916C86.975 13.962 86.9372 13.8356 86.8683 13.7258C86.7994 13.616 86.702 13.527 86.5865 13.4682C86.8468 13.356 87.115 13.2629 87.3889 13.1897L87.6541 13.1234V12.8515C87.6645 12.5741 87.7671 12.308 87.9459 12.0955C88.0847 11.9383 88.1766 11.7453 88.2111 11.5385V11.3462L88.0586 11.1937L87.8597 10.9947C87.7051 10.8301 87.5365 10.6792 87.3557 10.5438L87.2827 10.4908H87.1966C87.0065 10.4592 86.8112 10.4895 86.6395 10.577L86.5069 10.63C86.2446 10.6573 85.9801 10.6573 85.7178 10.63C85.3888 10.6066 85.0586 10.6066 84.7297 10.63H84.6899C84.5085 10.6675 84.3325 10.7276 84.1661 10.8091C84.1605 10.7443 84.1425 10.6813 84.113 10.6234C84.0212 10.5027 83.8908 10.4172 83.7436 10.381C83.5964 10.3448 83.4412 10.3601 83.304 10.4244C83.2468 10.4519 83.1915 10.4829 83.1382 10.5173C82.8222 10.7333 82.4896 10.924 82.1435 11.0876C82.0559 11.0896 81.97 11.1123 81.8928 11.1538C81.8156 11.1953 81.7493 11.2544 81.6992 11.3263C81.6481 11.4054 81.6205 11.4974 81.6196 11.5916C81.6204 11.6777 81.6432 11.7621 81.6859 11.8369C81.7276 11.9112 81.7857 11.9749 81.8558 12.0232C81.926 12.0714 82.0062 12.103 82.0905 12.1154C82.0905 12.3409 82.0905 12.5465 82.0905 12.7785C82.1165 13.6857 82.0877 14.5937 82.0043 15.4974C81.888 15.6711 81.8194 15.8724 81.8053 16.0809C81.796 16.1447 81.796 16.2095 81.8053 16.2733C81.8426 16.3872 81.9039 16.4917 81.9852 16.5798C82.0664 16.6679 82.1656 16.7375 82.2761 16.7839H82.2297C82.4183 16.917 82.5918 17.0705 82.747 17.2414C82.8078 17.3594 82.9055 17.4543 83.0251 17.5117C83.1448 17.5692 83.28 17.586 83.4101 17.5597C83.5199 17.5366 83.619 17.4779 83.6921 17.3928C83.7652 17.3077 83.8083 17.2009 83.8146 17.0889C83.8146 16.9165 83.8146 16.6844 83.8146 16.4258C83.8146 16.1671 83.8146 16.0412 83.8146 15.8356C83.8146 15.63 83.8146 15.3979 83.8146 15.1725C83.8146 14.7547 83.8146 14.3701 83.8146 14.1181C84.0512 13.9396 84.3346 13.8337 84.6302 13.813C85.0215 13.9324 85.6979 15.1393 86.1886 16.0213C86.5778 16.8517 87.0997 17.6132 87.7337 18.2759C88.0653 18.5279 88.3968 18.6937 88.735 18.3356C88.9323 18.1859 89.1579 18.0776 89.3981 18.0173C89.7827 17.9576 89.8822 17.752 89.9021 17.5995M85.8371 12.3276L85.174 12.5133C84.6766 12.6592 84.0931 12.825 83.6223 12.9841C83.6485 12.7211 83.7383 12.4684 83.8838 12.2478C84.0294 12.0271 84.2264 11.8452 84.4578 11.7175C84.5487 11.7972 84.6624 11.846 84.7828 11.8568C84.9413 11.8603 85.0976 11.8189 85.2337 11.7375C85.2771 11.7112 85.324 11.6911 85.373 11.6778C85.6278 11.6228 85.8902 11.6116 86.1488 11.6446C86.1488 11.8502 86.0029 12.2613 85.8106 12.3077" fill="#060000"/>
<path d="M89.995 17.6061C90.0348 17.2414 89.6833 17.0955 89.3716 16.943C88.7085 16.6645 87.1104 14.4762 86.9777 14.0916C86.975 13.962 86.9372 13.8356 86.8683 13.7258C86.7994 13.616 86.702 13.527 86.5865 13.4682C86.8468 13.356 87.115 13.2629 87.3889 13.1897L87.6541 13.1234V12.8515C87.6645 12.5741 87.7671 12.308 87.9459 12.0955C88.0847 11.9383 88.1766 11.7453 88.2111 11.5385V11.3462L88.0586 11.1937L87.8597 10.9947C87.7051 10.8301 87.5365 10.6792 87.3557 10.5438L87.2827 10.4908H87.1966C87.0065 10.4592 86.8112 10.4895 86.6395 10.577L86.5069 10.63C86.2446 10.6573 85.9801 10.6573 85.7178 10.63C85.3888 10.6066 85.0586 10.6066 84.7297 10.63H84.6899C84.5085 10.6675 84.3325 10.7276 84.1661 10.8091C84.1605 10.7443 84.1425 10.6813 84.113 10.6234C84.0212 10.5027 83.8908 10.4172 83.7436 10.381C83.5964 10.3448 83.4412 10.3601 83.304 10.4244C83.2468 10.4519 83.1915 10.4829 83.1382 10.5173C82.8222 10.7333 82.4896 10.924 82.1435 11.0876C82.0559 11.0896 81.97 11.1123 81.8928 11.1538C81.8156 11.1953 81.7493 11.2544 81.6992 11.3263C81.6481 11.4054 81.6205 11.4974 81.6196 11.5916C81.6204 11.6777 81.6432 11.7621 81.6859 11.8369C81.7276 11.9112 81.7857 11.9749 81.8558 12.0232C81.926 12.0714 82.0062 12.103 82.0905 12.1154C82.0905 12.3409 82.0905 12.5465 82.0905 12.7785C82.1165 13.6857 82.0877 14.5937 82.0043 15.4974C81.888 15.6711 81.8194 15.8724 81.8053 16.0809C81.796 16.1447 81.796 16.2095 81.8053 16.2733C81.8426 16.3872 81.9039 16.4917 81.9852 16.5798C82.0664 16.6679 82.1656 16.7375 82.2761 16.7839H82.2297C82.4183 16.917 82.5918 17.0705 82.747 17.2414C82.8078 17.3594 82.9055 17.4543 83.0251 17.5117C83.1448 17.5692 83.28 17.586 83.4101 17.5597C83.5199 17.5366 83.619 17.4779 83.6921 17.3928C83.7652 17.3077 83.8083 17.2009 83.8146 17.0889C83.8146 16.9165 83.8146 16.6844 83.8146 16.4258C83.8146 16.1671 83.8146 16.0412 83.8146 15.8356C83.8146 15.63 83.8146 15.3979 83.8146 15.1725C83.8146 14.7547 83.8146 14.3701 83.8146 14.1181C84.0512 13.9396 84.3346 13.8337 84.6302 13.813C85.0215 13.9324 85.6979 15.1393 86.1886 16.0213C86.5778 16.8517 87.0997 17.6132 87.7337 18.2759C88.0653 18.5279 88.3968 18.6937 88.735 18.3356C88.9323 18.1859 89.1579 18.0776 89.3981 18.0173C89.869 17.9642 89.995 17.7785 89.995 17.6061ZM85.93 12.3343L85.2668 12.5199C84.7695 12.6658 84.186 12.8316 83.7151 12.9908C83.7414 12.7277 83.8311 12.475 83.9767 12.2544C84.1222 12.0338 84.3192 11.8518 84.5507 11.7242C84.6415 11.8038 84.7553 11.8526 84.8756 11.8634C85.0342 11.8669 85.1905 11.8255 85.3265 11.7441C85.37 11.7179 85.4168 11.6978 85.4658 11.6844C85.7206 11.6295 85.983 11.6183 86.2417 11.6512C86.2616 11.8634 86.1157 12.2746 85.93 12.3409V12.3343Z" stroke="#060000" stroke-width="0.603" stroke-linecap="round" stroke-linejoin="round"/>
<path d="M40.3135 21.5518H43.6755V22.0358H41.0761V22.6724H42.5946V23.1565H41.0761V23.8594H43.7087V24.3966H40.3135V21.5518Z" fill="#8DC63F"/>
<path d="M47.4155 21.5518H47.9394L50.2537 23.2295C50.3891 23.319 50.5156 23.4212 50.6317 23.5345C50.6317 23.2958 50.6317 23.13 50.6317 23.0438V21.5518H51.2949V24.4098H50.771L48.3572 22.6525C48.2614 22.5815 48.1705 22.504 48.0853 22.4205C48.0932 22.5707 48.0932 22.7212 48.0853 22.8714V24.4098H47.4222L47.4155 21.5518Z" fill="#8DC63F"/>
<path d="M55.2537 21.5518H58.6224V22.0358H56.0229V22.6724H57.5348V23.1565H56.0229V23.8594H58.6489V24.3966H55.2537V21.5518Z" fill="#8DC63F"/>
<path d="M64.8361 22.0424C65.0748 22.0424 65.1809 22.0822 65.1809 22.2679V22.6061C65.1809 22.7917 65.0748 22.8315 64.8361 22.8315H63.1119V22.0357L64.8361 22.0424ZM62.3626 24.4097H63.1119V23.3355H63.8414L65.1676 24.4097H66.2618L64.7432 23.3355H65.1743C65.6782 23.3355 65.9103 23.183 65.9103 22.7851V22.1219C65.9103 21.7241 65.6716 21.5715 65.1743 21.5715H62.356L62.3626 24.4097Z" fill="#8DC63F"/>
<path d="M70.4657 22.0624V23.8661H72.8596V23.203H71.6064V22.7189H73.5957V23.7468C73.5957 24.2839 73.3968 24.4099 72.7801 24.4099H70.5122C69.8955 24.4099 69.6965 24.2706 69.6965 23.7468V22.2481C69.6965 21.7176 69.8888 21.585 70.5122 21.585H72.7536C73.3504 21.585 73.5692 21.7176 73.5692 22.2481V22.3144L72.8265 22.4271V22.1089L70.4657 22.0624Z" fill="#8DC63F"/>
<path d="M78.4367 23.1234L76.7258 21.5518H77.7404L78.8744 22.6459L80.0083 21.5518H80.9102L79.2059 23.1035V24.3966H78.4367V23.1234Z" fill="#8DC63F"/>
<path d="M39.8493 11.1075C39.4946 10.9407 39.1589 10.7361 38.848 10.4974C38.7183 10.3887 38.5521 10.3337 38.3832 10.3435C38.2143 10.3534 38.0556 10.4274 37.9395 10.5505C37.8479 10.6449 37.7958 10.7705 37.7936 10.902L37.714 10.9616C36.7838 11.8873 35.9669 12.9202 35.2803 14.0386C34.4405 12.7761 33.512 11.5751 32.5018 10.4444L32.3095 10.3118L31.6464 10.6367L30.519 11.1871L30.9435 11.585C31.149 11.764 31.1623 11.8104 31.1888 11.9364L31.2617 12.2083C31.3042 12.5336 31.3197 12.8619 31.3082 13.1897C31.3268 13.9686 31.2758 14.7476 31.1557 15.5173C30.9805 15.726 30.8947 15.9952 30.9169 16.2667C30.93 16.3715 30.9652 16.4724 31.0201 16.5627C31.0749 16.6529 31.1482 16.7306 31.2352 16.7906C31.3454 16.8821 31.4415 16.9893 31.5204 17.1088C31.5401 17.1966 31.5817 17.278 31.6415 17.3453C31.7013 17.4125 31.7772 17.4635 31.8621 17.4933C31.9469 17.5231 32.0381 17.5309 32.1268 17.5158C32.2155 17.5008 32.2989 17.4634 32.3692 17.4073C32.44 17.3515 32.4946 17.2779 32.5272 17.1939C32.5599 17.1099 32.5694 17.0187 32.5549 16.9298C32.5549 16.8436 32.5549 16.3794 32.5549 15.7892C32.5549 15.0001 32.5549 13.9921 32.5549 13.3025L33.1649 14.1447L34.4912 15.9484C34.5466 16.0445 34.6232 16.1267 34.7151 16.1887C34.807 16.2508 34.9118 16.291 35.0217 16.3065C35.1055 16.3078 35.1885 16.2899 35.2643 16.2543C35.3402 16.2187 35.4069 16.1662 35.4594 16.1009H35.5323C35.7285 16.0642 35.9183 15.9995 36.0959 15.9086L36.653 15.6301L36.1623 15.2521C36.0857 15.1799 36.0168 15.0998 35.9567 15.0134C36.5361 14.0217 37.2018 13.083 37.9461 12.2083C37.9461 12.5134 37.9461 12.9577 37.9461 13.581C37.9461 14.5691 37.9461 15.9749 37.9461 17.8847V18.4882C37.944 18.6164 37.9908 18.7405 38.0771 18.8354C38.1633 18.9302 38.2825 18.9887 38.4103 18.9988C38.5219 19.0083 38.6337 18.9836 38.7309 18.9279C38.828 18.8722 38.9059 18.7882 38.9541 18.6871C39.027 18.6274 39.2326 18.5014 39.3586 18.4285L39.7167 18.203C39.8104 18.1512 39.8887 18.0754 39.9435 17.9833C39.9983 17.8913 40.0276 17.7863 40.0283 17.6792C40.0179 17.5133 39.9751 17.3511 39.9023 17.2017L39.8426 17.0558C39.7449 15.8781 39.7162 14.6957 39.7564 13.5147C39.7564 13.1102 39.7564 12.6659 39.7564 12.1884V12.0823C39.8548 12.0648 39.946 12.0191 40.0189 11.9509C40.0919 11.8826 40.1435 11.7947 40.1676 11.6977C40.1709 11.6669 40.1709 11.6357 40.1676 11.6049C40.1627 11.4908 40.1233 11.3809 40.0547 11.2898C39.986 11.1986 39.8913 11.1304 39.783 11.0943" fill="#A7A9AC"/>
<path d="M49.5441 11.691C49.3588 11.442 49.112 11.2455 48.8279 11.1207C48.7209 11.0681 48.6188 11.0059 48.5229 10.935C48.412 10.8594 48.2833 10.8142 48.1495 10.8037C48.0157 10.7932 47.8815 10.8179 47.7603 10.8753C47.5928 10.9366 47.4142 10.9615 47.2364 10.9483C46.9115 10.9151 46.5733 10.8886 46.2417 10.8687C46.2417 10.5371 46.2881 10.2056 46.3014 9.88065V9.67508C46.3319 9.55272 46.3322 9.42477 46.3021 9.30229C46.2721 9.17981 46.2127 9.06649 46.129 8.97216C46.0448 8.90393 45.9451 8.85736 45.8388 8.83655C45.7324 8.81574 45.6226 8.82133 45.5189 8.8528L45.3929 8.88595C45.3219 8.91081 45.2486 8.92859 45.174 8.93901C45.2602 8.93901 44.7099 8.83953 44.6568 8.90584C44.6165 8.97723 44.5916 9.05631 44.5839 9.13794V9.15784C44.5746 9.3663 44.6302 9.57252 44.743 9.74803L44.8226 9.90054C44.8577 10.0005 44.8735 10.1063 44.869 10.2122C44.863 10.4148 44.8408 10.6166 44.8027 10.8157C44.186 10.8157 43.682 10.8157 43.4366 10.8753L43.3239 10.7958C43.1184 10.6432 42.8067 10.4178 42.5083 10.6366C42.1572 10.9043 41.774 11.127 41.3677 11.2998L40.751 11.4788L41.255 12.0093C41.3544 12.1154 41.381 12.1353 41.381 12.2414C41.381 12.3475 41.381 12.3077 41.381 12.3541C41.381 12.4005 41.381 12.5067 41.381 12.5862C41.3882 13.4742 41.6269 14.3449 42.0734 15.1124C42.52 15.88 43.159 16.5178 43.9274 16.9629C43.9881 16.9888 44.0442 17.0247 44.0932 17.069C44.1384 17.1855 44.2175 17.2857 44.3204 17.3567C44.4233 17.4276 44.5451 17.466 44.6701 17.4669H44.8093C44.8093 17.5928 44.8093 17.6989 44.8093 17.7918C44.816 17.8911 44.816 17.9908 44.8093 18.0902L44.3849 17.9311L44.4711 18.5942C44.4951 18.7373 44.5535 18.8724 44.6413 18.9879C44.7291 19.1034 44.8437 19.1959 44.9751 19.2573L45.1343 19.3435L45.3332 19.2507H45.5653C45.6835 19.2583 45.8014 19.2317 45.9049 19.174C46.0084 19.1164 46.0931 19.0302 46.1489 18.9257C46.2764 18.5996 46.2764 18.2373 46.1489 17.9112C46.1183 17.807 46.0961 17.7006 46.0826 17.5929C46.0826 17.5929 46.0826 17.4602 46.0826 17.2679C46.2298 17.2066 46.3515 17.0966 46.4274 16.9563C46.6926 16.817 46.9645 16.691 47.2231 16.5783C47.8234 16.3682 48.3725 16.0338 48.8345 15.5968C49.0998 15.305 49.1993 14.5624 49.312 13.1035L49.3518 12.6326C49.3721 12.516 49.4173 12.4052 49.4844 12.3077C49.5711 12.1898 49.6219 12.0493 49.6303 11.9032C49.6294 11.809 49.6018 11.717 49.5507 11.6379L49.5441 11.691ZM43.808 14.1645C43.5056 13.6103 43.3269 12.9972 43.2841 12.3674C43.2826 12.2778 43.2938 12.1885 43.3173 12.1021C43.4745 12.1905 43.6563 12.2247 43.8349 12.1995C44.0134 12.1744 44.1787 12.0912 44.3053 11.9629L44.5109 11.8236H44.7165C44.7165 11.9165 44.7165 12.0093 44.7165 12.1021C44.7165 12.4337 44.7165 12.7653 44.6635 13.1565C44.6104 13.5478 44.6038 13.9059 44.6038 14.2639C44.6038 14.3303 44.6038 14.3966 44.6038 14.4629C44.6038 14.7613 44.6038 15.0663 44.6502 15.3714C44.301 15.0185 44.012 14.6108 43.7948 14.1645M47.3226 15.0133C46.9636 15.4026 46.5217 15.7063 46.0295 15.9019V14.8608C46.0324 14.6654 46.0479 14.4705 46.0759 14.2772C46.1219 13.9856 46.1352 13.6898 46.1157 13.3952C46.0775 13.0803 46.0775 12.7619 46.1157 12.447C46.1323 12.2905 46.1323 12.1326 46.1157 11.9761V11.9231C46.5656 11.9505 47.0107 12.0306 47.442 12.1618C47.5472 12.4896 47.5987 12.8322 47.5945 13.1764C47.579 13.7971 47.5012 14.4147 47.3624 15.0199" fill="#A7A9AC"/>
<path d="M57.4419 9.34365H57.4088C57.2048 9.22268 57.0176 9.07554 56.8518 8.90598H56.812C56.713 8.83557 56.5952 8.79633 56.4738 8.79326C56.3259 8.79138 56.183 8.84704 56.0753 8.9485C55.9677 9.04995 55.9037 9.18925 55.8969 9.33701C55.899 9.41154 55.9165 9.48483 55.9485 9.55219C55.9805 9.61955 56.0261 9.6795 56.0825 9.72825C56.1086 9.74748 56.1299 9.77241 56.1448 9.80115C56.1598 9.82988 56.168 9.86166 56.1687 9.89404V10.272C56.1687 10.272 56.1687 13.5877 56.1687 13.8065C55.9698 13.6474 55.7642 13.4882 55.5719 13.3224L55.1409 12.9643L54.4777 12.4338L51.9048 10.3914L51.6594 10.597C51.4099 10.7948 51.1237 10.9413 50.8173 11.028L50.0149 11.3131L50.7576 11.7376C50.9035 11.8238 50.9167 12.1155 50.9234 12.3211V12.3675C50.9565 12.7986 50.9632 13.2429 50.9632 13.6938V14.463C50.9802 14.8637 50.9647 15.2651 50.9167 15.6633V15.7163C50.8082 15.8976 50.7445 16.1023 50.731 16.3132C50.7406 16.442 50.7768 16.5674 50.8373 16.6815C50.8978 16.7957 50.9813 16.896 51.0825 16.9763C51.15 17.0339 51.2063 17.1036 51.2483 17.1818V17.2216C51.2883 17.3205 51.3571 17.405 51.4458 17.4641C51.5345 17.5233 51.639 17.5543 51.7457 17.5532C51.8141 17.5523 51.8818 17.5379 51.9447 17.5107C52.0075 17.4835 52.0644 17.444 52.1119 17.3947C52.1594 17.3453 52.1966 17.287 52.2214 17.2232C52.2462 17.1593 52.258 17.0912 52.2563 17.0227C52.2563 17.0227 52.2098 13.3158 52.1966 12.6924C53.2841 13.4948 55.9035 15.6169 56.1754 15.9285C56.2058 16.0362 56.217 16.1485 56.2085 16.2601V16.6115V17.0426C56.203 17.1089 56.2113 17.1756 56.2327 17.2385C56.2542 17.3015 56.2884 17.3593 56.3332 17.4085C56.378 17.4576 56.4324 17.497 56.4931 17.5242C56.5538 17.5514 56.6195 17.5658 56.686 17.5665C56.7842 17.5605 56.8795 17.5308 56.9638 17.48C57.0481 17.4292 57.1189 17.3588 57.1701 17.2747C57.2464 17.1393 57.34 17.0145 57.4486 16.9033C57.516 16.8465 57.5701 16.7753 57.6068 16.6951C57.6435 16.6148 57.6619 16.5274 57.6608 16.4391C57.6538 16.2735 57.6132 16.1111 57.5414 15.9617C57.513 15.8982 57.4929 15.8314 57.4817 15.7627C57.4817 15.7627 57.4817 10.3582 57.4817 10.2787C57.5776 10.2516 57.6622 10.1945 57.7231 10.1157C57.784 10.0369 57.8179 9.94058 57.8199 9.841C57.8139 9.74288 57.7827 9.64798 57.7293 9.56549C57.6758 9.48299 57.602 9.41572 57.5149 9.37018" fill="#A7A9AC"/>
<path d="M65.519 13.1033C65.3164 13.0121 65.1355 12.8787 64.9884 12.7121C64.8795 12.5456 64.7112 12.4268 64.5178 12.38C64.3243 12.3332 64.1204 12.3618 63.9473 12.4601C63.8368 12.5495 63.6981 12.5965 63.5561 12.5927H63.1715C62.7205 12.5927 62.0243 12.5927 61.6662 12.5927C61.5306 12.425 61.4107 12.2452 61.3081 12.0556H61.4805C61.5402 12.0556 61.8187 12.0556 62.0243 12.1086C62.3956 12.1484 62.6542 12.1749 62.7935 12.1749C63.1599 12.1891 63.5264 12.1488 63.881 12.0556L64.133 11.9959C64.3049 11.9874 64.4771 12.0053 64.6436 12.0489H64.7563C64.8596 12.076 64.9681 12.0749 65.0708 12.0457C65.1734 12.0166 65.2663 11.9604 65.3399 11.8831C65.4022 11.8207 65.4459 11.7423 65.4663 11.6565C65.4867 11.5708 65.483 11.481 65.4555 11.3973C65.4281 11.3135 65.3779 11.239 65.3107 11.1819C65.2435 11.1249 65.1618 11.0876 65.0746 11.0742C64.7633 10.9878 64.4709 10.8438 64.2126 10.6497L63.7749 10.3911C63.6099 10.309 63.4261 10.2719 63.2421 10.2836C63.0582 10.2952 62.8805 10.3552 62.7272 10.4574H62.6741C62.34 10.5668 61.9988 10.6532 61.6529 10.7161C61.3525 10.7708 61.0557 10.8439 60.7643 10.9349L60.6251 10.9813H60.5786C60.4737 10.9077 60.3487 10.8682 60.2205 10.8682C60.0924 10.8682 59.9673 10.9077 59.8624 10.9813L59.637 11.1537C59.5687 11.2188 59.4873 11.2685 59.3982 11.2996C59.3137 11.3225 59.2362 11.366 59.1725 11.4262C59.1089 11.4863 59.0611 11.5613 59.0335 11.6444C59.014 11.7241 59.0154 11.8074 59.0375 11.8864C59.0595 11.9654 59.1016 12.0373 59.1595 12.0954C59.2922 12.3473 59.5773 12.7585 59.8227 13.1696L60.2073 13.7665C60.261 13.8602 60.3368 13.9394 60.4281 13.9972C60.5194 14.055 60.6234 14.0896 60.7311 14.098C60.8423 14.1075 60.9541 14.0888 61.0561 14.0435C61.1581 13.9983 61.247 13.9281 61.3147 13.8394C61.4346 13.7398 61.5835 13.6817 61.7391 13.6736C61.832 13.6736 62.2763 13.6736 62.568 13.6736H63.1914C63.2054 13.7076 63.2054 13.7457 63.1914 13.7797C63.0587 14.7147 62.2431 16.724 61.8253 16.9959C61.7275 17.0592 61.6146 17.0956 61.4982 17.1014C61.3818 17.1073 61.2659 17.0823 61.1622 17.029L61.0096 16.9229C60.8041 16.7837 60.4924 16.5649 60.2603 16.3726C60.146 16.2679 60.0053 16.1964 59.8533 16.166C59.7014 16.1356 59.544 16.1474 59.3982 16.2001C59.293 16.2412 59.2001 16.3084 59.1281 16.3954C59.0562 16.4825 59.0076 16.5864 58.9871 16.6975C58.9861 16.7174 58.9861 16.7373 58.9871 16.7572C58.9881 16.845 59.0103 16.9313 59.0519 17.0087C59.0934 17.086 59.1531 17.1522 59.2258 17.2015C59.4447 17.354 59.6502 17.533 59.889 17.7121L60.4526 18.1696L60.5521 18.4548C60.7378 18.7068 61.2152 18.7267 61.4341 18.7267C63.702 18.7267 65.1476 15.3712 65.6913 14.0847V14.0317L65.7444 13.9521C65.8499 13.8269 65.9126 13.6712 65.9235 13.5078C65.9289 13.466 65.9289 13.4237 65.9235 13.3818C65.8974 13.2869 65.8506 13.199 65.7863 13.1245C65.7221 13.0499 65.6421 12.9906 65.5521 12.9508" fill="#A7A9AC"/>
<path d="M73.9141 11.5982C73.8544 11.2069 73.808 10.9351 73.5626 10.756L73.503 10.7162C73.4145 10.6367 73.3063 10.5824 73.1896 10.559C73.0729 10.5357 72.9521 10.5442 72.8399 10.5836H72.7736L72.5348 10.6565C72.3223 10.7315 72.0954 10.7565 71.8717 10.7295C71.3146 10.7295 70.0149 10.7295 68.9738 10.7295H67.6475C67.5376 10.7341 67.4282 10.7113 67.3292 10.6632C67.2227 10.6077 67.1045 10.5781 66.9844 10.577C66.6713 10.6029 66.3775 10.7392 66.1555 10.9616C66.0066 11.1981 65.899 11.4582 65.8372 11.7308L65.751 11.9961C65.728 12.0575 65.7168 12.1228 65.7178 12.1884C65.7184 12.2836 65.747 12.3765 65.8 12.4555C65.8531 12.5345 65.9283 12.5961 66.0163 12.6327C66.1594 12.6965 66.3205 12.7075 66.4711 12.6638C66.6216 12.6201 66.7518 12.5245 66.8385 12.3939C66.9446 12.1289 67.1489 11.9151 67.4088 11.7971C67.8805 11.7145 68.3629 11.7145 68.8346 11.7971C68.8346 11.9563 68.8346 12.195 68.8346 12.4603C68.8346 13.5677 68.7417 15.3382 68.6887 15.5969L68.6422 15.6963C68.5709 15.8096 68.5241 15.9366 68.5047 16.069C68.4852 16.2015 68.4937 16.3365 68.5295 16.4655C68.5658 16.5521 68.62 16.6299 68.6886 16.6939C68.7572 16.7579 68.8386 16.8067 68.9274 16.8369C69.179 16.9247 69.416 17.0499 69.6303 17.2083C69.6859 17.3098 69.7725 17.3909 69.8775 17.4398C69.9825 17.4887 70.1003 17.5029 70.2138 17.4801C70.3294 17.4704 70.4374 17.4183 70.5169 17.3338C70.5965 17.2494 70.642 17.1385 70.6449 17.0226V16.4523C70.6449 16.1804 70.6449 15.7892 70.6449 15.2852C70.6207 14.1213 70.6583 12.957 70.7576 11.7971C71.3126 11.7026 71.8809 11.7206 72.4287 11.8502C72.694 11.9629 72.7271 12.0292 72.7934 12.1618L72.8597 12.2878C72.9285 12.4112 73.0393 12.5059 73.1719 12.5546C73.3046 12.6032 73.4503 12.6027 73.5826 12.5531C73.7059 12.5146 73.8105 12.4313 73.8755 12.3196C73.9406 12.2079 73.9614 12.0759 73.934 11.9496L73.8677 11.6048" fill="#A7A9AC"/>
<path d="M81.023 15.1261C80.901 15.1085 80.7767 15.134 80.6714 15.1981C80.5661 15.2623 80.4864 15.3611 80.4461 15.4776C80.3599 15.8091 80.2538 15.9418 79.7829 16.081C78.894 16.2773 77.973 16.2773 77.084 16.081C76.9776 15.6879 76.9307 15.2811 76.9448 14.8741C76.9352 14.6288 76.9597 14.3833 77.0177 14.1447C77.4434 14.0796 77.8736 14.0485 78.3042 14.0518C78.3059 14.1867 78.3602 14.3156 78.4556 14.411C78.551 14.5064 78.6799 14.5607 78.8148 14.5624L79.1729 14.4165L79.3188 14.0452C79.3482 13.8872 79.3972 13.7335 79.4647 13.5876C79.51 13.5018 79.5336 13.4062 79.5336 13.3091C79.5336 13.2121 79.51 13.1165 79.4647 13.0306C79.4106 12.9523 79.3383 12.8885 79.2539 12.8445C79.1695 12.8006 79.0757 12.778 78.9806 12.7786C78.8744 12.7714 78.7684 12.7951 78.6754 12.8469C78.5824 12.8987 78.5064 12.9763 78.4567 13.0704C77.9709 13.1006 77.4837 13.1006 76.9978 13.0704C76.9978 13.0041 76.9978 12.9179 76.9978 12.8184C76.9934 12.5236 77.0268 12.2294 77.0973 11.9431C77.7951 11.7792 78.5214 11.7792 79.2193 11.9431C79.5044 12.0359 79.6835 12.3211 79.8824 12.6858C79.9522 12.8062 80.063 12.8973 80.1946 12.9424C80.3263 12.9874 80.4697 12.9835 80.5986 12.9311C80.7199 12.8969 80.8242 12.8191 80.8915 12.7126C80.9589 12.6061 80.9844 12.4784 80.9633 12.3542L80.8838 11.9829C80.8548 11.6675 80.7427 11.3654 80.5588 11.1075C80.3667 10.8963 80.1059 10.76 79.8227 10.7229L79.4779 10.8025C79.3771 10.8515 79.2635 10.8677 79.153 10.8489C78.5598 10.7908 77.9624 10.7908 77.3692 10.8489C77.3692 10.8489 77.3692 10.8025 77.3692 10.7826C77.2976 10.6401 77.1771 10.5281 77.0298 10.4673C76.8824 10.4064 76.718 10.4006 76.5668 10.451C76.4329 10.5136 76.308 10.5939 76.1954 10.6898C75.9681 10.9016 75.6809 11.0382 75.3732 11.081C75.2991 11.0774 75.2251 11.0885 75.1553 11.1136C75.0856 11.1387 75.0215 11.1773 74.9666 11.2272C74.9118 11.277 74.8674 11.3373 74.8359 11.4044C74.8043 11.4714 74.7864 11.5441 74.783 11.6181C74.7949 11.7384 74.8451 11.8517 74.9263 11.9413C75.0075 12.0308 75.1153 12.0919 75.2339 12.1155C75.2339 12.1155 75.2339 12.3476 75.2339 12.3476C75.2339 12.8913 75.2339 13.3489 75.2339 13.7402C75.2592 14.4044 75.2326 15.0695 75.1543 15.7296C74.982 15.8911 74.8757 16.1109 74.8559 16.3463C74.8513 16.3859 74.8513 16.426 74.8559 16.4656C74.8821 16.5713 74.9339 16.669 75.0067 16.75C75.0796 16.8309 75.1713 16.8927 75.2737 16.9298L75.5787 17.0558C75.7734 17.1236 75.962 17.2079 76.1424 17.3078C76.1961 17.4086 76.2798 17.4903 76.382 17.5414C76.4842 17.5925 76.5998 17.6105 76.7126 17.5929C76.7881 17.5799 76.8595 17.5498 76.9215 17.505C76.9836 17.4601 77.0346 17.4018 77.0708 17.3343H77.2432C78.1904 17.3714 79.1391 17.3382 80.0814 17.2348C80.1808 17.3285 80.3097 17.3848 80.4461 17.394C80.9103 17.394 81.2816 16.8701 81.3413 16.5717C81.3981 16.2633 81.4269 15.9503 81.4275 15.6367C81.4308 15.5233 81.3929 15.4126 81.321 15.3249C81.2492 15.2372 81.1481 15.1784 81.0363 15.1592" fill="#A7A9AC"/>
<path d="M89.995 17.6061C90.0348 17.2414 89.6833 17.0955 89.3716 16.943C88.7085 16.6645 87.1104 14.4762 86.9777 14.0916C86.975 13.962 86.9372 13.8356 86.8683 13.7258C86.7994 13.616 86.702 13.527 86.5865 13.4682C86.8468 13.356 87.115 13.2629 87.3889 13.1897L87.6541 13.1234V12.8515C87.6645 12.5741 87.7671 12.308 87.9459 12.0955C88.0847 11.9383 88.1766 11.7453 88.2111 11.5385V11.3462L88.0586 11.1937L87.8597 10.9947C87.7051 10.8301 87.5365 10.6792 87.3557 10.5438L87.2827 10.4908H87.1966C87.0065 10.4592 86.8112 10.4895 86.6395 10.577L86.5069 10.63C86.2446 10.6573 85.9801 10.6573 85.7178 10.63C85.3888 10.6066 85.0586 10.6066 84.7297 10.63H84.6899C84.5085 10.6675 84.3325 10.7276 84.1661 10.8091C84.1605 10.7443 84.1425 10.6813 84.113 10.6234C84.0212 10.5027 83.8908 10.4172 83.7436 10.381C83.5964 10.3448 83.4412 10.3601 83.304 10.4244C83.2468 10.4519 83.1915 10.4829 83.1382 10.5173C82.8222 10.7333 82.4896 10.924 82.1435 11.0876C82.0559 11.0896 81.97 11.1123 81.8928 11.1538C81.8156 11.1953 81.7493 11.2544 81.6992 11.3263C81.6481 11.4054 81.6205 11.4974 81.6196 11.5916C81.6204 11.6777 81.6432 11.7621 81.6859 11.8369C81.7276 11.9112 81.7857 11.9749 81.8558 12.0232C81.926 12.0714 82.0062 12.103 82.0905 12.1154C82.0905 12.3409 82.0905 12.5465 82.0905 12.7785C82.1165 13.6857 82.0877 14.5937 82.0043 15.4974C81.888 15.6711 81.8194 15.8724 81.8053 16.0809C81.796 16.1447 81.796 16.2095 81.8053 16.2733C81.8426 16.3872 81.9039 16.4917 81.9852 16.5798C82.0664 16.6679 82.1656 16.7375 82.2761 16.7839H82.2297C82.4183 16.917 82.5918 17.0705 82.747 17.2414C82.8078 17.3594 82.9055 17.4543 83.0251 17.5117C83.1448 17.5692 83.28 17.586 83.4101 17.5597C83.5199 17.5366 83.619 17.4779 83.6921 17.3928C83.7652 17.3077 83.8083 17.2009 83.8146 17.0889C83.8146 16.9165 83.8146 16.6844 83.8146 16.4258C83.8146 16.1671 83.8146 16.0412 83.8146 15.8356C83.8146 15.63 83.8146 15.3979 83.8146 15.1725C83.8146 14.7547 83.8146 14.3701 83.8146 14.1181C84.0512 13.9396 84.3346 13.8337 84.6302 13.813C85.0215 13.9324 85.6979 15.1393 86.1886 16.0213C86.5778 16.8517 87.0997 17.6132 87.7337 18.2759C88.0653 18.5279 88.3968 18.6937 88.735 18.3356C88.9323 18.1859 89.1579 18.0776 89.3981 18.0173C89.7827 17.9576 89.8822 17.752 89.9021 17.5995M85.8371 12.3276L85.174 12.5133C84.6766 12.6592 84.0931 12.825 83.6223 12.9841C83.6485 12.7211 83.7383 12.4684 83.8838 12.2478C84.0294 12.0271 84.2264 11.8452 84.4578 11.7175C84.5487 11.7972 84.6624 11.846 84.7828 11.8568C84.9413 11.8603 85.0976 11.8189 85.2337 11.7375C85.2771 11.7112 85.324 11.6911 85.373 11.6778C85.6278 11.6228 85.8902 11.6116 86.1488 11.6446C86.1488 11.8502 86.0029 12.2613 85.8106 12.3077" fill="#A7A9AC"/>
<path d="M32.2563 10.809C33.2844 12.0111 34.2431 13.2709 35.1277 14.5822C35.2338 14.7281 35.32 14.695 35.373 14.6154C36.091 13.4103 36.9528 12.297 37.9393 11.2997C38.0454 11.2135 38.2908 11.0544 38.2112 10.9682C38.1316 10.882 38.377 10.63 38.6157 10.8024C38.9465 11.0615 39.3045 11.2839 39.6834 11.4655C39.942 11.5849 39.8558 11.7308 39.6436 11.7374C39.4314 11.744 39.4181 11.8767 39.4181 12.0424C39.4181 12.2082 39.3783 16.8899 39.5242 17.2281C39.6701 17.5663 39.7828 17.7586 39.5242 17.8912C39.2165 18.0598 38.9256 18.2574 38.6555 18.4814C38.6157 18.6737 38.3704 18.6538 38.3704 18.4814C38.3704 18.1499 38.3704 12.0159 38.3704 11.7706C38.3704 11.5252 38.3041 11.313 38.1648 11.439C37.1381 12.5104 36.2472 13.7042 35.5123 14.9934C35.4725 15.0729 35.7576 15.4377 35.9168 15.557C35.446 15.7891 35.3465 15.6631 35.1475 15.8687C34.9486 16.0743 34.9221 15.9284 34.7828 15.7361C33.8412 14.5093 32.9857 13.2493 32.495 12.6326C32.2894 12.3607 32.1436 12.2878 32.1436 12.4138C32.1436 12.6591 32.1436 16.7772 32.1436 16.9894C32.1436 17.2016 31.8982 17.2016 31.8717 16.9894C31.7699 16.786 31.6224 16.6089 31.4407 16.4721C31.182 16.2865 31.2815 15.9416 31.4407 15.7361C31.5998 15.5305 31.7125 12.4204 31.5865 12.0756C31.4605 11.7308 31.5866 11.6512 31.1555 11.2865C31.4539 11.1538 31.8186 10.9549 32.2099 10.7626" fill="white"/>
<path d="M51.8584 10.8156C52.8597 11.5981 53.8478 12.3938 54.8359 13.1896C55.2868 13.5543 55.7311 13.9588 56.2417 14.3103C56.2998 14.3629 56.3707 14.3995 56.4473 14.4164C56.5534 14.4164 56.5003 13.8792 56.5003 13.8394C56.5003 13.1763 56.5003 10.8554 56.5003 10.1922C56.5003 10.053 56.5003 9.9137 56.5003 9.77445C56.4605 9.40972 56.2285 9.36331 56.2285 9.2572C56.235 9.21328 56.2576 9.17336 56.2919 9.14517C56.3262 9.11699 56.3698 9.10257 56.4141 9.1047C56.4626 9.10884 56.5088 9.12729 56.5468 9.15774C56.7432 9.35584 56.9664 9.52548 57.2099 9.66172C57.2762 9.70814 57.3624 9.74793 57.3624 9.82087C57.3624 9.89381 57.2231 9.92035 57.1303 9.93361C57.0375 9.94687 57.0242 10.1524 57.0242 10.2188C57.0242 11.5052 57.0242 14.4429 57.0242 15.736C57.0242 15.9681 57.2032 16.1869 57.2032 16.3991C57.2044 16.4353 57.1965 16.4713 57.1803 16.5037C57.1641 16.5361 57.14 16.564 57.1104 16.5848C56.9729 16.7206 56.8547 16.8745 56.759 17.0424C56.759 17.0755 56.6661 17.175 56.5932 17.175C56.5202 17.175 56.5003 17.0689 56.5003 17.0424C56.5003 16.7771 56.5534 16.5185 56.5534 16.2599C56.5738 16.054 56.5273 15.847 56.4208 15.6697C54.9547 14.3726 53.4183 13.1573 51.8186 12.0291C51.7125 12.0291 51.7258 12.175 51.7258 12.2015C51.7258 13.8063 51.7921 15.4177 51.7921 17.0225C51.7921 17.0689 51.7921 17.1617 51.6728 17.1617C51.5534 17.1617 51.5401 17.0622 51.5136 17.0225C51.3942 16.7108 51.0162 16.5715 51.0162 16.2864C51.038 16.1093 51.0992 15.9394 51.1953 15.789C51.2691 15.2686 51.2957 14.7426 51.2749 14.2174C51.2749 13.5543 51.2749 12.8912 51.2351 12.2612C51.2351 11.976 51.2351 11.5052 50.8704 11.3063C51.221 11.2033 51.5477 11.032 51.8319 10.8023" fill="white"/>
<path d="M62.8532 10.8623C63.1516 10.7164 63.2975 10.6302 63.6092 10.7761C64.0364 11.079 64.5055 11.318 65.0017 11.4856C65.1675 11.5188 65.0813 11.7509 64.8426 11.6912C64.5953 11.6312 64.3405 11.6089 64.0866 11.6249C63.6782 11.748 63.2531 11.8062 62.8267 11.7973C62.568 11.7973 61.6463 11.6646 61.5004 11.6779C61.1092 11.6779 60.7378 11.6779 60.8373 11.9432C61 12.3394 61.2388 12.6998 61.5402 13.0042C61.9314 13.0042 63.2975 13.0042 63.5826 13.0042C63.7974 13.008 64.0073 12.9404 64.1794 12.8119C64.2654 12.7647 64.3661 12.7522 64.4611 12.7768C64.556 12.8015 64.6379 12.8615 64.6901 12.9445C64.8706 13.16 65.0972 13.3323 65.3532 13.4485C65.7312 13.6474 65.4062 13.8331 65.3532 14.0386C64.8824 15.1262 63.4765 18.4684 61.4341 18.4684C61.2427 18.4765 61.052 18.4402 60.8771 18.3623C60.8107 18.2628 60.877 18.1169 60.6914 17.9843C60.3134 17.7124 59.9288 17.3211 59.4845 17.0028C59.2391 16.8304 59.6503 16.4524 60.0415 16.784C60.4328 17.1156 60.824 17.3609 60.9765 17.4471C61.1473 17.5483 61.3432 17.5989 61.5416 17.5931C61.7401 17.5872 61.9327 17.5251 62.0972 17.414C62.694 17.0227 63.5097 14.8211 63.6357 13.9259C63.6515 13.8584 63.6521 13.7882 63.6372 13.7205C63.6224 13.6527 63.5926 13.5892 63.5499 13.5345C63.5073 13.4798 63.453 13.4353 63.391 13.4044C63.3289 13.3734 63.2607 13.3568 63.1914 13.3556C63.0389 13.3556 61.8253 13.3556 61.6927 13.3556C61.4448 13.3742 61.2108 13.4772 61.0296 13.6474C61.0005 13.6813 60.9639 13.7079 60.9228 13.7251C60.8816 13.7422 60.8369 13.7495 60.7924 13.7463C60.7479 13.7431 60.7048 13.7294 60.6665 13.7065C60.6282 13.6836 60.5959 13.652 60.572 13.6142C60.393 13.3026 59.7232 12.3477 59.5176 11.9564C59.4646 11.8437 59.2921 11.784 59.5176 11.6978C59.7201 11.6077 59.9061 11.4845 60.068 11.3331C60.2338 11.2137 60.3134 11.3331 60.5189 11.4127C60.6118 11.4458 60.8174 11.3596 60.9102 11.3264C61.2484 11.1938 62.5481 10.9949 62.8598 10.8357" fill="white"/>
<path d="M67.6807 11.1473C68.4765 11.1473 71.0362 11.1141 71.8717 11.1473C72.2128 11.1742 72.5555 11.122 72.873 10.9948C73.1317 10.9284 73.0653 10.9086 73.3704 11.1075C73.503 11.1871 73.5229 11.7308 73.6025 12.0359C73.6423 12.2149 73.3306 12.2613 73.251 12.1022C73.2025 11.9579 73.1209 11.8269 73.0126 11.7198C72.9044 11.6127 72.7725 11.5325 72.6277 11.4855C71.9322 11.302 71.2011 11.302 70.5057 11.4855C70.247 11.6446 70.3134 15.9218 70.3134 17.0624C70.3134 17.1553 70.068 17.1553 70.0415 17.0624C70.0149 16.9696 69.4579 16.6446 69.133 16.5054C68.808 16.3661 69.0667 15.9484 69.133 15.7362C69.2258 15.4046 69.4049 11.5783 69.1993 11.4789C68.5696 11.3264 67.9126 11.3264 67.2829 11.4789C66.9444 11.6363 66.6754 11.9123 66.5269 12.2547C66.4606 12.3873 66.0826 12.3476 66.1489 12.1884C66.2373 11.8624 66.355 11.545 66.5004 11.2401C66.6482 11.1155 66.8268 11.033 67.0176 11.0014C67.19 11.0014 67.2696 11.1605 67.6807 11.1605" fill="white"/>
<path d="M76.6395 10.7759C76.8186 10.7162 77.0573 10.9217 76.9512 10.9947C76.8451 11.0676 76.6926 11.3064 76.8716 11.2666C77.5871 11.1578 78.3134 11.14 79.0334 11.2135C79.3981 11.2931 79.6037 11.1008 79.7894 11.1008C79.9597 11.1376 80.1147 11.2255 80.2337 11.3528C80.4052 11.683 80.511 12.0433 80.5454 12.4138C80.5454 12.5464 80.2734 12.6326 80.1939 12.4801C80.0286 12.0653 79.7072 11.732 79.2987 11.5517C78.6753 11.3727 77.1767 11.3727 76.7854 11.6578C76.5798 11.8037 76.487 13.3621 76.7058 13.4284C77.3105 13.5059 77.9213 13.5237 78.5295 13.4814C78.8544 13.3952 78.735 13.1764 78.9605 13.183C79.1859 13.1897 79.1926 13.2957 79.1329 13.4615C79.039 13.6584 78.9764 13.8687 78.9472 14.0849C78.9515 14.1024 78.9516 14.1207 78.9478 14.1383C78.9439 14.156 78.9361 14.1725 78.9249 14.1867C78.9138 14.2009 78.8995 14.2123 78.8833 14.2202C78.867 14.2281 78.8492 14.2322 78.8311 14.2322C78.8131 14.2322 78.7953 14.2281 78.7791 14.2202C78.7628 14.2123 78.7486 14.2009 78.7374 14.1867C78.7262 14.1725 78.7184 14.156 78.7145 14.1383C78.7107 14.1207 78.7109 14.1024 78.7151 14.0849C78.7151 14.0186 78.7151 13.7135 78.5228 13.7003C77.9365 13.6708 77.349 13.7266 76.7788 13.866C76.4538 14.1048 76.5533 16.2798 76.8584 16.439C77.4684 16.7772 79.3318 16.691 79.9286 16.5053C80.1491 16.4676 80.3529 16.3637 80.5128 16.2073C80.6727 16.0509 80.7812 15.8496 80.8239 15.63C80.8636 15.5172 81.0294 15.4907 81.0294 15.63C81.0282 15.9169 81.0015 16.2032 80.9499 16.4854C80.9101 16.6644 80.6647 17.0093 80.4525 16.996C80.2403 16.9828 80.3331 16.7971 80.0878 16.8302C79.1412 16.9362 78.1881 16.9716 77.2363 16.9363C76.8849 16.9363 76.7191 16.7639 76.7191 17.0557C76.7191 17.2016 76.4804 17.2149 76.4339 17.0557C76.3875 16.8966 75.7045 16.6711 75.3928 16.5318C75.0811 16.3926 75.2005 16.1605 75.4459 15.9085C75.6912 15.6565 75.5652 12.3541 75.5652 12.0889C75.5652 11.8236 75.5653 11.7175 75.3398 11.7374C75.1143 11.7573 74.9751 11.4589 75.3398 11.4324C76.0029 11.3793 76.3942 10.8753 76.6661 10.7692" fill="white"/>
<path d="M86.58 11.3794C86.7723 11.5519 86.58 12.5333 86.0495 12.7057C85.519 12.8781 84.0203 13.2693 83.397 13.5412C83.3083 13.0962 83.3703 12.6344 83.5732 12.2285C83.7762 11.8226 84.1085 11.4959 84.5177 11.2999C84.6768 11.207 84.8559 11.4723 84.9487 11.4723C85.0416 11.4723 85.2471 11.333 85.4593 11.2999C85.8373 11.2402 86.3546 11.1606 86.6132 11.3794M89.458 17.6394C89.8227 17.5797 89.5641 17.4603 89.2525 17.3277C88.4368 16.9696 86.6596 14.5028 86.5999 14.1911C86.5403 13.8794 86.4938 13.8463 86.2352 13.7733C85.9137 13.6681 85.6046 13.528 85.3135 13.3556C85.3135 13.3556 85.1278 13.2362 85.4195 13.2229C85.6411 13.1927 85.8664 13.2063 86.0827 13.2627C86.468 13.083 86.8672 12.9344 87.2763 12.8184C87.3692 11.9431 87.7869 11.8768 87.8333 11.4922C87.6247 11.2716 87.4033 11.0634 87.1702 10.8688C86.9779 10.8357 86.8718 10.9351 86.6596 11.0014C86.2683 11.1076 85.4328 10.9484 84.7962 11.0014C84.3839 11.1106 84.004 11.3176 83.6888 11.6049C83.5562 11.7375 83.4699 11.7972 83.4699 11.5518C83.4538 11.4363 83.4723 11.3186 83.5231 11.2135C83.5738 11.1085 83.6546 11.0208 83.7551 10.9617C83.9607 10.8158 83.6623 10.6765 83.5164 10.7561C83.1118 11.0247 82.686 11.2598 82.2432 11.459C81.9713 11.459 81.9978 11.7309 82.2432 11.7309C82.4885 11.7309 82.515 11.8503 82.515 12.1089C82.5452 13.2882 82.5076 14.4683 82.4023 15.6434C82.1967 15.9882 82.1304 16.2269 82.515 16.4258C82.7653 16.5949 82.9888 16.8006 83.1782 17.0359C83.2577 17.1818 83.4766 17.215 83.4899 17.0359C83.5296 16.333 83.4501 14.6155 83.5363 13.959C83.7017 13.7746 83.9074 13.6308 84.1374 13.5388C84.3674 13.4468 84.6156 13.409 84.8625 13.4285C85.8506 13.7335 87.1238 17.2017 88.0986 17.9643C88.4368 18.2163 88.4633 18.1832 88.6092 18.0306C88.8569 17.8344 89.1443 17.6941 89.4514 17.6195" fill="white"/>
<path d="M49.2324 11.9031C49.0268 11.5848 48.5692 11.4588 48.2841 11.24C47.999 11.0212 47.7536 11.4058 47.2032 11.3461C46.6528 11.2864 46.2682 11.2599 45.8173 11.2466C45.877 10.7891 45.8969 10.3116 45.9168 9.85404C45.9367 9.39648 46.0494 9.15776 45.6117 9.23733C45.5056 9.23733 44.995 9.48932 44.995 9.15112C44.995 9.50921 45.0945 9.49596 45.2006 9.7811C45.2999 10.2624 45.2817 10.7606 45.1475 11.2334C44.5675 11.2172 43.9871 11.2393 43.4101 11.2997C43.2775 11.3328 42.873 10.8952 42.747 10.9814C42.3561 11.2607 41.9358 11.4964 41.4937 11.6843C41.6028 11.7625 41.6876 11.87 41.738 11.9944C41.7885 12.1189 41.8026 12.2551 41.7788 12.3872C41.7496 13.2376 41.9504 14.0801 42.36 14.8259C42.7697 15.5717 43.373 16.1931 44.1064 16.6246C44.67 16.9098 44.2854 17.049 44.7297 17.1087C44.8795 17.1275 45.0309 17.1275 45.1807 17.1087C45.2337 17.6723 45.3 18.7201 44.8624 18.5609C44.8749 18.6443 44.9082 18.7233 44.9592 18.7905C45.0102 18.8577 45.0772 18.911 45.1541 18.9456C45.2862 18.8896 45.4327 18.878 45.5719 18.9124C45.6198 18.9179 45.6682 18.9089 45.7108 18.8864C45.7534 18.8639 45.7882 18.829 45.8106 18.7864C45.9499 18.541 45.6714 17.9243 45.6714 17.6458C45.6714 17.3673 45.6714 17.2347 45.6714 17.0291C45.9167 16.996 46.0626 16.923 46.0958 16.7307C47.0043 16.2201 47.8928 16.0676 48.5295 15.4045C48.8146 15.0928 48.8942 12.9575 48.9472 12.6458C49.0069 12.2281 49.2987 12.0755 49.2059 11.923M42.9592 11.923C42.999 11.8368 43.2709 11.6246 43.3372 11.6776C43.7947 12.0357 43.8743 11.7572 44.365 11.4721C44.6098 11.4487 44.8563 11.4487 45.1011 11.4721C45.0933 11.5736 45.0933 11.6756 45.1011 11.7771C45.1608 12.5862 44.9685 13.6405 45.0016 14.4694C45.0016 15.0397 45.0613 15.6299 45.1077 16.2068C43.5427 15.3912 42.6144 12.7851 42.9658 11.923M47.7005 15.1525C47.2052 15.8138 46.4734 16.2581 45.6581 16.3925C45.6581 15.8952 45.625 15.3912 45.6183 14.8872C45.6117 14.3832 45.7509 13.919 45.7111 13.4549C45.6686 13.1069 45.6686 12.755 45.7111 12.4071C45.7642 12.1021 45.7112 11.9031 45.7443 11.6047C45.7443 11.6047 45.7443 11.545 45.7443 11.5119C46.6396 11.5914 47.6608 11.7373 47.7337 11.9562C48.0034 13.007 47.985 14.1111 47.6807 15.1525" fill="white"/>
</svg>
