<?xml version="1.0" encoding="UTF-8"?>
<svg width="512px" height="512px" viewBox="0 0 512 512" version="1.1" xmlns="http://www.w3.org/2000/svg" xmlns:xlink="http://www.w3.org/1999/xlink">
    <!-- Generator: Sketch 48.1 (47250) - http://www.bohemiancoding.com/sketch -->
    <title>#MO</title>
    <desc>Created with Sketch.</desc>
    <defs></defs>
    <g id="Компании-BIG" stroke="none" stroke-width="1" fill="none" fill-rule="evenodd">
        <g id="#MO" fill-rule="nonzero">
            <g id="altria-group" transform="translate(0.000000, 2.000000)">
                <polygon id="Shape" fill="#30597F" points="100.894118 100.894118 0 100.894118 0 0 100.894118 0"></polygon>
                <polygon id="Shape" fill="#2D7EC2" points="100.894118 201.788235 0 201.788235 0 100.894118 100.894118 100.894118"></polygon>
                <polygon id="Shape" fill="#4BB5DA" points="100.894118 307.2 0 307.2 0 206.305882 100.894118 206.305882"></polygon>
                <polygon id="Shape" fill="#8CBE4F" points="100.894118 408.094118 0 408.094118 0 307.2 100.894118 307.2"></polygon>
                <polygon id="Shape" fill="#43A756" points="100.894118 508.988235 0 508.988235 0 408.094118 100.894118 408.094118"></polygon>
                <polygon id="Shape" fill="#8CBE4F" points="201.788235 508.988235 100.894118 508.988235 100.894118 408.094118 201.788235 408.094118"></polygon>
                <polygon id="Shape" fill="#D8DF47" points="305.694118 508.988235 204.8 508.988235 204.8 408.094118 305.694118 408.094118"></polygon>
                <polygon id="Shape" fill="#CDCB86" points="408.094118 508.988235 307.2 508.988235 307.2 408.094118 408.094118 408.094118"></polygon>
                <polygon id="Shape" fill="#F7F1AE" points="512 508.988235 411.105882 508.988235 411.105882 408.094118 512 408.094118"></polygon>
                <polygon id="Shape" fill="#D8DF47" points="201.788235 408.094118 100.894118 408.094118 100.894118 307.2 201.788235 307.2"></polygon>
                <polygon id="Shape" fill="#F7F1AE" points="305.694118 408.094118 204.8 408.094118 204.8 307.2 305.694118 307.2"></polygon>
                <polygon id="Shape" fill="#ECCB85" points="408.094118 408.094118 307.2 408.094118 307.2 307.2 408.094118 307.2"></polygon>
                <polygon id="Shape" fill="#CDCB86" points="512 408.094118 411.105882 408.094118 411.105882 307.2 512 307.2"></polygon>
                <polygon id="Shape" fill="#51A5B5" points="201.788235 307.2 100.894118 307.2 100.894118 206.305882 201.788235 206.305882"></polygon>
                <polygon id="Shape" fill="#ECCB85" points="305.694118 307.2 204.8 307.2 204.8 206.305882 305.694118 206.305882"></polygon>
                <polygon id="Shape" fill="#E0A682" points="408.094118 307.2 307.2 307.2 307.2 206.305882 408.094118 206.305882"></polygon>
                <polygon id="Shape" fill="#CA3132" points="512 307.2 411.105882 307.2 411.105882 206.305882 512 206.305882"></polygon>
                <polygon id="Shape" fill="#7AC5F2" points="201.788235 201.788235 100.894118 201.788235 100.894118 100.894118 201.788235 100.894118"></polygon>
                <polygon id="Shape" fill="#D6803B" points="305.694118 201.788235 204.8 201.788235 204.8 100.894118 305.694118 100.894118"></polygon>
                <polygon id="Shape" fill="#CA3132" points="408.094118 201.788235 307.2 201.788235 307.2 100.894118 408.094118 100.894118"></polygon>
                <polygon id="Shape" fill="#AC3530" points="512 201.788235 411.105882 201.788235 411.105882 100.894118 512 100.894118"></polygon>
                <polygon id="Shape" fill="#2D7EC2" points="201.788235 100.894118 100.894118 100.894118 100.894118 0 201.788235 0"></polygon>
                <polygon id="Shape" fill="#DFA43B" points="305.694118 100.894118 204.8 100.894118 204.8 0 305.694118 0"></polygon>
                <polygon id="Shape" fill="#AC3530" points="408.094118 100.894118 307.2 100.894118 307.2 0 408.094118 0"></polygon>
                <polygon id="Shape" fill="#8B352D" points="512 100.894118 411.105882 100.894118 411.105882 0 512 0"></polygon>
            </g>
        </g>
    </g>
</svg>