<svg width="160" height="36" viewBox="0 0 160 36" fill="none" xmlns="http://www.w3.org/2000/svg">
<g clip-path="url(#clip0_116_8962)">
<path d="M143.744 33.0347C143.744 33.6764 143.194 34.2264 142.552 34.2264C141.91 34.2264 141.36 33.6764 141.36 33.0347V29.7344H140.077V33.0347C140.077 34.4097 141.177 35.6015 142.644 35.6015C144.019 35.6015 145.211 34.5014 145.211 33.0347V29.7344H143.927V33.0347H143.744Z" fill="black"/>
<path d="M129.444 29.4587C127.702 29.4587 126.327 30.8338 126.327 32.5756C126.327 34.3174 127.702 35.6925 129.444 35.6925C131.186 35.6925 132.561 34.3174 132.561 32.5756C132.561 30.8338 131.186 29.4587 129.444 29.4587ZM129.444 34.3174C128.436 34.3174 127.611 33.4924 127.611 32.4839C127.611 31.4755 128.436 30.6504 129.444 30.6504C130.452 30.6504 131.277 31.4755 131.277 32.4839C131.277 33.4924 130.452 34.3174 129.444 34.3174Z" fill="black"/>
<path d="M92.8651 32.8513C92.8651 31.1095 91.4901 29.7344 89.7481 29.7344C88.0061 29.7344 86.6311 31.1095 86.6311 32.8513C86.6311 34.5931 88.0061 35.9682 89.7481 35.9682C91.4901 35.9682 92.8651 34.5931 92.8651 32.8513ZM87.9145 32.8513C87.9145 31.8429 88.7393 31.0178 89.7481 31.0178C90.756 31.0178 91.5817 31.8429 91.5817 32.8513C91.5817 33.8597 90.756 34.6848 89.7481 34.6848C88.7393 34.5931 87.9145 33.8597 87.9145 32.8513Z" fill="black"/>
<path d="M118.899 31.6595C118.899 30.5594 117.982 29.7344 116.974 29.7344H113.857V33.6764V35.5098H114.041H115.232V33.6764H116.332L117.524 35.5098H119.082L117.799 33.5846C118.349 33.218 118.899 32.4846 118.899 31.6595ZM115.14 31.0178H116.974C117.341 31.0178 117.615 31.2929 117.615 31.6595C117.615 32.0262 117.341 32.3012 116.974 32.3012H115.14V31.0178Z" fill="black"/>
<path d="M156.118 29.7344H153.001V33.6764V35.5098H154.284V33.6764H156.118C157.218 33.6764 158.043 32.7597 158.043 31.7512C158.043 30.7428 157.218 29.7344 156.118 29.7344ZM156.118 32.3012H154.284V31.0178H156.118C156.485 31.0178 156.76 31.2929 156.76 31.6595C156.76 32.0262 156.485 32.3012 156.118 32.3012Z" fill="black"/>
<path d="M45.1035 33.4921H47.9454V35.6922H49.3205V30.0085H47.9454V32.2087H45.1035V30.0085H43.8201V35.6922H45.1035V33.4921Z" fill="black"/>
<path d="M105.332 32.1172H103.315V33.4006H104.874C104.599 33.9507 103.957 34.3174 103.315 34.3174C102.307 34.3174 101.482 33.4924 101.482 32.4839C101.482 31.4755 102.399 30.7422 103.407 30.7422C104.049 30.7422 104.599 31.0172 104.966 31.4755L106.065 30.7422C105.424 30.0087 104.507 29.4587 103.407 29.4587C101.573 29.4587 100.107 30.8338 100.107 32.5756C100.107 34.3174 101.482 35.6925 103.224 35.6925C104.966 35.6925 106.341 34.3174 106.341 32.5756V32.1172H105.332Z" fill="black"/>
<path d="M70.4955 34.3172H67.1037V30.0085H65.7285V35.6922H70.4955V34.3172Z" fill="black"/>
<path d="M81.3144 34.3172H77.9225V30.0085H76.5474V35.6922H81.3144V34.3172Z" fill="black"/>
<path d="M59.6787 34.3172H56.2868V33.4004H57.6619H59.4037V32.2087H57.6619H56.2868V31.3836H59.6787V30.0085H55.0034V35.6922H59.6787V34.3172Z" fill="black"/>
<path d="M50.5103 8.92464V0.857422H47.8518V2.41586H42.4431V5.07438H47.8518V5.80777H42.4431V8.46628H47.8518V8.833C47.8518 9.10799 47.5768 9.29135 47.3017 9.29135H42.4431V11.9498H47.3017C49.0435 12.0416 50.5103 10.6664 50.5103 8.92464Z" fill="black"/>
<path d="M64.9962 8.92464V2.41586H59.5875C59.6792 1.49913 59.6792 0.949098 59.6792 0.857422H57.0207C57.0207 1.13244 57.0207 1.77415 56.929 2.41586H51.5203V5.07438H56.4706C56.379 5.25773 56.379 5.53275 56.2872 5.71609C56.1039 6.17446 55.9205 6.54115 55.7373 6.81617C53.9038 6.08279 52.712 5.44108 52.6203 5.3494L51.9786 6.54115L51.3369 7.7329C51.4286 7.7329 52.3453 8.28294 53.7204 8.92464C53.0787 9.19963 52.437 9.29135 51.5203 9.29135V11.9498C53.9954 11.9498 55.5539 11.2165 56.7456 10.0247C58.1207 10.4831 59.6792 10.9415 61.2376 11.2165L61.6959 8.55795C60.5042 8.37461 59.4042 8.00792 58.3041 7.7329C58.4874 7.36621 58.5791 6.99951 58.7625 6.63282C58.9458 6.08279 59.1291 5.53275 59.2208 4.98271H62.3376V8.74128C62.3376 10.4831 63.8044 11.8582 65.5462 11.8582H67.1963V9.19963H65.5462C65.2712 9.38299 64.9962 9.10799 64.9962 8.92464Z" fill="black"/>
<path d="M66.6448 18.55V16.2581H56.8358V15.5247H64.9946V12.8662H43.8182V15.5247H53.8106V16.2581H42.4431V18.55H53.8106V19.2833H42.4431V21.9418H53.8106C53.7188 22.2169 53.3522 22.4919 52.9855 22.4919H47.6684V25.5171H52.8939C55.0023 25.5171 56.7441 23.8669 56.8358 21.9418H66.6448V19.2833H56.8358V18.55H66.6448Z" fill="black"/>
<path d="M87.9135 0.399658H79.8462V3.05818H87.9135V0.399658Z" fill="black"/>
<path d="M119.632 20.0173H127.699V17.3588H116.148V16.0753H126.507V13.7836H117.248V12.6835H124.766V10.3917H117.248V9.19988H124.766V6.90807H117.248V5.89967H126.507V3.14948H117.248V0.399289H114.223V3.14948H108.632C108.998 2.50777 109.181 1.95773 109.456 1.49936L106.614 0.307617C106.156 1.40769 105.515 2.69112 103.956 4.61625C102.672 6.17469 101.206 7.45812 99.5552 8.64989L101.297 11.2167C102.214 10.575 103.131 9.84159 103.956 9.10825V16.0753H106.981V5.89967H114.223V6.90807H107.806V9.19988H114.223V10.2999H107.806V12.5918H114.223V13.6919H107.806V15.9837H113.215V17.2671H101.664V19.9256H109.731C109.548 20.0173 109.273 20.109 109.089 20.2007C106.89 21.209 104.14 22.0341 101.664 22.4925V25.701C101.664 25.701 108.356 24.601 113.215 20.4757V25.701H116.24V20.5673C121.099 24.7843 127.79 25.7927 127.79 25.7927V22.5842C125.316 22.0341 122.565 21.3008 120.365 20.2923C119.998 20.2007 119.815 20.109 119.632 20.0173Z" fill="black"/>
<path d="M86.6294 19.3761C87.4551 18.6426 88.2799 17.7259 89.1047 16.7175C91.2129 13.9673 92.5888 10.6671 93.1381 6.90852H96.5306V4.25H71.3203V6.90852H74.7122C75.2622 10.5754 76.6374 13.9673 78.7458 16.7175C79.5708 17.7259 80.3959 18.6426 81.221 19.3761C80.1209 19.9261 79.1125 20.3844 78.2874 20.7511C76.0873 21.6678 73.7954 22.3096 71.3203 22.6763V25.7015C74.1622 25.3348 76.9124 24.6014 79.4792 23.593C80.7626 23.043 82.321 22.4013 83.9712 21.3929C85.6215 22.4013 87.1796 23.043 88.463 23.593C91.0298 24.693 93.7798 25.4265 96.6221 25.7932V22.6763C94.2384 22.4013 91.8546 21.7596 89.6549 20.7511C88.6461 20.2928 87.6382 19.9261 86.6294 19.3761ZM81.1293 14.7924C79.4792 12.5923 78.2874 9.84205 77.7374 6.90852H90.0219C89.4718 9.93369 88.3714 12.5923 86.6294 14.7924C85.8046 15.8924 84.7962 16.8092 83.8795 17.5426C82.9627 16.8092 82.046 15.9842 81.1293 14.7924Z" fill="black"/>
<path d="M148.418 10.575V17.2671C148.418 17.5421 148.143 17.8172 147.777 17.8172H143.559V20.8424H147.777C149.793 20.8424 151.535 19.1922 151.535 17.2671V10.3H155.019V7.73311H151.535V5.34961H148.51V7.73311H137.142V10.3916H145.943C143.101 14.7002 137.142 15.067 137.142 15.067V18.0922C138.701 18.0922 141.817 17.7254 144.751 15.342C146.585 13.8752 147.777 12.1334 148.418 10.575Z" fill="black"/>
<path d="M132.65 1.59106V3.05783V25.701H135.676V24.6927H156.119V25.701H159.144V3.05783V1.59106H132.65ZM156.211 21.9425H135.767V4.24958H156.211V21.9425Z" fill="black"/>
<path d="M5.31703 17.4505C7.05882 16.1671 8.61724 14.7919 10.1757 13.3252C10.4507 13.0502 10.8175 12.7752 11.0924 12.5002C7.88388 10.575 4.85867 9.38325 2.20015 8.6499L0 15.342C1.0084 15.7087 2.3835 16.0754 3.94194 16.8088C4.40031 16.9921 4.85867 17.1755 5.31703 17.4505Z" fill="#D43429"/>
<path d="M29.4285 17.4502C27.6867 18.7336 26.1283 20.1088 24.5699 21.5755C24.2948 21.8505 23.9282 22.1255 23.6531 22.4005C26.8616 24.3257 29.8868 25.5174 32.5454 26.2508L34.7455 19.467C33.7372 19.1003 32.362 18.642 30.7119 18.0003C30.3453 17.8169 29.8868 17.6336 29.4285 17.4502Z" fill="#B12418"/>
<path d="M20.9006 10.4832C19.8922 11.7666 18.7004 13.05 17.6003 14.3334C18.0587 14.7919 18.517 15.3418 19.0671 15.8002C19.5255 16.2586 20.0756 16.717 20.5339 17.1753C21.7256 15.9836 23.009 14.8835 24.3842 13.8751C23.8341 13.3251 23.1924 12.8667 22.6424 12.225C22.0007 11.6749 21.4506 11.0332 20.9006 10.4832Z" fill="#B12418"/>
<path d="M15.7682 19.0088C15.3099 18.5504 14.7599 18.0004 14.3014 17.542C13.1097 18.7338 11.8263 19.8338 10.4512 20.8423C11.0012 21.3923 11.643 21.8507 12.193 22.4924C12.743 23.0424 13.2931 23.6841 13.8431 24.2342C14.8515 22.9508 16.0433 21.6673 17.1434 20.3839C16.685 20.0172 16.2266 19.5588 15.7682 19.0088Z" fill="#D43429"/>
<path d="M5.31704 17.4502C3.94194 18.4586 2.47517 19.467 1.0084 20.3838C0.641711 20.5671 0.366692 20.8421 0 21.0255L3.02521 26.1592C3.39191 25.8842 3.66692 25.7008 4.03362 25.4258C6.23376 24.0507 8.43392 22.4922 10.4507 20.9338C8.61724 19.4671 6.87547 18.2753 5.31704 17.4502Z" fill="#B12418"/>
<path d="M29.4284 17.4492C30.8035 16.4408 32.2703 15.4324 33.737 14.5156C34.1037 14.3323 34.3787 14.0573 34.7454 13.8739L31.7202 8.74023C31.3535 8.92359 31.0785 9.10695 30.7118 9.38195C28.5117 10.7571 26.3115 12.3155 24.2947 13.8739C26.1282 15.4324 27.87 16.5325 29.4284 17.4492Z" fill="#D43429"/>
<path d="M17.3272 29.4589C16.5021 27.9004 15.3104 26.1586 13.8437 24.3252C12.1935 26.342 10.7267 28.5421 9.35167 30.7423C9.16831 31.1089 8.89332 31.384 8.70996 31.7506L13.8437 34.7759C14.027 34.4092 14.302 34.1342 14.4854 33.7675C15.4021 32.3007 16.3188 30.9257 17.3272 29.4589C17.4189 29.5505 17.4189 29.4589 17.3272 29.4589Z" fill="#B12418"/>
<path d="M23.2835 25.425C23.1919 25.2416 23.1002 25.15 23.0085 24.9666V24.875C22.9168 24.6916 22.8252 24.5083 22.7336 24.3249C22.7336 24.2333 22.6418 24.2333 22.6418 24.1415C22.5502 23.9582 22.4585 23.8665 22.3668 23.6832C22.3668 23.6832 22.3668 23.6832 22.3668 23.5916C22.0918 23.8665 21.8168 24.2333 21.5418 24.5083C20.075 26.0667 18.6999 27.7168 17.4165 29.367C18.4248 31.4754 19.0666 33.3089 19.4333 34.6839L26.2171 32.4838C25.5754 30.467 24.6587 27.9918 23.2835 25.425Z" fill="#D43429"/>
<path d="M17.4165 5.34902C18.2416 6.90746 19.4333 8.64922 20.9001 10.4827C22.5502 8.4659 24.017 6.26574 25.392 4.0656C25.667 3.6989 25.8504 3.42389 26.0337 3.05719L20.9001 0.0319824C20.7167 0.398674 20.4417 0.673694 20.2583 1.04038C19.4333 2.50716 18.4248 3.97392 17.4165 5.34902Z" fill="#D43429"/>
<path d="M11.4581 9.38271C11.5498 9.56607 11.6414 9.65779 11.7331 9.84115V9.93279C11.8248 10.1161 11.9165 10.2995 12.0081 10.4829C12.0081 10.5745 12.0998 10.5745 12.0998 10.6661C12.1915 10.8495 12.2831 10.9412 12.3748 11.1246C12.3748 11.1246 12.3748 11.1246 12.3748 11.2162C12.6498 10.9412 12.9248 10.5745 13.1999 10.2995C14.6666 8.741 16.0418 7.09093 17.3252 5.44082C16.3167 3.33233 15.675 1.49887 15.3083 0.123779L8.61621 2.23226C9.25792 4.34074 10.1746 6.81591 11.4581 9.38271Z" fill="#B12418"/>
</g>
<defs>
<clipPath id="clip0_116_8962">
<rect width="160" height="35.9358" fill="white" transform="translate(0 0.0319824)"/>
</clipPath>
</defs>
</svg>
