<svg width="52" height="41" viewBox="0 0 52 41" fill="none" xmlns="http://www.w3.org/2000/svg">
    <g clip-path="url(#clip0_38_696)">
        <path d="M37.1061 0.964283C39.0511 1.02351 40.967 2.28209 41.7383 4.14386L46.4813 14.9474L50.24 23.5486C50.5042 24.3653 50.4889 25.3753 50.3446 26.2481L47.555 36.7672C46.9227 38.6095 45.0709 40.0933 43.1931 40.2383L7.77459 40.2344C5.93803 40.1151 4.08773 38.8184 3.40121 37.0299L3.01176 35.8773L1.54709 30.4065L0.416902 26.2006C0.245083 25.235 0.379481 24.2243 0.676538 23.3725L8.80627 4.34882C9.50271 2.42548 11.4447 1.05079 13.4301 0.964283H37.1061Z" fill="#1E59AE"/>
        <path d="M37.261 2.87236C38.5394 2.97289 39.7879 4.06002 40.1545 5.30146L47.6191 22.2093C48.0757 23.1687 48.8585 24.3236 48.5515 25.6149L48.1353 27.3582L45.8833 35.8558C45.5893 37.1097 44.3278 38.1205 43.1311 38.327L8.19759 38.334C7.08496 38.3129 6.08611 37.8796 5.41182 36.9125C4.73752 35.781 2.18848 25.6656 2.18848 25.6656C2.0663 24.6774 2.45423 23.8124 2.82231 22.9886L9.12541 8.29556L10.6725 4.71932C11.3094 3.55269 12.5175 2.94328 13.7355 2.86924L37.261 2.87236Z" fill="white"/>
        <path d="M25.3232 18.1114L29.6981 6.59949L36.3456 6.59637L42.2455 26.2162L34.1066 26.2154L33.2001 15.4431L27.9257 26.2154L22.7757 26.2217L17.4409 15.5327L16.5665 26.2154L8.44287 26.2209L14.161 6.6065L20.8223 6.60339L25.3232 18.1114Z" fill="#ED114C"/>
        <path d="M9.72514 31.4819L10.3025 28.6546L11.9863 28.6562L12.6621 34.1394L11.357 34.1409L10.9531 30.5943C10.7385 31.7609 10.5758 32.9689 10.3895 34.1409L9.03328 34.1456L8.45749 30.613C8.29484 31.7773 8.18793 32.9735 8.052 34.1456L6.72632 34.1479L7.46247 28.6507L9.14859 28.6546L9.72514 31.4819Z" fill="#1E59AE"/>
        <path d="M17.3233 34.1457L15.948 34.1379L15.7899 33.1879L14.5337 33.1801L14.3489 34.1402L13.0217 34.1465L14.1389 28.6555H16.1534L17.3233 34.1457Z" fill="#1E59AE"/>
        <path d="M20.8369 28.8199C21.6143 29.2174 21.5845 30.2055 21.5379 30.9451C21.4547 31.3472 21.3027 31.8382 20.8575 31.9808L20.859 32.1273L21.6112 34.141L20.284 34.1465C20.284 34.1465 19.6379 32.2013 19.6349 32.1873C19.541 32.1366 19.3829 32.1374 19.289 32.1896V34.1457L18.0015 34.1379L18.006 28.6578C18.006 28.6578 20.0404 28.4825 20.8369 28.8199Z" fill="#1E59AE"/>
        <path d="M38.3706 29.1208C38.9639 29.9718 38.8586 31.1875 38.8211 32.2411C38.7776 32.9955 38.5111 33.8535 37.7161 34.0935C36.8868 34.3109 36.0247 34.3312 35.3267 33.8098C34.5318 33.0033 34.767 31.6769 34.7372 30.5656C34.7899 29.9079 34.9296 29.2182 35.5291 28.8402C36.3439 28.3921 37.6337 28.4015 38.3706 29.1208Z" fill="#1E59AE"/>
        <path d="M29.6407 29.822H28.4807L28.4762 34.1401L27.1902 34.1378L27.1894 29.8142H26.0317L26.0333 28.6413L29.6407 28.6421V29.822Z" fill="#1E59AE"/>
        <path d="M31.4415 30.836L32.5962 30.8446L32.6015 28.6469L33.9188 28.643V34.1402L32.603 34.1465V32.0073L31.4431 32.0081L31.4354 34.1371L30.1128 34.1395L30.1166 28.643L31.4339 28.6407L31.4415 30.836Z" fill="#1E59AE"/>
        <path d="M42.3502 32.1653L42.3517 28.642H43.5537V34.1494H41.7866L40.8481 30.8444V34.1494H39.6912V28.642H41.4552L42.3502 32.1653Z" fill="#1E59AE"/>
        <path d="M15.5738 32.1426L14.7292 32.1395L15.163 29.7969C15.3425 30.5419 15.4394 31.3602 15.5738 32.1426Z" fill="white"/>
        <path d="M20.0478 29.8799C20.2715 30.1332 20.2875 30.5579 20.1761 30.8657C20.0982 30.9764 20.0523 31.1018 19.8553 31.1322L19.317 31.1377L19.3154 29.7872C19.3154 29.7872 19.8538 29.7334 20.0478 29.8799Z" fill="white"/>
        <path d="M37.2789 29.8519C37.6462 30.5096 37.4774 31.6427 37.4492 32.5148C37.4056 32.7268 37.3644 32.9691 37.1643 33.0798C36.92 33.1912 36.5496 33.1936 36.3335 33.0128C36.1319 32.74 36.1594 32.6761 36.1052 32.3387C35.9921 31.6318 35.8967 30.5455 36.2617 29.8971C36.5023 29.6384 37.0185 29.6127 37.2789 29.8519Z" fill="white"/>
        <path d="M26.2495 34.1457L24.8742 34.1379L24.7161 33.1879L23.4638 33.1801L23.2767 34.1402L21.9495 34.1465L23.0651 28.6555H25.0804L26.2495 34.1457Z" fill="#1E59AE"/>
        <path d="M24.5029 32.1426L23.656 32.1395L24.0913 29.7969C24.2684 30.5419 24.3685 31.3602 24.5029 32.1426Z" fill="white"/>
        <path d="M50.0483 38.679C50.2621 38.679 50.453 38.6627 50.453 38.4016C50.453 38.192 50.2659 38.1522 50.0911 38.1522H49.7474V38.679H50.0483ZM49.7474 39.6337H49.4947V37.9348H50.1293C50.5218 37.9348 50.7165 38.0821 50.7165 38.418C50.7165 38.7219 50.5294 38.8544 50.2858 38.8855L50.7593 39.6337H50.4767L50.0369 38.8965H49.7474V39.6337ZM50.0521 40.0116C50.705 40.0116 51.2205 39.4895 51.2205 38.7803C51.2205 38.0821 50.705 37.5568 50.0521 37.5568C49.3923 37.5568 48.8761 38.0821 48.8761 38.7803C48.8761 39.4895 49.3923 40.0116 50.0521 40.0116ZM48.5859 38.7803C48.5859 37.9348 49.2579 37.3113 50.0521 37.3113C50.8387 37.3113 51.5107 37.9348 51.5107 38.7803C51.5107 39.6337 50.8387 40.2563 50.0521 40.2563C49.2579 40.2563 48.5859 39.6337 48.5859 38.7803Z" fill="#1E59AE"/>
    </g>
    <defs>
        <clipPath id="clip0_38_696">
            <rect width="51.8519" height="40" fill="white" transform="translate(0 0.610352)"/>
        </clipPath>
    </defs>
</svg>
