<svg width="112" height="40" viewBox="0 0 112 40" fill="none" xmlns="http://www.w3.org/2000/svg">
    <g clip-path="url(#clip0_38_689)">
        <path d="M0.034668 0H11.1873C12.9988 7.0938 14.7896 14.1876 16.5803 21.2814C18.0646 14.1876 19.5534 7.0938 21.0469 0H32.9877C32.9877 9.50797 32.9877 19.0159 32.9877 28.5168C30.789 28.5239 28.5834 28.5239 26.3847 28.5168C26.3847 21.4726 26.3847 14.4283 26.3847 7.37699C24.8705 14.4212 23.3908 21.4796 21.8835 28.5239C18.3089 28.5168 14.7412 28.5239 11.1665 28.5239C9.7422 21.8265 8.32479 15.1363 6.89355 8.43894C6.82441 8.09911 6.76909 7.75221 6.71378 7.40531C6.67229 7.98584 6.66538 8.57345 6.67229 9.15398C6.67229 15.6106 6.67229 22.0649 6.67229 28.5168C4.45975 28.5215 2.24721 28.5215 0.034668 28.5168C0.034668 19.0159 0.034668 9.50797 0.034668 0ZM35.3316 0H56.5375C57.8166 0.00707965 58.8122 0.99115 59.3999 2.06726C59.8424 2.89558 59.8355 3.87257 59.8217 4.79292C59.8148 8.02832 59.8286 11.2708 59.8148 14.5133C59.8079 15.9575 58.9782 17.3805 57.7267 18.046C57.0007 18.4142 56.1641 18.3363 55.3828 18.3434C51.0407 18.3434 46.6917 18.3434 42.3426 18.3434C42.3426 21.7345 42.3495 25.1257 42.3426 28.5168C40.0056 28.5239 37.6686 28.5168 35.3316 28.5239C35.3247 22.3929 35.3316 16.269 35.3316 10.1451C40.8261 10.1404 46.3229 10.1404 51.822 10.1451C52.147 10.1735 52.4581 9.99646 52.6309 9.72035C53.0458 9.16106 52.6724 8.17699 51.9534 8.16991C46.4151 8.16283 40.8699 8.16991 35.3316 8.16991C35.3316 5.44661 35.3316 2.7233 35.3316 0Z" fill="#DD1E36"/>
        <path d="M61.7162 0H69.9372C69.9372 6.90973 69.9303 13.8265 69.9372 20.7363C75.026 20.7434 80.1218 20.7363 85.2106 20.7434C82.2514 17.1044 79.2921 13.4655 76.3397 9.82655C79.8245 9.81947 83.3023 9.82655 86.7802 9.82655C89.0895 12.6796 91.4265 15.5115 93.7151 18.3788C96.0244 15.5257 98.3545 12.6796 100.664 9.82655C104.142 9.82655 107.626 9.81947 111.104 9.82655C107.053 14.8177 102.994 19.8088 98.9422 24.8C102.994 29.7841 107.046 34.7611 111.084 39.7522C107.613 39.7522 104.135 39.7522 100.657 39.7522C98.3407 36.9204 96.0383 34.0602 93.722 31.2283C91.4058 34.0673 89.1102 36.9204 86.7802 39.7522C83.3092 39.7522 79.8314 39.7593 76.3605 39.7522C79.3889 36 82.438 32.269 85.4734 28.5239C77.5566 28.5168 69.633 28.5239 61.7162 28.5239C61.7093 19.0159 61.7162 9.50797 61.7162 0Z" fill="#16478E"/>
        <path fill-rule="evenodd" clip-rule="evenodd" d="M72.3711 34.7467C73.4428 34.3928 74.7081 34.8105 75.3303 35.7733C76.1946 37.0335 75.7245 39.0299 74.3209 39.66C72.9449 40.4034 71.0366 39.5751 70.6563 38.0105C70.2346 36.6795 71.0574 35.122 72.3711 34.7467ZM72.4955 35.1644C71.5621 35.4689 70.9467 36.5025 71.0712 37.4936C71.1265 38.7255 72.3503 39.7379 73.5396 39.4689C74.7703 39.2777 75.5447 37.8405 75.1782 36.6512C74.9224 35.483 73.5949 34.7467 72.4955 35.1644ZM72.136 35.7025C72.7859 35.745 73.4981 35.5751 74.0996 35.9007C74.6804 36.368 74.3969 37.437 73.6364 37.4936C73.9268 37.9397 74.2033 38.3928 74.4937 38.8388C74.3093 38.8388 74.125 38.8388 73.9406 38.8388C73.6502 38.3928 73.3805 37.9397 73.0971 37.4866C72.9449 37.496 72.7928 37.5054 72.6407 37.5149C72.6545 37.9538 72.6546 38.3998 72.6546 38.8388C72.4794 38.8388 72.3065 38.8388 72.136 38.8388C72.136 37.791 72.136 36.7503 72.136 35.7025ZM72.6546 36.1273C72.6499 36.4435 72.6499 36.7597 72.6546 37.0759C73.0763 37.0476 73.8161 37.2459 73.906 36.6299C73.8645 35.9928 73.0763 36.1485 72.6546 36.1273Z" fill="#16478E"/>
    </g>
    <defs>
        <clipPath id="clip0_38_689">
            <rect width="111.111" height="40" fill="white"/>
        </clipPath>
    </defs>
</svg>
