<svg width="134" height="41" viewBox="0 0 134 41" fill="none" xmlns="http://www.w3.org/2000/svg">
    <g clip-path="url(#clip0_41_2297)">
        <path d="M63.6057 10.4961H69.6024V29.8497H65.1587V16.835L59.474 29.8497L53.4911 16.8186V29.8497H49.3447V10.4961H55.2716L59.5446 20.5133L63.6057 10.4961Z" fill="#231F20"/>
        <path d="M71.812 10.4961V29.8497H82.9789V26.5686H76.1411V21.6449H82.6962V18.3328H76.1411V13.8926H82.9789V10.4961H71.812Z" fill="#231F20"/>
        <path d="M99.6343 20.1761C99.6343 27.3802 107.153 33.1451 115.075 29.2892V25.1428C108.979 29.4133 103.673 25.1331 103.76 20.3415C103.819 17.157 105.959 14.1285 110.099 13.8923C112.134 13.7768 113.513 14.2828 115.075 15.7781V11.4663C109.351 8.07405 99.6343 11.8076 99.6343 20.1761Z" fill="#231F20"/>
        <path d="M116.902 29.8495H121.018V10.6821H116.902V29.8495Z" fill="#231F20"/>
        <path d="M126.183 19.4714L132.403 10.7246H127.596L121.434 19.455L128.588 29.8498H133.308L126.183 19.4714Z" fill="#231F20"/>
        <path d="M84.9033 10.4961V29.8497H89.2475V19.452L96.4284 29.8497H101.059L95.3742 21.7232C98.0089 20.7269 98.8637 18.5178 98.8637 16.3097C98.8637 14.1034 97.0116 10.4961 92.5248 10.4961H84.9033ZM89.2475 13.7166H91.1437C94.3496 13.7166 94.5208 15.8125 94.5208 16.5951C94.5208 18.0903 93.2521 19.3637 91.6146 19.3637H89.2475V13.7166Z" fill="#231F20"/>
        <path d="M10.3689 10.4965C10.3689 5.15131 14.7023 0.818848 20.0466 0.818848C25.3926 0.818848 29.7242 5.15131 29.7242 10.4965H10.3689ZM10.3689 29.8509C10.3689 24.5066 14.7023 20.1733 20.0466 20.1733C14.7023 20.1733 10.3689 15.8416 10.3689 10.4965C5.02463 10.4965 0.692139 14.829 0.692139 20.1733C0.692139 25.5193 5.02463 29.8509 10.3689 29.8509ZM10.3689 29.8509C10.3689 35.1969 14.7023 39.5285 20.0466 39.5285C25.3926 39.5285 29.7242 35.1969 29.7242 29.8509H10.3689ZM20.0466 20.1733C25.3926 20.1733 29.7242 24.5066 29.7242 29.8509C35.0693 29.8509 39.4027 25.5193 39.4027 20.1733C39.4027 14.829 35.0693 10.4965 29.7242 10.4965C29.7242 15.8416 25.3926 20.1733 20.0466 20.1733Z" fill="#007A73"/>
    </g>
    <defs>
        <clipPath id="clip0_41_2297">
            <rect width="133.906" height="40" fill="white" transform="translate(0.046875 0.173828)"/>
        </clipPath>
    </defs>
</svg>
