<svg width="510" height="117" viewBox="0 0 510 117" fill="none" xmlns="http://www.w3.org/2000/svg">
    <path fill-rule="evenodd" clip-rule="evenodd" d="M469.946 109.184H462.676C460.986 109.184 460.105 110.434 460.105 112.807C460.105 115.053 460.986 116.304 462.676 116.304H490.623C492.406 116.304 493.298 115.053 493.298 112.807C493.298 110.434 492.406 109.184 490.623 109.184H469.946Z" fill="#28ABE1"/>
    <path fill-rule="evenodd" clip-rule="evenodd" d="M427.319 109.184H420.06C418.404 109.184 417.42 110.434 417.42 112.807C417.42 115.053 418.404 116.304 420.06 116.304H447.984C449.732 116.304 450.612 115.053 450.612 112.807C450.612 110.434 449.732 109.184 447.984 109.184H427.319Z" fill="#3DB3E3"/>
    <path fill-rule="evenodd" clip-rule="evenodd" d="M386.958 109.184H379.687C377.916 109.184 377.117 110.434 377.117 112.807C377.117 115.053 377.916 116.304 379.687 116.304H407.635C409.418 116.304 410.31 115.053 410.31 112.807C410.31 110.434 409.418 109.184 407.635 109.184H386.958Z" fill="#4AB8E6"/>
    <path fill-rule="evenodd" clip-rule="evenodd" d="M344.33 109.184H337.106C335.323 109.184 334.432 110.434 334.432 112.807C334.432 115.053 335.323 116.304 337.106 116.304H364.961C366.744 116.304 367.624 115.053 367.624 112.807C367.624 110.434 366.744 109.184 364.961 109.184H344.33Z" fill="#57BDE8"/>
    <path fill-rule="evenodd" clip-rule="evenodd" d="M301.656 109.184H294.421C292.649 109.184 291.758 110.434 291.758 112.807C291.758 115.053 292.649 116.304 294.421 116.304H322.287C324.059 116.304 324.95 115.053 324.95 112.807C324.95 110.434 324.059 109.184 322.287 109.184H301.656Z" fill="#63C2EB"/>
    <path fill-rule="evenodd" clip-rule="evenodd" d="M261.344 109.184H254.12C252.337 109.184 251.445 110.434 251.445 112.807C251.445 115.053 252.337 116.304 254.12 116.304H281.975C283.758 116.304 284.638 115.053 284.638 112.807C284.638 110.434 283.758 109.184 281.975 109.184H261.344Z" fill="#70C7EB"/>
    <path fill-rule="evenodd" clip-rule="evenodd" d="M218.668 109.184H211.432C209.661 109.184 208.77 110.434 208.77 112.807C208.77 115.053 209.661 116.304 211.432 116.304H239.299C241.163 116.304 241.962 115.053 241.962 112.807C241.962 110.434 241.163 109.184 239.299 109.184H218.668Z" fill="#7DCCEE"/>
    <path fill-rule="evenodd" clip-rule="evenodd" d="M175.983 109.184H168.758C166.975 109.184 166.084 110.434 166.084 112.807C166.084 115.053 166.975 116.304 168.758 116.304H196.706C198.397 116.304 199.288 115.053 199.288 112.807C199.288 110.434 198.397 109.184 196.706 109.184H175.983Z" fill="#8AD1F0"/>
    <path fill-rule="evenodd" clip-rule="evenodd" d="M135.695 109.184H128.436C126.665 109.184 125.785 110.434 125.785 112.807C125.785 115.053 126.665 116.304 128.436 116.304H156.315C158.086 116.304 158.978 115.053 158.978 112.807C158.978 110.434 158.086 109.184 156.315 109.184H135.695Z" fill="#97D7F0"/>
    <path fill-rule="evenodd" clip-rule="evenodd" d="M92.9404 109.184H85.7624C83.9911 109.184 83.0996 110.434 83.0996 112.807C83.0996 115.053 83.9911 116.304 85.7624 116.304H113.641C115.412 116.304 116.304 115.053 116.304 112.807C116.304 110.434 115.412 109.184 113.641 109.184H92.9404Z" fill="#A3DCF3"/>
    <path fill-rule="evenodd" clip-rule="evenodd" d="M50.311 109.184H43.0751C41.3037 109.184 40.4238 110.434 40.4238 112.807C40.4238 115.053 41.3037 116.304 43.0751 116.304H70.9651C72.7364 116.304 73.6163 115.053 73.6163 112.807C73.6163 110.434 72.7364 109.184 70.9651 109.184H50.311Z" fill="#B0E1F5"/>
    <path fill-rule="evenodd" clip-rule="evenodd" d="M9.95207 109.184H2.69304C0.921705 109.184 0.111328 110.434 0.111328 112.807C0.111328 115.053 0.92168 116.304 2.69304 116.304H30.6525C32.4238 116.304 33.3153 115.053 33.3153 112.807C33.3153 110.434 32.4238 109.184 30.6525 109.184H9.95207Z" fill="#BDE6F5"/>
    <path fill-rule="evenodd" clip-rule="evenodd" d="M0.111328 23.0047H7.7061V33.4359C10.311 29.5459 12.997 26.7905 15.764 25.0192C19.5614 22.6806 23.5903 21.4648 27.7813 21.4648C30.6178 21.4648 33.3153 22.0211 35.9202 23.1552C38.4441 24.3014 40.5859 25.8179 42.1604 27.7745C43.7465 29.6385 45.1706 32.3707 46.3515 35.8671C48.8754 31.1783 52.0476 27.6009 55.7523 25.1001C59.5497 22.6805 63.5787 21.4648 67.9318 21.4648C72.0418 21.4648 75.596 22.4953 78.6756 24.6023C81.7552 26.7094 84.0475 29.6384 85.6336 33.4359C87.1387 37.1638 87.8449 42.8252 87.8449 50.2695V83.1031H80.1807V50.2695C80.1807 43.8672 79.706 39.4215 78.8377 36.9902C77.8884 34.5589 76.3833 32.6371 74.172 31.1784C72.0418 29.6964 69.4253 28.9901 66.4267 28.9901C62.7914 28.9901 59.4687 30.1132 56.3891 32.3129C53.379 34.4663 51.1793 37.4648 49.7553 41.1117C48.4007 44.8397 47.6945 50.9757 47.6945 59.5777V83.1031H40.1112V52.3765C40.1112 45.0828 39.7177 40.1624 38.8493 37.5574C37.9 34.9757 36.3949 32.8687 34.1836 31.3289C31.9724 29.789 29.3558 28.9901 26.3573 28.9901C22.8725 28.9901 19.6424 30.0206 16.5512 32.2203C13.5527 34.3274 11.3414 37.2333 9.83631 40.8686C8.41229 44.5155 7.7061 50.0958 7.7061 57.6211V83.1031H0.111328V23.0047Z" fill="#E11735"/>
    <path fill-rule="evenodd" clip-rule="evenodd" d="M132.938 29.1639C126.57 29.1639 121.163 31.5372 116.625 36.365C112.098 41.1349 109.783 46.9467 109.783 53.8238C109.783 58.1768 110.825 62.2752 112.886 66.1305C114.958 69.9163 117.737 72.857 121.326 74.8946C124.822 76.9438 128.642 78.0089 132.938 78.0089C137.071 78.0089 140.972 76.9438 144.469 74.8946C148.035 72.857 150.825 69.9163 152.897 66.1305C154.969 62.2752 156.011 58.1768 156.011 53.8238C156.011 46.9467 153.696 41.1349 149.169 36.365C144.631 31.5372 139.224 29.1639 132.938 29.1639ZM132.938 21.4648C142.003 21.4648 149.551 24.9034 155.537 31.6299C161.024 37.847 163.722 45.1407 163.722 53.6732C163.722 62.1247 160.839 69.5574 155.039 75.8787C149.308 82.281 141.922 85.4764 132.938 85.4764C123.861 85.4764 116.463 82.281 110.744 75.8787C104.932 69.5574 102.072 62.1247 102.072 53.6732C102.072 45.2333 104.781 37.9395 110.258 31.7108C116.231 24.9033 123.791 21.4648 132.938 21.4648Z" fill="#E11735"/>
    <path fill-rule="evenodd" clip-rule="evenodd" d="M206.837 29.3115C202.519 29.3115 198.629 30.3766 195.051 32.4837C191.428 34.6718 188.649 37.6125 186.507 41.5257C184.435 45.381 183.312 49.433 183.312 53.6704C183.312 58.0003 184.435 62.0872 186.507 65.9193C188.649 69.8324 191.52 72.8541 195.109 75.0423C198.779 77.1493 202.6 78.3071 206.756 78.3071C210.901 78.3071 214.907 77.1493 218.635 75.0423C222.316 72.912 225.187 69.9714 227.26 66.3245C229.251 62.6545 230.2 58.5097 230.2 53.9135C230.2 46.9208 227.978 41.051 223.404 36.3969C218.959 31.6849 213.367 29.3115 206.837 29.3115ZM237.216 0.113281V83.9338H229.726V73.5025C226.519 77.4735 222.93 80.4026 219.028 82.4519C215.057 84.4084 210.669 85.4735 205.957 85.4735C197.598 85.4735 190.397 82.3592 184.493 76.1074C178.6 69.9135 175.578 62.4229 175.578 53.4388C175.578 44.779 178.6 37.2883 184.585 31.0944C190.571 24.9005 197.737 21.8093 206.189 21.8093C211.051 21.8093 215.439 22.8514 219.352 24.9815C223.347 27.0887 226.785 30.2839 229.726 34.5329V0.113281H237.216Z" fill="#E11735"/>
    <path fill-rule="evenodd" clip-rule="evenodd" d="M304.644 47.271C303.613 43.0915 302.073 39.8382 300.14 37.2912C298.218 34.8252 295.636 32.7876 292.314 31.3056C289.118 29.7311 285.738 28.9901 282.183 28.9901C276.314 28.9901 271.335 30.8888 267.063 34.7326C264.018 37.5227 261.668 41.7022 260.071 47.271H304.644ZM304.644 63.6645L311.081 67.1956C309.008 71.3751 306.484 74.8135 303.764 77.4417C300.939 80.0581 297.801 82.0379 294.34 83.4387C290.901 84.7354 286.93 85.4764 282.508 85.4764C272.783 85.4764 265.141 82.1884 259.654 75.7282C254.178 69.1754 251.445 61.8585 251.445 53.6732C251.445 45.8816 253.703 39.0047 258.38 33.0191C264.308 25.3086 272.227 21.4648 282.125 21.4648C292.256 21.4648 300.383 25.4012 306.484 33.2506C310.837 38.831 313.002 45.7312 313.095 54.09H259.329C259.514 61.1407 261.668 66.9525 265.998 71.4561C270.27 75.9598 275.607 78.2752 281.859 78.2752C284.939 78.2752 287.81 77.6845 290.716 76.6197C293.622 75.5545 296.018 74.0957 298.044 72.3476C300.14 70.5762 302.305 67.6935 304.644 63.6645Z" fill="#E11735"/>
    <path fill-rule="evenodd" clip-rule="evenodd" d="M324.949 23.0047H332.926V31.8035C335.288 28.3418 337.846 25.7601 340.474 24.0351C343.207 22.3447 345.904 21.4648 348.776 21.4648C350.998 21.4648 353.314 22.2059 355.768 23.4794L351.658 30.0206C350.026 29.314 348.625 28.9901 347.56 28.9901C344.92 28.9901 342.373 30.0206 340 32.1276C337.511 34.2348 335.705 37.5574 334.408 42.0032C333.424 45.407 332.926 52.3765 332.926 62.8078V83.1031H324.949V23.0047Z" fill="#E11735"/>
    <path fill-rule="evenodd" clip-rule="evenodd" d="M365.264 23.0047H372.581V33.7601C375.487 29.6385 378.809 26.5589 382.329 24.5445C385.883 22.4953 389.796 21.4648 393.976 21.4648C398.271 21.4648 402.045 22.5879 405.356 24.8686C408.644 27.2073 411.133 30.2868 412.685 34.0842C414.282 37.9742 415.047 43.9598 415.047 52.1913V83.1031H407.73V54.4721C407.73 47.5141 407.429 42.8831 406.896 40.5445C406.039 36.5734 404.442 33.5865 401.976 31.572C399.579 29.6385 396.442 28.5734 392.494 28.5734C388.106 28.5734 384.112 30.1132 380.581 33.1927C377.026 36.3418 374.711 40.1623 373.646 44.666C372.963 47.6645 372.581 53.1754 372.581 61.0249V83.1031H365.264L365.264 23.0047Z" fill="#E11735"/>
    <path fill-rule="evenodd" clip-rule="evenodd" d="M460.546 28.9901C456.309 28.9901 452.395 30.0553 448.749 32.1855C445.136 34.4084 442.346 37.3722 440.216 41.2854C438.144 45.1407 437.009 49.2622 437.009 53.4996C437.009 57.8527 438.144 61.9511 440.216 65.7948C442.346 69.7427 445.217 72.7644 448.806 74.9872C452.488 77.1175 456.309 78.2752 460.453 78.2752C464.61 78.2752 468.604 77.1175 472.343 74.9872C476.013 72.857 478.896 69.9164 480.968 66.2116C482.948 62.5415 483.898 58.3621 483.898 53.7659C483.898 46.7152 481.675 40.8107 477.206 36.1335C472.667 31.3867 467.064 28.9901 460.546 28.9901ZM490.925 23.0279V83.9134H483.423V73.4128C480.228 77.4417 476.639 80.4054 472.725 82.4547C468.754 84.4112 464.366 85.4764 459.654 85.4764C451.296 85.4764 444.094 82.362 438.202 76.0523C432.297 69.8352 429.275 62.2752 429.275 53.2564C429.275 44.5735 432.297 37.0249 438.283 30.7963C444.28 24.5677 451.446 21.4648 459.898 21.4648C464.76 21.4648 469.136 22.53 473.05 24.6602C477.055 26.7905 480.494 29.9975 483.423 34.2348V23.0279H490.925Z" fill="#E11735"/>
    <path fill-rule="evenodd" clip-rule="evenodd" d="M503.903 28.2472H504.853C505.362 28.2472 505.686 28.2472 505.837 28.0623C506.069 27.9237 506.161 27.738 506.161 27.507C506.161 27.3566 506.069 27.1827 506.011 27.0903C505.918 26.9399 505.837 26.8593 505.686 26.766C505.512 26.766 505.177 26.7072 504.795 26.7072H503.903L503.903 28.2472ZM503.082 31.1763V26.0244H504.795C505.444 26.0244 505.837 26.0244 506.161 26.1168C506.392 26.2907 506.659 26.4411 506.81 26.7074C506.995 26.9393 507.053 27.1821 507.053 27.4139C507.053 27.8306 506.902 28.1549 506.659 28.3981C506.334 28.6644 506.01 28.803 505.512 28.8954C505.779 28.9878 505.837 29.0811 506.011 29.1382C506.161 29.4045 506.393 29.7289 506.717 30.2034L507.377 31.1758H506.336L505.919 30.3768C505.514 29.7282 505.27 29.3117 505.039 29.1381C504.854 29.0793 504.622 28.9877 504.38 28.9877H503.905V31.1758L503.082 31.1763ZM505.119 24.4845C504.471 24.4845 503.823 24.6585 503.163 25.0399C502.514 25.3759 502.04 25.8733 501.716 26.5218C501.299 27.1813 501.148 27.8301 501.148 28.5711C501.148 29.2197 501.299 29.8793 501.716 30.5277C502.04 31.1762 502.514 31.6854 503.163 32.0096C503.823 32.4263 504.471 32.5767 505.119 32.5767C505.837 32.5767 506.485 32.4263 507.134 32.0096C507.794 31.6853 508.268 31.1762 508.592 30.5277C508.917 29.8791 509.148 29.2194 509.148 28.5711C509.148 27.8301 508.917 27.1817 508.592 26.5218C508.268 25.8732 507.701 25.3757 507.134 25.0399C506.485 24.6576 505.837 24.4845 505.119 24.4845ZM505.119 23.8242C505.918 23.8242 506.717 24.0099 507.458 24.3333C508.269 24.7156 508.824 25.3754 509.241 26.1163C509.75 26.8573 509.889 27.6792 509.889 28.5707C509.889 29.4041 509.751 30.2031 509.334 30.944C508.825 31.685 508.269 32.3334 507.551 32.7502C506.718 33.1324 506.011 33.3172 505.12 33.3172C504.298 33.3172 503.488 33.1316 502.747 32.7502C502.04 32.3335 501.473 31.685 500.975 30.944C500.559 30.203 500.408 29.4043 500.408 28.5707C500.408 27.6792 500.559 26.8573 500.975 26.1163C501.473 25.3753 502.04 24.7154 502.747 24.3333C503.58 24.0091 504.379 23.8242 505.12 23.8242H505.119Z" fill="#E11735"/>
</svg>
