<svg width="144" height="41" viewBox="0 0 144 41" fill="none" xmlns="http://www.w3.org/2000/svg">
    <g clip-path="url(#clip0_54_2)">
        <path d="M0.503662 22.6564H3.78828L9.12674 30.9525L14.469 22.6564H17.7537V40.2064H14.669V27.6179L9.12674 35.8872H9.02674L3.53828 27.6679V40.2064H0.503662V22.6564ZM28.8075 40.2064V38.5718C28.2866 39.1981 27.6294 39.6969 26.8861 40.0302C26.1428 40.3635 25.3332 40.5225 24.519 40.4948C21.9998 40.4833 19.8075 39.0525 19.8075 36.3795V36.3333C19.8075 33.3987 22.0921 31.9987 25.1729 31.9987C26.4155 31.9778 27.6528 32.1636 28.8344 32.5487V32.2987C28.8344 30.4718 27.6806 29.4679 25.5767 29.4679C24.2697 29.4729 22.9785 29.7547 21.7883 30.2948L20.9614 27.8679C22.5337 27.1177 24.2578 26.7399 25.9998 26.7641C29.9114 26.7641 31.8152 28.8179 31.8152 32.3525V40.2025L28.8075 40.2064ZM28.8806 34.6641C27.9087 34.3083 26.8809 34.1298 25.846 34.1372C23.9229 34.1372 22.8114 34.9064 22.8114 36.191V36.241C22.8114 37.4948 23.9383 38.1987 25.369 38.1987C27.3729 38.1987 28.8767 37.0718 28.8767 35.4141L28.8806 34.6641ZM34.119 26.9641H37.1537V29.9487C37.9806 27.9679 39.5113 26.6141 41.8421 26.7141V29.9218H41.6652C39.0075 29.9218 37.1537 31.6525 37.1537 35.1602V40.2064H34.119V26.9641ZM50.846 40.2064V38.5718C50.3257 39.1978 49.6691 39.6965 48.9265 40.0298C48.1839 40.3631 47.3749 40.5222 46.5614 40.4948C44.0537 40.4948 41.846 39.0641 41.846 36.4025V36.3564C41.846 33.4218 44.1306 32.0218 47.2306 32.0218C48.4732 32.0008 49.7106 32.1866 50.8921 32.5718V32.3218C50.8921 30.4948 49.7383 29.491 47.6344 29.491C46.3273 29.4953 45.036 29.7772 43.846 30.3179L43.0229 27.8833C44.5904 27.1293 46.3105 26.7464 48.0498 26.7641C51.9613 26.7641 53.869 28.8179 53.869 32.3525V40.2025L50.846 40.2064ZM50.9229 34.6641C49.951 34.3085 48.9232 34.13 47.8883 34.1372C45.9844 34.1372 44.8575 34.9064 44.8575 36.191V36.241C44.8575 37.4948 45.9844 38.1987 47.4152 38.1987C49.4229 38.1987 50.9229 37.0718 50.9229 35.4141V34.6641ZM56.5037 36.5448V29.5718H54.8229V26.9641H56.5037V23.3333H59.5421V26.9679H63.0998V29.5718H59.5421V36.0641C59.5421 37.241 60.1421 37.7179 61.1729 37.7179C61.8257 37.7214 62.4696 37.567 63.0498 37.2679V39.7525C62.2169 40.2194 61.2736 40.4532 60.319 40.4295C58.0883 40.4295 56.5037 39.4487 56.5037 36.541M64.7421 22.6525H67.769V29.0218C68.6229 27.7679 69.8498 26.691 71.9037 26.691C74.8921 26.691 76.6152 28.6872 76.6152 31.7641V40.191H73.5806V32.6833C73.5806 30.6295 72.5537 29.4487 70.7498 29.4487C68.946 29.4487 67.769 30.6756 67.769 32.7333V40.2064H64.7383L64.7421 22.6525ZM78.1537 33.6602V33.6102C78.1535 32.6887 78.3372 31.7763 78.6943 30.9267C79.0513 30.0771 79.5743 29.3073 80.2328 28.6625C80.8912 28.0177 81.6717 27.5108 82.5286 27.1716C83.3855 26.8324 84.3015 26.6677 85.2229 26.6872C89.2844 26.6872 92.2652 29.7641 92.2652 33.5564V33.6064C92.2652 37.3679 89.2575 40.5025 85.1729 40.5025C81.0883 40.5025 78.1537 37.4256 78.1537 33.6564M89.2344 33.6564V33.6064C89.2344 31.2756 87.5537 29.3448 85.1729 29.3448C82.7921 29.3448 81.1844 31.2679 81.1844 33.5756V33.6256C81.1844 35.9333 82.8652 37.891 85.2229 37.891C87.6767 37.891 89.2344 35.9679 89.2344 33.6602M93.9613 26.9641H96.9998V29.0179C97.8498 27.7641 99.0806 26.6872 101.134 26.6872C104.111 26.691 105.846 28.6872 105.846 31.7641V40.191H102.808V32.6833C102.808 30.6256 101.781 29.4487 99.9767 29.4487C98.1729 29.4487 96.9998 30.6756 96.9998 32.7333V40.2064H93.9613V26.9641ZM109.769 31.4756V31.4256C109.769 26.4872 113.581 22.3525 118.969 22.3525C124.358 22.3525 128.119 26.441 128.119 31.3795V31.4295C128.119 36.3679 124.308 40.5064 118.919 40.5064C113.531 40.5064 109.769 36.4179 109.769 31.4756ZM124.884 31.4756V31.4256C124.884 28.0141 122.404 25.1833 118.919 25.1833C115.434 25.1833 113.008 27.9679 113.008 31.3795V31.4295C113.008 34.8372 115.488 37.6718 118.973 37.6718C122.458 37.6718 124.888 34.8872 124.888 31.4756M130.196 22.6525H133.454V25.5256H130.196V22.6525ZM130.323 40.2064H133.357V27.5525H130.323V40.2064ZM135.934 22.6525H138.965V40.2064H135.934V22.6525Z" fill="#5F6062"/>
        <path d="M75.996 1.24502C75.6155 1.1742 75.2292 1.13943 74.8421 1.14118C66.9921 1.14118 64.9191 15.0796 64.7229 16.5489H68.9229C69.0114 15.7796 70.3267 5.01041 76.0037 1.24502" fill="#72CDF4"/>
        <path d="M78.3307 0.944726C79.522 0.653106 80.7644 0.639945 81.9615 0.906264C81.2678 1.34222 80.6231 1.85156 80.0384 2.4255C79.5204 1.87544 78.9469 1.38049 78.3269 0.948572M79.2692 3.12934C78.7546 2.58119 78.1545 2.12008 77.4923 1.76396C71.8692 4.45626 70.2731 15.2909 70.1077 16.5486H74.2807C74.3538 15.914 75.3615 7.74473 79.2807 3.13319" fill="#00A4E4"/>
        <path d="M80.7307 3.17948C81.3473 2.54985 82.0666 2.02962 82.8576 1.64102C83.5697 2.01938 84.2122 2.51622 84.7576 3.11025C83.9627 4.05297 83.2811 5.08566 82.7268 6.18718C82.1532 5.1166 81.4866 4.09857 80.7345 3.14487M83.696 0.944869C84.886 0.65371 86.1271 0.64055 87.323 0.906408C86.6297 1.34292 85.985 1.85222 85.3999 2.42564C84.8812 1.87631 84.3077 1.38143 83.6883 0.948715M82.096 7.33333C81.5193 6.18937 80.8437 5.09804 80.0768 4.07179C76.7037 8.20256 75.6383 15.3372 75.4614 16.5603H79.6383C80.0364 13.3868 80.8619 10.2817 82.0922 7.32948" fill="#0081C6"/>
        <path d="M104.046 2.43359C103.65 5.60789 102.823 8.71339 101.588 11.6644C102.169 12.8142 102.85 13.9108 103.623 14.9413C107.004 10.799 108.061 3.6759 108.238 2.44898L104.046 2.43359ZM88.6268 9.73359C87.4729 7.18744 86.4537 5.37975 85.4306 4.06052C84.6309 5.068 83.958 6.16983 83.4268 7.34129C83.7345 7.95282 84.0421 8.59513 84.3383 9.26436C87.1806 15.5259 89.4537 17.8528 92.7383 17.8528C93.1777 17.8532 93.6159 17.8081 94.046 17.7182C92.1806 16.3567 90.4998 13.8721 88.6268 9.74898" fill="#72CDF4"/>
        <path d="M93.9884 9.73339C91.9269 5.18339 90.1961 2.81031 88.2192 1.76416C87.4844 2.12901 86.8131 2.60948 86.2307 3.18724C87.3653 4.60647 88.5038 6.59108 89.6923 9.24877C91.7576 13.7988 93.4846 16.1719 95.4615 17.218C96.1998 16.8553 96.874 16.3747 97.4576 15.7949C96.3038 14.3719 95.1807 12.3911 93.9961 9.73724M96.3653 18.0795C97.0593 17.6366 97.704 17.1209 98.2884 16.5411C98.8066 17.0909 99.3802 17.5858 99.9999 18.018C99.3708 18.1736 98.7249 18.2511 98.0769 18.2488C97.4998 18.2516 96.9242 18.1883 96.3615 18.0603M109.408 2.43339C109.335 3.07185 108.335 11.2257 104.408 15.8488C104.92 16.3992 105.519 16.8618 106.181 17.218C111.773 14.5257 113.358 4.0757 113.573 2.43339H109.408Z" fill="#00A4E4"/>
        <path d="M98.9229 15.8527C99.7184 14.9104 100.4 13.8776 100.954 12.7757C101.529 13.8451 102.196 14.8629 102.946 15.818C102.332 16.4491 101.614 16.9695 100.823 17.3565C100.107 16.9686 99.4647 16.4598 98.9229 15.8527ZM105.357 18.0373C104.728 18.1928 104.082 18.2703 103.434 18.268C102.856 18.2707 102.279 18.2075 101.715 18.0796C102.41 17.6379 103.055 17.1221 103.638 16.5411C104.155 17.0931 104.729 17.5894 105.35 18.0219M99.3498 9.73342C96.5075 3.47188 94.2306 1.14112 90.9498 1.14112C90.5104 1.14071 90.0722 1.18582 89.6421 1.27573C91.5075 2.64112 93.1882 5.12188 95.0613 9.24881C96.2152 11.7911 97.2305 13.5988 98.2575 14.9257C99.0574 13.9184 99.7304 12.8166 100.261 11.645C99.9536 11.0334 99.6459 10.3911 99.3498 9.72189M114.769 2.43342C114.681 3.20265 113.342 13.9911 107.692 17.7373C108.065 17.8054 108.444 17.8388 108.823 17.8373C116.7 17.8373 118.75 3.89496 118.946 2.42958L114.769 2.43342Z" fill="#0081C6"/>
        <path d="M142.604 23.8297C142.606 23.7663 142.595 23.7032 142.57 23.6447C142.546 23.5862 142.508 23.5339 142.461 23.4912C142.347 23.3986 142.201 23.3545 142.054 23.3682H141.385V24.9374H141.658V24.2912H142.042L142.285 24.9335H142.585L142.311 24.2412C142.399 24.2143 142.474 24.1593 142.527 24.085C142.58 24.0106 142.607 23.9209 142.604 23.8297ZM142 24.072H141.654V23.6105H142.038C142.235 23.6105 142.311 23.722 142.311 23.8374C142.3 24.0143 142.142 24.072 142 24.072Z" fill="#5F6062"/>
        <path d="M142 22.6528C141.703 22.6528 141.413 22.7408 141.167 22.9056C140.92 23.0705 140.728 23.3047 140.614 23.5788C140.501 23.8529 140.471 24.1545 140.529 24.4455C140.587 24.7364 140.73 25.0037 140.939 25.2135C141.149 25.4233 141.416 25.5661 141.707 25.624C141.998 25.6819 142.3 25.6522 142.574 25.5387C142.848 25.4251 143.082 25.2329 143.247 24.9862C143.412 24.7395 143.5 24.4495 143.5 24.1528C143.5 23.755 143.342 23.3735 143.061 23.0922C142.779 22.8109 142.398 22.6528 142 22.6528ZM142 25.3836C141.757 25.3836 141.519 25.3114 141.316 25.1762C141.114 25.0409 140.956 24.8487 140.863 24.6238C140.77 24.3989 140.745 24.1515 140.793 23.9127C140.84 23.674 140.958 23.4547 141.13 23.2825C141.302 23.1104 141.521 22.9932 141.76 22.9457C141.999 22.8982 142.246 22.9226 142.471 23.0158C142.696 23.1089 142.888 23.2667 143.023 23.4691C143.159 23.6715 143.231 23.9094 143.231 24.1528C143.23 24.4789 143.1 24.7914 142.869 25.022C142.639 25.2526 142.326 25.3826 142 25.3836Z" fill="#5F6062"/>
    </g>
    <defs>
        <clipPath id="clip0_54_2">
            <rect width="143.077" height="40" fill="white" transform="translate(0.461426 0.610352)"/>
        </clipPath>
    </defs>
</svg>
