<svg width="140" height="40" viewBox="0 0 140 40" fill="none" xmlns="http://www.w3.org/2000/svg">
<g clip-path="url(#clip0_113_6623)">
<path d="M59.4584 13.6667L54.7779 21.1528L50.1529 13.6667H48.0834V26.3056H50.1529V18.1667C50.1529 18.0139 50.1529 17.8611 50.139 17.7083C50.1251 17.5556 50.1251 17.4028 50.0973 17.2222C50.1946 17.4861 50.3473 17.7778 50.5279 18.0556L53.889 23.4583H55.5557L58.889 18.0556C58.9723 17.9167 59.0557 17.7917 59.1529 17.6528C59.2501 17.5139 59.3334 17.375 59.4168 17.2222C59.4029 17.3889 59.389 17.5556 59.3751 17.7083C59.3612 17.8611 59.3612 18.0139 59.3612 18.1667V26.3056H61.4029V13.6667H59.4584ZM65.8334 26.3056L69.9029 16.375C69.9307 16.2778 69.9723 16.1667 70.014 16.0556C70.0557 15.9444 70.0973 15.8194 70.1251 15.6667C70.1529 15.8194 70.1946 15.9444 70.2362 16.0556C70.2779 16.1667 70.3196 16.2778 70.3473 16.375L72.5696 21.7778H67.8057L69.0418 23.625H73.3196L74.4307 26.3056H76.6112L71.2779 13.6667H69.0557L63.7223 26.3056H65.8334ZM97.6807 26.3056L102.82 13.6667H100.597L96.9723 23.1944C96.8612 23.5139 96.7362 23.8889 96.6251 24.3056C96.514 23.8889 96.389 23.5139 96.2779 23.1944L92.6668 13.6667H90.3473L95.4862 26.3056H97.6807ZM117.264 13.6667V26.3056H125.5V24.4306H119.333V13.6667H117.264ZM128.014 13.6667V26.3056H136.333V24.4306H130.083V13.6667H128.014ZM107.236 15.5417H113.861V13.6667H105.195V26.3056H113.986V24.4306H107.236V15.5417ZM88.8057 17.4583C88.8057 16.2778 88.4446 15.3472 87.7084 14.6806C86.9723 14.0139 85.7501 13.6667 84.0279 13.6667H78.8751V26.3056H80.9446V15.5417H84.1112C85.8057 15.5417 86.6668 16.2361 86.6668 17.6389C86.6668 19.1389 85.7501 19.8889 83.9168 19.8889H82.2501L81.0696 21.7083H83.8751L87.3612 26.3056H89.8612L86.0279 21.25C87.8751 20.5833 88.8057 19.3194 88.8057 17.4583ZM112.972 19.0278H107.361L108.625 20.9028H112.972V19.0278ZM15.8473 15.4306L20.0279 19.7083C20.1251 19.8056 20.2223 19.8611 20.3057 19.8611C20.389 19.8611 20.4862 19.8056 20.5834 19.7083L24.764 15.4306C24.8612 15.3333 24.9168 15.2361 24.9168 15.1528C24.9168 15.0139 24.8473 14.9583 24.6946 14.9583H15.9307C15.7779 14.9583 15.7084 15.0278 15.7084 15.1528C15.6946 15.2361 15.7501 15.3333 15.8473 15.4306ZM40.3057 0.222222C40.3057 0.0694444 40.2362 0 40.0973 0C40.014 0 39.9307 0.0416667 39.8473 0.125L36.4168 3.59722V36.375L39.8473 39.875C39.9307 39.9583 40.014 40 40.0973 40C40.2362 40 40.3057 39.9306 40.3057 39.7778V0.222222ZM0.305664 39.7778C0.305664 39.9306 0.375109 40 0.513997 40C0.597331 40 0.680664 39.9583 0.763997 39.875L4.19455 36.375V3.59722L0.763997 0.125C0.680664 0.0416667 0.583442 0 0.513997 0C0.375109 0 0.305664 0.0694444 0.305664 0.222222V39.7778ZM9.22233 8.72222H31.4029L34.514 5.55556C34.5973 5.47222 34.639 5.38889 34.639 5.30556C34.639 5.16667 34.5696 5.09722 34.4168 5.09722H6.19455C6.04178 5.09722 5.97233 5.16667 5.97233 5.30556C5.97233 5.38889 6.014 5.47222 6.09733 5.55556L9.22233 8.72222ZM6.09733 34.4444C6.014 34.5278 5.97233 34.6111 5.97233 34.6944C5.97233 34.8333 6.04178 34.8889 6.19455 34.8889H34.4029C34.5557 34.8889 34.6251 34.8194 34.6251 34.6944C34.6251 34.6111 34.5834 34.5278 34.5001 34.4444L31.389 31.2778H9.22233L6.09733 34.4444ZM29.7223 29.5833C29.8057 29.6667 29.889 29.7083 29.9723 29.7083C30.1112 29.7083 30.1668 29.6389 30.1668 29.4861V10.5139C30.1668 10.3611 30.0973 10.2917 29.9723 10.2917C29.889 10.2917 29.8057 10.3333 29.7223 10.4167L26.4723 13.7222V26.2917L29.7223 29.5833ZM14.139 26.2778V13.7222L10.889 10.4167C10.8057 10.3333 10.7223 10.2917 10.639 10.2917C10.5001 10.2917 10.4446 10.375 10.4446 10.5139V29.4861C10.4446 29.6389 10.514 29.7083 10.639 29.7083C10.7223 29.7083 10.8057 29.6667 10.889 29.5833L14.139 26.2778ZM136.25 13.6667V13.9028H136.833V15.2639H137.097V13.9028H137.681V13.6667H136.25ZM139.445 13.6667L138.847 14.6111L138.264 13.6667H138V15.2639H138.264V14.2361C138.264 14.2222 138.264 14.1944 138.264 14.1806C138.264 14.1667 138.264 14.1389 138.264 14.125C138.278 14.1528 138.292 14.1944 138.32 14.2361L138.75 14.9167H138.958L139.375 14.2361C139.389 14.2222 139.403 14.2083 139.403 14.1806C139.403 14.1528 139.431 14.1528 139.431 14.125C139.431 14.1528 139.431 14.1667 139.431 14.1806C139.431 14.1944 139.431 14.2222 139.431 14.2361V15.2639H139.695V13.6667H139.445Z" fill="black"/>
</g>
<defs>
<clipPath id="clip0_113_6623">
<rect width="139.389" height="40" fill="white" transform="translate(0.305664)"/>
</clipPath>
</defs>
</svg>
