<svg width="66" height="10" viewBox="0 0 66 10" fill="none" xmlns="http://www.w3.org/2000/svg">
    <path d="M54.1521 0C54.1521 0 54.1521 6.77187 54.1521 6.77187C54.1521 7.10647 54.3269 7.30192 54.5073 7.425C54.7006 7.55481 54.9843 7.6198 55.3667 7.61979C55.6085 7.61979 55.9281 7.53958 55.9281 7.53958C55.9281 7.53958 55.9281 6.9323 55.9281 6.93229C55.8322 6.93824 55.7473 6.94375 55.6531 6.94375C55.084 6.94375 55 6.7214 55 6.47396C55 6.47396 55 3.96154e-06 55 3.99635e-07L54.1521 0ZM36.2427 0.06875C35.6036 0.06875 35.0258 0.269218 34.6156 0.630208C34.2173 0.982329 33.9969 1.46838 33.9969 1.99375C33.9969 2.57238 34.231 3.02449 34.7188 3.38021C35.1489 3.69431 35.7178 3.89711 36.2656 4.09062C37.2179 4.42935 38.1104 4.73848 38.1104 5.60312C38.1104 5.98765 37.9796 6.31732 37.7323 6.54271C37.4604 6.79057 37.0691 6.90938 36.5521 6.90938C35.6458 6.90938 34.9861 6.40759 34.6156 5.43125C34.6156 5.43125 33.8021 5.64896 33.8021 5.64896C33.9773 6.04491 34.2754 6.61633 34.7073 7.00104C35.1809 7.42594 35.7687 7.63125 36.5063 7.63125C37.3796 7.63125 38.0426 7.40597 38.4771 6.95521C38.9275 6.48596 39.0271 5.88543 39.0271 5.46563C39.0271 4.86405 38.7728 4.39953 38.2594 4.03333C37.8111 3.71181 37.2311 3.50458 36.6667 3.31146C35.747 2.99697 34.8694 2.69767 34.8792 1.925C34.8824 1.56471 35.0074 1.28424 35.2344 1.08854C35.4657 0.889735 35.7955 0.790625 36.2198 0.790625C36.6655 0.790629 37.0629 0.9152 37.3656 1.15729C37.644 1.37778 37.8466 1.705 37.9385 2.07396C37.9385 2.07396 38.7292 1.97083 38.7292 1.97083C38.3823 0.788315 37.5346 0.06875 36.2427 0.06875ZM0 0.171875V7.52813H0.847917V0.802083L0.870833 0.825L2.8875 7.52813H3.54063L5.56875 0.825L5.58021 0.802083V7.52813H6.42813V0.171875H5.01875L3.21979 6.08437V6.10729L3.20833 6.08437L1.40937 0.171875H0ZM40.3677 0.320833V2.08542H39.5542V2.76146C39.5542 2.76146 40.3677 2.76146 40.3677 2.76146C40.3677 2.76146 40.3677 6.54253 40.3677 6.77187C40.3677 7.10647 40.52 7.30192 40.7 7.425C40.8937 7.55481 41.1766 7.6198 41.5594 7.61979C41.8016 7.61979 42.1323 7.53958 42.1323 7.53958C42.1323 7.53958 42.1323 6.9323 42.1323 6.93229C42.0382 6.93824 41.9396 6.94375 41.8458 6.94375C41.2759 6.94375 41.2156 6.7214 41.2156 6.47396C41.2156 6.47396 41.2156 2.76146 41.2156 2.76146H42.1323V2.08542H41.2156V0.320833H40.3677ZM9.86563 1.98229C9.15163 1.98229 8.5465 2.26997 8.12396 2.80729C7.73181 3.30875 7.51667 4.01714 7.51667 4.80104C7.51667 5.58566 7.73181 6.29277 8.12396 6.79479C8.5465 7.33354 9.15163 7.61979 9.86563 7.61979C10.5826 7.61979 11.1859 7.33354 11.6073 6.79479C11.9995 6.29277 12.2146 5.58566 12.2146 4.80104C12.2146 4.01714 11.9995 3.30875 11.6073 2.80729C11.1859 2.26997 10.5826 1.98229 9.86563 1.98229ZM58.7812 1.99375C58.4188 1.99375 58.0818 2.06037 57.7958 2.18854C57.5159 2.3147 57.2673 2.50465 57.074 2.75C56.6894 3.23154 56.4667 3.94643 56.4667 4.8125C56.4667 5.7764 56.7436 6.51188 57.2458 7.00104C57.7756 7.51812 58.4506 7.61979 58.9188 7.61979C60.1353 7.61979 60.7322 6.96154 60.9813 6.35938C60.9812 6.35938 60.3052 6.02708 60.3052 6.02708C60.1408 6.39371 59.7631 6.95521 58.9188 6.95521C58.4361 6.95521 58.0414 6.75762 57.7615 6.39375C57.491 6.04163 57.339 5.55426 57.3375 4.97292C57.3375 4.97292 61.05 4.97292 61.05 4.97292C61.05 4.97292 61.05 4.45729 61.05 4.45729C61.05 3.56661 60.8128 2.9024 60.374 2.49792C60.0003 2.15433 59.4761 1.99375 58.7812 1.99375ZM18.551 2.00521C17.5944 2.00521 16.2365 2.64889 16.2365 4.8125C16.2365 6.91328 17.5902 7.61979 18.5052 7.61979C19.0393 7.6198 19.5245 7.32393 19.8573 6.89792C19.8573 6.89792 19.9031 6.875 19.9031 6.875C19.9031 6.87501 19.9031 7.90625 19.9031 7.90625C19.9031 8.62952 19.2771 9.075 18.6083 9.075C17.9581 9.07501 17.3825 8.95086 16.9125 8.73125C16.9125 8.73125 16.9125 9.46459 16.9125 9.46459C17.3083 9.63422 17.9523 9.73958 18.5052 9.73958C20.0104 9.73959 20.7281 8.91119 20.7281 7.71146C20.7281 7.71146 20.7281 2.10833 20.7281 2.10833H20.0979L19.9146 2.68125C19.6035 2.27592 19.1962 2.00521 18.551 2.00521ZM24.0281 2.00521C22.8239 2.00521 22.2537 2.7266 22.0115 3.17396L22.6875 3.52917C22.7824 3.27354 23.1239 2.68125 24.0396 2.68125C24.7616 2.68125 25.1281 2.9999 25.1281 3.63229V3.82708C25.1281 3.82708 25.134 3.88629 25.1167 3.90729C25.0898 3.94115 25.0138 3.96883 24.8302 3.9875C23.8193 4.10029 23.1474 4.26631 22.6531 4.58333C22.1166 4.92821 21.7823 5.41106 21.7823 6.07292C21.7823 6.54308 22.0099 6.94435 22.3094 7.23021C22.5878 7.49347 22.9672 7.63042 23.3865 7.64271C24.279 7.67134 24.8665 7.29987 25.151 6.86354C25.1731 7.16334 25.2806 7.33465 25.5177 7.45938C25.7404 7.57832 26.1057 7.55466 26.2625 7.51667C26.2625 7.51667 26.2625 6.94375 26.2625 6.94375C26.0735 6.93431 25.9531 6.84443 25.9531 6.61146C25.9531 6.61146 25.9531 3.9875 25.9531 3.9875C25.9531 3.9875 25.9531 3.64375 25.9531 3.64375C25.9531 3.10225 25.7406 2.65807 25.3344 2.37188C24.9994 2.1342 24.5314 2.00521 24.0281 2.00521H24.0281ZM29.8604 2.00521C29.3086 2.00521 28.7438 2.29108 28.2677 2.83021V2.10834H27.4198V7.53959H28.2677C28.2677 7.53959 28.2677 3.50625 28.2677 3.50625C28.5562 3.19795 29.2029 2.68125 29.7917 2.68125C30.3819 2.68125 30.6396 2.97075 30.6396 3.62083C30.6396 3.62083 30.6396 7.53959 30.6396 7.53959H31.4875V3.59792C31.4875 2.42445 30.653 2.00521 29.8604 2.00521ZM45.2031 2.00521C43.9995 2.00521 43.4295 2.7266 43.1865 3.17396C43.1865 3.17396 43.8625 3.52917 43.8625 3.52917C43.9577 3.27354 44.2989 2.68125 45.2146 2.68125C45.9365 2.68125 46.3031 2.9999 46.3031 3.63229C46.3031 3.63229 46.3031 3.82708 46.3031 3.82708C46.3031 3.82708 46.2972 3.88629 46.2802 3.90729C46.2538 3.94115 46.1895 3.96883 46.0052 3.9875C44.9943 4.10009 44.3223 4.26631 43.8281 4.58333C43.2919 4.92821 42.9573 5.41106 42.9573 6.07292C42.9573 6.54308 43.1845 6.94417 43.4844 7.23021C43.7628 7.49347 44.1425 7.63042 44.5615 7.64271C45.4532 7.67134 46.0415 7.29987 46.326 6.86354C46.3485 7.16321 46.4552 7.33465 46.6927 7.45938C46.915 7.57832 47.2804 7.55466 47.4375 7.51667C47.4375 7.51667 47.4375 6.94375 47.4375 6.94375C47.2489 6.93431 47.1281 6.84443 47.1281 6.61146C47.1281 6.61146 47.1281 3.9875 47.1281 3.9875C47.1281 3.9875 47.1281 3.64375 47.1281 3.64375C47.1281 3.10225 46.9046 2.65807 46.4979 2.37188C46.1626 2.1342 45.7061 2.00521 45.2031 2.00521ZM51.0354 2.00521C50.4821 2.00521 49.9188 2.29108 49.4427 2.83021V2.10834H48.5948V7.53959H49.4427C49.4427 7.53959 49.4427 3.50625 49.4427 3.50625C49.7316 3.19777 50.3772 2.68125 50.9667 2.68125C51.5558 2.68125 51.8146 2.97075 51.8146 3.62083V7.53959H52.6625V3.59792C52.6625 2.42445 51.828 2.00521 51.0354 2.00521ZM15.9156 2.02813C15.0553 2.02813 14.5455 2.36166 14.1052 3.15104V3.09375V2.10833H13.2573V7.52813H14.1052C14.1052 7.52813 14.1052 4.45729 14.1052 4.45729C14.3145 3.34173 14.9051 2.81875 15.9156 2.81875V2.02813ZM61.6229 2.09687L63.5135 7.48229C63.5135 7.48229 63.5135 7.52813 63.5135 7.52813C63.4006 8.04426 63.0738 8.68141 62.7802 8.88021C62.5209 9.05618 62.2401 9.075 62.024 9.075C61.9196 9.075 61.7041 9.03977 61.6115 9.01771C61.6115 9.01771 61.6115 9.67083 61.6115 9.67083C61.7288 9.69962 61.9995 9.75104 62.1729 9.75104C62.577 9.75105 62.9178 9.64989 63.2042 9.44167C63.5471 9.1924 63.9269 8.54275 64.1094 7.98646C64.1094 7.98646 66 2.09687 66 2.09687H65.175L63.9375 6.26771L63.926 6.35937L63.9031 6.26771L62.4479 2.09687H61.6229ZM9.86563 2.65833C10.7784 2.65833 11.3208 3.45954 11.3208 4.80104C11.3208 6.1429 10.7784 6.94375 9.86563 6.94375C8.95428 6.94375 8.41042 6.1429 8.41042 4.80104C8.41041 3.45954 8.95428 2.65833 9.86563 2.65833ZM18.6083 2.66979C19.0867 2.66979 19.5067 2.87649 19.9031 3.36875C19.9031 3.36875 19.9031 5.95833 19.9031 5.95833C19.6837 6.58294 19.0552 6.94375 18.6083 6.94375C17.7339 6.94375 17.1302 6.39928 17.1302 4.76667C17.1302 3.39387 17.672 2.66979 18.6083 2.66979ZM58.8042 2.66979C59.7756 2.66979 60.2099 3.18349 60.2135 4.29688C60.2136 4.29688 57.3604 4.29688 57.3604 4.29688C57.4343 3.18439 57.9004 2.66979 58.8042 2.66979ZM25.151 4.58333C25.151 4.58333 25.151 5.95833 25.151 5.95833C25.112 6.43304 24.2248 7.00758 23.501 6.96667C23.1017 6.94477 22.7169 6.6232 22.676 6.09583C22.6098 5.21456 23.272 4.84867 24.75 4.68646C24.8528 4.67705 25.0518 4.64055 25.151 4.58333ZM46.326 4.58333C46.326 4.58333 46.326 5.95833 46.326 5.95833C46.287 6.43283 45.3998 7.00758 44.676 6.96667C44.2774 6.94458 43.8908 6.62302 43.851 6.09583C43.7837 5.21456 44.4466 4.84867 45.925 4.68646C46.0271 4.67705 46.2275 4.64055 46.326 4.58333Z" fill="black"/>
</svg>
