<svg width="160" height="41" viewBox="0 0 160 41" fill="none" xmlns="http://www.w3.org/2000/svg">
    <g clip-path="url(#clip0_38_746)">
        <path d="M98.6485 19.4191C101.866 18.6532 103.946 16.2355 103.946 12.5458C103.946 8.05024 101.137 5.03986 95.3091 5.03986H85.8984V34.7307H95.6354C101.707 34.7307 104.963 31.7603 104.963 26.7119C104.963 22.6825 102.641 20.0917 98.6485 19.4191ZM87.6897 6.56503H95.2707C99.8769 6.56503 102.078 8.89608 102.078 12.6724C102.078 16.4487 99.8769 18.7397 95.2707 18.7397H87.6897V6.56503ZM95.5522 33.2055H87.6897V20.2649H95.5522C100.645 20.2649 103.088 22.6825 103.088 26.7119C103.088 30.7812 100.645 33.2055 95.5522 33.2055ZM115.192 13.6048C111.443 13.6048 108.757 15.7693 107.778 18.9062L109.326 19.4191C110.343 16.4953 112.461 15.05 115.192 15.05C118.615 15.05 120.573 16.7484 120.573 21.204V22.3895L117.962 22.516C109.204 22.8157 106.716 25.653 106.716 29.2627C106.716 32.9524 109.569 35.2435 113.356 35.2435C116.696 35.2435 119.261 33.5918 120.566 30.6214V34.7374H122.281V21.6236C122.281 16.069 119.671 13.6048 115.192 13.6048ZM120.566 26.7119C120.566 30.6547 117.879 33.7983 113.561 33.7983C110.548 33.7983 108.469 31.9734 108.469 29.2627C108.469 26.3789 110.381 24.0878 118.039 23.8347L120.566 23.7482C120.566 23.7415 120.566 26.7119 120.566 26.7119ZM134.705 13.6048C131.077 13.6048 128.39 16.0224 127.168 19.3725V14.111H125.415V34.724H127.168V24.3809C127.168 18.9062 130.105 15.1366 134.378 15.1366C137.718 15.1366 139.432 17.2146 139.432 21.2839V34.7307H141.185V20.9043C141.185 16.4886 138.901 13.6048 134.705 13.6048ZM151.696 22.2163L158.823 14.111H156.705L146.073 26.3256V5.03986H144.32V34.7307H146.073V28.5368L150.557 23.4884L157.972 34.724H159.968L151.696 22.2163ZM55.6321 13.0387H57.3787C57.3787 13.0387 57.3659 6.55171 63.0596 6.55171C63.0596 6.55171 64.499 6.55171 64.7933 6.55171C64.7933 6.85808 64.7933 33.2122 64.7933 33.2122H62.068C60.3279 33.0324 58.8756 31.8668 57.4746 30.4815L55.4274 28.4236C55.8752 27.7975 56.4702 26.8385 56.886 25.8394C57.3595 24.7072 57.7049 22.5826 57.916 22.0631C57.9864 21.89 58.0632 21.7301 58.1591 21.5703C58.4278 21.1241 58.882 20.7511 59.3427 20.5446C59.6945 20.3848 60.1231 20.2782 60.5134 20.2782H60.7757V18.7397H52.2351V20.2782H52.8109C54.3655 20.2849 55.6321 21.5969 55.6321 23.242C55.6321 25.3599 54.1096 27.0982 54.1096 27.0982L46.3047 19.2059C49.7913 17.8872 52.7213 16.0757 52.7213 12.6657C52.7213 9.0759 50.092 6.55171 45.3451 6.55171C40.5278 6.55171 37.3227 9.32232 37.3227 13.8046C37.3227 16.755 38.6213 18.6731 39.8816 19.9918C35.9216 21.5903 33.5674 23.6882 33.5674 27.5311C33.5674 32.9325 38.2439 35.1037 43.4386 35.1037C46.8549 35.1037 49.7209 34.038 51.9408 32.3331C51.9728 32.3064 53.4186 34.7507 57.6793 34.7507C57.9864 34.7507 73.884 34.7374 73.884 34.7374V33.2122H70.7621C70.7621 33.2122 70.7621 6.82478 70.7621 6.55171C71.0564 6.55171 72.4958 6.55171 72.4958 6.55171C78.1703 6.55171 78.1767 13.0387 78.1767 13.0387H79.9232V5.03986H55.6321V13.0387ZM45.1787 8.06356C47.0596 8.06356 48.2175 9.63535 48.2175 11.8732C48.2175 14.364 47.1555 16.5019 44.8716 17.7807C43.4002 16.2888 42.1399 14.2508 42.1399 11.7999C42.1335 9.60205 43.2979 8.06356 45.1787 8.06356ZM45.006 32.5129C41.6281 32.5129 39.1012 29.9088 39.1012 26.4255C39.1012 23.9746 39.6449 22.4827 41.2187 21.4171L50.6421 31.0477C49.1004 32.1466 47.1235 32.5129 45.006 32.5129ZM30.6757 6.55171H34.0536V5.0332H24.95C24.95 5.0332 17.4202 24.614 17.1771 25.2467C16.934 24.6073 9.36585 5.0332 9.36585 5.0332H0.0319824V6.55837H3.40983L3.40343 33.2055H0.607752V34.724H8.84766V33.2055H5.19472C5.19472 33.2055 5.19472 10.9674 5.19472 9.94838C5.62335 11.0739 14.375 34.0447 14.375 34.0447H15.8529C15.8529 34.0447 24.483 11.0806 24.9116 9.94838C24.9116 11.1938 24.8988 33.2122 24.8988 33.2122H22.0264V34.724H33.561V33.2122H30.6757V6.55171Z" fill="#027856"/>
    </g>
    <defs>
        <clipPath id="clip0_38_746">
            <rect width="160" height="30.2703" fill="white" transform="translate(0 5)"/>
        </clipPath>
    </defs>
</svg>
