<svg width="128" height="40" viewBox="0 0 128 40" fill="none" xmlns="http://www.w3.org/2000/svg">
<mask id="mask0_113_7092" style="mask-type:luminance" maskUnits="userSpaceOnUse" x="0" y="0" width="128" height="40">
<path d="M127.018 0H0.981934V40H127.018V0Z" fill="white"/>
</mask>
<g mask="url(#mask0_113_7092)">
<path d="M84.4288 28.6207H87.8595V30.7761C87.4557 31.2126 86.9614 31.5558 86.4112 31.7816C85.861 32.0074 85.2682 32.1103 84.6741 32.0833C84.0576 32.0971 83.4446 31.9877 82.8711 31.7613C82.2975 31.535 81.7749 31.1963 81.3341 30.7652C80.8932 30.3341 80.5429 29.8193 80.3037 29.2509C80.0646 28.6826 79.9413 28.0722 79.9413 27.4556C79.9413 26.8389 80.0646 26.2285 80.3037 25.6602C80.5429 25.0918 80.8932 24.577 81.3341 24.1459C81.7749 23.7148 82.2975 23.3761 82.8711 23.1498C83.4446 22.9234 84.0576 22.814 84.6741 22.8278C85.2263 22.8091 85.7764 22.9042 86.2903 23.1072C86.8041 23.3103 87.2707 23.6169 87.6609 24.008L87.7243 24.0663L88.8311 22.9455L88.7764 22.8872C88.2334 22.3278 87.5778 21.8903 86.8528 21.6037C86.1279 21.317 85.3502 21.1878 84.5716 21.2246C82.9485 21.269 81.4069 21.945 80.2746 23.1087C79.1423 24.2723 78.5088 25.8319 78.5088 27.4556C78.5088 29.0792 79.1423 30.6388 80.2746 31.8024C81.4069 32.9661 82.9485 33.6421 84.5716 33.6865C85.5057 33.7169 86.434 33.5272 87.2812 33.1325C88.1284 32.7378 88.871 32.1493 89.4487 31.4145L89.4655 31.3889V27.0233H84.4359V28.6207H84.4288Z" fill="black"/>
</g>
<mask id="mask1_113_7092" style="mask-type:luminance" maskUnits="userSpaceOnUse" x="0" y="0" width="128" height="40">
<path d="M127.018 0H0.981934V40H127.018V0Z" fill="white"/>
</mask>
<g mask="url(#mask1_113_7092)">
<path d="M94.9154 24.0988C94.5316 24.114 94.1547 24.2057 93.8068 24.3684C93.4588 24.5312 93.1469 24.7618 92.8893 25.0466V24.5136H91.2861V33.2571H92.8893V27.9314C92.8893 26.5566 93.6507 25.7148 94.4843 25.7148C94.7108 25.6975 94.9383 25.7306 95.1505 25.8118C95.3626 25.893 95.5541 26.0202 95.7111 26.1844L95.7915 26.256L96.6589 24.6487L96.6007 24.6022C96.1179 24.2382 95.5204 24.0596 94.9171 24.0988" fill="black"/>
</g>
<mask id="mask2_113_7092" style="mask-type:luminance" maskUnits="userSpaceOnUse" x="0" y="0" width="128" height="40">
<path d="M127.018 0H0.981934V40H127.018V0Z" fill="white"/>
</mask>
<g mask="url(#mask2_113_7092)">
<path d="M101.362 24.0859C100.413 24.0859 99.4845 24.3675 98.6949 24.8951C97.9053 25.4227 97.2899 26.1725 96.9265 27.0499C96.5631 27.9272 96.468 28.8926 96.6533 29.824C96.8386 30.7553 97.2958 31.6109 97.9673 32.2823C98.6388 32.9538 99.4943 33.4111 100.426 33.5964C101.357 33.7816 102.323 33.6865 103.2 33.3231C104.077 32.9597 104.827 32.3443 105.355 31.5548C105.882 30.7652 106.164 29.8369 106.164 28.8873C106.163 27.6143 105.656 26.3937 104.756 25.4936C103.856 24.5934 102.635 24.0872 101.362 24.0859ZM101.362 32.0849C100.73 32.0849 100.111 31.8973 99.5855 31.5459C99.0596 31.1945 98.6497 30.695 98.4076 30.1106C98.1656 29.5262 98.1022 28.8831 98.2256 28.2628C98.349 27.6424 98.6537 27.0725 99.101 26.6252C99.5482 26.178 100.118 25.8734 100.738 25.75C101.359 25.6265 102.002 25.6899 102.586 25.932C103.171 26.174 103.67 26.584 104.022 27.1099C104.373 27.6358 104.56 28.2541 104.56 28.8867C104.559 29.7344 104.222 30.547 103.622 31.1464C103.023 31.7459 102.21 32.0833 101.362 32.0849Z" fill="black"/>
</g>
<mask id="mask3_113_7092" style="mask-type:luminance" maskUnits="userSpaceOnUse" x="0" y="0" width="128" height="40">
<path d="M127.018 0H0.981934V40H127.018V0Z" fill="white"/>
</mask>
<g mask="url(#mask3_113_7092)">
<path d="M113.844 29.7123C113.84 30.0385 113.769 30.3604 113.636 30.6584C113.503 30.9563 113.311 31.224 113.071 31.445C112.831 31.666 112.549 31.8356 112.241 31.9436C111.933 32.0515 111.606 32.0955 111.281 32.0728C109.716 32.0728 108.984 31.231 108.984 29.4292V24.5137H107.378V29.3488C107.378 32.2615 108.664 33.676 111.308 33.676C112.238 33.6428 113.13 33.2989 113.841 32.6991V33.2618H115.444V24.5137H113.844V29.7123Z" fill="black"/>
</g>
<mask id="mask4_113_7092" style="mask-type:luminance" maskUnits="userSpaceOnUse" x="0" y="0" width="128" height="40">
<path d="M127.018 0H0.981934V40H127.018V0Z" fill="white"/>
</mask>
<g mask="url(#mask4_113_7092)">
<path d="M121.473 24.0859C120.457 24.0616 119.472 24.4383 118.732 25.1345V24.5123H117.133V36.9741H118.736V32.6977C119.518 33.3019 120.472 33.6425 121.46 33.6705C124.082 33.6705 125.914 31.7161 125.914 28.9158C125.91 26.1621 124.003 24.0847 121.473 24.0847M124.307 28.8692C124.307 31.0689 122.85 32.0732 121.502 32.0732C120.851 32.0732 118.732 31.8402 118.732 28.8692C118.732 26.8769 119.768 25.6838 121.502 25.6838C123.44 25.6838 124.307 27.5451 124.307 28.8692Z" fill="black"/>
</g>
<mask id="mask5_113_7092" style="mask-type:luminance" maskUnits="userSpaceOnUse" x="0" y="0" width="128" height="40">
<path d="M127.018 0H0.981934V40H127.018V0Z" fill="white"/>
</mask>
<g mask="url(#mask5_113_7092)">
<path d="M90.6854 6.52686H89.1248L85.6983 15.6257L82.2804 6.58161L82.2647 6.52686H80.6994L78.5545 18.0496L78.5376 18.151H80.1745L81.769 9.79203L84.9037 18.0916L84.9246 18.1498H86.4771L89.6228 9.79086L91.2307 18.1498H92.8548L90.6854 6.52686Z" fill="black"/>
</g>
<mask id="mask6_113_7092" style="mask-type:luminance" maskUnits="userSpaceOnUse" x="0" y="0" width="128" height="40">
<path d="M127.018 0H0.981934V40H127.018V0Z" fill="white"/>
</mask>
<g mask="url(#mask6_113_7092)">
<path d="M97.7628 12.4577C95.8987 12.4577 94.0188 13.3897 94.0188 15.4869C94.0188 17.3056 95.475 18.5791 97.5553 18.5791C98.1248 18.575 98.6868 18.4495 99.204 18.211C99.7211 17.9726 100.182 17.6265 100.554 17.1961V18.1521H102.158V14.6451C102.158 12.8853 102.026 11.5104 101.379 10.5248C100.694 9.47153 99.5477 8.95947 97.8723 8.95947C96.6727 8.97111 95.5051 9.34896 94.5261 10.0424L94.4679 10.089L95.259 11.3834L95.3354 11.3252C96.1179 10.7735 97.0579 10.49 98.015 10.5172C99.4026 10.5172 100.211 11.2407 100.413 12.6726C100.367 12.6685 100.32 12.6598 100.27 12.6517C99.4391 12.5275 98.6006 12.4638 97.761 12.4612M97.5536 14.0684C98.55 14.0751 99.5454 14.1335 100.536 14.2432C100.502 15.8842 99.3047 16.9811 97.5367 16.9811C96.3524 16.9811 95.6377 16.3887 95.6208 15.3989C95.6377 14.4133 96.674 14.0667 97.5536 14.0667" fill="black"/>
</g>
<mask id="mask7_113_7092" style="mask-type:luminance" maskUnits="userSpaceOnUse" x="0" y="0" width="128" height="40">
<path d="M127.018 0H0.981934V40H127.018V0Z" fill="white"/>
</mask>
<g mask="url(#mask7_113_7092)">
<path d="M107.614 16.6632C106.974 16.8618 106.561 16.8746 106.329 16.7057C106.225 16.6026 106.146 16.4767 106.099 16.338C106.052 16.1993 106.038 16.0515 106.058 15.9064V10.9996H107.809V9.3924H106.058V6.52686H104.455V9.39066H103.308V10.9938H104.455V15.9344C104.414 16.374 104.482 16.8169 104.654 17.2235C104.826 17.6301 105.096 17.9877 105.44 18.2646C105.776 18.4794 106.167 18.5899 106.565 18.5821C107.057 18.5683 107.542 18.4577 107.991 18.2564L108.058 18.2267L107.703 16.6317L107.614 16.6632Z" fill="black"/>
</g>
<mask id="mask8_113_7092" style="mask-type:luminance" maskUnits="userSpaceOnUse" x="0" y="0" width="128" height="40">
<path d="M127.018 0H0.981934V40H127.018V0Z" fill="white"/>
</mask>
<g mask="url(#mask8_113_7092)">
<path d="M113.841 10.5667C114.291 10.5574 114.737 10.6594 115.139 10.8638C115.54 11.0682 115.885 11.3685 116.142 11.7382L116.189 11.8017L117.526 10.964L117.475 10.8877C117.078 10.267 116.524 9.76196 115.87 9.42335C115.215 9.08475 114.483 8.92455 113.747 8.95891C112.471 8.95891 111.248 9.46563 110.346 10.3676C109.444 11.2695 108.937 12.4929 108.937 13.7684C108.937 15.044 109.444 16.2673 110.346 17.1692C111.248 18.0712 112.471 18.5779 113.747 18.5779C114.483 18.6113 115.215 18.4506 115.869 18.1121C116.523 17.7736 117.077 17.2691 117.475 16.6491L117.526 16.5728L116.189 15.7351L116.142 15.7986C115.885 16.1683 115.54 16.4687 115.139 16.673C114.737 16.8774 114.291 16.9795 113.841 16.9701C112.977 16.9833 112.143 16.6536 111.521 16.0531C110.9 15.4526 110.541 14.6302 110.525 13.7661C110.522 13.3353 110.607 12.9085 110.774 12.5116C110.942 12.1146 111.188 11.7557 111.498 11.4567C111.808 11.1577 112.176 10.9247 112.578 10.772C112.981 10.6192 113.411 10.5498 113.841 10.5679" fill="black"/>
</g>
<mask id="mask9_113_7092" style="mask-type:luminance" maskUnits="userSpaceOnUse" x="0" y="0" width="128" height="40">
<path d="M127.018 0H0.981934V40H127.018V0Z" fill="white"/>
</mask>
<g mask="url(#mask9_113_7092)">
<path d="M120.592 13.3712C120.592 11.4424 121.819 10.579 123.033 10.579C124.632 10.579 125.317 11.4587 125.317 13.5145V18.1504H126.92V13.5943C126.92 10.4427 125.715 8.9753 123.13 8.9753C122.195 8.97229 121.291 9.31408 120.592 9.93534V6.52686H118.989V18.151H120.592V13.3712Z" fill="black"/>
</g>
<path d="M48.6425 28.084C49.1207 28.0293 49.5984 27.9675 50.072 27.8894C50.5456 27.8114 51.0198 27.7205 51.4894 27.6145C51.9589 27.5085 52.4214 27.3943 52.8875 27.265C53.3535 27.1356 53.8056 26.99 54.2582 26.8379C54.7109 26.6859 55.1594 26.5164 55.5981 26.3387C56.0367 26.161 56.4777 25.9705 56.9094 25.7719C57.3411 25.5732 57.764 25.3641 58.1828 25.1416C58.6017 24.919 59.0118 24.6977 59.4178 24.4606C59.8239 24.2235 60.2217 23.9823 60.615 23.733L61.1975 23.352C61.3035 23.2803 61.409 23.2081 61.515 23.1405L61.2738 23.7621C61.236 23.8786 61.1299 24.0918 61.0495 24.2654C60.9692 24.439 60.8806 24.6289 60.8002 24.8113C60.6185 25.1707 60.4239 25.522 60.2334 25.8773C60.0179 26.2199 59.8186 26.5711 59.5926 26.9096C59.3555 27.2393 59.144 27.5865 58.8906 27.9034C58.6372 28.2203 58.4042 28.5547 58.1333 28.8553C57.8624 29.1559 57.609 29.4728 57.3212 29.7606C57.1814 29.9085 57.0422 30.0519 56.9024 30.2004C56.7544 30.3356 56.6065 30.4754 56.4626 30.6082C56.1748 30.8919 55.862 31.1412 55.5573 31.3993C55.2526 31.6574 54.9229 31.8776 54.6095 32.1228C54.2838 32.343 53.9582 32.5586 53.6279 32.7636C53.2894 32.9384 52.9597 33.1615 52.6172 33.3048C52.4482 33.3852 52.2787 33.4656 52.1051 33.546C51.9304 33.6095 51.7626 33.677 51.589 33.7405C50.8163 34.036 50.0034 34.2127 49.1778 34.2648C48.098 34.329 47.033 33.9881 46.1911 33.3089C45.2556 32.4889 44.5524 31.4371 44.1522 30.2592V30.2552C43.8919 29.574 43.7075 28.8662 43.6023 28.1446C43.8178 28.1615 44.038 28.1784 44.2536 28.1912L45.0109 28.225L45.7723 28.2378H45.8608C46.7893 28.2355 47.717 28.1848 48.6401 28.0858M53.6361 1.79542C52.2419 2.43739 50.9296 3.24394 49.7272 4.19784C47.458 6.01406 45.464 8.14954 43.8073 10.5377C42.1496 12.8903 40.8058 15.4491 39.8099 18.1493C39.4064 19.2368 39.0771 20.3505 38.8242 21.4826C38.7479 21.4447 38.6763 21.4063 38.5999 21.3661L37.8892 20.9344C37.6609 20.7736 37.4325 20.6169 37.2082 20.4561C36.9927 20.2814 36.7766 20.1066 36.5569 19.9359L35.9435 19.3732C35.753 19.1699 35.5585 18.9712 35.368 18.7685C35.1775 18.5658 35.0126 18.3415 34.8309 18.1277C34.7208 18.0007 34.6363 17.8615 34.5349 17.7298C34.4842 17.6622 34.4376 17.5947 34.387 17.5265C34.3363 17.4584 34.2897 17.3954 34.2431 17.3279C34.1924 17.2434 34.137 17.1589 34.0864 17.0739C33.7013 16.3335 33.2953 15.6175 32.9213 14.8602C32.6253 14.4839 32.3247 14.107 32.0288 13.7266C31.9909 13.68 31.9525 13.6334 31.9187 13.5868L31.8639 13.5151C31.843 13.4895 31.8261 13.4685 31.8133 13.4685C31.7498 13.4429 31.6863 13.4137 31.6228 13.3881C31.4958 13.3333 31.3688 13.2821 31.2418 13.2273L30.781 13.0327H30.7769C30.6097 13.0002 30.4399 12.9833 30.2695 12.9821C29.8695 12.9764 29.4727 13.0542 29.1044 13.2104C28.6992 13.3868 28.3326 13.6411 28.0255 13.959C27.6336 14.374 27.2902 14.8323 27.002 15.3251C26.6804 15.8494 26.3717 16.4121 26.0699 16.9789C25.8247 17.445 25.5835 17.9052 25.3383 18.3706L24.8944 19.2124C24.5984 19.7711 24.3066 20.3192 24.006 20.8581L23.5493 21.6574C23.3972 21.9195 23.2405 22.1776 23.0885 22.4397C22.7756 22.9518 22.4581 23.4551 22.1284 23.9328C21.7987 24.4105 21.4602 24.8649 21.113 25.282C20.9383 25.4894 20.7635 25.6897 20.5888 25.8785C20.5002 25.9717 20.414 26.0602 20.3225 26.1494C20.2847 26.1832 20.2462 26.221 20.2124 26.2554C20.1955 26.2426 20.1827 26.2257 20.1658 26.2129L20.0814 26.1412C20.0266 26.0987 19.9648 26.0183 19.8996 25.9665C19.832 25.8984 19.7684 25.8264 19.7091 25.7509C19.6456 25.6793 19.5821 25.5901 19.5145 25.5016C19.0647 24.8697 18.6899 24.1876 18.3978 23.4691C18.0673 22.685 17.7947 21.8778 17.5822 21.0538C17.3592 20.2081 17.1897 19.349 17.0748 18.4819L17.0492 18.317C17.0451 18.2914 17.0405 18.2623 17.0364 18.2366C17.0323 18.1819 17.0276 18.1306 17.0195 18.0759L16.9612 17.4351C16.9403 17.2195 16.9187 17.0034 16.903 16.7943C16.8861 16.57 16.8861 16.295 16.8773 16.0457C16.8686 15.7964 16.8645 15.5336 16.8605 15.2802C16.8564 15.1532 16.8564 15.0262 16.8517 14.8992C16.8471 14.7722 16.8686 14.6202 16.8727 14.4804C16.9065 13.9176 16.9403 13.3508 16.974 12.791L16.9997 12.5248L16.9362 11.6451C16.9234 11.4972 16.9152 11.3538 16.9024 11.2053C16.8983 11.1336 16.8896 11.0573 16.8855 10.9851C16.8814 10.9129 16.8476 10.9047 16.8307 10.8581C16.7504 10.7101 16.674 10.5575 16.5936 10.4095C16.5558 10.3332 16.5133 10.2616 16.4771 10.1853C16.4474 10.1166 16.4082 10.0525 16.3606 9.99477C16.2127 9.84272 16.06 9.6732 15.9208 9.53805C15.8043 9.4664 15.6837 9.39008 15.5655 9.31785H15.5614C15.5208 9.29331 15.4783 9.27207 15.4344 9.25435C15.3878 9.23338 15.3412 9.21182 15.2596 9.17804C15.1628 9.13913 15.064 9.1053 14.9637 9.07667C14.76 9.01595 14.5497 8.98035 14.3374 8.97065C14.1524 8.95817 13.9665 8.96677 13.7834 8.99628C13.3414 9.06253 12.9188 9.22263 12.5438 9.46581C11.6257 10.0198 10.5596 11.3102 9.56172 12.7228C9.05685 13.4335 8.56343 14.1714 8.08147 14.9365C7.85311 15.3088 7.62068 15.6769 7.39174 16.0492C7.26882 16.2525 7.15056 16.4511 7.02823 16.6539C6.55015 17.4617 6.08761 18.2772 5.6406 19.1006C4.74814 20.7503 3.91044 22.4298 3.14905 24.1687C2.35629 25.9414 1.70018 27.772 1.18645 29.6447C1.18645 29.6447 1.15674 29.7612 1.0979 29.9942C1.93968 30.2016 2.35853 30.3029 2.35853 30.3029C2.77738 30.4043 3.20031 30.5103 3.61916 30.6117C4.03801 30.713 4.46094 30.8191 4.8798 30.9204C4.8798 30.9204 5.29865 31.0218 6.14043 31.2292C6.18703 31.0544 6.208 30.9583 6.208 30.9583C6.65528 29.3443 7.22512 27.7669 7.91253 26.2397C8.60227 24.6621 9.38055 23.1009 10.2095 21.5653C10.6243 20.7998 11.0554 20.0385 11.4999 19.2893C11.6164 19.0907 11.741 18.8873 11.8593 18.6887L11.8721 18.786C11.8771 18.8153 11.88 18.8448 11.8808 18.8745C11.8977 18.9806 11.9106 19.0901 11.9274 19.1961C12.0727 20.2668 12.2832 21.3277 12.5578 22.3727C12.8366 23.4416 13.1915 24.4891 13.6197 25.5074C14.0735 26.5989 14.6527 27.6339 15.3458 28.5914C15.4609 28.7561 15.5852 28.9142 15.7181 29.065C15.8532 29.2217 15.9761 29.3778 16.1369 29.5346C16.2977 29.6913 16.4282 29.8474 16.6105 30.0006L16.8768 30.229C16.9234 30.2668 16.9653 30.3053 17.0119 30.3455C17.0585 30.3857 17.1348 30.4299 17.1937 30.4684L17.5747 30.7224C17.6382 30.7649 17.7017 30.8109 17.7651 30.8494L17.9685 30.9507C18.1036 31.0183 18.2434 31.0859 18.3762 31.1494C18.5146 31.2107 18.6573 31.2615 18.8032 31.3014C18.9471 31.3439 19.091 31.4028 19.2349 31.4325C19.3788 31.4622 19.5308 31.4832 19.6788 31.5041C19.7551 31.517 19.8268 31.5298 19.9031 31.5379C19.9794 31.5461 20.0511 31.542 20.1274 31.542C20.2753 31.5461 20.428 31.5461 20.5759 31.5507C20.8212 31.5129 21.0752 31.4832 21.3204 31.4342C21.5635 31.3705 21.8023 31.2913 22.0352 31.1971C22.2595 31.0806 22.4919 30.9857 22.7081 30.8546C22.9154 30.7107 23.1228 30.5633 23.3296 30.4189C23.3337 30.4148 23.3384 30.4148 23.3384 30.4101C23.4549 30.3041 23.5796 30.2027 23.6978 30.0973C23.7654 30.039 23.7951 30.0087 23.833 29.9744C23.8708 29.94 23.9046 29.9068 23.939 29.873C24.0829 29.7332 24.218 29.5981 24.3468 29.4582C24.613 29.1792 24.8588 28.8955 25.0953 28.6124C25.5689 28.0415 25.9965 27.4659 26.3938 26.8863C26.7911 26.3067 27.164 25.7212 27.5193 25.1387L28.0395 24.2648L28.5347 23.391C28.8603 22.8085 29.1755 22.2259 29.4778 21.648C29.6299 21.3603 29.7784 21.0725 29.9305 20.7853C29.9852 20.6793 30.0406 20.5779 30.0953 20.4725C30.1041 20.4853 30.1163 20.5022 30.125 20.515L30.3284 20.794C30.4682 20.9799 30.5946 21.1703 30.7431 21.348C30.9925 21.6486 31.2383 21.9527 31.4964 22.2446C31.7672 22.5283 32.0335 22.8155 32.3084 23.0904C32.5962 23.3566 32.884 23.6194 33.1758 23.8856C33.4805 24.1308 33.7893 24.3761 34.0939 24.6214L35.0586 25.2837C35.393 25.487 35.7315 25.6915 36.0653 25.8931C36.4148 26.0748 36.7643 26.2525 37.1104 26.4342L38.1892 26.9038L38.2825 26.9376C38.3368 28.7051 38.6826 30.4516 39.306 32.1065C39.306 32.1106 39.306 32.1106 39.3101 32.1152C39.5134 32.576 39.7178 33.0415 39.9194 33.5029C40.1775 33.9596 40.4227 34.4163 40.7064 34.8649C41.3175 35.7973 42.068 36.6305 42.9318 37.3354C43.0483 37.424 43.156 37.5172 43.2702 37.6063C43.3817 37.6989 43.5006 37.7823 43.6256 37.8557C43.8749 38.0124 44.1248 38.1644 44.3788 38.3124C44.6364 38.4531 44.9019 38.5787 45.174 38.6887C45.4401 38.8139 45.7159 38.9172 45.9989 38.9974C46.2779 39.0778 46.5616 39.1541 46.8447 39.2305C47.1284 39.2887 47.4115 39.3237 47.6952 39.3656L48.1223 39.4204C48.2621 39.4291 48.4013 39.4291 48.5411 39.4373L49.3788 39.4501C50.7522 39.3772 52.1062 39.0933 53.3931 38.6083C53.6471 38.511 53.9052 38.4097 54.1586 38.3124C54.3998 38.1959 54.645 38.084 54.8862 37.9698C55.3814 37.7496 55.8253 37.4706 56.2907 37.2166C56.7393 36.9416 57.175 36.6579 57.6061 36.362C58.0139 36.0492 58.452 35.7614 58.837 35.4229C59.2221 35.0845 59.6322 34.767 59.9963 34.4122C60.1821 34.2375 60.3686 34.0627 60.5544 33.8879C60.7402 33.7132 60.9039 33.5198 61.0833 33.338C61.4428 32.9786 61.7731 32.5894 62.1028 32.2044C62.4325 31.8193 62.7372 31.4133 63.0547 31.0113C63.3722 30.6094 63.6372 30.1777 63.9343 29.7635C64.2134 29.3406 64.4714 28.8961 64.7382 28.465C64.9835 28.0164 65.2287 27.5685 65.4571 27.1112C65.5672 26.8781 65.6726 26.6451 65.7827 26.4121C65.9029 26.1668 66.0102 25.9153 66.1043 25.6589C66.2144 25.3711 66.3245 25.0833 66.43 24.7915L66.5948 24.3598L66.7696 23.7126C67.0369 22.883 67.2351 22.0327 67.362 21.1703C67.4203 20.7626 67.4849 20.3495 67.5438 19.9394C67.5616 19.8446 67.5673 19.7479 67.5607 19.6516V19.3808C67.5607 19.199 67.5607 19.0213 67.5566 18.8396C67.5525 18.6578 67.5566 18.4801 67.5525 18.2984V17.8906C67.5464 17.8566 67.535 17.8238 67.5187 17.7933C67.4174 17.5521 67.3154 17.3151 67.2141 17.0745C67.1465 16.9137 67.0789 16.7529 67.0067 16.588L67.0026 16.584C66.8797 16.4218 66.7433 16.2704 66.5948 16.1313C66.4015 15.9572 66.186 15.8093 65.954 15.6915C65.7653 15.5954 65.5666 15.5202 65.3616 15.4672C65.1705 15.4197 64.9755 15.3901 64.779 15.3787C64.2483 15.3601 63.7203 15.4629 63.2353 15.6793C62.5116 16.0336 61.828 16.4647 61.1964 16.9649C60.4897 17.4852 59.7918 18.0135 59.0811 18.5046L58.6285 18.8174L58.3238 19.0207L57.8205 19.3464C57.482 19.5619 57.1476 19.7693 56.8051 19.9639C56.4626 20.1585 56.12 20.353 55.7728 20.5348C55.4256 20.7165 55.0738 20.8843 54.7243 21.0509C54.3747 21.2175 54.0135 21.3684 53.6541 21.5117C53.2947 21.655 52.9353 21.7908 52.5712 21.9195C52.2071 22.0482 51.8395 22.1607 51.4713 22.262C51.1031 22.3634 50.7309 22.4607 50.3546 22.5457C49.9782 22.6308 49.606 22.7024 49.225 22.7659C48.844 22.8294 48.4677 22.8825 48.0873 22.9226C47.3232 23.006 46.5549 23.0449 45.7862 23.0392L45.1728 23.0263C44.9695 23.0176 44.765 23.0094 44.5594 22.9966C44.3538 22.9838 44.1516 22.9669 43.946 22.95L43.8231 22.9372C44.0328 21.9108 44.3228 20.9024 44.6905 19.9214C45.5296 17.6492 46.6615 15.4962 48.0576 13.5168C49.4215 11.5471 51.0612 9.78339 52.9265 8.27975C53.799 7.58535 54.7502 6.99621 55.7606 6.52454C56.6124 6.11575 57.5402 5.88954 58.4846 5.86043H58.4887C59.1734 5.85581 59.8425 6.06537 60.4023 6.45979C60.962 6.85421 61.3845 7.41375 61.6105 8.06013C61.6105 8.06013 61.6362 8.11838 61.6822 8.24188C62.503 7.96692 62.9131 7.8341 62.9131 7.8341C63.3209 7.69895 63.7339 7.55914 64.144 7.42632C64.5541 7.2935 64.9648 7.15136 65.375 7.01853C65.375 7.01853 65.7827 6.88338 66.6059 6.61075C66.5045 6.33579 66.4538 6.20297 66.4538 6.20297C65.8578 4.59361 64.7872 3.20317 63.3836 2.21567C61.98 1.22817 60.3096 0.690162 58.5935 0.672852H58.4875C56.809 0.698417 55.1551 1.08047 53.6355 1.79367" fill="black"/>
<path d="M33.4625 7.9314C33.3145 9.65748 32.1593 11.0364 30.4717 10.9938C28.784 10.9513 27.87 9.53049 28.018 7.8044C28.166 6.07831 29.3887 4.01435 31.0764 4.05629C32.764 4.09824 33.6145 6.20531 33.4648 7.93081" fill="black"/>
<path d="M17.9976 3.92529C17.8497 5.65138 16.6951 7.03027 15.0068 6.98774C13.3186 6.94521 12.4052 5.52438 12.5532 3.7983C12.7011 2.07221 13.9239 0.00824615 15.6115 0.0501895C17.2992 0.0921329 18.1497 2.1992 18 3.92471" fill="black"/>
</svg>
