<svg width="146" height="40" viewBox="0 0 146 40" fill="none" xmlns="http://www.w3.org/2000/svg">
<path d="M69.7457 31.6103C63.1414 31.6103 57.2151 27.8593 57.2151 22.6146C57.2151 17.3675 63.1414 13.6128 69.7929 13.6128C72.6846 13.6128 75.3852 14.3429 78.3217 15.9806L76.2519 18.6402C74.3695 17.7301 72.1532 17.185 69.7929 17.185C66.9967 17.185 63.7685 18.7507 63.7685 22.6146C63.7685 26.4761 66.9495 28.0406 69.7929 28.0406C72.1532 28.0406 74.418 27.5675 76.345 26.7282L78.4185 29.5343C75.9613 30.8479 72.9727 31.6103 69.7457 31.6103Z" fill="#104076"/>
<path d="M107.47 31.542C114.119 31.542 120.048 27.7898 120.048 22.5464C120.048 17.2992 114.119 13.5445 107.47 13.5445C100.819 13.5445 94.89 17.2992 94.89 22.5464C94.89 27.7898 100.819 31.542 107.47 31.542ZM113.495 22.5464C113.495 26.4079 110.266 27.9723 107.47 27.9723C104.673 27.9723 101.446 26.4079 101.446 22.5464C101.446 18.6812 104.673 17.1167 107.47 17.1167C110.266 17.1167 113.495 18.6812 113.495 22.5464Z" fill="#104076"/>
<path d="M122.725 31.1074H128.937V20.3946C128.937 18.9481 130.061 17.2458 132.071 17.2346C133.475 17.2458 134.822 18.2068 134.822 19.4261L134.81 31.1074H141.038V19.0946C141.038 15.9309 137.646 13.29 133.599 13.29C133.56 13.29 133.521 13.2949 133.481 13.2962C133.442 13.2949 133.403 13.29 133.365 13.29C131.692 13.29 130.105 13.7779 128.809 14.5949C128.798 14.549 128.449 13.4005 122.725 13.4005V31.1074Z" fill="#104076"/>
<path d="M48.1437 31.1074H54.2289V13.984H48.1437V31.1074Z" fill="#104076"/>
<path d="M81.3202 31.1074H87.408V20.7236C87.408 19.0834 89.3337 17.771 91.4073 17.771C92.4204 17.771 93.374 17.9734 94.1749 18.3285V13.8251C93.4572 13.7158 92.6824 13.6562 91.9983 13.6562C90.3668 13.6562 88.7303 14.1293 87.3906 14.924C87.2913 14.7216 86.545 13.7643 81.3202 13.7643V31.1074Z" fill="#104076"/>
<path d="M36.5344 24.2821L36.5332 31.1086H42.765V18.6451C40.9596 20.5075 38.8774 22.4035 36.5344 24.2821Z" fill="#104076"/>
<path d="M42.765 18.6451C49.6275 11.5653 52.4696 4.98466 50.257 1.81724C47.9475 -1.49047 40.7721 -0.15075 31.471 4.76364C31.0551 4.96727 30.6863 5.18332 30.4144 5.3708C29.9649 5.68245 30.2269 5.90967 30.5584 5.78923C30.8987 5.66631 31.286 5.51732 31.7231 5.30251C38.6949 1.99604 44.1332 1.40254 46.2589 3.71074C49.4984 7.22581 42.8643 18.7457 31.3767 27.267C29.8433 28.4044 27.4767 30.0694 25.9358 30.9944C25.8315 31.059 25.7285 31.1223 25.6279 31.1869C25.2207 31.4538 24.8581 31.7022 24.5725 31.9257C24.2944 32.1417 24.3478 32.4856 24.8494 32.2696C25.1548 32.1392 25.5261 31.9418 25.9209 31.6997C26.0103 31.645 26.0985 31.5954 26.1916 31.5383C27.9237 30.4866 30.4951 28.7111 32.252 27.4843C33.7631 26.4289 35.191 25.3574 36.5344 24.2821C38.8774 22.4035 40.9596 20.5063 42.765 18.6451Z" fill="#104076"/>
<path d="M12.1748 40H18.4066V33.5423C20.1101 32.5353 21.8347 31.4315 23.5295 30.2755C23.9107 30.0135 24.2484 29.7528 24.493 29.5293C24.8966 29.1605 24.6048 28.9706 24.2931 29.1344C23.9728 29.3033 23.5941 29.5318 23.1844 29.7925C13.558 35.9498 7.05924 37.8284 4.65916 34.5703C2.57446 31.7419 5.99144 26.2737 12.1748 20.0978V34.4325C13.9292 33.8365 16.0027 32.8867 18.4053 31.5507L18.4041 18.2515L19.7748 21.1681C21.2772 24.3889 24.0038 26.3147 27.4705 26.3147C30.9359 26.3147 33.6625 24.3889 35.1649 21.1681L36.5357 18.2515L36.5344 21.6449C38.7644 19.482 40.6678 17.3228 42.1119 15.2343C42.2919 14.9761 42.2757 14.7588 42.1777 14.5204C41.2166 12.5152 39.1717 11.1332 36.7952 11.1332C34.4448 11.1332 32.4035 12.4965 31.4251 14.4683L28.8177 19.9997C28.5482 20.5386 28.0516 20.8378 27.4705 20.8378C26.8906 20.8378 26.3915 20.5386 26.1221 19.9997L23.5146 14.4683C23.018 13.4663 22.2457 12.6219 21.2983 12.0334C23.2055 10.5199 25.0592 9.16771 26.8844 8.06017C27.2991 7.80812 27.6394 7.55607 27.9262 7.3363C28.208 7.1215 28.1559 6.77756 27.653 6.98864C27.3476 7.11653 26.9515 7.31147 26.5554 7.55234C24.6905 8.68223 22.7846 9.83819 20.9618 11.0836C20.7408 11.2338 20.5223 11.3853 20.3038 11.5367C19.6333 11.276 18.9057 11.1332 18.1446 11.1332C14.8418 11.1332 12.1748 13.8015 12.1748 17.1042V17.9262C3.37159 25.7758 -1.24978 33.5485 1.1652 37.0089C2.93826 39.5468 7.14243 38.9607 12.1748 36.7742V40Z" fill="#104076"/>
<path d="M143.418 15.4765H143.644C143.901 15.4765 144.118 15.3833 144.118 15.1425C144.118 14.9711 143.994 14.7998 143.644 14.7998C143.542 14.7998 143.473 14.8072 143.418 14.8147V15.4765ZM143.418 16.5579H143.107V14.6048C143.27 14.5825 143.426 14.5589 143.66 14.5589C143.956 14.5589 144.149 14.621 144.266 14.7067C144.383 14.7923 144.445 14.9239 144.445 15.1102C144.445 15.3672 144.274 15.5224 144.064 15.5857V15.6006C144.235 15.6317 144.352 15.7881 144.39 16.0749C144.438 16.3779 144.483 16.4958 144.515 16.5579H144.188C144.142 16.4958 144.095 16.3171 144.056 16.06C144.01 15.8105 143.885 15.7173 143.635 15.7173H143.418V16.5579ZM143.745 14.061C142.975 14.061 142.345 14.7215 142.345 15.5385C142.345 16.3704 142.975 17.0235 143.752 17.0235C144.531 17.0322 145.153 16.3704 145.153 15.546C145.153 14.7215 144.531 14.061 143.752 14.061H143.745ZM143.752 13.7878C144.709 13.7878 145.472 14.5663 145.472 15.5385C145.472 16.5269 144.709 17.2967 143.745 17.2967C142.789 17.2967 142.011 16.5269 142.011 15.5385C142.011 14.5663 142.789 13.7878 143.745 13.7878H143.752Z" fill="#104076"/>
</svg>
