<svg width="160" height="41" viewBox="0 0 160 41" fill="none" xmlns="http://www.w3.org/2000/svg">
    <path d="M28.6015 30.4505C28.6015 30.4505 32.1986 26.1629 32.1986 20.5077C32.1986 20.5077 32.1986 14.8526 28.6015 10.565V30.4505ZM5.31269 19.3989L3.12473 22.5037C3.12473 22.5037 2.53138 23.3908 2.53138 24.3887V27.4196C2.53138 27.4196 0.936768 24.2409 0.936768 20.5077C0.936768 20.5077 0.936768 13.8546 5.7577 9.23436V18.0313C5.7577 18.0313 5.7577 18.8075 5.31269 19.3989ZM6.20271 19.9164C6.20271 19.9164 6.75897 18.9923 6.75897 18.0683V8.34727C6.75897 8.34727 8.68734 6.83183 10.8753 5.98171V18.5488C10.8753 18.5488 10.8753 19.5467 10.282 20.4338L7.68607 24.093C7.68607 24.093 6.9073 25.128 6.9073 26.6065V32.7791C6.9073 32.7791 4.8306 31.1158 3.53265 29.1568V24.3887C3.53265 24.3887 3.53265 23.7234 3.94058 23.132L6.20271 19.9164ZM16.6975 4.94678H16.5492C16.5492 4.94678 14.1387 4.94678 11.8395 5.61209V18.5488C11.8395 18.5488 11.8395 19.8424 11.172 20.8774L8.46484 24.7584C8.46484 24.7584 7.90857 25.5346 7.90857 26.4956V33.4814L8.01983 33.5553C8.01983 33.5553 10.282 35.0338 12.7295 35.6252V28.3067C12.7295 28.3067 12.7295 27.05 13.4341 25.9411L15.9187 22.3928C15.9187 22.3928 16.6975 21.247 16.6975 19.9164V4.94678ZM23.4839 6.53614V34.4793C23.4839 34.4793 25.7831 33.3705 27.6002 31.5224V9.45613C27.6002 9.45613 25.746 7.60803 23.4839 6.53614ZM17.6617 4.98374V36.0687C17.6617 36.0687 20.2947 35.8469 22.5197 34.9229V6.05563C22.5197 6.05563 20.0351 5.09462 17.6617 4.98374Z" fill="#0D2B88"/>
    <path d="M156.801 32.188H159.063L158.581 34.3687H156.319L156.801 32.188ZM148.012 24.1672L145.824 34.3687H150.126C156.022 34.3687 156.022 28.1591 156.022 28.1591C156.022 24.1672 151.683 24.1672 151.683 24.1672H148.012ZM149.866 26.0523H151.535C153.797 26.0523 153.797 28.5287 153.797 28.5287C153.797 32.4837 150.2 32.4837 150.2 32.4837H148.494L149.866 26.0523ZM141.114 26.0523H137.925L138.333 24.1672H146.863L146.455 26.0523H143.377L141.634 34.3687H139.372L141.114 26.0523ZM132.326 24.1672H134.588L132.845 32.4837H137.777L137.369 34.3687H130.175L132.326 24.1672ZM121.312 34.6275C121.312 34.6275 117.047 34.6275 117.047 30.9682H119.198C119.198 30.9682 119.087 32.8533 121.386 32.8533C121.386 32.8533 123.351 32.8533 123.351 31.4118C123.351 31.4118 123.351 30.6356 120.755 29.8594C120.755 29.8594 118.159 29.0462 118.159 27.0872C118.159 27.0872 118.159 23.9455 122.239 23.9455C122.239 23.9455 126.058 23.9455 126.058 27.2351H123.945C123.945 27.2351 123.982 25.6827 122.09 25.6827C122.09 25.6827 120.31 25.6827 120.31 26.9394C120.31 26.9394 120.31 27.8634 122.721 28.3809C122.721 28.3809 125.465 29.0832 125.465 31.227C125.465 31.227 125.465 34.6275 121.312 34.6275ZM115.712 29.9703H110.557L110.038 32.4837H115.675L115.267 34.3687H107.368L109.519 24.1672H117.344L116.936 26.0523H111.373L110.928 28.233H116.083L115.712 29.9703ZM105.291 24.1672H107.553L105.402 34.3687H103.14L105.291 24.1672ZM94.9448 24.1672L92.7939 34.3687H95.056L95.909 30.3768H98.0228C99.469 30.3768 99.469 31.5966 99.469 31.5966L99.3578 33.6664L99.469 34.3687H101.657L101.509 33.1859L101.583 31.4118C101.583 29.9333 100.544 29.6006 100.544 29.6006C102.881 29.231 102.881 26.8655 102.881 26.8655C102.881 24.1672 99.8399 24.1672 99.8399 24.1672H94.9448ZM96.8361 25.9044H98.987C100.619 25.9044 100.619 27.1611 100.619 27.1611C100.619 28.7875 98.3194 28.7875 98.3194 28.7875H96.2427L96.8361 25.9044ZM93.4243 26.0523H90.3464L88.6034 34.3687H86.3413L88.0842 26.0523H84.895L85.2658 24.1672H93.8323L93.4243 26.0523ZM83.3375 31.227C83.3375 31.227 83.3375 34.6275 79.147 34.6275C79.147 34.6275 74.9194 34.6275 74.9194 30.9682H77.0332C77.0332 30.9682 76.9219 32.8533 79.2582 32.8533C79.2582 32.8533 81.1866 32.8533 81.1866 31.4118C81.1866 31.4118 81.1866 30.6356 78.5907 29.8594C78.5907 29.8594 76.0319 29.0462 76.0319 27.0872C76.0319 27.0872 76.0319 23.9455 80.0741 23.9455C80.0741 23.9455 83.8937 23.9455 83.8937 27.2351H81.7799C81.7799 27.2351 81.817 25.6827 79.9257 25.6827C79.9257 25.6827 78.1457 25.6827 78.1457 26.9394C78.1457 26.9394 78.1457 27.8634 80.5932 28.3809C80.5932 28.3809 83.3375 29.0832 83.3375 31.227ZM73.6956 30.1181C73.6956 30.1181 72.7685 34.6275 68.8005 34.6275C68.8005 34.6275 64.7583 34.6275 64.7583 31.5966C64.7583 31.5966 64.7583 31.0422 64.9808 30.0811L66.2417 24.1672H68.4668L67.243 30.0811L67.0205 31.3748C67.0205 31.3748 67.0205 32.7424 68.9488 32.7424C68.9488 32.7424 70.8772 32.7424 71.4335 30.229L72.6943 24.1672H74.9565L73.6956 30.1181ZM55.7098 24.1672L53.559 34.3687H57.8236C60.6791 34.3687 62.2737 32.5946 62.2737 32.5946C63.7571 30.9313 63.7571 28.1591 63.7571 28.1591C63.7571 24.1672 59.4182 24.1672 59.4182 24.1672H55.7098ZM57.564 26.0523H59.2699C61.4949 26.0523 61.4949 28.5287 61.4949 28.5287C61.4949 32.4837 57.9349 32.4837 57.9349 32.4837H56.1919L57.564 26.0523ZM45.1038 24.1672H47.4401L50.1843 31.4118H50.2214L51.7047 24.1672H53.7444L51.5935 34.3687H49.3314L46.5501 27.2351H46.513L45.0667 34.3687H42.9529L45.1038 24.1672ZM40.8762 24.1672H43.1383L40.9504 34.3687H38.6882L40.8762 24.1672ZM96.7619 11.9328C96.7619 11.9328 99.469 12.6351 99.469 14.7789C99.469 14.7789 99.469 18.1424 95.3156 18.1424C95.3156 18.1424 91.051 18.1424 91.051 14.5202H93.2018C93.2018 14.5202 93.0906 16.4052 95.3898 16.4052C95.3898 16.4052 97.3553 16.4052 97.3553 14.9637C97.3553 14.9637 97.3553 14.2245 94.7594 13.3744C94.7594 13.3744 92.2006 12.5612 92.2006 10.6392C92.2006 10.6392 92.2006 7.46045 96.2427 7.46045C96.2427 7.46045 100.062 7.46045 100.062 10.7501H97.9486C97.9486 10.7501 97.9857 9.19766 96.0944 9.19766C96.0944 9.19766 94.3144 9.19766 94.3144 10.4913C94.3144 10.4913 94.3144 11.3045 96.7619 11.9328ZM82.7441 7.71918L80.5932 17.9207H82.8554L83.7083 13.9288H85.8221C87.2684 13.9288 87.2684 15.1485 87.2684 15.1485L87.1571 17.2184L87.2684 17.9207H89.4563L89.308 16.7009L89.3822 14.9637C89.3822 13.4852 88.3438 13.1526 88.3438 13.1526V13.1156C90.6801 12.8199 90.6801 10.3804 90.6801 10.3804C90.6801 7.64526 87.6392 7.71918 87.6392 7.71918H82.7441ZM84.6354 9.45639H86.7863C88.418 9.45639 88.418 10.7131 88.418 10.7131C88.418 12.2655 86.1188 12.3394 86.1188 12.3394H84.0421L84.6354 9.45639ZM75.624 7.46045C73.1393 7.46045 71.5447 9.30854 71.5447 9.30854C70.0614 11.0827 70.0614 13.6331 70.0614 13.6331C70.0614 18.1424 74.5856 18.1424 74.5856 18.1424C77.1815 18.1424 78.739 16.2574 78.739 16.2574C80.1853 14.4832 80.1853 11.822 80.1853 11.822C80.1853 7.46045 75.624 7.46045 75.624 7.46045ZM75.6611 9.34551C77.9232 9.34551 77.9232 12.0068 77.9232 12.0068C77.9232 13.6331 77.1073 14.8528 77.1073 14.8528C76.1432 16.2574 74.6227 16.2574 74.6227 16.2574C72.2864 16.2574 72.2864 13.6331 72.2864 13.6331C72.2864 11.9698 73.1023 10.7501 73.1023 10.7501C74.0294 9.34551 75.6611 9.34551 75.6611 9.34551ZM61.2724 7.71918L59.1216 17.9207H64.5729C68.5038 17.9207 68.5038 14.5571 68.5038 14.5571C68.5038 12.8939 66.9834 12.4873 66.9834 12.4873V12.4503C68.8747 12.2655 68.8747 10.0847 68.8747 10.0847C68.8747 7.71918 65.5742 7.71918 65.5742 7.71918H61.2724ZM63.0896 9.45639H65.4629C66.6496 9.45639 66.6496 10.4913 66.6496 10.4913C66.6496 11.822 65.1292 11.822 65.1292 11.822H62.5704L63.0896 9.45639ZM62.2737 13.3744H64.4617C66.2417 13.3744 66.2417 14.5202 66.2417 14.5202C66.2417 16.1465 64.4617 16.1465 64.4617 16.1465H61.6433L62.2737 13.3744ZM54.3006 7.71918L48.2559 17.9207H50.6293L51.9273 15.629H55.7469L56.0807 17.9207H58.3057L56.5998 7.71918H54.3006ZM55.0423 9.89994L55.5615 13.9657H52.8173L55.0423 9.89994ZM47.4401 7.71918H49.5168L47.3659 17.9207H45.1038L42.2854 10.7501L40.802 17.9207H38.6882L40.8762 7.71918H43.1754L45.9567 14.9637H45.9938L47.4401 7.71918Z" fill="black"/>
</svg>
