<svg width="160" height="24" viewBox="0 0 160 24" fill="none" xmlns="http://www.w3.org/2000/svg">
<g clip-path="url(#clip0_113_7243)">
<path d="M27.2694 19.7988C27.2705 19.7988 27.2694 0.376709 27.2694 0.376709H0V23.3709C0 23.3709 2.43042 21.1263 5.77013 20.9071C10.5468 20.5921 12.5217 22.9236 17.054 23.6967C22.5955 24.6399 26.2158 21.2351 27.0627 20.2504C27.2699 19.9962 27.2355 19.9311 27.2601 19.8726L27.2694 19.7988Z" fill="#0784BD"/>
<path d="M2.58466 19.1908C3.49997 18.7102 4.31138 18.4658 6.23604 18.3548C10.8869 18.0847 12.6224 19.8103 17.0212 20.4927C20.4801 21.0285 22.4305 20.2565 23.9018 19.3149C24.6826 18.8152 24.4754 18.9464 24.8844 18.6046C25.2475 18.3023 25.3349 18.0912 25.283 17.8807C25.2671 17.8178 25.1988 17.8178 25.067 17.9053C24.9637 17.9726 24.7636 18.1049 24.7636 18.1049C21.3025 20.5195 16.7637 19.1 12.8006 17.8572C9.11318 16.7008 4.58422 17.2071 2.5349 18.6664C2.5349 18.6664 2.29159 18.8234 2.11826 19.0874C2.0614 19.1738 1.93017 19.5287 2.09256 19.4538C2.28011 19.3674 2.43156 19.2602 2.58466 19.1908Z" fill="white"/>
<path d="M7.96971 13.1838L4.04823 8.03537V13.1838H2.28979V5.08496H3.93341L7.72749 10.071V5.08496H9.48647V13.1838H7.96971Z" fill="white"/>
<path d="M14.7776 13.3227C12.3942 13.3227 10.6243 11.4839 10.6243 9.15787V9.13435C10.6243 6.83188 12.3597 4.94604 14.8459 4.94604C16.3731 4.94604 17.2873 5.45564 18.0402 6.19543L16.9062 7.50387C16.2812 6.93577 15.6448 6.58966 14.8344 6.58966C13.4708 6.58966 12.4871 7.72258 12.4871 9.11084V9.13435C12.4871 10.5226 13.4473 11.6791 14.8344 11.6791C15.7601 11.6791 16.3271 11.3094 16.9641 10.7309L18.0982 11.877C17.2649 12.7671 16.3392 13.3227 14.7776 13.3227Z" fill="white"/>
<path d="M19.2759 13.1838V5.08496H21.0584V11.5643H25.0963V13.1838H19.2759Z" fill="white"/>
<path d="M40.5819 12.5752L34.6614 4.8028V12.5747H32.0073V0.349854H34.4859L40.2155 7.87733V0.349854H42.8701V12.5752H40.5819Z" fill="black"/>
<path d="M53.4905 12.7851C49.7178 12.7851 47.0112 9.97252 47.0112 6.49721V6.46221C47.0112 2.98635 49.7528 0.140381 53.5261 0.140381C57.2977 0.140381 60.0054 2.95355 60.0054 6.42831V6.46221C60.0048 9.93753 57.2633 12.7851 53.4905 12.7851ZM57.1933 6.46221C57.1933 4.36587 55.6563 2.62001 53.4911 2.62001C51.3258 2.62001 49.8239 4.33307 49.8239 6.42831V6.46221C49.8239 8.55856 51.3597 10.3044 53.5261 10.3044C55.6908 10.3044 57.1933 8.59246 57.1933 6.49721V6.46221Z" fill="black"/>
<path d="M71.232 12.5752L68.6124 8.66359H66.4991V12.5752H63.8101V0.349854H69.3987C72.2807 0.349854 74.0102 1.86935 74.0102 4.38561V4.41951C74.0102 6.39283 72.9456 7.63292 71.3895 8.20977L74.3765 12.5752H71.232ZM71.2845 4.5234C71.2845 3.37134 70.4813 2.77754 69.1723 2.77754H66.4991V6.28894H69.2231C70.5332 6.28894 71.2845 5.59071 71.2845 4.56003V4.5234Z" fill="black"/>
<path d="M91.356 12.6638H89.0164L86.2568 4.66443L83.4961 12.6638H81.1565L76.9829 0.349818H79.8644L82.3965 8.62857L85.1381 0.315918H87.4438L90.1865 8.62857L92.7186 0.349818H95.5307L91.356 12.6638Z" fill="black"/>
<path d="M98.7512 12.5752V0.349854H107.974V2.742H101.423V5.22163H107.187V7.61488H101.423V10.1831H108.061V12.5752H98.7512Z" fill="black"/>
<path d="M117.568 12.7851C113.762 12.7851 111.142 10.1136 111.142 6.49721V6.46221C111.142 2.98635 113.849 0.140381 117.552 0.140381C119.752 0.140381 121.079 0.73418 122.354 1.8168L120.659 3.86065C119.716 3.07438 118.878 2.61947 117.463 2.61947C115.507 2.61947 113.953 4.34837 113.953 6.42777V6.46167C113.953 8.69798 115.49 10.3383 117.656 10.3383C118.633 10.3383 119.507 10.095 120.188 9.60563V7.85868H117.481V5.53761H122.791V10.8463C121.533 11.9108 119.804 12.7851 117.568 12.7851Z" fill="black"/>
<path d="M126.987 12.5752V0.349854H129.676V12.5752H126.987Z" fill="black"/>
<path d="M143.131 12.5752L141.754 9.83421H136.844L135.726 12.5752H132.983L138.222 0.263428H140.702L145.942 12.5752H143.131ZM139.429 3.49378L137.804 7.45792H141.052L139.429 3.49378Z" fill="black"/>
<path d="M157.712 12.5752L151.792 4.8028V12.5747H149.137V0.349854H151.617L157.345 7.87788V0.349854H160V12.5752H157.712Z" fill="black"/>
<path d="M35.0538 23.1592C33.2543 23.1592 31.9175 21.771 31.9175 20.0164V19.9983C31.9175 18.2596 33.2287 16.8352 35.1063 16.8352C36.2594 16.8352 36.9495 17.2207 37.5176 17.7795L36.6613 18.7664C36.1905 18.3394 35.7099 18.0764 35.0981 18.0764C34.0674 18.0764 33.3254 18.9326 33.3254 19.9814V19.9983C33.3254 21.0459 34.0505 21.9208 35.0981 21.9208C35.7974 21.9208 36.225 21.6408 36.7051 21.204L37.5613 22.0679C36.9325 22.7415 36.2343 23.1592 35.0538 23.1592Z" fill="black"/>
<path d="M43.2205 23.0557L41.9104 21.0993H40.8529V23.0557H39.5073V16.9417H42.303C43.7448 16.9417 44.6098 17.7 44.6098 18.9582V18.9751C44.6098 19.9631 44.0767 20.5832 43.2987 20.8719L44.7936 23.0557H43.2205ZM43.2462 19.0281C43.2462 18.4502 42.8459 18.1544 42.1898 18.1544H40.8529V19.9112H42.2155C42.8711 19.9112 43.2462 19.5607 43.2462 19.0451V19.0281Z" fill="black"/>
<path d="M49.2466 23.1515C47.603 23.1515 46.5991 22.234 46.5991 20.4345V16.9412H47.9436V20.399C47.9436 21.3952 48.4423 21.9103 49.2636 21.9103C50.0848 21.9103 50.5824 21.4127 50.5824 20.4427V16.9412H51.928V20.3908C51.9286 22.2416 50.888 23.1515 49.2466 23.1515Z" fill="black"/>
<path d="M54.2332 23.0557V16.9417H55.5788V23.0557H54.2332Z" fill="black"/>
<path d="M60.1548 23.1422C59.2291 23.1422 58.2947 22.8196 57.5598 22.164L58.3554 21.2115C58.9054 21.6664 59.4823 21.9546 60.1805 21.9546C60.7317 21.9546 61.0636 21.737 61.0636 21.3788V21.3608C61.0636 21.0201 60.8541 20.8452 59.8322 20.5833C58.5998 20.2683 57.8042 19.9277 57.8042 18.7144V18.6952C57.8042 17.5869 58.696 16.8521 59.9454 16.8521C60.8361 16.8521 61.5967 17.132 62.2167 17.6307L61.5174 18.6444C60.9761 18.2682 60.443 18.0407 59.9284 18.0407C59.4117 18.0407 59.1416 18.277 59.1416 18.5739V18.5919C59.1416 18.9932 59.4041 19.125 60.4605 19.3951C61.7016 19.7188 62.401 20.1639 62.401 21.2306V21.2465C62.4004 22.462 61.4736 23.1422 60.1548 23.1422Z" fill="black"/>
<path d="M64.4419 23.0557V16.9417H69.0545V18.1369H65.7782V19.3781H68.6614V20.575H65.7782V21.8599H69.0982V23.0563L64.4419 23.0557Z" fill="black"/>
<path d="M74.6602 23.0557V16.9417H76.0058V21.8315H79.0546V23.0552L74.6602 23.0557Z" fill="black"/>
<path d="M81.0005 23.0557V16.9417H82.3461V23.0557H81.0005Z" fill="black"/>
<path d="M89.0365 23.0557L86.0751 19.1687V23.0557H84.7476V16.9417H85.9887L88.8539 20.7062V16.9417H90.1814V23.0557H89.0365Z" fill="black"/>
<path d="M92.52 23.0557V16.9417H97.1337V18.1369H93.8574V19.3781H96.7406V20.575H93.8574V21.8599H97.1775V23.0563L92.52 23.0557Z" fill="black"/>
<path d="M101.45 20.0474C101.095 20.4017 100.667 20.5805 100.164 20.5805C99.6622 20.5805 99.2335 20.4022 98.8809 20.0474C98.5287 19.6931 98.3538 19.2622 98.3538 18.7575C98.3538 18.2605 98.5315 17.8329 98.8852 17.4781C99.2374 17.1238 99.6644 16.9482 100.164 16.9482C100.667 16.9482 101.095 17.1232 101.45 17.4781C101.803 17.8313 101.982 18.2572 101.982 18.7575C101.982 19.2622 101.803 19.6898 101.45 20.0474ZM99.0613 17.6563C98.7584 17.9598 98.6069 18.3283 98.6069 18.7614C98.6069 19.1949 98.7573 19.5668 99.0591 19.873C99.362 20.1797 99.7305 20.3333 100.164 20.3333C100.596 20.3333 100.978 20.1392 101.269 19.873C101.588 19.5821 101.724 19.1949 101.724 18.7614C101.724 18.3283 101.573 17.9592 101.269 17.6563C100.963 17.349 100.596 17.1948 100.164 17.1948C99.7333 17.1948 99.3653 17.3485 99.0613 17.6563ZM100.13 17.7564C100.376 17.7564 100.558 17.781 100.673 17.8286C100.879 17.9155 100.981 18.0834 100.981 18.3332C100.981 18.5115 100.917 18.6416 100.788 18.7264C100.717 18.7706 100.623 18.8045 100.498 18.8231C100.657 18.8472 100.769 18.9145 100.841 19.02C100.915 19.125 100.948 19.2272 100.948 19.3273V19.4733C100.948 19.5186 100.951 19.5689 100.953 19.6214C100.958 19.675 100.963 19.7089 100.972 19.7248L100.985 19.7505H100.656C100.654 19.7439 100.651 19.7368 100.65 19.7302C100.647 19.7237 100.646 19.7166 100.646 19.7073L100.638 19.6439V19.4853C100.638 19.2556 100.575 19.1042 100.449 19.0293C100.375 18.9877 100.243 18.9653 100.058 18.9653H99.7819V19.7505H99.4287V17.7569H100.13V17.7564ZM100.507 18.0708C100.419 18.021 100.277 17.9953 100.083 17.9953H99.7836V18.7182H100.101C100.248 18.7182 100.361 18.7023 100.437 18.6739C100.572 18.6197 100.642 18.5142 100.642 18.3617C100.642 18.2184 100.596 18.1194 100.507 18.0708Z" fill="black"/>
</g>
<defs>
<clipPath id="clip0_113_7243">
<rect width="160" height="23.7624" fill="white" transform="translate(0 0.118896)"/>
</clipPath>
</defs>
</svg>
