<svg width="91" height="40" viewBox="0 0 91 40" fill="none" xmlns="http://www.w3.org/2000/svg">
    <g clip-path="url(#clip0_41_475)">
        <path d="M0.0397949 25.2328V14.6191H8.37056V15.4632H0.958605V19.3155H8.06924V20.1601H0.958605V24.3888H8.45537V25.2328H0.0397949ZM17.9824 25.2328L10.5196 16.013V25.2328H9.59997V14.6194H10.6227L18.086 23.8406V14.6194H19.0046V25.2328H17.9824ZM20.75 25.2328V14.6194H29.0802V15.4637H21.6683V19.3163H28.7794V20.1595H21.6683V24.3888H29.1666V25.2328H20.75ZM38.5164 25.2331L38.4793 25.1979C38.2201 24.9163 38.2079 24.2887 38.1517 22.6975C38.13 21.8087 37.9757 21.2779 37.6204 20.9679C37.2655 20.6527 36.6493 20.5203 35.6489 20.5222H31.2284V25.2331H30.3099V14.6199H35.6629C36.6544 14.6199 37.5401 14.7601 38.1944 15.1958C38.8503 15.6323 39.2446 16.3762 39.2415 17.4919C39.2446 18.4965 38.6937 19.5845 37.4971 20.0492C38.5095 20.3528 39.0639 21.2057 39.07 22.2293C39.0965 24.1118 39.1625 24.7128 39.3408 25.0379L39.4445 25.2331H38.5164ZM35.5487 19.6777C35.8678 19.6785 36.5757 19.6752 37.1886 19.3939C37.799 19.1083 38.3181 18.5834 38.3229 17.4479C38.3171 15.8618 37.1566 15.4801 35.7199 15.464H31.2287V19.6777H35.5487Z" fill="black"/>
        <path d="M29.2395 0.281738H38.6732V1.12496H34.552V10.8941H33.6337V1.12496H29.5122V0.287107L25.2311 5.49973L29.6606 10.8941H28.4486L24.6176 6.21382L20.7441 10.8941H19.5741L24.0186 5.49973L19.7333 0.281738H20.9588L24.6189 4.77355L28.3493 0.281738H29.2395ZM11.1495 10.8941V0.281738H19.4802V1.12496H12.068V4.97758H19.1792V5.8216H12.068V10.0509H19.5661V10.8944L11.1495 10.8941ZM8.38192 10.8941L0.91881 1.67503V10.8941H0V0.281738H1.02111L8.48501 9.50134V0.281738H9.40461V10.8941H8.38192Z" fill="#7AC143"/>
        <path d="M73.6164 14.5429C73.6164 14.5429 73.8685 15.2435 73.8997 16.1984L69.7186 21.1337L75.5017 16.708L75.785 18.0768C75.785 18.0768 71.3847 23.1396 70.3164 24.5724C70.3164 24.5724 75.9255 19.8698 79.0601 17.9708C77.6773 15.3826 74.9746 13.625 71.8652 13.625C67.3483 13.625 63.6863 17.3345 63.6863 21.9104C63.6863 22.0365 63.6995 22.1603 63.7056 22.2857C65.522 20.691 70.4166 16.483 73.6164 14.5429ZM80.0431 22.1093C80.0423 21.3059 79.9263 20.5068 79.6985 19.7372C77.8106 20.7531 73.326 23.269 70.1068 25.8975C72.8194 26.2764 75.516 26.7643 78.1903 27.36C79.3912 25.8809 80.0463 24.0244 80.0431 22.1093Z" fill="#0096D6"/>
        <path d="M73.7738 19.2642C73.7738 19.2642 69.1527 22.894 68.5243 23.4994L67.8949 22.3208C67.8949 22.3208 71.0703 18.309 72.1073 17.2583C72.1073 17.2583 66.4538 21.3353 63.8577 23.7982C63.9608 24.2973 64.1092 24.7857 64.301 25.2572C65.6942 25.3689 67.1033 25.5147 68.5291 25.6902C68.629 25.5684 73.2133 19.9888 73.7738 19.2642Z" fill="#0096D6"/>
        <path d="M45.9401 25.4647C44.3603 25.4647 42.9663 24.9589 41.9675 24.0086C40.9676 23.0588 40.3711 21.6663 40.3716 19.9259C40.3724 18.6432 40.8028 17.2626 41.7168 16.196C42.6292 15.1302 44.0314 14.3869 45.9404 14.3882C48.4842 14.3818 50.4069 15.6725 50.9179 17.9686L50.9542 18.1297H50.0282L50.0052 18.0271C49.5917 16.1871 47.95 15.2363 45.9404 15.2312C43.0917 15.2349 41.2957 17.3799 41.2904 19.9257C41.2991 22.4658 42.8747 24.6145 45.9404 24.6212C48.413 24.6121 49.9951 23.1348 50.2071 20.6521H46.1102V19.8081H51.1424L51.1365 19.9471C51.0941 20.8121 50.8397 21.9235 50.5935 22.6266C49.7979 24.5369 47.9412 25.4647 45.947 25.4647H45.9401ZM56.55 24.9877C56.3716 24.9871 56.1933 24.9842 56.016 24.9842C55.9762 24.9842 55.9352 24.9853 55.893 24.9858H55.7629L55.7616 20.7984L50.8858 14.6196H52.1351L56.2222 19.9157L60.3948 14.6196H61.5585L56.6814 20.7984V24.9887L56.55 24.9877Z" fill="black"/>
        <path d="M77.8622 27.739C74.8719 27.0814 71.8543 26.5584 68.8183 26.1717C64.6633 25.6432 60.4799 25.3773 56.2923 25.3755H56.2889C29.958 25.3763 10.7881 35.9178 4.354 39.9999C25.2526 30.4474 44.7398 27.6727 60.3309 27.6727C73.6827 27.6727 84.1757 29.707 90.2567 31.2657C86.0268 29.7873 81.8923 28.626 77.8622 27.739Z" fill="#7AC143"/>
        <path d="M49.7378 5.89326C49.7378 2.85702 48.1723 0.0159421 44.0847 0.0159421C40.815 0.0159421 38.5366 2.22937 38.5366 5.69755C38.5366 8.46104 40.0843 11.1835 44.2419 11.1835C47.7563 11.1835 49.0077 8.89111 49.5303 7.73514H46.9196C46.4497 8.59742 45.7543 9.22426 44.1711 9.22426C41.7886 9.22426 41.1171 7.34373 41.0405 6.28494H49.7372V5.89326H49.7378ZM41.0408 4.56118C41.4412 2.4444 43.0066 1.85755 44.1186 1.85755C45.3017 1.85755 46.9366 2.48386 47.2334 4.56118H41.0408ZM68.2568 8.99984C68.0565 8.94937 67.7779 8.95044 67.7779 8.38802V3.51957C67.7779 2.18158 67.6407 0.0672173 62.8706 0.0672173C60.1664 0.0672173 58.3929 0.900506 58.0492 3.59661H60.3731C60.4585 2.45272 61.3023 1.8903 62.8709 1.8903C64.2469 1.8903 65.4532 2.18158 65.4532 3.36413C65.4532 4.1593 65.0904 4.29567 61.681 4.66453C60.1667 4.8197 57.5844 5.07205 57.5844 7.904C57.5844 9.92118 58.9256 11.1231 61.3023 11.1231C63.9712 11.1231 65.1259 10.2116 65.5921 9.70775C65.6594 10.0954 65.8317 11.0269 67.382 11.0269C67.77 11.0269 68.4455 10.9953 68.7614 10.9518L68.7678 9.08467C68.4545 9.05755 68.3983 9.03608 68.2568 8.99984ZM65.4013 6.60386C65.4013 8.87339 63.2493 9.41621 61.9733 9.41621C61.1658 9.41621 60.0631 9.1644 60.0631 7.80574C60.0631 6.93326 60.4932 6.48628 62.2855 6.25514C63.971 6.04145 64.7117 5.9448 65.4013 5.61433V6.60386ZM57.5454 0.115271C57.2261 0.0554052 57.4057 0.0151367 57.031 0.0151367C55.1507 0.0151367 54.1394 1.15473 53.4822 2.35473H53.4477V0.296211H50.9974V10.8911H53.4477V5.77326C53.4477 3.31473 55.2037 2.57487 56.4453 2.57487C56.6308 2.57487 57.3236 2.58024 57.5359 2.60359L57.5454 0.115271Z" fill="#0096D6"/>
        <path d="M51.4172 32.6705H52.8626C53.4356 32.6705 53.8996 32.9604 53.8996 33.7387C53.8996 34.2732 53.6646 34.6852 53.2175 34.7553V34.7666C53.6251 34.8071 53.8371 35.0342 53.8601 35.6149C53.8654 35.882 53.8721 36.2071 53.8829 36.4571C53.8951 36.66 53.9919 36.7591 54.078 36.8168H53.3386C53.2755 36.7414 53.2464 36.6138 53.2297 36.4511C53.2066 36.2012 53.213 35.9685 53.2008 35.6673C53.1894 35.2144 53.0513 35.0165 52.6048 35.0165H52.0713V36.8168H51.4172V32.6705ZM52.5931 34.5172C53.0113 34.5172 53.2464 34.2614 53.2464 33.8431C53.2464 33.4023 53.0572 33.1698 52.6268 33.1698H52.071V34.5172H52.5931ZM54.7819 32.6705H56.995V33.2281H55.4357V34.3776H56.9039V34.9354H55.4357V36.2589H57.0417V36.8168H54.7819V32.6705ZM58.3302 35.5336V35.638C58.3302 36.1432 58.5483 36.3985 59.0015 36.3985C59.4144 36.3985 59.6203 36.1024 59.6203 35.7948C59.6203 35.3591 59.403 35.1671 59.0359 35.0571L58.5883 34.9003C57.9928 34.6683 57.7347 34.3545 57.7347 33.7618C57.7347 33.0074 58.2385 32.5891 59.0076 32.5891C60.0562 32.5891 60.1651 33.2511 60.1651 33.6804V33.7736H59.5113V33.6866C59.5113 33.3089 59.3457 33.0882 58.9381 33.0882C58.6569 33.0882 58.3882 33.2444 58.3882 33.6866C58.3882 34.0407 58.566 34.2203 59.0015 34.3891L59.4424 34.5518C60.0223 34.7607 60.2738 35.0799 60.2738 35.6487C60.2738 36.5322 59.7464 36.8979 58.9209 36.8979C57.9067 36.8979 57.6772 36.2125 57.6772 35.6321V35.533H58.3302V35.5336ZM60.8817 34.7435C60.8817 33.2624 61.2946 32.5889 62.2341 32.5889C63.1757 32.5889 63.5876 33.2624 63.5876 34.7435C63.5876 36.2246 63.1755 36.8979 62.2341 36.8979C61.2944 36.8979 60.8817 36.2246 60.8817 34.7435ZM62.9343 34.7263C62.9343 33.3322 62.6245 33.0885 62.2339 33.0885C61.8445 33.0885 61.535 33.3322 61.535 34.7263C61.535 36.1542 61.8445 36.3988 62.2339 36.3988C62.6245 36.3988 62.9343 36.1542 62.9343 34.7263ZM65.0555 32.6705V35.6442C65.0555 36.166 65.2617 36.3985 65.6571 36.3985C66.0469 36.3985 66.2531 36.166 66.2531 35.6442V32.6705H66.9069V35.5916C66.9069 36.5499 66.437 36.8979 65.6571 36.8979C64.8726 36.8979 64.4019 36.5499 64.4019 35.5916V32.6705H65.0555ZM67.8172 32.6705H69.2621C69.8353 32.6705 70.2993 32.9604 70.2993 33.7387C70.2993 34.2732 70.0643 34.6852 69.6172 34.7553V34.7666C70.0245 34.8071 70.2368 35.0342 70.2599 35.6149C70.2654 35.882 70.2718 36.2071 70.2826 36.4571C70.294 36.66 70.3916 36.7591 70.4777 36.8168H69.7375C69.6744 36.7414 69.6461 36.6138 69.6291 36.4511C69.6063 36.2012 69.6124 35.9685 69.6005 35.6673C69.5891 35.2144 69.4521 35.0165 69.0045 35.0165H68.471V36.8168H67.8172V32.6705ZM68.9928 34.5172C69.4113 34.5172 69.6463 34.2614 69.6463 33.8431C69.6463 33.4023 69.4571 33.1698 69.0273 33.1698H68.471V34.5172H68.9928ZM73.6115 35.3298V35.4168C73.6115 36.1663 73.3139 36.8979 72.3508 36.8979C71.3186 36.8979 70.9974 36.2246 70.9974 34.7435C70.9974 33.263 71.3189 32.5889 72.3559 32.5889C73.5201 32.5889 73.5887 33.4597 73.5887 33.8898V33.9652H72.9355V33.8957C72.9355 33.5126 72.8207 33.0707 72.3508 33.0882C71.8688 33.0882 71.6512 33.3899 71.6512 34.7261C71.6512 36.0622 71.8685 36.3988 72.3508 36.3988C72.8944 36.3988 72.9585 35.7824 72.9585 35.3991V35.3295L73.6115 35.3298ZM74.3562 32.6705H76.5694V33.2281H75.0103V34.3776H76.4777V34.9354H75.0103V36.2589H76.6163V36.8168H74.3562V32.6705ZM77.9045 35.5336V35.638C77.9045 36.1432 78.1229 36.3985 78.5758 36.3985C78.9881 36.3985 79.1943 36.1024 79.1943 35.7948C79.1943 35.3591 78.9768 35.1671 78.6102 35.0571L78.1626 34.9003C77.5669 34.6683 77.3087 34.3545 77.3087 33.7618C77.3087 33.0074 77.8128 32.5891 78.5821 32.5891C79.6308 32.5891 79.7397 33.2511 79.7397 33.6804V33.7736H79.0857V33.6866C79.0857 33.3089 78.92 33.0882 78.5127 33.0882C78.2313 33.0882 77.9625 33.2444 77.9625 33.6866C77.9625 34.0407 78.1398 34.2203 78.5758 34.3891L79.0173 34.5518C79.5964 34.7607 79.8481 35.0799 79.8481 35.6487C79.8481 36.5322 79.3207 36.8979 78.4952 36.8979C77.481 36.8979 77.2518 36.2125 77.2518 35.6321V35.533H77.9045V35.5336Z" fill="black"/>
    </g>
    <defs>
        <clipPath id="clip0_41_475">
            <rect width="90.3704" height="40" fill="white"/>
        </clipPath>
    </defs>
</svg>
