<svg width="160" height="41" viewBox="0 0 160 41" fill="none" xmlns="http://www.w3.org/2000/svg">
    <path d="M0 32.2191H8.05064H16.1279L8.05064 20.543L0 32.2191Z" fill="#F7B400"/>
    <path d="M156.428 29.3665V29.7664H155.628V32.2455H155.122V29.7664H154.322V29.3665H156.428ZM159.307 29.3665L158.427 31.5524L157.521 29.3665H156.881V32.2455H157.334V30.0063L158.187 32.1123H158.64L159.494 30.0063V32.2455H160V29.3665H159.307ZM17.5144 9V22.0889L8.79733 9H2.5061V25.8477L8.07757 17.7704L18.0476 32.2189H23.0859V9H17.5144ZM109.937 32.7254C115.855 32.7254 119.32 29.6331 119.32 23.4485C119.32 17.2639 115.855 14.3049 110.043 14.3049C104.125 14.3049 100.66 17.3972 100.66 23.5818C100.66 29.7664 104.125 32.7254 109.937 32.7254ZM112.763 23.5551C112.763 26.4608 112.203 28.5401 110.017 28.5401C107.751 28.5401 107.218 26.4075 107.218 23.5018C107.218 20.5961 107.778 18.5168 109.963 18.5168C112.229 18.5168 112.763 20.6494 112.763 23.5551ZM41.0799 27.3405H40.8399C40.8399 27.3405 37.8009 28.1936 35.4551 28.1936C32.736 28.1936 31.3231 27.0206 31.3231 25.1546H42.1995C42.1995 21.6358 42.1995 19.5298 40.7866 17.4238C39.3738 15.3179 37.0279 14.2782 33.8556 14.2782C27.9909 14.2782 25.0319 17.9037 25.0319 23.5018C25.0319 26.1942 25.725 28.5401 27.6177 30.2729C29.1105 31.6324 31.1898 32.4322 34.8419 32.4322C38.3608 32.4322 41.0799 31.6857 41.0799 31.6857V27.3405ZM31.2698 21.6624C31.2698 19.903 31.9629 18.3835 33.8023 18.3835C35.5884 18.3835 36.0149 19.823 36.0149 21.6624H31.2698ZM42.546 14.8114L46.9179 32.2189H53.5823L56.3014 21.6624L59.0205 32.2189H65.6849L70.2434 14.7847H64.9918L62.6993 25.8477L59.9802 15.0247H53.9555L51.2365 25.8477L48.9705 14.8114H42.546ZM71.5496 14.8114V32.2455H77.8409V21.9823C77.8409 20.8094 77.9742 19.4498 80.0002 19.4498C80.8532 19.4498 81.493 19.6898 81.8662 20.1963C82.2394 20.7028 82.2394 21.2359 82.2394 21.8757V32.2455H88.5306V21.9823C88.5306 20.8094 88.6639 19.4498 90.6899 19.4498C91.5429 19.4498 92.1827 19.6898 92.5559 20.1963C92.9292 20.7028 92.9292 21.2359 92.9292 21.929V32.2455H99.2204V21.7957C99.2204 19.6364 99.1671 17.957 98.234 16.5975C97.1144 14.918 95.3017 14.4382 93.3823 14.4382C90.0501 14.4382 88.8239 15.931 88.1041 17.8237C87.5443 15.851 85.9981 14.4382 82.7192 14.4382C79.6269 14.4382 78.1608 15.7444 77.521 17.8237L76.4014 14.7847H71.5496V14.8114ZM120.893 14.8114V32.2455H127.184V21.9823C127.184 20.9427 127.318 19.4498 129.53 19.4498C130.57 19.4498 131.21 19.7697 131.556 20.2496C131.929 20.7827 131.929 21.4225 131.929 22.0356V32.2189H138.221V22.0356C138.221 19.6364 138.221 18.0103 137.234 16.5975C136.195 15.0513 134.515 14.4382 132.329 14.4382C129.237 14.4382 127.504 15.6378 126.864 17.8237L125.745 14.7847H120.893V14.8114ZM152.429 27.7137H152.189C152.189 27.7137 151.256 27.9003 150.27 27.9003C149.47 27.9003 148.857 27.767 148.484 27.2872C148.111 26.7807 148.111 26.061 148.111 25.4212V19.6098H152.429V15.0513H148.111V9.61313L141.926 11.2126V15.0513H138.967V19.6098H141.926V25.6611C141.926 27.2606 141.926 28.94 142.859 30.2995C143.899 31.8457 145.765 32.4588 148.67 32.4588C150.883 32.4588 152.429 32.0856 152.429 32.0856V27.7137Z" fill="#142D7A"/>
</svg>
