<?xml version="1.0" encoding="UTF-8"?>
<svg width="512px" height="512px" viewBox="0 0 512 512" version="1.1" xmlns="http://www.w3.org/2000/svg" xmlns:xlink="http://www.w3.org/1999/xlink">
    <!-- Generator: Sketch 49 (51002) - http://www.bohemiancoding.com/sketch -->
    <title>NI225</title>
    <desc>Created with Sketch.</desc>
    <defs></defs>
    <g id="NI225" stroke="none" stroke-width="1" fill="none" fill-rule="evenodd">
        <g id="Group" transform="translate(-2.000000, 79.000000)" fill-rule="nonzero">
            <g id="g3271" transform="translate(91.500000, 276.500000) scale(-1, 1) rotate(-180.000000) translate(-91.500000, -276.500000) translate(57.000000, 226.000000)" fill="#231F20">
                <polyline id="path3273" points="23 83.2807018 0.322 83.2807018 0.322 100.405075 68.1635962 100.405075 68.1635962 83.2807018 45.51125 83.2807018 45.51125 0.998925439 23 0.998925439"></polyline>
            </g>
            <g id="g3291" transform="translate(239.000000, 58.500000) scale(-1, 1) rotate(-180.000000) translate(-239.000000, -58.500000) " fill="#ED1C24">
                <path d="M462.72607,25.5272727 C460.845497,26.7270545 459.067268,26.1782182 456.892455,26.2292727 C454.538541,23.4595636 453.297618,27.2503636 450.598292,26.2930909 C448.743305,24.0849818 445.097296,26.8036364 443.012034,24.3019636 C438.995028,25.7953091 435.553707,20.3962909 431.332012,23.1277091 C428.402411,22.3618909 424.935504,22.2725455 421.839595,20.9451273 C417.042214,22.1321455 412.462315,19.8346909 407.741692,19.3496727 C404.479473,17.6904 401.946457,17.6010545 398.517929,16.2736364 C395.268503,16.0056 391.35384,16.0821818 388.091621,13.8868364 C385.7505,15.7503273 383.857133,13.1848364 381.426461,14.04 L379.55868,13.9634182 C377.038457,16.2225818 372.484143,10.7214545 372.061974,16.3246909 C373.059829,19.2603273 369.157959,22.2087273 373.443619,23.4850909 C374.607784,26.0888727 374.991574,29.9945455 378.560825,30.4412727 C379.609853,31.59 380.978705,31.4368364 382.488281,31.0284 C385.174814,33.0705818 386.761148,33.8491636 389.959402,34.0533818 C391.123566,36.0189818 394.078752,35.8530545 396.266358,36.5678182 C398.172517,37.2187636 400.795085,38.3164364 403.02107,39.1588364 C407.767278,40.8564 409.72461,41.4818182 413.792788,44.4174545 C415.788499,45.5406545 412.091317,42.2604 413.792788,44.4174545 C414.867402,46.3064727 413.562514,43.1028 413.792788,44.4174545 C411.17022,46.2298909 412.705382,44.7365455 410.338674,46.3702909 L404.748127,46.0894909 C402.778002,48.1061455 399.004063,48.2976 396.57339,47.3148 C394.756782,47.9402182 392.927381,47.7998182 391.48177,48.5656364 C390.138504,47.4679636 389.61399,49.0634182 388.373068,49.1910545 C377.486212,47.6594182 366.471426,52.6755273 355.162401,50.8758545 C351.004671,51.9735273 345.298987,52.7010545 340.783052,51.4246909 C338.979237,52.0628727 337.431282,51.7820727 335.614674,52.3053818 C335.12854,50.9013818 334.655198,52.8797455 333.785273,51.7820727 C331.329014,52.3947273 333.708515,51.4629818 331.188291,52.0501091 C329.665922,53.0712 327.990037,51.5395636 326.467669,51.5906182 C322.322732,52.4968364 317.755626,52.9946182 314.570165,52.0245818 C312.101113,53.7349091 309.273857,50.0845091 307.777074,52.8414545 C305.448745,51.948 302.199319,53.6455636 299.589544,52.9052727 C297.977625,53.8753091 296.480842,52.4457818 294.651441,52.7521091 C290.979845,54.5900727 287.935108,50.1355636 284.480994,52.9690909 C281.884012,51.7054909 279.619648,54.9985091 277.035459,51.8969455 C273.862792,53.9774182 270.498229,50.6844 267.824488,52.4457818 C265.49616,50.9141455 262.720076,52.3947273 260.135887,52.3947273 C257.679628,51.4246909 254.750027,51.5268 252.370527,51.8714182 C249.568856,50.7609818 246.421775,50.5057091 243.773621,50.7865091 C239.794993,49.5484364 236.033847,50.7099273 232.183149,50.1993818 C229.432651,49.3569818 225.773849,48.1061455 222.588388,48.8847273 C221.270707,48.1316727 220.234473,49.3569818 218.865621,48.6677455 C214.861407,48.7315636 210.831607,46.2681818 206.30288,47.7615273 C203.155798,45.5917091 199.407445,47.0595273 196.081261,45.6172364 C193.356349,47.4679636 190.746574,42.2093455 187.880938,45.2215636 C183.915104,44.1238909 179.757374,44.2642909 175.906677,42.7837091 C173.936552,44.1494182 172.861939,41.7370909 170.687126,42.4263273 C166.644534,41.5966909 162.486804,39.8097818 158.444211,40.5628364 C154.977304,38.3802545 151.587155,40.4224364 148.260971,37.6910182 C146.009401,39.5034545 143.911346,36.1976727 141.570225,37.9718182 C138.691796,37.1421818 136.184365,35.2786909 133.178007,35.4446182 C132.333668,35.1 131.45095,33.6704727 130.77292,35.0234182 C128.662073,34.7043273 126.589604,33.1088727 124.440378,33.9512727 C122.738907,31.6538182 121.677086,33.9257455 119.630204,33.1216364 C116.342399,30.2115273 111.979981,32.5728 108.756141,29.0372727 L108.53866,29.3436 C102.884148,29.0117455 98.0100089,28.1565818 92.7009078,25.8208364 C90.1806838,26.7525818 87.4557717,23.4468 84.295897,24.4551273 C80.3428554,23.3446909 77.6179432,22.7065091 73.6265226,20.8430182 C71.0551266,20.8430182 67.5754265,20.4728727 65.375028,18.6221455 C60.1170989,16.0821818 53.7589705,16.8224727 49.076727,12.8785091 C44.0874512,14.2825091 39.5203449,8.39847273 35.4649592,9.35574545 C31.6270547,8.20701818 27.9682525,6.01167273 23.8744877,5.88403636 C20.3308226,4.60767273 16.6976063,4.13541818 13.4225945,1.79967273 C11.8746397,2.02941818 10.8256125,0.395672727 9.16252057,1.30189091 C7.69132386,0.114872727 6.29688524,0.893454545 4.78730948,1.37847273 C3.2521477,2.71865455 1.24364436,3.0888 0.603993618,4.05883636 C1.76815797,4.70978182 0.412098394,5.88403636 0.603993618,6.8796 C-0.20196632,7.42843636 1.67860687,8.424 1.3587815,10.0194545 C3.03466645,15.6609818 9.4439669,14.9079273 12.7701508,18.4179273 L14.67631,18.4945091 C17.2221199,19.8091636 20.6506479,23.8297091 23.3499741,22.8341455 C26.1004723,26.2930909 30.7059576,25.0039636 33.5588,27.3269455 C35.2090989,26.8164 36.3732632,29.2159636 37.6013927,28.8458182 L39.3284497,30.4285091 C42.7058056,30.3391636 45.635406,32.8536 48.9615899,33.3513818 L55.8826109,36.4912364 C58.4667999,36.6061091 61.1917121,37.6910182 63.9038313,38.3164364 L65.7076464,39.5672727 L67.6521846,39.8353091 C68.9826582,39.6821455 71.426124,40.6138909 72.5647023,41.6349818 C74.6371707,40.6904727 75.4175447,43.8941455 77.2853248,42.6943636 C80.6754738,42.9241091 83.1956977,45.8980364 86.4835025,45.3236727 C88.7862452,45.8980364 90.9994368,48.0423273 93.3533515,47.2382182 C96.6795354,47.7487636 100.26158,50.9013818 104.38093,49.9058182 C105.199683,51.5395636 106.773224,49.6888364 107.7327,50.6716364 C111.788086,53.2754182 115.702749,51.9224727 119.65579,54.3730909 C121.81781,53.9901818 123.493695,55.9813091 125.847609,55.0750909 C129.250551,56.0834182 132.858181,56.7854182 136.478605,57.1683273 C141.826085,58.5085091 147.224737,59.5551273 152.687355,60.2060727 C156.781119,62.4269455 160.913263,60.7932 165.109372,63.1672364 C167.079496,63.1034182 168.28204,63.2693455 170.239371,63.0651273 C173.232936,63.8947636 175.970642,65.7199636 179.207274,65.2094182 C181.77867,67.8132 184.695478,64.6222909 187.305253,67.1112 C193.292384,66.8304 199.369066,69.3065455 205.688815,69.3576 C208.567244,70.3276364 210.997916,69.9192 213.927517,71.0041091 C216.690808,68.6811273 218.712104,73.1356364 221.70567,71.604 C223.112901,72.8676 225.837814,70.4297455 227.30901,73.008 C233.948585,70.1744727 240.204369,75.8670545 246.805565,74.0801455 C249.274617,74.4247636 251.730876,75.3309818 254.046411,74.9608364 C257.257458,74.9736 260.314989,75.0884727 263.717931,76.0712727 C266.391671,74.9863636 268.489725,77.1561818 271.189051,76.0329818 C273.479001,77.5773818 276.48536,75.8287636 278.73693,77.5773818 L281.193189,77.5518545 C282.114286,76.1478545 284.186755,77.4625091 284.954335,77.4369818 C289.201616,76.4158909 292.758074,77.8581818 297.1077,77.4242182 C298.809171,76.5307636 300.42109,78.7261091 302.595903,77.2582909 C307.444456,76.0074545 311.602185,78.1262182 316.24605,77.922 C317.794005,76.2882545 319.892059,77.4752727 321.72146,77.3093455 C323.474103,79.0196727 326.186222,76.2499636 328.425,77.0796 C332.007044,77.0157818 334.987817,77.6284364 338.684998,77.0796 C341.985596,79.6578545 344.326717,75.4330909 347.397041,77.8071273 C349.571854,76.3393091 351.644322,76.7860364 354.049409,77.2072364 L356.300979,76.7860364 C357.925692,76.8881455 360.2924,75.9308727 361.853148,77.0796 C363.490654,74.5141091 366.356289,77.6284364 367.891451,75.6500727 C371.818906,75.6117818 375.733569,74.6928 379.456336,75.2416364 C388.00207,73.5823636 397.622417,72.0890182 405.82274,74.2588364 C405.490122,72.3442909 402.534935,73.6972364 404.146855,73.6972364 L405.989049,74.9480727 C404.722541,76.3520727 402.841968,78.4963636 400.654362,78.9558545 C398.799375,82.9381091 397.097904,82.0063636 395.345261,85.8865091 C393.925236,87.3798545 391.532942,89.0008364 389.319751,89.5752 C385.277158,94.4636727 389.434888,94.2594545 383.71641,97.5014182 L382.577832,98.0502545 L376.322048,104.278909 C377.665314,108.069709 371.319979,108.414327 374.50544,111.834982 C374.403095,113.775055 376.027808,111.094691 376.322048,113.353855 L377.908382,115.153527 C379.622646,115.983164 382.181249,115.396036 384.023443,115.217345 L384.982919,116.200145 C388.590549,113.545309 392.645935,112.830545 396.419874,109.958727 C398.377205,110.226764 397.955036,108.644073 399.592542,108.2484 C407.191593,104.304436 411.17022,100.386 418.334309,96.9270545 C421.826802,93.6850909 426.777698,89.7156 431.779767,88.2350182 C431.587872,86.9331273 433.66034,86.6012727 434.325577,86.8437818 C436.602734,82.6700727 441.374528,82.4403273 443.574927,78.2283273 C445.621809,78.0751636 446.440562,75.1012364 449.050337,75.3565091 C450.240088,72.2932364 454.397818,71.4380727 456.611009,68.7449455 C457.877518,68.9491636 458.414824,67.8132 459.041682,66.9325091 C461.318839,64.0479273 466.384872,64.7882182 467.280384,60.4358182 C469.55754,58.6361455 470.593774,54.3986182 473.932751,52.7776364 C473.510582,48.9613091 478.026516,48.3231273 477.629933,44.4174545 C478.12886,40.4734909 475.979634,38.2653818 476.13315,34.5001091 C474.495644,31.0539273 471.105495,30.4923273 467.830483,28.9606909 L462.72607,25.5272727" id="path3293"></path>
            </g>
            <g id="g3295" transform="translate(320.500000, 142.500000) scale(-1, 1) rotate(-180.000000) translate(-320.500000, -142.500000) translate(126.000000, 98.000000)" fill="#ED1C24">
                <path d="M16.3466297,19.1659905 C17.808118,20.0579462 19.1670456,19.6119684 20.8592952,19.6374528 C22.6412853,17.4840169 23.641251,20.3892441 25.7181027,19.6119684 C27.1026705,17.8917681 29.9743668,19.9432662 31.5640558,18.0064481 C34.6793334,19.1150216 37.2946282,14.8973453 40.5509266,16.9743279 C42.8072594,16.3244745 45.4994746,16.2352789 47.871188,15.1776743 C51.576189,16.0441455 55.0760688,14.2092652 58.7169694,13.7887718 C61.2297036,12.4763227 63.1783546,12.3743849 65.7936494,11.3295225 C68.3320238,11.074678 71.3447408,11.074678 73.8318349,9.35447769 C75.6522852,10.7816068 77.1137735,8.78107759 78.9855041,9.40544659 L80.4341722,9.31625101 C82.3956433,11.0491935 85.8442429,6.74232167 86.2544852,11.0491935 C85.4981009,13.3173095 88.5620982,15.559941 85.2545195,16.579319 C84.3955747,18.5925904 86.0878242,19.1405061 83.3315086,19.535515 L78.3573205,22.4917111 C76.3061089,24.0972314 74.6523195,24.5177248 72.1908656,24.7216004 C71.3191007,26.2634096 68.7038059,25.8684006 67.0243764,26.4545429 C65.550068,26.9769741 63.3578356,28.4295877 61.652766,29.0921834 C57.9862253,30.4683436 61.9604477,28.276681 58.8708103,30.5830237 C57.3195815,31.4877216 56.9477994,31.398526 55.6657921,33.0932419 C54.8196673,34.5585977 61.3579043,34.1508465 61.3579043,34.1508465 C62.9219532,35.6671712 65.8321096,35.7436246 67.7038402,34.9408644 C69.1012281,35.3995845 70.5242562,35.25942 71.6652426,35.8073357 L74.0497761,36.2405713 C82.4212835,34.8771533 91.5748153,38.546914 100.625786,36.9541359 C103.959005,37.7314116 108.561411,38.1773895 112.151032,37.132527 C113.61252,37.5785049 114.830427,37.3618871 116.304735,37.7059271 L117.907244,37.1580115 C119.881535,37.6039894 117.830324,37.0305892 119.868715,37.4383404 C121.112262,38.1773895 122.40709,36.9796204 123.637817,37.0051048 C126.958215,37.6294738 129.59915,38.0117405 133.483632,37.2089804 C134.983581,38.3430384 136.893772,36.8904248 138.880883,37.7059271 C140.714153,37.0051048 143.62431,38.2283584 145.726802,37.642216 C146.995989,38.4067495 148.213896,37.3109182 149.649744,37.527536 C152.611181,38.9546651 155.034174,35.539749 157.84177,37.7186694 C159.905802,36.7502603 161.726252,39.285963 163.803104,36.9413937 C166.328658,38.5086873 169.059334,35.9857268 171.187466,37.3618871 C173.046376,36.1896024 175.289889,37.3236604 177.353921,37.3364026 C179.328212,36.5846114 181.674285,36.6610647 183.584476,36.9413937 C185.840809,36.1004069 188.353543,35.8965313 190.481675,36.1131491 C193.673873,35.1829667 196.968632,35.9857268 200.032629,35.6671712 C202.288962,35.0428022 205.211938,34.1381043 207.775953,34.7624733 L210.750209,34.6477933 C213.929587,34.7242466 217.237166,32.8766241 220.826786,34.0998776 C223.377981,32.4561307 226.377878,33.6284153 229.057273,32.5580685 C231.185405,34.010682 233.377637,30.0096236 235.63397,32.3541929 C238.838988,31.5641749 242.159387,31.7043394 245.249025,30.6085081 C246.838714,31.7043394 247.710479,29.8694591 249.466828,30.4173747 C252.697487,29.8184902 256.043526,28.4805566 259.287004,29.1304101 C262.0946,27.4994053 264.773995,29.0921834 267.49185,27.0406853 C269.273841,28.4550722 270.99173,25.944854 272.850641,27.3464986 C275.171074,26.7348719 277.209465,25.320485 279.606819,25.4861339 L281.54265,25.1930627 C283.26054,24.9637027 284.914329,23.7786758 286.645039,24.4412715 C288.016787,22.6955867 288.850091,24.4667559 290.503881,23.8678714 C293.196096,21.6507243 296.644695,23.5365735 299.28563,20.8607064 L299.439471,21.0900664 C303.977777,20.9244175 307.900719,20.3127907 312.182623,18.5925904 C314.208195,19.3188972 316.438887,16.7959368 318.951622,17.6241814 C322.131,16.7959368 324.759114,16.41367 327.387229,14.2602341 C329.399981,14.9865409 332.412698,14.7571809 334.169048,13.3682784 C338.450952,11.469687 343.527701,12.0940559 347.335262,9.13785987 C351.322305,10.2846601 355.052946,5.81213928 358.283604,6.6021572 C361.386062,5.76117039 364.347498,4.13016565 367.590977,4.06645453 C370.449853,3.11078769 373.38565,2.76674763 376.013764,0.970093982 C377.257311,1.17396957 378.116256,-0.100252874 379.436724,0.626053922 C380.641811,-0.265901792 381.718697,0.345724983 382.936604,0.740733942 C384.15451,1.77285412 386.385203,1.61994743 386.898006,2.35899645 L388.205653,5.5063259 C388.833837,5.93956153 385.564718,8.95946873 385.76984,10.2082067 C384.308351,14.5150786 379.218783,13.8907096 376.513747,16.5665767 L374.988159,16.5920612 C372.924127,17.547728 370.129351,20.6058619 367.975579,19.815844 C365.732066,22.4534844 362.052705,21.3831376 359.732272,23.1543068 C358.437445,22.7465556 357.424659,24.5686937 356.463154,24.2628803 L355.065766,25.4733916 C352.360731,25.3459694 349.976197,27.2573031 347.309622,27.6013431 L341.72007,29.9459124 C339.732959,28.9902456 337.425346,30.8123837 335.271574,31.2583616 L333.438304,32.7237174 L331.194791,33.3226019 C329.33588,33.1059841 329.810223,32.2777395 328.284634,34.1508465 C326.759046,32.8766241 325.977021,35.3995845 324.477073,34.4694021 C321.759217,34.6223088 319.695186,36.8649403 317.054251,36.393478 C315.22098,36.8012292 313.43899,38.4067495 311.5288,37.7823805 C308.875045,38.1264206 305.977708,40.5092165 302.670129,39.6937142 C301.990666,40.9424522 300.759939,39.5025808 299.977914,40.2416298 C296.695976,42.2039324 293.580698,41.1208433 290.37568,42.9302392 C288.63215,42.637168 287.273222,44.1280083 285.401492,43.4144437 C282.657996,44.1407505 279.76066,44.6504395 276.837683,44.905284 C272.568599,45.8609508 268.196954,46.5999998 263.81249,47.0587199 C260.504911,48.7024669 257.210152,47.40276 253.812833,49.1739292 C252.235964,49.1229603 251.261639,49.2121558 249.71041,49.0465069 C247.300236,49.6453915 245.108004,51.0342939 242.505529,50.6010583 C240.403037,52.5378764 236.287794,50.0786271 234.146842,51.9644763 C229.339315,51.6714052 224.442047,53.5190277 219.390938,53.480801 C217.057685,54.2071078 215.134674,53.8630678 212.750141,54.6530857 C210.583549,52.8309476 208.891299,56.2458638 206.532406,55.0353524 C205.391419,55.9910193 203.160727,55.0735791 202.00692,56.0292459 C195.096901,54.614859 191.648301,58.2209086 186.366432,56.8320061 C184.40496,57.0995928 182.405029,57.7876729 180.558939,57.507344 C177.969284,57.5200862 175.54629,57.5965396 172.789975,58.361073 C170.636203,57.507344 168.956773,59.1638332 166.815821,58.3101041 C164.982551,59.4823888 162.572377,58.1444552 160.751927,59.4696466 L158.264833,59.8773977 C158.021251,58.2591352 156.393102,59.380451 155.764918,59.380451 C152.380419,58.5904331 149.534363,59.6735221 146.021663,59.3549665 C144.675556,58.641402 143.67559,59.8519133 141.662839,59.2785132 C137.791177,58.361073 134.483598,60.0557889 130.752957,59.9283666 C129.50941,58.7051131 127.81716,59.6607799 126.355672,59.5588421 C124.983924,60.8967757 122.753232,58.8070509 120.971242,59.495131 C118.086725,59.5333577 115.830392,59.8009444 112.856136,59.4569043 C110.01008,61.4446913 109.394716,58.6668864 107.599906,60.3106334 C105.843556,59.2402865 102.356496,59.6862644 100.433485,60.0557889 L98.6514953,59.7754599 C97.3438479,59.8773977 95.3951969,59.1893176 94.1516499,60.1067578 C92.8183623,58.1826819 90.5876697,60.6037045 89.3184825,59.1128643 C86.1775647,59.1383487 82.7546054,58.5139797 79.9213693,59.0109265 C73.2805718,57.8641263 75.0369217,56.5516771 68.716626,58.3738152 C68.9345672,56.882975 66.601314,57.9405796 65.3449469,57.9660641 L63.4732163,56.3605438 C66.4090129,59.495131 61.3963645,57.8641263 58.473388,57.2907262 C56.9477994,58.7305975 63.7424378,59.1893176 65.1270057,62.1455137 C66.2679921,63.2795717 68.1140826,64.490083 69.8191522,64.8978342 C72.9985302,68.6313059 76.6650709,71.8550887 81.6777193,72.4030044 L81.6648992,72.7343022 L83.8058513,73.6135157 C83.8955918,75.728725 88.1262158,77.206823 85.7288622,79.8699479 C85.8442429,81.3607882 83.2802283,82.1253217 83.0622871,83.8582642 L81.8443802,85.2726511 C80.5495529,85.9225046 79.5495872,87.3751182 78.1265592,87.2604381 L77.3958151,88.0122294 C74.5882192,86.0371846 66.6269541,85.2216822 63.6911575,83.0809885 C62.1655689,83.2976063 62.4988908,82.087095 61.2040635,81.7812816 C54.0632831,79.5641346 51.2428671,76.3913207 45.6661356,73.8173913 C42.9611003,71.358142 40.2176047,68.0706481 36.3587629,66.9748168 L34.3716517,65.9426966 C32.5768415,62.7571405 28.8974807,62.6424604 27.1411308,59.4314199 C25.5642618,59.3294821 24.8976181,57.0613661 22.8720466,57.2652417 C21.9233612,54.9334146 18.705523,54.3090456 16.936353,52.2830319 L15.0646224,50.9068717 C13.2826324,48.7024669 9.35969017,49.3395781 8.62894603,46.0138575 C6.85977602,44.6504395 6.01365124,41.38843 3.39835644,40.1906609 C3.69321811,37.2599493 0.206158383,36.8139714 0.462559834,33.7940642 C0.0010372227,30.7614148 3.02657434,28.9647612 2.8599134,26.059534 C4.09064036,23.3964091 9.9494135,23.0778534 12.4365076,21.8545999 L16.3466297,19.1659905" id="path3297"></path>
            </g>
            <g id="g3299" transform="translate(168.500000, 276.000000) scale(-1, 1) rotate(-180.000000) translate(-168.500000, -276.000000) translate(129.000000, 225.000000)" fill="#231F20">
                <path d="M0,51.9502564 C0,14.8991574 20.1215785,0.267675897 39.491675,0.267675897 C56.5295859,0.267675897 78.9833499,12.2946005 78.9833499,50.9288615 C78.9833499,88.0054954 58.1362026,101.768791 39.491675,101.768791 C19.9920126,101.768791 0,85.5413803 0,51.9502564 M23.205246,51.0820708 C23.205246,70.4758059 27.1570048,82.3495213 39.491675,82.3495213 C52.9924378,82.3495213 55.8040171,68.1649 55.8040171,51.0820708 C55.8040171,27.3601749 50.0642494,19.6869459 39.491675,19.6869459 C27.0015258,19.6869459 23.205246,31.3819172 23.205246,51.0820708" id="path3301"></path>
            </g>
            <g id="g3303" transform="translate(262.297606, 277.125346) scale(-1, 1) rotate(-180.000000) translate(-262.297606, -277.125346) translate(223.950003, 227.017811)" fill="#231F20">
                <polyline id="path3305" points="3.90581791e-15 99.905598 22.458913 99.905598 22.458913 51.8388502 22.7401287 51.8388502 47.4998979 99.905598 69.9460283 99.905598 45.3140845 52.710693 76.1839051 0.695009943 51.1173551 0.695009943 22.7401287 48.6335456 22.458913 48.6335456 22.458913 0.695009943 -1.7707677e-15 0.695009943"></polyline>
            </g>
            <g id="g3307" transform="translate(341.500000, 276.500000) scale(-1, 1) rotate(-180.000000) translate(-341.500000, -276.500000) translate(303.000000, 226.000000)" fill="#231F20">
                <polyline id="path3309" points="28.0689655 46.0701754 0.418758621 100.076825 24.6642759 100.076825 39.7403448 69.5021754 52.1855172 100.076825 76.2633793 100.076825 51.2956552 46.0701754 51.2956552 0.670675439 28.0689655 0.670675439"></polyline>
            </g>
            <g id="g3311" transform="translate(424.380143, 276.102743) scale(-1, 1) rotate(-180.000000) translate(-424.380143, -276.102743) translate(384.498635, 224.972606)" fill="#231F20">
                <path d="M0,52.0828189 C0,14.9371759 20.0683745,0.268358931 39.3877363,0.268358931 C56.33092,0.268358931 78.7496447,12.3259729 78.7496447,51.0588177 C78.7496447,88.2300607 57.9580855,102.028477 39.3877363,102.028477 C19.9263204,102.028477 0,85.7596578 0,52.0828189 M23.1289953,51.2124179 C23.1289953,70.6556404 27.093597,82.5596541 39.3877363,82.5596541 C52.8441368,82.5596541 55.6206493,68.3388377 55.6206493,51.2124179 C55.6206493,27.4299904 49.9126561,19.7371815 39.3877363,19.7371815 C26.9386289,19.7371815 23.1289953,31.461995 23.1289953,51.2124179" id="path3313"></path>
            </g>
        </g>
    </g>
</svg>