<svg width="66" height="23" viewBox="0 0 66 23" fill="none" xmlns="http://www.w3.org/2000/svg">
    <g clip-path="url(#clip0_102:45)">
        <path d="M23.4191 17.9341L18.8551 13.3701C17.9013 12.4164 17.9826 12.4501 16.6317 12.4501H8.07262C6.72097 12.4501 6.80224 12.4171 5.84927 13.3701L1.28528 17.9341C2.32004 20.0216 3.92405 21.7739 5.91214 22.9888L11.1692 17.7317C11.6476 17.2533 11.8592 17.0678 12.1191 16.988C12.1931 16.9619 12.2707 16.9474 12.3491 16.9451C12.4276 16.9472 12.5052 16.9617 12.5791 16.988C12.839 17.0647 13.0506 17.2533 13.529 17.7317L18.7861 22.9888C20.7765 21.7749 22.3828 20.0225 23.4191 17.9341Z" fill="black"/>
        <path d="M6.50942 12.0014C6.85442 11.6296 6.80612 11.3114 7.14345 10.4389C7.54971 9.38753 8.26466 8.4837 9.19428 7.84629C10.1239 7.20889 11.2247 6.86776 12.3518 6.86776C13.479 6.86776 14.5798 7.20889 15.5094 7.84629C16.439 8.4837 17.154 9.38753 17.5602 10.4389C17.8975 11.3145 17.8492 11.6296 18.1935 12.0014C18.5377 12.3732 18.8835 12.4491 19.9783 12.4491H24.7033C24.7161 10.8189 24.4061 9.20232 23.7912 7.6925C23.1762 6.18268 22.2684 4.80954 21.1202 3.65224C19.972 2.49495 18.6061 1.5764 17.1011 0.949559C15.5962 0.322723 13.9821 0 12.3518 0C10.7216 0 9.10745 0.322723 7.60252 0.949559C6.0976 1.5764 4.73164 2.49495 3.58343 3.65224C2.43522 4.80954 1.52746 6.18268 0.912496 7.6925C0.297536 9.20232 -0.0124603 10.8189 0.000383367 12.4491H4.72307C5.82171 12.4491 6.17438 12.3633 6.50942 12.0014ZM59.1475 5.67331C55.3693 5.67331 52.2958 8.71009 52.2958 12.443C52.2958 16.1759 55.3693 19.2127 59.1475 19.2127C62.9256 19.2127 66 16.1759 66 12.443C66 8.71009 62.9264 5.67331 59.1475 5.67331ZM59.1628 15.9896C58.4613 15.9898 57.7755 15.7819 57.1921 15.3922C56.6088 15.0026 56.1541 14.4487 55.8856 13.8006C55.617 13.1525 55.5467 12.4393 55.6835 11.7513C55.8204 11.0632 56.1582 10.4312 56.6542 9.93517C57.1503 9.43912 57.7823 9.10133 58.4703 8.9645C59.1584 8.82768 59.8716 8.89798 60.5196 9.16651C61.1677 9.43504 61.7216 9.88974 62.1113 10.4731C62.5009 11.0564 62.7088 11.7423 62.7087 12.4438C62.7075 13.3838 62.3335 14.285 61.6688 14.9497C61.0041 15.6144 60.1029 15.9884 59.1628 15.9896ZM47.1368 7.09165V18.8363H50.3438V6.00528H48.2232C48.0669 5.99665 47.9102 6.01216 47.7586 6.05128C47.6231 6.09307 47.4998 6.16738 47.3996 6.26774C47.2994 6.3681 47.2252 6.49145 47.1836 6.62705C47.1442 6.77858 47.1284 6.9353 47.1368 7.09165ZM31.4699 6.00528V18.8363H33.599C33.7553 18.8449 33.912 18.8294 34.0636 18.7903C34.1993 18.7487 34.3228 18.6745 34.4232 18.5741C34.5235 18.4737 34.5978 18.3503 34.6393 18.2145C34.6781 18.0631 34.6936 17.9067 34.6853 17.7507V10.9541L41.0364 18.1961C41.2342 18.4215 41.3991 18.5963 41.6567 18.7136C41.9143 18.8309 42.1542 18.8386 42.4548 18.8386H44.7939V6.00528H42.6648C42.5085 5.99665 42.3518 6.01216 42.2002 6.05128C42.0645 6.09271 41.9411 6.1669 41.8408 6.26731C41.7405 6.36772 41.6665 6.49126 41.6252 6.62705C41.5858 6.77858 41.57 6.9353 41.5785 7.09165V13.8897L35.2281 6.64621C35.0296 6.42005 34.8647 6.24524 34.6071 6.12871C34.3495 6.01218 34.1096 6.00298 33.809 6.00298L31.4699 6.00528Z" fill="black"/>
    </g>
    <defs>
        <clipPath id="clip0_102:45">
            <rect width="66" height="22.9888" fill="white"/>
        </clipPath>
    </defs>
</svg>
