<svg width="160" height="26" viewBox="0 0 160 26" fill="none" xmlns="http://www.w3.org/2000/svg">
<path d="M153.65 4.97465H152.894V1.402H151.538V0.710938H155.006V1.402H153.65V4.97465Z" fill="black"/>
<path d="M157.901 3.9185H157.875L156.545 1.92355V4.97465H155.802V0.710938H156.597L157.901 2.73196L159.205 0.710938H160V4.97465H159.257V1.91051L157.901 3.9185Z" fill="black"/>
<path d="M146.518 0.710938H141.485L128.016 25.2762H133.518L144.014 5.52228L154.485 25.2762H159.987L146.518 0.710938Z" fill="black"/>
<path d="M127.377 20.4257H108.575V0.710938H103.777V25.2762H124.717L127.377 20.4257Z" fill="black"/>
<path d="M21.9314 25.2762L4.60272 7.16518V25.2762H0V0.710938H5.17643L22.0357 18.496V0.710938H26.6775V25.2892H21.9314V25.2762Z" fill="black"/>
<path d="M31.8408 25.2762V0.710938H36.6261V25.2892H31.8408V25.2762Z" fill="black"/>
<path d="M63.8381 25.2762L54.1633 15.6274L46.7702 22.2772V25.2762H41.9067V0.710938H46.7702V16.2142L63.8512 0.710938H70.8139L57.4882 12.6415L70.7357 25.2892H63.8381V25.2762Z" fill="black"/>
<path d="M79.2893 25.2761C77.7898 25.2761 76.5511 25.1457 75.5732 24.8849C74.5953 24.6241 73.8129 24.1808 73.2132 23.568C72.6134 22.9552 72.1961 22.1207 71.9614 21.1036C71.7267 20.0866 71.6094 18.8218 71.6094 17.3224V8.67759C71.6094 7.17812 71.7267 5.91335 71.9614 4.89632C72.1961 3.86625 72.6134 3.0448 73.2132 2.43197C73.8129 1.81914 74.5953 1.37582 75.5732 1.11504C76.5511 0.854266 77.7898 0.723877 79.2893 0.723877H92.2369C93.6842 0.723877 94.9098 0.854266 95.8878 1.11504C96.8787 1.37582 97.661 1.81914 98.2608 2.43197C98.8606 3.0448 99.2779 3.87929 99.5256 4.89632C99.7733 5.92639 99.9037 7.17812 99.9037 8.67759V17.3224C99.9037 18.8218 99.7733 20.0866 99.5256 21.1036C99.2779 22.1337 98.8476 22.9552 98.2608 23.568C97.661 24.1808 96.8787 24.6241 95.8878 24.8849C94.8968 25.1457 93.6842 25.2761 92.2369 25.2761H79.2893ZM95.1315 8.70367C95.1315 7.49105 94.9229 6.6696 94.4926 6.22628C94.0623 5.78296 93.3191 5.5613 92.2369 5.5613H79.3023C78.2331 5.5613 77.4769 5.78296 77.0466 6.22628C76.6163 6.6696 76.4077 7.49105 76.4077 8.70367V17.3224C76.4077 18.535 76.6163 19.3564 77.0336 19.7867C77.4508 20.217 78.207 20.4256 79.3023 20.4256H92.2369C93.3321 20.4256 94.0884 20.217 94.5056 19.7867C94.9229 19.3564 95.1315 18.535 95.1315 17.3224V8.70367Z" fill="black"/>
</svg>
