<svg width="160" height="41" viewBox="0 0 160 41" fill="none" xmlns="http://www.w3.org/2000/svg">
    <g clip-path="url(#clip0_41_500)">
        <g clip-path="url(#clip1_41_500)">
            <path d="M0 3.84895H3.96027L11.0577 12.6597V3.84895H15.0096V18.7134H10.9358L3.96027 9.84542V18.7134H0V3.84895Z" fill="black"/>
            <path d="M28.3924 14.3864C29.2038 13.5704 29.6212 12.5042 29.6212 11.2026C29.6212 10.0007 29.2038 8.99171 28.3724 8.17736C27.5409 7.36137 26.4907 6.95419 25.2419 6.95419C23.9747 6.95419 22.9429 7.38099 22.1114 8.19534C21.2983 9.01133 20.8826 10.0579 20.8826 11.3203C20.8826 12.5811 21.2799 13.6097 22.093 14.4256C22.8844 15.2204 23.9346 15.6276 25.2218 15.6276C26.5108 15.6276 27.5593 15.2204 28.3924 14.3864ZM19.238 16.9864C17.6536 15.4722 16.8789 13.5704 16.8789 11.2614C16.8789 8.93448 17.6937 7.01306 19.3382 5.49882C20.9427 4.04181 22.9045 3.30594 25.2619 3.30594C27.6194 3.30594 29.6212 4.06306 31.2257 5.57567C32.8302 7.07029 33.6232 8.93448 33.6232 11.1273C33.6232 13.4936 32.8101 15.4542 31.1856 17.0061C29.5812 18.5007 27.5993 19.2578 25.2419 19.2578C22.8026 19.2578 20.8041 18.5007 19.238 16.9864Z" fill="black"/>
            <path d="M40.9293 10.5437C42.2966 10.5437 42.9695 9.92227 42.9695 8.68112C42.9695 7.43996 42.3167 6.81693 40.9693 6.81693H39.7355V10.5437H40.9293ZM35.7786 3.84895H41.8208C43.3285 3.84895 44.5356 4.25776 45.5056 5.0525C46.4957 5.9061 47.0132 7.05077 47.0132 8.50615C47.0132 10.5633 46.14 11.9222 44.397 12.5632L48.4591 18.7134H43.7225L40.5336 13.474H39.7355V18.7134H35.7786V3.84895Z" fill="black"/>
            <path d="M52.1683 7.7245H48.9561V3.84732H59.3376V7.7245H56.1236V18.7134H52.1683V7.7245Z" fill="black"/>
            <path d="M61.835 3.84829H65.7919V9.10072H71.3483V3.84829H75.3069V18.7144H71.3483V12.9779H65.7919V18.7144H61.835V3.84829Z" fill="black"/>
            <path d="M83.4129 10.5437C84.7786 10.5437 85.4531 9.92227 85.4531 8.68112C85.4531 7.43996 84.8003 6.81693 83.4513 6.81693H82.2191V10.5437H83.4129ZM78.2622 3.84895H84.3045C85.8104 3.84895 87.0192 4.25776 87.9892 5.0525C88.9793 5.9061 89.4952 7.05077 89.4952 8.50615C89.4952 10.5633 88.6237 11.9222 86.8806 12.5632L90.9427 18.7134H86.2061L83.0172 13.474H82.2191V18.7134H78.2622V3.84895Z" fill="black"/>
            <path d="M103.024 14.3864C103.835 13.5704 104.251 12.5042 104.251 11.2026C104.251 10.0007 103.835 8.99171 103.002 8.17736C102.171 7.36137 101.121 6.95419 99.8718 6.95419C98.6063 6.95419 97.5728 7.38099 96.7413 8.19534C95.9316 9.01133 95.5142 10.0579 95.5142 11.3203C95.5142 12.5811 95.9099 13.6097 96.723 14.4256C97.5143 15.2204 98.5662 15.6276 99.8534 15.6276C101.142 15.6276 102.191 15.2204 103.024 14.3864ZM93.8713 16.9864C92.2835 15.4722 91.5105 13.5704 91.5105 11.2614C91.5105 8.93448 92.3253 7.01306 93.9698 5.49882C95.5743 4.04181 97.536 3.30594 99.8935 3.30594C102.253 3.30594 104.251 4.06306 105.856 5.57567C107.46 7.07029 108.255 8.93448 108.255 11.1273C108.255 13.4936 107.442 15.4542 105.817 17.0061C104.213 18.5007 102.229 19.2578 99.8718 19.2578C97.4342 19.2578 95.4357 18.5007 93.8713 16.9864Z" fill="black"/>
            <path d="M115.997 10.6794C117.562 10.6794 118.335 10.0188 118.335 8.68112C118.335 7.40072 117.582 6.77932 116.036 6.77932H114.685V10.6794H115.997ZM110.726 3.84895H117.503C118.969 3.84895 120.158 4.31336 121.009 5.2847C121.864 6.17755 122.278 7.37946 122.278 8.83647C122.278 10.233 121.864 11.358 121.009 12.2116C120.178 13.0848 119.029 13.5329 117.622 13.5329H114.685V18.7134H110.726V3.84895Z" fill="black"/>
            <path d="M19.099 35.7286C17.6331 34.2144 16.8801 32.3126 16.8801 30.0429C16.8801 27.8108 17.6331 25.9286 19.099 24.3947C20.6233 22.8249 22.5066 22.0481 24.7673 22.0481C27.8176 22.0481 30.0949 23.2893 31.6209 25.7732L28.4521 27.4821C28.3736 27.2875 28.2116 27.0733 27.9746 26.8214C27.1247 25.891 26.0328 25.4249 24.7255 25.4249C23.4182 25.4249 22.4465 25.9286 21.7937 26.9179C21.2394 27.7519 20.9606 28.8393 20.9606 30.1982C20.9606 31.5751 21.2979 32.6429 21.9523 33.4393C22.6669 34.3125 23.7171 34.7393 25.0828 34.7393C25.8759 34.7393 26.6088 34.4875 27.2633 34.0018C27.9746 33.4769 28.3736 32.8571 28.4521 32.1H24.966V28.9947H32.5726V29.8107C32.5726 32.3322 31.9382 34.3125 30.6492 35.7483C29.3019 37.2429 27.3601 38 24.804 38C22.4866 38 20.5866 37.2429 19.099 35.7286Z" fill="black"/>
            <path d="M40.0767 29.2868C41.4424 29.2868 42.117 28.6654 42.117 27.4243C42.117 26.1815 41.4641 25.5601 40.1151 25.5601H38.883V29.2868H40.0767ZM34.926 22.5921H40.9683C42.4742 22.5921 43.683 23.0009 44.6531 23.7957C45.6448 24.6493 46.159 25.7939 46.159 27.2493C46.159 29.3065 45.2875 30.6653 43.5445 31.3064L47.6066 37.4565H42.8699L39.681 32.2172H38.883V37.4565H34.926V22.5921Z" fill="black"/>
            <path d="M50.9777 36.7C49.6287 35.7106 48.9358 34.3518 48.9358 32.6446V22.591H52.8977V31.8286C52.8977 33.6143 53.8093 34.5071 55.6342 34.5071C56.4439 34.5071 57.1435 34.2929 57.621 33.8661C58.1135 33.4213 58.3723 32.7999 58.3723 32.0232V22.591H62.3309V32.2178C62.3309 34.0999 61.6748 35.5553 60.3474 36.6035C59.1403 37.534 57.5359 38 55.5524 38C53.7292 38 52.2048 37.5732 50.9777 36.7Z" fill="black"/>
            <path d="M74.1023 30.2739L79.1144 22.5915H79.1211H83.073V37.4575H79.1211V28.7335H79.1144L75.1692 34.797H73.0705L69.1052 28.7335H69.0985V37.4575H65.1316V22.5915H69.0985L74.1023 30.2739Z" fill="black"/>
            <path d="M95.3003 30.2739L100.311 22.5915H100.317H104.271V37.4575H100.317V28.7335H100.311L96.3672 34.797H94.2685L90.3032 28.7335H90.2882L90.2865 37.4575H86.3296V22.5915H90.2949L95.3003 30.2739Z" fill="black"/>
            <path d="M115.735 31.7119L114.13 27.1708L112.506 31.7119H115.735ZM111.918 22.5905H116.449L122.076 37.4565H117.795L116.765 34.7011H111.517L110.506 37.4565H106.283L111.918 22.5905Z" fill="black"/>
            <path d="M124.257 22.5915H128.221L135.201 31.4022V22.5915H139.157V37.4575H135.193L128.218 28.5879V37.4575H124.257V22.5915Z" fill="black"/>
            <path d="M124.257 3.84888V7.72933H156.04V37.4565H160V3.84888H124.257Z" fill="black"/>
        </g>
    </g>
    <defs>
        <clipPath id="clip0_41_500">
            <rect width="160" height="40" fill="white" transform="translate(0 0.610352)"/>
        </clipPath>
        <clipPath id="clip1_41_500">
            <rect width="160" height="35" fill="white" transform="translate(0 3)"/>
        </clipPath>
    </defs>
</svg>
