<svg width="160" height="41" viewBox="0 0 160 41" fill="none" xmlns="http://www.w3.org/2000/svg">
    <g clip-path="url(#clip0_38_805)">
        <path d="M7.704 33.4547H0V7.49355H13.324L28.61 26.8752V7.49355H36.314V33.4547H23.26L7.704 13.7421V33.4547ZM73.174 25.4265C73.174 29.0353 72.53 30.2799 71.464 31.4729C69.83 33.2486 67.452 33.7836 62.87 33.7836H49.716C45.134 33.7836 42.752 33.2486 41.12 31.4729C40.054 30.2799 39.41 29.0353 39.41 25.4265V15.4186C39.41 11.8118 40.054 10.5692 41.12 9.37424C42.754 7.5966 45.134 7.06152 49.716 7.06152H62.87C67.452 7.06152 69.83 7.5966 71.464 9.37424C72.53 10.5692 73.174 11.8118 73.174 15.4186V25.4265ZM62.546 27.2062C64.306 27.2062 64.926 27.1031 65.348 26.7226C65.742 26.3679 65.916 25.9101 65.916 24.3841V16.461C65.916 14.9351 65.742 14.4813 65.348 14.1245C64.926 13.7421 64.306 13.641 62.546 13.641H50.038C48.278 13.641 47.658 13.7421 47.238 14.1245C46.842 14.4813 46.668 14.9351 46.668 16.461V24.3841C46.668 25.9101 46.842 26.3679 47.238 26.7226C47.658 27.1031 48.278 27.2062 50.038 27.2062H62.546ZM84.37 7.49355V33.4547H76.32V7.49355H84.37ZM97.97 7.49355H108.598L94.254 19.6358L110.432 33.4547H99.06L84.37 19.9153L97.97 7.49355ZM111.916 7.49355H119.968V33.4547H111.916M150.662 33.4547L148.28 28.9323H132.702L130.348 33.4527H121.454L135.724 7.49355H145.732L160 33.4547H150.662ZM135.5 23.2942H145.51L140.504 13.8947L135.5 23.2942Z" fill="#1C4598"/>
    </g>
    <defs>
        <clipPath id="clip0_38_805">
            <rect width="160" height="26.8456" fill="white" transform="translate(0 7)"/>
        </clipPath>
    </defs>
</svg>
