<svg width="160" height="24" viewBox="0 0 160 24" fill="none" xmlns="http://www.w3.org/2000/svg">
    <g clip-path="url(#clip0_38_809)">
        <path fill-rule="evenodd" clip-rule="evenodd" d="M38.9256 7.26025C37.2065 7.26025 35.733 7.87564 34.5051 8.86027V7.50641H30.3301V23.3835H34.6279V13.2911C35.2418 12.4295 36.7153 11.3218 38.5572 11.3218C39.1712 11.3218 39.7852 11.4449 40.2764 11.568V7.50641C39.7852 7.38333 39.294 7.26025 38.9256 7.26025Z" fill="#293E40"/>
        <path fill-rule="evenodd" clip-rule="evenodd" d="M1.9647 18.4579C3.06984 19.4426 4.78895 20.058 6.26247 20.058C7.36761 20.058 8.34996 19.4426 8.34996 18.7041C8.34996 16.2425 0.613968 17.1041 0.613968 12.0579C0.613968 8.98094 3.56101 7.13477 6.63085 7.13477C8.71834 7.13477 10.9286 7.87323 12.0338 8.73478L10.0691 11.8117C9.20952 11.3194 8.22717 10.704 6.99923 10.704C5.7713 10.704 4.91174 11.1963 4.91174 12.0579C4.91174 14.1502 12.6477 13.2887 12.6477 18.8272C12.6477 21.9041 9.70069 23.7503 6.38526 23.7503C4.17498 23.7503 1.8419 23.0118 0 21.658L1.9647 18.4579Z" fill="#293E40"/>
        <path fill-rule="evenodd" clip-rule="evenodd" d="M28.4881 15.2579C28.4881 10.8271 25.4183 7.13477 20.9977 7.13477C16.3316 7.13477 13.2617 11.0733 13.2617 15.381C13.2617 20.4272 16.8227 23.6272 21.4889 23.6272C23.9448 23.6272 26.4006 22.6426 27.9969 20.7964L25.5411 18.3349C24.8043 19.1964 23.3308 20.181 21.6117 20.181C19.4014 20.181 17.5595 18.581 17.3139 16.3656H28.2425C28.4881 16.1195 28.4881 15.7502 28.4881 15.2579ZM17.6823 13.4117C17.9279 11.9348 19.4014 10.581 21.1205 10.581C22.8396 10.581 24.0676 11.9348 24.3131 13.4117H17.6823Z" fill="#293E40"/>
        <path fill-rule="evenodd" clip-rule="evenodd" d="M58.9408 7.50684L51.696 23.3839H48.749L41.5042 7.50684H45.8019L50.2225 17.23L54.5203 7.50684H58.9408Z" fill="#293E40"/>
        <path fill-rule="evenodd" clip-rule="evenodd" d="M62.502 -0.000976562C64.0983 -0.000976562 65.3262 1.2298 65.3262 2.70674C65.3262 4.30675 64.0983 5.41446 62.502 5.41446C60.9057 5.41446 59.8005 4.18368 59.8005 2.70674C59.8005 1.10673 60.9057 -0.000976562 62.502 -0.000976562Z" fill="#293E40"/>
        <path d="M64.7123 7.50684H60.4146V23.3839H64.7123V7.50684Z" fill="#293E40"/>
        <path fill-rule="evenodd" clip-rule="evenodd" d="M82.149 20.058C80.3071 22.5195 77.974 23.6272 75.027 23.6272C70.1152 23.6272 66.5542 19.9349 66.5542 15.381C66.5542 10.704 70.238 7.13477 75.027 7.13477C77.8512 7.13477 80.1843 8.48862 81.6578 10.3348L78.8336 12.9194C77.974 11.8117 76.7461 11.0733 75.2725 11.0733C72.8167 11.0733 70.9748 13.0425 70.9748 15.381C70.9748 17.8426 72.6939 19.6887 75.2725 19.6887C76.9916 19.6887 78.3424 18.7041 79.0791 17.5964L82.149 20.058Z" fill="#293E40"/>
        <path fill-rule="evenodd" clip-rule="evenodd" d="M97.4982 20.7964C95.9018 22.6426 93.446 23.6272 90.9901 23.6272C86.3239 23.6272 82.7629 20.4272 82.7629 15.381C82.7629 10.9502 85.71 7.13477 90.4989 7.13477C94.7967 7.13477 97.9893 10.8271 97.9893 15.2579C97.9893 15.7502 97.9893 16.1195 97.8665 16.4887H86.8151C87.0607 18.7041 88.9026 20.3041 91.1129 20.3041C92.832 20.3041 94.3055 19.3195 95.0423 18.4579L97.4982 20.7964ZM93.5688 13.4117C93.446 12.0579 92.218 10.581 90.3761 10.581C88.657 10.581 87.1835 11.9348 86.9379 13.4117H93.5688Z" fill="#293E40"/>
        <path fill-rule="evenodd" clip-rule="evenodd" d="M99.5854 23.381V7.50397H103.638V8.85783C104.866 7.8732 106.339 7.25781 108.058 7.25781C110.268 7.25781 112.233 8.24244 113.584 9.84245C114.566 11.0732 115.303 12.6732 115.303 15.381V23.5041H111.005V15.0117C111.005 13.4117 110.637 12.5502 110.023 12.0579C109.409 11.4425 108.672 11.0732 107.567 11.0732C105.848 11.0732 104.374 12.1809 103.638 13.0425V23.381H99.5854Z" fill="#293E40"/>
        <path fill-rule="evenodd" clip-rule="evenodd" d="M126.232 7.13721C121.074 7.13721 117.022 11.1988 117.022 16.3681C117.022 19.0758 118.127 21.5373 119.846 23.2604C120.46 23.8758 121.566 23.8758 122.302 23.3835C123.285 22.522 124.758 22.0296 126.232 22.0296C127.828 22.0296 129.056 22.522 130.161 23.3835C130.898 23.9989 131.88 23.8758 132.617 23.1373C134.336 21.4143 135.441 19.0758 135.441 16.3681C135.318 11.3219 131.266 7.13721 126.232 7.13721ZM126.109 21.1681C123.285 21.1681 121.443 19.0758 121.443 16.4911C121.443 13.9065 123.285 11.8142 126.109 11.8142C128.933 11.8142 130.775 13.9065 130.775 16.4911C130.775 19.0758 128.933 21.1681 126.109 21.1681Z" fill="#81B5A1"/>
        <path fill-rule="evenodd" clip-rule="evenodd" d="M134.336 7.50684H138.511L141.949 16.6146L145.388 7.50684H148.949L152.264 16.6146L155.702 7.50684H160L153.738 23.3839H150.545L147.107 14.3992L143.791 23.3839H140.599L134.336 7.50684Z" fill="#293E40"/>
    </g>
    <defs>
        <clipPath id="clip0_38_809">
            <rect width="160" height="23.7838" fill="white"/>
        </clipPath>
    </defs>
</svg>

