<?xml version="1.0" encoding="UTF-8"?>
<svg width="512px" height="512px" viewBox="0 0 512 512" version="1.1" xmlns="http://www.w3.org/2000/svg" xmlns:xlink="http://www.w3.org/1999/xlink">
    <!-- Generator: Sketch 49 (51002) - http://www.bohemiancoding.com/sketch -->
    <title>NQ</title>
    <desc>Created with Sketch.</desc>
    <defs></defs>
    <g id="NQ" stroke="none" stroke-width="1" fill="none" fill-rule="evenodd">
        <g id="nasdaq" transform="translate(-13.000000, -13.000000)" fill="#48A2CC" fill-rule="nonzero">
            <path d="M375.223909,333.323182 C378.168545,328.898182 381.097091,320.096455 385.522091,317.135727 L388.466727,317.135727 C398.764909,314.175 417.880909,309.782182 435.532636,303.909 L435.532636,295.075091 C414.952364,302.428636 391.411364,308.301818 366.406091,312.710727 C363.461455,312.710727 360.532909,314.191091 357.588273,314.191091 C354.643636,324.505364 342.881182,328.898182 335.527636,321.544636 C326.693727,312.710727 334.047273,298.035818 345.825818,296.555455 C350.234727,296.555455 354.643636,299.484 356.124,303.909 C359.068636,302.428636 362.013273,302.428636 364.941818,302.428636 C389.947091,298.035818 413.472,292.114364 432.604091,284.760818 C432.604091,281.832273 432.604091,280.368 431.123727,277.407273 C413.472,284.760818 391.411364,290.666182 367.886455,295.075091 L366.406091,295.075091 C361.997182,292.114364 354.643636,289.201909 348.754364,286.241182 C339.936545,287.721545 331.102636,289.201909 320.820545,289.201909 C322.284818,317.135727 323.765182,343.605273 323.765182,370.058727 C351.715091,367.130182 378.184636,362.737364 401.709545,356.832 C406.118455,346.549909 407.598818,345.085636 410.527364,337.716 C410.527364,336.235636 411.991636,336.235636 413.472,336.235636 C422.305909,333.307091 429.643364,331.842818 438.477273,328.882091 C438.477273,323.008909 437.013,318.6 437.013,314.175 C422.305909,318.6 406.134545,323.008909 391.427455,327.401727 C388.482818,330.362455 385.554273,334.755273 382.609636,339.180273 C384.456767,341.189288 385.504264,343.805168 385.554273,346.533818 C384.09,358.280182 370.847182,365.649818 363.493636,358.280182 C354.627545,349.478455 361.981091,333.323182 375.223909,333.323182 Z M438.461182,350.958818 C429.643364,353.919545 419.345182,356.832 409.047,359.792727 C409.047,362.753455 407.582727,365.665909 406.102364,368.626636 C407.582727,371.555182 407.582727,374.499818 407.582727,377.428364 C406.102364,389.206909 391.395273,396.560455 385.522091,387.742636 C379.648909,380.389091 388.466727,365.682 397.284545,365.682 C397.284545,364.201636 398.748818,364.201636 398.748818,362.753455 C374.177884,369.037986 349.064883,372.971153 323.749091,374.499818 C323.749091,405.394364 322.284818,433.328182 319.340182,455.356636 C360.516818,452.428091 395.804182,445.074545 425.234455,434.776364 C434.036182,409.787182 438.461182,381.837273 438.461182,350.958818 Z M497.273455,203.887909 C489.919909,189.180818 486.975273,183.291545 484.046727,175.938 C482.582455,177.418364 482.582455,178.882636 481.102091,180.346909 C488.455636,192.109364 494.344909,205.352182 498.753818,218.578909 C498.753818,212.721818 497.273455,208.312909 497.273455,203.887909 Z M503.162727,242.119909 C501.698455,240.655636 501.698455,237.711 501.698455,236.246727 C488.455636,250.953818 464.930727,265.660909 435.516545,275.959091 C436.980818,278.887636 436.980818,280.351909 436.980818,283.296545 C466.395,271.534091 489.919909,258.307364 503.162727,242.119909 Z" id="Shape"></path>
            <path d="M507.571636,211.241455 C502.87779,198.915292 496.964531,187.088774 489.919909,175.938 L489.919909,174.473727 C489.919909,174.473727 488.455636,173.009455 488.455636,168.600545 C486.991364,170.064818 486.991364,171.545182 485.511,173.009455 C492.864545,183.307636 494.328818,187.716545 500.218091,200.943273 C500.218091,202.407545 500.218091,202.407545 501.682364,202.407545 C501.682364,203.887909 503.146636,217.114636 504.627,231.821727 L503.162727,233.318182 C504.627,234.782455 504.627,236.262818 506.107364,239.191364 C506.107364,237.727091 507.587727,236.246727 507.587727,234.782455 L507.571636,211.241455 Z M438.461182,339.196364 C431.107636,342.124909 423.754091,343.589182 416.400545,346.549909 C414.936273,349.478455 413.455909,350.942727 411.991636,353.903455 C422.289818,350.942727 431.107636,348.030273 438.461182,345.069545 L438.461182,339.196364 Z M419.345182,218.595 C425.234455,234.766364 429.643364,249.473455 434.052273,265.644818 C463.466455,255.346636 485.527091,240.639545 497.289545,225.948545 C492.800353,210.495361 486.377536,195.670982 478.173545,181.827273 C466.395,196.534364 445.814727,208.312909 419.345182,218.595 Z M185.512091,56.8330909 C182.567455,58.3134545 178.158545,59.7777273 175.213909,61.242 C178.158545,67.1312727 185.512091,73.0044545 195.794182,77.4133636 C198.738818,75.9490909 201.683455,73.0044545 204.612,71.5401818 C197.258455,67.1312727 191.385273,64.1866364 188.440636,59.7777273 C186.976364,58.3134545 186.976364,56.8330909 185.512091,56.8330909 Z M191.401364,86.2472727 C186.992455,90.6561818 181.103182,95.0650909 176.678182,99.474 C188.440636,105.363273 203.163818,108.291818 219.335182,111.236455 L219.335182,95.049 C209.037,92.1204545 198.738818,89.1758182 191.401364,86.2472727 Z M164.915727,65.6509091 C159.026455,68.5955455 153.153273,73.0044545 147.264,75.9490909 C151.672909,84.7669091 160.506818,92.1204545 173.733545,98.0097273 C179.622818,93.6008182 184.031727,89.1919091 188.440636,84.7669091 C176.678182,78.8937273 169.324636,73.0044545 164.915727,65.6509091 Z M125.219455,171.545182 C147.280091,181.843364 173.749636,189.196909 204.628091,193.605818 C204.628091,190.677273 206.092364,187.732636 206.092364,183.307636 C176.678182,180.363 150.208636,173.009455 129.628364,164.191636 C128.148,165.655909 126.683727,168.600545 125.219455,171.545182 Z M350.218636,274.494818 L351.682909,274.494818 C356.091818,277.423364 363.445364,280.368 367.854273,283.312636 C391.379182,278.903727 411.975545,274.494818 429.611182,267.141273 C426.666545,250.969909 420.793364,236.262818 416.368364,220.091455 C388.434545,230.389636 353.131091,237.743182 316.363364,240.671727 C317.843727,253.914545 319.308,265.677 319.308,278.903727 C329.622273,277.407273 339.920455,275.959091 350.218636,274.494818 Z M107.567727,209.777182 C131.092636,220.075364 161.971091,228.893182 195.794182,233.318182 C198.738818,223.02 200.203091,212.721818 201.683455,203.904 C170.805,199.495091 142.855091,192.141545 119.330182,181.843364 C114.921273,190.661182 110.512364,199.479 107.567727,209.777182 Z M184.031727,27.4189091 C178.158545,30.3635455 170.805,33.3081818 164.915727,36.2528182 L170.805,36.2528182 C172.269273,34.7724545 175.213909,34.7724545 176.678182,33.3081818 L179.622818,33.3081818 C176.678182,36.2528182 175.213909,37.7170909 172.269273,39.1974545 C198.738818,33.3081818 223.744091,30.3796364 251.694,33.3081818 C254.638636,33.3081818 263.456455,33.3081818 266.401091,34.7724545 C263.456455,33.3081818 256.102909,31.8278182 253.174364,30.3635455 C229.633364,21.5296364 206.092364,21.5296364 184.031727,27.4189091 Z M214.910182,65.6509091 C222.263727,70.0598182 232.561909,73.0044545 244.324364,74.4687273 C248.515323,63.5909434 253.941305,53.2302873 260.495727,43.5902727 L267.849273,36.2367273 C264.904636,37.701 260.495727,39.1813636 257.551091,40.6456364 C242.860091,47.9991818 228.153,55.3527273 214.910182,65.6509091 Z M273.738545,43.5902727 C281.092091,61.242 289.926,84.7669091 295.799182,114.181091 C316.379455,112.700727 335.511545,108.291818 351.682909,103.882909 C347.274,99.474 344.313273,95.049 341.384727,92.1204545 C335.495455,93.6008182 328.141909,96.5293636 320.788364,98.0097273 C320.788364,99.474 319.324091,100.954364 319.324091,102.418636 C314.915182,105.363273 309.025909,105.363273 306.081273,100.954364 C301.672364,96.5454545 301.672364,92.1204545 304.617,87.7115455 C307.561636,84.7669091 313.434818,84.7669091 317.859818,89.1758182 C323.733,87.7115455 329.622273,86.2311818 334.031182,84.7669091 C318.371453,67.6513004 299.98899,53.2432771 279.627818,42.126 C276.683182,40.6617273 272.274273,37.7170909 269.329636,36.2528182 C270.81,37.7170909 272.274273,42.126 273.738545,43.5902727 Z" id="Shape"></path>
            <path d="M263.456455,43.5902727 C256.902033,53.2302873 251.476051,63.5909434 247.285091,74.4687273 C250.213636,74.4687273 256.102909,75.9490909 260.511818,75.9490909 C261.976091,73.0044545 263.456455,71.5401818 267.865364,71.5401818 C272.274273,71.5401818 276.683182,74.4848182 276.683182,78.8937273 C276.683182,83.3026364 273.738545,87.7115455 267.865364,87.7115455 C263.456455,87.7115455 260.511818,86.2472727 259.031455,83.3026364 C253.158273,83.3026364 248.733273,81.8222727 242.860091,81.8222727 C239.915455,90.6400909 235.506545,100.938273 231.097636,111.236455 C232.561909,111.236455 232.561909,112.700727 234.042273,114.181091 C251.694,115.645364 272.274273,117.125727 292.870636,114.181091 C286.981364,86.2472727 279.627818,62.7062727 272.274273,45.0706364 C270.81,42.126 269.329636,39.1813636 269.329636,36.2528182 C266.385,39.1813636 264.920727,42.126 263.456455,43.5902727 Z M197.274545,52.4080909 C198.738818,56.817 204.628091,61.2259091 211.981636,65.6509091 C224.199085,56.2027441 237.537695,48.3011846 251.694,42.126 C254.638636,40.6617273 264.936818,36.2528182 266.401091,36.2528182 C263.456455,36.2528182 254.638636,37.7170909 251.694,37.7170909 C232.561909,40.6456364 214.910182,45.0706364 197.274545,52.4080909 Z M207.556636,73.0044545 C204.612,74.4687273 201.683455,77.4133636 198.738818,78.8937273 C207.408516,82.2751068 216.242868,85.2181006 225.208364,87.7115455 L226.688727,87.7115455 L226.688727,108.291818 L228.153,109.756091 C232.561909,99.4579091 235.506545,89.1758182 239.915455,81.8222727 C228.153,78.8937273 216.390545,75.9490909 207.556636,73.0044545 Z" id="Shape"></path>
            <path d="M170.805,42.126 C167.860364,46.5349091 166.396091,49.4795455 166.396091,53.8884545 C166.396091,52.4080909 166.396091,52.4080909 167.876455,52.4080909 C169.340727,52.4080909 170.821091,50.9438182 172.285364,50.9438182 C172.285364,53.8884545 172.285364,56.817 173.749636,58.2973636 C178.158545,56.817 181.103182,55.3527273 185.512091,53.8884545 C184.031727,52.4080909 184.031727,49.4795455 184.031727,46.5349091 L178.158545,46.5349091 C179.622818,43.5902727 201.683455,37.7170909 204.628091,39.1813636 C203.163818,40.6456364 198.738818,42.126 194.329909,43.5902727 C194.329909,45.0706364 194.329909,47.9991818 195.810273,49.4795455 C214.926273,43.5902727 231.097636,39.1813636 250.213636,36.2528182 C251.694,36.2528182 264.936818,34.7724545 266.385,34.7724545 L256.086818,34.7724545 C228.153,31.8278182 195.794182,34.7724545 170.805,42.126 Z M282.572455,31.8278182 C281.092091,31.8278182 273.738545,33.2920909 270.81,34.7724545 C273.754636,34.7724545 285.517091,33.3081818 286.981364,33.3081818 C316.395545,31.8439091 339.920455,36.2528182 366.39,43.6063636 C363.445364,37.7331818 356.091818,33.3081818 347.274,28.8992727 C326.677636,24.4742727 306.097364,25.9385455 282.572455,31.8278182 Z M378.152455,49.4795455 C381.097091,56.8330909 379.632818,64.1866364 375.207818,71.5401818 L388.434545,80.358 C394.323818,71.5401818 395.788091,64.1866364 391.379182,55.3527273 C386.986364,53.8884545 382.561364,52.4080909 378.152455,49.4795455 Z M376.688182,131.832818 L385.506,145.059545 C389.914909,143.595273 394.323818,142.114909 398.732727,139.186364 C410.495182,145.059545 422.273727,152.429182 434.020091,159.766636 C434.020091,158.302364 434.020091,156.822 435.500455,156.822 C438.445091,155.341636 444.318273,159.766636 448.727182,165.639818 C453.136091,174.457636 451.671818,181.811182 445.782545,180.346909 C441.373636,178.882636 436.964727,172.993364 434.020091,167.104091 L403.141636,149.452364 L389.914909,153.861273 C401.677364,172.977273 410.495182,193.557545 417.848727,214.153909 C444.318273,203.855727 464.898545,192.093273 476.661,177.386182 C460.354615,150.85008 440.5755,126.61187 417.848727,105.315 C409.030909,115.661455 394.339909,124.479273 376.688182,131.832818 Z M361.981091,31.8278182 C360.516818,31.8278182 357.572182,30.3635455 356.091818,30.3635455 C364.909636,34.7724545 372.263182,40.6617273 376.688182,48.0152727 L389.931,52.4241818 C384.041727,45.0706364 375.223909,37.7170909 361.981091,31.8278182 Z M478.157455,134.777455 C478.157455,139.186364 476.677091,143.595273 475.212818,149.484545 L478.157455,161.247 C479.621727,164.191636 481.102091,165.655909 482.566364,168.600545 C484.030636,167.120182 484.030636,164.191636 485.511,162.711273 C484.046727,159.766636 482.566364,158.302364 482.566364,155.341636 C484.030636,152.413091 484.030636,149.468455 484.030636,147.988091 L484.030636,146.523818 C485.494909,147.988091 486.975273,149.468455 488.439545,149.468455 C488.439545,146.523818 488.439545,145.059545 486.975273,142.114909 C484.046727,139.186364 481.102091,137.706 478.157455,134.777455 Z M282.572455,42.126 C301.688455,52.4241818 319.340182,65.6509091 336.975818,83.3187273 C348.738273,78.9098182 357.556091,74.4848182 363.445364,68.6116364 C338.440091,53.9045455 310.506273,43.6063636 284.020636,39.1974545 C281.076,37.7331818 273.722455,36.2528182 270.793909,36.2527743 C273.738545,36.2367273 281.092091,40.6456364 282.572455,42.126 Z M509.052,277.407273 L509.052,270.053727 C494.344909,289.185818 469.339636,302.412545 441.389727,312.694636 C441.389727,317.119636 442.870091,321.528545 442.870091,327.401727 C456.096818,321.528545 469.339636,315.655364 479.637818,309.766091 L479.637818,308.285727 L479.637818,302.412545 C479.637818,302.412545 481.102091,300.932182 482.582455,300.932182 C492.864545,293.594727 503.162727,286.241182 509.052,277.407273 Z M410.511273,96.5454545 C417.864818,87.7276364 419.329091,77.4294545 414.920182,67.1312727 C411.975545,65.667 409.030909,64.1866364 404.622,62.7223636 C401.677364,61.242 398.732727,59.7777273 397.268455,58.3134545 C400.297001,66.8440237 398.622969,76.338351 392.859545,83.3187273 C398.748818,87.7115455 404.622,92.1204545 410.511273,96.5454545 Z M292.870636,442.129909 C275.218909,455.356636 272.274273,456.837 261.992182,464.190545 L260.527909,465.670909 L257.583273,465.670909 C236.986909,465.670909 216.390545,464.190545 197.274545,461.278091 C198.738818,464.206636 198.738818,468.631636 200.219182,471.560182 C219.335182,474.520909 239.915455,475.985182 261.976091,475.985182 C279.627818,465.670909 281.092091,464.206636 289.926,458.317364 L292.870636,458.317364 C300.224182,456.837 307.577727,456.837 314.931273,456.837 C316.395545,433.328182 317.875909,405.394364 317.875909,374.499818 C291.390273,377.428364 264.936818,377.428364 238.451182,375.980182 C235.506545,378.908727 232.561909,380.373 229.633364,381.853364 C229.633364,381.853364 229.633364,383.333727 228.169091,383.333727 L226.704818,383.333727 C213.462,381.853364 201.699545,380.373 189.937091,378.908727 C189.937091,406.842545 191.417455,433.344273 195.826364,453.924545 C214.942364,456.853091 235.538727,458.317364 256.119,458.317364 C272.290364,446.571 273.770727,445.090636 284.052818,437.737091 C278.179636,428.903182 288.461727,418.621091 300.240273,421.549636 C307.593818,421.549636 310.538455,427.422818 310.538455,431.863909 C309.042,439.201364 300.224182,442.129909 292.870636,442.129909 Z" id="Shape"></path>
            <path d="M478.157455,174.473727 C479.621727,174.473727 479.621727,173.009455 481.102091,171.529091 C479.637818,168.584455 478.157455,167.120182 475.228909,162.711273 C475.228909,162.711273 475.228909,161.247 473.764636,161.247 C473.764636,158.302364 469.355727,145.059545 467.875364,142.131 L467.875364,140.666727 C470.82,136.257818 470.82,130.368545 470.82,125.959636 L470.82,124.479273 C481.118182,131.832818 482.582455,131.832818 485.527091,136.241727 C485.527091,134.777455 484.062818,131.832818 484.062818,131.832818 C476.862679,120.252776 467.936644,109.839973 457.593273,100.954364 C459.057545,103.899 459.057545,106.827545 456.112909,111.252545 C457.593273,115.661455 456.112909,118.606091 453.168273,120.070364 C450.223636,123.015 445.814727,121.550727 442.870091,117.125727 C439.925455,112.700727 441.389727,106.827545 444.334364,105.363273 C445.798636,103.899 447.279,103.899 448.743273,103.899 C451.687909,102.418636 453.152182,98.0097273 453.152182,95.0650909 C444.334364,87.7115455 434.036182,80.358 423.738,73.0044545 C428.146909,83.3026364 426.682636,93.6008182 419.329091,103.882909 C442.870091,124.479273 463.450364,148.004182 478.157455,174.473727 Z M50.2197273,168.600545 C45.8108182,159.766636 44.3304545,150.948818 47.2750909,142.114909 C38.4411818,156.838091 32.5519091,168.600545 28.1590909,181.827273 C28.1590909,189.180818 28.1590909,197.998636 32.568,205.352182 C36.9608182,192.125455 42.8661818,180.363 50.2197273,168.600545 Z M156.097909,45.0706364 C159.042545,43.5902727 160.506818,43.5902727 163.451455,42.126 C164.915727,40.6617273 167.860364,39.1813636 170.805,36.2528182 C169.324636,36.2528182 167.860364,37.7170909 167.860364,37.7170909 C164.915727,37.7170909 163.451455,39.1813636 161.971091,39.1813636 C159.026455,40.6456364 156.081818,43.5902727 153.153273,46.5349091 C154.617545,45.0706364 156.097909,45.0706364 156.097909,45.0706364 Z M438.461182,293.594727 C439.941545,296.555455 439.941545,299.467909 439.941545,300.948273 C451.704,296.555455 463.466455,292.114364 475.228909,284.760818 C489.936,277.407273 500.234182,268.605545 507.587727,259.771636 C506.107364,258.307364 506.107364,255.362727 506.107364,252.418091 C491.400273,268.605545 469.339636,281.848364 438.461182,293.594727 Z M511.980545,267.125182 L511.980545,274.494818 C519.334091,265.660909 522.278727,256.843091 523.743,248.009182 C523.743,245.064545 523.743,242.119909 522.278727,237.711 C522.278727,249.473455 517.869818,258.307364 511.980545,267.125182 Z M256.102909,362.737364 C253.158273,365.665909 248.749364,368.610545 244.340455,371.539091 C269.345727,373.019455 294.334909,371.539091 317.875909,370.058727 C317.875909,345.069545 317.875909,317.135727 314.931273,290.666182 L310.522364,290.666182 C306.113455,299.467909 294.351,302.412545 288.461727,293.594727 C281.108182,284.760818 286.997455,270.069818 298.759909,271.534091 C303.168818,271.534091 307.593818,274.478727 310.522364,278.887636 L314.931273,278.887636 C313.467,267.125182 313.467,253.898455 311.986636,242.119909 C275.218909,245.064545 235.522636,243.600273 200.219182,239.175273 C195.918748,263.499235 192.974926,288.043617 191.401364,312.694636 C197.274545,308.301818 203.163818,302.412545 210.517364,296.539364 C209.053091,287.705455 214.926273,278.871545 223.744091,278.871545 C231.097636,280.351909 236.986909,287.705455 235.506545,295.059 C234.042273,305.341091 223.744091,309.766091 216.390545,305.341091 C203.163818,317.119636 198.738818,321.528545 189.921,328.882091 L189.921,348.014182 C194.329909,348.014182 200.219182,349.462364 204.628091,349.462364 C217.870909,337.716 222.279818,333.307091 231.097636,325.953545 C225.208364,317.119636 232.561909,305.341091 244.340455,306.821455 C251.694,306.821455 256.102909,314.175 256.102909,321.528545 C254.638636,330.362455 245.804727,334.755273 238.451182,333.307091 C226.688727,345.053455 223.744091,348.014182 210.517364,359.776636 C210.517364,359.776636 209.053091,359.776636 209.053091,361.257 C207.572727,361.257 207.572727,361.257 206.108455,359.776636 C200.235273,359.776636 195.810273,359.776636 189.937091,358.296273 L189.937091,367.130182 C201.699545,368.610545 214.942364,370.058727 226.704818,370.058727 C234.058364,365.665909 241.411909,359.776636 248.765455,355.383818 C245.820818,346.549909 251.710091,336.251727 263.472545,337.716 C270.826091,337.716 276.715364,345.069545 275.235,352.423091 C275.218909,361.257 264.920727,365.665909 256.102909,362.737364 Z M525.223364,261.252 C523.743,268.605545 519.334091,277.407273 513.460909,284.760818 L513.460909,298.019727 C520.814455,289.185818 523.759091,280.351909 525.223364,272.998364 L525.223364,270.053727 L525.223364,261.252 Z M525.223364,259.771636 C523.743,256.827 523.743,252.418091 523.743,249.473455 C523.743,252.418091 523.743,256.827 525.223364,259.771636 Z M464.930727,348.030273 C467.875364,348.030273 469.339636,350.958818 469.339636,352.423091 C481.102091,346.549909 498.753818,336.235636 510.516273,323.008909 L510.516273,308.301818 C497.273455,323.008909 473.748545,337.716 442.870091,349.478455 C442.870091,380.373 438.461182,408.306818 429.627273,431.847818 C456.096818,421.533545 476.677091,409.787182 489.919909,395.080091 C500.218091,375.964091 506.091273,355.383818 509.035909,333.323182 C500.218091,343.605273 485.511,353.903455 469.323545,362.737364 C464.914636,371.539091 457.561091,377.412273 453.152182,373.019455 C448.743273,365.665909 457.577182,346.549909 464.930727,348.030273 Z M506.107364,178.898727 C504.643091,178.898727 501.698455,173.009455 498.753818,167.136273 C497.289545,164.191636 494.344909,161.263091 491.400273,158.318455 C491.400273,159.782727 489.919909,162.727364 489.919909,164.207727 L492.864545,173.025545 C504.627,195.086182 504.627,196.550455 509.035909,209.793273 C510.500182,209.793273 510.500182,211.273636 510.500182,211.273636 C510.500182,218.627182 511.964455,230.389636 511.964455,243.632455 C510.500182,246.577091 509.019818,248.041364 507.555545,249.505636 C509.019818,252.450273 509.019818,253.914545 509.019818,256.859182 C519.318,245.096727 520.782273,234.798545 520.782273,227.445 L520.782273,224.500364 C517.837636,208.329 516.373364,205.384364 509.019818,181.859455 L504.610909,173.041636 C506.107364,175.954091 507.571636,178.898727 506.107364,178.898727 Z M157.562182,136.241727 C153.153273,139.186364 147.264,143.595273 142.855091,146.539909 C141.374727,146.539909 141.374727,146.539909 141.374727,148.004182 C139.910455,148.004182 139.910455,146.539909 139.910455,146.539909 C138.446182,149.484545 136.965818,152.429182 135.501545,153.893455 C156.081818,162.711273 181.087091,170.064818 209.037,174.473727 C213.445909,158.302364 216.390545,143.595273 222.263727,128.888182 L220.799455,128.888182 C214.910182,127.407818 213.445909,122.998909 216.390545,117.125727 L216.390545,115.661455 C200.219182,112.716818 186.976364,109.772182 175.213909,103.899 L173.733545,103.899 C164.915727,114.197182 156.081818,124.479273 147.264,136.257818 C151.672909,133.313182 154.617545,131.848909 159.026455,128.904273 C161.971091,121.550727 170.788909,114.197182 175.213909,117.141818 C178.158545,118.622182 176.678182,124.495364 172.269273,130.384636 C166.38,137.706 160.506818,139.186364 157.562182,136.241727 Z M379.632818,199.479 L375.223909,195.070091 C356.107909,200.943273 335.511545,203.887909 311.986636,206.832545 C313.564884,216.620685 315.03461,226.426015 316.395545,236.246727 C353.163273,233.302091 386.986364,225.948545 414.936273,215.650364 C406.102364,195.070091 397.284545,174.473727 386.986364,155.341636 C379.632818,158.286273 372.279273,161.230909 363.461455,162.711273 C361.997182,167.120182 359.052545,174.473727 356.107909,178.882636 C356.107909,180.346909 354.643636,180.346909 354.643636,180.346909 C341.416909,183.291545 325.229455,184.755818 309.058091,186.236182 C310.538455,189.180818 310.538455,192.109364 310.538455,195.054 C332.599091,193.573636 353.179364,190.645091 370.831091,186.236182 C370.831091,180.346909 372.295364,175.938 376.720364,175.938 C381.129273,174.473727 387.018545,178.882636 389.963182,186.236182 C392.875636,196.534364 388.450636,202.423636 379.632818,199.479 Z M184.031727,365.665909 L184.031727,358.312364 C155.479318,354.248164 127.401936,347.35414 100.214182,337.732091 L98.7338182,337.732091 C91.3802727,324.505364 88.4356364,317.151818 82.5624545,306.837545 L81.0981818,305.357182 L81.0981818,320.096455 C84.0428182,328.898182 86.9874545,334.771364 92.8606364,343.605273 C119.330182,353.903455 150.208636,361.257 184.031727,365.665909 Z M284.036727,34.7724545 L272.274273,34.7724545 C273.738545,36.2528182 285.517091,37.7170909 288.445636,37.7170909 C316.379455,43.5902727 339.920455,52.4241818 364.909636,65.6509091 C369.318545,59.7616364 370.798909,53.8884545 367.854273,46.5349091 C341.400818,37.7170909 313.450909,34.7724545 284.036727,34.7724545 Z M370.798909,123.015 C386.970273,115.661455 400.213091,108.307909 409.030909,99.4900909 C403.157727,93.6169091 397.284545,89.1919091 391.379182,84.783 C384.025636,93.6169091 373.727455,100.970455 357.556091,106.843636 C361.981091,111.252545 366.39,117.125727 370.798909,123.015 Z M306.097364,196.534364 C306.097364,193.589727 306.097364,189.180818 304.633091,186.236182 C272.274273,189.180818 239.931545,189.180818 210.517364,184.755818 C210.517364,187.700455 209.053091,190.645091 209.053091,193.573636 C239.915455,198.014727 272.274273,199.479 306.097364,196.534364 Z M201.683455,233.318182 C236.970818,237.727091 273.738545,239.191364 310.506273,236.262818 C310.506273,225.964636 309.025909,215.666455 307.561636,206.848636 C273.727668,209.59602 239.694021,208.608521 206.076273,203.904 C204.628091,214.186091 203.147727,223.003909 201.683455,233.318182 Z" id="Shape"></path>
            <path d="M307.577727,175.954091 C322.284818,174.489818 336.991909,173.009455 350.218636,170.080909 C351.682909,165.672 354.627545,159.782727 356.091818,155.357727 L357.556091,153.893455 C366.373909,150.948818 373.727455,149.484545 381.081,146.539909 L372.263182,133.297091 C360.500727,137.706 345.793636,140.650636 331.086545,143.595273 C329.622273,145.059545 329.622273,146.539909 328.141909,148.004182 C323.733,150.948818 316.379455,149.468455 313.434818,145.059545 C309.025909,139.186364 310.490182,133.297091 314.899091,130.352455 C317.843727,127.407818 325.197273,127.407818 328.141909,133.297091 L329.606182,133.297091 C342.849,131.832818 356.075727,127.407818 366.373909,124.479273 C363.429273,118.606091 359.020364,112.716818 354.611455,106.827545 C338.440091,112.700727 317.843727,117.125727 297.263455,118.59 C301.688455,136.241727 304.633091,155.357727 307.577727,175.954091 Z M185.512091,333.323182 C184.031727,334.771364 182.567455,336.251727 181.103182,337.716 C179.638909,337.716 179.638909,337.716 179.638909,339.196364 C178.174636,339.196364 178.174636,337.716 176.694273,337.716 C153.126003,334.913611 129.945097,329.484043 107.583818,321.528545 L104.639182,321.528545 C98.7499091,308.301818 95.8213636,303.892909 89.9320909,287.705455 C86.9874545,286.225091 85.5231818,286.225091 84.0428182,284.744727 C84.0428182,289.169727 84.0428182,292.098273 82.5785455,295.059 C84.0428182,295.059 85.5231818,296.539364 85.5231818,296.539364 C86.9874545,296.539364 86.9874545,296.539364 86.9874545,298.019727 C92.8767273,309.766091 97.2856364,318.6 103.158818,327.401727 C126.683727,336.235636 154.633636,342.108818 184.031727,346.533818 C185.512091,342.124909 185.512091,337.716 185.512091,333.323182 Z M79.6178182,337.716 L81.0820909,339.196364 L79.6178182,334.771364 L79.6178182,337.716 Z" id="Shape"></path>
            <path d="M195.794182,237.711 C160.506818,233.302091 129.612273,224.468182 104.607,214.186091 L91.3641818,253.898455 C103.126636,259.771636 114.905182,264.196636 129.596182,267.125182 C131.060455,264.180545 135.485455,261.252 139.894364,262.716273 C145.783636,264.180545 150.192545,271.534091 148.712182,278.887636 C145.767545,290.666182 134.005091,292.114364 129.596182,283.296545 C128.131909,281.832273 126.651545,280.351909 126.651545,278.887636 C113.424818,274.494818 100.182,270.069818 88.4195455,264.180545 C88.4195455,268.589455 86.9552727,271.534091 86.9552727,274.478727 C88.4195455,275.959091 91.3641818,275.959091 92.8445455,277.407273 L94.3088182,277.407273 C98.7177273,290.666182 101.662364,295.075091 109.015909,311.262545 C129.612273,318.616091 151.656818,323.008909 175.197818,327.417818 L185.496,317.135727 C188.440636,292.114364 191.401364,264.180545 195.794182,237.711 Z M234.042273,118.606091 C234.042273,118.606091 232.561909,120.070364 232.561909,121.550727 C230.902356,124.682941 228.340578,127.244719 225.208364,128.904273 C220.247918,143.812063 216.317841,159.043127 213.445909,174.489818 C241.379727,178.898727 272.274273,178.898727 303.152727,175.954091 C300.208091,156.838091 297.263455,136.257818 292.854545,118.606091 C273.738545,121.534636 253.158273,120.054273 234.042273,118.606091 Z M354.627545,102.418636 C369.334636,96.5454545 379.632818,89.1919091 386.986364,81.8383636 C382.285803,78.5749066 377.372502,75.6290766 372.279273,73.0205455 C366.39,80.3740909 357.572182,86.2633636 344.329364,90.6722727 C347.274,95.0650909 351.682909,98.0097273 354.627545,102.418636 Z M522.278727,302.428636 C523.743,296.555455 523.743,292.114364 523.743,287.721545 C522.278727,292.114364 517.869818,298.035818 513.444818,303.909 L513.444818,318.616091 C517.869818,314.175 520.814455,308.301818 522.278727,302.428636 Z M25.2144545,350.958818 C26.6787273,350.958818 26.6787273,352.439182 26.6787273,353.919545 C26.6787273,352.423091 26.6787273,350.958818 25.2144545,350.958818 Z M16.3805455,292.114364 C14.9162727,290.666182 14.9162727,287.721545 13.4359091,286.241182 C13.4359091,290.666182 13.4359091,295.075091 14.9001818,299.467909 L14.9001818,305.341091 C14.9162727,302.428636 16.3805455,296.555455 16.3805455,292.114364 Z M22.2698182,339.196364 C22.2698182,340.676727 22.2698182,340.676727 23.7340909,343.589182 L23.7340909,345.069545 C23.7340909,343.605273 22.2698182,340.676727 22.2698182,339.196364 Z M100.214182,443.594182 C95.8052727,436.240636 91.3963636,428.887091 88.4517273,420.053182 C86.9874545,418.605 84.0428182,415.660364 82.5624545,412.699636 C61.9660909,402.417545 45.7947273,390.671182 36.9769091,377.412273 C36.9769091,375.964091 36.9769091,375.964091 35.5126364,375.964091 L39.9215455,384.765818 C45.8108182,396.544364 51.684,403.897909 56.0929091,411.251455 C64.9107273,423.013909 79.6178182,434.776364 100.214182,443.594182 Z M60.5018182,418.621091 C61.9660909,421.549636 64.9107273,424.494273 66.375,425.974636 C64.9107273,424.494273 61.9660909,421.533545 60.5018182,418.621091 Z M53.1482727,164.191636 C54.6125455,159.782727 57.5571818,156.838091 60.5018182,152.429182 C59.0375455,149.484545 59.0375455,146.539909 57.5571818,143.611364 L57.5571818,142.131 C57.5571818,142.131 72.2642727,109.772182 85.5070909,100.954364 C84.0267273,100.954364 82.5624545,102.418636 82.5624545,100.954364 C82.5624545,96.5454545 98.7338182,81.8383636 101.678455,83.3026364 C103.158818,84.7669091 95.8052727,92.1204545 89.916,96.5454545 C89.916,98.0097273 88.4517273,98.0097273 88.4517273,98.0097273 C76.6892727,114.181091 73.7446364,117.125727 64.9268182,136.241727 C64.9268182,139.186364 66.3910909,140.650636 66.3910909,143.595273 C72.2803636,137.706 76.6892727,130.352455 82.5624545,124.479273 C82.5624545,124.479273 82.5624545,123.015 81.0981818,123.015 C78.1535455,125.959636 75.2089091,125.959636 75.2089091,124.479273 C75.2089091,118.606091 89.916,102.418636 92.8606364,105.363273 C94.3249091,106.827545 92.8606364,109.772182 88.4517273,114.181091 C89.916,115.645364 89.916,115.645364 89.916,117.125727 C92.8606364,115.661455 94.3249091,112.716818 97.2695455,111.252545 C101.678455,102.418636 104.623091,98.0097273 107.567727,95.0650909 C106.087364,95.0650909 104.623091,95.0650909 106.087364,93.6008182 C106.087364,92.1204545 110.496273,86.2472727 114.921273,83.3026364 C122.274818,78.8937273 126.667636,77.4133636 126.667636,78.8937273 C128.148,80.358 122.258727,86.2472727 116.369455,90.6561818 L114.921273,90.6561818 C113.440909,93.6008182 110.512364,96.5454545 109.032,100.954364 C119.330182,92.1204545 129.628364,83.3026364 141.390818,75.9490909 C138.447254,70.4333288 138.447254,63.8131258 141.390818,58.2973636 C141.390818,55.3527273 142.871182,53.8884545 144.335455,52.4080909 C117.849818,64.1705455 94.341,80.358 75.2089091,102.402545 C70.8,108.291818 64.9107273,115.645364 59.0375455,124.463182 C57.5571818,124.463182 57.5571818,125.943545 57.5571818,125.943545 C48.7393636,139.186364 47.2750909,150.948818 53.1482727,164.191636 Z M256.102909,28.8831818 C259.047545,30.3474545 263.456455,31.8278182 267.865364,33.2920909 C266.385,30.3474545 263.456455,27.4028182 261.976091,25.9385455 C257.567182,18.585 253.158273,14.1760909 248.733273,14.1760909 L247.269,14.1760909 C241.379727,15.6403636 241.379727,15.6403636 229.617273,17.1207273 C222.263727,18.585 222.263727,18.585 210.501273,20.0653636 C207.556636,21.5296364 207.556636,21.5296364 206.092364,21.5296364 C220.799455,20.0653636 238.451182,23.01 256.102909,28.8831818 Z M264.920727,24.4742727 L269.329636,33.2920909 C270.793909,31.8278182 273.738545,28.8831818 275.218909,25.9385455 C282.572455,20.0653636 288.445636,17.1207273 294.334909,15.6403636 C291.390273,14.1760909 288.445636,14.1760909 281.092091,14.1760909 L254.622545,14.1760909 C257.567182,15.6564545 260.511818,20.0653636 264.920727,24.4742727 Z M395.804182,55.3527273 C398.748818,56.817 403.157727,58.2973636 406.102364,59.7616364 C409.047,61.2259091 410.511273,62.7062727 413.455909,64.1705455 C410.511273,59.7616364 406.102364,55.3527273 401.693455,50.9438182 C397.284545,47.9991818 392.875636,45.0545455 384.041727,40.6456364 C382.561364,40.6456364 382.561364,40.6456364 381.097091,39.1813636 C388.450636,45.0706364 392.875636,49.4795455 395.804182,55.3527273 Z M135.501545,487.731545 C122.258727,477.417273 111.976636,464.190545 101.678455,449.483455 C88.4356364,442.129909 76.6731818,436.256727 67.8553636,427.422818 C70.8,431.847818 75.2089091,437.737091 81.0820909,443.610273 C97.2534545,459.797727 101.678455,464.190545 120.794455,478.897636 C128.148,483.322636 131.092636,486.251182 135.501545,487.731545 Z M145.799727,56.8330909 C142.856163,62.3488531 142.856163,68.969056 145.799727,74.4848182 C151.672909,70.0759091 157.562182,67.1312727 163.451455,64.1866364 C163.451455,61.242 161.987182,58.3134545 161.987182,56.8330909 L160.522909,56.8330909 C159.042545,58.3134545 157.578273,58.3134545 156.114,59.7777273 L156.114,58.3134545 C156.114,53.9045455 157.594364,49.4795455 160.522909,45.0706364 C159.042545,46.5349091 156.114,46.5349091 154.633636,48.0152727 C153.169364,48.0152727 151.689,49.4795455 150.224727,49.4795455 C147.264,52.4080909 145.799727,55.3527273 145.799727,56.8330909 Z M147.264,47.9991818 C150.208636,45.0545455 153.153273,42.1099091 157.562182,39.1813636 C150.208636,42.126 147.264,45.0706364 134.021182,52.4080909 C125.203364,58.2973636 119.314091,61.2259091 114.905182,65.6509091 C125.219455,59.7616364 135.501545,53.8884545 147.264,47.9991818 Z" id="Shape"></path>
            <path d="M270.81,33.2920909 C294.334909,25.9385455 319.340182,21.5296364 339.920455,24.4742727 C336.975818,23.01 334.031182,23.01 329.622273,21.5296364 C326.677636,20.0653636 323.733,20.0653636 316.379455,18.585 C310.506273,17.1207273 309.025909,17.1207273 303.152727,15.6403636 C292.870636,15.6564545 281.092091,23.01 270.81,33.2920909 Z M498.753818,381.837273 C498.753818,383.317636 497.289545,384.765818 497.289545,386.230091 C497.273455,384.765818 498.753818,383.317636 498.753818,381.837273 Z M469.339636,427.406727 C463.450364,433.312091 456.096818,437.721 447.279,442.113818 C447.279,443.594182 447.279,446.538818 444.334364,448.019182 C439.925455,455.340545 431.091545,462.694091 429.627273,459.765545 L429.627273,458.285182 L426.682636,459.765545 C425.218364,461.245909 420.793364,462.694091 416.384455,464.158364 C414.920182,465.638727 414.920182,465.638727 413.439818,465.638727 C407.893033,474.121285 401.487227,482.009917 394.323818,489.179727 C401.677364,486.219 409.030909,483.306545 416.384455,478.865455 C423.738,474.472636 428.146909,470.063727 438.445091,461.229818 C456.096818,445.042364 464.914636,434.744182 475.212818,420.021 C473.748545,423.013909 472.284273,425.974636 469.339636,427.406727 Z M511.980545,328.882091 C510.539188,346.670879 506.060093,364.081116 498.737727,380.356909 C506.091273,367.130182 510.500182,355.367727 514.909091,342.108818 C517.853727,331.826727 519.318,322.992818 520.798364,315.639273 C519.334091,320.096455 516.405545,324.489273 511.980545,328.882091 Z M404.622,486.251182 C398.732727,489.211909 394.323818,490.676182 389.914909,493.604727 C386.970273,495.085091 384.025636,498.029727 382.545273,499.477909 L381.081,499.477909 C386.970273,496.549364 391.379182,495.085091 403.141636,487.731545 C404.605909,486.251182 404.605909,486.251182 406.086273,486.251182 L404.622,486.251182 Z M161.971091,502.438636 C161.971091,502.438636 160.506818,500.958273 159.026455,500.958273 C160.506818,500.958273 161.971091,502.438636 161.971091,502.438636 Z" id="Shape"></path>
            <path d="M223.744091,521.538545 C211.981636,514.185 203.163818,499.477909 197.274545,477.417273 C189.921,475.969091 181.103182,474.488727 173.749636,473.024455 C173.749636,477.417273 167.876455,477.417273 160.522909,473.024455 C157.578273,471.544091 156.114,468.631636 154.633636,467.151273 C138.520304,463.097413 122.780448,457.682128 107.583818,450.963818 C120.810545,474.504818 141.406909,492.140455 163.467545,503.919 C167.876455,505.399364 172.285364,506.847545 179.638909,509.792182 C188.456727,512.752909 188.456727,512.752909 201.699545,517.145727 C209.053091,518.626091 209.053091,518.626091 222.279818,521.538545 L223.744091,521.538545 Z M363.445364,506.831455 C369.334636,503.902909 376.688182,500.958273 382.561364,496.549364 C360.500727,503.902909 335.511545,508.295727 306.097364,511.256455 C304.633091,517.129636 301.688455,521.538545 297.279545,524.483182 C300.224182,524.483182 303.168818,523.002818 307.577727,523.002818 C314.931273,521.522455 314.931273,521.522455 326.693727,518.61 C335.527636,517.129636 335.527636,517.129636 348.754364,512.736818 C354.643636,511.256455 357.572182,509.776091 363.461455,508.311818 L363.461455,506.831455 L363.445364,506.831455 Z" id="Shape"></path>
            <path d="M151.672909,498.029727 L153.153273,498.029727 C154.617545,498.029727 154.617545,499.477909 154.617545,499.477909 C154.617545,498.029727 153.153273,498.029727 151.672909,498.029727 Z M289.926,524.499273 C294.334909,523.018909 298.743818,518.626091 301.672364,511.272545 C289.926,512.752909 278.147455,512.752909 266.385,512.752909 L264.920727,512.752909 C261.976091,512.752909 259.031455,509.792182 256.086818,509.792182 C251.677909,509.792182 245.788636,508.311818 242.860091,505.399364 C239.915455,500.974364 245.804727,498.045818 254.622545,499.494 C259.031455,499.494 263.440364,502.454727 263.440364,505.399364 L261.976091,506.847545 C263.440364,506.847545 266.385,508.327909 267.865364,509.808273 C279.627818,509.808273 291.390273,508.327909 303.152727,508.327909 C306.097364,502.454727 307.561636,495.101182 309.025909,486.267273 C307.561636,487.747636 304.617,489.228 303.152727,489.228 L303.152727,492.156545 C300.208091,499.510091 282.572455,500.990455 279.627818,493.636909 C278.163545,487.763727 289.926,483.354818 297.279545,486.283364 C303.168818,481.890545 307.577727,480.410182 309.042,478.929818 C295.815273,478.929818 282.572455,480.410182 269.345727,480.410182 C269.345727,480.410182 267.881455,480.410182 267.881455,481.890545 L263.472545,481.890545 C242.892273,481.890545 220.831636,480.410182 201.715636,477.465545 C209.069182,503.951182 219.367364,520.138636 232.594091,523.067182 C234.074455,523.067182 237.003,523.067182 239.947636,524.547545 C245.836909,524.547545 245.836909,524.547545 256.119,526.027909 L272.290364,526.027909 C278.163545,525.979636 278.163545,525.979636 289.926,524.499273 Z M25.2144545,224.484273 C26.6787273,221.539636 28.1590909,218.611091 28.1590909,215.666455 C25.2144545,208.312909 23.7501818,200.959364 25.2144545,193.605818 C23.7340909,195.086182 23.7340909,196.550455 23.7340909,198.014727 C22.2698182,199.479 22.2698182,202.423636 20.7894545,203.904 C20.7894545,211.241455 22.2698182,217.130727 25.2144545,224.484273 Z M19.3251818,278.887636 C17.8609091,281.848364 17.8609091,286.241182 17.8609091,289.201909 C26.6787273,306.837545 47.2750909,323.025 75.2089091,336.251727 L75.2089091,327.417818 C75.2089091,325.969636 73.7446364,324.489273 73.7446364,323.025 C47.2750909,311.262545 28.1590909,295.075091 19.3251818,278.887636 Z M16.3805455,227.412818 C16.3805455,231.821727 17.8609091,237.711 20.7894545,243.600273 C20.7894545,240.655636 22.2537273,237.711 22.2537273,234.766364 C19.3090909,228.893182 17.8448182,221.539636 19.3090909,215.650364 C17.8609091,220.075364 16.3805455,223.003909 16.3805455,227.412818 Z M22.2698182,248.009182 C32.568,265.660909 51.684,280.368 79.6178182,293.594727 C79.6178182,290.666182 79.6178182,286.241182 81.0820909,283.296545 C54.6125455,271.534091 34.0161818,255.362727 25.1983636,239.175273 C23.7340909,242.119909 23.7340909,245.064545 22.2698182,248.009182 Z M76.6892727,312.710727 C76.6892727,309.782182 76.6892727,306.837545 78.1535455,303.909 C50.2197273,292.130455 31.0876364,275.975182 20.8055455,258.307364 C20.8055455,261.252 19.3251818,264.196636 19.3251818,267.125182 C29.6233636,284.760818 48.7393636,300.948273 75.2089091,312.710727 L76.6892727,312.710727 Z M13.4359091,268.605545 C13.4359091,273.014455 13.4359091,278.887636 16.3805455,283.312636 L16.3805455,273.014455 C14.9162727,270.069818 13.4359091,267.125182 13.4359091,262.716273 L13.4359091,261.252 L13.4359091,268.605545 Z M17.8609091,262.716273 C17.8609091,259.771636 17.8609091,256.827 19.3251818,253.898455 C16.5300843,249.495252 15.0044382,244.406053 14.9162727,239.191364 C14.9162727,243.600273 13.452,246.544909 13.452,250.953818 C14.9162727,253.898455 14.9162727,258.307364 17.8609091,262.716273 Z M84.0267273,127.407818 C78.1535455,134.777455 73.7285455,140.650636 67.8553636,146.523818 C70.8,150.932727 75.2089091,156.822 78.1535455,159.750545 C82.5624545,158.286273 88.4517273,155.341636 92.8606364,152.397 L92.8606364,153.861273 C101.678455,159.734455 110.512364,165.623727 122.274818,170.032636 L126.683727,161.214818 C106.087364,152.429182 91.3802727,140.650636 84.0267273,127.407818 Z M97.2695455,114.181091 L91.3802727,120.054273 C98.7338182,133.297091 111.976636,143.595273 132.573,152.413091 C134.037273,150.932727 135.517636,148.004182 136.981909,145.043455 C117.849818,136.241727 104.623091,125.959636 97.2695455,114.181091 Z M106.087364,106.827545 C111.976636,118.59 125.203364,128.888182 142.855091,136.241727 C151.672909,124.479273 160.506818,112.700727 170.788909,102.402545 C157.562182,95.049 147.264,87.6954545 142.855091,78.8776364 C129.628364,87.7115455 116.385545,96.5454545 106.087364,106.827545 Z M54.6286364,167.120182 C61.9821818,181.827273 79.6339091,196.534364 103.158818,206.832545 L116.385545,180.363 C106.467678,175.498797 97.1024215,169.580775 88.4517273,162.711273 C84.0428182,165.655909 78.1535455,168.600545 73.7446364,171.529091 L73.7446364,170.064818 C69.3357273,165.655909 64.9268182,161.247 61.9821818,155.341636 C59.0375455,159.766636 57.5571818,164.191636 54.6286364,167.120182 Z M82.5624545,273.014455 C84.0267273,270.069818 84.0267273,265.660909 85.5070909,262.716273 C59.0375455,250.953818 39.9215455,236.246727 31.0876364,218.595 C29.6233636,221.539636 28.143,225.948545 26.6787273,228.893182 C36.9608182,245.064545 56.0929091,261.252 82.5624545,273.014455 Z" id="Shape"></path>
            <path d="M34.0322727,208.312909 C42.8661818,225.964636 61.9660909,240.655636 88.4517273,252.418091 C91.3963636,239.191364 95.8052727,225.948545 101.694545,212.721818 C76.6892727,200.959364 60.5179091,187.716545 51.7000909,173.009455 C44.6317546,184.149317 38.712156,195.977732 34.0322727,208.312909 Z M79.6178182,403.914 C79.6178182,402.433636 81.0820909,400.953273 82.5624545,400.953273 C78.1535455,381.837273 75.2089091,362.737364 75.2089091,342.124909 C48.7393636,328.882091 28.1590909,312.710727 17.8609091,296.555455 C19.1378217,320.082751 23.5869564,343.32975 31.0876364,365.665909 C41.3858182,380.373 57.5571818,393.599727 79.6178182,403.914 Z M422.289818,68.5955455 C432.588,75.9490909 442.870091,83.3026364 451.704,92.1204545 L451.704,90.6561818 C439.941545,78.8937273 434.052273,74.4848182 416.400545,61.242 C414.936273,59.7777273 413.455909,58.3134545 411.991636,58.3134545 C416.384455,61.242 419.345182,65.6509091 422.289818,68.5955455 Z M510.516273,287.721545 C504.627,295.075091 495.809182,302.428636 485.511,309.782182 L485.511,315.655364 C485.511,317.119636 484.046727,317.135727 482.566364,318.616091 C472.268182,324.489273 459.025364,331.842818 442.854,337.732091 L442.854,343.605273 C473.732455,331.858909 497.257364,317.135727 510.500182,300.964364 L510.516273,287.721545 Z M434.036182,452.428091 C435.516545,450.947727 435.516545,449.467364 436.980818,448.035273 C431.091545,450.963818 425.218364,453.908455 419.329091,455.356636 C419.329091,456.837 417.864818,458.317364 417.864818,459.781636 C417.864818,458.301273 419.329091,458.301273 420.809455,458.301273 C423.738,456.837 429.627273,453.908455 434.036182,452.428091 Z M485.511,405.378273 C472.268182,418.605 453.152182,430.367455 426.682636,440.665636 C425.218364,443.594182 423.738,448.019182 422.273727,450.947727 C447.262909,440.665636 467.859273,428.887091 479.621727,414.18 C481.102091,411.267545 484.046727,408.306818 485.511,405.378273 Z M456.096818,95.0650909 L454.632545,95.0650909 L456.096818,95.0650909 Z M491.400273,153.893455 C494.344909,155.357727 494.344909,156.838091 495.809182,158.302364 C495.809182,156.838091 494.344909,153.893455 495.809182,153.893455 C495.809182,153.893455 498.753818,156.838091 500.218091,161.247 C498.737727,158.302364 498.737727,156.838091 497.273455,155.357727 L495.809182,150.948818 L491.400273,142.131 L491.400273,153.893455 Z M422.289818,442.129909 C392.875636,452.444182 357.572182,459.797727 317.875909,462.710182 C317.875909,467.135182 317.875909,470.095909 316.395545,474.488727 C354.627545,470.095909 388.466727,462.710182 416.400545,452.428091 C419.345182,449.483455 420.809455,446.554909 422.289818,442.129909 Z M153.153273,462.710182 C153.153273,461.262 154.617545,459.781636 156.097909,459.781636 C160.506818,458.301273 167.860364,462.710182 172.269273,467.135182 C179.622818,468.615545 186.976364,470.095909 194.329909,470.095909 C194.329909,467.135182 192.865636,464.190545 192.865636,461.262 C165.901104,457.122959 139.332527,450.723032 113.440909,442.129909 L111.976636,440.681727 L94.3249091,423.013909 L92.8606364,423.013909 C97.2695455,431.847818 100.214182,439.201364 104.623091,446.554909 C117.849818,452.428091 135.501545,458.301273 153.153273,462.710182 Z" id="Shape"></path>
            <path d="M97.2695455,417.140727 C98.7338182,418.621091 98.7338182,418.621091 98.7338182,420.069273 C101.678455,424.494273 107.567727,430.383545 111.976636,434.776364 C134.037273,442.129909 161.971091,449.483455 191.401364,453.908455 C186.992455,431.847818 185.512091,406.826455 184.031727,378.892636 C152.808323,374.742169 122.197876,366.849147 92.8606364,355.383818 L91.3802727,355.383818 C88.4356364,352.423091 86.9713636,348.030273 85.5070909,345.069545 C84.0267273,345.069545 81.0981818,343.589182 79.6178182,343.589182 C79.6178182,364.169455 82.5624545,383.317636 86.9713636,402.417545 C91.3802727,403.914 97.2695455,411.267545 97.2695455,417.140727 Z M313.450909,464.190545 C307.577727,464.190545 300.224182,464.190545 294.334909,465.670909 C288.445636,468.631636 282.572455,473.024455 276.683182,475.985182 C288.445636,475.985182 300.208091,475.985182 311.970545,474.504818 C311.986636,471.544091 313.450909,467.135182 313.450909,464.190545 Z M388.450636,492.124364 C395.804182,484.770818 401.693455,477.417273 409.030909,467.135182 C403.157727,470.095909 397.284545,471.528 391.379182,473.008364 L389.914909,473.008364 C388.434545,473.008364 386.970273,470.079818 385.506,470.079818 C364.909636,474.472636 341.384727,478.881545 317.859818,480.361909 C316.379455,481.842273 316.379455,481.842273 314.915182,481.842273 C313.5424,490.930142 311.073214,499.818131 307.561636,508.311818 C335.019053,505.776873 362.132237,500.351 388.450636,492.124364 Z M414.936273,458.301273 C407.582727,459.781636 401.693455,462.694091 394.339909,464.174455 C394.339909,465.654818 395.804182,465.654818 395.804182,467.135182 C401.693455,464.174455 407.566636,462.710182 411.975545,461.262 C413.455909,459.781636 413.455909,458.301273 414.936273,458.301273 Z" id="Shape"></path>
        </g>
    </g>
</svg>