<svg width="66" height="18" viewBox="0 0 66 18" fill="none" xmlns="http://www.w3.org/2000/svg">
    <g clip-path="url(#clip0_722_214)">
        <path d="M61.4452 13.6809H62.4861L61.4303 17.0671H59.9992L59.2349 14.9288L58.5681 17.0671H57.5486L58.605 13.6809H60.123L60.8201 15.686L61.4452 13.6809Z" fill="#231F20"/>
        <path d="M40.3837 17.1117C41.5835 17.1117 42.3662 16.5253 42.7326 15.3517L43.2537 13.6809H42.2342L41.6994 15.3963C41.4954 16.0494 41.1338 16.3766 40.6133 16.3766C40.078 16.3766 39.9126 16.0494 40.1161 15.3963L40.6514 13.6809H39.6319L39.1114 15.3517C38.745 16.5253 39.1691 17.1117 40.3837 17.1117Z" fill="#231F20"/>
        <path d="M33.2919 14.6838H34.4624C34.761 13.9112 34.2239 13.5251 32.8505 13.5251C31.6365 13.5251 30.9132 13.8963 30.6818 14.6392C30.5201 15.1591 30.6491 15.4856 31.0703 15.6189C31.1862 15.6635 31.599 15.7081 32.308 15.7527C32.7607 15.7824 32.9504 15.9163 32.8761 16.1536C32.8119 16.3618 32.5335 16.4659 32.0422 16.4659C31.7239 16.4659 31.5289 16.4439 31.4557 16.3992C31.3201 16.3249 31.3058 16.1613 31.4135 15.9091H30.1989C29.8919 16.7555 30.4029 17.179 31.7329 17.179C33.1057 17.179 33.9224 16.7627 34.1817 15.9311C34.3298 15.4559 34.196 15.1442 33.7802 14.9955C33.5857 14.9212 33.1711 14.8617 32.5341 14.8171C32.0808 14.7879 31.8774 14.6981 31.9238 14.5494C31.9886 14.3418 32.2599 14.2377 32.7369 14.2377C33.0111 14.2377 33.1729 14.2532 33.2217 14.2823C33.3817 14.3269 33.4043 14.4608 33.2919 14.6838Z" fill="#231F20"/>
        <path d="M45.4812 14.3941L44.6473 17.0671H43.6284L44.4623 14.3941H43.2477L43.4701 13.6809H46.9176L46.6952 14.3941H45.4812Z" fill="#231F20"/>
        <path d="M47.1348 13.6809H48.1757L47.7653 14.9954H49.3266L49.7364 13.6809H50.7559L49.6996 17.0671H48.6807L49.0976 15.7306H47.5363L47.1193 17.0671H46.079L47.1348 13.6809Z" fill="#231F20"/>
        <path d="M52.0151 14.9954H53.6633L53.4338 15.7306H51.7861L51.5982 16.332H53.4421L53.2125 17.0671H50.3503L51.4061 13.6809H54.2683L54.0464 14.3941H52.2031L52.0151 14.9954Z" fill="#231F20"/>
        <path fill-rule="evenodd" clip-rule="evenodd" d="M37.2818 13.5698C38.6261 13.5698 39.1132 14.164 38.7427 15.3519C38.3626 16.57 37.5007 17.1791 36.1558 17.1791C34.8116 17.1791 34.3274 16.5772 34.7021 15.3745C35.0775 14.1712 35.9375 13.5698 37.2818 13.5698ZM35.8382 15.4185C35.6205 16.1168 35.8073 16.4659 36.4003 16.4659C36.9785 16.4659 37.3788 16.1096 37.6012 15.3965C37.8284 14.669 37.6524 14.305 37.0742 14.305C36.4818 14.305 36.0696 14.6762 35.8382 15.4185Z" fill="#231F20"/>
        <path fill-rule="evenodd" clip-rule="evenodd" d="M56.1359 15.0622C56.3816 15.0622 56.5398 14.951 56.6088 14.7285C56.6784 14.5049 56.5904 14.3942 56.3447 14.3942H55.5423L55.3341 15.0622H56.1359ZM55.1046 15.798L54.7084 17.0673H53.6895L54.7453 13.681L56.9205 13.6584C57.73 13.6584 58.0375 13.9707 57.843 14.5947C57.7134 15.0104 57.4493 15.2775 57.0513 15.3965C57.3065 15.4113 57.4011 15.6415 57.3339 16.087C57.231 16.6961 57.187 17.0227 57.2018 17.0673H56.1181C56.0455 17.0673 56.0527 16.8591 56.1389 16.4439C56.2442 16.0127 56.1455 15.798 55.8415 15.798H55.1046Z" fill="#231F20"/>
        <path d="M3.90371 13.6145H4.94402L3.88111 17.0233H2.47201L1.71482 14.8624L1.04091 17.0233H0L1.06292 13.6145H2.58146L3.27797 15.6196L3.90371 13.6145Z" fill="#231F20"/>
        <path d="M16.6319 13.6145L16.4023 14.3497H14.559L14.3574 14.9956H16.049L15.8194 15.7308H14.1284L13.7257 17.0233H12.6848L13.7477 13.6145H16.6319Z" fill="#231F20"/>
        <path d="M21.2066 13.6145H22.2475L21.4142 16.2882H23.2135L22.9839 17.0233H20.1437L21.2066 13.6145Z" fill="#231F20"/>
        <path d="M24.2211 13.6145H25.2614L24.7826 15.1521L26.6931 13.6145H28.0373L26.1262 15.1521L27.1041 17.0233H25.7378L24.7748 15.1741L24.1985 17.0233H23.1581L24.2211 13.6145Z" fill="#231F20"/>
        <path fill-rule="evenodd" clip-rule="evenodd" d="M7.40057 13.5251C8.74483 13.5251 9.22959 14.1265 8.85487 15.3298C8.47954 16.5331 7.61946 17.1344 6.2752 17.1344C4.93094 17.1344 4.44379 16.5402 4.81435 15.3518C5.19384 14.1342 6.05631 13.5251 7.40057 13.5251ZM5.95698 15.3744C5.73452 16.087 5.9195 16.4439 6.51252 16.4439C7.09008 16.4439 7.49276 16.0798 7.71998 15.3518C7.94244 14.6392 7.76459 14.2829 7.18644 14.2829C6.59342 14.2829 6.1836 14.6464 5.95698 15.3744Z" fill="#231F20"/>
        <path fill-rule="evenodd" clip-rule="evenodd" d="M11.2353 14.9956C11.4667 14.9956 11.6172 14.8844 11.6868 14.6614C11.7516 14.4532 11.6612 14.3497 11.4155 14.3497H10.6131L10.4115 14.9956H11.2353ZM10.1825 15.7308L9.77922 17.0233H8.76031L9.82323 13.6145H11.9913C12.8157 13.6145 13.1303 13.9262 12.9358 14.5501C12.8109 14.951 12.5415 15.211 12.1287 15.3299C12.3797 15.3597 12.4743 15.5899 12.4118 16.0205C12.3232 16.6296 12.2845 16.9639 12.2941 17.0233H11.1889C11.1163 17.0233 11.133 16.8074 11.2383 16.3768C11.3441 15.9461 11.2371 15.7308 10.9195 15.7308H10.1825Z" fill="#231F20"/>
        <path fill-rule="evenodd" clip-rule="evenodd" d="M18.8494 13.5251C20.1793 13.5251 20.6564 14.1265 20.2811 15.3298C19.9063 16.5331 19.054 17.1344 17.724 17.1344C16.3797 17.1344 15.8926 16.5402 16.2631 15.3518C16.6432 14.1342 17.5051 13.5251 18.8494 13.5251ZM17.4052 15.3744C17.1833 16.087 17.3612 16.4439 17.9393 16.4439C18.5317 16.4439 18.9416 16.0798 19.1688 15.3518C19.3912 14.6392 19.2056 14.2829 18.6132 14.2829C18.0351 14.2829 17.6324 14.6464 17.4052 15.3744Z" fill="#231F20"/>
        <path d="M21.6753 2.49927H5.13913L4.54968 4.19565H18.2302C18.9731 3.96308 21.1751 3.3314 23.2474 3.2975C23.2474 3.2975 22.0138 2.9531 20.7879 2.76455C20.7879 2.76455 21.1329 2.64975 21.6753 2.49927Z" fill="#231F20"/>
        <path d="M2.57851 9.86523L1.98846 11.5628H12.1335L15.8451 10.1115L14.8303 9.86523H2.57851Z" fill="#231F20"/>
        <path d="M32.2034 0.681541C32.2932 0.621465 32.6988 0.274694 32.9939 0.000488281H31.8905C31.9066 0.255065 31.9298 0.604216 31.944 0.705333C31.9678 0.870094 32.0618 0.77552 32.2034 0.681541Z" fill="#231F20"/>
        <path d="M3.43441 7.40332L2.84436 9.09911H14.8493C15.6731 8.73093 16.6873 8.27828 16.9038 8.18608C17.316 8.00645 18.6436 7.64719 18.6436 7.64719C18.6436 7.64719 18.3938 7.53596 18.0321 7.40332H3.43441Z" fill="#231F20"/>
        <path d="M29.2686 0.388301C30.3999 0.670834 30.7181 0.77552 30.7181 0.77552C30.7181 0.77552 31.1399 0.547115 31.6335 0.000488281H6.00814L5.41809 1.69747H24.8296C24.3347 1.57434 23.634 1.36914 23.2884 1.12467C23.2884 1.12467 25.1264 0.840354 26.2815 0.879016C27.5115 0.919463 28.8231 1.12467 28.8231 1.12467C28.8231 1.12467 28.1486 0.445998 27.3004 0.280642C27.3004 0.280642 28.1022 0.096252 29.2686 0.388301Z" fill="#231F20"/>
        <path d="M3.69733 6.64801H16.6766C17.5194 6.21678 19.2271 5.43699 21.372 4.95044H4.28737L3.69733 6.64801Z" fill="#231F20"/>
        <path d="M59.8148 4.12011L65.5089 4.32591C66.4237 3.06612 65.8039 2.09896 65.8039 2.09896C65.4494 1.24958 63.7976 0.692842 63.7976 0.692842C60.0212 -0.390299 55.7285 0.20986 55.7285 0.20986C53.5003 0.429938 52.3821 1.21568 52.0104 1.53568L52.5344 0.0302286H47.5327L45.5395 5.76772L42.6939 0.00524673H42.4798L42.4804 0.00346231L33.2591 0.000488281C33.1794 0.424585 32.9962 1.15263 32.6274 1.55353L32.6042 1.67189C33.2169 2.09599 34.0889 3.27489 34.1834 3.41586C34.2774 3.55743 34.5136 3.58122 34.6551 3.79297C34.7961 4.00531 34.6313 4.17007 34.7729 4.38242C34.9139 4.59477 36.7292 7.37608 37.9081 8.55498C38.309 8.95588 38.2144 8.95588 38.1906 9.09685C38.1674 9.23841 37.9551 9.2854 37.8373 9.52154C37.7196 9.75708 37.8611 10.111 37.6958 10.2995C37.531 10.4881 37.2009 10.6059 36.9885 10.6291C36.6822 10.889 35.9042 11.0068 35.6687 10.8414C35.6687 10.8414 35.3623 10.7236 35.2916 10.0634C34.4428 9.92244 32.6982 8.95588 32.2973 8.60197C31.8262 8.67275 30.9537 8.29565 30.8597 8.24866C30.7651 8.20107 30.7419 8.0833 30.4826 8.22486C30.2232 8.36643 30.1524 8.46041 30.1055 8.64896L29.0753 11.5629L38.4678 11.5445L40.442 5.86587L43.328 11.5599L43.5272 11.5587L43.5207 11.579L48.5218 11.5712L49.138 9.79694C50.148 11.7086 51.87 11.7473 51.87 11.7473C52.099 11.9049 55.1824 12.0584 56.3043 12.1173C57.4249 12.1762 60.346 11.9263 60.346 11.9263C64.3139 11.604 64.7422 8.03096 64.7422 8.03096C65.2733 5.70229 62.3522 4.92607 62.3522 4.92607C61.7622 4.70599 57.4986 4.23729 57.4986 4.23729C56.1264 4.179 56.5844 3.46166 56.5844 3.46166C56.6433 2.87578 58.251 2.99236 58.251 2.99236C59.9617 2.94834 59.9914 3.32961 59.9914 3.32961C60.1098 3.85661 59.8148 4.12011 59.8148 4.12011ZM58.6121 7.90664C59.2468 8.13386 58.8922 8.66799 58.8922 8.66799C58.6418 9.02607 58.2213 9.09982 58.2213 9.09982C57.8817 9.12897 56.6433 9.30563 55.7868 9.07068C54.9308 8.83632 55.0349 8.45505 55.0349 8.45505C55.0052 8.17669 55.0938 8.01609 55.0938 8.01609L49.834 7.79601L50.6352 5.49233C51.3525 7.51705 55.2556 7.5914 55.2556 7.5914C57.41 7.70857 58.6121 7.90664 58.6121 7.90664Z" fill="#231F20"/>
        <path d="M64.2331 12.0737C64.6827 12.0737 65.0408 12.4395 65.0408 12.8963C65.0408 13.3603 64.6827 13.7219 64.2295 13.7219C63.7798 13.7219 63.4146 13.3603 63.4146 12.8963C63.4146 12.4395 63.7798 12.0737 64.2295 12.0737H64.2331ZM64.2295 12.2016C63.8679 12.2016 63.5716 12.5121 63.5716 12.8963C63.5716 13.2871 63.8679 13.5941 64.2331 13.5941C64.5983 13.5976 64.8909 13.2871 64.8909 12.8999C64.8909 12.5121 64.5983 12.2016 64.2331 12.2016H64.2295ZM64.076 13.3746H63.9297V12.4574C64.0064 12.4467 64.0796 12.4354 64.1891 12.4354C64.3282 12.4354 64.4192 12.4651 64.4746 12.505C64.5293 12.5454 64.5584 12.6073 64.5584 12.6953C64.5584 12.8155 64.4781 12.8886 64.3794 12.9178V12.9255C64.4597 12.9398 64.5144 13.0129 64.5328 13.1485C64.5549 13.2907 64.5769 13.3454 64.5911 13.3746H64.4377C64.4157 13.3454 64.3937 13.2616 64.3758 13.1408C64.3538 13.0242 64.2949 12.9802 64.1783 12.9802H64.076V13.3746ZM64.076 12.8666H64.1819C64.3027 12.8666 64.405 12.8232 64.405 12.7096C64.405 12.6293 64.3461 12.549 64.1819 12.549C64.1343 12.549 64.1016 12.5525 64.076 12.5561V12.8666Z" fill="#231F20"/>
    </g>
    <defs>
        <clipPath id="clip0_722_214">
            <rect width="66" height="17.1791" fill="white"/>
        </clipPath>
    </defs>
</svg>
