<svg width="36" height="40" viewBox="0 0 36 40" fill="none" xmlns="http://www.w3.org/2000/svg">
<g clip-path="url(#clip0_113_7305)">
<path d="M0.630127 32.0686V38.5349H2.02927V34.4509L5.13007 38.5349H6.32754V32.0686H4.941V36.0644L1.92843 32.0686H0.630127ZM18.2644 32.0686L15.5795 38.5349H17.0165L17.6089 37.098H20.1551L20.7475 38.5349H22.2097L19.5375 32.0686H18.2644ZM12.693 32.3711V33.619H12.1132V34.8165H12.693V37.1358C12.693 38.2722 13.2784 38.6105 14.13 38.6105C14.5974 38.6105 14.9337 38.5077 15.2266 38.3332V37.2114C15.0244 37.3228 14.79 37.3879 14.5333 37.3879C14.2222 37.3879 14.0921 37.2296 14.0921 36.9089V34.8165H15.2392V33.619H14.0921V32.3711H12.693ZM9.44095 33.5308C8.01105 33.5308 7.0082 34.6879 7.0082 36.0896V36.1022C7.0082 37.6052 8.10382 38.6484 9.5796 38.6484C10.468 38.6484 11.1265 38.2964 11.5838 37.7282L10.7897 37.0223C10.4045 37.3803 10.0596 37.5265 9.5922 37.5265C8.96851 37.5265 8.53339 37.2008 8.39474 36.5685H11.8107C11.8213 36.4405 11.8233 36.3003 11.8233 36.1904C11.8233 34.7978 11.0806 33.5308 9.44095 33.5308ZM25.487 33.5308C24.7629 33.5308 24.288 33.8671 23.9492 34.3249V33.619H22.5626V39.9971H23.9492V37.8921C24.2789 38.2863 24.7453 38.6231 25.487 38.6231C26.6512 38.6231 27.718 37.7302 27.718 36.0896V36.0644C27.718 34.4242 26.633 33.5308 25.487 33.5308ZM31.2096 33.5308C30.4861 33.5308 30.0232 33.8671 29.6844 34.3249V33.619H28.2853V39.9971H29.6844V37.8921C30.0136 38.2863 30.4669 38.6231 31.2096 38.6231C32.3733 38.6231 33.4407 37.7302 33.4407 36.0896V36.0644C33.4407 34.4242 32.3551 33.5308 31.2096 33.5308ZM33.302 33.619V33.7703H33.6045V34.7156H33.7684V33.7703H34.0835V33.619H33.302ZM34.2852 33.619V34.7156H34.449V33.8081L34.7768 34.7156H34.8776L35.2053 33.8081V34.7156H35.3692V33.619H35.1171L34.8272 34.4509L34.5373 33.619H34.2852ZM18.882 33.7703L19.7265 35.8501H18.0249L18.882 33.7703ZM9.44095 34.6526C10.0268 34.6526 10.3924 35.062 10.4745 35.6862H8.36953C8.47944 35.055 8.86263 34.6526 9.44095 34.6526ZM25.1214 34.7156C25.7713 34.7156 26.3189 35.2491 26.3189 36.0644V36.0896C26.3189 36.9144 25.7713 37.4383 25.1214 37.4383C24.4715 37.4383 23.9366 36.9054 23.9366 36.0896V36.0644C23.9366 35.2491 24.4715 34.7156 25.1214 34.7156ZM30.8567 34.7156C31.5076 34.7156 32.0541 35.2491 32.0541 36.0644V36.0896C32.0541 36.9144 31.5076 37.4383 30.8567 37.4383C30.2073 37.4383 29.6592 36.9054 29.6592 36.0896V36.0644C29.6592 35.2491 30.2072 34.7156 30.8567 34.7156Z" fill="black"/>
<path d="M0.630127 0.00170898V27.2278H13.3359V10.8918H20.5963V27.2278H33.3015V0.00170898H0.630127Z" fill="#0077C0"/>
</g>
<defs>
<clipPath id="clip0_113_7305">
<rect width="34.7396" height="40" fill="white" transform="translate(0.630127)"/>
</clipPath>
</defs>
</svg>
