<svg width="160" height="30" viewBox="0 0 160 30" fill="none" xmlns="http://www.w3.org/2000/svg">
<g clip-path="url(#clip0_113_7331)">
<path d="M73.125 21.375V28.9375H74.875H76.625V24.9V20.875L77.2625 22.0625C77.6 22.7125 78.5625 24.525 79.4 26.1L80.9125 28.95L82.675 28.9125L84.4375 28.875L84.475 21.3375L84.5 13.8125H82.6875H80.875V17.8375V21.875L80.55 21.25C80.375 20.9 80.0125 20.225 79.75 19.75C79.5 19.2625 78.925 18.2 78.4875 17.375C78.05 16.55 77.4625 15.425 77.175 14.875L76.6375 13.875L74.8875 13.8375L73.125 13.8V21.375Z" fill="#151515"/>
<path d="M112.5 21.375V28.9375H117.688H122.875V27.1875V25.4375H119.625H116.375V24V22.5625H119.313H122.25V20.9375V19.3125H119.313H116.375V18.1875V17.0625H119.563H122.75V15.4375V13.8125H117.625H112.5V21.375Z" fill="#151515"/>
<path d="M142.125 16.7373C140.175 17.1873 139.212 18.2998 139.2 20.0623C139.187 22.0123 140.225 22.9748 143.187 23.7623C144.65 24.1498 145.012 24.3123 145.362 24.7623C145.712 25.2123 145.687 25.4873 145.275 25.9498C144.987 26.2623 144.8 26.3623 144.3 26.3998C143.262 26.4998 142.512 25.9748 142.262 24.9748L142.112 24.4123L141.525 24.4873C141.2 24.5248 140.437 24.5873 139.825 24.6373L138.712 24.7123L138.787 25.3248C138.962 26.7998 140.05 28.1248 141.425 28.5498C143.1 29.0623 145.425 28.9873 146.812 28.3748C148.562 27.6123 149.5 25.5373 148.95 23.6623C148.787 23.1123 148.6 22.8373 148.112 22.3748C147.325 21.6373 146.587 21.2998 144.587 20.7873C143.712 20.5498 142.887 20.2748 142.75 20.1498C142.237 19.7123 142.6 19.0248 143.425 18.8748C144.075 18.7498 144.75 19.1123 145.062 19.7748L145.312 20.2998L146.075 20.3123C146.5 20.3123 147.262 20.2748 147.8 20.2373L148.75 20.1498L148.675 19.6998C148.437 18.3373 147.512 17.2373 146.325 16.8623C145.487 16.5998 143.037 16.5248 142.125 16.7373Z" fill="#151515"/>
<path d="M150.5 22.5625V28.3125H155.188H159.875V27V25.6875H157H154.125V24.625V23.5625H156.813H159.5V22.375V21.1875H156.813H154.125V20.3125V19.4375H157H159.875V18.125V16.8125H155.188H150.5V22.5625Z" fill="#151515"/>
<path d="M88.125 23.25V28.9375H92.875H97.6375L97.6 27.5875L97.5625 26.25L94.6 26.2125L91.625 26.1875V25.1875V24.1875H94.3125H97V22.9375V21.6875H94.3125H91.625V20.875V20.0625H94.5H97.375V18.8125V17.5625H92.75H88.125V23.25Z" fill="#151515"/>
<path d="M99.375 19V20.4375H101.063H102.75V24.6875V28.9375H104.5H106.25V24.6875V20.4375H108H109.75V19V17.5625H104.563H99.375V19Z" fill="#151515"/>
<path d="M128.038 19.6624C127.613 20.8124 126.675 23.3374 125.95 25.2874C125.225 27.2249 124.625 28.8499 124.625 28.8749C124.625 28.9124 125.45 28.9249 126.463 28.9124L128.3 28.8749L128.563 27.9999L128.825 27.1249L130.713 27.0874L132.6 27.0499L132.9 27.9624L133.213 28.8749L135.038 28.9124C136.313 28.9374 136.875 28.8999 136.875 28.7999C136.875 28.7249 136.6 27.9249 136.263 27.0249C135.138 24.0124 132.9 17.9999 132.813 17.7749C132.738 17.5874 132.513 17.5624 130.763 17.5624L128.813 17.5749L128.038 19.6624ZM131.3 22.5999C131.563 23.4999 131.8 24.3249 131.838 24.3999C131.888 24.5249 131.613 24.5624 130.75 24.5624C129.875 24.5624 129.613 24.5249 129.663 24.3999C129.688 24.3249 129.938 23.4999 130.2 22.5999C130.475 21.6874 130.713 20.9374 130.75 20.9374C130.788 20.9374 131.025 21.6874 131.3 22.5999Z" fill="#151515"/>
<path d="M46.1875 0.375013C45.85 0.475013 45.4 0.562513 45.2125 0.562513C44.5125 0.562513 43.725 0.850013 43.3 1.26251C42.9 1.62501 42.8625 1.72501 42.9 2.26251C42.925 2.73751 43 2.90001 43.2875 3.11251C43.775 3.47501 44.9625 3.45001 45.8 3.06251C47.1625 2.43751 47.275 2.42501 49.8 2.50001C53.4375 2.61251 54.4125 2.73751 55.2125 3.20001C55.625 3.43751 55.95 3.73751 56.0625 3.97501C56.175 4.20001 56.3375 4.51251 56.4375 4.68751C56.5375 4.86251 56.625 5.17501 56.625 5.38751C56.625 5.60001 56.7125 6.05001 56.8125 6.38751C57.125 7.41251 57.0625 8.31251 56.6375 8.93751C56.175 9.63751 55.85 9.80001 54.9625 9.81251C54.5625 9.81251 53.8 9.90001 53.275 10.0125C52.625 10.15 52.0375 10.1875 51.4375 10.1375C50.9625 10.0875 50.1875 10.025 49.725 9.98751C49.0875 9.92501 48.6 9.97501 47.675 10.1875C46.2 10.525 44.9375 10.5 44.1875 10.1125C43.8125 9.91251 43.6 9.67501 43.3125 9.12501C42.9125 8.33751 42.875 7.96251 43 5.18751C43.05 4.18751 43.025 3.92501 42.8125 3.50001C42.6125 3.10001 42.4625 2.97501 42.1 2.88751C41.2875 2.68751 40.6875 3.18751 40.375 4.31251C40.2125 4.90001 40.2 6.85001 40.3375 9.05001L40.45 10.85L40.875 11.2125C41.1125 11.4 41.3875 11.75 41.5 11.975C41.825 12.6625 43.675 13.35 44.45 13.0625C44.625 12.9875 45.0125 12.9375 45.325 12.9375H45.8875L45.7 13.2875C45.6 13.475 45.425 13.7125 45.3 13.825C44.925 14.15 42.4 15.4375 42.1375 15.4375C42 15.4375 41.5375 15.6125 41.1 15.8125C40.35 16.1875 40.2625 16.2 39.175 16.1125C37.8625 16.025 37.2625 16.1625 36.875 16.65C36.3375 17.3375 36.6875 18.4625 37.525 18.7125C38.2 18.9125 40.2625 18.6875 40.9625 18.3375C41.2375 18.1875 41.7625 18.0375 42.1375 17.9875C42.9 17.9 44.9125 16.9875 45.6875 16.375C45.9625 16.15 46.325 15.9 46.5 15.8125C47.05 15.525 48.5125 13.9 48.8375 13.2L49.1625 12.5375L49.675 12.625C49.95 12.675 50.4375 12.7125 50.75 12.7C51.6375 12.65 52.4 12.65 52.875 12.675C53.1125 12.6875 54.125 12.65 55.125 12.6C56.75 12.5 57.0125 12.45 57.625 12.1375C58.425 11.725 59.2 10.975 59.45 10.3625C59.575 10.075 59.625 9.40001 59.625 8.10001C59.625 6.55001 59.5875 6.13751 59.375 5.58751C59.2375 5.22501 59.125 4.75001 59.125 4.51251C59.125 3.98751 58.9 3.32501 58.6125 3.00001C58.5 2.86251 58.375 2.61251 58.35 2.43751C58.2875 1.95001 56.9125 1.06251 56.025 0.937513C55.6375 0.875013 54.975 0.712513 54.5625 0.562513C53.9375 0.337513 53.575 0.300013 52.3125 0.312513C51.4875 0.325013 49.9125 0.300013 48.8125 0.262513C47.2875 0.212513 46.6625 0.237513 46.1875 0.375013Z" fill="#C11515"/>
<path d="M5.26255 1.76231C4.76255 1.98731 4.60005 2.13731 4.33755 2.62481C4.23755 2.83731 4.00005 3.13731 3.82505 3.29981C3.65005 3.47481 3.50005 3.66231 3.50005 3.72481C3.50005 3.79981 3.41255 3.93731 3.30005 4.04981C2.78755 4.58731 1.37505 7.12481 1.37505 7.56231C1.37505 7.66231 1.28755 7.86231 1.18755 7.98731C0.925055 8.33731 0.950055 9.18731 1.25005 9.56231C1.38755 9.73731 1.50005 9.94981 1.50005 10.0373C1.50005 10.2498 2.25005 10.9998 2.71255 11.2248C3.05005 11.3998 3.25005 11.6873 3.42505 12.2248C3.46255 12.3498 3.36255 12.7873 3.18755 13.1873C3.01255 13.5998 2.87505 14.0248 2.87505 14.1248C2.87505 14.2373 2.67505 14.4998 2.45005 14.7248C2.21255 14.9498 1.83755 15.4498 1.62505 15.8623C1.27505 16.5373 1.25005 16.6623 1.32505 17.4248C1.37505 17.8748 1.55005 18.5998 1.72505 19.0373C2.11255 20.0373 2.63755 20.4248 3.70005 20.5123C4.11255 20.5498 4.72505 20.6998 5.08755 20.8373C5.67505 21.0623 5.83755 21.0748 6.75005 20.9498C7.87505 20.7998 8.48756 20.5623 8.91256 20.0998C9.06256 19.9373 9.63756 19.4373 10.2001 18.9998C11.3501 18.0998 11.5626 17.7248 11.4626 16.8373C11.1876 14.5873 10.6126 13.1998 9.56256 12.3373C9.33756 12.1498 9.31256 11.1748 9.52506 10.7748C9.72506 10.3998 9.95006 10.2248 10.7126 9.87481C11.0751 9.71231 11.4251 9.46231 11.4876 9.32481C11.6876 8.94981 11.5751 7.26231 11.3251 6.88731C10.8501 6.14981 9.22506 5.74981 8.31256 6.12481C7.50006 6.47481 7.38756 6.96231 8.00006 7.41231C8.45006 7.74981 8.45006 7.81231 8.10006 8.54981C7.16256 10.5373 5.67505 11.0623 4.42505 9.87481C4.12505 9.58731 3.86255 9.27481 3.86255 9.19981C3.85005 9.12481 3.83755 8.98731 3.82505 8.89981C3.78755 8.68731 4.33755 7.16231 4.47505 7.07481C4.53755 7.03731 4.71255 6.77481 4.86255 6.49981C5.46255 5.37481 5.73755 4.99981 5.95005 4.94981C6.07505 4.92481 6.31255 4.82481 6.46255 4.72481C6.62505 4.61231 6.78755 4.56231 6.83755 4.59981C6.87505 4.64981 7.10005 4.59981 7.33755 4.49981C7.58755 4.39981 7.91256 4.31231 8.06256 4.31231C8.21256 4.31231 8.48756 4.19981 8.67506 4.04981C8.92506 3.84981 9.00006 3.68731 9.00006 3.29981C9.00006 2.62481 8.85006 2.37481 8.21256 2.01231C7.52506 1.62481 5.90005 1.48731 5.26255 1.76231ZM8.21256 13.5373C8.38756 13.7498 8.90006 14.8123 9.05006 15.2498C9.10006 15.3748 9.07506 15.8873 8.98756 16.3748C8.75006 17.7748 8.21255 18.1998 6.65005 18.2123C5.21255 18.2123 4.52505 18.0498 4.10005 17.5748C3.68755 17.1123 3.63755 16.5748 4.00005 16.2498C4.12505 16.1373 4.30005 15.8248 4.37505 15.5748C4.46255 15.3248 4.73755 14.9248 5.00005 14.6873C5.26255 14.4498 5.58755 14.0498 5.73755 13.8123C6.08755 13.2123 6.98756 12.8998 7.61256 13.1498C7.85006 13.2373 8.11256 13.4123 8.21256 13.5373Z" fill="#C11515"/>
<path d="M20.6251 3.46243C19.2126 3.84993 16.5501 4.06243 14.8126 3.92493C14.1876 3.87493 13.7751 4.22493 13.1876 5.32493L12.6876 6.24993V7.68742L12.7001 9.12492L13.2501 10.1749L13.8126 11.2374V13.8624C13.8001 17.5374 13.7626 18.4124 13.5751 18.8624C13.3751 19.3499 13.1626 20.3249 13.0751 21.1249C13.0126 21.7749 12.8626 22.2874 12.3251 23.7374C11.9751 24.6749 11.6001 25.2374 11.7126 24.6374C11.8001 24.1874 11.5126 22.3374 11.3001 21.8999C10.9626 21.2624 10.6626 21.0624 10.0751 21.0624C9.61261 21.0624 9.47511 21.1249 9.18761 21.4624C8.87511 21.8249 8.86261 21.9124 8.93761 22.6124C9.03761 23.5749 9.46261 24.5249 10.0126 25.0374C10.5501 25.5499 10.9376 25.6624 11.2501 25.3749C11.4501 25.1874 11.4501 25.2249 11.2126 25.7124C10.8126 26.4999 10.8501 27.3374 11.3126 27.8124C11.9501 28.4749 12.6876 28.4374 13.5376 27.6874C13.9126 27.3624 14.0501 27.0874 14.4126 25.8999C15.0501 23.8374 15.2001 23.1249 15.5876 20.2749C15.6501 19.8624 15.6876 19.8124 15.9251 19.8874C16.8751 20.1874 16.8876 20.2124 16.8501 21.6374C16.8126 23.6124 17.1126 24.5249 17.9501 24.8749C18.5751 25.1374 19.0751 25.1124 19.3751 24.8124C19.7751 24.4124 19.8126 24.0124 19.4751 23.5624C19.2251 23.2249 19.1876 23.0249 19.2001 22.1499C19.2001 21.5874 19.2501 20.8624 19.3126 20.5374C19.4001 19.9999 19.4501 19.9249 19.9751 19.6874C20.7376 19.3249 22.8626 19.1124 23.7501 19.2999C24.6876 19.4999 25.2626 19.4624 25.7126 19.1874C26.2251 18.8874 26.3501 18.4249 26.0751 17.8624C25.7501 17.1749 25.3001 16.9874 23.8126 16.8999C22.0501 16.7999 21.8876 16.6874 21.9751 15.5624C22.0001 15.1124 22.0501 14.7249 22.0751 14.6999C22.2001 14.5499 24.1501 14.3124 24.6876 14.3874C25.3751 14.4749 25.6751 14.6249 26.3001 15.2249C26.6376 15.5624 26.7251 15.7499 26.8001 16.3749C26.8376 16.7874 26.8251 17.4124 26.7626 17.7499C26.6376 18.4624 26.7126 22.5124 26.9251 26.3499C26.9876 27.6749 27.3001 28.4124 27.9251 28.7499C28.2876 28.9499 28.4251 28.9624 28.8501 28.8374C29.4876 28.6499 29.7001 28.3874 29.9251 27.5499C30.0751 26.9624 30.0751 26.7124 29.9376 25.8624C29.8501 25.3249 29.6751 24.2874 29.5626 23.5749C29.4501 22.8624 29.2501 21.9749 29.1251 21.6124C28.9251 21.0374 28.8876 20.4874 28.8751 17.5374C28.8501 13.8499 29.0251 10.1249 29.2626 9.12492C29.3501 8.77492 29.5126 8.36242 29.6376 8.18742C30.2501 7.36242 29.9501 5.82493 29.0501 5.18743C28.8001 5.01243 28.4126 4.68743 28.1751 4.46243C27.6751 3.98743 27.2751 3.81243 26.6501 3.81243C26.3876 3.81243 26.0626 3.72493 25.9001 3.62493C25.6501 3.43743 24.3501 3.38743 22.3126 3.47493C22.1126 3.48743 21.7376 3.46243 21.5001 3.41243C21.2626 3.37493 20.8626 3.38743 20.6251 3.46243ZM25.0751 6.13743C25.9001 6.62493 26.5626 7.33742 26.8251 8.01242C27.0376 8.57492 27.0376 8.76242 26.8001 11.2499C26.6876 12.3124 26.6501 12.3499 25.3876 12.2499C24.8001 12.1999 24.2501 12.0999 24.1626 12.0249C23.9376 11.7999 24.1751 10.7749 24.6126 10.1874C25.3001 9.23742 25.4126 7.83742 24.8501 7.11243C24.6251 6.82493 24.5126 6.79993 24.0876 6.84993C23.0001 6.99993 22.4751 8.01242 22.4501 10.0624C22.4251 11.5624 21.9376 12.3124 20.9751 12.3124C20.7251 12.3124 20.3751 12.3624 20.2001 12.4374C20.0251 12.4999 19.1626 12.5624 18.2751 12.5874L16.6751 12.6124L16.1626 12.1999C15.5251 11.6874 15.4376 11.4624 15.2626 9.78742L15.1126 8.43742L15.4626 7.72492C15.7751 7.08743 15.9001 6.94993 16.5626 6.61243C16.9751 6.39993 17.5251 6.22493 17.8126 6.22493C18.0876 6.21243 18.6251 6.08743 19.0001 5.96243C19.6126 5.73743 19.9626 5.72493 22.0876 5.74993C24.4501 5.78743 24.4876 5.79993 25.0751 6.13743ZM19.2126 14.9499C19.5751 15.0624 19.6001 15.1249 19.6751 15.8999C19.7876 17.0374 19.7126 17.1124 18.0876 17.1874C17.1501 17.2499 16.6751 17.3249 16.2876 17.5249L15.7501 17.7874L15.8376 17.4624C15.8751 17.2749 15.9626 16.9999 16.0126 16.8374C16.0751 16.6749 16.1251 16.4124 16.1251 16.2499C16.1251 15.7249 16.6876 15.2124 17.3501 15.1249C17.6751 15.0874 18.0501 14.9999 18.1876 14.9374C18.5251 14.7874 18.7751 14.7874 19.2126 14.9499Z" fill="#C11515"/>
<path d="M17.7624 8.025C16.9749 8.975 18.2249 11.8125 19.4374 11.8125C19.6624 11.8125 19.8249 11.6875 20.0124 11.4C20.2249 11.0625 20.2499 10.875 20.1749 10.1875C20.0749 9.175 19.6999 8.125 19.3374 7.875C19.1874 7.775 18.8374 7.6875 18.5624 7.6875C18.1499 7.6875 17.9874 7.7625 17.7624 8.025Z" fill="#C11515"/>
<path d="M48 5.37495C47.5 5.48745 46.875 5.52495 46.375 5.48745C45.675 5.42495 45.5125 5.44995 45.225 5.68745C44.6 6.17495 44.55 7.23745 45.1375 7.71245C45.4625 7.98745 45.9625 7.99995 47.4 7.73745C48.35 7.56245 48.625 7.54995 49.1875 7.68745C49.625 7.78745 50.025 7.81245 50.3375 7.74995C50.8 7.64995 51.9 7.62495 53.0875 7.69995C53.5875 7.72495 53.7 7.68745 53.9625 7.38745C54.3625 6.92495 54.35 6.19995 53.95 5.72495C53.65 5.37495 53.625 5.37495 52.225 5.36245C51.45 5.36245 50.3625 5.32495 49.8125 5.27495C49.1375 5.22495 48.55 5.24995 48 5.37495Z" fill="#C11515"/>
<path d="M51.0626 13.3749C50.8626 13.4874 50.6126 13.6624 50.5376 13.7749C50.3251 14.0624 50.3376 14.8249 50.5626 15.1374C50.7251 15.3874 50.7001 15.4249 49.9626 15.9124C49.5376 16.1999 48.8751 16.6624 48.5001 16.9499C48.1251 17.2249 47.2001 17.8249 46.4376 18.2874C45.6876 18.7374 44.8876 19.2374 44.6751 19.3999C44.4626 19.5624 44.2376 19.6874 44.1751 19.6874C44.1126 19.6874 43.8626 19.8499 43.6251 20.0499C43.3876 20.2374 43.0251 20.4874 42.8126 20.5874C42.0876 20.9624 39.3501 21.8124 38.6501 21.8874C37.7876 21.9874 37.3876 22.1749 36.9501 22.6874C36.5251 23.1999 36.5251 23.7874 36.9501 24.2999C37.5876 25.0499 38.8751 25.0874 40.0001 24.3749C40.2751 24.1999 40.8001 23.9999 41.1501 23.9249C41.9126 23.7624 43.8126 22.9124 44.1876 22.5749C44.3251 22.4499 44.7626 22.1874 45.1626 21.9999C45.5501 21.8249 45.8751 21.6249 45.8751 21.5624C45.8751 21.4999 46.2376 21.2124 46.6876 20.9124C47.1376 20.6249 47.5001 20.3374 47.5001 20.2874C47.5001 20.2249 47.8251 19.9749 48.2126 19.7249C48.6001 19.4749 49.1501 19.0749 49.4251 18.8249C49.7126 18.5749 50.1626 18.1999 50.4376 17.9999C50.7126 17.7999 51.4001 17.2249 51.9626 16.7124L53.0001 15.7874L54.1126 15.7624C54.8251 15.7499 55.2876 15.7999 55.3876 15.8999C55.4626 15.9749 55.6501 16.4249 55.8126 16.8999C56.0751 17.7374 56.1001 17.7499 56.5126 17.7499C56.7501 17.7374 57.2626 17.6999 57.6501 17.6374C58.3626 17.5499 58.3626 17.5499 58.8251 18.0249C59.0876 18.2874 59.4251 18.7999 59.6001 19.1749C60.0126 20.0749 59.9501 21.1874 59.4126 22.3374C59.0001 23.1874 57.2251 25.1874 56.8626 25.1874C56.7501 25.1874 56.5626 25.2999 56.4376 25.4374C56.0251 25.8999 53.5751 26.5249 52.7751 26.3749C52.5251 26.3249 52.1001 26.1374 51.8251 25.9499C50.7626 25.2249 50.0001 25.3749 50.0001 26.3124C50.0001 26.7999 50.5626 28.1249 50.9751 28.5999C51.0751 28.7124 51.2251 28.9374 51.3001 29.0874C51.5126 29.4999 52.2876 29.7124 53.4376 29.6499C55.9001 29.5249 57.9626 28.4749 60.2626 26.1874C61.0001 25.4624 61.7126 24.6499 61.8501 24.3749C62.3626 23.3624 62.6501 20.1374 62.3001 19.4624C62.2001 19.2749 62.1251 19.0124 62.1251 18.8624C62.1251 18.7249 61.9626 18.2999 61.7501 17.9249C61.5501 17.5499 61.3751 17.1749 61.3751 17.0749C61.3751 16.7374 59.2251 14.7874 58.5251 14.4874C58.1751 14.3249 57.6626 14.0499 57.4001 13.8874C57.0126 13.6249 56.6751 13.5624 55.1876 13.4249C52.1626 13.1624 51.4751 13.1624 51.0626 13.3749Z" fill="#C11515"/>
<path d="M54.225 18.5374C53.9875 18.6624 53.5375 18.9624 53.2375 19.2124C52.9375 19.4499 52.475 19.7749 52.225 19.9249C51.9625 20.0749 51.7125 20.2749 51.6625 20.3624C51.525 20.5874 50.4 21.3749 48.8125 22.3624C48.0625 22.8374 47.325 23.3124 47.1875 23.4374C47.05 23.5499 46.7375 23.7624 46.5 23.8874C46.2625 24.0124 45.925 24.2499 45.75 24.3999C45.3875 24.7124 43.375 25.6874 43.075 25.6874C42.9625 25.6874 42.5875 25.8249 42.225 25.9999C41.875 26.1749 41.2375 26.3749 40.825 26.4499C39.325 26.7374 39.075 26.8374 38.6 27.3124C38.225 27.6874 38.125 27.8749 38.125 28.2374C38.125 28.7624 38.2875 29.1374 38.675 29.4624C38.9 29.6624 39.125 29.6874 40.125 29.6624C41.1875 29.6249 41.375 29.5874 41.875 29.2624C42.1875 29.0624 42.6875 28.8499 42.975 28.7874C43.75 28.6499 45.45 27.8624 46.1875 27.3124C46.5375 27.0499 47.0625 26.7124 47.375 26.5624C47.6875 26.4124 48.15 26.0874 48.4 25.8499C48.7625 25.4999 49.0125 25.3749 49.65 25.2624L50.4375 25.1249L50.55 24.5874C50.6375 24.1499 50.775 23.9749 51.2625 23.6124C51.5875 23.3749 51.9875 23.0249 52.15 22.8374C52.3125 22.6499 52.775 22.2499 53.1875 21.9374C53.6 21.6374 54.1625 21.1499 54.45 20.8749C54.725 20.5999 55.125 20.2249 55.35 20.0374C55.65 19.7874 55.75 19.6124 55.75 19.2874C55.75 18.7624 55.65 18.6124 55.2125 18.4499C54.75 18.2749 54.75 18.2749 54.225 18.5374Z" fill="#C11515"/>
<path d="M2.1 21.9375C1.9125 22.075 1.7375 22.35 1.6875 22.5375C1.65 22.7375 1.3875 23.1875 1.125 23.55C0.65 24.1875 0.375 24.85 0.375 25.3875C0.375 25.5375 0.2875 25.9 0.1875 26.1875C0.0875 26.475 0 27.05 0 27.4625C0 28.4 0.3375 28.8125 1.1 28.8125C1.725 28.8125 2.1625 28.4 2.375 27.6125C2.4625 27.3 2.675 26.8375 2.85 26.5875C3.3875 25.8 3.525 25.35 3.4375 24.6375C3.3875 24.2875 3.4125 23.6375 3.5 23.2C3.625 22.475 3.625 22.3625 3.4 22.075C3.0875 21.65 2.525 21.5875 2.1 21.9375Z" fill="#C11515"/>
<path d="M5.59997 22.5999C5.16247 23.0124 4.93747 24.3499 5.04997 25.8749C5.16247 27.3624 5.28747 27.7999 5.78747 28.3749C6.19997 28.8499 6.19997 28.8499 6.57497 28.6499C7.11247 28.3749 7.28747 28.0374 7.53747 26.7999C7.71247 25.9624 7.72497 25.5999 7.63747 25.1749C7.56247 24.8749 7.49997 24.2749 7.49997 23.8374C7.49997 23.1249 7.46247 22.9999 7.13747 22.6749C6.67497 22.2124 6.04997 22.1874 5.59997 22.5999Z" fill="#C11515"/>
<path d="M23.8001 22.6874C23.6751 22.7374 23.2251 22.8124 22.8126 22.8624C21.2501 23.0499 20.7251 23.3124 20.4126 24.0374C20.2626 24.4124 20.2626 24.4999 20.4626 24.8499C20.7251 25.2874 21.3251 25.4999 21.9376 25.3749C22.1376 25.3374 22.9501 25.2624 23.7376 25.2124C25.0751 25.1249 25.1626 25.0999 25.4501 24.7749C25.8626 24.2874 25.8501 23.6749 25.4001 23.1749C25.0376 22.7624 24.2501 22.5249 23.8001 22.6874Z" fill="#C11515"/>
</g>
<defs>
<clipPath id="clip0_113_7331">
<rect width="160" height="29.625" fill="white" transform="translate(0 0.1875)"/>
</clipPath>
</defs>
</svg>
