<svg width="84" height="40" viewBox="0 0 84 40" fill="none" xmlns="http://www.w3.org/2000/svg">
<path d="M1.3501 24.5751V14.9418H3.24226V16.4486C3.55858 15.9712 4.01293 15.5687 4.58806 15.2351C5.16893 14.9073 5.77282 14.7405 6.39395 14.7405C8.59668 14.7405 9.69517 16.0633 9.69517 18.7031V24.5751H7.80301V18.8296C7.80301 17.179 7.12436 16.3911 5.76706 16.4601C5.28971 16.4601 4.85836 16.5636 4.47303 16.7649C4.0877 16.9662 3.78288 17.2365 3.56433 17.5816C3.34578 17.9267 3.23651 18.312 3.23651 18.7376V24.5751H1.3501Z" fill="black"/>
<path d="M16.5967 24.7592C15.6535 24.7592 14.8138 24.5406 14.0719 24.1093C13.3299 23.6779 12.7491 23.0798 12.3177 22.3264C11.8864 21.573 11.6736 20.716 11.6736 19.7498C11.6736 18.7836 11.8864 17.9267 12.3177 17.1733C12.7433 16.4198 13.3299 15.8275 14.0719 15.3904C14.8138 14.959 15.6535 14.7405 16.5967 14.7405C17.5284 14.7405 18.3623 14.959 19.0985 15.3904C19.8346 15.8217 20.4212 16.4198 20.8526 17.1733C21.2782 17.9267 21.4967 18.7836 21.4967 19.7498C21.4967 20.716 21.2839 21.5787 20.8526 22.3264C20.4212 23.0798 19.8404 23.6722 19.0985 24.1093C18.3623 24.5406 17.5284 24.7592 16.5967 24.7592ZM16.5967 23.0338C17.1718 23.0338 17.6836 22.89 18.138 22.6024C18.5923 22.3149 18.9432 21.9238 19.202 21.4292C19.4608 20.9346 19.5816 20.3767 19.5701 19.7498C19.5816 19.1114 19.4608 18.5478 19.202 18.0532C18.9432 17.5586 18.5923 17.1675 18.138 16.8857C17.6836 16.6039 17.1718 16.4659 16.5967 16.4659C16.0215 16.4659 15.5039 16.6096 15.0438 16.8972C14.5837 17.1848 14.2271 17.5758 13.9683 18.0705C13.7095 18.5651 13.5888 19.1229 13.6003 19.7498C13.5888 20.3767 13.7095 20.9346 13.9683 21.4292C14.2271 21.9238 14.5837 22.3149 15.0438 22.6024C15.5039 22.89 16.0215 23.0338 16.5967 23.0338Z" fill="black"/>
<path d="M26.4313 24.575L22.3594 14.9417H24.3953L27.2019 21.8202L30.1178 14.9417H32.0617L27.7886 24.575H26.4313Z" fill="black"/>
<path d="M37.2206 24.7591C36.4269 24.7591 35.7023 24.5405 35.0466 24.0977C34.391 23.6548 33.8676 23.0567 33.4765 22.2975C33.0854 21.5384 32.8899 20.6814 32.8899 19.7267C32.8899 18.7605 33.0912 17.9036 33.488 17.1501C33.8849 16.3967 34.4255 15.8101 35.1041 15.3788C35.7828 14.9532 36.5419 14.7346 37.3874 14.7346C38.1063 14.7346 38.7504 14.8899 39.3025 15.2005C39.8604 15.511 40.286 15.9136 40.5793 16.4025V14.9359H42.4887V24.5693H40.5793V23.0854C40.2515 23.5513 39.7799 23.9424 39.176 24.2702C38.5721 24.5923 37.9165 24.7591 37.2206 24.7591ZM37.7152 23.0107C38.2903 23.0107 38.7964 22.8726 39.2393 22.5908C39.6821 22.309 40.0272 21.9237 40.2745 21.4233C40.5276 20.9287 40.6483 20.3593 40.6483 19.7267C40.6483 19.0998 40.5218 18.5477 40.2745 18.0588C40.0215 17.57 39.6764 17.1847 39.2393 16.9028C38.7964 16.621 38.2903 16.483 37.7152 16.483C37.1516 16.483 36.6512 16.6268 36.2199 16.9028C35.7885 17.1847 35.4435 17.57 35.1904 18.0588C34.9373 18.5477 34.8166 19.1056 34.8166 19.7267C34.8166 20.3651 34.9431 20.9287 35.1904 21.4233C35.4435 21.9179 35.7828 22.309 36.2199 22.5908C36.657 22.8726 37.1516 23.0107 37.7152 23.0107Z" fill="black"/>
<path d="M48.0675 24.575L43.9956 14.9417H46.0315L48.8382 21.8202L51.7541 14.9417H53.698L49.4248 24.575H48.0675Z" fill="black"/>
<path d="M58.8568 24.7591C58.0631 24.7591 57.3385 24.5405 56.6828 24.0977C56.0272 23.6548 55.5038 23.0567 55.1128 22.2975C54.7217 21.5384 54.5261 20.6814 54.5261 19.7267C54.5261 18.7605 54.7274 17.9036 55.1243 17.1501C55.5211 16.3967 56.0617 15.8101 56.7404 15.3788C57.419 14.9532 58.1839 14.7346 59.0236 14.7346C59.7483 14.7346 60.3867 14.8899 60.9388 15.2005C61.4967 15.511 61.9222 15.9136 62.2156 16.4025V14.9359H64.125V24.5693H62.2156V23.0854C61.8877 23.5513 61.4161 23.9424 60.8122 24.2702C60.2026 24.5923 59.5527 24.7591 58.8568 24.7591ZM59.3514 23.0107C59.9266 23.0107 60.4327 22.8726 60.8755 22.5908C61.3184 22.309 61.6634 21.9237 61.9107 21.4233C62.1638 20.9287 62.2846 20.3593 62.2846 19.7267C62.2846 19.0998 62.158 18.5477 61.9107 18.0588C61.6577 17.57 61.3126 17.1847 60.8755 16.9028C60.4327 16.621 59.9266 16.483 59.3514 16.483C58.7878 16.483 58.2932 16.6268 57.8561 16.9028C57.419 17.1847 57.0797 17.57 56.8266 18.0588C56.5736 18.5477 56.4528 19.1056 56.4528 19.7267C56.4528 20.3651 56.5793 20.9287 56.8266 21.4233C57.0797 21.9179 57.419 22.309 57.8561 22.5908C58.2874 22.8726 58.7878 23.0107 59.3514 23.0107Z" fill="black"/>
<path d="M65.7354 24.575L69.4392 19.7497L65.7124 14.9417H68.0992L70.7045 18.3349L72.9072 14.9417H75.1445L71.7512 19.6922L75.478 24.575H73.166L70.5262 21.1415L67.9784 24.575H65.7354Z" fill="black"/>
<path fill-rule="evenodd" clip-rule="evenodd" d="M49.8675 28.6642C49.5857 28.6585 49.3557 28.4284 49.3614 28.1466C49.3672 27.8648 49.5972 27.6347 49.879 27.6405C50.1609 27.6462 50.3909 27.8763 50.3852 28.1581C50.3852 28.4399 50.1551 28.67 49.8675 28.6642Z" fill="#FAAE3F"/>
<path fill-rule="evenodd" clip-rule="evenodd" d="M53.3874 31.4881C53.3931 31.0049 53.0078 30.6081 52.5189 30.6024C52.0358 30.5966 51.639 30.9819 51.6275 31.4708C51.6218 31.9539 52.0071 32.3507 52.4959 32.3622C52.9848 32.3622 53.3816 31.9712 53.3874 31.4881Z" fill="#FAAE3F"/>
<path fill-rule="evenodd" clip-rule="evenodd" d="M57.0682 34.0243C57.074 33.3917 56.5679 32.8683 55.9352 32.8626C55.3026 32.8568 54.7792 33.363 54.7735 33.9956C54.7677 34.6282 55.2738 35.1516 55.9065 35.1573C56.5391 35.1688 57.0567 34.657 57.0682 34.0243Z" fill="#FAAE3F"/>
<path fill-rule="evenodd" clip-rule="evenodd" d="M61.0998 35.5829C61.1113 34.9043 60.5649 34.3406 59.8805 34.3349C59.2019 34.3234 58.6383 34.8698 58.6325 35.5542C58.621 36.2328 59.1674 36.7964 59.8518 36.8022C60.5304 36.8079 61.0883 36.2673 61.0998 35.5829Z" fill="url(#paint0_linear_113_7385)"/>
<path fill-rule="evenodd" clip-rule="evenodd" d="M65.2235 36.0603C65.2292 35.4335 64.7289 34.9158 64.0962 34.9043C63.4694 34.8986 62.9517 35.399 62.9402 36.0316C62.9345 36.6585 63.4348 37.1761 64.0675 37.1876C64.7001 37.1933 65.2177 36.6872 65.2235 36.0603Z" fill="url(#paint1_linear_113_7385)"/>
<path fill-rule="evenodd" clip-rule="evenodd" d="M69.1746 35.4277C69.1803 34.9331 68.7835 34.5305 68.2946 34.5247C67.8 34.519 67.3974 34.9158 67.3917 35.4047C67.3859 35.8993 67.7827 36.3019 68.2716 36.3076C68.7605 36.3191 69.1688 35.9223 69.1746 35.4277Z" fill="url(#paint2_linear_113_7385)"/>
<path fill-rule="evenodd" clip-rule="evenodd" d="M72.7864 33.7254C72.7922 33.386 72.5161 33.1042 72.1768 33.0985C71.8375 33.0927 71.5556 33.3688 71.5499 33.7081C71.5441 34.0474 71.8202 34.3292 72.1595 34.335C72.5046 34.335 72.7807 34.0647 72.7864 33.7254Z" fill="url(#paint3_linear_113_7385)"/>
<path fill-rule="evenodd" clip-rule="evenodd" d="M75.9207 31.0683C75.9207 30.8268 75.7309 30.6255 75.4836 30.6255C75.2421 30.6255 75.0408 30.8153 75.0408 31.0626C75.0408 31.3041 75.2306 31.5054 75.4779 31.5054C75.7194 31.5054 75.9207 31.3099 75.9207 31.0683Z" fill="url(#paint4_linear_113_7385)"/>
<path fill-rule="evenodd" clip-rule="evenodd" d="M78.4225 27.652C78.4225 27.4162 78.2384 27.2264 78.0026 27.2264C77.7668 27.2207 77.577 27.4105 77.5713 27.6463C77.5713 27.8821 77.7553 28.0719 77.9911 28.0776C78.2269 28.0719 78.4167 27.8821 78.4225 27.652Z" fill="url(#paint5_linear_113_7385)"/>
<path fill-rule="evenodd" clip-rule="evenodd" d="M80.0789 23.6951C80.0846 23.396 79.8431 23.1487 79.544 23.1487C79.245 23.1487 78.9977 23.3845 78.9977 23.6835C78.9919 23.9826 79.2335 24.2242 79.5325 24.2299C79.8316 24.2357 80.0731 23.9941 80.0789 23.6951Z" fill="url(#paint6_linear_113_7385)"/>
<path fill-rule="evenodd" clip-rule="evenodd" d="M80.7518 19.4795C80.7576 19.0596 80.424 18.7146 80.0041 18.7088C79.5843 18.7031 79.2392 19.0366 79.2335 19.4565C79.2277 19.8763 79.5613 20.2214 79.9811 20.2271C80.401 20.2329 80.7461 19.8993 80.7518 19.4795Z" fill="url(#paint7_linear_113_7385)"/>
<path fill-rule="evenodd" clip-rule="evenodd" d="M80.3492 15.2868C80.3549 14.729 79.9121 14.2746 79.3542 14.2689C78.7963 14.2631 78.342 14.7059 78.3362 15.2638C78.3305 15.8217 78.7733 16.276 79.3312 16.2818C79.8891 16.2875 80.3434 15.8447 80.3492 15.2868Z" fill="url(#paint8_linear_113_7385)"/>
<path fill-rule="evenodd" clip-rule="evenodd" d="M78.8137 11.4104C78.8195 10.7548 78.2961 10.2142 77.6347 10.2027C76.9791 10.1969 76.4384 10.7203 76.4269 11.3759C76.4154 12.0316 76.9446 12.5722 77.6059 12.5837C78.2616 12.5952 78.8022 12.0661 78.8137 11.4104Z" fill="url(#paint9_linear_113_7385)"/>
<path fill-rule="evenodd" clip-rule="evenodd" d="M76.2543 8.11506C76.2658 7.39615 75.6907 6.80952 74.9717 6.79802C74.2528 6.78652 73.6662 7.36164 73.6547 8.08055C73.6432 8.79946 74.2183 9.38609 74.9372 9.39759C75.6504 9.40334 76.2428 8.82822 76.2543 8.11506Z" fill="url(#paint10_linear_113_7385)"/>
<path fill-rule="evenodd" clip-rule="evenodd" d="M72.9129 5.61907C72.9244 4.8484 72.3033 4.21576 71.5326 4.20426C70.762 4.19276 70.1293 4.81389 70.1178 5.58456C70.1063 6.35523 70.7275 6.98787 71.4981 6.99937C72.2746 7.00512 72.9072 6.38974 72.9129 5.61907Z" fill="url(#paint11_linear_113_7385)"/>
<path fill-rule="evenodd" clip-rule="evenodd" d="M69.0193 4.10067C69.0308 3.28975 68.3809 2.62835 67.5758 2.61685C66.7648 2.60535 66.1034 3.25524 66.0919 4.06042C66.0804 4.87134 66.7303 5.53274 67.5355 5.54424C68.3464 5.55574 69.0136 4.90585 69.0193 4.10067Z" fill="url(#paint12_linear_113_7385)"/>
<path fill-rule="evenodd" clip-rule="evenodd" d="M64.7978 3.66353C64.8093 2.85835 64.1651 2.19696 63.3542 2.18545C62.549 2.17395 61.8876 2.81809 61.8761 3.62902C61.8646 4.4342 62.5088 5.09559 63.3197 5.10709C64.1249 5.1186 64.7863 4.4687 64.7978 3.66353Z" fill="url(#paint13_linear_113_7385)"/>
<path fill-rule="evenodd" clip-rule="evenodd" d="M60.5303 4.33633C60.5418 3.57141 59.9264 2.94452 59.1615 2.93302C58.3966 2.92152 57.7697 3.5369 57.7582 4.29607C57.7467 5.05523 58.3621 5.68787 59.127 5.69938C59.8919 5.71088 60.5188 5.09549 60.5303 4.33633Z" fill="url(#paint14_linear_113_7385)"/>
<path fill-rule="evenodd" clip-rule="evenodd" d="M56.4815 6.07334C56.4873 5.4062 55.9582 4.85408 55.2853 4.84833C54.6181 4.83682 54.066 5.37169 54.0602 6.04459C54.0487 6.71173 54.5836 7.26385 55.2565 7.26961C55.9236 7.27536 56.4758 6.74049 56.4815 6.07334Z" fill="url(#paint15_linear_113_7385)"/>
<path fill-rule="evenodd" clip-rule="evenodd" d="M52.8755 8.75346C52.8812 8.2646 52.4901 7.86202 52.0013 7.85626C51.5124 7.85051 51.1098 8.2416 51.1041 8.73045C51.0983 9.21931 51.4894 9.6219 51.9783 9.62765C52.4671 9.6334 52.8697 9.24232 52.8755 8.75346Z" fill="url(#paint16_linear_113_7385)"/>
<path fill-rule="evenodd" clip-rule="evenodd" d="M50.0171 12.1925C50.0229 11.9107 49.7928 11.6807 49.5167 11.6749C49.2349 11.6692 49.0049 11.8992 48.9991 12.1753C48.9934 12.4571 49.2234 12.6871 49.4995 12.6929C49.7813 12.6986 50.0114 12.4743 50.0171 12.1925Z" fill="url(#paint17_linear_113_7385)"/>
<defs>
<linearGradient id="paint0_linear_113_7385" x1="61.0978" y1="35.6453" x2="58.6314" y2="35.4924" gradientUnits="userSpaceOnUse">
<stop stop-color="#F67532"/>
<stop offset="1" stop-color="#F99B3B"/>
</linearGradient>
<linearGradient id="paint1_linear_113_7385" x1="65.224" y1="36.0439" x2="62.9446" y2="36.0439" gradientUnits="userSpaceOnUse">
<stop stop-color="#EE5926"/>
<stop offset="1" stop-color="#F25D2A"/>
</linearGradient>
<linearGradient id="paint2_linear_113_7385" x1="69.0185" y1="34.9362" x2="67.5375" y2="35.9036" gradientUnits="userSpaceOnUse">
<stop stop-color="#EE5926"/>
<stop offset="1" stop-color="#EE5926"/>
</linearGradient>
<linearGradient id="paint3_linear_113_7385" x1="72.4745" y1="33.2438" x2="71.893" y2="34.1426" gradientUnits="userSpaceOnUse">
<stop stop-color="#EE5926"/>
<stop offset="1" stop-color="#EE5926"/>
</linearGradient>
<linearGradient id="paint4_linear_113_7385" x1="75.4822" y1="30.6228" x2="75.4822" y2="31.5023" gradientUnits="userSpaceOnUse">
<stop stop-color="#D3523D"/>
<stop offset="1" stop-color="#D75436"/>
</linearGradient>
<linearGradient id="paint5_linear_113_7385" x1="77.9967" y1="27.22" x2="77.9967" y2="28.0661" gradientUnits="userSpaceOnUse">
<stop stop-color="#6B3487"/>
<stop offset="1" stop-color="#703682"/>
</linearGradient>
<linearGradient id="paint6_linear_113_7385" x1="79.5371" y1="23.1492" x2="79.5371" y2="24.2294" gradientUnits="userSpaceOnUse">
<stop stop-color="#66368A"/>
<stop offset="1" stop-color="#693587"/>
</linearGradient>
<linearGradient id="paint7_linear_113_7385" x1="79.9907" y1="18.7089" x2="79.9907" y2="20.228" gradientUnits="userSpaceOnUse">
<stop stop-color="#473E8D"/>
<stop offset="1" stop-color="#523D8C"/>
</linearGradient>
<linearGradient id="paint8_linear_113_7385" x1="79.1604" y1="14.2679" x2="79.5243" y2="16.2816" gradientUnits="userSpaceOnUse">
<stop stop-color="#294390"/>
<stop offset="1" stop-color="#36438F"/>
</linearGradient>
<linearGradient id="paint9_linear_113_7385" x1="77.0871" y1="10.3511" x2="78.1327" y2="12.393" gradientUnits="userSpaceOnUse">
<stop stop-color="#204093"/>
<stop offset="1" stop-color="#224295"/>
</linearGradient>
<linearGradient id="paint10_linear_113_7385" x1="73.8929" y1="7.28618" x2="75.9553" y2="8.86477" gradientUnits="userSpaceOnUse">
<stop stop-color="#204093"/>
<stop offset="1" stop-color="#204093"/>
</linearGradient>
<linearGradient id="paint11_linear_113_7385" x1="70.2518" y1="5.08068" x2="72.8877" y2="6.15595" gradientUnits="userSpaceOnUse">
<stop stop-color="#1C4A9D"/>
<stop offset="1" stop-color="#204093"/>
</linearGradient>
<linearGradient id="paint12_linear_113_7385" x1="69.0268" y1="4.17103" x2="66.098" y2="3.98769" gradientUnits="userSpaceOnUse">
<stop stop-color="#204093"/>
<stop offset="1" stop-color="#116AB6"/>
</linearGradient>
<linearGradient id="paint13_linear_113_7385" x1="61.8745" y1="3.64523" x2="64.7952" y2="3.64523" gradientUnits="userSpaceOnUse">
<stop stop-color="#078CD1"/>
<stop offset="1" stop-color="#0B75C0"/>
</linearGradient>
<linearGradient id="paint14_linear_113_7385" x1="60.5338" y1="4.0212" x2="57.7661" y2="4.60934" gradientUnits="userSpaceOnUse">
<stop stop-color="#0197D9"/>
<stop offset="1" stop-color="#02A9E8"/>
</linearGradient>
<linearGradient id="paint15_linear_113_7385" x1="54.3274" y1="6.80092" x2="56.2136" y2="5.31312" gradientUnits="userSpaceOnUse">
<stop stop-color="#00B6F0"/>
<stop offset="1" stop-color="#00AFEC"/>
</linearGradient>
<linearGradient id="paint16_linear_113_7385" x1="52.3346" y1="7.9981" x2="51.5819" y2="9.6137" gradientUnits="userSpaceOnUse">
<stop stop-color="#02B1EE"/>
<stop offset="1" stop-color="#00B6F0"/>
</linearGradient>
<linearGradient id="paint17_linear_113_7385" x1="48.9977" y1="12.1857" x2="50.0157" y2="12.1857" gradientUnits="userSpaceOnUse">
<stop stop-color="#00B6F0"/>
<stop offset="1" stop-color="#00B6F0"/>
</linearGradient>
</defs>
</svg>
