<?xml version="1.0" encoding="UTF-8"?>
<svg width="512px" height="512px" viewBox="0 0 512 512" version="1.1" xmlns="http://www.w3.org/2000/svg" xmlns:xlink="http://www.w3.org/1999/xlink">
    <!-- Generator: Sketch 48.1 (47250) - http://www.bohemiancoding.com/sketch -->
    <title>#NVDA</title>
    <desc>Created with Sketch.</desc>
    <defs></defs>
    <g id="Компании-BIG" stroke="none" stroke-width="1" fill="none" fill-rule="evenodd">
        <g id="#NVDA" fill="#77B900" fill-rule="nonzero">
            <g id="nvidia" transform="translate(1.000000, 81.000000)">
                <path d="M53.680128,146.255872 C53.680128,146.255872 99.76832,78.256128 191.791104,71.221248 L191.791104,46.55104 C89.864192,54.736896 1.599488,141.064192 1.599488,141.064192 C1.599488,141.064192 51.591168,285.579264 191.791104,298.81344 L191.791104,272.590848 C88.905728,259.647488 53.680128,146.255872 53.680128,146.255872 Z M191.791104,220.440576 L191.791104,244.457472 C114.03264,230.592512 92.448768,149.764096 92.448768,149.764096 C92.448768,149.764096 129.783808,108.404736 191.791104,101.697536 L191.791104,128.049152 C191.744,128.049152 191.711232,128.034816 191.67232,128.034816 C159.127552,124.12928 133.70368,154.53184 133.70368,154.53184 C133.70368,154.53184 147.953664,205.71136 191.791104,220.440576 Z M191.791104,1.048576 L191.791104,46.55104 C194.783232,46.321664 197.77536,46.127104 200.783872,46.024704 C316.663808,42.119168 392.167424,141.064192 392.167424,141.064192 C392.167424,141.064192 305.44896,246.511616 215.103488,246.511616 C206.823424,246.511616 199.071744,245.743616 191.791104,244.453376 L191.791104,272.590848 C198.230495,273.418361 204.715852,273.836992 211.208192,273.844224 C295.28064,273.844224 356.079616,230.907904 414.951424,180.09088 C424.712192,187.908096 464.672768,206.925824 472.887296,215.248896 C416.91136,262.115328 286.455808,299.892736 212.496384,299.892736 C205.367296,299.892736 198.520832,299.460608 191.791104,298.811392 L191.791104,338.35008 L511.34464,338.35008 L511.34464,1.048576 L191.791104,1.048576 Z M191.791104,101.695488 L191.791104,71.223296 C194.752512,71.016448 197.736448,70.856704 200.783872,70.760448 C284.112896,68.143104 338.782208,142.368768 338.782208,142.368768 C338.782208,142.368768 279.734272,224.374784 216.4224,224.374784 C207.310848,224.374784 199.141376,222.910464 191.789056,220.438528 L191.789056,128.047104 C224.229376,131.966976 230.7584,146.296832 250.261504,178.808832 L293.640192,142.2336 C293.640192,142.2336 261.976064,100.706304 208.59904,100.706304 C202.795008,100.704256 197.24288,101.111808 191.791104,101.695488 Z" id="Shape"></path>
            </g>
        </g>
    </g>
</svg>