<svg width="25" height="36" viewBox="0 0 25 36" fill="none" xmlns="http://www.w3.org/2000/svg">
    <g clip-path="url(#clip0_222:302)">
        <path d="M6.06808 23.5155C5.63002 23.5155 5.20463 23.5917 4.90498 23.7219L4.87085 23.7342V24.5278L4.94891 24.4886C5.1515 24.3907 5.63604 24.3012 5.94009 24.3012C6.69737 24.3012 6.73056 24.5898 6.73276 24.9646H5.92335C4.85157 24.9646 4.36361 25.6366 4.36361 26.2592C4.36361 27.1277 5.05449 27.5787 5.74003 27.5787C6.20717 27.5787 6.5011 27.404 6.73846 27.1938V27.4963H7.59212V24.8615C7.59212 23.6466 6.52575 23.5154 6.06807 23.5154L6.06808 23.5155ZM6.73276 26.3581C6.63384 26.4801 6.32378 26.8025 5.84086 26.8025C5.47012 26.8025 5.23276 26.5892 5.23276 26.2592C5.23276 25.921 5.50331 25.7264 5.97454 25.7264H6.73276V26.3581ZM24.0609 24.3644V26.3631C24.0609 26.7213 24.2293 26.7889 24.5426 26.7889C24.7205 26.7889 24.8567 26.7538 24.9256 26.7352L24.9958 26.7118V27.4807L24.9515 27.4902C24.6936 27.5569 24.4743 27.5787 24.1503 27.5787C23.9265 27.5787 23.2006 27.5051 23.2006 26.5471V24.3644H22.6491V24.3126C22.6469 24.2756 22.6469 24.012 22.6491 23.7661V23.5973H23.2006V22.6134L24.0609 22.3113V23.5973H24.9958V24.3644L24.0609 24.3644ZM3.06637 22.3431H3.90898V27.4963H3.08977L0.840994 23.9074V27.4963H-0.000366211V22.3431H0.839994L3.06637 25.9592V22.3431ZM22.5646 26.4112C22.5646 26.9956 22.0561 27.5866 21.088 27.5866C20.6632 27.5866 20.1942 27.4814 19.8576 27.3189L19.8269 27.3037V26.4668L19.9069 26.5104C20.1875 26.6612 20.6367 26.8214 21.0652 26.8214C21.4562 26.8214 21.6809 26.6814 21.6809 26.4364C21.6809 26.2067 21.5431 26.1355 21.203 25.9851L21.069 25.9279C20.9044 25.8568 20.7602 25.7936 20.5232 25.6845C20.296 25.5821 19.7653 25.3429 19.7653 24.6311C19.7653 24.2486 20.0589 23.5284 21.1613 23.5284C21.6164 23.5284 22.0665 23.6513 22.2438 23.7373L22.2754 23.7528V24.5749L22.1955 24.5372C21.8437 24.3634 21.5346 24.2828 21.1923 24.2828C21.0662 24.2828 20.6493 24.3077 20.6493 24.5992C20.6493 24.8204 20.9119 24.9361 21.124 25.0315L21.1648 25.0489C21.3178 25.1162 21.4379 25.1725 21.5412 25.213L21.6522 25.2607C22.3162 25.5508 22.5646 25.8609 22.5646 26.4112L22.5646 26.4112ZM17.7472 23.5274C17.0891 23.5274 15.9778 23.9563 15.9778 25.5654C15.9778 27.4814 17.5022 27.5787 17.8078 27.5787C18.4548 27.5787 18.7437 27.4438 19.0278 27.3113L19.0588 27.2968V26.4817L18.977 26.531C18.7706 26.6599 18.3711 26.8044 17.9232 26.8044C17.0171 26.8044 16.8891 26.1564 16.8774 25.8837H19.3683L19.3731 25.8397C19.4521 25.3021 19.3743 24.5489 18.9328 24.0366C18.6408 23.6991 18.2413 23.5275 17.7473 23.5275L17.7472 23.5274ZM16.8775 25.1432C16.8996 24.7756 17.1594 24.2958 17.7084 24.2958C18.3045 24.2958 18.4859 24.822 18.5055 25.1432H16.8775ZM15.983 22.3431L14.9498 27.4963H14.0724L13.1593 23.908L12.2311 27.4963H11.3682L10.2879 22.3431H11.1884L11.8887 25.8398L12.7588 22.3431H13.5986C13.682 22.67 14.4706 25.7962 14.4807 25.8354C14.4867 25.7936 15.1012 22.4576 15.1226 22.3431H15.983ZM10.186 23.5973V24.3644H9.25138V26.3631C9.25138 26.7197 9.42015 26.7889 9.73211 26.7889C9.91416 26.7889 10.0513 26.7538 10.1164 26.7339L10.186 26.7118V27.4807L10.1471 27.4902C9.88477 27.5569 9.66542 27.5787 9.34209 27.5787C9.11831 27.5787 8.38825 27.5051 8.38825 26.5471V24.3644H7.83959V24.3125C7.83894 24.2756 7.83894 24.012 7.83959 23.7661V23.5973H8.38825V22.6134L9.2514 22.3113V23.5973L10.186 23.5973Z" fill="#42145F"/>
        <path d="M7.53977 31.6607H5.79451V32.211H6.87163V33.791C6.71455 33.87 6.40765 33.9326 5.95978 33.9326C4.72524 33.9326 3.91547 33.1386 3.91547 31.7944C3.91547 30.4657 4.75683 29.6638 6.04607 29.6638C6.58053 29.6638 6.93452 29.7662 7.21737 29.892L7.38267 29.3338C7.15447 29.2238 6.67499 29.0901 6.06184 29.0901C4.28529 29.0901 3.20022 30.2456 3.19232 31.8256C3.19232 32.6512 3.47551 33.3589 3.93125 33.7989C4.45021 34.2941 5.11045 34.4986 5.91237 34.4986C6.62795 34.4986 7.2332 34.3178 7.53975 34.2078L7.53977 31.6607ZM8.2079 34.4437H8.89184V32.4154C8.89184 32.2976 8.90764 32.1876 8.92345 32.0931C9.01763 31.5744 9.36372 31.2046 9.85109 31.2046C9.94527 31.2046 10.0161 31.2125 10.0869 31.2283V30.5757C10.024 30.5602 9.96899 30.5523 9.89029 30.5523C9.42631 30.5523 9.00974 30.8747 8.83686 31.3858H8.80526L8.78187 30.6389H8.17662C8.20002 30.9926 8.20791 31.3776 8.20791 31.8257L8.2079 34.4437ZM11.9602 30.5523C10.9068 30.5523 10.0733 31.2991 10.0733 32.5726C10.0733 33.7755 10.8676 34.5303 11.8973 34.5303C12.817 34.5303 13.7918 33.9172 13.7918 32.5097C13.7918 31.3463 13.0529 30.5523 11.9602 30.5523ZM11.9444 31.071C12.7621 31.071 13.0844 31.8886 13.0844 32.5334C13.0844 33.3902 12.5892 34.0113 11.9286 34.0113C11.2526 34.0113 10.7731 33.3823 10.7731 32.5492C10.7731 31.8257 11.1268 31.071 11.9444 31.071ZM17.462 30.6389H16.7702V32.9737C16.7702 33.0995 16.7468 33.2253 16.7076 33.3274C16.5818 33.6339 16.2594 33.9563 15.7954 33.9563C15.1668 33.9563 14.9465 33.4689 14.9465 32.7458V30.6389H14.2547V32.8636C14.2547 34.1999 14.9702 34.5302 15.5675 34.5302C16.2436 34.5302 16.6447 34.1291 16.8255 33.8226H16.841L16.8805 34.4436H17.4936C17.4699 34.1449 17.462 33.7989 17.462 33.406V30.6389ZM18.1918 36H18.8754V33.9323H18.8915C19.1191 34.3097 19.5594 34.53 20.0625 34.53C20.9589 34.53 21.792 33.8539 21.792 32.4857C21.792 31.3302 21.1002 30.5519 20.1804 30.5519C19.5594 30.5519 19.1115 30.8269 18.8283 31.2909H18.8128L18.7812 30.6385H18.1602C18.176 31.0001 18.1918 31.3932 18.1918 31.8803L18.1918 36ZM18.8754 32.2423C18.8754 32.1478 18.8991 32.0457 18.9228 31.9591C19.0565 31.4405 19.4968 31.1023 19.9684 31.1023C20.6994 31.1023 21.1002 31.7549 21.1002 32.5173C21.1002 33.39 20.676 33.9876 19.9447 33.9876C19.4494 33.9876 19.0328 33.6573 18.907 33.1776C18.8915 33.0913 18.8754 32.9971 18.8754 32.8947L18.8754 32.2423Z" fill="#42145F"/>
        <path d="M12.4964 5.36755H6.29895L7.85434 8.05671H10.9432L12.4953 10.7372H15.5951L12.4964 5.36755Z" fill="#BE8CAF"/>
        <path d="M17.1472 13.4347L20.253 8.07164L17.1464 8.07007L15.5985 10.7431L12.5011 10.743L10.9478 13.4255L17.1472 13.4347Z" fill="#D1AFC7"/>
        <path d="M7.84369 13.4081L10.8999 18.7997L12.4723 16.1205L10.9491 13.4333L12.5155 10.7612L10.987 8.06458L7.84369 13.4081Z" fill="#E3CCDC"/>
        <path d="M23.3465 13.4223L20.2475 8.05518L17.1497 13.4198H10.9518L14.0492 18.7904H20.2492L23.3466 13.4223H23.3465Z" fill="#A32AE1"/>
        <path d="M7.84965 13.4188H7.85015L10.9469 8.0542H4.74947L1.65204 13.4188H1.65154L1.65009 13.4213L4.74942 18.7894H10.9484L7.8497 13.4188L7.84965 13.4188Z" fill="#A32AE1"/>
        <path d="M18.6964 5.36808L15.5974 0.000976562H15.5979H9.39938L6.30225 5.36558H12.5002L15.5993 10.7347L18.6964 5.36808Z" fill="#A32AE1"/>
        <path d="M20.2477 8.05469L23.3467 13.4218L20.2493 18.7899L17.1503 13.4193L20.2477 8.05469Z" fill="#5E10B1"/>
        <path d="M10.9482 18.7904H4.74869L1.64966 13.4218L1.65111 13.4197H7.84957L10.9483 18.7903L10.9482 18.7904Z" fill="#5E10B1"/>
        <path d="M12.4999 5.36511L15.5989 10.7342L18.6963 5.36761L15.5973 0L12.4999 5.36511Z" fill="#5E10B1"/>
    </g>
    <defs>
        <clipPath id="clip0_222:302">
            <rect width="24.9958" height="36" fill="white"/>
        </clipPath>
    </defs>
</svg>
