<svg width="160" height="40" viewBox="0 0 160 40" fill="none" xmlns="http://www.w3.org/2000/svg">
<g clip-path="url(#clip0_113_7434)">
<mask id="mask0_113_7434" style="mask-type:luminance" maskUnits="userSpaceOnUse" x="0" y="0" width="160" height="40">
<path d="M0.0800781 0.218905H159.92V39.7808H0.0800781V0.218905Z" fill="white"/>
</mask>
<g mask="url(#mask0_113_7434)">
<mask id="mask1_113_7434" style="mask-type:luminance" maskUnits="userSpaceOnUse" x="0" y="0" width="160" height="40">
<path d="M0.064209 39.7808H159.926V0.0961066H0.064209V39.7808Z" fill="white"/>
</mask>
<g mask="url(#mask1_113_7434)">
<path d="M104.836 23.125C104.381 23.125 104.2 22.6005 104.719 22.0038C106.377 20.8252 107.029 20.4617 107.119 20.4171C108.187 20.4171 106.14 23.125 104.836 23.125ZM159.274 17.2042C159.179 17.124 159.084 17.0612 158.989 17.0069C158.967 16.9904 158.948 16.9739 158.922 16.9574C158.09 16.4221 157.18 16.6602 157.18 16.6602C157.18 16.6602 157.351 16.9713 156.505 17.662C156.453 17.7047 156.414 17.7422 156.383 17.777C156.358 17.7968 156.334 17.8167 156.31 17.8365C153.231 20.3434 149.125 22.3317 144.844 23.1703C146.229 22.3572 149.508 19.2592 147.23 17.5883C145.901 16.6138 143.546 17.0417 141.323 18.1573C141.581 17.7422 142.192 16.8575 141.946 15.7946C141.699 14.7317 139.663 14.4236 138.533 14.825C138.496 15.9238 138.32 16.5086 138.128 16.75C133.144 21.1322 126.622 23.4601 126.089 22.9274C125.654 22.4938 127.113 20.7859 127.598 20.1041C128.002 19.5351 128.012 18.8432 127.726 18.3217C127.278 17.507 126.44 17.4591 124.895 17.7968C122.757 18.1607 121.241 17.3966 119.964 15.4524C119.337 14.4989 117.814 14.6902 117.03 15.2121C117.225 15.8279 117.172 16.4509 116.987 17.0814C115.675 20.1191 111.716 20.1401 110.219 19.109C110.005 18.4733 109.443 17.2985 108.313 17.1263C104.818 16.5928 103.617 18.7343 103.044 19.3868C101.803 20.8024 93.3992 24.4762 91.4348 22.8817C89.989 21.7087 91.2046 17.4404 93.9638 13.1657C98.0547 6.71244 99.9083 6.78807 100.562 7.44099C100.966 7.84458 101.362 8.73935 100.54 10.3211C100.48 10.4353 100.422 10.5416 100.364 10.6461C98.9502 12.9628 98.3999 12.8448 98.3999 12.8448C97.9383 14.2364 98.5287 14.9953 98.9656 15.3442C99.438 15.8092 100.117 15.6505 100.324 15.5793C101.017 15.3416 101.446 14.7351 101.843 14.1196C103.821 11.056 105.054 6.18606 101.814 4.42496C99.4949 3.16441 95.5905 4.86673 91.2701 11.8583C87.4327 18.0686 86.3473 22.9592 89.1144 25.277C92.4827 28.098 99.562 24.3759 101.891 23.2988C101.826 23.7694 102.009 26.1283 104.348 25.9958C107.342 25.8202 109.194 23.243 109.99 21.9278C111.157 22.6028 116.268 23.5706 119.369 18.9188C119.703 19.2011 121.57 20.5571 124.06 20.5571C123.179 22.1666 122.047 24.0973 123.721 25.4215C126.069 27.2773 134.113 22.8083 136.456 21.431C135.125 23.8506 132.809 29.3226 130.471 34.175C129.509 36.1727 128.167 38.8581 129.58 39.5721C130.677 40.1265 132.324 39.5541 132.572 38.1165C132.897 36.2359 134.715 30.9908 136.006 28.1519C138.457 22.7065 140.662 19.8859 144.385 19.8859C144.154 20.3299 144.084 20.6788 142.847 21.9132C141.498 23.2598 139.991 23.1827 140.068 24.6353C140.113 25.4911 140.991 25.7319 141.236 25.7981C143.178 26.3212 148.554 24.7267 150.689 23.9468C153.145 23.0502 156.485 21.4107 158.956 19.8376C160.122 19.0948 160.233 18.0132 159.274 17.2042ZM75.3483 11.734C73.281 11.8868 70.7794 12.5723 69.852 14.6456C69.0841 16.3603 69.6892 18.1675 71.3001 20.197C72.3334 21.4564 73.2787 22.5294 73.5476 22.8214C72.8044 22.9779 71.1856 22.9214 69.5604 22.6245C69.5544 22.6234 69.5469 22.6222 69.5402 22.6207C69.1691 22.5522 68.7989 22.4702 68.438 22.3766C67.5204 22.0872 67.2684 21.7181 67.2684 21.7181L67.1344 21.8162C67.1344 21.8125 67.1344 21.8102 67.1344 21.8102L67.2684 21.7181C66.6473 21.8035 66.131 22.2348 65.7649 22.7106C65.3987 23.1864 65.0221 24.107 65.3414 24.5492C65.6136 24.9258 66.1539 25.1325 67.1823 25.1673C68.7719 25.2422 73.0549 25.8079 74.6378 25.9846C75.8597 26.1212 76.6815 25.2362 76.9215 24.6533C77.2453 23.8768 76.9118 23.0206 76.5014 22.5474C74.4693 20.2026 71.6228 17.6414 72.6558 15.5003C73.129 14.5191 75.4154 14.7168 76.1701 14.9406C77.7807 15.4195 78.58 14.8369 78.9462 13.7591C79.182 13.0661 78.7608 11.4821 75.3483 11.734ZM33.4646 14.433C33.7536 14.7216 33.1366 15.3719 32.5934 15.7246C31.1029 16.6909 29.602 17.251 28.5313 17.6467C29.6934 15.2697 33.058 13.868 33.4646 14.433ZM67.9992 19.6216C68.8116 19.1674 69.1366 18.2274 68.4866 17.449C67.8367 16.671 66.5514 16.7358 65.9779 17.0821C65.4983 17.3711 64.9416 17.8702 63.2872 17.9556C61.7298 18.0357 61.1038 17.3681 60.1199 17.3681C59.0196 17.3681 58.5756 18.1394 57.2136 19.8342C56.5195 20.6972 54.9594 22.6818 54.2458 22.6818C53.6408 22.6818 53.4102 20.9428 53.4102 18.6811C53.4102 17.6534 52.9568 16.82 51.7858 16.8979C50.8109 16.9627 50.6484 18.2274 50.1388 18.8211C48.6125 20.5968 47.3856 22.3325 46.7623 22.3325C45.994 22.3325 45.6979 20.6552 45.6979 19.3621C45.6979 19.3621 45.9371 17.3195 44.0851 16.9627C43.2798 16.8081 42.4426 17.254 42.4426 17.254C42.519 17.4086 42.5419 17.5681 42.5269 17.7276C42.2921 18.5841 40.6823 19.8069 40.6823 19.8069C38.9601 21.0678 35.5218 23.2842 32.4208 23.4485C28.7982 23.6406 28.164 21.7394 28.0375 20.9091C31.1595 19.7646 33.241 18.4591 34.5873 17.4168C36.0164 16.3109 36.9598 15.0855 36.8767 13.886C36.7636 12.2623 35.2882 11.6753 34.1182 11.6753C31.6001 11.6753 27.4205 12.7595 25.4104 18.273C24.978 18.4123 23.9522 18.419 23.4052 18.2771C22.6759 18.0873 22.6876 17.7758 22.6876 17.7758C22.0047 17.9518 21.71 18.2854 21.4701 18.8762C21.0856 19.8215 21.5936 20.6358 22.3742 21.0689C22.9391 21.3827 23.8328 21.5815 25.0945 21.4332C25.2719 23.1044 26.3831 26.1534 32.3141 25.9232C37.0246 25.7405 42.5385 21.8712 43.0334 21.5687C43.2427 22.5343 43.9076 25.9973 45.9102 25.9973C48.3156 25.9973 50.7824 22.4126 50.7824 22.4126C50.7824 22.4126 51.4099 26.0209 53.8273 26.0209C55.8437 26.0209 58.3745 22.8858 59.0057 22.1393C59.531 21.5178 60.5508 20.3235 61.1083 20.3235C61.6538 20.2311 62.7346 20.9532 65.8323 20.3359C65.9019 20.322 67.3017 20.0113 67.9992 19.6216ZM29.6002 2.21909C29.8169 1.64703 29.629 0.951056 29.2737 0.684869C28.0933 -0.199051 27.0222 0.294386 26.2214 1.17007C25.282 2.19775 24.0619 4.42646 23.5456 5.25909C18.8029 12.9107 15.1875 21.088 15.1875 21.088C15.1875 21.088 13.9322 17.2802 13.7585 14.2548C13.5945 11.4023 13.4642 8.67945 13.3418 7.3459C13.3021 6.81203 13.0764 5.97678 12.1415 5.67091C11.4209 5.43542 10.3703 5.34332 9.63392 5.6155C9.57477 6.526 9.53584 6.96627 9.15584 8.043C8.77659 9.11898 6.33149 13.8684 5.91593 14.6071C3.78943 18.3876 0.984545 23.0895 0.821314 23.3923C0.248507 24.4511 -0.545566 25.8944 0.815693 26.4046C2.17658 26.9149 3.36974 26.6427 3.95752 25.7734C4.07096 25.6061 4.2267 25.2931 4.2267 25.2931C4.2267 25.2931 3.83172 24.9685 4.67858 22.9955C4.93016 22.4744 5.23042 21.8667 5.56624 21.197C5.63139 21.0779 5.69915 20.9555 5.76953 20.8297C5.87099 20.6489 5.94213 20.4905 5.99642 20.3445C7.39287 17.5913 9.2528 14.0417 10.9124 10.9287C10.8997 12.7408 11.0521 14.9826 11.3007 16.6111C11.6796 19.7874 12.4594 21.1273 12.7499 23.6608C12.6919 25.3725 12.8615 25.6679 14.1112 26.0123C15.2796 26.3343 15.9606 26.0115 16.3994 24.9337C18.0871 20.6803 22.9388 10.9108 27.0596 5.61026C27.4905 5.0558 29.1273 3.46429 29.6002 2.21909Z" fill="#100F0D"/>
</g>
</g>
</g>
<defs>
<clipPath id="clip0_113_7434">
<rect width="160" height="39.7217" fill="white" transform="translate(0 0.13916)"/>
</clipPath>
</defs>
</svg>
