<svg width="112" height="40" viewBox="0 0 112 40" fill="none" xmlns="http://www.w3.org/2000/svg">
<g clip-path="url(#clip0_113_7456)">
<path d="M67.0162 -8.17998e-06L64.7763 -0.000244141L56.5156 13.295L48.2542 -0.000244141H46.0073L46.0078 39.999H48.2542L56.5156 26.7037L64.7763 39.999L67.0394 39.9985L67.0159 39.9655L67.0162 -8.17998e-06Z" fill="#6DACDE"/>
<path d="M46.0074 0H33.7563L45.992 19.9993L33.7563 39.9993H46.0082L46.0074 0Z" fill="#938647"/>
<path d="M79.277 7.65861e-05H67.0186L67.0183 39.9655L67.0418 39.9985L79.2752 39.9963L67.0411 19.9985L79.2767 -0.000732422L79.277 7.65861e-05Z" fill="#6D9A45"/>
<path d="M96.7437 0H79.2784L67.0427 19.9993L79.2776 39.9971H79.2828L79.2776 31.162H99.9507C108.629 31.162 111.227 24.3258 111.227 18.3726V13.6726C111.226 5.84418 108.407 0.00103373 96.7437 0.00103373V0ZM99.8001 16.1384C99.8001 18.5097 98.695 21.2381 95.82 21.2381H79.2935V9.92297H94.7692C98.4726 9.92297 99.8 11.4666 99.8 14.1681L99.8001 16.1384Z" fill="#BFD730"/>
<path d="M45.9927 20L33.757 0.000713006L33.7519 0.000488281L33.7504 24.1713L13.0192 0.000488281H0.767334V39.9998L13.0295 39.9968L13.0251 15.8282L33.757 39.9998L45.9927 20Z" fill="#FCB316"/>
</g>
<defs>
<clipPath id="clip0_113_7456">
<rect width="110.457" height="40" fill="white" transform="translate(0.771729)"/>
</clipPath>
</defs>
</svg>
