<svg width="39" height="25" viewBox="0 0 39 25" fill="none" xmlns="http://www.w3.org/2000/svg">
<g id="OG - OG Fan Token" clip-path="url(#clip0_502_501)">
<path id="Vector" d="M37.9211 25H1.02942C0.665608 25 0.370605 24.7054 0.370605 24.3421V0.657924C0.370605 0.294605 0.665608 0 1.02942 0H37.9212C38.285 0 38.58 0.294605 38.58 0.657924V24.3421C38.5799 24.7055 38.2849 25 37.9211 25Z" fill="#C1C1C1"/>
<g id="OG - OG Fan Token_2">
<circle id="Ellipse 20" cx="19.3706" cy="12" r="10" fill="#162D51"/>
<path id="Subtract" fill-rule="evenodd" clip-rule="evenodd" d="M19.0136 5.57141V18.4286L14.7279 15.5714V8.42855L19.0136 5.57141ZM15.7993 9.14284L17.9422 7.71427V16.2857L15.7993 14.8571V9.14284Z" fill="white"/>
<path id="Subtract_2" d="M20.0848 5.57141V18.4286L24.3706 15.5714V12.3571H22.2277V13.4286H23.2991V14.8571L21.1563 16.2857V7.71427L23.2991 9.14284V11.2857H24.3706V8.42855L20.0848 5.57141Z" fill="white"/>
</g>
</g>
<defs>
<clipPath id="clip0_502_501">
<rect width="38.2094" height="25" fill="white" transform="translate(0.370605)"/>
</clipPath>
</defs>
</svg>
