<svg width="160" height="41" viewBox="0 0 160 41" fill="none" xmlns="http://www.w3.org/2000/svg">
    <g clip-path="url(#clip0_38_823)">
        <path fill-rule="evenodd" clip-rule="evenodd" d="M46.2039 33.6039H154.674V30.7638H46.2039V33.6039ZM32.1288 39.7306H5.23535V17.0046C7.29688 12.5654 11.0626 5.64161 14.2897 5.90785C24.0605 6.61725 23.7023 36.0901 32.1288 39.7306ZM43.4243 27.0348V39.7298H35.8043C39.5701 38.1324 42.08 32.0949 43.4243 27.0348Z" fill="#CC4F4F"/>
        <path fill-rule="evenodd" clip-rule="evenodd" d="M16.9792 1.9126H43.4251V23.0412C41.4529 27.3018 37.4183 35.3799 34.0125 35.1128C24.4196 34.4034 24.3302 7.23898 16.9792 1.9126ZM5.23535 1.9126H11.4208C8.55184 3.77709 6.49031 8.21546 5.23535 12.3876V1.9126ZM143.918 20.8212H147.682C147.772 21.7968 147.951 22.5079 148.221 22.9519C148.58 23.3074 148.939 23.572 149.476 23.572C149.924 23.572 150.283 23.3075 150.553 23.0404C150.82 22.6848 150.91 22.2408 150.91 21.6182C150.91 20.6426 150.464 19.9323 149.297 19.3106C149.118 19.2221 148.94 19.1328 148.851 19.0443C147.953 18.5118 147.147 18.0678 146.699 17.6238C146.16 17.2691 145.712 16.8251 145.534 16.4696C144.996 15.7593 144.637 14.8722 144.457 13.8949C144.188 12.9184 144.098 11.7641 144.098 10.433C144.098 7.76977 144.546 5.72751 145.444 4.30703C146.34 2.79808 147.594 1.99938 149.208 1.99938C150.822 1.99938 151.988 2.70962 152.974 4.1301C153.781 5.55058 154.318 7.592 154.408 10.2552H150.733C150.644 9.54495 150.555 8.92402 150.286 8.56847C150.164 8.39903 150.002 8.26183 149.815 8.16897C149.627 8.07611 149.419 8.03044 149.209 8.036C148.762 8.036 148.403 8.12447 148.224 8.39071C148.044 8.74625 147.955 9.19025 147.955 9.81118C147.955 10.6992 148.403 11.4086 149.479 11.9419C149.568 12.0304 149.658 12.0304 149.747 12.1197L150.465 12.4744C151.9 13.2731 152.795 13.8949 153.244 14.6051C153.783 15.4038 154.14 16.2025 154.409 17.2683C154.678 18.2448 154.768 19.399 154.768 20.7302C154.768 23.6596 154.32 25.8788 153.334 27.4771C152.436 28.986 151.092 29.7856 149.299 29.7856C147.686 29.7856 146.431 28.986 145.446 27.4771C144.545 25.8813 144.008 23.6613 143.918 20.8212ZM131.995 29.8765V2.00191H142.303V8.74877H136.118V12.3884H141.318V18.7798H136.118V23.0412H142.572V29.8765H131.995ZM122.851 29.8765V8.65947H119.175V2.00191H130.649V8.65947H126.975V29.8765H122.851ZM99.094 29.8765V8.65947H95.4185V2.00191H106.894V8.65947H103.219V29.8765H99.094ZM83.4075 20.8212H87.1715C87.2609 21.7968 87.5306 22.5079 87.7994 22.9519C88.0683 23.3074 88.4274 23.572 88.9642 23.572C89.4126 23.572 89.7716 23.3075 90.0414 23.0404C90.3085 22.6848 90.488 22.2408 90.488 21.6182C90.488 20.6426 89.8618 19.9323 88.7847 19.3106C88.6052 19.2221 88.4274 19.1328 88.338 19.0443C87.4404 18.5118 86.7249 18.0678 86.1863 17.6238C85.6477 17.2691 85.2887 16.8251 85.0215 16.4696C84.5732 15.7593 84.2141 14.8722 83.9444 13.8949C83.6755 12.9184 83.5854 11.7641 83.5854 10.433C83.5854 7.76977 84.0337 5.72751 84.9314 4.30703C85.9166 2.79808 87.1715 1.99938 88.6954 1.99938C90.3085 1.99938 91.4758 2.70962 92.3709 4.1301C93.2685 5.55058 93.8054 7.592 93.8947 10.2552H90.2192C90.1298 9.54495 89.952 8.92402 89.7725 8.56847C89.5036 8.21378 89.1446 8.036 88.606 8.036C88.2487 8.036 87.9798 8.12447 87.7101 8.39071C87.5306 8.74625 87.4413 9.19025 87.4413 9.81118C87.4413 10.6992 87.9798 11.4086 88.9651 11.9419C89.0544 12.0304 89.1446 12.0304 89.2339 12.1197C89.3233 12.209 89.593 12.2966 89.952 12.4744C91.2963 13.2731 92.2816 13.8949 92.7308 14.6051C93.2693 15.4038 93.6284 16.2025 93.8955 17.2683C94.1644 18.2448 94.2546 19.399 94.2546 20.7302C94.2546 23.6596 93.8062 25.8788 92.8201 27.4771C91.9225 28.986 90.5782 29.7856 88.7855 29.7856C87.2617 29.7856 85.9174 28.986 85.0215 27.4771C84.0337 25.8813 83.4952 23.6613 83.4075 20.8212ZM106.356 29.8765L110.927 2.00191H115.052L119.623 29.8765H115.499L115.052 26.1476H110.927L110.389 29.8765H106.356ZM111.645 20.3772H114.245L112.99 10.7009L111.645 20.3772ZM76.5933 29.6988H67.3603V2.00191H71.5735V24.0168H76.5933V29.6988ZM60.0986 2.00191H64.2216V29.6988H60.0986V2.00191ZM46.3834 15.9388C46.3834 12.7431 46.3834 10.4355 46.5621 8.92655C46.6514 7.50522 46.9203 6.35182 47.2793 5.46465C47.7268 4.3104 48.3547 3.42239 49.1613 2.88992C49.9687 2.35745 50.8646 2.00191 52.0303 2.00191C53.1057 2.00191 54.0025 2.35661 54.8099 2.88992C55.5263 3.42239 56.1542 4.3104 56.6919 5.46465C57.0509 6.35182 57.3198 7.50606 57.4091 8.92655C57.5878 10.4355 57.678 12.7431 57.678 15.9388C57.678 19.1345 57.5886 21.443 57.4091 22.9527C57.3198 24.3732 57.0509 25.5266 56.6919 26.3262C56.1542 27.5689 55.5263 28.4552 54.8099 28.9885C54.0025 29.5218 53.1065 29.8774 52.0303 29.8774C50.8646 29.8774 49.9687 29.5218 49.1613 28.9885C48.3547 28.4552 47.7268 27.5681 47.2793 26.3262C46.9203 25.5266 46.6514 24.3732 46.5621 22.9527C46.3834 21.443 46.3834 19.1345 46.3834 15.9388ZM53.6443 18.3358V13.5427C53.6443 10.6133 53.4647 8.74961 53.2861 8.12784C53.0172 7.4176 52.5688 7.0629 51.9409 7.0629C51.4032 7.0629 50.9548 7.4176 50.686 8.12784C50.5073 8.83808 50.3278 10.6133 50.3278 13.5427V18.3358C50.3278 21.1776 50.5073 23.0412 50.686 23.7506C50.9548 24.4617 51.4032 24.8155 52.0311 24.8155C52.659 24.8155 53.0172 24.4617 53.2861 23.7506C53.4647 23.0412 53.6443 21.2652 53.6443 18.3358ZM46.3834 35.2906H47.5482V39.6413H46.3834V35.2906ZM51.3139 39.6413V35.2906H52.3893L54.0926 37.5106C54.0926 37.599 54.0926 37.6884 54.182 37.8661C54.2713 37.9546 54.3607 38.1324 54.4508 38.3084V37.8661C54.3615 37.6884 54.3615 37.5106 54.3615 37.4221V35.2914H55.5271V39.6421H54.3615L52.7484 37.4221C52.7484 37.3337 52.659 37.2443 52.5688 37.1559L52.3 36.6226C52.3893 36.8003 52.3893 36.9781 52.3893 37.1559V39.6421L51.3139 39.6413ZM59.8297 39.6413V36.3572H58.8436V35.2906H61.9814V36.3572H60.9953V39.6413H59.8297ZM65.2979 39.6413V35.2906H67.9873V36.2679H66.4635V36.9773H67.898V37.9546H66.4635V38.664H67.9873V39.6413H65.2979ZM71.4833 39.6413V35.2906H72.7383C73.1867 35.2906 73.5449 35.379 73.7244 35.379C73.9039 35.4675 74.0834 35.4675 74.2621 35.6453C74.3514 35.7337 74.531 35.9115 74.6203 36.0893C74.7096 36.267 74.7096 36.4448 74.7096 36.7094C74.7096 36.9756 74.6203 37.2427 74.5301 37.5089C74.2613 37.6867 74.0826 37.8644 73.7235 37.8644L74.8892 39.6396H73.6333L72.6473 37.9529V39.6396H71.4833V39.6413ZM72.649 37.3328H72.8285C73.0973 37.3328 73.2769 37.3328 73.3662 37.2444C73.4555 37.1559 73.5449 36.9781 73.5449 36.8003C73.5449 36.6226 73.4555 36.4465 73.3662 36.358C73.2769 36.2696 73.0973 36.1803 72.8285 36.1803H72.649V37.3328ZM78.118 39.6413V35.2906H79.2828L80.8968 37.5106C80.9861 37.599 80.9861 37.6884 81.0763 37.8661C81.1882 37.9872 81.252 38.1444 81.2558 38.3084V37.8661V35.2914H82.4206V39.6421H81.2558L79.6418 37.4221C79.5525 37.3337 79.5525 37.2443 79.4623 37.1559L79.1934 36.6226C79.1934 36.8003 79.1934 36.9781 79.2828 37.1559V39.6421L78.118 39.6413ZM87.1715 38.0439H88.4282L87.9798 36.6217C87.8905 36.5333 87.8905 36.5333 87.8905 36.3572C87.8905 36.2687 87.8011 36.1794 87.8011 36.0016C87.8011 36.0901 87.7118 36.1794 87.7118 36.3572C87.7118 36.4456 87.7118 36.5333 87.6225 36.6217L87.1715 38.0439ZM85.5575 39.6413L87.0814 35.2906H88.5175L90.0414 39.6413H88.7847L88.6052 38.8418H86.9018L86.724 39.6413H85.5575ZM93.5374 39.6413V36.3572H92.5504V35.2906H95.6882V36.3572H94.703V39.6413H93.5374ZM99.094 35.2906H100.261V39.6413H99.094V35.2906ZM108.418 37.5106C108.418 37.7768 108.329 38.0439 108.239 38.3978C108.149 38.664 107.97 38.8418 107.79 39.1088C107.521 39.2866 107.252 39.4644 106.983 39.5528C106.716 39.7306 106.357 39.7306 106.087 39.7306C105.728 39.7306 105.459 39.7306 105.191 39.5528C104.922 39.4644 104.652 39.2866 104.384 39.1088C104.204 38.8426 104.025 38.6648 103.935 38.3978C103.756 38.0439 103.756 37.7777 103.756 37.5106C103.756 37.155 103.756 36.8888 103.935 36.6217C104.025 36.3572 104.204 36.0901 104.384 35.9123C104.652 35.6461 104.922 35.4683 105.191 35.379C105.458 35.2906 105.728 35.2012 106.087 35.2012C106.356 35.2012 106.715 35.2897 106.983 35.379C107.252 35.4675 107.521 35.6453 107.79 35.9123C107.97 36.0901 108.149 36.3563 108.239 36.6217C108.329 36.8888 108.418 37.155 108.418 37.5106ZM106.087 38.7533C106.356 38.7533 106.715 38.6648 106.894 38.3978C107.161 38.1332 107.252 37.8661 107.252 37.5106C107.252 37.155 107.162 36.7995 106.894 36.6217C106.715 36.3572 106.356 36.1794 106.087 36.1794C105.728 36.1794 105.459 36.3572 105.281 36.6217C105.012 36.7995 104.922 37.155 104.922 37.5106C104.922 37.8661 105.011 38.1324 105.281 38.3978C105.459 38.664 105.728 38.7533 106.087 38.7533ZM111.915 39.6413V35.2906H112.99L114.694 37.5106C114.694 37.599 114.783 37.6884 114.873 37.8661C114.873 37.9546 114.963 38.1324 115.053 38.3084V37.8661C115.053 37.6884 114.963 37.5106 114.963 37.4221V35.2914H116.128V39.6421H114.963L113.35 37.4221C113.35 37.3337 113.261 37.2443 113.171 37.1559C113.171 36.9781 113.081 36.8003 112.991 36.6226V39.6421L111.915 39.6413ZM120.968 38.0439H122.132L121.686 36.6217V36.3572C121.596 36.2687 121.596 36.1794 121.596 36.0016C121.507 36.0901 121.507 36.1794 121.507 36.3572C121.418 36.4456 121.418 36.5333 121.418 36.6217L120.968 38.0439ZM119.264 39.6413L120.788 35.2906H122.312L123.837 39.6413H122.581L122.401 38.8418H120.698L120.52 39.6413H119.264ZM126.975 39.6413V35.2906H128.14V38.664H129.575V39.6413H126.975ZM131.098 38.664H132.175L131.278 40.5285H130.472L131.098 38.664ZM136.926 35.2906H138.09V39.6413H136.926V35.2906ZM141.767 39.6413V35.2906H142.932L144.545 37.5106C144.634 37.599 144.634 37.6884 144.724 37.8661C144.814 37.9546 144.904 38.1324 144.993 38.3084C144.904 38.1324 144.904 37.9546 144.904 37.8661V35.2914H146.068V39.6421H144.904L143.2 37.4221C143.2 37.3337 143.2 37.2443 143.111 37.1559L142.842 36.6226C142.932 36.8003 142.932 36.9781 142.932 37.1559V39.6421L141.767 39.6413ZM152.882 35.4683V36.7995C152.702 36.6217 152.523 36.4456 152.345 36.3572C152.165 36.2687 152.076 36.2687 151.897 36.2687C151.538 36.2687 151.269 36.3572 150.999 36.6226C150.819 36.8003 150.73 37.1559 150.73 37.5114C150.73 37.867 150.819 38.1332 151.089 38.3986C151.269 38.5764 151.538 38.6648 151.897 38.6648C152.076 38.6648 152.165 38.6648 152.345 38.5764C152.523 38.4879 152.702 38.3986 152.882 38.2225V39.4652L152.345 39.7315H151.717C151.448 39.7315 151.269 39.7315 151.089 39.643C150.82 39.643 150.73 39.5545 150.552 39.3768C150.201 39.2065 149.917 38.9252 149.745 38.5772C149.565 38.2233 149.476 37.8678 149.476 37.5123C149.476 37.1567 149.565 36.8905 149.656 36.6234C149.835 36.2696 149.924 36.0918 150.194 35.8256C150.381 35.6491 150.591 35.4996 150.82 35.3815C151.179 35.2931 151.448 35.2038 151.718 35.2038C151.897 35.2038 152.077 35.2922 152.346 35.2922C152.523 35.3799 152.702 35.3799 152.882 35.4683ZM153.51 39.1973C153.513 39.0325 153.577 38.8746 153.689 38.7533C153.779 38.5755 153.869 38.5755 154.047 38.5755C154.226 38.5755 154.406 38.5755 154.495 38.7533C154.607 38.8748 154.671 39.0326 154.674 39.1973C154.674 39.2858 154.585 39.4635 154.495 39.5528C154.406 39.7306 154.226 39.7306 154.047 39.7306C153.869 39.7306 153.779 39.7306 153.689 39.5528C153.6 39.4635 153.51 39.2858 153.51 39.1973Z" fill="#3382C3"/>
    </g>
    <defs>
        <clipPath id="clip0_38_823">
            <rect width="160" height="40" fill="white" transform="translate(0 0.610352)"/>
        </clipPath>
    </defs>
</svg>
