<svg width="39" height="25" viewBox="0 0 39 25" fill="none" xmlns="http://www.w3.org/2000/svg">
<g id="OJ - Orange Juice" clip-path="url(#clip0_518_650)">
<path id="Vector" d="M37.9458 25H1.05408C0.690266 25 0.395264 24.7054 0.395264 24.3421V0.657924C0.395264 0.294605 0.690266 0 1.05408 0H37.9458C38.3097 0 38.6047 0.294605 38.6047 0.657924V24.3421C38.6046 24.7055 38.3096 25 37.9458 25Z" fill="#FFEBC4"/>
<g id="orange-slice 2" clip-path="url(#clip1_518_650)">
<path id="Vector_2" d="M19.3953 22C24.9181 22 29.3953 17.5228 29.3953 12C29.3953 6.47715 24.9181 2 19.3953 2C13.8724 2 9.39526 6.47715 9.39526 12C9.39526 17.5228 13.8724 22 19.3953 22Z" fill="#F26D1F"/>
<path id="Vector_3" d="M19.3953 20.7928C24.2514 20.7928 28.1881 16.8561 28.1881 12C28.1881 7.14393 24.2514 3.20728 19.3953 3.20728C14.5392 3.20728 10.6025 7.14393 10.6025 12C10.6025 16.8561 14.5392 20.7928 19.3953 20.7928Z" fill="#FFEBC4"/>
<path id="Vector_4" d="M19.3953 13.9018C20.4456 13.9018 21.2971 13.0504 21.2971 12C21.2971 10.9497 20.4456 10.0983 19.3953 10.0983C18.345 10.0983 17.4935 10.9497 17.4935 12C17.4935 13.0504 18.345 13.9018 19.3953 13.9018Z" fill="white"/>
<path id="Vector_5" d="M21.4052 4.68332C20.7483 4.50405 20.0718 4.41443 19.3953 4.41443V10.8813C19.6801 10.8813 19.9249 10.7096 20.0316 10.464H21.9921V5.71391C22.1149 5.2671 21.852 4.80606 21.4052 4.68332Z" fill="#F26D1F"/>
<path id="Vector_6" d="M20.4815 4.68332C20.1265 4.50405 19.7609 4.41443 19.3953 4.41443C18.7188 4.41443 18.0422 4.50405 17.3854 4.68332C16.9385 4.80606 16.6756 5.2671 16.7984 5.71395V10.464H18.7588C18.8656 10.7096 19.1103 10.8813 19.3952 10.8813C19.5492 10.8813 19.6815 10.7096 19.7392 10.464L20.7987 5.71395C20.8651 5.2671 20.723 4.80606 20.4815 4.68332Z" fill="#F68A2F"/>
<path id="Vector_7" d="M25.9901 8.24758C25.6524 7.65635 25.2374 7.11462 24.759 6.63623L20.1863 11.209C20.3877 11.4104 20.6822 11.4621 20.9313 11.3639L22.3176 12.7502L25.6764 9.39136C26.0792 9.16223 26.2193 8.65031 25.9901 8.24758Z" fill="#F26D1F"/>
<path id="Vector_8" d="M25.3369 7.59443C25.2127 7.21664 25.0175 6.89475 24.759 6.6362C24.2806 6.15785 23.7388 5.74284 23.1476 5.40513C22.7449 5.17596 22.233 5.31608 22.0038 5.71881L20.0313 10.4639C19.9331 10.713 19.9848 11.0075 20.1862 11.209C20.295 11.3178 20.51 11.2899 20.7244 11.1571L24.8324 8.54751C25.1954 8.27845 25.4209 7.85197 25.3369 7.59443Z" fill="#F68A2F"/>
<path id="Vector_9" d="M26.7119 14.0099C26.8911 13.353 26.9808 12.6765 26.9808 12H20.5139C20.5139 12.2849 20.6856 12.5296 20.9312 12.6364V14.5969H25.6812C26.1281 14.7196 26.5891 14.4567 26.7119 14.0099Z" fill="#F26D1F"/>
<path id="Vector_10" d="M26.7119 13.0862C26.8911 12.7312 26.9808 12.3656 26.9808 12C26.9808 11.3235 26.8911 10.647 26.7119 9.99009C26.5891 9.54325 26.1281 9.28035 25.6812 9.40309L20.9312 11.3636C20.6856 11.4703 20.5139 11.7151 20.5139 12C20.5139 12.1539 20.6856 12.2862 20.9312 12.3439L25.6812 13.4035C26.1281 13.4698 26.5891 13.3277 26.7119 13.0862Z" fill="#F68A2F"/>
<path id="Vector_11" d="M23.1477 18.5948C23.7389 18.2571 24.2807 17.8421 24.7591 17.3638L20.1863 12.791C19.9849 12.9924 19.9332 13.287 20.0314 13.5361L18.6451 14.9224L22.0039 18.2812C22.2331 18.6839 22.745 18.824 23.1477 18.5948Z" fill="#F26D1F"/>
<path id="Vector_12" d="M23.8008 17.9417C24.1786 17.8174 24.5005 17.6222 24.759 17.3637C25.2374 16.8853 25.6524 16.3436 25.9901 15.7523C26.2193 15.3496 26.0792 14.8377 25.6764 14.6085L20.9314 12.636C20.6822 12.5379 20.3877 12.5895 20.1863 12.7909C20.0774 12.8997 20.1053 13.1147 20.2382 13.3292L22.8477 17.4372C23.1168 17.8001 23.5433 18.0257 23.8008 17.9417Z" fill="#F68A2F"/>
<path id="Vector_13" d="M17.3853 19.3166C18.0422 19.4959 18.7187 19.5855 19.3952 19.5855V13.1187C19.1103 13.1187 18.8656 13.2904 18.7588 13.536H16.7984V18.286C16.6756 18.7328 16.9385 19.1939 17.3853 19.3166Z" fill="#F26D1F"/>
<path id="Vector_14" d="M18.309 19.3166C18.664 19.4958 19.0296 19.5855 19.3952 19.5855C20.0717 19.5855 20.7483 19.4959 21.4051 19.3166C21.852 19.1939 22.1149 18.7328 21.9921 18.286L20.0317 13.536C19.9249 13.2904 19.6801 13.1187 19.3953 13.1187C19.2413 13.1187 19.109 13.2904 19.0513 13.536L17.9918 18.286C17.9254 18.7328 18.0675 19.1939 18.309 19.3166Z" fill="#F68A2F"/>
<path id="Vector_15" d="M12.8004 15.7525C13.1381 16.3437 13.5531 16.8854 14.0314 17.3638L18.6042 12.791C18.4028 12.5896 18.1083 12.538 17.8591 12.6362L16.4729 11.2499L13.1141 14.6087C12.7113 14.8378 12.5712 15.3497 12.8004 15.7525Z" fill="#F26D1F"/>
<path id="Vector_16" d="M13.4536 16.4056C13.5778 16.7833 13.773 17.1052 14.0316 17.3638C14.5099 17.8421 15.0517 18.2571 15.6429 18.5948C16.0457 18.824 16.5576 18.6839 16.7867 18.2812L18.7593 13.5361C18.8574 13.287 18.8058 12.9925 18.6044 12.791C18.4955 12.6822 18.2805 12.7101 18.0661 12.8429L13.9581 15.4525C13.5952 15.7215 13.3696 16.148 13.4536 16.4056Z" fill="#F68A2F"/>
<path id="Vector_17" d="M12.0786 9.99005C11.8993 10.6469 11.8097 11.3235 11.8097 12H18.2765C18.2765 11.7151 18.1048 11.4703 17.8592 11.3636V9.40309H13.1092C12.6624 9.28035 12.2013 9.54325 12.0786 9.99005Z" fill="#F26D1F"/>
<path id="Vector_18" d="M12.0786 10.9137C11.8993 11.2687 11.8097 11.6343 11.8097 12C11.8097 12.6765 11.8993 13.353 12.0786 14.0099C12.2013 14.4567 12.6624 14.7196 13.1092 14.5969L17.8592 12.6364C18.1048 12.5296 18.2765 12.2849 18.2765 12C18.2765 11.8461 18.1048 11.7138 17.8592 11.6561L13.1092 10.5965C12.6624 10.5302 12.2013 10.6722 12.0786 10.9137Z" fill="#F68A2F"/>
<path id="Vector_19" d="M15.6428 5.40511C15.0516 5.74282 14.5099 6.15783 14.0315 6.63618L18.6043 11.2089C18.8057 11.0075 18.8573 10.713 18.7591 10.4639L16.7867 5.7188C16.5575 5.31606 16.0456 5.17598 15.6428 5.40511Z" fill="#F26D1F"/>
<path id="Vector_20" d="M14.9897 6.05832C14.6119 6.18258 14.29 6.37775 14.0315 6.63631C13.5531 7.11466 13.1381 7.65643 12.8004 8.24765C12.5712 8.65039 12.7113 9.1623 13.1141 9.39148L17.8591 11.364C18.1083 11.4621 18.4028 11.4105 18.6042 11.2091C18.7131 11.1002 18.6852 10.8853 18.5523 10.6708L15.9428 6.56282C15.6737 6.19989 15.2472 5.97433 14.9897 6.05832Z" fill="#F68A2F"/>
</g>
</g>
<defs>
<clipPath id="clip0_518_650">
<rect width="38.2094" height="25" fill="white" transform="translate(0.395264)"/>
</clipPath>
<clipPath id="clip1_518_650">
<rect width="20" height="20" fill="white" transform="translate(9.39526 2)"/>
</clipPath>
</defs>
</svg>
