<svg width="130" height="40" viewBox="0 0 130 40" fill="none" xmlns="http://www.w3.org/2000/svg">
    <g clip-path="url(#clip0_38_829)">
        <path d="M19.0355 0.732422L20.3862 2.20486L17.5598 2.22061L19.0355 0.732422Z" fill="#00AEEF"/>
        <path d="M16.3963 3.33875L17.6533 3.22852L20.7374 4.92143L14.8425 4.93718L16.3963 3.33875Z" fill="#00AEEF"/>
        <path d="M17.1538 5.88965L20.9406 7.25185H12.6643L14.0541 5.88965H17.1538Z" fill="#00AEEF"/>
        <path d="M16.1777 8.08643L20.9249 9.85808H10.0642L11.5789 8.38564L16.1777 8.08643Z" fill="#00AEEF"/>
        <path d="M15.4516 10.7007L21.0107 12.3778H7.55786L9.01011 10.8818L15.4516 10.7007Z" fill="#00AEEF"/>
        <path d="M14.4913 13.2124L20.9016 14.9841H4.96582L6.38684 13.488L14.4913 13.2124Z" fill="#00AEEF"/>
        <path d="M14.2338 15.7085L20.644 17.3857H2.63916L4.02114 15.992L14.2338 15.7085Z" fill="#00AEEF"/>
        <path d="M14.0697 18.3545L20.6438 20.0868H0L1.14775 18.8742L14.0697 18.3545Z" fill="#00AEEF"/>
        <path d="M14.2882 20.8345L20.6047 22.5116H2.30322L1.08521 21.3857L14.2882 20.8345Z" fill="#00AEEF"/>
        <path d="M14.6787 23.5356L20.2535 25.0238H4.74716L3.66968 23.9057L14.6787 23.5356Z" fill="#00AEEF"/>
        <path d="M14.8427 26.0474L20.5189 27.7245H7.40181L6.11353 26.5119L14.8427 26.0474Z" fill="#00AEEF"/>
        <path d="M15.3032 28.5591L20.4252 30.0473H9.64259L8.44019 28.7481L15.3032 28.5591Z" fill="#00AEEF"/>
        <path d="M15.9512 31.1652L20.1284 32.7558H12.3128L10.7825 31.0786L15.9512 31.1652Z" fill="#00AEEF"/>
        <path d="M16.4121 33.4961L19.7773 35.1024L14.7178 35.0866L13.1641 33.4961H16.4121Z" fill="#00AEEF"/>
        <path d="M17.3333 36.1104L19.2462 37.5985H17.1146L15.7092 36.1104H17.3333Z" fill="#00AEEF"/>
        <path d="M19.5508 38.3384V39.9289L18.0205 38.3856L19.5508 38.3384Z" fill="#00AEEF"/>
        <path d="M19.6445 0.0786133L20.3863 0.803023H19.6445V0.0786133Z" fill="#00AEEF"/>
        <path d="M22.0805 2.38574L22.8379 3.22826H21.4012L20.7532 2.38574H22.0805Z" fill="#00AEEF"/>
        <path d="M24.5399 5L25.1099 5.5748H22.3772L21.1045 5.01575L24.5399 5Z" fill="#00AEEF"/>
        <path d="M26.7184 7.25195L27.3274 7.86613L23.4157 8.07085L21.6589 7.30707L26.7184 7.25195Z" fill="#00AEEF"/>
        <path d="M29.4197 9.9292L30.0599 10.5985L23.8215 10.7717L21.7524 9.95282L29.4197 9.9292Z" fill="#00AEEF"/>
        <path d="M31.762 12.4487L32.5741 13.1968L24.7584 13.3385L21.7524 12.4487H31.762Z" fill="#00AEEF"/>
        <path d="M34.2918 14.9604L34.9945 15.7085L25.1879 15.9841L21.8462 15.0549L34.2918 14.9604Z" fill="#00AEEF"/>
        <path d="M36.8217 17.4805L37.5791 18.2206L25.4223 18.5041L21.6589 17.4805H36.8217Z" fill="#00AEEF"/>
        <path d="M39.1092 19.9922L38.5158 20.6142L25.6954 21.0158L21.7524 19.9922H39.1092Z" fill="#00AEEF"/>
        <path d="M36.6185 22.5117L35.947 23.1574L24.8131 23.5353L21.7524 22.5117H36.6185Z" fill="#00AEEF"/>
        <path d="M34.2762 25.0234L33.5735 25.5825L24.8131 25.9526L21.3855 25.0234H34.2762Z" fill="#00AEEF"/>
        <path d="M31.6137 27.6299L31.0594 28.1889L23.9855 28.4645L21.4011 27.6535L31.6137 27.6299Z" fill="#00AEEF"/>
        <path d="M28.9356 30.3308L28.3657 30.8899L23.2672 30.9844L21.3855 30.2363L28.9356 30.3308Z" fill="#00AEEF"/>
        <path d="M26.4606 32.7952L25.7814 33.496H23.0643L21.1045 32.7559L26.4606 32.7952Z" fill="#00AEEF"/>
        <path d="M24.1887 35.1733L23.486 35.9214H22.143L20.4644 35.1733H24.1887Z" fill="#00AEEF"/>
        <path d="M21.7134 37.8191L20.9404 38.5278L20.1128 37.7876L21.7134 37.8191Z" fill="#00AEEF"/>
        <path fill-rule="evenodd" clip-rule="evenodd" d="M46.4019 20.1418C46.4019 13.7245 50.2433 6.80322 56.4661 6.80322C62.6968 6.80322 66.5382 13.7245 66.5382 20.1418C66.5382 26.5591 62.6968 33.4804 56.4661 33.4804C50.2433 33.4804 46.4019 26.5591 46.4019 20.1418ZM50.8913 20.1418C50.8913 25.1261 52.6247 32.1654 56.4661 32.1654C60.3154 32.1654 62.0487 25.1261 62.0487 20.1418C62.0487 15.1576 60.3154 8.11031 56.4661 8.11031C52.6247 8.11031 50.8913 15.1576 50.8913 20.1418ZM97.5664 21.7639C97.5664 16.4095 100.775 10.6221 105.975 10.6221C111.183 10.6221 114.392 16.4095 114.392 21.7639C114.392 27.1182 111.183 32.9056 105.975 32.9056C100.775 32.9056 97.5664 27.1182 97.5664 21.7639ZM101.338 21.7639C101.338 25.9213 102.79 31.7796 105.975 31.7796C109.169 31.7796 110.613 25.9213 110.613 21.7639C110.613 17.5985 109.169 11.7402 105.975 11.7402C102.79 11.7402 101.338 17.5985 101.338 21.7639ZM120.756 31.7796C121.107 31.9056 121.349 31.8898 121.38 32.3702C121.38 32.7324 121.162 32.8977 120.826 32.8977C120.232 32.8977 119.694 32.7639 118.101 32.7639C116.102 32.7639 115.634 32.8977 115.032 32.8977C114.666 32.8977 114.447 32.7324 114.447 32.3387C114.447 31.9607 114.681 31.8505 115.056 31.7796C116.29 31.5828 116.407 31.504 116.407 29.7481V13.6615C116.407 12.819 116.196 12.6064 115.688 12.5434C115.025 12.4804 114.541 12.315 114.541 11.9843C114.541 11.6457 114.845 11.4253 115.298 11.4253C115.696 11.4253 116.063 11.5591 118.265 11.5591C120.1 11.5591 120.498 11.4253 120.998 11.4253C121.466 11.4253 121.654 11.4961 121.654 11.8505C121.654 12.3308 121.521 12.5119 120.568 12.5434C119.983 12.5749 119.858 12.7087 119.858 13.3229V20.315C121.732 17.8111 123.02 16.1654 123.847 15.0552C124.706 13.9056 125.034 13.378 125.034 13.0946C125.034 12.7875 124.886 12.6064 124.347 12.5434C123.512 12.4489 123.246 12.3859 123.199 12.0316C123.16 11.6457 123.504 11.4253 123.957 11.4253C124.691 11.4253 125.159 11.5591 126.354 11.5591C127.587 11.5591 128.243 11.4253 128.681 11.4253C129.055 11.4253 129.243 11.5591 129.243 11.9528C129.243 12.2363 129.008 12.3465 128.306 12.5119C127.65 12.6379 127.205 12.9056 126.447 13.7639C125.69 14.63 124.636 16.0867 122.762 18.5828C125.495 24.6379 126.752 27.7796 127.525 29.4883C128.111 30.7953 128.29 31.3623 129.532 31.8898C129.742 31.9765 129.938 32.0709 129.938 32.3387C129.938 32.8268 129.657 32.8977 129.219 32.8977C128.821 32.8977 128.485 32.7639 126.619 32.7639C124.792 32.7639 124.121 32.8977 123.855 32.8977C123.481 32.8977 123.238 32.7324 123.238 32.3072C123.238 31.9213 123.574 31.7796 123.894 31.7796C124.542 31.7796 124.73 31.504 124.73 31.0946C124.73 30.9371 124.675 30.7796 124.339 30.0394C124.011 29.2993 123.41 28.0079 122.341 25.5906C121.49 23.6615 121.06 22.6142 120.818 22.0552C120.81 22.0552 120.576 21.4804 120.498 21.4804C120.459 21.4804 119.858 22.1576 119.858 22.3938V30.5906C119.858 31.2599 119.959 31.4961 120.756 31.7796ZM84.4493 12.5434L84.0355 12.4883C83.7076 12.4331 83.4421 12.3702 83.4421 11.9528C83.4421 11.4804 83.8247 11.4253 84.4961 11.4253C84.7928 11.4253 85.558 11.5591 89.7898 11.5591C93.2799 11.5591 94.8493 11.4253 95.8175 11.4253C96.4421 11.4253 96.6685 11.5828 96.6685 12.1497V16.4174C96.6685 16.8662 96.528 17.1103 96.2157 17.1103C95.919 17.1103 95.7941 17.0552 95.6691 16.7639C95.5598 16.504 95.4193 16.0394 95.0367 15.1812C94.1466 13.1969 93.2487 12.5434 90.719 12.5434C89.1106 12.5434 89.0481 12.6851 89.0481 13.3623V20.1812C89.0481 20.5827 89.0481 20.693 89.8523 20.693C92.6241 20.693 92.6943 20.6615 93.2643 19.4646C93.5376 18.9135 93.6625 18.5276 93.7718 18.2835C93.8889 18.0237 94.0139 17.8741 94.2871 17.8741C94.6619 17.8741 94.7712 18.1261 94.7712 18.567C94.7712 19.2757 94.6385 20.4174 94.6385 21.4568C94.6385 22.7324 94.7712 23.6064 94.7712 24.2757C94.7712 24.8583 94.7166 25.3072 94.2091 25.3072C93.9046 25.3072 93.7562 25.0788 93.6469 24.7639C93.5376 24.4489 93.4439 23.9843 93.2643 23.3938C92.8193 21.9056 92.7334 21.819 90.4223 21.819C89.0559 21.819 89.0481 21.8662 89.0481 22.3308V28.7481C89.0481 31.1339 89.4151 31.7796 91.6169 31.7796C93.7718 31.7796 94.8025 30.8741 95.6613 28.5434C95.997 27.6536 96.1532 27.1733 96.2703 26.9135C96.4031 26.63 96.5046 26.567 96.7154 26.567C97.1058 26.567 97.1682 26.7717 97.1682 27.4331V32.2048C97.1682 32.7402 96.973 32.8977 96.2859 32.8977C95.3802 32.8977 93.7796 32.7639 90.391 32.7639C86.6199 32.7639 85.6595 32.8977 84.0667 32.8977C83.4421 32.8977 83.2703 32.7166 83.2703 32.4095C83.2703 31.9765 83.4187 31.8505 83.9184 31.7796C85.3238 31.5434 85.5971 31.2678 85.5971 30.3229V13.7009C85.5971 12.9135 85.4175 12.7087 84.4493 12.5434ZM79.5616 25.819V15.378C79.5616 13.1339 79.1712 12.7009 78.2109 12.5434C77.8049 12.4804 77.1724 12.567 77.1724 11.9843C77.1724 11.4883 77.6019 11.4253 77.961 11.4253C78.3904 11.4253 78.8589 11.5591 80.194 11.5591C81.3574 11.5591 81.5916 11.4253 82.1226 11.4253C82.552 11.4253 82.7472 11.6221 82.7472 11.9135C82.7472 12.4174 82.3334 12.4804 81.7634 12.5434C80.9358 12.6379 80.6781 13.1497 80.6781 13.9371V32.4331C80.6781 33.0867 80.3814 33.3072 79.991 33.3072C79.5148 33.3072 79.3118 32.8662 79.1166 32.5119L70.2937 16.4961C70.2001 16.3308 69.9892 15.8741 69.8487 15.7166C69.8253 15.8583 69.8253 16.0394 69.8253 16.3544V29.1812C69.8253 30.8268 69.958 31.4883 71.2853 31.7796C71.6055 31.8426 71.9022 31.8741 72.113 31.9371C72.3394 32.0079 72.5268 32.1261 72.5268 32.4095C72.5268 32.5828 72.519 32.8977 72.0349 32.8977C71.1995 32.8977 70.2703 32.7639 69.2709 32.7639C68.3418 32.7639 67.8031 32.8977 67.1082 32.8977C66.6163 32.8977 66.2805 32.8347 66.2805 32.3387C66.2805 32.0158 66.5772 31.8505 67.2643 31.7796C68.4121 31.6851 68.7166 31.4095 68.7166 28.3072V13.8032C68.7166 12.7796 68.5604 12.7402 67.6547 12.5434C66.952 12.3859 66.6163 12.2757 66.6163 11.9135C66.6163 11.6064 66.8583 11.4253 67.3424 11.4253C67.6703 11.4253 67.9436 11.5276 69.3334 11.5276C70.4733 11.5276 70.8013 11.4253 71.0979 11.4253C71.3712 11.4253 71.543 11.5985 71.7226 11.8898C71.9022 12.1812 72.113 12.63 72.4487 13.252L79.0697 25.6772C79.1946 25.9056 79.3196 26.1733 79.4835 26.3702L79.5148 26.4016C79.585 26.2914 79.5616 25.882 79.5616 25.819Z" fill="#6D6F71"/>
    </g>
    <defs>
        <clipPath id="clip0_38_829">
            <rect width="130" height="40" fill="white"/>
        </clipPath>
    </defs>
</svg>
