<svg width="512" height="173" viewBox="0 0 512 173" fill="none" xmlns="http://www.w3.org/2000/svg">
    <g clip-path="url(#clip0)">
        <path d="M64.384 43.2656C28.8 43.2656 0 72.0656 0 107.65C0 143.234 28.8 172.034 64.384 172.034C99.968 172.034 128.768 143.234 128.768 107.65C128.768 72.0656 99.968 43.2656 64.384 43.2656ZM64.384 139.906C46.592 139.906 32.128 125.442 32.128 107.65C32.128 89.8576 46.592 75.3936 64.384 75.3936C82.176 75.3936 96.64 89.8576 96.64 107.65C96.64 125.442 82.176 139.906 64.384 139.906Z" fill="#007DC1"/>
        <path d="M177.536 129.28C177.536 124.16 183.68 121.728 187.264 125.312C203.392 141.696 230.016 169.856 230.144 169.984C230.528 170.368 230.912 171.008 232.448 171.52C233.088 171.776 234.112 171.776 235.264 171.776H264.32C269.568 171.776 271.104 165.76 268.672 162.688L220.544 113.408L217.984 110.848C212.48 104.32 213.12 101.76 219.392 95.104L257.536 52.48C259.968 49.408 258.432 43.52 253.056 43.52H226.688C225.664 43.52 224.896 43.52 224.128 43.776C222.592 44.288 221.952 44.8 221.568 45.312C221.44 45.44 200.32 68.224 187.264 82.176C183.68 86.016 177.28 83.456 177.28 78.208V5.12C177.28 1.408 174.208 0 171.776 0H150.272C146.56 0 144.768 2.432 144.768 4.608V166.656C144.768 170.368 147.84 171.392 150.4 171.392H171.904C175.232 171.392 177.408 168.96 177.408 166.528V164.864V129.28H177.536Z" fill="#007DC1"/>
        <path d="M353.151 165.888L350.847 144.384C350.591 141.44 347.775 139.392 344.831 139.904C343.167 140.16 341.503 140.288 339.839 140.288C322.687 140.288 308.735 126.848 307.711 109.824C307.711 109.312 307.711 108.672 307.711 108.032V81.664C307.711 78.208 310.271 75.392 313.727 75.392H342.527C344.575 75.392 347.647 73.6 347.647 69.888V49.536C347.647 45.568 345.087 43.52 342.783 43.52H313.727C310.399 43.52 307.711 41.088 307.583 37.76V5.12C307.583 3.072 306.047 0 302.079 0H280.703C278.015 0 275.455 1.664 275.455 4.992C275.455 4.992 275.455 109.312 275.455 109.824C276.351 144.64 304.895 172.416 339.839 172.416C342.783 172.416 345.599 172.16 348.415 171.776C351.487 171.392 353.535 168.832 353.151 165.888Z" fill="#007DC1"/>
        <path d="M508.288 138.881C490.112 138.881 487.296 132.353 487.296 107.905C487.296 107.777 487.296 107.777 487.296 107.649V48.8967C487.296 46.8487 485.76 43.3927 481.664 43.3927H460.16C457.472 43.3927 454.528 45.5687 454.528 48.8967V51.5847C445.184 46.2087 434.304 43.1367 422.784 43.1367C387.2 43.1367 358.4 71.9367 358.4 107.521C358.4 143.105 387.2 171.905 422.784 171.905C438.784 171.905 453.376 166.017 464.64 156.417C470.656 165.633 480.384 171.777 495.616 171.905C498.176 171.905 512 172.417 512 165.889V142.977C512 141.057 510.464 138.881 508.288 138.881ZM422.912 139.905C405.12 139.905 390.656 125.441 390.656 107.649C390.656 89.8567 405.12 75.3927 422.912 75.3927C440.704 75.3927 455.168 89.8567 455.168 107.649C455.04 125.441 440.576 139.905 422.912 139.905Z" fill="#007DC1"/>
    </g>
    <defs>
        <clipPath id="clip0">
            <rect width="512" height="172.416" fill="white"/>
        </clipPath>
    </defs>
</svg>
