<svg width="160" height="20" viewBox="0 0 160 20" fill="none" xmlns="http://www.w3.org/2000/svg">
    <g clip-path="url(#clip0_38_897)">
        <path d="M1.08618 8.01772C1.08618 3.26218 4.72184 0.311035 8.70635 0.311035C13.1613 0.311035 16.3457 3.81288 16.3457 7.86222C16.3457 11.9115 13.1805 15.4134 8.68714 15.4134C4.13296 15.4134 1.08618 11.7755 1.08618 8.04039V8.01772ZM4.77948 7.84281C4.77948 10.0651 6.28362 12.148 8.76393 12.148C11.3819 12.148 12.6525 9.75084 12.6525 7.88166C12.6525 5.99307 11.3819 3.57643 8.72555 3.57643C6.16523 3.57643 4.77948 5.77928 4.77948 7.82337V7.84281Z" fill="#AD342A"/>
        <path d="M18.2019 4.22411H21.2295V5.38382C21.2295 5.38382 21.4248 4.99183 21.8952 4.61606C22.3625 4.22409 23.1241 3.85156 24.2603 3.85156C25.0027 3.85156 25.9373 4.04595 26.7406 4.89144C26.9742 5.1279 27.1886 5.42269 27.3839 5.79848C27.5982 5.46157 27.8543 5.1279 28.1648 4.85255C28.8112 4.26295 29.6913 3.85156 30.8243 3.85156C31.586 3.85156 32.7957 4.02645 33.6758 4.95299C34.6936 6.03171 34.8472 6.7606 34.8472 9.18049V15.1379H31.6052V9.33595C31.6052 8.88566 31.6052 8.29284 31.3908 7.80369C31.1955 7.29185 30.7828 6.91935 29.9443 6.91935C29.045 6.91935 28.5969 7.33074 28.3825 7.82313C28.1456 8.31553 28.1456 8.86626 28.1456 9.18049V15.1379H24.9036V9.19993C24.9036 8.90512 24.9036 8.33497 24.7083 7.84257C24.4939 7.33074 24.1034 6.91935 23.2809 6.91935C22.3624 6.91935 21.9143 7.35018 21.6807 7.88146C21.4439 8.41273 21.4439 9.0023 21.4439 9.33595V15.1379H18.2019V4.22411Z" fill="#AD342A"/>
        <path d="M37.1355 4.22411H40.1631V5.38382C40.5343 4.85255 41.2192 3.85156 43.1522 3.85156C46.8039 3.85156 47.1752 6.83831 47.1752 8.31552V15.1379H43.9331V9.18049C43.9331 7.97863 43.6803 6.91935 42.2338 6.91935C40.6303 6.91935 40.3775 8.07906 40.3775 9.19993V15.1379H37.1355V4.22411Z" fill="#AD342A"/>
        <path d="M49.4827 0.586426H52.7247V3.06462H49.4827V0.586426ZM49.4827 4.22437H52.7247V15.1381H49.4827V4.22437Z" fill="#AD342A"/>
        <path d="M66.0319 10.9881C65.4463 13.4663 63.2764 15.491 60.3448 15.491C57.0644 15.491 54.5425 12.8961 54.5425 9.65017C54.5425 6.44634 57.0228 3.85156 60.268 3.85156C63.1387 3.85156 65.4655 5.75637 66.0127 8.43217H62.7291C62.377 7.68384 61.7338 6.89991 60.3832 6.89991C59.6215 6.86112 58.9782 7.15257 58.5078 7.66441C58.0597 8.17622 57.8069 8.88565 57.8069 9.66961C57.8069 11.2634 58.8406 12.4426 60.3832 12.4426C61.7338 12.4426 62.377 11.6554 62.7291 10.9881H66.0319Z" fill="#AD342A"/>
        <path d="M67.3025 9.6503C67.3025 6.99718 69.1971 3.87109 73.1432 3.87109C77.0893 3.87109 78.984 6.99718 78.984 9.66974C78.984 12.3455 77.0893 15.4716 73.1432 15.4716C69.1971 15.4716 67.3025 12.3455 67.3025 9.66974V9.6503ZM70.5445 9.68911C70.5445 11.2635 71.735 12.4232 73.1432 12.4232C74.5514 12.4232 75.742 11.2635 75.742 9.66967C75.742 8.07911 74.5514 6.91937 73.1432 6.91937C71.735 6.91937 70.5445 8.07911 70.5445 9.66967V9.68911Z" fill="#AD342A"/>
        <path d="M80.8208 4.22411H83.8484V5.38382C83.8484 5.38382 84.0437 4.99183 84.5141 4.61606C84.9813 4.22409 85.7431 3.85156 86.8792 3.85156C87.6217 3.85156 88.5594 4.04595 89.3595 4.89144C89.5931 5.1279 89.8076 5.42269 90.0028 5.79848C90.2172 5.46157 90.4733 5.1279 90.7869 4.85255C91.4302 4.26295 92.3103 3.85156 93.4433 3.85156C94.2049 3.85156 95.4179 4.02645 96.2948 4.95299C97.3125 6.03171 97.4693 6.7606 97.4693 9.18049V15.1379H94.2241V9.33595C94.2241 8.88566 94.2241 8.29284 94.0098 7.80369C93.8144 7.29185 93.4049 6.91935 92.5632 6.91935C91.6639 6.91935 91.2158 7.33074 91.0014 7.82313C90.7646 8.31553 90.7646 8.86626 90.7646 9.18049V15.1379H87.5226V9.19993C87.5226 8.90512 87.5226 8.33497 87.3273 7.84257C87.1129 7.33074 86.7224 6.91935 85.8998 6.91935C84.9813 6.91935 84.5333 7.35018 84.2997 7.88146C84.0628 8.41273 84.0628 9.0023 84.0628 9.33595V15.1379H80.8208L80.8208 4.22411Z" fill="#AD342A"/>
        <path d="M111.868 4.36369C111.417 3.73201 110.869 3.20073 110.245 2.78932C109.308 2.13817 108.175 1.76566 106.885 1.76566C103.72 1.76566 100.964 4.20494 100.964 7.84287C100.964 11.5391 103.739 13.9784 106.904 13.9784C108.427 13.9784 109.778 13.4471 110.773 12.66C111.788 11.8533 112.492 10.7519 112.726 9.61162H105.538V8.27374H114.604C114.581 9.11922 114.387 10.1818 113.958 11.0856C112.706 13.8197 109.816 15.4135 106.904 15.4135C102.686 15.4135 99.3447 12.1481 99.3447 7.84287C99.3447 3.47606 102.744 0.330566 106.923 0.330566C109.855 0.330566 112.572 1.98268 113.705 4.36369H111.868Z" fill="#AD342A"/>
        <path d="M116.653 4.558H118.022V6.28787C118.784 4.71673 120.151 4.30207 121.383 4.26318V5.69827H121.245C119.213 5.69827 118.08 6.97785 118.08 9.37506V15.1381H116.653L116.653 4.558Z" fill="#AD342A"/>
        <path d="M121.949 9.82857C121.949 6.87742 124.138 4.26318 127.518 4.26318C130.917 4.26318 133.106 6.87742 133.106 9.84801C133.106 12.8186 130.917 15.4134 127.518 15.4134C124.138 15.4134 121.949 12.8186 121.949 9.84801V9.82857ZM123.377 9.86738C123.377 12.2678 125.191 14.0754 127.518 14.0754C129.861 14.0754 131.659 12.2678 131.659 9.84794C131.659 7.42804 129.861 5.62043 127.518 5.62043C125.191 5.62043 123.377 7.42804 123.377 9.84794V9.86738Z" fill="#AD342A"/>
        <path d="M144.944 15.1382H143.578V13.2496C142.992 14.6263 141.565 15.4524 139.689 15.433C136.409 15.3747 135.253 13.1329 135.253 10.5543V4.55811H136.681V10.2822C136.681 12.5628 137.695 14.0951 140.06 14.0756C142.249 14.0568 143.501 12.7377 143.501 10.5381V4.55811H144.944V15.1382Z" fill="#AD342A"/>
        <path d="M147.757 4.558H149.127V6.76082C149.985 5.22531 151.511 4.26318 153.521 4.26318C157.058 4.26318 158.914 7.15279 158.914 9.88689C158.914 12.838 156.786 15.4329 153.521 15.4329C151.198 15.4329 149.694 14.0755 149.204 12.9741V19.1485H147.757V4.558ZM157.471 9.82857C157.471 7.84279 156.082 5.6011 153.249 5.6011C152.078 5.6011 151.041 6.07405 150.279 6.83855C149.556 7.60631 149.108 8.66886 149.108 9.86745C149.108 11.0466 149.556 12.1092 150.318 12.8769C151.06 13.622 152.116 14.0755 153.288 14.0755C155.653 14.0755 157.471 12.2679 157.471 9.84801V9.82857Z" fill="#AD342A"/>
    </g>
    <defs>
        <clipPath id="clip0_38_897">
            <rect width="160" height="19.4595" fill="white"/>
        </clipPath>
    </defs>
</svg>
