<svg width="160" height="22" viewBox="0 0 160 22" fill="none" xmlns="http://www.w3.org/2000/svg">
    <g clip-path="url(#clip0_38_913)">
        <path d="M68.98 14.164H79.5358L73.9601 4.73087L63.709 21.7685H59.0475L71.515 1.3277C71.7868 0.919807 72.148 0.586092 72.5682 0.354507C72.9884 0.122923 73.4555 0.000214495 73.9303 -0.00333855C74.4051 -0.00689159 74.8739 0.108814 75.2972 0.334086C75.7206 0.559358 76.0862 0.887635 76.3635 1.29142L88.8657 21.7685H84.2042L82.0085 17.959H71.328L69.0008 14.164M117.437 17.959V0.202981H113.475V19.7077C113.474 19.9788 113.526 20.2472 113.627 20.4966C113.729 20.7461 113.877 20.9714 114.064 21.159C114.251 21.36 114.476 21.5194 114.723 21.6279C114.971 21.7363 115.236 21.7916 115.505 21.7903H133.513L135.861 17.9808H117.416M51.9341 14.788C53.7803 14.788 55.5508 14.0197 56.8563 12.6521C58.1617 11.2845 58.8951 9.42959 58.8951 7.4955C58.8951 5.5614 58.1617 3.70652 56.8563 2.33891C55.5508 0.971297 53.7803 0.202981 51.9341 0.202981H34.6181V21.7685H38.5731V4.01976H51.6917C52.5753 4.01976 53.4227 4.38748 54.0475 5.04203C54.6723 5.69658 55.0233 6.58434 55.0233 7.51001C55.0233 8.43568 54.6723 9.32344 54.0475 9.97799C53.4227 10.6325 52.5753 11.0003 51.6917 11.0003H40.5332L52.3497 21.7685H58.0917L50.154 14.788H51.9341ZM10.2925 21.7685H22.2544C24.9371 21.6956 27.4865 20.5279 29.3592 18.5144C31.232 16.5009 32.2801 13.8007 32.2801 10.9894C32.2801 8.17804 31.232 5.47787 29.3592 3.46434C27.4865 1.45082 24.9371 0.28316 22.2544 0.210237H10.2925C8.91888 0.172896 7.55199 0.42409 6.27248 0.949004C4.99297 1.47392 3.82674 2.26193 2.84257 3.26655C1.8584 4.27118 1.07621 5.4721 0.542136 6.79847C0.00806075 8.12484 -0.26709 9.54982 -0.26709 10.9894C-0.26709 12.4289 0.00806075 13.8539 0.542136 15.1803C1.07621 16.5067 1.8584 17.7076 2.84257 18.7122C3.82674 19.7168 4.99297 20.5048 6.27248 21.0297C7.55199 21.5547 8.91888 21.8059 10.2925 21.7685ZM21.9843 17.9735H10.5557C8.82664 17.9151 7.18701 17.1544 5.9836 15.8524C4.78019 14.5503 4.10733 12.809 4.10733 10.9966C4.10733 9.18425 4.78019 7.44292 5.9836 6.14089C7.18701 4.83885 8.82664 4.07819 10.5557 4.01976H21.9843C22.8769 3.9896 23.7663 4.14774 24.5994 4.48479C25.4326 4.82183 26.1925 5.3309 26.8341 5.98174C27.4758 6.63259 27.9859 7.41191 28.3344 8.27341C28.6828 9.13491 28.8623 10.061 28.8623 10.9966C28.8623 11.9323 28.6828 12.8584 28.3344 13.7199C27.9859 14.5814 27.4758 15.3607 26.8341 16.0115C26.1925 16.6624 25.4326 17.1714 24.5994 17.5085C23.7663 17.8455 22.8769 18.0037 21.9843 17.9735ZM97.1289 21.7685H109.34L111.654 17.9735H97.399C96.5064 18.0037 95.6171 17.8455 94.7839 17.5085C93.9508 17.1714 93.1908 16.6624 92.5492 16.0115C91.9076 15.3607 91.3974 14.5814 91.049 13.7199C90.7006 12.8584 90.521 11.9323 90.521 10.9966C90.521 10.061 90.7006 9.13491 91.049 8.27341C91.3974 7.41191 91.9076 6.63259 92.5492 5.98174C93.1908 5.3309 93.9508 4.82183 94.7839 4.48479C95.6171 4.14774 96.5064 3.9896 97.399 4.01976H109.001L111.342 0.210237H97.1289C95.7552 0.172896 94.3883 0.42409 93.1088 0.949004C91.8293 1.47392 90.6631 2.26193 89.6789 3.26655C88.6947 4.27118 87.9126 5.4721 87.3785 6.79847C86.8444 8.12484 86.5693 9.54982 86.5693 10.9894C86.5693 12.4289 86.8444 13.8539 87.3785 15.1803C87.9126 16.5067 88.6947 17.7076 89.6789 18.7122C90.6631 19.7168 91.8293 20.5048 93.1088 21.0297C94.3883 21.5547 95.7552 21.8059 97.1289 21.7685ZM145.524 17.9735C144.072 17.9741 142.661 17.4783 141.503 16.5615C140.345 15.6447 139.505 14.357 139.11 12.8941H156.024L158.351 9.09187H139.11C139.504 7.6284 140.344 6.34003 141.502 5.42305C142.66 4.50606 144.072 4.01073 145.524 4.01251H157.132L159.453 0.202981H145.254C142.571 0.275904 140.022 1.44356 138.149 3.45709C136.276 5.47062 135.228 8.17079 135.228 10.9821C135.228 13.7935 136.276 16.4936 138.149 18.5072C140.022 20.5207 142.571 21.6883 145.254 21.7613H157.465L159.785 17.9662H145.517" fill="#C74634"/>
    </g>
    <defs>
        <clipPath id="clip0_38_913">
            <rect width="160" height="21.7687" fill="white"/>
        </clipPath>
    </defs>
</svg>
