<svg width="160" height="36" viewBox="0 0 160 36" fill="none" xmlns="http://www.w3.org/2000/svg">
<path d="M86.4554 16.4347L85.9949 19.4726H87.5338L87.0901 16.5312C86.9637 15.6849 86.8514 14.8386 86.7882 13.9923H86.725C86.6773 14.8 86.5663 15.627 86.4554 16.4347ZM88.5658 11.4149L91.1213 24.2429H88.2175L87.8679 22.1079H85.7085L85.0248 24.2429H82.1353L85.0738 11.4149H88.5658Z" fill="white"/>
<path d="M86.4554 16.4348L85.9949 19.4727H87.5338L87.0901 16.5312C86.9637 15.685 86.8514 14.8387 86.7882 13.9924H86.725C86.6773 14.8001 86.5663 15.6271 86.4554 16.4348Z" stroke="white" stroke-width="2.14044"/>
<path d="M88.5658 11.4149L91.1213 24.2429H88.2162L87.8667 22.1079H85.7085L85.0235 24.2429H82.1353L85.0738 11.4149H88.5658Z" stroke="white" stroke-width="2.14044"/>
<path d="M93.9296 11.4149V20.6468C93.9296 21.3967 93.9928 22.3201 94.7229 22.3201C95.4686 22.3201 95.5485 21.4545 95.5485 20.7047V11.4149H98.3426V19.7041C98.3426 20.742 98.3272 21.8391 97.9131 22.7625C97.2474 24.1464 96.0091 24.5503 94.7707 24.5503C91.7869 24.5503 91.1355 22.8577 91.1355 19.5112V11.4149H93.9296Z" fill="white"/>
<path d="M93.9296 11.4149V20.6468C93.9296 21.3967 93.9928 22.3201 94.7229 22.3201C95.4686 22.3201 95.5485 21.4545 95.5485 20.7047V11.4149H98.3426V19.7041C98.3426 20.742 98.3272 21.8391 97.9131 22.7625C97.2474 24.1464 96.0091 24.5503 94.7707 24.5503C91.7869 24.5503 91.1355 22.8577 91.1355 19.5112V11.4149H93.9296Z" stroke="white" stroke-width="2.14044"/>
<path d="M106.09 11.4149V14.2033H103.995V24.2429H101.233V14.2033H99.105V11.4149H106.09Z" fill="white"/>
<path d="M106.09 11.4149V14.2033H103.995V24.2429H101.233V14.2033H99.105V11.4149H106.09Z" stroke="white" stroke-width="2.14044"/>
<path d="M109.248 18.4745C109.248 19.3966 109.264 20.3394 109.376 21.2435C109.438 21.8017 109.661 22.3201 110.185 22.3201C110.708 22.3201 110.915 21.821 110.978 21.2435C111.074 20.3587 111.089 19.4365 111.089 18.5311V17.8584C111.089 16.8591 111.089 15.8585 111.026 14.8591C110.978 14.1852 110.819 13.4354 110.152 13.4354C109.279 13.4354 109.279 14.7819 109.279 15.5318C109.248 16.3009 109.248 17.07 109.248 17.8584V18.4745ZM110.169 11.146C113.868 11.146 113.946 14.2816 113.946 17.8584C113.946 21.3786 113.899 24.5515 110.185 24.5515C106.582 24.5515 106.391 21.3786 106.391 17.8584C106.391 14.2816 106.471 11.146 110.169 11.146Z" fill="white"/>
<path d="M109.248 18.4745C109.248 19.3967 109.264 20.3394 109.376 21.2436C109.438 21.8018 109.661 22.3201 110.185 22.3201C110.709 22.3201 110.915 21.821 110.978 21.2436C111.074 20.3587 111.089 19.4365 111.089 18.5311V17.8584C111.089 16.8591 111.089 15.8585 111.026 14.8591C110.978 14.1852 110.819 13.4354 110.153 13.4354C109.279 13.4354 109.279 14.782 109.279 15.5318C109.248 16.3009 109.248 17.07 109.248 17.8584V18.4745Z" stroke="white" stroke-width="2.14044"/>
<path d="M110.169 11.1461C113.868 11.1461 113.948 14.2817 113.948 17.8585C113.948 21.3774 113.9 24.5503 110.185 24.5503C106.582 24.5503 106.391 21.3774 106.391 17.8585C106.391 14.2817 106.471 11.1461 110.169 11.1461Z" stroke="white" stroke-width="2.14044"/>
<path d="M121.172 16.935C122.187 16.935 122.758 16.7421 122.758 15.3968C122.758 13.973 122.204 13.8007 121.172 13.8007V16.935ZM121.934 11.4149C124.203 11.4149 125.6 12.3576 125.6 15.3762C125.6 18.0501 124.267 19.3388 122.124 19.3388H121.187V24.2429H118.41V11.4149H121.934Z" fill="white"/>
<path d="M121.171 16.9351C122.187 16.9351 122.758 16.7421 122.758 15.3968C122.758 13.9731 122.203 13.8007 121.171 13.8007V16.9351Z" stroke="white" stroke-width="2.14044"/>
<path d="M121.934 11.4149C124.204 11.4149 125.6 12.3576 125.6 15.3762C125.6 18.0501 124.267 19.3388 122.124 19.3388H121.188V24.2429H118.41V11.4149H121.934Z" stroke="white" stroke-width="2.14044"/>
<path d="M128.651 16.4347L128.192 19.4726H129.731L129.286 16.5312C129.159 15.6849 129.048 14.8386 128.984 13.9923H128.921C128.873 14.8 128.762 15.627 128.651 16.4347ZM130.763 11.4149L133.318 24.2429H130.413L130.063 22.1079H127.905L127.556 24.2429H124.667L127.269 11.4149H130.763Z" fill="white"/>
<path d="M128.651 16.4348L128.192 19.4727H129.731L129.286 16.5312C129.159 15.685 129.048 14.8387 128.984 13.9924H128.92C128.873 14.8001 128.762 15.6271 128.651 16.4348Z" stroke="white" stroke-width="2.14044"/>
<path d="M130.763 11.4149L133.318 24.2429H130.413L130.063 22.1079H127.905L127.556 24.2429H124.667L127.271 11.4149H130.763Z" stroke="white" stroke-width="2.14044"/>
<path d="M136.894 16.8012C137.861 16.8012 138.576 16.6662 138.576 15.3003C138.576 13.8392 137.909 13.7813 136.894 13.7813V16.8012ZM137.957 11.4161C140.021 11.4161 141.338 12.0309 141.338 14.917C141.338 16.5118 140.862 17.551 139.545 17.897C141.131 18.1478 141.242 19.4738 141.275 21.1278C141.29 21.6281 141.307 22.1477 141.307 22.648C141.307 23.2049 141.355 23.8776 141.735 24.0705V24.2441H138.782C138.544 23.7052 138.56 22.994 138.544 22.3972L138.528 21.3786C138.48 19.6089 138.655 19.0507 136.894 19.0507V24.2441H134.116V11.4161H137.957Z" fill="white"/>
<path d="M136.894 16.8013C137.861 16.8013 138.576 16.6662 138.576 15.3003C138.576 13.8393 137.909 13.7814 136.894 13.7814V16.8013Z" stroke="white" stroke-width="2.14044"/>
<path d="M137.957 11.4161C140.021 11.4161 141.338 12.0322 141.338 14.917C141.338 16.5131 140.862 17.551 139.543 17.897C141.131 18.1478 141.242 19.4738 141.275 21.1278C141.29 21.6294 141.306 22.1477 141.306 22.648C141.306 23.2049 141.353 23.8789 141.735 24.0705V24.2441H138.782C138.544 23.7052 138.561 22.994 138.544 22.3972L138.528 21.3786C138.481 19.6089 138.655 19.052 136.894 19.052V24.2441H134.115V11.4161H137.957Z" stroke="white" stroke-width="2.14044"/>
<path d="M148.906 11.4149V14.2033H146.81V24.2429H144.049V14.2033H141.922V11.4149H148.906Z" fill="white"/>
<path d="M148.906 11.4149V14.2033H146.81V24.2429H144.049V14.2033H141.922V11.4149H148.906Z" stroke="white" stroke-width="2.14044"/>
<path d="M151.904 20.378C151.904 21.1471 151.92 22.3008 152.778 22.3008C153.38 22.3008 153.73 21.7632 153.73 21.0699C153.73 18.3008 149.333 19.8584 149.333 14.935C149.333 12.2817 150.824 11.1653 152.841 11.1653C155.031 11.1653 156.269 12.2624 156.269 15.0508H153.65C153.65 14.3974 153.586 13.4354 152.872 13.4354C152.332 13.4354 152.047 13.9164 152.047 14.5312C152.047 17.0314 156.524 15.9163 156.524 20.5323C156.524 23.5123 155.094 24.5322 152.793 24.5322C150.412 24.5322 149.238 23.5509 149.238 20.5709C149.238 20.513 149.253 20.4359 149.253 20.378H151.904Z" fill="white"/>
<path d="M151.904 20.378C151.904 21.1471 151.92 22.3008 152.778 22.3008C153.38 22.3008 153.73 21.7632 153.73 21.0699C153.73 18.3008 149.333 19.8584 149.333 14.935C149.333 12.2817 150.824 11.1653 152.841 11.1653C155.031 11.1653 156.269 12.2624 156.269 15.0508H153.65C153.65 14.3974 153.586 13.4354 152.872 13.4354C152.332 13.4354 152.047 13.9164 152.047 14.5312C152.047 17.0314 156.524 15.9163 156.524 20.5323C156.524 23.5123 155.094 24.5322 152.793 24.5322C150.412 24.5322 149.238 23.5509 149.238 20.5709C149.238 20.513 149.253 20.4359 149.253 20.378H151.904Z" stroke="white" stroke-width="2.14044"/>
<path d="M156.796 31.0698V25.6551H81.8051L80.4648 31.0698H156.796Z" fill="white"/>
<path d="M86.4632 16.4245L86.0027 19.4636H87.5429L87.0979 16.5209C86.9715 15.6746 86.8592 14.8284 86.796 13.9821H86.7328C86.6851 14.7898 86.5742 15.6168 86.4632 16.4245ZM88.5736 11.4046L91.1304 24.2327H88.2253L87.8758 22.0977H85.7163L85.0326 24.2327H82.1431L85.0817 11.4046H88.5736Z" fill="#231F20"/>
<path d="M93.9374 11.4046V20.6366C93.9374 21.3864 94.0006 22.3086 94.7308 22.3086C95.4777 22.3086 95.5563 21.4443 95.5563 20.6932V11.4046H98.3505V19.6938C98.3505 20.7318 98.335 21.8288 97.9209 22.7523C97.2553 24.1362 96.0169 24.54 94.7785 24.54C91.7948 24.54 91.1433 22.8475 91.1433 19.5009V11.4046H93.9374Z" fill="#231F20"/>
<path d="M106.098 11.4046V14.193H104.003V24.2327H101.241V14.193H99.114V11.4046H106.098Z" fill="#231F20"/>
<path d="M109.255 18.463C109.255 19.3865 109.27 20.3279 109.381 21.2321C109.446 21.7903 109.668 22.3086 110.191 22.3086C110.715 22.3086 110.921 21.8096 110.985 21.2321C111.08 20.3472 111.096 19.4237 111.096 18.5209V17.8469C111.096 16.8476 111.096 15.847 111.032 14.8476C110.985 14.1737 110.826 13.4239 110.159 13.4239C109.287 13.4239 109.287 14.7705 109.287 15.5203C109.255 16.2894 109.255 17.0585 109.255 17.8469V18.463ZM110.176 11.1358C113.874 11.1358 113.953 14.2702 113.953 17.8469C113.953 21.3671 113.905 24.54 110.191 24.54C106.588 24.54 106.397 21.3671 106.397 17.8469C106.397 14.2702 106.476 11.1358 110.176 11.1358Z" fill="#231F20"/>
<path d="M121.179 16.9248C122.196 16.9248 122.766 16.7319 122.766 15.3866C122.766 13.9628 122.211 13.7904 121.179 13.7904V16.9248ZM121.942 11.4046C124.211 11.4046 125.608 12.3474 125.608 15.3673C125.608 18.0399 124.274 19.3286 122.131 19.3286H121.195V24.2327H118.417V11.4046H121.942Z" fill="#231F20"/>
<path d="M128.659 16.4245L128.198 19.4636H129.738L129.293 16.5209C129.167 15.6746 129.056 14.8284 128.991 13.9821H128.928C128.88 14.7898 128.77 15.6168 128.659 16.4245ZM130.769 11.4046L133.326 24.2327H130.421L130.071 22.0977H127.913L127.563 24.2327H124.674L127.277 11.4046H130.769Z" fill="#231F20"/>
<path d="M136.902 16.7897C137.869 16.7897 138.584 16.6547 138.584 15.2901C138.584 13.8277 137.918 13.7699 136.902 13.7699V16.7897ZM137.965 11.4046C140.029 11.4046 141.346 12.0207 141.346 14.9055C141.346 16.5016 140.87 17.5396 139.553 17.8855C141.139 18.1363 141.25 19.4623 141.282 21.1176C141.298 21.6166 141.315 22.1362 141.315 22.6366C141.315 23.1935 141.362 23.8674 141.743 24.059V24.2327H138.79C138.553 23.6938 138.568 22.9825 138.553 22.3858L138.537 21.3671C138.488 19.5974 138.662 19.0405 136.902 19.0405V24.2327H134.124V11.4046H137.965Z" fill="#231F20"/>
<path d="M148.914 11.4046V14.193H146.819V24.2327H144.057V14.193H141.93V11.4046H148.914Z" fill="#231F20"/>
<path d="M151.912 20.3665C151.912 21.1356 151.927 22.2893 152.784 22.2893C153.388 22.2893 153.737 21.7517 153.737 21.0584C153.737 18.2894 149.341 19.8469 149.341 14.9235C149.341 12.2702 150.832 11.1538 152.848 11.1538C155.039 11.1538 156.277 12.2509 156.277 15.0393H153.657C153.657 14.3859 153.594 13.4239 152.879 13.4239C152.34 13.4239 152.055 13.9049 152.055 14.5197C152.055 17.0199 156.53 15.9049 156.53 20.5196C156.53 23.5008 155.102 24.5208 152.801 24.5208C150.419 24.5208 149.244 23.5394 149.244 20.5594C149.244 20.5015 149.261 20.4244 149.261 20.3665H151.912Z" fill="#231F20"/>
<path d="M156.803 31.0581V25.6434H81.8127L80.4724 31.0581H156.803Z" fill="#231F20"/>
<path d="M77.5133 12.2741H69.0445V7.87546H66.0273C63.1699 7.87546 60.3113 7.87546 57.4527 7.87546H56.8155C55.9525 7.2311 54.9115 6.87741 53.8124 6.87741C52.4695 6.87741 51.2053 7.39959 50.2559 8.34619C49.3052 9.29408 48.7827 10.5532 48.7827 11.8934C48.7827 12.1262 48.8034 12.3564 48.8343 12.5828C47.823 12.1558 46.7059 11.9358 45.5101 11.9358C44.1788 11.9358 42.894 12.2445 41.733 12.8245C41.3202 11.5667 40.6494 10.6715 40.0508 10.0748C38.628 8.65615 36.5885 7.87546 34.3065 7.87546H30.7539C30.7875 7.63881 30.8107 7.40216 30.8107 7.16551C30.8107 5.82663 30.2882 4.56749 29.3375 3.62089C28.3881 2.67428 27.1265 2.1534 25.7823 2.1534C24.4395 2.1534 23.1778 2.67428 22.2271 3.62089C21.7602 4.08776 21.3964 4.63051 21.1474 5.22085C19.126 3.76236 16.6995 2.99839 14.0293 2.99839C10.7914 2.99839 7.75222 4.24981 5.47282 6.52243C2.81545 9.17318 1.35132 12.9467 1.35132 17.1486C1.35132 21.3543 2.73934 25.0532 5.25739 27.5638C7.46713 29.7682 10.487 30.9811 13.7597 30.9811C18.3804 30.9811 22.0814 28.913 24.2898 25.4185V29.9946H40.1205L40.8997 29.0248C42.4257 30.3187 43.3738 30.3329 45.59 30.3329C46.8723 30.3329 48.0681 30.0911 49.131 29.6435V29.9946H52.147C56.0118 29.9946 59.8753 29.9946 63.7388 29.9946H64.8443V33.9199H69.398C72.2656 33.9199 75.1049 33.3116 76.4555 28.904C76.4542 28.9117 80.3951 16.1672 80.3951 16.1672L81.5999 12.2741H77.5133Z" fill="white"/>
<mask id="mask0_113_7766" style="mask-type:luminance" maskUnits="userSpaceOnUse" x="0" y="1" width="160" height="34">
<path d="M159.794 1.15025H0.346436V34.9219H159.794V1.15025Z" fill="white"/>
</mask>
<g mask="url(#mask0_113_7766)">
<path d="M77.5133 12.2741H69.0445V7.87546H66.0273C63.1699 7.87546 60.3113 7.87546 57.4527 7.87546H56.8155C55.9525 7.2311 54.9115 6.87741 53.8124 6.87741C52.4695 6.87741 51.2053 7.39959 50.2559 8.34619C49.3052 9.29408 48.7827 10.5532 48.7827 11.8934C48.7827 12.1262 48.8034 12.3564 48.8343 12.5828C47.823 12.1558 46.7059 11.9358 45.5101 11.9358C44.1788 11.9358 42.894 12.2445 41.733 12.8245C41.3202 11.5667 40.6494 10.6715 40.0508 10.0748C38.628 8.65615 36.5885 7.87546 34.3065 7.87546H30.7539C30.7875 7.63881 30.8107 7.40216 30.8107 7.16551C30.8107 5.82663 30.2882 4.56749 29.3375 3.62089C28.3881 2.67428 27.1265 2.1534 25.7823 2.1534C24.4395 2.1534 23.1778 2.67428 22.2271 3.62089C21.7602 4.08776 21.3964 4.63051 21.1474 5.22085C19.126 3.76236 16.6995 2.99839 14.0293 2.99839C10.7914 2.99839 7.75222 4.24981 5.47282 6.52243C2.81545 9.17318 1.35132 12.9467 1.35132 17.1486C1.35132 21.3543 2.73934 25.0532 5.25739 27.5638C7.46713 29.7682 10.487 30.9811 13.7597 30.9811C18.3804 30.9811 22.0814 28.913 24.2898 25.4185V29.9946H40.1205L40.8997 29.0248C42.4257 30.3187 43.3738 30.3329 45.59 30.3329C46.8723 30.3329 48.0681 30.0911 49.131 29.6435V29.9946H52.147C56.0118 29.9946 59.8753 29.9946 63.7388 29.9946H64.8443V33.9199H69.398C72.2656 33.9199 75.1049 33.3116 76.4555 28.904C76.4542 28.9117 80.3951 16.1672 80.3951 16.1672L81.5999 12.2741H77.5133Z" fill="white" stroke="#231F20" stroke-width="3.62712"/>
</g>
<path d="M31.0173 17.9484H34.0165C35.0937 17.9484 35.6703 17.2719 35.6703 16.054C35.6703 14.8578 34.8628 14.3177 33.863 14.3177H31.0173V17.9484ZM27.4402 10.957H34.4396C36.8622 10.957 39.2474 12.2418 39.2474 15.4906C39.2474 17.2269 38.5353 18.8732 37.0931 19.5278V19.5728C38.5547 19.978 38.9778 21.8956 39.0939 23.4287C39.1313 24.1052 38.7688 26.4743 39.2487 27.0608H35.7103C35.4033 26.5193 35.767 24.9399 35.7283 24.4885C35.6316 22.8654 35.4007 21.196 33.7289 21.196H31.0173V27.0608H27.4402V10.957Z" fill="#009D57"/>
<path d="M47.6827 20.0013C47.622 18.6932 46.7939 17.6103 45.6432 17.6103C44.4319 17.6103 43.6244 18.5801 43.4231 20.0013H47.6827ZM43.4231 22.144C43.4838 23.7452 44.3106 24.805 45.7644 24.805C46.5926 24.805 47.4001 24.3767 47.7226 23.5202H50.9334C50.3078 26.2262 48.0658 27.3992 45.7245 27.3992C42.3124 27.3992 39.9905 25.0983 39.9905 21.1742C39.9905 17.5884 42.5537 15.0162 45.6432 15.0162C49.3983 15.0162 51.2765 18.1749 51.1153 22.144H43.4231Z" fill="#009D57"/>
<path d="M52.2815 27.0609H55.5503V15.3557H52.2815V27.0609Z" fill="#009D57"/>
<path d="M57.5872 27.0609H60.856V10.957H57.5872V27.0609Z" fill="#009D57"/>
<path d="M62.5574 27.0609H65.8262V10.957H62.5574V27.0609Z" fill="#009D57"/>
<path d="M73.7055 28.0987C72.9173 30.6697 71.7447 30.9861 69.5337 30.9861H67.9947V27.8736H69.1299C69.8794 27.8736 70.4367 27.3772 70.4367 26.5656C70.4367 25.9328 69.802 24.1296 69.6098 23.4969L67.0337 15.3555H70.4947L72.3781 22.9785H72.4168L74.3015 15.3555H77.6477L73.7055 28.0987Z" fill="#009D57"/>
<path d="M13.947 8.33323C10.6188 8.33323 8.83219 11.1435 8.83219 16.445C8.83219 20.3175 9.99575 25.7001 14.4075 25.7001C17.9524 25.7001 19.3327 22.477 19.3327 17.3337C19.3327 11.9061 17.3035 8.33323 13.947 8.33323ZM23.6631 16.9208C23.6631 23.8416 19.7119 28.001 13.8928 28.001C8.45293 28.001 4.50171 23.8107 4.50171 17.1755C4.50171 10.8901 8.50711 6.03231 14.1637 6.03231C19.7932 6.03231 23.6631 10.4772 23.6631 16.9208Z" fill="#009D57"/>
<path d="M14.4848 21.4828C14.5558 21.4275 14.619 21.3658 14.6796 21.3015C14.6344 21.3761 14.5725 21.4378 14.4848 21.4828ZM14.4177 14.9544C14.4087 14.8515 14.3945 14.7499 14.3765 14.6483C14.3945 14.6598 14.4139 14.6714 14.4319 14.683C14.4293 14.773 14.4242 14.8643 14.4177 14.9544ZM18.111 16.4476C18.111 15.7736 17.5421 15.227 16.8416 15.227C16.5527 15.227 16.2869 15.3209 16.0728 15.4778C16.136 15.3376 16.1837 15.1936 16.1979 15.0405C16.2934 14.8695 16.3475 14.674 16.3475 14.4656C16.3475 13.7917 15.78 13.2451 15.0795 13.2451C14.7364 13.2451 14.4268 13.3763 14.1984 13.5885C13.9675 13.3582 13.6437 13.2142 13.2838 13.2142C12.5834 13.2142 12.0158 13.7595 12.0158 14.4335C12.0158 14.7923 12.177 15.1138 12.4337 15.3376C12.457 15.3839 12.4815 15.4315 12.5073 15.4765C12.4995 15.4778 12.4918 15.4778 12.484 15.4791C12.2699 15.3209 12.0042 15.227 11.7139 15.227C11.0122 15.227 10.4446 15.7736 10.4446 16.4476C10.4446 16.8 10.602 17.1177 10.8509 17.3402C10.6394 17.5588 10.5091 17.8508 10.5091 18.1723C10.5091 18.7048 10.8638 19.1562 11.3579 19.3234C11.3785 19.3414 11.3979 19.3594 11.4211 19.3748C11.6726 19.56 12.0106 19.5819 12.288 19.4469C12.4402 19.4404 12.5885 19.3826 12.7059 19.2694C12.7085 19.2668 12.7111 19.2642 12.7137 19.2617C12.8233 19.2295 12.9265 19.1781 13.022 19.1035C13 19.1189 12.9794 19.133 12.9575 19.1485C13.062 19.1099 13.1523 19.0507 13.2348 18.9826C13.4051 18.9453 13.5805 18.9221 13.7431 18.8578C13.7186 18.8681 13.6953 18.8758 13.6708 18.8861C13.7663 18.881 13.863 18.8822 13.9598 18.8745C13.9649 19.2346 13.9727 19.5948 13.9469 19.9562C13.9417 20.0333 13.9108 20.1079 13.8914 20.1864C13.894 20.1722 13.8966 20.1594 13.8992 20.1452C13.8282 20.2996 13.765 20.4552 13.685 20.6044C13.7057 20.5825 13.7315 20.5645 13.7573 20.5465C13.7289 20.5697 13.7031 20.5954 13.6773 20.6211C13.6644 20.643 13.6541 20.6648 13.6412 20.6867C13.645 20.6648 13.6541 20.6468 13.6657 20.6301C13.5676 20.7291 13.4877 20.8449 13.4464 20.9928C13.4464 20.9799 13.4464 20.9671 13.4464 20.9542C13.2929 21.2745 13.427 21.6552 13.7456 21.8095C14.0656 21.9613 14.4487 21.8275 14.6022 21.5098C14.6125 21.4918 14.6215 21.4725 14.6319 21.4532C14.9492 21.1124 15.1066 20.6443 15.1956 20.18C15.2769 19.762 15.2498 19.3607 15.2395 18.9556C15.7296 19.2938 16.3024 19.3581 16.8713 19.3247C16.8932 19.3234 16.9151 19.3247 16.9371 19.3234H16.9706C17.2015 19.3234 17.404 19.1986 17.5163 19.0121C17.8736 18.7961 18.111 18.4154 18.111 17.9807C18.111 17.69 18.0052 17.4238 17.8284 17.2141C18.0052 17.0045 18.111 16.7382 18.111 16.4476Z" fill="#009D57"/>
<path d="M13.6311 20.3537C13.622 20.3627 13.6156 20.373 13.6091 20.3833C13.613 20.3794 13.6169 20.3756 13.6207 20.3717C13.6246 20.3653 13.6272 20.3602 13.6311 20.3537Z" fill="#009D57"/>
<path fill-rule="evenodd" clip-rule="evenodd" d="M157.963 22.9786V22.5181H158.363C158.523 22.5181 158.757 22.5181 158.757 22.7304C158.757 22.94 158.629 22.9824 158.446 22.9786H157.963ZM158.629 23.223C158.919 23.2037 159.079 23.0789 159.079 22.7805C159.079 22.6108 159.033 22.4513 158.884 22.3548C158.76 22.2776 158.577 22.2738 158.438 22.2738H157.641V23.92H157.963V23.223H158.286L158.651 23.92H159.029L158.629 23.223ZM158.27 24.3265C157.583 24.3265 157.027 23.7773 157.027 23.0866C157.027 22.405 157.583 21.8545 158.27 21.8545C158.955 21.8545 159.506 22.405 159.506 23.0866C159.506 23.7773 158.955 24.3265 158.27 24.3265ZM158.27 24.6133C159.11 24.6133 159.794 23.9316 159.794 23.0866C159.794 22.2506 159.11 21.5677 158.27 21.5677C157.423 21.5677 156.739 22.2506 156.739 23.0866C156.739 23.9316 157.423 24.6133 158.27 24.6133Z" fill="#231F20"/>
<path d="M51.9319 11.9667C51.9319 10.8567 52.8336 9.95773 53.9468 9.95773C55.0588 9.95773 55.9605 10.8567 55.9605 11.9667C55.9605 13.0753 55.0588 13.9744 53.9468 13.9744C52.8336 13.9744 51.9319 13.0753 51.9319 11.9667Z" fill="#009D57"/>
<path d="M27.9278 7.23879C27.9278 6.13142 27.0273 5.23369 25.9167 5.23369C24.806 5.23369 23.9043 6.13142 23.9043 7.23879C23.9043 7.32496 23.912 7.40984 23.9236 7.49473C23.9262 7.60277 23.9546 7.76611 24.0552 7.99633C24.0733 8.04263 24.0952 8.08636 24.1171 8.13009C24.1184 8.13523 24.121 8.13909 24.1236 8.14295C24.1404 8.17639 24.1584 8.20983 24.1765 8.24198C24.3635 8.58538 24.6822 9.03553 25.2252 9.61944L24.4706 10.1841L25.2252 11.4368C25.2252 11.4368 27.5911 9.90368 27.8903 7.62077C27.9149 7.4973 27.9278 7.36997 27.9278 7.23879Z" fill="#009D57"/>
<path d="M85.0938 28.1161C85.4951 28.1161 85.721 28.0599 85.721 27.668C85.721 27.2532 85.5017 27.203 85.0938 27.203V28.1161ZM85.3951 26.5079C86.2921 26.5079 86.8444 26.7826 86.8444 27.662C86.8444 28.441 86.3176 28.8164 85.4701 28.8164H85.0999V30.2451H84.002V26.5079H85.3951Z" fill="white"/>
<path d="M85.0967 28.1129C85.4985 28.1129 85.7239 28.0567 85.7239 27.6648C85.7239 27.25 85.5046 27.1998 85.0967 27.1998V28.1129ZM85.3981 26.5048C86.2951 26.5048 86.8474 26.7794 86.8474 27.6592C86.8474 28.4378 86.3201 28.8132 85.473 28.8132H85.1028V30.2419H84.0049V26.5048H85.3981Z" fill="white"/>
<path d="M88.2046 28.077C88.5694 28.077 88.8389 28.0376 88.8389 27.6397C88.8389 27.2141 88.5874 27.1973 88.2046 27.1973V28.077ZM88.6054 26.5083C89.3836 26.5083 89.8802 26.6873 89.8802 27.5281C89.8802 27.9927 89.7008 28.2954 89.2042 28.3962C89.8024 28.4692 89.8442 28.8555 89.8564 29.3373C89.8622 29.4831 89.8686 29.6344 89.8686 29.7802C89.8686 29.9424 89.8866 30.1383 90.03 30.1945V30.2451H88.9167C88.8267 30.0881 88.8331 29.8809 88.8267 29.7071L88.8209 29.4104C88.8029 28.8948 88.8686 28.7322 88.2046 28.7322V30.2451H87.1575V26.5083H88.6054Z" fill="white"/>
<path d="M88.2076 28.0735C88.5724 28.0735 88.8418 28.0342 88.8418 27.6367C88.8418 27.2107 88.5908 27.1938 88.2076 27.1938V28.0735ZM88.6084 26.5048C89.3866 26.5048 89.8832 26.6843 89.8832 27.5247C89.8832 27.9896 89.7037 28.292 89.2071 28.3928C89.8053 28.4658 89.8472 28.8521 89.8593 29.3343C89.8652 29.4796 89.8715 29.631 89.8715 29.7767C89.8715 29.939 89.8895 30.1353 90.033 30.1911V30.2417H88.9196C88.8301 30.0847 88.836 29.8775 88.8301 29.7037L88.8243 29.407C88.8058 28.8914 88.8715 28.7292 88.2076 28.7292V30.2417H87.1604V26.5048H88.6084Z" fill="white"/>
<path d="M91.3183 28.5661C91.3183 28.8354 91.3247 29.11 91.3701 29.3737C91.3966 29.5365 91.4875 29.6876 91.7022 29.6876C91.9168 29.6876 92.0014 29.5421 92.0273 29.3737C92.0664 29.1156 92.0728 28.8463 92.0728 28.583V28.3865C92.0728 28.095 92.0728 27.8032 92.0469 27.5118C92.0273 27.3152 91.9623 27.0966 91.6889 27.0966C91.3315 27.0966 91.3315 27.4893 91.3315 27.7079C91.3183 27.9322 91.3183 28.1565 91.3183 28.3865V28.5661ZM91.6958 26.4293C93.2116 26.4293 93.2439 27.3434 93.2439 28.3865C93.2439 29.4131 93.2243 30.3384 91.7022 30.3384C90.2255 30.3384 90.1472 29.4131 90.1472 28.3865C90.1472 27.3434 90.1795 26.4293 91.6958 26.4293Z" fill="white"/>
<path d="M93.5312 26.5515V27.1454V30.2502H94.4655V28.6553H95.5555V28.1294H94.4655V27.1454H95.815H95.8323V26.5515H95.815H93.5312Z" fill="white"/>
<path d="M96.1785 26.5515V30.2502H96.4034H97.1819H98.4449V29.6055H97.1819V28.6723H98.3411V28.0615H97.1819V27.1454H98.4449V26.5515H97.1819H96.4034H96.1785Z" fill="white"/>
<path d="M99.9916 29.1494C99.9916 29.3735 99.9972 29.7097 100.307 29.7097C100.526 29.7097 100.653 29.553 100.653 29.351C100.653 28.5442 99.0604 28.998 99.0604 27.5634C99.0604 26.7903 99.6005 26.465 100.331 26.465C101.124 26.465 101.573 26.7847 101.573 27.5972H100.624C100.624 27.4068 100.601 27.1265 100.342 27.1265C100.147 27.1265 100.043 27.2666 100.043 27.4458C100.043 28.1743 101.664 27.8494 101.664 29.194C101.664 30.0627 101.147 30.3599 100.314 30.3599C99.451 30.3599 99.0254 30.0739 99.0254 29.2056C99.0254 29.1888 99.0315 29.1663 99.0315 29.1494H99.9916Z" fill="white"/>
<path d="M102.99 29.1496C102.99 29.3737 102.996 29.7099 103.306 29.7099C103.525 29.7099 103.651 29.5533 103.651 29.3513C103.651 28.5444 102.059 28.9982 102.059 27.5637C102.059 26.7906 102.599 26.4653 103.329 26.4653C104.122 26.4653 104.571 26.7849 104.571 27.5974H103.622C103.622 27.407 103.599 27.1267 103.34 27.1267C103.145 27.1267 103.042 27.2669 103.042 27.446C103.042 28.1745 104.663 27.8496 104.663 29.1942C104.663 30.0629 104.145 30.3601 103.312 30.3601C102.45 30.3601 102.024 30.0742 102.024 29.2059C102.024 29.189 102.03 29.1665 102.03 29.1496H102.99Z" fill="white"/>
<path d="M106.075 26.5378H105.079V30.2841H106.075V26.5378Z" fill="white"/>
<path d="M107.576 28.5661C107.576 28.8354 107.582 29.11 107.627 29.3737C107.654 29.5365 107.745 29.6876 107.959 29.6876C108.174 29.6876 108.259 29.5421 108.285 29.3737C108.324 29.1156 108.33 28.8463 108.33 28.583V28.3865C108.33 28.095 108.33 27.8032 108.304 27.5118C108.285 27.3152 108.22 27.0966 107.946 27.0966C107.589 27.0966 107.589 27.4893 107.589 27.7079C107.576 27.9322 107.576 28.1565 107.576 28.3865V28.5661ZM107.953 26.4293C109.469 26.4293 109.501 27.3434 109.501 28.3865C109.501 29.4131 109.482 30.3384 107.959 30.3384C106.483 30.3384 106.405 29.4131 106.405 28.3865C106.405 27.3434 106.437 26.4293 107.953 26.4293Z" fill="white"/>
<path d="M114.289 27.9748L114.119 28.8585H114.687L114.523 28.0028C114.477 27.7568 114.436 27.5107 114.412 27.2646H114.389C114.371 27.4995 114.33 27.7399 114.289 27.9748ZM115.067 26.5152L116.009 30.2451H114.939L114.81 29.6243H114.014L113.886 30.2451H112.821L113.78 26.5152H115.067Z" fill="white"/>
<path d="M110.538 26.4836L110.504 26.5006H109.777V30.2502H110.538V28.1124L111.698 30.2502H112.632V26.5006H111.732V28.7062L110.538 26.5006V26.4836Z" fill="white"/>
<path d="M116.126 26.5176V30.2502H116.438H117.078H118.41V29.4867H117.078V26.5176H116.126Z" fill="white"/>
<path d="M121.191 28.1161C121.592 28.1161 121.818 28.0599 121.818 27.668C121.818 27.2532 121.599 27.203 121.191 27.203V28.1161ZM121.492 26.5079C122.389 26.5079 122.941 26.7826 122.941 27.662C122.941 28.441 122.415 28.8164 121.567 28.8164H121.197V30.2451H120.099V26.5079H121.492Z" fill="white"/>
<path d="M121.194 28.1129C121.596 28.1129 121.821 28.0567 121.821 27.6648C121.821 27.25 121.602 27.1998 121.194 27.1998V28.1129ZM121.495 26.5048C122.392 26.5048 122.945 26.7794 122.945 27.6592C122.945 28.4378 122.417 28.8132 121.57 28.8132H121.2V30.2419H120.102V26.5048H121.495Z" fill="white"/>
<path d="M124.225 27.9748L124.055 28.8585H124.623L124.459 28.0028C124.412 27.7568 124.371 27.5107 124.348 27.2646H124.324C124.307 27.4995 124.266 27.7399 124.225 27.9748ZM125.003 26.5152L125.945 30.2451H124.874L124.746 29.6243H123.95L123.821 30.2451H122.756L123.716 26.5152H125.003Z" fill="white"/>
<path d="M127.43 28.077C127.795 28.077 128.064 28.0376 128.064 27.6397C128.064 27.2141 127.813 27.1973 127.43 27.1973V28.077ZM127.831 26.5083C128.609 26.5083 129.106 26.6873 129.106 27.5281C129.106 27.9927 128.926 28.2954 128.43 28.3962C129.028 28.4692 129.07 28.8555 129.082 29.3373C129.088 29.4831 129.094 29.6344 129.094 29.7802C129.094 29.9424 129.112 30.1383 129.255 30.1945V30.2451H128.142C128.052 30.0881 128.058 29.8809 128.052 29.7071L128.046 29.4104C128.028 28.8948 128.094 28.7322 127.43 28.7322V30.2451H126.383V26.5083H127.831Z" fill="white"/>
<path d="M127.433 28.0735C127.797 28.0735 128.067 28.0342 128.067 27.6367C128.067 27.2107 127.816 27.1938 127.433 27.1938V28.0735ZM127.833 26.5048C128.612 26.5048 129.108 26.6843 129.108 27.5247C129.108 27.9896 128.929 28.292 128.432 28.3928C129.03 28.4658 129.072 28.8521 129.084 29.3343C129.09 29.4796 129.097 29.631 129.097 29.7767C129.097 29.939 129.115 30.1353 129.258 30.1911V30.2417H128.145C128.055 30.0847 128.061 29.8775 128.055 29.7037L128.049 29.407C128.031 28.8914 128.097 28.7292 127.433 28.7292V30.2417H126.385V26.5048H127.833Z" fill="white"/>
<path d="M129.362 26.5176V27.2811H130.279V30.2502H131.213V27.2811H132.113V26.5176H131.213H130.279H129.362Z" fill="white"/>
<path d="M133.316 29.1496C133.316 29.3737 133.322 29.7099 133.632 29.7099C133.851 29.7099 133.978 29.5533 133.978 29.3513C133.978 28.5444 132.385 28.9982 132.385 27.5637C132.385 26.7906 132.925 26.4653 133.656 26.4653C134.449 26.4653 134.897 26.7849 134.897 27.5974H133.949C133.949 27.407 133.926 27.1267 133.667 27.1267C133.472 27.1267 133.368 27.2669 133.368 27.446C133.368 28.1745 134.989 27.8496 134.989 29.1942C134.989 30.0629 134.472 30.3601 133.638 30.3601C132.776 30.3601 132.35 30.0742 132.35 29.2059C132.35 29.189 132.356 29.1665 132.356 29.1496H133.316Z" fill="white"/>
<path d="M137.804 28.1161C138.206 28.1161 138.431 28.0599 138.431 27.668C138.431 27.2532 138.212 27.203 137.804 27.203V28.1161ZM138.106 26.5079C139.003 26.5079 139.555 26.7826 139.555 27.662C139.555 28.441 139.028 28.8164 138.181 28.8164H137.81V30.2451H136.712V26.5079H138.106Z" fill="#FF0000"/>
<path d="M137.807 28.1129C138.209 28.1129 138.435 28.0567 138.435 27.6648C138.435 27.25 138.215 27.1998 137.807 27.1998V28.1129ZM138.109 26.5048C139.006 26.5048 139.558 26.7794 139.558 27.6592C139.558 28.4378 139.031 28.8132 138.184 28.8132H137.814V30.2419H136.716V26.5048H138.109Z" fill="white"/>
<path d="M139.836 26.5513V30.25H140.061H140.839H142.102V29.6052H140.839V28.6721H141.999V28.0613H140.839V27.1451H142.102V26.5513H140.839H140.061H139.836Z" fill="white"/>
<path d="M143.554 28.5661C143.554 28.8354 143.56 29.11 143.606 29.3737C143.632 29.5365 143.723 29.6876 143.938 29.6876C144.152 29.6876 144.237 29.5421 144.263 29.3737C144.302 29.1156 144.308 28.8463 144.308 28.583V28.3865C144.308 28.095 144.308 27.8032 144.282 27.5118C144.263 27.3152 144.198 27.0966 143.925 27.0966C143.567 27.0966 143.567 27.4893 143.567 27.7079C143.554 27.9322 143.554 28.1565 143.554 28.3865V28.5661ZM143.931 26.4293C145.447 26.4293 145.479 27.3434 145.479 28.3865C145.479 29.4131 145.46 30.3384 143.938 30.3384C142.461 30.3384 142.383 29.4131 142.383 28.3865C142.383 27.3434 142.415 26.4293 143.931 26.4293Z" fill="white"/>
<path d="M146.815 28.1161C147.216 28.1161 147.442 28.0599 147.442 27.668C147.442 27.2532 147.223 27.203 146.815 27.203V28.1161ZM147.116 26.5079C148.013 26.5079 148.566 26.7826 148.566 27.662C148.566 28.441 148.039 28.8164 147.191 28.8164H146.821V30.2451H145.723V26.5079H147.116Z" fill="white"/>
<path d="M146.818 28.1129C147.22 28.1129 147.445 28.0567 147.445 27.6648C147.445 27.25 147.226 27.1998 146.818 27.1998V28.1129ZM147.12 26.5048C148.017 26.5048 148.569 26.7794 148.569 27.6592C148.569 28.4378 148.041 28.8132 147.194 28.8132H146.824V30.2419H145.726V26.5048H147.12Z" fill="white"/>
<path d="M148.833 26.5173V30.25H149.144H149.784H151.116V29.4865H149.784V26.5173H148.833Z" fill="white"/>
<path d="M151.462 26.5513V30.25H151.687H152.466H153.729V29.6052H152.466V28.6721H153.625V28.0613H152.466V27.1451H153.729V26.5513H152.466H151.687H151.462Z" fill="white"/>
<path d="M80.4427 12.9148L75.0793 29.8006L76.9652 30.4234L81.2385 16.9978L82.242 13.503L80.4427 12.9148Z" fill="#231F20"/>
</svg>
