<svg width="35" height="36" viewBox="0 0 35 36" fill="none" xmlns="http://www.w3.org/2000/svg">
    <path fill-rule="evenodd" clip-rule="evenodd" d="M10.628 24.6001C12.5136 27.943 16.1136 31.2855 22.1989 31.4567C26.399 31.4567 29.8273 29.7427 32.3989 26.6572C32.8275 26.0573 33.3416 25.2858 33.5986 24.6859H33.9417C31.1644 31.3346 24.834 35.9176 17.7088 36H17.3136C14.2279 35.914 11.3995 35.3141 8.65667 33.7713C8.65667 33.7713 3.25706 31.2857 0.685669 24.6859H10.7138L10.628 24.6001Z" fill="#005BAB"/>
    <path d="M17.3136 35.9998C14.2279 35.9138 11.3995 35.3139 8.65667 33.7711C8.65667 33.7711 3.25706 31.2855 0.685669 24.6857H10.7138M10.628 24.6001C12.5136 27.943 16.1136 31.2855 22.1989 31.4567C26.399 31.4567 29.8273 29.7427 32.3989 26.6572C32.8275 26.0573 33.3416 25.2858 33.5986 24.6859H33.9417C31.1644 31.3346 24.834 35.9176 17.7088 36L10.628 24.6001Z" stroke="#F1EED3" stroke-width="0.0016" stroke-miterlimit="2.6131" stroke-linecap="square"/>
    <path fill-rule="evenodd" clip-rule="evenodd" d="M15.6851 14.0576C16.3708 15.086 16.8851 15.7719 17.3135 16.4576C17.8278 15.6863 18.1705 15.172 18.9422 14.0576C20.1422 14.0576 21.5994 14.0576 22.7992 14.0576C21.685 15.5146 20.5706 17.0575 19.7993 18.0004C20.8279 19.3716 21.7706 20.6574 22.7992 21.9432H18.8564C18.3421 21.1717 17.9136 20.486 17.3135 19.6289C16.8851 20.3144 16.1994 21.2573 15.6851 21.9432C14.3995 21.9432 12.9423 21.9432 11.8281 21.9432C12.7709 20.6574 13.7994 19.2858 14.828 18.0004C13.8852 16.8004 12.6853 15.3432 11.8281 14.0576C12.9423 14.0576 13.9708 14.0576 15.6851 14.0576Z" fill="#ED1B2F"/>
    <path d="M15.6851 14.0576C16.3708 15.086 16.8851 15.7719 17.3135 16.4576C17.8278 15.6863 18.1705 15.172 18.9422 14.0576C20.1422 14.0576 21.5994 14.0576 22.7992 14.0576C21.685 15.5146 20.5706 17.0575 19.7993 18.0004C20.8279 19.3716 21.7706 20.6574 22.7992 21.9432H18.8564C18.3421 21.1717 17.9136 20.486 17.3135 19.6289C16.8851 20.3144 16.1994 21.2573 15.6851 21.9432C14.3995 21.9432 12.9423 21.9432 11.8281 21.9432C12.7709 20.6574 13.7994 19.2858 14.828 18.0004C13.8852 16.8004 12.6853 15.3432 11.8281 14.0576C12.9423 14.0576 13.9708 14.0576 15.6851 14.0576Z" stroke="#F1EED3" stroke-width="0.0016" stroke-miterlimit="2.6131" stroke-linecap="square"/>
    <path fill-rule="evenodd" clip-rule="evenodd" d="M29.2272 16.3718C29.8273 15.6002 30.4274 14.8289 31.0273 14.0576C32.2273 14.0576 33.5985 14.0576 34.7128 14.0576C33.1698 16.0289 31.4558 18.1718 30.8557 18.9429V21.9432H27.513V18.9429C26.8275 18.0004 24.4273 15.0004 23.7416 14.0576H27.4269L29.2272 16.3718Z" fill="#ED1B2F"/>
    <path d="M29.2272 16.3718C29.8273 15.6002 30.4274 14.8289 31.0273 14.0576C32.2273 14.0576 33.5985 14.0576 34.7128 14.0576C33.1698 16.0289 31.4558 18.1718 30.8557 18.9429V21.9432H27.513V18.9429C26.8275 18.0004 24.4273 15.0004 23.7416 14.0576H27.4269L29.2272 16.3718Z" stroke="#F1EED3" stroke-width="0.0016" stroke-miterlimit="2.6131" stroke-linecap="square"/>
    <path fill-rule="evenodd" clip-rule="evenodd" d="M23.9132 11.4005C22.1133 8.14358 18.5136 4.80067 12.428 4.54363C8.1426 4.54363 4.79989 6.3435 2.22829 9.34356C1.79963 9.94366 1.28556 10.715 0.942703 11.3149H0.685669C3.46983 4.64949 9.82575 0.0610809 16.973 0.000946044C17.0864 -9.79636e-05 17.1998 -0.000515567 17.3134 0.000946044C20.399 0.172163 23.2275 0.772259 25.9703 2.22928C25.9703 2.22928 31.2843 4.71485 33.9415 11.3146H23.8276L23.9132 11.4005Z" fill="#005BAB"/>
    <path d="M23.9132 11.4005C22.1133 8.14358 18.5136 4.80067 12.428 4.54363C8.1426 4.54363 4.79989 6.3435 2.22829 9.34356C1.79963 9.94366 1.28556 10.715 0.942703 11.3149H0.685669C3.46983 4.64949 9.82575 0.0610809 16.973 0.000946044C17.0864 -9.79636e-05 17.1998 -0.000515567 17.3134 0.000946044C20.399 0.172163 23.2275 0.772259 25.9703 2.22928C25.9703 2.22928 31.2843 4.71485 33.9415 11.3146H23.8276" stroke="#F1EED3" stroke-width="0.0016" stroke-miterlimit="2.6131" stroke-linecap="square"/>
    <path fill-rule="evenodd" clip-rule="evenodd" d="M8.57109 21.9433H2.14272C0.685704 21.9433 0 20.9143 0 20.1432C0 18.0005 0 17.2289 0 15.7719C0.257035 14.4861 1.37141 14.0577 2.14272 14.0577H8.5713C10.6282 13.9718 10.6282 15.7719 10.6282 15.7719C10.6282 16.8005 10.6282 18.2575 10.6282 20.1432C10.628 20.1432 10.7996 21.9433 8.57109 21.9433ZM3.3427 18.0003C3.3427 18.3429 3.3427 18.1717 3.3427 18.7716C3.3427 18.7716 3.3427 19.6287 4.19983 19.6287C4.62829 19.6287 5.05696 19.6287 5.39961 19.6287C5.91389 19.6287 6.17113 19.6287 6.59959 19.6287C7.19969 19.6287 7.37111 19.3715 7.37111 18.7716C7.37111 18.2573 7.45672 17.4004 7.45672 17.2287C7.37111 16.7145 7.02826 16.3718 6.5998 16.3718C5.05717 16.3718 6.5998 16.3718 5.39982 16.3718C5.05717 16.3718 4.6285 16.3718 4.20004 16.3718C3.34291 16.286 3.34291 17.1431 3.34291 17.1431C3.3427 17.743 3.3427 17.8288 3.3427 18.0003Z" fill="#ED1B2F"/>
    <path fill-rule="evenodd" clip-rule="evenodd" d="M8.57109 21.9433H2.14272C0.685704 21.9433 0 20.9143 0 20.1432C0 18.0005 0 17.2289 0 15.7719C0.257035 14.4861 1.37141 14.0577 2.14272 14.0577H8.5713C10.6282 13.9718 10.6282 15.7719 10.6282 15.7719C10.6282 16.8005 10.6282 18.2575 10.6282 20.1432C10.628 20.1432 10.7996 21.9433 8.57109 21.9433ZM3.3427 18.0003C3.3427 18.3429 3.3427 18.1717 3.3427 18.7716C3.3427 18.7716 3.3427 19.6287 4.19983 19.6287C4.62829 19.6287 5.05696 19.6287 5.39961 19.6287C5.91389 19.6287 6.17113 19.6287 6.59959 19.6287C7.19969 19.6287 7.37111 19.3715 7.37111 18.7716C7.37111 18.2573 7.45672 17.4004 7.45672 17.2287C7.45672 16.7145 7.02826 16.3718 6.5998 16.3718C5.05717 16.3718 6.5998 16.3718 5.39982 16.3718C5.05717 16.3718 4.6285 16.3718 4.20004 16.3718C3.34291 16.286 3.34291 17.1431 3.34291 17.1431C3.3427 17.743 3.3427 17.8288 3.3427 18.0003Z" fill="#ED1B2F"/>
    <path d="M8.57109 21.9433H2.14272C0.685704 21.9433 0 20.9143 0 20.1432C0 18.0005 0 17.2289 0 15.7719C0.257035 14.4861 1.37141 14.0577 2.14272 14.0577H8.5713C10.6282 13.9718 10.6282 15.7719 10.6282 15.7719C10.6282 16.8005 10.6282 18.2575 10.6282 20.1432C10.628 20.1432 10.7996 21.9433 8.57109 21.9433ZM3.3427 18.0003C3.3427 18.3429 3.3427 18.1717 3.3427 18.7716C3.3427 18.7716 3.3427 19.6287 4.19983 19.6287C4.62829 19.6287 5.05696 19.6287 5.39961 19.6287C5.91389 19.6287 6.17113 19.6287 6.59959 19.6287C7.19969 19.6287 7.37111 19.3715 7.37111 18.7716C7.37111 18.2573 7.45672 17.4004 7.45672 17.2287C7.45672 16.7145 7.02826 16.3718 6.5998 16.3718C5.05717 16.3718 6.5998 16.3718 5.39982 16.3718C5.05717 16.3718 4.6285 16.3718 4.20004 16.3718C3.34291 16.286 3.34291 17.1431 3.34291 17.1431C3.3427 17.743 3.3427 17.8288 3.3427 18.0003Z" stroke="#F1EED3" stroke-width="0.0016" stroke-miterlimit="2.6131" stroke-linecap="square"/>
</svg>
