<svg width="66" height="8" viewBox="0 0 66 8" fill="none" xmlns="http://www.w3.org/2000/svg">
    <g clip-path="url(#clip0_1202_2)">
        <path d="M0.740229 0.860265H3.75116C4.60142 0.860265 5.20161 1.17036 5.20161 2.24069C5.20161 3.07095 4.8415 3.64112 3.60111 3.64112H0.740229V0.860265ZM0 7.32226H0.740229V4.32134H3.52109C5.11158 4.32134 6.00186 3.59111 6.00186 2.24069C6.00186 0.730224 4.95153 0.180054 3.85119 0.180054H0V7.32226V7.32226ZM6.49201 3.75116C6.49201 6.27194 8.34258 7.50232 10.3732 7.50232C12.4038 7.50232 14.2544 6.27194 14.2544 3.75116C14.2544 1.23038 12.4038 -1.66893e-06 10.3732 -1.66893e-06C8.34258 -1.66893e-06 6.49201 1.23038 6.49201 3.75116V3.75116ZM7.29226 3.75116C7.29226 1.60049 8.80272 0.680209 10.3732 0.680209C11.9437 0.680209 13.4542 1.60049 13.4542 3.75116C13.4542 5.90182 11.9437 6.82211 10.3732 6.82211C8.80272 6.82211 7.29226 5.90182 7.29226 3.75116V3.75116ZM14.9646 7.32226H15.7049V4.18129H18.5757C19.8061 4.18129 20.2863 4.60142 20.3063 5.86181C20.3163 6.64205 20.3663 7.17222 20.4963 7.32226H21.2966C21.1265 7.16221 21.0665 6.29194 21.0465 5.84181C20.9965 4.67144 20.7864 4.02124 19.7761 3.86119V3.84119C20.7064 3.63112 21.1766 2.87089 21.1766 2.11065C21.1766 0.610187 20.0662 0.180054 18.8558 0.180054H14.9646V7.32226V7.32226ZM15.7049 0.860265H18.9058C19.5861 0.860265 20.3763 1.06033 20.3763 2.11065C20.3763 3.20099 19.6461 3.50108 18.8358 3.50108H15.7049V0.860265ZM27.7382 2.22069C27.6886 0.520159 26.2177 -1.66893e-06 24.7577 -1.66893e-06C23.3772 -1.66893e-06 21.9364 0.510156 21.9364 2.07064C21.9364 3.22099 22.8467 3.70114 24.5472 3.97123C25.8476 4.18129 27.148 4.31133 27.148 5.40167C27.148 6.53202 26.0376 6.82211 24.9673 6.82211C23.5969 6.82211 22.5966 6.462 22.4665 4.96153H21.7267C21.8363 6.88213 23.1567 7.50232 24.9673 7.50232C26.3577 7.50232 27.9482 7.02217 27.9482 5.27163C27.9482 3.90121 26.6478 3.60111 25.3474 3.38104C23.6069 3.09095 22.7366 2.87089 22.7366 1.9406C22.7366 1.13035 23.6069 0.680209 24.7577 0.680209C25.9076 0.680209 26.8979 1.00031 26.9979 2.22069H27.7382V2.22069ZM34.9808 4.60142C34.7303 5.96184 33.8901 6.82211 32.1895 6.82211C30.0193 6.82211 29.1886 5.34165 29.1886 3.75116C29.1886 1.67052 30.419 0.680209 32.1895 0.680209C33.4799 0.680209 34.7003 1.23038 34.9204 2.5908H35.6606C35.4405 0.710218 33.75 -1.66893e-06 32.1895 -1.66893e-06C29.3987 -1.66893e-06 28.3884 2.12065 28.3884 3.75116C28.3884 6.04187 29.8688 7.50232 32.1895 7.50232C34.2406 7.50232 35.5606 6.20192 35.7206 4.60142H34.9808V4.60142ZM36.4413 7.32226H37.1815V3.8812H42.3431V7.32226H43.0833V0.180054H42.3431V3.20099H37.1815V0.180054H36.4413V7.32226ZM43.9732 7.32226H49.7346V6.64205H44.713V3.96122H49.4745V3.28101H44.713V0.860265H49.6545V0.180054H43.9732V7.32226ZM59.3175 2.22069C59.2675 0.520159 57.797 -1.66893e-06 56.3366 -1.66893e-06C54.9562 -1.66893e-06 53.5157 0.510156 53.5157 2.07064C53.5157 3.22099 54.4264 3.70114 56.1269 3.97123C57.4269 4.18129 58.7273 4.31133 58.7273 5.40167C58.7273 6.53202 57.6174 6.82211 56.5467 6.82211C55.1767 6.82211 54.1759 6.462 54.0459 4.96153H53.3057C53.4161 6.88213 54.7361 7.50232 56.5467 7.50232C57.9371 7.50232 59.528 7.02217 59.528 5.27163C59.528 3.90121 58.2272 3.60111 56.9272 3.38104C55.1862 3.09095 54.316 2.87089 54.316 1.9406C54.316 1.13035 55.1862 0.680209 56.3366 0.680209C57.487 0.680209 58.4777 1.00031 58.5773 2.22069H59.3175V2.22069ZM60.2378 7.32226H66V6.64205H60.9784V3.96122H65.7399V3.28101H60.9784V0.860265H65.92V0.180054H60.2378V7.32226" fill="#231F20"/>
    </g>
    <defs>
        <clipPath id="clip0_1202_2">
            <rect width="66" height="7.50232" fill="white"/>
        </clipPath>
    </defs>
</svg>
