<svg width="513" height="94" viewBox="0 0 513 94" fill="none" xmlns="http://www.w3.org/2000/svg">
    <path d="M217.529 17.1758C210.917 17.1758 204.047 18.9782 195.545 23.5314L200.269 35.211C207.652 31.0886 213.751 29.2862 218.217 29.2862C223.284 29.2862 225.517 31.1755 225.517 33.6656V33.8356C225.517 35.5549 224.142 36.4995 220.794 36.8434L214.956 37.4442C200.355 38.9896 194.344 45.3452 194.344 54.104V54.7048C194.344 63.0366 201.213 69.5623 210.917 69.5623C217.306 69.5623 222.857 66.8644 226.231 62.1033L227.32 68.7045H240.545V38.7327C240.545 24.5629 232.387 17.1758 217.529 17.1758ZM216.241 58.1396C211.347 58.1396 209.027 56.2503 209.027 53.3294V53.1594C209.027 50.5824 210.486 48.6931 215.81 47.9222L218.13 47.5784C221.519 47.1061 223.601 46.4826 225.517 45.3226V49.1238C225.517 54.8786 221.909 58.1396 216.241 58.1396Z" fill="black"/>
    <path d="M93.1788 17.5183L76.2621 0.601562L59.3453 17.5183L67.7602 25.9371L25.3379 68.3594L42.2547 85.2762L59.1715 68.3594L50.7565 59.9444L93.1788 17.5183Z" fill="#F04E23"/>
    <path d="M42.4236 0.599858L0 43.0234L16.9181 59.9416L59.3417 17.518L42.4236 0.599858Z" fill="#F04E23"/>
    <path d="M101.594 25.9397L59.1699 68.3633L76.0881 85.2814L118.512 42.8578L101.594 25.9397Z" fill="#F04E23"/>
    <path d="M264.16 0H249.133V68.7025H264.16V0Z" fill="black"/>
    <path d="M169.096 17.1758C162.264 17.1758 156.778 20.1987 153.759 24.9332L152.61 18.0335H139.385V85.8745H154.412V62.3603C157.273 66.7699 162.684 69.5585 169.096 69.5585C181.119 69.5585 190.91 58.9104 190.91 44.223V42.5037C190.91 27.8277 181.119 17.1758 169.096 17.1758ZM175.451 43.7998C175.451 51.527 171.416 57.1118 164.716 57.1118C158.017 57.1118 153.981 51.5308 153.981 43.7998V42.942C153.981 35.211 158.017 29.63 164.716 29.63C171.416 29.63 175.451 35.211 175.451 42.942V43.7998Z" fill="black"/>
    <path d="M466.916 17.1758C451.545 17.1758 440.723 27.8239 440.723 42.5113V44.2305C440.723 58.9142 451.545 69.566 466.916 69.566C482.287 69.566 493.109 58.9179 493.109 44.2305V42.5113C493.109 27.8276 482.287 17.1758 466.916 17.1758ZM477.651 43.7998C477.651 51.527 473.615 57.1118 466.916 57.1118C460.216 57.1118 456.181 51.5308 456.181 43.7998V42.942C456.181 35.211 460.216 29.63 466.916 29.63C473.615 29.63 477.651 35.211 477.651 42.942V43.7998Z" fill="black"/>
    <path d="M507.28 20.2666V20.0096C507.28 18.5511 506.165 17.5195 504.189 17.5195H500.754V25.4206H502.386V22.7567H504.2L505.564 25.4206H507.366L505.689 22.2957C506.709 21.9821 507.28 21.2188 507.28 20.2666ZM502.383 18.9781H504.185C505.216 18.9781 505.643 19.3219 505.643 20.0965V20.1834C505.643 20.8711 505.213 21.2981 504.185 21.2981H502.383V18.9781Z" fill="black"/>
    <path d="M503.844 13.3125C499.207 13.3125 495.686 16.8342 495.686 21.4705C495.686 26.1068 499.207 29.6285 503.844 29.6285C508.48 29.6285 512.002 26.1068 512.002 21.4705C512.002 16.8342 508.48 13.3125 503.844 13.3125ZM503.844 28.51C499.808 28.51 496.887 25.5892 496.887 21.4667C496.887 17.3443 499.808 14.4234 503.844 14.4234C507.879 14.4234 510.8 17.3443 510.8 21.4667C510.8 25.5892 507.879 28.51 503.844 28.51Z" fill="black"/>
    <path d="M396.494 0H381.467V68.7025H396.494V0Z" fill="black"/>
    <path d="M426.125 57.1085C421.746 57.1085 420.113 54.9622 420.113 50.3259V29.6268H437.805V18.034H420.113V6.4375L405.086 8.67065V51.7807C405.086 63.5472 411.098 69.559 423.121 69.559C428.445 69.559 434.714 67.9266 439.868 65.0058L435.575 54.3577C432.564 55.99 428.358 57.1085 426.125 57.1085Z" fill="black"/>
    <path d="M349.867 17.1758C343.255 17.1758 336.385 18.9782 327.883 23.5314L332.606 35.211C339.99 31.0886 346.088 29.2862 350.555 29.2862C355.622 29.2862 357.855 31.1755 357.855 33.6656V33.8356C357.855 35.5549 356.48 36.4995 353.132 36.8434L347.294 37.4442C332.693 38.9896 326.682 45.3452 326.682 54.104V54.7048C326.682 63.0366 333.551 69.5623 343.255 69.5623C349.64 69.5623 355.195 66.8644 358.569 62.1033L359.657 68.7045H372.883V38.7327C372.883 24.5629 364.725 17.1758 349.867 17.1758ZM348.579 58.1396C343.682 58.1396 341.365 56.2503 341.365 53.3294V53.1594C341.365 50.5824 342.824 48.6931 348.148 47.9222L350.468 47.5784C353.857 47.1061 355.939 46.4826 357.851 45.3226V49.1238C357.851 54.8786 354.246 58.1396 348.579 58.1396Z" fill="black"/>
    <path d="M297.053 17.1758C281.681 17.1758 270.859 27.8239 270.859 42.5113V44.2305C270.859 58.9142 281.681 69.566 297.053 69.566C312.424 69.566 323.246 58.9179 323.246 44.2305V42.5113C323.242 27.8276 312.424 17.1758 297.053 17.1758ZM307.784 43.7998C307.784 51.527 303.748 57.1118 297.049 57.1118C290.349 57.1118 286.314 51.5308 286.314 43.7998V42.942C286.314 35.211 290.349 29.63 297.049 29.63C303.748 29.63 307.784 35.211 307.784 42.942V43.7998Z" fill="black"/>
    <path d="M358.564 80.8867H362.415L367.731 87.896H367.784V80.8867H371.317V93.2465H367.591L362.15 86.0596H362.097V93.2465H358.564V80.8867Z" fill="black"/>
    <path d="M376.016 80.8867H386.822L386.966 83.8869H379.707V85.5835H385.409V88.3192H379.707V90.2463H387.178L387.034 93.2465H376.016V80.8867Z" fill="black"/>
    <path d="M394.7 84.0645H390.373L390.513 80.8867H402.608L402.752 84.0645H398.425V93.2465H394.7V84.0645Z" fill="black"/>
    <path d="M405.738 80.8867H409.691L411.705 89.4679H411.901L414.512 80.8867H418.136L420.694 89.4679H420.89L422.867 80.8867H426.645L423.396 93.2465H418.54L416.281 85.7951H416.175L413.877 93.2465H409.003L405.738 80.8867Z" fill="black"/>
    <path d="M429.363 87.0677C429.363 83.0397 432.099 80.5156 436.425 80.5156C440.752 80.5156 443.491 83.0397 443.491 87.0677C443.491 91.0957 440.756 93.6198 436.425 93.6198C432.099 93.6198 429.363 91.0919 429.363 87.0677ZM439.8 87.0677C439.8 84.9328 438.564 83.6594 436.425 83.6594C434.287 83.6594 433.051 84.9328 433.051 87.0677C433.051 89.2064 434.287 90.476 436.407 90.476C438.545 90.476 439.8 89.2026 439.8 87.0677Z" fill="black"/>
    <path d="M447.502 80.8867H454.708C457.991 80.8867 459.601 82.4397 459.601 85.319C459.601 87.2952 458.789 88.6404 457.198 89.2752L460.13 93.2503H455.928L453.65 90.0007H451.213V93.2503H447.502V80.8867ZM454.228 87.1025C455.463 87.1025 455.906 86.4148 455.906 85.4777C455.906 84.5406 455.463 83.8718 454.228 83.8718H451.209V87.1025H454.228Z" fill="black"/>
    <path d="M464.418 80.8867H468.125V85.4437H469.644L473.264 80.8867H477.431L477.45 80.9018L472.72 86.8191L477.715 93.2314L477.696 93.2465H473.369L469.629 88.4968H468.125V93.2465H464.418V80.8867Z" fill="black"/>
    <path d="M480.556 92.4304V89.041H480.575C482.642 90.0839 484.656 90.594 486.402 90.594C487.728 90.594 488.397 90.2766 488.397 89.6569C488.397 89.0373 487.955 88.8786 485.306 88.4554C482.411 87.9981 480.484 87.1291 480.484 84.639C480.484 82.3265 482.517 80.543 486.489 80.543C488.079 80.543 489.738 80.8793 491.276 81.533V84.8884L491.257 84.9073C489.791 84.0608 487.815 83.5281 486.224 83.5281C484.811 83.5281 484.248 83.8644 484.248 84.4274C484.248 85.1529 485.113 85.2209 487.286 85.595C490.18 86.0899 492.107 86.9023 492.107 89.5171C492.107 91.5462 490.588 93.5791 486.228 93.5791C484.074 93.5791 482.359 93.137 480.556 92.4304Z" fill="black"/>
</svg>
