<svg width="160" height="33" viewBox="0 0 160 33" fill="none" xmlns="http://www.w3.org/2000/svg">
    <path d="M9.01566 14.1802H11.6147C12.1276 14.1802 12.5942 14.5134 12.5942 15.0701C12.5942 15.815 12.008 16.3364 11.1944 16.3364H8.41797L9.01566 14.1802Z" fill="#00853F"/>
    <path d="M21.7832 14.1924H24.2357C25.3964 14.1924 25.4427 14.9961 25.4427 15.2235C25.4427 15.7566 24.98 16.8034 23.5686 16.8034H21.0698C21.0698 16.8034 21.7716 14.259 21.7832 14.1924Z" fill="#00853F"/>
    <path d="M7.7893 18.5752H10.0336C11.1326 18.5752 11.1943 18.8771 11.3447 19.1358C11.495 19.3946 11.4256 19.9395 11.3254 20.1277C11.1904 20.3629 10.9706 21.0921 9.56695 21.0921H7.07202C7.07202 21.0921 7.7893 18.5791 7.7893 18.5752Z" fill="#00853F"/>
    <path d="M31.5047 11.8477V31.8459H0.374023V11.8477H6.36262L3.04247 23.4914H9.83701C12.7792 23.4914 13.2921 22.7936 13.8898 22.2839C14.688 21.6057 15.1161 19.9904 14.7574 18.8692C14.5029 18.0733 13.7626 17.5911 13.6816 17.5676C14.6032 17.1363 15.1392 16.1876 15.2048 16.0465C15.5441 15.329 15.8102 14.0235 14.9618 12.9767C14.2561 12.1064 12.8834 11.8633 11.8885 11.8477H19.165L15.8333 23.5149H19.2036L20.4337 19.0887H22.3618C23.7616 19.0887 23.6343 19.9748 23.669 20.355L23.777 23.6051H26.9082C26.9082 23.6051 26.7655 19.9552 26.7539 19.6886C26.7115 18.7516 26.1022 18.3282 25.5778 18.3282C26.5804 18.0537 27.4519 17.1285 27.799 16.5365C28.2 15.8544 28.5046 14.7684 28.1074 13.6903C27.529 12.126 26.0444 11.8673 25.0071 11.8477H31.5047Z" fill="#00853F"/>
    <path d="M0.370117 8.02135H31.5008V0.376465H0.370117V8.02135Z" fill="#FDB823"/>
    <path d="M140.53 22.0959V19.6652H141.706L141.663 15.4743L140.53 17.5286V12.3536L140.776 11.9537H144.598L145.465 23.6249H141.706L141.686 22.0959H140.53ZM159.575 15.3488C159.887 13.3141 158.896 11.6597 155.692 11.6597C152.819 11.6597 150.363 12.8946 149.661 15.3919C148.419 19.8299 155.36 18.6185 154.886 20.3984C154.72 20.9433 154.018 21.2569 153.07 21.2569C152.696 21.2569 152.326 21.1511 152.075 20.9629C151.809 20.7551 151.685 20.4611 151.728 20.0416H148.111C147.594 22.1351 149.083 23.9385 152.117 23.9385C155.279 23.9385 157.863 22.6173 158.627 19.9161C159.803 15.6821 152.881 16.7523 153.378 15.0117C153.502 14.5922 153.937 14.3413 154.763 14.3413C155.133 14.3413 155.445 14.404 155.673 14.5529C155.92 14.698 156.043 14.9489 156.004 15.3488L159.575 15.3488ZM140.53 12.3536V17.5286L139.33 19.6652H140.53V22.0959H137.927L137.078 23.6249H133.608V23.2681L140.53 12.3536ZM133.608 15.4939C133.627 15.4311 133.65 15.3684 133.67 15.2861C133.916 14.404 133.916 13.6944 133.608 13.169V15.4939ZM133.608 13.169V15.4939C133.195 16.7523 132.304 17.7795 130.943 18.1323C132.038 18.5949 132.679 18.889 132.015 21.2334C131.603 22.7663 131.398 23.2681 131.853 23.2681L131.749 23.6249H128.256V21.8019C128.279 21.7392 128.298 21.6529 128.321 21.5902C128.568 20.6689 128.63 20.1239 128.256 19.8299V17.0033C129.227 16.9405 129.806 16.6269 130.014 15.8938C130.241 15.0744 129.725 14.6784 128.834 14.6784H128.256V11.9537H129.497C131.83 11.9537 133.11 12.3536 133.608 13.169ZM133.608 23.2681L133.38 23.6249L133.608 23.6249V23.2681ZM128.256 11.9537V14.6784H127.079L126.439 17.0033H128.256V19.8299C128.009 19.6417 127.577 19.5594 126.871 19.5594H125.714L124.581 23.6249H120.802L124.083 11.9537L128.256 11.9537ZM128.256 21.8019C128.009 22.7232 127.905 23.3936 127.928 23.6249L128.256 23.6249V21.8019ZM113.961 23.6014C116.564 23.4563 118.484 22.4919 119.167 20.1043C119.517 18.8459 119.147 17.756 117.99 17.4424C118.858 16.9601 119.868 16.1016 120.2 14.8862C120.859 12.581 118.962 11.9537 116.379 11.9537H113.961V14.6784H115.222C116.005 14.6784 116.749 14.6981 116.483 15.5997C116.294 16.2897 115.654 16.6269 114.913 16.6269H113.961V18.7439C115.16 18.7636 116.005 18.8263 115.715 19.8299C115.492 20.6493 114.809 20.8806 113.961 20.9002V23.6014ZM113.961 11.9537V14.6784H113.88L113.34 16.6269H113.961V18.7439H112.742L112.145 20.9002H113.961V23.6014C113.714 23.625 113.463 23.625 113.217 23.625H107.617L110.884 11.9538L113.961 11.9537ZM100.491 23.7504V20.9198C101.606 20.4807 102.35 19.2653 102.786 17.7364C103.218 16.1447 103.052 14.4667 101.382 14.5098C101.07 14.5098 100.78 14.5726 100.491 14.6784V11.8479C101.05 11.7224 101.629 11.6597 102.207 11.6597C106.318 11.6597 107.413 14.6549 106.545 17.7364C105.635 21.0256 103.241 23.1231 100.491 23.7504ZM100.491 11.8479V14.6784C99.3151 15.1606 98.5902 16.5406 98.2624 17.7364C97.8459 19.2222 97.765 21.0884 99.5812 21.0884C99.9128 21.0884 100.221 21.0257 100.491 20.9198V23.7504C99.9321 23.8758 99.3537 23.9385 98.7753 23.9385C95.1621 23.9385 93.3844 21.6764 94.4988 17.6932C95.3471 14.6353 97.684 12.4791 100.491 11.8479ZM87.2685 23.6249V21.8019C87.2918 21.7392 87.311 21.6529 87.3302 21.5902C87.5809 20.6689 87.6426 20.1239 87.2685 19.8299V17.0033C88.2403 16.9405 88.8187 16.6269 89.0269 15.8938C89.2544 15.0744 88.7377 14.6784 87.8469 14.6784H87.2685V11.9537H88.5295C92.3509 11.9537 93.3227 13.024 92.6825 15.2861C92.3124 16.6269 91.4023 17.756 89.9563 18.1323C91.0514 18.595 91.6915 18.889 91.0283 21.2334C90.6157 22.7663 90.4113 23.2681 90.8663 23.2681L90.7622 23.6249L87.2685 23.6249ZM87.2685 11.9537V14.6784L86.0924 14.6784L85.4523 17.0032L87.2685 17.0033V19.8299C87.0217 19.6417 86.5898 19.5594 85.8842 19.5594H84.7273L83.6129 23.6249H80.2658V22.0959L83.1193 11.9537L87.2685 11.9537ZM87.2685 21.8019C87.0217 22.7232 86.9176 23.3936 86.9369 23.6249H87.2685V21.8019ZM80.2658 13.5062L80.7015 11.9537H80.2658V13.5062ZM49.6711 14.6784H49.6904C50.4963 14.6784 51.6763 14.8235 51.364 15.9134C51.1172 16.8582 50.4578 17.211 49.6711 17.2777V19.9789C52.5825 19.7907 54.3178 18.2617 54.9579 15.8938C55.6404 13.5062 54.4643 11.9537 51.1596 11.9537H49.671L49.6711 14.6784ZM80.2658 11.9537V13.5062L79.8339 15.0352H76.4443L74.0496 23.6249H70.2668L72.6846 15.0352H69.2989L70.1626 11.9537H80.2658ZM80.2658 22.0959L79.8339 23.6249L80.2658 23.6249V22.0959ZM64.7332 23.6249H55.1237L58.4091 11.9537H67.768L67.0237 14.6784H61.4053L60.931 16.3525H65.6818L64.9183 19.0772H60.1868L59.6701 20.9002H65.4967L64.7332 23.6249ZM47.8934 17.2777L48.6376 14.6784H49.6711L49.671 11.9537H45.6221L42.356 23.6249H46.1157L47.1492 19.9985H49.0502C49.2585 19.9985 49.4629 19.9985 49.6711 19.9789V17.2777H47.8934Z" fill="#00853F"/>
</svg>
