<svg width="40" height="40" viewBox="0 0 40 40" fill="none" xmlns="http://www.w3.org/2000/svg">
    <g clip-path="url(#clip0_41_659)">
        <path fill-rule="evenodd" clip-rule="evenodd" d="M18.5976 28.9594C18.7892 28.4932 19.1176 28.1367 19.6376 27.835L20.3766 27.5608L21.4987 27.4785C22.2924 27.5334 22.9219 27.7528 23.3871 28.1915L23.6882 28.5755C23.9071 28.9594 24.0166 29.4804 24.044 30.1386V30.879H21.8545V30.0015C21.7998 29.7547 21.7176 29.5901 21.4987 29.4804L21.225 29.3982C20.7324 29.3433 20.4861 29.5901 20.4861 30.1386L20.8145 31.0984L23.004 34.1973V32.6341H24.9471V38.8593C25.0566 39.2706 24.8377 39.4352 24.3177 39.3803H20.8966C19.5555 39.4078 18.6524 38.9964 18.1597 38.1463C17.3387 36.8574 17.1744 35.6782 17.585 34.5538L18.4608 33.2649L19.2271 32.497C18.4334 31.1807 18.2145 30.0015 18.5976 28.9594ZM22.8673 37.4607H21.663L20.4862 37.2413L20.0483 36.9396C19.6925 36.3912 19.583 35.8153 19.7199 35.1845C19.8293 34.6909 19.9935 34.3618 20.2399 34.1973L22.8946 37.3236L22.8673 37.4607Z" fill="#FDB813"/>
        <path d="M32.4189 33.4018H29.2715V36.8572H32.4189V39.3802H33.2947V1.53564H25.7683V39.4898H26.2062V25.0651H32.4189V27.6154H29.2715V30.8514H32.4189V33.4018Z" fill="#1689C5"/>
        <path d="M5.70708 28.685C5.5155 27.8349 5.02286 27.4784 4.31128 27.6155V31.8113C5.13234 31.9484 5.59761 31.5096 5.70708 30.495V28.685Z" fill="#1689C5"/>
        <path d="M11.3177 24.9279L12.8504 24.7085C13.9725 24.7634 14.8483 25.1747 15.423 25.97L15.8609 26.6556C16.0799 27.3138 16.1893 28.2188 16.0799 29.3431L13.3156 29.3157V27.9445C13.2609 27.5332 13.0693 27.3138 12.6314 27.3138C12.2209 27.3412 12.0019 27.6154 12.0019 28.1365V36.3361L12.084 36.7201C12.1935 36.9669 12.3577 37.1314 12.604 37.1588C13.1514 37.3508 13.4525 37.104 13.4525 36.4733V34.06H12.6861V31.537H16.1893V34.9375L25.5768 1.53564H0.50708V39.5173H1.41025V25.0102H4.36606L5.89871 25.1747C7.02082 25.5038 7.78715 26.0797 8.19768 26.9847C8.41663 27.4509 8.55347 28.2462 8.66295 29.3431C8.77242 30.8788 8.63558 31.8661 8.30715 32.2774C7.67767 33.7035 6.66503 34.4165 5.24186 34.3068L4.25659 34.2794V39.4076H11.2082C9.81243 39.1059 9.12821 38.0364 9.12821 36.3087V27.9994C8.93663 26.354 9.67559 25.3119 11.3177 24.9279Z" fill="#1689C5"/>
        <path d="M37.8106 4.44238C39.2885 4.44238 40.0001 3.70194 40.0001 2.19365C40.0001 0.76762 39.2885 0.0820312 37.8106 0.0820312C36.3053 0.0820312 35.5938 0.76762 35.5938 2.19365C35.5938 3.70194 36.3053 4.44238 37.8106 4.44238ZM39.5896 2.19365C39.5896 3.50998 39.0148 4.11329 37.8106 4.11329C36.579 4.11329 35.9769 3.50998 35.9769 2.19365C35.9769 0.987008 36.579 0.356267 37.8106 0.356267C39.0148 0.356267 39.5896 0.987008 39.5896 2.19365Z" fill="#1689C5"/>
        <path d="M38.8232 1.67305C38.8232 1.17943 38.4948 0.932617 37.9201 0.932617H36.9622V3.53785H37.3453V2.41349H37.7832L38.4948 3.53785H38.9053L38.1664 2.38607C38.6316 2.33122 38.8232 2.08441 38.8232 1.67305ZM37.8927 1.2617C38.2759 1.2617 38.4401 1.39882 38.4401 1.64563C38.4401 1.94729 38.1937 2.08441 37.7558 2.08441H37.3453V1.2617H37.8927Z" fill="#1689C5"/>
    </g>
    <defs>
        <clipPath id="clip0_41_659">
            <rect width="40" height="40" fill="white"/>
        </clipPath>
    </defs>
</svg>
