<svg width="49" height="36" viewBox="0 0 49 36" fill="none" xmlns="http://www.w3.org/2000/svg">
    <path d="M16.4637 6.30665L17.203 5.32669L17.0442 5.61109C17.0261 5.64359 17.0352 5.68623 17.0645 5.70633C17.0938 5.72644 17.1322 5.71639 17.1503 5.68388L17.4441 5.16083L17.7414 5.69C17.7595 5.72232 17.7978 5.73222 17.8269 5.71212C17.856 5.69202 17.8649 5.64952 17.8468 5.61721L17.688 5.33281L18.4104 6.35363C18.4117 7.21058 18.0337 7.44985 17.6246 7.6148H17.2671C16.8876 7.40287 16.4917 7.17918 16.4637 6.30665ZM23.7696 7.37031L14.342 13.6882L14.3435 1.07495L23.7696 7.37031ZM15.6494 7.66013C15.8187 7.82899 16.1969 7.90401 16.6521 7.90401C17.1074 7.90401 17.3125 7.81705 17.2992 7.75088H17.5924C17.5792 7.81705 17.9709 7.91967 18.3162 7.91967C18.6616 7.91967 19.0843 7.80802 19.2084 7.68428C19.3324 7.56055 19.4996 6.80607 19.0632 6.37072C19.0601 6.36239 17.5933 5.07837 17.5933 5.07837C17.6795 5.09084 17.766 5.10015 17.853 5.10284C17.8977 5.10494 17.9425 5.09874 17.9854 5.08447C18.1131 5.02942 18.1763 4.86995 18.1267 4.72829C18.0771 4.58663 17.9334 4.51641 17.8058 4.57146C17.6997 4.61705 17.4973 4.89737 17.4581 4.95316L17.4518 4.9621C17.4478 4.96171 17.4441 4.96179 17.4401 4.96225L17.4342 4.95383C17.3931 4.89804 17.1926 4.61772 17.0865 4.57214C16.9589 4.51705 16.8151 4.58706 16.7653 4.72863C16.7645 4.7306 16.7638 4.73257 16.7632 4.73455C16.7154 4.87521 16.7795 5.03218 16.9063 5.08515C16.9492 5.09919 16.994 5.10516 17.0387 5.10284C17.1225 5.10044 17.206 5.0918 17.2891 5.08029C17.2891 5.08029 15.8212 6.36732 15.8182 6.38415C15.3686 6.83265 15.4801 7.49126 15.6494 7.66013ZM19.2594 8.40768H17.4709H15.6793V8.6352C15.6793 8.6352 16.7087 8.65783 17.2293 10.0591H17.7088C18.2287 8.65783 19.2594 8.63703 19.2594 8.63703V8.40768H19.2594ZM17.0412 4.69802C17.0269 4.69199 17.0117 4.689 16.9964 4.68916C16.9287 4.68802 16.873 4.74801 16.8719 4.82316C16.8717 4.84334 16.8754 4.86335 16.883 4.88171C16.8961 4.91485 16.9206 4.94079 16.951 4.95383C17.0562 4.96752 17.1626 4.96385 17.2668 4.94295C17.2028 4.84943 17.1268 4.76691 17.0412 4.69802ZM17.9406 4.95587C18.0041 4.92825 18.0354 4.84875 18.0105 4.7783C17.9857 4.70784 17.914 4.67311 17.8505 4.70073C17.765 4.76946 17.6892 4.8518 17.6253 4.94506C17.7294 4.9658 17.8356 4.96946 17.9406 4.95587ZM10.8336 7.2603L10.6216 6.83184L10.4096 7.2603L9.93564 7.329L10.2786 7.66251L10.1977 8.13342L10.6216 7.91108L11.0456 8.13342L10.9646 7.66251L11.3076 7.329L10.8336 7.2603ZM13.6964 1.07495L13.6979 13.6882L4.27031 7.37031L13.6964 1.07495ZM13.3171 6.79069L11.6149 5.51722L11.6062 5.43823L11.5113 5.4397L11.5093 5.43823L11.5093 5.43974L11.4552 5.44058C11.3653 5.75205 10.9979 5.98565 10.557 5.98565C10.1298 5.98565 9.77394 5.76546 9.67039 5.46841L9.54019 5.47044L7.73245 6.82289L8.63633 7.82113L9.39841 7.37971L9.21739 9.81762H12.0904L11.8287 7.45035L12.4132 7.78893L13.3171 6.79069ZM38.773 8.37356C38.7724 8.37375 38.7147 8.39375 38.5473 8.32922C38.4261 8.28271 38.3932 8.22714 38.3924 8.20347C38.3979 8.1529 38.3629 8.1063 38.312 8.0978C38.2604 8.08837 38.2095 8.1245 38.2006 8.17724C38.197 8.19894 38.1739 8.3929 38.4777 8.5096C38.5961 8.55498 38.6826 8.56969 38.745 8.56969C38.8206 8.56969 38.8609 8.54818 38.8793 8.53384C38.9214 8.50092 38.9354 8.4362 38.9025 8.39413C38.8692 8.35196 38.815 8.34092 38.773 8.37356ZM43.913 7.37031L34.4854 13.6882L34.4869 1.07495L43.913 7.37031ZM36.144 7.18968C36.144 7.18968 36.717 7.27437 37.197 6.84704C37.6769 6.41972 37.882 5.64218 37.882 5.64218C37.882 5.64218 36.8459 5.77232 36.4707 6.12251C36.0009 6.56092 36.144 7.18968 36.144 7.18968ZM39.8723 8.72479C39.8723 8.36716 39.699 8.0603 39.3275 7.92924C39.2094 7.88754 39.0022 7.92866 38.8591 7.93259C38.8634 7.75139 38.855 7.34015 38.7143 7.01412C38.6394 6.84054 38.5564 6.70742 38.4896 6.60054C38.3998 6.45657 38.3349 6.35252 38.3349 6.23119C38.3349 6.22937 38.334 6.22786 38.3339 6.22605C38.3343 6.19596 38.3349 6.16711 38.3349 6.13459C38.3349 5.70449 38.358 5.521 38.3584 5.51912C38.3652 5.46629 38.3277 5.41779 38.2748 5.41091C38.2229 5.40402 38.1732 5.44119 38.1662 5.49402C38.1652 5.50185 38.1412 5.68902 38.1412 6.13459C38.1412 6.52733 38.1412 6.67431 37.6975 7.11686C37.5605 7.25356 37.4522 7.36893 37.3285 7.50063L37.1991 7.63818C37.0212 7.82651 36.8215 8.11208 36.795 8.15012C36.6527 8.1422 36.475 8.12666 36.3765 8.16671C36.0662 8.29292 35.9622 8.55866 35.9622 8.86606C35.9622 9.2955 36.4101 9.81762 36.8944 9.81762C37.2333 9.81762 37.5861 9.54511 37.7357 9.23207C37.6549 9.06741 37.6086 8.89232 37.6086 8.72479C37.6086 8.58728 37.6269 8.46982 37.6561 8.3664C37.5776 8.27323 37.4723 8.19775 37.3359 8.1496C37.2605 8.12299 37.1446 8.13433 37.0374 8.14442C37.1156 8.03776 37.2338 7.88315 37.3402 7.77063L37.4699 7.63271C37.5921 7.50252 37.699 7.38846 37.8344 7.25346C38.0994 6.98923 38.2219 6.81031 38.2806 6.62944C38.2953 6.65367 38.3096 6.67763 38.3253 6.7027C38.3918 6.80931 38.4673 6.93025 38.5365 7.09054C38.6608 7.37873 38.6686 7.75944 38.6652 7.92635C38.5202 7.91777 38.3577 7.90944 38.2623 7.94824C37.9177 8.08838 37.8023 8.38345 37.8023 8.72479C37.8023 9.20163 38.2657 9.78139 38.8373 9.78139C39.4089 9.78139 39.8723 9.20163 39.8723 8.72479ZM36.8333 8.54064C36.8327 8.54082 36.7811 8.5563 36.6366 8.50082C36.5149 8.45422 36.5041 8.40328 36.5034 8.39639C36.5081 8.34629 36.4733 8.30035 36.4228 8.29195C36.371 8.28243 36.3203 8.31865 36.3114 8.37139C36.308 8.39177 36.2863 8.57347 36.5669 8.6812C36.6744 8.72243 36.7536 8.73582 36.8111 8.73582C36.8826 8.73582 36.9208 8.71516 36.9382 8.70158C36.9804 8.66865 36.995 8.60347 36.9619 8.56148C36.9292 8.51941 36.8756 8.50781 36.8333 8.54064ZM29.5302 7.38642C29.4859 7.38642 29.4495 7.42265 29.4495 7.46692V9.60026C29.4495 9.64454 29.4859 9.68077 29.5302 9.68077C29.5746 9.68077 29.6109 9.64454 29.6109 9.60026V7.46692C29.6109 7.42265 29.5746 7.38642 29.5302 7.38642ZM33.8398 1.07495L33.8413 13.6882L24.4137 7.37031L33.8398 1.07495ZM32.6857 7.58767C32.6857 7.69883 32.776 7.78894 32.8875 7.78894C32.9989 7.78894 33.0892 7.69883 33.0892 7.58767C33.0892 7.47653 32.9989 7.38642 32.8875 7.38642C32.776 7.38642 32.6857 7.47653 32.6857 7.58767ZM32.2983 7.20126C32.2983 7.26795 32.3525 7.32201 32.4194 7.32201C32.4863 7.32201 32.5404 7.26795 32.5404 7.20126C32.5404 7.13457 32.4863 7.0805 32.4194 7.0805C32.3525 7.0805 32.2983 7.13457 32.2983 7.20126ZM32.0966 7.63598C32.0966 7.69823 32.1472 7.74869 32.2096 7.74869C32.272 7.74869 32.3225 7.69823 32.3225 7.63598C32.3225 7.57374 32.272 7.52327 32.2096 7.52327C32.1472 7.52327 32.0966 7.57373 32.0966 7.63598ZM31.7657 6.8551C31.7657 6.92623 31.8235 6.9839 31.8948 6.9839C31.9661 6.9839 32.024 6.92623 32.024 6.8551C32.024 6.78396 31.9661 6.72629 31.8948 6.72629C31.8235 6.72629 31.7657 6.78396 31.7657 6.8551ZM31.5317 7.65208C31.5317 7.70988 31.5786 7.75673 31.6366 7.75673C31.6945 7.75673 31.7415 7.70988 31.7415 7.65208C31.7415 7.59428 31.6945 7.54742 31.6366 7.54742C31.5786 7.54742 31.5317 7.59428 31.5317 7.65208ZM31.1483 8.80939C30.7673 8.62824 30.5178 8.32938 30.5178 7.9902H31.1483C31.1483 7.88184 31.1483 7.79293 31.1483 7.74063C31.1483 7.40252 30.4422 6.73434 30.4422 6.38818C30.4422 6.1468 30.4118 5.49143 30.3934 5.11623H30.5269V4.63321H29.7199V5.11623H29.8534C29.835 5.49143 29.8046 6.1468 29.8046 6.38818C29.8046 6.73435 29.0985 7.37031 29.0985 7.74063C29.0985 8.11095 29.0985 9.83372 29.0985 9.83372C29.0985 9.94043 29.1852 10.0269 29.2922 10.0269H30.9546C31.0616 10.0269 31.1483 9.94043 31.1483 9.83372C31.1483 9.83372 31.1483 9.32934 31.1483 8.80939ZM33.3192 8.13209H30.6964C30.6964 8.48061 31.2417 8.76476 31.9291 8.7852C31.9291 8.90164 31.9291 9.8001 31.9291 9.83775C31.9291 9.878 31.4449 9.88202 31.4449 9.88202C31.3939 9.88202 31.3521 9.92368 31.3521 9.9746C31.3521 10.0255 31.3939 10.0672 31.4449 10.0672H32.5667C32.6177 10.0672 32.6595 10.0255 32.6595 9.9746C32.6595 9.92368 32.6177 9.88202 32.5667 9.88202C32.5667 9.88202 32.0825 9.878 32.0825 9.83775C32.0825 9.80011 32.0825 8.90204 32.0825 8.7853C32.7718 8.76584 33.3192 8.48128 33.3192 8.13209ZM14.3435 15.2275L23.7696 21.5228L14.342 27.8407L14.3435 15.2275ZM16.2466 20.2545C16.2466 20.3322 16.3201 20.3958 16.4099 20.3958H16.858C16.9478 20.3958 17.0213 20.3322 17.0213 20.2545V20.1184C17.0213 20.0407 16.9478 19.9772 16.858 19.9772H16.4099C16.3201 19.9772 16.2466 20.0407 16.2466 20.1184V20.2545ZM15.8592 23.1953C15.8592 23.285 15.9327 23.3583 16.0226 23.3583H19.731C19.8208 23.3583 19.8943 23.285 19.8943 23.1953V20.6875C19.8943 20.5979 19.8208 20.5246 19.731 20.5246H19.237C19.1017 20.2189 18.941 19.8806 18.8917 19.8806H17.5398C17.4905 19.8806 17.3297 20.2189 17.1945 20.5246H16.0226C15.9327 20.5246 15.8592 20.5979 15.8592 20.6875V23.1953H15.8592ZM16.9568 21.869C16.9568 21.1709 17.524 20.6051 18.2238 20.6051C18.9236 20.6051 19.4908 21.1709 19.4908 21.869C19.4908 22.567 18.9236 23.1329 18.2238 23.1329C17.524 23.1329 16.9568 22.567 16.9568 21.869ZM17.3709 21.869C17.3709 22.3389 17.7527 22.7198 18.2238 22.7198C18.6949 22.7198 19.0767 22.3389 19.0767 21.869C19.0767 21.3991 18.6949 21.0181 18.2238 21.0181C17.7527 21.0181 17.3709 21.3991 17.3709 21.869ZM17.9413 21.6999C18.042 21.498 18.1138 21.3175 17.9872 21.2547C17.8607 21.1919 17.6765 21.3048 17.5758 21.5068C17.4751 21.7087 17.4961 21.9233 17.6227 21.9861C17.7492 22.0489 17.8407 21.9019 17.9413 21.6999ZM13.6964 15.2275L13.6979 27.8407L4.27031 21.5228L13.6964 15.2275ZM6.5707 21.9436C6.93025 21.9402 7.83504 21.9259 8.97912 21.8643C9.19923 21.8524 9.44058 21.8366 9.69188 21.8184C9.672 21.7766 9.64954 21.7327 9.6226 21.6871C9.49379 21.4688 9.16808 21.1731 9.16467 21.1701L9.29481 21.0271C9.30899 21.0399 9.64586 21.3458 9.78942 21.589C9.83467 21.6656 9.86954 21.7381 9.89745 21.8031C9.99416 21.7958 10.0916 21.7882 10.1897 21.7804C10.1743 21.7501 10.1578 21.719 10.139 21.6871C10.0103 21.4692 9.68445 21.1731 9.68123 21.1701L9.81136 21.0271C9.82555 21.0399 10.1622 21.3458 10.3058 21.589C10.3419 21.6501 10.3719 21.7091 10.3968 21.7635C10.493 21.7555 10.5888 21.7475 10.6844 21.7393C10.6751 21.722 10.666 21.7048 10.6555 21.6871C10.5269 21.4692 10.201 21.1731 10.1978 21.1701L10.3279 21.0271C10.3421 21.0399 10.6788 21.3458 10.8224 21.589C10.8494 21.6348 10.8721 21.6788 10.8928 21.7212C10.9888 21.7128 11.0836 21.7044 11.177 21.6959C11.1752 21.6929 11.1739 21.6901 11.1721 21.6871C11.0433 21.4688 10.7176 21.1731 10.7142 21.1701L10.8443 21.0271C10.8585 21.0399 11.1953 21.3458 11.3389 21.589C11.3565 21.6188 11.3726 21.6482 11.3875 21.6768C11.9166 21.6281 12.3783 21.5825 12.6547 21.5546L12.6409 21.5416C12.6662 21.5106 12.7639 21.3285 12.6131 20.725C12.5997 20.726 12.424 20.1607 12.2972 19.8478C12.2892 19.8265 12.2748 19.8128 12.2541 19.8069C12.2541 19.8069 11.9996 19.6592 11.8543 19.8886C11.7091 20.118 11.6643 20.4666 11.3701 20.4863C11.076 20.506 10.9569 20.3928 10.8738 20.2811C10.7907 20.1693 10.7649 20.118 10.7346 19.9912C10.7043 19.8645 10.6985 19.6903 10.6014 19.6531L10.4972 19.6156C10.3795 19.5725 10.2564 19.6471 10.1717 19.7256C10.0869 19.8041 9.94773 19.949 9.71168 20.0637C9.47562 20.1784 9.26259 20.2093 9.26259 20.2093L9.17325 20.3031C9.1665 20.3036 9.16692 20.3109 9.16692 20.3109L9.16736 20.3182L9.18766 20.3555L9.09238 20.4256L9.016 20.3943C9.00925 20.3948 9.00925 20.3948 9.00925 20.3948L8.88446 20.4618C8.87771 20.4622 8.87857 20.4768 8.87857 20.4768L8.90814 20.5186L8.80316 20.577L8.7196 20.5389L8.71285 20.5393C8.71285 20.5393 8.71285 20.5393 8.7061 20.5398L8.58849 20.6136L8.58893 20.6209L8.6261 20.6768L8.5193 20.7299L8.44923 20.6908C8.44923 20.6908 8.44205 20.684 8.44249 20.6913L8.31727 20.751L8.31095 20.7588L8.31138 20.766L8.33506 20.8229L8.2395 20.8864L8.16944 20.8474L8.1627 20.8478C8.1627 20.8478 8.1627 20.8478 8.15595 20.8483L8.03747 20.9076L8.03116 20.9153L8.03158 20.9226L8.05526 20.9794L7.93016 21.0478L7.8736 21.0079C7.8736 21.0079 7.86642 21.0011 7.86011 21.0088C7.8209 21.0334 7.78887 21.0648 7.75685 21.0963C7.75052 21.104 7.75052 21.104 7.75771 21.1108L7.78192 21.1481C7.75708 21.1863 7.63358 21.225 7.38542 21.3578C7.13727 21.4906 6.73981 21.6758 6.5707 21.9436ZM12.7272 22.2006L12.6985 21.713L12.698 21.7055C12.0359 21.7726 10.1928 21.9204 8.98744 22.0186C7.56298 22.1346 6.87978 22.0957 6.54115 22.0985L6.53435 22.4352C6.53521 22.4497 6.54239 22.4565 6.55631 22.4629L6.90478 22.5121C7.26675 22.5603 7.64049 22.5786 8.00492 22.5536L12.7019 22.2316C12.7154 22.2307 12.7281 22.2152 12.7272 22.2006ZM40.3138 21.072C40.3138 20.9918 40.2875 20.9314 40.2307 20.8818C40.0615 20.7338 39.6886 20.7236 39.4669 20.7374C39.4156 21.238 39.2705 21.6902 39.0605 22.0579C39.7005 21.7365 40.3138 21.3339 40.3138 21.072ZM34.4869 15.2275L43.913 21.5228L34.4854 27.8407L34.4869 15.2275ZM37.355 18.9322C37.3337 19.1497 37.653 19.3338 37.6266 19.6043C37.6002 19.8747 37.5714 20.0442 37.5714 20.0442C37.5714 20.0442 37.9273 19.7259 37.954 19.4523C37.9807 19.1788 37.6611 18.9987 37.6824 18.7802C37.7037 18.5618 37.7376 18.3403 37.7376 18.3403C37.7376 18.3403 37.3762 18.7146 37.355 18.9322ZM35.938 20.3314C35.938 21.3352 36.309 22.2085 36.8562 22.6619H38.5707C38.6239 22.6179 38.6738 22.5667 38.7235 22.515C39.3009 22.2641 40.585 21.6421 40.585 21.072C40.585 20.915 40.5243 20.779 40.4097 20.6786C40.1648 20.4642 39.725 20.4527 39.4828 20.4651C39.4843 20.4203 39.4889 20.3767 39.4889 20.3314H36.5026C36.4948 20.4703 36.4994 20.6641 36.548 20.8911C36.6468 21.3529 36.8022 21.578 36.8038 21.5803C36.8465 21.6412 36.8321 21.7256 36.7712 21.7686C36.7474 21.7854 36.72 21.7935 36.6929 21.7935C36.6507 21.7935 36.6091 21.7739 36.5828 21.7371C36.5751 21.7263 36.3944 21.4701 36.2828 20.9475C36.2299 20.7003 36.2235 20.4894 36.2313 20.3314H35.938V20.3314ZM35.3529 22.7968C35.3529 22.9884 35.8461 23.155 36.5737 23.2416H38.8532C39.5809 23.155 40.074 22.9884 40.074 22.7968H35.3529ZM32.1067 21.3034C32.1277 21.3927 32.1422 21.4843 32.1422 21.58C32.1422 21.668 32.1305 21.7529 32.1126 21.8356C32.0683 22.0413 31.9742 22.2285 31.8405 22.3817C31.766 22.4671 31.6802 22.5422 31.5848 22.6042C31.3925 22.7294 31.1632 22.8028 30.9164 22.8028C30.6697 22.8028 30.4404 22.7294 30.2481 22.6042C30.1527 22.5422 30.0669 22.4671 29.9924 22.3817C29.8049 22.167 29.6906 21.8871 29.6906 21.58C29.6906 21.2729 29.8049 20.993 29.9924 20.7783C30.0669 20.6929 30.1527 20.6178 30.2481 20.5557C30.4404 20.4306 30.6697 20.3572 30.9164 20.3572C31.1632 20.3572 31.3925 20.4306 31.5848 20.5557C31.6802 20.6178 31.766 20.6929 31.8405 20.7783C31.9695 20.9261 32.0604 21.1062 32.1067 21.3034ZM31.5562 21.0534C31.5097 21.0004 31.4286 20.9952 31.3758 21.0417L31.0197 21.3534C30.988 21.339 30.9535 21.3299 30.9164 21.3299C30.8937 21.3299 30.8733 21.3372 30.8523 21.3428L30.3572 20.7394C30.312 20.685 30.2318 20.6773 30.1772 20.7216C30.1227 20.7662 30.1146 20.8465 30.1593 20.9011L30.6758 21.5305C30.6723 21.5471 30.6658 21.5625 30.6658 21.58C30.6658 21.7181 30.778 21.8301 30.9164 21.8301C31.0549 21.8301 31.1671 21.7181 31.1671 21.58C31.1671 21.5751 31.1646 21.571 31.1643 21.5661L31.5445 21.2334C31.5975 21.187 31.6029 21.1063 31.5562 21.0534ZM30.2481 22.9308V23.1766H31.5848V22.9308C31.3831 23.0304 31.1567 23.0878 30.9164 23.0878C30.6761 23.0878 30.4498 23.0304 30.2481 22.9308ZM31.5848 20.2291V19.9833H30.2481V20.2291C30.4498 20.1296 30.6761 20.0722 30.9164 20.0722C31.1567 20.0722 31.3831 20.1296 31.5848 20.2291ZM33.8398 15.2275L33.8413 27.8407L24.4137 21.5228L33.8398 15.2275ZM32.6498 21.5688C32.6498 21.4133 32.7078 21.2874 32.3955 21.2791C32.3219 20.9192 32.1213 20.6057 31.8405 20.3886V19.7871C31.8405 19.7546 31.8141 19.7283 31.7815 19.7283H31.475V19.1577H30.3579V19.7283H30.0514C30.0188 19.7283 29.9924 19.7546 29.9924 19.7871V20.3886C29.6355 20.6644 29.4049 21.0949 29.4049 21.58C29.4049 22.0651 29.6355 22.4956 29.9924 22.7714V23.3728C29.9924 23.4053 30.0188 23.4317 30.0514 23.4317H30.3579V24.0023H31.475V23.4317H31.7815C31.8141 23.4317 31.8405 23.4053 31.8405 23.3728V22.7714C32.1272 22.5498 32.33 22.2276 32.3996 21.8582C32.707 21.8489 32.6498 21.7236 32.6498 21.5688ZM24.4152 22.3118L33.8413 28.6071L24.4137 34.9249L24.4152 22.3118ZM25.3514 27.5445H29.7708V27.4116C29.7708 27.3049 29.684 27.2184 29.5771 27.2184H28.1543C27.6095 27.2184 27.452 26.4456 26.4958 26.4456C25.709 26.4456 25.3514 27.0614 25.3514 27.4116C25.3514 27.4506 25.3514 27.4959 25.3514 27.5445ZM24.9393 29.5679C24.9575 29.5939 24.9872 29.6094 25.019 29.6094H25.3821V30.4426C25.3821 30.496 25.4254 30.5392 25.479 30.5392C25.5325 30.5392 25.5758 30.496 25.5758 30.4426V29.6094H29.6432V30.4426C29.6432 30.496 29.6865 30.5392 29.7401 30.5392C29.7936 30.5392 29.8369 30.496 29.8369 30.4426V29.6094H30.0911C30.1229 29.6094 30.1526 29.5939 30.1708 29.5679C30.1887 29.5418 30.1929 29.5086 30.1819 29.479L29.7889 28.4284C29.7853 28.4188 29.7769 28.413 29.7708 28.4052V27.7135H25.3514C25.3514 27.9467 25.3514 28.216 25.3514 28.3897C25.3388 28.4002 25.3273 28.4124 25.3212 28.4284L24.9282 29.479C24.9172 29.5086 24.9214 29.5418 24.9393 29.5679ZM29.6354 28.5709H29.2736L29.385 29.0499H28.6506L28.6019 28.5709H28.2768L28.3116 29.0499H27.6822L27.6613 28.5709H27.371L27.3432 29.0499H26.7137L26.7485 28.5709H26.4583L26.3748 29.0499H25.6807L25.7921 28.5709H25.4746L25.1586 29.4162H29.9515L29.6354 28.5709ZM23.1422 30.962H21.6037V28.7639H23.1422V30.962ZM22.4698 30.8532C22.4698 30.7998 22.4264 30.7566 22.3729 30.7566C22.3194 30.7566 22.2761 30.7998 22.2761 30.8532C22.2761 30.9065 22.3194 30.9498 22.3729 30.9498C22.4264 30.9498 22.4698 30.9065 22.4698 30.8532ZM23.0278 28.8888H21.7181V30.7444H23.0278V28.8888ZM23.7681 22.3118L23.7696 34.9249L14.342 28.6071L23.7681 22.3118ZM21.4314 29.682H20.4281H19.3892H17.7836V26.9043H22.0337V28.5764H22.1481V26.7958H17.6691V29.7905H19.3892V30.3669H18.8313V30.7445H19.3892H20.4281H20.986V30.3669H20.4281V29.7905H21.4314V29.682ZM21.4314 28.5764H21.899V27.0582H17.9183V29.5281H19.3892H20.4281H21.4314V28.5764ZM23.2566 28.6554H21.4892V31.0705H23.2566V28.6554ZM13.6333 14.4687L4.20575 20.7865L4.20726 8.17334L13.6333 14.4687ZM5.25482 15.3241H9.58483L9.32908 14.088C9.3169 14.0291 9.26778 13.9827 9.20361 13.9584C9.20855 13.9338 9.20418 13.9075 9.18907 13.8852L7.65378 11.6264C7.63804 11.5504 7.59237 11.4854 7.52969 11.4439L7.48183 11.3735C7.46386 11.3471 7.43379 11.3311 7.40182 11.3311H7.40163C7.36967 11.3311 7.33959 11.3469 7.32162 11.3733L7.30022 11.4046C7.17329 11.4357 7.07876 11.5491 7.07876 11.6853C7.07876 11.6983 7.08093 11.7107 7.08259 11.7232L5.60587 13.885C5.58677 13.913 5.58606 13.9469 5.5982 13.976C5.55336 14.0027 5.52021 14.0413 5.51057 14.088L5.25482 15.3241ZM9.65945 15.6847L9.62481 15.5173H5.21484L5.1802 15.6847C5.13553 15.9006 5.34523 16.0969 5.62066 16.0969H9.21898C9.49441 16.0969 9.70412 15.9006 9.65945 15.6847ZM7.36929 11.9751C7.30073 11.9751 7.23854 11.9504 7.18886 11.9108L5.80311 13.9394H8.99178L7.58804 11.8741C7.53477 11.9355 7.45704 11.9751 7.36929 11.9751ZM37.0954 14.1224C37.0926 14.0424 37.0254 13.9798 36.9452 13.9826C36.8651 13.9853 36.8023 14.0524 36.805 14.1324C36.8078 14.2123 36.875 14.2749 36.9552 14.2722C37.0354 14.2694 37.0982 14.2024 37.0954 14.1224ZM43.9115 8.17334L43.913 20.7865L34.4854 14.4687L43.9115 8.17334ZM36.9775 14.622C37.3481 14.3333 38.0891 14.1331 38.4481 14.0491C38.7493 13.9787 39.0975 13.9415 39.4552 13.9415C40.0587 13.9415 40.6451 14.0429 41.1063 14.2269C41.3744 14.3339 41.5537 14.4275 41.6847 14.4958C41.8336 14.5735 41.9022 14.6078 41.9684 14.6078C42.0009 14.6078 42.0392 14.6004 42.0892 14.5845C42.1095 14.578 42.1296 14.5733 42.1499 14.5675C41.9165 14.4745 41.6937 14.3554 41.8213 14.2735C42.0586 14.121 42.7171 14.2614 42.7171 14.2614C42.7171 14.2614 42.3176 13.7663 41.3613 13.9716C41.0062 14.0478 41.0312 13.8277 40.296 13.561C40.0821 13.4835 39.8212 13.4292 39.5697 13.392C39.4512 13.3744 39.3557 12.9655 39.2335 12.9569C39.0566 12.9444 38.78 13.3559 38.603 13.3619C38.2695 13.3734 37.8837 13.4117 37.5965 13.4886C37.0799 13.6267 36.23 13.9505 36.1424 14.2432C36.0972 14.3944 36.5361 14.533 36.9775 14.622ZM42.5234 14.9618C42.7655 14.8169 43.4313 14.9618 43.4313 14.9618C43.4313 14.9618 43.0197 14.4908 42.1481 14.7686C41.8022 14.8788 41.7607 14.6961 41.0344 14.4063C40.3081 14.1165 39.267 14.0561 38.4923 14.2373C37.9715 14.359 37.0517 14.6478 36.9549 14.9376C36.858 15.2274 38.577 15.5293 38.6254 15.4569C38.6739 15.3844 38.6739 15.0101 38.6739 15.0101C38.6739 15.0101 38.686 15.3482 39.2186 15.7105C39.7512 16.0727 40.8044 15.8191 40.4897 15.7467C40.1749 15.6742 39.8965 15.3724 39.8965 15.3724C39.8965 15.3724 40.1197 15.4622 40.1593 15.4707C40.8689 15.6227 41.9436 15.1048 42.1844 15.2878C42.4386 15.481 43.286 15.3603 43.286 15.3603C43.286 15.3603 42.2813 15.1067 42.5234 14.9618ZM37.7659 14.6961C37.6857 14.6961 37.6207 14.761 37.6207 14.841C37.6207 14.9211 37.6857 14.9859 37.7659 14.9859C37.8462 14.9859 37.9112 14.9211 37.9112 14.841C37.9112 14.761 37.8462 14.6961 37.7659 14.6961ZM24.8333 16.3223L24.2523 18.5764L23.3807 18.995L23.413 18.0612L23.4775 16.3545L22.6705 16.3867L22.4391 15.6365L21.9203 16.0962L21.6375 19.2204L20.0235 18.1256L20.8628 17.6425L20.7882 16.2533L20.1203 16.5799L19.6684 15.002L20.7119 14.8335L20.6691 13.5208L19.7975 12.3937L20.5723 12.2327L21.5407 10.4294L22.154 11.9429L22.7674 12.1683L22.7305 12.6095L23.8004 12.5547L23.2839 10.3972L25.0916 11.1701L24.6803 12.5273L25.8341 12.2971L26.512 10.1718L28.0937 11.3311L26.6734 12.3615L27.9969 12.4581L28.4488 13.6818L27.3836 13.6496L27.2544 15.0342L28.3197 15.0664L28.7071 16.3223L27.319 16.4189L26.9962 18.7052L26.1569 19.2526L25.6081 16.2901L24.8359 16.3209L24.8333 16.3223ZM25.1562 14.036L25.0593 14.841L25.1537 15.0238L26.0923 15.002L25.9632 13.7462L25.1208 13.9279L25.1562 14.036ZM23.5744 13.7462L22.8642 13.7784L22.646 12.9949L22.0572 13.553V14.5834L22.961 14.6478L22.751 15.1192L23.5744 15.0986V13.7462Z" fill="#D31F2A"/>
</svg>
