<svg width="160" height="41" viewBox="0 0 160 41" fill="none" xmlns="http://www.w3.org/2000/svg">
    <g clip-path="url(#clip0_41_689)">
        <g clip-path="url(#clip1_41_689)">
            <path d="M52.6241 35.3022C53.2961 34.9431 53.6161 34.7674 53.52 33.3855V7.34384C53.52 7.34384 53.792 5.28662 52.432 5.28662L52.4165 5.22412H65.4885C72.5765 5.22412 77.9685 8.77266 77.9685 14.5502C77.9685 21.8228 69.4085 24.5865 62.3366 23.3842C62.3366 23.3842 62.3366 32.8077 62.3366 33.3855C62.2887 34.6425 62.7845 35.1148 63.3285 35.3022V35.3413C62.6244 35.3413 52.6245 35.3413 52.6245 35.3413L52.6241 35.3022ZM62.24 5.9151L62.2724 21.811C62.2724 22.6776 63.5684 22.6386 64.4963 22.3498C66.8004 21.6315 69.3764 18.7818 69.3764 14.679C69.3764 8.1949 64.1281 5.63013 62.24 5.9151Z" fill="#4F3826"/>
            <path d="M101.584 13.562V5.37207C101.584 5.37207 95.696 5.37207 91.968 5.37207C82.064 5.37207 79.408 9.55289 79.408 14.0344C79.408 19.0155 82.864 21.0494 84.64 21.9394C86.56 22.8919 91.808 24.5431 93.4079 25.1404C95.0239 25.7377 97.104 26.5965 97.104 29.5867C97.104 32.6746 93.904 34.5406 90.992 34.5406C85.5839 34.5406 80.4801 30.4495 79.68 25.4332L79.5997 25.4377V35.3179C79.5997 35.3179 87.5518 35.2672 91.3439 35.3179C97.4398 35.396 103.984 32.6595 104.24 26.0818C104.336 23.9347 103.568 18.8092 96.8158 16.467C93.6157 15.3583 91.9357 15.3505 89.9358 14.4526C87.9197 13.5587 85.6638 10.912 87.9998 8.14424C89.9359 5.83325 97.7438 3.32317 101.568 13.5587" fill="#4F3826"/>
            <path d="M160 35.3603C160 35.3603 152.08 35.3486 146.144 35.3486C136.896 35.3486 130.784 28.7943 130.592 20.2179C130.384 11.657 137.12 5.3291 145.584 5.3291C149.712 5.3291 157.36 5.3291 157.36 5.3291V13.7884C156.144 11.3994 153.296 6.04348 148.784 6.03568C143.904 6.02006 139.296 12.1567 139.296 21.1118C139.296 27.955 144.544 34.6498 147.84 34.6498C150.128 34.6498 150.832 32.7839 150.832 31.7884C150.832 31.7884 150.832 22.4078 150.832 21.6115C150.832 20.7175 149.504 20.2764 148.912 20.2764V20.1475H160V20.2373C159.376 20.2373 159.184 21.0181 159.184 21.51C159.184 22.2556 159.184 33.9198 159.184 33.9198C159.184 34.3922 159.568 35.3017 160 35.3017" fill="#4F3826"/>
            <path d="M130.32 25.4533C129.904 28.8612 123.6 34.3966 120.592 34.5489C118.384 34.6582 117.744 34.5489 116.64 34.5489C115.536 34.5489 114.992 34.342 114.992 33.1709V20.2379C116.736 20.7532 117.712 21.2333 118.48 21.7213C121.808 23.8566 122.544 25.4493 122.544 25.4493L122.672 25.465V12.9497L122.544 12.9301C122.544 12.9301 121.856 15.0421 118.528 17.3101C116.88 18.4266 115.392 18.9419 114.992 19.0707V6.07134H120.336C124.944 6.36412 128.144 11.9503 129.12 13.586L129.168 13.5893V5.31738H104.816V5.38764C105.648 5.38764 105.936 6.51579 105.936 7.2614C105.936 8.01091 105.936 33.1078 105.936 33.6504C105.936 34.642 105.312 35.2393 104.8 35.2393V35.3213H130.352L130.368 25.4488" fill="#4F3826"/>
            <path d="M0 20.5186C0 9.74042 8.73598 1 19.504 1C30.272 1 39.008 9.74042 39.008 20.5186C39.008 31.2967 30.272 40.0371 19.504 40.0371C8.73598 40.0371 0 31.2967 0 20.5186Z" fill="#F35E19"/>
            <path d="M16.8642 15.5686L9.44016 5.46183L12.6082 12.1216L6.70422 7.7143L15.1682 16.9583L4.46421 10.4625L9.92018 15.3929L2.7842 13.5972L14.1283 18.8945L1.74418 16.9934L8.68823 19.4567L1.4082 20.5263L13.9202 21.0767L1.76023 24.0591L9.10419 23.6844L2.7842 27.4593L14.5603 23.1691L4.44829 30.5861L11.1043 27.4202L6.72027 33.3304L15.9522 24.8594L9.45621 35.579L14.3841 30.1177L12.5763 37.2576L17.8723 25.8978L15.9683 38.2842L18.3682 31.3474L19.5043 38.6356V26.1359L23.0241 38.2881L22.6562 30.9335L26.4323 37.2537L22.1442 25.4801L29.5522 35.5829L26.3843 28.931L32.2882 33.3304L23.8401 24.0903L34.5442 30.59L29.0883 25.6597L36.2242 27.4632L24.8803 22.1619L37.2482 24.0669L30.3202 21.5998L37.6002 20.5302L25.1042 19.9798L37.2482 17.0012L29.9043 17.376L36.2242 13.5972L24.4642 17.8795L34.5603 10.4742L27.9042 13.6284L32.3042 7.72213L23.0723 16.1814L29.5681 5.46966L24.6402 10.9271L26.4323 3.78325L21.1363 15.1509L23.0402 2.76053L20.5761 9.69739L19.5043 2.40918L18.9602 14.9284L15.9842 2.7527L16.3523 10.1073L12.5763 3.78325" fill="white"/>
        </g>
    </g>
    <defs>
        <clipPath id="clip0_41_689">
            <rect width="160" height="40" fill="white" transform="translate(0 0.610352)"/>
        </clipPath>
        <clipPath id="clip1_41_689">
            <rect width="160" height="40.0001" fill="white" transform="translate(0 1)"/>
        </clipPath>
    </defs>
</svg>
