<svg width="114" height="40" viewBox="0 0 114 40" fill="none" xmlns="http://www.w3.org/2000/svg">
<path d="M7.90914 2.96306C6.8317 2.96306 1.30981 3.25487 1.30981 8.5747V20.5837H2.56683C3.4198 20.5837 4.1381 19.8879 4.1381 19.0125V7.99114C4.1381 5.90358 4.49724 4.66901 5.84404 3.81604C10.6252 2.98551 18.0101 3.79359 18.0101 13.5354C18.0101 17.8003 15.2492 23.3446 4.1381 22.8508C3.03821 22.806 1.30981 23.5691 1.30981 25.6117V36.6555L2.58927 36.9923C3.44225 37.2167 4.1381 36.678 4.1381 35.7801V25.8363C4.1381 23.3446 6.06851 22.9182 8.11118 23.008C15.137 23.3222 20.8384 20.7408 20.8384 13.2661C20.8384 4.60167 13.1168 2.53657 7.90914 2.96306Z" fill="#019FA3"/>
<path d="M7.90914 2.96289C4.8115 3.79342 4.1381 5.07288 4.1381 7.99096V19.0123C4.1381 19.8653 3.44225 20.5836 2.56683 20.5836H1.30981V8.59704C1.30981 3.2547 6.8317 2.96289 7.90914 2.96289Z" fill="#019FA3"/>
<path d="M12.3313 1.79565C11.2538 1.79565 5.73193 2.08746 5.73193 7.40733V20.5836H6.98895C7.84192 20.5836 8.56024 19.8877 8.56024 19.0123V6.80126C8.56024 4.71372 8.91935 3.47916 10.2662 2.62618C13.6781 2.08746 22.4322 4.04032 22.4322 13.1313C22.4322 17.3961 19.6713 23.7934 8.56024 23.2995C7.46033 23.2547 5.73193 24.0178 5.73193 26.0605V37.8226L7.01139 38.1593C7.86437 38.3838 8.56024 37.845 8.56024 36.9472V26.3074C8.56024 23.8158 10.4906 23.3894 12.5333 23.4792C19.5591 23.7934 25.2605 20.6733 25.2605 12.8618C25.2605 2.67108 15.4962 1.79565 12.3313 1.79565Z" fill="#3C80C6"/>
<path d="M12.3313 1.79565C9.23372 2.62618 8.56031 3.90564 8.56031 6.82371V19.0123C8.56031 19.8653 7.86444 20.5836 6.98902 20.5836H5.732V7.40733C5.70956 2.06502 11.2314 1.79565 12.3313 1.79565Z" fill="#3C80C6"/>
<path d="M16.7307 0.605957C15.6533 0.605957 10.1313 0.897768 10.1313 6.21763V20.5835H11.3884C12.2413 20.5835 12.9596 19.8877 12.9596 19.0123V5.63402C12.9596 3.54647 13.3188 2.31191 14.6656 1.45893C19.8957 1.07734 26.8317 4.7137 26.8317 12.5925C26.8317 16.8574 24.0708 24.2872 12.9596 23.7709C11.8598 23.726 10.1313 24.4892 10.1313 26.5319V39.0123L11.4108 39.3489C12.2638 39.5734 12.9596 39.0347 12.9596 38.1368V26.7788C12.9596 24.2872 14.8901 23.8607 16.9328 23.9505C23.9585 24.2648 29.66 20.606 29.66 12.3232C29.66 6.12784 25.2156 0.605957 16.7307 0.605957Z" fill="#7E46D8"/>
<path d="M16.7307 0.605957C13.6331 1.43649 12.9596 2.71595 12.9596 5.63402V19.0123C12.9596 19.8652 12.2638 20.5835 11.3884 20.5835H10.1313V6.21763C10.1313 0.897768 15.6533 0.605957 16.7307 0.605957Z" fill="#7E46D8"/>
<path d="M60.7037 10.4601C60.569 10.4601 60.4792 10.5498 60.4792 10.6845V13.9393H72.376V16.8574H60.4792V20.7855H72.8249V23.7036H57.5612V10.6845C57.5612 8.95614 58.9753 7.54199 60.7037 7.54199H72.8249V10.4601H60.7037ZM49.5252 7.54199C52.4433 7.54199 54.8002 9.89888 54.8002 12.817C54.8002 15.735 52.4433 18.0919 49.5252 18.0919H40.6588V23.7036H37.7407V10.6845C37.7407 8.95614 39.1549 7.54199 40.8832 7.54199H49.5252ZM40.6588 15.1738H49.5252C50.8272 15.1738 51.8821 14.1189 51.8821 12.817C51.8821 11.515 50.8272 10.4601 49.5252 10.4601H40.8832C40.7486 10.4601 40.6588 10.5498 40.6588 10.6845V15.1738ZM80.7489 8.43984C80.2326 7.85629 79.4689 7.54199 78.6607 7.54199H76.7081V23.7036H79.6259V11.4253L90.6926 23.7036H92.8696V7.54199H89.9518V18.698L80.7489 8.43984ZM100.793 8.43984C100.277 7.85629 99.5141 7.54199 98.7059 7.54199H96.7533V23.7036H99.6711V11.4253L110.737 23.7036H112.915V7.54199H109.996V18.698L100.793 8.43984ZM37.7407 28.0807H40.9506V28.8215H38.5712V29.8989H40.7037V30.6396H38.5712V31.7395H41.0179V32.4803H37.7407V28.0807ZM46.6969 28.0807H47.505V32.4578H46.7194L44.4747 29.45V32.4578H43.6666V28.0807H44.4523L46.7194 31.111V28.0807H46.6969ZM86.1355 28.0807H86.9437V32.4578H86.1585L83.9133 29.45V32.4578H83.1052V28.0807H83.8911L86.1585 31.111V28.0807H86.1355ZM49.8395 28.0807H53.4085V28.8215H52.0392V32.4578H51.1863V28.8215H49.817V28.0807H49.8395ZM97.2696 28.0807H100.479V28.8215H98.1V29.8989H100.233V30.6396H98.1V31.7395H100.547V32.4803H97.2696V28.0807ZM106.248 28.0807H107.056V32.4578H106.27L104.026 29.45V32.4578H103.218V28.0807H104.004L106.27 31.111V28.0807H106.248ZM109.368 28.0807H112.937V28.8215H111.568V32.4578H110.715V28.8215H109.346V28.0807H109.368ZM67.4601 28.0807H71.0292V28.8215H69.6599V32.4578H68.8069V28.8215H67.4377V28.0807H67.4601ZM55.7878 28.0807H58.9978V28.8215H56.6184V29.8989H58.7508V30.6396H56.6184V31.7395H59.0651V32.4803H55.7878V28.0807ZM64.4298 32.4578L63.6666 31.1559C63.6442 31.1559 63.5769 31.1559 63.5095 31.1559H62.5219V32.4354H61.6913V28.0583H63.5095C64.0707 28.0583 64.5196 28.193 64.8339 28.4623C65.1481 28.7317 65.3052 29.0908 65.3052 29.5847C65.3052 29.9213 65.2379 30.2132 65.0808 30.4601C64.9237 30.707 64.7217 30.8866 64.4298 30.9988L65.395 32.4578H64.4298ZM62.5219 30.4376H63.5095C63.8238 30.4376 64.0707 30.3703 64.2278 30.2356C64.3849 30.101 64.4747 29.8989 64.4747 29.6295C64.4747 29.3602 64.3849 29.1581 64.2278 29.0235C64.0707 28.8888 63.8238 28.8215 63.5095 28.8215H62.5219V30.4376ZM76.2815 32.4578L75.9 31.5375H73.7677L73.3861 32.4578H72.5107L74.4411 28.0807H75.3163L77.2022 32.4578H76.2815ZM74.0595 30.8193H75.6081L74.8452 28.9786L74.0595 30.8193ZM79.4918 28.0807H80.3222V32.4578H79.4918V28.0807ZM89.7052 28.0807H90.6704L92.1289 30.909L93.5659 28.0807H94.5311V32.4578H93.7674V29.3153L92.3985 32.0089H91.86L90.4904 29.3153V32.4578H89.7274V28.0807H89.7052Z" fill="#1C1B30"/>
</svg>
