<?xml version="1.0" encoding="UTF-8"?>
<svg width="512px" height="512px" viewBox="0 0 512 512" version="1.1" xmlns="http://www.w3.org/2000/svg" xmlns:xlink="http://www.w3.org/1999/xlink">
    <!-- Generator: Sketch 48.1 (47250) - http://www.bohemiancoding.com/sketch -->
    <title>#PEP</title>
    <desc>Created with Sketch.</desc>
    <defs></defs>
    <g id="Компании-BIG" stroke="none" stroke-width="1" fill="none" fill-rule="evenodd">
        <g id="#PEP" fill-rule="nonzero">
            <g id="pepsi">
                <path d="M257.694444,512 C117.465953,512 3.37953795,397.912975 3.37953795,257.694442 C3.37953795,117.46189 117.465953,3.37953795 257.694444,3.37953795 C397.91826,3.37953795 512,117.466563 512,257.694442 C512,397.912975 397.91826,512 257.694444,512 Z" id="Shape" fill="#FFFFFF"></path>
                <path d="M256.004663,4.66119826 C394.806754,4.66119826 507.336891,117.187185 507.336891,256.002331 C507.336891,394.817476 394.806754,507.338802 256.004663,507.338802 C117.193246,507.338802 4.66310862,394.812815 4.66310862,256.002331 C4.66310862,117.191847 117.193246,4.66119826 256.004663,4.66119826 Z M256.004663,0 C114.843039,0 0,114.842603 0,256.002331 C0,397.16672 114.843039,512 256.004663,512 C397.161624,512 512,397.152736 512,256.002331 C512,114.842603 397.161624,0 256.004663,0 Z" id="Shape" fill="#004883"></path>
                <g id="Group" transform="translate(16.897690, 16.897690)">
                    <path d="M383.212651,49.0385127 C381.052456,47.4029266 379.002264,45.6269236 377.075368,43.7220212 C336.818214,15.3264789 288.74482,0.116163926 239.480836,0.187417217 C107.328712,0.187417217 0.196744395,107.366021 0.196744395,239.578771 C0.123685126,291.099178 16.7353573,341.258149 47.5461642,382.550421 C127.619988,358.906025 197.480553,317.768505 257.351709,258.312408 C317.148248,199.14079 359.167186,129.107673 383.212651,49.0385127 Z" id="Shape" fill="#E32934"></path>
                    <path d="M239.480836,478.970125 C371.623632,478.970125 478.7556,371.77753 478.7556,239.574108 C478.7556,192.774991 465.324464,149.137788 442.127772,112.272117 C441.518933,111.66416 440.97215,110.997084 440.495515,110.280764 C445.364444,126.348098 447.83018,143.047216 447.812687,159.836062 C447.812687,187.001468 441.535496,212.711835 429.204966,236.785281 C417.011035,259.647629 399.869356,279.501004 379.029411,294.898265 C362.305781,307.233458 342.233694,317.689224 318.603288,326.260901 C299.795033,333.144359 275.329845,340.260996 245.02118,347.149117 L157.625521,366.815472 C120.470706,375.331185 86.6317042,384.443838 56.4862644,393.77568 C100.375301,445.881961 166.05729,478.970125 239.480836,478.970125 Z" id="Shape" fill="#004883"></path>
                </g>
            </g>
        </g>
    </g>
</svg>