<?xml version="1.0" encoding="UTF-8"?>
<svg width="512px" height="512px" viewBox="0 0 512 512" version="1.1" xmlns="http://www.w3.org/2000/svg" xmlns:xlink="http://www.w3.org/1999/xlink">
    <!-- Generator: Sketch 48.1 (47250) - http://www.bohemiancoding.com/sketch -->
    <title>#PFE</title>
    <desc>Created with Sketch.</desc>
    <defs></defs>
    <g id="Компании-BIG" stroke="none" stroke-width="1" fill="none" fill-rule="evenodd">
        <g id="#PFE" fill="#4484BF" fill-rule="nonzero">
            <path d="M496.157453,233.278182 C496.157453,242.725963 488.958263,250.825823 479.513567,250.825823 C471.410622,250.825823 464.217601,243.626633 464.217601,235.529857 C464.217601,234.178852 464.664851,232.380597 465.115186,231.032676 L464.217601,231.032676 C448.4713,242.729047 440.81869,285.47077 436.318425,300.32257 L404.825823,300.32257 L425.51964,229.681671 L412.922599,229.231336 L416.519109,219.783556 L459.260832,219.783556 L455.213986,233.731602 C460.611837,225.181406 469.612367,217.9853 480.408068,217.9853 C488.958263,217.982216 496.157453,224.731071 496.157453,233.278182 Z M511,252.173743 C511,141.042797 342.287869,101 254.55275,101 C168.61897,101 -1,140.592462 -1,251.273073 C-1,312.913442 55.6866837,354.75141 107.428936,375.898646 L107.879271,375.898646 L156.919514,207.183431 C167.267965,171.190563 183.014266,133.846691 226.656658,133.846691 C241.952624,133.846691 262.19919,140.595547 262.19919,159.491108 C262.19919,169.839559 254.55275,179.73459 243.753964,179.73459 C234.756518,179.73459 227.106993,172.538484 227.106993,163.541038 C227.106993,152.742253 235.203769,147.344402 245.101884,146.894067 C241.952624,141.042797 234.756518,138.794207 228.454913,138.794207 C198.763651,138.794207 192.014796,199.533905 185.713191,219.780471 L240.151284,219.780471 L216.758543,300.316401 L185.265941,300.316401 L205.959757,229.675502 L183.01735,229.675502 L151.521664,336.306183 C146.574148,353.403489 140.275628,369.14979 137.123283,386.700516 C174.467155,397.946552 214.509952,403.797822 253.65208,403.797822 C340.939949,403.797822 511,365.556364 511,252.173743 Z M403.925153,246.775893 C403.925153,252.173743 403.027568,258.025013 401.226228,262.972529 L345.887464,262.972529 C343.638874,269.721384 340.939949,277.81816 340.939949,285.014266 C340.939949,291.315871 344.53646,294.014796 349.93431,294.014796 C360.282761,294.014796 363.879271,279.169165 366.578197,271.51964 L398.977637,271.51964 C392.676033,291.76929 371.078462,304.366331 350.831896,304.366331 C329.240494,304.366331 313.040773,293.564461 313.040773,270.622054 C313.040773,240.477372 336.890019,215.730541 367.481951,215.730541 C386.380597,215.730541 403.925153,224.731071 403.925153,246.775893 Z M322.491638,219.780471 L273.448311,290.865536 L302.245072,291.315871 L299.546147,300.316401 L229.809003,300.316401 L278.398911,229.228252 L250.052484,229.228252 L252.75141,219.780471 L322.491638,219.780471 Z M146.571064,210.783026 C146.571064,251.723408 116.876717,262.972529 81.3341848,262.972529 L72.7870741,262.972529 L61.0907032,300.316401 L29.5950166,300.316401 L61.0907032,190.086125 L61.0907032,189.63579 L47.5929924,189.63579 L49.8415827,180.191094 L108.329606,180.191094 C129.026507,180.191094 146.571064,186.936864 146.571064,210.783026 Z M375.578727,234.178852 C375.578727,229.231336 371.982216,225.631741 367.031616,225.631741 C355.33833,225.631741 351.285315,244.527303 349.036725,253.527833 L371.531881,253.527833 C372.879801,246.775893 375.578727,240.477372 375.578727,234.178852 Z M113.727457,202.23283 C113.727457,193.235385 108.779941,189.63579 99.7794111,189.63579 L94.3815606,189.63579 L75.4859993,253.524748 L81.7845197,253.524748 C104.279676,253.975083 113.727457,221.131476 113.727457,202.23283 Z" id="Shape"></path>
        </g>
    </g>
</svg>