<?xml version="1.0" encoding="UTF-8"?>
<svg width="512px" height="512px" viewBox="0 0 512 512" version="1.1" xmlns="http://www.w3.org/2000/svg" xmlns:xlink="http://www.w3.org/1999/xlink">
    <!-- Generator: Sketch 48.1 (47250) - http://www.bohemiancoding.com/sketch -->
    <title>#PG</title>
    <desc>Created with Sketch.</desc>
    <defs></defs>
    <g id="Компании-BIG" stroke="none" stroke-width="1" fill="none" fill-rule="evenodd">
        <g id="#PG" fill="#304497" fill-rule="nonzero">
            <g id="procter-gamble-1" transform="translate(0.000000, 143.000000)">
                <path d="M173.376837,1.56574924 L65.6593817,1.56574924 C65.6593817,1.56574924 70.4147259,5.7299716 71.0040049,8.96637118 C71.8947755,13.8827339 69.6637379,18.7716463 69.6637379,18.7716463 L13.4054114,199.090435 C13.4054114,199.090435 10.8893272,205.62088 7.73462912,208.53611 C5.18565496,210.894098 0,212.941896 0,212.941896 L79.0072356,212.941896 C79.0072356,212.941896 73.799654,210.259994 72.3387903,207.130651 C71.0451174,204.358163 71.7933647,199.318273 71.7933647,199.318273 L91.3245365,132.081317 C91.3245365,132.081317 184.392243,145.801016 212.606372,76.03039 C236.300868,17.4567731 189.810868,1.56574924 173.376837,1.56574924 Z M163.487914,72.4590958 C144.474759,128.326105 95.5837901,118.52632 95.5837901,118.52632 L126.412673,17.9014693 L144.356903,17.9014693 C144.359644,17.9014693 183.117755,14.7748712 163.487914,72.4590958 Z" id="Shape"></path>
                <path d="M430.288128,84.2874721 C402.215169,88.8277821 360.179708,104.367925 360.179708,104.367925 L355.272557,125.832954 C355.272557,125.832954 369.930993,118.94572 379.830231,116.072384 C388.526656,113.552731 402.596014,111.51014 402.596014,111.51014 L378.915106,196.882225 C378.915106,196.882225 312.417868,211.608074 349.033817,98.1222573 C357.135685,73.0024987 384.877117,32.2905038 412.854179,23.0563467 C444.278029,12.6843704 476.723859,36.4469712 476.723859,36.4469712 L486.088818,8.33049826 C486.088818,8.33049826 450.98529,-0.88720843 428.203068,0.0696564226 C383.156463,1.96145226 353.573823,13.8879913 322.22395,46.3089852 C282.490001,87.4130478 286.087482,148.416609 286.087482,148.416609 L270.916687,160.271863 L256.0418,171.896812 C256.0418,171.896812 246.520666,157.316275 243.177995,146.856563 C240.479199,138.422992 239.185969,124.500472 239.185969,124.500472 C239.185969,124.500472 264.60123,111.800764 277.58833,101.247833 C303.450193,80.2269654 294.112633,55.6802289 276.886917,53.1852518 C256.981583,50.3009486 247.227559,51.6197222 232.571864,63.2720879 C210.126648,81.1207704 209.258102,118.652355 209.258102,118.652355 C209.258102,118.652355 135.5796,136.544905 144.856882,189.890806 C147.599517,205.672222 171.442078,215.101042 190.928208,214.741875 C221.299938,213.398426 242.0108,199.774754 242.0108,199.774754 C242.0108,199.774754 260.732499,225.66494 307.507977,237.097967 C367.763736,251.823815 428.090732,221.428962 428.090732,221.428962 L431.627936,212.057718 C431.627936,212.057718 386.986836,235.760001 336.304268,226.098133 C289.232881,217.129924 264.60671,186.129148 264.60671,186.129148 C264.60671,186.129148 272.91133,179.74091 278.048632,175.441873 C282.640695,171.597963 289.597287,165.322136 289.597287,165.322136 C289.597287,165.322136 298.647158,193.548278 323.150035,205.038881 C377.128695,230.356045 435.641881,200.904348 435.641881,200.904348 L464.23542,106.155535 C464.23542,106.155535 476.189579,105.014974 483.853064,105.0561 C492.242621,105.097226 505.311918,106.602438 505.311918,106.602438 L512,81.5621894 C511.99726,81.5621894 461.585942,79.2234911 430.288128,84.2874721 Z M204.350951,195.097357 C192.755717,195.826658 180.026168,191.075235 177.09996,180.327641 C169.06933,150.826593 211.039033,136.100744 211.039033,136.100744 C211.039033,136.100744 214.121414,152.72113 218.099741,162.681847 C222.03423,172.535635 231.10876,186.570567 231.10876,186.570567 C231.10876,186.570567 218.261395,194.230969 204.350951,195.097357 Z M266.384901,66.3894384 C274.300456,67.5519333 272.229096,85.1812771 261.359935,93.0637598 C252.882701,102.084062 238.290023,106.152794 238.290023,106.152794 C238.290023,106.152794 236.498132,62.0026655 266.384901,66.3894384 Z" id="Shape"></path>
            </g>
        </g>
    </g>
</svg>