<svg width="160" height="19" viewBox="0 0 160 19" fill="none" xmlns="http://www.w3.org/2000/svg">
    <g clip-path="url(#clip0_38_953)">
        <path d="M77.7009 9.94793C79.4155 9.77897 80.6438 9.01371 81.3367 7.65545C81.9036 6.54897 82.7784 4.75673 82.7854 4.73686C83.6532 3.04069 83.3873 2.00378 83.0094 1.42403C82.4425 0.56601 81.3332 0.26123 80.4898 0.26123H71.8989L63.0071 18.1505H67.4723L70.8771 11.124H73.2707C73.4704 11.1353 73.665 11.1885 73.8405 11.2796C74.016 11.3706 74.168 11.4974 74.2855 11.6507C74.5724 12.1013 74.4954 12.7903 74.044 13.698C72.9662 15.8878 72.1089 18.1571 72.1089 18.1571H76.6371C76.7624 17.5656 76.9464 16.9866 77.1864 16.4278C77.5364 15.646 78.5862 13.1746 78.5862 13.1514C79.4505 11.1472 78.3797 10.3455 77.7009 9.94793ZM77.2284 6.9962C76.8505 7.75153 76.2696 8.13581 75.4963 8.13581H72.3818L74.7439 3.26596H78.1523C78.2426 3.26994 78.3308 3.2928 78.4107 3.3329C78.4905 3.37299 78.56 3.42933 78.6142 3.49786C78.7507 3.70988 78.7017 4.06435 78.4742 4.52484L77.6939 6.07524L77.2284 6.9962Z" fill="#2480FE"/>
        <path d="M30.0397 9.94824C31.7544 9.77598 32.9757 9.01071 33.6756 7.65246C34.2424 6.54597 35.1173 4.75374 35.1278 4.73386C35.9956 3.03769 35.7297 2.00078 35.3517 1.42103C34.7848 0.576264 33.6756 0.271484 32.8287 0.271484H24.2273L15.3354 18.1607H19.8111L23.216 11.1342H25.613C25.8128 11.1456 26.0074 11.1987 26.1829 11.2898C26.3583 11.3809 26.5103 11.5076 26.6279 11.661C26.9183 12.1115 26.8378 12.8006 26.3864 13.7083C25.3086 15.8981 24.4513 18.1674 24.4513 18.1674H28.9794C29.1031 17.5759 29.2859 16.9968 29.5253 16.4381C29.8753 15.6562 30.9251 13.1849 30.9251 13.1617C31.7929 11.1475 30.7186 10.3458 30.0397 9.94824ZM29.5673 6.9932C29.1894 7.75184 28.6085 8.11957 27.8386 8.11957H24.7242L27.1528 3.24971H30.4911C30.5814 3.25369 30.6697 3.27655 30.7496 3.31665C30.8294 3.35674 30.8989 3.41308 30.9531 3.48161C31.0895 3.69363 31.0405 4.0481 30.8131 4.50859L30.0327 6.05899L29.5673 6.9932Z" fill="#2480FE"/>
        <path d="M51.0079 4.72077C52.5721 1.54708 50.8015 0.168945 48.5479 0.168945H43.1239C40.8423 0.168945 39.2326 1.1893 38.1968 3.28631C37.6404 4.41267 36.7131 6.26785 35.6388 8.38475L33.3712 12.9101C31.0931 17.4486 34.5015 18.2106 36.1707 18.2106H39.5965C43.0294 18.2437 44.7196 17.3261 46.0459 14.7089C46.9347 12.9598 48.1665 10.4619 49.4752 7.81494L51.0079 4.72077ZM46.5533 4.21722L42.0041 13.3904C41.3707 14.6559 40.9543 14.8713 39.971 14.8713H38.0043C37.6544 14.8713 36.9545 14.7818 37.4794 13.6985C38.2423 12.1415 41.4407 5.61523 42.0951 4.30335C42.5395 3.40889 43.0014 3.22999 43.6033 3.22999H46.0528C46.5183 3.21012 46.9347 3.45195 46.5533 4.21722Z" fill="#2480FE"/>
        <path d="M58.4474 8.2289L56.9637 11.2104H59.3153L57.9925 13.917C57.6076 14.7022 57.3451 14.8612 56.4388 14.8612H54.1012C53.4014 14.8612 53.1564 14.5299 53.5763 13.6884C54.1082 12.6217 58.3074 4.31977 58.3074 4.31977C58.7834 3.37561 59.0668 3.23316 59.8017 3.23316H62.2162C62.8006 3.23316 63.1156 3.48825 62.7236 4.22701C62.6361 4.38934 61.6738 6.38034 61.6738 6.38034L65.9325 6.41016L66.9019 4.43903C68.3191 1.55687 67.0523 0.208553 64.1199 0.168799H59.4937C58.3918 0.141557 57.3059 0.422842 56.3722 0.977396C55.4384 1.53195 54.6983 2.3351 54.2447 3.28617C53.4014 4.98565 49.4226 12.9099 49.4226 12.9099C47.9669 15.8086 48.8102 18.2104 52.7925 18.2104H56.3478C59.1893 18.2369 60.5855 17.8162 61.8838 15.1262L65.1977 8.25209L58.4474 8.2289Z" fill="#2480FE"/>
        <path d="M122.64 0.214844L113.737 18.1306H118.325L127.283 0.214844H122.64Z" fill="#2480FE"/>
        <path d="M128.267 16.0006L133.523 0.218262H128.711L124.302 18.1307H130.51L143.482 0.218262H138.656L128.267 16.0006Z" fill="#2480FE"/>
        <path d="M103.12 11.9157L102.735 5.29009C102.69 4.4917 102.896 3.40841 104.439 3.40841H107.54L109.132 0.214844H103.848C99.6488 0.214844 98.249 2.63652 98.3995 5.48223C98.4975 7.22147 98.7494 12.8798 98.7494 12.8798C98.8124 14.2447 98.2595 14.8675 96.9123 14.8675H93.3779L91.7927 18.1173H97.4267C101.164 18.1372 103.365 15.8282 103.12 11.9157Z" fill="#2480FE"/>
        <path d="M113.3 5.29693C113.254 4.49854 113.461 3.41524 115.004 3.41524H118.104L119.697 0.22168H114.413C110.941 0.22168 108.765 2.01723 108.964 5.48907C109.066 7.2283 109.314 12.8866 109.314 12.8866C109.38 14.2515 108.828 14.8743 107.477 14.8743H104.033L102.448 18.1242H107.991C112.099 18.1242 113.898 15.3414 113.681 11.9027L113.3 5.29693Z" fill="#2480FE"/>
        <path d="M87.3661 10.1236H93.1085L94.5817 7.14203H88.8183L90.6519 3.42505H96.6008L98.1616 0.248047H87.7965L78.9536 18.1373H90.1515L91.7647 14.894H84.9725L87.3661 10.1236Z" fill="#2480FE"/>
        <path d="M136.165 18.134H147.362L148.99 14.894H142.183L144.577 10.1236H150.319L151.793 7.14203H146.029L147.863 3.42505H153.812L155.369 0.248047H145.007L136.165 18.134Z" fill="#2480FE"/>
        <path d="M17.8235 8.8252C18.1979 8.09306 18.9398 6.57579 19.7831 4.81337C21.2634 1.71256 19.4332 0.27811 17.4911 0.271484H8.99463L0.17627 18.1872H4.76042L7.83985 11.9127C7.83985 11.9127 10.4294 11.9127 12.305 11.9127C15.164 11.9326 16.6582 11.1011 17.8235 8.8252ZM15.4579 4.67092C14.6321 6.32733 14.0022 7.56632 13.9322 7.70215C13.5613 8.45085 13.0294 8.78213 12.228 8.78213H9.35157L12.0706 3.20665H14.954C15.5874 3.20996 16.0388 3.51143 15.4579 4.67092Z" fill="#2480FE"/>
        <path d="M159.075 1.464C159.078 1.39466 159.062 1.32575 159.028 1.26415C158.994 1.20254 158.944 1.15038 158.882 1.11284C158.753 1.05061 158.608 1.02311 158.462 1.03333H157.714V2.66324H157.924V1.91123H158.309L158.802 2.66324H159.05L158.532 1.91123C158.837 1.90461 159.075 1.78535 159.075 1.464ZM158.253 1.75553H157.931V1.16253H158.424C158.637 1.16253 158.872 1.19235 158.872 1.44412C158.861 1.79197 158.487 1.75553 158.253 1.75553Z" fill="#2480FE"/>
        <path d="M158.287 0.390629C157.983 0.389974 157.684 0.474989 157.431 0.634905C157.177 0.794821 156.979 1.02244 156.862 1.28892C156.745 1.55541 156.714 1.84877 156.774 2.13183C156.833 2.41489 156.98 2.67492 157.195 2.87898C157.411 3.08303 157.685 3.22193 157.984 3.27806C158.283 3.3342 158.593 3.30506 158.875 3.19432C159.156 3.08358 159.397 2.89624 159.566 2.65603C159.734 2.41581 159.824 2.13353 159.824 1.84496C159.823 1.45952 159.66 1.09011 159.373 0.817559C159.085 0.545008 158.694 0.391504 158.287 0.390629ZM158.287 3.13033C158.02 3.12837 157.759 3.05152 157.538 2.90945C157.317 2.76739 157.145 2.56648 157.044 2.33205C156.943 2.09762 156.917 1.84015 156.971 1.59212C157.024 1.34408 157.154 1.11657 157.344 0.938261C157.534 0.759954 157.775 0.638833 158.037 0.590164C158.3 0.541496 158.572 0.567459 158.818 0.66478C159.065 0.762102 159.276 0.926426 159.425 1.13704C159.573 1.34765 159.652 1.59513 159.652 1.84827C159.653 2.01775 159.618 2.18564 159.549 2.34222C159.481 2.4988 159.38 2.64097 159.253 2.76051C159.126 2.88004 158.975 2.97456 158.81 3.03861C158.644 3.10266 158.466 3.13496 158.287 3.13365V3.13033Z" fill="#2480FE"/>
    </g>
    <defs>
        <clipPath id="clip0_38_953">
            <rect width="160" height="18.3784" fill="white"/>
        </clipPath>
    </defs>
</svg>
