<svg width="160" height="32" viewBox="0 0 160 32" fill="none" xmlns="http://www.w3.org/2000/svg">
    <g clip-path="url(#clip0_41_723)">
        <path d="M0 16.9729V9.79166H48.1035V16.9729H0Z" fill="black"/>
        <path d="M143.487 16.9729V23.0038L133.983 23.0044V16.4078H132.436V24.3789H143.487V31.5457H132.436C123.409 31.8948 122.224 27.3388 122.224 20.8338C122.228 20.6108 122.232 20.388 122.235 20.1657C122.329 14.4883 122.417 9.12419 133.275 9.44443C144.79 8.87682 143.487 16.9729 143.487 16.9729Z" fill="black"/>
        <path d="M100.959 31.6562V0.330556H110.114V17.1933L114.269 9.68178H124.118L117.704 20.2693L124.599 31.5457H114.269L110.229 23.9193V31.6562H100.959Z" fill="black"/>
        <path d="M160 17.0878V9.68178H152.281C145.385 9.68178 145.27 15.7133 145.27 15.7133V31.545H154.657V17.0878H160Z" fill="black"/>
        <path d="M99.6536 17.0878V9.68178H91.9341C85.0397 9.68178 84.9252 15.7133 84.9252 15.7133V31.545H94.3103V17.0878H99.6536Z" fill="black"/>
        <path d="M75.784 9.68178H63.9068V17.0884H74.0045V25.17H72.2223V18.6839H69.252C69.12 18.6839 68.9561 18.6788 68.766 18.673C66.5568 18.6049 60.8234 18.4281 60.8234 24.8197C60.8234 32.576 69.252 31.5457 69.252 31.5457H83.2562V15.7133C83.2562 9.22216 75.784 9.68178 75.784 9.68178Z" fill="black"/>
        <path d="M34.5599 31.5457V18.5583H49.7673V8.1943H34.5593V0.000284559H50.2468C50.2942 0.000284559 50.3435 0.000218488 50.3945 0.000150019C53.4192 -0.00390684 62.7187 -0.0163798 62.7187 13.208C62.7187 26.4195 50.4784 25.85 50.4784 25.85H47.395V31.5457H34.5599Z" fill="black"/>
    </g>
    <defs>
        <clipPath id="clip0_41_723">
            <rect width="160" height="32" fill="white"/>
        </clipPath>
    </defs>
</svg>
