<svg width="160" height="41" viewBox="0 0 160 41" fill="none" xmlns="http://www.w3.org/2000/svg">
    <g clip-path="url(#clip0_38_974)">
        <path d="M63.0298 15.0422H68.0835V30.8574H63.0298V15.0422Z" fill="#E60023"/>
        <path d="M69.1387 15.0422H74.0062V17.2044H74.0991C75.2773 15.5054 76.7965 14.5789 78.9978 14.5789C82.4701 14.5789 84.5163 17.05 84.5163 20.5713V30.8574H79.4628V21.5908C79.4628 19.9226 78.6257 18.7797 76.9826 18.7797C75.3084 18.7797 74.1922 20.1698 74.1922 22.1157V30.8574H69.1387V15.0422Z" fill="#E60023"/>
        <path d="M68.5877 10.8105C68.5877 9.14238 67.2304 7.79028 65.5563 7.79028C63.8822 7.79028 62.5249 9.14238 62.5249 10.8105C62.5249 12.4785 63.8822 13.8306 65.5563 13.8306C67.2304 13.8306 68.5877 12.4785 68.5877 10.8105Z" fill="#E60023"/>
        <path d="M120.059 14.8134C119.915 14.8005 119.749 14.7947 119.556 14.7947C117.634 14.7947 116.332 15.6287 115.215 17.5129H115.122V15.0418H110.286V30.8569H115.339V23.7525C115.339 20.4607 117.169 18.9353 120.059 19.2015V14.8134Z" fill="#E60023"/>
        <path d="M144.859 20.8801C142.843 20.5095 141.045 20.3551 141.045 19.2431C141.045 18.2545 142.006 17.7913 143.246 17.7913C144.642 17.7913 145.603 18.2237 145.789 19.6447H150.439C150.191 16.5249 147.773 14.5788 143.278 14.5788C139.526 14.5788 136.426 16.3086 136.426 19.6447C136.426 23.3511 139.371 24.0926 142.131 24.556C144.239 24.9267 146.161 25.0811 146.161 26.5019C146.161 27.5214 145.2 28.0773 143.681 28.0773C142.156 28.0773 141.148 27.4349 140.839 26.1314H136.024C136.378 29.3825 139.243 31.3516 143.712 31.3516C147.866 31.3516 150.935 29.56 150.935 26.1005C150.935 22.0539 147.649 21.3435 144.859 20.8801Z" fill="#E60023"/>
        <path d="M127.898 18.1614C129.541 18.1614 130.72 19.3661 130.906 21.2505H124.643C124.984 19.3661 125.976 18.1614 127.898 18.1614ZM128.177 27.7061C126.1 27.7061 124.922 26.378 124.612 24.2466H136.021C136.052 21.0342 135.122 18.285 133.231 16.5553C131.867 15.3198 130.069 14.5784 127.805 14.5784C122.969 14.5784 119.651 18.1923 119.651 22.9185C119.651 27.7061 122.876 31.3203 128.115 31.3203C130.13 31.3203 131.743 30.7952 133.076 29.8685C134.471 28.9109 135.401 27.5518 135.742 26.131H130.813C130.378 27.1194 129.511 27.7061 128.177 27.7061Z" fill="#E60023"/>
        <path d="M159.836 27.1278C159.602 27.137 159.287 27.1506 158.998 27.1506C157.913 27.1506 157.231 26.8416 157.231 25.606V18.1926H159.836V15.0419H157.231V10.0379H152.302V15.0419H150.75V18.1926H152.302V26.6871C152.302 30.0851 154.41 31.0425 157.355 31.0425C158.479 31.0425 159.328 30.9586 159.836 30.86V27.1278Z" fill="#E60023"/>
        <path d="M93.541 27.135C93.3394 27.1428 93.1067 27.1506 92.8893 27.1506C91.8044 27.1506 91.1221 26.8416 91.1221 25.606V18.1926H93.541V15.0419H91.1221V10.0379H86.1926V15.0419H84.5488V18.1926H86.1926V26.6871C86.1926 30.0851 88.3008 31.0425 91.2461 31.0425C92.2427 31.0425 93.023 30.9764 93.541 30.8927V27.135Z" fill="#E60023"/>
        <path d="M104.549 21.2505C104.363 19.3663 103.184 18.1614 101.541 18.1614C99.619 18.1614 98.627 19.3663 98.2859 21.2505H104.549ZM93.2944 22.9185C93.2944 18.1924 96.6117 14.5785 101.448 14.5785C103.711 14.5785 105.51 15.3198 106.874 16.5553C108.765 18.2851 109.695 21.0342 109.664 24.2467H98.2551C98.5649 26.378 99.7431 27.7062 101.82 27.7062C103.153 27.7062 104.022 27.1194 104.455 26.131H109.385C109.044 27.5518 108.114 28.9109 106.719 29.8686C105.386 30.7952 103.774 31.3203 101.758 31.3203C96.5187 31.3203 93.2944 27.7062 93.2944 22.9185Z" fill="#E60023"/>
        <path d="M54.2534 19.15C56.2377 19.15 57.3538 17.9762 57.3538 16.2154C57.3538 14.4548 56.2065 13.3737 54.2534 13.3737H50.3777V19.15H54.2534ZM45.2615 8.77124H54.0372C56.7344 8.77124 58.7187 9.5125 60.0828 10.8099C61.5091 12.138 62.3152 14.0224 62.3152 16.2464C62.3152 20.4781 59.3698 23.4745 54.8122 23.4745H50.3777V30.8569H45.2615V8.77124Z" fill="#E60023"/>
        <path d="M38.3243 20.4783C38.3243 30.9769 29.7819 39.4878 19.2444 39.4878C8.70695 39.4878 0.164551 30.9769 0.164551 20.4783C0.164551 9.97948 8.70695 1.46872 19.2444 1.46872C29.7819 1.46872 38.3243 9.97948 38.3243 20.4783Z" fill="white"/>
        <path d="M19.2442 1.46824C8.70671 1.46824 0.164307 9.97915 0.164307 20.4778C0.164307 28.5312 5.19344 35.4157 12.291 38.1855C12.1243 36.6815 11.9735 34.3684 12.3572 32.7265C12.7039 31.2429 14.5945 23.2775 14.5945 23.2775C14.5945 23.2775 14.0238 22.1387 14.0238 20.4552C14.0238 17.8119 15.5615 15.8385 17.4762 15.8385C19.1041 15.8385 19.8903 17.0561 19.8903 18.5162C19.8903 20.1473 18.848 22.5858 18.3102 24.8456C17.8607 26.7376 19.2625 28.2806 21.1356 28.2806C24.5267 28.2806 27.1335 24.7181 27.1335 19.5757C27.1335 15.0242 23.8509 11.8419 19.1636 11.8419C13.7347 11.8419 10.5482 15.8988 10.5482 20.0915C10.5482 21.7253 11.1799 23.4773 11.9682 24.4297C12.1241 24.6179 12.1469 24.7828 12.1005 24.9749C11.9557 25.5753 11.6338 26.8665 11.5706 27.1308C11.4874 27.4787 11.2941 27.5526 10.9325 27.3849C8.54953 26.2798 7.05963 22.8086 7.05963 20.0206C7.05963 14.0241 11.4327 8.51703 19.6665 8.51703C26.2853 8.51703 31.4289 13.2161 31.4289 19.4961C31.4289 26.0475 27.2828 31.32 21.5281 31.32C19.5947 31.32 17.7771 30.3193 17.155 29.1372C17.155 29.1372 16.1982 32.7667 15.9663 33.6561C15.5356 35.3073 14.3727 37.377 13.5949 38.6396C15.3801 39.1903 17.2773 39.4873 19.2442 39.4873C29.7818 39.4873 38.3242 30.9764 38.3242 20.4778C38.3242 9.97915 29.7818 1.46824 19.2442 1.46824Z" fill="#E60023"/>
    </g>
    <defs>
        <clipPath id="clip0_38_974">
            <rect width="160" height="38.9565" fill="white" transform="translate(0 1)"/>
        </clipPath>
    </defs>
</svg>
