<svg width="65" height="40" viewBox="0 0 65 40" fill="none" xmlns="http://www.w3.org/2000/svg">
    <path d="M2.78392 35.0969H4.03712C4.80439 35.0969 5.35303 34.9034 5.47554 34.2042C5.58105 33.6022 5.23698 33.2903 4.50897 33.2903H3.10044L2.78392 35.0969ZM1.2986 31.9316H5.21236C6.7856 31.9316 7.84771 32.6309 7.56753 34.2329C7.32134 35.642 6.2944 36.4573 4.18717 36.4573H2.54594L2.11101 38.9438H0.0717773L1.2986 31.9316Z" fill="#006455"/>
    <path d="M10.2543 34.9222H11.8756C12.8088 34.9222 13.1599 34.6315 13.2542 34.0969C13.3732 33.4181 12.8609 33.2909 11.8803 33.2909H10.5403L10.2543 34.9222ZM8.73791 31.9316H13.0204C14.7102 31.9316 15.5654 32.5442 15.3515 33.7669C15.1944 34.6596 14.358 35.2827 13.2765 35.4656L13.273 35.4861C13.8591 35.5248 14.3879 35.6602 14.5455 36.0974C14.773 36.7387 14.5537 38.214 14.7173 38.9432H12.552C12.4471 38.2633 12.6534 37.2533 12.5438 36.7668C12.4741 36.4474 12.1915 36.2815 11.3762 36.2815H10.0157L9.54973 38.9432H7.5105L8.73791 31.9316Z" fill="#006455"/>
    <path d="M19.5396 37.69C21.0929 37.69 21.7864 36.6713 22.0021 35.4368C22.2184 34.2035 21.8819 33.1836 20.328 33.1836C18.7741 33.1836 18.0813 34.2035 17.8656 35.4368C17.6493 36.6713 17.9857 37.69 19.5396 37.69ZM20.5795 31.7476C23.5126 31.7476 24.4709 33.3208 24.1005 35.4374C23.7295 37.554 22.2219 39.1284 19.2887 39.1284C16.355 39.1284 15.3973 37.554 15.7677 35.4374C16.1387 33.3202 17.6469 31.7476 20.5795 31.7476Z" fill="#006455"/>
    <path d="M25.6205 31.9316H26.6298L25.5425 38.1472H29.5823L29.4428 38.9438H24.3931L25.6205 31.9316Z" fill="#006455"/>
    <path d="M33.3125 38.3313C35.0112 38.3313 36.391 37.166 36.6934 35.4368C36.9959 33.7077 36.0235 32.5436 34.3248 32.5436C32.6261 32.5436 31.2463 33.7077 30.9438 35.4368C30.6408 37.166 31.6126 38.3313 33.3125 38.3313ZM34.4643 31.7476C37.4068 31.7476 38.0533 33.7669 37.7614 35.4374C37.4695 37.1091 36.1149 39.1284 33.173 39.1284C30.2299 39.1284 29.5828 37.1091 29.8759 35.4374C30.1678 33.7669 31.5206 31.7476 34.4643 31.7476Z" fill="#006455"/>
    <path d="M42.8681 35.2828H46.1218L45.5679 38.448C44.3077 38.9333 43.1658 39.1279 42.0691 39.1279C39.2239 39.1279 38.2322 37.4082 38.5768 35.4369C38.8846 33.6796 40.3206 31.7471 43.2244 31.7471C45.1957 31.7471 46.3381 32.3197 46.3223 33.747H45.2543C45.1676 32.8543 44.3188 32.5437 43.1822 32.5437C41.211 32.5437 39.9267 33.8338 39.6477 35.4275C39.3775 36.9721 40.2087 38.3308 42.2485 38.3308C43.0158 38.3308 43.9302 38.1555 44.657 37.8841L44.973 36.0776H42.7291L42.8681 35.2828Z" fill="#006455"/>
    <path d="M48.1159 31.9316H49.1258L47.8996 38.9438H46.8896L48.1159 31.9316Z" fill="#006455"/>
    <path d="M55.2026 33.7968C55.2771 32.8155 54.3246 32.5441 53.1886 32.5441C52.188 32.5441 51.2561 33.0389 51.1201 33.8161C51.0538 34.1942 51.2197 34.5834 52.0579 34.7287L54.5925 35.1766C55.695 35.37 56.1047 36.02 55.9547 36.8846C55.7097 38.2838 54.3082 39.1273 52.2303 39.1273C50.2397 39.1273 49.2139 38.3899 49.3569 36.8453H50.4249C50.2901 37.7873 51.0978 38.3313 52.4272 38.3313C53.8844 38.3313 54.7912 37.7574 54.9254 36.9919C55.2654 35.0494 49.5873 36.8067 50.1002 33.8735C50.337 32.5236 51.6183 31.7476 53.5321 31.7476C54.9881 31.7476 56.4558 32.1837 56.2706 33.7968H55.2026Z" fill="#006455"/>
    <path d="M59.1279 15.7758C57.2276 17.3912 58.0253 19.9404 58.8073 21.3841C59.785 23.1895 58.5359 25.8477 56.8267 27.3524C60.9802 24.9907 63.8195 20.5858 63.9748 15.5027C62.6835 14.6574 60.5212 14.5924 59.1279 15.7758Z" fill="#00927B"/>
    <path d="M49.2219 19.8392C46.4975 17.5297 44.1112 18.6469 42.4847 20.5555C40.8364 22.4927 43.1083 23.0718 46.2108 23.7758C48.5531 24.3092 48.2647 27.4885 48.4787 28.2054C51.2746 23.689 50.4699 20.8966 49.2219 19.8392Z" fill="#5BAC26"/>
    <path d="M53.6005 5.76133C58.2463 9.3656 54.1614 11.2091 54.1614 11.2091C56.8003 13.4499 59.4667 9.15752 62.3318 11.61C63.0909 12.2589 63.5739 13.0443 63.9332 13.8895C63.4514 8.02682 59.3917 3.17991 53.9399 1.53516C51.8021 2.47418 50.9469 3.70334 53.6005 5.76133Z" fill="#009EC5"/>
    <path d="M42.3792 18.1981C41.3259 15.3177 42.6641 13.9919 47.2413 10.7334C53.0238 6.61803 43.98 8.07755 47.6604 4.37129C48.9646 3.05889 50.7964 2.03957 52.148 1.12165C51.4019 0.999731 50.6369 0.934082 49.8562 0.934082C42.0533 0.934082 35.7263 7.26045 35.7263 15.0628C35.7263 15.3764 35.7398 15.6864 35.7609 15.9947C37.8898 17.9695 40.5316 19.2508 42.3792 18.1981Z" fill="#006455"/>
</svg>
