<svg width="160" height="41" viewBox="0 0 160 41" fill="none" xmlns="http://www.w3.org/2000/svg">
    <g clip-path="url(#clip0_38_1020)">
        <path d="M39.4065 5.74751H49.2185C52.8585 5.74751 55.2324 5.90602 57.2897 8.12143C58.7141 9.704 59.5054 11.6031 59.5054 13.8188C59.5054 16.0343 58.7141 17.9335 57.1315 19.5161C55.5489 21.0987 53.4915 22.0482 48.269 22.0482H43.5212V35.1837H39.4065V5.74751ZM43.5212 18.7247H48.269C50.9594 18.7247 55.0741 18.5668 55.0741 13.6605C55.0741 9.07099 51.2759 9.071 49.0603 9.071H43.5212V18.7247ZM72.6409 35.1837C72.3244 34.2342 72.3244 33.1263 72.3244 32.1768C70.4252 35.5003 67.7348 35.8168 65.994 35.8168C61.2462 35.8168 58.7141 33.1264 58.7141 29.8029C58.7141 28.2203 59.3471 25.5299 62.354 23.7891C64.5697 22.523 67.7348 22.523 69.4757 22.523C70.4253 22.523 71.0583 22.523 72.1661 22.6815C72.1661 20.1494 72.1661 19.0415 71.3748 18.092C70.5835 17.1424 69.0009 16.8259 67.8931 16.8259C64.0949 16.8259 63.7784 19.5163 63.7784 20.3076H59.9802C60.1384 19.1998 60.2967 17.7754 61.4045 16.5094C62.9871 14.7685 65.8357 14.2938 68.0514 14.2938C71.0583 14.2938 74.2235 15.2433 75.3313 17.3007C75.9643 18.5668 75.9643 19.5163 75.9643 20.4659L75.8061 30.2779C75.8061 30.5943 75.8061 33.2849 76.1226 35.3422H72.6409V35.1837ZM69.9505 25.0551C68.3679 25.0551 62.5123 25.0552 62.5123 29.1699C62.5123 30.436 63.3036 32.6516 66.7853 32.6516C68.6844 32.6516 70.267 31.8603 71.2166 30.436C72.0079 29.0116 72.1661 27.9038 72.1661 25.0551C71.5331 25.2137 70.9 25.0551 69.9505 25.0551ZM79.2878 5.74751H83.086V35.1837H79.2878V5.74751ZM99.5449 35.1837C99.2284 34.2342 99.2284 33.1263 99.2284 32.1768C97.3293 35.5003 94.6389 35.8168 92.8981 35.8168C88.1503 35.8168 85.6181 33.1264 85.6181 29.8029C85.6181 28.2203 86.2512 25.5299 89.2581 23.7891C91.4737 22.523 94.6389 22.523 96.3798 22.523C97.3293 22.523 97.9623 22.523 99.0702 22.6815C99.0702 20.1494 99.0702 19.0415 98.2789 18.092C97.4876 17.1424 95.905 16.8259 94.7972 16.8259C90.9989 16.8259 90.6824 19.5163 90.6824 20.3076H86.8842C87.0425 19.1998 87.2007 17.7754 88.3085 16.5094C89.8911 14.7685 92.7398 14.2938 94.9554 14.2938C97.9623 14.2938 101.128 15.2433 102.235 17.3007C102.868 18.5668 102.868 19.5163 102.868 20.4659L102.71 30.2779C102.71 30.5943 102.71 33.2849 103.027 35.3422H99.5449V35.1837ZM97.0128 25.0551C95.4302 25.0551 89.5746 25.0552 89.5746 29.1699C89.5746 30.436 90.3659 32.6516 93.8476 32.6516C95.7467 32.6516 97.3293 31.8603 98.2789 30.436C99.0702 29.0116 99.2284 27.9038 99.2284 25.0551C98.4371 25.2137 97.9623 25.0551 97.0128 25.0551ZM106.35 17.1422V14.7683H110.148V18.0917C110.623 17.3004 112.047 14.4518 116.637 14.4518C118.536 14.4518 124.075 15.0848 124.075 21.4152V35.342H120.119V22.3647C120.119 21.0987 119.96 19.8326 119.011 18.883C118.061 17.9335 116.637 17.4587 115.371 17.4587C112.522 17.4587 109.99 19.5161 109.99 23.6308V35.342H106.192V17.1422H106.35ZM125.341 14.7683H128.981V10.337L132.779 9.071V14.6101H137.369V17.4587H132.779V29.6446C132.779 30.5942 132.779 32.335 135.47 32.335C136.261 32.335 137.052 32.1766 137.369 32.1766V35.1835C136.736 35.342 135.628 35.4999 134.204 35.4999C130.564 35.4999 128.981 34.3921 128.981 31.0686V17.4584H125.341V14.7683ZM140.059 5.74751H144.649V10.0205H140.059V5.74751ZM140.376 14.7683H144.174V35.1837H140.376V14.7683ZM147.814 18.883C147.814 17.4587 147.656 16.0344 147.656 14.7683H151.454L151.612 18.7247C152.404 15.8761 154.777 14.9265 156.518 14.7683C157.626 14.6098 158.576 14.6098 159.209 14.6098V18.408C159.05 18.408 158.734 18.2495 158.417 18.2495C158.101 18.2495 157.784 18.2495 157.31 18.2495C152.72 18.2495 151.77 20.9399 151.77 24.4216V35.3415H147.972V18.8825L147.814 18.883ZM15.8259 1.79102C7.91292 1.79102 1.42429 8.27966 1.42429 16.1926C1.42429 24.1056 7.91292 30.5942 15.8259 30.5942C23.7388 30.5942 30.2275 24.1056 30.2275 16.1926C30.2275 8.27966 23.7388 1.79102 15.8259 1.79102ZM15.8259 26.163C10.2868 26.163 5.85555 21.7317 5.85555 16.1926C5.85555 10.6536 10.2868 6.22234 15.8259 6.22234C21.3649 6.22234 25.7962 10.6536 25.7962 16.1926C25.6379 21.7317 21.2067 26.163 15.8259 26.163ZM28.6449 29.3281L15.8259 34.8672L3.00689 29.3281L0.79126 33.2846L15.8259 39.6149L30.8605 33.2846L28.6449 29.3281Z" fill="black"/>
    </g>
    <defs>
        <clipPath id="clip0_38_1020">
            <rect width="160" height="40" fill="white" transform="translate(0 0.610352)"/>
        </clipPath>
    </defs>
</svg>
