<svg width="48" height="40" viewBox="0 0 48 40" fill="none" xmlns="http://www.w3.org/2000/svg">
<g clip-path="url(#clip0_113_7974)">
<path d="M17.45 0H14.2985V18.0255H17.45V0ZM25.4175 28.078C28.849 28.078 31.6305 25.293 31.6305 21.859V16.1H28.479V21.8585C28.479 23.548 27.1055 24.9225 25.4175 24.9225C23.7295 24.9225 22.356 23.5475 22.356 21.8585V16.1H19.205V21.8585C19.205 25.293 21.9865 28.0775 25.418 28.0775L25.4175 28.078ZM6.49 5.798C3.5945 5.798 1.1615 7.78 0.472 10.463C0.472 10.463 0 12.0165 0 15.398V24.665H3.1325V17.2485C4.13313 17.8943 5.29909 18.237 6.49 18.2355C9.9215 18.2355 12.703 15.4515 12.703 12.0165C12.703 8.582 9.9215 5.798 6.49 5.798ZM6.49 15.081C4.802 15.081 3.4285 13.706 3.4285 12.0165C3.4285 10.327 4.802 8.9525 6.49 8.9525C8.178 8.9525 9.551 10.3275 9.551 12.0165C9.551 13.7065 8.178 15.0805 6.49 15.0805V15.081ZM44.045 10.463C43.355 7.7805 40.9225 5.798 38.027 5.798C34.5955 5.798 31.8135 8.582 31.8135 12.0165C31.8135 15.4515 34.5955 18.2355 38.027 18.2355C39.264 18.2355 40.416 17.872 41.3845 17.2485V18.0815C41.3845 28.438 32.966 36.864 22.6185 36.864C17.7005 36.864 14.2985 35.2395 14.2985 35.2395V38.3755C14.2985 38.3755 17.7005 40 22.6185 40C28.376 40 33.8185 37.7675 37.945 33.713C42.065 29.6645 44.403 24.2655 44.517 18.518V15.397C44.517 12.016 44.0445 10.4625 44.0445 10.4625L44.045 10.463ZM38.027 15.081C36.339 15.081 34.9655 13.706 34.9655 12.0165C34.9655 10.327 36.339 8.9525 38.027 8.9525C39.715 8.9525 41.088 10.3275 41.088 12.0165C41.088 13.7065 39.715 15.0805 38.027 15.0805V15.081ZM44.8985 7.9225H44.517V6.435H44.027V6.1165H45.389V6.435H44.8985V7.9225ZM46.43 7.9225L45.995 6.506H45.985C45.9908 6.62868 45.9968 6.75134 46.003 6.874C46.0065 6.951 46.008 7.0205 46.008 7.083V7.923H45.667V6.1165H46.187L46.6145 7.4975H46.622L47.0745 6.1165H47.595V7.9225H47.239V7.0675C47.239 7.0105 47.24 6.9445 47.2425 6.8705C47.2468 6.74982 47.2514 6.62915 47.2565 6.5085H47.2465L46.7815 7.9225H46.43Z" fill="#36A857"/>
</g>
<defs>
<clipPath id="clip0_113_7974">
<rect width="48" height="40" fill="white"/>
</clipPath>
</defs>
</svg>
