<svg width="512" height="375" viewBox="0 0 512 375" fill="none" xmlns="http://www.w3.org/2000/svg">
    <path d="M372.802 320.815C372.125 320.984 371.786 321.408 371.532 322C371.363 322.593 371.448 323.101 371.956 323.609C372.21 323.863 372.887 324.286 373.903 324.879L376.443 326.403C377.629 327.081 378.391 327.758 378.814 328.435C379.576 329.451 379.661 330.721 379.237 332.161C378.814 333.685 377.883 334.701 376.443 335.294C375.088 335.886 373.31 335.886 371.278 335.294C369.162 334.616 367.637 333.685 366.791 332.33C365.859 330.975 365.69 329.536 366.198 327.843L369.5 328.859C369.331 329.621 369.416 330.213 369.585 330.721C369.924 331.568 370.77 332.161 372.125 332.584C372.972 332.838 373.564 332.923 374.157 332.923C375.173 332.838 375.85 332.415 376.104 331.483C376.274 330.975 376.189 330.467 375.766 330.044C375.342 329.621 374.75 329.113 373.818 328.605L372.21 327.758C370.601 326.827 369.585 326.065 369.077 325.472C368.23 324.371 368.061 323.101 368.484 321.492C368.908 320.053 369.839 319.037 371.194 318.36C372.548 317.682 374.157 317.682 376.274 318.36C377.967 318.868 379.322 319.799 380.253 321.069C381.185 322.339 381.439 323.863 380.931 325.556L377.713 324.54C377.967 323.524 377.798 322.678 377.036 322.085C376.613 321.662 375.935 321.323 375.173 321.069C374.157 320.646 373.395 320.646 372.802 320.815ZM357.392 313.533L353.159 329.79L356.546 330.637L360.779 314.38L357.392 313.533ZM336.818 316.412L340.543 317.174C341.22 317.343 341.898 317.343 342.236 317.259C342.914 317.089 343.422 316.497 343.591 315.65C343.761 314.634 343.591 313.957 343.083 313.449C342.744 313.195 342.236 312.941 341.559 312.856L337.749 312.009L336.818 316.412ZM339.527 319.884L336.14 319.206L334.786 325.641L331.399 324.879L334.87 308.453L342.745 310.147C343.93 310.401 344.692 310.739 345.285 311.163C345.793 311.586 346.301 312.009 346.639 312.602C346.893 313.11 347.063 313.618 347.147 314.211C347.232 314.719 347.232 315.311 347.063 315.989C346.893 316.751 346.47 317.513 345.962 318.19C345.454 318.868 344.607 319.291 343.676 319.376C344.353 319.799 344.861 320.392 345.031 320.984C345.2 321.577 345.2 322.508 344.946 323.609L344.692 324.71C344.523 325.472 344.438 325.98 344.438 326.234C344.438 326.657 344.607 326.996 344.861 327.25L344.777 327.673L341.051 326.827C341.051 326.403 340.966 326.149 341.051 325.895C341.051 325.387 341.136 324.879 341.136 324.456L341.474 322.932C341.644 321.916 341.644 321.154 341.39 320.73C341.136 320.392 340.543 320.138 339.527 319.884ZM319.46 313.025C319.037 313.195 318.529 313.195 317.767 313.025L314.041 312.517L314.719 308.03L318.529 308.622C319.291 308.707 319.799 308.876 320.138 309.13C320.73 309.554 320.9 310.316 320.815 311.332C320.561 312.263 320.138 312.856 319.46 313.025ZM322.762 322.847C322.508 322.593 322.339 322.254 322.254 321.831C322.254 321.577 322.254 321.069 322.424 320.307L322.593 319.206C322.762 318.021 322.762 317.174 322.508 316.497C322.254 315.904 321.831 315.396 321.069 314.973C322 314.803 322.847 314.38 323.27 313.703C323.778 313.025 324.117 312.263 324.202 311.417C324.286 310.739 324.286 310.147 324.117 309.639C324.032 309.13 323.778 308.622 323.524 308.114C323.186 307.522 322.678 307.098 322.17 306.675C321.577 306.336 320.73 305.998 319.63 305.828L311.671 304.643L309.13 321.323L312.517 321.831L313.533 315.311L316.92 315.819C317.852 315.904 318.529 316.243 318.783 316.581C319.122 317.005 319.206 317.767 319.037 318.783L318.783 320.392C318.698 320.815 318.698 321.323 318.698 321.831C318.698 322 318.698 322.339 318.783 322.762L322.593 323.355L322.762 322.847ZM298.039 311.417C298.208 309.554 297.954 308.03 297.192 306.929C296.515 305.913 295.414 305.236 294.059 305.151C292.704 305.066 291.519 305.405 290.588 306.336C289.656 307.268 289.148 308.707 288.979 310.57C288.81 312.433 289.064 313.872 289.826 315.057C290.588 316.158 291.604 316.751 292.958 316.835C294.313 316.92 295.414 316.497 296.345 315.65C297.361 314.719 297.869 313.279 298.039 311.417ZM301.595 311.755C301.341 314.719 300.24 317.005 298.462 318.444C297.107 319.63 295.16 320.138 292.789 319.884C290.418 319.63 288.64 318.868 287.455 317.428C285.931 315.65 285.254 313.279 285.508 310.316C285.762 307.268 286.862 304.982 288.64 303.627C290.08 302.442 291.942 301.934 294.313 302.188C296.684 302.442 298.462 303.204 299.647 304.643C301.256 306.336 301.849 308.707 301.595 311.755ZM263.917 306.421C263.917 306.082 263.917 305.574 263.917 305.066C263.917 304.474 263.917 304.05 263.917 303.712L266.626 317.936L270.013 318.021L273.654 304.05C273.654 304.304 273.654 304.812 273.569 305.405C273.484 305.998 273.484 306.421 273.484 306.76L273.146 318.106L276.448 318.19L276.956 301.341L271.96 301.172L268.489 314.295L265.864 301.002L260.784 300.833L260.276 317.597L263.493 317.682L263.917 306.421ZM230.133 309.639L233.266 309.469C234.028 309.469 234.621 309.215 235.044 308.792C235.468 308.368 235.637 307.691 235.552 306.844C235.467 305.998 235.213 305.32 234.79 304.982C234.367 304.643 233.689 304.474 232.927 304.558L229.795 304.728L230.133 309.639ZM230.303 312.602L230.641 318.614L227.085 318.868L226.069 302.103L233.266 301.68C234.959 301.595 236.23 301.934 237.33 302.696C238.346 303.542 238.939 304.812 239.024 306.675C239.108 308.707 238.77 310.062 237.838 310.993C236.907 311.84 235.552 312.348 233.689 312.433L230.303 312.602ZM217.856 319.63L216.163 302.95L212.691 303.288L214.385 320.053L217.856 319.63ZM206.002 317.852L206.426 320.815L194.657 322.508L192.286 305.913L195.757 305.405L197.705 319.037L206.002 317.852ZM179.162 308.199L182.295 324.794L185.766 324.117L182.718 307.522L179.162 308.199ZM173.489 326.488L170.018 327.335L168.324 320.053L162.059 321.492L163.752 328.774L160.28 329.536L156.47 313.195L159.942 312.348L161.381 318.614L167.647 317.174L166.207 310.909L169.679 310.062L173.489 326.488ZM145.463 323.694C145.125 324.202 144.617 324.54 143.854 324.794L140.891 325.641L139.536 320.9L142.5 319.968C143.262 319.799 143.854 319.799 144.447 319.968C144.955 320.222 145.379 320.73 145.633 321.577C145.802 322.508 145.717 323.186 145.463 323.694ZM146.395 317.174C145.209 316.581 143.77 316.581 142.246 317.005L135.303 319.037L140.044 335.124L143.431 334.108L141.738 328.351L145.04 327.335C146.818 326.827 148.003 325.98 148.681 324.964C149.358 323.948 149.443 322.424 148.935 320.476C148.427 318.952 147.495 317.767 146.395 317.174ZM363.319 352.228L371.363 354.598L370.516 357.477L359.086 354.09L363.827 338.003L367.214 339.019L363.319 352.228ZM345.369 344.099L349.01 338.172L349.518 345.115L345.369 344.099ZM347.994 333.939L338.257 348.841L341.898 349.687L343.845 346.639L349.857 348.079L350.111 351.635L353.836 352.566L351.974 334.87L347.994 333.939ZM332.669 330.637L335.886 331.229L332.838 347.74L329.367 347.147L324.879 334.277L322.678 345.962L319.46 345.369L322.508 328.774L326.065 329.451L330.383 342.152L332.669 330.637ZM309.3 339.612C308.368 340.543 307.268 340.882 305.828 340.712C304.474 340.543 303.458 339.866 302.78 338.765C302.103 337.664 301.849 336.14 302.103 334.277C302.357 332.415 302.95 330.975 303.881 330.129C304.812 329.197 305.913 328.859 307.352 329.028C308.707 329.197 309.723 329.875 310.401 330.975C311.078 332.161 311.332 333.6 311.078 335.463C310.824 337.326 310.231 338.765 309.3 339.612ZM307.776 326.149C305.405 325.81 303.458 326.234 302.103 327.419C300.24 328.689 299.055 330.891 298.716 333.939C298.293 336.902 298.885 339.358 300.409 341.136C301.51 342.575 303.288 343.507 305.574 343.761C307.945 344.015 309.808 343.676 311.247 342.49C313.11 341.136 314.211 338.934 314.634 335.971C315.057 332.923 314.465 330.552 313.025 328.774C311.84 327.25 310.147 326.403 307.776 326.149ZM289.402 324.71L292.958 324.964L291.519 341.728L287.963 341.39L289.402 324.71ZM269.928 326.488L274.924 326.742L274.246 340.628L277.718 340.797L278.395 326.911L283.475 327.165L283.645 324.286L270.098 323.609L269.928 326.488ZM260.953 333.854L258.921 327.25L256.72 333.854H260.953ZM260.953 323.355L266.795 340.204H262.985L261.885 336.733H255.704L254.518 340.204H250.793L256.889 323.44L260.953 323.355ZM241.31 323.609L241.818 335.209L234.79 323.863L231.149 324.032L231.911 340.797L235.213 340.628L234.621 328.774L241.902 340.289L245.374 340.12L244.612 323.355L241.31 323.609ZM220.65 330.213C220.566 329.197 220.142 328.605 219.465 328.266C219.041 328.097 218.533 328.097 217.856 328.097L213.961 328.435L214.385 332.923L218.11 332.499C218.872 332.415 219.38 332.33 219.719 332.076C220.481 331.822 220.735 331.145 220.65 330.213ZM225.476 340.882V341.305L221.666 341.644C221.582 341.305 221.412 340.966 221.328 340.797C221.243 340.289 221.074 339.866 221.074 339.358L220.904 337.749C220.82 336.733 220.566 335.971 220.142 335.717C219.804 335.378 219.126 335.294 218.11 335.378L214.723 335.717L215.401 342.236L212.014 342.575L210.405 325.895L218.364 325.133C219.55 325.048 220.396 325.133 221.074 325.302C221.751 325.556 222.259 325.895 222.767 326.319C223.19 326.742 223.444 327.165 223.698 327.673C223.952 328.181 224.122 328.774 224.206 329.451C224.291 330.213 224.122 331.06 223.783 331.822C223.444 332.669 222.852 333.261 221.92 333.685C222.682 333.939 223.275 334.277 223.698 334.87C224.037 335.378 224.291 336.225 224.46 337.41L224.545 338.511C224.63 339.273 224.714 339.781 224.799 340.035C224.884 340.458 225.138 340.712 225.476 340.882ZM196.265 341.813L195.588 337.495L203.547 336.31L203.124 333.431L195.165 334.616L194.657 331.145L203.293 329.875L202.87 326.911L190.846 328.689L193.386 345.285L205.833 343.422L205.41 340.458L196.265 341.813ZM184.919 332.669L180.009 333.685L182.718 347.317L179.247 347.994L176.537 334.362L171.626 335.378L171.034 332.499L184.327 329.79L184.919 332.669ZM161.551 334.701L164.429 345.962L155.2 336.31L151.644 337.241L155.793 353.498L159.01 352.736L156.047 341.22L165.53 351.127L168.917 350.28L164.768 333.939L161.551 334.701ZM144.447 339.273L149.189 355.445L145.802 356.461L140.976 340.289L144.447 339.273ZM232.081 189.746C235.976 187.714 236.822 184.242 238.092 163.159C239.193 145.971 235.129 139.706 233.351 137.758C232.25 136.573 231.065 135.98 229.964 135.98C227.001 136.15 226.831 139.452 226.831 142.5C226.831 146.225 226.408 177.468 226.069 184.75C225.9 188.306 226.323 190.169 227.339 190.846C228.44 191.608 230.218 190.762 232.081 189.746ZM227.17 198.975L227.255 198.551C227.424 197.197 227.509 195.757 229.287 195.08L229.71 194.911C242.41 190.508 249.353 179.162 249.353 162.905C249.353 137.674 235.044 132.509 231.234 132.509C228.609 132.509 223.868 134.371 222.174 139.367C221.328 141.06 219.465 141.738 217.602 142.33L217.433 142.415C215.57 143.177 214.639 143.6 214.639 146.649C214.639 147.241 214.723 148.003 214.723 148.85C215.062 152.66 215.316 160.365 215.316 169.679C215.316 191.1 214.131 220.904 210.829 230.726C210.744 230.895 210.574 231.403 210.574 231.911C210.574 232.165 210.659 232.419 210.829 232.589C211.167 232.843 211.675 232.758 212.437 232.25C215.147 230.387 224.46 222.682 227.17 198.975ZM280.173 195.503C280.343 197.62 286.693 223.868 299.224 232.165C299.139 232.165 299.309 232.25 299.309 232.25C299.817 232.758 300.325 233.266 300.663 233.012C300.917 232.843 301.002 232.504 300.494 231.149C289.148 195.757 290.503 149.443 291.942 139.452L292.027 138.944C292.196 138.012 292.366 137.42 291.942 137.25C291.604 137.081 291.18 137.335 289.995 139.028C286.439 144.024 277.379 167.477 274.331 178.485C274.246 178.654 274.077 179.077 273.992 179.162C273.908 179.077 273.823 178.993 273.738 178.485C273.654 178.231 265.102 149.104 259.09 140.298L258.836 139.79C258.159 138.774 257.905 138.351 257.651 138.52C257.397 138.605 257.312 138.944 257.566 140.044C261.377 159.434 255.704 203.462 243.003 228.948C242.241 230.049 241.902 230.641 242.241 230.98C242.495 231.149 242.834 231.234 245.035 229.541C254.18 223.36 257.905 211.337 260.869 201.684L262.393 196.858C262.393 196.858 262.477 196.604 262.562 196.519C262.647 196.604 262.816 196.858 262.985 197.62C263.155 198.213 264.425 202.954 265.779 208.458C267.811 216.332 270.352 226.069 270.775 227.509C271.198 228.948 271.368 229.202 271.622 229.202C271.876 229.117 271.96 228.948 272.045 228.355L272.299 227.509C272.468 227.001 273.061 224.037 273.992 219.888C275.94 211.083 278.819 197.789 279.835 194.403C279.835 194.403 279.919 194.318 279.919 194.233C279.835 194.403 280.089 194.572 280.173 195.503ZM324.286 188.476C324.286 233.351 293.89 269.928 256.55 270.013C219.126 270.013 188.73 233.435 188.73 188.476C188.73 143.516 219.126 107.023 256.55 107.023C293.89 106.938 324.286 143.516 324.286 188.476ZM252.74 22.7763C252.74 20.9982 254.18 19.5588 256.042 19.5588C257.82 19.5588 259.26 20.9982 259.26 22.7763C259.26 24.5543 257.82 25.9937 256.042 25.9937C254.18 25.9937 252.74 24.5543 252.74 22.7763ZM263.155 22.7763C263.155 18.8814 259.937 15.5793 256.042 15.5793C252.063 15.5793 248.845 18.7968 248.845 22.7763C248.845 26.7557 252.063 29.9732 256.042 29.9732C259.937 29.8885 263.155 26.6711 263.155 22.7763ZM117.522 55.7976C119.469 55.6283 122.264 55.4589 123.28 55.4589C124.296 55.4589 125.989 55.4589 125.142 58.1683C124.296 60.8778 123.957 62.0632 121.163 60.9625C118.369 59.8618 117.183 58.5917 116.252 58.253C115.405 57.8297 113.458 56.3056 117.522 55.7976ZM387.874 45.0445C385.672 43.0971 380.846 43.0124 379.237 43.5204C378.729 43.5204 377.459 44.2825 377.459 45.2985C377.459 46.3145 379.576 48.2619 380.846 49.1087C382.031 49.9553 384.318 50.04 385.588 49.532C386.858 49.024 387.789 48.6853 389.398 48.3466C391.091 47.9233 390.752 47.0766 390.329 46.8226C389.906 46.3992 388.72 45.8065 387.874 45.0445ZM431.479 300.409C431.394 300.409 431.479 300.409 431.479 300.409V300.409ZM508.105 120.994C508.105 121.248 507.936 122.01 506.92 123.788V123.872C505.819 125.904 505.311 127.937 505.311 129.969C505.311 132.085 505.904 133.948 507.174 135.387C507.428 135.726 507.682 136.065 507.682 136.488C507.682 136.573 507.682 136.573 507.597 136.658C507.428 137.081 506.835 137.843 505.311 138.351C502.771 139.198 500.993 138.436 499.723 137.928L499.469 137.843C499.299 137.758 499.13 137.758 498.961 137.674C491.764 134.879 494.389 135.557 493.373 142.415C493.203 143.346 493.119 144.278 492.949 145.294C492.357 150.035 490.579 157.571 489.647 159.772L489.054 161.974C488.97 162.059 488.97 162.228 488.97 162.397C488.377 161.974 487.53 161.212 486.176 159.772L484.736 158.333C478.386 151.729 472.459 144.786 472.459 138.436C472.459 135.98 473.306 133.609 475.423 131.323C476.862 130.223 477.624 129.037 477.624 127.767C477.624 127.598 477.624 127.598 477.624 127.513C477.455 125.312 475.169 124.126 473.475 123.364L472.713 123.026C471.274 122.179 461.621 118.707 453.408 122.687C447.735 125.481 444.095 131.069 442.74 139.367V139.536C441.978 145.294 440.284 156.978 453.747 168.663C453.07 170.018 452.562 171.372 452.308 172.896C452.223 173.658 451.8 174.759 451.461 176.029C451.038 177.384 450.614 178.823 450.36 180.178C446.381 174.166 441.046 165.107 439.353 161.974C434.612 153.084 432.495 138.69 437.914 128.275C440.538 123.11 444.772 119.3 450.36 116.845C453.493 115.659 458.997 113.204 467.294 115.998C470.173 117.183 473.56 118.538 476.269 118.877C479.402 119.3 482.874 118.369 485.922 117.522C487.869 117.014 489.986 116.506 491.086 116.591C492.695 116.845 495.743 118.03 498.199 118.961C500.146 119.724 501.67 120.401 502.686 120.57C503.279 120.74 504.041 120.655 504.972 120.655C505.65 120.655 507.597 120.57 508.105 120.994ZM501.332 154.354C498.283 161.043 496.844 166.715 496.759 171.034C496.759 173.32 498.791 176.452 500.57 177.13C500.908 177.299 500.908 177.638 500.485 177.892C500.231 178.061 499.13 178.654 499.13 178.654C497.86 179.416 495.235 180.347 493.457 180.517C492.018 180.686 490.748 180.263 489.647 179.162C486.43 176.283 484.821 169.51 484.313 163.413C487.022 166.123 488.716 166.969 490.324 166.461C492.272 165.953 492.526 163.921 492.865 162.482L493.203 161.127C494.389 158.418 496.167 150.459 496.759 145.633C496.929 144.278 497.183 141.992 497.606 141.23C497.691 141.23 497.775 141.314 497.86 141.314L498.114 141.399C498.453 141.568 498.961 141.822 499.469 141.992C500.316 143.685 501.84 147.749 501.84 151.136C501.924 152.406 501.755 153.422 501.332 154.354ZM455.102 177.045C455.525 175.606 455.694 174.59 456.033 173.32C456.71 170.949 457.896 168.409 461.198 164.683C461.283 164.599 461.283 164.599 461.367 164.599C461.452 164.853 461.621 165.699 461.621 165.699L462.045 167.139C462.722 169.34 463.653 172.304 464.246 173.912C466.278 179.331 465.516 180.009 471.612 177.384L473.221 176.706C473.39 176.622 473.56 176.537 473.644 176.452C473.729 176.876 473.814 177.469 473.814 177.723V177.977C473.898 179.416 476.269 188.306 476.777 190.423C478.725 197.959 476.693 197.451 482.958 194.911C487.361 193.132 489.816 193.641 490.07 193.895C491.595 196.435 483.974 208.712 480.587 211.76C479.063 213.115 476.015 218.11 474.83 220.82L474.661 221.243C473.475 223.952 471.612 228.44 468.988 231.573C457.557 245.205 444.603 239.786 439.014 237.5L438.591 237.33C439.692 234.705 440.284 231.911 440.538 229.202C443.248 231.573 447.312 233.266 452.562 233.266C462.807 233.266 470.512 223.021 470.512 213.877C470.512 204.648 462.976 199.737 455.948 199.059C452.054 198.721 448.921 199.821 447.058 200.837C447.058 200.499 446.973 199.821 446.973 198.975C446.973 196.096 447.481 191.185 450.953 189.83C451.461 189.661 452.392 189.322 452.9 189.153C458.827 187.629 458.573 187.544 454.678 184.665C454.424 184.496 454.255 184.411 454.086 184.242C454.001 184.157 454.001 184.157 453.916 184.073C453.747 183.903 453.747 183.565 453.747 183.226C453.747 181.617 454.678 178.4 455.102 177.045ZM445.957 252.994L446.973 253.756C449.175 255.45 453.832 258.836 453.493 262.139C453.239 264.594 453.154 275.178 453.154 275.347C453.154 276.533 453.662 279.073 454.424 283.052C454.932 285.592 455.44 288.132 455.61 289.402C455.864 292.196 454.932 301.764 453.493 304.474C452.9 305.659 451.63 305.913 450.953 306.082C449.598 306.252 448.413 305.828 448.074 305.49L447.566 304.982C445.365 298.716 444.433 302.018 442.317 305.574L441.47 306.167C439.268 307.522 437.236 305.49 436.644 304.812C436.136 304.22 435.882 303.712 435.882 303.204C435.882 302.95 435.882 302.78 435.882 302.611H435.966C436.982 297.023 436.728 297.531 432.325 299.986C432.071 300.071 431.817 300.24 431.648 300.409C431.14 300.663 429.277 301.341 428.939 301.087C427.923 300.325 427.499 299.732 427.499 297.785C427.499 295.245 431.987 289.402 436.813 286.524C439.607 284.915 442.825 281.443 442.825 274.585C442.825 273.992 442.825 273.315 442.74 272.553C442.401 268.235 439.184 264.001 436.644 263.239C434.527 262.562 428.939 261.631 425.552 261.377C424.197 261.292 416.831 260.361 406.84 252.656C398.373 246.136 393.547 233.689 392.531 229.795C392.361 229.287 392.361 228.525 392.361 227.678C392.361 222.682 394.647 213.369 395.917 210.913C397.272 208.458 397.949 205.24 397.949 202.107C397.949 201.769 397.949 201.43 397.949 201.091C400.405 202.87 402.86 205.071 404.469 206.68C411.581 213.623 410.311 210.405 406.67 205.325C404.977 202.954 402.268 199.229 398.881 196.943C395.917 194.826 390.329 191.947 384.318 190.677C378.475 189.407 373.818 187.629 371.532 185.682C372.04 185.427 372.464 185.089 372.802 184.919C373.056 184.75 376.189 182.718 379.068 180.601C380.084 182.041 381.693 183.48 383.471 183.903C385.926 184.496 390.583 183.649 392.615 180.771C393.631 179.247 394.393 177.469 394.986 176.029C394.986 176.029 395.833 174.166 395.833 174.082C396.679 173.066 402.437 168.917 403.792 168.324C405.654 167.477 405.146 167.139 403.368 167.393C401.252 167.731 393.801 169.764 392.446 172.05L391.345 174.505C390.752 175.86 390.16 177.384 389.313 178.485C388.382 179.755 385.503 180.347 384.402 180.093C383.555 179.924 382.624 178.908 382.116 178.146C382.709 177.553 383.217 177.13 383.471 176.791C383.979 175.86 383.725 174.759 382.793 174.166C381.947 173.658 380.677 173.912 380.084 174.844V174.759C379.407 175.521 374.75 178.993 370.601 181.702C367.722 183.565 367.129 183.903 362.727 186.02L360.525 187.121L359.424 187.544C357.562 188.306 354.768 189.322 354.344 194.233C353.921 198.382 352.397 201.345 351.127 201.43C349.857 201.515 348.079 200.583 347.317 199.567C347.317 199.567 346.724 198.89 346.555 198.467C345.285 195.08 344.692 195.08 342.575 197.62C341.898 198.382 339.527 197.62 338.68 197.366C337.918 197.027 336.733 196.35 337.072 194.995C338.426 188.137 338.426 187.798 333.346 189.238C332.584 189.322 332.076 188.899 331.653 188.052C331.229 187.375 331.822 185.343 332.838 182.379L332.923 182.125C333.685 179.755 336.056 177.638 338.342 175.606C339.358 174.59 340.882 173.32 341.898 172.304C344.184 170.356 347.401 169.51 351.296 168.239C355.022 167.054 360.441 164.429 362.642 162.228C364.251 160.619 370.94 155.708 375.427 153.676C377.459 152.745 377.29 152.067 373.988 152.914C369.67 154.608 362.134 157.148 359.848 159.434C359.678 159.603 359.424 159.857 359.17 160.111C355.191 146.818 358.578 141.738 360.779 138.351L360.949 138.097C361.033 138.097 361.203 138.097 361.372 138.097L362.388 138.012C362.388 138.012 364.335 137.928 366.029 137.843C365.944 139.452 366.706 140.468 367.299 140.976C369.416 143.092 373.649 142.669 375.258 141.907C375.342 141.822 386.35 137.25 388.466 135.811C389.228 135.303 390.075 134.879 390.668 134.541C390.922 136.996 391.514 141.145 392.192 144.193C393.039 147.749 394.647 149.104 395.917 149.612C397.272 150.205 398.796 150.035 400.151 149.273L400.574 149.104C402.098 148.173 405.316 147.072 408.448 140.383C408.787 139.79 409.041 139.282 409.211 138.859C409.295 139.028 409.295 139.198 409.38 139.367C409.465 139.621 409.973 140.552 409.973 140.637L410.65 141.992C415.053 151.051 423.35 167.816 424.366 185.343L425.129 192.709C426.653 202.531 429.785 205.494 431.987 207.611C432.495 208.119 432.918 208.542 433.257 208.966C434.019 210.151 435.797 214.639 436.559 220.312C436.559 220.396 436.559 220.481 436.559 220.481C436.559 221.328 436.644 222.259 436.898 223.106C437.152 227.001 436.898 231.149 435.543 235.044C434.696 233.689 433.85 232.504 433.342 231.657C428.769 224.714 419.54 218.703 430.039 233.774C433.087 238.431 439.099 247.491 445.957 252.994ZM458.065 302.611H460.013H504.549C501.924 307.098 492.272 323.778 492.272 323.778C492.272 323.778 501.501 341.728 503.787 346.131H389.906L399.135 314.549L397.526 313.872C392.276 311.925 386.858 310.062 381.354 308.368C384.826 305.574 388.382 302.78 388.636 302.611H424.705C425.129 303.204 425.721 303.796 426.483 304.389C427.923 305.49 430.378 304.982 432.071 304.389C432.325 305.405 432.749 306.336 433.511 307.352C435.628 309.893 439.522 311.925 443.417 309.554C443.417 309.554 444.349 308.876 445.111 308.368C446.465 309.723 448.921 310.401 451.292 310.062C453.662 309.723 455.694 308.453 456.795 306.506C457.303 305.405 457.726 304.05 458.065 302.611ZM379.153 368.738C341.39 355.53 297.023 347.909 256.72 347.909H256.55C216.163 347.909 171.88 355.53 134.117 368.823L118.877 316.92C161.042 301.595 210.913 292.874 256.466 292.874H256.72C302.272 292.874 352.228 301.68 394.478 316.92L379.153 368.738ZM7.53564 346.131C9.82173 341.644 18.9661 323.778 18.9661 323.778C18.9661 323.778 9.31371 307.098 6.77361 302.611H44.7905C44.7905 302.78 44.7058 302.95 44.7058 303.119C44.7058 303.966 44.8751 304.812 45.3832 305.574C46.1452 306.929 47.4999 307.776 49.532 308.114C51.3947 308.538 54.8662 308.622 56.2209 308.538H57.0676C61.7245 308.368 66.8894 308.199 68.4981 302.611H71.7156H124.38C124.634 302.78 128.36 305.574 132.085 308.284C126.497 310.062 121.078 311.925 115.744 313.872L114.135 314.465L123.449 346.131H7.53564ZM43.6051 293.212L39.9643 293.043C39.4563 292.958 39.2869 292.874 39.2869 292.874C38.9482 292.281 39.4563 289.995 39.7949 288.81C40.049 287.624 40.2183 286.185 40.303 284.999C40.3876 283.983 40.4723 282.544 40.811 281.189C41.4883 278.141 42.335 274.162 42.335 267.896C42.335 266.287 42.2504 264.425 42.1657 262.477C41.9964 260.784 41.9964 259.429 41.9964 258.328C41.9964 254.688 42.5044 253.672 42.7584 253.418C42.9277 253.248 43.3511 253.248 44.1131 253.164L45.3832 253.079L46.5686 252.91C50.548 252.571 59.9464 251.639 65.3653 243.003C69.1755 236.822 70.1915 230.811 71.0382 215.655C71.8002 201.515 82.7227 189.746 87.0408 187.206L89.7503 185.766C93.2218 183.819 97.5399 181.025 101.181 178.908C102.197 178.146 104.229 177.553 105.245 174.844C105.922 172.812 106.854 170.78 107.954 168.409C109.394 165.191 111.002 161.551 112.357 156.64C114.813 147.58 113.373 138.605 110.833 131.323C111.341 131.493 111.849 131.577 112.357 131.577C114.813 131.831 116.591 130.985 117.607 129.037C118.707 130.053 119.893 130.561 122.179 131.493C126.751 133.186 132.424 134.625 135.133 132.17C135.303 132.339 135.387 132.509 135.557 132.678C137.166 134.795 144.108 139.452 155.2 146.818C162.905 151.898 170.78 157.148 174.336 160.111C176.283 161.72 176.96 162.482 176.96 164.599C176.96 165.107 176.876 165.784 176.791 166.546C176.537 168.155 176.114 170.441 175.606 172.896C174.759 176.96 174.336 181.617 174.082 185.597C173.743 191.862 174.505 196.435 174.505 198.975L174.674 201.007C174.844 201.938 174.844 202.616 174.844 203.293C174.844 204.732 174.505 205.494 173.489 206.087C171.372 207.272 166.207 209.05 162.482 210.32C159.857 211.252 158.333 211.76 157.656 212.099C156.978 212.437 155.793 212.691 155.031 212.183C154.184 211.591 153.93 210.151 153.93 209.05L153.761 206.256C153.507 202.361 153.507 202.192 156.386 201.091C157.232 200.837 157.486 200.922 158.333 201.176C159.349 201.515 160.704 202.023 162.821 201.176C166.546 199.821 167.477 197.959 169.171 194.911C170.61 192.286 169.848 189.068 170.187 183.226L170.441 179.162C170.695 176.198 172.304 172.134 164.599 169.594C151.475 165.361 143.854 163.159 141.23 162.736C137.674 162.143 133.525 160.534 132.847 159.772C132.085 159.01 130.9 159.01 130.138 159.772C129.376 160.534 129.376 161.805 130.138 162.567C131.916 164.345 137.335 166.038 140.637 166.631C142.33 166.885 147.58 168.409 163.498 173.404C163.837 173.489 164.26 173.658 164.599 173.912C164.006 175.182 163.329 176.537 162.651 177.807C159.857 183.141 153.168 191.693 150.035 194.403C144.87 198.805 138.69 202.785 131.662 203.378C118.623 204.394 108.716 211.252 102.112 223.614C99.6567 228.355 97.794 232.927 96.2699 236.653C94.7458 240.463 93.3911 243.765 92.2057 245.289C89.6656 248.337 82.892 251.809 79.5052 250.369C74.933 248.422 72.3929 248.253 69.5988 249.946C67.9901 250.793 68.5828 252.063 65.5346 251.809C64.4339 251.724 60.5391 251.47 60.4544 252.571C60.3698 253.672 63.0792 254.688 64.1799 254.772C70.1915 255.28 69.5141 254.518 71.5462 253.418C72.6469 252.825 73.4936 252.317 76.8804 253.672C76.4571 256.296 74.0863 258.159 72.0542 258.921C69.1755 260.106 64.5186 259.598 61.4705 259.175C57.6603 258.752 52.1568 259.852 51.6488 262.985L51.3101 264.594C50.9714 266.203 50.4634 268.32 50.1247 270.69C49.7013 274.077 50.548 280.512 52.5801 282.544C53.4268 283.391 55.7129 285.338 57.999 287.201L61.6398 290.249L62.3172 290.757C63.9259 292.112 65.6193 293.636 65.5346 299.393C65.3653 304.389 63.4179 304.728 57.4063 304.897H56.5596C52.6648 304.982 50.294 303.966 49.786 303.373C48.6006 302.611 50.548 300.071 50.8021 299.309C50.9714 298.885 51.0561 298.462 51.0561 298.123C52.1568 293.551 55.1202 293.721 46.8226 293.636C45.5525 293.297 44.6211 293.212 43.6051 293.212ZM40.811 217.179C36.7468 208.966 40.303 196.435 50.2094 183.649L52.9188 180.093L54.1042 178.654C56.1363 176.114 59.4384 170.78 59.4384 166.123C59.4384 165.361 59.3537 164.599 59.0997 163.921C58.507 161.805 56.983 160.196 54.6122 159.434C53.4268 159.01 53.0035 158.756 52.6648 158.502C53.0881 157.91 54.2735 157.148 54.8662 156.724L55.7976 156.047C57.3216 154.862 59.9464 154.354 61.9785 154.692L62.9945 154.946C64.0953 155.285 65.704 155.793 67.3127 154.862C69.0061 153.93 70.1068 151.644 71.0382 147.411C72.2236 141.992 71.2922 133.863 66.8047 127.428C63.5026 122.602 55.4589 115.998 48.516 117.183C45.9759 117.607 42.5891 119.131 40.9803 124.888C40.557 126.328 40.2183 127.513 40.2183 129.037C40.2183 134.117 42.8431 139.536 45.3832 141.568C45.4678 141.653 45.5525 141.738 45.7219 141.822C45.4678 141.907 45.0445 141.992 44.9598 141.992C44.7905 141.992 44.2825 141.907 43.9438 141.907C41.573 141.568 33.9527 139.96 33.0213 145.971V146.395C33.0213 147.58 32.852 149.527 29.7192 154.946C28.1105 157.656 27.1791 158.756 26.6711 159.095C26.4171 158.502 26.1631 157.571 25.9937 157.148L25.7397 156.216C25.147 154.438 24.893 151.898 24.893 149.697C24.893 149.527 24.893 149.358 24.893 149.189C24.893 148.765 24.9777 147.495 25.2317 146.903C25.5704 146.225 25.909 145.294 25.909 144.532C25.909 143.854 25.655 143.262 24.9777 142.754C23.2843 141.484 21.7602 143.092 18.0347 145.548C14.9019 147.58 13.9706 147.58 12.1078 147.326C11.0071 147.157 9.22904 146.564 8.213 146.225C7.45097 145.971 6.94295 145.971 6.5196 145.802C9.31371 143.346 15.664 136.404 16.2567 133.863C16.3413 133.355 16.172 132.255 15.918 131.916C14.9019 130.307 13.2932 128.445 8.63635 126.328C11.9385 125.312 16.7647 123.618 18.9661 123.364C25.7397 122.518 30.1426 119.639 34.8841 116.929C39.1176 114.559 43.4357 112.019 49.786 110.579C57.6603 108.801 64.6033 113.119 73.155 125.142C76.5418 129.884 77.3885 135.895 77.3885 141.399C77.3885 149.019 75.3564 155.878 74.2557 158.079L73.7476 159.01C72.9009 160.534 71.9696 162.397 71.9696 164.26C71.9696 165.953 72.7316 167.731 75.1024 169.256C76.8804 170.526 77.8118 171.372 77.8118 172.558C77.8118 173.404 77.3885 174.42 76.5418 175.86L73.663 180.432C71.8002 183.311 70.0222 186.105 69.1755 187.968C69.0061 188.391 67.7361 190.338 67.6514 189.915C67.4821 189.153 67.3127 188.391 67.3127 188.391L66.6354 185.597C65.6193 179.501 64.6033 178.231 62.9945 178.061C62.1478 177.892 61.0471 178.231 60.3698 179.585L58.5917 182.549L56.8983 185.343L55.1202 187.629L53.2575 190.254C48.0926 197.197 40.3876 207.78 48.4313 217.771C53.4268 223.952 61.9785 222.09 66.466 220.65C66.2967 223.529 66.0427 225.9 65.7887 228.017C53.5115 227.678 44.1978 223.952 40.811 217.179ZM32.0053 163.921L30.0579 166.969C27.0944 171.88 24.7237 176.622 22.9456 180.178L22.1836 181.702C20.7442 184.75 20.4055 184.919 19.6435 184.665C19.6435 184.157 19.8975 183.226 20.0668 182.633C20.3208 181.533 20.6595 180.263 20.6595 178.993C20.6595 178.823 20.6595 178.654 20.6595 178.485C20.4055 175.352 17.0187 169.764 13.2085 163.921L12.7005 163.075C11.5998 161.381 11.3458 158.926 11.3458 156.47C11.3458 154.608 11.5151 152.66 11.6845 151.221V151.136C13.8012 151.305 16.3413 151.813 20.4902 148.935C20.4902 149.019 20.4902 149.189 20.4902 149.358C20.4902 152.067 21.1675 155.454 21.9296 157.486L22.0989 158.164C22.6069 160.026 23.4536 163.075 26.1631 163.498C28.5338 163.837 30.7352 161.889 33.614 157.063C37.2548 150.797 37.5935 148.257 37.5088 146.141V145.971L37.6782 145.802C37.7629 145.717 37.9322 145.717 38.2709 145.717C39.2869 151.136 35.1381 159.434 32.0053 163.921ZM108.462 125.735C107.023 122.856 105.584 120.401 104.229 118.623L104.144 118.538V118.453C103.975 118.199 103.721 118.03 103.552 117.776C95.9312 108.293 97.7093 111.934 96.7779 119.131C96.6932 119.639 96.6086 120.232 96.6086 120.824C96.5239 121.671 96.4392 122.602 96.2699 123.28C96.0159 124.296 95.7619 124.719 95.5925 124.804C95.4232 124.888 94.9152 124.973 93.3911 124.465C86.0248 122.264 84.1621 116.845 83.146 114.051L83.0614 113.881C82.8073 113.119 82.4687 112.357 82.2147 111.765C78.4892 102.197 79.5899 106.007 76.5418 109.478H76.6264C76.2878 109.817 76.0337 110.156 75.7797 110.41L75.5257 110.748C75.0177 111.256 74.8484 111.426 74.7637 111.426C74.679 111.341 74.5943 111.341 74.425 111.172C73.2396 109.986 70.5302 105.668 69.5141 103.128C69.2601 102.535 69.1755 101.689 69.1755 100.757C69.1755 98.6406 69.6835 95.9312 70.0222 94.1531L70.1915 93.2218L70.3608 92.6291C71.2075 89.4116 71.6309 87.7182 70.4455 86.5328C69.1755 85.2628 67.6514 85.7708 64.7726 86.5328L64.2646 86.7022C63.5872 86.8715 63.0792 86.9562 62.6559 87.1255C63.1639 84.3314 63.5872 81.4526 63.5872 78.7432C63.5872 73.7476 62.2325 69.5141 57.745 67.5667C56.983 67.2281 56.4749 66.974 56.0516 66.6354C64.4339 65.0266 72.9009 60.7084 79.4205 54.7815L81.0293 53.0881C83.0614 50.9714 85.6861 48.262 87.8875 47.7539C89.2423 47.4153 90.9357 48.0079 92.8831 49.4473C93.3911 49.786 94.4918 50.802 95.2539 51.3947C96.4392 52.4954 97.7093 53.5962 99.064 52.3261C99.2333 52.2414 100.334 51.0561 99.064 49.4473C96.6086 46.4839 95.2539 43.0124 95.6772 42.2504C95.6772 42.2504 96.4392 41.573 100.757 42.4197H100.588C104.06 43.2664 113.627 47.6693 108.378 43.2664C109.478 43.0124 110.664 42.5891 111.849 42.2504L113.543 41.9117C114.389 41.7424 115.321 41.7424 116.167 41.9117C118.538 42.2504 120.232 42.5044 121.502 42.8431L121.84 42.9277C121.84 42.9277 123.026 42.9277 123.449 42.9277C123.364 43.0971 123.28 43.4358 123.195 43.6898C123.026 43.9438 122.941 44.1978 122.856 44.4518C122.518 46.8226 127.767 51.3947 127.852 51.4794C128.783 52.3261 132.678 56.0516 136.658 60.0311C142.584 65.8733 149.273 72.3929 151.813 74.5944C155.37 77.5578 154.862 80.3519 154.354 81.1986C153.676 82.2993 152.491 83.2307 151.559 82.9767L150.374 82.4687C148.85 81.7913 146.649 80.7753 145.125 82.13C144.447 82.7227 144.108 83.5694 144.108 84.5007C144.108 85.6861 144.532 86.9562 145.04 88.3109C145.294 88.9883 145.379 89.4116 145.463 89.7503C144.786 90.851 142.33 90.9357 140.722 90.0043C139.875 89.4963 137.42 87.3795 135.641 85.8555L132.255 83.0614C128.868 80.4366 123.449 78.8279 120.655 78.4045C120.147 78.3198 119.131 77.8965 118.369 77.5578C117.776 77.3038 117.099 77.1345 116.591 76.8804C112.781 74.7637 111.849 69.6835 111.595 68.6674C111.341 67.5667 110.664 67.1434 110.494 68.5828C110.41 70.0222 109.563 74.3403 113.289 80.3519C113.881 81.5373 115.067 82.9767 116.675 84.9241L118.369 87.0408C121.248 90.851 125.481 96.5239 134.456 101.604L139.96 104.483C150.205 109.563 164.937 115.151 170.949 131.323C173.15 137.335 173.489 144.617 171.711 153.084C167.731 150.205 162.397 146.733 157.232 143.262C154.269 141.23 150.967 139.028 147.919 136.996L149.866 135.98C153.253 133.863 155.031 131.747 155.539 129.376C156.216 125.904 153.592 122.772 151.136 118.877C145.463 109.817 132.085 107.7 123.449 106.684L117.607 105.753C108.462 104.06 97.4553 99.6567 90.9357 93.8145C81.622 85.5168 82.892 69.6835 83.9081 64.942C84.0774 63.8412 83.9081 61.5552 83.0614 64.0106C81.7913 69.2601 77.4731 87.0408 88.3956 96.7779C95.5079 103.128 107.785 107.954 117.437 109.817L122.941 110.664C130.9 111.68 143.346 113.881 148.088 121.332C150.12 124.55 152.067 126.836 151.729 128.699C151.475 129.969 150.205 131.323 147.834 132.763L144.193 134.456C141.314 132.424 139.198 130.815 138.605 130.053C138.097 129.461 137.42 128.614 136.658 127.937C130.307 122.941 133.186 125.989 132.678 129.037C132.001 129.545 128.953 129.63 123.534 127.598C120.401 126.412 120.232 126.243 118.877 124.38C114.982 119.3 115.744 121.332 114.813 125.65C114.474 127.174 114.305 127.682 112.781 127.513C111.087 127.344 109.648 126.666 108.462 125.735ZM96.2699 38.1015H95.9312C94.2378 38.1862 93.0524 38.6942 92.2904 39.7949C92.2057 39.9643 92.1211 40.1336 92.0364 40.303C90.4277 39.2869 87.9722 37.5935 84.5854 34.7147C83.4 33.6987 82.8073 32.852 82.384 32.2593C83.8234 32.0053 86.5328 32.09 91.6977 34.0374H91.8671H91.9517C93.0524 34.2914 94.1531 34.4607 95.0845 34.5454L96.2699 38.1015ZM111.087 36.1541L111.002 36.2388L110.918 36.4081C110.664 37.0855 110.071 37.6782 109.224 38.3556L106.769 30.7352C107.446 30.0579 108.039 29.3805 108.716 28.6185L108.801 28.5338L108.886 28.4492C112.019 23.9616 114.135 22.1836 115.405 21.5909C115.405 21.7602 115.49 21.9296 115.49 22.1836C115.49 22.8609 115.405 23.7923 115.067 24.893C112.865 33.2753 111.087 36.1541 111.087 36.1541ZM80.4366 39.7103C77.0498 36.8315 75.2717 33.5294 75.6104 30.7352C75.7797 29.0418 76.8804 27.6871 78.5738 26.8404C81.9606 25.147 86.7868 25.4857 93.3064 27.7718C93.8991 28.0258 94.8305 28.1105 96.2699 28.1951H97.1166C97.1166 28.1951 95.5079 23.1996 95.1692 22.1836C96.0159 21.9296 98.81 20.9982 99.572 20.7442C99.9107 21.6755 101.519 26.7558 101.519 26.7558L102.197 26.1631C103.043 25.401 103.721 24.5543 104.229 23.7923C107.954 18.5428 111.765 15.4946 115.321 14.9019C117.183 14.5633 118.877 15.0713 119.978 16.3413C121.163 17.6961 121.84 19.7281 121.84 22.1836C121.84 23.5383 121.671 24.9777 121.332 26.4171C119.808 32.6827 118.284 36.2388 117.522 37.9322C117.183 37.8475 116.845 37.7629 116.506 37.6782C115.829 37.5935 115.151 37.5089 114.559 37.5935C114.389 37.5935 114.135 37.5935 114.051 37.6782C114.474 36.9162 116.252 33.614 118.284 25.655C118.538 24.385 118.707 23.1996 118.707 22.1836C118.707 20.5748 118.369 19.2201 117.691 18.5427C117.607 18.3734 117.099 17.9501 115.998 18.1194C113.204 18.5427 109.986 21.4215 106.346 26.6711C105.16 28.1105 104.229 29.0418 103.213 29.7192C103.636 30.9046 105.753 37.0008 105.753 37.0008C105.753 37.0008 106.176 38.3555 106.6 39.3716C106.515 39.3716 106.346 39.3716 106.261 39.3716C104.144 38.9482 102.366 38.6096 100.757 38.3556C100.588 37.9322 100.503 37.5089 100.503 37.5089L98.4713 30.8199H98.048C96.6932 30.9046 95.1692 30.7352 93.2218 30.3119H93.1371C87.1255 28.1951 82.7227 27.7718 80.0132 29.1265C79.1665 29.5499 78.6585 30.1425 78.5738 30.9046V31.2433C78.5738 33.0213 80.0979 35.4768 82.5533 37.5089C86.1942 40.557 88.8189 42.4197 90.597 43.5204C90.4277 43.6051 90.343 43.6051 90.1736 43.6051C89.1576 43.4358 88.2262 43.3511 87.2949 43.6051C86.9562 43.6898 86.6175 43.7744 86.2788 43.8591C84.1621 42.7584 82.384 41.319 80.4366 39.7103ZM199.991 283.899C198.467 283.983 196.689 284.237 194.741 284.576C190.677 285.169 185.173 286.1 183.226 284.576C182.972 284.322 182.549 283.899 182.549 282.713C181.787 271.283 188.814 263.155 192.794 259.006C204.14 273.738 218.957 284.576 235.722 289.487H237.415C229.964 289.826 222.344 290.503 214.808 291.265C214.385 290.842 213.877 290.334 213.792 290.334L213.453 289.995C211.675 288.217 206.68 283.475 199.991 283.899ZM169.34 291.688C170.356 291.688 171.372 291.519 172.304 290.842C173.574 290.08 174.336 288.725 174.59 286.947C175.436 281.697 171.118 272.045 167.985 270.267C171.288 257.566 178.654 250.539 183.819 245.628L183.988 245.459C185.936 249.099 188.052 252.486 190.423 255.704C186.105 260.107 177.638 269.336 178.569 282.883C178.654 284.83 179.416 286.439 180.686 287.54C183.903 290.249 190 289.318 195.249 288.471C197.112 288.132 198.805 287.878 200.16 287.794C202.954 287.624 206.764 290.08 209.304 291.858C197.874 293.213 186.359 295.075 175.013 297.277C173.574 296.43 171.796 295.245 170.78 293.975C170.272 293.382 169.764 292.62 169.34 291.688ZM138.944 216.078C141.399 215.57 144.617 215.57 146.395 218.788L148.257 222.09C149.866 224.884 151.644 228.017 151.813 229.202C152.321 232.081 144.193 240.717 139.198 243.426C138.012 244.189 130.646 248.337 129.799 249.438C129.291 250.115 128.191 251.809 128.191 253.841C128.191 254.349 128.275 254.772 128.36 255.28C128.868 257.143 130.477 258.752 133.101 259.937C139.96 263.07 144.701 264.679 148.342 265.187C151.729 265.695 155.454 267.473 158.672 270.182C160.958 272.045 162.821 272.976 164.26 273.4L166.207 273.908C167.477 275.093 170.78 281.528 170.78 285.508C170.78 285.846 170.78 286.185 170.695 286.439C170.61 286.862 170.441 287.54 170.102 287.709C169.425 288.132 167.731 287.794 166.292 287.37L164.853 287.032L163.667 286.778L161.974 286.524C158.502 286.1 155.962 285.592 155.708 283.645C155.624 282.629 155.454 281.697 155.285 280.935C153.592 274.077 153.846 277.041 150.882 278.141C150.628 278.226 150.459 278.226 150.289 278.311C148.765 278.734 147.326 278.48 142.669 275.94C140.468 274.754 138.944 273.4 137.42 272.13C135.811 270.69 134.117 269.251 131.747 268.235L126.497 266.203C123.449 265.102 120.232 263.917 117.776 262.647L117.353 262.393C114.982 261.123 111.68 259.344 111.172 257.058C110.918 255.788 111.426 254.264 112.781 252.571C117.437 246.475 118.284 246.559 118.792 246.051C119.554 245.713 122.094 243.511 121.502 241.648C120.994 240.124 119.385 238.431 114.051 239.278C108.378 240.209 104.652 238.6 100.757 236.822L100.249 236.568C101.689 233.097 103.298 229.202 105.414 225.222C106.684 222.682 108.124 220.481 109.732 218.533L110.833 217.348C118.03 219.042 132.678 217.517 138.944 216.078ZM165.615 192.794C164.091 195.588 163.667 196.435 161.297 197.281C160.365 197.62 159.942 197.451 159.18 197.197C158.248 196.858 156.894 196.435 154.946 197.197C149.358 199.229 149.527 202.192 149.781 206.256L149.866 208.881C149.951 210.744 150.374 212.183 150.882 213.199C151.136 213.623 151.813 214.554 152.829 215.231C154.862 216.586 157.317 216.163 159.01 215.401C159.603 215.062 161.466 214.469 163.498 213.792C166.207 212.861 169.255 211.845 171.796 210.829C173.828 222.005 177.299 232.504 182.041 241.902L181.109 242.834C175.606 248.083 167.816 255.45 164.26 269.082C163.413 268.658 162.397 268.066 161.212 267.049C157.317 263.832 153.084 261.885 148.935 261.207C144.786 260.615 139.198 258.244 134.795 256.296C133.271 255.619 132.424 254.857 132.17 254.18C131.916 253.418 132.424 252.402 133.101 251.555C133.779 250.623 137.166 249.015 141.145 246.898C145.209 244.697 156.894 234.705 155.878 228.525C155.624 226.662 154.184 224.122 151.813 220.058L149.951 216.84C147.665 212.691 143.346 210.998 138.097 212.183C133.186 213.284 121.417 214.639 114.22 213.792C119.046 209.812 124.888 207.526 131.577 207.018C139.536 206.426 146.479 202.023 152.237 197.027C155.624 194.064 162.736 185.173 165.784 179.331C165.953 179.077 166.038 178.823 166.207 178.485C166.207 178.908 166.207 179.416 166.123 179.924L166.038 181.109C165.869 183.988 166.8 190.508 165.615 192.794ZM64.3493 287.455L63.8412 286.947L60.1158 283.814C57.999 282.036 55.7129 280.089 54.9509 279.411C54.3582 278.734 53.5115 275.262 53.5115 272.214C53.5115 271.706 53.5115 271.198 53.5962 270.775C53.8502 268.573 54.3582 266.541 54.6969 265.017C54.6969 265.017 54.9509 264.086 55.0356 263.578C55.5436 263.155 57.745 262.393 60.6238 262.731C65.196 263.239 69.5988 263.578 73.0703 262.223C76.8804 260.699 79.5899 257.736 80.2672 254.349C85.7708 254.772 92.3751 250.539 94.8305 247.491C96.1852 245.882 97.3706 243.342 98.6407 240.124L99.064 240.294C103.298 242.241 107.785 244.189 114.559 243.003C115.151 242.918 115.575 242.918 115.998 242.834C114.813 243.596 113.204 245.205 109.563 250.031C107.87 252.232 107.023 254.264 107.023 256.296C107.023 256.804 107.108 257.312 107.192 257.736C108.039 261.8 112.357 264.086 115.405 265.695L115.829 265.949C118.538 267.388 121.84 268.658 125.058 269.759L130.053 271.706C131.747 272.468 133.101 273.569 134.625 274.924C136.234 276.363 138.012 277.887 140.637 279.242C145.379 281.697 148.003 282.713 151.051 281.951C151.051 281.951 151.221 281.867 151.39 281.867C151.559 282.544 151.644 283.56 151.729 283.983C152.406 289.064 157.825 289.741 161.381 290.249L162.99 290.418L164.768 290.842C165.53 292.958 166.461 294.991 167.816 296.43C167.816 296.43 169.086 297.446 170.102 298.208C158.756 300.663 147.495 303.458 136.658 306.76L125.65 298.462H124.973H73.2396H68.9214C68.9214 298.377 68.9214 298.293 68.9214 298.123C68.9214 291.35 66.2967 289.148 64.3493 287.455ZM366.198 203.547L365.351 203.124C363.658 202.362 361.372 201.345 358.832 202.362C356.63 203.208 354.852 205.41 353.328 208.966C349.433 218.025 349.772 227.17 354.175 233.435C355.784 235.891 357.731 237.838 359.424 239.616C361.711 242.072 363.658 244.189 364.335 246.39C364.589 247.321 364.42 247.745 364.166 248.083C363.235 249.269 360.356 250.115 356.8 250.115L353.667 250.031C349.687 249.861 344.353 249.692 339.188 250.539C336.648 247.406 334.023 244.866 331.737 242.834L330.637 241.733C336.564 229.795 340.628 216.163 342.236 201.769C342.829 201.684 343.422 201.599 343.845 201.43C344.099 201.769 344.269 202.023 344.269 202.023C345.793 203.886 348.756 205.579 351.55 205.325C355.106 204.986 357.816 199.483 358.239 194.572C358.408 192.116 359.17 191.862 360.864 191.185L362.219 190.592L364.42 189.576C367.553 188.052 363.912 189.746 367.807 187.714C367.807 187.714 367.891 187.714 367.891 187.798C371.363 191.608 379.068 193.725 383.386 194.572C387.196 195.334 390.752 196.858 393.462 198.297C393.885 199.567 393.97 201.176 393.97 202.7C389.906 203.632 376.104 206.934 366.198 203.547ZM388.636 230.726C388.72 230.98 388.805 231.319 388.89 231.573C388.212 232.165 387.535 232.758 386.942 233.266C383.809 234.705 379.068 231.403 376.782 229.71L376.528 229.541C371.532 225.646 366.875 224.799 374.242 231.742L374.496 231.911C376.443 233.266 380.169 236.314 384.064 237.161C381.269 242.749 384.233 247.745 385.334 249.692L385.757 250.369C386.18 251.301 386.942 251.978 387.535 252.571C388.89 253.926 389.567 254.603 388.636 256.804C387.366 259.937 379.576 259.853 376.697 259.853H375.766C371.871 259.853 363.489 262.477 359.255 264.255C355.614 265.864 352.312 270.436 349.687 274.416C349.01 275.432 346.809 278.565 346.216 278.988C345.877 279.242 345.454 279.327 345.031 279.242C344.353 279.073 343.845 278.565 343.676 278.057L342.745 274.839C342.067 271.622 342.66 269.928 338.765 272.638C337.664 273.061 337.072 272.892 336.733 272.638C335.802 272.045 334.701 271.029 335.209 270.098C335.294 270.013 336.056 268.489 336.056 268.489C338.511 264.086 336.733 264.255 333.007 264.679C332.669 264.679 332.33 264.763 332.161 264.763C331.737 264.848 330.129 263.917 329.536 262.139C328.774 260.022 329.79 258.159 332.415 256.804C334.023 255.958 335.802 255.28 337.664 254.857C339.019 254.434 340.882 254.264 341.982 254.095C346.131 253.672 350.28 253.841 353.582 253.926L356.884 254.01C359.763 254.01 365.013 253.502 367.383 250.454C368.146 249.438 368.908 247.745 368.23 245.374C367.383 242.156 364.928 239.701 362.388 236.992C360.695 235.214 359.001 233.435 357.562 231.234C353.921 226.069 353.752 218.364 357.138 210.49C358.239 208.034 359.34 206.426 360.525 206.002C361.457 205.579 362.557 206.002 363.997 206.68L365.013 207.103C374.919 210.49 387.789 208.034 393.377 206.68C393.123 207.526 392.869 208.204 392.531 208.881C390.329 212.691 387.281 225.73 388.636 230.726ZM312.602 287.794C313.957 287.878 315.65 288.132 317.513 288.471C322.847 289.318 328.859 290.249 332.076 287.54C333.431 286.439 334.108 284.915 334.193 282.883C334.362 280.173 334.193 277.718 333.769 275.347C335.294 276.702 337.156 277.125 339.104 276.617C339.273 277.21 339.527 277.887 339.696 278.48L339.781 279.073C340.289 281.105 342.067 282.713 344.184 283.137C344.692 283.306 345.285 283.306 345.793 283.221C345.285 287.032 344.099 291.519 341.982 294.059C341.474 294.737 339.188 296.345 337.664 297.192C326.403 294.991 315.057 293.128 303.712 291.858C305.998 290.164 309.638 287.624 312.602 287.794ZM322.254 255.619C324.625 252.402 326.742 248.93 328.689 245.374L328.943 245.628C330.721 247.321 332.753 249.184 334.786 251.555C333.177 252.063 331.737 252.571 330.298 253.418C327.419 254.942 325.895 257.058 325.387 259.09C324.286 257.736 323.186 256.635 322.254 255.619ZM330.298 282.713C330.298 283.899 329.875 284.322 329.621 284.576C327.758 286.1 322.17 285.254 318.19 284.576C316.243 284.237 314.465 283.983 312.856 283.899C306.167 283.475 301.171 288.217 299.309 289.995C298.885 290.334 298.377 290.842 297.954 291.265C290.503 290.503 282.967 289.91 275.516 289.572H276.871C293.636 284.661 308.538 273.738 319.884 258.921C323.948 262.985 331.145 271.198 330.298 282.713ZM423.435 298.631H387.366L376.867 307.014C365.859 303.712 354.598 300.833 343.083 298.377C343.761 297.869 344.607 297.192 345.031 296.599C348.502 292.535 349.772 285.508 350.026 280.766C350.111 280.681 350.111 280.681 350.195 280.597L352.566 277.21C354.852 273.823 357.985 269.166 360.779 267.981C365.097 266.118 372.887 263.917 375.766 263.917H376.613C381.015 263.917 390.075 264.086 392.277 258.413C394.055 253.841 391.684 251.47 390.244 250.031C389.821 249.607 389.398 249.099 389.144 248.761L388.636 247.829C387.112 245.289 384.741 241.225 389.228 236.484C389.398 236.399 389.482 236.399 389.567 236.314C389.821 236.145 389.99 235.891 390.16 235.637C392.531 241.564 397.187 250.369 404.215 255.788C414.799 263.832 422.758 265.102 425.044 265.271C428.685 265.61 433.765 266.457 435.204 266.965C436.136 267.303 438.337 270.098 438.591 272.976C439.014 277.887 437.66 281.359 434.527 283.221C429.193 286.354 423.181 293.297 423.266 297.869C423.35 298.123 423.435 298.377 423.435 298.631ZM177.638 157.91C181.448 143.77 187.798 130.392 196.35 119.215C211.929 98.81 233.266 87.6335 256.212 87.6335C279.157 87.6335 300.494 98.8947 316.073 119.215C327.165 133.694 334.616 151.898 337.58 170.78L335.548 172.642C333.007 174.928 330.129 177.553 329.028 180.94L328.943 181.194C328.097 183.903 327.504 185.851 327.504 187.46C327.504 188.391 327.673 189.238 328.181 190C329.367 192.201 331.145 192.794 332.499 193.048C332.753 193.048 333.092 194.148 333.092 194.911C333.092 194.995 333.092 195.165 333.092 195.249C333.007 195.503 333.007 195.673 333.007 195.842C333.007 197.366 333.685 199.652 337.495 201.176C337.749 201.261 337.918 201.345 338.257 201.345C332.838 250.454 298.208 288.64 256.296 288.64C216.586 288.64 183.48 254.434 175.436 209.135C178.993 206.849 178.485 202.785 178.231 200.329L178.061 198.805C178.061 196.35 177.299 191.862 177.638 185.682C177.807 182.041 178.315 177.384 179.077 173.489C179.585 170.949 180.093 168.663 180.347 166.8C180.855 162.313 180.093 160.28 177.638 157.91ZM214.977 69.8528C214.469 69.0908 214.046 68.5828 213.707 68.1594C213.792 67.6514 213.877 67.1434 213.877 66.5507C213.877 62.5712 210.659 59.3537 206.68 59.3537C206.172 59.3537 205.748 59.4384 205.24 59.5231C205.833 58.4224 206.172 57.1523 206.172 55.7976C206.172 51.2254 202.362 47.4999 197.789 47.4999C197.535 47.4999 197.281 47.4999 197.027 47.4999C198.128 45.8912 198.805 43.9438 198.805 41.827C198.805 37.3395 195.842 33.5294 191.693 32.2593C194.911 30.6506 197.112 27.2638 197.112 23.3689C197.112 22.3529 196.943 21.3369 196.689 20.3208C198.213 21.1675 199.991 21.5909 201.769 21.5909C207.188 21.5909 211.591 17.6114 212.437 12.5312C213.961 14.6479 216.417 16.0873 219.296 16.0873C222.005 16.0873 224.46 14.8173 225.984 12.7852C226.492 16.0873 229.456 18.7121 233.012 18.7121C236.06 18.7121 238.685 16.7647 239.701 14.0552L242.495 29.0418C236.568 25.401 226.577 20.3208 216.417 21.5909C210.913 22.3529 206.68 24.9777 204.478 29.0418C201.515 34.6301 202.785 41.9117 208.034 49.1087C214.808 58.3377 220.142 63.7566 223.529 66.212L223.698 66.3814C220.904 67.4821 217.856 68.5828 214.977 69.8528ZM206.764 69.8528C204.986 69.8528 203.547 68.4134 203.547 66.6354C203.547 64.8573 204.986 63.4179 206.764 63.4179C208.542 63.4179 209.982 64.8573 209.982 66.6354C209.982 68.4134 208.542 69.8528 206.764 69.8528ZM197.874 60.2851C195.419 60.2851 193.471 58.253 193.471 55.8823C193.471 53.4268 195.419 51.4794 197.874 51.4794C200.329 51.4794 202.277 53.4268 202.277 55.8823C202.277 58.3377 200.329 60.2851 197.874 60.2851ZM188.899 48.0079C185.512 48.0079 182.803 45.2985 182.803 41.9117C182.803 38.6096 185.512 35.8154 188.899 35.8154C192.286 35.8154 194.995 38.5249 194.995 41.9117C194.995 45.2985 192.286 48.0079 188.899 48.0079ZM181.194 23.4536C181.194 20.0668 183.903 17.3574 187.29 17.3574C190.677 17.3574 193.386 20.0668 193.386 23.4536C193.386 26.7558 190.677 29.5499 187.29 29.5499C183.903 29.5499 181.194 26.8404 181.194 23.4536ZM201.853 4.06417C205.664 4.06417 208.796 7.19696 208.796 10.9224C208.796 14.7326 205.748 17.8654 201.853 17.8654C198.043 17.8654 194.995 14.7326 194.995 10.9224C194.995 7.11229 198.128 4.06417 201.853 4.06417ZM219.38 3.47148C221.836 3.47148 223.783 5.41889 223.783 7.87432C223.783 10.3298 221.751 12.2772 219.38 12.2772C216.925 12.2772 214.977 10.2451 214.977 7.87432C214.977 5.41889 216.925 3.47148 219.38 3.47148ZM233.097 8.38234C234.875 8.38234 236.314 9.82173 236.314 11.5998C236.314 13.3779 234.875 14.8173 233.097 14.8173C231.319 14.8173 229.879 13.3779 229.879 11.5998C229.879 9.82173 231.319 8.38234 233.097 8.38234ZM250.115 4.65685C250.115 3.64081 251.301 3.47148 252.063 3.47148H256.381H256.466H260.784C261.461 3.47148 262.647 3.64081 262.647 4.65685C262.647 7.45097 264.848 11.2611 269.59 12.0232L260.445 61.3011L260.53 61.3858C259.175 61.3011 257.82 61.3011 256.466 61.3011C255.196 61.3011 253.841 61.3858 252.571 61.3858V61.3011L243.426 12.0232C248.083 11.1765 250.115 7.45097 250.115 4.65685ZM264.34 61.5551L269.505 33.9527C273.908 31.0739 285.169 23.7076 295.837 25.147C299.986 25.655 303.204 27.6025 304.812 30.6506C307.183 35.1381 305.998 41.319 301.426 47.4999C293.128 58.8457 286.862 63.9259 284.745 65.1113L284.661 65.2806C278.057 63.3332 271.283 62.0632 264.34 61.5551ZM228.186 65.0266C226.069 63.7566 219.804 58.761 211.506 47.4152C206.934 41.2343 205.748 35.0534 208.204 30.5659C209.812 27.5178 212.945 25.655 217.179 25.0623C227.847 23.623 239.108 30.9893 243.511 33.868L248.676 61.4705C241.733 61.9785 235.044 63.1639 228.355 65.0266H228.186ZM294.821 94.4918C283.052 87.3795 270.013 83.654 256.296 83.654C242.749 83.654 229.795 87.3795 218.11 94.3225C218.872 91.2744 219.296 88.1416 219.296 85.1781C230.895 79.6746 243.342 76.7958 256.296 76.7958C269.42 76.7958 281.951 79.6746 293.721 85.3475C293.636 88.3956 293.975 91.4437 294.821 94.4918ZM294.144 81.1986C282.205 75.6951 269.505 72.9009 256.296 72.9009C243.257 72.9009 230.726 75.6104 219.041 80.9446C218.618 78.0658 217.856 75.5257 216.671 73.3243C229.287 67.9054 242.664 65.1113 256.466 65.1113C270.436 65.1113 283.983 67.9054 296.769 73.4936C295.414 75.7797 294.567 78.4045 294.144 81.1986ZM273.146 14.2246L273.23 14.1399C274.246 16.8493 276.871 18.8814 279.919 18.8814C283.475 18.8814 286.354 16.2567 286.947 12.9545C288.471 14.9866 290.926 16.2567 293.551 16.2567C296.43 16.2567 298.885 14.8173 300.409 12.7005C301.256 17.8654 305.744 21.7602 311.078 21.7602C312.941 21.7602 314.634 21.3369 316.158 20.4902C315.904 21.4215 315.735 22.4376 315.735 23.5383C315.735 27.4331 317.936 30.7352 321.154 32.4286C317.089 33.6987 314.041 37.5089 314.041 41.9964C314.041 44.1131 314.719 46.0605 315.819 47.6693C315.565 47.6693 315.311 47.6693 315.057 47.6693C310.485 47.6693 306.675 51.3947 306.675 55.9669C306.675 57.3217 307.014 58.5917 307.606 59.6924C307.098 59.6077 306.675 59.5231 306.167 59.5231C302.272 59.5231 299.055 62.7405 299.055 66.72C299.055 67.3974 299.139 67.9901 299.309 68.5828C298.885 68.9214 298.293 69.5988 297.869 70.0222C294.991 68.7521 292.027 67.5667 288.979 66.6354L289.148 66.466C292.535 64.0106 297.869 58.5917 304.643 49.3627C309.892 42.1657 311.163 34.8841 308.199 29.2959C305.998 25.2317 301.764 22.6069 296.261 21.8449C286.185 20.5748 276.194 25.655 270.267 29.2959L273.146 14.2246ZM279.919 8.38234C281.697 8.38234 283.137 9.82173 283.137 11.5998C283.137 13.3779 281.697 14.8173 279.919 14.8173C278.141 14.8173 276.702 13.3779 276.702 11.5998C276.702 9.82173 278.141 8.38234 279.919 8.38234ZM293.636 3.47148C296.091 3.47148 298.123 5.41889 298.123 7.87432C298.123 10.3298 296.176 12.2772 293.636 12.2772C291.18 12.2772 289.233 10.2451 289.233 7.87432C289.233 5.41889 291.18 3.47148 293.636 3.47148ZM311.163 4.06417C314.973 4.06417 318.021 7.19696 318.021 10.9224C318.021 14.7326 314.973 17.8654 311.163 17.8654C307.352 17.8654 304.22 14.7326 304.22 10.9224C304.22 7.11229 307.352 4.06417 311.163 4.06417ZM325.81 17.3574C329.197 17.3574 331.907 20.0668 331.907 23.4536C331.907 26.7558 329.197 29.5499 325.81 29.5499C322.508 29.5499 319.714 26.8404 319.714 23.4536C319.714 20.1515 322.508 17.3574 325.81 17.3574ZM330.298 41.9117C330.298 45.2985 327.589 48.0079 324.202 48.0079C320.815 48.0079 318.105 45.2985 318.105 41.9117C318.105 38.6096 320.815 35.8154 324.202 35.8154C327.504 35.8154 330.298 38.5249 330.298 41.9117ZM315.142 60.2851C312.687 60.2851 310.739 58.253 310.739 55.8823C310.739 53.4268 312.771 51.4794 315.142 51.4794C317.597 51.4794 319.545 53.4268 319.545 55.8823C319.63 58.3377 317.597 60.2851 315.142 60.2851ZM306.336 69.8528C304.558 69.8528 303.119 68.4134 303.119 66.6354C303.119 64.8573 304.558 63.4179 306.336 63.4179C308.114 63.4179 309.638 64.8573 309.638 66.6354C309.554 68.4134 308.114 69.8528 306.336 69.8528ZM355.53 162.143C353.752 163.075 351.72 163.921 350.026 164.514C347.909 165.191 344.184 166.038 341.136 167.901C339.95 161.297 338.257 154.862 336.14 148.511H336.394L353.328 149.527C353.413 152.914 354.006 157.063 355.53 162.143ZM329.028 124.042C330.213 129.799 334.87 135.472 340.797 135.557C344.184 135.641 347.063 133.694 349.687 130.985C349.941 133.101 350.703 134.795 352.058 135.98C353.244 137.081 354.683 137.589 356.122 137.843C355.022 139.706 353.921 142.076 353.498 145.548L334.532 144.363C331.737 137.166 328.266 130.307 324.202 123.957C325.81 124.126 327.419 124.211 329.028 124.042ZM356.207 105.838L364.42 105.33C374.665 104.568 387.874 100.334 393.208 84.4161L393.293 83.9927C394.393 80.9446 393.801 75.5257 393.716 74.933L393.377 72.3929L391.006 73.3243C388.551 74.3403 380.507 76.3724 378.052 76.5418C376.104 76.7111 370.178 77.1345 364.843 81.1139L364.589 81.368L364.42 81.622C364.335 81.7913 363.997 82.0453 363.827 82.0453C363.573 82.0453 362.981 81.7066 362.303 80.6906C360.525 78.1505 358.916 76.3724 358.07 75.3564C358.07 75.3564 357.816 75.1024 357.731 74.933C357.731 74.425 358.324 73.4936 360.949 72.8163L363.743 72.2236C366.96 71.5462 370.432 70.9535 370.601 65.6193V65.3653C370.601 63.7566 369.839 62.4019 368.569 61.3011C365.097 58.5917 358.07 58.6764 355.106 59.4384H355.022H354.937C354.598 59.6077 354.429 59.6077 354.429 59.6077C354.429 59.6077 354.09 59.3537 353.667 57.9143C353.413 56.983 353.244 56.3056 353.244 55.7976C353.244 54.9509 353.582 54.6969 353.752 54.6122C354.937 53.5962 355.36 52.3261 355.36 51.1407C355.36 49.3627 354.514 47.6693 354.006 46.5685L353.582 45.6372C353.328 45.1292 352.99 44.1131 352.99 43.3511C352.99 43.0971 352.99 42.9277 353.074 42.7584C353.328 42.4197 353.921 42.081 354.852 41.9117C357.392 41.4037 359.933 41.573 362.134 41.6577C363.912 41.7423 365.521 41.827 367.045 41.573C368.738 41.319 370.432 40.3876 372.125 39.5409C373.818 38.6942 375.596 37.7629 376.867 37.6782C378.814 37.5935 383.132 37.6782 386.688 37.7629L391.684 37.8475C395.071 37.8475 406.247 34.2914 410.142 30.4812C410.65 29.9732 411.243 29.5499 411.497 29.4652C411.497 29.5499 411.581 29.5499 411.581 29.5499C412.174 30.4812 412.597 32.598 413.021 34.6301C413.529 37.3395 414.121 40.4723 415.476 42.6737C416.915 45.0445 419.032 47.1612 421.064 49.1087C422.334 50.3787 423.604 51.5641 424.536 52.7495C425.467 53.9348 426.568 56.5596 427.669 59.1844C429.362 63.1639 431.055 67.3127 433.257 69.3448C435.797 71.8002 442.232 77.8118 448.751 76.4571C448.667 76.5418 448.667 76.7111 448.582 76.7958L446.635 78.4892C444.264 80.5212 441.809 82.5533 441.809 85.0088V85.2628C441.978 87.8875 442.825 89.4963 443.417 90.5123L443.502 90.7663C443.756 91.105 443.925 91.4437 443.925 91.9517C443.925 92.5444 443.587 93.3911 442.486 94.5765C439.946 97.2013 439.099 98.81 439.099 100.503C439.099 101.35 439.353 102.197 439.607 103.128L439.692 103.382C439.946 104.06 440.284 105.16 440.284 105.668V105.838C440.2 105.838 440.2 105.922 440.2 105.922L439.522 106.261C438.168 106.938 437.914 107.192 436.982 107.362L436.644 107.446C432.241 108.462 429.955 110.833 429.955 114.728C429.955 114.897 429.955 115.151 429.955 115.405L430.039 116.76C430.124 117.607 430.209 118.538 430.209 119.046C430.209 119.3 430.209 119.385 430.124 119.554C430.039 119.639 429.87 119.724 429.277 119.893L428.177 120.147C425.552 120.74 421.572 121.671 421.234 128.953L421.149 131.831C420.98 137.504 420.726 140.129 418.948 140.298C415.73 140.722 413.275 137.928 412.936 137.081C412.597 136.319 412.005 133.863 411.92 133.525C409.465 125.989 410.227 127.767 406.755 134.456C406.162 135.303 405.739 136.573 404.892 138.012C402.014 143.262 400.32 143.939 399.135 144.786L398.288 145.209C398.034 145.294 397.611 145.294 397.441 145.294C397.018 145.125 396.425 144.278 396.002 142.584C395.325 139.621 394.732 135.811 394.393 132.17C394.139 126.92 399.727 121.417 388.466 130.392C388.466 130.392 387.027 131.323 386.265 131.831C384.741 132.763 376.189 136.573 373.734 137.589C372.887 137.928 370.008 138.182 370.008 137.42C370.008 137.335 370.008 136.996 370.178 136.488C370.178 136.404 370.178 136.319 370.262 136.15C371.617 131.408 373.818 132.424 366.029 133.186L362.303 133.355L361.118 133.44C359.086 133.609 356.376 133.863 354.937 132.593C354.26 131.916 353.836 130.815 353.752 129.291C353.582 122.094 358.916 118.453 362.557 117.691C367.383 116.76 385.757 114.728 393.97 114.051C400.659 113.458 412.851 110.833 419.286 100.08C421.572 96.1005 424.451 80.0979 422.419 70.6995C421.742 67.7361 418.694 63.0792 420.556 71.6309C422.419 79.7592 417.932 94.7458 415.899 98.1326C410.396 107.446 399.643 109.732 393.631 110.24C385.588 110.918 366.875 112.95 361.795 113.966C357.392 114.813 352.99 118.115 351.042 123.11C349.264 125.65 345.2 131.408 341.22 131.239C336.564 131.154 332.923 125.566 332.923 120.824C332.245 107.108 339.273 106.684 356.207 105.838ZM509.206 129.969C509.206 128.529 509.714 127.005 510.307 125.735C511.153 124.38 512 122.687 512 120.994C512 120.316 511.831 119.639 511.492 118.961C510.137 116.591 506.92 116.76 504.634 116.845H503.279C502.686 116.675 501.078 116.083 499.553 115.49C496.759 114.305 493.627 113.119 491.425 112.781C489.647 112.527 487.361 113.119 484.821 113.797C482.111 114.474 479.063 115.321 476.608 114.982C474.406 114.728 471.358 113.458 468.649 112.357C461.198 109.478 454.34 111.002 449.598 112.865C442.74 115.659 437.575 120.232 434.358 126.412C428.092 138.605 430.717 154.354 435.797 163.837C437.914 167.731 445.365 180.347 449.344 185.682C449.429 185.851 449.598 186.02 449.767 186.105C449.683 186.105 449.598 186.19 449.598 186.19C444.01 188.476 443.163 195.165 443.163 198.89C443.163 200.16 443.248 201.176 443.333 201.515C443.587 203.632 444.264 204.902 445.365 205.41C446.127 205.748 446.973 205.664 447.651 205.156C447.735 205.156 451.038 202.7 455.694 203.124C459.505 203.462 466.786 206.256 466.786 214.046C466.786 221.412 460.775 229.541 452.731 229.541C445.788 229.541 441.724 226.238 440.708 222.428C440.115 214.977 437.66 208.712 436.559 206.934C436.051 206.087 435.374 205.494 434.696 204.902C432.495 202.785 429.108 199.483 428.261 185.258C427.415 169.594 420.98 154.608 416.323 144.786C417.339 145.04 418.355 145.125 419.456 144.955C424.705 144.362 424.959 138.436 425.129 132.678L425.213 129.884C425.382 125.566 426.822 125.142 429.108 124.634L430.463 124.296C433.426 123.364 434.104 122.01 434.104 119.639C434.104 118.961 434.019 118.115 433.934 117.183L433.85 115.829V115.405C433.85 113.119 435.12 112.442 437.406 111.934L437.914 111.849C439.268 111.511 440.03 111.087 441.385 110.325L441.978 109.986C443.587 109.055 444.095 107.7 444.095 106.346C444.095 104.991 443.671 103.721 443.333 102.705L443.248 102.451C443.079 101.943 442.994 101.519 442.994 101.181C442.994 100.419 443.502 99.6567 445.195 97.8786C447.143 95.7619 447.735 93.9838 447.735 92.5444C447.735 91.0203 447.058 89.835 446.635 89.3269L446.55 89.2423C446.127 88.5649 445.619 87.4642 445.449 85.7708C445.619 85.0088 447.82 83.146 448.836 82.2147L451.122 80.1826C452.138 78.9972 452.646 77.4731 452.646 76.1184C452.646 75.1024 452.392 74.171 451.884 73.5783C451.122 72.6469 449.852 72.3929 448.836 72.9856L449.005 72.9009C444.687 75.0177 439.607 70.9535 435.628 67.2281C434.019 65.704 432.41 61.8092 430.971 58.3377C429.701 55.2896 428.515 52.5801 427.33 51.0561C426.229 49.6167 424.874 48.3466 423.52 46.9919C421.657 45.2138 419.794 43.3511 418.609 41.4037C417.593 39.7949 417.085 37.0008 416.661 34.6301C416.238 32.09 415.73 29.7192 414.714 28.1951C413.783 26.6711 412.597 26.3324 411.751 26.1631C409.38 25.9937 407.517 28.0258 407.178 28.4492C404.3 31.3279 394.309 34.6301 391.599 34.6301L386.688 34.5454C382.963 34.4607 378.729 34.3761 376.613 34.4607C374.496 34.5454 372.379 35.6461 370.347 36.6621C368.908 37.4242 367.468 38.1015 366.367 38.3556C365.351 38.5249 363.912 38.4402 362.388 38.3556C360.102 38.1862 357.223 38.0169 354.09 38.6942C351.974 39.1176 350.449 40.1336 349.687 41.573C348.502 43.8591 349.518 46.4839 349.941 47.6693L350.449 48.8546C351.296 50.6327 351.72 51.7334 351.127 52.2414C348.417 54.6122 349.518 58.4224 349.857 59.6077C350.28 60.9625 350.957 62.8252 352.651 63.6719C353.752 64.1799 354.937 64.2646 356.292 63.7566L356.122 63.8413C358.662 63.1639 364.081 63.4179 366.113 64.942C366.621 65.3653 366.706 65.704 366.706 66.0427C366.621 68.1594 366.367 68.2441 362.981 68.9215L359.933 69.5988C356.122 70.6148 354.683 72.4776 354.09 73.917C353.582 75.187 353.667 76.5418 354.26 77.4731L355.106 78.5738C355.953 79.5052 357.392 81.1986 359.086 83.5694C360.864 86.0248 362.642 86.5328 363.827 86.5328C365.351 86.5328 366.537 85.6861 367.299 84.7548C371.278 81.876 375.512 81.1986 378.391 81.0293C380.761 80.8599 386.434 79.5052 390.075 78.4045C390.075 78.8279 390.075 79.1665 390.075 79.5899C390.075 81.0293 389.99 82.384 389.652 83.3154L389.482 83.7387C385.757 94.8305 377.205 101.011 364.166 101.943L355.953 102.451C339.696 103.382 328.774 103.975 328.774 120.74C326.149 120.994 323.694 120.655 321.492 120.147L321.323 120.316C320.646 119.385 319.968 118.453 319.291 117.522C313.618 110.071 307.183 103.721 300.155 98.7253C295.668 88.9883 297.615 77.0498 302.442 73.3243C303.542 74.0017 304.897 74.425 306.252 74.425C310.231 74.425 313.449 71.2076 313.449 67.2281C313.449 66.2967 313.279 65.3653 312.856 64.5186C313.618 64.6879 314.295 64.8573 315.142 64.8573C319.714 64.8573 323.524 61.1318 323.524 56.4749C323.524 54.9509 323.101 53.5962 322.424 52.3261C323.016 52.4108 323.609 52.4955 324.202 52.4955C329.705 52.4955 334.193 48.0079 334.193 42.5044C334.193 38.6942 331.991 35.3074 328.774 33.614C332.838 32.344 335.802 28.5338 335.802 24.0463C335.802 18.5427 331.314 14.0552 325.81 14.0552C324.202 14.0552 322.678 14.3939 321.323 15.0713C321.746 13.8859 322 12.7005 322 11.4305C322 5.50356 317.174 0.592694 311.163 0.592694C307.098 0.592694 303.542 2.87879 301.68 6.18092C300.748 2.62478 297.446 0 293.636 0C289.402 0 285.846 3.30214 285.338 7.45097C283.983 5.92691 282.121 4.91087 279.919 4.91087C276.956 4.91087 274.416 6.68894 273.315 9.31371H271.452C267.388 9.31371 266.541 6.01158 266.541 5.0802C266.541 2.45543 264.171 0.592694 260.699 0.592694H256.381H252.063C248.591 0.592694 246.221 2.45543 246.221 5.0802C246.221 6.01158 245.374 9.31371 241.31 9.31371H239.701C238.6 6.77361 236.06 4.91087 233.097 4.91087C230.895 4.91087 229.033 5.92691 227.678 7.45097C227.255 3.21747 223.698 0 219.38 0C215.485 0 212.353 2.62478 211.337 6.18092C209.474 2.87879 205.918 0.592694 201.853 0.592694C195.927 0.592694 191.016 5.41889 191.016 11.4305C191.016 12.7005 191.27 13.8859 191.608 15.0713C190.254 14.3939 188.73 14.0552 187.121 14.0552C181.617 14.0552 177.13 18.5427 177.13 24.0463C177.13 28.5338 180.093 32.344 184.242 33.614C181.025 35.2228 178.823 38.6096 178.823 42.5044C178.823 48.0079 183.311 52.4955 188.814 52.4955C189.407 52.4955 190 52.4108 190.592 52.3261C189.915 53.5115 189.492 54.9509 189.492 56.4749C189.492 61.0471 193.217 64.8573 197.789 64.8573C198.551 64.8573 199.313 64.7726 200.075 64.5186C199.737 65.3653 199.567 66.2967 199.567 67.2281C199.567 71.2076 202.785 74.425 206.764 74.425C208.288 74.425 209.728 73.917 210.913 73.0703C215.993 76.8804 216.84 89.2423 212.691 98.556C205.579 103.552 199.059 109.986 193.302 117.522C186.105 126.836 180.432 137.758 176.368 149.273C177.214 142.161 176.537 135.811 174.251 130.477C167.054 113.289 151.644 106.684 141.399 101.604L136.065 98.81C127.852 94.0685 123.788 88.8189 121.163 85.2628L119.3 82.892C119.215 82.8074 119.131 82.7227 119.046 82.638C119.215 82.7227 119.469 82.8073 119.639 82.8073C122.602 83.2307 127.09 84.8394 129.545 86.7022L132.763 89.4116C135.472 91.7824 137.335 93.3064 138.351 93.8991C141.23 95.5079 145.971 95.1692 147.919 93.4758C148.765 92.7138 149.104 91.6977 149.104 90.6817C149.104 89.3269 148.596 88.0569 148.427 87.3795C148.257 86.8715 148.088 86.5328 148.003 86.1941C148.173 86.2788 148.257 86.3635 148.342 86.3635L150.035 87.0408C153.083 87.8876 155.793 85.8555 157.317 83.5694C159.01 80.7753 158.672 75.9491 153.93 71.8849C151.475 69.8528 144.616 62.9945 139.028 57.5757C134.625 53.2575 131.069 49.786 130.053 48.8546C129.037 48.0079 127.344 46.1452 126.666 45.1292C127.259 43.6051 127.682 41.827 126.666 40.4723C125.566 39.1176 123.788 39.2869 122.856 39.4563C122.856 39.4563 122.348 39.5409 122.264 39.5409C122.179 39.5409 122.094 39.4563 122.094 39.4563C121.925 39.4563 121.756 39.3716 121.586 39.3716L121.417 39.4563C121.332 39.4563 121.248 39.4563 121.163 39.3716C122.264 36.8315 123.534 33.106 124.804 28.1105C126.243 22.5222 125.396 17.5267 122.602 14.4786C120.57 12.2772 117.691 11.3458 114.474 11.8538C109.478 12.7005 105.414 16.5107 102.789 19.8128L101.773 16.68L99.7414 17.2727L90.1736 20.4055L91.2743 23.7923C87.2102 22.6069 81.368 21.6755 76.6264 24.0463C73.7477 25.4857 71.9696 27.9411 71.6309 30.9046C71.1229 35.0534 73.409 39.4563 77.8118 43.1817C79.4205 44.5365 80.8599 45.7218 82.2147 46.5685C81.9606 46.7379 81.7066 46.9072 81.5373 47.0766C80.1826 48.1773 78.9125 49.532 77.8118 50.7174L76.2877 52.3261C69.5988 58.253 60.9625 62.4865 52.6648 63.5026C51.5641 63.5872 50.6327 64.4339 50.4634 65.5347C50.1247 67.5667 52.3261 69.9375 55.7976 71.4616C59.3537 72.9856 60.1158 77.6425 58.3377 87.0408L58.253 87.3795C58.0837 88.2262 57.745 89.581 58.8457 90.6817C60.0311 91.7824 61.8092 91.5284 64.8573 90.6817L65.45 90.5123C65.8733 90.4277 66.2967 90.2583 66.6354 90.1736C66.466 90.6817 66.3813 91.359 66.212 91.867L66.0427 92.7984L65.8733 93.7298C65.45 95.8465 64.942 98.556 64.942 100.927C64.942 102.366 65.1113 103.721 65.5346 104.906C66.72 107.87 69.6835 112.611 71.2922 114.305C72.3083 115.321 73.409 115.829 74.5943 115.744C76.2877 115.659 77.4731 114.474 78.1505 113.543L78.2352 113.458C78.4892 113.881 78.6585 114.559 79.0819 115.49L79.1665 115.659C80.3519 118.961 82.7227 125.82 91.9517 128.614C93.6451 129.122 95.5925 129.545 97.2859 128.614C98.4713 127.937 99.318 126.666 99.826 124.719C100.08 123.788 100.165 122.687 100.249 121.671C100.249 121.417 100.249 121.163 100.334 120.909C100.503 121.078 100.673 121.248 100.927 121.502C104.229 126.074 109.309 136.15 109.309 147.241C109.309 150.12 108.97 152.999 108.208 155.878C106.938 160.534 105.414 164.006 104.06 167.054C103.043 169.256 102.366 171.372 101.519 173.489C98.7253 176.452 91.9517 180.178 87.5489 182.633L84.8394 184.157C80.5213 186.613 67.7361 199.144 66.8047 215.739C66.8047 216.078 66.8047 216.332 66.72 216.671C59.1844 219.211 54.1889 218.872 51.4794 215.485C45.7218 208.373 50.04 201.261 56.3903 192.794L58.3377 190.084L60.2851 187.46C60.2851 187.46 61.9785 185.343 62.1478 185.089C62.2325 185.512 62.3172 185.936 62.4019 186.528L63.1639 189.915L63.8412 192.624C64.3493 194.911 65.8733 195.419 66.466 195.503C67.3127 195.673 68.8368 197.112 72.7316 189.83C73.5783 188.306 75.187 185.597 76.9651 182.887L79.9286 178.231C83.0614 173.15 82.2993 169.764 77.3885 166.377C75.5257 165.022 75.6104 164.429 77.3038 161.127L77.8118 160.111C79.3359 157.063 85.6015 137.25 76.5418 123.11C70.1915 113.289 61.2165 104.144 49.024 106.938C42.081 108.547 37.5089 111.172 33.0213 113.712C28.6185 116.167 24.5543 118.623 18.5427 119.469C14.7326 119.978 5.41889 123.11 4.99554 123.195C3.81016 123.618 2.11675 124.211 2.03208 125.989V126.158C2.03208 128.106 4.14883 129.037 6.77361 130.307C9.9064 131.747 11.1765 132.847 11.8538 133.609C10.4144 135.98 4.57219 142.33 3.30213 143.262C2.11675 143.939 1.52406 145.04 1.52406 146.225C1.52406 146.395 1.52406 146.649 1.52406 146.818C1.94741 148.765 3.97949 150.035 7.62031 150.628C7.62031 150.628 7.62031 150.628 7.70498 150.628V151.221C7.28163 155.285 6.68894 161.466 9.31371 165.53L9.82173 166.377C12.0232 169.764 16.5107 176.706 16.68 179.162C16.7647 180.009 16.426 181.025 16.2567 182.041C15.8333 183.819 15.3253 185.681 16.2567 187.206C16.5953 187.798 17.2727 188.56 18.7121 188.814C22.9456 189.83 24.4697 186.444 25.7397 183.734L26.4171 182.295C28.1105 178.823 30.4812 174.166 33.36 169.425L35.2228 166.546C38.5249 161.551 43.0124 152.999 41.9964 146.056C42.6737 146.056 43.2664 146.141 43.4357 146.141C44.2825 146.225 45.0445 146.395 45.8912 146.141L46.7379 145.971C48.1773 145.717 50.1247 145.294 50.6327 143.431C51.0561 141.568 49.4473 140.044 47.9233 138.859C45.8912 137.25 43.6898 130.731 44.7905 126.497C45.6372 123.449 47.0766 121.756 49.1933 121.417C53.5962 120.74 60.3698 125.312 63.6719 130.053C66.466 134.117 67.6514 138.944 67.6514 143.092C67.6514 144.532 67.4821 145.802 67.2281 146.987C66.212 151.475 65.3653 151.898 65.3653 151.898C65.196 151.983 64.6033 151.729 64.1799 151.644L62.7405 151.305C59.6077 150.713 55.8823 151.559 53.5115 153.338L52.7495 153.93C50.8867 155.2 48.3466 156.894 48.6853 159.434C49.024 161.805 51.4794 162.905 53.3422 163.498C54.7816 164.006 55.2049 164.853 55.3742 165.361C56.2209 168.324 53.3421 173.828 51.0561 176.537L49.8707 177.892L47.0766 181.533C36.0695 195.673 32.4286 209.474 37.2548 219.126C40.1336 224.968 47.3306 231.996 65.3653 231.996C64.6033 235.891 63.5872 238.516 61.9785 241.056C57.5757 248.083 50.1247 248.761 46.1452 249.184L44.8752 249.269L43.8591 249.353C42.6737 249.438 41.065 249.523 39.7949 250.877C38.1862 252.656 37.7629 256.042 38.2709 262.816C38.8636 271.876 37.8475 276.871 37.0008 280.512C36.6622 281.951 36.4081 283.475 36.3235 284.745C36.2388 285.508 35.9848 286.862 35.7308 287.963C35.3921 289.318 35.0534 290.842 35.0534 292.281C35.0534 293.382 35.3074 294.483 35.9001 295.414C36.6621 296.515 37.9322 297.192 39.5409 297.446L43.6051 297.7C44.4518 297.7 45.5525 297.785 46.2299 297.869C46.2299 297.954 46.1452 298.039 46.1452 298.039C46.0605 298.293 45.8912 298.631 45.8065 298.97H0C0 298.97 13.5472 322.424 14.5633 324.202C13.6319 325.98 1.10071 350.365 1.10071 350.365H124.55L131.577 374.157C169.764 360.187 215.316 352.228 256.55 352.228H256.72C298.039 352.228 343.591 360.187 381.862 374.072L388.805 350.365H510.307C510.307 350.365 497.775 325.98 496.844 324.202C497.775 322.508 511.407 298.97 511.407 298.97H508.021H461.621H458.827C459.335 295.075 459.589 291.011 459.42 289.318C459.251 287.878 458.743 285.338 458.234 282.629C457.727 279.919 457.049 276.617 457.049 275.686C457.049 273.061 457.049 264.763 457.303 262.985C457.981 257.482 452.054 253.164 449.259 251.047L448.328 250.369C445.788 248.337 443.333 245.628 441.046 242.918C448.074 245.374 461.029 247.745 472.036 234.536C474.999 230.895 477.031 226.154 478.301 223.19L478.471 222.682C479.571 220.142 482.365 215.824 483.212 215.062C485.837 212.691 496.929 198.128 493.457 192.286C491.002 188.306 484.652 190.592 482.535 191.354C481.349 191.778 480.757 190.931 479.995 187.883C479.317 185.343 477.793 178.823 477.709 177.892V177.638C477.624 176.452 477.37 173.997 475.423 172.981C474.237 172.388 472.798 172.558 471.189 173.574C470.427 174.082 469.75 174.251 469.242 174.082C468.649 173.828 468.141 173.15 467.887 172.558C467.294 171.288 466.448 168.155 465.855 166.292L465.431 164.853L465.177 163.837C464.923 162.482 464.5 160.704 462.722 160.196C461.029 159.772 459.589 161.043 458.404 162.397C457.472 163.498 456.626 164.429 455.864 165.53C444.518 155.37 445.873 145.971 446.635 140.298C447.82 133.355 450.614 128.699 455.102 126.497C461.706 123.195 469.919 126.074 470.935 126.666L471.866 127.174C472.29 127.428 473.136 127.852 473.56 128.106C473.475 128.275 473.221 128.445 472.967 128.614L472.713 128.783L472.628 128.953C469.75 132.085 468.649 135.387 468.649 138.605C468.649 146.564 475.338 154.354 480.418 159.688V159.772C480.418 166.969 482.112 178.061 487.107 182.549C489.054 184.327 491.51 185.089 494.05 184.919C498.368 184.496 504.295 180.855 505.396 180.347C506.412 179.924 509.545 176.876 504.634 175.521C499.723 174.251 500.993 169.848 501.247 167.647C501.501 164.768 502.94 161.127 505.057 156.386C505.734 154.946 505.988 153.253 505.988 151.644C505.988 148.511 505.057 145.379 504.21 143.008C504.972 142.923 505.819 142.754 506.75 142.415C509.291 141.484 510.984 139.96 511.492 138.097C511.577 137.674 511.661 137.25 511.661 136.912C511.661 135.641 511.153 134.371 510.222 133.271C509.46 132.085 509.206 131.069 509.206 129.969Z" fill="#0167B1"/>
</svg>
