<svg width="133" height="40" viewBox="0 0 133 40" fill="none" xmlns="http://www.w3.org/2000/svg">
    <path d="M36.3168 35.5454H36.6235C36.8411 35.5454 36.9795 35.657 36.9795 35.9409C36.9795 36.1362 36.8971 36.3856 36.6235 36.3856H36.3168V35.5454ZM36.3168 36.8107H36.4899C37.0224 36.8107 36.9664 37.1176 36.9664 37.4737C36.9664 37.6756 36.9664 37.8758 37.057 38.0579H37.7296C37.6653 37.9332 37.6522 37.3687 37.6522 37.1734C37.6522 36.6334 37.2037 36.5957 37.057 36.5891V36.5744C37.5054 36.5071 37.6653 36.2199 37.6653 35.8375C37.6653 35.3222 37.3653 35.0432 36.8971 35.0432H35.631V38.0579H36.3168V36.8107ZM36.6449 33.9715C35.1975 33.9715 34.0369 35.1203 34.0369 36.5612C34.0369 38.0021 35.1975 39.1641 36.6449 39.1641C38.0857 39.1641 39.2397 38.0021 39.2397 36.5612C39.2397 35.1203 38.0857 33.9715 36.6449 33.9715ZM36.6449 38.6783C35.4695 38.6783 34.5248 37.7248 34.5248 36.5612C34.5248 35.3993 35.4695 34.4573 36.6449 34.4573C37.7972 34.4573 38.7501 35.3993 38.7501 36.5612C38.7501 37.7248 37.7972 38.6783 36.6449 38.6783Z" fill="#F58025"/>
    <path d="M20.9563 0.754185C10.2769 0.754185 1.62036 9.37173 1.62036 19.9997C1.62036 30.6292 10.2769 39.2451 20.9563 39.2451C31.6324 39.2451 40.2889 30.6292 40.2889 19.9997C40.2889 9.37173 31.6324 0.754185 20.9563 0.754185ZM10.5572 10.0889L10.5638 9.44066C10.572 7.32361 11.4557 5.54791 12.6706 5.22789C14.2582 4.80776 16.398 6.68849 18.5428 10.3859L20.5359 13.8225C19.9556 13.9226 19.466 14.3066 19.0868 14.963L12.58 26.1867C11.6288 27.8196 10.971 29.2917 10.6001 30.58C10.5984 30.5603 10.5984 30.5406 10.5984 30.5176C10.5325 27.5554 10.4731 21.608 10.5572 10.0889ZM17.5306 33.9147L16.9635 34.2364C15.1155 35.2916 13.1339 35.4164 12.2453 34.5269C11.0864 33.3683 11.6518 30.5833 13.7966 26.8874L15.7947 23.4427C16.1755 23.899 16.7508 24.1254 17.5092 24.1254H30.5229C32.422 24.1254 34.0294 23.9597 35.3367 23.638C35.3169 23.6479 35.302 23.6544 35.2823 23.6692C32.7402 25.2037 27.5917 28.2365 17.5306 33.9147ZM30.5229 22.7256H26.5317C26.7345 22.1692 26.6488 21.5587 26.2696 20.9072L19.7611 9.68682C18.8115 8.04898 17.862 6.74593 16.9256 5.78259C16.947 5.79243 16.9635 5.80228 16.9816 5.81377C19.588 7.23335 24.7908 10.1545 34.7646 15.9871L35.3367 16.3186C37.1765 17.387 38.2744 19.033 37.9463 20.2425C37.5194 21.8197 34.8141 22.7256 30.5229 22.7256Z" fill="#F58025"/>
    <path d="M58.2572 19.562H56.3185V10.4308C56.3185 8.2875 56.3185 7.95928 60.43 7.95928C65.0493 7.95928 67.593 10.0271 67.593 13.782C67.593 18.8744 62.8732 19.562 58.2572 19.562ZM58.8787 5.79135H46.3909H46.1057V7.02712L46.3579 7.05666C50.8041 7.59494 51.2558 8.1759 51.2558 10.4341V33.9629H56.3185V21.7299H58.3611C63.1716 21.7299 73.1816 21.7299 73.1816 13.782C73.1816 5.79135 63.8772 5.79135 58.8787 5.79135Z" fill="#0069AA"/>
    <path d="M101.82 5.79415H98.8445V27.7524C98.0598 26.6643 83.0118 5.79415 83.0118 5.79415H72.2698V7.02499L72.5187 7.05781C76.8643 7.62072 77.4199 7.81273 77.4199 10.921V33.9624H80.6807V10.3466C81.4704 11.438 97.7482 33.9624 97.7482 33.9624H102.105V5.79415H101.82Z" fill="#0069AA"/>
    <path d="M105.986 18.9546C105.986 26.6449 110.701 34.4058 121.234 34.4058C126.235 34.4058 128.7 33.8576 130.988 33.2471L131.199 33.1913V30.8806L130.812 30.984C128.38 31.6339 125.99 31.9917 124.082 31.9917C115.666 31.9917 111.575 27.3801 111.575 17.8895C111.575 11.5465 114.605 7.76211 119.679 7.76211C123.083 7.76211 125.08 9.09142 125.615 11.7156L125.662 11.9421H131.237L131.196 11.622C131.006 10.1499 129.64 5.34801 119.991 5.34801C110.698 5.34801 105.986 9.92511 105.986 18.9546Z" fill="#0069AA"/>
</svg>
