<svg width="66" height="9" viewBox="0 0 66 9" fill="none" xmlns="http://www.w3.org/2000/svg">
    <path d="M32.6187 2.98478L32.1908 5.18516C31.6917 7.80321 30.6832 8.30237 28.4624 8.30237C26.1907 8.30237 25.4369 7.86434 25.9564 5.18516L26.3741 2.98478C26.863 0.448226 27.7187 0 30.0516 0C32.1704 0.010187 33.1178 0.366731 32.6187 2.98478ZM27.7901 2.98478L27.3724 5.18516C27.0668 6.80489 27.3215 6.9577 28.7273 6.9577C30.0108 6.9577 30.4896 6.76414 30.785 5.18516L31.2027 2.98478C31.5287 1.44655 31.0499 1.34468 29.7969 1.34468C28.279 1.34468 28.0651 1.69104 27.7901 2.98478Z" fill="#005CB9"/>
    <path d="M34.3097 6.89655H37.7427L37.488 8.23105H32.6492L34.2078 0.0712891H35.6136L34.3097 6.89655Z" fill="#005CB9"/>
    <path d="M43.5696 2.80141L43.6511 2.35319C43.8345 1.4058 43.5085 1.34468 42.2759 1.34468C40.8599 1.34468 40.5645 1.60954 40.2589 3.20889L39.9227 5.01199C39.6171 6.6419 39.7393 6.9577 41.2164 6.9577C42.3574 6.9577 42.8667 6.91695 43.0908 5.74545L43.1723 5.29722H44.5781L44.4763 5.82694C44.0382 8.29219 42.7852 8.2005 40.9516 8.29219C38.3437 8.40424 38.0687 7.45686 38.4965 5.07311L38.8531 3.19871C39.3522 0.590844 40.3709 0 42.5407 0C44.3744 0 45.4237 0.0101872 45.0671 2.35319L44.9856 2.80141H43.5696Z" fill="#050000"/>
    <path d="M51.9739 2.98478L51.5562 5.18516C51.0571 7.80321 50.0486 8.30237 47.8278 8.30237C45.5561 8.30237 44.8023 7.86434 45.3218 5.18516L45.7395 2.98478C46.2183 0.448226 47.0842 0 49.417 0C51.5257 0.010187 52.4731 0.366731 51.9739 2.98478ZM47.1453 2.98478L46.7276 5.18516C46.422 6.80489 46.6767 6.9577 48.0825 6.9577C49.366 6.9577 49.8448 6.76414 50.1402 5.18516L50.5579 2.98478C50.8839 1.44655 50.4051 1.34468 49.1419 1.34468C47.6343 1.34468 47.4203 1.69104 47.1453 2.98478Z" fill="#050000"/>
    <path d="M53.8789 5.5315L53.3593 8.23105H51.9434L53.502 0.0712891H57.2507C58.8501 0.112037 59.3594 0.67232 59.0029 2.51616C58.7686 3.72841 58.5445 4.60449 57.2609 4.80823L57.2507 4.84898C58.2287 4.95084 58.3611 5.54169 58.137 6.703L57.8416 8.23105H56.4358L56.7312 6.703C56.8636 6.02048 56.7006 5.54169 56.0283 5.5315H53.8789ZM55.9875 4.19701C57.0266 4.19701 57.322 3.9729 57.5563 2.77083C57.7804 1.61971 57.6276 1.40578 56.6191 1.40578H54.6531L54.1335 4.19701H55.9875Z" fill="#050000"/>
    <path d="M60.531 0.0712891H63.7806C65.7467 0.0712891 66.2968 0.590824 65.8587 2.88289C65.4207 5.18514 64.6465 5.59262 62.7212 5.59262H60.8773L60.368 8.24123H58.9622L60.531 0.0712891ZM62.986 4.24794C63.9945 4.22757 64.239 4.02383 64.4529 2.8727C64.6771 1.72158 64.5854 1.39559 63.5259 1.40578H61.6821L61.1422 4.24794H62.986Z" fill="#050000"/>
    <path d="M13.3755 0.0712891H16.6251C18.5912 0.0712891 19.1413 0.590824 18.7033 2.88289C18.2652 5.18514 17.491 5.59262 15.5657 5.59262H13.7219L13.2125 8.24123H11.8169L13.3755 0.0712891ZM15.8306 4.24794C16.8391 4.22757 17.0835 4.02383 17.2975 2.8727C17.5216 1.72158 17.4299 1.39559 16.3705 1.40578H14.5266L13.9867 4.24794H15.8306Z" fill="#005CB9"/>
    <path d="M25.61 2.98478L25.1923 5.18516C24.6932 7.80321 23.6847 8.30237 21.4639 8.30237C19.1922 8.30237 18.4384 7.86434 18.9579 5.18516L19.3756 2.98478C19.8646 0.448226 20.7203 0 23.0531 0C25.1618 0.010187 26.1092 0.366731 25.61 2.98478ZM20.7814 2.98478L20.3637 5.18516C20.0581 6.80489 20.3128 6.9577 21.7186 6.9577C23.0021 6.9577 23.4809 6.76414 23.7865 5.18516L24.2042 2.98478C24.52 1.45674 24.0412 1.34468 22.7882 1.34468C21.2704 1.34468 21.0564 1.69104 20.7814 2.98478Z" fill="#005CB9"/>
    <path d="M11.8169 0.0917969H1.50767L1.04926 2.36349C1.33449 2.32274 1.61973 2.31255 1.92533 2.33293C3.68768 2.46536 4.66563 3.97303 6.55022 3.78966C8.24125 3.6063 9.54518 2.51629 11.277 2.51629" fill="#050000"/>
    <path d="M10.7574 5.42962C9.79986 5.76579 8.88303 6.24458 7.8134 6.35664C5.939 6.54 4.95086 5.04252 3.19871 4.92027C2.18001 4.84896 1.32431 5.14439 0.488974 5.59261L0 8.27179H10.2379" fill="#050000"/>
    <path d="M11.1038 3.29028C9.63683 3.49402 8.42458 4.49234 6.91691 4.67571C5.04251 4.87945 4.09513 3.17823 2.34297 3.04579C1.81325 3.00505 1.32428 3.07636 0.865862 3.21897L0.580627 4.6859C1.43633 4.16636 2.33278 4.00337 3.29036 4.23767C5.20551 4.70627 6.02046 5.75553 7.89486 5.55179C8.97468 5.41936 9.90169 4.87945 10.8695 4.49234L11.1038 3.29028Z" fill="#005CB9"/>
</svg>
