<svg width="54" height="40" viewBox="0 0 54 40" fill="none" xmlns="http://www.w3.org/2000/svg">
    <g clip-path="url(#clip0_38_1040)">
        <path d="M44.7662 40.0005H8.98402C4.04242 40.0005 -0.000244141 36.12 -0.000244141 31.3772V8.62338C-0.000244141 3.88059 4.04242 7.24792e-05 8.98402 7.24792e-05H44.7662C49.7078 7.24792e-05 53.7499 3.88059 53.7499 8.62338V31.3772C53.7499 36.12 49.7078 40.0005 44.7662 40.0005Z" fill="#0272A6"/>
        <path d="M26.8909 22.0163C24.5347 22.0163 23.017 20.9583 23.017 20.9583V8.76261C23.017 7.74565 24.2709 7.04713 25.343 6.91843C26.4918 6.78126 31.7847 6.01507 31.7847 14.0087C31.7847 21.2127 28.2173 22.0163 26.8909 22.0163ZM9.5714 21.2628C8.01086 21.2628 7.36499 20.6114 7.36499 20.6114V13.2595C7.36499 12.6329 7.83586 12.2026 8.54594 12.1241C9.30701 12.0395 12.7661 11.5089 12.7661 16.4318C12.7661 21.0411 10.6541 21.2628 9.5714 21.2628ZM45.1497 13.0305C47.2975 12.4208 49.4819 13.0516 51.2155 14.4329V10.0007C45.6123 9.14812 42.6763 9.72821 40.4353 11.063C38.6179 12.1779 37.8462 13.6988 37.8462 13.6988C37.8462 13.6988 37.8059 13.7797 37.7391 13.9248C37.4452 2.70798 30.2953 3.68506 21.7624 3.68748C19.3702 3.68808 16.9567 3.68748 16.9567 3.68748V13.3531C15.5391 9.35236 11.1603 9.78259 6.47424 9.78259C4.7771 9.78259 2.53418 9.7832 2.53418 9.7832V30.2318H8.98785C7.9114 29.8728 7.36499 28.9761 7.36499 27.6746V22.0568L9.22706 23.8436C10.0479 24.0363 10.7662 24.0152 10.7662 24.0152C12.5483 23.9209 15.7512 23.2581 16.9567 19.7915V36.3359H24.6354C23.5621 35.9776 23.017 35.0984 23.017 33.8005V22.6913L25.9278 25.4751C26.8676 25.799 27.5595 25.8527 28.3526 25.8183C30.593 25.6835 34.4273 24.7753 36.4354 20.8882C36.601 24.5421 37.848 28.2081 41.7101 29.6487C43.4103 30.3158 45.3429 30.5013 47.3523 30.3532C48.6654 30.3158 49.9395 30.204 51.2155 29.9828V19.9661L45.3341 19.9673C46.4112 20.3268 46.957 21.177 46.957 22.4786V27.0407C45.6161 27.4431 43.8038 27.0461 42.7922 25.7911C41.5155 24.2061 41.2845 19.7449 41.8265 16.7019C42.135 15.1816 43.4915 13.5006 45.1497 13.0305Z" fill="white"/>
    </g>
    <defs>
        <clipPath id="clip0_38_1040">
            <rect width="53.75" height="40" fill="white"/>
        </clipPath>
    </defs>
</svg>
