<svg width="160" height="41" viewBox="0 0 160 41" fill="none" xmlns="http://www.w3.org/2000/svg">
    <path d="M19.5163 2.09326C8.47406 2.09326 1.11254 11.1727 1.11255 19.7732C1.11255 25.5071 3.02497 28.8035 4.71471 31.2453C5.87788 28.5912 8.09857 23.1731 8.09857 23.1731L9.03731 22.6467L10.4127 18.8299L11.2204 18.457L8.09857 28.0647L5.87177 31.2015H6.83235L10.5873 26.6828L12.3775 19.6635L13.0543 20.6286C12.7897 23.8663 12.8945 23.0784 12.6831 24.8841L8.20772 31.2015H9.25562L13.6437 27.8454L13.9057 27.955L12.2683 31.2015H17.1367L24.5812 26.2002L26.8517 17.8648L32.3531 17.6016L30.2355 16.2196L18.1846 14.2016C15.543 11.3886 15.4339 11.2403 15.4339 11.2403L18.6213 11.5035L16.329 9.3758V7.2042L19.298 7.73065L27.3756 12.4467L36.7412 14.9912C35.7911 10.5849 30.1368 2.09325 19.5163 2.09326ZM19.5163 3.27777C26.7547 3.27777 32.7295 7.88768 34.8419 13.3022L26.6333 11.0209L19.3417 6.94097L15.7614 6.34872L14.124 9.85837L12.7923 10.5384L10.7402 15.8029C10.7402 15.6967 9.32112 16.439 9.32112 16.439C9.32112 16.439 6.24727 24.67 4.71471 28.8105C3.50002 26.6337 2.4006 24.3383 2.4006 19.7732C2.4006 11.8106 9.16045 3.27776 19.5163 3.27777ZM96.9956 13.4558L91.9308 13.8506V14.6622C92.0888 14.6622 92.1709 14.6622 92.1709 14.6622C92.7769 14.6622 93.1332 14.7737 93.3716 15.0132C93.7672 15.4107 93.7864 15.9029 93.7864 16.5925V20.4751C93.5236 19.9442 92.8058 19.2247 91.0357 19.2248C87.4702 19.2248 85.6652 22.8064 85.6652 25.8054C85.6652 28.8307 86.6895 32.4079 90.599 32.4079C92.6329 32.4079 93.8318 30.9277 94.0702 30.1047L94.1139 32.035H98.8513V31.2453H98.502C98.0278 31.2453 97.5833 31.1681 97.3449 30.9821C97.1345 30.7952 96.9956 30.5189 96.9956 29.6441V13.4558ZM157.141 13.4558L152.076 13.8506V14.6622H152.556C152.848 14.6622 153.301 14.7737 153.539 15.0132C153.934 15.4107 153.932 16.2214 153.932 16.5925V29.6441C153.932 30.5996 153.794 30.7952 153.582 30.9821C153.345 31.1681 152.966 31.2453 152.622 31.2453H152.469V32.035H158.887V31.2453H158.691C158.19 31.2453 157.729 31.1681 157.49 30.9821C157.279 30.7952 157.141 30.5189 157.141 29.6441V13.4558ZM136.445 13.6532C135.335 13.6532 134.436 14.535 134.436 15.6493C134.436 16.7645 135.335 17.6454 136.445 17.6454C137.555 17.6454 138.453 16.7645 138.453 15.6493C138.453 14.535 137.555 13.6532 136.445 13.6532ZM47.0674 13.8506V14.6622H47.635C48.3206 14.6622 48.8113 14.678 49.0759 14.8377C49.4986 15.05 49.6435 15.6335 49.6435 16.4829V29.5783C49.6435 30.2951 49.4933 30.6987 49.2287 30.9382C48.965 31.1497 48.4437 31.2453 47.8097 31.2453C47.8097 31.2453 47.4368 31.2453 47.0674 31.2453V32.035H55.4507V31.2453H54.7957C54.0299 31.2453 53.5932 31.1111 53.3549 30.8724C53.0903 30.5803 53.0492 30.1363 53.0492 29.5783V24.1602H54.3154C58.066 24.1602 61.2141 22.6905 61.2141 19.0273C61.2141 15.179 58.0136 13.8506 54.3154 13.8506H47.0674ZM128.804 13.8506C128.804 15.7353 127.274 19.5977 124.394 19.5977H124.176V20.4093H126.402V28.9421C126.402 30.4811 126.856 32.4079 129.524 32.4079C131.03 32.4079 132.032 31.9666 132.559 30.8505C132.903 30.1082 132.995 28.8877 132.995 27.4286H132.035C132.035 28.3832 132.056 29.8046 131.555 30.5215C131.369 30.8137 131.1 31.0041 130.703 31.004C129.778 31.004 129.677 30.1863 129.677 29.337V20.4093H132.1V19.5977H129.633V13.8506H128.804ZM53.0492 14.6622H54.3154C57.2469 14.6622 57.7648 16.8777 57.7648 19.0273C57.7648 21.177 57.2469 23.2828 54.3154 23.2828H53.0492V14.6622ZM28.1834 18.3912L27.8559 21.1551L28.1834 21.6377L27.8559 24.0725L29.0784 23.8751L31.2834 19.6635L28.1834 18.3912ZM69.5318 19.2248C67.471 19.2248 66.5628 21.2385 66.4318 22.7783H66.41L66.279 19.5977H61.7817V20.3873H62.0874C62.8008 20.3873 63.0995 20.5058 63.3099 20.9577C63.4951 21.3823 63.5501 22.5686 63.5501 24.1602V29.0079C63.5501 29.0079 63.6007 30.2855 63.3099 30.7628C63.0995 31.1085 62.6917 31.2453 61.8472 31.2453C61.8472 31.2453 61.3032 31.2453 61.0395 31.2453V32.035H69.4009C69.4009 32.035 69.4009 31.4849 69.4009 31.2453C69.2699 31.2453 68.2001 31.2453 68.2001 31.2453C67.8561 31.2453 67.2596 31.2173 67.0212 30.8724C66.7837 30.5267 66.7811 29.8748 66.7811 29.0518V27.1215C66.7811 25.5553 67.0632 21.5368 68.3311 20.4751H68.3748C68.2429 20.7664 68.2438 20.9691 68.2438 21.1551C68.2438 21.6859 68.7826 22.3615 69.7065 22.3615C70.7369 22.3878 71.322 21.578 71.322 20.7822C71.322 19.7468 70.6409 19.2247 69.5318 19.2248ZM105.161 19.2248C101.911 19.2248 99.3534 21.8772 99.3534 25.8054C99.3534 29.6011 101.308 32.4079 105.27 32.4079C108.652 32.4079 110.356 29.5791 110.356 27.8015H109.33C109.33 29.1553 108.164 31.3331 105.706 31.3331C103.937 31.3331 103.307 29.7309 103.043 28.2183C102.779 26.7047 102.868 25.4105 102.868 25.4105H110.531C110.531 22.0395 109.016 19.2247 105.161 19.2248ZM119.591 19.2248C117.688 19.2248 116.547 20.3593 116.098 21.528H116.076L116.011 19.5977H111.317V20.3873H111.819C112.188 20.3873 112.581 20.4154 112.845 20.7602C113.082 21.1051 113.063 21.8026 113.063 22.6247V29.0079C113.063 30.0696 113.104 30.6075 112.867 30.8724C112.656 31.1111 112.291 31.2453 111.71 31.2453H111.317V32.035H118.063V31.2453C117.852 31.2453 117.692 31.2453 117.692 31.2453C117.005 31.2453 116.702 31.1111 116.491 30.8724C116.254 30.6075 116.316 30.0696 116.316 29.0079V24.4234C116.316 23.3881 116.495 22.3308 116.84 21.7473C117.236 21.1095 117.822 20.8041 118.325 20.8041C119.038 20.8041 119.897 20.9472 119.897 22.7783V32.035H124.874V31.2453H124.372C124.029 31.2453 123.584 31.2173 123.346 30.8724C123.108 30.5267 123.128 30.0871 123.128 29.0518V23.3925C123.128 20.7918 122.444 19.2247 119.591 19.2248ZM145.679 19.2248C143.063 19.2248 141.029 20.4119 141.029 22.1641C141.029 23.4644 142.04 24.0286 142.885 24.0286C143.915 24.0286 144.653 23.2319 144.653 22.5151C144.653 21.5859 144.029 21.0454 143.103 21.0454C142.84 21.0454 142.497 21.1349 142.339 21.3744C142.339 21.3472 142.339 21.3349 142.339 21.3086C142.497 20.8568 143.582 20.1022 144.85 20.1022C146.726 20.1022 147.317 20.9506 147.317 22.3835V24.4673C143.275 25.2631 140.353 26.2599 140.353 29.2054C140.353 30.4539 141.224 32.4079 143.998 32.4079C145.768 32.4079 147.346 31.0523 147.557 30.017C147.584 30.017 147.649 32.035 147.622 32.035C147.649 32.035 152.054 32.035 152.054 32.035V31.2453H151.792C151.45 31.2453 151.135 31.1681 150.897 30.9821C150.687 30.8224 150.548 30.5241 150.548 29.6221V23.5241C150.548 19.8881 148.003 19.2247 145.679 19.2248ZM71.9551 19.5977V20.3873C72.1402 20.3873 72.1516 20.3873 72.1516 20.3873C72.8389 20.3873 72.9681 20.5391 73.0467 20.6725C73.1523 20.8313 73.1995 21.4315 73.1995 22.9976V28.3499C73.1995 30.6601 73.8605 32.4079 76.8453 32.4079C78.6416 32.4079 79.9777 31.1128 80.2947 30.1047C80.2947 30.1845 80.3383 30.1047 80.3383 30.1047L80.382 32.035H85.0539C85.0539 32.035 85.0539 31.4849 85.0539 31.2453C84.9203 31.2453 84.5954 31.2453 84.5954 31.2453C84.2252 31.2453 83.8514 31.2173 83.613 30.8724C83.3764 30.5267 83.3074 29.8748 83.3074 29.0518V19.5977H78.308V20.3873C78.4923 20.3873 78.57 20.3873 78.57 20.3873C79.3882 20.3873 79.6686 20.4997 79.8799 20.7383C80.1165 21.0033 80.0982 21.9097 80.0982 22.9976V26.9021C80.0982 27.5927 80.1034 28.2665 79.9454 28.8763C79.6816 29.938 78.9665 30.7408 78.0679 30.7408C77.5396 30.7408 76.4524 30.6908 76.4524 28.7008V19.5977H71.9551ZM132.995 19.5977V20.4093H133.279C133.755 20.4093 134.237 20.4339 134.502 20.6725C134.951 21.0436 134.917 21.7877 134.917 22.3177V28.986C134.917 29.8081 134.914 30.5267 134.676 30.8724C134.44 31.2173 134.021 31.2453 133.65 31.2453H133.236V32.035H139.894V31.2453H139.392C139.02 31.2453 138.625 31.2173 138.388 30.8724C138.122 30.5267 138.148 29.8081 138.148 28.986V19.5977H132.995ZM31.8729 19.8828L29.6024 26.3099L28.0087 27.626L26.0002 31.2015H28.0087L31.0869 26.2002L32.6151 24.8841L34.2961 20.8919L31.8729 19.8828ZM105.139 19.9048C107.146 19.9048 107.24 23.2021 107.213 24.5551H102.89C102.942 23.3074 102.972 19.9048 105.139 19.9048ZM91.5815 20.2557C93.5629 20.2557 93.7864 22.8836 93.7864 24.4234V26.9899C93.7864 28.3964 93.4965 29.2001 93.2843 29.7318C92.9682 30.475 92.3089 30.9821 91.516 30.9821C89.4298 30.9821 89.311 27.3452 89.311 25.8054C89.311 24.0269 89.3363 20.2557 91.5815 20.2557ZM34.9947 21.1112L33.8377 25.0815L29.9735 31.2015H34.0341C36.2007 28.1753 37.2067 25.0236 37.418 21.9448L34.9947 21.1112ZM147.317 25.2789V27.2531C147.317 28.2095 147.188 29.2536 146.924 29.7318C146.685 30.21 146.288 30.8724 145.177 30.8724C144.385 30.8724 143.671 30.1512 143.671 28.7447C143.671 26.3292 144.965 25.7299 147.317 25.2789ZM27.07 25.3009L22.3544 31.2015H24.9087L27.5503 26.2002L27.07 25.3009ZM5.45698 32.035C9.4198 36.9196 14.916 38.5279 19.4072 38.5279C24.5323 38.5279 30.0687 36.229 33.2919 32.035H5.45698Z" fill="#007AC3"/>
</svg>
