<svg width="80" height="40" viewBox="0 0 80 40" fill="none" xmlns="http://www.w3.org/2000/svg">
    <g clip-path="url(#clip0_38_1055)">
        <path d="M77.2893 39.858C78.2729 39.858 79.0699 39.0559 79.0699 38.0662V1.93425C79.0699 0.944569 78.2729 0.142578 77.2893 0.142578H1.9119C0.928344 0.142578 0.131348 0.944569 0.131348 1.93425V38.0662C0.131348 39.0559 0.928344 39.858 1.9119 39.858H77.2893Z" fill="#FF6600"/>
        <path d="M12.2531 20.9258C13.7878 20.9258 15.031 19.6738 15.031 18.1306V10.8519C15.031 9.30872 13.7878 8.05664 12.2531 8.05664H6.19809C4.66447 8.05664 3.42017 9.30872 3.42017 10.8519V18.1306C3.42017 19.6738 4.66447 20.9258 6.19809 20.9258H12.2531Z" fill="#660099" stroke="#F6CE00" stroke-width="5.60625"/>
        <path d="M52.4198 8.81289C51.9416 8.91129 51.5719 9.34226 51.5719 9.85269C51.5719 10.435 52.052 10.9192 52.6318 10.9192C53.2115 10.9192 53.6651 10.435 53.6651 9.85269C53.6651 9.26934 53.2115 8.81289 52.6318 8.81289C52.5593 8.81289 52.4881 8.79883 52.4198 8.81289ZM18.8222 9.0795V20.0642H21.4983V16.5448H22.2667C23.4018 16.5448 24.2518 16.4829 24.9429 16.0649C26.0345 15.3983 26.6651 14.2092 26.6651 12.7855C26.6651 11.4076 26.1755 10.3731 25.2078 9.69272C24.4702 9.16695 23.5778 9.0795 22.4257 9.0795H18.8222ZM36.7603 9.0795V20.0642H39.092V19.131C39.8117 19.8391 40.5504 20.1175 41.5297 20.1175C42.526 20.1175 43.4046 19.7773 44.1264 19.131C45.0781 18.2842 45.5572 17.1804 45.5572 15.8783C45.5572 14.6849 45.0919 13.6195 44.2324 12.7855C43.464 12.0283 42.5451 11.639 41.5032 11.639C40.4656 11.6529 39.7046 12.0411 39.198 12.7055V9.0795H36.7603ZM46.8025 9.0795V20.0642H49.2137V9.0795H46.8025ZM5.89185 10.0393V15.2384H7.16368V13.5587H7.53463C8.07198 13.5587 8.48003 13.516 8.80647 13.3187C9.32262 13.0052 9.62786 12.4453 9.62786 11.7723C9.62786 11.1218 9.36925 10.6547 8.91245 10.3326C8.56376 10.0841 8.15889 10.0393 7.61412 10.0393H5.89185ZM7.19018 11.2124H7.50814C8.06774 11.2124 8.32953 11.3671 8.32953 11.799C8.32953 12.2661 8.02641 12.4389 7.40215 12.4389H7.19018V11.2124ZM59.3619 11.5324C58.1738 11.5324 57.1585 11.9728 56.3148 12.8388C55.5019 13.6739 55.043 14.719 55.043 15.8783C55.043 17.0375 55.4648 18.12 56.2618 18.971C57.1055 19.8679 58.1229 20.3041 59.3884 20.3041C61.4085 20.3041 63.0131 19.099 63.6279 17.1047H61.0312C60.6295 17.6454 60.0784 17.9312 59.4149 17.9312C58.2427 17.9312 57.4277 17.1463 57.4277 15.8783C57.4277 14.7339 58.2395 13.9053 59.3354 13.9053C60.1377 13.9053 60.7175 14.2135 61.0577 14.7851H63.6279C62.9676 12.682 61.4435 11.5324 59.3619 11.5324ZM21.5248 11.559H22.2137C23.3955 11.559 23.9625 11.9259 23.9625 12.8388C23.9625 13.8296 23.3223 14.1719 22.0018 14.1719H21.5248V11.559ZM27.672 11.7723V17.238C27.672 19.1385 28.7997 20.2241 30.5072 20.2241C31.5713 20.2241 32.3418 19.8103 32.8653 18.9444V20.0642H35.1176V11.7723H32.7329V16.2782C32.7329 17.3894 32.258 17.9579 31.302 17.9579C30.3619 17.9579 30.1097 17.4353 30.1097 16.2782V11.7723H27.672ZM51.3864 11.7723V20.0642H53.7976V11.7723H51.3864ZM10.5552 13.3987C9.50916 13.3987 8.80647 14.0706 8.80647 14.9984C8.80647 15.6276 9.20286 16.1406 9.97232 16.4915C10.5393 16.7474 10.8997 16.7901 10.8997 17.2647C10.8997 17.5355 10.7004 17.6913 10.3963 17.6913C10.0836 17.6913 9.91932 17.4758 9.91932 17.0514C9.91932 17.03 9.91932 17.0194 9.91932 16.998H8.72698C8.72698 17.0343 8.72698 17.0684 8.72698 17.1047C8.72698 18.216 9.32792 18.811 10.4758 18.811C11.4349 18.811 12.1715 18.0645 12.1715 17.158C12.1715 16.5373 11.843 16.0841 11.1382 15.7183C10.4768 15.3749 10.1048 15.28 10.1048 14.8918C10.1048 14.6657 10.2691 14.5185 10.5022 14.5185C10.8001 14.5185 10.9792 14.7041 10.9792 15.0251H12.145C12.145 14.9963 12.145 14.9739 12.145 14.9451C12.145 14.0162 11.4858 13.3987 10.5552 13.3987ZM41.0793 13.7986C42.2282 13.7986 43.1195 14.7617 43.1195 15.8783C43.1195 17.0396 42.2398 17.9045 40.9998 17.9045C39.9579 17.9045 39.092 17.0514 39.092 15.9049C39.092 14.7115 39.9463 13.7986 41.0793 13.7986ZM22.2137 21.2106C19.9986 21.2106 18.5042 22.6333 18.5042 24.5966C18.5042 25.9255 19.3182 26.9738 20.9419 27.7161C22.148 28.2706 22.9026 28.3656 22.9026 29.3691C22.9026 29.9418 22.5179 30.2756 21.8693 30.2756C21.2047 30.2756 20.8624 29.8394 20.8624 28.9425C20.8624 28.8967 20.8624 28.8828 20.8624 28.8359H18.3452C18.3452 28.9137 18.3452 28.999 18.3452 29.0758C18.3452 31.4274 19.6245 32.6485 22.0547 32.6485C24.0844 32.6485 25.6318 31.0744 25.6318 29.1558C25.6318 27.8419 24.9185 26.8896 23.4326 26.1164C22.0283 25.3762 21.2334 25.2024 21.2334 24.3834C21.2334 23.9045 21.5873 23.5568 22.0812 23.5568C22.715 23.5568 23.0881 23.9429 23.0881 24.6233H25.5258C25.5258 24.5615 25.5258 24.5252 25.5258 24.4633C25.5258 22.501 24.1808 21.2106 22.2137 21.2106ZM27.9105 21.4506V24.1434H26.8771V25.9564H27.9105V32.4352H30.3747V25.9564H31.461V24.1434H30.3747V21.4506H27.9105ZM36.4954 23.9034C35.3698 23.9034 34.2771 24.377 33.4483 25.2099C32.6354 26.0279 32.1764 27.1093 32.1764 28.276C32.1764 29.4438 32.5972 30.5081 33.3953 31.3421C34.2389 32.2368 35.2585 32.6752 36.5219 32.6752C37.7693 32.6752 38.8038 32.2176 39.6485 31.3687C40.4773 30.5358 40.8938 29.4832 40.8938 28.2226C40.8938 27.0869 40.4179 25.9361 39.5425 25.1032C38.7137 24.3162 37.6973 23.9034 36.4954 23.9034ZM70.3845 23.9034C69.4116 24.0032 68.4865 24.4553 67.7613 25.1832C66.9473 25.9991 66.516 27.0858 66.516 28.2493C66.516 29.4246 66.9357 30.4665 67.7348 31.3154C68.5785 32.2112 69.5737 32.6485 70.8349 32.6485C72.6812 32.6485 74.0643 31.7655 74.8624 30.0356H72.1862C71.8174 30.3599 71.4062 30.4889 70.9144 30.4889C69.8545 30.4889 69.2483 30.0378 69.0332 29.1558H75.2333C75.2333 29.063 75.2333 28.967 75.2333 28.8892C75.2333 25.7858 73.439 23.9034 70.8084 23.9034C70.668 23.9034 70.5235 23.8892 70.3845 23.9034ZM46.3786 24.0101C45.4014 24.0176 44.7104 24.4292 44.3119 25.2632V24.1434H42.0332V32.4352H44.4708V28.3293C44.4708 26.7978 44.7899 26.2497 46.3256 26.2497C46.3415 26.2497 46.3638 26.2497 46.3786 26.2497V24.0101ZM50.989 24.0101C49.944 24.0101 49.0007 24.3994 48.2334 25.1565C47.3727 25.9905 46.9085 27.0591 46.9085 28.2493C46.9085 29.5483 47.413 30.6521 48.3658 31.502C49.0876 32.1515 49.9376 32.4885 50.936 32.4885C51.9196 32.4885 52.6519 32.2134 53.3737 31.502L53.4002 32.4352H55.7319V24.1434H53.3207V25.0766C52.7579 24.3524 51.9863 24.0101 50.989 24.0101ZM60.8192 24.0101C59.8028 24.0101 58.9221 24.3994 58.1696 25.1565C57.3407 25.9916 56.9242 27.0602 56.9242 28.2493C56.9242 30.6595 58.5765 32.4619 60.7927 32.4619C61.6586 32.4715 62.3687 32.1995 63.0449 31.582C63.0598 31.7207 63.0449 32.2166 63.0449 32.3552C63.0449 33.6222 62.3179 34.3282 61.2432 34.3282C60.5214 34.3282 60.019 33.9997 59.8653 33.475H57.1627C57.4701 35.2059 58.9835 36.3278 61.1637 36.3278C62.6994 36.3278 63.9564 35.8021 64.7407 34.7814C65.3862 33.9315 65.3766 33.0516 65.3766 31.9553V24.1434H63.0449V25.0766C62.5065 24.3695 61.7742 24.0101 60.8192 24.0101ZM70.8349 26.0897C71.8036 26.0897 72.5042 26.5643 72.7957 27.4228H68.9272C69.0967 26.6261 69.8196 26.0897 70.8349 26.0897ZM51.3864 26.1697C52.5237 26.1697 53.4002 27.0559 53.4002 28.2493C53.4002 29.3958 52.511 30.2756 51.4659 30.2756C50.2227 30.2756 49.3462 29.3851 49.3462 28.2226C49.3462 27.1071 50.2354 26.1697 51.3864 26.1697ZM61.2697 26.1964C62.2553 26.1964 63.1509 27.0442 63.1509 28.2493C63.1509 29.4075 62.2945 30.3023 61.2167 30.3023C60.108 30.3023 59.2294 29.3808 59.2294 28.2226C59.2294 27.0943 60.0688 26.1964 61.2697 26.1964ZM36.5484 26.223C37.6273 26.223 38.4826 27.1508 38.4826 28.3026C38.4826 29.4395 37.6273 30.3556 36.5484 30.3556C35.4853 30.3556 34.5876 29.4395 34.5876 28.3026C34.5876 27.1508 35.4705 26.223 36.5484 26.223ZM75.1804 32.3819C73.7358 32.3819 72.5307 33.5049 72.5307 35.0214C72.5307 36.5518 73.7358 37.6609 75.1804 37.6609C76.6112 37.6609 77.8565 36.5518 77.8565 35.0214C77.8565 33.5049 76.6112 32.3819 75.1804 32.3819ZM75.1804 32.8351C76.3674 32.8351 77.3266 33.7704 77.3266 35.0214C77.3266 36.2926 76.3674 37.2343 75.1804 37.2343C73.9795 37.2343 73.0606 36.2926 73.0606 35.0214C73.0606 33.7704 73.9795 32.8351 75.1804 32.8351ZM74.1735 33.5017V36.5411H74.6239V35.2347H75.1539L75.9488 36.5411H76.4787L75.6043 35.208C76.0484 35.1515 76.3992 34.8998 76.3992 34.3549C76.3992 33.7544 76.0547 33.5017 75.3393 33.5017H74.1735ZM74.6239 33.9016H75.2598C75.5789 33.9016 75.9223 33.9507 75.9223 34.3282C75.9223 34.7964 75.5693 34.8348 75.1804 34.8348H74.6239V33.9016Z" fill="white"/>
    </g>
    <defs>
        <clipPath id="clip0_38_1055">
            <rect width="80" height="40" fill="white"/>
        </clipPath>
    </defs>
</svg>
