<svg width="39" height="25" viewBox="0 0 39 25" fill="none" xmlns="http://www.w3.org/2000/svg">
<g id="PSG - Paris Saint-Germain Fan Token" clip-path="url(#clip0_502_899)">
<path id="Vector" d="M37.5505 25H0.658812C0.295003 25 0 24.7054 0 24.3421V0.657924C0 0.294605 0.295003 0 0.658812 0H37.5506C37.9144 0 38.2094 0.294605 38.2094 0.657924V24.3421C38.2093 24.7055 37.9143 25 37.5505 25Z" fill="#C1C1C1"/>
<g id="PSG - Paris Saint-Germain Fan Token_2">
<g id="layer1">
<g id="g53273">
<path id="path49486" d="M19 2C13.4856 2 9 6.48594 9 11.9998C9 17.5136 13.4856 22 19 22C24.514 22 29 17.5136 29 11.9998C29 6.48594 24.514 2 19 2Z" fill="#004170"/>
<path id="path49522" d="M21.4891 11.8934C20.3671 9.96643 19.7035 7.69126 19.654 5.03033C19.439 5.01153 19.2215 5 19.0016 5C18.7798 5 18.561 5.01152 18.3442 5.03093C18.2946 7.69126 17.6311 9.96643 16.5091 11.8934H21.4891ZM21.6535 12.1674H16.3445C15.4647 13.5964 14.3285 14.8296 13.0001 15.8789C13.5745 16.7341 14.3334 17.4596 15.2225 18C15.1896 17.8144 15.1717 17.6245 15.1717 17.4304C15.1717 15.4943 16.886 13.9246 19.0012 13.9246C21.1164 13.9246 22.8307 15.4943 22.8307 17.4304C22.8307 17.6245 22.8127 17.8144 22.7799 18C23.6677 17.4602 24.4267 16.736 25.0004 15.8813C23.6708 14.8314 22.5339 13.5977 21.6535 12.1674Z" fill="#E30613"/>
<path id="path49526" d="M19.988 5.07439C23.3843 5.55456 25.9966 8.47181 25.9966 12.0003C25.9966 13.1304 25.7272 14.197 25.2513 15.1422C22.1684 12.8296 20.2954 9.57046 19.988 5.07439ZM22.6837 17.9484C22.7157 17.7635 22.7332 17.5745 22.7332 17.3812C22.7332 15.4533 21.0619 13.8902 18.9999 13.8902C16.9378 13.8902 15.2665 15.4533 15.2665 17.3812C15.2665 17.5745 15.2841 17.7635 15.3167 17.9484C14.4493 17.4102 13.7094 16.6878 13.1501 15.8362C14.4445 14.7913 15.5522 13.5634 16.4099 12.1404H21.5856C22.4439 13.5646 23.5522 14.7931 24.8484 15.8386C24.2891 16.6897 23.5498 17.4108 22.6837 17.9484ZM21.5107 18.5306C20.7309 18.8308 19.8853 18.9969 18.9999 18.9969C18.115 18.9969 17.2694 18.8308 16.4896 18.5306C16.2052 18.0988 16.0403 17.589 16.0403 17.0418C16.0403 15.4895 17.3654 14.2308 18.9999 14.2308C20.6349 14.2308 21.9601 15.4895 21.9601 17.0418C21.9601 17.589 21.7952 18.0988 21.5107 18.5306ZM12.0031 12.0003C12.0031 8.47121 14.6166 5.55396 18.0135 5.07439C17.7061 9.57046 15.8325 12.8302 12.7491 15.1428C12.2731 14.1976 12.0031 13.131 12.0031 12.0003ZM18.9999 5.00373C19.2149 5.00373 19.4263 5.0146 19.6365 5.03393C19.6842 7.68301 20.3317 9.94856 21.4255 11.8674H16.57C17.6644 9.94856 18.3113 7.68301 18.3596 5.03393C18.5704 5.0152 18.7842 5.00373 18.9999 5.00373ZM18.9999 4.5C14.8643 4.5 11.5 7.86481 11.5 12.0003C11.5 16.1358 14.8643 19.5 18.9999 19.5C23.1355 19.5 26.5003 16.1358 26.5003 12.0003C26.5003 7.86481 23.1355 4.5 18.9999 4.5Z" fill="white"/>
<path id="path49542" d="M20.0477 16.3665C19.717 16.3665 19.3989 16.6497 19.2148 17.1668C19.2115 17.1738 19.2093 17.1826 19.2093 17.1914C19.2087 17.2243 19.2335 17.2512 19.2644 17.2518C19.2864 17.2518 19.3052 17.2389 19.3151 17.2196C19.3151 17.2182 19.3156 17.2179 19.3156 17.2165C19.3162 17.2165 19.3162 17.2159 19.3162 17.2152C19.4573 16.891 19.7197 16.7386 19.8686 16.7386C19.9523 16.7386 20.0202 16.8107 20.0202 16.8998C20.0202 16.9889 19.9523 17.061 19.8686 17.061C19.8608 17.061 19.8487 17.06 19.8415 17.0587C19.8349 17.0577 19.8189 17.0534 19.8107 17.0727C19.8046 17.0886 19.7919 17.166 19.857 17.2451C19.895 17.2908 19.9733 17.3289 20.0477 17.3289C20.298 17.3289 20.5003 17.1132 20.5003 16.8476C20.5003 16.5814 20.298 16.3665 20.0477 16.3665ZM18.7858 17.1665C18.6011 16.6494 18.2831 16.3663 17.9528 16.3663C17.7026 16.3663 17.5002 16.582 17.5002 16.8476C17.5002 17.1132 17.7026 17.3289 17.9528 17.3289C18.0273 17.3289 18.1055 17.2908 18.1436 17.2451C18.2086 17.166 18.196 17.0886 18.1893 17.0733C18.1816 17.0534 18.1656 17.0575 18.159 17.0587C18.1519 17.06 18.1397 17.061 18.132 17.061C18.0482 17.061 17.9804 16.9889 17.9804 16.8998C17.9804 16.8113 18.0482 16.7392 18.132 16.7392C18.2803 16.7392 18.5433 16.891 18.6838 17.2158C18.6838 17.2165 18.6844 17.2165 18.6844 17.2171C18.6849 17.2178 18.6855 17.2185 18.6855 17.2195C18.6948 17.2388 18.7141 17.2523 18.7356 17.2517C18.7671 17.2511 18.7919 17.2242 18.7913 17.1913C18.7913 17.1826 18.7891 17.1742 18.7858 17.1665ZM19.4521 16.1432C19.4521 15.8659 19.1109 15 19.0078 15C19 15 18.9918 15.0041 18.9824 15.0123C18.8578 15.119 18.5629 15.8853 18.5629 16.1432C18.5629 16.3502 18.9559 16.8954 18.9559 17.1921C18.9559 17.2226 18.9791 17.2472 19.0078 17.2472C19.0359 17.2472 19.0596 17.2226 19.0596 17.1921C19.0596 17.1914 19.059 17.1908 19.059 17.1904C19.0607 16.8938 19.4521 16.3496 19.4521 16.1432ZM19.2346 17.6676C19.1602 17.6189 19.1034 17.5415 19.083 17.4489C19.0736 17.4137 19.0439 17.3873 19.0075 17.3873C18.9717 17.3873 18.9413 17.4137 18.932 17.4489C18.9116 17.5415 18.8548 17.6189 18.7804 17.6676C18.7666 17.6764 18.7655 17.6828 18.771 17.694C18.8162 17.7895 18.8928 17.908 18.9865 17.9883C18.9998 17.9994 19.0047 18 19.0075 18C19.0108 18 19.0152 17.9993 19.0284 17.9883C19.1227 17.908 19.1988 17.7895 19.244 17.694C19.2495 17.6828 19.2484 17.6764 19.2346 17.6676Z" fill="#CEAB5D"/>
</g>
</g>
</g>
</g>
<defs>
<clipPath id="clip0_502_899">
<rect width="38.2094" height="25" fill="white"/>
</clipPath>
</defs>
</svg>
