<svg width="66" height="20" viewBox="0 0 66 20" fill="none" xmlns="http://www.w3.org/2000/svg">
    <g clip-path="url(#clip0_222:166)">
        <path d="M41.1554 14.068C41.131 14.0046 41.0635 13.968 40.9973 13.9831L40.9768 13.989C40.7808 14.0308 40.6299 14.019 40.524 13.9485C40.3738 13.8485 40.301 13.6227 40.301 13.2583V9.96565C40.301 8.67938 39.5238 8.02711 37.9896 8.02711C36.6161 8.02711 35.5398 8.66828 35.5398 9.48705C35.5398 9.90819 35.8 10.2124 36.1839 10.2582C36.4348 10.2882 36.6743 10.1759 36.8477 9.99503C37.1854 9.64375 37.1424 9.22523 36.7326 8.77667C36.9749 8.52659 37.4038 8.37903 37.893 8.37903C38.6898 8.37903 39.0301 8.84522 39.0301 9.93822V10.7707C38.8434 10.8275 38.6687 10.8811 38.3484 10.9555C37.703 11.105 36.8173 11.3041 36.1495 11.6678C35.5981 11.9662 35.3181 12.437 35.3181 13.067C35.3181 13.7533 35.7749 14.5544 37.0616 14.5544C37.7824 14.5544 38.4278 14.2175 39.0903 13.494C39.1479 14.2456 39.4365 14.5277 40.1368 14.5277C40.4737 14.5277 40.7431 14.45 41.0635 14.2971C41.1501 14.2553 41.1912 14.1562 41.1554 14.068ZM39.0301 13.0618C38.8739 13.2766 38.3629 13.9159 37.7261 13.9159C36.8663 13.9159 36.6856 13.3203 36.6856 12.8209C36.6856 11.9995 37.3237 11.6195 39.0301 11.2036V13.0618ZM55.5195 14.5825C53.6967 14.5825 52.3218 13.1735 52.3218 11.3047C52.3218 9.47529 53.7561 7.98662 55.5195 7.98662C57.3047 7.98662 58.7039 9.4198 58.7039 11.2506C58.7039 13.3086 57.0512 14.5825 55.5195 14.5825ZM55.4507 8.3379C54.663 8.3379 53.7582 8.6722 53.7582 11.2774C53.7582 13.2649 54.3526 14.2305 55.5751 14.2305C56.7447 14.2305 57.267 13.3203 57.267 11.2774C57.267 9.29966 56.6726 8.3379 55.4507 8.3379ZM27.3375 8.10415C27.3375 9.62025 26.9589 10.4547 25.0221 10.4547H23.9955V5.87507H25.0638C27.0674 5.87507 27.3375 7.00201 27.3375 8.10415ZM23.9955 13.2583V10.8758H24.9255C26.3129 10.8758 27.3679 10.5866 28.0623 10.0153C28.7884 9.41784 28.9407 8.6611 28.9407 8.13158C28.9407 5.95342 26.8099 5.49637 25.0221 5.49637L25.0295 5.49573H21.4041C21.3221 5.49573 21.2553 5.56233 21.2553 5.64264V5.65243V5.64984C21.2553 5.72427 21.3009 5.79087 21.3724 5.81633C21.6954 5.93386 22.5724 5.76932 22.5724 6.69712V13.2571C22.5724 13.7343 22.3579 14.0713 21.3777 14.1627C21.2996 14.1698 21.2413 14.2325 21.2413 14.3082V14.3311C21.2413 14.412 21.3075 14.4773 21.3896 14.4773H25.2631C25.3451 14.4773 25.412 14.412 25.412 14.3311V14.3108C25.412 14.2351 25.3511 14.1711 25.273 14.1646C24.208 14.0804 23.9942 13.7552 23.9942 13.2571V10.8804L23.9955 13.2583ZM31.8722 7.98336C30.1863 7.98336 28.8142 9.48901 28.8142 11.34C28.8142 13.214 30.1003 14.574 31.8722 14.574C33.3608 14.574 34.0856 13.6965 34.5006 13.037C34.5417 12.9717 34.5238 12.8855 34.4602 12.8404L34.4404 12.8268C34.3762 12.7818 34.2869 12.7948 34.2372 12.8561C33.6898 13.5332 33.2106 13.925 32.3832 13.925C31.3367 13.925 30.2188 13.214 30.2188 11.2173V11.2029C30.2168 11.1148 30.2188 10.994 30.2221 10.8811H34.504C34.5159 10.8811 34.5251 10.8719 34.5258 10.8601L34.5285 10.8262C34.5894 10.0081 34.3544 9.27224 33.8673 8.75577C33.3913 8.25041 32.7016 7.98336 31.8723 7.98336H31.8722ZM30.2459 10.4606C30.3869 9.09464 30.9271 8.34574 31.7756 8.34574C32.1999 8.34574 32.5149 8.46195 32.7373 8.70093C33.0431 9.02804 33.1729 9.62025 33.1219 10.4606H30.2459ZM49.6199 10.5337H49.6186C48.4477 10.2092 47.9916 9.88142 47.9916 9.36364C47.9916 8.77406 48.4662 8.34574 49.1202 8.34574C49.8893 8.34574 50.2189 8.70877 51.0311 10.0479L51.0417 10.0655C51.0457 10.0727 51.053 10.0766 51.053 10.0766H51.1721C51.2541 10.0766 51.3211 10.0107 51.3211 9.92973V8.00491C51.3211 7.99315 51.3111 7.98336 51.3111 7.98336H51.1515C51.1072 7.98336 51.0649 8.00295 51.037 8.0369L50.7776 8.34769C50.4507 8.1701 49.9178 7.98336 49.383 7.98336C48.0379 7.98336 47.0987 8.80279 47.0987 9.97674C47.0987 11.0789 47.8394 11.4916 49.1182 11.8323C50.3605 12.1679 50.8014 12.5173 50.8014 13.1657C50.8014 13.8871 50.0932 14.211 49.5901 14.211C48.6542 14.211 48.259 13.8682 47.3622 12.279L47.3516 12.2601C47.3476 12.2528 47.3403 12.2483 47.3403 12.2483H47.2198C47.1377 12.2483 47.0709 12.3149 47.0709 12.3952V14.5518C47.0709 14.5642 47.0808 14.574 47.0934 14.574H47.2456C47.2847 14.574 47.3231 14.5584 47.3509 14.5309L47.7606 14.1268C48.2405 14.4206 48.958 14.574 49.4239 14.574C50.1236 14.574 50.6988 14.3553 51.0874 13.942C51.4341 13.573 51.6248 13.0507 51.6248 12.4709C51.6248 11.4667 51.0814 10.9418 49.6199 10.5337ZM42.5342 13.7036C42.5342 14.036 42.4488 14.145 41.912 14.1783C41.8339 14.1835 41.773 14.2475 41.773 14.3246C41.773 14.4055 41.8398 14.4708 41.9219 14.4708H44.5716C44.6523 14.4708 44.7178 14.4062 44.7178 14.3272C44.7178 14.2488 44.6563 14.1842 44.5769 14.1809C43.9639 14.1516 43.8051 14.0537 43.8051 13.7036V9.87097C44.2413 9.15536 44.5544 8.78059 45.0839 8.66763C45.0581 8.75839 45.0415 8.86612 45.0415 8.95426C45.0415 9.4198 45.3712 9.74496 45.8431 9.74496C46.3064 9.74496 46.6308 9.4198 46.6308 8.95426C46.6308 8.5142 46.3521 7.99969 45.5657 7.99969C44.9217 7.99969 44.3061 8.36402 43.7772 9.23567V8.24976C43.7772 8.1492 43.6932 8.06824 43.5913 8.07086L41.9219 8.11526C41.8406 8.11785 41.7777 8.18186 41.7777 8.26151V8.2824C41.7777 8.35488 41.8306 8.4169 41.9015 8.4267C42.4581 8.5044 42.5349 8.76557 42.5342 9.03653V13.7036ZM60.8605 8.06694C60.8988 8.06694 60.9359 8.08195 60.9631 8.10873C60.9929 8.13615 61.0087 8.17271 61.0093 8.21319L61.0146 9.30619C61.0146 9.30619 61.5588 8.02384 63.3234 8.02384H63.3393C64.4394 8.02384 65.0702 8.71595 65.0702 9.92255V13.6977C65.0702 14.0301 65.1562 14.1392 65.6924 14.1724C65.7705 14.177 65.8314 14.241 65.8314 14.3187C65.8314 14.399 65.7645 14.4649 65.6831 14.4649H63.3022C63.2202 14.4649 63.1533 14.399 63.1533 14.3181C63.1533 14.2397 63.2135 14.1757 63.2889 14.1692C63.7218 14.1326 63.7907 14.0249 63.7907 13.6977V10.2908C63.7907 9.16516 63.4664 8.72769 62.6343 8.72769C62.0717 8.72769 61.6117 9.21152 61.3244 9.61764C61.3244 9.61764 61.1775 9.79915 61.0186 10.1413L61.0359 13.6971C61.0359 14.0243 61.1034 14.132 61.5237 14.1686C61.5992 14.1751 61.6587 14.2397 61.6587 14.3148C61.6587 14.399 61.5918 14.4649 61.5104 14.4649H59.1441C59.0627 14.4649 58.9959 14.399 58.9959 14.3181C58.9959 14.241 59.0574 14.177 59.1348 14.1718C59.671 14.1385 59.7564 14.0301 59.7564 13.6977V9.03718C59.7564 8.76557 59.6796 8.50309 59.1202 8.42475C59.0495 8.41495 58.9959 8.35227 58.9959 8.27979V8.25825C58.9959 8.17794 59.0593 8.11396 59.1408 8.11134L60.8605 8.06694Z" fill="#3D3935"/>
        <path d="M14.3509 1.4299C18.5467 3.78827 19.5237 9.07566 16.6041 14.4258C14.0385 19.1282 8.43611 21.1365 4.26146 18.7428C0.086152 16.3479 -0.728656 9.66786 1.06578 5.82409C3.67104 0.241581 9.71491 -1.17658 14.3509 1.4299Z" fill="#007FA3"/>
        <path d="M14.2535 5.48659C15.075 6.3517 15.3305 7.66409 15.1882 8.74076C15.0247 9.96826 14.2701 11.1044 13.0158 11.8572C12.0209 12.4553 10.7138 12.693 9.42764 12.7046C9.41704 12.9058 9.37667 13.5985 9.35614 13.7082C9.32636 13.8695 9.26878 13.957 9.19861 14.0471C9.06027 14.2253 8.82066 14.3396 8.58238 14.4068C8.39373 14.4591 8.20641 14.4826 8.07337 14.4826C8.05153 14.4826 8.02969 14.4806 8.00784 14.4787C7.86818 14.463 7.71263 14.3977 7.61665 14.2926C7.52068 14.1861 7.4664 14.0529 7.45383 13.9015L7.44323 13.7644C7.4161 13.6469 7.26717 7.68172 7.29563 7.78815C7.31747 7.07319 8.48706 6.94913 9.12183 7.07515C9.75792 7.20116 9.59708 7.96378 9.57987 8.90073C9.57987 8.90073 9.54943 10.1328 9.49051 11.4348C10.3007 11.4041 10.9441 11.1762 11.5457 10.8817C12.7617 10.2862 13.405 9.3741 13.405 8.03103C13.405 6.68797 12.0799 5.18363 9.63415 5.18363C7.1884 5.18363 6.13862 5.79215 4.95446 6.75848C4.68772 6.97656 4.48187 7.19595 4.28792 7.34024C4.09332 7.48454 3.57638 7.50674 3.4387 7.16852C3.27124 6.7611 3.583 6.30665 3.76634 6.08662C4.05427 5.74122 4.76318 5.04586 5.54952 4.64169C6.45038 4.17812 7.55179 3.67863 9.08542 3.64011C10.4727 3.60616 12.6636 3.7165 14.2416 5.47483L14.2535 5.48659ZM8.94907 15.3627C8.82133 15.2648 8.67836 15.1975 8.53339 15.1694C8.48442 15.1597 8.43345 15.1545 8.38381 15.1545C8.1111 15.1545 7.84303 15.3026 7.66828 15.5514C7.52267 15.7577 7.46243 16.0053 7.50082 16.2441C7.52597 16.3976 7.58356 16.5302 7.66961 16.6287C7.76558 16.7398 7.91252 16.8253 8.09522 16.8769C8.20045 16.9056 8.30835 16.9212 8.41624 16.9212H8.41691C8.65255 16.9212 8.86436 16.8507 9.02918 16.7202C9.22047 16.5654 9.32439 16.3466 9.3224 16.1019C9.31977 15.8178 9.18075 15.5403 8.94909 15.3627" fill="white"/>
    </g>
    <defs>
        <clipPath id="clip0_222:166">
            <rect width="66" height="19.9322" fill="white"/>
        </clipPath>
    </defs>
</svg>
