<svg width="40" height="40" viewBox="0 0 40 40" fill="none" xmlns="http://www.w3.org/2000/svg">
    <g clip-path="url(#clip0_41_806)">
        <path d="M19.9971 40.0003C22.0222 37.3087 24.8325 36.7573 28.3192 36.4253C32.4444 36.0326 34.2855 35.6115 36.6435 32.981C38.1237 31.3334 39.1542 28.655 39.1542 26.2279C39.1542 24.5333 39.0667 23.136 38.229 20.7081C36.4362 15.5072 35.8731 13.5558 39.9931 8.78578L31.4015 0.178143C29.5541 1.72161 25.5457 4.41639 19.9971 0C14.4036 4.45965 10.5247 1.68062 8.58892 0.178143L0 8.78578C4.0972 13.5558 3.71646 15.5194 1.76283 20.7081C0.882872 23.0473 0.83717 24.5948 0.83717 26.2279C0.83717 28.6562 1.78437 31.3249 3.34838 32.981C5.78428 35.5602 7.62197 36.0301 11.6722 36.4253C15.2836 36.7778 17.9707 37.3519 19.9971 40.0003Z" fill="white"/>
        <path d="M19.9971 38.9407C22.0667 36.6022 25.2022 36.0793 28.3599 35.7617C32.3264 35.3639 33.8742 34.9517 36.0716 32.5832C37.4973 31.0464 38.4478 28.6551 38.4478 26.228C38.4478 24.5974 38.1889 22.6148 37.4367 20.5759C35.3867 15.0117 35.8465 12.7177 39.0668 8.8318L31.314 1.06013C31.314 1.06013 26.3373 5.69508 19.9971 0.797363C13.6976 5.69508 8.67688 1.06013 8.67688 1.06013L0.924805 8.8318C4.22304 12.7177 4.69431 15.0546 2.55708 20.5759C1.76285 22.6199 1.54183 24.5974 1.54183 26.228C1.54183 28.6092 2.47863 31.1126 3.92162 32.5832C6.19567 34.9055 7.67616 35.3211 11.6276 35.7617C14.8007 36.1162 17.9282 36.6022 19.9971 38.9407Z" fill="#161413"/>
        <path d="M19.997 37.0426C23.213 34.9671 24.84 35.0104 28.1423 34.5265C31.008 34.1028 32.8829 33.8772 34.9694 31.7903C37.9214 28.829 37.6358 24.6272 35.8527 19.8703C33.7797 14.35 35.6107 11.1262 37.3473 8.91886L31.1819 2.73765C31.1819 2.73765 26.3371 6.57752 19.997 2.42871C13.6545 6.57752 8.80766 2.73765 8.80766 2.73765L2.63794 8.91886C4.3606 11.1262 6.25565 14.3058 4.14126 19.8703C2.3256 24.6442 2.11507 28.829 5.02165 31.7903C7.09034 33.8925 8.9485 34.1105 11.8473 34.5265C15.2399 35.0104 16.7814 34.9671 19.997 37.0426Z" fill="white"/>
        <path d="M19.9972 35.0561C23.4797 33.1197 25.6005 33.3169 29.5069 32.7176C36.1863 31.688 35.7777 26.0876 35.355 23.9116C35.251 23.3747 35.0568 22.5326 34.8994 22.0749C34.3591 20.502 33.137 17.4921 33.3384 14.4844H6.65356C6.90419 17.6266 5.56504 20.829 5.04298 22.3218C4.92771 22.6551 4.77707 23.2586 4.69774 23.619C4.28004 25.5236 3.5211 31.6036 10.4821 32.7176C14.6524 33.3852 16.5117 33.1197 19.9972 35.0561Z" fill="#E20010"/>
        <path d="M11.0544 6.94629H12.1127V9.19907H13.2071V6.94629H14.3191V12.6415H13.2071V10.205H12.1127V12.6415H11.0544V6.94629Z" fill="#161413"/>
        <path d="M15.4709 6.94385H16.6194V12.6427H15.4709V6.94385Z" fill="#161413"/>
        <path d="M31.4316 6.74414C33.0537 6.74414 33.1737 7.77295 33.1514 8.57688H32.0239C32.0192 7.32067 30.7911 7.51135 30.8017 8.29145C30.806 8.72337 31.5958 9.17926 32.2502 9.5819C32.8365 9.94554 33.2415 10.5297 33.2579 11.1688C33.2685 11.7292 33.0159 12.7816 31.4316 12.7816C29.816 12.7816 29.684 11.5768 29.6807 10.8932H30.7611C30.7611 12.2899 32.0691 12.1217 32.0813 11.2097C32.0813 11.2097 32.1601 10.7838 31.4392 10.3499C30.6279 9.86494 29.7115 9.50033 29.7352 8.31393C29.7352 7.98719 29.8047 6.74414 31.4316 6.74414Z" fill="#161413"/>
        <path d="M20.7297 6.94629H21.8754V11.7491H23.1178V12.6425H20.7297V6.94629Z" fill="#161413"/>
        <path d="M17.77 6.93359H18.9157V11.7388H20.1558V12.6303H17.77V6.93359Z" fill="#161413"/>
        <path fill-rule="evenodd" clip-rule="evenodd" d="M7.07715 6.92482V12.6701H8.22684V10.7962C8.546 10.7837 10.4218 10.9792 10.4656 8.95635C10.5254 6.71232 8.62298 6.92482 8.22684 6.92482H7.07715ZM8.22684 7.7893V9.8467C8.39622 9.8467 9.41086 10.0787 9.40841 8.79656C9.40438 7.65909 8.45904 7.7893 8.22684 7.7893Z" fill="#161413"/>
        <path fill-rule="evenodd" clip-rule="evenodd" d="M25.9565 6.92482V12.6701H27.1055V10.7962C27.4237 10.7837 29.2994 10.9792 29.3456 8.95635C29.4026 6.71232 27.5015 6.92482 27.1055 6.92482H25.9565ZM27.1055 7.7893V9.8467C27.2743 9.8467 28.287 10.0787 28.2854 8.79656C28.2808 7.65909 27.3382 7.7893 27.1055 7.7893Z" fill="#161413"/>
        <path d="M23.6792 6.94629H24.8286V12.6415H23.6792V6.94629Z" fill="#161413"/>
        <path fill-rule="evenodd" clip-rule="evenodd" d="M28.2541 21.5751C30.6104 22.4296 30.0305 25.4503 28.8455 27.396C27.3711 29.8247 24.1446 30.1186 22.2396 29.3836C19.2043 28.2129 20.1226 24.8282 21.1186 22.0335C22.5493 18.016 25.3249 16.1157 28.9572 17.3331C30.8998 17.9785 31.1786 19.9434 30.984 20.5102L27.8353 20.2782C27.8353 20.2782 28.0332 18.9813 27.1296 18.9813C25.7441 18.9813 24.8485 21.9437 24.8485 21.9437C24.8485 21.9437 26.1749 20.8211 28.2541 21.5751ZM23.8721 24.9224C24.2576 24.0449 24.8532 23.1052 25.6342 23.268C26.6876 23.4877 26.3254 24.8939 25.9557 25.8926C25.5847 26.9002 24.8401 27.9948 23.9251 27.7466C23.0756 27.5207 23.4288 25.9304 23.8721 24.9224ZM16.6451 21.5751C19.0008 22.4296 18.4206 25.4503 17.2401 27.396C15.7641 29.8247 12.5365 30.1186 10.6307 29.3836C7.59385 28.2129 8.50909 24.824 9.5098 22.0335C10.92 18.1042 13.6059 16.0939 17.3494 17.3331C19.2946 17.9713 19.5702 19.9434 19.3748 20.5102L16.2263 20.2782C16.2263 20.2782 16.4258 18.9813 15.5221 18.9813C14.136 18.9813 13.2403 21.9437 13.2403 21.9437C13.2403 21.9437 14.5658 20.8211 16.6451 21.5751ZM12.2877 24.9224C12.6768 24.0449 13.2415 23.1052 14.0249 23.268C15.0817 23.4877 14.7151 24.8939 14.3478 25.8926C13.9751 26.9002 13.232 27.9948 12.3178 27.7466C11.4646 27.5207 11.8451 25.9304 12.2877 24.9224Z" fill="white"/>
        <path d="M38.4475 35.6906H38.6903C38.8964 35.6906 39.0846 35.68 39.0846 35.4429C39.0846 35.2441 38.9132 35.2127 38.7559 35.2127H38.4475V35.6906ZM38.2139 35.0239H38.7931C39.1497 35.0239 39.3177 35.1651 39.3177 35.4531C39.3177 35.7245 39.1464 35.8378 38.9234 35.8619L39.352 36.5248H39.1015L38.6941 35.8793H38.4475V36.5248H38.2139V35.0239ZM38.7144 36.872C39.3075 36.872 39.7661 36.398 39.7661 35.7695C39.7661 35.1545 39.3075 34.6805 38.7144 34.6805C38.1145 34.6805 37.6559 35.1545 37.6559 35.7695C37.6559 36.398 38.1145 36.872 38.7144 36.872ZM38.7144 34.4917C39.4133 34.4917 39.9996 35.0452 39.9996 35.7695C39.9996 36.5078 39.4133 37.0608 38.7144 37.0608C38.0126 37.0608 37.4229 36.5078 37.4229 35.7695C37.4229 35.0452 38.0126 34.4917 38.7144 34.4917Z" fill="#161413"/>
    </g>
    <defs>
        <clipPath id="clip0_41_806">
            <rect width="40" height="40" fill="white"/>
        </clipPath>
    </defs>
</svg>
