<?xml version="1.0" encoding="UTF-8"?>
<svg width="512px" height="512px" viewBox="0 0 512 512" version="1.1" xmlns="http://www.w3.org/2000/svg" xmlns:xlink="http://www.w3.org/1999/xlink">
    <!-- Generator: Sketch 48.1 (47250) - http://www.bohemiancoding.com/sketch -->
    <title>#PYPL</title>
    <desc>Created with Sketch.</desc>
    <defs></defs>
    <g id="Компании-BIG" stroke="none" stroke-width="1" fill="none" fill-rule="evenodd">
        <g id="#PYPL" fill-rule="nonzero">
            <g id="paypal-icon" transform="translate(46.000000, 1.000000)">
                <path d="M368.874962,38.5994155 C345.203284,11.5827165 302.412826,0 247.671008,0 L88.7952109,0 C77.6062143,0.000414848609 68.078195,8.14676182 66.3246145,19.2121017 L0.171667995,439.325003 C-1.14323649,447.609308 5.26310047,455.111111 13.6485895,455.111111 L111.732989,455.111111 L136.366213,298.660234 L135.601733,303.559371 C137.356638,292.50059 146.802205,284.343868 157.987387,284.343868 L204.596844,284.343868 C296.161084,284.343868 367.857355,247.103622 388.800692,139.375343 C389.422468,136.189203 389.961002,133.088117 390.426485,130.058477 C387.783085,128.65678 387.783085,128.65678 390.426485,130.058477 C396.662937,90.2410821 390.384014,63.1376275 368.874962,38.5994155" id="Shape" fill="#27346A"></path>
                <path d="M173.896731,115.717921 C176.578201,114.439387 179.511032,113.776822 182.480968,113.778628 L307.036502,113.778628 C321.785829,113.778628 335.543034,114.739769 348.114448,116.765819 C351.632242,117.327472 355.13183,117.99804 358.608181,118.776559 C363.535385,119.865284 368.405699,121.197771 373.201215,122.76912 C379.381594,124.835998 385.137263,127.243102 390.42745,130.06188 C396.662192,90.228133 390.38328,63.1392795 368.87427,38.6004254 C345.189046,11.5830196 302.412261,0 247.670547,0 L88.7814605,0 C77.5946006,0 68.0777002,8.1552351 66.3244976,19.2126043 L0.171676941,439.321188 C-1.14322504,447.619318 5.26309973,455.111111 13.6349821,455.111111 L111.732786,455.111111 L162.838983,130.58583 C163.859057,124.110594 167.993485,118.551568 173.896731,115.717921 Z" id="Shape" fill="#27346A"></path>
                <path d="M388.64212,139.607295 C367.695224,247.280066 295.988468,284.521717 204.406969,284.521717 L157.775999,284.521717 C146.588916,284.521717 137.140045,292.675396 135.401833,303.73005 L104.751196,498.185509 C103.605981,505.432845 109.206319,512 116.532975,512 L199.229715,512 C209.016014,511.997388 217.347405,504.873094 218.876775,495.199511 L219.682163,490.982384 L235.268298,392.124769 L236.272485,386.661209 C237.801754,376.988262 246.13219,369.864168 255.917846,369.86072 L268.294321,369.86072 C348.403283,369.86072 411.130128,337.290217 429.46036,243.091847 C437.11155,203.726328 433.152574,170.859946 412.912517,147.774578 C406.773554,140.782309 399.14955,135.007566 390.268189,130.293907 C389.787334,133.33772 389.265701,136.422344 388.64212,139.607295 Z" id="Shape" fill="#2790C3"></path>
                <path d="M368.925925,121.281482 C365.657123,120.330515 362.357351,119.488588 359.032127,118.75711 C355.550452,117.99444 352.047587,117.331168 348.527833,116.768108 C335.930161,114.736751 322.169314,113.777828 307.391538,113.777828 L182.725949,113.777828 C179.750766,113.771105 176.812793,114.436679 174.133072,115.724475 C168.216669,118.538215 164.074429,124.078646 163.062494,130.531866 L136.56453,297.916376 L135.799283,302.795699 C137.542346,291.781643 146.997402,283.657908 158.195521,283.657908 L204.865404,283.657908 C296.521625,283.657908 368.288219,246.568274 389.252594,139.275681 C389.876696,136.102427 390.400465,133.027436 390.88172,129.996496 C385.572605,127.204438 379.826448,124.791884 373.638148,122.746973 C372.076638,122.23125 370.506226,121.742679 368.927625,121.281482" id="Shape" fill="#1F264F"></path>
            </g>
        </g>
    </g>
</svg>