<svg width="538" height="99" viewBox="0 0 538 99" fill="none" xmlns="http://www.w3.org/2000/svg">
    <path d="M145.104 28.3346C146.544 28.3346 147.779 29.501 147.779 31.0103V82.1224C147.779 83.5632 146.476 84.7295 145.104 84.7295H138.174C136.871 84.7295 135.567 83.7004 135.567 82.2596V77.5258C132.068 82.6713 126.031 86.2388 117.249 86.2388C102.567 86.2388 93.5112 76.4967 93.5112 62.0206V30.8731C93.5112 29.4323 94.8147 28.266 96.1868 28.266H103.116C104.557 28.266 105.723 29.4323 105.723 30.8731V60.031C105.723 69.4302 110.663 75.6734 120.405 75.6734C129.941 75.6734 135.567 69.2243 135.567 60.1682V30.8731C135.567 29.4323 136.871 28.266 138.174 28.266H145.104V28.3346ZM42.8793 0C19.1413 0 0 18.4552 0 43.0851C0 67.7836 19.1413 86.1702 42.8793 86.1702C46.9271 86.1702 50.8377 85.6214 54.5425 84.5923L59.2077 96.5985C59.688 97.902 60.6485 98.7253 62.3636 98.7253H69.7732C71.557 98.7253 72.8605 97.559 72.0372 95.2949L65.9998 79.584C77.8688 72.1058 85.7586 58.8647 85.7586 43.0165C85.7586 18.4552 66.6173 0 42.8793 0ZM61.5404 68.1266L56.1204 54.0622C55.6402 52.8959 54.6797 51.7982 52.6215 51.7982H45.555C43.7712 51.7982 42.399 52.9645 43.2223 55.2285L50.3574 73.6838C48.0248 74.3012 45.4864 74.5757 42.8793 74.5757C25.5218 74.5757 13.1725 60.9229 13.1725 43.0851C13.1725 25.2473 25.5218 11.5946 42.8793 11.5946C60.2368 11.5946 72.5861 25.2473 72.5861 43.0851C72.5861 53.5134 68.401 62.4323 61.5404 68.1266ZM537.398 81.848C538.015 83.2887 537.26 84.6609 535.545 84.6609H527.793C526.352 84.6609 525.186 83.9748 524.705 82.5341L510.367 43.977L495.822 82.5341C495.204 84.0434 494.175 84.6609 492.735 84.6609H485.805C484.365 84.6609 483.335 84.0434 482.718 82.5341L468.036 43.7712L453.56 82.5341C452.943 83.9748 451.913 84.6609 450.473 84.6609H443.2C441.76 84.6609 440.731 83.9748 440.113 82.5341L425.774 43.7712L410.955 82.5341C410.338 84.0434 409.309 84.6609 407.868 84.6609H400.939C399.498 84.6609 398.469 84.0434 397.851 82.5341L383.375 43.7712L368.899 82.5341C368.419 83.9748 367.253 84.6609 365.812 84.6609H358.265C356.481 84.6609 355.795 83.2201 356.413 81.848L376.034 30.5301C376.652 29.0207 377.681 28.266 379.122 28.266H387.56C389.001 28.266 390.03 28.9521 390.648 30.5301L404.781 67.9894L418.776 30.5301C419.394 29.0207 420.423 28.266 421.864 28.266H430.165C431.606 28.266 432.635 28.9521 433.252 30.5301L447.111 67.9894L460.97 30.5301C461.587 29.0207 462.616 28.266 464.057 28.266H472.427C473.868 28.266 474.897 28.9521 475.514 30.5301L489.579 67.9894L503.3 30.5301C503.917 29.0207 504.947 28.266 506.387 28.266H514.826C516.267 28.266 517.296 28.9521 517.913 30.5301L537.398 81.848ZM212.27 28.3346H205.34C203.9 28.3346 202.665 29.501 202.665 31.0103V35.6756C199.166 30.3928 192.305 26.6195 184.209 26.6195C168.91 26.6195 155.806 38.6943 155.806 56.3262C155.806 74.164 168.979 86.1702 184.141 86.1702C192.374 86.1702 199.029 82.3969 202.733 77.1141V82.0538C202.733 83.4946 204.037 84.6609 205.409 84.6609H212.338C213.779 84.6609 214.945 83.4946 214.945 82.0538V31.0103C214.877 29.501 213.71 28.3346 212.27 28.3346ZM185.513 74.9187C175.428 74.9187 168.224 66.6859 168.224 56.4635C168.224 46.1038 175.359 38.1454 185.513 38.1454C195.53 38.1454 202.802 46.1038 202.802 56.4635C202.733 66.7545 195.461 74.9187 185.513 74.9187ZM294.941 76.7025C296.45 78.5549 295.147 79.9956 294.323 80.6131C289.521 84.2492 283.141 86.2388 276.211 86.2388C258.717 86.2388 247.053 73.4094 247.053 56.5321C247.053 39.6548 258.717 26.6881 276.211 26.6881C283.141 26.6881 289.452 28.6777 294.323 32.3138C295.147 32.9313 296.313 34.1662 294.941 36.2244L291.648 40.8211C290.344 42.6049 288.835 42.1246 287.531 41.3013C284.444 39.449 280.808 37.871 276.623 37.871C266.4 37.871 259.608 46.1038 259.608 56.5321C259.608 66.9603 266.4 75.1245 276.623 75.1245C280.877 75.1245 284.238 73.478 287.326 71.6942C288.629 71.0081 290.001 70.3906 291.442 72.3116L294.941 76.7025ZM327.598 26.7567C311.132 26.7567 298.028 39.6548 298.028 56.4635C298.028 73.4094 311.201 86.1702 327.598 86.1702C344.063 86.1702 357.167 73.3408 357.167 56.4635C357.236 39.7234 344.063 26.7567 327.598 26.7567ZM327.598 74.8501C317.513 74.8501 310.309 66.7545 310.309 56.5321C310.309 46.1724 317.444 38.214 327.598 38.214C337.683 38.214 344.887 46.1724 344.887 56.5321C344.887 66.7545 337.752 74.8501 327.598 74.8501ZM236.556 1.50935C238.066 1.50935 239.164 2.81288 239.164 4.18502V81.9852C239.164 83.426 238.134 84.6609 236.556 84.6609H229.627C228.186 84.6609 226.952 83.3573 226.952 81.9852V4.25363C226.952 2.81288 228.255 1.57796 229.627 1.57796H236.556" fill="#3253DC"/>
</svg>
