<svg width="106" height="41" viewBox="0 0 106 41" fill="none" xmlns="http://www.w3.org/2000/svg">
    <g clip-path="url(#clip0_41_2158)">
        <path d="M14.7238 0.610352C6.09759 0.610352 0.497314 5.36009 0.497314 11.3681C0.497314 13.169 0.824581 14.6286 1.42836 16.4434H1.61562C1.17285 14.7476 0.961088 13.4875 0.961088 12.1364C0.961088 6.58865 5.82108 1.6639 14.7868 1.6639C26.8081 1.6639 41.1816 8.21799 49.652 19.2295H49.8375C42.8494 9.11053 29.3738 0.610352 14.7238 0.610352ZM52.0514 32.2694C50.2821 36.8879 45.142 39.4028 37.6832 39.4028C28.1154 39.4028 17.3052 34.177 10.9471 28.0797C12.0732 27.0475 12.7643 25.6253 12.88 24.1021C12.9956 22.5788 12.5272 21.0686 11.5698 19.8782C10.6124 18.6878 9.23776 17.9064 7.72512 17.6927C6.21249 17.479 4.67522 17.849 3.4255 18.7276C2.17578 19.6062 1.30731 20.9275 0.996444 22.4232C0.68558 23.9189 0.955633 25.4768 1.75176 26.7806C2.54789 28.0844 3.81041 29.0364 5.28292 29.4431C6.75544 29.8498 8.32756 29.6809 9.68002 28.9705C16.0643 34.7896 26.5421 40.6104 36.9814 40.6104C44.6293 40.6104 50.1735 38.029 52.2457 32.2694H52.0514ZM6.87813 27.938C5.86713 27.9462 4.88529 27.5995 4.10363 26.9582C3.32197 26.317 2.79004 25.4218 2.60047 24.4287C2.41091 23.4356 2.57573 22.4075 3.06624 21.5234C3.55675 20.6393 4.34185 19.9553 5.28478 19.5906C6.22772 19.2258 7.26874 19.2034 8.22651 19.5272C9.18428 19.851 9.9981 20.5006 10.5262 21.3627C11.0543 22.2249 11.2633 23.245 11.1166 24.2453C10.97 25.2457 10.4771 26.1629 9.72378 26.8372C9.12638 26.1955 8.56491 25.5212 8.04194 24.8176H5.81408C6.589 25.8252 7.42971 26.7805 8.33071 27.6772C7.86561 27.8489 7.37389 27.9371 6.87813 27.938ZM47.5904 27.588C47.4154 27.3639 47.2999 26.9422 47.2999 26.3874V22.0244H45.5288V26.3226C45.5288 27.5739 45.8351 28.3282 46.5001 28.9058C47.1275 29.3947 47.9002 29.6602 48.6956 29.6602C49.491 29.6602 50.2637 29.3947 50.8911 28.9058C51.5561 28.3282 51.8624 27.5739 51.8624 26.3226V22.0244H50.093V26.3839C50.093 26.9387 49.9845 27.3604 49.8025 27.5845C49.6632 27.7398 49.4927 27.8641 49.3021 27.9491C49.1115 28.0342 48.9052 28.0781 48.6965 28.0781C48.4878 28.0781 48.2814 28.0342 48.0909 27.9491C47.9003 27.8641 47.7298 27.7398 47.5904 27.5845V27.588ZM61.8011 21.8407C60.9453 21.8407 60.1473 22.2782 59.5873 23.1567C59.4062 22.7611 59.1146 22.4264 58.7475 22.1929C58.3805 21.9593 57.9537 21.837 57.5187 21.8407C57.2039 21.8484 56.8944 21.9231 56.6107 22.0598C56.3271 22.1965 56.0758 22.3921 55.8736 22.6335C55.7586 22.7668 55.6663 22.9181 55.6006 23.0815L55.4833 23.0342C55.5563 22.7033 55.5916 22.3651 55.5883 22.0262H53.9117V29.478H55.6828V25.2306C55.6828 23.9023 56.3829 23.421 57.0479 23.421C57.7129 23.421 58.1959 23.8813 58.1959 25.1133V29.4745H59.9653V25.2306C59.9653 23.9023 60.6653 23.421 61.3339 23.421C61.9709 23.421 62.4819 23.8813 62.4819 25.1133V29.4745H64.2495V24.9348C64.2495 23.0185 63.2274 21.8372 61.8011 21.8372V21.8407ZM16.6681 27.5845C16.4844 27.3604 16.3776 26.9387 16.3776 26.3839V22.0244H14.6065V26.3226C14.6065 27.5739 14.9145 28.3282 15.5796 28.9058C16.192 29.4224 16.9753 29.6914 17.7759 29.6601C18.5759 29.6911 19.3587 29.4221 19.9705 28.9058C20.6356 28.3282 20.9436 27.5739 20.9436 26.3226V22.0244H19.1725V26.3839C19.1725 26.9387 19.064 27.3604 18.882 27.5845C18.7425 27.7398 18.5718 27.8641 18.3811 27.9492C18.1904 28.0343 17.9839 28.0783 17.7751 28.0783C17.5662 28.0783 17.3597 28.0343 17.169 27.9492C16.9783 27.8641 16.8076 27.7398 16.6681 27.5845ZM33.574 22.6965C33.4734 22.8087 33.3934 22.9379 33.3377 23.078L33.2205 23.0307C33.2935 22.6998 33.3287 22.3616 33.3255 22.0227H31.6489V29.4745H33.4182V25.3233C33.4182 23.995 34.2163 23.421 34.8795 23.421C35.0819 23.4086 35.2841 23.4474 35.4676 23.5336C35.6511 23.6198 35.81 23.7508 35.9296 23.9145C36.1046 24.1368 36.2201 24.5603 36.2201 25.1133V29.4745H37.9894V25.1763C37.9894 23.925 37.8144 23.0902 37.1371 22.4812C36.64 22.0382 35.9893 21.807 35.3241 21.8372C34.9869 21.8418 34.655 21.9212 34.3523 22.0698C34.0496 22.2185 33.7838 22.4325 33.574 22.6965ZM69.421 17.5477C67.2457 17.5477 65.9121 18.9478 65.9121 20.6366C65.9121 21.9352 66.7101 23.0867 68.308 23.771L69.435 24.24C70.5533 24.7231 71.0976 25.4791 71.0976 26.3174C71.0976 27.3359 70.2365 28.001 69.2775 28.001C68.1399 28.001 67.2684 27.3307 66.9131 26.1879L65.4011 26.7287C65.6279 27.5661 66.1233 28.3059 66.8113 28.8345C67.4992 29.3631 68.3417 29.6513 69.2093 29.6548C71.1938 29.6548 72.8739 28.2792 72.8739 26.2019C72.8739 24.4833 71.7031 23.3142 70.1368 22.6737L68.973 22.1977C68.1259 21.8477 67.7042 21.2176 67.7042 20.6471C67.7042 19.8438 68.4042 19.2033 69.4035 19.2033C70.1175 19.2033 70.7161 19.6058 71.1816 20.3198L72.5467 19.3888C71.8414 18.1672 70.7318 17.5477 69.421 17.5477ZM105.503 25.9481C105.503 23.6012 104.151 21.8232 101.985 21.8232C99.7448 21.8232 98.4235 23.54 98.4235 25.7399C98.4235 28.1042 100.081 29.6478 102.076 29.6478C103.497 29.6478 104.458 29.0615 105.006 28.379L103.768 27.4147C103.406 27.8855 102.914 28.1147 102.139 28.1147C101.664 28.1117 101.209 27.9267 100.866 27.5979C100.524 27.269 100.32 26.8214 100.298 26.3471H105.503V25.9481ZM100.321 25.0433C100.41 24.121 100.984 23.3667 102.023 23.3667C102.932 23.3667 103.598 23.981 103.744 25.0433H100.321ZM43.9467 23.5032V22.0122H42.0829V19.212H40.3153V22.0122H39.3843V23.5032H40.3153V27.3534C40.3153 29.1228 41.2726 29.6566 42.6639 29.6566C43.1086 29.6514 43.5467 29.548 43.9467 29.3538V28.1392C43.6785 28.2266 43.3975 28.268 43.1154 28.2617C42.4294 28.2617 42.0829 27.9817 42.0829 27.1207V23.5137L43.9467 23.5032ZM24.2985 25.7504C24.2985 24.5253 24.8498 23.421 26.1151 23.421C27.3804 23.421 27.9299 24.5288 27.9299 25.7504C27.9299 26.9719 27.3787 28.078 26.1151 28.078C24.8515 28.078 24.2985 26.9702 24.2985 25.7504ZM29.6065 22.0227H27.9317C27.932 22.3619 27.9702 22.7 28.0454 23.0307L27.9072 23.0745C27.7831 22.8026 27.5915 22.567 27.3507 22.3902C26.8834 22.0287 26.3086 21.8341 25.7178 21.8372C23.8942 21.8372 22.5292 23.4122 22.5292 25.7504C22.5292 28.0885 23.8942 29.6601 25.7178 29.6601C26.3087 29.664 26.8838 29.4692 27.3507 29.107C27.5917 28.9311 27.7834 28.696 27.9072 28.4245L28.0454 28.4682C27.9702 28.7984 27.932 29.1359 27.9317 29.4745H29.6065V22.0227ZM93.4445 28.078C92.1792 28.078 91.6279 26.9702 91.6279 25.7504C91.6279 24.5305 92.1792 23.421 93.4445 23.421C94.7098 23.421 95.2611 24.5288 95.2611 25.7504C95.2611 26.9719 94.7045 28.078 93.441 28.078H93.4445ZM91.6279 29.478C91.6282 29.1392 91.5888 28.8015 91.5106 28.4717L91.6506 28.428C91.7754 28.6994 91.9676 28.9344 92.2089 29.1105C92.6758 29.4727 93.2508 29.6675 93.8417 29.6636C95.6636 29.6636 97.0304 28.0885 97.0304 25.7539C97.0304 23.4192 95.6636 21.8407 93.8417 21.8407C93.2507 21.8374 92.6756 22.0328 92.2089 22.3954C91.9676 22.5716 91.7754 22.8065 91.6506 23.078L91.5106 23.0342C91.5888 22.7045 91.6281 22.3668 91.6279 22.0279H89.9513V33.666H91.6279V29.478ZM77.7689 23.3737C78.0338 23.3813 78.2944 23.4425 78.535 23.5535C78.7756 23.6644 78.9913 23.823 79.169 24.0195L79.9863 22.7245C79.7034 22.4381 79.3654 22.2122 78.9927 22.0603C78.62 21.9084 78.2204 21.8337 77.8179 21.8407C75.5096 21.8407 74.0255 23.6695 74.0255 25.7539C74.0255 27.8382 75.5096 29.6636 77.8179 29.6636C78.2197 29.6717 78.619 29.5984 78.9917 29.448C79.3643 29.2976 79.7027 29.0733 79.9863 28.7885L79.169 27.4934C78.9912 27.6897 78.7755 27.848 78.5349 27.9587C78.2942 28.0694 78.0337 28.1302 77.7689 28.1375C76.6296 28.1375 75.7703 27.2257 75.7703 25.7609C75.7703 24.296 76.6261 23.3702 77.7654 23.3702L77.7689 23.3737ZM82.5922 25.7539C82.5922 24.5288 83.1452 23.4245 84.4105 23.4245C85.6758 23.4245 86.2271 24.5323 86.2271 25.7539C86.2271 26.9754 85.6741 28.0815 84.4105 28.0815C83.1469 28.0815 82.5887 26.9702 82.5887 25.7504L82.5922 25.7539ZM87.9037 22.0262H86.2271C86.2271 22.3655 86.2658 22.7037 86.3426 23.0342L86.2026 23.078C86.0783 22.8068 85.8875 22.5714 85.6478 22.3937C85.1803 22.0327 84.6057 21.8381 84.015 21.8407C82.1879 21.8407 80.8246 23.4157 80.8246 25.7539C80.8246 28.092 82.1897 29.6636 84.015 29.6636C84.6058 29.6669 85.1807 29.4722 85.6478 29.1105C85.8874 28.9335 86.0783 28.6987 86.2026 28.428L86.3426 28.4717C86.2658 28.8017 86.2271 29.1393 86.2271 29.478H87.9037V22.0227V22.0262Z" fill="#231F20"/>
    </g>
    <defs>
        <clipPath id="clip0_41_2158">
            <rect width="105.005" height="40" fill="white" transform="translate(0.497314 0.610352)"/>
        </clipPath>
    </defs>
</svg>
