<svg width="26" height="41" viewBox="0 0 26 41" fill="none" xmlns="http://www.w3.org/2000/svg">
    <g clip-path="url(#clip0_41_2160)">
        <path d="M24.1934 0.613281C24.8849 0.613281 25.4441 1.16652 25.4441 1.85074V39.3347C25.4441 40.0184 24.8849 40.5722 24.1934 40.5722H1.79444C1.10353 40.5722 0.544189 40.0184 0.544189 39.3347V1.85074C0.544189 1.16652 1.10353 0.613281 1.79444 0.613281H24.1934Z" fill="white"/>
        <path d="M1.03027 6.16992H24.9742V39.2598C24.9742 39.535 24.9272 39.7051 24.7416 39.8897C24.5402 40.0899 24.3634 40.1079 24.0445 40.1079L1.74518 40.1101C1.56947 40.1101 1.43471 40.0541 1.28926 39.9311C1.10911 39.7767 1.03027 39.5843 1.03027 39.3806V6.16992Z" fill="#FFF200"/>
        <path d="M24.9742 4.50488H1.03027V6.20488H24.9742V4.50488Z" fill="#ED1C24"/>
        <path d="M24.9742 2.80176H1.03027V4.50183H24.9742V2.80176Z" fill="white"/>
        <path d="M1.70715 1.07227H24.2817C24.6432 1.07227 24.9766 1.42077 24.9766 1.76092V2.84616H1.03027L1.03246 1.89176V1.81234C1.03246 1.42754 1.32896 1.1103 1.70715 1.07227Z" fill="#009A4E"/>
        <path d="M24.1934 0.613281C24.8849 0.613281 25.4441 1.16652 25.4441 1.85074V39.3347C25.4441 40.0184 24.8849 40.5722 24.1934 40.5722H1.79444C1.10353 40.5722 0.544189 40.0184 0.544189 39.3347V1.85074C0.544189 1.16652 1.10353 0.613281 1.79444 0.613281H24.1934ZM24.1934 1.10724H1.79444C1.37932 1.10724 1.04375 1.44063 1.04375 1.85074V39.3347C1.04375 39.7453 1.37939 40.0765 1.79444 40.0765H24.1934C24.6086 40.0765 24.9441 39.7453 24.9441 39.3347V1.85074C24.9441 1.4407 24.6086 1.10724 24.1934 1.10724Z" fill="black"/>
        <path d="M12.5535 8.27002C12.5535 8.27002 12.5384 8.41431 12.5054 8.49882C12.473 8.57707 12.3885 8.62973 12.3941 8.68224C12.3997 8.73373 12.4545 8.79584 12.5395 8.83882C12.6229 8.88246 12.6564 8.91606 12.742 8.93787C12.8214 8.95751 12.9221 9.01562 12.9506 8.94907C12.9792 8.88136 12.9362 8.79911 12.888 8.72027C12.8041 8.58267 12.7616 8.54907 12.638 8.35998C12.6117 8.31926 12.591 8.27555 12.5535 8.27002Z" fill="black"/>
        <path d="M11.9263 23.136C11.9347 23.1114 12.1327 23.2367 12.2357 23.2972C12.4522 23.4269 12.5495 23.5041 12.7408 23.6473C12.8925 23.7626 12.9657 23.8218 13.1179 23.9528C13.3047 24.1138 13.4054 24.2514 13.4558 24.2202C13.5285 24.1329 13.3367 23.8778 13.1671 23.7392C13.0021 23.6026 12.8315 23.4919 12.7 23.4057C12.5305 23.2926 12.5154 23.2669 12.262 23.0968C11.9895 22.9145 11.7546 22.6852 11.7546 22.6852L11.49 22.4771L11.0755 22.1274L10.6146 21.7029L10.2666 21.3152C10.2666 21.3152 9.99587 20.984 9.95282 20.9202C9.90918 20.857 9.78162 20.6522 9.67653 20.4789C9.58249 20.3233 9.40016 20.0817 9.38336 20.061C9.28489 19.9418 9.06002 19.9899 8.79871 19.8361C8.48154 19.6487 8.40489 19.4775 8.40489 19.4775C8.40489 19.4775 8.39311 19.4524 8.38082 19.4389C8.36903 19.4249 8.34503 19.4076 8.34503 19.4076L8.17885 19.2918L8.08373 19.2291C8.08373 19.2291 8.01158 19.1693 7.92096 19.1306C7.82976 19.0904 7.62671 18.9723 7.62671 18.9723L7.26365 18.7408C7.26365 18.7408 7.12154 18.6266 7.07456 18.5886C7.02649 18.5522 6.93696 18.5002 6.93696 18.5002C6.93696 18.5002 6.87987 18.4717 6.86256 18.4706C6.84525 18.4694 6.76976 18.4627 6.76976 18.4627C6.76976 18.4627 6.6998 18.4442 6.62874 18.5277C6.55769 18.6116 6.57507 18.5668 6.69085 19.0389C6.73667 19.2246 6.73223 19.8797 6.78147 20.0794C6.84409 20.3356 7.02423 20.6668 7.04271 20.7059C7.06067 20.7445 7.07347 20.8877 7.07347 20.8877C7.07347 20.8877 7.06569 21.0036 7.07798 21.0769C7.13282 21.4153 7.62787 21.1926 7.73703 21.657C7.84445 22.1151 7.67267 22.5722 7.67267 22.5722C7.67267 22.5722 7.56634 22.7994 7.41587 22.8351C7.26598 22.8698 7.03325 22.5376 6.86489 22.2685C6.69878 22.0038 6.56285 21.657 6.51922 21.5468C6.47558 21.4365 6.4526 21.4125 6.40227 21.3325C6.32787 21.2133 6.26802 21.2352 6.18467 21.0472C6.10074 20.8593 6.17514 20.7837 6.13769 20.6199C6.11587 20.5293 6.09631 20.5191 6.0678 20.3893C6.04038 20.2602 6.00343 19.849 6.00343 19.849L5.95085 19.4663C5.95085 19.4663 5.93238 19.2918 5.90838 19.1821C5.82503 18.7995 5.79594 18.4292 5.79594 18.4292L5.78031 18.277L5.77471 18.1199C5.77471 18.1199 5.76969 18.0443 5.78816 17.9666C5.80663 17.8889 5.84416 17.8245 5.84416 17.8245C5.84416 17.8245 5.9214 17.6953 5.93478 17.6629C5.94765 17.6321 6.1054 17.4486 6.1054 17.4486C6.1054 17.4486 6.18816 17.3798 6.323 17.2976C6.45842 17.2153 6.5798 17.2209 6.5798 17.2209C6.5798 17.2209 6.61558 17.2176 6.85507 17.2472C7.09449 17.2768 7.58678 17.4077 7.711 17.4397C7.83347 17.4728 7.98009 17.5242 8.07514 17.5773C8.34867 17.7261 8.43151 17.6629 8.21391 17.4923C8.06729 17.3776 8.02598 17.3261 7.90787 17.2188C7.80823 17.127 7.72998 17.066 7.65558 16.9816C7.58118 16.8954 7.36918 16.5827 7.36918 16.5827L7.2366 16.3869C7.2366 16.3869 7.16554 16.3064 7.15376 16.3008C7.14263 16.2941 7.10678 16.2666 7.10678 16.2666C7.10678 16.2666 7.019 16.2711 6.92831 16.2538C6.8366 16.2353 6.79405 16.364 6.79405 16.364C6.79405 16.364 6.59711 16.7315 6.39689 16.9565C6.07245 17.3217 5.83972 17.5701 5.7206 17.7648C5.55332 18.0344 5.59027 18.3298 5.50409 18.4663C5.45376 18.5463 5.42634 18.5581 5.39893 18.628C5.315 18.84 5.61987 18.9563 5.54998 19.1912C5.43863 19.5639 4.56598 19.9325 4.45013 19.8709C4.32983 19.8077 4.42831 19.3037 4.4686 19.1409C4.50998 18.977 4.63245 18.7354 4.64372 18.7231C4.65434 18.7113 4.68402 18.6542 4.69289 18.6061C4.70242 18.5581 4.70576 18.449 4.71136 18.3885C4.71696 18.3275 4.74213 18.2314 4.74213 18.2314C4.74213 18.2314 4.74547 18.2106 4.82263 18.0434C4.90038 17.8751 5.1846 17.4834 5.38823 17.1098C5.52249 16.8658 5.57842 16.7182 5.71267 16.4737C5.83631 16.2494 6.04831 15.907 6.04831 15.907C6.04831 15.907 6.13776 15.7325 6.17973 15.6676C6.22227 15.601 6.31173 15.4752 6.39565 15.3509C6.48016 15.2273 6.50082 15.1344 6.611 15.0326C6.7022 14.9476 6.76431 14.9023 6.88343 14.8642C7.06074 14.8055 7.1822 14.8369 7.36343 14.8872C7.55136 14.9386 7.6806 15.0248 7.80373 15.1266C7.9262 15.2296 8.0174 15.3432 8.0174 15.3432L8.07725 15.4315L8.11413 15.4533L8.22831 15.5266L8.48954 15.6994C8.48954 15.6994 9.1094 16.1213 9.14409 16.1442C9.17711 16.166 9.28838 16.2572 9.3102 16.2645C9.33318 16.2712 9.4982 16.0921 9.82213 15.869C10.1969 15.6088 10.3295 15.6284 10.4538 15.5608C10.5762 15.493 10.6266 15.4371 10.7229 15.3409C10.8683 15.1954 10.8694 15.1177 11.0344 14.9146C11.2006 14.7122 11.3561 14.5986 11.3561 14.5986C11.3561 14.5986 11.379 14.5757 11.675 14.2411C11.9703 13.9077 12.1013 13.6554 12.1013 13.6554L12.2635 13.3304C12.2635 13.3304 12.4984 12.8253 12.574 12.6255C12.6501 12.4253 12.6501 12.3586 12.6501 12.3586C12.6501 12.3586 12.6612 12.3061 12.6042 12.2042C12.5454 12.1029 12.485 12.1488 12.3725 12.1718C12.1572 12.2177 12.0263 12.1617 11.8087 12.1237C11.6095 12.0906 11.5055 12.0309 11.3058 11.9978C11.1033 11.9637 10.9853 11.9302 10.7821 11.9498C10.7514 11.9531 10.6893 11.966 10.6596 11.976C10.5449 12.0141 10.513 12.023 10.428 12.0722C10.3295 12.1181 10.2647 12.1327 10.1556 12.1354C10.08 12.1377 10.0342 12.14 9.96431 12.1125C9.91616 12.0941 9.88874 12.0801 9.85071 12.046C9.8278 12.0253 9.81551 12.0118 9.79813 11.985C9.79594 11.9637 9.78918 11.9648 9.80991 11.9302C9.83005 11.8949 9.85522 11.8888 9.85522 11.8888L9.94809 11.8658C9.94809 11.8658 10.079 11.8317 10.0913 11.8283C10.1031 11.825 10.2278 11.7847 10.2826 11.7674C10.338 11.7501 10.3984 11.7181 10.3984 11.7181C10.3984 11.7181 10.4319 11.6645 10.4191 11.6337C10.4029 11.5989 10.3285 11.5957 10.3285 11.5957C10.3285 11.5957 10.2244 11.6337 10.2127 11.637C10.2015 11.6393 10.0353 11.6918 10.0353 11.6918C10.0353 11.6918 9.90496 11.7204 9.80373 11.7444C9.70191 11.7673 9.55645 11.7791 9.55645 11.7791L9.51282 11.7673C9.51282 11.7673 9.46358 11.7343 9.4558 11.6997C9.44853 11.6689 9.44402 11.6459 9.43842 11.6107C9.4166 11.482 9.39034 11.4042 9.42111 11.2773C9.43289 11.2242 9.44518 11.1945 9.46809 11.1453C9.48765 11.1045 9.50053 11.081 9.52569 11.0424L9.60576 10.9114L9.75682 10.6882C9.80882 10.6357 9.843 10.6094 9.90838 10.5725C10.0046 10.5188 10.0605 10.5037 10.1808 10.4902C10.2989 10.4773 10.3151 10.4785 10.4823 10.441C10.6507 10.4029 10.7699 10.3364 10.7699 10.3364C10.7699 10.3364 11.1722 10.1887 11.4171 10.0684C11.6738 9.94257 11.7858 9.80824 12.0515 9.70424C12.1639 9.66061 12.2294 9.63988 12.3452 9.61028C12.3597 9.60075 12.367 9.59181 12.3715 9.57442C12.3827 9.53246 12.3178 9.5129 12.273 9.51733C12.2327 9.52068 12.141 9.56322 12.1203 9.51733C12.1046 9.48213 12.2042 9.46141 12.2042 9.46141C12.2042 9.46141 12.2511 9.43959 12.2523 9.41333C12.2535 9.37304 12.1847 9.3993 12.1538 9.39595C11.9978 9.37857 11.9855 9.35006 11.8775 9.32381C11.7505 9.29195 11.6818 9.25275 11.5497 9.24715C11.4333 9.24264 11.3242 9.2673 11.251 9.28461C11.1789 9.30308 11.1766 9.23202 11.2051 9.21806C11.4093 9.12293 11.4138 9.11508 11.5581 9.10839C11.637 9.10504 11.7472 9.12184 11.7595 9.12795C11.7713 9.13464 11.929 9.12686 11.9693 9.08548C12.0107 9.04519 11.8401 9.04744 11.7595 9.01552C11.6852 8.98592 11.5716 8.97755 11.5738 8.92824C11.5778 8.87901 11.6326 8.90642 11.6717 8.89639C11.7209 8.88461 11.7495 8.88577 11.7998 8.87908C11.8905 8.86679 11.8983 8.85835 12.0325 8.84722C12.1651 8.83435 12.3565 8.89086 12.3565 8.89086C12.3565 8.89086 12.5573 8.97988 12.6557 9.02686C12.7542 9.07268 12.8733 9.09675 12.8733 9.09675C12.8733 9.09675 13.0131 9.11632 13.1195 9.04977C13.2274 8.98373 13.1665 8.9401 13.129 8.87915C13.092 8.82206 13.0451 8.7393 13.1138 8.58264C13.1749 8.44613 13.2067 8.28671 13.2241 8.27217C13.246 8.25486 13.3304 8.37733 13.3852 8.42773C13.5815 8.61122 13.8412 8.70184 14.0862 9.08555C14.1053 9.11631 14.1959 9.06708 14.48 9.11071C14.7642 9.15435 15.0126 9.45864 15.0753 9.53144C15.1402 9.60468 15.2241 9.60075 15.2241 9.60075L15.3606 9.61922L15.8562 9.62759C15.8562 9.62759 16.0811 9.5873 16.2109 9.63661C16.3015 9.67071 16.6036 9.87268 16.466 9.94926C16.3698 10.003 16.2791 9.88497 16.1919 9.87937C16.0889 9.87268 16.0442 9.89224 15.9524 9.91515C15.7599 9.9633 15.3471 10.088 15.497 10.1384C15.5082 10.1428 15.5295 10.1461 15.5295 10.1461L15.6033 10.159C15.6033 10.159 15.7846 10.2004 15.8942 10.2434C16.0597 10.3089 16.1381 10.3811 16.2903 10.4706C16.3775 10.5209 16.4156 10.5713 16.5106 10.5998C16.5979 10.625 16.6538 10.5998 16.7434 10.6149C16.8608 10.6357 16.9268 10.6597 17.0343 10.7112C17.1942 10.7878 17.2524 10.8807 17.3957 10.9836C17.4672 11.0356 17.5276 11.0434 17.5813 11.1134C17.5937 11.129 17.6038 11.1375 17.6094 11.1559C17.6285 11.2197 17.5042 11.1821 17.4382 11.1716C17.3655 11.1593 17.3353 11.1234 17.2682 11.0927C17.1686 11.0457 17.1215 10.9942 17.013 10.9746C16.9347 10.9595 16.8877 10.9713 16.8072 10.9757C16.7289 10.9791 16.6875 10.9909 16.6091 10.992C16.476 10.9942 16.401 10.9825 16.2701 10.955C16.1235 10.9243 16.0508 10.8672 15.9054 10.837C15.7409 10.8029 15.4501 10.6619 15.478 10.8029C15.4925 10.8706 15.6469 10.9276 15.6469 10.9276C15.6469 10.9276 15.7532 10.9847 15.8539 11.0294C15.9546 11.073 16.0105 11.1397 16.0105 11.1397L16.0799 11.1912C16.0799 11.1912 16.1514 11.2896 16.2455 11.4009C16.3372 11.5106 16.5005 11.5072 16.5005 11.5072C16.5005 11.5072 16.599 11.5072 16.8115 11.5508C17.023 11.5944 17.2412 11.7253 17.2412 11.7253C17.2412 11.7253 17.4056 11.8383 17.5018 11.9519C17.597 12.0655 17.5421 12.1225 17.5298 12.1342C17.5187 12.1465 17.5231 12.1409 17.5097 12.1465C17.4986 12.1521 17.3799 12.0033 17.3799 12.0033L17.2949 11.9312C17.2949 11.9312 17.2121 11.873 17.1047 11.8383C16.9973 11.8042 16.9615 11.8271 16.9615 11.8271C16.9615 11.8271 16.7333 11.8909 16.5341 11.8853C16.3372 11.8797 16.2343 11.8008 16.2343 11.8008L16.109 11.7168C16.109 11.7168 15.921 11.5406 15.9142 11.624C15.9097 11.6805 15.997 11.7432 15.997 11.7432C15.997 11.7432 16.0575 11.8041 16.0978 11.8428C16.1738 11.9177 16.2053 11.9552 16.2925 12.0329C16.3797 12.1113 16.4334 12.1113 16.4334 12.1113C16.4334 12.1113 16.4804 12.1224 16.4983 12.1258C16.5162 12.1292 16.5476 12.1376 16.5476 12.1376C16.5476 12.1376 16.5767 12.1488 16.7131 12.2042C16.8485 12.259 16.9951 12.3782 16.9951 12.3782C16.9951 12.3782 17.0085 12.3894 17.0287 12.3933C17.0487 12.3956 17.089 12.4157 17.1002 12.4191C17.1125 12.4218 17.1472 12.4218 17.2255 12.433C17.305 12.4448 17.2748 12.4952 17.2748 12.4952L17.2613 12.5141L17.1964 12.5578C17.1964 12.5578 17.1125 12.5818 17.0554 12.5846C16.9973 12.588 16.9145 12.5556 16.9145 12.5556L16.7388 12.4896C16.7388 12.4896 16.561 12.4426 16.5229 12.4364C16.4848 12.4308 16.326 12.3989 16.2991 12.3933C16.2734 12.3872 16.194 12.3586 16.1727 12.3464C16.1514 12.3346 16.1123 12.3268 16.0161 12.2798C15.921 12.2328 15.8829 12.1786 15.7644 12.141C15.6447 12.103 15.5719 12.0952 15.4824 12.1573C15.328 12.2636 15.7151 12.281 15.9076 12.3771C16.1918 12.517 16.3517 12.6199 16.4189 12.771C16.4871 12.9226 16.5554 12.9774 16.5554 12.9774C16.5554 12.9774 16.7557 13.0781 16.8451 13.1838C16.8943 13.2408 16.9011 13.2879 16.9503 13.3449C17.0599 13.4736 17.2725 13.4663 17.3151 13.5754C17.3554 13.6771 17.1427 13.6313 17.0319 13.6212C16.8328 13.6016 16.7847 13.4192 16.5989 13.346C16.4938 13.304 16.4267 13.304 16.3192 13.2672C16.1234 13.2028 16.0317 13.1184 15.8359 13.0574C15.7173 13.021 15.5024 12.865 15.5293 12.9852C15.5338 13.0143 15.5517 13.0367 15.5594 13.0541C15.5695 13.0714 15.6188 13.1352 15.6188 13.1352C15.6188 13.1352 15.6847 13.2224 15.7149 13.2454C15.7429 13.2695 15.8693 13.3645 16.0506 13.463C16.2296 13.5615 16.3862 13.7506 16.3862 13.7506C16.3862 13.7506 16.4399 13.8278 16.4657 13.8816C16.4925 13.942 16.4735 13.9604 16.516 14.0443C16.5551 14.1277 16.5742 14.1439 16.6279 14.1954C16.7599 14.3224 16.8986 14.2971 17.0664 14.366C17.1123 14.3856 17.1157 14.3922 17.1649 14.4448C17.2141 14.4968 17.1559 14.5192 17.1559 14.5192C17.1559 14.5192 16.9691 14.5673 16.8482 14.5572C16.6917 14.5449 16.6211 14.4968 16.469 14.4207C16.3146 14.3452 16.2341 14.2093 16.2184 14.2009C16.205 14.1919 16.1669 14.1517 16.1378 14.1309C16.1088 14.1103 16.0338 14.0946 15.9666 14.0761C15.8984 14.0577 15.8603 14.0543 15.7922 14.0358C15.6993 14.0095 15.603 13.9687 15.5594 13.9547C15.5157 13.9396 15.4162 13.9217 15.3434 13.9648C15.198 14.0509 15.5694 14.109 15.6847 14.2328C15.7439 14.2949 15.7685 14.3385 15.8245 14.404C15.8671 14.4543 15.885 14.4896 15.9376 14.5287C15.9733 14.5549 16.0394 14.5834 16.0394 14.5834C16.0394 14.5834 16.1288 14.6249 16.2597 14.697C16.3906 14.7692 16.5439 14.9733 16.5439 14.9733L16.6367 15.1154L16.6916 15.1965L16.7061 15.2341L16.7262 15.2799C16.7262 15.2799 16.7934 15.3672 16.8426 15.3957C16.8919 15.4253 16.8829 15.4511 16.8829 15.4511C16.8829 15.4511 16.8773 15.469 16.8426 15.4886C16.809 15.5093 16.79 15.492 16.7408 15.4774C16.6916 15.4634 16.6591 15.4165 16.6167 15.3823C16.5719 15.3465 16.5249 15.2598 16.4455 15.2106C16.375 15.1681 16.2833 15.153 16.2474 15.1418C16.2127 15.129 16.1255 15.0741 16.0908 15.059C16.0573 15.0456 15.9666 15.0042 15.9666 15.0042C15.9666 15.0042 15.7922 14.9069 15.6958 14.8806C15.5997 14.8537 15.6611 14.9125 15.6611 14.9125C15.6611 14.9125 15.7474 15.0467 15.8301 15.1004C15.9375 15.1714 16.0885 15.2341 16.0393 15.2917C16.0057 15.3292 15.961 15.3157 15.9117 15.3101C15.8312 15.3007 15.7338 15.2044 15.7338 15.2044C15.7338 15.2044 15.6936 15.1781 15.5135 15.121C15.3344 15.0623 15.4005 15.1608 15.4418 15.2139C15.4822 15.2654 15.537 15.295 15.537 15.295L15.659 15.3498L15.7149 15.3672C15.7149 15.3672 15.7642 15.3761 15.9264 15.4141C16.0886 15.4511 16.1782 15.53 16.1782 15.53C16.1782 15.53 16.2654 15.6111 16.3862 15.7006C16.5093 15.7912 16.6301 15.8142 16.6973 15.8232C16.7644 15.8315 16.7621 15.8785 16.7621 15.8785C16.7621 15.8785 16.7711 15.9216 16.7667 15.9356C16.7645 15.9501 16.7499 15.9619 16.7353 15.9619C16.7218 15.9619 16.7152 15.9675 16.6973 15.977C16.6794 15.986 16.6101 15.9972 16.6101 15.9972C16.6101 15.9972 16.4288 15.9916 16.2856 15.9563C16.1447 15.9216 16.0193 15.8232 16.0058 15.8176C15.9947 15.812 15.8626 15.7388 15.7709 15.7097C15.6826 15.68 15.5405 15.6929 15.5247 15.6985C15.5103 15.7041 15.461 15.712 15.3771 15.7365C15.2921 15.7589 15.3983 15.7913 15.3983 15.7913L15.4588 15.7969L15.6031 15.8081C15.6031 15.8081 15.753 15.8254 15.8794 15.8724C16.0058 15.9183 16.0887 16.0112 16.1726 16.0962C16.2565 16.1795 16.3494 16.2344 16.3494 16.2344L16.4165 16.278L16.4512 16.3042L16.4602 16.3272C16.4602 16.3272 16.4568 16.3389 16.4512 16.3534C16.4456 16.3685 16.4244 16.3797 16.4244 16.3797C16.4244 16.3797 16.393 16.3741 16.3797 16.3741C16.3639 16.3741 16.2689 16.3237 16.1984 16.293C16.1257 16.2611 16.0887 16.2309 16.0104 16.2118C15.9433 16.1956 15.8538 16.1883 15.8336 16.1945C15.8135 16.2001 15.6658 16.2208 15.5517 16.2286C15.4376 16.2376 15.3391 16.2392 15.2048 16.223C15.0135 16.2001 14.7596 16.049 14.7271 16.091C14.6611 16.1794 14.8625 16.2045 14.961 16.261C15.0952 16.3388 15.3279 16.4088 15.3279 16.4088C15.3279 16.4088 15.498 16.4462 15.5975 16.4932C15.8157 16.5945 15.8818 16.7444 16.0574 16.9021C16.1536 16.9905 16.2319 17.0285 16.3617 17.0476C16.4736 17.0639 16.4714 17.0504 16.6481 17.0157C16.826 16.9805 16.9335 16.8121 16.9849 16.8737C16.995 16.8855 16.9905 16.8966 16.9882 16.914C16.9849 16.9313 16.9704 16.9632 16.9704 16.9632C16.9704 16.9632 16.9503 16.9917 16.9189 17.0242C16.8865 17.056 16.7645 17.1226 16.7007 17.1489C16.637 17.1752 16.4804 17.2189 16.2834 17.2127C16.0865 17.2071 15.8091 17.056 15.8091 17.056L15.61 16.9721C15.61 16.9721 15.5182 16.929 15.4556 16.9056C15.29 16.8429 15.1848 16.8485 15.0147 16.8037C14.9095 16.7752 14.8402 16.7456 14.7451 16.726C14.6489 16.7053 14.7037 16.7434 14.7127 16.7568C14.7574 16.8177 14.8178 16.8373 14.8939 16.8725C14.9946 16.9218 15.0651 16.9117 15.168 16.9554C15.2833 17.0018 15.384 17.0673 15.4478 17.1087C15.5104 17.149 15.5575 17.1949 15.619 17.2586L15.8304 17.4399C15.8304 17.4399 15.8797 17.4802 15.8853 17.497C15.8908 17.5144 15.9143 17.5579 15.9031 17.6279C15.8908 17.6978 15.8338 17.6486 15.8338 17.6486L15.7778 17.6128L15.7218 17.5613L15.6334 17.4881C15.6334 17.4881 15.5574 17.4192 15.4264 17.3527C15.2967 17.285 15.14 17.2682 15.14 17.2682C15.14 17.2682 15.0013 17.2475 15.0058 17.2912C15.0125 17.3342 15.0437 17.3381 15.1533 17.3666C15.2641 17.3952 15.3368 17.4512 15.3368 17.4512C15.3368 17.4512 15.4499 17.5351 15.5315 17.6279C15.612 17.7208 15.6356 17.8109 15.6356 17.8109C15.6356 17.8109 15.677 17.8869 15.781 17.9876C15.8851 18.0894 15.9399 18.0541 15.9343 18.1034C15.9287 18.1527 15.8828 18.1616 15.8828 18.1616C15.8828 18.1616 15.8559 18.1593 15.8448 18.1593C15.8336 18.1593 15.8068 18.1442 15.7777 18.133C15.7486 18.1218 15.6389 18.0458 15.6389 18.0458C15.6389 18.0458 15.4667 17.906 15.4477 17.8925C15.4263 17.8774 15.2642 17.756 15.2642 17.756C15.2642 17.756 15.1679 17.6945 15.0997 17.6598C15.0292 17.6257 14.9363 17.5899 14.8837 17.5725C14.8323 17.5557 14.736 17.5501 14.736 17.5501C14.736 17.5501 14.6208 17.5328 14.5503 17.5065C14.4396 17.464 14.3109 17.3459 14.2964 17.3403C14.2807 17.3342 14.1778 17.2989 14.1576 17.3023C14.1375 17.3045 14.0905 17.4992 14.0794 17.6117C14.0324 18.0827 14.1576 18.3954 14.3523 18.8273C14.6331 19.4549 15.4151 20.2353 15.4151 20.2353C15.4151 20.2353 15.6121 20.3466 15.6949 20.4132C15.9287 20.5962 16.3159 20.8552 16.6594 21.1975C16.9525 21.4911 17.3419 22.012 17.3419 22.012C17.3419 22.012 17.5678 22.3264 17.673 22.549C17.8006 22.822 17.9036 23.2383 17.9036 23.2383C17.9036 23.2383 17.9125 23.3098 17.9192 23.3256C17.9282 23.34 17.9482 23.3591 17.9618 23.3591L18.0982 23.3636C18.1117 23.3636 18.2671 23.3525 18.3701 23.3266C18.4719 23.3009 18.7136 23.1901 18.8747 23.1063C19.0335 23.0212 19.2249 22.8601 19.2249 22.8601C19.2249 22.8601 19.2618 22.8287 19.4476 22.6207C19.6356 22.4126 19.7564 22.1005 19.8022 21.9824C19.847 21.8656 19.8839 21.6401 19.9108 21.2551C19.9398 20.8687 19.8873 20.4613 19.8873 20.4613C19.8873 20.4613 19.8168 19.893 19.7742 19.6994C19.7317 19.507 19.6288 19.1914 19.6288 19.1914C19.6288 19.1914 19.5573 18.9107 19.5349 18.7334C19.5113 18.556 19.508 18.2674 19.508 18.2674C19.508 18.2674 19.508 18.0906 19.565 17.764C19.6243 17.4389 19.8235 17.1111 19.8235 17.1111C19.8235 17.1111 19.8794 17.0008 20.0943 16.7435C20.3147 16.48 20.3851 16.4386 20.6022 16.2814C20.7746 16.1578 20.9971 15.9586 21.07 16.0056C21.1505 16.056 20.9915 16.1567 20.9378 16.2093C20.8025 16.3435 20.5497 16.5807 20.3449 16.9381C20.1659 17.2475 20.0988 17.4522 20.0541 17.6542C20.0093 17.8557 20.0284 18.0771 20.034 18.1527C20.0407 18.2282 20.0821 18.2008 20.0821 18.2008C20.0821 18.2008 20.5173 17.8512 20.7533 17.5866C21.0095 17.3002 21.2378 16.7905 21.3272 16.7861C21.3877 16.7821 21.4157 16.9186 21.4011 16.9818C21.3453 17.2464 21.3263 17.2794 21.2399 17.4551C21.1415 17.6565 21.0499 17.746 20.9133 17.9317C20.7701 18.1264 20.6997 18.2008 20.5845 18.4586C20.4178 18.8295 20.5151 19.116 20.5151 19.116C20.5151 19.116 20.5352 19.29 20.6135 19.2877C20.7445 19.2832 21.0319 18.9202 21.2199 18.6231C21.3588 18.4055 21.409 18.1538 21.4997 18.0217C21.5825 17.9048 21.6553 18.212 21.6194 18.3932C21.578 18.6085 21.4717 18.8021 21.2379 19.107C21.0097 19.4045 21.0164 19.6877 21.0164 19.6877C21.0164 19.6877 20.9929 19.8169 20.9738 20.0989C20.956 20.3796 21.0365 20.806 21.0365 20.806C21.0365 20.806 21.108 21.1623 21.1227 21.4325C21.1362 21.7043 21.1271 22.3214 20.8731 22.8019C20.7725 22.9944 20.5565 23.2607 20.5565 23.2607C20.5565 23.2607 20.3898 23.4319 20.2533 23.5314C20.1167 23.631 19.7889 23.7866 19.7889 23.7866C19.7889 23.7866 19.5618 23.8648 19.5305 23.8716C19.4969 23.8805 19.4768 23.9085 19.4768 23.9085C19.4768 23.9085 19.4969 23.9522 19.5058 23.9701C19.5136 23.988 19.5774 24.1445 19.5774 24.1445C19.5774 24.1445 19.6456 24.3661 19.6714 24.5418C19.6971 24.7174 19.6669 24.7577 19.6423 24.892C19.6177 25.0207 19.5618 24.9613 19.5472 25.2141C19.5349 25.438 19.6357 25.5498 19.6177 25.8005C19.61 25.9101 19.4857 25.6618 19.4253 25.5566C19.2977 25.3282 19.3279 24.977 19.3257 24.8898C19.3223 24.8025 19.3155 24.7062 19.2831 24.5966C19.244 24.4533 19.1847 24.3426 19.1187 24.2554C19.0515 24.1692 18.981 24.12 18.9575 24.129C18.9341 24.1368 18.9318 24.1826 18.9318 24.205C18.9306 24.2297 18.9776 24.3125 18.9877 24.3304C19 24.3472 19.0839 24.5005 19.0839 24.5005C19.0839 24.5005 19.1208 24.6191 19.1354 24.8496C19.15 25.0778 19.0794 25.362 19.0794 25.362C19.0794 25.362 18.9877 25.6809 18.8915 25.8689C18.7839 26.0758 18.5458 26.3578 18.5458 26.3578C18.5458 26.3578 18.3746 26.5144 18.2458 26.7717C18.1195 27.029 18.228 27.141 18.181 27.1745C18.1317 27.2069 18.031 27.0257 18.0042 26.9037C17.9784 26.7896 17.9907 26.7359 18.0378 26.6083C18.0814 26.4853 18.1844 26.3073 18.1844 26.3073L18.3376 26.0466C18.3376 26.0466 18.5234 25.6931 18.5815 25.4357C18.6397 25.1807 18.5726 24.8965 18.5726 24.8965C18.5726 24.8965 18.5648 24.8026 18.501 24.807C18.4361 24.8104 18.3914 24.8664 18.3645 24.9346C18.3119 25.0755 18.3869 25.0498 18.3063 25.2847C18.2437 25.4693 18.2258 25.4447 18.1922 25.5543C18.1519 25.6853 18.1306 25.8195 18.133 25.9013C18.1363 25.9818 18.0916 25.9482 18.0916 25.9482C18.0916 25.9482 18.0133 25.8027 18.0133 25.6215C18.0133 25.5231 18.0178 25.4671 18.029 25.3686C18.0469 25.2109 18.1117 24.9693 18.1117 24.9693C18.1117 24.9693 18.1811 24.7309 18.1666 24.5138C18.1499 24.2946 18.0738 24.2544 18.0738 24.2544C18.0738 24.2544 18.0537 24.2253 17.9686 24.2297C17.8847 24.2365 17.8892 24.3874 17.8892 24.3874C17.8892 24.3874 17.8634 24.6034 17.8299 24.7376C17.737 25.108 17.6129 25.3026 17.3935 25.6148C17.1944 25.8967 16.9248 26.1452 16.7893 26.2616C16.6551 26.3802 16.2411 26.6811 16.2411 26.6811L15.7556 27.0044C15.7556 27.0044 15.5631 27.1924 15.4758 27.4162C15.3863 27.6389 15.3908 27.8133 15.4422 28.0181C15.4938 28.224 15.5676 28.3179 15.6067 28.376C15.6447 28.4321 15.7198 28.5327 15.7444 28.6514C15.76 28.724 15.7489 28.7677 15.7533 28.8415C15.7579 28.9064 15.7668 28.9422 15.7645 29.0082C15.7623 29.1112 15.7813 29.1838 15.722 29.2677C15.6794 29.3315 15.5631 29.3874 15.5631 29.3874C15.5631 29.3874 15.4311 29.4456 15.3527 29.4937C14.5269 29.9916 14.2339 30.3149 13.7685 30.8698C13.6207 31.0477 13.7293 31.0366 13.5716 31.2469C13.4759 31.3723 13.2549 31.3723 13.1749 31.5221C13.0637 31.7269 13.4255 31.9283 13.0077 32.1085C12.469 32.3412 11.542 32.1744 11.5235 32.1018C11.4732 31.9026 11.7047 31.6722 11.787 31.5804C12.164 31.1686 12.5008 31.1585 12.6245 30.8173C12.6513 30.7446 12.6407 30.682 12.941 30.4593C13.1519 30.3037 13.9944 29.6694 14.3626 29.2465C14.489 29.101 14.5975 29.0049 14.6523 28.8482C14.7083 28.6892 14.5975 28.5897 14.5975 28.5897L14.4464 28.3435L14.1567 27.8255C14.1567 27.8255 14.0348 27.5503 13.9687 27.3914C13.9005 27.2325 13.7741 26.805 13.7741 26.805C13.7741 26.805 13.6813 26.4202 13.6655 26.1695C13.6375 25.7198 13.6991 25.4581 13.8178 25.0217C13.971 24.4556 14.3189 24.2183 14.4577 23.6567C14.4981 23.4934 14.5069 23.2136 14.4241 23.2271C14.3458 23.2416 14.3391 23.462 14.2787 23.6098C14.0549 24.1669 13.7595 24.4109 13.5973 24.9881C13.4888 25.3786 13.4441 25.6103 13.4451 26.0152C13.4463 26.2468 13.4373 26.2043 13.4966 26.606C13.5201 26.7536 13.5559 26.833 13.5996 26.9773C13.6309 27.0803 13.7148 27.2728 13.7148 27.2728C13.7148 27.2728 13.8301 27.5267 13.8703 27.7046C13.8826 27.7662 13.8983 27.8008 13.8938 27.8624C13.886 27.9686 13.905 27.9911 13.8535 28.0872C13.7898 28.207 13.8288 28.2775 13.6253 28.3221C13.444 28.3602 13.0737 28.2394 13.0737 28.2394C13.0737 28.2394 11.5515 27.7784 10.5798 27.9115C10.3874 27.9373 10.2839 28.0077 10.0903 28.0044C9.91413 28.0021 9.8246 27.8645 9.64838 27.9171C9.6126 27.9272 9.6014 27.9529 9.56896 27.9742C9.31165 28.1532 9.50853 28.4508 8.83056 28.2964C8.41434 28.2013 7.91034 27.9463 7.99754 27.7862C8.11442 27.5736 8.27107 27.5389 8.60009 27.4035C8.95194 27.2603 9.48002 27.3006 9.58409 27.2939C9.71107 27.2838 9.89347 27.1954 10.1205 27.1898C10.5133 27.1831 10.5831 27.2301 10.5831 27.2301L11.2499 27.2893L12.526 27.3051C12.526 27.3051 12.7542 27.2883 12.8448 27.2704C12.9366 27.2524 13.0087 27.0723 13.059 26.9861C13.1083 26.9012 13.0568 26.7758 13.0568 26.7758L13.0189 26.7165L12.8974 26.5208L12.6731 26.1426L12.4242 25.6458C12.4242 25.6458 12.2614 25.3002 12.1747 25.073C12.0885 24.847 12.0382 24.7194 11.9811 24.4857C11.9213 24.245 11.8843 24.0504 11.8765 23.8569C11.8671 23.5791 11.8486 23.3631 11.9263 23.136Z" fill="black"/>
        <path d="M20.2103 22.6755C20.4787 22.3309 20.5046 22.0108 20.5201 21.56C20.5324 21.2322 20.4084 20.727 20.4084 20.727L20.3915 20.6901C20.3915 20.6901 20.3445 20.6291 20.3156 20.7097C20.32 20.7808 20.329 20.8378 20.329 20.8378L20.3446 21.4884C20.3446 21.4884 20.3244 21.8162 20.2127 22.1541C20.0247 22.7247 19.5257 22.9787 19.453 23.1846C19.3286 23.5257 19.8892 23.0905 20.2103 22.6755Z" fill="white"/>
        <path d="M17.3952 23.7281C17.3952 23.7281 17.2855 23.7594 17.2833 23.8679C17.2811 23.9764 17.3101 24.0704 17.3068 24.2013C17.3046 24.3681 17.1513 24.5604 17.2498 24.6231C17.4187 24.7305 17.5641 23.9742 17.5127 23.8623C17.4612 23.7503 17.4109 23.7268 17.3952 23.7281Z" fill="white"/>
        <path d="M15.5001 28.9721C15.5001 28.9721 15.4687 28.9554 15.4072 28.9788C15.3469 29.0023 15.3512 29.065 15.3512 29.065C15.3512 29.065 15.3389 29.1322 15.3882 29.1389C15.4375 29.1479 15.518 29.027 15.518 29.0135C15.518 29.0001 15.5001 28.9721 15.5001 28.9721Z" fill="white"/>
        <path d="M13.7167 30.2396C13.7167 30.2396 13.6987 30.2576 13.7144 30.2698C13.7312 30.2844 13.7547 30.2665 13.7547 30.2665C13.7547 30.2665 14.0624 30.0259 14.2448 29.857C14.4372 29.6758 14.7147 29.3636 14.7147 29.3636C14.7147 29.3636 14.7337 29.3401 14.7125 29.32C14.69 29.2998 14.6375 29.3311 14.5939 29.3513C14.5558 29.3714 14.5334 29.3926 14.5044 29.4162C14.4776 29.4409 14.3858 29.5348 14.3858 29.5348L14.1486 29.7653L13.9986 29.9062L13.8532 30.0449L13.7928 30.1144C13.7928 30.1144 13.7771 30.1412 13.7727 30.1479C13.7681 30.1557 13.7526 30.1758 13.7526 30.1758C13.7526 30.1758 13.7301 30.1971 13.7301 30.2038C13.7301 30.2094 13.7234 30.215 13.7234 30.2218C13.7211 30.2307 13.7167 30.2396 13.7167 30.2396Z" fill="white"/>
        <path d="M13.1846 30.5889C13.1846 30.5889 13.1516 30.5621 13.0996 30.5878C13.047 30.6158 12.9911 30.6873 12.9865 30.6952C12.9816 30.7053 12.953 30.7433 12.9726 30.7769C12.9922 30.8105 13.0587 30.7612 13.0688 30.759C13.0783 30.759 13.1651 30.6897 13.1651 30.6897C13.1651 30.6897 13.2154 30.6582 13.1846 30.5889Z" fill="white"/>
        <path d="M12.1659 31.6201C12.1659 31.6201 12.1223 31.5396 12.0652 31.5731C12.0081 31.6067 11.9768 31.6179 11.9242 31.6906C11.9153 31.7029 11.8588 31.7757 11.8487 31.7946C11.8386 31.8126 11.7821 31.92 11.8968 31.9278C12.0938 31.9389 11.9645 31.8126 12.0322 31.7633C12.087 31.7253 12.1899 31.7354 12.1911 31.6951C12.1922 31.6549 12.1659 31.6201 12.1659 31.6201Z" fill="white"/>
        <path d="M8.67515 27.4983C8.67515 27.4983 8.55711 27.5275 8.54816 27.5678C8.53864 27.6103 8.61697 27.6506 8.62926 27.6527C8.64322 27.655 8.66955 27.6863 8.74838 27.6326C8.82613 27.5801 8.82278 27.5353 8.82278 27.5353C8.82278 27.5353 8.86867 27.4816 8.67515 27.4983Z" fill="white"/>
        <path d="M10.5952 27.4359C10.5952 27.4359 10.594 27.3923 10.5107 27.398C10.4256 27.4025 10.4078 27.418 10.4055 27.4315C10.4027 27.4438 10.41 27.4651 10.4855 27.4718C10.5622 27.4763 10.5929 27.4717 10.5952 27.4359Z" fill="white"/>
        <path d="M12.4103 27.4886C12.2576 27.4874 12.3057 27.492 12.2117 27.4965C12.0411 27.5054 11.9483 27.4986 11.7799 27.4874C11.5437 27.4718 11.1785 27.4136 11.1785 27.4136C11.1785 27.4136 11.1326 27.4025 11.1141 27.4327C11.0973 27.4606 11.1589 27.5255 11.2137 27.5424C11.513 27.6352 11.5292 27.6196 11.7328 27.6229C11.8464 27.624 11.9096 27.6128 12.0227 27.6061C12.1659 27.595 12.2324 27.6173 12.3885 27.5759C12.4293 27.5658 12.4685 27.4898 12.4103 27.4886Z" fill="white"/>
        <path d="M13.4331 27.1852C13.4331 27.1852 13.4023 27.1495 13.339 27.1808C13.2765 27.211 13.2384 27.2792 13.2384 27.2792C13.2384 27.2792 13.2088 27.3262 13.272 27.3196C13.3335 27.3106 13.3888 27.2838 13.4034 27.2748C13.4196 27.2657 13.4655 27.2233 13.4331 27.1852Z" fill="white"/>
        <path d="M12.5429 14.9113C12.5429 14.9113 12.9747 14.5069 13.2841 13.9721C13.4675 13.6532 13.5475 12.9109 13.3898 13.0955C13.3187 13.18 13.2326 13.5649 13.0961 13.8501C12.9014 14.2562 12.4857 14.8313 12.4857 14.8313C12.4857 14.8313 12.3963 15.0227 12.5429 14.9113Z" fill="white"/>
        <path d="M10.8167 15.9389C10.8167 15.9389 10.7708 15.9747 10.7915 16.0317C10.8133 16.0899 10.9012 16.0463 10.9012 16.0463C10.9012 16.0463 11.1009 15.9708 11.3101 15.9629C11.5199 15.954 11.8108 16.0166 11.8108 16.0166C11.8108 16.0166 11.9495 16.0547 11.9725 16.0636C11.9954 16.0731 12.0709 16.1095 12.0838 16.1139C12.095 16.1189 12.1671 16.1542 12.2074 16.1179C12.2477 16.0809 11.9551 15.8152 11.6565 15.7749C11.1591 15.7072 10.8325 15.9215 10.8325 15.9215L10.8167 15.9389Z" fill="white"/>
        <path d="M8.76798 17.6902C8.80318 17.7204 8.96936 17.4038 9.10805 17.2035C9.20987 17.0569 9.39569 16.8119 9.39569 16.8119C9.39569 16.8119 9.47954 16.6995 9.33751 16.7622C9.27991 16.7879 9.12216 16.9081 9.01081 17.1292C8.91678 17.3171 8.73103 17.6605 8.76798 17.6902Z" fill="white"/>
        <path d="M7.61898 16.3145C7.61898 16.3145 7.58312 16.437 7.7264 16.5903C7.87069 16.7442 7.90763 16.8711 7.99942 16.7794C8.02458 16.7542 7.90989 16.5472 7.85171 16.4896C7.79185 16.4325 7.74931 16.3856 7.74931 16.3856L7.71185 16.3548L7.66371 16.328L7.63629 16.3168C7.63629 16.3168 7.62902 16.3101 7.61898 16.3145Z" fill="white"/>
        <path d="M7.15344 15.1401C7.15344 15.1401 6.99795 15.1692 6.95992 15.2447C6.9213 15.3203 7.1389 15.2744 7.1389 15.2744C7.1389 15.2744 7.28319 15.2822 7.28661 15.2274C7.28995 15.1715 7.26821 15.1659 7.15344 15.1401Z" fill="white"/>
        <path d="M4.68254 19.2347C4.60312 19.2118 4.58974 19.3679 4.57905 19.4182C4.5701 19.4685 4.6149 19.5692 4.6333 19.5692C4.65119 19.5681 4.71439 19.4697 4.71774 19.4216C4.72116 19.3724 4.7525 19.2566 4.68254 19.2347Z" fill="white"/>
        <path d="M7.24867 22.2848C7.24867 22.2848 7.10656 22.1723 7.08474 22.2171C7.0635 22.2618 7.20168 22.4593 7.20168 22.4593C7.20168 22.4593 7.24416 22.5242 7.30961 22.495C7.3739 22.4638 7.35099 22.3921 7.35099 22.3921C7.35099 22.3921 7.30736 22.3004 7.24867 22.2848Z" fill="white"/>
        <path d="M6.17753 18.9867C6.17753 18.9867 6.14117 18.9773 6.12829 19.0208C6.11484 19.0645 6.116 19.1355 6.10647 19.2216C6.09869 19.2888 6.12386 19.4678 6.12386 19.4678C6.12386 19.4678 6.13782 19.6099 6.16633 19.6944C6.19709 19.7872 6.27877 19.9193 6.27877 19.9193C6.27877 19.9193 6.30953 19.987 6.34756 19.9837C6.38502 19.9797 6.37607 19.9355 6.37607 19.9355C6.37607 19.9355 6.25695 19.4634 6.2536 19.4153C6.23956 19.2581 6.23956 19.0668 6.23956 19.0668L6.23847 19.0382C6.23847 19.0382 6.23731 18.9878 6.17753 18.9867Z" fill="white"/>
        <path d="M6.3631 17.5462C6.3631 17.5462 6.29765 17.5339 6.23728 17.6598C6.17634 17.7873 6.18921 17.8388 6.19474 17.8444C6.19925 17.85 6.24732 17.8489 6.32456 17.7309C6.40121 17.6139 6.38383 17.5691 6.38383 17.5691C6.38383 17.5691 6.37932 17.5462 6.3631 17.5462Z" fill="white"/>
        <path d="M8.16324 18.8513C8.16324 18.8513 8.24208 18.9693 8.0911 18.942C7.93953 18.9145 7.62121 18.6633 7.49139 18.5957C7.36324 18.528 7.15233 18.5067 7.24077 18.4273C7.25699 18.4139 7.26142 18.4009 7.28659 18.3999C7.31292 18.3988 7.40019 18.4329 7.40572 18.4368C7.41022 18.439 7.63452 18.5319 7.64288 18.5341C7.65073 18.5375 7.77662 18.5912 7.86608 18.6437C7.95561 18.6968 8.10099 18.7986 8.10099 18.7986L8.16324 18.8513Z" fill="white"/>
        <path d="M12.3596 22.4638C12.4009 22.5935 11.8818 22.1896 11.6038 21.9753C10.8671 21.4081 9.96524 20.2451 10.0777 20.1422C10.1705 20.0577 10.5403 20.5902 11.0824 21.177C11.662 21.8025 12.3355 22.3865 12.3596 22.4638Z" fill="white"/>
        <path d="M14.5266 21.9079C14.3655 22.0796 14.3085 22.2995 14.4013 22.464C14.4919 22.6239 14.5199 22.2301 14.6206 22.1143C14.7079 22.013 14.7616 22.0293 14.9048 21.9275C15.1487 21.7558 14.7303 21.6892 14.5266 21.9079Z" fill="white"/>
        <path d="M13.6047 18.2367C13.4939 18.2188 13.4973 18.3871 13.5129 18.5063C13.5868 19.0399 13.8263 19.4511 14.1461 19.8383C14.3409 20.0743 14.8746 20.495 14.936 20.4274C14.9585 20.4033 14.4281 19.9932 14.0902 19.4663C13.8508 19.0927 13.7232 18.7766 13.693 18.4683C13.6898 18.4291 13.6986 18.2518 13.6047 18.2367Z" fill="white"/>
        <path d="M11.5381 10.3273C11.2975 10.4576 10.8802 10.5724 10.8802 10.5724C10.8802 10.5724 10.8612 10.6138 10.9149 10.6094C11.2725 10.5808 11.4089 10.536 11.5991 10.4521C11.7893 10.3699 11.9275 10.1416 11.9275 10.1416C11.9275 10.1416 12.0047 9.99954 11.8615 10.1165C11.8167 10.1523 11.6701 10.2552 11.5381 10.3273Z" fill="white"/>
        <path d="M14.4405 9.41048C14.4405 9.41048 14.3588 9.39252 14.304 9.4267C14.2491 9.46139 14.2648 9.48881 14.2648 9.48881C14.2648 9.48881 14.3498 9.55368 14.4102 9.56437C14.4706 9.57332 14.6004 9.62982 14.596 9.58619C14.5904 9.54146 14.5177 9.46146 14.4919 9.43964C14.4685 9.41659 14.4405 9.41048 14.4405 9.41048Z" fill="white"/>
        <path d="M13.0744 11.9168C13.0883 11.9453 13.3322 11.8788 13.4262 11.8261C13.4996 11.7847 13.5286 11.646 13.5286 11.646C13.5286 11.646 13.5487 11.5117 13.5174 11.5637C13.3781 11.7915 13.0609 11.8877 13.0744 11.9168Z" fill="white"/>
        <path d="M13.0666 11.2907C13.165 11.1016 12.7963 11.4871 12.6084 11.5867C12.4937 11.6471 12.3069 11.7276 12.3069 11.7276C12.3069 11.7276 12.2576 11.7891 12.3264 11.7835C12.3952 11.779 12.5703 11.8384 12.7125 11.7287C12.7461 11.7019 12.8937 11.487 12.8937 11.487C12.8937 11.487 13.0195 11.3802 13.0666 11.2907Z" fill="white"/>
        <path d="M13.0096 12.0952C13.0174 12.1259 13.4308 12.1158 13.5343 12.0845C13.616 12.0621 13.6607 11.9178 13.6607 11.9178C13.6607 11.9178 13.71 11.7914 13.6674 11.8339C13.4801 12.0253 13.0024 12.0644 13.0096 12.0952Z" fill="white"/>
        <path d="M6.3699 15.8817C6.3699 15.8817 6.30728 15.8588 6.22953 15.9757C6.1523 16.092 5.80437 16.6207 5.8659 16.6984C5.93913 16.7901 6.24066 16.2263 6.33251 16.1211C6.42531 16.0143 6.38728 15.9069 6.38728 15.9069C6.38728 15.9069 6.38619 15.8828 6.3699 15.8817Z" fill="white"/>
        <path d="M13.9494 25.4134C13.9113 25.589 13.9561 25.9482 14.0166 26.0186C14.1642 26.1965 14.0736 25.74 14.0948 25.58C14.1127 25.4312 14.1306 25.3798 14.2045 25.2208C14.3365 24.9344 14.0267 25.0396 13.9494 25.4134Z" fill="white"/>
        <path d="M12.6793 10.1372C12.6793 10.1372 12.5647 10.1406 12.4752 10.1898C12.3846 10.2391 12.3622 10.309 12.3622 10.309C12.3622 10.309 12.3437 10.3594 12.3561 10.3868C12.3823 10.4466 12.5065 10.356 12.5932 10.3856C12.6631 10.4108 12.6967 10.4315 12.7504 10.4958C12.7974 10.5518 12.8796 10.6323 12.9311 10.5864C12.9842 10.5417 12.9647 10.427 12.9647 10.427C12.9647 10.427 12.9037 10.2402 12.8238 10.1876C12.7431 10.1339 12.6793 10.1372 12.6793 10.1372Z" fill="white"/>
        <path d="M10.7742 11.4511C10.7742 11.4511 10.7098 11.4611 10.725 11.5395C10.7401 11.6161 10.782 11.6043 10.782 11.6043C10.782 11.6043 10.9152 11.5472 10.9074 11.4673C10.8978 11.3867 10.7742 11.4511 10.7742 11.4511Z" fill="white"/>
        <path d="M9.84388 11.034C9.84388 11.034 9.77399 11.0368 9.72475 11.1234C9.67668 11.2096 9.6481 11.2991 9.6481 11.2991C9.6481 11.2991 9.62519 11.4122 9.66541 11.4479C9.70628 11.4831 9.75101 11.3747 9.8097 11.3322C9.8449 11.307 9.86679 11.2958 9.90315 11.2701C9.95297 11.2359 10.0341 11.2795 10.0285 11.1789C10.0213 11.0775 9.91384 11.0295 9.84388 11.034Z" fill="white"/>
        <path d="M12.8501 9.95148C12.8501 9.95148 12.6918 9.92858 12.6979 9.98952C12.7035 10.0465 12.7836 10.0124 12.835 10.0354C12.8853 10.0583 12.9189 10.0673 12.9592 10.1042C12.9888 10.1305 12.9854 10.182 13.0219 10.183C13.0722 10.1842 13.0621 10.1635 13.0621 10.1635C13.0621 10.1635 13.0163 10.027 12.9565 9.98843C12.8971 9.94923 12.8501 9.95148 12.8501 9.95148Z" fill="white"/>
        <path d="M14.6161 10.5897C14.5937 10.6759 14.5802 10.7055 14.5802 10.7055C14.5802 10.7055 14.5356 10.8806 14.7123 10.8163C14.8891 10.7513 14.7973 10.7787 14.9248 10.7167C15.0502 10.6552 15.0479 10.6893 15.1397 10.6938C15.171 10.6949 15.1911 10.696 15.2382 10.6871C15.2784 10.6781 15.2616 10.6311 15.1722 10.607C15.076 10.5819 14.9585 10.5875 14.822 10.5863C14.7415 10.5853 14.6396 10.5036 14.6161 10.5897Z" fill="white"/>
        <path d="M14.6945 9.94241C14.6945 9.94241 14.614 9.92394 14.558 9.95863C14.5032 9.99274 14.52 10.0202 14.52 10.0202C14.52 10.0202 14.6039 10.0868 14.6655 10.0957C14.7259 10.1063 14.8556 10.1623 14.8512 10.1175C14.8444 10.0739 14.7729 9.99281 14.7471 9.97099C14.7215 9.9491 14.6945 9.94241 14.6945 9.94241Z" fill="white"/>
        <path d="M15.0057 11.1579C15.0057 11.1579 14.9194 11.1405 14.8601 11.1735C14.8019 11.206 14.8176 11.2323 14.8176 11.2323C14.8176 11.2323 14.9094 11.2939 14.9742 11.3033C15.0392 11.3123 15.1779 11.3649 15.1723 11.3229C15.1667 11.2815 15.0883 11.2049 15.0626 11.1842C15.0369 11.1634 15.0057 11.1579 15.0057 11.1579Z" fill="white"/>
        <path d="M15.0324 11.5989C15.0324 11.5989 14.9406 11.5782 14.8779 11.6162C14.8153 11.6537 14.8342 11.684 14.8342 11.684C14.8342 11.684 14.9294 11.7561 14.9988 11.7662C15.067 11.7768 15.2147 11.8373 15.208 11.7891C15.2024 11.741 15.1196 11.6538 15.0905 11.6303C15.0637 11.6056 15.0324 11.5989 15.0324 11.5989Z" fill="white"/>
        <path d="M15.0738 12.0286C15.0738 12.0286 14.9742 12.0057 14.907 12.0482C14.8388 12.0907 14.8601 12.1248 14.8601 12.1248C14.8601 12.1248 14.963 12.2054 15.0369 12.2177C15.1118 12.2295 15.2718 12.2982 15.2652 12.244C15.2584 12.1903 15.1689 12.0907 15.1376 12.0644C15.1085 12.0364 15.0738 12.0286 15.0738 12.0286Z" fill="white"/>
        <path d="M15.0648 12.5601C15.0648 12.5601 14.9652 12.5388 14.898 12.5808C14.8298 12.6222 14.8489 12.6563 14.8489 12.6563C14.8489 12.6563 14.954 12.7368 15.0279 12.7492C15.1018 12.7609 15.2617 12.8297 15.255 12.776C15.2472 12.7217 15.1588 12.6222 15.1286 12.5958C15.0972 12.5685 15.0648 12.5601 15.0648 12.5601Z" fill="white"/>
        <path d="M14.9921 13.5959C14.9921 13.5959 14.8914 13.5741 14.8242 13.6167C14.7571 13.6586 14.7772 13.6922 14.7772 13.6922C14.7772 13.6922 14.8802 13.7733 14.954 13.7851C15.029 13.7963 15.189 13.8662 15.1823 13.8113C15.1756 13.7577 15.0862 13.6586 15.0548 13.6312C15.0245 13.6038 14.9921 13.5959 14.9921 13.5959Z" fill="white"/>
        <path d="M15.0592 13.0778C15.0592 13.0778 14.945 13.0515 14.8644 13.1007C14.7872 13.1488 14.8108 13.188 14.8108 13.188C14.8108 13.188 14.9305 13.2819 15.0166 13.2954C15.1017 13.3094 15.2874 13.3883 15.2806 13.3267C15.2717 13.2635 15.1687 13.1489 15.133 13.1181C15.0972 13.0867 15.0592 13.0778 15.0592 13.0778Z" fill="white"/>
        <path d="M14.9429 14.065C14.9429 14.065 14.8601 14.0454 14.8042 14.0807C14.7482 14.1153 14.7662 14.1428 14.7662 14.1428C14.7662 14.1428 14.8512 14.2105 14.9116 14.2194C14.9732 14.2295 15.1041 14.286 15.0996 14.2412C15.0929 14.1964 15.0201 14.1153 14.9945 14.0935C14.9698 14.0706 14.9429 14.065 14.9429 14.065Z" fill="white"/>
        <path d="M14.8646 14.5135C14.8646 14.5135 14.7975 14.4989 14.7505 14.5275C14.7058 14.556 14.7191 14.5789 14.7191 14.5789C14.7191 14.5789 14.7896 14.6338 14.84 14.6421C14.8903 14.65 15.0011 14.6981 14.9966 14.6601C14.9921 14.6237 14.9295 14.556 14.9093 14.5375C14.8881 14.5191 14.8646 14.5135 14.8646 14.5135Z" fill="white"/>
        <path d="M14.7683 14.9231C14.7683 14.9231 14.7078 14.9092 14.6653 14.9354C14.625 14.9606 14.6362 14.9824 14.6362 14.9824C14.6362 14.9824 14.7 15.0317 14.7459 15.0384C14.7918 15.0468 14.8902 15.0887 14.8858 15.0557C14.8824 15.0227 14.8275 14.9606 14.8085 14.9444C14.7894 14.9277 14.7683 14.9231 14.7683 14.9231Z" fill="white"/>
        <path d="M14.6721 15.2588C14.6721 15.2588 14.6095 15.2447 14.5693 15.2699C14.5267 15.2962 14.539 15.3169 14.539 15.3169C14.539 15.3169 14.6028 15.3672 14.6487 15.374C14.6946 15.3813 14.793 15.4243 14.7885 15.3903C14.7852 15.3573 14.7304 15.2963 14.7102 15.28C14.6923 15.2633 14.6721 15.2588 14.6721 15.2588Z" fill="white"/>
        <path d="M14.5547 15.6479C14.5547 15.6479 14.5054 15.6361 14.4707 15.6568C14.4371 15.6786 14.4483 15.6948 14.4483 15.6948C14.4483 15.6948 14.4997 15.7352 14.5367 15.7419C14.5736 15.7474 14.6541 15.7822 14.6498 15.7541C14.6464 15.7279 14.6016 15.6786 14.5871 15.6647C14.5714 15.6512 14.5547 15.6479 14.5547 15.6479Z" fill="white"/>
        <path d="M14.4148 16.0121C14.4148 16.0121 14.3722 16.002 14.3432 16.0199C14.3141 16.0384 14.3231 16.0534 14.3231 16.0534C14.3231 16.0534 14.3678 16.0875 14.3992 16.0921C14.4305 16.0982 14.4998 16.1279 14.4965 16.1038C14.4943 16.0809 14.4551 16.0384 14.4428 16.0272C14.4281 16.0155 14.4148 16.0121 14.4148 16.0121Z" fill="white"/>
        <path d="M14.2704 16.3584C14.2704 16.3584 14.2267 16.3489 14.1977 16.3674C14.1696 16.3847 14.1798 16.3992 14.1798 16.3992C14.1798 16.3992 14.2223 16.4339 14.2547 16.4395C14.2872 16.444 14.3554 16.4736 14.352 16.4513C14.3499 16.4266 14.3107 16.3847 14.2984 16.373C14.285 16.3617 14.2704 16.3584 14.2704 16.3584Z" fill="white"/>
        <path d="M4.90472 18.12C4.90472 18.12 4.83258 18.2598 4.86836 18.3365C4.90363 18.4137 5.00094 18.214 5.00094 18.214C5.00094 18.214 5.10159 18.0148 5.06079 17.9785C5.01941 17.9415 4.99541 18.0444 4.90472 18.12Z" fill="white"/>
        <path d="M15.0883 36.0811V35.8093C15.0883 35.1916 15.4005 35.0708 16.3123 35.0664C17.1515 35.0708 17.4479 35.176 17.4479 35.7086V37.7639H17.7578V38.2271H15.7081C15.2763 38.2271 14.9944 37.9306 14.9944 37.5658V37.1495C14.9944 36.7904 15.1778 36.4772 15.8201 36.4738H16.6211V35.8483C16.6211 35.5216 16.5987 35.4825 16.271 35.4825H16.2676C15.875 35.4825 15.8492 35.534 15.8492 35.8483V36.081L15.0883 36.0811ZM16.0394 36.8185C15.8783 36.8185 15.7832 36.9482 15.7832 37.1093V37.5065C15.7832 37.6666 15.8515 37.794 16.0394 37.7963H16.3281C16.487 37.7963 16.6168 37.7471 16.6168 37.5065L16.619 36.8185H16.3459C16.3393 36.8185 16.0394 36.8185 16.0394 36.8185Z" fill="black"/>
        <path d="M13.1388 35.8405V35.1222H11.9954V35.5496H12.3002V37.7626H11.9954V38.227H13.4275V37.7626H13.1388V36.5767C13.1388 36.466 13.8129 35.6146 13.8129 35.713V36.8911H14.6051V35.5653C14.6051 35.2621 14.407 35.0664 14.0456 35.0664C13.6159 35.0663 13.3256 35.6067 13.1388 35.8405Z" fill="black"/>
        <path d="M22.2534 37.7603V35.1221H21.0864V35.5495H21.4132V37.7603H21.0864V38.2269H22.56V37.7603H22.2534Z" fill="black"/>
        <path d="M10.1969 35.8405V35.1222H9.05347V35.5496H9.35834V37.7626H9.05347V38.227H10.4844V37.7626H10.1969V36.5767C10.1969 36.466 10.8704 35.6146 10.8704 35.713V36.8911H11.662V35.5653C11.662 35.2621 11.465 35.0664 11.1031 35.0664C10.6746 35.0663 10.3837 35.6067 10.1969 35.8405Z" fill="black"/>
        <path fill-rule="evenodd" clip-rule="evenodd" d="M8.61585 37.2102H7.81367V37.4429C7.81367 37.7585 7.76109 37.7719 7.37003 37.7763H7.36443C6.91629 37.7786 6.94153 37.7338 6.94654 37.4429V36.8913H8.61578V35.693C8.61578 35.2588 8.288 35.0765 7.42313 35.0732H7.29898C6.36531 35.0777 6.11694 35.2903 6.11694 35.8274V37.5816C6.11694 38.1723 6.46596 38.2719 7.31629 38.2954H7.40909C8.33723 38.2741 8.61578 38.2103 8.61578 37.6588L8.61585 37.2102ZM6.95556 35.7378C6.95556 35.5745 7.0048 35.4938 7.19163 35.4916H7.54349C7.68894 35.4916 7.77003 35.5565 7.77003 35.6728V36.5713H6.95549L6.95556 35.7378Z" fill="black"/>
        <path d="M21.8306 34.4845V33.9229" stroke="black" stroke-width="0.74" stroke-miterlimit="10"/>
        <path d="M19.2125 35.8405V35.1222H18.0679V35.5496H18.3722V37.7626H18.0679V38.227H19.4999V37.7626H19.2125V36.5767C19.2125 36.466 19.8849 35.6146 19.8849 35.713V36.8911H20.6781V35.5653C20.6781 35.2621 20.4789 35.0664 20.1163 35.0664C19.689 35.0663 19.3981 35.6067 19.2125 35.8405Z" fill="black"/>
        <path d="M5.11679 36.7175V36.3035H4.67098V37.7636H5.44349V38.2268H3.17847V37.7636H3.78094V34.4843H3.3077V33.9204H20.9498V34.4843H4.67098V35.8011H5.11679V35.4118H5.62981V36.7175H5.11679Z" fill="black"/>
        <path d="M22.2419 33.9004H21.4006V34.4554H22.2419V33.9004Z" fill="black"/>
    </g>
    <defs>
        <clipPath id="clip0_41_2160">
            <rect width="25.0182" height="40" fill="white" transform="translate(0.490967 0.610352)"/>
        </clipPath>
    </defs>
</svg>
