<svg width="110" height="41" viewBox="0 0 110 41" fill="none" xmlns="http://www.w3.org/2000/svg">
    <g clip-path="url(#clip0_41_2229)">
        <path fill-rule="evenodd" clip-rule="evenodd" d="M49.9054 7.72607H50.8738C52.179 7.72607 53.4422 7.72607 53.4422 6.04186C53.4422 4.56818 52.0106 4.56818 50.8738 4.56818H49.9054V7.72607ZM47.4211 11.5155H48.7264V4.56818H47.4211V3.72607H51.0843C52.8527 3.72607 54.6632 3.81028 54.6632 6.04186C54.6632 7.26292 53.9475 8.10502 52.7264 8.18923V8.23134C53.3159 8.31555 53.6527 8.56818 53.8211 8.90502C54.0317 9.28397 54.1159 9.74713 54.3264 10.2524L54.6632 11.5155H55.6738V12.3577H53.7369L53.1896 10.4208C52.7264 8.90502 52.558 8.56818 50.9159 8.56818H49.9054V11.5155H51.2106V12.3577H47.4211V11.5155Z" fill="#292D6C"/>
        <path fill-rule="evenodd" clip-rule="evenodd" d="M59.2527 11.6415C60.6001 11.6415 61.2317 10.5889 61.2317 9.32575C61.2317 8.1047 60.6001 7.05207 59.2527 7.05207C57.9054 7.05207 57.1896 8.1047 57.1896 9.32575C57.1896 10.5889 57.9054 11.6415 59.2527 11.6415ZM59.2527 6.20996C61.1896 6.20996 62.4106 7.38891 62.4106 9.32575C62.4106 11.3047 61.1896 12.4836 59.2527 12.4836C57.2738 12.4836 56.0527 11.3047 56.0527 9.32575C56.0527 7.38891 57.2738 6.20996 59.2527 6.20996Z" fill="#292D6C"/>
        <path fill-rule="evenodd" clip-rule="evenodd" d="M69.9054 7.17853H69.2317L66.7896 12.9048C66.3264 13.9575 66.0317 14.6733 64.8106 14.6733C64.558 14.6733 64.2633 14.6312 64.0106 14.5891V13.7891C64.1791 13.7891 64.3896 13.8312 64.6422 13.8312C65.5264 13.8312 65.5685 13.0733 65.9475 12.3575L63.5896 7.17853H62.958V6.33643H65.9475V7.17853H64.8106L66.537 11.2206L68.2212 7.17853H67.0843V6.33643H69.9054V7.17853Z" fill="#292D6C"/>
        <path fill-rule="evenodd" clip-rule="evenodd" d="M72.8106 11.6415C74.158 11.6415 74.7475 10.6731 74.7475 9.53628H73.8212C73.0633 9.53628 71.5054 9.53628 71.5054 10.631C71.5054 11.431 72.1791 11.6415 72.8106 11.6415ZM74.7475 11.0942H74.7054C74.4527 12.0626 73.6527 12.4836 72.6843 12.4836C71.5054 12.4836 70.3264 11.9784 70.3264 10.631C70.3264 8.77838 72.1369 8.69417 73.5685 8.69417H74.7475V8.31522C74.7475 7.3468 74.2422 7.05207 73.2738 7.05207C72.4738 7.05207 71.8001 7.22049 71.7159 8.06259H70.5369C70.6212 6.67312 71.8422 6.20996 73.1475 6.20996C74.5791 6.20996 75.8422 6.5047 75.8422 8.06259V11.5152H76.8948V12.3573H74.7475V11.0942Z" fill="#292D6C"/>
        <path fill-rule="evenodd" clip-rule="evenodd" d="M77.6528 11.5155H78.7055V4.56818H77.6528V3.72607H79.7581V11.5155H80.8107V12.3577H77.6528V11.5155Z" fill="#292D6C"/>
        <path fill-rule="evenodd" clip-rule="evenodd" d="M55.0844 31.305H54.116C53.9896 29.7892 53.1054 28.9471 51.5896 28.9471C49.6107 28.9471 48.4317 30.126 48.4317 32.5681C48.4317 34.6313 49.5265 36.1471 51.5896 36.1471C53.1896 36.1471 54.1581 35.0102 54.116 33.4523H52.6844V32.6102H56.3896V33.4523H55.2107V36.8629H54.116V35.6418C53.6107 36.4418 52.516 37.0313 51.5896 37.0313C48.7265 37.0313 47.2107 35.3471 47.2107 32.5681C47.2107 29.7892 48.7265 28.105 51.5896 28.105C52.4739 28.105 53.6107 28.526 54.0739 29.326V28.2313H55.0844V31.305Z" fill="#292D6C"/>
        <path fill-rule="evenodd" clip-rule="evenodd" d="M57.0212 36.0206H58.0739V31.6838H57.0212V30.8416H59.1686V32.0627C59.3791 31.1785 60.137 30.7153 61.0212 30.7153C61.2318 30.7153 61.3581 30.7153 61.5265 30.7574V31.6416C61.3581 31.5995 61.1054 31.5574 60.8528 31.5574C59.337 31.5574 59.1686 33.1574 59.1686 34.3785V36.0206H60.3897V36.8627H57.0212V36.0206Z" fill="#292D6C"/>
        <path fill-rule="evenodd" clip-rule="evenodd" d="M65.1895 36.1469C66.579 36.1469 67.2106 35.0943 67.2106 33.8732C67.2106 32.6101 66.579 31.5574 65.1895 31.5574C63.8421 31.5574 63.1684 32.6101 63.1684 33.8732C63.1684 35.0943 63.8421 36.1469 65.1895 36.1469ZM65.1895 30.7153C67.1684 30.7153 68.3474 31.8943 68.3474 33.8732C68.3474 35.8522 67.1684 37.0311 65.1895 37.0311C63.2527 37.0311 61.9895 35.8522 61.9895 33.8732C61.9895 31.8943 63.2527 30.7153 65.1895 30.7153Z" fill="#292D6C"/>
        <path fill-rule="evenodd" clip-rule="evenodd" d="M75.1263 36.0207H76.179V36.8628H74.0316V35.8523C73.779 36.5681 72.9369 37.0313 72.0527 37.0313C70.4948 37.0313 69.8632 36.2313 69.8632 34.7997V31.6839H68.8105V30.8418H70.9158V34.5892C70.9158 35.5576 71.2527 36.1471 72.3053 36.1471C73.4842 36.1471 74.0316 35.3892 74.0316 34.2944V31.6839H72.979V30.8418H75.1263V36.0207Z" fill="#292D6C"/>
        <path fill-rule="evenodd" clip-rule="evenodd" d="M80.6843 36.1469C81.8211 36.1469 82.4948 35.2206 82.4948 33.8732C82.4948 32.6522 81.8632 31.5574 80.6843 31.5574C79.2106 31.5574 78.579 32.6522 78.579 33.8732C78.579 35.2206 79.2527 36.1469 80.6843 36.1469ZM76.4316 38.2101H77.4843V31.6838H76.4316V30.8416H78.579V32.0627C78.9159 31.2627 79.7159 30.7153 80.6843 30.7153C82.5369 30.7153 83.6738 31.9364 83.6738 33.8732C83.6738 35.768 82.6211 37.0311 80.6843 37.0311C79.758 37.0311 79.0001 36.568 78.579 35.7259V38.2101H79.6316V39.0522H76.4316V38.2101Z" fill="#292D6C"/>
        <path fill-rule="evenodd" clip-rule="evenodd" d="M55.2107 19.052H54.2002C54.0739 17.4942 53.1054 16.6942 51.5896 16.6942C49.6107 16.6942 48.4317 17.8731 48.4317 20.2731C48.4317 22.3784 49.5265 23.8942 51.5896 23.8942C52.8949 23.8942 53.9896 23.0942 53.9896 21.6626H55.2528C55.2528 23.8942 53.5265 24.7363 51.5896 24.7363C48.7265 24.7363 47.2107 23.0521 47.2107 20.2731C47.2107 17.5363 48.7265 15.8521 51.5896 15.8521C52.3896 15.8521 53.6949 16.1889 54.1581 17.031H54.2002V15.9784H55.2107V19.052Z" fill="#292D6C"/>
        <path fill-rule="evenodd" clip-rule="evenodd" d="M58.6633 23.8945C59.9685 23.8945 60.558 22.926 60.558 21.7892H59.6317C58.8738 21.7892 57.3159 21.7892 57.3159 22.8839C57.3159 23.6839 57.9896 23.8945 58.6633 23.8945ZM60.558 23.3892H60.5159C60.2633 24.3155 59.4633 24.7366 58.4949 24.7366C57.3159 24.7366 56.137 24.2313 56.137 22.8839C56.137 21.0313 57.9475 20.9471 59.3791 20.9471H60.558V20.5682C60.558 19.5997 60.0528 19.305 59.1264 19.305C58.2843 19.305 57.6106 19.4734 57.5264 20.3155H56.3896C56.4317 18.926 57.6528 18.4629 58.958 18.4629C60.3896 18.4629 61.6528 18.7576 61.6528 20.3155V23.7682H62.7054V24.6103H60.558V23.3892Z" fill="#292D6C"/>
        <path fill-rule="evenodd" clip-rule="evenodd" d="M63.2527 23.7682H64.3053V19.4313H63.2527V18.5892H65.4001V19.8103C65.6106 18.926 66.3264 18.4629 67.2527 18.4629C67.4632 18.4629 67.5895 18.4629 67.7579 18.4629V19.3892C67.5895 19.3471 67.3369 19.305 67.0843 19.305C65.5685 19.305 65.4001 20.905 65.4001 22.126V23.7682H66.6211V24.6103H63.2527V23.7682Z" fill="#292D6C"/>
        <path fill-rule="evenodd" clip-rule="evenodd" d="M69.3581 17.1996H70.5791V15.9785H69.3581V17.1996ZM68.4739 23.768H69.5265V19.4311H68.4739V18.589H70.5791V23.768H71.6318V24.6101H68.4739V23.768Z" fill="#292D6C"/>
        <path fill-rule="evenodd" clip-rule="evenodd" d="M76.6843 23.8943C77.8632 23.8943 78.4948 22.968 78.4948 21.6206C78.4948 20.3996 77.8632 19.3048 76.6843 19.3048C75.2106 19.3048 74.579 20.3996 74.579 21.6206C74.579 22.968 75.2527 23.8943 76.6843 23.8943ZM72.4316 23.768H73.4843V16.8206H72.4316V15.9785H74.579V19.6838H74.6211C74.958 18.9259 75.8843 18.4627 76.6843 18.4627C78.579 18.4627 79.6738 19.6838 79.6738 21.6206C79.6738 23.4733 78.6211 24.7364 76.6843 24.7364C75.8422 24.7364 74.9159 24.2733 74.6211 23.389H74.579V24.6101H72.4316V23.768Z" fill="#292D6C"/>
        <path fill-rule="evenodd" clip-rule="evenodd" d="M84.3896 23.8943C85.5264 23.8943 86.2001 22.968 86.2001 21.6206C86.2001 20.3996 85.5685 19.3048 84.3896 19.3048C82.9159 19.3048 82.2843 20.3996 82.2843 21.6206C82.2843 22.968 82.958 23.8943 84.3896 23.8943ZM80.137 23.768H81.1896V16.8206H80.137V15.9785H82.2843V19.6838C82.6212 18.9259 83.5475 18.4627 84.3896 18.4627C86.2422 18.4627 87.3791 19.6838 87.3791 21.6206C87.3791 23.4733 86.2843 24.7364 84.3896 24.7364C83.5475 24.7364 82.5791 24.2733 82.2843 23.389V24.6101H80.137V23.768Z" fill="#292D6C"/>
        <path fill-rule="evenodd" clip-rule="evenodd" d="M93.2737 21.0734C93.2316 19.9787 92.5579 19.305 91.379 19.305C90.3263 19.305 89.4 19.9366 89.4 21.0734H93.2737ZM89.4 21.9155C89.4 23.305 90.2 23.8945 91.5895 23.8945C92.3053 23.8945 93.2316 23.5155 93.3158 22.7576H94.3263C94.2842 24.2313 92.7263 24.7366 91.4632 24.7366C89.5263 24.7366 88.2632 23.5576 88.2632 21.6208C88.2632 19.6418 89.5263 18.4629 91.4632 18.4629C93.6106 18.4629 94.3684 19.9787 94.3684 21.9155H89.4Z" fill="#292D6C"/>
        <path fill-rule="evenodd" clip-rule="evenodd" d="M97.8632 23.8945C99.1685 23.8945 99.758 22.926 99.758 21.7892H98.8317C98.0738 21.7892 96.5159 21.7892 96.5159 22.8839C96.5159 23.6839 97.1895 23.8945 97.8632 23.8945ZM99.758 23.3892H99.7159C99.4632 24.3155 98.6632 24.7366 97.6948 24.7366C96.5159 24.7366 95.3369 24.2313 95.3369 22.8839C95.3369 21.0313 97.1474 20.9471 98.579 20.9471H99.758V20.5682C99.758 19.5997 99.2527 19.305 98.3264 19.305C97.4843 19.305 96.8106 19.4734 96.7264 20.3155H95.5895C95.6316 18.926 96.8527 18.4629 98.158 18.4629C99.5895 18.4629 100.853 18.7576 100.853 20.3155V23.7682H101.905V24.6103H99.758V23.3892Z" fill="#292D6C"/>
        <path fill-rule="evenodd" clip-rule="evenodd" d="M102.453 23.7682H103.506V19.4313H102.453V18.5892H104.558V19.6839H104.6C104.895 18.926 105.737 18.4629 106.621 18.4629C108.137 18.4629 108.769 19.2208 108.769 20.6524V23.7682H109.821V24.6103H106.621V23.7682H107.674V20.8629C107.674 19.8945 107.337 19.305 106.284 19.305C105.148 19.305 104.558 20.105 104.558 21.1997V23.7682H105.611V24.6103H102.453V23.7682Z" fill="#292D6C"/>
        <path fill-rule="evenodd" clip-rule="evenodd" d="M20.0528 0.694336C9.14751 0.694336 0.221191 9.57855 0.221191 20.4838C0.221191 31.4312 9.14751 40.3154 20.0528 40.3154C31.0001 40.3154 39.8843 31.4312 39.8843 20.4838C39.8843 9.57855 31.0001 0.694336 20.0528 0.694336ZM20.0528 1.36802C30.6212 1.36802 39.1686 9.95749 39.1686 20.4838C39.1686 31.0522 30.6212 39.5996 20.0528 39.5996C9.48435 39.5996 0.936981 31.0522 0.936981 20.4838C0.936981 9.95749 9.48435 1.36802 20.0528 1.36802Z" fill="#292D6C"/>
        <path fill-rule="evenodd" clip-rule="evenodd" d="M24.8108 12.8628L26.495 14.3786L24.095 16.5681L21.695 14.3786L23.5897 12.6523L20.0529 9.41016L16.516 12.6523L18.4108 14.3786L16.0108 16.5681L13.6108 14.3786L15.3371 12.8628L9.82129 10.2523L10.5371 17.4523H29.6108L30.2844 10.2523L24.8108 12.8628Z" fill="#CBB56E"/>
        <path fill-rule="evenodd" clip-rule="evenodd" d="M10.6211 18.5889L10.8316 20.8626H17.9895V28.9889L14.1579 27.1783L15.7158 25.7468L11.1264 23.5573L11.5895 28.6941L20.0527 32.6941L28.5158 28.6941L29.0211 23.5573L24.3895 25.7468L25.9474 27.1783L22.1158 28.9889V20.8626H29.2737L29.4843 18.5889H10.6211Z" fill="#CBB56E"/>
        <path fill-rule="evenodd" clip-rule="evenodd" d="M36.3054 36.4839V37.1997H36.8949C37.1475 37.1997 37.2738 37.0313 37.2738 36.8208C37.2738 36.6524 37.1475 36.4839 36.8949 36.4839H36.3054ZM36.1791 36.3997H36.8949C37.2317 36.3997 37.4001 36.5681 37.4001 36.8208C37.4001 37.0734 37.2317 37.2839 36.9791 37.326L37.4423 37.9997H37.2738L36.8528 37.326H36.3054V37.9997H36.1791V36.3997ZM36.7686 38.7155C37.6528 38.7155 38.2423 38.0418 38.2423 37.1997C38.2423 36.3155 37.6107 35.6839 36.7686 35.6839C35.8844 35.6839 35.2528 36.3155 35.2528 37.1997C35.2528 38.0418 35.8844 38.7155 36.7686 38.7155ZM36.7686 35.5576C37.6949 35.5576 38.3686 36.2734 38.3686 37.1997C38.3686 38.0839 37.6949 38.8418 36.7686 38.8418C35.8001 38.8418 35.1265 38.0839 35.1265 37.1997C35.1265 36.2734 35.8001 35.5576 36.7686 35.5576Z" fill="#292D6C"/>
    </g>
    <defs>
        <clipPath id="clip0_41_2229">
            <rect width="109.895" height="40" fill="white" transform="translate(0.0527344 0.610352)"/>
        </clipPath>
    </defs>
</svg>
