<svg width="160" height="20" viewBox="0 0 160 20" fill="none" xmlns="http://www.w3.org/2000/svg">
<g clip-path="url(#clip0_114_8028)">
<path d="M4.08219 1.22597H12.4618C15.6131 1.15423 17.6901 2.44359 17.6901 5.80975C17.6901 8.17321 16.0428 10.1786 13.6794 10.5367V10.6084C15.1118 11.0381 15.4699 12.3273 15.4699 13.688C15.4699 14.4759 15.3267 15.6219 15.3267 16.7678C15.3267 17.5556 15.3984 18.2718 15.5416 18.7732H11.7457C11.674 18.3435 11.6025 17.9853 11.6025 17.6272C11.6025 16.4813 11.8174 15.2638 11.8174 14.0462C11.8174 12.3273 10.8147 11.8976 9.31073 11.8976H5.65807L4.22568 18.7732H0.358154L4.08219 1.22597ZM6.30246 9.17588H9.88346C11.8888 9.17588 13.8942 8.38803 13.8942 6.38264C13.8942 4.52053 12.5334 4.23407 11.0294 4.23407H7.37674L6.30246 9.17588Z" fill="#005C9E"/>
<path d="M32.3724 15.5502L31.6562 18.7731H18.1199L21.8441 1.22607H35.2372L34.521 4.449H24.9954L24.2076 8.24488H33.0169L32.3724 11.2529H23.563L22.7036 15.5502H32.3724Z" fill="#005C9E"/>
<path d="M47.7708 16.9829C46.5532 18.5585 44.906 19.203 43.3303 19.203C38.3885 19.203 35.5237 16.4099 35.5237 11.4681C35.5237 5.81006 39.1763 0.868164 45.1208 0.868164C49.2032 0.868164 52.5693 2.80193 52.5693 7.09916H48.7019C48.6301 4.95055 47.2694 4.09114 45.1208 4.09114C41.1817 4.09114 39.3912 8.10189 39.3912 11.4681C39.3912 13.9032 40.5371 15.9802 43.4019 15.9802C46.3384 15.9802 47.6276 14.4045 48.2721 12.1842H44.1898L44.8343 9.31943H52.2828L50.2775 18.7733H47.7708V16.9829Z" fill="#005C9E"/>
<path d="M67.3947 15.5502L66.7501 18.7731H53.2139L56.8665 1.22607H70.2595L69.615 4.449H60.0894L59.3016 8.24488H68.1109L67.4663 11.2529H58.657L57.726 15.5502H67.3947Z" fill="#005C9E"/>
<path d="M75.7028 6.45437L73.1961 18.7731H69.5435L73.2677 1.22607H77.2785L82.0054 13.688H82.077L84.5838 1.22607H88.1648L84.4405 18.7731H80.573L75.7744 6.45437H75.7028Z" fill="#005C9E"/>
<path d="M102.059 15.5502L101.343 18.7731H87.8066L91.4593 1.22607H104.852L104.208 4.449H94.6822L93.8944 8.24488H102.704L102.059 11.2529H93.2498L92.3187 15.5502H102.059Z" fill="#005C9E"/>
<path d="M107.86 1.22597H116.24C119.391 1.15423 121.468 2.44359 121.468 5.80975C121.468 8.17321 119.821 10.1786 117.457 10.5367V10.6084C118.89 11.0381 119.248 12.3273 119.248 13.688C119.248 14.4759 119.105 15.6219 119.105 16.7678C119.105 17.5556 119.176 18.2718 119.32 18.7732H115.524C115.452 18.3435 115.381 17.9853 115.381 17.6272C115.381 16.4813 115.596 15.2638 115.596 14.0462C115.596 12.3273 114.593 11.8976 113.089 11.8976H109.436L108.004 18.7732H104.136L107.86 1.22597ZM110.08 9.17588H113.662C115.739 9.17588 117.672 8.38803 117.672 6.38264C117.672 4.52053 116.311 4.23407 114.807 4.23407H111.155L110.08 9.17588Z" fill="#005C9E"/>
<path d="M132.569 0.796387C137.296 0.796387 140.376 3.37474 140.376 8.31657C140.376 14.1178 136.938 19.2029 130.779 19.2029C125.837 19.2029 122.972 16.4097 122.972 11.4679C122.972 5.73827 126.625 0.796387 132.569 0.796387ZM130.779 15.98C134.575 15.98 136.437 11.9692 136.437 8.60306C136.437 6.16797 135.363 4.01936 132.498 4.01936C128.559 4.01936 126.768 8.03014 126.768 11.3963C126.84 13.8314 127.986 15.98 130.779 15.98Z" fill="#005C9E"/>
<path d="M144.673 18.7731H141.092L144.745 1.22607H148.756L153.554 13.688L156.061 1.22607H159.642L155.918 18.7731H152.05L147.252 6.45437H147.18L144.673 18.7731Z" fill="#005C9E"/>
</g>
<defs>
<clipPath id="clip0_114_8028">
<rect width="160" height="19.1227" fill="white" transform="translate(0 0.438477)"/>
</clipPath>
</defs>
</svg>
