<svg width="160" height="28" viewBox="0 0 160 28" fill="none" xmlns="http://www.w3.org/2000/svg">
    <g clip-path="url(#clip0_41_2255)">
        <path d="M10.0184 13.4311L16.096 26.7953H0.0319824L10.0184 13.4311ZM10.383 12.996L17.9384 26.8081L15.3922 6.22115L10.383 12.996ZM19.4994 0.642578L15.7185 5.70295L19.4994 26.8081L23.3059 5.71575L19.4994 0.642578ZM21.1563 26.8017L28.6989 12.9449L23.6385 6.18916L21.1563 26.8017ZM23.0308 26.8017H39.0436L29.0188 13.3991L23.0308 26.8017Z" fill="#84BD00"/>
        <path d="M52.8172 16.8535C56.4893 17.1094 58.1782 15.9834 58.1782 12.8679C58.1782 10.456 56.79 9.14454 54.1414 9.14454H52.8172V16.8535ZM48.5501 11.1981C48.5501 9.62435 48.1854 9.0166 46.0999 8.62635V8.07617H55.2994C60.6604 8.07617 62.81 10.1681 62.81 12.7975C62.81 14.7231 61.684 16.4952 58.9075 17.2629V17.3269C61.0571 17.8067 63.1426 23.8139 64.8955 25.522C65.3945 26.0018 65.8232 26.1937 66.6484 26.3217V26.8655H61.0571C58.9395 24.4216 57.5513 20.2185 56.0607 18.7727C55.2034 17.9346 54.5381 17.9026 52.8172 17.9026V23.6859C52.8172 25.3557 53.5145 26.0658 55.2994 26.3217V26.8655H46.1063V26.3281C47.6928 26.2001 48.5565 25.4324 48.5565 23.9226V11.1981M79.3282 21.8563H78.842C78.6628 20.5896 77.9975 19.9946 76.7692 19.9946H74.1334V24.2681C74.1334 25.586 74.6964 26.0594 76.1806 26.0594H77.0507C78.8931 26.0594 79.712 24.7415 80.1982 23.3533H80.6332L80.3518 26.8846H68.9387V26.4624C70.6021 26.117 70.8324 25.618 70.8324 24.1337V14.7807C70.8324 13.514 70.5253 13.0662 68.9387 12.7655V12.3433H80.1726V15.574H79.7376C79.2514 13.7123 78.6884 13.1685 77.0251 13.1685H74.1334V19.1821H76.7692C77.9719 19.1821 78.5349 18.6895 78.842 17.3717H79.3282V21.8563ZM97.4457 26.2065C96.0127 26.8783 93.8887 27.2493 91.6368 27.2493C86.2374 27.2493 83.4993 23.4492 83.4993 19.7195C83.4993 15.2733 86.9539 11.9722 91.6368 11.9722C93.9143 11.9722 94.9379 12.8423 95.9103 12.8423C96.3198 12.8423 96.6013 12.7207 96.9851 12.3497H97.4457V16.4248H96.9851C96.0895 14.2113 94.0935 12.7975 91.8416 12.7975C88.7708 12.7975 87.0819 15.478 87.0819 19.9818C87.0819 24.6264 89.129 26.4432 91.8927 26.4432C93.249 26.4432 94.1446 26.0914 94.1446 24.9014V22.7391C94.1446 21.7923 93.7608 21.1717 92.6092 20.9478V20.5256H98.9043V20.9478C97.804 21.2485 97.4457 21.7923 97.4457 23.1357V26.2065ZM107.067 24.4152C107.067 25.7075 107.4 26.0786 108.961 26.4496V26.8719H101.873V26.456C103.715 26.0082 103.76 25.5156 103.76 24.0954V14.7999C103.76 13.5076 103.427 13.1365 101.873 12.7591V12.3369H108.961V12.7655C107.17 13.1621 107.067 13.7123 107.067 15.1006V24.4152ZM120.534 12.7911C117.591 12.7911 115.979 15.1517 115.979 19.7451C115.979 23.2509 117.156 26.4304 120.534 26.4304C123.042 26.4304 125.115 24.5176 125.115 19.7195C125.115 15.6443 123.81 12.7911 120.534 12.7911ZM120.534 27.2493C115.8 27.2493 112.397 24.0698 112.397 19.6236C112.397 15.1773 115.8 11.9722 120.534 11.9722C125.294 11.9722 128.697 15.1773 128.697 19.6236C128.697 24.0698 125.294 27.2493 120.534 27.2493ZM145.561 27.051H145.075L134.301 15.2477V24.1401C134.301 25.7331 134.788 26.1809 136.502 26.4496V26.8719H131.333V26.456C132.945 26.2065 133.329 25.3621 133.303 23.9482V14.2049C132.152 13.0662 131.922 12.887 131.307 12.7655V12.3433H135.811L144.563 22.0866V15.5484C144.563 13.7891 144.256 13.111 142.669 12.7655V12.3433H147.736V12.7655C146.021 12.8679 145.567 13.8595 145.567 15.1517V27.051M159.098 15.7915H158.663C158.093 14.1026 156.488 12.7847 154.946 12.7847C153.59 12.7847 152.489 13.6547 152.489 14.7487C152.489 15.2989 152.771 15.8427 153.231 16.2905C153.974 17.0134 157.403 18.7727 158.324 19.6683C159.45 20.7623 159.962 21.7539 159.962 23.027C159.962 26.2321 156.993 27.2493 155.151 27.2493C153.353 27.2493 152.259 26.6799 151.491 26.6799C151.159 26.6799 150.877 26.8527 150.724 27.1533H150.289V22.7775H150.724C151.159 24.9398 152.592 26.4304 154.741 26.4304C156.353 26.4304 157.505 25.5604 157.505 24.3705C157.505 23.897 157.3 23.2509 156.737 22.7071C155.586 21.5876 152.95 20.5192 151.696 19.3037C150.8 18.4336 150.365 17.3653 150.365 16.2201C150.365 13.7123 152.31 11.9722 155.074 11.9722C155.637 11.9722 156.149 12.0746 156.609 12.1705C157.07 12.2729 157.505 12.3689 157.889 12.3689C158.119 12.3689 158.375 12.2473 158.656 11.9722H159.091V15.7915" fill="#658D1B"/>
    </g>
    <defs>
        <clipPath id="clip0_41_2255">
            <rect width="160" height="26.6709" fill="white" transform="translate(0 0.610352)"/>
        </clipPath>
    </defs>
</svg>
