<svg width="160" height="37" viewBox="0 0 160 37" fill="none" xmlns="http://www.w3.org/2000/svg">
    <path fill-rule="evenodd" clip-rule="evenodd" d="M24.1109 9.6757C30.8224 9.24646 36.198 7.13681 36.1119 4.83735C36.0038 2.53644 30.4764 1.22831 23.7663 1.59038C17.0344 2.01961 11.6574 4.12635 11.7654 6.42872C11.8501 8.72963 17.3775 10.1078 24.1109 9.6757ZM1.16162 5.63158C1.16162 3.28832 10.9683 1.31152 23.0568 1.31152C35.1643 1.31152 44.9724 3.28832 44.9724 5.63158C44.9724 7.95585 35.1643 9.91221 23.0568 9.91221C10.9683 9.91221 1.16162 7.95585 1.16162 5.63158Z" fill="#D71A21"/>
    <path fill-rule="evenodd" clip-rule="evenodd" d="M26.304 27.2258V1.54639L20.4539 9.78354V35.6571L26.304 27.2258Z" fill="#D71A21"/>
    <path fill-rule="evenodd" clip-rule="evenodd" d="M38.6072 33.9803V20.9676H33.5527V17.3979H48.3933V20.9676H43.3389V33.9803H38.6072Z" fill="#005595"/>
    <path fill-rule="evenodd" clip-rule="evenodd" d="M62.1582 28.2818C61.1888 29.2921 58.4805 28.9256 58.4805 30.7535C58.4805 31.6134 59.212 32.1302 59.9639 32.1302C61.0822 32.1302 61.9626 31.3565 62.0064 30.5608L62.1582 28.2818ZM54.7591 25.1837C55.6628 23.0755 57.8776 22.5806 60.1581 22.5806C64.9555 22.5806 66.2651 24.388 66.2651 27.1634V31.1199C66.2651 32.3449 66.4388 33.3362 67.0404 33.98H62.5232C62.2881 33.6136 62.2444 33.0967 62.202 32.4529H62.1582C61.2121 33.9377 59.3624 34.4545 58.3083 34.4545C56.8454 34.4545 54.1138 33.8924 54.1138 31.0353C54.1138 28.581 55.5548 27.4204 59.2762 27.4204C61.3187 27.4204 62.1801 26.8612 62.1801 26.1298C62.1801 25.0961 61.4049 24.7749 60.523 24.7749C59.5989 24.7749 58.6952 25.1618 58.8455 26.3444H54.7591C54.7591 26.3444 53.6845 26.3225 53.1239 26.3225C51.0172 26.3225 50.1777 27.6583 50.1777 29.657V33.98H45.7029V23.0551H50.0054V24.8625H50.0711C50.9748 23.1397 51.899 22.5806 54.7591 22.5806V25.1837Z" fill="#005595"/>
    <path fill-rule="evenodd" clip-rule="evenodd" d="M67.9656 33.9805V23.0541H72.3528V24.9243H72.3966C73.0419 23.0979 74.6114 22.5811 76.2232 22.5811C78.054 22.5811 80.076 23.8512 80.1607 26.4967V33.9805H75.7078V27.4413C75.7078 26.3025 75.2129 25.8076 74.2245 25.8076C73.1718 25.8076 72.417 26.7318 72.417 27.7654V33.9805H67.9656Z" fill="#005595"/>
    <path fill-rule="evenodd" clip-rule="evenodd" d="M85.1278 30.99C85.2154 31.4411 85.3658 31.828 85.6242 32.0879C85.9031 32.3025 86.2914 32.4529 86.8068 32.4529C87.8171 32.4529 88.4843 32.0456 88.4843 31.1418C88.4843 28.9898 81.1713 31.1418 81.1713 26.6889C81.1713 23.7631 83.7306 22.5806 87.2798 22.5806C89.6888 22.5806 92.2919 23.3339 92.4423 26.1721H88.2901C88.3544 25.6553 88.2259 25.2917 87.9689 25.0319C87.7105 24.7545 87.3441 24.6245 86.8272 24.5822C86.2257 24.5822 85.322 24.8172 85.322 25.6553C85.322 28.0014 92.6992 25.8275 92.6992 30.5389C92.6992 33.6588 89.2814 34.4545 86.636 34.4545C84.4183 34.4545 80.999 33.7858 80.999 30.99H85.1278Z" fill="#005595"/>
    <path fill-rule="evenodd" clip-rule="evenodd" d="M99.9047 31.8937C101.325 31.8937 102.121 30.7754 102.121 28.5168C102.121 26.2597 101.325 25.1414 99.9047 25.1414C98.4856 25.1414 97.6899 26.2597 97.6899 28.5168C97.6899 30.7754 98.4856 31.8937 99.9047 31.8937ZM99.9047 34.4545C95.281 34.4545 93.0005 31.8514 93.0005 28.5168C93.0005 25.2041 95.281 22.5806 99.9047 22.5806C104.53 22.5806 106.809 25.2041 106.809 28.5168C106.809 31.8514 104.53 34.4545 99.9047 34.4545Z" fill="#005595"/>
    <path fill-rule="evenodd" clip-rule="evenodd" d="M115.37 26.9264C115.283 26.43 115.111 26.0227 114.854 25.7628C114.574 25.4869 114.209 25.3336 113.692 25.3336C112.53 25.3336 111.798 26.3877 111.798 28.3659C111.798 31.2041 112.768 31.6991 113.734 31.6991C115.089 31.6991 115.412 30.9472 115.52 29.9792H119.973C119.865 31.6567 119.069 32.7751 117.907 33.4861C116.746 34.1752 115.219 34.454 113.648 34.454C109.971 34.454 107.089 32.3035 107.089 28.4521C107.089 25.7 109.327 22.5801 113.734 22.5801C116.853 22.5801 119.52 24.1729 119.973 26.9264H115.37Z" fill="#005595"/>
    <path fill-rule="evenodd" clip-rule="evenodd" d="M128.575 27.0758C128.447 25.8728 127.587 24.9238 126.296 24.9238C125.004 24.9238 124.168 25.8728 123.994 27.0758H128.575ZM132.51 30.6907C131.608 33.2909 128.942 34.4545 126.339 34.4545C122.876 34.4545 119.821 32.4952 119.821 28.711C119.821 24.6902 122.553 22.5806 126.381 22.5806C131.307 22.5806 132.984 26.2144 132.749 29.4001H123.994C124.144 31.0542 124.876 32.0456 126.381 32.0456C127.264 32.0456 128.104 31.5068 128.383 30.6907H132.51Z" fill="#005595"/>
    <path fill-rule="evenodd" clip-rule="evenodd" d="M141.136 28.2818C140.169 29.2921 137.458 28.9256 137.458 30.7535C137.458 31.6134 138.21 32.1302 138.941 32.1302C140.061 32.1302 140.943 31.3565 140.985 30.5608L141.136 28.2818ZM133.502 26.1721C133.975 23.2697 136.513 22.5806 139.136 22.5806C143.933 22.5806 145.243 24.388 145.243 27.1634V31.1199C145.243 32.3449 145.416 33.3362 146.019 33.98H141.502C141.266 33.6136 141.222 33.0967 141.18 32.4529H141.136C140.212 33.9377 138.34 34.4545 137.287 34.4545C135.824 34.4545 133.091 33.8924 133.091 31.0353C133.091 28.581 134.532 27.4204 138.254 27.4204C140.298 27.4204 141.158 26.8612 141.158 26.1298C141.158 25.0961 140.384 24.7749 139.502 24.7749C138.576 24.7749 137.823 25.1414 137.781 26.1721H133.502Z" fill="#005595"/>
    <path fill-rule="evenodd" clip-rule="evenodd" d="M146.62 33.9805V23.0541H151.029V24.9243H151.073C151.718 23.0979 153.289 22.5811 154.879 22.5811C156.729 22.5811 158.751 23.8512 158.838 26.4967V33.9805H154.364V27.4413C154.364 26.3025 153.891 25.8076 152.88 25.8076C151.847 25.8076 151.095 26.7318 151.095 27.7654V33.9805H146.62Z" fill="#005595"/>
</svg>
