<svg width="112" height="40" viewBox="0 0 112 40" fill="none" xmlns="http://www.w3.org/2000/svg">
<g clip-path="url(#clip0_114_8050)">
<path fill-rule="evenodd" clip-rule="evenodd" d="M47.8789 11.2668H52.733V28.6903H47.8789V11.2668ZM65.3166 20.0212V19.9714C65.3166 14.9892 69.3593 10.9038 74.7472 10.9038C80.1423 10.9038 84.0924 14.9038 84.0924 19.9287V19.9714C84.0924 24.9536 80.0497 29.039 74.6618 29.039C69.2668 29.039 65.3166 25.0462 65.3166 20.0212ZM79.1102 20.0212V19.9714C79.1102 17.4163 77.3095 15.2597 74.6618 15.2597C72.007 15.2597 70.2134 17.4163 70.2134 19.9287V19.9714C70.2134 22.491 72.007 24.6903 74.7045 24.6903C77.3522 24.6903 79.1102 22.5337 79.1102 20.0212ZM101.26 15.5301H96.0426V11.3095H111.324V15.5301H106.114V28.7259H101.26V15.5301Z" fill="#232323"/>
<path fill-rule="evenodd" clip-rule="evenodd" d="M35.3451 10.0142V29.9858L18.0071 40L0.661865 29.9858V10.0142L18.0071 0L35.3451 10.0142ZM27.3878 29.2313L23.2597 23.21C24.3345 22.7189 25.2313 22.0427 25.8647 21.1957C26.491 20.2918 26.8042 19.2171 26.8042 17.8719V17.8292C26.8042 16.121 26.3131 14.7758 25.2811 13.7865C24.6975 13.2028 23.9786 12.7046 23.032 12.3915C22.1352 12.0783 21.0106 11.9004 19.6654 11.9004H8.56222V15.3096H11.4875V17.6014H17.7295C17.7295 17.6014 17.6868 17.2883 17.4163 17.2883H16.2918V16.121H19.4377C20.2491 16.121 20.8754 16.2562 21.3238 16.6121C21.7722 16.9253 21.9999 17.4662 21.9999 18.1423V18.1851C21.9999 18.8114 21.7746 19.3049 21.3238 19.6655C20.873 20.0261 20.2443 20.2064 19.4377 20.2064H16.2918V19.0391H17.4163C17.6868 19.0391 17.7295 18.726 17.7295 18.726H8.56222V22.1352H11.4875V29.2313H16.2491V23.9786H18.3558L21.8647 29.2313H27.3878Z" fill="#EDA140"/>
</g>
<defs>
<clipPath id="clip0_114_8050">
<rect width="110.676" height="40" fill="white" transform="translate(0.661865)"/>
</clipPath>
</defs>
</svg>
