<svg width="66" height="10" viewBox="0 0 66 10" fill="none" xmlns="http://www.w3.org/2000/svg">
    <g clip-path="url(#clip0_722_369)">
        <path fill-rule="evenodd" clip-rule="evenodd" d="M2.9619 5.02966L2.51482 7.71213H0L1.34124 0.0559082H4.97375C5.5326 0.0559082 6.03556 0.111793 6.42676 0.167678C6.81795 0.223563 7.15326 0.335332 7.3768 0.502987C7.60034 0.614757 7.82388 0.838296 7.93565 1.00595C8.04742 1.22949 8.1033 1.45303 8.1033 1.73245C8.1033 1.90011 8.1033 2.06776 8.04742 2.23542C7.99153 2.6825 7.82388 3.07369 7.54445 3.409C7.26503 3.74431 6.92972 3.96785 6.42676 4.1355C6.59441 4.19139 6.70618 4.24727 6.87384 4.30316C6.98561 4.35904 7.09737 4.41493 7.20914 4.5267C7.32091 4.63847 7.3768 4.75023 7.43268 4.862C7.48857 4.97377 7.48857 5.19731 7.48857 5.36497C7.48857 5.58851 7.48857 5.86793 7.43268 6.14736C7.3768 6.42678 7.32091 6.65032 7.32091 6.81797C7.26503 6.98563 7.26503 7.15328 7.26503 7.20917C7.26503 7.37682 7.32091 7.48859 7.43268 7.48859L7.3768 7.71213H4.75021C4.75021 7.65625 4.75021 7.54448 4.75021 7.48859C4.75021 7.37682 4.75021 7.20917 4.75021 7.04151C4.75021 6.87386 4.8061 6.65032 4.86198 6.42678C4.91787 6.20324 4.91787 5.9797 4.91787 5.81205C4.91787 5.53262 4.8061 5.36497 4.63844 5.2532C4.52667 5.08554 4.19136 5.02966 3.74428 5.02966H2.9619ZM3.29721 3.35311H4.30313C4.69433 3.35311 4.97375 3.29723 5.19729 3.18546C5.42083 3.07369 5.5326 2.90604 5.58848 2.62661C5.58848 2.57073 5.58848 2.51484 5.58848 2.45896C5.58848 2.23542 5.5326 2.06776 5.36495 2.01188C5.19729 1.90011 4.97375 1.84422 4.69433 1.84422H3.52075L3.29721 3.35311Z" fill="#0074AE"/>
        <path fill-rule="evenodd" clip-rule="evenodd" d="M11.5681 2.12371H13.58L13.4123 3.01787C13.7477 2.68256 14.0271 2.40313 14.3624 2.23548C14.6977 2.06782 15.033 1.95605 15.4801 1.95605C16.0948 1.95605 16.5419 2.12371 16.8772 2.40313C17.1566 2.68256 17.3243 3.12964 17.3243 3.68848C17.3243 3.91202 17.3243 4.13556 17.2684 4.3591L16.7096 7.71219H14.4742L14.9771 4.7503C14.9771 4.63853 15.033 4.47087 15.033 4.3591C15.033 4.19145 14.9771 4.02379 14.9212 3.85614C14.8095 3.74437 14.6418 3.68848 14.4183 3.68848C14.083 3.68848 13.8035 3.80025 13.6918 3.96791C13.5241 4.19145 13.4123 4.47087 13.3565 4.80618L12.8535 7.71219H10.6181L11.5681 2.12371Z" fill="#0074AE"/>
        <path fill-rule="evenodd" clip-rule="evenodd" d="M19.4479 7.8798C19.4479 7.99157 19.5038 8.04746 19.5597 8.10334C19.6156 8.21511 19.7832 8.21511 20.0068 8.21511C20.3421 8.21511 20.5656 8.15923 20.7333 7.99157C20.9009 7.82392 21.0127 7.54449 21.0686 7.1533L21.1803 6.70622C21.0127 6.87387 20.7892 6.98564 20.5097 7.1533C20.2303 7.26507 19.895 7.32095 19.5038 7.32095C19.1685 7.32095 18.8891 7.26507 18.6096 7.1533C18.3302 7.04153 18.1626 6.87387 17.9949 6.70622C17.8273 6.53857 17.7155 6.31503 17.6037 6.0356C17.4919 5.75618 17.4919 5.53264 17.4919 5.19733C17.4919 5.08556 17.4919 5.02967 17.4919 4.9179C17.4919 4.80613 17.4919 4.75025 17.5478 4.63848C17.6037 4.30317 17.7155 3.96786 17.8273 3.63255C17.9949 3.29724 18.1626 2.96194 18.442 2.7384C18.6655 2.45897 19.0008 2.23543 19.3361 2.06778C19.6715 1.90012 20.0627 1.84424 20.5656 1.84424C20.9009 1.84424 21.2362 1.90012 21.4598 2.06778C21.7392 2.23543 21.9627 2.45897 22.0745 2.7384L22.1863 2.01189H24.1422L23.3599 6.53857C23.304 6.92976 23.1922 7.37684 23.0804 7.71215C22.9687 8.04746 22.801 8.38276 22.5775 8.66219C22.3539 8.94161 22.0186 9.16515 21.5715 9.27692C21.1245 9.44458 20.6215 9.50046 19.895 9.50046C19.392 9.50046 19.0008 9.44458 18.6655 9.38869C18.3302 9.27692 18.0508 9.16515 17.8273 9.05338C17.6037 8.88573 17.4919 8.77396 17.3802 8.55042C17.2684 8.38276 17.2125 8.15923 17.2125 7.99157V7.93569H19.4479V7.8798ZM20.7892 3.40901C20.6215 3.40901 20.5097 3.4649 20.3421 3.52078C20.2303 3.57667 20.1185 3.68844 20.0068 3.80021C19.895 3.91198 19.8391 4.02375 19.7832 4.1914C19.7273 4.35906 19.6715 4.52671 19.6715 4.69437C19.6715 4.75025 19.6715 4.80613 19.6715 4.86202C19.6715 4.9179 19.6715 4.97379 19.6715 4.97379C19.6715 5.19733 19.7273 5.36498 19.8391 5.53264C19.9509 5.70029 20.1185 5.75618 20.398 5.81206H20.4538C20.6215 5.81206 20.7333 5.75618 20.9009 5.70029C21.0127 5.64441 21.1245 5.53264 21.2362 5.42087C21.348 5.3091 21.4039 5.19733 21.4598 5.02967C21.5157 4.9179 21.5715 4.75025 21.5715 4.5826C21.5715 4.47083 21.6274 4.35906 21.6274 4.24729C21.6274 4.02375 21.5715 3.80021 21.4598 3.63255C21.2921 3.52078 21.0686 3.40901 20.7892 3.40901Z" fill="#0074AE"/>
        <path fill-rule="evenodd" clip-rule="evenodd" d="M29.3396 3.01781V2.96192V2.90604C29.3396 2.57073 29.2278 2.2913 29.0601 2.12365C28.8925 1.95599 28.6131 1.84422 28.2219 1.84422C27.7748 1.84422 27.4395 2.01188 27.1601 2.34719C26.8806 2.6825 26.6571 3.24134 26.5453 3.91196C26.5453 4.02373 26.4894 4.19139 26.4894 4.30316C26.4894 4.41493 26.4894 4.5267 26.4894 4.63847C26.4894 4.80612 26.4894 4.97377 26.5453 5.14143C26.6012 5.30908 26.6571 5.42085 26.713 5.53262C26.8247 5.64439 26.9365 5.75616 27.0483 5.81205C27.2159 5.86793 27.3836 5.92382 27.6071 5.92382C27.9983 5.92382 28.2778 5.81205 28.5572 5.58851C28.7807 5.36497 28.9484 5.08554 29.0601 4.69435H31.3514C31.2396 5.14143 31.0161 5.58851 30.7926 5.9797C30.5131 6.3709 30.2337 6.65032 29.8984 6.92974C29.5631 7.20917 29.1719 7.37682 28.7248 7.54448C28.2778 7.65625 27.8307 7.76802 27.3836 7.76802C26.8806 7.76802 26.3777 7.71213 25.9865 7.54448C25.5953 7.43271 25.26 7.20917 24.9805 6.98563C24.7011 6.7062 24.4776 6.42678 24.3658 6.03559C24.1982 5.64439 24.1423 5.2532 24.1423 4.80612C24.1423 4.69435 24.1423 4.5267 24.1423 4.35904C24.1423 4.19139 24.1982 4.07962 24.1982 3.91196C24.3099 3.35311 24.4776 2.79427 24.757 2.34719C25.0364 1.90011 25.3717 1.45303 25.7629 1.11772C26.1541 0.782411 26.6012 0.558872 27.0483 0.335332C27.5512 0.167678 27.9983 0.0559082 28.5013 0.0559082C29.5631 0.0559082 30.3455 0.279448 30.8485 0.726526C31.3514 1.17361 31.6308 1.84422 31.6308 2.6825C31.6308 2.73838 31.6308 2.79427 31.6308 2.85015C31.6308 2.90604 31.6308 2.96192 31.6308 3.01781H29.3396Z" fill="#FF8800"/>
        <path fill-rule="evenodd" clip-rule="evenodd" d="M33.9221 5.25321C33.9221 5.3091 33.9221 5.3091 33.9221 5.36498C33.9221 5.42087 33.9221 5.42087 33.9221 5.47675C33.9221 5.75618 34.0339 5.97972 34.2015 6.14737C34.3692 6.31503 34.5927 6.37091 34.8722 6.37091C35.0398 6.37091 35.2075 6.31503 35.3751 6.25914C35.5428 6.20326 35.6546 6.0356 35.7663 5.86795H37.89C37.7223 6.20326 37.5546 6.48268 37.2752 6.7621C36.9958 6.98564 36.7164 7.20918 36.4369 7.32095C36.1575 7.48861 35.8222 7.54449 35.4869 7.65626C35.1516 7.71215 34.8163 7.76803 34.481 7.76803C34.0898 7.76803 33.6986 7.71215 33.3633 7.60038C33.028 7.48861 32.7485 7.37684 32.525 7.1533C32.3015 6.92976 32.0779 6.70622 31.9662 6.4268C31.8544 6.14737 31.7426 5.81206 31.7426 5.42087C31.7426 5.3091 31.7426 5.25321 31.7426 5.14144C31.7426 5.02967 31.7426 4.97379 31.7985 4.86202C31.8544 4.41494 32.022 3.96786 32.2456 3.63255C32.4691 3.24136 32.7485 2.96194 33.0839 2.68251C33.4192 2.40309 33.8104 2.23543 34.2015 2.06778C34.5927 1.90012 35.0398 1.84424 35.4869 1.84424C35.934 1.84424 36.3252 1.90012 36.6605 2.01189C36.9958 2.12366 37.2752 2.29132 37.5546 2.57074C37.7782 2.79428 37.9458 3.0737 38.1135 3.40901C38.2253 3.74432 38.2811 4.07963 38.2811 4.47083C38.2811 4.69437 38.2253 4.97379 38.1694 5.3091H33.9221V5.25321ZM36.1016 4.13552C36.1016 4.07963 36.1016 4.02375 36.1016 3.96786C36.1016 3.74432 36.0457 3.52078 35.8781 3.40901C35.7104 3.24136 35.5428 3.18547 35.2634 3.18547C34.9281 3.18547 34.6486 3.29724 34.4251 3.4649C34.2015 3.63255 34.0898 3.85609 34.0339 4.1914H36.1016V4.13552Z" fill="#FF8800"/>
        <path fill-rule="evenodd" clip-rule="evenodd" d="M38.9518 2.12371H40.9636L40.796 3.01787C41.1313 2.68256 41.4107 2.40313 41.746 2.23548C42.0813 2.06782 42.4166 1.95605 42.8637 1.95605C43.4784 1.95605 43.9255 2.12371 44.2608 2.40313C44.5402 2.68256 44.7079 3.12964 44.7079 3.68848C44.7079 3.91202 44.7079 4.13556 44.652 4.3591L44.0932 7.71219H41.8578L42.3607 4.7503C42.3607 4.63853 42.4166 4.47087 42.4166 4.3591C42.4166 4.19145 42.3607 4.02379 42.3048 3.85614C42.1931 3.74437 42.0254 3.68848 41.8019 3.68848C41.4666 3.68848 41.1871 3.80025 41.0754 3.96791C40.9077 4.19145 40.796 4.47087 40.7401 4.80618L40.2371 7.71219H38.0017L38.9518 2.12371Z" fill="#FF8800"/>
        <path fill-rule="evenodd" clip-rule="evenodd" d="M48.2286 7.712C48.0051 7.712 47.7257 7.712 47.558 7.76789C47.3345 7.76789 47.1668 7.76789 46.9992 7.76789C46.6639 7.76789 46.3844 7.76789 46.1609 7.712C45.9374 7.65612 45.7697 7.60023 45.602 7.54435C45.4903 7.48846 45.3785 7.3767 45.3226 7.20904C45.2667 7.09727 45.2109 6.92962 45.2109 6.70608C45.2109 6.59431 45.2109 6.42665 45.2109 6.259C45.2109 6.09134 45.2667 5.92369 45.2667 5.75603L45.6579 3.35299H44.8755L45.0991 2.06764H45.9374L46.2727 0.335205H48.4522L48.1169 2.06764H49.1787L48.9551 3.35299H47.8933L47.558 5.42073C47.558 5.47661 47.558 5.5325 47.5021 5.58838C47.5021 5.64427 47.5021 5.70015 47.5021 5.75603C47.5021 5.8678 47.558 5.97957 47.6139 6.03546C47.7257 6.09134 47.8374 6.14723 48.1169 6.14723H48.4522L48.2286 7.712Z" fill="#FF8800"/>
        <path fill-rule="evenodd" clip-rule="evenodd" d="M49.6257 2.12371H51.6376L51.4699 3.24141C51.917 2.40313 52.5876 1.95605 53.4259 1.95605C53.4818 1.95605 53.5377 1.95605 53.5936 1.95605C53.6494 1.95605 53.7053 1.95605 53.7612 1.95605L53.37 4.19145C53.3141 4.19145 53.2024 4.13556 53.1465 4.13556C53.0906 4.13556 52.9788 4.13556 52.9229 4.13556C52.4759 4.13556 52.0847 4.24733 51.8611 4.52676C51.5817 4.7503 51.414 5.19738 51.3023 5.81211L50.967 7.76808H48.7316L49.6257 2.12371Z" fill="#FF8800"/>
        <path fill-rule="evenodd" clip-rule="evenodd" d="M56.7231 7.76794V6.98555C56.3878 7.26498 55.9966 7.48851 55.6613 7.60028C55.326 7.71205 54.9348 7.76794 54.4877 7.76794C54.2642 7.76794 54.0407 7.76794 53.8171 7.71205C53.5936 7.65617 53.4259 7.60028 53.2583 7.43263C53.0906 7.32086 52.9788 7.15321 52.8671 6.98555C52.7553 6.8179 52.7553 6.59436 52.7553 6.37082C52.7553 6.25905 52.7553 6.14728 52.8112 6.03551C52.8671 5.58843 53.0347 5.30901 53.2583 5.02958C53.4818 4.80604 53.7612 4.63839 54.0965 4.47073C54.4319 4.35896 54.7672 4.24719 55.1025 4.19131C55.4378 4.13542 55.7731 4.07954 56.1084 4.07954C56.3878 4.02365 56.6673 3.96777 56.8908 3.91188C57.1143 3.856 57.2261 3.74423 57.2261 3.52069C57.2261 3.52069 57.2261 3.52069 57.2261 3.46481C57.2261 3.46481 57.2261 3.46481 57.2261 3.40892C57.2261 3.29715 57.2261 3.24127 57.1702 3.18538C57.1143 3.1295 57.0584 3.07361 57.0026 3.07361C56.9467 3.07361 56.8908 3.01773 56.779 3.01773C56.7231 3.01773 56.6114 3.01773 56.6114 3.01773C56.5555 3.01773 56.4437 3.01773 56.3878 3.01773C56.2761 3.01773 56.2202 3.07361 56.1643 3.07361C56.1084 3.1295 55.9966 3.18538 55.9407 3.24127C55.8849 3.29715 55.829 3.40892 55.7731 3.52069H53.6495C53.7054 3.24127 53.8171 2.96184 53.9289 2.7383C54.0965 2.51476 54.2642 2.29122 54.5436 2.12357C54.823 1.95591 55.1584 1.84414 55.5496 1.73238C55.9407 1.62061 56.4437 1.62061 57.0026 1.62061C57.5055 1.62061 57.8967 1.67649 58.232 1.73238C58.5673 1.78826 58.7909 1.90003 59.0144 2.0118C59.1821 2.12357 59.3497 2.29122 59.4056 2.45888C59.4615 2.62653 59.5174 2.85007 59.5174 3.07361C59.5174 3.18538 59.5174 3.35304 59.5174 3.46481C59.5174 3.63246 59.4615 3.74423 59.4615 3.91188L59.0144 6.53847C59.0144 6.65024 58.9585 6.76201 58.9585 6.8179C58.9585 6.87378 58.9585 6.98555 59.0144 7.04144C59.0703 7.09732 59.0703 7.15321 59.1821 7.26498V7.5444H56.7231V7.76794ZM55.6613 6.48259C55.829 6.48259 55.9966 6.4267 56.1643 6.37082C56.3319 6.31493 56.4437 6.20316 56.5555 6.09139C56.6672 5.97962 56.7231 5.81197 56.779 5.64431C56.8349 5.47666 56.8908 5.30901 56.8908 5.08547C56.6673 5.19724 56.4996 5.25312 56.2761 5.25312C56.0525 5.30901 55.8849 5.30901 55.7172 5.36489C55.5496 5.42077 55.3819 5.47666 55.2701 5.58843C55.1584 5.7002 55.0466 5.81197 55.0466 5.97962V6.03551C55.0466 6.14728 55.1025 6.25905 55.2142 6.31493C55.326 6.4267 55.4937 6.48259 55.6613 6.48259Z" fill="#FF8800"/>
        <path fill-rule="evenodd" clip-rule="evenodd" d="M59.4056 7.71213L60.7468 0.0559082H62.9822L61.641 7.71213H59.4056Z" fill="#FF8800"/>
        <path fill-rule="evenodd" clip-rule="evenodd" d="M7.76801 7.71222L8.99747 3.18555H10.6181L9.94751 7.71222H7.76801Z" fill="#0074AE"/>
        <path fill-rule="evenodd" clip-rule="evenodd" d="M11.4005 1.17358C11.4005 1.1177 11.4005 1.1177 11.4005 1.17358C11.3446 1.06181 11.2887 1.00593 11.177 0.950042C11.0093 0.838273 10.7858 0.670618 10.3387 0.558848C10.1152 0.502964 9.94751 0.502964 9.83574 0.558848C9.50043 0.614733 9.27689 0.726503 9.16512 0.782388H9.10924C8.99747 0.894157 8.82981 0.894157 8.71804 0.782388C8.60627 0.670618 8.60627 0.502964 8.71804 0.391194C8.71804 0.391194 9.05335 0.0558848 9.72397 0C9.94751 0 10.1711 0 10.3946 0.0558848C11.4005 0.223539 11.7917 0.894157 11.7917 0.950042C11.8476 1.06181 11.7917 1.22947 11.6799 1.28535C11.6241 1.28535 11.6241 1.28535 11.5682 1.28535C11.5682 1.28535 11.4564 1.22947 11.4005 1.17358Z" fill="#FF8800"/>
        <path fill-rule="evenodd" clip-rule="evenodd" d="M10.7858 1.73232C10.7299 1.67643 10.7299 1.67643 10.674 1.62055C10.6181 1.56466 10.4505 1.45289 10.2269 1.39701C10.1152 1.39701 10.0034 1.39701 9.9475 1.39701C9.72396 1.39701 9.61219 1.50878 9.61219 1.50878C9.50042 1.62055 9.38865 1.62055 9.27688 1.50878C9.16511 1.39701 9.16511 1.28524 9.27688 1.17347C9.27688 1.17347 9.50042 0.949928 9.89161 0.894043C10.0034 0.894043 10.171 0.894043 10.2828 0.894043C10.8975 1.00581 11.1211 1.39701 11.177 1.45289C11.2328 1.56466 11.177 1.67643 11.0652 1.73232H11.0093C10.8975 1.89997 10.7858 1.84409 10.7858 1.73232Z" fill="#FF8800"/>
        <path fill-rule="evenodd" clip-rule="evenodd" d="M10.5622 2.29129C10.5622 2.57072 10.2828 2.79426 10.0034 2.79426C9.66806 2.79426 9.44452 2.57072 9.44452 2.29129C9.44452 2.01187 9.72394 1.78833 10.0034 1.78833C10.3387 1.78833 10.5622 2.01187 10.5622 2.29129Z" fill="#FF8800"/>
        <path d="M63.5969 0.894204C63.6528 0.72655 63.7646 0.61478 63.8764 0.50301C63.9881 0.391241 64.0999 0.279471 64.2676 0.223586C64.4352 0.167701 64.6029 0.111816 64.7705 0.111816C64.9382 0.111816 65.1058 0.167701 65.2735 0.223586C65.4411 0.279471 65.5529 0.391241 65.6647 0.50301C65.7764 0.61478 65.8882 0.72655 65.9441 0.894204C66 1.06186 66.0559 1.22951 66.0559 1.39717C66.0559 1.56482 66 1.73248 65.9441 1.90013C65.8882 2.06779 65.7764 2.17956 65.6647 2.29133C65.5529 2.4031 65.4411 2.51486 65.2735 2.57075C65.1058 2.62663 64.9382 2.68252 64.7705 2.68252C64.6029 2.68252 64.4352 2.62663 64.2676 2.57075C64.0999 2.51486 63.9881 2.4031 63.8764 2.29133C63.7646 2.17956 63.6528 2.06779 63.5969 1.90013C63.5411 1.73248 63.4852 1.56482 63.4852 1.39717C63.4852 1.17363 63.5411 1.06186 63.5969 0.894204ZM63.7646 1.78836C63.8205 1.90013 63.8764 2.0119 63.9881 2.12367C64.0999 2.23544 64.2117 2.29133 64.3234 2.34721C64.4352 2.4031 64.6029 2.4031 64.7146 2.4031C64.8823 2.4031 64.9941 2.4031 65.1058 2.34721C65.2176 2.29133 65.3294 2.23544 65.4411 2.12367C65.5529 2.0119 65.6088 1.90013 65.6647 1.78836C65.7206 1.67659 65.7206 1.50894 65.7206 1.34128C65.7206 1.17363 65.7206 1.06186 65.6647 0.950089C65.6088 0.838319 65.5529 0.72655 65.4411 0.61478C65.3294 0.50301 65.2176 0.447125 65.1058 0.391241C64.9941 0.335356 64.8264 0.335356 64.7146 0.335356C64.547 0.335356 64.4352 0.335356 64.3234 0.391241C64.2117 0.447125 64.0999 0.50301 63.9881 0.61478C63.8764 0.72655 63.8205 0.838319 63.7646 0.950089C63.7087 1.06186 63.7087 1.22951 63.7087 1.39717C63.7087 1.50894 63.7087 1.67659 63.7646 1.78836ZM64.8264 0.670665C64.9941 0.670665 65.1058 0.72655 65.2176 0.782435C65.2735 0.838319 65.3294 0.950089 65.3294 1.11774C65.3294 1.22951 65.2735 1.34128 65.2176 1.39717C65.1617 1.45305 65.0499 1.50894 64.9382 1.50894L65.3294 2.17956H65.1058L64.7146 1.56482H64.4911V2.17956H64.2676V0.670665H64.8264ZM64.7146 1.2854C64.7705 1.2854 64.8264 1.2854 64.8823 1.2854C64.9382 1.2854 64.9941 1.2854 64.9941 1.22951C65.0499 1.22951 65.0499 1.17363 65.1058 1.17363C65.1058 1.11774 65.1617 1.11774 65.1617 1.06186C65.1617 1.00597 65.1617 0.950089 65.1058 0.950089C65.1058 0.894204 65.0499 0.894204 65.0499 0.894204C64.9941 0.894204 64.9941 0.894204 64.9382 0.838319C64.8823 0.838319 64.8823 0.838319 64.8264 0.838319H64.547V1.2854H64.7146Z" fill="#FF8800"/>
    </g>
    <defs>
        <clipPath id="clip0_722_369">
            <rect width="66" height="9.50042" fill="white"/>
        </clipPath>
    </defs>
</svg>
