<svg width="160" height="39" viewBox="0 0 160 39" fill="none" xmlns="http://www.w3.org/2000/svg">
    <path d="M85.6709 24.224C82.0946 24.224 79.9581 26.1004 79.9581 29.2494C79.9581 32.3798 82.0946 34.2561 85.6709 34.2561C89.2565 34.2561 91.4022 32.389 91.4022 29.2494C91.4022 26.1004 89.2565 24.224 85.6709 24.224ZM85.6709 31.4694C84.6212 31.4694 83.9152 30.5684 83.9152 29.2215C83.9152 27.8653 84.6212 26.9642 85.6709 26.9642C86.7391 26.9642 87.4265 27.856 87.4265 29.2215C87.4265 30.6148 86.7577 31.4694 85.6709 31.4694ZM130.806 32.6306C130.806 33.4016 131.419 34.0239 132.181 34.0239H134.856V24.4655H130.806V32.6306ZM130.806 21.3258H134.856V23.3044H130.806V21.3258ZM142.185 24.224C138.609 24.224 136.473 26.1004 136.473 29.2494C136.473 32.3798 138.609 34.2561 142.185 34.2561C145.771 34.2561 147.917 32.389 147.917 29.2494C147.917 26.1004 145.771 24.224 142.185 24.224ZM142.185 31.4694C141.136 31.4694 140.43 30.5684 140.43 29.2215C140.43 27.8653 141.136 26.9642 142.185 26.9642C143.254 26.9642 143.941 27.856 143.941 29.2215C143.95 30.6148 143.272 31.4694 142.185 31.4694ZM66.424 9.05497C62.8477 9.05497 60.7112 10.9314 60.7112 14.0803C60.7112 17.2107 62.8477 19.0871 66.424 19.0871C70.0095 19.0871 72.1553 17.22 72.1553 14.0803C72.1553 10.9314 70.0188 9.05497 66.424 9.05497ZM66.424 16.3097C65.3743 16.3097 64.6683 15.4087 64.6683 14.0618C64.6683 12.7056 65.3743 11.8045 66.424 11.8045C67.4922 11.8045 68.1796 12.6963 68.1796 14.0618C68.1889 15.4458 67.5108 16.3097 66.424 16.3097ZM123.031 16.4119C122.595 16.4212 120.783 16.5141 119.186 16.5141C117.542 16.5141 116.966 16.3469 116.641 15.2879H123.124C123.292 15.2879 123.431 15.1486 123.431 14.9814V14.2383C123.431 10.9499 121.685 9.10141 118.34 9.05497C114.606 9.00852 112.86 10.9685 112.86 13.9224C112.86 17.1643 114.569 19.1057 118.647 19.1057C121.564 19.1057 122.883 17.9167 123.143 16.5512C123.143 16.4955 123.087 16.4119 123.031 16.4119ZM118.359 11.275C119.437 11.275 119.92 12.1575 119.92 13.2536H116.594C116.594 12.1482 116.966 11.275 118.359 11.275ZM128.874 6.16607H126.236C125.474 6.16607 124.861 6.78844 124.861 7.55943V18.8549H128.874V6.16607ZM77.9052 19.0128C79.4844 19.1614 81.2586 18.8363 81.9367 18.697C82.1039 18.6598 82.2154 18.5205 82.2154 18.344V16.0125C82.2154 16.0125 81.4722 16.0961 79.7073 16.0961C78.1839 16.0961 77.2271 15.3065 77.2271 14.0339C77.2271 12.752 78.1189 11.9624 79.5587 11.9624C81.2214 11.9624 82.2061 12.1668 82.2061 12.1668V9.80738C82.2061 9.64018 82.0946 9.49155 81.9274 9.4544C81.2586 9.30577 79.503 8.97137 78.1189 9.05497C75.1464 9.23146 73.2979 10.9685 73.2979 14.0525C73.2979 16.9785 75.0442 18.7527 77.9052 19.0128ZM117.839 24.4283V25.6638C117.263 24.7813 116.38 24.1961 115.061 24.1961C112.033 24.1961 110.324 26.0725 110.324 29.2029V29.2401C110.324 32.3705 112.033 34.2469 115.061 34.2469C116.39 34.2469 117.263 33.6616 117.839 32.7792V32.9928C117.839 33.5595 118.294 34.0239 118.851 34.0239H121.657V24.4283H117.839ZM116.074 31.4694C115.024 31.4694 114.318 30.5684 114.318 29.2215C114.318 27.8839 115.024 26.9735 116.074 26.9735C117.161 26.9735 117.83 27.8374 117.83 29.2215C117.839 30.6056 117.161 31.4694 116.074 31.4694ZM108.531 9.29648L107.398 15.548L106.135 9.29648H101.574L100.31 15.548L99.1772 9.29648H95.3779L91.4208 9.26862C90.8263 9.26862 90.2504 9.63089 89.9346 10.2068L87.6866 13.4766V6.12892H85.2343C84.4726 6.12892 83.8595 6.75128 83.8595 7.52227V18.8178H87.6866V14.0618L90.3061 17.8796C90.6219 18.4555 91.1979 18.8178 91.7924 18.8178L95.7588 18.8456L91.8853 13.7366L95.3779 9.29648L97.663 18.8456H101.936C102.41 18.8456 102.809 18.5019 102.893 18.0189L103.71 12.3526H104.026L104.843 18.0189C104.927 18.4926 105.326 18.8456 105.8 18.8456H110.073L112.358 9.28719L108.531 9.29648ZM67.3807 28.5991C67.3807 30.234 66.8606 31.07 65.8202 31.07C65.1792 31.07 64.5197 30.8564 64.5197 29.2772V24.4655H60.6926V29.9182C60.6926 32.6677 62.0674 34.1725 64.5569 34.1725C65.8109 34.1725 66.8884 33.7267 67.678 32.9092V32.9835C67.678 33.5502 68.1332 34.0146 68.6905 34.0146H71.2078V24.4655H67.3807V28.5991ZM105.512 24.2426C104.184 24.2426 103.032 24.8092 102.233 25.8589C101.574 24.8185 100.487 24.2426 99.1028 24.2426C97.9417 24.2426 96.9013 24.6884 96.1303 25.4966V24.4655H92.6377V34.0239H96.4276V29.4166C96.4276 28.1811 96.9849 27.3823 97.8581 27.3823C98.4805 27.3823 99.0471 27.5959 99.0471 29.1193V34.0239H102.856V29.4166C102.856 28.1625 103.394 27.3823 104.268 27.3823C104.89 27.3823 105.457 27.5959 105.457 29.1193V34.0239H109.246V28.4784C109.246 25.7474 107.918 24.2426 105.512 24.2426ZM155.803 24.224C154.549 24.224 153.472 24.6699 152.682 25.4966V24.4655H149.152V34.0239H152.979V29.4166C152.979 28.1532 153.592 27.3265 154.54 27.3265C155.181 27.3265 155.84 27.5402 155.84 29.1193V34.0239H159.649V28.4784C159.649 25.7288 158.283 24.224 155.803 24.224ZM127.1 21.3258H123.273V32.6213C123.273 33.3923 123.886 34.0146 124.648 34.0146H127.1V27.2708H129.413V24.4562H127.1V21.3258ZM134.81 6.16607H132.172C131.41 6.16607 130.797 6.78844 130.797 7.55943V18.8549H134.81V6.16607ZM51.5151 21.3258C51.1063 21.3258 50.7348 21.5766 50.5862 21.9575L45.7651 34.0239H49.7687L50.6605 31.6273H55.2678L55.7602 33.0114C56.0295 33.6152 56.624 34.0146 57.265 34.0146H60.4047L55.3329 21.3165L51.5151 21.3258ZM51.6915 28.7942L53.0106 25.2086L54.2739 28.7942H51.6915ZM76.9856 21.3351H72.9263V32.6306C72.9263 33.4016 73.5394 34.0239 74.3011 34.0239H76.9856V27.2801H79.2986V24.4655H76.9856V21.3351ZM58.8627 13.9689C58.454 13.4487 57.9059 13.0678 57.0792 12.9192V12.8821C58.8534 12.6684 59.9124 11.4608 59.9124 9.51013C59.9124 7.06711 58.166 6.11963 55.3329 6.11963H48.4775V18.8363H52.5276V14.2104H53.6422C54.1996 14.2104 54.7662 14.3033 54.9241 14.8699L56.0667 18.1954C56.1317 18.5669 56.4475 18.8363 56.8098 18.8363H60.5533L59.1507 14.5912C59.1042 14.359 59.002 14.1547 58.8627 13.9689ZM54.1903 11.5537H52.5926V8.8599H54.2553C55.082 8.8599 55.8716 9.0271 55.8716 10.1697C55.8623 11.4423 55.0356 11.5537 54.1903 11.5537Z" fill="#CD163F"/>
    <path d="M10.8198 12.4362L25.543 1.53089C25.7566 1.37298 25.6451 1.03857 25.3851 1.03857H13.3093C11.9159 1.03857 10.569 1.59592 9.58439 2.58056L1.89306 10.2626C0.908417 11.2565 0.351074 12.5941 0.351074 13.9968V24.865C0.351074 26.2676 0.908417 27.6052 1.89306 28.5992L9.5751 36.2812C10.569 37.2659 11.9159 37.8232 13.3093 37.8232H23.7595C24.0474 37.8232 24.1403 37.4331 23.8709 37.303L3.10992 27.5124C2.24604 27.1036 1.6887 26.2305 1.6887 25.2737V20.0625C1.6887 19.5145 1.94879 19.0036 2.38538 18.6785L5.37645 16.4584V12.4269H10.8198V12.4362Z" fill="#E83A2F"/>
    <path d="M25.1342 16.6349L23.713 20.4991H26.4904L25.1342 16.6349ZM13.1885 16.7928C13.1885 15.5574 12.3432 15.3809 11.4515 15.3809H9.65869V18.2976H11.3865C12.2968 18.2883 13.1885 18.1676 13.1885 16.7928Z" fill="#CD163F"/>
    <path d="M35.7981 10.4762L28.6455 3.32361C28.2461 2.92418 27.6144 2.86844 27.1407 3.19356L13.3743 12.464C15.9845 12.6312 17.5637 13.6809 17.5637 16.096C17.5637 18.1954 16.4304 19.5051 14.5076 19.7373V19.7745C15.3993 19.9417 15.9938 20.3504 16.4304 20.9078C16.5883 21.1028 16.6905 21.3351 16.7462 21.5673L17.8331 24.8649L22.5147 13.1421C22.6819 12.7334 23.0814 12.464 23.5179 12.464H27.633L33.1042 26.1561H29.723C29.0356 26.1561 28.3947 25.7195 28.1067 25.0693L27.5773 23.5737H22.6076L21.6416 26.1561H14.2196C13.8202 26.1561 13.4858 25.8681 13.4208 25.4594L12.1853 21.8738C12.0181 21.2608 11.405 21.1586 10.8012 21.1586H9.60296V26.1468H5.37644V17.8424L2.84982 19.5423C2.6176 19.7002 2.48755 19.9603 2.48755 20.239V25.5244C2.48755 25.8681 2.69191 26.1747 2.99845 26.3047L26.8248 36.2811C27.2707 36.4762 27.7816 36.374 28.1253 36.0396L35.7981 28.3947C36.6619 27.5401 37.145 26.3697 37.145 25.1529V13.7088C37.145 12.4919 36.6619 11.3308 35.7981 10.4762Z" fill="#CD163F"/>
</svg>
