<svg width="130" height="40" viewBox="0 0 130 40" fill="none" xmlns="http://www.w3.org/2000/svg">
<g clip-path="url(#clip0_114_8068)">
<path d="M21.0156 13.1744C21.0156 9.52618 18.0805 6.58821 14.4916 6.58821H11.2563V19.7022H14.4916C18.0805 19.7022 21.0156 16.7623 21.0156 13.1744ZM35.7327 39.3179H23.8564L14.4275 26.233H11.2563V39.2897H0.789795V0.0642287H15.7838C24.4277 0.0642287 31.4831 5.94212 31.4831 13.1744C31.4831 17.5852 28.7783 21.5249 24.6618 23.9353L35.7327 39.3179Z" fill="#6C3C97"/>
<path d="M47.5366 15.5282C44.7725 15.5282 42.4214 19.2852 42.4214 23.936C42.4214 28.5868 44.7725 32.3487 47.5366 32.3487C50.3648 32.3487 52.7121 28.5868 52.7121 23.936C52.7121 19.2852 50.3648 15.5282 47.5366 15.5282ZM63.6469 23.936C63.6469 32.8209 56.4215 39.9355 47.5366 39.9355C38.6547 39.9355 31.4827 32.8209 31.4827 23.936C31.4827 15.058 38.6547 7.9394 47.5366 7.9394C56.4215 7.9394 63.6469 15.058 63.6469 23.936Z" fill="#6C3C97"/>
<path d="M88.2086 8.58985L76.1516 20.6449V8.55002H65.687V39.289H76.1516V26.8201L88.739 39.289H101.91L85.9147 23.2914L99.1638 10.0472V28.2891C99.1638 34.3457 102.806 39.9351 111.979 39.9351C116.333 39.9351 120.329 37.4654 122.271 35.2308L126.976 39.289H129.21V8.58985H118.745V24.5836V28.4659C117.567 30.5227 115.925 31.8158 113.387 31.8158C110.813 31.8158 109.631 30.2895 109.631 25.4074V24.1192V8.58985H88.2086Z" fill="#6C3C97"/>
</g>
<defs>
<clipPath id="clip0_114_8068">
<rect width="128.549" height="40" fill="white" transform="translate(0.725586)"/>
</clipPath>
</defs>
</svg>
