<svg width="100" height="41" viewBox="0 0 100 41" fill="none" xmlns="http://www.w3.org/2000/svg">
    <g clip-path="url(#clip0_41_2278)">
        <path d="M0.993408 11.697V23.2202H3.50996H6.02652V14.0811V4.94207H9.8146C14.1855 4.94207 14.8477 5.15399 14.9802 6.47849C15.0331 6.9818 14.9007 7.64406 14.6888 7.96194C14.2914 8.54472 7.90732 12.3593 7.32453 12.3593C7.16559 12.3593 7.08612 12.4652 7.1391 12.5977C7.19208 12.7301 9.0199 15.1672 11.1921 18.0282L15.1656 23.2202H18.159C19.7749 23.2202 21.1259 23.1143 21.1259 22.9818C21.1259 22.8494 21.0199 22.6904 20.8874 22.6374C20.755 22.5845 19.1126 20.6507 17.2318 18.3196L13.8146 14.0547L16.5696 12.0944C18.8477 10.505 19.4305 9.94869 19.8543 8.99505C21.4172 5.47187 19.5365 1.71028 15.6689 0.544718C14.7418 0.279818 12.755 0.173857 7.69539 0.173857H0.993408V11.697Z" fill="#08213A"/>
        <path d="M27.2451 5.63057C24.755 6.53123 22.6093 8.43852 21.5762 10.7432C20.7021 12.6239 20.755 16.2266 21.6822 18.2134C24.9934 25.2862 35.6954 25.3392 39.1656 18.3193C39.7219 17.1802 39.8014 16.6239 39.8014 14.3458C39.8014 12.0677 39.7219 11.5114 39.1656 10.3723C38.2915 8.59746 36.5166 6.90209 34.6888 6.05441C32.755 5.18024 29.0729 4.96832 27.2451 5.63057ZM32.4107 10.2663C34.6358 11.3259 35.51 14.2928 34.3179 16.571C33.5497 18.0809 32.6226 18.7432 31.1126 18.9021C29.5497 19.0875 28.7815 18.8756 27.7484 18.0279C26.5828 17.0478 26.1325 15.9882 26.1325 14.3193C26.1325 10.6902 29.2054 8.70342 32.4107 10.2663Z" fill="#08213A"/>
        <path d="M49.947 5.57792C49.4172 5.78984 48.6755 6.1607 48.3046 6.39911C47.6159 6.84945 47.6159 6.84945 47.6159 6.1607V5.47196H44.9669H42.3179V16.8627V28.2534H44.9669H47.6159V25.2336V22.1872L49.0993 22.8759C51.8278 24.121 55.5629 23.7236 58.0265 21.8958C62.3973 18.6905 62.9271 11.5382 59.0331 7.69713C57.3642 6.02825 55.8543 5.39249 53.1788 5.28653C51.6954 5.23355 50.6093 5.33951 49.947 5.57792ZM53.6291 10.0018C55.3775 10.664 56.3841 12.2534 56.3841 14.3461C56.3841 17.1541 54.9801 18.7435 52.4106 18.9289C49.1523 19.1408 46.9801 16.2799 47.8543 12.9686C48.5695 10.3461 51.1126 9.04812 53.6291 10.0018Z" fill="#08213A"/>
        <path d="M70.0264 5.8428C68.0397 6.69048 66.7946 7.67062 65.682 9.28651C64.4635 11.0878 63.9337 13.1276 64.1191 15.1938C64.331 17.366 65.0463 18.9024 66.5827 20.5713C69.5761 23.7501 74.3973 24.5183 78.3708 22.3991C79.7483 21.6574 81.5231 20.1739 81.2317 19.962C81.1787 19.909 80.331 19.1938 79.3244 18.3461L77.5496 16.7832L76.9933 17.4984C76.2251 18.4786 75.1125 18.9819 73.7085 18.9819C71.8277 18.9819 70.2648 17.9223 69.6291 16.2799L69.3642 15.5382L76.3046 15.4852L83.2449 15.4057L83.1655 13.7104C83.0595 10.4786 81.2052 7.7236 78.1324 6.21366C76.5959 5.44545 76.0661 5.33949 73.9734 5.26002C71.9337 5.20704 71.3774 5.28651 70.0264 5.8428ZM75.8012 10.3196C76.3575 10.6375 76.9933 11.1673 77.2052 11.4852L77.6026 12.068L73.6291 12.1474C69.3112 12.2269 69.2582 12.2004 70.7151 10.8494C72.0661 9.5779 74.1589 9.36598 75.8012 10.3196Z" fill="#08213A"/>
        <path d="M93.7087 5.76326C93.073 6.05465 92.1458 6.58445 91.669 6.95531L90.7948 7.61757V6.55796V5.47187H88.1458H85.4968V14.346V23.2202H88.1458H90.7948V18.505C90.7948 12.7037 91.0333 12.0149 93.2054 10.9288C94.1591 10.452 95.0333 10.2401 95.9604 10.2401H97.3114L98.1591 7.93545C98.8478 6.13412 98.9538 5.60432 98.6889 5.44538C98.0001 4.99505 94.9538 5.20697 93.7087 5.76326Z" fill="#08213A"/>
        <path d="M1.2583 31.2998C1.2583 31.5911 1.57618 31.6971 2.5828 31.6971H3.90731V35.6176C3.90731 37.7898 3.98678 39.6176 4.06625 39.7236C4.14572 39.8031 4.38413 39.8031 4.59605 39.7236C4.88744 39.6176 4.96691 38.77 4.96691 35.6441V31.6971H6.42386C7.53645 31.6971 7.88082 31.6176 7.88082 31.2998C7.88082 30.9554 7.32453 30.9024 4.56956 30.9024C1.81459 30.9024 1.2583 30.9554 1.2583 31.2998Z" fill="#08213A"/>
        <path d="M9.47021 35.9354V39.644H11.9868C14.053 39.644 14.5033 39.5646 14.5033 39.2467C14.5033 38.9288 14.106 38.8493 12.4636 38.8493H10.3974V37.6573V36.4652H12.4636C14.3179 36.4652 14.5033 36.4123 14.5033 35.9354C14.5033 35.4586 14.3179 35.4056 12.5431 35.4056H10.5828L10.4768 34.346L10.3709 33.2864H12.4371C14.3179 33.2864 14.5033 33.2334 14.5033 32.7566C14.5033 32.2533 14.3179 32.2268 11.9868 32.2268H9.47021V35.9354Z" fill="#08213A"/>
        <path d="M19.1126 32.5974C16.3046 33.869 16.3046 38.1603 19.1126 39.4849C19.6159 39.7233 20.3841 39.9087 20.8609 39.9087C21.7351 39.9087 23.7748 38.9286 23.7748 38.5312C23.7748 38.0809 22.9536 38.0014 22.4768 38.4252C21.7351 39.0875 19.7748 38.9815 18.9271 38.2133C17.6291 36.9948 17.841 34.3193 19.298 33.5246C20.1986 33.0743 21.841 33.1272 22.4503 33.6835C22.9271 34.1074 23.7748 34.0809 23.7748 33.6305C23.7748 33.5246 23.4569 33.1802 23.0596 32.9153C22.1854 32.2796 20.1722 32.0941 19.1126 32.5974Z" fill="#08213A"/>
        <path d="M26.1589 35.9086C26.1589 38.8225 26.2384 39.6172 26.5298 39.7232C27.1126 39.9616 27.2185 39.6702 27.2185 38.0013V36.4649H29.3377H31.4569V38.0278C31.4569 39.1139 31.5629 39.6172 31.8278 39.7232C32.0397 39.8026 32.2781 39.8026 32.3576 39.7232C32.4371 39.6172 32.5166 37.8953 32.5166 35.8821C32.5166 32.4119 32.4901 32.2265 31.9868 32.2265C31.5099 32.2265 31.4569 32.4119 31.4569 33.8159V35.4053H29.3377H27.2185V33.8159C27.2185 32.4119 27.1656 32.2265 26.6887 32.2265C26.1854 32.2265 26.1589 32.4119 26.1589 35.9086Z" fill="#08213A"/>
        <path d="M35.6953 35.8825C35.6953 37.8958 35.7748 39.6176 35.8543 39.7236C35.9337 39.8031 36.1721 39.8031 36.3841 39.7236C36.6754 39.6176 36.7549 38.9554 36.7549 36.7832V34.0017L38.1324 35.8296C41.9999 41.0481 42.0529 41.0481 42.0529 35.909C42.0529 32.4123 42.0264 32.2269 41.5231 32.2269C41.0198 32.2269 40.9933 32.4123 40.9933 35.1673V38.0812L39.2185 35.7501C35.6953 31.0613 35.6953 31.0613 35.6953 35.8825Z" fill="#08213A"/>
        <path d="M46.6359 32.7563C44.8876 33.8159 44.3313 35.6967 45.179 37.6305C46.5035 40.5974 50.4505 40.6769 51.9074 37.7894C53.6028 34.4252 49.8147 30.7961 46.6359 32.7563ZM50.2121 33.71C51.9869 34.8755 51.4571 38.2398 49.4174 38.7961C46.9273 39.4583 45.0995 37.2067 46.1326 34.7696C46.7949 33.1537 48.6227 32.6769 50.2121 33.71Z" fill="#08213A"/>
        <path d="M55.0332 35.9354V39.644H57.4173C59.3511 39.644 59.8014 39.5646 59.8014 39.2467C59.8014 38.9288 59.4306 38.8493 57.9471 38.8493H56.0928V35.5381C56.0928 32.4123 56.0663 32.2268 55.563 32.2268C55.0597 32.2268 55.0332 32.4123 55.0332 35.9354Z" fill="#08213A"/>
        <path d="M63.4835 32.836C61.1259 34.3989 61.1259 37.7366 63.4835 39.2995C65.9471 40.9684 69.1524 39.1141 69.1524 36.0677C69.1524 33.0214 65.9471 31.1671 63.4835 32.836ZM67.1392 33.7101C68.4637 34.5578 68.4107 37.6042 67.0862 38.4783C65.6822 39.379 63.51 38.7697 62.9537 37.3128C62.3445 35.7234 63.2716 33.4982 64.6756 33.2068C65.4438 33.0479 66.4504 33.2333 67.1392 33.7101Z" fill="#08213A"/>
        <path d="M73.7087 32.7301C72.3312 33.5513 71.9074 34.2665 71.8014 35.75C71.722 36.8096 71.8279 37.3394 72.2253 38.0016C73.4173 39.8559 75.6425 40.4122 77.5763 39.3261C78.5829 38.7698 78.6094 38.7168 78.6094 37.3394V35.9354H76.8875C75.5365 35.9354 75.1657 36.0149 75.1657 36.3327C75.1657 36.6241 75.4836 36.7301 76.3577 36.7301C77.5233 36.7301 77.5498 36.7566 77.5498 37.5513C77.5498 38.2135 77.3908 38.399 76.6491 38.7168C74.7418 39.5115 72.7816 38.187 72.7816 36.0678C72.7816 34.6904 73.4968 33.7102 74.7683 33.2864C75.5895 33.0215 75.8544 33.048 76.7816 33.4983C77.7882 34.0016 78.6094 34.0281 78.6094 33.5778C78.6094 33.4718 78.1591 33.1274 77.5763 32.8096C76.3312 32.0943 74.7683 32.0678 73.7087 32.7301Z" fill="#08213A"/>
        <path d="M81.5232 35.9354C81.5232 39.4586 81.5497 39.644 82.053 39.644C82.5563 39.644 82.5828 39.4586 82.5828 35.9354C82.5828 32.4123 82.5563 32.2268 82.053 32.2268C81.5497 32.2268 81.5232 32.4123 81.5232 35.9354Z" fill="#08213A"/>
        <path d="M85.7617 35.8821C85.7617 37.8954 85.8147 39.6172 85.8677 39.6702C85.9207 39.7232 87.0597 39.7497 88.3842 39.6967C90.265 39.6172 90.7948 39.5113 90.7948 39.2199C90.7948 38.9285 90.3445 38.849 88.7551 38.849H86.6889V37.657V36.4649H88.7551C90.6094 36.4649 90.7948 36.4119 90.7948 35.9351C90.7948 35.4583 90.6094 35.4053 88.8346 35.4053H86.8743L86.7683 34.3457L86.6624 33.2861H88.7286C90.6094 33.2861 90.7948 33.2331 90.7948 32.7563C90.7948 32.253 90.6094 32.2265 88.2783 32.2265H85.7617V35.8821Z" fill="#08213A"/>
        <path d="M94.2914 32.6505C92.6755 33.7631 92.9934 35.379 95.0066 36.0942C97.6556 37.0478 97.6821 37.0478 97.6821 37.6571C97.6821 38.9022 96.1722 39.379 94.6623 38.6108C93.0729 37.7896 92.5166 38.4518 94.053 39.379C95.5099 40.2796 98.1325 39.8823 98.5828 38.7167C99.1656 37.1803 98.3974 36.0677 96.4106 35.5114C94.6887 35.0346 94.106 34.5843 94.3179 33.975C94.6358 33.2068 95.8278 32.9419 97.0199 33.3922C98.3444 33.922 98.4768 33.922 98.4768 33.4187C98.4768 32.4121 95.4305 31.8293 94.2914 32.6505Z" fill="#08213A"/>
    </g>
    <defs>
        <clipPath id="clip0_41_2278">
            <rect width="98.0132" height="40" fill="white" transform="translate(0.993408 0.173828)"/>
        </clipPath>
    </defs>
</svg>
