<svg width="104" height="40" viewBox="0 0 104 40" fill="none" xmlns="http://www.w3.org/2000/svg">
<path d="M101.096 32.3856C101.029 32.36 100.936 32.3497 100.813 32.3497H100.695V32.8899H100.885C100.998 32.8899 101.086 32.8642 101.147 32.8178C101.209 32.7715 101.245 32.6994 101.245 32.5966C101.245 32.4989 101.194 32.4268 101.096 32.3856ZM100.211 33.8776V32.0204C100.324 32.0204 100.494 32.0204 100.725 32.0204C100.957 32.0257 101.08 32.0257 101.106 32.0257C101.255 32.0362 101.374 32.0668 101.471 32.1234C101.641 32.2108 101.724 32.36 101.724 32.5658C101.724 32.7202 101.677 32.8334 101.59 32.9002C101.502 32.9723 101.399 33.0134 101.271 33.0237C101.389 33.0493 101.471 33.0854 101.533 33.1316C101.641 33.2191 101.693 33.358 101.693 33.5484V33.7181C101.693 33.7336 101.698 33.749 101.698 33.7696C101.703 33.7902 101.708 33.8057 101.713 33.8263L101.729 33.8778H101.265C101.25 33.816 101.24 33.7337 101.235 33.6205C101.229 33.5074 101.224 33.4353 101.204 33.3942C101.178 33.3273 101.137 33.281 101.07 33.2553C101.034 33.2399 100.977 33.2296 100.905 33.2244L100.797 33.2192H100.694V33.8777L100.211 33.8776ZM99.9589 31.9741C99.6914 32.2468 99.5576 32.5709 99.5576 32.9464C99.5576 33.3323 99.6965 33.6616 99.9641 33.9342C100.237 34.2069 100.561 34.3407 100.942 34.3407C101.322 34.3407 101.646 34.2018 101.914 33.9291C102.187 33.6564 102.32 33.3272 102.32 32.9464C102.32 32.5709 102.187 32.2519 101.919 31.9741C101.646 31.6963 101.322 31.5574 100.942 31.5574C100.556 31.5574 100.232 31.6963 99.9589 31.9741ZM102.115 34.1452C101.79 34.459 101.399 34.6185 100.942 34.6185C100.473 34.6185 100.077 34.459 99.7531 34.1349C99.429 33.8159 99.2695 33.4146 99.2695 32.9464C99.2695 32.4577 99.4444 32.0513 99.7891 31.7271C100.118 31.4236 100.499 31.2744 100.942 31.2744C101.405 31.2744 101.796 31.4339 102.125 31.7632C102.449 32.0873 102.614 32.4834 102.614 32.9464C102.614 33.4198 102.449 33.821 102.115 34.1452Z" fill="#0F7FCA"/>
<path d="M57.8238 13.6851C55.2823 12.6871 53.4919 10.2176 53.4919 7.33143C53.4919 3.56037 56.5376 0.514713 60.3138 0.514713L72.5633 0.504177C74.0656 0.504177 75.29 1.72347 75.29 3.22573C75.29 4.76913 74.0656 5.94726 72.5633 5.94726H60.3138C59.5575 5.94726 58.9505 6.55949 58.9505 7.31061C58.9505 7.86109 59.2797 8.33955 59.753 8.55049L70.5312 13.4433C73.3145 14.5083 75.29 17.199 75.29 20.3527C75.29 24.4324 71.9563 27.7456 67.8662 27.7456L56.2135 27.7508C54.7112 27.7508 53.4919 26.5316 53.4919 25.0293C53.4919 23.5271 54.7112 22.3078 56.2135 22.3078L67.8662 22.2972C68.9672 22.2972 69.8366 21.4278 69.8366 20.3268C69.8366 19.4676 69.2913 18.7474 68.5248 18.4696L57.8238 13.6851ZM81.1498 13.6851C78.6135 12.6871 76.818 10.2176 76.818 7.33143C76.818 3.56037 79.8637 0.514713 83.6399 0.514713L95.8894 0.504177C97.3916 0.504177 98.6161 1.72347 98.6161 3.22573C98.6161 4.76913 97.3916 5.94726 95.8894 5.94726H83.6399C82.8836 5.94726 82.2765 6.55949 82.2765 7.31061C82.2765 7.86109 82.6058 8.33955 83.0791 8.55049L93.8572 13.4433C96.6405 14.5083 98.6161 17.199 98.6161 20.3527C98.6161 24.4324 95.2823 27.7456 91.1923 27.7456L79.5396 27.7508C78.0373 27.7508 76.818 26.5316 76.818 25.0293C76.818 23.5271 78.0373 22.3078 79.5396 22.3078L91.1923 22.2972C92.2932 22.2972 93.1678 21.4278 93.1678 20.3268C93.1678 19.4676 92.6174 18.7474 91.8559 18.4696L81.1498 13.6851ZM17.335 8.27292C17.582 8.02597 17.7363 7.68643 17.7363 7.31086C17.7363 6.55974 17.1241 5.94751 16.373 5.94751H4.11317C2.60577 5.94751 1.38647 4.72822 1.38647 3.22598C1.38647 1.72372 2.57491 0.509576 4.0823 0.509576L16.373 0.504309C20.1492 0.504309 23.1845 3.56025 23.1845 7.33131C23.1845 9.34803 22.3048 11.1641 20.9106 12.4143L14.3923 18.9326C13.991 19.2979 13.7955 19.7403 13.7955 20.3268C13.7955 21.4278 14.6649 22.3024 15.7659 22.3024L20.463 22.2971C21.9653 22.2971 23.1845 23.5267 23.1845 25.0238C23.1845 26.5312 21.9653 27.7505 20.463 27.7505H15.7608C11.6707 27.7505 8.3421 24.3704 8.3421 20.2855C8.3421 18.1505 9.37619 16.2418 10.5492 15.0637L17.335 8.27292ZM6.83471 25.0343C6.83471 26.5366 5.61542 27.7559 4.11317 27.7559C2.60577 27.7559 1.38647 26.5366 1.38647 25.0343V11.4009C1.38647 9.89864 2.60577 8.67935 4.11317 8.67935C5.61542 8.67935 6.83471 9.89864 6.83471 11.4009V25.0343ZM27.4444 5.94751C29.9344 2.68578 33.9164 0.494141 38.3408 0.494141C45.8675 0.494141 51.964 6.60603 51.964 14.1224C51.964 21.6388 45.8727 27.7456 38.3408 27.7456C30.8141 27.7456 24.7177 21.6388 24.7177 14.1224C24.7177 12.8054 24.8463 12.0851 25.1498 10.7115C25.4482 9.43562 26.6675 8.66906 27.8148 8.66906C29.317 8.66906 30.8707 10.017 30.4231 12.0697C30.2585 12.7179 30.1659 13.4176 30.1659 14.1224C30.1659 18.6755 33.8135 22.2974 38.3408 22.2974C42.8682 22.2974 46.5157 18.6755 46.5157 14.1224C46.5157 9.57453 42.8682 5.94751 38.3408 5.94751H27.4444Z" fill="#0F7FCA"/>
<path d="M50.4001 33.0134C51.1358 32.0411 52.3191 31.3877 53.6361 31.3877C55.8741 31.3877 57.685 33.2089 57.685 35.4469C57.685 37.69 55.8741 39.506 53.6361 39.506C51.3982 39.506 49.5872 37.6848 49.5872 35.4469C49.5872 35.0559 49.6231 34.8398 49.7159 34.4334C49.8034 34.0527 50.1687 33.8263 50.5082 33.8263C50.9558 33.8263 51.4137 34.2276 51.285 34.8398C51.2336 35.0301 51.2079 35.2411 51.2079 35.4469C51.2079 36.8051 52.2883 37.8854 53.6362 37.8854C54.9841 37.8854 56.0645 36.8051 56.0645 35.4469C56.0645 34.0938 54.9841 33.0134 53.6362 33.0134H50.4001ZM93.4663 35.3182C92.7101 35.0198 92.1802 34.2842 92.1802 33.425C92.1802 32.2983 93.0856 31.3928 94.2123 31.3928H97.8496C98.2921 31.3928 98.6573 31.753 98.6573 32.2006C98.6573 32.6584 98.2921 33.0134 97.8496 33.0134H94.2072C93.9808 33.0134 93.8007 33.1935 93.8007 33.4199C93.8007 33.5845 93.8985 33.7234 94.0374 33.7903L97.2425 35.2462C98.0708 35.56 98.6573 36.3626 98.6573 37.3041C98.6573 38.5182 97.6695 39.506 96.4503 39.506H92.9879C92.5403 39.506 92.175 39.1408 92.175 38.6932C92.175 38.2456 92.5403 37.8854 92.9879 37.8854L96.4503 37.8802C96.7795 37.8802 97.0367 37.623 97.0367 37.2937C97.0367 37.0365 96.8721 36.8256 96.6458 36.7432L93.4663 35.3182ZM86.0683 35.3182C85.312 35.0198 84.7821 34.2842 84.7821 33.425C84.7821 32.2983 85.6927 31.3877 86.8142 31.3877H90.4515C90.8991 31.3877 91.2593 31.753 91.2593 32.2006C91.2593 32.6584 90.8991 33.0134 90.4515 33.0134H86.8091C86.5827 33.0134 86.4027 33.1935 86.4027 33.4147C86.4027 33.5793 86.5004 33.7234 86.6393 33.7903L89.8445 35.2462C90.6728 35.56 91.2592 36.3626 91.2592 37.3041C91.2592 38.5182 90.2715 39.506 89.0522 39.506H85.5898C85.1422 39.506 84.7821 39.1408 84.7821 38.6932C84.7821 38.2456 85.1422 37.8854 85.5898 37.8854L89.0522 37.8802C89.3814 37.8802 89.6438 37.623 89.6438 37.2937C89.6438 37.0365 89.4792 36.8256 89.2528 36.7432L86.0683 35.3182ZM32.0181 35.3182C31.2618 35.0198 30.7268 34.2842 30.7268 33.425C30.7268 32.2983 31.6374 31.3877 32.7589 31.3877H36.3962C36.8438 31.3877 37.2091 31.753 37.2091 32.2006C37.2091 32.6584 36.8438 33.0134 36.3962 33.0134H32.7538C32.5326 33.0134 32.3525 33.1935 32.3525 33.4147C32.3525 33.5793 32.4502 33.7234 32.5892 33.7903L35.7943 35.2462C36.6226 35.56 37.2091 36.3626 37.2091 37.3041C37.2091 38.5182 36.2162 39.506 35.002 39.506H31.5396C31.092 39.506 30.7268 39.1408 30.7268 38.6932C30.7268 38.2456 31.092 37.8854 31.5396 37.8854L35.002 37.8802C35.3313 37.8802 35.5885 37.623 35.5885 37.2937C35.5885 37.0365 35.4239 36.8256 35.1975 36.7432L32.0181 35.3182ZM24.62 35.3182C23.8638 35.0198 23.3287 34.2842 23.3287 33.425C23.3287 32.2983 24.2393 31.3877 25.3609 31.3877H29.0033C29.4457 31.3877 29.811 31.753 29.811 32.2006C29.811 32.6584 29.4458 33.0134 29.0033 33.0134H25.3609C25.1345 33.0134 24.9544 33.1935 24.9544 33.4147C24.9544 33.5793 25.0521 33.7234 25.1911 33.7903L28.3962 35.2462C29.2245 35.56 29.811 36.3626 29.811 37.3041C29.811 38.5182 28.8181 39.506 27.6039 39.506H24.1416C23.694 39.506 23.3287 39.1408 23.3287 38.6932C23.3287 38.2456 23.694 37.8854 24.1416 37.8854L27.6039 37.8802C27.9332 37.8802 28.1905 37.623 28.1905 37.2937C28.1905 37.0365 28.031 36.8256 27.7994 36.7432L24.62 35.3182ZM63.3184 33.7028C63.3905 33.6308 63.4367 33.5279 63.4367 33.4147C63.4367 33.1935 63.2566 33.0134 63.0354 33.0134H59.3878C58.9402 33.0134 58.575 32.6481 58.575 32.2006C58.575 31.753 58.9402 31.3877 59.3878 31.3877H63.0303C64.157 31.3877 65.0573 32.2983 65.0573 33.4199C65.0573 34.0218 64.7949 34.562 64.3782 34.9375L62.4438 36.8771C62.3254 36.9851 62.2689 37.1189 62.2689 37.2938C62.2689 37.6231 62.5261 37.8803 62.8502 37.8803H64.2496C64.692 37.8803 65.0573 38.2456 65.0573 38.6932C65.0573 39.1408 64.692 39.5009 64.2496 39.5009L62.8502 39.5061C61.6361 39.5061 60.6431 38.4978 60.6431 37.2836C60.6431 36.6457 60.9518 36.0746 61.3017 35.7299L63.3184 33.7028ZM60.1956 38.6932C60.1956 39.1459 59.8355 39.506 59.3879 39.506C58.9403 39.506 58.575 39.1459 58.575 38.6932V34.634C58.575 34.1864 58.9403 33.8211 59.3879 33.8211C59.8355 33.8211 60.1956 34.1864 60.1956 34.634V38.6932ZM13.7544 33.7028C13.8316 33.6308 13.8727 33.5279 13.8727 33.4147C13.8727 33.1935 13.6926 33.0134 13.4714 33.0134H9.82382C9.37624 33.0134 9.01611 32.6481 9.01611 32.2006C9.01611 31.753 9.37624 31.3877 9.82382 31.3877H13.4663C14.593 31.3877 15.4933 32.2983 15.4933 33.4199C15.4933 34.0218 15.2361 34.562 14.8193 34.9375L12.8798 36.8771C12.7615 36.9851 12.7049 37.1189 12.7049 37.2938C12.7049 37.6231 12.9621 37.8803 13.2914 37.8803H14.6856C15.1332 37.8803 15.4933 38.2456 15.4933 38.6932C15.4933 39.1408 15.1332 39.5009 14.6856 39.5009L13.2863 39.5061C12.0721 39.5061 11.0843 38.4978 11.0843 37.2836C11.0843 36.6457 11.3879 36.0746 11.7377 35.7299L13.7544 33.7028ZM10.6367 38.6932C10.6367 39.1459 10.2715 39.506 9.82388 39.506C9.37629 39.506 9.01616 39.1459 9.01616 38.6932V34.634C9.01616 34.1864 9.3763 33.8211 9.82388 33.8211C10.2715 33.8211 10.6367 34.1864 10.6367 34.634V38.6932ZM44.458 35.4469H48.0541C48.5017 35.4416 48.867 35.0816 48.867 34.634C48.867 34.1916 48.5017 33.8263 48.0541 33.8263H43.6451C42.8014 33.8263 42.8374 34.7678 42.8374 34.6391V38.6829C42.8374 39.1305 43.1975 39.506 43.6451 39.506C44.0927 39.506 44.458 39.1408 44.458 38.6932V35.4469ZM72.5531 37.8854H76.1544C76.602 37.8854 76.9622 38.2456 76.9622 38.6932C76.9622 39.1408 76.602 39.506 76.1544 39.506H71.7454C71.2978 39.506 70.9377 39.1408 70.9377 38.6932V32.2006C70.9377 31.753 71.2978 31.3877 71.7454 31.3877C72.1879 31.3877 72.5531 31.753 72.5531 32.2006V37.8854ZM48.0541 33.0134C48.5017 33.0134 48.867 32.6482 48.867 32.2006C48.867 31.753 48.5017 31.3877 48.0541 31.3877H43.6451C43.2027 31.3877 42.8374 31.753 42.8374 32.2006C42.8374 32.6482 43.2027 33.0134 43.6451 33.0134H48.0541ZM83.0689 33.0134C83.5165 33.0134 83.8818 32.6482 83.8818 32.2006C83.8818 31.753 83.5165 31.3877 83.0689 31.3877H78.6599C78.2123 31.3877 77.8522 31.753 77.8522 32.2006C77.8522 32.6482 78.2123 33.0134 78.6599 33.0134H83.0689ZM79.4779 37.8803H83.0792C83.5216 37.8803 83.8869 38.2456 83.8869 38.6932C83.8869 39.1408 83.5216 39.5009 83.0792 39.506H78.6702C78.2226 39.5008 77.8625 39.1408 77.8625 38.6932V34.6391C77.8625 34.1916 78.2226 33.8263 78.6702 33.8211H83.0792C83.5216 33.8264 83.8869 34.1916 83.8869 34.6391C83.8869 35.0816 83.5216 35.4469 83.0792 35.4469H79.4779V37.8803ZM21.6155 33.0134C22.0631 33.0134 22.4284 32.6482 22.4284 32.2006C22.4284 31.753 22.0631 31.3877 21.6155 31.3877H17.2065C16.7641 31.3877 16.3988 31.753 16.3988 32.2006C16.3988 32.6482 16.7641 33.0134 17.2065 33.0134H21.6155ZM18.0297 37.8803H21.6258C22.0734 37.8803 22.4335 38.2456 22.4335 38.6932C22.4335 39.1408 22.0734 39.5009 21.6258 39.506H17.2168C16.7692 39.5008 16.4091 39.1408 16.4091 38.6932V34.6391C16.4091 34.1916 16.7692 33.8263 17.2168 33.8211H21.6258C22.0734 33.8264 22.4335 34.1916 22.4335 34.6391C22.4335 35.0816 22.0734 35.4469 21.6258 35.4469H18.0297V37.8803ZM3.04832 37.8803H4.0824C5.39945 37.8803 6.5107 36.7896 6.5107 35.4469C6.5107 34.1041 5.39945 33.0134 4.0824 33.0134H2.2406C1.79302 33.0134 1.42773 32.6481 1.42773 32.2006C1.42773 31.753 1.79302 31.3877 2.2406 31.3877L4.0824 31.393C6.3152 31.393 8.12613 33.1782 8.12613 35.4573C8.12613 37.6952 6.3152 39.5061 4.0824 39.5061H2.2406C1.79302 39.5061 1.42773 39.146 1.42773 38.7036V34.6341C1.42773 34.1865 1.79302 33.8213 2.2406 33.8213C2.68818 33.8213 3.04832 34.1865 3.04832 34.6341V37.8803Z" fill="#0F7FCA"/>
</svg>
