<svg width="66" height="17" viewBox="0 0 66 17" fill="none" xmlns="http://www.w3.org/2000/svg">
<path fill-rule="evenodd" clip-rule="evenodd" d="M29.7097 6.11053L28.0418 2.25785H29.5918L30.4179 4.43479L31.1969 2.25785H32.7157L30.1877 8.1188H28.7549L29.7097 6.11053ZM7.60283 4.38059C7.75243 4.39552 7.89873 4.4217 8.04082 4.45801L8.80348 0.0807361C8.65938 0.0503217 8.51327 0.0247001 8.36605 0.00294917L7.60283 4.38059ZM5.29815 5.15625L1.94003 2.30357C1.78438 2.47426 1.63662 2.6525 1.4971 2.83739L4.84733 5.68491C4.97658 5.49118 5.12783 5.31404 5.29815 5.15625ZM11.1542 1.03372C11.0365 0.959804 10.9173 0.888284 10.7954 0.821004L8.6009 4.66464C8.72648 4.72621 8.84748 4.79607 8.96243 4.87423L11.1542 1.03372ZM12.8122 2.46172L9.46422 5.30464C9.54653 5.39256 9.62353 5.48546 9.69503 5.58297L13.0416 2.74153C12.9675 2.64642 12.8911 2.55296 12.8122 2.46172ZM4.42145 6.67328C4.48213 6.40969 4.57655 6.15919 4.70103 5.92749L0.588317 4.41119C0.4851 4.65451 0.394717 4.90501 0.31735 5.16141L4.42145 6.67328ZM10.2683 7.34314C10.2683 8.98773 8.94245 10.3206 7.30693 10.3206C5.8421 10.3206 4.6266 9.25113 4.38863 7.84654L0.28325 9.36063C0.374367 9.68283 0.4862 9.99638 0.61765 10.299L4.69792 8.79473L1.3673 11.6281C1.57832 11.9258 1.80987 12.2067 2.06103 12.4688L5.1755 9.822L3.1438 13.4002C3.46647 13.6271 3.80765 13.8291 4.16533 14.0019L6.07457 10.6402L5.40833 14.4654C5.81607 14.5764 6.23773 14.6516 6.6704 14.6896L7.2919 11.1147L7.9156 14.6916C8.36843 14.6537 8.80953 14.5744 9.23505 14.4568L8.65663 11.1383L10.3222 14.0596C10.7782 13.8498 11.2092 13.5949 11.6094 13.2994L10.0808 10.6211L12.4181 12.6057C12.7908 12.236 13.1245 11.8266 13.4123 11.3835L11.3236 9.61095L13.8805 10.5532C14.1174 10.06 14.3004 9.53537 14.4245 8.98828L12.1799 8.16193L14.5651 8.16156C14.5959 7.8858 14.6131 7.60599 14.6131 7.32212C14.6131 6.99328 14.5898 6.67033 14.5488 6.3531H10.1C10.2086 6.66296 10.2683 6.99586 10.2683 7.34314ZM4.34555 7.34314C4.34555 7.17779 4.35967 7.01595 4.38552 6.85798H0.0157667C0.0058667 7.01153 0 7.16581 0 7.32212C0 7.46756 0.0053169 7.61208 0.0135669 7.75567H4.37452C4.356 7.62074 4.34555 7.48341 4.34555 7.34314ZM5.59057 4.91791C5.75043 4.80308 5.92222 4.70391 6.1039 4.62262L3.90903 0.773262C3.73432 0.866349 3.56455 0.96644 3.39845 1.07298L5.59057 4.91791ZM5.78673 0.0860817C5.94605 0.0517964 6.10775 0.0234099 6.27092 0L7.03432 4.37893C6.86822 4.39405 6.70597 4.4228 6.54867 4.46465L5.78673 0.0860817ZM45.2421 14.5635H45.9105V8.71234H45.2421V14.5635ZM57.6019 8.90183C57.6856 8.99141 57.7282 9.10496 57.7282 9.2421C57.7282 9.37887 57.6856 9.49224 57.6019 9.58201C57.5181 9.67122 57.4079 9.71638 57.2715 9.71638C57.1351 9.71638 57.0253 9.67122 56.9413 9.58201C56.8575 9.49224 56.8157 9.37887 56.8157 9.2421C56.8157 9.10496 56.8575 8.99141 56.9413 8.90183C57.0253 8.81243 57.1351 8.76782 57.2715 8.76782C57.4079 8.76782 57.5181 8.81243 57.6019 8.90183ZM39.5575 6.33983V4.12585C39.5575 3.64125 39.3767 3.39867 39.0148 3.39867C38.8155 3.39867 38.665 3.46576 38.5627 3.59996C38.4602 3.73433 38.4094 3.92825 38.4094 4.18115V6.33983H36.9935V0.330687H38.4094V2.69471C38.5246 2.51591 38.6817 2.37748 38.8811 2.2796C39.0802 2.18209 39.3056 2.13343 39.5575 2.13343C40.0239 2.13343 40.3768 2.2785 40.6151 2.56826C40.8538 2.8584 40.9732 3.28789 40.9732 3.8571V6.33983H39.5575ZM43.4768 13.231C43.4139 13.4131 43.3233 13.5674 43.2056 13.6937C43.0876 13.8203 42.9471 13.9193 42.7847 13.9904C42.6223 14.061 42.4387 14.097 42.2341 14.097C42.0303 14.097 41.8464 14.061 41.6838 13.9904C41.5211 13.9193 41.3809 13.8203 41.2628 13.6937C41.1451 13.5674 41.0544 13.4131 40.9917 13.231C40.9288 13.0491 40.8973 12.8472 40.8973 12.626C40.8973 12.4046 40.9288 12.203 40.9917 12.0212C41.0544 11.8397 41.1451 11.6856 41.2628 11.5584C41.3809 11.4325 41.5211 11.3335 41.6838 11.2624C41.8464 11.191 42.0303 11.1556 42.2341 11.1556C42.4387 11.1556 42.6223 11.191 42.7847 11.2624C42.9471 11.3335 43.0876 11.4325 43.2056 11.5584C43.3233 11.6856 43.4139 11.8397 43.4768 12.0212C43.5397 12.203 43.5714 12.4046 43.5714 12.626C43.5714 12.8472 43.5397 13.0491 43.4768 13.231ZM43.6773 11.1477C43.4969 10.9632 43.283 10.8183 43.0364 10.7123C42.7898 10.6069 42.5223 10.5545 42.2341 10.5545C41.9461 10.5545 41.6786 10.6069 41.4321 10.7123C41.1855 10.8183 40.9721 10.9632 40.7911 11.1477C40.6102 11.3322 40.4686 11.5506 40.3663 11.8035C40.2642 12.0568 40.2129 12.3311 40.2129 12.626C40.2129 12.9215 40.2642 13.1952 40.3663 13.4485C40.4686 13.7014 40.6102 13.9206 40.7911 14.1049C40.9721 14.2894 41.1855 14.4345 41.4321 14.5397C41.6786 14.6448 41.9461 14.6979 42.2341 14.6979C42.5223 14.6979 42.7898 14.6448 43.0364 14.5397C43.283 14.4345 43.4969 14.2894 43.6773 14.1049C43.8581 13.9206 44 13.7014 44.1019 13.4485C44.2042 13.1952 44.2554 12.9215 44.2554 12.626C44.2554 12.3311 44.2042 12.0568 44.1019 11.8035C44 11.5506 43.8581 11.3322 43.6773 11.1477ZM56.9413 14.5633H57.6098V10.6653H56.9413V14.5633ZM54.8656 2.56826C55.1041 2.8584 55.2235 3.28789 55.2235 3.8571V6.33983H53.8078V4.12585C53.8078 3.64125 53.627 3.39867 53.2649 3.39867C53.0657 3.39867 52.9153 3.46576 52.8128 3.59996C52.7107 3.73433 52.6596 3.92825 52.6596 4.18115V6.33983H51.2439V2.2597H52.6282L52.644 2.76605C52.7487 2.56587 52.9019 2.41011 53.1038 2.29933C53.3056 2.18873 53.5403 2.13343 53.8078 2.13343C54.2744 2.13343 54.6269 2.2785 54.8656 2.56826ZM42.794 3.92235C42.902 3.37157 43.1987 3.09637 43.6825 3.09637C43.9179 3.09637 44.1091 3.16826 44.2557 3.31222C44.4021 3.45673 44.4911 3.65986 44.5232 3.92235H42.794ZM45.6918 4.17341C45.6918 3.8571 45.6458 3.5736 45.5541 3.32328C45.4621 3.07314 45.3301 2.8595 45.1568 2.68273C44.9838 2.50633 44.7738 2.37066 44.528 2.27555C44.2812 2.18099 44.0059 2.13343 43.7023 2.13343C43.3873 2.13343 43.1006 2.18615 42.8408 2.2914C42.5814 2.39721 42.3572 2.5443 42.1685 2.73435C41.9797 2.92384 41.8343 3.15204 41.7322 3.41858C41.6299 3.68438 41.5787 3.97857 41.5787 4.29986C41.5787 4.6322 41.6348 4.93248 41.7477 5.20123C41.8603 5.46998 42.0231 5.69837 42.2354 5.88509C42.4475 6.07255 42.7044 6.21615 43.006 6.31624C43.3074 6.41633 43.6469 6.46665 44.0248 6.46665C44.339 6.46665 44.642 6.4296 44.933 6.35605C45.2238 6.28214 45.4716 6.17652 45.6758 6.03956L45.2278 5.13026C45.0599 5.20418 44.8776 5.26077 44.6811 5.30021C44.4846 5.33948 44.3076 5.3592 44.1503 5.3592C43.5054 5.3592 42.9357 5.12768 42.7944 4.66354H45.6445C45.6759 4.53211 45.6918 4.36843 45.6918 4.17341ZM49.058 5.00381C48.895 5.1828 48.6801 5.27256 48.4128 5.27256C48.1455 5.27256 47.9305 5.1828 47.7681 5.00381C47.6053 4.82464 47.5242 4.58999 47.5242 4.29986C47.5242 4.01009 47.6053 3.77562 47.7681 3.59609C47.9305 3.41692 48.1455 3.32733 48.4128 3.32733C48.6801 3.32733 48.895 3.41692 49.058 3.59609C49.2201 3.77562 49.3016 4.01009 49.3016 4.29986C49.3016 4.58999 49.2201 4.82464 49.058 5.00381ZM50.0093 2.75038C49.81 2.55518 49.5741 2.40366 49.3016 2.29527C49.0285 2.18744 48.7326 2.13343 48.4128 2.13343C48.0927 2.13343 47.7966 2.18744 47.5242 2.29527C47.2514 2.40366 47.0155 2.55518 46.8164 2.75038C46.6171 2.94522 46.4611 3.17452 46.3485 3.43812C46.2356 3.70152 46.1793 3.98871 46.1793 4.29986C46.1793 4.611 46.2356 4.89819 46.3485 5.16197C46.4611 5.42519 46.6171 5.65468 46.8164 5.84988C47.0155 6.04509 47.2514 6.19624 47.5242 6.30444C47.7966 6.41246 48.0927 6.46665 48.4128 6.46665C48.7326 6.46665 49.0285 6.41246 49.3016 6.30444C49.5741 6.19624 49.81 6.04509 50.0093 5.84988C50.2084 5.65468 50.3644 5.42519 50.477 5.16197C50.5899 4.89819 50.6466 4.611 50.6466 4.29986C50.6466 3.98871 50.5899 3.70152 50.477 3.43812C50.3644 3.17452 50.2084 2.94522 50.0093 2.75038ZM38.8406 10.9857C39.0817 11.2725 39.2024 11.6935 39.2024 12.2469V14.5635H38.5339V12.365C38.5339 11.9435 38.4621 11.6349 38.3178 11.4404C38.1735 11.245 37.9441 11.1477 37.6299 11.1477C37.2834 11.1477 37.0146 11.2624 36.8234 11.4915C36.632 11.7208 36.5363 12.0408 36.5363 12.4524V14.5635H35.8679V10.6653H36.4971L36.5074 11.3571C36.5968 11.1422 36.7292 10.9663 36.9059 10.8312C37.1474 10.6467 37.4405 10.5545 37.7868 10.5545C38.2483 10.5545 38.5997 10.6979 38.8406 10.9857ZM50.1532 13.231C50.0903 13.4131 49.9996 13.5674 49.8823 13.6937C49.7638 13.8203 49.6236 13.9193 49.461 13.9904C49.2985 14.061 49.115 14.097 48.9106 14.097C48.7064 14.097 48.5228 14.061 48.36 13.9904C48.1974 13.9193 48.0574 13.8203 47.9393 13.6937C47.8214 13.5674 47.7308 13.4131 47.6681 13.231C47.6051 13.0491 47.5737 12.8472 47.5737 12.626C47.5737 12.4046 47.6051 12.203 47.6681 12.0212C47.7308 11.8397 47.8214 11.6856 47.9393 11.5584C48.0574 11.4325 48.1974 11.3335 48.36 11.2624C48.5228 11.191 48.7064 11.1556 48.9106 11.1556C49.115 11.1556 49.2985 11.191 49.461 11.2624C49.6236 11.3335 49.7638 11.4325 49.8823 11.5584C49.9996 11.6856 50.0903 11.8397 50.1532 12.0212C50.2159 12.203 50.2478 12.4046 50.2478 12.626C50.2478 12.8472 50.2159 13.0491 50.1532 13.231ZM50.354 11.1477C50.173 10.9632 49.9593 10.8183 49.7127 10.7123C49.4663 10.6069 49.1988 10.5545 48.9106 10.5545C48.6226 10.5545 48.3551 10.6069 48.1083 10.7123C47.8619 10.8183 47.6483 10.9632 47.4674 11.1477C47.2866 11.3322 47.1449 11.5506 47.0428 11.8035C46.9407 12.0568 46.8893 12.3311 46.8893 12.626C46.8893 12.9215 46.9407 13.1952 47.0428 13.4485C47.1449 13.7014 47.2866 13.9206 47.4674 14.1049C47.6483 14.2894 47.8619 14.4345 48.1083 14.5397C48.3551 14.6448 48.6226 14.6979 48.9106 14.6979C49.1988 14.6979 49.4663 14.6448 49.7127 14.5397C49.9593 14.4345 50.173 14.2894 50.354 14.1049C50.5345 13.9206 50.6765 13.7014 50.7784 13.4485C50.8807 13.1952 50.9317 12.9215 50.9317 12.626C50.9317 12.3311 50.8807 12.0568 50.7784 11.8035C50.6765 11.5506 50.5345 11.3322 50.354 11.1477ZM26.1041 4.9522C25.9517 5.11828 25.7554 5.20123 25.5141 5.20123C25.2729 5.20123 25.0751 5.11828 24.9203 4.9522C24.7658 4.7863 24.6884 4.56879 24.6884 4.29986C24.6884 4.03092 24.7658 3.81378 24.9203 3.6477C25.0751 3.48143 25.2729 3.39867 25.5141 3.39867C25.7554 3.39867 25.9517 3.48143 26.1041 3.6477C26.2557 3.81378 26.3322 4.03092 26.3322 4.29986C26.3322 4.56879 26.2557 4.7863 26.1041 4.9522ZM27.6688 2.2597H26.3399L26.3243 2.73435C26.2035 2.5443 26.0423 2.39721 25.8407 2.2914C25.6386 2.18615 25.4146 2.13343 25.168 2.13343C24.9007 2.13343 24.6515 2.18873 24.4211 2.29933C24.1903 2.41011 23.9897 2.5631 23.8194 2.75812C23.6489 2.95314 23.5167 3.18393 23.4221 3.44991C23.3279 3.71608 23.2806 4.00475 23.2806 4.31571C23.2806 4.6322 23.3264 4.92197 23.4183 5.18556C23.5099 5.44934 23.6372 5.67569 23.7998 5.86555C23.9622 6.05523 24.1562 6.20288 24.3817 6.30813C24.607 6.41393 24.8561 6.46665 25.1289 6.46665C25.3909 6.46665 25.6254 6.41485 25.8326 6.31218C26.0397 6.20951 26.2035 6.06315 26.3243 5.87329L26.3399 6.33983H27.6688V2.2597ZM66 13.5198C66 13.8835 65.857 14.1707 65.5714 14.3818C65.2854 14.5923 64.9015 14.6979 64.4195 14.6979C64.1676 14.6979 63.9183 14.6623 63.672 14.5908C63.426 14.5202 63.2291 14.429 63.0824 14.3184L63.358 13.8361C63.6981 14.0363 64.0523 14.1366 64.4195 14.1366C64.7073 14.1366 64.9308 14.0863 65.0875 13.986C65.2449 13.8857 65.3235 13.744 65.3235 13.5595C65.3235 13.475 65.312 13.4008 65.2883 13.3379C65.2645 13.2747 65.2185 13.2175 65.1506 13.1681C65.0824 13.1176 64.9878 13.069 64.8674 13.0218C64.7469 12.974 64.5894 12.9215 64.3958 12.8633C63.9707 12.737 63.6667 12.5812 63.4832 12.3969C63.2997 12.2122 63.208 11.9702 63.208 11.6695C63.208 11.3322 63.3378 11.0618 63.5972 10.8587C63.8566 10.6561 64.2068 10.5545 64.6472 10.5545C64.8466 10.5545 65.0588 10.5848 65.2841 10.6452C65.5098 10.7057 65.6982 10.7837 65.8504 10.8789L65.5908 11.3612C65.2659 11.1973 64.9511 11.1162 64.6472 11.1162C64.1175 11.1162 63.8532 11.2764 63.8532 11.5982C63.8532 11.7617 63.9133 11.8922 64.0337 11.9897C64.1542 12.087 64.3641 12.1807 64.6633 12.2705C64.9147 12.344 65.1255 12.4205 65.296 12.4998C65.4663 12.5785 65.604 12.6669 65.709 12.7645C65.8137 12.8622 65.8884 12.9726 65.9331 13.0966C65.978 13.2207 66 13.3615 66 13.5198ZM22.7971 9.32892H20.7522V14.5635H20.0446V9.32892H17.9998V8.72026H22.7971V9.32892ZM19.6946 1.53233H20.1428C20.8243 1.53233 21.1651 1.80661 21.1651 2.35481C21.1651 2.91923 20.8191 3.20088 20.1271 3.20088H19.6946V1.53233ZM20.4807 4.39479L21.5268 6.33983H23.2571L21.7706 3.95995C22.059 3.79129 22.2818 3.56567 22.4393 3.2842C22.5966 3.00162 22.675 2.69471 22.675 2.36274C22.675 2.04643 22.6213 1.76182 22.5139 1.50874C22.4063 1.25565 22.253 1.0422 22.0539 0.868561C21.8546 0.694185 21.6108 0.561468 21.3224 0.469119C21.034 0.376954 20.7062 0.330687 20.3394 0.330687H18.1847V6.33983H19.6946V4.40253H20.1271L20.4807 4.39479ZM24.2552 11.1318C24.4704 11.1318 24.6512 11.1702 24.7982 11.2467C24.9449 11.3226 25.0628 11.4216 25.1521 11.5427C25.2411 11.6642 25.3051 11.8035 25.3445 11.9623C25.3757 12.0865 25.3909 12.2135 25.3975 12.3414H23.0377C23.0753 12.0098 23.179 11.739 23.3512 11.5311C23.5714 11.2648 23.8726 11.1318 24.2552 11.1318ZM25.557 11.0922C25.4023 10.9234 25.2175 10.7918 25.0026 10.6966C24.7876 10.6023 24.5516 10.5545 24.2948 10.5545C24.0115 10.5545 23.7521 10.6058 23.5162 10.7088C23.2804 10.8117 23.0771 10.9566 22.9068 11.1436C22.7363 11.3306 22.6041 11.5551 22.5097 11.8159C22.4153 12.0769 22.368 12.3626 22.368 12.6734C22.368 13.3112 22.5568 13.8081 22.9343 14.1641C23.3118 14.5202 23.8414 14.6979 24.5228 14.6979C24.8006 14.6979 25.0694 14.6664 25.329 14.6031C25.5886 14.5397 25.8075 14.4525 25.9858 14.3421L25.7339 13.852C25.3302 14.0149 24.937 14.097 24.5544 14.097C24.0561 14.097 23.676 13.9768 23.414 13.7372C23.1957 13.5375 23.0699 13.2478 23.0333 12.871H26.0249C26.0302 12.8185 26.0341 12.7707 26.0368 12.7292C26.0392 12.6865 26.0407 12.6104 26.0407 12.4998C26.0407 12.2094 25.9987 11.9447 25.9149 11.7047C25.8309 11.4647 25.7116 11.2607 25.557 11.0922ZM60.4679 11.1318C61.1387 11.1318 61.519 11.4692 61.6084 12.1436C61.6185 12.186 61.6251 12.2358 61.6277 12.294C61.6279 12.2987 61.6279 12.3049 61.6282 12.3095H59.2887C59.3259 12.0013 59.4264 11.7436 59.5914 11.539C59.8085 11.2671 60.1007 11.1318 60.4679 11.1318ZM61.7892 11.0804C61.637 10.9143 61.452 10.7851 61.2346 10.6926C61.017 10.6006 60.7744 10.5545 60.5073 10.5545C60.2345 10.5545 59.9828 10.6058 59.7524 10.7088C59.5215 10.8117 59.3223 10.9566 59.1547 11.1436C58.9866 11.3306 58.8555 11.5519 58.7611 11.808C58.6672 12.0635 58.6197 12.3414 58.6197 12.6417C58.6197 13.2955 58.8049 13.8013 59.1741 14.1602C59.5437 14.5187 60.0642 14.6979 60.7352 14.6979C61.0234 14.6979 61.2986 14.6634 61.5609 14.5952C61.8231 14.5266 62.0536 14.4313 62.2528 14.3104L62.0169 13.8046C61.5976 13.9991 61.1809 14.097 60.7666 14.097C59.8556 14.097 59.3626 13.6771 59.2841 12.8393H62.2528C62.2583 12.7868 62.2622 12.7394 62.2653 12.6974C62.2673 12.655 62.2686 12.5785 62.2686 12.4682C62.2686 12.1781 62.227 11.916 62.1432 11.6812C62.0594 11.4469 61.941 11.2467 61.7892 11.0804ZM30.0399 13.8992L30.2837 14.3976C30.1158 14.492 29.9231 14.5663 29.7059 14.619C29.4883 14.6715 29.2692 14.6979 29.049 14.6979C28.7239 14.6979 28.429 14.6507 28.1642 14.5556C27.8995 14.4607 27.674 14.3231 27.4879 14.1443C27.3018 13.965 27.1588 13.7488 27.0593 13.4959C26.9597 13.243 26.91 12.9611 26.91 12.6498C26.91 12.339 26.961 12.0555 27.0633 11.8C27.1654 11.5442 27.3082 11.3243 27.4919 11.1398C27.6754 10.9553 27.8969 10.8117 28.1563 10.7088C28.4159 10.6058 28.7001 10.5545 29.0096 10.5545C29.4237 10.5545 29.8223 10.6598 30.2051 10.871L29.9455 11.3612C29.8093 11.2928 29.6626 11.2412 29.5051 11.2067C29.3478 11.1726 29.1931 11.1556 29.0413 11.1556C28.5954 11.1556 28.243 11.2872 27.9834 11.5506C27.7239 11.8144 27.5941 12.1704 27.5941 12.6183C27.5941 13.0822 27.7264 13.4448 27.9913 13.7056C28.2559 13.9667 28.6216 14.097 29.0884 14.097C29.3924 14.097 29.7097 14.0308 30.0399 13.8992ZM34.2318 10.989C34.4757 11.2795 34.5976 11.6983 34.5976 12.2469V14.5635H33.929V12.365C33.929 11.9435 33.8556 11.6349 33.7088 11.4404C33.5619 11.245 33.3313 11.1477 33.0169 11.1477C32.6707 11.1477 32.4018 11.2624 32.2104 11.4915C32.0192 11.7208 31.9237 12.0408 31.9237 12.4524V14.5635H31.255V8.71234H31.9237V11.304C32.0177 11.1025 32.1508 10.9376 32.3246 10.8117C32.5606 10.6402 32.8436 10.5545 33.174 10.5545C33.6353 10.5545 33.9878 10.6994 34.2318 10.989ZM35.9123 6.41117C35.7053 6.44785 35.4915 6.46665 35.2713 6.46665C34.2489 6.46665 33.7379 5.93154 33.7379 4.86114V3.40641H33.0539V2.2597H33.7379V1.20828H35.1533V2.2597H36.4745L36.1209 3.40641H35.1533V4.61654C35.1533 4.86391 35.1929 5.03662 35.2713 5.13413C35.3502 5.23183 35.4838 5.28067 35.6725 5.28067C35.8873 5.28067 36.0972 5.24086 36.3018 5.16197L36.4434 6.26094C36.2963 6.32416 36.1194 6.37412 35.9123 6.41117ZM54.6993 13.682C54.5815 13.8109 54.441 13.9126 54.2784 13.986C54.116 14.0601 53.9403 14.097 53.7517 14.097C53.343 14.097 53.0189 13.9667 52.7804 13.7056C52.5419 13.4448 52.4225 13.0902 52.4225 12.6417C52.4225 12.4255 52.4553 12.2266 52.5208 12.0452C52.5866 11.8631 52.6786 11.7062 52.796 11.5744C52.9146 11.4424 53.0543 11.3401 53.2169 11.266C53.3793 11.1923 53.5577 11.1556 53.7517 11.1556C53.9508 11.1556 54.133 11.191 54.2982 11.2624C54.4634 11.3335 54.6038 11.4336 54.7191 11.563C54.8343 11.692 54.9234 11.8485 54.9864 12.0329C55.0493 12.2174 55.0807 12.4205 55.0807 12.6417C55.0807 12.8529 55.0469 13.0467 54.9785 13.2233C54.9104 13.3997 54.8174 13.5528 54.6993 13.682ZM55.0339 11.3617C54.9098 11.1481 54.7529 10.9719 54.5617 10.8349C54.2993 10.6482 53.9981 10.5545 53.6575 10.5545C53.3845 10.5545 53.1317 10.6085 52.8983 10.7167C52.6649 10.8248 52.4621 10.9722 52.2892 11.1593C52.1158 11.3466 51.9809 11.5663 51.8843 11.8196C51.7867 12.0725 51.7389 12.3469 51.7389 12.6417C51.7389 12.9473 51.7829 13.2269 51.8722 13.4802C51.9613 13.7331 52.087 13.9491 52.25 14.1289C52.4119 14.3073 52.606 14.4474 52.8315 14.5475C53.0569 14.6476 53.306 14.6979 53.5788 14.6979C53.9403 14.6979 54.2575 14.6079 54.5301 14.429C54.7375 14.2925 54.9049 14.1132 55.0334 13.8913V14.3501C55.0334 14.9137 54.917 15.3277 54.6836 15.5911C54.4507 15.8551 54.0872 15.9869 53.5946 15.9869C53.0283 15.9869 52.5853 15.8839 52.2656 15.6785L52.0922 16.2241C52.1604 16.2767 52.2511 16.3242 52.3639 16.3659C52.4762 16.4087 52.5998 16.4453 52.7333 16.4772C52.8669 16.5087 53.0084 16.5334 53.1579 16.5521C53.3071 16.5707 53.4554 16.5797 53.6026 16.5797C55.002 16.5797 55.702 15.8125 55.702 14.2787V10.6653H55.0493L55.0339 11.3617Z" fill="#CE1126"/>
</svg>
