<svg width="27" height="26" viewBox="0 0 27 26" fill="none" xmlns="http://www.w3.org/2000/svg">
<g id="RUT - Russell 2000 Index" clip-path="url(#clip0_513_1598)">
<g id="RUT - Russell 2000 Index_2" clip-path="url(#clip1_513_1598)">
<path id="Vector" d="M20.3132 18.3893C20.4123 18.3632 20.4702 18.3611 20.5197 18.3786C20.5237 18.3764 20.5276 18.3743 20.5316 18.3721V18.1894C20.2822 18.2532 20.0327 18.3211 19.7833 18.388V18.5706L19.7951 18.5709C19.8446 18.5274 19.9025 18.499 20.0016 18.4724L20.0701 18.454V19.008C20.0701 19.079 20.0559 19.1467 20.03 19.1921V19.206C20.1149 19.1832 20.1999 19.1605 20.2849 19.138V19.1241C20.2589 19.0926 20.2448 19.0324 20.2448 18.9614V18.4074L20.3132 18.3893ZM7.05923 18.6235V18.6096C6.97422 18.5901 6.88926 18.5698 6.80425 18.5488V18.5628C6.83026 18.6076 6.84442 18.6751 6.84442 18.746V19.158C6.84442 19.359 6.953 19.4961 7.15365 19.5408C7.41329 19.5984 7.59154 19.4701 7.59154 19.2387V18.9059C7.59154 18.8349 7.6057 18.7734 7.63167 18.7395C7.63167 18.7348 7.63167 18.7302 7.63167 18.7255C7.5506 18.7116 7.46953 18.6964 7.3885 18.6803V18.6943C7.41447 18.7378 7.42867 18.8046 7.42867 18.8756V19.2259C7.42867 19.3664 7.34959 19.4229 7.19142 19.3886C7.07578 19.3632 7.0191 19.2891 7.0191 19.167V18.7877C7.0191 18.7167 7.0333 18.6559 7.05923 18.6235ZM19.2925 18.6457C19.3904 18.6186 19.5061 18.6361 19.5828 18.6892L19.5946 18.6849V18.5184C19.5179 18.4747 19.3868 18.4695 19.2617 18.5044C19.015 18.5734 18.8722 18.758 18.8722 19.019C18.8722 19.3123 19.1036 19.4794 19.4057 19.3928C19.4848 19.3701 19.5438 19.3383 19.5946 19.29V19.1084L19.5816 19.106C19.5226 19.1798 19.4493 19.2304 19.3703 19.253C19.1838 19.3067 19.0516 19.189 19.0516 18.9738C19.0516 18.8096 19.1414 18.6885 19.2925 18.6457ZM21.001 16.5478C20.624 16.723 20.6999 17.3295 20.6999 17.3295C20.8382 17.0851 21.0198 16.928 21.0691 16.9059C21.1636 16.864 21.1447 16.4815 21.001 16.5478ZM13.2447 10.3254C13.2447 10.2058 13.1645 10.071 13.0171 10.071C12.8693 10.071 12.7895 10.2058 12.7895 10.3254V10.6593H13.2447V10.3254ZM11.0557 11.6236C11.0715 11.5524 11.0481 11.3666 10.8255 11.369C10.8377 11.6642 10.9871 11.5424 11.0557 11.6236ZM21.2407 18.9339C21.4426 18.8927 21.5606 18.7531 21.5606 18.5469V18.1512C21.5606 18.0802 21.5748 18.0138 21.6008 17.9711V17.9572C21.5197 17.9705 21.4386 17.9851 21.3576 18.0007V18.0146C21.3836 18.048 21.3977 18.1093 21.3978 18.1803V18.5678C21.3978 18.6878 21.3458 18.753 21.2314 18.7764C21.0732 18.8092 20.9882 18.7525 20.9882 18.6104V18.2659C20.9882 18.1949 21.0023 18.1277 21.0283 18.0834V18.0695C20.9434 18.0886 20.8584 18.1085 20.7734 18.1291V18.143C20.7994 18.1751 20.8135 18.2357 20.8136 18.3067V18.6558C20.8136 18.8797 20.9846 18.9867 21.2407 18.9339ZM21.3535 17.6999C21.4376 17.6342 21.5375 17.6169 21.6799 17.5833C22.0145 17.4947 21.9774 17.115 21.6382 17.217C21.4594 17.2709 21.3683 17.5164 21.3535 17.6999ZM21.3297 16.8636C20.8435 17.0106 20.8737 17.7384 20.8737 17.7384C20.9844 17.5952 21.2179 17.3454 21.349 17.3077C21.4705 17.2732 21.5151 16.8081 21.3297 16.8636ZM7.95603 19.645V19.659C8.0371 19.6694 8.11813 19.6784 8.1992 19.6858V19.6719C8.17324 19.6311 8.15912 19.5657 8.15907 19.4947V19.0735C8.23893 19.1922 8.31882 19.3094 8.39867 19.425C8.40156 19.4291 8.40772 19.4292 8.41081 19.4252C8.49058 19.3192 8.57035 19.2114 8.65008 19.1018V19.5219C8.65008 19.5929 8.63592 19.6568 8.60995 19.6948V19.7087C8.69492 19.7102 8.77992 19.7096 8.86489 19.7066V19.6927C8.83892 19.6552 8.82476 19.5915 8.82476 19.5205V19.0108C8.82476 18.9399 8.83892 18.8755 8.86489 18.8362V18.8222C8.79526 18.8246 8.72563 18.8255 8.65601 18.8249C8.57692 18.9363 8.49784 19.0459 8.41876 19.1538C8.33968 19.0374 8.2606 18.9194 8.18147 18.7999C8.10637 18.7928 8.03118 18.7843 7.95603 18.7746V18.7886C7.982 18.8303 7.9962 18.896 7.9962 18.967V19.4767C7.9962 19.5477 7.98204 19.61 7.95603 19.645ZM12.5706 11.443C12.3607 11.3868 12.2936 11.5567 12.2915 11.6284C12.3896 11.5447 12.508 11.683 12.5706 11.443ZM11.8705 11.9228C11.9066 11.9228 11.9246 11.8877 11.9246 11.8262C11.9246 11.7752 11.9332 11.7652 11.956 11.7624C11.9836 11.759 11.9948 11.7741 12.0274 11.6996C12.0447 11.6706 12.1037 11.6363 12.1768 11.6376C12.1768 11.6376 12.1911 11.6302 12.1877 11.6107C12.1877 11.6107 12.0711 11.5715 11.9542 11.6068C11.9086 11.6209 11.8335 11.5767 11.8335 11.5767C11.8335 11.5767 11.8067 11.5924 11.8335 11.6547C11.8603 11.7169 11.8705 11.9228 11.8705 11.9228ZM19.1241 6.31764C19.4078 6.37904 19.6876 6.09384 20.1969 6.29264C20.1969 6.29264 20.0619 5.88992 19.5074 6.01296C18.9537 6.13648 18.9012 5.77184 18.9012 5.77184C18.9012 5.77184 18.6981 6.2254 19.1241 6.31764ZM16.6376 7.16456C16.6393 6.95948 16.7203 6.78448 16.9195 6.71552C16.9583 6.70212 17.002 6.66812 17.0027 6.5832C17.0039 6.43028 16.8233 6.44596 16.8233 6.44596C16.6021 6.44612 16.4218 6.8638 16.6376 7.16456ZM16.7038 6.35388C16.7442 6.32424 16.749 6.29792 16.7613 6.24344C16.7897 6.11732 16.7042 6.03836 16.6191 6.03836C16.4521 6.03836 16.2411 6.35844 16.3711 6.62432C16.4986 6.42012 16.6542 6.39024 16.7038 6.35388ZM6.34416 18.5737C6.44333 18.6 6.50111 18.6278 6.55073 18.671C6.55467 18.6708 6.5586 18.6707 6.56254 18.6705V18.4878C6.31312 18.4234 6.06366 18.3552 5.81424 18.2886V18.4713L5.82605 18.478C5.87563 18.461 5.93345 18.4637 6.03258 18.4904L6.10103 18.5088V19.0626C6.10103 19.1336 6.08687 19.1939 6.06094 19.2253V19.2392C6.14591 19.2621 6.23092 19.2849 6.31588 19.3075V19.2936C6.28991 19.2482 6.27579 19.1805 6.27575 19.1095V18.5556L6.34416 18.5737ZM22.4725 5.08904C22.379 4.99036 22.2787 4.89736 22.1722 4.812L21.9599 5.03012C21.893 4.974 21.8213 4.92012 21.746 4.86952L21.9018 4.61188C21.7571 4.51468 21.5281 4.38024 21.3744 4.30184L21.2185 4.55948C21.1376 4.51816 21.0554 4.48168 20.9735 4.45028L21.0673 4.16248C20.8958 4.09244 20.7177 4.03708 20.5369 4L20.4301 4.87224C20.8159 4.90308 21.474 5.24128 21.5679 5.29044C21.9547 5.27996 22.0973 5.26836 22.4725 5.08904ZM21.925 18.7813V18.7952C22.0061 18.7856 22.0871 18.7773 22.1682 18.7708V18.7568C22.1423 18.7205 22.128 18.6579 22.128 18.5868V18.1656C22.2079 18.2695 22.2878 18.375 22.3676 18.4823C22.3715 18.4822 22.3755 18.482 22.3794 18.4818C22.4593 18.3678 22.5392 18.2555 22.619 18.1452V18.5652C22.619 18.6362 22.6049 18.7001 22.5789 18.7387V18.7526C22.6639 18.7522 22.7489 18.7539 22.8338 18.758V18.7441C22.8079 18.7044 22.7937 18.64 22.7937 18.569V18.0592C22.7937 17.9882 22.8079 17.9248 22.8338 17.8876V17.8736C22.7642 17.8702 22.6946 17.8685 22.625 17.8682C22.5459 17.98 22.4668 18.0937 22.3877 18.2091C22.3087 18.1003 22.2296 17.9933 22.1505 17.8879C22.0753 17.8942 22.0002 17.9019 21.925 17.9109V17.9248C21.951 17.9601 21.9651 18.0226 21.9652 18.0935V18.6032C21.9652 18.6742 21.951 18.7398 21.925 18.7813ZM12.5059 20.3374C12.4625 20.3351 12.4191 20.3324 12.3757 20.3294V20.0874C12.4143 20.09 12.4529 20.0924 12.4915 20.0946C12.5811 20.0995 12.6312 20.1072 12.6754 20.1217C12.6798 20.1207 12.6842 20.1196 12.6886 20.1186V19.9417C12.6842 19.9404 12.6798 19.9391 12.6754 19.9378C12.6313 19.9489 12.5811 19.9528 12.4915 19.9479C12.4529 19.9458 12.4143 19.9434 12.3757 19.9408V19.7243C12.4191 19.7272 12.4625 19.7299 12.5059 19.7322C12.6061 19.7376 12.6767 19.7517 12.7268 19.7789C12.7308 19.7778 12.7348 19.7768 12.7387 19.7758V19.6024C12.5452 19.5967 12.3517 19.585 12.1587 19.5674V19.5813C12.185 19.6221 12.1993 19.6874 12.1993 19.7583V20.268C12.1993 20.339 12.185 20.4018 12.1587 20.4378V20.4518C12.3621 20.4703 12.5659 20.4823 12.7698 20.4876V20.3015L12.7567 20.2976C12.6909 20.3318 12.6097 20.343 12.5059 20.3374ZM18.4746 19.5717C18.4971 19.529 18.4959 19.456 18.4629 19.3946C18.3417 19.4172 18.2205 19.4373 18.0993 19.4544C18.0686 19.5273 18.0698 19.5993 18.0945 19.6343V19.6471C18.0076 19.6593 17.9206 19.6698 17.8337 19.6786V19.6646C17.8715 19.6236 17.9104 19.5506 17.9506 19.4562C18.054 19.2147 18.1575 18.9707 18.261 18.7246C18.2764 18.7222 18.2917 18.7196 18.307 18.7171C18.4184 18.9276 18.5297 19.1359 18.6411 19.3423C18.6848 19.423 18.7249 19.4831 18.7651 19.5117V19.5256C18.6682 19.5465 18.5715 19.5663 18.4747 19.5844L18.4746 19.5717ZM18.3967 19.2671L18.274 19.0286L18.1607 19.3058C18.2394 19.2941 18.3181 19.2812 18.3967 19.2671ZM17.2591 19.396V19.5206C17.2591 19.5915 17.2733 19.6556 17.2993 19.6939V19.7078C17.2143 19.7082 17.1293 19.7065 17.0443 19.7024V19.6885C17.0703 19.6513 17.0845 19.5879 17.0845 19.5169V19.0072C17.0845 18.9362 17.0703 18.8717 17.0443 18.832V18.818C17.1675 18.824 17.2906 18.825 17.4138 18.8216C17.638 18.8147 17.7608 18.8946 17.7608 19.0862C17.7608 19.2694 17.6357 19.3874 17.4126 19.3941C17.3614 19.3955 17.3103 19.3962 17.2591 19.396ZM17.2591 19.2529C17.313 19.2531 17.367 19.2524 17.4209 19.2508C17.5259 19.2476 17.5813 19.1971 17.5814 19.1088C17.5814 19.0132 17.5176 18.9619 17.4079 18.9649C17.3583 18.9662 17.3087 18.9668 17.2592 18.9666L17.2591 19.2529ZM18.9785 12.2759C18.9847 12.2594 19.0927 11.8318 18.9381 11.7174C18.7419 11.5697 18.6264 11.8626 18.7841 12.0265C19.0172 12.2213 18.9143 12.4478 18.9785 12.2759ZM25.8248 11.5474C25.7757 11.6732 25.6435 11.7227 25.5509 11.734C25.6374 11.9372 25.623 12.422 25.7444 12.5629C25.6694 12.5826 25.5762 12.5589 25.5065 12.5357C25.5825 12.9667 25.4219 13.1488 25.1758 13.3728C25.2146 12.9209 24.9448 12.685 24.9569 12.2706C24.8934 12.3216 24.835 12.4263 24.8189 12.5282C24.742 12.427 24.6683 12.2921 24.6523 12.1343C24.6265 11.8784 24.897 11.4305 24.695 11.4305C24.4929 11.4305 24.3277 11.764 24.3277 11.9854C24.3277 12.4649 24.8142 13.1289 24.8142 13.851C24.8142 14.3466 24.4942 14.9385 23.923 14.9385C23.3734 14.9385 23.013 14.5489 22.7282 13.9248C22.755 14.1116 22.6191 14.379 22.6034 14.5286C22.5868 14.688 22.8073 15.0242 22.9162 15.0828C23.0567 15.1584 23.187 15.125 23.187 15.125C23.0914 15.3145 23.1104 15.6324 23.2819 15.7993C23.3734 15.8883 23.4762 15.965 23.5265 16.2007C23.5768 16.436 23.415 16.637 23.415 16.637C23.4363 16.3655 23.281 16.1407 23.281 16.1407C23.2409 16.2906 23.3136 16.3464 23.3032 16.6216C23.2901 16.9637 23.119 17.1338 23.119 17.1338C23.1286 16.7029 22.9218 16.6698 22.9218 16.6698C23.0627 17.4675 22.557 17.6301 22.557 17.6301C22.5646 17.3206 22.5481 17.2022 22.5481 17.2022C22.5224 17.3184 22.2822 17.7436 22.0752 17.7132C22 17.7021 21.9074 17.6396 21.8484 17.5895C22.1032 17.4068 21.9899 17.1213 21.7469 17.1213C21.6734 17.1213 21.5824 17.1437 21.5126 17.1929C21.5581 17.0209 21.5356 16.7812 21.3588 16.7812C21.3076 16.7812 21.2342 16.8154 21.1958 16.8348C21.216 16.7416 21.2081 16.6062 21.152 16.5276C21.3602 16.3516 21.6654 16.6006 21.8219 16.6756C21.942 16.7332 22.1726 16.312 22.1356 15.9478C21.9721 15.7434 21.798 15.4032 21.7308 15.2666C21.5413 15.4483 21.3299 15.3929 21.3299 15.3929C21.4603 14.6982 21.2092 14.2913 21.1448 14.166C21.0805 14.0408 21.17 13.8026 21.2392 13.6384C21.4245 13.1986 21.5849 12.819 21.125 12.4674C21.125 12.4674 21.3272 12.7543 21.2854 13.0158C21.2434 13.2782 21.0757 13.5536 21.0757 13.5536C20.5502 13.6938 19.9824 13.657 19.9843 13.8382C19.9862 14.0194 20.0468 14.8351 20.0794 15.0031C20.1056 15.1378 20.0122 15.3721 19.8478 15.3906C19.698 15.4078 19.588 15.499 19.5111 15.698C19.4341 15.897 19.2803 15.959 19.2803 15.959C19.331 15.8564 19.2839 15.7443 19.2839 15.7443C19.1347 16.1643 18.4084 16.1302 18.4084 16.1302C18.5429 16.0149 18.5977 15.8469 18.5977 15.8469C18.1909 16.2279 17.764 15.9028 17.764 15.9028C17.934 15.8192 17.9754 15.6385 17.9754 15.6385C17.4237 15.9496 17.2514 15.4514 17.2514 15.4514C17.3988 15.426 17.4255 15.308 17.4255 15.308C17.2542 15.3602 17.1666 15.2752 17.1643 15.2443C17.1941 15.188 17.1696 15.0472 17.142 14.971C17.1227 14.9172 17.0886 14.886 17.0555 14.8688C16.8932 14.6644 17.0043 14.5222 17.0073 14.5179C17.0104 14.5136 17.0161 14.5114 17.023 14.5135C17.1566 14.5541 17.3277 14.326 17.308 14.2022C17.4452 14.1452 17.6107 14.2664 17.6107 14.2664C17.4771 14.0822 17.5292 13.9907 17.5431 13.9719C17.6575 14.0117 17.8835 13.8637 17.9058 13.7583C18.1964 13.7558 18.1201 14.2524 18.04 14.4344C17.9639 14.6056 18.0473 14.8108 18.0473 14.8108C18.5926 14.5356 19.0592 14.5742 19.0592 14.5742L18.9298 14.119C18.6739 14.3152 18.4907 14.265 18.483 14.265C18.7658 14.1488 18.8049 13.4014 19.1103 13.0754C19.3111 12.861 19.6733 12.7663 19.8514 12.7348C20.6793 12.5886 20.7215 12.1241 20.7215 12.1241C20.6772 11.9918 20.1415 11.5034 19.7187 11.2196C19.7758 11.1574 19.8698 10.919 19.8698 10.919C20.5036 10.9642 20.6455 10.4479 20.5529 10.2756C20.3914 10.9118 19.8105 10.7507 19.7588 10.7011C19.7588 10.7011 19.7827 10.7347 19.7077 10.9304C19.6322 11.1256 19.3332 11.4856 19.3332 11.4856C19.0573 11.2196 19.148 10.7732 19.148 10.7732C19.0403 10.8704 18.3899 11.4226 18.3899 11.4226C18.4323 11.4221 18.7225 11.4553 18.7225 11.4553C18.8884 11.4864 18.9048 11.563 18.8982 11.6091C18.7101 11.5488 18.5693 11.7685 18.6576 11.9728C18.6025 12.0157 18.545 11.983 18.4548 11.9089C18.3446 11.8182 18.1563 11.8551 18.1108 11.8685C18.0956 11.873 17.9777 11.9146 17.9777 11.9146C17.9033 12.0109 17.9948 12.0222 17.991 12.2083C17.991 12.2083 18.0513 12.2687 18.0615 12.3404C18.0755 12.4356 17.9763 12.5426 17.9763 12.5426C17.8195 12.287 17.4826 12.4286 17.594 12.7474C17.5937 12.7591 17.5943 12.763 17.5943 12.763C17.5363 12.6887 17.4695 12.6688 17.438 12.6598C17.2414 12.6038 17.1042 12.7499 17.1215 12.8962C17.0315 12.8407 16.997 12.7659 16.997 12.7659C16.8948 12.5674 17.0365 12.412 17.0877 12.3556C17.2091 12.2221 17.1797 12.2322 17.2946 11.892C17.3509 11.7252 17.6267 11.4675 17.6921 11.3994C17.757 11.3326 18.1172 11.0752 18.3185 10.6729C18.5203 10.2697 18.9145 9.88144 18.9145 9.88144C18.418 9.8424 18.2024 10.138 18.2024 10.138C17.9546 9.47772 18.331 9.01008 18.331 9.01008C17.9851 9.10908 17.9347 9.3988 17.9347 9.3988C17.9347 9.3988 17.7591 8.51912 18.7287 7.91296C18.7138 7.89588 18.6981 7.87792 18.6816 7.8588C18.6029 7.87708 18.5092 7.90532 18.4174 7.94912C18.4566 7.85536 18.5018 7.7756 18.5519 7.7074C18.3627 7.48496 18.1477 7.2266 18.0917 7.1592C18.0916 7.21608 18.0823 7.41588 18.0798 7.46756C18.0772 7.51924 18.0514 7.60128 17.999 7.61728C17.9841 7.44788 17.8572 7.33724 17.6014 7.4012C17.5948 7.37604 17.5944 7.32356 17.6567 7.24252C17.7755 7.08816 17.6771 6.86068 17.668 6.8378C17.6572 6.81008 17.6157 6.7856 17.589 6.77936C17.3992 6.7352 17.2824 6.94588 17.1308 6.90476C17.0614 6.88592 17.0177 6.84144 16.9947 6.81268C17.2369 6.60136 17.0372 6.32672 16.8277 6.35132C16.8277 6.35132 16.8344 6.31592 16.8409 6.29044C16.8882 6.1062 16.7587 5.96408 16.6115 5.95292C16.6496 5.9062 16.6523 5.90716 16.6887 5.88476C16.8448 5.7888 16.9924 5.88412 17.1288 5.98072C17.2047 6.03456 17.2118 6.03912 17.4402 6.09176C18.05 6.23236 18.1762 6.75208 18.8316 7.0232C19.0621 7.11856 19.2738 7.31432 19.2738 7.31432C19.728 7.24184 20.2191 7.30064 20.4861 6.93624C20.4861 6.93624 20.6255 6.99368 20.7521 7.02304C21.0859 7.10044 21.3274 6.95456 21.381 6.78252C21.4693 6.49876 21.3262 6.35616 21.3262 6.35616C21.346 6.38852 21.3904 6.55804 21.2848 6.71348C21.1128 6.96648 20.7938 6.92096 20.4935 6.79252C20.4686 6.80344 20.3994 6.81864 20.3359 6.84156C20.1492 6.90892 19.9447 6.867 19.8878 6.83792C19.59 6.68568 19.6464 6.36296 19.6464 6.36296C19.7492 6.45876 19.8346 6.47744 19.8569 6.48512C20.0507 6.55176 20.5123 6.32372 20.7501 6.407C20.7335 6.36632 20.6558 6.25872 20.5465 6.17452C20.3145 5.99584 20.1686 6.13548 19.9035 5.75452C19.7315 5.54544 19.3867 5.68784 19.3614 5.85896C19.3614 5.85896 19.2481 5.6038 19.3964 5.36224C19.5982 5.0344 20.0379 5.15444 20.0379 5.15444C20.1031 4.9564 20.3503 4.95352 20.3771 4.95444C20.7538 4.96772 21.3586 5.27592 21.5475 5.37576C21.9903 5.36456 22.0977 5.3498 22.4759 5.18156C22.7803 5.04624 22.9315 4.85424 22.9862 4.77084C23.155 5.57484 22.4424 5.73432 22.4424 5.73432C22.7087 5.73572 22.8044 5.65896 22.8044 5.65896C22.8105 5.65896 22.8017 5.79236 22.7338 5.874C22.5094 6.14368 22.0131 6.02392 21.9054 5.99356C21.9349 6.00744 21.9954 6.0526 22.0863 6.19996C22.2213 6.41748 22.2821 6.85564 22.2821 6.85564C22.1849 6.92964 22.0458 6.9006 22.0458 6.9006C22.0933 7.02984 22.114 7.0612 22.1393 7.2702C22.1933 7.71652 22.026 7.98216 22.026 7.98216C21.8832 7.88272 21.8159 7.69476 21.8159 7.69476C21.8159 7.69476 20.5723 9.62488 21.6537 9.6134C22.2915 9.60664 22.6885 8.94668 22.5193 8.62652C22.1917 8.00556 22.436 7.65716 22.8596 6.99328C23.8208 5.48692 23.761 4.34656 23.761 4.34656C24.2354 4.59264 24.1479 5.53756 24.1479 5.53756C24.4122 5.15648 24.7334 4.60132 24.7149 4.0596C25.4523 4.95804 24.8356 6.31856 24.8356 6.31856C25.4177 5.85996 25.456 5.37136 25.456 5.37136C25.9244 6.21048 24.9599 7.25432 24.9599 7.25432C25.5467 7.1908 25.7204 6.97464 25.7204 6.97464C25.7581 7.98084 24.62 8.20472 24.62 8.20472C25.1833 8.2978 25.6858 8.15976 25.6858 8.15976C25.2633 9.28508 24.2455 9.37164 24.2455 9.37164C24.6978 9.63452 25.2013 9.67948 25.2013 9.67948C24.8556 10.4586 23.7923 10.1313 23.7923 10.1313C23.976 10.2362 24.2654 10.5552 24.3216 10.6353C24.1748 10.8041 23.7793 10.9324 23.4593 10.8374C23.5749 11.3064 23.4363 11.5434 23.4363 11.5434C23.0549 11.617 22.768 11.4313 22.768 11.4313C22.7662 11.7546 22.64 11.9035 22.64 11.9035C22.2374 11.8649 21.9771 11.5226 21.9771 11.5226C21.9329 11.7509 21.7883 11.9671 21.7883 11.9671C21.3162 11.8177 21.2826 11.2928 21.2826 11.2928C21.1416 11.9585 21.8026 12.1437 21.8026 12.1437C21.9933 12.0039 22.0412 11.7859 22.0412 11.7859C22.2918 12.0048 22.5334 12.0079 22.592 12.0166C22.8327 12.3831 22.9723 12.9206 23.0795 13.3216C23.3259 14.1694 23.6276 14.4796 23.943 14.4796C24.1793 14.4796 24.3848 14.2696 24.3848 13.7685C24.3848 13.1285 23.92 12.6426 23.92 12.0486C23.92 11.4547 24.2474 11.0485 24.8864 11.0485C25.4602 11.0485 25.4053 11.4624 25.8248 11.5474ZM20.9081 5.56452C20.812 5.49964 20.7814 5.47176 20.7109 5.45872C20.7701 5.52364 20.7224 5.6258 20.6359 5.6258C20.5568 5.6258 20.5064 5.5394 20.5503 5.47076C20.4436 5.50292 20.4394 5.5468 20.3056 5.51732L20.3088 5.52272C20.3088 5.52272 20.599 5.97724 20.9081 5.56452ZM7.09611 11.7174C6.94156 11.8318 7.04953 12.2594 7.0557 12.2759C7.11993 12.4477 7.01695 12.2213 7.25014 12.0265C7.40781 11.8626 7.29234 11.5697 7.09611 11.7174ZM22.9851 17.368C23.2087 17.3818 23.3657 17.4098 23.5893 17.4609V19.379C21.1767 18.8282 18.7641 20.6688 16.3515 20.118V19.8792C16.1992 19.8873 16.0502 19.9293 15.8901 20.0193V20.5598C14.0228 21.1579 12.0113 21.1579 10.144 20.5598V20.0193C9.98401 19.9293 9.83506 19.8875 9.68269 19.8794V20.118C7.2701 20.6688 4.85747 18.8282 2.44491 19.379V17.4609C2.66844 17.4098 2.82551 17.3818 3.04905 17.368C3.07108 17.4104 3.10536 17.468 3.15239 17.5253C2.94903 17.5332 2.81216 17.552 2.6088 17.5895V19.1827C4.91212 18.758 7.21549 20.4142 9.51881 19.9894V18.3962C8.10251 18.6574 6.69624 18.1343 5.27994 17.7895C5.28335 17.7562 5.28225 17.6714 5.27779 17.6264C6.58603 17.9454 7.8942 18.4171 9.20244 18.2791V18.1284C9.20244 17.9585 9.41445 17.8258 9.95609 17.9742C10.3591 18.0847 10.7292 18.2966 10.7292 18.6056V18.8081C12.2306 19.1839 13.8036 19.1839 15.305 18.8082V18.6056C15.305 18.2966 15.675 18.0847 16.078 17.9742C16.6197 17.8258 16.8317 17.9585 16.8317 18.1284V18.2791C18.1399 18.4171 19.4481 17.9454 20.7563 17.6264C20.7522 17.67 20.7508 17.7558 20.7542 17.7895C19.3379 18.1343 17.9316 18.6574 16.5153 18.3962V19.9894C18.8186 20.4142 21.122 18.758 23.4253 19.1827V17.5895C23.222 17.552 23.0851 17.5332 22.8817 17.5253C22.9288 17.468 22.9631 17.4104 22.9851 17.368ZM15.73 18.853C13.9617 19.3849 12.0725 19.3849 10.3042 18.853V20.448C12.0725 20.9798 13.9617 20.9798 15.73 20.448V18.853ZM2.11118 14.9385C1.53999 14.9385 1.22001 14.3466 1.22001 13.851C1.22001 13.1288 1.70647 12.4649 1.70647 11.9853C1.70647 11.764 1.54129 11.4305 1.33926 11.4305C1.13724 11.4305 1.40772 11.8784 1.38191 12.1343C1.366 12.292 1.29228 12.427 1.21539 12.5282C1.1992 12.4262 1.14089 12.3216 1.07735 12.2706C1.08944 12.6849 0.81961 12.9209 0.858482 13.3728C0.612309 13.1488 0.45171 12.9667 0.527789 12.5356C0.45808 12.5589 0.364918 12.5825 0.289894 12.5628C0.411296 12.422 0.396811 11.9371 0.483318 11.734C0.390806 11.7227 0.25861 11.6732 0.209473 11.5474C0.628985 11.4624 0.574208 11.0484 1.14799 11.0484C1.78702 11.0484 2.11438 11.4546 2.11438 12.0486C2.11438 12.6425 1.64963 13.1284 1.64963 13.7684C1.64963 14.2695 1.8551 14.4796 2.09138 14.4796C2.40681 14.4796 2.70849 14.1694 2.95491 13.3216C3.06207 12.9206 3.20165 12.383 3.44235 12.0166C3.50094 12.0078 3.74257 12.0048 3.99316 11.7858C3.99316 11.7858 4.04108 12.0038 4.23175 12.1436C4.23175 12.1436 4.89273 11.9584 4.75181 11.2927C4.75181 11.2927 4.71821 11.8176 4.24603 11.967C4.24603 11.967 4.10146 11.7509 4.05723 11.5225C4.05723 11.5225 3.79698 11.8648 3.39443 11.9034C3.39443 11.9034 3.26819 11.7545 3.26637 11.4312C3.26637 11.4312 2.97946 11.6169 2.59805 11.5434C2.59805 11.5434 2.4594 11.3063 2.575 10.8373C2.25502 10.9324 1.85953 10.804 1.71276 10.6352C1.76892 10.5552 2.05831 10.2361 2.24203 10.1312C2.24203 10.1312 1.17871 10.4585 0.833041 9.6794C0.833041 9.6794 1.33646 9.63448 1.78876 9.37156C1.78876 9.37156 0.771082 9.28504 0.348485 8.15968C0.348485 8.15968 0.850975 8.29768 1.41429 8.20464C1.41429 8.20464 0.27622 7.98076 0.313915 6.97456C0.313915 6.97456 0.487579 7.19072 1.07439 7.25424C1.07439 7.25424 0.1099 6.21036 0.578347 5.37128C0.578347 5.37128 0.616569 5.85984 1.19871 6.31848C1.19871 6.31848 0.581999 4.95796 1.31942 4.05952C1.30088 4.60124 1.62212 5.1564 1.88643 5.53748C1.88643 5.53748 1.79899 4.59252 2.27332 4.34648C2.27332 4.34648 2.21355 5.48688 3.17471 6.9932C3.59832 7.65712 3.84263 8.00552 3.51506 8.62644C3.34582 8.9466 3.74285 9.60656 4.38062 9.61332C5.462 9.6248 4.2184 7.69468 4.2184 7.69468C4.2184 7.69468 4.15116 7.88264 4.00838 7.98208C4.00838 7.98208 3.841 7.71644 3.89505 7.27012C3.92037 7.06116 3.94106 7.02976 3.98854 6.90052C3.98854 6.90052 3.84944 6.92956 3.75226 6.85556C3.75226 6.85556 3.81305 6.4174 3.948 6.19988C4.03901 6.05252 4.09947 6.00736 4.12893 5.99348C4.02124 6.02388 3.52496 6.1436 3.30053 5.87392C3.23257 5.79228 3.22376 5.65888 3.22989 5.65888C3.22989 5.65888 3.32561 5.7356 3.59191 5.73424C3.59191 5.73424 2.87932 5.57476 3.04815 4.77076C3.10281 4.85416 3.25407 5.04616 3.55843 5.18148C3.93668 5.34972 4.04404 5.36444 4.48685 5.37568C4.67573 5.2758 5.28051 4.9676 5.65725 4.95436C5.68399 4.9534 5.93126 4.95632 5.99643 5.15436C5.99643 5.15436 6.43619 5.03436 6.63793 5.36216C6.78627 5.60372 6.67295 5.85888 6.67295 5.85888C6.64759 5.68776 6.30281 5.54536 6.13081 5.75444C5.86569 6.1354 5.71982 5.99576 5.48785 6.17444C5.37854 6.25864 5.30084 6.36624 5.28428 6.40692C5.52202 6.3236 5.98357 6.55164 6.1774 6.48504C6.19971 6.47736 6.28516 6.45868 6.3879 6.36288C6.3879 6.36288 6.44438 6.6856 6.14656 6.83784C6.08967 6.86692 5.88513 6.90888 5.6984 6.84148C5.63486 6.81856 5.56576 6.80336 5.54088 6.79244C5.24058 6.92092 4.92154 6.9664 4.74958 6.7134C4.64392 6.55796 4.68835 6.38844 4.70815 6.35608C4.70815 6.35608 4.565 6.49864 4.65333 6.78244C4.70689 6.95452 4.94844 7.1004 5.28221 7.02296C5.40881 6.9936 5.54827 6.93616 5.54827 6.93616C5.81526 7.30056 6.30634 7.24176 6.76055 7.31424C6.76055 7.31424 6.97215 7.11848 7.20275 7.02312C7.85821 6.752 7.98436 6.23232 8.59417 6.09168C8.82253 6.03904 8.82963 6.03448 8.90559 5.98064C9.04188 5.88404 9.18946 5.78872 9.34563 5.88468C9.38207 5.90708 9.38471 5.90612 9.42281 5.95284C9.27564 5.964 9.14616 6.10612 9.19343 6.29036C9.19997 6.31584 9.20666 6.35124 9.20666 6.35124C8.99717 6.3266 8.79749 6.60128 9.03961 6.8126C9.01668 6.84136 8.97298 6.88584 8.90352 6.90468C8.75193 6.94576 8.63515 6.73508 8.44538 6.77928C8.4186 6.78552 8.37721 6.81 8.3663 6.83772C8.35729 6.8606 8.25881 7.08808 8.37762 7.24244C8.43998 7.32348 8.43949 7.37596 8.43292 7.40112C8.17717 7.33716 8.05021 7.4478 8.03536 7.6172C7.98298 7.60124 7.95713 7.5192 7.95457 7.46748C7.95202 7.41576 7.94273 7.216 7.94264 7.15912C7.88665 7.22648 7.67164 7.48488 7.48247 7.70732C7.5325 7.77552 7.57775 7.85528 7.61698 7.94904C7.52516 7.90524 7.43151 7.877 7.35275 7.85872C7.33624 7.87784 7.32058 7.89584 7.30564 7.91288C8.2752 8.51904 8.09967 9.39872 8.09967 9.39872C8.09967 9.39872 8.04928 9.109 7.70337 9.01C7.70337 9.01 8.07971 9.47768 7.83191 10.1379C7.83191 10.1379 7.61633 9.84232 7.11985 9.88136C7.11985 9.88136 7.51412 10.2696 7.71583 10.6728C7.91708 11.0751 8.27731 11.3325 8.34223 11.3993C8.40764 11.4674 8.6834 11.7251 8.73975 11.892C8.85458 12.2321 8.82521 12.222 8.94657 12.3556C8.99786 12.412 9.13955 12.5674 9.03734 12.7658C9.03734 12.7658 9.00285 12.8406 8.91281 12.8961C8.9301 12.7498 8.79295 12.6038 8.59632 12.6597C8.56479 12.6687 8.49809 12.6886 8.44002 12.763C8.44002 12.763 8.44059 12.759 8.44035 12.7474C8.55173 12.4285 8.21483 12.287 8.05808 12.5425C8.05808 12.5425 7.95883 12.4356 7.97287 12.3404C7.98306 12.2686 8.04339 12.2082 8.04339 12.2082C8.03962 12.0221 8.13108 12.0108 8.0567 11.9145C8.0567 11.9145 7.93879 11.8729 7.92361 11.8684C7.87805 11.855 7.68978 11.8181 7.57953 11.9088C7.48937 11.983 7.43188 12.0156 7.37681 11.9727C7.46507 11.7684 7.32431 11.5487 7.1362 11.609C7.12963 11.5629 7.14598 11.4863 7.31189 11.4552C7.31189 11.4552 7.60209 11.422 7.64449 11.4225C7.64449 11.4225 6.9941 10.8703 6.88634 10.7732C6.88634 10.7732 6.9771 11.2195 6.70115 11.4856C6.70115 11.4856 6.40223 11.1255 6.32671 10.9303C6.25165 10.7346 6.27559 10.701 6.27559 10.701C6.2239 10.7506 5.64297 10.9117 5.48152 10.2756C5.38893 10.4478 5.53074 10.9642 6.16453 10.919C6.16453 10.919 6.25855 11.1574 6.31564 11.2195C5.89288 11.5033 5.35716 11.9917 5.31293 12.124C5.31293 12.124 5.35513 12.5886 6.183 12.7348C6.36108 12.7662 6.7233 12.861 6.92407 13.0753C7.22944 13.4013 7.2686 14.1487 7.55141 14.2649C7.5437 14.2649 7.3605 14.3152 7.10459 14.119L6.97524 14.5741C6.97524 14.5741 7.44178 14.5356 7.98712 14.8107C7.98712 14.8107 8.0705 14.6055 7.99446 14.4343C7.91436 14.2523 7.83804 13.7557 8.12864 13.7582C8.15088 13.8636 8.37697 14.0116 8.49131 13.9718C8.50523 13.9906 8.55729 14.0821 8.42375 14.2663C8.42375 14.2663 8.58918 14.1451 8.72641 14.2022C8.70664 14.3259 8.87779 14.554 9.01141 14.5134C9.01835 14.5113 9.02407 14.5135 9.02711 14.5178C9.03016 14.5222 9.14125 14.6643 8.97895 14.8687C8.94584 14.886 8.91167 14.9171 8.8924 14.9709C8.86481 15.0471 8.8403 15.1879 8.87012 15.2442C8.86785 15.2751 8.78025 15.3601 8.6089 15.3079C8.6089 15.3079 8.6356 15.4259 8.78305 15.4514C8.78305 15.4514 8.61072 15.9495 8.05902 15.6384C8.05902 15.6384 8.10044 15.8191 8.27037 15.9027C8.27037 15.9027 7.84344 16.2278 7.43675 15.8468C7.43675 15.8468 7.49156 16.0148 7.62599 16.1302C7.62599 16.1302 6.89964 16.1642 6.75045 15.7442C6.75045 15.7442 6.70342 15.8563 6.7541 15.959C6.7541 15.959 6.60024 15.8969 6.5233 15.6979C6.44637 15.4989 6.33633 15.4078 6.18661 15.3905C6.02215 15.372 5.92879 15.1377 5.95492 15.003C5.9875 14.835 6.04816 14.0193 6.05003 13.8381C6.0519 13.6569 5.48416 13.6937 4.95866 13.5535C4.95866 13.5535 4.79096 13.2781 4.74897 13.0157C4.70713 12.7542 4.90932 12.4674 4.90932 12.4674C4.44944 12.8189 4.60979 13.1985 4.79514 13.6383C4.86432 13.8025 4.95387 14.0407 4.88952 14.1659C4.82521 14.2912 4.57409 14.6982 4.70445 15.3928C4.70445 15.3928 4.49305 15.4482 4.30353 15.2666C4.23633 15.4032 4.06226 15.7433 3.89874 15.9477C3.86178 16.3119 4.09233 16.7332 4.21243 16.6756C4.36893 16.6005 4.67406 16.3515 4.8823 16.5276C4.82626 16.6062 4.81831 16.7416 4.83856 16.8348C4.80009 16.8153 4.72673 16.7811 4.67556 16.7811C4.49865 16.7811 4.47622 17.0208 4.5217 17.1928C4.45191 17.1436 4.36094 17.1212 4.28742 17.1212C4.04453 17.1212 3.9312 17.4067 4.18602 17.5894C4.12702 17.6396 4.03443 17.702 3.95916 17.7131C3.75222 17.7435 3.51197 17.3182 3.48625 17.2021C3.48625 17.2021 3.46978 17.3204 3.4774 17.63C3.4774 17.63 2.97167 17.4674 3.11259 16.6697C3.11259 16.6697 2.90577 16.7028 2.91543 17.1337C2.91543 17.1337 2.74428 16.9636 2.73122 16.6215C2.72071 16.3463 2.79342 16.2905 2.75329 16.1406C2.75329 16.1406 2.59809 16.3654 2.61931 16.637C2.61931 16.637 2.45753 16.4359 2.50781 16.2006C2.55816 15.9649 2.66098 15.8882 2.7524 15.7992C2.92391 15.6323 2.9429 15.3144 2.84734 15.125C2.84734 15.125 2.97763 15.1583 3.11815 15.0827C3.22701 15.0242 3.44758 14.6879 3.43098 14.5285C3.41524 14.379 3.27935 14.1115 3.30617 13.9247C3.02129 14.5488 2.66086 14.9385 2.11118 14.9385ZM5.12612 5.56452C5.43518 5.97728 5.72538 5.52272 5.72538 5.52272L5.72859 5.51732C5.59481 5.5468 5.59063 5.50292 5.48387 5.47076C5.52778 5.5394 5.47734 5.6258 5.39834 5.6258C5.31179 5.6258 5.26412 5.52364 5.32328 5.45872C5.2528 5.47172 5.22228 5.4996 5.12612 5.56452ZM5.40126 18.3099C5.48034 18.3322 5.5535 18.3826 5.61254 18.4564L5.62552 18.454V18.2724C5.57363 18.2239 5.51341 18.1918 5.43551 18.1696C5.13691 18.0847 4.90198 18.2605 4.90198 18.5573C4.90198 18.8124 5.03888 18.989 5.2915 19.0585C5.4166 19.0929 5.54766 19.0886 5.62552 19.0439V18.8775L5.61372 18.8732C5.53699 18.9263 5.42135 18.9442 5.32336 18.9174C5.17582 18.876 5.08258 18.7462 5.08258 18.5786C5.08258 18.3668 5.21242 18.2561 5.40126 18.3099ZM6.52687 6.01296C5.97237 5.88992 5.83737 6.29264 5.83737 6.29264C6.34668 6.09384 6.62649 6.37904 6.91007 6.31764C7.33608 6.2254 7.133 5.77184 7.133 5.77184C7.133 5.77184 7.08053 6.13648 6.52687 6.01296ZM13.0851 20.1858C13.0851 20.3902 13.2274 20.5145 13.4615 20.5037C13.6908 20.4928 13.8409 20.3417 13.8409 20.1337V19.7578C13.8409 19.6868 13.8551 19.6216 13.8814 19.5808V19.5669C13.7996 19.5744 13.7177 19.5809 13.6357 19.5862V19.6002C13.662 19.6369 13.6763 19.6998 13.6763 19.7708V20.1513C13.6763 20.2733 13.6084 20.3371 13.4698 20.3439C13.3337 20.3504 13.2619 20.2874 13.2619 20.1642V19.7907C13.2619 19.7197 13.2762 19.6554 13.3026 19.6162V19.6022C13.2166 19.6048 13.1305 19.6063 13.0444 19.6065V19.6205C13.0708 19.6588 13.085 19.7227 13.0851 19.7936V20.1858ZM5.6041 4.87224L5.4973 4C5.31646 4.03708 5.13841 4.09244 4.96694 4.16248L5.06071 4.45028C4.97875 4.48172 4.89666 4.5182 4.81567 4.55948L4.65982 4.30184C4.50616 4.38024 4.27715 4.51468 4.13238 4.61188L4.28823 4.86952C4.21284 4.92012 4.14126 4.974 4.07427 5.03012L3.86202 4.812C3.75551 4.89736 3.65525 4.99036 3.56172 5.08904C3.93688 5.2684 4.07951 5.28 4.46632 5.29044C4.56021 5.24128 5.21835 4.90304 5.6041 4.87224ZM11.3948 19.8022C11.3157 19.6763 11.2367 19.5494 11.1578 19.4214C11.0774 19.4052 10.9971 19.388 10.917 19.3697V19.3836C10.9428 19.428 10.9569 19.4951 10.9569 19.566V20.0758C10.9569 20.1468 10.9428 20.2076 10.917 20.2401V20.2541C10.9975 20.2724 11.0782 20.2898 11.159 20.306V20.2921C11.1331 20.2485 11.119 20.1815 11.119 20.1106V19.6893C11.1986 19.8166 11.2783 19.9428 11.3582 20.0681L11.37 20.0702C11.4499 19.9738 11.5299 19.8764 11.6101 19.7779V20.198C11.6101 20.269 11.5959 20.3308 11.5699 20.3652V20.3792C11.6551 20.3924 11.7405 20.4045 11.826 20.4154V20.4014C11.7999 20.3597 11.7857 20.2938 11.7857 20.2228V19.7131C11.7857 19.6421 11.7999 19.5801 11.826 19.545V19.531C11.7615 19.5228 11.697 19.5139 11.6326 19.5044C11.5532 19.6046 11.474 19.704 11.3948 19.8022ZM14.4525 20.367C14.4265 20.3326 14.4122 20.2708 14.4122 20.1998V19.7786C14.4924 19.8775 14.5725 19.9754 14.6524 20.0722L14.6642 20.0701C14.7441 19.9454 14.8239 19.8196 14.9035 19.6928V20.1129C14.9035 20.1839 14.8894 20.2508 14.8635 20.2944V20.3084C14.9482 20.2914 15.0328 20.2733 15.1172 20.254V20.2401C15.0914 20.2076 15.0773 20.1467 15.0773 20.0757V19.566C15.0773 19.495 15.0914 19.4279 15.1172 19.3836V19.3696C15.0445 19.3862 14.9717 19.402 14.8987 19.4168C14.8199 19.545 14.7409 19.6722 14.6618 19.7982C14.5827 19.7002 14.5034 19.6011 14.424 19.501C14.3522 19.5118 14.2802 19.5218 14.2081 19.531V19.5449C14.2343 19.58 14.2485 19.6421 14.2485 19.7131V20.2228C14.2485 20.2938 14.2343 20.3596 14.2081 20.4014V20.4153C14.2897 20.405 14.3712 20.3935 14.4525 20.381L14.4525 20.367ZM3.24048 18.5684V18.0588C3.24048 17.9878 3.22628 17.9241 3.20035 17.8866V17.8726C3.33332 17.868 3.46633 17.869 3.59929 17.875C3.86961 17.8879 4.03005 18.0579 4.03009 18.3048C4.03009 18.5967 3.82473 18.7664 3.52374 18.7565C3.41593 18.7532 3.30816 18.7532 3.20035 18.7569V18.743C3.22628 18.7037 3.24048 18.6394 3.24048 18.5684ZM3.41512 18.6112C3.45606 18.6116 3.49696 18.6125 3.5379 18.6138C3.72674 18.6204 3.8507 18.5043 3.8507 18.3096C3.8507 18.1422 3.74918 18.0247 3.58984 18.0176C3.53161 18.0152 3.47339 18.0136 3.41512 18.013V18.6112ZM9.27292 6.2434C9.28521 6.29792 9.29004 6.3242 9.33042 6.35384C9.38 6.3902 9.53557 6.42008 9.66314 6.62428C9.7931 6.35836 9.58211 6.03832 9.4151 6.03832C9.33005 6.03832 9.24448 6.11728 9.27292 6.2434ZM5.16057 17.7384C5.16057 17.7384 5.1908 17.0106 4.70462 16.8636C4.51923 16.8081 4.56386 17.2732 4.68526 17.3077C4.8164 17.3454 5.04988 17.5952 5.16057 17.7384ZM4.39612 17.217C4.05687 17.115 4.01974 17.4947 4.35437 17.5833C4.49679 17.6169 4.59669 17.6342 4.68076 17.6999C4.66595 17.5164 4.57482 17.2709 4.39612 17.217ZM5.03328 16.5478C4.88952 16.4815 4.87069 16.864 4.96511 16.9059C5.01437 16.928 5.19603 17.0851 5.33431 17.3295C5.33431 17.3295 5.41027 16.723 5.03328 16.5478ZM4.59409 18.012V17.9981C4.50912 17.9819 4.42412 17.9669 4.33915 17.9533V17.9672C4.36512 18.0098 4.37932 18.0762 4.37924 18.1472V18.6569C4.37924 18.7279 4.36508 18.7895 4.33915 18.8238V18.8377C4.42412 18.8513 4.50912 18.8663 4.59409 18.8825V18.8686C4.56812 18.8252 4.55392 18.7586 4.55392 18.6876V18.1779C4.55392 18.107 4.56808 18.0456 4.59409 18.012ZM17.2748 12.7439C17.0216 12.9118 17.4512 13.2725 17.7761 13.143C17.5777 13.0043 17.5577 12.8491 17.5239 12.7982C17.4801 12.731 17.3348 12.7042 17.2748 12.7439ZM16.5094 15.2649C16.6449 15.2106 16.9109 15.166 17.0579 15.2145C17.085 15.2231 17.0966 15.2131 17.0966 15.2013C17.1034 15.1108 17.0811 14.9338 16.9893 14.9284C16.7751 14.9159 16.5911 15.0865 16.5094 15.2649ZM16.8751 14.0446C16.6466 14.0446 16.5024 14.2165 16.5024 14.2165C16.6552 14.1949 16.8607 14.2576 17.0238 14.4263C17.0816 14.486 17.2024 14.3398 17.2279 14.2501C17.2486 14.1774 17.1689 14.1379 17.1689 14.1379C17.0609 14.0694 16.962 14.0446 16.8751 14.0446ZM17.4476 13.478C17.28 13.478 17.1565 13.5817 17.1565 13.5817C17.1565 13.5817 17.4398 13.6496 17.5577 13.8891C17.5653 13.9046 17.591 13.9021 17.607 13.8977C17.7218 13.8663 17.7733 13.8214 17.8157 13.7692C17.858 13.717 17.7945 13.6507 17.7945 13.6507C17.6746 13.5186 17.5524 13.478 17.4476 13.478ZM9.83518 6.40592H16.1991C16.1675 6.60228 16.3568 6.89768 16.3568 6.89768L16.4089 6.81432C16.3877 7.12484 16.6874 7.39236 16.7612 7.42856C16.7612 7.42856 16.6991 7.12256 16.8201 6.95432C16.8364 6.92616 16.8568 6.90256 16.8814 6.88324L16.8899 6.89388C16.9444 6.9622 17.0154 7.0098 17.0954 7.03148C17.12 7.03816 17.1454 7.04152 17.1708 7.04152C17.2642 7.04152 17.3384 6.99792 17.404 6.95948C17.4521 6.93128 17.4975 6.90464 17.5363 6.90464C17.5414 6.90464 17.5465 6.90508 17.5517 6.90592C17.5722 6.96216 17.608 7.08836 17.5505 7.1632C17.4585 7.28268 17.4572 7.37648 17.4723 7.43408L17.4729 7.43648C17.4183 7.48016 17.3713 7.53188 17.3268 7.58076C17.3125 7.59656 17.1598 7.80192 17.1598 7.80192C17.1598 7.80192 17.4474 7.866 17.562 7.86296C17.5928 7.86216 17.6215 7.86168 17.6482 7.85932C17.6482 7.85932 17.6482 11.2555 17.6483 11.2609C17.6258 11.2802 17.6086 11.2954 17.5958 11.3085C17.5958 11.3085 17.5744 11.3303 17.5595 11.3452C17.3865 11.5178 17.2194 11.6986 17.1681 11.8506C17.1391 11.9363 17.1196 11.9989 17.1039 12.0493C17.0748 12.1425 17.0362 12.2155 16.9882 12.2683C16.9591 12.3002 16.8987 12.3667 16.861 12.4587C16.8114 12.5798 16.817 12.7062 16.8774 12.8242C16.8883 12.8462 16.9389 12.9387 17.0508 13.0076L17.1282 13.0553C17.2094 13.1719 17.3589 13.2628 17.5199 13.2919C17.5166 13.3113 17.5133 13.3308 17.5099 13.3504C17.4877 13.3477 17.4667 13.3463 17.4474 13.3466C17.1853 13.3512 16.9294 13.6316 16.9294 13.6316C16.9294 13.6316 17.2311 13.6665 17.3996 13.8858C17.3859 13.9425 17.3716 13.9996 17.3564 14.057C17.3353 14.0589 17.313 14.0778 17.2949 14.068C17.2311 14.0334 17.143 13.922 16.8392 13.922C16.5484 13.922 16.2487 14.3334 16.2487 14.3334C16.2487 14.3334 16.6114 14.2314 16.8794 14.4723C16.8794 14.4723 16.8467 14.5517 16.8384 14.6181C16.83 14.6844 16.8657 14.8064 16.8657 14.8064C16.8035 14.8304 16.4354 14.8902 16.2992 15.4718C16.2992 15.4718 16.6261 15.2796 16.894 15.3251C16.2628 16.634 15.1116 17.8618 13.0169 18.3277C10.9222 17.8618 9.77095 16.634 9.13979 15.3251C9.40767 15.2797 9.73459 15.4718 9.73459 15.4718C9.59842 14.8902 9.23036 14.8304 9.16811 14.8064C9.16811 14.8064 9.20382 14.6844 9.19546 14.6181C9.18714 14.5517 9.15444 14.4723 9.15444 14.4723C9.42244 14.2314 9.78515 14.3334 9.78515 14.3334C9.78515 14.3334 9.48538 13.922 9.19457 13.922C8.89086 13.922 8.80273 14.0334 8.73894 14.068C8.72085 14.0778 8.69849 14.0588 8.67739 14.057C8.66226 13.9996 8.64789 13.9425 8.63426 13.8858C8.80269 13.6665 9.10441 13.6316 9.10441 13.6316C9.10441 13.6316 8.84854 13.3512 8.58642 13.3466C8.56711 13.3463 8.54613 13.3477 8.52389 13.3504C8.52048 13.3308 8.5172 13.3114 8.51395 13.2919C8.67491 13.2628 8.82444 13.1719 8.90567 13.0553L8.98305 13.0076C9.09496 12.9387 9.14555 12.8462 9.15643 12.8242C9.2168 12.7062 9.22244 12.5798 9.17282 12.4587C9.13513 12.3667 9.07471 12.3003 9.04566 12.2683C8.99764 12.2155 8.95908 12.1425 8.92997 12.0493C8.91427 11.999 8.89471 11.9363 8.86578 11.8506C8.81446 11.6986 8.64732 11.5178 8.47435 11.3452C8.45946 11.3303 8.43803 11.3085 8.43803 11.3085C8.42529 11.2954 8.40805 11.2802 8.38557 11.2609C8.38557 11.2555 8.38561 7.85932 8.38561 7.85932C8.41239 7.86168 8.44108 7.86216 8.47187 7.86296C8.5865 7.866 8.87402 7.80192 8.87402 7.80192C8.87402 7.80192 8.72137 7.59656 8.70701 7.58076C8.66258 7.53188 8.61555 7.48012 8.56094 7.43648L8.56155 7.43408C8.57664 7.37644 8.57534 7.28268 8.4834 7.1632C8.42582 7.08836 8.46165 6.96216 8.48218 6.90592C8.48737 6.90504 8.49249 6.90464 8.49764 6.90464C8.53639 6.90464 8.58179 6.93128 8.62988 6.95948C8.69545 6.99792 8.76974 7.04152 8.8631 7.04152C8.8885 7.04152 8.91387 7.03816 8.93845 7.03148C9.01847 7.0098 9.08956 6.9622 9.14397 6.89388L9.15245 6.88324C9.17712 6.90256 9.19749 6.92616 9.21388 6.95432C9.3348 7.12256 9.27272 7.42856 9.27272 7.42856C9.34661 7.3924 9.6463 7.12484 9.62508 6.81432L9.67714 6.89768C9.67714 6.89768 9.86671 6.60228 9.83518 6.40592ZM10.7627 14.7868C10.767 14.7669 10.6613 14.6722 10.6102 14.8175C10.5608 14.9577 10.6925 15.0904 10.7602 15.1026C10.7227 15.0363 10.7376 14.964 10.7597 14.886C10.758 14.8567 10.7584 14.8066 10.7627 14.7868ZM11.0139 14.7736C10.9946 14.7449 10.9582 14.7145 10.9248 14.7166C10.7582 14.7272 10.8259 15.1027 10.9923 15.1464C10.9661 15.0804 10.9743 15.0044 10.9951 14.9385C10.9896 14.8912 10.9935 14.8245 11.0139 14.7736ZM11.2591 14.8998C11.2906 14.8466 11.2597 14.7491 11.1541 14.7491C11.0336 14.7491 11.0368 15.0125 11.1567 15.09C11.1531 15.0769 11.1521 15.0061 11.2591 14.8998ZM12.5913 14.5472C12.5588 14.4379 12.4308 14.5504 12.4186 14.6148C12.4078 14.6719 12.4744 14.8096 12.4867 14.82C12.4501 14.698 12.4975 14.5992 12.5913 14.5472ZM12.656 14.8635C12.6357 14.767 12.6708 14.6803 12.7229 14.6377C12.7139 14.6132 12.6979 14.5963 12.6778 14.5925C12.6402 14.5925 12.4552 14.672 12.6037 14.897C12.6147 14.9126 12.6317 14.9277 12.6456 14.9362C12.6452 14.9156 12.6512 14.8835 12.656 14.8635ZM12.6605 14.5219C12.7154 14.5133 12.7662 14.5506 12.7892 14.605C12.8977 14.5789 12.918 14.6516 12.8878 14.5775C12.7872 14.4432 12.6495 14.3663 12.6262 14.4663C12.6416 14.482 12.6534 14.5008 12.6605 14.5219ZM12.8991 14.6932C12.8714 14.6676 12.7916 14.6568 12.754 14.7098C12.6599 14.8438 12.8066 15.0043 12.8307 15.0155C12.8141 14.9426 12.9269 14.8145 12.9303 14.8216C12.9585 14.766 12.9193 14.7113 12.8991 14.6932ZM14.2334 14.367C14.2715 14.3548 14.3859 14.4004 14.3667 14.2013C14.3595 14.1262 14.2241 14.052 14.1958 13.9147C14.1897 13.8851 14.1846 13.8565 14.1785 13.8288C14.0979 13.7517 14.1301 13.78 14.0365 13.7056C13.8024 13.6747 13.671 13.6909 13.4977 13.7238C13.5923 14.1115 13.7133 14.1248 13.692 14.2249C13.6855 14.2551 13.6459 14.3082 13.5567 14.3769C13.3227 14.5457 13.1915 14.6556 12.9446 14.637C13.0055 14.688 13.0345 14.7778 12.9959 14.8538L12.9476 14.9475C13.1032 14.9091 13.2017 14.9311 13.3514 14.9403C13.5012 14.9495 13.5707 14.7927 13.6448 14.7421C13.8004 14.6358 13.9596 14.5279 14.1252 14.4398C14.1595 14.4216 14.202 14.3771 14.2334 14.367ZM14.2865 14.7853C14.2999 14.7279 14.3273 14.6708 14.3795 14.6252C14.4403 14.572 14.4694 14.6188 14.4129 14.5534C14.3845 14.5205 14.351 14.5241 14.3315 14.5468C14.2088 14.6899 14.2759 14.7737 14.2865 14.7853ZM14.4462 14.9063C14.4646 14.8406 14.5089 14.7883 14.5544 14.76C14.5389 14.6935 14.4806 14.6334 14.4281 14.6792C14.2945 14.7962 14.3687 15.0256 14.3687 15.0256C14.4205 14.9326 14.414 14.9392 14.4462 14.9063ZM14.7334 14.8719C14.731 14.8346 14.6531 14.7613 14.57 14.8393C14.4424 14.9592 14.5537 15.1362 14.5537 15.1362L14.5663 15.0984C14.6058 15.018 14.7431 15.0047 14.7334 14.8719ZM14.3135 11.3626C14.3999 11.3952 14.5524 11.7404 14.2159 11.7404C14.0324 11.7404 13.8458 11.6426 13.5897 11.6426C13.2638 11.6426 13.0607 11.7914 13.0607 12.0604C13.0607 12.3327 13.3197 12.4725 13.6245 12.4725C13.9747 12.4725 14.2105 12.4034 14.457 12.3464C14.4557 12.4115 14.4922 12.5027 14.5835 12.522C14.5674 12.3086 14.9659 12.2729 15.0306 12.2729C15.212 12.2729 15.3772 12.3961 15.3772 12.5701C15.3772 13.0152 14.795 13.0064 14.4989 12.8801C14.204 12.7472 13.4869 12.8262 13.2251 12.7996C12.9633 12.7729 12.8207 12.6835 12.7248 12.6888C12.7786 12.9792 12.6724 13.3157 12.36 13.4843C12.2716 13.6077 12.0489 13.7634 11.8354 13.7253C11.7664 13.8146 11.7694 13.9024 11.8401 14.1065C11.7327 14.1238 11.5456 14.0524 11.5456 14.0524C11.4779 14.129 11.3233 14.4399 11.189 14.5196C11.0996 14.4864 10.9269 14.454 10.7866 14.56C10.6054 14.5421 10.5603 14.6194 10.5636 14.7454C10.6235 14.6461 10.7214 14.6409 10.7966 14.7133C10.8631 14.626 10.976 14.6189 11.057 14.7106C11.185 14.6046 11.4277 14.759 11.3177 14.9442C11.3003 14.9615 11.2854 14.9768 11.269 14.9981C11.2984 15.0049 11.4212 15.024 11.4489 14.8774C11.5333 14.8393 11.9924 14.4232 11.998 14.3777C12.0437 14.4498 11.9955 14.5104 11.968 14.5515C12.1063 14.4724 12.2384 14.2378 12.2184 13.963C12.2184 13.963 12.2847 14.0108 12.2847 14.1117C12.3916 14.0298 12.3934 13.8694 12.3934 13.8694C12.3954 13.8714 12.7637 13.7858 13.2616 13.6589C13.5705 13.6024 13.7173 13.55 14.0819 13.6024C14.1693 13.6607 14.3103 13.8007 14.3719 13.8632C14.5667 14.0608 15.0531 13.886 15.1112 14.0834C15.1693 14.2807 15.1833 14.3363 15.164 14.441C15.1386 14.5823 15.1381 14.6601 15.0677 14.6601C14.9991 14.6601 14.8462 14.6817 14.8047 14.6398C14.6234 14.4568 14.4606 14.427 14.4703 14.5086C14.5028 14.5463 14.526 14.5763 14.5313 14.6085C14.5636 14.6266 14.5916 14.6578 14.6104 14.6986C14.6319 14.7453 14.6104 14.7326 14.6463 14.7326C14.7331 14.7326 14.8025 14.8037 14.8066 14.8668C14.809 14.8997 14.8064 14.9831 14.7296 15.0491C14.7041 15.0697 14.6287 15.0643 15.12 15.0652C15.3525 15.0652 15.4621 14.7991 15.4326 14.6473C15.4616 14.7135 15.4748 14.8057 15.4723 14.8828C15.609 14.7932 15.6868 14.492 15.5175 14.2926C15.5887 14.2856 15.6669 14.3753 15.6984 14.4439C15.709 14.2345 15.6257 14.018 15.4311 13.9108C15.5058 13.9068 15.6374 13.9554 15.675 14.008C15.6537 13.8582 15.6228 13.618 15.2292 13.618C14.8355 13.618 14.8096 13.2021 14.5578 13.1093C14.7011 13.153 14.826 13.1646 14.995 13.1656C15.4158 13.1681 15.6316 12.9064 15.6655 12.6188C15.7005 12.3222 15.5286 12.0688 15.111 12.0317C14.9946 12.135 14.8677 12.1143 14.8677 12.1143C14.6365 12.2683 14.2771 12.2356 14.0728 12.1449C13.7069 12.2937 13.3752 12.2349 13.3752 12.0629C13.3752 11.961 13.4295 11.9035 13.6304 11.8998C14.1877 11.8895 14.1604 12.1948 14.638 12.0832C14.638 12.0832 14.4708 12.0317 14.4451 11.9164C14.9062 12.1385 14.9994 11.9138 15.1963 11.9138C15.2802 11.9138 15.4519 11.9524 15.5622 12.0506C15.5891 11.8236 15.1099 11.3712 14.685 11.6723C14.7541 11.5701 14.5894 11.2208 14.3135 11.3626ZM13.4978 12.054C13.4978 12.0808 13.5703 12.1086 13.6497 12.1086C13.7352 12.1086 13.8111 12.1086 13.9412 12.065C13.8018 12.0143 13.4978 11.9996 13.4978 12.054ZM12.9116 11.883C12.8448 11.9883 12.8109 12.0727 12.6702 12.0936C12.7445 12.3742 12.8073 12.4061 12.9019 12.501L12.8067 12.5766C12.9204 12.5995 13.0288 12.655 13.2269 12.6785C13.421 12.7015 13.8942 12.6591 14.2482 12.6983L14.2214 12.5252C14.0504 12.5625 13.8635 12.593 13.6245 12.593C13.2141 12.593 12.9384 12.379 12.9384 12.0604C12.9384 11.7283 13.188 11.5221 13.5897 11.5221C13.7853 11.5221 13.9347 11.5717 14.0784 11.6021L13.809 9.8634C13.2815 9.69556 12.7527 9.696 12.2253 9.86384L12.0933 10.7152C12.2426 10.717 12.2963 10.7711 12.4014 10.8446C12.3095 10.9538 12.3118 10.9484 12.2996 10.9755C12.4376 10.9257 12.5568 10.9634 12.7051 10.9916C12.562 11.2549 12.5957 11.1868 12.5742 11.2303C12.6943 11.2446 12.7371 11.2888 12.7931 11.3333C12.7819 11.4743 12.7592 11.62 12.6666 11.7088C12.7164 11.7507 12.7008 11.7624 12.7599 11.7937C12.7949 11.8122 12.7888 11.8091 12.9116 11.883ZM11.731 8.80188L11.9581 9.50128L12.1779 9.7378C12.7374 9.54896 13.2969 9.54896 13.8564 9.7378L14.0762 9.50128L14.3033 8.80188C14.1135 8.73724 13.916 8.6912 13.7163 8.66252L13.6413 8.98264C13.5471 8.967 13.4498 8.956 13.3509 8.95012V8.62404C13.1616 8.6128 12.8717 8.61284 12.6834 8.62404V8.95012C12.5844 8.956 12.4871 8.967 12.3929 8.98264L12.3179 8.66252C12.1183 8.6912 11.9208 8.73728 11.731 8.80188ZM10.889 11.6704C10.9428 11.7179 11.0623 11.7296 11.0806 11.7661C11.0989 11.8027 11.0947 11.8565 11.1315 11.9216C11.1684 11.9867 11.3571 11.9407 11.3571 11.9407C11.3642 11.9678 11.359 11.9911 11.3428 12.0111C11.1124 12.0722 11.251 12.2879 11.3959 12.2879C11.4585 12.2879 11.6344 12.2396 11.6344 12.1571C11.6346 12.0729 11.4542 12.1597 11.4894 12.0107C11.5331 11.8353 11.486 11.7781 11.4806 11.7737C11.471 11.7659 11.419 11.7754 11.4148 11.7536C11.3933 11.6435 11.2126 11.6146 11.2126 11.6146C11.2471 11.551 11.491 11.6193 11.5313 11.5963C11.5629 11.5782 11.6191 11.5552 11.6191 11.5552C11.5747 11.672 11.566 11.9897 11.5646 12.0107C11.5606 12.0734 11.8443 12.0937 11.8845 12.003C11.8845 12.003 11.9321 12.0021 11.9406 12.0428C11.9586 12.1287 11.7875 12.0821 11.7888 12.1598C11.7901 12.2375 11.8994 12.2866 12.0264 12.2879C12.0818 12.2876 12.2102 12.216 12.2102 12.1281C12.2102 12.1082 12.2087 12.0946 12.2051 12.0876C12.1859 12.0505 12.1453 12.0316 12.0791 12.0111C12.0628 11.9912 12.0577 11.9678 12.0648 11.9407C12.0648 11.9407 12.2535 11.9867 12.2903 11.9216C12.3272 11.8565 12.3318 11.7517 12.3318 11.7517C12.3532 11.6613 12.4841 11.7273 12.5949 11.6093C12.6326 11.5693 12.6636 11.4194 12.6661 11.3874C12.6168 11.3483 12.5142 11.3368 12.4074 11.3568C12.4265 11.2225 12.4873 11.137 12.5188 11.079C12.2775 11.0332 12.197 11.2156 12.197 11.2156C12.0993 11.0146 12.223 10.8678 12.223 10.8678C12.223 10.8678 12.1697 10.8292 12.0632 10.8362C11.949 10.8438 11.9119 11.0226 11.9119 11.0226C11.9119 11.0226 11.8709 10.9858 11.8075 10.9028C11.7247 10.7942 11.7578 10.6647 11.7578 10.6647C11.6202 10.7086 11.5428 10.8454 11.5664 10.976C11.5664 10.976 11.5142 10.895 11.4647 10.8608C11.2997 10.7471 11.1221 10.8818 11.1221 10.8818C11.1704 10.8818 11.37 11.0245 11.3197 11.1442C11.197 11.0281 11.0539 11.0447 10.9688 11.1094C10.9688 11.1094 11.133 11.1896 11.1216 11.2877C11.1179 11.3195 11.116 11.3498 11.086 11.3869C10.9661 11.2972 10.8531 11.2595 10.7974 11.2716C10.7791 11.3037 10.6922 11.4964 10.889 11.6704ZM11.4899 12.3306C11.4899 12.3306 11.4473 12.3563 11.4005 12.3528C11.5683 12.7988 11.8595 12.7954 12.0259 12.3528C11.9792 12.3564 11.9365 12.3306 11.9365 12.3306C11.9519 12.4358 11.8163 12.6198 11.7132 12.619C11.6085 12.6198 11.4746 12.4358 11.4899 12.3306ZM11.7145 12.5217C11.7999 12.5217 11.9485 12.3204 11.7132 12.3204C11.4826 12.3204 11.6234 12.5217 11.7145 12.5217ZM10.7176 11.8132C10.7491 11.8784 10.8024 11.944 10.901 11.9335C10.8905 11.9993 10.8904 12.1212 10.6754 12.3784C10.7089 12.4129 10.8182 12.419 10.9392 12.3728C10.7577 12.5091 10.6866 12.7496 10.8548 13.0347C10.9295 12.8869 11.0733 12.7015 11.2116 12.687C11.0779 12.8093 10.773 13.1118 11.1541 13.5682C11.148 13.3639 11.2075 13.1459 11.3833 13.0913C11.2281 13.2862 11.1898 13.6278 11.4255 13.8358C11.2766 13.4159 11.6191 13.0452 11.6191 13.0452C11.6191 13.0452 11.3874 13.487 11.5302 13.9114C11.5333 13.913 11.5941 13.952 11.6918 13.9856C11.5099 13.5717 12.2229 13.5086 11.9139 12.9765C12.1365 13.253 11.9993 13.5296 11.95 13.6123C12.2686 13.5532 12.5106 13.0822 12.2925 12.7876C12.4633 12.8603 12.4958 13.0842 12.4907 13.2305C12.657 13.0281 12.689 12.5898 12.5126 12.4796C12.6066 12.5156 12.6884 12.5156 12.72 12.4906C12.6197 12.3916 12.5365 12.1015 12.5176 11.964C12.6147 11.987 12.7042 11.9825 12.7423 11.9224C12.6782 11.8838 12.6216 11.8378 12.6004 11.8131C12.5871 11.7976 12.5705 11.7784 12.5456 11.7867C12.5208 11.795 12.4285 11.8336 12.4285 11.8336C12.4151 11.8792 12.4118 11.9773 12.33 12.0315C12.33 12.0315 12.3572 12.2656 12.1747 12.3415C12.0535 12.5045 11.9495 12.7902 11.7132 12.7902C11.4769 12.7902 11.3736 12.4713 11.2305 12.3305C11.084 12.2361 11.0899 12.0314 11.0899 12.0314C10.9906 11.9766 10.9994 11.8635 10.9594 11.8262C10.9194 11.7889 10.8235 11.7656 10.7633 11.791C10.7422 11.7999 10.7379 11.8042 10.7176 11.8132ZM10.4564 12.1294C10.4359 12.1971 10.3672 12.2337 10.3054 12.2408C10.3316 12.336 10.262 12.4322 10.1217 12.4134C10.1959 12.5485 10.2802 12.5016 10.3115 12.6269C10.3435 12.7548 10.4086 13.0593 10.5499 13.1509C10.5128 13.1644 10.4741 13.1674 10.4355 13.1509C10.4904 13.2637 10.6322 13.3934 10.7252 13.3934C10.6648 13.4204 10.6322 13.4255 10.5778 13.409C10.649 13.5061 10.6972 13.5374 10.7786 13.5803C10.948 13.6695 11.0709 13.9102 11.1633 13.7506C11.1825 13.7174 11.1612 13.7121 11.1409 13.698C10.9314 13.5526 10.8583 13.3529 10.8375 13.2125C10.6129 13.0227 10.5771 12.669 10.6723 12.4826C10.5608 12.4826 10.5062 12.3859 10.5062 12.3859C10.5565 12.3264 10.6299 12.2264 10.6869 12.135C10.6981 12.1172 10.6552 12.0237 10.6279 11.9682C10.6132 12.0563 10.5477 12.1313 10.4564 12.1294ZM10.2253 11.912C10.2767 11.9177 10.4163 11.9784 10.4339 12.0364C10.4386 12.0518 10.4354 12.0539 10.4594 12.0539C10.5207 12.0539 10.558 11.9818 10.5541 11.9254C10.4865 11.8627 10.3432 11.8402 10.2253 11.912ZM9.99306 12.0736C10.0992 12.0395 10.2063 12.0881 10.2476 12.1626C10.2956 12.171 10.336 12.1631 10.3698 12.1286C10.4596 12.0367 10.1451 11.8785 9.99306 12.0736ZM9.90111 12.3267C9.95171 12.2732 10.0356 12.2856 10.0904 12.3302C10.1366 12.3523 10.1994 12.3438 10.2153 12.3283C10.2406 12.3036 10.247 12.2622 10.2192 12.2301C10.101 12.1618 9.938 12.1664 9.90111 12.3267ZM17.3808 7.71816C18.0073 7.80452 17.945 7.45016 17.7382 7.46264C17.5853 7.47236 17.4971 7.59404 17.3808 7.71816ZM18.2837 12.8402C18.2837 12.8402 18.0363 12.7756 17.9038 12.5749C17.8438 12.4834 17.7592 12.4725 17.7068 12.5054C17.6249 12.5567 17.6561 12.7273 17.6856 12.7537C17.8875 12.9632 18.1444 12.9281 18.2837 12.8402ZM9.39664 7.16456C9.61238 6.8638 9.4321 6.44612 9.21084 6.44596C9.21084 6.44596 9.03036 6.43028 9.03149 6.5832C9.03214 6.66816 9.07588 6.70212 9.11467 6.71552C9.3139 6.78444 9.39493 6.95944 9.39664 7.16456ZM8.42732 13.8977C8.44335 13.9021 8.46899 13.9046 8.47658 13.8891C8.59445 13.6496 8.87775 13.5817 8.87775 13.5817C8.87775 13.5817 8.7542 13.478 8.58666 13.478C8.48177 13.478 8.35972 13.5186 8.23986 13.6507C8.23986 13.6507 8.17628 13.717 8.21868 13.7692C8.26104 13.8215 8.31245 13.8663 8.42732 13.8977ZM8.65353 7.71804C8.53724 7.59392 8.44899 7.47224 8.29606 7.46252C8.08924 7.45008 8.02696 7.80444 8.65353 7.71804ZM9.04501 14.9284C8.95314 14.9338 8.93083 15.1108 8.93764 15.2013C8.93764 15.2131 8.94925 15.2231 8.97635 15.2145C9.12336 15.166 9.38937 15.2106 9.5249 15.2649C9.44318 15.0865 9.2592 14.9159 9.04501 14.9284ZM8.25816 13.143C8.58305 13.2725 9.01275 12.9118 8.75947 12.7439C8.69946 12.7042 8.55408 12.731 8.51034 12.7982C8.47654 12.8491 8.45658 13.0043 8.25816 13.143ZM8.32751 12.5053C8.27504 12.4724 8.19048 12.4832 8.13051 12.5748C7.99803 12.7755 7.75064 12.84 7.75064 12.84C7.8899 12.928 8.14678 12.9632 8.34869 12.7536C8.37814 12.7271 8.40939 12.5566 8.32751 12.5053ZM9.15915 14.0446C9.07227 14.0446 8.97327 14.0694 8.86534 14.1379C8.86534 14.1379 8.78565 14.1774 8.80638 14.2501C8.83186 14.3397 8.95266 14.486 9.01044 14.4263C9.17355 14.2576 9.37907 14.1949 9.53183 14.2165C9.53183 14.2165 9.38767 14.0446 9.15915 14.0446Z" fill="#001EFF"/>
</g>
</g>
<defs>
<clipPath id="clip0_513_1598">
<rect width="26" height="26" fill="white" transform="translate(0.209351)"/>
</clipPath>
<clipPath id="clip1_513_1598">
<rect width="26" height="17.5507" fill="white" transform="translate(0.209351 4)"/>
</clipPath>
</defs>
</svg>
