<?xml version="1.0" encoding="UTF-8"?>
<svg width="512px" height="512px" viewBox="0 0 512 512" version="1.1" xmlns="http://www.w3.org/2000/svg" xmlns:xlink="http://www.w3.org/1999/xlink">
    <!-- Generator: Sketch 48.1 (47250) - http://www.bohemiancoding.com/sketch -->
    <title>#SBUX</title>
    <desc>Created with Sketch.</desc>
    <defs></defs>
    <g id="Компании-BIG" stroke="none" stroke-width="1" fill="none" fill-rule="evenodd">
        <g id="#SBUX" fill-rule="nonzero">
            <g id="starbucks" transform="translate(1.000000, 0.000000)">
                <path d="M509.37514,255.649395 C509.37514,396.837794 395.502386,511.29537 255.03561,511.29537 C114.565414,511.29537 0.694369524,396.837794 0.694369524,255.649395 C0.694369524,114.460997 114.567124,0.00342001305 255.03561,0.00342001305 C395.502386,0.00342001305 509.37514,114.460997 509.37514,255.649395 Z" id="Shape" fill="#FFFFFF"></path>
                <path d="M252.910072,90.8885567 C261.863666,96.0493564 271.362752,102.691022 278.59095,109.731119 L275.752339,112.583409 C261.484044,111.066634 246.458217,112.961321 232.932065,113.169942 C231.42555,111.648036 228.386868,109.360047 231.215219,107.44826 L252.910072,90.8885567 Z M505.173654,268.110213 C505.363465,274.548387 505.968807,280.078548 503.456807,286.670624 C477.392888,294.085212 460.272303,266.489127 434.983016,270.649572 L437.842147,284.953777 C461.238456,285.72328 475.853882,308.160276 500.023114,307.195832 C496.589421,314.052958 501.55528,332.124307 486.343062,324.901239 C470.549442,321.105025 459.130018,307.195832 441.826462,307.195832 C439.738544,311.027956 441.062089,316.335817 440.694438,320.872464 C458.950468,323.735015 472.081608,339.166114 490.330797,342.014985 C488.613951,348.287289 486.914204,355.310285 481.770505,359.13386 C466.924228,355.520616 455.325254,342.185985 439.517954,342.567317 L436.704993,355.701877 C451.72398,356.088338 461.433397,369.378509 474.932189,373.369664 C475.30326,378.908375 470.352791,383.860554 467.49708,388.804183 C455.513355,385.206329 446.37508,374.90867 432.679637,375.669623 C432.489827,370.508823 435.552448,364.652051 434.396484,359.13386 C419.016685,363.709837 408.703636,349.419313 397.304732,340.84534 C396.978121,312.794393 367.446309,294.389593 365.886783,268.111923 C365.585821,262.870753 366.384395,257.279031 368.773274,251.266649 C378.479271,228.826233 375.430329,199.689432 364.788958,178.765792 C361.551916,173.257861 355.825104,168.912734 350.484754,165.673982 C358.296064,182.233685 367.81909,201.79787 363.065272,222.150367 C362.51465,237.865327 353.239574,252.961265 353.135264,268.111923 C353.099354,273.513833 354.253608,278.915744 357.36069,284.370665 C369.730877,306.65376 391.991742,327.75011 383.62126,355.698457 C381.319591,364.28269 374.469305,370.919225 372.755879,379.655648 C387.231084,391.644504 400.917976,405.155266 420.12477,405.914508 C426.968216,401.543732 423.166871,382.160808 437.245355,391.102432 L457.801343,401.384701 C456.305088,406.885792 451.69662,411.817451 447.524204,415.606825 C439.724864,411.812321 432.117045,407.260284 422.392238,407.631355 C419.526267,410.675167 417.058728,414.09005 417.275899,418.455696 C424.119345,419.582591 430.398489,422.469082 436.113331,426.472207 C433.45769,432.188759 428.284921,435.769512 423.529393,440.148839 L407.585292,434.447677 C404.922812,438.257572 399.39265,442.258987 401.333508,446.441663 C404.933072,447.980669 408.922517,450.063457 411.569607,452.732777 C404.53293,460.340596 395.611826,465.236345 387.027593,470.398854 C379.633525,446.231332 355.269352,429.288588 357.3624,401.340241 L356.230376,400.208217 C350.505274,406.648101 352.417061,416.942341 352.786423,425.299142 C359.640129,442.802769 375.987791,456.323791 378.467301,475.520324 C375.60475,480.462243 369.152895,481.447207 364.199006,483.536835 C364.776988,448.928013 312.274658,422.677702 345.942977,387.668739 C357.170879,370.525923 375.984371,354.166291 369.318766,330.564781 C362.47532,307.775524 338.268467,293.656 338.482218,268.111923 L338.521548,266.118055 C344.032899,239.479574 360.782413,211.132795 347.081841,182.792857 C343.261686,171.393954 334.730464,158.440654 323.12807,153.676576 C340.428206,173.476742 347.285332,205.785605 337.389524,232.430927 C332.399725,243.031257 325.532339,255.656235 324.844916,268.115343 L324.802166,268.115343 C324.434514,274.621918 325.76148,281.094292 329.962966,287.228086 C343.095816,308.543317 365.912433,331.953306 352.788133,359.728942 C337.952116,381.976127 312.081427,404.606353 326.530982,433.910735 C336.991092,451.409232 353.176304,468.871819 348.807237,490.385411 L331.690072,496.088282 C343.102656,455.961269 287.166632,432.383699 310.585172,392.241296 C325.039857,370.748224 350.896865,350.578697 336.25921,322.050659 C327.509106,304.374321 309.430917,293.912501 309.998639,271.824347 L310.622792,268.113633 C316.513764,236.786313 340.330735,207.12967 323.675272,173.652872 C319.299365,163.765615 310.556102,153.688546 300.850105,147.977124 L300.265282,148.561947 C319.677276,167.394249 325.581929,198.381277 315.114979,223.289232 C310.23291,237.902948 299.514589,252.460233 297.337751,268.118763 C296.299777,275.504281 297.173591,283.15656 301.438347,291.217531 C313.801694,310.795396 335.484577,331.563425 321.955005,356.874941 C307.707231,377.779771 283.92104,398.123719 293.421836,425.311112 C303.888786,449.097303 325.737539,471.75831 313.941914,501.250792 L296.274127,505.240237 C310.345771,476.498448 289.24771,447.975539 276.886073,423.048774 C261.849986,387.282277 309.189806,370.156562 309.950759,337.459527 C309.771209,316.352917 287.332503,304.369191 282.594075,284.969167 C272.881238,276.774816 262.816139,288.225019 251.206905,286.099481 C242.638062,287.821458 229.474432,274.302146 224.358093,288.958612 C218.267049,310.443134 190.508514,326.236754 202.70599,351.720982 C214.315224,374.366598 242.249891,390.924591 232.918385,420.232393 C224.563294,447.604467 196.962078,473.668387 214.080954,505.240237 C207.047697,502.962509 193.918267,507.324735 194.108077,496.089992 C183.270056,457.857667 229.488112,435.581412 215.212978,397.367896 C208.569603,373.961327 178.300777,361.031967 184.964672,332.87842 C189.891201,309.704411 215.89527,293.50381 212.247827,268.118763 C211.923648,265.887416 211.399414,263.689753 210.681461,261.552338 C200.975464,234.159743 181.173588,206.758599 192.976053,174.788317 C196.216515,165.658592 202.68889,157.860962 208.376372,149.699101 C189.54236,159.776169 180.041564,181.087981 180.431445,202.769154 C179.610642,226.346723 197.027058,246.54361 199.504858,268.118763 C200.479562,276.826116 199.053416,285.7438 192.976053,295.201846 C180.621256,311.96504 164.463404,329.641377 171.871153,351.715852 C178.914669,373.981847 206.685175,387.472088 204.975169,413.351327 C204.785358,443.967284 169.212092,463.027016 179.294291,497.266477 L161.588883,491.522565 C154.559046,461.096419 186.89185,445.53194 187.262921,417.380102 C191.838899,385.009679 150.550791,372.998593 153.028591,341.440422 C152.85075,317.464421 173.95565,302.279563 183.276896,282.111746 C184.874042,277.204027 185.407564,272.5682 185.193813,268.120473 C184.051529,245.821988 163.958952,228.390181 167.293465,203.318066 C168.415229,184.867095 174.692663,168.692144 186.681519,154.817151 C170.140626,161.460526 163.30744,180.501449 158.738302,196.48317 C150.809002,222.111037 169.737064,245.161925 171.633462,268.120473 C172.474785,278.260811 169.998695,288.3413 160.458569,298.647509 C146.754577,314.795101 132.857354,335.173249 142.751451,356.878361 C153.228661,380.827003 186.144577,399.467784 171.867732,429.336468 C164.078653,448.1739 145.427612,462.430224 146.193695,484.680829 C141.251776,482.587781 136.125176,480.501573 131.9254,476.705358 C131.9254,448.36884 172.237094,430.668563 153.030301,400.803299 C151.328844,406.694271 150.962903,414.703942 149.630808,421.360997 C142.965202,438.679943 128.703748,452.541256 123.366817,470.446735 C114.442293,467.002781 105.110788,459.766034 97.6876495,452.156505 L107.969919,445.865391 C106.827634,442.052076 103.788953,438.821874 101.129893,435.588252 C94.4540272,434.651168 90.0695705,439.032205 84.5633495,440.749051 C79.8078213,436.554405 75.2181638,432.749641 71.4270793,427.612781 C74.8402524,417.893104 101.509514,425.930135 87.9987526,409.946704 C78.8775778,404.245542 69.7222028,412.392013 61.7347624,416.195068 L50.9070011,402.518435 C60.2282466,396.817274 69.5255521,388.807603 81.1193963,391.105852 C83.9768172,396.251262 84.175178,403.81633 89.679689,406.502751 C109.276364,406.123129 123.161617,391.299083 138.184024,379.691558 C127.713654,364.113399 119.190982,342.604937 128.491707,323.762375 C135.942205,304.883903 155.36104,288.980842 156.239983,268.108503 C156.440054,263.359815 155.699621,258.361466 153.621963,252.981785 C143.355084,226.536534 139.73158,190.793978 159.328255,167.387409 C148.673204,170.249959 142.39064,183.53158 138.770556,193.613779 C126.990321,219.436587 141.889608,243.361288 142.40432,268.106793 C142.47443,272.55965 142.113619,277.019347 141.034605,281.513244 C130.948986,301.865742 114.608164,319.72334 111.954234,343.143589 C100.34671,350.547917 90.8168433,363.496087 74.2776602,359.12702 C73.696258,363.497797 75.0283531,370.159982 76.5451289,375.112161 C63.4293788,374.559829 54.4860447,384.228206 43.4445326,388.792213 C37.5604002,386.904366 36.0299443,379.299967 33.7522156,373.980137 C46.6781549,369.61449 56.0028205,356.656061 70.8439671,356.859551 C72.5642337,352.080083 69.8795234,347.700756 69.1219906,343.140169 C50.6607601,334.947528 21.3974185,383.646803 18.9367191,341.423322 C37.3842695,340.282748 49.1713444,323.157033 67.4427641,321.450446 L67.9882562,307.773814 C47.2544271,305.680766 33.9163763,326.994287 13.1910972,324.894399 L8.62024976,306.64179 C32.5945412,308.139755 46.8782257,286.655234 69.7102328,285.499269 C72.7437844,281.509824 73.1097258,275.613721 73.694548,270.10237 C48.7729129,266.853358 31.6728477,294.473383 5.22075679,286.085801 C5.22075679,286.085801 4.30932331,274.591137 3.81513143,268.108503 L3.85104157,268.108503 C3.75091824,266.674202 3.63405983,265.241119 3.50049023,263.809546 C27.0866102,272.959791 47.8101793,256.018757 67.9882562,247.275493 C73.1199858,245.739907 81.1228163,248.402388 83.4227751,242.699516 C83.2261244,238.323609 91.2050148,233.20727 84.5616395,230.154908 C55.0623169,226.150073 35.4656422,261.731888 5.21733678,245.553517 L2.94815812,240.977539 C9.23585211,155.003541 57.7213771,71.8869642 138.180604,30.9853182 C170.764778,12.3633472 211.247473,2.87281096 252.073878,2.53422967 C301.342586,2.1238281 351.131136,15.0497674 388.166458,41.2658774 C424.129605,63.3249616 458.529806,99.6814103 477.199657,136.588481 C495.057255,168.926414 503.273837,205.211043 505.729406,243.83838 C474.525207,267.41595 453.591307,221.627105 421.815966,231.875175 C423.525972,236.829063 424.475026,241.957373 428.10879,246.141759 C456.270887,245.941688 475.662361,275.430751 505.142874,263.807836 L505.173654,268.110213 Z M146.735767,162.228319 C126.947571,149.290409 101.861775,161.474206 83.4210651,168.521143 C81.7093486,151.202197 74.6760917,135.423967 60.0110758,124.011383 C58.5883504,123.30173 56.6218429,121.814025 54.8502761,121.702874 C53.7900721,121.636184 52.7811682,122.065396 51.9979852,123.419721 C58.6447806,164.312817 32.0627292,192.845986 13.2252973,223.865504 C19.4976013,228.990394 29.5746697,228.226021 37.1824887,226.717795 C57.1519449,218.733774 76.1740575,204.833131 99.9516982,209.59721 C106.984955,197.613484 118.79768,186.00596 128.484867,176.496613 C134.40491,171.373434 142.534281,168.122711 146.735767,162.228319 Z M207.237507,187.909197 C206.856176,190.371606 207.427318,194.762903 211.223533,193.064866 C217.129895,184.885905 227.586585,191.35828 234.05041,191.932842 L234.05041,189.631173 C230.503856,184.061682 223.208968,181.265821 215.7978,181.542843 C214.087794,181.604403 212.350427,181.852354 210.678041,182.242235 C208.200241,182.792857 206.473135,185.060326 207.237507,187.909197 Z M300.256732,163.404803 C294.943742,151.607468 282.768496,146.83313 271.723563,143.979129 C266.306263,143.312227 260.685471,142.862495 255.11085,142.807775 C254.066036,142.797515 253.022932,142.783835 251.981538,142.807775 C236.389699,143.122416 221.490412,147.125541 212.388047,159.96085 C211.081602,163.584354 205.33769,168.673333 210.671201,171.920636 C222.656636,171.156263 236.333268,169.653167 244.322419,179.937146 C244.322419,189.078841 250.225361,201.236988 240.336394,205.612894 C232.143752,198.027305 222.441175,208.843097 213.526911,202.755473 C209.335685,200.277674 206.683465,203.167585 204.966619,206.782539 C202.488819,230.363529 214.838486,256.391538 236.899281,269.512418 C245.840905,272.73749 257.860541,275.803532 267.192046,271.229265 C289.635882,260.777705 298.933187,236.823933 303.115863,214.754589 C302.554981,210.554813 302.751632,202.370722 296.860659,202.170651 C290.207024,206.380687 280.502737,203.892628 273.45238,202.170651 C269.281674,203.516426 269.090153,209.61773 264.344885,210.773694 L261.453264,208.466895 C258.975465,198.018755 257.448429,183.177609 267.161266,175.947701 C278.012967,171.571794 290.757646,169.661717 301.978709,173.09541 C304.073467,169.480457 300.841554,166.636716 300.256732,163.404803 Z M288.804819,182.160155 C288.050706,182.180675 287.318823,182.218295 286.57326,182.242235 C282.588945,184.901295 270.972871,182.989508 275.167517,191.932842 C282.399134,186.21287 292.481333,190.221126 299.70953,193.064866 C302.38056,191.739611 301.804288,189.075421 301.976999,186.777172 C299.65481,182.459406 294.110969,182.055844 288.804819,182.160155 Z M371.625565,101.729998 C357.545371,100.982725 345.754876,108.977006 332.816966,112.59196 C331.691782,101.582938 340.053714,89.9566032 341.962081,78.904831 C321.045282,80.2506061 304.475318,92.8430942 287.168342,102.901353 C283.151621,93.2026107 279.152479,83.4965978 275.170937,73.7833615 L297.999524,52.0936387 L298.584346,49.2345078 L267.747798,47.5176613 C262.438228,38.2118058 260.34347,27.002713 254.067746,18.4424204 C248.930886,28.1449974 245.480093,38.4118765 240.348364,48.1024835 L209.551146,49.8244601 L209.551146,52.0936387 L232.925225,73.1985392 C230.067805,84.0468206 227.412164,95.8338956 220.378908,104.031667 C206.685175,95.8287656 193.182964,86.9025315 178.169107,81.2047898 C174.555863,80.0402753 169.405323,78.1438781 166.171701,80.6199675 C170.920389,91.0869175 177.570604,102.34389 176.45226,113.766734 C170.169696,112.61077 165.232907,108.583704 159.331675,106.890798 C152.274478,104.96362 143.902286,101.203316 137.05542,103.491305 C148.471423,119.459346 157.789249,136.174659 161.012611,155.393423 C198.884126,137.113453 243.050174,127.060325 288.895449,134.873345 C310.386811,138.291648 330.145936,147.046881 349.36299,154.256268 C350.113682,134.105552 362.854941,117.9135 371.625565,101.729998 Z M436.662243,211.315766 C456.050297,216.445786 475.498201,237.571206 496.028539,223.865504 C478.147001,194.195181 451.534169,166.794036 458.936788,127.995698 C459.711421,125.346898 457.997994,122.665608 455.537295,122.289406 C443.93832,127.029545 434.953946,138.457518 430.364289,149.688841 C428.476441,156.333926 427.361517,163.394543 424.702457,169.658297 C410.805234,162.42497 395.979477,155.420783 379.050413,157.111979 C372.94227,157.872932 364.193876,158.273074 363.065272,164.541958 C382.275485,174.808837 398.074235,191.941392 409.84934,210.188872 C418.050532,208.853357 428.10366,209.993931 436.662243,211.315766 Z M233.503208,238.132088 L234.05041,241.570912 C241.483808,246.52138 243.770087,254.914092 254.062616,254.15314 C263.187211,254.693502 270.034077,246.143469 274.579274,239.300023 C262.233027,237.593436 247.20207,240.231976 233.503208,238.132088 Z M243.778637,222.73348 C244.149708,224.255385 242.836423,226.538244 244.910661,227.309457 C250.999994,225.987622 262.027826,230.548209 265.427319,223.318302 C263.05212,220.659242 259.178956,219.451977 255.11085,219.451977 C251.046165,219.451977 246.829288,220.635302 243.778637,222.73348 Z" id="Shape" fill="#106E33"></path>
                <polygon id="Shape" fill="#FFFFFF" opacity="0.99" points="233.516888 216.131144 275.229077 216.131144 275.229077 233.26712 233.516888 233.26712"></polygon>
                <path d="M241.220467,225.295069 C246.610408,226.570734 247.944213,228.480812 252.202129,229.016044 C256.733646,228.935673 256.080424,228.01569 263.975524,225.289939 C264.497076,225.106969 265.208439,223.961264 264.326075,223.084031 C259.420066,218.217352 256.029124,221.695506 252.957952,221.787846 C248.876166,221.830596 245.052592,218.296013 241.068276,222.89251 C240.389404,223.824464 240.035433,224.742737 241.220467,225.295069 Z" id="Shape" fill="#106E33"></path>
            </g>
        </g>
    </g>
</svg>