<svg width="40" height="41" viewBox="0 0 40 41" fill="none" xmlns="http://www.w3.org/2000/svg">
    <g clip-path="url(#clip0_41_2309)">
        <path d="M40 0.173828H0V40.1738H40V0.173828Z" fill="#00A0DF"/>
        <path d="M34.7519 18.3017C34.7519 19.2617 33.5839 20.1257 32.6719 20.1257C32.0639 20.1257 31.5359 19.6937 31.5359 19.4377C31.5359 19.2777 31.5839 18.8137 31.8079 18.8137C31.9679 18.8137 32.1119 18.9417 32.2719 19.0857C32.4959 19.2937 32.7679 19.5337 33.1679 19.5337C33.5679 19.5337 33.9839 19.2617 33.9839 18.8137C33.9839 18.5417 33.7759 18.2857 33.5519 17.9817C33.2639 17.6137 32.9279 17.1817 32.9279 16.6377C32.9279 15.6457 33.9199 14.3657 35.0399 14.3657C35.5359 14.3657 35.8239 14.6537 35.8239 14.9257C35.8239 15.1497 35.5839 15.4377 35.3119 15.4377C35.1039 15.4377 34.9439 15.3577 34.7839 15.2937C34.6239 15.2297 34.4639 15.1497 34.2719 15.1497C33.8879 15.1497 33.6319 15.4377 33.6319 15.8857C33.6319 16.2217 33.8719 16.5417 34.1279 16.8777C34.4159 17.2937 34.7519 17.7577 34.7519 18.3017ZM10.3519 11.2617C10.3359 11.2617 10.3039 11.2937 10.3039 11.3097V11.5817C10.3039 11.5977 10.3199 11.6137 10.3359 11.6297L10.4959 11.6457L10.7039 11.6617C10.9759 11.7097 11.0399 11.7577 11.0399 11.8857C11.0399 12.1097 10.7839 12.8297 10.4319 13.8217L10.1119 14.7177C9.83989 15.5177 9.40789 16.6217 9.03989 17.5977C8.59189 18.7657 8.23989 19.6777 8.23989 19.8057C8.23989 19.9497 8.31989 19.9977 8.65589 19.9977C9.02389 19.9977 9.18389 19.9337 9.21589 19.8057C9.83989 17.7417 11.5679 15.3897 12.4639 15.3897C12.7519 15.3897 12.8479 15.4857 12.8479 15.7737C12.8479 16.2377 12.4639 17.1017 12.0799 17.9337C11.7439 18.6697 11.4399 19.3577 11.4399 19.6937C11.4399 19.9977 11.5839 20.1577 11.8399 20.1577C12.7199 20.1577 13.3919 19.3577 13.9359 18.7177L14.0159 18.6217L14.0319 18.5897L14.0159 18.5577L13.8399 18.3337C13.8399 18.3337 13.8239 18.3177 13.8079 18.3177C13.7919 18.3177 13.7759 18.3177 13.7759 18.3337C13.4719 18.6537 12.9599 19.1337 12.8159 19.1497C12.7679 19.1497 12.7519 19.1497 12.7359 19.1337C12.7199 19.1177 12.7199 19.0697 12.7199 18.9897C12.7359 18.9257 12.8159 18.7017 12.9599 18.3817C13.2959 17.5657 13.8559 16.2217 13.8559 15.4057C13.8559 14.7657 13.5519 14.3977 13.0079 14.3977C11.9199 14.3977 11.0559 15.6297 10.6399 16.2217C10.5439 16.3657 10.4479 16.4937 10.4319 16.4937H10.4159C10.3999 16.4617 10.4639 16.3337 10.5759 16.0777C10.6879 15.8057 10.8639 15.3897 11.1199 14.7657C11.9359 12.6537 12.2719 11.5177 12.2719 11.4217C12.2719 11.2937 12.1599 11.2777 12.0319 11.2777H10.3519V11.2617ZM7.96789 18.8297C7.96789 18.8137 7.96789 18.7977 7.96789 18.7817L7.77589 18.5897C7.77589 18.5737 7.75989 18.5737 7.74389 18.5737C7.72789 18.5737 7.72789 18.5737 7.71189 18.5897L7.69589 18.6057C7.35989 18.9097 6.70389 19.4377 6.12789 19.4857C5.90389 19.5017 5.69589 19.4377 5.53589 19.2937C5.34389 19.1177 5.23189 18.8617 5.21589 18.5257C5.18389 17.6457 5.91989 16.3337 6.65589 15.5497C7.05589 15.1337 7.42389 14.9097 7.67989 14.9097C7.98389 14.9097 8.17589 15.1337 8.36789 15.3577C8.52789 15.5497 8.68789 15.7417 8.91189 15.7417C8.99189 15.7417 9.08789 15.6937 9.16789 15.6297C9.24789 15.5497 9.27989 15.4377 9.27989 15.3257C9.27989 14.9577 8.95989 14.4137 8.17589 14.3977C7.27989 14.3817 6.17589 14.9257 5.34389 15.7737C4.55989 16.5897 4.14389 17.5497 4.19189 18.4937C4.22389 19.2777 4.65589 20.1257 5.74389 20.1257C6.84789 20.1257 7.80789 19.1337 7.96789 18.8297ZM22.3679 16.8137C22.3519 16.8617 22.2879 16.9897 22.2719 16.9737H22.2559V16.9257C22.2559 16.8777 22.3199 16.6377 22.3839 16.3497C22.5119 15.8057 22.6879 15.0537 22.6879 14.8297C22.6879 14.5417 22.5279 14.3977 22.2559 14.3977C21.6639 14.3977 20.7679 15.3737 20.4639 15.8857L20.4479 15.9017C20.4479 15.9177 20.4479 15.9177 20.4639 15.9337L20.6399 16.1097C20.6399 16.1257 20.6559 16.1257 20.6719 16.1257C20.6879 16.1257 20.7039 16.1097 20.7039 16.1097L20.7519 16.0457L20.7999 15.9817C20.9919 15.7257 21.4079 15.2137 21.6319 15.2137C21.7439 15.2137 21.8079 15.3257 21.8079 15.5337C21.8079 16.0617 21.2319 17.6457 20.8479 18.7017C20.6399 19.2937 20.4799 19.7257 20.4799 19.8057C20.4799 19.9177 20.5279 19.9657 20.6239 19.9657H21.1199C21.2159 19.9657 21.2639 19.9017 21.3279 19.7417C21.3279 19.7417 21.5679 19.1657 21.7119 18.8777C22.6879 16.8777 23.2319 15.8537 23.6479 15.4537C23.9199 15.1817 24.1119 15.0697 24.2559 15.0697C24.3679 15.0697 24.4319 15.1657 24.5119 15.2457C24.5919 15.3417 24.6719 15.4377 24.8159 15.4537C24.9119 15.4537 25.0079 15.4217 25.0879 15.3577C25.2159 15.2457 25.2799 15.0377 25.2799 14.8297C25.2799 14.4617 25.0239 14.3337 24.7999 14.3337C23.9199 14.3817 23.2639 15.0537 22.3679 16.8137ZM19.2959 14.2857C19.3279 14.2697 19.3759 14.2857 19.4239 14.3177C19.4239 14.3177 19.4399 14.3177 19.4399 14.3337L19.7759 14.5577C19.8559 14.5897 19.8559 14.6857 19.8559 14.7017C19.8399 14.8137 19.5839 15.5177 19.2639 16.3337C18.8479 17.4377 18.3199 18.8137 18.3039 19.0697C18.3039 19.1657 18.3039 19.2137 18.3359 19.2297C18.3519 19.2457 18.3839 19.2617 18.4319 19.2617C18.6239 19.2617 18.9439 18.8617 19.1999 18.5577L19.3919 18.3177C19.4079 18.3017 19.4399 18.3017 19.4559 18.3177L19.6479 18.5417L19.6639 18.5737C19.6639 18.5737 19.6479 18.6057 19.6479 18.5897C19.3759 19.0057 18.6239 20.1097 17.7599 20.1257C17.5999 20.1257 17.4879 20.0937 17.4079 19.9977C17.3119 19.9017 17.2639 19.7577 17.2639 19.5497C17.2639 19.1337 17.4719 18.6697 17.5839 18.4297L17.6479 18.2697C17.6639 18.2377 17.6639 18.2217 17.6479 18.2057H17.6319C17.5999 18.2057 17.4079 18.5417 17.4079 18.5417C16.4959 19.9337 15.7759 20.1097 15.2479 20.1097C14.8159 20.1097 14.3999 19.7577 14.3999 18.9737C14.3999 17.8217 15.6959 14.4937 18.1759 14.4937C18.3999 14.4937 18.5599 14.5257 18.6879 14.5577C18.7839 14.5737 18.8639 14.5897 18.9439 14.5897C19.0399 14.5897 19.0879 14.5097 19.1359 14.4297C19.1679 14.3817 19.2159 14.3177 19.2959 14.2857ZM15.3599 18.7177C15.3599 19.1817 15.4879 19.2617 15.7279 19.2617C16.8159 19.2617 18.5759 16.1897 18.5759 15.5337C18.5759 15.1017 18.3359 14.8617 17.9199 14.8617C16.6399 14.8617 15.3599 17.1017 15.3599 18.7177ZM27.3439 18.5577C27.3439 16.5417 29.5999 14.3977 31.1839 14.3977C31.9359 14.3977 32.3359 14.8617 32.3359 15.2937C32.3359 16.3497 30.6079 16.7977 29.6799 16.7977L29.1519 16.7817C29.1519 16.7817 29.0719 16.7817 29.0559 16.7817C29.0559 16.7977 29.0239 16.8297 29.0239 16.8297C28.7679 17.2137 28.4319 17.7417 28.4319 18.4457C28.4319 19.0217 28.7839 19.3897 29.3439 19.3897C29.8079 19.3897 30.4319 18.9257 30.7679 18.6697L30.9119 18.5737C30.9279 18.5577 30.9599 18.5577 30.9759 18.5737L31.1359 18.7817C31.1519 18.7977 31.1519 18.8137 31.1359 18.8297C30.8799 19.1657 29.8079 20.1257 28.7999 20.1257C27.9519 20.1257 27.3439 19.4857 27.3439 18.5577ZM31.0079 14.7497C30.3199 14.7497 29.5839 15.8697 29.3279 16.3337C30.7039 16.3177 31.4879 15.9017 31.4879 15.2297C31.4879 14.9577 31.2799 14.7497 31.0079 14.7497ZM26.8799 18.6217C26.8959 18.6057 26.8799 18.5737 26.8799 18.5737C26.8799 18.5577 26.6879 18.3337 26.6879 18.3337C26.6719 18.3177 26.6719 18.3177 26.6559 18.3177C26.6399 18.3177 26.6239 18.3177 26.6239 18.3337L26.5599 18.3977C26.0799 18.9257 25.8079 19.2297 25.5839 19.2297C25.5519 19.2297 25.5199 19.2297 25.4879 19.1977C25.4559 19.1657 25.4399 19.1017 25.4399 19.0377C25.4559 18.7337 25.9359 17.3417 26.9119 14.7817L27.6159 12.9417C27.9839 11.9817 28.1759 11.5017 28.1759 11.4377C28.1759 11.3897 28.1599 11.3577 28.1439 11.3417C28.1119 11.3097 28.0479 11.2937 27.9519 11.2937H26.2879C26.2559 11.2937 26.2399 11.3097 26.2399 11.3417L26.2239 11.6137C26.2239 11.6297 26.2399 11.6617 26.2559 11.6617L26.6239 11.6937C26.8639 11.7417 26.9599 11.8057 26.9439 11.9657C26.9279 12.2057 25.8559 14.8617 25.8559 14.8617C25.2799 16.3017 24.3039 18.7817 24.2879 19.3737C24.2719 19.6297 24.3359 19.8377 24.4639 19.9817C24.5759 20.1097 24.7519 20.1577 24.9599 20.1577C25.6319 20.1577 26.3039 19.3097 26.7519 18.7497L26.8799 18.6217ZM4.19189 23.6297C4.19189 24.4137 4.81589 24.8297 5.40789 25.1497L5.66389 25.2777C6.27189 25.5817 6.51189 25.8857 6.51189 26.3497C6.51189 26.8777 6.17589 27.2617 5.67989 27.2617C4.89589 27.2617 4.44789 26.4457 4.25589 25.9497V25.9337L3.98389 26.0297V26.0457C4.06389 26.5417 4.15989 27.0857 4.22389 27.2937L4.35189 27.3417L4.70389 27.4697C4.94389 27.5497 5.23189 27.6137 5.51989 27.6137C6.62389 27.6137 7.37589 26.9417 7.37589 25.9657C7.37589 25.0537 6.67189 24.6377 6.15989 24.3977L5.95189 24.3017C5.27989 23.9977 5.00789 23.6937 5.00789 23.2777C5.00789 22.8617 5.26389 22.4457 5.82389 22.4457C6.47989 22.4457 6.73589 22.9577 6.89589 23.4697V23.4857L7.18389 23.4377V23.4217C7.11989 23.0217 7.05589 22.6697 7.02389 22.3337V22.3177L6.83189 22.2537L6.67189 22.2057C6.46389 22.1257 6.19189 22.0937 5.93589 22.0937C4.91189 22.0777 4.19189 22.7177 4.19189 23.6297ZM7.98389 24.9257C7.98389 26.2537 8.91189 27.5977 10.9759 27.5977C11.5039 27.5977 12.2079 27.4377 12.4959 27.3577C12.6399 27.0377 12.8319 26.3497 12.9119 25.9977V25.9817L12.6559 25.9337V25.9497C12.2399 26.7977 11.8399 27.2617 10.9599 27.2617C9.82389 27.2617 9.05589 26.2377 9.05589 24.7337C9.05589 23.6777 9.55189 22.4457 10.9599 22.4457C11.7919 22.4457 12.2399 22.7977 12.4639 23.6297V23.6457L12.7199 23.6137L12.6879 23.2457L12.5759 22.3017H12.5599L12.4159 22.2697C12.1439 22.2057 11.6799 22.0937 11.1039 22.0937C9.27989 22.0777 7.98389 23.2457 7.98389 24.9257ZM18.9599 22.1897H16.6559V22.4457H16.6719C17.2639 22.4937 17.3439 22.5257 17.3439 23.4217V24.4937H14.8959V23.4217C14.8959 22.5417 14.9759 22.4937 15.5519 22.4457H15.5679V22.1897H13.2319V22.4457H13.2479C13.9359 22.4937 13.9839 22.5577 13.9839 23.4217V26.2537C13.9839 27.1017 13.9359 27.1817 13.2799 27.2297H13.2639V27.4857H15.5999V27.2297H15.5839C14.9759 27.1817 14.8959 27.1337 14.8959 26.2537V24.8937H17.3279V26.2537C17.3279 27.1177 17.2799 27.1817 16.5919 27.2297H16.5759V27.4857H18.9439V27.2297H18.9279C18.3199 27.1817 18.2399 27.1497 18.2399 26.2537V23.4217C18.2399 22.5577 18.2879 22.4937 18.9279 22.4457H18.9439L18.9599 22.1897ZM27.0719 22.1897H25.1999V22.4457L25.4879 22.4617C25.6479 22.4777 25.7279 22.5097 25.7759 22.5737C25.8079 22.6057 25.8079 22.6537 25.8079 22.7337C25.8079 22.8137 25.7919 22.9417 25.7439 23.1017C25.7279 23.1817 25.2799 24.9257 24.9279 26.1097C24.8639 25.9497 23.5199 22.2857 23.5199 22.2857V22.2697H23.1999C23.1999 22.2697 21.9999 26.0457 21.9839 26.1097C21.9359 25.9337 21.0399 22.9737 21.0399 22.9737C21.0079 22.8617 20.9919 22.7657 20.9919 22.7017C20.9919 22.6537 21.0079 22.6057 21.0239 22.5897C21.0719 22.5257 21.1519 22.4937 21.2959 22.4777L21.5519 22.4617V22.4457V22.2057H19.3439V22.4617H19.3599C19.7919 22.5097 19.9199 22.5577 20.1439 23.2457L21.4719 27.5657H21.8559C21.8559 27.5657 23.1039 23.8377 23.1039 23.7897C23.1679 23.9497 24.4799 27.5497 24.4799 27.5497V27.5657H24.8639V27.5497C25.6159 25.0537 26.2239 23.2937 26.2239 23.2777C26.4959 22.5417 26.5599 22.5097 27.0559 22.4617H27.0719V22.1897ZM28.4479 23.4697C28.4479 23.4857 27.8399 25.1817 27.8239 25.2137H29.0719C29.0559 25.1817 28.4639 23.4857 28.4479 23.4697ZM30.4959 26.4137C30.7679 27.1497 30.8959 27.1817 31.3439 27.2297H31.3599V27.4857H29.1999V27.2297L29.4399 27.1977C29.5839 27.1817 29.6639 27.1497 29.6959 27.1017C29.7119 27.0857 29.7119 27.0537 29.7119 27.0217C29.7119 26.9577 29.6959 26.8937 29.6639 26.7817C29.5839 26.5417 29.3919 26.0617 29.2319 25.6297H27.7439C27.6479 25.8377 27.5359 26.2057 27.4239 26.5257L27.3759 26.6537C27.3279 26.7977 27.3119 26.8937 27.3119 26.9737C27.3119 27.0217 27.3279 27.0537 27.3439 27.0857C27.3919 27.1497 27.4719 27.1817 27.6479 27.1977L27.8879 27.2297V27.4857H26.0639V27.2297H26.0799C26.5759 27.1657 26.6559 27.1337 26.9439 26.4137L28.5919 22.1737L28.9279 22.1417H28.9439L29.4879 23.6137L30.4959 26.4137ZM33.2959 24.4937H33.5999C34.3199 24.4937 34.7199 24.1417 34.7199 23.5017C34.7199 22.6057 33.9519 22.5257 33.7119 22.5257C33.4559 22.5257 33.3599 22.5577 33.3439 22.5577C33.2799 22.5897 33.2799 22.7337 33.2799 22.9097V24.4937H33.2959ZM33.9839 22.1897C34.5919 22.1897 34.9279 22.2537 35.2319 22.4617C35.5359 22.6697 35.6959 22.9737 35.6959 23.3897C35.6959 24.1257 34.9759 24.4777 34.5759 24.5577C35.4719 24.6857 35.9999 25.1817 35.9999 25.9177C35.9999 26.4457 35.7599 26.8457 35.2639 27.1497C34.9119 27.3577 34.3519 27.4697 33.7119 27.4697H31.6799V27.2137H31.6959C32.3039 27.1657 32.3839 27.1177 32.3839 26.2377V23.4057C32.3839 22.5257 32.3199 22.4777 31.7439 22.4297H31.7279V22.1737H31.7439H33.9839V22.1897ZM33.2959 24.8137V26.2377C33.2959 26.6377 33.3279 26.8937 33.4559 27.0217C33.5359 27.1017 33.6639 27.1337 33.9039 27.1337C34.4159 27.1337 34.9759 26.8457 34.9759 26.0137C34.9759 25.2457 34.4639 24.8137 33.5679 24.8137H33.2959Z" fill="white"/>
    </g>
    <defs>
        <clipPath id="clip0_41_2309">
            <rect width="40" height="40" fill="white" transform="translate(0 0.173828)"/>
        </clipPath>
    </defs>
</svg>
