<svg width="142" height="41" viewBox="0 0 142 41" fill="none" xmlns="http://www.w3.org/2000/svg">
    <g clip-path="url(#clip0_41_2336)">
        <path d="M30.9187 8.32307C30.8914 8.12438 30.7178 8.01415 30.5737 8.00215C30.4308 7.99015 27.6299 7.94759 27.6299 7.94759C27.6299 7.94759 25.2874 5.67281 25.056 5.4414C24.8246 5.20999 24.3727 5.27985 24.197 5.33224C24.1948 5.33334 23.7571 5.46869 23.0203 5.69682C22.897 5.29732 22.7157 4.80612 22.457 4.31274C21.6231 2.72127 20.4017 1.87969 18.9259 1.87752C18.9237 1.87752 18.9226 1.87752 18.9204 1.87752C18.8178 1.87752 18.7163 1.88734 18.6137 1.89607C18.5701 1.84367 18.5264 1.79238 18.4806 1.74216C17.8376 1.05449 17.0135 0.719386 16.0257 0.748858C14.1198 0.803435 12.2217 2.17987 10.6826 4.62493C9.59978 6.34519 8.77565 8.50648 8.54207 10.1798C6.35351 10.8576 4.82317 11.3313 4.78933 11.3423C3.68469 11.6894 3.64976 11.7232 3.50568 12.7646C3.39871 13.5515 0.508301 35.902 0.508301 35.902L24.7307 40.0913L35.2292 37.4814C35.2292 37.4814 30.9459 8.52176 30.9187 8.32307ZM21.8076 6.07231C21.2498 6.24477 20.6156 6.44125 19.9279 6.65411C19.9137 5.68918 19.7991 4.34659 19.3494 3.18627C20.7957 3.46025 21.5074 5.09647 21.8076 6.07231ZM18.6606 7.04706C17.3912 7.43999 16.006 7.86897 14.6165 8.29907C15.0073 6.80255 15.7484 5.3126 16.6588 4.33567C16.9972 3.97218 17.4709 3.56722 18.0319 3.33581C18.5591 4.43609 18.6737 5.99372 18.6606 7.04706ZM16.0638 2.01723C16.5114 2.0074 16.888 2.10565 17.21 2.3174C16.6948 2.58483 16.197 2.96906 15.7299 3.47007C14.5193 4.76901 13.5915 6.78509 13.2215 8.73022C12.0677 9.08714 10.9391 9.43756 9.89991 9.75848C10.556 6.69668 13.1221 2.10237 16.0638 2.01723Z" fill="#95BF47"/>
        <path d="M30.5747 8.00326C30.4318 7.99126 27.6308 7.94871 27.6308 7.94871C27.6308 7.94871 25.2884 5.67391 25.057 5.44251C24.9708 5.35627 24.854 5.31152 24.7317 5.29297L24.7328 40.0903L35.2302 37.4815C35.2302 37.4815 30.947 8.52287 30.9197 8.32418C30.8923 8.12549 30.7177 8.01526 30.5747 8.00326Z" fill="#5E8E3E"/>
        <path d="M18.9127 13.401L17.6935 17.9625C17.6935 17.9625 16.3334 17.3436 14.7212 17.4451C12.3569 17.5947 12.3318 19.0857 12.3559 19.4602C12.4846 21.5002 17.8517 21.9456 18.153 26.7243C18.3899 30.4836 16.1587 33.0553 12.9442 33.2583C9.08556 33.5017 6.96143 31.2259 6.96143 31.2259L7.77901 27.7482C7.77901 27.7482 9.9173 29.3615 11.6288 29.2535C12.7466 29.1825 13.1461 28.2733 13.1057 27.6303C12.9376 24.9691 8.56707 25.1263 8.29094 20.7536C8.05842 17.0741 10.4751 13.3453 15.8073 13.0091C17.8616 12.8771 18.9127 13.401 18.9127 13.401Z" fill="white"/>
        <path d="M49.0541 22.9526C47.8469 22.2976 47.2265 21.7454 47.2265 20.9865C47.2265 20.0208 48.0883 19.4004 49.4341 19.4004C51.0006 19.4004 52.3994 20.0554 52.3994 20.0554L53.5026 16.6754C53.5026 16.6754 52.4882 15.8818 49.5023 15.8818C45.3471 15.8818 42.4673 18.2614 42.4673 21.6068C42.4673 23.5036 43.8119 24.9522 45.6058 25.9861C47.0544 26.8132 47.5719 27.4001 47.5719 28.2618C47.5719 29.1583 46.8477 29.8826 45.503 29.8826C43.499 29.8826 41.6065 28.8475 41.6065 28.8475L40.4341 32.2275C40.4341 32.2275 42.1825 33.4001 45.1241 33.4001C49.4005 33.4001 52.4698 31.2965 52.4698 27.5029C52.4687 25.4697 50.9173 24.0211 49.0541 22.9526Z" fill="black"/>
        <path d="M66.0906 15.8484C63.9869 15.8484 62.3315 16.8488 61.0562 18.3656L60.9869 18.3309L62.8143 8.77881H58.055L53.4343 33.0906H58.1936L59.7797 24.7803C60.4 21.6417 62.0208 19.7113 63.5387 19.7113C64.6072 19.7113 65.0219 20.4356 65.0219 21.4706C65.0219 22.1256 64.9526 22.9192 64.8151 23.5742L63.0222 33.0917H67.7817L69.6434 23.2635C69.8506 22.2284 69.989 20.9878 69.989 20.1595C69.987 17.4692 68.5732 15.8484 66.0906 15.8484Z" fill="black"/>
        <path d="M80.7464 15.8486C75.0211 15.8486 71.229 21.0216 71.229 26.7801C71.229 30.4697 73.5044 33.4351 77.7811 33.4351C83.4021 33.4351 87.1956 28.4008 87.1956 22.5036C87.1956 19.0901 85.1949 15.8486 80.7464 15.8486ZM78.4015 29.7812C76.7805 29.7812 76.0906 28.4019 76.0906 26.6772C76.0906 23.9533 77.5051 19.5048 80.0913 19.5048C81.7811 19.5048 82.332 20.9533 82.332 22.3673C82.332 25.2979 80.9195 29.7812 78.4015 29.7812Z" fill="black"/>
        <path d="M99.3687 15.8486C96.1562 15.8486 94.3333 18.6765 94.3333 18.6765H94.2651L94.5411 16.1247H90.3339C90.1274 17.8494 89.747 20.4694 89.3687 22.4355L86.0579 39.8497H90.8172L92.1267 32.8147H92.231C92.231 32.8147 93.2074 33.4351 95.0244 33.4351C100.611 33.4351 104.266 27.7112 104.266 21.9169C104.266 18.7112 102.851 15.8486 99.3687 15.8486ZM94.8166 29.8494C93.5811 29.8494 92.85 29.1597 92.85 29.1597L93.6434 24.7112C94.1956 21.7458 95.747 19.7797 97.4028 19.7797C98.8513 19.7797 99.2992 21.1244 99.2992 22.4008C99.2992 25.4701 97.4716 29.8494 94.8166 29.8494Z" fill="black"/>
        <path d="M111.059 9.02002C109.542 9.02002 108.335 10.2272 108.335 11.7786C108.335 13.1925 109.232 14.1582 110.577 14.1582H110.645C112.129 14.1582 113.404 13.1579 113.439 11.3997C113.439 10.0203 112.508 9.02002 111.059 9.02002Z" fill="black"/>
        <path d="M104.404 33.0907H109.162L112.405 16.2285H107.611L104.404 33.0907Z" fill="black"/>
        <path d="M124.509 16.1938H121.198L121.37 15.4003C121.646 13.7796 122.612 12.331 124.198 12.331C125.045 12.331 125.715 12.5724 125.715 12.5724L126.646 8.84814C126.646 8.84814 125.818 8.43457 124.059 8.43457C122.369 8.43457 120.681 8.91739 119.404 10.0206C117.783 11.3999 117.024 13.3996 116.645 15.4003L116.508 16.1938H114.3L113.611 19.7807H115.818L113.301 33.0917H118.06L120.578 19.7807H123.854L124.509 16.1938Z" fill="black"/>
        <path d="M135.957 16.2287C135.957 16.2287 132.982 23.7237 131.647 27.8151H131.577C131.487 26.4975 130.405 16.2287 130.405 16.2287H125.404L128.268 31.7115C128.337 32.0558 128.302 32.2637 128.164 32.505C127.611 33.5736 126.681 34.6087 125.577 35.3676C124.681 36.0226 123.681 36.4361 122.888 36.7122L124.198 40.7472C125.164 40.5405 127.163 39.7469 128.853 38.1608C131.026 36.1265 133.026 32.9879 135.095 28.7115L140.923 16.2275H135.957V16.2287Z" fill="black"/>
    </g>
    <defs>
        <clipPath id="clip0_41_2336">
            <rect width="140.984" height="40" fill="white" transform="translate(0.508301 0.74707)"/>
        </clipPath>
    </defs>
</svg>
