<svg width="106" height="41" viewBox="0 0 106 41" fill="none" xmlns="http://www.w3.org/2000/svg">
    <g clip-path="url(#clip0_41_2348)">
        <path d="M7.14116 40.7471L6.96084 40.7201L6.78649 40.6624L6.65424 40.5878L6.5069 40.4615L6.38012 40.2908L6.2941 40.1123L6.23645 39.9114L6.21173 39.7673V39.5298L6.25566 39.0964L6.38607 38.2997L6.60849 37.2202L6.77323 36.3653L6.82861 35.9727L6.80937 35.921L6.69862 35.8692L6.24605 35.6835L5.60811 35.3787L4.90245 34.959L4.47139 34.6717L3.90621 34.2401L3.56894 33.9353L3.20469 33.5752L2.92462 33.2704L2.49948 32.7739L2.4075 32.6535L2.22902 32.4256L1.79793 31.8197L1.72107 31.6953L1.56594 31.4591L1.52566 31.4289L1.51239 31.45L1.51787 31.5992L1.56225 32.0133L1.64831 32.5808L1.87435 33.583L1.93203 33.9738L1.94164 34.3669L1.92837 34.5719L1.8881 34.7751L1.81899 34.9783L1.74989 35.0968L1.65241 35.235L1.51421 35.3672L1.36685 35.4647L1.22683 35.5224L1.08678 35.5494L0.914277 35.5457L0.776521 35.505L0.653875 35.4418L0.521621 35.3384L0.423694 35.2368L0.308841 35.0396L0.222339 34.7998L0.184352 34.5142V34.1408L0.21868 33.8131L0.371994 33.0425L0.554105 32.3163L0.609492 32.0133L0.634658 31.774L0.649769 31.7145L0.690046 31.3232L0.70147 30.6276L0.678594 30.1622L0.663483 30.0313L0.647926 29.8016L0.575165 29.3856L0.548156 29.2342L0.389367 28.6058L0.241555 27.9885L0.126702 27.1263L0.0864258 26.4994L0.0919282 26.0221L0.0978776 25.9535L0.0996931 25.6771L0.113435 25.3494L0.126702 25.2634L0.144076 24.9988L0.228288 24.3719L0.337666 23.7894L0.458469 23.2796L0.636502 22.6837L0.78018 22.2581L1.04469 21.6065L1.30325 21.0564L1.61398 20.4931L1.80344 20.1787L2.14847 19.6611L2.54523 19.1381L2.86147 18.7587L2.93423 18.6836L3.03811 18.5688L3.43668 18.1665L3.52684 18.086L3.89065 17.7579L4.4064 17.3556L4.63613 17.1927L4.90064 17.0087L4.92167 16.9721L4.91206 16.9222L4.81643 16.7479L4.76473 16.5795L4.72626 16.3168L4.73221 16.1214L4.79355 15.8587L4.88553 15.6478L5.03471 15.4006L5.17657 15.2203L5.46624 14.9522L5.61361 14.8469L5.63877 14.8066L5.62506 14.7682L5.51202 14.6744L5.39714 14.5151L5.33949 14.3907L5.31843 14.2932L5.31296 14.1088L5.34544 13.9422L5.42599 13.745L5.51202 13.6068L5.64428 13.4576L5.75913 13.3537L5.97194 13.216L6.17511 13.1295L6.47576 13.0434L6.78468 12.9935L7.00891 12.9881L7.2368 12.9785L7.2542 12.9574L7.24091 12.9171L7.17365 12.8192L7.09904 12.6641L7.06474 12.5204L7.06245 12.3803L7.08167 12.2691L7.13337 12.1465L7.21392 12.0257L7.31735 11.9222L7.47659 11.8243L7.60884 11.7786L7.70998 11.7575H7.94064L8.10308 11.79L8.36393 11.882L8.58816 12.0028L8.73553 12.1007L8.96752 12.2961L9.13229 12.4687L9.40275 12.8229L9.55788 13.0722L9.66312 13.2677L9.69561 13.302L9.70935 13.2658L9.69745 13.0778L9.62103 12.6581L9.54048 12.0563L9.47137 11.6349L9.37389 11.2532L9.31669 11.0999L9.24943 11.0001L9.17483 10.9393L9.08241 10.8624L9.0252 10.7571L8.99638 10.6171L8.97713 10.4867L8.92543 10.4103L8.822 10.2835L8.66092 10.1055L8.59001 10.0593L8.52091 10.0538L8.41197 10.0844L8.33692 10.0748L8.2605 10.0231L8.14381 9.89863L8.09758 9.87941L8.0477 9.89268L7.92139 9.99611L7.87153 10.0153L7.8102 10.0057L7.73149 9.95402L7.4958 9.71238L7.13932 9.24286L6.81716 8.73125L6.66751 8.44934L6.5014 8.06631L6.3037 7.52769L6.22865 7.40871L5.99297 7.13275L5.56967 6.69389L5.09054 6.19555L4.98301 6.12094L4.89698 6.09211L4.74917 6.06739L4.67822 6.02715L4.61507 5.92738L4.56932 5.7663L4.54231 5.55349L4.54826 5.40981L4.60957 5.08581L4.67822 4.87714L4.80497 4.58012L5.00038 4.20442L5.24752 3.77333L5.4832 3.42416L5.73625 3.09653L6.07581 2.69426L6.11975 2.64804L6.37465 2.38948L6.81121 2.00417L7.03407 1.82982L7.2885 1.64174L7.53608 1.4811L7.99418 1.19919L8.5154 0.957588L8.93323 0.825333L9.2627 0.758522L9.52171 0.74707L9.74963 0.779556L9.90704 0.831284L9.98941 0.888935L10.0292 0.949795L10.0484 1.07289L10.0274 1.21249L10.0425 1.2738L10.1121 1.36396L10.5244 1.83164L10.7248 2.04445L11.1696 2.53684L11.371 2.74415L11.4785 2.81277L11.7906 2.92995L12.0894 3.07362L12.3233 3.21138L12.7027 3.47589L13.0541 3.75777L13.5095 4.19847L13.6692 4.39982L13.7017 4.46116L13.6975 4.52431L13.6632 4.58976L13.5676 4.70461L13.5731 4.75997L13.6303 4.83686L13.7493 4.99978L13.7817 5.0881L13.7726 5.15857L13.7167 5.26611L13.7108 5.31186L13.7625 5.3947L13.9524 5.59561L14.06 5.68759L14.173 5.75119L14.3227 5.77591L14.3986 5.82213L14.4791 5.94431L14.5144 6.03262L14.5332 6.15161L14.5199 6.29166L14.4791 6.43899L14.3931 6.66736L14.2151 7.01789L13.9794 7.41831L13.7378 7.76933L13.4216 8.18896L13.1232 8.534L12.8235 8.86166L12.4093 9.25842L12.3137 9.33484L12.2217 9.41905L11.7275 9.81031L11.2959 10.1169L11.2483 10.1837L11.2291 10.2625L11.2058 11.93L11.2003 12.2806L11.1619 13.243L11.1696 13.2658H11.1966L11.2593 13.1583L11.3362 13.0128L11.4268 12.8649L11.5316 12.7043L11.7046 12.4856L11.9114 12.2614L11.9668 12.2156L12.1279 12.0888L12.3466 11.9511L12.5169 11.8705L12.7452 11.8014L12.92 11.769L13.1607 11.784L13.2916 11.8188L13.4518 11.8934L13.5767 11.9799L13.709 12.1236L13.7781 12.2577L13.8298 12.4147L13.8394 12.5798L13.8069 12.7176L13.7607 12.8306L13.6824 12.9611V12.9803L13.7126 12.9935H13.9886L14.2192 13.0375L14.4526 13.1295L14.583 13.21L14.7226 13.3459L14.8013 13.4649L14.8759 13.6319L14.907 13.7738L14.9125 13.9157L14.8819 14.069L14.8251 14.1916L14.7345 14.3142L14.6018 14.4213L14.4755 14.4923L14.4622 14.517L14.4856 14.5422L14.6467 14.6076L14.7592 14.6684L14.9592 14.7856L15.3193 15.0556L15.6008 15.3489L15.733 15.5443L15.825 15.7439L15.8767 15.9315L15.896 16.0752L15.89 16.2614L15.8543 16.4454L15.7788 16.6252L15.6827 16.7731L15.6699 16.8207L15.6891 16.8591L16.6126 17.4934L17.0153 17.8041L17.2528 18.0091L17.4116 18.1377L17.8431 18.5514L18.207 18.9578L18.4532 19.2451L18.7287 19.5902L18.9813 19.943L19.3149 20.4601L19.7748 21.2692L20.0974 21.9822L20.2599 22.4174L20.2983 22.5281L20.3752 22.7469L20.3921 22.8233L20.534 23.2892L20.5591 23.3944L20.6607 23.8411L20.7774 24.5925L20.8406 25.1673L20.8827 25.8381L20.8768 26.5626L20.825 27.5455L20.7655 28.1015L20.7294 28.3413L20.6699 28.69L20.6374 28.9106L20.5633 29.3724L20.534 29.7595L20.5353 29.8785L20.5317 29.9435L20.534 30.71L20.5605 31.0647L20.5761 31.2331L20.5724 31.283L20.5875 31.509L20.5784 31.7145L20.5916 31.7776L20.5724 31.8353L20.5052 32.4311L20.4475 32.7647L20.3633 33.1555L20.3367 33.2439L20.2182 33.6635L20.0814 34.0735L20.0169 34.2712L19.9839 34.3037H19.9299L19.8924 34.2653L19.8457 34.1193L19.7633 33.6443L19.6201 33.0864L19.2993 31.9575L19.2691 31.6779L19.2554 31.655H19.2403L19.2018 31.6989L19.0682 31.9286L18.7016 32.4426L18.3319 32.9006L18.1383 33.1189L17.6184 33.648L17.4652 33.788L17.0977 34.1156L16.7984 34.3609L16.3673 34.6831L15.8209 35.0451L15.3381 35.3325L14.8384 35.5855L14.265 35.8331L13.7241 36.0226L13.1859 36.1781L12.7562 36.2871L12.1146 36.4138L11.425 36.5035L10.8607 36.5497L9.97615 36.5438L9.68234 36.5209L9.52171 36.5154L8.76846 36.4234L7.996 36.2637L7.50315 36.1356L7.47843 36.1548L7.46882 36.1818L7.47659 36.3346L7.4958 36.4541L7.55301 36.8238L7.90952 38.593L7.96122 38.9285L8.00745 39.231L8.01887 39.6872L8.0056 39.9018L7.9539 40.1302L7.85598 40.3462L7.73562 40.4958L7.60884 40.6107L7.48986 40.6798L7.31917 40.7315L7.14116 40.7471Z" fill="#0067B1"/>
        <path d="M7.19301 40.2871L7.06076 40.283L6.9134 40.2372L6.80586 40.1686L6.70793 40.0491L6.63333 39.8903L6.58347 39.6661L6.57202 39.4881L6.61182 39.0396L6.67911 38.6374L6.74455 38.3033L6.75369 38.2173L6.85575 37.7093L6.96878 37.0499L6.98434 36.941L7.02828 36.7433L7.1166 36.2454L7.13171 36.2262L7.14863 36.2568L7.19667 36.5749L7.27172 37.1171L7.51107 38.3536L7.54173 38.5527L7.60718 38.9591L7.63919 39.3096L7.64698 39.5915L7.6145 39.8423L7.55682 40.0148L7.47674 40.1338L7.38661 40.2143L7.25617 40.272L7.19301 40.2871Z" fill="#EF4135"/>
        <path d="M19.8134 39.6025L19.6084 39.5755L19.4583 39.5298L19.3287 39.4497L19.1956 39.3284L19.0926 39.1696L19.029 39.0278L18.9897 38.8626L18.9736 38.6251L18.9796 38.5564L18.9736 38.5047L19.0084 38.1766L19.121 37.6229L19.2537 37.1286L19.326 36.8888L19.4262 36.5323L19.6372 35.8116L19.8033 35.0565L19.8861 34.57L19.909 34.5275L19.9438 34.5106L19.9763 34.5179L19.9987 34.5545L20.0202 34.6753L20.0372 34.9169L20.066 35.2903L20.1099 35.6203L20.1278 35.785L20.2115 36.2871L20.2422 36.4788L20.363 37.0458L20.5337 37.8892L20.5762 38.2937L20.5836 38.6022L20.5648 38.8511L20.5163 39.0218L20.4362 39.1962L20.3497 39.3174L20.2522 39.4282L20.1507 39.501L20.0202 39.5641L19.888 39.5971L19.8134 39.6025Z" fill="#0067B1"/>
        <path d="M2.67935 39.2979L2.46107 39.2923L2.27664 39.248L2.10045 39.1619L1.9856 39.0699L1.88399 38.9629L1.78058 38.7958L1.72291 38.6407L1.67487 38.4567L1.65015 38.1826L1.65381 37.9584L1.71148 37.5154L1.84374 36.8601L1.98191 36.2624L2.089 35.8387L2.15995 35.5032L2.20983 35.2886L2.26337 35.0204L2.44001 34.1844L2.55852 33.4334L2.57179 33.2764L2.60293 33.2243L2.63128 33.2169L2.6638 33.2302L2.68117 33.2915L2.74066 33.7707L2.86149 34.507L3.1086 35.6817L3.22345 36.1549L3.2349 36.2162L3.28479 36.4363L3.36716 36.866L3.42115 37.1305L3.49575 37.665L3.51313 38.016L3.5017 38.3089L3.45729 38.5451L3.38272 38.7615L3.31956 38.8819L3.21613 39.0182L3.14888 39.0873L3.11455 39.1217L2.92464 39.231L2.77315 39.2827L2.67935 39.2979Z" fill="#0067B1"/>
        <path d="M19.8076 39.166L19.6708 39.1564L19.5866 39.1221L19.4837 39.0301L19.426 38.9418L19.3683 38.7825L19.3436 38.6407L19.3418 38.3611L19.3761 38.1135L19.4068 37.9684L19.4374 37.7689L19.5921 37.1214L19.7285 36.6303L19.8571 36.0226L19.8777 35.9983L19.9088 36.1109L19.9609 36.5406L20.0525 37.2362L20.1042 37.541L20.2039 38.2924L20.2094 38.4874L20.2039 38.5336V38.6141L20.1774 38.7656L20.1252 38.9111L20.0452 39.0356L19.9376 39.1161L19.8076 39.166Z" fill="#EF4135"/>
        <path d="M2.63917 38.8438L2.51286 38.8401L2.40533 38.8113L2.29824 38.7481L2.19481 38.6465L2.11976 38.5257L2.05661 38.3514L2.02963 38.2342L2.02002 38.031L2.06256 37.6246L2.17744 36.9867L2.371 36.1186L2.59113 34.9265L2.60303 34.9073L2.62361 34.959L2.68905 35.4308L2.77922 35.8596L2.80394 36.0092L2.96683 36.7396L3.02266 37.0727L3.05881 37.2682L3.11054 37.6649L3.12243 38.0328L3.07805 38.3472L3.03227 38.4854L2.95722 38.6273L2.85974 38.7367L2.74673 38.8113L2.63917 38.8438Z" fill="#EF4135"/>
        <path d="M11.0104 36.2451L10.9047 36.23L10.6905 36.1609L10.6232 36.1147L10.577 36.0438L10.5464 35.9422L10.4969 35.8159L10.4452 35.7719L10.3702 35.7298L10.3244 35.6703L10.3029 35.4058L10.2919 35.1528L10.2649 34.8979L10.2782 34.8576L10.366 34.8306L10.4699 34.8192H10.6136L10.6401 34.8343L10.5985 34.9496L10.6045 35.139L10.6232 35.1912L10.7207 35.3175L10.7916 35.356L10.8726 35.3656L10.9321 35.3445L11.0296 35.2406L11.0776 35.2196L11.1884 35.193L11.2081 35.2026L11.2117 35.2676L11.2099 35.3235L11.2502 35.4269L11.2923 35.5147L11.2826 35.5976L11.2753 35.6589L11.3014 35.7545L11.3687 35.8484L11.3728 35.9115L11.3344 36.0191L11.2707 36.1206L11.2268 36.1724L11.1733 36.2012L11.0621 36.2318L11.0104 36.2451Z" fill="white"/>
        <path d="M9.21086 36.2393L9.12849 36.2351L9.03878 36.2159L8.94635 36.2068L8.92529 36.1894L8.98663 36.1569L9.29139 36.0457L9.39711 35.994L9.45431 35.9267L9.5138 35.8173L9.56735 35.783L9.6822 35.7674L9.77281 35.7716L9.78426 35.7885L9.77647 35.8155L9.73988 35.8384L9.61539 35.8805L9.5829 35.9189L9.54629 36.0457L9.50235 36.1029L9.21086 36.2393Z" fill="white"/>
        <path d="M9.9067 35.6758L9.84723 35.6721L9.83167 35.6067L9.82617 35.463L9.84355 35.2507L9.83578 35.1335L9.84128 35.0644L9.86826 34.9381L9.88748 34.8749L9.91815 34.8594H10.0673L10.1039 34.8804L10.1255 34.9514L10.1653 35.285L10.1712 35.5609L10.1497 35.6049L10.114 35.6259L9.9067 35.6758Z" fill="white"/>
        <path d="M12.5227 35.2905L12.4188 35.2809L12.3136 35.2352L12.2101 35.1372L12.1525 35.0434L12.0719 34.8366L12.0339 34.5775L12.0303 34.3497L12.0628 33.9222L12.141 33.5195L12.1776 33.3932L12.1868 33.3337L12.2174 33.1978L12.2962 32.8738L12.325 32.747L12.4591 32.1169L12.503 31.8483L12.5186 31.8446L12.5396 31.921L12.584 32.2029L12.6586 32.5846L12.7501 32.9694L12.8119 33.1823L12.892 33.4966L12.9689 33.9241L12.994 34.227L12.9867 34.616L12.9442 34.8306L12.8695 35.0182L12.795 35.1372L12.7021 35.2178L12.5973 35.2695L12.5227 35.2905Z" fill="#EF4135"/>
        <path d="M1.11538 35.0493L1.01379 35.0452L0.92958 35.0109L0.808778 34.9189L0.7168 34.7885L0.659151 34.6562L0.615215 34.4567L0.597814 34.2384L0.603763 33.957L0.6651 33.5126L0.831653 32.7246L0.925474 32.2839L0.941032 32.1823L0.989073 31.8638L1.01013 31.678L1.02935 31.5824L1.06368 31.1797V30.4955L1.01793 30.0411L0.910363 29.3725L0.766686 28.5579L0.697584 28.1726L0.529159 26.9997L0.494385 26.4821L0.519551 25.3628L0.6651 24.2476L0.779953 23.6806L0.895281 23.228L1.07329 22.6587L1.28014 22.0917L1.6023 21.3632L1.92996 20.7518L2.36105 20.064L2.64293 19.6732L3.01087 19.2187L3.41358 18.7758L3.84467 18.3447L4.30456 17.9539L4.66473 17.6834L5.04409 17.4248L5.19374 17.331L5.22852 17.2848L5.27611 17.2793L5.33561 17.2583L5.41247 17.2638L5.57721 17.3004L5.76119 17.2944L5.91037 17.2619L6.07559 17.1928L6.24032 17.0894L6.39545 16.9631L6.46637 16.8958L6.51078 16.9L6.54463 16.9494L6.61558 17.0491L6.68834 17.1182L6.80733 17.1873L6.94735 17.2391L7.00868 17.2487L7.21551 17.2427L7.35922 17.1988L7.48231 17.1297L7.62602 17.0203L7.88457 16.7444L8.28315 16.2575L8.41356 16.1485L8.54582 16.068L8.68173 16.0163L8.7989 15.9797L8.82588 15.9431L8.81583 15.901L8.73346 15.8726L8.6529 15.8685L8.48451 15.8955L8.33304 15.9531L8.18338 16.0392L8.04152 16.154L7.69464 16.5146L7.59169 16.6295L7.43793 16.7503L7.3345 16.7906L7.20406 16.8002L7.0741 16.7677L7.00134 16.7215L6.94369 16.6487L6.90159 16.5201L6.89975 16.4089L6.94369 16.225L7.04712 16.0145L7.18532 15.8438L7.329 15.7115L7.50703 15.5852L7.70059 15.4873L7.98432 15.3838L8.20673 15.3376L8.54948 15.3166L8.88722 15.355L9.11877 15.4127L9.50226 15.5678L9.67479 15.6657L9.91414 15.8552L9.97774 15.9394L10.0423 16.0373L10.0734 16.0524L10.1155 16.0433L10.1388 16.0026L10.1594 15.8859V14.9775L10.1255 14.2242L10.0908 13.7067L10.0697 13.5209L10.0386 13.0628L10.0121 12.8253L9.92969 11.9759L9.85693 11.4931L9.79926 11.2401L9.71323 10.9719L9.63267 10.8282L9.50821 10.6804L9.46199 10.5806L9.45238 10.5445L9.45604 10.4104L9.53109 10.1189L9.68027 9.76469L9.87567 9.41918L10.1576 8.99588L10.439 8.62795L10.7841 8.24264L11.244 7.77677L11.417 7.62164L11.6357 7.42073L12.0187 7.11L12.4805 6.77092L12.9843 6.45468L13.3101 6.28218L13.5289 6.18422L13.7257 6.12702L13.8913 6.11741L13.9792 6.14992L14.0424 6.22679L14.0574 6.32427L14.0195 6.52563L13.8932 6.81119L13.5133 7.39557L13.3298 7.6372L13.2333 7.7539L13.0246 8.01656L12.6182 8.46502L12.2023 8.88466L11.5414 9.44801L11.1465 9.74363L10.9566 9.91571L10.8825 10.0384L10.8417 10.1381L10.8321 10.2397L10.8454 11.5892L10.8651 11.9952L10.8605 12.0565L10.8669 12.1599L10.8651 13.0783L10.8417 14.2627L10.8321 14.3967L10.7982 15.1788L10.7594 15.8552L10.7781 15.9129L10.8037 15.9339H10.8532L11.1506 15.7229L11.2943 15.6484L11.5222 15.5564L11.708 15.5102L11.8096 15.4951L12.0627 15.5005L12.2178 15.539L12.3423 15.5907L12.4956 15.6886L12.599 15.792L12.7024 15.9568L12.745 16.0854L12.7523 16.2195L12.7258 16.3824L12.6681 16.5146L12.5706 16.6295L12.394 16.7444L12.2562 16.7984L12.2196 16.8364L12.2388 16.8766L12.281 16.9055L12.3848 16.9151L12.5514 16.8881L12.7107 16.8249L12.8347 16.7389L12.9615 16.597L13.036 16.4492L13.0882 16.2826L13.1015 16.1463L13.0823 15.9797L13.0479 15.8762L12.9788 15.7403L12.9555 15.7001L13.0022 15.7056L13.1916 15.8323L13.2891 15.9051L13.5074 16.0794L13.6172 16.181L13.9389 16.4876L14.1 16.6428L14.3609 16.8592L14.5791 17.0034L14.7416 17.0839L14.8624 17.1164L15.0413 17.1279L15.2134 17.1105L15.2843 17.1375L15.6349 17.3388L16.0202 17.5859L16.584 17.9882L17.0897 18.4138L17.1871 18.5039L17.5153 18.8165L17.5725 18.8773L17.7912 19.1039L18.1189 19.4832L18.1788 19.5674L18.274 19.6828L18.5444 20.0393L18.598 20.1193L19.0273 20.7577L19.1883 21.0259L19.424 21.4821L19.5869 21.8386L19.6098 21.9036L19.7521 22.2468L19.953 22.8143L20.131 23.4197L20.2001 23.6897L20.2908 24.1652L20.3864 24.8114L20.4321 25.231L20.4358 25.3093L20.4495 25.5472L20.455 25.7179L20.4381 25.7751L20.4665 25.8996L20.4724 26.6798L20.4688 26.9539L20.461 27.3086L20.4285 27.5804L20.4166 27.8106L20.4052 27.8564L20.39 28.0577L20.3557 28.3433L20.2349 29.0888L20.1736 29.7349L20.1484 29.9111L20.1521 30.7371L20.1791 31.5805L20.164 31.9558L20.137 32.1974L20.0336 32.7433L19.9873 32.8665L19.9649 32.8628L19.9375 32.807L19.8034 32.3988L19.6615 32.0116L19.5846 31.6725L19.5393 31.2181L19.5544 30.3518L19.5311 29.9665L19.4414 29.3189L19.3458 28.8586L19.311 28.7263L19.2748 28.4028L19.2844 27.9603L19.311 27.6646L19.3421 27.477L19.3476 27.1956L19.3206 26.9997L19.24 26.7412L19.1714 26.5933L19.0849 26.4616L18.9641 26.3366L18.8648 26.2735L18.7495 26.2332L18.6346 26.2295L18.5156 26.2675L18.4026 26.354L18.2987 26.473L18.2301 26.5993L18.1321 26.8752L18.0864 27.1054L18.0269 27.5425L17.9404 27.8372L17.8736 28.0367L17.7875 28.4756L17.7683 28.7341L17.7725 28.9373L17.7949 29.081L17.81 29.2361L17.8658 29.4741L17.9084 29.6503L17.9404 29.7615L18.0713 30.3578L18.0983 30.6799L18.0882 30.8232L18.0383 30.9939L17.9656 31.1261L17.8905 31.2108L17.8008 31.268L17.7491 31.2835L17.6612 31.2794L17.5898 31.2506L17.5116 31.1934L17.4366 31.1051L17.3734 30.9902L17.3331 30.8232L17.3235 30.6218L17.3386 30.4227L17.3789 30.139L17.5574 29.3496L17.6416 29.016L17.6855 28.719L17.6956 28.4696L17.6649 28.2856L17.6013 28.0825L17.5038 27.8756L17.3368 27.6134L17.1185 27.3429L16.8888 27.1361L16.589 26.9173L16.1891 26.6739L15.9566 26.473L15.8266 26.3293L15.7058 26.1527L15.526 25.8653L15.2843 25.5202L15.0775 25.3134L14.8949 25.1926L14.753 25.1349L14.5846 25.0891L14.4547 25.074L14.2588 25.0832L14.0346 25.1349L13.895 25.1985L13.7399 25.3134L13.6245 25.4282L13.5092 25.593L13.4497 25.7271L13.3829 25.8616L13.3024 26.143L13.2374 26.5933L13.209 27.1974L13.2127 27.2757L13.1957 27.753L13.1514 28.1708L13.0763 28.4929L12.9615 28.8398L12.8347 29.1524L12.7221 29.4109L12.5958 29.8114L12.5267 30.1106L12.5015 30.2214L12.4864 30.2177L12.3807 29.8287L12.2196 29.4375L12.059 29.0947L11.8576 28.7172L11.7387 28.5103L11.5666 28.1882L11.4627 27.9351L11.3593 27.6152L11.244 27.1013L11.1099 26.3293L11.0069 25.9495L10.909 25.7138L10.8225 25.5605L10.731 25.4397L10.704 25.4168L10.6404 25.3591L10.5598 25.3074L10.4587 25.2809H10.3324L10.2189 25.3248L10.1233 25.3994L10.0368 25.5239L9.9338 25.7541L9.81071 26.0666L9.71323 26.2369L9.58097 26.4094L9.19748 26.7791L9.08215 26.9389L9.00758 27.0862L8.95219 27.2816L8.92886 27.4253L8.91194 27.8907L8.94624 28.4257L9.13022 29.4837L9.14578 29.8576L9.13617 30.0013L9.10366 30.1372L9.0364 30.2406L8.9618 30.2964L8.88309 30.3289L8.80256 30.3253L8.74307 30.2905L8.67991 30.2237L8.63414 30.139L8.59936 30.0301L8.57833 29.8978L8.59341 29.5812L8.65109 29.2805L8.78516 28.6728L8.84879 28.3163L8.86571 28.0349L8.83323 27.7434L8.76457 27.4578L8.65109 27.1265L8.58199 26.8716L8.5321 26.5284L8.50191 26.2597L8.45934 26.0588L8.37879 25.852L8.26394 25.6561L8.14358 25.5088L8.00124 25.3994L7.89234 25.3422L7.75643 25.3074L7.69878 25.2978L7.52625 25.3074L7.37659 25.3477L7.2178 25.4227L7.03566 25.5605L6.75194 25.8117L6.53547 25.9554L6.35702 26.0419L6.07374 26.1334L5.61154 26.2391L5.40652 26.3197L5.25139 26.4268L5.06331 26.6185L4.937 26.8025L4.85097 26.9617L4.78737 27.1535L4.73749 27.385L4.72604 27.7241L4.73199 27.9832L4.7297 28.4412L4.6821 28.832L4.6304 29.016L4.31601 29.7327L4.21076 30.0855L4.19336 30.1024L4.17415 30.0068L4.14166 29.815L3.99796 29.3821L3.90782 29.1734L3.80439 28.8705L3.73529 28.5543L3.69731 28.2536L3.65658 27.5978L3.62407 27.3965L3.58382 27.3027L3.51106 27.2336L3.44972 27.2125L3.37515 27.2221L3.3097 27.2564L3.2525 27.3178L3.18935 27.45L3.13167 27.6669L3.03788 28.282L2.96283 28.5447L2.8539 28.7977L2.80401 28.9066L2.69466 29.1981L2.64888 29.3917L2.62967 29.453L2.60084 29.4915L2.5473 29.497L2.50473 29.459L2.4704 29.3611L2.40725 29.1235L2.22329 28.6554L2.17891 28.4833L2.12718 28.0921L2.11987 27.7379L2.0947 27.6573L2.05442 27.6074L1.99311 27.5827L1.92446 27.602L1.87231 27.6688L1.83204 27.753L1.76888 27.9717L1.73042 28.3049L1.70939 28.5177L1.68467 28.7135L1.49706 29.4741L1.33779 30.0717L1.23436 30.5989L1.17853 30.9957L1.16711 31.3522L1.18448 31.7087L1.22842 32.094L1.23802 32.1384L1.25129 32.2628L1.395 33.0619L1.51214 33.698L1.55608 34.1428L1.54691 34.3821L1.51032 34.5931L1.43938 34.7944L1.3648 34.9075L1.33184 34.9358L1.23436 35.0109L1.11538 35.0493Z" fill="#EF4135"/>
        <path d="M10.936 34.8247L10.8801 34.821V34.8055L10.9305 34.8018L10.9456 34.8114L10.936 34.8247Z" fill="white"/>
        <path d="M9.8835 34.7441H9.72286L9.68625 34.7231L9.60569 34.595L9.57321 34.497L9.54072 34.2403L9.54989 34.06L9.52927 34.0179L9.49268 33.995L9.34487 33.9639L9.29543 33.9259L9.20896 33.7822L9.17645 33.6747L9.18424 33.6056L9.21491 33.5635L9.27622 33.5154L9.28582 33.4619L9.23594 33.3241L9.24921 33.293L9.33752 33.2665L9.56955 33.234L9.61533 33.2111L9.63454 33.1649L9.6208 33.1264L9.58466 33.1059L9.435 33.1113L9.26842 33.1324L9.21491 33.1187L9.1879 33.0656L9.192 32.9827L9.20896 32.9539L9.24007 32.9461L9.33752 32.9562L9.41397 32.9233L9.50045 32.8564L9.61533 32.705L9.63041 32.6629L9.6208 32.5805L9.5636 32.3887L9.4428 32.138L9.37004 32.019L9.31283 31.9174L9.22633 31.7888L9.20527 31.7312L9.21491 31.6163L9.22862 31.5531L9.22038 31.484L9.17829 31.4076L9.09821 31.3037L8.91378 31.1202L8.82957 31.0337L8.70692 30.9074L8.66483 30.8919L8.54034 30.8996L8.48683 30.8667L8.42915 30.8612L8.33717 30.8745L8.24106 30.842L8.10104 30.7752L7.90745 30.7102L7.88092 30.6868V30.6544L7.92896 30.6255L8.27173 30.5317L8.32161 30.4933V30.4397L8.29508 30.4068L8.23559 30.4013L7.82327 30.5143L7.76193 30.518L7.71799 30.4969L7.66034 30.4416L7.6068 30.4205L7.51848 30.4301L7.38441 30.4686L7.24481 30.4777L7.06086 30.4667L6.93592 30.4992L6.77347 30.5779L6.57578 30.6255L6.43802 30.6772L6.40875 30.7157L6.38403 30.8132L6.33599 30.842L6.18862 30.8726L6.16756 30.8882L6.14835 30.982L6.09299 31.0378L6.08885 31.1047L6.0907 31.1486L6.05637 31.193L5.89529 31.2639L5.83993 31.3211L5.74016 31.4689L5.63307 31.5609L5.38002 31.7467L5.28756 31.8483L5.21891 31.9668L5.14386 32.1357L5.10772 32.2332L5.02719 32.3563L5.0139 32.3924L5.0235 32.4615L5.07889 32.5764L5.10406 32.6592L5.17087 32.7375L5.20335 32.8121L5.19374 32.8487L5.16492 32.8624L5.04227 32.8372L4.84505 32.7819L4.76084 32.7777L4.71875 32.7988L4.69953 32.8331L4.7128 32.872L4.81623 32.9118L5.15576 33.0171L5.18827 33.0441L5.19788 33.0944L5.19193 33.1685L5.20749 33.2051L5.26285 33.2779L5.25737 33.3218L5.21296 33.3662L5.03314 33.4541L4.97731 33.5099L4.93703 33.6193L4.91781 33.7072L4.88714 33.7323L4.83178 33.7227L4.65925 33.6422L4.07485 33.3145L3.47081 32.9233L3.1317 32.6821L2.86538 32.4597L2.83837 32.4057L2.84432 32.3274L2.88459 32.2181L2.91523 32.197L2.97062 32.2066L3.35959 32.3833H3.41908L3.44425 32.3467L3.44014 32.2853L3.40766 32.2469L2.97473 32.0382L2.92853 31.9897L2.92073 31.9668L2.93263 31.6108L2.91157 31.3463L2.92484 31.2982L2.96696 31.2831L3.08776 31.2772H3.22552L3.55318 31.2543L3.58977 31.2387L3.61862 31.1966L3.61496 31.1582L3.582 31.1317L3.50145 31.1275L2.92668 31.1449L2.88825 31.1294L2.86124 31.0873L2.78482 30.8191L2.69879 30.6123L2.691 30.5756L2.70611 30.539L2.83652 30.453L3.6932 29.9684L3.7678 29.9011L3.77375 29.8627L3.75269 29.832H3.70281L3.56324 29.9011L2.87314 30.3075L2.68324 30.4109L2.6274 30.4205L2.58531 30.3935L2.50291 30.2631L2.30203 30.016L2.06819 29.7972L1.88421 29.6577L1.86865 29.627L1.88971 29.4563L1.94921 29.092L1.97024 28.9296L1.99314 28.8815L2.0087 28.8966L2.1254 29.3854L2.21737 29.6421L2.367 29.9185L2.51071 30.1006L2.62603 30.221L2.65623 30.2425L2.6869 30.2384L2.72943 30.0773L2.81365 29.9185L2.90562 29.6595L2.99944 29.3414L3.09142 29.1401L3.15871 29.0097L3.29096 28.6765L3.34451 28.4385L3.37881 28.1992L3.39621 28.1685L3.41727 28.1859L3.4557 28.3736L3.47263 28.5575L3.55134 28.9428L3.70099 29.3776L3.7797 29.5712L3.84285 29.7917L3.88129 30.064L3.89045 30.3496L3.87534 30.5354L3.80808 30.9033L3.60901 31.6145L3.53212 32.1073L3.53028 32.2661L3.55318 32.4382L3.60306 32.6015L3.67217 32.7452L3.75635 32.8546L3.86023 32.9406L3.97326 32.9983L4.06524 33.0194L4.22587 33.0134L4.35081 32.9695L4.46932 32.8949L4.57323 32.7855L4.6478 32.6725L4.7169 32.4922L4.75489 32.3004V32.0647L4.71875 31.7334L4.53661 30.7193L4.52516 30.6045L4.53066 30.3226L4.59792 30.0237L4.73017 29.6979L4.90089 29.3492L5.04456 28.9584L5.11137 28.6724L5.1576 28.3273L5.1631 27.9654L5.15165 27.856L5.1576 27.5686L5.19008 27.3846L5.23036 27.2313L5.28756 27.1183L5.39144 26.986L5.50037 26.8881L5.68248 26.7787L5.98545 26.6639L6.32272 26.5586L6.6101 26.4204L6.82702 26.2827L7.21965 25.9857L7.42466 25.8589L7.56652 25.8017L7.67043 25.7807L7.7752 25.7903L7.90379 25.836L7.95368 25.8745L8.03423 25.9893L8.08593 26.1294L8.1912 26.7774L8.28913 27.0744L8.44242 27.3984L8.48864 27.5434L8.52478 27.8176L8.52663 28.04L8.48864 28.3488L8.38477 28.8275L8.32938 29.0138L8.24885 29.3606L8.21818 29.6114L8.21637 29.9377L8.25433 30.1464L8.32938 30.3381L8.40993 30.4741L8.51336 30.5894L8.64927 30.6868L8.76642 30.7331L8.85429 30.7482L9.0076 30.7386L9.16318 30.6928L9.25882 30.6351L9.36819 30.5377L9.45422 30.4187L9.52332 30.2654L9.57321 30.0755L9.59061 29.9318L9.57916 29.6787L9.51785 29.2687L9.27988 28.1667L9.26842 28.0628L9.27393 27.7237L9.30688 27.5265L9.35264 27.4098L9.42769 27.2908L9.52517 27.1874L9.82216 26.9554L9.95992 26.8172L10.0757 26.6469L10.1443 26.5106L10.2267 26.2593L10.2958 26.1463L10.3457 26.1005L10.407 26.0873L10.472 26.112L10.5525 26.1907L10.6445 26.3362L10.7365 26.5527L10.8399 26.9362L10.9205 27.3347L10.9685 27.5933L11.0605 27.8944L11.1699 28.1818L11.2907 28.4289L11.3346 28.5058L11.4284 28.6934L11.708 29.2032L12.0128 29.8682L12.1336 30.2132L12.2375 30.6676L12.2792 30.9646L12.2846 31.2447L12.2544 31.3824L12.2274 31.4053H12.1702L12.0723 31.3596L12.0032 31.2923L11.9785 31.2273L11.9492 31.1028L11.8998 31.0397L11.8389 31.0067L11.7771 31.0163L11.6005 31.1257L11.4975 31.2273L11.3767 31.3019L11.1122 31.3902L10.9685 31.4863L10.8729 31.5069L10.7653 31.5032L10.7095 31.4804L10.6697 31.436L10.618 31.3001L10.612 31.1564L10.6404 31.0067L10.6271 30.9417L10.5196 30.8498L10.4491 30.8209L10.3837 30.8132L10.234 30.8228L10.0848 30.7939L9.99148 30.804L9.68214 30.9111L9.56178 30.9074L9.51966 30.9363L9.4945 30.9742H9.46796L9.41579 30.8575L9.36224 30.7271L9.33571 30.6946L9.28582 30.6887L9.24373 30.7157L9.23046 30.7692L9.36819 31.1815L9.38146 31.2657L9.36819 31.3326L9.27622 31.4534L9.25882 31.5092L9.27806 31.549L9.37965 31.6241L9.46017 31.6662L9.5119 31.7275L9.58648 31.9805L9.70731 32.4656L9.81484 32.9846L9.80889 33.1516L9.82995 33.2051L9.86838 33.2569L9.93154 33.5502L10.0601 34.378L10.0908 34.6696L10.0697 34.7117L9.96952 34.7387L9.8835 34.7441Z" fill="white"/>
        <path d="M10.292 34.7041L10.2476 34.6831L10.2343 34.6409L10.2114 34.3531L10.2247 34.3453L10.2993 34.4126L10.3666 34.4341L10.551 34.4455L10.6485 34.4282L10.6677 34.4378L10.664 34.4817L10.616 34.5778L10.6219 34.6501L10.5771 34.6716L10.3666 34.6982L10.292 34.7041Z" fill="white"/>
        <path d="M10.8607 34.6406L10.7957 34.631L10.7861 34.5949L10.8136 34.5335L10.9893 34.2594L11.0355 34.1825L11.1509 34.0562L11.2538 33.9835L11.3843 33.9144L11.4268 33.918L11.4666 33.9469L11.4822 33.9853L11.4726 34.0599L11.4268 34.1423L11.3078 34.3093L11.204 34.4891L11.095 34.5967L10.901 34.6351L10.8607 34.6406Z" fill="white"/>
        <path d="M10.2168 34.2788H10.1999L10.161 34.0756L10.0466 33.332L10.01 33.1796L10.3207 33.1041L10.4928 33.0675L10.8841 32.9737L10.9568 32.9833L11.0182 33.0446L11.0337 33.1059L11.0122 33.2208L11.0369 33.2917L11.0927 33.3434L11.1564 33.3915L11.1751 33.4317L11.1445 33.5105L10.7266 33.9489L10.6328 34.1159L10.5637 34.1827L10.4644 34.2157L10.2974 34.2216L10.2434 34.2427L10.2168 34.2788Z" fill="white"/>
        <path d="M4.73206 33.876L4.59388 33.8664L4.48085 33.8375L4.39069 33.7803L4.20123 33.644L4.12067 33.5904L3.82734 33.3451L3.77198 33.3241L3.5935 33.3529L3.52259 33.3259L3.38483 33.211L3.01094 32.8605L2.84436 32.6784L2.81372 32.6244L2.83841 32.6207L3.19308 32.8678L3.33128 32.9694L3.9596 33.4005L4.24151 33.5579L4.6076 33.7629L4.74536 33.8339L4.75907 33.8549L4.73206 33.876Z" fill="white"/>
        <path d="M10.2745 33.6001L10.2132 33.5845L10.1459 33.5232L10.1272 33.4678L10.1345 33.418L10.1844 33.3621L10.2613 33.3278L10.4393 33.2935L10.545 33.2894L10.6045 33.3109L10.6292 33.3585L10.61 33.4619L10.5812 33.5388L10.5395 33.5598L10.4219 33.5411L10.2745 33.6001Z" fill="#0067B1"/>
        <path d="M10.0675 33.0137L9.99478 33.01L9.96185 32.9716L9.85292 32.481L9.75684 32.0421L9.76094 31.9881L9.81633 31.9941L9.91836 32.0133L10.0026 32.0055L10.0406 31.9863L10.0923 31.9483H10.1518L10.2877 31.9804L10.3398 32.011L10.3861 32.0668L10.4684 32.2417L10.5526 32.3368L10.5563 32.3982L10.5508 32.4847L10.5773 32.5441L10.6442 32.6073L10.6867 32.7396L10.748 32.8087V32.8375L10.6849 32.8659L10.3664 32.9464L10.0675 33.0137Z" fill="white"/>
        <path d="M4.16274 32.5654L4.07671 32.5558L3.99387 32.5096L3.94217 32.4542L3.89642 32.3467L3.88086 32.2373L3.89228 32.0021L3.95362 31.5843L4.16092 30.5414L4.17235 30.5263L4.18746 30.5551L4.35038 31.7568L4.3641 32.0135L4.35815 32.278L4.32566 32.4217L4.27393 32.5059L4.21444 32.5499L4.16274 32.5654Z" fill="#EF4135"/>
        <path d="M2.65066 32.4102L2.60306 32.3946L2.51656 32.3045L2.28091 31.9942L2.0681 31.6743L1.97978 31.5379L1.81504 31.2812L1.61964 30.9265L1.55648 30.754L1.54688 30.6739L1.57936 30.5225L1.69421 30.1751L1.77842 29.9491L1.81504 29.8475L1.85163 29.8305L1.90107 29.8438L2.08321 29.982L2.19851 30.1065L2.39391 30.3536L2.50285 30.5321L2.61222 30.76L2.6987 30.9993L2.74445 31.1892L2.78657 31.4711L2.79434 31.7832L2.76964 32.0386L2.7042 32.3351L2.66987 32.4005L2.65066 32.4102Z" fill="white"/>
        <path d="M14.7997 31.5532L14.7113 31.5436L14.6331 31.5244L14.5429 31.5148L14.4935 31.4709L14.4642 31.421L14.4587 31.3807L14.4857 31.3386L14.5256 31.3212L14.6079 31.302L14.6807 31.2178L14.7553 31.1432L15.0623 30.9135L15.0953 30.9075L15.1063 30.9112L15.1008 30.9533L15.0202 31.0778L14.9072 31.1949L14.8802 31.2599L14.8894 31.3139L14.9337 31.3482L15.0065 31.3578L15.2001 31.302L15.2728 31.2503L15.5378 30.9418L15.5529 30.8974L15.5685 30.8288L15.6257 30.7231L15.687 30.6773L15.7538 30.6622L15.8325 30.6544L15.8655 30.6352L15.8847 30.5835V30.4471L15.9305 30.3671L16.0609 30.2787L16.1245 30.2289L16.2677 30.1808L16.394 30.0948L16.4379 30.0678L16.5016 30.0527L16.6626 30.0431L16.7738 30.0083L16.8123 29.9872L16.8654 29.9932L16.9001 30.0467L16.9061 30.1195L16.8617 30.1753L16.7354 30.244L16.6206 30.292L16.5034 30.3785L16.2796 30.7043L16.1698 30.8018L16.1011 30.8366L16.0073 30.8402L15.9629 30.8384L15.8902 30.8668L15.7808 30.9707L15.7062 31.0723L15.5685 31.2846L15.503 31.4054L15.4536 31.4631L15.3767 31.4919L15.2577 31.5171L15.2001 31.4978L15.1218 31.4475H15.0605L14.9818 31.4997L14.9415 31.5262L14.8399 31.5473L14.7997 31.5532Z" fill="white"/>
        <path d="M19.0138 31.4097L18.9777 31.3964L18.964 31.3447L18.9699 31.2504L18.9795 31.1397L18.964 31.0724L18.8912 30.9937L18.8454 30.9479L18.8299 30.9095L18.8335 30.8463L18.8853 30.7351L18.9356 30.6546L18.9544 30.5567L18.9411 30.4688L18.8839 30.3558L18.8148 30.2903L18.8184 30.1851L18.9123 29.932L18.9338 29.8226L18.9123 29.775L18.8628 29.7288L18.7397 29.6368L18.6903 29.5737V29.5238L18.7361 29.4414L18.8491 29.2442L18.9297 29.0639L18.9242 28.987L18.8912 28.9623L18.8569 28.9756L18.7763 29.1119L18.6995 29.2611L18.5791 29.4277L18.5311 29.4625L18.4885 29.4588L18.3819 29.3957L18.2721 29.3819L18.2245 29.3531L18.1956 29.284L18.1325 28.993L18.1114 28.8278L18.1055 28.5234L18.1402 28.2475L18.23 27.9294L18.3604 27.546L18.3929 27.4023L18.4103 27.0975L18.4368 26.9899L18.5178 26.854L18.602 26.7849L18.6688 26.7639L18.742 26.7735L18.8148 26.8138L18.872 26.8847L18.9356 27.0014L18.9988 27.2087L19.0198 27.356V27.7125L18.9914 28.0919L18.964 28.2818L18.9562 28.4772L19.0102 28.987L19.0523 29.1902L19.1255 29.4433L19.2056 29.8647L19.2418 30.2501L19.2472 30.6775L19.2267 31.0417L19.2056 31.1145L19.0505 31.3772L19.0138 31.4097Z" fill="white"/>
        <path d="M13.3736 31.3979L13.3196 31.3824L13.1937 31.2964L13.1068 31.2291L13.0578 31.2195L12.9311 31.2597L12.8102 31.2561L12.7796 31.2332L12.7585 31.1508L12.7544 30.9417L12.7796 30.8671L12.8157 30.8461L12.9594 30.8575L13.0345 30.852L13.1361 30.8726L13.1855 30.9133L13.3063 31.1275L13.3603 31.2332L13.4042 31.3234V31.3732L13.3736 31.3979Z" fill="white"/>
        <path d="M13.6327 31.3174L13.5769 31.3137L13.5329 31.2597L13.3028 30.8534L13.278 30.7792L13.2918 30.6982L13.3375 30.6195L13.4044 30.5683L13.4776 30.5545L13.602 30.5605L13.6634 30.5317L13.8034 30.3152L13.8876 30.2346L13.9141 30.225L14.0579 30.2292L14.089 30.2095L14.1004 30.1619L14.0601 30.1024L13.9718 30.0507L13.8972 30.0296L13.8071 30.0392L13.7128 30.0585L13.5901 30.0544L13.4735 30.0045L13.4144 30.0104L13.3375 30.0621L13.2337 30.1578L13.1495 30.2154L12.9943 30.225L12.9692 30.2118L12.9504 30.1367L12.912 30.1024L12.9023 30.0813L12.912 30.02L13.2053 29.3954L13.381 28.9583L13.4909 28.5881L13.5426 28.3369L13.602 27.9346L13.6437 27.1603L13.6652 26.5508L13.711 26.3133L13.7627 26.1293L13.8602 25.9206L13.97 25.7788L14.0853 25.6808L14.2194 25.6177L14.3686 25.5792H14.5237L14.6637 25.6062L14.8202 25.6639L15.0028 25.7843L15.1351 25.9225L15.2843 26.1504L15.5282 26.6066L15.6545 26.7942L15.7694 26.9265L15.9918 27.1223L16.2352 27.3004L16.6727 27.5493L16.9976 27.7621L17.1537 27.9118L17.2795 28.0902L17.3774 28.3049L17.4045 28.4485L17.4218 28.7474L17.3889 29.0654L17.3605 29.2091L17.339 29.2324L17.3065 29.2361L17.2205 29.2306L17.1628 29.2361L17.0763 29.2306L16.8466 29.286L16.8086 29.2782L16.8045 29.2361L16.8736 29.1423L17.1761 28.751L17.3143 28.5501L17.3354 28.4888L17.3257 28.4119L17.2914 28.3927L17.253 28.4179L17.075 28.6417L16.7509 29.0654L16.6626 29.146H16.6127L16.5286 29.0787L15.9304 28.4673L15.2577 27.726L15.1813 27.6299L14.8038 27.1645L14.7553 27.0684L14.7635 27.0263L14.8367 26.9553L15.0546 26.7677L15.3044 26.5416L15.3328 26.484L15.3136 26.4286L15.277 26.4185L15.2408 26.44L14.882 26.7485L14.7004 26.8862L14.6386 26.9018L14.602 26.8826L14.407 26.6409L14.25 26.4286L14.1544 26.294L14.0368 26.1179L14.0048 26.068L13.9736 26.0259L13.9393 26.0199L13.9068 26.0488L13.8917 26.0854L13.9009 26.143L13.9627 26.2501L14.4358 26.8922L14.4972 26.9668L14.5159 27.0166L14.4679 27.0761L14.0427 27.4271L13.7512 27.6532L13.711 27.7127V27.774L13.7261 27.7891L13.7727 27.7854L13.8647 27.726L14.2285 27.4404L14.4281 27.2793L14.5603 27.1855L14.6102 27.1681L14.6468 27.1818L14.7383 27.2889L15.1085 27.7433L15.2101 27.8582L15.4879 28.1799L16.3039 29.0654L16.3428 29.1002L16.486 29.2457L16.4997 29.286L16.4883 29.3071L16.1602 29.3876L16.0819 29.3913L15.9904 29.3684L15.8545 29.3647L15.7808 29.3299L15.7021 29.2741L15.6508 29.259L15.5584 29.2686L15.3589 29.3437L15.2637 29.3954L15.2175 29.4453L15.0335 29.6828L14.9639 29.7326L14.8784 29.7807L14.7919 29.8763L14.758 29.9528L14.7365 30.0351L14.7461 30.1312L14.7804 30.198L14.8367 30.2443L14.8862 30.2594L15.1502 30.2424L15.1813 30.2575L15.195 30.2978L15.12 30.5376L15.1127 30.6735L15.0738 30.7211L14.8321 30.911L14.7937 30.9266L14.7328 30.917L14.5905 30.8611L14.4491 30.8286L14.3471 30.8328L14.2743 30.8671L14.2171 30.9458L14.0835 31.2062L14.0386 31.2506L13.9833 31.2597L13.8743 31.2199L13.813 31.2291L13.6844 31.2963L13.6327 31.3174Z" fill="white"/>
        <path d="M4.85866 31.1909L4.77034 31.1873L4.73006 31.1639L4.7168 31.1241L4.73601 31.0857L4.82983 31.0587L5.3648 31.0033L5.94917 30.9053L5.98169 30.8825L5.98764 30.8308L5.91853 30.6216L5.72313 30.1214L5.52177 29.694L5.39728 29.4469L5.26321 29.1462L5.2266 29.1115L5.19045 29.1078L5.11769 29.127L5.08658 29.1115L5.08107 29.0712L5.1154 29.0154L5.15384 28.9696L5.15749 28.9197L5.15202 28.8566L5.17305 28.8181L5.21149 28.8145L5.28975 28.8854L5.35109 28.8758L5.73455 28.6534L6.04118 28.4905L6.93629 27.9692L7.63736 27.5588L7.72981 27.4901L7.74308 27.4462L7.71241 27.3524L7.57421 27.1048L7.32939 26.7213L7.24884 26.5932L7.11064 26.3767L7.09142 26.3209L7.09918 26.2788L7.12985 26.2596L7.16602 26.2673L7.24655 26.363L7.51106 26.7428L7.76962 27.1739L7.85198 27.3254L7.90187 27.3752L7.95586 27.3693L8.18925 27.2393L8.2547 27.2334L8.28765 27.2695L8.28352 27.3212L8.24693 27.3638L8.04784 27.4865L8.00759 27.5304L7.99798 27.5917L8.04189 27.6915L8.33891 28.2434L8.40846 28.3967L8.41991 28.4694L8.39656 28.5193L8.37002 28.5326L8.33525 28.5134L8.26064 28.3948L7.93069 27.7432L7.85612 27.6356L7.81218 27.6297L7.66071 27.6992L7.4557 27.8237L7.30604 27.9061L7.23328 27.956L7.16784 27.9807L6.41504 28.4159L5.40094 28.9865L5.36846 29.0213L5.37441 29.0826L5.63115 29.5943L5.7881 29.9416L5.91259 30.2404L6.11394 30.823V30.8729L6.05855 30.9397L6.03339 31.0202L5.96842 31.0431L5.28427 31.1447L4.85866 31.1909Z" fill="#0067B1"/>
        <path d="M6.27287 31.1108L6.22527 31.1012L6.20972 31.0706L6.21751 31.0321L6.24999 31.0111L6.31315 30.9955L6.3804 30.9996L6.39736 31.0207L6.39001 31.0555L6.31315 31.0953L6.27287 31.1108Z" fill="white"/>
        <path d="M9.71127 30.001L9.67465 29.9854L9.66504 29.9319L9.68607 29.8898L9.8069 29.8381L10.0366 29.7502L10.6402 29.4857L11.2443 29.1924L11.4841 29.0619H11.5299L11.5587 29.0944L11.5646 29.1347L11.5413 29.1695L11.388 29.2615L10.6576 29.618L10.1405 29.8477L9.75702 29.9914L9.71127 30.001Z" fill="#0067B1"/>
        <path d="M6.00846 24.4985L5.96039 24.4738L5.94531 24.4354L5.93799 22.7449L5.95536 22.7028L6.01075 22.6818H7.12964L7.17768 22.7028L7.19874 22.7737L7.19553 23.0149L7.17632 23.063L7.1397 23.084H6.456L6.38508 23.1051L6.36402 23.1646L6.36676 23.3083L6.386 23.3504L6.45692 23.3714H6.98594L7.02803 23.3925L7.04543 23.4405L7.04725 23.7206L7.03169 23.7686L6.99555 23.7915L6.44547 23.797L6.386 23.818L6.36494 23.8716L6.37089 24.0441L6.39148 24.0807L6.43999 24.0958H7.12596L7.19095 24.1169L7.20835 24.142L7.21017 24.4409L7.18911 24.4775L7.15252 24.493L6.00846 24.4985Z" fill="white"/>
        <path d="M12.3555 24.4756L12.0306 24.4696L11.988 24.4509L11.9693 24.4028L11.9647 23.1247L11.9455 23.0803L11.9015 23.0611L11.5258 23.0537L11.4856 23.0267L11.4705 22.9714V22.716L11.4856 22.6858L11.551 22.6643L12.8506 22.6588L12.9289 22.6799L12.95 22.7069L12.9481 22.9979L12.9189 23.046L12.8598 23.0615L12.4823 23.067L12.4406 23.0881L12.4246 23.1302L12.4191 24.4124L12.3999 24.4545L12.3555 24.4756Z" fill="white"/>
        <path d="M13.6152 24.4697L13.3676 24.4684L13.3195 24.4473L13.3008 24.3956L13.2935 22.734L13.3031 22.6841L13.3337 22.663L13.6371 22.6644L13.6902 22.6855L13.7117 22.739L13.7126 23.2451L13.7287 23.3215L13.7685 23.3449L14.3913 23.3485L14.4567 23.3275L14.4755 23.2758L14.4792 22.7065L14.4989 22.6777L14.5524 22.6584H14.8352L14.8846 22.6795L14.9061 22.7198L14.9125 24.3814L14.8951 24.4391L14.859 24.4601L14.535 24.4546L14.5043 24.4331L14.4892 24.3718L14.4874 23.8487L14.4718 23.7874L14.4302 23.7664L13.7575 23.7677L13.7328 23.7929L13.7195 23.8597L13.7241 24.4006L13.709 24.4372L13.6609 24.4642L13.6152 24.4697Z" fill="white"/>
        <path d="M8.62334 23.665L8.65308 23.6439L8.64392 23.6L8.45402 23.0879H8.43296L8.26822 23.5904L8.25082 23.6393L8.28101 23.6622L8.62334 23.665ZM7.62432 24.4873L7.58773 24.4717L7.57812 24.4525L8.13412 22.7369L8.17211 22.6811L8.21102 22.666L8.65308 22.6705L8.71258 22.6916L8.74735 22.741L9.4315 24.4187L9.42555 24.4626L9.38343 24.4836L9.06722 24.4873L8.9734 24.4663L8.93862 24.4219L8.84391 24.1413L8.7986 24.1111L8.17395 24.1116L8.11675 24.14L8.0284 24.4182L7.99958 24.4608L7.92363 24.4873H7.62432Z" fill="white"/>
        <path d="M10.5507 23.4693L10.6235 23.4427L10.6848 23.3906L10.715 23.3334L10.7264 23.2373L10.6962 23.1512L10.618 23.0881L10.5045 23.0611L10.2116 23.057L10.1672 23.078L10.1516 23.1219L10.1539 23.4176L10.169 23.4537L10.223 23.4752H10.5159L10.5507 23.4693ZM10.8605 24.4756L10.8074 24.4545L10.4436 23.9333L10.3896 23.893L10.1782 23.8967L10.1631 23.9141L10.1539 23.958L10.1576 24.3969L10.1443 24.4449L10.0908 24.4696H9.78599L9.74343 24.4486L9.72469 24.4028L9.71826 22.7343L9.74114 22.6803L9.78921 22.6652L10.6481 22.6643L10.8115 22.6913L10.9278 22.7371L11.0353 22.8121L11.1273 22.9192L11.1905 23.0574L11.212 23.1645L11.1982 23.3352L11.1731 23.435L11.1159 23.5462L11.0184 23.667L10.9108 23.753L10.903 23.7855L11.3017 24.4239L11.2943 24.4545L11.2522 24.4696L10.8605 24.4756Z" fill="white"/>
        <path d="M9.61348 22.1816L9.56589 22.1606L9.55033 22.1125L9.54346 20.46L9.56452 20.412L9.60113 20.3969L9.88944 20.3937L9.9503 20.4147L9.96952 20.4509L9.97181 20.984L9.99147 21.0454L10.0331 21.0664H10.6372L10.6848 21.0508L10.7081 21.0106L10.7072 20.4838L10.7132 20.4299L10.7401 20.4033L10.7841 20.3937H11.0774L11.1369 20.4147L11.1561 20.4838L11.1603 22.1011L11.1387 22.1606L11.0797 22.1816L10.7681 22.1794L10.726 22.1601L10.7104 22.1157L10.7081 21.5547L10.6848 21.5185L10.6138 21.503H10.045L10.0029 21.5185L9.98186 21.5666V22.1011L9.96036 22.1606L9.88944 22.1816H9.61348Z" fill="white"/>
        <path d="M8.6647 22.187H8.34894L8.30087 22.166L8.28531 22.1293L8.28121 20.8553L8.26152 20.8055L8.19655 20.7844L7.79705 20.7862L7.75998 20.7592L7.74487 20.6865V20.4737L7.76593 20.4256L7.81397 20.4046L9.2088 20.3991L9.26098 20.4142L9.28385 20.4641L9.28156 20.7574L9.23444 20.7917L9.15939 20.8013L8.7814 20.7958L8.74523 20.8114L8.72785 20.8402L8.72601 22.1257L8.71274 22.1605L8.6647 22.187Z" fill="white"/>
        <path d="M12.89 22.1712L11.8091 22.1758L11.7501 22.1543L11.7309 22.0971L11.7258 20.4519L11.7437 20.4103L11.7968 20.3892L12.8791 20.3874L12.944 20.4084L12.9651 20.4505L12.9609 20.7233L12.9431 20.764L12.8973 20.7869L12.2466 20.7896L12.1871 20.8111L12.172 20.8418L12.1683 20.9663L12.1853 21.0294L12.2141 21.0505L12.275 21.0601L12.7692 21.0546L12.8232 21.0757L12.8424 21.1214V21.4198L12.8173 21.4601L12.7637 21.4788L12.2407 21.4797L12.1926 21.5008L12.1775 21.5488L12.1816 21.7003L12.2082 21.7346L12.2407 21.7442H12.9308L12.9838 21.7653L12.9999 21.8074L13.0012 22.1291L12.9646 22.1616L12.89 22.1712Z" fill="white"/>
        <path d="M6.63514 20.0601L6.43973 20.0505L6.25578 20.0102L6.12536 19.9585L5.94323 19.8436L5.8224 19.7283L5.72494 19.5809L5.65034 19.391L5.61372 19.2148L5.60596 19.0483L5.63294 18.8679L5.69014 18.6936L5.76519 18.5517L5.8572 18.4309L5.99493 18.3101L6.13131 18.2296L6.32077 18.1664L6.46858 18.1394L6.61776 18.1339L6.869 18.1605L7.08363 18.2241L7.16186 18.2698L7.18932 18.3083L7.20077 18.3531V18.6726L7.17789 18.711L7.14494 18.7183L6.92299 18.6094L6.72714 18.565L6.58344 18.5595L6.43973 18.5806L6.31527 18.6382L6.22511 18.7014L6.14458 18.797L6.09285 18.91L6.06037 19.0483L6.06403 19.1823L6.0988 19.3146L6.17341 19.4372L6.26904 19.5274L6.37842 19.5905L6.52805 19.6363L6.69829 19.6459L6.8594 19.6194L6.98981 19.5617L7.11656 19.4812L7.1582 19.4546L7.18337 19.4601L7.20077 19.494L7.20443 19.7956L7.18337 19.8628L7.12206 19.9241L6.99162 19.9873L6.78479 20.0427L6.63514 20.0601Z" fill="white"/>
        <path d="M10.6024 19.9219L10.1365 19.92L10.1004 19.9045L10.0716 19.8569L9.54208 18.2602L9.53247 18.1797L9.55169 18.155L9.6423 18.1326L9.88896 18.1394L9.9425 18.155L9.97727 18.22L10.3356 19.3988L10.3626 19.4295H10.3974L10.4102 19.4025L10.7726 18.2451L10.8166 18.1605L10.882 18.1248L11.1364 18.128L11.2133 18.149L11.2271 18.1797L11.2083 18.2717L10.6674 19.8894L10.6367 19.9123L10.6024 19.9219Z" fill="white"/>
        <path d="M11.6491 19.9102L11.6065 19.895L11.5671 19.8438L11.5685 18.1854L11.5836 18.1488L11.6147 18.1259L11.666 18.1163L12.7473 18.1108L12.8064 18.1318L12.8215 18.168L12.8206 18.432L12.8014 18.497L12.7455 18.5203L12.0691 18.5226L12.038 18.5437L12.0248 18.5876V18.745L12.038 18.7908L12.0975 18.8118L12.632 18.816L12.697 18.8375L12.7181 18.8851L12.7204 19.1761L12.6897 19.199L12.638 19.2086H12.0843L12.0422 19.2242L12.0188 19.2585L12.0225 19.4329L12.044 19.4864L12.0856 19.5019L12.7954 19.5065L12.8348 19.5294L12.8508 19.5775V19.847L12.8297 19.8891L12.7872 19.9047L11.6491 19.9102Z" fill="white"/>
        <path d="M8.50945 19.5884L8.65131 19.5445L8.73734 19.4868L8.82795 19.3834L8.88515 19.2644L8.91766 19.117L8.91582 18.9637L8.8792 18.8141L8.79867 18.6837L8.68977 18.5802L8.5726 18.5171L8.42892 18.4901L8.31404 18.496L8.18179 18.5345L8.06875 18.6036L7.97862 18.7011L7.90951 18.8237L7.87703 18.9733L7.88298 19.1514L7.92094 19.2758L7.99599 19.4063L8.09347 19.4923L8.19324 19.5499L8.34287 19.5902L8.48107 19.5943L8.50945 19.5884ZM8.4463 19.9966L8.24494 19.9911L8.09531 19.9641L7.9365 19.895L7.81204 19.8145L7.67383 19.6882L7.55898 19.5175L7.48393 19.339L7.45142 19.1628V18.9097L7.49535 18.7262L7.55898 18.5747L7.68528 18.3963L7.82349 18.27L7.94613 18.1949L8.08981 18.1377L8.32549 18.0933L8.54972 18.0993L8.73368 18.1432L8.93274 18.2297L9.10391 18.3674L9.20686 18.4979L9.25904 18.594L9.32219 18.766L9.35423 18.95V19.1344L9.32219 19.3317L9.25904 19.4946L9.15516 19.6593L9.05768 19.7627L8.93274 19.8492L8.77761 19.9238L8.59961 19.9755L8.4463 19.9966Z" fill="white"/>
        <path d="M14.1265 18.9385L14.223 18.9115L14.2953 18.8561L14.3356 18.7888L14.3512 18.6799L14.3237 18.6012L14.2784 18.5513L14.207 18.517L13.8071 18.5161L13.7649 18.5371L13.7499 18.5733L13.753 18.8639L13.7682 18.9174L13.8107 18.9385H14.1265ZM14.7937 19.8931L14.4271 19.8894L14.3672 19.8661L14.1114 19.4309L14.0615 19.3677L13.9942 19.3467H13.8281L13.7796 19.3659L13.7604 19.408L13.759 19.8354L13.738 19.872L13.7013 19.8871H13.4194L13.3604 19.8661L13.343 19.8276L13.3439 18.1413L13.3746 18.1143L13.4378 18.1047H14.207L14.4125 18.1298L14.5104 18.1601L14.623 18.2296L14.7095 18.3193L14.769 18.425L14.8129 18.5783L14.8262 18.695L14.8184 18.8291L14.7726 18.9595L14.7154 19.0556L14.6367 19.1357L14.5214 19.2222L14.5141 19.2583L14.8362 19.7993L14.8532 19.8583L14.8321 19.8835L14.7937 19.8931Z" fill="white"/>
        <path d="M5.72672 16.8628L5.57938 16.8532L5.43752 16.8074L5.32219 16.7173L5.27049 16.6427L5.22471 16.5429L5.18628 16.3686L5.18994 16.196L5.23616 15.9773L5.29381 15.8377L5.45445 15.5732L5.62698 15.3833L5.73451 15.2854L6.04661 15.0611L6.41271 14.8657L6.78294 14.7165L7.30371 14.5898L7.57827 14.5513L7.95764 14.5399L8.26792 14.5724L8.52098 14.6241L8.77772 14.6991L9.06511 14.8255L9.26462 14.9408L9.52913 15.1417L9.73598 15.349L9.84533 15.5023L9.84947 15.5288L9.79548 15.5023L9.60007 15.3659L9.30124 15.2167L9.02117 15.1188L8.76261 15.0634L8.44045 15.0231L8.13017 15.0286L7.82357 15.0845L7.55721 15.1646L7.29226 15.2913L7.05887 15.435L6.91519 15.5618L6.73121 15.7663L6.49508 16.1228L6.2745 16.5141L6.12532 16.6807L6.00084 16.7726L5.8535 16.8358L5.72672 16.8628Z" fill="#EF4135"/>
        <path d="M15.0299 16.7134L14.8857 16.7097L14.7608 16.6749L14.5906 16.5656L14.1654 16.1862L13.8648 15.9235L13.7106 15.8009L13.5728 15.6878L13.2429 15.4636L13.0378 15.3547L12.7065 15.2165L12.4228 15.1533L12.1432 15.1208L11.9597 15.1263L11.7331 15.1703L11.4494 15.2627L11.3881 15.2856L11.3689 15.2778L11.4206 15.2224L11.5473 15.1359L11.8407 14.9808L12.1029 14.8714L12.5075 14.7625L12.7523 14.7181L13.0058 14.6898L13.4483 14.7012L13.7705 14.7392L14.1055 14.8138L14.3494 14.9062L14.5677 15.0096L14.7727 15.1419L15.0486 15.3716L15.2152 15.5538L15.3365 15.7551L15.4015 15.9121L15.439 16.0635L15.4431 16.2306L15.4166 16.3702L15.3708 16.4814L15.2862 16.5944L15.1713 16.6694L15.0299 16.7134Z" fill="#EF4135"/>
        <path d="M11.9189 16.5869L11.8764 16.5773L11.8311 16.516L11.7602 16.3837L11.6677 16.2574L11.5666 16.1709L11.4133 16.0909L11.2865 16.0579L11.1716 16.0524L11.0339 16.0735L11.0032 16.0657L10.9932 16.0236L11.0147 15.9815L11.0989 15.9124L11.2288 15.8492L11.3323 15.8222L11.4645 15.8163L11.6123 15.8492L11.7217 15.916L11.8004 15.9966L11.8576 16.0867L11.8942 16.2094L11.9286 16.5604L11.9189 16.5869Z" fill="#0067B1"/>
        <path d="M9.85491 15.1499L9.79544 15.106L9.62062 14.9353L9.36206 14.7225L9.09985 14.5385L8.80833 14.3948L8.5324 14.2969L8.17957 14.2109L7.92878 14.1784L7.79652 14.1669L7.46291 14.1724L7.13891 14.2223L6.73254 14.3317L6.34542 14.479L6.1921 14.5115L6.06395 14.5019L5.95276 14.4621L5.87405 14.3989L5.83377 14.3335L5.80908 14.2241L5.8283 14.0708L5.88595 13.9271L5.97198 13.8027L6.08501 13.7047L6.24609 13.5954L6.42228 13.5093L6.65612 13.4347L6.93985 13.3734L7.10095 13.356L7.43959 13.362L7.78691 13.4233L8.08804 13.5267L8.50539 13.7336L8.83349 13.9464L9.11496 14.1591L9.43117 14.4694L9.60965 14.6822L9.7991 14.9792L9.8586 15.1078L9.8627 15.1343L9.85491 15.1499Z" fill="#EF4135"/>
        <path d="M11.2002 15.0464L11.1851 15.0368L11.2386 14.9123L11.44 14.6304L11.8235 14.2149L12.1049 13.9925L12.4458 13.7683L12.8174 13.5724L13.1858 13.4401L13.4659 13.3848L13.6041 13.3674L13.8914 13.3733L14.0598 13.4058L14.1807 13.4575L14.2955 13.5303L14.3761 13.6127L14.4333 13.7142L14.4548 13.8044L14.4507 13.9119L14.3985 14.0305L14.3184 14.1344L14.1843 14.2089L13.9715 14.2721L13.7532 14.2931L12.8732 14.3449L12.5492 14.3947L12.3273 14.4524L12.034 14.5499L11.8175 14.6418L11.5013 14.8203L11.2272 15.0308L11.2002 15.0464Z" fill="#EF4135"/>
        <path d="M11.0623 14.7358L11.0491 14.7281L11.0546 14.6457L11.1415 14.2933L11.2559 13.9272L11.4403 13.5131L11.6472 13.1337L11.7849 12.9401L12.0325 12.6642L12.1391 12.5607L12.3181 12.4225L12.5016 12.3077L12.7299 12.2157L12.8681 12.1828L13.075 12.1887L13.194 12.2271L13.2951 12.3059L13.3527 12.3786L13.3894 12.4898L13.3971 12.6083L13.3642 12.71L13.2892 12.823L13.1573 12.9497L12.9505 13.082L12.6457 13.2371L12.3753 13.3712L12.1739 13.5034L11.7735 13.8023L11.5264 14.0439L11.3653 14.2434L11.1868 14.5272L11.0875 14.7093L11.0623 14.7358Z" fill="#EF4135"/>
        <path d="M9.89477 14.7241L9.85863 14.6875L9.67283 14.3942L9.52915 14.2047L9.25869 13.9228L8.90816 13.6354L8.51871 13.3883L7.87529 13.0415L7.71969 12.9261L7.62223 12.819L7.55313 12.6886L7.52612 12.5907L7.53023 12.4626L7.58196 12.3454L7.65472 12.2726L7.74485 12.2209L7.84233 12.1944L7.98009 12.1884L8.16452 12.2269L8.40383 12.3417L8.6322 12.4854L8.9443 12.7595L9.17814 13.0144L9.43714 13.3655L9.5923 13.6336L9.7131 13.9096L9.81653 14.2354L9.89706 14.569L9.90667 14.6953L9.89477 14.7241Z" fill="#EF4135"/>
        <path d="M9.14194 9.94043L9.09434 9.93082L9.01929 9.85806L8.96164 9.77754L8.94653 9.72215L8.95019 9.62056L8.97902 9.48831L9.1575 9.07417L9.38723 8.67923L9.77302 8.12139L10.221 7.59284L10.4169 7.3837L10.6928 7.10958L11.1294 6.73022L11.7367 6.2703L12.1741 5.99985L12.6281 5.74724L12.9905 5.59163L13.2299 5.54222L13.3196 5.55733L13.4162 5.63786L13.45 5.69735L13.4445 5.73579L13.401 5.77377L12.9841 5.96002L12.5672 6.1957L12.3426 6.34307L12.2336 6.41398L11.7962 6.73022L11.6754 6.8318L11.3134 7.12698L10.8306 7.55804L10.4283 8.00103L10.3226 8.12552L10.135 8.34609L9.78444 8.81743L9.53686 9.19679L9.25498 9.70659L9.17305 9.90384L9.14194 9.94043Z" fill="white"/>
        <path d="M8.53233 9.63574L8.45773 9.63208L8.39824 9.58586L8.04496 9.19002L8.09348 8.98411L8.08798 8.8999L8.05731 8.8404L7.87335 8.6276L7.53424 8.24823L6.73477 7.38561L5.8836 6.46578L5.56188 6.10335L5.45435 5.9926L5.3912 5.89652L5.37793 5.81415L5.40265 5.64757L5.49507 5.32951L5.64425 4.95747L5.82824 4.58953L6.00669 4.27514L6.19067 3.99921L6.58743 3.47614L6.83454 3.20569L7.13932 2.9128L7.35579 2.72885L7.67795 2.48126L8.13968 2.18793L8.6266 1.93532L9.01557 1.77424L9.32036 1.67081L9.49836 1.63238L9.67089 1.62643L9.76653 1.65341L9.83381 1.70514L10.1615 2.06163L10.2594 2.17466L10.5884 2.54257L10.7765 2.75172L11.5719 3.61801L11.7366 3.7864L11.8309 3.89944L12.5727 4.69296L12.6377 4.73324L12.7013 4.741L12.8445 4.714L12.931 4.71813L12.9905 4.75841L13.1109 4.88882L13.1823 4.98035L13.261 5.07232L13.2701 5.12221L13.2376 5.20687L13.18 5.34828L13.1301 5.37161L12.9017 5.44255L12.4038 5.66678L12.0995 5.83336L11.371 6.31615L11.0085 6.60398L10.5354 7.02912L10.1294 7.43734L9.83381 7.7865L9.64617 8.02216L9.35284 8.42671L9.05951 8.89805L8.91033 9.17583L8.81787 9.38498L8.75886 9.56483L8.73735 9.58586L8.67054 9.60144L8.59364 9.61105L8.53233 9.63574Z" fill="white"/>
        <path d="M7.77916 9.5498L7.74302 9.52874L7.61626 9.39649L7.55127 9.30636L7.27165 8.90959L7.0758 8.59749L6.93212 8.3348L6.89 8.22361L6.88818 8.20439L6.93623 8.2195L7.18928 8.46661L7.603 8.93842L7.68352 9.06883L7.69679 9.13978L7.6666 9.31002L7.69132 9.39054L7.781 9.5228L7.77916 9.5498Z" fill="white"/>
        <path d="M8.3025 8.20996L8.17024 8.2063L8.02288 8.16603L7.8618 8.07952L7.70254 7.95322L7.49571 7.73449L7.25452 7.42054L7.08749 7.14232L6.99917 6.92404L6.94929 6.73595L6.93421 6.55976L6.95295 6.4005L7.00102 6.2147L7.11403 5.98086L7.10855 5.92366L7.01063 5.77037L6.78866 5.48251L6.67702 5.32188L6.46055 5.03816L6.41846 4.95168L6.43217 4.88074L6.52418 4.72195L6.60426 4.60891L6.6523 4.5993L6.68844 4.62036L6.9589 4.95168L8.21233 6.57898L8.57066 7.05629L8.7647 7.3034L8.90838 7.4933L8.92349 7.53724L8.91983 7.59263L8.75325 7.87269L8.6265 8.02782L8.52488 8.11385L8.41188 8.17745L8.3025 8.20996Z" fill="#EF4135"/>
        <path d="M8.23902 7.62939L8.1397 7.62574L8.0189 7.57359L7.90357 7.48158L7.75989 7.32645L7.54161 7.02167L7.45555 6.85877L7.40341 6.7018L7.3938 6.64597L7.3979 6.53888L7.42628 6.45285L7.44961 6.42587H7.49354L7.55669 6.49268L8.29257 7.43583L8.33879 7.52186L8.33284 7.55848L8.29486 7.60241L8.23902 7.62939Z" fill="white"/>
        <path d="M9.03853 7.39941L8.99596 7.37838L8.57448 6.62511L8.11091 5.822L7.54164 4.78729L7.1165 3.98416L7.10645 3.92651L7.14488 3.85009L7.26568 3.70639L7.32152 3.65469L7.37872 3.60298L7.42676 3.58924L7.47664 3.61441L7.62582 3.75811L7.71783 3.85557L8.84128 5.02893L9.03073 5.21657L9.05179 5.22023L9.04034 5.18176L8.73559 4.69532L7.90955 3.43593L7.82352 3.28264V3.22131L7.88667 3.1426L8.09353 2.98747L8.18185 2.95132L8.22394 2.95864L8.4134 3.11422L8.52278 3.22131L10.1963 4.82162L10.8804 5.47144L10.9184 5.53093L10.9088 5.579L10.8017 5.66503L10.6063 5.79133L10.5528 5.80505L10.497 5.77988L10.3936 5.6783L10.0467 5.32181L9.88146 5.15889L9.74373 5.00971L9.6403 4.90217L9.08841 4.32509L8.78363 3.99377L8.72 3.95947L8.7374 4.01117L8.8239 4.15854L9.14927 4.67015L9.54238 5.30304L9.72449 5.579L9.88741 5.83756L10.0979 6.16522L10.1139 6.22653L10.087 6.28007L9.83387 6.5162L9.79177 6.53726L9.74739 6.52718L9.66134 6.44895L9.19181 5.95241L8.91588 5.64763L8.05141 4.75252L8.00566 4.72233L8.00155 4.74336L8.05326 4.85458L8.62665 5.8165L9.28748 6.99123L9.31264 7.0736L9.28334 7.13309L9.09207 7.36693L9.03853 7.39941Z" fill="#EF4135"/>
        <path d="M5.17475 5.64551L5.13266 5.62995L5.04068 5.52286L5.01367 5.4556L5.01962 5.3293L5.04616 5.1911L5.16148 4.85793L5.30519 4.53212L5.52347 4.14315L5.87814 3.61961L5.96051 3.49696L6.1367 3.29195L6.27077 3.12539L6.3266 3.06771L6.63915 2.7341L6.78833 2.59043L6.91327 2.48515L7.07574 2.34329L7.48804 2.03854L7.91318 1.77998L8.32915 1.55575L8.7241 1.38321L9.05358 1.27979L9.2682 1.24135L9.36431 1.24501L9.41967 1.26833L9.52905 1.37542L9.54827 1.41754L9.53089 1.43857L9.19957 1.50402L8.81423 1.63627L8.30994 1.87195L7.9539 2.06736L7.45555 2.40097L7.0913 2.69386L6.83456 2.92404L6.5641 3.21142L6.19069 3.66949L5.94311 4.01637L5.65022 4.49184L5.43149 4.92293L5.31066 5.23319L5.19947 5.61853L5.17475 5.64551Z" fill="white"/>
        <path d="M11.2055 5.28906L11.0316 5.26208L10.8783 5.20488L10.7264 5.11287L10.4106 4.83694L10.3012 4.71201L10.2875 4.67586L10.3072 4.6374L10.3914 4.57975L10.5964 4.47085L10.6481 4.46671L10.6957 4.49372L10.7996 4.59531L10.8989 4.68729L11.0238 4.76784L11.1446 4.79851L11.2101 4.78521L11.259 4.74678L11.2787 4.67586L11.2481 4.58936L11.1506 4.47632L11.0426 4.38434L10.8133 4.24064L10.5159 4.09696L9.99463 3.87639L9.51732 3.64071L9.23773 3.45125L9.08807 3.30344L8.97322 3.14831L8.91007 2.99318L8.88306 2.85132L8.89266 2.71906L8.92699 2.60237L9.00157 2.48704L9.10363 2.39506L9.22627 2.33738L9.40062 2.29942H9.5846L9.72828 2.33191L9.92735 2.41243L10.19 2.58496L10.3859 2.763L10.428 2.8321L10.4088 2.87601L10.2784 2.95106L10.1136 3.01971L10.0564 3.02382L9.98502 2.97991L9.84545 2.85497L9.70541 2.77442L9.57865 2.74194L9.49444 2.75705L9.44456 2.80143L9.42168 2.86274L9.42718 2.93184L9.46743 3.00826L9.56905 3.11169L9.76445 3.24394L9.99097 3.36475L10.0981 3.40502L10.1498 3.42424L10.2056 3.45675L10.7328 3.67732L11.0087 3.81505L11.2824 3.98208L11.4549 4.11984L11.5817 4.25209L11.6906 4.40722L11.7501 4.534L11.7885 4.68913L11.7922 4.81178L11.7716 4.91931L11.7139 5.0264L11.6292 5.12614L11.5144 5.20488L11.378 5.26208L11.2751 5.28311L11.2055 5.28906Z" fill="#EF4135"/>
        <path d="M13.2413 4.38623L13.1878 4.3478L13.0784 4.25216L13.0056 4.21965L12.9233 4.22926L12.862 4.24803L12.7951 4.23842L12.6816 4.13499L12.4387 3.87277L12.0034 3.41057L11.9819 3.36297L12.0437 3.37261L12.3348 3.55061L12.7201 3.8325L13.0304 4.10846L13.2317 4.33269L13.2486 4.37662L13.2413 4.38623Z" fill="white"/>
        <path d="M16.9751 38.6977C17.0735 38.6977 17.1399 38.6813 17.1399 38.5719C17.1399 38.474 17.0351 38.4621 16.9546 38.4621H16.809V38.6977H16.9751ZM16.6045 38.3046H16.9637C17.2072 38.3046 17.3454 38.376 17.3454 38.5902C17.3454 38.7646 17.2397 38.8336 17.0928 38.8455L17.3454 39.2597H17.1353L16.907 38.8547H16.809V39.2597H16.6045V38.3046ZM16.9495 39.4546C17.2895 39.4546 17.5614 39.1828 17.5614 38.7856C17.5614 38.3902 17.2895 38.1166 16.9495 38.1166C16.6045 38.1166 16.3377 38.3902 16.3377 38.7856C16.3377 39.1828 16.6045 39.4546 16.9495 39.4546ZM16.9495 37.9266C17.4227 37.9266 17.8089 38.312 17.8089 38.7856C17.8089 39.2597 17.4227 39.645 16.9495 39.645C16.4754 39.645 16.0901 39.2597 16.0901 38.7856C16.0901 38.312 16.4754 37.9266 16.9495 37.9266Z" fill="#0067B1"/>
        <path d="M28.4328 18.649C27.1011 18.649 25.5456 19.249 25.5456 20.9394C25.5456 22.0405 26.3149 22.4633 27.059 22.8724C27.6686 23.207 28.2438 23.5232 28.2438 24.1931C28.2438 25.0745 27.4562 25.469 26.6751 25.469C25.9831 25.469 25.3351 25.2091 24.7745 24.9564C24.7402 25.0681 24.4364 26.0547 24.4048 26.1582C25.1809 26.4305 25.9154 26.5732 26.5844 26.5732C27.5445 26.5732 29.7778 26.3261 29.7778 24.0375C29.7778 22.8441 28.9311 22.3535 28.1843 21.9201C27.6159 21.5906 27.0791 21.2794 27.0791 20.7051C27.0791 20.0475 27.7761 19.7528 28.4666 19.7528C28.9911 19.7528 29.5691 19.896 30.0702 20.1358C30.1017 20.0288 30.3791 19.0774 30.4093 18.9753C29.8487 18.7616 29.187 18.649 28.4328 18.649Z" fill="#0067B1"/>
        <path d="M31.2994 20.2848H32.5419L32.0184 22.7445H34.5207L35.0442 20.2848H36.2866L34.9911 26.3726H33.7486L34.3165 23.7037H31.8143L31.2463 26.3726H30.0039L31.2994 20.2848Z" fill="#0067B1"/>
        <path d="M37.3457 20.2848H40.9925L40.8063 21.244H38.3836L38.0642 22.7445H40.2297L40.0342 23.7037H37.8601L37.4967 25.4129H39.9455L39.7327 26.3726H36.041L37.3457 20.2848Z" fill="#0067B1"/>
        <path d="M42.7695 22.8836H43.2221C43.8875 22.8836 44.6952 22.6832 44.6952 21.881C44.6952 21.244 44.1359 21.244 43.6298 21.244H43.115L42.7695 22.8836ZM42.0597 20.2848H43.5236C44.6686 20.2848 45.9907 20.2679 45.9907 21.724C45.9907 22.7701 45.1917 23.3285 44.1808 23.3458V23.3637C44.5176 23.3806 44.7304 23.5902 44.8109 23.922L45.4049 26.3726H44.1003L43.7987 24.942C43.6568 24.2968 43.6921 23.8433 43.018 23.8433H42.5471L42.0062 26.3726H40.7642L42.0597 20.2848Z" fill="#0067B1"/>
        <path d="M46.7051 20.2848H47.9475L48.1338 24.9507H48.1516L50.2105 20.2848H51.8785L51.905 24.9507H51.9234L54.1145 20.2848H55.4018L52.446 26.3726H50.8928L50.831 21.5057H50.8136L48.6308 26.3726H47.0954L46.7051 20.2848Z" fill="#0067B1"/>
        <path d="M56.084 20.2848H57.38L56.0758 26.3726H54.7798L56.084 20.2848Z" fill="#0067B1"/>
        <path d="M58.5253 20.2848H60.0964L61.418 24.9072H61.4363L62.4481 20.2848H63.6196L62.2792 26.3726H60.6821L59.3866 21.7066H59.3683L58.3839 26.3726H57.1946L58.5253 20.2848Z" fill="#0067B1"/>
        <path d="M105.08 25.4194C105.178 25.4194 105.245 25.4029 105.245 25.2931C105.245 25.1956 105.14 25.1837 105.059 25.1837H104.914V25.4194H105.08ZM104.709 25.0263H105.068C105.312 25.0263 105.45 25.0977 105.45 25.3119C105.45 25.4858 105.344 25.5553 105.197 25.5668L105.45 25.9814H105.24L105.012 25.5764H104.914V25.9814H104.709V25.0263ZM105.054 26.1763C105.394 26.1763 105.666 25.9045 105.666 25.5073C105.666 25.1119 105.394 24.8382 105.054 24.8382C104.709 24.8382 104.442 25.1119 104.442 25.5073C104.442 25.9045 104.709 26.1763 105.054 26.1763ZM105.054 24.6483C105.528 24.6483 105.914 25.0336 105.914 25.5073C105.914 25.9814 105.528 26.3667 105.054 26.3667C104.58 26.3667 104.195 25.9814 104.195 25.5073C104.195 25.0336 104.58 24.6483 105.054 24.6483Z" fill="#0067B1"/>
        <path d="M70.8856 24.5825L70.7712 24.5633C70.7712 24.5633 70.7406 18.7446 70.7401 18.6494H68.8364C68.8117 18.7089 66.3991 24.5816 66.3991 24.5816L66.2842 24.5651C66.2842 24.5651 66.0678 18.7414 66.0641 18.6494H64.6848C64.6908 18.7501 65.1383 26.2409 65.1438 26.3311H66.892C66.9167 26.2716 69.4766 20.1422 69.4766 20.1422L69.5915 20.1605C69.5915 20.1605 69.6633 26.2359 69.6647 26.3311H71.4325C71.4581 26.2748 74.8436 18.7835 74.904 18.6494H73.4808C73.4552 18.707 70.8856 24.5825 70.8856 24.5825Z" fill="#0067B1"/>
        <path d="M74.8962 20.1979H76.1029L74.8879 26.2861H73.6816L74.8962 20.1979Z" fill="#0067B1"/>
        <path d="M77.1754 20.1979H78.3322L77.2994 25.3269H79.5628L79.3651 26.2861H75.9521L77.1754 20.1979Z" fill="#0067B1"/>
        <path d="M81.3065 20.1979H82.4634L81.4305 25.3269H83.6944L83.4962 26.2861H80.0837L81.3065 20.1979Z" fill="#0067B1"/>
        <path d="M85.3796 20.1979H86.5859L85.3714 26.2861H84.1655L85.3796 20.1979Z" fill="#0067B1"/>
        <path d="M88.5027 23.9307H90.2875L89.9241 21.2797H89.8907L88.5027 23.9307ZM89.4701 20.1979H90.7506L91.7994 26.2861H90.6435L90.4444 24.8899H87.9902L87.2552 26.2861H85.9744L89.4701 20.1979Z" fill="#0067B1"/>
        <path d="M93.6451 20.1979H95.5539L95.9419 24.5852H95.9589L98.231 20.1979H100.157L98.9252 26.2861H97.702L98.7925 21.245H98.776L96.1653 26.2861H95.0578L94.5951 21.245H94.5787L93.5215 26.2861H92.4219L93.6451 20.1979Z" fill="#0067B1"/>
        <path d="M103.993 21.3668C103.653 21.1838 103.216 21.0529 102.794 21.0529C102.382 21.0529 101.828 21.2272 101.828 21.7503C101.828 22.7278 103.794 22.666 103.794 24.3587C103.794 25.8497 102.687 26.3901 101.422 26.3901C100.869 26.3901 100.299 26.251 99.7788 26.0506L100.076 25.0122C100.522 25.2301 100.993 25.431 101.489 25.431C102.043 25.431 102.588 25.1344 102.588 24.4805C102.588 23.3813 100.622 23.5561 100.622 21.9333C100.622 20.6515 101.662 20.0937 102.769 20.0937C103.274 20.0937 103.794 20.1628 104.265 20.3637L103.993 21.3668Z" fill="#0067B1"/>
    </g>
    <defs>
        <clipPath id="clip0_41_2348">
            <rect width="105.827" height="40" fill="white" transform="translate(0.0864258 0.74707)"/>
        </clipPath>
    </defs>
</svg>
