<svg width="66" height="11" viewBox="0 0 66 11" fill="none" xmlns="http://www.w3.org/2000/svg">
    <g clip-path="url(#clip0_222:475)">
        <path fill-rule="evenodd" clip-rule="evenodd" d="M0.203676 10.068V8.08288C1.33353 8.43848 2.3333 8.61629 3.20298 8.61629C4.40372 8.61629 5.00418 8.29889 5.00418 7.66456C5.00418 7.42808 4.9168 7.22936 4.74164 7.06846C4.56251 6.89777 4.10375 6.66117 3.36653 6.35803C2.04376 5.81412 1.1812 5.35027 0.779988 4.96661C0.259974 4.4602 0 3.82158 0 3.04985C0 2.05601 0.37884 1.29854 1.13599 0.77799C1.88476 0.262002 2.85978 0.00427246 4.06257 0.00427246C4.72527 0.00427246 5.68445 0.126241 6.93905 0.370506V2.28008C6.00554 1.90719 5.13902 1.72113 4.33844 1.72113C3.2111 1.72113 2.64746 2.03067 2.64746 2.65114C2.64746 2.88306 2.76097 3.07222 2.98835 3.21887C3.17744 3.33754 3.69845 3.58821 4.55024 3.97166C5.77672 4.51636 6.5932 4.98985 7.00003 5.39258C7.48275 5.87029 7.72457 6.48845 7.72457 7.24612C7.72457 8.33519 7.25089 9.16593 6.30419 9.73835C5.5372 10.2025 4.54265 10.4337 3.32112 10.4337C2.28954 10.4337 1.25017 10.3122 0.203676 10.068Z" fill="#009999"/>
        <path fill-rule="evenodd" clip-rule="evenodd" d="M9.31018 0.178467H12.1179V10.2301H9.31018V0.178467Z" fill="#009999"/>
        <path fill-rule="evenodd" clip-rule="evenodd" d="M14.6926 10.2301V0.178467H21.8935V1.9965H17.3986V4.26617H21.3113V5.92449H17.3986V8.3098H22.0094V10.2301H14.6926Z" fill="#009999"/>
        <path fill-rule="evenodd" clip-rule="evenodd" d="M23.8423 10.2301V0.178467H27.4825L30.0115 6.60099L32.6041 0.178467H36.0617V10.2301H33.3997V3.11329L30.4519 10.3321H28.7115L25.8205 3.11329V10.2301H23.8423Z" fill="#009999"/>
        <path fill-rule="evenodd" clip-rule="evenodd" d="M38.6372 10.2301V0.178467H45.838V1.9965H41.3434V4.26617H45.2559V5.92449H41.3434V8.3098H45.9545V10.2301H38.6372Z" fill="#009999"/>
        <path fill-rule="evenodd" clip-rule="evenodd" d="M47.8019 10.2301V0.178467H51.0559L54.5083 6.90723V0.178467H56.4859V10.2301H53.3243L49.7803 3.41076V10.2301H47.8019Z" fill="#009999"/>
        <path fill-rule="evenodd" clip-rule="evenodd" d="M58.4791 10.0674V8.08232C59.5994 8.43794 60.599 8.61574 61.479 8.61574C62.6799 8.61574 63.2795 8.29834 63.2795 7.66402C63.2795 7.42754 63.1945 7.22882 63.0251 7.0679C62.8451 6.89723 62.3845 6.66062 61.6429 6.35748C60.324 5.81807 59.4606 5.35442 59.0557 4.96607C58.5359 4.46414 58.2764 3.82315 58.2764 3.04243C58.2764 2.0529 58.6543 1.29792 59.4122 0.77738C60.16 0.261392 61.136 0.00366211 62.339 0.00366211C63.0153 0.00366211 63.8916 0.111044 64.9664 0.326798L65.2147 0.369896V2.27947C64.2811 1.90658 63.412 1.72052 62.6072 1.72052C61.4841 1.72052 60.9239 2.03006 60.9239 2.65052C60.9239 2.88245 61.0369 3.07161 61.2636 3.21826C61.4439 3.33237 61.967 3.58317 62.833 3.97105C64.0501 4.51575 64.865 4.98924 65.2754 5.39197C65.7588 5.86968 66 6.48783 66 7.24551C66 8.33458 65.5291 9.16532 64.5872 9.73774C63.8158 10.2019 62.8186 10.4331 61.5974 10.4331C60.5647 10.4331 59.5248 10.3116 58.4791 10.0674Z" fill="#009999"/>
    </g>
    <defs>
        <clipPath id="clip0_222:475">
            <rect width="66" height="10.5283" fill="white"/>
        </clipPath>
    </defs>
</svg>
