<svg width="152" height="41" viewBox="0 0 152 41" fill="none" xmlns="http://www.w3.org/2000/svg">
    <g clip-path="url(#clip0_41_2423)">
        <path d="M128.455 3.54696C128.289 5.09141 128.133 6.49141 128.1 6.65807L128.033 6.96918H128.755H129.467L129.655 6.29141C129.755 5.92474 129.989 5.32474 130.167 4.96918C130.822 3.66918 131.289 3.52474 134.8 3.52474H137.389V12.6914C137.389 22.6803 137.411 22.3692 136.767 22.8247C136.322 23.147 135.722 23.2914 134.533 23.3692L133.5 23.447V24.0692V24.6914H139.555H145.611V24.0692V23.447L144.567 23.3692C142.889 23.2581 142.233 22.9803 141.844 22.2247C141.755 22.047 141.722 19.3692 141.722 12.7581V3.52474H144.555C147.589 3.52474 147.878 3.56918 148.344 4.09141C148.678 4.44696 148.933 5.25807 149.011 6.20252L149.089 6.9803L149.822 6.94696L150.555 6.91363L150.733 4.52474C150.844 3.21363 150.955 1.82474 150.989 1.43585L151.044 0.746962H150.522C150.055 0.746962 149.933 0.802517 149.611 1.13585C148.867 1.90252 149.455 1.85807 139.755 1.85807C131.289 1.85807 130.989 1.84696 130.522 1.63585C130.189 1.4803 130 1.31363 129.911 1.08029C129.8 0.780294 129.744 0.746962 129.278 0.746962H128.767L128.455 3.54696Z" fill="#344994"/>
        <path d="M58.4443 1.41393C54.3332 1.85838 50.9332 3.61393 48.811 6.41393C48.0999 7.33615 47.2443 9.11393 46.9554 10.2362C46.211 13.1139 46.4666 15.925 47.7221 18.4695C49.611 22.3028 53.511 24.7473 58.4777 25.2028C60.9777 25.4362 64.4777 25.0473 68.2554 24.125L69.9443 23.7139V23.1806C69.9443 22.7473 69.8999 22.6362 69.7221 22.5806C69.5999 22.5362 69.411 22.3806 69.2999 22.2139C69.1332 21.9584 69.111 21.6139 69.111 19.5695C69.111 17.3473 69.1221 17.1917 69.3443 16.8917C69.6777 16.4362 70.111 16.2695 71.0888 16.2139L71.9443 16.1584V15.5362V14.9139H66.6666H61.3888V15.5362V16.1584L62.3888 16.225C63.4332 16.2917 64.1777 16.5362 64.5332 16.9473C64.9777 17.4362 65.0443 17.925 65.0554 20.4806V22.9473L64.0888 23.2584C63.1777 23.5584 62.9888 23.5806 61.3888 23.5806C59.511 23.5806 58.6777 23.4362 57.2666 22.8473C53.4999 21.3028 51.1332 17.0695 51.4332 12.4473C51.7666 7.59171 53.9554 4.55838 57.9999 3.34727C58.8221 3.10282 59.2888 3.04727 60.6666 3.00282C64.5221 2.8806 66.4443 3.95838 68.0332 7.15838L68.5554 8.19171H69.1554H69.7554L69.6888 7.3806C69.6443 6.94727 69.5554 5.6806 69.4888 4.5806C69.411 3.4806 69.3443 2.56949 69.3443 2.55838C69.3332 2.54727 68.4777 2.3806 67.4443 2.19171C63.5443 1.49171 60.3332 1.21393 58.4443 1.41393Z" fill="#344994"/>
        <path d="M11.8888 1.48043C7.52211 2.1471 4.63322 3.96932 3.111 7.02488C2.42211 8.41376 2.14434 9.59154 2.07767 11.3804C1.95545 14.8027 2.76656 17.036 4.93322 19.2027C6.29989 20.5582 7.311 21.2138 10.8888 23.0582C12.4777 23.8693 14.2443 24.8471 14.8332 25.236C16.6554 26.4582 17.7332 27.7138 18.2888 29.3027C18.511 29.9138 18.5443 30.2471 18.5554 31.4693C18.5554 32.7027 18.5221 33.036 18.2888 33.736C17.5554 35.9582 15.6554 37.6582 13.1777 38.3249C12.0666 38.6138 10.1888 38.6471 9.16656 38.3804C6.15545 37.5804 3.78878 35.1693 2.611 31.6582L2.28878 30.6915L1.611 30.6582C0.999891 30.6249 0.944336 30.6471 0.944336 30.8471C0.944336 31.0804 1.89989 37.7804 2.011 38.3249C2.07767 38.6471 2.47767 38.8582 4.011 39.3582C10.311 41.4249 16.8888 40.4138 20.7443 36.7582C22.6999 34.9027 23.6332 32.9471 23.8888 30.1915C24.0443 28.5138 23.5221 25.9915 22.7554 24.6582C21.4221 22.3471 19.6221 20.9804 14.6666 18.5249C10.2999 16.3582 8.88878 15.3804 7.78878 13.7693C6.711 12.1915 6.37767 10.1471 6.85545 8.08043C6.92211 7.80265 7.16656 7.16932 7.411 6.65821C8.14434 5.09155 9.37767 4.06932 11.1666 3.50266C12.2332 3.16932 14.3666 3.1471 15.4777 3.45821C18.0332 4.15821 19.711 5.86932 20.3332 8.42488L20.5221 9.19154H21.1777C21.7777 9.19154 21.8332 9.16932 21.8332 8.93599C21.8443 8.42488 21.0221 2.35821 20.9332 2.25821C20.8888 2.20266 19.9554 2.01377 18.8666 1.83599C17.2554 1.58043 16.4554 1.50266 14.5554 1.46932C13.2777 1.4471 12.0777 1.45821 11.8888 1.48043Z" fill="#344994"/>
        <path d="M29.9443 2.53585V3.15807L30.8666 3.23585C31.3666 3.26918 31.9666 3.35807 32.1888 3.41363C32.7666 3.5803 33.2554 4.02474 33.3888 4.50252C33.4777 4.78029 33.4999 7.65807 33.4777 13.547C33.4443 22.0581 33.4443 22.1803 33.211 22.4914C32.8554 22.9803 32.2332 23.2247 31.0332 23.347L29.9443 23.4581V24.0803V24.6914H35.6666H41.3888V24.047V23.4136H40.9221C40.1666 23.4136 39.0332 23.1914 38.6666 22.9803C38.4888 22.8803 38.2221 22.6247 38.0888 22.4136L37.8332 22.047V13.3025V4.55807L38.0888 4.19141C38.2221 3.9803 38.4888 3.72474 38.6666 3.62474C39.0332 3.41363 40.1666 3.19141 40.9221 3.19141H41.3888V2.54696V1.91363H35.6666H29.9443V2.53585Z" fill="#344994"/>
        <path d="M74.8333 2.52496V3.14718L75.8999 3.2694C77.1888 3.42496 78.0444 3.80273 78.4444 4.39162L78.7222 4.80273V12.6027C78.7222 17.9472 78.6777 20.5916 78.5999 20.9916C78.2666 22.5694 77.4777 23.1694 75.5111 23.3694L74.7222 23.4472V24.0694V24.6916H79.8333H84.9444V24.0694V23.4472L83.9777 23.3694C82.2444 23.2361 81.6222 22.9361 81.1666 22.025L80.8888 21.4694L80.8555 14.3027L80.8333 7.13607L81.1888 7.55829C81.3888 7.78051 85.0555 11.8694 89.3333 16.625L97.1111 25.2916H97.7555L98.3888 25.3027V15.1583C98.3888 8.19162 98.4333 4.89162 98.5111 4.58051C98.7555 3.68051 99.3444 3.32496 100.789 3.22496L101.722 3.15829V2.53607V1.91385H97.1111H92.4999V2.53607V3.15829L93.5666 3.22496C95.2111 3.33607 95.8222 3.70273 96.1777 4.80273C96.2777 5.13607 96.3333 6.68051 96.3555 10.9694C96.3777 14.1138 96.3888 17.0694 96.3666 17.5138L96.3333 18.3472L88.9888 10.125L81.6555 1.91385H78.2444H74.8333V2.52496Z" fill="#344994"/>
        <path d="M104.833 2.53585V3.15807L105.755 3.23585C106.989 3.32474 107.444 3.46918 107.922 3.91363L108.333 4.28029V13.3025V22.3247L107.922 22.6914C107.444 23.1359 106.989 23.2803 105.755 23.3692L104.833 23.447V24.0692V24.6914H114.811H124.789L125.533 22.1359C125.944 20.7247 126.278 19.547 126.278 19.4914C126.278 19.447 125.989 19.4136 125.644 19.4136H125L124.344 20.4247C123.444 21.8025 122.7 22.4581 121.689 22.7692C120.944 23.0025 120.689 23.0247 118.111 23.0247C115.555 23.0247 115.267 23.0025 114.544 22.7803C113.6 22.4803 113.022 21.9692 112.844 21.247C112.767 20.947 112.722 19.4359 112.722 17.247V13.7359L115.755 13.7692C118.7 13.8025 118.789 13.8136 119.233 14.0692C119.789 14.3803 120.022 14.8359 120.122 15.8025L120.2 16.5247H120.833H121.467V12.6914V8.85807H120.833H120.2L120.122 9.60252C119.989 11.0803 119.622 11.7247 118.767 11.9581C118.511 12.0359 117.222 12.0803 115.533 12.0803H112.722V7.80252V3.52474H115.867C119.3 3.52474 120.144 3.61363 121.033 4.04696C121.778 4.40252 122.189 5.00252 122.455 6.14696L122.655 6.96918H123.2H123.755L123.678 5.54696C123.644 4.76918 123.578 3.63585 123.544 3.02474L123.467 1.91363H114.155H104.833V2.53585Z" fill="#344994"/>
        <path d="M147.133 22.8582C146.522 23.3471 146.7 24.3915 147.433 24.636C147.889 24.7804 148.222 24.7137 148.589 24.3804C148.944 24.0471 148.933 23.2804 148.555 22.9137C148.211 22.5582 147.544 22.536 147.133 22.8582ZM148.166 23.0249C148.522 23.2026 148.666 23.5137 148.555 23.8582C148.411 24.3249 148.211 24.0582 148.278 23.4804C148.3 23.236 148.1 23.0804 147.722 23.0804C147.5 23.0804 147.478 23.0582 147.611 22.9693C147.822 22.836 147.789 22.8249 148.166 23.0249ZM147.566 24.1915C147.644 24.1915 147.722 24.1137 147.722 24.0249C147.722 23.936 147.778 23.8582 147.833 23.8582C147.9 23.8582 147.944 23.936 147.944 24.0249C147.944 24.1137 148.033 24.1915 148.144 24.1915C148.3 24.1915 148.311 24.2137 148.166 24.3026C147.9 24.4804 147.589 24.4249 147.311 24.1693C147.022 23.9026 146.989 23.6249 147.2 23.2693C147.322 23.0471 147.333 23.0804 147.366 23.6026C147.389 24.0249 147.444 24.1915 147.566 24.1915Z" fill="#344994"/>
        <path d="M29.9443 29.4695V29.8584H87.7221H145.5V29.4695V29.0806H87.7221H29.9443V29.4695Z" fill="#344994"/>
        <path d="M141.978 34.4026C141.044 34.6471 140.489 35.2248 140.422 36.0471C140.333 37.1026 140.922 37.6693 142.489 38.0471C143.889 38.3804 144.389 38.9137 143.766 39.4026C143.289 39.7804 142.166 39.736 141.322 39.3026C140.966 39.1248 140.666 38.9915 140.666 39.0026C140.666 39.0137 140.578 39.2137 140.466 39.4471C140.366 39.6804 140.278 39.9137 140.278 39.9693C140.278 40.2693 141.778 40.7471 142.733 40.7471C144.3 40.7471 145.278 40.0137 145.278 38.836C145.278 37.8471 144.789 37.4582 142.978 36.9693C141.978 36.7026 141.533 36.3693 141.666 35.9804C141.844 35.4137 143.044 35.236 144.078 35.636C144.389 35.7582 144.666 35.8471 144.678 35.8248C144.711 35.7804 145.055 34.9471 145.055 34.8915C145.055 34.8693 144.822 34.7471 144.544 34.6137C143.978 34.3693 142.578 34.2471 141.978 34.4026Z" fill="#344994"/>
        <path d="M32.611 36.7362C32.611 38.9139 32.5999 39.0695 32.3777 39.3473C32.0444 39.7806 31.4221 39.7473 30.8888 39.2917L30.4888 38.9362L30.1666 39.3139C29.9888 39.525 29.8444 39.7473 29.8333 39.825C29.8333 40.0139 30.4777 40.4695 30.9888 40.6362C31.5666 40.825 32.6666 40.7139 33.0333 40.4473C33.7999 39.8695 33.9444 39.2473 33.9444 36.3806V34.4139H33.2777H32.611V36.7362Z" fill="#344994"/>
        <path d="M44.8333 37.5246V40.6357H47.2221H49.611V40.1357V39.6357H47.8333H46.0555V38.8024V37.9691H47.5555H49.0555V37.4691V36.9691H47.5555H46.0555V36.2469V35.5246H47.7221H49.3888V34.9691V34.4135H47.111H44.8333V37.5246Z" fill="#344994"/>
        <path d="M59.5222 34.547C59.5555 34.6248 60.0222 36.0248 60.5666 37.6581L61.5555 40.6359H62.2222H62.8888L63.611 38.5359C63.9999 37.3692 64.3555 36.447 64.3888 36.4803C64.4222 36.5136 64.7444 37.447 65.1222 38.5581L65.7999 40.5803L66.4666 40.6136L67.1444 40.647L68.1555 37.6136C68.711 35.947 69.1666 34.547 69.1666 34.4914C69.1666 34.447 68.8999 34.4136 68.5777 34.4136H67.9999L67.2888 36.547C66.8999 37.7248 66.5444 38.7248 66.511 38.7803C66.4666 38.8248 66.111 37.8581 65.711 36.6359L64.9999 34.4025L64.3999 34.4359L63.7999 34.4692L63.0666 36.6025C62.6666 37.7803 62.311 38.747 62.2777 38.747C62.2444 38.747 61.911 37.7692 61.5222 36.5803L60.8222 34.4136H60.1555C59.6555 34.4136 59.4888 34.447 59.5222 34.547Z" fill="#344994"/>
        <path d="M79.5 37.5246V40.6357H81.8333H84.1667V40.1357V39.6357H82.4444H80.7222V38.8024V37.9691H82.2222H83.7222V37.4691V36.9691H82.2222H80.7222V36.2469V35.5246H82.3889H84.0556V34.9691V34.4135H81.7778H79.5V37.5246Z" fill="#344994"/>
        <path d="M94.8333 37.5246V40.6357H97.0555H99.2777V40.0802V39.5246H97.6666H96.0555V36.9691V34.4135H95.4444H94.8333V37.5246Z" fill="#344994"/>
        <path d="M109.5 37.5246V40.6357H111.889H114.278V40.1357V39.6357H112.556H110.833V38.8024V37.9691H112.278H113.722V37.4691V36.9691H112.278H110.833V36.2469V35.5246H112.5H114.167V34.9691V34.4135H111.833H109.5V37.5246Z" fill="#344994"/>
        <path d="M124.944 37.5246V40.6357H125.555H126.167V39.7469V38.858H126.922H127.678L128.289 39.7469L128.889 40.6357H129.589C130.122 40.6357 130.267 40.6024 130.211 40.4913C130.167 40.4246 129.844 39.958 129.511 39.4802C129.155 38.958 128.955 38.5802 129.022 38.558C129.344 38.4469 129.767 38.0024 129.955 37.5913C130.533 36.3135 129.867 34.9024 128.511 34.5246C128.289 34.4691 127.4 34.4135 126.533 34.4135H124.944V37.5246ZM128.567 35.8802C128.789 36.1024 128.867 36.2802 128.867 36.6357C128.867 37.4691 128.211 37.8469 126.811 37.858H126.167V36.6802V35.5024L127.222 35.5469C128.189 35.5802 128.3 35.6024 128.567 35.8802Z" fill="#344994"/>
    </g>
    <defs>
        <clipPath id="clip0_41_2423">
            <rect width="150.111" height="40" fill="white" transform="translate(0.944336 0.74707)"/>
        </clipPath>
    </defs>
</svg>
