<svg width="85" height="25" viewBox="0 0 85 25" fill="none" xmlns="http://www.w3.org/2000/svg">
<g clip-path="url(#clip0_203_160)">
<path d="M60.832 3.10771V5.38672H72.504H84.1761V3.10771V0.828708H72.504H60.832V3.10771Z" fill="#96EC15"/>
<path d="M60.832 12.5V14.779H72.504H84.1761V12.5V10.221H72.504H60.832V12.5Z" fill="#96EC15"/>
<path d="M60.832 21.8923V24.1713H72.504H84.1761V21.8923V19.6133H72.504H60.832V21.8923Z" fill="#96EC15"/>
<path d="M6.61874 0.75968C5.19063 1.07736 3.85864 1.82322 2.82876 2.90056C1.53796 4.24034 0.961228 5.66299 0.961228 7.52764C0.961228 10.0967 2.16963 12.1409 4.32552 13.2044C4.86107 13.453 6.24798 13.9503 7.42892 14.2818C9.92811 14.9862 10.3813 15.1796 11.0404 15.8287C11.878 16.6575 12.0153 17.9558 11.3562 19.1298C11.1365 19.5442 10.8481 19.7928 10.2302 20.0967C9.46123 20.4834 9.29645 20.5111 7.8958 20.5111C6.20679 20.4972 5.09451 20.2348 3.10339 19.3785C2.49919 19.116 1.90872 18.8674 1.8126 18.826C1.70275 18.7845 1.35945 19.337 0.82391 20.4834C0.370759 21.4365 0 22.279 0 22.3619C0 22.5414 1.74394 23.3702 2.89742 23.7431C4.75121 24.337 5.94588 24.489 8.1567 24.4061C9.81826 24.3647 10.4499 24.2818 11.3288 24.0055C14.2811 23.1216 16.3271 21.0912 16.8901 18.4807C17 18.0111 17.0412 17.1823 17 16.3398C16.8764 14.1437 16.2585 12.9006 14.6244 11.5608C13.6906 10.8149 12.5921 10.3453 9.77706 9.54421C6.70113 8.66023 6.17932 8.2873 6.17932 6.97515C6.17932 5.82874 6.97577 4.90333 8.29402 4.54421C9.47496 4.22653 11.9467 4.79283 13.773 5.80112L14.5145 6.21548L15.5856 4.59946C16.3958 3.37018 16.6155 2.942 16.5194 2.77625C16.1486 2.18233 13.6357 1.09117 11.8368 0.745867C10.5735 0.497248 7.77221 0.511061 6.61874 0.75968Z" fill="#15156B"/>
<path d="M26.5024 0.745865C24.7035 1.1326 23.0832 1.98896 21.7237 3.2873C19.5953 5.3315 18.5379 7.98343 18.332 11.8785C17.9887 17.9696 20.7762 22.6934 25.5 24.0193C28.3837 24.8204 32.2148 24.3785 35.2221 22.9144L36.3893 22.3481V16.768V11.1879H31.8441H27.2988L27.3675 11.5608C27.4087 11.7818 27.546 12.6519 27.6833 13.4945L27.9168 15.0553H29.6744H31.4459V17.6658V20.2624L30.5945 20.5111C29.2213 20.8978 27.4774 20.8011 26.4612 20.2763C25.1979 19.6409 24.4426 18.5497 23.9483 16.6437C23.5912 15.3039 23.5912 10.5249 23.9483 8.97791C24.4426 6.78178 25.3352 5.442 26.7633 4.77901C27.2851 4.54421 27.6421 4.48896 28.9055 4.50277C30.6082 4.51658 31.4459 4.75139 32.7092 5.60774C33.0937 5.87017 33.4644 6.11879 33.5194 6.14642C33.5743 6.18785 34.1922 5.55249 34.8925 4.75139L36.1696 3.27349L35.6203 2.80387C34.9475 2.22376 32.8877 1.20166 31.7891 0.897797C30.6494 0.593929 27.6559 0.511059 26.5024 0.745865Z" fill="#15156B"/>
<path d="M38.3667 1.47792C38.4629 1.69892 40.1107 4.59947 43.1591 9.80665C44.2851 11.7542 44.3126 11.8232 44.1066 12.1547C43.983 12.3481 43.5986 13.0111 43.2278 13.6326C42.2254 15.3591 41.4289 16.7265 39.2318 20.4973C38.1196 22.3895 37.2133 23.9641 37.2133 23.9917C37.2133 24.0194 38.5178 24.0194 40.1107 24.0055L43.0218 23.9641L45.0129 20.0553L47.004 16.1326L49.0089 20.0829L51.0137 24.0332H53.815C56.4104 24.0332 56.6026 24.0194 56.5202 23.7846C56.4653 23.6602 56.0259 22.8591 55.559 22.0304C55.0784 21.1879 54.021 19.3232 53.2108 17.8868C52.4007 16.4365 51.2609 14.4337 50.6842 13.4116C50.1074 12.3895 49.6543 11.4917 49.6818 11.4365C49.6955 11.3674 50.1624 10.5249 50.7254 9.55803C51.2746 8.59118 52.4419 6.5608 53.307 5.04146C54.1858 3.52212 55.0372 2.04422 55.202 1.75417L55.5041 1.24312H52.689H49.8877L48.391 4.19892L46.8942 7.16853L45.4112 4.19892L43.9419 1.24312H41.1131C38.4766 1.24312 38.2843 1.25693 38.3667 1.47792Z" fill="#15156B"/>
<path d="M60.832 7.80388V10.0829H72.504H84.1761V7.80388V5.52487H72.504H60.832V7.80388Z" fill="#15156B"/>
<path d="M60.832 17.1962V19.4752H72.504H84.1761V17.1962V14.9171H72.504H60.832V17.1962Z" fill="#15156B"/>
<path d="M60.0081 12.5V25H72.504H85V12.5V0H72.504H60.0081V12.5ZM84.3134 12.5V24.3094H72.5727H60.832V12.5V0.690609H72.5727H84.3134V12.5Z" fill="#ECECEC"/>
</g>
<defs>
<clipPath id="clip0_203_160">
<rect width="85" height="25" fill="white"/>
</clipPath>
</defs>
</svg>
