<svg width="160" height="36" viewBox="0 0 160 36" fill="none" xmlns="http://www.w3.org/2000/svg">
<g clip-path="url(#clip0_114_8187)">
<path d="M37.648 34.4123L38.2467 33.6926C38.6622 34.0369 39.0963 34.2534 39.6218 34.2534C40.0372 34.2534 40.2865 34.0883 40.2865 33.8193V33.8063C40.2865 33.5498 40.1297 33.4179 39.359 33.2195C38.4306 32.9838 37.8324 32.7262 37.8324 31.8107V31.7988C37.8324 30.9627 38.5043 30.4097 39.4447 30.4097C40.1162 30.4097 40.6884 30.6195 41.1563 30.9944L40.6282 31.7577C40.2205 31.4752 39.8191 31.3049 39.4302 31.3049C39.0428 31.3049 38.8382 31.4825 38.8382 31.7058V31.7188C38.8382 32.0226 39.0355 32.1207 39.8311 32.3248C40.7673 32.5688 41.2929 32.9038 41.2929 33.7076V33.7196C41.2929 34.6356 40.5955 35.1476 39.601 35.1476C38.8816 35.1501 38.1863 34.8885 37.647 34.4123" fill="#005480"/>
<path d="M45.3698 30.4414H46.3045L48.2809 35.0838H47.2216L46.7989 34.0504H44.8505L44.4299 35.0838H43.3955L45.3698 30.4414ZM46.437 33.1541L45.8242 31.6607L45.2114 33.1541H46.437Z" fill="#005480"/>
<path d="M53.5983 30.4751V31.4098H52.1962V35.0832H51.1826V31.4098H49.7805V30.4751H53.5983Z" fill="#005480"/>
<path d="M57.0937 31.3772V32.3119H59.2675V33.2139H57.0937V34.1813H59.5956V35.0828H56.0879V30.4741H59.5619V31.3761L57.0937 31.3772Z" fill="#005480"/>
<path d="M65.5206 34.1615V35.0832H62.2102V30.4746H63.2228V34.1615H65.5206Z" fill="#005480"/>
<path d="M73.8291 30.4751H74.8427V35.0832H73.8291V30.4751Z" fill="#005480"/>
<path d="M119.91 30.3955C118.487 30.3955 117.455 31.4704 117.455 32.7811V32.7925C117.455 34.1027 118.476 35.1615 119.898 35.1615C121.32 35.1615 122.354 34.0887 122.354 32.7801V32.766C122.354 31.4564 121.331 30.396 119.91 30.396L119.91 30.3955ZM119.899 31.3302C120.716 31.3302 121.294 31.9897 121.294 32.7858C121.294 33.5823 120.727 34.2283 119.911 34.2283C119.093 34.2283 118.517 33.5699 118.517 32.7723C118.517 31.9746 119.082 31.3302 119.898 31.3302H119.899ZM93.4944 30.4734V35.082H94.5096V33.6073H95.303L96.2923 35.082H97.4762L96.352 33.4359C96.9372 33.2178 97.3376 32.7525 97.3376 32.1569C97.3376 31.5608 97.2005 31.1988 96.9429 30.9418C96.6418 30.6391 96.1858 30.4734 95.5996 30.4734H93.4944ZM94.507 31.3915H95.5144C96.0088 31.3915 96.311 31.6132 96.311 32.0318C96.311 32.4498 96.0254 32.7141 95.5336 32.7141H94.5054L94.507 31.3915ZM106.875 30.4744V35.0831H108.671C110.12 35.0831 111.121 34.0746 111.121 32.7712C111.121 31.4678 110.119 30.4739 108.672 30.4739L106.875 30.4744ZM107.89 31.3915H108.672C109.502 31.3915 110.061 31.9627 110.061 32.7852C110.061 33.6083 109.502 34.1665 108.672 34.1665H107.89V31.3915Z" fill="#005480"/>
<path d="M14.6717 23.1245C14.9146 23.4264 15.2673 23.6196 15.6524 23.6618C16.0375 23.7039 16.4236 23.5916 16.726 23.3494C16.8755 23.2288 16.9999 23.08 17.0919 22.9115C17.1839 22.7429 17.2418 22.5579 17.2623 22.3669C17.2828 22.1759 17.2655 21.9828 17.2113 21.7986C17.1572 21.6143 17.0673 21.4425 16.9467 21.293C15.7264 19.7838 15.0643 17.8997 15.0721 15.9589C15.0721 14.036 15.6952 12.2216 16.8792 10.7116C17.1167 10.406 17.2237 10.0188 17.1766 9.63464C17.1295 9.25048 16.9322 8.90058 16.6279 8.66144C16.4769 8.54277 16.304 8.4551 16.119 8.40347C15.9341 8.35184 15.7408 8.33725 15.5502 8.36056C15.3596 8.38387 15.1754 8.4446 15.0084 8.53928C14.8413 8.63396 14.6946 8.76071 14.5767 8.91225C12.9877 10.9395 12.1506 13.3765 12.1506 15.9589C12.1506 18.559 13.0464 21.104 14.6723 23.125L14.6717 23.1245ZM11.5851 5.10175C11.2761 4.86844 10.8872 4.7672 10.5036 4.82026C10.1201 4.87331 9.77322 5.07632 9.53914 5.38476C7.19406 8.47034 5.95297 12.1562 5.95297 16.0446C5.95297 19.8987 7.17329 23.5597 9.48202 26.6318C9.71491 26.9409 10.0609 27.1452 10.4441 27.1997C10.8274 27.2542 11.2166 27.1545 11.5264 26.9226C11.8357 26.6897 12.0399 26.3436 12.0942 25.9602C12.1484 25.5769 12.0482 25.1877 11.8157 24.8781C9.89225 22.316 8.87394 19.2616 8.87394 16.0451C8.87394 12.8006 9.90731 9.72545 11.8624 7.1498C12.0966 6.84113 12.1988 6.45217 12.1467 6.06823C12.0945 5.6843 11.8922 5.33673 11.5841 5.10175H11.5851ZM2.92659 15.9948C2.92659 11.3721 4.29957 6.9208 6.90118 3.12276C7.12016 2.80304 7.20316 2.40942 7.13192 2.0285C7.06069 1.64758 6.84105 1.31056 6.52133 1.09159C6.2016 0.872607 5.80799 0.789607 5.42707 0.860843C5.04615 0.93208 4.70913 1.15172 4.49015 1.47144C1.55412 5.75864 0.00146484 10.7796 0.00146484 15.9958C0.00146484 21.2239 1.56087 26.2558 4.513 30.5492C4.62154 30.7074 4.76021 30.8425 4.92106 30.947C5.08192 31.0514 5.2618 31.1231 5.45041 31.1579C5.63902 31.1928 5.83264 31.1901 6.02019 31.1499C6.20775 31.1098 6.38554 31.0331 6.54339 30.9242C6.70162 30.8157 6.83691 30.6772 6.94154 30.5164C7.04616 30.3556 7.11806 30.1758 7.15312 29.9872C7.18819 29.7986 7.18573 29.605 7.14588 29.4174C7.10604 29.2297 7.02959 29.0518 6.92091 28.8938C4.30528 25.091 2.92763 20.6299 2.92763 15.9948H2.92659ZM143.282 23.3494C143.584 23.5918 143.97 23.7042 144.356 23.6621C144.741 23.6199 145.094 23.4266 145.337 23.1245C146.966 21.0911 147.855 18.5639 147.857 15.9584C147.857 13.376 147.019 10.939 145.433 8.91173C145.315 8.76029 145.168 8.63363 145.001 8.53901C144.834 8.44439 144.65 8.38367 144.459 8.36032C144.268 8.33697 144.075 8.35146 143.89 8.40295C143.705 8.45445 143.532 8.54193 143.381 8.6604C143.23 8.77856 143.103 8.92541 143.009 9.09252C142.914 9.25963 142.854 9.44373 142.831 9.63427C142.807 9.82481 142.822 10.018 142.874 10.2029C142.925 10.3878 143.013 10.5606 143.132 10.7116C144.309 12.2066 144.945 14.0557 144.939 15.9584C144.939 17.9213 144.288 19.7684 143.061 21.2935C142.941 21.443 142.851 21.6148 142.797 21.7991C142.742 21.9833 142.725 22.1765 142.746 22.3674C142.766 22.5584 142.824 22.7435 142.916 22.9121C143.008 23.0806 143.133 23.2294 143.282 23.3499M148.48 26.9226C148.79 27.1545 149.18 27.2541 149.563 27.1996C149.947 27.1451 150.293 26.9409 150.526 26.6318C152.835 23.5602 154.054 19.8967 154.054 16.0436C154.054 12.1557 152.816 8.46878 150.471 5.38424C150.237 5.0758 149.89 4.87279 149.507 4.81974C149.123 4.76668 148.734 4.86792 148.425 5.10123C148.272 5.21723 148.144 5.36221 148.047 5.52792C147.95 5.69362 147.886 5.87679 147.86 6.06697C147.834 6.25715 147.846 6.45061 147.894 6.63632C147.943 6.82202 148.028 6.99633 148.144 7.14929C150.1 9.72493 151.134 12.8001 151.134 16.0446C151.134 19.259 150.119 22.315 148.192 24.8776C148.076 25.0308 147.992 25.2052 147.944 25.3909C147.896 25.5767 147.885 25.77 147.912 25.9599C147.939 26.1499 148.003 26.3327 148.101 26.4978C148.198 26.663 148.327 26.8073 148.48 26.9226ZM153.107 3.1238C155.708 6.92132 157.082 11.3731 157.082 15.9942C157.082 20.6294 155.699 25.0921 153.088 28.8932C152.98 29.0512 152.903 29.2291 152.863 29.4167C152.823 29.6043 152.821 29.7979 152.856 29.9865C152.891 30.1751 152.962 30.3549 153.067 30.5157C153.171 30.6765 153.307 30.8151 153.465 30.9236C153.623 31.0327 153.8 31.1095 153.988 31.1498C154.175 31.19 154.369 31.1928 154.558 31.1581C154.746 31.1234 154.926 31.0518 155.087 30.9474C155.248 30.843 155.387 30.7079 155.495 30.5498C158.441 26.2553 160 21.2234 160 15.9942C160 10.7806 158.449 5.75761 155.515 1.47092C155.294 1.15539 154.958 0.939782 154.579 0.87102C154.2 0.802257 153.809 0.885907 153.492 1.10376C153.175 1.32162 152.956 1.65605 152.884 2.03427C152.812 2.41249 152.892 2.80389 153.107 3.12328" fill="#00ADEE"/>
<path d="M28.3736 7.08652C24.8632 7.08652 20.3859 8.34318 20.3859 12.6605C20.3859 19.1983 30.7259 17.0412 30.7259 19.7477C30.7259 20.9405 29.6302 21.2609 28.6 21.2609C27.9561 21.2609 27.3755 21.0687 26.9559 20.7457C26.5057 20.3926 26.2481 19.8759 26.2481 19.1983H19.8713C20.2245 23.7405 24.4758 24.9322 28.3408 24.9322C34.5271 24.9322 37.4257 22.5503 37.4257 19.0383C37.4257 12.7228 26.7648 14.3025 26.7648 11.9512C26.7648 11.1136 27.5043 10.7594 28.6638 10.7594C29.1779 10.7594 29.6609 10.8872 30.0166 11.1769C30.3707 11.4667 30.5961 11.8535 30.6615 12.4024H36.7501C36.3627 7.9236 32.047 7.08496 28.3741 7.08496L28.3736 7.08652ZM123.34 7.08912C120.924 7.08912 119.401 8.79444 118.563 10.0828V7.57049H112.409V24.4503H119.109V16.1054C119.109 14.0776 119.156 12.325 120.997 12.3718C122.782 12.4185 122.929 13.3688 122.929 15.8494V24.4503H129.628V16.107C129.628 14.0781 129.612 12.3811 131.497 12.3749C133.269 12.3697 133.431 13.3678 133.431 15.8489V24.4498H140.13V14.464C140.13 9.85793 138.04 7.09015 133.792 7.09015C131.349 7.09015 130.079 8.14949 128.629 10.1783C127.823 8.37434 126.134 7.0886 123.34 7.0886V7.08912Z" fill="#005480"/>
<path d="M38.5537 7.11377V9.7133H43.9958V7.11377H38.5537ZM38.5537 10.8308V24.5409H43.9958V10.8308H38.5537Z" fill="#005480"/>
<path d="M54.6461 10.4365C52.5264 10.4365 51.1919 11.4595 50.4347 13.6031H50.3802V10.8301H45.4346V24.5403H50.8793V19.8044C50.8782 16.8481 52.0045 15.8018 54.2276 15.8018C54.5932 15.8018 54.9868 15.9056 55.3524 15.9575V10.5165C55.1176 10.4926 54.8809 10.4376 54.6461 10.4376V10.4365ZM85.6868 10.4386C82.8349 10.4386 79.1968 11.459 79.1968 14.9652C79.1968 20.2775 87.5972 18.5249 87.5972 20.722C87.5972 21.6899 86.7062 21.9511 85.8696 21.9511C85.3462 21.9511 84.8757 21.7943 84.535 21.532C84.1695 21.2444 83.9602 20.8248 83.9602 20.2775H78.7793C79.0659 23.9675 82.5213 24.9339 85.6598 24.9339C90.6849 24.9339 93.0388 22.9985 93.0388 20.1461C93.0388 15.0171 84.3782 16.2998 84.3782 14.3903C84.3782 13.7101 84.979 13.4224 85.9231 13.4224C86.3395 13.4224 86.7321 13.5278 87.0188 13.7615C87.3085 13.9972 87.4913 14.3109 87.5448 14.7549H92.4899C92.1742 11.1189 88.6701 10.4381 85.6858 10.4381L85.6868 10.4386ZM63.2901 10.8301V19.1771C63.2901 23.1029 65.2245 24.9328 68.2077 24.9328C70.4583 24.9328 71.7918 24.4094 73.1529 22.5254V24.5403H78.2019V10.8301H72.7598V17.423C72.7598 19.5416 72.2623 20.7204 70.693 20.7204C69.3844 20.7204 68.7301 20.1191 68.7301 18.2362V10.8301H63.2901Z" fill="#005480"/>
<path d="M100.199 7.56982L102.326 11.7906L104.581 7.56982H111.925L106.159 15.5912L111.99 24.4502H104.516L102.131 19.6172L99.6841 24.4502H92.2739L98.3308 15.6223L92.7574 7.56982H100.199Z" fill="#005480"/>
<path d="M139.193 5.72852V6.02866H138.609V7.57093H138.283V6.02866H137.698V5.72852H139.193ZM141.002 5.72852H141.346V7.57093H141.023V6.24936L140.442 7.1176H140.431L139.855 6.25455V7.57093H139.536V5.72852H139.88L140.441 6.59883L141.002 5.72852Z" fill="#005480"/>
<path d="M56.512 7.11377V9.7133H61.954V7.11377H56.512ZM56.512 10.8308V24.5409H61.954V10.8308H56.512Z" fill="#005480"/>
<path d="M71.307 34.1615V35.0832H67.9966V30.4746H69.0092V34.1615H71.307Z" fill="#005480"/>
<path d="M81.1947 30.4751V31.4098H79.7927V35.0832H78.779V31.4098H77.377V30.4751H81.1947Z" fill="#005480"/>
<path d="M84.6894 31.3772V32.3119H86.8632V33.2139H84.6894V34.1813H87.1914V35.0828H83.6836V30.4741H87.1576V31.3761L84.6894 31.3772Z" fill="#005480"/>
<path d="M101.542 30.4414H102.477L104.453 35.0838H103.394L102.971 34.0504H101.023L100.602 35.0838H99.5679L101.542 30.4414ZM102.609 33.1541L101.997 31.6607L101.384 33.1541H102.609Z" fill="#005480"/>
<path d="M113.781 30.4751H114.794V35.0832H113.781V30.4751Z" fill="#005480"/>
</g>
<defs>
<clipPath id="clip0_114_8187">
<rect width="160" height="34.3262" fill="white" transform="translate(0 0.836914)"/>
</clipPath>
</defs>
</svg>
