<svg width="66" height="15" viewBox="0 0 66 15" fill="none" xmlns="http://www.w3.org/2000/svg">
    <g clip-path="url(#clip0_723_587)">
        <path fill-rule="evenodd" clip-rule="evenodd" d="M17.0456 0.0720215H19.1086V12.2781H17.0456V0.0720215Z" fill="#003366"/>
        <path fill-rule="evenodd" clip-rule="evenodd" d="M8.9943 4.4789C8.9943 4.19005 8.79579 4.0328 8.56791 4.0328C8.34114 4.0328 8.1375 4.18552 8.1375 4.4789V10.3575C8.1375 10.6505 8.34104 10.8036 8.56791 10.8036C8.79589 10.8036 8.9943 10.6437 8.9943 10.3575V8.43105H11.0553V10.2068C11.0553 11.6472 9.92252 12.398 8.55835 12.398C7.25365 12.398 6.07611 11.6714 6.07611 10.2068V4.62841C6.07611 3.16695 7.25375 2.43823 8.55835 2.43823C9.89948 2.43823 11.0553 3.18959 11.0553 4.62841V6.21854H8.9943V4.4789Z" fill="#003366"/>
        <path fill-rule="evenodd" clip-rule="evenodd" d="M13.6203 4.74364C13.6203 4.45036 13.8233 4.29763 14.0501 4.29763C14.2778 4.29763 14.4772 4.45579 14.4772 4.74364V12.2791H16.5401V4.20547C16.5401 2.8898 15.6874 2.43655 15.0367 2.43655C14.3097 2.43655 13.7989 2.96204 13.6579 3.22885H13.6245V0.0720215H11.5616V12.2791H13.6202V4.74364H13.6203Z" fill="#003366"/>
        <path fill-rule="evenodd" clip-rule="evenodd" d="M22.5303 10.1819C22.5303 10.469 22.331 10.6282 22.1032 10.6282C21.877 10.6282 21.6734 10.4752 21.6734 10.1819V2.55176H19.6115V10.654C19.6115 11.7283 20.3524 12.3981 21.1474 12.3981C21.953 12.3981 22.3903 11.8142 22.514 11.6003H22.5605L22.5974 12.2791H24.5923V2.55176H22.5304V10.1819H22.5303Z" fill="#003366"/>
        <path fill-rule="evenodd" clip-rule="evenodd" d="M27.1573 12.2791H25.0952V2.55172H27.1375L27.1582 3.23023H27.1994C27.3507 2.93172 27.8414 2.43652 28.585 2.43652C29.3551 2.43652 29.8502 3.02972 29.9559 3.37873H29.9851C30.139 3.02388 30.6789 2.43652 31.46 2.43652C32.2492 2.43652 33.0054 2.97187 33.0054 4.29589V12.2791H30.9426V4.64732C30.9426 4.35334 30.7408 4.20031 30.5136 4.20031C30.2857 4.20031 30.0847 4.35817 30.0847 4.64732V12.2791H28.0123V4.65084C28.0123 4.35676 27.8069 4.20384 27.5801 4.20384C27.3522 4.20384 27.1572 4.3623 27.1572 4.65084V12.2791H27.1573Z" fill="#003366"/>
        <path fill-rule="evenodd" clip-rule="evenodd" d="M36.9328 2.43655C36.2426 2.43585 35.746 3.02049 35.616 3.23368H35.5719V0.0720215H33.5093V12.2791H35.5489L35.5719 11.6003H35.616C35.7191 11.8623 36.1617 12.3943 36.9182 12.3953C37.7914 12.3964 38.5014 11.644 38.5014 10.5061V4.20547C38.5014 3.11124 37.7611 2.43655 36.9328 2.43655ZM36.4316 10.1852C36.4316 10.4735 36.2322 10.6317 36.0035 10.6317C35.7769 10.6317 35.5729 10.478 35.5729 10.1852V4.65369C35.5729 4.36031 35.7769 4.20759 36.0035 4.20759C36.2321 4.20759 36.4316 4.36645 36.4316 4.65369V10.1852Z" fill="#003366"/>
        <path fill-rule="evenodd" clip-rule="evenodd" d="M41.0671 10.3623C41.0671 10.6555 41.2717 10.8087 41.4987 10.8087C41.7256 10.8087 41.9247 10.6505 41.9247 10.3623V8.43105H43.9864V10.2052C43.9864 11.6721 42.7792 12.3981 41.49 12.3981C40.1843 12.3981 39.0023 11.6721 39.0023 10.2052V4.63183C39.0023 3.16967 40.1825 2.43823 41.4883 2.43823C42.8283 2.43823 43.9863 3.18617 43.9863 4.63183V7.77488H41.0669V10.3623H41.0671ZM41.9248 6.29149V4.48061C41.9248 4.19287 41.7257 4.03461 41.4988 4.03461C41.2718 4.03461 41.0672 4.18653 41.0672 4.48061L41.0691 6.29149H41.9248Z" fill="#003366"/>
        <path fill-rule="evenodd" clip-rule="evenodd" d="M46.9879 4.20544C46.7619 4.20544 46.5563 4.35817 46.5563 4.65245V12.2791H44.4922V2.55172H46.5149L46.5546 3.22883H46.6002C46.7949 2.95849 47.2928 2.43652 47.9819 2.43652C48.7807 2.43652 49.4778 3.08435 49.4778 4.11329V7.76462H47.4138V4.58786C47.4138 4.35515 47.1913 4.20544 46.9833 4.20544H46.9879Z" fill="#003366"/>
        <path fill-rule="evenodd" clip-rule="evenodd" d="M57.5222 10.3623C57.5222 10.6555 57.7275 10.8087 57.9538 10.8087C58.1815 10.8087 58.3802 10.6505 58.3802 10.3623V8.43105H60.4421V10.2052C60.4421 11.6721 59.2327 12.3981 57.9453 12.3981C56.6394 12.3981 55.4593 11.6721 55.4593 10.2052V4.63183C55.4593 3.16967 56.6377 2.43823 57.9435 2.43823C59.2832 2.43823 60.4421 3.18617 60.4421 4.63183V7.77488H57.5222V10.3623ZM58.3802 6.29149V4.48061C58.3802 4.19287 58.1814 4.03461 57.9538 4.03461C57.7275 4.03461 57.5222 4.18653 57.5222 4.48061L57.524 6.29149H58.3802Z" fill="#003366"/>
        <path fill-rule="evenodd" clip-rule="evenodd" d="M63.437 4.20544C63.2081 4.20544 63.0044 4.35817 63.0044 4.65245V12.2791H60.9398V2.55172H62.9615L63.0027 3.22883H63.0474C63.2424 2.95849 63.741 2.43652 64.4305 2.43652C65.2296 2.43652 65.9271 3.08435 65.9271 4.11329V7.76462H63.8614V4.58786C63.8614 4.35515 63.6389 4.20544 63.4315 4.20544H63.437Z" fill="#003366"/>
        <path fill-rule="evenodd" clip-rule="evenodd" d="M52.897 9.57579C52.897 9.86293 52.6992 10.0212 52.4707 10.0212C52.2443 10.0212 52.0401 9.86916 52.0401 9.57579V4.65527C52.0401 4.363 52.2443 4.21098 52.4707 4.21098C52.6992 4.21098 52.897 4.36783 52.897 4.65527V9.57579ZM52.897 12.9916C52.897 13.2794 52.6981 13.4369 52.4707 13.4369C52.2443 13.4369 52.0401 13.2839 52.0401 12.9916V12.2027H49.9806V12.7389C49.9806 14.2594 51.0291 14.9359 52.4638 14.9359C53.887 14.9359 54.9607 14.2594 54.9607 12.7389V2.55172H52.9279L52.897 3.23365H52.8471C52.7395 3.0108 52.2567 2.43652 51.4874 2.43652C50.7435 2.43652 49.9805 3.00809 49.9805 4.06449V9.87399C49.9805 10.9865 50.6948 11.6361 51.4995 11.6361C52.2643 11.6361 52.7095 11.1247 52.8361 10.9221H52.8969V12.9916H52.897Z" fill="#003366"/>
        <path fill-rule="evenodd" clip-rule="evenodd" d="M2.36914 10.2052C2.36914 10.4992 2.57358 10.6522 2.80065 10.6522C3.02813 10.6522 3.22613 10.493 3.22613 10.2052V9.05173C3.22613 8.13126 3.02904 7.79693 2.34559 7.15464C1.76306 6.60651 1.46908 6.3245 1.0927 5.96965C0.611181 5.51429 0.0557139 4.88015 0.0557139 3.69517V2.23301C0.0551102 0.628082 1.39071 0.0307617 2.79783 0.0307617C4.20054 0.0307617 5.52517 0.641161 5.52517 2.22164V4.10676H3.22603V2.27768C3.22603 1.98953 3.02743 1.83127 2.79965 1.83127C2.57267 1.83127 2.36914 1.9846 2.36914 2.27768V3.1559C2.36914 3.91661 2.60728 4.25114 3.2379 4.85329C3.49154 5.09606 4.06562 5.65454 4.5075 6.08546C5.29759 6.85945 5.57074 7.55758 5.57074 8.5177V10.1518C5.57074 11.8509 4.20315 12.4475 2.79783 12.4475C1.37441 12.4476 0.0473633 11.8509 0.0473633 10.2327V7.8919H2.36914V10.2052Z" fill="#003366"/>
    </g>
    <defs>
        <clipPath id="clip0_723_587">
            <rect width="66" height="14.9909" fill="white"/>
        </clipPath>
    </defs>
</svg>
