<svg width="160" height="41" viewBox="0 0 160 41" fill="none" xmlns="http://www.w3.org/2000/svg">
    <path fill-rule="evenodd" clip-rule="evenodd" d="M0.469281 29.1409C0.444113 26.6169 0.226585 23.6991 0.00546095 21.4681C-0.0184608 21.2327 0.0489966 20.9971 0.193882 20.8101C0.338767 20.6231 0.549998 20.4988 0.783888 20.4632L0.819843 20.4578C1.04734 20.4226 1.2798 20.473 1.47235 20.5991C1.66491 20.7253 1.80391 20.9183 1.86254 21.1409C2.13381 22.2645 2.58422 23.3371 3.19647 24.3175C3.75018 25.1877 5.68816 28.1917 9.75827 28.1917C12.7246 28.1917 14.8998 26.0955 14.8998 23.4456C14.8998 20.9971 12.9223 20.0083 9.04816 18.545C7.90299 18.0704 6.71647 17.6371 5.56951 17.1229C3.98748 16.3697 0.269731 14.6313 0.269731 9.80608C0.269731 4.4326 4.58074 1.26856 10.0765 1.26856C11.4104 1.26856 13.3088 1.45552 15.2109 2.32923C15.6315 2.52159 16.1277 2.37238 16.3758 1.98406L16.6904 1.48788C16.7716 1.35914 16.8834 1.25241 17.0157 1.17715C17.148 1.10189 17.2969 1.06042 17.4491 1.05642C17.6882 1.05068 17.9205 1.13702 18.0978 1.29762C18.2751 1.45821 18.384 1.68078 18.4019 1.91934C18.5766 4.17016 18.8272 6.41443 19.1533 8.64833C19.2038 8.77149 19.2273 8.90403 19.2222 9.03703C19.2171 9.17002 19.1835 9.30039 19.1238 9.41932C19.0641 9.53826 18.9795 9.64301 18.8759 9.72652C18.7723 9.81003 18.6519 9.87035 18.523 9.90343C18.3941 9.9365 18.2596 9.94155 18.1286 9.91825C17.9975 9.89494 17.873 9.84382 17.7634 9.76832C17.6538 9.69283 17.5616 9.59472 17.4931 9.48059C17.4246 9.36647 17.3814 9.239 17.3664 9.10676C16.8702 7.7962 16.5897 7.18316 16.045 6.36698C14.7416 4.58901 13.0014 3.36474 10.8279 3.36474C8.01984 3.36474 6.36052 5.65507 6.36052 7.51395C6.36052 9.64788 8.25715 10.5575 9.08771 10.9531C10.7884 11.7836 12.5664 12.3373 14.3461 13.0492C17.192 14.1566 21.1057 15.8573 21.1057 21.0762C21.1057 26.2142 16.9942 30.5234 10.472 30.5234C7.23063 30.5234 5.11827 29.4987 3.8922 28.7202C3.7882 28.6548 3.67219 28.6108 3.55097 28.5908C3.42975 28.5707 3.30576 28.5751 3.18623 28.6035C3.06671 28.632 2.95406 28.684 2.85488 28.7565C2.7557 28.829 2.67198 28.9206 2.60861 29.0259L2.25805 29.6047C2.18114 29.7304 2.07554 29.8359 1.94991 29.9128C1.82427 29.9897 1.6822 30.0357 1.53535 30.047L1.46883 30.0524C1.34234 30.0628 1.21507 30.047 1.09495 30.006C0.97483 29.965 0.864439 29.8997 0.770659 29.8142C0.676879 29.7287 0.60172 29.6248 0.549869 29.5089C0.498017 29.3931 0.470585 29.2678 0.469281 29.1409ZM21.974 28.9144C21.974 28.5207 22.2562 28.1863 22.641 28.1216C23.2378 28.0227 23.9605 27.7656 24.0702 27.007C24.1888 26.0955 24.1888 23.7243 24.1888 23.131C24.1888 21.7468 24.1493 19.4942 24.1493 18.1099C24.1493 16.1252 23.4841 15.5805 22.5493 15.3162C22.3827 15.2674 22.2365 15.1658 22.1327 15.0267C22.029 14.8876 21.9733 14.7185 21.974 14.545V14.4515C21.974 14.0578 22.258 13.727 22.6446 13.6605C24.6131 13.3153 27.5902 12.474 29.1524 11.9346C29.2531 11.8998 29.3596 11.8853 29.4659 11.8921C29.5722 11.8988 29.6761 11.9267 29.7715 11.9741C29.8669 12.0214 29.9519 12.0873 30.0215 12.1679C30.0912 12.2485 30.1441 12.3421 30.1771 12.4434C30.2095 12.5477 30.2401 12.6465 30.267 12.749C30.301 12.8675 30.3618 12.9766 30.4446 13.0679C30.5275 13.1592 30.6303 13.2302 30.745 13.2753C30.8597 13.3205 30.9833 13.3387 31.1061 13.3285C31.229 13.3183 31.3479 13.2799 31.4536 13.2164C32.9457 12.3499 34.3605 11.7063 36.4441 11.7063C37.947 11.7063 39.45 12.1018 40.676 12.9701C42.6014 14.3077 42.9232 16.3499 43.085 18.5126V21.9841C43.085 22.5773 43.0077 25.6605 43.0077 26.3346C43.0077 27.3342 43.2792 27.9436 44.5861 28.1863C44.7672 28.2235 44.9296 28.3227 45.0455 28.4667C45.1613 28.6108 45.2233 28.7907 45.2207 28.9755C45.221 29.0854 45.1986 29.1941 45.1551 29.2949C45.1116 29.3957 45.0478 29.4866 44.9678 29.5617C44.8877 29.6369 44.7931 29.6948 44.6897 29.7319C44.5863 29.769 44.4764 29.7845 44.3668 29.7773C43.2468 29.7018 41.5551 29.6533 38.7758 29.6533C37.2082 29.6533 36.3434 29.6964 35.5398 29.7665C35.4287 29.7765 35.3168 29.7633 35.211 29.7276C35.1053 29.6919 35.0082 29.6346 34.9259 29.5594C34.8435 29.4841 34.7777 29.3926 34.7327 29.2905C34.6877 29.1884 34.6644 29.0781 34.6643 28.9665V28.7975C34.6643 28.4362 34.907 28.1162 35.2576 28.0245C36.4135 27.7117 36.5574 27.1598 36.5232 24.7526L36.4441 18.5845C36.4046 16.6879 36.3255 14.5126 33.7547 14.5126C32.685 14.5126 31.8562 14.9045 31.058 15.5068C30.9529 15.584 30.8679 15.6854 30.8103 15.8024C30.7527 15.9195 30.7242 16.0487 30.7273 16.1791C30.7902 18.1602 30.7902 23.7836 30.7902 25.5418C30.7902 27.3557 31.1048 27.8573 32.0702 28.1126C32.4153 28.2025 32.6491 28.5261 32.6491 28.8838V28.9881C32.6493 29.098 32.6269 29.2068 32.5834 29.3077C32.5399 29.4086 32.4762 29.4996 32.3962 29.5749C32.3161 29.6502 32.2215 29.7083 32.1181 29.7456C32.0147 29.7829 31.9048 29.7986 31.7951 29.7917C30.4522 29.7072 28.7264 29.6533 25.4922 29.6533C24.2482 29.6533 23.5255 29.6928 22.8513 29.7575C22.7398 29.7681 22.6274 29.7552 22.5212 29.7196C22.4151 29.6841 22.3175 29.6267 22.2349 29.5512C22.1522 29.4756 22.0863 29.3836 22.0414 29.2811C21.9965 29.1785 21.9735 29.0677 21.974 28.9557V28.9144ZM56.4118 22.331C56.4111 22.2086 56.3824 22.0879 56.328 21.9782C56.2735 21.8685 56.1947 21.7727 56.0976 21.6981C56.0004 21.6235 55.8876 21.5721 55.7675 21.5478C55.6475 21.5236 55.5235 21.527 55.405 21.558C54.0711 21.896 52.3003 22.6744 52.3003 24.7526C52.3003 25.8205 52.854 27.0052 54.3569 27.0052C55.1228 27.0052 55.5794 26.7733 56.0594 26.4569C56.1683 26.3835 56.2574 26.2845 56.3189 26.1684C56.3804 26.0524 56.4123 25.923 56.4118 25.7917V22.331ZM65.5479 26.9045C65.6352 26.9746 65.7069 27.062 65.7584 27.1614C65.81 27.2608 65.8401 27.3698 65.8471 27.4815C65.854 27.5932 65.8376 27.7051 65.7987 27.8101C65.7599 27.915 65.6996 28.0107 65.6216 28.091C63.7214 30.0146 61.8374 30.4065 60.8001 30.4065C59.733 30.3937 58.6967 30.048 57.8356 29.4178C57.561 29.1972 57.3146 28.9436 57.1021 28.6627C56.9809 28.502 56.8029 28.3936 56.6045 28.3595C56.4061 28.3254 56.2021 28.3683 56.0342 28.4793C54.9466 29.1859 52.7012 30.4443 50.2059 30.4443C46.5673 30.4443 45.6989 27.994 45.6989 26.5324C45.6989 22.0146 52.6509 20.1252 55.7987 19.5607C55.9822 19.5271 56.1481 19.4303 56.2676 19.2871C56.3872 19.1439 56.4528 18.9634 56.4531 18.7769C56.4567 17.5544 56.4585 16.1162 56.2931 15.62C55.8185 14.2357 54.2383 14.2357 54.0405 14.2357C52.7353 14.2357 52.0234 15.0268 51.7861 15.8969C51.6675 16.411 51.6675 16.9647 51.5488 17.4789C51.2324 18.8218 50.125 19.336 49.138 19.336C47.912 19.336 46.765 18.545 46.765 17.0834C46.765 14.1566 52.1816 11.7836 57.0841 11.7836C60.4837 11.7836 62.9735 12.891 62.9735 16.1737L62.8962 24.9899C62.8567 25.6623 62.8153 27.2011 63.8437 27.2011C64.0989 27.2011 64.3398 27.0681 64.5664 26.8919C64.7079 26.7841 64.8814 26.7267 65.0593 26.729C65.2372 26.7313 65.4092 26.7931 65.5479 26.9045Z" fill="#221F20"/>
    <path fill-rule="evenodd" clip-rule="evenodd" d="M76.6741 27.7171C79.5991 27.7171 80.6651 23.6452 80.6651 20.9575C80.6651 18.1099 79.4786 14.3148 76.5555 14.3148C73.9056 14.3148 73.9056 17.0438 73.9056 17.8726C73.9056 18.7823 73.9469 23.2101 73.9469 24.1989C73.9469 25.4645 73.9469 27.7171 76.6741 27.7171ZM67.3833 18.3472C67.4552 15.327 67.0238 14.6151 65.6755 14.2429C65.5162 14.1957 65.3768 14.0978 65.2782 13.9641C65.1795 13.8305 65.1272 13.6683 65.129 13.5023V13.3045C65.1282 13.1186 65.196 12.939 65.3194 12.8001C65.4428 12.6611 65.6131 12.5725 65.7977 12.5512C68.4674 12.2654 71.2916 11.5373 72.6813 11.1598C72.7806 11.1323 72.8844 11.1256 72.9864 11.1401C73.0884 11.1546 73.1863 11.1899 73.274 11.2439C73.3617 11.2979 73.4373 11.3693 73.4962 11.4538C73.5551 11.5383 73.5959 11.6341 73.6161 11.7351C73.6575 11.9184 73.6988 12.1432 73.7492 12.4254C73.7699 12.5476 73.8203 12.6628 73.896 12.761C73.9716 12.8591 74.0703 12.9372 74.1832 12.9883C74.2961 13.0395 74.4198 13.0621 74.5435 13.0542C74.6672 13.0463 74.787 13.0082 74.8925 12.9432C76.444 11.949 77.9739 11.4294 79.9155 11.4294C84.6993 11.4294 87.6638 15.5409 87.6638 19.8897C87.6638 25.8582 83.4337 30.011 78.4934 30.011C76.9779 30.011 75.8741 29.6245 75.1101 29.2128C74.9948 29.1496 74.8651 29.1174 74.7336 29.1194C74.6022 29.1213 74.4735 29.1575 74.3602 29.2242C74.2469 29.2909 74.1529 29.3859 74.0874 29.4999C74.0219 29.6139 73.9871 29.7429 73.9865 29.8744V34.4371C73.9865 35.967 74.08 37.1463 75.7159 37.4232C75.8875 37.4572 76.0417 37.5503 76.1517 37.6863C76.2618 37.8223 76.3207 37.9925 76.3182 38.1674C76.3182 38.2686 76.298 38.3687 76.2587 38.462C76.2195 38.5552 76.162 38.6396 76.0896 38.7103C76.0173 38.781 75.9315 38.8365 75.8374 38.8736C75.7433 38.9106 75.6427 38.9285 75.5415 38.9261C73.5872 38.8719 71.6323 38.839 69.6773 38.8272C68.1905 38.8272 67.2287 38.8542 65.9631 38.9081C65.8608 38.913 65.7586 38.897 65.6626 38.8613C65.5666 38.8256 65.4788 38.7708 65.4046 38.7003C65.3303 38.6297 65.2711 38.5448 65.2306 38.4508C65.19 38.3568 65.1689 38.2555 65.1685 38.153V38.0542C65.1685 37.6874 65.4238 37.3584 65.7869 37.2973C67.2575 37.0456 67.3833 36.2366 67.3833 35.1094C67.4229 34.358 67.4229 32.0263 67.4229 31.1562L67.3833 18.3472ZM108.354 29.7737C106.749 29.6551 105.699 29.6551 101.494 29.6551C99.1928 29.6551 98.2741 29.682 96.9276 29.7773C96.6982 29.7883 96.4733 29.7114 96.2986 29.5623C96.124 29.4132 96.0127 29.2032 95.9875 28.9749C95.9623 28.7467 96.025 28.5174 96.163 28.3338C96.3009 28.1502 96.5036 28.0261 96.7298 27.9868C98.9465 27.6757 99.0418 26.8757 99.0418 21.8654V9.29372C99.0022 6.28967 98.9645 5.38001 98.6858 4.8263C98.3874 4.12518 97.9182 3.95978 96.7101 3.75843C96.5002 3.72354 96.3095 3.61532 96.1719 3.45304C96.0343 3.29075 95.9587 3.08491 95.9586 2.87214C95.9586 2.31843 96.3757 1.91394 96.8827 1.92832C99.1047 1.98765 101.328 2.01821 103.549 2.01821C105.778 2.01821 107.207 1.96967 108.433 1.92832C108.671 1.90877 108.907 1.98444 109.088 2.13869C109.27 2.29293 109.384 2.51311 109.403 2.75079C109.423 2.98847 109.347 3.22419 109.193 3.40608C109.038 3.58797 108.818 3.70113 108.581 3.72068C106.238 4.01371 106.238 4.72383 106.238 9.96607L106.278 22.2214C106.357 26.3742 106.396 26.6115 106.871 27.2425C107.209 27.6416 107.739 27.8519 108.552 27.9616C108.766 27.9927 108.961 28.0998 109.102 28.2632C109.244 28.4266 109.321 28.6354 109.321 28.8515C109.324 28.9771 109.3 29.1019 109.252 29.218C109.204 29.334 109.132 29.4387 109.041 29.5255C108.95 29.6122 108.842 29.6791 108.724 29.7218C108.605 29.7645 108.48 29.7822 108.354 29.7737ZM109.609 28.9144C109.609 28.5207 109.891 28.1863 110.276 28.1216C110.873 28.0227 111.595 27.7656 111.705 27.007C111.824 26.0955 111.824 23.7243 111.824 23.131C111.824 21.7467 111.784 19.4942 111.784 18.1099C111.784 16.1252 111.119 15.5805 110.184 15.3162C110.018 15.2674 109.871 15.1658 109.768 15.0267C109.664 14.8876 109.608 14.7185 109.609 14.545V14.4515C109.609 14.0578 109.891 13.727 110.28 13.6605C112.248 13.3153 115.223 12.4739 116.787 11.9346C116.888 11.8997 116.995 11.8853 117.101 11.892C117.207 11.8988 117.311 11.9267 117.406 11.9741C117.502 12.0214 117.587 12.0873 117.656 12.1679C117.726 12.2485 117.779 12.3421 117.812 12.4434C117.844 12.5476 117.875 12.6465 117.902 12.749C117.936 12.8673 117.997 12.9761 118.08 13.0672C118.162 13.1583 118.265 13.2291 118.379 13.2743C118.494 13.3194 118.617 13.3377 118.74 13.3277C118.862 13.3176 118.981 13.2796 119.087 13.2164C120.579 12.3499 121.994 11.7063 124.079 11.7063C125.58 11.7063 127.083 12.1018 128.309 12.9701C130.236 14.3076 130.56 16.3499 130.718 18.5126C130.722 18.5342 130.722 18.5557 130.722 18.5773V21.9841C130.722 22.5773 130.643 25.6605 130.643 26.3346C130.643 27.3342 130.912 27.9436 132.221 28.1863C132.402 28.2235 132.565 28.3227 132.68 28.4667C132.796 28.6108 132.858 28.7907 132.856 28.9755C132.856 29.0855 132.834 29.1944 132.79 29.2953C132.746 29.3963 132.682 29.4872 132.602 29.5624C132.522 29.6376 132.427 29.6955 132.323 29.7325C132.22 29.7695 132.11 29.7847 132 29.7773C130.882 29.7018 129.188 29.6533 126.411 29.6533C124.841 29.6533 123.978 29.6964 123.175 29.7665C123.064 29.7765 122.952 29.7632 122.846 29.7276C122.74 29.6919 122.643 29.6346 122.561 29.5594C122.478 29.4841 122.413 29.3926 122.368 29.2905C122.323 29.1884 122.299 29.0781 122.299 28.9665V28.7975C122.299 28.4362 122.542 28.1162 122.893 28.0245C124.048 27.7117 124.192 27.1598 124.158 24.7526L124.079 18.5845C124.038 16.6879 123.96 14.5126 121.39 14.5126C120.32 14.5126 119.489 14.9045 118.691 15.5068C118.586 15.5841 118.502 15.6857 118.444 15.8027C118.387 15.9197 118.359 16.0488 118.362 16.1791C118.425 18.1602 118.425 23.7836 118.425 25.5418C118.425 27.3557 118.738 27.8573 119.705 28.1126C120.05 28.2025 120.284 28.5261 120.284 28.8838V28.9881C120.284 29.098 120.262 29.2068 120.218 29.3077C120.175 29.4086 120.111 29.4996 120.031 29.5749C119.951 29.6502 119.856 29.7083 119.753 29.7456C119.65 29.7829 119.54 29.7986 119.43 29.7917C118.087 29.7072 116.361 29.6533 113.127 29.6533C111.883 29.6533 111.16 29.6928 110.486 29.7575C110.375 29.7681 110.262 29.7552 110.156 29.7196C110.05 29.6841 109.952 29.6267 109.87 29.5512C109.787 29.4756 109.721 29.3836 109.676 29.2811C109.631 29.1785 109.608 29.0677 109.609 28.9557V28.9144ZM150.736 25.4735C151.232 25.833 151.301 26.5593 150.866 26.9908C148.686 29.1555 145.745 30.3815 142.673 30.4065C137.019 30.4065 132.868 26.491 132.868 21.1139C132.868 15.4618 137.692 11.825 143.583 11.825C147.457 11.825 151.133 13.5238 151.133 16.3715C151.133 17.7144 149.988 18.8614 148.644 18.8614C148.05 18.8614 147.338 18.5845 146.903 18.1494C146.547 17.833 146.468 17.6353 145.717 15.9364C145.361 15.185 144.57 13.8402 143.346 13.8402C141.052 13.8402 140.419 17.7539 140.419 19.6919C140.419 24.1593 142.95 27.1634 145.717 27.1634C147.187 27.1634 148.404 26.4874 149.485 25.5382C149.655 25.387 149.872 25.2983 150.099 25.2865C150.327 25.2747 150.551 25.3407 150.736 25.4735ZM156.196 23.2892C158.134 23.2892 159.791 24.8317 159.791 26.8865C159.791 28.9036 158.134 30.4461 156.235 30.4461C155.302 30.4557 154.403 30.0946 153.736 29.4421C153.068 28.7895 152.687 27.8989 152.676 26.9656C152.676 24.5153 154.574 23.2892 156.196 23.2892Z" fill="#221F20"/>
</svg>
