<svg width="511" height="512" viewBox="0 0 511 512" fill="none" xmlns="http://www.w3.org/2000/svg">
    <path d="M438.726 390.213L330.694 327.777C315.517 319.035 296.108 324.235 287.324 339.418C283.921 345.399 282.587 351.978 283.231 358.374V480.392C283.231 497.829 297.396 512.001 314.873 512.001C332.303 512.001 346.468 497.829 346.468 480.392V410.227L406.992 445.194C422.169 453.982 441.623 448.737 450.362 433.554C459.146 418.371 453.949 398.954 438.726 390.213Z" fill="#29B5E8"/>
    <path d="M170.052 256.413C170.236 245.141 164.303 234.65 154.553 228.991L46.5206 166.602C41.8295 163.887 36.4486 162.461 31.0677 162.461C19.9839 162.461 9.68194 168.396 4.16304 177.966C-4.39125 192.781 0.713736 211.783 15.5228 220.341L77.7943 256.275L15.5228 292.255C8.34821 296.395 3.19723 303.067 1.08166 311.072C-1.07991 319.078 0.0238712 327.452 4.16304 334.63C9.68194 344.2 19.9839 350.135 31.0217 350.135C36.4486 350.135 41.8295 348.708 46.5206 345.994L154.553 283.605C164.211 277.991 170.144 267.593 170.052 256.413Z" fill="#29B5E8"/>
    <path d="M71.0411 122.386L179.073 184.775C191.675 192.091 207.22 189.698 217.154 179.99C223.455 174.193 227.364 165.911 227.364 156.709V31.6547C227.364 14.171 213.199 0 195.768 0C178.292 0 164.126 14.171 164.126 31.6547V102.832L102.775 67.4043C87.5978 58.6164 68.1896 63.8156 59.4054 78.9988C50.6211 94.182 55.8641 113.598 71.0411 122.386Z" fill="#29B5E8"/>
    <path d="M313.957 261.482C313.957 263.874 312.577 267.187 310.876 268.935L268.058 311.771C266.357 313.473 262.999 314.853 260.608 314.853H249.708C247.316 314.853 243.959 313.473 242.257 311.771L199.394 268.935C197.692 267.187 196.312 263.874 196.312 261.482V250.577C196.312 248.139 197.692 244.826 199.394 243.124L242.257 200.243C243.959 198.54 247.316 197.16 249.708 197.16H260.608C262.999 197.16 266.357 198.54 268.058 200.243L310.876 243.124C312.577 244.826 313.957 248.139 313.957 250.577V261.482ZM275.739 256.237V255.777C275.739 254.028 274.727 251.59 273.485 250.301L260.838 237.695C259.596 236.406 257.158 235.394 255.365 235.394H254.905C253.157 235.394 250.72 236.406 249.432 237.695L236.83 250.301C235.589 251.544 234.577 253.982 234.577 255.777V256.237C234.577 258.031 235.589 260.47 236.83 261.712L249.432 274.365C250.72 275.607 253.157 276.619 254.905 276.619H255.365C257.158 276.619 259.596 275.607 260.838 274.365L273.485 261.712C274.727 260.47 275.739 258.031 275.739 256.237Z" fill="#29B5E8"/>
    <path d="M330.7 184.775L438.733 122.386C453.91 113.644 459.153 94.182 450.369 78.9988C441.584 63.8156 422.176 58.6164 406.999 67.4043L346.475 102.372V31.6547C346.475 14.171 332.31 0 314.88 0C297.403 0 283.238 14.171 283.238 31.6547V154.225C282.64 160.574 283.882 167.2 287.331 173.181C296.115 188.364 315.523 193.563 330.7 184.775Z" fill="#29B5E8"/>
    <path d="M200.735 324.095C193.561 322.715 185.88 323.865 179.073 327.776L71.0411 390.211C55.8641 398.953 50.6211 418.369 59.4054 433.553C68.1896 448.782 87.5978 453.981 102.775 445.193L164.126 409.765V480.39C164.126 497.828 178.292 511.999 195.768 511.999C213.199 511.999 227.364 497.828 227.364 480.39V355.336C227.364 339.555 215.82 326.488 200.735 324.095Z" fill="#29B5E8"/>
    <path d="M506.249 177.589C497.511 162.36 478.057 157.161 462.88 165.948L354.848 228.338C344.5 234.319 338.797 245.269 338.981 256.404C338.889 267.492 344.592 278.304 354.848 284.194L462.88 346.629C478.057 355.371 497.465 350.172 506.249 334.988C515.034 319.805 509.791 300.389 494.614 291.601L433.446 256.266L494.614 220.93C509.837 212.188 515.034 192.772 506.249 177.589Z" fill="#29B5E8"/>
</svg>
