<svg width="160" height="40" viewBox="0 0 160 40" fill="none" xmlns="http://www.w3.org/2000/svg">
<path d="M11.9443 6.78868C11.9443 5.73125 11.4157 4.93732 9.07948 4.93732C6.73766 4.93732 6.21103 5.73034 6.21103 6.78868V9.65353C6.21103 10.5215 6.51272 11.3893 7.34321 12.1058L15.2609 18.8959C16.3956 19.8386 17.0742 21.0079 17.0742 22.215V26.5149C17.0742 29.083 14.0538 30.5145 9.07695 30.5145C3.56988 30.5145 0.927635 29.2701 0.929444 26.5149V22.7833H5.90989L5.90735 26.3648C5.90735 27.6492 6.88986 28.4025 9.07622 28.4025C11.114 28.4025 12.0931 27.6493 12.0931 26.3648V22.5534C12.0931 21.6107 11.7165 20.8925 10.6616 19.9528L3.34112 13.5789C1.98435 12.4067 1.22915 11.5013 1.22915 10.1078V6.82671C1.22915 4.14828 4.02159 2.82715 9.07803 2.82715C14.6611 2.82715 16.9215 4.149 16.9215 6.63849V10.1096H11.9429L11.9443 6.78868Z" fill="#573885"/>
<path d="M64.9699 25.7912C64.9699 27.3 65.5709 28.3574 68.7415 28.3574C71.9103 28.3574 72.5148 27.3 72.5148 25.7912V7.45842C72.5148 5.95217 71.9112 4.89399 68.7432 4.89399C65.5744 4.89399 64.9699 5.95144 64.9699 7.45842V25.7912ZM59.9913 7.38602C59.9913 4.70759 62.0255 2.78564 68.7432 2.78564C75.4574 2.78564 77.4952 4.70759 77.4952 7.38602L77.4934 25.8636C77.4934 28.542 75.4592 30.4676 68.7415 30.4676C62.0273 30.4676 59.9895 28.542 59.9895 25.8636L59.9913 7.38602Z" fill="#573885"/>
<path d="M87.7729 15.8373C90.0369 15.8373 91.6205 15.5357 91.6205 14.1391V6.78423C91.6205 5.38764 90.0369 5.08596 87.7729 5.08596H85.3606V15.8377L87.7729 15.8373ZM80.3801 2.97363H88.3032C94.717 2.97363 96.6027 4.02853 96.6027 7.12339L96.5973 13.7995C96.5973 16.8924 94.7115 17.9493 88.3032 17.9493H85.3606V30.2086H80.3801V2.97363Z" fill="#573885"/>
<path d="M108.947 6.78888C108.947 5.73145 108.418 4.93934 106.082 4.93934C103.74 4.93934 103.212 5.73235 103.212 6.78888V9.65373C103.212 10.5217 103.513 11.3895 104.344 12.106L112.267 18.8961C113.397 19.8388 114.075 21.0081 114.075 22.2152V26.517C114.075 29.0832 111.06 30.5147 106.08 30.5147C100.573 30.5147 97.9304 29.2703 97.9304 26.5151V22.7817H102.911V26.365C102.911 27.6494 103.894 28.4027 106.08 28.4027C108.118 28.4027 109.097 27.6495 109.097 26.365V22.5536C109.097 21.6109 108.723 20.8952 107.663 19.953L100.346 13.5754C98.9841 12.4058 98.2337 11.4997 98.2337 10.1062V6.82147C98.2337 4.14304 101.024 2.82373 106.083 2.82373C111.664 2.82373 113.926 4.14303 113.926 6.63686V10.1062H108.947L108.947 6.78888Z" fill="#573885"/>
<path d="M145.685 6.78901C145.685 5.73158 145.156 4.93947 142.82 4.93947C140.48 4.93947 139.951 5.73248 139.951 6.78901V9.65745C139.951 10.5229 140.253 11.3907 141.084 12.1061L149.005 18.8999C150.137 19.8426 150.813 21.01 150.813 22.2171V26.5189C150.813 29.0851 147.798 30.5166 142.819 30.5166C137.311 30.5166 134.667 29.2723 134.667 26.5189V22.7836H139.649L139.647 26.3669C139.647 27.6513 140.63 28.4047 142.819 28.4047C144.852 28.4047 145.834 27.6514 145.834 26.3669V22.5556C145.834 21.6129 145.458 20.8971 144.4 19.9549L137.084 13.5774C135.724 12.4103 134.972 11.5052 134.972 10.1081V6.82342C134.972 4.15042 137.762 2.82568 142.821 2.82568C148.402 2.82568 150.666 4.14987 150.666 6.63882V10.1081H145.685L145.685 6.78901Z" fill="#573885"/>
<path d="M32.5755 2.98828H37.5632L26.6504 37.1745H21.6646L32.5755 2.98828Z" fill="#573885"/>
<path d="M24.6125 24.3435L17.8657 3.16943H22.8516L27.1045 16.52L24.6125 24.3435Z" fill="#573885"/>
<path d="M129.397 2.98828H134.383L123.47 37.1926H118.484L129.397 2.98828Z" fill="#573885"/>
<path d="M121.615 24.1624L114.868 2.98828H119.854L124.109 16.3406L121.615 24.1624Z" fill="#573885"/>
<path d="M57.0071 30.3157H57.032V7.24139C57.032 4.14672 55.1445 3.08984 48.7343 3.08984H39.13L39.1282 30.3266H44.1068L44.1086 30.3157V5.1964H48.2059C50.4681 5.1964 52.0516 5.50062 52.0516 6.89467V30.3128L57.0071 30.3157Z" fill="#573885"/>
<path d="M156 6.24612C156.469 6.24612 156.888 6.21372 156.888 5.65252C156.888 5.1961 156.479 5.11627 156.093 5.11627H155.337V6.24593L156 6.24612ZM155.337 8.30197H154.781V4.64629H156.175C157.04 4.64629 157.469 4.96301 157.469 5.68383C157.469 6.34222 157.055 6.62651 156.519 6.69383L157.559 8.30236H156.94L155.973 6.71883H155.337L155.337 8.30197ZM156.01 9.11748C157.444 9.11748 158.575 7.99269 158.575 6.46436C158.575 4.96299 157.445 3.83117 156.01 3.83117C154.554 3.83117 153.424 4.96335 153.424 6.46436C153.424 7.99305 154.554 9.11748 156.01 9.11748ZM152.785 6.46436C152.785 4.64556 154.262 3.30273 156.01 3.30273C157.736 3.30273 159.21 4.64701 159.21 6.46436C159.21 8.30306 157.736 9.64592 156.01 9.64592C154.262 9.64592 152.785 8.30162 152.785 6.46436Z" fill="#573885"/>
</svg>
