<svg width="160" height="24" viewBox="0 0 160 24" fill="none" xmlns="http://www.w3.org/2000/svg">
    <g clip-path="url(#clip0_41_2496)">
        <path d="M0.320801 19.9273H22.6182L22.6158 19.9225L7.73231 16.2134L0.320801 19.9273Z" fill="#0A7ABC"/>
        <path d="M0.320801 19.9272L7.73216 16.2129L3.12914 15.0649L0.320801 19.9272Z" fill="#A6D71C"/>
        <path d="M7.73291 16.2125L22.6147 19.9225L17.613 11.2588L7.73291 16.2125Z" fill="#40C1F3"/>
        <path d="M11.4697 0.618652L3.72046 14.0411L17.0171 10.2284L11.4697 0.618652Z" fill="#ED1C24"/>
        <mask id="mask0_41_2496" style="mask-type:luminance" maskUnits="userSpaceOnUse" x="0" y="0" width="160" height="24">
            <path d="M0.321045 23.2158H159.68V0.618172H0.321045V23.2158Z" fill="white"/>
        </mask>
        <g mask="url(#mask0_41_2496)">
            <path d="M153.581 11.4252L155.756 17.7544L157.895 11.4252H159.679C159.679 11.4252 157.223 18.0547 156.286 20.6175C155.436 22.9332 154.023 23.0563 153.298 23.0563C152.98 23.0563 152.661 23.0042 152.608 22.9871L152.379 21.4661C152.432 21.4832 152.857 21.6261 153.316 21.6261C154.181 21.6261 154.482 21.0239 154.624 20.6346C154.765 20.2463 154.89 19.8759 154.89 19.8759L151.778 11.4252H153.581ZM150.987 13.8298V19.9281H149.255V14.4132C149.255 13.4406 148.937 12.7862 147.894 12.7862C147.01 12.7862 146.109 13.6347 145.755 14.0761V19.9281H144.022V11.4252H145.508L145.649 12.521C146.021 12.1857 147.098 11.2652 148.459 11.2652C150.157 11.2652 150.987 12.2917 150.987 13.8298ZM140.634 15.722C138.69 15.9161 137.082 16.3225 137.082 17.5064C137.082 18.2668 137.612 18.6381 138.389 18.6381C139.556 18.6381 140.44 17.7185 140.634 17.5235V15.722ZM140.847 19.9281L140.776 18.8845C140.617 19.1325 139.767 20.1051 138.248 20.1051C136.657 20.1051 135.384 19.2737 135.384 17.4525C135.384 14.9076 138.832 14.5535 140.634 14.3593V14.095C140.634 13.4756 140.388 12.734 138.973 12.734C137.7 12.734 136.393 13.4055 136.18 13.5116L135.951 11.9915C136.197 11.8674 137.577 11.2652 139.096 11.2652C141.625 11.2652 142.366 12.4149 142.366 14.2703V19.9281H140.847ZM128.784 13.882V18.3378C128.925 18.39 129.615 18.6381 130.411 18.6381C132.072 18.6381 132.902 17.3652 132.902 15.6852C132.902 13.9008 132.143 12.734 130.799 12.734C129.792 12.734 128.961 13.6698 128.784 13.882ZM128.625 12.521C128.819 12.3088 129.721 11.2652 131.277 11.2652C133.291 11.2652 134.635 12.6801 134.635 15.6852C134.635 18.8152 132.549 20.1051 130.534 20.1051C129.703 20.1051 128.908 19.8049 128.784 19.751V22.721L127.052 23.2163V11.4252H128.465L128.625 12.521ZM125.456 13.8298V19.9281H123.741V14.4132C123.741 13.4406 123.458 12.7862 122.414 12.7862C121.531 12.7862 120.682 13.6176 120.33 14.0761V19.9281H118.598V14.4132C118.598 13.4406 118.314 12.7862 117.271 12.7862C116.387 12.7862 115.539 13.6347 115.184 14.0761V19.9281H113.452V11.4252H114.938L115.078 12.521C115.45 12.1857 116.51 11.2652 117.872 11.2652C119.056 11.2652 119.781 11.7614 120.117 12.592C120.665 12.0625 121.691 11.2652 123.016 11.2652C124.713 11.2652 125.456 12.2917 125.456 13.8298ZM108.457 18.6381C109.783 18.6381 110.65 17.3832 110.65 15.6852C110.65 13.9701 109.8 12.734 108.457 12.734C106.972 12.734 106.266 14.1471 106.266 15.6852C106.266 17.3293 107.061 18.6381 108.457 18.6381ZM108.457 20.1051C106.266 20.1051 104.515 18.6903 104.515 15.6852C104.515 12.7152 106.301 11.2652 108.457 11.2652C110.721 11.2652 112.382 12.8212 112.382 15.6852C112.382 18.621 110.615 20.1051 108.457 20.1051ZM103.764 8.54327L103.499 10.3474C103.269 10.1523 102.031 9.16345 100.229 9.16345C97.6825 9.16345 96.4276 11.213 96.4276 13.8298C96.4276 16.6056 97.7886 18.4781 100.229 18.4781C101.925 18.4781 103.269 17.5064 103.676 17.1882L103.924 18.9905C103.764 19.1856 102.563 20.1051 100.212 20.1051C96.9049 20.1051 94.5542 17.7185 94.5542 13.8298C94.5542 9.95814 96.9049 7.55355 100.212 7.55355C102.403 7.55355 103.517 8.3662 103.764 8.54327ZM89.4722 13.8298V19.9281H87.7399V14.4132C87.7399 13.4406 87.4217 12.7862 86.3781 12.7862C85.4945 12.7862 84.5937 13.6347 84.2396 14.0761V19.9281H82.5073V11.4252H83.9932L84.1335 12.521C84.5056 12.1857 85.5834 11.2652 86.9444 11.2652C88.6424 11.2652 89.4722 12.2917 89.4722 13.8298ZM78.4398 12.9461C78.9522 12.2028 79.9248 11.2652 81.3739 11.2652L81.622 12.8212C80.2789 12.8212 79.3414 13.3696 78.5288 14.6784V19.9281H76.7965V11.4252H78.2285L78.4398 12.9461ZM73.5904 14.5894C73.4843 14.024 73.2534 12.6459 71.7153 12.6459C70.4792 12.6459 69.9309 13.7408 69.7881 14.5894H73.5904ZM69.7 15.9333C69.7188 16.8349 70.0541 18.621 72.0866 18.621C73.6597 18.621 74.8453 17.6475 75.0917 17.4174L75.3398 18.9383C74.9856 19.2386 73.9249 20.1051 71.8924 20.1051C69.5588 20.1051 67.9686 18.532 67.9686 15.6681C67.9686 12.6981 69.7538 11.2481 71.7341 11.2481C74.2619 11.2481 75.3577 13.3174 75.3577 15.5081V15.9333H69.7ZM66.7419 13.8298V19.9281H65.0268V14.4132C65.0268 13.4406 64.6915 12.7862 63.6487 12.7862C62.7651 12.7862 61.8814 13.6347 61.5093 14.0761V19.9281H59.7942V7.64251L61.5093 7.14722V12.432C61.8814 12.1147 62.8882 11.2652 64.2141 11.2652C65.9104 11.2652 66.7419 12.2917 66.7419 13.8298ZM58.3879 19.9452C58.3169 19.9631 57.7335 20.1051 57.062 20.1051C55.4367 20.1051 54.5872 19.2908 54.5872 17.5945V12.8922H53.3674V11.4252H54.5872V9.12667L56.3015 8.63223V11.4252H58.0876L58.3357 12.8922H56.3015V17.4174C56.3015 18.213 56.7438 18.4781 57.381 18.4781C57.7335 18.4781 58.0697 18.426 58.1586 18.39L58.3879 19.9452ZM45.0741 17.5235V11.4252H46.8063V16.9401C46.8063 17.9298 47.1237 18.5671 48.1673 18.5671C49.0509 18.5671 49.9517 17.7356 50.3059 17.2942V11.4252H52.0389V19.9281H50.5539L50.4119 18.8502C50.0407 19.1676 48.98 20.1051 47.601 20.1051C45.9047 20.1051 45.0741 19.0615 45.0741 17.5235ZM40.0117 18.6381C41.3368 18.6381 42.2025 17.3832 42.2025 15.6852C42.2025 13.9701 41.3556 12.734 40.0117 12.734C38.5258 12.734 37.8193 14.1471 37.8193 15.6852C37.8193 17.3293 38.6148 18.6381 40.0117 18.6381ZM40.0117 20.1051C37.8193 20.1051 36.0691 18.6903 36.0691 15.6852C36.0691 12.7152 37.8543 11.2652 40.0117 11.2652C42.2734 11.2652 43.9355 12.8212 43.9355 15.6852C43.9355 18.621 42.1682 20.1051 40.0117 20.1051ZM27.0769 19.2566L27.36 17.4893C27.6244 17.6663 28.8271 18.4781 30.8253 18.4781C32.3634 18.4781 33.3523 17.8237 33.3523 16.7639C33.3523 15.9683 32.8578 15.4559 31.585 14.8195C31.3027 14.6784 30.0649 14.1471 29.6397 13.953C28.1727 13.2814 27.218 12.2917 27.218 10.6827C27.218 8.84352 28.7381 7.55355 31.3027 7.55355C33.0871 7.55355 34.1829 8.15491 34.4652 8.31402L34.1649 10.0103C33.8647 9.83496 32.7518 9.16345 31.2137 9.16345C29.7646 9.16345 29.0213 9.83496 29.0213 10.7186C29.0213 11.4603 29.5337 11.9025 30.4712 12.3448C30.8065 12.503 32.3266 13.1403 32.6098 13.2635C34.3771 14.0761 35.1735 15.1197 35.1735 16.6227C35.1735 18.6903 33.4583 20.1051 30.8946 20.1051C28.5978 20.1051 27.3951 19.4507 27.0769 19.2566Z" fill="#5A5758"/>
        </g>
    </g>
    <defs>
        <clipPath id="clip0_41_2496">
            <rect width="160" height="23.2387" fill="white" transform="translate(0 0.297852)"/>
        </clipPath>
    </defs>
</svg>
