<svg width="160" height="29" viewBox="0 0 160 29" fill="none" xmlns="http://www.w3.org/2000/svg">
    <g clip-path="url(#clip0_41_2509)">
        <path d="M121.699 2.1105V5.23987H124.755C126.089 5.23987 126.967 6.08149 127.466 6.62549C127.866 7.07348 136.666 17.0512 136.877 17.3136C137.088 17.576 137.088 17.5791 137.088 17.7455V22.6899C137.088 22.9165 137.065 23.1426 137.021 23.3649C136.958 23.5084 136.865 23.6366 136.748 23.7405C136.631 23.8445 136.493 23.9217 136.343 23.9667C136.054 24.003 135.763 24.0212 135.472 24.0212L132.413 24.0174V27.1468H149.571V24.0174H146.343C146.054 24.0188 145.765 24.0004 145.478 23.9624C145.329 23.9177 145.19 23.8408 145.074 23.7369C144.957 23.633 144.865 23.5047 144.803 23.3611C144.758 23.1389 144.735 22.9128 144.733 22.6861V17.7449C144.714 17.5824 144.755 17.4187 144.848 17.2842L154.368 6.42361C155.242 5.4508 155.696 5.23924 156.842 5.23924H160V2.10986H145.859V5.23298H147.994C148.108 5.22611 148.222 5.25222 148.322 5.3082C148.422 5.36417 148.504 5.44766 148.558 5.54876C148.612 5.64985 148.635 5.76431 148.626 5.87851C148.617 5.9927 148.575 6.10186 148.506 6.19299C148.461 6.25697 142.585 13.1657 142.512 13.233C142.438 13.3002 142.391 13.284 142.336 13.2105C142.282 13.1368 136.477 6.193 136.477 6.193C136.067 5.6906 136.388 5.23299 136.868 5.23299H138.948V2.10988L121.699 2.1105Z" fill="#0F0F0F"/>
        <path d="M79.6162 2.11035V5.23973H82.355C84.3326 5.23973 84.4675 6.34099 84.4675 7.30099V21.9472C84.4675 22.824 84.5183 24.0272 83.2575 24.0272H79.8781V27.1535H94.3075V24.0272H90.7875C89.3826 24.0272 89.3184 23.3843 89.3025 22.0179V9.47036L109.12 27.1535H114.16L113.894 7.18223C113.92 5.72303 114.01 5.2366 115.52 5.2366H118.678V2.11035H103.958V5.2366H107.191C108.675 5.2366 108.924 5.80943 108.944 7.18223L109.12 17.6335L91.9168 2.11035H79.6162Z" fill="#0F0F0F"/>
        <path d="M14.64 0.536133C11.5392 0.536133 8.016 1.11853 5.04001 2.45613C2.2624 3.69772 2.01697e-05 5.69116 2.01697e-05 8.99676C-0.00420055 10.7279 0.654146 12.395 1.84001 13.6561C2.64322 14.3986 3.93942 15.6594 7.32502 16.4018C8.83862 16.7218 12.0739 17.2369 15.2962 17.5761C18.5187 17.9153 21.6419 18.2162 22.9219 18.5586C23.9395 18.8178 25.6512 19.1699 25.6512 21.0899C25.6512 23.0099 23.8499 23.5857 23.5363 23.7105C23.2227 23.8353 21.0592 24.8274 17.1744 24.8274C14.6005 24.7559 12.0499 24.3173 9.59999 23.5249C8.1504 23.0065 6.63074 22.3248 5.21313 20.5936C4.64088 19.7785 4.32331 18.8118 4.30063 17.8161H0.780626V27.6724H4.69124V26.338C4.6906 26.239 4.71639 26.1416 4.76592 26.0559C4.81545 25.9701 4.88693 25.8992 4.97302 25.8503C5.05911 25.8014 5.15669 25.7763 5.25569 25.7777C5.3547 25.779 5.45155 25.8068 5.53626 25.858C7.37848 26.6596 9.29469 27.279 11.2575 27.7074C13.3119 28.1362 14.6402 28.4468 17.1938 28.4468C19.8883 28.498 22.5737 28.1188 25.1487 27.3236C26.8587 26.8548 28.463 26.0629 29.875 24.9905C30.6692 24.3805 31.3111 23.5946 31.7503 22.6946C32.1895 21.7946 32.4141 20.805 32.4063 19.8036C32.4198 17.901 31.6857 16.0691 30.3619 14.7024C29.6256 13.9881 28.7727 13.4049 27.84 12.978C26.8373 12.5249 25.7963 12.1618 24.7294 11.893C22.7006 11.397 18.1442 10.7762 15.965 10.5586C13.6802 10.3218 9.71526 9.99199 8.13126 9.50239C7.65126 9.35199 6.67189 8.88838 6.67189 7.75238C6.67189 6.94277 7.11994 6.25786 8.00314 5.70426C9.40794 4.82425 12.2432 4.27675 15.2 4.27675C18.0621 4.24216 20.9006 4.79657 23.5394 5.90551C24.2482 6.21448 24.9148 6.61247 25.5231 7.08988C26.5147 7.93686 27.2014 9.08548 27.4781 10.3599H30.6369V1.78113H27.1169V2.77613C27.1169 3.09613 26.7969 3.51868 26.1569 3.16988C24.5697 2.34429 20.1088 0.558531 14.64 0.536133Z" fill="#0F0F0F"/>
        <path d="M57.0018 0.536133C51.4562 0.536133 45.568 2.4559 42.24 5.47989C40.9713 6.63503 39.9585 8.04299 39.2668 9.61318C38.5751 11.1834 38.2197 12.881 38.2237 14.5968C38.2039 16.3196 38.5519 18.0269 39.2445 19.6046C39.9371 21.1822 40.9583 22.594 42.24 23.7455C45.824 26.9679 51.2002 28.6961 57.0018 28.6961C62.813 28.6961 68.3042 26.9871 71.8018 23.7455C73.0455 22.5669 74.0376 21.1487 74.7184 19.5764C75.3992 18.004 75.7546 16.3101 75.7631 14.5968C75.7803 12.8851 75.4363 11.1891 74.7538 9.6194C74.0712 8.04968 73.0654 6.6415 71.8018 5.48676C68.0482 2.08196 63.1362 0.536133 57.0018 0.536133ZM57.0018 4.19676C60.0354 4.19676 62.957 5.28827 64.925 7.22427C66.829 9.09946 67.8237 11.7491 67.8237 14.5843C67.8237 17.5539 66.9186 19.9603 64.925 21.9443C62.9314 23.9283 60.077 24.9905 57.0018 24.9905C53.949 24.9905 51.0336 23.9059 49.0656 21.9443C48.1244 20.9677 47.3854 19.8147 46.8911 18.5516C46.3969 17.2886 46.1571 15.9403 46.1856 14.5843C46.1856 11.7619 47.168 9.10265 49.0656 7.22427C51.0336 5.27867 53.9682 4.19676 57.0018 4.19676Z" fill="#0F0F0F"/>
    </g>
    <defs>
        <clipPath id="clip0_41_2509">
            <rect width="160" height="28.16" fill="white" transform="translate(0 0.536133)"/>
        </clipPath>
    </defs>
</svg>
