<svg width="39" height="25" viewBox="0 0 39 25" fill="none" xmlns="http://www.w3.org/2000/svg">
<g id="SOYBEAN  - Soybean USD  ">
<path id="Vector" d="M37.5505 25H0.658812C0.295003 25 0 24.7054 0 24.3421V0.657924C0 0.294605 0.295003 0 0.658812 0H37.5506C37.9144 0 38.2094 0.294605 38.2094 0.657924V24.3421C38.2093 24.7055 37.9143 25 37.5505 25Z" fill="#676D51"/>
<g id="soybean (1) 1" clip-path="url(#clip0_17999_31463)">
<g id="Group">
<path id="Vector_2" d="M22.007 8.01779C21.456 8.5688 21.456 9.46539 22.007 10.0164C22.5593 10.5687 23.4532 10.5688 24.0056 10.0164C24.5567 9.46539 24.5567 8.5688 24.0056 8.01779C23.4533 7.46547 22.5594 7.46538 22.007 8.01779ZM23.3395 9.35019C23.1553 9.53432 22.8574 9.53432 22.6733 9.35019C22.5843 9.26125 22.5353 9.14292 22.5353 9.01708C22.5353 8.75676 22.746 8.546 23.0064 8.546C23.1322 8.546 23.2505 8.59502 23.3395 8.68399C23.5231 8.86765 23.5231 9.1665 23.3395 9.35019Z" fill="white"/>
<path id="Vector_3" d="M19.343 10.6818C18.7919 11.2329 18.7919 12.1294 19.3429 12.6805C19.8953 13.2328 20.7892 13.2329 21.3416 12.6805C21.8926 12.1294 21.8926 11.2329 21.3416 10.6818C20.7893 10.1295 19.8954 10.1295 19.343 10.6818ZM20.6754 12.0142C20.5864 12.1032 20.4681 12.1522 20.3423 12.1522C20.0819 12.1522 19.8712 11.9415 19.8712 11.6811C19.8712 11.4208 20.0818 11.21 20.3423 11.21C20.4681 11.21 20.5864 11.259 20.6754 11.348C20.8591 11.5317 20.8591 11.8306 20.6754 12.0142Z" fill="white"/>
<path id="Vector_4" d="M16.6789 13.3459C16.1279 13.8969 16.1279 14.7935 16.6789 15.3445C17.2311 15.8968 18.1251 15.8969 18.6775 15.3445C19.2285 14.7935 19.2285 13.8969 18.6775 13.3459C18.1252 12.7936 17.2312 12.7935 16.6789 13.3459ZM18.0113 14.6783C17.8271 14.8624 17.5292 14.8624 17.3451 14.6783C17.2561 14.5894 17.2071 14.471 17.2071 14.3452C17.2071 14.0849 17.4178 13.8741 17.6782 13.8741C17.9385 13.8741 18.1492 14.0848 18.1492 14.3452C18.1492 14.471 18.1002 14.5894 18.0113 14.6783Z" fill="white"/>
<path id="Vector_5" d="M26.9828 5.47054L26.9545 5.06133L26.5453 5.03313C26.3836 5.02185 22.5649 4.78141 20.6694 6.67688C20.19 7.15631 19.8731 7.76714 19.7553 8.42766C18.3977 8.66976 17.3326 9.73459 17.0905 11.0925C15.7329 11.3346 14.6678 12.3994 14.4257 13.7573C13.7652 13.8751 13.1543 14.192 12.6749 14.6714C10.7794 16.5668 11.02 20.3856 11.0311 20.5473L11.0594 20.9565C11.4525 20.983 11.6058 21.0002 12.0281 21.0002C13.1889 21.0002 15.8581 20.8273 17.3445 19.3409C17.8239 18.8615 18.1407 18.2507 18.2585 17.5902C19.6161 17.3481 20.6812 16.2833 20.9233 14.9253C22.281 14.6832 23.346 13.6184 23.5881 12.2605C24.2486 12.1427 24.8595 11.8258 25.3389 11.3465C27.2344 9.451 26.9939 5.63218 26.9828 5.47054ZM24.6728 10.6802C24.2625 11.0904 23.7175 11.3341 23.1381 11.3661L22.717 11.3893L22.6938 11.8104C22.6275 13.0097 21.6698 13.9647 20.4733 14.0309L20.0522 14.0542L20.0289 14.4752C19.9626 15.6767 19.0026 16.6297 17.8085 16.6957L17.3874 16.7189L17.3641 17.14C17.3321 17.7194 17.0885 18.2644 16.6783 18.6747C15.4185 19.9345 12.9508 20.0592 11.9597 20.0561C11.9561 19.0652 12.0813 16.5974 13.3411 15.3375C13.7513 14.9273 14.2964 14.6837 14.8757 14.6517L15.2968 14.6284L15.3201 14.2073C15.3864 13.0083 16.3439 12.053 17.5406 11.9869L17.9617 11.9636L17.9849 11.5425C18.0513 10.341 19.0112 9.38803 20.2054 9.32208L20.6265 9.29881L20.6498 8.87772C20.6818 8.29836 20.9253 7.75332 21.3356 7.34308C22.5954 6.08332 25.0631 5.95873 26.0542 5.96168C26.0578 6.95249 25.9326 9.42044 24.6728 10.6802Z" fill="white"/>
<path id="Vector_6" d="M14.0109 16.0109C13.4599 16.562 13.4599 17.4586 14.0109 18.0096C14.5619 18.5605 15.4585 18.5606 16.0095 18.0096L16.0096 18.0096C16.5606 17.4586 16.5606 16.562 16.0096 16.0109C15.4585 15.4599 14.5619 15.4599 14.0109 16.0109ZM15.3434 17.3433C15.1597 17.527 14.8608 17.527 14.6771 17.3433C14.4934 17.1596 14.4934 16.8608 14.6771 16.6771C14.8613 16.493 15.1592 16.493 15.3434 16.6771C15.5274 16.8612 15.5275 17.1592 15.3434 17.3433Z" fill="white"/>
<path id="Vector_7" d="M22.0365 16.931C21.2894 17.6782 21.1431 18.7024 21.7034 19.2628C21.9326 19.492 22.2393 19.6029 22.5731 19.6029C23.514 19.6029 24.4858 18.7352 24.6754 17.7872C24.7689 17.3201 24.6569 16.8866 24.3682 16.598C23.808 16.0376 22.7837 16.1839 22.0365 16.931ZM23.3689 18.2635C22.9623 18.6701 22.5055 18.7324 22.3696 18.5966C22.2338 18.4608 22.2961 18.004 22.7027 17.5972C22.9842 17.3158 23.2897 17.1993 23.4962 17.1993C23.588 17.1993 23.6602 17.2223 23.702 17.2642C23.8379 17.4 23.7756 17.8568 23.3689 18.2635Z" fill="white"/>
<path id="Vector_8" d="M16.2513 8.31179C17.0878 8.14449 17.8666 7.36658 18.0341 6.52901C18.2302 5.54847 17.5167 4.8367 16.5377 5.03255C15.7012 5.19984 14.9224 5.97775 14.7549 6.81533C14.6614 7.28245 14.7734 7.71594 15.0621 8.00455C15.3694 8.31185 15.8152 8.399 16.2513 8.31179ZM15.6788 7.00008C15.7851 6.4683 16.3923 5.94223 16.8566 5.94223C16.9464 5.94223 17.0188 5.96412 17.0607 6.00595C17.1219 6.0671 17.1404 6.1936 17.1103 6.34422C17.066 6.56537 16.9265 6.80628 16.7276 7.00523C16.5286 7.20422 16.2877 7.34369 16.0665 7.38794C15.9159 7.41799 15.7894 7.39946 15.7282 7.33835C15.6671 7.27724 15.6486 7.15074 15.6788 7.00008Z" fill="white"/>
<path id="Vector_9" d="M12.2098 12.0658C13.1508 12.0658 14.1226 11.1981 14.3122 10.2501C14.4056 9.78301 14.2937 9.3495 14.005 9.06088C13.4447 8.50052 12.4205 8.6468 11.6732 9.39393C10.9261 10.1411 10.7798 11.1653 11.3402 11.7256C11.5693 11.9548 11.8761 12.0658 12.2098 12.0658ZM12.3394 10.0601C12.621 9.77862 12.9264 9.6622 13.1329 9.6622C13.2247 9.6622 13.297 9.68519 13.3388 9.72699C13.4746 9.86281 13.4123 10.3197 13.0057 10.7263C12.599 11.1329 12.1422 11.1953 12.0064 11.0594C11.8706 10.9236 11.9328 10.4669 12.3394 10.0601Z" fill="white"/>
</g>
</g>
</g>
<defs>
<clipPath id="clip0_17999_31463">
<rect width="16" height="16" fill="white" transform="translate(11 5)"/>
</clipPath>
</defs>
</svg>
