<svg width="68" height="41" viewBox="0 0 68 41" fill="none" xmlns="http://www.w3.org/2000/svg">
<g id="SPCE - Virgin Galactic Holdings Inc" clip-path="url(#clip0_41_2515)">
<path id="Vector" d="M11.3725 40.5155H13.5236L14.3366 38.7259H18.3096L19.1226 40.5155H21.2732L16.3221 29.8386L11.3725 40.5155ZM15.199 36.8313L16.3242 34.3555L17.4504 36.8313H15.199ZM62.6847 32.9919C62.0738 33.6339 61.7377 34.4864 61.7377 35.3919C61.7377 37.2547 63.1974 38.77 64.9917 38.77C65.7813 38.77 66.5517 38.476 67.1678 37.942V40.2433C66.5023 40.528 65.7387 40.6921 65.0286 40.6921C63.6161 40.6921 62.2857 40.1513 61.2842 39.1685C60.7855 38.6821 60.3897 38.1004 60.1202 37.4581C59.8507 36.8158 59.713 36.1258 59.7153 35.4293C59.7153 33.9773 60.2784 32.6236 61.3008 31.6173C62.3169 30.6173 63.6764 30.0667 65.1288 30.0667C65.8556 30.0667 66.5496 30.2095 67.1678 30.4802V32.7675C66.5979 32.2791 65.7979 31.9882 65.0166 31.9882C64.5799 31.9871 64.1477 32.0755 63.7465 32.2482C63.3454 32.4208 62.984 32.6739 62.6847 32.9919ZM24.8873 38.6126H28.2649L27.3844 40.5124H22.9013V30.2584H24.8878L24.8873 38.6126ZM55.9761 30.2584H57.9631V40.5129H55.9761V30.2584ZM44.6306 30.0662C45.3574 30.0662 46.0514 30.209 46.6696 30.4791V32.7664C46.0997 32.2781 45.2992 31.9872 44.5179 31.9872C43.6296 31.9872 42.801 32.3436 42.1855 32.9908C41.5724 33.639 41.2332 34.4987 41.2384 35.3908C41.2384 37.2542 42.6982 38.7695 44.493 38.7695C45.2826 38.7695 46.0525 38.4755 46.6691 37.941V40.2423C46.0042 40.5269 45.24 40.6911 44.5299 40.6911C43.1294 40.6964 41.7835 40.1489 40.7844 39.1675C40.286 38.681 39.8903 38.0993 39.621 37.457C39.3517 36.8146 39.2142 36.1247 39.2166 35.4282C39.2166 33.9768 39.7797 32.623 40.8021 31.6168C41.8187 30.6173 43.1782 30.0662 44.6306 30.0662ZM48.3231 30.2584H54.1647V32.1586H52.2374V40.5129H50.2499V32.1576H48.3226L48.3231 30.2584ZM29.1345 40.516H31.2857L32.0987 38.7264H36.0717L36.8847 40.516H39.0358L34.0852 29.8391L29.1345 40.516ZM32.96 36.8319L34.0862 34.356L35.2114 36.8319H32.96ZM11.0291 35.4947C11.0291 37.6142 9.73714 40.6932 6.10338 40.6932C2.97143 40.6932 1 38.0958 1 35.4049C1 32.5114 3.14961 30.0667 6.22753 30.0667C7.27792 30.0667 8.34857 30.3799 9.21818 30.9394L8.37714 32.7545C7.77922 32.276 6.98182 31.9877 6.21766 31.9877C4.31532 31.9877 2.95532 33.4802 2.95532 35.435C2.95532 37.4495 4.60468 38.7872 6.1174 38.7872C8.39532 38.7872 8.95948 36.6391 8.95948 36.3524H6.61143L7.50338 34.4314H10.9714C10.9714 34.4314 11.0291 34.8823 11.0291 35.4947ZM44.6301 26.3514H40.6909L40.2738 20.435C42.3588 21.8518 43.8962 23.9397 44.6301 26.3514ZM40.2738 20.435L39.8255 14.0906C39.8062 13.8191 39.7196 13.5566 39.5735 13.3269L35.9517 7.65421C35.8364 6.85681 34.9813 0.696289 34.0919 0.696289H34.0883C33.199 0.696289 32.3439 6.85733 32.2286 7.65473L28.6068 13.328C28.4606 13.5576 28.374 13.8201 28.3548 14.0916L27.9065 20.436C29.2006 19.5553 30.6686 18.9624 32.2114 18.6973L33.2945 22.5036H34.8868L35.9694 18.6973C37.5122 18.9623 38.9797 19.554 40.2738 20.435ZM23.5501 26.3514H27.4894L27.9065 20.435C25.8213 21.8517 24.284 23.9396 23.5501 26.3514Z" fill="#762DC0"/>
<g id="Vector (traced)" clip-path="url(#clip1_41_2515)">
<g id="LightGray">
<path id="Vector_2" d="M32.2565 10.1302C32.1099 10.2902 32.0733 10.3752 31.6178 11.5252C31.288 12.3602 30.9791 13.3402 30.8377 14.0002C30.6754 14.7652 30.623 15.0402 30.623 15.1702C30.623 15.2502 30.6073 15.3002 30.5916 15.2852C30.555 15.2552 30.534 15.1452 30.4921 14.7502C30.4764 14.6252 30.4398 14.4702 30.4136 14.4002C30.3822 14.3302 30.3403 14.1402 30.3089 13.9752C30.1414 12.9452 30.1047 12.8502 29.8848 12.8502C29.733 12.8502 29.5759 12.9652 29.5759 13.0752C29.5759 13.1102 29.5393 13.2052 29.4974 13.2802C29.4555 13.3602 29.4188 13.4602 29.4188 13.5052C29.4188 13.5802 29.356 13.7552 29.2147 14.0752C29.089 14.3502 29 14.6402 29 14.7652C29 14.8852 29.0209 14.9002 29.1832 14.9002C29.3455 14.9002 29.377 14.8802 29.466 14.6852C29.5236 14.5702 29.5864 14.4202 29.6073 14.3502C29.623 14.2802 29.6754 14.1802 29.712 14.1302C29.8115 13.9902 29.801 13.9302 30.0209 15.3002C30.0628 15.5602 30.1309 15.9652 30.1728 16.2002C30.2199 16.4352 30.267 16.7152 30.288 16.8252C30.3403 17.1252 30.3979 17.2002 30.5759 17.2002C30.7749 17.2002 30.822 17.0902 30.9162 16.3802C30.9581 16.0752 31 15.7902 31.0209 15.7402C31.0471 15.6552 31.0785 15.4302 31.1204 15.0752C31.1414 14.8552 31.2513 14.3452 31.2984 14.2002C31.3246 14.1302 31.3717 13.9502 31.4084 13.8002C31.445 13.6502 31.5183 13.4402 31.5707 13.3402C31.6283 13.2352 31.6702 13.1002 31.6702 13.0352C31.6702 12.9652 31.7068 12.8452 31.7487 12.7702C31.7906 12.6902 31.8272 12.5902 31.8272 12.5452C31.8272 12.4602 32.2408 11.4502 32.3822 11.1952C32.4188 11.1202 32.5707 10.9302 32.7173 10.7702C33.0052 10.4552 33.0471 10.2902 32.8796 10.1102C32.7382 9.9502 32.4136 9.9602 32.2565 10.1302Z" fill="#ECECEC"/>
<path id="Vector_3" d="M35.8428 11.645C35.7172 11.77 35.7433 11.97 35.8899 11.99C36.0365 12.01 36.2198 11.855 36.2355 11.7C36.2512 11.595 36.2303 11.575 36.0941 11.565C35.9947 11.555 35.9004 11.59 35.8428 11.645Z" fill="#ECECEC"/>
<path id="Vector_4" d="M37.2724 11.8501C37.1362 11.9601 37.0368 11.9951 36.8744 12.0001C36.7174 12.0001 36.6231 12.0351 36.5289 12.1251C36.4085 12.2401 36.398 12.2901 36.3666 12.8851C36.3509 13.2301 36.3509 13.5451 36.3666 13.5851C36.4085 13.6901 36.6179 13.6601 36.7697 13.5251C36.8849 13.4251 36.9059 13.3601 36.9111 13.1401C36.9163 12.6151 36.9582 12.4451 37.131 12.2901C37.22 12.2151 37.3142 12.1501 37.3352 12.1501C37.3614 12.1501 37.3771 12.4101 37.3771 12.7251C37.3771 13.0401 37.3823 13.3151 37.3823 13.3351C37.3875 13.3551 37.2724 13.4301 37.1362 13.5051C36.9949 13.5751 36.7436 13.7051 36.5813 13.7951C36.4137 13.8801 36.1415 14.0201 35.9792 14.1051C35.8116 14.1901 35.6179 14.3001 35.5446 14.3501C35.4713 14.3951 35.3352 14.4701 35.2357 14.5151L35.0577 14.6001L35.0943 14.1851C35.1938 12.9601 35.1991 12.8251 35.0996 12.7501C35.021 12.6901 34.9949 12.6901 34.8745 12.7551C34.754 12.8151 34.7279 12.8751 34.6964 13.1251C34.5865 14.0701 34.5551 14.2151 34.4608 14.3101C34.398 14.3651 34.3247 14.3901 34.2724 14.3701C34.0734 14.3001 34.2148 13.5051 34.4608 13.3051C34.5132 13.2701 34.5498 13.1751 34.5498 13.0951C34.5498 12.9751 34.5289 12.9501 34.4294 12.9501C34.309 12.9501 34.1048 13.0651 33.9844 13.2001C33.7645 13.4451 33.686 13.8151 33.7017 14.4501C33.7121 14.7001 33.7279 14.7401 33.8587 14.8101C34.0053 14.8951 34.1362 14.8851 34.487 14.7801C34.5655 14.7551 34.6022 14.7651 34.6022 14.8101C34.6022 14.8801 34.4399 15.0051 33.686 15.4901C33.4556 15.6401 33.2566 15.7801 33.2409 15.7951C33.2252 15.8151 32.9792 16.0001 32.6912 16.2101C32.4032 16.4201 32.0839 16.6651 31.9844 16.7501C31.8849 16.8401 31.7017 16.9901 31.576 17.0901C31.2985 17.3101 31.1938 17.4851 31.2566 17.6351C31.2933 17.7301 31.3404 17.7501 31.4975 17.7501C31.6807 17.7451 31.754 17.6951 32.3247 17.1701C32.6703 16.8551 33.0839 16.5001 33.2409 16.3851C33.398 16.2701 33.7488 16.0101 34.0158 15.8101C34.2828 15.6151 34.5289 15.4501 34.5603 15.4501C34.6022 15.4501 34.6074 15.7751 34.5865 16.5901C34.5446 17.9151 34.5603 17.9751 34.8902 17.9751C35.1624 17.9751 35.2305 17.8551 35.1624 17.4901C35.1362 17.3451 35.1048 16.7551 35.0891 16.1851C35.0682 15.2201 35.0734 15.1351 35.1624 15.0701C35.2566 15.0001 36.0315 14.5501 36.4085 14.3501C36.6336 14.2251 37.597 13.7651 37.9006 13.6301C38.0001 13.5901 38.2357 13.5051 38.4242 13.4501C38.932 13.2951 39.1205 13.0751 38.9163 12.8801C38.8012 12.7701 38.6441 12.7801 38.3614 12.9251C38.2252 12.9951 38.0786 13.0501 38.0368 13.0501C37.9059 13.0501 37.8378 12.6351 37.8954 12.2301C37.9477 11.8651 37.8587 11.7001 37.6231 11.7001C37.508 11.7001 37.3928 11.7501 37.2724 11.8501Z" fill="#ECECEC"/>
<path id="Vector_5" d="M35.7121 12.4402C35.6179 12.5302 35.5603 12.8202 35.466 13.6802C35.4294 14.0102 35.5131 14.0952 35.7487 13.9802C35.9686 13.8702 36.0001 13.7852 36.0105 13.2902C36.0158 13.0552 36.0315 12.7952 36.0472 12.7202C36.11 12.3902 35.9268 12.2352 35.7121 12.4402Z" fill="#ECECEC"/>
<path id="Vector_6" d="M32.0682 13.0552C31.9163 13.1702 31.8745 13.4502 32.0106 13.4502C32.2462 13.4502 32.487 13.2202 32.4294 13.0452C32.3876 12.9202 32.241 12.9252 32.0682 13.0552Z" fill="#ECECEC"/>
<path id="Vector_7" d="M33.1884 13.4802C33.1151 13.5152 33.0157 13.5502 32.9633 13.5502C32.6596 13.5502 32.5811 13.7402 32.534 14.5752C32.5026 15.2352 32.5287 15.3302 32.7382 15.2802C32.9947 15.2202 33.068 15.0802 33.0942 14.6102C33.1151 14.1402 33.1937 13.9702 33.424 13.8502C33.5811 13.7702 33.6335 13.6402 33.5549 13.5002C33.4921 13.3852 33.3769 13.3802 33.1884 13.4802Z" fill="#ECECEC"/>
<path id="Vector_8" d="M31.953 13.9499C31.7278 14.0349 31.6755 14.1999 31.6388 14.9699C31.6074 15.6099 31.6127 15.6999 31.686 15.7299C31.8064 15.7699 32.0891 15.5999 32.0943 15.4749C32.0996 15.4199 32.11 15.3299 32.1205 15.2749C32.1257 15.2199 32.1624 14.9099 32.199 14.5849C32.2566 14.0749 32.2566 13.9899 32.1938 13.9499C32.0996 13.8949 32.0943 13.8949 31.953 13.9499Z" fill="#ECECEC"/>
</g>
</g>
</g>
<defs>
<clipPath id="clip0_41_2515">
<rect width="66.4935" height="40" fill="white" transform="translate(0.753174 0.696289)"/>
</clipPath>
<clipPath id="clip1_41_2515">
<rect width="10" height="8" fill="white" transform="translate(29 10)"/>
</clipPath>
</defs>
</svg>
