<svg width="102" height="41" viewBox="0 0 102 41" fill="none" xmlns="http://www.w3.org/2000/svg">
    <g clip-path="url(#clip0_41_2518)">
        <path d="M33.3021 4.73471C30.3247 6.92673 27.8479 8.75628 27.8048 8.80806C27.753 8.86847 29.5912 10.2493 33.1985 12.8642C36.2104 15.0475 38.7131 16.8426 38.7562 16.8598C38.8166 16.8771 54.6354 5.37333 56.4995 3.96664L56.7584 3.75952L60.0378 6.18455C61.8328 7.5222 63.3776 8.66998 63.4553 8.75628C63.5933 8.88573 63.3948 9.0497 60.2708 11.3108C58.4412 12.6398 56.8965 13.753 56.8447 13.7789C56.7929 13.8135 55.6624 13.0454 54.3334 12.0788C53.0043 11.1036 51.8566 10.3269 51.7875 10.3442C51.6063 10.3874 49.8026 11.6905 49.8026 11.7768C49.8026 11.8976 56.7239 16.8857 56.8274 16.8512C56.9914 16.7822 67.7961 8.93751 67.8134 8.86847C67.822 8.81669 56.9741 0.825325 56.8015 0.756285C56.767 0.747656 52.7023 3.68185 47.7746 7.28919L38.7994 13.8393L38.3593 13.5287C34.0529 10.4564 31.9644 8.88573 32.0507 8.7908C32.1111 8.73902 33.6473 7.58261 35.4768 6.2277L38.7994 3.76815L39.0583 3.96664C39.1964 4.0702 40.3183 4.90731 41.5351 5.82209L43.753 7.47905L44.7282 6.77139C45.2632 6.38304 45.7379 6.03784 45.7724 6.00332C45.8415 5.94291 39.0755 0.868475 38.8339 0.790806C38.7649 0.773544 36.2794 2.54269 33.3021 4.73471Z" fill="black"/>
        <path d="M98.8211 24.0145C97.9581 24.4719 97.5438 25.4471 97.82 26.3792C98.0875 27.3198 98.8211 27.8635 99.8049 27.8549C100.987 27.8462 101.842 26.966 101.842 25.7578C101.842 25.3263 101.531 24.61 101.229 24.3252C100.599 23.747 99.5805 23.6176 98.8211 24.0145ZM100.547 24.2562C101.315 24.6532 101.634 25.6801 101.212 26.405C100.582 27.5183 99.2094 27.6305 98.4845 26.6294C98.0099 25.9735 98.0616 25.24 98.6312 24.6273C99.1576 24.0749 99.8998 23.9282 100.547 24.2562Z" fill="black"/>
        <path d="M99.0798 25.8096V26.9746H99.2956C99.4941 26.9746 99.5113 26.9487 99.5113 26.5431C99.5113 26.2152 99.5459 26.1116 99.6408 26.1116C99.7098 26.1116 99.8652 26.3015 99.986 26.5431C100.159 26.8883 100.245 26.9746 100.426 26.9746C100.616 26.9746 100.633 26.9573 100.538 26.7761C100.478 26.6726 100.366 26.4827 100.279 26.3533C100.115 26.1289 100.115 26.1289 100.374 25.87C100.702 25.5334 100.72 25.1537 100.417 24.8603C100.236 24.6704 100.133 24.6445 99.6408 24.6445H99.0798V25.8096Z" fill="black"/>
        <path d="M62.2731 24.3078C59.7531 24.6443 57.4144 25.7921 55.8265 27.475C55.1015 28.243 54.6096 29.0801 54.2644 30.0985C54.0055 30.8752 53.9969 30.9529 53.9883 32.4113C53.9883 33.9906 54.0401 34.3272 54.4629 35.4491C54.7132 36.1222 55.3604 37.0974 55.9818 37.7188C57.3971 39.1513 59.149 40.0316 61.4964 40.4976C62.6787 40.7306 65.5007 40.7047 66.6744 40.4545C68.3917 40.0834 69.6086 39.5656 70.7391 38.7285C72.3788 37.503 73.2677 36.2603 73.7596 34.4825C73.984 33.6627 73.984 31.3153 73.7596 30.4696C73.3108 28.804 72.4737 27.6217 70.9031 26.4653C69.3669 25.3261 68.2795 24.8169 66.6657 24.4717C65.6819 24.2646 63.2655 24.1697 62.2731 24.3078ZM65.2504 26.7155C66.8124 26.9054 67.7531 27.2851 68.9527 28.1826C70.1091 29.0629 70.7218 29.9345 71.0411 31.1859C71.464 32.8515 70.9894 34.8277 69.8502 36.1136C69.0476 37.0284 67.615 37.7533 66.0185 38.064C64.3788 38.3746 61.8243 38.1762 60.4953 37.6325C57.9322 36.5969 56.491 34.2236 56.8793 31.6691C57.1555 29.8396 58.286 28.4243 60.2019 27.4922C61.738 26.7501 63.4122 26.4912 65.2504 26.7155Z" fill="black"/>
        <path d="M6.17805 24.437C3.84795 24.7132 2.87276 25.0584 2.00114 25.93C1.06047 26.8707 0.646228 28.122 0.853347 29.4338C0.982797 30.245 1.25896 30.8059 1.77676 31.2806C2.76058 32.1867 4.46068 32.5665 9.4143 32.9721C12.4521 33.231 13.1597 33.3345 13.9019 33.6711C15.3776 34.327 15.6193 35.9322 14.3938 36.9332C13.5653 37.615 12.3053 37.9947 10.5448 38.0983C7.71419 38.2623 5.2719 37.7445 2.63976 36.4154L1.60416 35.8976L0.887867 36.8297C0.490888 37.3475 0.180208 37.8221 0.206098 37.8825C0.326918 38.2018 2.18237 39.1857 3.48549 39.6172C5.24601 40.204 6.92886 40.437 9.36252 40.437C12.5125 40.437 14.5491 39.9537 16.1198 38.8318C17.4488 37.8825 18.0874 36.2256 17.794 34.5255C17.4229 32.4111 15.5934 31.2633 11.917 30.8232C11.3215 30.7542 9.94936 30.6333 8.85335 30.5557C5.0993 30.3054 4.04644 30.0292 3.6322 29.218C3.05399 28.0789 3.90836 27.1727 5.9623 26.7326C7.01516 26.5168 9.47471 26.5427 10.6743 26.7844C11.8307 27.0174 13.1856 27.4575 14.3679 27.9753L15.2395 28.3637L16.0335 27.5179C16.4736 27.0519 16.8275 26.6549 16.8361 26.629C16.8361 26.5427 15.3863 25.766 14.6354 25.4553C13.6775 25.067 12.2363 24.6959 10.9763 24.5233C10.0961 24.3939 6.98927 24.3507 6.17805 24.437Z" fill="black"/>
        <path d="M21.3237 32.4545V40.2646H22.6614H23.999V32.4545V24.6444H22.6614H21.3237V32.4545Z" fill="black"/>
        <path d="M28.7454 32.4545V40.2646H30.083H31.4207L31.4379 33.9216L31.4638 27.5786L35.4163 32.584C37.5997 35.3369 39.4034 37.6066 39.4379 37.6325C39.4724 37.6498 41.2847 35.4146 43.4681 32.653L47.4293 27.639L47.4552 33.9561L47.4724 40.2646H48.8101H50.1477V32.4545V24.6444L48.4908 24.6616L46.8338 24.6875L43.2006 29.2528C41.1984 31.7727 39.5242 33.8353 39.4811 33.8526C39.4379 33.8612 37.7551 31.7986 35.7357 29.2614L32.0765 24.6444H30.4109H28.7454V32.4545Z" fill="black"/>
        <path d="M77.8501 32.4545V40.2646H79.1877H80.5254L80.5427 33.9906L80.5685 27.708L86.3938 33.982L92.219 40.256L93.8846 40.2646H95.5416V32.4545V24.6444H94.2039H92.8663L92.849 30.9184L92.8231 37.1837L86.9547 30.9184L81.0863 24.6616L79.4725 24.653L77.8501 24.6444V32.4545Z" fill="black"/>
    </g>
    <defs>
        <clipPath id="clip0_41_2518">
            <rect width="101.683" height="40" fill="white" transform="translate(0.158691 0.696289)"/>
        </clipPath>
    </defs>
</svg>
