<svg width="160" height="36" viewBox="0 0 160 36" fill="none" xmlns="http://www.w3.org/2000/svg">
    <g clip-path="url(#clip0_41_2528)">
        <path d="M18.228 28.0574C18.228 29.1261 18.0518 30.0432 17.6995 30.8121C17.3471 31.5809 16.8933 32.2436 16.3379 32.799C15.4628 33.6741 14.3999 34.2994 13.1503 34.6716C11.9008 35.045 10.5718 35.2317 9.16243 35.2317C7.94435 35.2317 6.74377 35.0555 5.55836 34.7031C4.37295 34.3508 3.31005 33.7476 2.37082 32.8935C1.68711 32.274 1.12124 31.5098 0.67321 30.6032C0.224014 29.6966 0 28.6979 0 27.6093H4.22944C4.22944 28.1659 4.34028 28.6828 4.56546 29.1623C4.78948 29.643 5.07183 30.0548 5.41485 30.3955C5.90488 30.8891 6.49759 31.2122 7.1918 31.3744C7.88601 31.5343 8.56389 31.6136 9.2266 31.6136C10.0165 31.6136 10.7644 31.5238 11.4691 31.3418C12.1738 31.1609 12.7397 30.8459 13.1667 30.3955C13.4234 30.1202 13.6357 29.8262 13.8072 29.5146C13.9787 29.2055 14.0627 28.7738 14.0627 28.2184C14.0627 27.3865 13.7921 26.7611 13.2472 26.3446C12.7023 25.9292 12.0781 25.6562 11.3722 25.5279C10.6034 25.3785 9.7598 25.2712 8.84157 25.2082C7.92334 25.1452 7.09029 25.046 6.34358 24.9177C5.55253 24.7893 4.81048 24.5653 4.11743 24.2456C3.42322 23.9248 2.81418 23.5036 2.29031 22.9797C1.76761 22.457 1.35109 21.827 1.0419 21.0896C0.731547 20.3534 0.576371 19.5157 0.576371 18.5753C0.576371 17.678 0.758382 16.8567 1.12124 16.1088C1.4841 15.3609 1.96479 14.6888 2.56333 14.0903C3.31005 13.3424 4.27144 12.7556 5.44635 12.3285C6.62126 11.9015 7.88134 11.688 9.2266 11.688C10.4435 11.688 11.6126 11.8747 12.7338 12.248C13.8551 12.6225 14.8013 13.1721 15.569 13.8978C16.2527 14.5383 16.8023 15.2652 17.2188 16.0761C17.6353 16.8882 17.8535 17.7737 17.8757 18.7351H13.6474C13.6252 18.3303 13.5237 17.9289 13.3429 17.5345C13.1608 17.139 12.931 16.7925 12.6545 16.4926C12.2905 16.1088 11.7783 15.8101 11.1167 15.5954C10.454 15.3831 9.81347 15.2757 9.19393 15.2757C8.55339 15.2757 7.89651 15.3609 7.22447 15.5312C6.55126 15.7027 5.97955 16.0341 5.51052 16.5253C5.27484 16.7808 5.08816 17.0585 4.94932 17.3584C4.81048 17.657 4.74164 18.0199 4.74164 18.4469C4.74164 19.1948 4.95515 19.7653 5.38218 20.1609C5.80921 20.5564 6.36458 20.8072 7.04829 20.9134C7.774 21.0219 8.59072 21.1176 9.49845 21.2016C10.4062 21.2879 11.2334 21.3836 11.9813 21.4898C12.8353 21.6181 13.6415 21.8491 14.3999 22.1793C15.1583 22.5107 15.8199 22.9482 16.3869 23.4919C16.9516 24.038 17.4008 24.6937 17.7321 25.4625C18.0612 26.2314 18.228 27.096 18.228 28.0574Z" fill="#D6002A"/>
        <path d="M36.1117 34.8491L34.511 33.0546C33.5916 33.8667 32.5823 34.4641 31.4833 34.8491C30.383 35.2329 29.2455 35.4255 28.0705 35.4255C27.0671 35.4255 26.1057 35.2656 25.1875 34.9448C24.2693 34.6262 23.4689 34.1712 22.7852 33.5832C22.1027 32.9963 21.5578 32.2752 21.1518 31.4212C20.7457 30.5671 20.5427 29.6046 20.5427 28.537C20.5427 27.1276 20.9114 25.9223 21.6488 24.9166C22.385 23.9132 23.3627 23.0382 24.5797 22.2903C24.2156 21.9052 23.8854 21.5272 23.5868 21.1515C23.2869 20.7793 23.0314 20.399 22.8179 20.014C22.6032 19.6301 22.4387 19.2241 22.3208 18.797C22.2042 18.37 22.1447 17.8893 22.1447 17.3561C22.1447 16.4589 22.3103 15.6573 22.6417 14.9526C22.9719 14.2479 23.4152 13.6447 23.9706 13.143C24.526 12.6413 25.1829 12.2621 25.9412 12.0054C26.6985 11.7499 27.5047 11.6216 28.3599 11.6216C29.1929 11.6216 29.9875 11.7441 30.7459 11.9903C31.5043 12.2353 32.1716 12.5981 32.7492 13.0788C33.3256 13.5595 33.7841 14.1476 34.1259 14.8406C34.4678 15.5348 34.6393 16.3306 34.6393 17.2278C34.6393 17.9757 34.532 18.6419 34.3173 19.2299C34.1049 19.8168 33.8051 20.3511 33.4212 20.8318C33.0374 21.3114 32.5823 21.7547 32.0596 22.1608C31.5358 22.568 30.9652 22.9506 30.3457 23.3135L34.2858 27.6071C34.4783 27.2443 34.6113 26.8219 34.686 26.3412C34.7606 25.8605 34.819 25.3541 34.8621 24.8198C34.9053 24.3076 34.9275 23.8059 34.9275 23.3135V22.0359H40.7892V25.2071H38.1629C38.1185 26.1043 38.0019 26.9899 37.8105 27.865C37.618 28.7424 37.2761 29.5521 36.7849 30.3011L40.9805 34.8491H36.1117ZM26.9178 24.7894C26.5339 25.0251 26.1816 25.2503 25.8607 25.4626C25.541 25.6762 25.2564 25.9235 25.0113 26.2C24.7663 26.4777 24.5738 26.7916 24.435 27.1451C24.2961 27.4986 24.2273 27.9081 24.2273 28.3795C24.2273 28.9559 24.3393 29.4681 24.5633 29.9173C24.7885 30.3653 25.0872 30.7386 25.4605 31.0385C25.8339 31.3372 26.2656 31.56 26.758 31.7105C27.2492 31.8599 27.7614 31.9334 28.2957 31.9334C28.9783 31.9334 29.662 31.8377 30.3457 31.6452C31.0294 31.4527 31.6163 31.0805 32.1075 30.524L26.9178 24.7894ZM30.8906 17.39C30.8906 16.6001 30.6502 15.991 30.1695 15.564C29.69 15.137 29.0856 14.9235 28.3599 14.9235C27.6984 14.9235 27.1103 15.1206 26.5981 15.5162C26.0859 15.9117 25.8292 16.5044 25.8292 17.2943C25.8292 17.6571 25.8981 17.999 26.0369 18.3187C26.1758 18.6395 26.3461 18.9441 26.5503 19.2322C26.7521 19.5204 26.982 19.7911 27.2387 20.049C27.4942 20.3045 27.7404 20.5507 27.976 20.7852C28.3167 20.5938 28.6632 20.3955 29.0168 20.1925C29.368 19.9906 29.683 19.7608 29.9607 19.5029C30.2384 19.2462 30.4624 18.9476 30.6339 18.6057C30.8054 18.2662 30.8906 17.8602 30.8906 17.39Z" fill="#D6002A"/>
        <path d="M60.9167 19.3756C60.9167 20.4654 60.7464 21.4571 60.4045 22.3555C60.0626 23.2527 59.5551 24.0216 58.8819 24.6621C58.2099 25.3027 57.3721 25.8009 56.3676 26.1521C55.3642 26.5044 54.2103 26.6806 52.9082 26.6806H48.1035V34.8175H44.0024V12.1045H52.9082C54.2103 12.1045 55.3642 12.2807 56.3676 12.633C57.3721 12.9854 58.2099 13.4766 58.8819 14.1066C59.5551 14.7367 60.0626 15.4997 60.4045 16.3969C60.7464 17.2942 60.9167 18.2871 60.9167 19.3756ZM56.7538 19.4083C56.7538 18.3186 56.4329 17.433 55.7924 16.7493C55.1518 16.0667 54.1368 15.7249 52.7495 15.7249H48.1047V23.0602H52.7495C54.1368 23.0602 55.1518 22.7242 55.7924 22.051C56.4317 21.3789 56.7538 20.498 56.7538 19.4083Z" fill="#D6002A"/>
        <path d="M85.2633 34.8177L84.7826 32.3173C84.6122 32.6382 84.3555 32.9742 84.0148 33.3266C83.6718 33.6789 83.2518 33.9951 82.7489 34.2728C82.2461 34.5505 81.686 34.7803 81.0677 34.9623C80.4493 35.142 79.7854 35.233 79.0819 35.233C77.7576 35.233 76.5232 35.0522 75.3821 34.6882C74.2387 34.3253 73.219 33.6638 72.3229 32.7024C71.7244 32.084 71.2379 31.4318 70.8657 30.7481C70.4911 30.0644 70.1925 29.3386 69.9684 28.5698C69.7433 27.8009 69.5892 26.9947 69.5029 26.1523C69.4177 25.3076 69.3757 24.4173 69.3757 23.4758C69.3757 22.5599 69.4119 21.679 69.4877 20.8331C69.5624 19.9895 69.7071 19.195 69.9194 18.4471C70.1329 17.6992 70.4328 16.984 70.8167 16.3003C71.2017 15.6178 71.7022 14.9656 72.3229 14.346C73.198 13.471 74.2387 12.8083 75.4451 12.3602C76.6515 11.911 77.8649 11.687 79.0819 11.687C80.4913 11.687 81.7724 11.9227 82.9263 12.3917C84.079 12.8619 85.0404 13.492 85.8093 14.2818C86.3658 14.8594 86.8337 15.5151 87.2187 16.2525C87.6026 16.9887 87.8278 17.8602 87.8908 18.8636H83.6625C83.6193 18.4144 83.5026 18.0306 83.3101 17.7097C83.1176 17.39 82.9053 17.0809 82.6696 16.781C81.8785 15.8628 80.6721 15.4031 79.048 15.4031C78.3865 15.4031 77.7133 15.5373 77.0307 15.8044C76.347 16.0716 75.7811 16.4497 75.3331 16.9409C74.9481 17.3469 74.6389 17.8171 74.4032 18.3503C74.1687 18.8846 73.9867 19.4458 73.8595 20.0327C73.7312 20.6208 73.6507 21.2123 73.6192 21.8097C73.5865 22.4082 73.5713 22.9624 73.5713 23.4746C73.5713 23.988 73.5912 24.5492 73.6343 25.157C73.6775 25.7661 73.7627 26.3693 73.891 26.9667C74.0194 27.5664 74.2002 28.1357 74.4359 28.6818C74.6704 29.2266 74.9796 29.7015 75.3646 30.1075C75.8127 30.5987 76.3739 30.9604 77.0471 31.1961C77.7191 31.4318 78.3865 31.5496 79.048 31.5496C79.7971 31.5496 80.4528 31.4318 81.0187 31.1961C81.5834 30.9616 82.0594 30.6419 82.4444 30.237C83.064 29.5953 83.4641 28.9175 83.6462 28.2022C83.827 27.487 83.9168 26.6913 83.9168 25.8163H78.5032V22.3884H87.9211V34.8177H85.2633Z" fill="#D6002A"/>
        <path d="M97.9457 34.7848C97.5385 34.8688 97.2445 34.9294 97.0648 34.9598C96.8839 34.9924 96.5899 35.0076 96.1839 35.0076C94.8165 35.0076 93.7174 34.6553 92.8843 33.9505C92.0513 33.2458 91.6348 32.1036 91.6348 30.5227V11.6553H95.6717V29.8518C95.6717 30.343 95.7674 30.7327 95.9599 31.0209C96.1524 31.309 96.5899 31.4537 97.2736 31.4537C97.444 31.4537 97.5723 31.4479 97.6575 31.4374C97.7427 31.4269 97.8383 31.4199 97.9457 31.4199V34.7848Z" fill="#D6002A"/>
        <path d="M114.944 26.4881C114.944 27.8975 114.772 29.0783 114.432 30.028C114.09 30.9777 113.609 31.8493 112.99 32.638C112.414 33.3427 111.617 33.9506 110.604 34.4639C109.588 34.975 108.44 35.2328 107.159 35.2328C105.878 35.2328 104.73 34.975 103.717 34.4639C102.702 33.9506 101.905 33.3427 101.33 32.638C100.711 31.8481 100.23 30.9777 99.8882 30.028C99.5475 29.0783 99.376 27.8975 99.376 26.4881C99.376 25.0787 99.5475 23.8979 99.8882 22.9482C100.23 21.9985 100.711 21.1269 101.33 20.337C101.905 19.6323 102.702 19.0244 103.717 18.5111C104.73 17.9989 105.878 17.7422 107.159 17.7422C108.44 17.7422 109.588 17.9989 110.604 18.5111C111.617 19.0244 112.414 19.6323 112.99 20.337C113.609 21.1281 114.09 21.9985 114.432 22.9482C114.771 23.8979 114.944 25.0787 114.944 26.4881ZM110.874 26.4881C110.874 25.6982 110.8 24.934 110.65 24.1978C110.5 23.4592 110.181 22.8245 109.69 22.2901C109.412 21.9915 109.06 21.7406 108.633 21.5376C108.206 21.3346 107.715 21.2331 107.158 21.2331C106.603 21.2331 106.113 21.3346 105.685 21.5376C105.256 21.7406 104.904 21.9915 104.627 22.2901C104.136 22.8245 103.817 23.4592 103.667 24.1978C103.518 24.934 103.443 25.6982 103.443 26.4881C103.443 27.278 103.518 28.0422 103.667 28.7784C103.817 29.5158 104.136 30.1517 104.627 30.6849C104.904 30.9835 105.258 31.2344 105.685 31.4386C106.112 31.6416 106.603 31.7431 107.158 31.7431C107.715 31.7431 108.205 31.6416 108.633 31.4386C109.06 31.2344 109.412 30.9835 109.69 30.6849C110.181 30.1517 110.5 29.5158 110.65 28.7784C110.8 28.0422 110.874 27.278 110.874 26.4881Z" fill="#D6002A"/>
        <path d="M133.422 26.5198C133.422 28.0996 133.175 29.5043 132.683 30.7317C132.192 31.9603 131.445 32.9801 130.441 33.7921C129.93 34.218 129.337 34.5598 128.665 34.8165C127.992 35.0732 127.238 35.2004 126.405 35.2004C125.487 35.2004 124.6 35.0254 123.747 34.673C122.893 34.3195 122.219 33.7594 121.729 32.9906L121.472 34.8165H118.014V11.687H122.017V19.3758C122.402 18.9068 122.973 18.5171 123.731 18.2068C124.489 17.8976 125.37 17.7424 126.375 17.7424C127.227 17.7424 127.993 17.8602 128.666 18.0948C129.338 18.3293 129.931 18.6606 130.442 19.0877C132.428 20.7328 133.422 23.2098 133.422 26.5198ZM129.352 26.4568C129.352 25.7311 129.281 25.0147 129.143 24.3088C129.004 23.6041 128.722 22.9752 128.294 22.421C127.994 22.0558 127.625 21.7478 127.189 21.49C126.75 21.2345 126.223 21.1073 125.603 21.1073C124.813 21.1073 124.172 21.273 123.682 21.6032C123.19 21.9345 122.805 22.3604 122.53 22.8854C122.252 23.4081 122.065 23.9856 121.969 24.6145C121.873 25.2446 121.825 25.8583 121.825 26.4568C121.825 27.2677 121.921 28.0949 122.114 28.9396C122.305 29.7832 122.69 30.4716 123.266 31.0059C123.543 31.2626 123.874 31.4668 124.26 31.615C124.644 31.7643 125.092 31.8378 125.604 31.8378C126.224 31.8378 126.751 31.7106 127.19 31.4528C127.626 31.1973 127.995 30.8881 128.295 30.5241C128.722 29.9687 129.004 29.334 129.144 28.6176C129.282 27.9024 129.352 27.1837 129.352 26.4568Z" fill="#D6002A"/>
        <path d="M151.199 34.6249C150.857 34.7755 150.563 34.8875 150.318 34.961C150.073 35.0356 149.706 35.0741 149.215 35.0741C148.338 35.0741 147.666 34.8385 147.196 34.3694C146.726 33.9016 146.46 33.3555 146.396 32.7372C146.011 33.4209 145.37 34.0077 144.473 34.4989C143.576 34.9901 142.53 35.2352 141.336 35.2352C140.331 35.2352 139.455 35.0916 138.707 34.8035C137.959 34.5153 137.335 34.1302 136.833 33.6495C136.333 33.1688 135.952 32.6146 135.697 31.9846C135.44 31.3546 135.313 30.6977 135.313 30.0151C135.313 29.2241 135.457 28.5205 135.745 27.8998C136.032 27.2803 136.434 26.7459 136.945 26.2979C137.457 25.8499 138.056 25.5022 138.74 25.2572C139.422 25.011 140.158 24.8546 140.951 24.7916L145.851 24.4393V23.4126C145.851 22.6227 145.664 21.9856 145.291 21.5061C144.918 21.0254 144.165 20.7851 143.031 20.7851C142.092 20.7851 141.361 20.9892 140.838 21.3929C140.315 21.8001 140.032 22.387 139.988 23.1559H136.112C136.176 22.2155 136.395 21.4034 136.769 20.7209C137.141 20.0372 137.639 19.4771 138.257 19.0396C138.876 18.6021 139.593 18.2766 140.403 18.063C141.216 17.8495 142.091 17.7422 143.03 17.7422C144.463 17.7422 145.738 17.993 146.859 18.4947C147.979 18.9976 148.787 19.8785 149.277 21.1374C149.49 21.6718 149.624 22.2271 149.678 22.8035C149.73 23.3799 149.758 23.9469 149.758 24.5011V30.6849C149.758 31.0687 149.827 31.3417 149.966 31.5016C150.105 31.6614 150.345 31.7419 150.687 31.7419C150.857 31.7419 150.975 31.7314 151.039 31.7093C151.105 31.7093 151.157 31.6988 151.199 31.6789V34.6249ZM145.85 27.4168L141.622 27.7365C141.003 27.7797 140.447 27.9827 139.955 28.3444C139.463 28.7096 139.218 29.2323 139.218 29.916C139.218 30.5565 139.458 31.0629 139.939 31.4374C140.42 31.8119 140.969 31.9963 141.589 31.9963C142.849 31.9963 143.875 31.6719 144.664 31.0197C145.454 30.3687 145.85 29.4236 145.85 28.1845V27.4168Z" fill="#D6002A"/>
        <path d="M160 34.7848C159.594 34.8688 159.3 34.9294 159.119 34.9598C158.937 34.9924 158.643 35.0076 158.238 35.0076C156.871 35.0076 155.772 34.6553 154.939 33.9505C154.106 33.2458 153.689 32.1036 153.689 30.5227V11.6553H157.725V29.8518C157.725 30.343 157.822 30.7327 158.014 31.0209C158.207 31.309 158.643 31.4537 159.327 31.4537C159.498 31.4537 159.626 31.4479 159.712 31.4374C159.797 31.4269 159.893 31.4199 160 31.4199V34.7848Z" fill="#D6002A"/>
        <path d="M160 0.696289H0V4.38319H160V0.696289Z" fill="black"/>
    </g>
    <defs>
        <clipPath id="clip0_41_2528">
            <rect width="160" height="34.7292" fill="white" transform="translate(0 0.696289)"/>
        </clipPath>
    </defs>
</svg>
