<svg width="134" height="41" viewBox="0 0 134 41" fill="none" xmlns="http://www.w3.org/2000/svg">
    <g clip-path="url(#clip0_41_2540)">
        <path d="M20.4515 0.492188C9.43984 0.492188 0.512695 9.41909 0.512695 20.4308C0.512695 31.4429 9.43984 40.3691 20.4515 40.3691C31.4644 40.3691 40.3906 31.4429 40.3906 20.4308C40.3906 9.41981 31.4644 0.49314 20.4513 0.49314L20.4515 0.492188ZM29.5953 29.2493C29.2382 29.835 28.4715 30.0208 27.8858 29.6612C23.2044 26.8017 17.311 26.1541 10.3706 27.7398C9.70174 27.8922 9.03508 27.4731 8.8827 26.8041C8.7296 26.135 9.14698 25.4684 9.81746 25.316C17.4127 23.5808 23.9277 24.3279 29.1834 27.5398C29.7691 27.8993 29.9548 28.6636 29.5953 29.2493ZM32.0358 23.8203C31.5858 24.5517 30.6286 24.7827 29.8977 24.3327C24.5382 21.0384 16.3684 20.0843 10.0291 22.0086C9.20698 22.2569 8.33865 21.7936 8.08912 20.9729C7.84151 20.1508 8.30508 19.2841 9.12579 19.0341C16.367 16.8369 25.3691 17.9012 31.5239 21.6834C32.2548 22.1334 32.4858 23.0903 32.0358 23.8203ZM32.2453 18.1669C25.8191 14.35 15.2167 13.9991 9.08127 15.8612C8.09603 16.16 7.05412 15.6039 6.75555 14.6186C6.45698 13.6329 7.0127 12.5917 7.99865 12.2922C15.0417 10.1541 26.7501 10.5672 34.1486 14.9593C35.0367 15.4853 35.3272 16.6298 34.801 17.5148C34.2772 18.401 33.1296 18.6931 32.2463 18.1669H32.2453ZM54.7596 18.8984C51.3167 18.0774 50.7048 17.5012 50.7048 16.2905C50.7048 15.1467 51.781 14.3769 53.3834 14.3769C54.9358 14.3769 56.4739 14.9615 58.0882 16.1648C58.1358 16.2012 58.1977 16.2158 58.2572 16.2062C58.3191 16.1972 58.3715 16.1641 58.4072 16.1143L60.0882 13.7448C60.1572 13.6472 60.1382 13.5127 60.0453 13.4381C58.1239 11.8969 55.962 11.1477 53.4334 11.1477C49.7167 11.1477 47.1191 13.3784 47.1191 16.57C47.1191 19.9927 49.3596 21.2046 53.231 22.14C56.5239 22.8989 57.081 23.5346 57.081 24.6708C57.081 25.9303 55.9572 26.7136 54.1477 26.7136C52.1382 26.7136 50.4977 26.035 48.6644 24.4493C48.6191 24.4089 48.5572 24.3922 48.5001 24.3946C48.4382 24.3993 48.3834 24.4279 48.3453 24.4731L46.4596 26.716C46.381 26.8112 46.3906 26.9493 46.481 27.0303C48.6144 28.935 51.2382 29.9398 54.0715 29.9398C58.0763 29.9398 60.6644 27.7517 60.6644 24.3636C60.6715 21.5048 58.9596 19.9215 54.7667 18.9015L54.7596 18.8984ZM69.7263 15.5031C67.9906 15.5031 66.5667 16.1869 65.3906 17.5881V16.011C65.3906 15.8865 65.2906 15.785 65.1667 15.785H62.0834C61.9596 15.785 61.8596 15.8865 61.8596 16.011V33.535C61.8596 33.6589 61.9596 33.7612 62.0834 33.7612H65.1667C65.2906 33.7612 65.3906 33.6589 65.3906 33.535V28.0041C66.5667 29.3208 67.9906 29.966 69.7263 29.966C72.9525 29.966 76.2191 27.4827 76.2191 22.7353C76.2239 17.9869 72.9572 15.5029 69.7287 15.5029L69.7263 15.5031ZM72.6334 22.7353C72.6334 25.1517 71.1453 26.8398 69.012 26.8398C66.9048 26.8398 65.3144 25.0755 65.3144 22.7353C65.3144 20.3948 66.9048 18.631 69.012 18.631C71.1096 18.6308 72.6334 20.3567 72.6334 22.7353ZM84.5882 15.5031C80.4334 15.5031 77.1787 18.7022 77.1787 22.7869C77.1787 26.8279 80.412 29.9922 84.5382 29.9922C88.7072 29.9922 91.9715 26.8041 91.9715 22.7353C91.9715 18.6803 88.7287 15.5036 84.5882 15.5036V15.5031ZM84.5882 26.8636C82.3787 26.8636 80.712 25.0874 80.712 22.7341C80.712 20.37 82.3215 18.6546 84.5382 18.6546C86.762 18.6546 88.4382 20.43 88.4382 22.7858C88.4382 25.1493 86.8191 26.8636 84.5882 26.8636ZM100.843 15.785H97.4501V12.3169C97.4501 12.1927 97.3501 12.0912 97.2263 12.0912H94.1429C94.0191 12.0912 93.9167 12.1927 93.9167 12.3169V15.785H92.4358C92.312 15.785 92.212 15.8865 92.212 16.011V18.6603C92.212 18.7846 92.312 18.8862 92.4358 18.8862H93.9167V25.7422C93.9167 28.5112 95.2953 29.916 98.0167 29.916C99.1215 29.916 100.038 29.6874 100.902 29.1969C100.974 29.1589 101.017 29.0827 101.017 29.0017V26.4779C101.017 26.4017 100.976 26.3279 100.91 26.2874C100.843 26.2446 100.76 26.2422 100.691 26.2779C100.098 26.5755 99.5239 26.7136 98.881 26.7136C97.8929 26.7136 97.4501 26.2636 97.4501 25.2589V18.8874H100.843C100.967 18.8874 101.067 18.786 101.067 18.6615V16.0124C101.072 15.8879 100.972 15.7865 100.845 15.7865L100.843 15.785ZM112.662 15.7986V15.3727C112.662 14.1196 113.143 13.5608 114.219 13.5608C114.862 13.5608 115.379 13.6884 115.957 13.8812C116.029 13.9036 116.102 13.8924 116.16 13.8498C116.219 13.8072 116.252 13.7389 116.252 13.6665V11.0689C116.252 10.9696 116.191 10.8817 116.093 10.8524C115.483 10.6708 114.702 10.4843 113.531 10.4843C110.686 10.4843 109.179 12.0877 109.179 15.1193V15.7717H107.698C107.574 15.7717 107.472 15.8731 107.472 15.9974V18.6603C107.472 18.7846 107.574 18.8862 107.698 18.8862H109.179V29.4589C109.179 29.585 109.281 29.685 109.405 29.685H112.486C112.612 29.685 112.712 29.585 112.712 29.4589V18.8869H115.591L120 29.4589C119.5 30.5684 119.007 30.7898 118.336 30.7898C117.793 30.7898 117.219 30.6279 116.636 30.3065C116.581 30.2779 116.514 30.2731 116.457 30.2898C116.398 30.3112 116.348 30.3541 116.324 30.4112L115.279 32.7041C115.229 32.8136 115.272 32.9398 115.376 32.9969C116.467 33.5874 117.45 33.8398 118.667 33.8398C120.943 33.8398 122.202 32.7779 123.31 29.9255L128.657 16.1072C128.686 16.0377 128.676 15.9591 128.633 15.8974C128.593 15.8362 128.524 15.7993 128.45 15.7993H125.241C125.143 15.7993 125.057 15.8605 125.026 15.9508L121.738 25.3398L118.138 15.9446C118.105 15.8572 118.022 15.7993 117.929 15.7993H112.662V15.7986ZM105.81 15.785H102.726C102.602 15.785 102.5 15.8865 102.5 16.011V29.4589C102.5 29.585 102.602 29.685 102.726 29.685H105.81C105.933 29.685 106.036 29.585 106.036 29.4589V16.0119C106.036 15.8874 105.936 15.786 105.81 15.786V15.785ZM104.286 9.66147C103.064 9.66147 102.074 10.65 102.074 11.8712C102.074 13.0931 103.064 14.0829 104.286 14.0829C105.507 14.0829 106.495 13.0931 106.495 11.8712C106.495 10.6503 105.505 9.66147 104.286 9.66147ZM131.291 20.1091C130.072 20.1091 129.122 19.1293 129.122 17.9396C129.122 16.7498 130.083 15.7589 131.302 15.7589C132.522 15.7589 133.472 16.7384 133.472 17.9272C133.472 19.1169 132.51 20.1091 131.291 20.1091ZM131.302 15.9746C130.191 15.9746 129.35 16.8579 129.35 17.9396C129.35 19.0208 130.186 19.8922 131.291 19.8922C132.402 19.8922 133.243 19.0096 133.243 17.9272C133.243 16.846 132.407 15.9746 131.302 15.9746ZM131.783 18.1503L132.398 19.0093H131.879L131.326 18.2212H130.852V19.0093H130.419V16.7322H131.433C131.964 16.7322 132.312 17.0029 132.312 17.4586C132.314 17.8319 132.098 18.06 131.786 18.1503H131.783ZM131.417 17.1229H130.852V17.8431H131.417C131.698 17.8431 131.867 17.7053 131.867 17.4827C131.867 17.2484 131.698 17.1229 131.417 17.1229Z" fill="#1ED760"/>
    </g>
    <defs>
        <clipPath id="clip0_41_2540">
            <rect width="133.095" height="40" fill="white" transform="translate(0.452393 0.425781)"/>
        </clipPath>
    </defs>
</svg>
