<?xml version="1.0" encoding="UTF-8"?>
<svg width="512px" height="512px" viewBox="0 0 512 512" version="1.1" xmlns="http://www.w3.org/2000/svg" xmlns:xlink="http://www.w3.org/1999/xlink">
    <!-- Generator: Sketch 49 (51002) - http://www.bohemiancoding.com/sketch -->
    <title>SPX</title>
    <desc>Created with Sketch.</desc>
    <defs></defs>
    <g id="SPX" stroke="none" stroke-width="1" fill="none" fill-rule="evenodd">
        <g id="nyse-new-york-stock-exchange-copy-2" fill-rule="nonzero">
            <path d="M29.3214167,510.423088 L0,510.423088 L0,363.085441 L29.3229488,363.085441 L89.1373316,456.777533 L89.1373316,363.085441 L118.458748,363.085441 L118.458748,510.423088 L91.0437803,510.422579 L29.3214167,413.514545 L29.3214167,510.423088 Z M139.569617,363.085441 L175.335576,363.085441 L208.175215,417.023263 L241.163469,363.085441 L277.534099,363.085441 L222.842052,446.847621 L222.842052,510.422579 L193.520635,510.422579 L193.520635,446.10881 L139.569617,363.085441 Z M368.463993,404.656953 L383.717626,380.811316 C383.717626,380.811316 366.235802,361.837456 334.031986,361.837456 C301.361389,361.837456 286.27067,383.76198 286.27067,405.468068 C286.27067,427.216417 307.312083,441.71973 321.530013,447.298749 C343.301218,454.945525 358.689676,458.701701 358.689676,469.622975 C358.689676,477.909782 350.260548,484.0937 338.400016,484.0937 C316.15539,484.0937 298.562744,466.006312 298.562744,466.006312 L282.642135,490.737912 C282.642135,490.737912 303.877615,512 337.881654,512 C364.219552,512 387.715908,493.702323 387.715908,466.670784 C387.715908,442.323101 366.964573,428.913494 348.844373,423.763708 C333.138258,419.201 316.55578,414.827195 316.55578,403.770481 C316.55578,396.546321 322.617807,389.891416 333.216906,389.891416 C351.189514,389.891925 368.463993,404.656953 368.463993,404.656953 Z M414.017036,510.423088 L414.017036,363.085441 L510.190813,363.085441 L510.190813,388.81044 L443.338452,388.81044 L443.338452,423.891511 L500.808205,423.891511 L500.808205,449.616509 L443.338452,449.616509 L443.338452,484.696562 L510.190813,484.696562 L510.190813,510.421561 L414.017036,510.421561 L414.017036,510.423088 Z" id="Shape" fill="#000000"></path>
            <polygon id="Shape" fill="#00A4D5" points="0 327.462898 0 0 65.130742 0 65.130742 327.462898"></polygon>
            <polygon id="Shape" fill="#00A4D5" points="88.6501767 327.462898 88.6501767 0 153.780919 0 153.780919 327.462898"></polygon>
            <polygon id="Shape" fill="#00A4D5" points="177.300353 327.462898 177.300353 0 242.431095 0 242.431095 327.462898"></polygon>
            <polygon id="Shape" fill="#00A4D5" points="267.759717 327.462898 267.759717 0 332.890459 0 332.890459 327.462898"></polygon>
            <polygon id="Shape" fill="#00A4D5" points="354.600707 327.462898 354.600707 0 419.731449 0 419.731449 327.462898"></polygon>
            <polygon id="Shape" fill="#00A4D5" points="445.060071 327.462898 445.060071 0 510.190813 0 510.190813 327.462898"></polygon>
        </g>
    </g>
</svg>