<svg width="40" height="41" viewBox="0 0 40 41" fill="none" xmlns="http://www.w3.org/2000/svg">
    <g clip-path="url(#clip0_41_2542)">
        <path d="M38.6932 20.4256C38.6932 30.7495 30.3239 39.1187 20 39.1187C9.67612 39.1187 1.30688 30.7495 1.30688 20.4256C1.30688 10.1017 9.67612 1.73242 20 1.73242C30.3239 1.73242 38.6932 10.1017 38.6932 20.4256Z" fill="white"/>
        <path fill-rule="evenodd" clip-rule="evenodd" d="M20 2.37781C10.0325 2.37781 1.95203 10.4583 1.95203 20.4258C1.95203 30.3933 10.0325 38.4738 20 38.4738C29.9675 38.4738 38.048 30.3933 38.048 20.4258C38.048 10.4583 29.9675 2.37781 20 2.37781ZM0 20.4258C0 9.38022 8.95442 0.425781 20 0.425781C31.0456 0.425781 40 9.38022 40 20.4258C40 31.4714 31.0456 40.4258 20 40.4258C8.95442 40.4258 0 31.4714 0 20.4258Z" fill="white"/>
        <path d="M37.2159 27.7241C38.175 25.6083 38.6932 22.8755 38.6932 20.1917C38.6932 9.99678 30.3239 1.73242 20 1.73242C9.67579 1.73242 1.30688 9.99678 1.30688 20.1917C1.30688 23.8757 2.31797 27.5008 4.07281 30.1857C9.84287 28.0345 16.4609 26.7455 23.2298 26.5476C28.0252 26.4074 32.8209 26.8259 37.2159 27.7241Z" fill="#80BC00"/>
        <path d="M20.0665 39.1185C27.3992 39.1185 33.9117 34.7585 36.887 28.4442C24.9403 27.2167 15.0558 30.8078 8.33813 35.0291C11.4895 37.5866 15.7251 39.1185 20.0665 39.1185Z" fill="#003B7C"/>
        <path d="M32.7259 22.3403C32.7259 22.5713 32.5661 23.0391 32.5661 23.0391H35.0538C35.0538 23.0391 34.8943 22.5746 34.8943 22.3403V19.8387H34.8881V14.5451C34.8881 14.0138 35.0479 13.8275 35.0479 13.8275H32.2409L32.0232 14.2666L29.5541 19.2151L27.0757 14.2745L26.854 13.8275L24.0474 13.8282C24.0474 13.8282 24.2069 14.0101 24.2069 14.5455V22.3403C24.2069 22.5713 24.0474 23.0391 24.0474 23.0391H26.5351C26.5351 23.0391 26.3756 22.5746 26.3756 22.3403V17.2045L28.7696 22.119H30.3395L32.7207 17.2045L32.7269 19.8387L32.7259 22.3403ZM11.4575 17.9668C11.036 17.7828 10.5013 17.5989 9.85447 17.4149C9.42006 17.2836 9.09187 17.1761 8.86986 17.0927C8.64819 17.01 8.46192 16.8998 8.31138 16.7641C8.16051 16.6285 8.08508 16.4598 8.08508 16.2583C8.08508 16.0482 8.17149 15.8884 8.3448 15.7789C8.5175 15.6691 8.75473 15.6144 9.05647 15.6144C9.43761 15.6144 9.90973 15.7065 10.4728 15.8904C11.036 16.0743 11.8224 16.4088 11.9736 16.7992L12.98 14.6818C12.4834 14.3661 11.9071 14.1147 11.251 13.9261C10.5949 13.7379 9.92958 13.6436 9.25596 13.6436C8.51089 13.6436 7.85679 13.7597 7.29369 13.9916C6.73056 14.2239 6.29617 14.5551 5.99045 14.9842C5.68442 15.4133 5.53156 15.9129 5.53156 16.4823C5.53156 17.0867 5.68011 17.5708 5.97722 17.934C6.27432 18.2976 6.63131 18.5696 7.04818 18.7486C7.46506 18.9286 7.99244 19.1059 8.63098 19.2809C9.05679 19.3947 9.38697 19.4933 9.62189 19.5764C9.85679 19.6598 10.052 19.7719 10.2075 19.9119C10.3623 20.0518 10.4404 20.2272 10.4404 20.4373C10.4404 20.6917 10.3363 20.8843 10.1278 21.0156C9.91933 21.1466 9.63313 21.2128 9.26986 21.2128C8.77325 21.2128 8.20353 21.0818 7.56068 20.8187C6.91784 20.556 6.25745 20.1637 5.9878 19.6422L4.94629 21.6856C5.50476 22.1501 6.16779 22.516 6.93438 22.7827C7.70163 23.05 8.47119 23.1833 9.2424 23.1833C9.94315 23.1833 10.5794 23.0742 11.1514 22.8551C11.7231 22.6364 12.1731 22.3099 12.5016 21.8762C12.8298 21.4424 12.9936 20.919 12.9936 20.3056C12.9936 19.6925 12.8427 19.1953 12.5413 18.8141C12.2399 18.4333 11.8786 18.1507 11.4575 17.9668ZM20.6154 19.9092C20.4996 20.1412 20.361 20.3463 20.2012 20.5273C20.1301 20.4157 20.0563 20.3046 19.9716 20.1954C19.6513 19.7832 19.296 19.4477 18.8034 19.2909L17.5713 20.5471C17.8915 20.6285 18.2174 20.8823 18.4169 21.1109C18.4847 21.1889 18.5416 21.2647 18.5936 21.3388C18.5403 21.3426 18.4884 21.3501 18.4338 21.3501C17.9726 21.3501 17.5468 21.2214 17.1567 20.9633C16.7663 20.7059 16.454 20.3542 16.2194 19.9086C15.9842 19.4632 15.8667 18.969 15.8667 18.4247C15.8667 17.8904 15.9819 17.4007 16.2128 16.9554C16.4431 16.5101 16.7557 16.161 17.1504 15.9076C17.5448 15.6545 17.9726 15.5278 18.4338 15.5278C18.895 15.5278 19.3182 15.6545 19.7039 15.9076C20.0897 16.1607 20.3934 16.5101 20.6154 16.9554C20.8364 17.4007 20.9473 17.8904 20.9473 18.4247C20.9476 18.9693 20.8367 19.4642 20.6154 19.9092ZM22.6293 22.472C22.3021 22.5438 21.9471 22.4501 21.5782 22.1987C21.9001 21.9493 22.1896 21.6637 22.4381 21.3514C22.5046 21.279 22.5675 21.2029 22.6237 21.1208C23.167 20.3278 23.4485 19.4302 23.4485 18.4134C23.4485 17.5198 23.2292 16.7142 22.7898 15.9956C22.3507 15.2773 21.7479 14.7125 20.9807 14.3003C20.2138 13.8887 19.3559 13.6829 18.4067 13.6829C17.4578 13.6829 16.5999 13.8887 15.833 14.3003C15.0657 14.7125 14.4626 15.2773 14.0239 15.9956C13.5848 16.7142 13.3655 17.5198 13.3655 18.4134C13.3655 19.2981 13.5762 20.0998 13.9971 20.8184C14.4186 21.537 14.9969 22.1084 15.7334 22.5335C16.4695 22.9587 17.2987 23.1837 18.2207 23.2102C18.2245 23.2089 18.2282 23.2077 18.232 23.2052C18.2913 23.2077 18.3474 23.2114 18.4087 23.2114C18.8745 23.2114 19.3182 23.1611 19.7397 23.0619C20.1453 23.5198 20.6068 23.8506 21.1289 24.0465C21.6768 24.2519 22.232 24.2857 22.7944 24.1468C23.214 24.0436 23.6586 23.8242 23.9825 23.4963C24.0143 23.4639 23.1471 22.1524 23.1471 22.1524C23.0181 22.3436 22.8464 22.424 22.6293 22.472Z" fill="white"/>
    </g>
    <defs>
        <clipPath id="clip0_41_2542">
            <rect width="40" height="40" fill="white" transform="translate(0 0.425781)"/>
        </clipPath>
    </defs>
</svg>
