<svg width="160" height="34" viewBox="0 0 160 34" fill="none" xmlns="http://www.w3.org/2000/svg">
    <g clip-path="url(#clip0_41_2548)">
        <path d="M14.6894 0.491207C12.3631 0.818855 10.6922 1.2994 9.10853 2.09667C4.17202 4.57585 0.830035 9.20657 0.109216 14.5909C-0.0873707 16.0107 0.0218443 18.9595 0.316725 20.2482C0.633448 21.5916 0.928329 22.4653 1.48533 23.6557C1.94403 24.6605 2.98157 26.3533 3.41843 26.823L3.63686 27.0741L3.18908 28.0243C2.21707 30.0885 2.15154 30.7875 2.94881 30.7875C3.25461 30.7875 3.71331 30.3615 4.58703 29.2584C8.09283 24.8898 12.1338 21.1547 14.7986 19.8223C17.1249 18.6537 18.4901 18.7301 19.9645 20.1281C21.0457 21.1438 21.2751 22.1049 20.7181 23.2079C20.1283 24.3765 17.9986 25.9274 15.4976 27.0195C14.2853 27.5547 13.9795 27.7622 13.9795 28.068C13.9795 28.6032 14.6894 28.5922 17.0703 27.9916C22.127 26.7356 24.8137 24.7369 24.9884 22.1049C25.1522 19.5055 23.514 17.3322 19.6259 14.984C18.9706 14.5909 18.4573 14.2632 18.4792 14.2414C18.501 14.2195 19.1891 14.1322 20.0082 14.0339C23.4266 13.6407 26.3754 12.7451 28.1229 11.5656C28.3631 11.4127 28.6143 11.238 28.6908 11.2052C28.8546 11.1069 29.4444 12.7342 29.7174 14.023C30.4601 17.6052 29.7392 21.2748 27.7078 24.311C26.0915 26.7137 24.2567 28.2427 21.6137 29.3895C18.6867 30.6455 15.1263 30.7984 12.101 29.8045C11.1509 29.4878 9.58908 28.7561 9.043 28.3738C8.8901 28.2537 8.70444 28.1663 8.64983 28.1663C8.5843 28.1663 8.23481 28.6578 7.8744 29.2584L7.20819 30.3506L7.78703 30.7219C9.21775 31.6393 11.1945 32.4257 13.1058 32.8298C13.8375 32.9827 14.5256 33.0264 16.3276 33.0264C18.3372 33.0264 18.7631 32.9936 19.7679 32.7752C22.7495 32.109 25.3379 30.7329 27.4894 28.6687C28.5051 27.6967 29.5973 26.4079 30.187 25.4578C31.1263 23.9506 31.9454 21.8974 32.3495 20.0516C32.6771 18.5335 32.699 15.2789 32.4041 13.8045C32.142 12.5158 31.6396 10.9649 31.1154 9.82909L30.6894 8.91169L30.8751 8.38745C30.9843 8.1035 31.0389 7.83046 30.9952 7.7977C30.9625 7.76493 30.5911 7.9506 30.187 8.21271C26.5174 10.5827 23.0007 11.0305 17.3106 9.86186C15.4976 9.49053 14.3399 9.41408 13.9031 9.63251C12.9201 10.1458 13.215 11.9479 14.6457 14.1431C14.8751 14.5035 15.0717 14.853 15.0717 14.9294C15.0717 14.995 14.613 15.3226 14.0451 15.6503C10.9761 17.4523 8.13652 20.1499 5.86485 23.3827L5.04574 24.5513L4.7727 24.1363C4.32492 23.4591 3.62594 21.9956 3.33106 21.1328C2.88328 19.8113 2.70853 18.8066 2.65393 17.2448C2.54471 14.2632 3.27645 11.6967 4.98021 9.14104C6.97884 6.13763 10.1898 4.01885 13.8485 3.29803C15.0061 3.06868 17.398 3.04684 18.5666 3.25435C21.1877 3.71305 23.7761 5.01271 25.6437 6.79292L26.3208 7.45913L26.7249 7.26254C26.9433 7.15333 27.4676 6.85844 27.8717 6.58541C28.7345 6.02841 28.7345 6.03933 27.828 5.16561C25.3488 2.80657 22.5529 1.33216 19.3311 0.698715C18.4464 0.523972 15.4102 0.392914 14.6894 0.491207Z" fill="#EC1540"/>
        <path d="M16.557 5.06753C15.9127 5.29688 15.5959 5.56992 15.3011 6.13784C14.4492 7.85251 16.5789 9.47982 18.4901 8.56241C19.2765 8.19108 19.7133 7.22999 19.5058 6.37811C19.3748 5.87572 18.7086 5.25319 18.097 5.06753C17.4198 4.87094 17.114 4.87094 16.557 5.06753Z" fill="#EC1540"/>
        <path d="M46.7658 6.77114C43.5221 7.27353 41.3924 9.59981 41.3924 12.6578C41.3924 14.8312 42.2443 16.2619 44.0791 17.2121C45.0402 17.7036 45.9467 18.0203 48.2839 18.6537C50.7522 19.3309 51.615 19.8223 51.8771 20.707C52.161 21.6353 51.746 22.4653 50.7303 22.9786C50.1187 23.2954 50.0313 23.3063 48.7754 23.3063C46.8313 23.2954 45.2805 22.8039 43.6641 21.6899L42.9214 21.1766L41.7747 22.5527C41.1412 23.3063 40.6279 23.9616 40.6279 24.0162C40.6279 24.2019 42.004 25.0974 43.0416 25.5889C44.2539 26.1786 45.6081 26.5827 46.9296 26.7575C48.131 26.9104 50.5119 26.823 51.3856 26.5937C53.6573 25.9711 55.1754 24.5732 55.7542 22.5527C56.0382 21.5916 56.0054 19.8988 55.6996 19.0032C54.9788 16.8735 53.6136 16.0217 48.7644 14.6892C47.0279 14.2087 46.0341 13.7281 45.6737 13.2039C45.4552 12.8872 45.4225 12.7124 45.4552 12.1664C45.5098 11.3254 45.7938 10.9104 46.5801 10.5172C47.159 10.2442 47.2354 10.2333 48.5242 10.2879C50.1624 10.3534 51.4075 10.7466 52.9146 11.6749L53.2423 11.8824L54.2252 10.4954C54.7713 9.74179 55.2191 9.06465 55.2409 8.9882C55.2955 8.79162 53.6136 7.79776 52.587 7.42643C52.0955 7.25168 51.3092 7.02233 50.8505 6.93496C49.802 6.71653 47.6723 6.62916 46.7658 6.77114Z" fill="#151596"/>
        <path d="M155.085 7.03371C155.085 7.15385 155.206 7.19754 155.522 7.19754H155.959V8.28969C155.959 9.17433 155.992 9.38184 156.123 9.38184C156.243 9.38184 156.287 9.16341 156.309 8.31153L156.341 7.25214L156.756 7.21938C157.019 7.19754 157.161 7.13201 157.161 7.02279C157.161 6.90265 156.953 6.86989 156.123 6.86989C155.271 6.86989 155.085 6.90265 155.085 7.03371Z" fill="#151596"/>
        <path d="M157.597 8.12586C157.597 9.30539 157.608 9.38184 157.816 9.38184C158.001 9.38184 158.023 9.29446 158.056 8.48627L158.089 7.57979L158.46 8.15863L158.831 8.73747L159.224 8.15863L159.618 7.57979L159.65 8.47535C159.672 9.18525 159.716 9.38184 159.836 9.38184C159.967 9.38184 160 9.15248 160 8.12586C160 7.00095 159.978 6.86989 159.814 6.86989C159.705 6.86989 159.465 7.11016 159.257 7.41597C159.072 7.72177 158.864 7.96204 158.82 7.96204C158.777 7.96204 158.591 7.71085 158.416 7.41597C158.176 7.01187 158.034 6.86989 157.848 6.86989C157.597 6.86989 157.597 6.89173 157.597 8.12586Z" fill="#151596"/>
        <path d="M59.8499 16.7536V26.5283H67.2219H74.5939V24.7809V23.0334H69.2423H63.8908V20.7399V18.4464H68.5324H73.1741V16.699V14.9515H68.5324H63.8908V12.7672V10.5829H69.1877H74.4847V8.78088V6.97883H67.1673H59.8499V16.7536Z" fill="#151596"/>
        <path d="M78.8533 16.7536V26.5283H80.8191H82.785V19.9536C82.785 14.3072 82.8069 13.4007 82.9379 13.5317C83.0253 13.6191 84.3031 15.5413 85.7884 17.7911C87.2628 20.0409 88.5079 21.8976 88.5516 21.9085C88.5953 21.9304 89.9058 19.9973 91.4676 17.6273L94.3072 13.3133L94.34 19.9208L94.3618 26.5283H96.3823H98.4028V16.7536V6.97883H96.1748H93.9468L91.3038 11.2382C89.8512 13.5754 88.6389 15.4976 88.628 15.4976C88.6062 15.4976 87.4048 13.5754 85.9413 11.2382L83.2983 6.97883H81.0703H78.8533V16.7536Z" fill="#151596"/>
        <path fill-rule="evenodd" clip-rule="evenodd" d="M144.544 14.6442C146.394 10.309 147.805 7.00391 147.833 6.95651C147.866 6.91283 148.74 6.86914 149.777 6.86914H151.667L155.795 16.5565C156.626 18.5153 157.407 20.3516 158.063 21.8952C159.192 24.5518 159.953 26.3415 159.967 26.3968C160.011 26.506 159.607 26.5278 157.914 26.506L155.795 26.4732L154.91 24.2889L154.015 22.1046L149.712 22.0719L145.409 22.05L144.502 24.2889L143.596 26.5278H141.521C140.352 26.5278 139.478 26.4842 139.511 26.4296C139.544 26.3749 141.422 21.9954 143.672 16.6876C143.971 15.9878 144.263 15.3041 144.544 14.6442ZM152.562 18.5005L151.197 15.1695C150.444 13.3347 149.788 11.7947 149.745 11.7511C149.701 11.7074 149.024 13.1927 148.259 15.0603C147.495 16.9278 146.894 18.4787 146.916 18.5115C146.949 18.5333 148.227 18.5442 149.766 18.5333L152.562 18.5005Z" fill="#151596"/>
        <path fill-rule="evenodd" clip-rule="evenodd" d="M103.317 26.5284V16.7427V6.95703L108.046 7.00072C112.47 7.0444 112.819 7.06625 113.638 7.28468C116.729 8.12563 118.476 10.2007 118.684 13.2587C118.881 16.2731 117.384 18.7413 114.698 19.8662C113.442 20.4014 112.546 20.5325 109.848 20.598L107.358 20.6635V23.5905V26.5284H105.338H103.317ZM114.206 12.1884C113.857 11.5877 113.179 11.0744 112.437 10.8451C112.044 10.714 111.257 10.6485 109.63 10.6157L107.358 10.5611V13.8048V17.0485L109.739 17.0048L112.12 16.972L112.852 16.6116C113.682 16.1966 114.272 15.5413 114.468 14.7987C114.676 14.0451 114.545 12.7673 114.206 12.1884Z" fill="#151596"/>
        <path fill-rule="evenodd" clip-rule="evenodd" d="M122.212 26.528V16.7533V6.97852H126.744C129.256 6.97852 131.757 7.03312 132.347 7.09865C135.492 7.44814 137.556 9.03176 138.212 11.6202C138.31 11.9915 138.375 12.7451 138.375 13.4222C138.375 14.0993 138.31 14.8529 138.212 15.2242C137.775 16.9389 136.694 18.2713 135.066 19.1014C134.498 19.3853 134.149 19.6256 134.193 19.6911C134.236 19.7567 135.208 21.1874 136.366 22.8693C137.513 24.5512 138.539 26.0584 138.649 26.2222L138.834 26.528H136.497H134.16L132.03 23.3608L129.911 20.2045L128.087 20.1935H126.253V23.3608V26.528H124.232H122.212ZM134.171 12.6795C133.843 11.5765 132.893 10.8775 131.462 10.6918C131.036 10.6372 129.682 10.5826 128.47 10.5826H126.253L126.253 10.67V13.6406V16.6004L126.253 16.6987H128.579C131.156 16.6987 132.041 16.6004 132.806 16.2072C134.061 15.5737 134.608 14.1649 134.171 12.6795Z" fill="#151596"/>
    </g>
    <defs>
        <clipPath id="clip0_41_2548">
            <rect width="160" height="32.6553" fill="white" transform="translate(0 0.425781)"/>
        </clipPath>
    </defs>
</svg>
