<svg width="160" height="34" viewBox="0 0 160 34" fill="none" xmlns="http://www.w3.org/2000/svg">
    <g clip-path="url(#clip0_41_2565)">
        <path d="M109.526 12.3472C109.676 12.3337 109.784 12.2117 109.77 12.0626C109.757 11.9135 109.635 11.8051 109.486 11.8186C109.337 11.8322 109.228 11.9542 109.242 12.1032C109.255 12.2388 109.391 12.3472 109.526 12.3472ZM92.7607 3.7949C92.7607 4.21506 93.0995 4.56746 93.5332 4.56746C93.967 4.56746 94.3058 4.22862 94.3058 3.7949C94.3058 3.37474 93.967 3.02235 93.5332 3.02235C93.1131 3.02235 92.7607 3.37474 92.7607 3.7949ZM97.64 5.44844C97.64 5.8686 97.9788 6.22099 98.4125 6.22099C98.8327 6.22099 99.1851 5.88215 99.1851 5.44844C99.1851 5.02828 98.8463 4.67589 98.4125 4.67589C97.9924 4.67589 97.64 5.01472 97.64 5.44844C97.64 5.43489 97.64 5.43489 97.64 5.44844ZM79.2884 25.5213C79.2884 25.9415 79.6273 26.2938 80.061 26.2938C80.4812 26.2938 80.8335 25.955 80.8335 25.5213C80.8335 25.1011 80.4947 24.7487 80.061 24.7487C79.6408 24.7623 79.302 25.1011 79.2884 25.5213ZM83.0834 28.7064C83.0834 29.1265 83.4223 29.4789 83.856 29.4789C84.2762 29.4789 84.6286 29.1401 84.6286 28.7064C84.6286 28.2862 84.2897 27.9338 83.856 27.9338C83.4358 27.9474 83.0834 28.2862 83.0834 28.7064ZM87.9085 30.1973C87.9085 30.6174 88.2474 30.9698 88.6811 30.9698C89.1012 30.9698 89.4536 30.631 89.4536 30.1973C89.4536 29.7771 89.1148 29.4247 88.6811 29.4247C88.2609 29.4247 87.9221 29.7636 87.9085 30.1973ZM92.8691 30.1431C92.8827 30.5632 93.2351 30.9021 93.6552 30.8885C94.0754 30.875 94.4142 30.5226 94.4007 30.1024C94.3871 29.6822 94.0483 29.357 93.6417 29.357C93.2215 29.357 92.8691 29.6958 92.8691 30.116C92.8691 30.116 92.8691 30.1295 92.8691 30.1431ZM97.64 28.6251C97.64 29.0452 97.9924 29.3976 98.4261 29.3841C98.8463 29.3841 99.1986 29.0317 99.1851 28.598C99.1851 28.1778 98.8463 27.839 98.4261 27.839C98.0059 27.839 97.6535 28.1778 97.6535 28.598C97.6535 28.6115 97.6535 28.6115 97.64 28.6251ZM101.435 25.5755C101.435 25.9957 101.774 26.3481 102.208 26.3481C102.628 26.3481 102.98 26.0092 102.98 25.5755C102.98 25.1418 102.641 24.8029 102.208 24.8029C101.787 24.7894 101.449 25.1418 101.435 25.5755C101.435 25.562 101.435 25.562 101.435 25.5755ZM101.394 8.48444C101.394 8.9046 101.747 9.24344 102.167 9.24344C102.587 9.24344 102.926 8.89105 102.926 8.47089C102.926 8.05073 102.587 7.71189 102.153 7.71189C101.733 7.71189 101.394 8.06428 101.394 8.48444ZM96 6.4514C96 5.90926 95.5527 5.47555 95.0106 5.47555C94.4684 5.47555 94.0347 5.92281 94.0347 6.46496C94.0347 7.0071 94.4684 7.44081 95.0106 7.44081C95.5663 7.44081 96 6.99355 96 6.4514ZM99.2935 8.48444C99.2935 7.9423 98.8463 7.50858 98.3041 7.50858C97.762 7.50858 97.3282 7.95585 97.3282 8.49799C97.3282 9.04014 97.762 9.47385 98.3041 9.47385C98.8598 9.4603 99.2935 9.02658 99.2935 8.48444ZM101.869 11.3714C101.869 10.8292 101.435 10.3819 100.879 10.3819C100.337 10.3819 99.8899 10.8157 99.8899 11.3714C99.8899 11.9271 100.324 12.3608 100.879 12.3608C101.421 12.3608 101.855 11.9271 101.869 11.3714C101.869 11.3849 101.869 11.3849 101.869 11.3714ZM94.8208 0.365847C94.8344 0.216758 94.726 0.0947755 94.5904 0.0812219C94.4413 0.0676684 94.3194 0.176097 94.3058 0.325186C94.2923 0.474276 94.4007 0.596258 94.5498 0.609812C94.6853 0.623365 94.8073 0.514936 94.8208 0.365847C94.8208 0.379401 94.8208 0.379401 94.8208 0.365847ZM101.381 2.75128C101.394 2.61574 101.286 2.48021 101.15 2.46665C101.001 2.46665 100.893 2.58863 100.893 2.73772C100.893 2.85971 100.988 2.96813 101.11 2.99524C101.245 3.0088 101.381 2.90037 101.381 2.75128ZM106.545 6.4514C106.558 6.30231 106.45 6.18033 106.301 6.16678C106.165 6.15323 106.03 6.26165 106.016 6.39719C105.989 6.54628 106.084 6.68182 106.219 6.70892C106.368 6.73603 106.504 6.64115 106.531 6.49206C106.545 6.47851 106.545 6.46496 106.545 6.4514ZM97.6129 3.0359C97.6264 2.76483 97.4096 2.52087 97.1385 2.50731C96.8674 2.49376 96.6235 2.71062 96.6099 2.98169C96.5964 3.25276 96.7997 3.48317 97.0707 3.51028C97.3418 3.53738 97.5858 3.33408 97.6129 3.06301C97.6129 3.04946 97.6129 3.0359 97.6129 3.0359ZM102.628 5.52976C102.655 5.25869 102.452 5.01472 102.18 4.98762H102.167C101.896 4.94696 101.638 5.12315 101.598 5.39423C101.557 5.6653 101.733 5.92281 102.004 5.96348C102.018 5.96348 102.031 5.96348 102.045 5.96348H102.086C102.357 5.99058 102.601 5.78728 102.614 5.51621C102.614 5.50265 102.614 5.50265 102.614 5.4891M106.03 9.0808C105.759 9.06724 105.515 9.2841 105.501 9.55517C105.488 9.82625 105.704 10.0702 105.975 10.0838C106.247 10.0973 106.477 9.89401 106.504 9.62294C106.531 9.35187 106.328 9.10791 106.057 9.0808C106.043 9.0808 106.03 9.0808 106.03 9.0808ZM91.1072 1.65344C90.8225 1.65344 90.6057 1.87029 90.6057 2.15492C90.6057 2.43954 90.8225 2.6564 91.1072 2.6564C91.3918 2.6564 91.6086 2.43954 91.6086 2.15492C91.6086 1.8974 91.3918 1.66699 91.1072 1.65344C91.1072 1.66699 91.1072 1.66699 91.1072 1.65344ZM88.6811 3.0359C88.2609 3.0359 87.9085 3.37474 87.9085 3.80846C87.9085 4.22862 88.2474 4.58101 88.6811 4.58101C89.1012 4.58101 89.4536 4.24217 89.4536 3.80846C89.4401 3.3883 89.1012 3.04946 88.6811 3.0359ZM83.8018 4.67589C83.3816 4.67589 83.0292 5.01472 83.0292 5.44844C83.0292 5.8686 83.3681 6.22099 83.8018 6.22099C84.2219 6.22099 84.5743 5.88215 84.5743 5.44844C84.5743 5.02828 84.2355 4.67589 83.8018 4.67589ZM76.6726 16.2777C76.2524 16.2777 75.9 16.6166 75.9 17.0503C75.9 17.4705 76.2389 17.8229 76.6726 17.8229C77.0928 17.8229 77.4452 17.484 77.4452 17.0503C77.4452 16.6437 77.1063 16.2913 76.6726 16.2777ZM77.6214 11.7644C77.2012 11.7644 76.8488 12.1032 76.8488 12.537C76.8488 12.9571 77.1876 13.3095 77.6214 13.3095C78.0415 13.3095 78.3939 12.9707 78.3939 12.537C78.4075 12.1168 78.0686 11.7644 77.6485 11.7509M80.1017 7.71189C79.6815 7.71189 79.3291 8.05073 79.3291 8.48444C79.3291 8.9046 79.6679 9.25699 80.1017 9.25699C80.5218 9.25699 80.8742 8.91816 80.8742 8.48444C80.8607 8.06428 80.5218 7.72544 80.1017 7.71189ZM91.1072 29.2079C91.6493 29.2079 92.0966 28.7741 92.0966 28.232C92.0966 27.6899 91.6629 27.2426 91.1207 27.2426C90.5786 27.2426 90.1313 27.6763 90.1313 28.2185C90.1313 28.7606 90.565 29.1943 91.1072 29.2079ZM91.1072 6.85801C91.6493 6.85801 92.0966 6.4243 92.0966 5.88215C92.0966 5.34001 91.6629 4.89274 91.1207 4.89274C90.5786 4.89274 90.1313 5.32646 90.1313 5.8686C90.1313 6.41074 90.565 6.84446 91.1072 6.85801ZM87.2037 7.42726C87.7459 7.42726 88.1931 6.99355 88.1931 6.4514C88.1931 5.90926 87.7594 5.46199 87.2173 5.46199C86.6751 5.46199 86.2279 5.89571 86.2279 6.43785C86.2143 6.97999 86.648 7.42726 87.2037 7.42726C87.1902 7.42726 87.1902 7.42726 87.2037 7.42726ZM83.8967 9.44674C84.4388 9.44674 84.8861 9.01303 84.8861 8.47089C84.8861 7.92874 84.4523 7.48148 83.9102 7.48148C83.3681 7.48148 82.9208 7.91519 82.9208 8.45733C82.9208 8.99948 83.3545 9.44674 83.8967 9.44674ZM81.2944 12.3608C81.8365 12.3879 82.2973 11.9677 82.3244 11.4256C82.3515 10.8834 81.9314 10.4226 81.3892 10.3955C80.8471 10.3684 80.3863 10.7885 80.3592 11.3307V11.3442C80.3592 11.8864 80.7929 12.3201 81.335 12.3337M80.2643 15.9931C80.8064 15.9931 81.2537 15.5594 81.2537 15.0173C81.2537 14.4751 80.82 14.0279 80.2778 14.0279C79.7357 14.0279 79.2884 14.4616 79.2884 15.0037C79.2884 15.5459 79.7222 15.9796 80.2643 15.9931ZM87.6781 0.609812C87.8272 0.596258 87.9356 0.474276 87.9221 0.325186C87.9085 0.176097 87.7865 0.0676684 87.6374 0.0812219C87.4883 0.0947755 87.3935 0.216758 87.407 0.365847C87.407 0.365847 87.407 0.365847 87.407 0.379401C87.407 0.514937 87.529 0.623365 87.6781 0.609812C87.6646 0.609812 87.6646 0.609812 87.6781 0.609812ZM81.1182 2.99524C81.2673 2.98169 81.3621 2.85971 81.3621 2.72417C81.3486 2.57508 81.2266 2.46665 81.0775 2.48021C80.9284 2.49376 80.8335 2.61574 80.8335 2.75128C80.8471 2.90037 80.9691 2.99524 81.1182 2.99524ZM109.526 23.556C109.676 23.556 109.784 23.434 109.784 23.2985C109.784 23.1494 109.662 23.041 109.526 23.041H109.472C109.323 23.0545 109.228 23.1765 109.228 23.3121C109.242 23.4611 109.364 23.5696 109.513 23.556M106.368 27.9203C106.518 27.9067 106.612 27.7712 106.612 27.6356C106.599 27.4866 106.477 27.3781 106.328 27.3917C106.179 27.4052 106.07 27.5272 106.084 27.6763C106.097 27.8254 106.219 27.9338 106.368 27.9203ZM101.137 31.6068C101.286 31.5933 101.381 31.4713 101.381 31.3358C101.381 31.1867 101.259 31.0783 101.123 31.0647C100.974 31.0647 100.866 31.1867 100.852 31.3222C100.852 31.3358 100.852 31.3629 100.852 31.3764C100.866 31.5255 100.988 31.634 101.137 31.6068C101.137 31.6204 101.137 31.6204 101.137 31.6068ZM94.5904 33.9652C94.7395 33.9516 94.8479 33.8296 94.8344 33.6805C94.8208 33.5315 94.6989 33.423 94.5498 33.4366C94.4007 33.4501 94.2923 33.5721 94.3058 33.7212C94.3194 33.8703 94.4413 33.9787 94.5904 33.9652ZM87.6781 33.9652C87.8272 33.9516 87.9356 33.8296 87.9221 33.6805C87.9085 33.5315 87.7865 33.423 87.6374 33.4366C87.4883 33.4501 87.3799 33.5721 87.3935 33.7212C87.407 33.8703 87.529 33.9787 87.6781 33.9652ZM81.1182 31.5797C81.2673 31.5662 81.3621 31.4442 81.3621 31.3087C81.3486 31.1596 81.2266 31.0512 81.0775 31.0647C80.9284 31.0783 80.8335 31.2002 80.8335 31.3358C80.8471 31.4849 80.9691 31.5933 81.1182 31.5797ZM75.9407 27.8796C76.0898 27.8661 76.1982 27.7441 76.1847 27.595C76.1711 27.4459 76.0491 27.3375 75.9 27.351C75.751 27.3646 75.6425 27.4866 75.6561 27.6356C75.6696 27.7847 75.7916 27.8932 75.9407 27.8796ZM72.7014 23.556C72.8505 23.556 72.9589 23.434 72.9589 23.2985C72.9589 23.1494 72.8369 23.041 72.7014 23.041H72.6472C72.4981 23.0681 72.4168 23.2036 72.4439 23.3527C72.471 23.4747 72.5659 23.5696 72.7014 23.5696M75.9678 6.66826C76.1169 6.65471 76.2253 6.53273 76.2118 6.38364C76.1982 6.23455 76.0762 6.12612 75.9272 6.13967C75.7781 6.15323 75.6696 6.27521 75.6832 6.4243C75.6967 6.57339 75.8187 6.68181 75.9678 6.66826ZM85.13 3.45606C85.4011 3.4154 85.5909 3.17144 85.5637 2.90037C85.5231 2.64285 85.3062 2.4531 85.0487 2.46665C84.7776 2.50731 84.5879 2.75128 84.6286 3.02235C84.6692 3.26631 84.8725 3.45606 85.1165 3.45606M80.1017 5.96348C80.3592 5.94992 80.5625 5.73306 80.5489 5.47555C80.5354 5.21803 80.3185 5.01472 80.061 5.02828C79.8035 5.04183 79.6002 5.25869 79.6137 5.51621C79.6273 5.76017 79.817 5.94992 80.061 5.96348H80.1017ZM75.6967 9.60939C75.6967 9.86691 75.9136 10.0838 76.1711 10.0838H76.2389C76.51 10.0838 76.7404 9.85335 76.7268 9.58228C76.7268 9.31121 76.4964 9.0808 76.2253 9.09435C76.2118 9.09435 76.1847 9.09435 76.1711 9.09435C75.8865 9.10791 75.6696 9.33832 75.6967 9.60939ZM107.995 19.0969C107.724 19.124 107.521 19.368 107.534 19.639C107.561 19.9101 107.805 20.1134 108.076 20.0999C108.347 20.0728 108.551 19.8288 108.537 19.5577C108.51 19.2731 108.266 19.0698 107.995 19.0969ZM106.057 23.9355C105.786 23.9762 105.596 24.2201 105.623 24.4912C105.65 24.7487 105.881 24.9385 106.138 24.9249C106.409 24.8843 106.599 24.6403 106.558 24.3692C106.518 24.1253 106.314 23.9355 106.07 23.9355M102.208 28.0558C101.936 28.0558 101.706 28.2862 101.72 28.5573C101.72 28.8284 101.95 29.0588 102.221 29.0452C102.235 29.0452 102.262 29.0452 102.275 29.0452C102.546 29.0317 102.763 28.8013 102.75 28.5166C102.75 28.2591 102.533 28.0423 102.275 28.0423H102.208M97.0843 30.5632C96.8132 30.5768 96.5964 30.8072 96.6099 31.0918C96.6235 31.3629 96.8539 31.5797 97.1249 31.5662C97.396 31.5526 97.6129 31.3222 97.5993 31.0511C97.5993 31.0511 97.5993 31.024 97.5993 31.0105C97.5858 30.7394 97.3554 30.5226 97.0843 30.5361M91.0529 31.3764C90.7819 31.39 90.565 31.6204 90.5786 31.8915C90.5921 32.1625 90.8225 32.3794 91.0936 32.3658H91.1343C91.4053 32.3252 91.5951 32.0812 91.568 31.8102C91.5273 31.5526 91.3105 31.3764 91.0529 31.3764ZM85.2656 30.7123C84.9945 30.7394 84.7912 30.9834 84.8183 31.2545C84.8454 31.5255 85.0894 31.7288 85.3604 31.7017C85.6315 31.6746 85.8348 31.4442 85.8213 31.1731C85.8077 30.9021 85.5773 30.6852 85.2927 30.6988C85.2791 30.7123 85.2791 30.7123 85.2656 30.7123ZM80.0474 28.0829C79.7764 28.0965 79.5595 28.3269 79.5731 28.598C79.5866 28.869 79.817 29.0859 80.0881 29.0723H80.1288C80.3998 29.0317 80.5896 28.7877 80.5625 28.5166C80.5218 28.2591 80.305 28.0694 80.0474 28.0829ZM76.1576 23.9626C75.8865 24.0033 75.6967 24.2473 75.7238 24.5183C75.751 24.7758 75.9814 24.9656 76.2389 24.952C76.51 24.9114 76.6997 24.6674 76.659 24.3963C76.6184 24.1524 76.4151 23.9626 76.1711 23.9626M74.0161 14.4074C73.745 14.448 73.5553 14.692 73.5824 14.9631C73.6095 15.2206 73.8399 15.4103 74.0974 15.3968C74.3685 15.3561 74.5582 15.1121 74.5176 14.8411C74.4769 14.5971 74.2736 14.4074 74.0296 14.4074M88.2203 27.5814C88.2203 27.0393 87.7865 26.6056 87.2444 26.6056C86.7022 26.6056 86.2685 27.0393 86.2685 27.5814C86.2685 28.1236 86.7022 28.5573 87.2444 28.5573C87.773 28.5573 88.2203 28.1236 88.2203 27.5814ZM94.9699 26.592C94.4278 26.592 93.9805 27.0257 93.9805 27.5679C93.9805 28.11 94.4142 28.5573 94.9564 28.5573C95.4985 28.5573 95.9458 28.1236 95.9458 27.5814C95.9593 27.0393 95.5256 26.6056 94.9699 26.592C94.9835 26.6056 94.9835 26.6056 94.9699 26.592ZM98.3312 24.6539C97.7891 24.6403 97.3418 25.074 97.3282 25.6162C97.3147 26.1583 97.7484 26.6056 98.2906 26.6191C98.8327 26.6327 99.28 26.199 99.2935 25.6568V25.6433C99.3071 25.1011 98.8598 24.6539 98.3177 24.6403C98.3041 24.6403 98.3041 24.6403 98.2906 24.6403M101.855 22.675C101.855 22.1329 101.408 21.6992 100.866 21.6992C100.324 21.6992 99.8899 22.1464 99.8899 22.6886C99.8899 23.2307 100.324 23.6644 100.866 23.6644C101.408 23.6509 101.855 23.2172 101.855 22.675ZM83.9238 24.5996C83.3816 24.5996 82.9344 25.0334 82.9344 25.5755C82.9344 26.1176 83.3681 26.5649 83.9102 26.5649C84.4523 26.5649 84.8996 26.1312 84.8996 25.5891C84.8996 25.0469 84.4659 24.6132 83.9238 24.5996ZM81.335 21.6992C80.7929 21.6992 80.3456 22.1329 80.3456 22.675C80.3456 23.2172 80.7793 23.6644 81.3215 23.6644C81.8636 23.6644 82.3109 23.2307 82.3109 22.6886V22.675C82.3109 22.1329 81.8636 21.6856 81.335 21.6992ZM120.627 13.2553H126.699V21.3468H128.827V13.2553H134.357L134.872 11.8457H121.142L120.627 13.2553ZM71.4409 11.8457H69.313V21.3468H79.0309L79.5595 19.9372H71.4409V11.8457ZM91.2562 11.8457L96.3931 21.2519H98.6701L93.5332 11.8728L91.2562 11.8457ZM83.4901 21.2519H85.767L90.9039 11.8728H88.6269L83.4901 21.2519ZM114.135 18.9071L105.189 11.8864H103.048V21.2655H105.176V14.2041L114.121 21.2655H116.249V11.8728H114.121L114.135 18.9071ZM157.222 15.8576H150.689C150.038 15.9118 149.455 15.4374 149.401 14.7869C149.401 14.7462 149.401 14.7191 149.401 14.6784V14.4209C149.415 13.7703 149.943 13.2689 150.58 13.2689C150.58 13.2689 150.58 13.2689 150.594 13.2689H159.485L160 11.8593H150.038C148.249 11.8593 147.327 13.0655 147.314 14.2718V14.8953C147.314 16.1151 148.249 17.3756 150.092 17.3756H156.625C157.276 17.3214 157.859 17.7957 157.913 18.4463C157.913 18.4734 157.913 18.5005 157.913 18.5412V18.7987C157.899 19.4493 157.371 19.9643 156.72 19.9508H147.829L147.314 21.3603H157.276C159.065 21.3603 159.986 20.1541 160 18.9478V18.3243C160 17.1045 159.065 15.844 157.222 15.844M9.92122 15.844H3.37484C2.72427 15.8982 2.14147 15.4239 2.08725 14.7733C2.08725 14.7462 2.08725 14.7191 2.08725 14.6784V14.4209C2.1008 13.7703 2.62939 13.2689 3.26641 13.2689H12.1711L12.7133 11.8593H2.72427C0.935197 11.8999 0.0135536 13.0927 0 14.2989V14.9224C0 16.1422 0.935197 17.4027 2.77848 17.4027H9.31131C9.96188 17.3485 10.5447 17.8229 10.5989 18.4734C10.5989 18.5005 10.5989 18.5276 10.5989 18.5683V18.8258C10.5853 19.4764 10.0568 19.9914 9.40618 19.9779H0.515036L0 21.3739H9.96188C11.751 21.3739 12.6726 20.1676 12.6861 18.9614V18.3108C12.6861 17.091 11.751 15.8305 9.90767 15.8305M139.371 21.2519H141.499V11.8728H139.371V21.2519ZM17.335 13.2553H23.3935V21.3468H25.5214V13.2553H31.0513L31.5663 11.8457H17.8501L17.335 13.2553ZM46.5023 13.2553L47.0174 11.8457H36.2287V21.3468H46.5159L47.0309 19.9372H38.3702V17.2672H44.4286L44.9437 15.8847H38.3566V13.2553H46.5023ZM55.5697 19.9508H63.6883L63.1597 21.3603H53.4418V11.8728H55.5697V19.9508Z" fill="#243882"/>
    </g>
    <defs>
        <clipPath id="clip0_41_2565">
            <rect width="160" height="33.8839" fill="white" transform="translate(0 0.0810547)"/>
        </clipPath>
    </defs>
</svg>
