<svg width="56" height="41" viewBox="0 0 56 41" fill="none" xmlns="http://www.w3.org/2000/svg">
    <g clip-path="url(#clip0_41_2567)">
        <mask id="mask0_41_2567" style="mask-type:luminance" maskUnits="userSpaceOnUse" x="-97" y="-177" width="162" height="228">
            <path d="M-96.22 -176.542H64.5768V50.8701H-96.22V-176.542Z" fill="white"/>
        </mask>
        <g mask="url(#mask0_41_2567)">
            <path d="M15.7783 16.6635L16.8308 16.8729C17.1703 17.765 17.2602 18.7838 17.0968 19.8102L17.5176 19.8684L18.0323 19.9394L23.1761 20.6497C23.2093 20.7212 23.243 20.7967 23.2762 20.8749C23.3344 21.0117 23.2716 21.169 23.1388 21.2364C22.7727 21.4223 22.4755 21.6036 22.2937 21.7772C22.2835 21.7869 22.2947 21.8027 22.3075 21.7976C22.5899 21.6853 22.9003 21.5842 23.2307 21.4953C23.3747 21.4565 23.5244 21.5377 23.5688 21.6802C23.5698 21.6842 23.5713 21.6878 23.5724 21.6919C23.6168 21.8359 23.5422 21.9876 23.4059 22.0504C22.8273 22.3164 22.357 22.5942 22.0925 22.845C22.0756 22.8613 22.0945 22.8884 22.116 22.8792C22.5337 22.6969 23.0086 22.5365 23.5187 22.4002C23.6444 22.367 23.772 22.4451 23.7986 22.5723C23.8261 22.7071 23.7511 22.8414 23.6249 22.897C22.8625 23.2351 22.2293 23.5971 21.8913 23.9153C21.8668 23.9383 21.8944 23.9771 21.925 23.9628C22.4505 23.7222 23.0586 23.5083 23.7138 23.3285C23.8215 23.2989 23.9318 23.3694 23.9446 23.4802C23.9589 23.6038 23.89 23.7228 23.7756 23.7728C22.8631 24.1732 22.0915 24.6082 21.6906 24.9841C21.6584 25.0137 21.6942 25.0642 21.7335 25.0453C22.3407 24.7584 23.0489 24.4954 23.8118 24.2748C23.9078 24.2472 24.0049 24.3166 24.0064 24.4167C24.009 24.5342 23.9385 24.6409 23.8313 24.6884C22.811 25.1398 21.9403 25.6331 21.4894 26.0529C21.4501 26.0891 21.494 26.1514 21.5425 26.1279C23.1112 25.3655 25.3055 24.7098 27.4181 24.5127L27.3864 24.8978C27.321 24.9034 27.2552 24.9085 27.1893 24.9146C25.0287 25.1061 23.0607 25.6229 21.4623 26.4154C21.472 26.4634 21.4818 26.5119 21.4909 26.5609C21.5466 26.8495 21.5936 27.1482 21.6293 27.4561C22.454 27.2585 23.3017 27.1293 24.1233 27.0976L24.1239 27.0956L24.2362 25.6847C24.4777 25.6219 24.7239 25.5647 24.9736 25.5116L24.9087 26.6922C25.4679 26.4088 26.0189 26.1458 26.5346 25.9272C26.8533 25.7919 27.1923 25.653 27.5472 25.5141L27.629 24.4944L27.6647 24.046L27.6652 24.0404C27.896 23.998 28.1401 23.9582 28.3959 23.9224L28.3704 24.3825L28.3668 24.4484L28.3454 24.8401L28.3245 25.222C28.7095 25.0836 29.1103 24.9488 29.524 24.8232C29.2028 24.8196 28.878 24.8227 28.5532 24.8329L28.5742 24.4377C29.4494 24.3932 30.3094 24.3698 31.1432 24.4004C32.0445 24.2058 32.9836 24.0751 33.9385 24.0496L36.2702 21.4223C36.2845 21.4065 36.311 21.4162 36.311 21.4376V22.3001C36.311 22.3399 36.3013 22.3798 36.2819 22.4145C36.0296 22.8628 35.4557 23.6068 34.7551 24.647C33.8308 26.0176 33.7128 27.0226 33.699 28.2696C33.7721 28.2686 33.8441 28.2614 33.9145 28.2476C33.9636 28.2379 34.0095 28.2231 34.0524 28.2042C34.0769 26.4512 34.297 25.7608 35.7759 23.6988C36.3125 22.9507 36.5428 22.6422 36.6516 22.4793C36.6991 22.4078 36.7083 22.3328 36.7083 22.2541L36.7124 21.6444C36.7124 21.6046 36.7257 21.5658 36.7497 21.5346L39.9346 17.4173C39.9775 17.3682 39.9545 17.3003 39.9116 17.2625C39.8692 17.2247 39.7977 17.2099 39.7553 17.259L36.1844 21.3002C36.1486 21.337 36.0828 21.3779 36.022 21.3697C35.448 21.2941 34.8291 21.3528 34.6912 21.3712C34.6826 21.3722 34.679 21.385 34.6871 21.3865C35.0252 21.4596 35.3918 21.5658 35.6972 21.6842C35.7529 21.7062 35.7524 21.7859 35.7125 21.8303C35.6594 21.8885 35.5971 21.9094 35.519 21.9038C34.778 21.8533 34.201 21.9314 34.0218 21.9605C34.01 21.962 34.0121 21.9789 34.0238 21.9809C34.417 22.0514 34.8342 22.1387 35.2177 22.2597C35.2729 22.2771 35.2729 22.3338 35.2346 22.3736C35.1876 22.4226 35.1513 22.4461 35.0645 22.4431C34.2414 22.415 33.5719 22.5095 33.3452 22.5503C33.3288 22.5534 33.3298 22.5774 33.3467 22.5799C33.7859 22.6458 34.2475 22.7255 34.7081 22.8363C34.752 22.8465 34.7694 22.8991 34.7413 22.9338L34.7357 22.9404C34.7076 22.9696 34.6688 22.9859 34.6284 22.9849C33.7251 22.9655 32.9928 23.0829 32.7017 23.1386C32.6757 23.1437 32.6793 23.1825 32.7053 23.184C33.1623 23.2177 33.625 23.2616 34.0973 23.399C34.2434 23.4409 34.151 23.5742 34.103 23.6273C33.9998 23.7427 33.8206 23.6982 33.6996 23.6799C32.6532 23.5129 31.418 23.4511 30.4074 23.4511C27.9747 23.4511 25.4878 24.2467 25.1324 24.3983C24.3276 20.4398 22.3417 18.842 22.2059 18.7368C22.1977 18.7301 22.1885 18.723 22.1798 18.7169L21.8995 18.6729L19.3743 18.2777C19.3028 18.2665 19.2359 18.316 19.2247 18.3875C19.2134 18.459 19.2625 18.5264 19.334 18.5376L19.5306 18.5683C19.2666 18.7572 18.9796 18.9421 18.688 19.1182C18.665 19.132 18.6814 19.1678 18.7064 19.1581C19.2002 18.9752 19.743 18.8164 20.2639 18.6832L20.966 18.7924C19.9452 18.9987 18.9704 19.2816 18.0956 19.6258C18.5613 19.0166 18.9372 18.173 19.12 17.2932C19.3717 16.084 19.2446 14.9544 18.7636 14.0812L17.5993 13.8269C17.5206 13.8095 17.443 13.8591 17.4257 13.9382C17.4083 14.0168 17.4583 14.0945 17.537 14.1118L18.1773 14.2517C17.9026 15.1587 17.3516 15.9098 16.771 16.5635L15.835 16.3776C15.7563 16.3617 15.6792 16.4128 15.6634 16.492C15.6481 16.5711 15.6992 16.6477 15.7783 16.6635ZM18.9203 19.7213C19.8528 19.4798 20.9389 19.2413 22.1047 19.1106C22.3008 19.2765 22.4872 19.4614 22.6624 19.6641C21.4996 19.5671 20.1724 19.6891 19.2385 19.7882C19.2288 19.7892 19.1711 19.7897 19.1506 19.7887C19.0837 19.7862 18.9796 19.7826 18.9254 19.7811C18.7881 19.777 18.8345 19.7438 18.9203 19.7213ZM18.2677 18.8655C18.2631 18.8747 18.258 18.8838 18.2529 18.8925C18.2259 18.941 18.1789 18.9747 18.1247 18.9865L17.5217 19.1131C17.4788 19.1223 17.4379 19.0891 17.4394 19.0452C17.442 18.9773 17.443 18.9094 17.4435 18.842C17.4435 18.7909 17.4788 18.7465 17.5288 18.7358L18.1901 18.5969C18.2366 18.5872 18.2815 18.6183 18.2887 18.6653L18.2943 18.7046C18.3024 18.7598 18.2943 18.8164 18.2677 18.8655ZM18.5603 17.9238L17.4946 18.15C17.4486 18.1603 17.4047 18.1276 17.3991 18.0811C17.3945 18.0413 17.3889 18.0014 17.3833 17.9621C17.3766 17.9131 17.4078 17.8677 17.4563 17.8574L18.5118 17.6328C18.5583 17.623 18.6037 17.6537 18.6114 17.7012L18.6313 17.8191C18.6395 17.8677 18.6083 17.9136 18.5603 17.9238ZM17.7826 15.6933C17.85 15.5902 17.9098 15.4926 17.9634 15.4002C18.018 15.3047 18.1135 15.2388 18.2228 15.225L18.4316 15.199C18.5241 15.1873 18.6053 15.2608 18.6007 15.3542C18.5986 15.3849 18.5971 15.4165 18.595 15.4477C18.5874 15.5524 18.5108 15.6397 18.4082 15.6642L17.8567 15.7959C17.7969 15.8102 17.7489 15.7449 17.7826 15.6933ZM18.974 16.3377C18.9642 16.5502 18.9413 16.7672 18.905 16.9883L17.4103 16.6906C17.9205 16.5446 18.4398 16.4271 18.974 16.3377ZM17.2229 16.951L18.1748 17.1405C18.1942 17.1441 18.1942 17.1716 18.1753 17.1757L17.3521 17.3499C17.3046 17.3596 17.2571 17.3315 17.2449 17.285C17.2204 17.1946 17.1938 17.1058 17.1652 17.0174C17.153 16.9801 17.1846 16.9434 17.2229 16.951ZM11.1865 31.9289C11.1421 31.9248 11.136 31.9029 11.1375 31.885C11.1391 31.8676 11.1692 31.8523 11.1988 31.8503C11.4536 31.8309 12.1267 31.8212 14.2453 32.1796C15.9545 32.4687 16.7664 32.0703 16.8869 32.0336C17.0069 31.9973 17.1341 32.0331 17.1765 32.1352C17.2224 32.2455 17.201 32.3813 16.962 32.4784C16.2721 32.7582 15.2472 32.7296 14.0048 32.4538C12.8686 32.2026 12.073 32.0086 11.1865 31.9289ZM25.5077 23.7253C25.8284 23.5006 26.8543 22.8863 28.8811 22.5539C28.9541 22.5421 29.0205 22.5983 29.0205 22.6724C29.02 22.7612 29.0174 22.8521 29.0133 22.9461C29.0097 23.0257 28.9474 23.0911 28.8673 23.0977C27.2434 23.2361 25.9351 23.6314 25.5271 23.7657C25.5026 23.7733 25.4868 23.7401 25.5077 23.7253ZM32.5756 21.6654C32.4878 21.6557 32.401 21.6465 32.3182 21.6383C31.8597 21.5923 31.4256 21.5362 31.0151 21.5213C31.0018 21.5208 30.9977 21.5019 31.011 21.4984C31.2096 21.4402 31.8107 21.2905 32.6006 21.3099C32.6343 21.3104 32.6619 21.338 32.6604 21.3717C32.6558 21.4504 32.6502 21.53 32.6425 21.6102C32.64 21.6439 32.6093 21.6694 32.5756 21.6654ZM26.3248 22.6213C26.5745 22.4538 27.3787 21.9911 28.8489 21.7103C28.8959 21.7011 28.9403 21.7333 28.949 21.7808C28.9648 21.8747 28.9791 21.9717 28.9898 22.0723C28.9949 22.1203 28.9572 22.1612 28.9086 22.1658C27.6724 22.2797 26.6975 22.5452 26.3396 22.6524C26.3207 22.6581 26.3084 22.6325 26.3248 22.6213ZM32.6655 20.9841C32.666 21.0061 32.6461 21.024 32.6246 21.0184C32.5889 21.0097 32.5542 21.002 32.5225 20.9959C32.1329 20.9239 31.7576 20.8585 31.3991 20.8151C31.3899 20.8136 31.3873 20.8013 31.396 20.7993C31.5324 20.7666 31.9965 20.6706 32.6037 20.7196C32.6287 20.7217 32.6497 20.7411 32.6517 20.7666C32.6588 20.8361 32.6629 20.9091 32.6655 20.9841ZM32.4362 22.3864C32.2319 22.3675 32.0267 22.3522 31.8311 22.3394C31.3051 22.3062 30.8103 22.2792 30.3487 22.2873C30.3308 22.2873 30.3252 22.2623 30.3425 22.2567C30.6198 22.1694 31.4415 21.9472 32.5118 21.9687C32.5588 21.9697 32.5935 22.0126 32.5858 22.0591C32.5725 22.1433 32.5577 22.2266 32.5414 22.3077C32.5317 22.3573 32.4862 22.3915 32.4362 22.3864ZM26.8655 21.6577C27.0504 21.5413 27.6616 21.2083 28.6681 20.9882C28.7028 20.9806 28.7381 20.999 28.7503 21.0327C28.7815 21.1184 28.8106 21.2073 28.8371 21.2987C28.8458 21.3288 28.8249 21.359 28.7937 21.3615C27.8904 21.4396 27.1918 21.5985 26.8757 21.6797C26.8625 21.6832 26.8543 21.6654 26.8655 21.6577ZM27.1576 20.8442C27.15 20.8458 27.1459 20.8355 27.1525 20.832C27.2832 20.7615 27.7546 20.5225 28.4067 20.3678C28.4322 20.3617 28.4588 20.3739 28.47 20.3969C28.5108 20.4766 28.5502 20.5567 28.588 20.6389C28.5971 20.6589 28.5823 20.6808 28.5604 20.6824C27.9256 20.7201 27.4472 20.7911 27.1576 20.8442ZM32.3223 22.6484C32.3948 22.6514 32.4459 22.7214 32.4255 22.7913C32.402 22.873 32.377 22.9496 32.3519 23.0201C32.3234 23.0977 32.2452 23.1447 32.163 23.1365C31.7729 23.0967 31.3725 23.0691 30.9921 23.0538C30.3992 23.0303 29.8436 23.0375 29.3309 23.0656C29.308 23.0666 29.3013 23.0349 29.3233 23.0278C29.7012 22.9042 30.8506 22.5784 32.3223 22.6484ZM35.3607 32.8087C35.1763 32.7516 33.6056 32.3129 32.3162 31.6823C31.0263 31.0521 30.7878 30.8249 30.7148 30.7554C30.6219 30.6666 30.4099 30.4327 30.5923 30.2432C30.7664 30.0625 30.9885 30.1968 31.0804 30.2642C31.13 30.3004 31.4884 30.6267 32.2682 31.1165C33.5341 31.9115 35.1927 32.579 35.4153 32.6607C35.4914 32.6887 35.593 32.7413 35.5747 32.798C35.5563 32.8552 35.495 32.8542 35.3607 32.8087ZM25.3709 5.30924C25.7176 5.22549 26.121 5.15962 26.5648 5.13766C26.8053 5.12592 27.058 5.12695 27.32 5.14482C27.5432 5.16014 27.7724 5.18771 28.0073 5.22958C28.0497 5.23724 28.0737 5.2832 28.0523 5.31997C28.014 5.38482 27.9731 5.45018 27.9297 5.51606C27.9006 5.55997 27.8465 5.5804 27.7949 5.5707C27.3889 5.49104 26.9641 5.42822 26.5551 5.38635C26.1312 5.34295 25.7242 5.32201 25.3719 5.32865C25.3601 5.32865 25.3591 5.31179 25.3709 5.30924ZM23.099 31.9866C23.1618 32.0913 23.03 32.1776 22.9473 32.2154C22.8263 32.2721 22.1568 32.5805 21.3592 32.5805C20.8128 32.5805 20.2889 32.483 19.7614 32.3461C19.4877 32.2751 19.025 32.1245 18.519 32.0576C18.4577 32.0494 18.2836 32.0494 18.2836 31.9938C18.2836 31.9514 18.4148 31.9549 18.4945 31.9595C18.6859 31.9713 18.8861 31.9912 19.1047 32.0315C19.4126 32.0892 20.3134 32.2424 20.9737 32.2639C21.758 32.2889 22.4836 32.0816 22.7676 31.9789C22.8753 31.9396 23.0362 31.8814 23.099 31.9866ZM27.1862 31.5434C27.4977 31.3177 27.7301 30.7728 27.4788 30.3454C27.3649 30.1529 27.0872 29.9644 26.7522 29.9644C26.5505 29.9644 26.4728 30.0027 26.4162 30.0232C26.3641 30.0415 26.3488 30.0436 26.3248 30.0323C26.3008 30.0216 26.3028 29.969 26.3064 29.943C26.3191 29.8465 26.3911 29.7535 26.4499 29.6846C26.527 29.5932 26.7951 29.3639 27.2434 29.3675C27.6912 29.3716 28.5032 29.6203 28.9817 29.6203C29.1696 29.6203 29.4224 29.5697 29.5858 29.4288C29.8396 29.2092 29.9376 28.8349 29.7032 28.5918C29.5842 28.4682 29.4285 28.4279 29.2835 28.4463C29.1124 28.4677 28.9551 28.5525 28.829 28.5412C28.7253 28.5321 28.6217 28.457 28.5588 28.3768C28.5129 28.3191 28.4526 28.1889 28.3142 28.121C27.6841 28.2951 27.0647 28.4917 26.4565 28.7031C24.2709 29.4635 21.4904 30.686 20.4273 31.1772C20.3956 31.192 20.2296 31.2656 20.2056 31.2252C20.1898 31.1992 20.2159 31.1583 20.3869 31.0746C22.1716 30.2029 25.041 28.8558 26.6628 28.2915C26.9891 28.1782 27.3129 28.072 27.6356 27.9719C27.6131 27.7957 27.32 27.7794 27.1811 27.8192C27.0872 27.8457 26.9391 27.8769 26.8803 27.7697C26.84 27.6961 26.8722 27.6098 26.9391 27.5674C27.0744 27.4832 27.3384 27.4765 27.4798 27.5455C27.5912 27.6006 27.6647 27.6823 27.7888 27.7145C27.9088 27.7457 28.0022 27.7303 28.1039 27.6609C28.1508 27.6277 28.1886 27.5945 28.2177 27.5455C28.2346 27.5159 28.2724 27.4577 28.3607 27.4577C28.4271 27.4577 28.4705 27.5041 28.4919 27.5628C28.5062 27.6022 28.5195 27.6614 28.544 27.7089C28.9776 27.592 29.4116 27.4883 29.8498 27.3979C29.8355 27.3668 29.7905 27.3356 29.6818 27.3162C29.4566 27.2759 29.4535 27.137 29.4627 27.0951C29.4709 27.0578 29.5148 26.9572 29.7379 26.9684C29.9611 26.9792 30.0877 27.1165 30.1255 27.1753C30.1516 27.2166 30.1694 27.2534 30.1899 27.3188C30.1904 27.3208 30.1919 27.3249 30.1934 27.3295C30.438 27.283 30.6847 27.2411 30.9334 27.2028C30.8782 27.1196 30.7434 26.9194 30.7097 26.8704C30.5488 26.6406 30.2511 26.7611 30.1403 26.6018C30.1082 26.5553 30.0954 26.443 30.1659 26.3526C28.9653 26.6059 27.8036 26.9598 26.6587 27.404C24.4256 28.2706 19.3595 30.7978 19.1997 30.8744C19.1144 30.9158 19.0807 30.9096 19.0694 30.8897C19.0551 30.8637 19.0725 30.8341 19.1128 30.8126C20.1066 30.2764 24.6177 27.8519 26.8507 26.9858C29.0261 26.1417 31.1034 25.605 33.5183 25.4319C33.5898 25.4268 33.6025 25.3885 33.6092 25.3466C33.6618 25.0004 33.7195 24.7104 33.7562 24.5383C33.7741 24.454 33.7067 24.3754 33.6204 24.382C30.9926 24.5944 28.493 25.3992 26.5464 26.2239C24.4297 27.1206 21.6237 28.7802 20.2021 29.5242C19.2293 30.0329 18.3954 30.469 17.9435 30.6998C18.0333 30.04 18.0696 29.4165 18.0517 28.8221C18.9157 28.3416 19.9769 27.907 21.1028 27.593C21.1417 27.9606 21.1641 28.3406 21.1662 28.7317C21.2525 28.6837 21.3413 28.6347 21.4317 28.5836C21.4256 28.2201 21.4016 27.8657 21.3638 27.5225C21.3653 27.5225 21.3663 27.522 21.3674 27.5215C21.3352 27.235 21.2933 26.9562 21.2428 26.6866C21.2428 26.6871 21.2423 26.6871 21.2423 26.6871C21.0079 25.3972 20.6009 24.3059 20.2312 23.5236C19.5714 22.128 18.7917 21.1333 17.7596 20.1227L15.668 19.8342C15.5883 19.8229 15.5148 19.8786 15.5036 19.9588C15.4929 20.0384 15.5485 20.112 15.6282 20.1232L16.9967 20.3121C16.9763 20.3979 16.9543 20.4837 16.9298 20.569C16.6107 21.7021 15.9606 22.7735 15.2207 23.4056L14.35 23.3158C14.2693 23.3071 14.1978 23.3653 14.1897 23.4455C14.1815 23.5257 14.2397 23.5977 14.3199 23.6058L15.7533 23.7544C17.4589 25.674 18.063 27.9019 17.6529 30.7559C17.2245 30.6354 16.9742 30.5971 16.7179 30.5644C16.604 30.5501 16.4345 30.5609 16.4059 30.6211C16.3773 30.6814 16.4381 30.8397 16.4462 30.9142C16.5111 31.4887 14.9802 31.5623 13.774 31.4468C12.2002 31.2962 11.3208 31.1936 11.0221 31.215C10.9665 31.2191 10.9557 31.2497 10.9557 31.2651C10.9557 31.2804 10.969 31.3054 11.0191 31.3085C11.5583 31.3411 12.6552 31.5214 14.2183 31.7609C15.4096 31.9432 16.2711 31.8191 16.6173 31.6123C16.7771 31.5168 16.9135 31.2615 16.7715 31.0281C16.7322 30.9638 16.6745 30.8775 16.7 30.83C16.724 30.785 16.7756 30.7728 16.889 30.7917C17.1045 30.8279 17.4052 30.905 17.7545 31.0097C17.7795 31.0174 17.8051 31.025 17.8306 31.0332C17.8439 31.0373 17.8572 31.0414 17.8704 31.0455C17.8919 31.0521 17.9133 31.0588 17.9353 31.0654C17.9511 31.0705 17.967 31.0751 17.9828 31.0802C18.0017 31.0863 18.0211 31.0925 18.0405 31.0986C18.0584 31.1042 18.0762 31.1103 18.0946 31.1159C18.1104 31.1211 18.1268 31.1267 18.1426 31.1318C18.1615 31.1379 18.1809 31.144 18.2003 31.1507C18.8642 31.3687 19.6306 31.6246 20.2843 31.7318C21.5966 31.9473 22.2125 31.8492 22.5092 31.6971C22.6644 31.6174 22.7323 31.5224 22.7671 31.4499C22.8166 31.3452 22.7604 31.2456 22.6772 31.1711C22.6435 31.141 22.5873 31.1098 22.5873 31.0598C22.5873 30.9576 23.1623 30.8918 23.5192 30.8918C23.8221 30.8918 24.2214 30.9193 24.7514 30.9919C25.999 31.1614 26.4968 31.0914 26.9054 30.7733C26.9661 30.7258 27.0356 30.6865 27.0672 30.7146C27.1009 30.7442 27.0601 30.83 27.0269 30.8872C26.9023 31.1032 26.5913 31.5388 25.8141 31.5388C25.5026 31.5388 25.3943 31.4882 25.2039 31.4458C25.1773 31.4397 25.1094 31.4305 25.1002 31.4591C25.091 31.4882 25.1268 31.5224 25.1799 31.5546C25.4194 31.7011 25.809 31.8109 26.289 31.8109C26.5224 31.8109 26.9084 31.7446 27.1862 31.5434ZM16.961 21.315C17.0034 21.2129 17.0442 21.1062 17.0815 20.9938C17.1085 20.9121 17.176 20.8483 17.2602 20.8309L17.8893 20.6987C17.967 20.6824 18.0451 20.7273 18.0696 20.8029L18.0742 20.8161C18.0987 20.8912 18.0609 20.9724 17.9879 21.002L17.0365 21.3901C16.9891 21.409 16.9416 21.362 16.961 21.315ZM16.1026 22.8603C16.2328 22.6958 16.3717 22.4839 16.4753 22.3083C16.5203 22.2317 16.5928 22.174 16.6781 22.1494L18.2887 21.6883C18.3653 21.6664 18.4459 21.7062 18.4761 21.7797L18.4796 21.7894C18.5088 21.8614 18.4745 21.9431 18.403 21.9728L16.1414 22.9139C16.1087 22.9277 16.0806 22.8878 16.1026 22.8603ZM19.7884 23.2264C19.8574 23.3617 19.9243 23.4981 19.9886 23.6365C20.03 23.7248 20.0713 23.8172 20.1132 23.9132L15.9989 23.4868C17.2837 23.255 18.5879 23.1963 19.7884 23.2264ZM16.4105 24.116C16.3559 24.0445 16.3002 23.974 16.243 23.903C16.2108 23.8637 16.2435 23.805 16.2941 23.8106L17.1943 23.9035C17.2286 23.9071 17.2347 23.9546 17.2025 23.9668L16.6265 24.1798C16.5484 24.2084 16.461 24.1818 16.4105 24.116ZM16.9635 24.935C16.9288 24.8763 16.8931 24.8181 16.8568 24.7599C16.8195 24.7001 16.8481 24.6215 16.9155 24.6026L18.8974 24.046C18.9709 24.0251 19.048 24.0685 19.0643 24.143C19.0654 24.1481 19.0659 24.1527 19.0669 24.1573C19.0837 24.236 19.0378 24.3141 18.9622 24.3422L17.1647 25.0076C17.0891 25.0356 17.0044 25.0045 16.9635 24.935ZM17.4129 25.822C17.3894 25.7669 17.3649 25.7117 17.3404 25.6571C17.3097 25.5897 17.3434 25.5105 17.4144 25.4886L19.1042 24.9641C19.1716 24.9432 19.2405 24.9927 19.241 25.0637C19.241 25.0704 19.2415 25.077 19.2415 25.0836C19.242 25.1684 19.1894 25.245 19.1108 25.2772L17.5967 25.8986C17.5247 25.9283 17.4435 25.8935 17.4129 25.822ZM17.922 26.8908C17.8561 26.921 17.7785 26.8852 17.7596 26.8153C17.7372 26.7335 17.7137 26.6529 17.6886 26.5727C17.6662 26.4992 17.7065 26.421 17.7801 26.3981L19.0434 25.9997C19.1047 25.9803 19.1649 26.0314 19.1532 26.0942C19.1466 26.132 19.1394 26.1698 19.1312 26.2071C19.1128 26.2939 19.0536 26.3669 18.9729 26.4042L17.922 26.8908ZM18.0487 27.4617L18.6727 27.2335C18.7191 27.2166 18.7646 27.2646 18.7406 27.3085C18.5762 27.6124 18.3699 27.8749 18.1196 28.0725C18.0711 28.1108 18.0007 28.0781 17.993 28.0163C17.9782 27.8922 17.9608 27.7691 17.9404 27.6471C17.9276 27.568 17.9731 27.4898 18.0487 27.4617ZM33.7404 32.773C33.7047 32.7628 33.6408 32.7408 33.6117 32.7168C33.5928 32.7005 33.5836 32.6704 33.5949 32.6479C33.6036 32.63 33.6245 32.6142 33.6551 32.6198C33.6766 32.6244 33.7348 32.6494 33.7991 32.6719C33.8563 32.6918 33.9186 32.7015 33.9554 32.7209C33.984 32.7362 34.0151 32.7689 34.0008 32.8057C33.9865 32.8425 33.938 32.8445 33.9043 32.8363C33.8425 32.8205 33.7976 32.7893 33.7404 32.773ZM23.052 32.6489C23.1603 32.6096 23.3844 32.4988 23.4544 32.5994C23.5249 32.6995 23.2323 32.8506 23.15 32.8889C23.029 32.9451 22.4101 33.2719 21.4603 33.2719C20.4017 33.2719 19.2032 32.7735 18.6849 32.6157C18.6405 32.6019 18.6328 32.5851 18.6328 32.5672C18.6328 32.5483 18.6625 32.535 18.7084 32.5417C19.2507 32.6239 20.3818 32.9619 21.1136 32.9619C22.1767 32.9619 22.7681 32.7516 23.052 32.6489ZM29.1614 30.2269C29.2482 30.2836 29.3095 30.3837 29.2344 30.4986C29.1599 30.6135 29.0435 30.5976 28.9566 30.5415C28.8698 30.4848 28.8091 30.3444 28.8652 30.2575C28.9219 30.1707 29.0751 30.1702 29.1614 30.2269ZM17.5089 11.5683L18.1763 11.7276C18.3831 12.4788 18.4025 13.1498 18.2963 13.7549L21.0508 14.3569C21.0548 14.3723 21.0615 14.3866 21.0702 14.4009C21.1274 14.4948 21.1912 14.6199 21.2458 14.7736C21.2586 14.8109 21.2397 14.8512 21.2029 14.865C20.9716 14.9508 20.75 15.0581 20.6652 15.1438C20.6576 15.1515 20.656 15.1704 20.6749 15.1678C20.7908 15.151 21.0232 15.1204 21.2596 15.0933C21.2989 15.0887 21.3357 15.1147 21.3418 15.1535C21.3531 15.223 21.3612 15.296 21.3658 15.3726C21.3684 15.414 21.3439 15.4528 21.3051 15.4676C20.9083 15.6167 20.5896 15.7965 20.4354 15.941C20.4191 15.9563 20.4339 15.9721 20.4441 15.9696C20.6279 15.9226 20.942 15.8618 21.2846 15.8153C21.3194 15.8108 21.35 15.8393 21.3449 15.8736C21.3367 15.9328 21.326 15.9936 21.3127 16.0559C21.3035 16.0988 21.2729 16.1345 21.2326 16.1524C20.6417 16.4159 20.198 16.7335 19.9855 16.9653C19.9605 16.9924 19.9855 17.0052 19.9973 16.9995C20.247 16.8933 20.6279 16.7595 21.061 16.6503C21.0901 16.6426 21.1146 16.6717 21.1028 16.6993C21.0579 16.8004 21.0074 16.9046 20.9491 17.0113C20.9277 17.0506 20.893 17.0812 20.8526 17.1001C20.2388 17.3902 19.7889 17.7257 19.5229 17.9866C19.4943 18.0147 19.5168 18.03 19.5372 18.0208C19.7808 17.9136 20.0907 17.8008 20.4436 17.7017C20.4656 17.6956 20.4799 17.7226 20.4656 17.7405C20.3491 17.883 20.2041 18.0275 20.0387 18.171L36.3759 20.7155L36.6695 20.3836L35.7084 19.3062L34.8 18.2884C34.7709 18.2557 34.774 18.2057 34.8066 18.1766C34.8388 18.1475 34.8889 18.1505 34.918 18.1827L35.711 19.0718C35.712 18.8267 35.7054 18.5555 35.6885 18.2644C36.3565 18.4033 37.0356 18.6214 37.6331 18.9768L37.7756 19.1315L37.9538 18.9298L35.4 16.1611C36.5199 16.1794 37.6688 16.5992 39.0925 17.4755L39.1666 17.5572L39.3448 17.3555L29.6537 6.64153C29.6246 6.60936 29.6271 6.55931 29.6598 6.53021C29.692 6.50059 29.742 6.50314 29.7711 6.53583L30.1265 6.92801C31.3991 7.37176 32.6139 7.959 33.746 8.66677L30.9022 7.7859L31.2852 8.20922L34.0769 9.07375C34.1362 9.20652 34.1872 9.34031 34.2311 9.4741C34.2163 9.53794 34.1974 9.59717 34.1331 9.58747C33.792 9.53691 33.4279 9.5461 33.2675 9.55989C33.2476 9.56142 33.2461 9.58747 33.264 9.59411C33.459 9.66713 33.9615 9.86424 34.3011 10.0731C34.3588 10.1083 34.3971 10.1676 34.4078 10.2334C34.4083 10.236 34.4083 10.238 34.4088 10.2406C34.415 10.2911 34.367 10.3305 34.3174 10.3192C33.8701 10.2166 33.4024 10.1691 33.0495 10.1594L33.315 10.4535C33.7302 10.644 34.1382 10.8733 34.4451 11.0985C34.4497 11.1021 34.4523 11.1082 34.4523 11.1143V11.1164C34.4517 11.1209 34.4482 11.1245 34.4436 11.123C34.2225 11.0607 33.9978 11.0076 33.7761 10.9632L34.6366 11.914C34.7745 11.0832 34.7592 10.1099 34.3619 9.16159L34.5508 9.22031C34.6397 9.24788 34.7076 9.20805 34.7341 9.12533C34.7592 9.0472 34.7117 8.9655 34.6366 8.94252L34.0545 8.76226C34.5605 7.41057 34.3302 6.17122 34.1203 5.49563L34.3144 5.56865C34.4017 5.60133 34.4717 5.5661 34.5033 5.48542C34.5334 5.40882 34.4911 5.32457 34.4175 5.29648L29.6797 3.52197L29.8013 1.2169C29.8084 1.08464 29.7068 0.971786 29.5745 0.965149C29.4418 0.958508 29.3294 1.06013 29.3223 1.19239L29.1486 3.32281L25.3698 1.90781C25.281 1.87308 25.2126 1.90985 25.1809 1.99053C25.1508 2.06764 25.1942 2.15139 25.2667 2.17947L25.6808 2.33471C25.7304 2.60127 25.8029 3.36929 25.2565 4.26241L22.8222 3.40963C22.7466 3.38308 22.6634 3.4229 22.6368 3.49899C22.6098 3.57508 22.6501 3.65831 22.7262 3.68486L23.1409 3.8304C23.1276 4.98345 22.2247 5.78568 21.2443 6.48067L20.9042 6.38007C20.8266 6.35709 20.7459 6.40102 20.7229 6.47863C20.6999 6.55574 20.7439 6.63693 20.821 6.65991L21.3178 6.80647C21.3694 8.4671 21.0855 9.03903 19.6337 10.2738L18.9173 10.1022C18.8391 10.0833 18.76 10.1318 18.7411 10.2099C18.7227 10.2886 18.7707 10.3672 18.8815 10.3938L19.6276 10.572C19.6654 10.7073 19.7088 10.91 19.7093 11.1781C19.7093 11.3855 19.6822 11.5846 19.6332 11.7756L17.5763 11.2849C17.4982 11.266 17.4195 11.3145 17.4006 11.3926C17.3823 11.4713 17.4303 11.5499 17.5089 11.5683ZM22.2554 11.2072C22.2544 11.2057 22.2528 11.2047 22.2518 11.2032L29.7134 12.9894L30.5621 13.9402C30.5356 14.0955 30.5029 14.3707 30.484 14.529C30.4697 14.6128 30.4687 14.6526 30.3221 14.6592C30.0647 14.6715 29.7972 14.6904 29.5107 14.7399C29.4586 14.7486 29.4658 14.7731 29.4872 14.7772C29.7287 14.8165 30.0065 14.8671 30.3012 14.9243C30.3788 14.9396 30.4355 15.0106 30.4299 15.0892C30.4237 15.1821 30.4176 15.2766 30.414 15.3706C30.4105 15.4461 30.3425 15.5018 30.267 15.4972C29.6144 15.4559 29.0097 15.4768 28.4991 15.5677C28.4567 15.5748 28.4628 15.6029 28.4853 15.606C29.0087 15.6713 29.6205 15.7679 30.2639 15.9001C30.3441 15.9165 30.413 15.9879 30.4099 16.0702C30.4079 16.1279 30.4079 16.1815 30.4064 16.2387C30.4043 16.3127 30.3477 16.373 30.2746 16.3658C29.1451 16.256 28.112 16.2806 27.488 16.3954C27.4543 16.4016 27.4599 16.4327 27.4834 16.4353C28.2811 16.516 29.1992 16.6482 30.1853 16.8724C30.2787 16.8938 30.339 16.9852 30.3216 17.0792C30.3048 17.1727 30.2174 17.2355 30.1235 17.2253C28.5747 17.0552 27.1311 17.0991 26.4764 17.2237C26.4524 17.2283 26.457 17.263 26.4815 17.2651C27.5013 17.3524 28.6451 17.5041 29.911 17.8074C29.9984 17.8278 30.0443 17.9264 29.9958 18.0014C29.9846 18.0188 29.9733 18.0357 29.9616 18.052C29.8988 18.1403 29.7839 18.173 29.6777 18.149C29.5796 18.122 29.5127 18.1061 29.4101 18.0867C25.1181 17.1773 21.6523 17.7681 20.8685 17.979C23.8787 13.784 22.4428 11.4416 22.2554 11.2072ZM22.0542 10.8534L20.4737 10.475C21.1202 10.4489 21.7631 10.4586 22.3963 10.4964C22.2891 10.6139 22.1747 10.7329 22.0542 10.8534ZM23.3048 10.9918C23.8951 10.9902 24.5411 11.0239 25.2182 11.1026L25.2008 11.3145C24.5074 11.1786 23.8644 11.076 23.3048 10.9918ZM25.3571 11.6439L25.4097 10.9887C25.5276 10.9984 25.6476 11.0091 25.7692 11.0214L25.7467 11.4263V11.4335L25.7298 11.7332L25.3571 11.6439ZM25.9219 11.4646L25.9356 11.2016C26.7588 11.3334 27.6126 11.5325 28.4552 11.8149L28.4271 12.1581C27.5702 11.866 26.721 11.6418 25.9219 11.4646ZM28.5931 12.4221L28.6625 11.5494C28.7973 11.5856 28.9326 11.6239 29.069 11.6638L29.0215 12.5247L28.5931 12.4221ZM30.4391 13.163L31.3771 13.3877C31.3771 13.3887 31.3771 13.3903 31.3776 13.3913C31.4328 13.6512 31.4404 13.8437 31.3261 14.1568L31.5303 14.3855C31.5589 14.4182 31.5564 14.4683 31.5237 14.4974C31.491 14.526 31.441 14.5234 31.4118 14.4907L29.2768 12.0978C29.2477 12.0651 29.2503 12.0151 29.2829 11.9865C29.3156 11.9574 29.3657 11.9599 29.3948 11.9926L29.6491 12.2776C30.1214 12.488 30.5831 12.728 31.0263 13.0012L30.0959 12.778L30.4391 13.163ZM27.8991 18.6214C27.4931 18.5586 27.0683 18.507 26.6225 18.4692C25.5899 18.3829 24.5538 18.3757 23.5238 18.4472L22.3386 18.2614C24.1366 18.0643 26.1419 18.0985 27.92 18.364L27.8991 18.6214ZM28.6523 19.2525L28.0548 19.1586L28.134 18.1674C28.3214 18.2016 28.5119 18.2389 28.7054 18.2797L28.6523 19.2525ZM28.8719 18.7996L28.8857 18.5356C29.6128 18.6878 30.2813 18.8833 30.8578 19.1218C30.8813 19.2081 30.9058 19.2939 30.9313 19.3792C30.315 19.1621 29.6317 18.962 28.8719 18.7996ZM33.1271 19.9547C33.1123 19.8285 33.097 19.706 33.0796 19.587C33.5402 19.7642 34.0116 19.9577 34.4941 20.1691L33.1271 19.9547ZM35.6364 20.3484C35.6441 20.2881 35.6538 20.2064 35.663 20.1058C35.855 20.2054 36.0434 20.3172 36.2278 20.4413L35.6364 20.3484ZM35.2341 19.3153C35.3198 19.3475 35.3964 19.4006 35.4587 19.468L35.8698 19.9128C34.4967 19.1718 32.9504 19.0416 31.2576 19.5288C30.7061 17.8207 30.5458 15.9068 30.8093 14.2175L31.4057 14.8855C31.4833 14.9774 31.5477 15.0662 31.5426 15.269C31.4854 16.301 31.6222 17.4469 31.9123 18.4324C31.9225 18.4682 31.9475 18.4978 31.9807 18.5146C32.0139 18.531 32.0527 18.533 32.0869 18.5203C32.1645 18.4912 32.2432 18.4636 32.3213 18.4375C33.0444 18.2047 33.8997 18.2711 34.3874 18.4243C34.4752 18.4518 34.5462 18.4753 34.5855 18.5141L34.754 18.7036C34.7857 18.7378 34.7581 18.7935 34.7122 18.7878C34.0759 18.7061 33.4172 18.7021 32.8718 18.8047C32.8217 18.8144 32.8299 18.8874 32.881 18.8895C33.5729 18.9216 34.417 19.011 35.2341 19.3153ZM35.5333 16.7013L35.8346 17.0276C35.8657 17.0618 35.8387 17.1175 35.7922 17.1114C35.1559 17.0297 34.4977 17.0256 33.9523 17.1287C33.9023 17.1379 33.9099 17.211 33.961 17.2135C34.6529 17.2457 35.4976 17.335 36.3141 17.6394C36.4004 17.671 36.477 17.7247 36.5393 17.7921L37.0913 18.3895C36.4714 18.1026 35.8203 17.9044 35.1738 17.8089C34.1688 17.6608 33.1802 17.7533 32.234 18.0837C31.7734 16.4363 31.7198 14.7118 32.0736 12.9511L32.9259 13.8749C32.9663 14.7552 33.0709 15.6172 33.3436 16.4108C33.3671 16.4797 33.4422 16.519 33.5106 16.4945C33.5448 16.4828 33.578 16.471 33.6117 16.4598C34.2148 16.2872 34.7397 16.4256 35.3025 16.5721C35.3898 16.5946 35.472 16.6349 35.5333 16.7013ZM33.3983 11.1802L34.9083 12.85C34.9481 12.8934 34.9221 12.9634 34.8638 12.9731C34.6933 13.0012 34.5314 13.0451 34.3991 13.0936C34.3639 13.1064 34.3736 13.1579 34.4109 13.1579C34.6095 13.1589 34.8557 13.1717 35.086 13.1896C35.1758 13.1962 35.2596 13.2381 35.3204 13.305L35.6196 13.6359C35.6538 13.6742 35.6247 13.7339 35.5736 13.7309C35.2392 13.7125 34.8654 13.7105 34.6141 13.7962C34.5779 13.809 34.5891 13.8616 34.6274 13.8626C34.994 13.8693 35.4557 13.9551 35.8928 14.0551C35.9806 14.0751 36.0603 14.1231 36.1211 14.19L36.3626 14.4575C36.3937 14.4912 36.3657 14.5464 36.3202 14.5392C35.8249 14.4637 35.2085 14.41 34.8296 14.5346C34.7918 14.5469 34.8046 14.601 34.8439 14.6026C35.3852 14.6174 36.0761 14.7644 36.7262 14.9651C36.814 14.9922 36.8926 15.0432 36.9544 15.1112L37.1112 15.2848C37.1398 15.3164 37.1117 15.367 37.0704 15.3578C36.4223 15.2153 35.5527 15.1163 35.0446 15.2781C35.0063 15.2904 35.0201 15.3461 35.0604 15.3471C35.7723 15.3721 36.7037 15.5427 37.5555 15.8685C37.6413 15.9016 37.7179 15.9558 37.7796 16.0237L38.4782 16.7958L38.4787 16.7968C37.7158 16.3766 37.0223 16.1131 36.3391 15.9798C35.4582 15.8077 34.5753 15.8598 33.6449 16.1386C32.9586 14.0403 33.2006 12.1172 33.3983 11.1802ZM30.4871 7.96207L31.1529 8.69791C30.8838 8.65604 30.6331 8.68004 30.4835 8.70098C30.4513 8.70557 30.4411 8.74898 30.4728 8.75613C30.6806 8.80005 31.2178 8.92362 31.513 9.09622L33.0378 10.7819C33.0459 10.7911 33.05 10.8028 33.0495 10.8151C33.0485 10.8253 33.0398 10.8329 33.0301 10.8319C32.6532 10.7875 32.3096 10.7768 32.0308 10.8054C32.0022 10.8079 31.9981 10.8472 32.0251 10.8569C32.2948 10.9504 32.5491 11.0535 32.7891 11.1628C32.9152 11.2205 32.9872 11.3574 32.9591 11.4932C32.9331 11.6214 32.8059 11.7005 32.6767 11.6796C32.0731 11.5846 31.5288 11.5494 31.1305 11.5821C31.0978 11.5851 31.0927 11.6316 31.1243 11.6423C31.6243 11.8134 32.0593 12.0008 32.4444 12.1964C32.5705 12.2602 32.617 12.42 32.5337 12.5344C32.4459 12.6544 32.2794 12.6754 32.1487 12.6054C28.2361 10.4745 23.9359 10.5005 22.4882 10.7553C24.6605 8.44361 24.4318 6.64561 24.2602 6.03386L30.4871 7.96207ZM24.0743 7.31763L21.9041 6.67574C22.6522 6.62723 23.39 6.65225 24.108 6.74979C24.1116 6.91728 24.1029 7.10724 24.0743 7.31763ZM26.3952 6.10943C26.3988 6.08594 26.4478 6.08645 26.4912 6.09003C27.0453 6.15437 27.5937 6.2468 28.1345 6.36475C28.3709 6.41786 28.616 6.47761 28.8765 6.54451C28.8795 6.54553 28.8826 6.54604 28.8851 6.54655L28.8611 6.84375C28.2933 6.63847 26.5668 6.17939 26.4831 6.15998C26.4453 6.1513 26.3911 6.13241 26.3952 6.10943ZM29.0097 7.20018L29.0695 6.45463C29.1624 6.48119 29.2564 6.50876 29.3504 6.53736L29.309 7.29261L29.0097 7.20018ZM25.9367 2.4302L33.8242 5.38482C33.8676 5.50891 33.9166 5.6667 33.9615 5.85155C33.9957 6.04764 33.9773 6.10892 33.9125 6.08135C33.5709 5.93837 33.3549 5.85666 32.9469 5.79896C32.9336 5.79692 32.93 5.81581 32.9417 5.82143C33.4029 6.05122 33.6439 6.20033 33.9038 6.44799C34.0356 6.57361 34.0795 6.66553 34.0499 6.72374C34.0213 6.78094 33.9447 6.78809 33.8803 6.76C33.2655 6.49293 32.7686 6.31522 32.2228 6.24935C32.2079 6.24731 32.2023 6.26876 32.2161 6.27386C32.8437 6.52408 33.4973 6.91626 33.9993 7.27576C34.0861 7.33754 34.1224 7.40955 34.0815 7.47491C34.0478 7.52802 33.9998 7.53516 33.8977 7.48308C33.1894 7.11797 32.3851 6.84732 31.6534 6.72783C31.6396 6.72527 31.6335 6.74468 31.6462 6.7503C32.3964 7.08937 33.1945 7.54793 33.8436 7.99679C33.9375 8.06165 33.9927 8.14642 33.9442 8.2322C33.9053 8.30063 33.8277 8.32565 33.7123 8.25008C33.7108 8.24854 33.7093 8.24804 33.7072 8.24701C30.3676 5.97207 26.1486 5.32456 24.2398 5.69785C25.9407 4.43246 25.999 3.01132 25.9367 2.4302ZM22.7722 5.48185C23.1715 4.98345 23.3798 4.47178 23.4059 3.92334L24.6743 4.36761C24.6748 4.36761 24.6748 4.36812 24.6754 4.36812C24.6677 4.40642 24.6554 4.45748 24.6381 4.51723C24.6228 4.56931 24.5875 4.61374 24.5308 4.62855C24.3833 4.66583 24.2515 4.68727 24.1187 4.73732C24.1029 4.74294 24.1029 4.75723 24.1187 4.75876C24.2199 4.77102 24.3674 4.80064 24.4461 4.82106C24.4864 4.83128 24.4961 4.88132 24.4772 4.91859C24.4701 4.93136 24.4634 4.94464 24.4563 4.95792C24.4297 5.00643 24.3695 5.06873 24.3138 5.06771C24.1142 5.06363 23.7858 5.08865 23.6709 5.13052C23.6285 5.14635 23.6331 5.16575 23.6612 5.17188C23.7695 5.19384 24.0314 5.26278 24.1565 5.29954C24.1974 5.31129 24.1764 5.35775 24.1586 5.37716C24.0912 5.44967 24.0401 5.50686 23.9599 5.57887C23.9191 5.61512 23.865 5.60644 23.8129 5.5901L23.3528 5.44763C23.2619 5.41903 23.1955 5.45988 23.1689 5.54261C23.1439 5.62074 23.1929 5.70193 23.267 5.72542L23.6581 5.84747C23.6816 5.85462 23.6842 5.87504 23.6653 5.89036C23.3313 6.15896 22.3366 6.4485 21.7856 6.41531V6.41582C21.7851 6.41582 21.7851 6.41582 21.7846 6.41582C22.1313 6.14978 22.4842 5.84134 22.7722 5.48185ZM21.2867 8.80107C21.5527 8.24446 21.6058 7.62759 21.5875 6.88664L23.6081 7.4841C23.5964 7.56989 23.5831 7.65619 23.5678 7.74147C23.5581 7.79406 23.5172 7.83543 23.4651 7.84666C23.0413 7.9396 22.7007 8.08718 22.5756 8.14539C22.5618 8.15203 22.5643 8.17195 22.5791 8.17093C22.8324 8.15356 23.1551 8.14846 23.386 8.15714C23.4314 8.15867 23.461 8.20361 23.4483 8.24701C23.4335 8.29757 23.4171 8.3471 23.4003 8.39663C23.3829 8.44821 23.3364 8.48395 23.2828 8.49314C22.6859 8.59221 22.1681 8.75255 21.9771 8.84192C21.9561 8.85162 21.9602 8.88226 21.9832 8.88022C22.3223 8.85315 22.7722 8.83477 23.1214 8.84498C23.1613 8.846 23.1863 8.88839 23.1669 8.9226C23.1424 8.9655 23.1169 9.00686 23.0903 9.04771C23.0597 9.09469 23.0081 9.12431 22.9524 9.13248C22.1374 9.25197 21.3 9.50627 21.0319 9.62679C21.0043 9.63904 21.0155 9.67938 21.0451 9.67632C21.4348 9.63343 22.0246 9.6227 22.4494 9.6227C22.4765 9.6227 22.4872 9.65794 22.4648 9.67275C21.4869 10.3172 20.1362 10.1916 20.1362 10.1916C20.6683 9.71462 21.0528 9.29078 21.2867 8.80107ZM19.6786 12.3802C19.8798 11.9855 19.9774 11.5918 19.9769 11.1776C19.9764 10.9621 19.9503 10.7819 19.9202 10.6425L21.0926 10.9228C21.1003 10.9264 21.1085 10.9295 21.1171 10.9315L21.8923 11.1169C21.8923 11.1179 21.9623 11.2578 22.0154 11.4626C22.0338 11.5325 21.9786 11.5979 21.9061 11.6025C21.5665 11.6239 21.1442 11.725 21.0125 11.7914C20.9971 11.7991 21.0007 11.8175 21.015 11.8175C21.2055 11.8159 21.6457 11.8548 21.9383 11.8833C22.0169 11.891 22.0767 11.9594 22.0685 12.0386C22.0675 12.0468 22.0664 12.0554 22.0659 12.0636C22.0552 12.1448 21.9837 12.2025 21.9025 12.2071C21.0268 12.2587 20.5427 12.4512 20.4043 12.5217C20.3634 12.5431 20.3782 12.5737 20.4104 12.5722C20.6821 12.5589 21.2647 12.5743 21.6972 12.5906C21.7524 12.5931 21.779 12.6606 21.7376 12.6973C21.5696 12.8449 21.3255 12.9639 20.9777 13.0313C20.1908 13.1232 19.5709 13.2687 19.3488 13.3504C19.3212 13.3607 19.3278 13.4 19.3595 13.399C20.2067 13.3673 21.492 13.472 22.2273 13.5603C22.2896 13.568 22.335 13.6236 22.3279 13.6854C22.3213 13.7467 22.2666 13.7911 22.2053 13.7835C20.9931 13.639 19.8272 13.5884 18.7625 13.6446C19.2048 13.208 19.4698 12.7903 19.6786 12.3802ZM33.4713 27.4541C33.4744 27.7191 33.4851 27.976 33.5019 28.2573C33.0459 28.1971 32.6032 27.9183 32.4653 27.5511C32.4439 27.4944 32.4285 27.4382 32.4183 27.3826C32.7273 27.3601 33.0383 27.3458 33.3508 27.3397C33.4437 27.3382 33.4703 27.3882 33.4713 27.4541ZM26.4172 4.64183C26.6822 4.58463 26.9866 4.54071 27.3139 4.52744C27.488 4.52029 27.6683 4.52182 27.8526 4.5351C28.0073 4.54583 28.1656 4.5637 28.3245 4.59332C28.3556 4.59944 28.374 4.63161 28.3638 4.66174C28.3413 4.72659 28.3163 4.79247 28.2887 4.85885C28.2749 4.89102 28.2407 4.90992 28.2065 4.90226C27.9154 4.83945 27.6157 4.78481 27.3236 4.74294C27.3144 4.7414 27.3047 4.74038 27.295 4.73885C26.986 4.69595 26.6868 4.66685 26.4182 4.65715C26.4095 4.65664 26.4085 4.64387 26.4172 4.64183ZM30.3477 27.6507C30.6035 27.6037 30.8603 27.5613 31.1192 27.524C31.2423 27.7753 31.3439 28.1031 31.0993 28.2012C30.7965 28.3227 30.5151 27.9499 30.3477 27.6507ZM35.6237 26.203C35.4414 26.3521 35.2999 26.5048 35.0303 26.851C34.7219 27.2483 34.5682 27.7727 34.27 28.0572C34.2766 26.7335 34.4854 25.9625 35.3071 24.8038C35.3347 24.765 35.3949 24.7778 35.4056 24.8237C35.4485 25.0035 35.5527 25.4978 35.6237 26.203ZM30.6561 28.6041C30.7817 28.4294 31.0503 28.4978 31.2219 28.6214C31.394 28.745 31.418 28.9385 31.3169 29.0795C31.2152 29.2209 31.0238 29.2592 30.8522 29.1356C30.6801 29.0121 30.53 28.7792 30.6561 28.6041ZM35.4618 27.9428C35.4618 28.0617 35.3648 28.1583 35.2463 28.1583C35.1268 28.1583 35.0303 28.0617 35.0303 27.9428C35.0303 27.8238 35.1268 27.7273 35.2463 27.7273C35.3648 27.7273 35.4618 27.8238 35.4618 27.9428ZM29.9131 28.2609C29.7058 28.1955 29.4269 27.9882 29.1966 27.8937C29.4443 27.8345 29.6935 27.7799 29.9447 27.7288C30.0316 27.7763 30.1276 27.8345 30.1827 27.9086C30.2899 28.051 30.2338 28.1746 30.174 28.2298C30.1148 28.2844 30.0142 28.2931 29.9131 28.2609ZM36.575 30.2494C36.5561 30.2856 36.6281 30.4092 37.3027 30.7381C37.9681 31.0618 38.9965 31.5515 40.3977 32.0336C40.7858 32.1674 40.6372 32.2092 40.3783 32.1296C40.0847 32.0397 37.8951 31.333 36.7737 30.7534C35.6788 30.1876 34.823 29.68 34.535 29.3899C34.3624 29.2168 34.3149 28.9191 34.4951 28.7384C34.6422 28.5908 34.9103 28.5642 35.1467 28.7154C35.2897 28.8073 36.7226 29.85 38.5732 30.7743C40.4233 31.6981 42.2611 32.1184 42.5542 32.2006C42.8473 32.2828 42.88 32.3165 42.88 32.3165C42.88 32.3165 43.0138 32.4166 42.5026 32.3308C42.1768 32.2761 40.7823 32.0132 38.635 31.1394C37.8889 30.8361 37.2159 30.5103 36.6966 30.256C36.6312 30.2238 36.5934 30.2136 36.575 30.2494ZM39.953 29.944C42.278 31.2758 44.5463 31.8886 44.6566 31.9187C44.7669 31.9488 44.7761 32.0254 44.6259 32.0116C44.4758 31.9983 41.6019 31.1532 40.1138 30.3729C38.6937 29.5906 37.8951 29.152 37.8231 29.1106C37.751 29.0693 37.7209 29.0534 37.701 29.0764C37.6699 29.1122 37.6836 29.1423 37.7332 29.1903C37.8818 29.3368 38.419 29.7362 39.1283 30.1917C39.8391 30.6492 41.3317 31.3529 41.4349 31.4009C41.5411 31.4499 41.5442 31.5505 41.3976 31.4969C41.3052 31.4632 39.0614 30.4996 38.0554 29.874C37.0489 29.2485 36.3228 28.6429 36.0986 28.2303C35.9576 27.9719 35.9439 27.5628 36.1823 27.3244C36.4208 27.0864 36.7711 27.0936 36.8891 26.9756C37.007 26.8576 37.0152 26.6212 37.1745 26.4813C37.3338 26.3414 37.6984 26.2954 37.8578 26.2954C38.0171 26.2954 38.0968 26.1989 38.0968 26.1024C38.0968 26.0054 37.9706 25.8874 37.678 25.8874C37.3354 25.8874 36.9151 26.0523 36.7798 25.9635C36.6766 25.8956 36.7068 25.7511 36.5735 25.6801C36.4223 25.6009 35.9643 25.9456 35.9331 25.9696C35.9035 25.9916 35.8565 26.0289 35.8346 26.0054C35.8101 25.9788 35.853 25.9339 35.8856 25.8946C35.9173 25.8563 36.3937 25.3211 36.6445 25.3757C36.8957 25.4299 36.8651 25.6898 37.0065 25.7475C37.126 25.7965 37.4212 25.651 37.7179 25.6602C37.7715 25.6617 37.9226 25.6505 38.1376 25.7781C38.3337 25.894 38.4634 26.1346 38.3705 26.3843C38.3572 26.4195 38.2397 26.6942 37.9379 26.6687C37.8128 26.658 37.6459 26.6304 37.5003 26.7688C37.3543 26.9072 37.4196 27.1288 37.3114 27.2524C37.2491 27.3233 37.1275 27.3474 37.0678 27.449C37.0361 27.5031 36.9769 27.6251 37.1092 27.8381C37.2292 28.0311 37.6285 28.6127 39.953 29.944ZM25.8728 14.122C26.0873 14.0419 26.7042 14.0163 27.1362 14.0383C27.1607 14.0398 27.1796 14.0608 27.1791 14.0853C27.177 14.1614 27.1729 14.238 27.1673 14.3146C27.1668 14.3253 27.1643 14.3574 27.1643 14.3574C27.1643 14.3574 27.1321 14.3513 27.1188 14.3488C26.6996 14.2701 26.1021 14.1869 25.8749 14.1476C25.8616 14.145 25.8601 14.1266 25.8728 14.122ZM39.7753 32.4467C39.8386 32.4743 39.858 32.5008 39.8478 32.5407C39.8371 32.5795 39.7788 32.5984 39.6997 32.5989C39.62 32.5999 39.4699 32.5749 39.4056 32.5488C39.3407 32.5223 39.3381 32.4635 39.3565 32.4273C39.3805 32.3803 39.4316 32.3762 39.4857 32.3793C39.5399 32.3824 39.7114 32.4191 39.7753 32.4467ZM33.9038 30.3872C33.888 30.4107 33.9171 30.4598 34.01 30.5241C34.1035 30.5884 34.7224 31.0598 35.3806 31.3917C36.0393 31.7241 37.0637 32.1822 37.7546 32.4329C37.9083 32.4886 37.8966 32.5468 37.8787 32.581C37.8613 32.6152 37.7985 32.6167 37.653 32.5703C36.9795 32.3563 35.6334 31.86 35.0043 31.5515C34.44 31.2753 33.1961 30.5905 32.8514 30.3908C32.809 30.3668 32.7727 30.3638 32.7579 30.376C32.7411 30.3898 32.7385 30.4123 32.7508 30.4296C32.8723 30.6033 34.367 31.6904 35.7498 32.2935C35.8366 32.3313 35.8785 32.3849 35.854 32.4283C35.8223 32.483 35.7365 32.4773 35.6656 32.4544C35.3428 32.3522 34.2168 31.8615 33.3411 31.3702C32.4142 30.8504 31.8393 30.4587 31.6503 30.2341C31.4879 30.041 31.4185 29.727 31.6324 29.4696C31.8413 29.2184 32.2202 29.2419 32.45 29.32C32.6588 29.391 32.8314 29.489 32.9709 29.4987C33.1118 29.5089 33.2354 29.3476 33.5173 29.3884C34.0284 29.4625 34.4134 30.0962 36.19 31.0296C37.3926 31.6618 38.6942 32.1337 38.826 32.1863C38.9107 32.22 38.9189 32.2736 38.8862 32.3226C38.8597 32.3624 38.7938 32.3742 38.7284 32.3573C38.5226 32.3037 37.1929 31.9427 35.9617 31.3861C35.2897 31.0822 34.6499 30.7891 34.1387 30.4751C33.9871 30.3816 33.9191 30.3638 33.9038 30.3872ZM30.1403 30.8438C30.3012 30.9576 30.4763 31.0853 30.605 31.1767C31.0564 31.4974 31.8255 31.9141 32.4061 32.1531C32.9407 32.3737 33.0597 32.4074 33.1235 32.4339C33.1756 32.4554 33.2052 32.4891 33.1884 32.5274C33.1715 32.5652 33.1215 32.5606 33.0653 32.5458C33.0051 32.5304 32.5041 32.3747 32.2228 32.2721C31.9414 32.1699 31.2469 31.9269 30.8675 31.7497C30.6224 31.6353 29.9754 31.2916 29.8784 31.2171C29.7216 31.0955 29.7047 30.975 29.7747 30.8744C29.8441 30.7733 29.9825 30.7324 30.1403 30.8438ZM55.253 40.2188C55.253 40.5584 54.9896 40.8229 54.649 40.8229C54.3094 40.8229 54.0443 40.5584 54.0443 40.2188C54.0443 39.8756 54.3094 39.6137 54.649 39.6137C54.9896 39.6137 55.253 39.8756 55.253 40.2188ZM54.1368 40.2188C54.1368 40.5027 54.3563 40.7289 54.649 40.7289C54.9416 40.7289 55.1601 40.5027 55.1601 40.2188C55.1601 39.9257 54.9416 39.7 54.649 39.7C54.3563 39.7 54.1368 39.9257 54.1368 40.2188ZM54.5146 40.5681H54.4299V39.8669H54.6949C54.8532 39.8669 54.9221 39.9333 54.9221 40.0574C54.9221 40.1871 54.842 40.2443 54.7475 40.2545L54.9569 40.5681H54.8558L54.6587 40.2545H54.5146V40.5681ZM54.6285 40.1871C54.7307 40.1871 54.8389 40.181 54.8389 40.0574C54.8389 39.9645 54.7582 39.9395 54.6719 39.9395H54.5146V40.1871H54.6285ZM54.3635 36.0749C54.2425 35.5356 53.9861 35.2925 53.1242 35.2925H52.7243V39.7183C52.7243 40.399 52.9097 40.6053 53.5383 40.6053V40.7846H50.9284V40.6053C51.5411 40.6053 51.7306 40.399 51.7306 39.7183V35.2925H51.3302C50.4718 35.2925 50.2206 35.5356 50.1026 36.0749H49.9275V34.9279H54.5284V36.0749H54.3635ZM45.3393 40.7846V40.6053C45.9495 40.6053 46.1528 40.399 46.1528 39.7183V35.9937C46.1528 35.3074 45.9495 35.1036 45.3393 35.1036V34.9279H49.5399V36.0749H49.3724C49.2529 35.5356 49.0068 35.2925 48.1474 35.2925H47.649C47.2159 35.2925 47.122 35.5198 47.122 36.0146V37.5032H48.1341C48.6064 37.5032 48.7576 37.255 48.8178 36.9016H48.9823V38.5745H48.8178C48.7576 38.2303 48.6064 37.9505 48.1341 37.9505H47.122V39.775C47.122 40.3684 47.1889 40.4159 47.649 40.4159H48.4538C49.1498 40.4159 49.5169 40.0738 49.5838 39.6137H49.7477V40.7846H45.3393ZM39.2764 40.7846L37.4932 37.7049C38.2974 37.6666 39.0287 37.2897 39.0287 36.4732C39.0287 35.6127 38.4854 35.2925 37.7786 35.2925C37.2807 35.2925 37.1638 35.363 37.1638 35.8778V39.7C37.1638 40.3781 37.364 40.6053 37.9773 40.6053V40.7846H35.3714V40.6053C35.9837 40.6053 36.1859 40.3781 36.1859 39.7V35.9819C36.1859 35.5198 36.1742 35.1036 35.5491 35.1036V34.9279H37.7786C38.923 34.9279 40.0306 35.2124 40.0306 36.3792C40.0306 37.3954 39.1599 37.7809 38.637 37.8826L39.8059 39.7929C40.1353 40.3245 40.266 40.6053 40.7256 40.6053C41.2679 40.6053 41.3996 40.3163 41.3996 39.7066V35.9937C41.3996 35.3074 41.1974 35.1036 40.5821 35.1036V34.9279H44.7975V36.0749H44.6172C44.5018 35.5356 44.2654 35.2925 43.3942 35.2925H42.8964C42.4572 35.2925 42.3663 35.5198 42.3663 36.0146V37.5032H43.3774C43.8523 37.5032 44.005 37.255 44.0775 36.9016H44.2297V38.5745H44.0775C44.0193 38.2303 43.8523 37.9505 43.3774 37.9505H42.3663V39.775C42.3663 40.3684 42.4378 40.4159 42.8964 40.4159H43.6991C44.3931 40.4159 44.7572 40.0738 44.844 39.6137H45.0089V40.7846H39.2764ZM35.1728 36.0749C35.0502 35.5356 34.8036 35.2925 33.9442 35.2925H33.5423V39.7183C33.5423 40.399 33.7322 40.6053 34.3435 40.6053V40.7846H31.7392V40.6053C32.3627 40.6053 32.5547 40.399 32.5547 39.7183V35.2925H32.1497C31.2903 35.2925 31.0283 35.5356 30.9119 36.0749H30.7449V34.9279H35.3449V36.0749H35.1728ZM28.1074 40.9648C27.2541 40.9648 26.5346 40.7197 26.1547 40.5803V39.1975H26.338C26.5091 39.8501 26.8885 40.467 28.1667 40.467C29.0955 40.467 29.7446 39.9655 29.7221 39.1975C29.6961 38.382 29.1211 37.9607 27.917 37.3842C26.5934 36.7474 26.171 36.1203 26.1807 35.3457C26.1807 34.0956 27.1842 33.4629 28.6569 33.4629C29.3779 33.4629 30.0142 33.6105 30.3558 33.7187V34.9279H30.1909C30.0959 34.3417 29.6011 33.9403 28.6569 33.9516C27.7975 33.9618 27.2296 34.355 27.1969 35.0362C27.1602 35.6669 27.5748 36.0146 28.3173 36.369C30.0392 37.1814 30.6632 37.7049 30.7368 38.7619C30.8185 40.0845 29.8482 40.9648 28.1074 40.9648ZM19.3743 40.7846V40.6053C19.9881 40.6053 20.2016 40.399 20.2016 39.7183V35.9937C20.2016 35.3074 19.9881 35.1036 19.3743 35.1036V34.9279H23.5851V36.0749H23.4105C23.2997 35.5356 23.0546 35.2925 22.1956 35.2925H21.687C21.2642 35.2925 21.156 35.5198 21.156 36.0146V37.5032H22.1691C22.6404 37.5032 22.8074 37.255 22.8687 36.9016H23.0326V38.5745H22.8687C22.8074 38.2303 22.6557 37.9505 22.1691 37.9505H21.156V39.775C21.156 40.3684 21.2254 40.4159 21.687 40.4159H22.502C23.1955 40.4159 23.5626 40.0738 23.6346 39.6137H23.8016V40.7846H19.3743ZM18.9852 36.0749C18.881 35.5356 18.6216 35.2925 17.7581 35.2925H17.3608V39.7183C17.3608 40.399 17.5457 40.6053 18.1595 40.6053V40.7846H15.5531V40.6053C16.1787 40.6053 16.3661 40.399 16.3661 39.7183V35.2925H15.9642C15.1042 35.2925 14.8464 35.5356 14.7248 36.0749H14.5655V34.9279H19.1634V36.0749H18.9852ZM12.8865 40.7846V40.6053C13.2271 40.6053 13.488 40.5206 13.488 40.2545C13.488 40.1473 13.4656 40.0155 13.4038 39.8695L13.0964 38.9789H10.8924L10.6095 39.7663C10.5636 39.8955 10.5023 40.0738 10.5023 40.2121C10.5023 40.467 10.6095 40.6053 11.0579 40.6053V40.7846H9.23944V40.6053C9.70209 40.6053 9.85273 40.2847 10.0999 39.6137L11.8264 34.9279H12.6388L14.3975 39.7531C14.6319 40.3781 14.7248 40.5803 15.2814 40.6053V40.7846H12.8865ZM9.76439 36.0749C9.64081 35.5356 9.39519 35.2925 8.53423 35.2925H8.13133V39.7183C8.13133 40.399 8.3218 40.6053 8.93765 40.6053V40.7846H6.32874V40.6053C6.94101 40.6053 7.13097 40.399 7.13097 39.7183V35.2925H6.74185C5.8666 35.2925 5.61996 35.5356 5.502 36.0749H5.32531V34.9279H9.93699V36.0749H9.76439ZM2.69291 40.9648C1.84472 40.9648 1.12471 40.7197 0.746826 40.5803V39.1975H0.928108C1.10122 39.8501 1.47961 40.467 2.75623 40.467C3.68613 40.467 4.33414 39.9655 4.31116 39.1975C4.28767 38.382 3.7091 37.9607 2.50653 37.3842C1.18241 36.7474 0.762146 36.1203 0.771338 35.3457C0.771338 34.0956 1.77578 33.4629 3.25054 33.4629C3.97209 33.4629 4.60632 33.6105 4.94947 33.7187V34.9279H4.78147C4.69006 34.3417 4.19371 33.9403 3.25054 33.9516C2.38908 33.9618 1.82277 34.355 1.78804 35.0362C1.74668 35.6669 2.16235 36.0146 2.90943 36.369C4.63185 37.1814 5.25739 37.7049 5.32531 38.7619C5.40906 40.0845 4.44189 40.9648 2.69291 40.9648ZM12.0158 35.8966L11.0706 38.4938H12.9222L12.0158 35.8966ZM31.1621 26.9174C31.0728 26.8362 30.8491 26.6232 30.8129 26.4971C30.798 26.443 30.7822 26.3766 30.7465 26.3276C30.7255 26.299 30.6985 26.2735 30.6637 26.254C31.5523 26.0891 32.4622 25.9793 33.4049 25.9298C33.5147 25.9237 33.5259 25.9982 33.5198 26.0646C33.5065 26.2076 33.4958 26.3526 33.4892 26.4971C33.4825 26.6375 33.4779 26.7698 33.4749 26.8964C33.4733 26.9521 33.4539 26.972 33.3814 26.9746C33.0515 26.9863 32.7278 27.0057 32.4091 27.0313C32.4367 26.7923 32.522 26.6054 32.5353 26.5492C32.5577 26.4563 32.5516 26.3072 32.3591 26.2638C32.1901 26.226 32.0844 26.3281 32.0706 26.42C32.0599 26.4935 32.0798 26.6723 32.068 26.7315C32.0537 26.8066 32.0496 26.973 31.6723 27.042C31.4445 27.0833 31.2632 27.0098 31.1621 26.9174ZM31.2556 6.31931C31.2423 6.36782 31.2285 6.41582 31.2137 6.46331C31.1912 6.53582 31.1116 6.57259 31.0416 6.54399C30.8358 6.45974 30.6306 6.37957 30.4263 6.30399C30.1694 6.20901 29.9136 6.12067 29.6598 6.03947C29.1992 5.89241 28.7457 5.76934 28.3025 5.67232C28.2846 5.66874 28.2877 5.64167 28.3061 5.64167C28.7539 5.64167 29.2554 5.67947 29.7635 5.76423C30.0443 5.81121 30.3267 5.87249 30.604 5.9496C30.7929 6.0022 30.9793 6.06245 31.1601 6.13037C31.2362 6.15896 31.277 6.24118 31.2556 6.31931ZM24.8372 9.36738C24.8372 9.36738 25.907 9.12788 27.7316 9.21316C27.7745 9.2152 27.8036 9.25861 27.7883 9.29844C27.7484 9.39802 27.7122 9.47819 27.6611 9.58491C27.6387 9.63138 27.5876 9.65692 27.5365 9.64824C26.2854 9.42917 24.8444 9.42559 24.8444 9.42559C24.7244 9.42508 24.7208 9.39904 24.8372 9.36738ZM24.9807 15.1239C25.3116 14.9866 26.1782 14.8666 27.0397 14.8558C27.0713 14.8553 27.0948 14.8844 27.0887 14.9156C27.0723 15.0044 27.0534 15.0928 27.0325 15.1816C27.0284 15.1975 27.0177 15.2429 27.0177 15.2429C27.0177 15.2429 26.9758 15.2383 26.9569 15.2363C26.2333 15.1617 25.3877 15.1403 24.9874 15.1479C24.9731 15.1484 24.968 15.129 24.9807 15.1239ZM27.462 3.96011C27.6412 3.931 27.8424 3.90905 28.0477 3.90445C28.1927 3.90139 28.3393 3.907 28.4822 3.92436C28.5068 3.92743 28.5246 3.94938 28.5221 3.97338C28.5154 4.03057 28.5073 4.08981 28.4965 4.15007C28.4925 4.17356 28.4695 4.18786 28.4465 4.18173C28.3102 4.14701 28.1738 4.11382 28.0385 4.08318C27.8424 4.03926 27.6484 4.00147 27.4599 3.97338C27.4518 3.97236 27.4543 3.96113 27.462 3.96011ZM30.4549 4.78889C30.6326 4.78991 30.8297 4.80166 31.0278 4.82974C31.1407 4.84608 31.2546 4.86753 31.3649 4.89562C31.4001 4.90685 31.4267 4.93647 31.4267 4.97324C31.4267 5.02226 31.4256 5.0723 31.4241 5.12388C31.4231 5.15299 31.3935 5.17239 31.3664 5.16065C31.3521 5.15401 31.3378 5.14737 31.323 5.14124C31.2234 5.09681 31.1228 5.05392 31.0207 5.01256C30.8358 4.93749 30.6469 4.86855 30.4549 4.80728C30.4431 4.8037 30.4426 4.78889 30.4549 4.78889ZM27.2649 7.8824C27.2649 7.8824 27.5866 7.79202 28.0947 7.84564C28.1192 7.84819 28.137 7.87066 28.135 7.89568C28.1314 7.94828 28.1268 8.00292 28.1207 8.05909C28.1182 8.08258 28.0957 8.0979 28.0727 8.09229C27.6805 7.99884 27.272 7.96156 27.272 7.96156C27.152 7.95083 27.1489 7.91509 27.2649 7.8824ZM29.5904 5.28831C29.9064 5.28831 30.2598 5.31282 30.6178 5.37001C30.8506 5.40627 31.084 5.46244 31.3082 5.52985C31.3582 5.54465 31.3899 5.59368 31.3832 5.64525C31.3761 5.69989 31.3689 5.75402 31.3603 5.80917C31.3531 5.8536 31.3056 5.87913 31.2638 5.86177C31.2152 5.84236 31.1667 5.82244 31.1177 5.80355C31.108 5.79947 31.0983 5.79589 31.0886 5.79181C30.9221 5.72696 30.7562 5.66568 30.5902 5.60798C30.5769 5.60389 30.5642 5.59929 30.5509 5.5947C30.2271 5.48389 29.9054 5.38789 29.5873 5.30976C29.5755 5.30669 29.5776 5.28831 29.5904 5.28831ZM26.0429 8.67493C26.0429 8.67493 26.7787 8.47272 27.9777 8.54778C28.0104 8.54983 28.0319 8.58098 28.0242 8.61264C28.0027 8.70149 27.9787 8.79391 27.9502 8.8889C27.9399 8.92209 27.9062 8.94252 27.872 8.93588C27.031 8.76583 26.0505 8.73877 26.0505 8.73877C25.93 8.7357 25.927 8.70711 26.0429 8.67493ZM21.9878 17.3458C21.9592 17.3499 21.95 17.309 21.9771 17.2983C22.6409 17.0292 24.132 16.7003 26.2982 16.6523C26.3753 16.6508 26.4274 16.733 26.3881 16.7999C26.3263 16.9061 26.2604 17.0108 26.192 17.1134C26.1603 17.1604 26.1215 17.215 26.1215 17.215C26.1215 17.215 25.9693 17.2064 25.9178 17.2033C24.3633 17.1139 22.8682 17.2212 21.9878 17.3458ZM28.9219 9.9582C29.4361 9.94084 30.3277 9.98884 31.2576 10.2069C31.3031 10.2176 31.3291 10.2661 31.3133 10.31C31.2786 10.4086 31.2403 10.5061 31.1999 10.6026C31.181 10.6471 31.13 10.6685 31.085 10.6506C30.3492 10.3601 29.575 10.1711 28.9148 10.0098C28.8852 10.0026 28.8918 9.95922 28.9219 9.9582ZM23.7501 16.1483C24.2199 15.9491 25.3698 15.727 26.8017 15.6877C26.8441 15.6862 26.8737 15.7285 26.8599 15.7684C26.8221 15.8746 26.7818 15.9798 26.7384 16.0845C26.7297 16.1059 26.7047 16.1641 26.7047 16.1641C26.7047 16.1641 26.6475 16.159 26.6194 16.157C25.5302 16.0676 24.371 16.1161 23.7587 16.1764C23.7424 16.1779 23.7347 16.1549 23.7501 16.1483ZM27.4548 10.0542C27.3849 10.1803 27.3088 10.3095 27.225 10.4408C27.1796 10.5117 27.0958 10.5485 27.0126 10.5363C25.3903 10.2937 23.6061 10.3126 23.6061 10.3126C23.4861 10.3141 23.4825 10.2891 23.5984 10.2579C23.5984 10.2579 25.0149 9.87547 27.3828 9.92654C27.4472 9.92756 27.486 9.99752 27.4548 10.0542ZM30.9507 11.1148C30.9053 11.1965 30.8583 11.2752 30.8098 11.3507C30.7546 11.437 30.6454 11.4702 30.5499 11.434C29.5796 11.0689 28.5977 10.8299 27.6989 10.6333C27.6708 10.6266 27.6754 10.5853 27.7045 10.5837C28.3883 10.549 29.5888 10.62 30.8624 10.9172C30.9502 10.9381 30.9946 11.0362 30.9507 11.1148ZM29.8651 9.30099C30.2246 9.29538 30.846 9.32806 31.4665 9.4838C31.4997 9.49197 31.5227 9.52364 31.5165 9.55734C31.5012 9.64313 31.4828 9.72994 31.4614 9.81777C31.4537 9.84892 31.4195 9.86628 31.3899 9.85351C30.8746 9.62934 30.2935 9.47461 29.8559 9.3541C29.8258 9.34542 29.8334 9.3015 29.8651 9.30099Z" fill="#004A97"/>
        </g>
    </g>
    <defs>
        <clipPath id="clip0_41_2567">
            <rect width="54.5062" height="40" fill="white" transform="translate(0.746826 0.964844)"/>
        </clipPath>
    </defs>
</svg>
