<svg width="66" height="9" viewBox="0 0 66 9" fill="none" xmlns="http://www.w3.org/2000/svg">
    <g clip-path="url(#clip0_722_255)">
        <path d="M0.00012207 8.90076H8.90088V0H0.00012207V8.90076Z" fill="white"/>
        <path d="M2.36951 4.59757C2.73168 4.33972 3.10842 4.11533 3.49343 3.92441C3.147 4.18422 2.81632 4.47514 2.50612 4.79716C1.3578 5.98681 0.713822 7.42291 0.52559 8.90197H1.05231C1.32237 6.65255 2.5777 4.56418 4.7689 3.3713C5.15746 3.15951 5.55662 2.98315 5.96171 2.84025C5.59048 3.05794 5.23185 3.3087 4.89173 3.59136C3.22417 4.97788 2.39627 6.9167 2.34426 8.90198H8.90189V0.0012207H0.000732422V7.37896C0.517618 6.31488 1.30574 5.35514 2.36947 4.59772L2.36951 4.59757ZM6.47771 2.00076L6.59187 0.937866L7.11229 1.87163L8.15787 1.65158L7.43077 2.43457L7.96301 3.36166L6.9938 2.9121L6.27693 3.70493L6.40448 2.64361L5.42937 2.20703" fill="url(#paint0_linear_722_255)"/>
        <path d="M10.7964 4.48792C10.7964 3.26795 11.7412 2.4043 13.0049 2.4043C13.4119 2.4043 13.7749 2.4606 14.0879 2.59838L14.2127 2.44209H14.3441L14.4256 3.81872H14.2501C14.2001 3.53686 14.0749 3.0865 13.9501 2.91722C13.7808 2.76093 13.4682 2.61096 13.0364 2.61096C11.9164 2.61096 11.5472 3.54355 11.5472 4.4443C11.5472 5.56429 12.1227 6.32755 12.9365 6.32755C13.2931 6.32755 13.6498 6.18385 13.8313 6.05868C13.9686 5.9209 14.1816 5.39535 14.2501 5.12647H14.432L14.2068 6.31534C13.9501 6.43423 13.4561 6.55273 12.9238 6.55273C11.5349 6.55273 10.7965 5.57683 10.7965 4.48798" fill="#404041"/>
        <path d="M14.9676 4.96983C14.9676 4.05652 15.6057 3.39282 16.4816 3.39282C17.3516 3.39282 17.9835 4.01246 17.9835 4.96362C17.9835 5.88361 17.3517 6.5533 16.4816 6.5533C15.6057 6.5533 14.9676 5.95255 14.9676 4.96996V4.96983ZM17.3516 4.95781C17.3516 4.2693 17.045 3.62488 16.4816 3.62488C15.9624 3.62488 15.6057 4.08783 15.6057 4.96375C15.6057 5.67117 15.9124 6.34038 16.4816 6.34038C17.0009 6.34038 17.3516 5.89633 17.3516 4.95781Z" fill="#404041"/>
        <path d="M18.2464 6.32812L18.4842 6.27182C18.6153 6.24033 18.6909 6.22183 18.6909 6.14703V4.04453C18.6909 3.91305 18.672 3.86896 18.4279 3.76935L18.2527 3.70046V3.56898L19.0786 3.3938H19.2723V4.05673C19.4475 3.70046 19.7731 3.3938 20.2612 3.3938C20.9245 3.3938 21.2749 3.80676 21.2749 4.44489V6.14716C21.2749 6.23456 21.3753 6.24715 21.4749 6.27195L21.7127 6.32825V6.47863H20.2491V6.32825L20.4931 6.27195C20.6742 6.22826 20.6994 6.23456 20.6994 6.14716V4.62018C20.6994 4.17574 20.5868 3.76278 20.0361 3.76278C19.642 3.76278 19.379 4.01945 19.2724 4.25762V6.1472C19.2724 6.2346 19.3601 6.24719 19.4664 6.27199L19.7042 6.32829V6.47867H18.2464" fill="#404041"/>
        <path d="M22.0269 5.42651H22.1958C22.2769 5.74537 22.3899 5.95795 22.4836 6.10833C22.6462 6.25202 22.8217 6.33351 23.0217 6.33351C23.3658 6.33351 23.6161 6.16462 23.6161 5.83906C23.6161 5.48279 23.4221 5.38872 23.2343 5.31981L22.7277 5.12575C22.3899 4.99466 22.0895 4.73169 22.0895 4.31243C22.0895 3.73058 22.6151 3.39282 23.178 3.39282C23.4536 3.39282 23.6913 3.48022 23.8224 3.5617L23.9039 3.39282H24.0602V4.36873H23.8913C23.8598 4.13134 23.785 3.97467 23.7162 3.83688C23.6284 3.73058 23.4221 3.58651 23.2032 3.58651C22.9028 3.58651 22.6399 3.79318 22.6399 4.10575C22.6399 4.38761 22.7277 4.53761 22.9713 4.6317L23.5658 4.86317C23.885 4.98205 24.198 5.23872 24.198 5.63908C24.198 6.25202 23.6539 6.55278 23.1032 6.55278C22.7528 6.55278 22.4836 6.49019 22.3021 6.3772L22.221 6.55278H22.0584" fill="#404041"/>
        <path d="M24.8187 5.78279V3.84952H24.4683V3.63694C24.5746 3.59284 24.7439 3.54285 24.8687 3.44916C24.9628 3.31177 25.1316 2.86102 25.1817 2.69214H25.3883V3.55545H26.2957V3.84952H25.3883V5.63917C25.3883 6.05213 25.532 6.20251 25.9139 6.20251C26.1516 6.20251 26.3146 6.09582 26.4142 5.99583L26.4768 6.07102C26.3079 6.36509 26.0017 6.55287 25.6135 6.55287C25.1316 6.55287 24.8187 6.28361 24.8187 5.78285" fill="#404041"/>
        <path d="M26.503 4.97626C26.5093 4.08775 27.0786 3.39331 27.9549 3.39331C28.593 3.39331 29.0749 3.78108 29.0749 4.4192C29.0749 4.507 29.0438 4.68217 29.0312 4.76957L27.0852 4.71996V4.84515C27.0852 5.70216 27.4915 6.13362 28.1737 6.13362C28.5115 6.13362 28.7992 5.97143 28.9807 5.72736L29.0496 5.78956C28.8181 6.25291 28.4615 6.55288 27.8485 6.55288C27.0163 6.55288 26.5093 5.87694 26.5029 4.97627L26.503 4.97626ZM28.4614 4.48222C28.4803 4.43813 28.4929 4.36333 28.4929 4.30704C28.4929 3.85629 28.2803 3.61852 27.9233 3.61852C27.4414 3.61852 27.1537 4.06296 27.11 4.53812" fill="#404041"/>
        <path d="M29.2407 6.32797L29.4784 6.27167C29.5662 6.24687 29.6792 6.23427 29.6792 6.14688V2.61773C29.6792 2.42994 29.6536 2.39884 29.5036 2.32995L29.26 2.22996V2.10438L30.1107 1.94849H30.3048C30.2796 2.17958 30.2674 2.56733 30.2674 2.86809V6.14697C30.2674 6.23437 30.3733 6.24696 30.461 6.27176L30.6988 6.32806V6.47843H29.2407" fill="#404041"/>
        <path d="M31.0795 6.32797L31.3172 6.27167C31.405 6.24687 31.5176 6.23427 31.5176 6.14688V2.61773C31.5176 2.42994 31.4924 2.39884 31.3424 2.32995L31.0984 2.22996V2.10438L31.9491 1.94849H32.1432C32.1184 2.17958 32.1058 2.56733 32.1058 2.86809V6.14697C32.1058 6.23437 32.212 6.24696 32.2994 6.27176L32.5372 6.32806V6.47843H31.0794" fill="#404041"/>
        <path d="M32.802 5.79601C32.802 5.23936 33.4468 5.03859 34.035 4.8823L34.5979 4.73272V4.39455C34.5979 3.89381 34.335 3.68123 33.9283 3.68123C33.7657 3.68123 33.5531 3.71863 33.4091 3.80603L33.5153 3.96939C33.559 4.0442 33.5779 4.13159 33.5779 4.19457C33.5779 4.36976 33.4717 4.55084 33.2465 4.55084C33.0398 4.55084 32.9272 4.41345 32.9272 4.20048C32.9272 3.9627 33.1339 3.79342 33.3028 3.70013L33.4842 3.58085C33.7027 3.44976 33.935 3.39307 34.1413 3.39307C34.7794 3.39307 35.1675 3.64974 35.1675 4.31936V5.68385C35.1675 5.93383 35.1734 6.04011 35.2108 6.1779C35.3297 6.2279 35.5175 6.24049 35.6868 6.24049V6.37158C35.4864 6.49047 35.2301 6.55346 35.0861 6.55346C34.7416 6.55346 34.6353 6.36568 34.6042 6.04681C34.3916 6.37158 34.0598 6.55346 33.6531 6.55346C33.1213 6.55346 32.802 6.27199 32.802 5.79605L32.802 5.79601ZM34.5979 5.84604V4.93904L34.0408 5.10162C33.7215 5.18902 33.3653 5.33939 33.3653 5.71495C33.3653 6.05272 33.5779 6.2031 33.9034 6.2031C34.216 6.2031 34.4853 6.00272 34.5978 5.84604" fill="#404041"/>
        <path d="M35.9529 5.78279V3.84952H35.6021V3.63694C35.7084 3.59284 35.8777 3.54285 36.0025 3.44916C36.0965 3.31177 36.2658 2.86102 36.3154 2.69214H36.5217V3.55545H37.4295V3.84952H36.5217V5.63917C36.5217 6.05213 36.6662 6.20251 37.0476 6.20251C37.2854 6.20251 37.448 6.09582 37.5484 5.99583L37.611 6.07102C37.4417 6.36509 37.1354 6.55287 36.7473 6.55287C36.2658 6.55287 35.9529 6.28361 35.9529 5.78285" fill="#404041"/>
        <path d="M37.7467 6.328L37.9908 6.2717C38.0841 6.2532 38.197 6.22801 38.197 6.12802V4.04439C38.197 3.91291 38.1845 3.86882 37.9337 3.76921L37.7526 3.70032V3.56884L38.5789 3.39366H38.7726V6.12804C38.7726 6.22803 38.8041 6.23433 38.9726 6.27172L39.2107 6.32802V6.47839H37.7467L37.7467 6.328ZM38.1215 2.34885C38.1215 2.13587 38.2908 1.94849 38.4974 1.94849C38.7037 1.94849 38.8663 2.13587 38.8663 2.34885C38.8663 2.57402 38.6911 2.74921 38.4974 2.74921C38.2908 2.74921 38.1215 2.57402 38.1215 2.34885Z" fill="#404041"/>
        <path d="M39.3149 4.96983C39.3149 4.05652 39.9527 3.39282 40.829 3.39282C41.6986 3.39282 42.3308 4.01246 42.3308 4.96362C42.3308 5.88361 41.6986 6.5533 40.829 6.5533C39.9527 6.5533 39.3149 5.95255 39.3149 4.96996V4.96983ZM41.6986 4.95781C41.6986 4.2693 41.3923 3.62488 40.829 3.62488C40.3097 3.62488 39.9527 4.08783 39.9527 4.96375C39.9527 5.67117 40.2594 6.34038 40.829 6.34038C41.3482 6.34038 41.6986 5.89633 41.6986 4.95781Z" fill="#404041"/>
        <path d="M42.5937 6.32812L42.8315 6.27182C42.963 6.24033 43.0378 6.22183 43.0378 6.14703V4.04453C43.0378 3.91305 43.0193 3.86896 42.7752 3.76935L42.6 3.70046V3.56898L43.426 3.3938H43.62V4.05673C43.7952 3.70046 44.1204 3.3938 44.6085 3.3938C45.2719 3.3938 45.6222 3.80676 45.6222 4.44489V6.14716C45.6222 6.23456 45.7222 6.24715 45.8226 6.27195L46.06 6.32825V6.47863H44.5964V6.32825L44.8404 6.27195C45.0215 6.22826 45.0467 6.23456 45.0467 6.14716V4.62018C45.0467 4.17574 44.9337 3.76278 44.3834 3.76278C43.9893 3.76278 43.7267 4.01945 43.62 4.25762V6.1472C43.62 6.2346 43.7078 6.24719 43.8141 6.27199L44.0515 6.32829V6.47867H42.5937" fill="#404041"/>
        <path d="M47.4091 6.2898L47.7784 6.2272C47.9347 6.19571 47.9536 6.1772 47.9536 6.08942V2.90466C47.9536 2.81098 47.9347 2.79208 47.7847 2.76688L47.4091 2.69169V2.50391H49.2739C50.1498 2.50391 50.6817 2.86687 50.6817 3.4865C50.6817 3.94985 50.2872 4.26872 49.8683 4.40021C50.425 4.5313 50.8568 4.88165 50.8568 5.41349C50.8568 6.2331 50.0809 6.47757 49.3928 6.47757H47.4091L47.4091 6.2898ZM49.0362 4.32498C49.6428 4.32498 50.0372 4.11201 50.0372 3.49907C50.0372 2.93573 49.6869 2.72316 49.1361 2.72316H49.0051C48.8669 2.72316 48.7232 2.74205 48.6232 2.77316V4.32495L49.0362 4.32498ZM49.2554 6.25865C49.8495 6.25865 50.1624 5.95197 50.1624 5.38865C50.1624 4.82531 49.6491 4.53793 49.0236 4.53793H48.6232V6.20826C48.7232 6.23307 48.9047 6.25866 49.0677 6.25866" fill="#404041"/>
        <path d="M51.216 6.32812L51.4538 6.27182C51.5727 6.24033 51.6601 6.23443 51.6601 6.14703V4.04453C51.6601 3.91305 51.6415 3.86896 51.3971 3.76935L51.2219 3.70046V3.56898L52.0482 3.3938H52.2419V4.09414C52.3797 3.69377 52.7178 3.3938 53.0619 3.3938C53.2556 3.3938 53.4434 3.53749 53.4434 3.70637C53.4434 4.00044 53.1367 4.15082 53.1367 4.15082C53.1056 4.08193 53.0367 3.91934 52.8367 3.91934C52.5923 3.91934 52.3049 4.10713 52.2419 4.27601V6.1219C52.2419 6.20298 52.3175 6.23448 52.4423 6.25338L52.9052 6.32817V6.47855H51.216" fill="#404041"/>
        <path d="M53.5709 5.79601C53.5709 5.23936 54.2153 5.03859 54.8034 4.8823L55.3668 4.73272V4.39455C55.3668 3.89381 55.1038 3.68123 54.6972 3.68123C54.5346 3.68123 54.322 3.71863 54.1779 3.80603L54.2838 3.96939C54.3279 4.0442 54.3468 4.13159 54.3468 4.19457C54.3468 4.36976 54.2405 4.55084 54.0153 4.55084C53.8087 4.55084 53.6957 4.41345 53.6957 4.20048C53.6957 3.9627 53.9023 3.79342 54.0716 3.70013L54.2531 3.58085C54.472 3.44976 54.7039 3.39307 54.9097 3.39307C55.5479 3.39307 55.9364 3.64974 55.9364 4.31936V5.68385C55.9364 5.93383 55.9423 6.04011 55.9797 6.1779C56.0986 6.2279 56.2864 6.24049 56.4557 6.24049V6.37158C56.2549 6.49047 55.9986 6.55346 55.8549 6.55346C55.5105 6.55346 55.4042 6.36568 55.3731 6.04681C55.1601 6.37158 54.8286 6.55346 54.422 6.55346C53.8901 6.55346 53.5709 6.27199 53.5709 5.79605L53.5709 5.79601ZM55.3667 5.84604V4.93904L54.8097 5.10162C54.4908 5.18902 54.1341 5.33939 54.1341 5.71495C54.1341 6.05272 54.3467 6.2031 54.6723 6.2031C54.9849 6.2031 55.2537 6.00272 55.3667 5.84604" fill="#404041"/>
        <path d="M56.5435 6.32812L56.7812 6.27182C56.9131 6.24033 56.9879 6.22183 56.9879 6.14703V4.04453C56.9879 3.91305 56.969 3.86896 56.7253 3.76935L56.5502 3.70046V3.56898L57.3757 3.3938H57.5698V4.05673C57.7449 3.70046 58.0701 3.3938 58.5586 3.3938C59.2216 3.3938 59.572 3.80676 59.572 4.44489V6.14716C59.572 6.23456 59.6723 6.24715 59.7727 6.27195L60.0097 6.32825V6.47863H58.5461V6.32825L58.7898 6.27195C58.9712 6.22826 58.9964 6.23456 58.9964 6.14716V4.62018C58.9964 4.17574 58.8839 3.76278 58.3335 3.76278C57.9391 3.76278 57.6761 4.01945 57.5698 4.25762V6.1472C57.5698 6.2346 57.6572 6.24719 57.7643 6.27199L58.0013 6.32829V6.47867H56.5435" fill="#404041"/>
        <path d="M62.3673 6.04026C62.1673 6.33433 61.8359 6.55361 61.3973 6.55361C60.6092 6.55361 60.14 5.90288 60.14 4.98281C60.14 4.10651 60.7596 3.39313 61.6481 3.39313C61.9169 3.39313 62.2236 3.51242 62.3673 3.6939V2.59872C62.3673 2.37316 62.3673 2.35465 62.0925 2.27355L61.8543 2.21095V2.09208L62.7991 1.948H62.9932C62.9621 2.19797 62.9495 2.57392 62.9495 2.86799V6.09644C62.9495 6.19053 62.968 6.20273 63.1184 6.24052L63.394 6.29682V6.4346L62.3673 6.58419L62.3673 6.04026ZM62.3673 5.87138V3.83766C62.2673 3.78136 62.061 3.66878 61.7544 3.66878C61.1662 3.66878 60.7596 4.18801 60.7596 4.93283C60.7596 5.75874 61.1473 6.1654 61.7544 6.1654C61.9732 6.1654 62.2425 6.02762 62.3673 5.87133" fill="#404041"/>
        <path d="M63.8286 5.42651H63.9974C64.0789 5.74537 64.1919 5.95795 64.2852 6.10833C64.4478 6.25202 64.6234 6.33351 64.8233 6.33351C65.1674 6.33351 65.4178 6.16462 65.4178 5.83906C65.4178 5.48279 65.2237 5.38872 65.0359 5.31981L64.5293 5.12575C64.1919 4.99466 63.8912 4.73169 63.8912 4.31243C63.8912 3.73058 64.4171 3.39282 64.9796 3.39282C65.2552 3.39282 65.493 3.48022 65.6241 3.5617L65.7056 3.39282H65.8622V4.36873H65.693C65.6615 4.13134 65.5867 3.97467 65.5178 3.83688C65.43 3.73058 65.2237 3.58651 65.0052 3.58651C64.7045 3.58651 64.4415 3.79318 64.4415 4.10575C64.4415 4.38761 64.5293 4.53761 64.7734 4.6317L65.3678 4.86317C65.6871 4.98205 65.9996 5.23872 65.9996 5.63908C65.9996 6.25202 65.4556 6.55278 64.9048 6.55278C64.5545 6.55278 64.2852 6.49019 64.1041 6.3772L64.0226 6.55278H63.8597" fill="#404041"/>
    </g>
    <defs>
        <linearGradient id="paint0_linear_722_255" x1="0.000112022" y1="4.44577" x2="8.90074" y2="4.44577" gradientUnits="userSpaceOnUse">
            <stop stop-color="#0073BC" stop-opacity="0.93725"/>
            <stop offset="1" stop-color="#031757"/>
        </linearGradient>
        <clipPath id="clip0_722_255">
            <rect width="66" height="8.90076" fill="white"/>
        </clipPath>
    </defs>
</svg>
