<svg width="39" height="25" viewBox="0 0 39 25" fill="none" xmlns="http://www.w3.org/2000/svg">
<g id="SUSD" clip-path="url(#clip0_1071_807)">
<g id="Group 4673">
<path id="Vector" d="M37.5505 25H0.658812C0.295003 25 0 24.7054 0 24.3421V0.657924C0 0.294605 0.295003 0 0.658812 0H37.5506C37.9144 0 38.2094 0.294605 38.2094 0.657924V24.3421C38.2093 24.7055 37.9143 25 37.5505 25Z" fill="#C1C1C1"/>
<path id="Vector 2" d="M15.264 24.9512L21.1086 0.0976562H27.0019L21.1086 24.9512H15.264Z" fill="#BCBCBC"/>
<path id="Vector 2.2" d="M21.2057 24.9512L27.0503 0.0976562H32.9436L27.0503 24.9512H21.2057Z" fill="#A9A9A9"/>
<path id="Vector 2.3" d="M3.38062 24.9512L9.2252 0.0976562H15.1185L9.2252 24.9512H3.38062Z" fill="#E2E2E2"/>
</g>
<g id="sonic-logo 2">
<g id="Frame 1116602412">
<g id="Logo">
<g id="Vector_6">
<path id="Vector_2" d="M21.0405 15.0559C17.2608 16.1561 14.1341 17.7608 12.1769 19.6411L12.0905 19.7245C12.6109 20.2019 13.1816 20.6288 13.7985 20.9916L13.9311 20.8345C14.4656 20.2019 15.0383 19.5907 15.6351 19.0144C17.2366 17.4678 19.0692 16.1289 21.0425 15.054L21.0405 15.0559Z" fill="black"/>
<path id="Vector_3" d="M9 13.4259C9.15071 15.3877 9.90224 17.1864 11.0818 18.6495L11.136 18.5971C12.3477 17.4387 13.9251 16.385 15.8281 15.4672C17.4959 14.662 19.4109 13.9712 21.4746 13.4259H9Z" fill="black"/>
<path id="Vector_4" d="M16.6921 5.36343C20.074 8.62915 24.33 10.7888 28.9979 11.6077C28.4353 6.76635 24.1833 3 19.017 3C17.6526 3 16.3525 3.2639 15.1649 3.7393C15.6472 4.30202 16.1616 4.84922 16.6921 5.36343Z" fill="black"/>
<path id="Vector_5" d="M12.1769 5.76313C14.1341 7.64536 17.2608 9.24814 21.0405 10.3503C19.0672 9.27337 17.2346 7.93642 15.6331 6.3899C15.0383 5.81552 14.4656 5.20429 13.9291 4.56977L13.7965 4.4126C13.1796 4.77546 12.6089 5.20235 12.0905 5.67969L12.1769 5.76313Z" fill="black"/>
<path id="Vector_7" d="M16.6921 20.0408C16.1596 20.555 15.6452 21.1022 15.1649 21.6649C16.3505 22.1403 17.6526 22.4042 19.017 22.4042C24.1833 22.4042 28.4353 18.6378 28.9999 13.7946C24.332 14.6134 20.076 16.7731 16.6941 20.0388L16.6921 20.0408Z" fill="black"/>
<path id="Vector_8" d="M15.8281 9.93705C13.9251 9.01923 12.3477 7.96558 11.136 6.80715L11.0818 6.75476C9.90224 8.21784 9.15071 10.0166 9 11.9784H21.4726C19.4089 11.4331 17.4959 10.7423 15.8261 9.93511L15.8281 9.93705Z" fill="black"/>
</g>
</g>
</g>
</g>
</g>
<defs>
<clipPath id="clip0_1071_807">
<rect width="38.2094" height="25" fill="white"/>
</clipPath>
</defs>
</svg>
