<svg width="160" height="26" viewBox="0 0 160 26" fill="none" xmlns="http://www.w3.org/2000/svg">
    <g clip-path="url(#clip0_41_2577)">
        <path d="M0.294189 25.2793H139.561L153.519 1.09576H0.294189V25.2793Z" fill="#FFD20A"/>
        <mask id="mask0_41_2577" style="mask-type:luminance" maskUnits="userSpaceOnUse" x="0" y="1" width="160" height="25">
            <path d="M0 25.6387H160V1.41479H0V25.6387Z" fill="white"/>
        </mask>
        <g mask="url(#mask0_41_2577)">
            <path d="M26.8119 9.85387C26.2369 9.41773 25.6075 9.22682 24.84 9.22682C24.0329 9.22682 23.3538 9.73824 23.3538 10.3529C23.3538 10.7114 23.5711 11.0055 24.1749 11.2112L25.1993 11.5581C26.351 11.9407 26.9516 12.5561 26.9516 13.5665C26.9516 15.5028 25.3002 17.0898 22.636 17.0898C21.3811 17.0898 20.4467 16.7577 19.7056 16.2827L20.6516 14.9122C21.3958 15.3491 22.0601 15.6037 22.9557 15.6037C24.0856 15.6037 24.8144 15.0147 24.8144 14.1307C24.8144 13.6814 24.5063 13.3865 23.8668 13.1707L22.9316 12.8502C21.9212 12.5057 21.3058 12.0175 21.3058 10.9799C21.3058 9.18646 22.9953 7.72747 25.1077 7.72747C26.1973 7.72747 27.2364 8.05963 27.8891 8.62304L26.8119 9.85387Z" fill="black"/>
            <path d="M31.6034 11.5187H30.4634L29.7719 14.8099C29.7207 15.0264 29.7067 15.2344 29.7067 15.3873C29.7067 15.7451 29.8992 15.8615 30.2849 15.8615C30.437 15.8615 30.7327 15.8087 30.9236 15.7327V16.771C30.4253 16.9612 29.9116 17.0527 29.4654 17.0527C28.479 17.0527 27.9148 16.5661 27.9148 15.9251C27.9148 15.6946 27.9404 15.3873 28.0056 15.0792L28.7599 11.5187H28.1073L28.3618 10.3398H29.0168C29.1448 9.6988 29.2341 9.2774 29.4134 8.79004L31.2193 8.35467C31.026 8.95689 30.8359 9.67475 30.6931 10.3398H32.2188L31.6034 11.5187Z" fill="black"/>
            <path d="M35.7661 11.5444C35.3416 11.5444 35.0234 11.57 34.5625 12.1086C34.0246 12.7481 33.7546 14.0418 33.7546 14.9125C33.7546 15.5031 33.909 15.7576 34.2807 15.7576C34.8186 15.7576 35.3688 15.2074 35.5496 14.7348L36.2279 11.6461C36.1511 11.5956 35.9206 11.5444 35.7661 11.5444ZM37.7528 12.2755L37.2274 14.7588C37.111 15.323 37.1615 15.7049 37.4688 16.0409L36.0486 17.1025C35.7405 16.8977 35.6 16.5539 35.5496 16.2954C35.0615 16.8092 34.5237 17.0769 33.8066 17.0769C32.6153 17.0769 32.0015 16.3467 32.0015 14.9886C32.0015 13.4147 32.6014 12.0178 33.3836 11.2363C34.0999 10.5192 34.9063 10.2127 35.9966 10.2127C36.7657 10.2127 37.6225 10.3392 38.175 10.6597C38.0338 11.0563 37.8537 11.7764 37.7528 12.2755Z" fill="black"/>
            <path d="M41.1344 10.1217C41.2492 10.339 41.3268 10.9032 41.3012 11.1849C41.8499 10.5966 42.5546 10.2001 43.5146 10.2001C44.348 10.2001 44.8346 10.6991 44.8346 11.493C44.8346 11.7755 44.7943 12.1332 44.733 12.4157L43.7854 16.8975H42.0944L43.0055 12.6322C43.0544 12.3761 43.0924 12.1845 43.0924 12.044C43.0924 11.7227 42.9527 11.6335 42.6438 11.6335C42.2348 11.6335 41.749 11.8896 41.2112 12.6191L40.3001 16.8975H38.6099L39.545 12.4794C39.6987 11.7623 39.6855 11.1981 39.545 10.7495L41.1344 10.1217Z" fill="black"/>
            <path d="M48.6521 9.37984L47.6137 14.2333C47.4477 15.0016 47.3972 15.3237 47.3972 15.5029C47.3972 15.7451 47.4996 15.8747 47.7301 15.8747C47.7945 15.8747 47.859 15.8747 47.921 15.8483L47.9994 16.8735C47.6913 16.9883 47.308 17.0527 46.9355 17.0527C46.0143 17.0527 45.5781 16.5537 45.5781 15.8747C45.5781 15.6426 45.6681 15.1545 45.7706 14.6834L46.8058 9.7896C46.9874 8.93206 47.0883 8.32983 46.9618 7.89447L48.7801 7.34346C48.8321 7.63837 48.8321 8.54791 48.6521 9.37984Z" fill="black"/>
            <path d="M51.6492 13.0416C52.3935 13.0416 53.2503 12.7863 53.2503 12.1337C53.2503 11.7355 53.0718 11.4554 52.5596 11.4554C51.9053 11.4554 51.4172 11.8388 51.1619 12.978C51.1619 12.978 51.4172 13.0416 51.6492 13.0416ZM54.1714 16.1816C53.2883 16.7954 52.4307 17.0771 51.508 17.0771C49.9458 17.0771 49.0254 16.2569 49.0254 14.6706C49.0254 13.3117 49.6261 11.9156 50.4983 11.0689C51.1479 10.4426 51.879 10.2005 52.7528 10.2005C54.0442 10.2005 54.9785 10.7119 54.9785 11.9932C54.9785 13.2349 53.8385 14.2469 51.6632 14.2469C51.2147 14.2469 50.8802 14.1561 50.8802 14.1561C50.8802 14.1561 50.8165 14.5798 50.8165 14.7459C50.8165 15.4893 51.2015 15.7951 51.9193 15.7951C52.5068 15.7951 53.1214 15.5398 53.7368 15.1052L54.1714 16.1816Z" fill="black"/>
            <path d="M57.593 10.2378L57.9143 14.0684C57.9383 14.4626 57.9647 15.4249 57.9647 15.4249C57.9647 15.4249 58.4133 14.2849 58.8479 13.4654L60.5001 10.3394H62.3432L58.5413 17.0011C57.8242 18.2692 57.3749 18.8179 56.8231 19.164C56.3233 19.4845 55.7242 19.6886 55.1073 19.7646L54.7627 18.613C55.1593 18.5237 55.621 18.3817 55.9151 18.204C56.4405 17.8866 56.6446 17.5901 57.0544 16.8979H56.5818C56.5554 16.4105 56.4925 15.6166 56.4141 15.0532L55.8251 10.4426L57.593 10.2378Z" fill="black"/>
            <path d="M64.9259 11.5582H65.9759C66.4656 11.5582 66.6945 11.4557 66.9134 11.3005C67.1935 11.0956 67.4512 10.7371 67.4512 10.3025C67.4512 9.75074 67.2059 9.52025 66.4656 9.52025H65.3512L64.9259 11.5582ZM64.1087 15.4385H65.2736C65.6453 15.4385 65.9635 15.336 66.1947 15.18C66.5929 14.9123 66.873 14.3605 66.873 13.8607C66.873 13.2345 66.5284 13.0296 65.7345 13.0296H64.6193L64.1087 15.4385ZM67.0663 7.99607C68.4127 7.99607 69.3828 8.63709 69.3828 9.91759C69.3828 10.7891 68.8341 11.7871 67.5156 12.1728C68.3336 12.3505 68.8473 13.0684 68.8473 13.9003C68.8473 14.463 68.6153 15.336 68.0138 15.9514C67.3596 16.6173 66.6185 16.8975 65.2348 16.8975H62.0063L63.903 7.99607H67.0663Z" fill="black"/>
            <path d="M72.9197 9.37984L71.8821 14.2333C71.7152 15.0016 71.664 15.3237 71.664 15.5029C71.664 15.7451 71.7672 15.8747 71.9977 15.8747C72.0606 15.8747 72.125 15.8747 72.1902 15.8483L72.267 16.8735C71.9589 16.9883 71.5748 17.0527 71.2015 17.0527C70.2811 17.0527 69.8457 16.5537 69.8457 15.8747C69.8457 15.6426 69.9349 15.1545 70.0366 14.6834L71.0758 9.7896C71.255 8.93206 71.3598 8.32983 71.2286 7.89447L73.0469 7.34346C73.0982 7.63837 73.0982 8.54791 72.9197 9.37984Z" fill="black"/>
            <path d="M77.2504 11.5444C76.8267 11.5444 76.5061 11.57 76.0444 12.1086C75.5081 12.7481 75.2396 14.0418 75.2396 14.9125C75.2396 15.5031 75.3925 15.7576 75.7642 15.7576C76.302 15.7576 76.8515 15.2074 77.0315 14.7348L77.7106 11.6461C77.633 11.5956 77.4033 11.5444 77.2504 11.5444ZM79.2355 12.2755L78.7078 14.7588C78.5922 15.323 78.645 15.7049 78.9538 16.0409L77.5305 17.1025C77.224 16.8977 77.0835 16.5539 77.0315 16.2954C76.5449 16.8092 76.0079 17.0769 75.2908 17.0769C74.0996 17.0769 73.4834 16.3467 73.4834 14.9886C73.4834 13.4147 74.0872 12.0178 74.8694 11.2363C75.5842 10.5192 76.3905 10.2127 77.4801 10.2127C78.2492 10.2127 79.1059 10.3392 79.6585 10.6597C79.5157 11.0563 79.3372 11.7764 79.2355 12.2755Z" fill="black"/>
            <path d="M84.7167 12.0051C84.435 11.6846 84.0648 11.5178 83.7443 11.5178C83.4347 11.5178 83.1677 11.645 82.9364 11.9027C82.4631 12.4405 82.0277 13.7955 82.0277 14.8098C82.0277 15.4889 82.3474 15.7822 82.8084 15.7822C83.2818 15.7822 83.7567 15.5145 84.2426 15.1288L84.8184 16.1935C84.1021 16.7445 83.3718 17.0635 82.4095 17.0635C80.9521 17.0635 80.1589 16.2183 80.1589 14.8098C80.1589 13.1832 80.9148 11.697 81.822 10.9287C82.4095 10.429 83.0637 10.1472 83.9748 10.1472C84.5763 10.1472 85.2406 10.3917 85.7147 10.9287L84.7167 12.0051Z" fill="black"/>
            <path d="M92.5673 10.339L89.8914 13.1832L91.6593 16.8975H89.6353L88.226 13.1832L90.4424 10.339H92.5673ZM89.1224 7.34263C89.2108 7.66236 89.1984 8.44385 88.9051 9.81515L87.3941 16.8975H85.6782L87.2171 9.69874C87.4065 8.7892 87.4337 8.26536 87.3444 7.89363L89.1224 7.34263Z" fill="black"/>
            <path d="M97.3199 10.1873C97.3199 9.81557 97.0638 9.55869 96.6804 9.55869C96.1155 9.55869 95.6436 10.0329 95.6436 10.6103C95.6436 10.878 95.7577 11.1737 96.1543 11.6339C96.8845 11.339 97.3199 10.7631 97.3199 10.1873ZM94.2747 14.8879C94.2747 15.4761 94.7092 15.8223 95.4768 15.8223C96.0899 15.8223 96.5904 15.6554 96.9342 15.3628L95.2696 13.3629C94.6332 13.7083 94.2747 14.2337 94.2747 14.8879ZM99.9849 12.5434C99.8343 13.4149 99.4727 14.4122 99.0133 15.054L100.485 16.8979H98.2194L97.7824 16.3337C97.1554 16.7714 96.3987 17.0771 95.1555 17.0771C93.3775 17.0771 92.3904 16.1948 92.3904 15.0268C92.3904 13.9535 93.1331 13.0036 94.5447 12.4161C94.0162 11.928 93.8758 11.505 93.8758 10.9424C93.8758 9.52067 95.1951 8.36822 96.9233 8.36822C98.2434 8.36822 99.0761 9.02088 99.0761 9.95681C99.0761 10.9424 98.7168 11.6859 97.1011 12.4293L96.9342 12.5062L98.1146 13.9279C98.3459 13.567 98.5243 12.7871 98.5507 12.5434H99.9849Z" fill="black"/>
            <path d="M103.47 15.4387H104.353C105.12 15.4387 105.699 15.0157 106.018 14.5144C106.812 13.2735 106.98 11.48 106.98 11.0066C106.98 10.1871 106.748 9.40559 105.559 9.40559H104.749L103.47 15.4387ZM105.277 7.99627C106.761 7.99627 107.673 8.16234 108.233 8.86778C108.644 9.39395 108.911 9.98065 108.911 11.0322C108.911 12.4928 108.385 14.3995 107.288 15.5659C106.35 16.5539 105.456 16.8984 103.495 16.8984H101.329L103.224 7.99627H105.277Z" fill="black"/>
            <path d="M111.987 13.0416C112.73 13.0416 113.588 12.7863 113.588 12.1337C113.588 11.7355 113.41 11.4554 112.899 11.4554C112.243 11.4554 111.759 11.8388 111.5 12.978C111.5 12.978 111.759 13.0416 111.987 13.0416ZM114.508 16.1816C113.627 16.7954 112.769 17.0771 111.847 17.0771C110.285 17.0771 109.361 16.2569 109.361 14.6706C109.361 13.3117 109.965 11.9156 110.836 11.0689C111.487 10.4426 112.219 10.2005 113.089 10.2005C114.381 10.2005 115.316 10.7119 115.316 11.9932C115.316 13.2349 114.179 14.2469 111.999 14.2469C111.552 14.2469 111.22 14.1561 111.22 14.1561C111.22 14.1561 111.156 14.5798 111.156 14.7459C111.156 15.4893 111.538 15.7951 112.257 15.7951C112.847 15.7951 113.462 15.5398 114.074 15.1052L114.508 16.1816Z" fill="black"/>
            <path d="M120.454 12.0051C120.172 11.6846 119.8 11.5178 119.481 11.5178C119.174 11.5178 118.903 11.645 118.676 11.9027C118.2 12.4405 117.765 13.7955 117.765 14.8098C117.765 15.4889 118.083 15.7822 118.545 15.7822C119.021 15.7822 119.493 15.5145 119.982 15.1288L120.557 16.1935C119.839 16.7445 119.112 17.0635 118.15 17.0635C116.687 17.0635 115.892 16.2183 115.892 14.8098C115.892 13.1832 116.65 11.697 117.56 10.9287C118.15 10.429 118.801 10.1472 119.711 10.1472C120.313 10.1472 120.977 10.3917 121.453 10.9287L120.454 12.0051Z" fill="black"/>
            <path d="M128.304 10.339L125.63 13.1832L127.398 16.8975H125.373L123.962 13.1832L126.18 10.339H128.304ZM124.859 7.34263C124.95 7.66236 124.936 8.44385 124.641 9.81515L123.13 16.8975H121.415L122.951 9.69874C123.144 8.7892 123.17 8.26536 123.08 7.89363L124.859 7.34263Z" fill="black"/>
            <path d="M130.74 13.0416C131.482 13.0416 132.341 12.7863 132.341 12.1337C132.341 11.7355 132.162 11.4554 131.648 11.4554C130.996 11.4554 130.51 11.8388 130.252 12.978C130.252 12.978 130.51 13.0416 130.74 13.0416ZM133.263 16.1816C132.379 16.7954 131.522 17.0771 130.6 17.0771C129.035 17.0771 128.112 16.2569 128.112 14.6706C128.112 13.3117 128.716 11.9156 129.586 11.0689C130.241 10.4426 130.971 10.2005 131.843 10.2005C133.136 10.2005 134.067 10.7119 134.067 11.9932C134.067 13.2349 132.929 14.2469 130.751 14.2469C130.303 14.2469 129.97 14.1561 129.97 14.1561C129.97 14.1561 129.907 14.5798 129.907 14.7459C129.907 15.4893 130.291 15.7951 131.008 15.7951C131.599 15.7951 132.214 15.5398 132.828 15.1052L133.263 16.1816Z" fill="black"/>
            <path d="M136.977 10.1217C137.082 10.339 137.183 10.8147 137.131 11.1849C137.708 10.5966 138.322 10.1869 138.963 10.1869C139.206 10.1869 139.322 10.2125 139.553 10.3273L138.811 11.8383C138.656 11.7491 138.502 11.7103 138.311 11.7103C137.979 11.7103 137.605 11.9027 137.069 12.6066L136.159 16.8975H134.441L135.363 12.5678C135.541 11.7491 135.518 11.1733 135.389 10.7495L136.977 10.1217Z" fill="black"/>
        </g>
    </g>
    <defs>
        <clipPath id="clip0_41_2577">
            <rect width="160" height="24.6738" fill="white" transform="translate(0 0.964844)"/>
        </clipPath>
    </defs>
</svg>
