<svg width="120" height="40" viewBox="0 0 120 40" fill="none" xmlns="http://www.w3.org/2000/svg">
<g clip-path="url(#clip0_114_8255)">
<path d="M43.5258 30.6753L41.9819 37.3397L40.0967 30.6753H38.6495L36.5105 37.3397L35.0632 30.6753H33.031L35.1805 39.4181H37.505L39.1739 33.9529L40.6918 39.4181H43.0523L45.2567 30.6753H43.5258Z" fill="#002856"/>
<path d="M52.5559 31.9509C50.813 31.9509 49.5657 33.2265 49.5657 35.0463C49.5657 36.981 50.924 38.1418 52.5559 38.1418C54.2704 38.1418 55.5562 36.9132 55.5562 35.0463C55.5562 33.5471 54.6088 31.9509 52.5559 31.9509ZM52.5559 39.6395C48.9649 39.6395 47.4561 37.2478 47.4561 35.0463C47.4561 32.3695 49.4667 30.4526 52.5559 30.4526C55.3903 30.4526 57.6567 32.1138 57.6567 35.0463C57.6567 37.5871 55.8436 39.6395 52.5559 39.6395Z" fill="#002856"/>
<path d="M66.9441 39.4181H69.2411L66.9128 35.9159C67.2872 35.7967 68.9715 35.3041 68.9715 33.4559C68.9715 32.0538 67.8491 30.6753 65.2252 30.6753H61.104V39.4181H63.0781V32.0865H64.9911C66.3548 32.0865 66.9493 32.7397 66.9493 33.4559C66.9493 34.2466 66.2413 34.8215 64.9911 34.8215H63.9798L66.9441 39.4181Z" fill="#002856"/>
<path d="M2.07716 36.7956C2.30451 37.0999 3.02743 38.1203 4.8996 38.1203C6.28247 38.1203 6.81745 37.6065 6.81745 37.0191C6.81745 36.4322 6.16134 36.1284 5.18272 35.9333C4.9818 35.8939 4.39251 35.7756 4.22091 35.742C2.9981 35.5016 1.0793 35.0604 1.0793 33.0378C1.0793 31.3867 2.54003 30.4312 4.76213 30.4312C7.56055 30.4312 8.6257 32.0111 8.71847 32.124L7.35819 33.1618C7.17122 32.9224 6.48243 31.9318 4.73955 31.9318C3.83927 31.9318 3.09808 32.2384 3.09808 32.8354C3.09808 33.6026 4.06854 33.7698 4.75925 33.9063C5.02698 33.9588 5.52206 34.0553 5.89169 34.1255C7.46586 34.4283 8.88959 35.2498 8.88959 36.8638C8.88959 38.6471 7.17506 39.6176 4.91979 39.6176C1.96179 39.6176 0.86829 38.1516 0.676025 37.9204L2.07716 36.7956Z" fill="#002856"/>
<path d="M84.6623 36.7956C84.8887 37.0999 85.6117 38.1198 87.4848 38.1198C88.8667 38.1198 89.4017 37.606 89.4017 37.0181C89.4017 36.4322 88.7456 36.1284 87.7669 35.9328C87.566 35.8938 86.9767 35.7756 86.8056 35.742C85.5828 35.5016 83.6645 35.0599 83.6645 33.0378C83.6645 31.3867 85.1243 30.4302 87.3473 30.4302C90.1448 30.4302 91.2104 32.0111 91.3027 32.124L89.9429 33.1618C89.7559 32.9224 89.0671 31.9318 87.3243 31.9318C86.424 31.9318 85.6823 32.2384 85.6823 32.8354C85.6823 33.6026 86.6533 33.7698 87.3444 33.9063C87.6117 33.9588 88.1068 34.0553 88.4764 34.1255C90.0506 34.4283 91.4738 35.2498 91.4738 36.8638C91.4738 38.6471 89.7593 39.6176 87.504 39.6176C84.5465 39.6176 83.4525 38.1515 83.2603 37.9189L84.6623 36.7956Z" fill="#002856"/>
<path d="M77.6766 34.7494L81.1148 30.6748H78.8715L75.4011 34.8224L79.1162 39.418H81.4503L77.6766 34.7494Z" fill="#002856"/>
<path d="M74.6079 30.6748H72.6343V39.4176H74.6079V30.6748Z" fill="#002856"/>
<path d="M17.1917 34.7494L20.6299 30.6748H18.3857L14.9163 34.8224L18.6318 39.418H20.9649L17.1917 34.7494Z" fill="#002856"/>
<path d="M14.1228 30.6748H12.1482V39.4176H14.1228V30.6748Z" fill="#002856"/>
<path d="M27.6014 35.9616V39.418H25.6441V35.9616L22.0896 30.6748H24.3925L26.7213 34.3437L29.0953 30.6748H31.0972L27.6014 35.9616Z" fill="#002856"/>
<path d="M118.977 1.92611C118.977 1.92611 108.851 6.95624 100.265 11.4245H95.8985C94.394 10.329 92.8189 9.19421 91.3865 8.18914C86.6029 4.82643 79.9309 0.454809 79.9309 0.454809C79.6761 0.292343 79.6352 0.352486 79.8751 0.536015C79.8751 0.536015 86.2487 5.32917 91.0361 8.69092C92.43 9.67244 93.9873 10.741 95.4918 11.7609L94.8136 14.3065C93.8109 14.8439 92.804 15.3895 91.7523 15.9624H89.434C85.4104 13.2202 81.4151 10.6011 81.4151 10.6011C81.1248 10.4064 81.07 10.4693 81.3565 10.6832C81.3565 10.6832 84.8975 13.3437 88.6741 16.0849L88.1805 17.9191C81.0119 21.8678 74.2345 25.7145 74.2345 25.7145C73.9048 25.9015 73.937 25.963 74.2754 25.7904C74.2754 25.7904 81.5319 22.1849 88.9702 18.367H91.8513C92.0767 18.5261 92.2983 18.6843 92.517 18.8371C93.5898 19.5918 94.7651 20.3964 95.9311 21.1909L95.6384 22.2893C94.6185 22.8487 93.5898 23.4241 92.6487 23.96H90.8352L90.5122 25.1848C89.4138 25.8159 88.7034 26.2341 88.7034 26.2341C88.2891 26.4624 88.3391 26.5518 88.765 26.3499C88.765 26.3499 89.6398 25.9336 90.9332 25.2996H92.6252L92.8852 24.3368C93.897 23.8336 94.9953 23.2789 96.0773 22.7233H98.1869C101.335 24.8425 103.974 26.5729 103.974 26.5729C104.304 26.7921 104.351 26.7233 104.029 26.4911C104.029 26.4911 101.589 24.655 98.5931 22.4589L98.9257 21.2101C102.517 19.2543 106.393 16.9779 106.393 16.9779C106.819 16.7274 106.775 16.651 106.332 16.8615C106.332 16.8615 102.033 18.914 98.3273 20.8496H96.3868C95.1972 19.9844 93.9902 19.1211 92.8708 18.3348C92.6078 18.1521 92.342 17.9642 92.0729 17.7758L92.3858 16.602C93.4971 16.0271 94.5863 15.458 95.6269 14.9081H100.192C101.579 15.8291 102.492 16.4256 102.492 16.4256C102.733 16.5818 102.782 16.5174 102.547 16.3448C102.547 16.3448 101.664 15.681 100.314 14.6769L101.028 12.0116C109.45 7.43328 119.015 2.00181 119.015 2.00181C119.448 1.75379 119.419 1.70255 118.977 1.92611Z" fill="#2C88B5"/>
<path d="M93.0329 31.7974H93.4073C93.4866 31.7974 93.5486 31.7893 93.5933 31.7729C93.638 31.7566 93.6722 31.7301 93.6952 31.6936C93.7183 31.658 93.7298 31.6187 93.7298 31.5759C93.7298 31.5139 93.7073 31.4629 93.6621 31.423C93.6174 31.3827 93.5462 31.363 93.4491 31.363H93.0329L93.0329 31.7974ZM92.8584 32.5338V31.2173H93.4419C93.5592 31.2173 93.6486 31.2282 93.7097 31.2528C93.7707 31.2764 93.8192 31.3182 93.8558 31.3783C93.8923 31.4379 93.9106 31.5042 93.9106 31.5764C93.9106 31.6701 93.8803 31.7484 93.8197 31.8128C93.7596 31.8767 93.6659 31.9176 93.54 31.9349C93.5856 31.957 93.6207 31.9787 93.6448 32.0003C93.6957 32.0469 93.7438 32.1051 93.789 32.1753L94.0163 32.5339H93.7991L93.6251 32.2599C93.5741 32.1806 93.5323 32.1205 93.4991 32.0787C93.4664 32.0364 93.4371 32.007 93.4112 31.9902C93.3852 31.9739 93.3588 31.9619 93.3318 31.9556C93.3117 31.9515 93.2795 31.9488 93.2348 31.9488H93.0329V32.5333L92.8584 32.5338Z" fill="#002856"/>
<path d="M94.5448 31.8849C94.5448 32.5425 94.0117 33.0755 93.3542 33.0755C92.6966 33.0755 92.1636 32.5425 92.1636 31.8849C92.1636 31.2274 92.6966 30.6943 93.3542 30.6943C94.0117 30.6943 94.5448 31.2274 94.5448 31.8849Z" stroke="#002856" stroke-width="0.728"/>
</g>
<defs>
<clipPath id="clip0_114_8255">
<rect width="119.369" height="40" fill="white" transform="translate(0.31543)"/>
</clipPath>
</defs>
</svg>
