<?xml version="1.0" encoding="UTF-8"?>
<svg width="512px" height="512px" viewBox="0 0 512 512" version="1.1" xmlns="http://www.w3.org/2000/svg" xmlns:xlink="http://www.w3.org/1999/xlink">
    <!-- Generator: Sketch 48.1 (47250) - http://www.bohemiancoding.com/sketch -->
    <title>SX5E</title>
    <desc>Created with Sketch.</desc>
    <defs></defs>
    <g id="Компании-BIG" stroke="none" stroke-width="1" fill="none" fill-rule="evenodd">
        <g id="SX5E" fill-rule="nonzero">
            <g id="europe-26">
                <polygon id="Shape" fill="#111E8A" points="0 512 512 512 512 0 0 0"></polygon>
                <g id="Group" transform="translate(61.939641, 67.654160)" fill="#FCFC02">
                    <path d="M29.6852893,129.958199 L35.1520967,113.068767 L20.8228769,102.63174 L38.5418674,102.63174 L44.0086748,85.7598102 L49.4754822,102.649242 L67.1886383,102.649242 L52.8652529,113.068767 L58.3262259,129.958199 L44.0086748,119.50367 L29.6852893,129.958199 Z M8.85657806,214.242007 L14.3350542,197.364243 L0,186.921382 L17.7131561,186.921382 L23.1974667,170.06112 L28.6642741,186.921382 L46.3832646,186.921382 L32.0540447,197.364243 L37.5208521,214.247841 L23.1974667,203.810814 L8.85657806,214.242007 Z M179.138586,377.022295 L184.617062,360.167867 L170.293676,349.736673 L188.006832,349.736673 L193.47364,332.841407 L198.952116,349.736673 L216.653603,349.736673 L202.330218,360.167867 L207.797025,377.022295 L193.47364,366.608603 L179.138586,377.022295 Z M91.8330295,69.9788383 L97.3115056,53.1069083 L82.9822858,42.6640471 L100.701276,42.6640471 L106.168084,25.7862831 L111.640725,42.6640471 L129.348047,42.6640471 L115.012993,53.1069083 L120.491469,69.9788383 L106.168084,59.5534791 L91.8330295,69.9788383 Z M30.8346608,294.185319 L36.3014682,277.307555 L21.9839171,266.882196 L39.6912388,266.882196 L45.1580463,249.998598 L50.6423568,266.882196 L68.3496785,266.882196 L54.0146243,277.307555 L59.5047692,294.185319 L45.1580463,283.75996 L30.8346608,294.185319 Z M93.2799539,355.033946 L98.7525957,338.162016 L84.4233759,327.713321 L102.130698,327.713321 L107.603339,310.853059 L113.081816,327.713321 L130.800806,327.713321 L116.454083,338.162016 L121.944228,355.033946 L107.603339,344.585251 L93.2799539,355.033946 Z M263.556127,353.283746 L269.040438,336.405982 L254.693715,325.980623 L272.406871,325.980623 L277.885347,309.097025 L283.369657,325.980623 L301.071145,325.980623 L286.759428,336.405982 L292.208732,353.283746 L277.885347,342.864221 L263.556127,353.283746 Z M323.691009,293.601919 L329.157816,276.729989 L314.840265,266.30463 L332.547587,266.30463 L338.020228,249.421032 L343.49287,266.30463 L361.206026,266.30463 L346.882641,276.729989 L352.343614,293.601919 L338.020228,283.170726 L323.691009,293.601919 Z M349.72398,210.467409 L355.179119,193.601313 L340.855734,183.152618 L358.56889,183.152618 L364.047366,166.274854 L369.49667,183.152618 L387.215661,183.152618 L372.892275,193.601313 L378.364917,210.467409 L364.047366,200.036216 L349.72398,210.467409 Z M324.56033,127.338733 L330.021303,110.455135 L315.692083,100.029776 L333.405239,100.029776 L338.88955,83.1520119 L344.362192,100.029776 L362.069513,100.029776 L347.740294,110.455135 L353.21877,127.338733 L338.88955,116.913374 L324.56033,127.338733 Z M262.406756,68.5320061 L267.891066,51.6542421 L253.538509,41.2172149 L271.257499,41.2172149 L276.735975,24.3452849 L282.208617,41.2172149 L299.933442,41.2172149 L285.592553,51.6542421 L291.065195,68.5320061 L276.735975,58.1066469 L262.406756,68.5320061 Z M176.548124,44.1925552 L182.014931,27.3264592 L167.685712,16.883598 L185.398868,16.883598 L190.865675,0 L196.344151,16.883598 L214.045639,16.883598 L199.716419,27.3264592 L205.194895,44.2100572 L190.865675,33.761362 L176.548124,44.1925552 Z" id="Shape"></path>
                </g>
            </g>
        </g>
    </g>
</svg>