<svg width="160" height="36" viewBox="0 0 160 36" fill="none" xmlns="http://www.w3.org/2000/svg">
    <g clip-path="url(#clip0_41_2625)">
        <path d="M73.9733 16.2124V25.3324H71.8933V16.2124C71.8933 13.4391 70.7733 12.1591 68.32 12.1591C65.44 12.1591 63.8933 14.2924 63.8933 16.4258V25.3858H61.8133V10.3458H63.8933V11.9991C64.9066 10.9324 66.5066 10.1324 68.4266 10.1324C72 10.1324 73.9733 12.3191 73.9733 16.2124ZM98.88 10.1324C96.9066 10.1324 95.36 10.9324 94.3466 11.9991V3.73242H92.2666V25.3324H94.3466V16.3724C94.3466 14.2391 95.84 12.1058 98.7733 12.1058C101.227 12.1058 102.347 13.3858 102.347 16.1591V25.3324H104.427V16.2124C104.427 12.3191 102.453 10.1324 98.88 10.1324ZM130.08 17.7591V17.9724C130.08 22.3458 126.987 25.5991 122.88 25.5991C118.88 25.5991 115.68 22.2391 115.68 17.9724V17.7591C115.68 13.4391 118.773 10.1324 122.933 10.1324C127.093 10.1858 130.08 13.3324 130.08 17.7591ZM127.947 17.9724V17.7591C127.947 14.4524 125.867 12.1591 122.933 12.1591C120 12.1591 117.813 14.5058 117.813 17.8124V18.0258C117.813 21.2791 119.947 23.6258 122.88 23.6258C125.867 23.5724 127.947 21.2791 127.947 17.9724ZM139.093 10.1324C137.12 10.1324 135.573 10.9324 134.56 11.9991V10.3458H132.48V25.3858H134.56V16.3724C134.56 14.2391 136.053 12.1058 138.987 12.1058C141.44 12.1058 142.56 13.3858 142.56 16.1591V25.3324H144.64V16.2124C144.64 12.3191 142.667 10.1324 139.093 10.1324ZM83.2533 23.5724C80.32 23.5724 78.1866 21.2258 78.1866 17.9724V17.7591C78.1866 14.5058 80.32 12.1058 83.3066 12.1058C85.3333 12.1058 86.9866 13.2258 87.7866 14.9858H90.0266C89.0666 12.0524 86.5066 10.1324 83.3066 10.1324C79.2 10.1324 76.0533 13.3858 76.0533 17.7591V17.9724C76.0533 22.2391 79.2 25.5991 83.2533 25.5991C86.72 25.5991 89.4933 23.2524 90.24 19.8391H88.0533C87.4133 22.1324 85.6 23.5724 83.2533 23.5724ZM114.133 10.1324C112.16 10.1324 110.613 10.9324 109.6 11.9991V10.3458H107.52V25.3858H109.6V16.3724C109.6 14.2391 111.093 12.1058 114.027 12.1058C114.56 12.1058 115.093 12.1591 115.52 12.3191V10.2391C115.04 10.1858 114.613 10.1324 114.133 10.1324ZM40.2133 16.6924C36.8533 16.1591 36.2666 15.5191 36.2666 14.3458C36.2666 13.0658 37.6 12.1591 39.5733 12.1591C41.6 12.1591 42.7733 12.9058 43.0933 14.5058V14.6124H45.3333L45.28 14.3458C44.8533 11.6791 42.8266 10.2391 39.6266 10.2391C36.4266 10.2391 34.1333 11.9991 34.1333 14.3991C34.1333 17.5458 36.8 18.2391 39.7333 18.7191C42.5066 19.1991 43.36 19.5724 43.36 21.2258C43.36 22.7191 41.9733 23.6791 39.84 23.6791C36.9066 23.6791 36.0533 22.1324 35.7866 20.7991H33.5466C33.8133 23.7858 36.2133 25.6524 39.84 25.6524C43.2 25.6524 45.5466 23.7858 45.5466 21.1724C45.6 17.8658 43.04 17.1724 40.2133 16.6924ZM157.333 10.3458L152.8 22.6658L147.467 10.3458H145.28L151.627 25.2791L149.653 31.1458H151.84L159.467 10.3458H157.333ZM57.8666 10.3458L53.3333 22.6658L48 10.3458H45.8133L52.16 25.2791L50.1866 31.1458H52.3733L60 10.3458H57.8666Z" fill="#343741"/>
        <path d="M7.09345 17.8653H0.533447V34.8253H7.09345V17.8653ZM16.7468 0.905273V34.8253H10.1868V0.905273H16.7468ZM26.3468 0.905273V17.8653H19.8401V0.905273H26.3468Z" fill="#F9C20A"/>
    </g>
    <defs>
        <clipPath id="clip0_41_2625">
            <rect width="160" height="34.4533" fill="white" transform="translate(0 0.638672)"/>
        </clipPath>
    </defs>
</svg>
