<svg width="152" height="41" viewBox="0 0 152 41" fill="none" xmlns="http://www.w3.org/2000/svg">
    <path d="M39.9459 27.718C38.1753 27.718 37.0259 27.2556 37.0118 25.7792C37.0259 24.9227 37.0118 14.5721 37.0118 14.5721H44.4036V9.16268H37.0118V1.7168H31.6165V9.16268H12.9212C12.9212 9.16268 5.29771 8.83797 5.29771 16.5203C5.29771 24.178 12.9212 23.8533 12.9212 23.8533H21.9789C23.5636 23.8533 23.8942 25.1603 23.8942 25.7839C23.8942 26.3862 23.5577 27.7239 21.9789 27.7239H1.88477V33.1309H21.8977C21.8977 33.1309 29.6424 33.4697 29.6424 25.7674C29.6424 18.285 21.8977 18.4427 21.8977 18.4427H12.8824C11.3059 18.4486 10.9647 17.1133 10.9671 16.5086C10.973 15.8991 11.2953 14.578 12.8824 14.5721C14.4918 14.578 31.6248 14.5721 31.6248 14.5721L31.6212 25.7792C31.6212 25.7792 30.9718 33.1309 38.6801 33.1309H44.4036V27.718" fill="black"/>
    <path d="M58.5859 19.9631H63.9988V16.4195C63.9988 8.84307 56.5141 9.16307 56.5141 9.16307H46.4482V33.129H51.9259L51.92 14.7643L56.4882 14.7584C57.8753 14.7643 58.5859 15.5525 58.5859 17.1113" fill="black"/>
    <path d="M144.707 19.9631H150.117V16.4195C150.117 8.84307 142.634 9.16307 142.634 9.16307H132.568V33.129H138.044L138.038 14.7643L142.61 14.7584C143.995 14.7643 144.707 15.5525 144.707 17.1113" fill="black"/>
    <path d="M63.6094 33.5043V38.9054H70.4117C70.7811 38.9337 72.9835 38.9678 74.8105 37.7537C77.4082 36.2031 78.6788 32.2454 78.9717 31.2454C79.3164 30.0454 85.5846 9.16309 85.5846 9.16309H79.607L74.9035 26.1513L70.1905 9.16309H64.2164L70.8658 31.2396L71.0376 31.796C71.2893 32.5984 70.9341 33.496 70.1011 33.5043" fill="black"/>
    <path d="M92.6613 18.245V1.7168H87.2566V33.1286H92.6613V26.3886L95.7272 22.5686L101.673 33.1286H107.862L99.5813 18.378L107.191 9.16268H100.152" fill="black"/>
    <path d="M112.289 18.4658C112.747 16.3564 115.576 14.2552 118.4 14.2552C121.221 14.2552 123.926 16.1528 124.507 18.4658H112.289ZM130.369 21.0493C130.364 14.4222 125.34 9.0293 118.4 9.0293C110.938 9.16224 106.344 14.4328 106.344 21.0634C106.346 27.5858 111.378 33.1281 118.027 33.1246H125.828V27.7175H118.513C115.718 27.7175 112.642 25.6905 112.289 23.1834H130.176C130.304 22.4858 130.369 21.7858 130.369 21.0493Z" fill="black"/>
</svg>
