<svg width="160" height="32" viewBox="0 0 160 32" fill="none" xmlns="http://www.w3.org/2000/svg">
<path fill-rule="evenodd" clip-rule="evenodd" d="M18.959 24.3167C17.3068 25.9635 15.1123 26.8693 12.7792 26.8693C10.4475 26.8693 8.25372 25.9628 6.60285 24.3187C4.95197 22.6705 4.04218 20.4813 4.04218 18.153C4.04218 15.8273 4.95197 13.6388 6.60151 11.992C8.25439 10.3451 10.4475 9.43933 12.7792 9.43933C15.1103 9.43933 17.3054 10.3458 18.9583 11.9906C20.6072 13.6388 21.5156 15.8273 21.5156 18.1536C21.5156 20.4813 20.6079 22.6705 18.959 24.3167ZM12.7792 5.40519C5.73456 5.40653 0 11.125 0 18.1536C0 25.1829 5.73456 30.9028 12.7792 30.9041C19.8246 30.9028 25.5585 25.1836 25.5585 18.1536C25.5585 11.125 19.8246 5.40653 12.7786 5.40519H12.7792ZM26.6999 4.43649H27.6974V3.44369H26.6999V4.43649ZM26.6999 2.45758H27.6974V1.46143H26.6999V2.45758ZM23.8976 5.39984H24.8288V4.42912H23.8976V5.39984Z" fill="#F3B53B"/>
<path fill-rule="evenodd" clip-rule="evenodd" d="M22.0519 7.26354H22.9905V6.33568H22.0519V7.26354ZM24.8282 6.33568H25.8712V5.39978H24.8282V6.33568ZM21.1194 6.33568H22.0526V5.44597H21.1194V6.33568ZM23.8976 7.26354H24.8288L24.8282 6.33568H23.8976V7.26354ZM25.7152 3.44229H26.7V2.45752H25.7152V3.44229ZM23.8976 4.42907H25.7152V3.44229L23.8976 3.44296V4.42907ZM22.9905 6.33568H23.8956V4.42907H22.9905V6.33568ZM22.9905 8.19944H22.0519V7.26354H20.4954V7.93769H19.662V8.76982H20.5939V9.69568H19.662V8.76982H18.6712V10.2225H17.7339V11.1497H17.1134V12.081H16.4305C15.662 13.2204 13.7393 16.7685 13.1562 18.2158C11.0608 15.3064 9.43402 14.1516 8.15268 13.7332C7.45979 13.5263 6.62699 14.2774 7.77578 15.4597C10.4134 18.3517 11.2436 20.7484 12.0456 22.6604C12.47 23.6679 14.3706 23.8239 14.7535 22.7989C15.5649 20.6292 16.7418 18.1917 18.1343 16.1914V15.1524H18.8787V14.2192H19.6613V13.1347H20.5965V12.0903H19.6506V11.141H20.5965V12.0903H21.5204L21.5177 11.1497H22.2608V10.0157H23.0936V9.23442H23.8969L23.8976 7.26354H22.9905V8.19944ZM73.2051 21.2351C73.1261 21.6214 72.9882 21.9735 72.798 22.2821C72.6026 22.5948 72.3374 22.8471 72.0081 23.0339C71.6787 23.2207 71.2697 23.3144 70.7897 23.3144C70.311 23.3144 69.904 23.2207 69.5806 23.0333C69.2586 22.8471 68.9969 22.5941 68.8027 22.2821C68.6113 21.9742 68.4733 21.622 68.3944 21.2351C68.316 20.8542 68.2765 20.4592 68.2765 20.0595C68.2765 19.6605 68.3167 19.2609 68.3944 18.8746C68.4733 18.481 68.6113 18.1281 68.8027 17.8262C68.9975 17.5216 69.2586 17.2686 69.5793 17.0764C69.9033 16.8823 70.311 16.7839 70.7897 16.7839C71.2697 16.7839 71.68 16.8823 72.0094 17.0758C72.3381 17.2686 72.6026 17.521 72.7974 17.8256C72.9882 18.1281 73.1254 18.4816 73.2057 18.8746C73.2841 19.2609 73.3236 19.6592 73.3236 20.0595C73.3236 20.4592 73.2827 20.8542 73.2051 21.2351ZM74.475 16.338C74.0365 15.8975 73.5016 15.5514 72.8817 15.3097C72.2611 15.0674 71.5575 14.9442 70.7897 14.9442C70.0225 14.9442 69.3229 15.0667 68.7077 15.3097C68.0944 15.5507 67.5615 15.8975 67.1244 16.338C66.6872 16.7779 66.3451 17.3188 66.1068 17.9461C65.8678 18.5747 65.748 19.285 65.748 20.0595C65.748 20.8334 65.8685 21.5404 66.1075 22.1623C66.3451 22.7849 66.6872 23.3218 67.1251 23.7623C67.5615 24.2028 68.0944 24.5442 68.7077 24.7799C69.3222 25.0162 70.0225 25.136 70.7897 25.136C71.5575 25.136 72.2625 25.0155 72.8831 24.7799C73.5016 24.5442 74.0365 24.2028 74.475 23.7623C74.9122 23.3211 75.2549 22.7849 75.4926 22.1623C75.7316 21.5397 75.8521 20.8321 75.8521 20.0602C75.8521 19.2863 75.7316 18.5747 75.4926 17.9461C75.2549 17.3194 74.9122 16.7785 74.475 16.338ZM85.438 16.022C85.1803 15.6873 84.8221 15.4222 84.3716 15.2327C83.9177 15.042 83.3246 14.9449 82.6096 14.9449C82.0506 14.9449 81.4949 15.0727 80.9587 15.3265C80.4272 15.5775 79.8635 15.9845 79.5287 16.5382L79.4986 16.5877C79.4826 16.6132 79.4625 16.6252 79.4384 16.6252C79.4136 16.6252 79.4029 16.6132 79.4029 16.5877V15.2127H77.0069V24.8863H79.5381V19.8105C79.5381 18.7862 79.7122 18.0358 80.0583 17.5812C80.4131 17.1159 80.9855 16.8796 81.7621 16.8796C82.4516 16.8796 82.9423 17.0985 83.2174 17.529C83.4839 17.9461 83.6191 18.578 83.6191 19.4095V24.887H86.1483V18.9121C86.1483 18.3116 86.0948 17.7559 85.987 17.2612C85.8812 16.7758 85.6971 16.3574 85.438 16.022ZM38.5982 20.8749L32.6528 11.4738H29.9241V24.9131H32.4332V15.4677L32.6333 15.7784L38.3592 24.9131H41.108V11.4738H38.5989L38.5982 20.8749ZM49.7205 21.2351C49.6415 21.6214 49.505 21.9735 49.3122 22.2821C49.118 22.5948 48.8523 22.8471 48.5242 23.0339C48.1942 23.2207 47.7845 23.3144 47.3058 23.3144C46.8258 23.3144 46.4201 23.2207 46.0968 23.0333C45.7741 22.8471 45.5123 22.5941 45.3189 22.2821C45.1267 21.9735 44.9888 21.6214 44.9105 21.2351C44.8322 20.8542 44.792 20.4592 44.792 20.0595C44.792 19.6605 44.8322 19.2609 44.9105 18.8746C44.9888 18.4816 45.1267 18.1281 45.3189 17.8262C45.513 17.5216 45.7741 17.2686 46.0954 17.0764C46.4195 16.8823 46.8258 16.7839 47.3058 16.7839C47.7852 16.7839 48.1955 16.8823 48.5256 17.0758C48.8536 17.2679 49.1187 17.521 49.3122 17.8256C49.505 18.1281 49.6415 18.4816 49.7205 18.8746C49.7995 19.2609 49.839 19.6592 49.839 20.0595C49.839 20.4592 49.7995 20.8542 49.7212 21.2351H49.7205ZM50.9905 16.338C50.5527 15.8975 50.0164 15.5514 49.3972 15.3097C48.7773 15.0674 48.073 14.9442 47.3058 14.9442C46.5386 14.9442 45.8384 15.0667 45.2238 15.3097C44.6106 15.5507 44.0777 15.8975 43.6412 16.338C43.2027 16.7779 42.86 17.3188 42.6236 17.9461C42.384 18.5747 42.2628 19.285 42.2628 20.0595C42.2628 20.8334 42.384 21.5404 42.623 22.1623C42.86 22.7849 43.2027 23.3218 43.6405 23.7623C44.0777 24.2028 44.6106 24.5442 45.2225 24.7799C45.8384 25.0162 46.5386 25.136 47.3058 25.136C48.073 25.136 48.7773 25.0155 49.3985 24.7799C50.0171 24.5442 50.5527 24.2028 50.9905 23.7623C51.4277 23.3211 51.7718 22.7835 52.0081 22.1623C52.2464 21.5397 52.3682 20.8328 52.3682 20.0602C52.3682 19.2863 52.2464 18.5747 52.0074 17.9461C51.7718 17.3194 51.4277 16.7785 50.9905 16.338ZM63.1887 12.3066L60.6595 12.2831L60.6327 15.0861H59.9746C59.9746 15.0861 58.7716 15.0399 57.7266 15.4249C57.0846 15.6605 56.5483 16.0736 56.2022 16.6982C56.1353 16.8214 56.075 16.9526 56.0228 17.0932C56.0148 17.1226 55.9954 17.138 55.9639 17.138C55.9331 17.138 55.9184 17.1226 55.9184 17.0932V15.2589H53.5231V24.9332H56.0529V20.583C56.0529 20.1312 56.0978 19.7054 56.1902 19.3178C56.2484 19.0674 56.3368 18.8384 56.4459 18.6262C56.9038 17.8945 57.8939 17.1648 60.0288 17.1434H60.6113L60.557 22.7862C60.553 23.2642 60.6293 23.6538 60.7846 23.9444C60.9379 24.2329 61.1528 24.4599 61.4233 24.6165C61.6964 24.7772 62.0218 24.8897 62.3846 24.9472C62.7569 25.0075 63.1565 25.0396 63.5743 25.0436C63.834 25.047 64.1125 25.0423 64.3984 25.0316C64.6407 25.0235 64.867 25.0048 65.0698 24.9767L65.0899 23.0861C64.9935 23.1009 64.8964 23.1116 64.7967 23.1196C64.6521 23.131 64.4995 23.1363 64.3441 23.135C63.8481 23.1297 63.5227 23.0426 63.3467 22.8659C63.1739 22.6898 63.0909 22.3651 63.0949 21.8731L63.1418 17.1434H65.0899V15.0861H63.1619L63.1887 12.3066ZM91.8441 12.496H88.8991V24.8515H97.8605V22.5747H91.8441V12.496ZM99.1264 24.8515H101.855V15.1437H99.1264V24.8515ZM99.1264 13.7994H101.855V11.4738H99.1264V13.7994ZM105.323 12.4264C104.907 12.8321 104.745 13.4674 104.745 14.6851V15.1437H103.246V17.2619H104.745V24.8515H107.527V17.2619H109.551V15.1631H107.509V14.7748C107.509 14.2975 107.545 14.1027 107.636 13.9976C107.744 13.9092 107.852 13.8738 108.214 13.8738H109.551V11.8272H107.274C106.209 11.8272 105.739 12.02 105.323 12.4264ZM112.984 19.0975C113.002 17.7392 113.093 17.4386 113.218 17.3148C113.346 17.1742 113.634 17.1387 114.104 17.1387H115.604C116.164 17.1387 116.327 17.1916 116.436 17.298C116.561 17.4386 116.652 17.7914 116.652 19.0975H112.984ZM116.526 15.1437H113.165C112.153 15.1437 111.611 15.303 111.196 15.7261C110.545 16.3789 110.292 17.1387 110.292 19.9973C110.292 22.8572 110.545 23.6157 111.196 24.2517C111.629 24.6928 112.153 24.8515 113.165 24.8515H116.851C117.916 24.8515 118.314 24.5864 118.622 24.2858C119.109 23.8105 119.272 23.2508 119.291 21.8035H116.742C116.724 22.493 116.688 22.5747 116.598 22.6804C116.489 22.8043 116.345 22.8572 115.785 22.8572H114.104C113.634 22.8572 113.346 22.821 113.219 22.6798C113.111 22.5573 113.002 22.2895 112.985 20.7538H118.893C119.217 20.7538 119.29 20.648 119.29 20.3661V19.9089C119.29 17.1213 119.145 16.3628 118.495 15.7268C118.08 15.303 117.538 15.1444 116.526 15.1444L116.526 15.1437ZM122.314 12.4967H120.886V24.8515H128.746V23.6518H122.314V12.4967ZM135.946 23.4222C135.748 23.6163 135.476 23.6866 134.79 23.6866H132.549C131.863 23.6866 131.592 23.6163 131.375 23.4222C131.087 23.139 130.942 22.6804 130.942 20.1218C130.942 17.5805 131.087 17.1206 131.375 16.8388C131.592 16.6266 131.863 16.573 132.549 16.573H134.79C135.476 16.573 135.748 16.6266 135.946 16.8388C136.236 17.1206 136.398 17.5805 136.398 20.1218C136.398 22.6804 136.236 23.139 135.946 23.4222ZM134.934 15.4088H132.404C131.412 15.4088 130.851 15.5333 130.436 15.9384C129.822 16.5389 129.604 17.2974 129.604 20.1218C129.604 22.963 129.822 23.7221 130.436 24.322C130.851 24.7276 131.412 24.8515 132.404 24.8515H134.934C135.909 24.8515 136.488 24.7276 136.886 24.322C137.518 23.7221 137.735 22.963 137.735 20.1218C137.735 17.298 137.518 16.5389 136.886 15.9384C136.488 15.5333 135.909 15.4081 134.934 15.4081V15.4088ZM145.206 23.4396C144.99 23.6338 144.755 23.6873 144.159 23.6873H142.045C141.358 23.6873 141.087 23.6157 140.87 23.4215C140.581 23.1404 140.437 22.6804 140.437 20.1211C140.437 17.5799 140.581 17.1213 140.87 16.8381C141.087 16.6266 141.358 16.5737 142.045 16.5737H144.159C144.755 16.5737 144.971 16.6272 145.17 16.8207C145.369 17.0148 145.478 17.298 145.532 18.497H146.833C146.796 16.9265 146.615 16.3266 146.164 15.8855C145.803 15.5327 145.386 15.4088 144.429 15.4088H141.9C140.906 15.4088 140.345 15.5327 139.931 15.9384C139.317 16.5389 139.1 17.2974 139.1 20.1218C139.1 22.963 139.317 23.7228 139.931 24.3226C140.346 24.7276 140.906 24.8515 141.9 24.8515H144.447C145.369 24.8515 145.821 24.7096 146.164 24.3755C146.634 23.9156 146.814 23.368 146.869 21.6575H145.568C145.532 22.8565 145.424 23.2281 145.206 23.4396ZM155.857 15.4088H154.25L150.691 19.5394H149.697V12.1439H148.36V24.8515H149.697V20.6333H150.654L154.322 24.8515H156.003L151.739 20.016L155.857 15.4088ZM159.107 14.9884L158.793 16.1573L158.463 14.9884H157.947V16.5891H158.274V15.3653L158.623 16.5891H158.93L159.284 15.3653V16.5891H159.621V14.9884H159.107ZM156.418 15.2508H156.85V16.5891H157.192V15.2508H157.617V14.9884H156.418V15.2508Z" fill="#0A0B09"/>
</svg>
