<svg width="104" height="41" viewBox="0 0 104 41" fill="none" xmlns="http://www.w3.org/2000/svg">
    <g clip-path="url(#clip0_41_2636)">
        <path d="M18.9763 6.48423C16.9735 5.63218 14.207 5.02408 11.9743 5.02408C9.78941 5.02408 6.96633 5.96628 6.96633 9.37271C6.96633 14.7979 20.8996 12.5122 20.8996 23.0037C20.8996 29.8626 15.3896 32.4629 8.96918 32.4629C5.50795 32.4629 3.96118 32.0139 0.818141 31.2538L0.81107 25.6041C2.99776 26.769 6.10014 27.5327 8.60502 27.5327C11.0198 27.5327 14.2512 26.3218 14.2512 23.4969C14.2512 17.5344 0.317871 19.9986 0.317871 9.64317C0.317871 2.64824 5.82791 0.0920906 11.4281 0.0920906C14.161 0.0920906 16.7101 0.450943 19.0329 1.21284L18.9763 6.48423Z" fill="#0081C6"/>
        <path d="M55.4879 14.2996C53.6759 13.6897 52.0337 13.3414 49.8665 13.3414C48.2755 13.3414 46.3734 13.9071 46.3734 15.8233C46.3734 19.3924 56.6758 17.1297 56.6758 25.2259C56.6758 30.4496 51.9453 32.5391 47.1247 32.5391C44.8708 32.5391 42.571 32.1466 40.4055 31.5809L40.7591 26.7921C42.6152 27.7078 44.5615 28.2735 46.5944 28.2735C48.0987 28.2735 50.4852 27.7078 50.4852 25.53C50.4852 21.1336 40.1846 24.137 40.1846 16.0408C40.1846 11.2095 44.4713 9.07589 49.1152 9.07589C51.9011 9.07589 53.7131 9.51075 55.571 9.90319L55.4879 14.2996Z" fill="#0081C6"/>
        <path d="M74.248 14.4304C73.1874 13.9513 72.0384 13.6031 70.2264 13.6031C66.5548 13.6031 64.2126 16.4756 64.2126 20.6988C64.2126 24.8335 66.2013 28.0119 70.3572 28.0119C72.0384 28.0119 73.8945 27.402 74.9109 26.9672L75.1761 31.7984C73.4525 32.3199 71.683 32.5391 69.2524 32.5391C61.7802 32.5391 58.022 27.5328 58.022 20.6988C58.022 14.2129 61.9128 9.07589 69.0314 9.07589C71.4179 9.07589 73.1432 9.33751 74.7801 9.81657L74.248 14.4304Z" fill="#0081C6"/>
        <path d="M87.7395 28.0109C92.2932 28.0109 93.4864 24.007 93.4864 20.2629C93.4864 16.8247 91.6303 13.6039 87.7395 13.6039C83.8929 13.6039 82.0368 16.9113 82.0368 20.2629C82.0368 23.9628 83.23 28.0109 87.7395 28.0109ZM87.7395 9.07668C94.5029 9.07668 99.6753 13.5597 99.6753 20.9594C99.6753 27.401 95.3001 32.5381 87.7395 32.5381C80.2249 32.5381 75.8462 27.401 75.8462 20.9594C75.8462 13.5597 81.0204 9.07668 87.7395 9.07668Z" fill="#0081C6"/>
        <path d="M40.8488 9.29428H34.8349L23.5232 40.0918H28.9572L40.8488 9.29428Z" fill="#0081C6"/>
        <path d="M16.2701 8.74021C18.782 11.284 21.2851 14.3828 23.0988 18.0173C24.7216 21.2717 25.5418 24.4412 26.1287 27.6356C26.1535 27.7469 26.2277 27.7381 26.2701 27.6515C28.4303 23.8773 29.7526 18.7403 27.8187 14.869C25.7929 10.8067 20.9245 8.9382 16.3514 8.56167C16.1923 8.5546 16.164 8.63768 16.2701 8.74021Z" fill="#6DB33F"/>
        <path d="M99.5643 9.56575H98.7529V9.27231H100.729V9.56575H99.9126V11.9434H99.5643V9.56575Z" fill="#0081C6"/>
        <path d="M103.277 10.7704C103.258 10.4027 103.235 9.94661 103.235 9.61781H103.226C103.131 9.92716 103.025 10.2666 102.888 10.6325L102.416 11.9282H102.157L101.72 10.6555C101.593 10.2789 101.49 9.93423 101.416 9.61781H101.407C101.4 9.95014 101.379 10.3974 101.356 10.7987L101.285 11.9424H100.956L101.142 9.2731H101.582L102.036 10.5635C102.148 10.8923 102.236 11.1911 102.307 11.4669H102.314C102.386 11.1982 102.48 10.9012 102.6 10.5635L103.076 9.2731H103.516L103.682 11.9424H103.341L103.277 10.7704Z" fill="#0081C6"/>
    </g>
    <defs>
        <clipPath id="clip0_41_2636">
            <rect width="103.364" height="40" fill="white" transform="translate(0.317871 0.0917969)"/>
        </clipPath>
    </defs>
</svg>
