<?xml version="1.0" encoding="UTF-8"?>
<svg width="512px" height="512px" viewBox="0 0 512 512" version="1.1" xmlns="http://www.w3.org/2000/svg" xmlns:xlink="http://www.w3.org/1999/xlink">
    <!-- Generator: Sketch 48.1 (47250) - http://www.bohemiancoding.com/sketch -->
    <title>#T</title>
    <desc>Created with Sketch.</desc>
    <defs>
        <path d="M511.578595,256.195286 C511.578595,397.445758 397.057518,511.945537 255.792847,511.945537 C114.528177,511.945537 0.0283977627,397.445758 0.0283977627,256.195286 C0.0283977627,114.895118 114.528177,0.395339384 255.792847,0.395339384 C397.057518,0.395339384 511.578595,114.895118 511.578595,256.195286 Z" id="path-1"></path>
    </defs>
    <g id="Компании-BIG" stroke="none" stroke-width="1" fill="none" fill-rule="evenodd">
        <g id="#T">
            <g id="at-t-4">
                <g id="Group">
                    <g id="Clipped">
                        <mask id="mask-2" fill="white">
                            <use xlink:href="#path-1"></use>
                        </mask>
                        <g id="a"></g>
                        <g id="Group" mask="url(#mask-2)" fill-rule="nonzero">
                            <g transform="translate(0.000000, -3.755501)" id="Shape">
                                <path d="M518.266268,259.468025 C518.266268,402.571451 402.254308,518.604709 259.136684,518.604709 C116.019059,518.59761 0,402.571451 0,259.468025 C0,116.314904 116.019059,0.295844325 259.136684,0.295844325 C402.254308,0.295844325 518.266268,116.314904 518.266268,259.468025 Z" fill="#B2B4B6"></path>
                                <path d="M517.762208,259.311838 C517.762208,402.003496 402.098121,517.681782 259.406463,517.681782 C116.707705,517.681782 1.03651834,402.003496 1.03651834,259.311838 C1.03651834,116.584682 116.707705,0.913495663 259.406463,0.913495663 C402.10522,0.906396222 517.762208,116.577583 517.762208,259.311838 Z" fill="#B2B4B7"></path>
                                <path d="M517.279446,259.15565 C517.279446,401.421341 401.949032,516.765954 259.676241,516.765954 C117.40345,516.765954 2.07303667,401.421341 2.07303667,259.15565 C2.07303667,116.854461 117.40345,1.52404756 259.676241,1.52404756 C401.949032,1.52404756 517.279446,116.847362 517.279446,259.15565 Z" fill="#B2B4B7"></path>
                                <path d="M516.789584,258.999462 C516.789584,400.853386 401.792845,515.835927 259.953119,515.835927 C118.092096,515.835927 3.10955501,400.846287 3.10955501,258.999462 C3.10955501,117.117141 118.092096,2.12040058 259.953119,2.12040058 C401.799944,2.12040058 516.789584,117.117141 516.789584,258.999462 Z" fill="#B3B5B8"></path>
                                <path d="M516.306823,258.843275 C516.306823,400.264133 401.657955,514.913 260.222898,514.913 C118.787841,514.913 4.14607335,400.264133 4.14607335,258.843275 C4.14607335,117.37982 118.787841,2.73095247 260.222898,2.73095247 C401.657955,2.73095247 516.306823,117.37982 516.306823,258.843275 Z" fill="#B4B6B8"></path>
                                <path d="M515.809862,258.694186 C515.809862,399.696177 401.508867,514.004272 260.499776,514.004272 C119.483586,514.004272 5.18259169,399.689078 5.18259169,258.694186 C5.18259169,117.656698 119.483586,3.34860381 260.499776,3.34860381 C401.508867,3.34150437 515.809862,117.649599 515.809862,258.694186 Z" fill="#B5B7B9"></path>
                                <path d="M515.32,258.537999 C515.32,399.121123 401.352679,513.081344 260.762456,513.081344 C120.172232,513.081344 6.21201058,399.121123 6.21201058,258.537999 C6.21201058,117.919377 120.172232,3.95205627 260.762456,3.95205627 C401.352679,3.95205627 515.32,117.919377 515.32,258.537999 Z" fill="#B6B8BA"></path>
                                <path d="M514.823039,258.381811 C514.823039,398.546068 401.203591,512.158417 261.039334,512.158417 C120.867977,512.158417 7.25562836,398.546068 7.25562836,258.381811 C7.25562836,118.189156 120.867977,4.56260817 261.039334,4.56260817 C401.203591,4.56260817 514.823039,118.189156 514.823039,258.381811 Z" fill="#B7B9BB"></path>
                                <path d="M514.340277,258.225623 C514.340277,397.956814 401.061602,511.23549 261.316212,511.23549 C121.563723,511.23549 8.2921467,397.956814 8.2921467,258.225623 C8.2921467,118.451835 121.563723,5.16606062 261.316212,5.16606062 C401.061602,5.16606062 514.340277,118.451835 514.340277,258.225623 Z" fill="#B7B9BC"></path>
                                <path d="M513.850416,258.069436 C513.850416,397.38176 400.905414,510.312562 261.585991,510.312562 C122.252368,510.312562 9.32866504,397.38176 9.32866504,258.069436 C9.3215656,118.721614 122.252368,5.77661252 261.585991,5.77661252 C400.905414,5.77661252 513.850416,118.721614 513.850416,258.069436 Z" fill="#B7B9BC"></path>
                                <path d="M513.67293,257.934546 C513.67293,396.955793 400.976409,509.645215 261.955162,509.645215 C122.919716,509.645215 10.2373934,396.955793 10.2373934,257.934546 C10.2373934,118.884901 122.919716,6.18128064 261.955162,6.18128064 C400.976409,6.18838008 513.67293,118.884901 513.67293,257.934546 Z" fill="#B8BABC"></path>
                                <path d="M513.502543,257.799657 C513.502543,396.515628 401.047403,508.963669 262.310134,508.963669 C123.579964,508.963669 11.1390224,396.515628 11.1390224,257.799657 C11.1390224,119.048188 123.587063,6.5930482 262.310134,6.5930482 C401.047403,6.5930482 513.502543,119.048188 513.502543,257.799657 Z" fill="#B9BBBD"></path>
                                <path d="M513.325057,257.664767 C513.325057,396.082562 401.118398,508.289222 262.679305,508.289222 C124.247311,508.289222 12.0477508,396.082562 12.0477508,257.657668 C12.0477508,119.211475 124.254411,6.99061687 262.679305,6.99061687 C401.118398,6.99061687 513.325057,119.211475 513.325057,257.664767 Z" fill="#BABCBE"></path>
                                <path d="M513.154671,257.529878 C513.154671,395.649496 401.189392,507.614775 263.055575,507.614775 C124.914659,507.614775 12.9493798,395.649496 12.9493798,257.529878 C12.9493798,119.374763 124.914659,7.39528499 263.055575,7.39528499 C401.189392,7.40238443 513.154671,119.374763 513.154671,257.529878 Z" fill="#BBBDBF"></path>
                                <path d="M512.977185,257.394989 C512.977185,395.21643 401.260387,506.940328 263.417647,506.940328 C125.582006,506.940328 13.8652076,395.21643 13.8652076,257.394989 C13.8652076,119.53095 125.582006,7.80705255 263.417647,7.80705255 C401.260387,7.80705255 512.977185,119.53805 512.977185,257.394989 Z" fill="#BCBDC0"></path>
                                <path d="M512.806798,257.260099 C512.806798,394.783364 401.310083,506.265881 263.793917,506.265881 C126.249353,506.265881 14.7668366,394.783364 14.7668366,257.260099 C14.7668366,119.694237 126.249353,8.21172067 263.793917,8.21172067 C401.310083,8.21172067 512.806798,119.701337 512.806798,257.260099 Z" fill="#BCBEC0"></path>
                                <path d="M512.629312,257.12521 C512.629312,394.350299 401.381077,505.591434 264.155988,505.591434 C126.909601,505.591434 15.675565,394.350299 15.675565,257.12521 C15.675565,119.864624 126.916701,8.61638879 264.155988,8.61638879 C401.381077,8.61638879 512.629312,119.864624 512.629312,257.12521 Z" fill="#BDBFC1"></path>
                                <path d="M512.466025,256.990321 C512.466025,393.924332 401.452071,504.924087 264.532259,504.924087 C127.576949,504.924087 16.5913928,393.924332 16.5913928,256.990321 C16.5913928,120.027911 127.584048,9.02815635 264.532259,9.02815635 C401.452071,9.0210569 512.466025,120.027911 512.466025,256.990321 Z" fill="#BEC0C2"></path>
                                <path d="M512.28144,256.855431 C512.28144,393.491266 401.515966,504.242541 264.887231,504.242541 C128.244296,504.242541 17.4930218,393.484167 17.4930218,256.855431 C17.4930218,120.191198 128.244296,9.43282446 264.887231,9.43282446 C401.523066,9.43282446 512.28144,120.191198 512.28144,256.855431 Z" fill="#BFC1C3"></path>
                                <path d="M512.118153,256.720542 C512.118153,393.051101 401.59406,503.568094 265.263501,503.568094 C128.911644,503.568094 18.3946508,393.051101 18.3946508,256.720542 C18.3946508,120.354485 128.911644,9.83749258 265.263501,9.83749258 C401.586961,9.83749258 512.118153,120.354485 512.118153,256.720542 Z" fill="#C0C2C4"></path>
                                <path d="M511.933567,256.585652 C511.933567,392.618035 401.657955,502.893647 265.625573,502.893647 C129.578991,502.893647 19.3033792,392.618035 19.3033792,256.585652 C19.3033792,120.517773 129.571892,10.2350613 265.625573,10.2350613 C401.657955,10.2350613 511.933567,120.517773 511.933567,256.585652 Z" fill="#C1C2C4"></path>
                                <path d="M511.77028,256.450763 C511.77028,392.184969 401.72895,502.2192 266.001843,502.2192 C130.246338,502.2192 20.219207,392.184969 20.219207,256.450763 C20.219207,120.68106 130.246338,10.6468288 266.001843,10.6468288 C401.72895,10.6468288 511.77028,120.68106 511.77028,256.450763 Z" fill="#C1C3C5"></path>
                                <path d="M511.592794,256.315874 C511.592794,391.751903 401.799944,501.537654 266.363914,501.537654 C130.906586,501.537654 21.120836,391.751903 21.120836,256.315874 C21.120836,120.844347 130.906586,11.0514969 266.363914,11.0514969 C401.799944,11.0514969 511.592794,120.851446 511.592794,256.315874 Z" fill="#C2C4C6"></path>
                                <path d="M511.422407,256.180984 C511.422407,391.318837 401.863839,500.870306 266.733085,500.870306 C131.573934,500.870306 22.0224649,391.318837 22.0224649,256.180984 C22.0224649,121.014733 131.573934,11.4561651 266.733085,11.4561651 C401.863839,11.4561651 511.422407,121.007634 511.422407,256.180984 Z" fill="#C3C5C7"></path>
                                <path d="M511.244921,256.046095 C511.244921,390.885772 401.941933,500.195859 267.102256,500.195859 C132.248381,500.195859 22.9382928,390.885772 22.9382928,256.046095 C22.9382928,121.170921 132.241281,11.8608332 267.102256,11.8608332 C401.934833,11.8608332 511.244921,121.170921 511.244921,256.046095 Z" fill="#C4C6C8"></path>
                                <path d="M511.074535,255.911206 C511.074535,390.452706 402.005828,499.514313 267.471427,499.514313 C132.908629,499.514313 23.8470212,390.452706 23.8470212,255.911206 C23.8470212,121.341308 132.908629,12.2655013 267.471427,12.2655013 C402.005828,12.2655013 511.074535,121.334208 511.074535,255.911206 Z" fill="#C5C6C8"></path>
                                <path d="M510.911248,255.776316 C510.911248,390.01964 402.076822,498.839866 267.833499,498.839866 C133.575976,498.839866 24.7486502,390.01964 24.7486502,255.776316 C24.7486502,121.504595 133.575976,12.6772688 267.833499,12.6772688 C402.076822,12.6701694 510.911248,121.497495 510.911248,255.776316 Z" fill="#C5C7C9"></path>
                                <path d="M510.726662,255.641427 C510.726662,389.586574 402.140717,498.165419 268.20267,498.165419 C134.236224,498.165419 25.6573786,389.586574 25.6573786,255.641427 C25.6573786,121.660783 134.236224,13.0748375 268.20267,13.0748375 C402.147817,13.081937 510.726662,121.660783 510.726662,255.641427 Z" fill="#C6C8CA"></path>
                                <path d="M510.563375,255.506537 C510.563375,389.153508 402.218811,497.490973 268.57184,497.490973 C134.910671,497.490973 26.566107,389.146409 26.566107,255.506537 C26.566107,121.82407 134.903572,13.4866051 268.57184,13.4866051 C402.211712,13.4866051 510.563375,121.82407 510.563375,255.506537 Z" fill="#C7C9CB"></path>
                                <path d="M510.37879,255.371648 C510.37879,388.720442 402.268507,496.816526 268.926812,496.816526 C135.570919,496.816526 27.4748354,388.720442 27.4748354,255.371648 C27.4748354,121.987357 135.578018,13.8912732 268.933912,13.8912732 C402.268507,13.8912732 510.37879,121.987357 510.37879,255.371648 Z" fill="#C8CACC"></path>
                                <path d="M510.215502,255.236759 C510.215502,388.287376 402.339501,496.142079 269.303083,496.142079 C136.238266,496.142079 28.3835638,388.287376 28.3835638,255.236759 C28.3835638,122.150644 136.238266,14.2959413 269.303083,14.2959413 C402.339501,14.2959413 510.215502,122.150644 510.215502,255.236759 Z" fill="#C9CBCC"></path>
                                <path d="M510.038016,255.101869 C510.038016,387.85431 402.410496,495.467632 269.665154,495.467632 C136.898514,495.467632 29.2851928,387.847211 29.2851928,255.101869 C29.2851928,122.313931 136.898514,14.7006094 269.665154,14.7006094 C402.410496,14.7006094 510.038016,122.313931 510.038016,255.101869 Z" fill="#CACBCD"></path>
                                <path d="M509.86763,254.96698 C509.86763,387.421244 402.474391,494.793185 270.041425,494.793185 C137.572961,494.793185 30.2010206,387.421244 30.2010206,254.96698 C30.2010206,122.477218 137.572961,15.112377 270.041425,15.112377 C402.474391,15.1052776 509.86763,122.477218 509.86763,254.96698 Z" fill="#CBCCCE"></path>
                                <path d="M509.690144,254.832091 C509.690144,386.988179 402.545385,494.118738 270.403496,494.118738 C138.240309,494.118738 31.1026496,386.988179 31.1026496,254.832091 C31.1026496,122.640505 138.240309,15.5170451 270.403496,15.5170451 C402.545385,15.5170451 509.690144,122.640505 509.690144,254.832091 Z" fill="#CBCDCF"></path>
                                <path d="M509.519757,254.697201 C509.519757,386.555113 402.61638,493.444291 270.772667,493.444291 C138.893457,493.444291 32.0042785,386.555113 32.0042785,254.697201 C32.0042785,122.803792 138.893457,15.9217132 270.772667,15.9217132 C402.61638,15.9217132 509.519757,122.803792 509.519757,254.697201 Z" fill="#CCCED0"></path>
                                <path d="M509.342271,254.562312 C509.342271,386.114947 402.687374,492.762745 271.134739,492.762745 C139.560805,492.762745 32.9130069,386.114947 32.9130069,254.562312 C32.9130069,122.96708 139.560805,16.3192819 271.134739,16.3192819 C402.687374,16.3192819 509.342271,122.974179 509.342271,254.562312 Z" fill="#CDCFD0"></path>
                                <path d="M509.171885,254.427422 C509.171885,385.688981 402.751269,492.088298 271.503909,492.088298 C140.228152,492.088298 33.8217353,385.688981 33.8217353,254.427422 C33.8217353,123.130367 140.228152,16.72395 271.503909,16.72395 C402.751269,16.7310495 509.171885,123.137466 509.171885,254.427422 Z" fill="#CECFD1"></path>
                                <path d="M508.994399,254.292533 C508.994399,385.255915 402.822263,491.413851 271.87308,491.413851 C140.902599,491.413851 34.7304637,385.248816 34.7304637,254.292533 C34.7304637,123.293654 140.895499,17.1357176 271.87308,17.1357176 C402.822263,17.1357176 508.994399,123.300753 508.994399,254.292533 Z" fill="#CFD0D2"></path>
                                <path d="M508.831111,254.157644 C508.831111,384.822849 402.893258,490.746504 272.249351,490.746504 C141.569946,490.746504 35.6462916,384.822849 35.6462916,254.157644 C35.6462916,123.456941 141.569946,17.5403857 272.249351,17.5403857 C402.893258,17.5403857 508.831111,123.456941 508.831111,254.157644 Z" fill="#D0D1D3"></path>
                                <path d="M508.646526,254.022754 C508.646526,384.389783 402.964252,490.064958 272.604323,490.064958 C142.223095,490.064958 36.5408211,384.389783 36.5408211,254.022754 C36.5408211,123.627328 142.223095,17.9450538 272.604323,17.9450538 C402.964252,17.9450538 508.646526,123.620228 508.646526,254.022754 Z" fill="#D0D2D3"></path>
                                <path d="M508.483239,253.887865 C508.483239,383.956717 403.035247,489.390511 272.987693,489.390511 C142.904641,489.390511 37.456649,383.949618 37.456649,253.887865 C37.456649,123.790615 142.897542,18.3497219 272.987693,18.3497219 C403.035247,18.3497219 508.483239,123.783515 508.483239,253.887865 Z" fill="#D1D3D4"></path>
                                <path d="M508.121167,253.69618 C508.121167,383.346166 403.006849,488.439186 273.371062,488.439186 C143.713977,488.439186 38.6138578,383.346166 38.6138578,253.69618 C38.6138578,124.017797 143.713977,18.9176772 273.371062,18.9176772 C403.006849,18.9176772 508.121167,124.017797 508.121167,253.69618 Z" fill="#D2D3D5"></path>
                                <path d="M507.759096,253.511595 C507.759096,382.735614 402.99265,487.49496 273.77573,487.49496 C144.537513,487.49496 39.7781661,382.735614 39.7781661,253.511595 C39.7781661,124.244979 144.537513,19.4927319 273.77573,19.4927319 C402.99265,19.4927319 507.759096,124.244979 507.759096,253.511595 Z" fill="#D3D4D6"></path>
                                <path d="M507.397024,253.327009 C507.397024,382.132161 402.978451,486.550735 274.173299,486.550735 C145.346849,486.550735 40.9282754,382.139261 40.9282754,253.327009 C40.9282754,124.47926 145.346849,20.0677866 274.173299,20.0677866 C402.978451,20.0677866 507.397024,124.47926 507.397024,253.327009 Z" fill="#D4D5D7"></path>
                                <path d="M507.034953,253.128225 C507.034953,381.521609 402.942954,485.599409 274.570868,485.599409 C146.163284,485.599409 42.0854843,381.51451 42.0854843,253.128225 C42.0854843,124.713542 146.163284,20.6286424 274.570868,20.6286424 C402.950053,20.6357418 507.034953,124.713542 507.034953,253.128225 Z" fill="#D5D6D7"></path>
                                <path d="M506.679981,252.943639 C506.679981,380.911057 402.921656,484.655184 274.968436,484.655184 C146.993919,484.655184 43.2497925,380.918157 43.2497925,252.943639 C43.2497925,124.940724 146.993919,21.2036971 274.968436,21.2036971 C402.921656,21.2036971 506.679981,124.940724 506.679981,252.943639 Z" fill="#D5D7D8"></path>
                                <path d="M506.31791,252.759054 C506.31791,380.307605 402.907457,483.703859 275.373105,483.703859 C147.810355,483.703859 44.4141008,380.307605 44.4141008,252.759054 C44.4141008,125.175006 147.810355,21.7787518 275.373105,21.7787518 C402.907457,21.7787518 506.31791,125.175006 506.31791,252.759054 Z" fill="#D6D7D9"></path>
                                <path d="M505.955838,252.567369 C505.955838,379.697053 402.893258,482.759633 275.770673,482.759633 C148.62679,482.759633 45.5713096,379.704152 45.5713096,252.567369 C45.5713096,125.402188 148.62679,22.346707 275.770673,22.346707 C402.893258,22.346707 505.955838,125.402188 505.955838,252.567369 Z" fill="#D7D8DA"></path>
                                <path d="M505.593767,252.382784 C505.593767,379.093601 402.86486,481.808308 276.175341,481.808308 C149.450325,481.808308 46.7285185,379.093601 46.7285185,252.382784 C46.7285185,125.636469 149.450325,22.9217617 276.175341,22.9217617 C402.86486,22.9217617 505.593767,125.636469 505.593767,252.382784 Z" fill="#D8D9DB"></path>
                                <path d="M505.231695,252.191099 C505.231695,378.483049 402.850661,480.856983 276.558711,480.856983 C150.259662,480.856983 47.8857273,378.483049 47.8857273,252.191099 C47.8857273,125.863651 150.259662,23.489717 276.558711,23.489717 C402.850661,23.4826175 505.231695,125.863651 505.231695,252.191099 Z" fill="#D8D9DB"></path>
                                <path d="M504.876723,252.006513 C504.876723,377.879596 402.843562,479.919857 276.963379,479.919857 C151.083197,479.919857 49.0500356,377.886696 49.0500356,252.006513 C49.0500356,126.097933 151.083197,24.0647717 276.963379,24.0647717 C402.836462,24.0576722 504.876723,126.097933 504.876723,252.006513 Z" fill="#D9DADB"></path>
                                <path d="M504.514652,251.814828 C504.514652,377.269044 402.815164,478.961432 277.368047,478.961432 C151.906732,478.961432 50.2072444,377.269044 50.2072444,251.814828 C50.2072444,126.325115 151.899633,24.6327269 277.368047,24.6327269 C402.808065,24.6327269 504.514652,126.332214 504.514652,251.814828 Z" fill="#D9DBDC"></path>
                                <path d="M504.15258,251.623143 C504.15258,376.658492 402.800965,478.010107 277.772716,478.010107 C152.723168,478.010107 51.3715527,376.658492 51.3715527,251.623143 C51.3715527,126.559397 152.723168,25.2006822 277.772716,25.2006822 C402.793866,25.2006822 504.15258,126.559397 504.15258,251.623143 Z" fill="#DADCDD"></path>
                                <path d="M503.790509,251.438558 C503.790509,376.05504 402.772567,477.065882 278.156085,477.065882 C153.539603,477.065882 52.5287615,376.047941 52.5287615,251.438558 C52.5287615,126.793678 153.539603,25.7757369 278.156085,25.7757369 C402.765468,25.7757369 503.790509,126.793678 503.790509,251.438558 Z" fill="#DBDCDE"></path>
                                <path d="M503.428437,251.253972 C503.428437,375.451588 402.751269,476.121656 278.560753,476.121656 C154.356039,476.121656 53.6859703,375.451588 53.6859703,251.253972 C53.6859703,127.02796 154.356039,26.3436921 278.560753,26.3436921 C402.751269,26.3436921 503.428437,127.02086 503.428437,251.253972 Z" fill="#DCDDDE"></path>
                                <path d="M503.080565,251.062288 C503.080565,374.841036 402.722871,475.177431 278.958322,475.177431 C155.172475,475.177431 54.8431792,374.841036 54.8431792,251.062288 C54.8431792,127.255142 155.172475,26.9187468 278.958322,26.9187468 C402.729971,26.9116474 503.080565,127.255142 503.080565,251.062288 Z" fill="#DDDEDF"></path>
                                <path d="M502.725593,250.870603 C502.725593,374.223384 402.715772,474.219006 279.37009,474.219006 C156.003109,474.219006 56.0074874,374.223384 56.0074874,250.870603 C56.0074874,127.482324 155.99601,27.4867021 279.37009,27.4867021 C402.715772,27.4867021 502.725593,127.482324 502.725593,250.870603 Z" fill="#DEDFE0"></path>
                                <path d="M502.363521,250.686017 C502.363521,373.619932 402.701573,473.27478 279.753459,473.27478 C156.812445,473.27478 57.1646963,373.619932 57.1646963,250.686017 C57.1646963,127.716605 156.812445,28.0546573 279.753459,28.0546573 C402.701573,28.0546573 502.363521,127.716605 502.363521,250.686017 Z" fill="#DEE0E1"></path>
                                <path d="M502.00145,250.494332 C502.00145,373.016479 402.673175,472.330555 280.158128,472.330555 C157.635981,472.330555 58.3290045,373.016479 58.3290045,250.494332 C58.3290045,127.943788 157.635981,28.6226126 280.158128,28.6226126 C402.673175,28.6226126 502.00145,127.943788 502.00145,250.494332 Z" fill="#DFE0E2"></path>
                                <path d="M501.639378,250.309747 C501.639378,372.413027 402.658976,471.37923 280.555696,471.37923 C158.452416,471.37923 59.4791139,372.405927 59.4791139,250.309747 C59.4791139,128.178069 158.445317,29.1976673 280.555696,29.1976673 C402.658976,29.1976673 501.639378,128.178069 501.639378,250.309747 Z" fill="#E0E1E2"></path>
                                <path d="M501.170815,250.025769 C501.170815,371.440404 402.74417,469.867049 281.322436,469.867049 C159.893603,469.867049 61.4811562,371.440404 61.4811562,250.025769 C61.4811562,128.575638 159.900702,30.1489923 281.322436,30.1489923 C402.74417,30.1489923 501.170815,128.575638 501.170815,250.025769 Z" fill="#E1E2E3"></path>
                                <path d="M500.695152,249.741792 C500.695152,370.489078 402.822263,468.354868 282.082076,468.354868 C161.32769,468.354868 63.4619001,370.489078 63.4619001,249.741792 C63.4619001,128.980306 161.32769,31.0932179 282.082076,31.0932179 C402.822263,31.0932179 500.695152,128.973206 500.695152,249.741792 Z" fill="#E2E3E4"></path>
                                <path d="M500.226589,249.457814 C500.226589,369.516455 402.893258,466.842687 282.834617,466.842687 C162.775976,466.842687 65.4639424,369.523555 65.4639424,249.457814 C65.456843,129.370775 162.775976,32.044543 282.834617,32.044543 C402.893258,32.044543 500.226589,129.370775 500.226589,249.457814 Z" fill="#E3E4E5"></path>
                                <path d="M499.765126,249.180936 C499.765126,368.558031 402.971352,465.330506 283.594257,465.330506 C164.217162,465.330506 67.4446863,368.558031 67.4446863,249.180936 C67.4446863,129.775443 164.210063,32.995868 283.594257,32.995868 C402.978451,32.995868 499.765126,129.768344 499.765126,249.180936 Z" fill="#E3E4E5"></path>
                                <path d="M499.296563,248.896958 C499.296563,367.599606 403.077843,463.818325 284.360996,463.818325 C165.665448,463.818325 69.4467286,367.599606 69.4467286,248.896958 C69.4467286,130.173012 165.665448,33.9471931 284.360996,33.9471931 C403.070744,33.9400936 499.296563,130.173012 499.296563,248.896958 Z" fill="#E4E5E6"></path>
                                <path d="M498.8209,248.612981 C498.8209,366.634082 403.141738,462.313244 285.120637,462.313244 C167.099535,462.313244 71.434572,366.641182 71.434572,248.612981 C71.434572,130.570581 167.099535,34.8914187 285.120637,34.8914187 C403.141738,34.8914187 498.8209,130.570581 498.8209,248.612981 Z" fill="#E5E6E7"></path>
                                <path d="M498.352337,248.336102 C498.352337,365.675658 403.226932,460.801063 285.887376,460.801063 C168.547821,460.801063 73.4224154,365.675658 73.4224154,248.336102 C73.4224154,130.968149 168.547821,35.8427437 285.887376,35.8427437 C403.226932,35.8427437 498.352337,130.96105 498.352337,248.336102 Z" fill="#E6E7E8"></path>
                                <path d="M497.876675,248.052125 C497.876675,364.710134 403.305025,459.288882 286.647016,459.288882 C169.989007,459.288882 75.4173582,364.717233 75.4173582,248.052125 C75.4173582,131.365718 169.989007,36.7869694 286.647016,36.7869694 C403.312125,36.7869694 497.876675,131.365718 497.876675,248.052125 Z" fill="#E7E8E9"></path>
                                <path d="M497.408111,247.768147 C497.408111,363.751709 403.390219,457.769602 287.413756,457.769602 C171.437293,457.769602 77.412301,363.751709 77.412301,247.768147 C77.412301,131.756187 171.437293,37.7382944 287.413756,37.7382944 C403.390219,37.7382944 497.408111,131.763287 497.408111,247.768147 Z" fill="#E7E8E9"></path>
                                <path d="M496.946648,247.484169 C496.946648,362.786185 403.475412,456.257421 288.173396,456.257421 C172.87138,456.257421 79.4001444,362.786185 79.4001444,247.484169 C79.4001444,132.153756 172.87138,38.68252 288.173396,38.68252 C403.475412,38.6896195 496.946648,132.160855 496.946648,247.484169 Z" fill="#E8E8E9"></path>
                                <path d="M496.478085,247.207291 C496.478085,361.827761 403.560605,454.759439 288.925937,454.759439 C174.312567,454.759439 81.4021867,361.827761 81.4021867,247.207291 C81.4021867,132.558424 174.319666,39.6409445 288.925937,39.6409445 C403.560605,39.6409445 496.478085,132.558424 496.478085,247.207291 Z" fill="#E9E9EA"></path>
                                <path d="M496.002422,246.923314 C496.002422,360.862237 403.638699,453.240159 289.685577,453.240159 C175.753753,453.240159 83.3829306,360.862237 83.3829306,246.923314 C83.3829306,132.955993 175.753753,40.5851701 289.685577,40.5851701 C403.645799,40.5851701 496.002422,132.955993 496.002422,246.923314 Z" fill="#E9EAEB"></path>
                                <path d="M495.533859,246.646435 C495.533859,359.903812 403.723892,451.735077 290.452317,451.735077 C177.202039,451.735077 85.3849729,359.910912 85.3849729,246.646435 C85.3849729,133.360661 177.209138,41.5364952 290.452317,41.5364952 C403.723892,41.5364952 495.533859,133.353561 495.533859,246.646435 Z" fill="#EAEBEC"></path>
                                <path d="M495.065296,246.362458 C495.065296,358.945388 403.809086,450.215797 291.219056,450.215797 C178.650325,450.215797 87.3799157,358.938289 87.3799157,246.362458 C87.3799157,133.75113 178.650325,42.4878202 291.219056,42.4878202 C403.809086,42.4878202 495.065296,133.75113 495.065296,246.362458 Z" fill="#EBECED"></path>
                                <path d="M494.603832,246.07848 C494.603832,357.979864 403.894279,448.703616 291.978696,448.703616 C180.091511,448.703616 89.3677591,357.979864 89.3677591,246.07848 C89.3677591,134.148699 180.091511,43.4320458 291.978696,43.4320458 C403.894279,43.4320458 494.603832,134.148699 494.603832,246.07848 Z" fill="#ECEDED"></path>
                                <path d="M494.135269,245.794503 C494.135269,357.01434 403.979472,447.191435 292.745436,447.191435 C181.532698,447.191435 91.3627019,357.01434 91.3627019,245.794503 C91.3627019,134.546267 181.539797,44.3833709 292.745436,44.3833709 C403.979472,44.3833709 494.135269,134.546267 494.135269,245.794503 Z" fill="#EDEDEE"></path>
                                <path d="M492.786376,245.32594 C492.786376,355.23238 403.695495,444.33746 293.781954,444.33746 C183.882613,444.33746 94.7775329,355.23238 94.7775329,245.32594 C94.7775329,135.391101 183.882613,46.2931204 293.781954,46.2931204 C403.702594,46.2931204 492.786376,135.391101 492.786376,245.32594 Z" fill="#EEEEEF"></path>
                                <path d="M491.437482,244.864476 C491.437482,353.45752 403.418616,441.497684 294.818473,441.497684 C186.232528,441.497684 98.1923639,353.45752 98.1923639,244.864476 C98.1923639,136.243034 186.232528,48.2099694 294.818473,48.2099694 C403.418616,48.2099694 491.437482,136.243034 491.437482,244.864476 Z" fill="#EEEFF0"></path>
                                <path d="M490.109886,244.388813 C490.109886,351.668461 403.141738,438.643709 295.86919,438.643709 C188.596641,438.643709 101.621394,351.668461 101.621394,244.388813 C101.621394,137.080768 188.596641,50.1126195 295.86919,50.1126195 C403.141738,50.1197189 490.109886,137.087867 490.109886,244.388813 Z" fill="#EFF0F0"></path>
                                <path d="M488.760993,243.92735 C488.760993,349.886502 402.86486,435.796833 296.905708,435.796833 C190.946556,435.796833 105.036225,349.886502 105.036225,243.92735 C105.036225,137.9398 190.946556,52.0294685 296.905708,52.0294685 C402.86486,52.0294685 488.760993,137.9398 488.760993,243.92735 Z" fill="#F0F1F1"></path>
                                <path d="M487.426298,243.458787 C487.426298,348.104542 402.602181,432.942858 297.942226,432.942858 C193.30357,432.942858 108.458155,348.097443 108.458155,243.458787 C108.458155,138.777534 193.30357,53.939218 297.942226,53.939218 C402.602181,53.9463174 487.426298,138.784633 487.426298,243.458787 Z" fill="#F1F1F2"></path>
                                <path d="M486.084504,242.990224 C486.084504,346.322582 402.325303,430.103082 298.985844,430.103082 C195.660585,430.103082 111.880085,346.322582 111.880085,242.990224 C111.880085,139.629467 195.660585,55.856067 298.985844,55.856067 C402.325303,55.856067 486.084504,139.629467 486.084504,242.990224 Z" fill="#F2F2F3"></path>
                                <path d="M484.73561,242.52876 C484.73561,344.540623 402.048424,427.256206 300.022363,427.256206 C198.0034,427.256206 115.294916,344.547722 115.294916,242.52876 C115.294916,140.4814 198.0034,57.772916 300.022363,57.772916 C402.048424,57.7658165 484.73561,140.4743 484.73561,242.52876 Z" fill="#F3F3F3"></path>
                                <path d="M483.408014,242.060197 C483.408014,342.758663 401.771546,424.40933 301.07308,424.40933 C200.374613,424.40933 118.723946,342.758663 118.723946,242.060197 C118.723946,141.326233 200.374613,59.6826655 301.07308,59.6826655 C401.771546,59.6826655 483.408014,141.326233 483.408014,242.060197 Z" fill="#F3F4F4"></path>
                                <path d="M482.059121,241.591634 C482.059121,340.976704 401.494668,421.555355 302.109598,421.555355 C202.724528,421.555355 122.138777,340.976704 122.138777,241.591634 C122.138777,142.178166 202.724528,61.592415 302.109598,61.592415 C401.494668,61.592415 482.059121,142.171067 482.059121,241.591634 Z" fill="#F3F4F4"></path>
                                <path d="M480.710227,241.123071 C480.710227,339.194744 401.224889,418.708479 303.146116,418.708479 C205.067344,418.708479 125.553608,339.194744 125.553608,241.123071 C125.553608,143.0159 205.067344,63.5021646 303.146116,63.5021646 C401.231989,63.5021646 480.710227,143.022999 480.710227,241.123071 Z" fill="#F4F5F5"></path>
                                <path d="M479.382632,240.654508 C479.382632,337.412784 400.948011,415.854504 304.189734,415.854504 C207.431457,415.854504 128.975539,337.405685 128.975539,240.654508 C128.975539,143.867833 207.431457,65.4119141 304.189734,65.4119141 C400.948011,65.4119141 479.382632,143.867833 479.382632,240.654508 Z" fill="#F5F6F6"></path>
                                <path d="M477.714263,239.98716 C477.714263,334.878284 400.784724,411.814923 305.879401,411.814923 C210.988277,411.814923 134.044539,334.878284 134.044539,239.98716 C134.044539,145.05344 210.988277,68.116801 305.879401,68.116801 C400.784724,68.116801 477.714263,145.060539 477.714263,239.98716 Z" fill="#F6F6F7"></path>
                                <path d="M476.038795,239.319813 C476.038795,332.357983 400.621437,407.78244 307.576167,407.78244 C214.545097,407.78244 139.11354,332.357983 139.11354,239.319813 C139.11354,146.246146 214.545097,70.8216879 307.576167,70.8216879 C400.614337,70.8145885 476.038795,146.246146 476.038795,239.319813 Z" fill="#F7F7F8"></path>
                                <path d="M474.370426,238.645366 C474.370426,329.823482 400.465249,403.742859 309.280033,403.742859 C218.101917,403.742859 144.182541,329.823482 144.182541,238.645366 C144.182541,147.431752 218.101917,73.5123759 309.280033,73.5123759 C400.465249,73.5123759 474.370426,147.438852 474.370426,238.645366 Z" fill="#F8F8F9"></path>
                                <path d="M472.709157,237.978018 C472.709157,327.296081 400.301962,399.703277 310.9768,399.703277 C221.665836,399.703277 149.251541,327.303181 149.251541,237.978018 C149.251541,148.624458 221.665836,76.2172628 310.9768,76.2172628 C400.301962,76.2172628 472.709157,148.624458 472.709157,237.978018 Z" fill="#F9F9FA"></path>
                                <path d="M471.040789,237.310671 C471.040789,324.77578 400.131575,395.670795 312.666466,395.670795 C225.215556,395.670795 154.320542,324.77578 154.320542,237.310671 C154.320542,149.817164 225.215556,78.9221497 312.666466,78.9221497 C400.131575,78.9150503 471.040789,149.817164 471.040789,237.310671 Z" fill="#FAFBFB"></path>
                                <path d="M469.37952,236.636224 C469.37952,322.24128 399.982487,391.624113 314.377432,391.624113 C228.772376,391.624113 159.389542,322.24128 159.389542,236.636224 C159.389542,151.002771 228.772376,81.6128377 314.377432,81.6128377 C399.982487,81.6128377 469.37952,151.002771 469.37952,236.636224 Z" fill="#FAFBFB"></path>
                                <path d="M467.100599,236.125064 C467.100599,319.983658 399.123455,387.960802 315.250663,387.960802 C231.406269,387.960802 163.429124,319.983658 163.429124,236.125064 C163.429124,152.238073 231.406269,84.2609291 315.250663,84.2609291 C399.123455,84.2680285 467.100599,152.238073 467.100599,236.125064 Z" fill="#FCFCFC"></path>
                                <path d="M464.821679,235.621004 C464.821679,317.733135 398.257323,384.297491 316.130993,384.297491 C234.025962,384.297491 167.461606,317.733135 167.461606,235.621004 C167.461606,153.480476 234.025962,86.9161199 316.130993,86.9161199 C398.257323,86.9161199 464.821679,153.480476 464.821679,235.621004 Z" fill="#FDFDFD"></path>
                                <path d="M462.549858,235.116944 C462.549858,315.482612 397.398291,380.641279 317.025523,380.641279 C236.659855,380.641279 171.508288,315.482612 171.508288,235.116944 C171.508288,154.715778 236.659855,89.5713107 317.025523,89.5713107 C397.398291,89.5642113 462.549858,154.715778 462.549858,235.116944 Z" fill="#FDFDFD"></path>
                                <path d="M460.270937,234.605784 C460.270937,313.22499 396.532159,376.970868 317.912953,376.970868 C239.293747,376.970868 175.547869,313.22499 175.547869,234.605784 C175.547869,155.951081 239.293747,92.2194021 317.912953,92.2194021 C396.539258,92.2194021 460.270937,155.951081 460.270937,234.605784 Z" fill="#FFFFFF"></path>
                            </g>
                        </g>
                    </g>
                </g>
                <path d="M20.4104206,168.594251 C20.4104206,157.690014 21.9788078,150.014564 24.9516145,143.188794 C29.903481,133.061048 35.5140153,123.264277 41.7476155,113.860645 C40.0585207,116.664663 39.1780837,119.875932 39.2025509,123.143408 C39.2025509,146.863664 97.6606191,177.671674 177.463011,187.761634 C204.496303,191.19576 276.071792,200.889202 331.492892,196.350491 C443.340286,187.181019 468.22061,148.378928 468.22061,123.143408 C468.22061,116.246832 464.442223,106.178114 460.692352,100.322397 C465.782381,107.017607 470.547625,113.9504 474.971804,121.097093 C483.526643,135.895701 482.457288,141.77974 482.457288,144.350025 C482.457288,195.861924 385.923057,229.495123 321.326891,247.01979 C155.619655,291.960825 20.4104206,230.72008 20.4104206,168.594251 Z M73.2793272,96.3926233 C73.2793272,119.617232 107.320458,156.769526 205.943497,156.769526 C264.415823,156.769526 311.617149,145.525417 347.240925,133.750257 C404.365864,114.901504 432.646737,91.846831 431.627285,74.6974398 C431.463318,72.0280259 430.41535,67.6946538 427.24293,64.2605271 C414.520743,52.9542404 400.706712,42.9219205 386.001476,34.3092784 C395.746864,39.9596558 401.257606,46.5163594 401.257606,53.8236144 C401.257606,79.4131684 338.336763,102.857278 256.139016,104.953158 C173.941269,107.056118 105.844749,86.968247 104.005458,61.4353384 C103.392361,53.0022563 109.530459,44.6753843 121.157911,37.2973226 C112.300439,42.7393151 103.786708,48.7147791 95.6644899,55.1901844 C72.7874239,74.0389372 73.2793272,93.9427103 73.2793272,96.3926233 Z M287.264373,396.31579 C237.218563,398.085959 149.089461,380.96489 93.6041994,358.455429 C48.9408095,340.328905 4.74080675,305.060071 0,271.41271 C0.534677453,279.513001 1.45432267,287.507081 2.75180662,295.366629 C30.1415503,443.706738 218.262465,435.224091 250.671048,431.655432 C487.305031,405.591472 507.672677,305.237087 510.773806,285.418282 C511.272839,281.283169 511.700581,277.133894 512,272.942136 C507.836645,299.360128 467.828513,389.9007 287.264373,396.31579 Z M107.327587,430.147248 C64.8528105,412.707549 35.4669377,383.719272 23.6683886,362.540978 C34.4810294,385.331871 48.623127,406.411857 65.6370041,425.098728 C120.965427,476.723918 206.029045,482.969072 245.074757,482.969072 C410.468316,482.969072 469.539481,396.634421 482.88503,373.537264 C485.365934,368.920665 487.689998,364.176613 489.89287,359.375917 C463.715061,412.934131 327.964021,520.68782 107.320458,430.147248 L107.327587,430.147248 Z M507.87229,214.399127 C507.87229,210.292337 507.366129,202.12124 505.434161,193.723561 C504.052087,188.079491 502.473244,182.484753 500.700483,176.949445 C503.801612,187.322632 503.295451,194.580322 503.295451,197.370108 C503.295451,210.016191 487.483257,287.344226 331.984795,301.399362 C318.539439,302.603077 219.745304,304.125422 133.861847,282.55061 C76.729779,268.198084 19.3624528,240.448925 8.53345215,201.930061 C6.85812946,195.911489 7.5852908,190.374402 8.92554895,185.155946 C4.50619689,200.818723 1.60807109,216.866055 0.270903243,233.077944 C1.26896782,273.650203 36.7216475,320.949102 101.717039,341.306038 C175.930269,364.509405 221.499046,365.252876 329.43973,341.391006 C509.576129,301.491411 507.87229,223.129598 507.87229,214.399127 Z" id="Shape" fill="#32A5DD" fill-rule="nonzero"></path>
                <path d="M320.603034,250.890978 C324.963287,249.692824 329.465799,248.41622 334.089231,247.068297 C313.438133,242.662863 292.38077,240.45639 271.267453,240.485584 C229.756143,240.485584 191.054456,248.772813 158.391684,263.086471 C205.223498,269.619262 260.918077,267.222954 320.603034,250.890978 Z M299.420601,149.825286 C315.317597,146.311554 331.018756,141.959829 346.458691,136.788233 C353.627893,134.409409 360.720666,131.804989 367.726481,128.978838 C348.180031,125.384377 330.788812,123.116443 319.059519,122.053795 C274.439839,117.974367 208.004671,130.683354 190.77705,134.25642 C185.463659,135.347596 161.208421,140.389826 131.661131,150.71677 C138.610506,152.785011 146.271178,154.57511 154.685825,156.022879 C181.459055,148.491627 209.156973,144.219639 235.446521,144.219639 C252.844853,144.22677 275.108459,146.081056 299.420601,149.825286 Z M304.527715,306.227136 C288.24612,306.148686 266.103435,305.47829 241.151125,303.488499 C196.879981,308.687631 159.280806,328.485694 137.87787,355.936252 C144.962391,357.576581 151.918878,358.953031 158.832688,360.079867 C181.409265,335.232441 219.549026,318.907597 262.824354,318.907597 C294.405955,318.907597 323.263286,327.608475 345.30639,341.957792 C353.502683,339.892079 361.649298,337.633027 369.739452,335.182518 C352.14907,321.667629 329.750318,311.526114 304.527715,306.227136 Z M449.767512,196.695918 C462.656219,187.139216 472.564591,176.555525 477.63614,164.909186 C470.967069,160.843589 464.016564,157.261387 456.837807,154.189989 C449.312282,163.853669 436.999725,173.431767 417.759133,181.455118 C428.718523,185.89917 439.406588,190.988296 449.767512,196.695918 Z M393.070004,226.899376 C406.62733,221.379311 419.757879,215.238773 431.551188,208.477763 C419.295535,201.923577 405.04825,195.9756 388.46791,190.911974 C372.463721,194.884424 353.400953,197.979654 330.753247,199.855335 C324.010148,200.411621 317.053661,200.753951 309.940688,200.932247 C325.774166,203.970423 340.917685,208.035587 355.285891,212.799675 C368.06035,217.000324 380.664825,221.703871 393.070004,226.899376 Z M423.300139,285.145337 C411.89093,289.78105 398.845738,293.946061 383.965398,297.405017 C394.401269,303.664416 404.110827,311.067587 412.915199,319.478146 C423.887742,314.766024 434.539815,309.336499 444.802657,303.22462 C438.124953,296.635672 430.934739,290.590151 423.300139,285.145337 Z M88.6703221,168.567834 C68.6615289,178.402679 49.0510622,190.612435 33.3313917,205.553697 C35.7142377,208.6204 38.4242804,211.630048 41.4544069,214.57551 C58.6606887,199.320445 80.3268047,185.691447 104.333089,174.579998 C99.0484739,172.746911 93.8247845,170.741794 88.6703221,168.567834 Z M152.452351,291.057655 C142.101715,288.887405 131.831221,286.349237 121.660291,283.447952 C100.89041,297.832929 84.4309901,315.227553 73.7401916,334.583441 C80.5314034,337.989092 87.5247581,340.97345 94.6807843,343.519671 C101.122292,332.126757 109.432832,321.903873 119.263219,313.280553 C128.823055,304.82929 140.018875,297.376489 152.452351,291.057655 Z M80.7393571,396.324016 C80.7393571,384.057204 82.8590231,371.93303 86.9916604,360.379405 C80.0333065,357.262558 73.2321876,353.804172 66.6129926,350.016802 C62.1512561,361.78596 59.8568932,374.269324 59.8414423,386.860028 C59.8414423,389.370446 59.9552498,391.866599 60.1473001,394.334225 C66.924979,399.410956 74.0614691,403.987391 81.5004452,408.02741 C80.9969037,404.144271 80.7426842,400.232707 80.7393571,396.316884 L80.7393571,396.324016 Z M219.926014,196.339325 C201.837723,194.44938 186.651526,192.431062 177.063238,191.20438 C170.839387,190.405611 164.757795,189.492732 158.804236,188.45148 C124.356108,199.398896 94.1259724,215.887773 70.4966759,235.607386 C75.3050457,238.267573 80.4121603,240.806518 85.8037939,243.195693 C120.166567,218.134311 167.119302,201.024962 219.926014,196.339325 Z M148.042308,450.376439 C140.828107,448.068663 133.665946,445.600428 126.561129,442.97356 C132.372428,455.425801 141.263645,466.808261 152.566159,476.685897 C161.717189,479.204267 170.978509,481.300857 180.32098,482.969072 C166.607168,474.039974 155.518043,462.935657 148.042308,450.376439 Z M500.660834,183.901348 L499.857068,181.291085 C500.049118,182.004272 500.234056,182.667535 500.383428,183.337931 L500.667947,183.901348 L500.660834,183.901348 Z M34.2062874,306.647917 C40.5581723,290.244622 50.943113,274.946766 64.6142472,261.267845 C60.1333034,258.94169 55.7392546,256.450983 51.4410211,253.80078 C39.4343226,266.994734 30.1945706,281.165755 24.269464,295.771819 C27.3767886,299.58247 30.6942436,303.215888 34.2062874,306.655048 L34.2062874,306.647917 Z M459.81103,265.354405 C465.878396,270.410899 471.021075,275.431733 475.367102,280.395513 C481.023319,275.110884 486.16763,269.300998 490.731124,263.04368 C487.54812,257.572087 483.955218,252.350806 479.983421,247.42489 C473.916161,254.103399 467.153528,260.111734 459.81103,265.347273 L459.81103,265.354405 Z M62.565711,409.739059 C64.7778456,419.060409 68.2845413,428.096485 72.843957,436.761704 C81.8570312,444.231404 91.5631679,450.818063 101.829322,456.431394 C94.4602821,446.510966 88.8125815,435.855957 85.2276431,424.673189 C77.3406929,420.222673 69.7688009,415.232824 62.565711,409.739059 Z M360.741541,470.973271 C372.020656,467.172538 383.032585,462.61692 393.703058,457.337141 C397.483428,452.044272 400.688272,446.361125 403.262894,440.384692 C394.584935,444.721518 385.68089,448.587806 376.589245,451.966845 C372.321461,458.813438 366.986732,465.182195 360.734428,470.973271 L360.741541,470.973271 Z M383.638201,387.031193 C385.957031,393.193126 387.464981,399.618939 388.048245,406.23018 C395.166269,403.551672 402.193063,400.63549 409.116871,397.486511 C408.263585,391.562827 406.755851,385.752676 404.621472,380.163205 C398.006407,382.616567 391.035693,384.92016 383.638201,387.031193 Z M429.218133,85.1891728 C417.460388,81.1026128 403.46917,78.0644374 387.856195,76.0247233 C369.59008,90.0388426 332.730653,101.399907 286.830638,105.87872 C315.709309,108.774258 350.861622,113.759433 384.39929,121.618751 C409.764152,109.330544 424.744073,96.464655 429.218133,85.1891728 Z M105.976185,71.0395481 C94.488734,75.8892178 84.1322452,80.8601294 75.3121587,85.8025134 C74.1263828,89.3552448 73.4043422,93.0469539 73.1640408,96.7855891 C84.4878939,90.9374579 97.9740908,84.9609531 113.039368,79.1484812 C109.938111,76.5524815 107.548153,73.8495038 105.976185,71.0395481 Z M17.3769932,223.640113 C10.7477023,232.825958 5.62636168,242.853363 2.59623516,253.772252 C3.40000112,257.095703 4.40293032,260.44768 5.64058763,263.792526 C9.48159308,252.895033 15.8548169,242.254287 24.28369,232.127035 C21.7933833,229.459226 19.4881336,226.623624 17.3841061,223.640113 L17.3769932,223.640113 Z M27.0292976,344.553791 C27.0292976,337.207968 27.8259506,329.990518 29.3339009,322.92997 C25.7147382,319.569292 22.2721612,316.022351 19.0200899,312.303487 C16.6475019,322.561753 16.0627288,333.154235 17.2916375,343.612385 C20.6560737,350.245021 24.4188365,356.421219 28.5443609,362.190899 C27.5421884,356.36548 27.0353454,350.465235 27.0292976,344.553791 Z M91.5439632,130.811728 C118.537696,118.509257 151.68415,108.702939 190.769937,104.637775 C178.41942,103.084042 166.182925,100.725535 154.138126,97.5772263 C128.495858,104.680566 104.418444,113.203148 83.4493998,123.009465 C85.7255512,125.648256 88.407142,128.25852 91.5368502,130.81886 L91.5439632,130.811728 Z M476.604759,351.871087 C475.228105,348.002599 473.641925,344.212319 471.853293,340.517154 C462.710328,348.812623 452.745398,356.149049 442.113953,362.411987 C443.899309,367.140415 445.350356,371.990085 446.38885,376.918205 C458.722745,368.623844 468.631116,360.158317 476.604759,351.871087 Z M504.210208,297.447808 C501.457356,303.325691 498.251542,308.979382 494.62192,314.357465 C495.681753,318.108827 496.385937,321.71042 496.826942,325.197903 C500.995144,317.944794 503.797655,311.290762 505.711045,305.613796 C505.301549,302.87581 504.800991,300.152297 504.210208,297.447808 Z M504.402258,197.722907 C503.82359,195.287318 503.202294,192.862109 502.538659,190.448402 C502.17521,189.590687 501.776543,188.748407 501.34368,187.923721 C502.431964,194.306743 502.161671,198.806951 502.161671,200.875192 C502.161671,205.047335 500.461671,216.208707 492.744095,229.830574 C496.196923,233.810992 499.28461,238.095588 501.969621,242.632276 C506.877573,229.951816 506.721087,220.716047 506.721087,218.027333 C506.721087,213.962169 506.237405,206.003005 504.402258,197.722907 Z M137.308832,412.484828 C137.308832,401.180818 139.997536,390.333248 144.926826,380.29871 C138.582054,378.558535 132.358203,376.732777 126.305062,374.857096 C121.400719,385.449867 118.847676,396.983675 118.822215,408.662147 C118.822215,413.98252 119.355688,419.21731 120.394182,424.316595 C126.724728,426.313518 133.083726,428.03943 139.392933,429.515727 C138.010274,423.944824 137.310407,418.225635 137.308832,412.484828 Z M447.021904,412.470564 C446.365832,416.150651 445.496578,419.789308 444.418556,423.368057 C465.330697,404.761015 476.72568,387.159567 481.718987,378.415897 C481.911037,378.094963 482.081749,377.759766 482.245347,377.438832 L482.053297,375.577414 C474.264591,387.09538 462.528186,399.9684 447.021904,412.470564 Z M400.005152,53.145693 C410.226495,57.3178354 419.565828,62.4884392 427.781312,68.8001417 C427.368327,68.1323872 426.894471,67.5044717 426.365831,66.9244606 C418.118108,59.4870204 409.393133,52.5995192 400.246994,46.3062322 C397.879818,44.8277485 395.441894,43.4663106 392.94197,42.2268041 C396.740298,45.6287048 399.151596,49.273089 399.99804,53.1385611 L400.005152,53.145693 Z M41.4828588,117.061488 L39.334741,120.370674 C39.7117285,119.907103 40.117168,119.422136 40.5439464,118.944301 C40.8284653,118.295301 41.1485491,117.667697 41.4828588,117.061488 Z M461.006009,147.992396 C467.862915,151.572594 474.09388,155.423802 479.585095,159.53889 C480.765848,155.630626 481.363338,151.608253 481.363338,147.47177 C481.363338,144.925693 482.394719,139.113222 474.200574,124.599872 C469.804757,117.353894 465.060404,110.336137 459.974628,103.582259 C459.903499,103.51094 459.853708,103.439621 459.789691,103.368303 C463.49555,109.309148 467.165844,119.265235 467.165844,126.118959 C467.158731,132.751596 465.465843,140.28998 461.013122,147.992396 L461.006009,147.992396 Z M56.0217757,150.48855 C53.0546735,148.266116 50.2672106,145.812261 47.6853713,143.149858 C36.6246982,150.79522 27.3991722,158.982604 20.4355716,167.654955 C20.3786678,169.024273 20.3502159,170.422119 20.3502159,171.891284 C20.3502159,174.637053 20.6205089,177.382822 21.1326429,180.100063 C29.6682106,170.550493 41.3192605,160.301999 56.0217757,150.48855 Z M23.7288781,367.454217 C29.6599649,380.058122 36.5988018,392.160001 44.4774205,403.641312 C40.282053,396.919774 36.7605601,389.798356 33.9644463,382.381216 C30.1348751,377.706874 26.710569,372.713051 23.7288781,367.454217 Z M8.77740874,189.093348 C7.17088693,194.883983 5.76405283,200.728457 4.55941573,206.616346 C5.21380925,204.334148 6.21673845,201.85939 7.56820333,199.199204 C7.50748027,195.790942 7.91435783,192.390489 8.77740874,189.093348 Z M1.65732272,282.927326 C0.915828603,280.493995 0.36175942,278.007175 0,275.488788 C0.426778383,281.764832 1.05272001,287.98382 1.92050272,294.124358 C1.4957152,290.407641 1.40762852,286.65998 1.65732272,282.927326 Z" id="Shape" fill="#0096D7" fill-rule="nonzero"></path>
            </g>
        </g>
    </g>
</svg>