<svg width="58" height="41" viewBox="0 0 58 41" fill="none" xmlns="http://www.w3.org/2000/svg">
    <path fill-rule="evenodd" clip-rule="evenodd" d="M28.318 0.281401C28.2096 0.401162 28.0381 0.742491 27.9369 1.03969C27.7345 1.63317 27.3802 2.00507 25.7475 3.33738C21.9639 6.42452 21.9573 6.43158 22.4041 6.92545C22.5854 7.12559 22.6336 7.11413 23.5334 6.65674C24.0504 6.39394 24.7601 6.03477 25.1104 5.85861C25.4608 5.68256 26.0588 5.37748 26.4391 5.18093C27.1621 4.80729 27.6537 4.72204 27.6655 4.96816C27.6693 5.04785 27.6669 5.6602 27.66 6.32908C27.6462 7.67297 27.4247 8.36663 26.9366 8.59411C26.7922 8.6614 25.9704 9.08438 25.1104 9.53389C24.2504 9.98351 22.765 10.7554 21.8095 11.2492C20.854 11.7431 20.0065 12.2086 19.9263 12.2836C19.8258 12.3777 19.8041 12.5923 19.8564 12.9737C19.9711 13.8115 20.1611 13.9312 20.8829 13.6213C21.0103 13.5665 21.3491 13.4431 21.6358 13.347C23.0422 12.8753 24.0784 12.4959 24.1467 12.4276C24.2589 12.3154 24.5568 12.3356 24.512 12.4525C24.4908 12.5079 23.8219 13.1718 23.0256 13.9279C22.2293 14.6839 21.4816 15.422 21.364 15.5679C21.1588 15.8228 21.1584 15.8459 21.3558 16.1484C21.7645 16.7751 22.8286 17.7955 23.0722 17.7945C23.2365 17.7937 23.5589 17.4889 24.068 16.853C24.4821 16.3357 24.9172 15.802 25.035 15.6668C25.1528 15.5318 25.6671 14.8909 26.178 14.2429C27.2763 12.8494 27.4966 12.7876 27.3841 13.9043C27.2631 15.107 27.0588 20.2388 27.1252 20.4116C27.1754 20.5425 27.5348 20.5753 28.9211 20.5753C30.5462 20.5753 30.6588 20.561 30.727 20.3462C30.767 20.2201 30.7466 19.5034 30.6817 18.7536C30.6168 18.0036 30.5321 16.439 30.4935 15.2764C30.4121 12.8227 30.4411 12.7693 31.2773 13.8286C31.5665 14.1948 31.9 14.6058 32.0183 14.7416C32.1367 14.8775 32.7442 15.6201 33.3682 16.3921C34.1854 17.4026 34.573 17.7955 34.7532 17.7955C35.0481 17.7955 36.4205 16.3792 36.5348 15.9569C36.5996 15.7177 36.3853 15.4666 34.8847 14.0222C33.9361 13.1094 33.2228 12.3601 33.2994 12.3572C33.4257 12.3523 33.616 12.4179 34.3183 12.708C35.2479 13.0921 37.3324 13.749 37.5282 13.7197C37.7118 13.6922 37.8054 13.5366 37.9285 13.0533C38.0758 12.4757 38.0724 12.4124 37.8875 12.3004C37.4687 12.0465 36.1159 11.3187 34.55 10.5048C33.6581 10.0413 32.4073 9.3912 31.7702 9.06017C30.2237 8.25648 30.113 8.06595 30.1002 6.1843L30.0908 4.82338H30.3739C30.5297 4.82338 31.6812 5.3469 32.9329 5.98682C35.3589 7.22694 35.5345 7.26504 35.5345 6.55099C35.5345 6.27186 35.3204 6.04462 34.1156 5.04472C33.3353 4.39704 32.4623 3.67199 32.1756 3.43351C31.8889 3.19492 31.3257 2.72816 30.924 2.39632C30.4895 2.03716 30.1215 1.62089 30.0154 1.36805C29.513 0.171484 29.4832 0.134769 28.9845 0.0980532C28.6412 0.0728038 28.4623 0.122029 28.318 0.281401ZM25.6895 6.21569C25.3392 6.46876 24.5834 7.0027 24.0101 7.40229C21.7867 8.95177 21.6572 9.0757 21.8192 9.49787C21.8594 9.60246 21.9778 9.68736 22.0825 9.68666C22.2831 9.68527 23.9942 9.09678 25.1683 8.62526C25.5506 8.4718 26.0842 8.27513 26.354 8.18826C27.1089 7.94527 27.2337 7.66834 27.0473 6.64759C26.9087 5.88861 26.8666 5.80533 26.6103 5.7817C26.4336 5.76537 26.0864 5.92903 25.6895 6.21569ZM30.8597 5.95266C30.8282 6.06408 30.7673 6.48243 30.7245 6.88225C30.6202 7.85412 30.6988 7.93716 32.2214 8.46508C32.4829 8.55577 33.3201 8.86803 34.0818 9.15897C34.8436 9.44992 35.5896 9.68793 35.7396 9.68793C35.9776 9.68793 36.0078 9.63987 35.9761 9.31151C35.943 8.96786 35.7483 8.79714 33.7392 7.35133C31.5195 5.75379 30.989 5.4962 30.8597 5.95266ZM29.3212 25.0651C29.2483 25.1119 29.1427 25.3848 29.0865 25.6715L28.9844 26.1927L28.4083 26.2506L27.8323 26.3085L27.6856 27.0499C27.6049 27.4576 27.5659 27.8181 27.5988 27.851C27.6503 27.9025 27.7908 27.929 28.2744 27.9783C28.4314 27.9943 28.2459 28.4603 27.7066 29.4041C27.4254 29.8963 27.1952 30.3684 27.1952 30.4532C27.1952 30.538 27.4024 30.7607 27.6558 30.9481C27.9091 31.1355 28.1175 31.3729 28.119 31.4758C28.1216 31.6478 27.4994 32.1551 26.933 32.4429C26.8031 32.5089 26.6581 32.6411 26.6108 32.7366C26.455 33.0513 26.2482 34.1154 26.32 34.2317C26.4653 34.4669 27.8223 33.8313 28.7459 33.0955C28.9935 32.8981 29.2386 32.7366 29.2904 32.7366C29.3422 32.7366 29.5461 32.9712 29.7433 33.2578C29.9406 33.5445 30.1385 33.7786 30.1832 33.778C30.2839 33.7767 31.1344 32.4687 31.13 32.322C31.1282 32.2634 30.9745 32.0144 30.7886 31.7686L30.4504 31.3217L30.7839 30.7262C31.3742 29.6719 32.1703 27.4931 32.1742 26.9211C32.1766 26.5763 31.7092 26.2506 31.212 26.2506H30.7553L30.8148 25.8065C30.9053 25.1323 30.7622 24.9762 30.0561 24.9783C29.7248 24.9793 29.3941 25.0183 29.3212 25.0651ZM42.7711 25.0651C42.706 25.1119 42.5899 25.2935 42.5129 25.4688L42.373 25.7873H40.9467H39.5205L39.3806 26.3101C39.3037 26.5977 39.2408 26.9625 39.2408 27.1209V27.4088H40.6238C41.3845 27.4088 42.0298 27.4478 42.0578 27.4957C42.0859 27.5435 42.0832 27.7507 42.0519 27.9562L41.9951 28.3299L40.0696 28.3616L38.1442 28.3933L38.05 28.8566C37.9982 29.1114 37.9263 29.4631 37.8903 29.6384L37.8246 29.9569H38.7575C39.2808 29.9569 39.7232 30.0099 39.7651 30.0778C39.9468 30.3718 38.8523 31.4962 37.9462 31.9464C37.3882 32.2235 37.3547 32.2811 37.1688 33.2819C37.0153 34.1094 37.1275 34.1249 38.4519 33.4587C39.6417 32.8603 40.66 32.0693 41.096 31.4047C41.3236 31.0579 41.3241 31.0578 41.3223 31.3468C41.3213 31.506 41.2174 32.1027 41.0914 32.6729C40.9654 33.243 40.9065 33.7538 40.9606 33.8079C41.0147 33.862 41.4187 33.8907 41.8583 33.8716L42.6576 33.8369L42.8086 33.142C42.8916 32.7598 42.9896 32.1984 43.0262 31.8945C43.0629 31.5906 43.1315 31.318 43.1788 31.2889C43.226 31.2597 43.4498 31.5344 43.676 31.8994C44.281 32.8755 45.7399 34.1193 46.1122 33.9765C46.2127 33.938 46.3324 33.6067 46.413 33.1438L46.5469 32.3749L45.9722 31.8584C45.3752 31.3216 44.8461 30.4221 44.9571 30.1328C45.0046 30.0091 45.2821 29.9574 46.0311 29.9326L47.0411 29.899L47.1969 29.2119C47.2825 28.8341 47.3114 28.4837 47.2612 28.4335C47.2109 28.3832 46.4151 28.3275 45.4928 28.3098L43.8158 28.2775L43.8534 27.9315C43.8742 27.7412 43.9523 27.5465 44.0272 27.4989C44.102 27.4513 44.7486 27.4116 45.4641 27.4105L46.7649 27.4088L46.8298 27.0903C46.8655 26.915 46.9425 26.5938 47.0008 26.3762C47.059 26.1587 47.0799 25.9372 47.047 25.884C47.0141 25.8308 46.391 25.7873 45.6621 25.7873H44.337V25.5018C44.337 25.3381 44.2414 25.1652 44.113 25.0964C43.8565 24.9591 42.9476 24.9381 42.7711 25.0651ZM53.0731 25.0651C53.0048 25.1119 52.9153 25.2415 52.874 25.3529C52.8085 25.5307 52.6249 25.5559 51.3768 25.5574C50.5945 25.5584 49.9014 25.5974 49.8366 25.6442C49.7174 25.7305 49.4332 26.689 49.4332 27.005C49.4332 27.1485 49.686 27.1771 50.955 27.1771H52.4769L52.4057 27.7783C52.3214 28.4893 52.0891 28.8006 51.8133 28.5719C51.7146 28.4899 51.6338 28.3365 51.6338 28.2311C51.6338 28.1257 51.5526 27.9236 51.4535 27.7821C51.2994 27.562 51.1663 27.5246 50.5393 27.5246C49.7837 27.5246 49.5737 27.6574 49.7896 27.9984C49.8464 28.0882 49.8937 28.2779 49.8947 28.42C49.8967 28.7094 49.7117 28.7783 48.8031 28.8263L48.2311 28.8566L48.0823 29.4357C47.8613 30.296 47.9247 30.3911 48.6766 30.3288C49.4229 30.2669 49.8965 30.3646 49.8965 30.5803C49.8965 30.801 48.8593 31.7436 48.3056 32.0261C47.7683 32.3002 47.7368 32.3603 47.6281 33.321C47.5472 34.0363 47.5474 34.0366 47.8242 33.9531C48.2242 33.8323 49.4326 33.2457 49.8386 32.9752C50.0297 32.8478 50.545 32.3902 50.9836 31.9583C51.4223 31.5264 51.7475 31.2696 51.7065 31.3877C51.5679 31.7865 51.2866 33.2556 51.2865 33.5814L51.2863 33.9051L52.1212 33.871L52.9559 33.8369L53.0978 33.1999C53.1759 32.8496 53.3059 32.2378 53.3869 31.8405L53.5341 31.1181L53.8797 31.7247C54.0698 32.0583 54.5487 32.6468 54.9439 33.0324C55.6374 33.7091 56.6468 34.3641 56.7843 34.2266C56.821 34.1899 56.9215 33.7905 57.0075 33.339L57.1639 32.5182L56.5413 32.1049C55.9342 31.7018 55.2243 30.8822 55.2243 30.5843C55.2243 30.3562 55.6163 30.281 56.5912 30.3216C57.4431 30.3572 57.487 30.3464 57.6129 30.071C57.6852 29.9126 57.7774 29.5616 57.8177 29.2909L57.891 28.7987H57.2594C56.5396 28.7987 56.3999 28.6766 56.6621 28.2764C57.0159 27.7366 56.9228 27.6404 56.0471 27.6404H55.2484L54.7925 28.1805C54.5232 28.4995 54.2824 28.6871 54.2043 28.6387C54.052 28.5447 54.145 27.5544 54.328 27.3219C54.4085 27.2197 54.8755 27.1771 55.9197 27.1771H57.3975L57.527 26.6625C57.5983 26.3796 57.6566 26.0148 57.6566 25.8518V25.5556H56.1509C54.7535 25.5556 54.6452 25.54 54.6452 25.3375C54.6452 25.2092 54.5378 25.0906 54.3846 25.0495C54.0236 24.9528 53.2234 24.9623 53.0731 25.0651ZM0.406977 25.1792C0.256523 25.4581 0.0803558 26.3809 0.112786 26.721L0.15066 27.1192L1.65635 27.1771C2.55027 27.2115 3.15973 27.2821 3.15637 27.3509C3.14224 27.6356 2.95751 28.6569 2.86311 28.9724C2.72864 29.4217 1.94591 33.4688 1.94591 33.7148C1.94591 33.8785 2.11038 33.8982 3.23525 33.8697L4.52447 33.8369L4.67527 33.3157C4.81993 32.8155 4.94572 32.2063 5.4287 29.6673C5.76169 27.917 5.87322 27.4039 5.94654 27.2852C5.98337 27.2258 6.60545 27.1771 7.329 27.1771C8.05266 27.1771 8.7264 27.1458 8.82624 27.1074C9.00993 27.037 9.93767 25.4638 9.93767 25.2229C9.93767 25.0728 0.487821 25.0296 0.406977 25.1792ZM11.1054 25.3504C10.9369 25.6205 10.7062 26.0442 9.79498 27.7563C9.50681 28.2977 8.66501 29.8526 7.92421 31.2117C7.18329 32.5708 6.60673 33.7304 6.64275 33.7888C6.72035 33.9143 8.66918 33.9297 8.83736 33.8063C8.90106 33.7595 9.00993 33.6169 9.07942 33.4895C9.65251 32.4379 9.86609 32.0879 9.97971 32.0145C10.0521 31.9677 10.8523 31.9287 11.7578 31.9276C13.6237 31.9256 13.5614 31.8941 13.7002 32.9104C13.8452 33.972 13.7563 33.9071 15.0141 33.87L16.1342 33.8369L16.1263 33.4895C16.122 33.2984 16.0286 32.5166 15.9187 31.7521C15.6507 29.8858 15.5387 29.1005 15.3157 27.5246C15.212 26.792 15.092 25.9581 15.049 25.6715L14.9709 25.1503L13.1202 25.1188C11.3051 25.0879 11.2665 25.0923 11.1054 25.3504ZM18.2873 26.3953C18.1451 27.1121 17.9753 27.959 17.9099 28.2775C17.8445 28.596 17.7482 29.0651 17.6959 29.3199C17.6436 29.5747 17.5443 30.0698 17.4753 30.4202C17.4063 30.7705 17.2682 31.4481 17.1686 31.9259C17.0689 32.4036 16.9581 33.0422 16.9225 33.3447L16.8576 33.8949H20.3981C22.5988 33.8949 23.9652 33.8517 24.0091 33.7807C24.0479 33.7179 24.1272 33.3741 24.1854 33.0167C24.2436 32.6593 24.3226 32.2676 24.3612 32.1463C24.4282 31.935 24.341 31.9258 22.2516 31.9241C21.0529 31.9231 19.9984 31.8756 19.9083 31.8186C19.77 31.7311 19.8037 31.4289 20.1243 29.8803C20.3332 28.8714 20.5752 27.6549 20.662 27.1771C20.7489 26.6994 20.8732 26.1264 20.9383 25.9039C21.1792 25.0804 21.196 25.0923 19.8014 25.0923H18.5461L18.2873 26.3953ZM32.9969 25.9593C32.9187 26.3087 32.8875 26.6475 32.9274 26.7121C32.9674 26.7767 33.3878 26.8297 33.8619 26.8297C34.4556 26.8297 34.7237 26.873 34.7237 26.9688C34.7237 27.0453 34.5575 27.3822 34.3543 27.7173L33.9851 28.3267L33.0636 28.36C32.0785 28.3956 32.1257 28.3661 31.7798 29.1636C31.4579 29.9063 31.4972 29.9569 32.3978 29.9569C33.4214 29.9569 33.5822 30.0158 33.4514 30.343C33.3963 30.481 33.2831 30.9253 33.1999 31.3304C33.0322 32.1479 32.7203 32.505 32.1742 32.505C31.7582 32.505 31.5811 32.7363 31.5093 33.3738L31.4506 33.8949H32.5233C33.8184 33.8949 34.2608 33.6914 34.469 32.9998C34.6865 32.2775 35.0712 30.5688 35.0712 30.3252C35.0712 30.0362 35.2834 29.9569 36.0561 29.9569C36.6525 29.9569 36.679 29.9433 36.7933 29.5805C36.8587 29.3734 36.9278 29.0216 36.9472 28.7987L36.9822 28.3933L36.4321 28.358C36.1296 28.3386 35.8819 28.2786 35.8819 28.2246C35.8819 28.1708 36.1195 27.8107 36.4097 27.4245C37.0819 26.5304 37.1811 26.0335 36.7696 25.622C36.477 25.3294 36.4409 25.324 34.8054 25.324H33.139L32.9969 25.9593ZM12.4566 27.264C12.3468 27.503 12.1359 27.9068 11.9881 28.1616C11.3395 29.2791 11.1413 29.6876 11.1846 29.8178C11.2484 30.009 13.1433 30.0112 13.207 29.82C13.2476 29.698 13.1268 28.7578 12.8862 27.3219C12.8408 27.0513 12.7705 26.8297 12.7299 26.8297C12.6894 26.8297 12.5664 27.0252 12.4566 27.264ZM29.7831 28.4222C29.6714 28.6612 29.4344 29.1064 29.2564 29.4118C28.894 30.0332 28.8565 30.2504 29.0954 30.3421C29.3137 30.4259 29.5229 30.1697 30.0207 29.2086C30.4964 28.2902 30.5438 27.9879 30.2121 27.9879C30.0639 27.9879 29.9158 28.1378 29.7831 28.4222ZM5.81219 36.6393C5.35376 37.1293 5.16011 37.4608 5.24859 37.604C5.29237 37.6748 5.40113 37.7048 5.4902 37.6707C5.60185 37.6278 5.65223 37.6967 5.65223 37.8921C5.65223 38.0982 5.57301 38.1958 5.36268 38.2485C5.01475 38.3358 4.99865 38.4255 5.29712 38.612C5.42719 38.6932 5.53653 38.9114 5.55772 39.132C5.59386 39.508 5.60208 39.513 6.28926 39.5702C6.80397 39.613 6.98419 39.6731 6.98419 39.8018C6.98419 39.922 7.12886 39.9862 7.45351 40.0101C7.82078 40.037 7.98942 39.983 8.22836 39.7614C8.39642 39.6057 8.60224 39.4498 8.68563 39.4151C8.79994 39.3676 8.78732 39.3203 8.63467 39.2236C8.52324 39.1531 8.43198 38.9734 8.43198 38.8244C8.43198 38.6374 8.49475 38.5585 8.63467 38.5696C8.74609 38.5785 8.83736 38.5075 8.83736 38.4119C8.83736 38.3164 8.75918 38.2382 8.66362 38.2382C8.5478 38.2382 8.47054 38.0838 8.43198 37.7749L8.37406 37.3116L7.15793 37.2537C5.63845 37.1813 5.92372 37.0221 7.5728 37.0221C8.56818 37.0221 8.77944 36.9916 8.77944 36.8483C8.77944 36.7063 8.58289 36.6746 7.70496 36.6746C6.92037 36.6746 6.56098 36.626 6.37323 36.4945C6.13186 36.3254 6.09769 36.3342 5.81219 36.6393ZM13.7085 36.8628C13.4713 37.1466 13.0731 37.5077 12.8236 37.6652C12.3079 37.9908 12.2239 38.2961 12.6501 38.2961C12.8249 38.2961 13.1698 38.0772 13.5664 37.7149C14.0883 37.2378 14.2302 37.1602 14.3575 37.2817C14.9344 37.8326 15.5706 38.2961 15.7496 38.2961C16.1342 38.2961 15.9925 37.8582 15.5201 37.5862C15.2779 37.4469 14.9309 37.1351 14.7491 36.8934C14.5672 36.6516 14.3558 36.4298 14.2792 36.4003C14.2025 36.3709 13.9457 36.579 13.7085 36.8628ZM21.197 36.5806C21.1199 36.6577 21.0566 36.9647 21.0566 37.2628C21.0566 38.0126 20.7772 38.6154 20.1627 39.1912C19.8307 39.5023 19.6644 39.7445 19.707 39.8552C19.8419 40.2068 20.484 39.7573 21.0829 38.8919L21.4321 38.3875L21.6051 38.7446C21.8478 39.246 22.7413 40.0464 22.9631 39.9613C23.2569 39.8486 23.1683 39.6305 22.6643 39.2255C22.1063 38.7771 21.7436 38.0364 21.6464 37.1473C21.576 36.5021 21.443 36.3345 21.197 36.5806ZM27.4269 36.614C27.4269 36.7081 27.2966 36.8705 27.1373 36.9748C26.8555 37.1594 26.8478 37.201 26.8478 38.5343C26.8478 39.2959 26.8977 39.9349 26.9603 39.9736C27.0222 40.0118 27.1973 39.9615 27.3494 39.8619C27.6178 39.6861 28.006 39.7242 28.006 39.9264C28.006 39.9812 28.0842 39.9962 28.1797 39.9596C28.3106 39.9093 28.3554 39.6887 28.3616 39.0655C28.3661 38.6105 28.4088 38.1387 28.4564 38.017C28.5317 37.8252 28.5739 37.855 28.774 38.2405C29.0585 38.7887 29.3318 38.9856 29.5315 38.7859C29.6435 38.6739 29.5922 38.5602 29.2877 38.2461C28.8117 37.755 28.8692 37.4854 29.4502 37.4854H29.8592V38.3888C29.8592 39.3763 29.7623 39.5702 29.2693 39.5702C28.9755 39.5702 28.7499 39.8122 28.902 39.9642C29.072 40.1343 29.8695 40.0231 30.0946 39.798C30.3069 39.5857 30.327 39.4398 30.2973 38.3213L30.2645 37.08L29.8412 37.0447C29.503 37.0165 29.4035 36.9523 29.3468 36.7261C29.235 36.281 28.9707 36.3934 28.746 36.9815C28.5585 37.4727 28.5306 37.4982 28.4292 37.2711C28.3611 37.1186 28.2127 37.0221 28.0462 37.0221C27.8334 37.0221 27.7744 36.9592 27.7744 36.7325C27.7744 36.5523 27.7087 36.443 27.6006 36.443C27.5051 36.443 27.4269 36.52 27.4269 36.614ZM34.4535 36.5202C34.411 36.5626 34.3762 36.6865 34.3762 36.7956C34.3762 36.9046 34.2589 37.077 34.1156 37.1786C33.8728 37.3507 33.8686 37.3741 34.0537 37.521C34.221 37.6539 34.2333 37.7476 34.1317 38.1153C34.0249 38.5022 34.041 38.5838 34.2726 38.8302L34.5339 39.1084L34.1965 39.4606C33.9187 39.7505 33.889 39.8312 34.0278 39.9171C34.1441 39.989 34.308 39.9363 34.5556 39.7474C34.802 39.5595 34.9666 39.5064 35.0799 39.5779C35.501 39.8444 35.7155 39.503 35.354 39.1416C35.2549 39.0424 35.2028 38.8854 35.2382 38.7929C35.2738 38.7003 35.3044 38.5117 35.3063 38.3735C35.3095 38.1473 35.3216 38.1424 35.4279 38.3251C35.5042 38.4562 35.6872 38.5278 35.9456 38.5278C36.342 38.5278 36.3452 38.5319 36.3452 39.049C36.3452 39.5277 36.3216 39.5702 36.0557 39.5702C35.8434 39.5702 35.7661 39.6319 35.7661 39.8018C35.7661 39.9877 35.8434 40.0335 36.1574 40.0335C36.6593 40.0335 36.7853 39.8704 36.8301 39.1625C36.864 38.6245 36.889 38.583 37.2125 38.5274C37.6683 38.4492 37.7697 38.0645 37.3346 38.0645C36.8994 38.0645 36.8387 37.761 37.1988 37.3853C37.5435 37.0254 37.5905 36.7329 37.3202 36.6291C37.0866 36.5394 35.9565 36.5375 35.725 36.6263C35.3974 36.752 35.6579 37.0221 36.1066 37.0221C36.3441 37.0221 36.5657 37.0495 36.5993 37.0832C36.6329 37.1168 36.558 37.3514 36.4328 37.6044C36.2355 38.0032 36.1537 38.0645 35.8189 38.0645C35.4562 38.0645 35.4305 38.0381 35.3966 37.6301C35.3678 37.2813 35.3094 37.1885 35.1001 37.1587C34.8976 37.13 34.8395 37.0462 34.8395 36.7823C34.8395 36.4632 34.6436 36.3301 34.4535 36.5202ZM42.7155 36.7325C42.6182 36.9884 42.5376 37.0221 42.0234 37.0221C41.5927 37.0221 41.4414 37.0656 41.4414 37.1898C41.4414 37.3104 41.612 37.3672 42.0495 37.3925C42.5793 37.4229 42.6623 37.461 42.6946 37.688C42.7297 37.9354 42.6932 37.9487 41.9776 37.9487C41.5628 37.9487 41.1911 38.0009 41.1517 38.0647C41.0538 38.2233 41.6615 38.44 41.98 38.3601C42.1219 38.3244 42.2691 38.3456 42.3071 38.407C42.3715 38.5113 42.1225 38.7742 41.452 39.3098C41.2925 39.4372 41.2085 39.5903 41.2561 39.6672C41.3832 39.8728 41.4953 39.8355 42.0706 39.3964C42.3627 39.1735 42.6243 38.9911 42.6519 38.9911C42.6796 38.9911 42.7181 39.2126 42.7378 39.4833C42.7627 39.8278 42.8255 39.9755 42.9471 39.9755C43.0687 39.9755 43.1315 39.8278 43.1564 39.4833C43.1964 38.9319 43.3029 38.8804 43.6759 39.2325C44.1957 39.7234 44.8003 39.9071 44.8003 39.5742C44.8003 39.5202 44.5397 39.2888 44.2212 39.06C43.9026 38.8312 43.642 38.5918 43.642 38.528C43.642 38.4642 43.8376 38.4111 44.0764 38.4102C44.5876 38.4081 44.9117 38.245 44.7414 38.0757C44.6782 38.0128 44.3138 37.9455 43.9316 37.9261C43.3256 37.8953 43.2367 37.8611 43.2367 37.6591C43.2367 37.4609 43.3331 37.4191 43.9048 37.3695C44.7532 37.296 44.7714 37.0909 43.9337 37.0452C43.367 37.0144 43.2882 36.979 43.2249 36.7267C43.1327 36.3595 42.8562 36.3625 42.7155 36.7325ZM49.9384 36.6167C49.8925 36.7362 49.7039 36.791 49.3339 36.7922C49.0381 36.7932 48.7201 36.8421 48.627 36.9009C48.4787 36.9947 48.4787 37.0338 48.627 37.2177C49.1476 37.8633 49.1628 38.1803 48.6735 38.1803C48.4994 38.1803 48.3908 38.247 48.3908 38.354C48.3908 38.4832 48.5269 38.5278 48.9204 38.5278C49.3486 38.5278 49.443 38.564 49.4127 38.7169C49.3921 38.821 49.196 39.0022 48.9767 39.1196C48.7575 39.2371 48.5042 39.4072 48.4136 39.4977C48.2715 39.6398 48.2843 39.6734 48.5079 39.7442C48.6979 39.8046 48.902 39.7309 49.277 39.4666C49.5577 39.2688 49.8119 39.1069 49.8419 39.1069C49.8719 39.1069 49.8965 39.2909 49.8965 39.5159C49.8965 39.7777 49.9608 39.9496 50.0752 39.9935C50.312 40.0844 50.3825 39.9985 50.4647 39.5179L50.5335 39.1157L51.0491 39.4627C51.3327 39.6536 51.6454 39.7943 51.7441 39.7753C52.0763 39.7112 51.9268 39.4137 51.411 39.1121C50.6809 38.6851 50.676 38.5278 51.3925 38.5278C51.8387 38.5278 51.9813 38.4857 51.9813 38.354C51.9813 38.1742 51.8752 38.1398 51.4311 38.1758C51.1315 38.2 51.0915 38.0426 51.3442 37.8328C51.4398 37.7535 51.518 37.634 51.518 37.5671C51.518 37.5003 51.6045 37.3501 51.7104 37.2332C51.9648 36.9519 51.8723 36.8837 51.1441 36.8159C50.8045 36.7843 50.4924 36.6889 50.4408 36.6009C50.3175 36.3905 50.0216 36.3998 49.9384 36.6167ZM49.5121 37.7699C49.7314 38.2301 49.8965 38.2044 49.8965 37.7102C49.8965 37.4247 49.8499 37.3695 49.6088 37.3695H49.3211L49.5121 37.7699ZM50.4756 37.717C50.4756 38.1328 50.5417 38.149 50.8295 37.8039C51.1212 37.4543 51.1086 37.3695 50.7651 37.3695C50.5206 37.3695 50.4756 37.4236 50.4756 37.717ZM27.3111 37.7785C27.3111 38.1373 27.6119 38.2765 27.857 38.0313C28.1022 37.7862 27.963 37.4854 27.6042 37.4854C27.3678 37.4854 27.3111 37.5421 27.3111 37.7785ZM6.24548 37.7492C6.00966 37.985 6.10336 38.1803 6.45211 38.1803C6.72776 38.1803 6.77815 38.1398 6.73031 37.9566C6.65769 37.6791 6.41805 37.5766 6.24548 37.7492ZM7.31927 37.7844C7.35795 37.8852 7.38957 38.0155 7.38957 38.074C7.38957 38.1325 7.49381 38.1803 7.62122 38.1803C7.79113 38.1803 7.85286 38.103 7.85286 37.8907C7.85286 37.656 7.79576 37.6012 7.55091 37.6012C7.32321 37.6012 7.26622 37.6462 7.31927 37.7844ZM34.6851 37.6784C34.6426 37.7208 34.6079 37.9653 34.6079 38.2218C34.6079 38.6564 34.6194 38.6727 34.7779 38.463C35.0621 38.0873 34.979 37.3845 34.6851 37.6784ZM14.0607 37.8023C13.9661 37.8968 13.9725 39.9759 14.0677 40.0711C14.1096 40.113 14.2138 40.0892 14.2993 40.0183C14.5245 39.8315 14.5183 37.8821 14.2924 37.7953C14.2031 37.761 14.0988 37.7641 14.0607 37.8023ZM7.2441 38.596C7.10604 38.7342 7.39004 39.1069 7.63338 39.1069C7.8114 39.1069 7.85993 39.0433 7.83202 38.8463C7.79588 38.5919 7.41169 38.4284 7.2441 38.596ZM27.4558 38.6124C27.3763 38.6401 27.3111 38.8149 27.3111 39.0007C27.3111 39.2839 27.358 39.3385 27.6006 39.3385C27.8428 39.3385 27.8902 39.2836 27.8902 39.0034C27.8902 38.6669 27.7252 38.5184 27.4558 38.6124ZM6.07695 38.7208C5.88156 38.9162 6.02113 39.1069 6.35956 39.1069C6.64008 39.1069 6.7039 39.0665 6.64912 38.9236C6.61043 38.8229 6.57881 38.7186 6.57881 38.692C6.57881 38.613 6.16081 38.637 6.07695 38.7208Z" fill="black"/>
</svg>
