<svg width="66" height="16" viewBox="0 0 66 16" fill="none" xmlns="http://www.w3.org/2000/svg">
    <g clip-path="url(#clip0_722_279)">
        <path d="M10.9728 7.99016C12.1359 5.18235 10.8027 1.96308 7.99381 0.800011C5.186 -0.363053 1.96563 0.97008 0.80256 3.77789C0.101431 5.47202 0.307709 7.31317 1.19756 8.76481C2.13131 7.68623 3.68389 7.27148 5.07518 7.84752C6.46537 8.42247 7.27074 9.81376 7.1676 11.238C8.82222 10.8408 10.2717 9.68319 10.9728 7.99016Z" fill="#F8B000"/>
        <path d="M1.19758 8.76489C0.964968 9.03371 0.770756 9.34313 0.628117 9.68876C-0.0916661 11.4257 0.732354 13.4161 2.46927 14.1358C4.20619 14.8545 6.19766 14.0305 6.91745 12.2936C7.06008 11.948 7.14128 11.5914 7.16761 11.237C6.07696 11.4992 4.89634 11.4312 3.78156 10.9692C2.66567 10.5073 1.7835 9.72058 1.19758 8.76489Z" fill="#478ACA"/>
        <path d="M5.07524 7.8475C3.68395 7.27146 2.13138 7.68621 1.19763 8.76479C1.78355 9.72047 2.66682 10.5072 3.78161 10.9691C4.89639 11.4311 6.07701 11.4991 7.16766 11.2368C7.2708 9.81374 6.46544 8.42245 5.07524 7.8475Z" fill="#EB6823"/>
        <path d="M8.09806 0.54878C6.67276 -0.0426273 5.10263 -0.0426273 3.67733 0.54878C2.25202 1.13799 1.14162 2.24839 0.550216 3.67479C0.278104 4.33203 0.125588 5.02658 0.105838 5.72332V10.9297C0.0981943 11.4267 0.179353 11.9249 0.375756 12.3978C0.752105 13.3052 1.45872 14.0118 2.36503 14.3871C2.82368 14.5769 3.29987 14.6668 3.76729 14.6668C4.74822 14.6668 5.69513 14.2718 6.38529 13.5751L6.3864 13.5762L10.0468 9.89281L10.0436 9.88955C10.5406 9.37605 10.9455 8.76928 11.2253 8.09558C12.4443 5.1528 11.041 1.76675 8.09819 0.548826L8.09806 0.54878ZM6.90221 11.0164C5.88727 11.2183 4.84929 11.1163 3.88592 10.718C2.92255 10.3186 2.11609 9.65693 1.54114 8.79671C2.43209 7.89039 3.78388 7.60731 4.97108 8.09887C6.15719 8.59043 6.91319 9.74691 6.90221 11.0164ZM4.97108 13.8835C4.19863 14.205 3.34718 14.2039 2.57473 13.8835C1.80118 13.5642 1.1999 12.9618 0.879509 12.1893C0.721508 11.8086 0.640317 11.4048 0.640317 11.0087C0.640317 10.3394 0.847695 9.71948 1.18125 9.2345C1.80777 10.1189 2.6647 10.8013 3.67745 11.2216C4.69019 11.6407 5.77865 11.7625 6.84735 11.5804C6.75848 12.0994 6.34152 13.314 4.97108 13.8835ZM10.7217 7.886C10.1281 9.31899 8.91892 10.4162 7.44753 10.8771C7.40474 9.44298 6.52805 8.15373 5.17956 7.59524C4.72201 7.40542 4.24362 7.31435 3.77071 7.31435C2.84794 7.31435 1.94492 7.66217 1.25476 8.31283C0.540466 6.94568 0.461466 5.3152 1.05397 3.88331C1.58942 2.59187 2.59448 1.58681 3.88592 1.05245C5.17736 0.517006 6.59937 0.517006 7.88972 1.05245C10.5549 2.15517 11.8255 5.22193 10.7217 7.886Z" fill="#E1E6E8"/>
        <path d="M22.7998 6.16999L22.2348 2.57436L20.1072 5.90665L17.9808 2.57436L17.4135 6.16999H16.5314L17.4103 0.204346L20.1072 4.30689L22.8031 0.204346L23.6831 6.16999H22.7998Z" fill="#17213D"/>
        <path d="M25.2883 3.18662C25.2883 1.48152 26.6105 0.106689 28.3156 0.106689C30.0295 0.106689 31.3604 1.48152 31.3604 3.18662C31.3604 4.88294 30.0295 6.25777 28.3156 6.25777C26.6105 6.25777 25.2883 4.88294 25.2883 3.18662ZM30.4651 3.18662C30.4651 1.95114 29.5423 0.941685 28.3156 0.941685C27.0977 0.941685 26.1848 1.95114 26.1848 3.18662C26.1848 4.41332 27.0977 5.42168 28.3156 5.42168C29.5423 5.42168 30.4651 4.41332 30.4651 3.18662Z" fill="#17213D"/>
        <path d="M33.4485 0.175781H34.3449V5.35251H36.7544V6.16995H33.4485V0.175781Z" fill="#17213D"/>
        <path d="M38.1381 4.43088H39.0246C39.0422 4.94328 39.5217 5.43923 40.2689 5.43923C40.9832 5.43923 41.4001 5.00473 41.4001 4.50878C41.4001 3.97772 40.9217 3.72536 40.4346 3.59479L39.6687 3.40387C38.3904 3.08238 38.1809 2.32529 38.1809 1.82934C38.1809 0.776001 39.1124 0.106689 40.1734 0.106689C41.252 0.106689 42.0958 0.784779 42.0958 1.87323H41.2092C41.2092 1.30706 40.7648 0.924129 40.1471 0.924129C39.582 0.924129 39.0773 1.26427 39.0773 1.81179C39.0773 2.0027 39.1388 2.4032 39.8958 2.59521L40.6518 2.78613C41.6613 3.03849 42.2966 3.58711 42.2966 4.46489C42.2966 5.46556 41.478 6.25777 40.2689 6.25777C38.9906 6.25777 38.1381 5.39644 38.1381 4.43088Z" fill="#17213D"/>
        <path d="M43.9666 3.18662C43.9666 1.48152 45.2887 0.106689 46.9938 0.106689C48.7077 0.106689 50.0386 1.48152 50.0386 3.18662C50.0386 4.88294 48.7077 6.25777 46.9938 6.25777C45.2887 6.25777 43.9666 4.88294 43.9666 3.18662ZM49.1433 3.18662C49.1433 1.95114 48.2205 0.941685 46.9938 0.941685C45.7759 0.941685 44.863 1.95114 44.863 3.18662C44.863 4.41332 45.7759 5.42168 46.9938 5.42168C48.2205 5.42168 49.1433 4.41332 49.1433 3.18662Z" fill="#17213D"/>
        <path d="M56.9456 0.195557V6.1612L53.0186 2.29566V6.1612H52.1266V0.195557L56.0547 3.92943V0.195557H56.9456Z" fill="#17213D"/>
        <path d="M16.505 11.6166C16.505 9.92024 17.8524 8.54541 19.5498 8.54541C20.4978 8.54541 21.3241 8.96346 21.8551 9.62509L21.1935 10.155C20.8105 9.67666 20.2191 9.3815 19.5586 9.3815C18.3407 9.3815 17.4003 10.3811 17.4003 11.6166C17.4003 12.8433 18.3319 13.8527 19.5586 13.8527C20.2191 13.8527 20.8105 13.5477 21.1935 13.0781L21.8551 13.6091C21.3241 14.2697 20.4978 14.6877 19.5498 14.6877C17.8524 14.6877 16.505 13.3129 16.505 11.6166Z" fill="#17213D"/>
        <path d="M23.5284 11.6165C23.5284 9.91145 24.8506 8.53662 26.5557 8.53662C28.2696 8.53662 29.6005 9.91145 29.6005 11.6165C29.6005 13.3129 28.2696 14.6877 26.5557 14.6877C24.8506 14.6877 23.5284 13.3129 23.5284 11.6165ZM28.7041 11.6165C28.7041 10.3811 27.7824 9.37271 26.5557 9.37271C25.3378 9.37271 24.4238 10.3811 24.4238 11.6165C24.4238 12.8432 25.3378 13.8527 26.5557 13.8527C27.7824 13.8527 28.7041 12.8432 28.7041 11.6165Z" fill="#17213D"/>
        <path d="M31.0763 11.6165C31.0763 9.91145 32.3985 8.53662 34.1035 8.53662C35.8174 8.53662 37.1484 9.91145 37.1484 11.6165C37.1484 13.3129 35.8174 14.6877 34.1035 14.6877C32.3985 14.6877 31.0763 13.3129 31.0763 11.6165ZM36.253 11.6165C36.253 10.3811 35.3303 9.37271 34.1035 9.37271C32.8856 9.37271 31.9727 10.3811 31.9727 11.6165C31.9727 12.8432 32.8856 13.8527 34.1035 13.8527C35.3303 13.8527 36.253 12.8432 36.253 11.6165Z" fill="#17213D"/>
        <path d="M40.8196 12.3649H40.1328V14.6011H39.2363V8.60693H41.5252C42.8386 8.60693 43.3696 9.55494 43.3696 10.504C43.3696 11.3643 42.934 12.208 41.8291 12.3474L43.4212 14.6011H42.3514L40.8196 12.3649ZM40.1328 11.5815H41.3068C42.1341 11.5815 42.4732 11.1382 42.4732 10.504C42.4732 9.87643 42.099 9.42437 41.5164 9.42437H40.1328V11.5815Z" fill="#17213D"/>
        <path d="M45.1438 12.8608H46.0315C46.0479 13.3743 46.5274 13.8703 47.2746 13.8703C47.9889 13.8703 48.4059 13.4358 48.4059 12.9387C48.4059 12.4087 47.9275 12.1564 47.4403 12.0258L46.6744 11.8349C45.3962 11.5123 45.1877 10.7552 45.1877 10.2593C45.1877 9.20703 46.1181 8.53662 47.1792 8.53662C48.2578 8.53662 49.1026 9.2158 49.1026 10.3032H48.215C48.215 9.73809 47.7717 9.35515 47.1539 9.35515C46.5878 9.35515 46.083 9.6942 46.083 10.2428C46.083 10.4337 46.1445 10.8342 46.9016 11.0251L47.6576 11.2172C48.667 11.4684 49.3023 12.017 49.3023 12.8959C49.3023 13.8966 48.4849 14.6877 47.2746 14.6877C45.9964 14.6877 45.1438 13.8264 45.1438 12.8608Z" fill="#17213D"/>
        <path d="M53.7209 10.2449C53.7209 10.7244 53.3774 11.036 52.9693 11.036C52.7652 11.036 52.5446 10.9483 52.4448 10.776V11.0031H52.1266V8.67041H52.4448V9.71388C52.5446 9.54161 52.7553 9.45822 52.9693 9.45822C53.3807 9.45822 53.7209 9.76215 53.7209 10.2449ZM53.4005 10.2417C53.4005 9.95639 53.1931 9.75889 52.9309 9.75889C52.6972 9.75889 52.447 9.93774 52.447 10.2417C52.447 10.5467 52.6774 10.7343 52.9309 10.7343C53.1931 10.7343 53.4005 10.5237 53.4005 10.2417Z" fill="#17213D"/>
        <path d="M55.5291 10.3744H54.3233C54.3661 10.6213 54.5471 10.7409 54.7929 10.7409C54.9685 10.7409 55.1341 10.6663 55.2175 10.527L55.471 10.6531C55.3371 10.9055 55.0661 11.0361 54.7775 11.0361C54.3398 11.0361 53.9963 10.7212 53.9963 10.2417C53.9963 9.76218 54.3463 9.45825 54.7775 9.45825C55.2088 9.45825 55.5357 9.76218 55.5357 10.2384C55.5357 10.2812 55.5325 10.3262 55.5294 10.3744H55.5291ZM55.2177 10.1188C55.1892 9.88288 55.0148 9.75231 54.781 9.75231C54.5473 9.75231 54.3729 9.86971 54.3279 10.1188H55.2177Z" fill="#17213D"/>
        <path d="M57.2298 9.48999L56.5989 11.0031H56.2972L55.6652 9.48999H56.0053L56.4464 10.5916L56.8864 9.48999H57.2298Z" fill="#17213D"/>
        <path d="M58.9021 10.3744H57.6973C57.7391 10.6213 57.9201 10.7409 58.1669 10.7409C58.3414 10.7409 58.5071 10.6663 58.5905 10.527L58.8439 10.6531C58.7112 10.9055 58.439 11.0361 58.1505 11.0361C57.7127 11.0361 57.3693 10.7212 57.3693 10.2417C57.3693 9.76218 57.7193 9.45825 58.1505 9.45825C58.5817 9.45825 58.9087 9.76218 58.9087 10.2384C58.9087 10.2812 58.9055 10.3262 58.9023 10.3744H58.9021ZM58.5907 10.1188C58.5622 9.88288 58.3877 9.75231 58.154 9.75231C57.9203 9.75231 57.7458 9.86971 57.7008 10.1188H58.5907Z" fill="#17213D"/>
        <path d="M60.2824 9.51324L60.2275 9.81497C60.143 9.77547 60.0662 9.7623 60.0037 9.7623C59.7283 9.7623 59.5988 10.0509 59.5988 10.459V11.0033H59.2784V9.49019H59.5988V9.83033C59.6767 9.5648 59.8293 9.45728 60.0235 9.45728C60.1277 9.45728 60.2341 9.48361 60.2824 9.51323" fill="#17213D"/>
        <path d="M62.0093 9.49007V11.0031H61.6923V10.776C61.5913 10.9483 61.3741 11.0361 61.17 11.0361C60.7585 11.0361 60.4184 10.7245 60.4184 10.245C60.4184 9.76218 60.7585 9.45825 61.1667 9.45825C61.3807 9.45825 61.5913 9.54164 61.6923 9.71391V9.49007H62.0093ZM61.689 10.2417C61.689 9.93774 61.4388 9.75889 61.2062 9.75889C60.9472 9.75889 60.7366 9.95639 60.7366 10.2417C60.7366 10.5237 60.9472 10.7343 61.2062 10.7343C61.4619 10.7343 61.689 10.5467 61.689 10.2417Z" fill="#17213D"/>
        <path d="M63.98 9.49007V10.776C63.98 11.4794 63.6552 11.758 63.1472 11.758C62.8619 11.758 62.5964 11.6088 62.4538 11.34L62.7226 11.2072C62.8071 11.3696 62.9815 11.4629 63.1472 11.4629C63.4643 11.4629 63.6618 11.2818 63.6618 10.8024V10.7826C63.5587 10.9483 63.3414 11.0361 63.1406 11.0361C62.7292 11.0361 62.389 10.7245 62.389 10.245C62.389 9.76218 62.7292 9.45825 63.1373 9.45825C63.348 9.45825 63.5587 9.54164 63.6618 9.71062V9.49007L63.98 9.49007ZM63.6585 10.2417C63.6585 9.93774 63.4094 9.75889 63.1757 9.75889C62.9168 9.75889 62.7061 9.95639 62.7061 10.2417C62.7061 10.5237 62.9168 10.7343 63.1757 10.7343C63.4325 10.7343 63.6585 10.5467 63.6585 10.2417Z" fill="#17213D"/>
        <path d="M65.8881 10.3744H64.6834C64.7251 10.6213 64.9061 10.7409 65.153 10.7409C65.3274 10.7409 65.4931 10.6663 65.5765 10.527L65.83 10.6531C65.6972 10.9055 65.4251 11.0361 65.1365 11.0361C64.6987 11.0361 64.3553 10.7212 64.3553 10.2417C64.3553 9.76218 64.7053 9.45825 65.1365 9.45825C65.5677 9.45825 65.8947 9.76218 65.8947 10.2384C65.8947 10.2812 65.8915 10.3262 65.8883 10.3744H65.8881ZM65.5767 10.1188C65.5482 9.88288 65.3737 9.75231 65.14 9.75231C64.9063 9.75231 64.7318 9.86971 64.6869 10.1188H65.5767Z" fill="#17213D"/>
        <path d="M52.1266 13.8451C52.1266 13.3656 52.5062 13.0583 52.9429 13.0583C53.1898 13.0583 53.4005 13.1582 53.5332 13.3173L53.3226 13.5148C53.2348 13.4182 53.102 13.3557 52.9495 13.3557C52.6675 13.3557 52.4448 13.5576 52.4448 13.8451C52.4448 14.1336 52.6675 14.3344 52.9495 14.3344C53.102 14.3344 53.2348 14.273 53.3226 14.1764L53.5332 14.3739C53.4005 14.533 53.1898 14.6329 52.9429 14.6329C52.5062 14.6329 52.1266 14.3246 52.1266 13.8451Z" fill="#17213D"/>
        <path d="M53.7406 13.8429C53.7406 13.3634 54.1027 13.0583 54.5339 13.0583C54.9651 13.0583 55.3316 13.3634 55.3316 13.8429C55.3316 14.3213 54.9651 14.6362 54.5339 14.6362C54.1027 14.6362 53.7406 14.3213 53.7406 13.8429ZM55.0134 13.8429C55.0134 13.551 54.7939 13.3568 54.5339 13.3568C54.275 13.3568 54.0577 13.551 54.0577 13.8429C54.0577 14.1369 54.275 14.3344 54.5339 14.3344C54.7939 14.3344 55.0134 14.1369 55.0134 13.8429Z" fill="#17213D"/>
        <path d="M58.0956 13.7386V14.6032H57.7741V13.7617C57.7741 13.5115 57.6446 13.3656 57.4405 13.3656C57.2233 13.3633 57.0817 13.5181 57.062 13.7419V14.6032H56.7405V13.7584C56.7405 13.5082 56.611 13.3656 56.4234 13.3656C56.2259 13.3656 56.0251 13.4863 56.0251 13.7935V14.6032H55.7069V13.0902H56.0251V13.3305C56.0931 13.1626 56.2906 13.0583 56.498 13.0583C56.7153 13.0583 56.9029 13.1681 56.9907 13.3634C57.1267 13.1066 57.3626 13.0583 57.5119 13.0583C57.8915 13.0583 58.0956 13.3074 58.0956 13.7386Z" fill="#17213D"/>
        <path d="M60.143 13.8484C60.143 14.3311 59.8028 14.6362 59.3914 14.6362C59.1774 14.6362 58.9668 14.5517 58.8669 14.3794V15.3395H58.5487V13.0913H58.8669V13.3173C58.9668 13.1461 59.1873 13.0583 59.3914 13.0583C59.7996 13.0583 60.143 13.3656 60.143 13.8484ZM59.8226 13.8516C59.8226 13.5674 59.6152 13.3568 59.3519 13.3568C59.0995 13.3568 58.8702 13.5477 58.8702 13.8516C58.8702 14.1566 59.1193 14.3344 59.3519 14.3344C59.6152 14.3344 59.8226 14.1369 59.8226 13.8516Z" fill="#17213D"/>
        <path d="M62.0159 13.0902V14.6032H61.6989V14.3772C61.5979 14.5484 61.3807 14.6362 61.1766 14.6362C60.7651 14.6362 60.425 14.3256 60.425 13.8462C60.425 13.3623 60.7651 13.0583 61.1733 13.0583C61.3873 13.0583 61.5979 13.1428 61.6989 13.314V13.0902H62.0159ZM61.6956 13.8418C61.6956 13.5378 61.4454 13.359 61.2128 13.359C60.9528 13.359 60.7421 13.5576 60.7421 13.8418C60.7421 14.1238 60.9528 14.3344 61.2128 14.3344C61.4684 14.3344 61.6956 14.1468 61.6956 13.8418Z" fill="#17213D"/>
        <path d="M63.9054 13.7386V14.6032H63.5872V13.7617C63.5872 13.5148 63.4391 13.3722 63.2438 13.3722C63.0463 13.3722 62.8071 13.483 62.8071 13.7968V14.6032H62.4889V13.0902H62.8071V13.3239C62.8938 13.1395 63.1374 13.0583 63.2997 13.0583C63.6816 13.0583 63.9087 13.3074 63.9054 13.7386Z" fill="#17213D"/>
        <path d="M65.6906 13.0901L64.7514 15.3394H64.4135L64.7382 14.5384L64.1359 13.0901H64.4793L64.9127 14.1434L65.3472 13.0901H65.6906Z" fill="#17213D"/>
    </g>
    <defs>
        <clipPath id="clip0_722_279">
            <rect width="66" height="15.4449" fill="white"/>
        </clipPath>
    </defs>
</svg>
