<svg width="160" height="22" viewBox="0 0 160 22" fill="none" xmlns="http://www.w3.org/2000/svg">
<g clip-path="url(#clip0_114_8309)">
<path d="M34.5327 5.19824C33.9029 5.19996 33.2811 5.33903 32.7105 5.60576C32.1399 5.87248 31.6344 6.26044 31.2292 6.74258V5.74883H27.9189V21.9107H31.5985V16.2503C32.4207 16.94 33.4596 17.3179 34.5327 17.3179C36.1136 17.2949 37.6207 16.6457 38.7234 15.5128C39.8261 14.3799 40.4344 12.8557 40.4146 11.2749C40.4344 9.694 39.8261 8.16987 38.7234 7.03694C37.6207 5.904 36.1136 5.25481 34.5327 5.23181M40.4146 11.2749C40.4344 9.694 39.8261 8.16987 38.7234 7.03694C37.6207 5.904 36.1136 5.25481 34.5327 5.23181M34.1702 13.9607C33.6347 13.9835 33.1046 13.8455 32.6482 13.5646C32.1918 13.2836 31.8298 12.8726 31.6089 12.3842C31.388 11.8959 31.3183 11.3527 31.4087 10.8244C31.499 10.2961 31.7454 9.80694 32.1161 9.41982C32.4867 9.0327 32.9648 8.76533 33.4886 8.65211C34.0125 8.53889 34.5582 8.58499 35.0557 8.78448C35.5532 8.98397 35.9795 9.32773 36.28 9.77154C36.5805 10.2154 36.7413 10.7389 36.7418 11.2749C36.7498 11.6202 36.6896 11.9638 36.5646 12.2858C36.4396 12.6078 36.2523 12.902 36.0134 13.1515C35.7745 13.401 35.4887 13.6009 35.1724 13.7398C34.8561 13.8786 34.5155 13.9537 34.1702 13.9607Z" fill="#047BC1"/>
<path d="M46.4777 15.1159C46.479 15.5531 46.3506 15.9809 46.1087 16.3451C45.8668 16.7092 45.5222 16.9934 45.1187 17.1616C44.7151 17.3299 44.2708 17.3746 43.8418 17.2901C43.4128 17.2056 43.0186 16.9958 42.709 16.6871C42.3994 16.3784 42.1883 15.9848 42.1025 15.5561C42.0167 15.1274 42.0601 14.6829 42.2271 14.2788C42.3941 13.8748 42.6772 13.5294 43.0406 13.2864C43.4041 13.0433 43.8314 12.9136 44.2686 12.9136C44.5584 12.9127 44.8455 12.969 45.1135 13.0793C45.3815 13.1896 45.6251 13.3517 45.8303 13.5563C46.0355 13.7609 46.1983 14.0039 46.3094 14.2716C46.4205 14.5392 46.4777 14.8262 46.4777 15.1159Z" fill="#FCAF17"/>
<path fill-rule="evenodd" clip-rule="evenodd" d="M23.5007 4.20473C23.0927 4.20606 22.6935 4.08629 22.3536 3.8606C22.0138 3.6349 21.7485 3.31343 21.5915 2.93688C21.4344 2.56034 21.3926 2.14566 21.4714 1.74536C21.5502 1.34505 21.746 0.977126 22.034 0.688168C22.322 0.399211 22.6893 0.202218 23.0893 0.122135C23.4894 0.0420511 23.9042 0.0824788 24.2813 0.238298C24.6583 0.394118 24.9806 0.658322 25.2075 0.997453C25.4343 1.33659 25.5553 1.73539 25.5553 2.14337C25.5562 2.41376 25.5037 2.68166 25.4009 2.93171C25.298 3.18177 25.1468 3.40906 24.9559 3.60057C24.765 3.79207 24.5382 3.94401 24.2885 4.04769C24.0388 4.15136 23.7711 4.20473 23.5007 4.20473Z" fill="#047BC1"/>
<path d="M25.3472 5.74902H21.6743V16.7742H25.3472V5.74902Z" fill="#047BC1"/>
<path fill-rule="evenodd" clip-rule="evenodd" d="M0 0.605957V3.68792H4.77402V16.7678H8.45357V3.68792H13.2276V0.605957H0Z" fill="#047BC1"/>
<path d="M54.1927 13.9407C53.4804 13.9407 52.7972 13.6577 52.2935 13.1541C51.7898 12.6504 51.5069 11.9672 51.5069 11.2549C51.5069 10.5426 51.7898 9.85945 52.2935 9.35576C52.7972 8.85208 53.4804 8.56911 54.1927 8.56911C54.542 8.57029 54.8873 8.64435 55.2064 8.78656C55.5255 8.92877 55.8114 9.136 56.0459 9.39499L58.4765 6.96434C57.6298 6.12321 56.553 5.55164 55.3818 5.3217C54.2107 5.09177 52.9977 5.21378 51.8958 5.67234C50.7939 6.13089 49.8525 6.90547 49.1902 7.89837C48.528 8.89128 48.1746 10.0581 48.1746 11.2516C48.1746 12.4451 48.528 13.6118 49.1902 14.6047C49.8525 15.5976 50.7939 16.3722 51.8958 16.8308C52.9977 17.2893 54.2107 17.4113 55.3818 17.1814C56.553 16.9515 57.6298 16.3799 58.4765 15.5388L56.0459 13.1148C55.8104 13.3725 55.5243 13.5789 55.2054 13.721C54.8865 13.8631 54.5418 13.9379 54.1927 13.9407Z" fill="#047BC1"/>
<path fill-rule="evenodd" clip-rule="evenodd" d="M86.3486 5.19153C85.6669 5.14849 84.9865 5.29433 84.3823 5.613C83.7781 5.93167 83.2736 6.41082 82.9242 6.99773C82.5894 6.42815 82.1069 5.95961 81.5278 5.64167C80.9486 5.32373 80.2943 5.1682 79.634 5.19153C78.9846 5.17295 78.3423 5.33118 77.7758 5.64932C77.2094 5.96745 76.7399 6.43352 76.4178 6.99773V5.74883H73.1143V16.7673H76.7871V9.89169C76.7728 9.67086 76.804 9.44947 76.8788 9.24118C76.9535 9.03289 77.0701 8.84214 77.2214 8.68071C77.3728 8.51928 77.5556 8.39061 77.7587 8.30265C77.9617 8.21469 78.1807 8.16931 78.4019 8.16931C78.6232 8.16931 78.8421 8.21469 79.0452 8.30265C79.2482 8.39061 79.4311 8.51928 79.5824 8.68071C79.7338 8.84214 79.8504 9.03289 79.9251 9.24118C79.9998 9.44947 80.031 9.67086 80.0168 9.89169V16.7673H83.4747V9.89169C83.4605 9.67086 83.4917 9.44947 83.5664 9.24118C83.6411 9.03289 83.7577 8.84214 83.9091 8.68071C84.0604 8.51928 84.2433 8.39061 84.4463 8.30265C84.6494 8.21469 84.8683 8.16931 85.0896 8.16931C85.3109 8.16931 85.5298 8.21469 85.7328 8.30265C85.9359 8.39061 86.1187 8.51928 86.2701 8.68071C86.4214 8.84214 86.5381 9.03289 86.6128 9.24118C86.6875 9.44947 86.7187 9.67086 86.7044 9.89169V16.7673H90.3773V9.20009C90.3773 6.71572 88.8195 5.17139 86.3486 5.17139" fill="#047BC1"/>
<path d="M65.2113 5.19824C64.0161 5.19824 62.8477 5.55266 61.8539 6.21668C60.8602 6.8807 60.0856 7.8245 59.6282 8.92872C59.1708 10.0329 59.0512 11.248 59.2843 12.4202C59.5175 13.5925 60.0931 14.6692 60.9382 15.5144C61.7833 16.3595 62.8601 16.9351 64.0323 17.1682C65.2046 17.4014 66.4196 17.2817 67.5238 16.8244C68.6281 16.367 69.5719 15.5924 70.2359 14.5986C70.8999 13.6049 71.2543 12.4365 71.2543 11.2413C71.2543 9.63858 70.6177 8.10151 69.4844 6.96821C68.3511 5.83492 66.814 5.19824 65.2113 5.19824ZM65.2113 13.9271C64.6758 13.9499 64.1458 13.8119 63.6893 13.531C63.2329 13.2501 62.8709 12.839 62.65 12.3507C62.4292 11.8623 62.3594 11.3191 62.4498 10.7908C62.5402 10.2625 62.7865 9.77337 63.1572 9.38625C63.5279 8.99913 64.0059 8.73176 64.5297 8.61854C65.0536 8.50531 65.5994 8.55141 66.0968 8.75091C66.5943 8.9504 67.0207 9.29416 67.3211 9.73797C67.6216 10.1818 67.7824 10.7053 67.7829 11.2413C67.7973 11.9383 67.5347 12.6125 67.0525 13.116C66.5704 13.6196 65.9082 13.9112 65.2113 13.9271Z" fill="#047BC1"/>
<path d="M19.1028 5.68848C18.4469 5.68727 17.8012 5.85003 17.2242 6.16195C16.6472 6.47388 16.1574 6.92509 15.7993 7.47454V5.74891H12.489V16.7674H16.182V12.1747C16.1649 11.7654 16.2329 11.357 16.3818 10.9754C16.5306 10.5937 16.757 10.2471 17.0467 9.95745C17.3364 9.66779 17.683 9.44138 18.0646 9.29254C18.4463 9.14369 18.8547 9.07566 19.264 9.09274C19.4578 9.0959 19.6511 9.11612 19.8414 9.15317V5.79592C19.5969 5.75858 19.3501 5.73838 19.1028 5.73548" fill="#047BC1"/>
<path d="M105.203 8.32093H105.049V10.0197H108.641V14.458C108.126 14.7566 107.572 14.9825 106.996 15.1294C106.225 15.3186 105.433 15.411 104.639 15.4047C103.751 15.4097 102.871 15.2243 102.061 14.8609C101.318 14.5239 100.652 14.0403 100.102 13.4391C99.5512 12.8379 99.1281 12.1316 98.8578 11.3626C98.2761 9.74128 98.2761 7.96818 98.8578 6.34686C99.135 5.57799 99.5566 4.8692 100.1 4.25865C100.648 3.65368 101.316 3.16897 102.061 2.83518C102.878 2.47046 103.765 2.28938 104.659 2.30473C105.509 2.2898 106.354 2.44504 107.143 2.76132C107.845 3.05281 108.479 3.48729 109.003 4.03707L109.111 4.15122L109.225 4.04379L110.313 2.95604L110.42 2.84189L110.313 2.73446C109.629 2.05484 108.813 1.52241 107.916 1.16998C106.87 0.773769 105.757 0.58229 104.639 0.605959C103.528 0.596726 102.426 0.80664 101.396 1.22369C100.424 1.61762 99.5406 2.2036 98.7999 2.94658C98.0593 3.68956 97.476 4.57428 97.0851 5.54784C96.6609 6.59463 96.4486 7.71522 96.4607 8.84466C96.4508 9.97264 96.6582 11.092 97.0717 12.1415C97.4546 13.1165 98.0326 14.003 98.7705 14.7466C99.5083 15.4902 100.39 16.0752 101.362 16.4656C102.404 16.8833 103.517 17.0932 104.639 17.0834C105.671 17.0872 106.699 16.9631 107.701 16.7141C108.666 16.455 109.589 16.0569 110.44 15.5323L110.514 15.4853V8.32093H105.203Z" fill="#7AAADB"/>
<path d="M140.246 6.2124H140.091V11.584C140.103 12.1672 140.016 12.7482 139.836 13.3029C139.694 13.7401 139.466 14.1442 139.165 14.4914C138.907 14.7814 138.588 15.0107 138.231 15.1628C137.89 15.3087 137.522 15.3841 137.15 15.3844C136.715 15.3993 136.281 15.3168 135.881 15.1427C135.566 14.991 135.295 14.7596 135.096 14.4712C134.883 14.1505 134.739 13.7893 134.673 13.4104C134.583 12.9391 134.54 12.46 134.545 11.9802V6.2124H132.759V12.6046C132.706 13.7381 133.061 14.853 133.76 15.747C134.139 16.1639 134.608 16.4892 135.131 16.6986C135.655 16.9079 136.219 16.9958 136.781 16.9556C137.534 16.9552 138.272 16.756 138.923 16.3782C139.443 16.0893 139.9 15.6988 140.266 15.23V16.6937H141.898V6.2124H140.266H140.246Z" fill="#7AAADB"/>
<path d="M155.105 9.28781C154.855 8.63963 154.481 8.04657 154.004 7.54204C153.52 7.04416 152.943 6.64706 152.305 6.37371C151.598 6.0844 150.84 5.94054 150.076 5.9507C149.309 5.95532 148.554 6.13443 147.867 6.47443C147.266 6.76599 146.744 7.1964 146.343 7.73004V6.21256H144.557V21.9111H146.343V15.1966C146.749 15.7166 147.271 16.1349 147.867 16.4186C148.554 16.7586 149.309 16.9377 150.076 16.9423C150.838 16.9533 151.594 16.8094 152.298 16.5193C152.941 16.2502 153.521 15.8526 154.004 15.351C154.483 14.8476 154.857 14.2542 155.105 13.6052C155.624 12.2083 155.624 10.6713 155.105 9.27438M153.366 12.9875C153.208 13.4476 152.964 13.8737 152.648 14.2431C152.327 14.599 151.933 14.8809 151.493 15.069C150.998 15.2778 150.465 15.3807 149.928 15.3712C149.411 15.3768 148.899 15.2739 148.424 15.069C147.974 14.8738 147.567 14.5901 147.228 14.2349C146.889 13.8797 146.624 13.4601 146.45 13.0009C146.074 11.9941 146.074 10.8855 146.45 9.87869C146.628 9.41299 146.895 8.98646 147.236 8.62307C147.562 8.27528 147.955 7.99669 148.391 7.8039C148.865 7.59901 149.378 7.49608 149.895 7.50175C150.432 7.49104 150.966 7.59639 151.459 7.81062C151.9 8.00631 152.294 8.29488 152.614 8.65665C152.932 9.02264 153.176 9.44675 153.333 9.90554C153.673 10.9093 153.673 11.9972 153.333 13.0009" fill="#7AAADB"/>
<path d="M119.008 7.54163V6.06444H118.874C118.685 6.03766 118.494 6.02419 118.303 6.02415C117.661 6.01264 117.024 6.14055 116.436 6.39906C115.849 6.65757 115.324 7.04052 114.899 7.52149C114.899 7.1119 114.899 6.58817 114.899 6.37331V6.21216H113.207V16.6935H114.993V10.6504C114.994 9.83717 115.318 9.0577 115.893 8.48263C116.468 7.90755 117.248 7.58369 118.061 7.58192C118.319 7.58106 118.576 7.61036 118.827 7.66921L119.015 7.71621L119.008 7.54163Z" fill="#7AAADB"/>
<path d="M125.058 5.73584C123.924 5.73452 122.816 6.06947 121.873 6.6983C120.93 7.32713 120.195 8.22157 119.761 9.26841C119.326 10.3152 119.212 11.4674 119.433 12.579C119.654 13.6907 120.2 14.7118 121.001 15.5133C121.802 16.3147 122.824 16.8603 123.935 17.0811C125.047 17.3018 126.199 17.1879 127.246 16.7535C128.293 16.3192 129.187 15.5841 129.816 14.6411C130.445 13.6982 130.78 12.59 130.778 11.4566C130.777 9.93991 130.173 8.48584 129.101 7.41338C128.028 6.34091 126.574 5.73762 125.058 5.73584ZM125.058 15.5995C123.981 15.5765 122.957 15.1276 122.211 14.351C121.464 13.5744 121.056 12.5335 121.076 11.4566C121.054 10.9195 121.141 10.3835 121.331 9.8808C121.521 9.37808 121.811 8.91902 122.184 8.53121C122.556 8.14339 123.003 7.83482 123.497 7.62403C123.992 7.41323 124.523 7.30457 125.061 7.30457C125.599 7.30457 126.131 7.41323 126.625 7.62403C127.12 7.83482 127.566 8.14339 127.939 8.53121C128.311 8.91902 128.601 9.37808 128.791 9.8808C128.981 10.3835 129.068 10.9195 129.046 11.4566C129.066 12.5347 128.657 13.5765 127.909 14.3533C127.161 15.1301 126.136 15.5783 125.058 15.5995Z" fill="#7AAADB"/>
<path d="M156.18 6.56827H155.481V6.2124H157.281V6.56827H156.582V8.48862H156.18V6.56827Z" fill="#7AAADB"/>
<path d="M157.542 6.2124H158.174L158.765 7.8306H158.778L159.362 6.2124H160V8.48862H159.597V6.65556H159.59L158.899 8.48862H158.617L157.939 6.65556H157.932V8.48862H157.542V6.2124Z" fill="#7AAADB"/>
</g>
<defs>
<clipPath id="clip0_114_8309">
<rect width="160" height="21.8221" fill="white" transform="translate(0 0.0888672)"/>
</clipPath>
</defs>
</svg>
