<svg width="160" height="20" viewBox="0 0 160 20" fill="none" xmlns="http://www.w3.org/2000/svg">
<g clip-path="url(#clip0_114_8352)">
<path d="M5.81812 9.12286C5.75991 9.04659 5.68298 8.98666 5.59479 8.94886C5.50661 8.91106 5.41015 8.89668 5.31478 8.90711C5.2194 8.91754 5.12833 8.95243 5.0504 9.0084C4.97247 9.06437 4.91032 9.13951 4.86997 9.22656L0.061043 18.8444C0.017117 18.932 -0.00370893 19.0293 0.000541557 19.1271C0.00479204 19.225 0.0339779 19.3201 0.0853295 19.4035C0.136681 19.487 0.208495 19.5559 0.293956 19.6037C0.379417 19.6516 0.47569 19.6768 0.573639 19.677H7.26998C7.37838 19.6791 7.48501 19.6493 7.57665 19.5914C7.66829 19.5334 7.74092 19.4499 7.78554 19.3511C9.22852 16.3881 8.35444 11.834 5.81812 9.12286Z" fill="#0052CC"/>
<path d="M9.34704 0.387798C8.14823 2.23202 7.4496 4.35629 7.31974 6.55207C7.18987 8.74785 7.63323 10.9397 8.60629 12.9123L11.8508 19.3509C11.8981 19.4466 11.9711 19.5272 12.0616 19.5837C12.1521 19.6402 12.2566 19.6704 12.3634 19.6709H19.0597C19.1536 19.6632 19.2442 19.6332 19.3242 19.5834C19.4041 19.5336 19.4711 19.4655 19.5195 19.3847C19.5678 19.3039 19.5962 19.2127 19.6023 19.1187C19.6084 19.0247 19.592 18.9306 19.5545 18.8442L10.3248 0.387798C10.2806 0.295642 10.2113 0.217857 10.1248 0.163412C10.0383 0.108966 9.93814 0.0800781 9.83593 0.0800781C9.73372 0.0800781 9.63359 0.108966 9.54709 0.163412C9.46059 0.217857 9.39124 0.295642 9.34704 0.387798Z" fill="#2684FF"/>
<path d="M150.818 10.6398L155.68 19.6769H160V3.54639H156.563V13.9554L155.262 10.9361L151.357 3.54639H145.932V19.6769H149.369V7.37456L150.818 10.6398Z" fill="#0052CC"/>
<path d="M124.071 3.54639H120.314V19.6769H124.071V3.54639Z" fill="#0052CC"/>
<path d="M115.979 14.9065C115.979 12.0828 114.483 10.7583 110.257 9.84867C107.926 9.33311 107.363 8.81755 107.363 8.07088C107.363 7.13754 108.195 6.74346 109.733 6.74346C111.6 6.74346 113.443 7.30939 115.185 8.09458V4.40567C113.512 3.64389 111.689 3.26626 109.851 3.30047C105.677 3.30047 103.517 5.11678 103.517 8.08866C103.517 10.459 104.622 12.3583 108.942 13.1939C111.52 13.7331 112.062 14.1509 112.062 15.0102C112.062 15.8695 111.52 16.385 109.691 16.385C107.497 16.3449 105.347 15.7638 103.431 14.6932V18.5717C104.731 19.2087 106.45 19.9199 109.653 19.9199C114.169 19.9199 115.961 17.908 115.961 14.9124" fill="#0052CC"/>
<path d="M100.34 14.9065C100.34 12.0828 98.8588 10.7583 94.6217 9.84867C92.2898 9.33311 91.7239 8.81755 91.7239 8.07088C91.7239 7.13754 92.5595 6.74346 94.0943 6.74346C95.961 6.74346 97.801 7.30939 99.5432 8.09458V4.40567C97.8702 3.64389 96.0478 3.26626 94.2099 3.30047C90.038 3.30047 87.875 5.11678 87.875 8.08866C87.875 10.459 88.9802 12.3583 93.3032 13.1939C95.881 13.7331 96.4202 14.1509 96.4202 15.0102C96.4202 15.8695 95.881 16.385 94.0499 16.385C91.8555 16.3449 89.7049 15.7638 87.7891 14.6932V18.5717C89.0928 19.2087 90.8113 19.9199 94.0113 19.9199C98.5299 19.9199 100.32 17.908 100.32 14.9124" fill="#0052CC"/>
<path d="M62.4941 16.1894V3.54639H58.7134V19.6769H66.4349L67.6497 16.1894H62.4941Z" fill="#0052CC"/>
<path d="M51.4126 19.6769V7.03086H55.8808V3.54639H43.457V7.03086H47.6319V19.6769H51.4126Z" fill="#0052CC"/>
<path d="M37.9754 3.54639H33.0213L27.3916 19.6769H31.7027L32.5028 16.9598C34.4662 17.5368 36.5542 17.5368 38.5176 16.9598L39.3147 19.6769H43.611L37.9754 3.54639ZM35.4983 14.0531C34.7963 14.0541 34.0979 13.9544 33.4242 13.7568L35.4983 6.71678L37.5724 13.7568C36.8988 13.9542 36.2003 14.0539 35.4983 14.0531Z" fill="#0052CC"/>
<path d="M79.7447 3.54639H74.7906L69.1609 19.6769H73.4572L74.2572 16.9598C76.2207 17.5368 78.3086 17.5368 80.2721 16.9598L81.0691 19.6769H85.3655L79.7447 3.54639ZM77.2676 14.0531C76.5656 14.0544 75.8671 13.9546 75.1935 13.7568L77.2676 6.71678L79.3417 13.7568C78.6682 13.9546 77.9696 14.0544 77.2676 14.0531Z" fill="#0052CC"/>
<path d="M137.606 3.54639H132.652L127.022 19.6769H131.318L132.115 16.9598C134.079 17.5368 136.167 17.5368 138.13 16.9598L138.927 19.6769H143.227L137.606 3.54639ZM135.129 14.0531C134.427 14.0539 133.728 13.9542 133.055 13.7568L135.129 6.71678L137.203 13.7568C136.529 13.9542 135.831 14.0539 135.129 14.0531Z" fill="#0052CC"/>
</g>
<defs>
<clipPath id="clip0_114_8352">
<rect width="160" height="19.8397" fill="white" transform="translate(0 0.0800781)"/>
</clipPath>
</defs>
</svg>
