<svg width="116" height="41" viewBox="0 0 116 41" fill="none" xmlns="http://www.w3.org/2000/svg">
    <g clip-path="url(#clip0_41_2648)">
        <path d="M107.124 9.35871V11.0483C104.677 9.07767 101.642 8.03784 98.3314 8.03784C89.9531 8.03784 83.3904 15.0907 83.3904 24.0963C83.3904 28.1162 84.7731 31.9473 87.2822 34.8847C90.0543 38.1448 94.3486 40.0918 98.7687 40.0918C101.938 40.0918 104.747 39.0801 107.124 37.0847V38.7709C107.124 39.1509 107.43 39.46 107.806 39.46H114.402C114.779 39.46 115.083 39.1509 115.083 38.7709V9.35871C115.083 8.97763 114.779 8.66961 114.402 8.66961H107.806C107.43 8.66961 107.124 8.97763 107.124 9.35871ZM107.735 24.0963C107.735 28.2703 104.563 32.3891 99.6984 32.3891C95.0388 32.3891 91.6618 28.8054 91.6618 24.0963C91.6618 18.8735 95.5165 15.772 99.6006 15.772C104.668 15.772 107.735 19.9212 107.735 24.0963Z" fill="#204E77"/>
        <path d="M19.7696 32.6237C17.9192 32.6237 16.5961 32.0515 15.7058 30.9353C15.0369 30.0967 14.7244 28.9759 14.7244 27.1323V15.7728H23.25C23.6097 15.7728 23.9008 15.4782 23.9008 15.114V9.27743C23.9008 8.91433 23.6097 8.6198 23.25 8.6198H14.7244V0.78112C14.7244 0.400032 14.4186 0.0920181 14.0432 0.0920181H7.13417C6.75758 0.0920181 6.45292 0.400032 6.45292 0.78112V8.6198H1.59769C1.2211 8.6198 0.916504 8.92782 0.916504 9.30891V15.0837C0.916504 15.4636 1.2211 15.7728 1.59769 15.7728H6.45292V26.3836C6.45292 30.7183 7.12963 33.4713 8.71693 35.5892C10.8764 38.5019 14.5254 40.042 19.2693 40.042C22.9251 40.042 25.261 39.1685 26.5223 38.168C26.8854 37.8791 26.9596 37.2294 26.7449 36.9214C26.5695 36.6718 23.7513 32.1595 23.7513 32.1595C23.4961 31.7424 22.9554 31.6469 22.5001 31.8975C21.8852 32.2359 20.7094 32.6237 19.7696 32.6237Z" fill="#204E77"/>
        <path d="M39.8966 7.98803C35.6484 7.98803 31.814 9.69899 29.0969 12.8061C26.5069 15.7694 25.0803 19.7612 25.0803 24.0465C25.0803 33.4646 31.6352 40.042 41.0207 40.042C45.1486 40.042 49.2102 38.5255 52.0745 35.9939C52.2026 35.8804 52.3533 35.7343 52.5096 35.5769C52.7501 35.3341 52.7782 34.9485 52.5725 34.6742C51.8339 33.6906 50.1308 31.422 49.299 30.3147C49.055 29.9887 48.5829 29.9471 48.2906 30.2304C48.1017 30.4114 47.8769 30.6171 47.6408 30.8105C46.2862 31.9189 44.093 33.2555 41.2085 33.2555C36.8951 33.2555 33.5777 30.3361 33.1112 26.1441H53.2358C53.7338 26.1441 54.1541 25.7653 54.2036 25.2639C54.243 24.8727 54.2756 24.3579 54.2756 23.7306C54.2756 19.5139 52.8434 15.5783 50.2432 12.6488C47.5756 9.64278 43.9019 7.98803 39.8966 7.98803ZM39.8966 14.7745C42.4866 14.7745 45.4645 16.7654 45.8085 19.9894H33.4889C33.8779 17.4646 36.4129 14.7745 39.8966 14.7745Z" fill="#204E77"/>
        <path d="M69.3098 32.1543L69.3233 27.7533C69.3266 25.9591 69.6977 23.9548 70.3868 21.9111C71.1692 19.5841 72.2944 17.6078 73.54 16.1689L75.4409 13.7059V23.9964L69.3098 32.1543Z" fill="#269E75"/>
        <path d="M75.4409 13.7056L79.4777 8.47498C79.8037 8.04668 80.3388 7.89717 80.8211 8.08603C81.3034 8.27601 81.6238 8.76164 81.6193 9.31697L81.5889 15.8168L75.4409 23.9961V13.7056Z" fill="#9FD142"/>
        <path d="M81.5884 15.8174L81.5704 19.5518C81.6345 21.4685 81.3153 23.6752 80.5621 25.9123C79.873 27.956 78.9736 29.7523 77.9079 31.1294L75.4404 34.3389V23.9967L81.5884 15.8174Z" fill="#35786E"/>
        <path d="M75.4409 23.9968V34.339L71.4322 39.5551C71.1062 39.9834 70.57 40.1329 70.0878 39.944C69.6066 39.754 69.2851 39.2673 69.2896 38.7131L69.3098 32.1548L75.4409 23.9968Z" fill="#204E77"/>
        <path d="M68.4405 32.1543L68.427 27.7533C68.4236 25.9591 68.0526 23.9548 67.3635 21.9111C66.5811 19.5841 65.4559 17.6078 64.2103 16.1689L62.3093 13.7059V23.9964L68.4405 32.1543Z" fill="#269E75"/>
        <path d="M62.3092 13.7056L58.2724 8.47498C57.9464 8.04668 57.4113 7.89717 56.929 8.08603C56.4479 8.27601 56.1264 8.76164 56.1309 9.31697L56.1623 15.8168L62.3092 23.9961V13.7056Z" fill="#9FD142"/>
        <path d="M56.1619 15.8174L56.1798 19.5518C56.1158 21.4685 56.4339 23.6752 57.1882 25.9123C57.8773 27.956 58.7766 29.7523 59.8423 31.1294L62.3087 34.3389V23.9967L56.1619 15.8174Z" fill="#35786E"/>
        <path d="M62.3091 23.9968V34.339L66.3178 39.5551C66.6438 39.9834 67.18 40.1329 67.6623 39.944C68.1434 39.754 68.4649 39.2673 68.4604 38.7131L68.4402 32.1548L62.3091 23.9968Z" fill="#204E77"/>
    </g>
    <defs>
        <clipPath id="clip0_41_2648">
            <rect width="114.167" height="40" fill="white" transform="translate(0.916504 0.0917969)"/>
        </clipPath>
    </defs>
</svg>
