<svg width="160" height="38" viewBox="0 0 160 38" fill="none" xmlns="http://www.w3.org/2000/svg">
    <g clip-path="url(#clip0_41_2661)">
        <path fill-rule="evenodd" clip-rule="evenodd" d="M141.69 0.14281C157.101 0.16841 157.478 0.17481 158.144 0.47561C158.515 0.64201 158.982 0.96841 159.181 1.19881C159.379 1.42921 159.642 1.97961 159.77 2.42121C159.968 3.11241 160 5.35241 160.006 18.6516C160.006 30.914 159.962 34.2228 159.802 34.7668C159.693 35.1444 159.462 35.6628 159.29 35.9124C159.117 36.1684 158.63 36.546 157.459 37.1348H141.536C132.781 37.1348 125.357 37.0836 125.037 37.0196C124.723 36.9556 124.205 36.6804 123.898 36.4116C123.59 36.1364 123.206 35.6372 123.053 35.3044C122.79 34.722 122.778 33.8196 122.778 18.6516C122.778 3.48361 122.79 2.58121 123.053 1.99881C123.206 1.66601 123.59 1.16681 123.898 0.89161C124.23 0.60361 124.698 0.36041 125.037 0.30921C125.357 0.25801 125.683 0.19401 125.766 0.16841C125.856 0.13641 133.018 0.12361 141.69 0.14281ZM126.003 16.898H135.232V10.1716H138.925V27.1316H135.232V20.4052H126.003V34.0052H156.768L156.691 20.482H147.462L147.386 27.1316H143.693V10.1716H147.386V16.898L156.691 16.8212L156.749 3.29801H126.003V16.898ZM86.1568 7.59241C86.6176 7.58601 87.4688 7.65001 88.0384 7.73321C88.608 7.81641 89.632 8.07241 91.5456 8.72521V10.6708C91.5392 11.7396 91.488 12.5972 91.424 12.5716C91.36 12.546 90.8608 12.3092 90.3104 12.0468C89.76 11.778 88.8896 11.4516 88.384 11.3236C87.8784 11.1956 86.976 11.0868 86.3872 11.0932C85.792 11.0932 85.0496 11.1572 84.7296 11.2468C84.416 11.33 83.904 11.618 83.6032 11.8932C83.264 12.2004 82.9952 12.6228 82.8992 13.0004C82.816 13.3332 82.784 13.8324 82.8352 14.1076C82.88 14.3828 83.1104 14.818 83.3472 15.0804C83.5776 15.3492 84.1664 15.7588 84.6528 16.002C85.1392 16.2388 86.3168 16.6996 87.2704 17.026C88.224 17.3524 89.4336 17.8324 89.9584 18.0948C90.4896 18.3572 91.2448 18.8692 91.6352 19.2276C92.0256 19.5796 92.4992 20.1492 92.6912 20.482C92.8832 20.8212 93.1264 21.474 93.2352 21.9348C93.3504 22.4212 93.3888 23.1956 93.344 23.7716C93.2928 24.3156 93.1008 25.1732 92.9088 25.6788C92.6464 26.3764 92.32 26.8372 91.552 27.5988C90.7712 28.3668 90.2976 28.6932 89.4976 29.0132C88.928 29.2372 87.8592 29.4932 87.1168 29.5828C86.176 29.6916 85.376 29.6916 84.4608 29.5828C83.744 29.4932 82.7008 29.2884 82.1568 29.1348C81.6064 28.9748 80.8256 28.6996 79.6928 28.2004V26.21C79.6928 25.122 79.7248 24.226 79.7696 24.226C79.8144 24.226 80.1728 24.4244 80.576 24.6612C80.9792 24.898 81.792 25.282 82.3872 25.5124C82.976 25.7492 83.84 26.0052 84.3072 26.0948C84.7744 26.178 85.6384 26.2164 86.2336 26.1844C86.976 26.146 87.5456 26.0052 88.0768 25.7428C88.6592 25.4548 88.9344 25.1988 89.2032 24.6804C89.4464 24.2068 89.5424 23.81 89.504 23.3876C89.472 23.0484 89.3312 22.5876 89.184 22.3572C89.0432 22.1268 88.6656 21.7684 88.3456 21.5572C88.032 21.346 86.624 20.7572 85.2288 20.2516C83.8336 19.7396 82.3488 19.138 81.9328 18.9076C81.5232 18.6836 80.8768 18.2036 80.512 17.8516C80.1472 17.4932 79.712 16.9428 79.552 16.6292C79.392 16.3156 79.1744 15.6052 79.0656 15.0612C78.9184 14.2932 78.912 13.8324 79.0528 13.0004C79.1488 12.4116 79.4048 11.5668 79.616 11.1252C79.8272 10.69 80.3136 10.018 80.6912 9.64041C81.0752 9.26281 81.8176 8.73801 82.3488 8.47561C82.8736 8.21321 83.7568 7.90601 84.3072 7.80361C84.8576 7.69481 85.6896 7.59881 86.1568 7.59241ZM0 8.03401H17.2288V11.5476H10.6176L10.5408 29.1924L6.7712 29.2692V11.5476H0V8.03401ZM22.3296 8.01481L27.4304 8.07241C32.2688 8.12361 32.5888 8.14281 33.4592 8.46921C33.9712 8.65481 34.6624 8.97481 35.0016 9.16681C35.3408 9.36521 35.9424 9.87721 36.3456 10.3124C36.7488 10.7412 37.248 11.4516 37.4592 11.8932C37.664 12.3348 37.9136 13.1092 38.0096 13.6084C38.1056 14.114 38.144 14.9588 38.0928 15.4836C38.0416 16.0084 37.8624 16.7956 37.6896 17.2372C37.5168 17.6788 37.1904 18.3124 36.96 18.6388C36.7296 18.9716 36.1216 19.5412 35.616 19.906C35.1104 20.2772 34.3616 20.674 33.2288 21.0196L33.632 21.5188C33.856 21.7876 34.4 22.6644 34.8416 23.4644C35.2896 24.2644 35.8528 25.0708 36.096 25.2628C36.3392 25.4548 36.7808 25.6916 37.0752 25.7812C37.376 25.8708 37.8432 25.9028 38.6176 25.7556V29.2692L37.8816 29.3524C37.4848 29.4036 36.736 29.378 36.2304 29.2948C35.7248 29.218 34.9632 29.0068 34.5408 28.8212C34.0864 28.6228 33.4656 28.162 33.024 27.6948C32.5568 27.1892 31.9232 26.1972 31.3088 24.994C30.7712 23.938 30.0992 22.8628 29.8176 22.594C29.536 22.3252 29.12 22.0372 28.8832 21.9476C28.6528 21.858 27.9424 21.7812 26.1568 21.7812V29.2692L22.3872 29.1924L22.3296 8.01481ZM26.1568 18.4212C29.5488 18.4148 30.9568 18.3316 31.4688 18.2292C31.9808 18.1268 32.64 17.8644 32.9344 17.6468C33.2224 17.4356 33.632 16.9172 33.8368 16.5012C34.0928 15.9828 34.2144 15.4836 34.2144 14.9076C34.2144 14.3124 34.1056 13.8516 33.8304 13.3076C33.5488 12.7572 33.2352 12.4116 32.6976 12.0852L31.9488 11.6244L26.1696 11.5284L26.1568 18.4212ZM44.1536 8.03401H48L47.9936 15.0228C47.9936 21.5508 48.0128 22.0756 48.2944 23.0036C48.4928 23.6372 48.8128 24.2388 49.184 24.6676C49.504 25.0388 50.1184 25.5188 50.5408 25.73C51.1936 26.0628 51.5136 26.1268 52.6912 26.1332C53.824 26.1332 54.2208 26.0692 54.848 25.7876C55.2704 25.5892 55.84 25.2116 56.1152 24.9428C56.3904 24.674 56.8064 24.0468 57.4592 22.626L57.536 8.03401L61.3056 8.11081L61.3504 14.3764C61.3824 17.9668 61.3312 21.2244 61.2416 22.0116C61.1584 22.7668 60.9408 23.7972 60.768 24.3028C60.5952 24.8084 60.1536 25.666 59.7824 26.21C59.4112 26.7604 58.7392 27.49 58.2848 27.8356C57.8304 28.1876 57.1648 28.6164 56.8064 28.7956C56.448 28.9684 55.7184 29.2308 55.1936 29.3716C54.6048 29.5252 53.6384 29.6276 52.6912 29.6276C51.6672 29.6276 50.848 29.538 50.2336 29.3588C49.7216 29.2116 48.896 28.8724 48.384 28.6036C47.8784 28.3412 47.0784 27.746 46.6112 27.2852C46.0736 26.754 45.5424 26.018 45.1776 25.2948C44.8256 24.5908 44.5184 23.682 44.384 22.9268C44.2176 21.9924 44.1664 20.1108 44.16 14.8692L44.1536 8.03401ZM68.6144 8.03401H72.4608V29.2692L68.6912 29.1924L68.6144 8.03401ZM96.3072 8.03401H113.536V11.5476H106.771V29.2692H103.078V11.5476H96.3072V8.03401Z" fill="#2D1A47"/>
    </g>
    <defs>
        <clipPath id="clip0_41_2661">
            <rect width="160" height="37.12" fill="white" transform="translate(0 0.0917969)"/>
        </clipPath>
    </defs>
</svg>
