<svg width="30" height="41" viewBox="0 0 30 41" fill="none" xmlns="http://www.w3.org/2000/svg">
    <g clip-path="url(#clip0_41_2663)">
        <path d="M0.656006 14.5599C0.656006 6.63457 7.07828 0.211914 15.0021 0.211914C22.9258 0.211914 29.3502 6.63418 29.3502 14.5599C29.3502 22.4804 22.9261 28.9061 15.0021 28.9061C7.07847 28.9061 0.656006 22.4806 0.656006 14.5599ZM14.9993 24.1218C20.2806 24.1218 24.5621 19.8395 24.5621 14.5595C24.5621 9.27716 20.2807 4.99494 14.9993 4.99494C9.71829 4.99494 5.43693 9.27678 5.43693 14.5595C5.43693 19.8395 9.71876 24.1218 14.9993 24.1218ZM19.7807 14.559C19.7807 17.1995 17.6402 19.3404 14.9993 19.3404C12.3583 19.3404 10.2183 17.1995 10.2183 14.559C10.2183 11.9185 12.3588 9.77759 14.9997 9.77759C17.6407 9.77759 19.7807 11.9185 19.7807 14.559Z" fill="#CC0000"/>
        <path d="M3.13151 30.7656V32.4523H4.26353V33.4861H3.13151V36.2724C3.13151 36.7946 3.26218 36.9253 3.7844 36.9253C3.95863 36.9253 4.13285 36.9146 4.26352 36.8817V38.0897C4.00218 38.1332 3.65418 38.1439 3.34929 38.1439C2.16302 38.1439 1.58616 37.7848 1.58616 36.7834V33.4861H0.650146V32.4523H1.58616V30.7656L3.13151 30.7656ZM9.83514 36.6097C9.83514 36.9795 9.90047 37.0559 10.2271 37.0559H10.2707V38.0573C10.1294 38.1226 9.95514 38.1879 9.62847 38.1879C8.91023 38.1879 8.54045 37.9701 8.42049 37.4586C8.05071 37.9048 7.39734 38.231 6.46182 38.231C5.30799 38.231 4.54619 37.6324 4.54619 36.5443C4.54619 36.0003 4.72042 35.6194 5.03598 35.3475C5.39509 35.0426 5.91732 34.8794 6.85335 34.7817C7.85469 34.6728 8.28978 34.5857 8.28978 34.0852C8.28978 33.443 7.82177 33.3341 7.29954 33.3341C6.65731 33.3341 6.32001 33.5955 6.26577 34.183H4.72037C4.78571 32.9532 5.79767 32.3003 7.37598 32.3003C9.01952 32.3003 9.83556 32.8554 9.83556 33.8998V36.6097L9.83514 36.6097ZM7.03862 37.1973C7.86574 37.1973 8.29022 36.751 8.29022 35.9239V35.3253C8.14888 35.4559 7.87689 35.5319 7.35421 35.5973C6.55954 35.695 6.09151 35.8693 6.09151 36.4786C6.09151 36.9253 6.36349 37.1973 7.03862 37.1973ZM14.2761 32.3545V33.791C14.0934 33.7536 13.9074 33.7354 13.7209 33.7367C12.6 33.7367 12.1974 34.5092 12.1974 35.5434V38.0789H10.652V32.4522H12.1213V33.4971H12.1431C12.4369 32.7895 13.1662 32.3002 13.9387 32.3002C14.0911 32.2997 14.1995 32.3327 14.276 32.3544L14.2761 32.3545ZM18.3681 33.2034H18.3899V32.4523H19.8592V37.7306C19.8592 39.1888 19.0103 40.212 16.9534 40.212C15.6477 40.212 14.5268 39.548 14.4614 38.4053H15.9961C16.1268 38.9493 16.5512 39.1782 17.1495 39.1782C17.9441 39.1782 18.3904 38.6778 18.3904 37.8178V37.0453H18.3686C18.0641 37.5893 17.4437 37.916 16.6819 37.916C15.06 37.916 14.2765 36.7297 14.2765 35.0867C14.2765 33.6502 15.1143 32.3004 16.6926 32.3004C17.4975 32.2999 18.0197 32.6048 18.3682 33.2035L18.3681 33.2034ZM17.073 36.751C17.9108 36.751 18.3899 36.0652 18.3899 35.1839C18.3899 34.4003 18.1503 33.4643 17.0623 33.4643C16.2681 33.4643 15.8218 34.139 15.8218 35.0638C15.8214 35.9785 16.1805 36.751 17.073 36.751ZM25.8993 35.3581C25.8993 35.4452 25.8887 35.6412 25.8887 35.6412H21.8295C21.8731 36.6097 22.3193 37.067 23.2006 37.067C23.7882 37.067 24.3108 36.7297 24.4304 36.3377H25.7909C25.3771 37.611 24.5065 38.2315 23.1571 38.2315C21.3722 38.2315 20.2842 37.0017 20.2842 35.2715C20.2842 33.5737 21.4593 32.3004 23.1571 32.3004C24.931 32.2999 25.8993 33.6932 25.8993 35.3581ZM24.3433 34.6617C24.1909 33.8128 23.8211 33.4648 23.1024 33.4648C22.3513 33.4648 21.8944 33.9221 21.8291 34.6617H24.3433ZM28.218 30.7657V32.4523H29.35V33.4861H28.218V36.2724C28.218 36.7946 28.3487 36.9253 28.8709 36.9253C29.0451 36.9253 29.2193 36.9146 29.35 36.8817V38.0897C29.0887 38.1333 28.7407 38.1439 28.4358 38.1439C27.2495 38.1439 26.6726 37.7848 26.6726 36.7835V33.4861H25.7366V32.4524H26.6726V30.7657L28.218 30.7657Z" fill="#CC0000"/>
    </g>
    <defs>
        <clipPath id="clip0_41_2663">
            <rect width="28.6999" height="40" fill="white" transform="translate(0.650146 0.211914)"/>
        </clipPath>
    </defs>
</svg>
