<svg width="70" height="41" viewBox="0 0 70 41" fill="none" xmlns="http://www.w3.org/2000/svg">
    <g clip-path="url(#clip0_41_2667)">
        <path d="M27.9137 8.53252H18.5098L18.4431 40.2124H10.2897V8.59921L0.935791 8.53252V0.329102H27.9137V8.53252Z" fill="#9C1C26"/>
        <path d="M51.3567 7.21502L56.1253 0.395508H64.8957L56.1253 14.6848L65.2125 28.8907H56.2921L51.3233 21.7044L38.9515 40.1454H30.1145L46.6881 14.7181L37.5509 0.395508H46.6047L51.3567 7.21502Z" fill="#9C1C26"/>
        <path d="M36.7507 24.8388C36.1171 30.5412 32.3489 35.7767 27.2134 38.2944C24.8624 39.4116 22.278 40.1452 19.4102 40.1119V32.1752C23.7119 32.0418 27.1967 29.274 28.4973 25.5391C28.714 25.189 28.7474 24.6221 28.8474 24.2052L28.9141 0.211914H36.7841L36.7507 24.8388Z" fill="#9C1C26"/>
        <path d="M69.0643 2.8299C69.0643 1.61272 68.0639 0.612305 66.8467 0.612305C65.6129 0.612305 64.6124 1.61272 64.6291 2.8299C64.6291 4.06374 65.6295 5.04749 66.8467 5.04749C68.0639 5.04749 69.0643 4.06374 69.0643 2.8299ZM68.8142 2.8299C68.8142 3.91368 67.9305 4.79738 66.8467 4.79738C65.7629 4.79738 64.8792 3.91368 64.8792 2.8299C64.8792 1.74611 65.7629 0.862409 66.83 0.862409C67.9305 0.862409 68.8142 1.74611 68.8142 2.8299ZM66.013 3.99705H66.3298V2.94661H67.1302C67.647 2.94661 67.497 3.3968 67.547 3.68025L67.597 3.99705H67.9638C67.8304 3.78029 67.8805 3.73027 67.8471 3.41347C67.8138 2.99663 67.7971 2.94661 67.547 2.79655C67.7804 2.61314 67.8805 2.49642 67.8638 2.17962C67.8304 1.6294 67.4636 1.54603 67.0801 1.54603H66.013V3.99705ZM67.1135 1.82948C67.3136 1.82948 67.6137 1.8795 67.5637 2.29634C67.5303 2.61314 67.3302 2.66316 67.1135 2.66316H66.3298V1.81281L67.1135 1.82948Z" fill="#9C1C26"/>
    </g>
    <defs>
        <clipPath id="clip0_41_2667">
            <rect width="68.1284" height="40" fill="white" transform="translate(0.935791 0.211914)"/>
        </clipPath>
    </defs>
</svg>
