<svg width="66" height="26" viewBox="0 0 66 26" fill="none" xmlns="http://www.w3.org/2000/svg">
    <g clip-path="url(#clip0_723_603)">
        <path d="M20.028 6.87274H0L3.48725 0H23.3727L20.028 6.87274Z" fill="#1671F8"/>
        <path d="M42.8986 6.87274H56.4677L52.9872 0H39.5538L42.8986 6.87274Z" fill="#1671F8"/>
        <path d="M47.6682 16.371H61.2373L57.75 9.49146H44.3167L47.6682 16.371Z" fill="#1671F8"/>
        <path d="M52.431 25.8627H66L62.5196 18.9832H49.0862L52.431 25.8627Z" fill="#1671F8"/>
        <path d="M10.36 25.8627H0.644531L9.07771 9.45093H18.9289L10.36 25.8627Z" fill="#1671F8"/>
        <path d="M23.0064 25.8627H13.0195L26.2155 0L31.582 9.45086L23.0064 25.8627Z" fill="#1671F8"/>
        <path d="M40.1983 25.8627H50.1852L36.9893 0L31.6227 9.45086L40.1983 25.8627Z" fill="#1671F8"/>
    </g>
    <defs>
        <clipPath id="clip0_723_603">
            <rect width="66" height="25.8616" fill="white"/>
        </clipPath>
    </defs>
</svg>
