<svg width="160" height="37" viewBox="0 0 160 37" fill="none" xmlns="http://www.w3.org/2000/svg">
    <path fill-rule="evenodd" clip-rule="evenodd" d="M16.1948 4.8215V1.43692H0.977539V4.8215H6.19292V19.5383H10.9063V4.8215H16.1948ZM74.8509 19.5383C74.7257 18.336 74.6484 17.4079 74.6484 16.7808V10.6879C74.6484 8.15688 72.7952 6.57781 70.3372 6.57781C68.5556 6.60171 67.0032 7.40462 66.1497 8.80796C65.6238 7.40462 64.07 6.6523 62.6146 6.6523C60.8598 6.6523 59.3805 7.22885 58.5508 8.80796L58.4524 6.92797H54.1412V19.5383H58.6029V11.9436C58.6029 11.5429 58.4271 9.3859 60.4843 9.3859C61.8623 9.3859 62.19 10.6149 62.19 11.8171V19.5383H66.6263V11.9436C66.6263 11.5429 66.4506 9.3859 68.5064 9.3859C69.8858 9.3859 70.2106 10.6149 70.2106 11.8171V19.5383H74.8509ZM53.1161 10.6388V6.80275C51.1855 6.77604 49.7048 7.40462 49.1296 9.33526L49.0298 6.92797H44.5667C44.6665 7.95587 44.6665 9.33528 44.6665 10.1621V19.5383H49.1296V14.0233C49.1296 11.9436 49.7315 10.6627 52.1894 10.6134C52.489 10.6134 52.7899 10.6135 53.1161 10.6388ZM82.5397 6.57781C78.4282 6.57781 75.7453 8.85857 75.7453 13.1951C75.7453 17.6583 78.4535 19.8898 82.5397 19.8898C86.626 19.8898 89.3343 17.6583 89.3343 13.1951C89.3343 8.85857 86.6513 6.57781 82.5397 6.57781ZM82.5397 9.23545C84.4198 9.23545 84.7713 11.1647 84.7713 13.146C84.7713 15.4534 84.3705 17.2575 82.5397 17.2575C80.7089 17.2575 80.3082 15.4534 80.3082 13.146C80.3082 11.1394 80.6597 9.21013 82.5397 9.21013V9.23545ZM29.94 19.5383C29.8148 18.336 29.7642 17.4825 29.7642 16.7808V10.6879C29.7642 8.15688 27.8842 6.57781 25.4277 6.57781C24.6754 6.57781 23.9469 6.70292 23.3212 6.97852C22.7447 7.25413 22.1935 7.65347 21.7168 8.25671V1.43555H17.2536V19.5369H21.7168V11.9423C21.7168 11.5415 21.5411 9.38444 23.5968 9.38444C25.0002 9.38444 25.3024 10.6134 25.3024 11.8157V19.5369L29.94 19.5383ZM43.5796 14.0979C43.6049 9.56028 42.2507 6.57781 37.2111 6.57781C33.2247 6.57781 30.8455 9.03432 30.8455 12.8703C30.8455 17.5851 32.523 19.8898 37.4375 19.8898C38.966 19.8898 40.3201 19.5383 41.348 18.8366C42.4518 18.1097 43.3546 16.9566 43.4797 15.3761H39.2669C39.1418 16.5306 38.4668 17.3067 37.1366 17.3067C35.4309 17.3067 35.0809 15.677 35.1062 14.0979H43.5796ZM39.3176 11.6681H35.182C35.2805 10.3392 35.5814 8.98513 37.2379 8.9106C37.9888 8.88389 38.4921 9.23546 38.817 9.78807C39.1685 10.314 39.3176 11.0156 39.3176 11.692V11.6681Z" fill="#EF4135"/>
    <path fill-rule="evenodd" clip-rule="evenodd" d="M159.162 10.4133V6.57594C157.232 6.55063 155.752 7.17918 155.176 9.10982L155.076 6.92748H150.613C150.713 7.95537 150.713 9.33335 150.713 10.163V19.5392H155.176V14.0215C155.176 11.9418 155.778 10.4372 158.234 10.3865C158.535 10.3865 158.837 10.3866 159.162 10.4133ZM135.948 19.5392C135.823 18.3356 135.772 17.482 135.772 16.7803V10.6874C135.772 8.15497 133.892 6.57594 131.436 6.57594C130.684 6.57594 130.004 6.70105 129.38 6.97665C128.803 7.25226 128.202 7.65438 127.725 8.25621V1.43643H123.26V19.5378H127.725V11.9418C127.725 11.5396 127.549 9.38395 129.605 9.38395C131.01 9.38395 131.311 10.613 131.311 11.8166V19.5378H135.948V19.5392ZM122.168 15.7777C122.168 13.8217 121.139 12.8698 119.71 12.3439C117.028 11.3892 115.022 11.3413 115.022 10.3359C115.022 9.58643 115.448 9.159 116.173 9.159C116.75 9.159 117.128 9.30801 117.377 9.55971C117.604 9.81141 117.702 10.2108 117.702 10.7634H121.94C121.84 7.45333 119.233 6.57448 116.375 6.57448C113.942 6.57448 110.782 7.42663 110.782 10.4625C110.782 14.875 117.927 13.7206 117.927 16.0787C117.927 16.9055 117.252 17.2795 116.375 17.2795C115.873 17.2795 115.47 17.0292 115.221 16.6777C114.97 16.3528 114.87 15.8762 114.946 15.4501H110.685C110.608 19.2101 113.392 19.8879 116.477 19.8879C119.36 19.8907 122.168 18.8375 122.168 15.7777ZM149.612 14.0988C149.638 9.55975 148.283 6.57594 143.243 6.57594C139.257 6.57594 136.876 9.03241 136.876 12.8698C136.876 17.5832 138.555 19.8908 143.47 19.8908C144.998 19.8908 146.352 19.5392 147.38 18.8375C148.483 18.1091 149.385 16.9561 149.51 15.377H145.3C145.174 16.5286 144.497 17.3062 143.169 17.3062C141.463 17.3062 141.113 15.6779 141.137 14.0988H149.612ZM145.35 11.6676H141.214C141.313 10.3373 141.615 8.98467 143.27 8.90874C144.022 8.88343 144.523 9.23491 144.849 9.78612C145.201 10.3134 145.35 11.0152 145.35 11.6915V11.6676ZM109.546 6.92748H105.083V19.5392H109.546V6.92748ZM103.695 4.77182L104.748 1.4378H92.7568V19.5392H97.4702V12.4184H101.278L102.327 9.0845H97.4702V4.7732L103.695 4.77182ZM109.543 4.76195L110.604 1.43359H106.194L105.135 4.76195H109.543Z" fill="#EF4135"/>
    <path d="M43.5628 24.8418H41.926V35.1038H43.5628V24.8418Z" fill="black"/>
    <path fill-rule="evenodd" clip-rule="evenodd" d="M152.115 35.2795C148.696 35.2795 146.138 33.384 146.138 30.0514C146.138 26.6781 149.008 24.6279 152.221 24.6279C153.37 24.6279 154.634 25.0048 155.442 25.5279L154.603 26.5263C153.878 26.1269 153.096 25.8611 152.241 25.8541C151.014 25.8443 149.806 26.2127 148.989 27.1084C148.322 27.8396 147.951 28.7846 147.951 30.1106C147.951 31.5505 148.395 32.3407 149.169 33.1057C149.952 33.8805 151.151 34.0927 152.328 34.0927C153.268 34.0927 154.197 33.744 154.924 33.3601L155.721 34.3205C154.89 34.8774 153.476 35.2795 152.115 35.2795Z" fill="black"/>
    <path d="M136.543 24.8418H134.905V35.1038H136.543V24.8418Z" fill="black"/>
    <path fill-rule="evenodd" clip-rule="evenodd" d="M97.899 26.0693H94.0757V35.1038H92.4784V26.0693H88.6846V24.8418H98.0776L97.899 26.0693Z" fill="black"/>
    <path fill-rule="evenodd" clip-rule="evenodd" d="M12.6388 34.7401C11.857 35.1282 10.8783 35.318 9.74636 35.318C8.2938 35.318 6.82016 34.996 5.59399 34.3927L6.27321 33.2313C7.46422 33.8247 8.59611 34.0918 9.85321 34.0918C10.673 34.0918 11.2158 33.9498 11.7192 33.6756C12.3056 33.355 12.6219 32.9163 12.6219 32.3496C12.6219 31.4932 11.9639 30.9575 10.3778 30.5877L8.70719 30.1996C7.04653 29.8115 6.00183 28.7738 6.00183 27.5589C6.00183 25.8082 7.72152 24.5693 10.1738 24.5693C11.6039 24.5693 13.1324 24.9279 14.111 25.5466L13.3728 26.6181C12.3702 26.0641 11.3254 25.7969 10.2596 25.7969C8.80141 25.7969 7.79041 26.3636 7.79041 27.3254C7.79041 28.0665 8.40629 28.508 9.84196 28.8525L11.3845 29.2223C12.2605 29.4332 13.1493 29.803 13.6555 30.2628C14.1378 30.703 14.4527 31.4089 14.4527 32.0965C14.4541 33.1441 13.7834 34.1663 12.6388 34.7401Z" fill="black"/>
    <path fill-rule="evenodd" clip-rule="evenodd" d="M78.3748 35.1033L74.2983 29.6292C73.5334 28.6041 72.2426 26.6032 72.2426 26.6032C72.2426 26.6032 72.3874 28.3356 72.3987 29.8542L72.4366 35.1033H70.8069V24.8398H72.7487L76.8688 30.4279C77.6703 31.5176 78.7868 33.243 78.7868 33.243C78.7868 33.243 78.5435 31.3503 78.5308 29.9906L78.4943 24.8398H80.1085V35.1033H78.3748Z" fill="black"/>
    <path d="M108.127 24.8418H106.491V35.1038H108.127V24.8418Z" fill="black"/>
    <path fill-rule="evenodd" clip-rule="evenodd" d="M125.973 26.0482H120.345V29.0856H125.107V30.2948H120.345V35.1038H118.707V24.8418H126.191L125.973 26.0482Z" fill="black"/>
    <path fill-rule="evenodd" clip-rule="evenodd" d="M54.1411 35.1038V24.8418H61.7076L61.4897 26.0693H55.7792V29.1263H60.6474V30.3525H55.799V33.8172H61.9115V35.1038H54.1411Z" fill="black"/>
    <path fill-rule="evenodd" clip-rule="evenodd" d="M29.275 35.2795C25.8552 35.2795 23.2988 33.384 23.2988 30.0514C23.2988 26.6781 26.1688 24.6279 29.3804 24.6279C30.5293 24.6279 31.7948 25.0048 32.6005 25.5279L31.7624 26.5263C31.0382 26.1269 30.2551 25.8611 29.4016 25.8541C28.174 25.8443 26.9647 26.2127 26.1477 27.1084C25.4812 27.8396 25.11 28.7846 25.11 30.1106C25.11 31.5505 25.5543 32.3407 26.3277 33.1057C27.1123 33.8805 28.3103 34.0927 29.4873 34.0927C30.4266 34.0927 31.356 33.744 32.0844 33.3601L32.8804 34.3205C32.0493 34.8774 30.6361 35.2795 29.275 35.2795Z" fill="black"/>
</svg>
