<svg width="160" height="34" viewBox="0 0 160 34" fill="none" xmlns="http://www.w3.org/2000/svg">
<g clip-path="url(#clip0_115_8380)">
<path d="M62.5833 5.02937L54.872 32.7808H53.0713L44.9903 5.30658V27.7018C45.0136 29.8717 46.0987 30.98 48.2686 30.98H49.1002V32.7808H38.803V30.98H39.3569C41.5273 30.98 42.6357 29.8717 42.6357 27.7018V6.04535C42.6124 3.87501 41.5273 2.76664 39.3569 2.76664H38.803V0.962727H49.0538L55.1492 23.1763L61.3133 0.962727H71.5182V2.81306H70.9642C68.7939 2.85904 67.7087 3.92099 67.6855 6.09132V27.7018C67.7087 29.8717 68.7939 30.98 70.9642 30.98H71.5182V32.7808H58.9355V30.98H59.3051C61.4749 30.98 62.5833 29.8717 62.5833 27.7018V5.02937Z" fill="#E20074"/>
<path d="M77.4638 21.7678C77.4638 28.2324 78.9414 31.5106 82.0348 31.5106C85.1287 31.5106 86.6527 28.2324 86.6527 21.7678C86.6527 15.3033 85.1287 12.0245 82.0348 12.0245C78.9414 12.0245 77.4638 15.3033 77.4638 21.7678ZM92.0089 21.7678C92.0089 28.0476 88.5458 33.4502 82.0348 33.4502C75.5243 33.4502 72.1072 28.0476 72.1072 21.7678C72.1072 15.4881 75.5243 10.0854 82.0348 10.0854C88.5458 10.0854 92.0089 15.4881 92.0089 21.7678Z" fill="#E20074"/>
<path d="M100.086 21.6756C100.086 24.6771 100.687 31.1416 104.842 31.1416C108.768 31.1416 109.229 24.723 109.229 21.6756C109.229 18.6281 108.906 12.2095 104.981 12.2095C100.825 12.2095 100.086 18.6741 100.086 21.6756ZM95.746 5.07535C95.7228 3.413 95.0992 2.76664 93.4369 2.76664H92.8137V0.962731H100.479V12.4635C101.749 10.8471 103.457 10.0392 105.65 10.0392C111.515 10.0392 114.562 15.0262 114.562 21.6756C114.562 28.3249 111.515 33.2655 105.65 33.2655C103.086 33.3051 100.628 32.2368 98.9087 30.3337L97.316 32.7808H95.2148C95.5626 31.1644 95.7406 29.5162 95.746 27.8629V5.07535Z" fill="#E20074"/>
<path d="M124.445 28.6708C124.468 30.3332 125.091 30.9796 126.754 30.9796H127.469V32.7803H116.688V30.9796H117.403C119.066 30.9796 119.712 30.3332 119.712 28.6708V14.8641C119.689 13.2018 119.066 12.5554 117.403 12.5554H116.919V10.7547H124.445V28.6708Z" fill="#E20074"/>
<path d="M124.676 3.50553C124.723 5.09049 123.476 6.41326 121.892 6.46015C121.842 6.46151 121.793 6.46197 121.744 6.4606C120.111 6.47289 118.778 5.15968 118.766 3.52783C118.754 1.89553 120.067 0.562287 121.699 0.549997C121.722 0.549997 121.744 0.549997 121.767 0.550452C123.372 0.549087 124.675 1.85001 124.676 3.45546C124.676 3.4723 124.676 3.48868 124.676 3.50553Z" fill="#E20074"/>
<path d="M137.119 28.6708C137.142 30.3332 137.765 30.9796 139.428 30.9796H140.144V32.7803H129.454V30.9796H130.077C131.74 30.9796 132.386 30.3332 132.386 28.6708V5.07485C132.363 3.41297 131.74 2.76614 130.077 2.76614H129.638V0.962239H137.119V28.6708Z" fill="#E20074"/>
<path d="M154.851 19.8283C154.759 14.5181 153.466 12.0245 151.065 12.0245C148.663 12.0245 147.256 14.7256 147.094 19.8283H154.851ZM147.048 21.8602C147.209 25.5309 147.371 31.2334 152.127 31.2334C155.244 31.2334 156.814 28.6707 157.922 26.1545L159.815 27.1472C158.014 30.7951 155.798 33.4502 151.388 33.4502C144.646 33.4502 141.899 27.678 141.899 21.7678C141.899 16.088 144.67 10.085 150.973 10.085C157.76 10.085 159.862 16.596 160 21.8602H147.048Z" fill="#E20074"/>
<path d="M20.3633 21.9625H26.7268V15.599H20.3633V21.9625ZM0 0.962891V11.7809H1.90906V11.4627C1.90906 6.37188 4.77264 3.19012 10.1816 3.19012H10.4998V26.0988C10.4998 29.2805 9.2271 30.5537 6.04534 30.5537H5.09082V32.7809H21.636V30.5537H20.6814C17.4997 30.5537 16.227 29.2805 16.227 26.0988V3.19012H16.5451C21.9541 3.19012 24.8177 6.37188 24.8177 11.4627V11.7809H26.7268V0.962891H0ZM6.36352 21.9625H0V15.599H6.36352V21.9625Z" fill="#E20074"/>
</g>
<defs>
<clipPath id="clip0_115_8380">
<rect width="160" height="32.9006" fill="white" transform="translate(0 0.549805)"/>
</clipPath>
</defs>
</svg>
