<svg width="392" height="400" viewBox="0 0 392 400" fill="none" xmlns="http://www.w3.org/2000/svg">
    <path d="M365.213 222.646C364.921 221.81 364.608 220.981 364.289 220.145C335.742 252.756 265.672 273.827 202.589 269.151C165.416 266.398 96.638 247.156 61.9395 225.922C98.6023 261.042 141.546 287.734 190.117 302.157C247.87 319.312 309.451 318.13 344.177 300.056C369.597 282.887 375.368 252.233 365.213 222.646Z" fill="#F68B11"/>
    <path d="M285.749 17.622C399.475 84.7896 331.832 295.985 241.371 363.832C157.211 426.949 67.6816 397.851 48.2559 339.662C65.1871 364.879 98.8661 374.048 128.752 364.016C211.825 330.704 254.632 180.192 260.172 127.923C263.876 82.9136 257.983 52.674 242.37 33.5745C224.481 14.6653 197.021 5.50301 156.926 18.091C184.515 -4.58368 243.614 -7.26847 285.749 17.622Z" fill="#1D59AE"/>
    <path d="M349.362 297.101C349.824 296.816 350.28 296.523 350.742 296.218C350.83 296.163 350.919 296.109 351 296.048C353.325 294.505 355.643 292.772 357.763 290.862C358.79 289.937 359.802 288.952 360.795 287.939C405.009 243.065 414.402 118.266 305.427 59.0851C266.609 38.0077 176.461 8.54966 86.5167 54.0213C56.7528 69.0698 26.0577 100.322 9.55469 142.735C21.728 122.582 42.8326 108.948 84.43 103.061C125.905 97.8482 183.068 104.292 239.007 124.01C275.112 137.325 304.305 153.74 327.095 172.336C345.923 188.493 358.055 203.833 364.288 220.146C364.608 220.982 364.92 221.811 365.213 222.647C375.367 252.234 369.597 282.889 344.176 300.058C344.142 300.085 344.21 300.038 344.176 300.058C345.352 299.446 346.521 298.807 347.778 298.066C347.955 297.958 348.125 297.856 348.302 297.754C348.655 297.536 349.009 297.326 349.362 297.101Z" fill="#EE2B3E"/>
    <path d="M23.6238 214.531C25.6901 217.855 30.4208 223.469 33.5202 227.024C55.3521 175.666 175.019 142.265 210.289 142.7C131.029 117.185 53.2858 129.351 22.0537 156.451C10.7028 169.107 7.16837 188.05 23.6238 214.531Z" fill="#F68B11"/>
    <path d="M256.991 331.029C193.277 327.468 100.457 302.89 34.7306 228.409C34.3703 227.994 33.9625 227.532 33.5207 227.022C30.4213 223.467 25.6906 217.853 23.6243 214.529C7.16886 188.048 10.7033 169.105 22.0542 156.449C22.0542 156.449 22.0542 156.449 22.061 156.449C22.0542 156.456 22.0474 156.456 22.0406 156.463C19.9812 158.291 17.4867 160.643 14.6319 164.327C-2.25171 186.132 -4.26359 221.442 7.25043 258.859C32.2701 340.158 141.844 389.048 230.782 375.617C287.632 367.033 323.187 335.053 337.991 321.996C305.834 331.152 282.038 332.429 256.991 331.029Z" fill="#5A8ED2"/>
</svg>
