<svg width="53" height="36" viewBox="0 0 53 36" fill="none" xmlns="http://www.w3.org/2000/svg">
    <path d="M27.505 0C22.9348 0 18.8057 1.15098 15.5494 3.27876L10.0718 3.28375C10.0718 3.28375 11.3643 5.00897 11.7836 6.74883C10.7165 8.20017 10.0762 9.9849 10.0762 11.9211C10.0762 16.7443 14.0021 20.6618 18.8269 20.6618C21.5835 20.6618 24.0415 19.3828 25.6474 17.3859L27.5082 20.1677L29.3873 17.3622C30.2405 18.4499 31.3417 19.3175 32.5988 19.8925C34.7237 20.869 37.0998 20.9644 39.2921 20.1568C43.8194 18.4858 46.1407 13.4441 44.469 8.92117C44.1803 8.14124 43.7807 7.40699 43.2825 6.74104C43.6951 4.98996 45.0028 3.24199 45.0028 3.24199L39.1656 3.23794C35.8909 1.12262 31.912 0 27.5044 0H27.505ZM9.48575 25.5085C9.30143 25.5089 9.1248 25.5823 8.99456 25.7128C8.86431 25.8432 8.79109 26.0199 8.79092 26.2042C8.79633 26.3848 8.87187 26.5562 9.00153 26.682C9.13119 26.8079 9.30476 26.8782 9.48543 26.8782C9.66611 26.8782 9.83968 26.8079 9.96934 26.682C10.099 26.5562 10.1745 26.3848 10.1799 26.2042C10.1797 26.02 10.1065 25.8435 9.97644 25.7131C9.84635 25.5827 9.66993 25.5091 9.48575 25.5085ZM2.30071 26.1279L2.2197 26.1572L1.16718 26.518V27.8921H0V28.8143H1.13322V31.7712C1.13322 33.1799 1.61305 33.7538 2.78771 33.7538C3.08776 33.7538 3.37317 33.7155 3.65982 33.6388L3.70438 33.6261L3.69254 32.6726L3.60997 32.6991C3.38064 32.7823 3.19899 32.8216 3.05722 32.8216C2.50729 32.8216 2.30102 32.51 2.30102 31.6715V28.8143H3.64892V27.8921H2.30102V26.1282L2.30071 26.1279ZM14.1959 27.7571C13.3951 27.7571 12.7206 28.1395 12.2716 28.828V27.8927H11.2035V36H12.3713V32.8558C12.7932 33.4291 13.3986 33.7429 14.1513 33.7429C15.6282 33.7429 16.5807 32.5324 16.5807 30.6614C16.5807 28.9243 15.6242 27.7575 14.1959 27.7575V27.7571ZM7.42527 27.7905C6.7482 27.7905 6.20231 28.1566 5.8602 28.8271V27.8924H4.79304V33.6522H5.96084V30.7614C5.96084 29.5475 6.46996 28.8816 7.39255 28.8816C7.52559 28.8816 7.65646 28.9019 7.81381 28.9461L7.88921 28.9679L7.92691 27.8307L7.42527 27.7905ZM8.90309 27.8924V33.6522H10.0715V27.8924H8.90309ZM13.9152 28.7237C14.8181 28.7237 15.3587 29.4727 15.3587 30.7281C15.3587 32.0068 14.7876 32.7985 13.8706 32.7985C12.9462 32.7985 12.3713 32.0102 12.3713 30.7383C12.3713 29.5151 12.9773 28.7237 13.9152 28.7237Z" fill="#000A12"/>
    <path d="M35.9819 3.215C35.0414 3.24146 34.1114 3.41981 33.2278 3.74312C31.0346 4.55479 29.2898 6.1694 28.312 8.29313C27.8702 9.25124 27.6203 10.2642 27.5409 11.2834C27.2159 6.8153 23.5283 3.27077 18.9995 3.18135C21.5052 2.10951 24.383 1.52686 27.5032 1.52686C30.6439 1.52686 33.4793 2.093 35.9822 3.215" fill="#FCC40F"/>
    <path d="M18.827 4.93823C14.9765 4.93823 11.8433 8.06993 11.8433 11.9214C11.8433 15.7688 14.9768 18.9008 18.827 18.9008C22.675 18.9008 25.8076 15.7685 25.8076 11.9214C25.8076 8.06993 22.6753 4.93823 18.827 4.93823ZM35.7735 4.96939C34.9552 4.97121 34.1437 5.1174 33.3762 5.40124C32.5146 5.71647 31.724 6.19951 31.0504 6.82238C30.3767 7.44525 29.8333 8.19557 29.4516 9.02991C29.0662 9.8622 28.8496 10.7626 28.8143 11.6791C28.779 12.5956 28.9257 13.51 29.2459 14.3695V14.3707C29.5606 15.2319 30.0431 16.022 30.6655 16.6952C31.2879 17.3684 32.0379 17.9112 32.8718 18.2923C33.7039 18.6792 34.6045 18.8972 35.5215 18.9338C36.4384 18.9704 37.3535 18.8248 38.2138 18.5054C41.8256 17.1678 43.6789 13.1425 42.3466 9.53405C41.3047 6.71113 38.6204 4.96316 35.7735 4.96939Z" fill="white"/>
    <path d="M18.7182 7.52393C16.333 7.52393 14.3934 9.46227 14.3934 11.8427C14.3934 14.2245 16.333 16.164 18.7182 16.164C21.0971 16.164 23.0336 14.2245 23.0336 11.8427C23.0336 9.46227 21.0971 7.52393 18.7182 7.52393ZM36.2433 7.52393C33.8603 7.52393 31.9217 9.46227 31.9217 11.8427C31.9217 14.2245 33.8603 16.164 36.2433 16.164C38.6244 16.164 40.5615 14.2245 40.5615 11.8427C40.5615 9.46227 38.6244 7.52393 36.243 7.52393H36.2433Z" fill="#000A12"/>
    <path d="M18.7182 9.01147C17.1532 9.01147 15.8804 10.2818 15.8804 11.8425C15.8804 13.4038 17.1532 14.6772 18.7182 14.6772C20.2761 14.6772 21.5449 13.4038 21.5449 11.8425C21.5449 10.2818 20.2761 9.01147 18.7182 9.01147ZM36.2434 9.01147C34.6814 9.01147 33.4105 10.2818 33.4105 11.8425C33.4105 13.4038 34.6817 14.6772 36.2434 14.6772C37.8041 14.6772 39.0731 13.4038 39.0731 11.8425C39.0731 10.2818 37.8041 9.01147 36.2434 9.01147Z" fill="white"/>
    <path d="M20.1656 11.8418C20.1651 12.2273 20.0118 12.5969 19.7392 12.8696C19.4667 13.1423 19.0972 13.2958 18.7117 13.2966C18.326 13.2963 17.9562 13.1429 17.6835 12.8702C17.4109 12.5974 17.2577 12.2275 17.2576 11.8418C17.2632 11.4599 17.4188 11.0955 17.6909 10.8273C17.9629 10.5592 18.3296 10.4089 18.7116 10.4089C19.0935 10.4089 19.4602 10.5592 19.7322 10.8273C20.0043 11.0955 20.16 11.4599 20.1656 11.8418Z" fill="#EF6A45"/>
    <path d="M36.2436 10.3887C36.0527 10.3885 35.8636 10.4259 35.6872 10.4989C35.5108 10.572 35.3505 10.6791 35.2156 10.8141C35.0807 10.9492 34.9737 11.1095 34.9008 11.286C34.828 11.4625 34.7907 11.6516 34.791 11.8425C34.7909 12.0334 34.8283 12.2224 34.9012 12.3989C34.9742 12.5753 35.0811 12.7356 35.216 12.8707C35.3509 13.0057 35.5111 13.1129 35.6874 13.186C35.8637 13.2592 36.0527 13.2969 36.2436 13.297C36.6241 13.2891 36.9863 13.1324 37.2526 12.8606C37.5189 12.5887 37.668 12.2233 37.668 11.8428C37.668 11.4623 37.5189 11.0969 37.2526 10.8251C36.9863 10.5532 36.6241 10.3965 36.2436 10.3887ZM27.1168 25.1432V28.6747C26.6865 28.0752 26.0877 27.7571 25.3149 27.7571C23.8885 27.7571 22.9304 28.9339 22.9304 30.6822C22.9304 32.4841 23.9004 33.7428 25.2934 33.7428C26.1182 33.7428 26.7597 33.3774 27.2066 32.6673V33.6519H28.2859V25.1435H27.1168V25.1432ZM35.9018 25.5084C35.7175 25.5084 35.5408 25.5816 35.4105 25.7119C35.2802 25.8422 35.207 26.019 35.207 26.2032C35.207 26.3875 35.2802 26.5642 35.4105 26.6945C35.5408 26.8249 35.7175 26.8981 35.9018 26.8981C36.0861 26.8981 36.2628 26.8249 36.3931 26.6945C36.5234 26.5642 36.5967 26.3875 36.5967 26.2032C36.5967 26.019 36.5234 25.8422 36.3931 25.7119C36.2628 25.5816 36.0861 25.5084 35.9018 25.5084ZM19.9925 27.7571C19.2806 27.7571 18.6552 27.892 18.0807 28.169L18.0448 28.1855L18.0582 29.1826L18.1486 29.1312C18.6985 28.8239 19.2167 28.6669 19.6915 28.6669C20.5369 28.6669 21.0207 29.152 21.0207 29.9983V30.0469H20.353C18.4315 30.0469 17.3718 30.7436 17.3718 32.0077C17.3718 33.0225 18.1358 33.7313 19.2288 33.7313C20.0333 33.7313 20.6562 33.4154 21.0993 32.8203V33.6522H22.1555V30.1653C22.1555 28.5688 21.4292 27.7571 19.9928 27.7571H19.9925ZM45.3159 27.7571C43.5602 27.7571 42.469 28.9124 42.469 30.7732C42.469 32.6324 43.5602 33.7871 45.3159 33.7871C47.0792 33.7871 48.175 32.6324 48.175 30.7729C48.175 28.9127 47.0792 27.7568 45.3159 27.7568V27.7571ZM51.8943 27.7904C51.2197 27.7904 50.6723 28.1565 50.3289 28.8267V27.892H49.263V33.6519H50.4308V30.7613C50.4308 29.5474 50.9387 28.8816 51.8625 28.8816C51.9959 28.8816 52.1255 28.9015 52.2826 28.9461L52.358 28.9679L52.3969 27.8306L51.8943 27.7901V27.7904ZM39.9733 27.8256C38.707 27.8256 37.8561 28.4447 37.8561 29.3689C37.8561 30.1799 38.4132 30.608 39.4408 31.1075C40.0879 31.4275 40.4285 31.6144 40.4285 32.0631C40.4285 32.5227 40.0106 32.8215 39.3666 32.8215C38.9076 32.8215 38.401 32.6906 37.9 32.4457L37.814 32.4027L37.7757 33.4185L37.8162 33.4347C38.2953 33.6245 38.8061 33.7216 39.3214 33.7207C40.7503 33.7207 41.6735 33.0387 41.6735 31.9852C41.6735 31.1056 41.0881 30.6613 40.0767 30.1893C39.3351 29.8422 39.0236 29.6362 39.0236 29.2686C39.0236 28.919 39.3697 28.6912 39.9038 28.6912C40.3867 28.6912 40.8588 28.7978 41.3046 29.0099L41.3869 29.0489L41.4399 28.0559L41.3947 28.0381C40.908 27.8976 40.4319 27.8256 39.9733 27.8256ZM28.9994 27.892L31.8226 33.6519L34.7244 27.892H33.5036L31.8469 31.2166L30.3164 27.892H28.9997H28.9994ZM35.3182 27.892V33.6519H36.4873V27.892H35.3182ZM45.3271 28.679C46.3133 28.679 46.9495 29.4963 46.9495 30.7613C46.9495 32.0186 46.3133 32.8312 45.3271 32.8312C44.3572 32.8312 43.7054 31.9996 43.7054 30.7613C43.7054 29.5175 44.3572 28.679 45.3271 28.679ZM25.5742 28.6912C26.5407 28.6912 27.1162 29.4592 27.1162 30.7507C27.1162 31.9799 26.5201 32.7769 25.5957 32.7769C24.7067 32.7769 24.1537 31.9996 24.1537 30.7504C24.1537 29.4994 24.7111 28.6909 25.5742 28.6909V28.6912ZM20.4197 30.8698H21.0204V31.2219C21.0204 32.2149 20.4234 32.8548 19.4984 32.8548C18.9344 32.8548 18.5393 32.4831 18.5393 31.9513C18.5393 31.2539 19.2073 30.8698 20.4197 30.8698Z" fill="#00B087"/>
</svg>
