<svg width="160" height="34" viewBox="0 0 160 34" fill="none" xmlns="http://www.w3.org/2000/svg">
    <g clip-path="url(#clip0_41_2688)">
        <path fill-rule="evenodd" clip-rule="evenodd" d="M123.017 12.7531C123.002 12.7644 122.98 12.7717 122.955 12.7717C122.896 12.7717 122.846 12.7199 122.846 12.6602C122.846 12.6416 122.85 12.6256 122.855 12.6117L122.862 12.6037C125.936 5.59095 132.944 0.693359 141.091 0.693359C149.242 0.693359 156.25 5.59427 159.324 12.6137L159.327 12.6197C159.333 12.6336 159.337 12.6489 159.337 12.6661C159.337 12.7266 159.287 12.7763 159.225 12.7763C159.207 12.7763 159.187 12.7704 159.172 12.7624L159.16 12.7564C157.743 11.9246 155.775 11.41 153.592 11.41C151.074 11.41 148.835 12.0978 147.413 13.1647L147.407 13.1694C147.388 13.1833 147.363 13.1939 147.338 13.1939C147.313 13.1939 147.288 13.1833 147.269 13.1707L147.263 13.1647C145.84 12.0985 143.602 11.41 141.08 11.41C138.562 11.41 136.324 12.0978 134.901 13.1647L134.895 13.1694C134.877 13.1833 134.852 13.1939 134.826 13.1939C134.801 13.1939 134.783 13.1846 134.764 13.174L134.751 13.1661C133.332 12.0998 131.091 11.41 128.569 11.41C126.398 11.41 124.44 11.9192 123.026 12.7438L123.017 12.7531Z" fill="#E31B23"/>
        <path fill-rule="evenodd" clip-rule="evenodd" d="M142.118 12.905V12.8864C142.118 12.8379 142.081 12.7981 142.031 12.7935H142.028C141.711 12.7543 141.382 12.7344 141.05 12.7344C140.764 12.7344 140.488 12.7483 140.221 12.7749L140.212 12.7762C140.165 12.7808 140.131 12.8213 140.131 12.8711L140.127 12.8758L140.131 29.1301C140.131 30.0555 139.376 30.8084 138.451 30.8084C137.721 30.8084 137.101 30.3397 136.87 29.6904L136.868 29.6871C136.734 29.2927 136.364 29.0072 135.924 29.0072C135.374 29.0072 134.93 29.4527 134.93 29.9991C134.93 30.0927 134.942 30.1837 134.968 30.2693L134.97 30.2773C135.452 31.7379 136.83 32.7968 138.451 32.7968C140.473 32.7968 142.118 31.1523 142.118 29.1301L142.118 12.905Z" fill="#E31B23"/>
        <path d="M27.7623 32.7268H24.4296L22.2785 25.7438H19.524L18.7512 32.7268H15.4443L17.4015 14.9355H23.9197C27.7856 14.9355 29.6326 15.859 29.132 20.3828C28.7934 23.472 27.595 24.7088 25.4626 25.317L27.7623 32.7268ZM22.8973 22.9243C24.4535 22.9243 25.519 22.8638 25.8038 20.26C26.094 17.635 24.8432 17.7585 23.3906 17.7585H20.3964L19.8261 22.9236L22.8973 22.9243Z" fill="black"/>
        <path d="M115.099 32.7268H111.739L109.587 25.7438H106.862L106.089 32.7268H102.782L104.738 14.9355H111.258C115.121 14.9355 116.971 15.859 116.469 20.3828C116.134 23.472 114.935 24.7088 112.799 25.317L115.099 32.7268ZM110.181 22.9243C111.74 22.9243 112.801 22.8638 113.09 20.26C113.38 17.635 112.181 17.7585 110.675 17.7585H107.734L107.169 22.9236L110.181 22.9243Z" fill="black"/>
        <path d="M45.5051 14.9355H49.0045L51.4251 27.9374L56.5418 14.9355H59.9231L52.5312 32.8243H49.1028L45.5051 14.9355Z" fill="black"/>
        <path d="M62.9656 14.9355H73.4546L73.1253 17.9019H66.0196L65.5535 22.1329H71.3182L70.9842 25.1364H65.2262L64.7123 29.7505H72.0511L71.7291 32.7268H61.0051L62.9656 14.9355Z" fill="black"/>
        <path d="M90.5667 14.9355H101.056L100.73 17.9019H93.6226L93.1539 22.1329H98.9159L98.5866 25.1364H92.8273L92.3147 29.7505H99.6522L99.3322 32.7268H88.6108L90.5667 14.9355Z" fill="black"/>
        <path d="M117.841 32.4117L118.31 29.4959C118.832 29.616 121.619 30.029 123.278 30.029C125.513 30.029 126.14 29.6419 126.336 27.8414C126.518 26.191 126.252 25.9752 123.737 25.1712C119.75 23.8833 118.85 23.2273 119.253 19.5294C119.644 15.9809 121.485 14.7168 125.522 14.7168C127.494 14.7168 129.649 14.9857 130.428 15.2028L130.05 18.098C129.118 17.9493 126.801 17.6572 125.175 17.6572C123.373 17.6572 122.765 18.1199 122.607 19.5546C122.421 21.2323 122.743 21.4049 125.165 22.1797C128.985 23.4431 130.184 24.1017 129.767 27.8195C129.342 31.7087 127.532 32.9256 122.911 32.9256C120.505 32.9256 118.676 32.5863 117.841 32.4117Z" fill="black"/>
        <path d="M33.0245 32.7274H29.6426L37.292 14.8379H40.5398L44.0632 32.7267H40.5876L40.0373 29.763H34.2514L33.0245 32.7274ZM38.3417 19.5005L35.4119 26.9707H39.5188L38.3417 19.5005Z" fill="black"/>
        <path d="M86.71 29.7505H78.866L80.4973 14.9355H77.1173L75.1602 32.7268H83.5771C85.4712 32.7268 86.2918 31.6366 86.71 29.7505Z" fill="black"/>
        <path d="M0.327303 14.9362L0 17.9025H5.53627L3.9044 32.7267H7.31286L8.91751 17.9131H11.7105C13.604 17.9131 14.4239 16.8184 14.8408 14.9355L0.327303 14.9362Z" fill="black"/>
    </g>
    <defs>
        <clipPath id="clip0_41_2688">
            <rect width="160" height="33.195" fill="white" transform="translate(0 0.211914)"/>
        </clipPath>
    </defs>
</svg>
