<svg width="66" height="18" viewBox="0 0 66 18" fill="none" xmlns="http://www.w3.org/2000/svg">
    <g clip-path="url(#clip0_722_21)">
        <path d="M5.06314 14.6516H13.1387C13.2041 14.6516 13.2041 14.7171 13.1387 14.7171C12.1615 15.1083 10.8587 16.3456 10.8587 16.3456C9.94705 17.1263 9.23015 17.6485 7.73257 17.6485H0.0482603C-0.0172261 17.6485 -0.0172261 17.583 0.0482603 17.583C0.894414 17.1263 2.13176 15.8907 2.13176 15.8907C2.91126 15.1145 3.96149 14.6709 5.06142 14.6533L5.06314 14.6516Z" fill="#0A55A0"/>
        <path d="M57.8762 14.6516H65.9517C66.0172 14.6516 66.0172 14.7171 65.9517 14.7171C65.0401 15.1083 63.7373 16.3456 63.7373 16.3456C62.8256 17.1263 62.1087 17.6485 60.6112 17.6485H52.8562C52.7907 17.6485 52.7907 17.583 52.8562 17.583C53.7023 17.1263 54.9397 15.8907 54.9397 15.8907C55.5256 15.3737 56.5682 14.6533 57.8693 14.6533L57.8762 14.6516Z" fill="#0A55A0"/>
        <path d="M18.2828 14.6516H26.3583C26.4238 14.6516 26.4238 14.7171 26.3583 14.7171C25.4466 15.1083 24.1438 16.3456 24.1438 16.3456C23.2321 17.1263 22.5152 17.6485 21.0177 17.6485H13.3334C13.2679 17.6485 13.2679 17.583 13.3334 17.583C14.1795 17.1263 15.422 15.889 15.422 15.889C15.7903 15.4985 16.2345 15.1874 16.7273 14.9746C17.2201 14.7618 17.7512 14.6519 18.2879 14.6516H18.2828Z" fill="#0A55A0"/>
        <path d="M31.4369 14.6516H39.5124C39.5779 14.6516 39.5779 14.7171 39.5124 14.7171C38.6008 15.1083 37.298 16.3456 37.298 16.3456C36.3863 17.1263 35.6694 17.6485 34.1718 17.6485H26.4875C26.422 17.6485 26.422 17.583 26.4875 17.583C27.3337 17.1263 28.571 15.8907 28.571 15.8907C29.088 15.3737 30.1341 14.6533 31.4369 14.6533V14.6516Z" fill="#0A55A0"/>
        <path d="M44.6566 14.6516H52.7321C52.7976 14.6516 52.7976 14.7171 52.7321 14.7171C51.8205 15.1083 50.5176 16.3456 50.5176 16.3456C49.606 17.1263 48.8891 17.6485 47.3915 17.6485H39.7072C39.6417 17.6485 39.6417 17.583 39.7072 17.583C40.5534 17.1263 41.789 15.889 41.789 15.889C42.306 15.372 43.352 14.6516 44.6549 14.6516H44.6566Z" fill="#0A55A0"/>
        <path d="M46.8711 0.0637207C41.7924 0.0637207 38.4698 2.47638 38.4698 6.18498C38.4698 9.57132 41.5305 11.8513 46.1542 11.8513C47.6278 11.8445 49.0944 11.6476 50.5177 11.2653V8.39946C50.0308 8.92997 49.4359 9.34986 48.7729 9.6308C48.1099 9.91174 47.3944 10.0472 46.6746 10.028C43.9397 10.028 42.1164 8.33569 42.1164 5.86099C42.1164 3.44833 44.0707 1.69399 46.7401 1.69399C48.2377 1.69399 49.4096 2.21099 50.3212 3.12607V0.389427C49.3441 0.129204 48.1067 0.0637207 46.8745 0.0637207H46.8711Z" fill="#E52922"/>
        <path d="M8.77519 2.01795C10.6708 2.01795 12.8784 2.34366 13.8538 3.12432V0.389404H0.439453V3.12432C1.41658 2.40742 3.36911 2.09033 5.5181 2.09033V9.5127C5.5181 10.6191 5.45261 10.881 4.93217 11.467H9.23015C8.77347 10.881 8.64422 10.5553 8.64422 9.5127V2.01795H8.77519Z" fill="#E52922"/>
        <path d="M22.6462 4.75287C21.8656 5.01309 20.4973 5.07858 19.7804 5.07858H18.674V2.14892H20.1715C21.5399 2.14892 23.8836 2.40914 24.7297 3.18292V0.389404H15.0257C15.4824 0.975336 15.5427 1.30104 15.5427 2.34366V9.5127C15.5427 10.6191 15.4772 10.9448 15.0257 11.467H25.3794V8.79063C23.9474 9.82463 21.2762 9.82462 20.1698 9.76775H18.6722V6.70713H19.7786C20.5593 6.70713 21.8621 6.77261 22.6445 7.03283V4.75287H22.6462Z" fill="#E52922"/>
        <path d="M37.0378 0.780667C35.3886 0.299573 33.6835 0.037107 31.966 0C29.1656 0 26.4307 0.846154 26.4307 3.64656C26.4307 8.47188 34.8957 5.92652 34.8957 8.85618C34.8957 9.83331 33.3981 10.2245 32.2262 10.2245C30.0772 10.2245 28.5142 9.89879 26.6254 8.79242V11.2051C28.0575 11.6618 29.9463 11.922 32.0952 11.922C35.0249 11.922 37.7616 11.1413 37.7616 8.34091C37.7616 3.26226 29.2966 5.5405 29.2966 3.0658C29.2966 2.08867 30.6649 1.69748 31.8367 1.69748C33.8548 1.69748 36.0038 2.28341 37.1791 3.38979V0.780667H37.0481H37.0378Z" fill="#E52922"/>
        <path d="M54.5554 5.99029C54.5554 3.65346 56.0529 1.7578 58.3329 1.7578C60.6129 1.7578 62.1104 3.65346 62.1104 5.99029C62.1759 8.27025 60.6783 10.1573 58.3984 10.1573C56.0547 10.1573 54.5554 8.26164 54.5554 5.99029ZM65.5605 5.85931C65.5605 2.342 62.8256 0 58.7224 0C54.2934 0.0654865 51.2328 2.54019 51.2328 6.12126C51.2328 9.56792 54.0332 11.9168 58.1364 11.9168C62.4999 11.9168 65.5605 9.44212 65.5605 5.86104V5.85931Z" fill="#E52922"/>
    </g>
    <defs>
        <clipPath id="clip0_722_21">
            <rect width="66" height="17.6486" fill="white"/>
        </clipPath>
    </defs>
</svg>
