<?xml version="1.0" encoding="UTF-8"?>
<svg width="512px" height="512px" viewBox="0 0 512 512" version="1.1" xmlns="http://www.w3.org/2000/svg" xmlns:xlink="http://www.w3.org/1999/xlink">
    <!-- Generator: Sketch 48.1 (47250) - http://www.bohemiancoding.com/sketch -->
    <title>#TSLA</title>
    <desc>Created with Sketch.</desc>
    <defs></defs>
    <g id="Компании-BIG" stroke="none" stroke-width="1" fill="none" fill-rule="evenodd">
        <g id="#TSLA" fill="#E31937" fill-rule="nonzero">
            <g id="Group" transform="translate(-3.000000, 1.000000)">
                <path d="M258.77728,512 L330.903596,106.744834 C399.648959,106.744834 421.33341,114.276379 424.466332,145.017997 C424.466332,145.017997 470.585944,127.838439 493.843972,92.9471594 C403.076672,50.9265054 311.876333,49.0314324 311.876333,49.0314324 L258.659363,113.7889 L258.779313,113.780775 L205.56031,49.0212766 C205.56031,49.0212766 114.357939,50.9183808 23.6028369,92.9390347 C46.8425673,127.830314 92.9784437,145.009872 92.9784437,145.009872 C96.1276295,114.266223 117.785651,106.734679 186.071546,106.685931 L258.77728,512" id="Shape"></path>
                <path d="M257.815603,31.1641444 C331.200084,30.6041637 415.194712,42.4915805 501.184081,79.8865248 C512.676713,59.2463659 515.631206,50.1243611 515.631206,50.1243611 C421.632375,13.0175228 333.605566,0.318539757 257.805436,0 C182.00734,0.318539757 93.9845967,13.0195517 0,50.1243611 C0,50.1243611 4.19281795,61.360496 14.436958,79.8865248 C100.408026,42.4915805 184.420955,30.6041637 257.807469,31.1641444 L257.815603,31.1641444" id="Shape"></path>
            </g>
        </g>
    </g>
</svg>