<svg width="110" height="41" viewBox="0 0 110 41" fill="none" xmlns="http://www.w3.org/2000/svg">
    <path d="M62.4779 32.9009C62.4779 32.9009 62.7312 32.6186 62.7312 32.0542C62.7312 31.3497 62.2179 30.592 61.2912 30.592C60.4268 30.592 59.7868 31.2853 59.7868 32.1986C59.7868 33.4253 61.009 34.1009 62.2934 34.1009C64.5268 34.1009 65.9712 32.672 67.2512 29.6431L71.2557 20.1653H72.5179V18.5986H67.8934V20.1653H69.5201L66.6534 27.4186L63.7868 20.1653H65.7201V18.5986H59.4201V20.1653H60.9601L65.3201 30.0475C64.4712 32.192 63.8468 32.7209 62.4779 32.9009ZM100.471 18.5986H96.2179V20.1653H97.9779V28.2609H96.2179V29.8297H102.118V28.2609H100.593V23.6542C100.593 21.5142 102.047 20.1653 103.389 20.1653C104.62 20.1653 105.413 21.0675 105.413 22.6831V28.2609H103.869V29.8297H109.789V28.2609H108.009V21.9853C108.009 19.7009 106.842 18.3364 104.889 18.3364C103.169 18.3364 101.556 19.0031 100.471 20.972V18.5986ZM86.8245 24.2142C86.8245 20.8742 87.7245 19.5631 89.7468 19.5631C91.769 19.5631 92.669 20.8742 92.669 24.2142C92.669 27.5475 91.769 28.8653 89.7468 28.8653C87.7245 28.8653 86.8245 27.5475 86.8245 24.2142ZM95.5601 24.2142C95.5601 20.7209 93.1979 18.3364 89.7468 18.3364C86.2957 18.3364 83.9312 20.7209 83.9312 24.2142C83.9312 27.7009 86.2957 30.092 89.7468 30.092C93.1979 30.092 95.5601 27.7009 95.5601 24.2142ZM77.3468 18.3364C75.0601 18.3364 73.4045 19.8409 73.4045 21.8031C73.4045 23.5742 74.4557 24.5186 77.2823 25.2809C79.4312 25.8409 80.3912 26.2831 80.3912 27.4186C80.3912 28.4053 79.7023 28.972 78.4934 28.972C76.9912 28.972 75.5045 27.8342 74.6801 26.0742H73.229V30.092H74.6045L74.9645 28.3631C75.7046 29.3186 76.8379 30.092 78.5712 30.092C81.2268 30.092 82.6623 28.2786 82.6623 26.5453C82.6623 24.5075 81.2134 23.7186 78.7068 23.052C76.7134 22.5275 75.6979 22.0653 75.6979 20.9809C75.6979 20.1009 76.4112 19.4297 77.4712 19.4297C79.109 19.4297 80.0201 20.7364 80.7557 22.0809H82.1868V18.3364H80.7868L80.4423 19.9142C79.8645 19.0075 78.8934 18.3364 77.3468 18.3364ZM44.7401 13.2164V17.4986H45.9712C46.409 15.0609 46.9068 14.7897 49.4245 14.7853H51.3601V28.2609H48.0623V29.8297H57.3268V28.2609H54.0312V14.7853H55.9645C58.4845 14.7897 58.9845 15.0609 59.4201 17.4986H60.6534V13.2164H44.7401ZM17.0645 21.0786H14.9557C14.4379 21.0786 14.0134 20.6564 14.0134 20.1342H12.6979C12.6979 20.572 12.8223 20.9764 13.0401 21.3231H12.8245C12.169 21.3231 11.6357 20.7897 11.6357 20.1342H10.3201C10.3201 20.7853 10.5934 21.372 11.0357 21.7809C10.5934 22.192 10.3201 22.7786 10.3201 23.4297H11.6357C11.6357 22.7742 12.169 22.2409 12.8245 22.2409H13.0401C12.8223 22.5809 12.6979 22.992 12.6979 23.4297H14.0134C14.0134 22.9075 14.4379 22.4853 14.9557 22.4853H17.0645V21.0786ZM25.209 31.0409V29.1853H21.1512V13.2164H23.589C26.5357 13.2164 27.1623 13.5409 27.6801 16.4275H29.1423V11.3542H10.3201V16.4275H11.7801C12.2979 13.5409 12.9268 13.2164 15.8712 13.2164H18.309V29.1853H14.2512V31.0409H25.209ZM27.4112 19.952H26.4023V21.0786H22.3934V22.4853H26.4023V23.612H27.4112C27.6623 22.8964 28.3445 22.3897 29.1423 22.3897V21.1742C28.3445 21.1742 27.6623 20.6675 27.4112 19.952ZM19.729 3.17419C10.2534 3.17419 2.57121 10.8586 2.57121 20.3364C2.57121 29.8142 10.2534 37.4986 19.729 37.4986C29.209 37.4986 36.889 29.8142 36.889 20.3364C36.889 10.8586 29.209 3.17419 19.729 3.17419ZM38.969 20.3364C38.969 30.9609 30.3534 39.5742 19.729 39.5742C9.10676 39.5742 0.491211 30.9609 0.491211 20.3364C0.491211 9.71196 9.10676 1.09863 19.729 1.09863C30.3534 1.09863 38.969 9.71196 38.969 20.3364ZM36.3445 37.4986L35.8979 38.8809L35.4268 37.4986H34.8801V39.3609H35.2201V37.8675L35.7423 39.3609H36.0268L36.549 37.852V39.3609H36.889V37.4986H36.3445ZM33.089 37.4986H34.6068V37.7986H34.0312V39.3609H33.6645V37.7986H33.089" fill="#00205B"/>
</svg>
