<svg width="160" height="22" viewBox="0 0 160 22" fill="none" xmlns="http://www.w3.org/2000/svg">
<path d="M29.5964 18.5838C27.1907 18.5838 25.999 17.2104 25.999 14.9189V8.86904H23.822V6.50766H25.999V3.48437L28.8639 2.77344V6.50766H31.8664V8.86904H28.8638V14.6654C28.8638 15.5831 29.2763 15.9729 30.1921 15.9729C30.7881 15.9729 31.2701 15.9497 32.0496 15.8574V18.2644C31.247 18.4698 30.4452 18.5838 29.5964 18.5838Z" fill="black"/>
<path d="M40.6182 18.4245V11.0684C40.6182 9.69414 40.1607 8.84614 38.6488 8.84614C36.9277 8.84614 36.1961 10.679 36.1961 12.1455V18.4245H33.3318V1.88086H36.1961V7.76847C36.8843 6.76015 38.2123 6.21016 39.4489 6.21016C41.9933 6.21016 43.4837 8.02052 43.4837 10.4737V18.4245H40.6182Z" fill="black"/>
<path d="M55.7868 13.3602H47.8132C47.791 14.2761 48.1106 15.1473 48.6824 15.6967C49.094 16.0865 49.6682 16.4313 50.4477 16.4313C51.2723 16.4313 51.7761 16.2704 52.1906 15.857C52.4404 15.6052 52.6477 15.285 52.7621 14.849H55.5111C55.4424 15.5604 54.9619 16.5005 54.5028 17.0497C53.4969 18.2405 52.0056 18.7216 50.4948 18.7216C48.8674 18.7216 47.674 18.1494 46.7356 17.2547C45.5445 16.1096 44.9023 14.4367 44.9023 12.4903C44.9023 10.5865 45.475 8.89246 46.6213 7.72202C47.5148 6.80686 48.7972 6.21045 50.4242 6.21045C52.1906 6.21045 53.7932 6.92107 54.7772 8.40986C55.6491 9.71618 55.855 11.0683 55.8098 12.558C55.8098 12.558 55.7868 13.1092 55.7868 13.3602ZM52.2126 9.19047C51.8225 8.77715 51.2264 8.50192 50.4007 8.50192C49.5302 8.50192 48.8216 8.86858 48.4069 9.41936C47.9971 9.9457 47.8132 10.4962 47.7909 11.2743H52.9456C52.9239 10.3816 52.6704 9.69372 52.2126 9.19047Z" fill="black"/>
<path d="M61.8131 4.92665V18.4239H58.8576V4.92665H54.0459V2.17725H66.6247V4.92665H61.8131Z" fill="black"/>
<path d="M71.525 9.05137C69.5104 9.05137 68.4552 10.4955 68.4552 12.4206V18.4241H65.5698V6.50745H67.9977L68.2493 8.29575C68.7988 6.92109 70.219 6.34863 71.6179 6.34863C71.9154 6.34863 72.2142 6.37149 72.5115 6.41681V9.16637C72.1908 9.0974 71.8471 9.05137 71.525 9.05137Z" fill="black"/>
<path d="M82.2029 18.6071C80.9661 18.6071 80.279 17.8278 80.1867 16.9353C79.6367 17.8968 78.2618 18.7216 76.5662 18.7216C73.726 18.7216 72.2583 16.9353 72.2583 14.9867C72.2583 12.7183 74.0231 11.4131 76.2909 11.2529L79.7986 10.9987V10.2666C79.7986 9.1431 79.407 8.3885 77.7805 8.3885C76.4514 8.3885 75.6727 8.98318 75.6039 10.0832H72.8316C72.9908 7.4002 75.1221 6.21045 77.7806 6.21045C79.821 6.21045 81.5623 6.8525 82.2489 8.63938C82.5464 9.3961 82.5934 10.2439 82.5934 11.0455V15.468C82.5934 16.0177 82.7763 16.2247 83.2583 16.2247C83.4404 16.2247 83.6245 16.1782 83.6245 16.1782V18.2857C83.1427 18.4934 82.8912 18.6071 82.2029 18.6071ZM79.7986 13.1302L76.7723 13.36C75.9016 13.4287 75.0544 13.9565 75.0544 14.9185C75.0544 15.8346 75.8559 16.4073 76.7493 16.4073C78.5375 16.4073 79.7986 15.4453 79.7986 13.6806V13.1302Z" fill="black"/>
<path d="M92.6976 18.4244L92.5153 17.1186C91.8036 18.2183 90.4747 18.6992 89.1693 18.6992C87.977 18.6992 86.9924 18.2848 86.2593 17.692C84.8375 16.5226 84.1506 14.735 84.1506 12.4902C84.1506 10.1516 84.8606 8.3424 86.2812 7.17235C87.0146 6.57767 87.977 6.21038 89.1922 6.21038C90.705 6.21038 91.8037 6.71473 92.3087 7.33251V1.88037H95.1716V18.4244H92.6976ZM89.7426 8.61755C88.8496 8.61755 88.2289 9.02835 87.8177 9.55604C87.2215 10.3355 87.062 11.4131 87.062 12.4453C87.062 13.4744 87.2215 14.5739 87.8177 15.3532C88.2289 15.8793 88.8496 16.2926 89.7426 16.2926C91.9874 16.2926 92.4464 14.161 92.4464 12.4453C92.4464 10.7239 91.9874 8.61755 89.7426 8.61755Z" fill="black"/>
<path d="M107.66 13.3602H99.6865C99.6636 14.2761 99.9845 15.1473 100.557 15.6967C100.968 16.0865 101.542 16.4313 102.321 16.4313C103.146 16.4313 103.65 16.2704 104.063 15.857C104.314 15.6052 104.521 15.285 104.634 14.849H107.386C107.316 15.5604 106.834 16.5005 106.378 17.0497C105.369 18.2405 103.88 18.7216 102.367 18.7216C100.741 18.7216 99.5487 18.1494 98.609 17.2547C97.4172 16.1096 96.7764 14.4367 96.7764 12.4903C96.7764 10.5865 97.348 8.89246 98.4951 7.72202C99.3886 6.80686 100.671 6.21045 102.298 6.21045C104.063 6.21045 105.667 6.92107 106.652 8.40986C107.523 9.71618 107.728 11.0683 107.683 12.558C107.683 12.558 107.66 13.1092 107.66 13.3602ZM104.086 9.19047C103.696 8.77715 103.1 8.50192 102.274 8.50192C101.404 8.50192 100.695 8.86858 100.283 9.41936C99.8691 9.9457 99.6866 10.4962 99.6637 11.2743H104.818C104.795 10.3816 104.544 9.69372 104.086 9.19047Z" fill="black"/>
<path d="M120.216 16.6827C119.139 17.8063 117.513 18.4237 115.656 18.4237H109.333V2.17822H115.656C117.513 2.17822 119.139 2.79568 120.216 3.91931C121.888 5.63801 122.119 8.0447 122.119 10.2905C122.119 12.5361 121.888 14.9632 120.216 16.6827ZM117.948 5.75213C117.399 5.20254 116.596 4.83525 115.656 4.83525H112.288V15.7657H115.656C116.596 15.7657 117.399 15.3997 117.948 14.849C119.093 13.7032 119.116 11.7792 119.116 10.2905C119.116 8.79931 119.093 6.8972 117.948 5.75213Z" fill="black"/>
<path d="M133.803 13.3602H125.829C125.806 14.2761 126.126 15.1473 126.701 15.6967C127.113 16.0865 127.684 16.4313 128.465 16.4313C129.29 16.4313 129.794 16.2704 130.207 15.857C130.459 15.6052 130.663 15.285 130.779 14.849H133.528C133.46 15.5604 132.978 16.5005 132.519 17.0497C131.512 18.2405 130.022 18.7216 128.51 18.7216C126.882 18.7216 125.692 18.1494 124.751 17.2547C123.56 16.1096 122.919 14.4367 122.919 12.4903C122.919 10.5865 123.492 8.89246 124.637 7.72202C125.53 6.80686 126.815 6.21045 128.441 6.21045C130.206 6.21045 131.809 6.92107 132.795 8.40986C133.665 9.71618 133.872 11.0683 133.826 12.558C133.826 12.558 133.803 13.1092 133.803 13.3602ZM130.23 9.19047C129.839 8.77715 129.243 8.50192 128.419 8.50192C127.549 8.50192 126.837 8.86858 126.425 9.41936C126.012 9.9457 125.829 10.4962 125.806 11.2743H130.962C130.94 10.3816 130.687 9.69372 130.23 9.19047Z" fill="black"/>
<path d="M146.154 1.88086V18.4245H149.017V15.2856L150.919 13.2239L154.264 18.4245H157.587L152.867 11.1154L157.129 6.50754H153.532L149.017 11.344V1.88086H146.154Z" fill="black"/>
<path d="M141.365 11.366C140.195 11.1831 139.897 11.1606 138.821 11.0215C138.178 10.9304 137.446 10.6788 137.446 9.83219C137.446 9.21158 137.859 8.77705 138.363 8.56937C138.799 8.3884 139.188 8.3884 139.599 8.3884C140.195 8.3884 140.815 8.59365 141.157 8.938C141.433 9.23601 141.639 9.60291 141.639 10.0605H144.365C144.365 9.19038 143.955 8.29595 143.312 7.607C142.442 6.66868 140.997 6.20996 139.577 6.20996C138.088 6.20996 136.827 6.64653 135.957 7.40003C135.246 8.02103 134.743 8.86848 134.743 10.0838C134.743 11.5953 135.842 12.9247 137.47 13.269C138.523 13.4979 139.714 13.5663 140.768 13.7267C141.503 13.8419 141.961 14.3009 141.961 14.9862C141.961 16.292 140.494 16.5004 139.531 16.5004C138.707 16.5004 138.178 16.3373 137.722 15.9726C137.415 15.7238 137.184 15.2823 137.111 14.8372H134.415C134.497 15.8489 135.025 16.7345 135.659 17.3469C136.644 18.2847 137.996 18.7215 139.509 18.7215C141.136 18.7215 142.625 18.3108 143.587 17.3469C144.205 16.7287 144.618 15.8792 144.618 14.735C144.618 12.8558 143.245 11.6642 141.365 11.366Z" fill="black"/>
<path d="M4.69531 1.12061V4.19938H7.84408V12.2345H10.8747V4.15123V1.12061H4.69531Z" fill="#0099FA"/>
<path d="M3.03188 11.5199C3.03188 9.1231 4.36374 7.03751 6.32772 5.96369L1.8307 5.96338C0.680591 7.51727 0 9.43829 0 11.5199C0 15.65 2.67555 19.1543 6.38715 20.3968V17.1074C4.39086 16.0426 3.03188 13.9406 3.03188 11.5199Z" fill="#0099FA"/>
<path d="M12.3917 2.66455V5.96307C14.3561 7.03744 15.6895 9.12272 15.6895 11.5204C15.6895 15.0144 12.8549 17.8483 9.35977 17.8483C8.83847 17.8483 8.33198 17.7849 7.84741 17.6662V20.7578C8.3401 20.8372 8.84469 20.88 9.35977 20.88C14.5289 20.88 18.7198 16.6894 18.7198 11.5204C18.7198 7.41174 16.0728 3.92429 12.3917 2.66455Z" fill="#0099FA"/>
<path d="M158.897 7.22591C158.265 7.22591 157.794 6.73101 157.794 6.10472C157.794 5.47844 158.265 4.98047 158.897 4.98047C159.529 4.98047 160 5.47544 160 6.10165C160 6.72802 159.529 7.22591 158.897 7.22591ZM158.897 5.17602C158.356 5.17602 157.999 5.57003 157.999 6.10472C157.999 6.63935 158.356 7.03036 158.897 7.03036C159.438 7.03036 159.795 6.63635 159.795 6.10165C159.795 5.56711 159.438 5.17602 158.897 5.17602ZM159.144 6.66993L158.949 6.23919H158.72V6.66993H158.515V5.49996H158.946C159.169 5.49996 159.361 5.62819 159.361 5.86654C159.361 6.01929 159.294 6.14153 159.151 6.20561L159.367 6.67001L159.144 6.66993ZM158.946 5.6892H158.717V6.04979H158.946C159.068 6.04979 159.147 5.99477 159.147 5.86646C159.147 5.74729 159.056 5.6892 158.946 5.6892Z" fill="#231F20"/>
</svg>
