<svg width="171" height="215" viewBox="0 0 171 215" fill="none" xmlns="http://www.w3.org/2000/svg">
    <path fill-rule="evenodd" clip-rule="evenodd" d="M50.9939 187.872C45.3652 187.872 41.0423 189.014 38.0236 191.299C35.0048 193.583 33.4548 196.845 33.4548 201.006C33.4548 205.167 35.0048 208.348 38.0236 210.632C41.0423 212.916 45.3652 214.058 50.9939 214.058C56.5408 214.058 60.8647 212.916 63.9647 210.632C66.9829 208.348 68.5329 205.167 68.5329 201.006C68.5329 196.845 66.9829 193.583 63.9647 191.299C60.8647 189.014 56.5408 187.872 50.9939 187.872ZM50.9939 208.021C44.8756 208.021 41.7761 205.656 41.7761 201.006C41.7761 196.274 44.8756 193.909 50.9939 193.909C57.1121 193.909 60.2121 196.274 60.2121 201.006C60.2121 205.656 57.1121 208.021 50.9939 208.021Z" fill="#EE2627"/>
    <path fill-rule="evenodd" clip-rule="evenodd" d="M101.244 188.525H70.8168V194.072H81.422V211.447C81.422 212.997 82.9715 213.732 85.9898 213.732C89.171 213.732 90.7215 212.997 90.7215 211.447V194.072H101.244V188.525" fill="#EE2627"/>
    <path fill-rule="evenodd" clip-rule="evenodd" d="M141.787 190.32V202.148C141.787 206.798 143.256 209.898 146.192 211.611C148.557 212.997 153.941 213.569 162.507 213.487H170.257V207.695H157.449C154.921 207.695 153.208 207.288 152.148 206.39C151.251 205.656 150.76 204.351 150.76 202.556V190.32C150.76 188.852 149.292 188.117 146.273 188.117C143.256 188.117 141.787 188.852 141.787 190.32" fill="#EE2627"/>
    <path fill-rule="evenodd" clip-rule="evenodd" d="M13.0616 187.057V205.819C13.0616 208.021 13.959 209.898 15.7532 211.284C17.548 212.671 19.9955 213.487 23.095 213.732V187.057H37.2892V180.938H0.417358V187.057H13.0616Z" fill="#EE2627"/>
    <path fill-rule="evenodd" clip-rule="evenodd" d="M108.179 197.498C103.773 203.127 101.163 208.103 100.265 212.508L100.02 213.487H108.341L108.423 212.834C108.831 211.284 109.32 209.735 110.055 208.185H128.164C128.899 209.735 129.388 211.284 129.795 212.834L129.959 213.487H138.197L137.953 212.508C137.056 208.103 134.445 203.127 129.959 197.498C126.696 193.256 124.004 190.401 121.801 188.852C121.231 188.444 120.333 188.199 119.109 188.117C117.885 188.199 116.988 188.444 116.417 188.852C114.296 190.32 111.523 193.175 108.179 197.498ZM112.909 202.882C114.785 200.109 116.907 197.58 119.109 195.377C121.475 197.743 123.515 200.19 125.228 202.882H112.909Z" fill="#EE2627"/>
    <path fill-rule="evenodd" clip-rule="evenodd" d="M147.743 81.8243C142.44 87.8616 134.037 92.5923 122.536 96.0189C111.115 99.5269 99.5308 100.832 87.8663 99.9349C80.6059 99.3629 71.7955 97.5683 61.4356 94.5496C50.5043 91.2056 41.9392 87.6976 35.821 83.9456C50.0152 97.5683 65.8408 106.95 83.2163 112.17C93.9028 115.352 104.425 116.82 114.949 116.657C125.391 116.494 133.793 114.699 140.237 111.355C144.805 108.255 147.743 104.094 149.128 98.7923C150.352 93.8163 149.944 88.4323 148.068 82.7216L147.743 81.8243" fill="#F6891E"/>
    <path fill-rule="evenodd" clip-rule="evenodd" d="M138.769 70.8122C136.159 83.7829 131.509 96.1002 124.82 107.847C118.049 119.676 110.544 128.649 102.223 134.93C94.7188 140.558 86.9689 144.393 78.8923 146.432C71.4695 148.308 64.3726 148.635 57.4387 147.33C50.9122 146.106 45.284 143.577 40.5523 139.743C35.7392 135.991 32.4767 131.422 30.6819 126.038C33.8632 130.688 38.1866 133.788 43.8158 135.419C49.3622 137.051 54.9095 136.888 60.5387 135.011C73.998 129.628 85.7455 115.923 95.6148 93.9789C99.2868 85.7402 102.468 77.0122 104.996 67.7936C107.199 59.8802 108.585 53.1922 109.157 47.6442C110.461 31.4109 108.26 19.7456 102.549 12.8122C94.9628 4.73623 84.3585 2.86025 70.8985 7.02025C76.2007 2.69625 83.4611 0.494907 92.7602 0.41224C102.387 0.249574 111.033 2.36958 118.62 6.85625C128.653 12.8122 135.261 21.7842 138.524 33.8589C141.461 44.6256 141.543 56.9442 138.769 70.8122Z" fill="#2744A0"/>
    <path fill-rule="evenodd" clip-rule="evenodd" d="M90.7215 53.1922C76.772 48.7056 62.9037 47.0736 49.1996 48.3789C36.5548 49.6029 27.1741 52.9469 20.9741 58.2496C15.998 63.8776 16.1611 70.9749 21.6267 79.7042C22.198 80.6829 23.4215 82.2322 25.2163 84.3536C28.8871 75.8696 39.1657 68.2829 56.1335 61.5936C62.6595 58.9829 69.3485 56.8629 76.1189 55.3122C82.4007 53.8442 87.2137 53.1096 90.7215 53.1922Z" fill="#F6891E"/>
    <path fill-rule="evenodd" clip-rule="evenodd" d="M15.5903 96.1002C17.7928 103.36 21.871 110.131 27.7444 116.249C33.2923 122.042 40.0627 126.854 48.0575 130.852C55.807 134.685 64.046 137.377 72.7747 138.845C81.6663 140.395 90.1501 140.558 98.2268 139.335C107.28 137.948 115.928 134.849 124.004 130.035C128.327 127.425 132.977 123.917 137.953 119.512C128.083 122.286 118.131 123.346 108.015 122.776C93.9028 122.042 80.2799 119.023 67.146 113.72C50.5862 107.031 36.8002 97.4056 25.7059 84.8429L25.2163 84.3535C23.4215 82.2322 22.198 80.6829 21.6267 79.7042C16.1611 70.9749 15.998 63.8775 20.9742 58.2495C19.9138 59.2282 19.0163 60.2069 18.2819 61.1855C15.1824 65.1829 13.3882 70.2402 12.9799 76.4402C12.5715 82.5589 13.3882 89.0842 15.5903 96.1002" fill="#3AABE6"/>
    <path fill-rule="evenodd" clip-rule="evenodd" d="M157.449 66.4882C156.308 57.6775 153.289 49.6029 148.395 42.3415C142.929 34.1029 135.424 27.4135 125.88 22.1935C116.009 16.8082 104.833 13.4642 92.4335 12.0775C75.4663 10.2015 59.6413 12.9749 44.8756 20.3989C39.084 23.3349 33.7001 27.4949 28.8054 32.9615C23.5032 38.9162 19.3428 45.6055 16.4059 53.1922C18.7715 49.2749 21.9532 46.1762 26.1132 43.8109C30.6819 41.2815 36.7184 39.5682 44.1419 38.5082C52.0543 37.4469 60.8647 37.6109 70.7351 38.9162C81.0137 40.2202 91.2108 42.6682 101.327 46.2575C114.296 50.9895 125.145 56.9442 133.956 64.1229C140.891 70.0775 145.457 75.9509 147.743 81.8242L148.068 82.7215C149.944 88.4322 150.352 93.8162 149.128 98.7922C147.743 104.094 144.805 108.255 140.237 111.355L142.684 109.968L142.765 109.886C143.664 109.315 144.479 108.662 145.295 107.929L146.437 106.868C150.597 102.626 153.697 96.9162 155.736 89.7375C157.939 82.2322 158.509 74.4829 157.449 66.4882" fill="#EE2627"/>
</svg>

