<svg width="48" height="40" viewBox="0 0 48 40" fill="none" xmlns="http://www.w3.org/2000/svg">
<g clip-path="url(#clip0_115_8472)">
<path d="M7.8195 38.6968H7.31885V38.2896H8.78718V38.6969H8.28415V39.9664H7.8194" fill="black"/>
<path d="M9.83504 38.2773H10.2831L10.9971 39.9662H10.4985L10.3789 39.6643H9.72961L9.61 39.9662H9.12354L9.83504 38.2773ZM10.2424 39.3027L10.0556 38.8285L9.86618 39.3027" fill="black"/>
<path d="M11.6401 38.2896H12.1052V38.97L12.6847 38.2896H13.2333L12.5985 39.0084L13.255 39.9667H12.6991L12.2753 39.3437L12.1052 39.5307V39.9667H11.6401" fill="black"/>
<path d="M13.8694 38.2896H15.2183V38.6827H14.3292V38.9389H15.1344V39.3053H14.3292V39.5712H15.2301V39.9667H13.8694" fill="black"/>
<path d="M15.8972 39.4152H16.6831V39.0176H15.8972V39.4152Z" fill="black"/>
<path d="M17.6181 38.6968H17.1174V38.2896H18.5858V38.6969H18.0827V39.9664H17.618" fill="black"/>
<path d="M19.1572 38.2894H19.6486L19.9407 39.2596L20.264 38.2847H20.6643L20.9876 39.2596L21.2798 38.2894H21.7614L21.2009 39.9784H20.7961L20.4607 39.013L20.1229 39.9784H19.7181" fill="black"/>
<path d="M22.2759 39.1327V39.1279C22.2759 38.6462 22.6642 38.2559 23.1814 38.2559C23.6989 38.2559 24.082 38.6417 24.082 39.123V39.1278C24.082 39.6094 23.6938 39.9998 23.1765 39.9998C22.6593 39.9998 22.2759 39.6143 22.2759 39.1327ZM23.6055 39.1327V39.1279C23.6055 38.8836 23.4331 38.6752 23.1765 38.6752C22.92 38.6752 22.75 38.8813 22.75 39.123V39.1278C22.75 39.3698 22.9249 39.5807 23.1814 39.5807C23.4355 39.5807 23.6055 39.3747 23.6055 39.1327Z" fill="black"/>
<path d="M25.9575 39.9666H26.4223V38.2896H25.9575V39.9666Z" fill="black"/>
<path d="M27.2085 38.2896H27.6421L28.3322 39.176V38.2896H28.792V39.9666H28.3874L27.6684 39.0467V39.9666H27.2085" fill="black"/>
<path d="M29.9794 38.6968H29.4788V38.2896H30.9472V38.6969H30.4442V39.9664H29.9794" fill="black"/>
<path d="M31.6312 38.2896H32.9802V38.6827H32.0911V38.9389H32.8962V39.3053H32.0911V39.5712H32.992V39.9667H31.6311" fill="black"/>
<path d="M33.7117 38.2896H34.5048C34.7613 38.2896 34.9384 38.3567 35.0511 38.4694C35.1492 38.5674 35.1994 38.6944 35.1994 38.8597V38.8645C35.1994 39.1231 35.0629 39.2932 34.8547 39.3821L35.2547 39.9667H34.7205L34.3824 39.4588H34.1767V39.9667H33.7117V38.2896ZM34.4855 39.0945C34.6414 39.0945 34.7347 39.0177 34.7347 38.8956V38.8909C34.7347 38.7567 34.6366 38.6896 34.4831 38.6896H34.1767V39.0944" fill="black"/>
<path d="M36.4632 38.2773H36.911L37.6249 39.9662H37.1267L37.0067 39.6643H36.3578L36.2378 39.9662H35.7517L36.4632 38.2773ZM36.8702 39.3027L36.6835 38.8285L36.4944 39.3027" fill="black"/>
<path d="M38.1055 39.1327V39.1279C38.1055 38.6393 38.4792 38.2559 38.9871 38.2559C39.3297 38.2559 39.5503 38.3997 39.6987 38.6033L39.3488 38.874C39.253 38.7565 39.1431 38.6774 38.9823 38.6774C38.7475 38.6774 38.5823 38.8789 38.5823 39.1231V39.1278C38.5823 39.3795 38.7475 39.5759 38.9823 39.5759C39.1571 39.5759 39.2602 39.4943 39.3609 39.3723L39.7104 39.6215C39.5524 39.8393 39.3393 39.9998 38.9702 39.9998C38.491 39.9998 38.1055 39.6333 38.1055 39.1327Z" fill="black"/>
<path d="M40.8019 38.6968H40.3013V38.2896H41.7697V38.6969H41.2666V39.9664H40.8018" fill="black"/>
<path d="M42.4656 39.9666H42.9303V38.2896H42.4656V39.9666Z" fill="black"/>
<path d="M43.585 38.2896H44.1025L44.4832 39.3509L44.8666 38.2896H45.3744L44.6941 39.9785H44.2629" fill="black"/>
<path d="M46.0173 38.2896H47.3663V38.6827H46.4772V38.9389H47.2823V39.3053H46.4772V39.5712H47.3781V39.9667H46.0173" fill="black"/>
<path d="M33.9613 27.7606L34.7906 27.2409L43.0292 21.0588C45.827 18.566 47.587 15.7117 47.5822 11.8737C47.5731 4.19805 41.5524 0.367321 34.4472 0.375892C31.1498 0.379892 28.2577 1.26586 25.9511 2.87752L25.9475 0L0.191162 0.0308561L0.201638 8.79342L7.8491 8.78428L7.88214 36.4529L18.5034 36.4402L18.4702 8.77142L21.3321 8.7679C20.8376 9.997 20.4889 11.3409 20.3034 12.788L29.2777 14.5408C29.4301 11.7919 30.3595 8.36763 33.6788 8.36391C35.8571 8.36115 37.1556 10.0193 37.158 12.0937C37.1618 15.2054 34.5712 17.3868 32.3953 19.2564L20.3222 28.3473L20.3319 36.4899L47.4043 36.4575L47.8086 27.7438" fill="black"/>
</g>
<defs>
<clipPath id="clip0_115_8472">
<rect width="47.6175" height="40" fill="white" transform="translate(0.191162)"/>
</clipPath>
</defs>
</svg>
