<svg width="160" height="28" viewBox="0 0 160 28" fill="none" xmlns="http://www.w3.org/2000/svg">
    <g clip-path="url(#clip0_41_3163)">
        <path fill-rule="evenodd" clip-rule="evenodd" d="M155.278 0.490601C153.282 0.892379 151.899 2.79377 152.151 4.78877C152.277 5.78732 152.608 6.45799 153.336 7.19077C154.11 7.96949 154.955 8.31938 156.056 8.31682C157.794 8.31282 159.353 7.18349 159.841 5.5741C159.911 5.34449 159.919 5.44632 159.946 6.8241C159.975 8.30099 159.975 8.28938 159.988 6.07043C159.995 4.66527 159.978 3.6926 159.941 3.4871C159.908 3.30577 159.768 2.91993 159.628 2.62966C159.412 2.18105 159.302 2.03105 158.895 1.62966C158.367 1.10832 157.98 0.855379 157.408 0.656713C156.689 0.407435 155.97 0.351268 155.278 0.490601ZM155.502 0.914379C154.194 1.1101 153.026 2.17077 152.687 3.46988C152.566 3.93377 152.568 4.71877 152.692 5.18521C153.02 6.42282 154.039 7.46282 155.222 7.76921C155.72 7.89799 156.622 7.86216 157.08 7.69555C158.093 7.32599 158.952 6.43666 159.288 5.40743C159.45 4.91049 159.488 3.99921 159.367 3.51477C159.123 2.53938 158.422 1.66682 157.551 1.25332C156.84 0.915713 156.2 0.809935 155.502 0.914379ZM154.611 4.37355V6.46299H154.889H155.167V5.5741V4.68521H155.542H155.917L156.436 5.55005C156.721 6.02571 156.987 6.42716 157.026 6.4421C157.065 6.45705 157.224 6.46166 157.38 6.45227L157.663 6.43521L157.089 5.51855C156.773 5.01438 156.525 4.5831 156.538 4.56021C156.551 4.53732 156.624 4.51855 156.7 4.51855C156.92 4.51855 157.257 4.3161 157.387 4.1046C157.65 3.6796 157.578 2.99788 157.235 2.66982C156.933 2.38005 156.723 2.33288 155.625 2.30755L154.611 2.28416V4.37355ZM155.167 3.49532V4.08316L155.866 4.06477C156.554 4.04666 156.568 4.04371 156.699 3.89043C156.891 3.66799 156.889 3.2361 156.697 3.04382C156.567 2.91349 156.53 2.90743 155.864 2.90743H155.167V3.49532ZM0 6.04632V8.35188H2.58333H5.16667V15.9913V23.6308L7.76389 23.6163L10.3611 23.6019L10.3752 15.9769L10.3893 8.35188H12.8563H15.3233L15.3494 13.5602C15.3758 18.8033 15.3854 19.0618 15.5898 20.0741C15.9466 21.8407 16.8581 23.0209 18.2778 23.5546C19.0801 23.8562 19.5719 23.9336 20.6667 23.9307C21.5601 23.9283 21.6784 23.916 22.1269 23.7785C22.769 23.5818 23.2469 23.3613 23.7216 23.0429C24.1638 22.7462 24.8622 22.041 25.0569 21.6947C25.1292 21.5662 25.2147 21.4697 25.2469 21.4804C25.2846 21.493 25.3109 21.8801 25.3207 22.5654L25.3357 23.6309L27.6262 23.6164L29.9167 23.6019L29.9308 15.9769L29.9448 8.35188H27.5021H25.0592L25.0412 12.9491C25.0247 17.1722 25.0151 17.5734 24.9238 17.8797C24.4844 19.3536 23.4025 20.1092 21.9969 19.9236C21.0965 19.8047 20.5359 19.3684 20.2629 18.5741L20.1389 18.213L20.1236 13.2824L20.1082 8.35188H17.7208H15.3333V6.04632V3.74077H7.66667H0V6.04632ZM39.8333 7.90788C39.0379 7.98527 38.248 8.26616 37.6299 8.69138C37.2882 8.92649 36.7977 9.42855 36.5299 9.81738C36.4117 9.9891 36.294 10.1297 36.2686 10.1297C36.2431 10.1297 36.2222 9.72966 36.2222 9.24077V8.35188H33.9722H31.7222V18.0463V27.7408H34.0833H36.4444V24.8578V21.9748L36.8472 22.3909C37.9305 23.5098 39.2536 24.0122 40.9444 23.9465C42.2712 23.895 43.3341 23.515 44.2791 22.7543C46.3653 21.0749 47.3116 17.6138 46.6656 14.0259C46.0921 10.8413 44.3912 8.69738 41.9444 8.0751C41.2882 7.90821 40.4845 7.84455 39.8333 7.90788ZM56.0556 7.91016C54.6887 8.04099 53.4972 8.74171 52.7303 9.86577C52.6312 10.0109 52.5265 10.1297 52.4973 10.1297C52.4661 10.1297 52.4444 9.76644 52.4444 9.24077V8.35188H50.1944H47.9444V18.0463V27.7408H50.3056H52.6667L52.6678 24.838L52.6688 21.9352L52.8733 22.1792C53.2551 22.6346 53.8949 23.1283 54.4722 23.4128C55.2067 23.7749 55.741 23.9063 56.6423 23.9464C59.0775 24.0549 60.976 22.9454 62.1003 20.7565C63.1485 18.7159 63.3904 15.9088 62.7431 13.2972C62.2057 11.1293 61.0628 9.45827 59.5317 8.60199C58.5658 8.06182 57.236 7.79716 56.0556 7.91016ZM71.1111 7.90882C69.7844 8.01838 68.461 8.49171 67.3333 9.25999C66.7141 9.68188 65.7564 10.6639 65.3171 11.3275C64.2477 12.9425 63.7925 14.872 63.9947 16.932C64.439 21.4598 67.5516 24.1138 72.2219 23.9472C73.2333 23.911 73.8524 23.8108 74.7035 23.5452C76.9192 22.8538 78.4985 21.3277 79.1435 19.2547L79.2169 19.0185H76.9748H74.7328L74.5942 19.2547C74.2786 19.7925 73.6692 20.257 72.9627 20.4983C72.6131 20.6177 72.4242 20.6471 72 20.6482C71.3636 20.6497 70.9882 20.5687 70.4722 20.3184C69.7684 19.977 69.1902 19.289 68.922 18.4737C68.8076 18.1259 68.6691 17.4784 68.6671 17.2824C68.6668 17.2595 71.0917 17.2408 74.0556 17.2408H79.4445L79.4435 16.3935C79.4392 12.8677 77.8903 9.96282 75.3344 8.68721C74.4801 8.26082 73.6026 8.00905 72.7222 7.93766C71.8961 7.87066 71.6304 7.86593 71.1111 7.90882ZM120.222 7.91094C118.822 8.01282 117.37 8.41144 116.444 8.94805C115.941 9.24027 115.243 9.94855 114.926 10.4894C114.544 11.143 114.222 12.2241 114.222 12.8574V13.0754L116.451 13.0608L118.679 13.0463L118.777 12.7295C119.098 11.693 119.856 11.1833 121.072 11.1862C121.913 11.1882 122.597 11.4353 122.987 11.8775C123.309 12.2443 123.392 12.6263 123.272 13.1889C123.153 13.741 122.73 14.0364 121.801 14.2152C121.585 14.2568 120.76 14.3812 119.968 14.4915C117.235 14.8724 116.181 15.1797 115.186 15.8852C114.493 16.3767 113.974 17.1536 113.742 18.0463C113.584 18.6564 113.597 20.166 113.766 20.7869C114.149 22.1936 115.03 23.1442 116.389 23.6167C117.154 23.8825 117.537 23.9355 118.667 23.9319C119.513 23.9292 119.797 23.9065 120.278 23.8037C121.342 23.5758 122.312 23.1034 122.993 22.4822C123.205 22.2883 123.394 22.1297 123.412 22.1297C123.43 22.1297 123.444 22.4672 123.444 22.8797V23.6297H125.697H127.95L127.93 17.838C127.91 12.1051 127.908 12.0413 127.788 11.5485C127.335 9.69044 126.107 8.60538 123.928 8.13549C122.988 7.93271 121.315 7.83138 120.222 7.91094ZM146.75 7.90777C145.74 7.98905 144.836 8.2391 143.93 8.6881C143.133 9.0831 142.602 9.46955 141.913 10.1562C140.434 11.6289 139.663 13.424 139.573 15.6019C139.508 17.1932 139.82 18.7834 140.441 20.0245C141.709 22.5581 144.231 23.9669 147.489 23.9619C150.976 23.9565 153.657 22.3048 154.639 19.5575L154.832 19.0185H152.588H150.344L150.206 19.2547C150.006 19.5945 149.463 20.0904 149.077 20.2854C148.553 20.5499 148.142 20.6504 147.583 20.6509C145.772 20.6523 144.585 19.5121 144.307 17.5047L144.271 17.2408H149.663H155.056V16.438C155.056 12.8807 153.511 9.96755 150.946 8.68721C150.077 8.25377 149.195 8.00316 148.305 7.93705C147.424 7.8716 147.242 7.86816 146.75 7.90777ZM88.4507 8.21549C87.9128 8.33216 87.5643 8.45544 87.1694 8.6686C86.3686 9.10088 85.8303 9.66343 85.4031 10.5148L85.1667 10.9858V9.66882V8.35188H82.8611H80.5556V15.9908V23.6297H82.9167H85.2778V19.7166C85.2778 15.3156 85.2764 15.3342 85.6741 14.5233C86.0993 13.6563 86.913 13.0259 87.8683 12.8235C88.1191 12.7704 88.5883 12.7424 89.2361 12.7417L90.2222 12.7408V10.4699V8.1991L90.0486 8.16438C89.752 8.10505 88.8228 8.13477 88.4507 8.21549ZM137.725 8.19288C137.29 8.26494 136.551 8.53077 136.18 8.74827C136.005 8.8511 135.646 9.14866 135.384 9.40949C134.98 9.81027 134.862 9.97255 134.62 10.4562L134.333 11.0286V9.69027V8.35188H132.028H129.722V15.9908V23.6297H132.083H134.444V19.7734C134.444 16.6934 134.46 15.8352 134.522 15.5095C134.765 14.24 135.505 13.3507 136.658 12.9427C137.119 12.7794 137.186 12.7711 138.278 12.7427L139.417 12.713L139.431 10.4758L139.446 8.23849L139.303 8.1841C139.129 8.11805 138.143 8.12355 137.725 8.19288ZM90.9983 8.39355C90.9973 8.41644 92.0036 11.8539 93.2343 16.0324L95.4719 23.6297H97.9026C99.2395 23.6297 100.333 23.6088 100.333 23.5833C100.333 23.4379 102.561 13.4904 102.603 13.4484C102.631 13.4205 102.667 13.4187 102.683 13.4443C102.698 13.4698 103.178 15.6033 103.748 18.1852C104.318 20.7672 104.822 23.0487 104.869 23.2552L104.954 23.6308L107.378 23.6163L109.802 23.6019L112.064 16.1297C113.309 12.0199 114.343 8.58871 114.362 8.50466L114.398 8.35188H111.928H109.458L109.343 8.81021C109.28 9.06227 108.75 11.256 108.165 13.6852C107.579 16.1144 107.093 18.1093 107.085 18.1184C107.062 18.1422 107.094 18.2855 106 13.2408C105.447 10.6894 104.98 8.54566 104.963 8.47688L104.932 8.35188H102.639C100.855 8.35188 100.34 8.36732 100.32 8.42132C100.306 8.45955 99.8483 10.672 99.3031 13.338C98.6393 16.5842 98.2895 18.1852 98.2439 18.1852C98.2065 18.1852 98.15 18.0665 98.1182 17.9213C98.0865 17.7762 97.5832 15.6824 96.9998 13.2685C96.4165 10.8547 95.9133 8.76093 95.8816 8.61577L95.8241 8.35188H93.4121C92.0854 8.35188 90.9992 8.37066 90.9983 8.39355ZM71.0434 11.3826C70.5256 11.5082 70.0625 11.7758 69.6662 12.1787C69.1583 12.695 68.8854 13.2698 68.6939 14.2269L68.6578 14.4074H71.6422H74.6264L74.5881 14.0324C74.3993 12.1882 72.7637 10.9655 71.0434 11.3826ZM146.651 11.3834C146.117 11.5129 145.725 11.7383 145.298 12.1621C144.777 12.6803 144.449 13.3538 144.308 14.1991L144.273 14.4074H147.248H150.222L150.221 14.2269C150.218 13.5522 149.864 12.7271 149.34 12.1713C148.641 11.4299 147.654 11.1405 146.651 11.3834ZM38.75 11.6899C37.9929 11.8032 37.2754 12.3485 36.871 13.1182C36.5298 13.7674 36.3836 14.4402 36.3484 15.5221C36.3022 16.9447 36.4431 17.8749 36.8317 18.713C37.2887 19.6987 38.0533 20.1852 39.1456 20.1852C40.4623 20.1852 41.3541 19.3219 41.8149 17.6014C41.9528 17.0865 41.9639 16.9619 41.9678 15.8797C41.9727 14.5103 41.8903 14.0665 41.4704 13.2015C40.9106 12.0484 39.9441 11.5113 38.75 11.6899ZM54.9992 11.6873C54.0843 11.8253 53.2949 12.5227 52.9224 13.522C52.3998 14.9242 52.4515 17.3597 53.0317 18.6716C53.3611 19.4163 53.9563 19.9365 54.6632 20.0973C56.6568 20.5507 57.9689 19.2162 58.2207 16.4791C58.3941 14.5944 57.8404 12.8324 56.8452 12.1024C56.3766 11.7586 55.6336 11.5915 54.9992 11.6873ZM123.139 16.4902C122.934 16.6318 122.203 16.8431 121.222 17.0439C120.688 17.1534 120.114 17.2822 119.947 17.3301C118.96 17.6136 118.415 18.2008 118.347 19.0538C118.249 20.2739 119.139 20.988 120.635 20.8898C122.122 20.7922 122.9 20.0854 123.194 18.5667C123.297 18.0375 123.377 16.4059 123.3 16.4103C123.272 16.4119 123.2 16.4479 123.139 16.4902Z" fill="#2A2522"/>
    </g>
    <defs>
        <clipPath id="clip0_41_3163">
            <rect width="160" height="27.3333" fill="white" transform="translate(0 0.407227)"/>
        </clipPath>
    </defs>
</svg>
