<svg width="134" height="41" viewBox="0 0 134 41" fill="none" xmlns="http://www.w3.org/2000/svg">
    <g clip-path="url(#clip0_41_3165)">
        <path d="M19.5333 15.8069C19.5333 18.0736 17.6666 19.9402 15.3999 19.9402C13.1333 19.9402 11.2666 18.0736 11.2666 15.8069C11.2666 13.5402 13.1333 11.6736 15.3999 11.6736C17.6666 11.6736 19.5333 13.5402 19.5333 15.8069ZM15.3999 21.5402C13.1333 21.5402 11.2666 23.4069 11.2666 25.6736C11.2666 27.9402 13.1333 29.8069 15.3999 29.8069C17.6666 29.8069 19.5333 27.9402 19.5333 25.6736C19.5333 23.4069 17.6666 21.5402 15.3999 21.5402ZM40.3332 20.7402C40.3332 31.8069 31.3999 40.7402 20.3333 40.7402C9.26658 40.7402 0.333252 31.8069 0.333252 20.7402C0.333252 9.67357 9.26658 0.740234 20.3333 0.740234C31.3999 0.740234 40.3332 9.67357 40.3332 20.7402ZM34.9999 20.7402C34.9999 12.6069 28.4666 6.07357 20.3333 6.07357C12.1999 6.07357 5.66658 12.6069 5.66658 20.7402C5.66658 28.8736 12.1999 35.4069 20.3333 35.4069C28.4666 35.4069 34.9999 28.8736 34.9999 20.7402ZM25.2666 21.5402C22.9999 21.5402 21.1333 23.4069 21.1333 25.6736C21.1333 27.9402 22.9999 29.8069 25.2666 29.8069C27.5333 29.8069 29.3999 27.9402 29.3999 25.6736C29.3999 23.4069 27.5333 21.5402 25.2666 21.5402ZM25.2666 11.6736C22.9999 11.6736 21.1333 13.5402 21.1333 15.8069C21.1333 18.0736 22.9999 19.9402 25.2666 19.9402C27.5333 19.9402 29.3999 18.0736 29.3999 15.8069C29.3999 13.5402 27.5333 11.6736 25.2666 11.6736ZM94.0666 8.6069C94.1999 8.6069 94.3332 8.74023 94.4666 8.87357V13.1402C94.4666 13.4069 94.1999 13.5402 94.0666 13.5402H86.9999C86.7332 13.5402 86.5999 13.2736 86.5999 13.1402V9.0069C86.5999 8.74023 86.8666 8.6069 86.9999 8.6069H94.0666ZM93.9332 14.6069H80.3332C80.1999 14.6069 79.9333 14.7402 79.9333 15.0069L78.1999 21.6736L78.0666 22.0736L75.9333 15.0069C75.9333 14.8736 75.6666 14.6069 75.5332 14.6069H70.1999C70.0666 14.6069 69.7999 14.7402 69.7999 15.0069L67.7999 21.6736L67.6666 22.0736L67.5332 21.6736L66.7332 18.3402L65.9333 15.0069C65.9333 14.8736 65.6666 14.6069 65.5332 14.6069H54.8666V8.87357C54.8666 8.74023 54.5999 8.47357 54.3332 8.6069L47.6666 10.7402C47.3999 10.7402 47.2666 10.8736 47.2666 11.1402V14.7402H45.5333C45.3999 14.7402 45.1332 14.8736 45.1332 15.1402V20.2069C45.1332 20.3402 45.2666 20.6069 45.5333 20.6069H47.2666V26.8736C47.2666 31.2736 49.6666 33.2736 54.0666 33.2736C55.9332 33.2736 57.6666 32.8736 58.8666 32.2069V26.8736C58.8666 26.6069 58.5999 26.4736 58.4666 26.6069C57.7999 26.8736 57.1333 27.0069 56.5999 27.0069C55.3999 27.0069 54.7332 26.4736 54.7332 25.1402V20.6069H58.5999C58.7332 20.6069 58.9999 20.4736 58.9999 20.2069V15.9402L64.0666 32.7402C64.0666 32.8736 64.3332 33.1402 64.4666 33.1402H70.0666C70.1999 33.1402 70.4666 33.0069 70.4666 32.7402L72.8666 25.2736L74.0666 29.1402L75.1332 32.7402C75.1332 32.8736 75.3999 33.1402 75.5332 33.1402H81.1332C81.2666 33.1402 81.5332 33.0069 81.5332 32.7402L86.5999 15.9402V32.7402C86.5999 32.8736 86.7332 33.1402 86.9999 33.1402H93.7999C93.9332 33.1402 94.1999 33.0069 94.1999 32.7402V15.0069C94.1999 14.8736 94.0666 14.6069 93.9332 14.6069ZM102.867 8.6069H96.0666C95.9333 8.6069 95.6666 8.74023 95.6666 9.0069V32.6069C95.6666 32.7402 95.7999 33.0069 96.0666 33.0069H102.867C103 33.0069 103.267 32.8736 103.267 32.6069V8.87357C103.267 8.74023 103.133 8.6069 102.867 8.6069ZM111.933 8.6069H104.867C104.733 8.6069 104.467 8.74023 104.467 9.0069V13.1402C104.467 13.2736 104.6 13.5402 104.867 13.5402H111.933C112.067 13.5402 112.333 13.4069 112.333 13.1402V8.87357C112.333 8.74023 112.2 8.6069 111.933 8.6069ZM111.8 14.6069H105C104.867 14.6069 104.6 14.7402 104.6 15.0069V32.4736C104.6 32.6069 104.733 32.8736 105 32.8736H111.8C111.933 32.8736 112.2 32.7402 112.2 32.4736V15.0069C112.2 14.8736 112.067 14.6069 111.8 14.6069ZM133.267 23.6736C133.267 28.7402 129 33.1402 123 33.1402C117.133 33.1402 112.867 28.7402 112.867 23.6736C112.867 18.6069 117.133 14.2069 123.133 14.2069C129 14.2069 133.267 18.6069 133.267 23.6736ZM126.067 23.8069C126.067 21.9402 124.733 20.4736 123.133 20.6069C121.4 20.6069 120.2 22.0736 120.2 23.8069C120.2 25.5402 121.533 27.0069 123.133 27.0069C124.867 27.0069 126.067 25.5402 126.067 23.8069Z" fill="#F22F46"/>
    </g>
    <defs>
        <clipPath id="clip0_41_3165">
            <rect width="133.333" height="40" fill="white" transform="translate(0.333252 0.740234)"/>
        </clipPath>
    </defs>
</svg>
