<svg width="110" height="40" viewBox="0 0 110 40" fill="none" xmlns="http://www.w3.org/2000/svg">
<path fill-rule="evenodd" clip-rule="evenodd" d="M20.9376 6.84401C22.6773 6.84401 24.7494 7.01995 25.375 7.33272C25.375 7.80187 25.375 9.38527 25.375 9.54166C25.375 11.7701 26.6456 12.0829 26.6456 12.0829C26.6456 12.0829 26.6456 13.0408 26.6456 14.1355C26.6456 15.5625 26.3328 16.5204 26.3328 16.5204C25.6877 16.6767 24.1043 17.1459 22.3645 18.4165C21.0939 19.3744 19.9797 20.8014 19.9797 22.2284C19.9797 23.1667 20.136 23.8118 20.4684 24.4374C20.4684 24.4374 19.8233 24.7501 18.7091 24.7501C17.3016 24.5937 15.7182 23.4795 14.7603 21.7397C13.4897 19.5308 12.8642 16.8331 11.4371 16.8331C10.0101 16.8331 10.0101 18.2601 8.89587 18.2601C7.62524 18.2601 6.84329 16.2076 6.53052 15.2497C5.72907 13.8227 3.83292 13.3536 3.67651 11.1251H9.69732C9.69732 7.80188 9.69732 5.9057 9.69732 2.58252C11.9063 2.58252 13.1769 2.58252 15.3859 2.58252V6.21847C15.5618 6.37486 16.031 6.53124 16.6565 6.68763L16.031 9.54166H14.2912L13.646 12.0829H15.3859L14.7603 15.2497C14.7603 15.7189 14.6039 16.8331 14.7603 17.3023C15.0731 18.5729 15.8745 19.0421 16.9693 19.0421C18.5527 19.0421 19.9797 18.2601 19.9797 18.2601L20.6248 16.2076C20.312 16.2076 19.8233 16.2076 19.5105 16.2076C19.1977 16.2076 18.885 16.2076 19.0413 15.4061L19.8233 12.0829H21.5631L22.2082 9.54166H20.4684L20.9376 6.84401Z" fill="#BE372F"/>
<path fill-rule="evenodd" clip-rule="evenodd" d="M17.4578 7.80176H19.6667L17.9269 16.0511H15.718L17.4578 7.80176Z" fill="#BE372F"/>
<path fill-rule="evenodd" clip-rule="evenodd" d="M19.0411 4.7915C19.6667 4.7915 20.3118 5.26066 20.3118 6.06214C20.3118 6.68768 19.6667 7.17639 19.0411 7.17639C18.3961 7.17639 17.7705 6.68768 17.7705 6.06214C17.7705 5.26066 18.3961 4.7915 19.0411 4.7915Z" fill="#BE372F"/>
<path fill-rule="evenodd" clip-rule="evenodd" d="M74.1672 14.937C75.4378 14.937 76.2197 15.0934 76.3761 15.2498C76.6889 15.2498 76.5325 15.0934 76.6889 14.937H76.8648L77.6468 17.146L77.334 17.3023C76.8648 16.6768 75.9069 16.0513 74.3236 16.0513C73.698 16.0513 72.4274 16.2076 72.4274 17.146C72.4274 19.0421 78.2919 17.9474 78.2919 21.7398C78.2919 23.4796 76.8648 24.7502 74.1672 24.7502C73.2093 24.7502 72.4274 24.5938 71.6259 24.281C71.4695 24.281 71.3132 24.4374 71.3132 24.5938L71.0004 24.7502L70.0425 21.8962L70.3553 21.7398C71.1568 22.6976 72.271 23.4796 74.1672 23.4796C75.7506 23.4796 76.2197 22.854 76.2197 22.2285C76.2197 20 70.5117 21.427 70.5117 17.6151C70.5117 15.8753 72.271 14.937 74.1672 14.937Z" fill="#0F0E0C"/>
<path fill-rule="evenodd" clip-rule="evenodd" d="M41.209 24.5938V24.281C41.8541 24.1246 42.1668 23.9683 42.1668 23.0104V16.5204C42.1668 15.5626 41.8541 15.4062 41.209 15.2498V14.937H48.6568L49.4583 16.9896L49.1455 17.146C48.5004 16.364 47.8749 16.2076 46.7607 16.2076C46.6043 16.2076 45.0209 16.2076 45.0209 16.2076C44.3758 16.2076 44.2194 16.364 44.2194 16.8332V18.8857H46.7607C47.7185 18.8857 47.8749 18.7294 48.0313 18.2602H48.3441V20.8015H48.0313C47.8749 20.3128 47.7185 20.1564 46.7607 20.1564H44.2194V22.6976C44.2194 23.3232 44.3758 23.3232 45.0209 23.3232C45.0209 23.3232 47.0734 23.3232 47.2298 23.3232C48.1876 23.3232 48.9696 23.3232 49.7711 22.3849L49.9275 22.5412L49.3019 24.5938H41.209Z" fill="#0F0E0C"/>
<path fill-rule="evenodd" clip-rule="evenodd" d="M38.8436 23.0106C38.8436 23.9684 39.1564 24.1248 39.6255 24.2812V24.594H35.5204V24.2812C35.9896 24.1248 36.4588 23.9684 36.4588 23.0106V13.8229C36.4588 13.3538 36.146 13.3538 35.5204 13.3538C33.4483 13.3538 32.6664 13.3538 31.8649 14.1357H31.7085L32.51 11.9268H42.7923L43.5938 14.1357H43.281C42.6359 13.3538 41.6976 13.3538 39.6255 13.3538C39 13.3538 38.8436 13.3538 38.8436 13.8229V23.0106Z" fill="#0F0E0C"/>
<path fill-rule="evenodd" clip-rule="evenodd" d="M54.0519 19.8436L51.3542 16.364C50.8851 15.5626 50.5528 15.4062 49.9272 15.2498V14.937H54.3647V15.2498C53.8955 15.2498 53.5632 15.7189 54.0519 16.364L55.303 18.2602L56.9059 16.2076C57.2187 15.7189 57.2187 15.2498 56.5736 15.2498V14.937H60.2291V15.2498C59.584 15.4062 59.1148 15.5626 58.4893 16.2076L56.2608 19.3744L58.9585 23.1668C59.2713 23.6359 59.584 23.9683 59.584 23.9683C59.584 23.9683 60.0727 23.8119 60.6983 22.2285L63.7087 14.937H65.6048L69.104 23.1668C69.2604 23.6359 69.7295 24.1246 70.1987 24.281V24.5938H66.0936V24.281C66.4063 24.281 67.0319 24.1246 66.5627 23.1668L66.0936 21.8962H62.1253L61.6561 23.1668C61.1674 24.1246 61.9689 24.281 62.1253 24.281V24.5938H55.948V24.281C56.2608 24.281 57.0623 23.9683 56.4172 23.1668L54.8338 21.1142L53.2504 23.3232C52.7813 23.9683 53.2504 24.281 53.5632 24.281V24.5938H49.9272V24.281C50.5528 24.1246 51.1979 23.8119 51.667 23.0104L54.0519 19.8436ZM64.1779 16.8332L62.5945 20.6451H65.6048L64.1779 16.8332Z" fill="#0F0E0C"/>
<path fill-rule="evenodd" clip-rule="evenodd" d="M4.45833 26.0208C4.45833 25.0629 3.98914 24.9065 3.52002 24.7501V24.5938H7.62512V24.7501C7.31236 24.9065 6.84317 25.0629 6.84317 26.0208V35.6776C6.84317 36.6354 7.31236 36.7918 7.62512 36.9482V37.261H3.52002V36.9482C3.98914 36.7918 4.45833 36.6354 4.45833 35.6776V26.0208Z" fill="#0F0E0C"/>
<path fill-rule="evenodd" clip-rule="evenodd" d="M17.6142 37.2608H17.3014L10.7918 30.458V35.6774C10.7918 36.6353 11.2806 36.7916 11.5933 36.948V37.2608H8.73926V36.948C9.20844 36.7916 9.52121 36.6353 9.52121 35.6774V29.1874C9.52121 28.2295 9.20844 28.0731 8.73926 27.9168V27.604H11.4369L16.3435 32.9993V29.1874C16.3435 28.2295 16.0308 28.0731 15.5616 27.9168V27.604H18.5525V27.9168C18.0833 28.0731 17.6142 28.2295 17.6142 29.1874V37.2608Z" fill="#0F0E0C"/>
<path fill-rule="evenodd" clip-rule="evenodd" d="M55.1468 33.9376C55.1468 36.7916 52.625 37.4172 51.0416 37.4172C49.3019 37.4172 46.7606 36.7916 46.7606 34.094V29.1874C46.7606 28.2295 46.2914 27.9168 45.8027 27.9168V27.604H49.771V27.9168C49.3019 27.9168 48.8131 28.2295 48.8131 29.1874V33.9376C48.8131 35.521 49.771 36.1661 51.3544 36.1661C52.7814 36.1661 53.8956 35.521 53.8956 33.9376V29.1874C53.8956 28.2295 53.407 28.0731 52.9378 27.9168V27.604H55.9482V27.9168C55.4791 28.0731 55.1468 28.2295 55.1468 29.1874V33.9376Z" fill="#0F0E0C"/>
<path fill-rule="evenodd" clip-rule="evenodd" d="M30.4378 29.5002C30.4378 28.8746 30.4378 28.8746 29.9687 28.8746C28.3853 28.8746 28.0725 28.8746 27.1147 29.9889L26.9583 29.8325L27.5838 27.604H35.5203L36.3023 29.8325L35.9895 29.9889C35.1881 28.8746 34.8753 28.8746 33.2918 28.8746C32.8227 28.8746 32.6663 28.8746 32.6663 29.5002V35.6774C32.6663 36.6353 32.9791 36.7916 33.6046 36.948V37.2608H29.6559V36.948C30.2814 36.7916 30.4378 36.6353 30.4378 35.6774V29.5002Z" fill="#0F0E0C"/>
<path fill-rule="evenodd" clip-rule="evenodd" d="M23.1658 27.4478C24.2605 27.4478 25.062 27.7605 25.2183 27.7605C25.5311 27.9169 25.5311 27.6041 25.5311 27.6041L25.8439 27.4478L26.489 29.8326H26.1567C25.6875 29.3439 24.9056 28.7184 23.3222 28.7184C22.5207 28.7184 21.2501 28.8748 21.2501 29.8326C21.2501 31.5724 27.2709 30.6146 27.2709 34.4069C27.2709 36.1662 25.8439 37.2609 23.1658 37.2609C22.0515 37.2609 21.2501 37.1045 20.4682 36.9482C20.3118 36.9482 20.3118 37.1045 20.1358 37.1045C20.1358 37.2609 19.8231 37.2609 19.8231 37.2609L18.8848 34.5828L19.1975 34.4069C19.9795 35.3648 21.0937 36.1662 22.9898 36.1662C24.5733 36.1662 25.062 35.5211 25.062 34.8956C25.062 32.6671 19.3539 34.0941 19.3539 30.3018C19.3539 28.562 21.2501 27.4478 23.1658 27.4478Z" fill="#0F0E0C"/>
<path fill-rule="evenodd" clip-rule="evenodd" d="M67.9899 35.6774C67.9899 36.6353 68.459 36.7916 68.9282 36.948V37.2608H64.9794V36.948C65.4486 36.7916 65.9178 36.6353 65.9178 35.6774V31.0836L62.4382 37.4172H62.1254L58.6459 30.9272V35.6774C58.6459 36.6353 59.115 36.7916 59.5842 36.948V37.2608H56.5737V36.948C56.9061 36.7916 57.3752 36.6353 57.3752 35.6774V29.1874C57.3752 28.2295 56.9061 28.0731 56.5737 27.9168V27.604H59.5842L62.751 33.9376L66.2501 27.604H68.9282V27.9168C68.459 28.0731 67.9899 28.2295 67.9899 29.1874V35.6774Z" fill="#0F0E0C"/>
<path fill-rule="evenodd" clip-rule="evenodd" d="M87.9485 37.2608H87.6357L81.1262 30.458V35.6774C81.1262 36.6353 81.6149 36.7916 81.9277 36.948V37.2608H78.9172V36.948C79.3864 36.7916 79.8751 36.6353 79.8751 35.6774V29.1874C79.8751 28.2295 79.5428 28.0731 78.9172 27.9168V27.604H81.7712L86.6778 32.9993V29.1874C86.6778 28.2295 86.2087 28.0731 85.72 27.9168V27.604H88.7499V27.9168C88.4177 28.0731 87.9485 28.2295 87.9485 29.1874V37.2608Z" fill="#0F0E0C"/>
<path fill-rule="evenodd" clip-rule="evenodd" d="M70.0425 37.2608V36.948C70.5117 36.7916 70.844 36.4789 70.844 35.6774V29.1874C70.844 28.2295 70.5117 28.0731 70.0425 27.9168V27.604H77.4903L78.1354 29.6566L77.9595 29.8325C77.334 29.031 76.5325 28.8746 75.5942 28.8746C75.4378 28.8746 73.698 28.8746 73.698 28.8746C73.2093 28.8746 73.0529 29.031 73.0529 29.5002V31.5723H75.4378C76.3761 31.5723 76.6889 31.24 76.6889 30.9272H77.0212V33.4685H76.6889C76.6889 32.9993 76.3761 32.8429 75.4378 32.8429H73.0529V35.3646C73.0529 35.8533 73.2093 36.0097 73.698 36.0097C73.698 36.0097 75.7506 36.0097 75.9069 36.0097C76.8648 36.0097 77.8031 36.0097 78.4482 35.0518L78.761 35.2082L77.9595 37.2608H70.0425Z" fill="#0F0E0C"/>
<path fill-rule="evenodd" clip-rule="evenodd" d="M92.3858 29.5002C92.3858 28.8746 92.2295 28.8746 91.8972 28.8746C90.1574 28.8746 90.001 28.8746 89.0626 29.9889L88.8867 29.8325L89.5318 27.604H97.4488L98.2503 29.8325L97.9375 29.9889C97.136 28.8746 96.8233 28.8746 95.2399 28.8746C94.7512 28.8746 94.5948 28.8746 94.5948 29.5002V35.6774C94.5948 36.6353 94.9075 36.7916 95.5526 36.948V37.2608H91.5844V36.948C92.0731 36.7916 92.3858 36.6353 92.3858 35.6774V29.5002Z" fill="#0F0E0C"/>
<path fill-rule="evenodd" clip-rule="evenodd" d="M102.355 27.4478C103.47 27.4478 104.271 27.7605 104.584 27.7605C104.74 27.9169 104.74 27.6041 104.74 27.6041C104.897 27.6041 105.053 27.4478 105.053 27.4478L105.679 29.8326H105.522C105.053 29.3439 104.095 28.7184 102.531 28.7184C101.73 28.7184 100.616 28.8748 100.616 29.8326C100.616 31.5724 106.48 30.6146 106.48 34.4069C106.48 36.1662 105.053 37.2609 102.355 37.2609C101.261 37.2609 100.459 37.1045 99.6774 36.9482C99.521 36.9482 99.521 37.1045 99.521 37.1045C99.3451 37.2609 99.1887 37.2609 99.1887 37.2609L98.094 34.5828L98.4068 34.4069C99.1887 35.3648 100.459 36.1662 102.199 36.1662C103.783 36.1662 104.271 35.5211 104.271 34.8956C104.271 32.6671 98.5632 34.0941 98.5632 30.3018C98.5632 28.562 100.459 27.4478 102.355 27.4478Z" fill="#0F0E0C"/>
<path fill-rule="evenodd" clip-rule="evenodd" d="M41.5216 27.604C43.5937 27.604 45.1771 28.4055 45.1771 30.1453C45.1771 32.0414 43.4373 32.3542 42.4795 32.5106C45.0207 33.4684 45.1771 36.7916 46.7605 36.7916V36.948C46.4478 37.1044 46.1349 37.2608 45.3335 37.2608C41.8539 37.2608 42.6358 32.9993 40.4269 32.9993H39.3127V35.6774C39.3127 36.6353 39.6255 36.7916 40.1141 36.948V37.2608H36.3022V36.948C36.7714 36.7916 37.1037 36.6353 37.1037 35.6774V29.1874C37.1037 28.2295 36.7714 28.0731 36.3022 27.9168V27.604H41.5216ZM39.3127 31.885H40.5833C41.6975 31.885 42.9486 31.4159 42.9486 30.3017C42.9486 29.6566 42.4795 28.7182 41.0524 28.7182H39.9578C39.469 28.7182 39.3127 28.8746 39.3127 29.5002V31.885Z" fill="#0F0E0C"/>
</svg>
