<svg width="70" height="41" viewBox="0 0 70 41" fill="none" xmlns="http://www.w3.org/2000/svg">
    <g clip-path="url(#clip0_41_3167)">
        <path d="M50.8425 15.7542C56.3418 13.3349 59.9326 9.70175 60.1283 5.6712C60.1283 5.6712 58.6765 4.55274 53.9889 2.82795C49.8726 1.31333 46.7322 0.966677 46.7322 0.966677L46.7467 9.94694C46.7467 11.2888 46.208 12.6585 45.191 13.8712C42.0796 13.1199 38.6409 12.6984 35.0343 12.6972H35.0319C31.4229 12.6984 27.9805 13.1211 24.8655 13.8736C23.8485 12.6609 23.3086 11.2901 23.3086 9.94694L23.3219 0.966677C23.3219 0.966677 20.184 1.31333 16.0652 2.82795C11.3776 4.55274 9.92822 5.6712 9.92822 5.6712C10.1227 9.70296 13.7148 13.3373 19.2201 15.7566C13.7196 18.1759 10.1287 21.8091 9.93426 25.8384C9.93426 25.8384 11.3849 26.9581 16.0725 28.6817C20.19 30.1963 23.3292 30.543 23.3292 30.543L23.3147 21.5627C23.3147 20.2208 23.8534 18.8499 24.8716 17.6384C27.983 18.3909 31.4205 18.8113 35.0271 18.8113C38.6373 18.8113 42.082 18.3897 45.1958 17.6348C46.2128 18.8475 46.7515 20.2208 46.7515 21.5627L46.7395 30.543C46.7395 30.543 49.8786 30.1963 53.9961 28.6817C58.6837 26.9581 60.1344 25.8384 60.1344 25.8384C59.9387 21.8067 56.3466 18.1723 50.8425 15.7542ZM35.0295 17.7749H35.0259L34.9232 17.7725C31.6669 17.7725 29.012 16.9753 27.065 15.7566C29.012 14.5355 31.6681 13.7371 34.9304 13.7371L35.0307 13.7359H35.0355L35.1382 13.7371C38.3957 13.7371 41.0493 14.5343 42.9964 15.753C41.0493 16.9729 38.3933 17.7725 35.1321 17.7725" fill="black"/>
        <path d="M2.73003 40.4922C1.15259 40.4922 1.12481 39.2892 1.12481 38.8254V36.6368C1.12481 36.5039 1.11394 36.3276 1.39537 36.3276H2.21066C2.47517 36.3276 2.45826 36.516 2.45826 36.6368V38.8254C2.45826 38.9812 2.48725 39.3991 3.06097 39.3991H4.42824C4.9911 39.3991 5.02371 38.9812 5.02371 38.8254V36.6368C5.02371 36.516 5.00801 36.3276 5.27131 36.3276H6.09264C6.39098 36.3276 6.36441 36.516 6.36441 36.6368V38.8254C6.36441 39.2892 6.33663 40.4922 4.75315 40.4922" fill="black"/>
        <path d="M10.2849 40.2283C9.72809 39.4782 8.93333 38.5337 8.12288 37.536V40.2005C8.12288 40.3164 8.15186 40.4928 7.87527 40.4928H7.11433C6.83895 40.4928 6.87156 40.3164 6.87156 40.2005V36.6374C6.87156 36.5166 6.85948 36.3282 7.11433 36.3282H8.59756C9.01667 36.3282 9.61335 37.1724 10.0047 37.7293C10.3066 38.1544 10.8647 38.7934 11.2391 39.2729V36.6374C11.2391 36.5166 11.2222 36.3282 11.4988 36.3282H12.3249C12.5907 36.3282 12.5738 36.5166 12.5738 36.6374V40.4928H11.0519C10.7258 40.4928 10.582 40.5145 10.2849 40.2283Z" fill="black"/>
        <path d="M16.5547 39.3964C17.2214 39.3964 17.1731 38.7563 17.1731 38.464C17.1731 37.482 16.8965 37.4434 16.4557 37.4434H14.3601V39.3964H16.5547ZM13.0737 40.4932V36.3346H16.7492C16.9738 36.3346 18.4788 36.308 18.4788 37.8891C18.4788 39.5064 18.6551 40.4932 16.7818 40.4932H14.8009L14.3709 39.6223V40.4932" fill="black"/>
        <path d="M19.9185 36.3614H23.304C23.5915 36.3614 23.5529 36.5486 23.5529 36.8964C23.5529 37.2201 23.5963 37.4025 23.304 37.4025H20.6287C20.5574 37.4025 20.3159 37.3639 20.3159 37.6175C20.3159 37.8712 20.2663 37.9714 20.5357 37.9714H22.9018C22.9018 37.9714 23.2437 38.6224 23.2823 38.7323C23.3379 38.8314 23.3318 38.9256 23.1229 38.9256H20.6734L20.2929 38.1864V39.2783C20.2929 39.5319 20.52 39.4824 20.5852 39.4824H23.3644C23.641 39.4824 23.6181 39.6745 23.6181 39.9885C23.6181 40.3267 23.641 40.5127 23.3644 40.5127H19.846C19.5537 40.5127 18.9812 40.4245 18.9812 39.5102V37.2153C18.9812 36.9786 19.108 36.3614 19.9185 36.3614Z" fill="black"/>
        <path d="M27.4166 37.4323H25.7679C25.4937 37.4323 25.5034 37.5265 25.5034 37.6099V38.3539H27.2016C28.0241 38.3539 28.0241 38.1486 28.0241 37.9336C28.0241 37.5036 27.9915 37.4323 27.4166 37.4323ZM24.467 36.3344H28.1727C28.6691 36.3344 29.3902 36.3296 29.3902 37.6691C29.3902 38.546 29.2042 38.5894 28.8068 38.86C29.4747 38.9759 29.3866 39.8299 29.3866 40.272C29.3866 40.4978 29.3044 40.493 29.2368 40.493H28.151C27.9239 40.493 27.9794 40.1343 27.9794 39.947C27.9794 39.4337 27.6932 39.4567 27.5821 39.4567H25.9829C25.8295 39.1909 25.5312 38.5955 25.5312 38.5955V40.3215C25.5312 40.4712 25.3814 40.493 25.327 40.493H24.2364C24.2955 40.493 24.124 40.5039 24.124 40.3541V36.6931C24.124 36.4335 24.3064 36.3344 24.467 36.3344Z" fill="black"/>
        <path d="M35.3297 37.5134L34.6461 38.7599L34.7065 38.8203H35.9807L36.0472 38.7599C36.0025 38.6657 35.4517 37.6185 35.3961 37.5074L35.3297 37.5134ZM35.7706 36.3623C36.0411 36.3623 36.3044 36.4831 36.5919 37.0399C36.7864 37.4361 38.1319 39.8675 38.4121 40.376V40.5137H37.011L36.6076 39.7853H34.9045C34.9045 39.7853 34.6183 39.1295 34.5362 38.9483C34.4311 39.1186 33.8682 40.1888 33.6738 40.5137H32.269V40.4255C32.5553 39.8856 34.5132 36.3623 34.5132 36.3623" fill="black"/>
        <path d="M42.0868 37.4323H40.4381C40.1627 37.4323 40.1736 37.5265 40.1736 37.6099V38.3539H41.8718C42.6943 38.3539 42.6943 38.1486 42.6943 37.9336C42.6943 37.5036 42.6617 37.4323 42.0868 37.4323ZM39.1372 36.3344H42.8429C43.3393 36.3344 44.0616 36.3296 44.0616 37.6691C44.0616 38.546 43.8756 38.5894 43.477 38.86C44.1437 38.9759 44.0555 39.8299 44.0555 40.272C44.0555 40.4978 43.9734 40.493 43.907 40.493H42.8211C42.5941 40.493 42.6496 40.1343 42.6496 39.947C42.6496 39.4337 42.3634 39.4567 42.2522 39.4567H40.6531C40.4985 39.1909 40.2001 38.5955 40.2001 38.5955V40.3215C40.2001 40.4712 40.0528 40.493 39.9972 40.493H38.9053C38.9657 40.493 38.7954 40.5039 38.7954 40.3541V36.6931C38.7954 36.4335 38.9778 36.3344 39.1372 36.3344Z" fill="black"/>
        <path d="M47.2992 40.4922C47.0226 39.974 46.2556 38.5452 45.7375 37.6091V40.1999C45.7375 40.3158 45.7532 40.4922 45.4911 40.4922H44.7398C44.4584 40.4922 44.4801 40.3158 44.4801 40.1999V36.6368C44.4801 36.516 44.4644 36.3336 44.7398 36.3336H46.0358C46.2291 36.3336 46.5033 36.2889 46.8137 36.9073C47.0456 37.4025 47.5372 38.4304 47.8729 38.9751C48.2196 38.4304 48.722 37.4025 48.954 36.9073C49.2571 36.2889 49.5265 36.3336 49.7415 36.3336H51.0314C51.2972 36.3336 51.2694 36.516 51.2694 36.6368V40.1999C51.2694 40.3158 51.3068 40.4922 51.0314 40.4922H50.2765C50.0011 40.4922 50.0229 40.3158 50.0229 40.1999V37.6091C49.4999 38.5452 48.7377 39.974 48.4503 40.4922" fill="black"/>
        <path d="M55.4042 39.4328C56.0287 39.4328 56.0057 38.789 56.0057 38.3578C56.0057 37.9713 56.0939 37.365 55.2835 37.365H53.9089C53.1045 37.365 53.1987 37.9713 53.1987 38.3578C53.1987 38.789 53.1601 39.4328 53.7833 39.4328H55.4042ZM52.9342 40.5029C51.7046 40.5029 51.759 39.184 51.759 38.3312C51.759 37.5474 51.6708 36.3238 53.2096 36.3117H55.9405C57.4841 36.3117 57.3839 37.5522 57.3839 38.3312C57.3839 39.184 57.4455 40.5029 56.1978 40.5029" fill="black"/>
        <path d="M59.44 40.4922C57.8613 40.4922 57.8348 39.2892 57.8348 38.8254V36.6368C57.8348 36.5039 57.8239 36.3276 58.1053 36.3276H58.9218C59.1851 36.3276 59.1694 36.516 59.1694 36.6368V38.8254C59.1694 38.9812 59.1972 39.3991 59.7709 39.3991H61.1382C61.7011 39.3991 61.7337 38.9812 61.7337 38.8254V36.6368C61.7337 36.516 61.7168 36.3276 61.9813 36.3276H62.8026C63.1009 36.3276 63.0744 36.516 63.0744 36.6368V38.8254C63.0744 39.2892 63.0466 40.4922 61.4631 40.4922" fill="black"/>
        <path d="M66.8993 37.4323H65.2506C64.9752 37.4323 64.9861 37.5265 64.9861 37.6099V38.3539H66.6843C67.5068 38.3539 67.5068 38.1486 67.5068 37.9336C67.5068 37.5036 67.4742 37.4323 66.8993 37.4323ZM63.9485 36.3344H67.6554C68.1518 36.3344 68.8753 36.3296 68.8753 37.6691C68.8753 38.546 68.6869 38.5894 68.2895 38.86C68.9574 38.9759 68.8692 39.8299 68.8692 40.272C68.8692 40.4978 68.7871 40.493 68.7195 40.493H67.6336C67.4078 40.493 67.4621 40.1343 67.4621 39.947C67.4621 39.4337 67.1759 39.4567 67.0659 39.4567H65.4656C65.3122 39.1909 65.0138 38.5955 65.0138 38.5955V40.3215C65.0138 40.4712 64.8641 40.493 64.8097 40.493H63.719C63.7782 40.493 63.6079 40.5039 63.6079 40.3541V36.6931C63.6079 36.4335 63.7903 36.3344 63.9485 36.3344Z" fill="black"/>
    </g>
    <defs>
        <clipPath id="clip0_41_3167">
            <rect width="68.2023" height="40" fill="white" transform="translate(0.898926 0.740234)"/>
        </clipPath>
    </defs>
</svg>
