<svg width="160" height="30" viewBox="0 0 160 30" fill="none" xmlns="http://www.w3.org/2000/svg">
<g clip-path="url(#clip0_115_8583)">
<path d="M158.742 26.9236C158.073 26.9236 157.544 27.4544 157.544 28.1192C157.544 28.7843 158.073 29.314 158.742 29.314C159.409 29.314 159.939 28.7843 159.939 28.1192C159.939 27.4544 159.409 26.9236 158.742 26.9236ZM158.742 29.1311C158.194 29.1311 157.726 28.6834 157.726 28.1192C157.726 27.5542 158.194 27.1089 158.742 27.1089C159.289 27.1089 159.755 27.5542 159.755 28.1192C159.755 28.6834 159.289 29.1311 158.742 29.1311Z" fill="#0033A0"/>
<path d="M159.328 27.8023C159.328 27.5208 159.1 27.4567 158.862 27.4567H158.294V28.7642H158.477V28.1603H158.7L159.089 28.7642H159.31L158.916 28.1603C159.148 28.1535 159.328 28.0604 159.328 27.8023ZM158.7 27.9784H158.477V27.6414H158.826C158.968 27.6414 159.145 27.6651 159.145 27.7989C159.145 28.0072 158.858 27.9784 158.7 27.9784Z" fill="#0033A0"/>
<path d="M151.071 29.3301C151.304 28.6965 151.515 28.02 151.688 27.3323C152.025 25.9366 152.199 24.4911 152.199 23.0185C152.199 22.1685 152.14 21.3276 152.026 20.5001C151.943 21.7059 151.733 22.7626 151.733 22.7626C151.782 22.9219 151.87 23.1835 151.91 23.3448L151.91 23.3455C151.78 24.5902 151.545 25.7994 151.216 26.9624C151.057 26.3782 150.845 25.8159 150.831 25.7796C150.831 25.7789 150.83 25.7782 150.83 25.7777C150.404 26.9147 149.766 28.2534 149.187 29.3301H151.071Z" fill="#0033A0"/>
<path d="M147.121 29.3301H148.21C151.31 24.751 151.466 20.6928 151.466 19.9152C151.466 18.4464 151.219 17.0968 150.807 16.0281C150.807 16.0281 150.163 14.3673 149.162 12.8894C149.271 13.2197 149.481 13.8892 149.597 14.4873C149.605 14.5271 149.611 14.5623 149.617 14.5949C149.814 14.9239 150.704 16.4931 150.823 18.2186C150.823 18.2217 150.823 18.2238 150.823 18.2238C150.823 18.2238 150.194 17.343 149.728 16.7865C149.711 17.735 149.588 18.6841 149.39 19.6008C149.39 19.6008 150.321 20.6798 150.738 21.3757C150.738 21.3757 150.455 22.8934 149.847 24.3478C149.229 23.4486 148.439 22.5751 148.439 22.5751C147.977 23.7174 147.392 24.8669 146.742 25.9298C146.742 25.9298 147.922 27.3113 148.181 27.7052C147.835 28.2888 147.496 28.797 147.121 29.3301Z" fill="#0033A0"/>
<path d="M143.241 29.3301C145.298 27.0293 147.051 24.3227 148.104 21.4248C149.018 18.9106 149.515 15.8399 148.706 13.1086C148.652 12.9284 148.591 12.7467 148.52 12.564C148.262 11.8961 147.926 11.3135 147.561 10.8559C146.578 9.75625 145.464 8.77639 144.243 7.94225C144.422 8.17356 144.586 8.41181 144.728 8.65344C144.728 8.65344 146.214 9.75608 147.077 10.8763C145.97 10.0877 145.344 9.76853 145.262 9.72814C145.259 9.72672 145.256 9.72529 145.253 9.72369C145.674 10.7601 145.8 11.6185 145.8 11.6199C145.8 11.6199 147.114 12.3053 148.296 13.3293C148.46 14.0864 148.528 14.8622 148.517 15.6388C147.325 14.5903 145.945 13.7714 145.945 13.7714C145.92 14.6593 145.797 15.5586 145.602 16.4328C145.602 16.4328 146.905 17.2575 148.174 18.4137C148.174 18.4137 147.809 20.052 147.221 21.3404C146.004 20.2068 144.816 19.3247 144.723 19.2556C144.723 19.2556 144.118 20.8321 143.139 22.4143C144.358 23.4749 145.504 24.5743 145.504 24.5743C144.804 25.6665 144.012 26.7063 143.157 27.6785L143.157 27.6794L140.976 25.5078C140.09 26.6042 139.119 27.6372 138.087 28.5881C138.136 28.6433 138.576 29.1306 138.755 29.3301H143.241Z" fill="#0033A0"/>
<path d="M143.8 8.18477C143.659 7.99189 143.5 7.79528 143.317 7.62019C143.156 7.467 143 7.32874 142.835 7.20455C141.02 5.83644 137.681 5.15229 137.681 5.15229C137.999 5.32222 138.265 5.49641 138.266 5.49765C138.282 5.50157 139.629 5.83911 140.823 6.42325C140.823 6.42325 139.736 6.17646 139.04 6.08038C139.328 6.3334 139.601 6.62467 139.841 6.92893C139.841 6.92893 142.057 7.33319 143.03 7.86663C143.03 7.86663 143.496 8.3458 143.876 9.18634C142.358 8.56981 140.638 8.24829 140.638 8.24829C140.866 8.75984 141.03 9.30769 141.13 9.87778C141.13 9.87778 143.021 10.3406 144.442 11.0228C144.564 11.6975 144.609 12.395 144.583 13.1006C142.905 12.2592 141.239 11.7308 141.239 11.7308C141.206 12.4581 141.089 13.212 140.892 13.9821C140.892 13.9821 143.184 15.0054 144.213 15.6266C143.986 16.5361 143.667 17.427 143.283 18.2848C141.715 17.266 140.055 16.36 140.055 16.36C139.638 17.3612 138.613 19.001 138.613 19.001L138.613 19.0012L138.614 19.0017C138.639 19.0195 140.346 20.1912 141.656 21.231C141.005 22.2168 140.272 23.1635 139.474 24.0635C139.198 23.8002 136.682 21.5664 136.682 21.5664C135.922 22.447 135.077 23.3048 134.151 24.126C134.151 24.126 134.151 24.1263 134.151 24.1265L136.577 26.8718C136.577 26.872 136.578 26.872 136.578 26.8721L136.578 26.8725C135.004 28.168 133.436 29.1497 133.436 29.1497L131.412 26.2763C131.412 26.2763 129.987 27.3597 127.583 28.4974V29.3301H135.477C144.289 22.6635 147.415 13.1309 143.8 8.18477Z" fill="#0033A0"/>
<path d="M139.331 7.18463C137.143 4.23917 133.717 4.65997 132.696 4.80285C131.574 4.96014 130.726 5.20569 130.726 5.20569C130.976 5.22917 131.318 5.27401 131.564 5.32294C131.745 5.28024 133.32 4.92117 134.465 5.07117C134.467 5.07117 134.468 5.07135 134.468 5.07135C133.627 5.16263 132.479 5.50959 132.36 5.54625C132.358 5.5466 132.358 5.54731 132.357 5.54785C132.358 5.54838 132.359 5.54891 132.36 5.54927C132.402 5.56137 132.732 5.66172 133.157 5.91065C133.281 5.87738 134.839 5.46404 136.325 5.43486V5.43522C136.325 5.43522 136.874 5.67881 137.404 6.04196C135.483 6.03467 133.894 6.40334 133.851 6.41348C134.075 6.61294 134.299 6.85297 134.5 7.1414C136.605 6.8261 138.421 6.96275 138.421 6.96275C138.421 6.96275 138.668 7.26399 138.779 7.42591C138.919 7.62982 139.063 7.88319 139.174 8.10578C137.026 7.85454 134.971 8.03425 134.969 8.03425C135.111 8.40008 135.207 8.79135 135.26 9.20273C135.497 9.20095 137.317 9.20433 139.634 9.62158C139.708 10.1529 139.716 10.7221 139.657 11.3228C139.263 11.2203 137.361 10.745 135.285 10.539C135.243 11.0578 135.144 11.598 134.992 12.1519C135.225 12.2067 137.79 12.8181 139.226 13.4001C139.199 13.4903 139.169 13.5809 139.139 13.672C138.934 14.2889 138.676 14.9083 138.372 15.5257C137.215 14.9561 134.378 13.8471 134.378 13.8471C134.095 14.4816 133.748 15.1239 133.343 15.765C133.343 15.765 135.775 17.153 136.946 17.9215C136.405 18.6943 135.795 19.453 135.121 20.1862C134.272 19.4241 132.147 17.7776 131.986 17.6534C131.301 18.4694 130.438 19.3275 130.179 19.5813L132.729 22.5054C132.706 22.5266 132.681 22.5481 132.656 22.5698C132.104 23.0272 131.51 23.4578 131.007 23.803C130.571 24.0993 130.211 24.3288 130.087 24.4089C130.057 24.3639 128.388 21.6979 128.137 21.2737C127.953 21.4097 127.768 21.5397 127.583 21.6675V27.1479C127.883 27.0033 128.184 26.8535 128.484 26.6942C129.922 25.9862 131.317 25.0879 132.616 24.05C133.448 23.3892 134.321 22.6139 135.182 21.7189C136.206 20.6688 137.095 19.5686 137.837 18.4539C140.65 14.3024 141.404 9.97388 139.331 7.18463Z" fill="#0033A0"/>
<path d="M133.654 6.96241C132.612 5.76636 130.878 5.35676 128.862 5.64483C128.807 5.65302 128.75 5.66067 128.699 5.66939C128.545 5.69536 128.389 5.72668 128.232 5.76138C127.921 5.83362 127.708 5.90479 127.583 5.95301V6.55619C127.782 6.39979 127.985 6.25086 128.193 6.11101C128.595 6.02507 128.985 5.97027 129.361 5.94571C128.779 6.27791 128.108 6.72843 127.583 7.14461V7.60883L127.602 7.61951C127.602 7.61951 129.079 6.45032 130.252 5.94642C130.535 5.96689 130.806 6.00639 131.065 6.06564C129.311 6.80957 128.016 7.73232 127.926 7.79708C128.106 7.90366 128.27 8.03729 128.292 8.0549C128.315 8.04067 130.015 6.97735 131.886 6.34001C132.14 6.45602 132.385 6.6005 132.597 6.76402C130.56 7.3366 128.601 8.35899 128.601 8.35899C128.712 8.48745 128.809 8.62624 128.893 8.77481C128.906 8.76947 128.919 8.76467 128.928 8.76094C131.013 7.86843 133.229 7.41079 133.229 7.41079C133.403 7.64815 133.545 7.91327 133.654 8.20543C133.654 8.20543 131.666 8.43283 129.107 9.25327C129.22 9.60682 129.251 9.87247 129.252 9.87496C129.252 9.87496 131.663 9.33547 133.887 9.27569C133.918 9.63297 133.907 10.034 133.856 10.4454C132.539 10.376 129.401 10.5429 129.278 10.5525C129.278 10.5525 129.267 11.0046 129.149 11.4299C129.149 11.4299 131.442 11.5034 133.527 11.8923C133.366 12.3916 133.16 12.8841 132.916 13.3649C131.526 12.9475 129.417 12.4405 128.862 12.3131C128.716 12.6727 128.533 13.0297 128.315 13.3752C128.315 13.3752 130.892 14.4999 131.881 15.0499H131.883L131.882 15.051C131.453 15.6937 130.602 16.5933 130.602 16.5933C130.356 16.4086 130.122 16.2362 129.902 16.0748C129.219 15.5967 128.205 14.8867 127.589 14.4577C127.586 14.4558 127.585 14.4556 127.583 14.4544V16.5853L128.92 18.1464C128.48 18.5012 128.031 18.8245 127.583 19.1147V20.3862C127.6 20.3756 127.616 20.3651 127.633 20.3542C128.243 19.9386 128.846 19.4754 129.434 18.9642C134.045 14.9519 135.935 9.57835 133.654 6.96241Z" fill="#0033A0"/>
<path d="M127.583 13.0698C128.761 11.3926 128.932 9.46779 127.898 8.52814C127.8 8.43988 127.695 8.36426 127.583 8.29896V13.0698Z" fill="#0033A0"/>
<path d="M134.015 4.05303C144.465 4.05303 152.967 12.5871 152.967 23.0769C152.967 25.2044 152.608 27.3212 151.912 29.3301H156.564V0.349403H127.583V5.18325L127.606 5.17507C129.663 4.4306 131.82 4.05303 134.015 4.05303Z" fill="#0033A0"/>
<path d="M115.457 9.58948C114.75 8.95961 113.846 8.47083 112.747 8.12369C111.648 7.77655 110.327 7.60306 108.784 7.60306H100.972V22.0688H108.784C111.561 22.0688 113.712 21.4678 115.235 20.2653C116.759 19.0634 117.521 17.2537 117.521 14.8361C117.521 13.7559 117.354 12.7689 117.019 11.8752C116.685 10.9814 116.164 10.2197 115.457 9.58948ZM112.844 16.6491C112.683 17.1378 112.422 17.5298 112.062 17.8254C111.702 18.1218 111.236 18.3337 110.664 18.462C110.092 18.5908 109.4 18.6549 108.591 18.6549H105.177V11.0168H108.591C109.426 11.0168 110.13 11.0878 110.703 11.2289C111.274 11.3709 111.738 11.5953 112.091 11.9042C112.445 12.2127 112.699 12.6081 112.853 13.0903C113.008 13.5728 113.085 14.1545 113.085 14.8361C113.085 15.556 113.004 16.1603 112.844 16.6491Z" fill="#0033A0"/>
<path d="M84.3647 16.1283H92.2727V13.2929H84.3647V10.9015H93.7577L93.6808 7.60289H80.1597V22.0688H94.0666L94.1438 18.8092H84.3647V16.1283Z" fill="#0033A0"/>
<path d="M58.8084 7.60306L58.6931 11.0168H64.2285V22.0688H68.4524V11.0168H73.9879L73.8918 7.60306H58.8084Z" fill="#0033A0"/>
<path d="M48.0076 22.0688H52.2895V7.60289H48.0076V22.0688Z" fill="#0033A0"/>
<path d="M36.1258 14.7972L36.1646 16.3404L36.1258 16.3788L35.0264 15.2601L27.1958 7.60289H23.7239V22.0688H27.5428V14.4698L27.5046 12.9072L27.562 12.888L28.6618 13.9872L37.1867 22.0688H39.9451V7.60289H36.1258V14.7972Z" fill="#0033A0"/>
<path d="M12.0934 15.7618C12.0934 16.8546 11.7847 17.6681 11.1677 18.2018C10.5506 18.7356 9.56005 19.0021 8.19728 19.0021C6.82134 19.0021 5.81194 18.7356 5.16907 18.2018C4.52585 17.6681 4.20451 16.8546 4.20451 15.7618V7.60295H0V15.7234C0 17.9605 0.703895 19.6291 2.11204 20.7287C3.52001 21.8278 5.54824 22.3774 8.19728 22.3774C10.8588 22.3774 12.8713 21.831 14.2345 20.7382C15.5972 19.6451 16.2791 17.9731 16.2791 15.7234V7.60295H12.0934V15.7618Z" fill="#0033A0"/>
</g>
<defs>
<clipPath id="clip0_115_8583">
<rect width="160" height="29.3004" fill="white" transform="translate(0 0.349609)"/>
</clipPath>
</defs>
</svg>
