<svg width="116" height="41" viewBox="0 0 116 41" fill="none" xmlns="http://www.w3.org/2000/svg">
    <g clip-path="url(#clip0_41_3180)">
        <path d="M7.01737 29.3077C7.50429 30.5999 8.17842 31.7048 9.03989 32.6223C9.90136 33.54 10.9219 34.2422 12.1016 34.7291C13.2815 35.216 14.5642 35.4594 15.95 35.4594C17.2984 35.4594 18.5624 35.2066 19.7422 34.7009C20.922 34.1952 21.9519 33.4837 22.8321 32.5661C23.7122 31.6485 24.3957 30.5531 24.8827 29.2796C25.3696 28.0062 25.613 26.5831 25.613 25.01V0.740234H31.5118V40.0661H25.6692V36.4144C24.3583 37.8001 22.8133 38.8675 21.0343 39.6167C19.2552 40.3657 17.3358 40.7402 15.2759 40.7402C13.1784 40.7402 11.2215 40.375 9.40499 39.6447C7.58857 38.9144 6.01543 37.8751 4.68594 36.5268C3.35645 35.1784 2.30765 33.5587 1.53991 31.6672C0.772052 29.7759 0.388184 27.6692 0.388184 25.347V0.740234H6.28705V25.01C6.28705 26.5831 6.53045 28.0155 7.01737 29.3077Z" fill="#010202"/>
        <path d="M41.68 0.740234V15.0661C42.9908 13.7552 44.5078 12.716 46.2306 11.9481C47.9534 11.1803 49.8261 10.7964 51.8485 10.7964C53.946 10.7964 55.9121 11.1896 57.7474 11.9761C59.5826 12.7626 61.1742 13.83 62.5226 15.1784C63.871 16.5268 64.9384 18.1185 65.7249 19.9537C66.5115 21.789 66.9046 23.7365 66.9046 25.7965C66.9046 27.8563 66.5115 29.7945 65.7249 31.6109C64.9384 33.4275 63.871 35.0099 62.5226 36.3581C61.1742 37.7065 59.5826 38.7739 57.7474 39.5604C55.9121 40.3469 53.9459 40.7401 51.8485 40.7401C49.826 40.7401 47.9441 40.3562 46.2025 39.5884C44.4609 38.8206 42.9346 37.7813 41.6238 36.4704V40.066H36.0059V0.740234H41.68ZM42.326 29.6728C42.8316 30.8714 43.5339 31.9201 44.4328 32.819C45.3317 33.7179 46.3804 34.4295 47.5788 34.9539C48.7774 35.4782 50.0695 35.7404 51.4553 35.7404C52.8037 35.7404 54.077 35.4782 55.2755 34.9539C56.4739 34.4295 57.5132 33.718 58.3935 32.819C59.2736 31.9202 59.9759 30.8714 60.5002 29.6728C61.0245 28.4743 61.2867 27.1823 61.2867 25.7965C61.2867 24.4107 61.0245 23.1091 60.5002 21.8919C59.9759 20.6747 59.2736 19.6167 58.3935 18.7178C57.5133 17.819 56.4741 17.1167 55.2755 16.6111C54.0769 16.1055 52.8036 15.8526 51.4553 15.8526C50.107 15.8526 48.8336 16.1054 47.6352 16.6111C46.4367 17.1168 45.388 17.819 44.489 18.7178C43.5902 19.6167 42.8786 20.6747 42.3542 21.8919C41.8299 23.1091 41.5677 24.4107 41.5677 25.7965C41.5676 27.1823 41.8204 28.4743 42.326 29.6728Z" fill="#010202"/>
        <path d="M70.1063 20.0097C70.8553 18.2119 71.8854 16.6296 73.1961 15.2625C74.5069 13.8955 76.0614 12.8187 77.8591 12.0322C79.6569 11.2457 81.6044 10.8525 83.7018 10.8525C85.7617 10.8525 87.6719 11.2271 89.4322 11.9761C91.1925 12.7251 92.7093 13.7645 93.9827 15.0941C95.2561 16.4236 96.2488 17.9967 96.9602 19.8132C97.6719 21.6297 98.0276 23.6053 98.0276 25.7402V27.5942H74.7131C74.9004 28.7552 75.275 29.832 75.8367 30.8244C76.3986 31.8169 77.1007 32.6783 77.9434 33.4087C78.7861 34.1391 79.7412 34.7103 80.8086 35.1221C81.8761 35.5341 83.0089 35.7402 84.2075 35.7402C87.6158 35.7402 90.3687 34.3356 92.466 31.5266L96.5671 34.5603C95.1439 36.4704 93.3837 37.9686 91.2863 39.0547C89.1888 40.1408 86.8293 40.6839 84.2076 40.6839C82.0727 40.6839 80.0784 40.3092 78.2245 39.5602C76.3705 38.8113 74.7601 37.7625 73.393 36.4141C72.026 35.0657 70.9492 33.4834 70.1627 31.667C69.3762 29.8505 68.9829 27.8748 68.9829 25.74C68.9827 23.7176 69.3573 21.8075 70.1063 20.0097ZM77.9996 17.7905C76.4078 19.1201 75.3498 20.8898 74.8255 23.0995H92.2974C91.8105 20.8898 90.7712 19.1201 89.1794 17.7905C87.5876 16.461 85.7243 15.7962 83.5895 15.7962C81.4547 15.7962 79.5914 16.461 77.9996 17.7905Z" fill="#010202"/>
        <path d="M108.645 18.4367C107.447 19.7476 106.848 21.5266 106.848 23.7738V40.0661H101.173V11.4143H106.791V14.9537C107.503 13.7926 108.43 12.875 109.572 12.2008C110.714 11.5266 112.072 11.1895 113.645 11.1895H115.612V16.4704H113.252C111.379 16.4705 109.844 17.1259 108.645 18.4367Z" fill="#010202"/>
    </g>
    <defs>
        <clipPath id="clip0_41_3180">
            <rect width="115.223" height="40" fill="white" transform="translate(0.388184 0.740234)"/>
        </clipPath>
    </defs>
</svg>
