<svg width="100" height="40" viewBox="0 0 100 40" fill="none" xmlns="http://www.w3.org/2000/svg">
<g clip-path="url(#clip0_115_8638)">
<path d="M39.8023 28.9726C39.8023 28.1558 39.7767 27.5942 39.7512 26.9561C39.9299 26.9561 41.3594 26.9561 41.7933 26.9561C42.7378 26.9561 43.376 27.2879 43.376 28.0792C43.376 28.8705 42.5847 29.2279 42.0997 29.279C42.5847 29.3045 43.5036 29.6108 43.5036 30.5042C43.5036 31.5508 42.6102 31.9592 41.6912 31.9592C41.2573 31.9592 39.9299 31.9592 39.7512 31.9592C39.7767 31.2956 39.8023 30.7595 39.8023 29.9427V28.9726ZM41.3594 27.3645C41.1296 27.3645 41.1041 27.3645 40.9765 27.39C40.9765 27.7474 40.951 28.1558 40.951 28.4111C40.951 28.6663 40.951 28.9216 40.951 29.1513H41.3083C41.7678 29.1513 42.2018 28.845 42.2018 28.2324C42.2018 27.7474 41.9975 27.3645 41.3594 27.3645ZM41.3083 29.5598C41.1807 29.5598 41.0786 29.5598 40.9765 29.5598C40.9765 29.764 40.951 29.9682 40.951 30.2745C40.951 30.7084 40.9765 31.2956 40.9765 31.5508C41.1041 31.5508 41.2318 31.5508 41.4104 31.5508C41.8699 31.5508 42.2783 31.219 42.2783 30.5553C42.2783 29.8916 41.9465 29.5598 41.3083 29.5598Z" fill="#231F20"/>
<path d="M51.2891 28.9726C51.2891 28.1558 51.2636 27.5942 51.238 26.9561C51.723 26.9561 54.0715 26.9561 54.2757 26.9561C54.2502 27.0326 54.2502 27.4666 54.2757 27.5942C53.6886 27.5432 52.693 27.5432 52.4633 27.5432C52.4378 28.0792 52.4633 28.5642 52.4633 29.0748C53.1525 29.0748 53.663 29.0492 54.2502 29.0237C54.2246 29.2024 54.2246 29.4832 54.2502 29.6619C53.663 29.6363 53.0504 29.5853 52.4633 29.5853C52.4633 29.8916 52.4633 30.1979 52.4633 30.5298C52.4633 30.8361 52.4633 31.0913 52.4888 31.3721C53.0759 31.3721 53.6886 31.3977 54.2757 31.3466C54.2502 31.4487 54.2502 31.9082 54.2757 32.0103C53.9949 32.0103 51.4167 32.0103 51.238 32.0103C51.2891 31.3466 51.2891 30.8106 51.2891 29.9937V28.9726Z" fill="#231F20"/>
<path d="M66.3754 31.9848C66.1201 31.9848 65.2267 31.9848 65.0225 31.9848C64.8438 31.4998 64.6651 30.9892 64.4609 30.5042C64.1291 30.5042 62.9293 30.5042 62.6485 30.5042C62.4188 30.9892 62.2656 31.4998 62.087 32.0103C61.9848 32.0103 61.4998 32.0103 61.3467 32.0103C61.7041 31.1935 62.8783 28.5897 63.593 26.9561C63.6951 26.9561 64.078 26.9561 64.1801 26.9561C64.8438 28.5642 65.7628 30.8106 66.3754 31.9848ZM64.2822 30.0703C64.0525 29.4832 63.8483 28.8961 63.593 28.3345C63.3122 28.9216 63.0825 29.4832 62.8527 30.0703H64.2822Z" fill="#231F20"/>
<path d="M72.5781 30.1724C72.5781 29.3811 72.6036 28.9726 72.6036 28.4621C72.6036 27.6708 72.5781 27.2113 72.5781 26.9561C72.8079 26.9561 73.0121 26.9816 73.2163 26.9816C73.4205 26.9816 73.6502 26.9816 73.8544 26.9561C73.7523 27.9005 73.7523 28.6663 73.7523 29.5087C73.7523 31.2956 74.3139 31.5763 75.3095 31.5763C76.5603 31.5763 76.6624 30.3 76.6624 28.9471C76.6624 28.2834 76.6368 27.6197 76.5858 26.9561C76.7134 26.9816 76.8666 26.9816 76.9942 26.9816C77.1474 26.9816 77.275 26.9816 77.3771 26.9561C77.326 27.39 77.275 28.4366 77.275 29.7129C77.275 31.3977 76.4837 32.0869 74.9521 32.0869C73.6247 32.0869 72.5781 31.5508 72.5781 30.1724Z" fill="#231F20"/>
<path d="M85.5201 28.1304C85.5201 27.8751 85.5456 27.6199 85.5201 27.5178C85.2393 27.5178 84.5501 27.5178 84.0906 27.5688C84.1161 27.4667 84.1161 27.0583 84.0906 26.9307C84.8053 26.9307 87.4345 26.9307 88.1238 26.9307C88.0982 27.0583 88.0982 27.4667 88.1238 27.5688C87.7153 27.5433 87.0006 27.5433 86.7198 27.5433C86.7198 27.6454 86.7198 27.8751 86.7198 28.1304V29.9428C86.7198 30.7596 86.7453 31.2957 86.7709 31.9594C86.5922 31.9594 85.6477 31.9594 85.4945 31.9594C85.5456 31.2957 85.5456 30.7596 85.5456 29.9428C85.5201 29.9683 85.5201 28.1304 85.5201 28.1304Z" fill="#231F20"/>
<path d="M97.5176 29.1513C97.9516 28.5897 98.36 27.6708 98.6918 26.9561C98.8195 26.9561 99.3045 26.9561 99.4576 26.9561C99.1003 27.5176 98.309 28.8961 97.7984 29.815C97.7984 30.0448 97.7984 30.2234 97.7984 30.4787C97.7984 30.9637 97.7984 31.4742 97.875 32.0103C97.6453 32.0103 96.7774 32.0103 96.5476 32.0103C96.5732 31.5508 96.6497 31.0658 96.6497 30.6063C96.6497 30.3766 96.6497 30.1469 96.6242 29.9427C96.0626 28.9726 95.1692 27.39 94.9395 26.9816C95.1947 26.9816 96.1137 26.9816 96.3434 26.9816C96.7008 27.6708 97.2879 28.8195 97.5176 29.1513Z" fill="#231F20"/>
<path d="M19.9936 2.91004C19.866 5.64138 19.866 9.11298 19.866 12.2017C19.866 17.9451 19.9426 19.2215 21.0147 20.651C22.0868 22.0549 24.1034 22.8462 26.6816 22.8462C29.6937 22.8462 32.0676 21.3402 32.8845 19.1449C33.1908 18.3536 33.3695 17.2559 33.3695 14.2949C33.3695 9.59798 33.3184 4.90111 33.0376 0.204237C33.5482 0.280817 35.8966 0.280817 36.4582 0.204237L36.3306 1.91451C36.1519 5.02874 36.0498 12.4314 35.9732 16.0817C35.8966 20.3446 34.6458 22.2846 32.1953 23.7907C30.4339 24.8628 27.9579 25.3478 25.9413 25.3478C21.4997 25.3223 16.1391 23.9694 15.3478 18.3791C15.2712 17.8686 15.2712 16.7965 15.2712 16.4901V6.66244C15.2712 4.82453 15.1946 2.01662 15.0925 0.178711C15.9604 0.280817 19.3555 0.280817 20.0957 0.178711L19.9936 2.91004Z" fill="#231F20"/>
<path d="M42.0485 10.0829C42.0485 8.50029 42.0485 8.14292 41.9464 4.95211C41.8953 4.18631 41.8443 0.94445 41.7932 0.280762C42.7377 0.459447 46.0306 0.433921 46.9496 0.280762C46.6943 5.69238 46.5667 10.2361 46.5667 15.7498C46.5667 18.2514 46.6432 20.5998 46.6943 22.5654H47.358C48.4301 22.5654 53.7907 22.5654 55.9859 22.2335C55.8583 22.6164 55.8328 24.4288 55.9859 24.8883C54.097 24.8372 50.9062 24.6841 48.8896 24.6841C46.4901 24.6841 44.499 24.7607 41.7932 24.8883C41.7932 24.3267 42.0485 16.0051 42.0485 15.0861V10.0829Z" fill="#231F20"/>
<path d="M66.3754 19.9872C66.3754 22.7186 66.5285 23.8928 66.6306 24.8883C65.5585 24.7862 62.7251 24.7607 61.3722 24.8883C61.5253 22.157 61.7295 19.4001 61.7295 16.6688L61.704 6.66241C61.704 5.33504 61.6785 4.08424 61.6019 2.68028H59.764C59.4321 2.68028 55.884 2.75686 53.9695 2.93555C54.0971 2.52712 54.1737 0.51053 54.0461 0.0765795C56.9816 0.255265 61.0403 0.255265 63.8993 0.255265C66.988 0.255265 70.3064 0.204212 73.8291 0C73.727 0.638162 73.6759 2.37396 73.8036 2.93555C71.6083 2.73133 68.9535 2.68028 66.4009 2.68028C66.3754 3.98213 66.3498 5.33504 66.3498 6.68794V19.9872H66.3754Z" fill="#231F20"/>
<path d="M88.3025 20.9827L86.7454 17.1792C85.1627 17.1282 79.0364 17.1282 77.5814 17.1792C76.3816 19.9361 75.2074 22.8971 74.6203 24.9393C74.1353 24.8882 71.6847 24.8882 71.1487 24.9393L75.4627 15.7242C79.215 7.65783 81.3593 2.98649 82.2272 0.204102H84.6522C86.439 4.95203 88.6343 9.98074 89.9872 12.9929C91.3912 16.1071 93.8417 21.4932 95.5009 24.9648C94.9649 24.9393 90.5488 24.9393 89.8851 24.9648L88.3025 20.9827ZM82.1761 6.15177L78.3982 14.9584C79.7001 15.0095 80.9509 15.0605 82.2527 15.0605C82.993 15.0605 84.1161 15.0605 85.6732 14.9584L82.1761 6.15177Z" fill="#231F20"/>
<path d="M9.73202 1.27637C3.9375 5.23297 0.54248 10.1341 0.54248 16.1838C0.54248 29.866 17.0581 40 40.6446 40C51.2126 40 60.0447 37.2687 66.554 33.8992H66.1455C58.2834 36.2732 50.2936 37.2687 42.0741 37.2687C18.411 37.2432 2.0996 26.1136 2.07407 15.852C2.07407 10.1341 4.7033 5.23297 9.73202 1.63374V1.27637Z" fill="#231F20"/>
<path d="M92.5654 0.15332C93.3567 0.15332 94.0459 0.791482 94.0459 1.63386C94.0459 2.47623 93.3822 3.11439 92.5654 3.11439C91.7741 3.11439 91.0593 2.47623 91.0593 1.63386C91.0593 0.791482 91.7741 0.15332 92.5654 0.15332ZM92.5654 2.91018C93.2546 2.91018 93.7907 2.37412 93.7907 1.63386C93.7907 0.919115 93.2546 0.383059 92.5654 0.383059C91.8506 0.383059 91.3401 0.919115 91.3401 1.63386C91.3656 2.3486 91.8762 2.91018 92.5654 2.91018ZM91.9783 0.765956H92.642C93.0504 0.765956 93.2546 0.944641 93.2546 1.27649C93.2546 1.5828 93.0504 1.71044 92.7951 1.73596L93.3057 2.50176H92.9993L92.5399 1.73596H92.2335V2.50176H91.9783V0.765956ZM92.2335 1.53175H92.5143C92.7441 1.53175 92.9738 1.50622 92.9738 1.25096C92.9738 0.995694 92.7441 0.970168 92.5654 0.970168H92.2335V1.53175Z" fill="#231F20"/>
</g>
<defs>
<clipPath id="clip0_115_8638">
<rect width="98.9151" height="40" fill="white" transform="translate(0.54248)"/>
</clipPath>
</defs>
</svg>
