<svg width="160" height="32" viewBox="0 0 160 32" fill="none" xmlns="http://www.w3.org/2000/svg">
    <g clip-path="url(#clip0_41_3186)">
        <path d="M45.097 20.1815C45.097 28.6984 37.8166 31.4484 22.6284 31.4484C7.37485 31.4484 0.146729 28.6984 0.146729 20.1815V1.38965H13.8057V18.2156C13.8057 22.0675 15.6487 25.3261 22.6284 25.3261C29.6082 25.3261 31.4381 22.0675 31.4381 18.2156V1.38965H45.097V20.1815Z" fill="#0057A6"/>
        <path d="M48.4038 1.38965H69.9315L80.8062 20.8102H80.95L92.3347 1.38965H113.052V29.9766H99.6804L99.9027 8.16682H99.7588L86.6751 29.9766H74.114L61.6314 8.16682H61.4746L61.7753 29.9766H48.4038V1.38965Z" fill="#0057A6"/>
        <path d="M159.845 29.93C155.95 30.4789 151.611 31.1076 144.644 31.1076C130.972 31.1076 115.182 27.1733 115.182 16.1207C115.182 5.95164 127.665 0.886719 144.565 0.886719C149.781 0.886719 154.852 1.55596 159.767 2.3938L158.669 8.71482C154.264 7.33063 150.003 6.66137 145.297 6.66137C135.599 6.66137 129.286 10.6741 129.286 16.1207C129.286 21.8548 136.409 25.3264 146.408 25.3264C150.879 25.3264 155.427 24.665 159.178 23.822L159.845 29.93Z" fill="#0057A6"/>
    </g>
    <defs>
        <clipPath id="clip0_41_3186">
            <rect width="160" height="30.7298" fill="white" transform="translate(0 0.740234)"/>
        </clipPath>
    </defs>
</svg>
