<svg width="33" height="36" viewBox="0 0 33 36" fill="none" xmlns="http://www.w3.org/2000/svg">
    <g clip-path="url(#clip0_222:42)">
        <path d="M1.15199 35.7029C0.466224 35.278 0 34.2032 0 33.047C0 31.1376 0.552249 29.6633 1.2675 29.6633C1.46154 29.6633 1.50166 30.1248 1.48183 32.1294C1.46004 34.3335 1.49214 34.634 1.78409 34.9586C2.21586 35.4385 3.13167 35.4427 3.57516 34.9667C3.75703 34.7715 4.00139 34.2706 4.11817 33.8534C4.31659 33.1448 4.30032 32.6933 4.00389 30.6825C3.90495 30.0113 4.21651 29.5917 4.73907 29.6924C5.16662 29.7746 5.36216 30.7276 5.27996 32.3281C5.19552 33.9726 4.68766 35.1867 3.87742 35.6808C3.1949 36.0969 1.80612 36.1081 1.15199 35.7029ZM5.55896 35.7767C5.51022 35.6497 5.65019 34.898 5.86999 34.1061C6.15347 33.085 6.35521 32.65 6.5641 32.6098C6.72607 32.5786 6.85858 32.6308 6.85858 32.726C6.85858 32.8211 6.93622 33.103 7.03113 33.3527L7.20369 33.8066L7.90053 32.9249C8.79888 31.7884 9.06588 31.8406 9.54818 33.2467C9.75434 33.8478 10.0072 34.4238 10.1102 34.5267C10.4455 34.862 10.8575 34.3992 11.0722 33.4457C11.2556 32.6314 11.5097 32.2456 11.8679 32.238C12.152 32.2318 12.3579 32.9795 12.2585 33.6564C12.1295 34.5344 12.4274 35.0217 13.0932 35.0217C13.3483 35.0217 13.704 34.8886 13.8836 34.726C14.1524 34.4828 14.1786 34.3501 14.0317 33.9759C13.7471 33.2508 13.8062 31.0434 14.1309 30.2698C14.6964 28.9224 15.3101 28.6363 15.9337 29.4293C16.4134 30.039 16.4127 31.7815 15.9324 33.0926C15.3576 34.6621 15.3564 34.671 15.6951 34.9187C15.8692 35.046 16.1899 35.1503 16.4076 35.1503C16.7655 35.1503 16.8036 35.0721 16.8042 34.3358C16.8049 33.3973 17.2706 32.4991 17.9067 32.2093C18.4815 31.9474 18.8323 32.1245 19.1249 32.8248C19.4247 33.5424 19.2639 34.0861 18.5966 34.611C18.2285 34.9004 18.1881 34.9944 18.3969 35.0745C18.9135 35.2728 19.6766 34.6715 20.1334 33.7061C20.3767 33.1917 20.5757 32.6985 20.5757 32.6098C20.5757 32.5213 20.6813 32.3613 20.8102 32.2541C21.1408 31.9798 21.3126 32.2487 21.7571 33.7356C22.1453 35.0339 22.4542 35.2909 22.8152 34.6162C22.933 34.3963 22.9643 33.9533 22.8948 33.4902C22.7625 32.6085 23.1083 31.8924 23.6661 31.8924C24.204 31.8924 24.1317 33.2978 23.5335 34.4677C22.6295 36.2357 21.5402 36.4913 20.9949 35.0636L20.6997 34.2904L19.8857 35.0518C18.9662 35.9119 18.0684 36.1918 17.3915 35.8295C17.07 35.6576 16.8803 35.6527 16.5397 35.8079C15.9103 36.0946 15.5399 36.0562 15.024 35.6504L14.5699 35.2933L13.8322 35.6504C12.6684 36.2138 12.1226 36.0707 11.5075 35.041C11.3369 34.7554 11.2992 34.7505 11.152 34.9942C11.0615 35.1441 10.8348 35.4528 10.6484 35.68C10.202 36.2242 9.84822 36.0173 9.20533 34.8362C8.94001 34.3488 8.61985 33.95 8.4939 33.95C8.36793 33.95 7.75403 34.413 7.12964 34.9788C5.95429 36.0439 5.70928 36.1683 5.55896 35.7767ZM18.1673 34.2166C18.4131 33.9204 18.3436 33.2325 18.0582 33.1386C17.7761 33.0457 17.4479 33.7206 17.5772 34.1279C17.7039 34.5275 17.8867 34.555 18.1673 34.2166ZM15.4107 32.5053C15.6239 31.6585 15.6581 30.8631 15.4992 30.4489C15.1066 29.4261 14.5179 31.7958 14.8535 33.0479C14.9972 33.5838 15.1852 33.4008 15.4107 32.5053ZM24.7997 35.6521C23.8922 34.9383 24.3719 32.5794 25.4812 32.3011C27.1133 31.8914 27.6886 33.8501 26.1514 34.5832C25.4068 34.9383 25.3799 35.1503 26.0796 35.1503C26.7705 35.1503 27.4512 34.4297 27.8816 33.2424C28.2038 32.3533 28.5676 31.998 28.7074 32.4354C28.7476 32.5611 28.8295 33.0304 28.8894 33.4784C28.9495 33.9264 29.0572 34.2929 29.1289 34.2929C29.2006 34.2929 29.4332 33.9081 29.6457 33.4378C30.2721 32.052 31.3376 31.4303 32.1614 31.97C32.6537 32.2927 32.6735 32.8585 32.2024 33.1537C31.9802 33.2929 31.8276 33.2587 31.5494 33.007C31.018 32.526 30.7188 32.7902 29.8925 34.4703C29.0352 36.2137 28.6865 36.3541 28.2917 35.1148L28.0345 34.3079L27.6386 34.9135C26.9623 35.9482 25.6201 36.2974 24.7997 35.6521ZM25.7309 34.1153C25.9249 34.0117 26.0626 33.7575 26.0626 33.5033C26.0626 33.1508 25.9898 33.0791 25.6768 33.1236C25.3812 33.1655 25.2785 33.3085 25.2373 33.7356C25.1788 34.3418 25.2317 34.3826 25.7309 34.1153ZM11.3865 30.2613C11.2452 29.6981 11.594 29.2889 12.1593 29.3547C13.0102 29.4535 12.7692 30.6922 11.8991 30.6922C11.6101 30.6922 11.4638 30.569 11.3865 30.2613ZM13.0116 26.5118C12.6707 26.39 12.1692 26.1328 11.8971 25.9402C11.625 25.7476 11.07 25.5345 10.6638 25.4667C10.2575 25.3987 9.71739 25.1603 9.46351 24.9368L9.00189 24.5303L9.52099 24.5248C10.2205 24.5176 10.8023 24.0826 10.8023 23.5666C10.8023 23.3362 10.866 23.1477 10.9438 23.1477C11.1309 23.1477 11.7371 23.82 11.9871 24.305C12.226 24.7683 13.1527 24.8494 13.317 24.4212C13.3739 24.2731 13.824 23.9733 14.3173 23.7551C14.9639 23.4691 15.2801 23.2093 15.4506 22.8244C15.7307 22.1917 15.7658 22.1849 16.3557 22.6489C16.728 22.9418 16.9992 22.9967 17.8386 22.9489C18.8205 22.8931 18.877 22.9121 19.1206 23.3816C19.4331 23.9838 19.4337 24.0051 19.1369 24.0051C19.0057 24.0051 18.8453 24.2172 18.7806 24.4765C18.4441 25.825 17.1459 25.8732 16.4746 24.5622C16.2173 24.0597 16.1025 24.0733 15.1924 24.7149C14.6494 25.0976 14.1666 25.2783 13.5215 25.3403C12.7816 25.4114 12.6863 25.4542 13.005 25.5721C13.5174 25.7616 14.6745 25.494 15.2807 25.0459C15.9045 24.5847 15.9823 24.5949 16.4287 25.1987C16.8021 25.7039 18.0037 26.1889 18.3506 25.9744C18.6368 25.7976 18.902 26.0639 18.6918 26.3172C18.3691 26.706 17.34 26.8024 16.8611 26.4887C16.4687 26.2315 16.3763 26.2306 15.7573 26.4781C14.9488 26.8017 13.8601 26.8151 13.0116 26.5118ZM17.888 24.2352C18.0431 24.0801 17.6587 23.6431 17.4699 23.7599C17.2335 23.9059 17.2911 24.348 17.5465 24.348C17.6723 24.348 17.8259 24.2971 17.888 24.2352ZM19.4577 25.6059C19.1321 25.2804 19.2128 24.5362 19.6451 23.8764C19.8785 23.5201 19.9971 23.4857 20.6521 23.5839C21.2141 23.6681 21.5924 23.6076 22.2094 23.3348C22.8277 23.0612 23.0806 23.0208 23.2576 23.1677C23.8817 23.6857 23.1217 24.9997 21.8689 25.5688C20.9884 25.9687 19.8382 25.9864 19.4577 25.6059ZM21.9093 24.7668C22.4893 24.3606 22.3927 24.062 21.707 24.142C21.2534 24.1949 21.1062 24.3017 21.0449 24.622C20.9508 25.114 21.3242 25.1767 21.9093 24.7668ZM7.54452 23.9839C6.16637 23.4343 5.38884 21.6245 6.09672 20.6139C6.48636 20.0576 6.68677 20.146 6.68964 20.8758C6.69446 22.101 7.52615 23.0105 8.64171 23.0105C9.45124 23.0105 9.77347 22.729 9.77347 22.0218C9.77347 21.1285 9.09242 20.4915 8.20577 20.5554C7.44173 20.6106 7.87105 21.9475 8.65279 21.9475C9.27481 21.9475 9.32852 21.6613 8.72901 21.5414C8.34961 21.4655 8.22047 21.3535 8.26223 21.1366C8.40689 20.3855 9.60201 21.0084 9.60201 21.8352C9.60201 22.2942 9.11642 22.8047 8.6798 22.8047C8.23301 22.8047 7.40545 22.3285 7.2066 21.957C6.92166 21.4246 7.00075 20.605 7.37297 20.2329C7.79747 19.8084 8.84847 19.7758 9.41095 20.1698C9.88357 20.5008 10.4502 21.6701 10.4556 22.3252C10.4672 23.762 9.03492 24.5782 7.54452 23.9839ZM11.8692 23.3951C11.2834 22.9848 11.3835 22.6333 12.0861 22.6333C12.5997 22.6333 12.7467 22.5341 13.1281 21.9299C13.5143 21.318 13.6381 21.2363 14.0792 21.3009C14.4706 21.3584 14.5761 21.3134 14.5418 21.1042C14.5174 20.955 14.5534 20.7438 14.6218 20.6348C14.8226 20.3148 15.566 20.7612 15.6612 21.259C15.767 21.8125 15.644 21.998 15.241 21.8928C15.0047 21.8308 14.9174 21.8992 14.9174 22.1462C14.9174 23.3425 12.9468 24.15 11.8692 23.3951ZM24.0394 23.2849C23.7925 23.038 23.7675 22.6333 23.999 22.6333C24.2807 22.6333 25.3319 21.6229 25.4265 21.2613C25.5672 20.7232 25.2697 20.8597 24.861 21.5209C24.2254 22.5494 23.6192 22.7069 22.8573 22.0419L22.3762 21.622L23.2845 20.8212C24.4148 19.8248 24.3318 19.5939 23.1895 20.5572C22.2212 21.3736 21.6045 21.4861 21.6045 20.8462C21.6045 20.5281 21.7374 20.3869 22.1724 20.2434C22.4849 20.1403 23.0406 19.7486 23.4075 19.3728C23.924 18.8438 24.2048 18.6896 24.6512 18.6896C26.7991 18.6896 27.1077 20.9023 25.2226 22.7874C24.4606 23.5496 24.3503 23.5958 24.0394 23.2849ZM25.81 19.8824C25.9649 19.6317 25.5704 19.204 25.1843 19.204C24.8204 19.204 24.7592 19.5467 25.0681 19.8556C25.3214 20.1089 25.6624 20.1213 25.81 19.8824ZM20.5328 23.134C20.1269 22.8974 20.1537 22.3448 20.5824 22.1154C20.7744 22.0126 21.2567 21.9519 21.654 21.9807C22.2716 22.0257 22.3847 22.0938 22.4352 22.4522C22.4716 22.7098 22.3764 22.9576 22.1881 23.0953C21.8259 23.3601 20.9562 23.3806 20.5328 23.134ZM17.0785 22.0732C16.1944 21.5663 15.7748 20.7485 15.7748 19.5324C15.7748 18.7423 15.8638 18.4465 16.2717 17.8836C16.9572 16.9373 18.3819 16.3931 19.2757 16.7361C19.6608 16.8839 19.6115 17.1315 19.1612 17.3125C18.847 17.4388 18.8333 17.4696 19.0879 17.4786C19.2904 17.4855 19.3805 17.5952 19.3438 17.7895C19.3044 17.9971 19.0951 18.1056 18.6638 18.1416C18.1462 18.1849 18.0552 18.2491 18.1264 18.5214C18.1935 18.778 18.0589 18.9104 17.5062 19.1316C16.716 19.4478 16.4632 19.9832 16.7783 20.6745C17.2964 21.8117 19.7244 22.2345 19.4376 21.1376C19.3558 20.8247 19.277 20.7932 18.9184 20.9294C18.2396 21.1876 17.6875 21.1169 17.2918 20.7212C16.9541 20.3833 16.9468 20.3345 17.2061 20.1449C17.3619 20.031 17.4894 19.8498 17.4894 19.7424C17.4894 19.4776 17.5634 19.4926 18.214 19.8893C18.8329 20.2667 20.0831 20.3465 20.844 20.0572C21.2947 19.8858 21.3035 19.8946 21.1995 20.4144C21.0581 21.1218 20.4925 21.893 19.8848 22.2072C19.1506 22.587 17.8678 22.5256 17.0785 22.0732ZM11.0383 21.8732C10.8381 21.7315 10.5865 21.2671 10.4793 20.8413C10.2756 20.0323 9.89005 19.6622 9.0309 19.4508C8.04845 19.209 8.30137 18.526 9.37524 18.5208C9.97608 18.5178 10.5547 19.0892 10.7466 19.8749C10.8723 20.3892 11.0892 20.5694 11.5868 20.5731C12.0478 20.5765 12.7367 21.3116 12.6596 21.7178C12.5815 22.1298 11.5416 22.2294 11.0383 21.8732ZM12.0025 21.3657C12.0025 21.1071 11.5046 20.845 11.3352 21.0144C11.2782 21.0715 11.3811 21.2276 11.564 21.3614C11.9753 21.6621 12.0025 21.6624 12.0025 21.3657ZM4.63893 20.4705C3.5209 19.4259 3.38088 17.9824 4.26309 16.596C4.46049 16.2857 4.75292 15.7828 4.91293 15.4784C5.18904 14.9531 5.18787 14.9072 4.89013 14.5783C4.41229 14.0502 4.23019 14.1528 4.34712 14.884C4.52749 16.0121 3.62002 16.8132 3.25358 15.8494C3.06736 15.3595 3.0566 13.3458 3.23677 12.7011C3.42654 12.022 3.77222 12.0599 3.77222 12.7598C3.77222 13.608 4.05893 13.5323 4.20519 12.6455C4.32971 11.8906 4.55005 11.4881 4.83883 11.4881C4.94045 11.4881 4.96675 11.9088 4.90579 12.5598C4.80076 13.6816 4.81592 13.6699 5.3513 12.2168C5.53954 11.7059 5.78886 11.3167 5.92785 11.3167C6.23989 11.3167 6.23691 11.606 5.91552 12.5169C5.50508 13.6802 5.63829 13.8877 6.14072 12.8676C6.39409 12.3533 6.67853 11.9675 6.77284 12.0103C7.12051 12.1683 6.84592 13.2548 5.9962 15.0834C5.28877 16.6056 5.15828 17.0243 5.30544 17.2993C5.40521 17.4858 5.48686 17.6819 5.48686 17.7353C5.48686 17.9054 4.82558 17.8393 4.71354 17.658C4.545 17.3853 4.28661 17.6394 4.28661 18.0779C4.28661 18.3015 4.58595 18.8024 4.97246 19.2252C5.64892 19.9652 5.7973 20.4337 5.50259 20.8992C5.38433 21.0858 5.19925 20.9939 4.63893 20.4705ZM11.6842 20.1414C11.1071 19.6559 10.7204 18.7032 10.8871 18.178C11.0249 17.7437 11.1821 17.7424 11.5708 18.1719C11.9365 18.576 12.8004 18.7675 13.5323 18.6068C14.1711 18.4666 14.2113 18.1107 13.6314 17.7309C13.1452 17.4122 13.0873 17.0217 13.4545 16.5362C13.6807 16.2372 13.7068 16.2336 13.7117 16.5012C13.7147 16.6651 14.0287 16.9959 14.4095 17.2364C15.3304 17.8176 15.5478 18.312 15.2783 19.2118C15.0047 20.1253 14.283 20.5743 13.0873 20.5752C12.3877 20.5756 12.0913 20.484 11.6842 20.1414ZM14.4791 19.5088C14.8896 18.9228 14.8343 18.631 14.3601 18.8807C13.9255 19.1097 13.7236 19.3602 13.7198 19.6756C13.7155 20.0245 14.191 19.9201 14.4791 19.5088ZM18.6653 19.7732C18.5368 19.0342 18.5773 18.5181 18.7636 18.5181C19.0992 18.5181 19.5837 19.1437 19.5173 19.4913C19.4586 19.7997 18.7127 20.0464 18.6653 19.7732ZM6.42135 19.5615C6.33175 19.4751 6.06555 19.3787 5.8298 19.3471C5.33375 19.2807 5.15553 18.6602 5.50987 18.2333C5.63131 18.087 5.81278 17.8024 5.91313 17.6013C6.13017 17.166 6.59442 17.0446 7.09544 17.2921C7.29524 17.3909 7.61302 17.4957 7.80163 17.5251C8.22943 17.5919 8.35177 18.2678 8.00716 18.661C7.86927 18.8182 7.70355 19.1205 7.6389 19.3326C7.5544 19.6099 7.38953 19.7184 7.05277 19.7184C6.79509 19.7184 6.51093 19.6478 6.42135 19.5615ZM7.03004 18.4224C7.03004 18.2864 6.9143 18.1752 6.77284 18.1752C6.51458 18.1752 6.42037 18.5371 6.6253 18.7422C6.78531 18.9022 7.03004 18.7088 7.03004 18.4224ZM20.0563 19.4059C19.7096 19.1251 19.6844 19.0076 19.8086 18.2485C19.8845 17.7839 19.9282 17.2627 19.9054 17.0906C19.869 16.8162 19.913 16.8029 20.2627 16.9834C20.482 17.0967 20.8351 17.3474 21.0473 17.5406C21.5359 17.9859 21.5755 19.022 21.1195 19.4347C20.7194 19.7967 20.5327 19.7916 20.0563 19.4059ZM20.7472 18.0896C20.7472 17.948 20.67 17.8322 20.5757 17.8322C20.4814 17.8322 20.4042 17.948 20.4042 18.0896C20.4042 18.231 20.4814 18.3468 20.5757 18.3468C20.67 18.3468 20.7472 18.231 20.7472 18.0896ZM21.782 19.3867C21.6672 19.1724 21.6613 18.9055 21.765 18.6327C21.8533 18.4005 21.8791 18.164 21.8222 18.1071C21.7653 18.0503 21.886 18.0037 22.0903 18.0037C22.477 18.0037 23.1477 18.5547 23.1477 18.8724C23.1477 19.6442 22.1257 20.0291 21.782 19.3867ZM26.8737 19.2175C26.8263 19.0362 26.4702 18.726 26.0821 18.5282C25.5675 18.2655 25.3767 18.0626 25.3767 17.7774C25.3767 17.2817 25.6805 16.975 26.1713 16.975C26.4616 16.975 26.5673 16.861 26.6085 16.5034C26.6508 16.1362 26.7646 16.0201 27.1236 15.9787C28.1514 15.86 28.4725 17.8153 27.6214 19.0106C27.1809 19.6292 26.995 19.6806 26.8737 19.2175ZM12.4025 18.1585C11.7342 17.965 10.9737 17.0954 10.9737 16.5247C10.9737 16.2914 11.0916 15.8727 11.2357 15.5939C11.4839 15.1141 11.5187 15.101 11.8924 15.3459C12.594 15.8056 12.5278 15.4024 11.8173 14.8877C10.7938 14.1463 10.7851 13.9416 11.7419 13.1115C12.3842 12.5544 12.548 12.3114 12.4735 12.0266C12.349 11.5504 12.536 11.561 13.0014 12.0564C13.4689 12.5541 13.4711 12.9198 13.011 13.6643L12.6478 14.252L13.011 14.6386C13.4678 15.1249 13.4676 15.4737 13.0097 16.4195C12.714 17.0302 12.681 17.2511 12.8346 17.5882C12.9387 17.8167 13.1459 18.0037 13.2949 18.0037C13.444 18.0037 13.5182 18.0809 13.46 18.1752C13.336 18.3758 13.1423 18.3727 12.4025 18.1585ZM24.0719 18.0478C23.9033 17.7805 23.8506 17.7759 23.5724 18.0049C23.2815 18.2444 23.2685 18.2275 23.3719 17.7466C23.4327 17.4636 23.5238 17.0778 23.5745 16.8892C23.6251 16.7007 23.5943 16.4356 23.506 16.3001C23.2711 15.9404 22.8056 16.3724 22.8021 16.9531C22.8007 17.2009 22.7277 17.5172 22.64 17.656C22.5029 17.8726 22.4644 17.8669 22.3682 17.6162C22.2778 17.3808 22.1885 17.3604 21.9072 17.511C21.5886 17.6815 21.5679 17.6587 21.6703 17.2506C21.7544 16.9158 21.7171 16.8035 21.5221 16.8035C21.0732 16.8035 21.2384 16.5082 21.7437 16.4071C22.009 16.3539 22.4045 16.166 22.6228 15.9892C23.1489 15.5632 22.9848 15.0574 22.153 14.5401C21.578 14.1826 21.5548 14.1407 21.9046 14.091C22.1525 14.0558 22.2903 13.9179 22.2903 13.7052C22.2903 13.3362 22.5613 13.2557 22.6833 13.5886C22.7462 13.76 22.8073 13.76 22.989 13.5886C23.4017 13.1993 23.5038 13.3637 23.3888 14.2315C23.2926 14.956 23.3182 15.0889 23.5542 15.0889C23.7721 15.0889 23.8336 14.9144 23.8336 14.2963C23.8336 13.6228 23.871 13.5348 24.0826 13.7103C24.2231 13.827 24.4917 13.8661 24.6996 13.8001C25.0148 13.7001 25.0512 13.735 24.9535 14.0432C24.8707 14.3042 24.913 14.403 25.108 14.403C25.2559 14.403 25.3767 14.4802 25.3767 14.5745C25.3767 14.6688 25.2647 14.7459 25.1276 14.7459C24.7732 14.7459 24.0051 15.1167 24.0051 15.2879C24.0051 15.4813 25.0559 15.4669 25.3686 15.269C25.7232 15.0447 25.9487 15.2417 25.6916 15.5513C25.5145 15.7648 25.5285 15.8507 25.7689 16.0265C26.1386 16.2968 26.1518 16.5315 25.7895 16.3925C25.6074 16.3225 25.4866 16.4022 25.4267 16.6313C25.3336 16.9868 25.0338 17.1122 25.0338 16.7957C25.0338 16.51 24.191 15.7455 24.0036 15.8613C23.7015 16.0481 23.8203 16.3165 24.4672 16.9091C24.9156 17.3197 25.0158 17.4894 24.8102 17.4894C24.6144 17.4894 24.5195 17.6293 24.5195 17.9181C24.5195 18.4185 24.3387 18.4709 24.0719 18.0478ZM8.95902 17.8903C8.70556 17.7879 8.66674 16.8035 8.91615 16.8035C9.01046 16.8035 9.08761 16.8807 9.08761 16.975C9.08761 17.0693 9.20336 17.1465 9.34481 17.1465C9.75973 17.1465 9.64508 16.6621 8.96525 15.5429C8.61505 14.9665 8.23445 14.1462 8.11951 13.7202C7.95014 13.0925 7.90832 13.0381 7.89893 13.4333C7.89257 13.7016 8.05114 14.4603 8.25133 15.1194C8.53934 16.0677 8.57589 16.404 8.42646 16.7321C8.2239 17.1766 7.74187 17.2752 7.40726 16.9407C7.06962 16.6031 7.15491 16.2513 7.54443 16.3748C7.8323 16.4663 7.88695 16.4061 7.88476 16.0006C7.88332 15.7349 7.77612 15.1703 7.64649 14.7459C7.4342 14.0509 7.40068 14.0169 7.30852 14.403C7.25226 14.6388 7.18586 15.1705 7.16099 15.5847C7.12501 16.1837 7.03799 16.3662 6.73489 16.4775C6.46893 16.5751 6.2726 16.536 6.08425 16.3476C5.74907 16.0124 5.84777 15.6701 6.25798 15.745C6.68789 15.8236 6.8529 15.481 6.85596 14.5038C6.85891 13.5562 7.42673 12.4029 8.11107 11.9545L8.52031 11.6863L8.44213 12.5001C8.35662 13.3899 8.64481 14.1105 9.69928 15.6434C10.4553 16.7424 10.5439 17.0775 10.2124 17.5836C9.9516 17.9816 9.47462 18.0982 8.95902 17.8903ZM19.5561 16.3858C19.4073 16.2065 19.4016 16.0464 19.535 15.7969C19.8469 15.2142 19.7418 15.2042 19.1123 15.7569C18.779 16.0497 18.3391 16.2891 18.1349 16.2891C17.8462 16.2891 17.8095 16.2433 17.9695 16.0834C18.0827 15.9702 18.1752 15.5458 18.1752 15.1403C18.1752 14.5333 18.2321 14.403 18.4972 14.403C18.6742 14.403 18.9144 14.5179 19.031 14.6583C19.247 14.9185 19.547 14.8607 19.547 14.5585C19.547 14.4667 19.2748 14.2309 18.9423 14.0348C18.123 13.5513 17.9346 13.1603 18.1729 12.4382L18.3632 11.8619L19.0407 12.3056C19.6344 12.6943 19.7184 12.8305 19.7184 13.4047C19.7184 13.7652 19.7955 14.0601 19.8899 14.0601C19.9842 14.0601 20.0614 13.8286 20.0614 13.5457C20.0614 12.953 20.3584 12.8844 21.2685 13.2671L21.8292 13.5029L21.4168 13.7424C21.19 13.8742 20.85 14.0659 20.6614 14.1683C20.2022 14.4179 20.2262 14.8186 20.7043 14.8864C20.9638 14.9233 21.0901 14.8532 21.0901 14.6722C21.0901 14.2693 21.3641 14.3445 21.9876 14.9184C22.5312 15.4188 22.5379 15.4413 22.2147 15.69C21.7804 16.0243 20.7217 16.0406 20.8482 15.7111C20.956 15.4302 20.4634 15.1973 20.3047 15.4542C20.2438 15.5526 20.28 15.719 20.3849 15.824C20.4899 15.9288 20.5757 16.1536 20.5757 16.3234C20.5757 16.7044 19.857 16.7485 19.5561 16.3858ZM26.3274 15.4662C26.2655 15.1847 25.9949 14.6074 25.7259 14.1834C25.3286 13.5568 25.073 13.3579 24.3622 13.1218C23.881 12.9619 23.4229 12.7026 23.3441 12.5455C23.1797 12.2172 23.2916 10.8023 23.4821 10.8023C23.6841 10.8023 24.1023 11.3574 24.3242 11.9204C24.4367 12.2053 24.8026 12.6571 25.1376 12.9244C25.4726 13.1917 25.901 13.6531 26.0893 13.9496C26.3876 14.4187 26.4165 14.433 26.3121 14.0601C26.1765 13.5758 26.1007 13.464 25.0714 12.2319C24.2623 11.2633 24.3124 11 25.2194 11.4528C25.7027 11.694 25.8931 11.9666 26.3052 13.0072L26.8049 14.2692L27.0521 13.7974C27.288 13.3471 27.275 13.3067 26.7667 12.9089C26.1001 12.3872 26.0724 11.7931 26.6878 11.2227C27.3668 10.5934 27.4884 10.6853 27.358 11.7288C27.2281 12.7687 27.4321 13.08 27.8512 12.4816C28.5025 11.5519 27.88 10.3288 26.86 10.5341C25.3619 10.8357 24.4344 10.8236 23.8378 10.4946C23.1808 10.1323 22.4618 8.95681 22.4618 8.24492V7.79908L23.8765 7.8623C25.529 7.93614 26.0058 8.13963 26.6272 9.03642C26.8782 9.39861 27.3172 9.83294 27.6028 10.0016C28.1866 10.3465 28.6345 11.0914 28.6345 11.7173C28.6345 11.947 28.326 12.5971 27.9487 13.162C27.165 14.3355 27.0763 14.638 27.6828 14.0683C28.4975 13.303 28.9812 14.192 28.3404 15.2768C28.0001 15.8528 27.7773 15.9182 27.7773 15.442C27.7773 14.8451 27.394 14.835 26.9065 15.4188L26.4397 15.978L26.3274 15.4662ZM25.6339 9.94494C25.6922 9.85064 25.9089 9.77229 26.1156 9.77085C26.3543 9.76918 26.4162 9.72053 26.2855 9.63742C26.1723 9.56546 26.0035 9.31588 25.9105 9.08277C25.7911 8.78353 25.7383 8.74715 25.7305 8.95902C25.7152 9.38009 25.2984 9.3326 24.978 8.87328C24.752 8.54941 24.7074 8.53564 24.6999 8.78756C24.695 8.95258 24.6391 9.08761 24.5758 9.08761C24.5125 9.08761 24.3063 8.95258 24.1177 8.78756C23.9289 8.62252 23.8363 8.59257 23.9118 8.72099C23.9947 8.86229 23.9557 9.01359 23.8127 9.10416C23.6447 9.21059 23.7126 9.25459 24.0479 9.25645C24.5608 9.25932 24.6391 9.41065 24.305 9.7534C24.1828 9.87885 24.3661 9.84354 24.7316 9.67121C25.4219 9.34573 25.7304 9.43314 25.3801 9.85506C25.2449 10.018 25.232 10.1164 25.3456 10.1164C25.446 10.1164 25.5757 10.0392 25.6339 9.94494ZM10.0145 15.2024C9.36321 14.4566 8.97231 12.6417 9.25389 11.6709C9.34783 11.3471 9.39259 11.0501 9.35336 11.0109C9.1937 10.8512 8.04241 11.3679 7.80611 11.7052C7.49448 12.1501 7.29435 11.9962 7.43836 11.4224C7.60726 10.7495 8.01556 10.4593 8.79368 10.4593C9.44938 10.4593 9.4826 10.4379 9.2254 10.1807C9.07216 10.0275 8.74279 9.90207 8.49348 9.90207C8.10527 9.90207 8.04768 9.83745 8.09237 9.45197C8.17279 8.75846 8.82179 8.75742 9.53601 9.44967L10.1164 10.0122V9.4588C10.1164 8.78561 10.5085 8.58083 10.9801 9.00766C11.3709 9.36131 11.4235 9.77347 11.0778 9.77347C10.9464 9.77347 10.7973 9.88193 10.7465 10.0145C10.6671 10.2213 10.7192 10.2215 11.1139 10.0155C11.6789 9.72079 12.5487 9.70235 12.8255 9.97923C13.0621 10.2158 13.1062 11.1452 12.8808 11.1452C12.7981 11.1452 12.6343 11.0295 12.5169 10.888C12.3886 10.7334 12.0211 10.6329 11.5957 10.636C10.9874 10.6405 10.9362 10.6676 11.2309 10.8288C11.6646 11.066 12.0025 11.4853 12.0025 11.7863C12.0025 12.035 11.1928 12.8598 10.9487 12.8598C10.8682 12.8598 10.8023 12.5992 10.8023 12.2807C10.8023 11.6 10.3578 11.1012 10.106 11.4991C9.80967 11.9674 9.93917 13.2689 10.3753 14.2057C10.6101 14.7102 10.8023 15.1842 10.8023 15.259C10.8023 15.5789 10.3126 15.5438 10.0145 15.2024ZM20.5776 12.6049C20.3113 12.2841 20.4805 11.5613 20.8557 11.4174C21.1964 11.2867 21.9475 11.7425 21.9475 12.0799C21.9475 12.7204 20.9808 13.0908 20.5776 12.6049ZM22.0332 12.6884C21.8749 12.4322 22.0951 12.174 22.4719 12.174C22.6905 12.174 22.8047 12.2918 22.8047 12.5169C22.8047 12.8806 22.2309 13.0081 22.0332 12.6884ZM19.6672 11.8941C19.601 11.828 19.547 11.6271 19.547 11.4476C19.547 11.2073 19.6487 11.1358 19.9328 11.1761C20.1849 11.212 20.3185 11.3489 20.3185 11.5715C20.3185 11.9116 19.8946 12.1216 19.6672 11.8941ZM21.9715 11.6029C21.6802 11.2519 21.9193 10.7739 22.3551 10.8361C22.6145 10.8731 22.719 11.0104 22.719 11.3143C22.719 11.8035 22.279 11.9734 21.9715 11.6029ZM3.12065 11.4538C3.00748 11.3407 2.91489 11.0651 2.91489 10.8415C2.91489 10.4718 2.93939 10.4593 3.18434 10.7043C3.34282 10.8628 3.74885 10.9742 4.17025 10.9749L4.88674 10.976L4.37234 11.3167C3.78242 11.7073 3.4145 11.7477 3.12065 11.4538ZM18.3535 11.2392C17.9965 10.8089 18.2087 10.3736 18.7753 10.3736C19.1297 10.3736 19.3032 10.4676 19.3444 10.6819C19.4125 11.0354 19.093 11.4881 18.7753 11.4881C18.6569 11.4881 18.4671 11.3761 18.3535 11.2392ZM20.8048 10.8765C20.7481 10.7287 20.784 10.5255 20.8843 10.425C21.151 10.1583 21.6045 10.3925 21.6045 10.7969C21.6045 11.2197 20.9611 11.2838 20.8048 10.8765ZM5.17823 10.768C4.88576 10.4755 4.92358 10.0183 5.26877 9.67313C5.54954 9.39236 5.57091 9.40296 5.67622 9.8752C5.73735 10.1493 5.84375 10.5086 5.91265 10.6737C6.00647 10.8983 5.9558 10.9737 5.71097 10.9737C5.53113 10.9737 5.2914 10.8811 5.17823 10.768ZM6.28502 10.4887C6.12896 10.3162 6.00126 10.0112 6.00126 9.81091C6.00126 9.3496 6.34946 8.57323 6.55636 8.57323C6.82456 8.57323 7.71589 9.56028 7.71589 9.85729C7.71589 10.7257 6.84662 11.1093 6.28502 10.4887ZM19.4586 10.4511C19.3974 10.258 19.4401 9.98791 19.5538 9.85098C20.0104 9.30079 20.88 9.7708 20.6641 10.4511C20.586 10.6974 20.4058 10.8023 20.0614 10.8023C19.7168 10.8023 19.5368 10.6974 19.4586 10.4511ZM3.37213 10.345C3.30926 10.2821 3.25783 10.0738 3.25783 9.88207C3.25783 9.61091 3.30355 9.57915 3.46359 9.73918C3.57674 9.85235 3.89483 9.94494 4.17043 9.94494C4.59641 9.94494 4.63954 9.98349 4.45808 10.2021C4.24034 10.4645 3.57866 10.5516 3.37213 10.345ZM21.8412 10.2103C21.7103 9.86939 21.9041 9.60201 22.2821 9.60201C22.6112 9.60201 22.8751 10.0352 22.7095 10.3033C22.5569 10.5501 21.9465 10.4848 21.8412 10.2103ZM18.6384 9.83655C18.5723 9.77043 18.5181 9.57486 18.5181 9.40196C18.5181 9.1787 18.6458 9.08761 18.9588 9.08761C19.317 9.08761 19.3892 9.15934 19.3445 9.47166C19.2902 9.85178 18.8705 10.0687 18.6384 9.83655ZM20.755 9.69718C20.4006 9.27007 20.6035 8.66565 21.1215 8.60581C21.7663 8.53131 22.104 9.14489 21.6773 9.61628C21.3224 10.0084 21.0344 10.0337 20.755 9.69718ZM3.69621 9.45312C3.41863 9.39355 3.20645 9.28695 3.22468 9.21622C3.24291 9.14548 3.25783 8.887 3.25783 8.64182C3.25783 8.36343 3.47676 7.97705 3.8408 7.61302C4.30874 7.14508 4.55862 7.03004 5.10706 7.03004C5.65962 7.03004 5.84819 7.11832 6.09265 7.49143C6.36062 7.90039 6.36723 8.00221 6.15083 8.38776C5.8628 8.90093 4.86703 9.61063 4.47559 9.58172C4.32449 9.57057 3.97378 9.5127 3.69621 9.45312ZM4.57039 8.60259C4.41431 8.43012 4.28543 8.17936 4.28399 8.04532C4.28175 7.83773 4.25812 7.83837 4.12449 8.04959C3.92185 8.36987 4.20674 8.91615 4.57642 8.91615C4.83022 8.91615 4.8297 8.88914 4.57039 8.60259ZM5.54272 7.82748C5.37255 7.62466 5.22094 7.43427 5.2058 7.40444C5.19065 7.37459 5.13518 7.41987 5.08252 7.50508C4.9465 7.72518 5.4754 8.42908 5.68123 8.30187C5.78399 8.23836 5.72877 8.04921 5.54272 7.82748ZM27.0779 8.76403C26.6138 8.28249 26.2341 7.77864 26.2341 7.64436C26.2341 7.51009 26.4673 7.34897 26.7526 7.28634C27.0377 7.2237 27.4991 6.98056 27.7779 6.74603C28.0565 6.51149 28.3634 6.36827 28.4596 6.42774C28.6474 6.54378 28.6639 8.16484 28.4856 8.98773C28.3175 9.76437 27.9923 9.71269 27.0779 8.76403ZM19.5579 9.18657C19.2917 8.86585 19.4606 8.57323 19.9119 8.57323C20.1682 8.57323 20.2427 8.66871 20.2019 8.94558C20.1334 9.41089 19.8363 9.52206 19.5579 9.18657ZM11.451 8.95902C11.307 8.79398 11.1006 8.48745 10.9922 8.27783L10.7952 7.8967L10.2415 8.23432C9.08924 8.93686 7.62484 8.45777 7.74838 7.41868C7.8052 6.94071 8.23029 6.65199 8.23029 7.09137C8.23029 7.46574 8.54617 7.60887 8.83793 7.36674C9.23858 7.03423 9.15372 6.37743 8.70182 6.31325L8.31603 6.25846L8.77977 5.78693C9.41078 5.14531 10.2938 5.13664 10.7898 5.76719C10.9853 6.01566 11.1452 6.32867 11.1452 6.46276C11.1452 6.66658 11.2077 6.66278 11.5263 6.43964C12.0711 6.05804 12.9766 6.09313 13.1967 6.50438C13.3986 6.88152 13.4341 7.77033 13.2545 7.94989C13.1887 8.01573 13.0459 7.90334 12.9371 7.70014L12.7394 7.33071L12.6434 7.69778C12.5885 7.90779 12.6545 8.1719 12.7976 8.31499C12.9891 8.50654 13.0042 8.64639 12.862 8.9121C12.6287 9.34801 11.8139 9.37511 11.451 8.95902ZM12.3238 7.20151C12.3177 6.78403 12.3115 6.78626 12.082 7.28724C11.9525 7.57015 11.8493 7.99453 11.8527 8.23029C11.8587 8.64778 11.865 8.64555 12.0944 8.14457C12.224 7.86165 12.3272 7.43727 12.3238 7.20151ZM10.0161 6.34418C10.1262 5.75175 10.1244 5.7496 9.87996 6.1762C9.74376 6.41389 9.58687 6.91543 9.53132 7.29072L9.4303 7.97309L9.66744 7.45871C9.79786 7.17579 9.95476 6.67426 10.0161 6.34418ZM11.4855 7.50157C11.4834 7.20036 11.4483 7.17036 11.3253 7.36478C11.2387 7.50174 11.2059 7.67534 11.2523 7.75058C11.4011 7.99122 11.4882 7.89817 11.4855 7.50157ZM10.6233 7.29622C10.7679 7.12205 10.7776 6.95579 10.6559 6.73896C10.4712 6.41006 10.4618 6.4221 10.1911 7.3301C10.1041 7.62182 10.3704 7.60094 10.6233 7.29622ZM18.1596 8.10349C18.0613 7.84512 18.0294 7.37572 18.0886 7.06036C18.1738 6.6062 18.2563 6.51237 18.4857 6.6091C18.645 6.67626 18.949 6.76886 19.1612 6.81489C19.3733 6.86091 19.547 7.0053 19.547 7.13576C19.547 7.38808 20.0208 7.4517 20.3365 7.24175C20.4407 7.17247 20.6461 6.88429 20.7933 6.60138L21.0606 6.08698L21.1706 6.52234C21.435 7.56897 20.412 8.53788 19.2689 8.32343C18.9109 8.25628 18.6896 8.28324 18.6896 8.39399C18.6896 8.75523 18.3331 8.55982 18.1596 8.10349ZM21.3241 8.14571C21.2646 7.99094 21.2983 7.78209 21.3988 7.68161C21.66 7.42036 22.155 7.65913 22.0867 8.01347C22.0107 8.40816 21.4613 8.50342 21.3241 8.14571ZM6.57809 7.80278C6.51871 7.64801 6.55233 7.43917 6.65281 7.33867C6.91406 7.07743 7.40905 7.31621 7.3408 7.67055C7.2648 8.06524 6.71537 8.16049 6.57809 7.80278ZM22.4436 7.11631C21.9182 6.83076 21.4331 6.14684 21.4331 5.69174C21.4331 5.44244 21.652 5.31765 22.4074 5.13644C23.1713 4.95315 23.3968 4.94827 23.452 5.11384C23.4988 5.25424 23.7113 5.28954 24.0863 5.21921C24.5494 5.1323 24.6996 5.18416 24.9277 5.50976C25.3259 6.0782 25.2799 6.78688 24.8242 7.10605C24.3514 7.43725 23.0443 7.44287 22.4436 7.11631ZM24.0821 6.36585C23.9926 6.28345 23.5721 6.17306 23.1477 6.12052C22.4485 6.03395 22.4074 6.048 22.7089 6.27032C23.0646 6.53249 24.3615 6.6227 24.0821 6.36585ZM6.0637 6.94545C6.00431 6.79069 6.03793 6.58185 6.13843 6.48135C6.39968 6.22011 6.89466 6.45888 6.82642 6.81323C6.7504 7.20792 6.20097 7.30318 6.0637 6.94545ZM3.18434 6.7606C2.86344 6.43969 2.83588 5.9774 3.12065 5.69262C3.42006 5.3932 3.60075 5.44015 3.60075 5.81734C3.60075 5.99911 3.79359 6.29951 4.02928 6.48491C4.385 6.76472 4.41174 6.83967 4.18673 6.92601C3.74959 7.09376 3.47162 7.04789 3.18434 6.7606ZM25.7505 6.80996C25.4834 6.48808 25.7223 6.23745 26.4184 6.10959C27.1513 5.97495 27.7773 5.43841 27.7773 4.9448C27.7773 4.64668 27.8198 4.62289 28.0345 4.801C28.1759 4.91841 28.2917 5.22304 28.2917 5.47798C28.2917 6.47315 26.3261 7.50345 25.7505 6.80996ZM7.31677 6.57376C7.25606 6.51305 7.15677 6.08934 7.09612 5.63219C7.03548 5.17504 6.9429 4.801 6.8904 4.801C6.83791 4.801 6.62209 4.96341 6.41079 5.1619C5.91188 5.6306 5.62746 5.43777 5.66309 4.65496C5.67874 4.31091 5.68408 3.97044 5.67494 3.89835C5.66581 3.82627 5.19758 3.99987 4.63442 4.28414C4.07128 4.56841 3.53117 4.801 3.43418 4.801C3.05247 4.801 3.29397 4.21327 4.02941 3.35242C4.45379 2.85568 4.801 2.39972 4.801 2.33915C4.801 2.27858 4.47307 2.22785 4.07228 2.22641C3.67148 2.22497 3.2366 2.15605 3.10588 2.07327C2.85494 1.91435 2.86816 1.89818 3.93168 1.06286L4.34832 0.735601L3.71735 0.617227C3.33376 0.545268 3.08637 0.401056 3.08637 0.249427C3.08637 0.0625433 3.31209 0.000587088 3.98655 0.0023413C5.64109 0.00664459 6.12023 0.375306 5.22966 0.958821C4.63513 1.34838 4.6912 1.49449 5.48686 1.62891C5.86408 1.69265 6.17272 1.81248 6.17272 1.89521C6.17272 1.97796 5.92341 2.32959 5.61871 2.67663L5.06471 3.30761L5.6102 3.02551C6.45772 2.58725 6.57336 2.64764 6.46524 3.47216L6.36968 4.20088L6.74917 3.72936C7.28181 3.06753 7.51569 3.13989 7.58053 3.98655L7.63635 4.71527L7.86499 3.94646L8.09364 3.17766L8.40378 3.56067C8.81594 4.06967 8.91615 4.04397 8.91615 3.42929C8.91615 2.80339 8.98274 2.79616 9.64165 3.35061C9.92645 3.59024 10.1894 3.75641 10.2259 3.71987C10.2625 3.6833 10.1756 3.37398 10.0329 3.03247C9.89022 2.69094 9.77347 2.33188 9.77347 2.23455C9.77347 2.0033 10.5587 2.0069 10.9945 2.24016C11.6695 2.6014 11.706 2.28138 11.0701 1.57749C10.7135 1.18277 10.4622 0.754334 10.5116 0.625406C10.6066 0.378025 11.8584 0 12.5827 0C13.2774 0 13.2513 0.286272 12.5304 0.57473C12.1618 0.722209 11.8111 0.922345 11.7511 1.01947C11.691 1.1166 11.9931 1.57152 12.4223 2.0304C13.6477 3.34045 13.3576 3.77117 11.6544 3.17026C11.2506 3.0278 10.8872 2.94422 10.8469 2.98454C10.8066 3.02486 10.9344 3.4213 11.1309 3.86549C11.8138 5.40939 11.5494 5.75793 10.384 4.84998C9.72482 4.33642 9.54829 4.26648 9.42064 4.46823C9.33467 4.60411 9.26315 4.81172 9.26171 4.92961C9.25811 5.22387 8.91776 5.19854 8.56315 4.87763C8.2903 4.63069 8.25389 4.67375 8.06305 5.46925C7.86122 6.31057 7.53556 6.79255 7.31677 6.57376ZM19.8531 6.38705C19.7093 6.22201 19.6266 5.99054 19.6694 5.87265C19.7816 5.56292 19.1105 5.60487 18.7875 5.92777C18.5426 6.17272 18.5181 6.15954 18.5181 5.78288C18.5181 5.35654 18.9881 4.801 19.3489 4.801C19.4607 4.801 19.8598 4.89695 20.2355 5.01422C20.969 5.24313 21.0659 5.49055 20.7197 6.25038C20.4866 6.76187 20.2167 6.80443 19.8531 6.38705ZM4.28661 6.17272C3.87471 5.76082 3.84615 5.26595 4.21312 4.89898C4.57862 4.53349 4.74516 4.5581 5.23747 5.05041C5.50005 5.313 5.65832 5.66765 5.65832 5.99347C5.65832 6.45937 5.60288 6.51566 5.14394 6.51566C4.85816 6.51566 4.47713 6.36323 4.28661 6.17272ZM25.5645 5.44399C25.4354 5.09821 25.4848 5.04589 26.0415 4.93949C27.0395 4.74875 27.4343 4.77965 27.4343 5.04848C27.4343 5.40287 26.7546 5.8298 26.1904 5.8298C25.8477 5.8298 25.667 5.71836 25.5645 5.44399ZM12.102 4.85461C11.122 3.5187 11.3117 3.22501 12.5464 4.16674C13.0635 4.5611 13.2885 4.85935 13.2885 5.1503C13.2885 5.88383 12.7604 5.75222 12.102 4.85461ZM20.6061 4.51814C20.0337 4.32289 19.8096 4.31123 19.6219 4.467C19.4275 4.62842 19.3514 4.59438 19.2413 4.29646L19.1035 3.92423L18.6101 4.31235L18.1166 4.70049L18.2429 4.27922C18.3123 4.04752 18.4117 3.72292 18.4637 3.55789C18.5269 3.35687 18.4667 3.25783 18.2809 3.25783C17.9251 3.25783 17.9306 3.1085 18.3015 2.69857C18.5851 2.38526 18.5831 2.35747 18.2586 2.11722C17.931 1.87451 17.9299 1.85609 18.2303 1.63336C18.5243 1.41532 18.526 1.37003 18.2605 0.85644C17.907 0.172685 18.0016 0.0728391 18.6736 0.420421C19.1822 0.683384 19.204 0.680378 19.204 0.347332C19.204 -0.0331727 19.3795 -0.0987924 19.6566 0.178181C19.7798 0.301448 20.0765 0.291711 20.6191 0.146592C21.2399 -0.0194413 21.5515 -0.0187929 22.1139 0.149701C23.0079 0.417551 23.4148 0.821805 23.6794 1.70482C24.2467 3.59834 22.5264 5.1732 20.6061 4.51814ZM22.4189 3.50564C22.9601 2.89067 22.9503 1.73143 22.3983 1.08979C22.0936 0.735519 21.8362 0.617272 21.3696 0.617272C21.0273 0.617272 20.6508 0.718838 20.5328 0.842973C20.3573 1.02788 20.4215 1.05461 20.8885 0.990828C21.3758 0.924276 21.4465 0.958697 21.3761 1.22808C21.3134 1.46782 21.3899 1.54318 21.6962 1.54318C22.2461 1.54318 22.3783 1.82699 21.938 2.06261C21.6055 2.24063 21.5981 2.28064 21.8475 2.55624C22.2327 2.98189 22.188 3.08637 21.6206 3.08637C21.1978 3.08637 21.1366 3.14132 21.217 3.4484C21.3032 3.77855 21.2603 3.80064 20.7294 3.69914L20.147 3.58783L20.5757 3.85239C21.1454 4.20394 21.9352 4.05534 22.4189 3.50564ZM20.2234 2.82331C20.3266 2.88716 20.3602 2.82817 20.304 2.6816C20.2455 2.52914 20.3305 2.39874 20.5203 2.34966C20.8181 2.27267 20.8178 2.26787 20.5145 2.24893C20.3007 2.23557 20.2297 2.14164 20.2982 1.96294C20.3571 1.80932 20.3282 1.74144 20.2297 1.80233C20.1358 1.86036 20.0149 1.79317 19.9611 1.65303C19.8768 1.43318 19.823 1.43757 19.5692 1.68503C19.2645 1.98216 19.2355 2.26908 19.4574 2.79068C19.5561 3.02259 19.6417 3.0497 19.8167 2.90451C19.943 2.79968 20.126 2.76314 20.2234 2.82331ZM23.6061 4.34485C23.5437 4.28259 23.6467 4.12389 23.8346 3.9922C24.0444 3.84525 24.1764 3.55787 24.1764 3.24811C24.1764 2.68976 24.3622 2.60456 24.6977 3.00891C24.9818 3.35115 25.6134 3.26144 25.6883 2.86821C25.7311 2.64381 25.5073 2.45742 24.8328 2.15574C24.2628 1.9008 24.016 1.71393 24.1764 1.65876C24.318 1.61014 24.6624 1.50085 24.942 1.4159L25.4503 1.26146L24.5341 0.825988C23.4703 0.320409 23.5842 0.147676 25.0017 0.116642C26.3102 0.0879932 26.4704 0.20984 26.3432 1.13713C26.2823 1.58217 26.3088 1.88611 26.4087 1.88611C26.5013 1.88611 26.6348 1.90539 26.7055 1.92898C26.7764 1.95255 26.8727 1.59388 26.9199 1.13193C27.015 0.201339 27.3174 -0.11042 27.9651 0.054467C28.3523 0.153035 28.3805 0.244365 28.4296 1.553C28.4914 3.20335 28.2859 3.63573 27.2066 4.12574C26.6969 4.3572 26.0929 4.45163 25.1052 4.45431C24.3429 4.45638 23.6683 4.40713 23.6061 4.34485ZM27.3961 3.16237C27.7773 2.89539 27.9363 2.05757 27.6058 2.05757C27.5115 2.05757 27.4343 2.17699 27.4343 2.32295C27.4343 2.46892 27.2301 2.77756 26.9806 3.00882C26.4685 3.48349 26.7757 3.597 27.3961 3.16237ZM27.7773 0.685858C27.7773 0.591552 27.7001 0.514394 27.6058 0.514394C27.5115 0.514394 27.4343 0.591552 27.4343 0.685858C27.4343 0.780163 27.5115 0.857323 27.6058 0.857323C27.7001 0.857323 27.7773 0.780163 27.7773 0.685858ZM3.08637 3.18416C3.08637 2.70793 3.63552 2.31136 4.06616 2.47661C4.30003 2.56635 4.29326 2.62335 4.01181 2.93435C3.83499 3.12972 3.55442 3.36231 3.38833 3.45121C3.13744 3.58548 3.08637 3.54031 3.08637 3.18416ZM7.71589 2.58625C7.71589 2.02247 7.55817 1.94639 7.00409 2.24293C6.52188 2.50101 6.43618 2.33826 6.77887 1.81525L7.06948 1.37172H6.44963C5.73947 1.37172 5.62215 1.11808 6.25846 0.958376C6.70304 0.846789 6.81473 0.613499 6.51285 0.426933C6.41701 0.367698 6.38299 0.247406 6.43725 0.159617C6.59091 -0.0890168 7.32038 -0.0280953 7.60568 0.257197C7.93316 0.584683 8.14074 0.580974 8.66375 0.238296C8.94492 0.0540564 9.24234 0.00165815 9.55768 0.080804C10.0122 0.194884 10.0176 0.208696 9.69762 0.442634C9.36845 0.683338 9.36845 0.688467 9.69784 0.937601C9.88089 1.07606 10.0885 1.1918 10.1593 1.1948C10.23 1.1978 10.2879 1.27741 10.2879 1.37172C10.2879 1.46602 10.0564 1.54318 9.77347 1.54318C9.23018 1.54318 9.14978 1.70443 9.43101 2.2299C9.68682 2.70791 9.28994 2.8638 8.97218 2.41013C8.65804 1.96164 8.35897 2.02687 8.23029 2.57197C8.08302 3.19579 7.71589 3.20599 7.71589 2.58625ZM12.5566 1.62026C12.0051 1.23402 12.0848 1.02879 12.786 1.02879C13.3167 1.02879 13.3908 1.07829 13.3433 1.40115C13.2721 1.885 13.0306 1.95227 12.5566 1.62026Z" fill="#000099"/>
    </g>
    <defs>
        <clipPath id="clip0_222:42">
            <rect width="32.544" height="36" fill="white"/>
        </clipPath>
    </defs>
</svg>
