<svg width="160" height="13" viewBox="0 0 160 13" fill="none" xmlns="http://www.w3.org/2000/svg">
    <g clip-path="url(#clip0_41_3192)">
        <path d="M123.698 6.69649C124.924 6.69649 125.414 6.14219 125.414 5.08268C125.414 3.96158 124.846 3.43808 123.727 3.43808H122.094V11.663C122.094 11.918 121.884 12.1316 121.626 12.1316H120.619C120.365 12.1316 120.153 11.918 120.153 11.663V2.77119C120.153 2.51522 120.365 2.29004 120.619 2.29004H123.924C125.952 2.29004 127.213 3.21098 127.213 5.08268C127.213 6.55695 126.279 7.26618 125.2 7.55102L127.328 11.535C127.371 11.6216 127.413 11.7073 127.413 11.8045C127.413 11.9758 127.301 12.1317 127.143 12.1317H125.909C125.767 12.1317 125.611 12.0171 125.541 11.8612L123.268 7.42112C123.211 7.31141 123.109 7.13243 123.109 6.96402C123.109 6.81486 123.182 6.6965 123.443 6.6965L123.698 6.69649Z" fill="#1E3D6A"/>
        <path d="M133.115 3.18773C131.077 3.18773 130.726 5.02191 130.726 7.21118C130.726 9.42066 131.098 11.2346 133.086 11.2346C135.036 11.2346 135.504 9.49668 135.504 7.21118C135.504 5.02191 135.123 3.18773 133.115 3.18773ZM133.115 12.3394C131.218 12.3394 128.796 11.6869 128.796 7.21118C128.796 2.76335 131.199 2.08203 133.115 2.08203C135.029 2.08203 137.432 2.76335 137.432 7.21118C137.432 11.6022 135.083 12.3394 133.115 12.3394Z" fill="#1E3D6A"/>
        <path d="M143.005 12.3395C140.366 12.3395 139.288 10.8508 139.288 9.04935V2.7712C139.288 2.51522 139.501 2.29004 139.755 2.29004H140.747C141.004 2.29004 141.218 2.51522 141.218 2.7712V9.16194C141.218 10.7921 142.001 11.2348 143.096 11.2348C144.537 11.2348 144.976 10.386 144.976 9.16194V2.7712C144.976 2.51522 145.188 2.29004 145.442 2.29004H146.252C146.507 2.29004 146.72 2.51522 146.72 2.7712V9.04935C146.72 11.1337 145.413 12.3395 143.005 12.3395Z" fill="#1E3D6A"/>
        <path d="M151.879 7.20939H152.366C153.362 7.20939 154.141 6.70224 154.141 5.36655C154.141 3.90383 153.386 3.4246 152.319 3.4246H150.794V11.663C150.794 11.917 150.608 12.1307 150.354 12.1307H149.374C149.119 12.1307 148.909 11.917 148.909 11.663V2.77119C148.909 2.51521 149.119 2.28906 149.374 2.28906H152.92C154.827 2.28906 155.94 3.4525 155.94 5.36655C155.94 7.09679 154.926 8.2612 152.916 8.2612C152.534 8.2612 152.157 8.22366 151.924 8.18422C151.518 8.11589 151.334 7.89456 151.334 7.66553C151.334 7.43266 151.517 7.20939 151.879 7.20939Z" fill="#1E3D6A"/>
        <path d="M104.35 12.1316H103.413C103.144 12.1316 102.93 11.918 102.93 11.6486V7.7252H99.133V11.6486C99.133 11.918 98.9203 12.1316 98.6499 12.1316H97.7145C97.4451 12.1316 97.2324 11.918 97.2324 11.6486V2.7712C97.2324 2.51618 97.4451 2.29004 97.7011 2.29004H98.6643C98.9203 2.29004 99.133 2.51618 99.133 2.7712V6.33947H102.93V2.7712C102.93 2.51618 103.144 2.29004 103.399 2.29004H104.363C104.619 2.29004 104.833 2.51618 104.833 2.7712V11.6486C104.833 11.918 104.619 12.1316 104.35 12.1316Z" fill="#1E3D6A"/>
        <path d="M4.45743 12.3014C1.43864 12.3014 0.36084 10.6001 0.36084 8.57822V1.55043C0.36084 1.26366 0.604314 0.999023 0.896865 0.999023H1.75043C2.04202 0.999023 2.28644 1.26365 2.28644 1.55043V8.77839C2.28644 10.6078 3.29785 11.0995 4.49978 11.0995C6.09049 11.0995 6.7131 10.2892 6.7131 8.77839V1.55043C6.7131 1.26366 6.95753 0.999023 7.2491 0.999023H7.99972C8.29226 0.999023 8.53477 1.26365 8.53477 1.55043V8.57822C8.53477 10.9167 7.11342 12.3014 4.45743 12.3014Z" fill="#1E3D6A"/>
        <path d="M46.3764 3.43135H44.6923V10.9913H46.3764C48.5964 10.9913 49.1373 9.30629 49.1373 7.26714C49.1373 5.22895 48.6157 3.43135 46.3764 3.43135ZM46.8287 12.1316H43.2768C43.0217 12.1316 42.8081 11.9103 42.8081 11.6563V2.77986C42.8081 2.52483 43.0218 2.29004 43.2768 2.29004H46.8287C49.1652 2.29004 51.0205 3.54394 51.0205 7.26714C51.0205 11.0471 49.0237 12.1316 46.8287 12.1316Z" fill="#1E3D6A"/>
        <path d="M61.1437 12.1332H60.3026C59.9995 12.1332 59.7599 11.8955 59.7599 11.5933V7.09736H55.2447V11.5933C55.2447 11.8955 55.006 12.1332 54.701 12.1332H53.8599C53.5568 12.1332 53.3201 11.8955 53.3201 11.5933V1.616C53.3201 1.32923 53.5568 1.07422 53.8445 1.07422H54.7193C55.006 1.07422 55.2447 1.32924 55.2447 1.616V5.67987H59.7599V1.616C59.7599 1.32923 59.9995 1.07422 60.2872 1.07422H61.1591C61.4449 1.07422 61.6855 1.32924 61.6855 1.616V11.5933C61.6855 11.8955 61.4449 12.1332 61.1437 12.1332Z" fill="#1E3D6A"/>
        <path d="M87.6105 12.1326H82.8586C82.5901 12.1326 82.3765 11.919 82.3765 11.6486V2.77119C82.3765 2.51617 82.5901 2.29004 82.8451 2.29004H83.8373C84.0932 2.29004 84.3059 2.51617 84.3059 2.77119V10.744H87.6105C87.8655 10.744 88.0782 10.9721 88.0782 11.2261V11.663C88.0782 11.919 87.8655 12.1326 87.6105 12.1326Z" fill="#1E3D6A"/>
        <path d="M23.3636 12.1326H22.4023C22.1319 12.1326 21.9202 11.9103 21.9202 11.6418V2.77986C21.9202 2.52483 22.1319 2.29004 22.3888 2.29004H23.3781C23.6331 2.29004 23.8458 2.52485 23.8458 2.77986V11.6418C23.8458 11.9103 23.6331 12.1326 23.3636 12.1326Z" fill="#1E3D6A"/>
        <path d="M32.4691 3.67866H30.2327V11.6418C30.2327 11.9103 30.0191 12.1326 29.7506 12.1326H28.7873C28.5198 12.1326 28.3061 11.9103 28.3061 11.6418V3.67866H26.0524C25.7974 3.67866 25.5847 3.46791 25.5847 3.2129V2.77409C25.5847 2.52004 25.7974 2.29004 26.0524 2.29004H32.4691C32.7242 2.29004 32.9359 2.52003 32.9359 2.77409V3.2129C32.9359 3.46793 32.7241 3.67866 32.4691 3.67866Z" fill="#1E3D6A"/>
        <path d="M95.0117 3.67866H92.6204V11.6418C92.6204 11.9103 92.4087 12.1326 92.1402 12.1326H91.1769C90.9094 12.1326 90.6957 11.9103 90.6957 11.6418V3.67866H88.289C88.033 3.67866 87.8213 3.46791 87.8213 3.2129V2.77409C87.8213 2.52004 88.033 2.29004 88.289 2.29004H95.0117C95.2667 2.29004 95.4775 2.52003 95.4775 2.77409V3.2129C95.4775 3.46793 95.2667 3.67866 95.0117 3.67866Z" fill="#1E3D6A"/>
        <path d="M40.6304 12.1326H35.0798C34.8247 12.1326 34.613 11.968 34.613 11.714V2.77408C34.613 2.52004 34.8247 2.29004 35.0798 2.29004H40.4302C40.6862 2.29004 40.8989 2.52002 40.8989 2.77408V3.16575C40.8989 3.42077 40.6862 3.63151 40.4302 3.63151H36.5377V6.35967H40.0347C40.2897 6.35967 40.5024 6.58679 40.5024 6.84179V7.23345C40.5024 7.4875 40.2897 7.70114 40.0347 7.70114H36.5377V10.7844L40.6304 10.7893C40.8854 10.7893 41.0971 11.0155 41.0971 11.2695V11.7141C41.0971 11.9681 40.8854 12.1326 40.6304 12.1326Z" fill="#1E3D6A"/>
        <path d="M70.2759 12.1326H64.7262C64.4712 12.1326 64.2566 11.968 64.2566 11.714V2.77408C64.2566 2.52004 64.4712 2.29004 64.7262 2.29004H70.0757C70.3298 2.29004 70.5424 2.52002 70.5424 2.77408V3.16575C70.5424 3.42077 70.3298 3.63151 70.0757 3.63151H66.1831V6.35967H69.6792C69.9352 6.35967 70.1469 6.58679 70.1469 6.84179V7.23345C70.1469 7.4875 69.9352 7.70114 69.6792 7.70114H66.1831V10.7844L70.2759 10.7893C70.5299 10.7893 70.7416 11.0155 70.7416 11.2695V11.7141C70.7416 11.9681 70.5299 12.1326 70.2759 12.1326Z" fill="#1E3D6A"/>
        <path d="M18.4898 12.1326H17.0367C16.5864 12.1326 16.3756 11.9257 16.2611 11.6697C15.5394 10.1377 12.7448 3.8692 12.7448 3.8692V11.6563C12.7448 11.9103 12.5322 12.1326 12.2771 12.1326H11.6247C11.3687 12.1326 11.157 11.9103 11.157 11.6563V2.7635C11.157 2.50752 11.3687 2.29004 11.6247 2.29004H13.045C13.4656 2.29004 13.7235 2.43535 13.8659 2.75002C14.6175 4.39366 17.3668 10.5063 17.3668 10.5063V2.7635C17.3668 2.50752 17.5805 2.29004 17.8364 2.29004H18.4898C18.7439 2.29004 18.9575 2.50753 18.9575 2.7635V11.6563C18.9575 11.9103 18.7439 12.1326 18.4898 12.1326Z" fill="#1E3D6A"/>
        <path d="M117.535 11.812C117.017 12.0411 116.206 12.376 114.507 12.376C111.732 12.376 109.248 11.2106 109.248 6.60303C109.248 2.98664 110.778 0.831055 114.507 0.831055C116.226 0.831055 117.177 1.28912 117.401 1.38342C117.743 1.52873 117.766 1.59898 117.766 1.75777C117.766 1.83379 117.723 2.06859 117.713 2.12633C117.657 2.40733 117.579 2.86635 117.535 3.11367C117.511 3.2503 117.493 3.43989 117.283 3.43989C117.112 3.43989 116.963 3.24068 116.87 3.14542C116.724 2.99531 115.898 2.13981 114.507 2.13981C111.862 2.13981 111.414 4.67551 111.414 6.60303C111.414 9.26383 112.277 11.0672 114.507 11.0672C115.358 11.0672 115.805 10.9296 115.942 10.8921V7.24392C115.942 7.02258 116.072 6.9533 116.299 6.9533H117.523C117.78 6.9533 117.87 7.05723 117.87 7.2622V11.252C117.87 11.6311 117.847 11.6744 117.535 11.812Z" fill="#1E3D6A"/>
        <path d="M74.7885 8.62399L76.2541 3.74697L77.635 8.62399H74.7885ZM80.5393 11.5071L77.712 2.74231C77.6119 2.44495 77.3733 2.28906 77.0201 2.28906H75.7701C75.4073 2.28906 75.2081 2.44495 75.1061 2.74231L72.2855 11.5629C72.2566 11.6486 72.2268 11.7063 72.2268 11.791C72.2268 11.9892 72.3991 12.1316 72.5684 12.1316H73.2045C73.5423 12.1316 73.7896 11.9748 73.8887 11.6765L74.4449 9.83362H78.0305L78.6118 11.6765C78.6945 11.9324 78.8822 12.1316 79.3143 12.1316H80.24C80.4546 12.1316 80.5941 11.9892 80.5941 11.7756C80.5941 11.6764 80.5662 11.6071 80.5393 11.5071Z" fill="#1E3D6A"/>
        <path d="M157.953 3.38019H158.276C158.483 3.38019 158.616 3.33593 158.616 3.12133C158.616 2.93273 158.449 2.87882 158.276 2.87882H157.953V3.38019ZM157.684 2.66616H158.318C158.699 2.66616 158.888 2.81916 158.888 3.13288C158.888 3.39944 158.718 3.59094 158.459 3.59094L158.931 4.32519H158.644L158.181 3.59094H157.953V4.32519H157.684L157.684 2.66616ZM158.228 4.70146C158.88 4.70146 159.37 4.17603 159.37 3.4976C159.37 2.81917 158.88 2.29374 158.228 2.29374C157.569 2.29374 157.079 2.81917 157.079 3.4976C157.079 4.17603 157.569 4.70146 158.228 4.70146ZM158.223 2.08203C159.005 2.08203 159.639 2.71716 159.639 3.4976C159.639 4.27804 159.005 4.91317 158.223 4.91317C157.445 4.91317 156.809 4.27804 156.809 3.4976C156.809 2.71716 157.445 2.08203 158.223 2.08203Z" fill="#1E3D6A"/>
    </g>
    <defs>
        <clipPath id="clip0_41_3192">
            <rect width="160" height="12.2666" fill="white" transform="translate(0 0.469727)"/>
        </clipPath>
    </defs>
</svg>
