<svg width="36" height="41" viewBox="0 0 36 41" fill="none" xmlns="http://www.w3.org/2000/svg">
    <g clip-path="url(#clip0_41_3213)">
        <path fill-rule="evenodd" clip-rule="evenodd" d="M23.1594 38.111C19.2092 38.3761 18.009 40.7363 18.009 40.7363C18.009 40.7363 16.8176 38.111 12.8586 38.111C10.6097 38.111 7.56963 37.6975 4.6371 35.2033C2.19788 33.1288 0.631836 30.0353 0.631836 26.5685C0.631836 23.7026 1.52967 21.4109 2.31469 19.5035C2.68549 18.6029 3.0588 17.7354 3.33681 16.858C3.59551 16.0418 3.74482 15.2895 3.74482 14.5318C3.74482 13.0235 3.13106 11.6646 2.13452 10.6804L0.970002 9.53037L9.21293 0.736328L10.3587 1.37375C12.6202 2.63206 15.2254 3.35079 18.0009 3.35079C20.7762 3.35079 23.3799 2.63206 25.6415 1.37375L26.7873 0.736328L35.03 9.53051L33.8656 10.6806C32.869 11.6647 32.2554 13.0236 32.2554 14.532C32.2554 15.2897 32.4044 16.042 32.6634 16.8581C32.9412 17.7355 33.3146 18.603 33.6854 19.5037C34.4705 21.411 35.3683 23.7027 35.3683 26.5686C35.3683 30.0354 33.8023 33.1289 31.363 35.2034C28.4305 37.6976 25.4037 37.9602 23.1594 38.111Z" fill="white"/>
        <path fill-rule="evenodd" clip-rule="evenodd" d="M18.0008 5.03065C14.9316 5.03065 12.0462 4.23501 9.54187 2.8418L3.31469 9.48518C4.61747 10.7716 5.42451 12.5558 5.42451 14.5319C5.42451 18.4634 2.31152 21.5512 2.31152 26.5685C2.31152 29.5175 3.64167 32.1516 5.7254 33.9238C10.7082 38.1615 15.9734 34.9026 17.9992 38.3611C20.0247 34.9027 25.2918 38.1615 30.2744 33.9238C32.3582 32.1516 33.6884 29.5175 33.6884 26.5685C33.6884 21.5512 30.5753 18.4634 30.5753 14.5319C30.5753 12.5558 31.3824 10.7716 32.6851 9.48518L26.458 2.8418C23.9537 4.23509 21.07 5.03065 18.0008 5.03065Z" fill="#00529B"/>
        <path fill-rule="evenodd" clip-rule="evenodd" d="M4.82013 32.4392C3.50359 30.8411 2.70703 28.7982 2.70703 26.5683C2.70703 24.1434 3.4572 22.1799 4.2338 20.2934C4.43364 19.8079 4.63319 19.3311 4.82013 18.8574L4.8202 32.4367L4.82013 32.4392Z" fill="#EF3E42"/>
        <path fill-rule="evenodd" clip-rule="evenodd" d="M7.2168 34.5083V18.8574H9.61831V35.5523C8.82118 35.3331 8.02547 35.004 7.2168 34.5083Z" fill="#EF3E42"/>
        <path fill-rule="evenodd" clip-rule="evenodd" d="M12.01 35.9761V18.8574H14.4086V36.144C13.96 36.1014 13.488 36.0731 12.9979 36.0401C12.6777 36.0187 12.3407 36.0071 12.01 35.9761Z" fill="#EF3E42"/>
        <path fill-rule="evenodd" clip-rule="evenodd" d="M31.1788 32.4392C32.4952 30.8411 33.2917 28.7982 33.2917 26.5683C33.2917 24.1434 32.5415 22.1799 31.765 20.2934C31.5652 19.8079 31.3656 19.3311 31.1787 18.8574L31.1785 32.4367L31.1788 32.4392Z" fill="#EF3E42"/>
        <path fill-rule="evenodd" clip-rule="evenodd" d="M28.7819 34.5083V18.8574H26.3804V35.5523C27.1776 35.3331 27.9733 35.004 28.7819 34.5083Z" fill="#EF3E42"/>
        <path fill-rule="evenodd" clip-rule="evenodd" d="M23.9889 35.9761V18.8574H21.5901V36.144C22.0388 36.1014 22.5109 36.0731 23.0009 36.0401C23.321 36.0187 23.6582 36.0071 23.9889 35.9761Z" fill="#EF3E42"/>
        <path fill-rule="evenodd" clip-rule="evenodd" d="M17.9995 37.6673C17.6586 37.2476 17.2577 36.9444 16.813 36.7236V18.8574H19.1857V36.7236C18.7412 36.9444 18.3403 37.2476 17.9995 37.6673Z" fill="#EF3E42"/>
        <path fill-rule="evenodd" clip-rule="evenodd" d="M7.21675 34.5117C6.80874 34.2616 6.38776 33.968 5.98153 33.6226C5.55727 33.2615 5.16544 32.8635 4.81152 32.4333L4.82008 32.4367L4.82 18.8574H7.21675V34.5117Z" fill="white"/>
        <path fill-rule="evenodd" clip-rule="evenodd" d="M12.01 35.964C11.233 35.8913 10.4343 35.7778 9.61841 35.5535V18.8574H12.01V35.964Z" fill="white"/>
        <path fill-rule="evenodd" clip-rule="evenodd" d="M14.4084 36.144V18.8574H16.8128V36.7219C16.5669 36.6 16.3072 36.5027 16.0371 36.4246C15.5879 36.2952 15.1002 36.2162 14.581 36.1616L14.4084 36.144Z" fill="white"/>
        <path fill-rule="evenodd" clip-rule="evenodd" d="M28.782 34.5117C29.19 34.2616 29.6109 33.968 30.0172 33.6226C30.4415 33.2615 30.8331 32.8635 31.1871 32.4333L31.1785 32.4367L31.1787 18.8574H28.782V34.5117Z" fill="white"/>
        <path fill-rule="evenodd" clip-rule="evenodd" d="M23.9888 35.964C24.7657 35.8913 25.5643 35.7778 26.3803 35.5535V18.8574H23.9888V35.964Z" fill="white"/>
        <path fill-rule="evenodd" clip-rule="evenodd" d="M21.59 36.144V18.8574H19.1855V36.7219C19.4317 36.6 19.6913 36.5027 19.9614 36.4246C20.4106 36.2952 20.8983 36.2162 21.4176 36.1616L21.59 36.144Z" fill="white"/>
        <path fill-rule="evenodd" clip-rule="evenodd" d="M24.4047 12.6934H23.3181V16.3875H24.4047V12.6934Z" fill="white"/>
        <path fill-rule="evenodd" clip-rule="evenodd" d="M22.6237 13.5213V12.6943H20.1125V16.3885H21.2072V15.1023H22.6237V14.2369H21.2072V13.5213H22.6237Z" fill="white"/>
        <path fill-rule="evenodd" clip-rule="evenodd" d="M19.339 12.6934H18.2524V16.3875H19.339V12.6934Z" fill="white"/>
        <path fill-rule="evenodd" clip-rule="evenodd" d="M9.9137 12.6934C10.6031 12.6934 11.1572 13.2524 11.1572 13.9418C11.1572 14.6313 10.5982 15.1902 9.90871 15.1902H9.19332V16.3892H8.17847V12.6934H9.9137V12.6934Z" fill="white"/>
        <path fill-rule="evenodd" clip-rule="evenodd" d="M12.094 15.7531L11.8695 16.3893H10.8411L12.1742 12.6934H13.3982L14.7315 16.3893H13.703L13.4785 15.7531H12.094Z" fill="white"/>
        <path fill-rule="evenodd" clip-rule="evenodd" d="M15.6698 14.5946C15.6557 14.0404 16.0634 13.6604 16.5726 13.6476C16.8279 13.6413 17.1581 13.7747 17.5008 13.8638V12.8456C17.3364 12.7436 16.891 12.6162 16.6099 12.6162C15.5703 12.6162 14.6499 13.4044 14.6499 14.5843C14.6499 15.764 15.5703 16.5548 16.6099 16.5548C16.8909 16.5548 17.3364 16.4273 17.5008 16.3255V15.3072C17.1581 15.3964 16.8279 15.5297 16.5726 15.5234C16.0634 15.5107 15.6558 15.1307 15.6698 14.5764V14.5946Z" fill="white"/>
        <path fill-rule="evenodd" clip-rule="evenodd" d="M25.9907 14.5946C25.9767 14.0404 26.3842 13.6604 26.8933 13.6476C27.1487 13.6413 27.479 13.7747 27.8216 13.8638V12.8456C27.6572 12.7436 27.2117 12.6162 26.9309 12.6162C25.8911 12.6162 24.9707 13.4044 24.9707 14.5843C24.9707 15.764 25.8911 16.5548 26.9309 16.5548C27.2117 16.5548 27.6572 16.4273 27.8216 16.3255V15.3072C27.4789 15.3964 27.1487 15.5297 26.8933 15.5234C26.3842 15.5107 25.9767 15.1307 25.9907 14.5764V14.5946Z" fill="white"/>
        <path fill-rule="evenodd" clip-rule="evenodd" d="M13.1692 14.9132L12.7883 13.7285H12.7797L12.3943 14.9132H13.1692Z" fill="#00529B"/>
        <path fill-rule="evenodd" clip-rule="evenodd" d="M9.19336 13.5166H9.84218C10.0565 13.5166 10.2287 13.6904 10.2287 13.9047C10.2287 14.1192 10.0549 14.3497 9.84054 14.3497H9.19336V13.5166Z" fill="#00529B"/>
        <path fill-rule="evenodd" clip-rule="evenodd" d="M18.4897 7.53418H17.4033V11.2284H18.4897V7.53418Z" fill="white"/>
        <path fill-rule="evenodd" clip-rule="evenodd" d="M19.1187 9.38722C19.1187 8.31464 19.9968 7.44531 21.0799 7.44531C22.1631 7.44531 23.0412 8.31464 23.0412 9.38722C23.0412 10.4597 22.1631 11.3291 21.0799 11.3291C19.9969 11.3291 19.1187 10.4597 19.1187 9.38722Z" fill="white"/>
        <path fill-rule="evenodd" clip-rule="evenodd" d="M23.7175 11.2279H24.7634V9.36641H24.7732L26.0268 11.2284H27.2129V7.53418H26.0883V9.48514H26.0786L24.8212 7.53418H23.7175V11.2279Z" fill="white"/>
        <path fill-rule="evenodd" clip-rule="evenodd" d="M12.9822 11.2279H14.0279V9.36641H14.0377L15.2913 11.2284H16.4776V7.53418H15.353V9.48514H15.3432L14.0858 7.53418H12.9822V11.2279Z" fill="white"/>
        <path fill-rule="evenodd" clip-rule="evenodd" d="M20.1555 9.38788C20.1555 8.88238 20.5694 8.47266 21.0799 8.47266C21.5904 8.47266 22.0042 8.88245 22.0042 9.38788C22.0042 9.89331 21.5904 10.303 21.0799 10.303C20.5694 10.303 20.1555 9.89331 20.1555 9.38788Z" fill="#00529B"/>
        <path fill-rule="evenodd" clip-rule="evenodd" d="M10.9633 7.53125H12.0333V9.58861C12.0333 10.0593 12.0135 10.5251 11.6436 10.8793C11.3328 11.1801 10.8444 11.2869 10.4103 11.2869C9.97625 11.2869 9.48792 11.1801 9.17698 10.8793C8.80709 10.5251 8.78735 10.0593 8.78735 9.58861V7.53125H9.8573V9.32414C9.8573 9.79978 9.78874 10.3189 10.4103 10.3189C11.0318 10.3189 10.9632 9.79971 10.9632 9.32414L10.9633 7.53125Z" fill="white"/>
        <path d="M12.01 35.964C11.233 35.8913 10.4343 35.7765 9.61838 35.5523C8.82118 35.3331 8.02547 35.004 7.21687 34.5084C6.80886 34.2582 6.38788 33.968 5.98165 33.6226C5.55739 33.2615 5.16556 32.8635 4.81165 32.4333L4.8202 32.4367L4.82013 32.4392C3.50359 30.8411 2.70703 28.7982 2.70703 26.5683C2.70703 24.1434 3.4572 22.1799 4.2338 20.2934C4.43364 19.8079 4.63319 19.3311 4.82013 18.8574H31.1788M31.1787 18.8574C31.3656 19.3311 31.5652 19.8079 31.765 20.2934C32.5416 22.1799 33.2917 24.1434 33.2917 26.5683C33.2917 28.7982 32.4952 30.8411 31.1788 32.4392M31.1787 32.4392L31.1785 32.4367L31.1871 32.4333C30.8331 32.8634 30.4415 33.2614 30.0172 33.6226C29.6109 33.968 29.19 34.2616 28.782 34.5117C27.9733 35.0074 27.1776 35.3331 26.3805 35.5524C25.5645 35.7766 24.7659 35.8915 23.9889 35.9641C23.6582 35.995 23.321 36.0188 23.0009 36.0401C22.5109 36.0731 22.0388 36.1014 21.5901 36.144L21.4176 36.1649C20.8984 36.2197 20.4106 36.2985 19.9615 36.428C19.6913 36.5061 19.4318 36.6029 19.1856 36.7253C18.7411 36.9462 18.3402 37.2477 17.9994 37.6674C17.6585 37.2477 17.2576 36.9445 16.8129 36.7237C16.5669 36.6013 16.3073 36.5027 16.0372 36.4247C15.588 36.2953 15.1003 36.2163 14.5811 36.1616M14.5811 36.1616L14.4086 36.144C13.96 36.1014 13.4879 36.0731 12.9979 36.0401C12.6777 36.0187 12.3407 35.9949 12.01 35.9641" stroke="#00529B" stroke-width="0.648" stroke-miterlimit="2.6131"/>
    </g>
    <defs>
        <clipPath id="clip0_41_3213">
            <rect width="34.7364" height="40" fill="white" transform="translate(0.631836 0.736328)"/>
        </clipPath>
    </defs>
</svg>
