<svg width="34" height="41" viewBox="0 0 34 41" fill="none" xmlns="http://www.w3.org/2000/svg">
    <g clip-path="url(#clip0_41_3246)">
        <path fill-rule="evenodd" clip-rule="evenodd" d="M1.29175 12.8277L1.43485 29.0703L5.08407 33.5782L16.0321 39.374L29.4843 32.7911L32.2749 26.1366L31.9887 4.59864L21.828 4.31241L11.2381 6.02971L1.57838 11.6108L1.29175 12.8277Z" fill="#301506"/>
        <path d="M16.9666 1.09017C10.5896 1.09017 5.02708 2.32478 0.432617 4.75947V24.2241C0.432617 28.3198 1.97153 31.7447 4.88219 34.1307C7.58472 36.3476 15.9427 40.0009 16.9669 40.4446C17.9382 40.0219 26.3953 36.3121 29.0549 34.1307C31.9639 31.746 33.5032 28.3201 33.5032 24.2241V4.75947C28.9081 2.32446 23.3456 1.08984 16.966 1.08984L16.9666 1.09017ZM26.4092 4.85906C28.3108 4.88392 30.1781 5.00139 31.9831 5.16914V24.224C31.9831 27.8857 30.6544 30.8436 28.0907 32.9553C25.8004 34.8414 18.894 37.9357 16.9669 38.7852C15.014 37.9242 8.09037 34.7909 5.84122 32.9561C3.29268 30.8806 1.9512 27.8524 1.9512 24.2248V13.0907C9.27497 6.37419 18.1683 4.75171 26.4085 4.85949L26.4092 4.85906ZM17.3977 13.7317C15.8287 13.7317 14.5627 14.0825 13.5204 14.7552V33.5029H16.3982V27.4461C16.6853 27.5308 17.1022 27.61 17.6927 27.61C20.8849 27.61 22.7196 24.7324 22.7196 20.5308C22.7196 16.3375 20.8304 13.7317 17.3977 13.7317ZM27.2307 13.7317C25.3381 13.7866 23.359 15.1576 23.371 17.4817C23.3759 19.012 23.8001 20.1565 26.1719 21.5481C27.4376 22.2911 27.9475 22.7807 27.9694 23.6834C27.9936 24.687 27.3002 25.2921 26.245 25.288C25.3269 25.2808 24.2294 24.7713 23.4946 24.117V26.7653C24.3956 27.3026 25.52 27.6577 26.6559 27.6577C29.4988 27.6577 30.7682 25.6496 30.8231 23.8094C30.8772 22.1322 30.4137 20.8631 28.0096 19.4506C26.9367 18.8213 26.0894 18.4078 26.1176 17.3606C26.1459 16.3385 26.9944 15.9794 27.8092 15.9867C28.8144 15.9956 29.7868 16.5523 30.387 17.1678V14.667C29.8811 14.2773 28.8103 13.6833 27.2307 13.7317ZM3.42073 14.0229V23.066C3.42073 26.1146 4.86283 27.658 7.70895 27.658C9.47007 27.658 10.9451 27.2504 12.0438 26.5033V14.023H9.17242V24.866C8.85941 25.0806 8.39512 25.2177 7.81105 25.2177C6.49286 25.2177 6.29589 24.0089 6.29589 23.1933V14.0231L3.42073 14.0229ZM17.4171 16.0486C19.0862 16.0486 19.778 17.3811 19.778 20.604C19.778 23.7487 18.9868 25.268 17.3314 25.268C16.9417 25.268 16.6031 25.1714 16.3973 25.094V16.2568C16.6305 16.1406 17.0266 16.0486 17.4171 16.0486Z" fill="#FAB80A"/>
    </g>
    <defs>
        <clipPath id="clip0_41_3246">
            <rect width="33.7159" height="40" fill="white" transform="translate(0.14209 0.736328)"/>
        </clipPath>
    </defs>
</svg>
