<svg width="160" height="30" viewBox="0 0 160 30" fill="none" xmlns="http://www.w3.org/2000/svg">
    <g clip-path="url(#clip0_41_3251)">
        <path d="M0 0.736328V23.0689L18.9155 29.5051L37.8306 23.0689V0.736328H0Z" fill="#D62A43"/>
        <path d="M18.9039 22.3669H13.1205V20.3686H13.0613C11.9416 21.9437 10.3354 22.7604 7.94329 22.7604C5.12885 22.7604 2.55347 21.0346 2.55347 17.431V6.65137H8.54916V14.8879C8.54916 16.7058 8.75917 17.9756 10.5167 17.9756C11.5463 17.9756 12.9085 17.4612 12.9085 14.9486V6.65165H18.9039V22.3669Z" fill="white"/>
        <path d="M30.0786 11.2256C30.0487 10.7101 29.7771 10.3165 29.3833 10.0441C29.0193 9.74142 28.5337 9.58981 28.051 9.58981C27.2009 9.58981 26.2328 9.77249 26.2328 10.8015C26.2328 11.2567 26.5967 11.4675 26.9296 11.6177C27.9293 12.0423 30.1994 12.1632 32.1983 12.8283C34.1969 13.4647 35.9532 14.6459 35.9532 17.2204C35.9532 21.5789 31.7751 22.761 27.9589 22.761C24.2647 22.761 20.2069 21.278 20.1174 17.2204H25.8384C25.8695 17.7653 26.1117 18.219 26.5668 18.6117C26.8686 18.885 27.4454 19.0671 28.1704 19.0671C28.9581 19.0671 30.1992 18.7653 30.1992 17.8548C30.1992 16.9471 29.6845 16.6747 26.8985 16.1902C22.3272 15.4037 20.4802 13.9506 20.4802 11.2567C20.4802 7.28975 24.7501 6.25781 27.8988 6.25781C31.2901 6.25781 35.3778 7.19941 35.5271 11.2259L30.0786 11.2256Z" fill="white"/>
        <path d="M39.9822 0.748047H45.9773V8.37896H46.0386C46.9462 7.04668 48.5507 6.25784 50.3372 6.25784C55.6056 6.25784 57.0288 10.7409 57.0288 14.4345C57.0288 18.3712 54.8795 22.7607 50.4293 22.7607C47.4917 22.7607 46.5817 21.6402 45.8263 20.6411H45.765V22.3669H39.9822V0.748047ZM48.3993 10.6195C46.2494 10.6195 45.7647 12.6482 45.7647 14.4955C45.7647 16.3726 46.2497 18.4006 48.3993 18.4006C50.5495 18.4006 51.0334 16.3726 51.0334 14.4955C51.0337 12.648 50.5495 10.6195 48.3993 10.6195Z" fill="#00458D"/>
        <path d="M73.7422 18.8561C73.7422 20.0359 73.8011 21.369 74.4691 22.367H68.3529C68.2022 21.9438 68.1095 21.3071 68.1403 20.8828H68.0805C66.8089 22.3359 64.9625 22.7608 63.0255 22.7608C59.9985 22.7608 57.4861 21.3074 57.4861 18.0079C57.4861 13.0419 63.2979 13.2226 66.3543 12.6489C67.1722 12.4976 67.9898 12.2542 67.9898 11.2565C67.9898 10.1964 66.9913 9.8031 66.0223 9.8031C64.1765 9.8031 63.8126 10.741 63.7818 11.4055H58.2111C58.3935 6.98693 62.5721 6.25879 66.2942 6.25879C73.8014 6.25879 73.7424 9.3779 73.7424 12.4058V18.8561M67.9898 15.3132C67.262 15.6748 66.4458 15.8874 65.6299 16.0701C64.2974 16.373 63.6012 16.7059 63.6012 17.7649C63.6012 18.4916 64.3874 19.2177 65.4775 19.2177C66.8397 19.2177 67.8992 18.4001 67.9898 16.7651V15.3132Z" fill="#00458D"/>
        <path d="M75.8896 6.65263H81.6707V8.65206H81.7323C82.8528 7.07611 84.4564 6.25879 86.8494 6.25879C89.6641 6.25879 92.2392 7.98491 92.2392 11.5879V22.3679H86.245V14.1314C86.245 12.3161 86.0315 11.0433 84.2772 11.0433C83.2475 11.0433 81.8833 11.558 81.8833 14.0704V22.3679H75.8899V6.65263" fill="#00458D"/>
        <path d="M104.17 12.6183C104.111 11.9808 103.9 11.4684 103.504 11.1353C103.142 10.8015 102.625 10.6194 101.991 10.6194C99.6888 10.6194 99.3577 12.6183 99.3577 14.5257C99.3577 16.4333 99.6888 18.4005 101.991 18.4005C103.292 18.4005 104.201 17.341 104.322 16.0993H110.046C109.47 20.3692 106.11 22.761 101.868 22.761C97.1465 22.761 93.3625 19.4894 93.3625 14.5257C93.3625 9.55931 97.1465 6.25781 101.868 6.25781C105.988 6.25781 109.499 8.28774 109.864 12.6183H104.17Z" fill="#00458D"/>
        <path d="M119.55 22.7607C113.646 22.7607 110.982 18.8548 110.982 14.4952C110.982 10.1335 113.646 6.25781 119.55 6.25781C125.454 6.25781 128.12 10.1335 128.12 14.4952C128.12 18.8548 125.454 22.7607 119.55 22.7607ZM119.55 10.6192C117.28 10.6192 116.978 12.8283 116.978 14.4952C116.978 16.1612 117.28 18.4002 119.55 18.4002C121.822 18.4002 122.125 16.1612 122.125 14.4952C122.125 12.828 121.822 10.6192 119.55 10.6192Z" fill="#00458D"/>
        <path d="M129.45 6.65263H135.203V9.16587H135.264C136.233 7.28957 137.504 6.25879 139.684 6.25879C140.291 6.25879 140.866 6.35027 141.441 6.50189V11.8002C140.837 11.5879 140.291 11.4064 139.078 11.4064C136.718 11.4064 135.445 12.7985 135.445 16.1604V22.3679H129.45V6.65263" fill="#00458D"/>
        <path d="M142.951 6.65223H148.735V8.37836H148.796C149.554 7.38008 150.46 6.25781 153.397 6.25781C157.849 6.25781 160 10.6485 160 14.5852C160 18.28 158.576 22.7604 153.308 22.7604C151.52 22.7604 149.918 21.9745 149.008 20.6416H148.945V27.4529H142.951V6.65223M151.368 18.4C153.521 18.4 154.006 16.372 154.006 14.5245C154.006 12.6485 153.521 10.6189 151.368 10.6189C149.219 10.6189 148.735 12.6485 148.735 14.5245C148.735 16.3723 149.219 18.4 151.368 18.4Z" fill="#00458D"/>
    </g>
    <defs>
        <clipPath id="clip0_41_3251">
            <rect width="160" height="28.7688" fill="white" transform="translate(0 0.736328)"/>
        </clipPath>
    </defs>
</svg>
