<svg width="40" height="40" viewBox="0 0 40 40" fill="none" xmlns="http://www.w3.org/2000/svg">
<g clip-path="url(#clip0_203_173)">
<path d="M20 39.7938C30.9318 39.7938 39.7938 30.9318 39.7938 20C39.7938 9.06817 30.9318 0.206177 20 0.206177C9.06817 0.206177 0.206177 9.06817 0.206177 20C0.206177 30.9318 9.06817 39.7938 20 39.7938Z" fill="#50AF00"/>
<path d="M21.5258 18.5155V15.0515H24.3299C25.1547 15.0515 25.8557 14.3505 25.8557 13.5258C25.8557 12.701 25.1959 11.9588 24.3299 11.9588H21.5258V11.5876C21.5258 10.7629 20.8248 10.0619 20 10.0619C19.1753 10.0619 18.4742 10.7629 18.4742 11.5876V11.9588C16.0413 12.165 14.1443 14.2268 14.1443 16.701C14.1443 19.1753 16.0413 21.2371 18.4742 21.4433V24.9072H15.6701C14.8454 24.9072 14.1443 25.6082 14.1443 26.433C14.1443 27.2577 14.8454 27.9588 15.6701 27.9588H18.4742V28.3299C18.4742 29.1546 19.1753 29.8557 20 29.8557C20.8248 29.8557 21.5258 29.1546 21.5258 28.3299V27.9588C23.9588 27.7526 25.8557 25.6907 25.8557 23.2165C25.8557 20.7423 23.9588 18.7217 21.5258 18.5155ZM21.5258 24.9072V21.567C22.2681 21.7732 22.8041 22.433 22.8041 23.2577C22.8041 24.0412 22.2681 24.7423 21.5258 24.9072ZM18.4742 15.0928V18.433C17.732 18.2268 17.1959 17.567 17.1959 16.7423C17.1959 15.9588 17.732 15.2577 18.4742 15.0928Z" fill="white"/>
</g>
<defs>
<clipPath id="clip0_203_173">
<rect width="40" height="40" fill="white"/>
</clipPath>
</defs>
</svg>
