<svg width="66" height="22" viewBox="0 0 66 22" fill="none" xmlns="http://www.w3.org/2000/svg">
    <g clip-path="url(#clip0_722_32)">
        <path d="M7.24689 0.00708008C6.2239 0.141858 5.22026 0.418576 4.26986 0.872908C-5.21427 5.38797 3.03226 21.4556 10.4374 21.7121C18.5949 21.9903 29.0052 10.9177 24.5635 6.8744C24.1741 6.51789 23.5224 5.99081 22.6776 5.37996C21.1728 10.5407 17.7133 18.8142 11.1728 18.2251C0.659046 17.2751 6.2173 2.53743 7.24689 0.00708008ZM12.7621 0.469646C11.7391 3.09999 8.28035 12.8057 12.1809 14.7143C16.6953 16.9229 20.2438 8.85258 21.7288 4.71576C19.4386 3.17234 16.1875 1.36309 12.7621 0.469646Z" fill="#6EC72D"/>
        <path d="M46.5604 0.649414C46.0655 0.649414 45.6709 1.04333 45.6709 1.53896C45.6709 2.03242 46.0654 2.42851 46.5604 2.42851C47.0554 2.42851 47.45 2.03242 47.45 1.53896C47.45 1.04333 47.0554 0.649414 46.5604 0.649414ZM29.398 1.34919L28.5559 5.82066C28.0807 8.4097 28.6768 10.4463 31.3432 10.4463C34.0096 10.4463 35.2615 9.06502 35.8621 5.83252L36.6924 1.34919H34.7235L33.7272 6.72207C33.4302 8.23072 32.7986 9.0942 31.6634 9.0942C30.4754 9.0942 30.1515 7.92756 30.3825 6.71021L31.3788 1.34919H29.398ZM49.2884 1.34919L48.0549 7.99116C47.7117 9.83893 48.3705 10.4463 49.5849 10.4463C50.1195 10.4463 50.8293 10.294 51.4233 9.92445L51.1387 9.29584C50.3533 9.57191 49.3761 9.73847 49.7391 7.77767L50.3677 4.3618H52.0282L52.1943 3.41295H50.5456L50.937 1.34919H49.2884ZM64.3515 1.34919L63.8889 3.87551C63.5457 3.46466 62.8856 3.2469 62.3114 3.2469C60.1664 3.2469 58.6583 5.61157 58.6583 7.89628C58.6583 9.25058 59.6115 10.4463 61.0305 10.4463C64.0533 10.4463 64.7699 7.99217 65.1461 5.97485L66.0001 1.34919H64.3515ZM40.7369 3.2469C38.5391 3.2469 37.5023 4.37936 37.0007 7.04231L36.3958 10.2803H38.0326L38.768 6.30695C39.0188 5.06569 39.5572 4.3618 40.4878 4.3618C41.4712 4.3618 41.7348 5.31667 41.5434 6.31881L40.808 10.2803H42.4567L43.0615 7.06603C43.4575 4.9335 42.9346 3.2469 40.7369 3.2469ZM56.5234 3.2469C53.8174 3.2469 52.2061 5.98429 52.2061 7.90814C52.2061 9.55808 53.1437 10.4463 54.4241 10.4463C55.1633 10.4463 56.2686 10.3354 57.3774 9.50933L57.0927 8.88071C56.4195 9.33287 55.5647 9.40987 55.1357 9.3077C53.9741 9.02945 53.9562 8.06393 54.009 7.45743C55.5203 7.40091 58.2551 6.6462 58.2551 4.67018C58.2551 3.67891 57.2956 3.2469 56.5234 3.2469ZM45.3862 3.41295L44.1053 10.2803H45.7539L47.0349 3.41295H45.3862ZM62.5012 4.21947C63.1414 4.21947 63.4153 4.46095 63.6991 4.87181C63.0127 8.5456 62.2023 9.52119 61.2321 9.52119C60.6381 9.52119 60.307 8.87885 60.307 7.89628C60.307 6.01591 61.498 4.21947 62.5012 4.21947ZM56.0964 4.29064C56.5386 4.29064 56.725 4.541 56.725 4.91925C56.725 5.7714 55.4766 6.52307 54.1038 6.73393C54.4998 5.2405 55.2054 4.29064 56.0964 4.29064ZM41.0096 12.9252C40.6268 12.9252 40.3099 13.238 40.3099 13.625C40.3099 14.0141 40.6268 14.3248 41.0096 14.3248C41.399 14.3248 41.7213 14.0141 41.7213 13.625C41.7213 13.238 41.399 12.9252 41.0096 12.9252ZM47.1891 12.9252C46.7997 12.9252 46.4893 13.238 46.4893 13.625C46.4893 14.0141 46.7997 14.3248 47.1891 14.3248C47.5785 14.3248 47.8888 14.0141 47.8888 13.625C47.8888 13.238 47.5785 12.9252 47.1891 12.9252ZM53.7124 12.9252C53.323 12.9252 53.0127 13.238 53.0127 13.625C53.0127 14.0141 53.323 14.3248 53.7124 14.3248C54.1018 14.3248 54.4122 14.0141 54.4122 13.625C54.4122 13.238 54.1018 12.9252 53.7124 12.9252ZM29.1015 13.4708L28.4729 16.8036C28.0769 18.9362 28.5998 20.6228 30.7976 20.6228C32.9954 20.6228 34.044 19.4763 34.5456 16.8155L35.1623 13.4708H33.5137L32.7665 17.5509C32.5157 18.7921 31.9773 19.496 31.0467 19.496C30.0633 19.496 29.7997 18.553 29.9911 17.5509L30.7502 13.4708H29.1015ZM36.7161 13.4708L35.7435 18.6895C35.4729 20.1416 36.0029 20.6228 36.9533 20.6228C37.3757 20.6228 37.9264 20.4989 38.3884 20.2076L38.1749 19.7095C37.5611 19.9269 36.7815 20.055 37.0719 18.5116L37.5701 15.8429H38.8747L39.0052 15.0957H37.7124L38.0089 13.4708H36.7161ZM43.3462 13.4708L42.3736 18.6895C42.103 20.1416 42.6212 20.6228 43.5716 20.6228C43.9016 20.6228 44.2984 20.5122 44.6746 20.3144L44.4492 19.8162C43.9344 19.9597 43.4182 19.8637 43.702 18.5116L44.639 13.4708H43.3462ZM49.3951 13.4708L48.4226 18.6895C48.152 20.1416 48.682 20.6228 49.6324 20.6228C50.0548 20.6228 50.6055 20.4989 51.0675 20.2076L50.854 19.7095C50.2402 19.9269 49.4606 20.055 49.751 18.5116L50.2491 15.8429H51.5538L51.6843 15.0957H50.3914L50.688 13.4708H49.3951ZM58.0416 14.9534C55.9098 14.9534 54.6494 17.1172 54.6494 18.6302C54.6494 19.9258 55.3832 20.6228 56.393 20.6228C56.9737 20.6228 57.8398 20.5277 58.7176 19.8755L58.4923 19.3893C57.9577 19.7436 57.287 19.804 56.9504 19.7214C56.033 19.504 56.0212 18.7504 56.0609 18.2744C57.2488 18.2309 59.4056 17.6344 59.4056 16.0801C59.4056 15.3019 58.6422 14.9534 58.0416 14.9534ZM61.9675 14.9534C61.3603 14.9534 60.1172 15.4643 60.1172 16.6969C60.1172 17.9055 61.9793 18.2218 61.9793 19.1283C61.9793 19.8435 60.7093 20.1523 59.6665 19.3893L59.453 19.8755C59.9216 20.2777 60.6551 20.6228 61.3151 20.6228C62.8661 20.6228 63.4975 19.6994 63.4975 18.9386C63.4975 17.4277 61.6235 17.2813 61.6235 16.3292C61.6235 15.8705 62.2473 15.2976 63.5805 16.0801L63.8177 15.582C63.0785 15.0603 62.5351 14.9534 61.9675 14.9534ZM40.0845 15.0957L39.0882 20.4923H40.3929L41.3892 15.0957H40.0845ZM46.2639 15.0957L45.2558 20.4923H46.5486L47.5567 15.0957H46.2639ZM52.7873 15.0957L51.791 20.4923H53.0838L54.0801 15.0957H52.7873ZM57.7095 15.7836C58.0527 15.7836 58.1958 15.997 58.1958 16.2818C58.1958 16.9383 57.2197 17.5377 56.1439 17.705C56.4541 16.5312 57.0099 15.7836 57.7095 15.7836Z" fill="#263D96"/>
    </g>
    <defs>
        <clipPath id="clip0_722_32">
            <rect width="66" height="21.7207" fill="white"/>
        </clipPath>
    </defs>
</svg>
