<?xml version="1.0" encoding="UTF-8"?>
<svg width="512px" height="512px" viewBox="0 0 512 512" version="1.1" xmlns="http://www.w3.org/2000/svg" xmlns:xlink="http://www.w3.org/1999/xlink">
    <!-- Generator: Sketch 48.1 (47250) - http://www.bohemiancoding.com/sketch -->
    <title>#V</title>
    <desc>Created with Sketch.</desc>
    <defs></defs>
    <g id="Компании-BIG" stroke="none" stroke-width="1" fill="none" fill-rule="evenodd">
        <g id="#V" fill-rule="nonzero">
            <g id="visa" transform="translate(0.000000, 185.000000)">
                <g id="Group" fill="#2566AF">
                    <path d="M222.244923,163.247711 L180.594594,163.247711 L206.625515,3.55831618 L248.280123,3.55831618 L222.244923,163.247711 Z M145.555768,3.55831618 L105.848237,113.393898 L101.149576,89.7420639 L101.153856,89.7506071 L87.1391811,17.9365128 C87.1391811,17.9365128 85.4445822,3.55831618 67.3816994,3.55831618 L1.73739172,3.55831618 L0.967119527,6.26223729 C0.967119527,6.26223729 21.0412686,10.4313163 44.5345704,24.5147727 L80.7202462,163.251982 L124.116525,163.251982 L190.38133,3.55831618 L145.555768,3.55831618 Z M473.156809,163.247711 L511.400824,163.247711 L478.056596,3.55404458 L444.575432,3.55404458 C429.114357,3.55404458 425.348582,15.4547147 425.348582,15.4547147 L363.230409,163.247711 L406.648085,163.247711 L415.330764,139.527531 L468.278419,139.527531 L473.156809,163.247711 Z M427.325614,106.760108 L449.209903,47.000461 L461.52142,106.760108 L427.325614,106.760108 Z M366.486949,41.9599762 L372.430883,7.66759281 C372.430883,7.66759281 354.089846,0.704889163 334.969979,0.704889163 C314.301008,0.704889163 265.217553,9.72223112 265.217553,53.5701777 C265.217553,94.8252647 322.825354,95.3378564 322.825354,117.00767 C322.825354,138.677483 271.152928,134.794601 254.099957,121.129761 L247.907825,156.985549 C247.907825,156.985549 266.505619,166.002891 294.920104,166.002891 C323.343148,166.002891 366.221633,151.312868 366.221633,111.330717 C366.221633,69.8107908 308.096038,65.9449952 308.096038,47.8932249 C308.100317,29.8371829 348.663707,32.1566603 366.486949,41.9599762 Z" id="Shape"></path>
                </g>
                <path d="M102.689266,89.6723164 L88.729164,17.3688343 C88.729164,17.3688343 87.0411639,2.89265537 69.0486177,2.89265537 L3.65992813,2.89265537 L2.89265537,5.61500275 C2.89265537,5.61500275 34.3210001,12.1864827 64.4662943,36.8080289 C93.2901742,60.3414963 102.689266,89.6723164 102.689266,89.6723164 Z" id="Shape" fill="#E6A540"></path>
            </g>
        </g>
    </g>
</svg>