<svg width="102" height="41" viewBox="0 0 102 41" fill="none" xmlns="http://www.w3.org/2000/svg">
    <g clip-path="url(#clip0_41_3288)">
        <path fill-rule="evenodd" clip-rule="evenodd" d="M47.1617 12.5248C40.3454 17.6419 34.0369 17.091 28.2324 10.8723C39.998 6.36291 46.1966 -0.604619 52.2357 5.36939L47.7565 11.7778H47.7492L47.7483 11.787H47.741V11.7879L47.74 11.798H47.7318V11.7998H47.7263V11.8007H47.7235C47.719 11.8007 47.7208 11.8062 47.7171 11.8062V11.809L47.7162 11.8117H47.7144L47.7135 11.8172H47.7116L47.7098 11.8209C47.7098 11.8237 47.7061 11.8237 47.7061 11.8264H47.7043V11.8292L47.7034 11.831C47.6961 11.831 47.6896 11.8429 47.686 11.8429V11.8438H47.6841L47.6832 11.8475H47.6851V11.8493H47.6832L47.6796 11.8557L47.6713 11.8612V11.864H47.6695C47.6695 11.8695 47.6576 11.8841 47.653 11.8869V11.8887L47.6511 11.8896V11.9034H47.6484V11.9071H47.6466V11.9089L47.6456 11.9098V11.9135L47.6411 11.9153L47.6392 11.9162L47.6346 11.919V11.9208C47.6319 11.9226 47.6301 11.9245 47.6301 11.9291H47.6291L47.6273 11.9327L47.6154 11.9373V11.9391L47.6126 11.941C47.6044 11.9456 47.5613 12.006 47.5531 12.018L47.5512 12.0216H47.5494C47.5494 12.0271 47.543 12.0335 47.543 12.0418L47.5421 12.0455C47.5338 12.0491 47.5173 12.0675 47.5082 12.0675V12.0711C47.4907 12.0794 47.477 12.095 47.4578 12.1023V12.105H47.4513V12.1078H47.4486L47.4458 12.1133C47.4422 12.1133 47.4413 12.116 47.4376 12.116V12.1188L47.4229 12.127V12.1325H47.4202V12.1344C47.4156 12.138 47.3954 12.1536 47.3918 12.1536L47.3808 12.1683H47.378V12.171L47.3734 12.1784V12.1811H47.3679C47.3679 12.2975 47.2039 12.3406 47.2039 12.4157H47.2011C47.2011 12.424 47.1819 12.4414 47.1819 12.4524H47.1791C47.1764 12.4561 47.1672 12.4662 47.1672 12.4698H47.1645C47.1562 12.4781 47.1617 12.5147 47.1617 12.5248Z" fill="#ECB833"/>
        <path fill-rule="evenodd" clip-rule="evenodd" d="M47.7657 11.7645C29.9913 27.8525 23.021 -10.2013 0.895752 4.20029L25.8275 39.6887" fill="#00939A"/>
        <path fill-rule="evenodd" clip-rule="evenodd" d="M51.8618 21.7901L57.9476 34.9855L59.3454 34.9745L64.6915 21.7085L62.3076 21.627L58.6882 31.4312L54.3282 21.7085" fill="#77787B"/>
        <path fill-rule="evenodd" clip-rule="evenodd" d="M71.1191 21.6953L65.4346 34.8798L68.0536 34.9691L69.125 31.6656H74.7203L75.7917 34.8798L78.3512 34.9691L72.9941 21.6953H71.1191ZM72.131 24.9691L73.6191 29.612H70.256L72.131 24.9691Z" fill="#77787B"/>
        <path d="M82.0471 34.8096V22.2246H84.376V32.6713H90.1667V34.8096" fill="#77787B"/>
        <path d="M93.0776 34.728V21.9561H100.614V22.9432C100.065 23.2869 99.5447 23.7204 99.0351 24.1173H95.0757V26.9484H100.043V29.0996H95.0757V32.5751H100.602V34.728" fill="#77787B"/>
    </g>
    <defs>
        <clipPath id="clip0_41_3288">
            <rect width="100.952" height="40" fill="white" transform="translate(0.523926 0.504883)"/>
        </clipPath>
    </defs>
</svg>
