<svg width="40" height="41" viewBox="0 0 40 41" fill="none" xmlns="http://www.w3.org/2000/svg">
    <g clip-path="url(#clip0_41_3297)">
        <path fill-rule="evenodd" clip-rule="evenodd" d="M37.669 11.2229L36.1317 14.981L28.1226 14.9859L29.6777 11.1284H37.6206C34.263 4.83319 27.6334 0.545898 20 0.545898C12.3671 0.545898 5.73786 4.83186 2.38023 11.1271H8.41153C9.57229 11.1271 10.2806 11.6784 10.5219 12.4479L15.2873 25.9281L15.7686 27.4388L16.3243 25.8638L20.5336 15.0808C21.3971 13.005 21.4961 11.1271 25.9018 11.1271H27.4852L23.5683 20.6987H33.4074L31.8275 24.5531L21.9897 24.5567L17.1782 36.3137H14.2415L5.21625 13.9839C4.63121 12.6147 3.79292 12.1082 2.06754 11.7365C0.730209 14.466 0.0367647 17.4658 0.0405427 20.5053C0.0405427 31.5287 8.97661 40.4648 20 40.4648C31.0234 40.4648 39.9594 31.5287 39.9594 20.5053C39.963 17.2709 39.1768 14.0844 37.669 11.2229Z" fill="#004C97"/>
    </g>
    <defs>
        <clipPath id="clip0_41_3297">
            <rect width="40" height="40" fill="white" transform="translate(0 0.504883)"/>
        </clipPath>
    </defs>
</svg>
