<svg width="54" height="41" viewBox="0 0 54 41" fill="none" xmlns="http://www.w3.org/2000/svg">
    <path d="M11.7477 5.04883C11.7477 3.9136 11.3145 2.85306 10.3734 1.59833C9.94027 1.01578 9.50709 0.53779 9.4324 0.507916C9.34278 0.478042 9.14859 0.672225 8.99922 0.941095C8.83491 1.20997 8.31211 2.06139 7.81918 2.82318C6.99763 4.10778 6.93789 4.25716 7.01257 4.86958C7.05738 5.28782 7.23663 5.75088 7.5055 6.09443L7.92374 6.66205L7.20676 6.01975C6.77358 5.64632 6.16115 5.30276 5.71303 5.15339C4.86161 4.89946 2.14304 4.70527 1.54555 4.85465L1.15718 4.94427L1.73974 6.18406C1.93752 6.60787 2.16499 7.10889 2.35101 7.51861C2.46002 7.75871 2.5548 7.96746 2.62103 8.11096C2.96459 8.94744 3.5322 9.33581 4.71224 9.58974C5.54873 9.75405 7.86399 9.64949 7.625 9.44037C7.55031 9.38062 7.1022 9.21631 6.63914 9.06694C6.01178 8.88769 5.56366 8.60389 4.99605 8.08108L4.20438 7.33422L5.08567 7.85703C5.56366 8.14083 6.29559 8.42464 6.72877 8.51426C7.83412 8.72338 9.35772 8.81301 9.35772 8.67857C9.35772 8.60389 9.08885 8.21552 8.76023 7.79728C8.10299 6.96079 8.10299 6.84129 8.7901 7.40891C9.4324 7.94665 9.50709 7.87196 9.11872 7.06535C8.84985 6.54255 8.77516 6.12431 8.77516 5.39239C8.7901 3.88373 8.98428 3.46548 9.10378 4.63059C9.16353 5.16833 9.34278 5.88531 9.52202 6.22887C9.86558 6.96079 10.8066 8.23046 10.9859 8.23046C11.2099 8.23046 11.7477 5.94506 11.7477 5.04883Z" fill="#E02F79"/>
    <path d="M13.4057 8.97732C13.7044 8.97732 15.0787 8.08108 15.6762 7.51347C16.423 6.78155 16.8413 5.63138 16.9458 4.00322C16.9757 3.28624 16.9906 2.70369 16.9608 2.71862C16.9432 2.72742 16.6666 2.79318 16.2532 2.89151C15.9644 2.96018 15.6088 3.04474 15.228 3.13687C14.3169 3.36092 13.3758 3.67461 13.1667 3.80904C12.614 4.16753 12.1958 5.1982 12.0912 6.43799C12.0016 7.57322 12.1958 7.84209 12.4796 6.99067C12.7783 6.16912 13.3161 5.48201 13.9883 5.10858L14.6156 4.76502L14.0779 5.54176C13.7941 5.96 13.4804 6.55749 13.3908 6.85623C13.1816 7.61803 13.1966 8.97732 13.4057 8.97732Z" fill="#E02F79"/>
    <path d="M49.0907 11.4868C44.9232 8.0064 40.3375 6.03469 34.3925 5.16833C32.361 4.86958 28.4176 4.76502 26.5355 4.95921C20.0528 5.61644 13.8538 8.2902 9.65646 12.2336C8.05818 13.7274 6.32546 15.6692 7.28144 14.8775C7.59512 14.6236 8.50629 13.8767 9.32784 13.1896C12.5692 10.5457 15.3625 8.96238 18.8578 7.78234C26.9089 5.10858 35.8115 5.46707 42.3241 8.72338C45.0875 10.1125 48.9264 13.0402 50.9877 15.3256C51.6748 16.0874 51.9885 16.3264 52.3918 16.3862C52.6756 16.416 52.9893 16.3862 53.1088 16.3115C53.2881 16.192 53.2731 16.1024 53.0341 15.7289C52.3918 14.7132 50.4351 12.6071 49.0907 11.4868Z" fill="#E02F79"/>
    <path d="M6.89307 10.3217C7.41588 10.3217 7.05738 10.0528 6.43002 9.96317C5.0558 9.78393 4.02513 9.90342 3.11396 10.3814C2.75547 10.5607 2.4866 10.9341 2.03848 11.8154C1.70986 12.4577 1.23187 13.2344 0.963001 13.5332C0.574633 13.9813 0.529822 14.1008 0.709068 14.2203C0.977938 14.3846 4.62262 14.3846 5.36948 14.2203C6.19103 14.0261 7.02751 13.3838 8.07311 12.1888L8.96935 11.1432L7.84906 11.0984C6.44496 11.0387 5.39935 11.2627 4.50312 11.8303L3.80107 12.2784L4.11475 11.8303C4.294 11.5764 4.62262 11.2478 4.84668 11.0984C5.26492 10.7847 6.51964 10.3217 6.89307 10.3217Z" fill="#E02F79"/>
    <path d="M9.83571 18.2234C9.28303 17.5961 8.23742 17.1032 6.83333 16.8194C5.48898 16.5505 3.68157 16.3862 3.68157 16.5355C3.68157 16.6102 3.96538 16.8642 4.32387 17.0882C4.66743 17.3272 5.0558 17.6708 5.20517 17.85C5.66822 18.4774 7.49056 22.6598 11.0157 31.2188C12.3302 34.3706 13.57 37.2535 13.7791 37.6269C15.467 40.4948 18.5142 41.3463 20.7399 39.5687C21.7108 38.8069 22.6369 37.1638 21.9498 37.4327C21.2179 37.7016 20.0826 37.8211 19.5897 37.6568C18.5441 37.3132 18.1707 36.6112 15.1235 29.516C11.7775 21.7038 10.4929 18.9703 9.83571 18.2234Z" fill="#E02F79"/>
    <path d="M36.3791 20.703C37.589 17.9994 37.9326 17.4915 39.0828 16.7148L39.4562 16.4609L38.8587 16.4758C36.6779 16.5355 34.2879 17.148 33.4066 17.8799C32.6299 18.5371 31.6739 20.5387 27.6259 29.9641C24.6534 36.88 23.6526 38.8816 22.7564 39.7032C22.4427 39.987 22.2187 40.2708 22.2784 40.3156C22.5025 40.5396 25.2808 40.4202 26.3115 40.1363C27.1927 39.8973 27.4766 39.7181 28.1039 39.0907C29.0599 38.1198 29.269 37.6717 32.4955 29.8745C33.9593 26.3045 35.707 22.1818 36.3791 20.703Z" fill="#E02F79"/>
    <path d="M45.2668 17.1181C45.6402 16.8642 45.9539 16.6252 45.9539 16.5505C45.9539 16.2965 42.7723 16.7148 41.5026 17.133C39.9939 17.6558 39.7549 17.9247 38.3957 20.703C37.7235 22.0922 35.946 26.0804 34.4522 29.5608C30.9271 37.836 30.1802 39.2999 29.1645 39.9123L28.7163 40.1812L29.1346 40.3455C30.1802 40.7338 32.9137 40.3753 34.0937 39.6733C34.7062 39.3148 35.5277 38.3439 36.0057 37.4028C36.1216 37.1839 37.1031 34.8231 38.319 31.8987C38.5136 31.4304 38.7143 30.9477 38.9185 30.457C41.7416 23.6158 43.8477 18.7612 44.3108 18.0143C44.4751 17.7604 44.8933 17.3571 45.2668 17.1181Z" fill="#E02F79"/>
    <path d="M32.2863 16.8343L31.9129 16.7297C31.0764 16.4907 28.7612 16.7148 27.5214 17.148C25.8633 17.7455 25.4451 18.4475 22.0992 26.648C19.8586 32.1599 19.0818 33.9075 18.7233 34.1913C18.574 34.3258 18.32 34.3556 18.0213 34.2959C17.5881 34.2063 17.5732 34.2063 17.7076 34.5797C18.2902 36.0884 19.2312 37.2385 20.0528 37.4476C21.0984 37.7165 22.144 37.134 22.9058 35.8494C23.1597 35.4012 24.997 31.2487 26.9836 26.6032C29.2541 21.2856 30.7478 17.9994 30.9868 17.7455C31.2109 17.5065 31.5992 17.2077 31.8382 17.0733L32.2863 16.8343Z" fill="#E02F79"/>
    <path d="M51.3014 28.0372C54.1992 24.1386 54.0648 18.9255 51.0176 17.2675C50.3454 16.909 50.0168 16.8343 49.016 16.7895C47.7912 16.7447 47.4177 16.8194 46.5962 17.2376C46.0883 17.5065 45.2817 18.2533 45.0577 18.7014C44.9232 18.9554 44.983 18.9404 45.5954 18.6118C47.0294 17.85 48.3289 18.2981 49.1355 19.8068C49.6135 20.6881 49.5986 23.1826 49.1056 24.4075C48.3737 26.2746 46.6111 28.4256 45.1921 29.1575C44.266 29.6504 42.4287 29.6504 41.4877 29.1874C41.1142 29.0081 40.7856 28.8886 40.7408 28.9185C40.6064 29.0679 42.0403 30.2927 42.7424 30.6213C45.5207 31.9209 49.2401 30.8006 51.3014 28.0372Z" fill="#E02F79"/>
</svg>
