<svg width="124" height="40" viewBox="0 0 124 40" fill="none" xmlns="http://www.w3.org/2000/svg">
<g clip-path="url(#clip0_115_8671)">
<path d="M16.251 11.1069L10.4828 25.1069H6.73298L0.983154 11.1069H5.09841L8.75197 20.2269L12.4821 11.1069H16.251ZM19.4577 25.1069H23.2652V11.1069H19.4577V25.1069ZM32.2015 25.1069H28.394V11.1069H34.5479C35.6389 11.0824 36.722 11.2976 37.7208 11.7374C38.5745 12.1208 39.2966 12.7468 39.7974 13.5374C40.2971 14.3661 40.5511 15.3197 40.5296 16.2872C40.55 17.2163 40.3138 18.1331 39.8469 18.9367C39.3784 19.7007 38.7011 20.3146 37.895 20.7062L40.7981 25.1055H36.7208L34.2801 21.3855H32.2015V25.1069ZM32.2015 14.2269V18.3272H34.3174C34.952 18.3729 35.5813 18.1842 36.0862 17.797C36.2896 17.604 36.4483 17.3689 36.5512 17.1081C36.6542 16.8473 36.6989 16.5671 36.6821 16.2872C36.698 16.006 36.653 15.7247 36.5501 15.4624C36.4473 15.2002 36.289 14.9633 36.0862 14.7679C35.5845 14.3735 34.9539 14.1801 34.3174 14.2255L32.2015 14.2269ZM47.7167 14.2465H43.5811V11.1069H55.6374V14.2465H51.5221V25.1069H47.7167V14.2465ZM60.815 23.6872C59.7065 22.5543 59.152 20.9475 59.152 18.8675V11.1069H62.9594V18.7475C62.9594 20.9869 63.8116 22.1069 65.5167 22.1069C67.2096 22.1069 68.0557 20.9869 68.0557 18.7475V11.1069H71.8048V18.8675C71.8048 20.9469 71.2503 22.553 70.1418 23.6872C69.5226 24.2751 68.7892 24.7294 67.987 25.0218C67.1848 25.3142 66.331 25.4385 65.4787 25.3869C64.6265 25.4385 63.7727 25.3143 62.9705 25.0219C62.1683 24.7295 61.4341 24.2752 60.815 23.6872ZM6.25095 32.6662V35.5326H10.215V36.5428H6.25095V39.8648H5.12146V31.6445H10.7004V32.6662H6.25095ZM13.9459 39.8669H15.0754V31.6445H13.9459V39.8669ZM25.8977 31.6445V39.8669H24.9716L20.2259 33.7353V39.8669H19.0991V31.6445H20.0252L24.771 37.7753V31.6445H25.9004M46.6421 31.6445V39.8669H45.716L40.9703 33.7353V39.8669H39.8435V31.6445H40.7696L45.5154 37.7753V31.6445H46.6442M29.8896 39.8669H28.7262L32.3065 31.6445H33.4245L37.0177 39.8662H35.8299L34.9635 37.814H30.7601L29.8896 39.8669ZM32.8618 32.8425L31.1547 36.8716H34.5655L32.8618 32.8425ZM52.0618 39.4147C51.4345 39.0601 50.9166 38.5399 50.5649 37.9109C50.1977 37.252 50.0106 36.5079 50.0225 35.7536C50.011 34.9999 50.198 34.2563 50.5649 33.5977C50.9185 32.969 51.4382 32.4498 52.0672 32.0967C52.7219 31.7287 53.4621 31.5402 54.213 31.5503C54.794 31.543 55.3704 31.653 55.9079 31.8736C56.414 32.0848 56.8631 32.4126 57.2184 32.8303L56.4828 33.5706C56.2048 33.2565 55.8618 33.0066 55.4776 32.8383C55.0934 32.6699 54.6771 32.5871 54.2577 32.5957C53.7001 32.5884 53.1507 32.7305 52.6665 33.0072C52.198 33.2749 51.8127 33.667 51.5533 34.1401C51.2828 34.6344 51.1446 35.1902 51.152 35.7536C51.1443 36.3176 51.2825 36.8739 51.5533 37.3686C51.8123 37.8431 52.1974 38.2364 52.6665 38.5041C53.1512 38.781 53.701 38.9231 54.2591 38.9157C54.6791 38.9221 55.0956 38.8372 55.4795 38.6668C55.8635 38.4963 56.2058 38.2444 56.4828 37.9286L57.2171 38.6689C56.8601 39.089 56.4093 39.4192 55.9011 39.633C55.3626 39.8562 54.7844 39.9679 54.2015 39.9611C53.4524 39.9717 52.714 39.7831 52.0618 39.4147ZM60.4849 39.8669H61.6143V31.6445H60.4849V39.8669ZM65.6049 39.8669H64.4408L68.0211 31.6445H69.1391L72.7323 39.8662H71.5445L70.6781 37.814H66.4747L65.6049 39.8669ZM68.5764 32.8425L66.8693 36.8716H70.2794L68.5764 32.8425ZM75.5587 31.6445H76.6876V38.8452H80.9676V39.8669H75.5587V31.6445Z" fill="#002554"/>
<path d="M89.1263 11.1483L80.4707 11.1191C80.2889 11.125 80.1119 11.1789 79.9577 11.2754C79.8036 11.3719 79.6777 11.5074 79.5929 11.6683C79.5081 11.8292 79.4674 12.0097 79.475 12.1914C79.4826 12.3731 79.5382 12.5496 79.6361 12.7029L83.8605 19.5435L89.1263 11.1483Z" fill="#1C716B"/>
<path d="M112.09 0.227051C111.695 0.227913 111.307 0.329941 110.963 0.5234C110.619 0.716859 110.33 0.995294 110.124 1.33214L91.5825 30.9389C91.4783 31.108 91.4231 31.3027 91.4231 31.5013C91.4231 31.6999 91.4783 31.8946 91.5825 32.0637L96.1398 39.4318C96.2427 39.6045 96.3887 39.7477 96.5634 39.8473C96.7381 39.9469 96.9356 39.9995 97.1367 40.0001C97.3378 40.0008 97.5356 39.9493 97.7109 39.8508C97.8862 39.7522 98.033 39.61 98.1371 39.4379L122.653 0.262305L112.09 0.227051Z" fill="#00CC99"/>
<path d="M89.4741 11.1483L80.4707 11.1191C80.2889 11.125 80.1119 11.1789 79.9577 11.2754C79.8036 11.3719 79.6777 11.5074 79.5929 11.6683C79.5081 11.8292 79.4674 12.0097 79.475 12.1914C79.4826 12.3731 79.5382 12.5496 79.6361 12.7029L84.0198 19.8473L89.4741 11.1483Z" fill="#0E7A77"/>
<path d="M90.7214 30.6021L106.544 5.30039L95.5391 5.26514C95.1442 5.26593 94.7562 5.36794 94.412 5.5614C94.0678 5.75487 93.7789 6.03334 93.573 6.37022L84.9201 20.1526C84.8154 20.3221 84.76 20.5174 84.76 20.7167C84.76 20.9159 84.8154 21.1112 84.9201 21.2807L90.7214 30.6021Z" fill="#099D91"/>
</g>
<defs>
<clipPath id="clip0_115_8671">
<rect width="122.034" height="40" fill="white" transform="translate(0.983154)"/>
</clipPath>
</defs>
</svg>
