<svg width="36" height="36" viewBox="0 0 36 36" fill="none" xmlns="http://www.w3.org/2000/svg">
<g clip-path="url(#clip0_2416_428)">
<path d="M0 18C0 8.05888 8.05888 0 18 0C27.9411 0 36 8.05888 36 18C36 27.9411 27.9411 36 18 36C8.05888 36 0 27.9411 0 18Z" fill="#002051"/>
<path d="M19.1231 6.40579C19.2545 5.88022 19.9791 5.86778 20.1471 6.35335L22.2154 15.6429H24.4643C24.739 15.6429 25 15.8668 25 16.1786C25 16.4533 24.7932 16.6797 24.5268 16.7107L21.7857 16.7143C21.5556 16.7143 21.3537 16.5678 21.2797 16.3545L19.6118 8.86768L16.9483 19.5228C16.8187 20.0413 16.1071 20.0629 15.929 19.5876L14.2386 12.8421L13.1917 16.3325C13.1299 16.5385 12.9519 16.6855 12.7423 16.7105L10.5357 16.7143C10.2398 16.7143 10 16.4744 10 16.1786C10 15.9038 10.2068 15.6774 10.4732 15.6465L12.28 15.6429L13.7726 10.6675C13.9225 10.1677 14.6124 10.1628 14.7858 10.6281L16.4286 17.183L19.1231 6.40579Z" fill="#00A82D"/>
<path d="M17.3742 23L15.0634 27.9435H14.3183L12 23H12.8129L14.7097 27.0607L16.6215 23H17.3742Z" fill="white"/>
<path d="M18.0461 23H18.7988V27.9435H18.0461V23Z" fill="white"/>
<path d="M23.688 27.9435L22.1074 25.9025L20.5493 27.9435H19.6837L21.6633 25.4082L19.8041 23H20.6622L22.1375 24.8997L23.5977 23H24.4181L22.559 25.387L24.5536 27.9435H23.688Z" fill="white"/>
</g>
<defs>
<clipPath id="clip0_2416_428">
<rect width="36" height="36" fill="white"/>
</clipPath>
</defs>
</svg>
