<svg width="36" height="36" viewBox="0 0 36 36" fill="none" xmlns="http://www.w3.org/2000/svg">
<g clip-path="url(#clip0_1623_25)">
<path d="M0 18C0 8.05888 8.05888 0 18 0C27.9411 0 36 8.05888 36 18C36 27.9411 27.9411 36 18 36C8.05888 36 0 27.9411 0 18Z" fill="#002051"/>
<path d="M19.1231 6.40579C19.2545 5.88022 19.9791 5.86778 20.1471 6.35335L22.2154 15.6429H24.4643C24.739 15.6429 25 15.8668 25 16.1786C25 16.4533 24.7932 16.6797 24.5268 16.7107L21.7857 16.7143C21.5556 16.7143 21.3537 16.5678 21.2797 16.3545L19.6118 8.86768L16.9483 19.5228C16.8187 20.0413 16.1071 20.0629 15.929 19.5876L14.2386 12.8421L13.1917 16.3325C13.1299 16.5385 12.9519 16.6855 12.7423 16.7105L10.5357 16.7143C10.2398 16.7143 10 16.4744 10 16.1786C10 15.9038 10.2068 15.6774 10.4732 15.6465L12.28 15.6429L13.7726 10.6675C13.9225 10.1677 14.6124 10.1628 14.7858 10.6281L16.4286 17.183L19.1231 6.40579Z" fill="#00A82D"/>
<path d="M12.3742 23L10.0634 27.9435H9.31828L7 23H7.8129L9.70968 27.0607L11.6215 23H12.3742Z" fill="white"/>
<path d="M13.0461 23H13.7988V27.9435H13.0461V23Z" fill="white"/>
<path d="M18.688 27.9435L17.1074 25.9025L15.5493 27.9435H14.6837L16.6633 25.4082L14.8041 23H15.6622L17.1375 24.8997L18.5977 23H19.4181L17.559 25.387L19.5536 27.9435H18.688Z" fill="white"/>
<path d="M23.7768 23V23.4802L21.6467 27.9435H20.8489L22.9338 23.6144H20.5252V24.4972H19.8026V23H23.7768Z" fill="white"/>
<path d="M25.8097 24.9703C26.5624 24.9703 27.1143 25.1045 27.4656 25.3729C27.8219 25.6365 28 25.9991 28 26.4605C28 26.7524 27.9247 27.016 27.7742 27.2514C27.6287 27.4821 27.4054 27.6657 27.1043 27.8023C26.8082 27.9341 26.4419 28 26.0054 28C25.6341 28 25.2753 27.9482 24.929 27.8446C24.5828 27.7363 24.2968 27.588 24.071 27.3997L24.4172 26.8418C24.5978 27.0019 24.8287 27.1314 25.1097 27.2302C25.3907 27.3244 25.6867 27.3715 25.9978 27.3715C26.3943 27.3715 26.7004 27.2938 26.9161 27.1384C27.1369 26.9783 27.2473 26.7618 27.2473 26.4887C27.2473 26.1921 27.1269 25.9685 26.886 25.8178C26.6452 25.6624 26.2337 25.5847 25.6516 25.5847H24.4548L24.7333 23H27.7065V23.6144H25.3656L25.2226 24.9703H25.8097Z" fill="white"/>
</g>
<defs>
<clipPath id="clip0_1623_25">
<rect width="36" height="36" fill="white"/>
</clipPath>
</defs>
</svg>
