<svg width="58" height="41" viewBox="0 0 58 41" fill="none" xmlns="http://www.w3.org/2000/svg">
    <g clip-path="url(#clip0_41_3301)">
        <path d="M13.1986 0.514648H23.0178L25.2779 6.63143L25.2804 6.63677L25.4616 6.71017L26.0395 8.25037H26.0445C28.0818 8.29693 28.6107 8.87968 28.7454 9.22495C28.8482 9.48695 28.7992 9.7906 28.6034 10.1334C28.2997 9.81999 27.6214 9.55308 26.3408 9.50411C26.7595 10.633 27.1929 11.8181 27.1929 11.8181C26.1841 12.8661 24.8887 14.4333 25.5376 15.7041C26.0004 16.6101 27.2811 17.0705 29.3453 17.0729C35.9983 17.0729 48.0385 12.4474 49.5175 11.7912C49.6539 11.7324 49.7715 11.637 49.857 11.5156C49.9426 11.3941 49.9929 11.2513 50.0023 11.1031C50.2157 11.1512 50.4052 11.2732 50.5374 11.4475C50.6695 11.6218 50.7359 11.8371 50.7247 12.0556C50.7152 12.2306 50.657 12.3995 50.5566 12.5431C50.4562 12.6868 50.3177 12.7995 50.1566 12.8686C48.6849 13.5223 41.2875 16.3065 35.1878 17.6018L32.6069 24.0394H25.0283C23.4783 24.0394 22.7167 23.944 21.6663 21.5785C21.1153 20.3395 19.2739 15.6405 17.3958 10.9757C14.521 11.8695 10.755 13.1893 8.51932 14.3622C8.38176 14.4406 8.22588 14.4812 8.06756 14.4797C7.90923 14.4783 7.75412 14.4349 7.61801 14.3541C7.48189 14.2732 7.36964 14.1577 7.29268 14.0193C7.21572 13.8809 7.1768 13.7246 7.17989 13.5663C7.18222 13.473 7.19873 13.3805 7.22884 13.2921C7.35343 13.3783 7.50097 13.4252 7.65247 13.4268H7.66472C7.79512 13.4266 7.92327 13.3928 8.03691 13.3289C10.6105 11.9772 15.1332 10.5007 16.8913 9.94726L16.333 8.57601L16.3869 8.47064L13.1986 0.514648ZM13.1986 0.514648L16.3868 8.4704L13.1986 0.514648ZM30.2487 8.67608C30.6479 9.75106 30.2683 10.8162 29.0979 11.9377C28.853 12.163 26.7276 14.1513 27.0116 15.0084C27.1438 15.4026 27.7486 15.5961 28.8628 15.5961C30.5255 15.5961 33.2655 15.1626 36.4733 14.3913L42.0367 0.514676H32.2175L29.524 7.79705C29.8766 8.04683 30.1214 8.32838 30.2487 8.67608ZM54.4368 35.9739C54.4368 37.3746 53.9927 38.4773 53.1047 39.2821C52.2207 40.0901 50.9678 40.4942 49.346 40.4942C47.7372 40.4942 46.4867 40.0901 45.5946 39.2821C44.7057 38.4789 44.26 37.3762 44.2576 35.9739C44.2576 34.561 44.7033 33.4534 45.5946 32.6511C46.4859 31.8504 47.7364 31.4496 49.346 31.4488C50.9596 31.4488 52.2117 31.8528 53.1022 32.6609C53.9911 33.4641 54.4359 34.5684 54.4368 35.9739ZM51.4494 35.9882C51.4494 35.5082 51.3955 35.0675 51.2902 34.7344C51.2061 34.4383 51.0582 34.1641 50.8568 33.9313C50.6763 33.7313 50.4479 33.5805 50.1932 33.493C49.9202 33.4059 49.6349 33.3638 49.3484 33.3681C49.0745 33.3649 48.8015 33.4011 48.5379 33.4757C48.2843 33.5588 48.0548 33.7026 47.8694 33.8945C47.6784 34.0904 47.529 34.3597 47.414 34.7001C47.3013 35.0429 47.2426 35.491 47.2426 35.9881C47.2426 36.4852 47.2964 36.9161 47.4066 37.232C47.4926 37.5111 47.6351 37.7695 47.8253 37.9911C48.0061 38.1873 48.2348 38.3333 48.4889 38.4147C48.7747 38.509 49.0744 38.5546 49.3753 38.5494C49.6519 38.5494 49.9265 38.5038 50.1883 38.4147C50.4402 38.3414 50.6683 38.2029 50.8494 38.0131C51.0507 37.7889 51.2032 37.5255 51.2976 37.2394C51.3955 36.9382 51.4494 36.5047 51.4494 35.9881M20.7699 34.4209V40.2831H17.7336L17.7361 39.8864C16.2742 40.7361 14.1169 40.3663 13.8549 40.3247C13.299 40.2527 12.7815 40.0019 12.3805 39.6102C11.9795 39.2184 11.7168 38.7069 11.6319 38.1527C11.5471 37.5986 11.6447 37.0319 11.9101 36.5381C12.1755 36.0443 12.5942 35.6501 13.1032 35.4151C13.2036 35.3686 14.1194 34.8519 16.2154 34.8519H17.8659C17.8659 34.3842 17.6945 33.8773 17.3247 33.6447C16.3869 33.0497 12.802 33.5811 12.802 33.5811L13.4925 31.7103C14.2857 31.5543 15.0913 31.4699 15.8996 31.4581C17.5965 31.4581 18.8323 31.7021 19.6069 32.1902C20.3831 32.6775 20.7708 33.4211 20.77 34.421M17.8389 36.4827C16.1053 36.4827 15.3976 36.6052 15.3976 36.6052C15.2188 36.6444 14.9274 36.7399 14.7193 36.9749C14.6045 37.0957 14.5249 37.2455 14.4891 37.4082C14.4533 37.5709 14.4626 37.7403 14.516 37.8981C14.5694 38.0559 14.665 38.1961 14.7923 38.3036C14.9196 38.411 15.0739 38.4816 15.2384 38.5078C15.3707 38.5323 17.8389 38.8849 17.8389 37.5185V36.4827ZM9.95909 29.1318L6.96436 37.117L3.99657 29.1318H0.79126L4.61609 38.6719C4.80178 39.146 5.12613 39.5532 5.5468 39.8402C5.96748 40.1272 6.46491 40.2807 6.97416 40.2806H8.70292L13.1399 29.1318L9.95909 29.1318ZM22.2441 30.8361V40.2831H23.4807C23.7048 40.2831 23.9268 40.239 24.1338 40.1532C24.3409 40.0675 24.5291 39.9417 24.6876 39.7833C24.846 39.6248 24.9718 39.4366 25.0575 39.2295C25.1433 39.0224 25.1874 38.8005 25.1874 38.5764V29.1318H23.9484C23.7245 29.1318 23.5029 29.1758 23.2961 29.2615C23.0893 29.3471 22.9014 29.4726 22.7432 29.6309C22.5849 29.7892 22.4594 29.977 22.3737 30.1838C22.2881 30.3906 22.244 30.6123 22.2441 30.8361ZM36.2236 35.5278C36.2236 35.5278 36.2285 36.2207 36.2261 36.4827H29.3502C29.3771 36.8745 29.4971 38.5617 32.5041 38.5617C32.864 38.5617 33.7431 38.6498 35.9371 38.2678V40.1998C34.1153 40.5279 32.6902 40.4814 32.1833 40.4814C26.9309 40.4814 26.4191 37.4475 26.4191 36.0273C26.4191 34.5923 27.0386 31.458 31.6788 31.458C33.1897 31.458 34.3234 31.8057 35.085 32.5109C35.8269 33.1941 36.2236 34.2348 36.2236 35.5277M33.8459 34.8519C33.8165 34.274 33.6672 33.3655 31.6642 33.3655C29.6122 33.3655 29.4408 34.4209 29.3991 34.8519H33.8459ZM41.0156 31.4727C39.6125 31.5315 37.6683 32.2563 37.6683 34.2838V40.2831H40.5994V35.207C40.5994 33.8847 41.574 33.3411 43.8071 33.8847V31.7127C43.8071 31.7127 42.9305 31.4507 41.6499 31.4507C41.4466 31.4507 41.236 31.4578 41.0156 31.4727ZM57.2087 32.5893C57.2088 32.8399 57.122 33.0827 56.963 33.2764C56.8041 33.4701 56.5829 33.6027 56.3371 33.6516C56.0914 33.7004 55.8363 33.6625 55.6153 33.5443C55.3944 33.4261 55.2213 33.2349 55.1256 33.0033C55.0298 32.7718 55.0174 32.5142 55.0903 32.2745C55.1633 32.0347 55.3171 31.8278 55.5256 31.6888C55.7341 31.5498 55.9844 31.4875 56.2337 31.5124C56.483 31.5373 56.716 31.6479 56.8929 31.8254C56.9947 31.9245 57.0753 32.0434 57.1296 32.1748C57.1839 32.3062 57.2108 32.4472 57.2087 32.5893ZM56.7068 33.1697C56.8604 33.0156 56.9467 32.8069 56.9467 32.5893C56.9467 32.3717 56.8604 32.163 56.7068 32.009C56.6314 31.9322 56.5414 31.8713 56.4422 31.8297C56.343 31.788 56.2365 31.7666 56.1289 31.7666C56.0213 31.7666 55.9148 31.788 55.8155 31.8297C55.7163 31.8713 55.6264 31.9322 55.551 32.009C55.474 32.0847 55.4127 32.1749 55.3707 32.2744C55.3286 32.3739 55.3067 32.4807 55.3061 32.5887C55.3055 32.6967 55.3263 32.8037 55.3673 32.9037C55.4082 33.0036 55.4686 33.0945 55.5448 33.171C55.621 33.2475 55.7116 33.3082 55.8113 33.3496C55.9111 33.391 56.018 33.4122 56.126 33.4121C56.234 33.412 56.341 33.3905 56.4406 33.3489C56.5403 33.3073 56.6307 33.2464 56.7068 33.1697ZM56.7245 33.0913H56.3644L56.0681 32.7191H56.002V33.0913H55.7204V32.0384H56.1098C56.1662 32.0374 56.2226 32.0398 56.2788 32.0455C56.3245 32.0528 56.3685 32.0686 56.4085 32.092C56.453 32.1149 56.4903 32.1496 56.5162 32.1925C56.5433 32.2473 56.5547 32.3086 56.5491 32.3696C56.5434 32.4305 56.5211 32.4888 56.4844 32.5377C56.446 32.5826 56.3983 32.6185 56.3447 32.6431L56.7245 33.0913ZM56.0022 32.5036H56.0413C56.0749 32.5042 56.1085 32.5018 56.1417 32.4965C56.1656 32.493 56.1883 32.4837 56.2078 32.4695C56.2215 32.4584 56.2324 32.4441 56.2396 32.4279C56.248 32.406 56.2522 32.3828 56.252 32.3593C56.2519 32.3415 56.2476 32.3239 56.2396 32.308C56.2326 32.2928 56.2204 32.2806 56.2053 32.2737C56.1879 32.2618 56.1675 32.2551 56.1465 32.2541C56.1245 32.2523 56.0976 32.2488 56.0608 32.2488H56.002L56.0022 32.5036Z" fill="#006EAB"/>
        <path d="M17.0211 10.0507C14.1415 10.9444 10.3509 12.2692 8.10547 13.447C7.9673 13.5272 7.80973 13.5678 7.65001 13.5645C7.44673 13.5619 7.25038 13.4902 7.09324 13.3612C6.93609 13.2323 6.82751 13.0537 6.78535 12.8548C6.74318 12.6559 6.76993 12.4486 6.86122 12.2669C6.9525 12.0853 7.10287 11.9401 7.28761 11.8553C9.8783 10.6481 13.5391 9.35762 16.3869 8.47363C16.595 8.99275 16.8064 9.51841 17.0211 10.0506" fill="#FFCF00"/>
        <path d="M49.2505 10.1262C49.0846 10.1188 48.9197 10.156 48.773 10.2338C40.0949 13.9558 27.712 16.62 27.1439 14.9671C26.8696 14.1713 29.1909 12.041 29.1909 12.041C30.288 10.9905 30.834 9.86168 30.3786 8.62754C29.8766 7.26852 27.4622 6.61228 25.2804 6.63433C25.3931 6.94285 25.6281 7.57951 25.9269 8.38514C25.9636 8.38693 26.0052 8.38693 26.0395 8.38693C27.7683 8.42603 28.4539 8.85462 28.618 9.27336C28.809 9.768 28.3143 10.3508 28.0793 10.6079C27.9079 10.794 27.0557 11.7612 27.0557 11.7612C26.1913 12.6574 24.6854 14.3372 25.4151 15.7672C27.6826 20.214 46.9953 13.0639 49.5737 11.9155C49.7341 11.8462 49.8721 11.7337 49.9724 11.5906C50.0727 11.4475 50.1314 11.2794 50.1418 11.105C50.148 10.982 50.1299 10.8591 50.0884 10.7432C50.0469 10.6273 49.9828 10.5208 49.9 10.4297C49.8171 10.3387 49.7171 10.2649 49.6056 10.2127C49.4942 10.1605 49.3735 10.1309 49.2505 10.1255" fill="#FFCF00"/>
    </g>
    <defs>
        <clipPath id="clip0_41_3301">
            <rect width="56.4175" height="40" fill="white" transform="translate(0.79126 0.504883)"/>
        </clipPath>
    </defs>
</svg>
