<svg width="66" height="29" viewBox="0 0 66 29" fill="none" xmlns="http://www.w3.org/2000/svg">
    <path d="M0 0V0.167424C0 0.167424 0 5.68972 0 10.2463C0 14.8676 3.31504 20.5596 3.31504 20.5596L3.41544 20.4927V20.5931H9.6436H9.71057L9.74411 20.5596C9.74411 20.5596 10.5939 19.1302 11.4518 17.1442C12.3097 15.1581 13.193 12.564 13.193 10.2463C13.193 5.68035 13.193 0.167424 13.193 0.167424V0H13.059H7.76846H7.63452V0.167424C7.63452 0.167424 7.63452 8.2868 7.63452 10.2463C7.63452 11.2086 7.44079 12.3718 7.19927 13.26C7.0784 13.704 6.94114 14.0978 6.83088 14.3649C6.77581 14.4985 6.70295 14.6017 6.66351 14.6663C6.62344 14.6014 6.58572 14.4987 6.52957 14.3649C6.41728 14.0973 6.28495 13.7043 6.16119 13.26C5.91378 12.3712 5.6924 11.2053 5.6924 10.2463C5.6924 8.29216 5.6924 0.167424 5.6924 0.167424V0H5.55846H0.133939H0ZM26.4195 0V0.167424V20.4927H26.5199V20.5931H31.4087H31.5092V20.4927V0.167424V0H31.4087H26.5199H26.4195ZM43.3628 4.35301C42.1597 4.35301 41.5281 4.93285 41.2197 5.52498C40.9113 6.11711 40.9183 6.69695 40.9183 6.69695V17.7134C40.9183 17.7134 40.9318 18.4719 41.1862 19.2202C41.3134 19.5944 41.4914 19.9664 41.7889 20.2583C42.0865 20.5501 42.5038 20.7605 43.0279 20.7605C44.9928 20.7605 44.8535 20.7605 46.0415 20.7605C47.1838 20.7605 47.7356 19.9088 47.9501 19.5886C47.9652 19.6642 48.0065 19.7781 48.0171 19.8899C48.0444 20.1764 48.0506 20.4927 48.0506 20.4927V20.5931H48.1846H52.9728H53.1068V20.4927V4.65438V4.52044H52.9728H48.285H48.1846V4.65438C48.1846 4.65438 48.1807 4.86256 48.151 5.12316C48.1262 5.34151 48.0683 5.5749 48.0171 5.75937C47.9373 5.64671 47.8456 5.48604 47.6822 5.29059C47.322 4.85943 46.7101 4.35301 45.7401 4.35301C44.3766 4.35301 45.3249 4.35301 43.3628 4.35301ZM61.2101 4.35301C60.4312 4.35301 59.8155 4.7831 59.4354 5.15665C59.2796 5.30975 59.1924 5.44884 59.1006 5.55846C59.0914 5.42715 59.0696 5.32144 59.0671 5.15665C59.0631 4.89361 59.0671 4.65438 59.0671 4.65438V4.52044H58.8997H53.8434H53.7095V4.65438V20.4927V20.5931H53.8434H58.8997H59.0671V20.4927V9.2083C59.0671 9.2083 59.0419 9.09267 59.134 8.97391C59.2262 8.85514 59.4352 8.70603 59.8707 8.70603C60.3086 8.70603 60.4823 8.85696 60.5739 8.97391C60.6655 9.09085 60.6409 9.2083 60.6409 9.2083V20.4927H60.7748V20.5931H65.8979H65.9984V20.4927V6.69695C65.9984 6.69695 66.0341 6.14257 65.764 5.55846C65.4939 4.97436 64.8816 4.35301 63.7885 4.35301C61.6936 4.35301 62.0446 4.353 61.2101 4.35301ZM13.5948 4.52044V4.65438C13.5948 4.65438 13.5948 14.1975 13.5948 16.9433C13.5948 18.3458 14.0489 19.2986 14.5993 19.8564C15.1499 20.4143 15.7685 20.5931 16.1396 20.5931C16.7759 20.5931 22.7482 20.5931 23.3054 20.5931C23.6485 20.5931 24.2774 20.4172 24.8457 19.8564C25.414 19.2957 25.9172 18.3306 25.9172 16.9433C25.9172 14.231 25.9172 4.65438 25.9172 4.65438V4.52044H25.7832H20.7941H20.6936V4.65438C20.6936 4.65438 20.6936 14.677 20.6936 15.6709C20.6936 16.1159 20.4119 16.2653 20.1578 16.374C19.9039 16.4828 19.689 16.508 19.689 16.508C19.689 16.508 19.4577 16.4801 19.2538 16.374C19.0498 16.268 18.8184 16.1195 18.8184 15.6709C18.8184 14.6891 18.8184 4.65438 18.8184 4.65438V4.52044H18.718H13.7287H13.5948ZM34.5228 4.52044C33.5176 4.52044 32.8943 4.98967 32.5471 5.4915C32.3736 5.7424 32.2782 6.0098 32.2123 6.22816C32.1464 6.44652 32.1119 6.59329 32.1119 6.69695C32.1119 7.01572 32.1119 18.2185 32.1119 18.4836C32.1119 18.5828 32.1428 18.7075 32.2123 18.9189C32.282 19.1302 32.371 19.3741 32.5471 19.622C32.8995 20.1179 33.5392 20.5931 34.5228 20.5931C36.4113 20.5931 40.1147 20.5931 40.1147 20.5931H40.2486V20.4927V16.6754V16.5415H40.1147C40.1147 16.5415 38.9535 16.5415 38.1726 16.5415C37.8256 16.5415 37.7198 16.3981 37.6368 16.2401C37.554 16.0821 37.5029 15.9052 37.5029 15.9052V9.50966C37.5029 9.50966 37.4914 9.34317 37.5699 9.2083C37.6483 9.07343 37.8142 8.97391 38.1726 8.97391C38.9655 8.97391 40.1147 8.97391 40.1147 8.97391H40.2486V8.80648V4.65438V4.52044H40.1147C40.1147 4.52044 36.4542 4.52045 34.5228 4.52044ZM47.0126 8.57209C47.4959 8.57209 47.643 8.73821 47.7492 8.90694C47.8554 9.07567 47.8832 9.24179 47.8832 9.24179V15.9052C47.8832 15.9052 47.9187 16.051 47.8162 16.2066C47.7137 16.3622 47.479 16.5415 47.0126 16.5415C46.8108 16.5415 46.6581 16.4614 46.5438 16.3405C46.4295 16.2197 46.3328 16.0494 46.2759 15.8718C46.1622 15.5165 46.2089 15.1686 46.2089 15.1686V9.30875C46.2089 9.30875 46.1772 9.09009 46.2759 8.90694C46.3746 8.72378 46.5886 8.57209 47.0126 8.57209ZM35.9626 21.2963C35.2386 21.2963 34.5603 21.5626 34.0874 22.0664C33.6147 22.5703 33.3174 23.309 33.3174 24.2764C33.3174 25.2313 33.6239 26.0161 34.0874 26.5199C34.5511 27.0237 35.1496 27.2566 35.8956 27.2566C36.5977 27.2566 37.1559 27.0274 37.5699 26.6538C37.9047 26.3516 38.1662 25.9792 38.3065 25.5154C38.4001 26.0046 38.6058 26.3752 38.9092 26.6538C39.314 27.0253 39.8857 27.2231 40.4495 27.2231C41.0135 27.2231 41.5183 27.0253 41.9229 26.6538C42.3276 26.2824 42.5926 25.7295 42.5926 24.9796C42.5926 24.2291 42.3276 23.677 41.9229 23.3054C41.5183 22.9337 41.0135 22.7696 40.4495 22.7696C39.8856 22.7696 39.314 22.9337 38.9092 23.3054C38.5046 23.677 38.2396 24.2291 38.2396 24.9796H37.1346H37.0341L37.0007 25.1135C36.9378 25.4206 36.8095 25.6347 36.6323 25.7832C36.4551 25.9317 36.2488 26.0511 35.9626 26.0511C35.5272 26.0511 35.2201 25.8564 35.025 25.5488C34.83 25.2412 34.7571 24.7764 34.7571 24.3099C34.7571 23.5725 34.9213 23.1533 35.159 22.9036C35.3967 22.6538 35.7224 22.5687 35.9626 22.5687C36.3989 22.5687 36.6196 22.7055 36.7662 22.8701C36.9128 23.0346 36.9567 23.246 37.0007 23.4058L37.0341 23.5063H37.1346H38.2396H38.4405L38.3735 23.3723C38.3409 22.9435 38.2014 22.4347 37.8043 22.0329C37.4071 21.6312 36.7997 21.2963 35.9626 21.2963ZM20.5596 21.4302V21.5642V22.5352H20.7271V22.6357H21.7651H21.899V22.5352V21.5642V21.4302H21.7651H20.7271H20.5596ZM1.74121 21.4972V21.5976V26.9887V27.1226H1.87514H2.98019H3.08059V26.9887V23.7072L3.81726 26.9887L3.8508 27.1226H3.9512H5.05625H5.15665L5.19019 26.9887L5.96028 23.6402V26.9887H6.06079V27.1226H7.09876H7.2327V26.9887V21.5976V21.4972H7.09876H5.49149H5.39109L5.35756 21.5642L4.52049 25.281L3.68332 21.5642L3.64989 21.4972H3.54938H1.87514H1.74121ZM26.319 21.4972V21.5976V26.9887H26.4529V27.1226H27.491H27.625V26.9887V21.5976V21.4972H27.491H26.4529H26.319ZM11.7532 21.7651V21.9325V22.8701H11.3848H11.2174V22.9705V23.7407V23.8746H11.3848H11.7532V26.1851C11.7532 26.4587 11.8289 26.7013 12.0211 26.8882C12.2132 27.0752 12.5224 27.1896 12.9921 27.1896H13.0926C13.2609 27.1896 13.4299 27.1991 13.5948 27.1896L13.7287 27.1226V26.9887V26.2185V26.0846H13.5948C13.5212 26.0925 13.4535 26.1181 13.3939 26.1181C13.1902 26.1181 13.0978 26.0895 13.0926 26.0846C13.0899 26.0822 13.0969 26.0751 13.0926 26.0511C13.0883 26.0272 13.0926 25.975 13.0926 25.9172V23.8746H13.5948H13.7287V23.7407V22.9705V22.8701H13.5948H13.0926V21.9325V21.7651H12.9921H11.8871H11.7532ZM11.2174 23.8746C11.1655 23.4389 10.8987 23.1315 10.5812 22.9705C10.2234 22.789 9.80465 22.7696 9.50966 22.7696C9.09038 22.7696 8.66831 22.8204 8.30421 23.0375C7.94011 23.2546 7.63077 23.6352 7.56755 24.2764V24.4104H7.70149H8.73957H8.83997L8.8735 24.3099C8.88776 24.2028 8.90844 24.0532 8.97391 23.9751C9.03938 23.8969 9.14063 23.8746 9.37572 23.8746C9.50752 23.8746 9.64017 23.8626 9.74411 23.9081C9.84794 23.9536 9.91148 24.03 9.91148 24.2095C9.91148 24.2818 9.92112 24.2812 9.87805 24.3099C9.83486 24.3386 9.75011 24.3675 9.67714 24.3769L8.73957 24.5443C8.38554 24.5956 8.06837 24.7115 7.83543 24.9461C7.60259 25.1807 7.43361 25.499 7.43361 25.9172C7.43361 26.3636 7.64395 26.7096 7.90239 26.9217C8.16084 27.1338 8.4479 27.2231 8.773 27.2231C9.41751 27.2231 9.76479 26.9561 10.012 26.7208C10.0295 26.8267 10.0383 26.9294 10.079 27.0557V27.1226H10.2129H11.3514H11.4518V26.9887V26.8547V26.7543L11.3848 26.7208C11.3411 26.7052 11.3464 26.6819 11.3178 26.6204C11.2893 26.5588 11.2174 26.445 11.2174 26.2185V24.042C11.2174 23.9814 11.224 23.93 11.2174 23.8746ZM15.6039 22.7696C14.6906 22.7696 14.1747 23.1631 13.8962 23.6402C13.6177 24.1174 13.5614 24.6577 13.5614 24.9126C13.5614 25.7584 13.8092 26.3495 14.1975 26.7208C14.5858 27.0921 15.1211 27.2231 15.7044 27.2231C16.0666 27.2231 16.431 27.1368 16.7759 26.9217C17.1207 26.7067 17.4325 26.3923 17.5795 25.8837L17.613 25.6493H17.4456H16.3741H16.2736L16.2401 25.7832C16.179 25.9959 15.9536 26.1181 15.7044 26.1181C15.3167 26.1181 15.139 25.9555 15.0347 25.7832C14.9626 25.6642 14.9535 25.541 14.9342 25.4149H17.479H17.613V25.281V25.0801C17.613 24.1426 17.3463 23.5549 16.9433 23.2049C16.5403 22.8549 16.0196 22.7696 15.6039 22.7696ZM20.1244 22.7696C19.7776 22.7696 19.5426 22.8699 19.3542 23.0375C19.26 23.1213 19.187 23.2052 19.1198 23.3054V22.9705V22.8701H19.0193H18.0148H17.8808V22.9705V26.9887H18.0148V27.1226H19.0529H19.1533V26.9887V24.9126C19.1533 24.7075 19.2416 24.5245 19.3542 24.3769C19.4669 24.2292 19.6434 24.0755 20.0239 24.0755C20.123 24.0755 20.2176 24.097 20.2917 24.109H20.4592V23.9751V22.9036V22.7696H20.3587C20.2951 22.7632 20.2038 22.7696 20.1244 22.7696ZM24.1425 22.7696C23.7245 22.7696 23.3011 22.8204 22.9371 23.0375C22.573 23.2546 22.2971 23.6351 22.2339 24.2764V24.4104H22.3678H23.3723H23.4728L23.5063 24.3099C23.5199 24.2035 23.5412 24.0532 23.6068 23.9751C23.6724 23.8969 23.8069 23.8746 24.042 23.8746C24.1738 23.8746 24.3065 23.8626 24.4104 23.9081C24.5142 23.9536 24.5778 24.03 24.5778 24.2095C24.5778 24.2818 24.5538 24.2812 24.5108 24.3099C24.4678 24.3386 24.3822 24.3675 24.3099 24.3769L23.4059 24.5443C23.0512 24.5956 22.7007 24.7114 22.4683 24.9461C22.2358 25.1808 22.0999 25.4991 22.0999 25.9172C22.0999 26.3636 22.2433 26.7096 22.5017 26.9217C22.7602 27.1338 23.1142 27.2231 23.4393 27.2231C24.1004 27.2231 24.3981 26.9602 24.6448 26.7208C24.6622 26.8256 24.6714 26.9302 24.7117 27.0557L24.7453 27.1226H24.8122H25.9507H26.1181V26.9887V26.8547V26.7543L26.0511 26.7208C26.0081 26.7052 25.9457 26.682 25.9172 26.6204C25.8887 26.5587 25.8502 26.445 25.8502 26.2185V24.042C25.8502 23.5044 25.5385 23.152 25.1805 22.9705C24.8225 22.7891 24.4382 22.7696 24.1425 22.7696ZM29.768 22.7696C29.1189 22.7696 28.6705 22.9482 28.395 23.2384C28.1196 23.5286 27.9932 23.9228 27.9932 24.2429C27.9932 24.653 28.1701 24.9206 28.4286 25.1135C28.6869 25.3065 29.0164 25.4414 29.3326 25.5154C29.6489 25.5893 29.9536 25.5839 30.1698 25.6493C30.2779 25.682 30.3923 25.7477 30.4377 25.7832C30.4829 25.8187 30.4711 25.8417 30.4711 25.8837C30.4711 25.9208 30.4731 25.9925 30.4041 26.0511C30.3351 26.1098 30.1835 26.1851 29.9353 26.1851C29.6213 26.1851 29.4328 26.1284 29.3326 26.0511C29.2325 25.9738 29.1987 25.8574 29.1987 25.7163V25.5823H29.0647H27.9932V25.7163H27.8259C27.8431 26.2893 28.135 26.6913 28.529 26.9217C28.9231 27.1521 29.4652 27.2231 29.9353 27.2231C30.2613 27.2231 30.7167 27.1707 31.1074 26.9552C31.498 26.7397 31.8105 26.3408 31.8105 25.7163C31.8105 25.3113 31.6019 25.0384 31.3417 24.8457C31.0816 24.6529 30.7568 24.5197 30.4377 24.4438C30.1185 24.368 29.8199 24.3409 29.6005 24.2764C29.4908 24.2442 29.3787 24.2102 29.3326 24.176C29.2865 24.1418 29.2992 24.1099 29.2992 24.0755C29.2992 24.0085 29.2789 23.9534 29.3326 23.9081C29.3863 23.8628 29.5338 23.8411 29.8014 23.8411C30.0656 23.8411 30.2018 23.8733 30.2702 23.9416C30.3387 24.0099 30.3826 24.122 30.4041 24.2429V24.3769H30.5046H31.5092H31.6765V24.2095C31.633 23.6108 31.3471 23.2454 30.9734 23.0375C30.5998 22.8295 30.1696 22.7696 29.768 22.7696ZM45.2044 22.7696C44.6018 22.7696 44.3883 23.1065 44.1998 23.3723V22.9705V22.8701H44.0325H43.0279H42.894V22.9705V26.9887V27.1226H43.0279H44.0659H44.2334V26.9887V24.5778C44.2334 24.3769 44.2571 24.1826 44.3338 24.0755C44.4105 23.9685 44.5184 23.9081 44.7356 23.9081C45.0166 23.9081 45.1118 23.9882 45.1709 24.109C45.2301 24.2298 45.2379 24.4104 45.2379 24.5778V26.9887V27.1226H45.3719H46.4098H46.5438V26.9887V24.5778C46.5438 24.3598 46.5911 24.1877 46.6777 24.0755C46.7644 23.9633 46.9129 23.9081 47.1465 23.9081C47.2722 23.9081 47.3382 23.9517 47.4144 24.042C47.4906 24.1323 47.5818 24.3008 47.5818 24.5778V26.9887H47.7158V27.1226H48.7538H48.8877V26.9887V24.2429C48.8877 23.7734 48.6973 23.3548 48.4189 23.1045C48.1405 22.8541 47.7975 22.7696 47.3809 22.7696C46.7592 22.7696 46.5037 23.1491 46.3429 23.3723C46.2232 23.199 46.0714 23.0381 45.9076 22.937C45.711 22.8157 45.5099 22.7696 45.2044 22.7696ZM51.6334 22.7696C51.0227 22.7696 50.8123 23.0932 50.5955 23.3723V22.9705V22.8701H50.428H49.4235H49.2895V22.9705V28.5625H49.4235V28.6629H50.495H50.6289V28.5625V26.6538C50.8042 26.8861 51.0044 27.2231 51.6334 27.2231C52.2651 27.2231 52.7468 26.95 53.0398 26.5199C53.3328 26.0898 53.4416 25.5135 53.4416 24.9461C53.4416 24.2304 53.2363 23.6754 52.9059 23.3054C52.5754 22.9354 52.1065 22.7696 51.6334 22.7696ZM55.4507 22.7696C55.0328 22.7696 54.6095 22.8204 54.2453 23.0375C53.881 23.2546 53.6046 23.6351 53.5421 24.2764V24.4104H53.6425H54.6471H54.781V24.3099C54.7946 24.2032 54.8497 24.0531 54.9149 23.9751C54.9802 23.8971 55.0817 23.8746 55.3168 23.8746C55.4486 23.8746 55.6147 23.8626 55.7186 23.9081C55.8225 23.9536 55.8861 24.03 55.8861 24.2095C55.8861 24.2818 55.8284 24.2813 55.7855 24.3099C55.7427 24.3386 55.6898 24.3676 55.6182 24.3769L54.6471 24.5443C54.2918 24.5956 54.0091 24.7114 53.7765 24.9461C53.5438 25.1808 53.4082 25.4991 53.4082 25.9172C53.4082 26.3636 53.585 26.7096 53.8434 26.9217C54.1019 27.1338 54.4224 27.2231 54.7476 27.2231C55.4064 27.2231 55.705 26.9599 55.953 26.7208C55.9697 26.8261 55.9462 26.9302 55.9865 27.0557L56.0534 27.1226H56.1204H57.2589H57.3928V26.9887V26.8547V26.7543L57.2924 26.7208C57.2487 26.7052 57.2539 26.6819 57.2254 26.6204C57.1968 26.5588 57.1919 26.445 57.1919 26.2185V24.042C57.1919 23.5044 56.8801 23.152 56.5222 22.9705C56.1644 22.789 55.7457 22.7696 55.4507 22.7696ZM60.0046 22.7696C59.4961 22.7696 59.274 22.9915 59.1006 23.2049C59.0486 23.2534 59.0053 23.3234 58.9667 23.3723C58.958 23.3845 58.9416 23.394 58.9331 23.4058V22.9705V22.8701H58.7992H57.7946H57.6607V22.9705V26.9887V27.1226H57.7946H58.8661H58.9667V26.9887V24.7117C58.9667 24.4342 59.0797 24.2356 59.201 24.109C59.3223 23.9824 59.4678 23.9081 59.6698 23.9081C59.9708 23.9081 60.0726 23.9873 60.1386 24.109C60.2047 24.2307 60.2391 24.434 60.2391 24.5778V26.9887H60.3395V27.1226H61.411H61.5449V26.9887V24.2429C61.5449 23.7733 61.3879 23.3547 61.1097 23.1045C60.8313 22.8542 60.42 22.7696 60.0046 22.7696ZM20.5596 22.8701V22.9705V26.9887H20.7271V27.1226H21.7651H21.899V26.9887V22.9705V22.8701H21.7651H20.7271H20.5596ZM61.4445 22.8701L61.5449 23.0375L62.9848 27.1896C62.939 27.4058 62.8511 27.5096 62.7839 27.5579C62.7108 27.6105 62.6346 27.6249 62.4491 27.6249C62.3687 27.6249 62.2898 27.5975 62.2482 27.5914H62.0807V27.7588V28.596H62.2482V28.7299C62.3995 28.7366 62.5364 28.7299 62.6834 28.7299C62.9172 28.7299 63.1167 28.71 63.2861 28.6629C63.4556 28.6159 63.6344 28.529 63.7549 28.395C63.996 28.1271 64.1099 27.6957 64.3576 26.9552L65.764 23.0375L65.7975 22.8701H65.6301H64.4916H64.4246L64.3576 22.937L63.6545 25.5488L62.9513 22.937L62.9178 22.8701H62.8173H61.6454H61.4445ZM15.6039 23.9081C15.7468 23.9081 15.9153 23.9367 16.0392 24.042C16.1269 24.1165 16.1594 24.2826 16.2066 24.4438H15.0012C15.0394 24.3034 15.06 24.1559 15.1351 24.0755C15.2444 23.9587 15.3853 23.9081 15.6039 23.9081ZM40.4495 23.9081C40.8158 23.9081 41 24.0357 41.1192 24.2429C41.2385 24.4502 41.2532 24.7375 41.2532 24.9796C41.2532 25.221 41.2384 25.5099 41.1192 25.7163C41.0001 25.9226 40.8159 26.0846 40.4495 26.0846C40.0832 26.0846 39.8993 25.9227 39.7799 25.7163C39.6604 25.5099 39.6459 25.2209 39.6459 24.9796C39.6459 24.7376 39.6603 24.4502 39.7799 24.2429C39.8994 24.0357 40.0834 23.9081 40.4495 23.9081ZM51.3656 23.9416C51.6594 23.9416 51.8148 24.0479 51.9349 24.2429C52.0548 24.4379 52.1022 24.7478 52.1022 25.0466C52.1022 25.2654 52.05 25.536 51.9349 25.7498C51.8196 25.9635 51.6544 26.0846 51.3656 26.0846C51.0692 26.0846 50.8884 25.9646 50.7628 25.7832C50.6373 25.6019 50.5955 25.3575 50.5955 25.0801C50.5955 24.7727 50.6147 24.484 50.7294 24.2764C50.8441 24.0688 51.0459 23.9416 51.3656 23.9416ZM9.91148 25.2475V25.5488C9.91148 25.7485 9.86026 25.9358 9.71057 26.0511C9.56088 26.1664 9.31143 26.2185 9.10784 26.2185C9.03048 26.2185 8.93951 26.1688 8.8735 26.1181C8.80739 26.0674 8.773 26.0342 8.773 25.8837C8.773 25.6999 8.80857 25.6152 8.90694 25.5488C9.0053 25.4825 9.18606 25.4483 9.37572 25.4149C9.67907 25.3684 9.77958 25.3068 9.91148 25.2475ZM24.5778 25.2475V25.5488C24.5778 25.7485 24.4596 25.9358 24.3099 26.0511C24.1602 26.1664 23.9777 26.2185 23.7742 26.2185C23.6975 26.2185 23.5726 26.1689 23.5063 26.1181C23.4401 26.0673 23.4393 26.0341 23.4393 25.8837C23.4393 25.6998 23.4751 25.6152 23.5732 25.5488C23.6714 25.4825 23.8517 25.4483 24.042 25.4149C24.3606 25.3661 24.445 25.311 24.5778 25.2475ZM55.8861 25.2475V25.5488C55.8861 25.7485 55.7679 25.9358 55.6182 26.0511C55.4684 26.1664 55.2859 26.2185 55.0824 26.2185C55.005 26.2185 54.9141 26.1688 54.848 26.1181C54.782 26.0674 54.714 26.0342 54.714 25.8837C54.714 25.6999 54.7828 25.6152 54.8815 25.5488C54.9801 25.4824 55.1257 25.4483 55.3168 25.4149C55.6333 25.3661 55.7533 25.3113 55.8861 25.2475Z" fill="#11225A"/>
</svg>
