<svg width="66" height="18" viewBox="0 0 66 18" fill="none" xmlns="http://www.w3.org/2000/svg">
    <path d="M16.5352 8.76563C16.5352 13.1904 12.9494 16.7776 8.52467 16.7776C4.09991 16.7776 0.512695 13.1904 0.512695 8.76563C0.512695 4.34087 4.09991 0.753662 8.52467 0.753662C12.9494 0.753662 16.5352 4.34087 16.5352 8.76563Z" fill="#EE3023"/>
    <path d="M8.58801 13.2331C6.38741 13.2405 4.09701 11.3622 4.08671 8.34465C4.07934 6.35012 5.15683 4.42918 6.53166 3.28988C7.87411 2.18001 9.7126 1.46609 11.3789 1.46021C11.5938 1.46021 11.819 1.47784 11.9559 1.52494C10.4986 1.8267 9.33872 3.18386 9.34314 4.72208C9.34314 4.77357 9.34752 4.82804 9.35339 4.85308C11.7925 5.44776 12.8994 6.91974 12.9067 8.95547C12.9126 10.9927 11.3052 13.2242 8.58797 13.233" fill="white"/>
    <path d="M21.7092 12.0834L19.2598 6.23816H20.8599L22.3878 10.1198L23.8686 6.23816H25.3965L23.0193 12.0834H21.7092Z" fill="#EE3023"/>
    <path d="M29.6594 9.13066C29.6594 8.88777 29.6314 8.65667 29.574 8.43735C29.5181 8.21803 29.4327 8.02962 29.3194 7.87211C29.206 7.71314 29.0691 7.58801 28.9072 7.49528C28.7453 7.40107 28.5554 7.35397 28.3375 7.35397C28.1197 7.35397 27.9283 7.40108 27.7679 7.49528C27.606 7.588 27.4676 7.71314 27.3557 7.87211C27.2424 8.02962 27.157 8.21803 27.1011 8.43735C27.0437 8.65667 27.0157 8.88777 27.0157 9.13066C27.0157 9.38236 27.0437 9.61639 27.1011 9.8313C27.157 10.0462 27.2395 10.2346 27.3484 10.3965C27.4573 10.5585 27.5957 10.6865 27.762 10.7807C27.9269 10.8734 28.1197 10.9206 28.3375 10.9206C28.5554 10.9206 28.7453 10.8735 28.9072 10.7807C29.0691 10.6865 29.206 10.5585 29.3194 10.3965C29.4327 10.2346 29.5181 10.0462 29.574 9.8313C29.6314 9.61639 29.6594 9.38236 29.6594 9.13066ZM31.1387 9.13706C31.1387 9.5183 31.0798 9.89218 30.9636 10.2602C30.8458 10.6282 30.6721 10.9564 30.441 11.2479C30.2114 11.5393 29.9199 11.7734 29.5681 11.9515C29.2163 12.1296 28.8056 12.2179 28.3376 12.2179C27.868 12.2179 27.4573 12.1296 27.107 11.9515C26.7552 11.7734 26.4637 11.5393 26.2326 11.2479C26.003 10.9564 25.8293 10.6282 25.7115 10.2602C25.5953 9.89219 25.5364 9.5183 25.5364 9.13706C25.5364 8.75729 25.5953 8.38635 25.7115 8.0213C25.8293 7.65772 26.003 7.33242 26.2326 7.04538C26.4637 6.75834 26.7552 6.52871 27.107 6.35502C27.4573 6.18133 27.868 6.09302 28.3376 6.09302C28.8056 6.09302 29.2149 6.18135 29.5622 6.35502C29.9096 6.52871 30.2011 6.75834 30.4351 7.04538C30.6706 7.33242 30.8458 7.65772 30.9636 8.0213C31.0798 8.38635 31.1387 8.75729 31.1387 9.13706Z" fill="#EE3023"/>
    <path d="M35.6562 7.52467C35.3663 7.41133 35.0969 7.35393 34.8466 7.35393C34.5905 7.35393 34.3683 7.40403 34.1843 7.50112C33.9988 7.59822 33.8457 7.72927 33.725 7.89561C33.6043 8.06194 33.5145 8.24888 33.4541 8.45644C33.3938 8.66251 33.3629 8.87596 33.3629 9.09528C33.3629 9.33816 33.3894 9.57071 33.4424 9.79445C33.4939 10.0167 33.5749 10.2125 33.6838 10.3788C33.7912 10.5452 33.9281 10.6791 34.093 10.7807C34.2579 10.8808 34.4536 10.9323 34.6788 10.9323C34.8643 10.9323 35.0527 10.8808 35.2456 10.7807C35.4384 10.6791 35.5753 10.5584 35.6562 10.4215L35.6562 7.52467ZM35.7769 12.0834L35.7166 11.6359C35.5797 11.789 35.3986 11.9244 35.172 12.0407C34.9467 12.1584 34.6803 12.2173 34.3741 12.2173C33.9723 12.2173 33.6161 12.132 33.3114 11.9627C33.0037 11.7934 32.7461 11.5667 32.5371 11.2841C32.3281 11.0015 32.1676 10.6732 32.0587 10.3008C31.9513 9.92988 31.8968 9.54129 31.8968 9.1365C31.8968 8.75673 31.9527 8.38431 32.0646 8.02073C32.1779 7.65715 32.3487 7.33185 32.5783 7.04482C32.8094 6.75778 33.0965 6.52815 33.4438 6.35446C33.7898 6.18076 34.1975 6.09244 34.6641 6.09244C34.9703 6.09244 35.3015 6.1498 35.6562 6.26172V3.99487H37.1591V12.0834H35.7769Z" fill="#EE3023"/>
    <path d="M41.3925 9.34266C41.2305 9.3512 41.0627 9.36626 40.892 9.38538C40.7212 9.40599 40.5593 9.43248 40.4048 9.46485C40.078 9.52958 39.8528 9.64003 39.7262 9.79753C39.6011 9.9565 39.5378 10.1272 39.5378 10.3142C39.5378 10.507 39.6084 10.6631 39.7512 10.7808C39.894 10.8971 40.0942 10.956 40.3547 10.956C40.5505 10.956 40.7404 10.9162 40.9229 10.8353C41.1054 10.7543 41.2629 10.6527 41.3925 10.532V9.34266ZM41.5132 12.0791L41.4543 11.6419C41.2909 11.8215 41.0848 11.9628 40.8331 12.0644C40.5814 12.1659 40.3061 12.2174 40.0059 12.2174C39.7541 12.2174 39.5113 12.1747 39.2816 12.0894C39.0491 12.0055 38.8445 11.8833 38.6663 11.7258C38.4882 11.5683 38.344 11.3755 38.2351 11.1444C38.1247 10.9133 38.0702 10.6527 38.0702 10.3613C38.0702 10.0713 38.1261 9.8137 38.2409 9.59143C38.3543 9.36916 38.5074 9.18222 38.7031 9.02766C38.8974 8.87457 39.1212 8.74946 39.3729 8.65231C39.6231 8.55522 39.8881 8.48155 40.1634 8.43298C40.3577 8.39324 40.5711 8.36375 40.8022 8.34314C41.0333 8.32252 41.2261 8.3049 41.3807 8.28867V8.20333C41.3807 7.87949 41.2983 7.64984 41.1305 7.51148C40.9641 7.37459 40.7345 7.30542 40.443 7.30542C40.2723 7.30542 40.1089 7.32602 39.9543 7.36725C39.7998 7.40699 39.6629 7.45709 39.5407 7.5174C39.4185 7.57925 39.3111 7.63957 39.2169 7.69993C39.1241 7.76028 39.0491 7.81473 38.9917 7.86331L38.4941 6.80937C38.5589 6.75201 38.6575 6.68426 38.7915 6.60331C38.9254 6.52234 39.0859 6.44285 39.2772 6.3663C39.4671 6.28972 39.6805 6.22499 39.919 6.172C40.1575 6.11902 40.4151 6.09253 40.6889 6.09253C41.0127 6.09253 41.3086 6.13527 41.575 6.22061C41.8414 6.30595 42.0725 6.43846 42.2668 6.62097C42.4597 6.80203 42.6113 7.03167 42.7217 7.31133C42.8306 7.58954 42.8851 7.92661 42.8851 8.32257V12.0791H41.5132Z" fill="#EE3023"/>
    <path d="M47.5307 5.32855C47.4821 5.30505 47.3879 5.26969 47.2466 5.22547C47.1038 5.18136 46.9168 5.15925 46.6813 5.15925C46.4723 5.15925 46.2957 5.22259 46.1544 5.34766C46.013 5.47278 45.9424 5.67738 45.9424 5.96V6.23821H47.2039V7.45111H45.9542V12.0834H44.4498V7.45111H43.6741V6.23821H44.4498V5.9232C44.4498 5.54343 44.4984 5.22255 44.5955 4.95906C44.6927 4.69705 44.8281 4.48214 45.0018 4.31728C45.1755 4.15094 45.3801 4.02877 45.6141 3.95223C45.8497 3.87564 46.1043 3.8374 46.3796 3.8374C46.7431 3.8374 47.0434 3.87126 47.2819 3.94048C47.5203 4.00969 47.6602 4.05529 47.6999 4.08032L47.5307 5.32855Z" fill="#EE3023"/>
    <path d="M51.63 9.13066C51.63 8.88777 51.6006 8.65667 51.5447 8.43735C51.4887 8.21803 51.4033 8.02962 51.29 7.87211C51.1767 7.71314 51.0398 7.58801 50.8778 7.49528C50.7159 7.40107 50.526 7.35397 50.3082 7.35397C50.0903 7.35397 49.899 7.40108 49.7385 7.49528C49.5766 7.588 49.4382 7.71314 49.3249 7.87211C49.213 8.02962 49.1277 8.21803 49.0703 8.43735C49.0143 8.65667 48.9864 8.88777 48.9864 9.13066C48.9864 9.38236 49.0143 9.61639 49.0703 9.8313C49.1277 10.0462 49.2101 10.2346 49.319 10.3965C49.4279 10.5585 49.5663 10.6865 49.7312 10.7807C49.8975 10.8734 50.0903 10.9206 50.3082 10.9206C50.526 10.9206 50.7159 10.8735 50.8778 10.7807C51.0398 10.6865 51.1767 10.5585 51.29 10.3965C51.4033 10.2346 51.4887 10.0462 51.5447 9.8313C51.6006 9.61639 51.63 9.38236 51.63 9.13066ZM53.1094 9.13706C53.1094 9.5183 53.0505 9.89218 52.9327 10.2602C52.8164 10.6282 52.6428 10.9564 52.4117 11.2479C52.182 11.5393 51.8906 11.7734 51.5388 11.9515C51.187 12.1296 50.7763 12.2179 50.3082 12.2179C49.8386 12.2179 49.428 12.1296 49.0776 11.9515C48.7258 11.7734 48.4344 11.5393 48.2033 11.2479C47.9736 10.9564 47.7999 10.6282 47.6822 10.2602C47.5644 9.89219 47.507 9.5183 47.507 9.13706C47.507 8.75729 47.5644 8.38635 47.6822 8.0213C47.7999 7.65772 47.9736 7.33242 48.2033 7.04538C48.4344 6.75834 48.7258 6.52871 49.0776 6.35502C49.428 6.18133 49.8386 6.09302 50.3082 6.09302C50.7763 6.09302 51.1855 6.18135 51.5329 6.35502C51.8803 6.52871 52.1717 6.75834 52.4058 7.04538C52.6413 7.33242 52.8164 7.65772 52.9327 8.0213C53.0505 8.38635 53.1094 8.75729 53.1094 9.13706Z" fill="#EE3023"/>
    <path d="M57.7771 12.0835V8.74944C57.7771 8.3049 57.6843 7.96046 57.4989 7.71758C57.3119 7.47618 57.0543 7.354 56.7217 7.354C56.4876 7.354 56.2712 7.41435 56.074 7.53652C55.8753 7.65722 55.7031 7.79117 55.5573 7.9369V12.0835H54.0544V6.23824H55.4249L55.497 6.69898C55.7325 6.50615 55.996 6.356 56.2919 6.25149C56.5862 6.14553 56.8836 6.09399 57.1824 6.09399C57.49 6.09399 57.7727 6.13961 58.0317 6.23236C58.2908 6.32657 58.5131 6.47375 58.6985 6.67541C58.8855 6.87707 59.0283 7.14057 59.1298 7.46293C59.2299 7.78676 59.2814 8.17536 59.2814 8.62726V12.0835H57.7771Z" fill="#EE3023"/>
    <path d="M63.9594 8.45803C63.9432 8.25636 63.9005 8.07972 63.8313 7.93105C63.7621 7.78091 63.6768 7.66021 63.5752 7.56747C63.4736 7.47326 63.3647 7.40555 63.247 7.35992C63.1277 7.3158 63.0085 7.2937 62.8863 7.2937C62.6258 7.2937 62.3785 7.3908 62.143 7.58516C61.9075 7.77946 61.7691 8.06942 61.7279 8.45803H63.9594ZM61.6925 9.53697C61.7249 10.0301 61.878 10.3863 62.1547 10.6042C62.43 10.822 62.7877 10.9324 63.2249 10.9324C63.428 10.9324 63.6194 10.9133 63.7975 10.8779C63.9756 10.8412 64.1346 10.7955 64.2729 10.7381C64.4113 10.6821 64.529 10.6248 64.6262 10.5688C64.7233 10.5115 64.7955 10.4584 64.8455 10.4099L65.2459 11.636C65.1885 11.6757 65.0972 11.7302 64.9721 11.7994C64.847 11.8686 64.691 11.9319 64.5055 11.9937C64.32 12.054 64.1007 12.1056 63.8505 12.1512C63.6002 12.1953 63.325 12.2174 63.0262 12.2174C62.6449 12.2174 62.2843 12.1571 61.9398 12.0364C61.5969 11.9142 61.2951 11.7258 61.0375 11.4711C60.7784 11.2165 60.5724 10.9 60.4193 10.5202C60.2647 10.1405 60.1882 9.6871 60.1882 9.16161C60.1882 8.66849 60.2588 8.23132 60.4001 7.85155C60.5415 7.47178 60.7358 7.15234 60.9816 6.89328C61.2289 6.63568 61.5159 6.43697 61.8427 6.2986C62.1709 6.16171 62.5198 6.09253 62.8922 6.09253C63.2646 6.09253 63.6076 6.15437 63.9241 6.27505C64.2391 6.39575 64.5114 6.58417 64.7425 6.83883C64.9721 7.09348 65.1546 7.42318 65.2871 7.82798C65.4211 8.23131 65.4873 8.71266 65.4873 9.27053V9.53696L61.6925 9.53697Z" fill="#EE3023"/>
</svg>
