<svg width="36" height="36" viewBox="0 0 36 36" fill="none" xmlns="http://www.w3.org/2000/svg">
    <path d="M18 33.8786C9.32143 33.8786 2.18571 26.6786 2.18571 18C2.18571 16.2 2.50714 14.4643 3.08571 12.7929L12.3429 30.7929C12.4714 31.05 12.6 31.2429 12.9214 31.2429C13.2429 31.2429 13.3714 31.05 13.5 30.7929L17.8071 21.2143C17.8714 21.0857 17.9357 21.0214 18 21.0214C18.1286 21.0214 18.1286 21.15 18.1929 21.2143L22.5643 30.7929C22.6929 31.05 22.8214 31.2429 23.1429 31.2429C23.4643 31.2429 23.5929 31.05 23.7214 30.7929L32.9786 12.7929C33.5571 14.4 33.8786 16.1357 33.8786 18C33.8143 26.6786 26.6786 33.8786 18 33.8786V33.8786ZM18 13.8857C17.8714 13.8857 17.8714 13.7571 17.8071 13.6929L12.8571 3.02143C14.4643 2.44286 16.2 2.12143 18 2.12143C19.8 2.12143 21.5357 2.44286 23.1429 3.02143L18.1929 13.6929C18.1286 13.7571 18.1286 13.8857 18 13.8857ZM12.7929 25.4571C12.6643 25.4571 12.6643 25.3286 12.6 25.2643L4.5 9.70714C5.91429 7.39286 7.97143 5.46429 10.35 4.11429L16.0714 16.4571C16.2 16.7143 16.3286 16.7786 16.5214 16.7786H19.4786C19.6714 16.7786 19.8 16.7143 19.9286 16.4571L25.5857 4.11429C27.9643 5.46429 30.0214 7.39286 31.4357 9.70714L23.4 25.2643C23.3357 25.3929 23.2714 25.4571 23.2071 25.4571C23.0786 25.4571 23.0786 25.3286 23.0143 25.2643L19.9286 18.45C19.8 18.1929 19.6714 18.1286 19.4786 18.1286H16.5214C16.3286 18.1286 16.2 18.1929 16.0714 18.45L12.9857 25.2643C12.9214 25.3286 12.9214 25.4571 12.7929 25.4571V25.4571ZM18 36C27.9643 36 36 27.9643 36 18C36 8.03571 27.9643 0 18 0C8.03571 0 0 8.03571 0 18C0 27.9643 8.03571 36 18 36Z" fill="#001E50"/>
</svg>
