<svg width="76" height="40" viewBox="0 0 76 40" fill="none" xmlns="http://www.w3.org/2000/svg">
<g clip-path="url(#clip0_115_8703)">
<path d="M49.213 19.2983L37.7458 0.254346L26.2786 19.2983H49.213Z" fill="#3F125F"/>
<path d="M16.1931 36.0482L13.9666 39.7454L61.525 39.7461L59.2977 36.0482H16.1931Z" fill="#3F125F"/>
<path d="M13.7891 22.1047C12.8175 22.1047 11.7707 25.2446 10.2764 28.5709C9.2851 30.7575 8.48166 32.8505 8.16435 33.4858C7.79077 33.4485 7.41718 33.4106 7.02461 33.4106C6.57577 33.4106 6.10862 33.4485 5.64147 33.4858C5.36145 32.7014 4.52004 30.365 3.56675 28.0102C2.42701 25.2073 1.41813 22.142 0.483154 22.1047V21.9366C1.43712 21.9746 2.37074 22.0118 3.30504 22.0118C3.9783 22.0118 4.65089 21.9746 5.30517 21.9366V22.1047C5.06177 22.18 4.80073 22.1983 4.80073 22.778C4.80073 24.254 7.65991 30.7575 7.95891 31.6355C8.36979 30.6084 10.7428 25.2446 10.7428 22.9645C10.7428 22.3292 10.4818 22.18 10.0892 22.1047V21.9366C10.7245 21.9746 11.3788 22.0118 12.0324 22.0118C12.6114 22.0118 13.2094 21.9746 13.7891 21.9366V22.1047Z" fill="#5A5C61"/>
<path d="M24.3863 30.6455C23.9374 31.6733 23.6011 32.4578 23.4147 33.6538C23.2459 33.5236 22.6668 33.4674 21.9949 33.4484C21.321 33.4111 20.5555 33.4111 19.9385 33.4111H17.7336C16.2386 33.4111 15.0426 33.4674 14.8555 33.4857V33.3175C15.7715 33.3175 15.7715 31.7296 15.7715 27.711C15.7715 23.3948 15.7525 22.1981 14.8555 22.1046V21.9371C15.248 21.9371 15.7152 21.9554 16.2759 21.9744C16.8549 21.9927 17.5282 22.0117 18.3316 22.0117H19.9385C21.6953 22.0117 23.0031 21.9554 23.7883 21.7689C23.6574 22.2917 23.4703 23.0578 23.4703 24.2918V24.6654H23.0784C23.0784 22.946 21.6586 22.6849 19.7331 22.6849C19.3405 22.6849 18.9852 22.7215 18.6862 22.7961C18.5371 23.9921 18.5371 26.4777 18.5371 26.9456C18.7805 26.9639 19.0598 27.0012 19.6022 27.0012C21.639 27.0012 21.8824 26.553 21.957 25.637H22.3495C22.275 26.3469 22.2187 27.0574 22.2187 27.7863C22.2187 29.0196 22.2187 28.2534 22.237 29.225H21.8261C21.8261 28.2345 21.4335 27.6927 19.6022 27.6927C19.1541 27.6927 18.7805 27.6927 18.5371 27.711C18.5371 28.3097 18.5371 31.2618 18.5933 32.4951C19.0042 32.5141 19.4151 32.5697 19.845 32.5697C22.8167 32.5697 23.433 31.6354 24.05 30.4766L24.3863 30.6455Z" fill="#5A5C61"/>
<path d="M25.9841 33.3173C26.9001 33.299 26.9001 31.6732 26.9001 27.7109C26.9001 23.7492 26.9001 22.1417 25.9841 22.1044V21.9369C26.3394 21.9552 26.7503 21.9742 27.1429 21.9925C27.5347 21.9925 27.9273 22.0115 28.2263 22.0115C28.787 22.0115 29.4413 21.9552 30.1885 21.8806C30.9173 21.8244 31.7398 21.7681 32.5812 21.7681C33.1046 21.7681 36.1502 21.7681 36.1502 24.5344C36.1502 26.7393 33.9264 27.4871 32.8795 27.6736C33.2721 28.1224 34.3752 29.8039 35.5895 31.3362C36.6547 32.682 37.1408 33.28 37.6642 33.3173V33.4855C37.4771 33.4672 37.2337 33.4482 37.01 33.4292C36.7666 33.4109 36.5238 33.4109 36.2811 33.4109C35.5149 33.4109 34.7115 33.4482 33.9453 33.5601C33.7209 33.2055 33.011 32.0094 32.1513 30.7199C31.3472 29.5239 30.7119 28.3278 29.983 28.3278C29.7213 28.3278 29.8712 28.3278 29.6657 28.3651C29.6657 31.467 29.6657 33.3173 30.6183 33.3173V33.4855C29.8712 33.4292 29.0298 33.4109 28.3016 33.4109C27.5164 33.4109 26.713 33.4292 25.9841 33.4855V33.3173ZM30.2075 27.6736C31.8706 27.6736 33.1602 27.2817 33.1602 25.2442C33.1602 23.5438 32.1513 22.6095 30.9546 22.6095C30.5438 22.6095 30.1329 22.6841 29.7403 22.7587C29.6657 24.1045 29.6657 27.0756 29.6657 27.6553C29.8149 27.6553 29.9091 27.6736 30.2075 27.6736Z" fill="#5A5C61"/>
<path d="M47.8846 24.5347C47.8846 23.2262 47.1374 22.8716 45.119 22.8716C44.9325 22.8716 44.7637 22.8906 44.5773 22.9089C44.483 23.376 44.483 25.2636 44.483 27.7112C44.483 31.6728 44.483 33.2994 45.4363 33.3177V33.4858C44.7074 33.4296 43.904 33.4113 43.1189 33.4113C42.3337 33.4113 41.531 33.4296 40.8021 33.4858V33.3177C41.7554 33.2994 41.7554 31.6728 41.7554 27.7112C41.7554 25.2636 41.7554 23.376 41.6618 22.9089C41.4747 22.8906 41.3065 22.8716 41.1194 22.8716C38.9335 22.8716 38.204 23.8615 37.9239 25.0954L37.4568 24.9829C37.6995 24.1605 37.9239 22.9828 37.9239 21.7684C38.0365 21.8437 38.6528 21.881 39.4569 21.8993C40.2604 21.9373 41.2503 21.9373 42.0727 21.9373H44.1101C46.3523 21.9373 47.9036 21.9183 48.6881 21.7684C48.5762 22.3109 48.3897 23.0953 48.3897 24.6839V25.0392H47.8846V24.5347Z" fill="#5A5C61"/>
<path d="M59.5464 30.6455C59.0983 31.6733 58.7613 32.4578 58.5742 33.6538C58.4067 33.5236 57.827 33.4674 57.1537 33.4484C56.4818 33.4111 55.7157 33.4111 55.0987 33.4111H52.8931C51.3981 33.4111 50.2021 33.4674 50.0156 33.4857V33.3175C50.9309 33.3175 50.9309 31.7296 50.9309 27.711C50.9309 23.3948 50.9126 22.1981 50.0156 22.1046V21.9371C50.4075 21.9371 50.8753 21.9554 51.4354 21.9744C52.0144 21.9927 52.6877 22.0117 53.4918 22.0117H55.0987C56.8554 22.0117 58.1633 21.9554 58.9484 21.7689C58.8176 22.2917 58.6304 23.0578 58.6304 24.2918V24.6654H58.2386C58.2386 22.946 56.8181 22.6849 54.8932 22.6849C54.5007 22.6849 54.1454 22.7215 53.8464 22.7961C53.6972 23.9921 53.6972 26.4777 53.6972 26.9456C53.94 26.9639 54.2207 27.0012 54.7624 27.0012C56.7991 27.0012 57.0419 26.553 57.1171 25.637H57.5097C57.4344 26.3469 57.3788 27.0574 57.3788 27.7863C57.3788 29.0196 57.3788 28.2534 57.3971 29.225H56.9856C56.9856 28.2345 56.5937 27.6927 54.7624 27.6927C54.3135 27.6927 53.94 27.6927 53.6972 27.711C53.6972 28.3097 53.6972 31.2618 53.7528 32.4951C54.1644 32.5141 54.5753 32.5697 55.0051 32.5697C57.9762 32.5697 58.5932 31.6354 59.2095 30.4766L59.5464 30.6455Z" fill="#5A5C61"/>
<path d="M60.2014 33.3175C60.575 33.3175 60.7059 33.1683 61.0049 32.9073C61.6029 32.3649 65.5089 28.1972 65.5835 28.1226C65.2282 27.6927 63.7705 25.7868 61.9954 23.5067C60.9676 22.1981 60.893 22.2361 60.3879 22.1045V21.9371C61.3418 21.9744 62.2944 22.0117 63.247 22.0117C64.0505 22.0117 64.9102 21.9744 65.696 21.9371V22.1045C65.4709 22.1425 65.2092 22.1981 65.2092 22.4788C65.2092 23.2633 67.2466 25.7489 67.6392 26.2913C68.1816 25.656 69.9377 23.226 69.9377 22.647C69.9377 22.1425 69.6014 22.1425 69.3214 22.1045V21.9371C69.9933 21.9561 70.6665 22.0117 71.3581 22.0117C71.9744 22.0117 72.6287 21.9744 73.2267 21.9371V22.1045C73.0396 22.1235 72.8151 22.1981 72.5541 22.3107C72.1053 22.4971 69.657 25.4315 68.1253 26.8703C68.4989 27.3185 70.3865 29.6929 72.3107 31.9906C73.3203 33.2063 73.4321 33.2619 73.8993 33.3175V33.4863C72.8897 33.4111 71.8625 33.4111 70.853 33.4111C70.0875 33.4111 69.303 33.4484 68.5362 33.4863V33.3175C68.7973 33.3175 69.0224 33.2802 69.0224 32.9636C69.0224 32.3649 66.4805 29.4122 66.0316 28.7016C65.5462 29.3003 63.5277 31.8788 63.5277 32.8883C63.5277 33.3175 63.9013 33.3175 64.1441 33.3175V33.4863C63.5088 33.4484 62.8918 33.4111 62.2571 33.4111C61.5656 33.4111 60.874 33.4484 60.2014 33.4863V33.3175Z" fill="#5A5C61"/>
<path d="M74.8184 23.2056C74.4082 23.2056 74.1167 22.8984 74.1167 22.4923C74.1167 22.0624 74.4408 21.7784 74.8184 21.7784C75.1927 21.7784 75.5168 22.0624 75.5168 22.4923C75.5168 22.9215 75.1927 23.2056 74.8184 23.2056ZM74.8184 21.9024C74.5093 21.9024 74.2693 22.1445 74.2693 22.4923C74.2693 22.8164 74.4788 23.0815 74.8184 23.0815C75.1235 23.0815 75.3642 22.8415 75.3642 22.4923C75.3642 22.1445 75.1235 21.9024 74.8184 21.9024ZM74.6774 22.9005H74.5472V22.1106H74.8469C75.0381 22.1106 75.1351 22.177 75.1351 22.3377C75.1351 22.4808 75.0476 22.5398 74.9296 22.5533L75.1507 22.9005H75.0035L74.7995 22.5628H74.6774V22.9005ZM74.8225 22.4523C74.9195 22.4523 75.0056 22.4428 75.0056 22.3275C75.0056 22.2326 74.912 22.2211 74.834 22.2211H74.6774V22.4523H74.8225Z" fill="#5A5C61"/>
</g>
<defs>
<clipPath id="clip0_115_8703">
<rect width="75.542" height="40" fill="white" transform="translate(0.229004)"/>
</clipPath>
</defs>
</svg>
