<svg width="152" height="40" viewBox="0 0 152 40" fill="none" xmlns="http://www.w3.org/2000/svg">
<g clip-path="url(#clip0_115_8738)">
<path d="M146.233 11.3679H145.574C145.529 11.3679 145.492 11.3314 145.492 11.2864V10.9319C145.491 10.8869 145.527 10.8496 145.572 10.8486C145.573 10.8486 145.573 10.8486 145.574 10.8486H147.454C147.499 10.8486 147.536 10.8851 147.536 10.9301C147.536 10.9307 147.536 10.9313 147.536 10.9319V11.2864C147.536 11.3314 147.499 11.3679 147.454 11.3679H146.797V13.7817C146.795 13.8266 146.758 13.8623 146.713 13.8632H146.314C146.27 13.8623 146.234 13.8263 146.233 13.7817L146.233 11.3679Z" fill="#2A276E"/>
<path d="M148.516 10.8735C148.519 10.834 148.554 10.8048 148.594 10.8079H148.663C148.693 10.8071 148.721 10.8236 148.735 10.8505L149.682 12.8779H149.696L150.642 10.8469C150.655 10.8191 150.684 10.8022 150.715 10.8044H150.784C150.824 10.8013 150.858 10.8306 150.862 10.87L151.373 13.764C151.386 13.8027 151.366 13.8453 151.328 13.8593C151.317 13.8631 151.306 13.8645 151.295 13.8633H150.903C150.865 13.8596 150.833 13.8339 150.821 13.7978L150.568 12.1673H150.556L149.802 13.858C149.791 13.8882 149.762 13.9077 149.73 13.9058H149.652C149.62 13.9071 149.591 13.8879 149.579 13.858L148.817 12.1673H148.805L148.555 13.7978C148.546 13.8345 148.514 13.8612 148.477 13.8633H148.09C148.048 13.8689 148.008 13.839 148.003 13.7963C148.001 13.7855 148.002 13.7746 148.005 13.7641L148.516 10.8735Z" fill="#2A276E"/>
<path d="M138.635 18.2315C136.54 17.3773 135.584 16.5514 135.584 15.3357C135.584 14.5081 136.385 13.5263 137.859 13.5263C139.277 13.5263 141.246 14.8183 141.453 14.9441C141.763 15.1514 142.151 14.9441 142.359 14.6339L143.341 13.1595C143.519 12.8785 143.452 12.5079 143.186 12.307C142.669 11.9189 140.652 10.5737 138.015 10.5737C133.904 10.5737 132.197 13.232 132.197 15.5359C132.197 18.5859 134.627 20.1437 137.058 21.1202C139.229 22.0063 140.342 22.9048 140.342 24.2233C140.342 25.3344 139.334 26.2135 137.988 26.2135C136.308 26.2135 134.214 24.6894 134.09 24.6186C133.828 24.4164 133.451 24.465 133.249 24.7269C133.232 24.7488 133.217 24.7718 133.203 24.7958L132.271 26.3908C132.039 26.8038 132.168 26.9331 132.401 27.1653C132.918 27.6561 134.832 29.1821 138.089 29.1821C141.737 29.1821 144.037 26.7258 144.037 24.0622C144.039 20.7392 141.143 19.2399 138.635 18.2315Z" fill="#2A276E"/>
<path d="M127.52 10.8359H124.624V28.4448C124.633 28.7124 124.848 28.9274 125.115 28.9356H128.011V11.3268C128.003 11.0592 127.788 10.8442 127.52 10.8359Z" fill="#2A276E"/>
<path d="M116.701 21.6183C118.949 20.7144 120.527 18.7827 120.527 16.3956C120.504 13.3047 117.982 10.8165 114.891 10.8361H107.005V28.4449C107.004 28.715 107.222 28.9348 107.492 28.9358H107.495H110.365V21.8469H113.236L116.674 28.6984C116.756 28.849 116.917 28.9393 117.088 28.9305H120.642L116.701 21.6183ZM114.606 19.0805H110.391V13.9411H114.606C115.976 13.9411 117.167 15.0789 117.167 16.4488C117.168 17.8948 115.976 19.0805 114.606 19.0805Z" fill="#2A276E"/>
<path d="M83.8507 10.8629C83.7824 10.681 83.6032 10.5652 83.4093 10.5776H83.1417C82.9502 10.572 82.7751 10.6856 82.7022 10.8629L74.3533 28.9396H77.3483C77.6833 28.9475 77.9856 28.7396 78.098 28.4239L79.3651 25.6308H87.0973L88.3644 28.4239C88.5416 28.7784 88.7189 28.9396 89.1141 28.9396H92.1109L83.8507 10.8629ZM80.643 22.7563L83.1773 17.0674H83.2553L85.8409 22.7563H80.643Z" fill="#2A276E"/>
<path d="M103.184 10.836H91.3933V13.4483C91.3933 13.7195 91.6131 13.9393 91.8842 13.9393H95.8397V28.4449C95.849 28.7128 96.0645 28.9275 96.3324 28.9357H99.2282V13.941H103.675V11.3269C103.676 11.0567 103.458 10.8369 103.187 10.8359L103.184 10.836Z" fill="#2A276E"/>
<path d="M71.3069 10.8359H68.4111V28.4448C68.4195 28.7124 68.6344 28.9274 68.902 28.9356H71.7996V11.3268C71.7912 11.0586 71.5751 10.8433 71.3069 10.8359Z" fill="#2A276E"/>
<path d="M61.8061 10.751C61.6161 10.7495 61.4434 10.8609 61.3666 11.0345L56.4043 22.1534H56.2271L51.2648 11.0345C51.1879 10.8608 51.0152 10.7495 50.8254 10.751H47.4404L55.738 28.8277C55.8109 29.005 55.986 29.1185 56.1775 29.113H56.4363C56.6276 29.1175 56.8021 29.0043 56.8758 28.8277L65.2053 10.751H61.8061Z" fill="#2A276E"/>
<path d="M28.5468 28.2678C14.7943 38.9507 1.16416 20.5958 3.2324 10.3223C3.23531 10.294 3.21471 10.2688 3.18647 10.2659C3.16747 10.264 3.14898 10.2727 3.13843 10.2886C-2.08921 19.7115 1.08386 31.5819 10.3159 37.1396C10.5769 37.2971 10.8592 37.4165 11.1542 37.494C13.7647 38.155 22.5336 39.2468 28.6212 28.3405C28.6413 28.32 28.6409 28.287 28.6203 28.2669C28.5997 28.2468 28.5669 28.2472 28.5468 28.2678Z" fill="#703E97"/>
<path d="M23.8131 9.00202C39.9403 15.5717 30.8612 36.553 20.9368 39.8989C20.9102 39.9054 20.8939 39.9323 20.9003 39.9589C20.9063 39.9833 20.9296 39.9994 20.9545 39.9964C31.7246 39.8064 40.4117 31.1248 40.6085 20.3549C40.6121 20.051 40.5709 19.7483 40.4862 19.4564C39.7542 16.8653 36.3161 8.72373 23.8273 8.90634C23.7999 8.90845 23.7795 8.93237 23.7816 8.95971C23.7831 8.9786 23.7953 8.99509 23.8131 9.00202Z" fill="#F1CB14"/>
<path d="M9.49542 22.7313C7.11351 5.48054 29.8299 2.85411 37.6932 9.78174C37.7108 9.80275 37.7421 9.80556 37.7633 9.78798C37.7843 9.77039 37.7871 9.73903 37.7695 9.71793C32.2234 0.478729 20.3569 -2.70921 10.9274 2.50677C10.6627 2.65622 10.4209 2.84295 10.2096 3.06144C8.33099 4.99139 3.00014 12.0395 9.40145 22.765C9.41713 22.7886 9.44909 22.795 9.4727 22.7793C9.48858 22.7688 9.49733 22.7503 9.49542 22.7313Z" fill="#2A276E"/>
<path d="M28.9986 16.0872C28.9827 16.0517 28.9632 16.018 28.9473 15.9827C28.8321 15.7452 28.7098 15.513 28.5751 15.288L28.5024 15.1692C25.8353 10.8136 20.1424 9.44487 15.7869 12.1119C14.5405 12.8751 13.4928 13.9229 12.7296 15.1692L12.6569 15.2879C12.5222 15.5129 12.3999 15.7451 12.2848 15.9826C12.2688 16.018 12.2493 16.0517 12.2334 16.0871C11.0973 18.5246 11.0772 21.3356 12.1784 23.7892C12.1961 23.83 12.2139 23.8725 12.2334 23.915C12.3433 24.149 12.4656 24.3793 12.5879 24.6027C12.6092 24.6398 12.6287 24.6771 12.6517 24.7143C15.2548 29.1095 20.9281 30.5623 25.3233 27.9591C26.6602 27.1673 27.7762 26.0513 28.5681 24.7143C28.5911 24.6771 28.6106 24.6398 28.6319 24.6027C28.7612 24.3793 28.8817 24.149 28.9864 23.915C29.0059 23.8725 29.0236 23.83 29.0413 23.7892C30.1426 21.3357 30.1225 18.5247 28.9864 16.0871L28.9986 16.0872ZM28.1018 16.0872C28.6509 17.1389 28.9716 18.2949 29.0429 19.4792H25.4169C25.3882 18.3363 25.2402 17.1994 24.9756 16.0872L24.9491 15.9827H28.0416L28.1018 16.0872ZM24.6035 20.3989C24.5834 21.5405 24.4432 22.6769 24.1852 23.7892H21.0164V20.4007V20.2944H24.6052C24.6053 20.321 24.6053 20.3636 24.6035 20.3989ZM17.0485 23.7893C16.7905 22.677 16.6504 21.5406 16.6302 20.399C16.6302 20.3636 16.6302 20.3282 16.6302 20.2927H20.2189V20.399V23.7875L17.0485 23.7893ZM17.0768 16.0872C17.0857 16.0517 17.0963 16.018 17.1052 15.9827H20.2172V19.4792H16.6338C16.6614 18.336 16.81 17.199 17.0768 16.0872ZM24.1286 15.9827C24.1392 16.0181 24.1481 16.0518 24.1569 16.0872C24.4238 17.199 24.5723 18.3361 24.5999 19.4792H21.0165V15.9827H24.1286ZM27.54 15.1692H24.7151C24.2916 13.8418 23.6996 12.7341 22.9943 11.9614C22.9815 11.9479 22.9821 11.9266 22.9957 11.9138C23.0049 11.9053 23.0179 11.9025 23.0298 11.9065C24.858 12.4545 26.4474 13.6043 27.54 15.1692ZM21.0697 11.5928C22.2376 11.8728 23.2531 13.2233 23.8928 15.1692H21.0165V11.6371C21.0148 11.6137 21.0324 11.5933 21.0558 11.5916C21.0604 11.5912 21.0652 11.5916 21.0697 11.5928ZM20.2172 11.6353V15.1691H17.3409C17.9807 13.2196 18.9962 11.8727 20.1641 11.5927C20.1868 11.5868 20.21 11.6003 20.2159 11.6232C20.2171 11.6277 20.2175 11.6324 20.2172 11.637V11.6353ZM18.2394 11.9614C17.5306 12.7341 16.9421 13.8418 16.5186 15.1692H13.6937C14.7868 13.6047 16.376 12.4551 18.2041 11.9066C18.2216 11.9005 18.2408 11.9099 18.2469 11.9275C18.2508 11.9392 18.248 11.9523 18.2394 11.9614ZM13.139 16.0872L13.1993 15.9827H16.2919L16.2654 16.0872C16.0007 17.1994 15.8528 18.3362 15.8241 19.4792H12.191C12.2644 18.2943 12.5875 17.1384 13.139 16.0872ZM12.1891 20.3989C12.1891 20.3635 12.1891 20.3281 12.1891 20.2926H15.8203V20.3989C15.8419 21.5404 15.9821 22.6766 16.2386 23.7892H13.0717C12.5398 22.7343 12.2366 21.579 12.182 20.3989H12.1891ZM13.5449 24.6045H16.4531L16.485 24.7161C16.9121 26.0967 17.5199 27.2469 18.2466 28.0426C18.2593 28.0561 18.2587 28.0774 18.2452 28.0902C18.236 28.0987 18.223 28.1016 18.2111 28.0975C16.2886 27.5238 14.6324 26.2858 13.5377 24.6045H13.5449ZM20.2244 24.7143V28.3669C20.2251 28.3904 20.2067 28.41 20.1832 28.4107C20.1791 28.4108 20.175 28.4104 20.1712 28.4094C18.9572 28.1187 17.9081 26.6726 17.2736 24.6045H20.2244V24.7143ZM21.0768 28.4094C21.0541 28.4153 21.0309 28.4017 21.025 28.3788C21.024 28.3749 21.0235 28.3709 21.0237 28.3668V24.6026H23.9673C23.3328 26.6725 22.2837 28.1186 21.0697 28.4093L21.0768 28.4094ZM27.7032 24.6045C26.6099 26.2838 24.9565 27.5208 23.0369 28.0957C23.0193 28.1018 23.0001 28.0924 22.9941 28.0748C22.9901 28.063 22.9929 28.0499 23.0014 28.0407C23.7281 27.2451 24.3359 26.0913 24.7631 24.7143L24.7949 24.6027H27.7032V24.6045ZM29.0588 20.3989C29.0054 21.5788 28.7034 22.7341 28.1727 23.7892H25.0129C25.2694 22.6766 25.4095 21.5404 25.4312 20.3989V20.2926H29.0536C29.0518 20.3209 29.0536 20.3635 29.0518 20.3989H29.0588Z" fill="#2A276E"/>
</g>
<defs>
<clipPath id="clip0_115_8738">
<rect width="150.754" height="40" fill="white" transform="translate(0.623047)"/>
</clipPath>
</defs>
</svg>
