<?xml version="1.0" encoding="UTF-8"?>
<svg width="512px" height="512px" viewBox="0 0 512 512" version="1.1" xmlns="http://www.w3.org/2000/svg" xmlns:xlink="http://www.w3.org/1999/xlink">
    <!-- Generator: Sketch 49 (51002) - http://www.bohemiancoding.com/sketch -->
    <title>#VZ</title>
    <desc>Created with Sketch.</desc>
    <defs></defs>
    <g id="#VZ" stroke="none" stroke-width="1" fill="none" fill-rule="evenodd">
        <g id="Page-1" transform="translate(0.000000, 117.000000)">
            <path d="M230.3789,181.415 L233.5769,163.221 L259.3529,163.221 L256.0869,181.415 L230.3789,181.415 Z M36.6199,253.941 L25.5339,189.641 L51.2999,189.641 L55.4769,230.254 L73.9339,189.641 L98.6879,189.641 L65.3439,253.941 L36.6199,253.941 Z M392.8389,253.941 L404.2499,189.641 L427.7799,189.641 L425.9869,199.699 C433.1629,191.965 440.2159,187.801 449.9609,187.801 C467.0869,187.801 473.3659,197.737 470.2229,215.404 L463.3639,253.941 L437.5889,253.941 L443.6829,219.95 C444.7729,213.563 444.0649,207.924 436.7539,207.924 C428.8749,207.924 425.8549,212.954 424.3819,221.172 L418.5469,253.937 L392.8389,253.941 Z M164.1449,253.941 L175.6189,189.641 L199.0239,189.641 L196.7159,202.65 L196.9109,202.65 C202.2939,192.581 209.4699,187.801 219.4739,187.801 C220.6279,187.801 221.7189,188.048 222.8139,188.173 L218.2549,213.686 C216.5249,213.448 214.8009,212.956 213.0699,212.956 C202.5539,212.956 196.3349,217.862 193.8909,231.725 L189.9209,253.939 L164.1449,253.941 Z M360.4639,204.977 C351.6809,204.977 347.4499,213.934 346.1619,221.174 C344.0509,233.322 347.6389,238.608 354.2479,238.608 C361.1649,238.608 366.2999,233.322 368.4759,221.174 C370.1439,211.722 367.1939,204.606 360.4639,204.977 Z M319.1059,222.522 C323.0849,200.196 340.1399,187.801 361.9979,187.801 C384.9509,187.801 396.6839,201.172 393.0929,221.176 C388.9289,244.737 370.8419,255.785 350.0749,255.785 C329.2399,255.782 315.1969,244.49 319.1059,222.522 Z M116.7659,214.552 L140.1709,214.552 C141.1909,208.658 136.8299,203.383 130.7469,203.383 C123.1159,203.383 117.9839,207.681 116.7659,214.552 Z M163.5659,227.561 L114.4559,227.561 C113.1159,235.159 118.1779,240.199 124.9719,240.199 C129.0139,240.199 133.0459,238.359 135.6139,234.552 L160.2369,234.552 C152.9259,250.506 135.6759,255.778 120.5499,255.778 C99.7739,255.778 85.8029,244.001 89.6489,222.405 C93.3609,201.291 111.7669,187.794 132.5429,187.794 C156.5129,187.8 168.1229,204.246 163.5659,227.561 Z M243.1969,253.941 L217.4919,253.941 L228.9059,189.641 L254.6739,189.641 L243.1969,253.941 Z" id="Fill-1" fill="#000000"></path>
            <polygon id="Fill-3" fill="#ED1B34" points="0 0 70 154.5 512 7.5 63 171.5"></polygon>
            <polyline id="Fill-5" fill="#ED1B34" points="323.5 189.667 320.833 206.667 279.167 261 463.167 261 246.833 279 250.167 262.333 291.5 209 258.5 208.333 262.5 189.667"></polyline>
        </g>
    </g>
</svg>