<svg width="132" height="40" viewBox="0 0 132 40" fill="none" xmlns="http://www.w3.org/2000/svg">
<g clip-path="url(#clip0_115_8758)">
<path d="M4.01196 27.5038C4.01196 33.2505 11.4936 37.9106 20.7246 37.9106C29.9555 37.9106 37.4372 33.2499 37.4372 27.5038C37.4372 21.7578 29.9549 17.0977 20.7246 17.0977C11.4942 17.0977 4.01196 21.7571 4.01196 27.5038Z" fill="white"/>
<path d="M21.1136 37.063C12.9443 37.8688 5.89249 34.1772 5.36099 28.813C4.83081 23.4501 11.0257 18.4488 19.1937 17.6411C27.3636 16.8327 34.4161 20.5256 34.9463 25.8871C35.4758 31.252 29.2836 36.2546 21.1136 37.063ZM37.4542 19.2579C36.7593 19.0505 36.2829 18.9081 36.6464 17.9954C37.4345 16.0125 37.5158 14.3025 36.6615 13.082C35.0598 10.794 30.6766 10.9167 25.6523 13.021C25.6523 13.0177 24.0749 13.7113 24.4778 12.46C25.2508 9.97507 25.134 7.89436 23.9312 6.69292C21.2061 3.96523 13.9574 6.79594 7.74091 13.0098C3.08606 17.6654 0.383301 22.5991 0.383301 26.8655C0.383301 35.0263 10.8485 39.9875 21.0867 39.9875C34.5073 39.9875 43.4351 32.1896 43.4351 25.9994C43.4351 22.2585 40.2849 20.1358 37.4542 19.2579Z" fill="#E6162D"/>
<path d="M46.3663 4.32415C43.1254 0.730977 38.3446 -0.638446 33.9319 0.299218H33.9306C33.6879 0.351049 33.4578 0.450166 33.2535 0.59091C33.0491 0.731655 32.8745 0.91127 32.7396 1.1195C32.6047 1.32773 32.5121 1.5605 32.4671 1.80452C32.4221 2.04853 32.4256 2.29902 32.4775 2.54167C32.5293 2.78432 32.6284 3.01439 32.7692 3.21874C32.9099 3.42309 33.0895 3.59771 33.2978 3.73264C33.506 3.86757 33.7388 3.96017 33.9828 4.00514C34.2268 4.05012 34.4773 4.04659 34.7199 3.99476C37.859 3.32809 41.256 4.30447 43.5618 6.85565C44.6544 8.06648 45.4089 9.54365 45.7495 11.1386C46.0901 12.7336 46.0048 14.3901 45.5021 15.9416L45.5027 15.9423C45.4261 16.1784 45.3968 16.4273 45.4165 16.6748C45.4362 16.9223 45.5045 17.1635 45.6176 17.3845C45.7307 17.6055 45.8862 17.802 46.0754 17.9628C46.2646 18.1236 46.4836 18.2455 46.7199 18.3215C47.1963 18.4756 47.7144 18.4343 48.1604 18.2067C48.6063 17.9791 48.9438 17.5838 49.0985 17.1076L49.0992 17.0997C50.4824 12.8071 49.6084 7.91339 46.3663 4.32415Z" fill="#FF9933"/>
<path d="M41.3886 8.81574C39.8112 7.06574 37.4824 6.40104 35.3322 6.85839C35.1182 6.89753 34.9143 6.9792 34.7324 7.09857C34.5506 7.21794 34.3946 7.37258 34.2736 7.55333C34.1526 7.73409 34.0691 7.93728 34.028 8.15088C33.987 8.36448 33.9892 8.58415 34.0345 8.79688C34.0799 9.00961 34.1675 9.21108 34.2921 9.38936C34.4167 9.56763 34.5758 9.7191 34.76 9.83478C34.9442 9.95046 35.1497 10.028 35.3644 10.0628C35.5791 10.0977 35.7987 10.0891 36.01 10.0375V10.0388C36.5442 9.92459 37.0991 9.95271 37.619 10.1204C38.139 10.2881 38.6057 10.5894 38.9726 10.9942C39.3388 11.4 39.5915 11.8953 39.7052 12.4299C39.8189 12.9646 39.7896 13.5198 39.6202 14.0395H39.6215C39.4888 14.4499 39.5245 14.8963 39.7208 15.2804C39.917 15.6645 40.2578 15.955 40.6681 16.088C41.0787 16.2204 41.5251 16.1844 41.9091 15.9877C42.2932 15.7911 42.5834 15.45 42.716 15.0395C43.3919 12.9483 42.9693 10.5651 41.3886 8.81574Z" fill="#FF9933"/>
<path d="M21.5643 27.3485C21.2783 27.838 20.647 28.0729 20.1523 27.8688C19.6654 27.668 19.5125 27.1221 19.7894 26.6418C20.0742 26.1641 20.6818 25.9311 21.1667 26.1234C21.6601 26.3039 21.8373 26.857 21.5643 27.3485ZM18.9613 30.6903C18.1713 31.9508 16.479 32.5033 15.2041 31.9213C13.9482 31.3498 13.5775 29.8846 14.3688 28.6556C15.149 27.4318 16.7842 26.8859 18.0493 27.4161C19.3288 27.962 19.7382 29.4167 18.9613 30.6903ZM21.9305 21.7678C18.0427 20.756 13.6483 22.6936 11.96 26.1195C10.2402 29.6129 11.9036 33.4909 15.8301 34.7592C19.899 36.0709 24.6943 34.0611 26.3616 30.2894C28.0066 26.6031 25.9535 22.8078 21.9305 21.7678ZM68.5978 10.359C71.1083 10.3367 73.4817 10.0965 75.7225 9.64046L75.8321 10.9909C73.3563 11.2947 71.2645 11.4941 69.5578 11.5873L68.462 15.6713H75.088L74.7691 16.8636H72.1726L69.712 26.0493H68.3688L70.8294 16.8636H68.1431L67.9128 17.7231C66.9521 21.3104 65.3137 24.1044 62.9994 26.1024C62.7947 25.7197 62.5742 25.3456 62.3386 24.981C64.3399 23.3327 65.775 20.8964 66.6398 17.6693L68.5978 10.359ZM62.9049 20.229C63.3061 21.0342 63.6794 21.8529 64.0243 22.6838L62.6569 23.4554C62.3791 22.5865 62.043 21.7372 61.651 20.9134L62.9049 20.229ZM58.855 10.8852H62.7756C62.6305 10.3616 62.4736 9.8414 62.3052 9.32485L63.6077 8.79926C63.8222 9.39506 64.0119 9.99676 64.1746 10.605L63.4928 10.8852H67.3491L67.0479 12.0066H58.5545L58.855 10.8852ZM57.1864 14.9528H60.1077C59.8052 14.1641 59.502 13.4856 59.2002 12.9193L60.359 12.2527C60.6332 12.7205 60.9692 13.3806 61.3714 14.2336L60.1542 14.9528H62.5486C63.4228 14.0691 64.274 13.1629 65.1011 12.235L66.2015 12.9364C65.4722 13.6199 64.7324 14.2922 63.9823 14.9528H66.7336L66.4325 16.0742H56.8859L57.1864 14.9528ZM56.815 18.231H60.5171L60.9626 16.5657H62.2704L61.8235 18.231H65.3813L65.0794 19.3524H61.523L60.296 23.9279C59.9653 25.1667 59.1818 25.7861 57.9475 25.7861C57.4285 25.7861 56.8426 25.7809 56.1923 25.7691C56.2474 25.3826 56.2986 24.939 56.3491 24.4371C57.0322 24.5073 57.5735 24.5414 57.9738 24.5414C58.5407 24.5414 58.9062 24.2448 59.0663 23.6483L60.2153 19.3531H56.5138L56.815 18.231ZM57.7008 20.1411L58.7848 20.7021C57.8564 21.925 56.8891 23.1178 55.8846 24.2789C55.5893 24.0683 55.2461 23.857 54.8557 23.6477C55.6864 22.7599 56.6339 21.5913 57.7008 20.1411ZM91.4541 12.0952H83.6129L83.0407 14.233H90.8819L91.4541 12.0952ZM90.0033 17.5119L90.5794 15.3557H82.7389L82.1621 17.5119H90.0033ZM91.1844 19.2645L91.7829 20.3518C90.4974 21.042 89.0302 21.7533 87.3793 22.4915C88.3176 23.4147 89.6372 24.0447 91.3367 24.3832C90.9626 24.6989 90.5027 25.1503 89.9587 25.7343C86.5007 24.7297 84.5315 22.3754 84.0479 18.6693H81.8511L80.3616 24.2264C81.8013 23.7718 83.2253 23.2692 84.6313 22.7192C84.4384 23.3504 84.3117 23.8465 84.2514 24.2094C82.7822 24.6772 81.3117 25.1969 79.8399 25.7691C79.4879 25.92 79.1414 26.0837 78.8012 26.2599L78.2947 25.0335C78.6588 24.8478 78.9101 24.5014 79.0447 23.9994L82.5433 10.9397H87.1339C87.0175 10.3728 86.8774 9.81107 86.7139 9.25595L88.1168 8.76514C88.3268 9.48114 88.5022 10.2068 88.6424 10.9397H93.1431L90.939 19.1615H89.5598L89.6923 18.6693H85.4443C85.6556 19.7796 86.0571 20.7678 86.6477 21.6326C88.0945 20.9764 89.607 20.1884 91.1844 19.2645ZM78.9121 9.18443C79.6424 9.88456 80.4554 10.7402 81.3472 11.7441C80.8281 12.1536 80.3747 12.5151 79.9876 12.8301C79.0086 11.6044 78.2553 10.71 77.7284 10.149L78.9121 9.18443ZM77.006 13.7258C77.7481 14.3452 78.5978 15.1398 79.5611 16.1103C78.9823 16.6011 78.5289 16.981 78.2035 17.2487C77.1536 16.0696 76.3603 15.2343 75.8262 14.7422L77.006 13.7258ZM77.4213 18.8793C77.8491 19.0899 78.2789 19.2888 78.714 19.4751C77.3878 21.8012 76.1208 24.0269 74.9095 26.1542L73.4718 25.63C74.7317 23.6772 76.0493 21.4272 77.4213 18.8793ZM110.717 13.4981H108.539L108.44 13.6634C107.816 16.0598 107.602 18.1582 107.797 19.9567C108.717 18.5086 109.69 16.355 110.717 13.4981ZM109.58 8.93968L110.757 9.15031C110.291 10.1961 109.788 11.225 109.249 12.235H113.161L112.822 13.4987H111.951C110.799 16.8472 109.506 19.4974 108.069 21.4476C108.415 22.7514 109.029 23.8642 109.905 24.7881C109.517 25.2435 109.142 25.6936 108.783 26.1372C107.976 25.1338 107.381 23.977 107.035 22.7369C105.981 23.9581 104.732 25.1332 103.287 26.2605C103.113 25.8797 102.914 25.5106 102.692 25.1556C104.333 23.9521 105.686 22.6949 106.752 21.3872C106.51 19.7619 106.585 17.9423 106.982 15.9252C106.666 16.3767 106.345 16.8111 106.014 17.2323C105.838 16.9069 105.628 16.6011 105.388 16.3203C106.987 14.3216 108.385 11.8616 109.58 8.93968ZM99.3977 14.8294L100.549 10.5348H101.71L100.877 13.6378H102.367L103.56 9.18508H104.757L103.564 13.6378H105.053L105.888 10.5178H107.051L105.745 15.3924H104.583L104.732 14.8308H99.3977V14.8294ZM99.3419 16.3898H105.114L104.784 17.6168H99.0138L99.3419 16.3898ZM102.091 20.4226H99.6956L99.4804 21.229C98.9167 23.3321 97.9056 24.8275 96.443 25.7166C96.2995 25.3305 96.1278 24.9554 95.9292 24.5945C97.0479 23.9863 97.8373 22.8189 98.3019 21.088L98.7993 19.2297H103.627L102.81 22.2796C103.598 21.7386 104.38 21.1896 105.156 20.6326C105.129 21.1464 105.11 21.5952 105.102 21.9817C104.162 22.5902 103.237 23.2216 102.328 23.8754C101.996 24.1208 101.69 24.3537 101.413 24.5762L100.787 23.4548C101.198 23.1392 101.476 22.7192 101.618 22.1923L102.091 20.4226ZM94.7907 13.6024C96.7146 12.107 98.2664 10.5814 99.4456 9.02629L100.408 9.64046C98.7871 11.6405 96.923 13.4305 94.859 14.9692C94.8476 14.5131 94.8249 14.0574 94.7907 13.6024ZM93.1864 19.2474C94.9666 17.7054 96.6162 15.8885 98.1306 13.7953L99.1838 14.3386C98.5196 15.2159 97.825 16.0697 97.1011 16.8983L94.6346 26.1011H93.3997L95.3747 18.7382C94.7075 19.4075 94.0095 20.0454 93.2828 20.6497C93.2624 20.1815 93.2303 19.714 93.1864 19.2474ZM129.446 10.9213C128.8 10.5221 128.137 10.1532 127.457 9.81566L128.258 8.9213C128.943 9.23318 129.615 9.57248 130.272 9.93837L129.446 10.9213ZM128.3 14.3216H124.906L124.591 15.4961H127.984L128.3 14.3216ZM123.99 17.7402H127.384L127.703 16.5473H124.31L123.99 17.7402ZM119.927 15.4955H123.285L123.6 14.3209H120.243L119.927 15.4955ZM119.327 17.7402H122.683L123.002 16.5473H119.646L119.327 17.7402ZM117.409 22.9285L118.462 22.0525C119.165 22.5843 119.835 23.1582 120.469 23.771L119.349 24.6989C118.741 24.0681 118.093 23.4768 117.409 22.9285ZM126.844 19.7553L127.102 18.7914H123.707L123.409 19.9128H122.101L122.403 18.7914H119.045L118.692 20.1063H117.385L119.226 13.2336H123.892L124.203 12.0755H118.648L118.95 10.9541H124.502L125.047 8.92065H126.354L125.81 10.9541H131.617L131.315 12.0755H125.507L125.196 13.2336H129.896L128.151 19.7546H126.844V19.7553ZM115.827 20.8419H125.138L125.41 19.8262H126.752L126.48 20.8419H129.402L129.101 21.964H126.179L125.64 23.9817C125.285 25.3019 124.384 25.9626 122.93 25.9626C122.241 25.9626 121.391 25.9489 120.38 25.9266C120.431 25.5525 120.476 25.1208 120.511 24.6287C121.469 24.7107 122.329 24.752 123.091 24.752C123.757 24.752 124.175 24.4364 124.343 23.8052L124.837 21.9633H115.526L115.827 20.8419ZM113.25 13.8655H115.083L116.408 8.9213H117.752L116.426 13.8655H118.169L117.831 15.128H116.088L113.128 26.1733H111.785L114.745 15.128H112.913L113.25 13.8655ZM63.6319 31.1063L59.3183 38.4062H58.2881L57.9121 32.985L54.7815 38.4062H53.7363L53.2323 31.1063H54.5086L54.834 36.5479L57.9935 31.1063H58.9226L59.3012 36.5703L62.6057 31.1063H63.6319ZM69.7756 34.0112C69.8727 33.6011 69.897 33.2382 69.8412 32.92C69.7848 32.6031 69.6195 32.3314 69.3458 32.1077C69.0709 31.8826 68.6982 31.7697 68.2277 31.7697C67.5958 31.7697 67.0053 31.9745 66.4561 32.378C65.9069 32.7829 65.5138 33.3268 65.2769 34.0112H69.7756ZM69.2514 36.2297L70.378 36.4462C69.9954 37.0703 69.4357 37.5867 68.6989 37.9941C67.9728 38.4009 67.1538 38.6125 66.3216 38.6083C65.2028 38.6083 64.3924 38.2573 63.8891 37.5552C63.3852 36.8531 63.2855 35.9344 63.5899 34.7947C63.9023 33.6326 64.5132 32.6943 65.4233 31.9784C66.3334 31.2612 67.3321 30.9023 68.4174 30.9023C69.4876 30.9023 70.2619 31.2336 70.7343 31.8937C71.208 32.5532 71.2783 33.5414 70.9397 34.8563H64.9935C64.6969 35.96 64.7566 36.7041 65.1713 37.0899C65.5736 37.4706 66.109 37.6786 66.6628 37.6693C67.7061 37.6693 68.5696 37.1884 69.2514 36.2297ZM75.8603 28.5401L75.523 29.8045H74.1529L74.4902 28.5401H75.8603ZM75.1339 31.1057L73.1772 38.4062H71.9042L73.8616 31.1057H75.1339ZM77.7533 35.5434C77.6122 36.294 77.7245 36.8373 78.0919 37.1759C78.447 37.509 78.9181 37.6905 79.4049 37.6818C80.0545 37.6818 80.6464 37.4318 81.1792 36.9298C81.7094 36.4279 82.0932 35.7409 82.3275 34.8675C82.5801 33.9266 82.5853 33.1871 82.3445 32.6503C82.1044 32.1116 81.6431 31.8432 80.9613 31.8432C80.4259 31.8432 79.8911 32.0348 79.359 32.4187C78.8343 32.79 78.4293 33.3063 78.1936 33.9042L77.7533 35.5434ZM76.3281 38.4062H75.7133L78.3577 28.5401H79.6293L78.6162 32.3203C79.4528 31.376 80.3846 30.9029 81.4115 30.9029C82.3511 30.9029 83.0506 31.2343 83.5079 31.8951C83.9666 32.5552 84.0256 33.5151 83.6877 34.775C83.3977 35.859 82.8426 36.7704 82.0197 37.5053C81.1995 38.2415 80.2881 38.6096 79.2901 38.6096C78.1766 38.6096 77.4495 38.1392 77.1063 37.2002L76.3281 38.4062ZM87.8583 37.6687C88.5059 37.6687 89.1129 37.4298 89.6779 36.9521C90.2455 36.4758 90.6621 35.733 90.9325 34.7264C91.2021 33.7153 91.17 32.981 90.8327 32.525C90.4955 32.0716 90.0204 31.8432 89.4023 31.8432C88.7704 31.8432 88.1739 32.0729 87.6116 32.5329C87.0512 32.9928 86.6365 33.7218 86.3701 34.7185C86.0873 35.7743 86.1044 36.5302 86.4193 36.985C86.7376 37.441 87.2153 37.6687 87.8583 37.6687ZM87.5099 38.6077C86.3859 38.6077 85.609 38.2369 85.1772 37.4935C84.7454 36.75 84.6798 35.8301 84.9731 34.7304C85.2861 33.5676 85.8878 32.6385 86.7815 31.9449C87.6766 31.2494 88.6503 30.9029 89.7035 30.9029C90.8327 30.9029 91.6247 31.2678 92.0794 31.9994C92.5355 32.7297 92.6175 33.6431 92.3242 34.7369C92.0191 35.8754 91.4167 36.8052 90.5223 37.5269C89.6273 38.2481 88.6234 38.6077 87.5099 38.6077ZM95.4056 36.7861L94.9725 38.4062H93.1549L93.5886 36.7861H95.4056ZM102.927 35.8465L104.031 36.0269C103.652 36.834 103.123 37.4659 102.444 37.9226C101.776 38.3764 100.986 38.6156 100.179 38.6083C99.0486 38.6083 98.2881 38.2356 97.8957 37.4941C97.5027 36.75 97.4502 35.8439 97.7369 34.7737C98.0335 33.6654 98.5926 32.7415 99.4154 32.0059C100.236 31.2717 101.184 30.9023 102.259 30.9023C103.151 30.9023 103.803 31.1405 104.213 31.6142C104.623 32.0893 104.793 32.7028 104.72 33.4541L103.517 33.649C103.623 32.4456 103.133 31.8432 102.045 31.8432C101.343 31.8432 100.732 32.1083 100.211 32.6418C99.6923 33.1746 99.3183 33.8642 99.0899 34.7113C98.8399 35.6483 98.8334 36.3747 99.0696 36.8911C99.3038 37.4095 99.7645 37.6693 100.444 37.6693C101.495 37.6693 102.322 37.0604 102.927 35.8465ZM108.366 37.6687C109.013 37.6687 109.619 37.4298 110.186 36.9521C110.751 36.4758 111.167 35.733 111.438 34.7264C111.709 33.7153 111.676 32.981 111.338 32.525C111.002 32.0716 110.526 31.8432 109.91 31.8432C109.276 31.8432 108.681 32.0729 108.119 32.5329C107.558 32.9928 107.145 33.7218 106.876 34.7185C106.593 35.7743 106.61 36.5302 106.926 36.985C107.243 37.441 107.721 37.6687 108.366 37.6687ZM108.015 38.6077C106.891 38.6077 106.115 38.2369 105.684 37.4935C105.253 36.75 105.185 35.8301 105.481 34.7304C105.791 33.5676 106.393 32.6385 107.288 31.9449C108.182 31.2494 109.156 30.9029 110.209 30.9029C111.338 30.9029 112.131 31.2678 112.587 31.9994C113.042 32.7297 113.123 33.6431 112.829 34.7369C112.524 35.8754 111.923 36.8052 111.028 37.5269C110.135 38.2481 109.129 38.6077 108.015 38.6077ZM124.725 38.4062H123.486L124.703 33.8668C124.827 33.3996 124.884 33.0493 124.875 32.8144C124.864 32.5814 124.745 32.3668 124.515 32.172C124.287 31.9771 123.997 31.8793 123.645 31.8793C123.161 31.8793 122.637 32.0794 122.08 32.4745C121.522 32.8721 121.136 33.4797 120.917 34.2934L119.814 38.4062H118.583L119.869 33.5991C120.043 32.9587 119.992 32.506 119.719 32.2395C119.591 32.1118 119.439 32.0109 119.272 31.9429C119.104 31.875 118.925 31.8413 118.744 31.8439C118.203 31.8439 117.677 32.0493 117.167 32.4646C116.665 32.865 116.307 33.4171 116.146 34.0381L114.974 38.4056H113.759L115.715 31.105H116.81L116.434 32.5079C117.331 31.4371 118.314 30.9036 119.385 30.9036C119.974 30.9036 120.428 31.0735 120.747 31.4154C121.064 31.7586 121.219 32.1693 121.209 32.6529C122.083 31.4863 123.1 30.9036 124.263 30.9036C124.82 30.9036 125.269 31.0453 125.613 31.3288C125.955 31.6129 126.14 31.9403 126.169 32.3084C126.196 32.6772 126.119 33.1969 125.942 33.8662L124.725 38.4062Z" fill="black"/>
</g>
<defs>
<clipPath id="clip0_115_8758">
<rect width="131.234" height="40" fill="white" transform="translate(0.383301)"/>
</clipPath>
</defs>
</svg>
