<svg width="160" height="38" viewBox="0 0 160 38" fill="none" xmlns="http://www.w3.org/2000/svg">
    <g clip-path="url(#clip0_41_3325)">
        <g opacity="0.999">
            <path d="M30.1423 21.5477C30.1873 20.6854 30.2098 19.8081 30.2098 18.9533C30.2098 18.0986 30.1873 17.2213 30.1423 16.359C31.0271 16.404 31.8969 16.4565 32.7441 16.509C32.7966 17.3262 32.8266 18.1435 32.8266 18.9533C32.8266 19.7631 32.7966 20.5804 32.7441 21.3977C31.9044 21.4502 31.0271 21.5027 30.1423 21.5477ZM27.8029 32.1724C28.0728 31.3702 28.3278 30.5229 28.5452 29.6606C27.2556 29.968 25.9134 30.208 24.5412 30.3954C24.4513 31.2652 24.3538 32.12 24.2413 32.9447C25.4635 32.7423 26.6557 32.4874 27.8029 32.1724ZM23.2291 36.8513C23.439 35.764 23.6265 34.6093 23.7914 33.4021C22.9367 33.5296 22.0594 33.6196 21.1821 33.6871C21.0996 34.9617 21.0022 36.1839 20.8972 37.3236C21.677 37.2187 22.4643 37.0612 23.2291 36.8513ZM6.53086 18.9533C6.53086 18.0986 6.55335 17.2213 6.59834 16.359C5.71357 16.404 4.84379 16.4565 3.99651 16.509C3.94402 17.3262 3.91403 18.1435 3.91403 18.9533C3.91403 19.7631 3.94402 20.5804 3.99651 21.3977C4.83629 21.4502 5.71357 21.5027 6.59834 21.5477C6.55335 20.6854 6.53086 19.8081 6.53086 18.9533ZM21.1671 25.2667C21.1896 24.262 21.2121 23.2347 21.2271 22.2C20.2748 22.2075 19.3151 22.215 18.3703 22.215C17.4331 22.215 16.4733 22.2075 15.5136 22.2C15.5286 23.2347 15.5435 24.262 15.5735 25.2667C16.5033 25.2892 17.4406 25.2967 18.3703 25.2967C19.3001 25.2967 20.2373 25.2892 21.1671 25.2667ZM24.1888 7.85617C23.2666 7.7362 22.3218 7.65372 21.3696 7.59374C21.4445 9.10085 21.497 10.668 21.542 12.2575C22.5468 12.28 23.5515 12.325 24.5337 12.37C24.4513 10.8404 24.3388 9.3183 24.1888 7.85617ZM12.1919 7.51126C12.2819 6.64148 12.3794 5.7867 12.4918 4.96191C11.2771 5.15686 10.0774 5.4193 8.93774 5.72672C8.66781 6.52901 8.41287 7.3763 8.19543 8.23857C9.4776 7.94615 10.8198 7.69871 12.1919 7.51126ZM21.1671 12.6399C20.2373 12.6175 19.3001 12.61 18.3703 12.61C17.4406 12.61 16.5033 12.6175 15.5735 12.6399C15.551 13.6447 15.5286 14.6719 15.5136 15.7067C16.4583 15.6992 17.4181 15.6917 18.3703 15.6917C19.3226 15.6917 20.2823 15.6992 21.2271 15.7067C21.2121 14.6719 21.1896 13.6447 21.1671 12.6399ZM4.82879 28.6858C3.79406 28.3259 2.81181 27.9285 1.90454 27.4936C2.38442 28.4084 2.93928 29.2932 3.56911 30.1255C4.21395 30.4554 4.88878 30.7628 5.5936 31.0477C5.31617 30.2829 5.05373 29.4881 4.82879 28.6858ZM33.1715 7.78119C32.5267 7.45128 31.8519 7.14386 31.1471 6.85893C31.432 7.62373 31.6869 8.41103 31.9119 9.22082C32.9466 9.58073 33.9288 9.97813 34.8361 10.413C34.3562 9.49825 33.7939 8.61348 33.1715 7.78119Z" fill="#43BEAC"/>
            <path d="M32.8191 24.3744C32.9466 23.5121 33.0365 22.6424 33.104 21.7651C34.3787 21.6826 35.5934 21.5851 36.7406 21.4802C36.6356 22.2675 36.4782 23.0473 36.2682 23.8121C35.1885 24.0145 34.0263 24.2095 32.8191 24.3744ZM31.5894 28.3859C31.9043 27.2387 32.1593 26.0465 32.3542 24.8318C31.5294 24.9368 30.6746 25.0417 29.8049 25.1317C29.6249 26.5039 29.3775 27.846 29.0701 29.1357C29.9398 28.9108 30.7871 28.6558 31.5894 28.3859ZM24.1888 30.0505C24.3313 28.5883 24.4512 27.0737 24.5337 25.5366C23.5515 25.5891 22.5467 25.6266 21.542 25.6491C21.497 27.2462 21.4445 28.8133 21.3695 30.3129C22.3218 30.2529 23.2665 30.1629 24.1888 30.0505ZM11.6745 22.125C10.0699 22.08 8.50282 22.0275 7.0107 21.9525C7.07069 22.9048 7.16067 23.8496 7.27314 24.7718C8.73526 24.9143 10.2499 25.0342 11.787 25.1167C11.742 24.142 11.7045 23.1372 11.6745 22.125ZM15.5585 33.687C14.6812 33.6195 13.804 33.5296 12.9492 33.4021C13.1141 34.6093 13.3091 35.764 13.5115 36.8512C14.2763 37.0612 15.0636 37.2186 15.8434 37.3236C15.7385 36.1839 15.6485 34.9617 15.5585 33.687ZM31.5894 9.52072C30.7871 9.25079 29.9398 8.99585 29.0776 8.77841C29.385 10.0681 29.6249 11.4102 29.8124 12.7824C30.6821 12.8724 31.5369 12.9698 32.3617 13.0823C32.1593 11.8601 31.9043 10.6679 31.5894 9.52072ZM23.2291 1.05539C22.4642 0.845441 21.677 0.687981 20.8972 0.583008C21.0021 1.72272 21.0996 2.9449 21.1821 4.21958C22.0594 4.28706 22.9366 4.37704 23.7914 4.5045C23.6264 3.29731 23.4315 2.14261 23.2291 1.05539ZM3.63657 16.1415C3.70405 15.2642 3.79403 14.387 3.9215 13.5322C2.7143 13.6972 1.5596 13.8921 0.472379 14.0945C0.262433 14.8594 0.104973 15.6392 0 16.4265C1.13971 16.3215 2.3619 16.2315 3.63657 16.1415ZM11.6745 15.7816C11.697 14.7769 11.742 13.7721 11.787 12.7899C10.2499 12.8724 8.73526 12.9923 7.27314 13.1348C7.15317 14.0571 7.07069 15.0018 7.0107 15.9541C8.51782 15.8791 10.0849 15.8191 11.6745 15.7816ZM20.8147 4.57948C19.9974 4.527 19.1801 4.49701 18.3703 4.49701C17.5605 4.49701 16.7432 4.527 15.9259 4.57948C15.8734 5.41927 15.8209 6.29655 15.776 7.18132C16.6382 7.13633 17.508 7.11384 18.3703 7.11384C19.2326 7.11384 20.1024 7.13633 20.9646 7.18132C20.9196 6.29655 20.8672 5.41927 20.8147 4.57948ZM8.63779 32.4948C7.83549 32.2699 7.0407 32.015 6.27589 31.73C6.56082 32.4349 6.86824 33.1097 7.19816 33.7545C8.03044 34.3844 8.91522 34.9392 9.82998 35.4191C9.39509 34.5043 8.9977 33.5296 8.63779 32.4948ZM29.5424 4.15209C28.7101 3.52226 27.8254 2.9674 26.9106 2.48752C27.3455 3.39479 27.7504 4.37704 28.1028 5.41177C28.9051 5.63671 29.6999 5.89165 30.4647 6.17658C30.1798 5.47925 29.8649 4.79693 29.5424 4.15209Z" fill="#56AEE1"/>
            <path d="M7.66307 29.1282C6.79329 28.9033 5.9535 28.6558 5.15121 28.3859C4.83629 27.2387 4.58136 26.0465 4.38641 24.8318C5.21119 24.9368 6.06598 25.0417 6.93575 25.1317C7.11571 26.4964 7.36314 27.846 7.66307 29.1282ZM15.1087 18.9533C15.1087 18.0085 15.1162 17.0488 15.1237 16.0965C14.0964 16.1115 13.0692 16.1265 12.0569 16.1565C12.0344 17.0863 12.0269 18.0235 12.0269 18.9533C12.0269 19.8831 12.0344 20.8203 12.0569 21.7501C13.0692 21.7726 14.0964 21.7951 15.1237 21.8101C15.1162 20.8578 15.1087 19.8981 15.1087 18.9533ZM20.8147 33.3271C20.8672 32.4873 20.9197 31.6101 20.9647 30.7253C20.1024 30.7703 19.2251 30.7928 18.3703 30.7928C17.5155 30.7928 16.6458 30.7703 15.776 30.7253C15.821 31.6101 15.8735 32.4798 15.926 33.3271C16.7432 33.3796 17.5605 33.4096 18.3703 33.4096C19.1801 33.4096 19.9974 33.3796 20.8147 33.3271ZM29.4675 13.1348C28.0054 12.9923 26.4907 12.8724 24.9536 12.7899C25.0061 13.7721 25.0436 14.7769 25.0661 15.7816C26.6632 15.8266 28.2303 15.8791 29.7299 15.9541C29.6699 15.0018 29.58 14.0571 29.4675 13.1348ZM15.5585 4.21958C15.641 2.9449 15.7385 1.72272 15.8435 0.583008C15.0562 0.687981 14.2764 0.845441 13.5116 1.05539C13.3016 2.13511 13.1142 3.29731 12.9492 4.5045C13.804 4.37704 14.6813 4.27956 15.5585 4.21958ZM33.1715 30.1254C33.8014 29.2932 34.3562 28.4159 34.8361 27.4936C33.9288 27.9285 32.9466 28.3334 31.9119 28.6858C31.6869 29.4881 31.432 30.2829 31.1471 31.0477C31.8444 30.7628 32.5267 30.4554 33.1715 30.1254ZM4.82879 9.2208C5.05373 8.4185 5.30867 7.6237 5.5936 6.8589C4.88878 7.14383 4.21395 7.45125 3.56911 7.78117C2.93928 8.61345 2.38442 9.49073 1.90454 10.413C2.81931 9.9781 3.79406 9.5807 4.82879 9.2208Z" fill="#91AEDB"/>
            <path d="M24.9461 25.124C24.9986 24.1418 25.0361 23.137 25.0586 22.1323C26.6632 22.0873 28.2303 22.0348 29.7224 21.9598C29.6624 22.9121 29.5724 23.8568 29.46 24.7791C28.0053 24.9216 26.4832 25.034 24.9461 25.124ZM24.6837 21.7499C24.7062 20.8201 24.7137 19.8829 24.7137 18.9531C24.7137 18.0233 24.7062 17.0861 24.6837 16.1563C23.6714 16.1338 22.6442 16.1113 21.617 16.0963C21.6245 17.0486 21.632 18.0008 21.632 18.9531C21.632 19.8978 21.6245 20.8576 21.617 21.8099C22.6442 21.7949 23.6789 21.7724 24.6837 21.7499ZM3.63657 21.7649C2.3619 21.6824 1.14721 21.5849 0 21.4799C0.104973 22.2672 0.262433 23.047 0.472379 23.8118C1.5521 24.0218 2.7143 24.2092 3.9215 24.3742C3.79403 23.5194 3.69655 22.6421 3.63657 21.7649ZM12.1919 30.3952C10.8197 30.2152 9.47757 29.9678 8.1879 29.6603C8.40535 30.5301 8.66028 31.3699 8.93021 32.1722C10.0774 32.4871 11.2696 32.7421 12.4843 32.937C12.3868 32.1197 12.2819 31.2574 12.1919 30.3952ZM15.1986 25.6489C14.1939 25.6264 13.1891 25.5814 12.2069 25.5364C12.2894 27.0735 12.4093 28.5881 12.5518 30.0502C13.474 30.1702 14.4188 30.2602 15.3711 30.3127C15.2961 28.8056 15.2361 27.2385 15.1986 25.6489ZM36.2682 14.0943C35.181 13.8844 34.0263 13.6969 32.8191 13.532C32.9466 14.3868 33.0365 15.264 33.104 16.1413C34.3787 16.2238 35.5934 16.3213 36.7406 16.4262C36.6356 15.6464 36.4782 14.8591 36.2682 14.0943ZM27.8029 5.73397C26.6557 5.41905 25.4635 5.16412 24.2488 4.96917C24.3613 5.79396 24.4587 6.64874 24.5487 7.51852C25.9209 7.69847 27.263 7.94591 28.5527 8.25333C28.3277 7.38355 28.0728 6.53627 27.8029 5.73397ZM6.92823 12.7747C7.10818 11.4025 7.35562 10.0604 7.66304 8.7707C6.80076 8.98814 5.95348 9.24307 5.15118 9.51301C4.83626 10.6602 4.58133 11.8524 4.38638 13.0671C5.21117 12.9696 6.06595 12.8646 6.92823 12.7747ZM15.1986 12.2573C15.2436 10.6602 15.2961 9.09311 15.3711 7.5935C14.4188 7.65348 13.474 7.74346 12.5518 7.85593C12.4093 9.31806 12.2894 10.8327 12.2069 12.3698C13.1816 12.3248 14.1864 12.2873 15.1986 12.2573ZM29.5424 33.7543C29.8724 33.1095 30.1798 32.4346 30.4647 31.7298C29.6999 32.0147 28.9126 32.2697 28.1028 32.4946C27.7429 33.5294 27.3455 34.5116 26.9106 35.4189C27.8254 34.939 28.7101 34.3766 29.5424 33.7543ZM8.63779 5.41156C8.9977 4.37682 9.39509 3.39457 9.82998 2.4873C8.91522 2.96718 8.03044 3.52204 7.19816 4.15188C6.86824 4.79671 6.56082 5.47154 6.27589 6.17636C7.0407 5.89893 7.83549 5.6365 8.63779 5.41156Z" fill="#8FC73E"/>
        </g>
        <g opacity="0.999">
            <path d="M48.9908 19.9049L50.0843 14.5547H51.3096L49.6694 21.6623H48.488L47.1359 16.4731L45.7544 21.6623H44.5682L42.928 14.5547H44.1532L45.2565 19.8951L46.6135 14.5547H47.6484L48.9908 19.9049Z" fill="#232C64"/>
            <path d="M55.2428 21.6617C55.1907 21.5608 55.1452 21.3964 55.1061 21.1686C54.7286 21.5624 54.2665 21.7593 53.7197 21.7593C53.1893 21.7593 52.7565 21.608 52.4213 21.3053C52.0861 21.0027 51.9185 20.6284 51.9185 20.1826C51.9185 19.6196 52.1268 19.1884 52.5433 18.889C52.9631 18.5863 53.5619 18.435 54.3397 18.435H55.067V18.0884C55.067 17.815 54.9906 17.597 54.8376 17.4343C54.6846 17.2683 54.452 17.1854 54.1395 17.1854C53.8695 17.1854 53.6482 17.2537 53.4757 17.3904C53.3032 17.5238 53.217 17.6946 53.217 17.9029H52.0308C52.0308 17.6133 52.1268 17.3431 52.3187 17.0925C52.5108 16.8387 52.7711 16.6402 53.0998 16.497C53.4317 16.3538 53.8011 16.2822 54.2079 16.2822C54.8263 16.2822 55.3193 16.4384 55.6871 16.7509C56.0548 17.06 56.2435 17.4961 56.2533 18.0591V20.4413C56.2533 20.9164 56.32 21.2956 56.4534 21.5787V21.6617H55.2428ZM53.9394 20.8075C54.1738 20.8075 54.3934 20.7505 54.5985 20.6365C54.8067 20.5226 54.9629 20.3697 55.0671 20.1777V19.1819H54.4275C53.9883 19.1819 53.658 19.2584 53.4367 19.4113C53.2154 19.5643 53.1047 19.7807 53.1047 20.0606C53.1047 20.2884 53.1796 20.4706 53.3292 20.6073C53.4822 20.7407 53.6856 20.8075 53.9394 20.8075Z" fill="#232C64"/>
            <path d="M58.9074 21.6621H57.7212V14.1641H58.9074V21.6621Z" fill="#232C64"/>
            <path d="M60.1411 18.9826C60.1411 18.1625 60.3331 17.5084 60.7171 17.0203C61.1044 16.5289 61.617 16.2832 62.2548 16.2832C62.8569 16.2832 63.3304 16.4931 63.6753 16.9129L63.729 16.3808H64.7981V21.5015C64.7981 22.1947 64.5817 22.7414 64.1488 23.1417C63.7193 23.542 63.1384 23.7421 62.4061 23.7421C62.0189 23.7421 61.6398 23.6608 61.2687 23.4981C60.901 23.3386 60.6211 23.1287 60.4291 22.8683L60.9905 22.1556C61.355 22.5885 61.8041 22.8049 62.3378 22.8049C62.7316 22.8049 63.0424 22.6975 63.2702 22.4827C63.498 22.2711 63.6119 21.9587 63.6119 21.5454V21.1891C63.2702 21.5699 62.8146 21.7603 62.245 21.7603C61.6267 21.7603 61.1207 21.5146 60.7269 21.0232C60.3364 20.5317 60.1411 19.8515 60.1411 18.9826ZM61.3224 19.0852C61.3224 19.6156 61.4298 20.0338 61.6446 20.3397C61.8627 20.6424 62.1637 20.7937 62.5477 20.7937C63.0261 20.7937 63.3808 20.5887 63.6119 20.1786V17.855C63.3874 17.4547 63.0359 17.2546 62.5575 17.2546C62.167 17.2546 61.8627 17.4092 61.6446 17.7183C61.4298 18.0275 61.3224 18.4831 61.3224 19.0852Z" fill="#232C64"/>
            <path d="M68.9314 17.4635C68.7752 17.4376 68.6141 17.4246 68.4482 17.4246C67.9047 17.4246 67.5385 17.6328 67.3498 18.0494V21.6617H66.1636V16.3799H67.2961L67.3253 16.9705C67.6118 16.5117 68.0088 16.2822 68.5165 16.2822C68.6857 16.2822 68.8257 16.305 68.9364 16.3506L68.9314 17.4635Z" fill="#232C64"/>
            <path d="M72.0641 21.7593C71.3122 21.7593 70.7021 21.5234 70.2335 21.0515C69.7681 20.5764 69.5354 19.9451 69.5354 19.1575V19.011C69.5354 18.4838 69.6363 18.0135 69.838 17.6002C70.0431 17.1837 70.3295 16.8599 70.6972 16.6288C71.0649 16.3977 71.475 16.2822 71.9274 16.2822C72.6466 16.2822 73.2014 16.5117 73.5919 16.9705C73.9857 17.4294 74.1826 18.0787 74.1826 18.9183V19.3966H70.7313C70.7671 19.8327 70.912 20.1777 71.1659 20.4316C71.4229 20.6854 71.7451 20.8123 72.1324 20.8123C72.6758 20.8123 73.1184 20.5926 73.4601 20.1533L74.0996 20.7635C73.8881 21.0792 73.605 21.3249 73.2502 21.5006C72.8988 21.673 72.5034 21.7593 72.0641 21.7593ZM71.9225 17.2341C71.5971 17.2341 71.3335 17.348 71.1317 17.5759C70.9331 17.8037 70.8062 18.121 70.7509 18.5278H73.0111V18.4399C72.985 18.0428 72.8792 17.7434 72.6937 17.5416C72.5083 17.3367 72.2512 17.2341 71.9225 17.2341Z" fill="#232C64"/>
            <path d="M77.5787 21.7593C76.8269 21.7593 76.2167 21.5234 75.7481 21.0515C75.2827 20.5764 75.05 19.9451 75.05 19.1575V19.011C75.05 18.4838 75.1509 18.0135 75.3527 17.6002C75.5577 17.1837 75.8441 16.8599 76.2119 16.6288C76.5796 16.3977 76.9897 16.2822 77.442 16.2822C78.1612 16.2822 78.7161 16.5117 79.1066 16.9705C79.5004 17.4294 79.6973 18.0787 79.6973 18.9183V19.3966H76.2461C76.2819 19.8327 76.4267 20.1777 76.6805 20.4316C76.9376 20.6854 77.2598 20.8123 77.647 20.8123C78.1905 20.8123 78.6331 20.5926 78.9748 20.1533L79.6143 20.7635C79.4028 21.0792 79.1197 21.3249 78.7649 21.5006C78.4134 21.673 78.018 21.7593 77.5787 21.7593ZM77.4371 17.2341C77.1117 17.2341 76.8481 17.348 76.6463 17.5759C76.4478 17.8037 76.3209 18.121 76.2656 18.5278H78.5257V18.4399C78.4997 18.0428 78.3939 17.7434 78.2084 17.5416C78.0229 17.3367 77.7659 17.2341 77.4371 17.2341Z" fill="#232C64"/>
            <path d="M81.8683 16.3799L81.9025 16.99C82.293 16.5182 82.8056 16.2822 83.4402 16.2822C84.5402 16.2822 85.0999 16.9119 85.1195 18.1714V21.6617H83.9333V18.2397C83.9333 17.9045 83.86 17.6572 83.7136 17.4977C83.5704 17.335 83.3344 17.2537 83.0058 17.2537C82.5274 17.2537 82.171 17.4701 81.9367 17.9029V21.6617H80.7505V16.3799H81.8683Z" fill="#232C64"/>
            <path d="M89.4381 20.2265C89.4381 20.015 89.3503 19.8539 89.1746 19.7433C89.0021 19.6326 88.7141 19.535 88.3105 19.4504C87.9069 19.3658 87.5701 19.2584 87.3 19.1282C86.7077 18.8418 86.4115 18.4268 86.4115 17.8834C86.4115 17.4278 86.6035 17.047 86.9876 16.7411C87.3716 16.4352 87.8598 16.2822 88.4521 16.2822C89.0834 16.2822 89.5927 16.4384 89.98 16.7509C90.3705 17.0633 90.5658 17.4684 90.5658 17.9664H89.3796C89.3796 17.7386 89.295 17.5498 89.1258 17.4001C88.9565 17.2472 88.7319 17.1707 88.4521 17.1707C88.1917 17.1707 87.9786 17.2309 87.8126 17.3513C87.6499 17.4717 87.5685 17.6328 87.5685 17.8346C87.5685 18.0168 87.645 18.1584 87.7979 18.2592C87.9509 18.3601 88.2601 18.4626 88.7254 18.5668C89.1908 18.6677 89.5553 18.7897 89.8189 18.9329C90.0858 19.0729 90.2827 19.2421 90.4096 19.4406C90.5397 19.6391 90.6048 19.88 90.6048 20.1631C90.6048 20.6382 90.4079 21.0239 90.0142 21.32C89.6204 21.6129 89.1046 21.7593 88.4667 21.7593C88.0339 21.7593 87.6482 21.6812 87.3098 21.525C86.9714 21.3688 86.7078 21.154 86.519 20.8806C86.3302 20.6073 86.2358 20.3127 86.2358 19.9971H87.3879C87.4042 20.277 87.51 20.4934 87.7052 20.6464C87.9005 20.7961 88.1592 20.8709 88.4814 20.8709C88.7938 20.8709 89.0314 20.8123 89.1941 20.6951C89.3568 20.5747 89.4381 20.4185 89.4381 20.2265Z" fill="#232C64"/>
            <path d="M94.5415 21.6623V14.5547H96.9774C97.7812 14.5547 98.393 14.7158 98.8129 15.038C99.2327 15.3602 99.4425 15.8402 99.4425 16.478C99.4425 16.8034 99.3547 17.0963 99.1789 17.3567C99.0032 17.6171 98.7461 17.8188 98.4077 17.962C98.7917 18.0662 99.0878 18.263 99.2961 18.5527C99.5077 18.8391 99.6134 19.1841 99.6134 19.5876C99.6134 20.2548 99.3986 20.7673 98.969 21.1253C98.5427 21.4833 97.9309 21.6623 97.1335 21.6623L94.5415 21.6623ZM95.7764 18.4551V20.6763H97.1482C97.5355 20.6763 97.8382 20.5803 98.0562 20.3883C98.2742 20.1962 98.3832 19.9294 98.3832 19.5877C98.3832 18.8489 98.0057 18.4714 97.2507 18.4551H95.7764ZM95.7764 17.5472H96.9871C97.3712 17.5472 97.6706 17.4609 97.8853 17.2885C98.1034 17.1127 98.2124 16.8654 98.2124 16.5465C98.2124 16.195 98.1115 15.9411 97.9097 15.7849C97.7112 15.6287 97.4004 15.5507 96.9774 15.5507H95.7765L95.7764 17.5472Z" fill="#232C64"/>
            <path d="M100.662 18.9719C100.662 18.4545 100.764 17.9891 100.969 17.5758C101.174 17.1593 101.462 16.8403 101.833 16.619C102.204 16.3945 102.631 16.2822 103.112 16.2822C103.825 16.2822 104.403 16.5117 104.845 16.9705C105.291 17.4294 105.532 18.038 105.568 18.7963L105.573 19.0744C105.573 19.5952 105.472 20.0605 105.27 20.4706C105.072 20.8806 104.785 21.1979 104.411 21.4225C104.04 21.6471 103.61 21.7593 103.122 21.7593C102.377 21.7593 101.78 21.512 101.331 21.0173C100.885 20.5195 100.662 19.8572 100.662 19.0306L100.662 18.9719ZM101.848 19.0745C101.848 19.618 101.96 20.0443 102.185 20.3535C102.409 20.6594 102.722 20.8123 103.122 20.8123C103.522 20.8123 103.833 20.6561 104.054 20.3437C104.279 20.0313 104.391 19.574 104.391 18.9719C104.391 18.4382 104.276 18.0152 104.045 17.7027C103.817 17.3903 103.506 17.2341 103.112 17.2341C102.725 17.2341 102.417 17.3887 102.19 17.6979C101.962 18.0038 101.848 18.4627 101.848 19.0745Z" fill="#232C64"/>
            <path d="M106.503 18.9719C106.503 18.4545 106.606 17.9891 106.811 17.5758C107.016 17.1593 107.304 16.8403 107.675 16.619C108.046 16.3945 108.472 16.2822 108.954 16.2822C109.667 16.2822 110.244 16.5117 110.687 16.9705C111.133 17.4294 111.374 18.038 111.409 18.7963L111.415 19.0744C111.415 19.5952 111.314 20.0605 111.112 20.4706C110.913 20.8806 110.627 21.1979 110.253 21.4225C109.882 21.6471 109.452 21.7593 108.964 21.7593C108.219 21.7593 107.622 21.512 107.173 21.0173C106.727 20.5195 106.504 19.8572 106.504 19.0306L106.503 18.9719ZM107.69 19.0745C107.69 19.618 107.802 20.0443 108.026 20.3535C108.251 20.6594 108.563 20.8123 108.964 20.8123C109.364 20.8123 109.675 20.6561 109.896 20.3437C110.121 20.0313 110.233 19.574 110.233 18.9719C110.233 18.4382 110.117 18.0152 109.886 17.7027C109.659 17.3903 109.348 17.2341 108.954 17.2341C108.567 17.2341 108.259 17.3887 108.031 17.6979C107.804 18.0038 107.69 18.4627 107.69 19.0745Z" fill="#232C64"/>
            <path d="M114.054 15.0967V16.3805H114.986V17.2592H114.054V20.2077C114.054 20.4094 114.093 20.5559 114.171 20.6471C114.252 20.7349 114.396 20.7788 114.601 20.7788C114.737 20.7788 114.876 20.7625 115.015 20.73V21.6478C114.745 21.7226 114.485 21.76 114.234 21.76C113.323 21.76 112.868 21.2572 112.868 20.2516V17.2592H111.999V16.3805H112.868V15.0967H114.054Z" fill="#232C64"/>
            <path d="M119.003 20.2265C119.003 20.015 118.915 19.8539 118.739 19.7433C118.566 19.6326 118.278 19.535 117.875 19.4504C117.471 19.3658 117.135 19.2584 116.864 19.1282C116.272 18.8418 115.976 18.4268 115.976 17.8834C115.976 17.4278 116.168 17.047 116.552 16.7411C116.936 16.4352 117.424 16.2822 118.016 16.2822C118.648 16.2822 119.157 16.4384 119.544 16.7509C119.935 17.0633 120.13 17.4684 120.13 17.9664H118.944C118.944 17.7386 118.859 17.5498 118.69 17.4001C118.521 17.2472 118.296 17.1707 118.017 17.1707C117.756 17.1707 117.543 17.2309 117.377 17.3513C117.214 17.4717 117.133 17.6328 117.133 17.8346C117.133 18.0168 117.209 18.1584 117.362 18.2592C117.515 18.3601 117.824 18.4626 118.29 18.5668C118.755 18.6677 119.12 18.7897 119.383 18.9329C119.65 19.0729 119.847 19.2421 119.974 19.4406C120.104 19.6391 120.169 19.88 120.169 20.1631C120.169 20.6382 119.972 21.0239 119.579 21.32C119.185 21.6129 118.669 21.7593 118.031 21.7593C117.598 21.7593 117.213 21.6812 116.874 21.525C116.536 21.3688 116.272 21.154 116.083 20.8806C115.895 20.6073 115.8 20.3127 115.8 19.9971H116.952C116.969 20.277 117.074 20.4934 117.27 20.6464C117.465 20.7961 117.724 20.8709 118.046 20.8709C118.358 20.8709 118.596 20.8123 118.759 20.6951C118.921 20.5747 119.003 20.4185 119.003 20.2265Z" fill="#232C64"/>
            <path d="M128.084 20.0073H125.331L124.755 21.6621H123.471L126.156 14.5547H127.264L129.954 21.6621H128.665L128.084 20.0073ZM125.678 19.0115H127.738L126.708 16.063L125.678 19.0115Z" fill="#232C64"/>
            <path d="M132.057 21.6621H130.87V14.1641H132.057V21.6621Z" fill="#232C64"/>
            <path d="M134.759 21.6621H133.573V14.1641H134.759V21.6621Z" fill="#232C64"/>
            <path d="M137.463 21.6622H136.276V16.3804H137.463V21.6622ZM136.203 15.0087C136.203 14.8264 136.26 14.6751 136.374 14.5547C136.491 14.4342 136.657 14.374 136.872 14.374C137.087 14.374 137.253 14.4343 137.37 14.5547C137.487 14.6751 137.546 14.8264 137.546 15.0087C137.546 15.1876 137.487 15.3373 137.37 15.4578C137.253 15.5749 137.087 15.6335 136.872 15.6335C136.657 15.6335 136.491 15.5749 136.374 15.4578C136.26 15.3373 136.203 15.1876 136.203 15.0087Z" fill="#232C64"/>
            <path d="M142.06 21.6617C142.008 21.5608 141.962 21.3964 141.923 21.1686C141.546 21.5624 141.083 21.7593 140.537 21.7593C140.006 21.7593 139.573 21.608 139.238 21.3053C138.903 21.0027 138.735 20.6284 138.735 20.1826C138.735 19.6196 138.944 19.1884 139.36 18.889C139.78 18.5863 140.379 18.435 141.157 18.435H141.884V18.0884C141.884 17.815 141.807 17.597 141.655 17.4343C141.502 17.2683 141.269 17.1854 140.956 17.1854C140.686 17.1854 140.465 17.2537 140.293 17.3904C140.12 17.5238 140.034 17.6946 140.034 17.9029H138.848C138.848 17.6133 138.944 17.3431 139.136 17.0925C139.328 16.8387 139.588 16.6402 139.917 16.497C140.249 16.3538 140.618 16.2822 141.025 16.2822C141.643 16.2822 142.136 16.4384 142.504 16.7509C142.872 17.06 143.06 17.4961 143.07 18.0591V20.4413C143.07 20.9164 143.137 21.2956 143.27 21.5787V21.6617H142.06ZM140.756 20.8075C140.991 20.8075 141.21 20.7505 141.415 20.6365C141.624 20.5226 141.78 20.3697 141.884 20.1777V19.1819H141.244C140.805 19.1819 140.475 19.2584 140.253 19.4113C140.032 19.5643 139.922 19.7807 139.922 20.0606C139.922 20.2884 139.996 20.4706 140.146 20.6073C140.299 20.7407 140.502 20.8075 140.756 20.8075Z" fill="#232C64"/>
            <path d="M145.563 16.3799L145.597 16.99C145.988 16.5182 146.5 16.2822 147.135 16.2822C148.235 16.2822 148.795 16.9119 148.814 18.1714V21.6617H147.628V18.2397C147.628 17.9045 147.555 17.6572 147.408 17.4977C147.265 17.335 147.029 17.2537 146.701 17.2537C146.222 17.2537 145.866 17.4701 145.632 17.9029V21.6617H144.445V16.3799H145.563Z" fill="#232C64"/>
            <path d="M152.342 20.8132C152.638 20.8132 152.884 20.727 153.079 20.5546C153.275 20.3821 153.379 20.1689 153.392 19.915H154.51C154.497 20.2437 154.394 20.5512 154.202 20.8376C154.01 21.1207 153.75 21.3453 153.421 21.5112C153.092 21.6772 152.738 21.7602 152.357 21.7602C151.618 21.7602 151.032 21.521 150.6 21.0426C150.167 20.5642 149.95 19.9036 149.95 19.0607V18.9387C149.95 18.1349 150.165 17.4921 150.595 17.0105C151.024 16.5256 151.61 16.2832 152.352 16.2832C152.98 16.2832 153.491 16.4671 153.885 16.8348C154.282 17.1993 154.49 17.6793 154.51 18.2748H153.392C153.379 17.9722 153.275 17.7232 153.079 17.528C152.887 17.3327 152.642 17.235 152.342 17.235C151.958 17.235 151.662 17.375 151.454 17.6549C151.245 17.9315 151.14 18.3529 151.136 18.9192V19.1096C151.136 19.6824 151.239 20.1103 151.444 20.3934C151.652 20.6733 151.952 20.8132 152.342 20.8132Z" fill="#232C64"/>
            <path d="M157.881 21.7593C157.13 21.7593 156.519 21.5234 156.051 21.0515C155.585 20.5764 155.353 19.9451 155.353 19.1575V19.011C155.353 18.4838 155.454 18.0135 155.655 17.6002C155.86 17.1837 156.147 16.8599 156.515 16.6288C156.882 16.3977 157.292 16.2822 157.745 16.2822C158.464 16.2822 159.019 16.5117 159.409 16.9705C159.803 17.4294 160 18.0787 160 18.9183V19.3966H156.549C156.585 19.8327 156.729 20.1777 156.983 20.4316C157.24 20.6854 157.562 20.8123 157.95 20.8123C158.493 20.8123 158.936 20.5926 159.278 20.1533L159.917 20.7635C159.705 21.0792 159.422 21.3249 159.068 21.5006C158.716 21.673 158.321 21.7593 157.881 21.7593ZM157.74 17.2341C157.414 17.2341 157.151 17.348 156.949 17.5759C156.751 17.8037 156.624 18.121 156.568 18.5278H158.828V18.4399C158.802 18.0428 158.697 17.7434 158.511 17.5416C158.326 17.3367 158.069 17.2341 157.74 17.2341Z" fill="#232C64"/>
        </g>
    </g>
    <defs>
        <clipPath id="clip0_41_3325">
            <rect width="160" height="36.7406" fill="white" transform="translate(0 0.583008)"/>
        </clipPath>
    </defs>
</svg>
