<svg width="100" height="41" viewBox="0 0 100 41" fill="none" xmlns="http://www.w3.org/2000/svg">
    <g clip-path="url(#clip0_41_3355)">
        <path d="M51.1607 0.345184C54.7342 0.222178 58.3311 0.759674 61.7016 1.95568C66.7721 3.73564 71.3038 6.9976 74.6197 11.2229C76.0783 13.0766 77.3001 15.1142 78.2576 17.27C78.4274 17.6287 78.5582 18.0319 78.4672 18.4316C78.3559 19.1026 77.7678 19.6573 77.0913 19.7243C76.3887 19.8271 75.6626 19.3887 75.4121 18.7267C73.5081 14.2461 70.2585 10.3541 66.2049 7.66C63.699 5.98545 60.8886 4.76607 57.9525 4.08338C54.1663 3.19775 50.1799 3.19774 46.3928 4.08068C40.9855 5.32585 36.0346 8.42742 32.5427 12.7371C31.0621 14.5529 29.8396 16.5771 28.918 18.7306C28.7185 19.231 28.2603 19.6233 27.7256 19.7112C27.21 19.8107 26.6487 19.6326 26.2892 19.2486C25.8653 18.8239 25.7267 18.1451 25.9452 17.5878C28.4816 11.5911 33.1781 6.55343 38.9523 3.55488C42.7132 1.58645 46.9202 0.488478 51.1607 0.345184Z" fill="#F49813"/>
        <path d="M46.4385 18.8086C46.4171 18.4972 46.7118 18.2642 47.0038 18.2568C47.3832 18.2466 47.7637 18.2498 48.1439 18.2552C48.4081 18.2642 48.7165 18.4402 48.7154 18.7369C48.729 22.2214 48.7072 25.707 48.7271 29.1935C50.1389 27.6235 51.5629 26.0622 52.9797 24.497C53.2588 24.2218 53.4793 23.8049 53.9134 23.769C54.4982 23.7448 55.0844 23.7592 55.6699 23.76C55.8955 23.7397 56.1473 23.9466 56.0681 24.1874C55.9756 24.3733 55.8058 24.5009 55.6672 24.6485C54.1352 26.1793 52.5972 27.7048 51.0729 29.2422C52.5453 30.923 53.9974 32.621 55.4631 34.308C55.6516 34.548 55.8877 34.7518 56.0458 35.0164C56.1617 35.2233 55.9697 35.4751 55.7479 35.4848C55.2612 35.5122 54.7734 35.4848 54.2854 35.4966C54.0317 35.4907 53.7573 35.5278 53.527 35.397C53.2842 35.2577 53.1367 35.0086 52.9629 34.799C51.5492 33.0187 50.1447 31.2314 48.7259 29.4542C48.7114 31.2068 48.7216 32.9586 48.7204 34.71C48.715 34.9122 48.7564 35.1558 48.5803 35.3033C48.3 35.5738 47.8828 35.479 47.5331 35.4966C47.2227 35.486 46.8597 35.5539 46.6076 35.3248C46.4671 35.2155 46.4303 35.0289 46.4358 34.863C46.4397 29.5108 46.4342 24.1593 46.4385 18.8086Z" fill="#3069B5"/>
        <path d="M39.9983 23.7313C40.7072 23.5034 41.5062 23.46 42.2005 23.7606C42.4441 23.875 42.7271 24.1189 42.617 24.4195C42.5058 24.7969 42.411 25.1786 42.2783 25.5494C42.1802 25.8156 41.8715 25.9145 41.6116 25.8625C41.0268 25.7622 40.4526 25.569 39.8531 25.5885C39.4347 25.5787 39.0486 25.8031 38.7625 26.094C38.3008 26.5456 38.0618 27.1771 37.9545 27.8036C37.8694 28.2564 37.8937 28.719 37.8898 29.1764C37.8898 31.0988 37.8905 33.0224 37.8894 34.9448C37.9166 35.2609 37.5896 35.4756 37.3042 35.4866C36.9123 35.492 36.5212 35.4971 36.1297 35.4834C35.8467 35.4686 35.5282 35.2621 35.5649 34.9436C35.5633 31.3838 35.561 27.8251 35.5657 24.2653C35.5415 23.9113 35.9337 23.7188 36.2414 23.752C36.6274 23.7774 37.1543 23.6322 37.4053 24.0206C37.5958 24.4709 37.6863 24.9574 37.8652 25.4117C38.4034 24.6732 39.1169 24.0221 39.9983 23.7313Z" fill="#3069B5"/>
        <path d="M0.0373535 24.0025C0.146256 23.8776 0.273504 23.7425 0.455009 23.7554C0.986641 23.7503 1.51983 23.7386 2.05107 23.7632C2.3208 23.771 2.50659 24.008 2.54602 24.2589C3.06867 26.3843 3.58196 28.5128 4.10227 30.6389C4.25489 31.2955 4.44069 31.9454 4.54023 32.6132C4.64288 33.2132 4.66318 33.8221 4.76076 34.4232C4.89504 33.5652 5.01526 32.7018 5.24673 31.8638C5.92708 29.3262 6.60704 26.7891 7.28817 24.2523C7.34126 23.963 7.61331 23.7574 7.90254 23.7574C8.49429 23.7425 9.0872 23.7527 9.67895 23.7527C9.99629 23.7378 10.3359 23.9233 10.4124 24.2484C10.9206 26.0982 11.4226 27.9514 11.9288 29.8029C12.236 31.0019 12.6384 32.1807 12.8122 33.4111C12.8601 33.7499 12.907 34.0895 12.9768 34.4259C13.1677 32.493 13.665 30.6124 14.0741 28.7197C14.4118 27.2138 14.7419 25.7063 15.0835 24.2004C15.1338 23.8979 15.4539 23.7457 15.7358 23.7542C16.2143 23.7515 16.6937 23.7378 17.1714 23.7621C17.4552 23.7703 17.6183 24.084 17.5183 24.3371C16.5582 27.8801 15.6015 31.4254 14.6409 34.9685C14.5893 35.2527 14.3418 35.4744 14.0518 35.479C13.3102 35.5032 12.5671 35.4849 11.8254 35.4888C11.5596 35.5052 11.2785 35.3627 11.2317 35.0829C10.5678 32.6464 9.91705 30.2057 9.25935 27.7673C9.02125 26.919 8.92483 26.0397 8.8249 25.1672C8.70273 25.9441 8.64223 26.7337 8.43535 27.4968C7.76203 30.0074 7.0848 32.5192 6.40991 35.0302C6.3338 35.4369 5.86892 35.5181 5.52308 35.4915C4.83337 35.479 4.14365 35.5075 3.45471 35.479C3.20919 35.4798 3.01989 35.2886 2.97578 35.0567C2.00776 31.5277 1.04285 27.9971 0.0740448 24.469C0.0404762 24.3148 0.0447698 24.1575 0.0373535 24.0025Z" fill="#3069B5"/>
        <path d="M87.0174 23.7625C87.521 23.7539 88.0265 23.7519 88.53 23.7625C88.8364 23.7668 89.1245 23.9763 89.2209 24.2691C90.0905 26.5416 90.954 28.8184 91.8224 31.0921C92.0039 31.5535 92.1308 32.0348 92.212 32.5235C92.5711 31.1749 93.0492 29.8625 93.4689 28.5315C93.936 27.0924 94.4037 25.6529 94.8728 24.2132C94.9424 23.9627 95.1812 23.7918 95.4349 23.7707C95.846 23.7402 96.2597 23.7668 96.6715 23.7558C96.9124 23.7586 97.1993 23.7304 97.3828 23.9237C97.5018 24.0244 97.4764 24.1918 97.4268 24.3226C96.0373 28.2864 94.6516 32.2522 93.264 36.2172C93.0227 36.8776 92.8373 37.5689 92.449 38.163C91.8919 39.0678 90.9891 39.7192 89.9969 40.0717C89.6503 40.179 89.2923 40.4171 88.9195 40.2837C88.6549 40.2161 88.5534 39.9409 88.4121 39.7387C88.3107 39.5553 88.1233 39.3855 88.1623 39.1571C88.1807 38.9308 88.3621 38.7465 88.5761 38.686C88.9945 38.5416 89.4199 38.3823 89.7588 38.0869C90.5824 37.3901 91.0918 36.3596 91.2857 35.3108C91.1542 34.8452 90.911 34.417 90.7345 33.9661C89.4094 30.8864 88.0842 27.8056 86.7559 24.727C86.6759 24.5255 86.558 24.3335 86.5354 24.1149C86.5385 23.8749 86.8137 23.7695 87.0174 23.7625Z" fill="#3069B5"/>
        <path d="M25.2302 25.2519C24.5074 25.3862 23.8481 25.8362 23.4811 26.4772C22.868 27.5166 22.7974 28.7707 22.825 29.9496C22.8687 31.0167 23.0401 32.1549 23.7209 33.0175C24.2287 33.6663 25.0632 33.9922 25.8743 33.9797C26.6546 34.0047 27.4719 33.7404 28.0009 33.1471C28.6764 32.4082 28.8935 31.3828 28.9864 30.416C29.0274 29.4663 29.0466 28.4994 28.8003 27.572C28.6043 26.7886 28.1905 26.0052 27.4746 25.5832C26.8083 25.1745 25.9852 25.1364 25.2302 25.2519ZM25.5355 23.5617C26.8435 23.4813 28.214 23.753 29.2936 24.5278C30.2593 25.2148 30.9151 26.2734 31.2214 27.4085C31.5857 28.7636 31.5841 30.2099 31.2538 31.5721C30.9427 32.8278 30.2152 34.0117 29.1176 34.7252C27.9446 35.5036 26.4711 35.7057 25.0944 35.5399C23.9215 35.3954 22.7786 34.881 21.962 34.0168C21.0022 33.0113 20.5256 31.626 20.4264 30.2567C20.3058 28.7383 20.5385 27.131 21.3831 25.8342C22.008 24.8584 23.0015 24.1414 24.1096 23.8143C24.5717 23.6699 25.0539 23.6027 25.5355 23.5617Z" fill="#3069B5"/>
        <path d="M64.1185 25.1898C63.4015 25.2359 62.7094 25.6485 62.3893 26.303C61.764 27.5135 61.7512 28.9221 61.7824 30.2532C61.8323 31.1229 61.9268 32.0206 62.332 32.806C62.606 33.3349 63.1037 33.7525 63.6923 33.8806C64.5928 34.0972 65.6526 33.9137 66.2927 33.2022C66.9094 32.4999 67.1124 31.5452 67.2072 30.6416C67.2724 29.6115 67.2764 28.5603 67.0207 27.5521C66.845 26.878 66.5476 26.2047 66.0136 25.7362C65.5015 25.2855 64.7879 25.1117 64.1185 25.1898ZM67.2041 18.6595C67.1877 18.3863 67.4668 18.2119 67.7095 18.1908C68.0979 18.1697 68.4876 18.1798 68.8767 18.1841C69.1733 18.1814 69.5051 18.4019 69.4622 18.7314C69.4622 24.1079 69.4633 29.4834 69.4614 34.8591C69.4817 35.1367 69.2084 35.3521 68.952 35.3689C68.6424 35.3853 68.3322 35.3853 68.0238 35.3638C67.8064 35.3502 67.5956 35.2108 67.5215 35.0028C67.4052 34.6534 67.3446 34.2904 67.256 33.9352C66.8267 34.5176 66.2731 35.0328 65.5854 35.2885C64.6045 35.6495 63.5127 35.6554 62.5045 35.4095C61.4916 35.1659 60.6095 34.47 60.1207 33.5538C59.3537 32.1553 59.2628 30.51 59.3108 28.9499C59.3381 27.6169 59.5926 26.2106 60.4611 25.1528C61.1161 24.2561 62.1895 23.7416 63.2735 23.607C64.2825 23.4594 65.3766 23.6292 66.2119 24.2406C66.6069 24.5184 66.923 24.8912 67.2053 25.2808C67.1974 23.0742 67.1994 20.8669 67.2041 18.6595Z" fill="#3069B5"/>
        <path d="M78.0611 25.2574C77.7013 25.3307 77.3526 25.4751 77.0619 25.7003C76.4803 26.1531 76.1914 26.8726 76.0372 27.5712C75.8128 28.6798 75.8159 29.8246 75.9319 30.9456C76.0404 31.7692 76.2473 32.6483 76.8511 33.2572C77.343 33.7736 78.0846 33.9629 78.7786 33.9289C79.5249 33.9559 80.3016 33.678 80.783 33.0917C81.3848 32.3637 81.5546 31.3953 81.6424 30.4831C81.6983 29.4105 81.699 28.3121 81.3977 27.2707C81.2073 26.6219 80.859 25.9767 80.2716 25.6071C79.6244 25.1824 78.8059 25.1434 78.0611 25.2574ZM77.0619 23.785C78.0975 23.4981 79.206 23.4813 80.2521 23.7206C81.224 23.9459 82.1343 24.4914 82.7315 25.2994C83.363 26.1277 83.6819 27.1547 83.8146 28.1782C83.9298 28.9674 83.8966 29.7668 83.8977 30.5619C83.8977 31.9968 83.8977 33.4321 83.8938 34.8665C83.9095 35.0414 83.799 35.1964 83.6565 35.2873C83.4157 35.4356 83.1171 35.3701 82.8485 35.3868C82.5472 35.3845 82.151 35.411 81.9871 35.0976C81.8271 34.7291 81.7939 34.3181 81.6912 33.9305C81.2872 34.4215 80.8688 34.9282 80.284 35.212C79.3933 35.6523 78.3519 35.6265 77.3987 35.4403C76.2324 35.21 75.1582 34.5203 74.4986 33.5265C73.7129 32.3692 73.4279 30.9406 73.4388 29.5599C73.4291 28.214 73.6925 26.8226 74.4408 25.6839C75.0392 24.753 75.9994 24.079 77.0619 23.785Z" fill="#3069B5"/>
        <path d="M97.9214 32.6003C97.3293 32.8177 96.9566 33.5008 97.1076 34.1175C97.2618 34.8416 98.1041 35.3358 98.8068 35.068C99.4547 34.8701 99.8634 34.1312 99.6623 33.4797C99.4859 32.7467 98.6162 32.3134 97.9214 32.6003ZM98.0035 32.2908C98.3547 32.2353 98.7364 32.2314 99.0624 32.3942C99.6175 32.6464 100.016 33.2424 99.9563 33.8622C100.002 34.6015 99.3805 35.2624 98.6709 35.3814C97.8719 35.5512 97.012 34.9724 96.8492 34.1753C96.6392 33.3732 97.1966 32.4703 98.0035 32.2908Z" fill="#3069B5"/>
        <path d="M98.1683 33.1917C98.1671 33.3596 98.1663 33.5274 98.1683 33.6964C98.3155 33.6875 98.4669 33.6964 98.6121 33.6562C98.7487 33.5996 98.7351 33.4259 98.698 33.3096C98.5567 33.1714 98.3467 33.2074 98.1683 33.1917ZM97.7242 32.9185C98.1488 32.9427 98.625 32.8229 99.0075 33.0598C99.3159 33.2913 99.1664 33.7948 98.8183 33.9021C98.9186 34.1676 99.0583 34.4143 99.1859 34.6672C99.0251 34.6703 98.867 34.673 98.7089 34.6758C98.5946 34.4416 98.4825 34.2046 98.3733 33.9685C98.3037 33.9665 98.2355 33.9658 98.1683 33.9646C98.1671 34.2007 98.1671 34.4369 98.1671 34.673C98.0168 34.6711 97.8698 34.6691 97.7222 34.668C97.7234 34.0844 97.7214 33.5009 97.7242 32.9185Z" fill="#3069B5"/>
    </g>
    <defs>
        <clipPath id="clip0_41_3355">
            <rect width="99.9251" height="40" fill="white" transform="translate(0.0373535 0.323242)"/>
        </clipPath>
    </defs>
</svg>
