<svg width="132" height="40" viewBox="0 0 132 40" fill="none" xmlns="http://www.w3.org/2000/svg">
<g clip-path="url(#clip0_115_8774)">
<path d="M122.776 0.242188H126.407C127.299 0.242188 128 0.934997 128 1.81676V5.40677C128 6.79239 126.28 7.4852 125.324 6.47748L121.693 2.88746C120.674 1.94272 121.375 0.242188 122.776 0.242188Z" fill="#53A5FF"/>
<path d="M114.814 8.9338H112.202C110.673 8.9338 109.462 7.67414 109.399 6.16256V1.75377C109.399 0.872009 108.698 0.179199 107.806 0.179199H104.175C102.774 0.179199 102.073 1.87973 103.092 2.82447L104.494 4.21009L106.405 6.09958L106.468 6.16256L106.787 6.47747L111.947 11.5791L112.393 12.02L112.52 12.1459L114.431 14.0354L115.578 15.1691C116.597 16.1768 118.254 15.484 118.254 14.0984V10.5084C118.254 9.62661 117.553 8.9338 116.661 8.9338H114.814Z" fill="#FF0057"/>
<path d="M124.56 8.9338H121.948C120.419 8.9338 119.209 7.67414 119.145 6.16256V1.75377C119.145 0.872009 118.445 0.179199 117.553 0.179199H113.922C112.52 0.179199 111.82 1.87973 112.839 2.82447L114.24 4.21009L116.151 6.09958L116.215 6.16256L116.534 6.47747L121.693 11.5791L122.139 12.02L122.267 12.1459L124.178 14.0354L125.325 15.1691C126.344 16.1768 128 15.484 128 14.0984V10.5084C128 9.62661 127.299 8.9338 126.408 8.9338H124.56Z" fill="#A34EFF"/>
<path d="M38.9431 24.1126H41.6823V26.506H43.8482V28.3955H41.6823V33.0562C41.6823 33.875 42.1919 34.4418 43.0201 34.4418C43.466 34.4418 43.7208 34.3788 43.7845 34.3788V36.0164C43.6571 36.0794 42.8927 36.3313 41.8734 36.3313C39.6438 36.3313 38.9431 34.8827 38.9431 33.1192V24.1126ZM64.3606 26.506H61.6214V36.0164H64.4243V30.2849C64.4243 29.1513 65.0613 28.3955 66.1443 28.3955C67.3546 28.3955 67.8643 29.2772 67.8643 30.2849V36.0164H70.6672V29.6551C70.6672 27.7027 69.5843 26.1911 67.2272 26.1911C65.3162 26.1911 64.6791 27.3248 64.488 27.6397H64.4243L64.3606 26.506ZM60.6658 26.2541C58.1814 26.2541 57.6081 27.6397 57.417 28.0805H57.3533V26.506H54.8688V36.0164H57.6718V31.2927C57.6718 29.2772 59.0732 28.3955 60.7295 28.3955V26.2541H60.6658ZM35.7579 29.2142L37.5416 28.0176C37.2868 27.6397 36.395 26.2541 33.592 26.2541C31.5535 26.2541 29.8335 27.3248 29.8335 29.1513C29.8335 30.8518 31.1076 31.6706 32.5091 32.1114C32.955 32.2374 33.3372 32.3634 33.7194 32.4893C34.4839 32.7413 35.0572 32.9302 35.0572 33.4971C35.0572 34.0009 34.4839 34.3788 33.4646 34.3788C32.1906 34.3788 31.5535 33.623 31.3624 33.3081L29.4513 34.3158C29.6424 34.7567 30.6617 36.3313 33.592 36.3313C35.8216 36.3313 37.7327 35.3865 37.7327 33.3081C37.7327 31.5446 36.4587 30.7888 34.9935 30.2849C34.6113 30.159 34.2291 30.033 33.9105 29.97C33.2098 29.7811 32.5091 29.5921 32.5091 28.9623C32.5091 28.5214 32.955 28.2065 33.7831 28.2065C35.1209 28.2065 35.5668 28.9623 35.7579 29.2142ZM17.4751 22.3491L14.9907 32.1114L12.4426 22.3491H9.00264L6.39082 32.3634L3.84269 22.3491H0.912354L4.47973 36.0164H8.1108L10.6589 26.317L13.1433 36.0164H16.5833L20.1507 22.3491H17.4751ZM28.878 31.2927C28.878 28.7734 27.3491 26.2541 24.1003 26.2541C21.1699 26.2541 19.3225 28.4584 19.3225 31.2927C19.3225 34.1269 21.1699 36.3313 24.2277 36.3313C26.9032 36.3313 27.9862 34.7567 28.241 34.1899L26.3936 33.1192C26.2662 33.3711 25.8203 34.3158 24.2914 34.3158C23.081 34.3158 22.2529 33.3711 22.1255 32.0485H28.9417C28.878 32.1114 28.878 31.2927 28.878 31.2927ZM22.1255 30.222C22.2529 29.1513 22.8262 28.2065 24.164 28.2065C25.3743 28.2065 26.0751 29.0883 26.1388 30.222H22.1255ZM53.5948 31.2927C53.5948 28.7734 52.0659 26.2541 48.8171 26.2541C45.8867 26.2541 44.0393 28.4584 44.0393 31.2927C44.0393 34.1269 45.8867 36.3313 48.9445 36.3313C51.62 36.3313 52.7029 34.7567 52.9578 34.1899L51.1104 33.1192C50.983 33.3711 50.537 34.3158 49.0082 34.3158C47.7978 34.3158 46.9697 33.3711 46.8423 32.0485H53.6585C53.5948 32.1114 53.5948 31.2927 53.5948 31.2927ZM46.7786 30.222C46.906 29.1513 47.4793 28.2065 48.8171 28.2065C50.0274 28.2065 50.7281 29.0883 50.7919 30.222H46.7786ZM109.144 24.1126H111.883V26.506H114.049V28.3955H111.883V33.0562C111.883 33.875 112.393 34.4418 113.221 34.4418C113.667 34.4418 113.922 34.3788 113.985 34.3788V36.0164C113.858 36.0794 113.093 36.3313 112.074 36.3313C109.845 36.3313 109.144 34.8827 109.144 33.1192V24.1126ZM80.6049 22.3491H75.8909V36.0164H80.6049C85.0004 36.0164 87.6122 33.9379 87.6122 29.1513C87.6122 24.4276 84.9367 22.3491 80.6049 22.3491ZM80.4138 33.749H78.8212V24.6165H80.4138C83.9811 24.6165 84.5545 27.0098 84.5545 29.1513C84.5545 31.3556 84.0448 33.749 80.4138 33.749ZM125.133 22.3491H128V36.0164H125.133V22.3491ZM99.9069 26.506V27.5767H99.8432C99.6521 27.2618 99.0151 26.2541 97.2314 26.2541C94.301 26.2541 93.2181 28.6474 93.2181 31.0407C93.2181 33.4971 94.301 35.8274 97.2314 35.8274C99.0788 35.8274 99.7158 34.7567 99.8432 34.5048H99.9069V35.5755C99.9069 36.8981 98.9514 37.7169 97.8684 37.7169C96.5943 37.7169 95.9573 36.8981 95.7662 36.5832C95.5114 36.7092 93.9188 37.6539 93.9188 37.6539C94.1099 38.0318 94.9381 39.7953 97.9958 39.7953C101.181 39.7953 102.71 37.7799 102.71 34.9457V26.506H99.9069ZM97.9958 33.812C96.4032 33.812 96.1484 32.3004 96.1484 31.0407C96.1484 29.6551 96.5307 28.2695 97.9958 28.2695C99.461 28.2695 99.8432 29.5921 99.8432 31.0407C99.9069 32.3004 99.5884 33.812 97.9958 33.812ZM118.636 26.2541C116.087 26.2541 115.132 27.5767 114.877 27.9546L116.47 29.1513C116.725 28.7734 117.362 28.2065 118.444 28.2065C119.655 28.2065 120.483 28.7734 120.483 29.8441V30.033H119.273C116.47 30.033 114.622 31.0407 114.622 33.2451C114.622 35.0716 115.96 36.3313 117.744 36.3313C119.655 36.3313 120.356 35.2606 120.483 35.0716H120.547V36.0164H123.222V29.97C123.222 27.3248 121.056 26.2541 118.636 26.2541ZM120.483 32.2374C120.483 33.3711 119.973 34.3158 118.763 34.3158C117.935 34.3158 117.362 33.812 117.362 33.0562C117.362 32.2374 117.935 31.6706 119.336 31.6706H120.419L120.483 32.2374ZM89.0774 26.506H91.944V36.0164H89.0774V26.506Z" fill="black"/>
<path d="M90.4788 25.1833C91.3232 25.1833 92.0077 24.5066 92.0077 23.6717C92.0077 22.8369 91.3232 22.1602 90.4788 22.1602C89.6345 22.1602 88.95 22.8369 88.95 23.6717C88.95 24.5066 89.6345 25.1833 90.4788 25.1833Z" fill="black"/>
<path d="M104.494 26.5059H107.36V36.0163H104.494V26.5059Z" fill="black"/>
<path d="M105.895 25.1833C106.739 25.1833 107.424 24.5066 107.424 23.6717C107.424 22.8369 106.739 22.1602 105.895 22.1602C105.051 22.1602 104.366 22.8369 104.366 23.6717C104.366 24.5066 105.051 25.1833 105.895 25.1833Z" fill="black"/>
<path d="M129.656 14.665H130.357V14.791H130.102V15.4208H129.911V14.791H129.656V14.665ZM130.421 14.665H130.612L130.803 15.2319L130.994 14.665H131.185V15.4208H131.058V14.917L130.867 15.4208H130.739L130.548 14.917V15.4208H130.421V14.665Z" fill="black"/>
</g>
<defs>
<clipPath id="clip0_115_8774">
<rect width="130.588" height="40" fill="white" transform="translate(0.705811)"/>
</clipPath>
</defs>
</svg>
