<svg width="38" height="41" viewBox="0 0 38 41" fill="none" xmlns="http://www.w3.org/2000/svg">
    <g clip-path="url(#clip0_41_3368)">
        <path fill-rule="evenodd" clip-rule="evenodd" d="M30.4852 11.1593C29.3281 11.3392 28.7111 11.9931 28.7614 12.986C28.8119 13.9813 29.2845 14.3763 30.836 14.7196C32.0615 14.9908 32.2976 15.1542 32.2945 15.7291C32.2916 16.273 31.898 16.5327 31.0763 16.5328C30.1205 16.533 29.7009 16.2634 29.4422 15.4835L29.3352 15.1614L29.0439 15.1503L28.7525 15.1392V15.956V16.7729L29.0858 16.9127C31.2105 17.8037 33.4253 17.1575 33.5056 15.6232C33.5618 14.5484 33.0452 13.9886 31.7043 13.6712C30.1584 13.3053 29.9485 13.1774 29.9788 12.6208C30.0061 12.1226 30.3235 11.8975 31.0338 11.8728C31.9283 11.8416 32.3046 12.0766 32.5444 12.8162L32.6254 13.0662H32.908H33.1905L33.2008 12.3372L33.2112 11.6082L32.8725 11.4726C32.0592 11.1471 31.2482 11.0407 30.4852 11.1593ZM3.71122 11.2821C3.69722 11.296 3.68579 11.4582 3.68579 11.6425V11.9775L4.01827 11.9885L4.35084 11.9995L4.66522 13.0662C4.83817 13.6529 5.17093 14.8057 5.40465 15.6281L5.8296 17.1233H6.41227C6.93408 17.1233 6.99703 17.1164 7.01512 17.0567C7.02627 17.02 7.20827 16.3814 7.4195 15.6376C8.07227 13.3399 8.19255 12.9329 8.21865 12.9329C8.23246 12.9329 8.3415 13.2886 8.46093 13.7233C8.58036 14.1581 8.8436 15.101 9.04598 15.8186L9.41379 17.1233H9.98989H10.5659L10.8746 16.0472C11.0444 15.4552 11.3764 14.2976 11.6124 13.4748L12.0414 11.9786L12.616 11.9891L13.1906 11.9995V14.2091V16.4186L12.8382 16.4295L12.4858 16.4405V16.7819V17.1233H15.0001H17.5144V16.1312V15.1392L17.2227 15.1503L16.9311 15.1614L16.8427 15.4948C16.6166 16.3481 16.5013 16.4172 15.3048 16.418L14.4477 16.4186V15.5043V14.59L15.2919 14.5797L16.136 14.5695L16.1776 14.4503C16.2297 14.3007 16.2304 14.0986 16.1792 13.9146L16.1398 13.7724L15.2937 13.7622L14.4477 13.7519V12.8757V11.9995L15.1906 11.9886C16.375 11.971 16.5564 12.0757 16.7764 12.9043L16.8446 13.1614H17.1414H17.4382V12.2091V11.2567H13.8953H10.3525V11.6186V11.9805H10.7525C10.9725 11.9805 11.1525 11.9941 11.1525 12.0107C11.1525 12.0599 10.2084 15.4896 10.1897 15.5083C10.1834 15.5146 10.0606 15.1048 9.91646 14.5977C9.63331 13.6006 9.07941 11.6317 9.01646 11.3986L8.9776 11.2548L8.38293 11.2652L7.78827 11.2757L7.68008 11.6567C7.62046 11.8662 7.36293 12.8091 7.10779 13.7519C6.62074 15.5512 6.63255 15.5114 6.59589 15.4747C6.57722 15.456 5.62865 12.0429 5.62865 11.9943C5.62865 11.9867 5.80008 11.9805 6.0096 11.9805H6.39055V11.6186V11.2567H5.0636C4.3337 11.2567 3.72512 11.2681 3.71122 11.2821ZM18.162 11.6186V11.9805H18.5051H18.8483L18.8385 14.1995L18.8286 16.4186L18.4953 16.4296L18.162 16.4406V16.782V17.1233H20.5246H22.8871L22.8769 16.1424L22.8667 15.1614L22.5766 15.1504L22.2864 15.1393L22.2037 15.469C21.9915 16.3152 21.8604 16.4062 20.8191 16.4303L20.1048 16.4468V14.2136V11.9805H20.4858H20.8667V11.6186V11.2567H19.5144H18.162V11.6186ZM23.4191 11.6172V11.9776L23.7715 11.9886L24.1239 11.9995V14.2091V16.4186L23.7715 16.4295L23.4191 16.4405V16.7819V17.1233H25.781H28.1429V16.1329V15.1424H27.8586H27.5745L27.5344 15.3043C27.2866 16.3061 27.1647 16.407 26.1727 16.4313C25.8329 16.4397 25.5114 16.4356 25.4582 16.4222L25.3614 16.3979L25.3712 14.1988L25.381 11.9995L25.7715 11.9887L26.162 11.9778V11.6172V11.2567H24.7906H23.4191V11.6172ZM23.7429 20.0201C22.1587 20.2671 21.2398 21.3894 21.2332 23.0852C21.2229 25.7513 23.6086 26.9602 26.3776 25.692L26.6191 25.5813V24.2667V22.9519H25.5205H24.4218L24.3776 23.049C24.3238 23.1671 24.3197 23.5203 24.3706 23.6542L24.4077 23.7519H24.9039H25.4001V24.5102V25.2686L25.222 25.3292C23.4541 25.9316 22.1909 24.4444 22.6365 22.2852C23.0127 20.4621 25.2172 20.1117 25.8249 21.7785L25.9055 21.9995H26.2052H26.5048V21.2447V20.4897L26.3048 20.4072C25.4661 20.061 24.4578 19.9086 23.7429 20.0201ZM30.1048 20.0201C28.2379 20.3111 27.1513 22.0144 27.6093 23.9319C28.308 26.8572 32.7011 26.9734 33.584 24.0901C34.2912 21.7807 32.4708 19.6512 30.1048 20.0201ZM4.60817 20.5233L4.61912 20.8757L4.97151 20.8867L5.32389 20.8976V23.1057V25.3138H4.96198H4.60008V25.6757V26.0376H6.0096H7.41912V25.6757V25.3138H7.00008H6.58103V24.4574V23.601L7.4477 23.5908L8.31436 23.5805L8.36208 23.39C8.39779 23.2472 8.39951 23.1496 8.36903 23.0002L8.32827 22.801L7.46417 22.7907L6.60008 22.7805L6.58989 21.8376L6.5797 20.8948L7.46608 20.8949C8.61789 20.8949 8.73503 20.9528 8.9376 21.6212C9.08665 22.113 9.05522 22.0807 9.37141 22.0679L9.6477 22.0567L9.65789 21.1138L9.66808 20.171H7.13265H4.59722L4.60817 20.5233ZM10.4896 22.6578C9.31389 25.6187 9.47179 25.3138 9.1135 25.3138H8.82865V25.6757V26.0376H9.93341H11.0382V25.6757V25.3138H10.7166C10.3171 25.3138 10.3286 25.3511 10.5444 24.7614L10.7255 24.2662L11.8266 24.2561L12.9278 24.246L13.1077 24.7513C13.2066 25.0292 13.2871 25.2695 13.2866 25.2852C13.2862 25.301 13.1401 25.3138 12.962 25.3138H12.6382V25.6757V26.0376H15.2667H17.8953V25.6757V25.3138H17.4953H17.0953V24.4186V23.5233H17.5265C18.4821 23.5233 18.7354 23.7613 18.8682 24.7841C19.0029 25.822 19.2836 26.0764 20.2927 26.0752C20.8479 26.0745 20.8686 26.0662 20.8946 25.8352C20.9342 25.4846 20.8895 25.3901 20.6841 25.3894C20.3084 25.3883 20.2028 25.2441 20.1222 24.6222C20.0019 23.6935 19.8062 23.4323 19.0763 23.2259L18.9429 23.1883L19.068 23.1844C20.3089 23.1457 20.9348 21.5494 20.0472 20.6868C19.5655 20.2186 19.2822 20.171 16.9777 20.171H15.1525V20.5329V20.8948H15.4953H15.8382V23.1052V25.3158L15.2607 25.3052L14.6833 25.2948L14.4007 24.6091C14.2453 24.2319 13.8959 23.3748 13.6243 22.7043C13.3526 22.0338 13.0086 21.1895 12.8599 20.8281L12.5895 20.171L12.0329 20.1721L11.4763 20.1732L10.4896 22.6578ZM31.2762 20.8532C32.5077 21.3316 32.7823 24.0499 31.6999 25.0476C31.1909 25.5168 30.2856 25.5725 29.6773 25.1721C28.5438 24.426 28.6073 21.6266 29.7732 20.9433C30.1532 20.7206 30.8303 20.68 31.2762 20.8532ZM18.7533 21.0112C19.2698 21.2772 19.3836 22.0732 18.965 22.4917C18.7266 22.7302 18.5221 22.7792 17.762 22.7799L17.1144 22.7805L17.1042 21.8347L17.094 20.889L17.8292 20.9013C18.5305 20.9132 18.5731 20.9183 18.7533 21.0112ZM12.2572 22.4492C12.4714 23.0212 12.6387 23.4973 12.629 23.5072C12.6192 23.5169 12.2516 23.5203 11.8122 23.5146L11.0131 23.5043L11.4145 22.4284C11.6353 21.8367 11.8275 21.3652 11.8418 21.3808C11.856 21.3963 12.0429 21.8772 12.2572 22.4492Z" fill="#FBFAFA"/>
        <path fill-rule="evenodd" clip-rule="evenodd" d="M0.523926 38.7801V40.2468H19.0001H37.4763V38.7801V37.3135H19.0001H0.523926V38.7801Z" fill="#FCCC44"/>
        <path fill-rule="evenodd" clip-rule="evenodd" d="M0.523926 18.7994V37.2756H19.0001H37.4763V18.7994V0.323242H19.0001H0.523926V18.7994ZM32.0477 11.1764C32.4128 11.2675 32.7123 11.3695 33.0199 11.5076L33.2477 11.6098V12.3475V13.0851H32.9049C32.6371 13.0851 32.562 13.0735 32.562 13.032C32.562 12.3597 32.0066 11.9237 31.1498 11.9234C30.3625 11.9231 30.0096 12.1493 30.0096 12.6543C30.0096 13.148 30.2171 13.2829 31.3811 13.5453C32.2184 13.7342 32.4632 13.8152 32.7407 13.9955C33.8664 14.727 33.8176 16.414 32.6538 17.001C31.7332 17.4652 30.021 17.4107 28.943 16.8827L28.6954 16.7613L28.6851 15.9337L28.6748 15.106L28.7625 15.084C28.8107 15.0719 28.961 15.0672 29.0965 15.0736L29.343 15.0851L29.424 15.3377C29.702 16.2042 30.0932 16.4872 31.0192 16.4921C31.8426 16.4964 32.203 16.3031 32.2482 15.833C32.3077 15.2128 32.1021 15.0551 30.8512 14.7618C29.554 14.4577 29.1219 14.209 28.8467 13.6079C28.325 12.4683 29.1034 11.3259 30.562 11.0907C30.826 11.0481 31.7466 11.1012 32.0477 11.1764ZM6.42069 11.2509C6.4565 11.2735 6.46678 11.3794 6.45878 11.6407L6.44774 11.9994L6.05726 12.0103C5.8425 12.0163 5.66678 12.0293 5.66678 12.0392C5.66678 12.0604 5.91602 12.9494 6.21097 13.9804C6.32488 14.3785 6.45735 14.8544 6.50545 15.038C6.55354 15.2215 6.59888 15.3657 6.60631 15.3583C6.6264 15.3383 7.34469 12.79 7.55316 11.9994C7.65259 11.6223 7.75097 11.2923 7.77174 11.2661C7.83888 11.1813 8.96859 11.2002 9.01497 11.2869C9.04726 11.3472 9.71193 13.7104 10.0534 14.9785C10.1221 15.2342 10.1829 15.4389 10.1883 15.4335C10.2085 15.4133 11.0763 12.1331 11.0763 12.077C11.0763 12.0283 11.0122 12.0185 10.694 12.0185H10.3117L10.3226 11.628L10.3334 11.2375L13.8192 11.2271C15.7363 11.2213 17.3437 11.226 17.3913 11.2374L17.4776 11.2584L17.4674 12.2193L17.4573 13.1804H17.1372H16.8171L16.6978 12.8102C16.4605 12.0729 16.3645 12.0229 15.1811 12.0201L14.4668 12.0185V12.8756V13.7328H15.3058H16.1449L16.182 13.8305C16.23 13.9567 16.23 14.3851 16.182 14.5112L16.1449 14.609H15.3058H14.4668V15.4851V16.3613H15.3254C16.4894 16.3613 16.5627 16.3208 16.7728 15.5613C16.8278 15.3623 16.8798 15.1773 16.8883 15.1503C16.8996 15.1141 16.9869 15.104 17.2186 15.1122L17.5335 15.1232V16.1328V17.1423L14.9893 17.1521L12.4451 17.1619L12.4559 16.7711L12.4668 16.3804L12.8192 16.3694L13.1715 16.3585V14.1885V12.0185H12.6243H12.077L11.9596 12.3899C11.8951 12.5942 11.5755 13.7128 11.2497 14.8756C10.9238 16.0385 10.6404 17.0285 10.6199 17.0756C10.5836 17.1592 10.5682 17.1613 9.9905 17.1613H9.39821L9.36297 17.0687C9.34364 17.0177 9.18869 16.4649 9.01869 15.8401C8.75107 14.8564 8.29469 13.2581 8.23212 13.0851C8.22078 13.0537 8.11831 13.3537 8.0044 13.7518C7.8905 14.1499 7.6704 14.9042 7.51526 15.428C7.36012 15.9518 7.18421 16.5518 7.12431 16.7613L7.01555 17.1423H6.41335H5.81126L5.54974 16.2661C5.40583 15.7842 5.07545 14.6356 4.81555 13.7137L4.34297 12.0375L3.99535 12.0266L3.64774 12.0156V11.6392C3.64774 11.3738 3.66174 11.2572 3.69535 11.2437C3.7764 11.211 6.36859 11.2177 6.42069 11.2509ZM20.8969 11.2509C20.9327 11.2735 20.943 11.3794 20.935 11.6407L20.9239 11.9994L20.5144 12.0103L20.1049 12.0211V14.1912V16.3613L20.8192 16.3605C21.8496 16.3593 21.9615 16.2885 22.1637 15.5095L22.264 15.1232L22.5939 15.1122L22.9239 15.1012V16.1315V17.1619L20.5144 17.1521L18.1049 17.1423L18.0938 16.8051C18.0794 16.3671 18.0848 16.3613 18.5098 16.3613H18.8484L18.8385 14.1994L18.8287 12.0375L18.4668 12.0185L18.1049 11.9994L18.0938 11.6623C18.0867 11.4466 18.0987 11.306 18.1271 11.2718C18.1772 11.2114 20.8034 11.1915 20.8969 11.2509ZM26.1398 11.2416C26.1892 11.2605 26.2001 11.333 26.2001 11.6403V12.0158L25.8096 12.0267L25.4192 12.0375L25.4094 14.1994L25.3995 16.3613H26.1021C27.1279 16.3613 27.2481 16.2791 27.4606 15.4319L27.5428 15.1042H27.8612C28.2549 15.1042 28.2246 15.0086 28.2109 16.209L28.2001 17.1423H25.8001H23.4001V16.7613V16.3804L23.7525 16.3694L24.1049 16.3585V14.1885V12.0185H23.743H23.3811V11.6439C23.3811 11.4378 23.3925 11.2578 23.4065 11.2439C23.4382 11.2121 26.0575 11.21 26.1398 11.2416ZM25.2287 20.037C25.5951 20.1158 26.0634 20.269 26.3144 20.392L26.5239 20.4947V21.2566V22.0185L26.21 22.0295L25.8961 22.0406L25.7468 21.7172C25.4314 21.0348 25.0729 20.799 24.3525 20.8003C23.1698 20.8025 22.6387 21.5106 22.6387 23.0851C22.6387 24.3826 22.9804 25.0369 23.8033 25.3151C24.1072 25.4178 24.8743 25.4072 25.1811 25.296L25.362 25.2304V24.5101V23.7899H24.8658H24.3696L24.3325 23.6922C24.268 23.5225 24.2864 23.0854 24.362 22.9931C24.4277 22.913 24.4451 22.9119 25.5335 22.9223L26.6382 22.9328L26.6482 24.2691L26.6582 25.6053L26.3435 25.7412C23.5148 26.9631 21.1879 25.7634 21.1914 23.0851C21.1943 20.8633 22.9409 19.5446 25.2287 20.037ZM31.4633 20.0547C34.4691 20.8512 34.5354 25.3388 31.5525 26.0951C29.6973 26.5654 28.0114 25.6501 27.5743 23.9352C26.955 21.5047 29.0493 19.415 31.4633 20.0547ZM9.68583 21.1232V22.0947L9.37097 22.1057C9.13907 22.1139 9.05212 22.1038 9.04126 22.0676C9.03307 22.0406 8.98231 21.8716 8.9285 21.6922C8.71488 20.9802 8.62374 20.9328 7.46821 20.9328H6.61916V21.828V22.7232H7.45259C8.44554 22.7232 8.39059 22.6965 8.39059 23.1804C8.39059 23.6643 8.44554 23.6375 7.45259 23.6375H6.61916V24.4566V25.2756H7.01916H7.41916V25.6566V26.0375H6.00964H4.60012V25.6566V25.2756H4.94297H5.28583V23.1042V20.9328H4.94297H4.60012V20.5325V20.1322L7.14297 20.142L9.68583 20.1518V21.1232ZM12.8413 20.7042C12.9634 21.008 13.1745 21.5223 13.3103 21.8471C13.446 22.1718 13.7541 22.9261 13.9948 23.5232C14.2355 24.1204 14.4939 24.759 14.5692 24.9423L14.7058 25.2756H15.253H15.8001V23.1042V20.9328H15.4573H15.1144V20.5297V20.1268L17.0668 20.1429C19.1923 20.1605 19.2102 20.1621 19.68 20.392C20.2295 20.6607 20.4668 21.0592 20.4668 21.713C20.4668 22.4831 20.0954 22.9584 19.3387 23.1569C19.2258 23.1865 19.1592 23.2191 19.1906 23.2294C19.8581 23.4481 20.0271 23.6703 20.126 24.4592C20.2198 25.2076 20.3114 25.3518 20.6921 25.3518C20.9038 25.3518 20.943 25.4098 20.943 25.723C20.943 26.0892 20.9332 26.0947 20.2698 26.0947C19.3165 26.0947 18.9974 25.848 18.8827 25.023C18.7147 23.8141 18.5203 23.5934 17.6001 23.567L17.1334 23.5535V24.4132V25.273L17.5239 25.2838L17.9144 25.2947L17.9253 25.6661L17.9362 26.0375H15.2681H12.6001V25.6566V25.2756H12.9239C13.3078 25.2756 13.2961 25.3159 13.0795 24.7423L12.9141 24.3042H11.8375H10.7607L10.581 24.7804L10.4013 25.2566L10.7388 25.2675L11.0763 25.2785V25.658V26.0375H9.9525H8.82869V25.6582V25.2789L9.11612 25.2677L9.40345 25.2566L9.68983 24.5518C9.84735 24.1642 10.2654 23.1185 10.6188 22.228C10.9721 21.3375 11.2903 20.5404 11.3257 20.4566C11.3612 20.3728 11.405 20.2651 11.4232 20.2175C11.4557 20.1318 11.4633 20.1309 12.0376 20.1413L12.6192 20.1518L12.8413 20.7042ZM30.162 20.8304C29.2955 21.081 28.9266 21.7534 28.9251 23.0851C28.9242 23.8024 28.9468 23.9499 29.1335 24.4484C29.584 25.6509 31.4559 25.7198 32.0458 24.5556C32.4125 23.8319 32.4217 22.4193 32.0646 21.671C31.7386 20.9879 30.8994 20.6171 30.162 20.8304ZM17.1334 21.8273V22.7291L17.8477 22.7167C18.8462 22.6992 19.1254 22.5349 19.1794 21.9328C19.2445 21.2082 18.9086 20.9612 17.8287 20.9395L17.1334 20.9255V21.8273ZM11.4307 22.474L11.0493 23.5232H11.8288C12.5555 23.5232 12.6065 23.5188 12.5825 23.4566C12.5683 23.4199 12.4017 22.9613 12.2123 22.4375C12.0229 21.9137 11.8553 21.4715 11.84 21.455C11.8247 21.4384 11.6405 21.897 11.4307 22.474Z" fill="#D41C2C"/>
    </g>
    <defs>
        <clipPath id="clip0_41_3368">
            <rect width="36.9524" height="40" fill="white" transform="translate(0.523926 0.323242)"/>
        </clipPath>
    </defs>
</svg>
