<svg width="39" height="25" viewBox="0 0 39 25" fill="none" xmlns="http://www.w3.org/2000/svg">
<g id="WHEAT - Wheat USD">
<path id="Vector" d="M37.5505 25H0.658812C0.295003 25 0 24.7054 0 24.3421V0.657924C0 0.294605 0.295003 0 0.658812 0H37.5506C37.9144 0 38.2094 0.294605 38.2094 0.657924V24.3421C38.2093 24.7055 37.9143 25 37.5505 25Z" fill="#FADB99"/>
<g id="wheat (1) 1" clip-path="url(#clip0_17999_31477)">
<path id="Vector_2" d="M26.7386 20.1352L24.5586 17.9552C24.6544 17.9388 25.2154 15.5667 25.2619 15.4573C25.586 14.2146 25.2284 12.8937 24.3229 11.9837L23.4514 11.1121C23.2559 10.9132 22.9419 10.8384 22.6858 10.958C22.4603 10.0156 21.5831 9.23421 20.9189 8.57971C20.7268 8.36154 20.4123 8.29864 20.1511 8.42671C19.9278 7.48151 19.0472 6.69837 18.382 6.04274L16.9375 4.59831C16.5426 4.19427 15.9323 4.80344 16.3363 5.19897L17.2877 6.15267C17.1869 6.20424 16.7624 8.03571 16.712 8.16774C16.3108 6.64454 14.9672 5.55711 13.3936 5.48287L12.1747 5.42621C12.1282 5.42394 12.0812 5.42621 12.0353 5.43357L10.8657 4.26227C10.4719 3.87127 9.87235 4.46797 10.2645 4.86351L11.4346 6.03367C11.4273 6.07957 11.425 6.12547 11.4267 6.17194L11.4834 7.39197C11.5525 8.97184 12.6507 10.3182 14.1835 10.7053C14.047 10.7563 12.2064 11.1847 12.156 11.2855L11.2012 10.3341C11.0323 10.1709 10.7631 10.176 10.6005 10.3449C10.4413 10.5098 10.4418 10.771 10.6005 10.9353L12.0449 12.3803C12.7113 13.0518 13.4712 13.9188 14.4272 14.1534C14.3099 14.4096 14.3841 14.7212 14.5819 14.9173L15.454 15.7888C15.8739 16.2082 16.3907 16.517 16.9585 16.6887C16.8418 16.9443 16.9171 17.2548 17.1143 17.4492L17.9859 18.3207C18.8784 19.22 20.2355 19.5883 21.4595 19.2602C21.5377 19.2279 24.0112 18.6284 23.958 18.5564L26.1374 20.7364C26.5318 21.1274 27.1302 20.5301 26.7386 20.1352ZM19.9437 11.4045L20.4849 9.34754C22.6852 11.2782 21.9933 12.3004 21.3672 14.766L20.6617 14.0611C19.9686 13.3652 19.6955 12.3548 19.9437 11.4045ZM17.4067 8.86531L17.9479 6.81057C20.1477 8.74121 19.4575 9.76121 18.8302 12.2268L18.1247 11.5213C17.4317 10.8254 17.1585 9.81504 17.4067 8.86531ZM12.347 7.52231C12.3305 7.41577 12.2909 6.40767 12.2824 6.28074L13.3534 6.33174C15.1996 6.42184 16.3046 8.16377 15.9102 9.90854C14.2396 10.2865 12.5368 9.28294 12.347 7.52231ZM13.5183 12.6512L12.8122 11.9451C15.2834 11.3156 16.3 10.6305 18.2295 12.828L16.1742 13.3692C15.2245 13.6168 14.2141 13.3437 13.5183 12.6512ZM16.0569 15.1882L15.3497 14.4827C17.8232 13.8514 18.8359 13.1691 20.7682 15.3655L18.7129 15.9061C17.7632 16.1538 16.7528 15.8806 16.0569 15.1882ZM21.2431 18.438C20.2933 18.6856 19.283 18.4125 18.5871 17.72L17.8816 17.0145C20.3534 16.3838 21.3683 15.6999 23.2984 17.8974L21.2431 18.438ZM24.4396 15.2409L23.899 17.2956C21.6998 15.365 22.3883 14.345 23.0167 11.8794L23.7217 12.5849C24.4153 13.2802 24.6884 14.2906 24.4396 15.2409Z" fill="#95703E"/>
</g>
</g>
<defs>
<clipPath id="clip0_17999_31477">
<rect width="17" height="17" fill="white" transform="translate(10 4)"/>
</clipPath>
</defs>
</svg>
