<svg width="110" height="41" viewBox="0 0 110 41" fill="none" xmlns="http://www.w3.org/2000/svg">
    <path d="M1.396 1.00293L8.43002 30.6469H24.4941L29.9061 12.6236H30.0304L35.3989 30.6469H51.3405L58.4578 1.00293L47.0946 1.00323L43.1411 19.52L43.0163 19.5206L37.48 1.00382L23.3709 1.00352L17.7526 19.5203L17.6272 19.5209L13.6327 1.00412L1.396 1.00382V1.00293ZM26.4836 35.1694C24.6939 35.1694 23.7961 35.6028 23.7961 36.5691C23.7961 36.8188 23.8716 37.1292 24.1124 37.3379C24.7129 37.8581 26.8511 38.0656 27.1038 38.3457C27.1543 38.401 27.1841 38.4694 27.1841 38.549C27.1841 38.9034 26.7613 38.995 26.3718 38.995C26.1239 38.995 25.958 38.9343 25.8331 38.8184C25.7142 38.7001 25.6667 38.5247 25.6601 38.2797H23.7396C23.777 39.0984 23.8936 39.8137 26.3231 39.8137C28.3613 39.8137 29.1432 39.2513 29.1432 38.376C29.1432 37.9479 28.9625 37.7095 28.7889 37.5585C28.1943 37.0328 26.1239 36.8384 25.8331 36.5631C25.7772 36.5144 25.7529 36.4269 25.7529 36.3598C25.7529 36.1332 25.9634 35.9881 26.3605 35.9881C26.596 35.9881 26.7815 36.0179 26.9123 36.1094C27.0479 36.2004 27.1288 36.3544 27.1418 36.5982H28.9886C28.9631 35.6897 28.3845 35.1694 26.4836 35.1694ZM74.3739 35.1694C72.3998 35.1694 71.2166 35.89 71.2166 37.546C71.2166 38.8481 71.9122 39.8137 74.1598 39.8137C75.1468 39.8137 76.3122 39.6609 77.1922 39.4594V37.1298H74.2133V38.0591H75.3074V38.7328C75.1409 38.8226 74.8436 38.8844 74.4333 38.8844C73.4998 38.8844 73.1014 38.2732 73.1014 37.4235C73.1014 36.6297 73.5474 36.0987 74.356 36.0987C74.6533 36.0987 74.8555 36.1701 74.9922 36.2741C75.123 36.3776 75.2003 36.5144 75.2241 36.6303H77.1922C77.1625 35.5172 75.9971 35.1694 74.3739 35.1694ZM8.40386 35.2859L9.44975 39.6978H11.8424L12.6481 37.0126H12.6659L13.4656 39.6978H15.8386L16.8988 35.2859H15.2054L14.6168 38.0419H14.5983L13.776 35.2859H11.6753L10.8387 38.0419H10.8191L10.2233 35.2859H8.40386ZM18.9632 35.2859L16.6836 39.6978H18.5292L18.8764 38.9635H21.1876L21.5152 39.6978H23.5927L21.3107 35.2859H18.9632ZM29.6207 35.2859V36.3598H31.0887V39.6978H32.9724V36.3598H34.4416V35.2859H29.6207ZM35.1118 35.2859V39.6978H39.4237V38.7673H36.9324V37.9556H39.2448V37.0263H36.9324V36.2135H39.3994V35.2859H35.1118ZM42.8634 35.2859V39.6978H44.4611V36.3776H44.4807L45.6331 39.6978H47.4549L48.6815 36.3776H48.6952V39.6978H50.4397V35.2859H47.5726L46.6676 38.241H46.6552L45.7193 35.2859H42.8634ZM53.1303 35.2859L50.8518 39.6978H52.6974L53.0446 38.9635H55.3558L55.684 39.6978H57.7598L55.4789 35.2859H53.1303ZM58.1575 35.2859V39.6978H59.7927V36.5554H59.8046L61.4016 39.6978H64.0773V35.2859H62.4362V38.241H62.4184L60.9141 35.2859H58.1575ZM66.753 35.2859L64.4697 39.6978H66.3189L66.6638 38.9635H68.9767L69.3038 39.6978H71.3789L69.1016 35.2859H66.753ZM78.2108 35.2859V39.6978H82.5216V38.7673H80.0302V37.9556H82.3432V37.0263H80.0302V36.2135H82.4978V35.2859H78.2108ZM83.3599 35.2859V39.6978H84.9594V36.3776H84.9772L86.1307 39.6978H87.9502L89.175 36.3776H89.1869V39.6978H90.935V35.2859H88.0691L87.1653 38.241H87.1475L86.214 35.2859H83.3599ZM91.9875 35.2859V39.6978H96.2983V38.7673H93.8069V37.9556H96.1199V37.0263H93.8069V36.2135H96.2745V35.2859H91.9875ZM97.1188 35.2859V39.6978H98.7599V36.5554H98.7718L100.371 39.6978H103.035V35.2859H101.4V38.241H101.382L99.8777 35.2859H97.1188ZM103.517 35.2859V36.3598H104.985V39.6978H106.864V36.3598H108.339V35.2859H103.517ZM20.0537 36.4573L20.7464 37.9973H19.3295L20.0537 36.4573ZM54.2219 36.4573L54.914 37.9973H53.4965L54.2219 36.4573ZM67.8411 36.4573L68.5367 37.9973H67.1157L67.8411 36.4573Z" fill="#006838"/>
    <path d="M58.4005 1.0209H74.4664L79.8771 19.0452H80.0028L85.3697 1.0209H101.311L108.429 30.665H97.0661L93.1128 12.148H92.9864L87.453 30.665H73.3433L67.7237 12.148H67.6003L63.6024 30.665H51.3672" fill="#EDAC09"/>
</svg>
