<svg width="92" height="40" viewBox="0 0 92 40" fill="none" xmlns="http://www.w3.org/2000/svg">
<path d="M64.8369 13.6419V10.9346H65.5143C65.7876 10.9346 66.005 11.0027 66.1657 11.1374C66.3265 11.2728 66.4068 11.4566 66.4068 11.687C66.4068 11.8448 66.3671 11.9802 66.2882 12.095C66.2094 12.2098 66.0961 12.2955 65.9483 12.3522C66.0355 12.4097 66.1212 12.4869 66.2047 12.5856C66.2874 12.6844 66.4037 12.8558 66.5537 13.1C66.6479 13.2547 66.7245 13.3702 66.7811 13.4475L66.9243 13.6419H66.4635L66.3448 13.4629C66.3405 13.4564 66.334 13.4456 66.3218 13.4299L66.2461 13.3236L66.1268 13.1253L65.9966 12.9133C65.9169 12.8022 65.8434 12.7135 65.7769 12.6477C65.7103 12.582 65.6506 12.5345 65.597 12.5054C65.5434 12.4763 65.4532 12.4618 65.3268 12.4618H65.2257V13.6421L64.8369 13.6419ZM65.3421 11.2637H65.2258V12.1149H65.3727C65.568 12.1149 65.7018 12.0975 65.7746 12.0652C65.8472 12.0315 65.9032 11.981 65.9444 11.9135C65.9841 11.846 66.0041 11.7688 66.0041 11.6831C66.0041 11.598 65.982 11.5208 65.9366 11.4519C65.8921 11.3829 65.8288 11.3348 65.7468 11.3066C65.6656 11.2781 65.5311 11.2637 65.3421 11.2637Z" fill="black"/>
<path d="M68.0151 10.9351H69.546V11.2818H68.404V12.1069H69.5077V12.4537H68.404V13.2957H69.585V13.6424H68.0151V10.9351Z" fill="black"/>
<path d="M71.4633 12.5062L71.1686 12.3271C70.9842 12.213 70.8525 12.1021 70.7737 11.9927C70.6956 11.884 70.6565 11.7577 70.6565 11.6161C70.6565 11.4026 70.73 11.2295 70.8785 11.0963C71.0262 10.9631 71.2183 10.8965 71.4549 10.8965C71.6807 10.8965 71.8881 10.9592 72.0764 11.0855V11.5264C71.8813 11.3404 71.6715 11.247 71.4464 11.247C71.3193 11.247 71.2153 11.2761 71.1334 11.3351C71.0522 11.3932 71.0116 11.4674 71.0116 11.5586C71.0116 11.6397 71.0416 11.7155 71.1019 11.7859C71.1625 11.8565 71.2597 11.9307 71.392 12.0087L71.6883 12.1846C72.0181 12.3829 72.1835 12.6339 72.1835 12.9393C72.1835 13.1559 72.1108 13.3328 71.9653 13.4683C71.8206 13.6036 71.6316 13.6718 71.3989 13.6718C71.1318 13.6718 70.8891 13.5891 70.6694 13.423V12.9308C70.8784 13.1972 71.1203 13.3296 71.3959 13.3296C71.5176 13.3296 71.6178 13.296 71.699 13.2285C71.7792 13.1613 71.8198 13.0771 71.8198 12.9752C71.8198 12.8107 71.7007 12.6547 71.4633 12.5062Z" fill="black"/>
<path d="M74.7328 10.8965C75.1508 10.8965 75.499 11.0288 75.7769 11.2937C76.0547 11.5586 76.194 11.89 76.194 12.2888C76.194 12.6884 76.0532 13.0183 75.773 13.2801C75.4921 13.5418 75.1385 13.672 74.7114 13.672C74.3042 13.672 73.9643 13.5418 73.6926 13.2801C73.4209 13.0183 73.2854 12.6907 73.2854 12.2972C73.2854 11.8931 73.4223 11.5586 73.6957 11.2937C73.9689 11.0289 74.3149 10.8965 74.7328 10.8965ZM74.7502 11.2639C74.4402 11.2639 74.1861 11.3611 73.9871 11.5548C73.7872 11.7492 73.6878 11.9964 73.6878 12.2972C73.6878 12.5896 73.788 12.8323 73.9878 13.0267C74.1876 13.2205 74.4379 13.3176 74.7387 13.3176C75.0403 13.3176 75.2913 13.218 75.4942 13.0206C75.6955 12.8231 75.7965 12.5766 75.7965 12.2819C75.7965 11.9949 75.6954 11.7538 75.4942 11.5578C75.2913 11.3619 75.0441 11.2639 74.7502 11.2639Z" fill="black"/>
<path d="M77.4795 13.6419V10.9346H78.1569C78.4302 10.9346 78.6475 11.0027 78.8083 11.1374C78.969 11.2728 79.0494 11.4566 79.0494 11.687C79.0494 11.8448 79.0097 11.9802 78.9307 12.095C78.8511 12.2098 78.7387 12.2955 78.5908 12.3522C78.6781 12.4097 78.7631 12.4869 78.8465 12.5856C78.93 12.6844 79.0463 12.8558 79.1963 13.1C79.2905 13.2547 79.3662 13.3702 79.4229 13.4475L79.5667 13.6419H79.1052L78.9874 13.4629C78.983 13.4564 78.9765 13.4456 78.9644 13.4299L78.8887 13.3236L78.7684 13.1253L78.6391 12.9133C78.5588 12.8022 78.486 12.7135 78.4195 12.6477C78.3528 12.582 78.2923 12.5345 78.2396 12.5054C78.186 12.4763 78.0957 12.4618 77.9694 12.4618H77.8691V13.6421L77.4795 13.6419ZM77.9839 11.2637H77.8691V12.1149H78.0154C78.2106 12.1149 78.3438 12.0975 78.4165 12.0652C78.4892 12.0315 78.5458 11.981 78.5863 11.9135C78.6269 11.846 78.6469 11.7688 78.6469 11.6831C78.6469 11.598 78.6248 11.5208 78.5796 11.4519C78.5345 11.3829 78.4718 11.3348 78.3898 11.3066C78.3086 11.2781 78.1731 11.2637 77.9839 11.2637Z" fill="black"/>
<path d="M80.0701 10.9351H82.3327V11.2818H81.3874V13.6424H80.9978V11.2818H80.0701V10.9351Z" fill="black"/>
<path d="M84.1615 12.5062L83.8667 12.3271C83.6823 12.213 83.5506 12.1021 83.4726 11.9927C83.3938 11.884 83.3547 11.7577 83.3547 11.6161C83.3547 11.4026 83.4289 11.2295 83.5767 11.0963C83.7245 10.9631 83.9166 10.8965 84.1531 10.8965C84.3789 10.8965 84.5863 10.9592 84.7754 11.0855V11.5264C84.5795 11.3404 84.3697 11.247 84.1447 11.247C84.0175 11.247 83.9135 11.2761 83.8324 11.3351C83.7506 11.3932 83.71 11.4674 83.71 11.5586C83.71 11.6397 83.7406 11.7155 83.8012 11.7859C83.8608 11.8565 83.958 11.9307 84.0905 12.0087L84.3867 12.1846C84.7166 12.3829 84.8819 12.6339 84.8819 12.9393C84.8819 13.1559 84.8092 13.3328 84.6645 13.4683C84.5192 13.6036 84.3301 13.6718 84.0981 13.6718C83.831 13.6718 83.5876 13.5891 83.3679 13.423V12.9308C83.5777 13.1972 83.8195 13.3296 84.0943 13.3296C84.2161 13.3296 84.317 13.296 84.3974 13.2285C84.4786 13.1613 84.5183 13.0771 84.5183 12.9752C84.5183 12.8107 84.3995 12.6547 84.1615 12.5062Z" fill="black"/>
<path d="M28.248 0.304395C28.2259 0.218691 27.4704 0.458228 27.5239 0.877704C27.6747 1.62631 27.7444 2.76373 27.4697 3.40595C26.8344 4.88094 25.7788 6.17377 25.0004 7.63116C21.6263 13.9445 17.6147 17.6178 13.7538 20.0963C13.4653 20.2822 12.0079 20.7967 11.7438 20.2631C10.9378 18.6427 14.5912 14.9916 15.1125 13.525C15.1298 13.3161 15.1461 13.104 15.1637 12.8912C15.0917 12.738 15.0175 12.5827 14.9455 12.4289C14.7396 12.249 14.4296 12.2314 14.1411 12.2551C14.0951 12.2638 14.0454 12.2703 13.9957 12.2772C13.946 12.2924 13.8924 12.3093 13.8403 12.3254C12.7978 12.7349 12.2475 13.8976 11.4132 14.6301C10.3477 15.5601 9.1681 16.4327 8.00159 17.1775C7.33259 17.6039 6.32682 18.3563 5.97626 18.625C5.62567 18.8936 4.44383 19.7318 3.6432 19.4922C3.24746 19.3759 3.20307 18.8676 3.2911 18.517C3.60187 17.2479 4.97428 16.109 5.89203 15.2272C6.85878 14.2941 7.76888 13.0189 8.43864 11.8845C8.72646 11.3893 9.13674 10.8657 9.12526 10.2641C9.0747 7.83918 6.07344 10.9599 5.65015 11.648C5.47483 11.9174 5.33402 12.0674 5.02097 12.5175C3.59573 14.8544 -1.00149 19.46 2.57846 21.7709C3.11197 22.0916 3.89197 22.2179 5.18403 21.4548C6.1569 20.8799 9.21787 18.726 10.1433 18.9372C10.0031 18.9481 10.1425 19.2511 10.1027 19.4179C10.063 19.5841 9.96494 20.3081 9.94954 20.4628C9.78876 22.0457 11.0449 21.8053 12.0698 22.1222C12.676 22.201 15.2877 21.8053 18.5125 18.7642C19.8359 17.5181 21.0958 16.4618 22.9436 14.0989C25.122 11.3112 24.3765 11.5998 26.375 8.8289C26.8634 8.07263 27.3502 7.31485 27.8363 6.55783C28.5343 5.55283 29.4881 4.44219 29.8065 3.28407C30.0958 2.22395 29.3671 0.378644 28.248 0.304395Z" fill="black"/>
<path d="M26.8319 25.6597C25.9961 31.1992 24.1613 34.773 18.6824 36.7524C18.3149 36.8911 17.029 37.2484 16.8422 37.256C14.0178 37.475 11.9335 37.5354 9.8362 36.1087C9.39379 35.8079 8.94139 34.8051 9.03784 34.1775C9.31797 32.2822 10.8542 31.0422 12.1907 29.7142C14.0622 27.8481 15.9987 26.1335 18.0562 24.5613C19.2985 23.6359 20.5393 22.7059 21.7816 21.7804C22.2041 21.7475 22.6243 21.9061 23.1112 21.8364C24.0787 21.6963 26.0389 20.8835 26.7944 20.3071C26.8296 20.2075 27.3708 20.0239 27.4397 20.2574C27.4972 20.5406 27.5508 20.8223 27.6066 21.1047C27.5979 22.7106 27.057 24.1526 26.8319 25.6597ZM61.2735 22.0347C61.7068 21.9605 67.8234 20.2873 70.6402 20.5827C71.9223 20.5827 75.7036 21.7561 76.9152 21.8266C77.921 21.9452 81.5653 22.0218 81.6426 22.0218C82.8443 22.0233 84.1165 22.1054 84.8995 21.0046C85.0679 20.7634 84.8696 20.5713 84.65 20.5009C83.6274 20.1641 81.6471 20.2743 81.1236 20.3616C76.2302 20.742 74.9136 19.5594 70.3049 19.2318C69.0664 19.1431 61.3929 20.6188 61.1556 20.6632C61.1556 20.6632 60.1767 20.8591 59.1571 21.1324C58.1375 21.4072 58.061 20.4282 58.0197 20.1144C57.9806 19.8013 58.4139 17.8326 58.531 17.3718C58.7652 16.4311 58.2952 15.7644 57.8635 15.7246C57.3936 15.6832 56.4926 16.2742 56.1398 16.588C55.7869 16.9011 53.2012 18.6639 52.4572 19.2915C51.711 19.9184 51.4767 19.0956 51.6734 18.7825C51.8687 18.4687 52.2995 17.332 52.5353 16.6661C52.7703 15.9994 52.2996 15.5685 51.9077 15.3733C51.5158 15.1765 50.6937 15.6863 50.4587 15.9221C50.2229 16.1563 48.9684 17.019 48.1471 17.6068C47.3234 18.1939 45.1297 19.4079 44.1484 19.8794C43.1694 20.3486 43.1694 19.1737 43.2475 18.6249C43.3271 18.0776 43.559 17.1973 43.68 16.2344C43.8362 14.9814 42.6206 15.2554 42.1514 15.4912C41.6799 15.7246 37.8795 18.3899 37.3705 18.7825C36.8615 19.1737 36.8615 18.5077 36.9005 18.272C36.9396 18.037 37.0177 17.567 37.4486 16.6271C37.8795 15.6863 37.5273 15.4123 37.4486 14.9814C37.3704 14.5497 36.4305 14.7464 35.6857 15.0586C35.2739 15.2331 30.7433 16.8704 30.5757 16.9087C30.4334 16.9217 30.2879 16.9317 30.1448 16.9423C30.144 16.9206 30.0666 16.8993 30.0645 16.8036C30.0493 16.3061 29.8371 15.9341 29.2761 16.0145C28.0996 16.1744 27.462 17.2445 26.6024 17.9342C25.3968 18.9017 24.1607 19.945 22.7752 20.6186C22.3512 20.8444 22.4323 19.8646 22.7331 19.5049C24.6299 17.2422 23.9081 18.0146 24.8098 17.0486C25.4895 16.1699 26.4065 15.2077 26.7509 14.1736C27.0617 13.2252 26.5971 11.6836 25.5851 11.5627C25.2116 11.5453 24.936 11.8597 24.9383 12.1307C24.9874 12.7966 24.8908 13.585 24.6238 14.1721C24.019 15.4994 23.1572 16.7462 22.1858 17.889C20.7813 19.5424 20.7063 20.9363 20.7063 20.9363C20.7063 20.9363 18.5401 22.3661 17.6958 23.107C16.3303 24.2353 14.9616 25.3635 13.5931 26.4926C11.2317 28.6235 5.41741 32.5594 7.34859 36.3881C7.75659 37.2003 8.434 37.9266 9.26297 38.3698C10.5321 39.0488 12.2114 39.7821 13.7806 39.6604C13.8832 39.6909 14.0248 39.71 14.1419 39.7109C15.3803 39.7326 16.739 39.5723 17.8657 39.2118C25.3394 36.8145 30.0423 28.6573 29.4238 20.6814C29.3886 20.2321 29.6412 19.7032 29.9787 19.4008C30.7449 18.7142 33.7279 16.8274 34.6671 16.6659C35.8037 16.47 35.2939 18.1937 35.137 18.7426C34.9808 19.2914 34.5101 20.0752 34.4321 20.7419C34.3539 21.407 35.036 21.7033 35.5289 21.877C36.1956 22.112 37.1746 21.2501 37.4892 20.9761C37.8015 20.7013 40.6612 18.2335 41.1717 17.8799C41.6815 17.5278 41.7596 18.3116 41.6815 18.6637C41.6027 19.0173 41.3677 19.9573 41.3279 20.5452C41.2897 21.1323 41.4075 21.7591 41.9157 22.0729C42.4248 22.3868 42.9345 22.1517 43.5224 21.7982C44.111 21.4468 47.7928 19.0173 48.1066 18.8604C48.4212 18.7042 49.3221 17.9985 49.9099 17.8416C50.497 17.6839 50.4588 18.3507 50.1847 18.9385C50.0836 19.1551 49.8319 20.2711 49.714 20.82C49.5962 21.368 49.5571 21.9559 50.223 22.5039C50.7382 22.9287 51.9468 21.7591 52.2606 21.4851C52.5744 21.2119 55.2764 18.7824 55.787 18.4685C56.2952 18.1547 56.5318 18.9247 56.3366 19.6442C56.1 20.5061 56.0495 21.3129 56.2057 21.6068C56.5578 22.2727 57.2482 22.6249 58.8824 22.4649C59.1588 22.4388 61.2735 22.0347 61.2735 22.0347Z" fill="black"/>
<path d="M86.6119 21.3141C86.7833 21.8101 87.0734 22.1936 87.8879 22.3452C88.2599 22.414 88.7314 22.1913 88.7972 21.9472C88.8853 21.6249 89.0575 21.4581 88.9816 21.0508C88.886 20.5395 88.5186 20.1714 87.7041 20.0198C87.3337 19.9517 86.8614 20.1736 86.7971 20.4186C86.709 20.7401 86.4757 20.9199 86.6119 21.3141Z" fill="black"/>
<path d="M89.9166 22.0347C90.3797 22.0347 90.7563 22.412 90.7563 22.8751C90.7563 23.3374 90.3797 23.7148 89.9166 23.7148C89.4543 23.7148 89.0762 23.3374 89.0762 22.8751C89.0762 22.412 89.4543 22.0347 89.9166 22.0347ZM89.9166 23.5663C90.2978 23.5663 90.6078 23.2563 90.6078 22.8751C90.6078 22.4931 90.2978 22.1839 89.9166 22.1839C89.5346 22.1839 89.2254 22.4931 89.2254 22.8751C89.2254 23.2563 89.5346 23.5663 89.9166 23.5663ZM89.5936 22.3891H89.9641C90.1945 22.3891 90.3024 22.4932 90.3024 22.6784C90.3024 22.8453 90.2037 22.9272 90.0728 22.9425L90.323 23.3489H90.1378L89.8982 22.9563H89.7695V23.3489H89.5935L89.5936 22.3891ZM89.7696 22.807H89.8982C90.0069 22.807 90.1271 22.8005 90.1271 22.6716C90.1271 22.5429 90.0069 22.5362 89.8982 22.5384H89.7696V22.807Z" fill="black"/>
</svg>
