<svg width="39" height="25" viewBox="0 0 39 25" fill="none" xmlns="http://www.w3.org/2000/svg">
<g id="COPPER" clip-path="url(#clip0_518_765)">
<path id="Vector" d="M37.7364 25H0.844725C0.480916 25 0.185913 24.7054 0.185913 24.3421V0.657924C0.185913 0.294605 0.480916 0 0.844725 0H37.7365C38.1003 0 38.3953 0.294605 38.3953 0.657924V24.3421C38.3952 24.7055 38.1002 25 37.7364 25Z" fill="#BF8066"/>
<path id="Vector 2" d="M15.8109 24.9512L21.6703 0.0976562H27.5785L21.6703 24.9512H15.8109Z" fill="#A77864"/>
<path id="Vector 2.2" d="M21.7679 24.9512L27.6273 0.0976562H33.5355L27.6273 24.9512H21.7679Z" fill="#956754"/>
<path id="Vector 2.1" d="M9.85388 24.9512L15.7133 0.0976562H21.6215L15.7133 24.9512H9.85388Z" fill="#CE9E8B"/>
<path id="Vector 2.3" d="M3.79065 25L9.76575 0H15.7906L9.76575 25H3.79065Z" fill="#D49981"/>
<g id="Cu">
<path id="Vector_2" d="M15.7499 14.8904C14.9443 14.8904 14.3149 14.6317 13.8617 14.1144C13.4085 13.5972 13.1819 12.7915 13.1819 11.6975V8.38095L12.3304 8.18869V7.31665H13.1819H14.5346V11.7112C14.5346 12.5031 14.6513 13.0479 14.8848 13.3454C15.1182 13.643 15.4822 13.7917 15.9765 13.7917C16.4572 13.7917 16.8532 13.6956 17.1644 13.5033C17.4803 13.3065 17.7183 13.0295 17.8785 12.6725V8.38095L16.8829 8.18869V7.31665H17.8785H19.2312V13.6887L20.0827 13.881V14.7462H18.0159L17.9266 13.6475C17.6932 14.0458 17.391 14.3525 17.0202 14.5676C16.654 14.7828 16.2306 14.8904 15.7499 14.8904Z" fill="white"/>
<path id="Vector_3" d="M8.18992 14.8903C7.18741 14.8903 6.3497 14.6706 5.67679 14.2311C5.00845 13.7917 4.50491 13.1897 4.16617 12.4253C3.832 11.6608 3.66492 10.7933 3.66492 9.82288V9.67869C3.66492 8.69907 3.84116 7.82932 4.19363 7.06943C4.54611 6.30496 5.05194 5.703 5.71112 5.26355C6.3703 4.8241 7.15766 4.60437 8.07318 4.60437C8.71863 4.60437 9.30915 4.70508 9.84473 4.90649C10.3803 5.10791 10.8243 5.36426 11.1768 5.67554V7.83161H10.0988L9.9546 6.25232C9.80811 6.13788 9.63874 6.04175 9.44648 5.96393C9.25879 5.88611 9.04822 5.8266 8.81476 5.7854C8.58588 5.7442 8.3364 5.7236 8.06632 5.7236C7.41172 5.7236 6.85782 5.89298 6.40464 6.23172C5.95145 6.56589 5.60813 7.02823 5.37467 7.61875C5.14121 8.20926 5.02448 8.89133 5.02448 9.66495V9.82288C5.02448 10.6606 5.14807 11.377 5.39527 11.9721C5.64704 12.5626 6.01096 13.0135 6.48703 13.3248C6.96768 13.6361 7.55133 13.7917 8.23798 13.7917C8.55841 13.7917 8.87198 13.7528 9.17869 13.675C9.48539 13.5971 9.73945 13.4964 9.94086 13.3728L10.0919 11.9789H11.1494V14.1488C10.774 14.3822 10.3254 14.5653 9.80353 14.6981C9.28168 14.8262 8.74381 14.8903 8.18992 14.8903Z" fill="white"/>
</g>
<g id="Copper">
<path id="Vector_4" d="M13.8151 19.9837V21.5745H13.4924V19.6872H13.8064L13.8151 19.9837ZM14.4046 19.6768L14.4029 19.9768C14.3762 19.971 14.3506 19.9675 14.3262 19.9663C14.3029 19.964 14.2762 19.9628 14.2459 19.9628C14.1715 19.9628 14.1058 19.9744 14.0488 19.9977C13.9919 20.021 13.9436 20.0535 13.9041 20.0954C13.8645 20.1372 13.8331 20.1872 13.8099 20.2454C13.7878 20.3023 13.7732 20.3651 13.7663 20.4337L13.6756 20.4861C13.6756 20.3721 13.6866 20.2651 13.7087 20.1651C13.732 20.0651 13.7674 19.9768 13.8151 19.9C13.8628 19.8221 13.9232 19.7616 13.9965 19.7186C14.0709 19.6744 14.1593 19.6523 14.2616 19.6523C14.2849 19.6523 14.3116 19.6553 14.3419 19.6611C14.3721 19.6657 14.393 19.6709 14.4046 19.6768Z" fill="white"/>
<path id="Vector_5" d="M12.3813 21.6093C12.2499 21.6093 12.1307 21.5872 12.0237 21.5431C11.9179 21.4977 11.8266 21.4343 11.7499 21.3529C11.6743 21.2715 11.6161 21.175 11.5755 21.0634C11.5348 20.9518 11.5144 20.8297 11.5144 20.6971V20.6239C11.5144 20.4704 11.5371 20.3337 11.5824 20.214C11.6278 20.093 11.6894 19.9907 11.7673 19.907C11.8452 19.8233 11.9336 19.7599 12.0324 19.7169C12.1313 19.6739 12.2336 19.6523 12.3394 19.6523C12.4743 19.6523 12.5906 19.6756 12.6883 19.7221C12.7871 19.7686 12.8679 19.8337 12.9307 19.9175C12.9935 20 13.04 20.0977 13.0702 20.2105C13.1005 20.3221 13.1156 20.4442 13.1156 20.5768V20.7215H11.7063V20.4582H12.7929V20.4337C12.7883 20.35 12.7708 20.2686 12.7406 20.1896C12.7115 20.1105 12.665 20.0454 12.601 19.9942C12.5371 19.943 12.4499 19.9175 12.3394 19.9175C12.2662 19.9175 12.1987 19.9332 12.1371 19.9646C12.0755 19.9948 12.0225 20.0401 11.9784 20.1006C11.9342 20.1611 11.8999 20.2349 11.8755 20.3221C11.851 20.4093 11.8388 20.5099 11.8388 20.6239V20.6971C11.8388 20.7867 11.851 20.871 11.8755 20.95C11.901 21.0279 11.9377 21.0965 11.9853 21.1558C12.0342 21.2151 12.0929 21.2617 12.1615 21.2954C12.2313 21.3291 12.3103 21.346 12.3987 21.346C12.5127 21.346 12.6092 21.3227 12.6883 21.2762C12.7673 21.2297 12.8365 21.1675 12.8958 21.0896L13.0912 21.2448C13.0505 21.3064 12.9987 21.3651 12.9359 21.421C12.8731 21.4768 12.7958 21.5221 12.7039 21.557C12.6133 21.5919 12.5057 21.6093 12.3813 21.6093Z" fill="white"/>
<path id="Vector_6" d="M9.91512 20.05V22.3H9.5907V19.6872H9.88721L9.91512 20.05ZM11.1866 20.6151V20.6518C11.1866 20.789 11.1704 20.9163 11.1378 21.0338C11.1052 21.15 11.0576 21.2512 10.9948 21.3372C10.9332 21.4233 10.857 21.4901 10.7663 21.5378C10.6756 21.5855 10.5715 21.6093 10.4541 21.6093C10.3343 21.6093 10.2285 21.5896 10.1366 21.55C10.0448 21.5105 9.96686 21.4529 9.90291 21.3774C9.83896 21.3018 9.78779 21.2111 9.74942 21.1053C9.71221 20.9994 9.68663 20.8803 9.67268 20.7477V20.5524C9.68663 20.4128 9.71279 20.2878 9.75116 20.1773C9.78954 20.0669 9.84012 19.9727 9.90291 19.8948C9.96686 19.8157 10.0442 19.7558 10.1349 19.7151C10.2256 19.6733 10.3302 19.6523 10.4488 19.6523C10.5675 19.6523 10.6727 19.6756 10.7645 19.7221C10.8564 19.7675 10.9337 19.8326 10.9965 19.9175C11.0593 20.0023 11.1064 20.1041 11.1378 20.2227C11.1704 20.3401 11.1866 20.471 11.1866 20.6151ZM10.8622 20.6518V20.6151C10.8622 20.521 10.8523 20.4326 10.8326 20.35C10.8128 20.2663 10.782 20.193 10.7401 20.1303C10.6994 20.0663 10.6471 20.0163 10.5831 19.9803C10.5192 19.943 10.443 19.9244 10.3547 19.9244C10.2733 19.9244 10.2023 19.9384 10.1419 19.9663C10.0826 19.9942 10.032 20.032 9.99012 20.0797C9.94826 20.1262 9.91396 20.1797 9.88721 20.2401C9.86163 20.2994 9.84244 20.3611 9.82965 20.425V20.8768C9.85291 20.9582 9.88547 21.0349 9.92733 21.107C9.96919 21.1779 10.025 21.2355 10.0948 21.2797C10.1645 21.3227 10.2523 21.3442 10.3581 21.3442C10.4454 21.3442 10.5204 21.3262 10.5831 21.2901C10.6471 21.2529 10.6994 21.2024 10.7401 21.1384C10.782 21.0744 10.8128 21.0012 10.8326 20.9186C10.8523 20.8349 10.8622 20.746 10.8622 20.6518Z" fill="white"/>
<path id="Vector_7" d="M7.90926 20.05V22.3H7.58484V19.6872H7.88135L7.90926 20.05ZM9.18078 20.6151V20.6518C9.18078 20.789 9.1645 20.9163 9.13194 21.0338C9.09939 21.15 9.05171 21.2512 8.98892 21.3372C8.92729 21.4233 8.85113 21.4901 8.76043 21.5378C8.66973 21.5855 8.56566 21.6093 8.44822 21.6093C8.32845 21.6093 8.22263 21.5896 8.13077 21.55C8.03891 21.5105 7.961 21.4529 7.89705 21.3774C7.8331 21.3018 7.78193 21.2111 7.74356 21.1053C7.70635 20.9994 7.68077 20.8803 7.66682 20.7477V20.5524C7.68077 20.4128 7.70693 20.2878 7.74531 20.1773C7.78368 20.0669 7.83426 19.9727 7.89705 19.8948C7.961 19.8157 8.03833 19.7558 8.12903 19.7151C8.21973 19.6733 8.32438 19.6523 8.44299 19.6523C8.56159 19.6523 8.66682 19.6756 8.75869 19.7221C8.85055 19.7675 8.92787 19.8326 8.99066 19.9175C9.05346 20.0023 9.10055 20.1041 9.13194 20.2227C9.1645 20.3401 9.18078 20.471 9.18078 20.6151ZM8.85636 20.6518V20.6151C8.85636 20.521 8.84648 20.4326 8.82671 20.35C8.80694 20.2663 8.77613 20.193 8.73427 20.1303C8.69357 20.0663 8.64124 20.0163 8.57729 19.9803C8.51334 19.943 8.43717 19.9244 8.3488 19.9244C8.2674 19.9244 8.19647 19.9384 8.13601 19.9663C8.0767 19.9942 8.02612 20.032 7.98426 20.0797C7.9424 20.1262 7.9081 20.1797 7.88135 20.2401C7.85577 20.2994 7.83659 20.3611 7.82379 20.425V20.8768C7.84705 20.9582 7.87961 21.0349 7.92147 21.107C7.96333 21.1779 8.01914 21.2355 8.08891 21.2797C8.15868 21.3227 8.24647 21.3442 8.35229 21.3442C8.4395 21.3442 8.5145 21.3262 8.57729 21.2901C8.64124 21.2529 8.69357 21.2024 8.73427 21.1384C8.77613 21.0744 8.80694 21.0012 8.82671 20.9186C8.84648 20.8349 8.85636 20.746 8.85636 20.6518Z" fill="white"/>
<path id="Vector_8" d="M5.46387 20.6518V20.6117C5.46387 20.4756 5.48363 20.3494 5.52317 20.2332C5.56271 20.1157 5.61968 20.014 5.6941 19.9279C5.76852 19.8407 5.85864 19.7733 5.96445 19.7256C6.07027 19.6768 6.18887 19.6523 6.32027 19.6523C6.45283 19.6523 6.57202 19.6768 6.67783 19.7256C6.78481 19.7733 6.87551 19.8407 6.94993 19.9279C7.02551 20.014 7.08307 20.1157 7.1226 20.2332C7.16214 20.3494 7.1819 20.4756 7.1819 20.6117V20.6518C7.1819 20.7878 7.16214 20.914 7.1226 21.0303C7.08307 21.1465 7.02551 21.2483 6.94993 21.3355C6.87551 21.4215 6.78539 21.489 6.67958 21.5378C6.57492 21.5855 6.45632 21.6093 6.32376 21.6093C6.1912 21.6093 6.07201 21.5855 5.9662 21.5378C5.86038 21.489 5.76968 21.4215 5.6941 21.3355C5.61968 21.2483 5.56271 21.1465 5.52317 21.0303C5.48363 20.914 5.46387 20.7878 5.46387 20.6518ZM5.78654 20.6117V20.6518C5.78654 20.746 5.79759 20.8349 5.81968 20.9186C5.84178 21.0012 5.87492 21.0744 5.9191 21.1384C5.96445 21.2024 6.02085 21.2529 6.08829 21.2901C6.15573 21.3262 6.23422 21.3442 6.32376 21.3442C6.41213 21.3442 6.48946 21.3262 6.55574 21.2901C6.62318 21.2529 6.67899 21.2024 6.72318 21.1384C6.76737 21.0744 6.80051 21.0012 6.8226 20.9186C6.84586 20.8349 6.85748 20.746 6.85748 20.6518V20.6117C6.85748 20.5186 6.84586 20.4308 6.8226 20.3483C6.80051 20.2646 6.76679 20.1907 6.72144 20.1268C6.67725 20.0616 6.62144 20.0105 6.55399 19.9733C6.48771 19.9361 6.40981 19.9175 6.32027 19.9175C6.2319 19.9175 6.15399 19.9361 6.08655 19.9733C6.02027 20.0105 5.96445 20.0616 5.9191 20.1268C5.87492 20.1907 5.84178 20.2646 5.81968 20.3483C5.79759 20.4308 5.78654 20.5186 5.78654 20.6117Z" fill="white"/>
<path id="Vector_9" d="M4.80453 20.7669H5.13942C5.12198 20.9273 5.07605 21.0709 5.00163 21.1977C4.92721 21.3244 4.82197 21.425 4.68593 21.4994C4.54988 21.5727 4.38011 21.6093 4.17662 21.6093C4.02778 21.6093 3.89231 21.5814 3.77022 21.5256C3.64929 21.4698 3.54522 21.3907 3.45801 21.2884C3.3708 21.1849 3.30336 21.0611 3.25568 20.9169C3.20917 20.7715 3.18591 20.6099 3.18591 20.432V20.1791C3.18591 20.0012 3.20917 19.8401 3.25568 19.6959C3.30336 19.5506 3.37138 19.4262 3.45975 19.3227C3.54929 19.2192 3.65685 19.1395 3.78243 19.0837C3.90801 19.0279 4.04929 19 4.20627 19C4.39813 19 4.56034 19.036 4.6929 19.1081C4.82546 19.1802 4.92837 19.2802 5.00163 19.4081C5.07605 19.5349 5.12198 19.682 5.13942 19.8494H4.80453C4.78825 19.7308 4.75802 19.6291 4.71383 19.5442C4.66965 19.4581 4.60686 19.3919 4.52546 19.3454C4.44406 19.2988 4.33767 19.2756 4.20627 19.2756C4.09348 19.2756 3.99406 19.2971 3.90801 19.3401C3.82313 19.3831 3.75162 19.4442 3.69348 19.5233C3.6365 19.6023 3.59347 19.6971 3.5644 19.8076C3.53533 19.918 3.5208 20.0407 3.5208 20.1756V20.432C3.5208 20.5564 3.53359 20.6733 3.55917 20.7826C3.58592 20.8919 3.62603 20.9878 3.67952 21.0704C3.73301 21.1529 3.80103 21.218 3.88359 21.2657C3.96615 21.3122 4.06383 21.3355 4.17662 21.3355C4.31964 21.3355 4.4336 21.3128 4.51848 21.2675C4.60337 21.2221 4.66732 21.157 4.71034 21.0721C4.75453 20.9872 4.78593 20.8855 4.80453 20.7669Z" fill="white"/>
</g>
</g>
<defs>
<clipPath id="clip0_518_765">
<rect width="38.2094" height="25" fill="white" transform="translate(0.185913)"/>
</clipPath>
</defs>
</svg>
