<svg width="39" height="25" viewBox="0 0 39 25" fill="none" xmlns="http://www.w3.org/2000/svg">
<g id="XNIUSD" clip-path="url(#clip0_518_676)">
<path id="Vector" d="M38.1552 25H1.26355C0.899739 25 0.604736 24.7054 0.604736 24.3421V0.657924C0.604736 0.294605 0.899739 0 1.26355 0H38.1553C38.5191 0 38.8141 0.294605 38.8141 0.657924V24.3421C38.8141 24.7055 38.5191 25 38.1552 25Z" fill="#A4B9C1"/>
<path id="Vector 2" d="M16.2297 24.9512L22.0891 0.0976562H27.9973L22.0891 24.9512H16.2297Z" fill="#A6BBC3"/>
<path id="Vector 2.2" d="M22.1868 24.9512L28.0461 0.0976562H33.9544L28.0461 24.9512H22.1868Z" fill="#96ABB2"/>
<path id="Vector 2.1" d="M10.2727 24.9512L16.1321 0.0976562H22.0403L16.1321 24.9512H10.2727Z" fill="#B8CDD4"/>
<path id="Vector 2.3" d="M4.31567 24.9512L10.1751 0.0976562H16.0833L10.1751 24.9512H4.31567Z" fill="#C6DBE3"/>
<g id="Ni">
<path id="Vector_2" d="M14.926 14.7461V13.8809L16.0453 13.6887V8.38089L14.926 8.18863V7.31659H17.398V13.6887L18.5172 13.8809V14.7461H14.926ZM15.9766 5.48325V4.03442H17.398V5.48325H15.9766Z" fill="black"/>
<path id="Vector_3" d="M4.10449 14.7461V13.8809L5.22373 13.6887V5.81284L4.10449 5.62058V4.74854H5.22373H6.59015L11.4928 12.542L11.534 12.5282V5.81284L10.3049 5.62058V4.74854H12.7768H13.8961V5.62058L12.7768 5.81284V14.7461H11.5409L6.50775 6.91147L6.46656 6.9252V13.6887L7.69565 13.8809V14.7461H4.10449Z" fill="black"/>
</g>
<g id="Nickel">
<path id="Vector_4" d="M12.9382 18.457V21.0938H12.6189V18.457H12.9382Z" fill="black"/>
<path id="Vector_5" d="M11.4996 21.1281C11.3703 21.1281 11.253 21.1063 11.1477 21.0628C11.0436 21.0182 10.9538 20.9558 10.8782 20.8757C10.8038 20.7956 10.7466 20.7006 10.7066 20.5908C10.6665 20.4809 10.6465 20.3607 10.6465 20.2303V20.1582C10.6465 20.0071 10.6688 19.8727 10.7134 19.7548C10.7581 19.6358 10.8187 19.535 10.8954 19.4527C10.9721 19.3703 11.059 19.3079 11.1563 19.2655C11.2536 19.2232 11.3543 19.202 11.4584 19.202C11.5912 19.202 11.7056 19.2249 11.8018 19.2707C11.899 19.3165 11.9786 19.3806 12.0404 19.463C12.1022 19.5442 12.148 19.6403 12.1777 19.7513C12.2075 19.8612 12.2223 19.9814 12.2223 20.1118V20.2543H10.8353V19.9951H11.9048V19.9711C11.9002 19.8887 11.883 19.8086 11.8533 19.7307C11.8247 19.6529 11.7789 19.5888 11.7159 19.5385C11.653 19.4881 11.5672 19.463 11.4584 19.463C11.3863 19.463 11.32 19.4784 11.2593 19.5093C11.1987 19.5391 11.1466 19.5837 11.1031 19.6432C11.0596 19.7027 11.0259 19.7754 11.0018 19.8612C10.9778 19.947 10.9658 20.046 10.9658 20.1582V20.2303C10.9658 20.3184 10.9778 20.4014 11.0018 20.4792C11.027 20.5559 11.063 20.6234 11.11 20.6817C11.158 20.7401 11.2158 20.7859 11.2833 20.8191C11.352 20.8523 11.4298 20.8689 11.5168 20.8689C11.629 20.8689 11.7239 20.846 11.8018 20.8002C11.8796 20.7544 11.9477 20.6932 12.006 20.6165L12.1983 20.7693C12.1583 20.8299 12.1073 20.8877 12.0455 20.9427C11.9837 20.9976 11.9076 21.0422 11.8172 21.0766C11.728 21.1109 11.6221 21.1281 11.4996 21.1281Z" fill="black"/>
<path id="Vector_6" d="M9.30061 18.457V21.0938H8.98132V18.457H9.30061ZM10.4353 19.2364L9.62505 20.1033L9.17187 20.5736L9.14612 20.2354L9.47056 19.8475L10.0473 19.2364H10.4353ZM10.1452 21.0938L9.48257 20.208L9.64737 19.9247L10.5194 21.0938H10.1452Z" fill="black"/>
<path id="Vector_7" d="M7.88441 20.8671C7.95994 20.8671 8.02975 20.8517 8.09383 20.8208C8.15792 20.7899 8.21056 20.7476 8.25176 20.6938C8.29296 20.6388 8.31642 20.5765 8.32214 20.5067H8.62427C8.61855 20.6165 8.58135 20.7189 8.51269 20.8139C8.44517 20.9078 8.35648 20.9839 8.24661 21.0422C8.13675 21.0995 8.01602 21.1281 7.88441 21.1281C7.74479 21.1281 7.62291 21.1035 7.51877 21.0543C7.41577 21.005 7.32994 20.9375 7.26128 20.8517C7.19376 20.7659 7.14283 20.6674 7.1085 20.5564C7.07531 20.4443 7.05872 20.3258 7.05872 20.2011V20.129C7.05872 20.0043 7.07531 19.8864 7.1085 19.7754C7.14283 19.6632 7.19376 19.5642 7.26128 19.4784C7.32994 19.3926 7.41577 19.3251 7.51877 19.2758C7.62291 19.2266 7.74479 19.202 7.88441 19.202C8.02975 19.202 8.15678 19.2318 8.2655 19.2913C8.37422 19.3497 8.45947 19.4298 8.52127 19.5316C8.58421 19.6323 8.61855 19.7468 8.62427 19.8749H8.32214C8.31642 19.7983 8.29468 19.729 8.25691 19.6672C8.22029 19.6054 8.16994 19.5562 8.10585 19.5196C8.04291 19.4818 7.96909 19.463 7.88441 19.463C7.78713 19.463 7.70531 19.4824 7.63893 19.5213C7.5737 19.5591 7.52163 19.6106 7.48272 19.6758C7.44495 19.7399 7.41749 19.8114 7.40032 19.8904C7.3843 19.9682 7.37629 20.0477 7.37629 20.129V20.2011C7.37629 20.2823 7.3843 20.3625 7.40032 20.4414C7.41634 20.5204 7.44324 20.5919 7.481 20.656C7.51991 20.7201 7.57198 20.7716 7.63722 20.8105C7.70359 20.8483 7.78599 20.8671 7.88441 20.8671Z" fill="black"/>
<path id="Vector_8" d="M6.63129 19.2364V21.0938H6.312V19.2364H6.63129ZM6.28796 18.7437C6.28796 18.6922 6.30341 18.6488 6.33431 18.6133C6.36636 18.5778 6.41328 18.5601 6.47507 18.5601C6.53573 18.5601 6.58208 18.5778 6.61412 18.6133C6.64731 18.6488 6.6639 18.6922 6.6639 18.7437C6.6639 18.7929 6.64731 18.8353 6.61412 18.8708C6.58208 18.9051 6.53573 18.9223 6.47507 18.9223C6.41328 18.9223 6.36636 18.9051 6.33431 18.8708C6.30341 18.8353 6.28796 18.7929 6.28796 18.7437Z" fill="black"/>
<path id="Vector_9" d="M5.74732 18.5944V21.0938H5.41429L4.15601 19.166V21.0938H3.82471V18.5944H4.15601L5.41944 20.5273V18.5944H5.74732Z" fill="black"/>
</g>
</g>
<defs>
<clipPath id="clip0_518_676">
<rect width="38.2094" height="25" fill="white" transform="translate(0.604736)"/>
</clipPath>
</defs>
</svg>
