<svg width="392" height="256" viewBox="0 0 392 256" fill="none" xmlns="http://www.w3.org/2000/svg">
<g clip-path="url(#clip0)">
<path d="M384.517 256H6.74623C3.02083 256 0 252.983 0 249.263V6.73714C0 3.01675 3.02083 0 6.74623 0H384.518C388.243 0 391.264 3.01675 391.264 6.73714V249.263C391.263 252.984 388.242 256 384.517 256Z" fill="#D5D1C6"/>
<path d="M160 255.5L220 1H280.5L220 255.5H160Z" fill="#C7C3B7"/>
<path d="M221 255.5L281 1H341.5L281 255.5H221Z" fill="#BDB9AC"/>
<path d="M99 255.5L159 1H219.5L159 255.5H99Z" fill="#D4D1C5"/>
<path d="M38 255.5L98 1H158.5L98 255.5H38Z" fill="#E4E1D6"/>
<path d="M82.0312 48.625C92.9531 48.625 101.438 51.4375 107.484 57.0625C113.578 62.6875 116.625 70.0938 116.625 79.2812C116.625 88.5625 113.578 95.9922 107.484 101.57C101.438 107.148 92.9531 109.938 82.0312 109.938H60.3047V140.172L71.7656 142.141V151H34.9922V142.141L46.4531 140.172V59.5234L34.9922 57.5547V48.625H46.4531H82.0312ZM60.3047 99.1094H82.0312C88.9688 99.1094 94.1484 97.2578 97.5703 93.5547C101.039 89.8047 102.773 85.0938 102.773 79.4219C102.773 73.75 101.039 69.0156 97.5703 65.2188C94.1484 61.4219 88.9688 59.5234 82.0312 59.5234H60.3047V99.1094Z" fill="black"/>
<path d="M178.078 141.93C175.594 145.398 172.547 148.023 168.938 149.805C165.375 151.586 161.227 152.477 156.492 152.477C147.211 152.477 139.945 149.125 134.695 142.422C129.492 135.672 126.891 126.812 126.891 115.844V114.367C126.891 102.133 129.492 92.2656 134.695 84.7656C139.945 77.2656 147.258 73.5156 156.633 73.5156C161.133 73.5156 165.094 74.3594 168.516 76.0469C171.984 77.6875 174.938 80.0781 177.375 83.2188V52.2109L165.914 50.2422V41.3125H177.375H191.227V140.172L202.688 142.141V151H179.203L178.078 141.93ZM140.742 115.844C140.742 123.484 142.312 129.625 145.453 134.266C148.594 138.906 153.445 141.227 160.008 141.227C164.133 141.227 167.602 140.289 170.414 138.414C173.227 136.539 175.547 133.891 177.375 130.469V95.1719C175.594 91.9844 173.273 89.4531 170.414 87.5781C167.555 85.7031 164.133 84.7656 160.148 84.7656C153.539 84.7656 148.641 87.5078 145.453 92.9922C142.312 98.4766 140.742 105.602 140.742 114.367V115.844Z" fill="black"/>
<path d="M36.3438 205.98V216H32.9688V190.406H42.4082C45.209 190.406 47.4004 191.121 48.9824 192.551C50.5762 193.98 51.373 195.873 51.373 198.229C51.373 200.713 50.5938 202.629 49.0352 203.977C47.4883 205.312 45.2676 205.98 42.373 205.98H36.3438ZM36.3438 203.221H42.4082C44.2129 203.221 45.5957 202.799 46.5566 201.955C47.5176 201.1 47.998 199.869 47.998 198.264C47.998 196.74 47.5176 195.521 46.5566 194.607C45.5957 193.693 44.2773 193.219 42.6016 193.184H36.3438V203.221Z" fill="black"/>
<path d="M66.7012 216C66.5137 215.625 66.3613 214.957 66.2441 213.996C64.7324 215.566 62.9277 216.352 60.8301 216.352C58.9551 216.352 57.4141 215.824 56.207 214.77C55.0117 213.703 54.4141 212.355 54.4141 210.727C54.4141 208.746 55.1641 207.211 56.6641 206.121C58.1758 205.02 60.2969 204.469 63.0273 204.469H66.1914V202.975C66.1914 201.838 65.8516 200.936 65.1719 200.268C64.4922 199.588 63.4902 199.248 62.166 199.248C61.0059 199.248 60.0332 199.541 59.248 200.127C58.4629 200.713 58.0703 201.422 58.0703 202.254H54.8008C54.8008 201.305 55.1348 200.391 55.8027 199.512C56.4824 198.621 57.3965 197.918 58.5449 197.402C59.7051 196.887 60.9766 196.629 62.3594 196.629C64.5508 196.629 66.2676 197.18 67.5098 198.281C68.752 199.371 69.3965 200.877 69.4434 202.799V211.553C69.4434 213.299 69.666 214.688 70.1113 215.719V216H66.7012ZM61.3047 213.521C62.3242 213.521 63.291 213.258 64.2051 212.73C65.1191 212.203 65.7812 211.518 66.1914 210.674V206.771H63.6426C59.6582 206.771 57.666 207.938 57.666 210.27C57.666 211.289 58.0059 212.086 58.6855 212.66C59.3652 213.234 60.2383 213.521 61.3047 213.521Z" fill="black"/>
<path d="M78.0742 216H74.8223V189H78.0742V216Z" fill="black"/>
<path d="M86.8281 216H83.5762V189H86.8281V216Z" fill="black"/>
<path d="M103.791 216C103.604 215.625 103.451 214.957 103.334 213.996C101.822 215.566 100.018 216.352 97.9199 216.352C96.0449 216.352 94.5039 215.824 93.2969 214.77C92.1016 213.703 91.5039 212.355 91.5039 210.727C91.5039 208.746 92.2539 207.211 93.7539 206.121C95.2656 205.02 97.3867 204.469 100.117 204.469H103.281V202.975C103.281 201.838 102.941 200.936 102.262 200.268C101.582 199.588 100.58 199.248 99.2559 199.248C98.0957 199.248 97.123 199.541 96.3379 200.127C95.5527 200.713 95.1602 201.422 95.1602 202.254H91.8906C91.8906 201.305 92.2246 200.391 92.8926 199.512C93.5723 198.621 94.4863 197.918 95.6348 197.402C96.7949 196.887 98.0664 196.629 99.4492 196.629C101.641 196.629 103.357 197.18 104.6 198.281C105.842 199.371 106.486 200.877 106.533 202.799V211.553C106.533 213.299 106.756 214.688 107.201 215.719V216H103.791ZM98.3945 213.521C99.4141 213.521 100.381 213.258 101.295 212.73C102.209 212.203 102.871 211.518 103.281 210.674V206.771H100.732C96.748 206.771 94.7559 207.938 94.7559 210.27C94.7559 211.289 95.0957 212.086 95.7754 212.66C96.4551 213.234 97.3281 213.521 98.3945 213.521Z" fill="black"/>
<path d="M110.84 206.332C110.84 203.414 111.531 201.07 112.914 199.301C114.297 197.52 116.107 196.629 118.346 196.629C120.572 196.629 122.336 197.391 123.637 198.914V189H126.889V216H123.9L123.742 213.961C122.441 215.555 120.631 216.352 118.311 216.352C116.107 216.352 114.309 215.449 112.914 213.645C111.531 211.84 110.84 209.484 110.84 206.578V206.332ZM114.092 206.701C114.092 208.857 114.537 210.545 115.428 211.764C116.318 212.982 117.549 213.592 119.119 213.592C121.182 213.592 122.688 212.666 123.637 210.814V202.078C122.664 200.285 121.17 199.389 119.154 199.389C117.561 199.389 116.318 200.004 115.428 201.234C114.537 202.465 114.092 204.287 114.092 206.701Z" fill="black"/>
<path d="M135.484 216H132.232V196.98H135.484V216ZM131.969 191.936C131.969 191.408 132.127 190.963 132.443 190.6C132.771 190.236 133.252 190.055 133.885 190.055C134.518 190.055 134.998 190.236 135.326 190.6C135.654 190.963 135.818 191.408 135.818 191.936C135.818 192.463 135.654 192.902 135.326 193.254C134.998 193.605 134.518 193.781 133.885 193.781C133.252 193.781 132.771 193.605 132.443 193.254C132.127 192.902 131.969 192.463 131.969 191.936Z" fill="black"/>
<path d="M152.447 214.119C151.182 215.607 149.324 216.352 146.875 216.352C144.848 216.352 143.301 215.766 142.234 214.594C141.18 213.41 140.646 211.664 140.635 209.355V196.98H143.887V209.268C143.887 212.15 145.059 213.592 147.402 213.592C149.887 213.592 151.539 212.666 152.359 210.814V196.98H155.611V216H152.518L152.447 214.119Z" fill="black"/>
<path d="M163.627 196.98L163.715 199.09C165.109 197.449 166.99 196.629 169.357 196.629C172.018 196.629 173.828 197.648 174.789 199.688C175.422 198.773 176.242 198.035 177.25 197.473C178.27 196.91 179.471 196.629 180.854 196.629C185.025 196.629 187.146 198.838 187.217 203.256V216H183.965V203.449C183.965 202.09 183.654 201.076 183.033 200.408C182.412 199.729 181.369 199.389 179.904 199.389C178.697 199.389 177.695 199.752 176.898 200.479C176.102 201.193 175.639 202.16 175.51 203.379V216H172.24V203.537C172.24 200.771 170.887 199.389 168.18 199.389C166.047 199.389 164.588 200.297 163.803 202.113V216H160.551V196.98H163.627Z" fill="black"/>
</g>
<defs>
<clipPath id="clip0">
<rect width="391.264" height="256" fill="white"/>
</clipPath>
</defs>
</svg>

