<svg width="392" height="256" viewBox="0 0 392 256" fill="none" xmlns="http://www.w3.org/2000/svg">
<g clip-path="url(#clip0)">
<path d="M384.517 256H6.74623C3.02083 256 0 252.983 0 249.263V6.73714C0 3.01675 3.02083 0 6.74623 0H384.518C388.243 0 391.264 3.01675 391.264 6.73714V249.263C391.263 252.984 388.242 256 384.517 256Z" fill="#DBDBCF"/>
<path d="M160 255.5L220 1H280.5L220 255.5H160Z" fill="#D4D4C8"/>
<path d="M221 255.5L281 1H341.5L281 255.5H221Z" fill="#CACABB"/>
<path d="M99 255.5L159 1H219.5L159 255.5H99Z" fill="#DBDBCF"/>
<path d="M38 255.5L98 1H158.5L98 255.5H38Z" fill="#EBEBE0"/>
<path d="M82.0312 48.625C92.9531 48.625 101.438 51.4375 107.484 57.0625C113.578 62.6875 116.625 70.0938 116.625 79.2812C116.625 88.5625 113.578 95.9922 107.484 101.57C101.438 107.148 92.9531 109.938 82.0312 109.938H60.3047V140.172L71.7656 142.141V151H34.9922V142.141L46.4531 140.172V59.5234L34.9922 57.5547V48.625H46.4531H82.0312ZM60.3047 99.1094H82.0312C88.9688 99.1094 94.1484 97.2578 97.5703 93.5547C101.039 89.8047 102.773 85.0938 102.773 79.4219C102.773 73.75 101.039 69.0156 97.5703 65.2188C94.1484 61.4219 88.9688 59.5234 82.0312 59.5234H60.3047V99.1094Z" fill="black"/>
<path d="M152.977 56.5703V74.9219H167.391V85.1875H152.977V131.383C152.977 134.945 153.703 137.453 155.156 138.906C156.656 140.359 158.625 141.086 161.062 141.086C162.281 141.086 163.641 140.992 165.141 140.805C166.688 140.57 167.977 140.336 169.008 140.102L170.906 149.594C169.594 150.438 167.672 151.117 165.141 151.633C162.609 152.195 160.078 152.477 157.547 152.477C151.922 152.477 147.445 150.789 144.117 147.414C140.789 143.992 139.125 138.648 139.125 131.383V85.1875H127.102V74.9219H139.125V56.5703H152.977Z" fill="black"/>
<path d="M36.3438 205.98V216H32.9688V190.406H42.4082C45.209 190.406 47.4004 191.121 48.9824 192.551C50.5762 193.98 51.373 195.873 51.373 198.229C51.373 200.713 50.5938 202.629 49.0352 203.977C47.4883 205.312 45.2676 205.98 42.373 205.98H36.3438ZM36.3438 203.221H42.4082C44.2129 203.221 45.5957 202.799 46.5566 201.955C47.5176 201.1 47.998 199.869 47.998 198.264C47.998 196.74 47.5176 195.521 46.5566 194.607C45.5957 193.693 44.2773 193.219 42.6016 193.184H36.3438V203.221Z" fill="black"/>
<path d="M58.7031 216H55.4512V189H58.7031V216Z" fill="black"/>
<path d="M75.666 216C75.4785 215.625 75.3262 214.957 75.209 213.996C73.6973 215.566 71.8926 216.352 69.7949 216.352C67.9199 216.352 66.3789 215.824 65.1719 214.77C63.9766 213.703 63.3789 212.355 63.3789 210.727C63.3789 208.746 64.1289 207.211 65.6289 206.121C67.1406 205.02 69.2617 204.469 71.9922 204.469H75.1562V202.975C75.1562 201.838 74.8164 200.936 74.1367 200.268C73.457 199.588 72.4551 199.248 71.1309 199.248C69.9707 199.248 68.998 199.541 68.2129 200.127C67.4277 200.713 67.0352 201.422 67.0352 202.254H63.7656C63.7656 201.305 64.0996 200.391 64.7676 199.512C65.4473 198.621 66.3613 197.918 67.5098 197.402C68.6699 196.887 69.9414 196.629 71.3242 196.629C73.5156 196.629 75.2324 197.18 76.4746 198.281C77.7168 199.371 78.3613 200.877 78.4082 202.799V211.553C78.4082 213.299 78.6309 214.688 79.0762 215.719V216H75.666ZM70.2695 213.521C71.2891 213.521 72.2559 213.258 73.1699 212.73C74.084 212.203 74.7461 211.518 75.1562 210.674V206.771H72.6074C68.623 206.771 66.6309 207.938 66.6309 210.27C66.6309 211.289 66.9707 212.086 67.6504 212.66C68.3301 213.234 69.2031 213.521 70.2695 213.521Z" fill="black"/>
<path d="M87.918 192.375V196.98H91.4688V199.494H87.918V211.289C87.918 212.051 88.0762 212.625 88.3926 213.012C88.709 213.387 89.248 213.574 90.0098 213.574C90.3848 213.574 90.9004 213.504 91.5566 213.363V216C90.7012 216.234 89.8691 216.352 89.0605 216.352C87.6074 216.352 86.5117 215.912 85.7734 215.033C85.0352 214.154 84.666 212.906 84.666 211.289V199.494H81.2031V196.98H84.666V192.375H87.918Z" fill="black"/>
<path d="M98.8164 216H95.5645V196.98H98.8164V216ZM95.3008 191.936C95.3008 191.408 95.459 190.963 95.7754 190.6C96.1035 190.236 96.584 190.055 97.2168 190.055C97.8496 190.055 98.3301 190.236 98.6582 190.6C98.9863 190.963 99.1504 191.408 99.1504 191.936C99.1504 192.463 98.9863 192.902 98.6582 193.254C98.3301 193.605 97.8496 193.781 97.2168 193.781C96.584 193.781 96.1035 193.605 95.7754 193.254C95.459 192.902 95.3008 192.463 95.3008 191.936Z" fill="black"/>
<path d="M107.113 196.98L107.219 199.371C108.672 197.543 110.57 196.629 112.914 196.629C116.934 196.629 118.961 198.896 118.996 203.432V216H115.744V203.414C115.732 202.043 115.416 201.029 114.795 200.373C114.186 199.717 113.23 199.389 111.93 199.389C110.875 199.389 109.949 199.67 109.152 200.232C108.355 200.795 107.734 201.533 107.289 202.447V216H104.037V196.98H107.113Z" fill="black"/>
<path d="M135.643 214.119C134.377 215.607 132.52 216.352 130.07 216.352C128.043 216.352 126.496 215.766 125.43 214.594C124.375 213.41 123.842 211.664 123.83 209.355V196.98H127.082V209.268C127.082 212.15 128.254 213.592 130.598 213.592C133.082 213.592 134.734 212.666 135.555 210.814V196.98H138.807V216H135.713L135.643 214.119Z" fill="black"/>
<path d="M146.822 196.98L146.91 199.09C148.305 197.449 150.186 196.629 152.553 196.629C155.213 196.629 157.023 197.648 157.984 199.688C158.617 198.773 159.438 198.035 160.445 197.473C161.465 196.91 162.666 196.629 164.049 196.629C168.221 196.629 170.342 198.838 170.412 203.256V216H167.16V203.449C167.16 202.09 166.85 201.076 166.229 200.408C165.607 199.729 164.564 199.389 163.1 199.389C161.893 199.389 160.891 199.752 160.094 200.479C159.297 201.193 158.834 202.16 158.705 203.379V216H155.436V203.537C155.436 200.771 154.082 199.389 151.375 199.389C149.242 199.389 147.783 200.297 146.998 202.113V216H143.746V196.98H146.822Z" fill="black"/>
</g>
<defs>
<clipPath id="clip0">
<rect width="391.264" height="256" fill="white"/>
</clipPath>
</defs>
</svg>

