<svg width="66" height="17" viewBox="0 0 66 17" fill="none" xmlns="http://www.w3.org/2000/svg">
    <g clip-path="url(#clip0_102:48)">
        <path d="M33.029 5.65323C32.3815 5.67162 31.764 5.93095 31.2572 6.32047C31.0759 6.44843 30.8552 6.65989 30.7358 6.85142C30.4762 7.20327 30.256 7.57918 30.1317 7.99917C29.7722 9.17257 29.8361 10.5012 30.4112 11.5966C30.6351 11.9863 30.875 12.3243 31.229 12.6129C31.5162 12.7897 31.8498 13.0225 32.2057 13.1139C33.1788 13.4192 34.3063 13.2623 35.1197 12.6407C35.3231 12.5158 35.5086 12.2754 35.6728 12.0754C35.6609 12.0229 35.8285 11.8076 35.8415 11.9753C35.8409 13.1682 35.8421 14.3719 35.8415 15.5692C36.2072 15.5692 36.5728 15.5692 36.9384 15.5692C36.9384 12.3195 36.9384 9.06975 36.9384 5.82004C36.5728 5.82004 36.2072 5.82004 35.8415 5.82004C35.8415 6.25251 35.8415 6.68498 35.8415 7.11745C35.6451 6.83298 35.4716 6.52111 35.1947 6.339C34.5892 5.85886 33.808 5.59291 33.029 5.65323ZM33.4134 6.63556C33.917 6.63428 34.4883 6.77477 34.8478 7.08965C35.1344 7.3192 35.3488 7.5617 35.5037 7.89893C35.9138 8.77043 35.9502 9.80674 35.63 10.7119C35.4862 11.1496 35.2099 11.5194 34.8478 11.8067C34.3148 12.2573 33.5428 12.3327 32.8687 12.2165C32.4224 12.1408 32.0437 11.8884 31.757 11.5527C31.2233 10.9734 31.071 10.1352 31.0808 9.36759C31.1077 8.70139 31.2371 8.00249 31.6509 7.46034C31.9295 7.11982 32.2939 6.82548 32.7402 6.7212C32.957 6.65195 33.1863 6.6292 33.4134 6.63556Z" fill="black"/>
        <path d="M24.9714 2.86365C24.1369 2.89668 23.2872 3.11299 22.6183 3.62357C22.481 3.71367 22.3293 3.87631 22.2343 4.01766C21.8262 4.52726 21.6175 5.18958 21.6826 5.84024C21.7059 6.31361 21.8827 6.77382 22.2058 7.12658C22.3004 7.26749 22.483 7.4275 22.6316 7.51988C23.4953 8.18341 24.6184 8.30665 25.6377 8.60838C26.2742 8.79994 27.0111 8.92996 27.4277 9.48973C27.7805 9.91561 27.7706 10.5557 27.5777 11.0559C27.4127 11.4656 27.0525 11.7585 26.6683 11.9641C25.8638 12.3081 24.932 12.2858 24.0997 12.0554C23.4727 11.8657 22.9165 11.4974 22.5095 10.9867C22.4053 10.8189 22.3127 10.7108 22.1498 10.9047C21.9029 11.0755 21.6559 11.2464 21.4089 11.4173C21.6073 11.7252 21.8415 12.0208 22.1214 12.2328C22.6003 12.5948 23.1196 12.915 23.7086 13.0652C24.8106 13.3898 26.0339 13.356 27.0996 12.9186C27.5297 12.6965 27.9405 12.4722 28.2447 12.0997C28.6383 11.6399 28.8911 10.995 28.9033 10.3665C28.9355 9.76318 28.7386 9.15123 28.3371 8.69275C28.2605 8.5735 28.1223 8.45157 27.9897 8.37536C27.789 8.19925 27.5621 8.08881 27.3162 7.95728C26.2195 7.415 24.969 7.29797 23.8488 6.82404C23.5057 6.65551 23.1623 6.42203 22.9839 6.07939C22.7172 5.49433 22.925 4.75384 23.4473 4.38275C23.9036 4.02134 24.5299 3.91502 25.1083 3.91085C26.1126 3.90071 27.1309 4.33363 27.7371 5.13413C28.0371 4.91171 28.3371 4.6893 28.6371 4.46689C28.3739 4.1047 28.0449 3.82416 27.6849 3.58426C26.8901 3.06751 25.9221 2.81524 24.9714 2.86365Z" fill="black"/>
        <path d="M38.7896 10.5462C38.7908 11.1831 38.9215 11.8447 39.3146 12.3626C39.4864 12.6388 39.8255 12.8583 40.1268 13.0209C40.914 13.381 41.8592 13.326 42.6387 12.973C42.9938 12.783 43.3348 12.5467 43.5614 12.2421C43.6653 12.1474 43.7824 11.8784 43.8427 11.864C43.8427 12.2743 43.8427 12.6845 43.8427 13.0947C44.2083 13.0947 44.5739 13.0947 44.9395 13.0947C44.9395 10.6698 44.9395 8.24488 44.9395 5.81995C44.5739 5.81995 44.2083 5.81995 43.8427 5.81995C43.8351 7.3057 43.8604 8.7923 43.8239 10.2775C43.7353 10.8755 43.4604 11.453 42.9614 11.8159C42.3566 12.2714 41.4802 12.3821 40.7677 12.1031C40.2686 11.8814 39.9842 11.34 39.9486 10.8083C39.8628 9.87801 39.9234 8.94173 39.9052 8.00887C39.9052 7.27923 39.9052 6.54959 39.9052 5.81995C39.5333 5.81995 39.1614 5.81995 38.7896 5.81995C38.7896 7.39538 38.7896 8.97081 38.7896 10.5462Z" fill="black"/>
        <path d="M49.4439 5.65307C48.4918 5.68363 47.5485 5.98963 46.772 6.53346C46.9314 6.79912 47.0908 7.06478 47.2501 7.33044C47.8965 6.84006 48.7282 6.63952 49.532 6.60759C50.1175 6.59966 50.8069 6.71034 51.1435 7.22375C51.3358 7.57213 51.2919 8.07213 50.9626 8.32203C50.6869 8.58379 50.2185 8.69144 49.8189 8.76686C49.0606 8.90459 48.2656 8.93417 47.554 9.25148C47.234 9.39952 46.9372 9.61722 46.7533 9.89747C46.36 10.3793 46.3325 11.0483 46.4491 11.6324C46.5158 11.962 46.6867 12.2495 46.8939 12.5108C47.0027 12.6707 47.2184 12.7777 47.4001 12.9093C48.0859 13.2965 48.9274 13.3279 49.6896 13.1822C50.1388 13.0811 50.5532 12.8533 50.8762 12.5641C51.0456 12.4558 51.0785 12.2744 51.2251 12.1679C51.3658 12.2057 51.2563 12.4289 51.2908 12.5386C51.2908 12.724 51.2908 12.9093 51.2908 13.0947C51.6439 13.0947 51.997 13.0947 52.3502 13.0947C52.3423 11.2073 52.3683 9.31915 52.3314 7.43238C52.2457 6.91467 51.9672 6.37947 51.5098 6.12743C50.911 5.73953 50.1516 5.61344 49.4439 5.65307ZM51.2533 9.08195C51.2228 9.84133 51.3777 10.6616 50.9938 11.3591C50.6779 11.9255 50.0508 12.2599 49.4046 12.3094C48.8318 12.3565 48.1636 12.2854 47.7751 11.8251C47.4989 11.4912 47.4458 10.9841 47.58 10.5742C47.683 10.2187 48.005 9.99871 48.3471 9.88733C49.1548 9.61315 50.0346 9.61131 50.8314 9.30436C50.9893 9.21774 51.1344 9.13588 51.2533 9.01708C51.2533 9.0387 51.2533 9.06032 51.2533 9.08195Z" fill="black"/>
        <path d="M57.4077 5.68062C56.8223 5.72574 56.2497 5.98986 55.8438 6.36838C55.6659 6.56217 55.4995 6.80501 55.3452 7.0429C55.3452 6.63514 55.3452 6.22738 55.3452 5.81962C54.9795 5.81962 54.6139 5.81962 54.2483 5.81962C54.2483 8.24455 54.2483 10.6695 54.2483 13.0944C54.6139 13.0944 54.9795 13.0944 55.3452 13.0944C55.3553 11.6762 55.3222 10.2563 55.3681 8.83919C55.4532 8.15293 55.7435 7.45433 56.3342 7.05219C56.861 6.66027 57.6158 6.63023 58.2233 6.86682C58.3536 6.80111 58.3011 6.5787 58.3703 6.45289C58.4182 6.27269 58.466 6.09249 58.5139 5.9123C58.1824 5.72282 57.7862 5.6583 57.4076 5.68062H57.4077Z" fill="black"/>
        <path d="M62.2027 5.65293C61.5612 5.66379 60.943 5.88964 60.4121 6.23676C60.3053 6.31704 60.1781 6.40952 60.0627 6.50795C59.7883 6.77064 59.581 7.09397 59.3808 7.43224C58.8384 8.49018 58.777 9.76031 59.1185 10.8896C59.2676 11.4071 59.5839 11.8873 59.9223 12.2723C60.0605 12.4125 60.2118 12.5286 60.3465 12.6219C60.9055 13.0207 61.5848 13.2357 62.2738 13.2565C63.1906 13.307 64.1504 13.093 64.8659 12.5024C65.0907 12.3519 65.2758 12.1733 65.4558 11.9546C65.209 11.7322 64.9621 11.5098 64.7152 11.2874C64.3346 11.7704 63.7803 12.1051 63.1671 12.2111C62.3179 12.3737 61.3322 12.1952 60.7447 11.5328C60.2509 11.0634 60.0902 10.3448 60.0746 9.68417C60.1786 9.5169 60.4396 9.65726 60.6108 9.61004C62.3227 9.61004 64.0346 9.61004 65.7465 9.61004C65.8702 8.62466 65.6419 7.57876 65.0096 6.79465C64.8578 6.56252 64.6125 6.39436 64.3777 6.22749C63.758 5.79149 62.9575 5.60716 62.2027 5.65293ZM62.5965 6.57965C63.3285 6.62302 64.0367 7.02886 64.3762 7.67268C64.5374 8.01581 64.6323 8.39596 64.6402 8.77598C63.1215 8.77598 61.6027 8.77598 60.084 8.77598C60.1552 8.24305 60.2837 7.66964 60.684 7.28396C60.7556 7.16201 60.955 7.04241 61.0714 6.92671C61.5176 6.63927 62.0697 6.54299 62.5965 6.57965Z" fill="black"/>
        <path d="M13.6001 0.267456H2.96034C1.49758 0.267456 0.300049 1.45076 0.300049 2.89717V13.4146C0.300049 14.8603 1.49758 16.0434 2.96034 16.0434H13.6001C15.0628 16.0434 16.2604 14.8603 16.2604 13.4146V2.89717C16.2604 1.45076 15.0628 0.267456 13.6001 0.267456ZM13.3583 12.3397C13.3583 12.7992 12.9775 13.1744 12.5122 13.1744H4.04751C3.58242 13.1744 3.20167 12.7992 3.20167 12.3397V3.97254C3.20167 3.51279 3.58242 3.13642 4.04751 3.13642H12.5122C12.9775 3.13642 13.3583 3.51279 13.3583 3.97254V12.3397ZM10.4571 9.82859C10.4571 10.0924 10.2395 10.3069 9.974 10.3069H6.58877C6.3226 10.3069 6.10564 10.0924 6.10564 9.82859V6.48251C6.10564 6.21963 6.3226 6.00469 6.58877 6.00469H9.974C10.2395 6.00469 10.4571 6.21963 10.4571 6.48251V9.82859Z" fill="black"/>
    </g>
    <defs>
        <clipPath id="clip0_102:48">
            <rect width="66" height="16.3103" fill="white"/>
        </clipPath>
    </defs>
</svg>
