<?xml version="1.0" encoding="UTF-8"?>
<svg width="512px" height="512px" viewBox="0 0 512 512" version="1.1" xmlns="http://www.w3.org/2000/svg" xmlns:xlink="http://www.w3.org/1999/xlink">
    <!-- Generator: Sketch 49 (51002) - http://www.bohemiancoding.com/sketch -->
    <title>YM</title>
    <desc>Created with Sketch.</desc>
    <defs></defs>
    <g id="YM" stroke="none" stroke-width="1" fill="none" fill-rule="evenodd">
        <g id="Group-7" transform="translate(45.000000, 0.000000)" fill="#13A3D7" fill-rule="nonzero">
            <path d="M0,256 L0,0 L140.454486,0.352686931 L280.908972,0.705362383 L292.923408,3.72400025 C351.17672,18.360175 393.902918,55.6851295 414.810898,110.202981 C419.843803,123.32656 424.460321,144.589486 425.308312,158.553379 L426,169.942116 L383.560662,169.942116 L341.121323,169.942116 L340.461101,164.489851 C338.267036,146.371562 332.570706,131.937786 322.361753,118.628624 C312.150969,105.317063 296.787365,94.5244134 279.764739,88.7048954 L270.610883,85.5754904 L178.214144,85.2498123 L85.8174047,84.9241456 L85.8174047,255.991793 L85.8174047,427.059452 L128.153991,427.059452 L170.490577,427.059452 L170.490577,469.529726 L170.490577,512 L85.2452887,512 L0,512 L0,256 Z" id="path3529"></path>
            <path d="M234.652482,469.613196 L234.652482,427.226381 L249.743526,426.454645 C258.043599,426.030184 268.079656,424.916637 272.045924,423.98008 C296.392845,418.231083 319.970636,399.500535 330.950423,377.185497 C340.134775,358.519415 339.803683,361.462339 340.279991,294.244464 L340.704248,234.373281 L382.848578,234.373281 L424.992908,234.373281 L424.562842,299.400833 L424.132775,364.428386 L421.186434,376.459915 C412.905836,410.273131 398.534721,436.144999 374.729711,460.094492 C355.408506,479.533044 334.058381,493.063621 308.864539,501.836451 C290.049823,508.387997 277.6656,510.564295 254.868786,511.325215 L234.652482,512 L234.652482,469.613196 Z" id="path3525"></path>
        </g>
    </g>
</svg>