<svg width="114" height="40" viewBox="0 0 114 40" fill="none" xmlns="http://www.w3.org/2000/svg">
<g clip-path="url(#clip0_115_8857)">
<path d="M18.8441 0.062423L18.4281 0.104017L18.2756 1.00523C17.9637 2.84232 17.4091 6.03816 17.1734 7.38305C17.0416 8.14561 16.8198 9.42118 16.6812 10.2253C16.3276 12.3397 15.6621 15.9931 15.26 17.9896C14.8233 20.208 14.4697 21.6291 14.241 22.1144C14.033 22.572 13.0902 23.5494 12.6465 23.7713C11.8978 24.1525 10.8995 24.2427 6.56677 24.2981C2.24095 24.3605 1.3536 24.4298 1.16643 24.7418C1.11097 24.825 0.389999 28.7973 0.265215 29.7262C0.202824 30.156 0.154297 30.7591 0.154297 31.0572V31.6118H4.47319C9.29814 31.6118 12.903 31.5217 14.0676 31.3692C15.3917 31.1959 17.1526 30.6829 17.8527 30.2669C20.0018 28.9706 21.416 27.1196 22.3657 24.3536C22.8649 22.8978 23.6898 18.7869 25.0763 10.8146C25.6586 7.48703 26.8025 1.16468 26.9134 0.651678C27.0035 0.242666 26.9273 0.138679 26.4489 0.062423C26.0746 3.12999e-05 19.4749 3.12999e-05 18.8441 0.062423Z" fill="#FF6600"/>
<path d="M38.5252 6.48858C36.9724 6.66189 36.0781 6.93225 34.5668 7.66016C32.2791 8.76934 29.9637 11.1125 28.7159 13.5943C28.4247 14.1628 27.8701 15.8543 27.6899 16.7069C27.2393 18.8075 27.3502 20.8525 28.0157 23.064C28.501 24.6584 29.0347 25.7399 29.8874 26.8768C31.1075 28.499 33.1387 30.2182 34.7055 30.953C36.7089 31.8959 38.4698 32.2286 41.0139 32.1454C42.7609 32.09 43.9048 31.8612 45.319 31.2858C46.7748 30.6896 47.4472 30.2945 48.4039 29.4764C49.624 28.4297 50.3103 27.6463 51.2254 26.2737C51.8909 25.2754 52.2445 24.5475 52.6396 23.3551C53.6171 20.3881 53.6171 18.1558 52.6327 15.1818C52.4455 14.6134 52.1751 13.9201 52.0365 13.6428C51.4126 12.4019 50.1925 10.7243 49.2704 9.85773C48.1474 8.79707 47.3363 8.20088 46.3658 7.72948C45.3328 7.23035 44.1058 6.78667 43.3432 6.62722C42.0261 6.36379 40.1127 6.30833 38.5252 6.48858ZM40.8614 14.3083C42.7401 14.6688 44.0295 15.5978 44.8198 17.1576C45.7765 19.0432 45.416 21.0674 43.8354 22.752C43.3432 23.2719 43.1699 23.4106 42.6916 23.6324C41.7003 24.1038 41.1041 24.2702 40.4316 24.2702C39.5304 24.2633 38.7609 24.0068 37.7834 23.3829C37.0278 22.8976 36.2514 22.0657 35.8909 21.3447C35.4888 20.5614 35.3294 19.2858 35.5096 18.3014C35.6136 17.7191 35.7523 17.3933 36.1197 16.8109C36.9308 15.5423 38.442 14.5232 39.8632 14.2806C40.3346 14.2043 40.3068 14.2043 40.8614 14.3083Z" fill="#FF6600"/>
<path d="M55.8216 7.279C55.3849 7.30673 54.9689 7.33446 54.9065 7.3414C54.8303 7.3414 54.7817 7.40379 54.7817 7.48698C54.7817 7.61869 56.7228 15.3969 57.4161 18.0242C57.5686 18.6135 57.9429 20.0832 58.2549 21.2825C58.5599 22.4818 59.17 24.8388 59.5998 26.5164C60.0296 28.1941 60.4802 29.9688 60.605 30.4679L60.8337 31.3691L60.3831 32.201C59.6483 33.5598 56.9724 38.5996 56.6604 39.2166C56.4524 39.6395 56.397 39.7989 56.4663 39.8405C56.5634 39.9029 63.9464 39.8891 64.8407 39.8197L65.4438 39.7781L65.631 39.4246C65.8043 39.0988 67.2254 36.617 69.7211 32.2703C73.0556 26.4679 78.546 16.8319 80.9654 12.5476C83.3086 8.40205 83.8147 7.45231 83.7384 7.37606C83.6344 7.27207 81.9776 7.21661 78.8025 7.21661L75.3987 7.20968L73.7072 10.3431C69.8736 17.4558 67.3155 22.0034 67.0174 22.253C66.9481 22.3085 66.7817 21.7261 66.1925 19.3275C65.1388 15.0156 64.4386 12.1456 63.8216 9.51817L63.2739 7.20968L59.9464 7.22354C58.1162 7.23048 56.2583 7.25821 55.8216 7.279Z" fill="#FF6600"/>
<path d="M85.943 7.27209C85.222 7.33448 85.0071 7.41767 85.0071 7.65337C85.0071 7.98613 86.7194 14.9047 88.0296 19.8267C88.1821 20.4021 88.4871 21.5806 89.7558 26.5165C89.9222 27.1612 90.2688 28.4853 90.5183 29.4558L90.969 31.2166L90.456 32.1941C90.1717 32.7348 89.5339 33.9688 89.0279 34.9393C87.9603 36.9913 86.6431 39.4593 86.4837 39.7019C86.4213 39.792 86.3866 39.8752 86.4005 39.896C86.4213 39.9099 88.4594 39.9307 90.9343 39.9445L95.4334 39.9653L95.7454 39.4107C95.9118 39.1057 96.9586 37.2825 98.0677 35.3553C103.822 25.3379 109.118 16.0763 112.023 10.9532C113.236 8.81802 113.846 7.67417 113.846 7.54246C113.846 7.27902 113.485 7.25129 109.409 7.2305L105.492 7.20277L104.452 9.12998C103.884 10.1906 103.309 11.2582 103.184 11.5078C103.052 11.7574 102.685 12.4229 102.373 12.9983C102.061 13.5667 101.638 14.3501 101.437 14.7314C101.236 15.1126 101 15.5494 100.917 15.7019C100.827 15.8544 100.556 16.3535 100.314 16.8111C98.5461 20.0832 97.2844 22.3224 97.2151 22.3224C97.1388 22.3224 97.1873 22.4887 96.4525 19.584C95.7731 16.922 95.2116 14.6204 94.1856 10.2946C93.8182 8.7279 93.4785 7.41767 93.4369 7.37608C93.3468 7.27902 86.9482 7.19583 85.943 7.27209Z" fill="#FF6600"/>
</g>
<defs>
<clipPath id="clip0_115_8857">
<rect width="113.692" height="40" fill="white" transform="translate(0.154297)"/>
</clipPath>
</defs>
</svg>
