<svg width="124" height="40" viewBox="0 0 124 40" fill="none" xmlns="http://www.w3.org/2000/svg">
<path d="M27.3774 20.5554L24.6211 17.7979V25.5995H27.3774V20.5554Z" fill="black"/>
<path d="M16.3492 12.2478H23.0632L20.3184 9.50295L20.3053 9.48994H16.7738C19.0822 9.27507 20.8876 7.33418 20.8876 4.96944C20.8876 2.46345 18.856 0.430664 16.3477 0.430664V9.5037L8.80332 1.98224C8.40367 2.18896 8.01657 2.41524 7.64101 2.65986C7.22869 2.92845 6.83249 3.22031 6.45117 3.53157L13.5913 10.6442V26.2624L19.1052 31.7752V27.8783L16.3477 25.1208L16.3492 12.2478Z" fill="black"/>
<path d="M19.1065 12.2646L19.0935 25.5802H21.8487L21.8617 15.0359L19.1065 12.2646Z" fill="black"/>
<path d="M28.5657 17.7948L25.8094 15.0396H21.8621L24.6161 17.7948H28.5657Z" fill="black"/>
<path d="M10.8357 23.6691V23.505V11.8088L4.50297 5.47607C3.90922 6.20076 3.38671 6.98632 2.9503 7.82241L8.07824 12.9516V16.8484L1.85575 10.6247C1.56047 11.7215 1.39984 12.8712 1.38721 14.0564C1.38721 14.0564 10.5268 23.3487 10.8357 23.6691Z" fill="black"/>
<path d="M1.4353 18.002V21.8999L19.106 39.5694V35.6714L1.4353 18.002Z" fill="black"/>
<path d="M32.8911 22.1152H30.1335V25.5997H27.3772C27.3772 28.108 29.41 30.1409 31.9172 30.1409C34.4243 30.1409 36.4582 28.108 36.4582 25.5997L32.8911 22.1152Z" fill="black"/>
<path d="M55.3446 25.659L53.2762 29.5914H40.3936L48.7695 13.5H41.3537L43.4222 9.56641H56.3059L47.9288 25.659H55.3446Z" fill="black"/>
<path d="M62.8254 17.5823H69.4304V21.5159H62.8254V25.6585H69.4304V29.5921H57.9617V9.56592H69.4304V13.4995H62.8254V17.5823Z" fill="black"/>
<path d="M78.6612 9.56592C81.2131 9.56592 82.6843 9.83581 83.765 10.5261C85.1466 11.3679 85.9862 13.078 85.9862 15.0005C85.9862 16.4109 85.536 17.5823 84.6356 18.4828C84.0648 19.0834 83.6145 19.3533 82.5338 19.6542C83.765 19.9241 84.306 20.194 84.9365 20.7947C85.8369 21.6354 86.2871 22.8068 86.2871 24.278C86.2871 26.1385 85.536 27.7901 84.2451 28.6606C83.2551 29.321 82.0538 29.5921 80.0118 29.5921H71.8162V9.56592H78.6612ZM76.68 17.8522H77.8802C80.1025 17.8522 81.0328 17.162 81.0328 15.5105C81.0328 13.8888 80.1025 13.1986 77.8205 13.1986H76.68V17.8522ZM76.68 26.1087H78.451C80.493 26.1087 81.3635 25.4184 81.3635 23.7968C81.3635 22.8367 81.0029 22.1453 80.2828 21.7548C79.7419 21.455 79.2618 21.3953 77.7906 21.3953H76.68V26.1087Z" fill="black"/>
<path d="M93.0389 29.5916H88.175V9.56543H94.6605C97.302 9.56543 99.2235 10.0466 100.545 11.0665C101.926 12.1484 102.707 13.9492 102.707 16.1405C102.707 19.2035 101.416 21.2145 98.833 22.2355L103.247 29.5916H97.4227L93.0389 21.845V29.5916ZM94.5996 19.1128C96.5819 19.1128 97.7821 18.0929 97.7821 16.3507C97.7821 14.7003 96.6118 13.5587 94.9006 13.5587H93.0389V19.1128H94.5996Z" fill="black"/>
<path d="M117.335 29.5919H122.612L116.037 9.56689H109.852L103.248 29.5919H108.376L109.612 25.6537H116.102L117.335 29.5919ZM110.847 21.7144L112.86 15.3024L114.868 21.7144H110.847Z" fill="black"/>
</svg>
