<svg width="512" height="116" viewBox="0 0 512 116" fill="none" xmlns="http://www.w3.org/2000/svg">
    <path fill-rule="evenodd" clip-rule="evenodd" d="M416.863 34.503C418.82 37.8796 419.46 41.7213 419.672 46.0403L419.95 51.7968V92.0503L420.234 97.8129C420.801 107.224 427.742 114.182 437.225 114.774L442.958 115.058V51.7968L443.242 46.0403C443.477 41.7697 444.112 37.8555 446.099 34.4547C448.124 30.9665 451.031 28.0725 454.528 26.0632C458.025 24.0539 461.99 23 466.023 23.0074C470.056 23.0147 474.017 24.083 477.507 26.1051C480.996 28.1271 483.893 31.0317 485.905 34.5272C487.862 37.9038 488.473 41.818 488.708 46.0403L488.992 51.7787V92.0503L489.276 97.8129C489.868 107.272 496.754 114.231 506.268 114.774L512 115.058V46.0403C512 33.836 507.153 22.1313 498.525 13.4998C489.897 4.86841 478.194 0.0169021 465.99 0.0120971C459.458 0.00520835 453 1.39237 447.046 4.0809C441.093 6.76943 435.783 10.6974 431.469 15.6025C427.153 10.6994 421.842 6.77232 415.89 4.08299C409.937 1.39365 403.48 0.00380845 396.948 0.00605547C387.392 0.00605547 378.524 2.90547 371.179 7.91299C366.697 2.91151 356.67 0.00605547 350.913 0.00605547V115.058L356.67 114.774C366.299 114.14 373.257 107.369 373.632 97.8129L373.94 92.0503V51.7968L374.224 46.0403C374.465 41.6972 375.069 37.8796 377.032 34.4789C379.059 30.9929 381.965 28.0996 385.459 26.0878C388.954 24.076 392.915 23.0162 396.948 23.0141C400.983 23.015 404.947 24.0769 408.443 26.0934C411.938 28.1099 414.842 31.0101 416.863 34.503ZM23.008 114.78L28.7646 115.058H115.052L114.768 109.32C113.989 99.8606 107.29 92.9503 97.8008 92.3342L92.0443 92.0503H40.2777L109.296 23.0081L109.012 17.2757C108.565 7.7197 101.582 0.815476 92.0443 0.289954L86.2877 0.0302167L0 0.00605547L0.283901 5.7626C1.03896 15.1313 7.83445 22.1866 17.2455 22.7302L23.008 23.0141H74.7746L5.75654 92.0564L6.04044 97.8129C6.60824 107.296 13.4521 114.164 23.008 114.774V114.78ZM328.328 16.8468C333.671 22.1885 337.909 28.5303 340.801 35.5102C343.692 42.49 345.181 49.9711 345.181 57.5262C345.181 65.0813 343.692 72.5623 340.801 79.5422C337.909 86.522 333.671 92.8638 328.328 98.2055C317.534 108.991 302.899 115.05 287.64 115.05C272.381 115.05 257.746 108.991 246.951 98.2055C224.487 75.7411 224.487 39.3112 246.951 16.8468C252.289 11.5069 258.627 7.27074 265.602 4.38015C272.577 1.48957 280.053 0.00119245 287.604 1.38676e-05C295.166 -0.00523666 302.656 1.48052 309.644 4.37229C316.632 7.26406 322.981 11.5051 328.328 16.8528V16.8468ZM312.049 33.1379C318.52 39.6134 322.155 48.3931 322.155 57.5473C322.155 66.7016 318.52 75.4813 312.049 81.9567C305.574 88.4273 296.794 92.062 287.64 92.062C278.486 92.062 269.706 88.4273 263.23 81.9567C256.76 75.4813 253.125 66.7016 253.125 57.5473C253.125 48.3931 256.76 39.6134 263.23 33.1379C269.706 26.6673 278.486 23.0326 287.64 23.0326C296.794 23.0326 305.574 26.6673 312.049 33.1379ZM166.867 1.38676e-05C174.418 0.00198574 181.894 1.49131 188.87 4.38294C195.845 7.27457 202.182 11.5119 207.519 16.8528C229.99 39.3112 229.99 75.7472 207.519 98.2055C196.725 108.991 182.09 115.05 166.831 115.05C151.572 115.05 136.937 108.991 126.143 98.2055C103.678 75.7411 103.678 39.3112 126.143 16.8468C131.48 11.5069 137.818 7.27074 144.793 4.38015C151.768 1.48957 159.244 0.00119245 166.795 1.38676e-05H166.867ZM191.24 33.1258C197.713 39.6015 201.349 48.3825 201.349 57.5382C201.349 66.694 197.713 75.475 191.24 81.9507C184.765 88.4213 175.985 92.056 166.831 92.056C157.677 92.056 148.897 88.4213 142.422 81.9507C135.951 75.4752 132.316 66.6955 132.316 57.5413C132.316 48.387 135.951 39.6073 142.422 33.1318C148.897 26.6613 157.677 23.0265 166.831 23.0265C175.985 23.0265 184.765 26.6613 191.24 33.1318V33.1258Z" fill="#2D8CFF"/>
</svg>
