<svg width="110" height="41" viewBox="0 0 110 41" fill="none" xmlns="http://www.w3.org/2000/svg">
    <g clip-path="url(#clip0_41_3454)">
        <path d="M16.1693 0.549805C25.8012 0.549805 35.4331 0.549805 45.065 0.549805C44.7437 1.1857 44.4223 1.82844 44.1078 2.4575C43.8935 2.89055 43.677 3.32359 43.4582 3.75664C43.0935 4.49055 42.7266 5.22445 42.3574 5.95835C42.1431 6.3914 41.9289 6.82217 41.7146 7.25066C41.3454 7.97545 40.9898 8.70023 40.6343 9.41818C40.4839 9.6575 40.2514 9.82844 40.0668 10.0267C32.8668 17.2267 25.6668 24.4267 18.4736 31.6267C26.5967 31.6336 34.7129 31.6199 42.836 31.6336C42.5078 32.3584 42.1385 33.0626 41.7898 33.7669C41.5642 34.2113 41.3454 34.6558 41.1266 35.0934C40.7619 35.8182 40.3995 36.543 40.0394 37.2678C39.8206 37.6985 39.6086 38.1361 39.3898 38.5601C39.0411 39.2096 38.7334 39.8797 38.3847 40.5293C25.7944 40.5293 13.2064 40.5293 0.620605 40.5293C2.08385 37.5891 3.53343 34.6421 5.01035 31.7156C5.0924 31.572 5.22231 31.4626 5.33172 31.3464C7.55394 29.1447 9.74197 26.9019 11.9847 24.7207C17.065 19.6541 22.118 14.5601 27.2189 9.51391C22.0702 9.50707 16.9215 9.51391 11.7727 9.50707C13.2155 6.5122 14.7061 3.53784 16.1693 0.549805Z" fill="#0074BB"/>
        <path d="M45.0651 0.549805C57.6395 0.556642 70.2138 0.549805 82.7882 0.556642C82.4805 1.19254 82.1591 1.82844 81.8378 2.46433C69.2634 2.46433 56.6822 2.46433 44.1078 2.4575C44.4224 1.82844 44.7437 1.1857 45.0651 0.549805ZM92.1147 0.679719C94.3437 0.474591 96.6001 0.508779 98.8087 0.891685C100.409 1.17203 101.988 1.67117 103.417 2.4575C97.2976 2.46433 91.1711 2.47117 85.0514 2.4575C87.2873 1.47972 89.6942 0.919035 92.1147 0.679719ZM42.3574 5.95835C42.7266 5.22445 43.0936 4.49055 43.4583 3.75664C56.0395 3.75664 68.6207 3.7498 81.2019 3.75664C81.0036 4.1669 80.7984 4.57032 80.6002 4.97374C81.2224 4.5498 81.8378 4.07117 82.5215 3.76348C90.1113 3.74297 97.701 3.75664 105.291 3.75664C106.036 4.39938 106.706 5.131 107.246 5.95835C85.6189 5.95835 63.9916 5.95835 42.3574 5.95835ZM40.6343 9.41818C40.9899 8.70023 41.3454 7.97545 41.7147 7.25066C63.807 7.24382 85.9061 7.25066 108.005 7.25066C108.361 7.94126 108.627 8.67288 108.846 9.42502C86.1113 9.42502 63.3694 9.42502 40.6343 9.41818ZM53.2976 10.7173C57.742 10.7173 62.1865 10.7105 66.6241 10.7173C66.2617 11.4558 65.8925 12.1874 65.5301 12.919C61.0856 12.919 56.648 12.919 52.2036 12.919C52.5591 12.1806 52.9352 11.4489 53.2976 10.7173ZM74.9249 10.7173C79.1369 10.7105 83.3489 10.7173 87.5677 10.7173C86.5899 11.2848 85.7625 12.0712 85.0241 12.919C81.1882 12.919 77.3591 12.919 73.5232 12.919C73.954 12.1601 74.4258 11.4284 74.9249 10.7173ZM96.4155 10.7173C100.662 10.7173 104.908 10.7173 109.147 10.7105C109.277 11.4421 109.345 12.1806 109.4 12.919C105.603 12.919 101.804 12.919 98.0019 12.919C97.7762 12.0096 97.154 11.2643 96.4155 10.7173ZM51.554 14.2113C55.9939 14.2113 60.436 14.2113 64.8805 14.2113C64.5181 14.9361 64.1557 15.6609 63.8001 16.3857C59.3489 16.3857 54.8976 16.3857 50.4531 16.3857C50.8224 15.6609 51.1916 14.943 51.554 14.2113ZM72.8258 14.2113C76.5591 14.2113 80.2925 14.2113 84.0258 14.2113C83.5608 14.9019 83.1506 15.6336 82.7813 16.3857C79.1301 16.3857 75.4856 16.3789 71.8343 16.3857C72.1352 15.6472 72.4657 14.9225 72.8258 14.2113ZM98.2343 14.2113C101.954 14.2113 105.68 14.2113 109.4 14.2113C109.393 14.9361 109.332 15.6678 109.243 16.3857C105.592 16.3857 101.94 16.3857 98.2959 16.3857C98.3642 15.6609 98.2822 14.9361 98.2343 14.2113ZM71.3284 17.678C74.9523 17.678 78.5762 17.6712 82.2001 17.678C81.9198 18.4028 81.6668 19.1344 81.4412 19.8797C77.8355 19.8797 74.2321 19.8797 70.6309 19.8797C70.836 19.1344 71.0822 18.4096 71.3284 17.678ZM49.8036 17.678C54.248 17.678 58.6993 17.6712 63.1437 17.6848C62.7813 18.4165 62.4121 19.1481 62.0497 19.8797C57.5984 19.8797 53.154 19.8866 48.7096 19.8729C49.0719 19.1413 49.4412 18.4096 49.8036 17.678ZM98.1933 17.678C101.81 17.678 105.434 17.678 109.051 17.678C108.935 18.4165 108.771 19.1481 108.6 19.8797C104.997 19.8797 101.393 19.8797 97.7831 19.8797C97.9335 19.1481 98.0907 18.4165 98.1933 17.678ZM48.0531 21.172C52.5044 21.172 56.9489 21.172 61.4001 21.172C61.0446 21.8968 60.6754 22.6216 60.313 23.3464C55.8685 23.3464 51.4172 23.3464 46.9728 23.3464C47.3352 22.6216 47.6907 21.8968 48.0531 21.172ZM70.2754 21.172C73.8856 21.172 77.489 21.172 81.0993 21.172C80.9215 21.89 80.7779 22.6148 80.6685 23.3464C77.0537 23.3464 73.4366 23.3464 69.8172 23.3464C69.9403 22.6148 70.1044 21.89 70.2754 21.172ZM97.4343 21.172C101.038 21.172 104.648 21.1789 108.251 21.172C108.053 21.9037 107.807 22.6284 107.554 23.3464C103.937 23.3464 100.32 23.3464 96.7027 23.3464C96.9694 22.6284 97.2224 21.9105 97.4343 21.172ZM45.236 26.8131C45.5984 26.0883 45.9608 25.3635 46.3232 24.6387C50.7745 24.6387 55.219 24.6387 59.6702 24.6387C59.3078 25.3635 58.9454 26.0883 58.5831 26.8131C54.1341 26.8131 49.6851 26.8131 45.236 26.8131ZM69.619 24.6387C73.2566 24.6387 76.8942 24.6387 80.5318 24.6387C80.5318 25.3635 80.5181 26.0951 80.6138 26.8131C76.8942 26.8131 73.1813 26.8131 69.4617 26.8131C69.4685 26.0814 69.5437 25.3635 69.619 24.6387ZM94.9249 26.8131C95.3762 26.1156 95.7796 25.3908 96.142 24.6387C99.7796 24.6387 103.424 24.6387 107.062 24.6387C106.761 25.3772 106.439 26.1019 106.077 26.8131C102.357 26.8131 98.6446 26.8131 94.9249 26.8131ZM44.5591 28.1327C49.0172 28.1327 53.4685 28.1327 57.9198 28.1327C57.5597 28.8575 57.1996 29.5823 56.8395 30.3071C52.3813 30.3071 47.9369 30.3071 43.4856 30.3071C43.8343 29.5754 44.2036 28.8575 44.5591 28.1327ZM69.4549 28.1395C73.2634 28.1327 77.0719 28.1395 80.8805 28.1327C81.1198 28.9532 81.5437 29.7327 82.1933 30.3071C78.0269 30.3071 73.8628 30.3071 69.701 30.3071C69.5643 29.5891 69.5096 28.8643 69.4549 28.1395ZM93.9608 28.1327C97.7625 28.1395 101.564 28.1327 105.366 28.1327C104.928 28.878 104.47 29.6028 103.978 30.3071C99.7933 30.3071 95.6087 30.3071 91.4241 30.3071C92.3882 29.7327 93.2292 28.9806 93.9608 28.1327ZM42.836 31.6336L42.8497 31.5925C47.301 31.6062 51.7455 31.5925 56.1899 31.5994C55.8275 32.3242 55.4651 33.0489 55.1027 33.7737C50.6651 33.7669 46.2275 33.7806 41.7899 33.7669C42.1386 33.0626 42.5078 32.3584 42.836 31.6336ZM69.9882 31.6062C80.9899 31.5994 91.9916 31.6062 102.993 31.5994C102.378 32.3652 101.722 33.0968 101.01 33.7737C90.9454 33.7737 80.8805 33.7669 70.8087 33.7806C70.4668 33.0831 70.2001 32.3515 69.9882 31.6062ZM40.0395 37.2677C40.3996 36.543 40.762 35.8182 41.1266 35.0934C45.562 35.0934 49.9996 35.0957 54.4395 35.1002C54.0794 35.8205 53.7192 36.543 53.3591 37.2677C48.9215 37.2677 44.4771 37.2746 40.0395 37.2677ZM71.5608 35.1002C80.8942 35.0934 90.2275 35.1002 99.5677 35.0934C98.6036 35.8934 97.5916 36.6387 96.4976 37.2541C88.8258 37.2814 81.154 37.2746 73.489 37.2609C72.7369 36.6592 72.101 35.9002 71.5608 35.1002ZM39.3899 38.5601C43.8275 38.5601 48.2719 38.5601 52.7096 38.5669C52.4087 39.2301 52.06 39.8729 51.7386 40.5293C47.285 40.5293 42.8338 40.5293 38.3848 40.5293C38.7335 39.8797 39.0412 39.2096 39.3899 38.5601ZM75.3078 38.5669C81.5301 38.5601 87.7454 38.5669 93.9677 38.5601C91.5813 39.6404 88.9899 40.2284 86.3916 40.4472C84.1215 40.6113 81.8172 40.5703 79.5813 40.1259C78.0907 39.8182 76.6207 39.3464 75.3078 38.5669Z" fill="#009DDA"/>
    </g>
    <defs>
        <clipPath id="clip0_41_3454">
            <rect width="108.855" height="40" fill="white" transform="translate(0.572754 0.542969)"/>
        </clipPath>
    </defs>
</svg>
