<svg width="40" height="40" viewBox="0 0 38 38" fill="none" xmlns="http://www.w3.org/2000/svg">
<g id="APTUSD" clip-path="url(#clip0_783_1206)">
<g id="Group 4673">
<path id="Vector" d="M37.5505 31H0.658812C0.295003 31 0 30.7054 0 30.3421V6.65792C0 6.29461 0.295003 6 0.658812 6H37.5506C37.9144 6 38.2094 6.29461 38.2094 6.65792V30.3421C38.2093 30.7055 37.9143 31 37.5505 31Z" fill="#C1C1C1"/>
<path id="Vector 2" d="M15.2642 30.9512L21.1087 6.09766H27.002L21.1087 30.9512H15.2642Z" fill="#BCBCBC"/>
<path id="Vector 2.2" d="M21.2058 30.9512L27.0504 6.09766H32.9437L27.0504 30.9512H21.2058Z" fill="#A9A9A9"/>
<path id="Vector 2.3" d="M3.38062 30.9512L9.2252 6.09766H15.1185L9.2252 30.9512H3.38062Z" fill="#E2E2E2"/>
</g>
<g id="APT - Aptos" clip-path="url(#clip1_783_1206)">
<path id="Vector_2" d="M9 18C9 12.4772 13.4772 8 19 8C24.5228 8 29 12.4772 29 18C29 23.5228 24.5228 28 19 28C13.4772 28 9 23.5228 9 18Z" fill="#1E1E1E"/>
<path id="Vector_3" d="M23.9177 15.0277H22.3269C22.1497 15.0277 21.9731 14.9474 21.8446 14.819L21.2017 14.0968C21.0091 13.8881 20.7034 13.872 20.4783 14.0486L20.4303 14.0968L19.884 14.7227C19.7068 14.9313 19.4337 15.0437 19.1606 15.0437H10.4663C10.2251 15.7499 10.0646 16.5043 10 17.2587H18.2286C18.3731 17.2587 18.5177 17.1945 18.6143 17.0982L19.3857 16.2957C19.4823 16.1993 19.6109 16.1352 19.7554 16.1352H19.7874C19.932 16.1352 20.0766 16.1993 20.1731 16.3117L20.816 17.034C20.9446 17.1784 21.1211 17.2587 21.2983 17.2587H28C27.9354 16.5043 27.7749 15.7499 27.5337 15.0437H23.9177V15.0277ZM18.6463 19.4576L18.0034 18.7353C17.8109 18.5267 17.5051 18.5106 17.2806 18.6872L17.232 18.7353L16.6697 19.3613C16.4932 19.5699 16.236 19.6823 15.9629 19.6823H10.1286C10.2737 20.4527 10.5309 21.2071 10.868 21.9294H14.9663C15.1109 21.9294 15.2394 21.8652 15.352 21.7689L16.1234 20.9663C16.22 20.87 16.348 20.8058 16.4932 20.8058H16.5251C16.6697 20.8058 16.8143 20.87 16.9109 20.9824L17.5537 21.7047C17.6823 21.8491 17.8589 21.9294 18.036 21.9294H27.132C27.4691 21.2232 27.7263 20.4688 27.8714 19.6823H19.1286C18.936 19.6823 18.7589 19.602 18.6463 19.4576ZM21.7966 12.4596L22.568 11.6571C22.664 11.5608 22.7926 11.4966 22.9371 11.4966H22.9697C23.1143 11.4966 23.2589 11.5608 23.3554 11.6571L23.9983 12.3794C24.1269 12.5238 24.3034 12.588 24.48 12.588H26.216C23.1943 8.60749 17.5217 7.82102 13.52 10.8225C12.8612 11.32 12.2663 11.9139 11.752 12.588H21.4109C21.5714 12.6201 21.7 12.5559 21.7966 12.4596ZM15.5772 24.1443C15.384 24.1443 15.2074 24.0641 15.0949 23.9357L14.452 23.2134C14.2588 23.0047 13.9377 22.9887 13.7286 23.1813L13.6966 23.2134L13.1343 23.8394C12.9571 24.0481 12.7 24.1604 12.4269 24.1604H12.3949C15.7857 27.7878 21.5234 27.9643 25.1714 24.5456C25.316 24.4172 25.4446 24.2727 25.5891 24.1283H15.5772V24.1443Z" fill="white"/>
</g>
</g>
<defs>
<clipPath id="clip0_783_1206">
<rect width="38.2094" height="38.21" fill="white"/>
</clipPath>
<clipPath id="clip1_783_1206">
<rect width="20" height="20" fill="white" transform="translate(9 8)"/>
</clipPath>
</defs>
</svg>
