<svg width="40" height="40" viewBox="0 0 38 38" fill="none" xmlns="http://www.w3.org/2000/svg">
    <g id="ARBUSD" clip-path="url(#clip0_783_1232)">
        <g id="Group 4673">
            <path id="Vector" d="M37.5505 31.42H0.658812C0.295003 31.42 0 31.1254 0 30.7621V7.07797C0 6.71465 0.295003 6.42004 0.658812 6.42004H37.5506C37.9144 6.42004 38.2094 6.71465 38.2094 7.07797V30.7621C38.2093 31.1255 37.9143 31.42 37.5505 31.42Z" fill="#C1C1C1"/>
            <path id="Vector 2" d="M15.2642 31.3712L21.1087 6.5177H27.002L21.1087 31.3712H15.2642Z" fill="#BCBCBC"/>
            <path id="Vector 2.2" d="M21.2058 31.3712L27.0504 6.5177H32.9437L27.0504 31.3712H21.2058Z" fill="#A9A9A9"/>
            <path id="Vector 2.3" d="M3.38062 31.3712L9.2252 6.5177H15.1185L9.2252 31.3712H3.38062Z" fill="#E2E2E2"/>
        </g>
        <g id="ARBI - Arbitrum" clip-path="url(#clip1_783_1232)">
            <path id="Vector_2" d="M9 18.42C9 12.8972 13.4772 8.42004 19 8.42004V8.42004C24.5228 8.42004 29 12.8972 29 18.42V18.42C29 23.9429 24.5228 28.42 19 28.42V28.42C13.4772 28.42 9 23.9429 9 18.42V18.42Z" fill="#213147"/>
            <path id="Vector_3" d="M19.9572 19.3986L19.3322 21.1022C19.3131 21.1504 19.3131 21.204 19.3322 21.2522L20.4036 24.1879L21.65 23.4736L20.1572 19.3986C20.1494 19.3784 20.1357 19.361 20.1178 19.3487C20.1 19.3365 20.0788 19.3299 20.0572 19.3299C20.0355 19.3299 20.0144 19.3365 19.9965 19.3487C19.9787 19.361 19.965 19.3784 19.9572 19.3986ZM21.2072 16.5272C21.1994 16.507 21.1857 16.4896 21.1678 16.4773C21.15 16.4651 21.1288 16.4585 21.1072 16.4585C21.0855 16.4585 21.0644 16.4651 21.0465 16.4773C21.0287 16.4896 21.015 16.507 21.0072 16.5272L20.3822 18.2307C20.3631 18.2789 20.3631 18.3326 20.3822 18.3807L22.1429 23.1879L23.3858 22.4736L21.2072 16.5236V16.5272Z" fill="#12AAFF"/>
            <path id="Vector_4" d="M18.9999 12.7093C19.0321 12.7093 19.0606 12.7165 19.0892 12.7343L23.9106 15.5379C23.9376 15.5535 23.9601 15.5758 23.9757 15.6028C23.9914 15.6297 23.9997 15.6603 23.9999 15.6915V21.145C23.9997 21.1762 23.9914 21.2068 23.9757 21.2337C23.9601 21.2606 23.9376 21.283 23.9106 21.2986L19.0892 24.1129C19.062 24.1282 19.0312 24.1363 18.9999 24.1363C18.9687 24.1363 18.9379 24.1282 18.9106 24.1129L14.0892 21.3022C14.0622 21.2866 14.0398 21.2642 14.0241 21.2373C14.0085 21.2103 14.0001 21.1798 13.9999 21.1486V15.6915C13.9999 15.6272 14.0356 15.57 14.0892 15.5379L18.9106 12.7343C18.9373 12.7168 18.9681 12.707 18.9999 12.7057V12.7093ZM18.9999 11.9915C18.8321 11.9915 18.6606 12.0379 18.5106 12.1236L13.7749 14.8486C13.6266 14.9338 13.5033 15.0566 13.4174 15.2045C13.3315 15.3525 13.2861 15.5204 13.2856 15.6915V21.145C13.2856 21.4915 13.4714 21.8165 13.7749 21.9915L18.5106 24.7165C18.6594 24.8023 18.8282 24.8476 18.9999 24.8476C19.1717 24.8476 19.3405 24.8023 19.4892 24.7165L24.2249 21.9915C24.3743 21.9065 24.4983 21.7833 24.5843 21.6346C24.6703 21.4858 24.7151 21.3168 24.7142 21.145V15.6915C24.7142 15.345 24.5285 15.02 24.2249 14.8486L19.4892 12.1236C19.3392 12.0379 19.1678 11.9915 18.9999 11.9915Z" fill="#9DCCED"/>
            <path id="Vector_5" d="M15.8679 23.195L16.3036 22.0057L17.1786 22.7307L16.3608 23.4807L15.8679 23.195Z" fill="#213147"/>
            <path id="Vector_6" d="M18.6037 15.2058H17.4001C17.3557 15.2065 17.3126 15.2209 17.2768 15.2472C17.2409 15.2734 17.2141 15.3101 17.2001 15.3522L14.6287 22.4701L15.8679 23.1951L18.7037 15.3558C18.7287 15.2844 18.6787 15.2058 18.6001 15.2058H18.6037ZM20.7037 15.2058H19.5037C19.4597 15.2062 19.4169 15.2202 19.3811 15.2457C19.3454 15.2713 19.3183 15.3072 19.3037 15.3487L16.3608 23.4701L17.6037 24.1951L20.8037 15.3522C20.8101 15.336 20.8124 15.3184 20.8105 15.301C20.8085 15.2836 20.8023 15.267 20.7925 15.2525C20.7826 15.2381 20.7693 15.2263 20.7539 15.2181C20.7384 15.21 20.7212 15.2058 20.7037 15.2058Z" fill="white"/>
        </g>
    </g>
    <defs>
        <clipPath id="clip0_783_1232">
            <rect width="38.2094" height="38.21" fill="white" transform="translate(0 0.420044)"/>
        </clipPath>
        <clipPath id="clip1_783_1232">
            <rect width="20" height="20" fill="white" transform="translate(9 8.42004)"/>
        </clipPath>
    </defs>
</svg>
