<svg width="40" height="40" viewBox="0 0 38 38" fill="none" xmlns="http://www.w3.org/2000/svg">
    <g id="ARUSD" clip-path="url(#clip0_783_1215)">
        <g id="Group 4673">
            <path id="Vector" d="M37.5505 31.21H0.658812C0.295003 31.21 0 30.9154 0 30.552V6.86789C0 6.50457 0.295003 6.20996 0.658812 6.20996H37.5506C37.9144 6.20996 38.2094 6.50457 38.2094 6.86789V30.552C38.2093 30.9154 37.9143 31.21 37.5505 31.21Z" fill="#C1C1C1"/>
            <path id="Vector 2" d="M15.2642 31.1612L21.1087 6.30762H27.002L21.1087 31.1612H15.2642Z" fill="#BCBCBC"/>
            <path id="Vector 2.2" d="M21.2058 31.1612L27.0504 6.30762H32.9437L27.0504 31.1612H21.2058Z" fill="#A9A9A9"/>
            <path id="Vector 2.3" d="M3.38062 31.1612L9.2252 6.30762H15.1185L9.2252 31.1612H3.38062Z" fill="#E2E2E2"/>
        </g>
        <g id="AR - Arweave">
            <circle id="Ellipse 35" cx="19" cy="18.21" r="10" fill="#D9D9D9"/>
            <g id="arweave-ar-logo 1" clip-path="url(#clip1_783_1215)">
                <path id="Vector (Stroke)" fill-rule="evenodd" clip-rule="evenodd" d="M19 11.4387C15.2603 11.4387 12.2288 14.4703 12.2288 18.2099C12.2288 21.9496 15.2603 24.9812 19 24.9812C22.7396 24.9812 25.7712 21.9496 25.7712 18.2099C25.7712 14.4703 22.7396 11.4387 19 11.4387ZM10.9788 18.2099C10.9788 13.7799 14.57 10.1887 19 10.1887C23.43 10.1887 27.0212 13.7799 27.0212 18.2099C27.0212 22.6399 23.43 26.2312 19 26.2312C14.57 26.2312 10.9788 22.6399 10.9788 18.2099Z" fill="#222326"/>
                <path id="Vector_2" d="M20.4088 20.8766C20.3585 20.8263 20.3585 20.7256 20.3082 20.625C20.3082 20.5244 20.2579 20.4238 20.2579 20.3231C20.1573 20.4238 20.0566 20.4741 19.956 20.5747C19.8554 20.6753 19.7044 20.7256 19.6038 20.776C19.4529 20.8263 19.3522 20.8766 19.151 20.9269C19 20.9772 18.7988 20.9772 18.6478 20.9772C18.3459 20.9772 18.0944 20.9269 17.8428 20.8263C17.5912 20.7256 17.39 20.625 17.1887 20.4741C16.9875 20.3231 16.8868 20.1219 16.7862 19.9206C16.6856 19.7193 16.6353 19.4678 16.6353 19.2162C16.6353 18.6124 16.8868 18.1093 17.3397 17.8074C17.7925 17.4552 18.4969 17.3043 19.4026 17.3043H20.2579V16.9521C20.2579 16.6502 20.1573 16.4489 20.0063 16.298C19.8051 16.147 19.5535 16.0464 19.2013 16.0464C18.8994 16.0464 18.6981 16.0967 18.5472 16.2477C18.3963 16.3986 18.3459 16.5495 18.3459 16.7508H16.8365C16.8365 16.4992 16.8868 16.2477 16.9875 16.0464C17.0881 15.8451 17.239 15.6439 17.4906 15.4426C17.6919 15.2917 17.9434 15.1407 18.2453 15.0401C18.5472 14.9395 18.8994 14.8892 19.3019 14.8892C19.6541 14.8892 19.956 14.9395 20.2579 15.0401C20.5598 15.1407 20.8114 15.2414 21.0629 15.4426C21.2642 15.5936 21.4654 15.8451 21.5661 16.0967C21.6667 16.3483 21.7673 16.6502 21.7673 17.0024V19.5181C21.7673 19.82 21.7673 20.0716 21.8176 20.2728C21.868 20.4741 21.9183 20.6753 21.9686 20.776V20.8766H20.4088ZM18.9497 19.82C19.1007 19.82 19.2516 19.82 19.3522 19.7697C19.5032 19.7193 19.6038 19.669 19.7044 19.6187C19.8051 19.5684 19.9057 19.5181 19.956 19.4175C20.0063 19.3671 20.107 19.2665 20.1573 19.2162V18.2099H19.4026C19.151 18.2099 18.9497 18.2099 18.7988 18.2602C18.6478 18.3105 18.4969 18.3609 18.3963 18.4615C18.2956 18.5621 18.195 18.6124 18.1447 18.7634C18.0944 18.864 18.0944 19.0149 18.0944 19.1156C18.0944 19.3168 18.1447 19.4678 18.2956 19.6187C18.4466 19.7697 18.6981 19.82 18.9497 19.82Z" fill="#222326"/>
            </g>
        </g>
    </g>
    <defs>
        <clipPath id="clip0_783_1215">
            <rect width="38.2094" height="38.21" fill="white" transform="translate(0 0.209961)"/>
        </clipPath>
        <clipPath id="clip1_783_1215">
            <rect width="16" height="16" fill="white" transform="translate(11 10.21)"/>
        </clipPath>
    </defs>
</svg>
