<svg width="40" height="40" viewBox="0 0 38 38" fill="none" xmlns="http://www.w3.org/2000/svg">
    <g id="GRTUSD" clip-path="url(#clip0_783_1268)">
        <g id="Group 4673">
            <path id="Vector"
                  d="M37.5505 31.84H0.658812C0.295003 31.84 0 31.5454 0 31.182V7.49789C0 7.13457 0.295003 6.83997 0.658812 6.83997H37.5506C37.9144 6.83997 38.2094 7.13457 38.2094 7.49789V31.182C38.2093 31.5454 37.9143 31.84 37.5505 31.84Z"
                  fill="#C1C1C1"/>
            <path id="Vector 2" d="M15.2642 31.7912L21.1087 6.93762H27.002L21.1087 31.7912H15.2642Z" fill="#BCBCBC"/>
            <path id="Vector 2.2" d="M21.2058 31.7912L27.0504 6.93762H32.9437L27.0504 31.7912H21.2058Z" fill="#A9A9A9"/>
            <path id="Vector 2.3" d="M3.38062 31.7912L9.2252 6.93762H15.1185L9.2252 31.7912H3.38062Z" fill="#E2E2E2"/>
        </g>
        <g id="GRT - The Graph" clip-path="url(#clip1_783_1268)">
            <g id="Group">
                <path id="Vector_2"
                      d="M19 28.84C24.5228 28.84 29 24.3628 29 18.84C29 13.3171 24.5228 8.83997 19 8.83997C13.4772 8.83997 9 13.3171 9 18.84C9 24.3628 13.4772 28.84 19 28.84Z"
                      fill="#5942CC"/>
                <g id="Group_2">
                    <path id="Vector_3"
                          d="M21.9419 21.0543C22.059 21.1715 22.1249 21.3305 22.1249 21.4962C22.1249 21.6619 22.059 21.8209 21.9419 21.9381L19.4419 24.4381C19.3842 24.4978 19.3153 24.5454 19.239 24.5782C19.1628 24.6109 19.0807 24.6282 18.9978 24.6289C18.9148 24.6296 18.8325 24.6138 18.7557 24.5824C18.6788 24.5509 18.6091 24.5045 18.5504 24.4458C18.4917 24.3872 18.4453 24.3174 18.4139 24.2406C18.3824 24.1638 18.3666 24.0815 18.3673 23.9985C18.3681 23.9155 18.3853 23.8335 18.4181 23.7572C18.4508 23.681 18.4984 23.612 18.5581 23.5543L21.0581 21.0543C21.1753 20.9372 21.3343 20.8713 21.5 20.8713C21.6657 20.8713 21.8247 20.9372 21.9419 21.0543ZM18.375 13.3712C18.8675 13.3712 19.3551 13.4682 19.8101 13.6567C20.265 13.8451 20.6784 14.1213 21.0267 14.4696C21.3749 14.8178 21.6511 15.2312 21.8395 15.6862C22.028 16.1411 22.125 16.6288 22.125 17.1212C22.125 17.6137 22.028 18.1013 21.8395 18.5563C21.6511 19.0112 21.3749 19.4246 21.0267 19.7729C20.6784 20.1211 20.265 20.3973 19.8101 20.5858C19.3551 20.7742 18.8675 20.8712 18.375 20.8712C17.3804 20.8712 16.4266 20.4761 15.7233 19.7729C15.0201 19.0696 14.625 18.1158 14.625 17.1212C14.625 16.1267 15.0201 15.1728 15.7233 14.4696C16.4266 13.7663 17.3804 13.3712 18.375 13.3712ZM18.375 14.6212C17.712 14.6212 17.0761 14.8846 16.6072 15.3534C16.1384 15.8223 15.875 16.4582 15.875 17.1212C15.875 17.7843 16.1384 18.4201 16.6072 18.889C17.0761 19.3578 17.712 19.6212 18.375 19.6212C19.038 19.6212 19.6739 19.3578 20.1428 18.889C20.6116 18.4201 20.875 17.7843 20.875 17.1212C20.875 16.4582 20.6116 15.8223 20.1428 15.3534C19.6739 14.8846 19.038 14.6212 18.375 14.6212ZM22.75 13.3712C22.9158 13.3712 23.0747 13.4371 23.1919 13.5543C23.3092 13.6715 23.375 13.8305 23.375 13.9962C23.375 14.162 23.3092 14.3209 23.1919 14.4382C23.0747 14.5554 22.9158 14.6212 22.75 14.6212C22.5842 14.6212 22.4253 14.5554 22.3081 14.4382C22.1908 14.3209 22.125 14.162 22.125 13.9962C22.125 13.8305 22.1908 13.6715 22.3081 13.5543C22.4253 13.4371 22.5842 13.3712 22.75 13.3712Z"
                          fill="white"/>
                </g>
            </g>
        </g>
    </g>
    <defs>
        <clipPath id="clip0_783_1268">
            <rect width="38.2094" height="38.21" fill="white" transform="translate(0 0.839966)"/>
        </clipPath>
        <clipPath id="clip1_783_1268">
            <rect width="20" height="20" fill="white" transform="translate(9 8.83997)"/>
        </clipPath>
    </defs>
</svg>
