<svg width="40" height="40" viewBox="0 0 38 38" fill="none" xmlns="http://www.w3.org/2000/svg">
    <g id="HBARUSD" clip-path="url(#clip0_783_1284)">
        <g id="Group 4673">
            <path id="Vector"
                  d="M37.5505 31.05H0.658812C0.295003 31.05 0 30.7554 0 30.3921V6.70797C0 6.34465 0.295003 6.05005 0.658812 6.05005H37.5506C37.9144 6.05005 38.2094 6.34465 38.2094 6.70797V30.3921C38.2093 30.7555 37.9143 31.05 37.5505 31.05Z"
                  fill="#C1C1C1"/>
            <path id="Vector 2" d="M15.2642 31.0012L21.1087 6.14771H27.002L21.1087 31.0012H15.2642Z" fill="#BCBCBC"/>
            <path id="Vector 2.2" d="M21.2058 31.0012L27.0504 6.14771H32.9437L27.0504 31.0012H21.2058Z" fill="#A9A9A9"/>
            <path id="Vector 2.3" d="M3.38062 31.0012L9.2252 6.14771H15.1185L9.2252 31.0012H3.38062Z" fill="#E2E2E2"/>
        </g>
        <g id="HBAR - Hedera">
            <g id="Layer 2">
                <g id="Layer 1">
                    <path id="Vector_2"
                          d="M19 8.05005C13.4771 8.05005 9 12.5272 9 18.05C9 23.5729 13.4771 28.05 19 28.05C24.5229 28.05 29 23.5729 29 18.05C29 12.5272 24.5229 8.05005 19 8.05005Z"
                          fill="black"/>
                    <path id="Vector_3"
                          d="M23.0651 22.375H21.7951V19.675H16.2051V22.375H14.9351V13.62H16.2051V16.255H21.7951V13.62H23.0651L23.0651 22.375ZM16.2651 18.665H21.8551V17.27H16.2651V18.665Z"
                          fill="white"/>
                </g>
            </g>
        </g>
    </g>
    <defs>
        <clipPath id="clip0_783_1284">
            <rect width="38.2094" height="38.21" fill="white" transform="translate(0 0.0500488)"/>
        </clipPath>
    </defs>
</svg>
