<svg width="40" height="40" viewBox="0 0 38 38" fill="none" xmlns="http://www.w3.org/2000/svg">
    <g id="IMXUSD" clip-path="url(#clip0_783_1300)">
        <g id="Group 4673">
            <path id="Vector"
                  d="M37.5505 31.26H0.658812C0.295003 31.26 0 30.9654 0 30.6021V6.91793C0 6.55461 0.295003 6.26001 0.658812 6.26001H37.5506C37.9144 6.26001 38.2094 6.55461 38.2094 6.91793V30.6021C38.2093 30.9655 37.9143 31.26 37.5505 31.26Z"
                  fill="#C1C1C1"/>
            <path id="Vector 2" d="M15.2642 31.2112L21.1087 6.35767H27.002L21.1087 31.2112H15.2642Z" fill="#BCBCBC"/>
            <path id="Vector 2.2" d="M21.2058 31.2112L27.0504 6.35767H32.9437L27.0504 31.2112H21.2058Z" fill="#A9A9A9"/>
            <path id="Vector 2.3" d="M3.38062 31.2112L9.2252 6.35767H15.1185L9.2252 31.2112H3.38062Z" fill="#E2E2E2"/>
        </g>
        <g id="IMX - Immutable">
            <circle id="Ellipse 34" cx="19" cy="18.26" r="10" fill="#D9D9D9"/>
            <path id="Fill-15" fill-rule="evenodd" clip-rule="evenodd"
                  d="M24.5628 19.0471C24.5601 19.4257 24.3563 19.6911 24.0323 19.8773C22.7757 20.5999 21.5211 21.3259 20.2655 22.0505C20.0362 22.1828 19.8064 22.3146 19.5601 22.4563C19.5563 22.3943 19.5515 22.3526 19.5514 22.3108C19.5509 21.9507 19.555 21.5905 19.5486 21.2305C19.5469 21.1281 19.581 21.0734 19.6695 21.0226C20.8114 20.3676 21.949 19.705 23.0926 19.0531C23.2962 18.9371 23.3855 18.7951 23.3838 18.5564C23.3749 17.3133 23.3797 16.0701 23.3797 14.8268V14.6094C23.678 14.7895 23.9571 14.9371 24.2126 15.1181C24.4455 15.283 24.5628 15.5331 24.5638 15.8207C24.5678 16.8962 24.5704 17.9717 24.5628 19.0471ZM24.5548 21.3475C24.5281 21.6802 24.3329 21.9165 24.0449 22.0821C22.9421 22.7162 21.8411 23.3532 20.7393 23.989C20.3935 24.1886 20.0475 24.3882 19.7014 24.5874C19.6597 24.6114 19.6165 24.6324 19.5599 24.6622C19.5564 24.6048 19.5516 24.5629 19.5515 24.5209C19.5509 24.1558 19.5533 23.7908 19.5495 23.4257C19.5486 23.3432 19.5694 23.2922 19.6455 23.2484C21.2523 22.3238 22.8575 21.3965 24.4632 20.4699C24.4877 20.4557 24.5142 20.445 24.5598 20.423C24.5598 20.7471 24.5788 21.049 24.5548 21.3475ZM17.3179 14.6943C17.1249 14.5808 16.9601 14.5819 16.7671 14.6947C15.6859 15.3263 14.6 15.9499 13.5156 16.5759C13.4696 16.6024 13.4224 16.6268 13.3414 16.671C13.3701 16.2588 13.282 15.8701 13.4224 15.4939C13.4992 15.2882 13.6424 15.1332 13.8322 15.0235C14.737 14.5005 15.6413 13.9764 16.5481 13.4567C16.8791 13.2669 17.2164 13.2715 17.5473 13.4621C18.5768 14.055 19.6057 14.6489 20.6331 15.2457C20.677 15.2712 20.7315 15.3275 20.7322 15.3703C20.7397 15.7936 20.7367 16.217 20.7367 16.6714C20.3631 16.4557 20.018 16.2567 19.673 16.0575C18.8874 15.604 18.0997 15.1541 17.3179 14.6943ZM18.3683 22.4622C18.2689 22.4056 18.1968 22.365 18.1252 22.3237C17.2158 21.799 16.3073 21.2725 15.3956 20.7516C15.2972 20.6954 15.2605 20.6354 15.2618 20.5208C15.2682 19.9289 15.2659 19.337 15.2635 18.7452C15.2631 18.6651 15.2759 18.6097 15.3551 18.5655C15.6908 18.3782 16.0221 18.1829 16.3553 17.991C16.3794 17.9771 16.4055 17.9667 16.4498 17.9457V18.6102C16.4498 18.9704 16.4555 19.3305 16.4475 19.6904C16.4431 19.8957 16.5218 20.034 16.701 20.135C17.2163 20.4256 17.7249 20.728 18.2407 21.0174C18.3422 21.0744 18.3729 21.1375 18.3709 21.2495C18.3641 21.6431 18.3683 22.0371 18.3683 22.4622ZM18.3684 24.667C18.3082 24.6359 18.2627 24.6144 18.2192 24.5894C16.7883 23.7641 15.3598 22.9344 13.9252 22.1156C13.5227 21.8859 13.3394 21.5589 13.3432 21.0996C13.3511 20.1228 13.3491 19.1458 13.3442 18.169C13.3418 17.7278 13.5215 17.4086 13.9085 17.1884C14.9158 16.6156 15.9177 16.0334 16.9197 15.4512C17.0062 15.4008 17.0696 15.3926 17.1597 15.4468C17.5058 15.6548 17.8577 15.8532 18.2257 16.0657C18.1557 16.1074 18.1024 16.1398 18.0485 16.1709C16.9638 16.7973 15.8803 17.4255 14.7932 18.0475C14.6149 18.1495 14.5323 18.2815 14.5339 18.4882C14.5395 19.2579 14.5401 20.0276 14.5336 20.7972C14.5319 21.0101 14.6161 21.1444 14.7995 21.2493C15.9467 21.9052 17.0894 22.5692 18.2358 23.2265C18.3328 23.2821 18.3742 23.3397 18.3716 23.4561C18.3631 23.8504 18.3684 24.2451 18.3684 24.667ZM18.5671 12.3006C18.8446 12.1645 19.1377 12.1737 19.4067 12.3269C20.3404 12.8589 21.2714 13.3955 22.1984 13.9388C22.4968 14.1137 22.6491 14.3949 22.6507 14.7394C22.6563 15.9477 22.654 17.1561 22.6508 18.3644C22.6507 18.4092 22.6217 18.4742 22.5858 18.4955C22.2267 18.7094 21.8631 18.9161 21.4695 19.143V18.9529C21.4695 17.7101 21.466 16.4672 21.4726 15.2244C21.4738 14.9857 21.3913 14.8319 21.1796 14.7115C20.0953 14.0955 19.0175 13.4681 17.9377 12.8444C17.891 12.8175 17.8453 12.7887 17.7747 12.7459C18.052 12.5885 18.3025 12.4303 18.5671 12.3006ZM19 8.26001C13.4772 8.26001 9 12.7372 9 18.26C9 23.7828 13.4772 28.26 19 28.26C24.5228 28.26 29 23.7828 29 18.26C29 12.7372 24.5228 8.26001 19 8.26001Z"
                  fill="black"/>
        </g>
    </g>
    <defs>
        <clipPath id="clip0_783_1300">
            <rect width="38.2094" height="38.21" fill="white" transform="translate(0 0.26001)"/>
        </clipPath>
    </defs>
</svg>
