<svg width="40" height="40" viewBox="0 0 38 38" fill="none" xmlns="http://www.w3.org/2000/svg">
    <g id="INJUSD" clip-path="url(#clip0_783_1312)">
        <g id="Group 4673">
            <path id="Vector"
                  d="M37.5505 31.47H0.658812C0.295003 31.47 0 31.1754 0 30.812V7.12789C0 6.76458 0.295003 6.46997 0.658812 6.46997H37.5506C37.9144 6.46997 38.2094 6.76458 38.2094 7.12789V30.812C38.2093 31.1754 37.9143 31.47 37.5505 31.47Z"
                  fill="#C1C1C1"/>
            <path id="Vector 2" d="M15.2642 31.4212L21.1087 6.56763H27.002L21.1087 31.4212H15.2642Z" fill="#BCBCBC"/>
            <path id="Vector 2.2" d="M21.2058 31.4212L27.0504 6.56763H32.9437L27.0504 31.4212H21.2058Z" fill="#A9A9A9"/>
            <path id="Vector 2.3" d="M3.38062 31.4212L9.2252 6.56763H15.1185L9.2252 31.4212H3.38062Z" fill="#E2E2E2"/>
        </g>
        <g id="INJ - Injective" clip-path="url(#clip1_783_1312)">
            <circle id="Ellipse 29" cx="19" cy="18.47" r="10" fill="#1C1F21"/>
            <path id="Vector_2"
                  d="M14.0392 14.0782C14.1185 13.9753 14.1978 13.8765 14.2851 13.7778L14.3009 13.7654L14.3287 13.7408L14.3366 13.7325C14.6208 13.4597 14.9554 13.2497 15.3202 13.1153C15.774 12.9527 16.2627 12.9259 16.7305 13.038C17.1983 13.1501 17.6263 13.3964 17.9655 13.749C19.0482 14.7983 18.953 16.4936 18.0844 17.6169C16.9978 19.2957 15.1219 21.6371 17.7196 23.7356C18.1836 24.11 18.5326 24.4228 20 24.8631C19.0402 25.0482 18.1479 24.9865 17.1564 24.7273C16.4544 24.3158 15.3519 23.4352 14.9751 22.246C14.408 20.4438 15.9746 17.7527 16.7321 16.7158C17.7711 15.2756 16.0896 13.7243 14.8522 15.4607C14.2057 16.366 13.0715 18.9213 13.4641 20.8223C13.6981 21.8963 14.0035 22.6822 15.2171 23.7603C14.991 23.6204 14.7729 23.464 14.5627 23.2912C13.344 22.1238 12.6087 20.512 12.5111 18.7942C12.4135 17.0763 12.9612 15.386 14.0392 14.0782Z"
                  fill="#01ABFC"/>
            <path id="Vector_3"
                  d="M23.9608 22.8561C23.8815 22.9589 23.8022 23.0576 23.7149 23.1564L23.6991 23.1687L23.6713 23.1934L23.6634 23.2016C23.3792 23.4743 23.0446 23.6842 22.6798 23.8186C21.7954 24.1476 20.8079 23.942 20.0345 23.1852C18.9518 22.1363 19.051 20.4417 19.9156 19.3188C21.0022 17.6406 22.8781 15.3003 20.2804 13.2025C19.8164 12.8283 19.4674 12.5157 18 12.0755C18.9456 11.8983 19.9177 11.9447 20.8436 12.2113C21.5456 12.6226 22.6481 13.5028 23.0249 14.6915C23.592 16.4931 22.0254 19.1831 21.2679 20.2196C20.2289 21.6592 21.9104 23.2098 23.1478 21.4741C23.7943 20.5692 24.9285 18.0149 24.5359 16.1147C24.3019 15.0411 23.9965 14.2555 22.7829 13.1779C23.009 13.3177 23.2271 13.474 23.4373 13.6468C24.6559 14.8137 25.3913 16.4248 25.4889 18.142C25.5865 19.8592 25.0388 21.5488 23.9608 22.8561Z"
                  fill="#01ABFC"/>
        </g>
    </g>
    <defs>
        <clipPath id="clip0_783_1312">
            <rect width="38.2094" height="38.21" fill="white" transform="translate(0 0.469971)"/>
        </clipPath>
        <clipPath id="clip1_783_1312">
            <rect width="20" height="20" fill="white" transform="translate(9 8.46997)"/>
        </clipPath>
    </defs>
</svg>
