<svg width="40" height="40" viewBox="0 0 38 38" fill="none" xmlns="http://www.w3.org/2000/svg">
    <g id="JASMYUSD" clip-path="url(#clip0_783_1326)">
        <g id="Group 4673">
            <path id="Vector"
                  d="M37.5505 31.6799H0.658812C0.295003 31.6799 0 31.3853 0 31.022V7.33786C0 6.97454 0.295003 6.67993 0.658812 6.67993H37.5506C37.9144 6.67993 38.2094 6.97454 38.2094 7.33786V31.022C38.2093 31.3854 37.9143 31.6799 37.5505 31.6799Z"
                  fill="#C1C1C1"/>
            <path id="Vector 2" d="M15.2642 31.6311L21.1087 6.77759H27.002L21.1087 31.6311H15.2642Z" fill="#BCBCBC"/>
            <path id="Vector 2.2" d="M21.2058 31.6311L27.0504 6.77759H32.9437L27.0504 31.6311H21.2058Z" fill="#A9A9A9"/>
            <path id="Vector 2.3" d="M3.38062 31.6311L9.2252 6.77759H15.1185L9.2252 31.6311H3.38062Z" fill="#E2E2E2"/>
        </g>
        <g id="JasmyCoin" clip-path="url(#clip1_783_1326)">
            <path id="Vector_2"
                  d="M9 18.6799C9 13.1571 13.4772 8.67993 19 8.67993V8.67993C24.5228 8.67993 29 13.1571 29 18.6799V18.6799C29 24.2028 24.5228 28.6799 19 28.6799V28.6799C13.4772 28.6799 9 24.2028 9 18.6799V18.6799Z"
                  fill="#F0F3FA"/>
            <path id="Vector_3" fill-rule="evenodd" clip-rule="evenodd"
                  d="M16.088 10.6923C16.5685 10.5173 17.0695 10.3838 17.586 10.2973V10.7328H18.306V10.2078C18.7766 10.1698 19.2496 10.1707 19.72 10.2103V10.7328H20.4405V10.3018C20.9605 10.3908 21.465 10.5268 21.9485 10.7053L21.77 11.0758L22.4195 11.3883L22.6135 10.9843C23.0675 11.1978 23.4995 11.4508 23.9055 11.7378L23.632 12.0528L24.1765 12.5253L24.4765 12.1793C24.8665 12.5083 25.2265 12.8723 25.5525 13.2658L25.2195 13.4793L25.6085 14.0858L25.989 13.8413C26.274 14.2513 26.523 14.6883 26.733 15.1463L26.377 15.2648L26.6045 15.9483L27.005 15.8153C27.1755 16.2918 27.305 16.7883 27.3885 17.3003H26.999V18.0313L27.475 18.0208C27.5127 18.5128 27.508 19.0071 27.461 19.4983L27.4575 19.4808H26.9825V20.2118L27.364 20.2038C27.2733 20.705 27.1375 21.197 26.958 21.6738L26.634 21.5103L26.304 22.1628L26.674 22.3398C26.459 22.7908 26.2045 23.2198 25.9165 23.6228L25.6675 23.3703L25.147 23.8833L25.468 24.1953C25.1441 24.5749 24.7876 24.9254 24.4025 25.2428L24.233 24.9353L23.593 25.2878L23.821 25.6818C23.4294 25.952 23.0158 26.1889 22.5845 26.3898L22.501 26.0718L21.794 26.2578L21.9115 26.6683C21.425 26.8458 20.9175 26.9803 20.394 27.0668V26.6853H19.704V27.1518C19.225 27.191 18.7434 27.19 18.2645 27.1488V26.6928H17.5745V27.0613C17.0781 26.9776 16.5902 26.8495 16.1165 26.6788L16.2375 26.2578L15.5305 26.0718L15.4435 26.4028C14.9665 26.1826 14.5108 25.9186 14.0825 25.6143L14.297 25.3793L13.823 24.9473L13.5725 25.2223C13.1889 24.9036 12.8339 24.5519 12.5115 24.1713L12.7895 23.9688L12.366 23.3858L12.069 23.6018C11.776 23.19 11.5204 22.753 11.305 22.2958L11.6385 22.1968L11.433 21.5063L11.025 21.6278C10.853 21.1623 10.72 20.6778 10.6315 20.1783L11.0465 20.1578L11.0115 19.4378L10.5355 19.4618C10.4904 18.9669 10.4883 18.469 10.529 17.9738L10.964 18.0153L11.031 17.2978L10.6185 17.2588C10.7035 16.7528 10.8335 16.2618 11.0035 15.7903L11.3715 15.9548L11.6655 15.2968L11.2775 15.1238C11.486 14.6718 11.733 14.2413 12.0145 13.8363L12.361 14.1083L12.806 13.5418L12.45 13.2623C12.7705 12.8753 13.125 12.5173 13.508 12.1923L13.7695 12.5218L14.3335 12.0738L14.077 11.7503C14.4985 11.4503 14.948 11.1878 15.422 10.9678L15.613 11.3848L16.268 11.0848L16.088 10.6923ZM19 25.6803C22.866 25.6803 26 22.5463 26 18.6803C26 14.8143 22.866 11.6803 19 11.6803C15.134 11.6803 12 14.8143 12 18.6803C12 22.5463 15.134 25.6803 19 25.6803ZM25.5 18.6803C25.5 22.2703 22.59 25.1803 19 25.1803C15.41 25.1803 12.5 22.2703 12.5 18.6803C12.5 15.0903 15.41 12.1803 19 12.1803C22.59 12.1803 25.5 15.0903 25.5 18.6803ZM19 15.1803C19.2653 15.1803 19.5196 15.0749 19.7071 14.8874C19.8947 14.6999 20 14.4455 20 14.1803C20 13.9151 19.8947 13.6607 19.7071 13.4732C19.5196 13.2856 19.2653 13.1803 19 13.1803C18.7348 13.1803 18.4805 13.2856 18.2929 13.4732C18.1054 13.6607 18 13.9151 18 14.1803C18 14.4455 18.1054 14.6999 18.2929 14.8874C18.4805 15.0749 18.7348 15.1803 19 15.1803ZM16.5 17.6803L20 15.7498V18.7548L23.5 16.9858V17.6533L20 19.4283V21.6418C20 23.3333 18.991 24.3808 17.7715 24.3808C16.6705 24.3808 15.6175 23.8073 15.6175 22.4208C15.6175 21.1548 17.0375 20.1133 18.5 19.4278V17.2878L16.5 18.3038V17.6803ZM18.5 21.3618V20.1803C17.6845 20.6623 17.129 21.4548 17.0335 21.9643C16.938 22.4743 17.0155 23.2848 17.686 23.1693C18.357 23.0533 18.5 21.9643 18.5 21.3618Z"
                  fill="#F6931E"/>
        </g>
    </g>
    <defs>
        <clipPath id="clip0_783_1326">
            <rect width="38.2094" height="38.21" fill="white" transform="translate(0 0.679932)"/>
        </clipPath>
        <clipPath id="clip1_783_1326">
            <rect width="20" height="20" fill="white" transform="translate(9 8.67993)"/>
        </clipPath>
    </defs>
</svg>
