<svg width="40" height="40" viewBox="0 0 38 38" fill="none" xmlns="http://www.w3.org/2000/svg">
    <g id="NOTUSD" clip-path="url(#clip0_783_1338)">
        <g id="Group 4673">
            <path id="Vector"
                  d="M37.5505 31.89H0.658812C0.295003 31.89 0 31.5953 0 31.232V7.54788C0 7.18456 0.295003 6.88995 0.658812 6.88995H37.5506C37.9144 6.88995 38.2094 7.18456 38.2094 7.54788V31.232C38.2093 31.5954 37.9143 31.89 37.5505 31.89Z"
                  fill="#C1C1C1"/>
            <path id="Vector 2" d="M15.2642 31.8412L21.1087 6.98761H27.002L21.1087 31.8412H15.2642Z" fill="#BCBCBC"/>
            <path id="Vector 2.2" d="M21.2058 31.8412L27.0504 6.98761H32.9437L27.0504 31.8412H21.2058Z" fill="#A9A9A9"/>
            <path id="Vector 2.3" d="M3.38062 31.8412L9.2252 6.98761H15.1185L9.2252 31.8412H3.38062Z" fill="#E2E2E2"/>
        </g>
        <g id="NOT - Notcoin" clip-path="url(#clip1_783_1338)">
            <g id="Group">
                <path id="Vector_2"
                      d="M19 28.89C24.5228 28.89 29 24.4128 29 18.89C29 13.3671 24.5228 8.88995 19 8.88995C13.4772 8.88995 9 13.3671 9 18.89C9 24.4128 13.4772 28.89 19 28.89Z"
                      fill="black"/>
                <path id="Vector_3"
                      d="M22.3284 23.3326H15.6138C14.3792 23.3326 13.5966 22.0009 14.2179 20.9243L18.3617 13.7418C18.6321 13.2728 19.3099 13.2728 19.5803 13.7418L23.7252 20.9245C24.3454 21.9993 23.5629 23.3327 22.3291 23.3327H22.3283L22.3284 23.3326ZM18.3584 15.8956L17.4559 17.6423L15.2782 21.537C15.1345 21.7863 15.312 22.1057 15.6129 22.1057H18.3576V15.8948L18.3585 15.8957L18.3584 15.8956ZM22.6622 21.5378L20.4854 17.6415L19.5829 15.8957V22.1065H22.3277C22.6285 22.1065 22.8059 21.7871 22.6622 21.5378Z"
                      fill="white"/>
            </g>
        </g>
    </g>
    <defs>
        <clipPath id="clip0_783_1338">
            <rect width="38.2094" height="38.21" fill="white" transform="translate(0 0.889954)"/>
        </clipPath>
        <clipPath id="clip1_783_1338">
            <rect width="20" height="20" fill="white" transform="translate(9 8.88995)"/>
        </clipPath>
    </defs>
</svg>
