<svg width="40" height="40" viewBox="0 0 38 38" fill="none" xmlns="http://www.w3.org/2000/svg">
    <g id="OPUSD" clip-path="url(#clip0_783_1352)">
        <g id="Group 4673">
            <path id="Vector"
                  d="M37.5505 31.1H0.658812C0.295003 31.1 0 30.8054 0 30.4421V6.7579C0 6.39458 0.295003 6.09998 0.658812 6.09998H37.5506C37.9144 6.09998 38.2094 6.39458 38.2094 6.7579V30.4421C38.2093 30.8054 37.9143 31.1 37.5505 31.1Z"
                  fill="#C1C1C1"/>
            <path id="Vector 2" d="M15.2642 31.0512L21.1087 6.19763H27.002L21.1087 31.0512H15.2642Z" fill="#BCBCBC"/>
            <path id="Vector 2.2" d="M21.2058 31.0512L27.0504 6.19763H32.9437L27.0504 31.0512H21.2058Z" fill="#A9A9A9"/>
            <path id="Vector 2.3" d="M3.38062 31.0512L9.2252 6.19763H15.1185L9.2252 31.0512H3.38062Z" fill="#E2E2E2"/>
        </g>
        <g id="OP - Optimism" clip-path="url(#clip1_783_1352)">
            <path id="Vector_2"
                  d="M9 18.1C9 23.6228 13.4772 28.1 19 28.1C24.5228 28.1 29 23.6228 29 18.1C29 12.5771 24.5228 8.09998 19 8.09998C13.4772 8.09998 9 12.5771 9 18.1Z"
                  fill="#FE0420"/>
            <path id="Vector_3" fill-rule="evenodd" clip-rule="evenodd"
                  d="M12.9427 21.1436C13.4347 21.4955 14.0659 21.6714 14.8363 21.6714C15.7685 21.6714 16.513 21.4609 17.0698 21.04C17.6265 20.6127 18.0182 19.9687 18.2448 19.1079C18.3807 18.5801 18.4972 18.0366 18.5944 17.4774C18.6267 17.2764 18.6429 17.1099 18.6429 16.9779C18.6429 16.5381 18.5296 16.1611 18.3031 15.847C18.0765 15.5265 17.7657 15.2878 17.3708 15.1307C16.9759 14.9674 16.5292 14.8857 16.0307 14.8857C14.1986 14.8857 13.0624 15.7496 12.6222 17.4774C12.4668 18.112 12.3471 18.6555 12.2629 19.1079C12.2305 19.3089 12.2144 19.4786 12.2144 19.6168C12.2144 20.2766 12.4571 20.7855 12.9427 21.1436ZM16.4483 19.0514C16.2624 19.7731 15.7495 20.2428 14.9722 20.2428C14.2034 20.2428 13.9404 19.7228 14.0788 19.0514C14.1954 18.4419 14.3119 17.9267 14.4284 17.5057C14.6292 16.7263 15.1004 16.3143 15.9045 16.3143C16.6699 16.3143 16.9214 16.8269 16.7882 17.5057C16.7105 17.9455 16.5972 18.4607 16.4483 19.0514ZM19.391 21.6035C19.4287 21.6488 19.4822 21.6714 19.5515 21.6714H20.8361C20.8991 21.6714 20.959 21.6488 21.0156 21.6035C21.0723 21.5583 21.1069 21.5001 21.1195 21.4291L21.5254 19.5285H22.8324C23.6573 19.5285 24.3028 19.1284 24.7751 18.7729C25.2536 18.4175 25.5717 17.8682 25.7291 17.125C25.7669 16.9505 25.7858 16.7825 25.7858 16.6209C25.7858 16.0586 25.5717 15.6289 25.1435 15.3316C24.7215 15.0343 24.1611 14.8857 23.4621 14.8857H20.9495C20.8866 14.8857 20.8267 14.9083 20.77 14.9535C20.7134 14.9988 20.6787 15.0569 20.6661 15.128L19.3626 21.4291C19.35 21.4937 19.3595 21.5518 19.391 21.6035ZM23.9816 17.1056C23.864 17.6245 23.4114 18.1 22.8799 18.1H21.7937L22.168 16.3143H23.3015C23.6874 16.3143 24.01 16.3903 24.01 16.8148C24.01 16.8988 24.0005 16.9957 23.9816 17.1056Z"
                  fill="white"/>
        </g>
    </g>
    <defs>
        <clipPath id="clip0_783_1352">
            <rect width="38.2094" height="38.21" fill="white" transform="translate(0 0.0999756)"/>
        </clipPath>
        <clipPath id="clip1_783_1352">
            <rect width="20" height="20" fill="white" transform="translate(9 8.09998)"/>
        </clipPath>
    </defs>
</svg>
