<svg width="38" height="25" viewBox="0 0 38 25" fill="none" xmlns="http://www.w3.org/2000/svg">
<g clip-path="url(#clip0_8072_20759)">
<path d="M38.314 0.0244141H0.313965V24.9751H38.314V0.0244141Z" fill="#F0F0F0"/>
<path d="M38.314 0.0244141V12.4998H19.314L0.313965 0.0244141H38.314Z" fill="#0052B4"/>
<path d="M38.314 12.5V24.9754H0.313965L19.314 12.5H38.314Z" fill="#D80027"/>
<path d="M12.3305 12.5003L10.3052 11.5621L11.3838 9.6302L9.18452 10.0445L8.90583 7.85645L7.37396 9.46573L5.84216 7.85645L5.56346 10.0445L3.36429 9.63013L4.44276 11.562L2.41748 12.5003L4.44276 13.4385L3.36429 15.3704L5.56361 14.9561L5.84216 17.1442L7.37396 15.5349L8.90583 17.1442L9.18452 14.9561L11.3837 15.3705L10.3052 13.4387L12.3305 12.5003Z" fill="#FFDA44"/>
<path d="M1.9311 2.38379L2.60508 3.31186L3.70938 2.96727L3.02152 3.8854L3.6955 4.81332L2.5964 4.45279L1.90854 5.37085L1.91722 4.22991L0.818115 3.86924L1.92249 3.5248L1.9311 2.38379Z" fill="#FFDA44"/>
<path d="M1.9311 19.6294L2.60508 20.5575L3.70938 20.2129L3.02152 21.131L3.6955 22.059L2.5964 21.6984L1.90854 22.6164L1.91722 21.4755L0.818115 21.1148L1.92249 20.7704L1.9311 19.6294Z" fill="#FFDA44"/>
<path d="M15.9292 11.0068L15.2552 11.9348L14.1509 11.5903L14.8387 12.5084L14.1648 13.4364L15.2639 13.0758L15.9517 13.9938L15.943 12.853L17.0421 12.4923L15.9378 12.1478L15.9292 11.0068Z" fill="#FFDA44"/>
</g>
<defs>
<clipPath id="clip0_8072_20759">
<rect x="0.313965" width="38" height="25" rx="1" fill="white"/>
</clipPath>
</defs>
</svg>
