<svg width="40" height="40" viewBox="0 0 38 38" fill="none" xmlns="http://www.w3.org/2000/svg">
    <g id="RENDERUSD" clip-path="url(#clip0_783_1364)">
        <g id="Group 4673">
            <path id="Vector" d="M37.5505 31.3099H0.658812C0.295003 31.3099 0 31.0153 0 30.652V6.96786C0 6.60454 0.295003 6.30994 0.658812 6.30994H37.5506C37.9144 6.30994 38.2094 6.60454 38.2094 6.96786V30.652C38.2093 31.0154 37.9143 31.3099 37.5505 31.3099Z" fill="#C1C1C1"/>
            <path id="Vector 2" d="M15.2642 31.2611L21.1087 6.40759H27.002L21.1087 31.2611H15.2642Z" fill="#BCBCBC"/>
            <path id="Vector 2.2" d="M21.2058 31.2611L27.0504 6.40759H32.9437L27.0504 31.2611H21.2058Z" fill="#A9A9A9"/>
            <path id="Vector 2.3" d="M3.38062 31.2611L9.2252 6.40759H15.1185L9.2252 31.2611H3.38062Z" fill="#E2E2E2"/>
        </g>
        <g id="RNDR - Render" clip-path="url(#clip1_783_1364)">
            <path id="Vector_2" d="M9 18.3099C9 12.7871 13.4772 8.30994 19 8.30994V8.30994C24.5228 8.30994 29 12.7871 29 18.3099V18.3099C29 23.8328 24.5228 28.3099 19 28.3099V28.3099C13.4772 28.3099 9 23.8328 9 18.3099V18.3099Z" fill="#C61B1B"/>
            <path id="Vector_3" fill-rule="evenodd" clip-rule="evenodd" d="M19 12.9528C20.2042 12.9525 21.3734 13.3579 22.3189 14.1036C23.2644 14.8494 23.9311 15.8919 24.2113 17.063C24.4916 18.2341 24.3692 19.4655 23.8637 20.5585C23.3583 21.6515 22.4994 22.5423 21.4255 23.0872C20.3517 23.6321 19.1255 23.7993 17.945 23.5619C16.7644 23.3244 15.6983 22.6962 14.9187 21.7785C14.139 20.8607 13.6913 19.7071 13.6477 18.5037C13.6041 17.3003 13.9673 16.1173 14.6786 15.1456C14.8285 15.295 15.0195 15.3965 15.2273 15.4371C15.435 15.4777 15.6502 15.4557 15.8454 15.3737C16.0405 15.2918 16.207 15.1538 16.3236 14.9771C16.4401 14.8004 16.5015 14.593 16.5 14.3814C16.5004 14.2205 16.4645 14.0617 16.3951 13.9166C16.3257 13.7716 16.2246 13.644 16.0992 13.5433C15.9737 13.4427 15.8273 13.3715 15.6706 13.3352C15.514 13.2989 15.3511 13.2983 15.1942 13.3334C15.0373 13.3686 14.8903 13.4387 14.7641 13.5384C14.638 13.6381 14.5359 13.765 14.4654 13.9095C14.395 14.0541 14.358 14.2127 14.3572 14.3735C14.3563 14.5343 14.3917 14.6932 14.4607 14.8385C13.6773 15.8628 13.2634 17.122 13.2863 18.4113C13.3092 19.7007 13.7675 20.9444 14.5868 21.9402C15.406 22.9361 16.538 23.6256 17.7988 23.8966C19.0595 24.1676 20.3749 24.0042 21.531 23.433C22.6871 22.8617 23.616 21.9162 24.1667 20.7502C24.7174 19.5842 24.8575 18.2661 24.5642 17.0104C24.271 15.7546 23.5616 14.635 22.5514 13.8335C21.5412 13.032 20.2895 12.5957 19 12.5956V12.9528ZM15.4286 15.0956C15.618 15.0956 15.7997 15.0204 15.9336 14.8864C16.0676 14.7525 16.1429 14.5708 16.1429 14.3814C16.1429 14.1919 16.0676 14.0102 15.9336 13.8763C15.7997 13.7423 15.618 13.6671 15.4286 13.6671C15.2391 13.6671 15.0575 13.7423 14.9235 13.8763C14.7895 14.0102 14.7143 14.1919 14.7143 14.3814C14.7143 14.5708 14.7895 14.7525 14.9235 14.8864C15.0575 15.0204 15.2391 15.0956 15.4286 15.0956ZM19 20.8099C19.663 20.8099 20.2989 20.5465 20.7678 20.0777C21.2366 19.6089 21.5 18.973 21.5 18.3099C21.5 17.6469 21.2366 17.011 20.7678 16.5422C20.2989 16.0733 19.663 15.8099 19 15.8099C18.337 15.8099 17.7011 16.0733 17.2322 16.5422C16.7634 17.011 16.5 17.6469 16.5 18.3099C16.5 18.973 16.7634 19.6089 17.2322 20.0777C17.7011 20.5465 18.337 20.8099 19 20.8099Z" fill="white"/>
        </g>
    </g>
    <defs>
        <clipPath id="clip0_783_1364">
            <rect width="38.2094" height="38.21" fill="white" transform="translate(0 0.309937)"/>
        </clipPath>
        <clipPath id="clip1_783_1364">
            <rect width="20" height="20" fill="white" transform="translate(9 8.30994)"/>
        </clipPath>
    </defs>
</svg>
