<svg width="40" height="40" viewBox="0 0 38 38" fill="none" xmlns="http://www.w3.org/2000/svg">
    <g id="SUIUSD" clip-path="url(#clip0_783_1377)">
        <g id="Group 4673">
            <path id="Vector" d="M37.5505 31.52H0.658812C0.295003 31.52 0 31.2254 0 30.862V7.17788C0 6.81456 0.295003 6.51996 0.658812 6.51996H37.5506C37.9144 6.51996 38.2094 6.81456 38.2094 7.17788V30.862C38.2093 31.2254 37.9143 31.52 37.5505 31.52Z" fill="#C1C1C1"/>
            <path id="Vector 2" d="M15.2642 31.4712L21.1087 6.61761H27.002L21.1087 31.4712H15.2642Z" fill="#BCBCBC"/>
            <path id="Vector 2.2" d="M21.2058 31.4712L27.0504 6.61761H32.9437L27.0504 31.4712H21.2058Z" fill="#A9A9A9"/>
            <path id="Vector 2.3" d="M3.38062 31.4712L9.2252 6.61761H15.1185L9.2252 31.4712H3.38062Z" fill="#E2E2E2"/>
        </g>
        <g id="SUI - Sui" clip-path="url(#clip1_783_1377)">
            <circle id="Ellipse 31" cx="19" cy="18.52" r="10" fill="#F0F3FA"/>
            <path id="Vector_2" d="M21.7858 17.1557C22.2897 17.8027 22.5626 18.5998 22.5608 19.42C22.5608 20.2878 22.2608 21.0842 21.7643 21.7128L21.7215 21.7664L21.7108 21.695C21.7004 21.6363 21.6885 21.578 21.6751 21.52C21.4251 20.4021 20.6179 19.4414 19.2822 18.6628C18.3822 18.1414 17.8643 17.5128 17.7286 16.7985C17.6548 16.3536 17.6916 15.8973 17.8358 15.47C17.9374 15.1359 18.0957 14.8219 18.3036 14.5414L18.825 13.8914C18.8461 13.8653 18.8728 13.8442 18.9031 13.8298C18.9334 13.8153 18.9665 13.8078 19 13.8078C19.0336 13.8078 19.0667 13.8153 19.097 13.8298C19.1273 13.8442 19.154 13.8653 19.175 13.8914L21.7858 17.1557ZM22.6072 16.5057L19.1286 12.1521C19.1132 12.1328 19.0937 12.1171 19.0714 12.1064C19.0492 12.0957 19.0248 12.0901 19 12.0901C18.9753 12.0901 18.9509 12.0957 18.9287 12.1064C18.9064 12.1171 18.8869 12.1328 18.8715 12.1521L15.3929 16.5092L15.3822 16.52C14.7157 17.3668 14.3546 18.4138 14.3572 19.4914C14.3572 22.1092 16.4358 24.2342 19 24.2342C21.5643 24.2342 23.6429 22.1092 23.6429 19.4914C23.6455 18.4138 23.2844 17.3668 22.6179 16.52L22.6072 16.5057ZM16.225 17.1414L16.5358 16.7521L16.5465 16.8235L16.5715 16.995C16.775 18.0771 17.4929 18.9771 18.6965 19.6735C19.7429 20.2842 20.35 20.9842 20.5251 21.7521C20.5965 22.0735 20.6108 22.3878 20.5786 22.6628V22.6807L20.5643 22.6878C20.0787 22.9306 19.543 23.0566 19 23.0557C17.0358 23.0557 15.4393 21.4271 15.4393 19.42C15.4393 18.5592 15.7322 17.7664 16.225 17.1414Z" fill="#4BA2FF"/>
        </g>
    </g>
    <defs>
        <clipPath id="clip0_783_1377">
            <rect width="38.2094" height="38.21" fill="white" transform="translate(0 0.519958)"/>
        </clipPath>
        <clipPath id="clip1_783_1377">
            <rect width="20" height="20" fill="white" transform="translate(9 8.51996)"/>
        </clipPath>
    </defs>
</svg>
