<svg width="40" height="40" viewBox="0 0 38 38" fill="none" xmlns="http://www.w3.org/2000/svg">
    <g id="TAOUSD" clip-path="url(#clip0_783_1424)">
        <g id="Group 4673">
            <path id="Vector"
                  d="M37.5505 31.94H0.658812C0.295003 31.94 0 31.6454 0 31.2821V7.59793C0 7.23461 0.295003 6.94 0.658812 6.94H37.5506C37.9144 6.94 38.2094 7.23461 38.2094 7.59793V31.2821C38.2093 31.6455 37.9143 31.94 37.5505 31.94Z"
                  fill="#C1C1C1"/>
            <path id="Vector 2" d="M15.2642 31.8912L21.1087 7.03766H27.002L21.1087 31.8912H15.2642Z" fill="#BCBCBC"/>
            <path id="Vector 2.2" d="M21.2058 31.8912L27.0504 7.03766H32.9437L27.0504 31.8912H21.2058Z" fill="#A9A9A9"/>
            <path id="Vector 2.3" d="M3.38062 31.8912L9.2252 7.03766H15.1185L9.2252 31.8912H3.38062Z" fill="#E2E2E2"/>
        </g>
        <g id="TAO - Bittensor" clip-path="url(#clip1_783_1424)">
            <path id="Vector_2"
                  d="M9 18.94C9 13.4172 13.4772 8.94 19 8.94C24.5228 8.94 29 13.4172 29 18.94C29 24.4628 24.5228 28.94 19 28.94C13.4772 28.94 9 24.4628 9 18.94Z"
                  fill="#F0F3FA"/>
            <g id="bittensor-tao-logo 1" clip-path="url(#clip2_783_1424)">
                <path id="Vector_3"
                      d="M20.0499 22.79V18.09C20.0499 16.89 19.0999 15.94 17.8999 15.94V23.49C17.8999 24.59 18.7499 25.49 19.8499 25.49C19.8999 25.49 19.8999 25.49 19.9499 25.49C20.4499 25.54 20.9999 25.39 21.3999 25.04C20.1499 24.94 20.0499 24.19 20.0499 22.79Z"
                      fill="#292929"/>
                <path id="Vector_4"
                      d="M15.45 13.94C14.4 13.94 13.5 14.84 13.5 15.94H22.3C23.4 15.94 24.25 15.04 24.25 13.94C24.3 13.94 15.45 13.94 15.45 13.94Z"
                      fill="#292929"/>
            </g>
        </g>
    </g>
    <defs>
        <clipPath id="clip0_783_1424">
            <rect width="38.2094" height="38.21" fill="white" transform="translate(0 0.940002)"/>
        </clipPath>
        <clipPath id="clip1_783_1424">
            <rect width="20" height="20" fill="white" transform="translate(9 8.94)"/>
        </clipPath>
        <clipPath id="clip2_783_1424">
            <rect width="10.8" height="11.55" fill="white" transform="translate(13.5 13.94)"/>
        </clipPath>
    </defs>
</svg>
