<svg width="40" height="40" viewBox="0 0 38 38" fill="none" xmlns="http://www.w3.org/2000/svg">
<g id="TONUSD" clip-path="url(#clip0_783_1440)">
<g id="Group 4673">
<path id="Vector" d="M37.5505 31.15H0.658812C0.295003 31.15 0 30.8554 0 30.4921V6.80795C0 6.44463 0.295003 6.15002 0.658812 6.15002H37.5506C37.9144 6.15002 38.2094 6.44463 38.2094 6.80795V30.4921C38.2093 30.8555 37.9143 31.15 37.5505 31.15Z" fill="#C1C1C1"/>
<path id="Vector 2" d="M15.2642 31.1012L21.1087 6.24768H27.002L21.1087 31.1012H15.2642Z" fill="#BCBCBC"/>
<path id="Vector 2.2" d="M21.2058 31.1012L27.0504 6.24768H32.9437L27.0504 31.1012H21.2058Z" fill="#A9A9A9"/>
<path id="Vector 2.3" d="M3.38062 31.1012L9.2252 6.24768H15.1185L9.2252 31.1012H3.38062Z" fill="#E2E2E2"/>
</g>
<g id="TON -  Toncoin" clip-path="url(#clip1_783_1440)">
<path id="Vector_2" d="M19.1046 28.6173C24.6275 28.6173 29.1047 24.1401 29.1047 18.6172C29.1047 13.0943 24.6275 8.61707 19.1046 8.61707C13.5817 8.61707 9.10449 13.0943 9.10449 18.6172C9.10449 24.1401 13.5817 28.6173 19.1046 28.6173Z" fill="#0098EA"/>
<path id="Vector_3" d="M22.4811 14.1171H15.7276C14.4859 14.1171 13.6989 15.5235 14.3236 16.6605L18.4916 24.2458C18.7636 24.7411 19.4452 24.7411 19.7172 24.2458L23.886 16.6605C24.5099 15.5253 23.7228 14.1171 22.4819 14.1171H22.4811ZM18.4882 21.9711L17.5805 20.1265L15.3902 16.0135C15.2457 15.7502 15.4242 15.4129 15.7268 15.4129H18.4873V21.9719L18.4882 21.9711ZM22.8168 16.0126L20.6274 20.1274L19.7197 21.9711V15.412H22.4803C22.7828 15.412 22.9613 15.7493 22.8168 16.0126Z" fill="white"/>
</g>
</g>
<defs>
<clipPath id="clip0_783_1440">
<rect width="38.2094" height="38.21" fill="white" transform="translate(0 0.150024)"/>
</clipPath>
<clipPath id="clip1_783_1440">
<rect width="20.0002" height="20.0002" fill="white" transform="translate(9.10449 8.61707)"/>
</clipPath>
</defs>
</svg>
