<svg width="40" height="40" viewBox="0 0 38 38" fill="none" xmlns="http://www.w3.org/2000/svg">
    <g id="WIFUSD" clip-path="url(#clip0_783_1389)">
        <g id="Group 4673">
            <path id="Vector" d="M37.5505 31.73H0.658812C0.295003 31.73 0 31.4354 0 31.0721V7.3879C0 7.02459 0.295003 6.72998 0.658812 6.72998H37.5506C37.9144 6.72998 38.2094 7.02459 38.2094 7.3879V31.0721C38.2093 31.4355 37.9143 31.73 37.5505 31.73Z" fill="#C1C1C1"/>
            <path id="Vector 2" d="M15.2642 31.6812L21.1087 6.82764H27.002L21.1087 31.6812H15.2642Z" fill="#BCBCBC"/>
            <path id="Vector 2.2" d="M21.2058 31.6812L27.0504 6.82764H32.9437L27.0504 31.6812H21.2058Z" fill="#A9A9A9"/>
            <path id="Vector 2.3" d="M3.38062 31.6812L9.2252 6.82764H15.1185L9.2252 31.6812H3.38062Z" fill="#E2E2E2"/>
        </g>
        <g id="WIF - Dogwifhat" clip-path="url(#clip1_783_1389)">
            <g id="Group 4675">
                <path id="Vector_2" d="M19 8.72998C13.4767 8.72998 9 13.2066 9 18.73C9 24.2533 13.4767 28.73 19 28.73C24.5233 28.73 29 24.2533 29 18.73C29 13.2066 24.5233 8.72998 19 8.72998ZM23.9667 20.2966C23.5333 19.33 21.9333 17.1966 19.6 17.43C17.1667 17.6966 14.4 19.0633 13.6 21.0633C12.3667 20.0966 13.4333 18.43 14.1667 17.6633C14 16.93 14.4667 15.33 14.7333 14.6633C14.8333 14.0966 15.3 13.6966 15.5333 13.5966C15.5 13.1966 16.2 12.9966 16.5333 12.93L16.5667 12.8633C16.6667 12.5633 16.7667 12.1966 17.6333 11.93C18.3667 11.6633 19.0333 12.33 19.3 12.6966C19.3667 12.4966 19.6333 12.1966 19.9 12.43C22.3 12.7966 23.1 15.43 23.2333 16.6633C23.7 16.9966 24.6667 17.8633 24.9 18.6633C25.1333 19.63 24.8667 19.83 24.5333 20.0966L24.4667 20.1633C24.3 20.3633 24.1 20.3633 23.9667 20.2966ZM23.5 21.33C22.9767 23.5233 21.2167 25.2066 19 25.63C17.6 25.63 15.3667 23.43 14.7333 22.3966C13.4333 22.2966 13.7333 21.63 14.0333 21.33L13.8667 21.2633C14.4667 19.8633 16.1667 18.1966 19.5 17.7966C21.3333 17.5633 22.7333 18.8633 23.5667 20.1966C23.6 20.63 23.5667 21.0966 23.5 21.33ZM16.2 19.6633C16.4 20.1633 17 20.9633 17.8667 20.03C17.8 19.7633 17.3333 19.2966 16.2 19.6633ZM17.5333 24.3966C17.4 24.1966 18.2 24.0966 18.6 24.0633L19.1333 23.93C19.2333 23.4966 19.0333 23.4633 18.9333 23.4966C18.1333 23.5633 18.2 22.63 18.4 22.33C18.6333 22.0633 19.1333 22.1633 19.3 22.1966C19.4667 22.2633 19.7333 22.1966 19.8333 22.1633C20.3333 22.13 20.3 22.73 20.2 23.03C20.1667 23.43 19.6 23.5633 19.3333 23.5633C19.3 23.8633 19.3667 23.9966 19.4333 23.9966L20.5667 24.2633C21 24.43 20.7667 24.4633 20.5667 24.4966C20 24.13 19.6 24.2633 19.3333 24.33L19.1333 24.3966C18.6667 24.23 18.1667 24.2633 17.9667 24.33C17.8667 24.43 17.6333 24.5633 17.5333 24.3966ZM20.5 20.1966C20.5333 19.7966 20.9333 19.13 22.1 19.73C21.9333 20.13 21.3667 20.7633 20.5 20.1966Z" fill="#494744"/>
                <g id="Subtract">
                    <path d="M19.5999 17.43C21.9332 17.1967 23.5332 19.33 23.9665 20.2967C24.0999 20.3634 24.2999 20.3634 24.4665 20.1634L24.5332 20.0967L24.5445 20.0877C24.8725 19.8254 25.1306 19.6191 24.8999 18.6634C24.6665 17.8634 23.6999 16.9967 23.2332 16.6634C23.0999 15.43 22.2999 12.7967 19.8999 12.43C19.6332 12.1967 19.3665 12.4967 19.2999 12.6967C19.0332 12.33 18.3665 11.6634 17.6332 11.93C16.7898 12.1895 16.6725 12.5437 16.5746 12.839C16.5719 12.8472 16.5692 12.8553 16.5665 12.8634L16.5332 12.93C16.1999 12.9967 15.4999 13.1967 15.5332 13.5967C15.2999 13.6967 14.8332 14.0967 14.7332 14.6634C14.4665 15.33 13.9999 16.93 14.1665 17.6634C13.4332 18.43 12.3665 20.0967 13.5999 21.0634C14.3999 19.0634 17.1665 17.6967 19.5999 17.43Z" fill="#CFA18B"/>
                    <path fill-rule="evenodd" clip-rule="evenodd" d="M18.9999 25.63C21.2165 25.2067 22.9765 23.5234 23.4999 21.33C23.5665 21.0967 23.5999 20.63 23.5665 20.1967C22.7332 18.8634 21.3332 17.5634 19.4999 17.7967C16.1665 18.1967 14.4665 19.8634 13.8665 21.2634L14.0332 21.33C13.7332 21.63 13.4332 22.2967 14.7332 22.3967C15.3665 23.43 17.5999 25.63 18.9999 25.63ZM16.1999 19.6634C16.3999 20.1634 16.9999 20.9634 17.8665 20.03C17.7999 19.7634 17.3332 19.2967 16.1999 19.6634ZM19.1332 23.93L18.5999 24.0634C18.1999 24.0967 17.3999 24.1967 17.5332 24.3967C17.6332 24.5634 17.8665 24.43 17.9665 24.33C18.1665 24.2634 18.6665 24.23 19.1332 24.3967L19.3332 24.33C19.3482 24.3263 19.3637 24.3223 19.3796 24.3182C19.6455 24.2499 20.0318 24.1507 20.5665 24.4967L20.5799 24.4945C20.7766 24.4618 20.9903 24.4263 20.5665 24.2634L19.4332 23.9967C19.3665 23.9967 19.2999 23.8634 19.3332 23.5634C19.5999 23.5634 20.1665 23.43 20.1999 23.03C20.2999 22.73 20.3332 22.13 19.8332 22.1634C19.7332 22.1967 19.4665 22.2634 19.2999 22.1967C19.1332 22.1634 18.6332 22.0634 18.3999 22.33C18.1999 22.63 18.1332 23.5634 18.9332 23.4967C19.0332 23.4634 19.2332 23.4967 19.1332 23.93ZM20.4999 20.1967C20.5332 19.7967 20.9332 19.13 22.0999 19.73C21.9332 20.13 21.3665 20.7634 20.4999 20.1967Z" fill="#CFA18B"/>
                </g>
                <path id="Vector 13 (Stroke)" fill-rule="evenodd" clip-rule="evenodd" d="M18.5 16.48C16.5649 16.48 15.2956 17.2879 14.9268 17.6568C14.8291 17.7544 14.6709 17.7544 14.5732 17.6568C14.4756 17.5591 14.4756 17.4008 14.5732 17.3032C15.0377 16.8387 16.4351 15.98 18.5 15.98C20.5177 15.98 21.7289 16.3149 22.1118 16.5064C22.2353 16.5681 22.2854 16.7183 22.2236 16.8418C22.1619 16.9653 22.0117 17.0153 21.8882 16.9536C21.6045 16.8117 20.4823 16.48 18.5 16.48Z" fill="#703225"/>
                <path id="Subtract_2" fill-rule="evenodd" clip-rule="evenodd" d="M18.9999 25.63C21.2166 25.2066 22.9766 23.5233 23.4999 21.33C23.5666 21.0966 23.5999 20.63 23.5666 20.1966C22.7332 18.8633 21.3332 17.5633 19.4999 17.7966C16.1666 18.1966 14.4666 19.8633 13.8666 21.2633L14.0332 21.33C13.7332 21.63 13.4332 22.2966 14.7332 22.3966C15.3666 23.43 17.5999 25.63 18.9999 25.63ZM16.1999 19.6633C16.3999 20.1633 16.9999 20.9633 17.8666 20.03C17.7999 19.7633 17.3332 19.2966 16.1999 19.6633ZM18.9332 23.4966C19.0332 23.4633 19.2332 23.4966 19.1332 23.93L18.5999 24.0633C18.1999 24.0966 17.3999 24.1966 17.5332 24.3966C17.6332 24.5633 17.8666 24.43 17.9666 24.33C18.1666 24.2633 18.6666 24.23 19.1332 24.3966L19.3332 24.33C19.3483 24.3262 19.3637 24.3222 19.3796 24.3181C19.6455 24.2498 20.0318 24.1506 20.5666 24.4966C20.571 24.4959 20.5755 24.4951 20.5799 24.4944C20.7766 24.4617 20.9903 24.4263 20.5666 24.2633L19.4332 23.9966C19.3666 23.9966 19.2999 23.8633 19.3332 23.5633C19.5999 23.5633 20.1666 23.43 20.1999 23.03C20.2999 22.73 20.3332 22.13 19.8332 22.1633C19.7332 22.1966 19.4666 22.2633 19.2999 22.1966C19.1332 22.1633 18.6332 22.0633 18.3999 22.33C18.1999 22.63 18.1332 23.5633 18.9332 23.4966ZM20.4999 20.1966C20.5332 19.7966 20.9332 19.13 22.0999 19.73C21.9332 20.13 21.3666 20.7633 20.4999 20.1966Z" fill="#A58651"/>
                <g id="Subtract_3">
                    <path d="M16.2002 19.6633C16.4002 20.1633 17.0002 20.9633 17.8669 20.03C17.8002 19.7633 17.3335 19.2966 16.2002 19.6633Z" fill="black"/>
                    <path d="M19.1335 23.93C19.2335 23.4966 19.0335 23.4633 18.9335 23.4966C18.1335 23.5633 18.2002 22.63 18.4002 22.33C18.6335 22.0633 19.1335 22.1633 19.3002 22.1966C19.4669 22.2633 19.7335 22.1966 19.8335 22.1633C20.3335 22.13 20.3002 22.73 20.2002 23.03C20.1669 23.43 19.6002 23.5633 19.3335 23.5633C19.3002 23.8633 19.3669 23.9966 19.4335 23.9966L20.5669 24.2633C20.9906 24.4263 20.7769 24.4617 20.5802 24.4944L20.5669 24.4966C20.0321 24.1506 19.6458 24.2499 19.3799 24.3182C19.364 24.3222 19.3486 24.3262 19.3335 24.33L19.1335 24.3966C18.6669 24.23 18.1669 24.2633 17.9669 24.33C17.8669 24.43 17.6335 24.5633 17.5335 24.3966C17.4002 24.1966 18.2002 24.0966 18.6002 24.0633L19.1335 23.93Z" fill="black"/>
                    <path d="M20.5002 20.1966C20.5335 19.7966 20.9335 19.13 22.1002 19.73C21.9335 20.13 21.3669 20.7633 20.5002 20.1966Z" fill="black"/>
                </g>
                <ellipse id="Ellipse 26" cx="16.781" cy="22.4838" rx="0.75" ry="1.75" transform="rotate(-46.1017 16.781 22.4838)" fill="#EDE0BD"/>
                <ellipse id="Ellipse 27" cx="21.7811" cy="22.4838" rx="0.75" ry="1.75" transform="rotate(44.1899 21.7811 22.4838)" fill="#EDE0BD"/>
                <path id="Vector 14 (Stroke)" fill-rule="evenodd" clip-rule="evenodd" d="M17.4736 13.1182C17.5354 13.2417 17.4853 13.3918 17.3618 13.4536C17.0584 13.6053 16.3416 14.1058 15.9736 14.8418C15.5815 15.6259 15.5 16.1188 15.5 16.23C15.5 16.368 15.3881 16.48 15.25 16.48C15.1119 16.48 15 16.368 15 16.23C15 16.0078 15.1185 15.434 15.5264 14.6182C15.9584 13.7541 16.7749 13.188 17.1382 13.0064C17.2617 12.9446 17.4119 12.9947 17.4736 13.1182Z" fill="#703225"/>
                <path id="Vector 17 (Stroke)" fill-rule="evenodd" clip-rule="evenodd" d="M18.2236 13.1182C18.2854 13.2417 18.2353 13.3918 18.1118 13.4536C17.8084 13.6053 17.0916 14.1058 16.7236 14.8418C16.3315 15.6259 16.25 16.1188 16.25 16.23C16.25 16.368 16.1381 16.48 16 16.48C15.8619 16.48 15.75 16.368 15.75 16.23C15.75 16.0078 15.8685 15.434 16.2764 14.6182C16.7084 13.7541 17.5249 13.188 17.8882 13.0064C18.0117 12.9446 18.1619 12.9947 18.2236 13.1182Z" fill="#703225"/>
                <path id="Vector 15 (Stroke)" fill-rule="evenodd" clip-rule="evenodd" d="M18.0543 12.9859C18.1891 13.0159 18.2741 13.1494 18.2441 13.2842L17.7441 15.5342C17.7141 15.669 17.5806 15.754 17.4458 15.724C17.311 15.6941 17.2261 15.5605 17.256 15.4257L17.756 13.1757C17.786 13.041 17.9195 12.956 18.0543 12.9859Z" fill="#703225"/>
                <path id="Vector 16 (Stroke)" fill-rule="evenodd" clip-rule="evenodd" d="M18.5548 12.8238C18.641 12.716 18.7984 12.6985 18.9062 12.7848C19.1189 12.9549 19.4494 13.2346 19.7535 13.5238C19.9056 13.6684 20.0534 13.8177 20.1775 13.9585C20.2984 14.0958 20.4087 14.2383 20.4736 14.3682C20.6818 14.7846 20.9029 15.3982 20.9872 15.6509C21.0308 15.7819 20.9601 15.9235 20.8291 15.9672C20.6981 16.0108 20.5565 15.94 20.5128 15.809C20.4304 15.5618 20.2182 14.9754 20.0264 14.5918C19.9913 14.5216 19.9162 14.4184 19.8023 14.289C19.6914 14.1631 19.5549 14.0249 19.409 13.8861C19.1172 13.6087 18.7978 13.3384 18.5938 13.1752C18.486 13.089 18.4685 12.9316 18.5548 12.8238Z" fill="#703225"/>
                <path id="Vector 19 (Stroke)" fill-rule="evenodd" clip-rule="evenodd" d="M19.2932 12.5896C19.3707 12.4754 19.5262 12.4456 19.6404 12.5232C19.9573 12.7382 20.4505 13.0923 20.9039 13.4582C21.1305 13.641 21.3499 13.829 21.5332 14.0056C21.7125 14.1784 21.8723 14.3542 21.9654 14.5122C22.2757 15.0387 22.6064 15.8172 22.7327 16.1386C22.7832 16.2671 22.7199 16.4122 22.5914 16.4627C22.4629 16.5132 22.3178 16.4499 22.2673 16.3214C22.1436 16.0065 21.8244 15.2577 21.5346 14.766C21.4777 14.6695 21.3594 14.5324 21.1864 14.3657C21.0174 14.203 20.8102 14.025 20.5899 13.8473C20.1495 13.4919 19.6678 13.146 19.3596 12.9369C19.2454 12.8593 19.2156 12.7038 19.2932 12.5896Z" fill="#703225"/>
                <path id="Vector 18 (Stroke)" fill-rule="evenodd" clip-rule="evenodd" d="M18.129 12.8688C18.2348 12.78 18.3925 12.7938 18.4812 12.8995C18.6563 13.1082 18.9255 13.4474 19.1668 13.7907C19.2875 13.9624 19.4031 14.1378 19.497 14.3002C19.5886 14.4586 19.6687 14.6201 19.7069 14.7602C19.8292 15.2093 19.9254 15.8545 19.9583 16.1188C19.9754 16.2558 19.8781 16.3807 19.7411 16.3978C19.6041 16.4149 19.4792 16.3176 19.4621 16.1806C19.4299 15.9219 19.3371 15.3054 19.2244 14.8915C19.2038 14.8158 19.1505 14.6998 19.0642 14.5505C18.9802 14.4053 18.8735 14.243 18.7577 14.0783C18.5262 13.7489 18.2662 13.4211 18.0982 13.221C18.0095 13.1152 18.0233 12.9575 18.129 12.8688Z" fill="#703225"/>
            </g>
        </g>
    </g>
    <defs>
        <clipPath id="clip0_783_1389">
            <rect width="38.2094" height="38.21" fill="white" transform="translate(0 0.72998)"/>
        </clipPath>
        <clipPath id="clip1_783_1389">
            <rect width="20" height="20" fill="white" transform="translate(9 8.72998)"/>
        </clipPath>
    </defs>
</svg>
