<?xml version="1.0" encoding="utf-8"?>
<!-- Generator: Adobe Illustrator 25.0.1, SVG Export Plug-In . SVG Version: 6.00 Build 0)  -->
<svg version="1.1" id="Layer_1" xmlns="http://www.w3.org/2000/svg" xmlns:xlink="http://www.w3.org/1999/xlink" x="0px" y="0px"
	 viewBox="0 0 168 50" style="enable-background:new 0 0 168 50;" xml:space="preserve">
<style type="text/css">
	.st0{fill:#F4C733;}
	.st1{fill-rule:evenodd;clip-rule:evenodd;fill:#F4C733;}
	.st2{fill-rule:evenodd;clip-rule:evenodd;fill:#00ADEE;stroke:#00ADEE;stroke-width:0.216;stroke-miterlimit:22.9256;}
	.st3{fill-rule:evenodd;clip-rule:evenodd;fill:#00A551;stroke:#00A551;stroke-width:0.216;stroke-miterlimit:22.9256;}
	.st4{fill-rule:evenodd;clip-rule:evenodd;fill:#F4C733;stroke:#F4C733;stroke-width:0.216;stroke-miterlimit:22.9256;}
	.st5{fill:#02A64D;}
	.st6{fill:#00A64F;}
	.st7{fill:#28ABE2;}
	.st8{fill-rule:evenodd;clip-rule:evenodd;fill:#04A64C;}
	.st9{fill-rule:evenodd;clip-rule:evenodd;fill:#CC3C31;}
	.st10{fill:#CC3C31;}
</style>
<g>
	<g>
		<path class="st0" d="M39.6,33l4.8-13.6c1.1-1.4,2.8-1.3,3.3,0l-4.1,11.5l6.8,0.1c1.2,0.7,0.2,2.2-0.6,2.7l0,0l-9.5,0.1
			C39.9,33.9,39.5,33.4,39.6,33z"/>
		<path class="st0" d="M70.2,33.9c-1.5,0-2.6-0.3-3.3-1c-0.7-0.7-0.9-1.6-0.6-2.9c0.1-0.3,0.1-0.6,0.2-0.9c0.1-0.3,0.2-0.6,0.3-0.9
			c0.8-1.8,1.8-3.2,3.2-4.2c1.4-1,3-1.5,4.7-1.5c1.5,0,2.5,0.3,3.1,1c0.6,0.7,0.8,1.7,0.5,2.9c-0.1,0.3-0.2,0.7-0.3,1
			c-0.4,1.2-0.6,1.6-1.8,1.6l-6.8-0.1l0,0l0,0.1c-0.1,0.2-0.1,0.4-0.2,0.6c-0.1,0.7,0,1.2,0.2,1.5c0.3,0.3,0.8,0.5,1.5,0.5
			c0.5,0,1-0.1,1.5-0.3c0.5-0.2,0.8-0.5,1.1-0.8l0,0c1.2-0.8,3.6-0.6,3,0.3l0,0c-0.8,1.1-1.6,1.6-2.8,2.2
			C72.7,33.6,71.5,33.9,70.2,33.9L70.2,33.9z M75.3,27.1L75.3,27.1l0.1-0.4c0.1-0.6,0.1-1.1-0.2-1.4c-0.3-0.3-0.7-0.5-1.4-0.5
			c-0.8,0-1.6,0.3-2.2,0.9c-0.4,0.3-0.7,0.8-1.1,1.3l0,0H75.3z"/>
		<g>
			<path class="st1" d="M58,18.3c-0.9,0-1.8,0.8-1.9,1.7c-0.1,1,0.5,1.7,1.4,1.7c0.9,0,1.8-0.8,1.9-1.7C59.5,19.1,58.9,18.3,58,18.3
				z"/>
			<path class="st1" d="M55.2,23.3l-2.8,9c-0.2,2.1,2.7,2,3.1,0.4c0.8-2.9,1.8-5.8,2.6-8.7C58.5,22.3,55.7,22.1,55.2,23.3z"/>
		</g>
		<path class="st1" d="M62.1,22.8l-1.5,0.1c-0.6,0.1-1.1,1.5-0.6,1.9h1.2L59.1,32c-0.3,1,0,1.6,0.8,1.8l3.9,0c1.2-0.1,2-2.3,0.9-2.4
			l-2.2-0.1l1.8-6.5h2.3c0.5-0.2,1-1.8,0.3-2.1l-2,0l1.1-3.5c0.1-0.8-2.2-1.4-2.9-0.3L62.1,22.8z"/>
	</g>
	<g>
		<path class="st2" d="M27.7,14.1l3.8,4l6.1-6.5c1.1-1.2,1.6-2.6,0.1-4c-1.6-1.5-2.5-0.9-3.8,0.3L27.7,14.1z"/>
		<path class="st3" d="M6.4,18.9L17.7,7.5c1.5-1.3,2.2-1.4,3.7-0.1L37,23.5c1.2,1.2,2.1,2.6,0.7,4.2c-1.4,1.6-3,0.8-4.2-0.4
			l-5.7-5.7l-5.8,6c-1.1,1.2-2.7,1.7-4.1,0.2c-1.4-1.5-0.8-2.9,0.3-4.1l5.7-5.8l-4.7-4.5l-9.1,9.2c-1.3,1.3-3.2,2.7-4.7,0.6
			C4,21.3,5.2,20.1,6.4,18.9z"/>
		<path class="st4" d="M1.7,28C7.1,33.5,12.6,39,18,44.5c1.1,1,2.1,1,3.2,0c4.1-4.1,8.2-8.2,12.3-12.3c1.1-1.1,1.1-2.5-0.1-3.7
			c-1.5-1.4-2.5-0.8-3.7,0.3l-9.9,9.9c-4.7-4.7-9.4-9.4-14.1-14c-1.2-1.2-2.7-2.2-4.2-0.4C0.2,25.6,0.6,26.9,1.7,28z"/>
	</g>
	<path class="st5" d="M92.9,20.7h-6.1l-1.3,3.9h5.1c0.5,0,0.8,0.1,1,0.3s0.2,0.5,0.1,0.9s-0.3,0.6-0.6,0.8c-0.3,0.2-0.7,0.3-1.2,0.3
		h-5.1L83.1,32c-0.2,0.6-0.5,1.1-0.9,1.4c-0.4,0.3-0.8,0.5-1.3,0.5c-0.5,0-0.8-0.2-1-0.5c-0.2-0.3-0.2-0.8,0-1.4l3.9-11.8
		c0.1-0.4,0.3-0.8,0.6-1.1c0.2-0.3,0.5-0.5,0.8-0.6c0.3-0.1,0.7-0.2,1.1-0.2h7.3c0.5,0,0.8,0.1,1,0.3c0.2,0.2,0.2,0.5,0.1,0.9
		c-0.1,0.4-0.3,0.7-0.6,0.9C93.8,20.6,93.4,20.7,92.9,20.7z"/>
	<path class="st6" d="M105,24.7L105,24.7c1.2-1.3,2.4-1.8,2.9-1.9c0.5-0.1,1.1-0.2,1.6-0.2c0.8,0,2.9,0.6,2.2,3.7
		c-0.1,0.5-0.2,0.8-0.5,1.7l-1.4,4.2c-0.2,0.6-0.5,1-0.8,1.3c-0.3,0.3-0.6,0.4-1.1,0.4c-1,0-1.5-0.3-1.1-1.7l1.2-3.5
		c0.3-0.9,0.7-1.9,0.6-2.6c-0.1-0.6-1.2-1.4-2.7-0.4c-0.5,0.4-1.1,1-1.5,1.6c-0.3,0.5-0.7,1.3-1,2.5l-0.8,2.4
		c-0.2,0.6-0.4,0.8-0.7,1.2c-0.4,0.3-0.8,0.5-1.3,0.5c-1,0-1.4-0.4-1.2-1.3l2.3-7.5c0.3-1,0.7-1.7,1.1-2c0.4-0.3,0.8-0.5,1.3-0.5
		c0.5,0,0.8,0.2,1,0.5C105.3,23.3,105.2,24.1,105,24.7z"/>
	<g>
		<path class="st6" d="M119.4,31.8l2.3-7.1c0.2-0.7,0.5-1.2,0.9-1.6c0.4-0.3,0.8-0.5,1.2-0.5c0.4,0,0.7,0.2,0.9,0.6
			c0.2,0.4,0.1,0.9-0.1,1.6l-2.3,7.1c-0.2,0.7-0.5,1.1-0.9,1.5c-0.4,0.3-0.8,0.5-1.2,0.5c-0.4,0-0.7-0.2-0.9-0.6
			C119.2,32.9,119.2,32.5,119.4,31.8z"/>
		<path class="st6" d="M119.7,31.6l0.4-1.8c-0.5,0.9-1.5,1.9-2.8,1.9c-0.5,0-0.9-0.1-1.2-0.4c-0.3-0.3-0.4-0.7-0.5-1.2
			c0-0.5,0-1.2,0.3-1.9c0.2-0.7,0.5-1.4,0.9-1.9c0.4-0.5,0.8-1,1.2-1.2c0.5-0.3,1.1-0.5,1.6-0.5c1.3,0,1.9,0.8,1.8,1.5l1.2-2.6
			c-0.2-0.2-1.1-0.9-2.6-0.9c-0.7,0-1.5,0.1-2.1,0.4c-0.7,0.3-1.3,0.6-1.9,1.1c-0.6,0.5-1.1,1.1-1.5,1.8c-0.4,0.7-0.8,1.5-1,2.3
			c-0.2,0.8-0.4,1.6-0.3,2.3c0,0.7,0.2,1.3,0.5,1.8s0.7,0.9,1.2,1.2c0.5,0.3,1.2,0.4,1.9,0.4c1.4,0,2.6-1.1,2.8-1.2L119.7,31.6z"/>
	</g>
	<path class="st6" d="M147.2,31.6c-0.3,0.4-0.7,0.8-1.2,1.1c-0.5,0.4-1.1,0.6-1.8,0.9c-0.7,0.2-1.4,0.3-2.1,0.3
		c-1.6,0-2.7-0.5-3.3-1.5c-0.6-1-0.6-2.4-0.1-4.1c0.4-1.1,0.9-2.2,1.6-3c0.7-0.9,1.5-1.6,2.4-2c0.9-0.5,1.9-0.7,3-0.7
		c0.7,0,1.3,0,1.8,0.3c0.7,0.3,1.1,0.7,1.3,1.5c0.2,0.5,0.1,1.3-0.3,1.8c-0.3,0.4-1.2,0.8-1.5,0.3c-0.4-0.4-0.3-0.7-0.6-1.1
		c-0.2-0.3-0.6-0.5-1.1-0.5c-0.7,0-1.5,0.1-2.3,0.9c-0.6,0.6-1.2,1.4-1.5,2.3c-0.2,0.5-0.4,1.3-0.4,1.7c0,0.4,0,1.6,1.3,1.8
		c1.2,0.1,2.3-0.5,2.7-1.1c0.3-0.3,1.2-0.5,1.7-0.5c0.7,0,0.9,0.2,1,0.5C147.8,30.6,147.5,31.2,147.2,31.6z"/>
	<g>
		<path class="st7" d="M41.7,42h-1v-3.9h-1.3v-0.8H43v0.8h-1.3V42z"/>
		<path class="st7" d="M47,42h-1v-2.1c0-0.5-0.2-0.8-0.6-0.8c-0.3,0-0.5,0.1-0.6,0.3c-0.1,0.2-0.2,0.5-0.2,0.9V42h-1v-5h1v1
			c0,0.1,0,0.3,0,0.6l0,0.3h0.1c0.2-0.4,0.6-0.5,1-0.5c0.4,0,0.7,0.1,1,0.3c0.2,0.2,0.3,0.6,0.3,1V42z"/>
		<path class="st7" d="M49.6,42.1c-0.6,0-1-0.2-1.4-0.5c-0.3-0.3-0.5-0.8-0.5-1.4c0-0.6,0.2-1.1,0.5-1.4c0.3-0.3,0.7-0.5,1.3-0.5
			c0.5,0,0.9,0.1,1.2,0.4c0.3,0.3,0.4,0.7,0.4,1.2v0.5h-2.3c0,0.3,0.1,0.5,0.2,0.7c0.2,0.2,0.4,0.2,0.7,0.2c0.2,0,0.4,0,0.6-0.1
			c0.2,0,0.4-0.1,0.6-0.2v0.8c-0.2,0.1-0.4,0.1-0.6,0.2S49.9,42.1,49.6,42.1z M49.5,39c-0.2,0-0.4,0.1-0.5,0.2
			c-0.1,0.1-0.2,0.3-0.2,0.6h1.4c0-0.2-0.1-0.4-0.2-0.6C49.8,39.1,49.7,39,49.5,39z"/>
		<path class="st7" d="M58.2,42h-1.1l-0.6-2.5c0-0.1-0.1-0.3-0.1-0.5c-0.1-0.3-0.1-0.5-0.1-0.6c0,0.1,0,0.3-0.1,0.6
			c-0.1,0.3-0.1,0.4-0.1,0.5L55.4,42h-1.1l-1.2-4.7h1l0.6,2.6c0.1,0.5,0.2,0.9,0.2,1.2c0-0.1,0-0.3,0.1-0.6s0.1-0.5,0.1-0.6l0.7-2.6
			h0.9l0.7,2.6c0,0.1,0.1,0.3,0.1,0.5c0,0.2,0.1,0.5,0.1,0.6c0-0.2,0.1-0.4,0.1-0.6c0-0.3,0.1-0.5,0.1-0.6l0.6-2.6h1L58.2,42z"/>
		<path class="st7" d="M63.2,40.2c0,0.6-0.2,1-0.5,1.4c-0.3,0.3-0.7,0.5-1.3,0.5c-0.3,0-0.7-0.1-0.9-0.2c-0.3-0.2-0.5-0.4-0.6-0.7
			c-0.1-0.3-0.2-0.6-0.2-1c0-0.6,0.2-1,0.5-1.4c0.3-0.3,0.7-0.5,1.3-0.5c0.3,0,0.7,0.1,0.9,0.2c0.3,0.2,0.5,0.4,0.6,0.6
			C63.2,39.5,63.2,39.8,63.2,40.2z M60.7,40.2c0,0.4,0.1,0.6,0.2,0.8c0.1,0.2,0.3,0.3,0.6,0.3c0.3,0,0.5-0.1,0.6-0.3
			c0.1-0.2,0.2-0.5,0.2-0.8c0-0.4-0.1-0.6-0.2-0.8c-0.1-0.2-0.3-0.3-0.6-0.3c-0.3,0-0.5,0.1-0.6,0.3C60.8,39.6,60.7,39.8,60.7,40.2z
			"/>
		<path class="st7" d="M66.1,38.3c0.1,0,0.2,0,0.3,0l-0.1,0.9c-0.1,0-0.2,0-0.3,0c-0.3,0-0.6,0.1-0.7,0.2c-0.2,0.2-0.3,0.4-0.3,0.7
			V42h-1v-3.6h0.7l0.1,0.6h0c0.1-0.2,0.3-0.4,0.5-0.5C65.6,38.4,65.8,38.3,66.1,38.3z"/>
		<path class="st7" d="M68,42h-1v-5h1V42z"/>
		<path class="st7" d="M70.2,42.1c-0.4,0-0.8-0.2-1-0.5c-0.2-0.3-0.4-0.8-0.4-1.4c0-0.6,0.1-1.1,0.4-1.4c0.2-0.3,0.6-0.5,1-0.5
			c0.5,0,0.8,0.2,1,0.5h0c0-0.3-0.1-0.5-0.1-0.7V37h1v5h-0.8l-0.2-0.5h0C71,41.9,70.7,42.1,70.2,42.1z M70.5,41.3
			c0.3,0,0.4-0.1,0.6-0.2c0.1-0.1,0.2-0.4,0.2-0.7v-0.1c0-0.4-0.1-0.7-0.2-0.8c-0.1-0.2-0.3-0.3-0.6-0.3c-0.2,0-0.4,0.1-0.5,0.3
			c-0.1,0.2-0.2,0.5-0.2,0.8s0.1,0.6,0.2,0.8C70.1,41.2,70.3,41.3,70.5,41.3z"/>
		<path class="st7" d="M78.2,40.2c0,0.6-0.2,1-0.5,1.4c-0.3,0.3-0.7,0.5-1.3,0.5c-0.3,0-0.7-0.1-0.9-0.2c-0.3-0.2-0.5-0.4-0.6-0.7
			c-0.1-0.3-0.2-0.6-0.2-1c0-0.6,0.2-1,0.5-1.4c0.3-0.3,0.7-0.5,1.3-0.5c0.3,0,0.7,0.1,0.9,0.2s0.5,0.4,0.6,0.6
			C78.1,39.5,78.2,39.8,78.2,40.2z M75.7,40.2c0,0.4,0.1,0.6,0.2,0.8c0.1,0.2,0.3,0.3,0.6,0.3c0.3,0,0.5-0.1,0.6-0.3
			c0.1-0.2,0.2-0.5,0.2-0.8c0-0.4-0.1-0.6-0.2-0.8c-0.1-0.2-0.3-0.3-0.6-0.3c-0.3,0-0.5,0.1-0.6,0.3C75.8,39.6,75.7,39.8,75.7,40.2z
			"/>
		<path class="st7" d="M81,39.1h-0.9V42h-1v-2.9h-0.5v-0.5l0.5-0.3v-0.3c0-0.4,0.1-0.7,0.3-0.9c0.2-0.2,0.5-0.3,1-0.3
			c0.3,0,0.6,0.1,0.9,0.2l-0.3,0.7c-0.2-0.1-0.4-0.1-0.5-0.1c-0.1,0-0.2,0-0.3,0.1c-0.1,0.1-0.1,0.2-0.1,0.3v0.2H81V39.1z"/>
		<path class="st7" d="M84.4,42h-1v-4.7h2.7v0.8h-1.7v1.2h1.6v0.8h-1.6V42z"/>
		<path class="st7" d="M86.9,37.5c0-0.3,0.2-0.5,0.5-0.5s0.5,0.2,0.5,0.5c0,0.2,0,0.3-0.1,0.4c-0.1,0.1-0.2,0.1-0.4,0.1
			C87,38,86.9,37.8,86.9,37.5z M87.9,42h-1v-3.6h1V42z"/>
		<path class="st7" d="M92.2,42h-1v-2.1c0-0.3,0-0.5-0.1-0.6c-0.1-0.1-0.2-0.2-0.4-0.2c-0.3,0-0.5,0.1-0.6,0.3
			c-0.1,0.2-0.2,0.5-0.2,0.9V42h-1v-3.6h0.8l0.1,0.5h0.1c0.1-0.2,0.3-0.3,0.5-0.4c0.2-0.1,0.4-0.1,0.7-0.1c0.4,0,0.7,0.1,1,0.3
			c0.2,0.2,0.3,0.6,0.3,1V42z"/>
		<path class="st7" d="M95.5,42l-0.2-0.5h0c-0.2,0.2-0.3,0.4-0.5,0.4c-0.2,0.1-0.4,0.1-0.7,0.1c-0.3,0-0.6-0.1-0.8-0.3
			c-0.2-0.2-0.3-0.5-0.3-0.8c0-0.4,0.1-0.7,0.4-0.8c0.3-0.2,0.7-0.3,1.2-0.3l0.6,0v-0.2c0-0.4-0.2-0.5-0.6-0.5c-0.3,0-0.6,0.1-1,0.3
			l-0.3-0.7c0.4-0.2,0.9-0.3,1.4-0.3c0.5,0,0.9,0.1,1.1,0.3c0.3,0.2,0.4,0.5,0.4,1V42H95.5z M95.3,40.3l-0.4,0
			c-0.3,0-0.5,0.1-0.6,0.2c-0.1,0.1-0.2,0.2-0.2,0.4c0,0.3,0.2,0.4,0.5,0.4c0.2,0,0.4-0.1,0.5-0.2s0.2-0.3,0.2-0.5V40.3z"/>
		<path class="st7" d="M100.6,42h-1v-2.1c0-0.3,0-0.5-0.1-0.6c-0.1-0.1-0.2-0.2-0.4-0.2c-0.3,0-0.5,0.1-0.6,0.3
			c-0.1,0.2-0.2,0.5-0.2,0.9V42h-1v-3.6H98l0.1,0.5h0.1c0.1-0.2,0.3-0.3,0.5-0.4c0.2-0.1,0.4-0.1,0.7-0.1c0.4,0,0.7,0.1,1,0.3
			c0.2,0.2,0.3,0.6,0.3,1V42z"/>
		<path class="st7" d="M103,42.1c-1.1,0-1.7-0.6-1.7-1.8c0-0.6,0.2-1.1,0.5-1.4c0.3-0.3,0.7-0.5,1.3-0.5c0.4,0,0.8,0.1,1.1,0.2
			l-0.3,0.8c-0.2-0.1-0.3-0.1-0.4-0.2c-0.1,0-0.3-0.1-0.4-0.1c-0.5,0-0.8,0.4-0.8,1.1c0,0.7,0.3,1.1,0.8,1.1c0.2,0,0.4,0,0.5-0.1
			c0.2-0.1,0.3-0.1,0.5-0.2v0.8c-0.2,0.1-0.3,0.2-0.5,0.2C103.5,42.1,103.3,42.1,103,42.1z"/>
		<path class="st7" d="M104.9,37.5c0-0.3,0.2-0.5,0.5-0.5s0.5,0.2,0.5,0.5c0,0.2,0,0.3-0.1,0.4c-0.1,0.1-0.2,0.1-0.4,0.1
			C105.1,38,104.9,37.8,104.9,37.5z M106,42h-1v-3.6h1V42z"/>
		<path class="st7" d="M109.3,42l-0.2-0.5h0c-0.2,0.2-0.3,0.4-0.5,0.4c-0.2,0.1-0.4,0.1-0.7,0.1c-0.3,0-0.6-0.1-0.8-0.3
			c-0.2-0.2-0.3-0.5-0.3-0.8c0-0.4,0.1-0.7,0.4-0.8c0.3-0.2,0.7-0.3,1.2-0.3l0.6,0v-0.2c0-0.4-0.2-0.5-0.6-0.5c-0.3,0-0.6,0.1-1,0.3
			l-0.3-0.7c0.4-0.2,0.9-0.3,1.4-0.3c0.5,0,0.9,0.1,1.1,0.3c0.3,0.2,0.4,0.5,0.4,1V42H109.3z M109,40.3l-0.4,0
			c-0.3,0-0.5,0.1-0.6,0.2c-0.1,0.1-0.2,0.2-0.2,0.4c0,0.3,0.2,0.4,0.5,0.4c0.2,0,0.4-0.1,0.5-0.2s0.2-0.3,0.2-0.5V40.3z"/>
		<path class="st7" d="M112,42h-1v-5h1V42z"/>
		<path class="st7" d="M115.8,42h-1v-4.7h2.7v0.8h-1.7v1.2h1.6v0.8h-1.6V42z"/>
		<path class="st7" d="M120.3,38.3c0.1,0,0.2,0,0.3,0l-0.1,0.9c-0.1,0-0.2,0-0.3,0c-0.3,0-0.6,0.1-0.7,0.2c-0.2,0.2-0.3,0.4-0.3,0.7
			V42h-1v-3.6h0.7l0.1,0.6h0c0.1-0.2,0.3-0.4,0.5-0.5C119.9,38.4,120.1,38.3,120.3,38.3z"/>
		<path class="st7" d="M122.9,42.1c-0.6,0-1-0.2-1.4-0.5c-0.3-0.3-0.5-0.8-0.5-1.4c0-0.6,0.2-1.1,0.5-1.4c0.3-0.3,0.7-0.5,1.3-0.5
			c0.5,0,0.9,0.1,1.2,0.4c0.3,0.3,0.4,0.7,0.4,1.2v0.5h-2.3c0,0.3,0.1,0.5,0.2,0.7c0.2,0.2,0.4,0.2,0.7,0.2c0.2,0,0.4,0,0.6-0.1
			s0.4-0.1,0.6-0.2v0.8c-0.2,0.1-0.4,0.1-0.6,0.2C123.5,42.1,123.2,42.1,122.9,42.1z M122.8,39c-0.2,0-0.4,0.1-0.5,0.2
			c-0.1,0.1-0.2,0.3-0.2,0.6h1.4c0-0.2-0.1-0.4-0.2-0.6C123.2,39.1,123,39,122.8,39z"/>
		<path class="st7" d="M126.8,42.1c-0.6,0-1-0.2-1.4-0.5c-0.3-0.3-0.5-0.8-0.5-1.4c0-0.6,0.2-1.1,0.5-1.4c0.3-0.3,0.7-0.5,1.3-0.5
			c0.5,0,0.9,0.1,1.2,0.4c0.3,0.3,0.4,0.7,0.4,1.2v0.5H126c0,0.3,0.1,0.5,0.2,0.7c0.2,0.2,0.4,0.2,0.7,0.2c0.2,0,0.4,0,0.6-0.1
			c0.2,0,0.4-0.1,0.6-0.2v0.8c-0.2,0.1-0.4,0.1-0.6,0.2C127.4,42.1,127.1,42.1,126.8,42.1z M126.7,39c-0.2,0-0.4,0.1-0.5,0.2
			c-0.1,0.1-0.2,0.3-0.2,0.6h1.4c0-0.2-0.1-0.4-0.2-0.6C127.1,39.1,126.9,39,126.7,39z"/>
		<path class="st7" d="M130.2,42.1c-0.4,0-0.8-0.2-1-0.5c-0.2-0.3-0.4-0.8-0.4-1.4c0-0.6,0.1-1.1,0.4-1.4c0.2-0.3,0.6-0.5,1-0.5
			c0.5,0,0.8,0.2,1,0.5h0c0-0.3-0.1-0.5-0.1-0.7V37h1v5h-0.8l-0.2-0.5h0C131,41.9,130.7,42.1,130.2,42.1z M130.6,41.3
			c0.3,0,0.4-0.1,0.6-0.2s0.2-0.4,0.2-0.7v-0.1c0-0.4-0.1-0.7-0.2-0.8c-0.1-0.2-0.3-0.3-0.6-0.3c-0.2,0-0.4,0.1-0.5,0.3
			c-0.1,0.2-0.2,0.5-0.2,0.8s0.1,0.6,0.2,0.8C130.2,41.2,130.4,41.3,130.6,41.3z"/>
		<path class="st7" d="M136.6,40.2c0,0.6-0.2,1-0.5,1.4c-0.3,0.3-0.7,0.5-1.3,0.5c-0.3,0-0.7-0.1-0.9-0.2c-0.3-0.2-0.5-0.4-0.6-0.7
			c-0.1-0.3-0.2-0.6-0.2-1c0-0.6,0.2-1,0.5-1.4c0.3-0.3,0.7-0.5,1.3-0.5c0.3,0,0.7,0.1,0.9,0.2c0.3,0.2,0.5,0.4,0.6,0.6
			C136.5,39.5,136.6,39.8,136.6,40.2z M134.1,40.2c0,0.4,0.1,0.6,0.2,0.8c0.1,0.2,0.3,0.3,0.6,0.3c0.3,0,0.5-0.1,0.6-0.3
			c0.1-0.2,0.2-0.5,0.2-0.8c0-0.4-0.1-0.6-0.2-0.8c-0.1-0.2-0.3-0.3-0.6-0.3c-0.3,0-0.5,0.1-0.6,0.3
			C134.1,39.6,134.1,39.8,134.1,40.2z"/>
		<path class="st7" d="M140.6,42h-1v-2.1c0-0.3,0-0.5-0.1-0.6c-0.1-0.1-0.2-0.2-0.4-0.2c-0.3,0-0.4,0.1-0.5,0.3
			c-0.1,0.2-0.2,0.5-0.2,0.9V42h-1v-3.6h0.8l0.1,0.5h0.1c0.1-0.2,0.2-0.3,0.4-0.4c0.2-0.1,0.4-0.1,0.6-0.1c0.5,0,0.9,0.2,1.1,0.5
			h0.1c0.1-0.2,0.2-0.3,0.4-0.4c0.2-0.1,0.4-0.1,0.6-0.1c0.4,0,0.7,0.1,0.9,0.3c0.2,0.2,0.3,0.5,0.3,1V42h-1v-2.1
			c0-0.3,0-0.5-0.1-0.6c-0.1-0.1-0.2-0.2-0.4-0.2c-0.2,0-0.4,0.1-0.5,0.3c-0.1,0.2-0.2,0.4-0.2,0.8V42z"/>
	</g>
	<g>
		<path class="st8" d="M98.5,18.3c-0.9,0-1.8,0.8-1.9,1.7c-0.1,1,0.5,1.7,1.4,1.7c0.9,0,1.8-0.8,1.9-1.7
			C100.1,19,99.4,18.3,98.5,18.3z"/>
		<path class="st8" d="M95.8,23.3l-2.8,9c-0.2,2.1,2.7,2,3.1,0.4c0.8-2.9,1.8-5.8,2.6-8.7C99,22.3,96.2,22.1,95.8,23.3z"/>
	</g>
	<path class="st6" d="M130.4,24.7L130.4,24.7c1.2-1.3,2.4-1.8,2.9-1.9c0.5-0.1,1.1-0.2,1.6-0.2c0.8,0,2.9,0.6,2.2,3.7
		c-0.1,0.5-0.2,0.8-0.5,1.7l-1.4,4.2c-0.2,0.6-0.5,1-0.8,1.3c-0.3,0.3-0.6,0.4-1.1,0.4c-1,0-1.5-0.3-1.1-1.7l1.2-3.5
		c0.3-0.9,0.7-1.9,0.6-2.6c-0.1-0.6-1.2-1.4-2.7-0.4c-0.5,0.4-1.1,1-1.5,1.6c-0.3,0.5-0.7,1.3-1,2.5l-0.8,2.4
		c-0.2,0.6-0.4,0.8-0.7,1.2c-0.4,0.3-0.8,0.5-1.3,0.5c-1,0-1.4-0.4-1.2-1.3l2.3-7.5c0.3-1,0.7-1.7,1.1-2c0.4-0.3,0.8-0.5,1.3-0.5
		c0.5,0,0.8,0.2,1,0.5C130.7,23.3,130.6,24,130.4,24.7z"/>
	<path class="st5" d="M152.9,33.9c-1.5,0-2.6-0.3-3.3-1c-0.7-0.7-0.9-1.6-0.6-2.9c0.1-0.3,0.1-0.6,0.2-0.9c0.1-0.3,0.2-0.6,0.3-0.9
		c0.8-1.8,1.8-3.2,3.2-4.2c1.4-1,3-1.5,4.7-1.5c1.5,0,2.5,0.3,3.1,1c0.6,0.7,0.8,1.7,0.5,2.9c-0.1,0.3-0.2,0.7-0.3,1
		c-0.4,1.2-0.6,1.6-1.8,1.6l-6.8-0.1l0,0l0,0.1c-0.1,0.2-0.1,0.4-0.2,0.6c-0.1,0.7,0,1.2,0.2,1.5c0.3,0.3,0.8,0.5,1.5,0.5
		c0.5,0,1-0.1,1.5-0.3c0.5-0.2,0.8-0.5,1.1-0.8l0,0c1.2-0.8,3.6-0.6,3,0.3l0,0c-0.8,1.1-1.6,1.6-2.8,2.2
		C155.4,33.6,154.2,33.9,152.9,33.9L152.9,33.9z M157.9,27.1L157.9,27.1l0.1-0.4c0.1-0.6,0.1-1.1-0.2-1.4c-0.3-0.3-0.7-0.5-1.4-0.5
		c-0.8,0-1.6,0.3-2.2,0.9c-0.4,0.3-0.7,0.8-1.1,1.3l0,0H157.9z"/>
	<g>
		<path class="st9" d="M164.3,22.3c-0.5,0-0.9-0.1-1.3-0.2c-0.4-0.2-0.8-0.4-1.1-0.7c-0.3-0.3-0.6-0.7-0.7-1.1
			c-0.2-0.4-0.3-0.8-0.3-1.3c0-0.6,0.2-1.2,0.5-1.7c0.3-0.5,0.7-0.9,1.2-1.2c0.5-0.3,1.1-0.4,1.7-0.4c0.4,0,0.9,0.1,1.3,0.2
			c0.4,0.2,0.8,0.4,1.1,0.7c0.3,0.3,0.5,0.6,0.7,1c0.2,0.4,0.3,0.8,0.3,1.3c0,0.5-0.1,0.9-0.3,1.3c-0.2,0.4-0.4,0.8-0.7,1.1
			c-0.3,0.3-0.7,0.5-1.1,0.7C165.1,22.2,164.7,22.3,164.3,22.3L164.3,22.3z M161.6,19c0,0.5,0.1,1,0.4,1.4c0.2,0.4,0.6,0.8,1,1
			c0.4,0.2,0.9,0.4,1.4,0.4c0.5,0,0.9-0.1,1.3-0.4c0.4-0.2,0.7-0.6,1-1c0.2-0.4,0.4-0.9,0.4-1.4c0-0.4-0.1-0.7-0.2-1.1
			c-0.1-0.3-0.3-0.6-0.6-0.9c-0.2-0.2-0.5-0.4-0.9-0.6c-0.3-0.1-0.7-0.2-1-0.2c-0.4,0-0.7,0.1-1.1,0.2c-0.3,0.1-0.6,0.3-0.9,0.6
			c-0.2,0.3-0.4,0.5-0.6,0.9C161.6,18.2,161.6,18.6,161.6,19L161.6,19z M163.6,19.2h0.7l1,1.6h0.6l-1.1-1.7c0.7-0.1,1-0.4,1-1
			c0-0.4-0.1-0.6-0.3-0.8c-0.2-0.2-0.6-0.3-1-0.3H163v3.8h0.6V19.2L163.6,19.2z M163.6,18.7h0.7c0.2,0,0.4,0,0.5,0
			c0.1,0,0.2-0.1,0.3-0.2c0.1-0.1,0.1-0.2,0.1-0.4c0-0.4-0.3-0.6-0.8-0.6h-0.8V18.7z"/>
		<path class="st10" d="M164.3,22.3c-0.5,0-0.9-0.1-1.3-0.2c-0.4-0.2-0.8-0.4-1.1-0.7c-0.3-0.3-0.6-0.7-0.7-1.1
			c-0.2-0.4-0.3-0.9-0.3-1.3c0-0.6,0.2-1.2,0.5-1.7c0.3-0.5,0.7-0.9,1.2-1.2c0.5-0.3,1.1-0.4,1.7-0.4c0.4,0,0.9,0.1,1.3,0.3
			c0.4,0.2,0.8,0.4,1.1,0.7c0.3,0.3,0.6,0.7,0.7,1.1c0.2,0.4,0.3,0.9,0.3,1.3c0,0.5-0.1,0.9-0.3,1.3c-0.2,0.4-0.4,0.8-0.7,1.1
			c-0.3,0.3-0.7,0.5-1.1,0.7C165.2,22.2,164.7,22.3,164.3,22.3z M164.3,15.7c-0.6,0-1.1,0.1-1.6,0.4c-0.5,0.3-0.9,0.7-1.2,1.2
			c-0.3,0.5-0.4,1-0.4,1.6c0,0.5,0.1,0.9,0.3,1.3c0.2,0.4,0.4,0.7,0.7,1c0.3,0.3,0.7,0.5,1.1,0.7c0.4,0.2,0.8,0.2,1.3,0.2
			c0.4,0,0.9-0.1,1.2-0.2c0.4-0.2,0.7-0.4,1.1-0.7c0.3-0.3,0.5-0.6,0.7-1c0.2-0.4,0.3-0.8,0.3-1.3c0-0.5-0.1-0.9-0.3-1.3
			c-0.2-0.4-0.4-0.7-0.7-1c-0.3-0.3-0.7-0.5-1.1-0.7C165.1,15.8,164.7,15.7,164.3,15.7z M164.3,21.8c-0.5,0-1-0.1-1.4-0.4
			c-0.4-0.2-0.8-0.6-1-1c-0.2-0.4-0.4-0.9-0.4-1.4c0-0.4,0.1-0.8,0.2-1.1c0.1-0.3,0.3-0.6,0.6-0.9c0.3-0.3,0.6-0.5,0.9-0.6
			c0.3-0.1,0.7-0.2,1.1-0.2c0.4,0,0.7,0.1,1.1,0.2c0.3,0.1,0.6,0.3,0.9,0.6c0.3,0.3,0.4,0.6,0.6,0.9c0.1,0.3,0.2,0.7,0.2,1.1
			c0,0.5-0.1,1-0.4,1.4c-0.2,0.4-0.6,0.8-1,1C165.2,21.7,164.8,21.8,164.3,21.8z M164.3,16.3c-0.4,0-0.7,0.1-1,0.2
			c-0.3,0.1-0.6,0.3-0.8,0.6c-0.2,0.2-0.4,0.5-0.6,0.9c-0.1,0.3-0.2,0.7-0.2,1.1c0,0.5,0.1,1,0.3,1.4c0.2,0.4,0.5,0.7,0.9,1
			c0.4,0.2,0.8,0.3,1.3,0.3c0.5,0,0.9-0.1,1.3-0.3c0.4-0.2,0.7-0.6,0.9-1c0.2-0.4,0.3-0.9,0.3-1.4c0-0.4-0.1-0.7-0.2-1.1
			c-0.1-0.3-0.3-0.6-0.6-0.9c-0.2-0.2-0.5-0.4-0.8-0.6C165,16.4,164.6,16.3,164.3,16.3z M166,20.9h-0.8l0,0l-1-1.6h-0.6v1.6h-0.7V17
			h1.5c0.5,0,0.8,0.1,1.1,0.3c0.2,0.2,0.4,0.5,0.4,0.9c0,0.6-0.3,1-0.9,1.1L166,20.9z M165.3,20.8h0.5l-1.1-1.7l0.1,0
			c0.6-0.1,0.9-0.4,0.9-1c0-0.4-0.1-0.6-0.3-0.8c-0.2-0.2-0.5-0.2-1-0.2h-1.4v3.7h0.5v-1.6h0.8l0,0L165.3,20.8z M164.3,18.8h-0.7
			v-1.3h0.8c0.6,0,0.9,0.2,0.9,0.6c0,0.2,0,0.3-0.1,0.4c-0.1,0.1-0.2,0.2-0.4,0.2C164.6,18.8,164.5,18.8,164.3,18.8z M163.6,18.7
			h0.6c0.2,0,0.4,0,0.5,0c0.1,0,0.2-0.1,0.3-0.2c0.1-0.1,0.1-0.2,0.1-0.4c0-0.3-0.3-0.5-0.8-0.5h-0.7V18.7z"/>
	</g>
</g>
</svg>
