<?xml version="1.0" encoding="utf-8"?>
<!-- Generator: Adobe Illustrator 25.0.1, SVG Export Plug-In . SVG Version: 6.00 Build 0)  -->
<svg version="1.1" id="Layer_1" xmlns="http://www.w3.org/2000/svg" xmlns:xlink="http://www.w3.org/1999/xlink" x="0px" y="0px"
	 viewBox="0 0 85.6 43" style="enable-background:new 0 0 85.6 43;" xml:space="preserve">
<style type="text/css">
	.st0{fill:#F4C733;}
	.st1{fill-rule:evenodd;clip-rule:evenodd;fill:#F4C733;}
	.st2{fill:#02A64D;}
	.st3{fill:#00A64F;}
	.st4{fill-rule:evenodd;clip-rule:evenodd;fill:#04A64C;}
	.st5{fill-rule:evenodd;clip-rule:evenodd;fill:#00ADEE;stroke:#00ADEE;stroke-width:0.216;stroke-miterlimit:22.9256;}
	.st6{fill-rule:evenodd;clip-rule:evenodd;fill:#00A551;stroke:#00A551;stroke-width:0.216;stroke-miterlimit:22.9256;}
	.st7{fill-rule:evenodd;clip-rule:evenodd;fill:#F4C733;stroke:#F4C733;stroke-width:0.216;stroke-miterlimit:22.9256;}
</style>
<g>
	<g>
		<path class="st0" d="M0.3,41.4L3.7,32c0.8-1,2-0.9,2.3,0l-2.9,8l4.8,0.1c0.8,0.5,0.2,1.5-0.4,1.9l0,0l-6.6,0.1
			C0.5,42.1,0.2,41.7,0.3,41.4z"/>
		<path class="st0" d="M21.7,42.1c-1.1,0-1.8-0.2-2.3-0.7c-0.5-0.5-0.6-1.1-0.4-2c0-0.2,0.1-0.4,0.2-0.6c0.1-0.2,0.1-0.4,0.2-0.6
			c0.5-1.3,1.3-2.3,2.3-3c1-0.7,2.1-1.1,3.3-1.1c1,0,1.7,0.2,2.2,0.7c0.4,0.5,0.6,1.2,0.4,2.1c0,0.2-0.1,0.5-0.2,0.7
			c-0.3,0.9-0.5,1.1-1.3,1.1l-4.7-0.1l0,0l0,0.1c0,0.1-0.1,0.3-0.1,0.4c-0.1,0.5,0,0.8,0.2,1c0.2,0.2,0.6,0.3,1.1,0.3
			c0.4,0,0.7-0.1,1-0.2c0.3-0.1,0.6-0.3,0.8-0.6l0,0c0.8-0.5,2.5-0.4,2.1,0.2l0,0c-0.5,0.7-1.1,1.1-2,1.5
			C23.4,41.9,22.6,42.1,21.7,42.1L21.7,42.1z M25.2,37.3L25.2,37.3l0.1-0.3c0.1-0.4,0-0.8-0.1-1c-0.2-0.2-0.5-0.3-0.9-0.3
			c-0.6,0-1.1,0.2-1.5,0.6c-0.3,0.2-0.5,0.6-0.7,0.9l0,0H25.2z"/>
		<g>
			<path class="st1" d="M13.1,31.2c-0.6,0-1.2,0.5-1.3,1.2c-0.1,0.7,0.4,1.2,1,1.2c0.6,0,1.2-0.5,1.3-1.2
				C14.2,31.7,13.8,31.2,13.1,31.2z"/>
			<path class="st1" d="M11.2,34.7l-2,6.3c-0.2,1.5,1.9,1.4,2.2,0.3c0.6-2,1.2-4.1,1.8-6.1C13.5,34,11.5,33.9,11.2,34.7z"/>
		</g>
		<path class="st1" d="M16,34.3l-1,0c-0.4,0-0.8,1-0.4,1.3h0.8l-1.5,5.2c-0.2,0.7,0,1.1,0.6,1.3l2.7,0c0.8-0.1,1.4-1.6,0.6-1.7
			l-1.5-0.1l1.3-4.5h1.6c0.3-0.2,0.7-1.2,0.2-1.5l-1.4,0l0.8-2.4c0.1-0.6-1.6-1-2-0.2L16,34.3z"/>
	</g>
	<path class="st2" d="M37.6,32.9h-4.3l-0.9,2.7H36c0.3,0,0.6,0.1,0.7,0.2c0.1,0.1,0.1,0.3,0,0.6c-0.1,0.2-0.2,0.4-0.4,0.6
		c-0.2,0.1-0.5,0.2-0.8,0.2h-3.6l-1.2,3.5c-0.1,0.4-0.4,0.8-0.6,1c-0.3,0.2-0.6,0.3-0.9,0.3c-0.3,0-0.5-0.1-0.7-0.3
		c-0.1-0.2-0.1-0.6,0-1l2.7-8.2c0.1-0.3,0.2-0.6,0.4-0.8c0.2-0.2,0.3-0.3,0.6-0.4c0.2-0.1,0.5-0.1,0.8-0.1h5.1
		c0.3,0,0.6,0.1,0.7,0.2c0.1,0.2,0.1,0.4,0.1,0.6c-0.1,0.3-0.2,0.5-0.5,0.6C38.2,32.8,37.9,32.9,37.6,32.9z"/>
	<path class="st3" d="M46,35.7L46,35.7c0.8-0.9,1.7-1.2,2-1.3c0.3-0.1,0.8-0.2,1.1-0.1c0.6,0,2,0.4,1.5,2.6
		c-0.1,0.3-0.1,0.5-0.3,1.2l-1,3c-0.1,0.4-0.4,0.7-0.6,0.9c-0.2,0.2-0.4,0.3-0.7,0.3c-0.7,0-1.1-0.2-0.8-1.2l0.8-2.5
		c0.2-0.7,0.5-1.3,0.4-1.8c-0.1-0.4-0.9-0.9-1.9-0.2c-0.4,0.2-0.8,0.7-1.1,1.1c-0.2,0.3-0.5,0.9-0.7,1.8l-0.5,1.7
		c-0.1,0.4-0.3,0.6-0.5,0.8c-0.3,0.2-0.6,0.3-0.9,0.3c-0.7,0-1-0.3-0.8-0.9l1.6-5.3c0.2-0.7,0.5-1.2,0.8-1.4
		c0.3-0.2,0.6-0.3,0.9-0.3c0.3,0,0.6,0.1,0.7,0.3C46.2,34.7,46.1,35.2,46,35.7z"/>
	<g>
		<path class="st3" d="M56,40.6l1.6-5c0.2-0.5,0.4-0.8,0.6-1.1c0.3-0.2,0.6-0.4,0.9-0.3c0.3,0,0.5,0.2,0.6,0.4
			c0.1,0.3,0.1,0.6-0.1,1.1l-1.6,5c-0.2,0.5-0.4,0.8-0.6,1c-0.3,0.2-0.6,0.3-0.9,0.3c-0.3,0-0.5-0.2-0.6-0.4
			C55.9,41.4,55.9,41.1,56,40.6z"/>
		<path class="st3" d="M56.2,40.5l0.3-1.3c-0.4,0.6-1,1.3-2,1.3c-0.3,0-0.6-0.1-0.8-0.3c-0.2-0.2-0.3-0.5-0.3-0.9
			c0-0.4,0-0.8,0.2-1.3c0.2-0.5,0.4-1,0.6-1.3c0.3-0.4,0.5-0.7,0.9-0.9c0.3-0.2,0.8-0.3,1.1-0.3c0.9,0,1.3,0.6,1.2,1l0.8-1.8
			c-0.1-0.1-0.7-0.6-1.8-0.6c-0.5,0-1,0.1-1.5,0.3c-0.5,0.2-0.9,0.5-1.3,0.8c-0.4,0.3-0.8,0.8-1.1,1.3c-0.3,0.5-0.5,1-0.7,1.6
			c-0.2,0.6-0.2,1.1-0.2,1.6c0,0.5,0.1,0.9,0.3,1.3c0.2,0.4,0.5,0.6,0.9,0.8c0.4,0.2,0.8,0.3,1.3,0.3c1,0,1.8-0.8,2-0.8L56.2,40.5z"
			/>
	</g>
	<path class="st3" d="M75.5,40.5c-0.2,0.3-0.5,0.5-0.9,0.8c-0.4,0.3-0.8,0.5-1.2,0.6c-0.5,0.2-1,0.2-1.5,0.2c-1.1,0-1.9-0.4-2.3-1.1
		c-0.4-0.7-0.4-1.6-0.1-2.8c0.2-0.8,0.6-1.5,1.1-2.1c0.5-0.6,1-1.1,1.7-1.4c0.7-0.3,1.4-0.5,2.1-0.5c0.5,0,0.9,0,1.3,0.2
		c0.5,0.2,0.8,0.5,0.9,1c0.1,0.4,0.1,0.9-0.2,1.3c-0.2,0.3-0.8,0.5-1.1,0.2c-0.3-0.3-0.2-0.5-0.4-0.8c-0.2-0.2-0.4-0.3-0.7-0.4
		c-0.5,0-1.1,0.1-1.6,0.6c-0.4,0.5-0.8,1-1.1,1.6c-0.2,0.4-0.3,0.9-0.3,1.2c0,0.3,0,1.1,0.9,1.2c0.9,0.1,1.6-0.4,1.9-0.8
		c0.2-0.2,0.8-0.3,1.2-0.3c0.5,0,0.6,0.2,0.7,0.3C75.9,39.8,75.7,40.2,75.5,40.5z"/>
	<g>
		<path class="st4" d="M41.4,31.2c-0.6,0-1.2,0.5-1.3,1.2c-0.1,0.7,0.4,1.2,1,1.2c0.6,0,1.2-0.5,1.3-1.2
			C42.5,31.7,42.1,31.2,41.4,31.2z"/>
		<path class="st4" d="M39.5,34.7l-2,6.3c-0.2,1.5,1.9,1.4,2.2,0.3c0.6-2,1.2-4.1,1.8-6.1C41.8,34,39.9,33.9,39.5,34.7z"/>
	</g>
	<path class="st3" d="M63.7,35.6L63.7,35.6c0.8-0.9,1.7-1.2,2-1.3s0.8-0.2,1.1-0.1c0.6,0,2,0.4,1.5,2.6c-0.1,0.3-0.1,0.5-0.3,1.2
		l-1,3c-0.1,0.4-0.4,0.7-0.6,0.9c-0.2,0.2-0.4,0.3-0.7,0.3c-0.7,0-1.1-0.2-0.8-1.2l0.8-2.5c0.2-0.7,0.5-1.3,0.4-1.8
		c-0.1-0.4-0.9-0.9-1.9-0.2c-0.4,0.2-0.8,0.7-1.1,1.1c-0.2,0.3-0.5,0.9-0.7,1.8l-0.5,1.7c-0.1,0.4-0.3,0.6-0.5,0.8
		c-0.3,0.2-0.6,0.3-0.9,0.3c-0.7,0-1-0.3-0.8-0.9l1.6-5.3c0.2-0.7,0.5-1.2,0.8-1.4c0.3-0.2,0.6-0.3,0.9-0.3c0.3,0,0.6,0.1,0.7,0.3
		C63.9,34.7,63.9,35.2,63.7,35.6z"/>
	<path class="st2" d="M79.4,42.1c-1.1,0-1.8-0.2-2.3-0.7c-0.5-0.5-0.6-1.1-0.4-2c0-0.2,0.1-0.4,0.2-0.6c0.1-0.2,0.1-0.4,0.2-0.6
		c0.5-1.3,1.3-2.3,2.3-3c1-0.7,2.1-1.1,3.3-1.1c1,0,1.7,0.2,2.2,0.7c0.4,0.5,0.6,1.2,0.4,2.1c0,0.2-0.1,0.5-0.2,0.7
		c-0.3,0.9-0.5,1.1-1.3,1.1L79,38.6l0,0l0,0.1c0,0.1-0.1,0.3-0.1,0.4c-0.1,0.5,0,0.8,0.2,1c0.2,0.2,0.6,0.3,1.1,0.3
		c0.4,0,0.7-0.1,1-0.2c0.3-0.1,0.6-0.3,0.8-0.6l0,0c0.8-0.5,2.5-0.4,2.1,0.2l0,0c-0.5,0.7-1.1,1.1-2,1.5
		C81.2,41.9,80.3,42.1,79.4,42.1L79.4,42.1z M83,37.3L83,37.3L83,37c0.1-0.4,0-0.8-0.1-1c-0.2-0.2-0.5-0.3-0.9-0.3
		c-0.6,0-1.1,0.2-1.5,0.6c-0.3,0.2-0.5,0.6-0.7,0.9l0,0H83z"/>
</g>
<g>
	<path class="st5" d="M48.5,6.1l2.7,2.8l4.3-4.6c0.8-0.9,1.2-1.8,0.1-2.8c-1.2-1-1.8-0.7-2.7,0.2L48.5,6.1z"/>
	<path class="st6" d="M33.4,9.5l8-8.1c1.1-0.9,1.5-1,2.6-0.1l11.1,11.5c0.8,0.8,1.5,1.9,0.5,3c-1,1.1-2.2,0.6-3-0.3l-4.1-4.1
		l-4.1,4.2c-0.8,0.8-1.9,1.2-2.9,0.2c-1-1.1-0.6-2,0.2-2.9l4-4.2l-3.3-3.2L36,12.1c-0.9,0.9-2.2,1.9-3.4,0.4
		C31.7,11.2,32.5,10.4,33.4,9.5z"/>
	<path class="st7" d="M30,16c3.9,3.9,7.7,7.8,11.6,11.7c0.8,0.7,1.5,0.7,2.3,0c2.9-2.9,5.8-5.8,8.7-8.7c0.8-0.8,0.8-1.8-0.1-2.6
		c-1.1-1-1.8-0.6-2.6,0.2l-7,7c-3.3-3.3-6.7-6.6-10-10c-0.9-0.9-1.9-1.5-3-0.3C28.9,14.3,29.3,15.2,30,16z"/>
</g>
</svg>
