<svg xmlns="http://www.w3.org/2000/svg" width="256" height="256">
  <svg xmlns="http://www.w3.org/2000/svg" width="256" height="256" fill="none" viewBox="0 0 48 48">
    <path fill="#34a853" fill-rule="evenodd" d="M24 48C10.745 48 0 37.255 0 24S10.745 0 24 0s24 10.745 24 24-10.745 24-24 24Zm3.756-35.304.305-.448.305-.442.68-.993a.26.26 0 0 0-.077-.368.273.273 0 0 0-.376.074l-1.349 1.966a9.18 9.18 0 0 0-3.244-.58 9.188 9.188 0 0 0-3.244.58l-.31-.455-1.036-1.51a.28.28 0 0 0-.38-.075.262.262 0 0 0-.076.368l.68.993.305.442.306.448c-2.315 1.05-3.88 3.039-3.88 5.314h15.27c0-2.275-1.565-4.264-3.879-5.314Zm-11.392 6.375v11.68c0 .927.774 1.681 1.729 1.681h1.246a1.5 1.5 0 0 0-.066.442v3.363c0 .879.734 1.592 1.637 1.592s1.637-.713 1.637-1.592v-3.363a1.54 1.54 0 0 0-.067-.442h3.04c-.042.14-.065.288-.065.442v3.363c0 .879.732 1.592 1.635 1.592.905 0 1.64-.713 1.64-1.592v-3.363c0-.154-.026-.301-.069-.442h1.248c.954 0 1.727-.754 1.727-1.682V19.072H16.364Zm-2.727 0c-.905 0-1.637.713-1.637 1.592v6.814c0 .879.732 1.591 1.637 1.591.903 0 1.636-.712 1.636-1.591v-6.814c0-.879-.733-1.592-1.636-1.592Zm20.727 0c-.904 0-1.637.713-1.637 1.592v6.814c0 .879.733 1.591 1.638 1.591.903 0 1.635-.712 1.635-1.591v-6.814c0-.879-.732-1.592-1.636-1.592Z" class="color000 svgShape" clip-rule="evenodd"/>
    <path fill="#34a853" fill-rule="evenodd" d="M20.727 15.886a.807.807 0 0 1-.818-.796c0-.44.366-.796.818-.796.453 0 .819.355.819.796 0 .44-.366.796-.819.796zm6.546 0a.807.807 0 0 1-.819-.796c0-.44.366-.796.819-.796.452 0 .818.355.818.796 0 .44-.366.796-.818.796z" class="color000 svgShape" clip-rule="evenodd"/>
  </svg>
</svg>
