<svg width="32" height="32" viewBox="0 0 32 32" fill="none" xmlns="http://www.w3.org/2000/svg">
<g clip-path="url(#clip0_166_327)">
<path d="M7.09188 19.3381L5.978 23.4963L1.90681 23.5825C0.690125 21.3258 0 18.7438 0 16.0001C0 13.3469 0.64525 10.8449 1.789 8.64185H1.78988L5.41437 9.30634L7.00212 12.9091C6.66981 13.8779 6.48869 14.9179 6.48869 16.0001C6.48881 17.1746 6.70156 18.2999 7.09188 19.3381Z" fill="#FBBB00"/>
<path d="M31.7203 13.011C31.904 13.9789 31.9998 14.9784 31.9998 16C31.9998 17.1455 31.8794 18.2629 31.6499 19.3407C30.8711 23.0084 28.8359 26.211 26.0166 28.4774L26.0157 28.4765L21.4504 28.2435L20.8043 24.2101C22.6751 23.113 24.1371 21.396 24.9072 19.3407H16.3516V13.011H25.032H31.7203Z" fill="#518EF8"/>
<path d="M26.0157 28.4766L26.0166 28.4774C23.2747 30.6814 19.7915 32.0001 15.9999 32.0001C9.90674 32.0001 4.60918 28.5944 1.90674 23.5825L7.0918 19.3381C8.44299 22.9443 11.9217 25.5113 15.9999 25.5113C17.7529 25.5113 19.3951 25.0374 20.8043 24.2102L26.0157 28.4766Z" fill="#28B446"/>
<path d="M26.2128 3.6835L21.0295 7.927C19.5711 7.01538 17.8471 6.48875 16.0001 6.48875C11.8295 6.48875 8.28575 9.17356 7.00225 12.909L1.78994 8.64175H1.78906C4.45194 3.50769 9.81631 0 16.0001 0C19.8822 0 23.4418 1.38287 26.2128 3.6835Z" fill="#F14336"/>
</g>
<defs>
<clipPath id="clip0_166_327">
<rect width="32" height="32" fill="white"/>
</clipPath>
</defs>
</svg>
