<svg width="44" height="44" viewBox="0 0 44 44" fill="none" xmlns="http://www.w3.org/2000/svg">
<circle cx="22" cy="22" r="22" fill="#F0F1F5"/>
<path d="M27.4525 31.1976C26.3638 32.253 25.175 32.0864 24.0307 31.5864C22.8198 31.0754 21.7088 31.0531 20.4312 31.5864C18.8314 32.2752 17.987 32.0752 17.0316 31.1976C11.6101 25.6094 12.41 17.0994 18.5647 16.7883C20.0646 16.8661 21.1089 17.6104 21.9865 17.6771C23.2975 17.4104 24.5529 16.6439 25.9527 16.7438C27.6303 16.8772 28.8968 17.5437 29.73 18.7436C26.2638 20.8211 27.0859 25.3872 30.2633 26.6648C29.63 28.3313 28.8079 29.9866 27.4414 31.2087L27.4525 31.1976ZM21.8754 16.7216C21.7088 14.2442 23.7196 12.2 26.0305 12C26.3527 14.8663 23.4308 16.9994 21.8754 16.7216Z" fill="black"/>
</svg>
