<svg width="44" height="44" viewBox="0 0 44 44" fill="none" xmlns="http://www.w3.org/2000/svg">
<circle cx="22" cy="22" r="22" fill="white"/>
<circle cx="22" cy="22" r="21.5" stroke="black" stroke-opacity="0.08"/>
<g clip-path="url(#clip0_3947_1023)">
<path d="M21.7391 17.0823C21.7391 17.1464 21.679 17.1464 21.679 17.1464H21.6188C21.5587 17.1464 21.5587 17.0823 21.4985 17.0182C21.4985 17.0182 21.4384 16.9541 21.4384 16.89C21.4384 16.8259 21.4384 16.8259 21.4985 16.8259L21.6188 16.89C21.679 16.9541 21.7391 17.0182 21.7391 17.0823ZM20.6564 16.4413C20.6564 16.1208 20.5361 15.9285 20.3557 15.9285C20.3557 15.9285 20.3557 15.9926 20.2955 15.9926V16.1208H20.476C20.476 16.249 20.5361 16.3131 20.5361 16.4413H20.6564ZM22.7617 16.1208C22.882 16.1208 22.9421 16.249 23.0023 16.4413H23.1226C23.0624 16.3772 23.0624 16.3131 23.0624 16.249C23.0624 16.1849 23.0624 16.1208 23.0023 16.0567C22.9421 15.9926 22.882 15.9285 22.8218 15.9285C22.8218 15.9285 22.7617 15.9926 22.7015 15.9926C22.7015 16.0567 22.7617 16.0567 22.7617 16.1208ZM20.9572 17.1464C20.897 17.1464 20.897 17.1464 20.897 17.0823C20.897 17.0182 20.897 16.9541 20.9572 16.89C21.0775 16.89 21.1376 16.8259 21.1376 16.8259C21.1978 16.8259 21.1978 16.89 21.1978 16.89C21.1978 16.9541 21.1376 17.0182 21.0173 17.1464H20.9572ZM20.2955 17.0823C20.0549 16.9541 19.9948 16.7618 19.9948 16.4413C19.9948 16.249 19.9948 16.1208 20.1151 15.9926C20.1752 15.8644 20.2955 15.8003 20.4158 15.8003C20.5361 15.8003 20.5963 15.8644 20.7166 15.9926C20.7767 16.1849 20.8369 16.3772 20.8369 16.5695V16.6977H20.897V16.6336C20.9572 16.6336 20.9572 16.5054 20.9572 16.249C20.9572 16.0567 20.9572 15.8644 20.8369 15.6721C20.7166 15.4798 20.5963 15.3516 20.3557 15.3516C20.1752 15.3516 19.9948 15.4798 19.9346 15.6721C19.8143 15.9285 19.7903 16.1208 19.7903 16.4413C19.7903 16.6977 19.8745 16.9541 20.1151 17.2105C20.1752 17.1464 20.2354 17.1464 20.2955 17.0823ZM27.8143 26.1208C27.8745 26.1208 27.8745 26.0952 27.8745 26.0375C27.8745 25.8964 27.8143 25.7298 27.6339 25.5439C27.4534 25.3516 27.1527 25.2298 26.7918 25.1785C26.7316 25.1721 26.6715 25.1721 26.6715 25.1721C26.6113 25.1593 26.6113 25.1593 26.5512 25.1593C26.491 25.1528 26.3707 25.14 26.3106 25.1272C26.491 24.531 26.5512 24.0054 26.5512 23.5439C26.5512 22.9028 26.4309 22.4541 26.1903 22.0695C25.9497 21.6849 25.7091 21.4926 25.4083 21.4285C25.3482 21.4926 25.3482 21.4926 25.3482 21.5567C25.6489 21.6849 25.9497 21.9413 26.1301 22.3259C26.3106 22.7746 26.3707 23.1593 26.3707 23.608C26.3707 23.9669 26.3106 24.499 26.07 25.1785C25.8294 25.281 25.5888 25.5182 25.4083 25.89C25.4083 25.9477 25.4083 25.9798 25.4685 25.9798C25.4685 25.9798 25.5286 25.9221 25.5888 25.8131C25.7091 25.7041 25.7692 25.5952 25.8895 25.4862C26.07 25.3772 26.1903 25.3195 26.3707 25.3195C26.6715 25.3195 26.9722 25.3644 27.1527 25.4541C27.3933 25.5375 27.5136 25.6272 27.5737 25.7298C27.6339 25.8259 27.694 25.9157 27.7542 25.999C27.7542 26.0823 27.8143 26.1208 27.8143 26.1208ZM22.2805 16.8259C22.2203 16.7618 22.2203 16.6336 22.2203 16.5054C22.2203 16.249 22.2203 16.1208 22.3406 15.9285C22.4609 15.8003 22.5812 15.7362 22.7015 15.7362C22.882 15.7362 23.0023 15.8644 23.1226 15.9926C23.1827 16.1849 23.2429 16.3131 23.2429 16.5054C23.2429 16.8259 23.1226 17.0182 22.882 17.0823C22.882 17.0823 22.9421 17.1464 23.0023 17.1464C23.1226 17.1464 23.1827 17.2105 23.303 17.2746C23.3632 16.89 23.4233 16.6336 23.4233 16.3131C23.4233 15.9285 23.3632 15.6721 23.2429 15.4798C23.0624 15.2875 22.882 15.2234 22.6414 15.2234C22.4609 15.2234 22.2805 15.2875 22.1 15.4157C21.9797 15.608 21.9196 15.7362 21.9196 15.9285C21.9196 16.249 21.9797 16.5054 22.1 16.7618C22.1602 16.7618 22.2203 16.8259 22.2805 16.8259ZM23.0023 17.8516C22.2203 18.4285 21.6188 18.6849 21.1376 18.6849C20.7166 18.6849 20.2955 18.4926 19.9346 18.1721C19.9948 18.3003 20.0549 18.4285 20.1151 18.4926L20.476 18.8772C20.7166 19.1336 21.0173 19.2618 21.3181 19.2618C21.7391 19.2618 22.2203 19.0054 22.8218 18.5567L23.3632 18.1721C23.4835 18.0439 23.6038 17.9157 23.6038 17.7234C23.6038 17.6593 23.6038 17.5952 23.5436 17.5952C23.4835 17.4669 23.1827 17.2746 22.5812 17.0823C22.0399 16.8259 21.6188 16.6977 21.3782 16.6977C21.1978 16.6977 20.897 16.8259 20.476 17.0823C20.1151 17.3387 19.8745 17.5952 19.8745 17.8516C19.8745 17.8516 19.9346 17.9157 19.9948 18.0439C20.3557 18.3644 20.7166 18.5567 21.0775 18.5567C21.5587 18.5567 22.1602 18.3003 22.9421 17.6593V17.7875C23.0023 17.7875 23.0023 17.8516 23.0023 17.8516ZM24.3857 30.8003C24.6263 31.2823 25.0474 31.5246 25.5286 31.5246C25.6489 31.5246 25.7692 31.5054 25.8895 31.4669C26.0098 31.4413 26.1301 31.3964 26.1903 31.3451C26.2504 31.3003 26.3106 31.2554 26.3707 31.2041C26.491 31.1593 26.491 31.1272 26.5512 31.0951L27.5737 30.1528C27.8143 29.9484 28.0549 29.7695 28.3557 29.6144C28.5963 29.4605 28.8369 29.358 28.9572 29.3003C29.1376 29.249 29.2579 29.1721 29.3782 29.0695C29.4384 28.9734 29.4985 28.8516 29.4985 28.6977C29.4985 28.5118 29.3782 28.3708 29.2579 28.2682C29.1376 28.1657 29.0173 28.0952 28.897 28.0503C28.7767 28.0054 28.6564 27.9028 28.476 27.7298C28.3557 27.5631 28.2354 27.3323 28.1752 27.031L28.1151 26.6593C28.0549 26.4862 28.0549 26.358 27.9948 26.2875C27.9948 26.2682 27.9948 26.2618 27.9346 26.2618C27.8745 26.2618 27.7542 26.3195 27.694 26.4285C27.5737 26.5375 27.4534 26.6593 27.3331 26.7875C27.273 26.9157 27.0925 27.031 26.9722 27.14C26.7918 27.249 26.6113 27.3067 26.491 27.3067C26.0098 27.3067 25.7692 27.1657 25.5888 26.89C25.4685 26.6849 25.4083 26.4477 25.3482 26.1785C25.2279 26.0695 25.1677 26.0118 25.0474 26.0118C24.7467 26.0118 24.6263 26.3452 24.6263 27.0182V29.0118C24.6263 29.0695 24.5662 29.1977 24.5662 29.3964C24.506 29.5951 24.506 29.8208 24.506 30.0759L24.3857 30.7875V30.7984M15.6639 30.4593C16.2233 30.5464 16.867 30.733 17.5948 31.0176C18.3226 31.2996 18.7677 31.4471 18.9301 31.4471C19.3512 31.4471 19.7 31.2484 19.9888 30.8644C20.0489 30.74 20.0489 30.5939 20.0489 30.4259C20.0489 29.8202 19.706 29.0541 19.0203 28.1246L18.6113 27.5413C18.5271 27.4195 18.4248 27.2336 18.2925 26.9836C18.1662 26.7336 18.0519 26.5413 17.9617 26.4067C17.8835 26.2593 17.7572 26.1118 17.5948 25.9644C17.4384 25.8169 17.2579 25.7208 17.0594 25.6695C16.8068 25.7208 16.6324 25.8105 16.5482 25.9323C16.4639 26.0541 16.4158 26.1887 16.4038 26.3298C16.3857 26.4644 16.3497 26.5541 16.2895 26.599C16.2294 26.6375 16.1271 26.6695 15.9888 26.7016C15.9587 26.7016 15.9045 26.7016 15.8264 26.708H15.6639C15.3451 26.708 15.1286 26.7464 15.0143 26.8105C14.8639 26.9964 14.7857 27.208 14.7857 27.4323C14.7857 27.5349 14.8098 27.708 14.8579 27.9516C14.906 28.1887 14.9301 28.3811 14.9301 28.5157C14.9301 28.7785 14.8579 29.0413 14.7076 29.3041C14.5572 29.5798 14.479 29.7849 14.479 29.931C14.5391 30.1798 14.9361 30.3548 15.6639 30.4573M17.667 24.6304C17.667 24.1881 17.7752 23.7009 17.9978 23.124C18.2143 22.5471 18.4309 22.1625 18.6414 21.906C18.6294 21.8419 18.5993 21.8419 18.5512 21.8419L18.491 21.7778C18.3166 21.9702 18.106 22.4189 17.8534 23.0599C17.6008 23.6368 17.4685 24.1689 17.4685 24.5599C17.4685 24.8484 17.5346 25.0984 17.6549 25.3163C17.7873 25.5278 18.106 25.8355 18.6113 26.2266L19.2489 26.6689C19.9286 27.2971 20.2895 27.733 20.2895 27.9894C20.2895 28.124 20.2294 28.2586 20.0489 28.406C19.9286 28.5599 19.7662 28.6368 19.6279 28.6368C19.6158 28.6368 19.6098 28.6496 19.6098 28.6817C19.6098 28.6881 19.67 28.8163 19.7963 29.0663C20.0489 29.4317 20.5903 29.6112 21.3121 29.6112C22.6354 29.6112 23.6579 29.0343 24.4399 27.8804C24.4399 27.5599 24.4399 27.3612 24.3797 27.2778V27.0407C24.3797 26.624 24.4399 26.3099 24.5602 26.1048C24.6805 25.8996 24.8008 25.8035 24.9812 25.8035C25.1015 25.8035 25.2218 25.8484 25.3421 25.9445C25.4023 25.4509 25.4023 25.0214 25.4023 24.6368C25.4023 24.0535 25.4023 23.5727 25.282 23.124C25.2218 22.7394 25.1015 22.4189 24.9812 22.1625L24.6203 21.5855C24.5 21.3932 24.4399 21.2009 24.3196 21.0086C24.2594 20.7522 24.1993 20.5599 24.1993 20.2394C24.0188 19.9189 23.8985 19.5984 23.7181 19.2778C23.5978 18.9573 23.4775 18.6368 23.3572 18.3804L22.8158 18.8291C22.2143 19.2778 21.7331 19.4702 21.3121 19.4702C20.9512 19.4702 20.6504 19.406 20.47 19.1496L20.1091 18.8291C20.1091 19.0214 20.0489 19.2778 19.9286 19.5343L19.5497 20.3035C19.3812 20.7522 19.291 21.0086 19.273 21.2009C19.2489 21.3291 19.2309 21.4573 19.2188 21.4573L18.7677 22.4189C18.2805 23.3804 18.0339 24.2714 18.0339 25.0086C18.0339 25.156 18.0459 25.3099 18.07 25.4637C17.7993 25.265 17.667 24.9894 17.667 24.6304ZM21.9737 30.6945C21.1918 30.6945 20.5903 30.8073 20.1692 31.031V31.0118C19.8685 31.3964 19.5316 31.5951 19.0624 31.5951C18.7677 31.5951 18.3045 31.4734 17.679 31.2298C17.0474 30.999 16.488 30.8221 16.0008 30.7054C15.9527 30.6907 15.8444 30.6689 15.67 30.6394C15.5015 30.6105 15.3451 30.581 15.2068 30.5516C15.0805 30.5227 14.9361 30.4791 14.7797 30.4202C14.6294 30.3695 14.5091 30.3035 14.4188 30.2234C14.3358 30.1426 14.2949 30.0516 14.2949 29.9496C14.2949 29.8471 14.3154 29.7375 14.3563 29.6208C14.3948 29.5503 14.4369 29.4798 14.479 29.4157C14.5211 29.3451 14.5572 29.281 14.5812 29.2169C14.6173 29.1593 14.6414 29.1016 14.6654 29.0375C14.6895 28.9798 14.7136 28.9221 14.7256 28.8516C14.7376 28.7875 14.7497 28.7234 14.7497 28.6593C14.7497 28.5952 14.7256 28.4028 14.6775 28.0631C14.6294 27.7298 14.6053 27.5182 14.6053 27.4285C14.6053 27.1464 14.6654 26.9221 14.7978 26.7618C14.9301 26.6016 15.0564 26.5182 15.1888 26.5182H15.8805C15.9346 26.5182 16.0188 26.4862 16.1451 26.4093C16.1873 26.3067 16.2233 26.2234 16.2474 26.1464C16.2775 26.0695 16.2895 26.0118 16.3015 25.9862C16.3136 25.9477 16.3256 25.9093 16.3376 25.8772C16.3617 25.8323 16.3918 25.781 16.4339 25.7298C16.3857 25.6657 16.3617 25.5823 16.3617 25.4798C16.3617 25.4093 16.3617 25.3452 16.3737 25.3067C16.3737 25.0759 16.476 24.749 16.6925 24.3195L16.903 23.9157C17.0775 23.5695 17.2098 23.3131 17.306 23.0567C17.4083 22.8003 17.5166 22.4157 17.6369 21.9028C17.7331 21.4541 17.9617 21.0054 18.3226 20.5567L18.7737 19.9798C19.0865 19.5952 19.291 19.2746 19.4053 19.0182C19.5196 18.7618 19.5797 18.4413 19.5797 18.1849C19.5797 18.0567 19.5497 17.6721 19.4835 17.031C19.4233 16.39 19.3933 15.749 19.3933 15.1721C19.3933 14.7234 19.4294 14.4028 19.5076 14.0823C19.5857 13.7618 19.7241 13.4413 19.9286 13.1849C20.1091 12.9285 20.3497 12.6721 20.7106 12.5439C21.0715 12.4157 21.4925 12.3516 21.9737 12.3516C22.1542 12.3516 22.3346 12.3516 22.5151 12.4157C22.6955 12.4157 22.9361 12.4798 23.2369 12.608C23.4775 12.7362 23.7181 12.8644 23.8985 13.0567C24.1391 13.249 24.3196 13.5695 24.5 13.89C24.6203 14.2746 24.7406 14.6593 24.8008 15.1721C24.8609 15.4926 24.8609 15.8131 24.9211 16.2618C24.9211 16.6464 24.9812 16.9028 24.9812 17.0952C25.0414 17.2875 25.0414 17.5439 25.1015 17.8644C25.1617 18.1208 25.2218 18.3772 25.3421 18.5695C25.4624 18.8259 25.5827 19.0823 25.7632 19.3387C25.9436 19.6593 26.1842 19.9798 26.4248 20.3644C26.9662 21.0054 27.3873 21.7105 27.6279 22.4157C27.9286 23.0567 28.1091 23.89 28.1091 24.781C28.1091 25.2234 28.0489 25.6528 27.9286 26.0695C28.0489 26.0695 28.1091 26.1208 28.1692 26.2105C28.2294 26.3003 28.2895 26.4926 28.3497 26.7939L28.4098 27.2682C28.47 27.4093 28.5301 27.5439 28.7106 27.6593C28.8309 27.7746 28.9512 27.8708 29.1316 27.9477C29.2519 28.0118 29.4324 28.1016 29.5527 28.2169C29.673 28.3452 29.7331 28.4798 29.7331 28.6208C29.7331 28.8387 29.673 28.999 29.5527 29.1144C29.4324 29.2426 29.3121 29.3323 29.1316 29.39C29.0113 29.4541 28.7707 29.5823 28.4098 29.7631C28.1091 29.9528 27.8083 30.183 27.5076 30.4554L26.906 31.0009C26.6654 31.2509 26.4248 31.4304 26.2444 31.5394C26.0639 31.6548 25.8233 31.7125 25.5827 31.7125L25.1617 31.6612C24.6805 31.5266 24.3797 31.2702 24.1993 30.8791C23.2369 30.7548 22.4549 30.6932 21.9737 30.6932" fill="black"/>
</g>
<defs>
<clipPath id="clip0_3947_1023">
<rect width="16" height="20" fill="white" transform="translate(14 12)"/>
</clipPath>
</defs>
</svg>
