<svg width="44" height="44" viewBox="0 0 44 44" fill="none" xmlns="http://www.w3.org/2000/svg">
<g clip-path="url(#clip0_3947_1014)">
<path d="M20.4471 26.7106C20.4471 30.4118 18.5188 32.7412 15.4388 32.7412C12.3588 32.7412 10.4306 30.3988 10.4306 26.7106C10.4306 22.9965 12.3588 20.6671 15.4388 20.6671C18.5188 20.6671 20.4471 22.9965 20.4471 26.7106ZM24.7435 13.6529L23.3976 13.7435C22.6341 13.7953 22.2976 14.0671 22.2976 14.5588C22.2976 15.0765 22.7247 15.3612 23.32 15.3612C24.1353 15.3612 24.7435 14.8306 24.7435 14.1188V13.6529ZM44 22C44 34.2812 34.2812 44 22 44C9.71882 44 0 34.2812 0 22C0 9.71882 9.71882 0 22 0C34.2812 0 44 9.71882 44 22ZM27.0988 13.3812C27.0988 15.1671 28.0824 16.2541 29.6871 16.2541C31.0459 16.2541 31.9 15.4906 32.0424 14.4035H30.9812C30.8388 14.9988 30.3729 15.3224 29.6871 15.3224C28.7812 15.3224 28.2247 14.5847 28.2247 13.3812C28.2247 12.1906 28.7812 11.4788 29.6871 11.4788C30.4118 11.4788 30.8647 11.8929 30.9812 12.4235H32.0424C31.9 11.3624 31.0718 10.56 29.6871 10.56C28.0824 10.5471 27.0988 11.6341 27.0988 13.3812ZM12.3071 10.6635V16.1506H13.3941V12.7859C13.3941 12.0741 13.8988 11.5047 14.5588 11.5047C15.2059 11.5047 15.62 11.8929 15.62 12.5141V16.1506H16.6812V12.6824C16.6812 12.0224 17.1341 11.5047 17.8459 11.5047C18.5576 11.5047 18.9071 11.8671 18.9071 12.6306V16.1506H19.9941V12.3588C19.9941 11.22 19.3471 10.5471 18.2341 10.5471C17.4706 10.5471 16.8365 10.9353 16.5647 11.5306H16.4741C16.2282 10.9353 15.7106 10.5471 14.96 10.5471C14.2224 10.5471 13.6659 10.9094 13.4329 11.5306H13.3553V10.6506L12.3071 10.6635ZM22.3753 26.7106C22.3753 21.9353 19.7094 18.9329 15.4388 18.9329C11.1682 18.9329 8.50235 21.9353 8.50235 26.7106C8.50235 31.4859 11.1682 34.4753 15.4388 34.4753C19.7094 34.4753 22.3753 31.4729 22.3753 26.7106ZM23.0482 16.2412C23.7729 16.2412 24.3682 15.9306 24.7047 15.3741H24.7953V16.1506H25.8435V12.3976C25.8435 11.2459 25.0671 10.56 23.6824 10.56C22.4271 10.56 21.5471 11.1682 21.4306 12.0871H22.4788C22.5953 11.6859 23.0224 11.4659 23.6306 11.4659C24.3682 11.4659 24.7565 11.8024 24.7565 12.4106V12.8894L23.2682 12.98C21.9612 13.0576 21.2235 13.6271 21.2235 14.6235C21.2106 15.6071 21.9871 16.2412 23.0482 16.2412ZM34.9153 29.9459C34.9153 27.8106 33.6729 26.5682 30.5412 25.8824L28.8718 25.52C26.8141 25.0671 26.0118 24.2518 26.0118 23.0741C26.0118 21.5471 27.4612 20.6282 29.3376 20.6282C31.3047 20.6282 32.5988 21.6376 32.7671 23.2941H34.6435C34.5529 20.7447 32.3918 18.9459 29.3894 18.9459C26.2706 18.9459 24.0835 20.6929 24.0835 23.1647C24.0835 25.3 25.3906 26.6718 28.4059 27.3318L30.0753 27.6941C32.1588 28.1471 33 28.9882 33 30.2435C33 31.7188 31.5118 32.7929 29.48 32.7929C27.3188 32.7929 25.8176 31.8094 25.5976 30.1918H23.7212C23.9024 32.7929 26.0894 34.4753 29.3765 34.4753C32.7282 34.4753 34.9153 32.7282 34.9153 29.9459Z" fill="black"/>
</g>
<defs>
<clipPath id="clip0_3947_1014">
<rect width="44" height="44" fill="white"/>
</clipPath>
</defs>
</svg>
