<svg xmlns="http://www.w3.org/2000/svg" xml:space="preserve" width="792.307" height="798.696" viewBox="0 0 194.654 196.224">
  <g stroke-miterlimit="10" data-paper-data="{&quot;isPaintingLayer&quot;:true}" style="mix-blend-mode:normal">
    <path fill="#06f" d="M192.871 68.857c2.286 17.403 1.721 29.254 1.721 29.254s.565 11.85-1.72 29.251c-2.398 18.215-8.795 34.73-20.076 46.826l-.002.001c-11.994 11.367-28.371 17.819-46.448 20.236-17.264 2.304-29.019 1.737-29.019 1.737s-11.756.567-29.018-1.737c-18.075-2.417-34.454-8.87-46.448-20.236l-.002-.001c-11.28-12.096-17.679-28.6-20.074-46.826C-.503 109.961.062 98.116.062 98.116s-.565-11.856 1.723-29.26c2.395-18.218 8.794-34.73 20.073-46.82h.002C33.856 10.664 50.231 4.215 68.308 1.797 85.572-.51 97.327.063 97.327.063s11.754-.572 29.018 1.735c18.075 2.417 34.454 8.864 46.448 20.237h.002c11.282 12.091 17.678 28.6 20.076 46.822"/>
    <path fill="#fff" d="M107.925 120.382c-5.305-13.458-41.948-19.613-46.453-40.861-1.085-5.215-.976-9.381-.23-14.055 2.74-16.928 17.735-23.039 36.084-23.039 14.61 0 34.78 3.536 34.78 26.188v7.304H106.38v-6.42c0-5.68-3.563-9.436-9.591-9.436-6.456 0-8.714 3.657-9.427 6.972-.241 1.182-.384 3.392.11 5.48 2.915 12.177 42.068 18.674 46.42 40.442.427 2.221 1.36 8.1.11 17.083-2.445 17.326-17.812 23.757-36.468 23.757-19.401 0-37.509-6.995-37.509-30.177l.022-8.055h27.666v10.066c0 5.713 3.924 9.447 10.391 9.447 6.862 0 9.185-3.524 10.051-6.983.472-1.956.779-5.193-.23-7.713z"/>
  </g>
</svg>
